<?xml version="1.0" encoding="UTF-8" standalone="no"?>
<!DOCTYPE svg PUBLIC "-//W3C//DTD SVG 1.1//EN"
 "http://www.w3.org/Graphics/SVG/1.1/DTD/svg11.dtd">
<!-- Generated by graphviz version 8.0.5 (0)
 -->
<!-- Title: alloc.h Pages: 1 -->
<svg width="309pt" height="245pt"
 viewBox="0.00 0.00 308.75 244.50" xmlns="http://www.w3.org/2000/svg" xmlns:xlink="http://www.w3.org/1999/xlink">
<g id="graph0" class="graph" transform="scale(1 1) rotate(0) translate(4 240.5)">
<title>alloc.h</title>
<!-- Node1 -->
<g id="Node000001" class="node">
<title>Node1</title>
<g id="a_Node000001"><a xlink:title=" ">
<polygon fill="#999999" stroke="#666666" points="108.5,-236.5 64,-236.5 64,-218 108.5,-218 108.5,-236.5"/>
<text text-anchor="middle" x="86.25" y="-223" font-family="Helvetica,sans-Serif" font-size="10.00">alloc.h</text>
</a>
</g>
</g>
<!-- Node2 -->
<g id="Node000002" class="node">
<title>Node2</title>
<g id="a_Node000002"><a xlink:title=" ">
<polygon fill="#e0e0e0" stroke="#999999" points="50.5,-127.5 0,-127.5 0,-109 50.5,-109 50.5,-127.5"/>
<text text-anchor="middle" x="25.25" y="-114" font-family="Helvetica,sans-Serif" font-size="10.00">stddef.h</text>
</a>
</g>
</g>
<!-- Node1&#45;&gt;Node2 -->
<g id="edge1_Node000001_Node000002" class="edge">
<title>Node1&#45;&gt;Node2</title>
<g id="a_edge1_Node000001_Node000002"><a xlink:title=" ">
<path fill="none" stroke="#63b8ff" d="M63.81,-218.35C47.95,-211.44 27.85,-199.71 18.25,-182 10.97,-168.59 13.68,-151.2 17.67,-138.14"/>
<polygon fill="#63b8ff" stroke="#63b8ff" points="21.23,-139.57 21.28,-128.97 14.63,-137.22 21.23,-139.57"/>
</a>
</g>
</g>
<!-- Node3 -->
<g id="Node000003" class="node">
<title>Node3</title>
<g id="a_Node000003"><a xlink:href="a01427.html" target="_top" xlink:title=" ">
<polygon fill="white" stroke="#666666" points="69.38,-182 27.12,-182 27.12,-163.5 69.38,-163.5 69.38,-182"/>
<text text-anchor="middle" x="48.25" y="-168.5" font-family="Helvetica,sans-Serif" font-size="10.00">conf.h</text>
</a>
</g>
</g>
<!-- Node1&#45;&gt;Node3 -->
<g id="edge2_Node000001_Node000003" class="edge">
<title>Node1&#45;&gt;Node3</title>
<g id="a_edge2_Node000001_Node000003"><a xlink:title=" ">
<path fill="none" stroke="#63b8ff" d="M79.98,-217.58C74.77,-210.39 67.22,-199.95 60.78,-191.07"/>
<polygon fill="#63b8ff" stroke="#63b8ff" points="63.11,-189.31 54.41,-183.26 57.44,-193.41 63.11,-189.31"/>
</a>
</g>
</g>
<!-- Node4 -->
<g id="Node000004" class="node">
<title>Node4</title>
<g id="a_Node000004"><a xlink:href="a01352.html" target="_top" xlink:title=" ">
<polygon fill="white" stroke="#666666" points="252.75,-182 179.75,-182 179.75,-163.5 252.75,-163.5 252.75,-182"/>
<text text-anchor="middle" x="216.25" y="-168.5" font-family="Helvetica,sans-Serif" font-size="10.00">arax_types.h</text>
</a>
</g>
</g>
<!-- Node1&#45;&gt;Node4 -->
<g id="edge3_Node000001_Node000004" class="edge">
<title>Node1&#45;&gt;Node4</title>
<g id="a_edge3_Node000001_Node000004"><a xlink:title=" ">
<path fill="none" stroke="#63b8ff" d="M107.72,-217.58C128.7,-209.11 160.88,-196.11 184.76,-186.47"/>
<polygon fill="#63b8ff" stroke="#63b8ff" points="185.79,-189.42 193.75,-182.43 183.17,-182.93 185.79,-189.42"/>
</a>
</g>
</g>
<!-- Node7 -->
<g id="Node000007" class="node">
<title>Node7</title>
<g id="a_Node000007"><a xlink:href="a01367.html" target="_top" xlink:title=" ">
<polygon fill="white" stroke="#666666" points="161.5,-182 87,-182 87,-163.5 161.5,-163.5 161.5,-182"/>
<text text-anchor="middle" x="124.25" y="-168.5" font-family="Helvetica,sans-Serif" font-size="10.00">utils/bitmap.h</text>
</a>
</g>
</g>
<!-- Node1&#45;&gt;Node7 -->
<g id="edge6_Node000001_Node000007" class="edge">
<title>Node1&#45;&gt;Node7</title>
<g id="a_edge6_Node000001_Node000007"><a xlink:title=" ">
<path fill="none" stroke="#63b8ff" d="M92.52,-217.58C97.73,-210.39 105.28,-199.95 111.72,-191.07"/>
<polygon fill="#63b8ff" stroke="#63b8ff" points="115.06,-193.41 118.09,-183.26 109.39,-189.31 115.06,-193.41"/>
</a>
</g>
</g>
<!-- Node5 -->
<g id="Node000005" class="node">
<title>Node5</title>
<g id="a_Node000005"><a xlink:title=" ">
<polygon fill="#e0e0e0" stroke="#999999" points="239.38,-127.5 179.12,-127.5 179.12,-109 239.38,-109 239.38,-127.5"/>
<text text-anchor="middle" x="209.25" y="-114" font-family="Helvetica,sans-Serif" font-size="10.00">sys/time.h</text>
</a>
</g>
</g>
<!-- Node4&#45;&gt;Node5 -->
<g id="edge4_Node000004_Node000005" class="edge">
<title>Node4&#45;&gt;Node5</title>
<g id="a_edge4_Node000004_Node000005"><a xlink:title=" ">
<path fill="none" stroke="#63b8ff" d="M215.09,-163.08C214.21,-156.43 212.95,-146.99 211.83,-138.58"/>
<polygon fill="#63b8ff" stroke="#63b8ff" points="215.18,-138.21 210.38,-128.76 208.24,-139.13 215.18,-138.21"/>
</a>
</g>
</g>
<!-- Node6 -->
<g id="Node000006" class="node">
<title>Node6</title>
<g id="a_Node000006"><a xlink:title=" ">
<polygon fill="#e0e0e0" stroke="#999999" points="300.75,-127.5 257.75,-127.5 257.75,-109 300.75,-109 300.75,-127.5"/>
<text text-anchor="middle" x="279.25" y="-114" font-family="Helvetica,sans-Serif" font-size="10.00">time.h</text>
</a>
</g>
</g>
<!-- Node4&#45;&gt;Node6 -->
<g id="edge5_Node000004_Node000006" class="edge">
<title>Node4&#45;&gt;Node6</title>
<g id="a_edge5_Node000004_Node000006"><a xlink:title=" ">
<path fill="none" stroke="#63b8ff" d="M226.65,-163.08C235.92,-155.36 249.69,-143.88 260.82,-134.61"/>
<polygon fill="#63b8ff" stroke="#63b8ff" points="262.6,-136.85 268.04,-127.76 258.12,-131.47 262.6,-136.85"/>
</a>
</g>
</g>
<!-- Node7&#45;&gt;Node2 -->
<g id="edge11_Node000007_Node000002" class="edge">
<title>Node7&#45;&gt;Node2</title>
<g id="a_edge11_Node000007_Node000002"><a xlink:title=" ">
<path fill="none" stroke="#63b8ff" d="M107.9,-163.08C92.5,-154.91 69.16,-142.54 51.21,-133.02"/>
<polygon fill="#63b8ff" stroke="#63b8ff" points="53.1,-129.53 42.62,-127.93 49.82,-135.71 53.1,-129.53"/>
</a>
</g>
</g>
<!-- Node8 -->
<g id="Node000008" class="node">
<title>Node8</title>
<g id="a_Node000008"><a xlink:href="a01382.html" target="_top" xlink:title=" ">
<polygon fill="white" stroke="#666666" points="154.38,-127.5 94.12,-127.5 94.12,-109 154.38,-109 154.38,-127.5"/>
<text text-anchor="middle" x="124.25" y="-114" font-family="Helvetica,sans-Serif" font-size="10.00">spinlock.h</text>
</a>
</g>
</g>
<!-- Node7&#45;&gt;Node8 -->
<g id="edge7_Node000007_Node000008" class="edge">
<title>Node7&#45;&gt;Node8</title>
<g id="a_edge7_Node000007_Node000008"><a xlink:title=" ">
<path fill="none" stroke="#63b8ff" d="M124.25,-163.08C124.25,-156.43 124.25,-146.99 124.25,-138.58"/>
<polygon fill="#63b8ff" stroke="#63b8ff" points="127.75,-138.76 124.25,-128.76 120.75,-138.76 127.75,-138.76"/>
</a>
</g>
</g>
<!-- Node9 -->
<g id="Node000009" class="node">
<title>Node9</title>
<g id="a_Node000009"><a xlink:title=" ">
<polygon fill="#e0e0e0" stroke="#999999" points="103,-73 55.5,-73 55.5,-54.5 103,-54.5 103,-73"/>
<text text-anchor="middle" x="79.25" y="-59.5" font-family="Helvetica,sans-Serif" font-size="10.00">stdint.h</text>
</a>
</g>
</g>
<!-- Node8&#45;&gt;Node9 -->
<g id="edge8_Node000008_Node000009" class="edge">
<title>Node8&#45;&gt;Node9</title>
<g id="a_edge8_Node000008_Node000009"><a xlink:title=" ">
<path fill="none" stroke="#63b8ff" d="M116.82,-108.58C110.53,-101.24 101.33,-90.51 93.61,-81.5"/>
<polygon fill="#63b8ff" stroke="#63b8ff" points="95.71,-79.57 86.54,-74.26 90.39,-84.13 95.71,-79.57"/>
</a>
</g>
</g>
<!-- Node10 -->
<g id="Node000010" class="node">
<title>Node10</title>
<g id="a_Node000010"><a xlink:href="a01361.html" target="_top" xlink:title=" ">
<polygon fill="white" stroke="#666666" points="217.75,-73 120.75,-73 120.75,-54.5 217.75,-54.5 217.75,-73"/>
<text text-anchor="middle" x="169.25" y="-59.5" font-family="Helvetica,sans-Serif" font-size="10.00">utils/arax_assert.h</text>
</a>
</g>
</g>
<!-- Node8&#45;&gt;Node10 -->
<g id="edge9_Node000008_Node000010" class="edge">
<title>Node8&#45;&gt;Node10</title>
<g id="a_edge9_Node000008_Node000010"><a xlink:title=" ">
<path fill="none" stroke="#63b8ff" d="M131.68,-108.58C137.97,-101.24 147.17,-90.51 154.89,-81.5"/>
<polygon fill="#63b8ff" stroke="#63b8ff" points="158.11,-84.13 161.96,-74.26 152.79,-79.57 158.11,-84.13"/>
</a>
</g>
</g>
<!-- Node11 -->
<g id="Node000011" class="node">
<title>Node11</title>
<g id="a_Node000011"><a xlink:href="a01370.html" target="_top" xlink:title=" ">
<polygon fill="white" stroke="#666666" points="197.12,-18.5 141.38,-18.5 141.38,0 197.12,0 197.12,-18.5"/>
<text text-anchor="middle" x="169.25" y="-5" font-family="Helvetica,sans-Serif" font-size="10.00">compat.h</text>
</a>
</g>
</g>
<!-- Node10&#45;&gt;Node11 -->
<g id="edge10_Node000010_Node000011" class="edge">
<title>Node10&#45;&gt;Node11</title>
<g id="a_edge10_Node000010_Node000011"><a xlink:title=" ">
<path fill="none" stroke="#63b8ff" d="M169.25,-54.08C169.25,-47.43 169.25,-37.99 169.25,-29.58"/>
<polygon fill="#63b8ff" stroke="#63b8ff" points="172.75,-29.76 169.25,-19.76 165.75,-29.76 172.75,-29.76"/>
</a>
</g>
</g>
</g>
</svg>
