<?xml version="1.0" encoding="UTF-8" standalone="no"?>
<!DOCTYPE svg PUBLIC "-//W3C//DTD SVG 1.1//EN"
 "http://www.w3.org/Graphics/SVG/1.1/DTD/svg11.dtd">
<!-- Generated by graphviz version 12.2.1 (0)
 -->
<!-- Title: utils_queue_used_slots Pages: 1 -->
<svg width="769pt" height="101pt"
 viewBox="0.00 0.00 769.00 100.50" xmlns="http://www.w3.org/2000/svg" xmlns:xlink="http://www.w3.org/1999/xlink">
<g id="graph0" class="graph" transform="scale(1 1) rotate(0) translate(4 96.5)">
<title>utils_queue_used_slots</title>
<!-- Node1 -->
<g id="Node000001" class="node">
<title>Node1</title>
<g id="a_Node000001"><a xlink:title=" ">
<polygon fill="#999999" stroke="#666666" points="761,-36.5 643,-36.5 643,-18 761,-18 761,-36.5"/>
<text text-anchor="middle" x="702" y="-23" font-family="Helvetica,sans-Serif" font-size="10.00">utils_queue_used_slots</text>
</a>
</g>
</g>
<!-- Node2 -->
<g id="Node000002" class="node">
<title>Node2</title>
<g id="a_Node000002"><a xlink:href="a01943.html#ab2fa3d6e6c761009b464cc0fbedc6a16" target="_top" xlink:title=" ">
<polygon fill="white" stroke="#666666" points="607,-36.5 484.5,-36.5 484.5,-18 607,-18 607,-36.5"/>
<text text-anchor="middle" x="545.75" y="-23" font-family="Helvetica,sans-Serif" font-size="10.00">arax_vaccel_queue_size</text>
</a>
</g>
</g>
<!-- Node1&#45;&gt;Node2 -->
<g id="edge1_Node000001_Node000002" class="edge">
<title>Node1&#45;&gt;Node2</title>
<g id="a_edge1_Node000001_Node000002"><a xlink:title=" ">
<path fill="none" stroke="#63b8ff" d="M631.19,-27.25C623.27,-27.25 615.25,-27.25 607.46,-27.25"/>
<polygon fill="#63b8ff" stroke="#63b8ff" points="631.17,-30.75 641.17,-27.25 631.17,-23.75 631.17,-30.75"/>
</a>
</g>
</g>
<!-- Node3 -->
<g id="Node000003" class="node">
<title>Node3</title>
<g id="a_Node000003"><a xlink:href="a01916.html#af0b933c02a24d69c1efa40179f60288f" target="_top" xlink:title=" ">
<polygon fill="white" stroke="#666666" points="448.5,-55.5 330.5,-55.5 330.5,-37 448.5,-37 448.5,-55.5"/>
<text text-anchor="middle" x="389.5" y="-42" font-family="Helvetica,sans-Serif" font-size="10.00">arax_accel_add_vaccel</text>
</a>
</g>
</g>
<!-- Node2&#45;&gt;Node3 -->
<g id="edge2_Node000002_Node000003" class="edge">
<title>Node2&#45;&gt;Node3</title>
<g id="a_edge2_Node000002_Node000003"><a xlink:title=" ">
<path fill="none" stroke="#63b8ff" d="M472.91,-36.1C464.84,-37.09 456.7,-38.1 448.83,-39.07"/>
<polygon fill="#63b8ff" stroke="#63b8ff" points="473.23,-39.59 482.73,-34.89 472.37,-32.64 473.23,-39.59"/>
</a>
</g>
</g>
<!-- Node9 -->
<g id="Node000009" class="node">
<title>Node9</title>
<g id="a_Node000009"><a xlink:href="a01916.html#aa3f384ca4812e46dedce753be42654df" target="_top" xlink:title=" ">
<polygon fill="white" stroke="#666666" points="447,-18.5 332,-18.5 332,0 447,0 447,-18.5"/>
<text text-anchor="middle" x="389.5" y="-5" font-family="Helvetica,sans-Serif" font-size="10.00">arax_accel_del_vaccel</text>
</a>
</g>
</g>
<!-- Node2&#45;&gt;Node9 -->
<g id="edge8_Node000002_Node000009" class="edge">
<title>Node2&#45;&gt;Node9</title>
<g id="a_edge8_Node000002_Node000009"><a xlink:title=" ">
<path fill="none" stroke="#63b8ff" d="M473,-18.88C464.38,-17.87 455.68,-16.86 447.32,-15.88"/>
<polygon fill="#63b8ff" stroke="#63b8ff" points="472.39,-22.33 482.73,-20.01 473.2,-15.38 472.39,-22.33"/>
</a>
</g>
</g>
<!-- Node4 -->
<g id="Node000004" class="node">
<title>Node4</title>
<g id="a_Node000004"><a xlink:href="a02187.html#ga30b30e50de286842c7942a7e3e163578" target="_top" xlink:title=" ">
<polygon fill="white" stroke="#666666" points="290,-92.5 166.75,-92.5 166.75,-74 290,-74 290,-92.5"/>
<text text-anchor="middle" x="228.38" y="-79" font-family="Helvetica,sans-Serif" font-size="10.00">arax_accel_set_physical</text>
</a>
</g>
</g>
<!-- Node3&#45;&gt;Node4 -->
<g id="edge3_Node000003_Node000004" class="edge">
<title>Node3&#45;&gt;Node4</title>
<g id="a_edge3_Node000003_Node000004"><a xlink:title=" ">
<path fill="none" stroke="#63b8ff" d="M335.69,-58.53C314.71,-63.41 290.93,-68.94 271.18,-73.53"/>
<polygon fill="#63b8ff" stroke="#63b8ff" points="336.27,-61.99 345.22,-56.31 334.68,-55.17 336.27,-61.99"/>
</a>
</g>
</g>
<!-- Node5 -->
<g id="Node000005" class="node">
<title>Node5</title>
<g id="a_Node000005"><a xlink:href="a01943.html#a83ddb422946cf774c687c1ab63dcda15" target="_top" xlink:title=" ">
<polygon fill="white" stroke="#666666" points="271.62,-55.5 185.12,-55.5 185.12,-37 271.62,-37 271.62,-55.5"/>
<text text-anchor="middle" x="228.38" y="-42" font-family="Helvetica,sans-Serif" font-size="10.00">arax_vaccel_init</text>
</a>
</g>
</g>
<!-- Node3&#45;&gt;Node5 -->
<g id="edge4_Node000003_Node000005" class="edge">
<title>Node3&#45;&gt;Node5</title>
<g id="a_edge4_Node000003_Node000005"><a xlink:title=" ">
<path fill="none" stroke="#63b8ff" d="M318.65,-46.25C302.68,-46.25 286.18,-46.25 271.77,-46.25"/>
<polygon fill="#63b8ff" stroke="#63b8ff" points="318.64,-49.75 328.64,-46.25 318.64,-42.75 318.64,-49.75"/>
</a>
</g>
</g>
<!-- Node6 -->
<g id="Node000006" class="node">
<title>Node6</title>
<g id="a_Node000006"><a xlink:href="a02187.html#gaf8a10ab4e51e59c464ab3ab473e4a0f7" target="_top" xlink:title=" ">
<polygon fill="white" stroke="#666666" points="126.25,-92.5 0,-92.5 0,-74 126.25,-74 126.25,-92.5"/>
<text text-anchor="middle" x="63.12" y="-79" font-family="Helvetica,sans-Serif" font-size="10.00">arax_accel_acquire_phys</text>
</a>
</g>
</g>
<!-- Node5&#45;&gt;Node6 -->
<g id="edge5_Node000005_Node000006" class="edge">
<title>Node5&#45;&gt;Node6</title>
<g id="a_edge5_Node000005_Node000006"><a xlink:title=" ">
<path fill="none" stroke="#63b8ff" d="M173.87,-58.38C152.16,-63.3 127.43,-68.9 106.95,-73.54"/>
<polygon fill="#63b8ff" stroke="#63b8ff" points="174.45,-61.83 183.43,-56.21 172.91,-55.01 174.45,-61.83"/>
</a>
</g>
</g>
<!-- Node7 -->
<g id="Node000007" class="node">
<title>Node7</title>
<g id="a_Node000007"><a xlink:href="a02187.html#ga008252bb9afc2990fa2c5f4b980c9f27" target="_top" xlink:title=" ">
<polygon fill="white" stroke="#666666" points="125.5,-55.5 0.75,-55.5 0.75,-37 125.5,-37 125.5,-55.5"/>
<text text-anchor="middle" x="63.12" y="-42" font-family="Helvetica,sans-Serif" font-size="10.00">arax_accel_acquire_type</text>
</a>
</g>
</g>
<!-- Node5&#45;&gt;Node7 -->
<g id="edge6_Node000005_Node000007" class="edge">
<title>Node5&#45;&gt;Node7</title>
<g id="a_edge6_Node000005_Node000007"><a xlink:title=" ">
<path fill="none" stroke="#63b8ff" d="M173.54,-46.25C158.24,-46.25 141.47,-46.25 125.75,-46.25"/>
<polygon fill="#63b8ff" stroke="#63b8ff" points="173.4,-49.75 183.4,-46.25 173.4,-42.75 173.4,-49.75"/>
</a>
</g>
</g>
<!-- Node8 -->
<g id="Node000008" class="node">
<title>Node8</title>
<g id="a_Node000008"><a xlink:href="a01916.html#a0706a66a62ca8710342ac1c097b703ed" target="_top" xlink:title=" ">
<polygon fill="white" stroke="#666666" points="104.12,-18.5 22.12,-18.5 22.12,0 104.12,0 104.12,-18.5"/>
<text text-anchor="middle" x="63.12" y="-5" font-family="Helvetica,sans-Serif" font-size="10.00">arax_accel_init</text>
</a>
</g>
</g>
<!-- Node5&#45;&gt;Node8 -->
<g id="edge7_Node000005_Node000008" class="edge">
<title>Node5&#45;&gt;Node8</title>
<g id="a_edge7_Node000005_Node000008"><a xlink:title=" ">
<path fill="none" stroke="#63b8ff" d="M173.78,-34.1C151.19,-28.98 125.34,-23.12 104.41,-18.38"/>
<polygon fill="#63b8ff" stroke="#63b8ff" points="172.91,-37.49 183.43,-36.29 174.45,-30.67 172.91,-37.49"/>
</a>
</g>
</g>
<!-- Node10 -->
<g id="Node000010" class="node">
<title>Node10</title>
<g id="a_Node000010"><a xlink:href="a01943.html#a5920cc4cd90589f3c5ac8686a72bcfc0" target="_top" xlink:title=" ">
<polygon fill="white" stroke="#666666" points="294.5,-18.5 162.25,-18.5 162.25,0 294.5,0 294.5,-18.5"/>
<text text-anchor="middle" x="228.38" y="-5" font-family="Helvetica,sans-Serif" font-size="10.00">ARAX_OBJ_DTOR_DECL</text>
</a>
</g>
</g>
<!-- Node9&#45;&gt;Node10 -->
<g id="edge9_Node000009_Node000010" class="edge">
<title>Node9&#45;&gt;Node10</title>
<g id="a_edge9_Node000009_Node000010"><a xlink:title=" ">
<path fill="none" stroke="#63b8ff" d="M320.2,-9.25C311.82,-9.25 303.26,-9.25 294.91,-9.25"/>
<polygon fill="#63b8ff" stroke="#63b8ff" points="319.99,-12.75 329.99,-9.25 319.99,-5.75 319.99,-12.75"/>
</a>
</g>
</g>
</g>
</svg>
