<?xml version="1.0" encoding="UTF-8" standalone="no"?>
<!DOCTYPE svg PUBLIC "-//W3C//DTD SVG 1.1//EN"
 "http://www.w3.org/Graphics/SVG/1.1/DTD/svg11.dtd">
<!-- Generated by graphviz version 8.0.5 (0)
 -->
<!-- Title: arax_data_get Pages: 1 -->
<svg width="1458pt" height="475pt"
 viewBox="0.00 0.00 1458.00 474.50" xmlns="http://www.w3.org/2000/svg" xmlns:xlink="http://www.w3.org/1999/xlink">
<g id="graph0" class="graph" transform="scale(1 1) rotate(0) translate(4 470.5)">
<title>arax_data_get</title>
<!-- Node1 -->
<g id="Node000001" class="node">
<title>Node1</title>
<g id="a_Node000001"><a xlink:title=" ">
<polygon fill="#999999" stroke="#666666" points="78.25,-168.5 0,-168.5 0,-150 78.25,-150 78.25,-168.5"/>
<text text-anchor="middle" x="39.12" y="-155" font-family="Helvetica,sans-Serif" font-size="10.00">arax_data_get</text>
</a>
</g>
</g>
<!-- Node2 -->
<g id="Node000002" class="node">
<title>Node2</title>
<g id="a_Node000002"><a xlink:href="a01931.html#a369e660e3e344bc697d98174059ead3c" target="_top" xlink:title=" ">
<polygon fill="white" stroke="#666666" points="199.25,-335.5 117.25,-335.5 117.25,-317 199.25,-317 199.25,-335.5"/>
<text text-anchor="middle" x="158.25" y="-322" font-family="Helvetica,sans-Serif" font-size="10.00">arax_data_size</text>
</a>
</g>
</g>
<!-- Node1&#45;&gt;Node2 -->
<g id="edge1_Node000001_Node000002" class="edge">
<title>Node1&#45;&gt;Node2</title>
<g id="a_edge1_Node000001_Node000002"><a xlink:title=" ">
<path fill="none" stroke="#63b8ff" d="M42.5,-168.93C49.3,-194.78 71.18,-266.21 114.25,-307.25 115.59,-308.53 117.03,-309.73 118.54,-310.85"/>
<polygon fill="#63b8ff" stroke="#63b8ff" points="116.44,-314.28 126.79,-316.53 120.1,-308.32 116.44,-314.28"/>
</a>
</g>
</g>
<!-- Node3 -->
<g id="Node000003" class="node">
<title>Node3</title>
<g id="a_Node000003"><a xlink:href="a02176.html#ga739047efb2b454e6c1ac54138ef2985d" target="_top" xlink:title=" ">
<polygon fill="white" stroke="#666666" points="197.38,-298.5 119.12,-298.5 119.12,-280 197.38,-280 197.38,-298.5"/>
<text text-anchor="middle" x="158.25" y="-285" font-family="Helvetica,sans-Serif" font-size="10.00">arax_proc_get</text>
</a>
</g>
</g>
<!-- Node1&#45;&gt;Node3 -->
<g id="edge2_Node000001_Node000003" class="edge">
<title>Node1&#45;&gt;Node3</title>
<g id="a_edge2_Node000001_Node000003"><a xlink:title=" ">
<path fill="none" stroke="#63b8ff" d="M48.55,-168.6C67.95,-190.14 116.07,-243.54 141.27,-271.52"/>
<polygon fill="#63b8ff" stroke="#63b8ff" points="138.29,-273.55 147.59,-278.63 143.49,-268.86 138.29,-273.55"/>
</a>
</g>
</g>
<!-- Node8 -->
<g id="Node000008" class="node">
<title>Node8</title>
<g id="a_Node000008"><a xlink:href="a02176.html#ga70242aa6d9591e5fa3dbb36f1e27a896" target="_top" xlink:title=" ">
<polygon fill="white" stroke="#666666" points="331.5,-93.5 253.25,-93.5 253.25,-75 331.5,-75 331.5,-93.5"/>
<text text-anchor="middle" x="292.38" y="-80" font-family="Helvetica,sans-Serif" font-size="10.00">arax_proc_put</text>
</a>
</g>
</g>
<!-- Node1&#45;&gt;Node8 -->
<g id="edge7_Node000001_Node000008" class="edge">
<title>Node1&#45;&gt;Node8</title>
<g id="a_edge7_Node000001_Node000008"><a xlink:title=" ">
<path fill="none" stroke="#63b8ff" d="M58.58,-149.51C73.33,-142.04 94.69,-131.92 114.25,-125.25 156.62,-110.8 206.41,-99.77 242.39,-92.82"/>
<polygon fill="#63b8ff" stroke="#63b8ff" points="242.92,-96.09 252.09,-90.79 241.61,-89.21 242.92,-96.09"/>
</a>
</g>
</g>
<!-- Node19 -->
<g id="Node000019" class="node">
<title>Node19</title>
<g id="a_Node000019"><a xlink:href="a02177.html#ga55195957c1cde1508257782716aa6db3" target="_top" xlink:title=" ">
<polygon fill="white" stroke="#666666" points="198.88,-168.5 117.62,-168.5 117.62,-150 198.88,-150 198.88,-168.5"/>
<text text-anchor="middle" x="158.25" y="-155" font-family="Helvetica,sans-Serif" font-size="10.00">arax_task_free</text>
</a>
</g>
</g>
<!-- Node1&#45;&gt;Node19 -->
<g id="edge18_Node000001_Node000019" class="edge">
<title>Node1&#45;&gt;Node19</title>
<g id="a_edge18_Node000001_Node000019"><a xlink:title=" ">
<path fill="none" stroke="#63b8ff" d="M78.48,-159.25C87.4,-159.25 97.03,-159.25 106.39,-159.25"/>
<polygon fill="#63b8ff" stroke="#63b8ff" points="106.2,-162.75 116.2,-159.25 106.2,-155.75 106.2,-162.75"/>
</a>
</g>
</g>
<!-- Node20 -->
<g id="Node000020" class="node">
<title>Node20</title>
<g id="a_Node000020"><a xlink:href="a01922.html#aa3cb73b347940187fb3399f51b1a55b7" target="_top" xlink:title=" ">
<polygon fill="white" stroke="#666666" points="346.12,-130.5 238.62,-130.5 238.62,-112 346.12,-112 346.12,-130.5"/>
<text text-anchor="middle" x="292.38" y="-117" font-family="Helvetica,sans-Serif" font-size="10.00">arax_task_host_data</text>
</a>
</g>
</g>
<!-- Node1&#45;&gt;Node20 -->
<g id="edge20_Node000001_Node000020" class="edge">
<title>Node1&#45;&gt;Node20</title>
<g id="a_edge20_Node000001_Node000020"><a xlink:title=" ">
<path fill="none" stroke="#63b8ff" d="M76.13,-149.54C88.18,-146.55 101.73,-143.47 114.25,-141.25 151.64,-134.63 193.89,-129.76 227.74,-126.48"/>
<polygon fill="#63b8ff" stroke="#63b8ff" points="227.79,-129.9 237.42,-125.47 227.14,-122.93 227.79,-129.9"/>
</a>
</g>
</g>
<!-- Node21 -->
<g id="Node000021" class="node">
<title>Node21</title>
<g id="a_Node000021"><a xlink:href="a02177.html#gac9f0f3fbb14da879d3ff09bd367bbb24" target="_top" xlink:title=" ">
<polygon fill="white" stroke="#666666" points="202.25,-205.5 114.25,-205.5 114.25,-187 202.25,-187 202.25,-205.5"/>
<text text-anchor="middle" x="158.25" y="-192" font-family="Helvetica,sans-Serif" font-size="10.00">arax_task_issue</text>
</a>
</g>
</g>
<!-- Node1&#45;&gt;Node21 -->
<g id="edge21_Node000001_Node000021" class="edge">
<title>Node1&#45;&gt;Node21</title>
<g id="a_edge21_Node000001_Node000021"><a xlink:title=" ">
<path fill="none" stroke="#63b8ff" d="M70.9,-168.97C84.75,-173.35 101.31,-178.58 116.2,-183.28"/>
<polygon fill="#63b8ff" stroke="#63b8ff" points="115.09,-186.92 125.68,-186.59 117.2,-180.24 115.09,-186.92"/>
</a>
</g>
</g>
<!-- Node42 -->
<g id="Node000042" class="node">
<title>Node42</title>
<g id="a_Node000042"><a xlink:href="a02177.html#gacb098c0a8c3908f3fdd32e7ea7d780bb" target="_top" xlink:title=" ">
<polygon fill="white" stroke="#666666" points="199.25,-56.5 117.25,-56.5 117.25,-38 199.25,-38 199.25,-56.5"/>
<text text-anchor="middle" x="158.25" y="-43" font-family="Helvetica,sans-Serif" font-size="10.00">arax_task_wait</text>
</a>
</g>
</g>
<!-- Node1&#45;&gt;Node42 -->
<g id="edge57_Node000001_Node000042" class="edge">
<title>Node1&#45;&gt;Node42</title>
<g id="a_edge57_Node000001_Node000042"><a xlink:title=" ">
<path fill="none" stroke="#63b8ff" d="M46.28,-149.64C57.87,-132.11 84.48,-94.51 114.25,-70.25 117.79,-67.36 121.76,-64.67 125.8,-62.22"/>
<polygon fill="#63b8ff" stroke="#63b8ff" points="127.21,-64.88 134.24,-56.96 123.8,-58.77 127.21,-64.88"/>
</a>
</g>
</g>
<!-- Node4 -->
<g id="Node000004" class="node">
<title>Node4</title>
<g id="a_Node000004"><a xlink:href="a01910.html#a9255b8011e6d7c9b28c7df40065efb28" target="_top" xlink:title=" ">
<polygon fill="white" stroke="#666666" points="810,-317.5 708.5,-317.5 708.5,-299 810,-299 810,-317.5"/>
<text text-anchor="middle" x="759.25" y="-304" font-family="Helvetica,sans-Serif" font-size="10.00">arax_object_ref_inc</text>
</a>
</g>
</g>
<!-- Node3&#45;&gt;Node4 -->
<g id="edge3_Node000003_Node000004" class="edge">
<title>Node3&#45;&gt;Node4</title>
<g id="a_edge3_Node000003_Node000004"><a xlink:title=" ">
<path fill="none" stroke="#63b8ff" d="M197.87,-291.25C266.26,-294.71 413.16,-301.78 537.25,-305.25 591.35,-306.76 652.92,-307.52 697.31,-307.89"/>
<polygon fill="#63b8ff" stroke="#63b8ff" points="697.18,-311.4 707.21,-307.98 697.24,-304.4 697.18,-311.4"/>
</a>
</g>
</g>
<!-- Node5 -->
<g id="Node000005" class="node">
<title>Node5</title>
<g id="a_Node000005"><a xlink:href="a01913.html#a4c22ae41507232dc3efc725428cbfc7b" target="_top" xlink:title=" ">
<polygon fill="white" stroke="#666666" points="344.25,-429.5 240.5,-429.5 240.5,-411 344.25,-411 344.25,-429.5"/>
<text text-anchor="middle" x="292.38" y="-416" font-family="Helvetica,sans-Serif" font-size="10.00">arax_pipe_find_proc</text>
</a>
</g>
</g>
<!-- Node3&#45;&gt;Node5 -->
<g id="edge4_Node000003_Node000005" class="edge">
<title>Node3&#45;&gt;Node5</title>
<g id="a_edge4_Node000003_Node000005"><a xlink:title=" ">
<path fill="none" stroke="#63b8ff" d="M189.4,-298.95C194.11,-301.44 198.62,-304.5 202.25,-308.25 231.94,-338.9 208.45,-366.72 238.25,-397.25 241.28,-400.36 244.81,-403.07 248.57,-405.43"/>
<polygon fill="#63b8ff" stroke="#63b8ff" points="246.79,-408.99 257.26,-410.62 250.09,-402.82 246.79,-408.99"/>
</a>
</g>
</g>
<!-- Node6 -->
<g id="Node000006" class="node">
<title>Node6</title>
<g id="a_Node000006"><a xlink:href="a01910.html#aa750d1c54fe430c1294b9c8a9d3e1466" target="_top" xlink:title=" ">
<polygon fill="white" stroke="#666666" points="496,-429.5 387.75,-429.5 387.75,-411 496,-411 496,-429.5"/>
<text text-anchor="middle" x="441.88" y="-416" font-family="Helvetica,sans-Serif" font-size="10.00">arax_object_list_lock</text>
</a>
</g>
</g>
<!-- Node5&#45;&gt;Node6 -->
<g id="edge5_Node000005_Node000006" class="edge">
<title>Node5&#45;&gt;Node6</title>
<g id="a_edge5_Node000005_Node000006"><a xlink:title=" ">
<path fill="none" stroke="#63b8ff" d="M344.55,-420.25C354.8,-420.25 365.7,-420.25 376.33,-420.25"/>
<polygon fill="#63b8ff" stroke="#63b8ff" points="376.28,-423.75 386.28,-420.25 376.28,-416.75 376.28,-423.75"/>
</a>
</g>
</g>
<!-- Node7 -->
<g id="Node000007" class="node">
<title>Node7</title>
<g id="a_Node000007"><a xlink:href="a01910.html#abb03d3cde2d1354544cd082482c3f185" target="_top" xlink:title=" ">
<polygon fill="white" stroke="#666666" points="501.25,-466.5 382.5,-466.5 382.5,-448 501.25,-448 501.25,-466.5"/>
<text text-anchor="middle" x="441.88" y="-453" font-family="Helvetica,sans-Serif" font-size="10.00">arax_object_list_unlock</text>
</a>
</g>
</g>
<!-- Node5&#45;&gt;Node7 -->
<g id="edge6_Node000005_Node000007" class="edge">
<title>Node5&#45;&gt;Node7</title>
<g id="a_edge6_Node000005_Node000007"><a xlink:title=" ">
<path fill="none" stroke="#63b8ff" d="M332.13,-429.97C350.35,-434.54 372.28,-440.04 391.66,-444.9"/>
<polygon fill="#63b8ff" stroke="#63b8ff" points="390.57,-448.49 401.12,-447.53 392.28,-441.7 390.57,-448.49"/>
</a>
</g>
</g>
<!-- Node9 -->
<g id="Node000009" class="node">
<title>Node9</title>
<g id="a_Node000009"><a xlink:href="a01910.html#afe7e4a63c40fbcaae742b8de8693483f" target="_top" xlink:title=" ">
<polygon fill="white" stroke="#666666" points="811.5,-203.5 707,-203.5 707,-185 811.5,-185 811.5,-203.5"/>
<text text-anchor="middle" x="759.25" y="-190" font-family="Helvetica,sans-Serif" font-size="10.00">arax_object_ref_dec</text>
</a>
</g>
</g>
<!-- Node8&#45;&gt;Node9 -->
<g id="edge8_Node000008_Node000009" class="edge">
<title>Node8&#45;&gt;Node9</title>
<g id="a_edge8_Node000008_Node000009"><a xlink:title=" ">
<path fill="none" stroke="#63b8ff" d="M331.78,-83.76C401.19,-84.3 550.71,-92.05 662.75,-144.25 681.89,-153.17 680.32,-164.94 698.75,-175.25 702.37,-177.28 706.24,-179.12 710.2,-180.79"/>
<polygon fill="#63b8ff" stroke="#63b8ff" points="708.56,-184.3 719.15,-184.6 711.07,-177.76 708.56,-184.3"/>
</a>
</g>
</g>
<!-- Node10 -->
<g id="Node000010" class="node">
<title>Node10</title>
<g id="a_Node000010"><a xlink:href="a01913.html#a5144f906658718ef853a8d18dda1e724" target="_top" xlink:title=" ">
<polygon fill="white" stroke="#666666" points="962.12,-221.5 862.88,-221.5 862.88,-203 962.12,-203 962.12,-221.5"/>
<text text-anchor="middle" x="912.5" y="-208" font-family="Helvetica,sans-Serif" font-size="10.00">arax_pipe_size_inc</text>
</a>
</g>
</g>
<!-- Node9&#45;&gt;Node10 -->
<g id="edge9_Node000009_Node000010" class="edge">
<title>Node9&#45;&gt;Node10</title>
<g id="a_edge9_Node000009_Node000010"><a xlink:title=" ">
<path fill="none" stroke="#63b8ff" d="M811.88,-200.39C824.65,-201.91 838.44,-203.55 851.57,-205.12"/>
<polygon fill="#63b8ff" stroke="#63b8ff" points="851.06,-208.7 861.4,-206.41 851.88,-201.75 851.06,-208.7"/>
</a>
</g>
</g>
<!-- Node18 -->
<g id="Node000018" class="node">
<title>Node18</title>
<g id="a_Node000018"><a xlink:href="a01946.html#a0c85e5516222ab7e7fc354c614760ec5" target="_top" xlink:title=" ">
<polygon fill="white" stroke="#666666" points="947.5,-184.5 877.5,-184.5 877.5,-166 947.5,-166 947.5,-184.5"/>
<text text-anchor="middle" x="912.5" y="-171" font-family="Helvetica,sans-Serif" font-size="10.00">utils_list_del</text>
</a>
</g>
</g>
<!-- Node9&#45;&gt;Node18 -->
<g id="edge17_Node000009_Node000018" class="edge">
<title>Node9&#45;&gt;Node18</title>
<g id="a_edge17_Node000009_Node000018"><a xlink:title=" ">
<path fill="none" stroke="#63b8ff" d="M811.88,-187.76C829.57,-185.54 849.21,-183.07 866.35,-180.92"/>
<polygon fill="#63b8ff" stroke="#63b8ff" points="866.72,-184.28 876.21,-179.56 865.85,-177.33 866.72,-184.28"/>
</a>
</g>
</g>
<!-- Node11 -->
<g id="Node000011" class="node">
<title>Node11</title>
<g id="a_Node000011"><a xlink:href="a01925.html#a22aaf13eb56eb1832e725ef73236116f" target="_top" xlink:title=" ">
<polygon fill="white" stroke="#666666" points="1118,-221.5 1006.75,-221.5 1006.75,-203 1118,-203 1118,-221.5"/>
<text text-anchor="middle" x="1062.38" y="-208" font-family="Helvetica,sans-Serif" font-size="10.00">arax_throttle_size_inc</text>
</a>
</g>
</g>
<!-- Node10&#45;&gt;Node11 -->
<g id="edge10_Node000010_Node000011" class="edge">
<title>Node10&#45;&gt;Node11</title>
<g id="a_edge10_Node000010_Node000011"><a xlink:title=" ">
<path fill="none" stroke="#63b8ff" d="M962.33,-212.25C973.04,-212.25 984.55,-212.25 995.79,-212.25"/>
<polygon fill="#63b8ff" stroke="#63b8ff" points="995.46,-215.75 1005.46,-212.25 995.46,-208.75 995.46,-215.75"/>
</a>
</g>
</g>
<!-- Node12 -->
<g id="Node000012" class="node">
<title>Node12</title>
<g id="a_Node000012"><a xlink:href="a02352.html#aed6af4d83e934e3e654ead541b15f2d9" target="_top" xlink:title=" ">
<polygon fill="white" stroke="#666666" points="1269.75,-258.5 1160.75,-258.5 1160.75,-240 1269.75,-240 1269.75,-258.5"/>
<text text-anchor="middle" x="1215.25" y="-245" font-family="Helvetica,sans-Serif" font-size="10.00">async_condition_lock</text>
</a>
</g>
</g>
<!-- Node11&#45;&gt;Node12 -->
<g id="edge11_Node000011_Node000012" class="edge">
<title>Node11&#45;&gt;Node12</title>
<g id="a_edge11_Node000011_Node000012"><a xlink:title=" ">
<path fill="none" stroke="#63b8ff" d="M1103.02,-221.97C1121.74,-226.56 1144.29,-232.09 1164.18,-236.97"/>
<polygon fill="#63b8ff" stroke="#63b8ff" points="1163.07,-240.55 1173.61,-239.53 1164.73,-233.75 1163.07,-240.55"/>
</a>
</g>
</g>
<!-- Node14 -->
<g id="Node000014" class="node">
<title>Node14</title>
<g id="a_Node000014"><a xlink:href="a02352.html#a45a896fb606c2aa66a5a4c2af59ce494" target="_top" xlink:title=" ">
<polygon fill="white" stroke="#666666" points="1272.75,-295.5 1157.75,-295.5 1157.75,-277 1272.75,-277 1272.75,-295.5"/>
<text text-anchor="middle" x="1215.25" y="-282" font-family="Helvetica,sans-Serif" font-size="10.00">async_condition_notify</text>
</a>
</g>
</g>
<!-- Node11&#45;&gt;Node14 -->
<g id="edge13_Node000011_Node000014" class="edge">
<title>Node11&#45;&gt;Node14</title>
<g id="a_edge13_Node000011_Node000014"><a xlink:title=" ">
<path fill="none" stroke="#63b8ff" d="M1100.11,-221.97C1106.81,-224.49 1113.56,-227.56 1119.5,-231.25 1138.72,-243.19 1136.2,-255.44 1155.5,-267.25 1158.66,-269.18 1162.04,-270.94 1165.51,-272.53"/>
<polygon fill="#63b8ff" stroke="#63b8ff" points="1163.9,-276.07 1174.48,-276.6 1166.55,-269.58 1163.9,-276.07"/>
</a>
</g>
</g>
<!-- Node16 -->
<g id="Node000016" class="node">
<title>Node16</title>
<g id="a_Node000016"><a xlink:href="a02352.html#a3bbcb7c4c024e99d5c4ba52b61dfbbf7" target="_top" xlink:title=" ">
<polygon fill="white" stroke="#666666" points="1275,-184.5 1155.5,-184.5 1155.5,-166 1275,-166 1275,-184.5"/>
<text text-anchor="middle" x="1215.25" y="-171" font-family="Helvetica,sans-Serif" font-size="10.00">async_condition_unlock</text>
</a>
</g>
</g>
<!-- Node11&#45;&gt;Node16 -->
<g id="edge15_Node000011_Node000016" class="edge">
<title>Node11&#45;&gt;Node16</title>
<g id="a_edge15_Node000011_Node000016"><a xlink:title=" ">
<path fill="none" stroke="#63b8ff" d="M1103.02,-202.53C1121.74,-197.94 1144.29,-192.41 1164.18,-187.53"/>
<polygon fill="#63b8ff" stroke="#63b8ff" points="1164.73,-190.75 1173.61,-184.97 1163.07,-183.95 1164.73,-190.75"/>
</a>
</g>
</g>
<!-- Node13 -->
<g id="Node000013" class="node">
<title>Node13</title>
<g id="a_Node000013"><a xlink:href="a02346.html#aebf9e72bb6cbd8b9e33489d46c25075d" target="_top" xlink:title=" ">
<polygon fill="white" stroke="#666666" points="1438.75,-258.5 1322.25,-258.5 1322.25,-240 1438.75,-240 1438.75,-258.5"/>
<text text-anchor="middle" x="1380.5" y="-245" font-family="Helvetica,sans-Serif" font-size="10.00">async_completion_wait</text>
</a>
</g>
</g>
<!-- Node12&#45;&gt;Node13 -->
<g id="edge12_Node000012_Node000013" class="edge">
<title>Node12&#45;&gt;Node13</title>
<g id="a_edge12_Node000012_Node000013"><a xlink:title=" ">
<path fill="none" stroke="#63b8ff" d="M1270.16,-249.25C1283.27,-249.25 1297.48,-249.25 1311.16,-249.25"/>
<polygon fill="#63b8ff" stroke="#63b8ff" points="1311,-252.75 1321,-249.25 1311,-245.75 1311,-252.75"/>
</a>
</g>
</g>
<!-- Node15 -->
<g id="Node000015" class="node">
<title>Node15</title>
<g id="a_Node000015"><a xlink:href="a02346.html#a0fa370eee5160963e617d1daf1c07363" target="_top" xlink:title=" ">
<polygon fill="white" stroke="#666666" points="1436.88,-295.5 1324.12,-295.5 1324.12,-277 1436.88,-277 1436.88,-295.5"/>
<text text-anchor="middle" x="1380.5" y="-282" font-family="Helvetica,sans-Serif" font-size="10.00">async_semaphore_inc</text>
</a>
</g>
</g>
<!-- Node14&#45;&gt;Node15 -->
<g id="edge14_Node000014_Node000015" class="edge">
<title>Node14&#45;&gt;Node15</title>
<g id="a_edge14_Node000014_Node000015"><a xlink:title=" ">
<path fill="none" stroke="#63b8ff" d="M1272.89,-286.25C1285.77,-286.25 1299.56,-286.25 1312.82,-286.25"/>
<polygon fill="#63b8ff" stroke="#63b8ff" points="1312.79,-289.75 1322.79,-286.25 1312.79,-282.75 1312.79,-289.75"/>
</a>
</g>
</g>
<!-- Node17 -->
<g id="Node000017" class="node">
<title>Node17</title>
<g id="a_Node000017"><a xlink:href="a02346.html#ad1d30ecbf6bff6457b680aa940281072" target="_top" xlink:title=" ">
<polygon fill="white" stroke="#666666" points="1450,-184.5 1311,-184.5 1311,-166 1450,-166 1450,-184.5"/>
<text text-anchor="middle" x="1380.5" y="-171" font-family="Helvetica,sans-Serif" font-size="10.00">async_completion_complete</text>
</a>
</g>
</g>
<!-- Node16&#45;&gt;Node17 -->
<g id="edge16_Node000016_Node000017" class="edge">
<title>Node16&#45;&gt;Node17</title>
<g id="a_edge16_Node000016_Node000017"><a xlink:title=" ">
<path fill="none" stroke="#63b8ff" d="M1275.19,-175.25C1283.19,-175.25 1291.51,-175.25 1299.8,-175.25"/>
<polygon fill="#63b8ff" stroke="#63b8ff" points="1299.65,-178.75 1309.65,-175.25 1299.65,-171.75 1299.65,-178.75"/>
</a>
</g>
</g>
<!-- Node19&#45;&gt;Node9 -->
<g id="edge19_Node000019_Node000009" class="edge">
<title>Node19&#45;&gt;Node9</title>
<g id="a_edge19_Node000019_Node000009"><a xlink:title=" ">
<path fill="none" stroke="#63b8ff" d="M199.27,-161.39C263.13,-164.82 392.02,-171.82 501.25,-178.25 567.7,-182.16 643.8,-186.94 695.84,-190.25"/>
<polygon fill="#63b8ff" stroke="#63b8ff" points="695.37,-193.79 705.57,-190.93 695.81,-186.8 695.37,-193.79"/>
</a>
</g>
</g>
<!-- Node21&#45;&gt;Node20 -->
<g id="edge47_Node000021_Node000020" class="edge">
<title>Node21&#45;&gt;Node20</title>
<g id="a_edge47_Node000021_Node000020"><a xlink:title=" ">
<path fill="none" stroke="#63b8ff" d="M182.75,-186.6C189.17,-183.77 196.05,-180.54 202.25,-177.25 225.53,-164.88 250.88,-148.66 268.57,-136.87"/>
<polygon fill="#63b8ff" stroke="#63b8ff" points="270.21,-139.31 276.55,-130.82 266.3,-133.5 270.21,-139.31"/>
</a>
</g>
</g>
<!-- Node22 -->
<g id="Node000022" class="node">
<title>Node22</title>
<g id="a_Node000022"><a xlink:href="a01922.html#a27bee94f7a23281c8b2b72ec433f6059" target="_top" xlink:title=" ">
<polygon fill="white" stroke="#666666" points="334.88,-205.5 249.88,-205.5 249.88,-187 334.88,-187 334.88,-205.5"/>
<text text-anchor="middle" x="292.38" y="-192" font-family="Helvetica,sans-Serif" font-size="10.00">arax_task_alloc</text>
</a>
</g>
</g>
<!-- Node21&#45;&gt;Node22 -->
<g id="edge22_Node000021_Node000022" class="edge">
<title>Node21&#45;&gt;Node22</title>
<g id="a_edge22_Node000021_Node000022"><a xlink:title=" ">
<path fill="none" stroke="#63b8ff" d="M202.51,-196.25C214.15,-196.25 226.87,-196.25 238.95,-196.25"/>
<polygon fill="#63b8ff" stroke="#63b8ff" points="238.81,-199.75 248.81,-196.25 238.81,-192.75 238.81,-199.75"/>
</a>
</g>
</g>
<!-- Node37 -->
<g id="Node000037" class="node">
<title>Node37</title>
<g id="a_Node000037"><a xlink:href="a01922.html#ace08f924cb86d1310099621564536657" target="_top" xlink:title=" ">
<polygon fill="white" stroke="#666666" points="647,-392.5 553,-392.5 553,-374 647,-374 647,-392.5"/>
<text text-anchor="middle" x="600" y="-379" font-family="Helvetica,sans-Serif" font-size="10.00">arax_task_submit</text>
</a>
</g>
</g>
<!-- Node21&#45;&gt;Node37 -->
<g id="edge48_Node000021_Node000037" class="edge">
<title>Node21&#45;&gt;Node37</title>
<g id="a_edge48_Node000021_Node000037"><a xlink:title=" ">
<path fill="none" stroke="#63b8ff" d="M170.95,-205.85C185.85,-217.72 212.75,-237.99 238.25,-251.25 346.03,-307.29 483.07,-350.41 553.16,-370.62"/>
<polygon fill="#63b8ff" stroke="#63b8ff" points="551.84,-374.17 562.42,-373.55 553.76,-367.44 551.84,-374.17"/>
</a>
</g>
</g>
<!-- Node41 -->
<g id="Node000041" class="node">
<title>Node41</title>
<g id="a_Node000041"><a xlink:href="a01898.html#a226d4d420328a42fd671699ae60c4c3a" target="_top" xlink:title=" ">
<polygon fill="white" stroke="#666666" points="338.62,-242.5 246.12,-242.5 246.12,-224 338.62,-224 338.62,-242.5"/>
<text text-anchor="middle" x="292.38" y="-229" font-family="Helvetica,sans-Serif" font-size="10.00">check_semantics</text>
</a>
</g>
</g>
<!-- Node21&#45;&gt;Node41 -->
<g id="edge56_Node000021_Node000041" class="edge">
<title>Node21&#45;&gt;Node41</title>
<g id="a_edge56_Node000021_Node000041"><a xlink:title=" ">
<path fill="none" stroke="#63b8ff" d="M193.96,-205.97C210.05,-210.47 229.36,-215.88 246.53,-220.69"/>
<polygon fill="#63b8ff" stroke="#63b8ff" points="245.32,-224.27 255.89,-223.59 247.21,-217.53 245.32,-224.27"/>
</a>
</g>
</g>
<!-- Node23 -->
<g id="Node000023" class="node">
<title>Node23</title>
<g id="a_Node000023"><a xlink:href="a01931.html#a1dc669466d6f52d5be8af2d991512ac2" target="_top" xlink:title=" ">
<polygon fill="white" stroke="#666666" points="493.75,-279.5 390,-279.5 390,-261 493.75,-261 493.75,-279.5"/>
<text text-anchor="middle" x="441.88" y="-266" font-family="Helvetica,sans-Serif" font-size="10.00">arax_data_input_init</text>
</a>
</g>
</g>
<!-- Node22&#45;&gt;Node23 -->
<g id="edge23_Node000022_Node000023" class="edge">
<title>Node22&#45;&gt;Node23</title>
<g id="a_edge23_Node000022_Node000023"><a xlink:title=" ">
<path fill="none" stroke="#63b8ff" d="M327.58,-205.96C334.11,-208.5 340.71,-211.58 346.5,-215.25 365.62,-227.35 363.21,-239.42 382.5,-251.25 385.64,-253.17 388.99,-254.93 392.45,-256.52"/>
<polygon fill="#63b8ff" stroke="#63b8ff" points="390.78,-260.02 401.36,-260.58 393.43,-253.55 390.78,-260.02"/>
</a>
</g>
</g>
<!-- Node26 -->
<g id="Node000026" class="node">
<title>Node26</title>
<g id="a_Node000026"><a xlink:href="a01931.html#a18d07d808917e0b971d46332e9e64da4" target="_top" xlink:title=" ">
<polygon fill="white" stroke="#666666" points="496.75,-242.5 387,-242.5 387,-224 496.75,-224 496.75,-242.5"/>
<text text-anchor="middle" x="441.88" y="-229" font-family="Helvetica,sans-Serif" font-size="10.00">arax_data_output_init</text>
</a>
</g>
</g>
<!-- Node22&#45;&gt;Node26 -->
<g id="edge29_Node000022_Node000026" class="edge">
<title>Node22&#45;&gt;Node26</title>
<g id="a_edge29_Node000022_Node000026"><a xlink:title=" ">
<path fill="none" stroke="#63b8ff" d="M332.13,-205.97C350.35,-210.54 372.28,-216.04 391.66,-220.9"/>
<polygon fill="#63b8ff" stroke="#63b8ff" points="390.57,-224.49 401.12,-223.53 392.28,-217.7 390.57,-224.49"/>
</a>
</g>
</g>
<!-- Node27 -->
<g id="Node000027" class="node">
<title>Node27</title>
<g id="a_Node000027"><a xlink:href="a01910.html#a402bbd6fa197c2c48d527325e5e2cf5b" target="_top" xlink:title=" ">
<polygon fill="white" stroke="#666666" points="652.25,-92.5 547.75,-92.5 547.75,-74 652.25,-74 652.25,-92.5"/>
<text text-anchor="middle" x="600" y="-79" font-family="Helvetica,sans-Serif" font-size="10.00">arax_object_register</text>
</a>
</g>
</g>
<!-- Node22&#45;&gt;Node27 -->
<g id="edge32_Node000022_Node000027" class="edge">
<title>Node22&#45;&gt;Node27</title>
<g id="a_edge32_Node000022_Node000027"><a xlink:title=" ">
<path fill="none" stroke="#63b8ff" d="M319.7,-186.52C374.31,-166.33 500.03,-119.84 562.46,-96.76"/>
<polygon fill="#63b8ff" stroke="#63b8ff" points="563.47,-99.75 571.63,-93 561.04,-93.18 563.47,-99.75"/>
</a>
</g>
</g>
<!-- Node36 -->
<g id="Node000036" class="node">
<title>Node36</title>
<g id="a_Node000036"><a xlink:href="a02352.html#ac728117d73179c279de49e01ae905dda" target="_top" xlink:title=" ">
<polygon fill="white" stroke="#666666" points="497.88,-205.5 385.88,-205.5 385.88,-187 497.88,-187 497.88,-205.5"/>
<text text-anchor="middle" x="441.88" y="-192" font-family="Helvetica,sans-Serif" font-size="10.00">async_completion_init</text>
</a>
</g>
</g>
<!-- Node22&#45;&gt;Node36 -->
<g id="edge45_Node000022_Node000036" class="edge">
<title>Node22&#45;&gt;Node36</title>
<g id="a_edge45_Node000022_Node000036"><a xlink:title=" ">
<path fill="none" stroke="#63b8ff" d="M335.25,-196.25C347.55,-196.25 361.31,-196.25 374.73,-196.25"/>
<polygon fill="#63b8ff" stroke="#63b8ff" points="374.39,-199.75 384.39,-196.25 374.39,-192.75 374.39,-199.75"/>
</a>
</g>
</g>
<!-- Node23&#45;&gt;Node4 -->
<g id="edge28_Node000023_Node000004" class="edge">
<title>Node23&#45;&gt;Node4</title>
<g id="a_edge28_Node000023_Node000004"><a xlink:title=" ">
<path fill="none" stroke="#63b8ff" d="M493.76,-278.17C507.83,-280.26 523.12,-282.44 537.25,-284.25 591.24,-291.18 652.83,-297.76 697.25,-302.27"/>
<polygon fill="#63b8ff" stroke="#63b8ff" points="696.85,-305.85 707.15,-303.37 697.56,-298.89 696.85,-305.85"/>
</a>
</g>
</g>
<!-- Node24 -->
<g id="Node000024" class="node">
<title>Node24</title>
<g id="a_Node000024"><a xlink:href="a01931.html#a4b65f90a821aca384f0ca1cff7bd1846" target="_top" xlink:title=" ">
<polygon fill="white" stroke="#666666" points="662.75,-242.5 537.25,-242.5 537.25,-224 662.75,-224 662.75,-242.5"/>
<text text-anchor="middle" x="600" y="-229" font-family="Helvetica,sans-Serif" font-size="10.00">arax_data_migrate_accel</text>
</a>
</g>
</g>
<!-- Node23&#45;&gt;Node24 -->
<g id="edge24_Node000023_Node000024" class="edge">
<title>Node23&#45;&gt;Node24</title>
<g id="a_edge24_Node000023_Node000024"><a xlink:title=" ">
<path fill="none" stroke="#63b8ff" d="M483.9,-260.53C503.36,-255.92 526.82,-250.35 547.48,-245.46"/>
<polygon fill="#63b8ff" stroke="#63b8ff" points="548.06,-248.68 556.98,-242.97 546.45,-241.87 548.06,-248.68"/>
</a>
</g>
</g>
<!-- Node24&#45;&gt;Node4 -->
<g id="edge26_Node000024_Node000004" class="edge">
<title>Node24&#45;&gt;Node4</title>
<g id="a_edge26_Node000024_Node000004"><a xlink:title=" ">
<path fill="none" stroke="#63b8ff" d="M629.63,-242.95C640.17,-246.78 652.13,-251.41 662.75,-256.25 687.07,-267.33 713.69,-282.06 732.64,-293.01"/>
<polygon fill="#63b8ff" stroke="#63b8ff" points="730.65,-296.49 741.05,-298.51 734.18,-290.44 730.65,-296.49"/>
</a>
</g>
</g>
<!-- Node24&#45;&gt;Node9 -->
<g id="edge25_Node000024_Node000009" class="edge">
<title>Node24&#45;&gt;Node9</title>
<g id="a_edge25_Node000024_Node000009"><a xlink:title=" ">
<path fill="none" stroke="#63b8ff" d="M640.28,-223.51C660.99,-218.37 686.62,-212.02 708.69,-206.54"/>
<polygon fill="#63b8ff" stroke="#63b8ff" points="709.34,-209.74 718.2,-203.93 707.65,-202.94 709.34,-209.74"/>
</a>
</g>
</g>
<!-- Node25 -->
<g id="Node000025" class="node">
<title>Node25</title>
<g id="a_Node000025"><a xlink:href="a01910.html#a668fd893484b6e2d67d8b372b508d14f" target="_top" xlink:title=" ">
<polygon fill="white" stroke="#666666" points="819.75,-242.5 698.75,-242.5 698.75,-224 819.75,-224 819.75,-242.5"/>
<text text-anchor="middle" x="759.25" y="-229" font-family="Helvetica,sans-Serif" font-size="10.00">arax_object_type_to_str</text>
</a>
</g>
</g>
<!-- Node24&#45;&gt;Node25 -->
<g id="edge27_Node000024_Node000025" class="edge">
<title>Node24&#45;&gt;Node25</title>
<g id="a_edge27_Node000024_Node000025"><a xlink:title=" ">
<path fill="none" stroke="#63b8ff" d="M663.15,-233.25C671.12,-233.25 679.32,-233.25 687.41,-233.25"/>
<polygon fill="#63b8ff" stroke="#63b8ff" points="687.35,-236.75 697.35,-233.25 687.35,-229.75 687.35,-236.75"/>
</a>
</g>
</g>
<!-- Node26&#45;&gt;Node4 -->
<g id="edge31_Node000026_Node000004" class="edge">
<title>Node26&#45;&gt;Node4</title>
<g id="a_edge31_Node000026_Node000004"><a xlink:title=" ">
<path fill="none" stroke="#63b8ff" d="M485.9,-242.99C530.27,-253.08 601.42,-269.43 662.75,-284.25 677.99,-287.93 694.58,-292.06 709.58,-295.84"/>
<polygon fill="#63b8ff" stroke="#63b8ff" points="708.63,-299.46 719.18,-298.51 710.34,-292.67 708.63,-299.46"/>
</a>
</g>
</g>
<!-- Node26&#45;&gt;Node24 -->
<g id="edge30_Node000026_Node000024" class="edge">
<title>Node26&#45;&gt;Node24</title>
<g id="a_edge30_Node000026_Node000024"><a xlink:title=" ">
<path fill="none" stroke="#63b8ff" d="M497.04,-233.25C506.38,-233.25 516.23,-233.25 525.97,-233.25"/>
<polygon fill="#63b8ff" stroke="#63b8ff" points="525.9,-236.75 535.9,-233.25 525.9,-229.75 525.9,-236.75"/>
</a>
</g>
</g>
<!-- Node28 -->
<g id="Node000028" class="node">
<title>Node28</title>
<g id="a_Node000028"><a xlink:href="a01913.html#a1cfa2c90268c6e53ce376beb7cce153c" target="_top" xlink:title=" ">
<polygon fill="white" stroke="#666666" points="963.62,-110.5 861.38,-110.5 861.38,-92 963.62,-92 963.62,-110.5"/>
<text text-anchor="middle" x="912.5" y="-97" font-family="Helvetica,sans-Serif" font-size="10.00">arax_pipe_size_dec</text>
</a>
</g>
</g>
<!-- Node27&#45;&gt;Node28 -->
<g id="edge33_Node000027_Node000028" class="edge">
<title>Node27&#45;&gt;Node28</title>
<g id="a_edge33_Node000027_Node000028"><a xlink:title=" ">
<path fill="none" stroke="#63b8ff" d="M652.62,-86.24C706.97,-89.39 792.51,-94.35 850.24,-97.7"/>
<polygon fill="#63b8ff" stroke="#63b8ff" points="849.86,-101.24 860.04,-98.33 850.26,-94.25 849.86,-101.24"/>
</a>
</g>
</g>
<!-- Node32 -->
<g id="Node000032" class="node">
<title>Node32</title>
<g id="a_Node000032"><a xlink:href="a02343.html#ac9828b5c2758940f6d3c7d4335228de5" target="_top" xlink:title=" ">
<polygon fill="white" stroke="#666666" points="808.88,-129.5 709.62,-129.5 709.62,-111 808.88,-111 808.88,-129.5"/>
<text text-anchor="middle" x="759.25" y="-116" font-family="Helvetica,sans-Serif" font-size="10.00">arch_alloc_allocate</text>
</a>
</g>
</g>
<!-- Node27&#45;&gt;Node32 -->
<g id="edge41_Node000027_Node000032" class="edge">
<title>Node27&#45;&gt;Node32</title>
<g id="a_edge41_Node000027_Node000032"><a xlink:title=" ">
<path fill="none" stroke="#63b8ff" d="M642.32,-92.97C661.92,-97.58 685.55,-103.15 706.35,-108.04"/>
<polygon fill="#63b8ff" stroke="#63b8ff" points="705.4,-111.65 715.94,-110.53 707.01,-104.83 705.4,-111.65"/>
</a>
</g>
</g>
<!-- Node33 -->
<g id="Node000033" class="node">
<title>Node33</title>
<g id="a_Node000033"><a xlink:href="a01946.html#ae06a9e78e6a4f6c9c8afcf0f4862ce29" target="_top" xlink:title=" ">
<polygon fill="white" stroke="#666666" points="795.75,-55.5 722.75,-55.5 722.75,-37 795.75,-37 795.75,-55.5"/>
<text text-anchor="middle" x="759.25" y="-42" font-family="Helvetica,sans-Serif" font-size="10.00">utils_list_add</text>
</a>
</g>
</g>
<!-- Node27&#45;&gt;Node33 -->
<g id="edge42_Node000027_Node000033" class="edge">
<title>Node27&#45;&gt;Node33</title>
<g id="a_edge42_Node000027_Node000033"><a xlink:title=" ">
<path fill="none" stroke="#63b8ff" d="M642.32,-73.53C663.66,-68.51 689.79,-62.36 711.83,-57.17"/>
<polygon fill="#63b8ff" stroke="#63b8ff" points="712.36,-60.41 721.29,-54.71 710.75,-53.6 712.36,-60.41"/>
</a>
</g>
</g>
<!-- Node35 -->
<g id="Node000035" class="node">
<title>Node35</title>
<g id="a_Node000035"><a xlink:href="a01946.html#a63f2791c9b5c8e2fa15967cfafb7ccbb" target="_top" xlink:title=" ">
<polygon fill="white" stroke="#666666" points="807.38,-166.5 711.12,-166.5 711.12,-148 807.38,-148 807.38,-166.5"/>
<text text-anchor="middle" x="759.25" y="-153" font-family="Helvetica,sans-Serif" font-size="10.00">utils_list_node_init</text>
</a>
</g>
</g>
<!-- Node27&#45;&gt;Node35 -->
<g id="edge44_Node000027_Node000035" class="edge">
<title>Node27&#45;&gt;Node35</title>
<g id="a_edge44_Node000027_Node000035"><a xlink:title=" ">
<path fill="none" stroke="#63b8ff" d="M633.77,-92.91C643.45,-96.43 653.83,-100.88 662.75,-106.25 681.09,-117.29 680.15,-127.65 698.75,-138.25 702.2,-140.22 705.89,-142.01 709.67,-143.64"/>
<polygon fill="#63b8ff" stroke="#63b8ff" points="708.21,-147.22 718.79,-147.58 710.74,-140.69 708.21,-147.22"/>
</a>
</g>
</g>
<!-- Node29 -->
<g id="Node000029" class="node">
<title>Node29</title>
<g id="a_Node000029"><a xlink:href="a01925.html#a8413a3584787f9b629e54b2ef9439f06" target="_top" xlink:title=" ">
<polygon fill="white" stroke="#666666" points="1119.5,-184.5 1005.25,-184.5 1005.25,-166 1119.5,-166 1119.5,-184.5"/>
<text text-anchor="middle" x="1062.38" y="-171" font-family="Helvetica,sans-Serif" font-size="10.00">arax_throttle_size_dec</text>
</a>
</g>
</g>
<!-- Node28&#45;&gt;Node29 -->
<g id="edge34_Node000028_Node000029" class="edge">
<title>Node28&#45;&gt;Node29</title>
<g id="a_edge34_Node000028_Node000029"><a xlink:title=" ">
<path fill="none" stroke="#63b8ff" d="M932.83,-110.92C958.18,-123.61 1002.89,-145.98 1032.32,-160.71"/>
<polygon fill="#63b8ff" stroke="#63b8ff" points="1030.53,-164.23 1041.04,-165.57 1033.66,-157.97 1030.53,-164.23"/>
</a>
</g>
</g>
<!-- Node29&#45;&gt;Node12 -->
<g id="edge35_Node000029_Node000012" class="edge">
<title>Node29&#45;&gt;Node12</title>
<g id="a_edge35_Node000029_Node000012"><a xlink:title=" ">
<path fill="none" stroke="#63b8ff" d="M1100.11,-184.97C1106.81,-187.49 1113.56,-190.56 1119.5,-194.25 1138.72,-206.19 1136.2,-218.44 1155.5,-230.25 1158.66,-232.18 1162.04,-233.94 1165.51,-235.53"/>
<polygon fill="#63b8ff" stroke="#63b8ff" points="1163.9,-239.07 1174.48,-239.6 1166.55,-232.58 1163.9,-239.07"/>
</a>
</g>
</g>
<!-- Node29&#45;&gt;Node16 -->
<g id="edge36_Node000029_Node000016" class="edge">
<title>Node29&#45;&gt;Node16</title>
<g id="a_edge36_Node000029_Node000016"><a xlink:title=" ">
<path fill="none" stroke="#63b8ff" d="M1119.98,-175.25C1127.86,-175.25 1136.03,-175.25 1144.11,-175.25"/>
<polygon fill="#63b8ff" stroke="#63b8ff" points="1144.06,-178.75 1154.06,-175.25 1144.06,-171.75 1144.06,-178.75"/>
</a>
</g>
</g>
<!-- Node30 -->
<g id="Node000030" class="node">
<title>Node30</title>
<g id="a_Node000030"><a xlink:href="a02352.html#a1bfeaeb9b81855e640d7a67cc9d92b17" target="_top" xlink:title=" ">
<polygon fill="white" stroke="#666666" points="1269.38,-221.5 1161.12,-221.5 1161.12,-203 1269.38,-203 1269.38,-221.5"/>
<text text-anchor="middle" x="1215.25" y="-208" font-family="Helvetica,sans-Serif" font-size="10.00">async_condition_wait</text>
</a>
</g>
</g>
<!-- Node29&#45;&gt;Node30 -->
<g id="edge37_Node000029_Node000030" class="edge">
<title>Node29&#45;&gt;Node30</title>
<g id="a_edge37_Node000029_Node000030"><a xlink:title=" ">
<path fill="none" stroke="#63b8ff" d="M1103.02,-184.97C1121.74,-189.56 1144.29,-195.09 1164.18,-199.97"/>
<polygon fill="#63b8ff" stroke="#63b8ff" points="1163.07,-203.55 1173.61,-202.53 1164.73,-196.75 1163.07,-203.55"/>
</a>
</g>
</g>
<!-- Node30&#45;&gt;Node13 -->
<g id="edge39_Node000030_Node000013" class="edge">
<title>Node30&#45;&gt;Node13</title>
<g id="a_edge39_Node000030_Node000013"><a xlink:title=" ">
<path fill="none" stroke="#63b8ff" d="M1259.14,-221.97C1279.59,-226.61 1304.26,-232.2 1325.92,-237.11"/>
<polygon fill="#63b8ff" stroke="#63b8ff" points="1325.09,-240.73 1335.61,-239.53 1326.63,-233.91 1325.09,-240.73"/>
</a>
</g>
</g>
<!-- Node30&#45;&gt;Node17 -->
<g id="edge38_Node000030_Node000017" class="edge">
<title>Node30&#45;&gt;Node17</title>
<g id="a_edge38_Node000030_Node000017"><a xlink:title=" ">
<path fill="none" stroke="#63b8ff" d="M1259.14,-202.53C1279.59,-197.89 1304.26,-192.3 1325.92,-187.39"/>
<polygon fill="#63b8ff" stroke="#63b8ff" points="1326.63,-190.59 1335.61,-184.97 1325.09,-183.77 1326.63,-190.59"/>
</a>
</g>
</g>
<!-- Node31 -->
<g id="Node000031" class="node">
<title>Node31</title>
<g id="a_Node000031"><a xlink:href="a02346.html#a7ab7c7fe9cb93434dde72a4e464a7e69" target="_top" xlink:title=" ">
<polygon fill="white" stroke="#666666" points="1438.38,-221.5 1322.62,-221.5 1322.62,-203 1438.38,-203 1438.38,-221.5"/>
<text text-anchor="middle" x="1380.5" y="-208" font-family="Helvetica,sans-Serif" font-size="10.00">async_semaphore_dec</text>
</a>
</g>
</g>
<!-- Node30&#45;&gt;Node31 -->
<g id="edge40_Node000030_Node000031" class="edge">
<title>Node30&#45;&gt;Node31</title>
<g id="a_edge40_Node000030_Node000031"><a xlink:title=" ">
<path fill="none" stroke="#63b8ff" d="M1269.7,-212.25C1282.98,-212.25 1297.4,-212.25 1311.28,-212.25"/>
<polygon fill="#63b8ff" stroke="#63b8ff" points="1311.27,-215.75 1321.27,-212.25 1311.27,-208.75 1311.27,-215.75"/>
</a>
</g>
</g>
<!-- Node34 -->
<g id="Node000034" class="node">
<title>Node34</title>
<g id="a_Node000034"><a xlink:href="a01946.html#a5c575f52a42e0e0d2fb41bda2d1268ce" target="_top" xlink:title=" ">
<polygon fill="white" stroke="#666666" points="962.12,-55.5 862.88,-55.5 862.88,-37 962.12,-37 962.12,-55.5"/>
<text text-anchor="middle" x="912.5" y="-42" font-family="Helvetica,sans-Serif" font-size="10.00">utils_list_node_add</text>
</a>
</g>
</g>
<!-- Node33&#45;&gt;Node34 -->
<g id="edge43_Node000033_Node000034" class="edge">
<title>Node33&#45;&gt;Node34</title>
<g id="a_edge43_Node000033_Node000034"><a xlink:title=" ">
<path fill="none" stroke="#63b8ff" d="M796.09,-46.25C812.67,-46.25 832.81,-46.25 851.6,-46.25"/>
<polygon fill="#63b8ff" stroke="#63b8ff" points="851.47,-49.75 861.47,-46.25 851.47,-42.75 851.47,-49.75"/>
</a>
</g>
</g>
<!-- Node36&#45;&gt;Node35 -->
<g id="edge46_Node000036_Node000035" class="edge">
<title>Node36&#45;&gt;Node35</title>
<g id="a_edge46_Node000036_Node000035"><a xlink:title=" ">
<path fill="none" stroke="#63b8ff" d="M498.17,-189.41C554.76,-182.41 642.35,-171.58 700,-164.45"/>
<polygon fill="#63b8ff" stroke="#63b8ff" points="700.26,-167.82 709.75,-163.12 699.4,-160.88 700.26,-167.82"/>
</a>
</g>
</g>
<!-- Node37&#45;&gt;Node4 -->
<g id="edge49_Node000037_Node000004" class="edge">
<title>Node37&#45;&gt;Node4</title>
<g id="a_edge49_Node000037_Node000004"><a xlink:title=" ">
<path fill="none" stroke="#63b8ff" d="M629.63,-373.55C640.17,-369.72 652.13,-365.09 662.75,-360.25 687.07,-349.17 713.69,-334.44 732.64,-323.49"/>
<polygon fill="#63b8ff" stroke="#63b8ff" points="734.18,-326.06 741.05,-317.99 730.65,-320.01 734.18,-326.06"/>
</a>
</g>
</g>
<!-- Node38 -->
<g id="Node000038" class="node">
<title>Node38</title>
<g id="a_Node000038"><a xlink:href="a01928.html#a8b82433bc8c7d7f03683ac521a3679fa" target="_top" xlink:title=" ">
<polygon fill="white" stroke="#666666" points="969.25,-295.5 855.75,-295.5 855.75,-277 969.25,-277 969.25,-295.5"/>
<text text-anchor="middle" x="912.5" y="-282" font-family="Helvetica,sans-Serif" font-size="10.00">arax_vaccel_add_task</text>
</a>
</g>
</g>
<!-- Node37&#45;&gt;Node38 -->
<g id="edge50_Node000037_Node000038" class="edge">
<title>Node37&#45;&gt;Node38</title>
<g id="a_edge50_Node000037_Node000038"><a xlink:title=" ">
<path fill="none" stroke="#63b8ff" d="M646.44,-373.59C691.12,-363.59 760.96,-346.58 819.75,-326.25 841.03,-318.89 864.27,-308.73 882.04,-300.5"/>
<polygon fill="#63b8ff" stroke="#63b8ff" points="883.25,-303.33 890.81,-295.9 880.27,-296.99 883.25,-303.33"/>
</a>
</g>
</g>
<!-- Node39 -->
<g id="Node000039" class="node">
<title>Node39</title>
<g id="a_Node000039"><a xlink:href="a01904.html#ab6afd8cc035237c811ce6a1b7727acc3" target="_top" xlink:title=" ">
<polygon fill="white" stroke="#666666" points="1116.88,-295.5 1007.88,-295.5 1007.88,-277 1116.88,-277 1116.88,-295.5"/>
<text text-anchor="middle" x="1062.38" y="-282" font-family="Helvetica,sans-Serif" font-size="10.00">arax_accel_add_task</text>
</a>
</g>
</g>
<!-- Node38&#45;&gt;Node39 -->
<g id="edge51_Node000038_Node000039" class="edge">
<title>Node38&#45;&gt;Node39</title>
<g id="a_edge51_Node000038_Node000039"><a xlink:title=" ">
<path fill="none" stroke="#63b8ff" d="M969.41,-286.25C978.46,-286.25 987.9,-286.25 997.13,-286.25"/>
<polygon fill="#63b8ff" stroke="#63b8ff" points="996.84,-289.75 1006.84,-286.25 996.84,-282.75 996.84,-289.75"/>
</a>
</g>
</g>
<!-- Node40 -->
<g id="Node000040" class="node">
<title>Node40</title>
<g id="a_Node000040"><a xlink:href="a01949.html#a9fae55b169121c4851bb7c0adf4eac47" target="_top" xlink:title=" ">
<polygon fill="white" stroke="#666666" points="1108.25,-258.5 1016.5,-258.5 1016.5,-240 1108.25,-240 1108.25,-258.5"/>
<text text-anchor="middle" x="1062.38" y="-245" font-family="Helvetica,sans-Serif" font-size="10.00">utils_queue_push</text>
</a>
</g>
</g>
<!-- Node38&#45;&gt;Node40 -->
<g id="edge55_Node000038_Node000040" class="edge">
<title>Node38&#45;&gt;Node40</title>
<g id="a_edge55_Node000038_Node000040"><a xlink:title=" ">
<path fill="none" stroke="#63b8ff" d="M952.35,-276.53C970.62,-271.96 992.61,-266.46 1012.03,-261.6"/>
<polygon fill="#63b8ff" stroke="#63b8ff" points="1012.67,-264.79 1021.53,-258.97 1010.98,-258 1012.67,-264.79"/>
</a>
</g>
</g>
<!-- Node39&#45;&gt;Node12 -->
<g id="edge52_Node000039_Node000012" class="edge">
<title>Node39&#45;&gt;Node12</title>
<g id="a_edge52_Node000039_Node000012"><a xlink:title=" ">
<path fill="none" stroke="#63b8ff" d="M1103.02,-276.53C1121.74,-271.94 1144.29,-266.41 1164.18,-261.53"/>
<polygon fill="#63b8ff" stroke="#63b8ff" points="1164.73,-264.75 1173.61,-258.97 1163.07,-257.95 1164.73,-264.75"/>
</a>
</g>
</g>
<!-- Node39&#45;&gt;Node14 -->
<g id="edge53_Node000039_Node000014" class="edge">
<title>Node39&#45;&gt;Node14</title>
<g id="a_edge53_Node000039_Node000014"><a xlink:title=" ">
<path fill="none" stroke="#63b8ff" d="M1116.99,-286.25C1126.63,-286.25 1136.8,-286.25 1146.77,-286.25"/>
<polygon fill="#63b8ff" stroke="#63b8ff" points="1146.48,-289.75 1156.48,-286.25 1146.48,-282.75 1146.48,-289.75"/>
</a>
</g>
</g>
<!-- Node39&#45;&gt;Node16 -->
<g id="edge54_Node000039_Node000016" class="edge">
<title>Node39&#45;&gt;Node16</title>
<g id="a_edge54_Node000039_Node000016"><a xlink:title=" ">
<path fill="none" stroke="#63b8ff" d="M1104.68,-276.53C1110.04,-274.09 1115.17,-271.05 1119.5,-267.25 1146.71,-243.41 1128.13,-217.9 1155.5,-194.25 1157.31,-192.68 1159.26,-191.25 1161.29,-189.93"/>
<polygon fill="#63b8ff" stroke="#63b8ff" points="1162.57,-192.68 1169.72,-184.87 1159.25,-186.51 1162.57,-192.68"/>
</a>
</g>
</g>
<!-- Node43 -->
<g id="Node000043" class="node">
<title>Node43</title>
<g id="a_Node000043"><a xlink:href="a01922.html#a0d3707df989265f8cf380acdef95eb02" target="_top" xlink:title=" ">
<polygon fill="white" stroke="#666666" points="346.5,-56.5 238.25,-56.5 238.25,-38 346.5,-38 346.5,-56.5"/>
<text text-anchor="middle" x="292.38" y="-43" font-family="Helvetica,sans-Serif" font-size="10.00">arax_task_wait_done</text>
</a>
</g>
</g>
<!-- Node42&#45;&gt;Node43 -->
<g id="edge58_Node000042_Node000043" class="edge">
<title>Node42&#45;&gt;Node43</title>
<g id="a_edge58_Node000042_Node000043"><a xlink:title=" ">
<path fill="none" stroke="#63b8ff" d="M199.61,-47.25C208.34,-47.25 217.77,-47.25 227.16,-47.25"/>
<polygon fill="#63b8ff" stroke="#63b8ff" points="227.11,-50.75 237.11,-47.25 227.11,-43.75 227.11,-50.75"/>
</a>
</g>
</g>
<!-- Node44 -->
<g id="Node000044" class="node">
<title>Node44</title>
<g id="a_Node000044"><a xlink:href="a02352.html#aebf9e72bb6cbd8b9e33489d46c25075d" target="_top" xlink:title=" ">
<polygon fill="white" stroke="#666666" points="500.12,-54.5 383.62,-54.5 383.62,-36 500.12,-36 500.12,-54.5"/>
<text text-anchor="middle" x="441.88" y="-41" font-family="Helvetica,sans-Serif" font-size="10.00">async_completion_wait</text>
</a>
</g>
</g>
<!-- Node43&#45;&gt;Node44 -->
<g id="edge59_Node000043_Node000044" class="edge">
<title>Node43&#45;&gt;Node44</title>
<g id="a_edge59_Node000043_Node000044"><a xlink:title=" ">
<path fill="none" stroke="#63b8ff" d="M346.63,-46.53C354.98,-46.41 363.72,-46.3 372.36,-46.18"/>
<polygon fill="#63b8ff" stroke="#63b8ff" points="372.26,-49.67 382.21,-46.03 372.17,-42.67 372.26,-49.67"/>
</a>
</g>
</g>
<!-- Node45 -->
<g id="Node000045" class="node">
<title>Node45</title>
<g id="a_Node000045"><a xlink:href="a02346.html#aa459f71b73bbc23f0b4bb342d093dde3" target="_top" xlink:title=" ">
<polygon fill="white" stroke="#666666" points="644.75,-55.5 555.25,-55.5 555.25,-37 644.75,-37 644.75,-55.5"/>
<text text-anchor="middle" x="600" y="-42" font-family="Helvetica,sans-Serif" font-size="10.00">_add_completion</text>
</a>
</g>
</g>
<!-- Node44&#45;&gt;Node45 -->
<g id="edge60_Node000044_Node000045" class="edge">
<title>Node44&#45;&gt;Node45</title>
<g id="a_edge60_Node000044_Node000045"><a xlink:title=" ">
<path fill="none" stroke="#63b8ff" d="M500.57,-45.62C514.96,-45.71 530.36,-45.81 544.59,-45.9"/>
<polygon fill="#63b8ff" stroke="#63b8ff" points="544.19,-49.41 554.21,-45.97 544.23,-42.41 544.19,-49.41"/>
</a>
</g>
</g>
<!-- Node46 -->
<g id="Node000046" class="node">
<title>Node46</title>
<g id="a_Node000046"><a xlink:href="a02346.html#a49083e8ceb4bfe7793ca1a5a799834d0" target="_top" xlink:title=" ">
<polygon fill="white" stroke="#666666" points="627.5,-18.5 572.5,-18.5 572.5,0 627.5,0 627.5,-18.5"/>
<text text-anchor="middle" x="600" y="-5" font-family="Helvetica,sans-Serif" font-size="10.00">getVmID</text>
</a>
</g>
</g>
<!-- Node44&#45;&gt;Node46 -->
<g id="edge62_Node000044_Node000046" class="edge">
<title>Node44&#45;&gt;Node46</title>
<g id="a_edge62_Node000044_Node000046"><a xlink:title=" ">
<path fill="none" stroke="#63b8ff" d="M485.12,-35.51C509.14,-29.97 538.92,-23.1 562,-17.78"/>
<polygon fill="#63b8ff" stroke="#63b8ff" points="562.46,-21.04 571.42,-15.38 560.89,-14.22 562.46,-21.04"/>
</a>
</g>
</g>
<!-- Node45&#45;&gt;Node33 -->
<g id="edge61_Node000045_Node000033" class="edge">
<title>Node45&#45;&gt;Node33</title>
<g id="a_edge61_Node000045_Node000033"><a xlink:title=" ">
<path fill="none" stroke="#63b8ff" d="M645.22,-46.25C665.86,-46.25 690.43,-46.25 711.39,-46.25"/>
<polygon fill="#63b8ff" stroke="#63b8ff" points="711.29,-49.75 721.29,-46.25 711.29,-42.75 711.29,-49.75"/>
</a>
</g>
</g>
</g>
</svg>
