<?xml version="1.0" encoding="UTF-8" standalone="no"?>
<!DOCTYPE svg PUBLIC "-//W3C//DTD SVG 1.1//EN"
 "http://www.w3.org/Graphics/SVG/1.1/DTD/svg11.dtd">
<!-- Generated by graphviz version 8.0.5 (0)
 -->
<!-- Title: arax_accel_types.h Pages: 1 -->
<svg width="955pt" height="354pt"
 viewBox="0.00 0.00 955.25 353.50" xmlns="http://www.w3.org/2000/svg" xmlns:xlink="http://www.w3.org/1999/xlink">
<g id="graph0" class="graph" transform="scale(1 1) rotate(0) translate(4 349.5)">
<title>arax_accel_types.h</title>
<!-- Node1 -->
<g id="Node000001" class="node">
<title>Node1</title>
<g id="a_Node000001"><a xlink:title=" ">
<polygon fill="#999999" stroke="#666666" points="274,-345.5 172.5,-345.5 172.5,-327 274,-327 274,-345.5"/>
<text text-anchor="middle" x="223.25" y="-332" font-family="Helvetica,sans-Serif" font-size="10.00">arax_accel_types.h</text>
</a>
</g>
</g>
<!-- Node2 -->
<g id="Node000002" class="node">
<title>Node2</title>
<g id="a_Node000002"><a xlink:href="a01346.html" target="_top" xlink:title=" ">
<polygon fill="white" stroke="#666666" points="244.75,-291 201.75,-291 201.75,-272.5 244.75,-272.5 244.75,-291"/>
<text text-anchor="middle" x="223.25" y="-277.5" font-family="Helvetica,sans-Serif" font-size="10.00">arax.h</text>
</a>
</g>
</g>
<!-- Node1&#45;&gt;Node2 -->
<g id="edge1_Node000001_Node000002" class="edge">
<title>Node1&#45;&gt;Node2</title>
<g id="a_edge1_Node000001_Node000002"><a xlink:title=" ">
<path fill="none" stroke="#63b8ff" d="M223.25,-315.72C223.25,-307.29 223.25,-297.86 223.25,-291.26"/>
<polygon fill="#63b8ff" stroke="#63b8ff" points="219.75,-315.58 223.25,-325.58 226.75,-315.58 219.75,-315.58"/>
</a>
</g>
</g>
<!-- Node3 -->
<g id="Node000003" class="node">
<title>Node3</title>
<g id="a_Node000003"><a xlink:href="a01391.html" target="_top" xlink:title=" ">
<polygon fill="white" stroke="#666666" points="291.38,-182 219.12,-182 219.12,-163.5 291.38,-163.5 291.38,-182"/>
<text text-anchor="middle" x="255.25" y="-168.5" font-family="Helvetica,sans-Serif" font-size="10.00">arax_accel.h</text>
</a>
</g>
</g>
<!-- Node2&#45;&gt;Node3 -->
<g id="edge2_Node000002_Node000003" class="edge">
<title>Node2&#45;&gt;Node3</title>
<g id="a_edge2_Node000002_Node000003"><a xlink:title=" ">
<path fill="none" stroke="#63b8ff" d="M228.85,-262.03C235.84,-238.65 247.5,-199.65 252.66,-182.4"/>
<polygon fill="#63b8ff" stroke="#63b8ff" points="225.27,-260.77 225.76,-271.35 231.98,-262.78 225.27,-260.77"/>
</a>
</g>
</g>
<!-- Node4 -->
<g id="Node000004" class="node">
<title>Node4</title>
<g id="a_Node000004"><a xlink:href="a01397.html" target="_top" xlink:title=" ">
<polygon fill="white" stroke="#666666" points="243.12,-127.5 175.38,-127.5 175.38,-109 243.12,-109 243.12,-127.5"/>
<text text-anchor="middle" x="209.25" y="-114" font-family="Helvetica,sans-Serif" font-size="10.00">arax_data.h</text>
</a>
</g>
</g>
<!-- Node2&#45;&gt;Node4 -->
<g id="edge23_Node000002_Node000004" class="edge">
<title>Node2&#45;&gt;Node4</title>
<g id="a_edge23_Node000002_Node000004"><a xlink:title=" ">
<path fill="none" stroke="#63b8ff" d="M220.03,-261.39C216.89,-241.53 212.29,-209.71 210.25,-182 208.83,-162.66 208.9,-139.88 209.08,-127.79"/>
<polygon fill="#63b8ff" stroke="#63b8ff" points="216.71,-261.76 221.76,-271.07 223.62,-260.63 216.71,-261.76"/>
</a>
</g>
</g>
<!-- Node8 -->
<g id="Node000008" class="node">
<title>Node8</title>
<g id="a_Node000008"><a xlink:href="a01922.html" target="_top" xlink:title=" ">
<polygon fill="white" stroke="#666666" points="130.12,-73 62.38,-73 62.38,-54.5 130.12,-54.5 130.12,-73"/>
<text text-anchor="middle" x="96.25" y="-59.5" font-family="Helvetica,sans-Serif" font-size="10.00">arax_task.c</text>
</a>
</g>
</g>
<!-- Node2&#45;&gt;Node8 -->
<g id="edge34_Node000002_Node000008" class="edge">
<title>Node2&#45;&gt;Node8</title>
<g id="a_edge34_Node000002_Node000008"><a xlink:title=" ">
<path fill="none" stroke="#63b8ff" d="M191.06,-273.78C168.11,-267.4 137.81,-255.92 117.25,-236.5 78.09,-199.51 76.34,-179.99 64.25,-127.5 62.41,-119.49 61.72,-116.82 64.25,-109 68.8,-94.93 79.69,-81.58 87.5,-73.29"/>
<polygon fill="#63b8ff" stroke="#63b8ff" points="190.1,-277.41 200.66,-276.52 191.85,-270.63 190.1,-277.41"/>
</a>
</g>
</g>
<!-- Node9 -->
<g id="Node000009" class="node">
<title>Node9</title>
<g id="a_Node000009"><a xlink:href="a01898.html" target="_top" xlink:title=" ">
<polygon fill="white" stroke="#666666" points="190.38,-73 148.12,-73 148.12,-54.5 190.38,-54.5 190.38,-73"/>
<text text-anchor="middle" x="169.25" y="-59.5" font-family="Helvetica,sans-Serif" font-size="10.00">impl.c</text>
</a>
</g>
</g>
<!-- Node2&#45;&gt;Node9 -->
<g id="edge35_Node000002_Node000009" class="edge">
<title>Node2&#45;&gt;Node9</title>
<g id="a_edge35_Node000002_Node000009"><a xlink:title=" ">
<path fill="none" stroke="#63b8ff" d="M213.98,-262.42C200.31,-234.27 175.39,-178.31 166.25,-127.5 162.81,-108.39 165.61,-85.52 167.63,-73.35"/>
<polygon fill="#63b8ff" stroke="#63b8ff" points="211.19,-263.67 218.76,-271.08 217.46,-260.57 211.19,-263.67"/>
</a>
</g>
</g>
<!-- Node10 -->
<g id="Node000010" class="node">
<title>Node10</title>
<g id="a_Node000010"><a xlink:href="a01349.html" target="_top" xlink:title=" ">
<polygon fill="white" stroke="#666666" points="574.75,-127.5 507.75,-127.5 507.75,-109 574.75,-109 574.75,-127.5"/>
<text text-anchor="middle" x="541.25" y="-114" font-family="Helvetica,sans-Serif" font-size="10.00">arax_pipe.h</text>
</a>
</g>
</g>
<!-- Node2&#45;&gt;Node10 -->
<g id="edge24_Node000002_Node000010" class="edge">
<title>Node2&#45;&gt;Node10</title>
<g id="a_edge24_Node000002_Node000010"><a xlink:title=" ">
<path fill="none" stroke="#63b8ff" d="M255.86,-279.94C317.04,-276.56 448.99,-260.06 517.25,-182 531.22,-166.02 537.46,-141.05 539.9,-127.94"/>
<polygon fill="#63b8ff" stroke="#63b8ff" points="255.78,-276.49 245.95,-280.45 256.11,-283.48 255.78,-276.49"/>
</a>
</g>
</g>
<!-- Node17 -->
<g id="Node000017" class="node">
<title>Node17</title>
<g id="a_Node000017"><a xlink:href="a01364.html" target="_top" xlink:title=" ">
<polygon fill="white" stroke="#666666" points="639.25,-236.5 575.25,-236.5 575.25,-218 639.25,-218 639.25,-236.5"/>
<text text-anchor="middle" x="607.25" y="-223" font-family="Helvetica,sans-Serif" font-size="10.00">arax_plot.h</text>
</a>
</g>
</g>
<!-- Node2&#45;&gt;Node17 -->
<g id="edge25_Node000002_Node000017" class="edge">
<title>Node2&#45;&gt;Node17</title>
<g id="a_edge25_Node000002_Node000017"><a xlink:title=" ">
<path fill="none" stroke="#63b8ff" d="M255.77,-276.59C314.99,-268.97 444.36,-252.12 553.25,-236.5 560.29,-235.49 567.84,-234.36 575,-233.28"/>
<polygon fill="#63b8ff" stroke="#63b8ff" points="255.36,-273.24 245.89,-277.99 256.26,-280.18 255.36,-273.24"/>
</a>
</g>
</g>
<!-- Node18 -->
<g id="Node000018" class="node">
<title>Node18</title>
<g id="a_Node000018"><a xlink:href="a01406.html" target="_top" xlink:title=" ">
<polygon fill="white" stroke="#666666" points="408.12,-236.5 340.38,-236.5 340.38,-218 408.12,-218 408.12,-236.5"/>
<text text-anchor="middle" x="374.25" y="-223" font-family="Helvetica,sans-Serif" font-size="10.00">arax_proc.h</text>
</a>
</g>
</g>
<!-- Node2&#45;&gt;Node18 -->
<g id="edge27_Node000002_Node000018" class="edge">
<title>Node2&#45;&gt;Node18</title>
<g id="a_edge27_Node000002_Node000018"><a xlink:title=" ">
<path fill="none" stroke="#63b8ff" d="M255.31,-269.6C283.35,-259.85 323.52,-245.89 349.25,-236.94"/>
<polygon fill="#63b8ff" stroke="#63b8ff" points="254.5,-266.53 246.21,-273.12 256.8,-273.14 254.5,-266.53"/>
</a>
</g>
</g>
<!-- Node21 -->
<g id="Node000021" class="node">
<title>Node21</title>
<g id="a_Node000021"><a xlink:href="a01388.html" target="_top" xlink:title=" ">
<polygon fill="white" stroke="#666666" points="119.25,-127.5 73.25,-127.5 73.25,-109 119.25,-109 119.25,-127.5"/>
<text text-anchor="middle" x="96.25" y="-114" font-family="Helvetica,sans-Serif" font-size="10.00">timer.h</text>
</a>
</g>
</g>
<!-- Node2&#45;&gt;Node21 -->
<g id="edge36_Node000002_Node000021" class="edge">
<title>Node2&#45;&gt;Node21</title>
<g id="a_edge36_Node000002_Node000021"><a xlink:title=" ">
<path fill="none" stroke="#63b8ff" d="M190.84,-271.91C171.64,-265.13 148.21,-253.91 133.25,-236.5 104.87,-203.47 98.23,-148.63 96.7,-127.71"/>
<polygon fill="#63b8ff" stroke="#63b8ff" points="189.68,-275.54 200.27,-275.32 191.85,-268.89 189.68,-275.54"/>
</a>
</g>
</g>
<!-- Node3&#45;&gt;Node4 -->
<g id="edge3_Node000003_Node000004" class="edge">
<title>Node3&#45;&gt;Node4</title>
<g id="a_edge3_Node000003_Node000004"><a xlink:title=" ">
<path fill="none" stroke="#63b8ff" d="M240.65,-155.08C232.68,-145.99 223.16,-135.12 216.7,-127.76"/>
<polygon fill="#63b8ff" stroke="#63b8ff" points="238.43,-156.87 247.65,-162.08 243.7,-152.25 238.43,-156.87"/>
</a>
</g>
</g>
<!-- Node7 -->
<g id="Node000007" class="node">
<title>Node7</title>
<g id="a_Node000007"><a xlink:href="a01910.html" target="_top" xlink:title=" ">
<polygon fill="white" stroke="#666666" points="440.5,-73 366,-73 366,-54.5 440.5,-54.5 440.5,-73"/>
<text text-anchor="middle" x="403.25" y="-59.5" font-family="Helvetica,sans-Serif" font-size="10.00">arax_object.c</text>
</a>
</g>
</g>
<!-- Node3&#45;&gt;Node7 -->
<g id="edge10_Node000003_Node000007" class="edge">
<title>Node3&#45;&gt;Node7</title>
<g id="a_edge10_Node000003_Node000007"><a xlink:title=" ">
<path fill="none" stroke="#63b8ff" d="M261.74,-152.94C267.37,-139.13 276.74,-120.79 290.25,-109 311.68,-90.3 341.93,-79.01 365.74,-72.53"/>
<polygon fill="#63b8ff" stroke="#63b8ff" points="258.12,-151.64 257.89,-162.23 264.68,-154.09 258.12,-151.64"/>
</a>
</g>
</g>
<!-- Node3&#45;&gt;Node10 -->
<g id="edge11_Node000003_Node000010" class="edge">
<title>Node3&#45;&gt;Node10</title>
<g id="a_edge11_Node000003_Node000010"><a xlink:title=" ">
<path fill="none" stroke="#63b8ff" d="M302.44,-163.09C360.27,-152.47 456.8,-134.75 507.62,-125.42"/>
<polygon fill="#63b8ff" stroke="#63b8ff" points="301.97,-159.8 292.76,-165.05 303.23,-166.68 301.97,-159.8"/>
</a>
</g>
</g>
<!-- Node16 -->
<g id="Node000016" class="node">
<title>Node16</title>
<g id="a_Node000016"><a xlink:href="a01418.html" target="_top" xlink:title=" ">
<polygon fill="white" stroke="#666666" points="375.62,-127.5 298.88,-127.5 298.88,-109 375.62,-109 375.62,-127.5"/>
<text text-anchor="middle" x="337.25" y="-114" font-family="Helvetica,sans-Serif" font-size="10.00">arax_vaccel.h</text>
</a>
</g>
</g>
<!-- Node3&#45;&gt;Node16 -->
<g id="edge21_Node000003_Node000016" class="edge">
<title>Node3&#45;&gt;Node16</title>
<g id="a_edge21_Node000003_Node000016"><a xlink:title=" ">
<path fill="none" stroke="#63b8ff" d="M272.46,-156.79C286,-147.45 304.59,-135.76 318.52,-127.93"/>
<polygon fill="#63b8ff" stroke="#63b8ff" points="270.74,-154.43 264.62,-163.08 274.8,-160.13 270.74,-154.43"/>
</a>
</g>
</g>
<!-- Node5 -->
<g id="Node000005" class="node">
<title>Node5</title>
<g id="a_Node000005"><a xlink:href="a01931.html" target="_top" xlink:title=" ">
<polygon fill="white" stroke="#666666" points="437.12,-18.5 369.38,-18.5 369.38,0 437.12,0 437.12,-18.5"/>
<text text-anchor="middle" x="403.25" y="-5" font-family="Helvetica,sans-Serif" font-size="10.00">arax_data.c</text>
</a>
</g>
</g>
<!-- Node4&#45;&gt;Node5 -->
<g id="edge4_Node000004_Node000005" class="edge">
<title>Node4&#45;&gt;Node5</title>
<g id="a_edge4_Node000004_Node000005"><a xlink:title=" ">
<path fill="none" stroke="#63b8ff" d="M246.56,-104.97C268.39,-97.13 296.12,-86 319.25,-73 348.13,-56.77 378.4,-31.9 393.49,-18.88"/>
<polygon fill="#63b8ff" stroke="#63b8ff" points="245.64,-101.94 237.37,-108.55 247.96,-108.54 245.64,-101.94"/>
</a>
</g>
</g>
<!-- Node6 -->
<g id="Node000006" class="node">
<title>Node6</title>
<g id="a_Node000006"><a xlink:href="a01400.html" target="_top" xlink:title=" ">
<polygon fill="white" stroke="#666666" points="310,-73 208.5,-73 208.5,-54.5 310,-54.5 310,-73"/>
<text text-anchor="middle" x="259.25" y="-59.5" font-family="Helvetica,sans-Serif" font-size="10.00">arax_data_private.h</text>
</a>
</g>
</g>
<!-- Node4&#45;&gt;Node6 -->
<g id="edge5_Node000004_Node000006" class="edge">
<title>Node4&#45;&gt;Node6</title>
<g id="a_edge5_Node000004_Node000006"><a xlink:title=" ">
<path fill="none" stroke="#63b8ff" d="M224.86,-100.86C233.57,-91.72 244.06,-80.7 251.15,-73.26"/>
<polygon fill="#63b8ff" stroke="#63b8ff" points="222.87,-97.93 218.51,-107.58 227.94,-102.75 222.87,-97.93"/>
</a>
</g>
</g>
<!-- Node4&#45;&gt;Node7 -->
<g id="edge7_Node000004_Node000007" class="edge">
<title>Node4&#45;&gt;Node7</title>
<g id="a_edge7_Node000004_Node000007"><a xlink:title=" ">
<path fill="none" stroke="#63b8ff" d="M251.47,-105.82C287.47,-96.08 338.43,-82.29 371.17,-73.43"/>
<polygon fill="#63b8ff" stroke="#63b8ff" points="251.02,-102.59 242.29,-108.58 252.85,-109.35 251.02,-102.59"/>
</a>
</g>
</g>
<!-- Node4&#45;&gt;Node8 -->
<g id="edge8_Node000004_Node000008" class="edge">
<title>Node4&#45;&gt;Node8</title>
<g id="a_edge8_Node000004_Node000008"><a xlink:title=" ">
<path fill="none" stroke="#63b8ff" d="M180.79,-104.03C160.16,-94.44 132.86,-81.76 114.94,-73.43"/>
<polygon fill="#63b8ff" stroke="#63b8ff" points="179.05,-107.54 189.59,-108.58 182,-101.19 179.05,-107.54"/>
</a>
</g>
</g>
<!-- Node4&#45;&gt;Node9 -->
<g id="edge9_Node000004_Node000009" class="edge">
<title>Node4&#45;&gt;Node9</title>
<g id="a_edge9_Node000004_Node000009"><a xlink:title=" ">
<path fill="none" stroke="#63b8ff" d="M196.12,-100.02C189.28,-91.04 181.23,-80.47 175.73,-73.26"/>
<polygon fill="#63b8ff" stroke="#63b8ff" points="193.8,-101.75 202.64,-107.58 199.37,-97.51 193.8,-101.75"/>
</a>
</g>
</g>
<!-- Node6&#45;&gt;Node5 -->
<g id="edge6_Node000006_Node000005" class="edge">
<title>Node6&#45;&gt;Node5</title>
<g id="a_edge6_Node000006_Node000005"><a xlink:title=" ">
<path fill="none" stroke="#63b8ff" d="M293.03,-50.43C319.57,-40.76 355.87,-27.52 379.44,-18.93"/>
<polygon fill="#63b8ff" stroke="#63b8ff" points="292.22,-47.37 284.03,-54.08 294.62,-53.94 292.22,-47.37"/>
</a>
</g>
</g>
<!-- Node10&#45;&gt;Node5 -->
<g id="edge13_Node000010_Node000005" class="edge">
<title>Node10&#45;&gt;Node5</title>
<g id="a_edge13_Node000010_Node000005"><a xlink:title=" ">
<path fill="none" stroke="#63b8ff" d="M585.8,-110.13C629.09,-101.33 684.94,-83.81 660.25,-54.5 632.1,-21.09 500.32,-12.9 437.17,-10.9"/>
<polygon fill="#63b8ff" stroke="#63b8ff" points="585.28,-106.85 576.12,-112.18 586.6,-113.73 585.28,-106.85"/>
</a>
</g>
</g>
<!-- Node10&#45;&gt;Node7 -->
<g id="edge14_Node000010_Node000007" class="edge">
<title>Node10&#45;&gt;Node7</title>
<g id="a_edge14_Node000010_Node000007"><a xlink:title=" ">
<path fill="none" stroke="#63b8ff" d="M508.2,-104.68C482.83,-95.02 448.46,-81.95 426.07,-73.43"/>
<polygon fill="#63b8ff" stroke="#63b8ff" points="506.87,-108.3 517.46,-108.58 509.36,-101.75 506.87,-108.3"/>
</a>
</g>
</g>
<!-- Node10&#45;&gt;Node8 -->
<g id="edge18_Node000010_Node000008" class="edge">
<title>Node10&#45;&gt;Node8</title>
<g id="a_edge18_Node000010_Node000008"><a xlink:title=" ">
<path fill="none" stroke="#63b8ff" d="M496.71,-113.52C422.4,-107.03 268.52,-92.48 139.25,-73 136.39,-72.57 133.44,-72.09 130.48,-71.57"/>
<polygon fill="#63b8ff" stroke="#63b8ff" points="496.25,-117.08 506.51,-114.45 496.85,-110.11 496.25,-117.08"/>
</a>
</g>
</g>
<!-- Node10&#45;&gt;Node9 -->
<g id="edge20_Node000010_Node000009" class="edge">
<title>Node10&#45;&gt;Node9</title>
<g id="a_edge20_Node000010_Node000009"><a xlink:title=" ">
<path fill="none" stroke="#63b8ff" d="M496.74,-113.49C431.17,-107.51 304.95,-94.26 199.25,-73 196.5,-72.45 193.62,-71.78 190.79,-71.06"/>
<polygon fill="#63b8ff" stroke="#63b8ff" points="496.23,-117.05 506.5,-114.46 496.85,-110.08 496.23,-117.05"/>
</a>
</g>
</g>
<!-- Node11 -->
<g id="Node000011" class="node">
<title>Node11</title>
<g id="a_Node000011"><a xlink:href="a01904.html" target="_top" xlink:title=" ">
<polygon fill="white" stroke="#666666" points="779.38,-73 707.12,-73 707.12,-54.5 779.38,-54.5 779.38,-73"/>
<text text-anchor="middle" x="743.25" y="-59.5" font-family="Helvetica,sans-Serif" font-size="10.00">arax_accel.c</text>
</a>
</g>
</g>
<!-- Node10&#45;&gt;Node11 -->
<g id="edge12_Node000010_Node000011" class="edge">
<title>Node10&#45;&gt;Node11</title>
<g id="a_edge12_Node000010_Node000011"><a xlink:title=" ">
<path fill="none" stroke="#63b8ff" d="M585.22,-105.82C622.7,-96.08 675.76,-82.29 709.84,-73.43"/>
<polygon fill="#63b8ff" stroke="#63b8ff" points="584.4,-102.68 575.61,-108.58 586.17,-109.45 584.4,-102.68"/>
</a>
</g>
</g>
<!-- Node12 -->
<g id="Node000012" class="node">
<title>Node12</title>
<g id="a_Node000012"><a xlink:href="a01913.html" target="_top" xlink:title=" ">
<polygon fill="white" stroke="#666666" points="864.75,-73 797.75,-73 797.75,-54.5 864.75,-54.5 864.75,-73"/>
<text text-anchor="middle" x="831.25" y="-59.5" font-family="Helvetica,sans-Serif" font-size="10.00">arax_pipe.c</text>
</a>
</g>
</g>
<!-- Node10&#45;&gt;Node12 -->
<g id="edge15_Node000010_Node000012" class="edge">
<title>Node10&#45;&gt;Node12</title>
<g id="a_edge15_Node000010_Node000012"><a xlink:title=" ">
<path fill="none" stroke="#63b8ff" d="M585.88,-109.42C635.38,-100.71 717.57,-86.11 788.25,-73 791.24,-72.45 794.34,-71.86 797.46,-71.27"/>
<polygon fill="#63b8ff" stroke="#63b8ff" points="585.48,-106.12 576.23,-111.3 586.69,-113.01 585.48,-106.12"/>
</a>
</g>
</g>
<!-- Node13 -->
<g id="Node000013" class="node">
<title>Node13</title>
<g id="a_Node000013"><a xlink:href="a01940.html" target="_top" xlink:title=" ">
<polygon fill="white" stroke="#666666" points="947.25,-73 883.25,-73 883.25,-54.5 947.25,-54.5 947.25,-73"/>
<text text-anchor="middle" x="915.25" y="-59.5" font-family="Helvetica,sans-Serif" font-size="10.00">arax_plot.c</text>
</a>
</g>
</g>
<!-- Node10&#45;&gt;Node13 -->
<g id="edge16_Node000010_Node000013" class="edge">
<title>Node10&#45;&gt;Node13</title>
<g id="a_edge16_Node000010_Node000013"><a xlink:title=" ">
<path fill="none" stroke="#63b8ff" d="M585.81,-112.28C649.82,-104.93 771.41,-90.16 874.25,-73 877.11,-72.52 880.09,-71.99 883.06,-71.44"/>
<polygon fill="#63b8ff" stroke="#63b8ff" points="585.46,-108.91 575.92,-113.53 586.25,-115.87 585.46,-108.91"/>
</a>
</g>
</g>
<!-- Node14 -->
<g id="Node000014" class="node">
<title>Node14</title>
<g id="a_Node000014"><a xlink:href="a01919.html" target="_top" xlink:title=" ">
<polygon fill="white" stroke="#666666" points="556.38,-73 496.12,-73 496.12,-54.5 556.38,-54.5 556.38,-73"/>
<text text-anchor="middle" x="526.25" y="-59.5" font-family="Helvetica,sans-Serif" font-size="10.00">arax_ptr.c</text>
</a>
</g>
</g>
<!-- Node10&#45;&gt;Node14 -->
<g id="edge17_Node000010_Node000014" class="edge">
<title>Node10&#45;&gt;Node14</title>
<g id="a_edge17_Node000010_Node000014"><a xlink:title=" ">
<path fill="none" stroke="#63b8ff" d="M535.75,-98.01C533.32,-89.5 530.59,-79.94 528.68,-73.26"/>
<polygon fill="#63b8ff" stroke="#63b8ff" points="532.66,-98.93 538.77,-107.58 539.39,-97 532.66,-98.93"/>
</a>
</g>
</g>
<!-- Node15 -->
<g id="Node000015" class="node">
<title>Node15</title>
<g id="a_Node000015"><a xlink:href="a01928.html" target="_top" xlink:title=" ">
<polygon fill="white" stroke="#666666" points="651.62,-73 574.88,-73 574.88,-54.5 651.62,-54.5 651.62,-73"/>
<text text-anchor="middle" x="613.25" y="-59.5" font-family="Helvetica,sans-Serif" font-size="10.00">arax_vaccel.c</text>
</a>
</g>
</g>
<!-- Node10&#45;&gt;Node15 -->
<g id="edge19_Node000010_Node000015" class="edge">
<title>Node10&#45;&gt;Node15</title>
<g id="a_edge19_Node000010_Node000015"><a xlink:title=" ">
<path fill="none" stroke="#63b8ff" d="M561.83,-102.25C574.71,-92.85 590.86,-81.08 601.58,-73.26"/>
<polygon fill="#63b8ff" stroke="#63b8ff" points="560.16,-99.86 554.14,-108.58 564.28,-105.52 560.16,-99.86"/>
</a>
</g>
</g>
<!-- Node16&#45;&gt;Node3 -->
<g id="edge22_Node000016_Node000003" class="edge">
<title>Node16&#45;&gt;Node3</title>
<g id="a_edge22_Node000016_Node000003"><a xlink:title=" ">
<path fill="none" stroke="#63b8ff" d="M320.26,-134.06C306.69,-143.43 287.96,-155.21 273.96,-163.08"/>
<polygon fill="#63b8ff" stroke="#63b8ff" points="321.99,-136.42 328.09,-127.76 317.92,-130.72 321.99,-136.42"/>
</a>
</g>
</g>
<!-- Node17&#45;&gt;Node13 -->
<g id="edge26_Node000017_Node000013" class="edge">
<title>Node17&#45;&gt;Node13</title>
<g id="a_edge26_Node000017_Node000013"><a xlink:title=" ">
<path fill="none" stroke="#63b8ff" d="M633.19,-212.65C694.66,-180.42 847.84,-100.1 898.61,-73.48"/>
<polygon fill="#63b8ff" stroke="#63b8ff" points="632.04,-209.82 624.81,-217.57 635.29,-216.02 632.04,-209.82"/>
</a>
</g>
</g>
<!-- Node18&#45;&gt;Node7 -->
<g id="edge28_Node000018_Node000007" class="edge">
<title>Node18&#45;&gt;Node7</title>
<g id="a_edge28_Node000018_Node000007"><a xlink:title=" ">
<path fill="none" stroke="#63b8ff" d="M380,-207.04C382.17,-199.31 384.53,-190.28 386.25,-182 394.6,-141.72 400.28,-92.81 402.36,-73.34"/>
<polygon fill="#63b8ff" stroke="#63b8ff" points="376.39,-205.93 376.96,-216.51 383.11,-207.89 376.39,-205.93"/>
</a>
</g>
</g>
<!-- Node19 -->
<g id="Node000019" class="node">
<title>Node19</title>
<g id="a_Node000019"><a xlink:href="a01916.html" target="_top" xlink:title=" ">
<polygon fill="white" stroke="#666666" points="377.12,-182 309.38,-182 309.38,-163.5 377.12,-163.5 377.12,-182"/>
<text text-anchor="middle" x="343.25" y="-168.5" font-family="Helvetica,sans-Serif" font-size="10.00">arax_proc.c</text>
</a>
</g>
</g>
<!-- Node18&#45;&gt;Node19 -->
<g id="edge29_Node000018_Node000019" class="edge">
<title>Node18&#45;&gt;Node19</title>
<g id="a_edge29_Node000018_Node000019"><a xlink:title=" ">
<path fill="none" stroke="#63b8ff" d="M363.57,-208.16C358.38,-199.38 352.4,-189.24 348.27,-182.26"/>
<polygon fill="#63b8ff" stroke="#63b8ff" points="361.03,-209.75 369.13,-216.58 367.06,-206.19 361.03,-209.75"/>
</a>
</g>
</g>
<!-- Node20 -->
<g id="Node000020" class="node">
<title>Node20</title>
<g id="a_Node000020"><a xlink:href="a01412.html" target="_top" xlink:title=" ">
<polygon fill="white" stroke="#666666" points="508.12,-182 440.38,-182 440.38,-163.5 508.12,-163.5 508.12,-182"/>
<text text-anchor="middle" x="474.25" y="-168.5" font-family="Helvetica,sans-Serif" font-size="10.00">arax_task.h</text>
</a>
</g>
</g>
<!-- Node18&#45;&gt;Node20 -->
<g id="edge30_Node000018_Node000020" class="edge">
<title>Node18&#45;&gt;Node20</title>
<g id="a_edge30_Node000018_Node000020"><a xlink:title=" ">
<path fill="none" stroke="#63b8ff" d="M400.45,-212.5C418.57,-202.98 442.14,-190.61 457.71,-182.43"/>
<polygon fill="#63b8ff" stroke="#63b8ff" points="398.99,-209.83 391.76,-217.58 402.24,-216.03 398.99,-209.83"/>
</a>
</g>
</g>
<!-- Node20&#45;&gt;Node5 -->
<g id="edge31_Node000020_Node000005" class="edge">
<title>Node20&#45;&gt;Node5</title>
<g id="a_edge31_Node000020_Node000005"><a xlink:title=" ">
<path fill="none" stroke="#63b8ff" d="M473.56,-152.28C471.95,-127.97 466.65,-85.79 449.25,-54.5 441.07,-39.78 426.38,-26.94 415.8,-18.94"/>
<polygon fill="#63b8ff" stroke="#63b8ff" points="470.11,-152.39 474.11,-162.2 477.1,-152.04 470.11,-152.39"/>
</a>
</g>
</g>
<!-- Node20&#45;&gt;Node7 -->
<g id="edge32_Node000020_Node000007" class="edge">
<title>Node20&#45;&gt;Node7</title>
<g id="a_edge32_Node000020_Node000007"><a xlink:title=" ">
<path fill="none" stroke="#63b8ff" d="M462.66,-154.29C447.27,-131.08 420.65,-90.97 408.99,-73.4"/>
<polygon fill="#63b8ff" stroke="#63b8ff" points="460.23,-155.96 468.68,-162.35 466.07,-152.09 460.23,-155.96"/>
</a>
</g>
</g>
<!-- Node20&#45;&gt;Node10 -->
<g id="edge33_Node000020_Node000010" class="edge">
<title>Node20&#45;&gt;Node10</title>
<g id="a_edge33_Node000020_Node000010"><a xlink:title=" ">
<path fill="none" stroke="#63b8ff" d="M493.75,-156.47C505.68,-147.12 520.51,-135.5 530.39,-127.76"/>
<polygon fill="#63b8ff" stroke="#63b8ff" points="492.03,-154.16 486.31,-163.08 496.34,-159.67 492.03,-154.16"/>
</a>
</g>
</g>
<!-- Node21&#45;&gt;Node8 -->
<g id="edge38_Node000021_Node000008" class="edge">
<title>Node21&#45;&gt;Node8</title>
<g id="a_edge38_Node000021_Node000008"><a xlink:title=" ">
<path fill="none" stroke="#63b8ff" d="M96.25,-97.72C96.25,-89.29 96.25,-79.86 96.25,-73.26"/>
<polygon fill="#63b8ff" stroke="#63b8ff" points="92.75,-97.58 96.25,-107.58 99.75,-97.58 92.75,-97.58"/>
</a>
</g>
</g>
<!-- Node21&#45;&gt;Node9 -->
<g id="edge39_Node000021_Node000009" class="edge">
<title>Node21&#45;&gt;Node9</title>
<g id="a_edge39_Node000021_Node000009"><a xlink:title=" ">
<path fill="none" stroke="#63b8ff" d="M117.11,-102.25C130.18,-92.85 146.55,-81.08 157.42,-73.26"/>
<polygon fill="#63b8ff" stroke="#63b8ff" points="115.38,-99.9 109.3,-108.58 119.47,-105.58 115.38,-99.9"/>
</a>
</g>
</g>
<!-- Node22 -->
<g id="Node000022" class="node">
<title>Node22</title>
<g id="a_Node000022"><a xlink:href="a02340.html" target="_top" xlink:title=" ">
<polygon fill="white" stroke="#666666" points="44.5,-73 0,-73 0,-54.5 44.5,-54.5 44.5,-73"/>
<text text-anchor="middle" x="22.25" y="-59.5" font-family="Helvetica,sans-Serif" font-size="10.00">alloc.c</text>
</a>
</g>
</g>
<!-- Node21&#45;&gt;Node22 -->
<g id="edge37_Node000021_Node000022" class="edge">
<title>Node21&#45;&gt;Node22</title>
<g id="a_edge37_Node000021_Node000022"><a xlink:title=" ">
<path fill="none" stroke="#63b8ff" d="M75.16,-102.29C62,-92.95 45.53,-81.26 34.49,-73.43"/>
<polygon fill="#63b8ff" stroke="#63b8ff" points="72.85,-105.65 83.03,-108.58 76.9,-99.94 72.85,-105.65"/>
</a>
</g>
</g>
</g>
</svg>
