<?xml version="1.0" encoding="UTF-8" standalone="no"?>
<!DOCTYPE svg PUBLIC "-//W3C//DTD SVG 1.1//EN"
 "http://www.w3.org/Graphics/SVG/1.1/DTD/svg11.dtd">
<!-- Generated by graphviz version 8.0.5 (0)
 -->
<!-- Title: arax_data_input_init Pages: 1 -->
<svg width="1043pt" height="156pt"
 viewBox="0.00 0.00 1043.25 155.50" xmlns="http://www.w3.org/2000/svg" xmlns:xlink="http://www.w3.org/1999/xlink">
<g id="graph0" class="graph" transform="scale(1 1) rotate(0) translate(4 151.5)">
<title>arax_data_input_init</title>
<!-- Node1 -->
<g id="Node000001" class="node">
<title>Node1</title>
<g id="a_Node000001"><a xlink:title=" ">
<polygon fill="#999999" stroke="#666666" points="103.75,-36.5 0,-36.5 0,-18 103.75,-18 103.75,-36.5"/>
<text text-anchor="middle" x="51.88" y="-23" font-family="Helvetica,sans-Serif" font-size="10.00">arax_data_input_init</text>
</a>
</g>
</g>
<!-- Node2 -->
<g id="Node000002" class="node">
<title>Node2</title>
<g id="a_Node000002"><a xlink:href="a01931.html#a4b65f90a821aca384f0ca1cff7bd1846" target="_top" xlink:title=" ">
<polygon fill="white" stroke="#666666" points="265.25,-55.5 139.75,-55.5 139.75,-37 265.25,-37 265.25,-55.5"/>
<text text-anchor="middle" x="202.5" y="-42" font-family="Helvetica,sans-Serif" font-size="10.00">arax_data_migrate_accel</text>
</a>
</g>
</g>
<!-- Node1&#45;&gt;Node2 -->
<g id="edge1_Node000001_Node000002" class="edge">
<title>Node1&#45;&gt;Node2</title>
<g id="a_edge1_Node000001_Node000002"><a xlink:title=" ">
<path fill="none" stroke="#63b8ff" d="M104.02,-33.79C111.96,-34.8 120.3,-35.87 128.6,-36.93"/>
<polygon fill="#63b8ff" stroke="#63b8ff" points="128.12,-40.52 138.48,-38.32 129,-33.58 128.12,-40.52"/>
</a>
</g>
</g>
<!-- Node13 -->
<g id="Node000013" class="node">
<title>Node13</title>
<g id="a_Node000013"><a xlink:href="a01910.html#a9255b8011e6d7c9b28c7df40065efb28" target="_top" xlink:title=" ">
<polygon fill="white" stroke="#666666" points="412.5,-18.5 311,-18.5 311,0 412.5,0 412.5,-18.5"/>
<text text-anchor="middle" x="361.75" y="-5" font-family="Helvetica,sans-Serif" font-size="10.00">arax_object_ref_inc</text>
</a>
</g>
</g>
<!-- Node1&#45;&gt;Node13 -->
<g id="edge14_Node000001_Node000013" class="edge">
<title>Node1&#45;&gt;Node13</title>
<g id="a_edge14_Node000001_Node000013"><a xlink:title=" ">
<path fill="none" stroke="#63b8ff" d="M104.06,-24.26C157.95,-21.11 242.77,-16.15 300.01,-12.8"/>
<polygon fill="#63b8ff" stroke="#63b8ff" points="299.94,-16.25 309.72,-12.17 299.53,-9.26 299.94,-16.25"/>
</a>
</g>
</g>
<!-- Node3 -->
<g id="Node000003" class="node">
<title>Node3</title>
<g id="a_Node000003"><a xlink:href="a01910.html#afe7e4a63c40fbcaae742b8de8693483f" target="_top" xlink:title=" ">
<polygon fill="white" stroke="#666666" points="414,-92.5 309.5,-92.5 309.5,-74 414,-74 414,-92.5"/>
<text text-anchor="middle" x="361.75" y="-79" font-family="Helvetica,sans-Serif" font-size="10.00">arax_object_ref_dec</text>
</a>
</g>
</g>
<!-- Node2&#45;&gt;Node3 -->
<g id="edge2_Node000002_Node000003" class="edge">
<title>Node2&#45;&gt;Node3</title>
<g id="a_edge2_Node000002_Node000003"><a xlink:title=" ">
<path fill="none" stroke="#63b8ff" d="M244.82,-55.97C264.42,-60.58 288.05,-66.15 308.85,-71.04"/>
<polygon fill="#63b8ff" stroke="#63b8ff" points="307.9,-74.65 318.44,-73.53 309.51,-67.83 307.9,-74.65"/>
</a>
</g>
</g>
<!-- Node2&#45;&gt;Node13 -->
<g id="edge12_Node000002_Node000013" class="edge">
<title>Node2&#45;&gt;Node13</title>
<g id="a_edge12_Node000002_Node000013"><a xlink:title=" ">
<path fill="none" stroke="#63b8ff" d="M244.82,-36.53C264.42,-31.92 288.05,-26.35 308.85,-21.46"/>
<polygon fill="#63b8ff" stroke="#63b8ff" points="309.51,-24.67 318.44,-18.97 307.9,-17.85 309.51,-24.67"/>
</a>
</g>
</g>
<!-- Node14 -->
<g id="Node000014" class="node">
<title>Node14</title>
<g id="a_Node000014"><a xlink:href="a01910.html#a668fd893484b6e2d67d8b372b508d14f" target="_top" xlink:title=" ">
<polygon fill="white" stroke="#666666" points="422.25,-55.5 301.25,-55.5 301.25,-37 422.25,-37 422.25,-55.5"/>
<text text-anchor="middle" x="361.75" y="-42" font-family="Helvetica,sans-Serif" font-size="10.00">arax_object_type_to_str</text>
</a>
</g>
</g>
<!-- Node2&#45;&gt;Node14 -->
<g id="edge13_Node000002_Node000014" class="edge">
<title>Node2&#45;&gt;Node14</title>
<g id="a_edge13_Node000002_Node000014"><a xlink:title=" ">
<path fill="none" stroke="#63b8ff" d="M265.65,-46.25C273.62,-46.25 281.82,-46.25 289.91,-46.25"/>
<polygon fill="#63b8ff" stroke="#63b8ff" points="289.85,-49.75 299.85,-46.25 289.85,-42.75 289.85,-49.75"/>
</a>
</g>
</g>
<!-- Node4 -->
<g id="Node000004" class="node">
<title>Node4</title>
<g id="a_Node000004"><a xlink:href="a01913.html#a5144f906658718ef853a8d18dda1e724" target="_top" xlink:title=" ">
<polygon fill="white" stroke="#666666" points="557.5,-110.5 458.25,-110.5 458.25,-92 557.5,-92 557.5,-110.5"/>
<text text-anchor="middle" x="507.88" y="-97" font-family="Helvetica,sans-Serif" font-size="10.00">arax_pipe_size_inc</text>
</a>
</g>
</g>
<!-- Node3&#45;&gt;Node4 -->
<g id="edge3_Node000003_Node000004" class="edge">
<title>Node3&#45;&gt;Node4</title>
<g id="a_edge3_Node000003_Node000004"><a xlink:title=" ">
<path fill="none" stroke="#63b8ff" d="M414.38,-89.7C425.04,-91.03 436.35,-92.44 447.27,-93.81"/>
<polygon fill="#63b8ff" stroke="#63b8ff" points="446.66,-97.38 457.02,-95.15 447.53,-90.44 446.66,-97.38"/>
</a>
</g>
</g>
<!-- Node12 -->
<g id="Node000012" class="node">
<title>Node12</title>
<g id="a_Node000012"><a xlink:href="a01946.html#a0c85e5516222ab7e7fc354c614760ec5" target="_top" xlink:title=" ">
<polygon fill="white" stroke="#666666" points="542.88,-73.5 472.88,-73.5 472.88,-55 542.88,-55 542.88,-73.5"/>
<text text-anchor="middle" x="507.88" y="-60" font-family="Helvetica,sans-Serif" font-size="10.00">utils_list_del</text>
</a>
</g>
</g>
<!-- Node3&#45;&gt;Node12 -->
<g id="edge11_Node000003_Node000012" class="edge">
<title>Node3&#45;&gt;Node12</title>
<g id="a_edge11_Node000003_Node000012"><a xlink:title=" ">
<path fill="none" stroke="#63b8ff" d="M414.38,-76.44C429.97,-74.39 446.97,-72.15 462.08,-70.16"/>
<polygon fill="#63b8ff" stroke="#63b8ff" points="462.25,-73.53 471.71,-68.75 461.34,-66.59 462.25,-73.53"/>
</a>
</g>
</g>
<!-- Node5 -->
<g id="Node000005" class="node">
<title>Node5</title>
<g id="a_Node000005"><a xlink:href="a01925.html#a22aaf13eb56eb1832e725ef73236116f" target="_top" xlink:title=" ">
<polygon fill="white" stroke="#666666" points="704.75,-110.5 593.5,-110.5 593.5,-92 704.75,-92 704.75,-110.5"/>
<text text-anchor="middle" x="649.12" y="-97" font-family="Helvetica,sans-Serif" font-size="10.00">arax_throttle_size_inc</text>
</a>
</g>
</g>
<!-- Node4&#45;&gt;Node5 -->
<g id="edge4_Node000004_Node000005" class="edge">
<title>Node4&#45;&gt;Node5</title>
<g id="a_edge4_Node000004_Node000005"><a xlink:title=" ">
<path fill="none" stroke="#63b8ff" d="M557.97,-101.25C565.92,-101.25 574.26,-101.25 582.52,-101.25"/>
<polygon fill="#63b8ff" stroke="#63b8ff" points="582.31,-104.75 592.31,-101.25 582.31,-97.75 582.31,-104.75"/>
</a>
</g>
</g>
<!-- Node6 -->
<g id="Node000006" class="node">
<title>Node6</title>
<g id="a_Node000006"><a xlink:href="a02352.html#aed6af4d83e934e3e654ead541b15f2d9" target="_top" xlink:title=" ">
<polygon fill="white" stroke="#666666" points="855,-147.5 746,-147.5 746,-129 855,-129 855,-147.5"/>
<text text-anchor="middle" x="800.5" y="-134" font-family="Helvetica,sans-Serif" font-size="10.00">async_condition_lock</text>
</a>
</g>
</g>
<!-- Node5&#45;&gt;Node6 -->
<g id="edge5_Node000005_Node000006" class="edge">
<title>Node5&#45;&gt;Node6</title>
<g id="a_edge5_Node000005_Node000006"><a xlink:title=" ">
<path fill="none" stroke="#63b8ff" d="M689.37,-110.97C707.82,-115.54 730.03,-121.04 749.66,-125.9"/>
<polygon fill="#63b8ff" stroke="#63b8ff" points="748.71,-129.52 759.26,-128.53 750.39,-122.73 748.71,-129.52"/>
</a>
</g>
</g>
<!-- Node8 -->
<g id="Node000008" class="node">
<title>Node8</title>
<g id="a_Node000008"><a xlink:href="a02352.html#a45a896fb606c2aa66a5a4c2af59ce494" target="_top" xlink:title=" ">
<polygon fill="white" stroke="#666666" points="858,-110.5 743,-110.5 743,-92 858,-92 858,-110.5"/>
<text text-anchor="middle" x="800.5" y="-97" font-family="Helvetica,sans-Serif" font-size="10.00">async_condition_notify</text>
</a>
</g>
</g>
<!-- Node5&#45;&gt;Node8 -->
<g id="edge7_Node000005_Node000008" class="edge">
<title>Node5&#45;&gt;Node8</title>
<g id="a_edge7_Node000005_Node000008"><a xlink:title=" ">
<path fill="none" stroke="#63b8ff" d="M704.9,-101.25C713.66,-101.25 722.81,-101.25 731.83,-101.25"/>
<polygon fill="#63b8ff" stroke="#63b8ff" points="731.73,-104.75 741.73,-101.25 731.73,-97.75 731.73,-104.75"/>
</a>
</g>
</g>
<!-- Node10 -->
<g id="Node000010" class="node">
<title>Node10</title>
<g id="a_Node000010"><a xlink:href="a02352.html#a3bbcb7c4c024e99d5c4ba52b61dfbbf7" target="_top" xlink:title=" ">
<polygon fill="white" stroke="#666666" points="860.25,-73.5 740.75,-73.5 740.75,-55 860.25,-55 860.25,-73.5"/>
<text text-anchor="middle" x="800.5" y="-60" font-family="Helvetica,sans-Serif" font-size="10.00">async_condition_unlock</text>
</a>
</g>
</g>
<!-- Node5&#45;&gt;Node10 -->
<g id="edge9_Node000005_Node000010" class="edge">
<title>Node5&#45;&gt;Node10</title>
<g id="a_edge9_Node000005_Node000010"><a xlink:title=" ">
<path fill="none" stroke="#63b8ff" d="M689.37,-91.53C707.82,-86.96 730.03,-81.46 749.66,-76.6"/>
<polygon fill="#63b8ff" stroke="#63b8ff" points="750.39,-79.77 759.26,-73.97 748.71,-72.98 750.39,-79.77"/>
</a>
</g>
</g>
<!-- Node7 -->
<g id="Node000007" class="node">
<title>Node7</title>
<g id="a_Node000007"><a xlink:href="a02346.html#aebf9e72bb6cbd8b9e33489d46c25075d" target="_top" xlink:title=" ">
<polygon fill="white" stroke="#666666" points="1024,-147.5 907.5,-147.5 907.5,-129 1024,-129 1024,-147.5"/>
<text text-anchor="middle" x="965.75" y="-134" font-family="Helvetica,sans-Serif" font-size="10.00">async_completion_wait</text>
</a>
</g>
</g>
<!-- Node6&#45;&gt;Node7 -->
<g id="edge6_Node000006_Node000007" class="edge">
<title>Node6&#45;&gt;Node7</title>
<g id="a_edge6_Node000006_Node000007"><a xlink:title=" ">
<path fill="none" stroke="#63b8ff" d="M855.41,-138.25C868.52,-138.25 882.73,-138.25 896.41,-138.25"/>
<polygon fill="#63b8ff" stroke="#63b8ff" points="896.25,-141.75 906.25,-138.25 896.25,-134.75 896.25,-141.75"/>
</a>
</g>
</g>
<!-- Node9 -->
<g id="Node000009" class="node">
<title>Node9</title>
<g id="a_Node000009"><a xlink:href="a02346.html#a0fa370eee5160963e617d1daf1c07363" target="_top" xlink:title=" ">
<polygon fill="white" stroke="#666666" points="1022.12,-110.5 909.38,-110.5 909.38,-92 1022.12,-92 1022.12,-110.5"/>
<text text-anchor="middle" x="965.75" y="-97" font-family="Helvetica,sans-Serif" font-size="10.00">async_semaphore_inc</text>
</a>
</g>
</g>
<!-- Node8&#45;&gt;Node9 -->
<g id="edge8_Node000008_Node000009" class="edge">
<title>Node8&#45;&gt;Node9</title>
<g id="a_edge8_Node000008_Node000009"><a xlink:title=" ">
<path fill="none" stroke="#63b8ff" d="M858.14,-101.25C871.02,-101.25 884.81,-101.25 898.07,-101.25"/>
<polygon fill="#63b8ff" stroke="#63b8ff" points="898.04,-104.75 908.04,-101.25 898.04,-97.75 898.04,-104.75"/>
</a>
</g>
</g>
<!-- Node11 -->
<g id="Node000011" class="node">
<title>Node11</title>
<g id="a_Node000011"><a xlink:href="a02346.html#ad1d30ecbf6bff6457b680aa940281072" target="_top" xlink:title=" ">
<polygon fill="white" stroke="#666666" points="1035.25,-73.5 896.25,-73.5 896.25,-55 1035.25,-55 1035.25,-73.5"/>
<text text-anchor="middle" x="965.75" y="-60" font-family="Helvetica,sans-Serif" font-size="10.00">async_completion_complete</text>
</a>
</g>
</g>
<!-- Node10&#45;&gt;Node11 -->
<g id="edge10_Node000010_Node000011" class="edge">
<title>Node10&#45;&gt;Node11</title>
<g id="a_edge10_Node000010_Node000011"><a xlink:title=" ">
<path fill="none" stroke="#63b8ff" d="M860.44,-64.25C868.44,-64.25 876.76,-64.25 885.05,-64.25"/>
<polygon fill="#63b8ff" stroke="#63b8ff" points="884.9,-67.75 894.9,-64.25 884.9,-60.75 884.9,-67.75"/>
</a>
</g>
</g>
</g>
</svg>
