<?xml version="1.0" encoding="UTF-8" standalone="no"?>
<!DOCTYPE svg PUBLIC "-//W3C//DTD SVG 1.1//EN"
 "http://www.w3.org/Graphics/SVG/1.1/DTD/svg11.dtd">
<!-- Generated by graphviz version 12.2.1 (0)
 -->
<!-- Title: utils_config_get_bool Pages: 1 -->
<svg width="1056pt" height="77pt"
 viewBox="0.00 0.00 1056.25 77.48" xmlns="http://www.w3.org/2000/svg" xmlns:xlink="http://www.w3.org/1999/xlink">
<g id="graph0" class="graph" transform="scale(1 1) rotate(0) translate(4 73.48)">
<title>utils_config_get_bool</title>
<!-- Node1 -->
<g id="Node000001" class="node">
<title>Node1</title>
<g id="a_Node000001"><a xlink:title=" ">
<polygon fill="#999999" stroke="#666666" points="107.5,-36.5 0,-36.5 0,-18 107.5,-18 107.5,-36.5"/>
<text text-anchor="middle" x="53.75" y="-23" font-family="Helvetica,sans-Serif" font-size="10.00">utils_config_get_bool</text>
</a>
</g>
</g>
<!-- Node2 -->
<g id="Node000002" class="node">
<title>Node2</title>
<g id="a_Node000002"><a xlink:href="a01952.html#a336fa8eefc3d744aa7248d6786cfee03" target="_top" xlink:title=" ">
<polygon fill="white" stroke="#666666" points="243.5,-36.5 143.5,-36.5 143.5,-18 243.5,-18 243.5,-36.5"/>
<text text-anchor="middle" x="193.5" y="-23" font-family="Helvetica,sans-Serif" font-size="10.00">utils_config_get_int</text>
</a>
</g>
</g>
<!-- Node1&#45;&gt;Node2 -->
<g id="edge1_Node000001_Node000002" class="edge">
<title>Node1&#45;&gt;Node2</title>
<g id="a_edge1_Node000001_Node000002"><a xlink:title=" ">
<path fill="none" stroke="#63b8ff" d="M107.61,-27.25C115.56,-27.25 123.8,-27.25 131.89,-27.25"/>
<polygon fill="#63b8ff" stroke="#63b8ff" points="131.66,-30.75 141.66,-27.25 131.66,-23.75 131.66,-30.75"/>
</a>
</g>
</g>
<!-- Node3 -->
<g id="Node000003" class="node">
<title>Node3</title>
<g id="a_Node000003"><a xlink:href="a01952.html#a1a28ba7c7791236d03b1fa9f81aa6a71" target="_top" xlink:title=" ">
<polygon fill="white" stroke="#666666" points="387,-36.5 279.5,-36.5 279.5,-18 387,-18 387,-36.5"/>
<text text-anchor="middle" x="333.25" y="-23" font-family="Helvetica,sans-Serif" font-size="10.00">utils_config_get_long</text>
</a>
</g>
</g>
<!-- Node2&#45;&gt;Node3 -->
<g id="edge2_Node000002_Node000003" class="edge">
<title>Node2&#45;&gt;Node3</title>
<g id="a_edge2_Node000002_Node000003"><a xlink:title=" ">
<path fill="none" stroke="#63b8ff" d="M243.84,-27.25C251.61,-27.25 259.73,-27.25 267.78,-27.25"/>
<polygon fill="#63b8ff" stroke="#63b8ff" points="267.54,-30.75 277.54,-27.25 267.54,-23.75 267.54,-30.75"/>
</a>
</g>
</g>
<!-- Node4 -->
<g id="Node000004" class="node">
<title>Node4</title>
<g id="a_Node000004"><a xlink:href="a01952.html#a0738274ac3fd171eda6bfb42492bc0d7" target="_top" xlink:title=" ">
<polygon fill="white" stroke="#666666" points="681.12,-55.5 575.12,-55.5 575.12,-37 681.12,-37 681.12,-55.5"/>
<text text-anchor="middle" x="628.12" y="-42" font-family="Helvetica,sans-Serif" font-size="10.00">_utils_config_get_str</text>
</a>
</g>
</g>
<!-- Node3&#45;&gt;Node4 -->
<g id="edge3_Node000003_Node000004" class="edge">
<title>Node3&#45;&gt;Node4</title>
<g id="a_edge3_Node000003_Node000004"><a xlink:title=" ">
<path fill="none" stroke="#63b8ff" d="M387.29,-30.69C436.89,-33.91 511.03,-38.72 563.74,-42.14"/>
<polygon fill="#63b8ff" stroke="#63b8ff" points="563.26,-45.61 573.46,-42.77 563.71,-38.63 563.26,-45.61"/>
</a>
</g>
</g>
<!-- Node9 -->
<g id="Node000009" class="node">
<title>Node9</title>
<g id="a_Node000009"><a xlink:href="a01952.html#a88091e179416d4beec1b5681cfb68742" target="_top" xlink:title=" ">
<polygon fill="white" stroke="#666666" points="538,-18.5 423,-18.5 423,0 538,0 538,-18.5"/>
<text text-anchor="middle" x="480.5" y="-5" font-family="Helvetica,sans-Serif" font-size="10.00">utils_config_write_long</text>
</a>
</g>
</g>
<!-- Node3&#45;&gt;Node9 -->
<g id="edge9_Node000003_Node000009" class="edge">
<title>Node3&#45;&gt;Node9</title>
<g id="a_edge9_Node000003_Node000009"><a xlink:title=" ">
<path fill="none" stroke="#63b8ff" d="M387.1,-20.7C394.93,-19.73 403.09,-18.72 411.18,-17.72"/>
<polygon fill="#63b8ff" stroke="#63b8ff" points="411.53,-21.2 421.02,-16.5 410.67,-14.25 411.53,-21.2"/>
</a>
</g>
</g>
<!-- Node5 -->
<g id="Node000005" class="node">
<title>Node5</title>
<g id="a_Node000005"><a xlink:href="a01952.html#a8b687fb4c464903e23504eea3ddc3873" target="_top" xlink:title=" ">
<polygon fill="white" stroke="#666666" points="771.75,-55.5 718.25,-55.5 718.25,-37 771.75,-37 771.75,-55.5"/>
<text text-anchor="middle" x="745" y="-42" font-family="Helvetica,sans-Serif" font-size="10.00">conf_get</text>
</a>
</g>
</g>
<!-- Node4&#45;&gt;Node5 -->
<g id="edge4_Node000004_Node000005" class="edge">
<title>Node4&#45;&gt;Node5</title>
<g id="a_edge4_Node000004_Node000005"><a xlink:title=" ">
<path fill="none" stroke="#63b8ff" d="M681.52,-46.25C690.03,-46.25 698.69,-46.25 706.74,-46.25"/>
<polygon fill="#63b8ff" stroke="#63b8ff" points="706.5,-49.75 716.5,-46.25 706.5,-42.75 706.5,-49.75"/>
</a>
</g>
</g>
<!-- Node6 -->
<g id="Node000006" class="node">
<title>Node6</title>
<g id="a_Node000006"><a xlink:href="a01961.html#acde493d3889d6f207d1e122cf4bb1b8c" target="_top" xlink:title=" ">
<polygon fill="white" stroke="#666666" points="1048.25,-55.5 962.5,-55.5 962.5,-37 1048.25,-37 1048.25,-55.5"/>
<text text-anchor="middle" x="1005.38" y="-42" font-family="Helvetica,sans-Serif" font-size="10.00">system_env_var</text>
</a>
</g>
</g>
<!-- Node5&#45;&gt;Node6 -->
<g id="edge5_Node000005_Node000006" class="edge">
<title>Node5&#45;&gt;Node6</title>
<g id="a_edge5_Node000005_Node000006"><a xlink:title=" ">
<path fill="none" stroke="#63b8ff" d="M772.08,-55.63C782.96,-59.08 795.81,-62.55 807.75,-64.25 860,-71.71 874.06,-70.23 926.5,-64.25 937.13,-63.04 948.42,-60.92 959.01,-58.56"/>
<polygon fill="#63b8ff" stroke="#63b8ff" points="959.76,-61.98 968.69,-56.27 958.16,-55.16 959.76,-61.98"/>
</a>
</g>
</g>
<!-- Node7 -->
<g id="Node000007" class="node">
<title>Node7</title>
<g id="a_Node000007"><a xlink:href="a01961.html#a86c3bfbf6daaf8172e131aa23dc7393c" target="_top" xlink:title=" ">
<polygon fill="white" stroke="#666666" points="910.75,-55.5 823.5,-55.5 823.5,-37 910.75,-37 910.75,-55.5"/>
<text text-anchor="middle" x="867.12" y="-42" font-family="Helvetica,sans-Serif" font-size="10.00">system_file_size</text>
</a>
</g>
</g>
<!-- Node5&#45;&gt;Node7 -->
<g id="edge6_Node000005_Node000007" class="edge">
<title>Node5&#45;&gt;Node7</title>
<g id="a_edge6_Node000005_Node000007"><a xlink:title=" ">
<path fill="none" stroke="#63b8ff" d="M772.07,-46.25C783.71,-46.25 797.9,-46.25 811.68,-46.25"/>
<polygon fill="#63b8ff" stroke="#63b8ff" points="811.59,-49.75 821.59,-46.25 811.59,-42.75 811.59,-49.75"/>
</a>
</g>
</g>
<!-- Node8 -->
<g id="Node000008" class="node">
<title>Node8</title>
<g id="a_Node000008"><a xlink:href="a01952.html#a17713c8e9b90065e23b0ec1a225f79ab" target="_top" xlink:title=" ">
<polygon fill="white" stroke="#666666" points="926.5,-18.5 807.75,-18.5 807.75,0 926.5,0 926.5,-18.5"/>
<text text-anchor="middle" x="867.12" y="-5" font-family="Helvetica,sans-Serif" font-size="10.00">utils_config_get_source</text>
</a>
</g>
</g>
<!-- Node5&#45;&gt;Node8 -->
<g id="edge7_Node000005_Node000008" class="edge">
<title>Node5&#45;&gt;Node8</title>
<g id="a_edge7_Node000005_Node000008"><a xlink:title=" ">
<path fill="none" stroke="#63b8ff" d="M772.07,-38.22C787.12,-33.58 806.43,-27.64 823.63,-22.34"/>
<polygon fill="#63b8ff" stroke="#63b8ff" points="824.59,-25.71 833.11,-19.42 822.53,-19.02 824.59,-25.71"/>
</a>
</g>
</g>
<!-- Node8&#45;&gt;Node6 -->
<g id="edge8_Node000008_Node000006" class="edge">
<title>Node8&#45;&gt;Node6</title>
<g id="a_edge8_Node000008_Node000006"><a xlink:title=" ">
<path fill="none" stroke="#63b8ff" d="M903.92,-18.97C920.43,-23.45 940.23,-28.83 957.88,-33.62"/>
<polygon fill="#63b8ff" stroke="#63b8ff" points="956.79,-36.95 967.36,-36.2 958.62,-30.2 956.79,-36.95"/>
</a>
</g>
</g>
<!-- Node10 -->
<g id="Node000010" class="node">
<title>Node10</title>
<g id="a_Node000010"><a xlink:href="a01952.html#a4b9cd8f5d0c205ac6c1fd30f77cbf539" target="_top" xlink:title=" ">
<polygon fill="white" stroke="#666666" points="682.25,-18.5 574,-18.5 574,0 682.25,0 682.25,-18.5"/>
<text text-anchor="middle" x="628.12" y="-5" font-family="Helvetica,sans-Serif" font-size="10.00">utils_config_write_str</text>
</a>
</g>
</g>
<!-- Node9&#45;&gt;Node10 -->
<g id="edge10_Node000009_Node000010" class="edge">
<title>Node9&#45;&gt;Node10</title>
<g id="a_edge10_Node000009_Node000010"><a xlink:title=" ">
<path fill="none" stroke="#63b8ff" d="M538.22,-9.25C546.14,-9.25 554.34,-9.25 562.4,-9.25"/>
<polygon fill="#63b8ff" stroke="#63b8ff" points="562.15,-12.75 572.15,-9.25 562.15,-5.75 562.15,-12.75"/>
</a>
</g>
</g>
<!-- Node10&#45;&gt;Node5 -->
<g id="edge11_Node000010_Node000005" class="edge">
<title>Node10&#45;&gt;Node5</title>
<g id="a_edge11_Node000010_Node000005"><a xlink:title=" ">
<path fill="none" stroke="#63b8ff" d="M659.31,-18.97C673.96,-23.69 691.7,-29.41 707.15,-34.38"/>
<polygon fill="#63b8ff" stroke="#63b8ff" points="705.89,-37.65 716.48,-37.39 708.03,-30.99 705.89,-37.65"/>
</a>
</g>
</g>
<!-- Node11 -->
<g id="Node000011" class="node">
<title>Node11</title>
<g id="a_Node000011"><a xlink:href="a01952.html#ab87e9691e65d65348749f8dc70f24602" target="_top" xlink:title=" ">
<polygon fill="white" stroke="#666666" points="771.75,-18.5 718.25,-18.5 718.25,0 771.75,0 771.75,-18.5"/>
<text text-anchor="middle" x="745" y="-5" font-family="Helvetica,sans-Serif" font-size="10.00">conf_set</text>
</a>
</g>
</g>
<!-- Node10&#45;&gt;Node11 -->
<g id="edge12_Node000010_Node000011" class="edge">
<title>Node10&#45;&gt;Node11</title>
<g id="a_edge12_Node000010_Node000011"><a xlink:title=" ">
<path fill="none" stroke="#63b8ff" d="M682.53,-9.25C690.6,-9.25 698.78,-9.25 706.43,-9.25"/>
<polygon fill="#63b8ff" stroke="#63b8ff" points="706.4,-12.75 716.4,-9.25 706.4,-5.75 706.4,-12.75"/>
</a>
</g>
</g>
<!-- Node11&#45;&gt;Node8 -->
<g id="edge13_Node000011_Node000008" class="edge">
<title>Node11&#45;&gt;Node8</title>
<g id="a_edge13_Node000011_Node000008"><a xlink:title=" ">
<path fill="none" stroke="#63b8ff" d="M772.07,-9.25C779.36,-9.25 787.65,-9.25 796.21,-9.25"/>
<polygon fill="#63b8ff" stroke="#63b8ff" points="796.06,-12.75 806.06,-9.25 796.06,-5.75 796.06,-12.75"/>
</a>
</g>
</g>
</g>
</svg>
