<?xml version="1.0" encoding="UTF-8" standalone="no"?>
<!DOCTYPE svg PUBLIC "-//W3C//DTD SVG 1.1//EN"
 "http://www.w3.org/Graphics/SVG/1.1/DTD/svg11.dtd">
<!-- Generated by graphviz version 8.0.5 (0)
 -->
<!-- Title: system.h Pages: 1 -->
<svg width="372pt" height="81pt"
 viewBox="0.00 0.00 371.50 81.00" xmlns="http://www.w3.org/2000/svg" xmlns:xlink="http://www.w3.org/1999/xlink">
<g id="graph0" class="graph" transform="scale(1 1) rotate(0) translate(4 77)">
<title>system.h</title>
<!-- Node1 -->
<g id="Node000001" class="node">
<title>Node1</title>
<g id="a_Node000001"><a xlink:title=" ">
<polygon fill="#999999" stroke="#666666" points="232.5,-73 177.5,-73 177.5,-54.5 232.5,-54.5 232.5,-73"/>
<text text-anchor="middle" x="205" y="-59.5" font-family="Helvetica,sans-Serif" font-size="10.00">system.h</text>
</a>
</g>
</g>
<!-- Node2 -->
<g id="Node000002" class="node">
<title>Node2</title>
<g id="a_Node000002"><a xlink:href="a01937.html" target="_top" xlink:title=" ">
<polygon fill="white" stroke="#666666" points="76,-18.5 0,-18.5 0,0 76,0 76,-18.5"/>
<text text-anchor="middle" x="38" y="-5" font-family="Helvetica,sans-Serif" font-size="10.00">arax_assert.c</text>
</a>
</g>
</g>
<!-- Node1&#45;&gt;Node2 -->
<g id="edge1_Node000001_Node000002" class="edge">
<title>Node1&#45;&gt;Node2</title>
<g id="a_edge1_Node000001_Node000002"><a xlink:title=" ">
<path fill="none" stroke="#63b8ff" d="M167.04,-50.82C136.17,-41.11 93.31,-27.64 65.62,-18.93"/>
<polygon fill="#63b8ff" stroke="#63b8ff" points="165.83,-54.42 176.42,-54.08 167.93,-47.74 165.83,-54.42"/>
</a>
</g>
</g>
<!-- Node3 -->
<g id="Node000003" class="node">
<title>Node3</title>
<g id="a_Node000003"><a xlink:href="a01931.html" target="_top" xlink:title=" ">
<polygon fill="white" stroke="#666666" points="161.88,-18.5 94.12,-18.5 94.12,0 161.88,0 161.88,-18.5"/>
<text text-anchor="middle" x="128" y="-5" font-family="Helvetica,sans-Serif" font-size="10.00">arax_data.c</text>
</a>
</g>
</g>
<!-- Node1&#45;&gt;Node3 -->
<g id="edge2_Node000001_Node000003" class="edge">
<title>Node1&#45;&gt;Node3</title>
<g id="a_edge2_Node000001_Node000003"><a xlink:title=" ">
<path fill="none" stroke="#63b8ff" d="M183.45,-48.06C169.7,-38.68 152.33,-26.84 140.73,-18.93"/>
<polygon fill="#63b8ff" stroke="#63b8ff" points="181.05,-51.34 191.29,-54.08 184.99,-45.56 181.05,-51.34"/>
</a>
</g>
</g>
<!-- Node4 -->
<g id="Node000004" class="node">
<title>Node4</title>
<g id="a_Node000004"><a xlink:href="a01952.html" target="_top" xlink:title=" ">
<polygon fill="white" stroke="#666666" points="230.25,-18.5 179.75,-18.5 179.75,0 230.25,0 230.25,-18.5"/>
<text text-anchor="middle" x="205" y="-5" font-family="Helvetica,sans-Serif" font-size="10.00">config.c</text>
</a>
</g>
</g>
<!-- Node1&#45;&gt;Node4 -->
<g id="edge3_Node000001_Node000004" class="edge">
<title>Node1&#45;&gt;Node4</title>
<g id="a_edge3_Node000001_Node000004"><a xlink:title=" ">
<path fill="none" stroke="#63b8ff" d="M205,-43.22C205,-34.79 205,-25.36 205,-18.76"/>
<polygon fill="#63b8ff" stroke="#63b8ff" points="201.5,-43.08 205,-53.08 208.5,-43.08 201.5,-43.08"/>
</a>
</g>
</g>
<!-- Node5 -->
<g id="Node000005" class="node">
<title>Node5</title>
<g id="a_Node000005"><a xlink:href="a01898.html" target="_top" xlink:title=" ">
<polygon fill="white" stroke="#666666" points="290.12,-18.5 247.88,-18.5 247.88,0 290.12,0 290.12,-18.5"/>
<text text-anchor="middle" x="269" y="-5" font-family="Helvetica,sans-Serif" font-size="10.00">impl.c</text>
</a>
</g>
</g>
<!-- Node1&#45;&gt;Node5 -->
<g id="edge4_Node000001_Node000005" class="edge">
<title>Node1&#45;&gt;Node5</title>
<g id="a_edge4_Node000001_Node000005"><a xlink:title=" ">
<path fill="none" stroke="#63b8ff" d="M223.96,-47.2C235.3,-37.89 249.28,-26.43 258.63,-18.76"/>
<polygon fill="#63b8ff" stroke="#63b8ff" points="222.08,-45.03 216.57,-54.08 226.52,-50.44 222.08,-45.03"/>
</a>
</g>
</g>
<!-- Node6 -->
<g id="Node000006" class="node">
<title>Node6</title>
<g id="a_Node000006"><a xlink:href="a01955.html" target="_top" xlink:title=" ">
<polygon fill="white" stroke="#666666" points="363.5,-18.5 308.5,-18.5 308.5,0 363.5,0 363.5,-18.5"/>
<text text-anchor="middle" x="336" y="-5" font-family="Helvetica,sans-Serif" font-size="10.00">system.c</text>
</a>
</g>
</g>
<!-- Node1&#45;&gt;Node6 -->
<g id="edge5_Node000001_Node000006" class="edge">
<title>Node1&#45;&gt;Node6</title>
<g id="a_edge5_Node000001_Node000006"><a xlink:title=" ">
<path fill="none" stroke="#63b8ff" d="M236.7,-50.05C260.75,-40.41 293.18,-27.41 314.34,-18.93"/>
<polygon fill="#63b8ff" stroke="#63b8ff" points="235.61,-47.11 227.63,-54.08 238.22,-53.61 235.61,-47.11"/>
</a>
</g>
</g>
</g>
</svg>
