<?xml version="1.0" encoding="UTF-8" standalone="no"?>
<!DOCTYPE svg PUBLIC "-//W3C//DTD SVG 1.1//EN"
 "http://www.w3.org/Graphics/SVG/1.1/DTD/svg11.dtd">
<!-- Generated by graphviz version 12.2.1 (0)
 -->
<!-- Title: arch_alloc_allocate Pages: 1 -->
<svg width="1466pt" height="494pt"
 viewBox="0.00 0.00 1466.25 493.75" xmlns="http://www.w3.org/2000/svg" xmlns:xlink="http://www.w3.org/1999/xlink">
<g id="graph0" class="graph" transform="scale(1 1) rotate(0) translate(4 489.75)">
<title>arch_alloc_allocate</title>
<!-- Node1 -->
<g id="Node000001" class="node">
<title>Node1</title>
<g id="a_Node000001"><a xlink:title=" ">
<polygon fill="#999999" stroke="#666666" points="1458.25,-102.75 1359,-102.75 1359,-84.25 1458.25,-84.25 1458.25,-102.75"/>
<text text-anchor="middle" x="1408.62" y="-89.25" font-family="Helvetica,sans-Serif" font-size="10.00">arch_alloc_allocate</text>
</a>
</g>
</g>
<!-- Node2 -->
<g id="Node000002" class="node">
<title>Node2</title>
<g id="a_Node000002"><a xlink:href="a01925.html#a402bbd6fa197c2c48d527325e5e2cf5b" target="_top" xlink:title=" ">
<polygon fill="white" stroke="#666666" points="724.25,-342.75 619.75,-342.75 619.75,-324.25 724.25,-324.25 724.25,-342.75"/>
<text text-anchor="middle" x="672" y="-329.25" font-family="Helvetica,sans-Serif" font-size="10.00">arax_object_register</text>
</a>
</g>
</g>
<!-- Node1&#45;&gt;Node2 -->
<g id="edge1_Node000001_Node000002" class="edge">
<title>Node1&#45;&gt;Node2</title>
<g id="a_edge1_Node000001_Node000002"><a xlink:title=" ">
<path fill="none" stroke="#63b8ff" d="M1396.67,-113.19C1363.16,-170.56 1255.84,-333.5 1118.12,-333.5 1118.12,-333.5 1118.12,-333.5 962.5,-333.5 879.19,-333.5 782.4,-333.5 724.51,-333.5"/>
<polygon fill="#63b8ff" stroke="#63b8ff" points="1399.71,-114.94 1401.63,-104.52 1393.63,-111.47 1399.71,-114.94"/>
</a>
</g>
</g>
<!-- Node20 -->
<g id="Node000020" class="node">
<title>Node20</title>
<g id="a_Node000020"><a xlink:href="a01925.html#a6c73bee66b4cb5a64d949b6fbbd64498" target="_top" xlink:title=" ">
<polygon fill="white" stroke="#666666" points="1317.38,-65.75 1212.88,-65.75 1212.88,-47.25 1317.38,-47.25 1317.38,-65.75"/>
<text text-anchor="middle" x="1265.12" y="-52.25" font-family="Helvetica,sans-Serif" font-size="10.00">arax_object_rename</text>
</a>
</g>
</g>
<!-- Node1&#45;&gt;Node20 -->
<g id="edge21_Node000001_Node000020" class="edge">
<title>Node1&#45;&gt;Node20</title>
<g id="a_edge21_Node000001_Node000020"><a xlink:title=" ">
<path fill="none" stroke="#63b8ff" d="M1359.33,-80.87C1340.92,-76.06 1320.24,-70.65 1303.05,-66.16"/>
<polygon fill="#63b8ff" stroke="#63b8ff" points="1358.42,-84.25 1368.98,-83.4 1360.19,-77.48 1358.42,-84.25"/>
</a>
</g>
</g>
<!-- Node21 -->
<g id="Node000021" class="node">
<title>Node21</title>
<g id="a_Node000021"><a xlink:href="a01946.html#a8a99bcb12e2ee55d68a029bfca9b6d51" target="_top" xlink:title=" ">
<polygon fill="white" stroke="#666666" points="572.5,-105 478.5,-105 478.5,-76 572.5,-76 572.5,-105"/>
<text text-anchor="start" x="486.5" y="-91.5" font-family="Helvetica,sans-Serif" font-size="10.00">arax_plot_register</text>
<text text-anchor="middle" x="525.5" y="-81" font-family="Helvetica,sans-Serif" font-size="10.00">_metric</text>
</a>
</g>
</g>
<!-- Node1&#45;&gt;Node21 -->
<g id="edge22_Node000001_Node000021" class="edge">
<title>Node1&#45;&gt;Node21</title>
<g id="a_edge22_Node000001_Node000021"><a xlink:title=" ">
<path fill="none" stroke="#63b8ff" d="M1347.45,-93.5C1288.89,-93.5 1197.4,-93.5 1118.12,-93.5 1118.12,-93.5 1118.12,-93.5 811.88,-93.5 727.65,-93.5 629.44,-92.18 572.96,-91.29"/>
<polygon fill="#63b8ff" stroke="#63b8ff" points="1347.19,-97 1357.19,-93.5 1347.19,-90 1347.19,-97"/>
</a>
</g>
</g>
<!-- Node22 -->
<g id="Node000022" class="node">
<title>Node22</title>
<g id="a_Node000022"><a xlink:href="a02355.html#a32b9155cb5133ef21023a1ff4653bf04" target="_top" xlink:title=" ">
<polygon fill="white" stroke="#666666" points="1321.88,-29 1208.38,-29 1208.38,0 1321.88,0 1321.88,-29"/>
<text text-anchor="start" x="1216.38" y="-15.5" font-family="Helvetica,sans-Serif" font-size="10.00">arch_alloc_create_sub</text>
<text text-anchor="middle" x="1265.12" y="-5" font-family="Helvetica,sans-Serif" font-size="10.00">_alloc</text>
</a>
</g>
</g>
<!-- Node1&#45;&gt;Node22 -->
<g id="edge23_Node000001_Node000022" class="edge">
<title>Node1&#45;&gt;Node22</title>
<g id="a_edge23_Node000001_Node000022"><a xlink:title=" ">
<path fill="none" stroke="#63b8ff" d="M1385.34,-77.46C1368.65,-65.83 1345,-50.17 1323,-38.5 1317.04,-35.34 1310.56,-32.27 1304.19,-29.46"/>
<polygon fill="#63b8ff" stroke="#63b8ff" points="1382.87,-80 1393.06,-82.9 1386.91,-74.28 1382.87,-80"/>
</a>
</g>
</g>
<!-- Node23 -->
<g id="Node000023" class="node">
<title>Node23</title>
<g id="a_Node000023"><a xlink:href="a02364.html#a7ab7c7fe9cb93434dde72a4e464a7e69" target="_top" xlink:title=" ">
<polygon fill="white" stroke="#666666" points="1323,-174.75 1207.25,-174.75 1207.25,-156.25 1323,-156.25 1323,-174.75"/>
<text text-anchor="middle" x="1265.12" y="-161.25" font-family="Helvetica,sans-Serif" font-size="10.00">async_semaphore_dec</text>
</a>
</g>
</g>
<!-- Node1&#45;&gt;Node23 -->
<g id="edge24_Node000001_Node000023" class="edge">
<title>Node1&#45;&gt;Node23</title>
<g id="a_edge24_Node000001_Node000023"><a xlink:title=" ">
<path fill="none" stroke="#63b8ff" d="M1378.52,-108.31C1350.46,-122.59 1308.84,-143.77 1284.91,-155.94"/>
<polygon fill="#63b8ff" stroke="#63b8ff" points="1379.87,-111.55 1387.19,-103.9 1376.69,-105.31 1379.87,-111.55"/>
</a>
</g>
</g>
<!-- Node3 -->
<g id="Node000003" class="node">
<title>Node3</title>
<g id="a_Node000003"><a xlink:href="a01916.html#a0706a66a62ca8710342ac1c097b703ed" target="_top" xlink:title=" ">
<polygon fill="white" stroke="#666666" points="410.62,-485.75 328.62,-485.75 328.62,-467.25 410.62,-467.25 410.62,-485.75"/>
<text text-anchor="middle" x="369.62" y="-472.25" font-family="Helvetica,sans-Serif" font-size="10.00">arax_accel_init</text>
</a>
</g>
</g>
<!-- Node2&#45;&gt;Node3 -->
<g id="edge2_Node000002_Node000003" class="edge">
<title>Node2&#45;&gt;Node3</title>
<g id="a_edge2_Node000002_Node000003"><a xlink:title=" ">
<path fill="none" stroke="#63b8ff" d="M659.09,-352.41C644.01,-374.7 615.9,-411.15 582.25,-430.5 528.31,-461.52 455.66,-471.66 411.04,-474.95"/>
<polygon fill="#63b8ff" stroke="#63b8ff" points="661.86,-354.56 664.41,-344.28 656.01,-350.73 661.86,-354.56"/>
</a>
</g>
</g>
<!-- Node4 -->
<g id="Node000004" class="node">
<title>Node4</title>
<g id="a_Node000004"><a xlink:href="a01922.html#a526989df37e605824d846b7ba54b43ea" target="_top" xlink:title=" ">
<polygon fill="white" stroke="#666666" points="582.25,-374.75 468.75,-374.75 468.75,-356.25 582.25,-356.25 582.25,-374.75"/>
<text text-anchor="middle" x="525.5" y="-361.25" font-family="Helvetica,sans-Serif" font-size="10.00">arax_data_init_aligned</text>
</a>
</g>
</g>
<!-- Node2&#45;&gt;Node4 -->
<g id="edge3_Node000002_Node000004" class="edge">
<title>Node2&#45;&gt;Node4</title>
<g id="a_edge3_Node000002_Node000004"><a xlink:title=" ">
<path fill="none" stroke="#63b8ff" d="M616.36,-345.6C601.07,-348.99 584.66,-352.62 570.1,-355.85"/>
<polygon fill="#63b8ff" stroke="#63b8ff" points="616.77,-349.09 625.78,-343.52 615.26,-342.26 616.77,-349.09"/>
</a>
</g>
</g>
<!-- Node7 -->
<g id="Node000007" class="node">
<title>Node7</title>
<g id="a_Node000007"><a xlink:href="a01931.html#a86ac572ea8f5f613129192c47d598818" target="_top" xlink:title=" ">
<polygon fill="white" stroke="#666666" points="564.25,-337.75 486.75,-337.75 486.75,-319.25 564.25,-319.25 564.25,-337.75"/>
<text text-anchor="middle" x="525.5" y="-324.25" font-family="Helvetica,sans-Serif" font-size="10.00">arax_proc_init</text>
</a>
</g>
</g>
<!-- Node2&#45;&gt;Node7 -->
<g id="edge6_Node000002_Node000007" class="edge">
<title>Node2&#45;&gt;Node7</title>
<g id="a_edge6_Node000002_Node000007"><a xlink:title=" ">
<path fill="none" stroke="#63b8ff" d="M608.38,-331.33C593.44,-330.82 577.95,-330.28 564.51,-329.82"/>
<polygon fill="#63b8ff" stroke="#63b8ff" points="608.02,-334.82 618.14,-331.67 608.26,-327.83 608.02,-334.82"/>
</a>
</g>
</g>
<!-- Node9 -->
<g id="Node000009" class="node">
<title>Node9</title>
<g id="a_Node000009"><a xlink:href="a01937.html#a27bee94f7a23281c8b2b72ec433f6059" target="_top" xlink:title=" ">
<polygon fill="white" stroke="#666666" points="568,-300.75 483,-300.75 483,-282.25 568,-282.25 568,-300.75"/>
<text text-anchor="middle" x="525.5" y="-287.25" font-family="Helvetica,sans-Serif" font-size="10.00">arax_task_alloc</text>
</a>
</g>
</g>
<!-- Node2&#45;&gt;Node9 -->
<g id="edge8_Node000002_Node000009" class="edge">
<title>Node2&#45;&gt;Node9</title>
<g id="a_edge8_Node000002_Node000009"><a xlink:title=" ">
<path fill="none" stroke="#63b8ff" d="M626.63,-320.6C605.11,-314.35 579.68,-306.96 559.83,-301.19"/>
<polygon fill="#63b8ff" stroke="#63b8ff" points="625.45,-323.91 636.03,-323.34 627.41,-317.18 625.45,-323.91"/>
</a>
</g>
</g>
<!-- Node17 -->
<g id="Node000017" class="node">
<title>Node17</title>
<g id="a_Node000017"><a xlink:href="a01943.html#a83ddb422946cf774c687c1ab63dcda15" target="_top" xlink:title=" ">
<polygon fill="white" stroke="#666666" points="568.75,-421.75 482.25,-421.75 482.25,-403.25 568.75,-403.25 568.75,-421.75"/>
<text text-anchor="middle" x="525.5" y="-408.25" font-family="Helvetica,sans-Serif" font-size="10.00">arax_vaccel_init</text>
</a>
</g>
</g>
<!-- Node2&#45;&gt;Node17 -->
<g id="edge17_Node000002_Node000017" class="edge">
<title>Node2&#45;&gt;Node17</title>
<g id="a_edge17_Node000002_Node000017"><a xlink:title=" ">
<path fill="none" stroke="#63b8ff" d="M644.82,-348.55C627.21,-358.6 603.44,-372.02 582.25,-383.5 570.07,-390.1 556.25,-397.29 545.42,-402.86"/>
<polygon fill="#63b8ff" stroke="#63b8ff" points="646.15,-351.82 653.09,-343.82 642.68,-345.75 646.15,-351.82"/>
</a>
</g>
</g>
<!-- Node5 -->
<g id="Node000005" class="node">
<title>Node5</title>
<g id="a_Node000005"><a xlink:href="a01922.html#aeefe449d4a278e9fc4b9c5f7e31000a1" target="_top" xlink:title=" ">
<polygon fill="white" stroke="#666666" points="408.38,-374.75 330.88,-374.75 330.88,-356.25 408.38,-356.25 408.38,-374.75"/>
<text text-anchor="middle" x="369.62" y="-361.25" font-family="Helvetica,sans-Serif" font-size="10.00">arax_data_init</text>
</a>
</g>
</g>
<!-- Node4&#45;&gt;Node5 -->
<g id="edge4_Node000004_Node000005" class="edge">
<title>Node4&#45;&gt;Node5</title>
<g id="a_edge4_Node000004_Node000005"><a xlink:title=" ">
<path fill="none" stroke="#63b8ff" d="M457.12,-365.5C440.48,-365.5 423.22,-365.5 408.54,-365.5"/>
<polygon fill="#63b8ff" stroke="#63b8ff" points="457,-369 467,-365.5 457,-362 457,-369"/>
</a>
</g>
</g>
<!-- Node6 -->
<g id="Node000006" class="node">
<title>Node6</title>
<g id="a_Node000006"><a xlink:href="a02190.html#ga9260ad2dd766aec3274c518e2e312b1f" target="_top" xlink:title=" ">
<polygon fill="white" stroke="#666666" points="249.12,-411.75 159.62,-411.75 159.62,-393.25 249.12,-393.25 249.12,-411.75"/>
<text text-anchor="middle" x="204.38" y="-398.25" font-family="Helvetica,sans-Serif" font-size="10.00">ARAX_BUFFER</text>
</a>
</g>
</g>
<!-- Node5&#45;&gt;Node6 -->
<g id="edge5_Node000005_Node000006" class="edge">
<title>Node5&#45;&gt;Node6</title>
<g id="a_edge5_Node000005_Node000006"><a xlink:title=" ">
<path fill="none" stroke="#63b8ff" d="M319.63,-376.6C296.9,-381.76 270.13,-387.82 248.21,-392.79"/>
<polygon fill="#63b8ff" stroke="#63b8ff" points="320.31,-380.04 329.29,-374.42 318.76,-373.21 320.31,-380.04"/>
</a>
</g>
</g>
<!-- Node8 -->
<g id="Node000008" class="node">
<title>Node8</title>
<g id="a_Node000008"><a xlink:href="a02188.html#gafad2dafb4a231390f02b7c866295b7d9" target="_top" xlink:title=" ">
<polygon fill="white" stroke="#666666" points="418.12,-337.75 321.12,-337.75 321.12,-319.25 418.12,-319.25 418.12,-337.75"/>
<text text-anchor="middle" x="369.62" y="-324.25" font-family="Helvetica,sans-Serif" font-size="10.00">arax_proc_register</text>
</a>
</g>
</g>
<!-- Node7&#45;&gt;Node8 -->
<g id="edge7_Node000007_Node000008" class="edge">
<title>Node7&#45;&gt;Node8</title>
<g id="a_edge7_Node000007_Node000008"><a xlink:title=" ">
<path fill="none" stroke="#63b8ff" d="M475.2,-328.5C457.02,-328.5 436.47,-328.5 418.42,-328.5"/>
<polygon fill="#63b8ff" stroke="#63b8ff" points="474.95,-332 484.95,-328.5 474.95,-325 474.95,-332"/>
</a>
</g>
</g>
<!-- Node10 -->
<g id="Node000010" class="node">
<title>Node10</title>
<g id="a_Node000010"><a xlink:href="a02189.html#gac9f0f3fbb14da879d3ff09bd367bbb24" target="_top" xlink:title=" ">
<polygon fill="white" stroke="#666666" points="413.62,-300.75 325.62,-300.75 325.62,-282.25 413.62,-282.25 413.62,-300.75"/>
<text text-anchor="middle" x="369.62" y="-287.25" font-family="Helvetica,sans-Serif" font-size="10.00">arax_task_issue</text>
</a>
</g>
</g>
<!-- Node9&#45;&gt;Node10 -->
<g id="edge9_Node000009_Node000010" class="edge">
<title>Node9&#45;&gt;Node10</title>
<g id="a_edge9_Node000009_Node000010"><a xlink:title=" ">
<path fill="none" stroke="#63b8ff" d="M471.48,-291.5C452.69,-291.5 431.79,-291.5 413.91,-291.5"/>
<polygon fill="#63b8ff" stroke="#63b8ff" points="471.35,-295 481.35,-291.5 471.35,-288 471.35,-295"/>
</a>
</g>
</g>
<!-- Node11 -->
<g id="Node000011" class="node">
<title>Node11</title>
<g id="a_Node000011"><a xlink:href="a01922.html#af8ede6fc8d207004035f45d945688d2c" target="_top" xlink:title=" ">
<polygon fill="white" stroke="#666666" points="253.62,-227 155.12,-227 155.12,-198 253.62,-198 253.62,-227"/>
<text text-anchor="start" x="163.12" y="-213.5" font-family="Helvetica,sans-Serif" font-size="10.00">arax_data_allocate</text>
<text text-anchor="middle" x="204.38" y="-203" font-family="Helvetica,sans-Serif" font-size="10.00">_remote</text>
</a>
</g>
</g>
<!-- Node10&#45;&gt;Node11 -->
<g id="edge10_Node000010_Node000011" class="edge">
<title>Node10&#45;&gt;Node11</title>
<g id="a_edge10_Node000010_Node000011"><a xlink:title=" ">
<path fill="none" stroke="#63b8ff" d="M339.74,-276.62C329.2,-271.07 317.24,-264.63 306.5,-258.5 290.21,-249.21 287.38,-244.67 270.5,-236.5 263.88,-233.3 256.72,-230.26 249.65,-227.49"/>
<polygon fill="#63b8ff" stroke="#63b8ff" points="337.88,-279.6 348.36,-281.13 341.12,-273.39 337.88,-279.6"/>
</a>
</g>
</g>
<!-- Node12 -->
<g id="Node000012" class="node">
<title>Node12</title>
<g id="a_Node000012"><a xlink:href="a01922.html#a696bc4319d0f6c6baa7d797a8df6b56f" target="_top" xlink:title=" ">
<polygon fill="white" stroke="#666666" points="243.5,-300.75 165.25,-300.75 165.25,-282.25 243.5,-282.25 243.5,-300.75"/>
<text text-anchor="middle" x="204.38" y="-287.25" font-family="Helvetica,sans-Serif" font-size="10.00">arax_data_get</text>
</a>
</g>
</g>
<!-- Node10&#45;&gt;Node12 -->
<g id="edge11_Node000010_Node000012" class="edge">
<title>Node10&#45;&gt;Node12</title>
<g id="a_edge11_Node000010_Node000012"><a xlink:title=" ">
<path fill="none" stroke="#63b8ff" d="M313.97,-291.5C290.99,-291.5 264.79,-291.5 243.88,-291.5"/>
<polygon fill="#63b8ff" stroke="#63b8ff" points="313.79,-295 323.79,-291.5 313.79,-288 313.79,-295"/>
</a>
</g>
</g>
<!-- Node14 -->
<g id="Node000014" class="node">
<title>Node14</title>
<g id="a_Node000014"><a xlink:href="a01922.html#a8995f71dba475975efc37756783cfce9" target="_top" xlink:title=" ">
<polygon fill="white" stroke="#666666" points="243.5,-263.75 165.25,-263.75 165.25,-245.25 243.5,-245.25 243.5,-263.75"/>
<text text-anchor="middle" x="204.38" y="-250.25" font-family="Helvetica,sans-Serif" font-size="10.00">arax_data_set</text>
</a>
</g>
</g>
<!-- Node10&#45;&gt;Node14 -->
<g id="edge13_Node000010_Node000014" class="edge">
<title>Node10&#45;&gt;Node14</title>
<g id="a_edge13_Node000010_Node000014"><a xlink:title=" ">
<path fill="none" stroke="#63b8ff" d="M314.66,-279.27C291.49,-274.02 264.93,-268 243.8,-263.21"/>
<polygon fill="#63b8ff" stroke="#63b8ff" points="313.73,-282.65 324.26,-281.44 315.28,-275.82 313.73,-282.65"/>
</a>
</g>
</g>
<!-- Node15 -->
<g id="Node000015" class="node">
<title>Node15</title>
<g id="a_Node000015"><a xlink:href="a01922.html#af735744d0f8bec04394639a841d2ba0f" target="_top" xlink:title=" ">
<polygon fill="white" stroke="#666666" points="270.5,-374.75 138.25,-374.75 138.25,-356.25 270.5,-356.25 270.5,-374.75"/>
<text text-anchor="middle" x="204.38" y="-361.25" font-family="Helvetica,sans-Serif" font-size="10.00">ARAX_OBJ_DTOR_DECL</text>
</a>
</g>
</g>
<!-- Node10&#45;&gt;Node15 -->
<g id="edge15_Node000010_Node000015" class="edge">
<title>Node10&#45;&gt;Node15</title>
<g id="a_edge15_Node000010_Node000015"><a xlink:title=" ">
<path fill="none" stroke="#63b8ff" d="M316.43,-305.34C312.99,-306.9 309.64,-308.61 306.5,-310.5 287.11,-322.15 289.97,-334.97 270.5,-346.5 264.12,-350.28 256.93,-353.35 249.72,-355.83"/>
<polygon fill="#63b8ff" stroke="#63b8ff" points="317.58,-308.65 325.57,-301.7 314.98,-302.15 317.58,-308.65"/>
</a>
</g>
</g>
<!-- Node16 -->
<g id="Node000016" class="node">
<title>Node16</title>
<g id="a_Node000016"><a xlink:href="a02189.html#ga1418f4cd7336bf77cce7b955a1bf7077" target="_top" xlink:title=" ">
<polygon fill="white" stroke="#666666" points="261.12,-337.75 147.62,-337.75 147.62,-319.25 261.12,-319.25 261.12,-337.75"/>
<text text-anchor="middle" x="204.38" y="-324.25" font-family="Helvetica,sans-Serif" font-size="10.00">arax_task_issue_sync</text>
</a>
</g>
</g>
<!-- Node10&#45;&gt;Node16 -->
<g id="edge16_Node000010_Node000016" class="edge">
<title>Node10&#45;&gt;Node16</title>
<g id="a_edge16_Node000010_Node000016"><a xlink:title=" ">
<path fill="none" stroke="#63b8ff" d="M314.75,-303.71C293.15,-308.61 268.62,-314.17 248.26,-318.78"/>
<polygon fill="#63b8ff" stroke="#63b8ff" points="315.28,-307.18 324.26,-301.56 313.73,-300.35 315.28,-307.18"/>
</a>
</g>
</g>
<!-- Node13 -->
<g id="Node000013" class="node">
<title>Node13</title>
<g id="a_Node000013"><a xlink:href="a01922.html#a7d8356bd5c8b6a8d7dffc6ba94cc22e5" target="_top" xlink:title=" ">
<polygon fill="white" stroke="#666666" points="102.25,-281.75 0,-281.75 0,-263.25 102.25,-263.25 102.25,-281.75"/>
<text text-anchor="middle" x="51.12" y="-268.25" font-family="Helvetica,sans-Serif" font-size="10.00">arax_data_memcpy</text>
</a>
</g>
</g>
<!-- Node12&#45;&gt;Node13 -->
<g id="edge12_Node000012_Node000013" class="edge">
<title>Node12&#45;&gt;Node13</title>
<g id="a_edge12_Node000012_Node000013"><a xlink:title=" ">
<path fill="none" stroke="#63b8ff" d="M153.79,-285.27C137.38,-283.21 119.1,-280.91 102.61,-278.84"/>
<polygon fill="#63b8ff" stroke="#63b8ff" points="152.96,-288.69 163.32,-286.47 153.83,-281.75 152.96,-288.69"/>
</a>
</g>
</g>
<!-- Node14&#45;&gt;Node13 -->
<g id="edge14_Node000014_Node000013" class="edge">
<title>Node14&#45;&gt;Node13</title>
<g id="a_edge14_Node000014_Node000013"><a xlink:title=" ">
<path fill="none" stroke="#63b8ff" d="M153.79,-260.4C137.38,-262.35 119.1,-264.53 102.61,-266.49"/>
<polygon fill="#63b8ff" stroke="#63b8ff" points="153.8,-263.92 163.31,-259.27 152.97,-256.97 153.8,-263.92"/>
</a>
</g>
</g>
<!-- Node17&#45;&gt;Node3 -->
<g id="edge20_Node000017_Node000003" class="edge">
<title>Node17&#45;&gt;Node3</title>
<g id="a_edge20_Node000017_Node000003"><a xlink:title=" ">
<path fill="none" stroke="#63b8ff" d="M496.89,-427.47C478.95,-436.85 454.85,-448.76 432.75,-457.5 424.15,-460.9 414.68,-464.07 405.79,-466.81"/>
<polygon fill="#63b8ff" stroke="#63b8ff" points="498.41,-430.63 505.61,-422.86 495.13,-424.45 498.41,-430.63"/>
</a>
</g>
</g>
<!-- Node18 -->
<g id="Node000018" class="node">
<title>Node18</title>
<g id="a_Node000018"><a xlink:href="a02187.html#gaf8a10ab4e51e59c464ab3ab473e4a0f7" target="_top" xlink:title=" ">
<polygon fill="white" stroke="#666666" points="432.75,-448.75 306.5,-448.75 306.5,-430.25 432.75,-430.25 432.75,-448.75"/>
<text text-anchor="middle" x="369.62" y="-435.25" font-family="Helvetica,sans-Serif" font-size="10.00">arax_accel_acquire_phys</text>
</a>
</g>
</g>
<!-- Node17&#45;&gt;Node18 -->
<g id="edge18_Node000017_Node000018" class="edge">
<title>Node17&#45;&gt;Node18</title>
<g id="a_edge18_Node000017_Node000018"><a xlink:title=" ">
<path fill="none" stroke="#63b8ff" d="M470.72,-421.94C456.22,-424.48 440.51,-427.24 425.92,-429.8"/>
<polygon fill="#63b8ff" stroke="#63b8ff" points="471.31,-425.39 480.55,-420.21 470.1,-418.49 471.31,-425.39"/>
</a>
</g>
</g>
<!-- Node19 -->
<g id="Node000019" class="node">
<title>Node19</title>
<g id="a_Node000019"><a xlink:href="a02187.html#ga008252bb9afc2990fa2c5f4b980c9f27" target="_top" xlink:title=" ">
<polygon fill="white" stroke="#666666" points="432,-411.75 307.25,-411.75 307.25,-393.25 432,-393.25 432,-411.75"/>
<text text-anchor="middle" x="369.62" y="-398.25" font-family="Helvetica,sans-Serif" font-size="10.00">arax_accel_acquire_type</text>
</a>
</g>
</g>
<!-- Node17&#45;&gt;Node19 -->
<g id="edge19_Node000017_Node000019" class="edge">
<title>Node17&#45;&gt;Node19</title>
<g id="a_edge19_Node000017_Node000019"><a xlink:title=" ">
<path fill="none" stroke="#63b8ff" d="M470.89,-409.02C458.41,-408.2 445.03,-407.34 432.24,-406.5"/>
<polygon fill="#63b8ff" stroke="#63b8ff" points="470.33,-412.49 480.54,-409.64 470.78,-405.5 470.33,-412.49"/>
</a>
</g>
</g>
<!-- Node24 -->
<g id="Node000024" class="node">
<title>Node24</title>
<g id="a_Node000024"><a xlink:href="a02364.html#a1bfeaeb9b81855e640d7a67cc9d92b17" target="_top" xlink:title=" ">
<polygon fill="white" stroke="#666666" points="1171.25,-203.75 1063,-203.75 1063,-185.25 1171.25,-185.25 1171.25,-203.75"/>
<text text-anchor="middle" x="1117.12" y="-190.25" font-family="Helvetica,sans-Serif" font-size="10.00">async_condition_wait</text>
</a>
</g>
</g>
<!-- Node23&#45;&gt;Node24 -->
<g id="edge25_Node000023_Node000024" class="edge">
<title>Node23&#45;&gt;Node24</title>
<g id="a_edge25_Node000023_Node000024"><a xlink:title=" ">
<path fill="none" stroke="#63b8ff" d="M1203.93,-177.46C1191.55,-179.92 1178.67,-182.47 1166.77,-184.84"/>
<polygon fill="#63b8ff" stroke="#63b8ff" points="1204.49,-180.91 1213.62,-175.53 1203.13,-174.05 1204.49,-180.91"/>
</a>
</g>
</g>
<!-- Node25 -->
<g id="Node000025" class="node">
<title>Node25</title>
<g id="a_Node000025"><a xlink:href="a01910.html#a02fd608f651d254148dc74f0ae371dfe" target="_top" xlink:title=" ">
<polygon fill="white" stroke="#666666" points="992.88,-166.75 934.12,-166.75 934.12,-148.25 992.88,-148.25 992.88,-166.75"/>
<text text-anchor="middle" x="963.5" y="-153.25" font-family="Helvetica,sans-Serif" font-size="10.00">_arax_init</text>
</a>
</g>
</g>
<!-- Node24&#45;&gt;Node25 -->
<g id="edge26_Node000024_Node000025" class="edge">
<title>Node24&#45;&gt;Node25</title>
<g id="a_edge26_Node000024_Node000025"><a xlink:title=" ">
<path fill="none" stroke="#63b8ff" d="M1065.19,-182.07C1041.15,-176.2 1013.35,-169.42 993.06,-164.47"/>
<polygon fill="#63b8ff" stroke="#63b8ff" points="1064.27,-185.45 1074.82,-184.42 1065.93,-178.65 1064.27,-185.45"/>
</a>
</g>
</g>
<!-- Node32 -->
<g id="Node000032" class="node">
<title>Node32</title>
<g id="a_Node000032"><a xlink:href="a01916.html#a415e79d6e82e45f24bcd1742c146a0da" target="_top" xlink:title=" ">
<polygon fill="white" stroke="#666666" points="1027,-305.75 900,-305.75 900,-287.25 1027,-287.25 1027,-305.75"/>
<text text-anchor="middle" x="963.5" y="-292.25" font-family="Helvetica,sans-Serif" font-size="10.00">arax_accel_wait_for_task</text>
</a>
</g>
</g>
<!-- Node24&#45;&gt;Node32 -->
<g id="edge36_Node000024_Node000032" class="edge">
<title>Node24&#45;&gt;Node32</title>
<g id="a_edge36_Node000024_Node000032"><a xlink:title=" ">
<path fill="none" stroke="#63b8ff" d="M1101.42,-212.77C1085.14,-231.83 1057.18,-261.29 1027,-278.5 1021.21,-281.8 1014.77,-284.53 1008.29,-286.79"/>
<polygon fill="#63b8ff" stroke="#63b8ff" points="1103.96,-215.2 1107.66,-205.27 1098.58,-210.72 1103.96,-215.2"/>
</a>
</g>
</g>
<!-- Node33 -->
<g id="Node000033" class="node">
<title>Node33</title>
<g id="a_Node000033"><a xlink:href="a01928.html#a8ff14a859f9b7a34676c2fcdb762386b" target="_top" xlink:title=" ">
<polygon fill="white" stroke="#666666" points="1019.88,-269 907.12,-269 907.12,-240 1019.88,-240 1019.88,-269"/>
<text text-anchor="start" x="915.12" y="-255.5" font-family="Helvetica,sans-Serif" font-size="10.00">arax_pipe_get_orphan</text>
<text text-anchor="middle" x="963.5" y="-245" font-family="Helvetica,sans-Serif" font-size="10.00">_vaccel</text>
</a>
</g>
</g>
<!-- Node24&#45;&gt;Node33 -->
<g id="edge37_Node000024_Node000033" class="edge">
<title>Node24&#45;&gt;Node33</title>
<g id="a_edge37_Node000024_Node000033"><a xlink:title=" ">
<path fill="none" stroke="#63b8ff" d="M1082.03,-208.43C1065.45,-215.17 1045.21,-223.33 1027,-230.5 1019.43,-233.48 1011.33,-236.63 1003.55,-239.62"/>
<polygon fill="#63b8ff" stroke="#63b8ff" points="1082.99,-211.82 1090.94,-204.81 1080.35,-205.34 1082.99,-211.82"/>
</a>
</g>
</g>
<!-- Node34 -->
<g id="Node000034" class="node">
<title>Node34</title>
<g id="a_Node000034"><a xlink:href="a01940.html#a63b80783cfb3106ec4169ce082f153c0" target="_top" xlink:title=" ">
<polygon fill="white" stroke="#666666" points="1020.62,-203.75 906.38,-203.75 906.38,-185.25 1020.62,-185.25 1020.62,-203.75"/>
<text text-anchor="middle" x="963.5" y="-190.25" font-family="Helvetica,sans-Serif" font-size="10.00">arax_throttle_size_dec</text>
</a>
</g>
</g>
<!-- Node24&#45;&gt;Node34 -->
<g id="edge38_Node000024_Node000034" class="edge">
<title>Node24&#45;&gt;Node34</title>
<g id="a_edge38_Node000024_Node000034"><a xlink:title=" ">
<path fill="none" stroke="#63b8ff" d="M1051.42,-194.5C1041.33,-194.5 1030.97,-194.5 1021.07,-194.5"/>
<polygon fill="#63b8ff" stroke="#63b8ff" points="1051.15,-198 1061.15,-194.5 1051.15,-191 1051.15,-198"/>
</a>
</g>
</g>
<!-- Node26 -->
<g id="Node000026" class="node">
<title>Node26</title>
<g id="a_Node000026"><a xlink:href="a01910.html#aa6e4832b06bd5757be4502d2de7b3026" target="_top" xlink:title=" ">
<polygon fill="white" stroke="#666666" points="862.12,-205 763.62,-205 763.62,-176 862.12,-176 862.12,-205"/>
<text text-anchor="start" x="771.62" y="-191.5" font-family="Helvetica,sans-Serif" font-size="10.00">arax_controller_init</text>
<text text-anchor="middle" x="812.88" y="-181" font-family="Helvetica,sans-Serif" font-size="10.00">_start</text>
</a>
</g>
</g>
<!-- Node25&#45;&gt;Node26 -->
<g id="edge27_Node000025_Node000026" class="edge">
<title>Node25&#45;&gt;Node26</title>
<g id="a_edge27_Node000025_Node000026"><a xlink:title=" ">
<path fill="none" stroke="#63b8ff" d="M922.81,-166.31C904.22,-170.44 881.91,-175.39 862.33,-179.74"/>
<polygon fill="#63b8ff" stroke="#63b8ff" points="923.36,-169.78 932.37,-164.19 921.85,-162.94 923.36,-169.78"/>
</a>
</g>
</g>
<!-- Node27 -->
<g id="Node000027" class="node">
<title>Node27</title>
<g id="a_Node000027"><a xlink:href="a02186.html#gae1d371a2840849690acce147e7a205da" target="_top" xlink:title=" ">
<polygon fill="white" stroke="#666666" points="839.62,-157.75 786.12,-157.75 786.12,-139.25 839.62,-139.25 839.62,-157.75"/>
<text text-anchor="middle" x="812.88" y="-144.25" font-family="Helvetica,sans-Serif" font-size="10.00">arax_init</text>
</a>
</g>
</g>
<!-- Node25&#45;&gt;Node27 -->
<g id="edge28_Node000025_Node000027" class="edge">
<title>Node25&#45;&gt;Node27</title>
<g id="a_edge28_Node000025_Node000027"><a xlink:title=" ">
<path fill="none" stroke="#63b8ff" d="M922.38,-155.07C896.19,-153.48 862.74,-151.46 839.95,-150.08"/>
<polygon fill="#63b8ff" stroke="#63b8ff" points="922.14,-158.56 932.33,-155.67 922.56,-151.58 922.14,-158.56"/>
</a>
</g>
</g>
<!-- Node27&#45;&gt;Node21 -->
<g id="edge29_Node000027_Node000021" class="edge">
<title>Node27&#45;&gt;Node21</title>
<g id="a_edge29_Node000027_Node000021"><a xlink:title=" ">
<path fill="none" stroke="#63b8ff" d="M774.82,-140.97C723.1,-130.46 629.3,-111.39 572.97,-99.94"/>
<polygon fill="#63b8ff" stroke="#63b8ff" points="773.81,-144.34 784.31,-142.9 775.21,-137.48 773.81,-144.34"/>
</a>
</g>
</g>
<!-- Node28 -->
<g id="Node000028" class="node">
<title>Node28</title>
<g id="a_Node000028"><a xlink:href="a01934.html#a80ab3bf4a8af9bb101b5a53248609771" target="_top" xlink:title=" ">
<polygon fill="white" stroke="#666666" points="710.38,-177.75 633.62,-177.75 633.62,-159.25 710.38,-159.25 710.38,-177.75"/>
<text text-anchor="middle" x="672" y="-164.25" font-family="Helvetica,sans-Serif" font-size="10.00">arax_ptr_valid</text>
</a>
</g>
</g>
<!-- Node27&#45;&gt;Node28 -->
<g id="edge30_Node000027_Node000028" class="edge">
<title>Node27&#45;&gt;Node28</title>
<g id="a_edge30_Node000027_Node000028"><a xlink:title=" ">
<path fill="none" stroke="#63b8ff" d="M774.42,-153.89C754.7,-156.73 730.58,-160.21 710.8,-163.06"/>
<polygon fill="#63b8ff" stroke="#63b8ff" points="774.86,-157.37 784.26,-152.48 773.86,-150.44 774.86,-157.37"/>
</a>
</g>
</g>
<!-- Node28&#45;&gt;Node21 -->
<g id="edge35_Node000028_Node000021" class="edge">
<title>Node28&#45;&gt;Node21</title>
<g id="a_edge35_Node000028_Node000021"><a xlink:title=" ">
<path fill="none" stroke="#63b8ff" d="M635.44,-154.25C629.59,-151.55 623.67,-148.59 618.25,-145.5 601.11,-135.72 599.05,-129.86 582.25,-119.5 574.26,-114.58 565.35,-109.69 557.04,-105.37"/>
<polygon fill="#63b8ff" stroke="#63b8ff" points="633.83,-157.36 644.39,-158.19 636.65,-150.95 633.83,-157.36"/>
</a>
</g>
</g>
<!-- Node29 -->
<g id="Node000029" class="node">
<title>Node29</title>
<g id="a_Node000029"><a xlink:href="a01967.html#a4ee1fea325d2edd421f59ab240dfbe54" target="_top" xlink:title=" ">
<polygon fill="white" stroke="#666666" points="571.38,-179.75 479.62,-179.75 479.62,-161.25 571.38,-161.25 571.38,-179.75"/>
<text text-anchor="middle" x="525.5" y="-166.25" font-family="Helvetica,sans-Serif" font-size="10.00">_arax_assert_obj</text>
</a>
</g>
</g>
<!-- Node28&#45;&gt;Node29 -->
<g id="edge31_Node000028_Node000029" class="edge">
<title>Node28&#45;&gt;Node29</title>
<g id="a_edge31_Node000028_Node000029"><a xlink:title=" ">
<path fill="none" stroke="#63b8ff" d="M621.92,-169.18C605.63,-169.4 587.59,-169.65 571.62,-169.88"/>
<polygon fill="#63b8ff" stroke="#63b8ff" points="621.95,-172.68 631.9,-169.04 621.85,-165.68 621.95,-172.68"/>
</a>
</g>
</g>
<!-- Node30 -->
<g id="Node000030" class="node">
<title>Node30</title>
<g id="a_Node000030"><a xlink:href="a01922.html#afeaab7d93372f0752d59c70d9c5940e7" target="_top" xlink:title=" ">
<polygon fill="white" stroke="#666666" points="563.5,-216.75 487.5,-216.75 487.5,-198.25 563.5,-198.25 563.5,-216.75"/>
<text text-anchor="middle" x="525.5" y="-203.25" font-family="Helvetica,sans-Serif" font-size="10.00">arax_data_ref</text>
</a>
</g>
</g>
<!-- Node28&#45;&gt;Node30 -->
<g id="edge32_Node000028_Node000030" class="edge">
<title>Node28&#45;&gt;Node30</title>
<g id="a_edge32_Node000028_Node000030"><a xlink:title=" ">
<path fill="none" stroke="#63b8ff" d="M623.8,-181.24C603.74,-186.65 580.73,-192.86 562.13,-197.88"/>
<polygon fill="#63b8ff" stroke="#63b8ff" points="624.71,-184.62 633.45,-178.64 622.88,-177.86 624.71,-184.62"/>
</a>
</g>
</g>
<!-- Node31 -->
<g id="Node000031" class="node">
<title>Node31</title>
<g id="a_Node000031"><a xlink:href="a01922.html#ac1f7fb20b3a23b388bea24f1b46a33a8" target="_top" xlink:title=" ">
<polygon fill="white" stroke="#666666" points="422.25,-179.75 317,-179.75 317,-161.25 422.25,-161.25 422.25,-179.75"/>
<text text-anchor="middle" x="369.62" y="-166.25" font-family="Helvetica,sans-Serif" font-size="10.00">arax_data_ref_offset</text>
</a>
</g>
</g>
<!-- Node28&#45;&gt;Node31 -->
<g id="edge34_Node000028_Node000031" class="edge">
<title>Node28&#45;&gt;Node31</title>
<g id="a_edge34_Node000028_Node000031"><a xlink:title=" ">
<path fill="none" stroke="#63b8ff" d="M622.17,-158.08C609.25,-155.77 595.28,-153.66 582.25,-152.5 532.01,-148.01 518.99,-147.93 468.75,-152.5 450.64,-154.15 430.88,-157.47 413.87,-160.82"/>
<polygon fill="#63b8ff" stroke="#63b8ff" points="621.24,-161.47 631.71,-159.87 622.52,-154.59 621.24,-161.47"/>
</a>
</g>
</g>
<!-- Node30&#45;&gt;Node31 -->
<g id="edge33_Node000030_Node000031" class="edge">
<title>Node30&#45;&gt;Node31</title>
<g id="a_edge33_Node000030_Node000031"><a xlink:title=" ">
<path fill="none" stroke="#63b8ff" d="M476.31,-195.91C455.34,-190.87 431.04,-185.03 411.04,-180.22"/>
<polygon fill="#63b8ff" stroke="#63b8ff" points="475.24,-199.25 485.78,-198.19 476.87,-192.45 475.24,-199.25"/>
</a>
</g>
</g>
<!-- Node34&#45;&gt;Node34 -->
<g id="edge45_Node000034_Node000034" class="edge">
<title>Node34&#45;&gt;Node34</title>
<g id="a_edge45_Node000034_Node000034"><a xlink:title=" ">
<path fill="none" stroke="#63b8ff" d="M990.61,-214.78C987.6,-218.84 978.56,-221.75 963.5,-221.75 936.73,-221.75 928.99,-212.57 940.28,-204"/>
<polygon fill="#63b8ff" stroke="#63b8ff" points="993.92,-213.64 987.23,-205.42 987.34,-216.01 993.92,-213.64"/>
</a>
</g>
</g>
<!-- Node35 -->
<g id="Node000035" class="node">
<title>Node35</title>
<g id="a_Node000035"><a xlink:href="a01916.html#a9c8e53aad4b86498a6b709c35c156fc3" target="_top" xlink:title=" ">
<polygon fill="white" stroke="#666666" points="725.75,-250.75 618.25,-250.75 618.25,-232.25 725.75,-232.25 725.75,-250.75"/>
<text text-anchor="middle" x="672" y="-237.25" font-family="Helvetica,sans-Serif" font-size="10.00">arax_accel_size_dec</text>
</a>
</g>
</g>
<!-- Node34&#45;&gt;Node35 -->
<g id="edge39_Node000034_Node000035" class="edge">
<title>Node34&#45;&gt;Node35</title>
<g id="a_edge39_Node000034_Node000035"><a xlink:title=" ">
<path fill="none" stroke="#63b8ff" d="M906.6,-206.45C892.71,-209.26 877.84,-212.12 864,-214.5 817.63,-222.48 764.63,-229.83 726.24,-234.84"/>
<polygon fill="#63b8ff" stroke="#63b8ff" points="906.91,-209.96 916.01,-204.53 905.51,-203.11 906.91,-209.96"/>
</a>
</g>
</g>
<!-- Node36 -->
<g id="Node000036" class="node">
<title>Node36</title>
<g id="a_Node000036"><a xlink:href="a01928.html#a6cc54ee40009c61b5f6526f5edff004f" target="_top" xlink:title=" ">
<polygon fill="white" stroke="#666666" points="864,-286.75 761.75,-286.75 761.75,-268.25 864,-268.25 864,-286.75"/>
<text text-anchor="middle" x="812.88" y="-273.25" font-family="Helvetica,sans-Serif" font-size="10.00">arax_pipe_size_dec</text>
</a>
</g>
</g>
<!-- Node34&#45;&gt;Node36 -->
<g id="edge42_Node000034_Node000036" class="edge">
<title>Node34&#45;&gt;Node36</title>
<g id="a_edge42_Node000034_Node000036"><a xlink:title=" ">
<path fill="none" stroke="#63b8ff" d="M936.6,-209.81C908.66,-226.32 867.65,-250.52 864,-252.5 854.26,-257.79 843.25,-263.33 834.04,-267.84"/>
<polygon fill="#63b8ff" stroke="#63b8ff" points="938.08,-213 944.91,-204.9 934.52,-206.98 938.08,-213"/>
</a>
</g>
</g>
<!-- Node35&#45;&gt;Node11 -->
<g id="edge41_Node000035_Node000011" class="edge">
<title>Node35&#45;&gt;Node11</title>
<g id="a_edge41_Node000035_Node000011"><a xlink:title=" ">
<path fill="none" stroke="#63b8ff" d="M606.66,-237.49C512.34,-231.62 338.57,-220.8 254.07,-215.53"/>
<polygon fill="#63b8ff" stroke="#63b8ff" points="606.33,-240.98 616.53,-238.11 606.77,-233.99 606.33,-240.98"/>
</a>
</g>
</g>
<!-- Node35&#45;&gt;Node35 -->
<g id="edge40_Node000035_Node000035" class="edge">
<title>Node35&#45;&gt;Node35</title>
<g id="a_edge40_Node000035_Node000035"><a xlink:title=" ">
<path fill="none" stroke="#63b8ff" d="M697.36,-261.78C694.54,-265.84 686.08,-268.75 672,-268.75 646.96,-268.75 639.72,-259.57 650.29,-251"/>
<polygon fill="#63b8ff" stroke="#63b8ff" points="700.71,-260.78 694.2,-252.43 694.08,-263.02 700.71,-260.78"/>
</a>
</g>
</g>
<!-- Node36&#45;&gt;Node2 -->
<g id="edge43_Node000036_Node000002" class="edge">
<title>Node36&#45;&gt;Node2</title>
<g id="a_edge43_Node000036_Node000002"><a xlink:title=" ">
<path fill="none" stroke="#63b8ff" d="M777.5,-291.36C752.48,-301.45 719.24,-314.86 697.03,-323.81"/>
<polygon fill="#63b8ff" stroke="#63b8ff" points="778.63,-294.68 786.6,-287.69 776.01,-288.19 778.63,-294.68"/>
</a>
</g>
</g>
<!-- Node36&#45;&gt;Node36 -->
<g id="edge44_Node000036_Node000036" class="edge">
<title>Node36&#45;&gt;Node36</title>
<g id="a_edge44_Node000036_Node000036"><a xlink:title=" ">
<path fill="none" stroke="#63b8ff" d="M838.23,-297.78C835.41,-301.84 826.96,-304.75 812.88,-304.75 787.84,-304.75 780.6,-295.57 791.16,-287"/>
<polygon fill="#63b8ff" stroke="#63b8ff" points="841.59,-296.78 835.07,-288.43 834.96,-299.02 841.59,-296.78"/>
</a>
</g>
</g>
</g>
</svg>
