<?xml version="1.0" encoding="UTF-8" standalone="no"?>
<!DOCTYPE svg PUBLIC "-//W3C//DTD SVG 1.1//EN"
 "http://www.w3.org/Graphics/SVG/1.1/DTD/svg11.dtd">
<!-- Generated by graphviz version 8.0.5 (0)
 -->
<!-- Title: _arax_assert Pages: 1 -->
<svg width="336pt" height="27pt"
 viewBox="0.00 0.00 335.75 26.50" xmlns="http://www.w3.org/2000/svg" xmlns:xlink="http://www.w3.org/1999/xlink">
<g id="graph0" class="graph" transform="scale(1 1) rotate(0) translate(4 22.5)">
<title>_arax_assert</title>
<!-- Node1 -->
<g id="Node000001" class="node">
<title>Node1</title>
<g id="a_Node000001"><a xlink:title=" ">
<polygon fill="#999999" stroke="#666666" points="73.75,-18.5 0,-18.5 0,0 73.75,0 73.75,-18.5"/>
<text text-anchor="middle" x="36.88" y="-5" font-family="Helvetica,sans-Serif" font-size="10.00">_arax_assert</text>
</a>
</g>
</g>
<!-- Node2 -->
<g id="Node000002" class="node">
<title>Node2</title>
<g id="a_Node000002"><a xlink:href="a01955.html#a086232272942235166bf349ef7aacf9d" target="_top" xlink:title=" ">
<polygon fill="white" stroke="#666666" points="204.5,-18.5 109.75,-18.5 109.75,0 204.5,0 204.5,-18.5"/>
<text text-anchor="middle" x="157.12" y="-5" font-family="Helvetica,sans-Serif" font-size="10.00">system_backtrace</text>
</a>
</g>
</g>
<!-- Node1&#45;&gt;Node2 -->
<g id="edge1_Node000001_Node000002" class="edge">
<title>Node1&#45;&gt;Node2</title>
<g id="a_edge1_Node000001_Node000002"><a xlink:title=" ">
<path fill="none" stroke="#63b8ff" d="M74,-9.25C81.74,-9.25 90.11,-9.25 98.44,-9.25"/>
<polygon fill="#63b8ff" stroke="#63b8ff" points="98.32,-12.75 108.32,-9.25 98.32,-5.75 98.32,-12.75"/>
</a>
</g>
</g>
<!-- Node3 -->
<g id="Node000003" class="node">
<title>Node3</title>
<g id="a_Node000003"><a xlink:href="a01955.html#a08a7dc8cdb641981a0b564f046dfeb6a" target="_top" xlink:title=" ">
<polygon fill="white" stroke="#666666" points="327.75,-18.5 240.5,-18.5 240.5,0 327.75,0 327.75,-18.5"/>
<text text-anchor="middle" x="284.12" y="-5" font-family="Helvetica,sans-Serif" font-size="10.00">formatStackLine</text>
</a>
</g>
</g>
<!-- Node2&#45;&gt;Node3 -->
<g id="edge2_Node000002_Node000003" class="edge">
<title>Node2&#45;&gt;Node3</title>
<g id="a_edge2_Node000002_Node000003"><a xlink:title=" ">
<path fill="none" stroke="#63b8ff" d="M204.67,-9.25C212.69,-9.25 221.08,-9.25 229.27,-9.25"/>
<polygon fill="#63b8ff" stroke="#63b8ff" points="229.26,-12.75 239.26,-9.25 229.26,-5.75 229.26,-12.75"/>
</a>
</g>
</g>
</g>
</svg>
