<?xml version="1.0" encoding="UTF-8" standalone="no"?>
<!DOCTYPE svg PUBLIC "-//W3C//DTD SVG 1.1//EN"
 "http://www.w3.org/Graphics/SVG/1.1/DTD/svg11.dtd">
<!-- Generated by graphviz version 8.0.5 (0)
 -->
<!-- Title: utils_config_get_int Pages: 1 -->
<svg width="913pt" height="77pt"
 viewBox="0.00 0.00 912.75 77.48" xmlns="http://www.w3.org/2000/svg" xmlns:xlink="http://www.w3.org/1999/xlink">
<g id="graph0" class="graph" transform="scale(1 1) rotate(0) translate(4 73.48)">
<title>utils_config_get_int</title>
<!-- Node1 -->
<g id="Node000001" class="node">
<title>Node1</title>
<g id="a_Node000001"><a xlink:title=" ">
<polygon fill="#999999" stroke="#666666" points="100,-36.5 0,-36.5 0,-18 100,-18 100,-36.5"/>
<text text-anchor="middle" x="50" y="-23" font-family="Helvetica,sans-Serif" font-size="10.00">utils_config_get_int</text>
</a>
</g>
</g>
<!-- Node2 -->
<g id="Node000002" class="node">
<title>Node2</title>
<g id="a_Node000002"><a xlink:href="a01952.html#a1a28ba7c7791236d03b1fa9f81aa6a71" target="_top" xlink:title=" ">
<polygon fill="white" stroke="#666666" points="243.5,-36.5 136,-36.5 136,-18 243.5,-18 243.5,-36.5"/>
<text text-anchor="middle" x="189.75" y="-23" font-family="Helvetica,sans-Serif" font-size="10.00">utils_config_get_long</text>
</a>
</g>
</g>
<!-- Node1&#45;&gt;Node2 -->
<g id="edge1_Node000001_Node000002" class="edge">
<title>Node1&#45;&gt;Node2</title>
<g id="a_edge1_Node000001_Node000002"><a xlink:title=" ">
<path fill="none" stroke="#63b8ff" d="M100.34,-27.25C108.2,-27.25 116.42,-27.25 124.56,-27.25"/>
<polygon fill="#63b8ff" stroke="#63b8ff" points="124.56,-30.75 134.56,-27.25 124.56,-23.75 124.56,-30.75"/>
</a>
</g>
</g>
<!-- Node3 -->
<g id="Node000003" class="node">
<title>Node3</title>
<g id="a_Node000003"><a xlink:href="a01952.html#a0738274ac3fd171eda6bfb42492bc0d7" target="_top" xlink:title=" ">
<polygon fill="white" stroke="#666666" points="537.62,-55.5 431.62,-55.5 431.62,-37 537.62,-37 537.62,-55.5"/>
<text text-anchor="middle" x="484.62" y="-42" font-family="Helvetica,sans-Serif" font-size="10.00">_utils_config_get_str</text>
</a>
</g>
</g>
<!-- Node2&#45;&gt;Node3 -->
<g id="edge2_Node000002_Node000003" class="edge">
<title>Node2&#45;&gt;Node3</title>
<g id="a_edge2_Node000002_Node000003"><a xlink:title=" ">
<path fill="none" stroke="#63b8ff" d="M243.79,-30.69C293.5,-33.92 367.85,-38.74 420.57,-42.16"/>
<polygon fill="#63b8ff" stroke="#63b8ff" points="420.27,-45.71 430.47,-42.87 420.72,-38.73 420.27,-45.71"/>
</a>
</g>
</g>
<!-- Node8 -->
<g id="Node000008" class="node">
<title>Node8</title>
<g id="a_Node000008"><a xlink:href="a01952.html#a88091e179416d4beec1b5681cfb68742" target="_top" xlink:title=" ">
<polygon fill="white" stroke="#666666" points="394.5,-18.5 279.5,-18.5 279.5,0 394.5,0 394.5,-18.5"/>
<text text-anchor="middle" x="337" y="-5" font-family="Helvetica,sans-Serif" font-size="10.00">utils_config_write_long</text>
</a>
</g>
</g>
<!-- Node2&#45;&gt;Node8 -->
<g id="edge8_Node000002_Node000008" class="edge">
<title>Node2&#45;&gt;Node8</title>
<g id="a_edge8_Node000002_Node000008"><a xlink:title=" ">
<path fill="none" stroke="#63b8ff" d="M243.6,-20.7C251.61,-19.71 259.96,-18.67 268.24,-17.65"/>
<polygon fill="#63b8ff" stroke="#63b8ff" points="268.53,-21.01 278.02,-16.31 267.67,-14.07 268.53,-21.01"/>
</a>
</g>
</g>
<!-- Node4 -->
<g id="Node000004" class="node">
<title>Node4</title>
<g id="a_Node000004"><a xlink:href="a01952.html#a8b687fb4c464903e23504eea3ddc3873" target="_top" xlink:title=" ">
<polygon fill="white" stroke="#666666" points="628.25,-55.5 574.75,-55.5 574.75,-37 628.25,-37 628.25,-55.5"/>
<text text-anchor="middle" x="601.5" y="-42" font-family="Helvetica,sans-Serif" font-size="10.00">conf_get</text>
</a>
</g>
</g>
<!-- Node3&#45;&gt;Node4 -->
<g id="edge3_Node000003_Node000004" class="edge">
<title>Node3&#45;&gt;Node4</title>
<g id="a_edge3_Node000003_Node000004"><a xlink:title=" ">
<path fill="none" stroke="#63b8ff" d="M538.02,-46.25C546.63,-46.25 555.39,-46.25 563.52,-46.25"/>
<polygon fill="#63b8ff" stroke="#63b8ff" points="563.51,-49.75 573.51,-46.25 563.51,-42.75 563.51,-49.75"/>
</a>
</g>
</g>
<!-- Node5 -->
<g id="Node000005" class="node">
<title>Node5</title>
<g id="a_Node000005"><a xlink:href="a01955.html#acde493d3889d6f207d1e122cf4bb1b8c" target="_top" xlink:title=" ">
<polygon fill="white" stroke="#666666" points="904.75,-55.5 819,-55.5 819,-37 904.75,-37 904.75,-55.5"/>
<text text-anchor="middle" x="861.88" y="-42" font-family="Helvetica,sans-Serif" font-size="10.00">system_env_var</text>
</a>
</g>
</g>
<!-- Node4&#45;&gt;Node5 -->
<g id="edge4_Node000004_Node000005" class="edge">
<title>Node4&#45;&gt;Node5</title>
<g id="a_edge4_Node000004_Node000005"><a xlink:title=" ">
<path fill="none" stroke="#63b8ff" d="M628.58,-55.63C639.46,-59.08 652.31,-62.55 664.25,-64.25 716.5,-71.71 730.56,-70.23 783,-64.25 793.86,-63.01 805.4,-60.83 816.19,-58.41"/>
<polygon fill="#63b8ff" stroke="#63b8ff" points="816.74,-61.64 825.67,-55.93 815.13,-54.82 816.74,-61.64"/>
</a>
</g>
</g>
<!-- Node6 -->
<g id="Node000006" class="node">
<title>Node6</title>
<g id="a_Node000006"><a xlink:href="a01955.html#a86c3bfbf6daaf8172e131aa23dc7393c" target="_top" xlink:title=" ">
<polygon fill="white" stroke="#666666" points="767.25,-55.5 680,-55.5 680,-37 767.25,-37 767.25,-55.5"/>
<text text-anchor="middle" x="723.62" y="-42" font-family="Helvetica,sans-Serif" font-size="10.00">system_file_size</text>
</a>
</g>
</g>
<!-- Node4&#45;&gt;Node6 -->
<g id="edge5_Node000004_Node000006" class="edge">
<title>Node4&#45;&gt;Node6</title>
<g id="a_edge5_Node000004_Node000006"><a xlink:title=" ">
<path fill="none" stroke="#63b8ff" d="M628.57,-46.25C640.44,-46.25 654.96,-46.25 669.01,-46.25"/>
<polygon fill="#63b8ff" stroke="#63b8ff" points="668.61,-49.75 678.61,-46.25 668.61,-42.75 668.61,-49.75"/>
</a>
</g>
</g>
<!-- Node7 -->
<g id="Node000007" class="node">
<title>Node7</title>
<g id="a_Node000007"><a xlink:href="a01952.html#a17713c8e9b90065e23b0ec1a225f79ab" target="_top" xlink:title=" ">
<polygon fill="white" stroke="#666666" points="783,-18.5 664.25,-18.5 664.25,0 783,0 783,-18.5"/>
<text text-anchor="middle" x="723.62" y="-5" font-family="Helvetica,sans-Serif" font-size="10.00">utils_config_get_source</text>
</a>
</g>
</g>
<!-- Node4&#45;&gt;Node7 -->
<g id="edge6_Node000004_Node000007" class="edge">
<title>Node4&#45;&gt;Node7</title>
<g id="a_edge6_Node000004_Node000007"><a xlink:title=" ">
<path fill="none" stroke="#63b8ff" d="M628.57,-38.22C643.77,-33.54 663.3,-27.52 680.62,-22.19"/>
<polygon fill="#63b8ff" stroke="#63b8ff" points="681.53,-25.26 690.06,-18.97 679.47,-18.57 681.53,-25.26"/>
</a>
</g>
</g>
<!-- Node7&#45;&gt;Node5 -->
<g id="edge7_Node000007_Node000005" class="edge">
<title>Node7&#45;&gt;Node5</title>
<g id="a_edge7_Node000007_Node000005"><a xlink:title=" ">
<path fill="none" stroke="#63b8ff" d="M760.42,-18.97C777.09,-23.5 797.11,-28.93 814.88,-33.76"/>
<polygon fill="#63b8ff" stroke="#63b8ff" points="813.75,-37.35 824.32,-36.59 815.58,-30.6 813.75,-37.35"/>
</a>
</g>
</g>
<!-- Node9 -->
<g id="Node000009" class="node">
<title>Node9</title>
<g id="a_Node000009"><a xlink:href="a01952.html#a4b9cd8f5d0c205ac6c1fd30f77cbf539" target="_top" xlink:title=" ">
<polygon fill="white" stroke="#666666" points="538.75,-18.5 430.5,-18.5 430.5,0 538.75,0 538.75,-18.5"/>
<text text-anchor="middle" x="484.62" y="-5" font-family="Helvetica,sans-Serif" font-size="10.00">utils_config_write_str</text>
</a>
</g>
</g>
<!-- Node8&#45;&gt;Node9 -->
<g id="edge9_Node000008_Node000009" class="edge">
<title>Node8&#45;&gt;Node9</title>
<g id="a_edge9_Node000008_Node000009"><a xlink:title=" ">
<path fill="none" stroke="#63b8ff" d="M394.72,-9.25C402.74,-9.25 411.03,-9.25 419.17,-9.25"/>
<polygon fill="#63b8ff" stroke="#63b8ff" points="419.16,-12.75 429.16,-9.25 419.16,-5.75 419.16,-12.75"/>
</a>
</g>
</g>
<!-- Node9&#45;&gt;Node4 -->
<g id="edge10_Node000009_Node000004" class="edge">
<title>Node9&#45;&gt;Node4</title>
<g id="a_edge10_Node000009_Node000004"><a xlink:title=" ">
<path fill="none" stroke="#63b8ff" d="M515.81,-18.97C530.61,-23.74 548.55,-29.52 564.1,-34.53"/>
<polygon fill="#63b8ff" stroke="#63b8ff" points="562.83,-38.12 573.42,-37.85 564.97,-31.45 562.83,-38.12"/>
</a>
</g>
</g>
<!-- Node10 -->
<g id="Node000010" class="node">
<title>Node10</title>
<g id="a_Node000010"><a xlink:href="a01952.html#ab87e9691e65d65348749f8dc70f24602" target="_top" xlink:title=" ">
<polygon fill="white" stroke="#666666" points="628.25,-18.5 574.75,-18.5 574.75,0 628.25,0 628.25,-18.5"/>
<text text-anchor="middle" x="601.5" y="-5" font-family="Helvetica,sans-Serif" font-size="10.00">conf_set</text>
</a>
</g>
</g>
<!-- Node9&#45;&gt;Node10 -->
<g id="edge11_Node000009_Node000010" class="edge">
<title>Node9&#45;&gt;Node10</title>
<g id="a_edge11_Node000009_Node000010"><a xlink:title=" ">
<path fill="none" stroke="#63b8ff" d="M539.03,-9.25C547.29,-9.25 555.67,-9.25 563.47,-9.25"/>
<polygon fill="#63b8ff" stroke="#63b8ff" points="563.41,-12.75 573.41,-9.25 563.41,-5.75 563.41,-12.75"/>
</a>
</g>
</g>
<!-- Node10&#45;&gt;Node7 -->
<g id="edge12_Node000010_Node000007" class="edge">
<title>Node10&#45;&gt;Node7</title>
<g id="a_edge12_Node000010_Node000007"><a xlink:title=" ">
<path fill="none" stroke="#63b8ff" d="M628.57,-9.25C636.02,-9.25 644.52,-9.25 653.29,-9.25"/>
<polygon fill="#63b8ff" stroke="#63b8ff" points="653.07,-12.75 663.07,-9.25 653.07,-5.75 653.07,-12.75"/>
</a>
</g>
</g>
</g>
</svg>
