<?xml version="1.0" encoding="UTF-8" standalone="no"?>
<!DOCTYPE svg PUBLIC "-//W3C//DTD SVG 1.1//EN"
 "http://www.w3.org/Graphics/SVG/1.1/DTD/svg11.dtd">
<!-- Generated by graphviz version 8.0.5 (0)
 -->
<!-- Title: arax_accel_size_dec Pages: 1 -->
<svg width="596pt" height="101pt"
 viewBox="0.00 0.00 596.25 100.50" xmlns="http://www.w3.org/2000/svg" xmlns:xlink="http://www.w3.org/1999/xlink">
<g id="graph0" class="graph" transform="scale(1 1) rotate(0) translate(4 96.5)">
<title>arax_accel_size_dec</title>
<!-- Node1 -->
<g id="Node000001" class="node">
<title>Node1</title>
<g id="a_Node000001"><a xlink:title=" ">
<polygon fill="#999999" stroke="#666666" points="107.5,-55.5 0,-55.5 0,-37 107.5,-37 107.5,-55.5"/>
<text text-anchor="middle" x="53.75" y="-42" font-family="Helvetica,sans-Serif" font-size="10.00">arax_accel_size_dec</text>
</a>
</g>
</g>
<!-- Node2 -->
<g id="Node000002" class="node">
<title>Node2</title>
<g id="a_Node000002"><a xlink:href="a01925.html#a8413a3584787f9b629e54b2ef9439f06" target="_top" xlink:title=" ">
<polygon fill="white" stroke="#666666" points="257.75,-55.5 143.5,-55.5 143.5,-37 257.75,-37 257.75,-55.5"/>
<text text-anchor="middle" x="200.62" y="-42" font-family="Helvetica,sans-Serif" font-size="10.00">arax_throttle_size_dec</text>
</a>
</g>
</g>
<!-- Node1&#45;&gt;Node2 -->
<g id="edge1_Node000001_Node000002" class="edge">
<title>Node1&#45;&gt;Node2</title>
<g id="a_edge1_Node000001_Node000002"><a xlink:title=" ">
<path fill="none" stroke="#63b8ff" d="M107.87,-46.25C115.76,-46.25 123.97,-46.25 132.1,-46.25"/>
<polygon fill="#63b8ff" stroke="#63b8ff" points="132.1,-49.75 142.1,-46.25 132.1,-42.75 132.1,-49.75"/>
</a>
</g>
</g>
<!-- Node3 -->
<g id="Node000003" class="node">
<title>Node3</title>
<g id="a_Node000003"><a xlink:href="a02352.html#aed6af4d83e934e3e654ead541b15f2d9" target="_top" xlink:title=" ">
<polygon fill="white" stroke="#666666" points="408,-92.5 299,-92.5 299,-74 408,-74 408,-92.5"/>
<text text-anchor="middle" x="353.5" y="-79" font-family="Helvetica,sans-Serif" font-size="10.00">async_condition_lock</text>
</a>
</g>
</g>
<!-- Node2&#45;&gt;Node3 -->
<g id="edge2_Node000002_Node000003" class="edge">
<title>Node2&#45;&gt;Node3</title>
<g id="a_edge2_Node000002_Node000003"><a xlink:title=" ">
<path fill="none" stroke="#63b8ff" d="M241.27,-55.97C259.99,-60.56 282.54,-66.09 302.43,-70.97"/>
<polygon fill="#63b8ff" stroke="#63b8ff" points="301.32,-74.55 311.86,-73.53 302.98,-67.75 301.32,-74.55"/>
</a>
</g>
</g>
<!-- Node5 -->
<g id="Node000005" class="node">
<title>Node5</title>
<g id="a_Node000005"><a xlink:href="a02352.html#a3bbcb7c4c024e99d5c4ba52b61dfbbf7" target="_top" xlink:title=" ">
<polygon fill="white" stroke="#666666" points="413.25,-18.5 293.75,-18.5 293.75,0 413.25,0 413.25,-18.5"/>
<text text-anchor="middle" x="353.5" y="-5" font-family="Helvetica,sans-Serif" font-size="10.00">async_condition_unlock</text>
</a>
</g>
</g>
<!-- Node2&#45;&gt;Node5 -->
<g id="edge4_Node000002_Node000005" class="edge">
<title>Node2&#45;&gt;Node5</title>
<g id="a_edge4_Node000002_Node000005"><a xlink:title=" ">
<path fill="none" stroke="#63b8ff" d="M241.27,-36.53C259.99,-31.94 282.54,-26.41 302.43,-21.53"/>
<polygon fill="#63b8ff" stroke="#63b8ff" points="302.98,-24.75 311.86,-18.97 301.32,-17.95 302.98,-24.75"/>
</a>
</g>
</g>
<!-- Node7 -->
<g id="Node000007" class="node">
<title>Node7</title>
<g id="a_Node000007"><a xlink:href="a02352.html#a1bfeaeb9b81855e640d7a67cc9d92b17" target="_top" xlink:title=" ">
<polygon fill="white" stroke="#666666" points="407.62,-55.5 299.38,-55.5 299.38,-37 407.62,-37 407.62,-55.5"/>
<text text-anchor="middle" x="353.5" y="-42" font-family="Helvetica,sans-Serif" font-size="10.00">async_condition_wait</text>
</a>
</g>
</g>
<!-- Node2&#45;&gt;Node7 -->
<g id="edge6_Node000002_Node000007" class="edge">
<title>Node2&#45;&gt;Node7</title>
<g id="a_edge6_Node000002_Node000007"><a xlink:title=" ">
<path fill="none" stroke="#63b8ff" d="M258.23,-46.25C268.06,-46.25 278.34,-46.25 288.35,-46.25"/>
<polygon fill="#63b8ff" stroke="#63b8ff" points="288.07,-49.75 298.07,-46.25 288.07,-42.75 288.07,-49.75"/>
</a>
</g>
</g>
<!-- Node4 -->
<g id="Node000004" class="node">
<title>Node4</title>
<g id="a_Node000004"><a xlink:href="a02346.html#aebf9e72bb6cbd8b9e33489d46c25075d" target="_top" xlink:title=" ">
<polygon fill="white" stroke="#666666" points="577,-92.5 460.5,-92.5 460.5,-74 577,-74 577,-92.5"/>
<text text-anchor="middle" x="518.75" y="-79" font-family="Helvetica,sans-Serif" font-size="10.00">async_completion_wait</text>
</a>
</g>
</g>
<!-- Node3&#45;&gt;Node4 -->
<g id="edge3_Node000003_Node000004" class="edge">
<title>Node3&#45;&gt;Node4</title>
<g id="a_edge3_Node000003_Node000004"><a xlink:title=" ">
<path fill="none" stroke="#63b8ff" d="M408.41,-83.25C421.52,-83.25 435.73,-83.25 449.41,-83.25"/>
<polygon fill="#63b8ff" stroke="#63b8ff" points="449.25,-86.75 459.25,-83.25 449.25,-79.75 449.25,-86.75"/>
</a>
</g>
</g>
<!-- Node6 -->
<g id="Node000006" class="node">
<title>Node6</title>
<g id="a_Node000006"><a xlink:href="a02346.html#ad1d30ecbf6bff6457b680aa940281072" target="_top" xlink:title=" ">
<polygon fill="white" stroke="#666666" points="588.25,-18.5 449.25,-18.5 449.25,0 588.25,0 588.25,-18.5"/>
<text text-anchor="middle" x="518.75" y="-5" font-family="Helvetica,sans-Serif" font-size="10.00">async_completion_complete</text>
</a>
</g>
</g>
<!-- Node5&#45;&gt;Node6 -->
<g id="edge5_Node000005_Node000006" class="edge">
<title>Node5&#45;&gt;Node6</title>
<g id="a_edge5_Node000005_Node000006"><a xlink:title=" ">
<path fill="none" stroke="#63b8ff" d="M413.44,-9.25C421.44,-9.25 429.76,-9.25 438.05,-9.25"/>
<polygon fill="#63b8ff" stroke="#63b8ff" points="437.9,-12.75 447.9,-9.25 437.9,-5.75 437.9,-12.75"/>
</a>
</g>
</g>
<!-- Node7&#45;&gt;Node4 -->
<g id="edge8_Node000007_Node000004" class="edge">
<title>Node7&#45;&gt;Node4</title>
<g id="a_edge8_Node000007_Node000004"><a xlink:title=" ">
<path fill="none" stroke="#63b8ff" d="M397.39,-55.97C417.84,-60.61 442.51,-66.2 464.17,-71.11"/>
<polygon fill="#63b8ff" stroke="#63b8ff" points="463.34,-74.73 473.86,-73.53 464.88,-67.91 463.34,-74.73"/>
</a>
</g>
</g>
<!-- Node7&#45;&gt;Node6 -->
<g id="edge7_Node000007_Node000006" class="edge">
<title>Node7&#45;&gt;Node6</title>
<g id="a_edge7_Node000007_Node000006"><a xlink:title=" ">
<path fill="none" stroke="#63b8ff" d="M397.39,-36.53C417.84,-31.89 442.51,-26.3 464.17,-21.39"/>
<polygon fill="#63b8ff" stroke="#63b8ff" points="464.88,-24.59 473.86,-18.97 463.34,-17.77 464.88,-24.59"/>
</a>
</g>
</g>
<!-- Node8 -->
<g id="Node000008" class="node">
<title>Node8</title>
<g id="a_Node000008"><a xlink:href="a02346.html#a7ab7c7fe9cb93434dde72a4e464a7e69" target="_top" xlink:title=" ">
<polygon fill="white" stroke="#666666" points="576.62,-55.5 460.88,-55.5 460.88,-37 576.62,-37 576.62,-55.5"/>
<text text-anchor="middle" x="518.75" y="-42" font-family="Helvetica,sans-Serif" font-size="10.00">async_semaphore_dec</text>
</a>
</g>
</g>
<!-- Node7&#45;&gt;Node8 -->
<g id="edge9_Node000007_Node000008" class="edge">
<title>Node7&#45;&gt;Node8</title>
<g id="a_edge9_Node000007_Node000008"><a xlink:title=" ">
<path fill="none" stroke="#63b8ff" d="M407.95,-46.25C421.23,-46.25 435.65,-46.25 449.53,-46.25"/>
<polygon fill="#63b8ff" stroke="#63b8ff" points="449.52,-49.75 459.52,-46.25 449.52,-42.75 449.52,-49.75"/>
</a>
</g>
</g>
</g>
</svg>
