<?xml version="1.0" encoding="UTF-8" standalone="no"?>
<!DOCTYPE svg PUBLIC "-//W3C//DTD SVG 1.1//EN"
 "http://www.w3.org/Graphics/SVG/1.1/DTD/svg11.dtd">
<!-- Generated by graphviz version 8.0.5 (0)
 -->
<!-- Title: arax_accel_add_task Pages: 1 -->
<svg width="448pt" height="101pt"
 viewBox="0.00 0.00 447.50 100.50" xmlns="http://www.w3.org/2000/svg" xmlns:xlink="http://www.w3.org/1999/xlink">
<g id="graph0" class="graph" transform="scale(1 1) rotate(0) translate(4 96.5)">
<title>arax_accel_add_task</title>
<!-- Node1 -->
<g id="Node000001" class="node">
<title>Node1</title>
<g id="a_Node000001"><a xlink:title=" ">
<polygon fill="#999999" stroke="#666666" points="109,-55.5 0,-55.5 0,-37 109,-37 109,-55.5"/>
<text text-anchor="middle" x="54.5" y="-42" font-family="Helvetica,sans-Serif" font-size="10.00">arax_accel_add_task</text>
</a>
</g>
</g>
<!-- Node2 -->
<g id="Node000002" class="node">
<title>Node2</title>
<g id="a_Node000002"><a xlink:href="a02352.html#aed6af4d83e934e3e654ead541b15f2d9" target="_top" xlink:title=" ">
<polygon fill="white" stroke="#666666" points="259.25,-92.5 150.25,-92.5 150.25,-74 259.25,-74 259.25,-92.5"/>
<text text-anchor="middle" x="204.75" y="-79" font-family="Helvetica,sans-Serif" font-size="10.00">async_condition_lock</text>
</a>
</g>
</g>
<!-- Node1&#45;&gt;Node2 -->
<g id="edge1_Node000001_Node000002" class="edge">
<title>Node1&#45;&gt;Node2</title>
<g id="a_edge1_Node000001_Node000002"><a xlink:title=" ">
<path fill="none" stroke="#63b8ff" d="M94.45,-55.97C112.76,-60.54 134.81,-66.04 154.28,-70.9"/>
<polygon fill="#63b8ff" stroke="#63b8ff" points="153.25,-74.5 163.8,-73.53 154.95,-67.71 153.25,-74.5"/>
</a>
</g>
</g>
<!-- Node4 -->
<g id="Node000004" class="node">
<title>Node4</title>
<g id="a_Node000004"><a xlink:href="a02352.html#a45a896fb606c2aa66a5a4c2af59ce494" target="_top" xlink:title=" ">
<polygon fill="white" stroke="#666666" points="262.25,-55.5 147.25,-55.5 147.25,-37 262.25,-37 262.25,-55.5"/>
<text text-anchor="middle" x="204.75" y="-42" font-family="Helvetica,sans-Serif" font-size="10.00">async_condition_notify</text>
</a>
</g>
</g>
<!-- Node1&#45;&gt;Node4 -->
<g id="edge3_Node000001_Node000004" class="edge">
<title>Node1&#45;&gt;Node4</title>
<g id="a_edge3_Node000001_Node000004"><a xlink:title=" ">
<path fill="none" stroke="#63b8ff" d="M109.44,-46.25C118.09,-46.25 127.14,-46.25 136.07,-46.25"/>
<polygon fill="#63b8ff" stroke="#63b8ff" points="135.85,-49.75 145.85,-46.25 135.85,-42.75 135.85,-49.75"/>
</a>
</g>
</g>
<!-- Node6 -->
<g id="Node000006" class="node">
<title>Node6</title>
<g id="a_Node000006"><a xlink:href="a02352.html#a3bbcb7c4c024e99d5c4ba52b61dfbbf7" target="_top" xlink:title=" ">
<polygon fill="white" stroke="#666666" points="264.5,-18.5 145,-18.5 145,0 264.5,0 264.5,-18.5"/>
<text text-anchor="middle" x="204.75" y="-5" font-family="Helvetica,sans-Serif" font-size="10.00">async_condition_unlock</text>
</a>
</g>
</g>
<!-- Node1&#45;&gt;Node6 -->
<g id="edge5_Node000001_Node000006" class="edge">
<title>Node1&#45;&gt;Node6</title>
<g id="a_edge5_Node000001_Node000006"><a xlink:title=" ">
<path fill="none" stroke="#63b8ff" d="M94.45,-36.53C112.76,-31.96 134.81,-26.46 154.28,-21.6"/>
<polygon fill="#63b8ff" stroke="#63b8ff" points="154.95,-24.79 163.8,-18.97 153.25,-18 154.95,-24.79"/>
</a>
</g>
</g>
<!-- Node3 -->
<g id="Node000003" class="node">
<title>Node3</title>
<g id="a_Node000003"><a xlink:href="a02346.html#aebf9e72bb6cbd8b9e33489d46c25075d" target="_top" xlink:title=" ">
<polygon fill="white" stroke="#666666" points="428.25,-92.5 311.75,-92.5 311.75,-74 428.25,-74 428.25,-92.5"/>
<text text-anchor="middle" x="370" y="-79" font-family="Helvetica,sans-Serif" font-size="10.00">async_completion_wait</text>
</a>
</g>
</g>
<!-- Node2&#45;&gt;Node3 -->
<g id="edge2_Node000002_Node000003" class="edge">
<title>Node2&#45;&gt;Node3</title>
<g id="a_edge2_Node000002_Node000003"><a xlink:title=" ">
<path fill="none" stroke="#63b8ff" d="M259.66,-83.25C272.77,-83.25 286.98,-83.25 300.66,-83.25"/>
<polygon fill="#63b8ff" stroke="#63b8ff" points="300.5,-86.75 310.5,-83.25 300.5,-79.75 300.5,-86.75"/>
</a>
</g>
</g>
<!-- Node5 -->
<g id="Node000005" class="node">
<title>Node5</title>
<g id="a_Node000005"><a xlink:href="a02346.html#a0fa370eee5160963e617d1daf1c07363" target="_top" xlink:title=" ">
<polygon fill="white" stroke="#666666" points="426.38,-55.5 313.62,-55.5 313.62,-37 426.38,-37 426.38,-55.5"/>
<text text-anchor="middle" x="370" y="-42" font-family="Helvetica,sans-Serif" font-size="10.00">async_semaphore_inc</text>
</a>
</g>
</g>
<!-- Node4&#45;&gt;Node5 -->
<g id="edge4_Node000004_Node000005" class="edge">
<title>Node4&#45;&gt;Node5</title>
<g id="a_edge4_Node000004_Node000005"><a xlink:title=" ">
<path fill="none" stroke="#63b8ff" d="M262.39,-46.25C275.27,-46.25 289.06,-46.25 302.32,-46.25"/>
<polygon fill="#63b8ff" stroke="#63b8ff" points="302.29,-49.75 312.29,-46.25 302.29,-42.75 302.29,-49.75"/>
</a>
</g>
</g>
<!-- Node7 -->
<g id="Node000007" class="node">
<title>Node7</title>
<g id="a_Node000007"><a xlink:href="a02346.html#ad1d30ecbf6bff6457b680aa940281072" target="_top" xlink:title=" ">
<polygon fill="white" stroke="#666666" points="439.5,-18.5 300.5,-18.5 300.5,0 439.5,0 439.5,-18.5"/>
<text text-anchor="middle" x="370" y="-5" font-family="Helvetica,sans-Serif" font-size="10.00">async_completion_complete</text>
</a>
</g>
</g>
<!-- Node6&#45;&gt;Node7 -->
<g id="edge6_Node000006_Node000007" class="edge">
<title>Node6&#45;&gt;Node7</title>
<g id="a_edge6_Node000006_Node000007"><a xlink:title=" ">
<path fill="none" stroke="#63b8ff" d="M264.69,-9.25C272.69,-9.25 281.01,-9.25 289.3,-9.25"/>
<polygon fill="#63b8ff" stroke="#63b8ff" points="289.15,-12.75 299.15,-9.25 289.15,-5.75 289.15,-12.75"/>
</a>
</g>
</g>
</g>
</svg>
