<?xml version="1.0" encoding="UTF-8" standalone="no"?>
<!DOCTYPE svg PUBLIC "-//W3C//DTD SVG 1.1//EN"
 "http://www.w3.org/Graphics/SVG/1.1/DTD/svg11.dtd">
<!-- Generated by graphviz version 11.0.0 (0)
 -->
<!-- Title: arch_alloc_allocate Pages: 1 -->
<svg width="1466pt" height="489pt"
 viewBox="0.00 0.00 1466.25 488.75" xmlns="http://www.w3.org/2000/svg" xmlns:xlink="http://www.w3.org/1999/xlink">
<g id="graph0" class="graph" transform="scale(1 1) rotate(0) translate(4 484.75)">
<title>arch_alloc_allocate</title>
<!-- Node1 -->
<g id="Node000001" class="node">
<title>Node1</title>
<g id="a_Node000001"><a xlink:title=" ">
<polygon fill="#999999" stroke="#666666" points="1458.25,-102.75 1359,-102.75 1359,-84.25 1458.25,-84.25 1458.25,-102.75"/>
<text text-anchor="middle" x="1408.62" y="-89.25" font-family="Helvetica,sans-Serif" font-size="10.00">arch_alloc_allocate</text>
</a>
</g>
</g>
<!-- Node2 -->
<g id="Node000002" class="node">
<title>Node2</title>
<g id="a_Node000002"><a xlink:href="a01928.html#a402bbd6fa197c2c48d527325e5e2cf5b" target="_top" xlink:title=" ">
<polygon fill="white" stroke="#666666" points="724.25,-334.75 619.75,-334.75 619.75,-316.25 724.25,-316.25 724.25,-334.75"/>
<text text-anchor="middle" x="672" y="-321.25" font-family="Helvetica,sans-Serif" font-size="10.00">arax_object_register</text>
</a>
</g>
</g>
<!-- Node1&#45;&gt;Node2 -->
<g id="edge1_Node000001_Node000002" class="edge">
<title>Node1&#45;&gt;Node2</title>
<g id="a_edge1_Node000001_Node000002"><a xlink:title=" ">
<path fill="none" stroke="#63b8ff" d="M1396.27,-112.91C1362.02,-168.69 1253.68,-325.5 1118.12,-325.5 1118.12,-325.5 1118.12,-325.5 962.5,-325.5 879.19,-325.5 782.4,-325.5 724.51,-325.5"/>
<polygon fill="#63b8ff" stroke="#63b8ff" points="1399.19,-114.85 1401.34,-104.47 1393.19,-111.24 1399.19,-114.85"/>
</a>
</g>
</g>
<!-- Node20 -->
<g id="Node000020" class="node">
<title>Node20</title>
<g id="a_Node000020"><a xlink:href="a01928.html#a6c73bee66b4cb5a64d949b6fbbd64498" target="_top" xlink:title=" ">
<polygon fill="white" stroke="#666666" points="1317.38,-65.75 1212.88,-65.75 1212.88,-47.25 1317.38,-47.25 1317.38,-65.75"/>
<text text-anchor="middle" x="1265.12" y="-52.25" font-family="Helvetica,sans-Serif" font-size="10.00">arax_object_rename</text>
</a>
</g>
</g>
<!-- Node1&#45;&gt;Node20 -->
<g id="edge21_Node000001_Node000020" class="edge">
<title>Node1&#45;&gt;Node20</title>
<g id="a_edge21_Node000001_Node000020"><a xlink:title=" ">
<path fill="none" stroke="#63b8ff" d="M1359.33,-80.87C1340.92,-76.06 1320.24,-70.65 1303.05,-66.16"/>
<polygon fill="#63b8ff" stroke="#63b8ff" points="1358.42,-84.25 1368.98,-83.4 1360.19,-77.48 1358.42,-84.25"/>
</a>
</g>
</g>
<!-- Node21 -->
<g id="Node000021" class="node">
<title>Node21</title>
<g id="a_Node000021"><a xlink:href="a01949.html#a8a99bcb12e2ee55d68a029bfca9b6d51" target="_top" xlink:title=" ">
<polygon fill="white" stroke="#666666" points="572.5,-105 478.5,-105 478.5,-76 572.5,-76 572.5,-105"/>
<text text-anchor="start" x="486.5" y="-91.5" font-family="Helvetica,sans-Serif" font-size="10.00">arax_plot_register</text>
<text text-anchor="middle" x="525.5" y="-81" font-family="Helvetica,sans-Serif" font-size="10.00">_metric</text>
</a>
</g>
</g>
<!-- Node1&#45;&gt;Node21 -->
<g id="edge22_Node000001_Node000021" class="edge">
<title>Node1&#45;&gt;Node21</title>
<g id="a_edge22_Node000001_Node000021"><a xlink:title=" ">
<path fill="none" stroke="#63b8ff" d="M1347.45,-93.5C1288.89,-93.5 1197.4,-93.5 1118.12,-93.5 1118.12,-93.5 1118.12,-93.5 811.88,-93.5 727.65,-93.5 629.44,-92.18 572.96,-91.29"/>
<polygon fill="#63b8ff" stroke="#63b8ff" points="1347.19,-97 1357.19,-93.5 1347.19,-90 1347.19,-97"/>
</a>
</g>
</g>
<!-- Node22 -->
<g id="Node000022" class="node">
<title>Node22</title>
<g id="a_Node000022"><a xlink:href="a02358.html#a32b9155cb5133ef21023a1ff4653bf04" target="_top" xlink:title=" ">
<polygon fill="white" stroke="#666666" points="1321.88,-29 1208.38,-29 1208.38,0 1321.88,0 1321.88,-29"/>
<text text-anchor="start" x="1216.38" y="-15.5" font-family="Helvetica,sans-Serif" font-size="10.00">arch_alloc_create_sub</text>
<text text-anchor="middle" x="1265.12" y="-5" font-family="Helvetica,sans-Serif" font-size="10.00">_alloc</text>
</a>
</g>
</g>
<!-- Node1&#45;&gt;Node22 -->
<g id="edge23_Node000001_Node000022" class="edge">
<title>Node1&#45;&gt;Node22</title>
<g id="a_edge23_Node000001_Node000022"><a xlink:title=" ">
<path fill="none" stroke="#63b8ff" d="M1385.34,-77.46C1368.65,-65.83 1345,-50.17 1323,-38.5 1317.04,-35.34 1310.56,-32.27 1304.19,-29.46"/>
<polygon fill="#63b8ff" stroke="#63b8ff" points="1382.87,-80 1393.06,-82.9 1386.91,-74.28 1382.87,-80"/>
</a>
</g>
</g>
<!-- Node23 -->
<g id="Node000023" class="node">
<title>Node23</title>
<g id="a_Node000023"><a xlink:href="a02367.html#a7ab7c7fe9cb93434dde72a4e464a7e69" target="_top" xlink:title=" ">
<polygon fill="white" stroke="#666666" points="1323,-177.75 1207.25,-177.75 1207.25,-159.25 1323,-159.25 1323,-177.75"/>
<text text-anchor="middle" x="1265.12" y="-164.25" font-family="Helvetica,sans-Serif" font-size="10.00">async_semaphore_dec</text>
</a>
</g>
</g>
<!-- Node1&#45;&gt;Node23 -->
<g id="edge24_Node000001_Node000023" class="edge">
<title>Node1&#45;&gt;Node23</title>
<g id="a_edge24_Node000001_Node000023"><a xlink:title=" ">
<path fill="none" stroke="#63b8ff" d="M1379.34,-108.49C1351.03,-123.5 1308.32,-146.14 1284.26,-158.89"/>
<polygon fill="#63b8ff" stroke="#63b8ff" points="1380.88,-111.64 1388.08,-103.86 1377.6,-105.45 1380.88,-111.64"/>
</a>
</g>
</g>
<!-- Node3 -->
<g id="Node000003" class="node">
<title>Node3</title>
<g id="a_Node000003"><a xlink:href="a01919.html#a0706a66a62ca8710342ac1c097b703ed" target="_top" xlink:title=" ">
<polygon fill="white" stroke="#666666" points="410.62,-480.75 328.62,-480.75 328.62,-462.25 410.62,-462.25 410.62,-480.75"/>
<text text-anchor="middle" x="369.62" y="-467.25" font-family="Helvetica,sans-Serif" font-size="10.00">arax_accel_init</text>
</a>
</g>
</g>
<!-- Node2&#45;&gt;Node3 -->
<g id="edge2_Node000002_Node000003" class="edge">
<title>Node2&#45;&gt;Node3</title>
<g id="a_edge2_Node000002_Node000003"><a xlink:title=" ">
<path fill="none" stroke="#63b8ff" d="M659.46,-344.65C644.57,-367.6 616.49,-405.46 582.25,-425.5 528.38,-457.02 455.39,-467.01 410.73,-470.13"/>
<polygon fill="#63b8ff" stroke="#63b8ff" points="662.36,-346.61 664.7,-336.28 656.43,-342.9 662.36,-346.61"/>
</a>
</g>
</g>
<!-- Node4 -->
<g id="Node000004" class="node">
<title>Node4</title>
<g id="a_Node000004"><a xlink:href="a01925.html#a526989df37e605824d846b7ba54b43ea" target="_top" xlink:title=" ">
<polygon fill="white" stroke="#666666" points="582.25,-369.75 468.75,-369.75 468.75,-351.25 582.25,-351.25 582.25,-369.75"/>
<text text-anchor="middle" x="525.5" y="-356.25" font-family="Helvetica,sans-Serif" font-size="10.00">arax_data_init_aligned</text>
</a>
</g>
</g>
<!-- Node2&#45;&gt;Node4 -->
<g id="edge3_Node000002_Node000004" class="edge">
<title>Node2&#45;&gt;Node4</title>
<g id="a_edge3_Node000002_Node000004"><a xlink:title=" ">
<path fill="none" stroke="#63b8ff" d="M619.59,-337.95C602.16,-342.17 582.95,-346.83 566.54,-350.8"/>
<polygon fill="#63b8ff" stroke="#63b8ff" points="620.38,-341.36 629.28,-335.61 618.73,-334.56 620.38,-341.36"/>
</a>
</g>
</g>
<!-- Node7 -->
<g id="Node000007" class="node">
<title>Node7</title>
<g id="a_Node000007"><a xlink:href="a01934.html#a86ac572ea8f5f613129192c47d598818" target="_top" xlink:title=" ">
<polygon fill="white" stroke="#666666" points="564.25,-332.75 486.75,-332.75 486.75,-314.25 564.25,-314.25 564.25,-332.75"/>
<text text-anchor="middle" x="525.5" y="-319.25" font-family="Helvetica,sans-Serif" font-size="10.00">arax_proc_init</text>
</a>
</g>
</g>
<!-- Node2&#45;&gt;Node7 -->
<g id="edge6_Node000002_Node000007" class="edge">
<title>Node2&#45;&gt;Node7</title>
<g id="a_edge6_Node000002_Node000007"><a xlink:title=" ">
<path fill="none" stroke="#63b8ff" d="M608.38,-324.63C593.44,-324.43 577.95,-324.21 564.51,-324.03"/>
<polygon fill="#63b8ff" stroke="#63b8ff" points="608.09,-328.13 618.13,-324.77 608.18,-321.13 608.09,-328.13"/>
</a>
</g>
</g>
<!-- Node9 -->
<g id="Node000009" class="node">
<title>Node9</title>
<g id="a_Node000009"><a xlink:href="a01940.html#a27bee94f7a23281c8b2b72ec433f6059" target="_top" xlink:title=" ">
<polygon fill="white" stroke="#666666" points="568,-295.75 483,-295.75 483,-277.25 568,-277.25 568,-295.75"/>
<text text-anchor="middle" x="525.5" y="-282.25" font-family="Helvetica,sans-Serif" font-size="10.00">arax_task_alloc</text>
</a>
</g>
</g>
<!-- Node2&#45;&gt;Node9 -->
<g id="edge8_Node000002_Node000009" class="edge">
<title>Node2&#45;&gt;Node9</title>
<g id="a_edge8_Node000002_Node000009"><a xlink:title=" ">
<path fill="none" stroke="#63b8ff" d="M623.8,-312.76C603.74,-307.35 580.73,-301.14 562.13,-296.12"/>
<polygon fill="#63b8ff" stroke="#63b8ff" points="622.88,-316.14 633.45,-315.36 624.71,-309.38 622.88,-316.14"/>
</a>
</g>
</g>
<!-- Node17 -->
<g id="Node000017" class="node">
<title>Node17</title>
<g id="a_Node000017"><a xlink:href="a01946.html#a83ddb422946cf774c687c1ab63dcda15" target="_top" xlink:title=" ">
<polygon fill="white" stroke="#666666" points="568.75,-416.75 482.25,-416.75 482.25,-398.25 568.75,-398.25 568.75,-416.75"/>
<text text-anchor="middle" x="525.5" y="-403.25" font-family="Helvetica,sans-Serif" font-size="10.00">arax_vaccel_init</text>
</a>
</g>
</g>
<!-- Node2&#45;&gt;Node17 -->
<g id="edge17_Node000002_Node000017" class="edge">
<title>Node2&#45;&gt;Node17</title>
<g id="a_edge17_Node000002_Node000017"><a xlink:title=" ">
<path fill="none" stroke="#63b8ff" d="M645.89,-341.03C628.24,-351.81 604,-366.36 582.25,-378.5 570.25,-385.2 556.55,-392.33 545.74,-397.84"/>
<polygon fill="#63b8ff" stroke="#63b8ff" points="647.47,-344.17 654.16,-335.95 643.81,-338.2 647.47,-344.17"/>
</a>
</g>
</g>
<!-- Node5 -->
<g id="Node000005" class="node">
<title>Node5</title>
<g id="a_Node000005"><a xlink:href="a01925.html#aeefe449d4a278e9fc4b9c5f7e31000a1" target="_top" xlink:title=" ">
<polygon fill="white" stroke="#666666" points="408.38,-369.75 330.88,-369.75 330.88,-351.25 408.38,-351.25 408.38,-369.75"/>
<text text-anchor="middle" x="369.62" y="-356.25" font-family="Helvetica,sans-Serif" font-size="10.00">arax_data_init</text>
</a>
</g>
</g>
<!-- Node4&#45;&gt;Node5 -->
<g id="edge4_Node000004_Node000005" class="edge">
<title>Node4&#45;&gt;Node5</title>
<g id="a_edge4_Node000004_Node000005"><a xlink:title=" ">
<path fill="none" stroke="#63b8ff" d="M457.12,-360.5C440.48,-360.5 423.22,-360.5 408.54,-360.5"/>
<polygon fill="#63b8ff" stroke="#63b8ff" points="457,-364 467,-360.5 457,-357 457,-364"/>
</a>
</g>
</g>
<!-- Node6 -->
<g id="Node000006" class="node">
<title>Node6</title>
<g id="a_Node000006"><a xlink:href="a02193.html#ga9260ad2dd766aec3274c518e2e312b1f" target="_top" xlink:title=" ">
<polygon fill="white" stroke="#666666" points="249.12,-406.75 159.62,-406.75 159.62,-388.25 249.12,-388.25 249.12,-406.75"/>
<text text-anchor="middle" x="204.38" y="-393.25" font-family="Helvetica,sans-Serif" font-size="10.00">ARAX_BUFFER</text>
</a>
</g>
</g>
<!-- Node5&#45;&gt;Node6 -->
<g id="edge5_Node000005_Node000006" class="edge">
<title>Node5&#45;&gt;Node6</title>
<g id="a_edge5_Node000005_Node000006"><a xlink:title=" ">
<path fill="none" stroke="#63b8ff" d="M319.63,-371.6C296.9,-376.76 270.13,-382.82 248.21,-387.79"/>
<polygon fill="#63b8ff" stroke="#63b8ff" points="320.31,-375.04 329.29,-369.42 318.76,-368.21 320.31,-375.04"/>
</a>
</g>
</g>
<!-- Node8 -->
<g id="Node000008" class="node">
<title>Node8</title>
<g id="a_Node000008"><a xlink:href="a02191.html#gafad2dafb4a231390f02b7c866295b7d9" target="_top" xlink:title=" ">
<polygon fill="white" stroke="#666666" points="418.12,-332.75 321.12,-332.75 321.12,-314.25 418.12,-314.25 418.12,-332.75"/>
<text text-anchor="middle" x="369.62" y="-319.25" font-family="Helvetica,sans-Serif" font-size="10.00">arax_proc_register</text>
</a>
</g>
</g>
<!-- Node7&#45;&gt;Node8 -->
<g id="edge7_Node000007_Node000008" class="edge">
<title>Node7&#45;&gt;Node8</title>
<g id="a_edge7_Node000007_Node000008"><a xlink:title=" ">
<path fill="none" stroke="#63b8ff" d="M475.2,-323.5C457.02,-323.5 436.47,-323.5 418.42,-323.5"/>
<polygon fill="#63b8ff" stroke="#63b8ff" points="474.95,-327 484.95,-323.5 474.95,-320 474.95,-327"/>
</a>
</g>
</g>
<!-- Node10 -->
<g id="Node000010" class="node">
<title>Node10</title>
<g id="a_Node000010"><a xlink:href="a02192.html#gac9f0f3fbb14da879d3ff09bd367bbb24" target="_top" xlink:title=" ">
<polygon fill="white" stroke="#666666" points="413.62,-295.75 325.62,-295.75 325.62,-277.25 413.62,-277.25 413.62,-295.75"/>
<text text-anchor="middle" x="369.62" y="-282.25" font-family="Helvetica,sans-Serif" font-size="10.00">arax_task_issue</text>
</a>
</g>
</g>
<!-- Node9&#45;&gt;Node10 -->
<g id="edge9_Node000009_Node000010" class="edge">
<title>Node9&#45;&gt;Node10</title>
<g id="a_edge9_Node000009_Node000010"><a xlink:title=" ">
<path fill="none" stroke="#63b8ff" d="M471.48,-286.5C452.69,-286.5 431.79,-286.5 413.91,-286.5"/>
<polygon fill="#63b8ff" stroke="#63b8ff" points="471.35,-290 481.35,-286.5 471.35,-283 471.35,-290"/>
</a>
</g>
</g>
<!-- Node11 -->
<g id="Node000011" class="node">
<title>Node11</title>
<g id="a_Node000011"><a xlink:href="a01925.html#af8ede6fc8d207004035f45d945688d2c" target="_top" xlink:title=" ">
<polygon fill="white" stroke="#666666" points="253.62,-222 155.12,-222 155.12,-193 253.62,-193 253.62,-222"/>
<text text-anchor="start" x="163.12" y="-208.5" font-family="Helvetica,sans-Serif" font-size="10.00">arax_data_allocate</text>
<text text-anchor="middle" x="204.38" y="-198" font-family="Helvetica,sans-Serif" font-size="10.00">_remote</text>
</a>
</g>
</g>
<!-- Node10&#45;&gt;Node11 -->
<g id="edge10_Node000010_Node000011" class="edge">
<title>Node10&#45;&gt;Node11</title>
<g id="a_edge10_Node000010_Node000011"><a xlink:title=" ">
<path fill="none" stroke="#63b8ff" d="M333.27,-272.18C324.34,-268.13 314.9,-263.46 306.5,-258.5 289.28,-248.33 288.07,-241.06 270.5,-231.5 264.36,-228.16 257.66,-225.1 250.97,-222.37"/>
<polygon fill="#63b8ff" stroke="#63b8ff" points="331.86,-275.39 342.42,-276.19 334.67,-268.98 331.86,-275.39"/>
</a>
</g>
</g>
<!-- Node12 -->
<g id="Node000012" class="node">
<title>Node12</title>
<g id="a_Node000012"><a xlink:href="a01925.html#a696bc4319d0f6c6baa7d797a8df6b56f" target="_top" xlink:title=" ">
<polygon fill="white" stroke="#666666" points="243.5,-295.75 165.25,-295.75 165.25,-277.25 243.5,-277.25 243.5,-295.75"/>
<text text-anchor="middle" x="204.38" y="-282.25" font-family="Helvetica,sans-Serif" font-size="10.00">arax_data_get</text>
</a>
</g>
</g>
<!-- Node10&#45;&gt;Node12 -->
<g id="edge11_Node000010_Node000012" class="edge">
<title>Node10&#45;&gt;Node12</title>
<g id="a_edge11_Node000010_Node000012"><a xlink:title=" ">
<path fill="none" stroke="#63b8ff" d="M313.97,-286.5C290.99,-286.5 264.79,-286.5 243.88,-286.5"/>
<polygon fill="#63b8ff" stroke="#63b8ff" points="313.79,-290 323.79,-286.5 313.79,-283 313.79,-290"/>
</a>
</g>
</g>
<!-- Node14 -->
<g id="Node000014" class="node">
<title>Node14</title>
<g id="a_Node000014"><a xlink:href="a01925.html#a8995f71dba475975efc37756783cfce9" target="_top" xlink:title=" ">
<polygon fill="white" stroke="#666666" points="243.5,-258.75 165.25,-258.75 165.25,-240.25 243.5,-240.25 243.5,-258.75"/>
<text text-anchor="middle" x="204.38" y="-245.25" font-family="Helvetica,sans-Serif" font-size="10.00">arax_data_set</text>
</a>
</g>
</g>
<!-- Node10&#45;&gt;Node14 -->
<g id="edge13_Node000010_Node000014" class="edge">
<title>Node10&#45;&gt;Node14</title>
<g id="a_edge13_Node000010_Node000014"><a xlink:title=" ">
<path fill="none" stroke="#63b8ff" d="M314.66,-274.27C291.49,-269.02 264.93,-263 243.8,-258.21"/>
<polygon fill="#63b8ff" stroke="#63b8ff" points="313.73,-277.65 324.26,-276.44 315.28,-270.82 313.73,-277.65"/>
</a>
</g>
</g>
<!-- Node15 -->
<g id="Node000015" class="node">
<title>Node15</title>
<g id="a_Node000015"><a xlink:href="a01925.html#af735744d0f8bec04394639a841d2ba0f" target="_top" xlink:title=" ">
<polygon fill="white" stroke="#666666" points="270.5,-369.75 138.25,-369.75 138.25,-351.25 270.5,-351.25 270.5,-369.75"/>
<text text-anchor="middle" x="204.38" y="-356.25" font-family="Helvetica,sans-Serif" font-size="10.00">ARAX_OBJ_DTOR_DECL</text>
</a>
</g>
</g>
<!-- Node10&#45;&gt;Node15 -->
<g id="edge15_Node000010_Node000015" class="edge">
<title>Node10&#45;&gt;Node15</title>
<g id="a_edge15_Node000010_Node000015"><a xlink:title=" ">
<path fill="none" stroke="#63b8ff" d="M316.43,-300.34C312.99,-301.9 309.64,-303.61 306.5,-305.5 287.11,-317.15 289.97,-329.97 270.5,-341.5 264.12,-345.28 256.93,-348.35 249.72,-350.83"/>
<polygon fill="#63b8ff" stroke="#63b8ff" points="317.58,-303.65 325.57,-296.7 314.98,-297.15 317.58,-303.65"/>
</a>
</g>
</g>
<!-- Node16 -->
<g id="Node000016" class="node">
<title>Node16</title>
<g id="a_Node000016"><a xlink:href="a02192.html#ga1418f4cd7336bf77cce7b955a1bf7077" target="_top" xlink:title=" ">
<polygon fill="white" stroke="#666666" points="261.12,-332.75 147.62,-332.75 147.62,-314.25 261.12,-314.25 261.12,-332.75"/>
<text text-anchor="middle" x="204.38" y="-319.25" font-family="Helvetica,sans-Serif" font-size="10.00">arax_task_issue_sync</text>
</a>
</g>
</g>
<!-- Node10&#45;&gt;Node16 -->
<g id="edge16_Node000010_Node000016" class="edge">
<title>Node10&#45;&gt;Node16</title>
<g id="a_edge16_Node000010_Node000016"><a xlink:title=" ">
<path fill="none" stroke="#63b8ff" d="M314.75,-298.71C293.15,-303.61 268.62,-309.17 248.26,-313.78"/>
<polygon fill="#63b8ff" stroke="#63b8ff" points="315.28,-302.18 324.26,-296.56 313.73,-295.35 315.28,-302.18"/>
</a>
</g>
</g>
<!-- Node13 -->
<g id="Node000013" class="node">
<title>Node13</title>
<g id="a_Node000013"><a xlink:href="a01925.html#a7d8356bd5c8b6a8d7dffc6ba94cc22e5" target="_top" xlink:title=" ">
<polygon fill="white" stroke="#666666" points="102.25,-276.75 0,-276.75 0,-258.25 102.25,-258.25 102.25,-276.75"/>
<text text-anchor="middle" x="51.12" y="-263.25" font-family="Helvetica,sans-Serif" font-size="10.00">arax_data_memcpy</text>
</a>
</g>
</g>
<!-- Node12&#45;&gt;Node13 -->
<g id="edge12_Node000012_Node000013" class="edge">
<title>Node12&#45;&gt;Node13</title>
<g id="a_edge12_Node000012_Node000013"><a xlink:title=" ">
<path fill="none" stroke="#63b8ff" d="M153.79,-280.27C137.38,-278.21 119.1,-275.91 102.61,-273.84"/>
<polygon fill="#63b8ff" stroke="#63b8ff" points="152.96,-283.69 163.32,-281.47 153.83,-276.75 152.96,-283.69"/>
</a>
</g>
</g>
<!-- Node14&#45;&gt;Node13 -->
<g id="edge14_Node000014_Node000013" class="edge">
<title>Node14&#45;&gt;Node13</title>
<g id="a_edge14_Node000014_Node000013"><a xlink:title=" ">
<path fill="none" stroke="#63b8ff" d="M153.79,-255.4C137.38,-257.35 119.1,-259.53 102.61,-261.49"/>
<polygon fill="#63b8ff" stroke="#63b8ff" points="153.8,-258.92 163.31,-254.27 152.97,-251.97 153.8,-258.92"/>
</a>
</g>
</g>
<!-- Node17&#45;&gt;Node3 -->
<g id="edge20_Node000017_Node000003" class="edge">
<title>Node17&#45;&gt;Node3</title>
<g id="a_edge20_Node000017_Node000003"><a xlink:title=" ">
<path fill="none" stroke="#63b8ff" d="M496.89,-422.47C478.95,-431.85 454.85,-443.76 432.75,-452.5 424.15,-455.9 414.68,-459.07 405.79,-461.81"/>
<polygon fill="#63b8ff" stroke="#63b8ff" points="498.41,-425.63 505.61,-417.86 495.13,-419.45 498.41,-425.63"/>
</a>
</g>
</g>
<!-- Node18 -->
<g id="Node000018" class="node">
<title>Node18</title>
<g id="a_Node000018"><a xlink:href="a02190.html#gaf8a10ab4e51e59c464ab3ab473e4a0f7" target="_top" xlink:title=" ">
<polygon fill="white" stroke="#666666" points="432.75,-443.75 306.5,-443.75 306.5,-425.25 432.75,-425.25 432.75,-443.75"/>
<text text-anchor="middle" x="369.62" y="-430.25" font-family="Helvetica,sans-Serif" font-size="10.00">arax_accel_acquire_phys</text>
</a>
</g>
</g>
<!-- Node17&#45;&gt;Node18 -->
<g id="edge18_Node000017_Node000018" class="edge">
<title>Node17&#45;&gt;Node18</title>
<g id="a_edge18_Node000017_Node000018"><a xlink:title=" ">
<path fill="none" stroke="#63b8ff" d="M470.72,-416.94C456.22,-419.48 440.51,-422.24 425.92,-424.8"/>
<polygon fill="#63b8ff" stroke="#63b8ff" points="471.31,-420.39 480.55,-415.21 470.1,-413.49 471.31,-420.39"/>
</a>
</g>
</g>
<!-- Node19 -->
<g id="Node000019" class="node">
<title>Node19</title>
<g id="a_Node000019"><a xlink:href="a02190.html#ga008252bb9afc2990fa2c5f4b980c9f27" target="_top" xlink:title=" ">
<polygon fill="white" stroke="#666666" points="432,-406.75 307.25,-406.75 307.25,-388.25 432,-388.25 432,-406.75"/>
<text text-anchor="middle" x="369.62" y="-393.25" font-family="Helvetica,sans-Serif" font-size="10.00">arax_accel_acquire_type</text>
</a>
</g>
</g>
<!-- Node17&#45;&gt;Node19 -->
<g id="edge19_Node000017_Node000019" class="edge">
<title>Node17&#45;&gt;Node19</title>
<g id="a_edge19_Node000017_Node000019"><a xlink:title=" ">
<path fill="none" stroke="#63b8ff" d="M470.89,-404.02C458.41,-403.2 445.03,-402.34 432.24,-401.5"/>
<polygon fill="#63b8ff" stroke="#63b8ff" points="470.33,-407.49 480.54,-404.64 470.78,-400.5 470.33,-407.49"/>
</a>
</g>
</g>
<!-- Node24 -->
<g id="Node000024" class="node">
<title>Node24</title>
<g id="a_Node000024"><a xlink:href="a02367.html#a1bfeaeb9b81855e640d7a67cc9d92b17" target="_top" xlink:title=" ">
<polygon fill="white" stroke="#666666" points="1171.25,-213.75 1063,-213.75 1063,-195.25 1171.25,-195.25 1171.25,-213.75"/>
<text text-anchor="middle" x="1117.12" y="-200.25" font-family="Helvetica,sans-Serif" font-size="10.00">async_condition_wait</text>
</a>
</g>
</g>
<!-- Node23&#45;&gt;Node24 -->
<g id="edge25_Node000023_Node000024" class="edge">
<title>Node23&#45;&gt;Node24</title>
<g id="a_edge25_Node000023_Node000024"><a xlink:title=" ">
<path fill="none" stroke="#63b8ff" d="M1213.54,-180.97C1195.25,-185.48 1174.87,-190.51 1157.67,-194.75"/>
<polygon fill="#63b8ff" stroke="#63b8ff" points="1214.27,-184.4 1223.15,-178.6 1212.6,-177.6 1214.27,-184.4"/>
</a>
</g>
</g>
<!-- Node25 -->
<g id="Node000025" class="node">
<title>Node25</title>
<g id="a_Node000025"><a xlink:href="a01913.html#a02fd608f651d254148dc74f0ae371dfe" target="_top" xlink:title=" ">
<polygon fill="white" stroke="#666666" points="992.88,-176.75 934.12,-176.75 934.12,-158.25 992.88,-158.25 992.88,-176.75"/>
<text text-anchor="middle" x="963.5" y="-163.25" font-family="Helvetica,sans-Serif" font-size="10.00">_arax_init</text>
</a>
</g>
</g>
<!-- Node24&#45;&gt;Node25 -->
<g id="edge26_Node000024_Node000025" class="edge">
<title>Node24&#45;&gt;Node25</title>
<g id="a_edge26_Node000024_Node000025"><a xlink:title=" ">
<path fill="none" stroke="#63b8ff" d="M1065.19,-192.07C1041.15,-186.2 1013.35,-179.42 993.06,-174.47"/>
<polygon fill="#63b8ff" stroke="#63b8ff" points="1064.27,-195.45 1074.82,-194.42 1065.93,-188.65 1064.27,-195.45"/>
</a>
</g>
</g>
<!-- Node32 -->
<g id="Node000032" class="node">
<title>Node32</title>
<g id="a_Node000032"><a xlink:href="a01919.html#a415e79d6e82e45f24bcd1742c146a0da" target="_top" xlink:title=" ">
<polygon fill="white" stroke="#666666" points="1027,-297.75 900,-297.75 900,-279.25 1027,-279.25 1027,-297.75"/>
<text text-anchor="middle" x="963.5" y="-284.25" font-family="Helvetica,sans-Serif" font-size="10.00">arax_accel_wait_for_task</text>
</a>
</g>
</g>
<!-- Node24&#45;&gt;Node32 -->
<g id="edge36_Node000024_Node000032" class="edge">
<title>Node24&#45;&gt;Node32</title>
<g id="a_edge36_Node000024_Node000032"><a xlink:title=" ">
<path fill="none" stroke="#63b8ff" d="M1097.18,-221.7C1079.99,-236.5 1053.36,-257.47 1027,-270.5 1020.42,-273.75 1013.15,-276.51 1005.97,-278.82"/>
<polygon fill="#63b8ff" stroke="#63b8ff" points="1099.37,-224.43 1104.57,-215.2 1094.75,-219.18 1099.37,-224.43"/>
</a>
</g>
</g>
<!-- Node33 -->
<g id="Node000033" class="node">
<title>Node33</title>
<g id="a_Node000033"><a xlink:href="a01931.html#a8ff14a859f9b7a34676c2fcdb762386b" target="_top" xlink:title=" ">
<polygon fill="white" stroke="#666666" points="1019.88,-261 907.12,-261 907.12,-232 1019.88,-232 1019.88,-261"/>
<text text-anchor="start" x="915.12" y="-247.5" font-family="Helvetica,sans-Serif" font-size="10.00">arax_pipe_get_orphan</text>
<text text-anchor="middle" x="963.5" y="-237" font-family="Helvetica,sans-Serif" font-size="10.00">_vaccel</text>
</a>
</g>
</g>
<!-- Node24&#45;&gt;Node33 -->
<g id="edge37_Node000024_Node000033" class="edge">
<title>Node24&#45;&gt;Node33</title>
<g id="a_edge37_Node000024_Node000033"><a xlink:title=" ">
<path fill="none" stroke="#63b8ff" d="M1070.09,-217.25C1053.81,-221.76 1035.36,-226.87 1018.49,-231.54"/>
<polygon fill="#63b8ff" stroke="#63b8ff" points="1070.8,-220.69 1079.5,-214.65 1068.93,-213.94 1070.8,-220.69"/>
</a>
</g>
</g>
<!-- Node34 -->
<g id="Node000034" class="node">
<title>Node34</title>
<g id="a_Node000034"><a xlink:href="a01943.html#a63b80783cfb3106ec4169ce082f153c0" target="_top" xlink:title=" ">
<polygon fill="white" stroke="#666666" points="1020.62,-213.75 906.38,-213.75 906.38,-195.25 1020.62,-195.25 1020.62,-213.75"/>
<text text-anchor="middle" x="963.5" y="-200.25" font-family="Helvetica,sans-Serif" font-size="10.00">arax_throttle_size_dec</text>
</a>
</g>
</g>
<!-- Node24&#45;&gt;Node34 -->
<g id="edge38_Node000024_Node000034" class="edge">
<title>Node24&#45;&gt;Node34</title>
<g id="a_edge38_Node000024_Node000034"><a xlink:title=" ">
<path fill="none" stroke="#63b8ff" d="M1051.42,-204.5C1041.33,-204.5 1030.97,-204.5 1021.07,-204.5"/>
<polygon fill="#63b8ff" stroke="#63b8ff" points="1051.15,-208 1061.15,-204.5 1051.15,-201 1051.15,-208"/>
</a>
</g>
</g>
<!-- Node26 -->
<g id="Node000026" class="node">
<title>Node26</title>
<g id="a_Node000026"><a xlink:href="a01913.html#aa6e4832b06bd5757be4502d2de7b3026" target="_top" xlink:title=" ">
<polygon fill="white" stroke="#666666" points="862.12,-199 763.62,-199 763.62,-170 862.12,-170 862.12,-199"/>
<text text-anchor="start" x="771.62" y="-185.5" font-family="Helvetica,sans-Serif" font-size="10.00">arax_controller_init</text>
<text text-anchor="middle" x="812.88" y="-175" font-family="Helvetica,sans-Serif" font-size="10.00">_start</text>
</a>
</g>
</g>
<!-- Node25&#45;&gt;Node26 -->
<g id="edge27_Node000025_Node000026" class="edge">
<title>Node25&#45;&gt;Node26</title>
<g id="a_edge27_Node000025_Node000026"><a xlink:title=" ">
<path fill="none" stroke="#63b8ff" d="M922.55,-172.07C904.01,-174.19 881.82,-176.73 862.33,-178.96"/>
<polygon fill="#63b8ff" stroke="#63b8ff" points="922.8,-175.56 932.34,-170.95 922.01,-168.61 922.8,-175.56"/>
</a>
</g>
</g>
<!-- Node27 -->
<g id="Node000027" class="node">
<title>Node27</title>
<g id="a_Node000027"><a xlink:href="a02189.html#gae1d371a2840849690acce147e7a205da" target="_top" xlink:title=" ">
<polygon fill="white" stroke="#666666" points="839.62,-151.75 786.12,-151.75 786.12,-133.25 839.62,-133.25 839.62,-151.75"/>
<text text-anchor="middle" x="812.88" y="-138.25" font-family="Helvetica,sans-Serif" font-size="10.00">arax_init</text>
</a>
</g>
</g>
<!-- Node25&#45;&gt;Node27 -->
<g id="edge28_Node000025_Node000027" class="edge">
<title>Node25&#45;&gt;Node27</title>
<g id="a_edge28_Node000025_Node000027"><a xlink:title=" ">
<path fill="none" stroke="#63b8ff" d="M922.74,-160.81C896.49,-156.4 862.85,-150.74 839.95,-146.89"/>
<polygon fill="#63b8ff" stroke="#63b8ff" points="921.91,-164.22 932.35,-162.43 923.07,-157.32 921.91,-164.22"/>
</a>
</g>
</g>
<!-- Node27&#45;&gt;Node21 -->
<g id="edge29_Node000027_Node000021" class="edge">
<title>Node27&#45;&gt;Node21</title>
<g id="a_edge29_Node000027_Node000021"><a xlink:title=" ">
<path fill="none" stroke="#63b8ff" d="M774.58,-135.81C735.58,-128.8 672.61,-117.45 618.25,-107.5 603.43,-104.79 587.27,-101.8 572.7,-99.1"/>
<polygon fill="#63b8ff" stroke="#63b8ff" points="773.92,-139.25 784.38,-137.57 775.16,-132.36 773.92,-139.25"/>
</a>
</g>
</g>
<!-- Node28 -->
<g id="Node000028" class="node">
<title>Node28</title>
<g id="a_Node000028"><a xlink:href="a01937.html#a80ab3bf4a8af9bb101b5a53248609771" target="_top" xlink:title=" ">
<polygon fill="white" stroke="#666666" points="710.38,-177.75 633.62,-177.75 633.62,-159.25 710.38,-159.25 710.38,-177.75"/>
<text text-anchor="middle" x="672" y="-164.25" font-family="Helvetica,sans-Serif" font-size="10.00">arax_ptr_valid</text>
</a>
</g>
</g>
<!-- Node27&#45;&gt;Node28 -->
<g id="edge30_Node000027_Node000028" class="edge">
<title>Node27&#45;&gt;Node28</title>
<g id="a_edge30_Node000027_Node000028"><a xlink:title=" ">
<path fill="none" stroke="#63b8ff" d="M774.7,-149.46C754.93,-153.16 730.67,-157.7 710.8,-161.42"/>
<polygon fill="#63b8ff" stroke="#63b8ff" points="775.08,-152.95 784.27,-147.67 773.79,-146.07 775.08,-152.95"/>
</a>
</g>
</g>
<!-- Node28&#45;&gt;Node21 -->
<g id="edge35_Node000028_Node000021" class="edge">
<title>Node28&#45;&gt;Node21</title>
<g id="a_edge35_Node000028_Node000021"><a xlink:title=" ">
<path fill="none" stroke="#63b8ff" d="M635.44,-154.25C629.59,-151.55 623.67,-148.59 618.25,-145.5 601.11,-135.72 599.05,-129.86 582.25,-119.5 574.26,-114.58 565.35,-109.69 557.04,-105.37"/>
<polygon fill="#63b8ff" stroke="#63b8ff" points="633.83,-157.36 644.39,-158.19 636.65,-150.95 633.83,-157.36"/>
</a>
</g>
</g>
<!-- Node29 -->
<g id="Node000029" class="node">
<title>Node29</title>
<g id="a_Node000029"><a xlink:href="a01970.html#a4ee1fea325d2edd421f59ab240dfbe54" target="_top" xlink:title=" ">
<polygon fill="white" stroke="#666666" points="571.38,-179.75 479.62,-179.75 479.62,-161.25 571.38,-161.25 571.38,-179.75"/>
<text text-anchor="middle" x="525.5" y="-166.25" font-family="Helvetica,sans-Serif" font-size="10.00">_arax_assert_obj</text>
</a>
</g>
</g>
<!-- Node28&#45;&gt;Node29 -->
<g id="edge31_Node000028_Node000029" class="edge">
<title>Node28&#45;&gt;Node29</title>
<g id="a_edge31_Node000028_Node000029"><a xlink:title=" ">
<path fill="none" stroke="#63b8ff" d="M621.92,-169.18C605.63,-169.4 587.59,-169.65 571.62,-169.88"/>
<polygon fill="#63b8ff" stroke="#63b8ff" points="621.95,-172.68 631.9,-169.04 621.85,-165.68 621.95,-172.68"/>
</a>
</g>
</g>
<!-- Node30 -->
<g id="Node000030" class="node">
<title>Node30</title>
<g id="a_Node000030"><a xlink:href="a01925.html#afeaab7d93372f0752d59c70d9c5940e7" target="_top" xlink:title=" ">
<polygon fill="white" stroke="#666666" points="563.5,-216.75 487.5,-216.75 487.5,-198.25 563.5,-198.25 563.5,-216.75"/>
<text text-anchor="middle" x="525.5" y="-203.25" font-family="Helvetica,sans-Serif" font-size="10.00">arax_data_ref</text>
</a>
</g>
</g>
<!-- Node28&#45;&gt;Node30 -->
<g id="edge32_Node000028_Node000030" class="edge">
<title>Node28&#45;&gt;Node30</title>
<g id="a_edge32_Node000028_Node000030"><a xlink:title=" ">
<path fill="none" stroke="#63b8ff" d="M623.8,-181.24C603.74,-186.65 580.73,-192.86 562.13,-197.88"/>
<polygon fill="#63b8ff" stroke="#63b8ff" points="624.71,-184.62 633.45,-178.64 622.88,-177.86 624.71,-184.62"/>
</a>
</g>
</g>
<!-- Node31 -->
<g id="Node000031" class="node">
<title>Node31</title>
<g id="a_Node000031"><a xlink:href="a01925.html#ac1f7fb20b3a23b388bea24f1b46a33a8" target="_top" xlink:title=" ">
<polygon fill="white" stroke="#666666" points="422.25,-179.75 317,-179.75 317,-161.25 422.25,-161.25 422.25,-179.75"/>
<text text-anchor="middle" x="369.62" y="-166.25" font-family="Helvetica,sans-Serif" font-size="10.00">arax_data_ref_offset</text>
</a>
</g>
</g>
<!-- Node28&#45;&gt;Node31 -->
<g id="edge34_Node000028_Node000031" class="edge">
<title>Node28&#45;&gt;Node31</title>
<g id="a_edge34_Node000028_Node000031"><a xlink:title=" ">
<path fill="none" stroke="#63b8ff" d="M622.17,-158.08C609.25,-155.77 595.28,-153.66 582.25,-152.5 532.01,-148.01 518.99,-147.93 468.75,-152.5 450.64,-154.15 430.88,-157.47 413.87,-160.82"/>
<polygon fill="#63b8ff" stroke="#63b8ff" points="621.24,-161.47 631.71,-159.87 622.52,-154.59 621.24,-161.47"/>
</a>
</g>
</g>
<!-- Node30&#45;&gt;Node31 -->
<g id="edge33_Node000030_Node000031" class="edge">
<title>Node30&#45;&gt;Node31</title>
<g id="a_edge33_Node000030_Node000031"><a xlink:title=" ">
<path fill="none" stroke="#63b8ff" d="M476.31,-195.91C455.34,-190.87 431.04,-185.03 411.04,-180.22"/>
<polygon fill="#63b8ff" stroke="#63b8ff" points="475.24,-199.25 485.78,-198.19 476.87,-192.45 475.24,-199.25"/>
</a>
</g>
</g>
<!-- Node35 -->
<g id="Node000035" class="node">
<title>Node35</title>
<g id="a_Node000035"><a xlink:href="a01919.html#a9c8e53aad4b86498a6b709c35c156fc3" target="_top" xlink:title=" ">
<polygon fill="white" stroke="#666666" points="725.75,-251.75 618.25,-251.75 618.25,-233.25 725.75,-233.25 725.75,-251.75"/>
<text text-anchor="middle" x="672" y="-238.25" font-family="Helvetica,sans-Serif" font-size="10.00">arax_accel_size_dec</text>
</a>
</g>
</g>
<!-- Node34&#45;&gt;Node35 -->
<g id="edge39_Node000034_Node000035" class="edge">
<title>Node34&#45;&gt;Node35</title>
<g id="a_edge39_Node000034_Node000035"><a xlink:title=" ">
<path fill="none" stroke="#63b8ff" d="M894.64,-213.41C843.15,-220.17 773.36,-229.33 725.95,-235.55"/>
<polygon fill="#63b8ff" stroke="#63b8ff" points="895.03,-216.89 904.49,-212.11 894.12,-209.95 895.03,-216.89"/>
</a>
</g>
</g>
<!-- Node36 -->
<g id="Node000036" class="node">
<title>Node36</title>
<g id="a_Node000036"><a xlink:href="a01931.html#a6cc54ee40009c61b5f6526f5edff004f" target="_top" xlink:title=" ">
<polygon fill="white" stroke="#666666" points="864,-294.75 761.75,-294.75 761.75,-276.25 864,-276.25 864,-294.75"/>
<text text-anchor="middle" x="812.88" y="-281.25" font-family="Helvetica,sans-Serif" font-size="10.00">arax_pipe_size_dec</text>
</a>
</g>
</g>
<!-- Node34&#45;&gt;Node36 -->
<g id="edge41_Node000034_Node000036" class="edge">
<title>Node34&#45;&gt;Node36</title>
<g id="a_edge41_Node000034_Node000036"><a xlink:title=" ">
<path fill="none" stroke="#63b8ff" d="M910.78,-218.25C907.05,-219.84 903.42,-221.58 900,-223.5 881.33,-233.97 881.26,-242.84 864,-255.5 853.7,-263.06 841.39,-270.44 831.55,-276"/>
<polygon fill="#63b8ff" stroke="#63b8ff" points="911.92,-221.56 920.03,-214.74 909.43,-215.02 911.92,-221.56"/>
</a>
</g>
</g>
<!-- Node35&#45;&gt;Node11 -->
<g id="edge40_Node000035_Node000011" class="edge">
<title>Node35&#45;&gt;Node11</title>
<g id="a_edge40_Node000035_Node000011"><a xlink:title=" ">
<path fill="none" stroke="#63b8ff" d="M606.66,-237.66C512.34,-230.57 338.57,-217.51 254.07,-211.16"/>
<polygon fill="#63b8ff" stroke="#63b8ff" points="606.3,-241.15 616.53,-238.41 606.82,-234.17 606.3,-241.15"/>
</a>
</g>
</g>
<!-- Node36&#45;&gt;Node2 -->
<g id="edge42_Node000036_Node000002" class="edge">
<title>Node36&#45;&gt;Node2</title>
<g id="a_edge42_Node000036_Node000002"><a xlink:title=" ">
<path fill="none" stroke="#63b8ff" d="M767.4,-298.31C747.75,-303.97 725.02,-310.52 706.79,-315.77"/>
<polygon fill="#63b8ff" stroke="#63b8ff" points="768.16,-301.73 776.8,-295.6 766.22,-295.01 768.16,-301.73"/>
</a>
</g>
</g>
</g>
</svg>
