<?xml version="1.0" encoding="UTF-8" standalone="no"?>
<!DOCTYPE svg PUBLIC "-//W3C//DTD SVG 1.1//EN"
 "http://www.w3.org/Graphics/SVG/1.1/DTD/svg11.dtd">
<!-- Generated by graphviz version 12.2.1 (0)
 -->
<!-- Title: system_file_size Pages: 1 -->
<svg width="1822pt" height="231pt"
 viewBox="0.00 0.00 1822.00 230.59" xmlns="http://www.w3.org/2000/svg" xmlns:xlink="http://www.w3.org/1999/xlink">
<g id="graph0" class="graph" transform="scale(1 1) rotate(0) translate(4 226.59)">
<title>system_file_size</title>
<!-- Node1 -->
<g id="Node000001" class="node">
<title>Node1</title>
<g id="a_Node000001"><a xlink:title=" ">
<polygon fill="#999999" stroke="#666666" points="1814,-66.5 1726.75,-66.5 1726.75,-48 1814,-48 1814,-66.5"/>
<text text-anchor="middle" x="1770.38" y="-53" font-family="Helvetica,sans-Serif" font-size="10.00">system_file_size</text>
</a>
</g>
</g>
<!-- Node2 -->
<g id="Node000002" class="node">
<title>Node2</title>
<g id="a_Node000002"><a xlink:href="a01952.html#a8b687fb4c464903e23504eea3ddc3873" target="_top" xlink:title=" ">
<polygon fill="white" stroke="#666666" points="1690.75,-85.5 1637.25,-85.5 1637.25,-67 1690.75,-67 1690.75,-85.5"/>
<text text-anchor="middle" x="1664" y="-72" font-family="Helvetica,sans-Serif" font-size="10.00">conf_get</text>
</a>
</g>
</g>
<!-- Node1&#45;&gt;Node2 -->
<g id="edge1_Node000001_Node000002" class="edge">
<title>Node1&#45;&gt;Node2</title>
<g id="a_edge1_Node000001_Node000002"><a xlink:title=" ">
<path fill="none" stroke="#63b8ff" d="M1715.05,-67.14C1706.75,-68.65 1698.53,-70.15 1691.22,-71.48"/>
<polygon fill="#63b8ff" stroke="#63b8ff" points="1715.62,-70.59 1724.83,-65.36 1714.36,-63.71 1715.62,-70.59"/>
</a>
</g>
</g>
<!-- Node24 -->
<g id="Node000024" class="node">
<title>Node24</title>
<g id="a_Node000024"><a xlink:href="a01961.html#ad8ca0aa2e50dbe9c1827c2d4da814cf6" target="_top" xlink:title=" ">
<polygon fill="white" stroke="#666666" points="1586.62,-48.5 1507.62,-48.5 1507.62,-30 1586.62,-30 1586.62,-48.5"/>
<text text-anchor="middle" x="1547.12" y="-35" font-family="Helvetica,sans-Serif" font-size="10.00">system_mmap</text>
</a>
</g>
</g>
<!-- Node1&#45;&gt;Node24 -->
<g id="edge31_Node000001_Node000024" class="edge">
<title>Node1&#45;&gt;Node24</title>
<g id="a_edge31_Node000001_Node000024"><a xlink:title=" ">
<path fill="none" stroke="#63b8ff" d="M1715.1,-52.83C1675.36,-49.6 1622.38,-45.29 1586.85,-42.4"/>
<polygon fill="#63b8ff" stroke="#63b8ff" points="1714.69,-56.31 1724.94,-53.64 1715.26,-49.34 1714.69,-56.31"/>
</a>
</g>
</g>
<!-- Node3 -->
<g id="Node000003" class="node">
<title>Node3</title>
<g id="a_Node000003"><a xlink:href="a01952.html#a0738274ac3fd171eda6bfb42492bc0d7" target="_top" xlink:title=" ">
<polygon fill="white" stroke="#666666" points="1452.5,-85.5 1346.5,-85.5 1346.5,-67 1452.5,-67 1452.5,-85.5"/>
<text text-anchor="middle" x="1399.5" y="-72" font-family="Helvetica,sans-Serif" font-size="10.00">_utils_config_get_str</text>
</a>
</g>
</g>
<!-- Node2&#45;&gt;Node3 -->
<g id="edge2_Node000002_Node000003" class="edge">
<title>Node2&#45;&gt;Node3</title>
<g id="a_edge2_Node000002_Node000003"><a xlink:title=" ">
<path fill="none" stroke="#63b8ff" d="M1625.53,-76.25C1580.29,-76.25 1503.95,-76.25 1452.9,-76.25"/>
<polygon fill="#63b8ff" stroke="#63b8ff" points="1625.36,-79.75 1635.36,-76.25 1625.36,-72.75 1625.36,-79.75"/>
</a>
</g>
</g>
<!-- Node22 -->
<g id="Node000022" class="node">
<title>Node22</title>
<g id="a_Node000022"><a xlink:href="a01952.html#a4b9cd8f5d0c205ac6c1fd30f77cbf539" target="_top" xlink:title=" ">
<polygon fill="white" stroke="#666666" points="1601.25,-122.5 1493,-122.5 1493,-104 1601.25,-104 1601.25,-122.5"/>
<text text-anchor="middle" x="1547.12" y="-109" font-family="Helvetica,sans-Serif" font-size="10.00">utils_config_write_str</text>
</a>
</g>
</g>
<!-- Node2&#45;&gt;Node22 -->
<g id="edge27_Node000002_Node000022" class="edge">
<title>Node2&#45;&gt;Node22</title>
<g id="a_edge27_Node000002_Node000022"><a xlink:title=" ">
<path fill="none" stroke="#63b8ff" d="M1626.13,-88.13C1610.63,-93.12 1592.83,-98.85 1578.15,-103.58"/>
<polygon fill="#63b8ff" stroke="#63b8ff" points="1627.05,-91.51 1635.49,-85.11 1624.9,-84.84 1627.05,-91.51"/>
</a>
</g>
</g>
<!-- Node4 -->
<g id="Node000004" class="node">
<title>Node4</title>
<g id="a_Node000004"><a xlink:href="a01952.html#a1a28ba7c7791236d03b1fa9f81aa6a71" target="_top" xlink:title=" ">
<polygon fill="white" stroke="#666666" points="1306,-103.5 1198.5,-103.5 1198.5,-85 1306,-85 1306,-103.5"/>
<text text-anchor="middle" x="1252.25" y="-90" font-family="Helvetica,sans-Serif" font-size="10.00">utils_config_get_long</text>
</a>
</g>
</g>
<!-- Node3&#45;&gt;Node4 -->
<g id="edge3_Node000003_Node000004" class="edge">
<title>Node3&#45;&gt;Node4</title>
<g id="a_edge3_Node000003_Node000004"><a xlink:title=" ">
<path fill="none" stroke="#63b8ff" d="M1334.91,-84.13C1325.29,-85.32 1315.46,-86.54 1306.1,-87.7"/>
<polygon fill="#63b8ff" stroke="#63b8ff" points="1335.07,-87.64 1344.56,-82.93 1334.2,-80.69 1335.07,-87.64"/>
</a>
</g>
</g>
<!-- Node18 -->
<g id="Node000018" class="node">
<title>Node18</title>
<g id="a_Node000018"><a xlink:href="a01952.html#a1e8deff7c038efae14d1cc98e4ab109f" target="_top" xlink:title=" ">
<polygon fill="white" stroke="#666666" points="1302.62,-159.5 1201.88,-159.5 1201.88,-141 1302.62,-141 1302.62,-159.5"/>
<text text-anchor="middle" x="1252.25" y="-146" font-family="Helvetica,sans-Serif" font-size="10.00">utils_config_get_str</text>
</a>
</g>
</g>
<!-- Node3&#45;&gt;Node18 -->
<g id="edge21_Node000003_Node000018" class="edge">
<title>Node3&#45;&gt;Node18</title>
<g id="a_edge21_Node000003_Node000018"><a xlink:title=" ">
<path fill="none" stroke="#63b8ff" d="M1354.67,-89.87C1350.34,-91.55 1346.05,-93.35 1342,-95.25 1313.79,-108.52 1283.42,-128.79 1266.53,-140.66"/>
<polygon fill="#63b8ff" stroke="#63b8ff" points="1355.81,-93.18 1364.01,-86.47 1353.41,-86.6 1355.81,-93.18"/>
</a>
</g>
</g>
<!-- Node5 -->
<g id="Node000005" class="node">
<title>Node5</title>
<g id="a_Node000005"><a xlink:href="a01952.html#a336fa8eefc3d744aa7248d6786cfee03" target="_top" xlink:title=" ">
<polygon fill="white" stroke="#666666" points="1162.5,-76.5 1062.5,-76.5 1062.5,-58 1162.5,-58 1162.5,-76.5"/>
<text text-anchor="middle" x="1112.5" y="-63" font-family="Helvetica,sans-Serif" font-size="10.00">utils_config_get_int</text>
</a>
</g>
</g>
<!-- Node4&#45;&gt;Node5 -->
<g id="edge4_Node000004_Node000005" class="edge">
<title>Node4&#45;&gt;Node5</title>
<g id="a_edge4_Node000004_Node000005"><a xlink:title=" ">
<path fill="none" stroke="#63b8ff" d="M1190.37,-82.32C1181.11,-80.5 1171.66,-78.65 1162.7,-76.89"/>
<polygon fill="#63b8ff" stroke="#63b8ff" points="1189.55,-85.72 1200.03,-84.21 1190.89,-78.85 1189.55,-85.72"/>
</a>
</g>
</g>
<!-- Node17 -->
<g id="Node000017" class="node">
<title>Node17</title>
<g id="a_Node000017"><a xlink:href="a01952.html#a4a525d89ade920512dc65409bc8e85d8" target="_top" xlink:title=" ">
<polygon fill="white" stroke="#666666" points="880,-150.5 773.25,-150.5 773.25,-132 880,-132 880,-150.5"/>
<text text-anchor="middle" x="826.62" y="-137" font-family="Helvetica,sans-Serif" font-size="10.00">utils_config_get_size</text>
</a>
</g>
</g>
<!-- Node4&#45;&gt;Node17 -->
<g id="edge19_Node000004_Node000017" class="edge">
<title>Node4&#45;&gt;Node17</title>
<g id="a_edge19_Node000004_Node000017"><a xlink:title=" ">
<path fill="none" stroke="#63b8ff" d="M1186.89,-97.81C1119.78,-102.01 1011.67,-110.12 919,-123.25 903.47,-125.45 886.59,-128.57 871.61,-131.59"/>
<polygon fill="#63b8ff" stroke="#63b8ff" points="1186.83,-101.32 1196.6,-97.22 1186.4,-94.34 1186.83,-101.32"/>
</a>
</g>
</g>
<!-- Node6 -->
<g id="Node000006" class="node">
<title>Node6</title>
<g id="a_Node000006"><a xlink:href="a01952.html#aa7aa94ad075bf97a566f01f899fcd859" target="_top" xlink:title=" ">
<polygon fill="white" stroke="#666666" points="1026.5,-76.5 919,-76.5 919,-58 1026.5,-58 1026.5,-76.5"/>
<text text-anchor="middle" x="972.75" y="-63" font-family="Helvetica,sans-Serif" font-size="10.00">utils_config_get_bool</text>
</a>
</g>
</g>
<!-- Node5&#45;&gt;Node6 -->
<g id="edge5_Node000005_Node000006" class="edge">
<title>Node5&#45;&gt;Node6</title>
<g id="a_edge5_Node000005_Node000006"><a xlink:title=" ">
<path fill="none" stroke="#63b8ff" d="M1050.71,-67.25C1042.79,-67.25 1034.72,-67.25 1026.94,-67.25"/>
<polygon fill="#63b8ff" stroke="#63b8ff" points="1050.64,-70.75 1060.64,-67.25 1050.64,-63.75 1050.64,-70.75"/>
</a>
</g>
</g>
<!-- Node7 -->
<g id="Node000007" class="node">
<title>Node7</title>
<g id="a_Node000007"><a xlink:href="a01910.html#a02fd608f651d254148dc74f0ae371dfe" target="_top" xlink:title=" ">
<polygon fill="white" stroke="#666666" points="577.25,-131.5 518.5,-131.5 518.5,-113 577.25,-113 577.25,-131.5"/>
<text text-anchor="middle" x="547.88" y="-118" font-family="Helvetica,sans-Serif" font-size="10.00">_arax_init</text>
</a>
</g>
</g>
<!-- Node6&#45;&gt;Node7 -->
<g id="edge6_Node000006_Node000007" class="edge">
<title>Node6&#45;&gt;Node7</title>
<g id="a_edge6_Node000006_Node000007"><a xlink:title=" ">
<path fill="none" stroke="#63b8ff" d="M907.29,-62.01C834.39,-58.06 712.85,-57.46 613.25,-86.25 594.06,-91.8 574.35,-103.95 561.88,-112.6"/>
<polygon fill="#63b8ff" stroke="#63b8ff" points="906.87,-65.5 917.05,-62.59 907.28,-58.51 906.87,-65.5"/>
</a>
</g>
</g>
<!-- Node15 -->
<g id="Node000015" class="node">
<title>Node15</title>
<g id="a_Node000015"><a xlink:href="a02364.html#ab2e422aab2fcfa562795beb2843e8019" target="_top" xlink:title=" ">
<polygon fill="white" stroke="#666666" points="883,-113.5 770.25,-113.5 770.25,-95 883,-95 883,-113.5"/>
<text text-anchor="middle" x="826.62" y="-100" font-family="Helvetica,sans-Serif" font-size="10.00">async_meta_init_once</text>
</a>
</g>
</g>
<!-- Node6&#45;&gt;Node15 -->
<g id="edge16_Node000006_Node000015" class="edge">
<title>Node6&#45;&gt;Node15</title>
<g id="a_edge16_Node000006_Node000015"><a xlink:title=" ">
<path fill="none" stroke="#63b8ff" d="M922.87,-79.8C904.13,-84.61 883.05,-90.02 865.49,-94.53"/>
<polygon fill="#63b8ff" stroke="#63b8ff" points="923.6,-83.22 932.42,-77.35 921.86,-76.44 923.6,-83.22"/>
</a>
</g>
</g>
<!-- Node8 -->
<g id="Node000008" class="node">
<title>Node8</title>
<g id="a_Node000008"><a xlink:href="a01910.html#aa6e4832b06bd5757be4502d2de7b3026" target="_top" xlink:title=" ">
<polygon fill="white" stroke="#666666" points="482.5,-157.75 384,-157.75 384,-128.75 482.5,-128.75 482.5,-157.75"/>
<text text-anchor="start" x="392" y="-144.25" font-family="Helvetica,sans-Serif" font-size="10.00">arax_controller_init</text>
<text text-anchor="middle" x="433.25" y="-133.75" font-family="Helvetica,sans-Serif" font-size="10.00">_start</text>
</a>
</g>
</g>
<!-- Node7&#45;&gt;Node8 -->
<g id="edge7_Node000007_Node000008" class="edge">
<title>Node7&#45;&gt;Node8</title>
<g id="a_edge7_Node000007_Node000008"><a xlink:title=" ">
<path fill="none" stroke="#63b8ff" d="M507.01,-129.68C499.11,-131.16 490.74,-132.72 482.6,-134.23"/>
<polygon fill="#63b8ff" stroke="#63b8ff" points="507.49,-133.15 516.68,-127.88 506.2,-126.27 507.49,-133.15"/>
</a>
</g>
</g>
<!-- Node9 -->
<g id="Node000009" class="node">
<title>Node9</title>
<g id="a_Node000009"><a xlink:href="a02186.html#gae1d371a2840849690acce147e7a205da" target="_top" xlink:title=" ">
<polygon fill="white" stroke="#666666" points="460,-110.5 406.5,-110.5 406.5,-92 460,-92 460,-110.5"/>
<text text-anchor="middle" x="433.25" y="-97" font-family="Helvetica,sans-Serif" font-size="10.00">arax_init</text>
</a>
</g>
</g>
<!-- Node7&#45;&gt;Node9 -->
<g id="edge8_Node000007_Node000009" class="edge">
<title>Node7&#45;&gt;Node9</title>
<g id="a_edge8_Node000007_Node000009"><a xlink:title=" ">
<path fill="none" stroke="#63b8ff" d="M507.21,-114.85C491.62,-111.95 474.15,-108.69 460.21,-106.09"/>
<polygon fill="#63b8ff" stroke="#63b8ff" points="506.2,-118.23 516.68,-116.62 507.49,-111.35 506.2,-118.23"/>
</a>
</g>
</g>
<!-- Node10 -->
<g id="Node000010" class="node">
<title>Node10</title>
<g id="a_Node000010"><a xlink:href="a01946.html#a8a99bcb12e2ee55d68a029bfca9b6d51" target="_top" xlink:title=" ">
<polygon fill="white" stroke="#666666" points="235.25,-139.75 141.25,-139.75 141.25,-110.75 235.25,-110.75 235.25,-139.75"/>
<text text-anchor="start" x="149.25" y="-126.25" font-family="Helvetica,sans-Serif" font-size="10.00">arax_plot_register</text>
<text text-anchor="middle" x="188.25" y="-115.75" font-family="Helvetica,sans-Serif" font-size="10.00">_metric</text>
</a>
</g>
</g>
<!-- Node9&#45;&gt;Node10 -->
<g id="edge9_Node000009_Node000010" class="edge">
<title>Node9&#45;&gt;Node10</title>
<g id="a_edge9_Node000009_Node000010"><a xlink:title=" ">
<path fill="none" stroke="#63b8ff" d="M394.92,-104.94C352.02,-109.17 281.6,-116.13 235.32,-120.7"/>
<polygon fill="#63b8ff" stroke="#63b8ff" points="395.13,-108.43 404.74,-103.97 394.44,-101.47 395.13,-108.43"/>
</a>
</g>
</g>
<!-- Node11 -->
<g id="Node000011" class="node">
<title>Node11</title>
<g id="a_Node000011"><a xlink:href="a01934.html#a80ab3bf4a8af9bb101b5a53248609771" target="_top" xlink:title=" ">
<polygon fill="white" stroke="#666666" points="348,-92.5 271.25,-92.5 271.25,-74 348,-74 348,-92.5"/>
<text text-anchor="middle" x="309.62" y="-79" font-family="Helvetica,sans-Serif" font-size="10.00">arax_ptr_valid</text>
</a>
</g>
</g>
<!-- Node9&#45;&gt;Node11 -->
<g id="edge10_Node000009_Node000011" class="edge">
<title>Node9&#45;&gt;Node11</title>
<g id="a_edge10_Node000009_Node000011"><a xlink:title=" ">
<path fill="none" stroke="#63b8ff" d="M394.83,-95.71C380.03,-93.52 363.04,-91.01 348.21,-88.81"/>
<polygon fill="#63b8ff" stroke="#63b8ff" points="394.26,-99.17 404.66,-97.17 395.28,-92.24 394.26,-99.17"/>
</a>
</g>
</g>
<!-- Node11&#45;&gt;Node10 -->
<g id="edge15_Node000011_Node000010" class="edge">
<title>Node11&#45;&gt;Node10</title>
<g id="a_edge15_Node000011_Node000010"><a xlink:title=" ">
<path fill="none" stroke="#63b8ff" d="M270.14,-96.79C257.89,-101.1 244.27,-105.89 231.76,-110.29"/>
<polygon fill="#63b8ff" stroke="#63b8ff" points="271.24,-100.11 279.51,-93.49 268.92,-93.51 271.24,-100.11"/>
</a>
</g>
</g>
<!-- Node12 -->
<g id="Node000012" class="node">
<title>Node12</title>
<g id="a_Node000012"><a xlink:href="a01967.html#a4ee1fea325d2edd421f59ab240dfbe54" target="_top" xlink:title=" ">
<polygon fill="white" stroke="#666666" points="234.12,-92.5 142.38,-92.5 142.38,-74 234.12,-74 234.12,-92.5"/>
<text text-anchor="middle" x="188.25" y="-79" font-family="Helvetica,sans-Serif" font-size="10.00">_arax_assert_obj</text>
</a>
</g>
</g>
<!-- Node11&#45;&gt;Node12 -->
<g id="edge11_Node000011_Node000012" class="edge">
<title>Node11&#45;&gt;Node12</title>
<g id="a_edge11_Node000011_Node000012"><a xlink:title=" ">
<path fill="none" stroke="#63b8ff" d="M259.37,-83.25C251.07,-83.25 242.49,-83.25 234.3,-83.25"/>
<polygon fill="#63b8ff" stroke="#63b8ff" points="259.34,-86.75 269.34,-83.25 259.34,-79.75 259.34,-86.75"/>
</a>
</g>
</g>
<!-- Node13 -->
<g id="Node000013" class="node">
<title>Node13</title>
<g id="a_Node000013"><a xlink:href="a01922.html#afeaab7d93372f0752d59c70d9c5940e7" target="_top" xlink:title=" ">
<polygon fill="white" stroke="#666666" points="226.25,-18.5 150.25,-18.5 150.25,0 226.25,0 226.25,-18.5"/>
<text text-anchor="middle" x="188.25" y="-5" font-family="Helvetica,sans-Serif" font-size="10.00">arax_data_ref</text>
</a>
</g>
</g>
<!-- Node11&#45;&gt;Node13 -->
<g id="edge12_Node000011_Node000013" class="edge">
<title>Node11&#45;&gt;Node13</title>
<g id="a_edge12_Node000011_Node000013"><a xlink:title=" ">
<path fill="none" stroke="#63b8ff" d="M286.98,-66.97C272.65,-56.51 253.24,-42.93 235.25,-32.25 227.26,-27.51 218.17,-22.83 210.2,-18.93"/>
<polygon fill="#63b8ff" stroke="#63b8ff" points="284.67,-69.62 294.79,-72.75 288.83,-63.99 284.67,-69.62"/>
</a>
</g>
</g>
<!-- Node14 -->
<g id="Node000014" class="node">
<title>Node14</title>
<g id="a_Node000014"><a xlink:href="a01922.html#ac1f7fb20b3a23b388bea24f1b46a33a8" target="_top" xlink:title=" ">
<polygon fill="white" stroke="#666666" points="105.25,-36.5 0,-36.5 0,-18 105.25,-18 105.25,-36.5"/>
<text text-anchor="middle" x="52.62" y="-23" font-family="Helvetica,sans-Serif" font-size="10.00">arax_data_ref_offset</text>
</a>
</g>
</g>
<!-- Node11&#45;&gt;Node14 -->
<g id="edge14_Node000011_Node000014" class="edge">
<title>Node11&#45;&gt;Node14</title>
<g id="a_edge14_Node000011_Node000014"><a xlink:title=" ">
<path fill="none" stroke="#63b8ff" d="M259.96,-71.06C251.73,-69.07 243.25,-67.07 235.25,-65.25 190.33,-55.04 138.92,-44.38 102.29,-36.96"/>
<polygon fill="#63b8ff" stroke="#63b8ff" points="258.96,-74.42 269.51,-73.39 260.62,-67.62 258.96,-74.42"/>
</a>
</g>
</g>
<!-- Node13&#45;&gt;Node14 -->
<g id="edge13_Node000013_Node000014" class="edge">
<title>Node13&#45;&gt;Node14</title>
<g id="a_edge13_Node000013_Node000014"><a xlink:title=" ">
<path fill="none" stroke="#63b8ff" d="M138.69,-15.79C127.94,-17.24 116.51,-18.78 105.63,-20.25"/>
<polygon fill="#63b8ff" stroke="#63b8ff" points="139.08,-19.27 148.53,-14.47 138.15,-12.33 139.08,-19.27"/>
</a>
</g>
</g>
<!-- Node16 -->
<g id="Node000016" class="node">
<title>Node16</title>
<g id="a_Node000016"><a xlink:href="a01928.html#aa6293e9ec7776aa49ecf632fcc4f5e26" target="_top" xlink:title=" ">
<polygon fill="white" stroke="#666666" points="712.12,-113.5 635.38,-113.5 635.38,-95 712.12,-95 712.12,-113.5"/>
<text text-anchor="middle" x="673.75" y="-100" font-family="Helvetica,sans-Serif" font-size="10.00">arax_pipe_init</text>
</a>
</g>
</g>
<!-- Node15&#45;&gt;Node16 -->
<g id="edge17_Node000015_Node000016" class="edge">
<title>Node15&#45;&gt;Node16</title>
<g id="a_edge17_Node000015_Node000016"><a xlink:title=" ">
<path fill="none" stroke="#63b8ff" d="M758.49,-104.25C742.69,-104.25 726.39,-104.25 712.42,-104.25"/>
<polygon fill="#63b8ff" stroke="#63b8ff" points="758.36,-107.75 768.36,-104.25 758.36,-100.75 758.36,-107.75"/>
</a>
</g>
</g>
<!-- Node16&#45;&gt;Node7 -->
<g id="edge18_Node000016_Node000007" class="edge">
<title>Node16&#45;&gt;Node7</title>
<g id="a_edge18_Node000016_Node000007"><a xlink:title=" ">
<path fill="none" stroke="#63b8ff" d="M623.74,-111.37C608.04,-113.65 591.18,-116.1 577.44,-118.1"/>
<polygon fill="#63b8ff" stroke="#63b8ff" points="624.02,-114.87 633.41,-109.97 623.01,-107.94 624.02,-114.87"/>
</a>
</g>
</g>
<!-- Node17&#45;&gt;Node7 -->
<g id="edge20_Node000017_Node000007" class="edge">
<title>Node17&#45;&gt;Node7</title>
<g id="a_edge20_Node000017_Node000007"><a xlink:title=" ">
<path fill="none" stroke="#63b8ff" d="M761.67,-136.86C703.67,-132.88 620.85,-127.19 577.63,-124.22"/>
<polygon fill="#63b8ff" stroke="#63b8ff" points="761.19,-140.33 771.41,-137.53 761.67,-133.35 761.19,-140.33"/>
</a>
</g>
</g>
<!-- Node18&#45;&gt;Node7 -->
<g id="edge22_Node000018_Node000007" class="edge">
<title>Node18&#45;&gt;Node7</title>
<g id="a_edge22_Node000018_Node000007"><a xlink:title=" ">
<path fill="none" stroke="#63b8ff" d="M1216.61,-164.01C1164.7,-183.35 1063.25,-216.25 973.75,-216.25 973.75,-216.25 973.75,-216.25 825.62,-216.25 730.82,-216.25 697.59,-239.56 613.25,-196.25 584.62,-181.55 563.18,-148.22 553.91,-131.78"/>
<polygon fill="#63b8ff" stroke="#63b8ff" points="1217.68,-167.34 1225.79,-160.53 1215.2,-160.8 1217.68,-167.34"/>
</a>
</g>
</g>
<!-- Node19 -->
<g id="Node000019" class="node">
<title>Node19</title>
<g id="a_Node000019"><a xlink:href="a02186.html#ga4bae55e86ffc384b3c1d2da3580f5c42" target="_top" xlink:title=" ">
<polygon fill="white" stroke="#666666" points="1144.5,-150.5 1080.5,-150.5 1080.5,-132 1144.5,-132 1144.5,-150.5"/>
<text text-anchor="middle" x="1112.5" y="-137" font-family="Helvetica,sans-Serif" font-size="10.00">arax_clean</text>
</a>
</g>
</g>
<!-- Node18&#45;&gt;Node19 -->
<g id="edge23_Node000018_Node000019" class="edge">
<title>Node18&#45;&gt;Node19</title>
<g id="a_edge23_Node000018_Node000019"><a xlink:title=" ">
<path fill="none" stroke="#63b8ff" d="M1190.22,-146.26C1174.5,-145.24 1158.23,-144.17 1144.74,-143.29"/>
<polygon fill="#63b8ff" stroke="#63b8ff" points="1189.8,-149.74 1200.01,-146.9 1190.26,-142.76 1189.8,-149.74"/>
</a>
</g>
</g>
<!-- Node21 -->
<g id="Node000021" class="node">
<title>Node21</title>
<g id="a_Node000021"><a xlink:href="a02364.html#adbaa29dfccfdfe6e3fe69a1d001c05b5" target="_top" xlink:title=" ">
<polygon fill="white" stroke="#666666" points="734.25,-187.5 613.25,-187.5 613.25,-169 734.25,-169 734.25,-187.5"/>
<text text-anchor="middle" x="673.75" y="-174" font-family="Helvetica,sans-Serif" font-size="10.00">async_meta_init_always</text>
</a>
</g>
</g>
<!-- Node18&#45;&gt;Node21 -->
<g id="edge25_Node000018_Node000021" class="edge">
<title>Node18&#45;&gt;Node21</title>
<g id="a_edge25_Node000018_Node000021"><a xlink:title=" ">
<path fill="none" stroke="#63b8ff" d="M1190.33,-156.93C1181.01,-157.81 1171.51,-158.62 1162.5,-159.25 1008.43,-170.05 826.53,-175.1 734.51,-177.12"/>
<polygon fill="#63b8ff" stroke="#63b8ff" points="1190.42,-160.44 1200.03,-155.99 1189.74,-153.47 1190.42,-160.44"/>
</a>
</g>
</g>
<!-- Node20 -->
<g id="Node000020" class="node">
<title>Node20</title>
<g id="a_Node000020"><a xlink:href="a02186.html#ga8ac7e88ed7b8a1e2ff8aa435ac6b58ec" target="_top" xlink:title=" ">
<polygon fill="white" stroke="#666666" points="1001,-150.5 944.5,-150.5 944.5,-132 1001,-132 1001,-150.5"/>
<text text-anchor="middle" x="972.75" y="-137" font-family="Helvetica,sans-Serif" font-size="10.00">arax_exit</text>
</a>
</g>
</g>
<!-- Node19&#45;&gt;Node20 -->
<g id="edge24_Node000019_Node000020" class="edge">
<title>Node19&#45;&gt;Node20</title>
<g id="a_edge24_Node000019_Node000020"><a xlink:title=" ">
<path fill="none" stroke="#63b8ff" d="M1068.82,-141.25C1046.76,-141.25 1020.49,-141.25 1001.16,-141.25"/>
<polygon fill="#63b8ff" stroke="#63b8ff" points="1068.73,-144.75 1078.73,-141.25 1068.73,-137.75 1068.73,-144.75"/>
</a>
</g>
</g>
<!-- Node21&#45;&gt;Node7 -->
<g id="edge26_Node000021_Node000007" class="edge">
<title>Node21&#45;&gt;Node7</title>
<g id="a_edge26_Node000021_Node000007"><a xlink:title=" ">
<path fill="none" stroke="#63b8ff" d="M635.33,-164.47C627.95,-161.57 620.31,-158.41 613.25,-155.25 597.09,-148.01 579.2,-138.73 566.39,-131.86"/>
<polygon fill="#63b8ff" stroke="#63b8ff" points="633.85,-167.65 644.44,-167.99 636.37,-161.12 633.85,-167.65"/>
</a>
</g>
</g>
<!-- Node22&#45;&gt;Node18 -->
<g id="edge28_Node000022_Node000018" class="edge">
<title>Node22&#45;&gt;Node18</title>
<g id="a_edge28_Node000022_Node000018"><a xlink:title=" ">
<path fill="none" stroke="#63b8ff" d="M1491.61,-125.21C1480.21,-127.45 1468.24,-129.6 1457,-131.25 1404.63,-138.96 1344.2,-144.13 1302.83,-147.11"/>
<polygon fill="#63b8ff" stroke="#63b8ff" points="1492.17,-128.67 1501.29,-123.27 1490.79,-121.81 1492.17,-128.67"/>
</a>
</g>
</g>
<!-- Node23 -->
<g id="Node000023" class="node">
<title>Node23</title>
<g id="a_Node000023"><a xlink:href="a01952.html#a88091e179416d4beec1b5681cfb68742" target="_top" xlink:title=" ">
<polygon fill="white" stroke="#666666" points="1457,-122.5 1342,-122.5 1342,-104 1457,-104 1457,-122.5"/>
<text text-anchor="middle" x="1399.5" y="-109" font-family="Helvetica,sans-Serif" font-size="10.00">utils_config_write_long</text>
</a>
</g>
</g>
<!-- Node22&#45;&gt;Node23 -->
<g id="edge29_Node000022_Node000023" class="edge">
<title>Node22&#45;&gt;Node23</title>
<g id="a_edge29_Node000022_Node000023"><a xlink:title=" ">
<path fill="none" stroke="#63b8ff" d="M1481.48,-113.25C1473.43,-113.25 1465.24,-113.25 1457.32,-113.25"/>
<polygon fill="#63b8ff" stroke="#63b8ff" points="1481.21,-116.75 1491.21,-113.25 1481.21,-109.75 1481.21,-116.75"/>
</a>
</g>
</g>
<!-- Node23&#45;&gt;Node4 -->
<g id="edge30_Node000023_Node000004" class="edge">
<title>Node23&#45;&gt;Node4</title>
<g id="a_edge30_Node000023_Node000004"><a xlink:title=" ">
<path fill="none" stroke="#63b8ff" d="M1330.23,-104.32C1322.19,-103.27 1314.07,-102.21 1306.28,-101.19"/>
<polygon fill="#63b8ff" stroke="#63b8ff" points="1329.64,-107.77 1340.01,-105.6 1330.55,-100.83 1329.64,-107.77"/>
</a>
</g>
</g>
<!-- Node24&#45;&gt;Node7 -->
<g id="edge32_Node000024_Node000007" class="edge">
<title>Node24&#45;&gt;Node7</title>
<g id="a_edge32_Node000024_Node000007"><a xlink:title=" ">
<path fill="none" stroke="#63b8ff" d="M1495.83,-36.49C1437.51,-33.53 1338.45,-29.25 1253.25,-29.25 1253.25,-29.25 1253.25,-29.25 825.62,-29.25 730.17,-29.25 699.03,-19.39 613.25,-61.25 588.34,-73.4 566.64,-98.62 555.94,-112.53"/>
<polygon fill="#63b8ff" stroke="#63b8ff" points="1495.61,-39.98 1505.78,-37 1495.97,-32.99 1495.61,-39.98"/>
</a>
</g>
</g>
</g>
</svg>
