<?xml version="1.0" encoding="UTF-8" standalone="no"?>
<!DOCTYPE svg PUBLIC "-//W3C//DTD SVG 1.1//EN"
 "http://www.w3.org/Graphics/SVG/1.1/DTD/svg11.dtd">
<!-- Generated by graphviz version 12.2.1 (0)
 -->
<!-- Title: utils_config_get_int Pages: 1 -->
<svg width="913pt" height="77pt"
 viewBox="0.00 0.00 912.75 77.48" xmlns="http://www.w3.org/2000/svg" xmlns:xlink="http://www.w3.org/1999/xlink">
<g id="graph0" class="graph" transform="scale(1 1) rotate(0) translate(4 73.48)">
<title>utils_config_get_int</title>
<!-- Node1 -->
<g id="Node000001" class="node">
<title>Node1</title>
<g id="a_Node000001"><a xlink:title=" ">
<polygon fill="#999999" stroke="#666666" points="100,-36.5 0,-36.5 0,-18 100,-18 100,-36.5"/>
<text text-anchor="middle" x="50" y="-23" font-family="Helvetica,sans-Serif" font-size="10.00">utils_config_get_int</text>
</a>
</g>
</g>
<!-- Node2 -->
<g id="Node000002" class="node">
<title>Node2</title>
<g id="a_Node000002"><a xlink:href="a01952.html#a1a28ba7c7791236d03b1fa9f81aa6a71" target="_top" xlink:title=" ">
<polygon fill="white" stroke="#666666" points="243.5,-36.5 136,-36.5 136,-18 243.5,-18 243.5,-36.5"/>
<text text-anchor="middle" x="189.75" y="-23" font-family="Helvetica,sans-Serif" font-size="10.00">utils_config_get_long</text>
</a>
</g>
</g>
<!-- Node1&#45;&gt;Node2 -->
<g id="edge1_Node000001_Node000002" class="edge">
<title>Node1&#45;&gt;Node2</title>
<g id="a_edge1_Node000001_Node000002"><a xlink:title=" ">
<path fill="none" stroke="#63b8ff" d="M100.34,-27.25C108.11,-27.25 116.23,-27.25 124.28,-27.25"/>
<polygon fill="#63b8ff" stroke="#63b8ff" points="124.04,-30.75 134.04,-27.25 124.04,-23.75 124.04,-30.75"/>
</a>
</g>
</g>
<!-- Node3 -->
<g id="Node000003" class="node">
<title>Node3</title>
<g id="a_Node000003"><a xlink:href="a01952.html#a0738274ac3fd171eda6bfb42492bc0d7" target="_top" xlink:title=" ">
<polygon fill="white" stroke="#666666" points="537.62,-55.5 431.62,-55.5 431.62,-37 537.62,-37 537.62,-55.5"/>
<text text-anchor="middle" x="484.62" y="-42" font-family="Helvetica,sans-Serif" font-size="10.00">_utils_config_get_str</text>
</a>
</g>
</g>
<!-- Node2&#45;&gt;Node3 -->
<g id="edge2_Node000002_Node000003" class="edge">
<title>Node2&#45;&gt;Node3</title>
<g id="a_edge2_Node000002_Node000003"><a xlink:title=" ">
<path fill="none" stroke="#63b8ff" d="M243.79,-30.69C293.39,-33.91 367.53,-38.72 420.24,-42.14"/>
<polygon fill="#63b8ff" stroke="#63b8ff" points="419.76,-45.61 429.96,-42.77 420.21,-38.63 419.76,-45.61"/>
</a>
</g>
</g>
<!-- Node8 -->
<g id="Node000008" class="node">
<title>Node8</title>
<g id="a_Node000008"><a xlink:href="a01952.html#a88091e179416d4beec1b5681cfb68742" target="_top" xlink:title=" ">
<polygon fill="white" stroke="#666666" points="394.5,-18.5 279.5,-18.5 279.5,0 394.5,0 394.5,-18.5"/>
<text text-anchor="middle" x="337" y="-5" font-family="Helvetica,sans-Serif" font-size="10.00">utils_config_write_long</text>
</a>
</g>
</g>
<!-- Node2&#45;&gt;Node8 -->
<g id="edge8_Node000002_Node000008" class="edge">
<title>Node2&#45;&gt;Node8</title>
<g id="a_edge8_Node000002_Node000008"><a xlink:title=" ">
<path fill="none" stroke="#63b8ff" d="M243.6,-20.7C251.43,-19.73 259.59,-18.72 267.68,-17.72"/>
<polygon fill="#63b8ff" stroke="#63b8ff" points="268.03,-21.2 277.52,-16.5 267.17,-14.25 268.03,-21.2"/>
</a>
</g>
</g>
<!-- Node4 -->
<g id="Node000004" class="node">
<title>Node4</title>
<g id="a_Node000004"><a xlink:href="a01952.html#a8b687fb4c464903e23504eea3ddc3873" target="_top" xlink:title=" ">
<polygon fill="white" stroke="#666666" points="628.25,-55.5 574.75,-55.5 574.75,-37 628.25,-37 628.25,-55.5"/>
<text text-anchor="middle" x="601.5" y="-42" font-family="Helvetica,sans-Serif" font-size="10.00">conf_get</text>
</a>
</g>
</g>
<!-- Node3&#45;&gt;Node4 -->
<g id="edge3_Node000003_Node000004" class="edge">
<title>Node3&#45;&gt;Node4</title>
<g id="a_edge3_Node000003_Node000004"><a xlink:title=" ">
<path fill="none" stroke="#63b8ff" d="M538.02,-46.25C546.53,-46.25 555.19,-46.25 563.24,-46.25"/>
<polygon fill="#63b8ff" stroke="#63b8ff" points="563,-49.75 573,-46.25 563,-42.75 563,-49.75"/>
</a>
</g>
</g>
<!-- Node5 -->
<g id="Node000005" class="node">
<title>Node5</title>
<g id="a_Node000005"><a xlink:href="a01961.html#acde493d3889d6f207d1e122cf4bb1b8c" target="_top" xlink:title=" ">
<polygon fill="white" stroke="#666666" points="904.75,-55.5 819,-55.5 819,-37 904.75,-37 904.75,-55.5"/>
<text text-anchor="middle" x="861.88" y="-42" font-family="Helvetica,sans-Serif" font-size="10.00">system_env_var</text>
</a>
</g>
</g>
<!-- Node4&#45;&gt;Node5 -->
<g id="edge4_Node000004_Node000005" class="edge">
<title>Node4&#45;&gt;Node5</title>
<g id="a_edge4_Node000004_Node000005"><a xlink:title=" ">
<path fill="none" stroke="#63b8ff" d="M628.58,-55.63C639.46,-59.08 652.31,-62.55 664.25,-64.25 716.5,-71.71 730.56,-70.23 783,-64.25 793.63,-63.04 804.92,-60.92 815.51,-58.56"/>
<polygon fill="#63b8ff" stroke="#63b8ff" points="816.26,-61.98 825.19,-56.27 814.66,-55.16 816.26,-61.98"/>
</a>
</g>
</g>
<!-- Node6 -->
<g id="Node000006" class="node">
<title>Node6</title>
<g id="a_Node000006"><a xlink:href="a01961.html#a86c3bfbf6daaf8172e131aa23dc7393c" target="_top" xlink:title=" ">
<polygon fill="white" stroke="#666666" points="767.25,-55.5 680,-55.5 680,-37 767.25,-37 767.25,-55.5"/>
<text text-anchor="middle" x="723.62" y="-42" font-family="Helvetica,sans-Serif" font-size="10.00">system_file_size</text>
</a>
</g>
</g>
<!-- Node4&#45;&gt;Node6 -->
<g id="edge5_Node000004_Node000006" class="edge">
<title>Node4&#45;&gt;Node6</title>
<g id="a_edge5_Node000004_Node000006"><a xlink:title=" ">
<path fill="none" stroke="#63b8ff" d="M628.57,-46.25C640.21,-46.25 654.4,-46.25 668.18,-46.25"/>
<polygon fill="#63b8ff" stroke="#63b8ff" points="668.09,-49.75 678.09,-46.25 668.09,-42.75 668.09,-49.75"/>
</a>
</g>
</g>
<!-- Node7 -->
<g id="Node000007" class="node">
<title>Node7</title>
<g id="a_Node000007"><a xlink:href="a01952.html#a17713c8e9b90065e23b0ec1a225f79ab" target="_top" xlink:title=" ">
<polygon fill="white" stroke="#666666" points="783,-18.5 664.25,-18.5 664.25,0 783,0 783,-18.5"/>
<text text-anchor="middle" x="723.62" y="-5" font-family="Helvetica,sans-Serif" font-size="10.00">utils_config_get_source</text>
</a>
</g>
</g>
<!-- Node4&#45;&gt;Node7 -->
<g id="edge6_Node000004_Node000007" class="edge">
<title>Node4&#45;&gt;Node7</title>
<g id="a_edge6_Node000004_Node000007"><a xlink:title=" ">
<path fill="none" stroke="#63b8ff" d="M628.57,-38.22C643.62,-33.58 662.93,-27.64 680.13,-22.34"/>
<polygon fill="#63b8ff" stroke="#63b8ff" points="681.09,-25.71 689.61,-19.42 679.03,-19.02 681.09,-25.71"/>
</a>
</g>
</g>
<!-- Node7&#45;&gt;Node5 -->
<g id="edge7_Node000007_Node000005" class="edge">
<title>Node7&#45;&gt;Node5</title>
<g id="a_edge7_Node000007_Node000005"><a xlink:title=" ">
<path fill="none" stroke="#63b8ff" d="M760.42,-18.97C776.93,-23.45 796.73,-28.83 814.38,-33.62"/>
<polygon fill="#63b8ff" stroke="#63b8ff" points="813.29,-36.95 823.86,-36.2 815.12,-30.2 813.29,-36.95"/>
</a>
</g>
</g>
<!-- Node9 -->
<g id="Node000009" class="node">
<title>Node9</title>
<g id="a_Node000009"><a xlink:href="a01952.html#a4b9cd8f5d0c205ac6c1fd30f77cbf539" target="_top" xlink:title=" ">
<polygon fill="white" stroke="#666666" points="538.75,-18.5 430.5,-18.5 430.5,0 538.75,0 538.75,-18.5"/>
<text text-anchor="middle" x="484.62" y="-5" font-family="Helvetica,sans-Serif" font-size="10.00">utils_config_write_str</text>
</a>
</g>
</g>
<!-- Node8&#45;&gt;Node9 -->
<g id="edge9_Node000008_Node000009" class="edge">
<title>Node8&#45;&gt;Node9</title>
<g id="a_edge9_Node000008_Node000009"><a xlink:title=" ">
<path fill="none" stroke="#63b8ff" d="M394.72,-9.25C402.64,-9.25 410.84,-9.25 418.9,-9.25"/>
<polygon fill="#63b8ff" stroke="#63b8ff" points="418.65,-12.75 428.65,-9.25 418.65,-5.75 418.65,-12.75"/>
</a>
</g>
</g>
<!-- Node9&#45;&gt;Node4 -->
<g id="edge10_Node000009_Node000004" class="edge">
<title>Node9&#45;&gt;Node4</title>
<g id="a_edge10_Node000009_Node000004"><a xlink:title=" ">
<path fill="none" stroke="#63b8ff" d="M515.81,-18.97C530.46,-23.69 548.2,-29.41 563.65,-34.38"/>
<polygon fill="#63b8ff" stroke="#63b8ff" points="562.39,-37.65 572.98,-37.39 564.53,-30.99 562.39,-37.65"/>
</a>
</g>
</g>
<!-- Node10 -->
<g id="Node000010" class="node">
<title>Node10</title>
<g id="a_Node000010"><a xlink:href="a01952.html#ab87e9691e65d65348749f8dc70f24602" target="_top" xlink:title=" ">
<polygon fill="white" stroke="#666666" points="628.25,-18.5 574.75,-18.5 574.75,0 628.25,0 628.25,-18.5"/>
<text text-anchor="middle" x="601.5" y="-5" font-family="Helvetica,sans-Serif" font-size="10.00">conf_set</text>
</a>
</g>
</g>
<!-- Node9&#45;&gt;Node10 -->
<g id="edge11_Node000009_Node000010" class="edge">
<title>Node9&#45;&gt;Node10</title>
<g id="a_edge11_Node000009_Node000010"><a xlink:title=" ">
<path fill="none" stroke="#63b8ff" d="M539.03,-9.25C547.1,-9.25 555.28,-9.25 562.93,-9.25"/>
<polygon fill="#63b8ff" stroke="#63b8ff" points="562.9,-12.75 572.9,-9.25 562.9,-5.75 562.9,-12.75"/>
</a>
</g>
</g>
<!-- Node10&#45;&gt;Node7 -->
<g id="edge12_Node000010_Node000007" class="edge">
<title>Node10&#45;&gt;Node7</title>
<g id="a_edge12_Node000010_Node000007"><a xlink:title=" ">
<path fill="none" stroke="#63b8ff" d="M628.57,-9.25C635.86,-9.25 644.15,-9.25 652.71,-9.25"/>
<polygon fill="#63b8ff" stroke="#63b8ff" points="652.56,-12.75 662.56,-9.25 652.56,-5.75 652.56,-12.75"/>
</a>
</g>
</g>
</g>
</svg>
