<?xml version="1.0" encoding="UTF-8" standalone="no"?>
<!DOCTYPE svg PUBLIC "-//W3C//DTD SVG 1.1//EN"
 "http://www.w3.org/Graphics/SVG/1.1/DTD/svg11.dtd">
<!-- Generated by graphviz version 12.2.1 (0)
 -->
<!-- Title: compat.h Pages: 1 -->
<svg width="1119pt" height="463pt"
 viewBox="0.00 0.00 1118.82 462.50" xmlns="http://www.w3.org/2000/svg" xmlns:xlink="http://www.w3.org/1999/xlink">
<g id="graph0" class="graph" transform="scale(1 1) rotate(0) translate(4 458.5)">
<title>compat.h</title>
<!-- Node1 -->
<g id="Node000001" class="node">
<title>Node1</title>
<g id="a_Node000001"><a xlink:title=" ">
<polygon fill="#999999" stroke="#666666" points="780.75,-454.5 725,-454.5 725,-436 780.75,-436 780.75,-454.5"/>
<text text-anchor="middle" x="752.88" y="-441" font-family="Helvetica,sans-Serif" font-size="10.00">compat.h</text>
</a>
</g>
</g>
<!-- Node2 -->
<g id="Node000002" class="node">
<title>Node2</title>
<g id="a_Node000002"><a xlink:href="a01373.html" target="_top" xlink:title=" ">
<polygon fill="white" stroke="#666666" points="713.88,-400 637.88,-400 637.88,-381.5 713.88,-381.5 713.88,-400"/>
<text text-anchor="middle" x="675.88" y="-386.5" font-family="Helvetica,sans-Serif" font-size="10.00">arax_assert.h</text>
</a>
</g>
</g>
<!-- Node1&#45;&gt;Node2 -->
<g id="edge1_Node000001_Node000002" class="edge">
<title>Node1&#45;&gt;Node2</title>
<g id="a_edge1_Node000001_Node000002"><a xlink:title=" ">
<path fill="none" stroke="#63b8ff" d="M730.93,-429.29C717.24,-419.95 700.1,-408.26 688.61,-400.43"/>
<polygon fill="#63b8ff" stroke="#63b8ff" points="728.68,-431.99 738.91,-434.73 732.62,-426.2 728.68,-431.99"/>
</a>
</g>
</g>
<!-- Node39 -->
<g id="Node000039" class="node">
<title>Node39</title>
<g id="a_Node000039"><a xlink:href="a01421.html" target="_top" xlink:title=" ">
<polygon fill="white" stroke="#666666" points="1049,-291 988.75,-291 988.75,-272.5 1049,-272.5 1049,-291"/>
<text text-anchor="middle" x="1018.88" y="-277.5" font-family="Helvetica,sans-Serif" font-size="10.00">arax_ptr.h</text>
</a>
</g>
</g>
<!-- Node1&#45;&gt;Node39 -->
<g id="edge57_Node000001_Node000039" class="edge">
<title>Node1&#45;&gt;Node39</title>
<g id="a_edge57_Node000001_Node000039"><a xlink:title=" ">
<path fill="none" stroke="#63b8ff" d="M776.94,-429.64C831.08,-396.77 961.11,-317.82 1004.5,-291.48"/>
<polygon fill="#63b8ff" stroke="#63b8ff" points="775.2,-426.6 768.47,-434.78 778.83,-432.58 775.2,-426.6"/>
</a>
</g>
</g>
<!-- Node3 -->
<g id="Node000003" class="node">
<title>Node3</title>
<g id="a_Node000003"><a xlink:href="a01967.html" target="_top" xlink:title=" ">
<polygon fill="white" stroke="#666666" points="658.88,-236.5 582.88,-236.5 582.88,-218 658.88,-218 658.88,-236.5"/>
<text text-anchor="middle" x="620.88" y="-223" font-family="Helvetica,sans-Serif" font-size="10.00">arax_assert.c</text>
</a>
</g>
</g>
<!-- Node2&#45;&gt;Node3 -->
<g id="edge2_Node000002_Node000003" class="edge">
<title>Node2&#45;&gt;Node3</title>
<g id="a_edge2_Node000002_Node000003"><a xlink:title=" ">
<path fill="none" stroke="#63b8ff" d="M669.26,-370.34C657.28,-335.14 632.41,-262.11 623.85,-236.98"/>
<polygon fill="#63b8ff" stroke="#63b8ff" points="665.89,-371.3 672.43,-379.63 672.52,-369.04 665.89,-371.3"/>
</a>
</g>
</g>
<!-- Node4 -->
<g id="Node000004" class="node">
<title>Node4</title>
<g id="a_Node000004"><a xlink:href="a01940.html" target="_top" xlink:title=" ">
<polygon fill="white" stroke="#666666" points="560.38,-345.5 481.38,-345.5 481.38,-327 560.38,-327 560.38,-345.5"/>
<text text-anchor="middle" x="520.88" y="-332" font-family="Helvetica,sans-Serif" font-size="10.00">arax_throttle.c</text>
</a>
</g>
</g>
<!-- Node2&#45;&gt;Node4 -->
<g id="edge3_Node000002_Node000004" class="edge">
<title>Node2&#45;&gt;Node4</title>
<g id="a_edge3_Node000002_Node000004"><a xlink:title=" ">
<path fill="none" stroke="#63b8ff" d="M639.51,-377.43C610.95,-367.76 571.88,-354.52 546.51,-345.93"/>
<polygon fill="#63b8ff" stroke="#63b8ff" points="638.25,-380.7 648.85,-380.6 640.5,-374.07 638.25,-380.7"/>
</a>
</g>
</g>
<!-- Node5 -->
<g id="Node000005" class="node">
<title>Node5</title>
<g id="a_Node000005"><a xlink:href="a01952.html" target="_top" xlink:title=" ">
<polygon fill="white" stroke="#666666" points="629.12,-345.5 578.62,-345.5 578.62,-327 629.12,-327 629.12,-345.5"/>
<text text-anchor="middle" x="603.88" y="-332" font-family="Helvetica,sans-Serif" font-size="10.00">config.c</text>
</a>
</g>
</g>
<!-- Node2&#45;&gt;Node5 -->
<g id="edge4_Node000002_Node000005" class="edge">
<title>Node2&#45;&gt;Node5</title>
<g id="a_edge4_Node000002_Node000005"><a xlink:title=" ">
<path fill="none" stroke="#63b8ff" d="M654.92,-374.47C642.1,-365.12 626.16,-353.5 615.54,-345.76"/>
<polygon fill="#63b8ff" stroke="#63b8ff" points="652.62,-377.13 662.76,-380.19 656.74,-371.47 652.62,-377.13"/>
</a>
</g>
</g>
<!-- Node6 -->
<g id="Node000006" class="node">
<title>Node6</title>
<g id="a_Node000006"><a xlink:href="a01958.html" target="_top" xlink:title=" ">
<polygon fill="white" stroke="#666666" points="727.12,-236.5 676.62,-236.5 676.62,-218 727.12,-218 727.12,-236.5"/>
<text text-anchor="middle" x="701.88" y="-223" font-family="Helvetica,sans-Serif" font-size="10.00">queue.c</text>
</a>
</g>
</g>
<!-- Node2&#45;&gt;Node6 -->
<g id="edge5_Node000002_Node000006" class="edge">
<title>Node2&#45;&gt;Node6</title>
<g id="a_edge5_Node000002_Node000006"><a xlink:title=" ">
<path fill="none" stroke="#63b8ff" d="M679.08,-369.87C684.77,-334.5 696.44,-262 700.47,-236.98"/>
<polygon fill="#63b8ff" stroke="#63b8ff" points="675.65,-369.14 677.51,-379.57 682.56,-370.26 675.65,-369.14"/>
</a>
</g>
</g>
<!-- Node7 -->
<g id="Node000007" class="node">
<title>Node7</title>
<g id="a_Node000007"><a xlink:href="a01394.html" target="_top" xlink:title=" ">
<polygon fill="white" stroke="#666666" points="783,-345.5 722.75,-345.5 722.75,-327 783,-327 783,-345.5"/>
<text text-anchor="middle" x="752.88" y="-332" font-family="Helvetica,sans-Serif" font-size="10.00">spinlock.h</text>
</a>
</g>
</g>
<!-- Node2&#45;&gt;Node7 -->
<g id="edge6_Node000002_Node000007" class="edge">
<title>Node2&#45;&gt;Node7</title>
<g id="a_edge6_Node000002_Node000007"><a xlink:title=" ">
<path fill="none" stroke="#63b8ff" d="M697.82,-374.79C711.51,-365.45 728.65,-353.76 740.14,-345.93"/>
<polygon fill="#63b8ff" stroke="#63b8ff" points="696.13,-371.7 689.84,-380.23 700.07,-377.49 696.13,-371.7"/>
</a>
</g>
</g>
<!-- Node8 -->
<g id="Node000008" class="node">
<title>Node8</title>
<g id="a_Node000008"><a xlink:href="a01370.html" target="_top" xlink:title=" ">
<polygon fill="white" stroke="#666666" points="952.62,-291 917.12,-291 917.12,-272.5 952.62,-272.5 952.62,-291"/>
<text text-anchor="middle" x="934.88" y="-277.5" font-family="Helvetica,sans-Serif" font-size="10.00">Kv.h</text>
</a>
</g>
</g>
<!-- Node7&#45;&gt;Node8 -->
<g id="edge7_Node000007_Node000008" class="edge">
<title>Node7&#45;&gt;Node8</title>
<g id="a_edge7_Node000007_Node000008"><a xlink:title=" ">
<path fill="none" stroke="#63b8ff" d="M793.81,-323.44C832.44,-312.3 888.53,-296.12 916.94,-287.92"/>
<polygon fill="#63b8ff" stroke="#63b8ff" points="793.02,-320.03 784.38,-326.16 794.96,-326.75 793.02,-320.03"/>
</a>
</g>
</g>
<!-- Node20 -->
<g id="Node000020" class="node">
<title>Node20</title>
<g id="a_Node000020"><a xlink:href="a01415.html" target="_top" xlink:title=" ">
<polygon fill="white" stroke="#666666" points="445.12,-291 370.62,-291 370.62,-272.5 445.12,-272.5 445.12,-291"/>
<text text-anchor="middle" x="407.88" y="-277.5" font-family="Helvetica,sans-Serif" font-size="10.00">arax_object.h</text>
</a>
</g>
</g>
<!-- Node7&#45;&gt;Node20 -->
<g id="edge19_Node000007_Node000020" class="edge">
<title>Node7&#45;&gt;Node20</title>
<g id="a_edge19_Node000007_Node000020"><a xlink:title=" ">
<path fill="none" stroke="#63b8ff" d="M711.18,-328.9C643.4,-318.59 510.37,-298.35 445.39,-288.46"/>
<polygon fill="#63b8ff" stroke="#63b8ff" points="710.35,-332.32 720.76,-330.36 711.4,-325.4 710.35,-332.32"/>
</a>
</g>
</g>
<!-- Node34 -->
<g id="Node000034" class="node">
<title>Node34</title>
<g id="a_Node000034"><a xlink:href="a01379.html" target="_top" xlink:title=" ">
<polygon fill="white" stroke="#666666" points="844.62,-291 791.12,-291 791.12,-272.5 844.62,-272.5 844.62,-291"/>
<text text-anchor="middle" x="817.88" y="-277.5" font-family="Helvetica,sans-Serif" font-size="10.00">bitmap.h</text>
</a>
</g>
</g>
<!-- Node7&#45;&gt;Node34 -->
<g id="edge48_Node000007_Node000034" class="edge">
<title>Node7&#45;&gt;Node34</title>
<g id="a_edge48_Node000007_Node000034"><a xlink:title=" ">
<path fill="none" stroke="#63b8ff" d="M772.47,-319.42C783.93,-310.17 797.94,-298.85 807.34,-291.26"/>
<polygon fill="#63b8ff" stroke="#63b8ff" points="770.37,-316.62 764.79,-325.63 774.76,-322.07 770.37,-316.62"/>
</a>
</g>
</g>
<!-- Node38 -->
<g id="Node000038" class="node">
<title>Node38</title>
<g id="a_Node000038"><a xlink:href="a01391.html" target="_top" xlink:title=" ">
<polygon fill="white" stroke="#666666" points="773.12,-291 722.62,-291 722.62,-272.5 773.12,-272.5 773.12,-291"/>
<text text-anchor="middle" x="747.88" y="-277.5" font-family="Helvetica,sans-Serif" font-size="10.00">queue.h</text>
</a>
</g>
</g>
<!-- Node7&#45;&gt;Node38 -->
<g id="edge53_Node000007_Node000038" class="edge">
<title>Node7&#45;&gt;Node38</title>
<g id="a_edge53_Node000007_Node000038"><a xlink:title=" ">
<path fill="none" stroke="#63b8ff" d="M750.96,-315.14C750.17,-306.86 749.3,-297.71 748.69,-291.26"/>
<polygon fill="#63b8ff" stroke="#63b8ff" points="747.47,-315.45 751.91,-325.07 754.44,-314.79 747.47,-315.45"/>
</a>
</g>
</g>
<!-- Node9 -->
<g id="Node000009" class="node">
<title>Node9</title>
<g id="a_Node000009"><a xlink:href="a01964.html" target="_top" xlink:title=" ">
<polygon fill="white" stroke="#666666" points="952.62,-236.5 917.12,-236.5 917.12,-218 952.62,-218 952.62,-236.5"/>
<text text-anchor="middle" x="934.88" y="-223" font-family="Helvetica,sans-Serif" font-size="10.00">Kv.c</text>
</a>
</g>
</g>
<!-- Node8&#45;&gt;Node9 -->
<g id="edge8_Node000008_Node000009" class="edge">
<title>Node8&#45;&gt;Node9</title>
<g id="a_edge8_Node000008_Node000009"><a xlink:title=" ">
<path fill="none" stroke="#63b8ff" d="M934.88,-260.64C934.88,-252.36 934.88,-243.21 934.88,-236.76"/>
<polygon fill="#63b8ff" stroke="#63b8ff" points="931.38,-260.57 934.88,-270.57 938.38,-260.57 931.38,-260.57"/>
</a>
</g>
</g>
<!-- Node10 -->
<g id="Node000010" class="node">
<title>Node10</title>
<g id="a_Node000010"><a xlink:href="a01358.html" target="_top" xlink:title=" ">
<polygon fill="white" stroke="#666666" points="739.38,-127.5 672.38,-127.5 672.38,-109 739.38,-109 739.38,-127.5"/>
<text text-anchor="middle" x="705.88" y="-114" font-family="Helvetica,sans-Serif" font-size="10.00">arax_pipe.h</text>
</a>
</g>
</g>
<!-- Node8&#45;&gt;Node10 -->
<g id="edge9_Node000008_Node000010" class="edge">
<title>Node8&#45;&gt;Node10</title>
<g id="a_edge9_Node000008_Node000010"><a xlink:title=" ">
<path fill="none" stroke="#63b8ff" d="M950.1,-263.43C959.2,-250.9 967.92,-233.52 961.88,-218 949.95,-187.37 940.4,-179.83 911.88,-163.5 857.12,-132.15 782.62,-122.96 739.85,-120.29"/>
<polygon fill="#63b8ff" stroke="#63b8ff" points="947.46,-261.13 943.95,-271.12 952.93,-265.5 947.46,-261.13"/>
</a>
</g>
</g>
<!-- Node11 -->
<g id="Node000011" class="node">
<title>Node11</title>
<g id="a_Node000011"><a xlink:href="a01916.html" target="_top" xlink:title=" ">
<polygon fill="white" stroke="#666666" points="742,-73 669.75,-73 669.75,-54.5 742,-54.5 742,-73"/>
<text text-anchor="middle" x="705.88" y="-59.5" font-family="Helvetica,sans-Serif" font-size="10.00">arax_accel.c</text>
</a>
</g>
</g>
<!-- Node10&#45;&gt;Node11 -->
<g id="edge10_Node000010_Node000011" class="edge">
<title>Node10&#45;&gt;Node11</title>
<g id="a_edge10_Node000010_Node000011"><a xlink:title=" ">
<path fill="none" stroke="#63b8ff" d="M705.88,-97.14C705.88,-88.86 705.88,-79.71 705.88,-73.26"/>
<polygon fill="#63b8ff" stroke="#63b8ff" points="702.38,-97.07 705.88,-107.07 709.38,-97.07 702.38,-97.07"/>
</a>
</g>
</g>
<!-- Node12 -->
<g id="Node000012" class="node">
<title>Node12</title>
<g id="a_Node000012"><a xlink:href="a01922.html" target="_top" xlink:title=" ">
<polygon fill="white" stroke="#666666" points="491.75,-18.5 424,-18.5 424,0 491.75,0 491.75,-18.5"/>
<text text-anchor="middle" x="457.88" y="-5" font-family="Helvetica,sans-Serif" font-size="10.00">arax_data.c</text>
</a>
</g>
</g>
<!-- Node10&#45;&gt;Node12 -->
<g id="edge11_Node000010_Node000012" class="edge">
<title>Node10&#45;&gt;Node12</title>
<g id="a_edge11_Node000010_Node000012"><a xlink:title=" ">
<path fill="none" stroke="#63b8ff" d="M688.69,-101.07C672.77,-86.89 647.84,-66.7 622.88,-54.5 580.24,-33.66 526.45,-21.58 492.1,-15.46"/>
<polygon fill="#63b8ff" stroke="#63b8ff" points="686.09,-103.44 695.84,-107.59 690.81,-98.27 686.09,-103.44"/>
</a>
</g>
</g>
<!-- Node13 -->
<g id="Node000013" class="node">
<title>Node13</title>
<g id="a_Node000013"><a xlink:href="a01925.html" target="_top" xlink:title=" ">
<polygon fill="white" stroke="#666666" points="310.12,-73 235.62,-73 235.62,-54.5 310.12,-54.5 310.12,-73"/>
<text text-anchor="middle" x="272.88" y="-59.5" font-family="Helvetica,sans-Serif" font-size="10.00">arax_object.c</text>
</a>
</g>
</g>
<!-- Node10&#45;&gt;Node13 -->
<g id="edge12_Node000010_Node000013" class="edge">
<title>Node10&#45;&gt;Node13</title>
<g id="a_edge12_Node000010_Node000013"><a xlink:title=" ">
<path fill="none" stroke="#63b8ff" d="M660.76,-113.03C588.44,-106.06 442.15,-91.08 318.88,-73 316.15,-72.6 313.33,-72.16 310.5,-71.7"/>
<polygon fill="#63b8ff" stroke="#63b8ff" points="660.34,-116.51 670.63,-113.98 661.01,-109.54 660.34,-116.51"/>
</a>
</g>
</g>
<!-- Node14 -->
<g id="Node000014" class="node">
<title>Node14</title>
<g id="a_Node000014"><a xlink:href="a01928.html" target="_top" xlink:title=" ">
<polygon fill="white" stroke="#666666" points="827.38,-73 760.38,-73 760.38,-54.5 827.38,-54.5 827.38,-73"/>
<text text-anchor="middle" x="793.88" y="-59.5" font-family="Helvetica,sans-Serif" font-size="10.00">arax_pipe.c</text>
</a>
</g>
</g>
<!-- Node10&#45;&gt;Node14 -->
<g id="edge13_Node000010_Node000014" class="edge">
<title>Node10&#45;&gt;Node14</title>
<g id="a_edge13_Node000010_Node000014"><a xlink:title=" ">
<path fill="none" stroke="#63b8ff" d="M730.05,-102.83C745.84,-93.41 765.94,-81.42 779.32,-73.43"/>
<polygon fill="#63b8ff" stroke="#63b8ff" points="728.5,-99.68 721.71,-107.81 732.09,-105.69 728.5,-99.68"/>
</a>
</g>
</g>
<!-- Node15 -->
<g id="Node000015" class="node">
<title>Node15</title>
<g id="a_Node000015"><a xlink:href="a01946.html" target="_top" xlink:title=" ">
<polygon fill="white" stroke="#666666" points="1003.88,-73 939.88,-73 939.88,-54.5 1003.88,-54.5 1003.88,-73"/>
<text text-anchor="middle" x="971.88" y="-59.5" font-family="Helvetica,sans-Serif" font-size="10.00">arax_plot.c</text>
</a>
</g>
</g>
<!-- Node10&#45;&gt;Node15 -->
<g id="edge14_Node000010_Node000015" class="edge">
<title>Node10&#45;&gt;Node15</title>
<g id="a_edge14_Node000010_Node000015"><a xlink:title=" ">
<path fill="none" stroke="#63b8ff" d="M751.05,-108.43C796.49,-99.54 868.56,-85.4 930.88,-73 933.72,-72.43 936.68,-71.84 939.65,-71.25"/>
<polygon fill="#63b8ff" stroke="#63b8ff" points="750.44,-104.98 741.29,-110.33 751.78,-111.85 750.44,-104.98"/>
</a>
</g>
</g>
<!-- Node16 -->
<g id="Node000016" class="node">
<title>Node16</title>
<g id="a_Node000016"><a xlink:href="a01934.html" target="_top" xlink:title=" ">
<polygon fill="white" stroke="#666666" points="1082,-73 1021.75,-73 1021.75,-54.5 1082,-54.5 1082,-73"/>
<text text-anchor="middle" x="1051.88" y="-59.5" font-family="Helvetica,sans-Serif" font-size="10.00">arax_ptr.c</text>
</a>
</g>
</g>
<!-- Node10&#45;&gt;Node16 -->
<g id="edge15_Node000010_Node000016" class="edge">
<title>Node10&#45;&gt;Node16</title>
<g id="a_edge15_Node000010_Node000016"><a xlink:title=" ">
<path fill="none" stroke="#63b8ff" d="M750.92,-111.69C810.89,-104.08 920.17,-89.47 1012.88,-73 1015.6,-72.52 1018.43,-71.98 1021.26,-71.42"/>
<polygon fill="#63b8ff" stroke="#63b8ff" points="750.59,-108.21 741.11,-112.93 751.47,-115.15 750.59,-108.21"/>
</a>
</g>
</g>
<!-- Node17 -->
<g id="Node000017" class="node">
<title>Node17</title>
<g id="a_Node000017"><a xlink:href="a01937.html" target="_top" xlink:title=" ">
<polygon fill="white" stroke="#666666" points="613.75,-73 546,-73 546,-54.5 613.75,-54.5 613.75,-73"/>
<text text-anchor="middle" x="579.88" y="-59.5" font-family="Helvetica,sans-Serif" font-size="10.00">arax_task.c</text>
</a>
</g>
</g>
<!-- Node10&#45;&gt;Node17 -->
<g id="edge16_Node000010_Node000017" class="edge">
<title>Node10&#45;&gt;Node17</title>
<g id="a_edge16_Node000010_Node000017"><a xlink:title=" ">
<path fill="none" stroke="#63b8ff" d="M674.45,-104.16C651.42,-94.56 620.79,-81.8 600.71,-73.43"/>
<polygon fill="#63b8ff" stroke="#63b8ff" points="673.09,-107.38 683.67,-108 675.79,-100.92 673.09,-107.38"/>
</a>
</g>
</g>
<!-- Node18 -->
<g id="Node000018" class="node">
<title>Node18</title>
<g id="a_Node000018"><a xlink:href="a01943.html" target="_top" xlink:title=" ">
<polygon fill="white" stroke="#666666" points="922.25,-73 845.5,-73 845.5,-54.5 922.25,-54.5 922.25,-73"/>
<text text-anchor="middle" x="883.88" y="-59.5" font-family="Helvetica,sans-Serif" font-size="10.00">arax_vaccel.c</text>
</a>
</g>
</g>
<!-- Node10&#45;&gt;Node18 -->
<g id="edge17_Node000010_Node000018" class="edge">
<title>Node10&#45;&gt;Node18</title>
<g id="a_edge17_Node000010_Node000018"><a xlink:title=" ">
<path fill="none" stroke="#63b8ff" d="M745.9,-105.44C778.84,-95.73 824.79,-82.18 854.44,-73.43"/>
<polygon fill="#63b8ff" stroke="#63b8ff" points="745.32,-101.97 736.72,-108.15 747.3,-108.68 745.32,-101.97"/>
</a>
</g>
</g>
<!-- Node19 -->
<g id="Node000019" class="node">
<title>Node19</title>
<g id="a_Node000019"><a xlink:href="a01910.html" target="_top" xlink:title=" ">
<polygon fill="white" stroke="#666666" points="528,-73 485.75,-73 485.75,-54.5 528,-54.5 528,-73"/>
<text text-anchor="middle" x="506.88" y="-59.5" font-family="Helvetica,sans-Serif" font-size="10.00">impl.c</text>
</a>
</g>
</g>
<!-- Node10&#45;&gt;Node19 -->
<g id="edge18_Node000010_Node000019" class="edge">
<title>Node10&#45;&gt;Node19</title>
<g id="a_edge18_Node000010_Node000019"><a xlink:title=" ">
<path fill="none" stroke="#63b8ff" d="M661.18,-105.71C627.09,-96.86 578.98,-84.3 536.88,-73 534.16,-72.27 531.31,-71.5 528.5,-70.73"/>
<polygon fill="#63b8ff" stroke="#63b8ff" points="660.15,-109.06 670.71,-108.18 661.91,-102.28 660.15,-109.06"/>
</a>
</g>
</g>
<!-- Node20&#45;&gt;Node3 -->
<g id="edge20_Node000020_Node000003" class="edge">
<title>Node20&#45;&gt;Node3</title>
<g id="a_edge20_Node000020_Node000003"><a xlink:title=" ">
<path fill="none" stroke="#63b8ff" d="M453.98,-269.39C493.51,-259.64 549.63,-245.81 585.65,-236.93"/>
<polygon fill="#63b8ff" stroke="#63b8ff" points="453.39,-265.93 444.52,-271.72 455.06,-272.72 453.39,-265.93"/>
</a>
</g>
</g>
<!-- Node20&#45;&gt;Node13 -->
<g id="edge28_Node000020_Node000013" class="edge">
<title>Node20&#45;&gt;Node13</title>
<g id="a_edge28_Node000020_Node000013"><a xlink:title=" ">
<path fill="none" stroke="#63b8ff" d="M358.9,-280.12C310.15,-277.55 234.62,-268.18 177.88,-236.5 149.17,-220.47 139.8,-212.63 127.88,-182 115.09,-149.15 132.19,-132.03 158.88,-109 180.65,-90.21 211.32,-78.91 235.36,-72.44"/>
<polygon fill="#63b8ff" stroke="#63b8ff" points="358.73,-283.62 368.88,-280.56 359.04,-276.62 358.73,-283.62"/>
</a>
</g>
</g>
<!-- Node21 -->
<g id="Node000021" class="node">
<title>Node21</title>
<g id="a_Node000021"><a xlink:href="a01409.html" target="_top" xlink:title=" ">
<polygon fill="white" stroke="#666666" points="495.75,-127.5 428,-127.5 428,-109 495.75,-109 495.75,-127.5"/>
<text text-anchor="middle" x="461.88" y="-114" font-family="Helvetica,sans-Serif" font-size="10.00">arax_data.h</text>
</a>
</g>
</g>
<!-- Node20&#45;&gt;Node21 -->
<g id="edge21_Node000020_Node000021" class="edge">
<title>Node20&#45;&gt;Node21</title>
<g id="a_edge21_Node000020_Node000021"><a xlink:title=" ">
<path fill="none" stroke="#63b8ff" d="M424.11,-263.71C430.62,-255.97 437.57,-246.35 441.88,-236.5 458.5,-198.47 461.35,-147.88 461.8,-127.89"/>
<polygon fill="#63b8ff" stroke="#63b8ff" points="421.67,-261.19 417.62,-270.98 426.89,-265.85 421.67,-261.19"/>
</a>
</g>
</g>
<!-- Node23 -->
<g id="Node000023" class="node">
<title>Node23</title>
<g id="a_Node000023"><a xlink:href="a01418.html" target="_top" xlink:title=" ">
<polygon fill="white" stroke="#666666" points="254.75,-236.5 187,-236.5 187,-218 254.75,-218 254.75,-236.5"/>
<text text-anchor="middle" x="220.88" y="-223" font-family="Helvetica,sans-Serif" font-size="10.00">arax_proc.h</text>
</a>
</g>
</g>
<!-- Node20&#45;&gt;Node23 -->
<g id="edge29_Node000020_Node000023" class="edge">
<title>Node20&#45;&gt;Node23</title>
<g id="a_edge29_Node000020_Node000023"><a xlink:title=" ">
<path fill="none" stroke="#63b8ff" d="M366.28,-269.07C331.64,-259.35 283.08,-245.71 251.8,-236.93"/>
<polygon fill="#63b8ff" stroke="#63b8ff" points="364.96,-272.34 375.54,-271.67 366.86,-265.6 364.96,-272.34"/>
</a>
</g>
</g>
<!-- Node26 -->
<g id="Node000026" class="node">
<title>Node26</title>
<g id="a_Node000026"><a xlink:href="a01430.html" target="_top" xlink:title=" ">
<polygon fill="white" stroke="#666666" points="565.25,-236.5 488.5,-236.5 488.5,-218 565.25,-218 565.25,-236.5"/>
<text text-anchor="middle" x="526.88" y="-223" font-family="Helvetica,sans-Serif" font-size="10.00">arax_vaccel.h</text>
</a>
</g>
</g>
<!-- Node20&#45;&gt;Node26 -->
<g id="edge36_Node000020_Node000026" class="edge">
<title>Node20&#45;&gt;Node26</title>
<g id="a_edge36_Node000020_Node000026"><a xlink:title=" ">
<path fill="none" stroke="#63b8ff" d="M437.85,-267.53C459.57,-257.94 488.32,-245.26 507.2,-236.93"/>
<polygon fill="#63b8ff" stroke="#63b8ff" points="436.65,-264.23 428.91,-271.47 439.47,-270.64 436.65,-264.23"/>
</a>
</g>
</g>
<!-- Node28 -->
<g id="Node000028" class="node">
<title>Node28</title>
<g id="a_Node000028"><a xlink:href="a02367.html" target="_top" xlink:title=" ">
<polygon fill="white" stroke="#666666" points="364.75,-236.5 315,-236.5 315,-218 364.75,-218 364.75,-236.5"/>
<text text-anchor="middle" x="339.88" y="-223" font-family="Helvetica,sans-Serif" font-size="10.00">async.h</text>
</a>
</g>
</g>
<!-- Node20&#45;&gt;Node28 -->
<g id="edge42_Node000020_Node000028" class="edge">
<title>Node20&#45;&gt;Node28</title>
<g id="a_edge42_Node000020_Node000028"><a xlink:title=" ">
<path fill="none" stroke="#63b8ff" d="M387.73,-265.2C375.68,-255.89 360.83,-244.43 350.89,-236.76"/>
<polygon fill="#63b8ff" stroke="#63b8ff" points="385.39,-267.81 395.45,-271.16 389.67,-262.27 385.39,-267.81"/>
</a>
</g>
</g>
<!-- Node30 -->
<g id="Node000030" class="node">
<title>Node30</title>
<g id="a_Node000030"><a xlink:href="a02370.html" target="_top" xlink:title=" ">
<polygon fill="white" stroke="#666666" points="432.75,-236.5 383,-236.5 383,-218 432.75,-218 432.75,-236.5"/>
<text text-anchor="middle" x="407.88" y="-223" font-family="Helvetica,sans-Serif" font-size="10.00">async.h</text>
</a>
</g>
</g>
<!-- Node20&#45;&gt;Node30 -->
<g id="edge44_Node000020_Node000030" class="edge">
<title>Node20&#45;&gt;Node30</title>
<g id="a_edge44_Node000020_Node000030"><a xlink:title=" ">
<path fill="none" stroke="#63b8ff" d="M407.88,-260.64C407.88,-252.36 407.88,-243.21 407.88,-236.76"/>
<polygon fill="#63b8ff" stroke="#63b8ff" points="404.38,-260.57 407.88,-270.57 411.38,-260.57 404.38,-260.57"/>
</a>
</g>
</g>
<!-- Node32 -->
<g id="Node000032" class="node">
<title>Node32</title>
<g id="a_Node000032"><a xlink:href="a02373.html" target="_top" xlink:title=" ">
<polygon fill="white" stroke="#666666" points="49.75,-236.5 0,-236.5 0,-218 49.75,-218 49.75,-236.5"/>
<text text-anchor="middle" x="24.88" y="-223" font-family="Helvetica,sans-Serif" font-size="10.00">async.h</text>
</a>
</g>
</g>
<!-- Node20&#45;&gt;Node32 -->
<g id="edge46_Node000020_Node000032" class="edge">
<title>Node20&#45;&gt;Node32</title>
<g id="a_edge46_Node000020_Node000032"><a xlink:title=" ">
<path fill="none" stroke="#63b8ff" d="M358.9,-275.71C292.01,-268.53 168.46,-254.26 63.88,-236.5 59.37,-235.74 54.6,-234.82 49.99,-233.87"/>
<polygon fill="#63b8ff" stroke="#63b8ff" points="358.5,-279.18 368.81,-276.76 359.24,-272.22 358.5,-279.18"/>
</a>
</g>
</g>
<!-- Node21&#45;&gt;Node12 -->
<g id="edge22_Node000021_Node000012" class="edge">
<title>Node21&#45;&gt;Node12</title>
<g id="a_edge22_Node000021_Node000012"><a xlink:title=" ">
<path fill="none" stroke="#63b8ff" d="M461.14,-97.56C460.26,-74.09 458.83,-35.91 458.2,-18.9"/>
<polygon fill="#63b8ff" stroke="#63b8ff" points="457.63,-97.48 461.5,-107.34 464.63,-97.22 457.63,-97.48"/>
</a>
</g>
</g>
<!-- Node21&#45;&gt;Node13 -->
<g id="edge25_Node000021_Node000013" class="edge">
<title>Node21&#45;&gt;Node13</title>
<g id="a_edge25_Node000021_Node000013"><a xlink:title=" ">
<path fill="none" stroke="#63b8ff" d="M419.83,-105.57C384.82,-95.85 335.75,-82.21 304.13,-73.43"/>
<polygon fill="#63b8ff" stroke="#63b8ff" points="418.64,-108.87 429.21,-108.18 420.51,-102.13 418.64,-108.87"/>
</a>
</g>
</g>
<!-- Node21&#45;&gt;Node17 -->
<g id="edge26_Node000021_Node000017" class="edge">
<title>Node21&#45;&gt;Node17</title>
<g id="a_edge26_Node000021_Node000017"><a xlink:title=" ">
<path fill="none" stroke="#63b8ff" d="M491.6,-104.03C513.14,-94.44 541.65,-81.76 560.36,-73.43"/>
<polygon fill="#63b8ff" stroke="#63b8ff" points="490.46,-100.7 482.74,-107.97 493.3,-107.1 490.46,-100.7"/>
</a>
</g>
</g>
<!-- Node21&#45;&gt;Node19 -->
<g id="edge27_Node000021_Node000019" class="edge">
<title>Node21&#45;&gt;Node19</title>
<g id="a_edge27_Node000021_Node000019"><a xlink:title=" ">
<path fill="none" stroke="#63b8ff" d="M476.65,-100.02C484.34,-91.04 493.4,-80.47 499.58,-73.26"/>
<polygon fill="#63b8ff" stroke="#63b8ff" points="474.14,-97.56 470.29,-107.43 479.46,-102.12 474.14,-97.56"/>
</a>
</g>
</g>
<!-- Node22 -->
<g id="Node000022" class="node">
<title>Node22</title>
<g id="a_Node000022"><a xlink:href="a01412.html" target="_top" xlink:title=" ">
<polygon fill="white" stroke="#666666" points="429.62,-73 328.12,-73 328.12,-54.5 429.62,-54.5 429.62,-73"/>
<text text-anchor="middle" x="378.88" y="-59.5" font-family="Helvetica,sans-Serif" font-size="10.00">arax_data_private.h</text>
</a>
</g>
</g>
<!-- Node21&#45;&gt;Node22 -->
<g id="edge23_Node000021_Node000022" class="edge">
<title>Node21&#45;&gt;Node22</title>
<g id="a_edge23_Node000021_Node000022"><a xlink:title=" ">
<path fill="none" stroke="#63b8ff" d="M438.65,-102.56C423.82,-93.18 405.1,-81.34 392.6,-73.43"/>
<polygon fill="#63b8ff" stroke="#63b8ff" points="436.57,-105.38 446.89,-107.77 440.31,-99.47 436.57,-105.38"/>
</a>
</g>
</g>
<!-- Node22&#45;&gt;Node12 -->
<g id="edge24_Node000022_Node000012" class="edge">
<title>Node22&#45;&gt;Node12</title>
<g id="a_edge24_Node000022_Node000012"><a xlink:title=" ">
<path fill="none" stroke="#63b8ff" d="M401.39,-47.79C415.44,-38.45 433.03,-26.76 444.81,-18.93"/>
<polygon fill="#63b8ff" stroke="#63b8ff" points="399.57,-44.79 393.18,-53.24 403.45,-50.62 399.57,-44.79"/>
</a>
</g>
</g>
<!-- Node23&#45;&gt;Node13 -->
<g id="edge30_Node000023_Node000013" class="edge">
<title>Node23&#45;&gt;Node13</title>
<g id="a_edge30_Node000023_Node000013"><a xlink:title=" ">
<path fill="none" stroke="#63b8ff" d="M177.59,-213.82C150.53,-203.52 122.9,-186.79 134.88,-163.5 158.99,-116.6 216.85,-87.01 249.47,-73.45"/>
<polygon fill="#63b8ff" stroke="#63b8ff" points="176.22,-217.05 186.81,-217.08 178.55,-210.45 176.22,-217.05"/>
</a>
</g>
</g>
<!-- Node24 -->
<g id="Node000024" class="node">
<title>Node24</title>
<g id="a_Node000024"><a xlink:href="a01931.html" target="_top" xlink:title=" ">
<polygon fill="white" stroke="#666666" points="211.75,-182 144,-182 144,-163.5 211.75,-163.5 211.75,-182"/>
<text text-anchor="middle" x="177.88" y="-168.5" font-family="Helvetica,sans-Serif" font-size="10.00">arax_proc.c</text>
</a>
</g>
</g>
<!-- Node23&#45;&gt;Node24 -->
<g id="edge31_Node000023_Node000024" class="edge">
<title>Node23&#45;&gt;Node24</title>
<g id="a_edge31_Node000023_Node000024"><a xlink:title=" ">
<path fill="none" stroke="#63b8ff" d="M206.53,-208.73C199.23,-199.82 190.69,-189.4 184.84,-182.26"/>
<polygon fill="#63b8ff" stroke="#63b8ff" points="203.77,-210.89 212.82,-216.41 209.19,-206.46 203.77,-210.89"/>
</a>
</g>
</g>
<!-- Node25 -->
<g id="Node000025" class="node">
<title>Node25</title>
<g id="a_Node000025"><a xlink:href="a01424.html" target="_top" xlink:title=" ">
<polygon fill="white" stroke="#666666" points="297.75,-182 230,-182 230,-163.5 297.75,-163.5 297.75,-182"/>
<text text-anchor="middle" x="263.88" y="-168.5" font-family="Helvetica,sans-Serif" font-size="10.00">arax_task.h</text>
</a>
</g>
</g>
<!-- Node23&#45;&gt;Node25 -->
<g id="edge32_Node000023_Node000025" class="edge">
<title>Node23&#45;&gt;Node25</title>
<g id="a_edge32_Node000023_Node000025"><a xlink:title=" ">
<path fill="none" stroke="#63b8ff" d="M235.22,-208.73C242.52,-199.82 251.06,-189.4 256.91,-182.26"/>
<polygon fill="#63b8ff" stroke="#63b8ff" points="232.56,-206.46 228.93,-216.41 237.98,-210.89 232.56,-206.46"/>
</a>
</g>
</g>
<!-- Node25&#45;&gt;Node10 -->
<g id="edge35_Node000025_Node000010" class="edge">
<title>Node25&#45;&gt;Node10</title>
<g id="a_edge35_Node000025_Node000010"><a xlink:title=" ">
<path fill="none" stroke="#63b8ff" d="M309.06,-163.28C449.75,-142.38 605,-127.92 672.13,-122.08"/>
<polygon fill="#63b8ff" stroke="#63b8ff" points="308.97,-159.76 299.6,-164.71 310.01,-166.68 308.97,-159.76"/>
</a>
</g>
</g>
<!-- Node25&#45;&gt;Node12 -->
<g id="edge33_Node000025_Node000012" class="edge">
<title>Node25&#45;&gt;Node12</title>
<g id="a_edge33_Node000025_Node000012"><a xlink:title=" ">
<path fill="none" stroke="#63b8ff" d="M249.05,-154.06C230.14,-129.24 202.61,-83.85 226.88,-54.5 251.46,-24.76 365.65,-14.81 423.74,-11.64"/>
<polygon fill="#63b8ff" stroke="#63b8ff" points="246.31,-156.23 255.28,-161.87 251.78,-151.86 246.31,-156.23"/>
</a>
</g>
</g>
<!-- Node25&#45;&gt;Node13 -->
<g id="edge34_Node000025_Node000013" class="edge">
<title>Node25&#45;&gt;Node13</title>
<g id="a_edge34_Node000025_Node000013"><a xlink:title=" ">
<path fill="none" stroke="#63b8ff" d="M265.53,-152.06C267.51,-128.59 270.72,-90.41 272.15,-73.4"/>
<polygon fill="#63b8ff" stroke="#63b8ff" points="262.06,-151.59 264.71,-161.85 269.03,-152.17 262.06,-151.59"/>
</a>
</g>
</g>
<!-- Node27 -->
<g id="Node000027" class="node">
<title>Node27</title>
<g id="a_Node000027"><a xlink:href="a01403.html" target="_top" xlink:title=" ">
<polygon fill="white" stroke="#666666" points="563,-182 490.75,-182 490.75,-163.5 563,-163.5 563,-182"/>
<text text-anchor="middle" x="526.88" y="-168.5" font-family="Helvetica,sans-Serif" font-size="10.00">arax_accel.h</text>
</a>
</g>
</g>
<!-- Node26&#45;&gt;Node27 -->
<g id="edge37_Node000026_Node000027" class="edge">
<title>Node26&#45;&gt;Node27</title>
<g id="a_edge37_Node000026_Node000027"><a xlink:title=" ">
<path fill="none" stroke="#63b8ff" d="M520.31,-206.43C519.82,-198.07 520.3,-188.79 521.74,-182.26"/>
<polygon fill="#63b8ff" stroke="#63b8ff" points="516.8,-206.59 521.52,-216.08 523.75,-205.72 516.8,-206.59"/>
</a>
</g>
</g>
<!-- Node27&#45;&gt;Node10 -->
<g id="edge40_Node000027_Node000010" class="edge">
<title>Node27&#45;&gt;Node10</title>
<g id="a_edge40_Node000027_Node000010"><a xlink:title=" ">
<path fill="none" stroke="#63b8ff" d="M567.12,-159.94C600.25,-150.23 646.46,-136.68 676.27,-127.93"/>
<polygon fill="#63b8ff" stroke="#63b8ff" points="566.5,-156.48 557.89,-162.65 568.47,-163.2 566.5,-156.48"/>
</a>
</g>
</g>
<!-- Node27&#45;&gt;Node13 -->
<g id="edge39_Node000027_Node000013" class="edge">
<title>Node27&#45;&gt;Node13</title>
<g id="a_edge39_Node000027_Node000013"><a xlink:title=" ">
<path fill="none" stroke="#63b8ff" d="M494.8,-158.77C473.28,-150.03 444.33,-138.18 418.88,-127.5 373.59,-108.49 320.7,-85.58 292.67,-73.38"/>
<polygon fill="#63b8ff" stroke="#63b8ff" points="493.33,-161.96 503.91,-162.47 495.96,-155.47 493.33,-161.96"/>
</a>
</g>
</g>
<!-- Node27&#45;&gt;Node21 -->
<g id="edge38_Node000027_Node000021" class="edge">
<title>Node27&#45;&gt;Node21</title>
<g id="a_edge38_Node000027_Node000021"><a xlink:title=" ">
<path fill="none" stroke="#63b8ff" d="M507.28,-155.92C495.82,-146.67 481.81,-135.35 472.41,-127.76"/>
<polygon fill="#63b8ff" stroke="#63b8ff" points="504.99,-158.57 514.96,-162.13 509.38,-153.12 504.99,-158.57"/>
</a>
</g>
</g>
<!-- Node27&#45;&gt;Node26 -->
<g id="edge41_Node000027_Node000026" class="edge">
<title>Node27&#45;&gt;Node26</title>
<g id="a_edge41_Node000027_Node000026"><a xlink:title=" ">
<path fill="none" stroke="#63b8ff" d="M533.45,-193.66C533.92,-201.92 533.45,-211.08 532.04,-217.58"/>
<polygon fill="#63b8ff" stroke="#63b8ff" points="536.92,-193.24 532.2,-183.76 529.98,-194.12 536.92,-193.24"/>
</a>
</g>
</g>
<!-- Node29 -->
<g id="Node000029" class="node">
<title>Node29</title>
<g id="a_Node000029"><a xlink:href="a02358.html" target="_top" xlink:title=" ">
<polygon fill="white" stroke="#666666" points="365.75,-182 316,-182 316,-163.5 365.75,-163.5 365.75,-182"/>
<text text-anchor="middle" x="340.88" y="-168.5" font-family="Helvetica,sans-Serif" font-size="10.00">async.c</text>
</a>
</g>
</g>
<!-- Node28&#45;&gt;Node29 -->
<g id="edge43_Node000028_Node000029" class="edge">
<title>Node28&#45;&gt;Node29</title>
<g id="a_edge43_Node000028_Node000029"><a xlink:title=" ">
<path fill="none" stroke="#63b8ff" d="M340.26,-206.14C340.42,-197.86 340.59,-188.71 340.71,-182.26"/>
<polygon fill="#63b8ff" stroke="#63b8ff" points="336.76,-206 340.07,-216.07 343.76,-206.14 336.76,-206"/>
</a>
</g>
</g>
<!-- Node31 -->
<g id="Node000031" class="node">
<title>Node31</title>
<g id="a_Node000031"><a xlink:href="a02361.html" target="_top" xlink:title=" ">
<polygon fill="white" stroke="#666666" points="433.75,-182 384,-182 384,-163.5 433.75,-163.5 433.75,-182"/>
<text text-anchor="middle" x="408.88" y="-168.5" font-family="Helvetica,sans-Serif" font-size="10.00">async.c</text>
</a>
</g>
</g>
<!-- Node30&#45;&gt;Node31 -->
<g id="edge45_Node000030_Node000031" class="edge">
<title>Node30&#45;&gt;Node31</title>
<g id="a_edge45_Node000030_Node000031"><a xlink:title=" ">
<path fill="none" stroke="#63b8ff" d="M408.26,-206.14C408.42,-197.86 408.59,-188.71 408.71,-182.26"/>
<polygon fill="#63b8ff" stroke="#63b8ff" points="404.76,-206 408.07,-216.07 411.76,-206.14 404.76,-206"/>
</a>
</g>
</g>
<!-- Node33 -->
<g id="Node000033" class="node">
<title>Node33</title>
<g id="a_Node000033"><a xlink:href="a02364.html" target="_top" xlink:title=" ">
<polygon fill="white" stroke="#666666" points="49.75,-182 0,-182 0,-163.5 49.75,-163.5 49.75,-182"/>
<text text-anchor="middle" x="24.88" y="-168.5" font-family="Helvetica,sans-Serif" font-size="10.00">async.c</text>
</a>
</g>
</g>
<!-- Node32&#45;&gt;Node33 -->
<g id="edge47_Node000032_Node000033" class="edge">
<title>Node32&#45;&gt;Node33</title>
<g id="a_edge47_Node000032_Node000033"><a xlink:title=" ">
<path fill="none" stroke="#63b8ff" d="M24.88,-206.14C24.88,-197.86 24.88,-188.71 24.88,-182.26"/>
<polygon fill="#63b8ff" stroke="#63b8ff" points="21.38,-206.07 24.88,-216.07 28.38,-206.07 21.38,-206.07"/>
</a>
</g>
</g>
<!-- Node35 -->
<g id="Node000035" class="node">
<title>Node35</title>
<g id="a_Node000035"><a xlink:href="a01367.html" target="_top" xlink:title=" ">
<polygon fill="white" stroke="#666666" points="899.12,-236.5 854.62,-236.5 854.62,-218 899.12,-218 899.12,-236.5"/>
<text text-anchor="middle" x="876.88" y="-223" font-family="Helvetica,sans-Serif" font-size="10.00">alloc.h</text>
</a>
</g>
</g>
<!-- Node34&#45;&gt;Node35 -->
<g id="edge49_Node000034_Node000035" class="edge">
<title>Node34&#45;&gt;Node35</title>
<g id="a_edge49_Node000034_Node000035"><a xlink:title=" ">
<path fill="none" stroke="#63b8ff" d="M835.98,-264.64C846.32,-255.44 858.87,-244.27 867.31,-236.76"/>
<polygon fill="#63b8ff" stroke="#63b8ff" points="833.89,-261.81 828.75,-271.07 838.55,-267.04 833.89,-261.81"/>
</a>
</g>
</g>
<!-- Node37 -->
<g id="Node000037" class="node">
<title>Node37</title>
<g id="a_Node000037"><a xlink:href="a01949.html" target="_top" xlink:title=" ">
<polygon fill="white" stroke="#666666" points="836.62,-236.5 783.12,-236.5 783.12,-218 836.62,-218 836.62,-236.5"/>
<text text-anchor="middle" x="809.88" y="-223" font-family="Helvetica,sans-Serif" font-size="10.00">bitmap.c</text>
</a>
</g>
</g>
<!-- Node34&#45;&gt;Node37 -->
<g id="edge52_Node000034_Node000037" class="edge">
<title>Node34&#45;&gt;Node37</title>
<g id="a_edge52_Node000034_Node000037"><a xlink:title=" ">
<path fill="none" stroke="#63b8ff" d="M814.85,-260.93C813.58,-252.57 812.17,-243.29 811.17,-236.76"/>
<polygon fill="#63b8ff" stroke="#63b8ff" points="811.36,-261.23 816.33,-270.58 818.28,-260.17 811.36,-261.23"/>
</a>
</g>
</g>
<!-- Node35&#45;&gt;Node15 -->
<g id="edge50_Node000035_Node000015" class="edge">
<title>Node35&#45;&gt;Node15</title>
<g id="a_edge50_Node000035_Node000015"><a xlink:title=" ">
<path fill="none" stroke="#63b8ff" d="M891.71,-209.13C898.27,-201.15 905.85,-191.37 911.88,-182 936.72,-143.33 959.54,-93.1 968.2,-73.31"/>
<polygon fill="#63b8ff" stroke="#63b8ff" points="889.13,-206.76 885.35,-216.65 894.48,-211.27 889.13,-206.76"/>
</a>
</g>
</g>
<!-- Node36 -->
<g id="Node000036" class="node">
<title>Node36</title>
<g id="a_Node000036"><a xlink:href="a01901.html" target="_top" xlink:title=" ">
<polygon fill="white" stroke="#666666" points="903.25,-182 850.5,-182 850.5,-163.5 903.25,-163.5 903.25,-182"/>
<text text-anchor="middle" x="876.88" y="-168.5" font-family="Helvetica,sans-Serif" font-size="10.00">malloc.c</text>
</a>
</g>
</g>
<!-- Node35&#45;&gt;Node36 -->
<g id="edge51_Node000035_Node000036" class="edge">
<title>Node35&#45;&gt;Node36</title>
<g id="a_edge51_Node000035_Node000036"><a xlink:title=" ">
<path fill="none" stroke="#63b8ff" d="M876.88,-206.14C876.88,-197.86 876.88,-188.71 876.88,-182.26"/>
<polygon fill="#63b8ff" stroke="#63b8ff" points="873.38,-206.07 876.88,-216.07 880.38,-206.07 873.38,-206.07"/>
</a>
</g>
</g>
<!-- Node38&#45;&gt;Node6 -->
<g id="edge56_Node000038_Node000006" class="edge">
<title>Node38&#45;&gt;Node6</title>
<g id="a_edge56_Node000038_Node000006"><a xlink:title=" ">
<path fill="none" stroke="#63b8ff" d="M732.78,-263.52C724.91,-254.54 715.65,-243.97 709.33,-236.76"/>
<polygon fill="#63b8ff" stroke="#63b8ff" points="730.06,-265.73 739.28,-270.94 735.32,-261.11 730.06,-265.73"/>
</a>
</g>
</g>
<!-- Node38&#45;&gt;Node10 -->
<g id="edge54_Node000038_Node000010" class="edge">
<title>Node38&#45;&gt;Node10</title>
<g id="a_edge54_Node000038_Node000010"><a xlink:title=" ">
<path fill="none" stroke="#63b8ff" d="M744.63,-260.88C742.47,-248.48 739.39,-232.23 735.88,-218 727.55,-184.25 714.61,-144.94 708.84,-127.88"/>
<polygon fill="#63b8ff" stroke="#63b8ff" points="741.17,-261.39 746.28,-270.67 748.07,-260.23 741.17,-261.39"/>
</a>
</g>
</g>
<!-- Node38&#45;&gt;Node26 -->
<g id="edge55_Node000038_Node000026" class="edge">
<title>Node38&#45;&gt;Node26</title>
<g id="a_edge55_Node000038_Node000026"><a xlink:title=" ">
<path fill="none" stroke="#63b8ff" d="M711.45,-272.1C670.58,-262.39 604.66,-246.73 563.65,-236.99"/>
<polygon fill="#63b8ff" stroke="#63b8ff" points="710.51,-275.47 721.05,-274.38 712.13,-268.66 710.51,-275.47"/>
</a>
</g>
</g>
<!-- Node39&#45;&gt;Node3 -->
<g id="edge58_Node000039_Node000003" class="edge">
<title>Node39&#45;&gt;Node3</title>
<g id="a_edge58_Node000039_Node000003"><a xlink:title=" ">
<path fill="none" stroke="#63b8ff" d="M977.27,-274.62C972.09,-273.89 966.86,-273.17 961.88,-272.5 831.39,-255.07 798.08,-255.89 667.88,-236.5 665.09,-236.09 662.21,-235.64 659.32,-235.17"/>
<polygon fill="#63b8ff" stroke="#63b8ff" points="976.53,-278.05 986.92,-276 977.52,-271.12 976.53,-278.05"/>
</a>
</g>
</g>
<!-- Node39&#45;&gt;Node12 -->
<g id="edge59_Node000039_Node000012" class="edge">
<title>Node39&#45;&gt;Node12</title>
<g id="a_edge59_Node000039_Node000012"><a xlink:title=" ">
<path fill="none" stroke="#63b8ff" d="M1043.94,-265.9C1070.88,-247.83 1109.88,-214.62 1109.88,-173.75 1109.88,-173.75 1109.88,-173.75 1109.88,-117.25 1109.88,-88.11 1113.66,-72.67 1090.88,-54.5 1043.88,-17.02 616.94,-11.28 492.04,-10.41"/>
<polygon fill="#63b8ff" stroke="#63b8ff" points="1042.12,-262.91 1035.59,-271.25 1045.89,-268.81 1042.12,-262.91"/>
</a>
</g>
</g>
<!-- Node39&#45;&gt;Node15 -->
<g id="edge60_Node000039_Node000015" class="edge">
<title>Node39&#45;&gt;Node15</title>
<g id="a_edge60_Node000039_Node000015"><a xlink:title=" ">
<path fill="none" stroke="#63b8ff" d="M1014.59,-261.05C1004.71,-215.64 980.64,-105.03 973.75,-73.36"/>
<polygon fill="#63b8ff" stroke="#63b8ff" points="1011.11,-261.51 1016.65,-270.54 1017.95,-260.02 1011.11,-261.51"/>
</a>
</g>
</g>
<!-- Node39&#45;&gt;Node16 -->
<g id="edge61_Node000039_Node000016" class="edge">
<title>Node39&#45;&gt;Node16</title>
<g id="a_edge61_Node000039_Node000016"><a xlink:title=" ">
<path fill="none" stroke="#63b8ff" d="M1025.92,-261.37C1028.46,-253.71 1031.13,-244.78 1032.88,-236.5 1045.9,-174.86 1050.34,-98.78 1051.52,-73.42"/>
<polygon fill="#63b8ff" stroke="#63b8ff" points="1022.67,-260.05 1022.68,-270.64 1029.28,-262.35 1022.67,-260.05"/>
</a>
</g>
</g>
</g>
</svg>
