<?xml version="1.0" encoding="UTF-8" standalone="no"?>
<!DOCTYPE svg PUBLIC "-//W3C//DTD SVG 1.1//EN"
 "http://www.w3.org/Graphics/SVG/1.1/DTD/svg11.dtd">
<!-- Generated by graphviz version 12.2.1 (0)
 -->
<!-- Title: arax_pipe_size_dec Pages: 1 -->
<svg width="591pt" height="101pt"
 viewBox="0.00 0.00 591.00 100.50" xmlns="http://www.w3.org/2000/svg" xmlns:xlink="http://www.w3.org/1999/xlink">
<g id="graph0" class="graph" transform="scale(1 1) rotate(0) translate(4 96.5)">
<title>arax_pipe_size_dec</title>
<!-- Node1 -->
<g id="Node000001" class="node">
<title>Node1</title>
<g id="a_Node000001"><a xlink:title=" ">
<polygon fill="#999999" stroke="#666666" points="102.25,-55.5 0,-55.5 0,-37 102.25,-37 102.25,-55.5"/>
<text text-anchor="middle" x="51.12" y="-42" font-family="Helvetica,sans-Serif" font-size="10.00">arax_pipe_size_dec</text>
</a>
</g>
</g>
<!-- Node1&#45;&gt;Node1 -->
<g id="edge1_Node000001_Node000001" class="edge">
<title>Node1&#45;&gt;Node1</title>
<g id="a_edge1_Node000001_Node000001"><a xlink:title=" ">
<path fill="none" stroke="#63b8ff" d="M28.89,-55.75C18.08,-64.32 25.49,-73.5 51.12,-73.5 65.55,-73.5 74.2,-70.59 77.09,-66.53"/>
<polygon fill="#63b8ff" stroke="#63b8ff" points="80.43,-65.48 73.85,-57.18 73.81,-67.77 80.43,-65.48"/>
</a>
</g>
</g>
<!-- Node2 -->
<g id="Node000002" class="node">
<title>Node2</title>
<g id="a_Node000002"><a xlink:href="a01940.html#a63b80783cfb3106ec4169ce082f153c0" target="_top" xlink:title=" ">
<polygon fill="white" stroke="#666666" points="252.5,-55.5 138.25,-55.5 138.25,-37 252.5,-37 252.5,-55.5"/>
<text text-anchor="middle" x="195.38" y="-42" font-family="Helvetica,sans-Serif" font-size="10.00">arax_throttle_size_dec</text>
</a>
</g>
</g>
<!-- Node1&#45;&gt;Node2 -->
<g id="edge2_Node000001_Node000002" class="edge">
<title>Node1&#45;&gt;Node2</title>
<g id="a_edge2_Node000001_Node000002"><a xlink:title=" ">
<path fill="none" stroke="#63b8ff" d="M102.68,-46.25C110.49,-46.25 118.67,-46.25 126.79,-46.25"/>
<polygon fill="#63b8ff" stroke="#63b8ff" points="126.67,-49.75 136.67,-46.25 126.67,-42.75 126.67,-49.75"/>
</a>
</g>
</g>
<!-- Node2&#45;&gt;Node2 -->
<g id="edge3_Node000002_Node000002" class="edge">
<title>Node2&#45;&gt;Node2</title>
<g id="a_edge3_Node000002_Node000002"><a xlink:title=" ">
<path fill="none" stroke="#63b8ff" d="M173.14,-55.75C162.33,-64.32 169.74,-73.5 195.38,-73.5 209.8,-73.5 218.45,-70.59 221.34,-66.53"/>
<polygon fill="#63b8ff" stroke="#63b8ff" points="224.68,-65.48 218.1,-57.18 218.06,-67.77 224.68,-65.48"/>
</a>
</g>
</g>
<!-- Node3 -->
<g id="Node000003" class="node">
<title>Node3</title>
<g id="a_Node000003"><a xlink:href="a02364.html#aed6af4d83e934e3e654ead541b15f2d9" target="_top" xlink:title=" ">
<polygon fill="white" stroke="#666666" points="402.75,-92.5 293.75,-92.5 293.75,-74 402.75,-74 402.75,-92.5"/>
<text text-anchor="middle" x="348.25" y="-79" font-family="Helvetica,sans-Serif" font-size="10.00">async_condition_lock</text>
</a>
</g>
</g>
<!-- Node2&#45;&gt;Node3 -->
<g id="edge4_Node000002_Node000003" class="edge">
<title>Node2&#45;&gt;Node3</title>
<g id="a_edge4_Node000002_Node000003"><a xlink:title=" ">
<path fill="none" stroke="#63b8ff" d="M236.02,-55.97C254.57,-60.52 276.88,-65.99 296.63,-70.84"/>
<polygon fill="#63b8ff" stroke="#63b8ff" points="295.6,-74.19 306.14,-73.17 297.26,-67.39 295.6,-74.19"/>
</a>
</g>
</g>
<!-- Node5 -->
<g id="Node000005" class="node">
<title>Node5</title>
<g id="a_Node000005"><a xlink:href="a02364.html#a3bbcb7c4c024e99d5c4ba52b61dfbbf7" target="_top" xlink:title=" ">
<polygon fill="white" stroke="#666666" points="408,-18.5 288.5,-18.5 288.5,0 408,0 408,-18.5"/>
<text text-anchor="middle" x="348.25" y="-5" font-family="Helvetica,sans-Serif" font-size="10.00">async_condition_unlock</text>
</a>
</g>
</g>
<!-- Node2&#45;&gt;Node5 -->
<g id="edge6_Node000002_Node000005" class="edge">
<title>Node2&#45;&gt;Node5</title>
<g id="a_edge6_Node000002_Node000005"><a xlink:title=" ">
<path fill="none" stroke="#63b8ff" d="M236.02,-36.53C254.57,-31.98 276.88,-26.51 296.63,-21.66"/>
<polygon fill="#63b8ff" stroke="#63b8ff" points="297.26,-25.11 306.14,-19.33 295.6,-18.31 297.26,-25.11"/>
</a>
</g>
</g>
<!-- Node7 -->
<g id="Node000007" class="node">
<title>Node7</title>
<g id="a_Node000007"><a xlink:href="a02364.html#a1bfeaeb9b81855e640d7a67cc9d92b17" target="_top" xlink:title=" ">
<polygon fill="white" stroke="#666666" points="402.38,-55.5 294.12,-55.5 294.12,-37 402.38,-37 402.38,-55.5"/>
<text text-anchor="middle" x="348.25" y="-42" font-family="Helvetica,sans-Serif" font-size="10.00">async_condition_wait</text>
</a>
</g>
</g>
<!-- Node2&#45;&gt;Node7 -->
<g id="edge8_Node000002_Node000007" class="edge">
<title>Node2&#45;&gt;Node7</title>
<g id="a_edge8_Node000002_Node000007"><a xlink:title=" ">
<path fill="none" stroke="#63b8ff" d="M252.98,-46.25C262.6,-46.25 272.65,-46.25 282.46,-46.25"/>
<polygon fill="#63b8ff" stroke="#63b8ff" points="282.3,-49.75 292.3,-46.25 282.3,-42.75 282.3,-49.75"/>
</a>
</g>
</g>
<!-- Node4 -->
<g id="Node000004" class="node">
<title>Node4</title>
<g id="a_Node000004"><a xlink:href="a02358.html#aebf9e72bb6cbd8b9e33489d46c25075d" target="_top" xlink:title=" ">
<polygon fill="white" stroke="#666666" points="571.75,-92.5 455.25,-92.5 455.25,-74 571.75,-74 571.75,-92.5"/>
<text text-anchor="middle" x="513.5" y="-79" font-family="Helvetica,sans-Serif" font-size="10.00">async_completion_wait</text>
</a>
</g>
</g>
<!-- Node3&#45;&gt;Node4 -->
<g id="edge5_Node000003_Node000004" class="edge">
<title>Node3&#45;&gt;Node4</title>
<g id="a_edge5_Node000003_Node000004"><a xlink:title=" ">
<path fill="none" stroke="#63b8ff" d="M403.16,-83.25C416.14,-83.25 430.19,-83.25 443.76,-83.25"/>
<polygon fill="#63b8ff" stroke="#63b8ff" points="443.49,-86.75 453.49,-83.25 443.49,-79.75 443.49,-86.75"/>
</a>
</g>
</g>
<!-- Node6 -->
<g id="Node000006" class="node">
<title>Node6</title>
<g id="a_Node000006"><a xlink:href="a02358.html#ad1d30ecbf6bff6457b680aa940281072" target="_top" xlink:title=" ">
<polygon fill="white" stroke="#666666" points="583,-18.5 444,-18.5 444,0 583,0 583,-18.5"/>
<text text-anchor="middle" x="513.5" y="-5" font-family="Helvetica,sans-Serif" font-size="10.00">async_completion_complete</text>
</a>
</g>
</g>
<!-- Node5&#45;&gt;Node6 -->
<g id="edge7_Node000005_Node000006" class="edge">
<title>Node5&#45;&gt;Node6</title>
<g id="a_edge7_Node000005_Node000006"><a xlink:title=" ">
<path fill="none" stroke="#63b8ff" d="M408.19,-9.25C416.01,-9.25 424.13,-9.25 432.24,-9.25"/>
<polygon fill="#63b8ff" stroke="#63b8ff" points="432.14,-12.75 442.14,-9.25 432.14,-5.75 432.14,-12.75"/>
</a>
</g>
</g>
<!-- Node7&#45;&gt;Node4 -->
<g id="edge10_Node000007_Node000004" class="edge">
<title>Node7&#45;&gt;Node4</title>
<g id="a_edge10_Node000007_Node000004"><a xlink:title=" ">
<path fill="none" stroke="#63b8ff" d="M392.14,-55.97C412.49,-60.58 437.03,-66.15 458.62,-71.04"/>
<polygon fill="#63b8ff" stroke="#63b8ff" points="457.61,-74.4 468.14,-73.19 459.16,-67.57 457.61,-74.4"/>
</a>
</g>
</g>
<!-- Node7&#45;&gt;Node6 -->
<g id="edge9_Node000007_Node000006" class="edge">
<title>Node7&#45;&gt;Node6</title>
<g id="a_edge9_Node000007_Node000006"><a xlink:title=" ">
<path fill="none" stroke="#63b8ff" d="M392.14,-36.53C412.49,-31.92 437.03,-26.35 458.62,-21.46"/>
<polygon fill="#63b8ff" stroke="#63b8ff" points="459.16,-24.93 468.14,-19.31 457.61,-18.1 459.16,-24.93"/>
</a>
</g>
</g>
<!-- Node8 -->
<g id="Node000008" class="node">
<title>Node8</title>
<g id="a_Node000008"><a xlink:href="a02358.html#a7ab7c7fe9cb93434dde72a4e464a7e69" target="_top" xlink:title=" ">
<polygon fill="white" stroke="#666666" points="571.38,-55.5 455.62,-55.5 455.62,-37 571.38,-37 571.38,-55.5"/>
<text text-anchor="middle" x="513.5" y="-42" font-family="Helvetica,sans-Serif" font-size="10.00">async_semaphore_dec</text>
</a>
</g>
</g>
<!-- Node7&#45;&gt;Node8 -->
<g id="edge11_Node000007_Node000008" class="edge">
<title>Node7&#45;&gt;Node8</title>
<g id="a_edge11_Node000007_Node000008"><a xlink:title=" ">
<path fill="none" stroke="#63b8ff" d="M402.7,-46.25C415.85,-46.25 430.11,-46.25 443.87,-46.25"/>
<polygon fill="#63b8ff" stroke="#63b8ff" points="443.76,-49.75 453.76,-46.25 443.76,-42.75 443.76,-49.75"/>
</a>
</g>
</g>
</g>
</svg>
