<?xml version="1.0" encoding="UTF-8" standalone="no"?>
<!DOCTYPE svg PUBLIC "-//W3C//DTD SVG 1.1//EN"
 "http://www.w3.org/Graphics/SVG/1.1/DTD/svg11.dtd">
<!-- Generated by graphviz version 8.0.5 (0)
 -->
<!-- Title: alloc.h Pages: 1 -->
<svg width="142pt" height="81pt"
 viewBox="0.00 0.00 142.38 81.00" xmlns="http://www.w3.org/2000/svg" xmlns:xlink="http://www.w3.org/1999/xlink">
<g id="graph0" class="graph" transform="scale(1 1) rotate(0) translate(4 77)">
<title>alloc.h</title>
<!-- Node1 -->
<g id="Node000001" class="node">
<title>Node1</title>
<g id="a_Node000001"><a xlink:title=" ">
<polygon fill="#999999" stroke="#666666" points="92.25,-73 47.75,-73 47.75,-54.5 92.25,-54.5 92.25,-73"/>
<text text-anchor="middle" x="70" y="-59.5" font-family="Helvetica,sans-Serif" font-size="10.00">alloc.h</text>
</a>
</g>
</g>
<!-- Node2 -->
<g id="Node000002" class="node">
<title>Node2</title>
<g id="a_Node000002"><a xlink:href="a01940.html" target="_top" xlink:title=" ">
<polygon fill="white" stroke="#666666" points="64,-18.5 0,-18.5 0,0 64,0 64,-18.5"/>
<text text-anchor="middle" x="32" y="-5" font-family="Helvetica,sans-Serif" font-size="10.00">arax_plot.c</text>
</a>
</g>
</g>
<!-- Node1&#45;&gt;Node2 -->
<g id="edge1_Node000001_Node000002" class="edge">
<title>Node1&#45;&gt;Node2</title>
<g id="a_edge1_Node000001_Node000002"><a xlink:title=" ">
<path fill="none" stroke="#63b8ff" d="M57.32,-45.23C50.87,-36.32 43.32,-25.9 38.16,-18.76"/>
<polygon fill="#63b8ff" stroke="#63b8ff" points="55.03,-47.03 63.73,-53.08 60.7,-42.93 55.03,-47.03"/>
</a>
</g>
</g>
<!-- Node3 -->
<g id="Node000003" class="node">
<title>Node3</title>
<g id="a_Node000003"><a xlink:href="a01889.html" target="_top" xlink:title=" ">
<polygon fill="white" stroke="#666666" points="134.38,-18.5 81.62,-18.5 81.62,0 134.38,0 134.38,-18.5"/>
<text text-anchor="middle" x="108" y="-5" font-family="Helvetica,sans-Serif" font-size="10.00">malloc.c</text>
</a>
</g>
</g>
<!-- Node1&#45;&gt;Node3 -->
<g id="edge2_Node000001_Node000003" class="edge">
<title>Node1&#45;&gt;Node3</title>
<g id="a_edge2_Node000001_Node000003"><a xlink:title=" ">
<path fill="none" stroke="#63b8ff" d="M82.68,-45.23C89.13,-36.32 96.68,-25.9 101.84,-18.76"/>
<polygon fill="#63b8ff" stroke="#63b8ff" points="79.3,-42.93 76.27,-53.08 84.97,-47.03 79.3,-42.93"/>
</a>
</g>
</g>
</g>
</svg>
