<?xml version="1.0" encoding="UTF-8" standalone="no"?>
<!DOCTYPE svg PUBLIC "-//W3C//DTD SVG 1.1//EN"
 "http://www.w3.org/Graphics/SVG/1.1/DTD/svg11.dtd">
<!-- Generated by graphviz version 8.0.5 (0)
 -->
<!-- Title: arax_accel_wait_for_task Pages: 1 -->
<svg width="466pt" height="101pt"
 viewBox="0.00 0.00 465.50 100.50" xmlns="http://www.w3.org/2000/svg" xmlns:xlink="http://www.w3.org/1999/xlink">
<g id="graph0" class="graph" transform="scale(1 1) rotate(0) translate(4 96.5)">
<title>arax_accel_wait_for_task</title>
<!-- Node1 -->
<g id="Node000001" class="node">
<title>Node1</title>
<g id="a_Node000001"><a xlink:title=" ">
<polygon fill="#999999" stroke="#666666" points="127,-55.5 0,-55.5 0,-37 127,-37 127,-55.5"/>
<text text-anchor="middle" x="63.5" y="-42" font-family="Helvetica,sans-Serif" font-size="10.00">arax_accel_wait_for_task</text>
</a>
</g>
</g>
<!-- Node2 -->
<g id="Node000002" class="node">
<title>Node2</title>
<g id="a_Node000002"><a xlink:href="a02352.html#aed6af4d83e934e3e654ead541b15f2d9" target="_top" xlink:title=" ">
<polygon fill="white" stroke="#666666" points="277.25,-92.5 168.25,-92.5 168.25,-74 277.25,-74 277.25,-92.5"/>
<text text-anchor="middle" x="222.75" y="-79" font-family="Helvetica,sans-Serif" font-size="10.00">async_condition_lock</text>
</a>
</g>
</g>
<!-- Node1&#45;&gt;Node2 -->
<g id="edge1_Node000001_Node000002" class="edge">
<title>Node1&#45;&gt;Node2</title>
<g id="a_edge1_Node000001_Node000002"><a xlink:title=" ">
<path fill="none" stroke="#63b8ff" d="M105.82,-55.97C125.42,-60.58 149.05,-66.15 169.85,-71.04"/>
<polygon fill="#63b8ff" stroke="#63b8ff" points="168.9,-74.65 179.44,-73.53 170.51,-67.83 168.9,-74.65"/>
</a>
</g>
</g>
<!-- Node4 -->
<g id="Node000004" class="node">
<title>Node4</title>
<g id="a_Node000004"><a xlink:href="a02352.html#a3bbcb7c4c024e99d5c4ba52b61dfbbf7" target="_top" xlink:title=" ">
<polygon fill="white" stroke="#666666" points="282.5,-18.5 163,-18.5 163,0 282.5,0 282.5,-18.5"/>
<text text-anchor="middle" x="222.75" y="-5" font-family="Helvetica,sans-Serif" font-size="10.00">async_condition_unlock</text>
</a>
</g>
</g>
<!-- Node1&#45;&gt;Node4 -->
<g id="edge3_Node000001_Node000004" class="edge">
<title>Node1&#45;&gt;Node4</title>
<g id="a_edge3_Node000001_Node000004"><a xlink:title=" ">
<path fill="none" stroke="#63b8ff" d="M105.82,-36.53C125.42,-31.92 149.05,-26.35 169.85,-21.46"/>
<polygon fill="#63b8ff" stroke="#63b8ff" points="170.51,-24.67 179.44,-18.97 168.9,-17.85 170.51,-24.67"/>
</a>
</g>
</g>
<!-- Node6 -->
<g id="Node000006" class="node">
<title>Node6</title>
<g id="a_Node000006"><a xlink:href="a02352.html#a1bfeaeb9b81855e640d7a67cc9d92b17" target="_top" xlink:title=" ">
<polygon fill="white" stroke="#666666" points="276.88,-55.5 168.62,-55.5 168.62,-37 276.88,-37 276.88,-55.5"/>
<text text-anchor="middle" x="222.75" y="-42" font-family="Helvetica,sans-Serif" font-size="10.00">async_condition_wait</text>
</a>
</g>
</g>
<!-- Node1&#45;&gt;Node6 -->
<g id="edge5_Node000001_Node000006" class="edge">
<title>Node1&#45;&gt;Node6</title>
<g id="a_edge5_Node000001_Node000006"><a xlink:title=" ">
<path fill="none" stroke="#63b8ff" d="M127.1,-46.25C137.1,-46.25 147.46,-46.25 157.5,-46.25"/>
<polygon fill="#63b8ff" stroke="#63b8ff" points="157.24,-49.75 167.24,-46.25 157.24,-42.75 157.24,-49.75"/>
</a>
</g>
</g>
<!-- Node3 -->
<g id="Node000003" class="node">
<title>Node3</title>
<g id="a_Node000003"><a xlink:href="a02346.html#aebf9e72bb6cbd8b9e33489d46c25075d" target="_top" xlink:title=" ">
<polygon fill="white" stroke="#666666" points="446.25,-92.5 329.75,-92.5 329.75,-74 446.25,-74 446.25,-92.5"/>
<text text-anchor="middle" x="388" y="-79" font-family="Helvetica,sans-Serif" font-size="10.00">async_completion_wait</text>
</a>
</g>
</g>
<!-- Node2&#45;&gt;Node3 -->
<g id="edge2_Node000002_Node000003" class="edge">
<title>Node2&#45;&gt;Node3</title>
<g id="a_edge2_Node000002_Node000003"><a xlink:title=" ">
<path fill="none" stroke="#63b8ff" d="M277.66,-83.25C290.77,-83.25 304.98,-83.25 318.66,-83.25"/>
<polygon fill="#63b8ff" stroke="#63b8ff" points="318.5,-86.75 328.5,-83.25 318.5,-79.75 318.5,-86.75"/>
</a>
</g>
</g>
<!-- Node5 -->
<g id="Node000005" class="node">
<title>Node5</title>
<g id="a_Node000005"><a xlink:href="a02346.html#ad1d30ecbf6bff6457b680aa940281072" target="_top" xlink:title=" ">
<polygon fill="white" stroke="#666666" points="457.5,-18.5 318.5,-18.5 318.5,0 457.5,0 457.5,-18.5"/>
<text text-anchor="middle" x="388" y="-5" font-family="Helvetica,sans-Serif" font-size="10.00">async_completion_complete</text>
</a>
</g>
</g>
<!-- Node4&#45;&gt;Node5 -->
<g id="edge4_Node000004_Node000005" class="edge">
<title>Node4&#45;&gt;Node5</title>
<g id="a_edge4_Node000004_Node000005"><a xlink:title=" ">
<path fill="none" stroke="#63b8ff" d="M282.69,-9.25C290.69,-9.25 299.01,-9.25 307.3,-9.25"/>
<polygon fill="#63b8ff" stroke="#63b8ff" points="307.15,-12.75 317.15,-9.25 307.15,-5.75 307.15,-12.75"/>
</a>
</g>
</g>
<!-- Node6&#45;&gt;Node3 -->
<g id="edge7_Node000006_Node000003" class="edge">
<title>Node6&#45;&gt;Node3</title>
<g id="a_edge7_Node000006_Node000003"><a xlink:title=" ">
<path fill="none" stroke="#63b8ff" d="M266.64,-55.97C287.09,-60.61 311.76,-66.2 333.42,-71.11"/>
<polygon fill="#63b8ff" stroke="#63b8ff" points="332.59,-74.73 343.11,-73.53 334.13,-67.91 332.59,-74.73"/>
</a>
</g>
</g>
<!-- Node6&#45;&gt;Node5 -->
<g id="edge6_Node000006_Node000005" class="edge">
<title>Node6&#45;&gt;Node5</title>
<g id="a_edge6_Node000006_Node000005"><a xlink:title=" ">
<path fill="none" stroke="#63b8ff" d="M266.64,-36.53C287.09,-31.89 311.76,-26.3 333.42,-21.39"/>
<polygon fill="#63b8ff" stroke="#63b8ff" points="334.13,-24.59 343.11,-18.97 332.59,-17.77 334.13,-24.59"/>
</a>
</g>
</g>
<!-- Node7 -->
<g id="Node000007" class="node">
<title>Node7</title>
<g id="a_Node000007"><a xlink:href="a02346.html#a7ab7c7fe9cb93434dde72a4e464a7e69" target="_top" xlink:title=" ">
<polygon fill="white" stroke="#666666" points="445.88,-55.5 330.12,-55.5 330.12,-37 445.88,-37 445.88,-55.5"/>
<text text-anchor="middle" x="388" y="-42" font-family="Helvetica,sans-Serif" font-size="10.00">async_semaphore_dec</text>
</a>
</g>
</g>
<!-- Node6&#45;&gt;Node7 -->
<g id="edge8_Node000006_Node000007" class="edge">
<title>Node6&#45;&gt;Node7</title>
<g id="a_edge8_Node000006_Node000007"><a xlink:title=" ">
<path fill="none" stroke="#63b8ff" d="M277.2,-46.25C290.48,-46.25 304.9,-46.25 318.78,-46.25"/>
<polygon fill="#63b8ff" stroke="#63b8ff" points="318.77,-49.75 328.77,-46.25 318.77,-42.75 318.77,-49.75"/>
</a>
</g>
</g>
</g>
</svg>
