<?xml version="1.0" encoding="UTF-8" standalone="no"?>
<!DOCTYPE svg PUBLIC "-//W3C//DTD SVG 1.1//EN"
 "http://www.w3.org/Graphics/SVG/1.1/DTD/svg11.dtd">
<!-- Generated by graphviz version 12.2.1 (0)
 -->
<!-- Title: spinlock.h Pages: 1 -->
<svg width="170pt" height="136pt"
 viewBox="0.00 0.00 170.25 135.50" xmlns="http://www.w3.org/2000/svg" xmlns:xlink="http://www.w3.org/1999/xlink">
<g id="graph0" class="graph" transform="scale(1 1) rotate(0) translate(4 131.5)">
<title>spinlock.h</title>
<!-- Node1 -->
<g id="Node000001" class="node">
<title>Node1</title>
<g id="a_Node000001"><a xlink:title=" ">
<polygon fill="#999999" stroke="#666666" points="98.88,-127.5 38.62,-127.5 38.62,-109 98.88,-109 98.88,-127.5"/>
<text text-anchor="middle" x="68.75" y="-114" font-family="Helvetica,sans-Serif" font-size="10.00">spinlock.h</text>
</a>
</g>
</g>
<!-- Node2 -->
<g id="Node000002" class="node">
<title>Node2</title>
<g id="a_Node000002"><a xlink:title=" ">
<polygon fill="#e0e0e0" stroke="#999999" points="47.5,-73 0,-73 0,-54.5 47.5,-54.5 47.5,-73"/>
<text text-anchor="middle" x="23.75" y="-59.5" font-family="Helvetica,sans-Serif" font-size="10.00">stdint.h</text>
</a>
</g>
</g>
<!-- Node1&#45;&gt;Node2 -->
<g id="edge1_Node000001_Node000002" class="edge">
<title>Node1&#45;&gt;Node2</title>
<g id="a_edge1_Node000001_Node000002"><a xlink:title=" ">
<path fill="none" stroke="#63b8ff" d="M61.32,-108.58C55.09,-101.32 46.02,-90.73 38.35,-81.78"/>
<polygon fill="#63b8ff" stroke="#63b8ff" points="41.19,-79.72 32.03,-74.41 35.88,-84.28 41.19,-79.72"/>
</a>
</g>
</g>
<!-- Node3 -->
<g id="Node000003" class="node">
<title>Node3</title>
<g id="a_Node000003"><a xlink:href="a01373.html" target="_top" xlink:title=" ">
<polygon fill="white" stroke="#666666" points="162.25,-73 65.25,-73 65.25,-54.5 162.25,-54.5 162.25,-73"/>
<text text-anchor="middle" x="113.75" y="-59.5" font-family="Helvetica,sans-Serif" font-size="10.00">utils/arax_assert.h</text>
</a>
</g>
</g>
<!-- Node1&#45;&gt;Node3 -->
<g id="edge2_Node000001_Node000003" class="edge">
<title>Node1&#45;&gt;Node3</title>
<g id="a_edge2_Node000001_Node000003"><a xlink:title=" ">
<path fill="none" stroke="#63b8ff" d="M76.18,-108.58C82.41,-101.32 91.48,-90.73 99.15,-81.78"/>
<polygon fill="#63b8ff" stroke="#63b8ff" points="101.62,-84.28 105.47,-74.41 96.31,-79.72 101.62,-84.28"/>
</a>
</g>
</g>
<!-- Node4 -->
<g id="Node000004" class="node">
<title>Node4</title>
<g id="a_Node000004"><a xlink:href="a01382.html" target="_top" xlink:title=" ">
<polygon fill="white" stroke="#666666" points="141.62,-18.5 85.88,-18.5 85.88,0 141.62,0 141.62,-18.5"/>
<text text-anchor="middle" x="113.75" y="-5" font-family="Helvetica,sans-Serif" font-size="10.00">compat.h</text>
</a>
</g>
</g>
<!-- Node3&#45;&gt;Node4 -->
<g id="edge3_Node000003_Node000004" class="edge">
<title>Node3&#45;&gt;Node4</title>
<g id="a_edge3_Node000003_Node000004"><a xlink:title=" ">
<path fill="none" stroke="#63b8ff" d="M113.75,-54.08C113.75,-47.58 113.75,-38.42 113.75,-30.16"/>
<polygon fill="#63b8ff" stroke="#63b8ff" points="117.25,-30.27 113.75,-20.27 110.25,-30.27 117.25,-30.27"/>
</a>
</g>
</g>
</g>
</svg>
