<?xml version="1.0" encoding="UTF-8" standalone="no"?>
<!DOCTYPE svg PUBLIC "-//W3C//DTD SVG 1.1//EN"
 "http://www.w3.org/Graphics/SVG/1.1/DTD/svg11.dtd">
<!-- Generated by graphviz version 12.2.1 (0)
 -->
<!-- Title: utils_queue_init Pages: 1 -->
<svg width="376pt" height="101pt"
 viewBox="0.00 0.00 376.25 100.50" xmlns="http://www.w3.org/2000/svg" xmlns:xlink="http://www.w3.org/1999/xlink">
<g id="graph0" class="graph" transform="scale(1 1) rotate(0) translate(4 96.5)">
<title>utils_queue_init</title>
<!-- Node1 -->
<g id="Node000001" class="node">
<title>Node1</title>
<g id="a_Node000001"><a xlink:title=" ">
<polygon fill="#999999" stroke="#666666" points="368.25,-55.5 284.75,-55.5 284.75,-37 368.25,-37 368.25,-55.5"/>
<text text-anchor="middle" x="326.5" y="-42" font-family="Helvetica,sans-Serif" font-size="10.00">utils_queue_init</text>
</a>
</g>
</g>
<!-- Node2 -->
<g id="Node000002" class="node">
<title>Node2</title>
<g id="a_Node000002"><a xlink:href="a01943.html#a83ddb422946cf774c687c1ab63dcda15" target="_top" xlink:title=" ">
<polygon fill="white" stroke="#666666" points="248.75,-55.5 162.25,-55.5 162.25,-37 248.75,-37 248.75,-55.5"/>
<text text-anchor="middle" x="205.5" y="-42" font-family="Helvetica,sans-Serif" font-size="10.00">arax_vaccel_init</text>
</a>
</g>
</g>
<!-- Node1&#45;&gt;Node2 -->
<g id="edge1_Node000001_Node000002" class="edge">
<title>Node1&#45;&gt;Node2</title>
<g id="a_edge1_Node000001_Node000002"><a xlink:title=" ">
<path fill="none" stroke="#63b8ff" d="M273.04,-46.25C265.05,-46.25 256.89,-46.25 249.15,-46.25"/>
<polygon fill="#63b8ff" stroke="#63b8ff" points="273.03,-49.75 283.03,-46.25 273.03,-42.75 273.03,-49.75"/>
</a>
</g>
</g>
<!-- Node3 -->
<g id="Node000003" class="node">
<title>Node3</title>
<g id="a_Node000003"><a xlink:href="a02187.html#gaf8a10ab4e51e59c464ab3ab473e4a0f7" target="_top" xlink:title=" ">
<polygon fill="white" stroke="#666666" points="126.25,-92.5 0,-92.5 0,-74 126.25,-74 126.25,-92.5"/>
<text text-anchor="middle" x="63.12" y="-79" font-family="Helvetica,sans-Serif" font-size="10.00">arax_accel_acquire_phys</text>
</a>
</g>
</g>
<!-- Node2&#45;&gt;Node3 -->
<g id="edge2_Node000002_Node000003" class="edge">
<title>Node2&#45;&gt;Node3</title>
<g id="a_edge2_Node000002_Node000003"><a xlink:title=" ">
<path fill="none" stroke="#63b8ff" d="M156.59,-58.88C138.32,-63.69 117.81,-69.1 100.76,-73.59"/>
<polygon fill="#63b8ff" stroke="#63b8ff" points="157.38,-62.29 166.15,-56.36 155.59,-55.52 157.38,-62.29"/>
</a>
</g>
</g>
<!-- Node4 -->
<g id="Node000004" class="node">
<title>Node4</title>
<g id="a_Node000004"><a xlink:href="a02187.html#ga008252bb9afc2990fa2c5f4b980c9f27" target="_top" xlink:title=" ">
<polygon fill="white" stroke="#666666" points="125.5,-55.5 0.75,-55.5 0.75,-37 125.5,-37 125.5,-55.5"/>
<text text-anchor="middle" x="63.12" y="-42" font-family="Helvetica,sans-Serif" font-size="10.00">arax_accel_acquire_type</text>
</a>
</g>
</g>
<!-- Node2&#45;&gt;Node4 -->
<g id="edge3_Node000002_Node000004" class="edge">
<title>Node2&#45;&gt;Node4</title>
<g id="a_edge3_Node000002_Node000004"><a xlink:title=" ">
<path fill="none" stroke="#63b8ff" d="M150.76,-46.25C142.63,-46.25 134.18,-46.25 125.9,-46.25"/>
<polygon fill="#63b8ff" stroke="#63b8ff" points="150.49,-49.75 160.49,-46.25 150.49,-42.75 150.49,-49.75"/>
</a>
</g>
</g>
<!-- Node5 -->
<g id="Node000005" class="node">
<title>Node5</title>
<g id="a_Node000005"><a xlink:href="a01916.html#a0706a66a62ca8710342ac1c097b703ed" target="_top" xlink:title=" ">
<polygon fill="white" stroke="#666666" points="104.12,-18.5 22.12,-18.5 22.12,0 104.12,0 104.12,-18.5"/>
<text text-anchor="middle" x="63.12" y="-5" font-family="Helvetica,sans-Serif" font-size="10.00">arax_accel_init</text>
</a>
</g>
</g>
<!-- Node2&#45;&gt;Node5 -->
<g id="edge4_Node000002_Node000005" class="edge">
<title>Node2&#45;&gt;Node5</title>
<g id="a_edge4_Node000002_Node000005"><a xlink:title=" ">
<path fill="none" stroke="#63b8ff" d="M156.59,-33.62C138.32,-28.81 117.81,-23.4 100.76,-18.91"/>
<polygon fill="#63b8ff" stroke="#63b8ff" points="155.59,-36.98 166.15,-36.14 157.38,-30.21 155.59,-36.98"/>
</a>
</g>
</g>
</g>
</svg>
