<?xml version="1.0" encoding="UTF-8" standalone="no"?>
<!DOCTYPE svg PUBLIC "-//W3C//DTD SVG 1.1//EN"
 "http://www.w3.org/Graphics/SVG/1.1/DTD/svg11.dtd">
<!-- Generated by graphviz version 8.0.5 (0)
 -->
<!-- Title: system_file_size Pages: 1 -->
<svg width="1822pt" height="231pt"
 viewBox="0.00 0.00 1822.00 230.59" xmlns="http://www.w3.org/2000/svg" xmlns:xlink="http://www.w3.org/1999/xlink">
<g id="graph0" class="graph" transform="scale(1 1) rotate(0) translate(4 226.59)">
<title>system_file_size</title>
<!-- Node1 -->
<g id="Node000001" class="node">
<title>Node1</title>
<g id="a_Node000001"><a xlink:title=" ">
<polygon fill="#999999" stroke="#666666" points="1814,-66.5 1726.75,-66.5 1726.75,-48 1814,-48 1814,-66.5"/>
<text text-anchor="middle" x="1770.38" y="-53" font-family="Helvetica,sans-Serif" font-size="10.00">system_file_size</text>
</a>
</g>
</g>
<!-- Node2 -->
<g id="Node000002" class="node">
<title>Node2</title>
<g id="a_Node000002"><a xlink:href="a01952.html#a8b687fb4c464903e23504eea3ddc3873" target="_top" xlink:title=" ">
<polygon fill="white" stroke="#666666" points="1690.75,-85.5 1637.25,-85.5 1637.25,-67 1690.75,-67 1690.75,-85.5"/>
<text text-anchor="middle" x="1664" y="-72" font-family="Helvetica,sans-Serif" font-size="10.00">conf_get</text>
</a>
</g>
</g>
<!-- Node1&#45;&gt;Node2 -->
<g id="edge1_Node000001_Node000002" class="edge">
<title>Node1&#45;&gt;Node2</title>
<g id="a_edge1_Node000001_Node000002"><a xlink:title=" ">
<path fill="none" stroke="#63b8ff" d="M1715.61,-67.04C1707.13,-68.58 1698.7,-70.12 1691.22,-71.48"/>
<polygon fill="#63b8ff" stroke="#63b8ff" points="1716.11,-70.32 1725.32,-65.09 1714.85,-63.44 1716.11,-70.32"/>
</a>
</g>
</g>
<!-- Node24 -->
<g id="Node000024" class="node">
<title>Node24</title>
<g id="a_Node000024"><a xlink:href="a01955.html#ad8ca0aa2e50dbe9c1827c2d4da814cf6" target="_top" xlink:title=" ">
<polygon fill="white" stroke="#666666" points="1586.62,-48.5 1507.62,-48.5 1507.62,-30 1586.62,-30 1586.62,-48.5"/>
<text text-anchor="middle" x="1547.12" y="-35" font-family="Helvetica,sans-Serif" font-size="10.00">system_mmap</text>
</a>
</g>
</g>
<!-- Node1&#45;&gt;Node24 -->
<g id="edge31_Node000001_Node000024" class="edge">
<title>Node1&#45;&gt;Node24</title>
<g id="a_edge31_Node000001_Node000024"><a xlink:title=" ">
<path fill="none" stroke="#63b8ff" d="M1715.61,-52.88C1675.81,-49.64 1622.53,-45.3 1586.85,-42.4"/>
<polygon fill="#63b8ff" stroke="#63b8ff" points="1715.2,-56.44 1725.45,-53.76 1715.77,-49.46 1715.2,-56.44"/>
</a>
</g>
</g>
<!-- Node3 -->
<g id="Node000003" class="node">
<title>Node3</title>
<g id="a_Node000003"><a xlink:href="a01952.html#a0738274ac3fd171eda6bfb42492bc0d7" target="_top" xlink:title=" ">
<polygon fill="white" stroke="#666666" points="1452.5,-85.5 1346.5,-85.5 1346.5,-67 1452.5,-67 1452.5,-85.5"/>
<text text-anchor="middle" x="1399.5" y="-72" font-family="Helvetica,sans-Serif" font-size="10.00">_utils_config_get_str</text>
</a>
</g>
</g>
<!-- Node2&#45;&gt;Node3 -->
<g id="edge2_Node000002_Node000003" class="edge">
<title>Node2&#45;&gt;Node3</title>
<g id="a_edge2_Node000002_Node000003"><a xlink:title=" ">
<path fill="none" stroke="#63b8ff" d="M1626.11,-76.25C1580.94,-76.25 1504.17,-76.25 1452.9,-76.25"/>
<polygon fill="#63b8ff" stroke="#63b8ff" points="1625.87,-79.75 1635.87,-76.25 1625.87,-72.75 1625.87,-79.75"/>
</a>
</g>
</g>
<!-- Node22 -->
<g id="Node000022" class="node">
<title>Node22</title>
<g id="a_Node000022"><a xlink:href="a01952.html#a4b9cd8f5d0c205ac6c1fd30f77cbf539" target="_top" xlink:title=" ">
<polygon fill="white" stroke="#666666" points="1601.25,-122.5 1493,-122.5 1493,-104 1601.25,-104 1601.25,-122.5"/>
<text text-anchor="middle" x="1547.12" y="-109" font-family="Helvetica,sans-Serif" font-size="10.00">utils_config_write_str</text>
</a>
</g>
</g>
<!-- Node2&#45;&gt;Node22 -->
<g id="edge27_Node000002_Node000022" class="edge">
<title>Node2&#45;&gt;Node22</title>
<g id="a_edge27_Node000002_Node000022"><a xlink:title=" ">
<path fill="none" stroke="#63b8ff" d="M1626.58,-87.98C1610.98,-93.01 1592.97,-98.81 1578.15,-103.58"/>
<polygon fill="#63b8ff" stroke="#63b8ff" points="1627.49,-91.04 1635.93,-84.65 1625.34,-84.38 1627.49,-91.04"/>
</a>
</g>
</g>
<!-- Node4 -->
<g id="Node000004" class="node">
<title>Node4</title>
<g id="a_Node000004"><a xlink:href="a01952.html#a1a28ba7c7791236d03b1fa9f81aa6a71" target="_top" xlink:title=" ">
<polygon fill="white" stroke="#666666" points="1306,-103.5 1198.5,-103.5 1198.5,-85 1306,-85 1306,-103.5"/>
<text text-anchor="middle" x="1252.25" y="-90" font-family="Helvetica,sans-Serif" font-size="10.00">utils_config_get_long</text>
</a>
</g>
</g>
<!-- Node3&#45;&gt;Node4 -->
<g id="edge3_Node000003_Node000004" class="edge">
<title>Node3&#45;&gt;Node4</title>
<g id="a_edge3_Node000003_Node000004"><a xlink:title=" ">
<path fill="none" stroke="#63b8ff" d="M1335.22,-84.09C1325.51,-85.3 1315.56,-86.53 1306.1,-87.7"/>
<polygon fill="#63b8ff" stroke="#63b8ff" points="1335.57,-87.45 1345.06,-82.75 1334.71,-80.5 1335.57,-87.45"/>
</a>
</g>
</g>
<!-- Node18 -->
<g id="Node000018" class="node">
<title>Node18</title>
<g id="a_Node000018"><a xlink:href="a01952.html#a1e8deff7c038efae14d1cc98e4ab109f" target="_top" xlink:title=" ">
<polygon fill="white" stroke="#666666" points="1302.62,-159.5 1201.88,-159.5 1201.88,-141 1302.62,-141 1302.62,-159.5"/>
<text text-anchor="middle" x="1252.25" y="-146" font-family="Helvetica,sans-Serif" font-size="10.00">utils_config_get_str</text>
</a>
</g>
</g>
<!-- Node3&#45;&gt;Node18 -->
<g id="edge21_Node000003_Node000018" class="edge">
<title>Node3&#45;&gt;Node18</title>
<g id="a_edge21_Node000003_Node000018"><a xlink:title=" ">
<path fill="none" stroke="#63b8ff" d="M1355.41,-89.58C1350.83,-91.34 1346.28,-93.24 1342,-95.25 1313.79,-108.52 1283.42,-128.79 1266.53,-140.66"/>
<polygon fill="#63b8ff" stroke="#63b8ff" points="1356.22,-92.65 1364.43,-85.95 1353.84,-86.07 1356.22,-92.65"/>
</a>
</g>
</g>
<!-- Node5 -->
<g id="Node000005" class="node">
<title>Node5</title>
<g id="a_Node000005"><a xlink:href="a01952.html#a336fa8eefc3d744aa7248d6786cfee03" target="_top" xlink:title=" ">
<polygon fill="white" stroke="#666666" points="1162.5,-76.5 1062.5,-76.5 1062.5,-58 1162.5,-58 1162.5,-76.5"/>
<text text-anchor="middle" x="1112.5" y="-63" font-family="Helvetica,sans-Serif" font-size="10.00">utils_config_get_int</text>
</a>
</g>
</g>
<!-- Node4&#45;&gt;Node5 -->
<g id="edge4_Node000004_Node000005" class="edge">
<title>Node4&#45;&gt;Node5</title>
<g id="a_edge4_Node000004_Node000005"><a xlink:title=" ">
<path fill="none" stroke="#63b8ff" d="M1190.98,-82.44C1181.53,-80.58 1171.86,-78.69 1162.7,-76.89"/>
<polygon fill="#63b8ff" stroke="#63b8ff" points="1190.03,-86.01 1200.52,-84.5 1191.38,-79.14 1190.03,-86.01"/>
</a>
</g>
</g>
<!-- Node17 -->
<g id="Node000017" class="node">
<title>Node17</title>
<g id="a_Node000017"><a xlink:href="a01952.html#a4a525d89ade920512dc65409bc8e85d8" target="_top" xlink:title=" ">
<polygon fill="white" stroke="#666666" points="880,-150.5 773.25,-150.5 773.25,-132 880,-132 880,-150.5"/>
<text text-anchor="middle" x="826.62" y="-137" font-family="Helvetica,sans-Serif" font-size="10.00">utils_config_get_size</text>
</a>
</g>
</g>
<!-- Node4&#45;&gt;Node17 -->
<g id="edge19_Node000004_Node000017" class="edge">
<title>Node4&#45;&gt;Node17</title>
<g id="a_edge19_Node000004_Node000017"><a xlink:title=" ">
<path fill="none" stroke="#63b8ff" d="M1187.3,-97.79C1120.23,-101.97 1011.86,-110.09 919,-123.25 903.47,-125.45 886.59,-128.57 871.61,-131.59"/>
<polygon fill="#63b8ff" stroke="#63b8ff" points="1187.34,-101.23 1197.11,-97.12 1186.91,-94.24 1187.34,-101.23"/>
</a>
</g>
</g>
<!-- Node6 -->
<g id="Node000006" class="node">
<title>Node6</title>
<g id="a_Node000006"><a xlink:href="a01952.html#aa7aa94ad075bf97a566f01f899fcd859" target="_top" xlink:title=" ">
<polygon fill="white" stroke="#666666" points="1026.5,-76.5 919,-76.5 919,-58 1026.5,-58 1026.5,-76.5"/>
<text text-anchor="middle" x="972.75" y="-63" font-family="Helvetica,sans-Serif" font-size="10.00">utils_config_get_bool</text>
</a>
</g>
</g>
<!-- Node5&#45;&gt;Node6 -->
<g id="edge5_Node000005_Node000006" class="edge">
<title>Node5&#45;&gt;Node6</title>
<g id="a_edge5_Node000005_Node000006"><a xlink:title=" ">
<path fill="none" stroke="#63b8ff" d="M1051.26,-67.25C1043.16,-67.25 1034.91,-67.25 1026.94,-67.25"/>
<polygon fill="#63b8ff" stroke="#63b8ff" points="1051.16,-70.75 1061.16,-67.25 1051.16,-63.75 1051.16,-70.75"/>
</a>
</g>
</g>
<!-- Node7 -->
<g id="Node000007" class="node">
<title>Node7</title>
<g id="a_Node000007"><a xlink:href="a01898.html#a02fd608f651d254148dc74f0ae371dfe" target="_top" xlink:title=" ">
<polygon fill="white" stroke="#666666" points="577.25,-131.5 518.5,-131.5 518.5,-113 577.25,-113 577.25,-131.5"/>
<text text-anchor="middle" x="547.88" y="-118" font-family="Helvetica,sans-Serif" font-size="10.00">_arax_init</text>
</a>
</g>
</g>
<!-- Node6&#45;&gt;Node7 -->
<g id="edge6_Node000006_Node000007" class="edge">
<title>Node6&#45;&gt;Node7</title>
<g id="a_edge6_Node000006_Node000007"><a xlink:title=" ">
<path fill="none" stroke="#63b8ff" d="M907.74,-62.04C834.89,-58.06 713.06,-57.4 613.25,-86.25 594.06,-91.8 574.35,-103.95 561.88,-112.6"/>
<polygon fill="#63b8ff" stroke="#63b8ff" points="907.38,-65.58 917.57,-62.67 907.79,-58.59 907.38,-65.58"/>
</a>
</g>
</g>
<!-- Node15 -->
<g id="Node000015" class="node">
<title>Node15</title>
<g id="a_Node000015"><a xlink:href="a02352.html#ab2e422aab2fcfa562795beb2843e8019" target="_top" xlink:title=" ">
<polygon fill="white" stroke="#666666" points="883,-113.5 770.25,-113.5 770.25,-95 883,-95 883,-113.5"/>
<text text-anchor="middle" x="826.62" y="-100" font-family="Helvetica,sans-Serif" font-size="10.00">async_meta_init_once</text>
</a>
</g>
</g>
<!-- Node6&#45;&gt;Node15 -->
<g id="edge16_Node000006_Node000015" class="edge">
<title>Node6&#45;&gt;Node15</title>
<g id="a_edge16_Node000006_Node000015"><a xlink:title=" ">
<path fill="none" stroke="#63b8ff" d="M923.39,-79.66C904.52,-84.51 883.21,-89.98 865.49,-94.53"/>
<polygon fill="#63b8ff" stroke="#63b8ff" points="924.07,-82.85 932.88,-76.97 922.33,-76.07 924.07,-82.85"/>
</a>
</g>
</g>
<!-- Node8 -->
<g id="Node000008" class="node">
<title>Node8</title>
<g id="a_Node000008"><a xlink:href="a01898.html#aa6e4832b06bd5757be4502d2de7b3026" target="_top" xlink:title=" ">
<polygon fill="white" stroke="#666666" points="482.5,-157.75 384,-157.75 384,-128.75 482.5,-128.75 482.5,-157.75"/>
<text text-anchor="start" x="392" y="-144.25" font-family="Helvetica,sans-Serif" font-size="10.00">arax_controller_init</text>
<text text-anchor="middle" x="433.25" y="-133.75" font-family="Helvetica,sans-Serif" font-size="10.00">_start</text>
</a>
</g>
</g>
<!-- Node7&#45;&gt;Node8 -->
<g id="edge7_Node000007_Node000008" class="edge">
<title>Node7&#45;&gt;Node8</title>
<g id="a_edge7_Node000007_Node000008"><a xlink:title=" ">
<path fill="none" stroke="#63b8ff" d="M507.56,-129.58C499.5,-131.08 490.93,-132.68 482.6,-134.23"/>
<polygon fill="#63b8ff" stroke="#63b8ff" points="507.97,-132.88 517.16,-127.6 506.69,-126 507.97,-132.88"/>
</a>
</g>
</g>
<!-- Node9 -->
<g id="Node000009" class="node">
<title>Node9</title>
<g id="a_Node000009"><a xlink:href="a02174.html#gae1d371a2840849690acce147e7a205da" target="_top" xlink:title=" ">
<polygon fill="white" stroke="#666666" points="460,-110.5 406.5,-110.5 406.5,-92 460,-92 460,-110.5"/>
<text text-anchor="middle" x="433.25" y="-97" font-family="Helvetica,sans-Serif" font-size="10.00">arax_init</text>
</a>
</g>
</g>
<!-- Node7&#45;&gt;Node9 -->
<g id="edge8_Node000007_Node000009" class="edge">
<title>Node7&#45;&gt;Node9</title>
<g id="a_edge8_Node000007_Node000009"><a xlink:title=" ">
<path fill="none" stroke="#63b8ff" d="M507.67,-114.94C491.96,-112.01 474.28,-108.71 460.21,-106.09"/>
<polygon fill="#63b8ff" stroke="#63b8ff" points="506.69,-118.5 517.16,-116.9 507.97,-111.62 506.69,-118.5"/>
</a>
</g>
</g>
<!-- Node10 -->
<g id="Node000010" class="node">
<title>Node10</title>
<g id="a_Node000010"><a xlink:href="a01940.html#a8a99bcb12e2ee55d68a029bfca9b6d51" target="_top" xlink:title=" ">
<polygon fill="white" stroke="#666666" points="235.25,-139.75 141.25,-139.75 141.25,-110.75 235.25,-110.75 235.25,-139.75"/>
<text text-anchor="start" x="149.25" y="-126.25" font-family="Helvetica,sans-Serif" font-size="10.00">arax_plot_register</text>
<text text-anchor="middle" x="188.25" y="-115.75" font-family="Helvetica,sans-Serif" font-size="10.00">_metric</text>
</a>
</g>
</g>
<!-- Node9&#45;&gt;Node10 -->
<g id="edge9_Node000009_Node000010" class="edge">
<title>Node9&#45;&gt;Node10</title>
<g id="a_edge9_Node000009_Node000010"><a xlink:title=" ">
<path fill="none" stroke="#63b8ff" d="M395.47,-104.88C352.62,-109.11 281.79,-116.11 235.32,-120.7"/>
<polygon fill="#63b8ff" stroke="#63b8ff" points="395.64,-108.28 405.24,-103.82 394.95,-101.32 395.64,-108.28"/>
</a>
</g>
</g>
<!-- Node11 -->
<g id="Node000011" class="node">
<title>Node11</title>
<g id="a_Node000011"><a xlink:href="a01919.html#a80ab3bf4a8af9bb101b5a53248609771" target="_top" xlink:title=" ">
<polygon fill="white" stroke="#666666" points="348,-92.5 271.25,-92.5 271.25,-74 348,-74 348,-92.5"/>
<text text-anchor="middle" x="309.62" y="-79" font-family="Helvetica,sans-Serif" font-size="10.00">arax_ptr_valid</text>
</a>
</g>
</g>
<!-- Node9&#45;&gt;Node11 -->
<g id="edge10_Node000009_Node000011" class="edge">
<title>Node9&#45;&gt;Node11</title>
<g id="a_edge10_Node000009_Node000011"><a xlink:title=" ">
<path fill="none" stroke="#63b8ff" d="M395.71,-95.84C380.7,-93.62 363.33,-91.05 348.21,-88.81"/>
<polygon fill="#63b8ff" stroke="#63b8ff" points="394.75,-99.39 405.16,-97.39 395.78,-92.46 394.75,-99.39"/>
</a>
</g>
</g>
<!-- Node11&#45;&gt;Node10 -->
<g id="edge15_Node000011_Node000010" class="edge">
<title>Node11&#45;&gt;Node10</title>
<g id="a_edge15_Node000011_Node000010"><a xlink:title=" ">
<path fill="none" stroke="#63b8ff" d="M270.89,-96.53C258.45,-100.9 244.53,-105.8 231.76,-110.29"/>
<polygon fill="#63b8ff" stroke="#63b8ff" points="271.67,-99.61 279.94,-92.99 269.34,-93.01 271.67,-99.61"/>
</a>
</g>
</g>
<!-- Node12 -->
<g id="Node000012" class="node">
<title>Node12</title>
<g id="a_Node000012"><a xlink:href="a01937.html#a4ee1fea325d2edd421f59ab240dfbe54" target="_top" xlink:title=" ">
<polygon fill="white" stroke="#666666" points="234.12,-92.5 142.38,-92.5 142.38,-74 234.12,-74 234.12,-92.5"/>
<text text-anchor="middle" x="188.25" y="-79" font-family="Helvetica,sans-Serif" font-size="10.00">_arax_assert_obj</text>
</a>
</g>
</g>
<!-- Node11&#45;&gt;Node12 -->
<g id="edge11_Node000011_Node000012" class="edge">
<title>Node11&#45;&gt;Node12</title>
<g id="a_edge11_Node000011_Node000012"><a xlink:title=" ">
<path fill="none" stroke="#63b8ff" d="M259.94,-83.25C251.46,-83.25 242.67,-83.25 234.3,-83.25"/>
<polygon fill="#63b8ff" stroke="#63b8ff" points="259.85,-86.75 269.85,-83.25 259.85,-79.75 259.85,-86.75"/>
</a>
</g>
</g>
<!-- Node13 -->
<g id="Node000013" class="node">
<title>Node13</title>
<g id="a_Node000013"><a xlink:href="a01931.html#afeaab7d93372f0752d59c70d9c5940e7" target="_top" xlink:title=" ">
<polygon fill="white" stroke="#666666" points="226.25,-18.5 150.25,-18.5 150.25,0 226.25,0 226.25,-18.5"/>
<text text-anchor="middle" x="188.25" y="-5" font-family="Helvetica,sans-Serif" font-size="10.00">arax_data_ref</text>
</a>
</g>
</g>
<!-- Node11&#45;&gt;Node13 -->
<g id="edge12_Node000011_Node000013" class="edge">
<title>Node11&#45;&gt;Node13</title>
<g id="a_edge12_Node000011_Node000013"><a xlink:title=" ">
<path fill="none" stroke="#63b8ff" d="M287.39,-67.27C273.02,-56.77 253.42,-43.03 235.25,-32.25 227.26,-27.51 218.17,-22.83 210.2,-18.93"/>
<polygon fill="#63b8ff" stroke="#63b8ff" points="284.88,-70.52 295.01,-73.64 289.05,-64.89 284.88,-70.52"/>
</a>
</g>
</g>
<!-- Node14 -->
<g id="Node000014" class="node">
<title>Node14</title>
<g id="a_Node000014"><a xlink:href="a01931.html#ac1f7fb20b3a23b388bea24f1b46a33a8" target="_top" xlink:title=" ">
<polygon fill="white" stroke="#666666" points="105.25,-36.5 0,-36.5 0,-18 105.25,-18 105.25,-36.5"/>
<text text-anchor="middle" x="52.62" y="-23" font-family="Helvetica,sans-Serif" font-size="10.00">arax_data_ref_offset</text>
</a>
</g>
</g>
<!-- Node11&#45;&gt;Node14 -->
<g id="edge14_Node000011_Node000014" class="edge">
<title>Node11&#45;&gt;Node14</title>
<g id="a_edge14_Node000011_Node000014"><a xlink:title=" ">
<path fill="none" stroke="#63b8ff" d="M260.52,-71.2C252.11,-69.16 243.43,-67.11 235.25,-65.25 190.33,-55.04 138.92,-44.38 102.29,-36.96"/>
<polygon fill="#63b8ff" stroke="#63b8ff" points="259.43,-74.78 269.98,-73.75 261.09,-67.98 259.43,-74.78"/>
</a>
</g>
</g>
<!-- Node13&#45;&gt;Node14 -->
<g id="edge13_Node000013_Node000014" class="edge">
<title>Node13&#45;&gt;Node14</title>
<g id="a_edge13_Node000013_Node000014"><a xlink:title=" ">
<path fill="none" stroke="#63b8ff" d="M139.37,-15.7C128.43,-17.17 116.74,-18.75 105.63,-20.25"/>
<polygon fill="#63b8ff" stroke="#63b8ff" points="139.58,-19.07 149.03,-14.26 138.65,-12.13 139.58,-19.07"/>
</a>
</g>
</g>
<!-- Node16 -->
<g id="Node000016" class="node">
<title>Node16</title>
<g id="a_Node000016"><a xlink:href="a01913.html#aa6293e9ec7776aa49ecf632fcc4f5e26" target="_top" xlink:title=" ">
<polygon fill="white" stroke="#666666" points="712.12,-113.5 635.38,-113.5 635.38,-95 712.12,-95 712.12,-113.5"/>
<text text-anchor="middle" x="673.75" y="-100" font-family="Helvetica,sans-Serif" font-size="10.00">arax_pipe_init</text>
</a>
</g>
</g>
<!-- Node15&#45;&gt;Node16 -->
<g id="edge17_Node000015_Node000016" class="edge">
<title>Node15&#45;&gt;Node16</title>
<g id="a_edge17_Node000015_Node000016"><a xlink:title=" ">
<path fill="none" stroke="#63b8ff" d="M758.95,-104.25C743,-104.25 726.52,-104.25 712.42,-104.25"/>
<polygon fill="#63b8ff" stroke="#63b8ff" points="758.87,-107.75 768.87,-104.25 758.87,-100.75 758.87,-107.75"/>
</a>
</g>
</g>
<!-- Node16&#45;&gt;Node7 -->
<g id="edge18_Node000016_Node000007" class="edge">
<title>Node16&#45;&gt;Node7</title>
<g id="a_edge18_Node000016_Node000007"><a xlink:title=" ">
<path fill="none" stroke="#63b8ff" d="M624.2,-111.3C608.37,-113.61 591.31,-116.08 577.44,-118.1"/>
<polygon fill="#63b8ff" stroke="#63b8ff" points="624.52,-114.65 633.91,-109.75 623.51,-107.72 624.52,-114.65"/>
</a>
</g>
</g>
<!-- Node17&#45;&gt;Node7 -->
<g id="edge20_Node000017_Node000007" class="edge">
<title>Node17&#45;&gt;Node7</title>
<g id="a_edge20_Node000017_Node000007"><a xlink:title=" ">
<path fill="none" stroke="#63b8ff" d="M762.03,-136.88C704.02,-132.9 620.94,-127.2 577.63,-124.22"/>
<polygon fill="#63b8ff" stroke="#63b8ff" points="761.7,-140.44 771.92,-137.63 762.18,-133.45 761.7,-140.44"/>
</a>
</g>
</g>
<!-- Node18&#45;&gt;Node7 -->
<g id="edge22_Node000018_Node000007" class="edge">
<title>Node18&#45;&gt;Node7</title>
<g id="a_edge22_Node000018_Node000007"><a xlink:title=" ">
<path fill="none" stroke="#63b8ff" d="M1216.93,-163.89C1165.12,-183.21 1063.44,-216.25 973.75,-216.25 973.75,-216.25 973.75,-216.25 825.62,-216.25 730.82,-216.25 697.59,-239.56 613.25,-196.25 584.62,-181.55 563.18,-148.22 553.91,-131.78"/>
<polygon fill="#63b8ff" stroke="#63b8ff" points="1218.1,-166.81 1226.21,-159.99 1215.62,-160.26 1218.1,-166.81"/>
</a>
</g>
</g>
<!-- Node19 -->
<g id="Node000019" class="node">
<title>Node19</title>
<g id="a_Node000019"><a xlink:href="a02174.html#ga4bae55e86ffc384b3c1d2da3580f5c42" target="_top" xlink:title=" ">
<polygon fill="white" stroke="#666666" points="1144.5,-150.5 1080.5,-150.5 1080.5,-132 1144.5,-132 1144.5,-150.5"/>
<text text-anchor="middle" x="1112.5" y="-137" font-family="Helvetica,sans-Serif" font-size="10.00">arax_clean</text>
</a>
</g>
</g>
<!-- Node18&#45;&gt;Node19 -->
<g id="edge23_Node000018_Node000019" class="edge">
<title>Node18&#45;&gt;Node19</title>
<g id="a_edge23_Node000018_Node000019"><a xlink:title=" ">
<path fill="none" stroke="#63b8ff" d="M1190.68,-146.29C1174.81,-145.26 1158.36,-144.18 1144.74,-143.29"/>
<polygon fill="#63b8ff" stroke="#63b8ff" points="1190.31,-149.84 1200.52,-147 1190.77,-142.86 1190.31,-149.84"/>
</a>
</g>
</g>
<!-- Node21 -->
<g id="Node000021" class="node">
<title>Node21</title>
<g id="a_Node000021"><a xlink:href="a02352.html#adbaa29dfccfdfe6e3fe69a1d001c05b5" target="_top" xlink:title=" ">
<polygon fill="white" stroke="#666666" points="734.25,-187.5 613.25,-187.5 613.25,-169 734.25,-169 734.25,-187.5"/>
<text text-anchor="middle" x="673.75" y="-174" font-family="Helvetica,sans-Serif" font-size="10.00">async_meta_init_always</text>
</a>
</g>
</g>
<!-- Node18&#45;&gt;Node21 -->
<g id="edge25_Node000018_Node000021" class="edge">
<title>Node18&#45;&gt;Node21</title>
<g id="a_edge25_Node000018_Node000021"><a xlink:title=" ">
<path fill="none" stroke="#63b8ff" d="M1190.63,-156.9C1181.22,-157.79 1171.61,-158.61 1162.5,-159.25 1008.43,-170.05 826.53,-175.1 734.51,-177.12"/>
<polygon fill="#63b8ff" stroke="#63b8ff" points="1190.93,-160.29 1200.54,-155.84 1190.25,-153.33 1190.93,-160.29"/>
</a>
</g>
</g>
<!-- Node20 -->
<g id="Node000020" class="node">
<title>Node20</title>
<g id="a_Node000020"><a xlink:href="a02174.html#ga8ac7e88ed7b8a1e2ff8aa435ac6b58ec" target="_top" xlink:title=" ">
<polygon fill="white" stroke="#666666" points="1001,-150.5 944.5,-150.5 944.5,-132 1001,-132 1001,-150.5"/>
<text text-anchor="middle" x="972.75" y="-137" font-family="Helvetica,sans-Serif" font-size="10.00">arax_exit</text>
</a>
</g>
</g>
<!-- Node19&#45;&gt;Node20 -->
<g id="edge24_Node000019_Node000020" class="edge">
<title>Node19&#45;&gt;Node20</title>
<g id="a_edge24_Node000019_Node000020"><a xlink:title=" ">
<path fill="none" stroke="#63b8ff" d="M1069.43,-141.25C1047.25,-141.25 1020.66,-141.25 1001.16,-141.25"/>
<polygon fill="#63b8ff" stroke="#63b8ff" points="1069.24,-144.75 1079.24,-141.25 1069.24,-137.75 1069.24,-144.75"/>
</a>
</g>
</g>
<!-- Node21&#45;&gt;Node7 -->
<g id="edge26_Node000021_Node000007" class="edge">
<title>Node21&#45;&gt;Node7</title>
<g id="a_edge26_Node000021_Node000007"><a xlink:title=" ">
<path fill="none" stroke="#63b8ff" d="M635.84,-164.68C628.31,-161.71 620.48,-158.49 613.25,-155.25 597.09,-148.01 579.2,-138.73 566.39,-131.86"/>
<polygon fill="#63b8ff" stroke="#63b8ff" points="634.26,-168.2 644.85,-168.53 636.78,-161.67 634.26,-168.2"/>
</a>
</g>
</g>
<!-- Node22&#45;&gt;Node18 -->
<g id="edge28_Node000022_Node000018" class="edge">
<title>Node22&#45;&gt;Node18</title>
<g id="a_edge28_Node000022_Node000018"><a xlink:title=" ">
<path fill="none" stroke="#63b8ff" d="M1492.32,-125.07C1480.71,-127.36 1468.48,-129.56 1457,-131.25 1404.63,-138.96 1344.2,-144.13 1302.83,-147.11"/>
<polygon fill="#63b8ff" stroke="#63b8ff" points="1492.66,-128.38 1501.77,-122.97 1491.27,-121.51 1492.66,-128.38"/>
</a>
</g>
</g>
<!-- Node23 -->
<g id="Node000023" class="node">
<title>Node23</title>
<g id="a_Node000023"><a xlink:href="a01952.html#a88091e179416d4beec1b5681cfb68742" target="_top" xlink:title=" ">
<polygon fill="white" stroke="#666666" points="1457,-122.5 1342,-122.5 1342,-104 1457,-104 1457,-122.5"/>
<text text-anchor="middle" x="1399.5" y="-109" font-family="Helvetica,sans-Serif" font-size="10.00">utils_config_write_long</text>
</a>
</g>
</g>
<!-- Node22&#45;&gt;Node23 -->
<g id="edge29_Node000022_Node000023" class="edge">
<title>Node22&#45;&gt;Node23</title>
<g id="a_edge29_Node000022_Node000023"><a xlink:title=" ">
<path fill="none" stroke="#63b8ff" d="M1481.75,-113.25C1473.61,-113.25 1465.33,-113.25 1457.32,-113.25"/>
<polygon fill="#63b8ff" stroke="#63b8ff" points="1481.73,-116.75 1491.73,-113.25 1481.73,-109.75 1481.73,-116.75"/>
</a>
</g>
</g>
<!-- Node23&#45;&gt;Node4 -->
<g id="edge30_Node000023_Node000004" class="edge">
<title>Node23&#45;&gt;Node4</title>
<g id="a_edge30_Node000023_Node000004"><a xlink:title=" ">
<path fill="none" stroke="#63b8ff" d="M1330.78,-104.39C1322.56,-103.32 1314.25,-102.23 1306.28,-101.19"/>
<polygon fill="#63b8ff" stroke="#63b8ff" points="1330.14,-107.97 1340.51,-105.8 1331.05,-101.03 1330.14,-107.97"/>
</a>
</g>
</g>
<!-- Node24&#45;&gt;Node7 -->
<g id="edge32_Node000024_Node000007" class="edge">
<title>Node24&#45;&gt;Node7</title>
<g id="a_edge32_Node000024_Node000007"><a xlink:title=" ">
<path fill="none" stroke="#63b8ff" d="M1496.56,-36.53C1438.33,-33.56 1338.8,-29.25 1253.25,-29.25 1253.25,-29.25 1253.25,-29.25 825.62,-29.25 730.17,-29.25 699.03,-19.39 613.25,-61.25 588.34,-73.4 566.64,-98.62 555.94,-112.53"/>
<polygon fill="#63b8ff" stroke="#63b8ff" points="1496.12,-40.06 1506.29,-37.08 1496.49,-33.07 1496.12,-40.06"/>
</a>
</g>
</g>
</g>
</svg>
