<?xml version="1.0" encoding="UTF-8" standalone="no"?>
<!DOCTYPE svg PUBLIC "-//W3C//DTD SVG 1.1//EN"
 "http://www.w3.org/Graphics/SVG/1.1/DTD/svg11.dtd">
<!-- Generated by graphviz version 12.2.1 (0)
 -->
<!-- Title: arax_plot_register_metric Pages: 1 -->
<svg width="1407pt" height="843pt"
 viewBox="0.00 0.00 1407.00 842.50" xmlns="http://www.w3.org/2000/svg" xmlns:xlink="http://www.w3.org/1999/xlink">
<g id="graph0" class="graph" transform="scale(1 1) rotate(0) translate(4 838.5)">
<title>arax_plot_register_metric</title>
<!-- Node1 -->
<g id="Node000001" class="node">
<title>Node1</title>
<g id="a_Node000001"><a xlink:title=" ">
<polygon fill="#999999" stroke="#666666" points="94,-300.75 0,-300.75 0,-271.75 94,-271.75 94,-300.75"/>
<text text-anchor="start" x="8" y="-287.25" font-family="Helvetica,sans-Serif" font-size="10.00">arax_plot_register</text>
<text text-anchor="middle" x="47" y="-276.75" font-family="Helvetica,sans-Serif" font-size="10.00">_metric</text>
</a>
</g>
</g>
<!-- Node2 -->
<g id="Node000002" class="node">
<title>Node2</title>
<g id="a_Node000002"><a xlink:href="a02186.html#gae1d371a2840849690acce147e7a205da" target="_top" xlink:title=" ">
<polygon fill="white" stroke="#666666" points="318.75,-332.5 265.25,-332.5 265.25,-314 318.75,-314 318.75,-332.5"/>
<text text-anchor="middle" x="292" y="-319" font-family="Helvetica,sans-Serif" font-size="10.00">arax_init</text>
</a>
</g>
</g>
<!-- Node1&#45;&gt;Node2 -->
<g id="edge1_Node000001_Node000002" class="edge">
<title>Node1&#45;&gt;Node2</title>
<g id="a_edge1_Node000001_Node000002"><a xlink:title=" ">
<path fill="none" stroke="#63b8ff" d="M73.61,-301.21C89.32,-309.5 110.15,-318.98 130,-323.25 171.62,-332.2 220.7,-330.5 253.63,-327.66"/>
<polygon fill="#63b8ff" stroke="#63b8ff" points="253.86,-331.15 263.49,-326.72 253.2,-324.18 253.86,-331.15"/>
</a>
</g>
</g>
<!-- Node54 -->
<g id="Node000054" class="node">
<title>Node54</title>
<g id="a_Node000054"><a xlink:href="a01934.html#a80ab3bf4a8af9bb101b5a53248609771" target="_top" xlink:title=" ">
<polygon fill="white" stroke="#666666" points="218,-314.5 141.25,-314.5 141.25,-296 218,-296 218,-314.5"/>
<text text-anchor="middle" x="179.62" y="-301" font-family="Helvetica,sans-Serif" font-size="10.00">arax_ptr_valid</text>
</a>
</g>
</g>
<!-- Node1&#45;&gt;Node54 -->
<g id="edge60_Node000001_Node000054" class="edge">
<title>Node1&#45;&gt;Node54</title>
<g id="a_edge60_Node000001_Node000054"><a xlink:title=" ">
<path fill="none" stroke="#63b8ff" d="M94.42,-293C105.86,-294.67 118.15,-296.45 129.7,-298.13"/>
<polygon fill="#63b8ff" stroke="#63b8ff" points="129.05,-301.58 139.45,-299.55 130.06,-294.65 129.05,-301.58"/>
</a>
</g>
</g>
<!-- Node55 -->
<g id="Node000055" class="node">
<title>Node55</title>
<g id="a_Node000055"><a xlink:href="a02355.html#ac9828b5c2758940f6d3c7d4335228de5" target="_top" xlink:title=" ">
<polygon fill="white" stroke="#666666" points="229.25,-277.5 130,-277.5 130,-259 229.25,-259 229.25,-277.5"/>
<text text-anchor="middle" x="179.62" y="-264" font-family="Helvetica,sans-Serif" font-size="10.00">arch_alloc_allocate</text>
</a>
</g>
</g>
<!-- Node1&#45;&gt;Node55 -->
<g id="edge62_Node000001_Node000055" class="edge">
<title>Node1&#45;&gt;Node55</title>
<g id="a_edge62_Node000001_Node000055"><a xlink:title=" ">
<path fill="none" stroke="#63b8ff" d="M94.42,-279.85C102.2,-278.78 110.36,-277.66 118.42,-276.55"/>
<polygon fill="#63b8ff" stroke="#63b8ff" points="118.77,-280.03 128.2,-275.2 117.82,-273.1 118.77,-280.03"/>
</a>
</g>
</g>
<!-- Node56 -->
<g id="Node000056" class="node">
<title>Node56</title>
<g id="a_Node000056"><a xlink:href="a01964.html#a91805af1bb8178dbb114ff65d491f840" target="_top" xlink:title=" ">
<polygon fill="white" stroke="#666666" points="213.88,-240.5 145.38,-240.5 145.38,-222 213.88,-222 213.88,-240.5"/>
<text text-anchor="middle" x="179.62" y="-227" font-family="Helvetica,sans-Serif" font-size="10.00">utils_kv_set</text>
</a>
</g>
</g>
<!-- Node1&#45;&gt;Node56 -->
<g id="edge63_Node000001_Node000056" class="edge">
<title>Node1&#45;&gt;Node56</title>
<g id="a_edge63_Node000001_Node000056"><a xlink:title=" ">
<path fill="none" stroke="#63b8ff" d="M80.98,-271.4C95.89,-264.78 113.77,-256.98 130,-250.25 134.12,-248.54 138.45,-246.79 142.77,-245.07"/>
<polygon fill="#63b8ff" stroke="#63b8ff" points="143.88,-248.39 151.9,-241.47 141.31,-241.88 143.88,-248.39"/>
</a>
</g>
</g>
<!-- Node3 -->
<g id="Node000003" class="node">
<title>Node3</title>
<g id="a_Node000003"><a xlink:href="a01910.html#a02fd608f651d254148dc74f0ae371dfe" target="_top" xlink:title=" ">
<polygon fill="white" stroke="#666666" points="413.5,-332.5 354.75,-332.5 354.75,-314 413.5,-314 413.5,-332.5"/>
<text text-anchor="middle" x="384.12" y="-319" font-family="Helvetica,sans-Serif" font-size="10.00">_arax_init</text>
</a>
</g>
</g>
<!-- Node2&#45;&gt;Node3 -->
<g id="edge2_Node000002_Node000003" class="edge">
<title>Node2&#45;&gt;Node3</title>
<g id="a_edge2_Node000002_Node000003"><a xlink:title=" ">
<path fill="none" stroke="#63b8ff" d="M319.07,-323.25C326.56,-323.25 334.91,-323.25 343.04,-323.25"/>
<polygon fill="#63b8ff" stroke="#63b8ff" points="342.76,-326.75 352.76,-323.25 342.76,-319.75 342.76,-326.75"/>
</a>
</g>
</g>
<!-- Node4 -->
<g id="Node000004" class="node">
<title>Node4</title>
<g id="a_Node000004"><a xlink:href="a01928.html#a94ce6437cad359c8523f57fe50be020d" target="_top" xlink:title=" ">
<polygon fill="white" stroke="#666666" points="592.25,-834.5 449.5,-834.5 449.5,-816 592.25,-816 592.25,-834.5"/>
<text text-anchor="middle" x="520.88" y="-821" font-family="Helvetica,sans-Serif" font-size="10.00">arax_pipe_get_available_size</text>
</a>
</g>
</g>
<!-- Node3&#45;&gt;Node4 -->
<g id="edge3_Node000003_Node000004" class="edge">
<title>Node3&#45;&gt;Node4</title>
<g id="a_edge3_Node000003_Node000004"><a xlink:title=" ">
<path fill="none" stroke="#63b8ff" d="M385.01,-332.84C384.5,-394.28 384.67,-732.3 449.5,-806.25 450.33,-807.2 451.21,-808.11 452.12,-808.97"/>
<polygon fill="#63b8ff" stroke="#63b8ff" points="449.88,-811.67 460.02,-814.73 454.01,-806.01 449.88,-811.67"/>
</a>
</g>
</g>
<!-- Node6 -->
<g id="Node000006" class="node">
<title>Node6</title>
<g id="a_Node000006"><a xlink:href="a01928.html#a5006bea23d2b9964f0f7c12947180e01" target="_top" xlink:title=" ">
<polygon fill="white" stroke="#666666" points="585.88,-797.5 455.88,-797.5 455.88,-779 585.88,-779 585.88,-797.5"/>
<text text-anchor="middle" x="520.88" y="-784" font-family="Helvetica,sans-Serif" font-size="10.00">arax_pipe_have_to_mmap</text>
</a>
</g>
</g>
<!-- Node3&#45;&gt;Node6 -->
<g id="edge5_Node000003_Node000006" class="edge">
<title>Node3&#45;&gt;Node6</title>
<g id="a_edge5_Node000003_Node000006"><a xlink:title=" ">
<path fill="none" stroke="#63b8ff" d="M385.19,-332.73C385.79,-390.66 391.69,-696.59 449.5,-765.25 451.94,-768.15 454.76,-770.69 457.82,-772.91"/>
<polygon fill="#63b8ff" stroke="#63b8ff" points="455.96,-775.87 466.36,-777.9 459.49,-769.83 455.96,-775.87"/>
</a>
</g>
</g>
<!-- Node7 -->
<g id="Node000007" class="node">
<title>Node7</title>
<g id="a_Node000007"><a xlink:href="a01928.html#aa6293e9ec7776aa49ecf632fcc4f5e26" target="_top" xlink:title=" ">
<polygon fill="white" stroke="#666666" points="559.25,-406.5 482.5,-406.5 482.5,-388 559.25,-388 559.25,-406.5"/>
<text text-anchor="middle" x="520.88" y="-393" font-family="Helvetica,sans-Serif" font-size="10.00">arax_pipe_init</text>
</a>
</g>
</g>
<!-- Node3&#45;&gt;Node7 -->
<g id="edge6_Node000003_Node000007" class="edge">
<title>Node3&#45;&gt;Node7</title>
<g id="a_edge6_Node000003_Node000007"><a xlink:title=" ">
<path fill="none" stroke="#63b8ff" d="M402.74,-332.92C425.54,-345.44 465.51,-367.4 492.34,-382.13"/>
<polygon fill="#63b8ff" stroke="#63b8ff" points="490.48,-385.1 500.93,-386.84 493.85,-378.96 490.48,-385.1"/>
</a>
</g>
</g>
<!-- Node23 -->
<g id="Node000023" class="node">
<title>Node23</title>
<g id="a_Node000023"><a xlink:href="a01952.html#aff9af0356940583dfe3045e693cc8a45" target="_top" xlink:title=" ">
<polygon fill="white" stroke="#666666" points="936.25,-759.5 821.25,-759.5 821.25,-741 936.25,-741 936.25,-759.5"/>
<text text-anchor="middle" x="878.75" y="-746" font-family="Helvetica,sans-Serif" font-size="10.00">utils_config_alloc_path</text>
</a>
</g>
</g>
<!-- Node3&#45;&gt;Node23 -->
<g id="edge53_Node000003_Node000023" class="edge">
<title>Node3&#45;&gt;Node23</title>
<g id="a_edge53_Node000003_Node000023"><a xlink:title=" ">
<path fill="none" stroke="#63b8ff" d="M385.12,-332.77C385.31,-388.29 389.28,-669.69 449.5,-724.25 500.63,-770.57 702.01,-763.47 809.42,-756"/>
<polygon fill="#63b8ff" stroke="#63b8ff" points="809.54,-759.5 819.26,-755.3 809.04,-752.52 809.54,-759.5"/>
</a>
</g>
</g>
<!-- Node26 -->
<g id="Node000026" class="node">
<title>Node26</title>
<g id="a_Node000026"><a xlink:href="a01952.html#aa7aa94ad075bf97a566f01f899fcd859" target="_top" xlink:title=" ">
<polygon fill="white" stroke="#666666" points="932.5,-611.5 825,-611.5 825,-593 932.5,-593 932.5,-611.5"/>
<text text-anchor="middle" x="878.75" y="-598" font-family="Helvetica,sans-Serif" font-size="10.00">utils_config_get_bool</text>
</a>
</g>
</g>
<!-- Node3&#45;&gt;Node26 -->
<g id="edge54_Node000003_Node000026" class="edge">
<title>Node3&#45;&gt;Node26</title>
<g id="a_edge54_Node000003_Node000026"><a xlink:title=" ">
<path fill="none" stroke="#63b8ff" d="M387.01,-332.99C392.57,-359.8 411.02,-436.01 449.5,-486.25 509.71,-564.86 534.25,-588.12 628.25,-619.25 697.99,-642.35 784.53,-627.49 835.2,-614.75"/>
<polygon fill="#63b8ff" stroke="#63b8ff" points="835.81,-618.21 844.6,-612.3 834.04,-611.44 835.81,-618.21"/>
</a>
</g>
</g>
<!-- Node38 -->
<g id="Node000038" class="node">
<title>Node38</title>
<g id="a_Node000038"><a xlink:href="a01928.html#a8d805b003097be6a6328a35c78bf558b" target="_top" xlink:title=" ">
<polygon fill="white" stroke="#666666" points="586.25,-166.5 455.5,-166.5 455.5,-148 586.25,-148 586.25,-166.5"/>
<text text-anchor="middle" x="520.88" y="-153" font-family="Helvetica,sans-Serif" font-size="10.00">arax_pipe_mmap_address</text>
</a>
</g>
</g>
<!-- Node3&#45;&gt;Node38 -->
<g id="edge32_Node000003_Node000038" class="edge">
<title>Node3&#45;&gt;Node38</title>
<g id="a_edge32_Node000003_Node000038"><a xlink:title=" ">
<path fill="none" stroke="#63b8ff" d="M386.43,-313.67C390.53,-287.47 405.59,-214.06 449.5,-176.25 451.15,-174.83 452.91,-173.51 454.73,-172.29"/>
<polygon fill="#63b8ff" stroke="#63b8ff" points="456.01,-175.58 463.08,-167.69 452.63,-169.45 456.01,-175.58"/>
</a>
</g>
</g>
<!-- Node39 -->
<g id="Node000039" class="node">
<title>Node39</title>
<g id="a_Node000039"><a xlink:href="a02364.html#aed6af4d83e934e3e654ead541b15f2d9" target="_top" xlink:title=" ">
<polygon fill="white" stroke="#666666" points="575.38,-240.5 466.38,-240.5 466.38,-222 575.38,-222 575.38,-240.5"/>
<text text-anchor="middle" x="520.88" y="-227" font-family="Helvetica,sans-Serif" font-size="10.00">async_condition_lock</text>
</a>
</g>
</g>
<!-- Node3&#45;&gt;Node39 -->
<g id="edge33_Node000003_Node000039" class="edge">
<title>Node3&#45;&gt;Node39</title>
<g id="a_edge33_Node000003_Node000039"><a xlink:title=" ">
<path fill="none" stroke="#63b8ff" d="M391.51,-313.79C401.95,-299.02 424.09,-270.47 449.5,-254.25 455.12,-250.66 461.36,-247.58 467.73,-244.96"/>
<polygon fill="#63b8ff" stroke="#63b8ff" points="468.92,-248.25 477.06,-241.48 466.47,-241.69 468.92,-248.25"/>
</a>
</g>
</g>
<!-- Node41 -->
<g id="Node000041" class="node">
<title>Node41</title>
<g id="a_Node000041"><a xlink:href="a02364.html#a3bbcb7c4c024e99d5c4ba52b61dfbbf7" target="_top" xlink:title=" ">
<polygon fill="white" stroke="#666666" points="938.5,-240.5 819,-240.5 819,-222 938.5,-222 938.5,-240.5"/>
<text text-anchor="middle" x="878.75" y="-227" font-family="Helvetica,sans-Serif" font-size="10.00">async_condition_unlock</text>
</a>
</g>
</g>
<!-- Node3&#45;&gt;Node41 -->
<g id="edge35_Node000003_Node000041" class="edge">
<title>Node3&#45;&gt;Node41</title>
<g id="a_edge35_Node000003_Node000041"><a xlink:title=" ">
<path fill="none" stroke="#63b8ff" d="M410.58,-313.61C454.35,-297.49 547.01,-265.36 628.25,-250.25 687.98,-239.14 756.91,-234.5 807.17,-232.58"/>
<polygon fill="#63b8ff" stroke="#63b8ff" points="807.17,-236.08 817.04,-232.23 806.93,-229.08 807.17,-236.08"/>
</a>
</g>
</g>
<!-- Node42 -->
<g id="Node000042" class="node">
<title>Node42</title>
<g id="a_Node000042"><a xlink:href="a02364.html#a1bfeaeb9b81855e640d7a67cc9d92b17" target="_top" xlink:title=" ">
<polygon fill="white" stroke="#666666" points="575,-203.5 466.75,-203.5 466.75,-185 575,-185 575,-203.5"/>
<text text-anchor="middle" x="520.88" y="-190" font-family="Helvetica,sans-Serif" font-size="10.00">async_condition_wait</text>
</a>
</g>
</g>
<!-- Node3&#45;&gt;Node42 -->
<g id="edge37_Node000003_Node000042" class="edge">
<title>Node3&#45;&gt;Node42</title>
<g id="a_edge37_Node000003_Node000042"><a xlink:title=" ">
<path fill="none" stroke="#63b8ff" d="M387.97,-313.62C394.82,-292.14 414.34,-240.12 449.5,-213.25 451.54,-211.69 453.7,-210.26 455.95,-208.94"/>
<polygon fill="#63b8ff" stroke="#63b8ff" points="457.47,-212.1 464.91,-204.56 454.39,-205.81 457.47,-212.1"/>
</a>
</g>
</g>
<!-- Node44 -->
<g id="Node000044" class="node">
<title>Node44</title>
<g id="a_Node000044"><a xlink:href="a02364.html#adbaa29dfccfdfe6e3fe69a1d001c05b5" target="_top" xlink:title=" ">
<polygon fill="white" stroke="#666666" points="766.12,-722.5 645.12,-722.5 645.12,-704 766.12,-704 766.12,-722.5"/>
<text text-anchor="middle" x="705.62" y="-709" font-family="Helvetica,sans-Serif" font-size="10.00">async_meta_init_always</text>
</a>
</g>
</g>
<!-- Node3&#45;&gt;Node44 -->
<g id="edge41_Node000003_Node000044" class="edge">
<title>Node3&#45;&gt;Node44</title>
<g id="a_edge41_Node000003_Node000044"><a xlink:title=" ">
<path fill="none" stroke="#63b8ff" d="M385.31,-332.93C386.54,-385.81 395.21,-639.15 449.5,-689.25 503.91,-739.45 595.38,-734.53 652.74,-724.94"/>
<polygon fill="#63b8ff" stroke="#63b8ff" points="653.02,-728.44 662.25,-723.24 651.79,-721.55 653.02,-728.44"/>
</a>
</g>
</g>
<!-- Node49 -->
<g id="Node000049" class="node">
<title>Node49</title>
<g id="a_Node000049"><a xlink:href="a01952.html#a1e8deff7c038efae14d1cc98e4ab109f" target="_top" xlink:title=" ">
<polygon fill="white" stroke="#666666" points="929.12,-685.5 828.38,-685.5 828.38,-667 929.12,-667 929.12,-685.5"/>
<text text-anchor="middle" x="878.75" y="-672" font-family="Helvetica,sans-Serif" font-size="10.00">utils_config_get_str</text>
</a>
</g>
</g>
<!-- Node3&#45;&gt;Node49 -->
<g id="edge59_Node000003_Node000049" class="edge">
<title>Node3&#45;&gt;Node49</title>
<g id="a_edge59_Node000003_Node000049"><a xlink:title=" ">
<path fill="none" stroke="#63b8ff" d="M384.95,-332.71C384.83,-367.46 388.92,-489.76 449.5,-560.25 541.79,-667.64 722.37,-680.62 816.84,-679.4"/>
<polygon fill="#63b8ff" stroke="#63b8ff" points="816.76,-682.9 826.69,-679.2 816.62,-675.9 816.76,-682.9"/>
</a>
</g>
</g>
<!-- Node50 -->
<g id="Node000050" class="node">
<title>Node50</title>
<g id="a_Node000050"><a xlink:href="a01961.html#ad8ca0aa2e50dbe9c1827c2d4da814cf6" target="_top" xlink:title=" ">
<polygon fill="white" stroke="#666666" points="560.38,-129.5 481.38,-129.5 481.38,-111 560.38,-111 560.38,-129.5"/>
<text text-anchor="middle" x="520.88" y="-116" font-family="Helvetica,sans-Serif" font-size="10.00">system_mmap</text>
</a>
</g>
</g>
<!-- Node3&#45;&gt;Node50 -->
<g id="edge49_Node000003_Node000050" class="edge">
<title>Node3&#45;&gt;Node50</title>
<g id="a_edge49_Node000003_Node000050"><a xlink:title=" ">
<path fill="none" stroke="#63b8ff" d="M385.49,-313.57C387.2,-283.12 396.7,-188.33 449.5,-139.25 455.36,-133.8 462.61,-129.89 470.22,-127.08"/>
<polygon fill="#63b8ff" stroke="#63b8ff" points="471.08,-130.48 479.65,-124.24 469.06,-123.77 471.08,-130.48"/>
</a>
</g>
</g>
<!-- Node51 -->
<g id="Node000051" class="node">
<title>Node51</title>
<g id="a_Node000051"><a xlink:href="a01961.html#a38809d11e47f180968c23903fed321ef" target="_top" xlink:title=" ">
<polygon fill="white" stroke="#666666" points="570.5,-92.5 471.25,-92.5 471.25,-74 570.5,-74 570.5,-92.5"/>
<text text-anchor="middle" x="520.88" y="-79" font-family="Helvetica,sans-Serif" font-size="10.00">system_process_id</text>
</a>
</g>
</g>
<!-- Node3&#45;&gt;Node51 -->
<g id="edge51_Node000003_Node000051" class="edge">
<title>Node3&#45;&gt;Node51</title>
<g id="a_edge51_Node000003_Node000051"><a xlink:title=" ">
<path fill="none" stroke="#63b8ff" d="M384.84,-313.65C384.38,-279.54 387.58,-162.96 449.5,-102.25 452.76,-99.05 456.5,-96.38 460.52,-94.14"/>
<polygon fill="#63b8ff" stroke="#63b8ff" points="461.91,-97.36 469.6,-90.07 459.04,-90.97 461.91,-97.36"/>
</a>
</g>
</g>
<!-- Node52 -->
<g id="Node000052" class="node">
<title>Node52</title>
<g id="a_Node000052"><a xlink:href="a01961.html#a54bd28e423e19877e5abcb1fe3d12c03" target="_top" xlink:title=" ">
<polygon fill="white" stroke="#666666" points="576.88,-55.5 464.88,-55.5 464.88,-37 576.88,-37 576.88,-55.5"/>
<text text-anchor="middle" x="520.88" y="-42" font-family="Helvetica,sans-Serif" font-size="10.00">system_total_memory</text>
</a>
</g>
</g>
<!-- Node3&#45;&gt;Node52 -->
<g id="edge52_Node000003_Node000052" class="edge">
<title>Node3&#45;&gt;Node52</title>
<g id="a_edge52_Node000003_Node000052"><a xlink:title=" ">
<path fill="none" stroke="#63b8ff" d="M386.23,-313.61C391.26,-271.25 413.37,-102.08 449.5,-65.25 451.1,-63.62 452.81,-62.13 454.63,-60.76"/>
<polygon fill="#63b8ff" stroke="#63b8ff" points="456.34,-63.82 463.12,-55.69 452.74,-57.82 456.34,-63.82"/>
</a>
</g>
</g>
<!-- Node53 -->
<g id="Node000053" class="node">
<title>Node53</title>
<g id="a_Node000053"><a xlink:href="a01952.html#a4a525d89ade920512dc65409bc8e85d8" target="_top" xlink:title=" ">
<polygon fill="white" stroke="#666666" points="932.12,-573.5 825.38,-573.5 825.38,-555 932.12,-555 932.12,-573.5"/>
<text text-anchor="middle" x="878.75" y="-560" font-family="Helvetica,sans-Serif" font-size="10.00">utils_config_get_size</text>
</a>
</g>
</g>
<!-- Node3&#45;&gt;Node53 -->
<g id="edge55_Node000003_Node000053" class="edge">
<title>Node3&#45;&gt;Node53</title>
<g id="a_edge55_Node000003_Node000053"><a xlink:title=" ">
<path fill="none" stroke="#63b8ff" d="M390.42,-332.89C400.42,-350.55 423.41,-388.68 449.5,-415.25 518.32,-485.34 536.05,-511.34 628.25,-545.25 688.52,-567.41 762.37,-570.32 814.03,-568.81"/>
<polygon fill="#63b8ff" stroke="#63b8ff" points="813.98,-572.32 823.84,-568.46 813.72,-565.32 813.98,-572.32"/>
</a>
</g>
</g>
<!-- Node33 -->
<g id="Node000033" class="node">
<title>Node33</title>
<g id="a_Node000033"><a xlink:href="a01952.html#a17713c8e9b90065e23b0ec1a225f79ab" target="_top" xlink:title=" ">
<polygon fill="white" stroke="#666666" points="580.25,-18.5 461.5,-18.5 461.5,0 580.25,0 580.25,-18.5"/>
<text text-anchor="middle" x="520.88" y="-5" font-family="Helvetica,sans-Serif" font-size="10.00">utils_config_get_source</text>
</a>
</g>
</g>
<!-- Node3&#45;&gt;Node33 -->
<g id="edge57_Node000003_Node000033" class="edge">
<title>Node3&#45;&gt;Node33</title>
<g id="a_edge57_Node000003_Node000033"><a xlink:title=" ">
<path fill="none" stroke="#63b8ff" d="M385.91,-313.51C389.84,-267.34 408.74,-71.05 449.5,-28.25 450.51,-27.19 451.56,-26.19 452.67,-25.25"/>
<polygon fill="#63b8ff" stroke="#63b8ff" points="454.34,-28.35 460.66,-19.84 450.41,-22.55 454.34,-28.35"/>
</a>
</g>
</g>
<!-- Node5 -->
<g id="Node000005" class="node">
<title>Node5</title>
<g id="a_Node000005"><a xlink:href="a01940.html#a078da9ec8e2f9a4470f10ee3059bd593" target="_top" xlink:title=" ">
<polygon fill="white" stroke="#666666" points="783,-834.5 628.25,-834.5 628.25,-816 783,-816 783,-834.5"/>
<text text-anchor="middle" x="705.62" y="-821" font-family="Helvetica,sans-Serif" font-size="10.00">arax_throttle_get_available_size</text>
</a>
</g>
</g>
<!-- Node4&#45;&gt;Node5 -->
<g id="edge4_Node000004_Node000005" class="edge">
<title>Node4&#45;&gt;Node5</title>
<g id="a_edge4_Node000004_Node000005"><a xlink:title=" ">
<path fill="none" stroke="#63b8ff" d="M592.53,-825.25C600.38,-825.25 608.45,-825.25 616.48,-825.25"/>
<polygon fill="#63b8ff" stroke="#63b8ff" points="616.28,-828.75 626.28,-825.25 616.28,-821.75 616.28,-828.75"/>
</a>
</g>
</g>
<!-- Node8 -->
<g id="Node000008" class="node">
<title>Node8</title>
<g id="a_Node000008"><a xlink:href="a01925.html#a86352ba91ba482c6688b7364d10bf956" target="_top" xlink:title=" ">
<polygon fill="white" stroke="#666666" points="760.12,-462.5 651.12,-462.5 651.12,-444 760.12,-444 760.12,-462.5"/>
<text text-anchor="middle" x="705.62" y="-449" font-family="Helvetica,sans-Serif" font-size="10.00">arax_object_repo_init</text>
</a>
</g>
</g>
<!-- Node7&#45;&gt;Node8 -->
<g id="edge7_Node000007_Node000008" class="edge">
<title>Node7&#45;&gt;Node8</title>
<g id="a_edge7_Node000007_Node000008"><a xlink:title=" ">
<path fill="none" stroke="#63b8ff" d="M553.04,-406.99C574.23,-413.6 602.92,-422.51 628.25,-430.25 638.96,-433.52 650.53,-437.03 661.35,-440.29"/>
<polygon fill="#63b8ff" stroke="#63b8ff" points="660.24,-443.61 670.83,-443.14 662.26,-436.9 660.24,-443.61"/>
</a>
</g>
</g>
<!-- Node9 -->
<g id="Node000009" class="node">
<title>Node9</title>
<g id="a_Node000009"><a xlink:href="a01955.html#ab36e49d2e694b1da49504a689ed48e4a" target="_top" xlink:title=" ">
<polygon fill="white" stroke="#666666" points="913.75,-499.5 843.75,-499.5 843.75,-481 913.75,-481 913.75,-499.5"/>
<text text-anchor="middle" x="878.75" y="-486" font-family="Helvetica,sans-Serif" font-size="10.00">utils_list_init</text>
</a>
</g>
</g>
<!-- Node7&#45;&gt;Node9 -->
<g id="edge31_Node000007_Node000009" class="edge">
<title>Node7&#45;&gt;Node9</title>
<g id="a_edge31_Node000007_Node000009"><a xlink:title=" ">
<path fill="none" stroke="#63b8ff" d="M531.69,-406.87C549.3,-423.45 588.19,-456.99 628.25,-471.25 696.22,-495.44 780.99,-496.24 832.17,-493.82"/>
<polygon fill="#63b8ff" stroke="#63b8ff" points="832.19,-497.32 841.98,-493.29 831.81,-490.33 832.19,-497.32"/>
</a>
</g>
</g>
<!-- Node11 -->
<g id="Node000011" class="node">
<title>Node11</title>
<g id="a_Node000011"><a xlink:href="a01928.html#a60dde947b05bc69599a6c7d92c38d088" target="_top" xlink:title=" ">
<polygon fill="white" stroke="#666666" points="765.38,-536.5 645.88,-536.5 645.88,-518 765.38,-518 765.38,-536.5"/>
<text text-anchor="middle" x="705.62" y="-523" font-family="Helvetica,sans-Serif" font-size="10.00">arax_pipe_add_process</text>
</a>
</g>
</g>
<!-- Node7&#45;&gt;Node11 -->
<g id="edge10_Node000007_Node000011" class="edge">
<title>Node7&#45;&gt;Node11</title>
<g id="a_edge10_Node000007_Node000011"><a xlink:title=" ">
<path fill="none" stroke="#63b8ff" d="M528.7,-406.81C544.07,-427.65 583.55,-477.43 628.25,-504.25 634.55,-508.03 641.53,-511.23 648.62,-513.93"/>
<polygon fill="#63b8ff" stroke="#63b8ff" points="647.01,-517.08 657.6,-517.05 649.3,-510.47 647.01,-517.08"/>
</a>
</g>
</g>
<!-- Node12 -->
<g id="Node000012" class="node">
<title>Node12</title>
<g id="a_Node000012"><a xlink:href="a01940.html#acf84ea82594c4dbe91cf602ee078e04d" target="_top" xlink:title=" ">
<polygon fill="white" stroke="#666666" points="750,-388.5 661.25,-388.5 661.25,-370 750,-370 750,-388.5"/>
<text text-anchor="middle" x="705.62" y="-375" font-family="Helvetica,sans-Serif" font-size="10.00">arax_throttle_init</text>
</a>
</g>
</g>
<!-- Node7&#45;&gt;Node12 -->
<g id="edge11_Node000007_Node000012" class="edge">
<title>Node7&#45;&gt;Node12</title>
<g id="a_edge11_Node000007_Node000012"><a xlink:title=" ">
<path fill="none" stroke="#63b8ff" d="M559.74,-393.52C585.77,-390.96 620.74,-387.51 649.8,-384.65"/>
<polygon fill="#63b8ff" stroke="#63b8ff" points="649.91,-388.16 659.52,-383.69 649.23,-381.19 649.91,-388.16"/>
</a>
</g>
</g>
<!-- Node13 -->
<g id="Node000013" class="node">
<title>Node13</title>
<g id="a_Node000013"><a xlink:href="a02364.html#ac7fbf1f43289d3e0e862b315f00e35e2" target="_top" xlink:title=" ">
<polygon fill="white" stroke="#666666" points="930.62,-388.5 826.88,-388.5 826.88,-370 930.62,-370 930.62,-388.5"/>
<text text-anchor="middle" x="878.75" y="-375" font-family="Helvetica,sans-Serif" font-size="10.00">async_condition_init</text>
</a>
</g>
</g>
<!-- Node7&#45;&gt;Node13 -->
<g id="edge20_Node000007_Node000013" class="edge">
<title>Node7&#45;&gt;Node13</title>
<g id="a_edge20_Node000007_Node000013"><a xlink:title=" ">
<path fill="none" stroke="#63b8ff" d="M559.6,-399.46C610.46,-401.94 703.79,-404.71 783,-397.25 796.67,-395.96 811.31,-393.65 824.9,-391.11"/>
<polygon fill="#63b8ff" stroke="#63b8ff" points="825.39,-394.58 834.53,-389.22 824.04,-387.71 825.39,-394.58"/>
</a>
</g>
</g>
<!-- Node19 -->
<g id="Node000019" class="node">
<title>Node19</title>
<g id="a_Node000019"><a xlink:href="a02355.html#a75bfaa5e934f1853fc8fd536ea469ad9" target="_top" xlink:title=" ">
<polygon fill="white" stroke="#666666" points="762,-351.5 649.25,-351.5 649.25,-333 762,-333 762,-351.5"/>
<text text-anchor="middle" x="705.62" y="-338" font-family="Helvetica,sans-Serif" font-size="10.00">arch_alloc_init_always</text>
</a>
</g>
</g>
<!-- Node7&#45;&gt;Node19 -->
<g id="edge17_Node000007_Node000019" class="edge">
<title>Node7&#45;&gt;Node19</title>
<g id="a_edge17_Node000007_Node000019"><a xlink:title=" ">
<path fill="none" stroke="#63b8ff" d="M548.35,-387.61C569.75,-379.98 600.75,-369.31 628.25,-361.25 635.83,-359.03 643.87,-356.84 651.79,-354.79"/>
<polygon fill="#63b8ff" stroke="#63b8ff" points="652.54,-358.21 661.37,-352.36 650.82,-351.43 652.54,-358.21"/>
</a>
</g>
</g>
<!-- Node20 -->
<g id="Node000020" class="node">
<title>Node20</title>
<g id="a_Node000020"><a xlink:href="a02355.html#a44fec37f87bcd49aaacc97696f9e0e7d" target="_top" xlink:title=" ">
<polygon fill="white" stroke="#666666" points="757.88,-314.5 653.38,-314.5 653.38,-296 757.88,-296 757.88,-314.5"/>
<text text-anchor="middle" x="705.62" y="-301" font-family="Helvetica,sans-Serif" font-size="10.00">arch_alloc_init_once</text>
</a>
</g>
</g>
<!-- Node7&#45;&gt;Node20 -->
<g id="edge18_Node000007_Node000020" class="edge">
<title>Node7&#45;&gt;Node20</title>
<g id="a_edge18_Node000007_Node000020"><a xlink:title=" ">
<path fill="none" stroke="#63b8ff" d="M532.86,-387.69C551.32,-372.13 590.25,-341.34 628.25,-324.25 633.34,-321.96 638.75,-319.92 644.24,-318.1"/>
<polygon fill="#63b8ff" stroke="#63b8ff" points="644.86,-321.58 653.41,-315.33 642.82,-314.88 644.86,-321.58"/>
</a>
</g>
</g>
<!-- Node22 -->
<g id="Node000022" class="node">
<title>Node22</title>
<g id="a_Node000022"><a xlink:href="a02364.html#ab2e422aab2fcfa562795beb2843e8019" target="_top" xlink:title=" ">
<polygon fill="white" stroke="#666666" points="762,-610.5 649.25,-610.5 649.25,-592 762,-592 762,-610.5"/>
<text text-anchor="middle" x="705.62" y="-597" font-family="Helvetica,sans-Serif" font-size="10.00">async_meta_init_once</text>
</a>
</g>
</g>
<!-- Node7&#45;&gt;Node22 -->
<g id="edge21_Node000007_Node000022" class="edge">
<title>Node7&#45;&gt;Node22</title>
<g id="a_edge21_Node000007_Node000022"><a xlink:title=" ">
<path fill="none" stroke="#63b8ff" d="M527.21,-406.68C541.45,-431.33 582.38,-498.94 628.25,-545.25 643.53,-560.68 663.37,-575.09 679,-585.43"/>
<polygon fill="#63b8ff" stroke="#63b8ff" points="677,-588.31 687.3,-590.79 680.8,-582.42 677,-588.31"/>
</a>
</g>
</g>
<!-- Node37 -->
<g id="Node000037" class="node">
<title>Node37</title>
<g id="a_Node000037"><a xlink:href="a01964.html#a2e86c7792c1e7e0e1bdf1fe1a25dcab0" target="_top" xlink:title=" ">
<polygon fill="white" stroke="#666666" points="739.5,-277.5 671.75,-277.5 671.75,-259 739.5,-259 739.5,-277.5"/>
<text text-anchor="middle" x="705.62" y="-264" font-family="Helvetica,sans-Serif" font-size="10.00">utils_kv_init</text>
</a>
</g>
</g>
<!-- Node7&#45;&gt;Node37 -->
<g id="edge30_Node000007_Node000037" class="edge">
<title>Node7&#45;&gt;Node37</title>
<g id="a_edge30_Node000007_Node000037"><a xlink:title=" ">
<path fill="none" stroke="#63b8ff" d="M528.31,-387.57C543.19,-366 582.22,-313.79 628.25,-287.25 638,-281.63 649.39,-277.66 660.34,-274.86"/>
<polygon fill="#63b8ff" stroke="#63b8ff" points="661.06,-278.28 670.04,-272.67 659.52,-271.45 661.06,-278.28"/>
</a>
</g>
</g>
<!-- Node8&#45;&gt;Node9 -->
<g id="edge8_Node000008_Node000009" class="edge">
<title>Node8&#45;&gt;Node9</title>
<g id="a_edge8_Node000008_Node000009"><a xlink:title=" ">
<path fill="none" stroke="#63b8ff" d="M751.59,-462.97C776.49,-468.36 807.37,-475.03 832.34,-480.43"/>
<polygon fill="#63b8ff" stroke="#63b8ff" points="831.37,-483.8 841.88,-482.49 832.84,-476.96 831.37,-483.8"/>
</a>
</g>
</g>
<!-- Node10 -->
<g id="Node000010" class="node">
<title>Node10</title>
<g id="a_Node000010"><a xlink:href="a01955.html#a63f2791c9b5c8e2fa15967cfafb7ccbb" target="_top" xlink:title=" ">
<polygon fill="white" stroke="#666666" points="1092.12,-499.5 995.88,-499.5 995.88,-481 1092.12,-481 1092.12,-499.5"/>
<text text-anchor="middle" x="1044" y="-486" font-family="Helvetica,sans-Serif" font-size="10.00">utils_list_node_init</text>
</a>
</g>
</g>
<!-- Node9&#45;&gt;Node10 -->
<g id="edge9_Node000009_Node000010" class="edge">
<title>Node9&#45;&gt;Node10</title>
<g id="a_edge9_Node000009_Node000010"><a xlink:title=" ">
<path fill="none" stroke="#63b8ff" d="M913.97,-490.25C934.3,-490.25 960.63,-490.25 984.2,-490.25"/>
<polygon fill="#63b8ff" stroke="#63b8ff" points="984,-493.75 994,-490.25 984,-486.75 984,-493.75"/>
</a>
</g>
</g>
<!-- Node12&#45;&gt;Node13 -->
<g id="edge12_Node000012_Node000013" class="edge">
<title>Node12&#45;&gt;Node13</title>
<g id="a_edge12_Node000012_Node000013"><a xlink:title=" ">
<path fill="none" stroke="#63b8ff" d="M750.25,-379.25C769.98,-379.25 793.65,-379.25 815.22,-379.25"/>
<polygon fill="#63b8ff" stroke="#63b8ff" points="815.09,-382.75 825.09,-379.25 815.09,-375.75 815.09,-382.75"/>
</a>
</g>
</g>
<!-- Node14 -->
<g id="Node000014" class="node">
<title>Node14</title>
<g id="a_Node000014"><a xlink:href="a02358.html#ad1d30ecbf6bff6457b680aa940281072" target="_top" xlink:title=" ">
<polygon fill="white" stroke="#666666" points="1113.5,-240.5 974.5,-240.5 974.5,-222 1113.5,-222 1113.5,-240.5"/>
<text text-anchor="middle" x="1044" y="-227" font-family="Helvetica,sans-Serif" font-size="10.00">async_completion_complete</text>
</a>
</g>
</g>
<!-- Node13&#45;&gt;Node14 -->
<g id="edge13_Node000013_Node000014" class="edge">
<title>Node13&#45;&gt;Node14</title>
<g id="a_edge13_Node000013_Node000014"><a xlink:title=" ">
<path fill="none" stroke="#63b8ff" d="M890.46,-369.54C917.68,-344.86 989.78,-279.5 1024.2,-248.3"/>
<polygon fill="#63b8ff" stroke="#63b8ff" points="1026.28,-251.13 1031.34,-241.82 1021.58,-245.94 1026.28,-251.13"/>
</a>
</g>
</g>
<!-- Node15 -->
<g id="Node000015" class="node">
<title>Node15</title>
<g id="a_Node000015"><a xlink:href="a02358.html#ac728117d73179c279de49e01ae905dda" target="_top" xlink:title=" ">
<polygon fill="white" stroke="#666666" points="1100,-425.5 988,-425.5 988,-407 1100,-407 1100,-425.5"/>
<text text-anchor="middle" x="1044" y="-412" font-family="Helvetica,sans-Serif" font-size="10.00">async_completion_init</text>
</a>
</g>
</g>
<!-- Node13&#45;&gt;Node15 -->
<g id="edge14_Node000013_Node000015" class="edge">
<title>Node13&#45;&gt;Node15</title>
<g id="a_edge14_Node000013_Node000015"><a xlink:title=" ">
<path fill="none" stroke="#63b8ff" d="M922.64,-388.97C942.99,-393.58 967.53,-399.15 989.12,-404.04"/>
<polygon fill="#63b8ff" stroke="#63b8ff" points="988.11,-407.4 998.64,-406.19 989.66,-400.57 988.11,-407.4"/>
</a>
</g>
</g>
<!-- Node16 -->
<g id="Node000016" class="node">
<title>Node16</title>
<g id="a_Node000016"><a xlink:href="a02361.html#a3bbcb7c4c024e99d5c4ba52b61dfbbf7" target="_top" xlink:title=" ">
<polygon fill="#fff0f0" stroke="red" points="1103.75,-388.5 984.25,-388.5 984.25,-370 1103.75,-370 1103.75,-388.5"/>
<text text-anchor="middle" x="1044" y="-375" font-family="Helvetica,sans-Serif" font-size="10.00">async_condition_unlock</text>
</a>
</g>
</g>
<!-- Node13&#45;&gt;Node16 -->
<g id="edge15_Node000013_Node000016" class="edge">
<title>Node13&#45;&gt;Node16</title>
<g id="a_edge15_Node000013_Node000016"><a xlink:title=" ">
<path fill="none" stroke="#63b8ff" d="M930.96,-379.25C944.24,-379.25 958.77,-379.25 972.84,-379.25"/>
<polygon fill="#63b8ff" stroke="#63b8ff" points="972.48,-382.75 982.48,-379.25 972.48,-375.75 972.48,-382.75"/>
</a>
</g>
</g>
<!-- Node18 -->
<g id="Node000018" class="node">
<title>Node18</title>
<g id="a_Node000018"><a xlink:href="a02358.html#a2a7d01fc7720e936a430efc09d094c6c" target="_top" xlink:title=" ">
<polygon fill="white" stroke="#666666" points="1100.38,-351.5 987.62,-351.5 987.62,-333 1100.38,-333 1100.38,-351.5"/>
<text text-anchor="middle" x="1044" y="-338" font-family="Helvetica,sans-Serif" font-size="10.00">async_semaphore_init</text>
</a>
</g>
</g>
<!-- Node13&#45;&gt;Node18 -->
<g id="edge16_Node000013_Node000018" class="edge">
<title>Node13&#45;&gt;Node18</title>
<g id="a_edge16_Node000013_Node000018"><a xlink:title=" ">
<path fill="none" stroke="#63b8ff" d="M922.64,-369.53C942.99,-364.92 967.53,-359.35 989.12,-354.46"/>
<polygon fill="#63b8ff" stroke="#63b8ff" points="989.66,-357.93 998.64,-352.31 988.11,-351.1 989.66,-357.93"/>
</a>
</g>
</g>
<!-- Node21 -->
<g id="Node000021" class="node">
<title>Node21</title>
<g id="a_Node000021"><a xlink:href="a01949.html#a6699a24a46fb1be57ca21abf8bc61928" target="_top" xlink:title=" ">
<polygon fill="white" stroke="#666666" points="922,-314.5 835.5,-314.5 835.5,-296 922,-296 922,-314.5"/>
<text text-anchor="middle" x="878.75" y="-301" font-family="Helvetica,sans-Serif" font-size="10.00">utils_bitmap_init</text>
</a>
</g>
</g>
<!-- Node20&#45;&gt;Node21 -->
<g id="edge19_Node000020_Node000021" class="edge">
<title>Node20&#45;&gt;Node21</title>
<g id="a_edge19_Node000020_Node000021"><a xlink:title=" ">
<path fill="none" stroke="#63b8ff" d="M757.97,-305.25C778.73,-305.25 802.72,-305.25 823.75,-305.25"/>
<polygon fill="#63b8ff" stroke="#63b8ff" points="823.58,-308.75 833.57,-305.25 823.57,-301.75 823.58,-308.75"/>
</a>
</g>
</g>
<!-- Node22&#45;&gt;Node9 -->
<g id="edge29_Node000022_Node000009" class="edge">
<title>Node22&#45;&gt;Node9</title>
<g id="a_edge29_Node000022_Node000009"><a xlink:title=" ">
<path fill="none" stroke="#63b8ff" d="M721.51,-591.59C751.09,-572.41 817.52,-529.32 853.49,-505.98"/>
<polygon fill="#63b8ff" stroke="#63b8ff" points="855.02,-509.17 861.51,-500.79 851.21,-503.29 855.02,-509.17"/>
</a>
</g>
</g>
<!-- Node22&#45;&gt;Node23 -->
<g id="edge22_Node000022_Node000023" class="edge">
<title>Node22&#45;&gt;Node23</title>
<g id="a_edge22_Node000022_Node000023"><a xlink:title=" ">
<path fill="none" stroke="#63b8ff" d="M714.27,-610.68C737.4,-639.09 805.82,-722.51 819,-731.25 821.68,-733.03 824.54,-734.65 827.5,-736.13"/>
<polygon fill="#63b8ff" stroke="#63b8ff" points="825.87,-739.24 836.44,-740.01 828.66,-732.82 825.87,-739.24"/>
</a>
</g>
</g>
<!-- Node25 -->
<g id="Node000025" class="node">
<title>Node25</title>
<g id="a_Node000025"><a xlink:href="a01952.html#a84f3886cdcb91a28bf13b07aae8b2285" target="_top" xlink:title=" ">
<polygon fill="white" stroke="#666666" points="934.38,-648.5 823.12,-648.5 823.12,-630 934.38,-630 934.38,-648.5"/>
<text text-anchor="middle" x="878.75" y="-635" font-family="Helvetica,sans-Serif" font-size="10.00">utils_config_free_path</text>
</a>
</g>
</g>
<!-- Node22&#45;&gt;Node25 -->
<g id="edge24_Node000022_Node000025" class="edge">
<title>Node22&#45;&gt;Node25</title>
<g id="a_edge24_Node000022_Node000025"><a xlink:title=" ">
<path fill="none" stroke="#63b8ff" d="M750.25,-610.94C772.29,-615.83 799.26,-621.82 822.71,-627.03"/>
<polygon fill="#63b8ff" stroke="#63b8ff" points="821.91,-630.44 832.43,-629.19 823.43,-623.6 821.91,-630.44"/>
</a>
</g>
</g>
<!-- Node22&#45;&gt;Node26 -->
<g id="edge25_Node000022_Node000026" class="edge">
<title>Node22&#45;&gt;Node26</title>
<g id="a_edge25_Node000022_Node000026"><a xlink:title=" ">
<path fill="none" stroke="#63b8ff" d="M762.18,-601.57C778.44,-601.67 796.35,-601.77 813.12,-601.87"/>
<polygon fill="#63b8ff" stroke="#63b8ff" points="812.97,-605.37 822.99,-601.93 813.01,-598.37 812.97,-605.37"/>
</a>
</g>
</g>
<!-- Node24 -->
<g id="Node000024" class="node">
<title>Node24</title>
<g id="a_Node000024"><a xlink:href="a01961.html#a0844807fe9679a9a5fbf1bfc9dd78dc6" target="_top" xlink:title=" ">
<polygon fill="white" stroke="#666666" points="1094,-759.5 994,-759.5 994,-741 1094,-741 1094,-759.5"/>
<text text-anchor="middle" x="1044" y="-746" font-family="Helvetica,sans-Serif" font-size="10.00">system_home_path</text>
</a>
</g>
</g>
<!-- Node23&#45;&gt;Node24 -->
<g id="edge23_Node000023_Node000024" class="edge">
<title>Node23&#45;&gt;Node24</title>
<g id="a_edge23_Node000023_Node000024"><a xlink:title=" ">
<path fill="none" stroke="#63b8ff" d="M936.39,-750.25C951.21,-750.25 967.25,-750.25 982.28,-750.25"/>
<polygon fill="#63b8ff" stroke="#63b8ff" points="982.02,-753.75 992.02,-750.25 982.02,-746.75 982.02,-753.75"/>
</a>
</g>
</g>
<!-- Node27 -->
<g id="Node000027" class="node">
<title>Node27</title>
<g id="a_Node000027"><a xlink:href="a01952.html#a336fa8eefc3d744aa7248d6786cfee03" target="_top" xlink:title=" ">
<polygon fill="white" stroke="#666666" points="1094,-611.5 994,-611.5 994,-593 1094,-593 1094,-611.5"/>
<text text-anchor="middle" x="1044" y="-598" font-family="Helvetica,sans-Serif" font-size="10.00">utils_config_get_int</text>
</a>
</g>
</g>
<!-- Node26&#45;&gt;Node27 -->
<g id="edge26_Node000026_Node000027" class="edge">
<title>Node26&#45;&gt;Node27</title>
<g id="a_edge26_Node000026_Node000027"><a xlink:title=" ">
<path fill="none" stroke="#63b8ff" d="M932.75,-602.25C948.64,-602.25 966.18,-602.25 982.51,-602.25"/>
<polygon fill="#63b8ff" stroke="#63b8ff" points="982.07,-605.75 992.07,-602.25 982.07,-598.75 982.07,-605.75"/>
</a>
</g>
</g>
<!-- Node28 -->
<g id="Node000028" class="node">
<title>Node28</title>
<g id="a_Node000028"><a xlink:href="a01952.html#a1a28ba7c7791236d03b1fa9f81aa6a71" target="_top" xlink:title=" ">
<polygon fill="#fff0f0" stroke="red" points="1257,-611.5 1149.5,-611.5 1149.5,-593 1257,-593 1257,-611.5"/>
<text text-anchor="middle" x="1203.25" y="-598" font-family="Helvetica,sans-Serif" font-size="10.00">utils_config_get_long</text>
</a>
</g>
</g>
<!-- Node27&#45;&gt;Node28 -->
<g id="edge27_Node000027_Node000028" class="edge">
<title>Node27&#45;&gt;Node28</title>
<g id="a_edge27_Node000027_Node000028"><a xlink:title=" ">
<path fill="none" stroke="#63b8ff" d="M1094.32,-602.25C1108.04,-602.25 1123.15,-602.25 1137.6,-602.25"/>
<polygon fill="#63b8ff" stroke="#63b8ff" points="1137.5,-605.75 1147.5,-602.25 1137.5,-598.75 1137.5,-605.75"/>
</a>
</g>
</g>
<!-- Node29 -->
<g id="Node000029" class="node">
<title>Node29</title>
<g id="a_Node000029"><a xlink:href="a01952.html#a0738274ac3fd171eda6bfb42492bc0d7" target="_top" xlink:title=" ">
<polygon fill="#fff0f0" stroke="red" points="1399,-648.5 1293,-648.5 1293,-630 1399,-630 1399,-648.5"/>
<text text-anchor="middle" x="1346" y="-635" font-family="Helvetica,sans-Serif" font-size="10.00">_utils_config_get_str</text>
</a>
</g>
</g>
<!-- Node28&#45;&gt;Node29 -->
<g id="edge28_Node000028_Node000029" class="edge">
<title>Node28&#45;&gt;Node29</title>
<g id="a_edge28_Node000028_Node000029"><a xlink:title=" ">
<path fill="none" stroke="#63b8ff" d="M1241.23,-611.97C1258.36,-616.47 1278.93,-621.88 1297.22,-626.69"/>
<polygon fill="#63b8ff" stroke="#63b8ff" points="1296.24,-630.05 1306.8,-629.21 1298.02,-623.28 1296.24,-630.05"/>
</a>
</g>
</g>
<!-- Node40 -->
<g id="Node000040" class="node">
<title>Node40</title>
<g id="a_Node000040"><a xlink:href="a02358.html#aebf9e72bb6cbd8b9e33489d46c25075d" target="_top" xlink:title=" ">
<polygon fill="white" stroke="#666666" points="763.88,-203.5 647.38,-203.5 647.38,-185 763.88,-185 763.88,-203.5"/>
<text text-anchor="middle" x="705.62" y="-190" font-family="Helvetica,sans-Serif" font-size="10.00">async_completion_wait</text>
</a>
</g>
</g>
<!-- Node39&#45;&gt;Node40 -->
<g id="edge34_Node000039_Node000040" class="edge">
<title>Node39&#45;&gt;Node40</title>
<g id="a_edge34_Node000039_Node000040"><a xlink:title=" ">
<path fill="none" stroke="#63b8ff" d="M569.89,-221.53C593.09,-216.83 621.15,-211.15 645.64,-206.19"/>
<polygon fill="#63b8ff" stroke="#63b8ff" points="646.02,-209.69 655.13,-204.27 644.63,-202.82 646.02,-209.69"/>
</a>
</g>
</g>
<!-- Node41&#45;&gt;Node14 -->
<g id="edge36_Node000041_Node000014" class="edge">
<title>Node41&#45;&gt;Node14</title>
<g id="a_edge36_Node000041_Node000014"><a xlink:title=" ">
<path fill="none" stroke="#63b8ff" d="M938.69,-231.25C946.51,-231.25 954.63,-231.25 962.74,-231.25"/>
<polygon fill="#63b8ff" stroke="#63b8ff" points="962.64,-234.75 972.64,-231.25 962.64,-227.75 962.64,-234.75"/>
</a>
</g>
</g>
<!-- Node42&#45;&gt;Node14 -->
<g id="edge38_Node000042_Node000014" class="edge">
<title>Node42&#45;&gt;Node14</title>
<g id="a_edge38_Node000042_Node000014"><a xlink:title=" ">
<path fill="none" stroke="#63b8ff" d="M570.91,-184.58C578.32,-182.12 585.68,-179.05 592.25,-175.25 611.84,-163.92 607.34,-147.91 628.25,-139.25 691.79,-112.93 715.21,-127.61 783,-139.25 869.47,-154.1 965.35,-194.82 1012.88,-216.77"/>
<polygon fill="#63b8ff" stroke="#63b8ff" points="1011.16,-219.84 1021.7,-220.9 1014.13,-213.49 1011.16,-219.84"/>
</a>
</g>
</g>
<!-- Node42&#45;&gt;Node40 -->
<g id="edge39_Node000042_Node000040" class="edge">
<title>Node42&#45;&gt;Node40</title>
<g id="a_edge39_Node000042_Node000040"><a xlink:title=" ">
<path fill="none" stroke="#63b8ff" d="M575.23,-194.25C594.16,-194.25 615.75,-194.25 635.79,-194.25"/>
<polygon fill="#63b8ff" stroke="#63b8ff" points="635.54,-197.75 645.54,-194.25 635.54,-190.75 635.54,-197.75"/>
</a>
</g>
</g>
<!-- Node43 -->
<g id="Node000043" class="node">
<title>Node43</title>
<g id="a_Node000043"><a xlink:href="a02358.html#a7ab7c7fe9cb93434dde72a4e464a7e69" target="_top" xlink:title=" ">
<polygon fill="white" stroke="#666666" points="763.5,-166.5 647.75,-166.5 647.75,-148 763.5,-148 763.5,-166.5"/>
<text text-anchor="middle" x="705.62" y="-153" font-family="Helvetica,sans-Serif" font-size="10.00">async_semaphore_dec</text>
</a>
</g>
</g>
<!-- Node42&#45;&gt;Node43 -->
<g id="edge40_Node000042_Node000043" class="edge">
<title>Node42&#45;&gt;Node43</title>
<g id="a_edge40_Node000042_Node000043"><a xlink:title=" ">
<path fill="none" stroke="#63b8ff" d="M569.89,-184.53C593.09,-179.83 621.15,-174.15 645.64,-169.19"/>
<polygon fill="#63b8ff" stroke="#63b8ff" points="646.02,-172.69 655.13,-167.27 644.63,-165.82 646.02,-172.69"/>
</a>
</g>
</g>
<!-- Node44&#45;&gt;Node23 -->
<g id="edge44_Node000044_Node000023" class="edge">
<title>Node44&#45;&gt;Node23</title>
<g id="a_edge44_Node000044_Node000023"><a xlink:title=" ">
<path fill="none" stroke="#63b8ff" d="M751.59,-722.97C773.02,-727.61 798.88,-733.2 821.59,-738.11"/>
<polygon fill="#63b8ff" stroke="#63b8ff" points="820.8,-741.52 831.31,-740.21 822.28,-734.68 820.8,-741.52"/>
</a>
</g>
</g>
<!-- Node44&#45;&gt;Node25 -->
<g id="edge45_Node000044_Node000025" class="edge">
<title>Node44&#45;&gt;Node25</title>
<g id="a_edge45_Node000044_Node000025"><a xlink:title=" ">
<path fill="none" stroke="#63b8ff" d="M724.17,-703.69C745.99,-692.03 784.56,-672.16 819,-658.25 823.9,-656.27 829.09,-654.35 834.27,-652.54"/>
<polygon fill="#63b8ff" stroke="#63b8ff" points="835.03,-655.98 843.39,-649.47 832.8,-649.34 835.03,-655.98"/>
</a>
</g>
</g>
<!-- Node45 -->
<g id="Node000045" class="node">
<title>Node45</title>
<g id="a_Node000045"><a xlink:href="a02358.html#ab2195e0b081f467f8e058d1406bd4fc7" target="_top" xlink:title=" ">
<polygon fill="#fff0f0" stroke="red" points="915.62,-722.5 841.88,-722.5 841.88,-704 915.62,-704 915.62,-722.5"/>
<text text-anchor="middle" x="878.75" y="-709" font-family="Helvetica,sans-Serif" font-size="10.00">async_thread</text>
</a>
</g>
</g>
<!-- Node44&#45;&gt;Node45 -->
<g id="edge42_Node000044_Node000045" class="edge">
<title>Node44&#45;&gt;Node45</title>
<g id="a_edge42_Node000044_Node000045"><a xlink:title=" ">
<path fill="none" stroke="#63b8ff" d="M766.48,-713.25C787.25,-713.25 810.24,-713.25 829.92,-713.25"/>
<polygon fill="#63b8ff" stroke="#63b8ff" points="829.86,-716.75 839.86,-713.25 829.86,-709.75 829.86,-716.75"/>
</a>
</g>
</g>
<!-- Node44&#45;&gt;Node49 -->
<g id="edge46_Node000044_Node000049" class="edge">
<title>Node44&#45;&gt;Node49</title>
<g id="a_edge46_Node000044_Node000049"><a xlink:title=" ">
<path fill="none" stroke="#63b8ff" d="M751.59,-703.53C773.02,-698.89 798.88,-693.3 821.59,-688.39"/>
<polygon fill="#63b8ff" stroke="#63b8ff" points="822.28,-691.82 831.31,-686.29 820.8,-684.98 822.28,-691.82"/>
</a>
</g>
</g>
<!-- Node46 -->
<g id="Node000046" class="node">
<title>Node46</title>
<g id="a_Node000046"><a xlink:href="a02358.html#ae66ae81847153386c57918f4d91be8a7" target="_top" xlink:title=" ">
<polygon fill="white" stroke="#666666" points="1106.75,-722.5 981.25,-722.5 981.25,-704 1106.75,-704 1106.75,-722.5"/>
<text text-anchor="middle" x="1044" y="-709" font-family="Helvetica,sans-Serif" font-size="10.00">async_completion_check</text>
</a>
</g>
</g>
<!-- Node45&#45;&gt;Node46 -->
<g id="edge43_Node000045_Node000046" class="edge">
<title>Node45&#45;&gt;Node46</title>
<g id="a_edge43_Node000045_Node000046"><a xlink:title=" ">
<path fill="none" stroke="#63b8ff" d="M915.98,-713.25C931.77,-713.25 950.89,-713.25 969.44,-713.25"/>
<polygon fill="#63b8ff" stroke="#63b8ff" points="969.37,-716.75 979.37,-713.25 969.37,-709.75 969.37,-716.75"/>
</a>
</g>
</g>
<!-- Node49&#45;&gt;Node29 -->
<g id="edge47_Node000049_Node000029" class="edge">
<title>Node49&#45;&gt;Node29</title>
<g id="a_edge47_Node000049_Node000029"><a xlink:title=" ">
<path fill="none" stroke="#63b8ff" d="M929.54,-672.29C1014.6,-665.53 1187.77,-651.75 1281.44,-644.3"/>
<polygon fill="#63b8ff" stroke="#63b8ff" points="1281.53,-647.81 1291.22,-643.53 1280.98,-640.83 1281.53,-647.81"/>
</a>
</g>
</g>
<!-- Node35 -->
<g id="Node000035" class="node">
<title>Node35</title>
<g id="a_Node000035"><a xlink:href="a01952.html#a4b9cd8f5d0c205ac6c1fd30f77cbf539" target="_top" xlink:title=" ">
<polygon fill="#fff0f0" stroke="red" points="1098.12,-648.5 989.88,-648.5 989.88,-630 1098.12,-630 1098.12,-648.5"/>
<text text-anchor="middle" x="1044" y="-635" font-family="Helvetica,sans-Serif" font-size="10.00">utils_config_write_str</text>
</a>
</g>
</g>
<!-- Node49&#45;&gt;Node35 -->
<g id="edge48_Node000049_Node000035" class="edge">
<title>Node49&#45;&gt;Node35</title>
<g id="a_edge48_Node000049_Node000035"><a xlink:title=" ">
<path fill="none" stroke="#63b8ff" d="M922.64,-666.53C942.99,-661.92 967.53,-656.35 989.12,-651.46"/>
<polygon fill="#63b8ff" stroke="#63b8ff" points="989.66,-654.93 998.64,-649.31 988.11,-648.1 989.66,-654.93"/>
</a>
</g>
</g>
<!-- Node32 -->
<g id="Node000032" class="node">
<title>Node32</title>
<g id="a_Node000032"><a xlink:href="a01961.html#a86c3bfbf6daaf8172e131aa23dc7393c" target="_top" xlink:title=" ">
<polygon fill="white" stroke="#666666" points="749.25,-92.5 662,-92.5 662,-74 749.25,-74 749.25,-92.5"/>
<text text-anchor="middle" x="705.62" y="-79" font-family="Helvetica,sans-Serif" font-size="10.00">system_file_size</text>
</a>
</g>
</g>
<!-- Node50&#45;&gt;Node32 -->
<g id="edge50_Node000050_Node000032" class="edge">
<title>Node50&#45;&gt;Node32</title>
<g id="a_edge50_Node000050_Node000032"><a xlink:title=" ">
<path fill="none" stroke="#63b8ff" d="M560.63,-112.4C586.81,-107.1 621.72,-100.03 650.62,-94.18"/>
<polygon fill="#63b8ff" stroke="#63b8ff" points="651.18,-97.64 660.29,-92.23 649.79,-90.78 651.18,-97.64"/>
</a>
</g>
</g>
<!-- Node53&#45;&gt;Node28 -->
<g id="edge56_Node000053_Node000028" class="edge">
<title>Node53&#45;&gt;Node28</title>
<g id="a_edge56_Node000053_Node000028"><a xlink:title=" ">
<path fill="none" stroke="#63b8ff" d="M932.4,-567.02C979.9,-569.94 1051.62,-575.36 1113.5,-584.25 1124.82,-585.88 1136.88,-588.03 1148.33,-590.29"/>
<polygon fill="#63b8ff" stroke="#63b8ff" points="1147.56,-593.7 1158.06,-592.25 1148.95,-586.84 1147.56,-593.7"/>
</a>
</g>
</g>
<!-- Node31 -->
<g id="Node000031" class="node">
<title>Node31</title>
<g id="a_Node000031"><a xlink:href="a01961.html#acde493d3889d6f207d1e122cf4bb1b8c" target="_top" xlink:title=" ">
<polygon fill="white" stroke="#666666" points="748.5,-18.5 662.75,-18.5 662.75,0 748.5,0 748.5,-18.5"/>
<text text-anchor="middle" x="705.62" y="-5" font-family="Helvetica,sans-Serif" font-size="10.00">system_env_var</text>
</a>
</g>
</g>
<!-- Node33&#45;&gt;Node31 -->
<g id="edge58_Node000033_Node000031" class="edge">
<title>Node33&#45;&gt;Node31</title>
<g id="a_edge58_Node000033_Node000031"><a xlink:title=" ">
<path fill="none" stroke="#63b8ff" d="M580.7,-9.25C603.26,-9.25 628.86,-9.25 650.91,-9.25"/>
<polygon fill="#63b8ff" stroke="#63b8ff" points="650.9,-12.75 660.9,-9.25 650.9,-5.75 650.9,-12.75"/>
</a>
</g>
</g>
<!-- Node54&#45;&gt;Node2 -->
<g id="edge61_Node000054_Node000002" class="edge">
<title>Node54&#45;&gt;Node2</title>
<g id="a_edge61_Node000054_Node000002"><a xlink:title=" ">
<path fill="none" stroke="#63b8ff" d="M218.3,-311.39C229.7,-313.25 242.22,-315.29 253.6,-317.15"/>
<polygon fill="#63b8ff" stroke="#63b8ff" points="253.03,-320.6 263.47,-318.76 254.16,-313.7 253.03,-320.6"/>
</a>
</g>
</g>
</g>
</svg>
