<?xml version="1.0" encoding="UTF-8" standalone="no"?>
<!DOCTYPE svg PUBLIC "-//W3C//DTD SVG 1.1//EN"
 "http://www.w3.org/Graphics/SVG/1.1/DTD/svg11.dtd">
<!-- Generated by graphviz version 8.0.5 (0)
 -->
<!-- Title: utils_config_get_source Pages: 1 -->
<svg width="1854pt" height="243pt"
 viewBox="0.00 0.00 1853.50 242.61" xmlns="http://www.w3.org/2000/svg" xmlns:xlink="http://www.w3.org/1999/xlink">
<g id="graph0" class="graph" transform="scale(1 1) rotate(0) translate(4 238.61)">
<title>utils_config_get_source</title>
<!-- Node1 -->
<g id="Node000001" class="node">
<title>Node1</title>
<g id="a_Node000001"><a xlink:title=" ">
<polygon fill="#999999" stroke="#666666" points="1845.5,-148.5 1726.75,-148.5 1726.75,-130 1845.5,-130 1845.5,-148.5"/>
<text text-anchor="middle" x="1786.12" y="-135" font-family="Helvetica,sans-Serif" font-size="10.00">utils_config_get_source</text>
</a>
</g>
</g>
<!-- Node2 -->
<g id="Node000002" class="node">
<title>Node2</title>
<g id="a_Node000002"><a xlink:href="a01898.html#a02fd608f651d254148dc74f0ae371dfe" target="_top" xlink:title=" ">
<polygon fill="white" stroke="#666666" points="577.25,-149.5 518.5,-149.5 518.5,-131 577.25,-131 577.25,-149.5"/>
<text text-anchor="middle" x="547.88" y="-136" font-family="Helvetica,sans-Serif" font-size="10.00">_arax_init</text>
</a>
</g>
</g>
<!-- Node1&#45;&gt;Node2 -->
<g id="edge1_Node000001_Node000002" class="edge">
<title>Node1&#45;&gt;Node2</title>
<g id="a_edge1_Node000001_Node000002"><a xlink:title=" ">
<path fill="none" stroke="#63b8ff" d="M1762.69,-155C1721.96,-182 1632.28,-234.25 1548.12,-234.25 1548.12,-234.25 1548.12,-234.25 825.62,-234.25 729.89,-234.25 699.43,-239.95 613.25,-198.25 589.15,-186.59 567.44,-163.1 556.45,-149.87"/>
<polygon fill="#63b8ff" stroke="#63b8ff" points="1764.41,-157.38 1770.73,-148.88 1760.49,-151.59 1764.41,-157.38"/>
</a>
</g>
</g>
<!-- Node10 -->
<g id="Node000010" class="node">
<title>Node10</title>
<g id="a_Node000010"><a xlink:href="a01952.html#a8b687fb4c464903e23504eea3ddc3873" target="_top" xlink:title=" ">
<polygon fill="white" stroke="#666666" points="1690.75,-111.5 1637.25,-111.5 1637.25,-93 1690.75,-93 1690.75,-111.5"/>
<text text-anchor="middle" x="1664" y="-98" font-family="Helvetica,sans-Serif" font-size="10.00">conf_get</text>
</a>
</g>
</g>
<!-- Node1&#45;&gt;Node10 -->
<g id="edge11_Node000001_Node000010" class="edge">
<title>Node1&#45;&gt;Node10</title>
<g id="a_edge11_Node000001_Node000010"><a xlink:title=" ">
<path fill="none" stroke="#63b8ff" d="M1743.13,-126.31C1725.81,-120.98 1706.28,-114.97 1691.08,-110.28"/>
<polygon fill="#63b8ff" stroke="#63b8ff" points="1741.98,-129.93 1752.56,-129.53 1744.04,-123.24 1741.98,-129.93"/>
</a>
</g>
</g>
<!-- Node24 -->
<g id="Node000024" class="node">
<title>Node24</title>
<g id="a_Node000024"><a xlink:href="a01952.html#ab87e9691e65d65348749f8dc70f24602" target="_top" xlink:title=" ">
<polygon fill="white" stroke="#666666" points="1690.75,-148.5 1637.25,-148.5 1637.25,-130 1690.75,-130 1690.75,-148.5"/>
<text text-anchor="middle" x="1664" y="-135" font-family="Helvetica,sans-Serif" font-size="10.00">conf_set</text>
</a>
</g>
</g>
<!-- Node1&#45;&gt;Node24 -->
<g id="edge32_Node000001_Node000024" class="edge">
<title>Node1&#45;&gt;Node24</title>
<g id="a_edge32_Node000001_Node000024"><a xlink:title=" ">
<path fill="none" stroke="#63b8ff" d="M1715.47,-139.25C1706.86,-139.25 1698.52,-139.25 1691.18,-139.25"/>
<polygon fill="#63b8ff" stroke="#63b8ff" points="1715.47,-142.75 1725.47,-139.25 1715.47,-135.75 1715.47,-142.75"/>
</a>
</g>
</g>
<!-- Node3 -->
<g id="Node000003" class="node">
<title>Node3</title>
<g id="a_Node000003"><a xlink:href="a01898.html#aa6e4832b06bd5757be4502d2de7b3026" target="_top" xlink:title=" ">
<polygon fill="white" stroke="#666666" points="482.5,-175.75 384,-175.75 384,-146.75 482.5,-146.75 482.5,-175.75"/>
<text text-anchor="start" x="392" y="-162.25" font-family="Helvetica,sans-Serif" font-size="10.00">arax_controller_init</text>
<text text-anchor="middle" x="433.25" y="-151.75" font-family="Helvetica,sans-Serif" font-size="10.00">_start</text>
</a>
</g>
</g>
<!-- Node2&#45;&gt;Node3 -->
<g id="edge2_Node000002_Node000003" class="edge">
<title>Node2&#45;&gt;Node3</title>
<g id="a_edge2_Node000002_Node000003"><a xlink:title=" ">
<path fill="none" stroke="#63b8ff" d="M507.56,-147.58C499.5,-149.08 490.93,-150.68 482.6,-152.23"/>
<polygon fill="#63b8ff" stroke="#63b8ff" points="507.97,-150.88 517.16,-145.6 506.69,-144 507.97,-150.88"/>
</a>
</g>
</g>
<!-- Node4 -->
<g id="Node000004" class="node">
<title>Node4</title>
<g id="a_Node000004"><a xlink:href="a02174.html#gae1d371a2840849690acce147e7a205da" target="_top" xlink:title=" ">
<polygon fill="white" stroke="#666666" points="460,-128.5 406.5,-128.5 406.5,-110 460,-110 460,-128.5"/>
<text text-anchor="middle" x="433.25" y="-115" font-family="Helvetica,sans-Serif" font-size="10.00">arax_init</text>
</a>
</g>
</g>
<!-- Node2&#45;&gt;Node4 -->
<g id="edge3_Node000002_Node000004" class="edge">
<title>Node2&#45;&gt;Node4</title>
<g id="a_edge3_Node000002_Node000004"><a xlink:title=" ">
<path fill="none" stroke="#63b8ff" d="M507.67,-132.94C491.96,-130.01 474.28,-126.71 460.21,-124.09"/>
<polygon fill="#63b8ff" stroke="#63b8ff" points="506.69,-136.5 517.16,-134.9 507.97,-129.62 506.69,-136.5"/>
</a>
</g>
</g>
<!-- Node5 -->
<g id="Node000005" class="node">
<title>Node5</title>
<g id="a_Node000005"><a xlink:href="a01940.html#a8a99bcb12e2ee55d68a029bfca9b6d51" target="_top" xlink:title=" ">
<polygon fill="white" stroke="#666666" points="235.25,-157.75 141.25,-157.75 141.25,-128.75 235.25,-128.75 235.25,-157.75"/>
<text text-anchor="start" x="149.25" y="-144.25" font-family="Helvetica,sans-Serif" font-size="10.00">arax_plot_register</text>
<text text-anchor="middle" x="188.25" y="-133.75" font-family="Helvetica,sans-Serif" font-size="10.00">_metric</text>
</a>
</g>
</g>
<!-- Node4&#45;&gt;Node5 -->
<g id="edge4_Node000004_Node000005" class="edge">
<title>Node4&#45;&gt;Node5</title>
<g id="a_edge4_Node000004_Node000005"><a xlink:title=" ">
<path fill="none" stroke="#63b8ff" d="M395.47,-122.88C352.62,-127.11 281.79,-134.11 235.32,-138.7"/>
<polygon fill="#63b8ff" stroke="#63b8ff" points="395.64,-126.28 405.24,-121.82 394.95,-119.32 395.64,-126.28"/>
</a>
</g>
</g>
<!-- Node6 -->
<g id="Node000006" class="node">
<title>Node6</title>
<g id="a_Node000006"><a xlink:href="a01919.html#a80ab3bf4a8af9bb101b5a53248609771" target="_top" xlink:title=" ">
<polygon fill="white" stroke="#666666" points="348,-110.5 271.25,-110.5 271.25,-92 348,-92 348,-110.5"/>
<text text-anchor="middle" x="309.62" y="-97" font-family="Helvetica,sans-Serif" font-size="10.00">arax_ptr_valid</text>
</a>
</g>
</g>
<!-- Node4&#45;&gt;Node6 -->
<g id="edge5_Node000004_Node000006" class="edge">
<title>Node4&#45;&gt;Node6</title>
<g id="a_edge5_Node000004_Node000006"><a xlink:title=" ">
<path fill="none" stroke="#63b8ff" d="M395.71,-113.84C380.7,-111.62 363.33,-109.05 348.21,-106.81"/>
<polygon fill="#63b8ff" stroke="#63b8ff" points="394.75,-117.39 405.16,-115.39 395.78,-110.46 394.75,-117.39"/>
</a>
</g>
</g>
<!-- Node6&#45;&gt;Node5 -->
<g id="edge10_Node000006_Node000005" class="edge">
<title>Node6&#45;&gt;Node5</title>
<g id="a_edge10_Node000006_Node000005"><a xlink:title=" ">
<path fill="none" stroke="#63b8ff" d="M270.89,-114.53C258.45,-118.9 244.53,-123.8 231.76,-128.29"/>
<polygon fill="#63b8ff" stroke="#63b8ff" points="271.67,-117.61 279.94,-110.99 269.34,-111.01 271.67,-117.61"/>
</a>
</g>
</g>
<!-- Node7 -->
<g id="Node000007" class="node">
<title>Node7</title>
<g id="a_Node000007"><a xlink:href="a01937.html#a4ee1fea325d2edd421f59ab240dfbe54" target="_top" xlink:title=" ">
<polygon fill="white" stroke="#666666" points="234.12,-110.5 142.38,-110.5 142.38,-92 234.12,-92 234.12,-110.5"/>
<text text-anchor="middle" x="188.25" y="-97" font-family="Helvetica,sans-Serif" font-size="10.00">_arax_assert_obj</text>
</a>
</g>
</g>
<!-- Node6&#45;&gt;Node7 -->
<g id="edge6_Node000006_Node000007" class="edge">
<title>Node6&#45;&gt;Node7</title>
<g id="a_edge6_Node000006_Node000007"><a xlink:title=" ">
<path fill="none" stroke="#63b8ff" d="M259.94,-101.25C251.46,-101.25 242.67,-101.25 234.3,-101.25"/>
<polygon fill="#63b8ff" stroke="#63b8ff" points="259.85,-104.75 269.85,-101.25 259.85,-97.75 259.85,-104.75"/>
</a>
</g>
</g>
<!-- Node8 -->
<g id="Node000008" class="node">
<title>Node8</title>
<g id="a_Node000008"><a xlink:href="a01931.html#afeaab7d93372f0752d59c70d9c5940e7" target="_top" xlink:title=" ">
<polygon fill="white" stroke="#666666" points="226.25,-36.5 150.25,-36.5 150.25,-18 226.25,-18 226.25,-36.5"/>
<text text-anchor="middle" x="188.25" y="-23" font-family="Helvetica,sans-Serif" font-size="10.00">arax_data_ref</text>
</a>
</g>
</g>
<!-- Node6&#45;&gt;Node8 -->
<g id="edge7_Node000006_Node000008" class="edge">
<title>Node6&#45;&gt;Node8</title>
<g id="a_edge7_Node000006_Node000008"><a xlink:title=" ">
<path fill="none" stroke="#63b8ff" d="M287.39,-85.27C273.02,-74.77 253.42,-61.03 235.25,-50.25 227.26,-45.51 218.17,-40.83 210.2,-36.93"/>
<polygon fill="#63b8ff" stroke="#63b8ff" points="284.88,-88.52 295.01,-91.64 289.05,-82.89 284.88,-88.52"/>
</a>
</g>
</g>
<!-- Node9 -->
<g id="Node000009" class="node">
<title>Node9</title>
<g id="a_Node000009"><a xlink:href="a01931.html#ac1f7fb20b3a23b388bea24f1b46a33a8" target="_top" xlink:title=" ">
<polygon fill="white" stroke="#666666" points="105.25,-54.5 0,-54.5 0,-36 105.25,-36 105.25,-54.5"/>
<text text-anchor="middle" x="52.62" y="-41" font-family="Helvetica,sans-Serif" font-size="10.00">arax_data_ref_offset</text>
</a>
</g>
</g>
<!-- Node6&#45;&gt;Node9 -->
<g id="edge9_Node000006_Node000009" class="edge">
<title>Node6&#45;&gt;Node9</title>
<g id="a_edge9_Node000006_Node000009"><a xlink:title=" ">
<path fill="none" stroke="#63b8ff" d="M260.52,-89.2C252.11,-87.16 243.43,-85.11 235.25,-83.25 190.33,-73.04 138.92,-62.38 102.29,-54.96"/>
<polygon fill="#63b8ff" stroke="#63b8ff" points="259.43,-92.78 269.98,-91.75 261.09,-85.98 259.43,-92.78"/>
</a>
</g>
</g>
<!-- Node8&#45;&gt;Node9 -->
<g id="edge8_Node000008_Node000009" class="edge">
<title>Node8&#45;&gt;Node9</title>
<g id="a_edge8_Node000008_Node000009"><a xlink:title=" ">
<path fill="none" stroke="#63b8ff" d="M139.37,-33.7C128.43,-35.17 116.74,-36.75 105.63,-38.25"/>
<polygon fill="#63b8ff" stroke="#63b8ff" points="139.58,-37.07 149.03,-32.26 138.65,-30.13 139.58,-37.07"/>
</a>
</g>
</g>
<!-- Node11 -->
<g id="Node000011" class="node">
<title>Node11</title>
<g id="a_Node000011"><a xlink:href="a01952.html#a0738274ac3fd171eda6bfb42492bc0d7" target="_top" xlink:title=" ">
<polygon fill="white" stroke="#666666" points="1452.5,-75.5 1346.5,-75.5 1346.5,-57 1452.5,-57 1452.5,-75.5"/>
<text text-anchor="middle" x="1399.5" y="-62" font-family="Helvetica,sans-Serif" font-size="10.00">_utils_config_get_str</text>
</a>
</g>
</g>
<!-- Node10&#45;&gt;Node11 -->
<g id="edge12_Node000010_Node000011" class="edge">
<title>Node10&#45;&gt;Node11</title>
<g id="a_edge12_Node000010_Node000011"><a xlink:title=" ">
<path fill="none" stroke="#63b8ff" d="M1626.11,-97.19C1580.94,-91 1504.17,-80.47 1452.9,-73.44"/>
<polygon fill="#63b8ff" stroke="#63b8ff" points="1625.49,-100.78 1635.87,-98.67 1626.44,-93.84 1625.49,-100.78"/>
</a>
</g>
</g>
<!-- Node22 -->
<g id="Node000022" class="node">
<title>Node22</title>
<g id="a_Node000022"><a xlink:href="a01952.html#a4b9cd8f5d0c205ac6c1fd30f77cbf539" target="_top" xlink:title=" ">
<polygon fill="white" stroke="#666666" points="1601.25,-130.5 1493,-130.5 1493,-112 1601.25,-112 1601.25,-130.5"/>
<text text-anchor="middle" x="1547.12" y="-117" font-family="Helvetica,sans-Serif" font-size="10.00">utils_config_write_str</text>
</a>
</g>
</g>
<!-- Node10&#45;&gt;Node22 -->
<g id="edge28_Node000010_Node000022" class="edge">
<title>Node10&#45;&gt;Node22</title>
<g id="a_edge28_Node000010_Node000022"><a xlink:title=" ">
<path fill="none" stroke="#63b8ff" d="M1626.2,-108.34C1618.27,-109.65 1609.73,-111.06 1601.32,-112.45"/>
<polygon fill="#63b8ff" stroke="#63b8ff" points="1626.64,-111.65 1635.93,-106.56 1625.5,-104.74 1626.64,-111.65"/>
</a>
</g>
</g>
<!-- Node12 -->
<g id="Node000012" class="node">
<title>Node12</title>
<g id="a_Node000012"><a xlink:href="a01952.html#a1a28ba7c7791236d03b1fa9f81aa6a71" target="_top" xlink:title=" ">
<polygon fill="white" stroke="#666666" points="1306,-140.5 1198.5,-140.5 1198.5,-122 1306,-122 1306,-140.5"/>
<text text-anchor="middle" x="1252.25" y="-127" font-family="Helvetica,sans-Serif" font-size="10.00">utils_config_get_long</text>
</a>
</g>
</g>
<!-- Node11&#45;&gt;Node12 -->
<g id="edge13_Node000011_Node000012" class="edge">
<title>Node11&#45;&gt;Node12</title>
<g id="a_edge13_Node000011_Node000012"><a xlink:title=" ">
<path fill="none" stroke="#63b8ff" d="M1367.07,-80.32C1339.13,-92.82 1299.06,-110.75 1274.67,-121.66"/>
<polygon fill="#63b8ff" stroke="#63b8ff" points="1368.06,-83.26 1375.75,-75.98 1365.2,-76.87 1368.06,-83.26"/>
</a>
</g>
</g>
<!-- Node18 -->
<g id="Node000018" class="node">
<title>Node18</title>
<g id="a_Node000018"><a xlink:href="a01952.html#a1e8deff7c038efae14d1cc98e4ab109f" target="_top" xlink:title=" ">
<polygon fill="white" stroke="#666666" points="1302.62,-75.5 1201.88,-75.5 1201.88,-57 1302.62,-57 1302.62,-75.5"/>
<text text-anchor="middle" x="1252.25" y="-62" font-family="Helvetica,sans-Serif" font-size="10.00">utils_config_get_str</text>
</a>
</g>
</g>
<!-- Node11&#45;&gt;Node18 -->
<g id="edge22_Node000011_Node000018" class="edge">
<title>Node11&#45;&gt;Node18</title>
<g id="a_edge22_Node000011_Node000018"><a xlink:title=" ">
<path fill="none" stroke="#63b8ff" d="M1335.29,-66.25C1324.38,-66.25 1313.18,-66.25 1302.7,-66.25"/>
<polygon fill="#63b8ff" stroke="#63b8ff" points="1335.06,-69.75 1345.06,-66.25 1335.06,-62.75 1335.06,-69.75"/>
</a>
</g>
</g>
<!-- Node13 -->
<g id="Node000013" class="node">
<title>Node13</title>
<g id="a_Node000013"><a xlink:href="a01952.html#a336fa8eefc3d744aa7248d6786cfee03" target="_top" xlink:title=" ">
<polygon fill="white" stroke="#666666" points="1162.5,-168.5 1062.5,-168.5 1062.5,-150 1162.5,-150 1162.5,-168.5"/>
<text text-anchor="middle" x="1112.5" y="-155" font-family="Helvetica,sans-Serif" font-size="10.00">utils_config_get_int</text>
</a>
</g>
</g>
<!-- Node12&#45;&gt;Node13 -->
<g id="edge14_Node000012_Node000013" class="edge">
<title>Node12&#45;&gt;Node13</title>
<g id="a_edge14_Node000012_Node000013"><a xlink:title=" ">
<path fill="none" stroke="#63b8ff" d="M1193.01,-143.09C1182.41,-145.24 1171.46,-147.47 1161.21,-149.55"/>
<polygon fill="#63b8ff" stroke="#63b8ff" points="1193.36,-146.39 1202.46,-140.96 1191.96,-139.53 1193.36,-146.39"/>
</a>
</g>
</g>
<!-- Node17 -->
<g id="Node000017" class="node">
<title>Node17</title>
<g id="a_Node000017"><a xlink:href="a01952.html#a4a525d89ade920512dc65409bc8e85d8" target="_top" xlink:title=" ">
<polygon fill="white" stroke="#666666" points="880,-131.5 773.25,-131.5 773.25,-113 880,-113 880,-131.5"/>
<text text-anchor="middle" x="826.62" y="-118" font-family="Helvetica,sans-Serif" font-size="10.00">utils_config_get_size</text>
</a>
</g>
</g>
<!-- Node12&#45;&gt;Node17 -->
<g id="edge20_Node000012_Node000017" class="edge">
<title>Node12&#45;&gt;Node17</title>
<g id="a_edge20_Node000012_Node000017"><a xlink:title=" ">
<path fill="none" stroke="#63b8ff" d="M1187.12,-129.89C1103.29,-128.11 958.03,-125.02 880.3,-123.37"/>
<polygon fill="#63b8ff" stroke="#63b8ff" points="1186.95,-133.41 1197.03,-130.12 1187.1,-126.41 1186.95,-133.41"/>
</a>
</g>
</g>
<!-- Node14 -->
<g id="Node000014" class="node">
<title>Node14</title>
<g id="a_Node000014"><a xlink:href="a01952.html#aa7aa94ad075bf97a566f01f899fcd859" target="_top" xlink:title=" ">
<polygon fill="white" stroke="#666666" points="1026.5,-168.5 919,-168.5 919,-150 1026.5,-150 1026.5,-168.5"/>
<text text-anchor="middle" x="972.75" y="-155" font-family="Helvetica,sans-Serif" font-size="10.00">utils_config_get_bool</text>
</a>
</g>
</g>
<!-- Node13&#45;&gt;Node14 -->
<g id="edge15_Node000013_Node000014" class="edge">
<title>Node13&#45;&gt;Node14</title>
<g id="a_edge15_Node000013_Node000014"><a xlink:title=" ">
<path fill="none" stroke="#63b8ff" d="M1051.26,-159.25C1043.16,-159.25 1034.91,-159.25 1026.94,-159.25"/>
<polygon fill="#63b8ff" stroke="#63b8ff" points="1051.16,-162.75 1061.16,-159.25 1051.16,-155.75 1051.16,-162.75"/>
</a>
</g>
</g>
<!-- Node14&#45;&gt;Node2 -->
<g id="edge16_Node000014_Node000002" class="edge">
<title>Node14&#45;&gt;Node2</title>
<g id="a_edge16_Node000014_Node000002"><a xlink:title=" ">
<path fill="none" stroke="#63b8ff" d="M921.73,-171.28C851.5,-186.04 720.27,-205.81 613.25,-177.25 593.32,-171.93 573.16,-158.81 560.84,-149.71"/>
<polygon fill="#63b8ff" stroke="#63b8ff" points="922.43,-174.49 931.46,-168.96 920.95,-167.65 922.43,-174.49"/>
</a>
</g>
</g>
<!-- Node15 -->
<g id="Node000015" class="node">
<title>Node15</title>
<g id="a_Node000015"><a xlink:href="a02352.html#ab2e422aab2fcfa562795beb2843e8019" target="_top" xlink:title=" ">
<polygon fill="white" stroke="#666666" points="883,-168.5 770.25,-168.5 770.25,-150 883,-150 883,-168.5"/>
<text text-anchor="middle" x="826.62" y="-155" font-family="Helvetica,sans-Serif" font-size="10.00">async_meta_init_once</text>
</a>
</g>
</g>
<!-- Node14&#45;&gt;Node15 -->
<g id="edge17_Node000014_Node000015" class="edge">
<title>Node14&#45;&gt;Node15</title>
<g id="a_edge17_Node000014_Node000015"><a xlink:title=" ">
<path fill="none" stroke="#63b8ff" d="M908.17,-159.25C899.9,-159.25 891.49,-159.25 883.37,-159.25"/>
<polygon fill="#63b8ff" stroke="#63b8ff" points="907.9,-162.75 917.9,-159.25 907.9,-155.75 907.9,-162.75"/>
</a>
</g>
</g>
<!-- Node16 -->
<g id="Node000016" class="node">
<title>Node16</title>
<g id="a_Node000016"><a xlink:href="a01913.html#aa6293e9ec7776aa49ecf632fcc4f5e26" target="_top" xlink:title=" ">
<polygon fill="white" stroke="#666666" points="712.12,-168.5 635.38,-168.5 635.38,-150 712.12,-150 712.12,-168.5"/>
<text text-anchor="middle" x="673.75" y="-155" font-family="Helvetica,sans-Serif" font-size="10.00">arax_pipe_init</text>
</a>
</g>
</g>
<!-- Node15&#45;&gt;Node16 -->
<g id="edge18_Node000015_Node000016" class="edge">
<title>Node15&#45;&gt;Node16</title>
<g id="a_edge18_Node000015_Node000016"><a xlink:title=" ">
<path fill="none" stroke="#63b8ff" d="M758.95,-159.25C743,-159.25 726.52,-159.25 712.42,-159.25"/>
<polygon fill="#63b8ff" stroke="#63b8ff" points="758.87,-162.75 768.87,-159.25 758.87,-155.75 758.87,-162.75"/>
</a>
</g>
</g>
<!-- Node16&#45;&gt;Node2 -->
<g id="edge19_Node000016_Node000002" class="edge">
<title>Node16&#45;&gt;Node2</title>
<g id="a_edge19_Node000016_Node000002"><a xlink:title=" ">
<path fill="none" stroke="#63b8ff" d="M624.2,-151.8C608.37,-149.38 591.31,-146.76 577.44,-144.63"/>
<polygon fill="#63b8ff" stroke="#63b8ff" points="623.5,-155.39 633.91,-153.45 624.56,-148.47 623.5,-155.39"/>
</a>
</g>
</g>
<!-- Node17&#45;&gt;Node2 -->
<g id="edge21_Node000017_Node000002" class="edge">
<title>Node17&#45;&gt;Node2</title>
<g id="a_edge21_Node000017_Node000002"><a xlink:title=" ">
<path fill="none" stroke="#63b8ff" d="M762.03,-126.39C704.02,-130.16 620.94,-135.56 577.63,-138.38"/>
<polygon fill="#63b8ff" stroke="#63b8ff" points="762.17,-129.82 771.92,-125.68 761.71,-122.83 762.17,-129.82"/>
</a>
</g>
</g>
<!-- Node18&#45;&gt;Node2 -->
<g id="edge23_Node000018_Node000002" class="edge">
<title>Node18&#45;&gt;Node2</title>
<g id="a_edge23_Node000018_Node000002"><a xlink:title=" ">
<path fill="none" stroke="#63b8ff" d="M1190.61,-72.45C1134.44,-77.66 1048.54,-84.25 973.75,-84.25 973.75,-84.25 973.75,-84.25 825.62,-84.25 733.22,-84.25 626.85,-114.61 577.18,-130.62"/>
<polygon fill="#63b8ff" stroke="#63b8ff" points="1190.81,-75.86 1200.43,-71.43 1190.15,-68.89 1190.81,-75.86"/>
</a>
</g>
</g>
<!-- Node19 -->
<g id="Node000019" class="node">
<title>Node19</title>
<g id="a_Node000019"><a xlink:href="a02174.html#ga4bae55e86ffc384b3c1d2da3580f5c42" target="_top" xlink:title=" ">
<polygon fill="white" stroke="#666666" points="1144.5,-18.5 1080.5,-18.5 1080.5,0 1144.5,0 1144.5,-18.5"/>
<text text-anchor="middle" x="1112.5" y="-5" font-family="Helvetica,sans-Serif" font-size="10.00">arax_clean</text>
</a>
</g>
</g>
<!-- Node18&#45;&gt;Node19 -->
<g id="edge24_Node000018_Node000019" class="edge">
<title>Node18&#45;&gt;Node19</title>
<g id="a_edge24_Node000018_Node000019"><a xlink:title=" ">
<path fill="none" stroke="#63b8ff" d="M1217.74,-52.39C1192.73,-42.04 1159.19,-28.15 1136.98,-18.97"/>
<polygon fill="#63b8ff" stroke="#63b8ff" points="1216.3,-55.99 1226.88,-56.58 1218.98,-49.52 1216.3,-55.99"/>
</a>
</g>
</g>
<!-- Node21 -->
<g id="Node000021" class="node">
<title>Node21</title>
<g id="a_Node000021"><a xlink:href="a02352.html#adbaa29dfccfdfe6e3fe69a1d001c05b5" target="_top" xlink:title=" ">
<polygon fill="white" stroke="#666666" points="734.25,-56.5 613.25,-56.5 613.25,-38 734.25,-38 734.25,-56.5"/>
<text text-anchor="middle" x="673.75" y="-43" font-family="Helvetica,sans-Serif" font-size="10.00">async_meta_init_always</text>
</a>
</g>
</g>
<!-- Node18&#45;&gt;Node21 -->
<g id="edge26_Node000018_Node000021" class="edge">
<title>Node18&#45;&gt;Node21</title>
<g id="a_edge26_Node000018_Node000021"><a xlink:title=" ">
<path fill="none" stroke="#63b8ff" d="M1190.61,-64.25C1079.65,-60.59 845.19,-52.87 734.72,-49.23"/>
<polygon fill="#63b8ff" stroke="#63b8ff" points="1190.49,-67.78 1200.6,-64.61 1190.72,-60.79 1190.49,-67.78"/>
</a>
</g>
</g>
<!-- Node20 -->
<g id="Node000020" class="node">
<title>Node20</title>
<g id="a_Node000020"><a xlink:href="a02174.html#ga8ac7e88ed7b8a1e2ff8aa435ac6b58ec" target="_top" xlink:title=" ">
<polygon fill="white" stroke="#666666" points="1001,-18.5 944.5,-18.5 944.5,0 1001,0 1001,-18.5"/>
<text text-anchor="middle" x="972.75" y="-5" font-family="Helvetica,sans-Serif" font-size="10.00">arax_exit</text>
</a>
</g>
</g>
<!-- Node19&#45;&gt;Node20 -->
<g id="edge25_Node000019_Node000020" class="edge">
<title>Node19&#45;&gt;Node20</title>
<g id="a_edge25_Node000019_Node000020"><a xlink:title=" ">
<path fill="none" stroke="#63b8ff" d="M1069.43,-9.25C1047.25,-9.25 1020.66,-9.25 1001.16,-9.25"/>
<polygon fill="#63b8ff" stroke="#63b8ff" points="1069.24,-12.75 1079.24,-9.25 1069.24,-5.75 1069.24,-12.75"/>
</a>
</g>
</g>
<!-- Node21&#45;&gt;Node2 -->
<g id="edge27_Node000021_Node000002" class="edge">
<title>Node21&#45;&gt;Node2</title>
<g id="a_edge27_Node000021_Node000002"><a xlink:title=" ">
<path fill="none" stroke="#63b8ff" d="M629.85,-61.07C624.05,-63.72 618.35,-66.77 613.25,-70.25 588.14,-87.35 565.87,-116.03 555.33,-130.81"/>
<polygon fill="#63b8ff" stroke="#63b8ff" points="630.73,-64.08 638.61,-56.99 628.03,-57.62 630.73,-64.08"/>
</a>
</g>
</g>
<!-- Node22&#45;&gt;Node18 -->
<g id="edge29_Node000022_Node000018" class="edge">
<title>Node22&#45;&gt;Node18</title>
<g id="a_edge29_Node000022_Node000018"><a xlink:title=" ">
<path fill="none" stroke="#63b8ff" d="M1482.04,-109.99C1441.79,-102.82 1388.82,-93.24 1342,-84.25 1328.41,-81.64 1313.68,-78.7 1300.19,-75.96"/>
<polygon fill="#63b8ff" stroke="#63b8ff" points="1481.32,-113.59 1491.77,-111.89 1482.54,-106.7 1481.32,-113.59"/>
</a>
</g>
</g>
<!-- Node23 -->
<g id="Node000023" class="node">
<title>Node23</title>
<g id="a_Node000023"><a xlink:href="a01952.html#a88091e179416d4beec1b5681cfb68742" target="_top" xlink:title=" ">
<polygon fill="white" stroke="#666666" points="1457,-149.5 1342,-149.5 1342,-131 1457,-131 1457,-149.5"/>
<text text-anchor="middle" x="1399.5" y="-136" font-family="Helvetica,sans-Serif" font-size="10.00">utils_config_write_long</text>
</a>
</g>
</g>
<!-- Node22&#45;&gt;Node23 -->
<g id="edge30_Node000022_Node000023" class="edge">
<title>Node22&#45;&gt;Node23</title>
<g id="a_edge30_Node000022_Node000023"><a xlink:title=" ">
<path fill="none" stroke="#63b8ff" d="M1482.03,-129.61C1473.8,-130.69 1465.42,-131.78 1457.32,-132.84"/>
<polygon fill="#63b8ff" stroke="#63b8ff" points="1482.26,-132.98 1491.73,-128.22 1481.36,-126.04 1482.26,-132.98"/>
</a>
</g>
</g>
<!-- Node23&#45;&gt;Node12 -->
<g id="edge31_Node000023_Node000012" class="edge">
<title>Node23&#45;&gt;Node12</title>
<g id="a_edge31_Node000023_Node000012"><a xlink:title=" ">
<path fill="none" stroke="#63b8ff" d="M1330.78,-136.05C1322.56,-135.54 1314.25,-135.03 1306.28,-134.54"/>
<polygon fill="#63b8ff" stroke="#63b8ff" points="1330.31,-139.59 1340.51,-136.72 1330.75,-132.61 1330.31,-139.59"/>
</a>
</g>
</g>
<!-- Node24&#45;&gt;Node22 -->
<g id="edge33_Node000024_Node000022" class="edge">
<title>Node24&#45;&gt;Node22</title>
<g id="a_edge33_Node000024_Node000022"><a xlink:title=" ">
<path fill="none" stroke="#63b8ff" d="M1626.2,-133.48C1618.27,-132.24 1609.73,-130.9 1601.32,-129.58"/>
<polygon fill="#63b8ff" stroke="#63b8ff" points="1625.51,-137.08 1635.93,-135.17 1626.6,-130.16 1625.51,-137.08"/>
</a>
</g>
</g>
</g>
</svg>
