<?xml version="1.0" encoding="UTF-8" standalone="no"?>
<!DOCTYPE svg PUBLIC "-//W3C//DTD SVG 1.1//EN"
 "http://www.w3.org/Graphics/SVG/1.1/DTD/svg11.dtd">
<!-- Generated by graphviz version 12.2.1 (0)
 -->
<!-- Title: system_home_path Pages: 1 -->
<svg width="1178pt" height="194pt"
 viewBox="0.00 0.00 1178.00 194.09" xmlns="http://www.w3.org/2000/svg" xmlns:xlink="http://www.w3.org/1999/xlink">
<g id="graph0" class="graph" transform="scale(1 1) rotate(0) translate(4 190.09)">
<title>system_home_path</title>
<!-- Node1 -->
<g id="Node000001" class="node">
<title>Node1</title>
<g id="a_Node000001"><a xlink:title=" ">
<polygon fill="#999999" stroke="#666666" points="1170,-133.6 1070,-133.6 1070,-115.1 1170,-115.1 1170,-133.6"/>
<text text-anchor="middle" x="1120" y="-120.1" font-family="Helvetica,sans-Serif" font-size="10.00">system_home_path</text>
</a>
</g>
</g>
<!-- Node2 -->
<g id="Node000002" class="node">
<title>Node2</title>
<g id="a_Node000002"><a xlink:href="a01952.html#aff9af0356940583dfe3045e693cc8a45" target="_top" xlink:title=" ">
<polygon fill="white" stroke="#666666" points="1034,-133.6 919,-133.6 919,-115.1 1034,-115.1 1034,-133.6"/>
<text text-anchor="middle" x="976.5" y="-120.1" font-family="Helvetica,sans-Serif" font-size="10.00">utils_config_alloc_path</text>
</a>
</g>
</g>
<!-- Node1&#45;&gt;Node2 -->
<g id="edge1_Node000001_Node000002" class="edge">
<title>Node1&#45;&gt;Node2</title>
<g id="a_edge1_Node000001_Node000002"><a xlink:title=" ">
<path fill="none" stroke="#63b8ff" d="M1058.16,-124.35C1050.3,-124.35 1042.27,-124.35 1034.47,-124.35"/>
<polygon fill="#63b8ff" stroke="#63b8ff" points="1058,-127.85 1068,-124.35 1058,-120.85 1058,-127.85"/>
</a>
</g>
</g>
<!-- Node3 -->
<g id="Node000003" class="node">
<title>Node3</title>
<g id="a_Node000003"><a xlink:href="a01910.html#a02fd608f651d254148dc74f0ae371dfe" target="_top" xlink:title=" ">
<polygon fill="white" stroke="#666666" points="577.25,-115.6 518.5,-115.6 518.5,-97.1 577.25,-97.1 577.25,-115.6"/>
<text text-anchor="middle" x="547.88" y="-102.1" font-family="Helvetica,sans-Serif" font-size="10.00">_arax_init</text>
</a>
</g>
</g>
<!-- Node2&#45;&gt;Node3 -->
<g id="edge2_Node000002_Node000003" class="edge">
<title>Node2&#45;&gt;Node3</title>
<g id="a_edge2_Node000002_Node000003"><a xlink:title=" ">
<path fill="none" stroke="#63b8ff" d="M947.06,-139.01C929.19,-147.38 905.36,-157.04 883,-161.35 765.27,-184.02 725.73,-202.85 613.25,-161.35 588.7,-152.29 567.17,-129.24 556.33,-116.03"/>
<polygon fill="#63b8ff" stroke="#63b8ff" points="948.52,-142.19 955.99,-134.68 945.47,-135.89 948.52,-142.19"/>
</a>
</g>
</g>
<!-- Node11 -->
<g id="Node000011" class="node">
<title>Node11</title>
<g id="a_Node000011"><a xlink:href="a02186.html#ga4bae55e86ffc384b3c1d2da3580f5c42" target="_top" xlink:title=" ">
<polygon fill="white" stroke="#666666" points="858.62,-152.6 794.62,-152.6 794.62,-134.1 858.62,-134.1 858.62,-152.6"/>
<text text-anchor="middle" x="826.62" y="-139.1" font-family="Helvetica,sans-Serif" font-size="10.00">arax_clean</text>
</a>
</g>
</g>
<!-- Node2&#45;&gt;Node11 -->
<g id="edge12_Node000002_Node000011" class="edge">
<title>Node2&#45;&gt;Node11</title>
<g id="a_edge12_Node000002_Node000011"><a xlink:title=" ">
<path fill="none" stroke="#63b8ff" d="M907.63,-133.07C890.56,-135.26 873.06,-137.51 858.79,-139.35"/>
<polygon fill="#63b8ff" stroke="#63b8ff" points="907.78,-136.58 917.25,-131.83 906.88,-129.64 907.78,-136.58"/>
</a>
</g>
</g>
<!-- Node13 -->
<g id="Node000013" class="node">
<title>Node13</title>
<g id="a_Node000013"><a xlink:href="a02364.html#adbaa29dfccfdfe6e3fe69a1d001c05b5" target="_top" xlink:title=" ">
<polygon fill="white" stroke="#666666" points="734.25,-115.6 613.25,-115.6 613.25,-97.1 734.25,-97.1 734.25,-115.6"/>
<text text-anchor="middle" x="673.75" y="-102.1" font-family="Helvetica,sans-Serif" font-size="10.00">async_meta_init_always</text>
</a>
</g>
</g>
<!-- Node2&#45;&gt;Node13 -->
<g id="edge14_Node000002_Node000013" class="edge">
<title>Node2&#45;&gt;Node13</title>
<g id="a_edge14_Node000002_Node000013"><a xlink:title=" ">
<path fill="none" stroke="#63b8ff" d="M907.12,-120.26C855.12,-117.15 784.28,-112.91 734.53,-109.93"/>
<polygon fill="#63b8ff" stroke="#63b8ff" points="906.88,-123.75 917.07,-120.85 907.29,-116.76 906.88,-123.75"/>
</a>
</g>
</g>
<!-- Node14 -->
<g id="Node000014" class="node">
<title>Node14</title>
<g id="a_Node000014"><a xlink:href="a02364.html#ab2e422aab2fcfa562795beb2843e8019" target="_top" xlink:title=" ">
<polygon fill="white" stroke="#666666" points="883,-78.6 770.25,-78.6 770.25,-60.1 883,-60.1 883,-78.6"/>
<text text-anchor="middle" x="826.62" y="-65.1" font-family="Helvetica,sans-Serif" font-size="10.00">async_meta_init_once</text>
</a>
</g>
</g>
<!-- Node2&#45;&gt;Node14 -->
<g id="edge16_Node000002_Node000014" class="edge">
<title>Node2&#45;&gt;Node14</title>
<g id="a_edge16_Node000002_Node000014"><a xlink:title=" ">
<path fill="none" stroke="#63b8ff" d="M938.62,-110.63C912.11,-100.77 877.03,-87.72 853.46,-78.96"/>
<polygon fill="#63b8ff" stroke="#63b8ff" points="937.39,-113.91 947.98,-114.12 939.83,-107.35 937.39,-113.91"/>
</a>
</g>
</g>
<!-- Node4 -->
<g id="Node000004" class="node">
<title>Node4</title>
<g id="a_Node000004"><a xlink:href="a01910.html#aa6e4832b06bd5757be4502d2de7b3026" target="_top" xlink:title=" ">
<polygon fill="white" stroke="#666666" points="482.5,-141.85 384,-141.85 384,-112.85 482.5,-112.85 482.5,-141.85"/>
<text text-anchor="start" x="392" y="-128.35" font-family="Helvetica,sans-Serif" font-size="10.00">arax_controller_init</text>
<text text-anchor="middle" x="433.25" y="-117.85" font-family="Helvetica,sans-Serif" font-size="10.00">_start</text>
</a>
</g>
</g>
<!-- Node3&#45;&gt;Node4 -->
<g id="edge3_Node000003_Node000004" class="edge">
<title>Node3&#45;&gt;Node4</title>
<g id="a_edge3_Node000003_Node000004"><a xlink:title=" ">
<path fill="none" stroke="#63b8ff" d="M507.01,-113.78C499.11,-115.26 490.74,-116.82 482.6,-118.33"/>
<polygon fill="#63b8ff" stroke="#63b8ff" points="507.49,-117.25 516.68,-111.98 506.2,-110.37 507.49,-117.25"/>
</a>
</g>
</g>
<!-- Node5 -->
<g id="Node000005" class="node">
<title>Node5</title>
<g id="a_Node000005"><a xlink:href="a02186.html#gae1d371a2840849690acce147e7a205da" target="_top" xlink:title=" ">
<polygon fill="white" stroke="#666666" points="460,-94.6 406.5,-94.6 406.5,-76.1 460,-76.1 460,-94.6"/>
<text text-anchor="middle" x="433.25" y="-81.1" font-family="Helvetica,sans-Serif" font-size="10.00">arax_init</text>
</a>
</g>
</g>
<!-- Node3&#45;&gt;Node5 -->
<g id="edge4_Node000003_Node000005" class="edge">
<title>Node3&#45;&gt;Node5</title>
<g id="a_edge4_Node000003_Node000005"><a xlink:title=" ">
<path fill="none" stroke="#63b8ff" d="M507.21,-98.95C491.62,-96.05 474.15,-92.79 460.21,-90.19"/>
<polygon fill="#63b8ff" stroke="#63b8ff" points="506.2,-102.33 516.68,-100.72 507.49,-95.45 506.2,-102.33"/>
</a>
</g>
</g>
<!-- Node6 -->
<g id="Node000006" class="node">
<title>Node6</title>
<g id="a_Node000006"><a xlink:href="a01946.html#a8a99bcb12e2ee55d68a029bfca9b6d51" target="_top" xlink:title=" ">
<polygon fill="white" stroke="#666666" points="235.25,-123.85 141.25,-123.85 141.25,-94.85 235.25,-94.85 235.25,-123.85"/>
<text text-anchor="start" x="149.25" y="-110.35" font-family="Helvetica,sans-Serif" font-size="10.00">arax_plot_register</text>
<text text-anchor="middle" x="188.25" y="-99.85" font-family="Helvetica,sans-Serif" font-size="10.00">_metric</text>
</a>
</g>
</g>
<!-- Node5&#45;&gt;Node6 -->
<g id="edge5_Node000005_Node000006" class="edge">
<title>Node5&#45;&gt;Node6</title>
<g id="a_edge5_Node000005_Node000006"><a xlink:title=" ">
<path fill="none" stroke="#63b8ff" d="M394.92,-89.04C352.02,-93.27 281.6,-100.23 235.32,-104.8"/>
<polygon fill="#63b8ff" stroke="#63b8ff" points="395.13,-92.53 404.74,-88.07 394.44,-85.57 395.13,-92.53"/>
</a>
</g>
</g>
<!-- Node7 -->
<g id="Node000007" class="node">
<title>Node7</title>
<g id="a_Node000007"><a xlink:href="a01934.html#a80ab3bf4a8af9bb101b5a53248609771" target="_top" xlink:title=" ">
<polygon fill="white" stroke="#666666" points="348,-76.6 271.25,-76.6 271.25,-58.1 348,-58.1 348,-76.6"/>
<text text-anchor="middle" x="309.62" y="-63.1" font-family="Helvetica,sans-Serif" font-size="10.00">arax_ptr_valid</text>
</a>
</g>
</g>
<!-- Node5&#45;&gt;Node7 -->
<g id="edge6_Node000005_Node000007" class="edge">
<title>Node5&#45;&gt;Node7</title>
<g id="a_edge6_Node000005_Node000007"><a xlink:title=" ">
<path fill="none" stroke="#63b8ff" d="M394.83,-79.81C380.03,-77.62 363.04,-75.11 348.21,-72.91"/>
<polygon fill="#63b8ff" stroke="#63b8ff" points="394.26,-83.27 404.66,-81.27 395.28,-76.34 394.26,-83.27"/>
</a>
</g>
</g>
<!-- Node7&#45;&gt;Node6 -->
<g id="edge11_Node000007_Node000006" class="edge">
<title>Node7&#45;&gt;Node6</title>
<g id="a_edge11_Node000007_Node000006"><a xlink:title=" ">
<path fill="none" stroke="#63b8ff" d="M270.14,-80.89C257.89,-85.2 244.27,-89.99 231.76,-94.39"/>
<polygon fill="#63b8ff" stroke="#63b8ff" points="271.24,-84.21 279.51,-77.59 268.92,-77.61 271.24,-84.21"/>
</a>
</g>
</g>
<!-- Node8 -->
<g id="Node000008" class="node">
<title>Node8</title>
<g id="a_Node000008"><a xlink:href="a01967.html#a4ee1fea325d2edd421f59ab240dfbe54" target="_top" xlink:title=" ">
<polygon fill="white" stroke="#666666" points="234.12,-76.6 142.38,-76.6 142.38,-58.1 234.12,-58.1 234.12,-76.6"/>
<text text-anchor="middle" x="188.25" y="-63.1" font-family="Helvetica,sans-Serif" font-size="10.00">_arax_assert_obj</text>
</a>
</g>
</g>
<!-- Node7&#45;&gt;Node8 -->
<g id="edge7_Node000007_Node000008" class="edge">
<title>Node7&#45;&gt;Node8</title>
<g id="a_edge7_Node000007_Node000008"><a xlink:title=" ">
<path fill="none" stroke="#63b8ff" d="M259.37,-67.35C251.07,-67.35 242.49,-67.35 234.3,-67.35"/>
<polygon fill="#63b8ff" stroke="#63b8ff" points="259.34,-70.85 269.34,-67.35 259.34,-63.85 259.34,-70.85"/>
</a>
</g>
</g>
<!-- Node9 -->
<g id="Node000009" class="node">
<title>Node9</title>
<g id="a_Node000009"><a xlink:href="a01922.html#afeaab7d93372f0752d59c70d9c5940e7" target="_top" xlink:title=" ">
<polygon fill="white" stroke="#666666" points="226.25,-39.6 150.25,-39.6 150.25,-21.1 226.25,-21.1 226.25,-39.6"/>
<text text-anchor="middle" x="188.25" y="-26.1" font-family="Helvetica,sans-Serif" font-size="10.00">arax_data_ref</text>
</a>
</g>
</g>
<!-- Node7&#45;&gt;Node9 -->
<g id="edge8_Node000007_Node000009" class="edge">
<title>Node7&#45;&gt;Node9</title>
<g id="a_edge8_Node000007_Node000009"><a xlink:title=" ">
<path fill="none" stroke="#63b8ff" d="M266.56,-54.31C251.36,-49.6 234.5,-44.37 220.4,-40.01"/>
<polygon fill="#63b8ff" stroke="#63b8ff" points="265.23,-57.56 275.81,-57.18 267.3,-50.88 265.23,-57.56"/>
</a>
</g>
</g>
<!-- Node10 -->
<g id="Node000010" class="node">
<title>Node10</title>
<g id="a_Node000010"><a xlink:href="a01922.html#ac1f7fb20b3a23b388bea24f1b46a33a8" target="_top" xlink:title=" ">
<polygon fill="white" stroke="#666666" points="105.25,-20.6 0,-20.6 0,-2.1 105.25,-2.1 105.25,-20.6"/>
<text text-anchor="middle" x="52.62" y="-7.1" font-family="Helvetica,sans-Serif" font-size="10.00">arax_data_ref_offset</text>
</a>
</g>
</g>
<!-- Node7&#45;&gt;Node10 -->
<g id="edge10_Node000007_Node000010" class="edge">
<title>Node7&#45;&gt;Node10</title>
<g id="a_edge10_Node000007_Node000010"><a xlink:title=" ">
<path fill="none" stroke="#63b8ff" d="M291.83,-49.72C278.05,-36.61 257.28,-19.76 235.25,-12.35 193.26,1.77 142.65,0.69 105.53,-3.15"/>
<polygon fill="#63b8ff" stroke="#63b8ff" points="289.19,-52.03 298.75,-56.59 294.12,-47.06 289.19,-52.03"/>
</a>
</g>
</g>
<!-- Node9&#45;&gt;Node10 -->
<g id="edge9_Node000009_Node000010" class="edge">
<title>Node9&#45;&gt;Node10</title>
<g id="a_edge9_Node000009_Node000010"><a xlink:title=" ">
<path fill="none" stroke="#63b8ff" d="M138.69,-23.45C127.94,-21.92 116.51,-20.29 105.63,-18.74"/>
<polygon fill="#63b8ff" stroke="#63b8ff" points="138.14,-26.9 148.53,-24.84 139.12,-19.97 138.14,-26.9"/>
</a>
</g>
</g>
<!-- Node12 -->
<g id="Node000012" class="node">
<title>Node12</title>
<g id="a_Node000012"><a xlink:href="a02186.html#ga8ac7e88ed7b8a1e2ff8aa435ac6b58ec" target="_top" xlink:title=" ">
<polygon fill="white" stroke="#666666" points="702,-152.6 645.5,-152.6 645.5,-134.1 702,-134.1 702,-152.6"/>
<text text-anchor="middle" x="673.75" y="-139.1" font-family="Helvetica,sans-Serif" font-size="10.00">arax_exit</text>
</a>
</g>
</g>
<!-- Node11&#45;&gt;Node12 -->
<g id="edge13_Node000011_Node000012" class="edge">
<title>Node11&#45;&gt;Node12</title>
<g id="a_edge13_Node000011_Node000012"><a xlink:title=" ">
<path fill="none" stroke="#63b8ff" d="M783,-143.35C757.17,-143.35 724.96,-143.35 702.42,-143.35"/>
<polygon fill="#63b8ff" stroke="#63b8ff" points="782.85,-146.85 792.85,-143.35 782.85,-139.85 782.85,-146.85"/>
</a>
</g>
</g>
<!-- Node13&#45;&gt;Node3 -->
<g id="edge15_Node000013_Node000003" class="edge">
<title>Node13&#45;&gt;Node3</title>
<g id="a_edge15_Node000013_Node000003"><a xlink:title=" ">
<path fill="none" stroke="#63b8ff" d="M601.7,-106.35C593.18,-106.35 584.89,-106.35 577.5,-106.35"/>
<polygon fill="#63b8ff" stroke="#63b8ff" points="601.48,-109.85 611.48,-106.35 601.48,-102.85 601.48,-109.85"/>
</a>
</g>
</g>
<!-- Node15 -->
<g id="Node000015" class="node">
<title>Node15</title>
<g id="a_Node000015"><a xlink:href="a01928.html#aa6293e9ec7776aa49ecf632fcc4f5e26" target="_top" xlink:title=" ">
<polygon fill="white" stroke="#666666" points="712.12,-78.6 635.38,-78.6 635.38,-60.1 712.12,-60.1 712.12,-78.6"/>
<text text-anchor="middle" x="673.75" y="-65.1" font-family="Helvetica,sans-Serif" font-size="10.00">arax_pipe_init</text>
</a>
</g>
</g>
<!-- Node14&#45;&gt;Node15 -->
<g id="edge17_Node000014_Node000015" class="edge">
<title>Node14&#45;&gt;Node15</title>
<g id="a_edge17_Node000014_Node000015"><a xlink:title=" ">
<path fill="none" stroke="#63b8ff" d="M758.49,-69.35C742.69,-69.35 726.39,-69.35 712.42,-69.35"/>
<polygon fill="#63b8ff" stroke="#63b8ff" points="758.36,-72.85 768.36,-69.35 758.36,-65.85 758.36,-72.85"/>
</a>
</g>
</g>
<!-- Node15&#45;&gt;Node3 -->
<g id="edge18_Node000015_Node000003" class="edge">
<title>Node15&#45;&gt;Node3</title>
<g id="a_edge18_Node000015_Node000003"><a xlink:title=" ">
<path fill="none" stroke="#63b8ff" d="M629.27,-82.34C612.07,-87.47 592.78,-93.24 577.41,-97.83"/>
<polygon fill="#63b8ff" stroke="#63b8ff" points="630.17,-85.72 638.75,-79.5 628.17,-79.01 630.17,-85.72"/>
</a>
</g>
</g>
</g>
</svg>
