<?xml version="1.0" encoding="UTF-8" standalone="no"?>
<!DOCTYPE svg PUBLIC "-//W3C//DTD SVG 1.1//EN"
 "http://www.w3.org/Graphics/SVG/1.1/DTD/svg11.dtd">
<!-- Generated by graphviz version 8.0.5 (0)
 -->
<!-- Title: arch_alloc_allocate Pages: 1 -->
<svg width="1466pt" height="490pt"
 viewBox="0.00 0.00 1466.25 489.75" xmlns="http://www.w3.org/2000/svg" xmlns:xlink="http://www.w3.org/1999/xlink">
<g id="graph0" class="graph" transform="scale(1 1) rotate(0) translate(4 485.75)">
<title>arch_alloc_allocate</title>
<!-- Node1 -->
<g id="Node000001" class="node">
<title>Node1</title>
<g id="a_Node000001"><a xlink:title=" ">
<polygon fill="#999999" stroke="#666666" points="1458.25,-102.75 1359,-102.75 1359,-84.25 1458.25,-84.25 1458.25,-102.75"/>
<text text-anchor="middle" x="1408.62" y="-89.25" font-family="Helvetica,sans-Serif" font-size="10.00">arch_alloc_allocate</text>
</a>
</g>
</g>
<!-- Node2 -->
<g id="Node000002" class="node">
<title>Node2</title>
<g id="a_Node000002"><a xlink:href="a01910.html#a402bbd6fa197c2c48d527325e5e2cf5b" target="_top" xlink:title=" ">
<polygon fill="white" stroke="#666666" points="724.25,-336.75 619.75,-336.75 619.75,-318.25 724.25,-318.25 724.25,-336.75"/>
<text text-anchor="middle" x="672" y="-323.25" font-family="Helvetica,sans-Serif" font-size="10.00">arax_object_register</text>
</a>
</g>
</g>
<!-- Node1&#45;&gt;Node2 -->
<g id="edge1_Node000001_Node000002" class="edge">
<title>Node1&#45;&gt;Node2</title>
<g id="a_edge1_Node000001_Node000002"><a xlink:title=" ">
<path fill="none" stroke="#63b8ff" d="M1396.75,-112.35C1363.12,-167.97 1254.73,-327.5 1118.12,-327.5 1118.12,-327.5 1118.12,-327.5 962.5,-327.5 879.19,-327.5 782.4,-327.5 724.51,-327.5"/>
<polygon fill="#63b8ff" stroke="#63b8ff" points="1400.23,-114.35 1402.31,-103.96 1394.21,-110.78 1400.23,-114.35"/>
</a>
</g>
</g>
<!-- Node20 -->
<g id="Node000020" class="node">
<title>Node20</title>
<g id="a_Node000020"><a xlink:href="a01910.html#a6c73bee66b4cb5a64d949b6fbbd64498" target="_top" xlink:title=" ">
<polygon fill="white" stroke="#666666" points="1317.38,-65.75 1212.88,-65.75 1212.88,-47.25 1317.38,-47.25 1317.38,-65.75"/>
<text text-anchor="middle" x="1265.12" y="-52.25" font-family="Helvetica,sans-Serif" font-size="10.00">arax_object_rename</text>
</a>
</g>
</g>
<!-- Node1&#45;&gt;Node20 -->
<g id="edge21_Node000001_Node000020" class="edge">
<title>Node1&#45;&gt;Node20</title>
<g id="a_edge21_Node000001_Node000020"><a xlink:title=" ">
<path fill="none" stroke="#63b8ff" d="M1359.85,-81.01C1341.31,-76.16 1320.41,-70.69 1303.05,-66.16"/>
<polygon fill="#63b8ff" stroke="#63b8ff" points="1358.89,-84.63 1369.45,-83.78 1360.66,-77.86 1358.89,-84.63"/>
</a>
</g>
</g>
<!-- Node21 -->
<g id="Node000021" class="node">
<title>Node21</title>
<g id="a_Node000021"><a xlink:href="a01940.html#a8a99bcb12e2ee55d68a029bfca9b6d51" target="_top" xlink:title=" ">
<polygon fill="white" stroke="#666666" points="572.5,-105 478.5,-105 478.5,-76 572.5,-76 572.5,-105"/>
<text text-anchor="start" x="486.5" y="-91.5" font-family="Helvetica,sans-Serif" font-size="10.00">arax_plot_register</text>
<text text-anchor="middle" x="525.5" y="-81" font-family="Helvetica,sans-Serif" font-size="10.00">_metric</text>
</a>
</g>
</g>
<!-- Node1&#45;&gt;Node21 -->
<g id="edge22_Node000001_Node000021" class="edge">
<title>Node1&#45;&gt;Node21</title>
<g id="a_edge22_Node000001_Node000021"><a xlink:title=" ">
<path fill="none" stroke="#63b8ff" d="M1347.81,-93.5C1289.27,-93.5 1197.57,-93.5 1118.12,-93.5 1118.12,-93.5 1118.12,-93.5 811.88,-93.5 727.65,-93.5 629.44,-92.18 572.96,-91.29"/>
<polygon fill="#63b8ff" stroke="#63b8ff" points="1347.71,-97 1357.71,-93.5 1347.71,-90 1347.71,-97"/>
</a>
</g>
</g>
<!-- Node22 -->
<g id="Node000022" class="node">
<title>Node22</title>
<g id="a_Node000022"><a xlink:href="a02343.html#a32b9155cb5133ef21023a1ff4653bf04" target="_top" xlink:title=" ">
<polygon fill="white" stroke="#666666" points="1321.88,-29 1208.38,-29 1208.38,0 1321.88,0 1321.88,-29"/>
<text text-anchor="start" x="1216.38" y="-15.5" font-family="Helvetica,sans-Serif" font-size="10.00">arch_alloc_create_sub</text>
<text text-anchor="middle" x="1265.12" y="-5" font-family="Helvetica,sans-Serif" font-size="10.00">_alloc</text>
</a>
</g>
</g>
<!-- Node1&#45;&gt;Node22 -->
<g id="edge23_Node000001_Node000022" class="edge">
<title>Node1&#45;&gt;Node22</title>
<g id="a_edge23_Node000001_Node000022"><a xlink:title=" ">
<path fill="none" stroke="#63b8ff" d="M1385.34,-77.46C1368.65,-65.83 1345,-50.17 1323,-38.5 1317.04,-35.34 1310.56,-32.27 1304.19,-29.46"/>
<polygon fill="#63b8ff" stroke="#63b8ff" points="1383.11,-80.87 1393.3,-83.78 1387.14,-75.15 1383.11,-80.87"/>
</a>
</g>
</g>
<!-- Node23 -->
<g id="Node000023" class="node">
<title>Node23</title>
<g id="a_Node000023"><a xlink:href="a02352.html#a7ab7c7fe9cb93434dde72a4e464a7e69" target="_top" xlink:title=" ">
<polygon fill="white" stroke="#666666" points="1323,-177.75 1207.25,-177.75 1207.25,-159.25 1323,-159.25 1323,-177.75"/>
<text text-anchor="middle" x="1265.12" y="-164.25" font-family="Helvetica,sans-Serif" font-size="10.00">async_semaphore_dec</text>
</a>
</g>
</g>
<!-- Node1&#45;&gt;Node23 -->
<g id="edge24_Node000001_Node000023" class="edge">
<title>Node1&#45;&gt;Node23</title>
<g id="a_edge24_Node000001_Node000023"><a xlink:title=" ">
<path fill="none" stroke="#63b8ff" d="M1379.71,-108.29C1351.41,-123.3 1308.43,-146.08 1284.26,-158.89"/>
<polygon fill="#63b8ff" stroke="#63b8ff" points="1381.22,-110.93 1388.42,-103.15 1377.94,-104.74 1381.22,-110.93"/>
</a>
</g>
</g>
<!-- Node3 -->
<g id="Node000003" class="node">
<title>Node3</title>
<g id="a_Node000003"><a xlink:href="a01904.html#a0706a66a62ca8710342ac1c097b703ed" target="_top" xlink:title=" ">
<polygon fill="white" stroke="#666666" points="410.62,-481.75 328.62,-481.75 328.62,-463.25 410.62,-463.25 410.62,-481.75"/>
<text text-anchor="middle" x="369.62" y="-468.25" font-family="Helvetica,sans-Serif" font-size="10.00">arax_accel_init</text>
</a>
</g>
</g>
<!-- Node2&#45;&gt;Node3 -->
<g id="edge2_Node000002_Node000003" class="edge">
<title>Node2&#45;&gt;Node3</title>
<g id="a_edge2_Node000002_Node000003"><a xlink:title=" ">
<path fill="none" stroke="#63b8ff" d="M659.59,-346.19C644.7,-368.88 616.49,-406.58 582.25,-426.5 528.47,-457.8 455.78,-467.85 411.1,-471.05"/>
<polygon fill="#63b8ff" stroke="#63b8ff" points="662.88,-348.52 665.29,-338.21 656.98,-344.77 662.88,-348.52"/>
</a>
</g>
</g>
<!-- Node4 -->
<g id="Node000004" class="node">
<title>Node4</title>
<g id="a_Node000004"><a xlink:href="a01931.html#a526989df37e605824d846b7ba54b43ea" target="_top" xlink:title=" ">
<polygon fill="white" stroke="#666666" points="582.25,-370.75 468.75,-370.75 468.75,-352.25 582.25,-352.25 582.25,-370.75"/>
<text text-anchor="middle" x="525.5" y="-357.25" font-family="Helvetica,sans-Serif" font-size="10.00">arax_data_init_aligned</text>
</a>
</g>
</g>
<!-- Node2&#45;&gt;Node4 -->
<g id="edge3_Node000002_Node000004" class="edge">
<title>Node2&#45;&gt;Node4</title>
<g id="a_edge3_Node000002_Node000004"><a xlink:title=" ">
<path fill="none" stroke="#63b8ff" d="M619.33,-339.66C602.45,-343.63 583.94,-347.99 567.91,-351.76"/>
<polygon fill="#63b8ff" stroke="#63b8ff" points="619.66,-342.94 628.59,-337.24 618.06,-336.13 619.66,-342.94"/>
</a>
</g>
</g>
<!-- Node7 -->
<g id="Node000007" class="node">
<title>Node7</title>
<g id="a_Node000007"><a xlink:href="a01916.html#a86ac572ea8f5f613129192c47d598818" target="_top" xlink:title=" ">
<polygon fill="white" stroke="#666666" points="564.25,-333.75 486.75,-333.75 486.75,-315.25 564.25,-315.25 564.25,-333.75"/>
<text text-anchor="middle" x="525.5" y="-320.25" font-family="Helvetica,sans-Serif" font-size="10.00">arax_proc_init</text>
</a>
</g>
</g>
<!-- Node2&#45;&gt;Node7 -->
<g id="edge6_Node000002_Node000007" class="edge">
<title>Node2&#45;&gt;Node7</title>
<g id="a_edge6_Node000002_Node000007"><a xlink:title=" ">
<path fill="none" stroke="#63b8ff" d="M608.82,-326.21C593.75,-325.9 578.08,-325.57 564.51,-325.29"/>
<polygon fill="#63b8ff" stroke="#63b8ff" points="608.58,-329.73 618.65,-326.43 608.72,-322.73 608.58,-329.73"/>
</a>
</g>
</g>
<!-- Node9 -->
<g id="Node000009" class="node">
<title>Node9</title>
<g id="a_Node000009"><a xlink:href="a01922.html#a27bee94f7a23281c8b2b72ec433f6059" target="_top" xlink:title=" ">
<polygon fill="white" stroke="#666666" points="568,-296.75 483,-296.75 483,-278.25 568,-278.25 568,-296.75"/>
<text text-anchor="middle" x="525.5" y="-283.25" font-family="Helvetica,sans-Serif" font-size="10.00">arax_task_alloc</text>
</a>
</g>
</g>
<!-- Node2&#45;&gt;Node9 -->
<g id="edge8_Node000002_Node000009" class="edge">
<title>Node2&#45;&gt;Node9</title>
<g id="a_edge8_Node000002_Node000009"><a xlink:title=" ">
<path fill="none" stroke="#63b8ff" d="M625.58,-314.93C604.94,-309.21 580.89,-302.56 561.66,-297.23"/>
<polygon fill="#63b8ff" stroke="#63b8ff" points="624.45,-318.52 635.02,-317.82 626.32,-311.78 624.45,-318.52"/>
</a>
</g>
</g>
<!-- Node17 -->
<g id="Node000017" class="node">
<title>Node17</title>
<g id="a_Node000017"><a xlink:href="a01928.html#a83ddb422946cf774c687c1ab63dcda15" target="_top" xlink:title=" ">
<polygon fill="white" stroke="#666666" points="568.75,-417.75 482.25,-417.75 482.25,-399.25 568.75,-399.25 568.75,-417.75"/>
<text text-anchor="middle" x="525.5" y="-404.25" font-family="Helvetica,sans-Serif" font-size="10.00">arax_vaccel_init</text>
</a>
</g>
</g>
<!-- Node2&#45;&gt;Node17 -->
<g id="edge17_Node000002_Node000017" class="edge">
<title>Node2&#45;&gt;Node17</title>
<g id="a_edge17_Node000002_Node000017"><a xlink:title=" ">
<path fill="none" stroke="#63b8ff" d="M646.03,-342.58C628.35,-353.15 604.01,-367.48 582.25,-379.5 570.22,-386.15 556.52,-393.28 545.72,-398.8"/>
<polygon fill="#63b8ff" stroke="#63b8ff" points="647.33,-345.28 654.11,-337.14 643.73,-339.28 647.33,-345.28"/>
</a>
</g>
</g>
<!-- Node5 -->
<g id="Node000005" class="node">
<title>Node5</title>
<g id="a_Node000005"><a xlink:href="a01931.html#aeefe449d4a278e9fc4b9c5f7e31000a1" target="_top" xlink:title=" ">
<polygon fill="white" stroke="#666666" points="408.38,-370.75 330.88,-370.75 330.88,-352.25 408.38,-352.25 408.38,-370.75"/>
<text text-anchor="middle" x="369.62" y="-357.25" font-family="Helvetica,sans-Serif" font-size="10.00">arax_data_init</text>
</a>
</g>
</g>
<!-- Node4&#45;&gt;Node5 -->
<g id="edge4_Node000004_Node000005" class="edge">
<title>Node4&#45;&gt;Node5</title>
<g id="a_edge4_Node000004_Node000005"><a xlink:title=" ">
<path fill="none" stroke="#63b8ff" d="M457.6,-361.5C440.81,-361.5 423.36,-361.5 408.54,-361.5"/>
<polygon fill="#63b8ff" stroke="#63b8ff" points="457.51,-365 467.51,-361.5 457.51,-358 457.51,-365"/>
</a>
</g>
</g>
<!-- Node6 -->
<g id="Node000006" class="node">
<title>Node6</title>
<g id="a_Node000006"><a xlink:href="a02178.html#ga9260ad2dd766aec3274c518e2e312b1f" target="_top" xlink:title=" ">
<polygon fill="white" stroke="#666666" points="249.12,-407.75 159.62,-407.75 159.62,-389.25 249.12,-389.25 249.12,-407.75"/>
<text text-anchor="middle" x="204.38" y="-394.25" font-family="Helvetica,sans-Serif" font-size="10.00">ARAX_BUFFER</text>
</a>
</g>
</g>
<!-- Node5&#45;&gt;Node6 -->
<g id="edge5_Node000005_Node000006" class="edge">
<title>Node5&#45;&gt;Node6</title>
<g id="a_edge5_Node000005_Node000006"><a xlink:title=" ">
<path fill="none" stroke="#63b8ff" d="M320.25,-372.46C297.39,-377.65 270.33,-383.78 248.21,-388.79"/>
<polygon fill="#63b8ff" stroke="#63b8ff" points="320.78,-375.71 329.76,-370.08 319.24,-368.88 320.78,-375.71"/>
</a>
</g>
</g>
<!-- Node8 -->
<g id="Node000008" class="node">
<title>Node8</title>
<g id="a_Node000008"><a xlink:href="a02176.html#gafad2dafb4a231390f02b7c866295b7d9" target="_top" xlink:title=" ">
<polygon fill="white" stroke="#666666" points="418.12,-333.75 321.12,-333.75 321.12,-315.25 418.12,-315.25 418.12,-333.75"/>
<text text-anchor="middle" x="369.62" y="-320.25" font-family="Helvetica,sans-Serif" font-size="10.00">arax_proc_register</text>
</a>
</g>
</g>
<!-- Node7&#45;&gt;Node8 -->
<g id="edge7_Node000007_Node000008" class="edge">
<title>Node7&#45;&gt;Node8</title>
<g id="a_edge7_Node000007_Node000008"><a xlink:title=" ">
<path fill="none" stroke="#63b8ff" d="M475.72,-324.5C457.41,-324.5 436.64,-324.5 418.42,-324.5"/>
<polygon fill="#63b8ff" stroke="#63b8ff" points="475.46,-328 485.46,-324.5 475.46,-321 475.46,-328"/>
</a>
</g>
</g>
<!-- Node10 -->
<g id="Node000010" class="node">
<title>Node10</title>
<g id="a_Node000010"><a xlink:href="a02177.html#gac9f0f3fbb14da879d3ff09bd367bbb24" target="_top" xlink:title=" ">
<polygon fill="white" stroke="#666666" points="413.62,-296.75 325.62,-296.75 325.62,-278.25 413.62,-278.25 413.62,-296.75"/>
<text text-anchor="middle" x="369.62" y="-283.25" font-family="Helvetica,sans-Serif" font-size="10.00">arax_task_issue</text>
</a>
</g>
</g>
<!-- Node9&#45;&gt;Node10 -->
<g id="edge9_Node000009_Node000010" class="edge">
<title>Node9&#45;&gt;Node10</title>
<g id="a_edge9_Node000009_Node000010"><a xlink:title=" ">
<path fill="none" stroke="#63b8ff" d="M472.01,-287.5C453.09,-287.5 431.96,-287.5 413.91,-287.5"/>
<polygon fill="#63b8ff" stroke="#63b8ff" points="471.86,-291 481.86,-287.5 471.86,-284 471.86,-291"/>
</a>
</g>
</g>
<!-- Node11 -->
<g id="Node000011" class="node">
<title>Node11</title>
<g id="a_Node000011"><a xlink:href="a01931.html#af8ede6fc8d207004035f45d945688d2c" target="_top" xlink:title=" ">
<polygon fill="white" stroke="#666666" points="253.62,-223 155.12,-223 155.12,-194 253.62,-194 253.62,-223"/>
<text text-anchor="start" x="163.12" y="-209.5" font-family="Helvetica,sans-Serif" font-size="10.00">arax_data_allocate</text>
<text text-anchor="middle" x="204.38" y="-199" font-family="Helvetica,sans-Serif" font-size="10.00">_remote</text>
</a>
</g>
</g>
<!-- Node10&#45;&gt;Node11 -->
<g id="edge10_Node000010_Node000011" class="edge">
<title>Node10&#45;&gt;Node11</title>
<g id="a_edge10_Node000010_Node000011"><a xlink:title=" ">
<path fill="none" stroke="#63b8ff" d="M335.18,-273.3C325.72,-268.9 315.54,-263.81 306.5,-258.5 289.48,-248.5 287.92,-241.78 270.5,-232.5 264.33,-229.22 257.61,-226.19 250.92,-223.47"/>
<polygon fill="#63b8ff" stroke="#63b8ff" points="333.53,-276.84 344.08,-277.77 336.41,-270.46 333.53,-276.84"/>
</a>
</g>
</g>
<!-- Node12 -->
<g id="Node000012" class="node">
<title>Node12</title>
<g id="a_Node000012"><a xlink:href="a01931.html#a696bc4319d0f6c6baa7d797a8df6b56f" target="_top" xlink:title=" ">
<polygon fill="white" stroke="#666666" points="243.5,-296.75 165.25,-296.75 165.25,-278.25 243.5,-278.25 243.5,-296.75"/>
<text text-anchor="middle" x="204.38" y="-283.25" font-family="Helvetica,sans-Serif" font-size="10.00">arax_data_get</text>
</a>
</g>
</g>
<!-- Node10&#45;&gt;Node12 -->
<g id="edge11_Node000010_Node000012" class="edge">
<title>Node10&#45;&gt;Node12</title>
<g id="a_edge11_Node000010_Node000012"><a xlink:title=" ">
<path fill="none" stroke="#63b8ff" d="M314.6,-287.5C291.46,-287.5 264.98,-287.5 243.88,-287.5"/>
<polygon fill="#63b8ff" stroke="#63b8ff" points="314.31,-291 324.31,-287.5 314.31,-284 314.31,-291"/>
</a>
</g>
</g>
<!-- Node14 -->
<g id="Node000014" class="node">
<title>Node14</title>
<g id="a_Node000014"><a xlink:href="a01931.html#a8995f71dba475975efc37756783cfce9" target="_top" xlink:title=" ">
<polygon fill="white" stroke="#666666" points="243.5,-259.75 165.25,-259.75 165.25,-241.25 243.5,-241.25 243.5,-259.75"/>
<text text-anchor="middle" x="204.38" y="-246.25" font-family="Helvetica,sans-Serif" font-size="10.00">arax_data_set</text>
</a>
</g>
</g>
<!-- Node10&#45;&gt;Node14 -->
<g id="edge13_Node000010_Node000014" class="edge">
<title>Node10&#45;&gt;Node14</title>
<g id="a_edge13_Node000010_Node000014"><a xlink:title=" ">
<path fill="none" stroke="#63b8ff" d="M315.3,-275.41C291.97,-270.13 265.12,-264.04 243.8,-259.21"/>
<polygon fill="#63b8ff" stroke="#63b8ff" points="314.21,-278.98 324.73,-277.78 315.75,-272.15 314.21,-278.98"/>
</a>
</g>
</g>
<!-- Node15 -->
<g id="Node000015" class="node">
<title>Node15</title>
<g id="a_Node000015"><a xlink:href="a01931.html#af735744d0f8bec04394639a841d2ba0f" target="_top" xlink:title=" ">
<polygon fill="white" stroke="#666666" points="270.5,-370.75 138.25,-370.75 138.25,-352.25 270.5,-352.25 270.5,-370.75"/>
<text text-anchor="middle" x="204.38" y="-357.25" font-family="Helvetica,sans-Serif" font-size="10.00">ARAX_OBJ_DTOR_DECL</text>
</a>
</g>
</g>
<!-- Node10&#45;&gt;Node15 -->
<g id="edge15_Node000010_Node000015" class="edge">
<title>Node10&#45;&gt;Node15</title>
<g id="a_edge15_Node000010_Node000015"><a xlink:title=" ">
<path fill="none" stroke="#63b8ff" d="M316.76,-301.2C313.2,-302.79 309.74,-304.55 306.5,-306.5 287.11,-318.15 289.97,-330.97 270.5,-342.5 264.12,-346.28 256.93,-349.35 249.72,-351.83"/>
<polygon fill="#63b8ff" stroke="#63b8ff" points="317.97,-304.08 325.98,-297.14 315.39,-297.58 317.97,-304.08"/>
</a>
</g>
</g>
<!-- Node16 -->
<g id="Node000016" class="node">
<title>Node16</title>
<g id="a_Node000016"><a xlink:href="a02177.html#ga1418f4cd7336bf77cce7b955a1bf7077" target="_top" xlink:title=" ">
<polygon fill="white" stroke="#666666" points="261.12,-333.75 147.62,-333.75 147.62,-315.25 261.12,-315.25 261.12,-333.75"/>
<text text-anchor="middle" x="204.38" y="-320.25" font-family="Helvetica,sans-Serif" font-size="10.00">arax_task_issue_sync</text>
</a>
</g>
</g>
<!-- Node10&#45;&gt;Node16 -->
<g id="edge16_Node000010_Node000016" class="edge">
<title>Node10&#45;&gt;Node16</title>
<g id="a_edge16_Node000010_Node000016"><a xlink:title=" ">
<path fill="none" stroke="#63b8ff" d="M315.04,-299.64C293.38,-304.55 268.71,-310.15 248.26,-314.78"/>
<polygon fill="#63b8ff" stroke="#63b8ff" points="315.75,-302.85 324.73,-297.22 314.21,-296.02 315.75,-302.85"/>
</a>
</g>
</g>
<!-- Node13 -->
<g id="Node000013" class="node">
<title>Node13</title>
<g id="a_Node000013"><a xlink:href="a01931.html#a7d8356bd5c8b6a8d7dffc6ba94cc22e5" target="_top" xlink:title=" ">
<polygon fill="white" stroke="#666666" points="102.25,-277.75 0,-277.75 0,-259.25 102.25,-259.25 102.25,-277.75"/>
<text text-anchor="middle" x="51.12" y="-264.25" font-family="Helvetica,sans-Serif" font-size="10.00">arax_data_memcpy</text>
</a>
</g>
</g>
<!-- Node12&#45;&gt;Node13 -->
<g id="edge12_Node000012_Node000013" class="edge">
<title>Node12&#45;&gt;Node13</title>
<g id="a_edge12_Node000012_Node000013"><a xlink:title=" ">
<path fill="none" stroke="#63b8ff" d="M154.27,-281.33C137.73,-279.25 119.26,-276.93 102.61,-274.84"/>
<polygon fill="#63b8ff" stroke="#63b8ff" points="153.46,-284.88 163.82,-282.66 154.33,-277.94 153.46,-284.88"/>
</a>
</g>
</g>
<!-- Node14&#45;&gt;Node13 -->
<g id="edge14_Node000014_Node000013" class="edge">
<title>Node14&#45;&gt;Node13</title>
<g id="a_edge14_Node000014_Node000013"><a xlink:title=" ">
<path fill="none" stroke="#63b8ff" d="M154.27,-256.34C137.73,-258.31 119.26,-260.51 102.61,-262.49"/>
<polygon fill="#63b8ff" stroke="#63b8ff" points="154.3,-259.75 163.82,-255.09 153.47,-252.8 154.3,-259.75"/>
</a>
</g>
</g>
<!-- Node17&#45;&gt;Node3 -->
<g id="edge20_Node000017_Node000003" class="edge">
<title>Node17&#45;&gt;Node3</title>
<g id="a_edge20_Node000017_Node000003"><a xlink:title=" ">
<path fill="none" stroke="#63b8ff" d="M497.4,-423.21C479.4,-432.63 455.06,-444.68 432.75,-453.5 424.15,-456.9 414.68,-460.07 405.79,-462.81"/>
<polygon fill="#63b8ff" stroke="#63b8ff" points="498.75,-425.93 505.95,-418.15 495.47,-419.74 498.75,-425.93"/>
</a>
</g>
</g>
<!-- Node18 -->
<g id="Node000018" class="node">
<title>Node18</title>
<g id="a_Node000018"><a xlink:href="a02175.html#gaf8a10ab4e51e59c464ab3ab473e4a0f7" target="_top" xlink:title=" ">
<polygon fill="white" stroke="#666666" points="432.75,-444.75 306.5,-444.75 306.5,-426.25 432.75,-426.25 432.75,-444.75"/>
<text text-anchor="middle" x="369.62" y="-431.25" font-family="Helvetica,sans-Serif" font-size="10.00">arax_accel_acquire_phys</text>
</a>
</g>
</g>
<!-- Node17&#45;&gt;Node18 -->
<g id="edge18_Node000017_Node000018" class="edge">
<title>Node17&#45;&gt;Node18</title>
<g id="a_edge18_Node000017_Node000018"><a xlink:title=" ">
<path fill="none" stroke="#63b8ff" d="M471.58,-417.79C456.84,-420.37 440.79,-423.19 425.92,-425.8"/>
<polygon fill="#63b8ff" stroke="#63b8ff" points="471.8,-421.13 481.05,-415.95 470.59,-414.23 471.8,-421.13"/>
</a>
</g>
</g>
<!-- Node19 -->
<g id="Node000019" class="node">
<title>Node19</title>
<g id="a_Node000019"><a xlink:href="a02175.html#ga008252bb9afc2990fa2c5f4b980c9f27" target="_top" xlink:title=" ">
<polygon fill="white" stroke="#666666" points="432,-407.75 307.25,-407.75 307.25,-389.25 432,-389.25 432,-407.75"/>
<text text-anchor="middle" x="369.62" y="-394.25" font-family="Helvetica,sans-Serif" font-size="10.00">arax_accel_acquire_type</text>
</a>
</g>
</g>
<!-- Node17&#45;&gt;Node19 -->
<g id="edge19_Node000017_Node000019" class="edge">
<title>Node17&#45;&gt;Node19</title>
<g id="a_edge19_Node000017_Node000019"><a xlink:title=" ">
<path fill="none" stroke="#63b8ff" d="M471.27,-405.04C458.68,-404.22 445.16,-403.34 432.24,-402.5"/>
<polygon fill="#63b8ff" stroke="#63b8ff" points="470.84,-408.59 481.05,-405.74 471.29,-401.6 470.84,-408.59"/>
</a>
</g>
</g>
<!-- Node24 -->
<g id="Node000024" class="node">
<title>Node24</title>
<g id="a_Node000024"><a xlink:href="a02352.html#a1bfeaeb9b81855e640d7a67cc9d92b17" target="_top" xlink:title=" ">
<polygon fill="white" stroke="#666666" points="1171.25,-215.75 1063,-215.75 1063,-197.25 1171.25,-197.25 1171.25,-215.75"/>
<text text-anchor="middle" x="1117.12" y="-202.25" font-family="Helvetica,sans-Serif" font-size="10.00">async_condition_wait</text>
</a>
</g>
</g>
<!-- Node23&#45;&gt;Node24 -->
<g id="edge25_Node000023_Node000024" class="edge">
<title>Node23&#45;&gt;Node24</title>
<g id="a_edge25_Node000023_Node000024"><a xlink:title=" ">
<path fill="none" stroke="#63b8ff" d="M1216.27,-180.95C1196.54,-186.09 1174.02,-191.95 1155.53,-196.76"/>
<polygon fill="#63b8ff" stroke="#63b8ff" points="1217.11,-184.09 1225.91,-178.19 1215.35,-177.32 1217.11,-184.09"/>
</a>
</g>
</g>
<!-- Node25 -->
<g id="Node000025" class="node">
<title>Node25</title>
<g id="a_Node000025"><a xlink:href="a01898.html#a02fd608f651d254148dc74f0ae371dfe" target="_top" xlink:title=" ">
<polygon fill="white" stroke="#666666" points="992.88,-178.75 934.12,-178.75 934.12,-160.25 992.88,-160.25 992.88,-178.75"/>
<text text-anchor="middle" x="963.5" y="-165.25" font-family="Helvetica,sans-Serif" font-size="10.00">_arax_init</text>
</a>
</g>
</g>
<!-- Node24&#45;&gt;Node25 -->
<g id="edge26_Node000024_Node000025" class="edge">
<title>Node24&#45;&gt;Node25</title>
<g id="a_edge26_Node000024_Node000025"><a xlink:title=" ">
<path fill="none" stroke="#63b8ff" d="M1065.84,-194.23C1041.65,-188.33 1013.53,-181.46 993.06,-176.47"/>
<polygon fill="#63b8ff" stroke="#63b8ff" points="1064.74,-197.81 1075.29,-196.78 1066.4,-191.01 1064.74,-197.81"/>
</a>
</g>
</g>
<!-- Node32 -->
<g id="Node000032" class="node">
<title>Node32</title>
<g id="a_Node000032"><a xlink:href="a01904.html#a415e79d6e82e45f24bcd1742c146a0da" target="_top" xlink:title=" ">
<polygon fill="white" stroke="#666666" points="1027,-299.75 900,-299.75 900,-281.25 1027,-281.25 1027,-299.75"/>
<text text-anchor="middle" x="963.5" y="-286.25" font-family="Helvetica,sans-Serif" font-size="10.00">arax_accel_wait_for_task</text>
</a>
</g>
</g>
<!-- Node24&#45;&gt;Node32 -->
<g id="edge36_Node000024_Node000032" class="edge">
<title>Node24&#45;&gt;Node32</title>
<g id="a_edge36_Node000024_Node000032"><a xlink:title=" ">
<path fill="none" stroke="#63b8ff" d="M1097.66,-223.29C1080.48,-238.11 1053.61,-259.35 1027,-272.5 1020.42,-275.75 1013.15,-278.51 1005.97,-280.82"/>
<polygon fill="#63b8ff" stroke="#63b8ff" points="1099.51,-226.44 1104.7,-217.2 1094.89,-221.19 1099.51,-226.44"/>
</a>
</g>
</g>
<!-- Node33 -->
<g id="Node000033" class="node">
<title>Node33</title>
<g id="a_Node000033"><a xlink:href="a01913.html#a8ff14a859f9b7a34676c2fcdb762386b" target="_top" xlink:title=" ">
<polygon fill="white" stroke="#666666" points="1019.88,-263 907.12,-263 907.12,-234 1019.88,-234 1019.88,-263"/>
<text text-anchor="start" x="915.12" y="-249.5" font-family="Helvetica,sans-Serif" font-size="10.00">arax_pipe_get_orphan</text>
<text text-anchor="middle" x="963.5" y="-239" font-family="Helvetica,sans-Serif" font-size="10.00">_vaccel</text>
</a>
</g>
</g>
<!-- Node24&#45;&gt;Node33 -->
<g id="edge37_Node000024_Node000033" class="edge">
<title>Node24&#45;&gt;Node33</title>
<g id="a_edge37_Node000024_Node000033"><a xlink:title=" ">
<path fill="none" stroke="#63b8ff" d="M1070.55,-219.12C1054.17,-223.66 1035.53,-228.83 1018.49,-233.54"/>
<polygon fill="#63b8ff" stroke="#63b8ff" points="1071.26,-222.28 1079.96,-216.24 1069.39,-215.54 1071.26,-222.28"/>
</a>
</g>
</g>
<!-- Node34 -->
<g id="Node000034" class="node">
<title>Node34</title>
<g id="a_Node000034"><a xlink:href="a01925.html#a8413a3584787f9b629e54b2ef9439f06" target="_top" xlink:title=" ">
<polygon fill="white" stroke="#666666" points="1020.62,-215.75 906.38,-215.75 906.38,-197.25 1020.62,-197.25 1020.62,-215.75"/>
<text text-anchor="middle" x="963.5" y="-202.25" font-family="Helvetica,sans-Serif" font-size="10.00">arax_throttle_size_dec</text>
</a>
</g>
</g>
<!-- Node24&#45;&gt;Node34 -->
<g id="edge38_Node000024_Node000034" class="edge">
<title>Node24&#45;&gt;Node34</title>
<g id="a_edge38_Node000024_Node000034"><a xlink:title=" ">
<path fill="none" stroke="#63b8ff" d="M1051.75,-206.5C1041.55,-206.5 1031.07,-206.5 1021.07,-206.5"/>
<polygon fill="#63b8ff" stroke="#63b8ff" points="1051.67,-210 1061.67,-206.5 1051.67,-203 1051.67,-210"/>
</a>
</g>
</g>
<!-- Node26 -->
<g id="Node000026" class="node">
<title>Node26</title>
<g id="a_Node000026"><a xlink:href="a01898.html#aa6e4832b06bd5757be4502d2de7b3026" target="_top" xlink:title=" ">
<polygon fill="white" stroke="#666666" points="862.12,-196 763.62,-196 763.62,-167 862.12,-167 862.12,-196"/>
<text text-anchor="start" x="771.62" y="-182.5" font-family="Helvetica,sans-Serif" font-size="10.00">arax_controller_init</text>
<text text-anchor="middle" x="812.88" y="-172" font-family="Helvetica,sans-Serif" font-size="10.00">_start</text>
</a>
</g>
</g>
<!-- Node25&#45;&gt;Node26 -->
<g id="edge27_Node000025_Node000026" class="edge">
<title>Node25&#45;&gt;Node26</title>
<g id="a_edge27_Node000025_Node000026"><a xlink:title=" ">
<path fill="none" stroke="#63b8ff" d="M923.07,-172.68C904.43,-174.19 882,-176 862.33,-177.59"/>
<polygon fill="#63b8ff" stroke="#63b8ff" points="923.16,-176.11 932.84,-171.81 922.59,-169.13 923.16,-176.11"/>
</a>
</g>
</g>
<!-- Node27 -->
<g id="Node000027" class="node">
<title>Node27</title>
<g id="a_Node000027"><a xlink:href="a02174.html#gae1d371a2840849690acce147e7a205da" target="_top" xlink:title=" ">
<polygon fill="white" stroke="#666666" points="839.62,-148.75 786.12,-148.75 786.12,-130.25 839.62,-130.25 839.62,-148.75"/>
<text text-anchor="middle" x="812.88" y="-135.25" font-family="Helvetica,sans-Serif" font-size="10.00">arax_init</text>
</a>
</g>
</g>
<!-- Node25&#45;&gt;Node27 -->
<g id="edge28_Node000025_Node000027" class="edge">
<title>Node25&#45;&gt;Node27</title>
<g id="a_edge28_Node000025_Node000027"><a xlink:title=" ">
<path fill="none" stroke="#63b8ff" d="M923.09,-161.54C896.79,-156.24 862.95,-149.41 839.95,-144.76"/>
<polygon fill="#63b8ff" stroke="#63b8ff" points="922.35,-165.17 932.84,-163.72 923.73,-158.31 922.35,-165.17"/>
</a>
</g>
</g>
<!-- Node27&#45;&gt;Node21 -->
<g id="edge29_Node000027_Node000021" class="edge">
<title>Node27&#45;&gt;Node21</title>
<g id="a_edge29_Node000027_Node000021"><a xlink:title=" ">
<path fill="none" stroke="#63b8ff" d="M775.05,-133.63C736.07,-127.37 672.77,-117.06 618.25,-107.5 603.41,-104.9 587.24,-101.94 572.67,-99.24"/>
<polygon fill="#63b8ff" stroke="#63b8ff" points="774.43,-137.24 784.85,-135.36 775.53,-130.33 774.43,-137.24"/>
</a>
</g>
</g>
<!-- Node28 -->
<g id="Node000028" class="node">
<title>Node28</title>
<g id="a_Node000028"><a xlink:href="a01919.html#a80ab3bf4a8af9bb101b5a53248609771" target="_top" xlink:title=" ">
<polygon fill="white" stroke="#666666" points="710.38,-177.75 633.62,-177.75 633.62,-159.25 710.38,-159.25 710.38,-177.75"/>
<text text-anchor="middle" x="672" y="-164.25" font-family="Helvetica,sans-Serif" font-size="10.00">arax_ptr_valid</text>
</a>
</g>
</g>
<!-- Node27&#45;&gt;Node28 -->
<g id="edge30_Node000027_Node000028" class="edge">
<title>Node27&#45;&gt;Node28</title>
<g id="a_edge30_Node000027_Node000028"><a xlink:title=" ">
<path fill="none" stroke="#63b8ff" d="M775.25,-147.15C755.38,-151.3 730.85,-156.42 710.8,-160.61"/>
<polygon fill="#63b8ff" stroke="#63b8ff" points="775.68,-150.42 784.75,-144.95 774.25,-143.57 775.68,-150.42"/>
</a>
</g>
</g>
<!-- Node28&#45;&gt;Node21 -->
<g id="edge35_Node000028_Node000021" class="edge">
<title>Node28&#45;&gt;Node21</title>
<g id="a_edge35_Node000028_Node000021"><a xlink:title=" ">
<path fill="none" stroke="#63b8ff" d="M635.88,-154.45C629.89,-151.7 623.81,-148.67 618.25,-145.5 601.11,-135.72 599.05,-129.86 582.25,-119.5 574.26,-114.58 565.35,-109.69 557.04,-105.37"/>
<polygon fill="#63b8ff" stroke="#63b8ff" points="634.21,-157.98 644.78,-158.8 637.03,-151.57 634.21,-157.98"/>
</a>
</g>
</g>
<!-- Node29 -->
<g id="Node000029" class="node">
<title>Node29</title>
<g id="a_Node000029"><a xlink:href="a01937.html#a4ee1fea325d2edd421f59ab240dfbe54" target="_top" xlink:title=" ">
<polygon fill="white" stroke="#666666" points="571.38,-179.75 479.62,-179.75 479.62,-161.25 571.38,-161.25 571.38,-179.75"/>
<text text-anchor="middle" x="525.5" y="-166.25" font-family="Helvetica,sans-Serif" font-size="10.00">_arax_assert_obj</text>
</a>
</g>
</g>
<!-- Node28&#45;&gt;Node29 -->
<g id="edge31_Node000028_Node000029" class="edge">
<title>Node28&#45;&gt;Node29</title>
<g id="a_edge31_Node000028_Node000029"><a xlink:title=" ">
<path fill="none" stroke="#63b8ff" d="M622.86,-169.17C606.33,-169.4 587.9,-169.65 571.62,-169.88"/>
<polygon fill="#63b8ff" stroke="#63b8ff" points="622.46,-172.66 632.41,-169.02 622.36,-165.66 622.46,-172.66"/>
</a>
</g>
</g>
<!-- Node30 -->
<g id="Node000030" class="node">
<title>Node30</title>
<g id="a_Node000030"><a xlink:href="a01931.html#afeaab7d93372f0752d59c70d9c5940e7" target="_top" xlink:title=" ">
<polygon fill="white" stroke="#666666" points="563.5,-216.75 487.5,-216.75 487.5,-198.25 563.5,-198.25 563.5,-216.75"/>
<text text-anchor="middle" x="525.5" y="-203.25" font-family="Helvetica,sans-Serif" font-size="10.00">arax_data_ref</text>
</a>
</g>
</g>
<!-- Node28&#45;&gt;Node30 -->
<g id="edge32_Node000028_Node000030" class="edge">
<title>Node28&#45;&gt;Node30</title>
<g id="a_edge32_Node000028_Node000030"><a xlink:title=" ">
<path fill="none" stroke="#63b8ff" d="M624.36,-181.09C604.17,-186.54 580.91,-192.82 562.13,-197.88"/>
<polygon fill="#63b8ff" stroke="#63b8ff" points="625.17,-184.23 633.91,-178.24 623.34,-177.47 625.17,-184.23"/>
</a>
</g>
</g>
<!-- Node31 -->
<g id="Node000031" class="node">
<title>Node31</title>
<g id="a_Node000031"><a xlink:href="a01931.html#ac1f7fb20b3a23b388bea24f1b46a33a8" target="_top" xlink:title=" ">
<polygon fill="white" stroke="#666666" points="422.25,-179.75 317,-179.75 317,-161.25 422.25,-161.25 422.25,-179.75"/>
<text text-anchor="middle" x="369.62" y="-166.25" font-family="Helvetica,sans-Serif" font-size="10.00">arax_data_ref_offset</text>
</a>
</g>
</g>
<!-- Node28&#45;&gt;Node31 -->
<g id="edge34_Node000028_Node000031" class="edge">
<title>Node28&#45;&gt;Node31</title>
<g id="a_edge34_Node000028_Node000031"><a xlink:title=" ">
<path fill="none" stroke="#63b8ff" d="M622.56,-158.15C609.53,-155.82 595.41,-153.68 582.25,-152.5 532.01,-148.01 518.99,-147.93 468.75,-152.5 450.64,-154.15 430.88,-157.47 413.87,-160.82"/>
<polygon fill="#63b8ff" stroke="#63b8ff" points="621.72,-161.75 632.2,-160.15 623.01,-154.87 621.72,-161.75"/>
</a>
</g>
</g>
<!-- Node30&#45;&gt;Node31 -->
<g id="edge33_Node000030_Node000031" class="edge">
<title>Node30&#45;&gt;Node31</title>
<g id="a_edge33_Node000030_Node000031"><a xlink:title=" ">
<path fill="none" stroke="#63b8ff" d="M476.6,-195.98C455.57,-190.92 431.14,-185.05 411.04,-180.22"/>
<polygon fill="#63b8ff" stroke="#63b8ff" points="475.71,-199.61 486.25,-198.54 477.35,-192.8 475.71,-199.61"/>
</a>
</g>
</g>
<!-- Node35 -->
<g id="Node000035" class="node">
<title>Node35</title>
<g id="a_Node000035"><a xlink:href="a01904.html#a503b6bc6d5be49fd8715f62c7174c28e" target="_top" xlink:title=" ">
<polygon fill="white" stroke="#666666" points="725.75,-247.75 618.25,-247.75 618.25,-229.25 725.75,-229.25 725.75,-247.75"/>
<text text-anchor="middle" x="672" y="-234.25" font-family="Helvetica,sans-Serif" font-size="10.00">arax_accel_size_dec</text>
</a>
</g>
</g>
<!-- Node34&#45;&gt;Node35 -->
<g id="edge39_Node000034_Node000035" class="edge">
<title>Node34&#45;&gt;Node35</title>
<g id="a_edge39_Node000034_Node000035"><a xlink:title=" ">
<path fill="none" stroke="#63b8ff" d="M895.29,-213.93C843.73,-219.63 773.56,-227.38 725.95,-232.65"/>
<polygon fill="#63b8ff" stroke="#63b8ff" points="895.44,-217.32 904.99,-212.75 894.67,-210.37 895.44,-217.32"/>
</a>
</g>
</g>
<!-- Node36 -->
<g id="Node000036" class="node">
<title>Node36</title>
<g id="a_Node000036"><a xlink:href="a01913.html#a1cfa2c90268c6e53ce376beb7cce153c" target="_top" xlink:title=" ">
<polygon fill="white" stroke="#666666" points="864,-292.75 761.75,-292.75 761.75,-274.25 864,-274.25 864,-292.75"/>
<text text-anchor="middle" x="812.88" y="-279.25" font-family="Helvetica,sans-Serif" font-size="10.00">arax_pipe_size_dec</text>
</a>
</g>
</g>
<!-- Node34&#45;&gt;Node36 -->
<g id="edge41_Node000034_Node000036" class="edge">
<title>Node34&#45;&gt;Node36</title>
<g id="a_edge41_Node000034_Node000036"><a xlink:title=" ">
<path fill="none" stroke="#63b8ff" d="M913.77,-219.75C909.04,-221.5 904.38,-223.42 900,-225.5 885.1,-232.58 847.49,-259.18 827.26,-273.77"/>
<polygon fill="#63b8ff" stroke="#63b8ff" points="914.82,-222.75 923.14,-216.19 912.55,-216.13 914.82,-222.75"/>
</a>
</g>
</g>
<!-- Node35&#45;&gt;Node11 -->
<g id="edge40_Node000035_Node000011" class="edge">
<title>Node35&#45;&gt;Node11</title>
<g id="a_edge40_Node000035_Node000011"><a xlink:title=" ">
<path fill="none" stroke="#63b8ff" d="M606.9,-234.38C567.12,-231.83 514.97,-228.48 468.75,-225.5 393.76,-220.67 306.76,-215.05 253.92,-211.64"/>
<polygon fill="#63b8ff" stroke="#63b8ff" points="606.57,-237.93 616.77,-235.08 607.02,-230.95 606.57,-237.93"/>
</a>
</g>
</g>
<!-- Node36&#45;&gt;Node2 -->
<g id="edge42_Node000036_Node000002" class="edge">
<title>Node36&#45;&gt;Node2</title>
<g id="a_edge42_Node000036_Node000002"><a xlink:title=" ">
<path fill="none" stroke="#63b8ff" d="M771.17,-296.4C749.5,-303.26 723.29,-311.57 703.41,-317.87"/>
<polygon fill="#63b8ff" stroke="#63b8ff" points="771.92,-299.51 780.4,-293.16 769.81,-292.84 771.92,-299.51"/>
</a>
</g>
</g>
</g>
</svg>
