<?xml version="1.0" encoding="UTF-8" standalone="no"?>
<!DOCTYPE svg PUBLIC "-//W3C//DTD SVG 1.1//EN"
 "http://www.w3.org/Graphics/SVG/1.1/DTD/svg11.dtd">
<!-- Generated by graphviz version 12.2.1 (0)
 -->
<!-- Title: utils_list_init Pages: 1 -->
<svg width="1252pt" height="223pt"
 viewBox="0.00 0.00 1251.75 223.20" xmlns="http://www.w3.org/2000/svg" xmlns:xlink="http://www.w3.org/1999/xlink">
<g id="graph0" class="graph" transform="scale(1 1) rotate(0) translate(4 219.2)">
<title>utils_list_init</title>
<!-- Node1 -->
<g id="Node000001" class="node">
<title>Node1</title>
<g id="a_Node000001"><a xlink:title=" ">
<polygon fill="#999999" stroke="#666666" points="1243.75,-137.6 1173.75,-137.6 1173.75,-119.1 1243.75,-119.1 1243.75,-137.6"/>
<text text-anchor="middle" x="1208.75" y="-124.1" font-family="Helvetica,sans-Serif" font-size="10.00">utils_list_init</text>
</a>
</g>
</g>
<!-- Node2 -->
<g id="Node000002" class="node">
<title>Node2</title>
<g id="a_Node000002"><a xlink:href="a01916.html#a0706a66a62ca8710342ac1c097b703ed" target="_top" xlink:title=" ">
<polygon fill="white" stroke="#666666" points="695.25,-27.6 613.25,-27.6 613.25,-9.1 695.25,-9.1 695.25,-27.6"/>
<text text-anchor="middle" x="654.25" y="-14.1" font-family="Helvetica,sans-Serif" font-size="10.00">arax_accel_init</text>
</a>
</g>
</g>
<!-- Node1&#45;&gt;Node2 -->
<g id="edge1_Node000001_Node000002" class="edge">
<title>Node1&#45;&gt;Node2</title>
<g id="a_edge1_Node000001_Node000002"><a xlink:title=" ">
<path fill="none" stroke="#63b8ff" d="M1195.53,-109.65C1183.17,-92.44 1162.4,-67.75 1137.75,-55.35 989.13,19.36 781.77,0.64 695.44,-11.68"/>
<polygon fill="#63b8ff" stroke="#63b8ff" points="1192.39,-111.27 1200.94,-117.53 1198.16,-107.3 1192.39,-111.27"/>
</a>
</g>
</g>
<!-- Node3 -->
<g id="Node000003" class="node">
<title>Node3</title>
<g id="a_Node000003"><a xlink:href="a01925.html#a86352ba91ba482c6688b7364d10bf956" target="_top" xlink:title=" ">
<polygon fill="white" stroke="#666666" points="989,-138.6 880,-138.6 880,-120.1 989,-120.1 989,-138.6"/>
<text text-anchor="middle" x="934.5" y="-125.1" font-family="Helvetica,sans-Serif" font-size="10.00">arax_object_repo_init</text>
</a>
</g>
</g>
<!-- Node1&#45;&gt;Node3 -->
<g id="edge2_Node000001_Node000003" class="edge">
<title>Node1&#45;&gt;Node3</title>
<g id="a_edge2_Node000001_Node000003"><a xlink:title=" ">
<path fill="none" stroke="#63b8ff" d="M1161.77,-128.52C1114.13,-128.7 1039.74,-128.97 989.38,-129.15"/>
<polygon fill="#63b8ff" stroke="#63b8ff" points="1161.77,-132.02 1171.76,-128.49 1161.74,-125.02 1161.77,-132.02"/>
</a>
</g>
</g>
<!-- Node4 -->
<g id="Node000004" class="node">
<title>Node4</title>
<g id="a_Node000004"><a xlink:href="a01928.html#aa6293e9ec7776aa49ecf632fcc4f5e26" target="_top" xlink:title=" ">
<polygon fill="white" stroke="#666666" points="692.62,-139.6 615.88,-139.6 615.88,-121.1 692.62,-121.1 692.62,-139.6"/>
<text text-anchor="middle" x="654.25" y="-126.1" font-family="Helvetica,sans-Serif" font-size="10.00">arax_pipe_init</text>
</a>
</g>
</g>
<!-- Node1&#45;&gt;Node4 -->
<g id="edge14_Node000001_Node000004" class="edge">
<title>Node1&#45;&gt;Node4</title>
<g id="a_edge14_Node000001_Node000004"><a xlink:title=" ">
<path fill="none" stroke="#63b8ff" d="M1182.31,-143.55C1169.41,-150.51 1153.23,-158.13 1137.75,-162.35 963.17,-209.98 903.4,-241.11 731.25,-185.35 703.67,-176.42 677.7,-153.32 664.44,-140.07"/>
<polygon fill="#63b8ff" stroke="#63b8ff" points="1183.96,-146.64 1190.97,-138.69 1180.53,-140.53 1183.96,-146.64"/>
</a>
</g>
</g>
<!-- Node13 -->
<g id="Node000013" class="node">
<title>Node13</title>
<g id="a_Node000013"><a xlink:href="a02364.html#ab2e422aab2fcfa562795beb2843e8019" target="_top" xlink:title=" ">
<polygon fill="white" stroke="#666666" points="844,-176.6 731.25,-176.6 731.25,-158.1 844,-158.1 844,-176.6"/>
<text text-anchor="middle" x="787.62" y="-163.1" font-family="Helvetica,sans-Serif" font-size="10.00">async_meta_init_once</text>
</a>
</g>
</g>
<!-- Node1&#45;&gt;Node13 -->
<g id="edge15_Node000001_Node000013" class="edge">
<title>Node1&#45;&gt;Node13</title>
<g id="a_edge15_Node000001_Node000013"><a xlink:title=" ">
<path fill="none" stroke="#63b8ff" d="M1162.17,-138.33C1154.06,-139.86 1145.68,-141.28 1137.75,-142.35 1034.78,-156.28 913.6,-162.76 844.48,-165.52"/>
<polygon fill="#63b8ff" stroke="#63b8ff" points="1162.74,-141.79 1171.87,-136.42 1161.39,-134.92 1162.74,-141.79"/>
</a>
</g>
</g>
<!-- Node14 -->
<g id="Node000014" class="node">
<title>Node14</title>
<g id="a_Node000014"><a xlink:href="a02364.html#a2a7d01fc7720e936a430efc09d094c6c" target="_top" xlink:title=" ">
<polygon fill="white" stroke="#666666" points="1137.75,-82.6 1025,-82.6 1025,-64.1 1137.75,-64.1 1137.75,-82.6"/>
<text text-anchor="middle" x="1081.38" y="-69.1" font-family="Helvetica,sans-Serif" font-size="10.00">async_semaphore_init</text>
</a>
</g>
</g>
<!-- Node1&#45;&gt;Node14 -->
<g id="edge17_Node000001_Node000014" class="edge">
<title>Node1&#45;&gt;Node14</title>
<g id="a_edge17_Node000001_Node000014"><a xlink:title=" ">
<path fill="none" stroke="#63b8ff" d="M1175.27,-114.11C1152.95,-104.31 1123.9,-91.57 1104.28,-82.96"/>
<polygon fill="#63b8ff" stroke="#63b8ff" points="1173.67,-117.23 1184.24,-118.04 1176.49,-110.82 1173.67,-117.23"/>
</a>
</g>
</g>
<!-- Node3&#45;&gt;Node4 -->
<g id="edge3_Node000003_Node000004" class="edge">
<title>Node3&#45;&gt;Node4</title>
<g id="a_edge3_Node000003_Node000004"><a xlink:title=" ">
<path fill="none" stroke="#63b8ff" d="M868.23,-129.59C813.74,-129.78 737.97,-130.06 693.03,-130.22"/>
<polygon fill="#63b8ff" stroke="#63b8ff" points="868.02,-133.09 878.01,-129.55 867.99,-126.09 868.02,-133.09"/>
</a>
</g>
</g>
<!-- Node5 -->
<g id="Node000005" class="node">
<title>Node5</title>
<g id="a_Node000005"><a xlink:href="a01910.html#a02fd608f651d254148dc74f0ae371dfe" target="_top" xlink:title=" ">
<polygon fill="white" stroke="#666666" points="577.25,-139.6 518.5,-139.6 518.5,-121.1 577.25,-121.1 577.25,-139.6"/>
<text text-anchor="middle" x="547.88" y="-126.1" font-family="Helvetica,sans-Serif" font-size="10.00">_arax_init</text>
</a>
</g>
</g>
<!-- Node4&#45;&gt;Node5 -->
<g id="edge4_Node000004_Node000005" class="edge">
<title>Node4&#45;&gt;Node5</title>
<g id="a_edge4_Node000004_Node000005"><a xlink:title=" ">
<path fill="none" stroke="#63b8ff" d="M604.2,-130.35C595.11,-130.35 585.89,-130.35 577.65,-130.35"/>
<polygon fill="#63b8ff" stroke="#63b8ff" points="604.05,-133.85 614.05,-130.35 604.05,-126.85 604.05,-133.85"/>
</a>
</g>
</g>
<!-- Node6 -->
<g id="Node000006" class="node">
<title>Node6</title>
<g id="a_Node000006"><a xlink:href="a01910.html#aa6e4832b06bd5757be4502d2de7b3026" target="_top" xlink:title=" ">
<polygon fill="white" stroke="#666666" points="482.5,-165.85 384,-165.85 384,-136.85 482.5,-136.85 482.5,-165.85"/>
<text text-anchor="start" x="392" y="-152.35" font-family="Helvetica,sans-Serif" font-size="10.00">arax_controller_init</text>
<text text-anchor="middle" x="433.25" y="-141.85" font-family="Helvetica,sans-Serif" font-size="10.00">_start</text>
</a>
</g>
</g>
<!-- Node5&#45;&gt;Node6 -->
<g id="edge5_Node000005_Node000006" class="edge">
<title>Node5&#45;&gt;Node6</title>
<g id="a_edge5_Node000005_Node000006"><a xlink:title=" ">
<path fill="none" stroke="#63b8ff" d="M507.01,-137.79C499.11,-139.26 490.74,-140.82 482.6,-142.34"/>
<polygon fill="#63b8ff" stroke="#63b8ff" points="507.49,-141.26 516.68,-135.98 506.2,-134.38 507.49,-141.26"/>
</a>
</g>
</g>
<!-- Node7 -->
<g id="Node000007" class="node">
<title>Node7</title>
<g id="a_Node000007"><a xlink:href="a02186.html#gae1d371a2840849690acce147e7a205da" target="_top" xlink:title=" ">
<polygon fill="white" stroke="#666666" points="460,-118.6 406.5,-118.6 406.5,-100.1 460,-100.1 460,-118.6"/>
<text text-anchor="middle" x="433.25" y="-105.1" font-family="Helvetica,sans-Serif" font-size="10.00">arax_init</text>
</a>
</g>
</g>
<!-- Node5&#45;&gt;Node7 -->
<g id="edge6_Node000005_Node000007" class="edge">
<title>Node5&#45;&gt;Node7</title>
<g id="a_edge6_Node000005_Node000007"><a xlink:title=" ">
<path fill="none" stroke="#63b8ff" d="M507.21,-122.96C491.62,-120.05 474.15,-116.79 460.21,-114.19"/>
<polygon fill="#63b8ff" stroke="#63b8ff" points="506.2,-126.33 516.68,-124.72 507.49,-119.45 506.2,-126.33"/>
</a>
</g>
</g>
<!-- Node8 -->
<g id="Node000008" class="node">
<title>Node8</title>
<g id="a_Node000008"><a xlink:href="a01946.html#a8a99bcb12e2ee55d68a029bfca9b6d51" target="_top" xlink:title=" ">
<polygon fill="white" stroke="#666666" points="235.25,-148.85 141.25,-148.85 141.25,-119.85 235.25,-119.85 235.25,-148.85"/>
<text text-anchor="start" x="149.25" y="-135.35" font-family="Helvetica,sans-Serif" font-size="10.00">arax_plot_register</text>
<text text-anchor="middle" x="188.25" y="-124.85" font-family="Helvetica,sans-Serif" font-size="10.00">_metric</text>
</a>
</g>
</g>
<!-- Node7&#45;&gt;Node8 -->
<g id="edge7_Node000007_Node000008" class="edge">
<title>Node7&#45;&gt;Node8</title>
<g id="a_edge7_Node000007_Node000008"><a xlink:title=" ">
<path fill="none" stroke="#63b8ff" d="M394.92,-113.19C352.02,-117.61 281.6,-124.85 235.32,-129.61"/>
<polygon fill="#63b8ff" stroke="#63b8ff" points="395.15,-116.69 404.74,-112.18 394.43,-109.73 395.15,-116.69"/>
</a>
</g>
</g>
<!-- Node9 -->
<g id="Node000009" class="node">
<title>Node9</title>
<g id="a_Node000009"><a xlink:href="a01934.html#a80ab3bf4a8af9bb101b5a53248609771" target="_top" xlink:title=" ">
<polygon fill="white" stroke="#666666" points="348,-100.6 271.25,-100.6 271.25,-82.1 348,-82.1 348,-100.6"/>
<text text-anchor="middle" x="309.62" y="-87.1" font-family="Helvetica,sans-Serif" font-size="10.00">arax_ptr_valid</text>
</a>
</g>
</g>
<!-- Node7&#45;&gt;Node9 -->
<g id="edge8_Node000007_Node000009" class="edge">
<title>Node7&#45;&gt;Node9</title>
<g id="a_edge8_Node000007_Node000009"><a xlink:title=" ">
<path fill="none" stroke="#63b8ff" d="M394.83,-103.82C380.03,-101.62 363.04,-99.11 348.21,-96.92"/>
<polygon fill="#63b8ff" stroke="#63b8ff" points="394.26,-107.27 404.66,-105.27 395.28,-100.34 394.26,-107.27"/>
</a>
</g>
</g>
<!-- Node9&#45;&gt;Node8 -->
<g id="edge13_Node000009_Node000008" class="edge">
<title>Node9&#45;&gt;Node8</title>
<g id="a_edge13_Node000009_Node000008"><a xlink:title=" ">
<path fill="none" stroke="#63b8ff" d="M271.39,-104.77C258.41,-109.44 243.77,-114.71 230.49,-119.5"/>
<polygon fill="#63b8ff" stroke="#63b8ff" points="272.19,-108.2 280.41,-101.52 269.82,-101.61 272.19,-108.2"/>
</a>
</g>
</g>
<!-- Node10 -->
<g id="Node000010" class="node">
<title>Node10</title>
<g id="a_Node000010"><a xlink:href="a01967.html#a4ee1fea325d2edd421f59ab240dfbe54" target="_top" xlink:title=" ">
<polygon fill="white" stroke="#666666" points="234.12,-63.6 142.38,-63.6 142.38,-45.1 234.12,-45.1 234.12,-63.6"/>
<text text-anchor="middle" x="188.25" y="-50.1" font-family="Helvetica,sans-Serif" font-size="10.00">_arax_assert_obj</text>
</a>
</g>
</g>
<!-- Node9&#45;&gt;Node10 -->
<g id="edge9_Node000009_Node000010" class="edge">
<title>Node9&#45;&gt;Node10</title>
<g id="a_edge9_Node000009_Node000010"><a xlink:title=" ">
<path fill="none" stroke="#63b8ff" d="M266.56,-78.31C251.36,-73.6 234.5,-68.38 220.4,-64.01"/>
<polygon fill="#63b8ff" stroke="#63b8ff" points="265.23,-81.57 275.81,-81.18 267.3,-74.88 265.23,-81.57"/>
</a>
</g>
</g>
<!-- Node11 -->
<g id="Node000011" class="node">
<title>Node11</title>
<g id="a_Node000011"><a xlink:href="a01922.html#afeaab7d93372f0752d59c70d9c5940e7" target="_top" xlink:title=" ">
<polygon fill="white" stroke="#666666" points="226.25,-26.6 150.25,-26.6 150.25,-8.1 226.25,-8.1 226.25,-26.6"/>
<text text-anchor="middle" x="188.25" y="-13.1" font-family="Helvetica,sans-Serif" font-size="10.00">arax_data_ref</text>
</a>
</g>
</g>
<!-- Node9&#45;&gt;Node11 -->
<g id="edge10_Node000009_Node000011" class="edge">
<title>Node9&#45;&gt;Node11</title>
<g id="a_edge10_Node000009_Node000011"><a xlink:title=" ">
<path fill="none" stroke="#63b8ff" d="M289.35,-74.77C275.06,-63.03 254.77,-47.46 235.25,-36.35 229.24,-32.93 222.5,-29.8 216.06,-27.1"/>
<polygon fill="#63b8ff" stroke="#63b8ff" points="286.72,-77.14 296.64,-80.88 291.22,-71.77 286.72,-77.14"/>
</a>
</g>
</g>
<!-- Node12 -->
<g id="Node000012" class="node">
<title>Node12</title>
<g id="a_Node000012"><a xlink:href="a01922.html#ac1f7fb20b3a23b388bea24f1b46a33a8" target="_top" xlink:title=" ">
<polygon fill="white" stroke="#666666" points="105.25,-63.6 0,-63.6 0,-45.1 105.25,-45.1 105.25,-63.6"/>
<text text-anchor="middle" x="52.62" y="-50.1" font-family="Helvetica,sans-Serif" font-size="10.00">arax_data_ref_offset</text>
</a>
</g>
</g>
<!-- Node9&#45;&gt;Node12 -->
<g id="edge12_Node000009_Node000012" class="edge">
<title>Node9&#45;&gt;Node12</title>
<g id="a_edge12_Node000009_Node000012"><a xlink:title=" ">
<path fill="none" stroke="#63b8ff" d="M259.63,-86.96C226.17,-83.67 180.91,-78.66 141.25,-72.35 126.83,-70.06 111.19,-67.02 97.16,-64.1"/>
<polygon fill="#63b8ff" stroke="#63b8ff" points="259.14,-90.43 269.43,-87.9 259.81,-83.46 259.14,-90.43"/>
</a>
</g>
</g>
<!-- Node11&#45;&gt;Node12 -->
<g id="edge11_Node000011_Node000012" class="edge">
<title>Node11&#45;&gt;Node12</title>
<g id="a_edge11_Node000011_Node000012"><a xlink:title=" ">
<path fill="none" stroke="#63b8ff" d="M141.15,-30.12C123.89,-34.9 104.58,-40.24 88.5,-44.7"/>
<polygon fill="#63b8ff" stroke="#63b8ff" points="141.98,-33.52 150.68,-27.48 140.11,-26.77 141.98,-33.52"/>
</a>
</g>
</g>
<!-- Node13&#45;&gt;Node4 -->
<g id="edge16_Node000013_Node000004" class="edge">
<title>Node13&#45;&gt;Node4</title>
<g id="a_edge16_Node000013_Node000004"><a xlink:title=" ">
<path fill="none" stroke="#63b8ff" d="M741.3,-154.59C724.33,-149.81 705.35,-144.46 689.54,-140.01"/>
<polygon fill="#63b8ff" stroke="#63b8ff" points="740.08,-157.88 750.65,-157.22 741.97,-151.14 740.08,-157.88"/>
</a>
</g>
</g>
<!-- Node15 -->
<g id="Node000015" class="node">
<title>Node15</title>
<g id="a_Node000015"><a xlink:href="a02364.html#ac7fbf1f43289d3e0e862b315f00e35e2" target="_top" xlink:title=" ">
<polygon fill="white" stroke="#666666" points="986.38,-73.6 882.62,-73.6 882.62,-55.1 986.38,-55.1 986.38,-73.6"/>
<text text-anchor="middle" x="934.5" y="-60.1" font-family="Helvetica,sans-Serif" font-size="10.00">async_condition_init</text>
</a>
</g>
</g>
<!-- Node14&#45;&gt;Node15 -->
<g id="edge18_Node000014_Node000015" class="edge">
<title>Node14&#45;&gt;Node15</title>
<g id="a_edge18_Node000014_Node000015"><a xlink:title=" ">
<path fill="none" stroke="#63b8ff" d="M1013.4,-69.19C1004.34,-68.63 995.16,-68.06 986.44,-67.52"/>
<polygon fill="#63b8ff" stroke="#63b8ff" points="1013.07,-72.68 1023.27,-69.81 1013.5,-65.69 1013.07,-72.68"/>
</a>
</g>
</g>
<!-- Node15&#45;&gt;Node2 -->
<g id="edge19_Node000015_Node000002" class="edge">
<title>Node15&#45;&gt;Node2</title>
<g id="a_edge19_Node000015_Node000002"><a xlink:title=" ">
<path fill="none" stroke="#63b8ff" d="M895.51,-51.12C879.75,-46.1 861.16,-40.77 844,-37.35 793.45,-27.28 734.17,-22.42 695.72,-20.17"/>
<polygon fill="#63b8ff" stroke="#63b8ff" points="894.4,-54.44 904.99,-54.23 896.57,-47.79 894.4,-54.44"/>
</a>
</g>
</g>
<!-- Node15&#45;&gt;Node4 -->
<g id="edge20_Node000015_Node000004" class="edge">
<title>Node15&#45;&gt;Node4</title>
<g id="a_edge20_Node000015_Node000004"><a xlink:title=" ">
<path fill="none" stroke="#63b8ff" d="M881.56,-76.67C826.73,-89.68 741.62,-109.87 692.9,-121.42"/>
<polygon fill="#63b8ff" stroke="#63b8ff" points="882.05,-80.15 890.97,-74.44 880.43,-73.34 882.05,-80.15"/>
</a>
</g>
</g>
<!-- Node16 -->
<g id="Node000016" class="node">
<title>Node16</title>
<g id="a_Node000016"><a xlink:href="a01940.html#acf84ea82594c4dbe91cf602ee078e04d" target="_top" xlink:title=" ">
<polygon fill="white" stroke="#666666" points="832,-64.6 743.25,-64.6 743.25,-46.1 832,-46.1 832,-64.6"/>
<text text-anchor="middle" x="787.62" y="-51.1" font-family="Helvetica,sans-Serif" font-size="10.00">arax_throttle_init</text>
</a>
</g>
</g>
<!-- Node15&#45;&gt;Node16 -->
<g id="edge21_Node000015_Node000016" class="edge">
<title>Node15&#45;&gt;Node16</title>
<g id="a_edge21_Node000015_Node000016"><a xlink:title=" ">
<path fill="none" stroke="#63b8ff" d="M871.03,-60.47C857.89,-59.66 844.3,-58.81 832.04,-58.05"/>
<polygon fill="#63b8ff" stroke="#63b8ff" points="870.71,-63.96 880.91,-61.09 871.15,-56.97 870.71,-63.96"/>
</a>
</g>
</g>
<!-- Node16&#45;&gt;Node2 -->
<g id="edge22_Node000016_Node000002" class="edge">
<title>Node16&#45;&gt;Node2</title>
<g id="a_edge22_Node000016_Node000002"><a xlink:title=" ">
<path fill="none" stroke="#63b8ff" d="M741.3,-42.59C724.33,-37.81 705.35,-32.46 689.54,-28.01"/>
<polygon fill="#63b8ff" stroke="#63b8ff" points="740.08,-45.88 750.65,-45.22 741.97,-39.14 740.08,-45.88"/>
</a>
</g>
</g>
<!-- Node16&#45;&gt;Node4 -->
<g id="edge23_Node000016_Node000004" class="edge">
<title>Node16&#45;&gt;Node4</title>
<g id="a_edge23_Node000016_Node000004"><a xlink:title=" ">
<path fill="none" stroke="#63b8ff" d="M749.8,-69.39C743.51,-72.15 737.11,-75.17 731.25,-78.35 707.64,-91.16 682.29,-109.55 667.65,-120.68"/>
<polygon fill="#63b8ff" stroke="#63b8ff" points="750.93,-72.72 758.8,-65.62 748.22,-66.26 750.93,-72.72"/>
</a>
</g>
</g>
</g>
</svg>
