<?xml version="1.0" encoding="UTF-8" standalone="no"?>
<!DOCTYPE svg PUBLIC "-//W3C//DTD SVG 1.1//EN"
 "http://www.w3.org/Graphics/SVG/1.1/DTD/svg11.dtd">
<!-- Generated by graphviz version 8.0.5 (0)
 -->
<!-- Title: arax_accel.h Pages: 1 -->
<svg width="688pt" height="299pt"
 viewBox="0.00 0.00 688.00 299.00" xmlns="http://www.w3.org/2000/svg" xmlns:xlink="http://www.w3.org/1999/xlink">
<g id="graph0" class="graph" transform="scale(1 1) rotate(0) translate(4 295)">
<title>arax_accel.h</title>
<!-- Node1 -->
<g id="Node000001" class="node">
<title>Node1</title>
<g id="a_Node000001"><a xlink:title=" ">
<polygon fill="#999999" stroke="#666666" points="510.75,-291 438.5,-291 438.5,-272.5 510.75,-272.5 510.75,-291"/>
<text text-anchor="middle" x="474.62" y="-277.5" font-family="Helvetica,sans-Serif" font-size="10.00">arax_accel.h</text>
</a>
</g>
</g>
<!-- Node2 -->
<g id="Node000002" class="node">
<title>Node2</title>
<g id="a_Node000002"><a xlink:href="a01346.html" target="_top" xlink:title=" ">
<polygon fill="white" stroke="#666666" points="224.12,-236.5 181.12,-236.5 181.12,-218 224.12,-218 224.12,-236.5"/>
<text text-anchor="middle" x="202.62" y="-223" font-family="Helvetica,sans-Serif" font-size="10.00">arax.h</text>
</a>
</g>
</g>
<!-- Node1&#45;&gt;Node2 -->
<g id="edge1_Node000001_Node000002" class="edge">
<title>Node1&#45;&gt;Node2</title>
<g id="a_edge1_Node000001_Node000002"><a xlink:title=" ">
<path fill="none" stroke="#63b8ff" d="M438.22,-273.72C384.93,-263.44 286.46,-244.43 235.34,-234.57"/>
<polygon fill="#63b8ff" stroke="#63b8ff" points="236.08,-230.95 225.6,-232.49 234.75,-237.82 236.08,-230.95"/>
</a>
</g>
</g>
<!-- Node9 -->
<g id="Node000009" class="node">
<title>Node9</title>
<g id="a_Node000009"><a xlink:title=" ">
<polygon fill="#e0e0e0" stroke="#999999" points="616.5,-182 566.75,-182 566.75,-163.5 616.5,-163.5 616.5,-182"/>
<text text-anchor="middle" x="591.62" y="-168.5" font-family="Helvetica,sans-Serif" font-size="10.00">async.h</text>
</a>
</g>
</g>
<!-- Node1&#45;&gt;Node9 -->
<g id="edge9_Node000001_Node000009" class="edge">
<title>Node1&#45;&gt;Node9</title>
<g id="a_edge9_Node000001_Node000009"><a xlink:title=" ">
<path fill="none" stroke="#63b8ff" d="M487.08,-272.15C499.16,-263.62 517.77,-249.9 532.62,-236.5 548.86,-221.85 565.8,-203.46 577.34,-190.38"/>
<polygon fill="#63b8ff" stroke="#63b8ff" points="580.47,-193.13 584.4,-183.29 575.19,-188.53 580.47,-193.13"/>
</a>
</g>
</g>
<!-- Node10 -->
<g id="Node000010" class="node">
<title>Node10</title>
<g id="a_Node000010"><a xlink:href="a01418.html" target="_top" xlink:title=" ">
<polygon fill="white" stroke="#666666" points="523.88,-236.5 425.38,-236.5 425.38,-218 523.88,-218 523.88,-236.5"/>
<text text-anchor="middle" x="474.62" y="-223" font-family="Helvetica,sans-Serif" font-size="10.00">core/arax_vaccel.h</text>
</a>
</g>
</g>
<!-- Node1&#45;&gt;Node10 -->
<g id="edge10_Node000001_Node000010" class="edge">
<title>Node1&#45;&gt;Node10</title>
<g id="a_edge10_Node000001_Node000010"><a xlink:title=" ">
<path fill="none" stroke="#63b8ff" d="M469.46,-272.08C468.02,-265.43 467.56,-255.99 468.09,-247.58"/>
<polygon fill="#63b8ff" stroke="#63b8ff" points="471.68,-248.13 469.49,-237.76 464.73,-247.22 471.68,-248.13"/>
</a>
</g>
</g>
<!-- Node20 -->
<g id="Node000020" class="node">
<title>Node20</title>
<g id="a_Node000020"><a xlink:href="a01415.html" target="_top" xlink:title=" ">
<polygon fill="white" stroke="#666666" points="680,-236.5 579.25,-236.5 579.25,-218 680,-218 680,-236.5"/>
<text text-anchor="middle" x="629.62" y="-223" font-family="Helvetica,sans-Serif" font-size="10.00">core/arax_throttle.h</text>
</a>
</g>
</g>
<!-- Node1&#45;&gt;Node20 -->
<g id="edge27_Node000001_Node000020" class="edge">
<title>Node1&#45;&gt;Node20</title>
<g id="a_edge27_Node000001_Node000020"><a xlink:title=" ">
<path fill="none" stroke="#63b8ff" d="M500.22,-272.08C525.69,-263.46 564.99,-250.14 593.6,-240.45"/>
<polygon fill="#63b8ff" stroke="#63b8ff" points="594.64,-243.46 602.99,-236.93 592.4,-236.83 594.64,-243.46"/>
</a>
</g>
</g>
<!-- Node3 -->
<g id="Node000003" class="node">
<title>Node3</title>
<g id="a_Node000003"><a xlink:title=" ">
<polygon fill="#e0e0e0" stroke="#999999" points="225.25,-182 180,-182 180,-163.5 225.25,-163.5 225.25,-182"/>
<text text-anchor="middle" x="202.62" y="-168.5" font-family="Helvetica,sans-Serif" font-size="10.00">stdio.h</text>
</a>
</g>
</g>
<!-- Node2&#45;&gt;Node3 -->
<g id="edge2_Node000002_Node000003" class="edge">
<title>Node2&#45;&gt;Node3</title>
<g id="a_edge2_Node000002_Node000003"><a xlink:title=" ">
<path fill="none" stroke="#63b8ff" d="M202.62,-217.58C202.62,-210.93 202.62,-201.49 202.62,-193.08"/>
<polygon fill="#63b8ff" stroke="#63b8ff" points="206.13,-193.26 202.62,-183.26 199.13,-193.26 206.13,-193.26"/>
</a>
</g>
</g>
<!-- Node4 -->
<g id="Node000004" class="node">
<title>Node4</title>
<g id="a_Node000004"><a xlink:title=" ">
<polygon fill="#e0e0e0" stroke="#999999" points="400.88,-73 350.38,-73 350.38,-54.5 400.88,-54.5 400.88,-73"/>
<text text-anchor="middle" x="375.62" y="-59.5" font-family="Helvetica,sans-Serif" font-size="10.00">stddef.h</text>
</a>
</g>
</g>
<!-- Node2&#45;&gt;Node4 -->
<g id="edge3_Node000002_Node000004" class="edge">
<title>Node2&#45;&gt;Node4</title>
<g id="a_edge3_Node000002_Node000004"><a xlink:title=" ">
<path fill="none" stroke="#63b8ff" d="M209.39,-217.69C216.15,-208.97 226.66,-194.91 234.62,-182 253.84,-150.88 245.82,-133.89 272.62,-109 291.42,-91.55 318.14,-80.35 339.66,-73.57"/>
<polygon fill="#63b8ff" stroke="#63b8ff" points="340.46,-76.7 349.06,-70.51 338.48,-69.98 340.46,-76.7"/>
</a>
</g>
</g>
<!-- Node5 -->
<g id="Node000005" class="node">
<title>Node5</title>
<g id="a_Node000005"><a xlink:href="a01352.html" target="_top" xlink:title=" ">
<polygon fill="white" stroke="#666666" points="143.12,-127.5 70.12,-127.5 70.12,-109 143.12,-109 143.12,-127.5"/>
<text text-anchor="middle" x="106.62" y="-114" font-family="Helvetica,sans-Serif" font-size="10.00">arax_types.h</text>
</a>
</g>
</g>
<!-- Node2&#45;&gt;Node5 -->
<g id="edge4_Node000002_Node000005" class="edge">
<title>Node2&#45;&gt;Node5</title>
<g id="a_edge4_Node000002_Node000005"><a xlink:title=" ">
<path fill="none" stroke="#63b8ff" d="M195.09,-217.85C179.26,-200.21 142.27,-158.98 121.49,-135.81"/>
<polygon fill="#63b8ff" stroke="#63b8ff" points="124.67,-134.01 115.39,-128.9 119.46,-138.69 124.67,-134.01"/>
</a>
</g>
</g>
<!-- Node8 -->
<g id="Node000008" class="node">
<title>Node8</title>
<g id="a_Node000008"><a xlink:href="a01394.html" target="_top" xlink:title=" ">
<polygon fill="white" stroke="#666666" points="123.25,-182 0,-182 0,-163.5 123.25,-163.5 123.25,-182"/>
<text text-anchor="middle" x="61.62" y="-168.5" font-family="Helvetica,sans-Serif" font-size="10.00">core/arax_accel_types.h</text>
</a>
</g>
</g>
<!-- Node2&#45;&gt;Node8 -->
<g id="edge7_Node000002_Node000008" class="edge">
<title>Node2&#45;&gt;Node8</title>
<g id="a_edge7_Node000002_Node000008"><a xlink:title=" ">
<path fill="none" stroke="#63b8ff" d="M180.9,-218.16C157.99,-209.63 121.59,-196.08 95.02,-186.19"/>
<polygon fill="#63b8ff" stroke="#63b8ff" points="96.61,-182.67 86.02,-182.46 94.17,-189.23 96.61,-182.67"/>
</a>
</g>
</g>
<!-- Node6 -->
<g id="Node000006" class="node">
<title>Node6</title>
<g id="a_Node000006"><a xlink:title=" ">
<polygon fill="#e0e0e0" stroke="#999999" points="171.75,-73 111.5,-73 111.5,-54.5 171.75,-54.5 171.75,-73"/>
<text text-anchor="middle" x="141.62" y="-59.5" font-family="Helvetica,sans-Serif" font-size="10.00">sys/time.h</text>
</a>
</g>
</g>
<!-- Node5&#45;&gt;Node6 -->
<g id="edge5_Node000005_Node000006" class="edge">
<title>Node5&#45;&gt;Node6</title>
<g id="a_edge5_Node000005_Node000006"><a xlink:title=" ">
<path fill="none" stroke="#63b8ff" d="M112.4,-108.58C117.14,-101.47 124.01,-91.18 129.89,-82.35"/>
<polygon fill="#63b8ff" stroke="#63b8ff" points="133.32,-84.52 135.95,-74.26 127.49,-80.64 133.32,-84.52"/>
</a>
</g>
</g>
<!-- Node7 -->
<g id="Node000007" class="node">
<title>Node7</title>
<g id="a_Node000007"><a xlink:title=" ">
<polygon fill="#e0e0e0" stroke="#999999" points="93.12,-73 50.12,-73 50.12,-54.5 93.12,-54.5 93.12,-73"/>
<text text-anchor="middle" x="71.62" y="-59.5" font-family="Helvetica,sans-Serif" font-size="10.00">time.h</text>
</a>
</g>
</g>
<!-- Node5&#45;&gt;Node7 -->
<g id="edge6_Node000005_Node000007" class="edge">
<title>Node5&#45;&gt;Node7</title>
<g id="a_edge6_Node000005_Node000007"><a xlink:title=" ">
<path fill="none" stroke="#63b8ff" d="M100.85,-108.58C96.11,-101.47 89.24,-91.18 83.36,-82.35"/>
<polygon fill="#63b8ff" stroke="#63b8ff" points="85.76,-80.64 77.3,-74.26 79.93,-84.52 85.76,-80.64"/>
</a>
</g>
</g>
<!-- Node8&#45;&gt;Node5 -->
<g id="edge8_Node000008_Node000005" class="edge">
<title>Node8&#45;&gt;Node5</title>
<g id="a_edge8_Node000008_Node000005"><a xlink:title=" ">
<path fill="none" stroke="#63b8ff" d="M69.06,-163.08C75.35,-155.74 84.55,-145.01 92.27,-136"/>
<polygon fill="#63b8ff" stroke="#63b8ff" points="95.48,-138.63 99.33,-128.76 90.17,-134.07 95.48,-138.63"/>
</a>
</g>
</g>
<!-- Node10&#45;&gt;Node1 -->
<g id="edge25_Node000010_Node000001" class="edge">
<title>Node10&#45;&gt;Node1</title>
<g id="a_edge25_Node000010_Node000001"><a xlink:title=" ">
<path fill="none" stroke="#63b8ff" d="M479.76,-236.76C481.22,-243.36 481.69,-252.79 481.17,-261.22"/>
<polygon fill="#63b8ff" stroke="#63b8ff" points="477.58,-260.72 479.79,-271.08 484.53,-261.6 477.58,-260.72"/>
</a>
</g>
</g>
<!-- Node10&#45;&gt;Node9 -->
<g id="edge26_Node000010_Node000009" class="edge">
<title>Node10&#45;&gt;Node9</title>
<g id="a_edge26_Node000010_Node000009"><a xlink:title=" ">
<path fill="none" stroke="#63b8ff" d="M493.95,-217.58C512.57,-209.22 541.02,-196.46 562.41,-186.86"/>
<polygon fill="#63b8ff" stroke="#63b8ff" points="563.59,-189.72 571.28,-182.43 560.72,-183.33 563.59,-189.72"/>
</a>
</g>
</g>
<!-- Node11 -->
<g id="Node000011" class="node">
<title>Node11</title>
<g id="a_Node000011"><a xlink:href="a01403.html" target="_top" xlink:title=" ">
<polygon fill="white" stroke="#666666" points="458.75,-182 362.5,-182 362.5,-163.5 458.75,-163.5 458.75,-182"/>
<text text-anchor="middle" x="410.62" y="-168.5" font-family="Helvetica,sans-Serif" font-size="10.00">core/arax_object.h</text>
</a>
</g>
</g>
<!-- Node10&#45;&gt;Node11 -->
<g id="edge11_Node000010_Node000011" class="edge">
<title>Node10&#45;&gt;Node11</title>
<g id="a_edge11_Node000010_Node000011"><a xlink:title=" ">
<path fill="none" stroke="#63b8ff" d="M464.06,-217.58C454.64,-209.86 440.65,-198.38 429.35,-189.11"/>
<polygon fill="#63b8ff" stroke="#63b8ff" points="431.95,-185.89 422,-182.26 427.51,-191.31 431.95,-185.89"/>
</a>
</g>
</g>
<!-- Node18 -->
<g id="Node000018" class="node">
<title>Node18</title>
<g id="a_Node000018"><a xlink:href="a01379.html" target="_top" xlink:title=" ">
<polygon fill="white" stroke="#666666" points="548.38,-182 476.88,-182 476.88,-163.5 548.38,-163.5 548.38,-182"/>
<text text-anchor="middle" x="512.62" y="-168.5" font-family="Helvetica,sans-Serif" font-size="10.00">utils/queue.h</text>
</a>
</g>
</g>
<!-- Node10&#45;&gt;Node18 -->
<g id="edge20_Node000010_Node000018" class="edge">
<title>Node10&#45;&gt;Node18</title>
<g id="a_edge20_Node000010_Node000018"><a xlink:title=" ">
<path fill="none" stroke="#63b8ff" d="M480.9,-217.58C486.1,-210.39 493.66,-199.95 500.09,-191.07"/>
<polygon fill="#63b8ff" stroke="#63b8ff" points="503.44,-193.41 506.47,-183.26 497.77,-189.31 503.44,-193.41"/>
</a>
</g>
</g>
<!-- Node12 -->
<g id="Node000012" class="node">
<title>Node12</title>
<g id="a_Node000012"><a xlink:href="a01376.html" target="_top" xlink:title=" ">
<polygon fill="white" stroke="#666666" points="461.25,-127.5 404,-127.5 404,-109 461.25,-109 461.25,-127.5"/>
<text text-anchor="middle" x="432.62" y="-114" font-family="Helvetica,sans-Serif" font-size="10.00">utils/list.h</text>
</a>
</g>
</g>
<!-- Node11&#45;&gt;Node12 -->
<g id="edge12_Node000011_Node000012" class="edge">
<title>Node11&#45;&gt;Node12</title>
<g id="a_edge12_Node000011_Node000012"><a xlink:title=" ">
<path fill="none" stroke="#63b8ff" d="M414.26,-163.08C417.14,-156.2 421.27,-146.34 424.89,-137.71"/>
<polygon fill="#63b8ff" stroke="#63b8ff" points="428.42,-139.33 429.06,-128.76 421.97,-136.63 428.42,-139.33"/>
</a>
</g>
</g>
<!-- Node14 -->
<g id="Node000014" class="node">
<title>Node14</title>
<g id="a_Node000014"><a xlink:href="a01382.html" target="_top" xlink:title=" ">
<polygon fill="white" stroke="#666666" points="599.25,-127.5 518,-127.5 518,-109 599.25,-109 599.25,-127.5"/>
<text text-anchor="middle" x="558.62" y="-114" font-family="Helvetica,sans-Serif" font-size="10.00">utils/spinlock.h</text>
</a>
</g>
</g>
<!-- Node11&#45;&gt;Node14 -->
<g id="edge15_Node000011_Node000014" class="edge">
<title>Node11&#45;&gt;Node14</title>
<g id="a_edge15_Node000011_Node000014"><a xlink:title=" ">
<path fill="none" stroke="#63b8ff" d="M435.06,-163.08C459.27,-154.49 496.58,-141.26 523.87,-131.58"/>
<polygon fill="#63b8ff" stroke="#63b8ff" points="524.9,-134.57 533.15,-127.93 522.55,-127.98 524.9,-134.57"/>
</a>
</g>
</g>
<!-- Node17 -->
<g id="Node000017" class="node">
<title>Node17</title>
<g id="a_Node000017"><a xlink:title=" ">
<polygon fill="#e0e0e0" stroke="#999999" points="347.75,-127.5 281.5,-127.5 281.5,-109 347.75,-109 347.75,-127.5"/>
<text text-anchor="middle" x="314.62" y="-114" font-family="Helvetica,sans-Serif" font-size="10.00">arch/alloc.h</text>
</a>
</g>
</g>
<!-- Node11&#45;&gt;Node17 -->
<g id="edge19_Node000011_Node000017" class="edge">
<title>Node11&#45;&gt;Node17</title>
<g id="a_edge19_Node000011_Node000017"><a xlink:title=" ">
<path fill="none" stroke="#63b8ff" d="M394.77,-163.08C379.9,-154.95 357.42,-142.65 340.04,-133.15"/>
<polygon fill="#63b8ff" stroke="#63b8ff" points="341.95,-129.66 331.5,-127.93 338.6,-135.8 341.95,-129.66"/>
</a>
</g>
</g>
<!-- Node12&#45;&gt;Node4 -->
<g id="edge13_Node000012_Node000004" class="edge">
<title>Node12&#45;&gt;Node4</title>
<g id="a_edge13_Node000012_Node000004"><a xlink:title=" ">
<path fill="none" stroke="#63b8ff" d="M423.21,-108.58C415,-101.01 402.86,-89.83 392.9,-80.66"/>
<polygon fill="#63b8ff" stroke="#63b8ff" points="395.59,-78.46 385.86,-74.26 390.85,-83.61 395.59,-78.46"/>
</a>
</g>
</g>
<!-- Node13 -->
<g id="Node000013" class="node">
<title>Node13</title>
<g id="a_Node000013"><a xlink:title=" ">
<polygon fill="#e0e0e0" stroke="#999999" points="502.38,-73 454.88,-73 454.88,-54.5 502.38,-54.5 502.38,-73"/>
<text text-anchor="middle" x="478.62" y="-59.5" font-family="Helvetica,sans-Serif" font-size="10.00">stdint.h</text>
</a>
</g>
</g>
<!-- Node12&#45;&gt;Node13 -->
<g id="edge14_Node000012_Node000013" class="edge">
<title>Node12&#45;&gt;Node13</title>
<g id="a_edge14_Node000012_Node000013"><a xlink:title=" ">
<path fill="none" stroke="#63b8ff" d="M440.22,-108.58C446.65,-101.24 456.06,-90.51 463.95,-81.5"/>
<polygon fill="#63b8ff" stroke="#63b8ff" points="467.21,-84.09 471.17,-74.26 461.95,-79.47 467.21,-84.09"/>
</a>
</g>
</g>
<!-- Node14&#45;&gt;Node13 -->
<g id="edge16_Node000014_Node000013" class="edge">
<title>Node14&#45;&gt;Node13</title>
<g id="a_edge16_Node000014_Node000013"><a xlink:title=" ">
<path fill="none" stroke="#63b8ff" d="M545.41,-108.58C533.37,-100.68 515.33,-88.84 501.03,-79.46"/>
<polygon fill="#63b8ff" stroke="#63b8ff" points="503.14,-75.99 492.85,-73.43 499.3,-81.84 503.14,-75.99"/>
</a>
</g>
</g>
<!-- Node15 -->
<g id="Node000015" class="node">
<title>Node15</title>
<g id="a_Node000015"><a xlink:href="a01361.html" target="_top" xlink:title=" ">
<polygon fill="white" stroke="#666666" points="617.12,-73 520.12,-73 520.12,-54.5 617.12,-54.5 617.12,-73"/>
<text text-anchor="middle" x="568.62" y="-59.5" font-family="Helvetica,sans-Serif" font-size="10.00">utils/arax_assert.h</text>
</a>
</g>
</g>
<!-- Node14&#45;&gt;Node15 -->
<g id="edge17_Node000014_Node000015" class="edge">
<title>Node14&#45;&gt;Node15</title>
<g id="a_edge17_Node000014_Node000015"><a xlink:title=" ">
<path fill="none" stroke="#63b8ff" d="M560.28,-108.58C561.56,-101.85 563.38,-92.27 565,-83.79"/>
<polygon fill="#63b8ff" stroke="#63b8ff" points="568.57,-84.74 567,-74.26 561.7,-83.43 568.57,-84.74"/>
</a>
</g>
</g>
<!-- Node16 -->
<g id="Node000016" class="node">
<title>Node16</title>
<g id="a_Node000016"><a xlink:href="a01370.html" target="_top" xlink:title=" ">
<polygon fill="white" stroke="#666666" points="596.5,-18.5 540.75,-18.5 540.75,0 596.5,0 596.5,-18.5"/>
<text text-anchor="middle" x="568.62" y="-5" font-family="Helvetica,sans-Serif" font-size="10.00">compat.h</text>
</a>
</g>
</g>
<!-- Node15&#45;&gt;Node16 -->
<g id="edge18_Node000015_Node000016" class="edge">
<title>Node15&#45;&gt;Node16</title>
<g id="a_edge18_Node000015_Node000016"><a xlink:title=" ">
<path fill="none" stroke="#63b8ff" d="M568.62,-54.08C568.62,-47.43 568.62,-37.99 568.62,-29.58"/>
<polygon fill="#63b8ff" stroke="#63b8ff" points="572.13,-29.76 568.62,-19.76 565.13,-29.76 572.13,-29.76"/>
</a>
</g>
</g>
<!-- Node18&#45;&gt;Node4 -->
<g id="edge21_Node000018_Node000004" class="edge">
<title>Node18&#45;&gt;Node4</title>
<g id="a_edge21_Node000018_Node000004"><a xlink:title=" ">
<path fill="none" stroke="#63b8ff" d="M480.05,-163.05C449.43,-154.28 406.56,-140.23 394.62,-127.5 383.55,-115.68 378.91,-97.61 376.98,-83.89"/>
<polygon fill="#63b8ff" stroke="#63b8ff" points="380.39,-83.81 375.89,-74.22 373.43,-84.53 380.39,-83.81"/>
</a>
</g>
</g>
<!-- Node18&#45;&gt;Node13 -->
<g id="edge22_Node000018_Node000013" class="edge">
<title>Node18&#45;&gt;Node13</title>
<g id="a_edge22_Node000018_Node000013"><a xlink:title=" ">
<path fill="none" stroke="#63b8ff" d="M509.96,-163.35C504.55,-146.33 492.16,-107.36 484.69,-83.83"/>
<polygon fill="#63b8ff" stroke="#63b8ff" points="487.74,-82.87 481.37,-74.4 481.07,-84.99 487.74,-82.87"/>
</a>
</g>
</g>
<!-- Node18&#45;&gt;Node14 -->
<g id="edge24_Node000018_Node000014" class="edge">
<title>Node18&#45;&gt;Node14</title>
<g id="a_edge24_Node000018_Node000014"><a xlink:title=" ">
<path fill="none" stroke="#63b8ff" d="M520.22,-163.08C526.65,-155.74 536.06,-145.01 543.95,-136"/>
<polygon fill="#63b8ff" stroke="#63b8ff" points="547.21,-138.59 551.17,-128.76 541.95,-133.97 547.21,-138.59"/>
</a>
</g>
</g>
<!-- Node19 -->
<g id="Node000019" class="node">
<title>Node19</title>
<g id="a_Node000019"><a xlink:href="a01427.html" target="_top" xlink:title=" ">
<polygon fill="white" stroke="#666666" points="659.75,-127.5 617.5,-127.5 617.5,-109 659.75,-109 659.75,-127.5"/>
<text text-anchor="middle" x="638.62" y="-114" font-family="Helvetica,sans-Serif" font-size="10.00">conf.h</text>
</a>
</g>
</g>
<!-- Node18&#45;&gt;Node19 -->
<g id="edge23_Node000018_Node000019" class="edge">
<title>Node18&#45;&gt;Node19</title>
<g id="a_edge23_Node000018_Node000019"><a xlink:title=" ">
<path fill="none" stroke="#63b8ff" d="M533.43,-163.08C553.68,-154.65 584.68,-141.73 607.79,-132.1"/>
<polygon fill="#63b8ff" stroke="#63b8ff" points="608.9,-135.01 616.79,-127.93 606.21,-128.55 608.9,-135.01"/>
</a>
</g>
</g>
<!-- Node20&#45;&gt;Node9 -->
<g id="edge28_Node000020_Node000009" class="edge">
<title>Node20&#45;&gt;Node9</title>
<g id="a_edge28_Node000020_Node000009"><a xlink:title=" ">
<path fill="none" stroke="#63b8ff" d="M623.35,-217.58C618.15,-210.39 610.59,-199.95 604.16,-191.07"/>
<polygon fill="#63b8ff" stroke="#63b8ff" points="606.48,-189.31 597.78,-183.26 600.81,-193.41 606.48,-189.31"/>
</a>
</g>
</g>
</g>
</svg>
