<?xml version="1.0" encoding="UTF-8" standalone="no"?>
<!DOCTYPE svg PUBLIC "-//W3C//DTD SVG 1.1//EN"
 "http://www.w3.org/Graphics/SVG/1.1/DTD/svg11.dtd">
<!-- Generated by graphviz version 8.0.5 (0)
 -->
<!-- Title: spinlock.h Pages: 1 -->
<svg width="1070pt" height="354pt"
 viewBox="0.00 0.00 1069.92 353.50" xmlns="http://www.w3.org/2000/svg" xmlns:xlink="http://www.w3.org/1999/xlink">
<g id="graph0" class="graph" transform="scale(1 1) rotate(0) translate(4 349.5)">
<title>spinlock.h</title>
<!-- Node1 -->
<g id="Node000001" class="node">
<title>Node1</title>
<g id="a_Node000001"><a xlink:title=" ">
<polygon fill="#999999" stroke="#666666" points="677.05,-345.5 616.8,-345.5 616.8,-327 677.05,-327 677.05,-345.5"/>
<text text-anchor="middle" x="646.92" y="-332" font-family="Helvetica,sans-Serif" font-size="10.00">spinlock.h</text>
</a>
</g>
</g>
<!-- Node2 -->
<g id="Node000002" class="node">
<title>Node2</title>
<g id="a_Node000002"><a xlink:href="a01358.html" target="_top" xlink:title=" ">
<polygon fill="white" stroke="#666666" points="633.67,-291 598.17,-291 598.17,-272.5 633.67,-272.5 633.67,-291"/>
<text text-anchor="middle" x="615.92" y="-277.5" font-family="Helvetica,sans-Serif" font-size="10.00">Kv.h</text>
</a>
</g>
</g>
<!-- Node1&#45;&gt;Node2 -->
<g id="edge1_Node000001_Node000002" class="edge">
<title>Node1&#45;&gt;Node2</title>
<g id="a_edge1_Node000001_Node000002"><a xlink:title=" ">
<path fill="none" stroke="#63b8ff" d="M636.24,-317.16C631.06,-308.38 625.07,-298.24 620.95,-291.26"/>
<polygon fill="#63b8ff" stroke="#63b8ff" points="633.71,-318.75 641.8,-325.58 639.73,-315.19 633.71,-318.75"/>
</a>
</g>
</g>
<!-- Node14 -->
<g id="Node000014" class="node">
<title>Node14</title>
<g id="a_Node000014"><a xlink:href="a01403.html" target="_top" xlink:title=" ">
<polygon fill="white" stroke="#666666" points="335.17,-291 260.67,-291 260.67,-272.5 335.17,-272.5 335.17,-291"/>
<text text-anchor="middle" x="297.92" y="-277.5" font-family="Helvetica,sans-Serif" font-size="10.00">arax_object.h</text>
</a>
</g>
</g>
<!-- Node1&#45;&gt;Node14 -->
<g id="edge13_Node000001_Node000014" class="edge">
<title>Node1&#45;&gt;Node14</title>
<g id="a_edge13_Node000001_Node000014"><a xlink:title=" ">
<path fill="none" stroke="#63b8ff" d="M605.8,-329.06C537.44,-318.78 401.43,-298.32 335.5,-288.4"/>
<polygon fill="#63b8ff" stroke="#63b8ff" points="605.15,-332.66 615.56,-330.68 606.19,-325.73 605.15,-332.66"/>
</a>
</g>
</g>
<!-- Node29 -->
<g id="Node000029" class="node">
<title>Node29</title>
<g id="a_Node000029"><a xlink:href="a01367.html" target="_top" xlink:title=" ">
<polygon fill="white" stroke="#666666" points="705.67,-291 652.17,-291 652.17,-272.5 705.67,-272.5 705.67,-291"/>
<text text-anchor="middle" x="678.92" y="-277.5" font-family="Helvetica,sans-Serif" font-size="10.00">bitmap.h</text>
</a>
</g>
</g>
<!-- Node1&#45;&gt;Node29 -->
<g id="edge42_Node000001_Node000029" class="edge">
<title>Node1&#45;&gt;Node29</title>
<g id="a_edge42_Node000001_Node000029"><a xlink:title=" ">
<path fill="none" stroke="#63b8ff" d="M657.77,-317.45C663.17,-308.6 669.43,-298.32 673.74,-291.26"/>
<polygon fill="#63b8ff" stroke="#63b8ff" points="654.42,-315.22 652.21,-325.58 660.4,-318.86 654.42,-315.22"/>
</a>
</g>
</g>
<!-- Node33 -->
<g id="Node000033" class="node">
<title>Node33</title>
<g id="a_Node000033"><a xlink:href="a01379.html" target="_top" xlink:title=" ">
<polygon fill="white" stroke="#666666" points="797.17,-291 746.67,-291 746.67,-272.5 797.17,-272.5 797.17,-291"/>
<text text-anchor="middle" x="771.92" y="-277.5" font-family="Helvetica,sans-Serif" font-size="10.00">queue.h</text>
</a>
</g>
</g>
<!-- Node1&#45;&gt;Node33 -->
<g id="edge47_Node000001_Node000033" class="edge">
<title>Node1&#45;&gt;Node33</title>
<g id="a_edge47_Node000001_Node000033"><a xlink:title=" ">
<path fill="none" stroke="#63b8ff" d="M677.48,-322.42C700.4,-312.79 731.16,-299.87 751.25,-291.43"/>
<polygon fill="#63b8ff" stroke="#63b8ff" points="676.43,-319.48 668.56,-326.58 679.14,-325.94 676.43,-319.48"/>
</a>
</g>
</g>
<!-- Node3 -->
<g id="Node000003" class="node">
<title>Node3</title>
<g id="a_Node000003"><a xlink:href="a01934.html" target="_top" xlink:title=" ">
<polygon fill="white" stroke="#666666" points="497.67,-236.5 462.17,-236.5 462.17,-218 497.67,-218 497.67,-236.5"/>
<text text-anchor="middle" x="479.92" y="-223" font-family="Helvetica,sans-Serif" font-size="10.00">Kv.c</text>
</a>
</g>
</g>
<!-- Node2&#45;&gt;Node3 -->
<g id="edge2_Node000002_Node000003" class="edge">
<title>Node2&#45;&gt;Node3</title>
<g id="a_edge2_Node000002_Node000003"><a xlink:title=" ">
<path fill="none" stroke="#63b8ff" d="M587.89,-269.93C560.96,-259.53 521.06,-244.13 498.06,-235.25"/>
<polygon fill="#63b8ff" stroke="#63b8ff" points="586.27,-273.44 596.86,-273.78 588.8,-266.91 586.27,-273.44"/>
</a>
</g>
</g>
<!-- Node4 -->
<g id="Node000004" class="node">
<title>Node4</title>
<g id="a_Node000004"><a xlink:href="a01349.html" target="_top" xlink:title=" ">
<polygon fill="white" stroke="#666666" points="653.42,-127.5 586.42,-127.5 586.42,-109 653.42,-109 653.42,-127.5"/>
<text text-anchor="middle" x="619.92" y="-114" font-family="Helvetica,sans-Serif" font-size="10.00">arax_pipe.h</text>
</a>
</g>
</g>
<!-- Node2&#45;&gt;Node4 -->
<g id="edge3_Node000002_Node000004" class="edge">
<title>Node2&#45;&gt;Node4</title>
<g id="a_edge3_Node000002_Node000004"><a xlink:title=" ">
<path fill="none" stroke="#63b8ff" d="M616.4,-261.34C617.28,-226.14 619.08,-153.11 619.71,-127.98"/>
<polygon fill="#63b8ff" stroke="#63b8ff" points="612.89,-260.98 616.14,-271.07 619.89,-261.16 612.89,-260.98"/>
</a>
</g>
</g>
<!-- Node5 -->
<g id="Node000005" class="node">
<title>Node5</title>
<g id="a_Node000005"><a xlink:href="a01904.html" target="_top" xlink:title=" ">
<polygon fill="white" stroke="#666666" points="980.05,-73 907.8,-73 907.8,-54.5 980.05,-54.5 980.05,-73"/>
<text text-anchor="middle" x="943.92" y="-59.5" font-family="Helvetica,sans-Serif" font-size="10.00">arax_accel.c</text>
</a>
</g>
</g>
<!-- Node4&#45;&gt;Node5 -->
<g id="edge4_Node000004_Node000005" class="edge">
<title>Node4&#45;&gt;Node5</title>
<g id="a_edge4_Node000004_Node000005"><a xlink:title=" ">
<path fill="none" stroke="#63b8ff" d="M664.52,-110.43C719.46,-101.96 815.65,-86.92 897.92,-73 901.12,-72.46 904.45,-71.88 907.78,-71.3"/>
<polygon fill="#63b8ff" stroke="#63b8ff" points="664.12,-107.1 654.77,-112.08 665.18,-114.02 664.12,-107.1"/>
</a>
</g>
</g>
<!-- Node6 -->
<g id="Node000006" class="node">
<title>Node6</title>
<g id="a_Node000006"><a xlink:href="a01931.html" target="_top" xlink:title=" ">
<polygon fill="white" stroke="#666666" points="429.8,-18.5 362.05,-18.5 362.05,0 429.8,0 429.8,-18.5"/>
<text text-anchor="middle" x="395.92" y="-5" font-family="Helvetica,sans-Serif" font-size="10.00">arax_data.c</text>
</a>
</g>
</g>
<!-- Node4&#45;&gt;Node6 -->
<g id="edge5_Node000004_Node000006" class="edge">
<title>Node4&#45;&gt;Node6</title>
<g id="a_edge5_Node000004_Node000006"><a xlink:title=" ">
<path fill="none" stroke="#63b8ff" d="M619.06,-97.61C617.37,-83.64 612.83,-65.48 600.92,-54.5 576.36,-31.86 481.68,-18.94 430.03,-13.44"/>
<polygon fill="#63b8ff" stroke="#63b8ff" points="615.64,-97.82 619.91,-107.52 622.62,-97.28 615.64,-97.82"/>
</a>
</g>
</g>
<!-- Node7 -->
<g id="Node000007" class="node">
<title>Node7</title>
<g id="a_Node000007"><a xlink:href="a01910.html" target="_top" xlink:title=" ">
<polygon fill="white" stroke="#666666" points="288.17,-73 213.67,-73 213.67,-54.5 288.17,-54.5 288.17,-73"/>
<text text-anchor="middle" x="250.92" y="-59.5" font-family="Helvetica,sans-Serif" font-size="10.00">arax_object.c</text>
</a>
</g>
</g>
<!-- Node4&#45;&gt;Node7 -->
<g id="edge6_Node000004_Node000007" class="edge">
<title>Node4&#45;&gt;Node7</title>
<g id="a_edge6_Node000004_Node000007"><a xlink:title=" ">
<path fill="none" stroke="#63b8ff" d="M575.77,-111.79C513.49,-103.95 396.34,-88.72 296.92,-73 294.2,-72.57 291.39,-72.11 288.56,-71.63"/>
<polygon fill="#63b8ff" stroke="#63b8ff" points="575.02,-115.35 585.38,-113.12 575.89,-108.4 575.02,-115.35"/>
</a>
</g>
</g>
<!-- Node8 -->
<g id="Node000008" class="node">
<title>Node8</title>
<g id="a_Node000008"><a xlink:href="a01913.html" target="_top" xlink:title=" ">
<polygon fill="white" stroke="#666666" points="715.42,-73 648.42,-73 648.42,-54.5 715.42,-54.5 715.42,-73"/>
<text text-anchor="middle" x="681.92" y="-59.5" font-family="Helvetica,sans-Serif" font-size="10.00">arax_pipe.c</text>
</a>
</g>
</g>
<!-- Node4&#45;&gt;Node8 -->
<g id="edge7_Node000004_Node000008" class="edge">
<title>Node4&#45;&gt;Node8</title>
<g id="a_edge7_Node000004_Node000008"><a xlink:title=" ">
<path fill="none" stroke="#63b8ff" d="M638.29,-101.7C649.28,-92.39 662.82,-80.93 671.88,-73.26"/>
<polygon fill="#63b8ff" stroke="#63b8ff" points="636.53,-99.45 631.16,-108.58 641.06,-104.79 636.53,-99.45"/>
</a>
</g>
</g>
<!-- Node9 -->
<g id="Node000009" class="node">
<title>Node9</title>
<g id="a_Node000009"><a xlink:href="a01940.html" target="_top" xlink:title=" ">
<polygon fill="white" stroke="#666666" points="1061.92,-73 997.92,-73 997.92,-54.5 1061.92,-54.5 1061.92,-73"/>
<text text-anchor="middle" x="1029.92" y="-59.5" font-family="Helvetica,sans-Serif" font-size="10.00">arax_plot.c</text>
</a>
</g>
</g>
<!-- Node4&#45;&gt;Node9 -->
<g id="edge8_Node000004_Node000009" class="edge">
<title>Node4&#45;&gt;Node9</title>
<g id="a_edge8_Node000004_Node000009"><a xlink:title=" ">
<path fill="none" stroke="#63b8ff" d="M664.43,-113.06C733.93,-106.26 872.36,-91.69 988.92,-73 991.79,-72.54 994.76,-72.02 997.74,-71.48"/>
<polygon fill="#63b8ff" stroke="#63b8ff" points="664.5,-109.64 654.88,-114.09 665.17,-116.6 664.5,-109.64"/>
</a>
</g>
</g>
<!-- Node10 -->
<g id="Node000010" class="node">
<title>Node10</title>
<g id="a_Node000010"><a xlink:href="a01919.html" target="_top" xlink:title=" ">
<polygon fill="white" stroke="#666666" points="794.05,-73 733.8,-73 733.8,-54.5 794.05,-54.5 794.05,-73"/>
<text text-anchor="middle" x="763.92" y="-59.5" font-family="Helvetica,sans-Serif" font-size="10.00">arax_ptr.c</text>
</a>
</g>
</g>
<!-- Node4&#45;&gt;Node10 -->
<g id="edge9_Node000004_Node000010" class="edge">
<title>Node4&#45;&gt;Node10</title>
<g id="a_edge9_Node000004_Node000010"><a xlink:title=" ">
<path fill="none" stroke="#63b8ff" d="M653.7,-104.93C680.24,-95.26 716.54,-82.02 740.11,-73.43"/>
<polygon fill="#63b8ff" stroke="#63b8ff" points="652.9,-101.87 644.7,-108.58 655.3,-108.44 652.9,-101.87"/>
</a>
</g>
</g>
<!-- Node11 -->
<g id="Node000011" class="node">
<title>Node11</title>
<g id="a_Node000011"><a xlink:href="a01922.html" target="_top" xlink:title=" ">
<polygon fill="white" stroke="#666666" points="531.8,-73 464.05,-73 464.05,-54.5 531.8,-54.5 531.8,-73"/>
<text text-anchor="middle" x="497.92" y="-59.5" font-family="Helvetica,sans-Serif" font-size="10.00">arax_task.c</text>
</a>
</g>
</g>
<!-- Node4&#45;&gt;Node11 -->
<g id="edge10_Node000004_Node000011" class="edge">
<title>Node4&#45;&gt;Node11</title>
<g id="a_edge10_Node000004_Node000011"><a xlink:title=" ">
<path fill="none" stroke="#63b8ff" d="M589.8,-104.29C567.46,-94.67 537.62,-81.83 518.1,-73.43"/>
<polygon fill="#63b8ff" stroke="#63b8ff" points="588.21,-107.84 598.78,-108.58 590.98,-101.41 588.21,-107.84"/>
</a>
</g>
</g>
<!-- Node12 -->
<g id="Node000012" class="node">
<title>Node12</title>
<g id="a_Node000012"><a xlink:href="a01928.html" target="_top" xlink:title=" ">
<polygon fill="white" stroke="#666666" points="889.3,-73 812.55,-73 812.55,-54.5 889.3,-54.5 889.3,-73"/>
<text text-anchor="middle" x="850.92" y="-59.5" font-family="Helvetica,sans-Serif" font-size="10.00">arax_vaccel.c</text>
</a>
</g>
</g>
<!-- Node4&#45;&gt;Node12 -->
<g id="edge11_Node000004_Node000012" class="edge">
<title>Node4&#45;&gt;Node12</title>
<g id="a_edge11_Node000004_Node000012"><a xlink:title=" ">
<path fill="none" stroke="#63b8ff" d="M664.22,-107.18C707.24,-97.41 771.85,-82.72 812.68,-73.44"/>
<polygon fill="#63b8ff" stroke="#63b8ff" points="663.49,-103.99 654.51,-109.62 665.04,-110.81 663.49,-103.99"/>
</a>
</g>
</g>
<!-- Node13 -->
<g id="Node000013" class="node">
<title>Node13</title>
<g id="a_Node000013"><a xlink:href="a01898.html" target="_top" xlink:title=" ">
<polygon fill="white" stroke="#666666" points="592.05,-73 549.8,-73 549.8,-54.5 592.05,-54.5 592.05,-73"/>
<text text-anchor="middle" x="570.92" y="-59.5" font-family="Helvetica,sans-Serif" font-size="10.00">impl.c</text>
</a>
</g>
</g>
<!-- Node4&#45;&gt;Node13 -->
<g id="edge12_Node000004_Node000013" class="edge">
<title>Node4&#45;&gt;Node13</title>
<g id="a_edge12_Node000004_Node000013"><a xlink:title=" ">
<path fill="none" stroke="#63b8ff" d="M604.37,-100.58C595.88,-91.49 585.74,-80.62 578.86,-73.26"/>
<polygon fill="#63b8ff" stroke="#63b8ff" points="601.45,-102.66 610.83,-107.58 606.57,-97.88 601.45,-102.66"/>
</a>
</g>
</g>
<!-- Node14&#45;&gt;Node7 -->
<g id="edge22_Node000014_Node000007" class="edge">
<title>Node14&#45;&gt;Node7</title>
<g id="a_edge22_Node000014_Node000007"><a xlink:title=" ">
<path fill="none" stroke="#63b8ff" d="M249.3,-279.33C177.92,-276.23 49.56,-266.54 15.92,-236.5 -2.82,-219.77 4.29,-206.9 0.92,-182 -11.61,-89.24 140.4,-69.77 213.25,-65.75"/>
<polygon fill="#63b8ff" stroke="#63b8ff" points="249.11,-282.86 259.25,-279.77 249.4,-275.87 249.11,-282.86"/>
</a>
</g>
</g>
<!-- Node15 -->
<g id="Node000015" class="node">
<title>Node15</title>
<g id="a_Node000015"><a xlink:href="a01937.html" target="_top" xlink:title=" ">
<polygon fill="white" stroke="#666666" points="183.92,-236.5 107.92,-236.5 107.92,-218 183.92,-218 183.92,-236.5"/>
<text text-anchor="middle" x="145.92" y="-223" font-family="Helvetica,sans-Serif" font-size="10.00">arax_assert.c</text>
</a>
</g>
</g>
<!-- Node14&#45;&gt;Node15 -->
<g id="edge14_Node000014_Node000015" class="edge">
<title>Node14&#45;&gt;Node15</title>
<g id="a_edge14_Node000014_Node000015"><a xlink:title=" ">
<path fill="none" stroke="#63b8ff" d="M262.64,-268.56C234.59,-258.88 196.05,-245.56 171.06,-236.93"/>
<polygon fill="#63b8ff" stroke="#63b8ff" points="261.23,-272.12 271.82,-272.08 263.51,-265.51 261.23,-272.12"/>
</a>
</g>
</g>
<!-- Node16 -->
<g id="Node000016" class="node">
<title>Node16</title>
<g id="a_Node000016"><a xlink:href="a01397.html" target="_top" xlink:title=" ">
<polygon fill="white" stroke="#666666" points="469.8,-127.5 402.05,-127.5 402.05,-109 469.8,-109 469.8,-127.5"/>
<text text-anchor="middle" x="435.92" y="-114" font-family="Helvetica,sans-Serif" font-size="10.00">arax_data.h</text>
</a>
</g>
</g>
<!-- Node14&#45;&gt;Node16 -->
<g id="edge15_Node000014_Node000016" class="edge">
<title>Node14&#45;&gt;Node16</title>
<g id="a_edge15_Node000014_Node000016"><a xlink:title=" ">
<path fill="none" stroke="#63b8ff" d="M295.56,-261.47C293.55,-236.1 293.98,-191.43 316.92,-163.5 337.7,-138.21 374.42,-127.37 401.59,-122.73"/>
<polygon fill="#63b8ff" stroke="#63b8ff" points="292.16,-261.63 296.65,-271.23 299.12,-260.92 292.16,-261.63"/>
</a>
</g>
</g>
<!-- Node18 -->
<g id="Node000018" class="node">
<title>Node18</title>
<g id="a_Node000018"><a xlink:href="a01406.html" target="_top" xlink:title=" ">
<polygon fill="white" stroke="#666666" points="269.8,-236.5 202.05,-236.5 202.05,-218 269.8,-218 269.8,-236.5"/>
<text text-anchor="middle" x="235.92" y="-223" font-family="Helvetica,sans-Serif" font-size="10.00">arax_proc.h</text>
</a>
</g>
</g>
<!-- Node14&#45;&gt;Node18 -->
<g id="edge23_Node000014_Node000018" class="edge">
<title>Node14&#45;&gt;Node18</title>
<g id="a_edge23_Node000014_Node000018"><a xlink:title=" ">
<path fill="none" stroke="#63b8ff" d="M279.56,-265.2C268.57,-255.89 255.03,-244.43 245.97,-236.76"/>
<polygon fill="#63b8ff" stroke="#63b8ff" points="276.79,-268.29 286.69,-272.08 281.32,-262.95 276.79,-268.29"/>
</a>
</g>
</g>
<!-- Node21 -->
<g id="Node000021" class="node">
<title>Node21</title>
<g id="a_Node000021"><a xlink:href="a01418.html" target="_top" xlink:title=" ">
<polygon fill="white" stroke="#666666" points="592.3,-236.5 515.55,-236.5 515.55,-218 592.3,-218 592.3,-236.5"/>
<text text-anchor="middle" x="553.92" y="-223" font-family="Helvetica,sans-Serif" font-size="10.00">arax_vaccel.h</text>
</a>
</g>
</g>
<!-- Node14&#45;&gt;Node21 -->
<g id="edge30_Node000014_Node000021" class="edge">
<title>Node14&#45;&gt;Node21</title>
<g id="a_edge30_Node000014_Node000021"><a xlink:title=" ">
<path fill="none" stroke="#63b8ff" d="M346.05,-270.88C394.96,-260.85 469.79,-245.5 515.07,-236.22"/>
<polygon fill="#63b8ff" stroke="#63b8ff" points="345.52,-267.62 336.42,-273.06 346.92,-274.48 345.52,-267.62"/>
</a>
</g>
</g>
<!-- Node23 -->
<g id="Node000023" class="node">
<title>Node23</title>
<g id="a_Node000023"><a xlink:href="a02355.html" target="_top" xlink:title=" ">
<polygon fill="white" stroke="#666666" points="375.8,-236.5 326.05,-236.5 326.05,-218 375.8,-218 375.8,-236.5"/>
<text text-anchor="middle" x="350.92" y="-223" font-family="Helvetica,sans-Serif" font-size="10.00">async.h</text>
</a>
</g>
</g>
<!-- Node14&#45;&gt;Node23 -->
<g id="edge36_Node000014_Node000023" class="edge">
<title>Node14&#45;&gt;Node23</title>
<g id="a_edge36_Node000014_Node000023"><a xlink:title=" ">
<path fill="none" stroke="#63b8ff" d="M314.47,-264.36C323.7,-255.22 334.82,-244.2 342.33,-236.76"/>
<polygon fill="#63b8ff" stroke="#63b8ff" points="312.32,-261.56 307.68,-271.08 317.24,-266.53 312.32,-261.56"/>
</a>
</g>
</g>
<!-- Node25 -->
<g id="Node000025" class="node">
<title>Node25</title>
<g id="a_Node000025"><a xlink:href="a02358.html" target="_top" xlink:title=" ">
<polygon fill="white" stroke="#666666" points="443.8,-236.5 394.05,-236.5 394.05,-218 443.8,-218 443.8,-236.5"/>
<text text-anchor="middle" x="418.92" y="-223" font-family="Helvetica,sans-Serif" font-size="10.00">async.h</text>
</a>
</g>
</g>
<!-- Node14&#45;&gt;Node25 -->
<g id="edge38_Node000014_Node000025" class="edge">
<title>Node14&#45;&gt;Node25</title>
<g id="a_edge38_Node000014_Node000025"><a xlink:title=" ">
<path fill="none" stroke="#63b8ff" d="M327.8,-267.79C349.95,-258.17 379.55,-245.33 398.91,-236.93"/>
<polygon fill="#63b8ff" stroke="#63b8ff" points="326.69,-264.89 318.9,-272.08 329.47,-271.31 326.69,-264.89"/>
</a>
</g>
</g>
<!-- Node27 -->
<g id="Node000027" class="node">
<title>Node27</title>
<g id="a_Node000027"><a xlink:href="a02361.html" target="_top" xlink:title=" ">
<polygon fill="white" stroke="#666666" points="74.8,-236.5 25.05,-236.5 25.05,-218 74.8,-218 74.8,-236.5"/>
<text text-anchor="middle" x="49.92" y="-223" font-family="Helvetica,sans-Serif" font-size="10.00">async.h</text>
</a>
</g>
</g>
<!-- Node14&#45;&gt;Node27 -->
<g id="edge40_Node000014_Node000027" class="edge">
<title>Node14&#45;&gt;Node27</title>
<g id="a_edge40_Node000014_Node000027"><a xlink:title=" ">
<path fill="none" stroke="#63b8ff" d="M249.56,-270.51C197.26,-259.44 115.9,-242.22 75.08,-233.58"/>
<polygon fill="#63b8ff" stroke="#63b8ff" points="248.75,-274.13 259.26,-272.78 250.2,-267.28 248.75,-274.13"/>
</a>
</g>
</g>
<!-- Node16&#45;&gt;Node6 -->
<g id="edge16_Node000016_Node000006" class="edge">
<title>Node16&#45;&gt;Node6</title>
<g id="a_edge16_Node000016_Node000006"><a xlink:title=" ">
<path fill="none" stroke="#63b8ff" d="M430.9,-98.02C427.43,-85.47 422.46,-68.82 416.92,-54.5 412.02,-41.81 405.04,-27.7 400.5,-18.9"/>
<polygon fill="#63b8ff" stroke="#63b8ff" points="427.77,-98.84 433.74,-107.59 434.53,-97.02 427.77,-98.84"/>
</a>
</g>
</g>
<!-- Node16&#45;&gt;Node7 -->
<g id="edge19_Node000016_Node000007" class="edge">
<title>Node16&#45;&gt;Node7</title>
<g id="a_edge19_Node000016_Node000007"><a xlink:title=" ">
<path fill="none" stroke="#63b8ff" d="M395.21,-105.7C360.92,-95.96 312.6,-82.25 281.52,-73.43"/>
<polygon fill="#63b8ff" stroke="#63b8ff" points="393.8,-109.22 404.37,-108.58 395.71,-102.48 393.8,-109.22"/>
</a>
</g>
</g>
<!-- Node16&#45;&gt;Node11 -->
<g id="edge20_Node000016_Node000011" class="edge">
<title>Node16&#45;&gt;Node11</title>
<g id="a_edge20_Node000016_Node000011"><a xlink:title=" ">
<path fill="none" stroke="#63b8ff" d="M454.29,-101.7C465.28,-92.39 478.82,-80.93 487.88,-73.26"/>
<polygon fill="#63b8ff" stroke="#63b8ff" points="452.53,-99.45 447.16,-108.58 457.06,-104.79 452.53,-99.45"/>
</a>
</g>
</g>
<!-- Node16&#45;&gt;Node13 -->
<g id="edge21_Node000016_Node000013" class="edge">
<title>Node16&#45;&gt;Node13</title>
<g id="a_edge21_Node000016_Node000013"><a xlink:title=" ">
<path fill="none" stroke="#63b8ff" d="M468.38,-104.63C493.53,-94.85 527.66,-81.58 549.49,-73.09"/>
<polygon fill="#63b8ff" stroke="#63b8ff" points="467.27,-101.69 459.22,-108.58 469.8,-108.22 467.27,-101.69"/>
</a>
</g>
</g>
<!-- Node17 -->
<g id="Node000017" class="node">
<title>Node17</title>
<g id="a_Node000017"><a xlink:href="a01400.html" target="_top" xlink:title=" ">
<polygon fill="white" stroke="#666666" points="407.67,-73 306.17,-73 306.17,-54.5 407.67,-54.5 407.67,-73"/>
<text text-anchor="middle" x="356.92" y="-59.5" font-family="Helvetica,sans-Serif" font-size="10.00">arax_data_private.h</text>
</a>
</g>
</g>
<!-- Node16&#45;&gt;Node17 -->
<g id="edge17_Node000016_Node000017" class="edge">
<title>Node16&#45;&gt;Node17</title>
<g id="a_edge17_Node000016_Node000017"><a xlink:title=" ">
<path fill="none" stroke="#63b8ff" d="M413.82,-102.56C399.7,-93.18 381.89,-81.34 369.99,-73.43"/>
<polygon fill="#63b8ff" stroke="#63b8ff" points="411.61,-105.96 421.88,-108.58 415.49,-100.13 411.61,-105.96"/>
</a>
</g>
</g>
<!-- Node17&#45;&gt;Node6 -->
<g id="edge18_Node000017_Node000006" class="edge">
<title>Node17&#45;&gt;Node6</title>
<g id="a_edge18_Node000017_Node000006"><a xlink:title=" ">
<path fill="none" stroke="#63b8ff" d="M369.73,-45.52C376.39,-36.54 384.25,-25.97 389.6,-18.76"/>
<polygon fill="#63b8ff" stroke="#63b8ff" points="366.52,-42.97 363.36,-53.08 372.14,-47.14 366.52,-42.97"/>
</a>
</g>
</g>
<!-- Node18&#45;&gt;Node7 -->
<g id="edge24_Node000018_Node000007" class="edge">
<title>Node18&#45;&gt;Node7</title>
<g id="a_edge24_Node000018_Node000007"><a xlink:title=" ">
<path fill="none" stroke="#63b8ff" d="M215.15,-210.95C206.55,-203.33 197.52,-193.32 192.92,-182 189.83,-174.38 190.77,-171.43 192.92,-163.5 202.94,-126.66 230.56,-89.53 243.74,-73.27"/>
<polygon fill="#63b8ff" stroke="#63b8ff" points="212.48,-214.11 222.43,-217.74 216.92,-208.7 212.48,-214.11"/>
</a>
</g>
</g>
<!-- Node19 -->
<g id="Node000019" class="node">
<title>Node19</title>
<g id="a_Node000019"><a xlink:href="a01916.html" target="_top" xlink:title=" ">
<polygon fill="white" stroke="#666666" points="145.8,-182 78.05,-182 78.05,-163.5 145.8,-163.5 145.8,-182"/>
<text text-anchor="middle" x="111.92" y="-168.5" font-family="Helvetica,sans-Serif" font-size="10.00">arax_proc.c</text>
</a>
</g>
</g>
<!-- Node18&#45;&gt;Node19 -->
<g id="edge25_Node000018_Node000019" class="edge">
<title>Node18&#45;&gt;Node19</title>
<g id="a_edge25_Node000018_Node000019"><a xlink:title=" ">
<path fill="none" stroke="#63b8ff" d="M205.61,-213.42C182.88,-203.79 152.36,-190.87 132.43,-182.43"/>
<polygon fill="#63b8ff" stroke="#63b8ff" points="203.87,-216.9 214.45,-217.58 206.6,-210.46 203.87,-216.9"/>
</a>
</g>
</g>
<!-- Node20 -->
<g id="Node000020" class="node">
<title>Node20</title>
<g id="a_Node000020"><a xlink:href="a01412.html" target="_top" xlink:title=" ">
<polygon fill="white" stroke="#666666" points="269.8,-182 202.05,-182 202.05,-163.5 269.8,-163.5 269.8,-182"/>
<text text-anchor="middle" x="235.92" y="-168.5" font-family="Helvetica,sans-Serif" font-size="10.00">arax_task.h</text>
</a>
</g>
</g>
<!-- Node18&#45;&gt;Node20 -->
<g id="edge26_Node000018_Node000020" class="edge">
<title>Node18&#45;&gt;Node20</title>
<g id="a_edge26_Node000018_Node000020"><a xlink:title=" ">
<path fill="none" stroke="#63b8ff" d="M235.92,-206.72C235.92,-198.29 235.92,-188.86 235.92,-182.26"/>
<polygon fill="#63b8ff" stroke="#63b8ff" points="232.42,-206.58 235.92,-216.58 239.42,-206.58 232.42,-206.58"/>
</a>
</g>
</g>
<!-- Node20&#45;&gt;Node4 -->
<g id="edge29_Node000020_Node000004" class="edge">
<title>Node20&#45;&gt;Node4</title>
<g id="a_edge29_Node000020_Node000004"><a xlink:title=" ">
<path fill="none" stroke="#63b8ff" d="M280.88,-165.6C358.74,-154.96 516.95,-133.33 586.2,-123.86"/>
<polygon fill="#63b8ff" stroke="#63b8ff" points="280.43,-162.27 271,-167.09 281.38,-169.2 280.43,-162.27"/>
</a>
</g>
</g>
<!-- Node20&#45;&gt;Node6 -->
<g id="edge27_Node000020_Node000006" class="edge">
<title>Node20&#45;&gt;Node6</title>
<g id="a_edge27_Node000020_Node000006"><a xlink:title=" ">
<path fill="none" stroke="#63b8ff" d="M222.89,-154.4C206.03,-129.68 181.45,-84.04 204.92,-54.5 224.14,-30.32 312.12,-18.18 361.69,-13.17"/>
<polygon fill="#63b8ff" stroke="#63b8ff" points="220.41,-155.95 229.07,-162.06 226.11,-151.88 220.41,-155.95"/>
</a>
</g>
</g>
<!-- Node20&#45;&gt;Node7 -->
<g id="edge28_Node000020_Node000007" class="edge">
<title>Node20&#45;&gt;Node7</title>
<g id="a_edge28_Node000020_Node000007"><a xlink:title=" ">
<path fill="none" stroke="#63b8ff" d="M238.59,-152.7C241.88,-129.3 247.3,-90.57 249.71,-73.4"/>
<polygon fill="#63b8ff" stroke="#63b8ff" points="235.02,-151.96 237.1,-162.35 241.96,-152.94 235.02,-151.96"/>
</a>
</g>
</g>
<!-- Node22 -->
<g id="Node000022" class="node">
<title>Node22</title>
<g id="a_Node000022"><a xlink:href="a01391.html" target="_top" xlink:title=" ">
<polygon fill="white" stroke="#666666" points="590.05,-182 517.8,-182 517.8,-163.5 590.05,-163.5 590.05,-182"/>
<text text-anchor="middle" x="553.92" y="-168.5" font-family="Helvetica,sans-Serif" font-size="10.00">arax_accel.h</text>
</a>
</g>
</g>
<!-- Node21&#45;&gt;Node22 -->
<g id="edge31_Node000021_Node000022" class="edge">
<title>Node21&#45;&gt;Node22</title>
<g id="a_edge31_Node000021_Node000022"><a xlink:title=" ">
<path fill="none" stroke="#63b8ff" d="M547.37,-206.72C546.86,-198.29 547.33,-188.86 548.79,-182.26"/>
<polygon fill="#63b8ff" stroke="#63b8ff" points="544.02,-207.1 548.76,-216.58 550.97,-206.22 544.02,-207.1"/>
</a>
</g>
</g>
<!-- Node22&#45;&gt;Node4 -->
<g id="edge34_Node000022_Node000004" class="edge">
<title>Node22&#45;&gt;Node4</title>
<g id="a_edge34_Node000022_Node000004"><a xlink:title=" ">
<path fill="none" stroke="#63b8ff" d="M573.13,-156.47C584.89,-147.12 599.49,-135.5 609.23,-127.76"/>
<polygon fill="#63b8ff" stroke="#63b8ff" points="571.47,-154.12 565.82,-163.08 575.83,-159.59 571.47,-154.12"/>
</a>
</g>
</g>
<!-- Node22&#45;&gt;Node7 -->
<g id="edge33_Node000022_Node000007" class="edge">
<title>Node22&#45;&gt;Node7</title>
<g id="a_edge33_Node000022_Node000007"><a xlink:title=" ">
<path fill="none" stroke="#63b8ff" d="M506.79,-160.75C474.39,-152.72 430.58,-140.91 392.92,-127.5 346.71,-111.04 294.44,-86.27 268.08,-73.32"/>
<polygon fill="#63b8ff" stroke="#63b8ff" points="505.78,-164.35 516.32,-163.33 507.44,-157.55 505.78,-164.35"/>
</a>
</g>
</g>
<!-- Node22&#45;&gt;Node16 -->
<g id="edge32_Node000022_Node000016" class="edge">
<title>Node22&#45;&gt;Node16</title>
<g id="a_edge32_Node000022_Node000016"><a xlink:title=" ">
<path fill="none" stroke="#63b8ff" d="M524.49,-158.66C502.92,-149.06 474.24,-136.3 455.44,-127.93"/>
<polygon fill="#63b8ff" stroke="#63b8ff" points="522.88,-162.21 533.44,-163.08 525.72,-155.82 522.88,-162.21"/>
</a>
</g>
</g>
<!-- Node22&#45;&gt;Node21 -->
<g id="edge35_Node000022_Node000021" class="edge">
<title>Node22&#45;&gt;Node21</title>
<g id="a_edge35_Node000022_Node000021"><a xlink:title=" ">
<path fill="none" stroke="#63b8ff" d="M560.46,-193.08C560.99,-201.49 560.53,-210.93 559.09,-217.58"/>
<polygon fill="#63b8ff" stroke="#63b8ff" points="563.81,-192.72 559.05,-183.26 556.87,-193.63 563.81,-192.72"/>
</a>
</g>
</g>
<!-- Node24 -->
<g id="Node000024" class="node">
<title>Node24</title>
<g id="a_Node000024"><a xlink:href="a02346.html" target="_top" xlink:title=" ">
<polygon fill="white" stroke="#666666" points="375.8,-182 326.05,-182 326.05,-163.5 375.8,-163.5 375.8,-182"/>
<text text-anchor="middle" x="350.92" y="-168.5" font-family="Helvetica,sans-Serif" font-size="10.00">async.c</text>
</a>
</g>
</g>
<!-- Node23&#45;&gt;Node24 -->
<g id="edge37_Node000023_Node000024" class="edge">
<title>Node23&#45;&gt;Node24</title>
<g id="a_edge37_Node000023_Node000024"><a xlink:title=" ">
<path fill="none" stroke="#63b8ff" d="M350.92,-206.72C350.92,-198.29 350.92,-188.86 350.92,-182.26"/>
<polygon fill="#63b8ff" stroke="#63b8ff" points="347.42,-206.58 350.92,-216.58 354.42,-206.58 347.42,-206.58"/>
</a>
</g>
</g>
<!-- Node26 -->
<g id="Node000026" class="node">
<title>Node26</title>
<g id="a_Node000026"><a xlink:href="a02349.html" target="_top" xlink:title=" ">
<polygon fill="white" stroke="#666666" points="443.8,-182 394.05,-182 394.05,-163.5 443.8,-163.5 443.8,-182"/>
<text text-anchor="middle" x="418.92" y="-168.5" font-family="Helvetica,sans-Serif" font-size="10.00">async.c</text>
</a>
</g>
</g>
<!-- Node25&#45;&gt;Node26 -->
<g id="edge39_Node000025_Node000026" class="edge">
<title>Node25&#45;&gt;Node26</title>
<g id="a_edge39_Node000025_Node000026"><a xlink:title=" ">
<path fill="none" stroke="#63b8ff" d="M418.92,-206.72C418.92,-198.29 418.92,-188.86 418.92,-182.26"/>
<polygon fill="#63b8ff" stroke="#63b8ff" points="415.42,-206.58 418.92,-216.58 422.42,-206.58 415.42,-206.58"/>
</a>
</g>
</g>
<!-- Node28 -->
<g id="Node000028" class="node">
<title>Node28</title>
<g id="a_Node000028"><a xlink:href="a02352.html" target="_top" xlink:title=" ">
<polygon fill="white" stroke="#666666" points="59.8,-182 10.05,-182 10.05,-163.5 59.8,-163.5 59.8,-182"/>
<text text-anchor="middle" x="34.92" y="-168.5" font-family="Helvetica,sans-Serif" font-size="10.00">async.c</text>
</a>
</g>
</g>
<!-- Node27&#45;&gt;Node28 -->
<g id="edge41_Node000027_Node000028" class="edge">
<title>Node27&#45;&gt;Node28</title>
<g id="a_edge41_Node000027_Node000028"><a xlink:title=" ">
<path fill="none" stroke="#63b8ff" d="M44.43,-207.01C42,-198.5 39.26,-188.94 37.35,-182.26"/>
<polygon fill="#63b8ff" stroke="#63b8ff" points="41.33,-207.93 47.45,-216.58 48.06,-206 41.33,-207.93"/>
</a>
</g>
</g>
<!-- Node30 -->
<g id="Node000030" class="node">
<title>Node30</title>
<g id="a_Node000030"><a xlink:href="a01355.html" target="_top" xlink:title=" ">
<polygon fill="white" stroke="#666666" points="764.17,-236.5 719.67,-236.5 719.67,-218 764.17,-218 764.17,-236.5"/>
<text text-anchor="middle" x="741.92" y="-223" font-family="Helvetica,sans-Serif" font-size="10.00">alloc.h</text>
</a>
</g>
</g>
<!-- Node29&#45;&gt;Node30 -->
<g id="edge43_Node000029_Node000030" class="edge">
<title>Node29&#45;&gt;Node30</title>
<g id="a_edge43_Node000029_Node000030"><a xlink:title=" ">
<path fill="none" stroke="#63b8ff" d="M697.59,-265.2C708.75,-255.89 722.51,-244.43 731.71,-236.76"/>
<polygon fill="#63b8ff" stroke="#63b8ff" points="695.77,-262.99 690.33,-272.08 700.25,-268.37 695.77,-262.99"/>
</a>
</g>
</g>
<!-- Node32 -->
<g id="Node000032" class="node">
<title>Node32</title>
<g id="a_Node000032"><a xlink:href="a01943.html" target="_top" xlink:title=" ">
<polygon fill="white" stroke="#666666" points="701.67,-236.5 648.17,-236.5 648.17,-218 701.67,-218 701.67,-236.5"/>
<text text-anchor="middle" x="674.92" y="-223" font-family="Helvetica,sans-Serif" font-size="10.00">bitmap.c</text>
</a>
</g>
</g>
<!-- Node29&#45;&gt;Node32 -->
<g id="edge46_Node000029_Node000032" class="edge">
<title>Node29&#45;&gt;Node32</title>
<g id="a_edge46_Node000029_Node000032"><a xlink:title=" ">
<path fill="none" stroke="#63b8ff" d="M677.44,-261.22C676.79,-252.79 676.08,-243.36 675.57,-236.76"/>
<polygon fill="#63b8ff" stroke="#63b8ff" points="674.01,-261.38 678.26,-271.08 680.99,-260.84 674.01,-261.38"/>
</a>
</g>
</g>
<!-- Node30&#45;&gt;Node9 -->
<g id="edge44_Node000030_Node000009" class="edge">
<title>Node30&#45;&gt;Node9</title>
<g id="a_edge44_Node000030_Node000009"><a xlink:title=" ">
<path fill="none" stroke="#63b8ff" d="M766.89,-212.25C824.84,-179.75 967.09,-99.99 1014.36,-73.48"/>
<polygon fill="#63b8ff" stroke="#63b8ff" points="765.42,-209.62 758.41,-217.57 768.84,-215.73 765.42,-209.62"/>
</a>
</g>
</g>
<!-- Node31 -->
<g id="Node000031" class="node">
<title>Node31</title>
<g id="a_Node000031"><a xlink:href="a01889.html" target="_top" xlink:title=" ">
<polygon fill="white" stroke="#666666" points="726.3,-182 673.55,-182 673.55,-163.5 726.3,-163.5 726.3,-182"/>
<text text-anchor="middle" x="699.92" y="-168.5" font-family="Helvetica,sans-Serif" font-size="10.00">malloc.c</text>
</a>
</g>
</g>
<!-- Node30&#45;&gt;Node31 -->
<g id="edge45_Node000030_Node000031" class="edge">
<title>Node30&#45;&gt;Node31</title>
<g id="a_edge45_Node000030_Node000031"><a xlink:title=" ">
<path fill="none" stroke="#63b8ff" d="M728.14,-209.02C720.96,-200.04 712.5,-189.47 706.73,-182.26"/>
<polygon fill="#63b8ff" stroke="#63b8ff" points="726.01,-210.96 734.99,-216.58 731.47,-206.59 726.01,-210.96"/>
</a>
</g>
</g>
<!-- Node33&#45;&gt;Node4 -->
<g id="edge48_Node000033_Node000004" class="edge">
<title>Node33&#45;&gt;Node4</title>
<g id="a_edge48_Node000033_Node000004"><a xlink:title=" ">
<path fill="none" stroke="#63b8ff" d="M775.29,-261.74C776.8,-249.06 777.38,-232.18 772.92,-218 764.07,-189.83 758.17,-181.71 734.92,-163.5 711.01,-144.76 678.24,-133.2 653.8,-126.61"/>
<polygon fill="#63b8ff" stroke="#63b8ff" points="771.72,-260.98 773.69,-271.39 778.64,-262.02 771.72,-260.98"/>
</a>
</g>
</g>
<!-- Node33&#45;&gt;Node21 -->
<g id="edge49_Node000033_Node000021" class="edge">
<title>Node33&#45;&gt;Node21</title>
<g id="a_edge49_Node000033_Node000021"><a xlink:title=" ">
<path fill="none" stroke="#63b8ff" d="M736.05,-272.11C695.69,-262.39 630.5,-246.69 590.04,-236.95"/>
<polygon fill="#63b8ff" stroke="#63b8ff" points="734.95,-275.69 745.49,-274.62 736.59,-268.88 734.95,-275.69"/>
</a>
</g>
</g>
<!-- Node34 -->
<g id="Node000034" class="node">
<title>Node34</title>
<g id="a_Node000034"><a xlink:href="a01949.html" target="_top" xlink:title=" ">
<polygon fill="white" stroke="#666666" points="870.17,-236.5 819.67,-236.5 819.67,-218 870.17,-218 870.17,-236.5"/>
<text text-anchor="middle" x="844.92" y="-223" font-family="Helvetica,sans-Serif" font-size="10.00">queue.c</text>
</a>
</g>
</g>
<!-- Node33&#45;&gt;Node34 -->
<g id="edge50_Node000033_Node000034" class="edge">
<title>Node33&#45;&gt;Node34</title>
<g id="a_edge50_Node000033_Node000034"><a xlink:title=" ">
<path fill="none" stroke="#63b8ff" d="M792.79,-265.75C805.85,-256.35 822.22,-244.58 833.09,-236.76"/>
<polygon fill="#63b8ff" stroke="#63b8ff" points="791.05,-263.4 784.98,-272.08 795.14,-269.08 791.05,-263.4"/>
</a>
</g>
</g>
</g>
</svg>
