<?xml version="1.0" encoding="UTF-8" standalone="no"?>
<!DOCTYPE svg PUBLIC "-//W3C//DTD SVG 1.1//EN"
 "http://www.w3.org/Graphics/SVG/1.1/DTD/svg11.dtd">
<!-- Generated by graphviz version 8.0.5 (0)
 -->
<!-- Title: Kv.h Pages: 1 -->
<svg width="745pt" height="136pt"
 viewBox="0.00 0.00 745.25 135.50" xmlns="http://www.w3.org/2000/svg" xmlns:xlink="http://www.w3.org/1999/xlink">
<g id="graph0" class="graph" transform="scale(1 1) rotate(0) translate(4 131.5)">
<title>Kv.h</title>
<!-- Node1 -->
<g id="Node000001" class="node">
<title>Node1</title>
<g id="a_Node000001"><a xlink:title=" ">
<polygon fill="#999999" stroke="#666666" points="368.88,-127.5 333.38,-127.5 333.38,-109 368.88,-109 368.88,-127.5"/>
<text text-anchor="middle" x="351.12" y="-114" font-family="Helvetica,sans-Serif" font-size="10.00">Kv.h</text>
</a>
</g>
</g>
<!-- Node2 -->
<g id="Node000002" class="node">
<title>Node2</title>
<g id="a_Node000002"><a xlink:href="a01934.html" target="_top" xlink:title=" ">
<polygon fill="white" stroke="#666666" points="334.88,-73 299.38,-73 299.38,-54.5 334.88,-54.5 334.88,-73"/>
<text text-anchor="middle" x="317.12" y="-59.5" font-family="Helvetica,sans-Serif" font-size="10.00">Kv.c</text>
</a>
</g>
</g>
<!-- Node1&#45;&gt;Node2 -->
<g id="edge1_Node000001_Node000002" class="edge">
<title>Node1&#45;&gt;Node2</title>
<g id="a_edge1_Node000001_Node000002"><a xlink:title=" ">
<path fill="none" stroke="#63b8ff" d="M339.6,-99.45C333.87,-90.6 327.21,-80.32 322.63,-73.26"/>
<polygon fill="#63b8ff" stroke="#63b8ff" points="337.14,-101.09 345.51,-107.58 343.01,-97.28 337.14,-101.09"/>
</a>
</g>
</g>
<!-- Node3 -->
<g id="Node000003" class="node">
<title>Node3</title>
<g id="a_Node000003"><a xlink:href="a01349.html" target="_top" xlink:title=" ">
<polygon fill="white" stroke="#666666" points="419.62,-73 352.62,-73 352.62,-54.5 419.62,-54.5 419.62,-73"/>
<text text-anchor="middle" x="386.12" y="-59.5" font-family="Helvetica,sans-Serif" font-size="10.00">arax_pipe.h</text>
</a>
</g>
</g>
<!-- Node1&#45;&gt;Node3 -->
<g id="edge2_Node000001_Node000003" class="edge">
<title>Node1&#45;&gt;Node3</title>
<g id="a_edge2_Node000001_Node000003"><a xlink:title=" ">
<path fill="none" stroke="#63b8ff" d="M362.99,-99.45C368.89,-90.6 375.75,-80.32 380.45,-73.26"/>
<polygon fill="#63b8ff" stroke="#63b8ff" points="359.54,-97.32 356.9,-107.58 365.36,-101.2 359.54,-97.32"/>
</a>
</g>
</g>
<!-- Node4 -->
<g id="Node000004" class="node">
<title>Node4</title>
<g id="a_Node000004"><a xlink:href="a01904.html" target="_top" xlink:title=" ">
<polygon fill="white" stroke="#666666" points="72.25,-18.5 0,-18.5 0,0 72.25,0 72.25,-18.5"/>
<text text-anchor="middle" x="36.12" y="-5" font-family="Helvetica,sans-Serif" font-size="10.00">arax_accel.c</text>
</a>
</g>
</g>
<!-- Node3&#45;&gt;Node4 -->
<g id="edge3_Node000003_Node000004" class="edge">
<title>Node3&#45;&gt;Node4</title>
<g id="a_edge3_Node000003_Node000004"><a xlink:title=" ">
<path fill="none" stroke="#63b8ff" d="M341.53,-54.15C225.91,-35.22 194.21,-36.6 81.12,-18.5 78.3,-18.05 75.38,-17.56 72.45,-17.06"/>
<polygon fill="#63b8ff" stroke="#63b8ff" points="340.79,-57.74 351.23,-55.92 341.93,-50.83 340.79,-57.74"/>
</a>
</g>
</g>
<!-- Node5 -->
<g id="Node000005" class="node">
<title>Node5</title>
<g id="a_Node000005"><a xlink:href="a01931.html" target="_top" xlink:title=" ">
<polygon fill="white" stroke="#666666" points="158,-18.5 90.25,-18.5 90.25,0 158,0 158,-18.5"/>
<text text-anchor="middle" x="124.12" y="-5" font-family="Helvetica,sans-Serif" font-size="10.00">arax_data.c</text>
</a>
</g>
</g>
<!-- Node3&#45;&gt;Node5 -->
<g id="edge4_Node000003_Node000005" class="edge">
<title>Node3&#45;&gt;Node5</title>
<g id="a_edge4_Node000003_Node000005"><a xlink:title=" ">
<path fill="none" stroke="#63b8ff" d="M341.61,-53.83C289.83,-43.45 205.45,-26.55 158.46,-17.13"/>
<polygon fill="#63b8ff" stroke="#63b8ff" points="340.65,-57.41 351.14,-55.94 342.02,-50.54 340.65,-57.41"/>
</a>
</g>
</g>
<!-- Node6 -->
<g id="Node000006" class="node">
<title>Node6</title>
<g id="a_Node000006"><a xlink:href="a01910.html" target="_top" xlink:title=" ">
<polygon fill="white" stroke="#666666" points="250.38,-18.5 175.88,-18.5 175.88,0 250.38,0 250.38,-18.5"/>
<text text-anchor="middle" x="213.12" y="-5" font-family="Helvetica,sans-Serif" font-size="10.00">arax_object.c</text>
</a>
</g>
</g>
<!-- Node3&#45;&gt;Node6 -->
<g id="edge5_Node000003_Node000006" class="edge">
<title>Node3&#45;&gt;Node6</title>
<g id="a_edge5_Node000003_Node000006"><a xlink:title=" ">
<path fill="none" stroke="#63b8ff" d="M347.22,-50.94C315.2,-41.23 270.55,-27.68 241.73,-18.93"/>
<polygon fill="#63b8ff" stroke="#63b8ff" points="345.97,-54.53 356.56,-54.08 348,-47.83 345.97,-54.53"/>
</a>
</g>
</g>
<!-- Node7 -->
<g id="Node000007" class="node">
<title>Node7</title>
<g id="a_Node000007"><a xlink:href="a01913.html" target="_top" xlink:title=" ">
<polygon fill="white" stroke="#666666" points="335.62,-18.5 268.62,-18.5 268.62,0 335.62,0 335.62,-18.5"/>
<text text-anchor="middle" x="302.12" y="-5" font-family="Helvetica,sans-Serif" font-size="10.00">arax_pipe.c</text>
</a>
</g>
</g>
<!-- Node3&#45;&gt;Node7 -->
<g id="edge6_Node000003_Node000007" class="edge">
<title>Node3&#45;&gt;Node7</title>
<g id="a_edge6_Node000003_Node000007"><a xlink:title=" ">
<path fill="none" stroke="#63b8ff" d="M363.05,-48.33C347.98,-38.91 328.79,-26.92 316.02,-18.93"/>
<polygon fill="#63b8ff" stroke="#63b8ff" points="360.92,-51.75 371.25,-54.08 364.63,-45.81 360.92,-51.75"/>
</a>
</g>
</g>
<!-- Node8 -->
<g id="Node000008" class="node">
<title>Node8</title>
<g id="a_Node000008"><a xlink:href="a01940.html" target="_top" xlink:title=" ">
<polygon fill="white" stroke="#666666" points="418.12,-18.5 354.12,-18.5 354.12,0 418.12,0 418.12,-18.5"/>
<text text-anchor="middle" x="386.12" y="-5" font-family="Helvetica,sans-Serif" font-size="10.00">arax_plot.c</text>
</a>
</g>
</g>
<!-- Node3&#45;&gt;Node8 -->
<g id="edge7_Node000003_Node000008" class="edge">
<title>Node3&#45;&gt;Node8</title>
<g id="a_edge7_Node000003_Node000008"><a xlink:title=" ">
<path fill="none" stroke="#63b8ff" d="M386.12,-43.22C386.12,-34.79 386.12,-25.36 386.12,-18.76"/>
<polygon fill="#63b8ff" stroke="#63b8ff" points="382.63,-43.08 386.12,-53.08 389.63,-43.08 382.63,-43.08"/>
</a>
</g>
</g>
<!-- Node9 -->
<g id="Node000009" class="node">
<title>Node9</title>
<g id="a_Node000009"><a xlink:href="a01919.html" target="_top" xlink:title=" ">
<polygon fill="white" stroke="#666666" points="496.25,-18.5 436,-18.5 436,0 496.25,0 496.25,-18.5"/>
<text text-anchor="middle" x="466.12" y="-5" font-family="Helvetica,sans-Serif" font-size="10.00">arax_ptr.c</text>
</a>
</g>
</g>
<!-- Node3&#45;&gt;Node9 -->
<g id="edge8_Node000003_Node000009" class="edge">
<title>Node3&#45;&gt;Node9</title>
<g id="a_edge8_Node000003_Node000009"><a xlink:title=" ">
<path fill="none" stroke="#63b8ff" d="M408.51,-48.06C422.8,-38.68 440.85,-26.84 452.9,-18.93"/>
<polygon fill="#63b8ff" stroke="#63b8ff" points="406.78,-45.67 400.34,-54.08 410.62,-51.52 406.78,-45.67"/>
</a>
</g>
</g>
<!-- Node10 -->
<g id="Node000010" class="node">
<title>Node10</title>
<g id="a_Node000010"><a xlink:href="a01922.html" target="_top" xlink:title=" ">
<polygon fill="white" stroke="#666666" points="582,-18.5 514.25,-18.5 514.25,0 582,0 582,-18.5"/>
<text text-anchor="middle" x="548.12" y="-5" font-family="Helvetica,sans-Serif" font-size="10.00">arax_task.c</text>
</a>
</g>
</g>
<!-- Node3&#45;&gt;Node10 -->
<g id="edge9_Node000003_Node000010" class="edge">
<title>Node3&#45;&gt;Node10</title>
<g id="a_edge9_Node000003_Node000010"><a xlink:title=" ">
<path fill="none" stroke="#63b8ff" d="M423.34,-50.69C453.26,-40.99 494.59,-27.6 521.33,-18.93"/>
<polygon fill="#63b8ff" stroke="#63b8ff" points="422.31,-47.67 413.88,-54.08 424.47,-54.33 422.31,-47.67"/>
</a>
</g>
</g>
<!-- Node11 -->
<g id="Node000011" class="node">
<title>Node11</title>
<g id="a_Node000011"><a xlink:href="a01928.html" target="_top" xlink:title=" ">
<polygon fill="white" stroke="#666666" points="676.5,-18.5 599.75,-18.5 599.75,0 676.5,0 676.5,-18.5"/>
<text text-anchor="middle" x="638.12" y="-5" font-family="Helvetica,sans-Serif" font-size="10.00">arax_vaccel.c</text>
</a>
</g>
</g>
<!-- Node3&#45;&gt;Node11 -->
<g id="edge10_Node000003_Node000011" class="edge">
<title>Node3&#45;&gt;Node11</title>
<g id="a_edge10_Node000003_Node000011"><a xlink:title=" ">
<path fill="none" stroke="#63b8ff" d="M430.77,-53.45C478.63,-43.48 553.84,-27.81 599.32,-18.33"/>
<polygon fill="#63b8ff" stroke="#63b8ff" points="430.19,-50.2 421.11,-55.67 431.61,-57.06 430.19,-50.2"/>
</a>
</g>
</g>
<!-- Node12 -->
<g id="Node000012" class="node">
<title>Node12</title>
<g id="a_Node000012"><a xlink:href="a01898.html" target="_top" xlink:title=" ">
<polygon fill="white" stroke="#666666" points="737.25,-18.5 695,-18.5 695,0 737.25,0 737.25,-18.5"/>
<text text-anchor="middle" x="716.12" y="-5" font-family="Helvetica,sans-Serif" font-size="10.00">impl.c</text>
</a>
</g>
</g>
<!-- Node3&#45;&gt;Node12 -->
<g id="edge11_Node000003_Node000012" class="edge">
<title>Node3&#45;&gt;Node12</title>
<g id="a_edge11_Node000003_Node000012"><a xlink:title=" ">
<path fill="none" stroke="#63b8ff" d="M430.71,-57.75C489.38,-50.81 595.56,-36.98 685.12,-18.5 688.18,-17.87 691.38,-17.12 694.52,-16.33"/>
<polygon fill="#63b8ff" stroke="#63b8ff" points="430.5,-54.37 420.97,-59.01 431.31,-61.32 430.5,-54.37"/>
</a>
</g>
</g>
</g>
</svg>
