<?xml version="1.0" encoding="UTF-8" standalone="no"?>
<!DOCTYPE svg PUBLIC "-//W3C//DTD SVG 1.1//EN"
 "http://www.w3.org/Graphics/SVG/1.1/DTD/svg11.dtd">
<!-- Generated by graphviz version 8.0.5 (0)
 -->
<!-- Title: arax_accel.h Pages: 1 -->
<svg width="831pt" height="190pt"
 viewBox="0.00 0.00 831.04 190.00" xmlns="http://www.w3.org/2000/svg" xmlns:xlink="http://www.w3.org/1999/xlink">
<g id="graph0" class="graph" transform="scale(1 1) rotate(0) translate(4 186)">
<title>arax_accel.h</title>
<!-- Node1 -->
<g id="Node000001" class="node">
<title>Node1</title>
<g id="a_Node000001"><a xlink:title=" ">
<polygon fill="#999999" stroke="#666666" points="417.67,-182 345.42,-182 345.42,-163.5 417.67,-163.5 417.67,-182"/>
<text text-anchor="middle" x="381.54" y="-168.5" font-family="Helvetica,sans-Serif" font-size="10.00">arax_accel.h</text>
</a>
</g>
</g>
<!-- Node2 -->
<g id="Node000002" class="node">
<title>Node2</title>
<g id="a_Node000002"><a xlink:href="a01397.html" target="_top" xlink:title=" ">
<polygon fill="white" stroke="#666666" points="238.42,-127.5 170.67,-127.5 170.67,-109 238.42,-109 238.42,-127.5"/>
<text text-anchor="middle" x="204.54" y="-114" font-family="Helvetica,sans-Serif" font-size="10.00">arax_data.h</text>
</a>
</g>
</g>
<!-- Node1&#45;&gt;Node2 -->
<g id="edge1_Node000001_Node000002" class="edge">
<title>Node1&#45;&gt;Node2</title>
<g id="a_edge1_Node000001_Node000002"><a xlink:title=" ">
<path fill="none" stroke="#63b8ff" d="M342.17,-160.07C309.38,-150.35 263.42,-136.71 233.81,-127.93"/>
<polygon fill="#63b8ff" stroke="#63b8ff" points="340.73,-163.59 351.32,-163.08 342.72,-156.88 340.73,-163.59"/>
</a>
</g>
</g>
<!-- Node5 -->
<g id="Node000005" class="node">
<title>Node5</title>
<g id="a_Node000005"><a xlink:href="a01910.html" target="_top" xlink:title=" ">
<polygon fill="white" stroke="#666666" points="353.79,-73 279.29,-73 279.29,-54.5 353.79,-54.5 353.79,-73"/>
<text text-anchor="middle" x="316.54" y="-59.5" font-family="Helvetica,sans-Serif" font-size="10.00">arax_object.c</text>
</a>
</g>
</g>
<!-- Node1&#45;&gt;Node5 -->
<g id="edge8_Node000001_Node000005" class="edge">
<title>Node1&#45;&gt;Node5</title>
<g id="a_edge8_Node000001_Node000005"><a xlink:title=" ">
<path fill="none" stroke="#63b8ff" d="M362.85,-155.96C354.49,-148.1 345.07,-138.05 338.54,-127.5 327.61,-109.83 321.17,-85.99 318.32,-73.39"/>
<polygon fill="#63b8ff" stroke="#63b8ff" points="360.23,-158.21 370.01,-162.27 364.9,-152.99 360.23,-158.21"/>
</a>
</g>
</g>
<!-- Node8 -->
<g id="Node000008" class="node">
<title>Node8</title>
<g id="a_Node000008"><a xlink:href="a01349.html" target="_top" xlink:title=" ">
<polygon fill="white" stroke="#666666" points="415.04,-127.5 348.04,-127.5 348.04,-109 415.04,-109 415.04,-127.5"/>
<text text-anchor="middle" x="381.54" y="-114" font-family="Helvetica,sans-Serif" font-size="10.00">arax_pipe.h</text>
</a>
</g>
</g>
<!-- Node1&#45;&gt;Node8 -->
<g id="edge9_Node000001_Node000008" class="edge">
<title>Node1&#45;&gt;Node8</title>
<g id="a_edge9_Node000001_Node000008"><a xlink:title=" ">
<path fill="none" stroke="#63b8ff" d="M381.54,-152.22C381.54,-143.79 381.54,-134.36 381.54,-127.76"/>
<polygon fill="#63b8ff" stroke="#63b8ff" points="378.04,-152.08 381.54,-162.08 385.04,-152.08 378.04,-152.08"/>
</a>
</g>
</g>
<!-- Node14 -->
<g id="Node000014" class="node">
<title>Node14</title>
<g id="a_Node000014"><a xlink:href="a01418.html" target="_top" xlink:title=" ">
<polygon fill="white" stroke="#666666" points="509.92,-127.5 433.17,-127.5 433.17,-109 509.92,-109 509.92,-127.5"/>
<text text-anchor="middle" x="471.54" y="-114" font-family="Helvetica,sans-Serif" font-size="10.00">arax_vaccel.h</text>
</a>
</g>
</g>
<!-- Node1&#45;&gt;Node14 -->
<g id="edge19_Node000001_Node000014" class="edge">
<title>Node1&#45;&gt;Node14</title>
<g id="a_edge19_Node000001_Node000014"><a xlink:title=" ">
<path fill="none" stroke="#63b8ff" d="M400.17,-157.33C415.21,-147.91 436.07,-135.92 451.49,-127.93"/>
<polygon fill="#63b8ff" stroke="#63b8ff" points="398.75,-154.72 392.24,-163.08 402.54,-160.61 398.75,-154.72"/>
</a>
</g>
</g>
<!-- Node3 -->
<g id="Node000003" class="node">
<title>Node3</title>
<g id="a_Node000003"><a xlink:href="a01931.html" target="_top" xlink:title=" ">
<polygon fill="white" stroke="#666666" points="98.42,-18.5 30.67,-18.5 30.67,0 98.42,0 98.42,-18.5"/>
<text text-anchor="middle" x="64.54" y="-5" font-family="Helvetica,sans-Serif" font-size="10.00">arax_data.c</text>
</a>
</g>
</g>
<!-- Node2&#45;&gt;Node3 -->
<g id="edge2_Node000002_Node000003" class="edge">
<title>Node2&#45;&gt;Node3</title>
<g id="a_edge2_Node000002_Node000003"><a xlink:title=" ">
<path fill="none" stroke="#63b8ff" d="M159.63,-113.72C106.73,-108.53 23.61,-96.75 4.54,-73 -11.97,-52.43 22.13,-30.66 45.36,-18.94"/>
<polygon fill="#63b8ff" stroke="#63b8ff" points="159.14,-117.29 169.42,-114.73 159.79,-110.32 159.14,-117.29"/>
</a>
</g>
</g>
<!-- Node4 -->
<g id="Node000004" class="node">
<title>Node4</title>
<g id="a_Node000004"><a xlink:href="a01400.html" target="_top" xlink:title=" ">
<polygon fill="white" stroke="#666666" points="115.29,-73 13.79,-73 13.79,-54.5 115.29,-54.5 115.29,-73"/>
<text text-anchor="middle" x="64.54" y="-59.5" font-family="Helvetica,sans-Serif" font-size="10.00">arax_data_private.h</text>
</a>
</g>
</g>
<!-- Node2&#45;&gt;Node4 -->
<g id="edge3_Node000002_Node000004" class="edge">
<title>Node2&#45;&gt;Node4</title>
<g id="a_edge3_Node000002_Node000004"><a xlink:title=" ">
<path fill="none" stroke="#63b8ff" d="M171.36,-104.81C145.59,-95.14 110.51,-81.99 87.7,-73.43"/>
<polygon fill="#63b8ff" stroke="#63b8ff" points="169.83,-108.35 180.42,-108.58 172.29,-101.79 169.83,-108.35"/>
</a>
</g>
</g>
<!-- Node2&#45;&gt;Node5 -->
<g id="edge5_Node000002_Node000005" class="edge">
<title>Node2&#45;&gt;Node5</title>
<g id="a_edge5_Node000002_Node000005"><a xlink:title=" ">
<path fill="none" stroke="#63b8ff" d="M232.76,-104.03C253.2,-94.44 280.26,-81.76 298.02,-73.43"/>
<polygon fill="#63b8ff" stroke="#63b8ff" points="231.61,-101.17 224.04,-108.58 234.58,-107.51 231.61,-101.17"/>
</a>
</g>
</g>
<!-- Node6 -->
<g id="Node000006" class="node">
<title>Node6</title>
<g id="a_Node000006"><a xlink:href="a01922.html" target="_top" xlink:title=" ">
<polygon fill="white" stroke="#666666" points="201.42,-73 133.67,-73 133.67,-54.5 201.42,-54.5 201.42,-73"/>
<text text-anchor="middle" x="167.54" y="-59.5" font-family="Helvetica,sans-Serif" font-size="10.00">arax_task.c</text>
</a>
</g>
</g>
<!-- Node2&#45;&gt;Node6 -->
<g id="edge6_Node000002_Node000006" class="edge">
<title>Node2&#45;&gt;Node6</title>
<g id="a_edge6_Node000002_Node000006"><a xlink:title=" ">
<path fill="none" stroke="#63b8ff" d="M192.2,-99.73C185.92,-90.82 178.57,-80.4 173.54,-73.26"/>
<polygon fill="#63b8ff" stroke="#63b8ff" points="189.81,-101.42 198.43,-107.58 195.53,-97.39 189.81,-101.42"/>
</a>
</g>
</g>
<!-- Node7 -->
<g id="Node000007" class="node">
<title>Node7</title>
<g id="a_Node000007"><a xlink:href="a01898.html" target="_top" xlink:title=" ">
<polygon fill="white" stroke="#666666" points="261.67,-73 219.42,-73 219.42,-54.5 261.67,-54.5 261.67,-73"/>
<text text-anchor="middle" x="240.54" y="-59.5" font-family="Helvetica,sans-Serif" font-size="10.00">impl.c</text>
</a>
</g>
</g>
<!-- Node2&#45;&gt;Node7 -->
<g id="edge7_Node000002_Node000007" class="edge">
<title>Node2&#45;&gt;Node7</title>
<g id="a_edge7_Node000002_Node000007"><a xlink:title=" ">
<path fill="none" stroke="#63b8ff" d="M216.55,-99.73C222.67,-90.82 229.81,-80.4 234.71,-73.26"/>
<polygon fill="#63b8ff" stroke="#63b8ff" points="213.26,-97.35 210.49,-107.58 219.03,-101.31 213.26,-97.35"/>
</a>
</g>
</g>
<!-- Node4&#45;&gt;Node3 -->
<g id="edge4_Node000004_Node000003" class="edge">
<title>Node4&#45;&gt;Node3</title>
<g id="a_edge4_Node000004_Node000003"><a xlink:title=" ">
<path fill="none" stroke="#63b8ff" d="M64.54,-43.22C64.54,-34.79 64.54,-25.36 64.54,-18.76"/>
<polygon fill="#63b8ff" stroke="#63b8ff" points="61.04,-43.08 64.54,-53.08 68.04,-43.08 61.04,-43.08"/>
</a>
</g>
</g>
<!-- Node8&#45;&gt;Node3 -->
<g id="edge11_Node000008_Node000003" class="edge">
<title>Node8&#45;&gt;Node3</title>
<g id="a_edge11_Node000008_Node000003"><a xlink:title=" ">
<path fill="none" stroke="#63b8ff" d="M380.98,-98.26C379.49,-84.06 375.06,-65.31 362.54,-54.5 323.59,-20.88 168.49,-12.8 98.78,-10.86"/>
<polygon fill="#63b8ff" stroke="#63b8ff" points="377.53,-98.09 381.65,-107.84 384.51,-97.64 377.53,-98.09"/>
</a>
</g>
</g>
<!-- Node8&#45;&gt;Node5 -->
<g id="edge12_Node000008_Node000005" class="edge">
<title>Node8&#45;&gt;Node5</title>
<g id="a_edge12_Node000008_Node000005"><a xlink:title=" ">
<path fill="none" stroke="#63b8ff" d="M362.29,-101.7C350.77,-92.39 336.57,-80.93 327.08,-73.26"/>
<polygon fill="#63b8ff" stroke="#63b8ff" points="359.83,-105.02 369.81,-108.58 364.23,-99.57 359.83,-105.02"/>
</a>
</g>
</g>
<!-- Node8&#45;&gt;Node6 -->
<g id="edge16_Node000008_Node000006" class="edge">
<title>Node8&#45;&gt;Node6</title>
<g id="a_edge16_Node000008_Node000006"><a xlink:title=" ">
<path fill="none" stroke="#63b8ff" d="M337.05,-106.33C296.78,-96.46 238.32,-82.11 201.65,-73.12"/>
<polygon fill="#63b8ff" stroke="#63b8ff" points="336.09,-109.95 346.63,-108.93 337.76,-103.15 336.09,-109.95"/>
</a>
</g>
</g>
<!-- Node8&#45;&gt;Node7 -->
<g id="edge18_Node000008_Node000007" class="edge">
<title>Node8&#45;&gt;Node7</title>
<g id="a_edge18_Node000008_Node000007"><a xlink:title=" ">
<path fill="none" stroke="#63b8ff" d="M348.22,-104.84C321.55,-94.91 284.93,-81.28 262.01,-72.74"/>
<polygon fill="#63b8ff" stroke="#63b8ff" points="346.67,-108.37 357.26,-108.58 349.11,-101.81 346.67,-108.37"/>
</a>
</g>
</g>
<!-- Node9 -->
<g id="Node000009" class="node">
<title>Node9</title>
<g id="a_Node000009"><a xlink:href="a01904.html" target="_top" xlink:title=" ">
<polygon fill="white" stroke="#666666" points="737.67,-73 665.42,-73 665.42,-54.5 737.67,-54.5 737.67,-73"/>
<text text-anchor="middle" x="701.54" y="-59.5" font-family="Helvetica,sans-Serif" font-size="10.00">arax_accel.c</text>
</a>
</g>
</g>
<!-- Node8&#45;&gt;Node9 -->
<g id="edge10_Node000008_Node000009" class="edge">
<title>Node8&#45;&gt;Node9</title>
<g id="a_edge10_Node000008_Node000009"><a xlink:title=" ">
<path fill="none" stroke="#63b8ff" d="M425.85,-108.83C528.68,-91.12 556.37,-89.62 655.54,-73 658.74,-72.46 662.07,-71.89 665.4,-71.31"/>
<polygon fill="#63b8ff" stroke="#63b8ff" points="425.58,-105.5 416.32,-110.65 426.77,-112.39 425.58,-105.5"/>
</a>
</g>
</g>
<!-- Node10 -->
<g id="Node000010" class="node">
<title>Node10</title>
<g id="a_Node000010"><a xlink:href="a01913.html" target="_top" xlink:title=" ">
<polygon fill="white" stroke="#666666" points="823.04,-73 756.04,-73 756.04,-54.5 823.04,-54.5 823.04,-73"/>
<text text-anchor="middle" x="789.54" y="-59.5" font-family="Helvetica,sans-Serif" font-size="10.00">arax_pipe.c</text>
</a>
</g>
</g>
<!-- Node8&#45;&gt;Node10 -->
<g id="edge13_Node000008_Node000010" class="edge">
<title>Node8&#45;&gt;Node10</title>
<g id="a_edge13_Node000008_Node000010"><a xlink:title=" ">
<path fill="none" stroke="#63b8ff" d="M425.78,-108.94C568.72,-87.74 607.5,-94.08 746.54,-73 749.55,-72.54 752.67,-72.03 755.78,-71.49"/>
<polygon fill="#63b8ff" stroke="#63b8ff" points="425.67,-105.57 416.3,-110.51 426.71,-112.49 425.67,-105.57"/>
</a>
</g>
</g>
<!-- Node11 -->
<g id="Node000011" class="node">
<title>Node11</title>
<g id="a_Node000011"><a xlink:href="a01940.html" target="_top" xlink:title=" ">
<polygon fill="white" stroke="#666666" points="473.54,-73 409.54,-73 409.54,-54.5 473.54,-54.5 473.54,-73"/>
<text text-anchor="middle" x="441.54" y="-59.5" font-family="Helvetica,sans-Serif" font-size="10.00">arax_plot.c</text>
</a>
</g>
</g>
<!-- Node8&#45;&gt;Node11 -->
<g id="edge14_Node000008_Node000011" class="edge">
<title>Node8&#45;&gt;Node11</title>
<g id="a_edge14_Node000008_Node000011"><a xlink:title=" ">
<path fill="none" stroke="#63b8ff" d="M399.63,-101.42C410.21,-92.17 423.14,-80.85 431.82,-73.26"/>
<polygon fill="#63b8ff" stroke="#63b8ff" points="397.67,-99.36 392.45,-108.58 402.28,-104.63 397.67,-99.36"/>
</a>
</g>
</g>
<!-- Node12 -->
<g id="Node000012" class="node">
<title>Node12</title>
<g id="a_Node000012"><a xlink:href="a01919.html" target="_top" xlink:title=" ">
<polygon fill="white" stroke="#666666" points="551.67,-73 491.42,-73 491.42,-54.5 551.67,-54.5 551.67,-73"/>
<text text-anchor="middle" x="521.54" y="-59.5" font-family="Helvetica,sans-Serif" font-size="10.00">arax_ptr.c</text>
</a>
</g>
</g>
<!-- Node8&#45;&gt;Node12 -->
<g id="edge15_Node000008_Node000012" class="edge">
<title>Node8&#45;&gt;Node12</title>
<g id="a_edge15_Node000008_Node000012"><a xlink:title=" ">
<path fill="none" stroke="#63b8ff" d="M414.73,-104.81C440.5,-95.14 475.58,-81.99 498.39,-73.43"/>
<polygon fill="#63b8ff" stroke="#63b8ff" points="413.8,-101.79 405.66,-108.58 416.25,-108.35 413.8,-101.79"/>
</a>
</g>
</g>
<!-- Node13 -->
<g id="Node000013" class="node">
<title>Node13</title>
<g id="a_Node000013"><a xlink:href="a01928.html" target="_top" xlink:title=" ">
<polygon fill="white" stroke="#666666" points="646.92,-73 570.17,-73 570.17,-54.5 646.92,-54.5 646.92,-73"/>
<text text-anchor="middle" x="608.54" y="-59.5" font-family="Helvetica,sans-Serif" font-size="10.00">arax_vaccel.c</text>
</a>
</g>
</g>
<!-- Node8&#45;&gt;Node13 -->
<g id="edge17_Node000008_Node000013" class="edge">
<title>Node8&#45;&gt;Node13</title>
<g id="a_edge17_Node000008_Node000013"><a xlink:title=" ">
<path fill="none" stroke="#63b8ff" d="M426.06,-106.95C468.31,-97.18 531.11,-82.66 570.92,-73.45"/>
<polygon fill="#63b8ff" stroke="#63b8ff" points="425.48,-103.73 416.53,-109.39 427.06,-110.55 425.48,-103.73"/>
</a>
</g>
</g>
<!-- Node14&#45;&gt;Node1 -->
<g id="edge20_Node000014_Node000001" class="edge">
<title>Node14&#45;&gt;Node1</title>
<g id="a_edge20_Node000014_Node000001"><a xlink:title=" ">
<path fill="none" stroke="#63b8ff" d="M452.9,-133.69C437.85,-143.11 416.98,-155.1 401.57,-163.08"/>
<polygon fill="#63b8ff" stroke="#63b8ff" points="454.32,-136.29 460.83,-127.93 450.53,-130.41 454.32,-136.29"/>
</a>
</g>
</g>
</g>
</svg>
