<?xml version="1.0" encoding="UTF-8" standalone="no"?>
<!DOCTYPE svg PUBLIC "-//W3C//DTD SVG 1.1//EN"
 "http://www.w3.org/Graphics/SVG/1.1/DTD/svg11.dtd">
<!-- Generated by graphviz version 12.2.1 (0)
 -->
<!-- Title: utils_config_get_str Pages: 1 -->
<svg width="619pt" height="77pt"
 viewBox="0.00 0.00 619.00 77.48" xmlns="http://www.w3.org/2000/svg" xmlns:xlink="http://www.w3.org/1999/xlink">
<g id="graph0" class="graph" transform="scale(1 1) rotate(0) translate(4 73.48)">
<title>utils_config_get_str</title>
<!-- Node1 -->
<g id="Node000001" class="node">
<title>Node1</title>
<g id="a_Node000001"><a xlink:title=" ">
<polygon fill="#999999" stroke="#666666" points="100.75,-36.5 0,-36.5 0,-18 100.75,-18 100.75,-36.5"/>
<text text-anchor="middle" x="50.38" y="-23" font-family="Helvetica,sans-Serif" font-size="10.00">utils_config_get_str</text>
</a>
</g>
</g>
<!-- Node2 -->
<g id="Node000002" class="node">
<title>Node2</title>
<g id="a_Node000002"><a xlink:href="a01952.html#a0738274ac3fd171eda6bfb42492bc0d7" target="_top" xlink:title=" ">
<polygon fill="white" stroke="#666666" points="243.88,-55.5 137.88,-55.5 137.88,-37 243.88,-37 243.88,-55.5"/>
<text text-anchor="middle" x="190.88" y="-42" font-family="Helvetica,sans-Serif" font-size="10.00">_utils_config_get_str</text>
</a>
</g>
</g>
<!-- Node1&#45;&gt;Node2 -->
<g id="edge1_Node000001_Node000002" class="edge">
<title>Node1&#45;&gt;Node2</title>
<g id="a_edge1_Node000001_Node000002"><a xlink:title=" ">
<path fill="none" stroke="#63b8ff" d="M100.99,-34.06C109.3,-35.2 118.02,-36.39 126.62,-37.57"/>
<polygon fill="#63b8ff" stroke="#63b8ff" points="125.92,-41.01 136.31,-38.9 126.87,-34.07 125.92,-41.01"/>
</a>
</g>
</g>
<!-- Node7 -->
<g id="Node000007" class="node">
<title>Node7</title>
<g id="a_Node000007"><a xlink:href="a01952.html#a4b9cd8f5d0c205ac6c1fd30f77cbf539" target="_top" xlink:title=" ">
<polygon fill="white" stroke="#666666" points="245,-18.5 136.75,-18.5 136.75,0 245,0 245,-18.5"/>
<text text-anchor="middle" x="190.88" y="-5" font-family="Helvetica,sans-Serif" font-size="10.00">utils_config_write_str</text>
</a>
</g>
</g>
<!-- Node1&#45;&gt;Node7 -->
<g id="edge7_Node000001_Node000007" class="edge">
<title>Node1&#45;&gt;Node7</title>
<g id="a_edge7_Node000001_Node000007"><a xlink:title=" ">
<path fill="none" stroke="#63b8ff" d="M100.99,-20.8C108.79,-19.79 116.96,-18.73 125.05,-17.67"/>
<polygon fill="#63b8ff" stroke="#63b8ff" points="125.43,-21.16 134.89,-16.4 124.52,-14.21 125.43,-21.16"/>
</a>
</g>
</g>
<!-- Node3 -->
<g id="Node000003" class="node">
<title>Node3</title>
<g id="a_Node000003"><a xlink:href="a01952.html#a8b687fb4c464903e23504eea3ddc3873" target="_top" xlink:title=" ">
<polygon fill="white" stroke="#666666" points="334.5,-55.5 281,-55.5 281,-37 334.5,-37 334.5,-55.5"/>
<text text-anchor="middle" x="307.75" y="-42" font-family="Helvetica,sans-Serif" font-size="10.00">conf_get</text>
</a>
</g>
</g>
<!-- Node2&#45;&gt;Node3 -->
<g id="edge2_Node000002_Node000003" class="edge">
<title>Node2&#45;&gt;Node3</title>
<g id="a_edge2_Node000002_Node000003"><a xlink:title=" ">
<path fill="none" stroke="#63b8ff" d="M244.27,-46.25C252.78,-46.25 261.44,-46.25 269.49,-46.25"/>
<polygon fill="#63b8ff" stroke="#63b8ff" points="269.25,-49.75 279.25,-46.25 269.25,-42.75 269.25,-49.75"/>
</a>
</g>
</g>
<!-- Node4 -->
<g id="Node000004" class="node">
<title>Node4</title>
<g id="a_Node000004"><a xlink:href="a01961.html#acde493d3889d6f207d1e122cf4bb1b8c" target="_top" xlink:title=" ">
<polygon fill="white" stroke="#666666" points="611,-55.5 525.25,-55.5 525.25,-37 611,-37 611,-55.5"/>
<text text-anchor="middle" x="568.12" y="-42" font-family="Helvetica,sans-Serif" font-size="10.00">system_env_var</text>
</a>
</g>
</g>
<!-- Node3&#45;&gt;Node4 -->
<g id="edge3_Node000003_Node000004" class="edge">
<title>Node3&#45;&gt;Node4</title>
<g id="a_edge3_Node000003_Node000004"><a xlink:title=" ">
<path fill="none" stroke="#63b8ff" d="M334.83,-55.63C345.71,-59.08 358.56,-62.55 370.5,-64.25 422.75,-71.71 436.81,-70.23 489.25,-64.25 499.88,-63.04 511.17,-60.92 521.76,-58.56"/>
<polygon fill="#63b8ff" stroke="#63b8ff" points="522.51,-61.98 531.44,-56.27 520.91,-55.16 522.51,-61.98"/>
</a>
</g>
</g>
<!-- Node5 -->
<g id="Node000005" class="node">
<title>Node5</title>
<g id="a_Node000005"><a xlink:href="a01961.html#a86c3bfbf6daaf8172e131aa23dc7393c" target="_top" xlink:title=" ">
<polygon fill="white" stroke="#666666" points="473.5,-55.5 386.25,-55.5 386.25,-37 473.5,-37 473.5,-55.5"/>
<text text-anchor="middle" x="429.88" y="-42" font-family="Helvetica,sans-Serif" font-size="10.00">system_file_size</text>
</a>
</g>
</g>
<!-- Node3&#45;&gt;Node5 -->
<g id="edge4_Node000003_Node000005" class="edge">
<title>Node3&#45;&gt;Node5</title>
<g id="a_edge4_Node000003_Node000005"><a xlink:title=" ">
<path fill="none" stroke="#63b8ff" d="M334.82,-46.25C346.46,-46.25 360.65,-46.25 374.43,-46.25"/>
<polygon fill="#63b8ff" stroke="#63b8ff" points="374.34,-49.75 384.34,-46.25 374.34,-42.75 374.34,-49.75"/>
</a>
</g>
</g>
<!-- Node6 -->
<g id="Node000006" class="node">
<title>Node6</title>
<g id="a_Node000006"><a xlink:href="a01952.html#a17713c8e9b90065e23b0ec1a225f79ab" target="_top" xlink:title=" ">
<polygon fill="white" stroke="#666666" points="489.25,-18.5 370.5,-18.5 370.5,0 489.25,0 489.25,-18.5"/>
<text text-anchor="middle" x="429.88" y="-5" font-family="Helvetica,sans-Serif" font-size="10.00">utils_config_get_source</text>
</a>
</g>
</g>
<!-- Node3&#45;&gt;Node6 -->
<g id="edge5_Node000003_Node000006" class="edge">
<title>Node3&#45;&gt;Node6</title>
<g id="a_edge5_Node000003_Node000006"><a xlink:title=" ">
<path fill="none" stroke="#63b8ff" d="M334.82,-38.22C349.87,-33.58 369.18,-27.64 386.38,-22.34"/>
<polygon fill="#63b8ff" stroke="#63b8ff" points="387.34,-25.71 395.86,-19.42 385.28,-19.02 387.34,-25.71"/>
</a>
</g>
</g>
<!-- Node6&#45;&gt;Node4 -->
<g id="edge6_Node000006_Node000004" class="edge">
<title>Node6&#45;&gt;Node4</title>
<g id="a_edge6_Node000006_Node000004"><a xlink:title=" ">
<path fill="none" stroke="#63b8ff" d="M466.67,-18.97C483.18,-23.45 502.98,-28.83 520.63,-33.62"/>
<polygon fill="#63b8ff" stroke="#63b8ff" points="519.54,-36.95 530.11,-36.2 521.37,-30.2 519.54,-36.95"/>
</a>
</g>
</g>
<!-- Node7&#45;&gt;Node3 -->
<g id="edge8_Node000007_Node000003" class="edge">
<title>Node7&#45;&gt;Node3</title>
<g id="a_edge8_Node000007_Node000003"><a xlink:title=" ">
<path fill="none" stroke="#63b8ff" d="M222.06,-18.97C236.71,-23.69 254.45,-29.41 269.9,-34.38"/>
<polygon fill="#63b8ff" stroke="#63b8ff" points="268.64,-37.65 279.23,-37.39 270.78,-30.99 268.64,-37.65"/>
</a>
</g>
</g>
<!-- Node8 -->
<g id="Node000008" class="node">
<title>Node8</title>
<g id="a_Node000008"><a xlink:href="a01952.html#ab87e9691e65d65348749f8dc70f24602" target="_top" xlink:title=" ">
<polygon fill="white" stroke="#666666" points="334.5,-18.5 281,-18.5 281,0 334.5,0 334.5,-18.5"/>
<text text-anchor="middle" x="307.75" y="-5" font-family="Helvetica,sans-Serif" font-size="10.00">conf_set</text>
</a>
</g>
</g>
<!-- Node7&#45;&gt;Node8 -->
<g id="edge9_Node000007_Node000008" class="edge">
<title>Node7&#45;&gt;Node8</title>
<g id="a_edge9_Node000007_Node000008"><a xlink:title=" ">
<path fill="none" stroke="#63b8ff" d="M245.28,-9.25C253.35,-9.25 261.53,-9.25 269.18,-9.25"/>
<polygon fill="#63b8ff" stroke="#63b8ff" points="269.15,-12.75 279.15,-9.25 269.15,-5.75 269.15,-12.75"/>
</a>
</g>
</g>
<!-- Node8&#45;&gt;Node6 -->
<g id="edge10_Node000008_Node000006" class="edge">
<title>Node8&#45;&gt;Node6</title>
<g id="a_edge10_Node000008_Node000006"><a xlink:title=" ">
<path fill="none" stroke="#63b8ff" d="M334.82,-9.25C342.11,-9.25 350.4,-9.25 358.96,-9.25"/>
<polygon fill="#63b8ff" stroke="#63b8ff" points="358.81,-12.75 368.81,-9.25 358.81,-5.75 358.81,-12.75"/>
</a>
</g>
</g>
</g>
</svg>
