<?xml version="1.0" encoding="UTF-8" standalone="no"?>
<!DOCTYPE svg PUBLIC "-//W3C//DTD SVG 1.1//EN"
 "http://www.w3.org/Graphics/SVG/1.1/DTD/svg11.dtd">
<!-- Generated by graphviz version 12.2.1 (0)
 -->
<!-- Title: arax_pipe_find_proc Pages: 1 -->
<svg width="267pt" height="64pt"
 viewBox="0.00 0.00 266.50 63.50" xmlns="http://www.w3.org/2000/svg" xmlns:xlink="http://www.w3.org/1999/xlink">
<g id="graph0" class="graph" transform="scale(1 1) rotate(0) translate(4 59.5)">
<title>arax_pipe_find_proc</title>
<!-- Node1 -->
<g id="Node000001" class="node">
<title>Node1</title>
<g id="a_Node000001"><a xlink:title=" ">
<polygon fill="#999999" stroke="#666666" points="103.75,-36.5 0,-36.5 0,-18 103.75,-18 103.75,-36.5"/>
<text text-anchor="middle" x="51.88" y="-23" font-family="Helvetica,sans-Serif" font-size="10.00">arax_pipe_find_proc</text>
</a>
</g>
</g>
<!-- Node2 -->
<g id="Node000002" class="node">
<title>Node2</title>
<g id="a_Node000002"><a xlink:href="a01925.html#aa750d1c54fe430c1294b9c8a9d3e1466" target="_top" xlink:title=" ">
<polygon fill="white" stroke="#666666" points="253.25,-55.5 145,-55.5 145,-37 253.25,-37 253.25,-55.5"/>
<text text-anchor="middle" x="199.12" y="-42" font-family="Helvetica,sans-Serif" font-size="10.00">arax_object_list_lock</text>
</a>
</g>
</g>
<!-- Node1&#45;&gt;Node2 -->
<g id="edge1_Node000001_Node000002" class="edge">
<title>Node1&#45;&gt;Node2</title>
<g id="a_edge1_Node000001_Node000002"><a xlink:title=" ">
<path fill="none" stroke="#63b8ff" d="M104.08,-33.95C113.7,-35.21 123.86,-36.54 133.81,-37.84"/>
<polygon fill="#63b8ff" stroke="#63b8ff" points="133.05,-41.27 143.42,-39.09 133.96,-34.33 133.05,-41.27"/>
</a>
</g>
</g>
<!-- Node3 -->
<g id="Node000003" class="node">
<title>Node3</title>
<g id="a_Node000003"><a xlink:href="a01925.html#abb03d3cde2d1354544cd082482c3f185" target="_top" xlink:title=" ">
<polygon fill="white" stroke="#666666" points="258.5,-18.5 139.75,-18.5 139.75,0 258.5,0 258.5,-18.5"/>
<text text-anchor="middle" x="199.12" y="-5" font-family="Helvetica,sans-Serif" font-size="10.00">arax_object_list_unlock</text>
</a>
</g>
</g>
<!-- Node1&#45;&gt;Node3 -->
<g id="edge2_Node000001_Node000003" class="edge">
<title>Node1&#45;&gt;Node3</title>
<g id="a_edge2_Node000001_Node000003"><a xlink:title=" ">
<path fill="none" stroke="#63b8ff" d="M104.08,-20.9C111.86,-19.94 119.99,-18.93 128.08,-17.93"/>
<polygon fill="#63b8ff" stroke="#63b8ff" points="128.45,-21.41 137.94,-16.71 127.59,-14.46 128.45,-21.41"/>
</a>
</g>
</g>
</g>
</svg>
