<?xml version="1.0" encoding="UTF-8" standalone="no"?>
<!DOCTYPE svg PUBLIC "-//W3C//DTD SVG 1.1//EN"
 "http://www.w3.org/Graphics/SVG/1.1/DTD/svg11.dtd">
<!-- Generated by graphviz version 8.0.5 (0)
 -->
<!-- Title: list.h Pages: 1 -->
<svg width="1069pt" height="354pt"
 viewBox="0.00 0.00 1068.63 353.50" xmlns="http://www.w3.org/2000/svg" xmlns:xlink="http://www.w3.org/1999/xlink">
<g id="graph0" class="graph" transform="scale(1 1) rotate(0) translate(4 349.5)">
<title>list.h</title>
<!-- Node1 -->
<g id="Node000001" class="node">
<title>Node1</title>
<g id="a_Node000001"><a xlink:title=" ">
<polygon fill="#999999" stroke="#666666" points="998.88,-345.5 962.63,-345.5 962.63,-327 998.88,-327 998.88,-345.5"/>
<text text-anchor="middle" x="980.76" y="-332" font-family="Helvetica,sans-Serif" font-size="10.00">list.h</text>
</a>
</g>
</g>
<!-- Node2 -->
<g id="Node000002" class="node">
<title>Node2</title>
<g id="a_Node000002"><a xlink:href="a01403.html" target="_top" xlink:title=" ">
<polygon fill="white" stroke="#666666" points="899.01,-291 824.51,-291 824.51,-272.5 899.01,-272.5 899.01,-291"/>
<text text-anchor="middle" x="861.76" y="-277.5" font-family="Helvetica,sans-Serif" font-size="10.00">arax_object.h</text>
</a>
</g>
</g>
<!-- Node1&#45;&gt;Node2 -->
<g id="edge1_Node000001_Node000002" class="edge">
<title>Node1&#45;&gt;Node2</title>
<g id="a_edge1_Node000001_Node000002"><a xlink:title=" ">
<path fill="none" stroke="#63b8ff" d="M952.12,-322.62C930.24,-312.96 900.67,-299.92 881.41,-291.42"/>
<polygon fill="#63b8ff" stroke="#63b8ff" points="950.6,-326.21 961.16,-327.05 953.43,-319.81 950.6,-326.21"/>
</a>
</g>
</g>
<!-- Node21 -->
<g id="Node000021" class="node">
<title>Node21</title>
<g id="a_Node000021"><a xlink:href="a02355.html" target="_top" xlink:title=" ">
<polygon fill="white" stroke="#666666" points="1060.63,-236.5 1010.88,-236.5 1010.88,-218 1060.63,-218 1060.63,-236.5"/>
<text text-anchor="middle" x="1035.76" y="-223" font-family="Helvetica,sans-Serif" font-size="10.00">async.h</text>
</a>
</g>
</g>
<!-- Node1&#45;&gt;Node21 -->
<g id="edge39_Node000001_Node000021" class="edge">
<title>Node1&#45;&gt;Node21</title>
<g id="a_edge39_Node000001_Node000021"><a xlink:title=" ">
<path fill="none" stroke="#63b8ff" d="M984.46,-316.33C987.45,-303.47 992.4,-286.35 999.76,-272.5 1007.01,-258.86 1018.79,-245.41 1026.89,-236.99"/>
<polygon fill="#63b8ff" stroke="#63b8ff" points="980.91,-315.22 982.24,-325.73 987.75,-316.68 980.91,-315.22"/>
</a>
</g>
</g>
<!-- Node27 -->
<g id="Node000027" class="node">
<title>Node27</title>
<g id="a_Node000027"><a xlink:href="a01946.html" target="_top" xlink:title=" ">
<polygon fill="white" stroke="#666666" points="1044.88,-291 1008.63,-291 1008.63,-272.5 1044.88,-272.5 1044.88,-291"/>
<text text-anchor="middle" x="1026.76" y="-277.5" font-family="Helvetica,sans-Serif" font-size="10.00">list.c</text>
</a>
</g>
</g>
<!-- Node1&#45;&gt;Node27 -->
<g id="edge40_Node000001_Node000027" class="edge">
<title>Node1&#45;&gt;Node27</title>
<g id="a_edge40_Node000001_Node000027"><a xlink:title=" ">
<path fill="none" stroke="#63b8ff" d="M995.36,-318.58C1003.33,-309.49 1012.85,-298.62 1019.3,-291.26"/>
<polygon fill="#63b8ff" stroke="#63b8ff" points="992.31,-315.75 988.35,-325.58 997.58,-320.37 992.31,-315.75"/>
</a>
</g>
</g>
<!-- Node3 -->
<g id="Node000003" class="node">
<title>Node3</title>
<g id="a_Node000003"><a xlink:href="a01937.html" target="_top" xlink:title=" ">
<polygon fill="white" stroke="#666666" points="818.76,-236.5 742.76,-236.5 742.76,-218 818.76,-218 818.76,-236.5"/>
<text text-anchor="middle" x="780.76" y="-223" font-family="Helvetica,sans-Serif" font-size="10.00">arax_assert.c</text>
</a>
</g>
</g>
<!-- Node2&#45;&gt;Node3 -->
<g id="edge2_Node000002_Node000003" class="edge">
<title>Node2&#45;&gt;Node3</title>
<g id="a_edge2_Node000002_Node000003"><a xlink:title=" ">
<path fill="none" stroke="#63b8ff" d="M839.51,-266.33C824.97,-256.91 806.47,-244.92 794.15,-236.93"/>
<polygon fill="#63b8ff" stroke="#63b8ff" points="837.09,-269.58 847.38,-272.08 840.89,-263.7 837.09,-269.58"/>
</a>
</g>
</g>
<!-- Node4 -->
<g id="Node000004" class="node">
<title>Node4</title>
<g id="a_Node000004"><a xlink:href="a01397.html" target="_top" xlink:title=" ">
<polygon fill="white" stroke="#666666" points="610.63,-127.5 542.88,-127.5 542.88,-109 610.63,-109 610.63,-127.5"/>
<text text-anchor="middle" x="576.76" y="-114" font-family="Helvetica,sans-Serif" font-size="10.00">arax_data.h</text>
</a>
</g>
</g>
<!-- Node2&#45;&gt;Node4 -->
<g id="edge3_Node000002_Node000004" class="edge">
<title>Node2&#45;&gt;Node4</title>
<g id="a_edge3_Node000002_Node000004"><a xlink:title=" ">
<path fill="none" stroke="#63b8ff" d="M813.69,-273.1C787.61,-266.9 756.21,-255.87 733.76,-236.5 706.06,-212.61 723.17,-187.71 695.76,-163.5 671.8,-142.34 636.81,-130.96 610.96,-125.06"/>
<polygon fill="#63b8ff" stroke="#63b8ff" points="812.61,-276.66 823.13,-275.39 814.11,-269.83 812.61,-276.66"/>
</a>
</g>
</g>
<!-- Node7 -->
<g id="Node000007" class="node">
<title>Node7</title>
<g id="a_Node000007"><a xlink:href="a01910.html" target="_top" xlink:title=" ">
<polygon fill="white" stroke="#666666" points="824.01,-73 749.51,-73 749.51,-54.5 824.01,-54.5 824.01,-73"/>
<text text-anchor="middle" x="786.76" y="-59.5" font-family="Helvetica,sans-Serif" font-size="10.00">arax_object.c</text>
</a>
</g>
</g>
<!-- Node2&#45;&gt;Node7 -->
<g id="edge10_Node000002_Node000007" class="edge">
<title>Node2&#45;&gt;Node7</title>
<g id="a_edge10_Node000002_Node000007"><a xlink:title=" ">
<path fill="none" stroke="#63b8ff" d="M909.89,-272.01C930.1,-265.71 951.67,-254.92 963.76,-236.5 981.56,-209.37 980.19,-191.48 963.76,-163.5 933.65,-112.22 866.15,-85.61 823.76,-73.45"/>
<polygon fill="#63b8ff" stroke="#63b8ff" points="909.19,-268.85 900.5,-274.91 911.08,-275.59 909.19,-268.85"/>
</a>
</g>
</g>
<!-- Node10 -->
<g id="Node000010" class="node">
<title>Node10</title>
<g id="a_Node000010"><a xlink:href="a01406.html" target="_top" xlink:title=" ">
<polygon fill="white" stroke="#666666" points="686.63,-236.5 618.88,-236.5 618.88,-218 686.63,-218 686.63,-236.5"/>
<text text-anchor="middle" x="652.76" y="-223" font-family="Helvetica,sans-Serif" font-size="10.00">arax_proc.h</text>
</a>
</g>
</g>
<!-- Node2&#45;&gt;Node10 -->
<g id="edge11_Node000002_Node000010" class="edge">
<title>Node2&#45;&gt;Node10</title>
<g id="a_edge11_Node000002_Node000010"><a xlink:title=" ">
<path fill="none" stroke="#63b8ff" d="M816.73,-269.44C777.8,-259.66 722.36,-245.74 686.97,-236.84"/>
<polygon fill="#63b8ff" stroke="#63b8ff" points="815.69,-273.04 826.24,-272.08 817.4,-266.25 815.69,-273.04"/>
</a>
</g>
</g>
<!-- Node19 -->
<g id="Node000019" class="node">
<title>Node19</title>
<g id="a_Node000019"><a xlink:href="a01418.html" target="_top" xlink:title=" ">
<polygon fill="white" stroke="#666666" points="517.13,-236.5 440.38,-236.5 440.38,-218 517.13,-218 517.13,-236.5"/>
<text text-anchor="middle" x="478.76" y="-223" font-family="Helvetica,sans-Serif" font-size="10.00">arax_vaccel.h</text>
</a>
</g>
</g>
<!-- Node2&#45;&gt;Node19 -->
<g id="edge27_Node000002_Node000019" class="edge">
<title>Node2&#45;&gt;Node19</title>
<g id="a_edge27_Node000002_Node000019"><a xlink:title=" ">
<path fill="none" stroke="#63b8ff" d="M813.53,-274.14C736.67,-263.6 587.87,-243.21 517.47,-233.56"/>
<polygon fill="#63b8ff" stroke="#63b8ff" points="812.95,-277.73 823.34,-275.62 813.9,-270.79 812.95,-277.73"/>
</a>
</g>
</g>
<!-- Node2&#45;&gt;Node21 -->
<g id="edge33_Node000002_Node000021" class="edge">
<title>Node2&#45;&gt;Node21</title>
<g id="a_edge33_Node000002_Node000021"><a xlink:title=" ">
<path fill="none" stroke="#63b8ff" d="M900.87,-268.95C934.47,-258.81 981.91,-244.5 1010.66,-235.82"/>
<polygon fill="#63b8ff" stroke="#63b8ff" points="900.05,-265.84 891.49,-272.08 902.07,-272.54 900.05,-265.84"/>
</a>
</g>
</g>
<!-- Node23 -->
<g id="Node000023" class="node">
<title>Node23</title>
<g id="a_Node000023"><a xlink:href="a02358.html" target="_top" xlink:title=" ">
<polygon fill="white" stroke="#666666" points="886.63,-236.5 836.88,-236.5 836.88,-218 886.63,-218 886.63,-236.5"/>
<text text-anchor="middle" x="861.76" y="-223" font-family="Helvetica,sans-Serif" font-size="10.00">async.h</text>
</a>
</g>
</g>
<!-- Node2&#45;&gt;Node23 -->
<g id="edge35_Node000002_Node000023" class="edge">
<title>Node2&#45;&gt;Node23</title>
<g id="a_edge35_Node000002_Node000023"><a xlink:title=" ">
<path fill="none" stroke="#63b8ff" d="M861.76,-261.22C861.76,-252.79 861.76,-243.36 861.76,-236.76"/>
<polygon fill="#63b8ff" stroke="#63b8ff" points="858.26,-261.08 861.76,-271.08 865.26,-261.08 858.26,-261.08"/>
</a>
</g>
</g>
<!-- Node25 -->
<g id="Node000025" class="node">
<title>Node25</title>
<g id="a_Node000025"><a xlink:href="a02361.html" target="_top" xlink:title=" ">
<polygon fill="white" stroke="#666666" points="954.63,-236.5 904.88,-236.5 904.88,-218 954.63,-218 954.63,-236.5"/>
<text text-anchor="middle" x="929.76" y="-223" font-family="Helvetica,sans-Serif" font-size="10.00">async.h</text>
</a>
</g>
</g>
<!-- Node2&#45;&gt;Node25 -->
<g id="edge37_Node000002_Node000025" class="edge">
<title>Node2&#45;&gt;Node25</title>
<g id="a_edge37_Node000002_Node000025"><a xlink:title=" ">
<path fill="none" stroke="#63b8ff" d="M881.54,-265.47C893.66,-256.12 908.71,-244.5 918.74,-236.76"/>
<polygon fill="#63b8ff" stroke="#63b8ff" points="879.76,-263.2 873.99,-272.08 884.04,-268.74 879.76,-263.2"/>
</a>
</g>
</g>
<!-- Node5 -->
<g id="Node000005" class="node">
<title>Node5</title>
<g id="a_Node000005"><a xlink:href="a01931.html" target="_top" xlink:title=" ">
<polygon fill="white" stroke="#666666" points="674.63,-18.5 606.88,-18.5 606.88,0 674.63,0 674.63,-18.5"/>
<text text-anchor="middle" x="640.76" y="-5" font-family="Helvetica,sans-Serif" font-size="10.00">arax_data.c</text>
</a>
</g>
</g>
<!-- Node4&#45;&gt;Node5 -->
<g id="edge4_Node000004_Node000005" class="edge">
<title>Node4&#45;&gt;Node5</title>
<g id="a_edge4_Node000004_Node000005"><a xlink:title=" ">
<path fill="none" stroke="#63b8ff" d="M587.39,-99.48C601.3,-76.22 625.12,-36.39 635.58,-18.9"/>
<polygon fill="#63b8ff" stroke="#63b8ff" points="583.91,-97.48 581.78,-107.85 589.92,-101.07 583.91,-97.48"/>
</a>
</g>
</g>
<!-- Node6 -->
<g id="Node000006" class="node">
<title>Node6</title>
<g id="a_Node000006"><a xlink:href="a01400.html" target="_top" xlink:title=" ">
<polygon fill="white" stroke="#666666" points="731.51,-73 630.01,-73 630.01,-54.5 731.51,-54.5 731.51,-73"/>
<text text-anchor="middle" x="680.76" y="-59.5" font-family="Helvetica,sans-Serif" font-size="10.00">arax_data_private.h</text>
</a>
</g>
</g>
<!-- Node4&#45;&gt;Node6 -->
<g id="edge5_Node000004_Node000006" class="edge">
<title>Node4&#45;&gt;Node6</title>
<g id="a_edge5_Node000004_Node000006"><a xlink:title=" ">
<path fill="none" stroke="#63b8ff" d="M603.74,-103.63C622.62,-94.1 647.29,-81.64 663.56,-73.43"/>
<polygon fill="#63b8ff" stroke="#63b8ff" points="602.28,-100.95 594.93,-108.58 605.43,-107.2 602.28,-100.95"/>
</a>
</g>
</g>
<!-- Node4&#45;&gt;Node7 -->
<g id="edge7_Node000004_Node000007" class="edge">
<title>Node4&#45;&gt;Node7</title>
<g id="a_edge7_Node000004_Node000007"><a xlink:title=" ">
<path fill="none" stroke="#63b8ff" d="M621.48,-106.07C660.43,-96.33 716.12,-82.41 751.86,-73.47"/>
<polygon fill="#63b8ff" stroke="#63b8ff" points="620.82,-102.88 611.96,-108.7 622.51,-109.67 620.82,-102.88"/>
</a>
</g>
</g>
<!-- Node8 -->
<g id="Node000008" class="node">
<title>Node8</title>
<g id="a_Node000008"><a xlink:href="a01922.html" target="_top" xlink:title=" ">
<polygon fill="white" stroke="#666666" points="513.63,-73 445.88,-73 445.88,-54.5 513.63,-54.5 513.63,-73"/>
<text text-anchor="middle" x="479.76" y="-59.5" font-family="Helvetica,sans-Serif" font-size="10.00">arax_task.c</text>
</a>
</g>
</g>
<!-- Node4&#45;&gt;Node8 -->
<g id="edge8_Node000004_Node000008" class="edge">
<title>Node4&#45;&gt;Node8</title>
<g id="a_edge8_Node000004_Node000008"><a xlink:title=" ">
<path fill="none" stroke="#63b8ff" d="M551.1,-103.36C533.55,-93.87 510.83,-81.57 495.8,-73.43"/>
<polygon fill="#63b8ff" stroke="#63b8ff" points="549.28,-106.9 559.74,-108.58 552.61,-100.74 549.28,-106.9"/>
</a>
</g>
</g>
<!-- Node9 -->
<g id="Node000009" class="node">
<title>Node9</title>
<g id="a_Node000009"><a xlink:href="a01898.html" target="_top" xlink:title=" ">
<polygon fill="white" stroke="#666666" points="573.88,-73 531.63,-73 531.63,-54.5 573.88,-54.5 573.88,-73"/>
<text text-anchor="middle" x="552.76" y="-59.5" font-family="Helvetica,sans-Serif" font-size="10.00">impl.c</text>
</a>
</g>
</g>
<!-- Node4&#45;&gt;Node9 -->
<g id="edge9_Node000004_Node000009" class="edge">
<title>Node4&#45;&gt;Node9</title>
<g id="a_edge9_Node000004_Node000009"><a xlink:title=" ">
<path fill="none" stroke="#63b8ff" d="M568.23,-98.59C564.27,-89.94 559.77,-80.09 556.65,-73.26"/>
<polygon fill="#63b8ff" stroke="#63b8ff" points="565.45,-99.94 572.79,-107.58 571.82,-97.03 565.45,-99.94"/>
</a>
</g>
</g>
<!-- Node6&#45;&gt;Node5 -->
<g id="edge6_Node000006_Node000005" class="edge">
<title>Node6&#45;&gt;Node5</title>
<g id="a_edge6_Node000006_Node000005"><a xlink:title=" ">
<path fill="none" stroke="#63b8ff" d="M667.63,-45.52C660.79,-36.54 652.73,-25.97 647.24,-18.76"/>
<polygon fill="#63b8ff" stroke="#63b8ff" points="665.31,-47.25 674.15,-53.08 670.88,-43.01 665.31,-47.25"/>
</a>
</g>
</g>
<!-- Node10&#45;&gt;Node7 -->
<g id="edge12_Node000010_Node000007" class="edge">
<title>Node10&#45;&gt;Node7</title>
<g id="a_edge12_Node000010_Node000007"><a xlink:title=" ">
<path fill="none" stroke="#63b8ff" d="M669.39,-210.01C677.56,-201.82 687.41,-191.6 695.76,-182 729.73,-142.91 766.46,-92.92 780.67,-73.25"/>
<polygon fill="#63b8ff" stroke="#63b8ff" points="667.26,-207.18 662.62,-216.71 672.19,-212.15 667.26,-207.18"/>
</a>
</g>
</g>
<!-- Node11 -->
<g id="Node000011" class="node">
<title>Node11</title>
<g id="a_Node000011"><a xlink:href="a01916.html" target="_top" xlink:title=" ">
<polygon fill="white" stroke="#666666" points="686.63,-182 618.88,-182 618.88,-163.5 686.63,-163.5 686.63,-182"/>
<text text-anchor="middle" x="652.76" y="-168.5" font-family="Helvetica,sans-Serif" font-size="10.00">arax_proc.c</text>
</a>
</g>
</g>
<!-- Node10&#45;&gt;Node11 -->
<g id="edge13_Node000010_Node000011" class="edge">
<title>Node10&#45;&gt;Node11</title>
<g id="a_edge13_Node000010_Node000011"><a xlink:title=" ">
<path fill="none" stroke="#63b8ff" d="M652.76,-206.72C652.76,-198.29 652.76,-188.86 652.76,-182.26"/>
<polygon fill="#63b8ff" stroke="#63b8ff" points="649.26,-206.58 652.76,-216.58 656.26,-206.58 649.26,-206.58"/>
</a>
</g>
</g>
<!-- Node12 -->
<g id="Node000012" class="node">
<title>Node12</title>
<g id="a_Node000012"><a xlink:href="a01412.html" target="_top" xlink:title=" ">
<polygon fill="white" stroke="#666666" points="600.63,-182 532.88,-182 532.88,-163.5 600.63,-163.5 600.63,-182"/>
<text text-anchor="middle" x="566.76" y="-168.5" font-family="Helvetica,sans-Serif" font-size="10.00">arax_task.h</text>
</a>
</g>
</g>
<!-- Node10&#45;&gt;Node12 -->
<g id="edge14_Node000010_Node000012" class="edge">
<title>Node10&#45;&gt;Node12</title>
<g id="a_edge14_Node000010_Node000012"><a xlink:title=" ">
<path fill="none" stroke="#63b8ff" d="M629.57,-212.1C614.08,-202.64 594.18,-190.49 580.98,-182.43"/>
<polygon fill="#63b8ff" stroke="#63b8ff" points="627.2,-215.36 637.56,-217.58 630.84,-209.38 627.2,-215.36"/>
</a>
</g>
</g>
<!-- Node12&#45;&gt;Node5 -->
<g id="edge15_Node000012_Node000005" class="edge">
<title>Node12&#45;&gt;Node5</title>
<g id="a_edge15_Node000012_Node000005"><a xlink:title=" ">
<path fill="none" stroke="#63b8ff" d="M611.52,-161.68C680.37,-145.17 807.03,-110.43 832.76,-73 871.44,-16.72 740.15,-9.75 675.11,-9.64"/>
<polygon fill="#63b8ff" stroke="#63b8ff" points="610.92,-158.46 601.99,-164.17 612.53,-165.27 610.92,-158.46"/>
</a>
</g>
</g>
<!-- Node12&#45;&gt;Node7 -->
<g id="edge16_Node000012_Node000007" class="edge">
<title>Node12&#45;&gt;Node7</title>
<g id="a_edge16_Node000012_Node000007"><a xlink:title=" ">
<path fill="none" stroke="#63b8ff" d="M594.23,-158.39C640.03,-136.11 730.75,-91.99 769.04,-73.37"/>
<polygon fill="#63b8ff" stroke="#63b8ff" points="592.85,-155.65 585.39,-163.17 595.91,-161.95 592.85,-155.65"/>
</a>
</g>
</g>
<!-- Node13 -->
<g id="Node000013" class="node">
<title>Node13</title>
<g id="a_Node000013"><a xlink:href="a01349.html" target="_top" xlink:title=" ">
<polygon fill="white" stroke="#666666" points="423.26,-127.5 356.26,-127.5 356.26,-109 423.26,-109 423.26,-127.5"/>
<text text-anchor="middle" x="389.76" y="-114" font-family="Helvetica,sans-Serif" font-size="10.00">arax_pipe.h</text>
</a>
</g>
</g>
<!-- Node12&#45;&gt;Node13 -->
<g id="edge17_Node000012_Node000013" class="edge">
<title>Node12&#45;&gt;Node13</title>
<g id="a_edge17_Node000012_Node000013"><a xlink:title=" ">
<path fill="none" stroke="#63b8ff" d="M527.38,-160.07C494.59,-150.35 448.64,-136.71 419.03,-127.93"/>
<polygon fill="#63b8ff" stroke="#63b8ff" points="525.95,-163.59 536.53,-163.08 527.94,-156.88 525.95,-163.59"/>
</a>
</g>
</g>
<!-- Node13&#45;&gt;Node5 -->
<g id="edge19_Node000013_Node000005" class="edge">
<title>Node13&#45;&gt;Node5</title>
<g id="a_edge19_Node000013_Node000005"><a xlink:title=" ">
<path fill="none" stroke="#63b8ff" d="M345.21,-116.81C234.37,-114.95 -41.57,-105.24 5.76,-54.5 46.93,-10.36 480.41,-9.33 606.52,-9.98"/>
<polygon fill="#63b8ff" stroke="#63b8ff" points="344.97,-120.32 355.02,-116.98 345.08,-113.32 344.97,-120.32"/>
</a>
</g>
</g>
<!-- Node13&#45;&gt;Node7 -->
<g id="edge20_Node000013_Node000007" class="edge">
<title>Node13&#45;&gt;Node7</title>
<g id="a_edge20_Node000013_Node000007"><a xlink:title=" ">
<path fill="none" stroke="#63b8ff" d="M434.27,-112.39C501.01,-104.93 630.9,-89.76 740.76,-73 743.48,-72.58 746.3,-72.13 749.13,-71.66"/>
<polygon fill="#63b8ff" stroke="#63b8ff" points="434.27,-108.98 424.72,-113.56 435.05,-115.94 434.27,-108.98"/>
</a>
</g>
</g>
<!-- Node13&#45;&gt;Node8 -->
<g id="edge24_Node000013_Node000008" class="edge">
<title>Node13&#45;&gt;Node8</title>
<g id="a_edge24_Node000013_Node000008"><a xlink:title=" ">
<path fill="none" stroke="#63b8ff" d="M414.02,-103.1C430.24,-93.64 451.06,-81.49 464.87,-73.43"/>
<polygon fill="#63b8ff" stroke="#63b8ff" points="412.49,-100.52 405.62,-108.58 416.02,-106.57 412.49,-100.52"/>
</a>
</g>
</g>
<!-- Node13&#45;&gt;Node9 -->
<g id="edge26_Node000013_Node000009" class="edge">
<title>Node13&#45;&gt;Node9</title>
<g id="a_edge26_Node000013_Node000009"><a xlink:title=" ">
<path fill="none" stroke="#63b8ff" d="M427.08,-105.23C459.43,-94.81 505.07,-80.11 531.52,-71.59"/>
<polygon fill="#63b8ff" stroke="#63b8ff" points="426.12,-102.18 417.67,-108.58 428.26,-108.85 426.12,-102.18"/>
</a>
</g>
</g>
<!-- Node14 -->
<g id="Node000014" class="node">
<title>Node14</title>
<g id="a_Node000014"><a xlink:href="a01904.html" target="_top" xlink:title=" ">
<polygon fill="white" stroke="#666666" points="86.88,-73 14.63,-73 14.63,-54.5 86.88,-54.5 86.88,-73"/>
<text text-anchor="middle" x="50.76" y="-59.5" font-family="Helvetica,sans-Serif" font-size="10.00">arax_accel.c</text>
</a>
</g>
</g>
<!-- Node13&#45;&gt;Node14 -->
<g id="edge18_Node000013_Node000014" class="edge">
<title>Node13&#45;&gt;Node14</title>
<g id="a_edge18_Node000013_Node000014"><a xlink:title=" ">
<path fill="none" stroke="#63b8ff" d="M345.66,-111.06C288.09,-102.88 184.24,-87.77 95.76,-73 92.94,-72.53 90.02,-72.03 87.09,-71.51"/>
<polygon fill="#63b8ff" stroke="#63b8ff" points="344.8,-114.62 355.19,-112.55 345.78,-107.68 344.8,-114.62"/>
</a>
</g>
</g>
<!-- Node15 -->
<g id="Node000015" class="node">
<title>Node15</title>
<g id="a_Node000015"><a xlink:href="a01913.html" target="_top" xlink:title=" ">
<polygon fill="white" stroke="#666666" points="172.26,-73 105.26,-73 105.26,-54.5 172.26,-54.5 172.26,-73"/>
<text text-anchor="middle" x="138.76" y="-59.5" font-family="Helvetica,sans-Serif" font-size="10.00">arax_pipe.c</text>
</a>
</g>
</g>
<!-- Node13&#45;&gt;Node15 -->
<g id="edge21_Node000013_Node000015" class="edge">
<title>Node13&#45;&gt;Node15</title>
<g id="a_edge21_Node000013_Node000015"><a xlink:title=" ">
<path fill="none" stroke="#63b8ff" d="M345.22,-107.93C295.77,-97.59 217.06,-81.13 172.47,-71.8"/>
<polygon fill="#63b8ff" stroke="#63b8ff" points="344.4,-111.55 354.91,-110.17 345.83,-104.7 344.4,-111.55"/>
</a>
</g>
</g>
<!-- Node16 -->
<g id="Node000016" class="node">
<title>Node16</title>
<g id="a_Node000016"><a xlink:href="a01940.html" target="_top" xlink:title=" ">
<polygon fill="white" stroke="#666666" points="254.76,-73 190.76,-73 190.76,-54.5 254.76,-54.5 254.76,-73"/>
<text text-anchor="middle" x="222.76" y="-59.5" font-family="Helvetica,sans-Serif" font-size="10.00">arax_plot.c</text>
</a>
</g>
</g>
<!-- Node13&#45;&gt;Node16 -->
<g id="edge22_Node000013_Node000016" class="edge">
<title>Node13&#45;&gt;Node16</title>
<g id="a_edge22_Node000013_Node000016"><a xlink:title=" ">
<path fill="none" stroke="#63b8ff" d="M351.8,-105.32C320.92,-95.61 278.07,-82.14 250.37,-73.43"/>
<polygon fill="#63b8ff" stroke="#63b8ff" points="350.59,-108.92 361.18,-108.58 352.69,-102.24 350.59,-108.92"/>
</a>
</g>
</g>
<!-- Node17 -->
<g id="Node000017" class="node">
<title>Node17</title>
<g id="a_Node000017"><a xlink:href="a01919.html" target="_top" xlink:title=" ">
<polygon fill="white" stroke="#666666" points="332.88,-73 272.63,-73 272.63,-54.5 332.88,-54.5 332.88,-73"/>
<text text-anchor="middle" x="302.76" y="-59.5" font-family="Helvetica,sans-Serif" font-size="10.00">arax_ptr.c</text>
</a>
</g>
</g>
<!-- Node13&#45;&gt;Node17 -->
<g id="edge23_Node000013_Node000017" class="edge">
<title>Node13&#45;&gt;Node17</title>
<g id="a_edge23_Node000013_Node000017"><a xlink:title=" ">
<path fill="none" stroke="#63b8ff" d="M366.3,-103.1C350.63,-93.64 330.5,-81.49 317.14,-73.43"/>
<polygon fill="#63b8ff" stroke="#63b8ff" points="364.02,-106.41 374.39,-108.58 367.64,-100.42 364.02,-106.41"/>
</a>
</g>
</g>
<!-- Node18 -->
<g id="Node000018" class="node">
<title>Node18</title>
<g id="a_Node000018"><a xlink:href="a01928.html" target="_top" xlink:title=" ">
<polygon fill="white" stroke="#666666" points="428.13,-73 351.38,-73 351.38,-54.5 428.13,-54.5 428.13,-73"/>
<text text-anchor="middle" x="389.76" y="-59.5" font-family="Helvetica,sans-Serif" font-size="10.00">arax_vaccel.c</text>
</a>
</g>
</g>
<!-- Node13&#45;&gt;Node18 -->
<g id="edge25_Node000013_Node000018" class="edge">
<title>Node13&#45;&gt;Node18</title>
<g id="a_edge25_Node000013_Node000018"><a xlink:title=" ">
<path fill="none" stroke="#63b8ff" d="M389.76,-97.72C389.76,-89.29 389.76,-79.86 389.76,-73.26"/>
<polygon fill="#63b8ff" stroke="#63b8ff" points="386.26,-97.58 389.76,-107.58 393.26,-97.58 386.26,-97.58"/>
</a>
</g>
</g>
<!-- Node20 -->
<g id="Node000020" class="node">
<title>Node20</title>
<g id="a_Node000020"><a xlink:href="a01391.html" target="_top" xlink:title=" ">
<polygon fill="white" stroke="#666666" points="514.88,-182 442.63,-182 442.63,-163.5 514.88,-163.5 514.88,-182"/>
<text text-anchor="middle" x="478.76" y="-168.5" font-family="Helvetica,sans-Serif" font-size="10.00">arax_accel.h</text>
</a>
</g>
</g>
<!-- Node19&#45;&gt;Node20 -->
<g id="edge28_Node000019_Node000020" class="edge">
<title>Node19&#45;&gt;Node20</title>
<g id="a_edge28_Node000019_Node000020"><a xlink:title=" ">
<path fill="none" stroke="#63b8ff" d="M472.21,-206.72C471.69,-198.29 472.17,-188.86 473.63,-182.26"/>
<polygon fill="#63b8ff" stroke="#63b8ff" points="468.86,-207.1 473.59,-216.58 475.8,-206.22 468.86,-207.1"/>
</a>
</g>
</g>
<!-- Node20&#45;&gt;Node4 -->
<g id="edge29_Node000020_Node000004" class="edge">
<title>Node20&#45;&gt;Node4</title>
<g id="a_edge29_Node000020_Node000004"><a xlink:title=" ">
<path fill="none" stroke="#63b8ff" d="M504.18,-158.13C521.98,-148.6 545.22,-136.14 560.55,-127.93"/>
<polygon fill="#63b8ff" stroke="#63b8ff" points="503.1,-155.27 495.94,-163.08 506.41,-161.44 503.1,-155.27"/>
</a>
</g>
</g>
<!-- Node20&#45;&gt;Node7 -->
<g id="edge30_Node000020_Node000007" class="edge">
<title>Node20&#45;&gt;Node7</title>
<g id="a_edge30_Node000020_Node000007"><a xlink:title=" ">
<path fill="none" stroke="#63b8ff" d="M520.86,-160.09C549.14,-151.87 587.08,-140.12 619.76,-127.5 638.03,-120.44 641.6,-116.34 659.76,-109 693.52,-95.35 733.3,-81.9 759.22,-73.48"/>
<polygon fill="#63b8ff" stroke="#63b8ff" points="520.16,-156.93 511.52,-163.05 522.1,-163.66 520.16,-156.93"/>
</a>
</g>
</g>
<!-- Node20&#45;&gt;Node13 -->
<g id="edge31_Node000020_Node000013" class="edge">
<title>Node20&#45;&gt;Node13</title>
<g id="a_edge31_Node000020_Node000013"><a xlink:title=" ">
<path fill="none" stroke="#63b8ff" d="M454.76,-157.6C438.73,-148.14 418.14,-135.99 404.48,-127.93"/>
<polygon fill="#63b8ff" stroke="#63b8ff" points="452.67,-161.01 463.06,-163.08 456.23,-154.99 452.67,-161.01"/>
</a>
</g>
</g>
<!-- Node20&#45;&gt;Node19 -->
<g id="edge32_Node000020_Node000019" class="edge">
<title>Node20&#45;&gt;Node19</title>
<g id="a_edge32_Node000020_Node000019"><a xlink:title=" ">
<path fill="none" stroke="#63b8ff" d="M485.29,-193.08C485.82,-201.49 485.37,-210.93 483.92,-217.58"/>
<polygon fill="#63b8ff" stroke="#63b8ff" points="488.65,-192.72 483.89,-183.26 481.71,-193.63 488.65,-192.72"/>
</a>
</g>
</g>
<!-- Node22 -->
<g id="Node000022" class="node">
<title>Node22</title>
<g id="a_Node000022"><a xlink:href="a02346.html" target="_top" xlink:title=" ">
<polygon fill="white" stroke="#666666" points="1060.63,-182 1010.88,-182 1010.88,-163.5 1060.63,-163.5 1060.63,-182"/>
<text text-anchor="middle" x="1035.76" y="-168.5" font-family="Helvetica,sans-Serif" font-size="10.00">async.c</text>
</a>
</g>
</g>
<!-- Node21&#45;&gt;Node22 -->
<g id="edge34_Node000021_Node000022" class="edge">
<title>Node21&#45;&gt;Node22</title>
<g id="a_edge34_Node000021_Node000022"><a xlink:title=" ">
<path fill="none" stroke="#63b8ff" d="M1035.76,-206.72C1035.76,-198.29 1035.76,-188.86 1035.76,-182.26"/>
<polygon fill="#63b8ff" stroke="#63b8ff" points="1032.26,-206.58 1035.76,-216.58 1039.26,-206.58 1032.26,-206.58"/>
</a>
</g>
</g>
<!-- Node24 -->
<g id="Node000024" class="node">
<title>Node24</title>
<g id="a_Node000024"><a xlink:href="a02349.html" target="_top" xlink:title=" ">
<polygon fill="white" stroke="#666666" points="886.63,-182 836.88,-182 836.88,-163.5 886.63,-163.5 886.63,-182"/>
<text text-anchor="middle" x="861.76" y="-168.5" font-family="Helvetica,sans-Serif" font-size="10.00">async.c</text>
</a>
</g>
</g>
<!-- Node23&#45;&gt;Node24 -->
<g id="edge36_Node000023_Node000024" class="edge">
<title>Node23&#45;&gt;Node24</title>
<g id="a_edge36_Node000023_Node000024"><a xlink:title=" ">
<path fill="none" stroke="#63b8ff" d="M861.76,-206.72C861.76,-198.29 861.76,-188.86 861.76,-182.26"/>
<polygon fill="#63b8ff" stroke="#63b8ff" points="858.26,-206.58 861.76,-216.58 865.26,-206.58 858.26,-206.58"/>
</a>
</g>
</g>
<!-- Node26 -->
<g id="Node000026" class="node">
<title>Node26</title>
<g id="a_Node000026"><a xlink:href="a02352.html" target="_top" xlink:title=" ">
<polygon fill="white" stroke="#666666" points="954.63,-182 904.88,-182 904.88,-163.5 954.63,-163.5 954.63,-182"/>
<text text-anchor="middle" x="929.76" y="-168.5" font-family="Helvetica,sans-Serif" font-size="10.00">async.c</text>
</a>
</g>
</g>
<!-- Node25&#45;&gt;Node26 -->
<g id="edge38_Node000025_Node000026" class="edge">
<title>Node25&#45;&gt;Node26</title>
<g id="a_edge38_Node000025_Node000026"><a xlink:title=" ">
<path fill="none" stroke="#63b8ff" d="M929.76,-206.72C929.76,-198.29 929.76,-188.86 929.76,-182.26"/>
<polygon fill="#63b8ff" stroke="#63b8ff" points="926.26,-206.58 929.76,-216.58 933.26,-206.58 926.26,-206.58"/>
</a>
</g>
</g>
</g>
</svg>
