<?xml version="1.0" encoding="UTF-8" standalone="no"?>
<!DOCTYPE svg PUBLIC "-//W3C//DTD SVG 1.1//EN"
 "http://www.w3.org/Graphics/SVG/1.1/DTD/svg11.dtd">
<!-- Generated by graphviz version 12.2.1 (0)
 -->
<!-- Title: config.h Pages: 1 -->
<svg width="186pt" height="81pt"
 viewBox="0.00 0.00 186.00 81.00" xmlns="http://www.w3.org/2000/svg" xmlns:xlink="http://www.w3.org/1999/xlink">
<g id="graph0" class="graph" transform="scale(1 1) rotate(0) translate(4 77)">
<title>config.h</title>
<!-- Node1 -->
<g id="Node000001" class="node">
<title>Node1</title>
<g id="a_Node000001"><a xlink:title=" ">
<polygon fill="#999999" stroke="#666666" points="118.12,-73 67.62,-73 67.62,-54.5 118.12,-54.5 118.12,-73"/>
<text text-anchor="middle" x="92.88" y="-59.5" font-family="Helvetica,sans-Serif" font-size="10.00">config.h</text>
</a>
</g>
</g>
<!-- Node2 -->
<g id="Node000002" class="node">
<title>Node2</title>
<g id="a_Node000002"><a xlink:href="a02358.html" target="_top" xlink:title=" ">
<polygon fill="white" stroke="#666666" points="49.75,-18.5 0,-18.5 0,0 49.75,0 49.75,-18.5"/>
<text text-anchor="middle" x="24.88" y="-5" font-family="Helvetica,sans-Serif" font-size="10.00">async.c</text>
</a>
</g>
</g>
<!-- Node1&#45;&gt;Node2 -->
<g id="edge1_Node000001_Node000002" class="edge">
<title>Node1&#45;&gt;Node2</title>
<g id="a_edge1_Node000001_Node000002"><a xlink:title=" ">
<path fill="none" stroke="#63b8ff" d="M72.73,-47.2C60.68,-37.89 45.83,-26.43 35.89,-18.76"/>
<polygon fill="#63b8ff" stroke="#63b8ff" points="70.39,-49.81 80.45,-53.16 74.67,-44.27 70.39,-49.81"/>
</a>
</g>
</g>
<!-- Node3 -->
<g id="Node000003" class="node">
<title>Node3</title>
<g id="a_Node000003"><a xlink:href="a01952.html" target="_top" xlink:title=" ">
<polygon fill="white" stroke="#666666" points="118.12,-18.5 67.62,-18.5 67.62,0 118.12,0 118.12,-18.5"/>
<text text-anchor="middle" x="92.88" y="-5" font-family="Helvetica,sans-Serif" font-size="10.00">config.c</text>
</a>
</g>
</g>
<!-- Node1&#45;&gt;Node3 -->
<g id="edge2_Node000001_Node000003" class="edge">
<title>Node1&#45;&gt;Node3</title>
<g id="a_edge2_Node000001_Node000003"><a xlink:title=" ">
<path fill="none" stroke="#63b8ff" d="M92.88,-42.64C92.88,-34.36 92.88,-25.21 92.88,-18.76"/>
<polygon fill="#63b8ff" stroke="#63b8ff" points="89.38,-42.57 92.88,-52.57 96.38,-42.57 89.38,-42.57"/>
</a>
</g>
</g>
<!-- Node4 -->
<g id="Node000004" class="node">
<title>Node4</title>
<g id="a_Node000004"><a xlink:href="a01910.html" target="_top" xlink:title=" ">
<polygon fill="white" stroke="#666666" points="178,-18.5 135.75,-18.5 135.75,0 178,0 178,-18.5"/>
<text text-anchor="middle" x="156.88" y="-5" font-family="Helvetica,sans-Serif" font-size="10.00">impl.c</text>
</a>
</g>
</g>
<!-- Node1&#45;&gt;Node4 -->
<g id="edge3_Node000001_Node000004" class="edge">
<title>Node1&#45;&gt;Node4</title>
<g id="a_edge3_Node000001_Node000004"><a xlink:title=" ">
<path fill="none" stroke="#63b8ff" d="M112.17,-46.92C123.45,-37.67 137.25,-26.35 146.5,-18.76"/>
<polygon fill="#63b8ff" stroke="#63b8ff" points="110.13,-44.07 104.61,-53.12 114.56,-49.48 110.13,-44.07"/>
</a>
</g>
</g>
</g>
</svg>
