<?xml version="1.0" encoding="UTF-8" standalone="no"?>
<!DOCTYPE svg PUBLIC "-//W3C//DTD SVG 1.1//EN"
 "http://www.w3.org/Graphics/SVG/1.1/DTD/svg11.dtd">
<!-- Generated by graphviz version 11.0.0 (0)
 -->
<!-- Title: utils_list_node_init Pages: 1 -->
<svg width="1615pt" height="648pt"
 viewBox="0.00 0.00 1615.00 648.25" xmlns="http://www.w3.org/2000/svg" xmlns:xlink="http://www.w3.org/1999/xlink">
<g id="graph0" class="graph" transform="scale(1 1) rotate(0) translate(4 644.25)">
<title>utils_list_node_init</title>
<!-- Node1 -->
<g id="Node000001" class="node">
<title>Node1</title>
<g id="a_Node000001"><a xlink:title=" ">
<polygon fill="#999999" stroke="#666666" points="1607,-549.5 1510.75,-549.5 1510.75,-531 1607,-531 1607,-549.5"/>
<text text-anchor="middle" x="1558.88" y="-536" font-family="Helvetica,sans-Serif" font-size="10.00">utils_list_node_init</text>
</a>
</g>
</g>
<!-- Node2 -->
<g id="Node000002" class="node">
<title>Node2</title>
<g id="a_Node000002"><a xlink:href="a01928.html#a402bbd6fa197c2c48d527325e5e2cf5b" target="_top" xlink:title=" ">
<polygon fill="white" stroke="#666666" points="727.25,-527.5 622.75,-527.5 622.75,-509 727.25,-509 727.25,-527.5"/>
<text text-anchor="middle" x="675" y="-514" font-family="Helvetica,sans-Serif" font-size="10.00">arax_object_register</text>
</a>
</g>
</g>
<!-- Node1&#45;&gt;Node2 -->
<g id="edge1_Node000001_Node000002" class="edge">
<title>Node1&#45;&gt;Node2</title>
<g id="a_edge1_Node000001_Node000002"><a xlink:title=" ">
<path fill="none" stroke="#63b8ff" d="M1520.46,-553.63C1466.04,-571.85 1361.55,-602.25 1269.88,-602.25 1269.88,-602.25 1269.88,-602.25 965.5,-602.25 859.79,-602.25 740.65,-549.95 695.1,-527.89"/>
<polygon fill="#63b8ff" stroke="#63b8ff" points="1521.52,-556.96 1529.85,-550.43 1519.26,-550.34 1521.52,-556.96"/>
</a>
</g>
</g>
<!-- Node17 -->
<g id="Node000017" class="node">
<title>Node17</title>
<g id="a_Node000017"><a xlink:href="a01946.html#a83ddb422946cf774c687c1ab63dcda15" target="_top" xlink:title=" ">
<polygon fill="white" stroke="#666666" points="571.75,-526.5 485.25,-526.5 485.25,-508 571.75,-508 571.75,-526.5"/>
<text text-anchor="middle" x="528.5" y="-513" font-family="Helvetica,sans-Serif" font-size="10.00">arax_vaccel_init</text>
</a>
</g>
</g>
<!-- Node1&#45;&gt;Node17 -->
<g id="edge21_Node000001_Node000017" class="edge">
<title>Node1&#45;&gt;Node17</title>
<g id="a_edge21_Node000001_Node000017"><a xlink:title=" ">
<path fill="none" stroke="#63b8ff" d="M1537.27,-557.02C1521.16,-569.33 1497.71,-585.53 1474.75,-595.25 1388.9,-631.59 1363.1,-640.25 1269.88,-640.25 1269.88,-640.25 1269.88,-640.25 814.88,-640.25 702.84,-640.25 689.42,-577.48 585.25,-536.25 577.07,-533.01 568.1,-529.81 559.78,-526.98"/>
<polygon fill="#63b8ff" stroke="#63b8ff" points="1539.39,-559.81 1545.1,-550.89 1535.07,-554.3 1539.39,-559.81"/>
</a>
</g>
</g>
<!-- Node20 -->
<g id="Node000020" class="node">
<title>Node20</title>
<g id="a_Node000020"><a xlink:href="a02367.html#ac728117d73179c279de49e01ae905dda" target="_top" xlink:title=" ">
<polygon fill="white" stroke="#666666" points="1474.75,-451.5 1362.75,-451.5 1362.75,-433 1474.75,-433 1474.75,-451.5"/>
<text text-anchor="middle" x="1418.75" y="-438" font-family="Helvetica,sans-Serif" font-size="10.00">async_completion_init</text>
</a>
</g>
</g>
<!-- Node1&#45;&gt;Node20 -->
<g id="edge22_Node000001_Node000020" class="edge">
<title>Node1&#45;&gt;Node20</title>
<g id="a_edge22_Node000001_Node000020"><a xlink:title=" ">
<path fill="none" stroke="#63b8ff" d="M1535.01,-524.03C1505.93,-503.4 1456.67,-468.45 1433.1,-451.72"/>
<polygon fill="#63b8ff" stroke="#63b8ff" points="1532.96,-526.87 1543.15,-529.8 1537.01,-521.16 1532.96,-526.87"/>
</a>
</g>
</g>
<!-- Node39 -->
<g id="Node000039" class="node">
<title>Node39</title>
<g id="a_Node000039"><a xlink:href="a01958.html#ab36e49d2e694b1da49504a689ed48e4a" target="_top" xlink:title=" ">
<polygon fill="white" stroke="#666666" points="1453.75,-245.5 1383.75,-245.5 1383.75,-227 1453.75,-227 1453.75,-245.5"/>
<text text-anchor="middle" x="1418.75" y="-232" font-family="Helvetica,sans-Serif" font-size="10.00">utils_list_init</text>
</a>
</g>
</g>
<!-- Node1&#45;&gt;Node39 -->
<g id="edge50_Node000001_Node000039" class="edge">
<title>Node1&#45;&gt;Node39</title>
<g id="a_edge50_Node000001_Node000039"><a xlink:title=" ">
<path fill="none" stroke="#63b8ff" d="M1548.98,-520.67C1522.29,-461.93 1443.55,-288.64 1424.12,-245.87"/>
<polygon fill="#63b8ff" stroke="#63b8ff" points="1545.64,-521.78 1552.96,-529.44 1552.01,-518.89 1545.64,-521.78"/>
</a>
</g>
</g>
<!-- Node3 -->
<g id="Node000003" class="node">
<title>Node3</title>
<g id="a_Node000003"><a xlink:href="a01919.html#a0706a66a62ca8710342ac1c097b703ed" target="_top" xlink:title=" ">
<polygon fill="white" stroke="#666666" points="413.62,-376.5 331.62,-376.5 331.62,-358 413.62,-358 413.62,-376.5"/>
<text text-anchor="middle" x="372.62" y="-363" font-family="Helvetica,sans-Serif" font-size="10.00">arax_accel_init</text>
</a>
</g>
</g>
<!-- Node2&#45;&gt;Node3 -->
<g id="edge2_Node000002_Node000003" class="edge">
<title>Node2&#45;&gt;Node3</title>
<g id="a_edge2_Node000002_Node000003"><a xlink:title=" ">
<path fill="none" stroke="#63b8ff" d="M618.75,-506C567.87,-494.13 496.62,-475.82 471.75,-461.25 452.23,-449.81 452.02,-440.97 435.75,-425.25 417.92,-408.02 396.74,-388.43 384.28,-376.99"/>
<polygon fill="#63b8ff" stroke="#63b8ff" points="617.91,-509.4 628.44,-508.24 619.49,-502.58 617.91,-509.4"/>
</a>
</g>
</g>
<!-- Node4 -->
<g id="Node000004" class="node">
<title>Node4</title>
<g id="a_Node000004"><a xlink:href="a01925.html#a526989df37e605824d846b7ba54b43ea" target="_top" xlink:title=" ">
<polygon fill="white" stroke="#666666" points="585.25,-563.5 471.75,-563.5 471.75,-545 585.25,-545 585.25,-563.5"/>
<text text-anchor="middle" x="528.5" y="-550" font-family="Helvetica,sans-Serif" font-size="10.00">arax_data_init_aligned</text>
</a>
</g>
</g>
<!-- Node2&#45;&gt;Node4 -->
<g id="edge3_Node000002_Node000004" class="edge">
<title>Node2&#45;&gt;Node4</title>
<g id="a_edge3_Node000002_Node000004"><a xlink:title=" ">
<path fill="none" stroke="#63b8ff" d="M623.94,-530.72C605.83,-535.23 585.67,-540.26 568.64,-544.5"/>
<polygon fill="#63b8ff" stroke="#63b8ff" points="624.57,-534.17 633.43,-528.36 622.88,-527.38 624.57,-534.17"/>
</a>
</g>
</g>
<!-- Node7 -->
<g id="Node000007" class="node">
<title>Node7</title>
<g id="a_Node000007"><a xlink:href="a01934.html#a86ac572ea8f5f613129192c47d598818" target="_top" xlink:title=" ">
<polygon fill="white" stroke="#666666" points="567.25,-600.5 489.75,-600.5 489.75,-582 567.25,-582 567.25,-600.5"/>
<text text-anchor="middle" x="528.5" y="-587" font-family="Helvetica,sans-Serif" font-size="10.00">arax_proc_init</text>
</a>
</g>
</g>
<!-- Node2&#45;&gt;Node7 -->
<g id="edge6_Node000002_Node000007" class="edge">
<title>Node2&#45;&gt;Node7</title>
<g id="a_edge6_Node000002_Node000007"><a xlink:title=" ">
<path fill="none" stroke="#63b8ff" d="M651.02,-534.15C633.55,-545.77 608.6,-561.33 585.25,-572.25 577.84,-575.72 569.62,-578.87 561.81,-581.57"/>
<polygon fill="#63b8ff" stroke="#63b8ff" points="652.8,-537.18 659.13,-528.68 648.88,-531.37 652.8,-537.18"/>
</a>
</g>
</g>
<!-- Node9 -->
<g id="Node000009" class="node">
<title>Node9</title>
<g id="a_Node000009"><a xlink:href="a01940.html#a27bee94f7a23281c8b2b72ec433f6059" target="_top" xlink:title=" ">
<polygon fill="white" stroke="#666666" points="571,-452.5 486,-452.5 486,-434 571,-434 571,-452.5"/>
<text text-anchor="middle" x="528.5" y="-439" font-family="Helvetica,sans-Serif" font-size="10.00">arax_task_alloc</text>
</a>
</g>
</g>
<!-- Node2&#45;&gt;Node9 -->
<g id="edge8_Node000002_Node000009" class="edge">
<title>Node2&#45;&gt;Node9</title>
<g id="a_edge8_Node000002_Node000009"><a xlink:title=" ">
<path fill="none" stroke="#63b8ff" d="M630.42,-504.14C627.25,-502.64 624.15,-501.01 621.25,-499.25 602.68,-488.02 603.56,-477.9 585.25,-466.25 577.03,-461.02 567.43,-456.56 558.53,-452.99"/>
<polygon fill="#63b8ff" stroke="#63b8ff" points="628.75,-507.24 639.32,-507.94 631.5,-500.8 628.75,-507.24"/>
</a>
</g>
</g>
<!-- Node2&#45;&gt;Node17 -->
<g id="edge17_Node000002_Node000017" class="edge">
<title>Node2&#45;&gt;Node17</title>
<g id="a_edge17_Node000002_Node000017"><a xlink:title=" ">
<path fill="none" stroke="#63b8ff" d="M611.2,-517.82C597.99,-517.72 584.36,-517.63 572.1,-517.54"/>
<polygon fill="#63b8ff" stroke="#63b8ff" points="611.11,-521.31 621.13,-517.88 611.16,-514.31 611.11,-521.31"/>
</a>
</g>
</g>
<!-- Node5 -->
<g id="Node000005" class="node">
<title>Node5</title>
<g id="a_Node000005"><a xlink:href="a01925.html#aeefe449d4a278e9fc4b9c5f7e31000a1" target="_top" xlink:title=" ">
<polygon fill="white" stroke="#666666" points="411.38,-563.5 333.88,-563.5 333.88,-545 411.38,-545 411.38,-563.5"/>
<text text-anchor="middle" x="372.62" y="-550" font-family="Helvetica,sans-Serif" font-size="10.00">arax_data_init</text>
</a>
</g>
</g>
<!-- Node4&#45;&gt;Node5 -->
<g id="edge4_Node000004_Node000005" class="edge">
<title>Node4&#45;&gt;Node5</title>
<g id="a_edge4_Node000004_Node000005"><a xlink:title=" ">
<path fill="none" stroke="#63b8ff" d="M460.12,-554.25C443.48,-554.25 426.22,-554.25 411.54,-554.25"/>
<polygon fill="#63b8ff" stroke="#63b8ff" points="460,-557.75 470,-554.25 460,-550.75 460,-557.75"/>
</a>
</g>
</g>
<!-- Node6 -->
<g id="Node000006" class="node">
<title>Node6</title>
<g id="a_Node000006"><a xlink:href="a02193.html#ga9260ad2dd766aec3274c518e2e312b1f" target="_top" xlink:title=" ">
<polygon fill="white" stroke="#666666" points="252.12,-563.5 162.62,-563.5 162.62,-545 252.12,-545 252.12,-563.5"/>
<text text-anchor="middle" x="207.38" y="-550" font-family="Helvetica,sans-Serif" font-size="10.00">ARAX_BUFFER</text>
</a>
</g>
</g>
<!-- Node5&#45;&gt;Node6 -->
<g id="edge5_Node000005_Node000006" class="edge">
<title>Node5&#45;&gt;Node6</title>
<g id="a_edge5_Node000005_Node000006"><a xlink:title=" ">
<path fill="none" stroke="#63b8ff" d="M322.5,-554.25C300.2,-554.25 274.04,-554.25 252.39,-554.25"/>
<polygon fill="#63b8ff" stroke="#63b8ff" points="322.25,-557.75 332.25,-554.25 322.25,-550.75 322.25,-557.75"/>
</a>
</g>
</g>
<!-- Node8 -->
<g id="Node000008" class="node">
<title>Node8</title>
<g id="a_Node000008"><a xlink:href="a02191.html#gafad2dafb4a231390f02b7c866295b7d9" target="_top" xlink:title=" ">
<polygon fill="white" stroke="#666666" points="421.12,-600.5 324.12,-600.5 324.12,-582 421.12,-582 421.12,-600.5"/>
<text text-anchor="middle" x="372.62" y="-587" font-family="Helvetica,sans-Serif" font-size="10.00">arax_proc_register</text>
</a>
</g>
</g>
<!-- Node7&#45;&gt;Node8 -->
<g id="edge7_Node000007_Node000008" class="edge">
<title>Node7&#45;&gt;Node8</title>
<g id="a_edge7_Node000007_Node000008"><a xlink:title=" ">
<path fill="none" stroke="#63b8ff" d="M478.2,-591.25C460.02,-591.25 439.47,-591.25 421.42,-591.25"/>
<polygon fill="#63b8ff" stroke="#63b8ff" points="477.95,-594.75 487.95,-591.25 477.95,-587.75 477.95,-594.75"/>
</a>
</g>
</g>
<!-- Node10 -->
<g id="Node000010" class="node">
<title>Node10</title>
<g id="a_Node000010"><a xlink:href="a02192.html#gac9f0f3fbb14da879d3ff09bd367bbb24" target="_top" xlink:title=" ">
<polygon fill="white" stroke="#666666" points="416.62,-452.5 328.62,-452.5 328.62,-434 416.62,-434 416.62,-452.5"/>
<text text-anchor="middle" x="372.62" y="-439" font-family="Helvetica,sans-Serif" font-size="10.00">arax_task_issue</text>
</a>
</g>
</g>
<!-- Node9&#45;&gt;Node10 -->
<g id="edge9_Node000009_Node000010" class="edge">
<title>Node9&#45;&gt;Node10</title>
<g id="a_edge9_Node000009_Node000010"><a xlink:title=" ">
<path fill="none" stroke="#63b8ff" d="M474.48,-443.25C455.69,-443.25 434.79,-443.25 416.91,-443.25"/>
<polygon fill="#63b8ff" stroke="#63b8ff" points="474.35,-446.75 484.35,-443.25 474.35,-439.75 474.35,-446.75"/>
</a>
</g>
</g>
<!-- Node11 -->
<g id="Node000011" class="node">
<title>Node11</title>
<g id="a_Node000011"><a xlink:href="a01925.html#af8ede6fc8d207004035f45d945688d2c" target="_top" xlink:title=" ">
<polygon fill="white" stroke="#666666" points="256.62,-378.75 158.12,-378.75 158.12,-349.75 256.62,-349.75 256.62,-378.75"/>
<text text-anchor="start" x="166.12" y="-365.25" font-family="Helvetica,sans-Serif" font-size="10.00">arax_data_allocate</text>
<text text-anchor="middle" x="207.38" y="-354.75" font-family="Helvetica,sans-Serif" font-size="10.00">_remote</text>
</a>
</g>
</g>
<!-- Node10&#45;&gt;Node11 -->
<g id="edge10_Node000010_Node000011" class="edge">
<title>Node10&#45;&gt;Node11</title>
<g id="a_edge10_Node000010_Node000011"><a xlink:title=" ">
<path fill="none" stroke="#63b8ff" d="M327.98,-429.46C321.6,-426.77 315.25,-423.7 309.5,-420.25 291.15,-409.23 291.86,-399.25 273.5,-388.25 267.92,-384.91 261.79,-381.9 255.6,-379.25"/>
<polygon fill="#63b8ff" stroke="#63b8ff" points="326.65,-432.7 337.24,-433.07 329.19,-426.17 326.65,-432.7"/>
</a>
</g>
</g>
<!-- Node12 -->
<g id="Node000012" class="node">
<title>Node12</title>
<g id="a_Node000012"><a xlink:href="a01925.html#a696bc4319d0f6c6baa7d797a8df6b56f" target="_top" xlink:title=" ">
<polygon fill="white" stroke="#666666" points="246.5,-452.5 168.25,-452.5 168.25,-434 246.5,-434 246.5,-452.5"/>
<text text-anchor="middle" x="207.38" y="-439" font-family="Helvetica,sans-Serif" font-size="10.00">arax_data_get</text>
</a>
</g>
</g>
<!-- Node10&#45;&gt;Node12 -->
<g id="edge11_Node000010_Node000012" class="edge">
<title>Node10&#45;&gt;Node12</title>
<g id="a_edge11_Node000010_Node000012"><a xlink:title=" ">
<path fill="none" stroke="#63b8ff" d="M316.97,-443.25C293.99,-443.25 267.79,-443.25 246.88,-443.25"/>
<polygon fill="#63b8ff" stroke="#63b8ff" points="316.79,-446.75 326.79,-443.25 316.79,-439.75 316.79,-446.75"/>
</a>
</g>
</g>
<!-- Node14 -->
<g id="Node000014" class="node">
<title>Node14</title>
<g id="a_Node000014"><a xlink:href="a01925.html#a8995f71dba475975efc37756783cfce9" target="_top" xlink:title=" ">
<polygon fill="white" stroke="#666666" points="246.5,-415.5 168.25,-415.5 168.25,-397 246.5,-397 246.5,-415.5"/>
<text text-anchor="middle" x="207.38" y="-402" font-family="Helvetica,sans-Serif" font-size="10.00">arax_data_set</text>
</a>
</g>
</g>
<!-- Node10&#45;&gt;Node14 -->
<g id="edge13_Node000010_Node000014" class="edge">
<title>Node10&#45;&gt;Node14</title>
<g id="a_edge13_Node000010_Node000014"><a xlink:title=" ">
<path fill="none" stroke="#63b8ff" d="M317.66,-431.02C294.49,-425.77 267.93,-419.75 246.8,-414.96"/>
<polygon fill="#63b8ff" stroke="#63b8ff" points="316.73,-434.4 327.26,-433.19 318.28,-427.57 316.73,-434.4"/>
</a>
</g>
</g>
<!-- Node15 -->
<g id="Node000015" class="node">
<title>Node15</title>
<g id="a_Node000015"><a xlink:href="a01925.html#af735744d0f8bec04394639a841d2ba0f" target="_top" xlink:title=" ">
<polygon fill="white" stroke="#666666" points="273.5,-526.5 141.25,-526.5 141.25,-508 273.5,-508 273.5,-526.5"/>
<text text-anchor="middle" x="207.38" y="-513" font-family="Helvetica,sans-Serif" font-size="10.00">ARAX_OBJ_DTOR_DECL</text>
</a>
</g>
</g>
<!-- Node10&#45;&gt;Node15 -->
<g id="edge15_Node000010_Node000015" class="edge">
<title>Node10&#45;&gt;Node15</title>
<g id="a_edge15_Node000010_Node000015"><a xlink:title=" ">
<path fill="none" stroke="#63b8ff" d="M319.43,-457.09C315.99,-458.65 312.64,-460.36 309.5,-462.25 290.11,-473.9 292.97,-486.72 273.5,-498.25 267.12,-502.03 259.93,-505.1 252.72,-507.58"/>
<polygon fill="#63b8ff" stroke="#63b8ff" points="320.58,-460.4 328.57,-453.45 317.98,-453.9 320.58,-460.4"/>
</a>
</g>
</g>
<!-- Node16 -->
<g id="Node000016" class="node">
<title>Node16</title>
<g id="a_Node000016"><a xlink:href="a02192.html#ga1418f4cd7336bf77cce7b955a1bf7077" target="_top" xlink:title=" ">
<polygon fill="white" stroke="#666666" points="264.12,-489.5 150.62,-489.5 150.62,-471 264.12,-471 264.12,-489.5"/>
<text text-anchor="middle" x="207.38" y="-476" font-family="Helvetica,sans-Serif" font-size="10.00">arax_task_issue_sync</text>
</a>
</g>
</g>
<!-- Node10&#45;&gt;Node16 -->
<g id="edge16_Node000010_Node000016" class="edge">
<title>Node10&#45;&gt;Node16</title>
<g id="a_edge16_Node000010_Node000016"><a xlink:title=" ">
<path fill="none" stroke="#63b8ff" d="M317.75,-455.46C296.15,-460.36 271.62,-465.92 251.26,-470.53"/>
<polygon fill="#63b8ff" stroke="#63b8ff" points="318.28,-458.93 327.26,-453.31 316.73,-452.1 318.28,-458.93"/>
</a>
</g>
</g>
<!-- Node13 -->
<g id="Node000013" class="node">
<title>Node13</title>
<g id="a_Node000013"><a xlink:href="a01925.html#a7d8356bd5c8b6a8d7dffc6ba94cc22e5" target="_top" xlink:title=" ">
<polygon fill="white" stroke="#666666" points="103.75,-433.5 1.5,-433.5 1.5,-415 103.75,-415 103.75,-433.5"/>
<text text-anchor="middle" x="52.62" y="-420" font-family="Helvetica,sans-Serif" font-size="10.00">arax_data_memcpy</text>
</a>
</g>
</g>
<!-- Node12&#45;&gt;Node13 -->
<g id="edge12_Node000012_Node000013" class="edge">
<title>Node12&#45;&gt;Node13</title>
<g id="a_edge12_Node000012_Node000013"><a xlink:title=" ">
<path fill="none" stroke="#63b8ff" d="M156.53,-437.05C139.69,-434.96 120.89,-432.62 104,-430.52"/>
<polygon fill="#63b8ff" stroke="#63b8ff" points="155.97,-440.51 166.33,-438.27 156.84,-433.56 155.97,-440.51"/>
</a>
</g>
</g>
<!-- Node14&#45;&gt;Node13 -->
<g id="edge14_Node000014_Node000013" class="edge">
<title>Node14&#45;&gt;Node13</title>
<g id="a_edge14_Node000014_Node000013"><a xlink:title=" ">
<path fill="none" stroke="#63b8ff" d="M156.53,-412.12C139.69,-414.11 120.89,-416.32 104,-418.31"/>
<polygon fill="#63b8ff" stroke="#63b8ff" points="156.8,-415.62 166.33,-410.97 155.99,-408.66 156.8,-415.62"/>
</a>
</g>
</g>
<!-- Node17&#45;&gt;Node3 -->
<g id="edge20_Node000017_Node000003" class="edge">
<title>Node17&#45;&gt;Node3</title>
<g id="a_edge20_Node000017_Node000003"><a xlink:title=" ">
<path fill="none" stroke="#63b8ff" d="M483.4,-502.61C479.2,-500.2 475.23,-497.43 471.75,-494.25 446.22,-470.91 456.69,-452.78 435.75,-425.25 421.1,-405.99 399.72,-387.6 386.25,-376.88"/>
<polygon fill="#63b8ff" stroke="#63b8ff" points="481.58,-505.61 492.09,-506.93 484.69,-499.34 481.58,-505.61"/>
</a>
</g>
</g>
<!-- Node18 -->
<g id="Node000018" class="node">
<title>Node18</title>
<g id="a_Node000018"><a xlink:href="a02190.html#gaf8a10ab4e51e59c464ab3ab473e4a0f7" target="_top" xlink:title=" ">
<polygon fill="white" stroke="#666666" points="435.75,-489.5 309.5,-489.5 309.5,-471 435.75,-471 435.75,-489.5"/>
<text text-anchor="middle" x="372.62" y="-476" font-family="Helvetica,sans-Serif" font-size="10.00">arax_accel_acquire_phys</text>
</a>
</g>
</g>
<!-- Node17&#45;&gt;Node18 -->
<g id="edge18_Node000017_Node000018" class="edge">
<title>Node17&#45;&gt;Node18</title>
<g id="a_edge18_Node000017_Node000018"><a xlink:title=" ">
<path fill="none" stroke="#63b8ff" d="M476.15,-504.9C455.94,-500.04 433.06,-494.54 414.05,-489.97"/>
<polygon fill="#63b8ff" stroke="#63b8ff" points="475.06,-508.24 485.6,-507.17 476.69,-501.43 475.06,-508.24"/>
</a>
</g>
</g>
<!-- Node19 -->
<g id="Node000019" class="node">
<title>Node19</title>
<g id="a_Node000019"><a xlink:href="a02190.html#ga008252bb9afc2990fa2c5f4b980c9f27" target="_top" xlink:title=" ">
<polygon fill="white" stroke="#666666" points="435,-526.5 310.25,-526.5 310.25,-508 435,-508 435,-526.5"/>
<text text-anchor="middle" x="372.62" y="-513" font-family="Helvetica,sans-Serif" font-size="10.00">arax_accel_acquire_type</text>
</a>
</g>
</g>
<!-- Node17&#45;&gt;Node19 -->
<g id="edge19_Node000017_Node000019" class="edge">
<title>Node17&#45;&gt;Node19</title>
<g id="a_edge19_Node000017_Node000019"><a xlink:title=" ">
<path fill="none" stroke="#63b8ff" d="M473.89,-517.25C461.41,-517.25 448.03,-517.25 435.24,-517.25"/>
<polygon fill="#63b8ff" stroke="#63b8ff" points="473.53,-520.75 483.53,-517.25 473.53,-513.75 473.53,-520.75"/>
</a>
</g>
</g>
<!-- Node20&#45;&gt;Node9 -->
<g id="edge23_Node000020_Node000009" class="edge">
<title>Node20&#45;&gt;Node9</title>
<g id="a_edge23_Node000020_Node000009"><a xlink:title=" ">
<path fill="none" stroke="#63b8ff" d="M1351.26,-442.32C1177.49,-442.52 713.45,-443.04 571.41,-443.2"/>
<polygon fill="#63b8ff" stroke="#63b8ff" points="1351.01,-445.83 1361.01,-442.31 1351,-438.83 1351.01,-445.83"/>
</a>
</g>
</g>
<!-- Node21 -->
<g id="Node000021" class="node">
<title>Node21</title>
<g id="a_Node000021"><a xlink:href="a02367.html#ac7fbf1f43289d3e0e862b315f00e35e2" target="_top" xlink:title=" ">
<polygon fill="white" stroke="#666666" points="1172.38,-339.5 1068.62,-339.5 1068.62,-321 1172.38,-321 1172.38,-339.5"/>
<text text-anchor="middle" x="1120.5" y="-326" font-family="Helvetica,sans-Serif" font-size="10.00">async_condition_init</text>
</a>
</g>
</g>
<!-- Node20&#45;&gt;Node21 -->
<g id="edge24_Node000020_Node000021" class="edge">
<title>Node20&#45;&gt;Node21</title>
<g id="a_edge24_Node000020_Node000021"><a xlink:title=" ">
<path fill="none" stroke="#63b8ff" d="M1393.18,-426.51C1375.29,-415.54 1350.18,-401.15 1326.75,-391.25 1272.31,-368.24 1206.31,-350.28 1164.12,-339.98"/>
<polygon fill="#63b8ff" stroke="#63b8ff" points="1391.2,-429.39 1401.53,-431.71 1394.9,-423.45 1391.2,-429.39"/>
</a>
</g>
</g>
<!-- Node32 -->
<g id="Node000032" class="node">
<title>Node32</title>
<g id="a_Node000032"><a xlink:href="a02367.html#a7ab7c7fe9cb93434dde72a4e464a7e69" target="_top" xlink:title=" ">
<polygon fill="white" stroke="#666666" points="1326.75,-470.5 1211,-470.5 1211,-452 1326.75,-452 1326.75,-470.5"/>
<text text-anchor="middle" x="1268.88" y="-457" font-family="Helvetica,sans-Serif" font-size="10.00">async_semaphore_dec</text>
</a>
</g>
</g>
<!-- Node20&#45;&gt;Node32 -->
<g id="edge40_Node000020_Node000032" class="edge">
<title>Node20&#45;&gt;Node32</title>
<g id="a_edge40_Node000020_Node000032"><a xlink:title=" ">
<path fill="none" stroke="#63b8ff" d="M1351.09,-450.82C1343.1,-451.84 1334.99,-452.88 1327.15,-453.89"/>
<polygon fill="#63b8ff" stroke="#63b8ff" points="1351.29,-454.32 1360.76,-449.57 1350.4,-447.37 1351.29,-454.32"/>
</a>
</g>
</g>
<!-- Node21&#45;&gt;Node3 -->
<g id="edge25_Node000021_Node000003" class="edge">
<title>Node21&#45;&gt;Node3</title>
<g id="a_edge25_Node000021_Node000003"><a xlink:title=" ">
<path fill="none" stroke="#63b8ff" d="M1065.48,-342.11C1053.82,-344.39 1041.53,-346.58 1030,-348.25 935.88,-361.87 911.97,-367.25 816.88,-367.25 816.88,-367.25 816.88,-367.25 674,-367.25 580.92,-367.25 471.6,-367.25 413.95,-367.25"/>
<polygon fill="#63b8ff" stroke="#63b8ff" points="1065.82,-345.61 1074.94,-340.21 1064.44,-338.74 1065.82,-345.61"/>
</a>
</g>
</g>
<!-- Node22 -->
<g id="Node000022" class="node">
<title>Node22</title>
<g id="a_Node000022"><a xlink:href="a01931.html#aa6293e9ec7776aa49ecf632fcc4f5e26" target="_top" xlink:title=" ">
<polygon fill="white" stroke="#666666" points="854.25,-264.5 777.5,-264.5 777.5,-246 854.25,-246 854.25,-264.5"/>
<text text-anchor="middle" x="815.88" y="-251" font-family="Helvetica,sans-Serif" font-size="10.00">arax_pipe_init</text>
</a>
</g>
</g>
<!-- Node21&#45;&gt;Node22 -->
<g id="edge26_Node000021_Node000022" class="edge">
<title>Node21&#45;&gt;Node22</title>
<g id="a_edge26_Node000021_Node000022"><a xlink:title=" ">
<path fill="none" stroke="#63b8ff" d="M1069.08,-317.75C1008.65,-302.78 908.79,-278.03 854.63,-264.61"/>
<polygon fill="#63b8ff" stroke="#63b8ff" points="1068.23,-321.15 1078.78,-320.16 1069.91,-314.36 1068.23,-321.15"/>
</a>
</g>
</g>
<!-- Node31 -->
<g id="Node000031" class="node">
<title>Node31</title>
<g id="a_Node000031"><a xlink:href="a01943.html#acf84ea82594c4dbe91cf602ee078e04d" target="_top" xlink:title=" ">
<polygon fill="white" stroke="#666666" points="1010.88,-339.5 922.12,-339.5 922.12,-321 1010.88,-321 1010.88,-339.5"/>
<text text-anchor="middle" x="966.5" y="-326" font-family="Helvetica,sans-Serif" font-size="10.00">arax_throttle_init</text>
</a>
</g>
</g>
<!-- Node21&#45;&gt;Node31 -->
<g id="edge37_Node000021_Node000031" class="edge">
<title>Node21&#45;&gt;Node31</title>
<g id="a_edge37_Node000021_Node000031"><a xlink:title=" ">
<path fill="none" stroke="#63b8ff" d="M1057.33,-330.25C1041.79,-330.25 1025.46,-330.25 1011.04,-330.25"/>
<polygon fill="#63b8ff" stroke="#63b8ff" points="1056.95,-333.75 1066.95,-330.25 1056.95,-326.75 1056.95,-333.75"/>
</a>
</g>
</g>
<!-- Node23 -->
<g id="Node000023" class="node">
<title>Node23</title>
<g id="a_Node000023"><a xlink:href="a01913.html#a02fd608f651d254148dc74f0ae371dfe" target="_top" xlink:title=" ">
<polygon fill="white" stroke="#666666" points="704.38,-264.5 645.62,-264.5 645.62,-246 704.38,-246 704.38,-264.5"/>
<text text-anchor="middle" x="675" y="-251" font-family="Helvetica,sans-Serif" font-size="10.00">_arax_init</text>
</a>
</g>
</g>
<!-- Node22&#45;&gt;Node23 -->
<g id="edge27_Node000022_Node000023" class="edge">
<title>Node22&#45;&gt;Node23</title>
<g id="a_edge27_Node000022_Node000023"><a xlink:title=" ">
<path fill="none" stroke="#63b8ff" d="M765.94,-255.25C745.49,-255.25 722.44,-255.25 704.8,-255.25"/>
<polygon fill="#63b8ff" stroke="#63b8ff" points="765.78,-258.75 775.78,-255.25 765.78,-251.75 765.78,-258.75"/>
</a>
</g>
</g>
<!-- Node24 -->
<g id="Node000024" class="node">
<title>Node24</title>
<g id="a_Node000024"><a xlink:href="a01913.html#aa6e4832b06bd5757be4502d2de7b3026" target="_top" xlink:title=" ">
<polygon fill="white" stroke="#666666" points="577.75,-269.75 479.25,-269.75 479.25,-240.75 577.75,-240.75 577.75,-269.75"/>
<text text-anchor="start" x="487.25" y="-256.25" font-family="Helvetica,sans-Serif" font-size="10.00">arax_controller_init</text>
<text text-anchor="middle" x="528.5" y="-245.75" font-family="Helvetica,sans-Serif" font-size="10.00">_start</text>
</a>
</g>
</g>
<!-- Node23&#45;&gt;Node24 -->
<g id="edge28_Node000023_Node000024" class="edge">
<title>Node23&#45;&gt;Node24</title>
<g id="a_edge28_Node000023_Node000024"><a xlink:title=" ">
<path fill="none" stroke="#63b8ff" d="M634.04,-255.25C616.76,-255.25 596.36,-255.25 578.2,-255.25"/>
<polygon fill="#63b8ff" stroke="#63b8ff" points="633.94,-258.75 643.94,-255.25 633.94,-251.75 633.94,-258.75"/>
</a>
</g>
</g>
<!-- Node25 -->
<g id="Node000025" class="node">
<title>Node25</title>
<g id="a_Node000025"><a xlink:href="a02189.html#gae1d371a2840849690acce147e7a205da" target="_top" xlink:title=" ">
<polygon fill="white" stroke="#666666" points="555.25,-113.5 501.75,-113.5 501.75,-95 555.25,-95 555.25,-113.5"/>
<text text-anchor="middle" x="528.5" y="-100" font-family="Helvetica,sans-Serif" font-size="10.00">arax_init</text>
</a>
</g>
</g>
<!-- Node23&#45;&gt;Node25 -->
<g id="edge29_Node000023_Node000025" class="edge">
<title>Node23&#45;&gt;Node25</title>
<g id="a_edge29_Node000023_Node000025"><a xlink:title=" ">
<path fill="none" stroke="#63b8ff" d="M657.26,-237.75C626.56,-205.68 562.25,-138.48 538.54,-113.69"/>
<polygon fill="#63b8ff" stroke="#63b8ff" points="654.47,-239.91 663.91,-244.71 659.53,-235.07 654.47,-239.91"/>
</a>
</g>
</g>
<!-- Node26 -->
<g id="Node000026" class="node">
<title>Node26</title>
<g id="a_Node000026"><a xlink:href="a01949.html#a8a99bcb12e2ee55d68a029bfca9b6d51" target="_top" xlink:title=" ">
<polygon fill="white" stroke="#666666" points="254.38,-140.75 160.38,-140.75 160.38,-111.75 254.38,-111.75 254.38,-140.75"/>
<text text-anchor="start" x="168.38" y="-127.25" font-family="Helvetica,sans-Serif" font-size="10.00">arax_plot_register</text>
<text text-anchor="middle" x="207.38" y="-116.75" font-family="Helvetica,sans-Serif" font-size="10.00">_metric</text>
</a>
</g>
</g>
<!-- Node25&#45;&gt;Node26 -->
<g id="edge30_Node000025_Node000026" class="edge">
<title>Node25&#45;&gt;Node26</title>
<g id="a_edge30_Node000025_Node000026"><a xlink:title=" ">
<path fill="none" stroke="#63b8ff" d="M490.09,-106.83C431.51,-110.87 318.27,-118.67 254.65,-123.06"/>
<polygon fill="#63b8ff" stroke="#63b8ff" points="490.14,-110.33 499.87,-106.15 489.66,-103.35 490.14,-110.33"/>
</a>
</g>
</g>
<!-- Node27 -->
<g id="Node000027" class="node">
<title>Node27</title>
<g id="a_Node000027"><a xlink:href="a01937.html#a80ab3bf4a8af9bb101b5a53248609771" target="_top" xlink:title=" ">
<polygon fill="white" stroke="#666666" points="411,-92.5 334.25,-92.5 334.25,-74 411,-74 411,-92.5"/>
<text text-anchor="middle" x="372.62" y="-79" font-family="Helvetica,sans-Serif" font-size="10.00">arax_ptr_valid</text>
</a>
</g>
</g>
<!-- Node25&#45;&gt;Node27 -->
<g id="edge31_Node000025_Node000027" class="edge">
<title>Node25&#45;&gt;Node27</title>
<g id="a_edge31_Node000025_Node000027"><a xlink:title=" ">
<path fill="none" stroke="#63b8ff" d="M490.29,-99.17C466.39,-95.91 435.43,-91.69 411.41,-88.41"/>
<polygon fill="#63b8ff" stroke="#63b8ff" points="489.52,-102.6 499.9,-100.48 490.46,-95.66 489.52,-102.6"/>
</a>
</g>
</g>
<!-- Node27&#45;&gt;Node26 -->
<g id="edge36_Node000027_Node000026" class="edge">
<title>Node27&#45;&gt;Node26</title>
<g id="a_edge36_Node000027_Node000026"><a xlink:title=" ">
<path fill="none" stroke="#63b8ff" d="M324,-95.8C302.21,-101.53 276.48,-108.31 254.84,-114.01"/>
<polygon fill="#63b8ff" stroke="#63b8ff" points="324.75,-99.22 333.52,-93.29 322.96,-92.45 324.75,-99.22"/>
</a>
</g>
</g>
<!-- Node28 -->
<g id="Node000028" class="node">
<title>Node28</title>
<g id="a_Node000028"><a xlink:href="a01970.html#a4ee1fea325d2edd421f59ab240dfbe54" target="_top" xlink:title=" ">
<polygon fill="white" stroke="#666666" points="253.25,-55.5 161.5,-55.5 161.5,-37 253.25,-37 253.25,-55.5"/>
<text text-anchor="middle" x="207.38" y="-42" font-family="Helvetica,sans-Serif" font-size="10.00">_arax_assert_obj</text>
</a>
</g>
</g>
<!-- Node27&#45;&gt;Node28 -->
<g id="edge32_Node000027_Node000028" class="edge">
<title>Node27&#45;&gt;Node28</title>
<g id="a_edge32_Node000027_Node000028"><a xlink:title=" ">
<path fill="none" stroke="#63b8ff" d="M322.63,-72.15C299.9,-66.99 273.13,-60.93 251.21,-55.96"/>
<polygon fill="#63b8ff" stroke="#63b8ff" points="321.76,-75.54 332.29,-74.33 323.31,-68.71 321.76,-75.54"/>
</a>
</g>
</g>
<!-- Node29 -->
<g id="Node000029" class="node">
<title>Node29</title>
<g id="a_Node000029"><a xlink:href="a01925.html#afeaab7d93372f0752d59c70d9c5940e7" target="_top" xlink:title=" ">
<polygon fill="white" stroke="#666666" points="245.38,-18.5 169.38,-18.5 169.38,0 245.38,0 245.38,-18.5"/>
<text text-anchor="middle" x="207.38" y="-5" font-family="Helvetica,sans-Serif" font-size="10.00">arax_data_ref</text>
</a>
</g>
</g>
<!-- Node27&#45;&gt;Node29 -->
<g id="edge33_Node000027_Node000029" class="edge">
<title>Node27&#45;&gt;Node29</title>
<g id="a_edge33_Node000027_Node000029"><a xlink:title=" ">
<path fill="none" stroke="#63b8ff" d="M347.32,-67.57C327.93,-55.58 299.75,-39.27 273.5,-28.25 264.7,-24.56 254.95,-21.3 245.73,-18.57"/>
<polygon fill="#63b8ff" stroke="#63b8ff" points="345.26,-70.41 355.59,-72.76 348.98,-64.48 345.26,-70.41"/>
</a>
</g>
</g>
<!-- Node30 -->
<g id="Node000030" class="node">
<title>Node30</title>
<g id="a_Node000030"><a xlink:href="a01925.html#ac1f7fb20b3a23b388bea24f1b46a33a8" target="_top" xlink:title=" ">
<polygon fill="white" stroke="#666666" points="105.25,-55.5 0,-55.5 0,-37 105.25,-37 105.25,-55.5"/>
<text text-anchor="middle" x="52.62" y="-42" font-family="Helvetica,sans-Serif" font-size="10.00">arax_data_ref_offset</text>
</a>
</g>
</g>
<!-- Node27&#45;&gt;Node30 -->
<g id="edge35_Node000027_Node000030" class="edge">
<title>Node27&#45;&gt;Node30</title>
<g id="a_edge35_Node000027_Node000030"><a xlink:title=" ">
<path fill="none" stroke="#63b8ff" d="M322.64,-80.92C275.88,-78.3 203.51,-73.18 141.25,-64.25 126.34,-62.11 110.15,-59.01 95.79,-55.98"/>
<polygon fill="#63b8ff" stroke="#63b8ff" points="322.27,-84.41 332.45,-81.45 322.65,-77.42 322.27,-84.41"/>
</a>
</g>
</g>
<!-- Node29&#45;&gt;Node30 -->
<g id="edge34_Node000029_Node000030" class="edge">
<title>Node29&#45;&gt;Node30</title>
<g id="a_edge34_Node000029_Node000030"><a xlink:title=" ">
<path fill="none" stroke="#63b8ff" d="M157.91,-20.99C137.26,-25.99 113.46,-31.76 93.82,-36.51"/>
<polygon fill="#63b8ff" stroke="#63b8ff" points="158.64,-24.41 167.54,-18.66 156.99,-17.61 158.64,-24.41"/>
</a>
</g>
</g>
<!-- Node31&#45;&gt;Node3 -->
<g id="edge38_Node000031_Node000003" class="edge">
<title>Node31&#45;&gt;Node3</title>
<g id="a_edge38_Node000031_Node000003"><a xlink:title=" ">
<path fill="none" stroke="#63b8ff" d="M910.37,-331.11C819,-332.91 630.53,-338.26 471.75,-353.25 452.73,-355.05 431.76,-357.92 414.1,-360.59"/>
<polygon fill="#63b8ff" stroke="#63b8ff" points="910.37,-334.61 920.3,-330.92 910.23,-327.61 910.37,-334.61"/>
</a>
</g>
</g>
<!-- Node31&#45;&gt;Node22 -->
<g id="edge39_Node000031_Node000022" class="edge">
<title>Node31&#45;&gt;Node22</title>
<g id="a_edge39_Node000031_Node000022"><a xlink:title=" ">
<path fill="none" stroke="#63b8ff" d="M924.86,-316.58C917.48,-313.73 909.93,-310.58 903,-307.25 876.55,-294.54 847.73,-276.12 831.03,-264.95"/>
<polygon fill="#63b8ff" stroke="#63b8ff" points="923.44,-319.78 934.03,-319.98 925.87,-313.22 923.44,-319.78"/>
</a>
</g>
</g>
<!-- Node33 -->
<g id="Node000033" class="node">
<title>Node33</title>
<g id="a_Node000033"><a xlink:href="a02367.html#a1bfeaeb9b81855e640d7a67cc9d92b17" target="_top" xlink:title=" ">
<polygon fill="white" stroke="#666666" points="1174.62,-489.5 1066.38,-489.5 1066.38,-471 1174.62,-471 1174.62,-489.5"/>
<text text-anchor="middle" x="1120.5" y="-476" font-family="Helvetica,sans-Serif" font-size="10.00">async_condition_wait</text>
</a>
</g>
</g>
<!-- Node32&#45;&gt;Node33 -->
<g id="edge41_Node000032_Node000033" class="edge">
<title>Node32&#45;&gt;Node33</title>
<g id="a_edge41_Node000032_Node000033"><a xlink:title=" ">
<path fill="none" stroke="#63b8ff" d="M1199.59,-470.11C1191.26,-471.2 1182.84,-472.29 1174.77,-473.34"/>
<polygon fill="#63b8ff" stroke="#63b8ff" points="1199.9,-473.6 1209.36,-468.85 1199,-466.66 1199.9,-473.6"/>
</a>
</g>
</g>
<!-- Node33&#45;&gt;Node23 -->
<g id="edge42_Node000033_Node000023" class="edge">
<title>Node33&#45;&gt;Node23</title>
<g id="a_edge42_Node000033_Node000023"><a xlink:title=" ">
<path fill="none" stroke="#63b8ff" d="M1090.31,-465.44C1006.15,-422.75 764.6,-300.2 694.99,-264.88"/>
<polygon fill="#63b8ff" stroke="#63b8ff" points="1088.59,-468.49 1099.09,-469.9 1091.76,-462.25 1088.59,-468.49"/>
</a>
</g>
</g>
<!-- Node34 -->
<g id="Node000034" class="node">
<title>Node34</title>
<g id="a_Node000034"><a xlink:href="a01919.html#a415e79d6e82e45f24bcd1742c146a0da" target="_top" xlink:title=" ">
<polygon fill="white" stroke="#666666" points="1030,-489.5 903,-489.5 903,-471 1030,-471 1030,-489.5"/>
<text text-anchor="middle" x="966.5" y="-476" font-family="Helvetica,sans-Serif" font-size="10.00">arax_accel_wait_for_task</text>
</a>
</g>
</g>
<!-- Node33&#45;&gt;Node34 -->
<g id="edge43_Node000033_Node000034" class="edge">
<title>Node33&#45;&gt;Node34</title>
<g id="a_edge43_Node000033_Node000034"><a xlink:title=" ">
<path fill="none" stroke="#63b8ff" d="M1054.44,-480.25C1046.5,-480.25 1038.4,-480.25 1030.49,-480.25"/>
<polygon fill="#63b8ff" stroke="#63b8ff" points="1054.4,-483.75 1064.4,-480.25 1054.4,-476.75 1054.4,-483.75"/>
</a>
</g>
</g>
<!-- Node35 -->
<g id="Node000035" class="node">
<title>Node35</title>
<g id="a_Node000035"><a xlink:href="a01931.html#a8ff14a859f9b7a34676c2fcdb762386b" target="_top" xlink:title=" ">
<polygon fill="white" stroke="#666666" points="1022.88,-573.75 910.12,-573.75 910.12,-544.75 1022.88,-544.75 1022.88,-573.75"/>
<text text-anchor="start" x="918.12" y="-560.25" font-family="Helvetica,sans-Serif" font-size="10.00">arax_pipe_get_orphan</text>
<text text-anchor="middle" x="966.5" y="-549.75" font-family="Helvetica,sans-Serif" font-size="10.00">_vaccel</text>
</a>
</g>
</g>
<!-- Node33&#45;&gt;Node35 -->
<g id="edge44_Node000033_Node000035" class="edge">
<title>Node33&#45;&gt;Node35</title>
<g id="a_edge44_Node000033_Node000035"><a xlink:title=" ">
<path fill="none" stroke="#63b8ff" d="M1096.23,-496.2C1078.55,-507.9 1053.37,-523.7 1030,-535.25 1023.54,-538.44 1016.54,-541.5 1009.65,-544.29"/>
<polygon fill="#63b8ff" stroke="#63b8ff" points="1098.09,-499.17 1104.44,-490.69 1094.19,-493.35 1098.09,-499.17"/>
</a>
</g>
</g>
<!-- Node36 -->
<g id="Node000036" class="node">
<title>Node36</title>
<g id="a_Node000036"><a xlink:href="a01943.html#a63b80783cfb3106ec4169ce082f153c0" target="_top" xlink:title=" ">
<polygon fill="white" stroke="#666666" points="1023.62,-526.5 909.38,-526.5 909.38,-508 1023.62,-508 1023.62,-526.5"/>
<text text-anchor="middle" x="966.5" y="-513" font-family="Helvetica,sans-Serif" font-size="10.00">arax_throttle_size_dec</text>
</a>
</g>
</g>
<!-- Node33&#45;&gt;Node36 -->
<g id="edge45_Node000033_Node000036" class="edge">
<title>Node33&#45;&gt;Node36</title>
<g id="a_edge45_Node000033_Node000036"><a xlink:title=" ">
<path fill="none" stroke="#63b8ff" d="M1068.5,-492.66C1048.6,-497.51 1026.12,-502.98 1007.43,-507.53"/>
<polygon fill="#63b8ff" stroke="#63b8ff" points="1069.2,-496.1 1078.09,-490.33 1067.55,-489.29 1069.2,-496.1"/>
</a>
</g>
</g>
<!-- Node37 -->
<g id="Node000037" class="node">
<title>Node37</title>
<g id="a_Node000037"><a xlink:href="a01919.html#a9c8e53aad4b86498a6b709c35c156fc3" target="_top" xlink:title=" ">
<polygon fill="white" stroke="#666666" points="728.75,-490.5 621.25,-490.5 621.25,-472 728.75,-472 728.75,-490.5"/>
<text text-anchor="middle" x="675" y="-477" font-family="Helvetica,sans-Serif" font-size="10.00">arax_accel_size_dec</text>
</a>
</g>
</g>
<!-- Node36&#45;&gt;Node37 -->
<g id="edge46_Node000036_Node000037" class="edge">
<title>Node36&#45;&gt;Node37</title>
<g id="a_edge46_Node000036_Node000037"><a xlink:title=" ">
<path fill="none" stroke="#63b8ff" d="M902.18,-505.63C890.51,-503.69 878.4,-501.8 867,-500.25 820.61,-493.95 767.61,-488.84 729.22,-485.51"/>
<polygon fill="#63b8ff" stroke="#63b8ff" points="901.27,-509.03 911.72,-507.25 902.45,-502.13 901.27,-509.03"/>
</a>
</g>
</g>
<!-- Node38 -->
<g id="Node000038" class="node">
<title>Node38</title>
<g id="a_Node000038"><a xlink:href="a01931.html#a6cc54ee40009c61b5f6526f5edff004f" target="_top" xlink:title=" ">
<polygon fill="white" stroke="#666666" points="867,-527.5 764.75,-527.5 764.75,-509 867,-509 867,-527.5"/>
<text text-anchor="middle" x="815.88" y="-514" font-family="Helvetica,sans-Serif" font-size="10.00">arax_pipe_size_dec</text>
</a>
</g>
</g>
<!-- Node36&#45;&gt;Node38 -->
<g id="edge48_Node000036_Node000038" class="edge">
<title>Node36&#45;&gt;Node38</title>
<g id="a_edge48_Node000036_Node000038"><a xlink:title=" ">
<path fill="none" stroke="#63b8ff" d="M897.57,-517.71C887.45,-517.78 877.17,-517.84 867.49,-517.91"/>
<polygon fill="#63b8ff" stroke="#63b8ff" points="897.4,-521.21 907.37,-517.64 897.35,-514.21 897.4,-521.21"/>
</a>
</g>
</g>
<!-- Node37&#45;&gt;Node11 -->
<g id="edge47_Node000037_Node000011" class="edge">
<title>Node37&#45;&gt;Node11</title>
<g id="a_edge47_Node000037_Node000011"><a xlink:title=" ">
<path fill="none" stroke="#63b8ff" d="M653.14,-464.51C635.95,-451.64 610.4,-434.53 585.25,-425.25 469.07,-382.38 431.46,-406.74 309.5,-385.25 292.37,-382.23 273.7,-378.49 257.12,-375"/>
<polygon fill="#63b8ff" stroke="#63b8ff" points="650.97,-467.26 661.03,-470.59 655.24,-461.71 650.97,-467.26"/>
</a>
</g>
</g>
<!-- Node38&#45;&gt;Node2 -->
<g id="edge49_Node000038_Node000002" class="edge">
<title>Node38&#45;&gt;Node2</title>
<g id="a_edge49_Node000038_Node000002"><a xlink:title=" ">
<path fill="none" stroke="#63b8ff" d="M752.96,-518.25C744.51,-518.25 735.9,-518.25 727.66,-518.25"/>
<polygon fill="#63b8ff" stroke="#63b8ff" points="752.83,-521.75 762.83,-518.25 752.83,-514.75 752.83,-521.75"/>
</a>
</g>
</g>
<!-- Node39&#45;&gt;Node3 -->
<g id="edge51_Node000039_Node000003" class="edge">
<title>Node39&#45;&gt;Node3</title>
<g id="a_edge51_Node000039_Node000003"><a xlink:title=" ">
<path fill="none" stroke="#63b8ff" d="M1393.67,-220.52C1375.83,-209.5 1350.59,-195.2 1326.75,-186.25 1239.32,-153.43 1214.89,-141.25 1121.5,-141.25 1121.5,-141.25 1121.5,-141.25 674,-141.25 575.61,-141.25 548.11,-169.21 471.75,-231.25 425.42,-268.88 390.37,-333.45 378.24,-357.69"/>
<polygon fill="#63b8ff" stroke="#63b8ff" points="1391.64,-223.38 1401.97,-225.75 1395.38,-217.46 1391.64,-223.38"/>
</a>
</g>
</g>
<!-- Node39&#45;&gt;Node22 -->
<g id="edge54_Node000039_Node000022" class="edge">
<title>Node39&#45;&gt;Node22</title>
<g id="a_edge54_Node000039_Node000022"><a xlink:title=" ">
<path fill="none" stroke="#63b8ff" d="M1389.09,-221.68C1371.58,-213.61 1348.45,-204.39 1326.75,-200.25 1147.46,-166.07 928.36,-221.9 848.17,-245.5"/>
<polygon fill="#63b8ff" stroke="#63b8ff" points="1387.31,-224.71 1397.84,-225.85 1390.32,-218.39 1387.31,-224.71"/>
</a>
</g>
</g>
<!-- Node40 -->
<g id="Node000040" class="node">
<title>Node40</title>
<g id="a_Node000040"><a xlink:href="a01928.html#a86352ba91ba482c6688b7364d10bf956" target="_top" xlink:title=" ">
<polygon fill="white" stroke="#666666" points="1175,-264.5 1066,-264.5 1066,-246 1175,-246 1175,-264.5"/>
<text text-anchor="middle" x="1120.5" y="-251" font-family="Helvetica,sans-Serif" font-size="10.00">arax_object_repo_init</text>
</a>
</g>
</g>
<!-- Node39&#45;&gt;Node40 -->
<g id="edge52_Node000039_Node000040" class="edge">
<title>Node39&#45;&gt;Node40</title>
<g id="a_edge52_Node000039_Node000040"><a xlink:title=" ">
<path fill="none" stroke="#63b8ff" d="M1372.07,-239.18C1319.07,-242.58 1231.79,-248.18 1175.49,-251.79"/>
<polygon fill="#63b8ff" stroke="#63b8ff" points="1372.21,-242.68 1381.97,-238.54 1371.76,-235.69 1372.21,-242.68"/>
</a>
</g>
</g>
<!-- Node41 -->
<g id="Node000041" class="node">
<title>Node41</title>
<g id="a_Node000041"><a xlink:href="a02367.html#ab2e422aab2fcfa562795beb2843e8019" target="_top" xlink:title=" ">
<polygon fill="white" stroke="#666666" points="1325.25,-227.5 1212.5,-227.5 1212.5,-209 1325.25,-209 1325.25,-227.5"/>
<text text-anchor="middle" x="1268.88" y="-214" font-family="Helvetica,sans-Serif" font-size="10.00">async_meta_init_once</text>
</a>
</g>
</g>
<!-- Node39&#45;&gt;Node41 -->
<g id="edge55_Node000039_Node000041" class="edge">
<title>Node39&#45;&gt;Node41</title>
<g id="a_edge55_Node000039_Node000041"><a xlink:title=" ">
<path fill="none" stroke="#63b8ff" d="M1372.12,-230.7C1357.44,-228.91 1341.02,-226.91 1325.7,-225.05"/>
<polygon fill="#63b8ff" stroke="#63b8ff" points="1371.6,-234.16 1381.95,-231.89 1372.45,-227.21 1371.6,-234.16"/>
</a>
</g>
</g>
<!-- Node42 -->
<g id="Node000042" class="node">
<title>Node42</title>
<g id="a_Node000042"><a xlink:href="a02367.html#a2a7d01fc7720e936a430efc09d094c6c" target="_top" xlink:title=" ">
<polygon fill="white" stroke="#666666" points="1325.25,-320.5 1212.5,-320.5 1212.5,-302 1325.25,-302 1325.25,-320.5"/>
<text text-anchor="middle" x="1268.88" y="-307" font-family="Helvetica,sans-Serif" font-size="10.00">async_semaphore_init</text>
</a>
</g>
</g>
<!-- Node39&#45;&gt;Node42 -->
<g id="edge57_Node000039_Node000042" class="edge">
<title>Node39&#45;&gt;Node42</title>
<g id="a_edge57_Node000039_Node000042"><a xlink:title=" ">
<path fill="none" stroke="#63b8ff" d="M1388.58,-251.04C1359,-266.05 1314.08,-288.83 1288.83,-301.64"/>
<polygon fill="#63b8ff" stroke="#63b8ff" points="1390.04,-254.23 1397.37,-246.59 1386.87,-247.99 1390.04,-254.23"/>
</a>
</g>
</g>
<!-- Node40&#45;&gt;Node22 -->
<g id="edge53_Node000040_Node000022" class="edge">
<title>Node40&#45;&gt;Node22</title>
<g id="a_edge53_Node000040_Node000022"><a xlink:title=" ">
<path fill="none" stroke="#63b8ff" d="M1054.32,-255.25C993.3,-255.25 904.28,-255.25 854.37,-255.25"/>
<polygon fill="#63b8ff" stroke="#63b8ff" points="1054.23,-258.75 1064.23,-255.25 1054.23,-251.75 1054.23,-258.75"/>
</a>
</g>
</g>
<!-- Node41&#45;&gt;Node22 -->
<g id="edge56_Node000041_Node000022" class="edge">
<title>Node41&#45;&gt;Node22</title>
<g id="a_edge56_Node000041_Node000022"><a xlink:title=" ">
<path fill="none" stroke="#63b8ff" d="M1200.79,-223.75C1104.62,-231.64 930.76,-245.91 854.48,-252.17"/>
<polygon fill="#63b8ff" stroke="#63b8ff" points="1200.93,-227.25 1210.61,-222.95 1200.36,-220.28 1200.93,-227.25"/>
</a>
</g>
</g>
<!-- Node42&#45;&gt;Node21 -->
<g id="edge58_Node000042_Node000021" class="edge">
<title>Node42&#45;&gt;Node21</title>
<g id="a_edge58_Node000042_Node000021"><a xlink:title=" ">
<path fill="none" stroke="#63b8ff" d="M1200.76,-319.96C1191.36,-321.18 1181.82,-322.42 1172.77,-323.59"/>
<polygon fill="#63b8ff" stroke="#63b8ff" points="1201.15,-323.44 1210.62,-318.68 1200.25,-316.5 1201.15,-323.44"/>
</a>
</g>
</g>
</g>
</svg>
