<?xml version="1.0" encoding="UTF-8" standalone="no"?>
<!DOCTYPE svg PUBLIC "-//W3C//DTD SVG 1.1//EN"
 "http://www.w3.org/Graphics/SVG/1.1/DTD/svg11.dtd">
<!-- Generated by graphviz version 12.2.1 (0)
 -->
<!-- Title: alloc.h Pages: 1 -->
<svg width="142pt" height="81pt"
 viewBox="0.00 0.00 142.38 81.00" xmlns="http://www.w3.org/2000/svg" xmlns:xlink="http://www.w3.org/1999/xlink">
<g id="graph0" class="graph" transform="scale(1 1) rotate(0) translate(4 77)">
<title>alloc.h</title>
<!-- Node1 -->
<g id="Node000001" class="node">
<title>Node1</title>
<g id="a_Node000001"><a xlink:title=" ">
<polygon fill="#999999" stroke="#666666" points="92.25,-73 47.75,-73 47.75,-54.5 92.25,-54.5 92.25,-73"/>
<text text-anchor="middle" x="70" y="-59.5" font-family="Helvetica,sans-Serif" font-size="10.00">alloc.h</text>
</a>
</g>
</g>
<!-- Node2 -->
<g id="Node000002" class="node">
<title>Node2</title>
<g id="a_Node000002"><a xlink:href="a01946.html" target="_top" xlink:title=" ">
<polygon fill="white" stroke="#666666" points="64,-18.5 0,-18.5 0,0 64,0 64,-18.5"/>
<text text-anchor="middle" x="32" y="-5" font-family="Helvetica,sans-Serif" font-size="10.00">arax_plot.c</text>
</a>
</g>
</g>
<!-- Node1&#45;&gt;Node2 -->
<g id="edge1_Node000001_Node000002" class="edge">
<title>Node1&#45;&gt;Node2</title>
<g id="a_edge1_Node000001_Node000002"><a xlink:title=" ">
<path fill="none" stroke="#63b8ff" d="M57.11,-44.95C50.71,-36.1 43.27,-25.82 38.16,-18.76"/>
<polygon fill="#63b8ff" stroke="#63b8ff" points="54.14,-46.81 62.84,-52.85 59.81,-42.7 54.14,-46.81"/>
</a>
</g>
</g>
<!-- Node3 -->
<g id="Node000003" class="node">
<title>Node3</title>
<g id="a_Node000003"><a xlink:href="a01901.html" target="_top" xlink:title=" ">
<polygon fill="white" stroke="#666666" points="134.38,-18.5 81.62,-18.5 81.62,0 134.38,0 134.38,-18.5"/>
<text text-anchor="middle" x="108" y="-5" font-family="Helvetica,sans-Serif" font-size="10.00">malloc.c</text>
</a>
</g>
</g>
<!-- Node1&#45;&gt;Node3 -->
<g id="edge2_Node000001_Node000003" class="edge">
<title>Node1&#45;&gt;Node3</title>
<g id="a_edge2_Node000001_Node000003"><a xlink:title=" ">
<path fill="none" stroke="#63b8ff" d="M82.89,-44.95C89.29,-36.1 96.73,-25.82 101.84,-18.76"/>
<polygon fill="#63b8ff" stroke="#63b8ff" points="80.19,-42.7 77.16,-52.85 85.86,-46.81 80.19,-42.7"/>
</a>
</g>
</g>
</g>
</svg>
