<?xml version="1.0" encoding="UTF-8" standalone="no"?>
<!DOCTYPE svg PUBLIC "-//W3C//DTD SVG 1.1//EN"
 "http://www.w3.org/Graphics/SVG/1.1/DTD/svg11.dtd">
<!-- Generated by graphviz version 12.2.1 (0)
 -->
<!-- Title: arax_pipe_init Pages: 1 -->
<svg width="1403pt" height="323pt"
 viewBox="0.00 0.00 1402.50 323.42" xmlns="http://www.w3.org/2000/svg" xmlns:xlink="http://www.w3.org/1999/xlink">
<g id="graph0" class="graph" transform="scale(1 1) rotate(0) translate(4 319.42)">
<title>arax_pipe_init</title>
<!-- Node1 -->
<g id="Node000001" class="node">
<title>Node1</title>
<g id="a_Node000001"><a xlink:title=" ">
<polygon fill="#999999" stroke="#666666" points="76.75,-166.5 0,-166.5 0,-148 76.75,-148 76.75,-166.5"/>
<text text-anchor="middle" x="38.38" y="-153" font-family="Helvetica,sans-Serif" font-size="10.00">arax_pipe_init</text>
</a>
</g>
</g>
<!-- Node2 -->
<g id="Node000002" class="node">
<title>Node2</title>
<g id="a_Node000002"><a xlink:href="a01925.html#a86352ba91ba482c6688b7364d10bf956" target="_top" xlink:title=" ">
<polygon fill="white" stroke="#666666" points="227,-277.5 118,-277.5 118,-259 227,-259 227,-277.5"/>
<text text-anchor="middle" x="172.5" y="-264" font-family="Helvetica,sans-Serif" font-size="10.00">arax_object_repo_init</text>
</a>
</g>
</g>
<!-- Node1&#45;&gt;Node2 -->
<g id="edge1_Node000001_Node000002" class="edge">
<title>Node1&#45;&gt;Node2</title>
<g id="a_edge1_Node000001_Node000002"><a xlink:title=" ">
<path fill="none" stroke="#63b8ff" d="M44.47,-166.86C54.82,-185.49 80.15,-226.7 112.75,-249.25 115.23,-250.96 117.87,-252.53 120.61,-253.96"/>
<polygon fill="#63b8ff" stroke="#63b8ff" points="118.9,-257.03 129.46,-257.95 121.78,-250.65 118.9,-257.03"/>
</a>
</g>
</g>
<!-- Node3 -->
<g id="Node000003" class="node">
<title>Node3</title>
<g id="a_Node000003"><a xlink:href="a01955.html#ab36e49d2e694b1da49504a689ed48e4a" target="_top" xlink:title=" ">
<polygon fill="white" stroke="#666666" points="360.75,-314.5 290.75,-314.5 290.75,-296 360.75,-296 360.75,-314.5"/>
<text text-anchor="middle" x="325.75" y="-301" font-family="Helvetica,sans-Serif" font-size="10.00">utils_list_init</text>
</a>
</g>
</g>
<!-- Node1&#45;&gt;Node3 -->
<g id="edge36_Node000001_Node000003" class="edge">
<title>Node1&#45;&gt;Node3</title>
<g id="a_edge36_Node000001_Node000003"><a xlink:title=" ">
<path fill="none" stroke="#63b8ff" d="M41.57,-166.81C47.8,-191.51 68.11,-257.54 112.75,-286.25 162.64,-318.34 233.32,-317.65 279.1,-312.68"/>
<polygon fill="#63b8ff" stroke="#63b8ff" points="279.45,-316.16 288.96,-311.49 278.61,-309.22 279.45,-316.16"/>
</a>
</g>
</g>
<!-- Node5 -->
<g id="Node000005" class="node">
<title>Node5</title>
<g id="a_Node000005"><a xlink:href="a01928.html#a60dde947b05bc69599a6c7d92c38d088" target="_top" xlink:title=" ">
<polygon fill="white" stroke="#666666" points="232.25,-203.5 112.75,-203.5 112.75,-185 232.25,-185 232.25,-203.5"/>
<text text-anchor="middle" x="172.5" y="-190" font-family="Helvetica,sans-Serif" font-size="10.00">arax_pipe_add_process</text>
</a>
</g>
</g>
<!-- Node1&#45;&gt;Node5 -->
<g id="edge4_Node000001_Node000005" class="edge">
<title>Node1&#45;&gt;Node5</title>
<g id="a_edge4_Node000001_Node000005"><a xlink:title=" ">
<path fill="none" stroke="#63b8ff" d="M74.09,-166.97C90.02,-171.43 109.12,-176.78 126.16,-181.55"/>
<polygon fill="#63b8ff" stroke="#63b8ff" points="124.99,-184.86 135.56,-184.19 126.87,-178.12 124.99,-184.86"/>
</a>
</g>
</g>
<!-- Node6 -->
<g id="Node000006" class="node">
<title>Node6</title>
<g id="a_Node000006"><a xlink:href="a01940.html#acf84ea82594c4dbe91cf602ee078e04d" target="_top" xlink:title=" ">
<polygon fill="white" stroke="#666666" points="216.88,-129.5 128.12,-129.5 128.12,-111 216.88,-111 216.88,-129.5"/>
<text text-anchor="middle" x="172.5" y="-116" font-family="Helvetica,sans-Serif" font-size="10.00">arax_throttle_init</text>
</a>
</g>
</g>
<!-- Node1&#45;&gt;Node6 -->
<g id="edge5_Node000001_Node000006" class="edge">
<title>Node1&#45;&gt;Node6</title>
<g id="a_edge5_Node000001_Node000006"><a xlink:title=" ">
<path fill="none" stroke="#63b8ff" d="M74.09,-147.53C90.02,-143.07 109.12,-137.72 126.16,-132.95"/>
<polygon fill="#63b8ff" stroke="#63b8ff" points="126.87,-136.38 135.56,-130.31 124.99,-129.64 126.87,-136.38"/>
</a>
</g>
</g>
<!-- Node7 -->
<g id="Node000007" class="node">
<title>Node7</title>
<g id="a_Node000007"><a xlink:href="a02364.html#ac7fbf1f43289d3e0e862b315f00e35e2" target="_top" xlink:title=" ">
<polygon fill="white" stroke="#666666" points="377.62,-129.5 273.88,-129.5 273.88,-111 377.62,-111 377.62,-129.5"/>
<text text-anchor="middle" x="325.75" y="-116" font-family="Helvetica,sans-Serif" font-size="10.00">async_condition_init</text>
</a>
</g>
</g>
<!-- Node1&#45;&gt;Node7 -->
<g id="edge15_Node000001_Node000007" class="edge">
<title>Node1&#45;&gt;Node7</title>
<g id="a_edge15_Node000001_Node000007"><a xlink:title=" ">
<path fill="none" stroke="#63b8ff" d="M77.2,-154.58C116.18,-151.58 178.65,-146.09 232.25,-138.25 243.9,-136.55 256.32,-134.38 268.14,-132.14"/>
<polygon fill="#63b8ff" stroke="#63b8ff" points="268.62,-135.61 277.77,-130.27 267.29,-128.74 268.62,-135.61"/>
</a>
</g>
</g>
<!-- Node13 -->
<g id="Node000013" class="node">
<title>Node13</title>
<g id="a_Node000013"><a xlink:href="a02355.html#a75bfaa5e934f1853fc8fd536ea469ad9" target="_top" xlink:title=" ">
<polygon fill="white" stroke="#666666" points="228.88,-92.5 116.12,-92.5 116.12,-74 228.88,-74 228.88,-92.5"/>
<text text-anchor="middle" x="172.5" y="-79" font-family="Helvetica,sans-Serif" font-size="10.00">arch_alloc_init_always</text>
</a>
</g>
</g>
<!-- Node1&#45;&gt;Node13 -->
<g id="edge12_Node000001_Node000013" class="edge">
<title>Node1&#45;&gt;Node13</title>
<g id="a_edge12_Node000001_Node000013"><a xlink:title=" ">
<path fill="none" stroke="#63b8ff" d="M49.57,-147.86C63.1,-135.82 88.15,-114.99 112.75,-102.25 116.44,-100.34 120.36,-98.57 124.36,-96.94"/>
<polygon fill="#63b8ff" stroke="#63b8ff" points="125.44,-100.28 133.59,-93.51 123,-93.72 125.44,-100.28"/>
</a>
</g>
</g>
<!-- Node14 -->
<g id="Node000014" class="node">
<title>Node14</title>
<g id="a_Node000014"><a xlink:href="a02355.html#a44fec37f87bcd49aaacc97696f9e0e7d" target="_top" xlink:title=" ">
<polygon fill="white" stroke="#666666" points="224.75,-55.5 120.25,-55.5 120.25,-37 224.75,-37 224.75,-55.5"/>
<text text-anchor="middle" x="172.5" y="-42" font-family="Helvetica,sans-Serif" font-size="10.00">arch_alloc_init_once</text>
</a>
</g>
</g>
<!-- Node1&#45;&gt;Node14 -->
<g id="edge13_Node000001_Node000014" class="edge">
<title>Node1&#45;&gt;Node14</title>
<g id="a_edge13_Node000001_Node000014"><a xlink:title=" ">
<path fill="none" stroke="#63b8ff" d="M44.47,-147.64C54.82,-129.01 80.15,-87.8 112.75,-65.25 115.23,-63.54 117.87,-61.97 120.61,-60.54"/>
<polygon fill="#63b8ff" stroke="#63b8ff" points="121.78,-63.85 129.46,-56.55 118.9,-57.47 121.78,-63.85"/>
</a>
</g>
</g>
<!-- Node16 -->
<g id="Node000016" class="node">
<title>Node16</title>
<g id="a_Node000016"><a xlink:href="a02364.html#ab2e422aab2fcfa562795beb2843e8019" target="_top" xlink:title=" ">
<polygon fill="white" stroke="#666666" points="228.88,-240.5 116.12,-240.5 116.12,-222 228.88,-222 228.88,-240.5"/>
<text text-anchor="middle" x="172.5" y="-227" font-family="Helvetica,sans-Serif" font-size="10.00">async_meta_init_once</text>
</a>
</g>
</g>
<!-- Node1&#45;&gt;Node16 -->
<g id="edge16_Node000001_Node000016" class="edge">
<title>Node1&#45;&gt;Node16</title>
<g id="a_edge16_Node000001_Node000016"><a xlink:title=" ">
<path fill="none" stroke="#63b8ff" d="M49.57,-166.64C63.1,-178.68 88.15,-199.51 112.75,-212.25 116.44,-214.16 120.36,-215.93 124.36,-217.56"/>
<polygon fill="#63b8ff" stroke="#63b8ff" points="123,-220.78 133.59,-220.99 125.44,-214.22 123,-220.78"/>
</a>
</g>
</g>
<!-- Node31 -->
<g id="Node000031" class="node">
<title>Node31</title>
<g id="a_Node000031"><a xlink:href="a01964.html#a2e86c7792c1e7e0e1bdf1fe1a25dcab0" target="_top" xlink:title=" ">
<polygon fill="white" stroke="#666666" points="206.38,-18.5 138.62,-18.5 138.62,0 206.38,0 206.38,-18.5"/>
<text text-anchor="middle" x="172.5" y="-5" font-family="Helvetica,sans-Serif" font-size="10.00">utils_kv_init</text>
</a>
</g>
</g>
<!-- Node1&#45;&gt;Node31 -->
<g id="edge35_Node000001_Node000031" class="edge">
<title>Node1&#45;&gt;Node31</title>
<g id="a_edge35_Node000001_Node000031"><a xlink:title=" ">
<path fill="none" stroke="#63b8ff" d="M42.18,-147.55C49.6,-123.65 71.99,-61.43 112.75,-28.25 117.21,-24.62 122.38,-21.68 127.76,-19.29"/>
<polygon fill="#63b8ff" stroke="#63b8ff" points="128.7,-22.68 136.84,-15.89 126.25,-16.12 128.7,-22.68"/>
</a>
</g>
</g>
<!-- Node2&#45;&gt;Node3 -->
<g id="edge2_Node000002_Node000003" class="edge">
<title>Node2&#45;&gt;Node3</title>
<g id="a_edge2_Node000002_Node000003"><a xlink:title=" ">
<path fill="none" stroke="#63b8ff" d="M213.24,-277.97C233.57,-282.94 258.4,-289.02 279.47,-294.17"/>
<polygon fill="#63b8ff" stroke="#63b8ff" points="278.4,-297.51 288.94,-296.49 280.06,-290.71 278.4,-297.51"/>
</a>
</g>
</g>
<!-- Node4 -->
<g id="Node000004" class="node">
<title>Node4</title>
<g id="a_Node000004"><a xlink:href="a01955.html#a63f2791c9b5c8e2fa15967cfafb7ccbb" target="_top" xlink:title=" ">
<polygon fill="white" stroke="#666666" points="536.88,-314.5 440.62,-314.5 440.62,-296 536.88,-296 536.88,-314.5"/>
<text text-anchor="middle" x="488.75" y="-301" font-family="Helvetica,sans-Serif" font-size="10.00">utils_list_node_init</text>
</a>
</g>
</g>
<!-- Node3&#45;&gt;Node4 -->
<g id="edge3_Node000003_Node000004" class="edge">
<title>Node3&#45;&gt;Node4</title>
<g id="a_edge3_Node000003_Node000004"><a xlink:title=" ">
<path fill="none" stroke="#63b8ff" d="M360.89,-305.25C380.63,-305.25 406.02,-305.25 428.89,-305.25"/>
<polygon fill="#63b8ff" stroke="#63b8ff" points="428.71,-308.75 438.71,-305.25 428.71,-301.75 428.71,-308.75"/>
</a>
</g>
</g>
<!-- Node6&#45;&gt;Node7 -->
<g id="edge6_Node000006_Node000007" class="edge">
<title>Node6&#45;&gt;Node7</title>
<g id="a_edge6_Node000006_Node000007"><a xlink:title=" ">
<path fill="none" stroke="#63b8ff" d="M217.25,-120.25C231.29,-120.25 247.13,-120.25 262.25,-120.25"/>
<polygon fill="#63b8ff" stroke="#63b8ff" points="262.11,-123.75 272.11,-120.25 262.11,-116.75 262.11,-123.75"/>
</a>
</g>
</g>
<!-- Node8 -->
<g id="Node000008" class="node">
<title>Node8</title>
<g id="a_Node000008"><a xlink:href="a02358.html#ad1d30ecbf6bff6457b680aa940281072" target="_top" xlink:title=" ">
<polygon fill="white" stroke="#666666" points="558.25,-166.5 419.25,-166.5 419.25,-148 558.25,-148 558.25,-166.5"/>
<text text-anchor="middle" x="488.75" y="-153" font-family="Helvetica,sans-Serif" font-size="10.00">async_completion_complete</text>
</a>
</g>
</g>
<!-- Node7&#45;&gt;Node8 -->
<g id="edge7_Node000007_Node000008" class="edge">
<title>Node7&#45;&gt;Node8</title>
<g id="a_edge7_Node000007_Node000008"><a xlink:title=" ">
<path fill="none" stroke="#63b8ff" d="M369.05,-129.97C389.03,-134.56 413.1,-140.09 434.32,-144.97"/>
<polygon fill="#63b8ff" stroke="#63b8ff" points="433.45,-148.36 443.98,-147.19 435.02,-141.54 433.45,-148.36"/>
</a>
</g>
</g>
<!-- Node9 -->
<g id="Node000009" class="node">
<title>Node9</title>
<g id="a_Node000009"><a xlink:href="a02358.html#ac728117d73179c279de49e01ae905dda" target="_top" xlink:title=" ">
<polygon fill="white" stroke="#666666" points="544.75,-129.5 432.75,-129.5 432.75,-111 544.75,-111 544.75,-129.5"/>
<text text-anchor="middle" x="488.75" y="-116" font-family="Helvetica,sans-Serif" font-size="10.00">async_completion_init</text>
</a>
</g>
</g>
<!-- Node7&#45;&gt;Node9 -->
<g id="edge8_Node000007_Node000009" class="edge">
<title>Node7&#45;&gt;Node9</title>
<g id="a_edge8_Node000007_Node000009"><a xlink:title=" ">
<path fill="none" stroke="#63b8ff" d="M377.69,-120.25C391.43,-120.25 406.5,-120.25 420.97,-120.25"/>
<polygon fill="#63b8ff" stroke="#63b8ff" points="420.89,-123.75 430.89,-120.25 420.89,-116.75 420.89,-123.75"/>
</a>
</g>
</g>
<!-- Node10 -->
<g id="Node000010" class="node">
<title>Node10</title>
<g id="a_Node000010"><a xlink:href="a02361.html#a3bbcb7c4c024e99d5c4ba52b61dfbbf7" target="_top" xlink:title=" ">
<polygon fill="white" stroke="#666666" points="548.5,-92.5 429,-92.5 429,-74 548.5,-74 548.5,-92.5"/>
<text text-anchor="middle" x="488.75" y="-79" font-family="Helvetica,sans-Serif" font-size="10.00">async_condition_unlock</text>
</a>
</g>
</g>
<!-- Node7&#45;&gt;Node10 -->
<g id="edge9_Node000007_Node000010" class="edge">
<title>Node7&#45;&gt;Node10</title>
<g id="a_edge9_Node000007_Node000010"><a xlink:title=" ">
<path fill="none" stroke="#63b8ff" d="M369.05,-110.53C389.03,-105.94 413.1,-100.41 434.32,-95.53"/>
<polygon fill="#63b8ff" stroke="#63b8ff" points="435.02,-98.96 443.98,-93.31 433.45,-92.14 435.02,-98.96"/>
</a>
</g>
</g>
<!-- Node12 -->
<g id="Node000012" class="node">
<title>Node12</title>
<g id="a_Node000012"><a xlink:href="a02358.html#a2a7d01fc7720e936a430efc09d094c6c" target="_top" xlink:title=" ">
<polygon fill="white" stroke="#666666" points="545.12,-55.5 432.38,-55.5 432.38,-37 545.12,-37 545.12,-55.5"/>
<text text-anchor="middle" x="488.75" y="-42" font-family="Helvetica,sans-Serif" font-size="10.00">async_semaphore_init</text>
</a>
</g>
</g>
<!-- Node7&#45;&gt;Node12 -->
<g id="edge11_Node000007_Node000012" class="edge">
<title>Node7&#45;&gt;Node12</title>
<g id="a_edge11_Node000007_Node000012"><a xlink:title=" ">
<path fill="none" stroke="#63b8ff" d="M340.24,-110.66C357.73,-98.6 389.52,-77.94 419.25,-65.25 424.24,-63.12 429.53,-61.16 434.88,-59.38"/>
<polygon fill="#63b8ff" stroke="#63b8ff" points="435.89,-62.73 444.4,-56.42 433.81,-56.05 435.89,-62.73"/>
</a>
</g>
</g>
<!-- Node11 -->
<g id="Node000011" class="node">
<title>Node11</title>
<g id="a_Node000011"><a xlink:href="a02361.html#ad1d30ecbf6bff6457b680aa940281072" target="_top" xlink:title=" ">
<polygon fill="white" stroke="#666666" points="733.25,-92.5 594.25,-92.5 594.25,-74 733.25,-74 733.25,-92.5"/>
<text text-anchor="middle" x="663.75" y="-79" font-family="Helvetica,sans-Serif" font-size="10.00">async_completion_complete</text>
</a>
</g>
</g>
<!-- Node10&#45;&gt;Node11 -->
<g id="edge10_Node000010_Node000011" class="edge">
<title>Node10&#45;&gt;Node11</title>
<g id="a_edge10_Node000010_Node000011"><a xlink:title=" ">
<path fill="none" stroke="#63b8ff" d="M548.8,-83.25C559.67,-83.25 571.18,-83.25 582.54,-83.25"/>
<polygon fill="#63b8ff" stroke="#63b8ff" points="582.31,-86.75 592.31,-83.25 582.31,-79.75 582.31,-86.75"/>
</a>
</g>
</g>
<!-- Node15 -->
<g id="Node000015" class="node">
<title>Node15</title>
<g id="a_Node000015"><a xlink:href="a01949.html#a6699a24a46fb1be57ca21abf8bc61928" target="_top" xlink:title=" ">
<polygon fill="white" stroke="#666666" points="369,-55.5 282.5,-55.5 282.5,-37 369,-37 369,-55.5"/>
<text text-anchor="middle" x="325.75" y="-42" font-family="Helvetica,sans-Serif" font-size="10.00">utils_bitmap_init</text>
</a>
</g>
</g>
<!-- Node14&#45;&gt;Node15 -->
<g id="edge14_Node000014_Node000015" class="edge">
<title>Node14&#45;&gt;Node15</title>
<g id="a_edge14_Node000014_Node000015"><a xlink:title=" ">
<path fill="none" stroke="#63b8ff" d="M225.13,-46.25C240,-46.25 256.24,-46.25 271.22,-46.25"/>
<polygon fill="#63b8ff" stroke="#63b8ff" points="270.87,-49.75 280.87,-46.25 270.87,-42.75 270.87,-49.75"/>
</a>
</g>
</g>
<!-- Node16&#45;&gt;Node3 -->
<g id="edge34_Node000016_Node000003" class="edge">
<title>Node16&#45;&gt;Node3</title>
<g id="a_edge34_Node000016_Node000003"><a xlink:title=" ">
<path fill="none" stroke="#63b8ff" d="M212.27,-240.9C219.18,-243.41 226.12,-246.5 232.25,-250.25 251.55,-262.06 249.02,-274.33 268.25,-286.25 271.95,-288.55 275.97,-290.6 280.09,-292.43"/>
<polygon fill="#63b8ff" stroke="#63b8ff" points="278.45,-295.55 289.04,-295.97 281.03,-289.04 278.45,-295.55"/>
</a>
</g>
</g>
<!-- Node17 -->
<g id="Node000017" class="node">
<title>Node17</title>
<g id="a_Node000017"><a xlink:href="a01952.html#aff9af0356940583dfe3045e693cc8a45" target="_top" xlink:title=" ">
<polygon fill="white" stroke="#666666" points="383.25,-277.5 268.25,-277.5 268.25,-259 383.25,-259 383.25,-277.5"/>
<text text-anchor="middle" x="325.75" y="-264" font-family="Helvetica,sans-Serif" font-size="10.00">utils_config_alloc_path</text>
</a>
</g>
</g>
<!-- Node16&#45;&gt;Node17 -->
<g id="edge17_Node000016_Node000017" class="edge">
<title>Node16&#45;&gt;Node17</title>
<g id="a_edge17_Node000016_Node000017"><a xlink:title=" ">
<path fill="none" stroke="#63b8ff" d="M213.24,-240.97C231.84,-245.52 254.2,-250.99 274.01,-255.84"/>
<polygon fill="#63b8ff" stroke="#63b8ff" points="273,-259.19 283.54,-258.17 274.66,-252.39 273,-259.19"/>
</a>
</g>
</g>
<!-- Node19 -->
<g id="Node000019" class="node">
<title>Node19</title>
<g id="a_Node000019"><a xlink:href="a01952.html#a84f3886cdcb91a28bf13b07aae8b2285" target="_top" xlink:title=" ">
<polygon fill="white" stroke="#666666" points="381.38,-240.5 270.12,-240.5 270.12,-222 381.38,-222 381.38,-240.5"/>
<text text-anchor="middle" x="325.75" y="-227" font-family="Helvetica,sans-Serif" font-size="10.00">utils_config_free_path</text>
</a>
</g>
</g>
<!-- Node16&#45;&gt;Node19 -->
<g id="edge19_Node000016_Node000019" class="edge">
<title>Node16&#45;&gt;Node19</title>
<g id="a_edge19_Node000016_Node000019"><a xlink:title=" ">
<path fill="none" stroke="#63b8ff" d="M228.96,-231.25C238.54,-231.25 248.58,-231.25 258.4,-231.25"/>
<polygon fill="#63b8ff" stroke="#63b8ff" points="258.29,-234.75 268.29,-231.25 258.29,-227.75 258.29,-234.75"/>
</a>
</g>
</g>
<!-- Node20 -->
<g id="Node000020" class="node">
<title>Node20</title>
<g id="a_Node000020"><a xlink:href="a01952.html#aa7aa94ad075bf97a566f01f899fcd859" target="_top" xlink:title=" ">
<polygon fill="white" stroke="#666666" points="379.5,-203.5 272,-203.5 272,-185 379.5,-185 379.5,-203.5"/>
<text text-anchor="middle" x="325.75" y="-190" font-family="Helvetica,sans-Serif" font-size="10.00">utils_config_get_bool</text>
</a>
</g>
</g>
<!-- Node16&#45;&gt;Node20 -->
<g id="edge20_Node000016_Node000020" class="edge">
<title>Node16&#45;&gt;Node20</title>
<g id="a_edge20_Node000016_Node000020"><a xlink:title=" ">
<path fill="none" stroke="#63b8ff" d="M213.24,-221.53C231.84,-216.98 254.2,-211.51 274.01,-206.66"/>
<polygon fill="#63b8ff" stroke="#63b8ff" points="274.66,-210.11 283.54,-204.33 273,-203.31 274.66,-210.11"/>
</a>
</g>
</g>
<!-- Node18 -->
<g id="Node000018" class="node">
<title>Node18</title>
<g id="a_Node000018"><a xlink:href="a01961.html#a0844807fe9679a9a5fbf1bfc9dd78dc6" target="_top" xlink:title=" ">
<polygon fill="white" stroke="#666666" points="538.75,-277.5 438.75,-277.5 438.75,-259 538.75,-259 538.75,-277.5"/>
<text text-anchor="middle" x="488.75" y="-264" font-family="Helvetica,sans-Serif" font-size="10.00">system_home_path</text>
</a>
</g>
</g>
<!-- Node17&#45;&gt;Node18 -->
<g id="edge18_Node000017_Node000018" class="edge">
<title>Node17&#45;&gt;Node18</title>
<g id="a_edge18_Node000017_Node000018"><a xlink:title=" ">
<path fill="none" stroke="#63b8ff" d="M383.51,-268.25C397.66,-268.25 412.88,-268.25 427.19,-268.25"/>
<polygon fill="#63b8ff" stroke="#63b8ff" points="426.93,-271.75 436.93,-268.25 426.93,-264.75 426.93,-271.75"/>
</a>
</g>
</g>
<!-- Node21 -->
<g id="Node000021" class="node">
<title>Node21</title>
<g id="a_Node000021"><a xlink:href="a01952.html#a336fa8eefc3d744aa7248d6786cfee03" target="_top" xlink:title=" ">
<polygon fill="white" stroke="#666666" points="538.75,-203.5 438.75,-203.5 438.75,-185 538.75,-185 538.75,-203.5"/>
<text text-anchor="middle" x="488.75" y="-190" font-family="Helvetica,sans-Serif" font-size="10.00">utils_config_get_int</text>
</a>
</g>
</g>
<!-- Node20&#45;&gt;Node21 -->
<g id="edge21_Node000020_Node000021" class="edge">
<title>Node20&#45;&gt;Node21</title>
<g id="a_edge21_Node000020_Node000021"><a xlink:title=" ">
<path fill="none" stroke="#63b8ff" d="M379.91,-194.25C395.1,-194.25 411.75,-194.25 427.33,-194.25"/>
<polygon fill="#63b8ff" stroke="#63b8ff" points="426.94,-197.75 436.94,-194.25 426.94,-190.75 426.94,-197.75"/>
</a>
</g>
</g>
<!-- Node22 -->
<g id="Node000022" class="node">
<title>Node22</title>
<g id="a_Node000022"><a xlink:href="a01952.html#a1a28ba7c7791236d03b1fa9f81aa6a71" target="_top" xlink:title=" ">
<polygon fill="white" stroke="#666666" points="717.5,-203.5 610,-203.5 610,-185 717.5,-185 717.5,-203.5"/>
<text text-anchor="middle" x="663.75" y="-190" font-family="Helvetica,sans-Serif" font-size="10.00">utils_config_get_long</text>
</a>
</g>
</g>
<!-- Node21&#45;&gt;Node22 -->
<g id="edge22_Node000021_Node000022" class="edge">
<title>Node21&#45;&gt;Node22</title>
<g id="a_edge22_Node000021_Node000022"><a xlink:title=" ">
<path fill="none" stroke="#63b8ff" d="M538.86,-194.25C557.32,-194.25 578.58,-194.25 598.23,-194.25"/>
<polygon fill="#63b8ff" stroke="#63b8ff" points="598.06,-197.75 608.06,-194.25 598.06,-190.75 598.06,-197.75"/>
</a>
</g>
</g>
<!-- Node23 -->
<g id="Node000023" class="node">
<title>Node23</title>
<g id="a_Node000023"><a xlink:href="a01952.html#a0738274ac3fd171eda6bfb42492bc0d7" target="_top" xlink:title=" ">
<polygon fill="white" stroke="#666666" points="1027.38,-221.5 921.38,-221.5 921.38,-203 1027.38,-203 1027.38,-221.5"/>
<text text-anchor="middle" x="974.38" y="-208" font-family="Helvetica,sans-Serif" font-size="10.00">_utils_config_get_str</text>
</a>
</g>
</g>
<!-- Node22&#45;&gt;Node23 -->
<g id="edge23_Node000022_Node000023" class="edge">
<title>Node22&#45;&gt;Node23</title>
<g id="a_edge23_Node000022_Node000023"><a xlink:title=" ">
<path fill="none" stroke="#63b8ff" d="M717.8,-197.34C771.01,-200.45 852.98,-205.23 909.67,-208.53"/>
<polygon fill="#63b8ff" stroke="#63b8ff" points="909.31,-212.02 919.5,-209.11 909.72,-205.03 909.31,-212.02"/>
</a>
</g>
</g>
<!-- Node28 -->
<g id="Node000028" class="node">
<title>Node28</title>
<g id="a_Node000028"><a xlink:href="a01952.html#a88091e179416d4beec1b5681cfb68742" target="_top" xlink:title=" ">
<polygon fill="white" stroke="#666666" points="884.25,-184.5 769.25,-184.5 769.25,-166 884.25,-166 884.25,-184.5"/>
<text text-anchor="middle" x="826.75" y="-171" font-family="Helvetica,sans-Serif" font-size="10.00">utils_config_write_long</text>
</a>
</g>
</g>
<!-- Node22&#45;&gt;Node28 -->
<g id="edge29_Node000022_Node000028" class="edge">
<title>Node22&#45;&gt;Node28</title>
<g id="a_edge29_Node000022_Node000028"><a xlink:title=" ">
<path fill="none" stroke="#63b8ff" d="M717.91,-187.98C730.65,-186.47 744.42,-184.85 757.73,-183.28"/>
<polygon fill="#63b8ff" stroke="#63b8ff" points="757.74,-186.8 767.26,-182.15 756.92,-179.85 757.74,-186.8"/>
</a>
</g>
</g>
<!-- Node24 -->
<g id="Node000024" class="node">
<title>Node24</title>
<g id="a_Node000024"><a xlink:href="a01952.html#a8b687fb4c464903e23504eea3ddc3873" target="_top" xlink:title=" ">
<polygon fill="white" stroke="#666666" points="1118,-221.5 1064.5,-221.5 1064.5,-203 1118,-203 1118,-221.5"/>
<text text-anchor="middle" x="1091.25" y="-208" font-family="Helvetica,sans-Serif" font-size="10.00">conf_get</text>
</a>
</g>
</g>
<!-- Node23&#45;&gt;Node24 -->
<g id="edge24_Node000023_Node000024" class="edge">
<title>Node23&#45;&gt;Node24</title>
<g id="a_edge24_Node000023_Node000024"><a xlink:title=" ">
<path fill="none" stroke="#63b8ff" d="M1027.77,-212.25C1036.28,-212.25 1044.94,-212.25 1052.99,-212.25"/>
<polygon fill="#63b8ff" stroke="#63b8ff" points="1052.75,-215.75 1062.75,-212.25 1052.75,-208.75 1052.75,-215.75"/>
</a>
</g>
</g>
<!-- Node25 -->
<g id="Node000025" class="node">
<title>Node25</title>
<g id="a_Node000025"><a xlink:href="a01961.html#acde493d3889d6f207d1e122cf4bb1b8c" target="_top" xlink:title=" ">
<polygon fill="white" stroke="#666666" points="1394.5,-221.5 1308.75,-221.5 1308.75,-203 1394.5,-203 1394.5,-221.5"/>
<text text-anchor="middle" x="1351.62" y="-208" font-family="Helvetica,sans-Serif" font-size="10.00">system_env_var</text>
</a>
</g>
</g>
<!-- Node24&#45;&gt;Node25 -->
<g id="edge25_Node000024_Node000025" class="edge">
<title>Node24&#45;&gt;Node25</title>
<g id="a_edge25_Node000024_Node000025"><a xlink:title=" ">
<path fill="none" stroke="#63b8ff" d="M1118.33,-221.63C1129.21,-225.08 1142.06,-228.55 1154,-230.25 1206.25,-237.71 1220.31,-236.23 1272.75,-230.25 1283.38,-229.04 1294.67,-226.92 1305.26,-224.56"/>
<polygon fill="#63b8ff" stroke="#63b8ff" points="1306.01,-227.98 1314.94,-222.27 1304.41,-221.16 1306.01,-227.98"/>
</a>
</g>
</g>
<!-- Node26 -->
<g id="Node000026" class="node">
<title>Node26</title>
<g id="a_Node000026"><a xlink:href="a01961.html#a86c3bfbf6daaf8172e131aa23dc7393c" target="_top" xlink:title=" ">
<polygon fill="white" stroke="#666666" points="1257,-221.5 1169.75,-221.5 1169.75,-203 1257,-203 1257,-221.5"/>
<text text-anchor="middle" x="1213.38" y="-208" font-family="Helvetica,sans-Serif" font-size="10.00">system_file_size</text>
</a>
</g>
</g>
<!-- Node24&#45;&gt;Node26 -->
<g id="edge26_Node000024_Node000026" class="edge">
<title>Node24&#45;&gt;Node26</title>
<g id="a_edge26_Node000024_Node000026"><a xlink:title=" ">
<path fill="none" stroke="#63b8ff" d="M1118.32,-212.25C1129.96,-212.25 1144.15,-212.25 1157.93,-212.25"/>
<polygon fill="#63b8ff" stroke="#63b8ff" points="1157.84,-215.75 1167.84,-212.25 1157.84,-208.75 1157.84,-215.75"/>
</a>
</g>
</g>
<!-- Node27 -->
<g id="Node000027" class="node">
<title>Node27</title>
<g id="a_Node000027"><a xlink:href="a01952.html#a17713c8e9b90065e23b0ec1a225f79ab" target="_top" xlink:title=" ">
<polygon fill="white" stroke="#666666" points="1272.75,-184.5 1154,-184.5 1154,-166 1272.75,-166 1272.75,-184.5"/>
<text text-anchor="middle" x="1213.38" y="-171" font-family="Helvetica,sans-Serif" font-size="10.00">utils_config_get_source</text>
</a>
</g>
</g>
<!-- Node24&#45;&gt;Node27 -->
<g id="edge27_Node000024_Node000027" class="edge">
<title>Node24&#45;&gt;Node27</title>
<g id="a_edge27_Node000024_Node000027"><a xlink:title=" ">
<path fill="none" stroke="#63b8ff" d="M1118.32,-204.22C1133.37,-199.58 1152.68,-193.64 1169.88,-188.34"/>
<polygon fill="#63b8ff" stroke="#63b8ff" points="1170.84,-191.71 1179.36,-185.42 1168.78,-185.02 1170.84,-191.71"/>
</a>
</g>
</g>
<!-- Node27&#45;&gt;Node25 -->
<g id="edge28_Node000027_Node000025" class="edge">
<title>Node27&#45;&gt;Node25</title>
<g id="a_edge28_Node000027_Node000025"><a xlink:title=" ">
<path fill="none" stroke="#63b8ff" d="M1250.17,-184.97C1266.68,-189.45 1286.48,-194.83 1304.13,-199.62"/>
<polygon fill="#63b8ff" stroke="#63b8ff" points="1303.04,-202.95 1313.61,-202.2 1304.87,-196.2 1303.04,-202.95"/>
</a>
</g>
</g>
<!-- Node29 -->
<g id="Node000029" class="node">
<title>Node29</title>
<g id="a_Node000029"><a xlink:href="a01952.html#a4b9cd8f5d0c205ac6c1fd30f77cbf539" target="_top" xlink:title=" ">
<polygon fill="white" stroke="#666666" points="1028.5,-184.5 920.25,-184.5 920.25,-166 1028.5,-166 1028.5,-184.5"/>
<text text-anchor="middle" x="974.38" y="-171" font-family="Helvetica,sans-Serif" font-size="10.00">utils_config_write_str</text>
</a>
</g>
</g>
<!-- Node28&#45;&gt;Node29 -->
<g id="edge30_Node000028_Node000029" class="edge">
<title>Node28&#45;&gt;Node29</title>
<g id="a_edge30_Node000028_Node000029"><a xlink:title=" ">
<path fill="none" stroke="#63b8ff" d="M884.47,-175.25C892.39,-175.25 900.59,-175.25 908.65,-175.25"/>
<polygon fill="#63b8ff" stroke="#63b8ff" points="908.4,-178.75 918.4,-175.25 908.4,-171.75 908.4,-178.75"/>
</a>
</g>
</g>
<!-- Node29&#45;&gt;Node24 -->
<g id="edge31_Node000029_Node000024" class="edge">
<title>Node29&#45;&gt;Node24</title>
<g id="a_edge31_Node000029_Node000024"><a xlink:title=" ">
<path fill="none" stroke="#63b8ff" d="M1005.56,-184.97C1020.21,-189.69 1037.95,-195.41 1053.4,-200.38"/>
<polygon fill="#63b8ff" stroke="#63b8ff" points="1052.14,-203.65 1062.73,-203.39 1054.28,-196.99 1052.14,-203.65"/>
</a>
</g>
</g>
<!-- Node30 -->
<g id="Node000030" class="node">
<title>Node30</title>
<g id="a_Node000030"><a xlink:href="a01952.html#ab87e9691e65d65348749f8dc70f24602" target="_top" xlink:title=" ">
<polygon fill="white" stroke="#666666" points="1118,-184.5 1064.5,-184.5 1064.5,-166 1118,-166 1118,-184.5"/>
<text text-anchor="middle" x="1091.25" y="-171" font-family="Helvetica,sans-Serif" font-size="10.00">conf_set</text>
</a>
</g>
</g>
<!-- Node29&#45;&gt;Node30 -->
<g id="edge32_Node000029_Node000030" class="edge">
<title>Node29&#45;&gt;Node30</title>
<g id="a_edge32_Node000029_Node000030"><a xlink:title=" ">
<path fill="none" stroke="#63b8ff" d="M1028.78,-175.25C1036.85,-175.25 1045.03,-175.25 1052.68,-175.25"/>
<polygon fill="#63b8ff" stroke="#63b8ff" points="1052.65,-178.75 1062.65,-175.25 1052.65,-171.75 1052.65,-178.75"/>
</a>
</g>
</g>
<!-- Node30&#45;&gt;Node27 -->
<g id="edge33_Node000030_Node000027" class="edge">
<title>Node30&#45;&gt;Node27</title>
<g id="a_edge33_Node000030_Node000027"><a xlink:title=" ">
<path fill="none" stroke="#63b8ff" d="M1118.32,-175.25C1125.61,-175.25 1133.9,-175.25 1142.46,-175.25"/>
<polygon fill="#63b8ff" stroke="#63b8ff" points="1142.31,-178.75 1152.31,-175.25 1142.31,-171.75 1142.31,-178.75"/>
</a>
</g>
</g>
</g>
</svg>
