<?xml version="1.0" encoding="UTF-8" standalone="no"?>
<!DOCTYPE svg PUBLIC "-//W3C//DTD SVG 1.1//EN"
 "http://www.w3.org/Graphics/SVG/1.1/DTD/svg11.dtd">
<!-- Generated by graphviz version 8.0.5 (0)
 -->
<!-- Title: arax_accel_get_stat Pages: 1 -->
<svg width="379pt" height="45pt"
 viewBox="0.00 0.00 379.25 44.50" xmlns="http://www.w3.org/2000/svg" xmlns:xlink="http://www.w3.org/1999/xlink">
<g id="graph0" class="graph" transform="scale(1 1) rotate(0) translate(4 40.5)">
<title>arax_accel_get_stat</title>
<!-- Node1 -->
<g id="Node000001" class="node">
<title>Node1</title>
<g id="a_Node000001"><a xlink:title=" ">
<polygon fill="#999999" stroke="#666666" points="371.25,-36.5 266.75,-36.5 266.75,-18 371.25,-18 371.25,-36.5"/>
<text text-anchor="middle" x="319" y="-23" font-family="Helvetica,sans-Serif" font-size="10.00">arax_accel_get_stat</text>
</a>
</g>
</g>
<!-- Node2 -->
<g id="Node000002" class="node">
<title>Node2</title>
<g id="a_Node000002"><a xlink:href="a02175.html#gadd7613438ee9db973f6abf9259956bd5" target="_top" xlink:title=" ">
<polygon fill="white" stroke="#666666" points="85.75,-36.5 0,-36.5 0,-18 85.75,-18 85.75,-36.5"/>
<text text-anchor="middle" x="42.88" y="-23" font-family="Helvetica,sans-Serif" font-size="10.00">arax_accel_stat</text>
</a>
</g>
</g>
<!-- Node1&#45;&gt;Node2 -->
<g id="edge1_Node000001_Node000002" class="edge">
<title>Node1&#45;&gt;Node2</title>
<g id="a_edge1_Node000001_Node000002"><a xlink:title=" ">
<path fill="none" stroke="#63b8ff" d="M255.71,-27.25C203.9,-27.25 131.54,-27.25 86.22,-27.25"/>
<polygon fill="#63b8ff" stroke="#63b8ff" points="255.44,-30.75 265.44,-27.25 255.44,-23.75 255.44,-30.75"/>
</a>
</g>
</g>
<!-- Node3 -->
<g id="Node000003" class="node">
<title>Node3</title>
<g id="a_Node000003"><a xlink:href="a01928.html#a3e57dc466fca84c701d8fd6a84cb6789" target="_top" xlink:title=" ">
<polygon fill="white" stroke="#666666" points="230.75,-18.5 121.75,-18.5 121.75,0 230.75,0 230.75,-18.5"/>
<text text-anchor="middle" x="176.25" y="-5" font-family="Helvetica,sans-Serif" font-size="10.00">arax_vaccel_get_stat</text>
</a>
</g>
</g>
<!-- Node1&#45;&gt;Node3 -->
<g id="edge2_Node000001_Node000003" class="edge">
<title>Node1&#45;&gt;Node3</title>
<g id="a_edge2_Node000001_Node000003"><a xlink:title=" ">
<path fill="none" stroke="#63b8ff" d="M255.48,-19.25C247.39,-18.22 239.16,-17.17 231.22,-16.15"/>
<polygon fill="#63b8ff" stroke="#63b8ff" points="255.03,-22.85 265.39,-20.65 255.91,-15.91 255.03,-22.85"/>
</a>
</g>
</g>
<!-- Node3&#45;&gt;Node2 -->
<g id="edge3_Node000003_Node000002" class="edge">
<title>Node3&#45;&gt;Node2</title>
<g id="a_edge3_Node000003_Node000002"><a xlink:title=" ">
<path fill="none" stroke="#63b8ff" d="M110.58,-18.11C102.28,-19.25 93.96,-20.39 86.15,-21.46"/>
<polygon fill="#63b8ff" stroke="#63b8ff" points="111,-21.45 120.44,-16.62 110.05,-14.51 111,-21.45"/>
</a>
</g>
</g>
</g>
</svg>
