<?xml version="1.0" encoding="UTF-8" standalone="no"?>
<!DOCTYPE svg PUBLIC "-//W3C//DTD SVG 1.1//EN"
 "http://www.w3.org/Graphics/SVG/1.1/DTD/svg11.dtd">
<!-- Generated by graphviz version 8.0.5 (0)
 -->
<!-- Title: arax_data.h Pages: 1 -->
<svg width="677pt" height="354pt"
 viewBox="0.00 0.00 676.75 353.50" xmlns="http://www.w3.org/2000/svg" xmlns:xlink="http://www.w3.org/1999/xlink">
<g id="graph0" class="graph" transform="scale(1 1) rotate(0) translate(4 349.5)">
<title>arax_data.h</title>
<!-- Node1 -->
<g id="Node000001" class="node">
<title>Node1</title>
<g id="a_Node000001"><a xlink:title=" ">
<polygon fill="#999999" stroke="#666666" points="422.5,-345.5 354.75,-345.5 354.75,-327 422.5,-327 422.5,-345.5"/>
<text text-anchor="middle" x="388.62" y="-332" font-family="Helvetica,sans-Serif" font-size="10.00">arax_data.h</text>
</a>
</g>
</g>
<!-- Node2 -->
<g id="Node000002" class="node">
<title>Node2</title>
<g id="a_Node000002"><a xlink:href="a01346.html" target="_top" xlink:title=" ">
<polygon fill="white" stroke="#666666" points="255.12,-236.5 212.12,-236.5 212.12,-218 255.12,-218 255.12,-236.5"/>
<text text-anchor="middle" x="233.62" y="-223" font-family="Helvetica,sans-Serif" font-size="10.00">arax.h</text>
</a>
</g>
</g>
<!-- Node1&#45;&gt;Node2 -->
<g id="edge1_Node000001_Node000002" class="edge">
<title>Node1&#45;&gt;Node2</title>
<g id="a_edge1_Node000001_Node000002"><a xlink:title=" ">
<path fill="none" stroke="#63b8ff" d="M365.82,-326.58C346.7,-318.77 319.16,-306.18 297.62,-291 278.64,-277.61 260.03,-258.5 247.82,-244.89"/>
<polygon fill="#63b8ff" stroke="#63b8ff" points="250,-243.07 240.77,-237.86 244.73,-247.68 250,-243.07"/>
</a>
</g>
</g>
<!-- Node9 -->
<g id="Node000009" class="node">
<title>Node9</title>
<g id="a_Node000009"><a xlink:href="a01403.html" target="_top" xlink:title=" ">
<polygon fill="white" stroke="#666666" points="423.75,-182 327.5,-182 327.5,-163.5 423.75,-163.5 423.75,-182"/>
<text text-anchor="middle" x="375.62" y="-168.5" font-family="Helvetica,sans-Serif" font-size="10.00">core/arax_object.h</text>
</a>
</g>
</g>
<!-- Node1&#45;&gt;Node9 -->
<g id="edge9_Node000001_Node000009" class="edge">
<title>Node1&#45;&gt;Node9</title>
<g id="a_edge9_Node000001_Node000009"><a xlink:title=" ">
<path fill="none" stroke="#63b8ff" d="M370.75,-326.54C357.64,-319.09 340.75,-307.02 332.62,-291 317.94,-262.05 318.08,-247.93 330.62,-218 335.39,-206.63 344.66,-196.71 353.55,-189.16"/>
<polygon fill="#63b8ff" stroke="#63b8ff" points="355.42,-191.35 361.14,-182.43 351.11,-185.84 355.42,-191.35"/>
</a>
</g>
</g>
<!-- Node16 -->
<g id="Node000016" class="node">
<title>Node16</title>
<g id="a_Node000016"><a xlink:title=" ">
<polygon fill="#e0e0e0" stroke="#999999" points="581.5,-182 531.75,-182 531.75,-163.5 581.5,-163.5 581.5,-182"/>
<text text-anchor="middle" x="556.62" y="-168.5" font-family="Helvetica,sans-Serif" font-size="10.00">async.h</text>
</a>
</g>
</g>
<!-- Node1&#45;&gt;Node16 -->
<g id="edge18_Node000001_Node000016" class="edge">
<title>Node1&#45;&gt;Node16</title>
<g id="a_edge18_Node000001_Node000016"><a xlink:title=" ">
<path fill="none" stroke="#63b8ff" d="M422.69,-330.85C472.26,-322.42 562.71,-298.88 602.62,-236.5 613.44,-219.6 596.23,-201.2 579.87,-188.71"/>
<polygon fill="#63b8ff" stroke="#63b8ff" points="582.22,-185.38 572.05,-182.44 578.17,-191.09 582.22,-185.38"/>
</a>
</g>
</g>
<!-- Node17 -->
<g id="Node000017" class="node">
<title>Node17</title>
<g id="a_Node000017"><a xlink:href="a01427.html" target="_top" xlink:title=" ">
<polygon fill="white" stroke="#666666" points="668.75,-127.5 626.5,-127.5 626.5,-109 668.75,-109 668.75,-127.5"/>
<text text-anchor="middle" x="647.62" y="-114" font-family="Helvetica,sans-Serif" font-size="10.00">conf.h</text>
</a>
</g>
</g>
<!-- Node1&#45;&gt;Node17 -->
<g id="edge19_Node000001_Node000017" class="edge">
<title>Node1&#45;&gt;Node17</title>
<g id="a_edge19_Node000001_Node000017"><a xlink:title=" ">
<path fill="none" stroke="#63b8ff" d="M422.97,-333C461.22,-329.16 523.68,-318.8 569.62,-291 597.24,-274.29 602.54,-265.04 617.62,-236.5 634.43,-204.7 642.18,-163.01 645.46,-138.87"/>
<polygon fill="#63b8ff" stroke="#63b8ff" points="649.05,-139.34 646.8,-128.99 642.11,-138.49 649.05,-139.34"/>
</a>
</g>
</g>
<!-- Node18 -->
<g id="Node000018" class="node">
<title>Node18</title>
<g id="a_Node000018"><a xlink:href="a01391.html" target="_top" xlink:title=" ">
<polygon fill="white" stroke="#666666" points="435.62,-291 341.62,-291 341.62,-272.5 435.62,-272.5 435.62,-291"/>
<text text-anchor="middle" x="388.62" y="-277.5" font-family="Helvetica,sans-Serif" font-size="10.00">core/arax_accel.h</text>
</a>
</g>
</g>
<!-- Node1&#45;&gt;Node18 -->
<g id="edge20_Node000001_Node000018" class="edge">
<title>Node1&#45;&gt;Node18</title>
<g id="a_edge20_Node000001_Node000018"><a xlink:title=" ">
<path fill="none" stroke="#63b8ff" d="M388.62,-326.58C388.62,-319.93 388.62,-310.49 388.62,-302.08"/>
<polygon fill="#63b8ff" stroke="#63b8ff" points="392.13,-302.26 388.62,-292.26 385.13,-302.26 392.13,-302.26"/>
</a>
</g>
</g>
<!-- Node3 -->
<g id="Node000003" class="node">
<title>Node3</title>
<g id="a_Node000003"><a xlink:title=" ">
<polygon fill="#e0e0e0" stroke="#999999" points="45.25,-182 0,-182 0,-163.5 45.25,-163.5 45.25,-182"/>
<text text-anchor="middle" x="22.62" y="-168.5" font-family="Helvetica,sans-Serif" font-size="10.00">stdio.h</text>
</a>
</g>
</g>
<!-- Node2&#45;&gt;Node3 -->
<g id="edge2_Node000002_Node000003" class="edge">
<title>Node2&#45;&gt;Node3</title>
<g id="a_edge2_Node000002_Node000003"><a xlink:title=" ">
<path fill="none" stroke="#63b8ff" d="M211.7,-221C179.56,-213.28 117.52,-198.26 55.91,-182.55"/>
<polygon fill="#63b8ff" stroke="#63b8ff" points="57.19,-179.01 46.64,-179.93 55.46,-185.79 57.19,-179.01"/>
</a>
</g>
</g>
<!-- Node4 -->
<g id="Node000004" class="node">
<title>Node4</title>
<g id="a_Node000004"><a xlink:title=" ">
<polygon fill="#e0e0e0" stroke="#999999" points="399.88,-73 349.38,-73 349.38,-54.5 399.88,-54.5 399.88,-73"/>
<text text-anchor="middle" x="374.62" y="-59.5" font-family="Helvetica,sans-Serif" font-size="10.00">stddef.h</text>
</a>
</g>
</g>
<!-- Node2&#45;&gt;Node4 -->
<g id="edge3_Node000002_Node000004" class="edge">
<title>Node2&#45;&gt;Node4</title>
<g id="a_edge3_Node000002_Node000004"><a xlink:title=" ">
<path fill="none" stroke="#63b8ff" d="M234.05,-217.7C235.55,-196.56 242.22,-141.26 271.62,-109 289.2,-89.72 316.62,-78.5 338.75,-72.18"/>
<polygon fill="#63b8ff" stroke="#63b8ff" points="339.33,-75.38 348.12,-69.46 337.56,-68.61 339.33,-75.38"/>
</a>
</g>
</g>
<!-- Node5 -->
<g id="Node000005" class="node">
<title>Node5</title>
<g id="a_Node000005"><a xlink:href="a01352.html" target="_top" xlink:title=" ">
<polygon fill="white" stroke="#666666" points="193.12,-127.5 120.12,-127.5 120.12,-109 193.12,-109 193.12,-127.5"/>
<text text-anchor="middle" x="156.62" y="-114" font-family="Helvetica,sans-Serif" font-size="10.00">arax_types.h</text>
</a>
</g>
</g>
<!-- Node2&#45;&gt;Node5 -->
<g id="edge4_Node000002_Node000005" class="edge">
<title>Node2&#45;&gt;Node5</title>
<g id="a_edge4_Node000002_Node000005"><a xlink:title=" ">
<path fill="none" stroke="#63b8ff" d="M229.15,-217.83C222.47,-205.49 209.2,-181.98 195.62,-163.5 188.5,-153.8 179.7,-143.68 172.26,-135.58"/>
<polygon fill="#63b8ff" stroke="#63b8ff" points="175.26,-133.59 165.87,-128.68 170.15,-138.37 175.26,-133.59"/>
</a>
</g>
</g>
<!-- Node8 -->
<g id="Node000008" class="node">
<title>Node8</title>
<g id="a_Node000008"><a xlink:href="a01394.html" target="_top" xlink:title=" ">
<polygon fill="white" stroke="#666666" points="186.25,-182 63,-182 63,-163.5 186.25,-163.5 186.25,-182"/>
<text text-anchor="middle" x="124.62" y="-168.5" font-family="Helvetica,sans-Serif" font-size="10.00">core/arax_accel_types.h</text>
</a>
</g>
</g>
<!-- Node2&#45;&gt;Node8 -->
<g id="edge7_Node000002_Node000008" class="edge">
<title>Node2&#45;&gt;Node8</title>
<g id="a_edge7_Node000002_Node000008"><a xlink:title=" ">
<path fill="none" stroke="#63b8ff" d="M215.63,-217.58C198.43,-209.3 172.25,-196.69 152.39,-187.12"/>
<polygon fill="#63b8ff" stroke="#63b8ff" points="154.18,-183.62 143.65,-182.43 151.14,-189.92 154.18,-183.62"/>
</a>
</g>
</g>
<!-- Node6 -->
<g id="Node000006" class="node">
<title>Node6</title>
<g id="a_Node000006"><a xlink:title=" ">
<polygon fill="#e0e0e0" stroke="#999999" points="151.75,-73 91.5,-73 91.5,-54.5 151.75,-54.5 151.75,-73"/>
<text text-anchor="middle" x="121.62" y="-59.5" font-family="Helvetica,sans-Serif" font-size="10.00">sys/time.h</text>
</a>
</g>
</g>
<!-- Node5&#45;&gt;Node6 -->
<g id="edge5_Node000005_Node000006" class="edge">
<title>Node5&#45;&gt;Node6</title>
<g id="a_edge5_Node000005_Node000006"><a xlink:title=" ">
<path fill="none" stroke="#63b8ff" d="M150.85,-108.58C146.11,-101.47 139.24,-91.18 133.36,-82.35"/>
<polygon fill="#63b8ff" stroke="#63b8ff" points="135.76,-80.64 127.3,-74.26 129.93,-84.52 135.76,-80.64"/>
</a>
</g>
</g>
<!-- Node7 -->
<g id="Node000007" class="node">
<title>Node7</title>
<g id="a_Node000007"><a xlink:title=" ">
<polygon fill="#e0e0e0" stroke="#999999" points="213.12,-73 170.12,-73 170.12,-54.5 213.12,-54.5 213.12,-73"/>
<text text-anchor="middle" x="191.62" y="-59.5" font-family="Helvetica,sans-Serif" font-size="10.00">time.h</text>
</a>
</g>
</g>
<!-- Node5&#45;&gt;Node7 -->
<g id="edge6_Node000005_Node000007" class="edge">
<title>Node5&#45;&gt;Node7</title>
<g id="a_edge6_Node000005_Node000007"><a xlink:title=" ">
<path fill="none" stroke="#63b8ff" d="M162.4,-108.58C167.14,-101.47 174.01,-91.18 179.89,-82.35"/>
<polygon fill="#63b8ff" stroke="#63b8ff" points="183.32,-84.52 185.95,-74.26 177.49,-80.64 183.32,-84.52"/>
</a>
</g>
</g>
<!-- Node8&#45;&gt;Node5 -->
<g id="edge8_Node000008_Node000005" class="edge">
<title>Node8&#45;&gt;Node5</title>
<g id="a_edge8_Node000008_Node000005"><a xlink:title=" ">
<path fill="none" stroke="#63b8ff" d="M129.91,-163.08C134.2,-156.05 140.38,-145.9 145.72,-137.14"/>
<polygon fill="#63b8ff" stroke="#63b8ff" points="149.22,-139.12 151.44,-128.76 143.25,-135.48 149.22,-139.12"/>
</a>
</g>
</g>
<!-- Node10 -->
<g id="Node000010" class="node">
<title>Node10</title>
<g id="a_Node000010"><a xlink:href="a01376.html" target="_top" xlink:title=" ">
<polygon fill="white" stroke="#666666" points="460.25,-127.5 403,-127.5 403,-109 460.25,-109 460.25,-127.5"/>
<text text-anchor="middle" x="431.62" y="-114" font-family="Helvetica,sans-Serif" font-size="10.00">utils/list.h</text>
</a>
</g>
</g>
<!-- Node9&#45;&gt;Node10 -->
<g id="edge10_Node000009_Node000010" class="edge">
<title>Node9&#45;&gt;Node10</title>
<g id="a_edge10_Node000009_Node000010"><a xlink:title=" ">
<path fill="none" stroke="#63b8ff" d="M384.87,-163.08C392.95,-155.51 404.87,-144.33 414.65,-135.16"/>
<polygon fill="#63b8ff" stroke="#63b8ff" points="416.65,-138.15 421.55,-128.76 411.86,-133.04 416.65,-138.15"/>
</a>
</g>
</g>
<!-- Node12 -->
<g id="Node000012" class="node">
<title>Node12</title>
<g id="a_Node000012"><a xlink:href="a01382.html" target="_top" xlink:title=" ">
<polygon fill="white" stroke="#666666" points="598.25,-127.5 517,-127.5 517,-109 598.25,-109 598.25,-127.5"/>
<text text-anchor="middle" x="557.62" y="-114" font-family="Helvetica,sans-Serif" font-size="10.00">utils/spinlock.h</text>
</a>
</g>
</g>
<!-- Node9&#45;&gt;Node12 -->
<g id="edge13_Node000009_Node000012" class="edge">
<title>Node9&#45;&gt;Node12</title>
<g id="a_edge13_Node000009_Node000012"><a xlink:title=" ">
<path fill="none" stroke="#63b8ff" d="M405.68,-163.08C436.11,-154.3 483.36,-140.67 517.09,-130.94"/>
<polygon fill="#63b8ff" stroke="#63b8ff" points="517.89,-134.07 526.53,-127.93 515.95,-127.34 517.89,-134.07"/>
</a>
</g>
</g>
<!-- Node15 -->
<g id="Node000015" class="node">
<title>Node15</title>
<g id="a_Node000015"><a xlink:title=" ">
<polygon fill="#e0e0e0" stroke="#999999" points="346.75,-127.5 280.5,-127.5 280.5,-109 346.75,-109 346.75,-127.5"/>
<text text-anchor="middle" x="313.62" y="-114" font-family="Helvetica,sans-Serif" font-size="10.00">arch/alloc.h</text>
</a>
</g>
</g>
<!-- Node9&#45;&gt;Node15 -->
<g id="edge17_Node000009_Node000015" class="edge">
<title>Node9&#45;&gt;Node15</title>
<g id="a_edge17_Node000009_Node000015"><a xlink:title=" ">
<path fill="none" stroke="#63b8ff" d="M365.39,-163.08C356.27,-155.36 342.71,-143.88 331.76,-134.61"/>
<polygon fill="#63b8ff" stroke="#63b8ff" points="334.57,-131.55 324.67,-127.76 330.04,-136.89 334.57,-131.55"/>
</a>
</g>
</g>
<!-- Node10&#45;&gt;Node4 -->
<g id="edge11_Node000010_Node000004" class="edge">
<title>Node10&#45;&gt;Node4</title>
<g id="a_edge11_Node000010_Node000004"><a xlink:title=" ">
<path fill="none" stroke="#63b8ff" d="M422.21,-108.58C414,-101.01 401.86,-89.83 391.9,-80.66"/>
<polygon fill="#63b8ff" stroke="#63b8ff" points="394.59,-78.46 384.86,-74.26 389.85,-83.61 394.59,-78.46"/>
</a>
</g>
</g>
<!-- Node11 -->
<g id="Node000011" class="node">
<title>Node11</title>
<g id="a_Node000011"><a xlink:title=" ">
<polygon fill="#e0e0e0" stroke="#999999" points="501.38,-73 453.88,-73 453.88,-54.5 501.38,-54.5 501.38,-73"/>
<text text-anchor="middle" x="477.62" y="-59.5" font-family="Helvetica,sans-Serif" font-size="10.00">stdint.h</text>
</a>
</g>
</g>
<!-- Node10&#45;&gt;Node11 -->
<g id="edge12_Node000010_Node000011" class="edge">
<title>Node10&#45;&gt;Node11</title>
<g id="a_edge12_Node000010_Node000011"><a xlink:title=" ">
<path fill="none" stroke="#63b8ff" d="M439.22,-108.58C445.65,-101.24 455.06,-90.51 462.95,-81.5"/>
<polygon fill="#63b8ff" stroke="#63b8ff" points="466.21,-84.09 470.17,-74.26 460.95,-79.47 466.21,-84.09"/>
</a>
</g>
</g>
<!-- Node12&#45;&gt;Node11 -->
<g id="edge14_Node000012_Node000011" class="edge">
<title>Node12&#45;&gt;Node11</title>
<g id="a_edge14_Node000012_Node000011"><a xlink:title=" ">
<path fill="none" stroke="#63b8ff" d="M544.41,-108.58C532.37,-100.68 514.33,-88.84 500.03,-79.46"/>
<polygon fill="#63b8ff" stroke="#63b8ff" points="502.14,-75.99 491.85,-73.43 498.3,-81.84 502.14,-75.99"/>
</a>
</g>
</g>
<!-- Node13 -->
<g id="Node000013" class="node">
<title>Node13</title>
<g id="a_Node000013"><a xlink:href="a01361.html" target="_top" xlink:title=" ">
<polygon fill="white" stroke="#666666" points="616.12,-73 519.12,-73 519.12,-54.5 616.12,-54.5 616.12,-73"/>
<text text-anchor="middle" x="567.62" y="-59.5" font-family="Helvetica,sans-Serif" font-size="10.00">utils/arax_assert.h</text>
</a>
</g>
</g>
<!-- Node12&#45;&gt;Node13 -->
<g id="edge15_Node000012_Node000013" class="edge">
<title>Node12&#45;&gt;Node13</title>
<g id="a_edge15_Node000012_Node000013"><a xlink:title=" ">
<path fill="none" stroke="#63b8ff" d="M559.28,-108.58C560.56,-101.85 562.38,-92.27 564,-83.79"/>
<polygon fill="#63b8ff" stroke="#63b8ff" points="567.57,-84.74 566,-74.26 560.7,-83.43 567.57,-84.74"/>
</a>
</g>
</g>
<!-- Node14 -->
<g id="Node000014" class="node">
<title>Node14</title>
<g id="a_Node000014"><a xlink:href="a01370.html" target="_top" xlink:title=" ">
<polygon fill="white" stroke="#666666" points="595.5,-18.5 539.75,-18.5 539.75,0 595.5,0 595.5,-18.5"/>
<text text-anchor="middle" x="567.62" y="-5" font-family="Helvetica,sans-Serif" font-size="10.00">compat.h</text>
</a>
</g>
</g>
<!-- Node13&#45;&gt;Node14 -->
<g id="edge16_Node000013_Node000014" class="edge">
<title>Node13&#45;&gt;Node14</title>
<g id="a_edge16_Node000013_Node000014"><a xlink:title=" ">
<path fill="none" stroke="#63b8ff" d="M567.62,-54.08C567.62,-47.43 567.62,-37.99 567.62,-29.58"/>
<polygon fill="#63b8ff" stroke="#63b8ff" points="571.13,-29.76 567.62,-19.76 564.13,-29.76 571.13,-29.76"/>
</a>
</g>
</g>
<!-- Node18&#45;&gt;Node2 -->
<g id="edge21_Node000018_Node000002" class="edge">
<title>Node18&#45;&gt;Node2</title>
<g id="a_edge21_Node000018_Node000002"><a xlink:title=" ">
<path fill="none" stroke="#63b8ff" d="M363.03,-272.08C336.34,-263.04 294.46,-248.86 265.61,-239.08"/>
<polygon fill="#63b8ff" stroke="#63b8ff" points="266.85,-235.47 256.25,-235.58 264.6,-242.1 266.85,-235.47"/>
</a>
</g>
</g>
<!-- Node18&#45;&gt;Node16 -->
<g id="edge22_Node000018_Node000016" class="edge">
<title>Node18&#45;&gt;Node16</title>
<g id="a_edge22_Node000018_Node000016"><a xlink:title=" ">
<path fill="none" stroke="#63b8ff" d="M401.59,-272.11C419.97,-259.9 454.69,-236.98 484.62,-218 500.73,-207.79 519.05,-196.54 533.18,-187.93"/>
<polygon fill="#63b8ff" stroke="#63b8ff" points="534.48,-190.63 541.21,-182.45 530.84,-184.65 534.48,-190.63"/>
</a>
</g>
</g>
<!-- Node19 -->
<g id="Node000019" class="node">
<title>Node19</title>
<g id="a_Node000019"><a xlink:href="a01418.html" target="_top" xlink:title=" ">
<polygon fill="white" stroke="#666666" points="437.88,-236.5 339.38,-236.5 339.38,-218 437.88,-218 437.88,-236.5"/>
<text text-anchor="middle" x="388.62" y="-223" font-family="Helvetica,sans-Serif" font-size="10.00">core/arax_vaccel.h</text>
</a>
</g>
</g>
<!-- Node18&#45;&gt;Node19 -->
<g id="edge23_Node000018_Node000019" class="edge">
<title>Node18&#45;&gt;Node19</title>
<g id="a_edge23_Node000018_Node000019"><a xlink:title=" ">
<path fill="none" stroke="#63b8ff" d="M383.46,-272.08C382.02,-265.43 381.56,-255.99 382.09,-247.58"/>
<polygon fill="#63b8ff" stroke="#63b8ff" points="385.68,-248.13 383.49,-237.76 378.73,-247.22 385.68,-248.13"/>
</a>
</g>
</g>
<!-- Node21 -->
<g id="Node000021" class="node">
<title>Node21</title>
<g id="a_Node000021"><a xlink:href="a01415.html" target="_top" xlink:title=" ">
<polygon fill="white" stroke="#666666" points="594,-236.5 493.25,-236.5 493.25,-218 594,-218 594,-236.5"/>
<text text-anchor="middle" x="543.62" y="-223" font-family="Helvetica,sans-Serif" font-size="10.00">core/arax_throttle.h</text>
</a>
</g>
</g>
<!-- Node18&#45;&gt;Node21 -->
<g id="edge32_Node000018_Node000021" class="edge">
<title>Node18&#45;&gt;Node21</title>
<g id="a_edge32_Node000018_Node000021"><a xlink:title=" ">
<path fill="none" stroke="#63b8ff" d="M414.22,-272.08C439.69,-263.46 478.99,-250.14 507.6,-240.45"/>
<polygon fill="#63b8ff" stroke="#63b8ff" points="508.64,-243.46 516.99,-236.93 506.4,-236.83 508.64,-243.46"/>
</a>
</g>
</g>
<!-- Node19&#45;&gt;Node9 -->
<g id="edge24_Node000019_Node000009" class="edge">
<title>Node19&#45;&gt;Node9</title>
<g id="a_edge24_Node000019_Node000009"><a xlink:title=" ">
<path fill="none" stroke="#63b8ff" d="M386.48,-217.58C384.81,-210.85 382.44,-201.27 380.34,-192.79"/>
<polygon fill="#63b8ff" stroke="#63b8ff" points="383.53,-192.12 377.73,-183.26 376.74,-193.81 383.53,-192.12"/>
</a>
</g>
</g>
<!-- Node19&#45;&gt;Node16 -->
<g id="edge31_Node000019_Node000016" class="edge">
<title>Node19&#45;&gt;Node16</title>
<g id="a_edge31_Node000019_Node000016"><a xlink:title=" ">
<path fill="none" stroke="#63b8ff" d="M416.37,-217.58C444.96,-208.64 489.65,-194.68 520.88,-184.92"/>
<polygon fill="#63b8ff" stroke="#63b8ff" points="521.82,-187.98 530.32,-181.66 519.73,-181.3 521.82,-187.98"/>
</a>
</g>
</g>
<!-- Node19&#45;&gt;Node18 -->
<g id="edge30_Node000019_Node000018" class="edge">
<title>Node19&#45;&gt;Node18</title>
<g id="a_edge30_Node000019_Node000018"><a xlink:title=" ">
<path fill="none" stroke="#63b8ff" d="M393.76,-236.76C395.22,-243.36 395.69,-252.79 395.17,-261.22"/>
<polygon fill="#63b8ff" stroke="#63b8ff" points="391.58,-260.72 393.79,-271.08 398.53,-261.6 391.58,-260.72"/>
</a>
</g>
</g>
<!-- Node20 -->
<g id="Node000020" class="node">
<title>Node20</title>
<g id="a_Node000020"><a xlink:href="a01379.html" target="_top" xlink:title=" ">
<polygon fill="white" stroke="#666666" points="513.38,-182 441.88,-182 441.88,-163.5 513.38,-163.5 513.38,-182"/>
<text text-anchor="middle" x="477.62" y="-168.5" font-family="Helvetica,sans-Serif" font-size="10.00">utils/queue.h</text>
</a>
</g>
</g>
<!-- Node19&#45;&gt;Node20 -->
<g id="edge25_Node000019_Node000020" class="edge">
<title>Node19&#45;&gt;Node20</title>
<g id="a_edge25_Node000019_Node000020"><a xlink:title=" ">
<path fill="none" stroke="#63b8ff" d="M403.32,-217.58C416.98,-209.53 437.56,-197.38 453.61,-187.92"/>
<polygon fill="#63b8ff" stroke="#63b8ff" points="455.07,-190.53 461.91,-182.43 451.52,-184.5 455.07,-190.53"/>
</a>
</g>
</g>
<!-- Node20&#45;&gt;Node4 -->
<g id="edge26_Node000020_Node000004" class="edge">
<title>Node20&#45;&gt;Node4</title>
<g id="a_edge26_Node000020_Node000004"><a xlink:title=" ">
<path fill="none" stroke="#63b8ff" d="M448.96,-163.09C430.71,-156.2 407.89,-144.79 393.62,-127.5 383.53,-115.27 378.79,-97.76 376.58,-84.34"/>
<polygon fill="#63b8ff" stroke="#63b8ff" points="379.92,-83.91 375.16,-74.44 372.98,-84.81 379.92,-83.91"/>
</a>
</g>
</g>
<!-- Node20&#45;&gt;Node11 -->
<g id="edge27_Node000020_Node000011" class="edge">
<title>Node20&#45;&gt;Node11</title>
<g id="a_edge27_Node000020_Node000011"><a xlink:title=" ">
<path fill="none" stroke="#63b8ff" d="M477.62,-163.35C477.62,-146.4 477.62,-107.71 477.62,-84.15"/>
<polygon fill="#63b8ff" stroke="#63b8ff" points="481.13,-84.4 477.62,-74.4 474.13,-84.4 481.13,-84.4"/>
</a>
</g>
</g>
<!-- Node20&#45;&gt;Node12 -->
<g id="edge29_Node000020_Node000012" class="edge">
<title>Node20&#45;&gt;Node12</title>
<g id="a_edge29_Node000020_Node000012"><a xlink:title=" ">
<path fill="none" stroke="#63b8ff" d="M490.84,-163.08C502.88,-155.18 520.92,-143.34 535.22,-133.96"/>
<polygon fill="#63b8ff" stroke="#63b8ff" points="536.95,-136.34 543.4,-127.93 533.11,-130.49 536.95,-136.34"/>
</a>
</g>
</g>
<!-- Node20&#45;&gt;Node17 -->
<g id="edge28_Node000020_Node000017" class="edge">
<title>Node20&#45;&gt;Node17</title>
<g id="a_edge28_Node000020_Node000017"><a xlink:title=" ">
<path fill="none" stroke="#63b8ff" d="M505.7,-163.08C535.98,-153.73 584.11,-138.86 615.79,-129.08"/>
<polygon fill="#63b8ff" stroke="#63b8ff" points="616.73,-132.15 625.25,-125.85 614.66,-125.46 616.73,-132.15"/>
</a>
</g>
</g>
<!-- Node21&#45;&gt;Node16 -->
<g id="edge33_Node000021_Node000016" class="edge">
<title>Node21&#45;&gt;Node16</title>
<g id="a_edge33_Node000021_Node000016"><a xlink:title=" ">
<path fill="none" stroke="#63b8ff" d="M545.77,-217.58C547.44,-210.85 549.81,-201.27 551.91,-192.79"/>
<polygon fill="#63b8ff" stroke="#63b8ff" points="555.51,-193.81 554.52,-183.26 548.72,-192.12 555.51,-193.81"/>
</a>
</g>
</g>
</g>
</svg>
