<?xml version="1.0" encoding="UTF-8" standalone="no"?>
<!DOCTYPE svg PUBLIC "-//W3C//DTD SVG 1.1//EN"
 "http://www.w3.org/Graphics/SVG/1.1/DTD/svg11.dtd">
<!-- Generated by graphviz version 12.2.1 (0)
 -->
<!-- Title: queue.h Pages: 1 -->
<svg width="855pt" height="299pt"
 viewBox="0.00 0.00 854.88 299.00" xmlns="http://www.w3.org/2000/svg" xmlns:xlink="http://www.w3.org/1999/xlink">
<g id="graph0" class="graph" transform="scale(1 1) rotate(0) translate(4 295)">
<title>queue.h</title>
<!-- Node1 -->
<g id="Node000001" class="node">
<title>Node1</title>
<g id="a_Node000001"><a xlink:title=" ">
<polygon fill="#999999" stroke="#666666" points="576.38,-291 525.88,-291 525.88,-272.5 576.38,-272.5 576.38,-291"/>
<text text-anchor="middle" x="551.12" y="-277.5" font-family="Helvetica,sans-Serif" font-size="10.00">queue.h</text>
</a>
</g>
</g>
<!-- Node2 -->
<g id="Node000002" class="node">
<title>Node2</title>
<g id="a_Node000002"><a xlink:href="a01358.html" target="_top" xlink:title=" ">
<polygon fill="white" stroke="#666666" points="474.62,-127.5 407.62,-127.5 407.62,-109 474.62,-109 474.62,-127.5"/>
<text text-anchor="middle" x="441.12" y="-114" font-family="Helvetica,sans-Serif" font-size="10.00">arax_pipe.h</text>
</a>
</g>
</g>
<!-- Node1&#45;&gt;Node2 -->
<g id="edge1_Node000001_Node000002" class="edge">
<title>Node1&#45;&gt;Node2</title>
<g id="a_edge1_Node000001_Node000002"><a xlink:title=" ">
<path fill="none" stroke="#63b8ff" d="M531.38,-264.73C522.39,-256.83 512.02,-246.8 504.12,-236.5 475.72,-199.46 452.92,-147.87 444.56,-127.76"/>
<polygon fill="#63b8ff" stroke="#63b8ff" points="529.04,-267.34 538.93,-271.14 533.57,-262 529.04,-267.34"/>
</a>
</g>
</g>
<!-- Node12 -->
<g id="Node000012" class="node">
<title>Node12</title>
<g id="a_Node000012"><a xlink:href="a01430.html" target="_top" xlink:title=" ">
<polygon fill="white" stroke="#666666" points="589.5,-236.5 512.75,-236.5 512.75,-218 589.5,-218 589.5,-236.5"/>
<text text-anchor="middle" x="551.12" y="-223" font-family="Helvetica,sans-Serif" font-size="10.00">arax_vaccel.h</text>
</a>
</g>
</g>
<!-- Node1&#45;&gt;Node12 -->
<g id="edge11_Node000001_Node000012" class="edge">
<title>Node1&#45;&gt;Node12</title>
<g id="a_edge11_Node000001_Node000012"><a xlink:title=" ">
<path fill="none" stroke="#63b8ff" d="M551.12,-260.64C551.12,-252.36 551.12,-243.21 551.12,-236.76"/>
<polygon fill="#63b8ff" stroke="#63b8ff" points="547.63,-260.57 551.13,-270.57 554.63,-260.57 547.63,-260.57"/>
</a>
</g>
</g>
<!-- Node16 -->
<g id="Node000016" class="node">
<title>Node16</title>
<g id="a_Node000016"><a xlink:href="a01958.html" target="_top" xlink:title=" ">
<polygon fill="white" stroke="#666666" points="658.38,-236.5 607.88,-236.5 607.88,-218 658.38,-218 658.38,-236.5"/>
<text text-anchor="middle" x="633.12" y="-223" font-family="Helvetica,sans-Serif" font-size="10.00">queue.c</text>
</a>
</g>
</g>
<!-- Node1&#45;&gt;Node16 -->
<g id="edge23_Node000001_Node000016" class="edge">
<title>Node1&#45;&gt;Node16</title>
<g id="a_edge23_Node000001_Node000016"><a xlink:title=" ">
<path fill="none" stroke="#63b8ff" d="M574.07,-266.06C588.72,-256.68 607.21,-244.84 619.56,-236.93"/>
<polygon fill="#63b8ff" stroke="#63b8ff" points="572.47,-262.92 565.94,-271.26 576.25,-268.82 572.47,-262.92"/>
</a>
</g>
</g>
<!-- Node3 -->
<g id="Node000003" class="node">
<title>Node3</title>
<g id="a_Node000003"><a xlink:href="a01916.html" target="_top" xlink:title=" ">
<polygon fill="white" stroke="#666666" points="72.25,-73 0,-73 0,-54.5 72.25,-54.5 72.25,-73"/>
<text text-anchor="middle" x="36.12" y="-59.5" font-family="Helvetica,sans-Serif" font-size="10.00">arax_accel.c</text>
</a>
</g>
</g>
<!-- Node2&#45;&gt;Node3 -->
<g id="edge2_Node000002_Node000003" class="edge">
<title>Node2&#45;&gt;Node3</title>
<g id="a_edge2_Node000002_Node000003"><a xlink:title=" ">
<path fill="none" stroke="#63b8ff" d="M396.11,-112.58C327.84,-105.3 194.1,-90.28 81.12,-73 78.3,-72.57 75.38,-72.09 72.44,-71.6"/>
<polygon fill="#63b8ff" stroke="#63b8ff" points="395.47,-116.03 405.78,-113.6 396.2,-109.07 395.47,-116.03"/>
</a>
</g>
</g>
<!-- Node4 -->
<g id="Node000004" class="node">
<title>Node4</title>
<g id="a_Node000004"><a xlink:href="a01922.html" target="_top" xlink:title=" ">
<polygon fill="white" stroke="#666666" points="751,-18.5 683.25,-18.5 683.25,0 751,0 751,-18.5"/>
<text text-anchor="middle" x="717.12" y="-5" font-family="Helvetica,sans-Serif" font-size="10.00">arax_data.c</text>
</a>
</g>
</g>
<!-- Node2&#45;&gt;Node4 -->
<g id="edge3_Node000002_Node000004" class="edge">
<title>Node2&#45;&gt;Node4</title>
<g id="a_edge3_Node000002_Node000004"><a xlink:title=" ">
<path fill="none" stroke="#63b8ff" d="M441.85,-97.49C443.47,-83.44 447.98,-65.23 460.12,-54.5 492.7,-25.72 620.97,-15.22 683.08,-11.77"/>
<polygon fill="#63b8ff" stroke="#63b8ff" points="438.37,-97.15 441.16,-107.38 445.35,-97.65 438.37,-97.15"/>
</a>
</g>
</g>
<!-- Node5 -->
<g id="Node000005" class="node">
<title>Node5</title>
<g id="a_Node000005"><a xlink:href="a01925.html" target="_top" xlink:title=" ">
<polygon fill="white" stroke="#666666" points="603.38,-73 528.88,-73 528.88,-54.5 603.38,-54.5 603.38,-73"/>
<text text-anchor="middle" x="566.12" y="-59.5" font-family="Helvetica,sans-Serif" font-size="10.00">arax_object.c</text>
</a>
</g>
</g>
<!-- Node2&#45;&gt;Node5 -->
<g id="edge4_Node000002_Node000005" class="edge">
<title>Node2&#45;&gt;Node5</title>
<g id="a_edge4_Node000002_Node000005"><a xlink:title=" ">
<path fill="none" stroke="#63b8ff" d="M472.3,-104.16C495.15,-94.56 525.54,-81.8 545.45,-73.43"/>
<polygon fill="#63b8ff" stroke="#63b8ff" points="471.03,-100.9 463.16,-107.99 473.74,-107.35 471.03,-100.9"/>
</a>
</g>
</g>
<!-- Node6 -->
<g id="Node000006" class="node">
<title>Node6</title>
<g id="a_Node000006"><a xlink:href="a01928.html" target="_top" xlink:title=" ">
<polygon fill="white" stroke="#666666" points="157.62,-73 90.62,-73 90.62,-54.5 157.62,-54.5 157.62,-73"/>
<text text-anchor="middle" x="124.12" y="-59.5" font-family="Helvetica,sans-Serif" font-size="10.00">arax_pipe.c</text>
</a>
</g>
</g>
<!-- Node2&#45;&gt;Node6 -->
<g id="edge5_Node000002_Node000006" class="edge">
<title>Node2&#45;&gt;Node6</title>
<g id="a_edge5_Node000002_Node000006"><a xlink:title=" ">
<path fill="none" stroke="#63b8ff" d="M396.02,-110.38C341.66,-102.01 247.58,-87.21 167.12,-73 164.13,-72.47 161.02,-71.91 157.91,-71.33"/>
<polygon fill="#63b8ff" stroke="#63b8ff" points="395.41,-113.83 405.83,-111.89 396.48,-106.91 395.41,-113.83"/>
</a>
</g>
</g>
<!-- Node7 -->
<g id="Node000007" class="node">
<title>Node7</title>
<g id="a_Node000007"><a xlink:href="a01946.html" target="_top" xlink:title=" ">
<polygon fill="white" stroke="#666666" points="240.12,-73 176.12,-73 176.12,-54.5 240.12,-54.5 240.12,-73"/>
<text text-anchor="middle" x="208.12" y="-59.5" font-family="Helvetica,sans-Serif" font-size="10.00">arax_plot.c</text>
</a>
</g>
</g>
<!-- Node2&#45;&gt;Node7 -->
<g id="edge6_Node000002_Node000007" class="edge">
<title>Node2&#45;&gt;Node7</title>
<g id="a_edge6_Node000002_Node000007"><a xlink:title=" ">
<path fill="none" stroke="#63b8ff" d="M396.19,-107.13C350.57,-96.85 281.05,-81.18 240.54,-72.05"/>
<polygon fill="#63b8ff" stroke="#63b8ff" points="395.24,-110.5 405.77,-109.28 396.78,-103.67 395.24,-110.5"/>
</a>
</g>
</g>
<!-- Node8 -->
<g id="Node000008" class="node">
<title>Node8</title>
<g id="a_Node000008"><a xlink:href="a01934.html" target="_top" xlink:title=" ">
<polygon fill="white" stroke="#666666" points="318.25,-73 258,-73 258,-54.5 318.25,-54.5 318.25,-73"/>
<text text-anchor="middle" x="288.12" y="-59.5" font-family="Helvetica,sans-Serif" font-size="10.00">arax_ptr.c</text>
</a>
</g>
</g>
<!-- Node2&#45;&gt;Node8 -->
<g id="edge7_Node000002_Node000008" class="edge">
<title>Node2&#45;&gt;Node8</title>
<g id="a_edge7_Node000002_Node000008"><a xlink:title=" ">
<path fill="none" stroke="#63b8ff" d="M405.23,-104.93C377.03,-95.26 338.47,-82.02 313.43,-73.43"/>
<polygon fill="#63b8ff" stroke="#63b8ff" points="403.83,-108.15 414.43,-108.09 406.11,-101.53 403.83,-108.15"/>
</a>
</g>
</g>
<!-- Node9 -->
<g id="Node000009" class="node">
<title>Node9</title>
<g id="a_Node000009"><a xlink:href="a01937.html" target="_top" xlink:title=" ">
<polygon fill="white" stroke="#666666" points="689,-73 621.25,-73 621.25,-54.5 689,-54.5 689,-73"/>
<text text-anchor="middle" x="655.12" y="-59.5" font-family="Helvetica,sans-Serif" font-size="10.00">arax_task.c</text>
</a>
</g>
</g>
<!-- Node2&#45;&gt;Node9 -->
<g id="edge8_Node000002_Node000009" class="edge">
<title>Node2&#45;&gt;Node9</title>
<g id="a_edge8_Node000002_Node000009"><a xlink:title=" ">
<path fill="none" stroke="#63b8ff" d="M486.14,-106.21C526.39,-96.33 584.5,-82.08 621.02,-73.12"/>
<polygon fill="#63b8ff" stroke="#63b8ff" points="485.38,-102.79 476.5,-108.57 487.05,-109.59 485.38,-102.79"/>
</a>
</g>
</g>
<!-- Node10 -->
<g id="Node000010" class="node">
<title>Node10</title>
<g id="a_Node000010"><a xlink:href="a01943.html" target="_top" xlink:title=" ">
<polygon fill="white" stroke="#666666" points="413.5,-73 336.75,-73 336.75,-54.5 413.5,-54.5 413.5,-73"/>
<text text-anchor="middle" x="375.12" y="-59.5" font-family="Helvetica,sans-Serif" font-size="10.00">arax_vaccel.c</text>
</a>
</g>
</g>
<!-- Node2&#45;&gt;Node10 -->
<g id="edge9_Node000002_Node000010" class="edge">
<title>Node2&#45;&gt;Node10</title>
<g id="a_edge9_Node000002_Node000010"><a xlink:title=" ">
<path fill="none" stroke="#63b8ff" d="M421.22,-101.42C409.59,-92.17 395.37,-80.85 385.82,-73.26"/>
<polygon fill="#63b8ff" stroke="#63b8ff" points="419.04,-104.15 429.04,-107.64 423.39,-98.67 419.04,-104.15"/>
</a>
</g>
</g>
<!-- Node11 -->
<g id="Node000011" class="node">
<title>Node11</title>
<g id="a_Node000011"><a xlink:href="a01910.html" target="_top" xlink:title=" ">
<polygon fill="white" stroke="#666666" points="511.25,-73 469,-73 469,-54.5 511.25,-54.5 511.25,-73"/>
<text text-anchor="middle" x="490.12" y="-59.5" font-family="Helvetica,sans-Serif" font-size="10.00">impl.c</text>
</a>
</g>
</g>
<!-- Node2&#45;&gt;Node11 -->
<g id="edge10_Node000002_Node000011" class="edge">
<title>Node2&#45;&gt;Node11</title>
<g id="a_edge10_Node000002_Node000011"><a xlink:title=" ">
<path fill="none" stroke="#63b8ff" d="M456.95,-100.3C465.38,-91.27 475.38,-80.55 482.18,-73.26"/>
<polygon fill="#63b8ff" stroke="#63b8ff" points="454.51,-97.78 450.25,-107.47 459.63,-102.55 454.51,-97.78"/>
</a>
</g>
</g>
<!-- Node13 -->
<g id="Node000013" class="node">
<title>Node13</title>
<g id="a_Node000013"><a xlink:href="a01403.html" target="_top" xlink:title=" ">
<polygon fill="white" stroke="#666666" points="587.25,-182 515,-182 515,-163.5 587.25,-163.5 587.25,-182"/>
<text text-anchor="middle" x="551.12" y="-168.5" font-family="Helvetica,sans-Serif" font-size="10.00">arax_accel.h</text>
</a>
</g>
</g>
<!-- Node12&#45;&gt;Node13 -->
<g id="edge12_Node000012_Node000013" class="edge">
<title>Node12&#45;&gt;Node13</title>
<g id="a_edge12_Node000012_Node000013"><a xlink:title=" ">
<path fill="none" stroke="#63b8ff" d="M544.56,-206.43C544.07,-198.07 544.55,-188.79 545.99,-182.26"/>
<polygon fill="#63b8ff" stroke="#63b8ff" points="541.05,-206.59 545.77,-216.08 548,-205.72 541.05,-206.59"/>
</a>
</g>
</g>
<!-- Node13&#45;&gt;Node2 -->
<g id="edge21_Node000013_Node000002" class="edge">
<title>Node13&#45;&gt;Node2</title>
<g id="a_edge21_Node000013_Node000002"><a xlink:title=" ">
<path fill="none" stroke="#63b8ff" d="M522.59,-158.13C502.61,-148.6 476.52,-136.14 459.32,-127.93"/>
<polygon fill="#63b8ff" stroke="#63b8ff" points="521.06,-161.28 531.59,-162.43 524.08,-154.96 521.06,-161.28"/>
</a>
</g>
</g>
<!-- Node13&#45;&gt;Node5 -->
<g id="edge20_Node000013_Node000005" class="edge">
<title>Node13&#45;&gt;Node5</title>
<g id="a_edge20_Node000013_Node000005"><a xlink:title=" ">
<path fill="none" stroke="#63b8ff" d="M553.89,-152.06C557.18,-128.59 562.53,-90.41 564.91,-73.4"/>
<polygon fill="#63b8ff" stroke="#63b8ff" points="550.43,-151.47 552.51,-161.86 557.37,-152.44 550.43,-151.47"/>
</a>
</g>
</g>
<!-- Node13&#45;&gt;Node12 -->
<g id="edge22_Node000013_Node000012" class="edge">
<title>Node13&#45;&gt;Node12</title>
<g id="a_edge22_Node000013_Node000012"><a xlink:title=" ">
<path fill="none" stroke="#63b8ff" d="M557.7,-193.66C558.17,-201.92 557.7,-211.08 556.29,-217.58"/>
<polygon fill="#63b8ff" stroke="#63b8ff" points="561.17,-193.24 556.45,-183.76 554.23,-194.12 561.17,-193.24"/>
</a>
</g>
</g>
<!-- Node14 -->
<g id="Node000014" class="node">
<title>Node14</title>
<g id="a_Node000014"><a xlink:href="a01409.html" target="_top" xlink:title=" ">
<polygon fill="white" stroke="#666666" points="675,-127.5 607.25,-127.5 607.25,-109 675,-109 675,-127.5"/>
<text text-anchor="middle" x="641.12" y="-114" font-family="Helvetica,sans-Serif" font-size="10.00">arax_data.h</text>
</a>
</g>
</g>
<!-- Node13&#45;&gt;Node14 -->
<g id="edge13_Node000013_Node000014" class="edge">
<title>Node13&#45;&gt;Node14</title>
<g id="a_edge13_Node000013_Node000014"><a xlink:title=" ">
<path fill="none" stroke="#63b8ff" d="M575.85,-157.33C592,-147.91 612.55,-135.92 626.24,-127.93"/>
<polygon fill="#63b8ff" stroke="#63b8ff" points="574.17,-154.26 567.29,-162.32 577.7,-160.3 574.17,-154.26"/>
</a>
</g>
</g>
<!-- Node14&#45;&gt;Node4 -->
<g id="edge14_Node000014_Node000004" class="edge">
<title>Node14&#45;&gt;Node4</title>
<g id="a_edge14_Node000014_Node000004"><a xlink:title=" ">
<path fill="none" stroke="#63b8ff" d="M666.79,-102.39C677.83,-94.84 690.03,-84.78 698.12,-73 709.86,-55.93 714.51,-31.42 716.22,-18.67"/>
<polygon fill="#63b8ff" stroke="#63b8ff" points="664.93,-99.42 658.41,-107.77 668.71,-105.31 664.93,-99.42"/>
</a>
</g>
</g>
<!-- Node14&#45;&gt;Node5 -->
<g id="edge17_Node000014_Node000005" class="edge">
<title>Node14&#45;&gt;Node5</title>
<g id="a_edge17_Node000014_Node000005"><a xlink:title=" ">
<path fill="none" stroke="#63b8ff" d="M619.36,-102.02C606.09,-92.73 589.61,-81.19 578.53,-73.43"/>
<polygon fill="#63b8ff" stroke="#63b8ff" points="617.3,-104.85 627.5,-107.71 621.32,-99.11 617.3,-104.85"/>
</a>
</g>
</g>
<!-- Node14&#45;&gt;Node9 -->
<g id="edge18_Node000014_Node000009" class="edge">
<title>Node14&#45;&gt;Node9</title>
<g id="a_edge18_Node000014_Node000009"><a xlink:title=" ">
<path fill="none" stroke="#63b8ff" d="M646.33,-97.72C648.58,-89.29 651.09,-79.86 652.86,-73.26"/>
<polygon fill="#63b8ff" stroke="#63b8ff" points="643.02,-96.55 643.83,-107.12 649.79,-98.36 643.02,-96.55"/>
</a>
</g>
</g>
<!-- Node14&#45;&gt;Node11 -->
<g id="edge19_Node000014_Node000011" class="edge">
<title>Node14&#45;&gt;Node11</title>
<g id="a_edge19_Node000014_Node000011"><a xlink:title=" ">
<path fill="none" stroke="#63b8ff" d="M605.62,-104.91C576.48,-94.77 536.15,-80.75 511.67,-72.24"/>
<polygon fill="#63b8ff" stroke="#63b8ff" points="604.17,-108.11 614.76,-108.08 606.46,-101.49 604.17,-108.11"/>
</a>
</g>
</g>
<!-- Node15 -->
<g id="Node000015" class="node">
<title>Node15</title>
<g id="a_Node000015"><a xlink:href="a01412.html" target="_top" xlink:title=" ">
<polygon fill="white" stroke="#666666" points="846.88,-73 745.38,-73 745.38,-54.5 846.88,-54.5 846.88,-73"/>
<text text-anchor="middle" x="796.12" y="-59.5" font-family="Helvetica,sans-Serif" font-size="10.00">arax_data_private.h</text>
</a>
</g>
</g>
<!-- Node14&#45;&gt;Node15 -->
<g id="edge15_Node000014_Node000015" class="edge">
<title>Node14&#45;&gt;Node15</title>
<g id="a_edge15_Node000014_Node000015"><a xlink:title=" ">
<path fill="none" stroke="#63b8ff" d="M677.49,-104.93C706.05,-95.26 745.12,-82.02 770.49,-73.43"/>
<polygon fill="#63b8ff" stroke="#63b8ff" points="676.5,-101.57 668.15,-108.1 678.75,-108.2 676.5,-101.57"/>
</a>
</g>
</g>
<!-- Node15&#45;&gt;Node4 -->
<g id="edge16_Node000015_Node000004" class="edge">
<title>Node15&#45;&gt;Node4</title>
<g id="a_edge16_Node000015_Node000004"><a xlink:title=" ">
<path fill="none" stroke="#63b8ff" d="M773.61,-47.79C759.56,-38.45 741.97,-26.76 730.19,-18.93"/>
<polygon fill="#63b8ff" stroke="#63b8ff" points="771.55,-50.62 781.82,-53.24 775.43,-44.79 771.55,-50.62"/>
</a>
</g>
</g>
</g>
</svg>
