<?xml version="1.0" encoding="UTF-8" standalone="no"?>
<!DOCTYPE svg PUBLIC "-//W3C//DTD SVG 1.1//EN"
 "http://www.w3.org/Graphics/SVG/1.1/DTD/svg11.dtd">
<!-- Generated by graphviz version 12.2.1 (0)
 -->
<!-- Title: system.h Pages: 1 -->
<svg width="372pt" height="81pt"
 viewBox="0.00 0.00 371.50 81.00" xmlns="http://www.w3.org/2000/svg" xmlns:xlink="http://www.w3.org/1999/xlink">
<g id="graph0" class="graph" transform="scale(1 1) rotate(0) translate(4 77)">
<title>system.h</title>
<!-- Node1 -->
<g id="Node000001" class="node">
<title>Node1</title>
<g id="a_Node000001"><a xlink:title=" ">
<polygon fill="#999999" stroke="#666666" points="232.5,-73 177.5,-73 177.5,-54.5 232.5,-54.5 232.5,-73"/>
<text text-anchor="middle" x="205" y="-59.5" font-family="Helvetica,sans-Serif" font-size="10.00">system.h</text>
</a>
</g>
</g>
<!-- Node2 -->
<g id="Node000002" class="node">
<title>Node2</title>
<g id="a_Node000002"><a xlink:href="a01967.html" target="_top" xlink:title=" ">
<polygon fill="white" stroke="#666666" points="76,-18.5 0,-18.5 0,0 76,0 76,-18.5"/>
<text text-anchor="middle" x="38" y="-5" font-family="Helvetica,sans-Serif" font-size="10.00">arax_assert.c</text>
</a>
</g>
</g>
<!-- Node1&#45;&gt;Node2 -->
<g id="edge1_Node000001_Node000002" class="edge">
<title>Node1&#45;&gt;Node2</title>
<g id="a_edge1_Node000001_Node000002"><a xlink:title=" ">
<path fill="none" stroke="#63b8ff" d="M166.64,-50.69C135.79,-40.99 93.19,-27.6 65.62,-18.93"/>
<polygon fill="#63b8ff" stroke="#63b8ff" points="165.39,-53.97 175.98,-53.63 167.49,-47.29 165.39,-53.97"/>
</a>
</g>
</g>
<!-- Node3 -->
<g id="Node000003" class="node">
<title>Node3</title>
<g id="a_Node000003"><a xlink:href="a01922.html" target="_top" xlink:title=" ">
<polygon fill="white" stroke="#666666" points="161.88,-18.5 94.12,-18.5 94.12,0 161.88,0 161.88,-18.5"/>
<text text-anchor="middle" x="128" y="-5" font-family="Helvetica,sans-Serif" font-size="10.00">arax_data.c</text>
</a>
</g>
</g>
<!-- Node1&#45;&gt;Node3 -->
<g id="edge2_Node000001_Node000003" class="edge">
<title>Node1&#45;&gt;Node3</title>
<g id="a_edge2_Node000001_Node000003"><a xlink:title=" ">
<path fill="none" stroke="#63b8ff" d="M183.06,-47.79C169.36,-38.45 152.22,-26.76 140.73,-18.93"/>
<polygon fill="#63b8ff" stroke="#63b8ff" points="180.8,-50.49 191.03,-53.23 184.74,-44.7 180.8,-50.49"/>
</a>
</g>
</g>
<!-- Node4 -->
<g id="Node000004" class="node">
<title>Node4</title>
<g id="a_Node000004"><a xlink:href="a01952.html" target="_top" xlink:title=" ">
<polygon fill="white" stroke="#666666" points="230.25,-18.5 179.75,-18.5 179.75,0 230.25,0 230.25,-18.5"/>
<text text-anchor="middle" x="205" y="-5" font-family="Helvetica,sans-Serif" font-size="10.00">config.c</text>
</a>
</g>
</g>
<!-- Node1&#45;&gt;Node4 -->
<g id="edge3_Node000001_Node000004" class="edge">
<title>Node1&#45;&gt;Node4</title>
<g id="a_edge3_Node000001_Node000004"><a xlink:title=" ">
<path fill="none" stroke="#63b8ff" d="M205,-42.64C205,-34.36 205,-25.21 205,-18.76"/>
<polygon fill="#63b8ff" stroke="#63b8ff" points="201.5,-42.57 205,-52.57 208.5,-42.57 201.5,-42.57"/>
</a>
</g>
</g>
<!-- Node5 -->
<g id="Node000005" class="node">
<title>Node5</title>
<g id="a_Node000005"><a xlink:href="a01910.html" target="_top" xlink:title=" ">
<polygon fill="white" stroke="#666666" points="290.12,-18.5 247.88,-18.5 247.88,0 290.12,0 290.12,-18.5"/>
<text text-anchor="middle" x="269" y="-5" font-family="Helvetica,sans-Serif" font-size="10.00">impl.c</text>
</a>
</g>
</g>
<!-- Node1&#45;&gt;Node5 -->
<g id="edge4_Node000001_Node000005" class="edge">
<title>Node1&#45;&gt;Node5</title>
<g id="a_edge4_Node000001_Node000005"><a xlink:title=" ">
<path fill="none" stroke="#63b8ff" d="M224.3,-46.92C235.58,-37.67 249.37,-26.35 258.63,-18.76"/>
<polygon fill="#63b8ff" stroke="#63b8ff" points="222.25,-44.07 216.74,-53.12 226.69,-49.48 222.25,-44.07"/>
</a>
</g>
</g>
<!-- Node6 -->
<g id="Node000006" class="node">
<title>Node6</title>
<g id="a_Node000006"><a xlink:href="a01961.html" target="_top" xlink:title=" ">
<polygon fill="white" stroke="#666666" points="363.5,-18.5 308.5,-18.5 308.5,0 363.5,0 363.5,-18.5"/>
<text text-anchor="middle" x="336" y="-5" font-family="Helvetica,sans-Serif" font-size="10.00">system.c</text>
</a>
</g>
</g>
<!-- Node1&#45;&gt;Node6 -->
<g id="edge5_Node000001_Node000006" class="edge">
<title>Node1&#45;&gt;Node6</title>
<g id="a_edge5_Node000001_Node000006"><a xlink:title=" ">
<path fill="none" stroke="#63b8ff" d="M237.02,-49.92C261.04,-40.29 293.28,-27.37 314.34,-18.93"/>
<polygon fill="#63b8ff" stroke="#63b8ff" points="236.02,-46.55 228.04,-53.52 238.62,-53.05 236.02,-46.55"/>
</a>
</g>
</g>
</g>
</svg>
