<?xml version="1.0" encoding="UTF-8" standalone="no"?>
<!DOCTYPE svg PUBLIC "-//W3C//DTD SVG 1.1//EN"
 "http://www.w3.org/Graphics/SVG/1.1/DTD/svg11.dtd">
<!-- Generated by graphviz version 8.0.5 (0)
 -->
<!-- Title: arax_pipe_get_orphan_vaccel Pages: 1 -->
<svg width="451pt" height="185pt"
 viewBox="0.00 0.00 451.25 184.75" xmlns="http://www.w3.org/2000/svg" xmlns:xlink="http://www.w3.org/1999/xlink">
<g id="graph0" class="graph" transform="scale(1 1) rotate(0) translate(4 180.75)">
<title>arax_pipe_get_orphan_vaccel</title>
<!-- Node1 -->
<g id="Node000001" class="node">
<title>Node1</title>
<g id="a_Node000001"><a xlink:title=" ">
<polygon fill="#999999" stroke="#666666" points="112.75,-97.75 0,-97.75 0,-68.75 112.75,-68.75 112.75,-97.75"/>
<text text-anchor="start" x="8" y="-84.25" font-family="Helvetica,sans-Serif" font-size="10.00">arax_pipe_get_orphan</text>
<text text-anchor="middle" x="56.38" y="-73.75" font-family="Helvetica,sans-Serif" font-size="10.00">_vaccel</text>
</a>
</g>
</g>
<!-- Node2 -->
<g id="Node000002" class="node">
<title>Node2</title>
<g id="a_Node000002"><a xlink:href="a01913.html#a186712b2a923d4bda1be98de189bc0f9" target="_top" xlink:title=" ">
<polygon fill="white" stroke="#666666" points="268.25,-176.75 148.75,-176.75 148.75,-147.75 268.25,-147.75 268.25,-176.75"/>
<text text-anchor="start" x="156.75" y="-163.25" font-family="Helvetica,sans-Serif" font-size="10.00">arax_pipe_have_orphan</text>
<text text-anchor="middle" x="208.5" y="-152.75" font-family="Helvetica,sans-Serif" font-size="10.00">_vaccels</text>
</a>
</g>
</g>
<!-- Node1&#45;&gt;Node2 -->
<g id="edge1_Node000001_Node000002" class="edge">
<title>Node1&#45;&gt;Node2</title>
<g id="a_edge1_Node000001_Node000002"><a xlink:title=" ">
<path fill="none" stroke="#63b8ff" d="M79.73,-98.04C97.9,-109.73 124.42,-126.05 148.75,-138.25 151.9,-139.83 155.18,-141.39 158.51,-142.91"/>
<polygon fill="#63b8ff" stroke="#63b8ff" points="157,-146.51 167.57,-147.33 159.82,-140.1 157,-146.51"/>
</a>
</g>
</g>
<!-- Node3 -->
<g id="Node000003" class="node">
<title>Node3</title>
<g id="a_Node000003"><a xlink:href="a02352.html#aed6af4d83e934e3e654ead541b15f2d9" target="_top" xlink:title=" ">
<polygon fill="white" stroke="#666666" points="263,-129.5 154,-129.5 154,-111 263,-111 263,-129.5"/>
<text text-anchor="middle" x="208.5" y="-116" font-family="Helvetica,sans-Serif" font-size="10.00">async_condition_lock</text>
</a>
</g>
</g>
<!-- Node1&#45;&gt;Node3 -->
<g id="edge2_Node000001_Node000003" class="edge">
<title>Node1&#45;&gt;Node3</title>
<g id="a_edge2_Node000001_Node000003"><a xlink:title=" ">
<path fill="none" stroke="#63b8ff" d="M112.85,-96.92C127.49,-100.53 143.2,-104.4 157.54,-107.94"/>
<polygon fill="#63b8ff" stroke="#63b8ff" points="156.64,-111.57 167.19,-110.56 158.32,-104.77 156.64,-111.57"/>
</a>
</g>
</g>
<!-- Node5 -->
<g id="Node000005" class="node">
<title>Node5</title>
<g id="a_Node000005"><a xlink:href="a02352.html#a3bbcb7c4c024e99d5c4ba52b61dfbbf7" target="_top" xlink:title=" ">
<polygon fill="white" stroke="#666666" points="268.25,-55.5 148.75,-55.5 148.75,-37 268.25,-37 268.25,-55.5"/>
<text text-anchor="middle" x="208.5" y="-42" font-family="Helvetica,sans-Serif" font-size="10.00">async_condition_unlock</text>
</a>
</g>
</g>
<!-- Node1&#45;&gt;Node5 -->
<g id="edge4_Node000001_Node000005" class="edge">
<title>Node1&#45;&gt;Node5</title>
<g id="a_edge4_Node000001_Node000005"><a xlink:title=" ">
<path fill="none" stroke="#63b8ff" d="M112.85,-69.58C127.49,-65.97 143.2,-62.1 157.54,-58.56"/>
<polygon fill="#63b8ff" stroke="#63b8ff" points="158.32,-61.73 167.19,-55.94 156.64,-54.93 158.32,-61.73"/>
</a>
</g>
</g>
<!-- Node7 -->
<g id="Node000007" class="node">
<title>Node7</title>
<g id="a_Node000007"><a xlink:href="a02352.html#a1bfeaeb9b81855e640d7a67cc9d92b17" target="_top" xlink:title=" ">
<polygon fill="white" stroke="#666666" points="262.62,-92.5 154.38,-92.5 154.38,-74 262.62,-74 262.62,-92.5"/>
<text text-anchor="middle" x="208.5" y="-79" font-family="Helvetica,sans-Serif" font-size="10.00">async_condition_wait</text>
</a>
</g>
</g>
<!-- Node1&#45;&gt;Node7 -->
<g id="edge6_Node000001_Node000007" class="edge">
<title>Node1&#45;&gt;Node7</title>
<g id="a_edge6_Node000001_Node000007"><a xlink:title=" ">
<path fill="none" stroke="#63b8ff" d="M112.85,-83.25C122.79,-83.25 133.22,-83.25 143.37,-83.25"/>
<polygon fill="#63b8ff" stroke="#63b8ff" points="143.25,-86.75 153.25,-83.25 143.25,-79.75 143.25,-86.75"/>
</a>
</g>
</g>
<!-- Node9 -->
<g id="Node000009" class="node">
<title>Node9</title>
<g id="a_Node000009"><a xlink:href="a01946.html#a4cace11e17315f11b44dd9e3eabbf72a" target="_top" xlink:title=" ">
<polygon fill="white" stroke="#666666" points="258.12,-18.5 158.88,-18.5 158.88,0 258.12,0 258.12,-18.5"/>
<text text-anchor="middle" x="208.5" y="-5" font-family="Helvetica,sans-Serif" font-size="10.00">utils_list_pop_head</text>
</a>
</g>
</g>
<!-- Node1&#45;&gt;Node9 -->
<g id="edge10_Node000001_Node000009" class="edge">
<title>Node1&#45;&gt;Node9</title>
<g id="a_edge10_Node000001_Node000009"><a xlink:title=" ">
<path fill="none" stroke="#63b8ff" d="M78.76,-68.45C96.81,-56.44 123.64,-39.68 148.75,-28.25 153.33,-26.17 158.2,-24.21 163.1,-22.4"/>
<polygon fill="#63b8ff" stroke="#63b8ff" points="163.84,-25.5 172.13,-18.91 161.54,-18.89 163.84,-25.5"/>
</a>
</g>
</g>
<!-- Node4 -->
<g id="Node000004" class="node">
<title>Node4</title>
<g id="a_Node000004"><a xlink:href="a02346.html#aebf9e72bb6cbd8b9e33489d46c25075d" target="_top" xlink:title=" ">
<polygon fill="white" stroke="#666666" points="432,-129.5 315.5,-129.5 315.5,-111 432,-111 432,-129.5"/>
<text text-anchor="middle" x="373.75" y="-116" font-family="Helvetica,sans-Serif" font-size="10.00">async_completion_wait</text>
</a>
</g>
</g>
<!-- Node3&#45;&gt;Node4 -->
<g id="edge3_Node000003_Node000004" class="edge">
<title>Node3&#45;&gt;Node4</title>
<g id="a_edge3_Node000003_Node000004"><a xlink:title=" ">
<path fill="none" stroke="#63b8ff" d="M263.41,-120.25C276.52,-120.25 290.73,-120.25 304.41,-120.25"/>
<polygon fill="#63b8ff" stroke="#63b8ff" points="304.25,-123.75 314.25,-120.25 304.25,-116.75 304.25,-123.75"/>
</a>
</g>
</g>
<!-- Node6 -->
<g id="Node000006" class="node">
<title>Node6</title>
<g id="a_Node000006"><a xlink:href="a02346.html#ad1d30ecbf6bff6457b680aa940281072" target="_top" xlink:title=" ">
<polygon fill="white" stroke="#666666" points="443.25,-55.5 304.25,-55.5 304.25,-37 443.25,-37 443.25,-55.5"/>
<text text-anchor="middle" x="373.75" y="-42" font-family="Helvetica,sans-Serif" font-size="10.00">async_completion_complete</text>
</a>
</g>
</g>
<!-- Node5&#45;&gt;Node6 -->
<g id="edge5_Node000005_Node000006" class="edge">
<title>Node5&#45;&gt;Node6</title>
<g id="a_edge5_Node000005_Node000006"><a xlink:title=" ">
<path fill="none" stroke="#63b8ff" d="M268.44,-46.25C276.44,-46.25 284.76,-46.25 293.05,-46.25"/>
<polygon fill="#63b8ff" stroke="#63b8ff" points="292.9,-49.75 302.9,-46.25 292.9,-42.75 292.9,-49.75"/>
</a>
</g>
</g>
<!-- Node7&#45;&gt;Node4 -->
<g id="edge8_Node000007_Node000004" class="edge">
<title>Node7&#45;&gt;Node4</title>
<g id="a_edge8_Node000007_Node000004"><a xlink:title=" ">
<path fill="none" stroke="#63b8ff" d="M252.39,-92.97C272.84,-97.61 297.51,-103.2 319.17,-108.11"/>
<polygon fill="#63b8ff" stroke="#63b8ff" points="318.34,-111.73 328.86,-110.53 319.88,-104.91 318.34,-111.73"/>
</a>
</g>
</g>
<!-- Node7&#45;&gt;Node6 -->
<g id="edge7_Node000007_Node000006" class="edge">
<title>Node7&#45;&gt;Node6</title>
<g id="a_edge7_Node000007_Node000006"><a xlink:title=" ">
<path fill="none" stroke="#63b8ff" d="M252.39,-73.53C272.84,-68.89 297.51,-63.3 319.17,-58.39"/>
<polygon fill="#63b8ff" stroke="#63b8ff" points="319.88,-61.59 328.86,-55.97 318.34,-54.77 319.88,-61.59"/>
</a>
</g>
</g>
<!-- Node8 -->
<g id="Node000008" class="node">
<title>Node8</title>
<g id="a_Node000008"><a xlink:href="a02346.html#a7ab7c7fe9cb93434dde72a4e464a7e69" target="_top" xlink:title=" ">
<polygon fill="white" stroke="#666666" points="431.62,-92.5 315.88,-92.5 315.88,-74 431.62,-74 431.62,-92.5"/>
<text text-anchor="middle" x="373.75" y="-79" font-family="Helvetica,sans-Serif" font-size="10.00">async_semaphore_dec</text>
</a>
</g>
</g>
<!-- Node7&#45;&gt;Node8 -->
<g id="edge9_Node000007_Node000008" class="edge">
<title>Node7&#45;&gt;Node8</title>
<g id="a_edge9_Node000007_Node000008"><a xlink:title=" ">
<path fill="none" stroke="#63b8ff" d="M262.95,-83.25C276.23,-83.25 290.65,-83.25 304.53,-83.25"/>
<polygon fill="#63b8ff" stroke="#63b8ff" points="304.52,-86.75 314.52,-83.25 304.52,-79.75 304.52,-86.75"/>
</a>
</g>
</g>
<!-- Node10 -->
<g id="Node000010" class="node">
<title>Node10</title>
<g id="a_Node000010"><a xlink:href="a01946.html#a0c85e5516222ab7e7fc354c614760ec5" target="_top" xlink:title=" ">
<polygon fill="white" stroke="#666666" points="408.75,-18.5 338.75,-18.5 338.75,0 408.75,0 408.75,-18.5"/>
<text text-anchor="middle" x="373.75" y="-5" font-family="Helvetica,sans-Serif" font-size="10.00">utils_list_del</text>
</a>
</g>
</g>
<!-- Node9&#45;&gt;Node10 -->
<g id="edge11_Node000009_Node000010" class="edge">
<title>Node9&#45;&gt;Node10</title>
<g id="a_edge11_Node000009_Node000010"><a xlink:title=" ">
<path fill="none" stroke="#63b8ff" d="M258.48,-9.25C280.39,-9.25 306.07,-9.25 327.52,-9.25"/>
<polygon fill="#63b8ff" stroke="#63b8ff" points="327.31,-12.75 337.31,-9.25 327.31,-5.75 327.31,-12.75"/>
</a>
</g>
</g>
</g>
</svg>
