<?xml version="1.0" encoding="UTF-8" standalone="no"?>
<!DOCTYPE svg PUBLIC "-//W3C//DTD SVG 1.1//EN"
 "http://www.w3.org/Graphics/SVG/1.1/DTD/svg11.dtd">
<!-- Generated by graphviz version 12.2.1 (0)
 -->
<!-- Title: arax.h Pages: 1 -->
<svg width="301pt" height="190pt"
 viewBox="0.00 0.00 301.25 190.00" xmlns="http://www.w3.org/2000/svg" xmlns:xlink="http://www.w3.org/1999/xlink">
<g id="graph0" class="graph" transform="scale(1 1) rotate(0) translate(4 186)">
<title>arax.h</title>
<!-- Node1 -->
<g id="Node000001" class="node">
<title>Node1</title>
<g id="a_Node000001"><a xlink:title=" ">
<polygon fill="#999999" stroke="#666666" points="136.12,-182 93.12,-182 93.12,-163.5 136.12,-163.5 136.12,-182"/>
<text text-anchor="middle" x="114.62" y="-168.5" font-family="Helvetica,sans-Serif" font-size="10.00">arax.h</text>
</a>
</g>
</g>
<!-- Node2 -->
<g id="Node000002" class="node">
<title>Node2</title>
<g id="a_Node000002"><a xlink:title=" ">
<polygon fill="#e0e0e0" stroke="#999999" points="45.25,-127.5 0,-127.5 0,-109 45.25,-109 45.25,-127.5"/>
<text text-anchor="middle" x="22.62" y="-114" font-family="Helvetica,sans-Serif" font-size="10.00">stdio.h</text>
</a>
</g>
</g>
<!-- Node1&#45;&gt;Node2 -->
<g id="edge1_Node000001_Node000002" class="edge">
<title>Node1&#45;&gt;Node2</title>
<g id="a_edge1_Node000001_Node000002"><a xlink:title=" ">
<path fill="none" stroke="#63b8ff" d="M99.43,-163.08C85.32,-155.03 64.04,-142.88 47.45,-133.42"/>
<polygon fill="#63b8ff" stroke="#63b8ff" points="49.57,-130.6 39.15,-128.68 46.1,-136.68 49.57,-130.6"/>
</a>
</g>
</g>
<!-- Node3 -->
<g id="Node000003" class="node">
<title>Node3</title>
<g id="a_Node000003"><a xlink:title=" ">
<polygon fill="#e0e0e0" stroke="#999999" points="113.88,-127.5 63.38,-127.5 63.38,-109 113.88,-109 113.88,-127.5"/>
<text text-anchor="middle" x="88.62" y="-114" font-family="Helvetica,sans-Serif" font-size="10.00">stddef.h</text>
</a>
</g>
</g>
<!-- Node1&#45;&gt;Node3 -->
<g id="edge2_Node000001_Node000003" class="edge">
<title>Node1&#45;&gt;Node3</title>
<g id="a_edge2_Node000001_Node000003"><a xlink:title=" ">
<path fill="none" stroke="#63b8ff" d="M110.33,-163.08C106.96,-156.28 102.15,-146.56 97.91,-138"/>
<polygon fill="#63b8ff" stroke="#63b8ff" points="101.08,-136.52 93.51,-129.11 94.81,-139.63 101.08,-136.52"/>
</a>
</g>
</g>
<!-- Node4 -->
<g id="Node000004" class="node">
<title>Node4</title>
<g id="a_Node000004"><a xlink:href="a01361.html" target="_top" xlink:title=" ">
<polygon fill="white" stroke="#666666" points="223.12,-73 150.12,-73 150.12,-54.5 223.12,-54.5 223.12,-73"/>
<text text-anchor="middle" x="186.62" y="-59.5" font-family="Helvetica,sans-Serif" font-size="10.00">arax_types.h</text>
</a>
</g>
</g>
<!-- Node1&#45;&gt;Node4 -->
<g id="edge3_Node000001_Node000004" class="edge">
<title>Node1&#45;&gt;Node4</title>
<g id="a_edge3_Node000001_Node000004"><a xlink:title=" ">
<path fill="none" stroke="#63b8ff" d="M120.27,-163.35C131.89,-146.09 158.68,-106.29 174.43,-82.87"/>
<polygon fill="#63b8ff" stroke="#63b8ff" points="177.28,-84.91 179.96,-74.66 171.47,-81 177.28,-84.91"/>
</a>
</g>
</g>
<!-- Node7 -->
<g id="Node000007" class="node">
<title>Node7</title>
<g id="a_Node000007"><a xlink:href="a01406.html" target="_top" xlink:title=" ">
<polygon fill="white" stroke="#666666" points="293.25,-127.5 170,-127.5 170,-109 293.25,-109 293.25,-127.5"/>
<text text-anchor="middle" x="231.62" y="-114" font-family="Helvetica,sans-Serif" font-size="10.00">core/arax_accel_types.h</text>
</a>
</g>
</g>
<!-- Node1&#45;&gt;Node7 -->
<g id="edge6_Node000001_Node000007" class="edge">
<title>Node1&#45;&gt;Node7</title>
<g id="a_edge6_Node000001_Node000007"><a xlink:title=" ">
<path fill="none" stroke="#63b8ff" d="M133.95,-163.08C152.41,-154.8 180.5,-142.19 201.83,-132.62"/>
<polygon fill="#63b8ff" stroke="#63b8ff" points="203.2,-135.84 210.9,-128.55 200.34,-129.45 203.2,-135.84"/>
</a>
</g>
</g>
<!-- Node5 -->
<g id="Node000005" class="node">
<title>Node5</title>
<g id="a_Node000005"><a xlink:title=" ">
<polygon fill="#e0e0e0" stroke="#999999" points="181.75,-18.5 121.5,-18.5 121.5,0 181.75,0 181.75,-18.5"/>
<text text-anchor="middle" x="151.62" y="-5" font-family="Helvetica,sans-Serif" font-size="10.00">sys/time.h</text>
</a>
</g>
</g>
<!-- Node4&#45;&gt;Node5 -->
<g id="edge4_Node000004_Node000005" class="edge">
<title>Node4&#45;&gt;Node5</title>
<g id="a_edge4_Node000004_Node000005"><a xlink:title=" ">
<path fill="none" stroke="#63b8ff" d="M180.85,-54.08C176.16,-47.05 169.39,-36.9 163.55,-28.14"/>
<polygon fill="#63b8ff" stroke="#63b8ff" points="166.6,-26.4 158.14,-20.02 160.77,-30.28 166.6,-26.4"/>
</a>
</g>
</g>
<!-- Node6 -->
<g id="Node000006" class="node">
<title>Node6</title>
<g id="a_Node000006"><a xlink:title=" ">
<polygon fill="#e0e0e0" stroke="#999999" points="243.12,-18.5 200.12,-18.5 200.12,0 243.12,0 243.12,-18.5"/>
<text text-anchor="middle" x="221.62" y="-5" font-family="Helvetica,sans-Serif" font-size="10.00">time.h</text>
</a>
</g>
</g>
<!-- Node4&#45;&gt;Node6 -->
<g id="edge5_Node000004_Node000006" class="edge">
<title>Node4&#45;&gt;Node6</title>
<g id="a_edge5_Node000004_Node000006"><a xlink:title=" ">
<path fill="none" stroke="#63b8ff" d="M192.4,-54.08C197.09,-47.05 203.86,-36.9 209.7,-28.14"/>
<polygon fill="#63b8ff" stroke="#63b8ff" points="212.48,-30.28 215.11,-20.02 206.65,-26.4 212.48,-30.28"/>
</a>
</g>
</g>
<!-- Node7&#45;&gt;Node4 -->
<g id="edge7_Node000007_Node000004" class="edge">
<title>Node7&#45;&gt;Node4</title>
<g id="a_edge7_Node000007_Node000004"><a xlink:title=" ">
<path fill="none" stroke="#63b8ff" d="M224.19,-108.58C217.97,-101.32 208.9,-90.73 201.22,-81.78"/>
<polygon fill="#63b8ff" stroke="#63b8ff" points="204.07,-79.72 194.9,-74.41 198.75,-84.28 204.07,-79.72"/>
</a>
</g>
</g>
</g>
</svg>
