<?xml version="1.0" encoding="UTF-8" standalone="no"?>
<!DOCTYPE svg PUBLIC "-//W3C//DTD SVG 1.1//EN"
 "http://www.w3.org/Graphics/SVG/1.1/DTD/svg11.dtd">
<!-- Generated by graphviz version 8.0.5 (0)
 -->
<!-- Title: arax_data.h Pages: 1 -->
<svg width="371pt" height="136pt"
 viewBox="0.00 0.00 371.00 135.50" xmlns="http://www.w3.org/2000/svg" xmlns:xlink="http://www.w3.org/1999/xlink">
<g id="graph0" class="graph" transform="scale(1 1) rotate(0) translate(4 131.5)">
<title>arax_data.h</title>
<!-- Node1 -->
<g id="Node000001" class="node">
<title>Node1</title>
<g id="a_Node000001"><a xlink:title=" ">
<polygon fill="#999999" stroke="#666666" points="213.75,-127.5 146,-127.5 146,-109 213.75,-109 213.75,-127.5"/>
<text text-anchor="middle" x="179.88" y="-114" font-family="Helvetica,sans-Serif" font-size="10.00">arax_data.h</text>
</a>
</g>
</g>
<!-- Node2 -->
<g id="Node000002" class="node">
<title>Node2</title>
<g id="a_Node000002"><a xlink:href="a01931.html" target="_top" xlink:title=" ">
<polygon fill="white" stroke="#666666" points="67.75,-18.5 0,-18.5 0,0 67.75,0 67.75,-18.5"/>
<text text-anchor="middle" x="33.88" y="-5" font-family="Helvetica,sans-Serif" font-size="10.00">arax_data.c</text>
</a>
</g>
</g>
<!-- Node1&#45;&gt;Node2 -->
<g id="edge1_Node000001_Node000002" class="edge">
<title>Node1&#45;&gt;Node2</title>
<g id="a_edge1_Node000001_Node000002"><a xlink:title=" ">
<path fill="none" stroke="#63b8ff" d="M134.95,-111.46C91,-104.76 28.58,-92.13 13.88,-73 1.2,-56.5 16.65,-31.74 26.65,-18.81"/>
<polygon fill="#63b8ff" stroke="#63b8ff" points="134.28,-115.04 144.69,-113.03 135.3,-108.12 134.28,-115.04"/>
</a>
</g>
</g>
<!-- Node3 -->
<g id="Node000003" class="node">
<title>Node3</title>
<g id="a_Node000003"><a xlink:href="a01400.html" target="_top" xlink:title=" ">
<polygon fill="white" stroke="#666666" points="124.62,-73 23.12,-73 23.12,-54.5 124.62,-54.5 124.62,-73"/>
<text text-anchor="middle" x="73.88" y="-59.5" font-family="Helvetica,sans-Serif" font-size="10.00">arax_data_private.h</text>
</a>
</g>
</g>
<!-- Node1&#45;&gt;Node3 -->
<g id="edge2_Node000001_Node000003" class="edge">
<title>Node1&#45;&gt;Node3</title>
<g id="a_edge2_Node000001_Node000003"><a xlink:title=" ">
<path fill="none" stroke="#63b8ff" d="M152.64,-103.76C133.36,-94.21 108.06,-81.68 91.4,-73.43"/>
<polygon fill="#63b8ff" stroke="#63b8ff" points="150.86,-107.28 161.37,-108.58 153.96,-101.01 150.86,-107.28"/>
</a>
</g>
</g>
<!-- Node4 -->
<g id="Node000004" class="node">
<title>Node4</title>
<g id="a_Node000004"><a xlink:href="a01910.html" target="_top" xlink:title=" ">
<polygon fill="white" stroke="#666666" points="217.12,-73 142.62,-73 142.62,-54.5 217.12,-54.5 217.12,-73"/>
<text text-anchor="middle" x="179.88" y="-59.5" font-family="Helvetica,sans-Serif" font-size="10.00">arax_object.c</text>
</a>
</g>
</g>
<!-- Node1&#45;&gt;Node4 -->
<g id="edge4_Node000001_Node000004" class="edge">
<title>Node1&#45;&gt;Node4</title>
<g id="a_edge4_Node000001_Node000004"><a xlink:title=" ">
<path fill="none" stroke="#63b8ff" d="M179.88,-97.72C179.88,-89.29 179.88,-79.86 179.88,-73.26"/>
<polygon fill="#63b8ff" stroke="#63b8ff" points="176.38,-97.58 179.88,-107.58 183.38,-97.58 176.38,-97.58"/>
</a>
</g>
</g>
<!-- Node5 -->
<g id="Node000005" class="node">
<title>Node5</title>
<g id="a_Node000005"><a xlink:href="a01922.html" target="_top" xlink:title=" ">
<polygon fill="white" stroke="#666666" points="302.75,-73 235,-73 235,-54.5 302.75,-54.5 302.75,-73"/>
<text text-anchor="middle" x="268.88" y="-59.5" font-family="Helvetica,sans-Serif" font-size="10.00">arax_task.c</text>
</a>
</g>
</g>
<!-- Node1&#45;&gt;Node5 -->
<g id="edge5_Node000001_Node000005" class="edge">
<title>Node1&#45;&gt;Node5</title>
<g id="a_edge5_Node000001_Node000005"><a xlink:title=" ">
<path fill="none" stroke="#63b8ff" d="M203.87,-103.1C219.91,-93.64 240.49,-81.49 254.16,-73.43"/>
<polygon fill="#63b8ff" stroke="#63b8ff" points="202.41,-100.49 195.57,-108.58 205.96,-106.51 202.41,-100.49"/>
</a>
</g>
</g>
<!-- Node6 -->
<g id="Node000006" class="node">
<title>Node6</title>
<g id="a_Node000006"><a xlink:href="a01898.html" target="_top" xlink:title=" ">
<polygon fill="white" stroke="#666666" points="363,-73 320.75,-73 320.75,-54.5 363,-54.5 363,-73"/>
<text text-anchor="middle" x="341.88" y="-59.5" font-family="Helvetica,sans-Serif" font-size="10.00">impl.c</text>
</a>
</g>
</g>
<!-- Node1&#45;&gt;Node6 -->
<g id="edge6_Node000001_Node000006" class="edge">
<title>Node1&#45;&gt;Node6</title>
<g id="a_edge6_Node000001_Node000006"><a xlink:title=" ">
<path fill="none" stroke="#63b8ff" d="M216.91,-105.25C248.86,-94.89 293.9,-80.3 320.27,-71.75"/>
<polygon fill="#63b8ff" stroke="#63b8ff" points="216.06,-102.17 207.63,-108.58 218.22,-108.83 216.06,-102.17"/>
</a>
</g>
</g>
<!-- Node3&#45;&gt;Node2 -->
<g id="edge3_Node000003_Node000002" class="edge">
<title>Node3&#45;&gt;Node2</title>
<g id="a_edge3_Node000003_Node000002"><a xlink:title=" ">
<path fill="none" stroke="#63b8ff" d="M60.75,-45.52C53.91,-36.54 45.85,-25.97 40.36,-18.76"/>
<polygon fill="#63b8ff" stroke="#63b8ff" points="58.43,-47.25 67.27,-53.08 63.99,-43.01 58.43,-47.25"/>
</a>
</g>
</g>
</g>
</svg>
