<?xml version="1.0" encoding="UTF-8" standalone="no"?>
<!DOCTYPE svg PUBLIC "-//W3C//DTD SVG 1.1//EN"
 "http://www.w3.org/Graphics/SVG/1.1/DTD/svg11.dtd">
<!-- Generated by graphviz version 12.2.1 (0)
 -->
<!-- Title: arax_pipe_remove_orphan_vaccel Pages: 1 -->
<svg width="469pt" height="138pt"
 viewBox="0.00 0.00 469.25 137.50" xmlns="http://www.w3.org/2000/svg" xmlns:xlink="http://www.w3.org/1999/xlink">
<g id="graph0" class="graph" transform="scale(1 1) rotate(0) translate(4 133.5)">
<title>arax_pipe_remove_orphan_vaccel</title>
<!-- Node1 -->
<g id="Node000001" class="node">
<title>Node1</title>
<g id="a_Node000001"><a xlink:title=" ">
<polygon fill="#999999" stroke="#666666" points="130.75,-78.75 0,-78.75 0,-49.75 130.75,-49.75 130.75,-78.75"/>
<text text-anchor="start" x="8" y="-65.25" font-family="Helvetica,sans-Serif" font-size="10.00">arax_pipe_remove_orphan</text>
<text text-anchor="middle" x="65.38" y="-54.75" font-family="Helvetica,sans-Serif" font-size="10.00">_vaccel</text>
</a>
</g>
</g>
<!-- Node2 -->
<g id="Node000002" class="node">
<title>Node2</title>
<g id="a_Node000002"><a xlink:href="a02364.html#aed6af4d83e934e3e654ead541b15f2d9" target="_top" xlink:title=" ">
<polygon fill="white" stroke="#666666" points="281,-129.5 172,-129.5 172,-111 281,-111 281,-129.5"/>
<text text-anchor="middle" x="226.5" y="-116" font-family="Helvetica,sans-Serif" font-size="10.00">async_condition_lock</text>
</a>
</g>
</g>
<!-- Node1&#45;&gt;Node2 -->
<g id="edge1_Node000001_Node000002" class="edge">
<title>Node1&#45;&gt;Node2</title>
<g id="a_edge1_Node000001_Node000002"><a xlink:title=" ">
<path fill="none" stroke="#63b8ff" d="M105.81,-79.21C124.26,-86.09 146.56,-94.27 166.75,-101.25 172.24,-103.15 178.05,-105.1 183.78,-106.99"/>
<polygon fill="#63b8ff" stroke="#63b8ff" points="182.59,-110.28 193.19,-110.05 184.76,-103.63 182.59,-110.28"/>
</a>
</g>
</g>
<!-- Node4 -->
<g id="Node000004" class="node">
<title>Node4</title>
<g id="a_Node000004"><a xlink:href="a02364.html#a3bbcb7c4c024e99d5c4ba52b61dfbbf7" target="_top" xlink:title=" ">
<polygon fill="white" stroke="#666666" points="286.25,-92.5 166.75,-92.5 166.75,-74 286.25,-74 286.25,-92.5"/>
<text text-anchor="middle" x="226.5" y="-79" font-family="Helvetica,sans-Serif" font-size="10.00">async_condition_unlock</text>
</a>
</g>
</g>
<!-- Node1&#45;&gt;Node4 -->
<g id="edge3_Node000001_Node000004" class="edge">
<title>Node1&#45;&gt;Node4</title>
<g id="a_edge3_Node000001_Node000004"><a xlink:title=" ">
<path fill="none" stroke="#63b8ff" d="M131.1,-71.98C139.05,-72.93 147.21,-73.9 155.24,-74.86"/>
<polygon fill="#63b8ff" stroke="#63b8ff" points="154.63,-78.31 164.97,-76.02 155.46,-71.36 154.63,-78.31"/>
</a>
</g>
</g>
<!-- Node6 -->
<g id="Node000006" class="node">
<title>Node6</title>
<g id="a_Node000006"><a xlink:href="a01955.html#a0c85e5516222ab7e7fc354c614760ec5" target="_top" xlink:title=" ">
<polygon fill="white" stroke="#666666" points="261.5,-55.5 191.5,-55.5 191.5,-37 261.5,-37 261.5,-55.5"/>
<text text-anchor="middle" x="226.5" y="-42" font-family="Helvetica,sans-Serif" font-size="10.00">utils_list_del</text>
</a>
</g>
</g>
<!-- Node1&#45;&gt;Node6 -->
<g id="edge5_Node000001_Node000006" class="edge">
<title>Node1&#45;&gt;Node6</title>
<g id="a_edge5_Node000001_Node000006"><a xlink:title=" ">
<path fill="none" stroke="#63b8ff" d="M131.1,-56.93C147.55,-55.07 164.89,-53.11 180.15,-51.38"/>
<polygon fill="#63b8ff" stroke="#63b8ff" points="180.32,-54.88 189.86,-50.28 179.53,-47.93 180.32,-54.88"/>
</a>
</g>
</g>
<!-- Node7 -->
<g id="Node000007" class="node">
<title>Node7</title>
<g id="a_Node000007"><a xlink:href="a01955.html#ab0c44e095ebfd8721de878c42abcbbdc" target="_top" xlink:title=" ">
<polygon fill="white" stroke="#666666" points="280.62,-18.5 172.38,-18.5 172.38,0 280.62,0 280.62,-18.5"/>
<text text-anchor="middle" x="226.5" y="-5" font-family="Helvetica,sans-Serif" font-size="10.00">utils_list_node_linked</text>
</a>
</g>
</g>
<!-- Node1&#45;&gt;Node7 -->
<g id="edge6_Node000001_Node000007" class="edge">
<title>Node1&#45;&gt;Node7</title>
<g id="a_edge6_Node000001_Node000007"><a xlink:title=" ">
<path fill="none" stroke="#63b8ff" d="M106.81,-49.42C125.07,-42.81 146.95,-35 166.75,-28.25 172.46,-26.3 178.49,-24.3 184.44,-22.35"/>
<polygon fill="#63b8ff" stroke="#63b8ff" points="185.08,-25.82 193.51,-19.4 182.92,-19.16 185.08,-25.82"/>
</a>
</g>
</g>
<!-- Node3 -->
<g id="Node000003" class="node">
<title>Node3</title>
<g id="a_Node000003"><a xlink:href="a02358.html#aebf9e72bb6cbd8b9e33489d46c25075d" target="_top" xlink:title=" ">
<polygon fill="white" stroke="#666666" points="450,-129.5 333.5,-129.5 333.5,-111 450,-111 450,-129.5"/>
<text text-anchor="middle" x="391.75" y="-116" font-family="Helvetica,sans-Serif" font-size="10.00">async_completion_wait</text>
</a>
</g>
</g>
<!-- Node2&#45;&gt;Node3 -->
<g id="edge2_Node000002_Node000003" class="edge">
<title>Node2&#45;&gt;Node3</title>
<g id="a_edge2_Node000002_Node000003"><a xlink:title=" ">
<path fill="none" stroke="#63b8ff" d="M281.41,-120.25C294.39,-120.25 308.44,-120.25 322.01,-120.25"/>
<polygon fill="#63b8ff" stroke="#63b8ff" points="321.74,-123.75 331.74,-120.25 321.74,-116.75 321.74,-123.75"/>
</a>
</g>
</g>
<!-- Node5 -->
<g id="Node000005" class="node">
<title>Node5</title>
<g id="a_Node000005"><a xlink:href="a02358.html#ad1d30ecbf6bff6457b680aa940281072" target="_top" xlink:title=" ">
<polygon fill="white" stroke="#666666" points="461.25,-92.5 322.25,-92.5 322.25,-74 461.25,-74 461.25,-92.5"/>
<text text-anchor="middle" x="391.75" y="-79" font-family="Helvetica,sans-Serif" font-size="10.00">async_completion_complete</text>
</a>
</g>
</g>
<!-- Node4&#45;&gt;Node5 -->
<g id="edge4_Node000004_Node000005" class="edge">
<title>Node4&#45;&gt;Node5</title>
<g id="a_edge4_Node000004_Node000005"><a xlink:title=" ">
<path fill="none" stroke="#63b8ff" d="M286.44,-83.25C294.26,-83.25 302.38,-83.25 310.49,-83.25"/>
<polygon fill="#63b8ff" stroke="#63b8ff" points="310.39,-86.75 320.39,-83.25 310.39,-79.75 310.39,-86.75"/>
</a>
</g>
</g>
</g>
</svg>
