<?xml version="1.0" encoding="UTF-8" standalone="no"?>
<!DOCTYPE svg PUBLIC "-//W3C//DTD SVG 1.1//EN"
 "http://www.w3.org/Graphics/SVG/1.1/DTD/svg11.dtd">
<!-- Generated by graphviz version 12.2.1 (0)
 -->
<!-- Title: queue.h Pages: 1 -->
<svg width="253pt" height="190pt"
 viewBox="0.00 0.00 252.75 190.00" xmlns="http://www.w3.org/2000/svg" xmlns:xlink="http://www.w3.org/1999/xlink">
<g id="graph0" class="graph" transform="scale(1 1) rotate(0) translate(4 186)">
<title>queue.h</title>
<!-- Node1 -->
<g id="Node000001" class="node">
<title>Node1</title>
<g id="a_Node000001"><a xlink:title=" ">
<polygon fill="#999999" stroke="#666666" points="127.5,-182 77,-182 77,-163.5 127.5,-163.5 127.5,-182"/>
<text text-anchor="middle" x="102.25" y="-168.5" font-family="Helvetica,sans-Serif" font-size="10.00">queue.h</text>
</a>
</g>
</g>
<!-- Node2 -->
<g id="Node000002" class="node">
<title>Node2</title>
<g id="a_Node000002"><a xlink:title=" ">
<polygon fill="#e0e0e0" stroke="#999999" points="50.5,-127.5 0,-127.5 0,-109 50.5,-109 50.5,-127.5"/>
<text text-anchor="middle" x="25.25" y="-114" font-family="Helvetica,sans-Serif" font-size="10.00">stddef.h</text>
</a>
</g>
</g>
<!-- Node1&#45;&gt;Node2 -->
<g id="edge1_Node000001_Node000002" class="edge">
<title>Node1&#45;&gt;Node2</title>
<g id="a_edge1_Node000001_Node000002"><a xlink:title=" ">
<path fill="none" stroke="#63b8ff" d="M89.54,-163.08C78.05,-155.25 60.91,-143.57 47.22,-134.23"/>
<polygon fill="#63b8ff" stroke="#63b8ff" points="49.47,-131.53 39.23,-128.78 45.52,-137.31 49.47,-131.53"/>
</a>
</g>
</g>
<!-- Node3 -->
<g id="Node000003" class="node">
<title>Node3</title>
<g id="a_Node000003"><a xlink:title=" ">
<polygon fill="#e0e0e0" stroke="#999999" points="116,-73 68.5,-73 68.5,-54.5 116,-54.5 116,-73"/>
<text text-anchor="middle" x="92.25" y="-59.5" font-family="Helvetica,sans-Serif" font-size="10.00">stdint.h</text>
</a>
</g>
</g>
<!-- Node1&#45;&gt;Node3 -->
<g id="edge2_Node000001_Node000003" class="edge">
<title>Node1&#45;&gt;Node3</title>
<g id="a_edge2_Node000001_Node000003"><a xlink:title=" ">
<path fill="none" stroke="#63b8ff" d="M101.21,-163.28C100.13,-154.38 98.45,-139.97 97.25,-127.5 95.87,-113.13 94.58,-96.88 93.66,-84.52"/>
<polygon fill="#63b8ff" stroke="#63b8ff" points="97.17,-84.51 92.95,-74.79 90.18,-85.02 97.17,-84.51"/>
</a>
</g>
</g>
<!-- Node4 -->
<g id="Node000004" class="node">
<title>Node4</title>
<g id="a_Node000004"><a xlink:href="a01364.html" target="_top" xlink:title=" ">
<polygon fill="white" stroke="#666666" points="148.38,-127.5 106.12,-127.5 106.12,-109 148.38,-109 148.38,-127.5"/>
<text text-anchor="middle" x="127.25" y="-114" font-family="Helvetica,sans-Serif" font-size="10.00">conf.h</text>
</a>
</g>
</g>
<!-- Node1&#45;&gt;Node4 -->
<g id="edge3_Node000001_Node000004" class="edge">
<title>Node1&#45;&gt;Node4</title>
<g id="a_edge3_Node000001_Node000004"><a xlink:title=" ">
<path fill="none" stroke="#63b8ff" d="M106.38,-163.08C109.62,-156.28 114.25,-146.56 118.32,-138"/>
<polygon fill="#63b8ff" stroke="#63b8ff" points="121.41,-139.66 122.55,-129.12 115.09,-136.65 121.41,-139.66"/>
</a>
</g>
</g>
<!-- Node5 -->
<g id="Node000005" class="node">
<title>Node5</title>
<g id="a_Node000005"><a xlink:href="a01394.html" target="_top" xlink:title=" ">
<polygon fill="white" stroke="#666666" points="226.38,-127.5 166.12,-127.5 166.12,-109 226.38,-109 226.38,-127.5"/>
<text text-anchor="middle" x="196.25" y="-114" font-family="Helvetica,sans-Serif" font-size="10.00">spinlock.h</text>
</a>
</g>
</g>
<!-- Node1&#45;&gt;Node5 -->
<g id="edge4_Node000001_Node000005" class="edge">
<title>Node1&#45;&gt;Node5</title>
<g id="a_edge4_Node000001_Node000005"><a xlink:title=" ">
<path fill="none" stroke="#63b8ff" d="M117.77,-163.08C132.2,-155.03 153.94,-142.88 170.88,-133.42"/>
<polygon fill="#63b8ff" stroke="#63b8ff" points="172.36,-136.6 179.38,-128.67 168.95,-130.49 172.36,-136.6"/>
</a>
</g>
</g>
<!-- Node5&#45;&gt;Node3 -->
<g id="edge5_Node000005_Node000003" class="edge">
<title>Node5&#45;&gt;Node3</title>
<g id="a_edge5_Node000005_Node000003"><a xlink:title=" ">
<path fill="none" stroke="#63b8ff" d="M179.08,-108.58C162.89,-100.41 138.38,-88.04 119.52,-78.52"/>
<polygon fill="#63b8ff" stroke="#63b8ff" points="121.3,-75.5 110.8,-74.11 118.15,-81.75 121.3,-75.5"/>
</a>
</g>
</g>
<!-- Node6 -->
<g id="Node000006" class="node">
<title>Node6</title>
<g id="a_Node000006"><a xlink:href="a01373.html" target="_top" xlink:title=" ">
<polygon fill="white" stroke="#666666" points="244.75,-73 147.75,-73 147.75,-54.5 244.75,-54.5 244.75,-73"/>
<text text-anchor="middle" x="196.25" y="-59.5" font-family="Helvetica,sans-Serif" font-size="10.00">utils/arax_assert.h</text>
</a>
</g>
</g>
<!-- Node5&#45;&gt;Node6 -->
<g id="edge6_Node000005_Node000006" class="edge">
<title>Node5&#45;&gt;Node6</title>
<g id="a_edge6_Node000005_Node000006"><a xlink:title=" ">
<path fill="none" stroke="#63b8ff" d="M196.25,-108.58C196.25,-102.08 196.25,-92.92 196.25,-84.66"/>
<polygon fill="#63b8ff" stroke="#63b8ff" points="199.75,-84.77 196.25,-74.77 192.75,-84.77 199.75,-84.77"/>
</a>
</g>
</g>
<!-- Node7 -->
<g id="Node000007" class="node">
<title>Node7</title>
<g id="a_Node000007"><a xlink:href="a01382.html" target="_top" xlink:title=" ">
<polygon fill="white" stroke="#666666" points="224.12,-18.5 168.38,-18.5 168.38,0 224.12,0 224.12,-18.5"/>
<text text-anchor="middle" x="196.25" y="-5" font-family="Helvetica,sans-Serif" font-size="10.00">compat.h</text>
</a>
</g>
</g>
<!-- Node6&#45;&gt;Node7 -->
<g id="edge7_Node000006_Node000007" class="edge">
<title>Node6&#45;&gt;Node7</title>
<g id="a_edge7_Node000006_Node000007"><a xlink:title=" ">
<path fill="none" stroke="#63b8ff" d="M196.25,-54.08C196.25,-47.58 196.25,-38.42 196.25,-30.16"/>
<polygon fill="#63b8ff" stroke="#63b8ff" points="199.75,-30.27 196.25,-20.27 192.75,-30.27 199.75,-30.27"/>
</a>
</g>
</g>
</g>
</svg>
