<?xml version="1.0" encoding="UTF-8" standalone="no"?>
<!DOCTYPE svg PUBLIC "-//W3C//DTD SVG 1.1//EN"
 "http://www.w3.org/Graphics/SVG/1.1/DTD/svg11.dtd">
<!-- Generated by graphviz version 8.0.5 (0)
 -->
<!-- Title: arax_pipe_remove_orphan_vaccel Pages: 1 -->
<svg width="469pt" height="138pt"
 viewBox="0.00 0.00 469.25 137.50" xmlns="http://www.w3.org/2000/svg" xmlns:xlink="http://www.w3.org/1999/xlink">
<g id="graph0" class="graph" transform="scale(1 1) rotate(0) translate(4 133.5)">
<title>arax_pipe_remove_orphan_vaccel</title>
<!-- Node1 -->
<g id="Node000001" class="node">
<title>Node1</title>
<g id="a_Node000001"><a xlink:title=" ">
<polygon fill="#999999" stroke="#666666" points="130.75,-78.75 0,-78.75 0,-49.75 130.75,-49.75 130.75,-78.75"/>
<text text-anchor="start" x="8" y="-65.25" font-family="Helvetica,sans-Serif" font-size="10.00">arax_pipe_remove_orphan</text>
<text text-anchor="middle" x="65.38" y="-54.75" font-family="Helvetica,sans-Serif" font-size="10.00">_vaccel</text>
</a>
</g>
</g>
<!-- Node2 -->
<g id="Node000002" class="node">
<title>Node2</title>
<g id="a_Node000002"><a xlink:href="a02352.html#aed6af4d83e934e3e654ead541b15f2d9" target="_top" xlink:title=" ">
<polygon fill="white" stroke="#666666" points="281,-129.5 172,-129.5 172,-111 281,-111 281,-129.5"/>
<text text-anchor="middle" x="226.5" y="-116" font-family="Helvetica,sans-Serif" font-size="10.00">async_condition_lock</text>
</a>
</g>
</g>
<!-- Node1&#45;&gt;Node2 -->
<g id="edge1_Node000001_Node000002" class="edge">
<title>Node1&#45;&gt;Node2</title>
<g id="a_edge1_Node000001_Node000002"><a xlink:title=" ">
<path fill="none" stroke="#63b8ff" d="M105.81,-79.21C124.26,-86.09 146.56,-94.27 166.75,-101.25 172.39,-103.2 178.35,-105.2 184.22,-107.13"/>
<polygon fill="#63b8ff" stroke="#63b8ff" points="183.03,-110.75 193.63,-110.52 185.2,-104.1 183.03,-110.75"/>
</a>
</g>
</g>
<!-- Node4 -->
<g id="Node000004" class="node">
<title>Node4</title>
<g id="a_Node000004"><a xlink:href="a02352.html#a3bbcb7c4c024e99d5c4ba52b61dfbbf7" target="_top" xlink:title=" ">
<polygon fill="white" stroke="#666666" points="286.25,-92.5 166.75,-92.5 166.75,-74 286.25,-74 286.25,-92.5"/>
<text text-anchor="middle" x="226.5" y="-79" font-family="Helvetica,sans-Serif" font-size="10.00">async_condition_unlock</text>
</a>
</g>
</g>
<!-- Node1&#45;&gt;Node4 -->
<g id="edge3_Node000001_Node000004" class="edge">
<title>Node1&#45;&gt;Node4</title>
<g id="a_edge3_Node000001_Node000004"><a xlink:title=" ">
<path fill="none" stroke="#63b8ff" d="M131.1,-71.98C139.23,-72.95 147.59,-73.95 155.79,-74.93"/>
<polygon fill="#63b8ff" stroke="#63b8ff" points="155.13,-78.49 165.47,-76.2 155.96,-71.54 155.13,-78.49"/>
</a>
</g>
</g>
<!-- Node6 -->
<g id="Node000006" class="node">
<title>Node6</title>
<g id="a_Node000006"><a xlink:href="a01946.html#a0c85e5516222ab7e7fc354c614760ec5" target="_top" xlink:title=" ">
<polygon fill="white" stroke="#666666" points="261.5,-55.5 191.5,-55.5 191.5,-37 261.5,-37 261.5,-55.5"/>
<text text-anchor="middle" x="226.5" y="-42" font-family="Helvetica,sans-Serif" font-size="10.00">utils_list_del</text>
</a>
</g>
</g>
<!-- Node1&#45;&gt;Node6 -->
<g id="edge5_Node000001_Node000006" class="edge">
<title>Node1&#45;&gt;Node6</title>
<g id="a_edge5_Node000001_Node000006"><a xlink:title=" ">
<path fill="none" stroke="#63b8ff" d="M131.1,-56.93C147.71,-55.05 165.23,-53.07 180.6,-51.33"/>
<polygon fill="#63b8ff" stroke="#63b8ff" points="180.82,-54.71 190.36,-50.11 180.03,-47.76 180.82,-54.71"/>
</a>
</g>
</g>
<!-- Node7 -->
<g id="Node000007" class="node">
<title>Node7</title>
<g id="a_Node000007"><a xlink:href="a01946.html#ab0c44e095ebfd8721de878c42abcbbdc" target="_top" xlink:title=" ">
<polygon fill="white" stroke="#666666" points="280.62,-18.5 172.38,-18.5 172.38,0 280.62,0 280.62,-18.5"/>
<text text-anchor="middle" x="226.5" y="-5" font-family="Helvetica,sans-Serif" font-size="10.00">utils_list_node_linked</text>
</a>
</g>
</g>
<!-- Node1&#45;&gt;Node7 -->
<g id="edge6_Node000001_Node000007" class="edge">
<title>Node1&#45;&gt;Node7</title>
<g id="a_edge6_Node000001_Node000007"><a xlink:title=" ">
<path fill="none" stroke="#63b8ff" d="M106.81,-49.42C125.07,-42.81 146.95,-35 166.75,-28.25 172.6,-26.26 178.79,-24.2 184.88,-22.2"/>
<polygon fill="#63b8ff" stroke="#63b8ff" points="185.52,-25.35 193.95,-18.93 183.35,-18.69 185.52,-25.35"/>
</a>
</g>
</g>
<!-- Node3 -->
<g id="Node000003" class="node">
<title>Node3</title>
<g id="a_Node000003"><a xlink:href="a02346.html#aebf9e72bb6cbd8b9e33489d46c25075d" target="_top" xlink:title=" ">
<polygon fill="white" stroke="#666666" points="450,-129.5 333.5,-129.5 333.5,-111 450,-111 450,-129.5"/>
<text text-anchor="middle" x="391.75" y="-116" font-family="Helvetica,sans-Serif" font-size="10.00">async_completion_wait</text>
</a>
</g>
</g>
<!-- Node2&#45;&gt;Node3 -->
<g id="edge2_Node000002_Node000003" class="edge">
<title>Node2&#45;&gt;Node3</title>
<g id="a_edge2_Node000002_Node000003"><a xlink:title=" ">
<path fill="none" stroke="#63b8ff" d="M281.41,-120.25C294.52,-120.25 308.73,-120.25 322.41,-120.25"/>
<polygon fill="#63b8ff" stroke="#63b8ff" points="322.25,-123.75 332.25,-120.25 322.25,-116.75 322.25,-123.75"/>
</a>
</g>
</g>
<!-- Node5 -->
<g id="Node000005" class="node">
<title>Node5</title>
<g id="a_Node000005"><a xlink:href="a02346.html#ad1d30ecbf6bff6457b680aa940281072" target="_top" xlink:title=" ">
<polygon fill="white" stroke="#666666" points="461.25,-92.5 322.25,-92.5 322.25,-74 461.25,-74 461.25,-92.5"/>
<text text-anchor="middle" x="391.75" y="-79" font-family="Helvetica,sans-Serif" font-size="10.00">async_completion_complete</text>
</a>
</g>
</g>
<!-- Node4&#45;&gt;Node5 -->
<g id="edge4_Node000004_Node000005" class="edge">
<title>Node4&#45;&gt;Node5</title>
<g id="a_edge4_Node000004_Node000005"><a xlink:title=" ">
<path fill="none" stroke="#63b8ff" d="M286.44,-83.25C294.44,-83.25 302.76,-83.25 311.05,-83.25"/>
<polygon fill="#63b8ff" stroke="#63b8ff" points="310.9,-86.75 320.9,-83.25 310.9,-79.75 310.9,-86.75"/>
</a>
</g>
</g>
</g>
</svg>
