<?xml version="1.0" encoding="UTF-8" standalone="no"?>
<!DOCTYPE svg PUBLIC "-//W3C//DTD SVG 1.1//EN"
 "http://www.w3.org/Graphics/SVG/1.1/DTD/svg11.dtd">
<!-- Generated by graphviz version 12.2.1 (0)
 -->
<!-- Title: arax_pipe.h Pages: 1 -->
<svg width="745pt" height="81pt"
 viewBox="0.00 0.00 745.25 81.00" xmlns="http://www.w3.org/2000/svg" xmlns:xlink="http://www.w3.org/1999/xlink">
<g id="graph0" class="graph" transform="scale(1 1) rotate(0) translate(4 77)">
<title>arax_pipe.h</title>
<!-- Node1 -->
<g id="Node000001" class="node">
<title>Node1</title>
<g id="a_Node000001"><a xlink:title=" ">
<polygon fill="#999999" stroke="#666666" points="419.62,-73 352.62,-73 352.62,-54.5 419.62,-54.5 419.62,-73"/>
<text text-anchor="middle" x="386.12" y="-59.5" font-family="Helvetica,sans-Serif" font-size="10.00">arax_pipe.h</text>
</a>
</g>
</g>
<!-- Node2 -->
<g id="Node000002" class="node">
<title>Node2</title>
<g id="a_Node000002"><a xlink:href="a01916.html" target="_top" xlink:title=" ">
<polygon fill="white" stroke="#666666" points="72.25,-18.5 0,-18.5 0,0 72.25,0 72.25,-18.5"/>
<text text-anchor="middle" x="36.12" y="-5" font-family="Helvetica,sans-Serif" font-size="10.00">arax_accel.c</text>
</a>
</g>
</g>
<!-- Node1&#45;&gt;Node2 -->
<g id="edge1_Node000001_Node000002" class="edge">
<title>Node1&#45;&gt;Node2</title>
<g id="a_edge1_Node000001_Node000002"><a xlink:title=" ">
<path fill="none" stroke="#63b8ff" d="M340.96,-56.73C281.35,-48.67 173.19,-33.61 81.12,-18.5 78.3,-18.04 75.39,-17.54 72.45,-17.03"/>
<polygon fill="#63b8ff" stroke="#63b8ff" points="340.33,-60.18 350.71,-58.05 341.27,-53.24 340.33,-60.18"/>
</a>
</g>
</g>
<!-- Node3 -->
<g id="Node000003" class="node">
<title>Node3</title>
<g id="a_Node000003"><a xlink:href="a01922.html" target="_top" xlink:title=" ">
<polygon fill="white" stroke="#666666" points="158,-18.5 90.25,-18.5 90.25,0 158,0 158,-18.5"/>
<text text-anchor="middle" x="124.12" y="-5" font-family="Helvetica,sans-Serif" font-size="10.00">arax_data.c</text>
</a>
</g>
</g>
<!-- Node1&#45;&gt;Node3 -->
<g id="edge2_Node000001_Node000003" class="edge">
<title>Node1&#45;&gt;Node3</title>
<g id="a_edge2_Node000001_Node000003"><a xlink:title=" ">
<path fill="none" stroke="#63b8ff" d="M340.96,-53.7C289.12,-43.31 205.25,-26.51 158.46,-17.13"/>
<polygon fill="#63b8ff" stroke="#63b8ff" points="340.16,-57.11 350.66,-55.64 341.54,-50.25 340.16,-57.11"/>
</a>
</g>
</g>
<!-- Node4 -->
<g id="Node000004" class="node">
<title>Node4</title>
<g id="a_Node000004"><a xlink:href="a01925.html" target="_top" xlink:title=" ">
<polygon fill="white" stroke="#666666" points="250.38,-18.5 175.88,-18.5 175.88,0 250.38,0 250.38,-18.5"/>
<text text-anchor="middle" x="213.12" y="-5" font-family="Helvetica,sans-Serif" font-size="10.00">arax_object.c</text>
</a>
</g>
</g>
<!-- Node1&#45;&gt;Node4 -->
<g id="edge3_Node000001_Node000004" class="edge">
<title>Node1&#45;&gt;Node4</title>
<g id="a_edge3_Node000001_Node000004"><a xlink:title=" ">
<path fill="none" stroke="#63b8ff" d="M346.81,-50.82C314.82,-41.11 270.42,-27.64 241.73,-18.93"/>
<polygon fill="#63b8ff" stroke="#63b8ff" points="345.52,-54.09 356.11,-53.64 347.56,-47.39 345.52,-54.09"/>
</a>
</g>
</g>
<!-- Node5 -->
<g id="Node000005" class="node">
<title>Node5</title>
<g id="a_Node000005"><a xlink:href="a01928.html" target="_top" xlink:title=" ">
<polygon fill="white" stroke="#666666" points="335.62,-18.5 268.62,-18.5 268.62,0 335.62,0 335.62,-18.5"/>
<text text-anchor="middle" x="302.12" y="-5" font-family="Helvetica,sans-Serif" font-size="10.00">arax_pipe.c</text>
</a>
</g>
</g>
<!-- Node1&#45;&gt;Node5 -->
<g id="edge4_Node000001_Node000005" class="edge">
<title>Node1&#45;&gt;Node5</title>
<g id="a_edge4_Node000001_Node000005"><a xlink:title=" ">
<path fill="none" stroke="#63b8ff" d="M362.62,-48.06C347.61,-38.68 328.67,-26.84 316.02,-18.93"/>
<polygon fill="#63b8ff" stroke="#63b8ff" points="360.64,-50.95 370.97,-53.28 364.35,-45.01 360.64,-50.95"/>
</a>
</g>
</g>
<!-- Node6 -->
<g id="Node000006" class="node">
<title>Node6</title>
<g id="a_Node000006"><a xlink:href="a01946.html" target="_top" xlink:title=" ">
<polygon fill="white" stroke="#666666" points="418.12,-18.5 354.12,-18.5 354.12,0 418.12,0 418.12,-18.5"/>
<text text-anchor="middle" x="386.12" y="-5" font-family="Helvetica,sans-Serif" font-size="10.00">arax_plot.c</text>
</a>
</g>
</g>
<!-- Node1&#45;&gt;Node6 -->
<g id="edge5_Node000001_Node000006" class="edge">
<title>Node1&#45;&gt;Node6</title>
<g id="a_edge5_Node000001_Node000006"><a xlink:title=" ">
<path fill="none" stroke="#63b8ff" d="M386.12,-42.64C386.12,-34.36 386.12,-25.21 386.12,-18.76"/>
<polygon fill="#63b8ff" stroke="#63b8ff" points="382.63,-42.57 386.13,-52.57 389.63,-42.57 382.63,-42.57"/>
</a>
</g>
</g>
<!-- Node7 -->
<g id="Node000007" class="node">
<title>Node7</title>
<g id="a_Node000007"><a xlink:href="a01934.html" target="_top" xlink:title=" ">
<polygon fill="white" stroke="#666666" points="496.25,-18.5 436,-18.5 436,0 496.25,0 496.25,-18.5"/>
<text text-anchor="middle" x="466.12" y="-5" font-family="Helvetica,sans-Serif" font-size="10.00">arax_ptr.c</text>
</a>
</g>
</g>
<!-- Node1&#45;&gt;Node7 -->
<g id="edge6_Node000001_Node000007" class="edge">
<title>Node1&#45;&gt;Node7</title>
<g id="a_edge6_Node000001_Node000007"><a xlink:title=" ">
<path fill="none" stroke="#63b8ff" d="M408.92,-47.79C423.15,-38.45 440.96,-26.76 452.9,-18.93"/>
<polygon fill="#63b8ff" stroke="#63b8ff" points="407.04,-44.84 400.6,-53.25 410.88,-50.69 407.04,-44.84"/>
</a>
</g>
</g>
<!-- Node8 -->
<g id="Node000008" class="node">
<title>Node8</title>
<g id="a_Node000008"><a xlink:href="a01937.html" target="_top" xlink:title=" ">
<polygon fill="white" stroke="#666666" points="582,-18.5 514.25,-18.5 514.25,0 582,0 582,-18.5"/>
<text text-anchor="middle" x="548.12" y="-5" font-family="Helvetica,sans-Serif" font-size="10.00">arax_task.c</text>
</a>
</g>
</g>
<!-- Node1&#45;&gt;Node8 -->
<g id="edge7_Node000001_Node000008" class="edge">
<title>Node1&#45;&gt;Node8</title>
<g id="a_edge7_Node000001_Node000008"><a xlink:title=" ">
<path fill="none" stroke="#63b8ff" d="M423.73,-50.56C453.62,-40.88 494.7,-27.56 521.33,-18.93"/>
<polygon fill="#63b8ff" stroke="#63b8ff" points="422.75,-47.2 414.32,-53.61 424.91,-53.86 422.75,-47.2"/>
</a>
</g>
</g>
<!-- Node9 -->
<g id="Node000009" class="node">
<title>Node9</title>
<g id="a_Node000009"><a xlink:href="a01943.html" target="_top" xlink:title=" ">
<polygon fill="white" stroke="#666666" points="676.5,-18.5 599.75,-18.5 599.75,0 676.5,0 676.5,-18.5"/>
<text text-anchor="middle" x="638.12" y="-5" font-family="Helvetica,sans-Serif" font-size="10.00">arax_vaccel.c</text>
</a>
</g>
</g>
<!-- Node1&#45;&gt;Node9 -->
<g id="edge8_Node000001_Node000009" class="edge">
<title>Node1&#45;&gt;Node9</title>
<g id="a_edge8_Node000001_Node000009"><a xlink:title=" ">
<path fill="none" stroke="#63b8ff" d="M431.38,-53.32C479.26,-43.35 554.03,-27.77 599.32,-18.33"/>
<polygon fill="#63b8ff" stroke="#63b8ff" points="430.67,-49.89 421.59,-55.36 432.1,-56.75 430.67,-49.89"/>
</a>
</g>
</g>
<!-- Node10 -->
<g id="Node000010" class="node">
<title>Node10</title>
<g id="a_Node000010"><a xlink:href="a01910.html" target="_top" xlink:title=" ">
<polygon fill="white" stroke="#666666" points="737.25,-18.5 695,-18.5 695,0 737.25,0 737.25,-18.5"/>
<text text-anchor="middle" x="716.12" y="-5" font-family="Helvetica,sans-Serif" font-size="10.00">impl.c</text>
</a>
</g>
</g>
<!-- Node1&#45;&gt;Node10 -->
<g id="edge9_Node000001_Node000010" class="edge">
<title>Node1&#45;&gt;Node10</title>
<g id="a_edge9_Node000001_Node000010"><a xlink:title=" ">
<path fill="none" stroke="#63b8ff" d="M431.08,-57.71C489.82,-50.75 595.75,-36.94 685.12,-18.5 688.18,-17.87 691.38,-17.12 694.52,-16.33"/>
<polygon fill="#63b8ff" stroke="#63b8ff" points="431,-54.19 421.48,-58.83 431.82,-61.14 431,-54.19"/>
</a>
</g>
</g>
</g>
</svg>
