<?xml version="1.0" encoding="UTF-8" standalone="no"?>
<!DOCTYPE svg PUBLIC "-//W3C//DTD SVG 1.1//EN"
 "http://www.w3.org/Graphics/SVG/1.1/DTD/svg11.dtd">
<!-- Generated by graphviz version 8.0.5 (0)
 -->
<!-- Title: _arax_assert_obj Pages: 1 -->
<svg width="1382pt" height="844pt"
 viewBox="0.00 0.00 1382.25 843.50" xmlns="http://www.w3.org/2000/svg" xmlns:xlink="http://www.w3.org/1999/xlink">
<g id="graph0" class="graph" transform="scale(1 1) rotate(0) translate(4 839.5)">
<title>_arax_assert_obj</title>
<!-- Node1 -->
<g id="Node000001" class="node">
<title>Node1</title>
<g id="a_Node000001"><a xlink:title=" ">
<polygon fill="#999999" stroke="#666666" points="91.75,-332.5 0,-332.5 0,-314 91.75,-314 91.75,-332.5"/>
<text text-anchor="middle" x="45.88" y="-319" font-family="Helvetica,sans-Serif" font-size="10.00">_arax_assert_obj</text>
</a>
</g>
</g>
<!-- Node2 -->
<g id="Node000002" class="node">
<title>Node2</title>
<g id="a_Node000002"><a xlink:href="a01919.html#a80ab3bf4a8af9bb101b5a53248609771" target="_top" xlink:title=" ">
<polygon fill="white" stroke="#666666" points="204.5,-332.5 127.75,-332.5 127.75,-314 204.5,-314 204.5,-332.5"/>
<text text-anchor="middle" x="166.12" y="-319" font-family="Helvetica,sans-Serif" font-size="10.00">arax_ptr_valid</text>
</a>
</g>
</g>
<!-- Node1&#45;&gt;Node2 -->
<g id="edge1_Node000001_Node000002" class="edge">
<title>Node1&#45;&gt;Node2</title>
<g id="a_edge1_Node000001_Node000002"><a xlink:title=" ">
<path fill="none" stroke="#63b8ff" d="M91.92,-323.25C99.99,-323.25 108.44,-323.25 116.61,-323.25"/>
<polygon fill="#63b8ff" stroke="#63b8ff" points="116.52,-326.75 126.52,-323.25 116.52,-319.75 116.52,-326.75"/>
</a>
</g>
</g>
<!-- Node3 -->
<g id="Node000003" class="node">
<title>Node3</title>
<g id="a_Node000003"><a xlink:href="a02174.html#gae1d371a2840849690acce147e7a205da" target="_top" xlink:title=" ">
<polygon fill="white" stroke="#666666" points="294,-332.5 240.5,-332.5 240.5,-314 294,-314 294,-332.5"/>
<text text-anchor="middle" x="267.25" y="-319" font-family="Helvetica,sans-Serif" font-size="10.00">arax_init</text>
</a>
</g>
</g>
<!-- Node2&#45;&gt;Node3 -->
<g id="edge2_Node000002_Node000003" class="edge">
<title>Node2&#45;&gt;Node3</title>
<g id="a_edge2_Node000002_Node000003"><a xlink:title=" ">
<path fill="none" stroke="#63b8ff" d="M204.88,-323.25C212.92,-323.25 221.39,-323.25 229.39,-323.25"/>
<polygon fill="#63b8ff" stroke="#63b8ff" points="229.28,-326.75 239.28,-323.25 229.28,-319.75 229.28,-326.75"/>
</a>
</g>
</g>
<!-- Node4 -->
<g id="Node000004" class="node">
<title>Node4</title>
<g id="a_Node000004"><a xlink:href="a01898.html#a02fd608f651d254148dc74f0ae371dfe" target="_top" xlink:title=" ">
<polygon fill="white" stroke="#666666" points="388.75,-332.5 330,-332.5 330,-314 388.75,-314 388.75,-332.5"/>
<text text-anchor="middle" x="359.38" y="-319" font-family="Helvetica,sans-Serif" font-size="10.00">_arax_init</text>
</a>
</g>
</g>
<!-- Node3&#45;&gt;Node4 -->
<g id="edge3_Node000003_Node000004" class="edge">
<title>Node3&#45;&gt;Node4</title>
<g id="a_edge3_Node000003_Node000004"><a xlink:title=" ">
<path fill="none" stroke="#63b8ff" d="M294.32,-323.25C301.89,-323.25 310.35,-323.25 318.57,-323.25"/>
<polygon fill="#63b8ff" stroke="#63b8ff" points="318.52,-326.75 328.52,-323.25 318.52,-319.75 318.52,-326.75"/>
</a>
</g>
</g>
<!-- Node5 -->
<g id="Node000005" class="node">
<title>Node5</title>
<g id="a_Node000005"><a xlink:href="a01913.html#a94ce6437cad359c8523f57fe50be020d" target="_top" xlink:title=" ">
<polygon fill="white" stroke="#666666" points="567.5,-835.5 424.75,-835.5 424.75,-817 567.5,-817 567.5,-835.5"/>
<text text-anchor="middle" x="496.12" y="-822" font-family="Helvetica,sans-Serif" font-size="10.00">arax_pipe_get_available_size</text>
</a>
</g>
</g>
<!-- Node4&#45;&gt;Node5 -->
<g id="edge4_Node000004_Node000005" class="edge">
<title>Node4&#45;&gt;Node5</title>
<g id="a_edge4_Node000004_Node000005"><a xlink:title=" ">
<path fill="none" stroke="#63b8ff" d="M360.26,-332.86C359.73,-394.43 359.8,-733.14 424.75,-807.25 425.69,-808.32 426.68,-809.33 427.72,-810.29"/>
<polygon fill="#63b8ff" stroke="#63b8ff" points="425.34,-813.61 435.49,-816.63 429.43,-807.94 425.34,-813.61"/>
</a>
</g>
</g>
<!-- Node7 -->
<g id="Node000007" class="node">
<title>Node7</title>
<g id="a_Node000007"><a xlink:href="a01913.html#a5006bea23d2b9964f0f7c12947180e01" target="_top" xlink:title=" ">
<polygon fill="white" stroke="#666666" points="561.12,-798.5 431.12,-798.5 431.12,-780 561.12,-780 561.12,-798.5"/>
<text text-anchor="middle" x="496.12" y="-785" font-family="Helvetica,sans-Serif" font-size="10.00">arax_pipe_have_to_mmap</text>
</a>
</g>
</g>
<!-- Node4&#45;&gt;Node7 -->
<g id="edge6_Node000004_Node000007" class="edge">
<title>Node4&#45;&gt;Node7</title>
<g id="a_edge6_Node000004_Node000007"><a xlink:title=" ">
<path fill="none" stroke="#63b8ff" d="M360.44,-332.75C361.02,-390.81 366.82,-697.42 424.75,-766.25 427.34,-769.33 430.36,-772 433.65,-774.32"/>
<polygon fill="#63b8ff" stroke="#63b8ff" points="431.5,-777.7 441.92,-779.66 435,-771.64 431.5,-777.7"/>
</a>
</g>
</g>
<!-- Node8 -->
<g id="Node000008" class="node">
<title>Node8</title>
<g id="a_Node000008"><a xlink:href="a01913.html#aa6293e9ec7776aa49ecf632fcc4f5e26" target="_top" xlink:title=" ">
<polygon fill="white" stroke="#666666" points="534.5,-406.5 457.75,-406.5 457.75,-388 534.5,-388 534.5,-406.5"/>
<text text-anchor="middle" x="496.12" y="-393" font-family="Helvetica,sans-Serif" font-size="10.00">arax_pipe_init</text>
</a>
</g>
</g>
<!-- Node4&#45;&gt;Node8 -->
<g id="edge7_Node000004_Node000008" class="edge">
<title>Node4&#45;&gt;Node8</title>
<g id="a_edge7_Node000004_Node000008"><a xlink:title=" ">
<path fill="none" stroke="#63b8ff" d="M377.99,-332.92C400.89,-345.5 441.12,-367.59 467.94,-382.32"/>
<polygon fill="#63b8ff" stroke="#63b8ff" points="466.05,-385.83 476.5,-387.57 469.42,-379.69 466.05,-385.83"/>
</a>
</g>
</g>
<!-- Node24 -->
<g id="Node000024" class="node">
<title>Node24</title>
<g id="a_Node000024"><a xlink:href="a01952.html#aff9af0356940583dfe3045e693cc8a45" target="_top" xlink:title=" ">
<polygon fill="white" stroke="#666666" points="911.5,-760.5 796.5,-760.5 796.5,-742 911.5,-742 911.5,-760.5"/>
<text text-anchor="middle" x="854" y="-747" font-family="Helvetica,sans-Serif" font-size="10.00">utils_config_alloc_path</text>
</a>
</g>
</g>
<!-- Node4&#45;&gt;Node24 -->
<g id="edge56_Node000004_Node000024" class="edge">
<title>Node4&#45;&gt;Node24</title>
<g id="a_edge56_Node000004_Node000024"><a xlink:title=" ">
<path fill="none" stroke="#63b8ff" d="M360.37,-332.77C360.58,-388.27 364.59,-669.62 424.75,-724.25 475.94,-770.73 678.05,-764 785.31,-756.79"/>
<polygon fill="#63b8ff" stroke="#63b8ff" points="785.28,-760.23 795.01,-756.05 784.79,-753.25 785.28,-760.23"/>
</a>
</g>
</g>
<!-- Node27 -->
<g id="Node000027" class="node">
<title>Node27</title>
<g id="a_Node000027"><a xlink:href="a01952.html#aa7aa94ad075bf97a566f01f899fcd859" target="_top" xlink:title=" ">
<polygon fill="white" stroke="#666666" points="907.75,-610.5 800.25,-610.5 800.25,-592 907.75,-592 907.75,-610.5"/>
<text text-anchor="middle" x="854" y="-597" font-family="Helvetica,sans-Serif" font-size="10.00">utils_config_get_bool</text>
</a>
</g>
</g>
<!-- Node4&#45;&gt;Node27 -->
<g id="edge57_Node000004_Node000027" class="edge">
<title>Node4&#45;&gt;Node27</title>
<g id="a_edge57_Node000004_Node000027"><a xlink:title=" ">
<path fill="none" stroke="#63b8ff" d="M362.26,-332.99C367.82,-359.8 386.27,-436.01 424.75,-486.25 484.96,-564.86 509.5,-588.12 603.5,-619.25 673.79,-642.53 761.11,-626.82 811.61,-613.73"/>
<polygon fill="#63b8ff" stroke="#63b8ff" points="812.36,-616.88 821.11,-610.9 810.54,-610.12 812.36,-616.88"/>
</a>
</g>
</g>
<!-- Node39 -->
<g id="Node000039" class="node">
<title>Node39</title>
<g id="a_Node000039"><a xlink:href="a01913.html#a8d805b003097be6a6328a35c78bf558b" target="_top" xlink:title=" ">
<polygon fill="white" stroke="#666666" points="561.5,-166.5 430.75,-166.5 430.75,-148 561.5,-148 561.5,-166.5"/>
<text text-anchor="middle" x="496.12" y="-153" font-family="Helvetica,sans-Serif" font-size="10.00">arax_pipe_mmap_address</text>
</a>
</g>
</g>
<!-- Node4&#45;&gt;Node39 -->
<g id="edge33_Node000004_Node000039" class="edge">
<title>Node4&#45;&gt;Node39</title>
<g id="a_edge33_Node000004_Node000039"><a xlink:title=" ">
<path fill="none" stroke="#63b8ff" d="M361.68,-313.67C365.78,-287.47 380.84,-214.06 424.75,-176.25 426.54,-174.71 428.45,-173.29 430.44,-171.98"/>
<polygon fill="#63b8ff" stroke="#63b8ff" points="431.55,-174.82 438.66,-166.96 428.2,-168.67 431.55,-174.82"/>
</a>
</g>
</g>
<!-- Node40 -->
<g id="Node000040" class="node">
<title>Node40</title>
<g id="a_Node000040"><a xlink:href="a02352.html#aed6af4d83e934e3e654ead541b15f2d9" target="_top" xlink:title=" ">
<polygon fill="white" stroke="#666666" points="550.62,-240.5 441.62,-240.5 441.62,-222 550.62,-222 550.62,-240.5"/>
<text text-anchor="middle" x="496.12" y="-227" font-family="Helvetica,sans-Serif" font-size="10.00">async_condition_lock</text>
</a>
</g>
</g>
<!-- Node4&#45;&gt;Node40 -->
<g id="edge34_Node000004_Node000040" class="edge">
<title>Node4&#45;&gt;Node40</title>
<g id="a_edge34_Node000004_Node000040"><a xlink:title=" ">
<path fill="none" stroke="#63b8ff" d="M366.76,-313.79C377.2,-299.02 399.34,-270.47 424.75,-254.25 430.51,-250.57 436.91,-247.43 443.44,-244.76"/>
<polygon fill="#63b8ff" stroke="#63b8ff" points="444.57,-247.71 452.73,-240.95 442.14,-241.14 444.57,-247.71"/>
</a>
</g>
</g>
<!-- Node42 -->
<g id="Node000042" class="node">
<title>Node42</title>
<g id="a_Node000042"><a xlink:href="a02352.html#a3bbcb7c4c024e99d5c4ba52b61dfbbf7" target="_top" xlink:title=" ">
<polygon fill="white" stroke="#666666" points="913.75,-240.5 794.25,-240.5 794.25,-222 913.75,-222 913.75,-240.5"/>
<text text-anchor="middle" x="854" y="-227" font-family="Helvetica,sans-Serif" font-size="10.00">async_condition_unlock</text>
</a>
</g>
</g>
<!-- Node4&#45;&gt;Node42 -->
<g id="edge36_Node000004_Node000042" class="edge">
<title>Node4&#45;&gt;Node42</title>
<g id="a_edge36_Node000004_Node000042"><a xlink:title=" ">
<path fill="none" stroke="#63b8ff" d="M385.83,-313.61C429.6,-297.49 522.26,-265.36 603.5,-250.25 663.48,-239.1 732.74,-234.46 783.05,-232.55"/>
<polygon fill="#63b8ff" stroke="#63b8ff" points="782.94,-236.02 792.81,-232.17 782.69,-229.03 782.94,-236.02"/>
</a>
</g>
</g>
<!-- Node43 -->
<g id="Node000043" class="node">
<title>Node43</title>
<g id="a_Node000043"><a xlink:href="a02352.html#a1bfeaeb9b81855e640d7a67cc9d92b17" target="_top" xlink:title=" ">
<polygon fill="white" stroke="#666666" points="550.25,-203.5 442,-203.5 442,-185 550.25,-185 550.25,-203.5"/>
<text text-anchor="middle" x="496.12" y="-190" font-family="Helvetica,sans-Serif" font-size="10.00">async_condition_wait</text>
</a>
</g>
</g>
<!-- Node4&#45;&gt;Node43 -->
<g id="edge38_Node000004_Node000043" class="edge">
<title>Node4&#45;&gt;Node43</title>
<g id="a_edge38_Node000004_Node000043"><a xlink:title=" ">
<path fill="none" stroke="#63b8ff" d="M363.22,-313.62C370.07,-292.14 389.59,-240.12 424.75,-213.25 426.95,-211.57 429.29,-210.04 431.72,-208.64"/>
<polygon fill="#63b8ff" stroke="#63b8ff" points="433.05,-211.4 440.52,-203.9 430,-205.1 433.05,-211.4"/>
</a>
</g>
</g>
<!-- Node45 -->
<g id="Node000045" class="node">
<title>Node45</title>
<g id="a_Node000045"><a xlink:href="a02352.html#adbaa29dfccfdfe6e3fe69a1d001c05b5" target="_top" xlink:title=" ">
<polygon fill="white" stroke="#666666" points="741.38,-723.5 620.38,-723.5 620.38,-705 741.38,-705 741.38,-723.5"/>
<text text-anchor="middle" x="680.88" y="-710" font-family="Helvetica,sans-Serif" font-size="10.00">async_meta_init_always</text>
</a>
</g>
</g>
<!-- Node4&#45;&gt;Node45 -->
<g id="edge42_Node000004_Node000045" class="edge">
<title>Node4&#45;&gt;Node45</title>
<g id="a_edge42_Node000004_Node000045"><a xlink:title=" ">
<path fill="none" stroke="#63b8ff" d="M360.56,-332.96C361.76,-385.98 370.33,-640.01 424.75,-690.25 479.26,-740.57 571,-735.52 628.35,-725.88"/>
<polygon fill="#63b8ff" stroke="#63b8ff" points="628.76,-729.18 637.99,-723.97 627.53,-722.29 628.76,-729.18"/>
</a>
</g>
</g>
<!-- Node50 -->
<g id="Node000050" class="node">
<title>Node50</title>
<g id="a_Node000050"><a xlink:href="a01952.html#a1e8deff7c038efae14d1cc98e4ab109f" target="_top" xlink:title=" ">
<polygon fill="white" stroke="#666666" points="904.38,-685.5 803.62,-685.5 803.62,-667 904.38,-667 904.38,-685.5"/>
<text text-anchor="middle" x="854" y="-672" font-family="Helvetica,sans-Serif" font-size="10.00">utils_config_get_str</text>
</a>
</g>
</g>
<!-- Node4&#45;&gt;Node50 -->
<g id="edge62_Node000004_Node000050" class="edge">
<title>Node4&#45;&gt;Node50</title>
<g id="a_edge62_Node000004_Node000050"><a xlink:title=" ">
<path fill="none" stroke="#63b8ff" d="M360.22,-332.67C360.14,-367.28 364.37,-489.07 424.75,-559.25 517.35,-666.87 698.42,-680.19 792.7,-679.2"/>
<polygon fill="#63b8ff" stroke="#63b8ff" points="792.53,-682.69 802.47,-679.02 792.42,-675.69 792.53,-682.69"/>
</a>
</g>
</g>
<!-- Node51 -->
<g id="Node000051" class="node">
<title>Node51</title>
<g id="a_Node000051"><a xlink:href="a01955.html#ad8ca0aa2e50dbe9c1827c2d4da814cf6" target="_top" xlink:title=" ">
<polygon fill="white" stroke="#666666" points="535.62,-129.5 456.62,-129.5 456.62,-111 535.62,-111 535.62,-129.5"/>
<text text-anchor="middle" x="496.12" y="-116" font-family="Helvetica,sans-Serif" font-size="10.00">system_mmap</text>
</a>
</g>
</g>
<!-- Node4&#45;&gt;Node51 -->
<g id="edge52_Node000004_Node000051" class="edge">
<title>Node4&#45;&gt;Node51</title>
<g id="a_edge52_Node000004_Node000051"><a xlink:title=" ">
<path fill="none" stroke="#63b8ff" d="M360.74,-313.57C362.45,-283.12 371.95,-188.33 424.75,-139.25 430.74,-133.68 438.2,-129.71 446,-126.89"/>
<polygon fill="#63b8ff" stroke="#63b8ff" points="446.76,-130.01 455.35,-123.8 444.77,-123.3 446.76,-130.01"/>
</a>
</g>
</g>
<!-- Node52 -->
<g id="Node000052" class="node">
<title>Node52</title>
<g id="a_Node000052"><a xlink:href="a01955.html#a38809d11e47f180968c23903fed321ef" target="_top" xlink:title=" ">
<polygon fill="white" stroke="#666666" points="545.75,-92.5 446.5,-92.5 446.5,-74 545.75,-74 545.75,-92.5"/>
<text text-anchor="middle" x="496.12" y="-79" font-family="Helvetica,sans-Serif" font-size="10.00">system_process_id</text>
</a>
</g>
</g>
<!-- Node4&#45;&gt;Node52 -->
<g id="edge54_Node000004_Node000052" class="edge">
<title>Node4&#45;&gt;Node52</title>
<g id="a_edge54_Node000004_Node000052"><a xlink:title=" ">
<path fill="none" stroke="#63b8ff" d="M360.09,-313.65C359.63,-279.54 362.83,-162.96 424.75,-102.25 428.2,-98.87 432.18,-96.07 436.46,-93.77"/>
<polygon fill="#63b8ff" stroke="#63b8ff" points="437.5,-96.69 445.23,-89.45 434.67,-90.29 437.5,-96.69"/>
</a>
</g>
</g>
<!-- Node53 -->
<g id="Node000053" class="node">
<title>Node53</title>
<g id="a_Node000053"><a xlink:href="a01955.html#a54bd28e423e19877e5abcb1fe3d12c03" target="_top" xlink:title=" ">
<polygon fill="white" stroke="#666666" points="552.12,-55.5 440.12,-55.5 440.12,-37 552.12,-37 552.12,-55.5"/>
<text text-anchor="middle" x="496.12" y="-42" font-family="Helvetica,sans-Serif" font-size="10.00">system_total_memory</text>
</a>
</g>
</g>
<!-- Node4&#45;&gt;Node53 -->
<g id="edge55_Node000004_Node000053" class="edge">
<title>Node4&#45;&gt;Node53</title>
<g id="a_edge55_Node000004_Node000053"><a xlink:title=" ">
<path fill="none" stroke="#63b8ff" d="M361.48,-313.61C366.51,-271.25 388.62,-102.08 424.75,-65.25 426.48,-63.49 428.35,-61.88 430.34,-60.43"/>
<polygon fill="#63b8ff" stroke="#63b8ff" points="431.84,-63.01 438.67,-54.91 428.28,-56.98 431.84,-63.01"/>
</a>
</g>
</g>
<!-- Node54 -->
<g id="Node000054" class="node">
<title>Node54</title>
<g id="a_Node000054"><a xlink:href="a01952.html#a4a525d89ade920512dc65409bc8e85d8" target="_top" xlink:title=" ">
<polygon fill="white" stroke="#666666" points="907.38,-573.5 800.62,-573.5 800.62,-555 907.38,-555 907.38,-573.5"/>
<text text-anchor="middle" x="854" y="-560" font-family="Helvetica,sans-Serif" font-size="10.00">utils_config_get_size</text>
</a>
</g>
</g>
<!-- Node4&#45;&gt;Node54 -->
<g id="edge58_Node000004_Node000054" class="edge">
<title>Node4&#45;&gt;Node54</title>
<g id="a_edge58_Node000004_Node000054"><a xlink:title=" ">
<path fill="none" stroke="#63b8ff" d="M365.67,-332.89C375.67,-350.55 398.66,-388.68 424.75,-415.25 493.57,-485.34 511.3,-511.34 603.5,-545.25 664.02,-567.51 738.25,-570.34 789.93,-568.79"/>
<polygon fill="#63b8ff" stroke="#63b8ff" points="789.74,-572.27 799.6,-568.4 789.48,-565.27 789.74,-572.27"/>
</a>
</g>
</g>
<!-- Node34 -->
<g id="Node000034" class="node">
<title>Node34</title>
<g id="a_Node000034"><a xlink:href="a01952.html#a17713c8e9b90065e23b0ec1a225f79ab" target="_top" xlink:title=" ">
<polygon fill="white" stroke="#666666" points="555.5,-18.5 436.75,-18.5 436.75,0 555.5,0 555.5,-18.5"/>
<text text-anchor="middle" x="496.12" y="-5" font-family="Helvetica,sans-Serif" font-size="10.00">utils_config_get_source</text>
</a>
</g>
</g>
<!-- Node4&#45;&gt;Node34 -->
<g id="edge60_Node000004_Node000034" class="edge">
<title>Node4&#45;&gt;Node34</title>
<g id="a_edge60_Node000004_Node000034"><a xlink:title=" ">
<path fill="none" stroke="#63b8ff" d="M361.16,-313.51C365.09,-267.34 383.99,-71.05 424.75,-28.25 425.87,-27.08 427.05,-25.97 428.29,-24.93"/>
<polygon fill="#63b8ff" stroke="#63b8ff" points="429.8,-27.47 436.16,-18.99 425.9,-21.65 429.8,-27.47"/>
</a>
</g>
</g>
<!-- Node6 -->
<g id="Node000006" class="node">
<title>Node6</title>
<g id="a_Node000006"><a xlink:href="a01925.html#a078da9ec8e2f9a4470f10ee3059bd593" target="_top" xlink:title=" ">
<polygon fill="white" stroke="#666666" points="758.25,-835.5 603.5,-835.5 603.5,-817 758.25,-817 758.25,-835.5"/>
<text text-anchor="middle" x="680.88" y="-822" font-family="Helvetica,sans-Serif" font-size="10.00">arax_throttle_get_available_size</text>
</a>
</g>
</g>
<!-- Node5&#45;&gt;Node6 -->
<g id="edge5_Node000005_Node000006" class="edge">
<title>Node5&#45;&gt;Node6</title>
<g id="a_edge5_Node000005_Node000006"><a xlink:title=" ">
<path fill="none" stroke="#63b8ff" d="M567.78,-826.25C575.81,-826.25 584.07,-826.25 592.28,-826.25"/>
<polygon fill="#63b8ff" stroke="#63b8ff" points="592.04,-829.75 602.04,-826.25 592.04,-822.75 592.04,-829.75"/>
</a>
</g>
</g>
<!-- Node9 -->
<g id="Node000009" class="node">
<title>Node9</title>
<g id="a_Node000009"><a xlink:href="a01910.html#a86352ba91ba482c6688b7364d10bf956" target="_top" xlink:title=" ">
<polygon fill="white" stroke="#666666" points="735.38,-462.5 626.38,-462.5 626.38,-444 735.38,-444 735.38,-462.5"/>
<text text-anchor="middle" x="680.88" y="-449" font-family="Helvetica,sans-Serif" font-size="10.00">arax_object_repo_init</text>
</a>
</g>
</g>
<!-- Node8&#45;&gt;Node9 -->
<g id="edge8_Node000008_Node000009" class="edge">
<title>Node8&#45;&gt;Node9</title>
<g id="a_edge8_Node000008_Node000009"><a xlink:title=" ">
<path fill="none" stroke="#63b8ff" d="M528.29,-406.99C549.48,-413.6 578.17,-422.51 603.5,-430.25 614.44,-433.59 626.27,-437.17 637.28,-440.49"/>
<polygon fill="#63b8ff" stroke="#63b8ff" points="635.94,-444.04 646.53,-443.57 637.96,-437.34 635.94,-444.04"/>
</a>
</g>
</g>
<!-- Node10 -->
<g id="Node000010" class="node">
<title>Node10</title>
<g id="a_Node000010"><a xlink:href="a01946.html#ab36e49d2e694b1da49504a689ed48e4a" target="_top" xlink:title=" ">
<polygon fill="white" stroke="#666666" points="889,-499.5 819,-499.5 819,-481 889,-481 889,-499.5"/>
<text text-anchor="middle" x="854" y="-486" font-family="Helvetica,sans-Serif" font-size="10.00">utils_list_init</text>
</a>
</g>
</g>
<!-- Node8&#45;&gt;Node10 -->
<g id="edge32_Node000008_Node000010" class="edge">
<title>Node8&#45;&gt;Node10</title>
<g id="a_edge32_Node000008_Node000010"><a xlink:title=" ">
<path fill="none" stroke="#63b8ff" d="M506.94,-406.87C524.55,-423.45 563.44,-456.99 603.5,-471.25 671.75,-495.54 756.96,-496.25 808.07,-493.79"/>
<polygon fill="#63b8ff" stroke="#63b8ff" points="807.95,-497.24 817.75,-493.2 807.57,-490.25 807.95,-497.24"/>
</a>
</g>
</g>
<!-- Node12 -->
<g id="Node000012" class="node">
<title>Node12</title>
<g id="a_Node000012"><a xlink:href="a01913.html#a60dde947b05bc69599a6c7d92c38d088" target="_top" xlink:title=" ">
<polygon fill="white" stroke="#666666" points="740.62,-536.5 621.12,-536.5 621.12,-518 740.62,-518 740.62,-536.5"/>
<text text-anchor="middle" x="680.88" y="-523" font-family="Helvetica,sans-Serif" font-size="10.00">arax_pipe_add_process</text>
</a>
</g>
</g>
<!-- Node8&#45;&gt;Node12 -->
<g id="edge11_Node000008_Node000012" class="edge">
<title>Node8&#45;&gt;Node12</title>
<g id="a_edge11_Node000008_Node000012"><a xlink:title=" ">
<path fill="none" stroke="#63b8ff" d="M503.95,-406.81C519.32,-427.65 558.8,-477.43 603.5,-504.25 609.95,-508.12 617.1,-511.38 624.36,-514.12"/>
<polygon fill="#63b8ff" stroke="#63b8ff" points="622.69,-517.59 633.28,-517.54 624.97,-510.97 622.69,-517.59"/>
</a>
</g>
</g>
<!-- Node13 -->
<g id="Node000013" class="node">
<title>Node13</title>
<g id="a_Node000013"><a xlink:href="a01925.html#acf84ea82594c4dbe91cf602ee078e04d" target="_top" xlink:title=" ">
<polygon fill="white" stroke="#666666" points="725.25,-388.5 636.5,-388.5 636.5,-370 725.25,-370 725.25,-388.5"/>
<text text-anchor="middle" x="680.88" y="-375" font-family="Helvetica,sans-Serif" font-size="10.00">arax_throttle_init</text>
</a>
</g>
</g>
<!-- Node8&#45;&gt;Node13 -->
<g id="edge12_Node000008_Node000013" class="edge">
<title>Node8&#45;&gt;Node13</title>
<g id="a_edge12_Node000008_Node000013"><a xlink:title=" ">
<path fill="none" stroke="#63b8ff" d="M534.99,-393.52C561.13,-390.95 596.3,-387.48 625.44,-384.61"/>
<polygon fill="#63b8ff" stroke="#63b8ff" points="625.67,-388.01 635.28,-383.54 624.98,-381.04 625.67,-388.01"/>
</a>
</g>
</g>
<!-- Node14 -->
<g id="Node000014" class="node">
<title>Node14</title>
<g id="a_Node000014"><a xlink:href="a02352.html#ac7fbf1f43289d3e0e862b315f00e35e2" target="_top" xlink:title=" ">
<polygon fill="white" stroke="#666666" points="905.88,-388.5 802.12,-388.5 802.12,-370 905.88,-370 905.88,-388.5"/>
<text text-anchor="middle" x="854" y="-375" font-family="Helvetica,sans-Serif" font-size="10.00">async_condition_init</text>
</a>
</g>
</g>
<!-- Node8&#45;&gt;Node14 -->
<g id="edge21_Node000008_Node000014" class="edge">
<title>Node8&#45;&gt;Node14</title>
<g id="a_edge21_Node000008_Node000014"><a xlink:title=" ">
<path fill="none" stroke="#63b8ff" d="M534.85,-399.46C585.71,-401.94 679.04,-404.71 758.25,-397.25 772.06,-395.95 786.86,-393.61 800.55,-391.03"/>
<polygon fill="#63b8ff" stroke="#63b8ff" points="801.12,-394.29 810.26,-388.93 799.78,-387.42 801.12,-394.29"/>
</a>
</g>
</g>
<!-- Node20 -->
<g id="Node000020" class="node">
<title>Node20</title>
<g id="a_Node000020"><a xlink:href="a02343.html#a75bfaa5e934f1853fc8fd536ea469ad9" target="_top" xlink:title=" ">
<polygon fill="white" stroke="#666666" points="737.25,-351.5 624.5,-351.5 624.5,-333 737.25,-333 737.25,-351.5"/>
<text text-anchor="middle" x="680.88" y="-338" font-family="Helvetica,sans-Serif" font-size="10.00">arch_alloc_init_always</text>
</a>
</g>
</g>
<!-- Node8&#45;&gt;Node20 -->
<g id="edge18_Node000008_Node000020" class="edge">
<title>Node8&#45;&gt;Node20</title>
<g id="a_edge18_Node000008_Node000020"><a xlink:title=" ">
<path fill="none" stroke="#63b8ff" d="M523.6,-387.61C545,-379.98 576,-369.31 603.5,-361.25 611.25,-358.98 619.49,-356.74 627.59,-354.65"/>
<polygon fill="#63b8ff" stroke="#63b8ff" points="628.25,-357.84 637.09,-351.99 626.53,-351.05 628.25,-357.84"/>
</a>
</g>
</g>
<!-- Node21 -->
<g id="Node000021" class="node">
<title>Node21</title>
<g id="a_Node000021"><a xlink:href="a02343.html#a44fec37f87bcd49aaacc97696f9e0e7d" target="_top" xlink:title=" ">
<polygon fill="white" stroke="#666666" points="733.12,-314.5 628.62,-314.5 628.62,-296 733.12,-296 733.12,-314.5"/>
<text text-anchor="middle" x="680.88" y="-301" font-family="Helvetica,sans-Serif" font-size="10.00">arch_alloc_init_once</text>
</a>
</g>
</g>
<!-- Node8&#45;&gt;Node21 -->
<g id="edge19_Node000008_Node000021" class="edge">
<title>Node8&#45;&gt;Node21</title>
<g id="a_edge19_Node000008_Node000021"><a xlink:title=" ">
<path fill="none" stroke="#63b8ff" d="M508.11,-387.69C526.57,-372.13 565.5,-341.34 603.5,-324.25 608.72,-321.9 614.27,-319.82 619.91,-317.97"/>
<polygon fill="#63b8ff" stroke="#63b8ff" points="620.55,-321.13 629.11,-314.89 618.52,-314.43 620.55,-321.13"/>
</a>
</g>
</g>
<!-- Node23 -->
<g id="Node000023" class="node">
<title>Node23</title>
<g id="a_Node000023"><a xlink:href="a02352.html#ab2e422aab2fcfa562795beb2843e8019" target="_top" xlink:title=" ">
<polygon fill="white" stroke="#666666" points="737.25,-610.5 624.5,-610.5 624.5,-592 737.25,-592 737.25,-610.5"/>
<text text-anchor="middle" x="680.88" y="-597" font-family="Helvetica,sans-Serif" font-size="10.00">async_meta_init_once</text>
</a>
</g>
</g>
<!-- Node8&#45;&gt;Node23 -->
<g id="edge22_Node000008_Node000023" class="edge">
<title>Node8&#45;&gt;Node23</title>
<g id="a_edge22_Node000008_Node000023"><a xlink:title=" ">
<path fill="none" stroke="#63b8ff" d="M502.46,-406.68C516.7,-431.33 557.63,-498.94 603.5,-545.25 618.93,-560.82 639,-575.37 654.7,-585.73"/>
<polygon fill="#63b8ff" stroke="#63b8ff" points="652.52,-589.13 662.82,-591.61 656.32,-583.25 652.52,-589.13"/>
</a>
</g>
</g>
<!-- Node38 -->
<g id="Node000038" class="node">
<title>Node38</title>
<g id="a_Node000038"><a xlink:href="a01934.html#a2e86c7792c1e7e0e1bdf1fe1a25dcab0" target="_top" xlink:title=" ">
<polygon fill="white" stroke="#666666" points="714.75,-277.5 647,-277.5 647,-259 714.75,-259 714.75,-277.5"/>
<text text-anchor="middle" x="680.88" y="-264" font-family="Helvetica,sans-Serif" font-size="10.00">utils_kv_init</text>
</a>
</g>
</g>
<!-- Node8&#45;&gt;Node38 -->
<g id="edge31_Node000008_Node000038" class="edge">
<title>Node8&#45;&gt;Node38</title>
<g id="a_edge31_Node000008_Node000038"><a xlink:title=" ">
<path fill="none" stroke="#63b8ff" d="M503.56,-387.57C518.44,-366 557.47,-313.79 603.5,-287.25 613.46,-281.51 625.12,-277.49 636.29,-274.68"/>
<polygon fill="#63b8ff" stroke="#63b8ff" points="636.77,-277.93 645.77,-272.34 635.25,-271.1 636.77,-277.93"/>
</a>
</g>
</g>
<!-- Node9&#45;&gt;Node10 -->
<g id="edge9_Node000009_Node000010" class="edge">
<title>Node9&#45;&gt;Node10</title>
<g id="a_edge9_Node000009_Node000010"><a xlink:title=" ">
<path fill="none" stroke="#63b8ff" d="M726.84,-462.97C751.85,-468.38 782.9,-475.09 807.93,-480.5"/>
<polygon fill="#63b8ff" stroke="#63b8ff" points="807.09,-484.12 817.61,-482.81 808.57,-477.28 807.09,-484.12"/>
</a>
</g>
</g>
<!-- Node11 -->
<g id="Node000011" class="node">
<title>Node11</title>
<g id="a_Node000011"><a xlink:href="a01946.html#a63f2791c9b5c8e2fa15967cfafb7ccbb" target="_top" xlink:title=" ">
<polygon fill="white" stroke="#666666" points="1067.38,-499.5 971.12,-499.5 971.12,-481 1067.38,-481 1067.38,-499.5"/>
<text text-anchor="middle" x="1019.25" y="-486" font-family="Helvetica,sans-Serif" font-size="10.00">utils_list_node_init</text>
</a>
</g>
</g>
<!-- Node10&#45;&gt;Node11 -->
<g id="edge10_Node000010_Node000011" class="edge">
<title>Node10&#45;&gt;Node11</title>
<g id="a_edge10_Node000010_Node000011"><a xlink:title=" ">
<path fill="none" stroke="#63b8ff" d="M889.22,-490.25C909.64,-490.25 936.12,-490.25 959.77,-490.25"/>
<polygon fill="#63b8ff" stroke="#63b8ff" points="959.76,-493.75 969.76,-490.25 959.76,-486.75 959.76,-493.75"/>
</a>
</g>
</g>
<!-- Node13&#45;&gt;Node14 -->
<g id="edge13_Node000013_Node000014" class="edge">
<title>Node13&#45;&gt;Node14</title>
<g id="a_edge13_Node000013_Node000014"><a xlink:title=" ">
<path fill="none" stroke="#63b8ff" d="M725.5,-379.25C745.41,-379.25 769.34,-379.25 791.06,-379.25"/>
<polygon fill="#63b8ff" stroke="#63b8ff" points="790.86,-382.75 800.86,-379.25 790.86,-375.75 790.86,-382.75"/>
</a>
</g>
</g>
<!-- Node15 -->
<g id="Node000015" class="node">
<title>Node15</title>
<g id="a_Node000015"><a xlink:href="a02346.html#ad1d30ecbf6bff6457b680aa940281072" target="_top" xlink:title=" ">
<polygon fill="white" stroke="#666666" points="1088.75,-240.5 949.75,-240.5 949.75,-222 1088.75,-222 1088.75,-240.5"/>
<text text-anchor="middle" x="1019.25" y="-227" font-family="Helvetica,sans-Serif" font-size="10.00">async_completion_complete</text>
</a>
</g>
</g>
<!-- Node14&#45;&gt;Node15 -->
<g id="edge14_Node000014_Node000015" class="edge">
<title>Node14&#45;&gt;Node15</title>
<g id="a_edge14_Node000014_Node000015"><a xlink:title=" ">
<path fill="none" stroke="#63b8ff" d="M865.71,-369.54C893.05,-344.76 965.64,-278.95 999.88,-247.9"/>
<polygon fill="#63b8ff" stroke="#63b8ff" points="1001.65,-251.11 1006.71,-241.8 996.95,-245.93 1001.65,-251.11"/>
</a>
</g>
</g>
<!-- Node16 -->
<g id="Node000016" class="node">
<title>Node16</title>
<g id="a_Node000016"><a xlink:href="a02346.html#ac728117d73179c279de49e01ae905dda" target="_top" xlink:title=" ">
<polygon fill="white" stroke="#666666" points="1075.25,-388.5 963.25,-388.5 963.25,-370 1075.25,-370 1075.25,-388.5"/>
<text text-anchor="middle" x="1019.25" y="-375" font-family="Helvetica,sans-Serif" font-size="10.00">async_completion_init</text>
</a>
</g>
</g>
<!-- Node14&#45;&gt;Node16 -->
<g id="edge15_Node000014_Node000016" class="edge">
<title>Node14&#45;&gt;Node16</title>
<g id="a_edge15_Node000014_Node000016"><a xlink:title=" ">
<path fill="none" stroke="#63b8ff" d="M906.21,-379.25C920.73,-379.25 936.75,-379.25 952.02,-379.25"/>
<polygon fill="#63b8ff" stroke="#63b8ff" points="951.98,-382.75 961.98,-379.25 951.98,-375.75 951.98,-382.75"/>
</a>
</g>
</g>
<!-- Node17 -->
<g id="Node000017" class="node">
<title>Node17</title>
<g id="a_Node000017"><a xlink:href="a02349.html#a3bbcb7c4c024e99d5c4ba52b61dfbbf7" target="_top" xlink:title=" ">
<polygon fill="#fff0f0" stroke="red" points="1079,-351.5 959.5,-351.5 959.5,-333 1079,-333 1079,-351.5"/>
<text text-anchor="middle" x="1019.25" y="-338" font-family="Helvetica,sans-Serif" font-size="10.00">async_condition_unlock</text>
</a>
</g>
</g>
<!-- Node14&#45;&gt;Node17 -->
<g id="edge16_Node000014_Node000017" class="edge">
<title>Node14&#45;&gt;Node17</title>
<g id="a_edge16_Node000014_Node000017"><a xlink:title=" ">
<path fill="none" stroke="#63b8ff" d="M897.89,-369.53C918.34,-364.89 943.01,-359.3 964.67,-354.39"/>
<polygon fill="#63b8ff" stroke="#63b8ff" points="965.38,-357.59 974.36,-351.97 963.84,-350.77 965.38,-357.59"/>
</a>
</g>
</g>
<!-- Node19 -->
<g id="Node000019" class="node">
<title>Node19</title>
<g id="a_Node000019"><a xlink:href="a02346.html#a2a7d01fc7720e936a430efc09d094c6c" target="_top" xlink:title=" ">
<polygon fill="white" stroke="#666666" points="1075.62,-425.5 962.88,-425.5 962.88,-407 1075.62,-407 1075.62,-425.5"/>
<text text-anchor="middle" x="1019.25" y="-412" font-family="Helvetica,sans-Serif" font-size="10.00">async_semaphore_init</text>
</a>
</g>
</g>
<!-- Node14&#45;&gt;Node19 -->
<g id="edge17_Node000014_Node000019" class="edge">
<title>Node14&#45;&gt;Node19</title>
<g id="a_edge17_Node000014_Node000019"><a xlink:title=" ">
<path fill="none" stroke="#63b8ff" d="M897.89,-388.97C918.34,-393.61 943.01,-399.2 964.67,-404.11"/>
<polygon fill="#63b8ff" stroke="#63b8ff" points="963.84,-407.73 974.36,-406.53 965.38,-400.91 963.84,-407.73"/>
</a>
</g>
</g>
<!-- Node22 -->
<g id="Node000022" class="node">
<title>Node22</title>
<g id="a_Node000022"><a xlink:href="a01943.html#a6699a24a46fb1be57ca21abf8bc61928" target="_top" xlink:title=" ">
<polygon fill="white" stroke="#666666" points="897.25,-314.5 810.75,-314.5 810.75,-296 897.25,-296 897.25,-314.5"/>
<text text-anchor="middle" x="854" y="-301" font-family="Helvetica,sans-Serif" font-size="10.00">utils_bitmap_init</text>
</a>
</g>
</g>
<!-- Node21&#45;&gt;Node22 -->
<g id="edge20_Node000021_Node000022" class="edge">
<title>Node21&#45;&gt;Node22</title>
<g id="a_edge20_Node000021_Node000022"><a xlink:title=" ">
<path fill="none" stroke="#63b8ff" d="M733.22,-305.25C754.18,-305.25 778.42,-305.25 799.58,-305.25"/>
<polygon fill="#63b8ff" stroke="#63b8ff" points="799.34,-308.75 809.34,-305.25 799.34,-301.75 799.34,-308.75"/>
</a>
</g>
</g>
<!-- Node23&#45;&gt;Node10 -->
<g id="edge30_Node000023_Node000010" class="edge">
<title>Node23&#45;&gt;Node10</title>
<g id="a_edge30_Node000023_Node000010"><a xlink:title=" ">
<path fill="none" stroke="#63b8ff" d="M696.76,-591.59C726.47,-572.32 793.34,-528.95 829.2,-505.69"/>
<polygon fill="#63b8ff" stroke="#63b8ff" points="830.54,-508.34 837.03,-499.96 826.73,-502.47 830.54,-508.34"/>
</a>
</g>
</g>
<!-- Node23&#45;&gt;Node24 -->
<g id="edge23_Node000023_Node000024" class="edge">
<title>Node23&#45;&gt;Node24</title>
<g id="a_edge23_Node000023_Node000024"><a xlink:title=" ">
<path fill="none" stroke="#63b8ff" d="M689.52,-610.75C712.64,-639.39 781.03,-723.45 794.25,-732.25 796.97,-734.06 799.88,-735.71 802.89,-737.21"/>
<polygon fill="#63b8ff" stroke="#63b8ff" points="801.19,-740.73 811.76,-741.52 803.99,-734.31 801.19,-740.73"/>
</a>
</g>
</g>
<!-- Node26 -->
<g id="Node000026" class="node">
<title>Node26</title>
<g id="a_Node000026"><a xlink:href="a01952.html#a84f3886cdcb91a28bf13b07aae8b2285" target="_top" xlink:title=" ">
<polygon fill="white" stroke="#666666" points="909.62,-648.5 798.38,-648.5 798.38,-630 909.62,-630 909.62,-648.5"/>
<text text-anchor="middle" x="854" y="-635" font-family="Helvetica,sans-Serif" font-size="10.00">utils_config_free_path</text>
</a>
</g>
</g>
<!-- Node23&#45;&gt;Node26 -->
<g id="edge25_Node000023_Node000026" class="edge">
<title>Node23&#45;&gt;Node26</title>
<g id="a_edge25_Node000023_Node000026"><a xlink:title=" ">
<path fill="none" stroke="#63b8ff" d="M725.5,-610.94C747.74,-615.88 775,-621.93 798.6,-627.17"/>
<polygon fill="#63b8ff" stroke="#63b8ff" points="797.64,-630.76 808.16,-629.51 799.15,-623.93 797.64,-630.76"/>
</a>
</g>
</g>
<!-- Node23&#45;&gt;Node27 -->
<g id="edge26_Node000023_Node000027" class="edge">
<title>Node23&#45;&gt;Node27</title>
<g id="a_edge26_Node000023_Node000027"><a xlink:title=" ">
<path fill="none" stroke="#63b8ff" d="M737.43,-601.25C753.85,-601.25 771.94,-601.25 788.85,-601.25"/>
<polygon fill="#63b8ff" stroke="#63b8ff" points="788.76,-604.75 798.76,-601.25 788.76,-597.75 788.76,-604.75"/>
</a>
</g>
</g>
<!-- Node25 -->
<g id="Node000025" class="node">
<title>Node25</title>
<g id="a_Node000025"><a xlink:href="a01955.html#a0844807fe9679a9a5fbf1bfc9dd78dc6" target="_top" xlink:title=" ">
<polygon fill="white" stroke="#666666" points="1069.25,-832.5 969.25,-832.5 969.25,-814 1069.25,-814 1069.25,-832.5"/>
<text text-anchor="middle" x="1019.25" y="-819" font-family="Helvetica,sans-Serif" font-size="10.00">system_home_path</text>
</a>
</g>
</g>
<!-- Node24&#45;&gt;Node25 -->
<g id="edge24_Node000024_Node000025" class="edge">
<title>Node24&#45;&gt;Node25</title>
<g id="a_edge24_Node000024_Node000025"><a xlink:title=" ">
<path fill="none" stroke="#63b8ff" d="M869.54,-760.84C887.68,-772.46 919.94,-791.99 949.75,-804.25 955.17,-806.48 960.94,-808.54 966.74,-810.41"/>
<polygon fill="#63b8ff" stroke="#63b8ff" points="965.56,-814.01 976.14,-813.57 967.59,-807.31 965.56,-814.01"/>
</a>
</g>
</g>
<!-- Node28 -->
<g id="Node000028" class="node">
<title>Node28</title>
<g id="a_Node000028"><a xlink:href="a01952.html#a336fa8eefc3d744aa7248d6786cfee03" target="_top" xlink:title=" ">
<polygon fill="white" stroke="#666666" points="1069.25,-610.5 969.25,-610.5 969.25,-592 1069.25,-592 1069.25,-610.5"/>
<text text-anchor="middle" x="1019.25" y="-597" font-family="Helvetica,sans-Serif" font-size="10.00">utils_config_get_int</text>
</a>
</g>
</g>
<!-- Node27&#45;&gt;Node28 -->
<g id="edge27_Node000027_Node000028" class="edge">
<title>Node27&#45;&gt;Node28</title>
<g id="a_edge27_Node000027_Node000028"><a xlink:title=" ">
<path fill="none" stroke="#63b8ff" d="M908,-601.25C924.04,-601.25 941.77,-601.25 958.23,-601.25"/>
<polygon fill="#63b8ff" stroke="#63b8ff" points="957.84,-604.75 967.84,-601.25 957.84,-597.75 957.84,-604.75"/>
</a>
</g>
</g>
<!-- Node29 -->
<g id="Node000029" class="node">
<title>Node29</title>
<g id="a_Node000029"><a xlink:href="a01952.html#a1a28ba7c7791236d03b1fa9f81aa6a71" target="_top" xlink:title=" ">
<polygon fill="#fff0f0" stroke="red" points="1232.25,-610.5 1124.75,-610.5 1124.75,-592 1232.25,-592 1232.25,-610.5"/>
<text text-anchor="middle" x="1178.5" y="-597" font-family="Helvetica,sans-Serif" font-size="10.00">utils_config_get_long</text>
</a>
</g>
</g>
<!-- Node28&#45;&gt;Node29 -->
<g id="edge28_Node000028_Node000029" class="edge">
<title>Node28&#45;&gt;Node29</title>
<g id="a_edge28_Node000028_Node000029"><a xlink:title=" ">
<path fill="none" stroke="#63b8ff" d="M1069.57,-601.25C1083.43,-601.25 1098.69,-601.25 1113.28,-601.25"/>
<polygon fill="#63b8ff" stroke="#63b8ff" points="1113.26,-604.75 1123.26,-601.25 1113.26,-597.75 1113.26,-604.75"/>
</a>
</g>
</g>
<!-- Node30 -->
<g id="Node000030" class="node">
<title>Node30</title>
<g id="a_Node000030"><a xlink:href="a01952.html#a0738274ac3fd171eda6bfb42492bc0d7" target="_top" xlink:title=" ">
<polygon fill="#fff0f0" stroke="red" points="1374.25,-647.5 1268.25,-647.5 1268.25,-629 1374.25,-629 1374.25,-647.5"/>
<text text-anchor="middle" x="1321.25" y="-634" font-family="Helvetica,sans-Serif" font-size="10.00">_utils_config_get_str</text>
</a>
</g>
</g>
<!-- Node29&#45;&gt;Node30 -->
<g id="edge29_Node000029_Node000030" class="edge">
<title>Node29&#45;&gt;Node30</title>
<g id="a_edge29_Node000029_Node000030"><a xlink:title=" ">
<path fill="none" stroke="#63b8ff" d="M1216.48,-610.97C1233.77,-615.52 1254.57,-620.98 1272.99,-625.83"/>
<polygon fill="#63b8ff" stroke="#63b8ff" points="1271.96,-629.44 1282.52,-628.59 1273.74,-622.67 1271.96,-629.44"/>
</a>
</g>
</g>
<!-- Node41 -->
<g id="Node000041" class="node">
<title>Node41</title>
<g id="a_Node000041"><a xlink:href="a02346.html#aebf9e72bb6cbd8b9e33489d46c25075d" target="_top" xlink:title=" ">
<polygon fill="white" stroke="#666666" points="739.12,-203.5 622.62,-203.5 622.62,-185 739.12,-185 739.12,-203.5"/>
<text text-anchor="middle" x="680.88" y="-190" font-family="Helvetica,sans-Serif" font-size="10.00">async_completion_wait</text>
</a>
</g>
</g>
<!-- Node40&#45;&gt;Node41 -->
<g id="edge35_Node000040_Node000041" class="edge">
<title>Node40&#45;&gt;Node41</title>
<g id="a_edge35_Node000040_Node000041"><a xlink:title=" ">
<path fill="none" stroke="#63b8ff" d="M545.14,-221.53C568.45,-216.81 596.65,-211.1 621.22,-206.12"/>
<polygon fill="#63b8ff" stroke="#63b8ff" points="621.76,-209.39 630.86,-203.97 620.37,-202.52 621.76,-209.39"/>
</a>
</g>
</g>
<!-- Node42&#45;&gt;Node15 -->
<g id="edge37_Node000042_Node000015" class="edge">
<title>Node42&#45;&gt;Node15</title>
<g id="a_edge37_Node000042_Node000015"><a xlink:title=" ">
<path fill="none" stroke="#63b8ff" d="M913.94,-231.25C921.94,-231.25 930.26,-231.25 938.55,-231.25"/>
<polygon fill="#63b8ff" stroke="#63b8ff" points="938.4,-234.75 948.4,-231.25 938.4,-227.75 938.4,-234.75"/>
</a>
</g>
</g>
<!-- Node43&#45;&gt;Node15 -->
<g id="edge39_Node000043_Node000015" class="edge">
<title>Node43&#45;&gt;Node15</title>
<g id="a_edge39_Node000043_Node000015"><a xlink:title=" ">
<path fill="none" stroke="#63b8ff" d="M546.16,-184.58C553.57,-182.12 560.93,-179.05 567.5,-175.25 587.09,-163.92 582.59,-147.91 603.5,-139.25 667.04,-112.93 690.46,-127.61 758.25,-139.25 844.9,-154.13 941,-194.99 988.43,-216.91"/>
<polygon fill="#63b8ff" stroke="#63b8ff" points="986.78,-220.47 997.32,-221.54 989.75,-214.13 986.78,-220.47"/>
</a>
</g>
</g>
<!-- Node43&#45;&gt;Node41 -->
<g id="edge40_Node000043_Node000041" class="edge">
<title>Node43&#45;&gt;Node41</title>
<g id="a_edge40_Node000043_Node000041"><a xlink:title=" ">
<path fill="none" stroke="#63b8ff" d="M550.48,-194.25C569.5,-194.25 591.2,-194.25 611.32,-194.25"/>
<polygon fill="#63b8ff" stroke="#63b8ff" points="611.31,-197.75 621.31,-194.25 611.31,-190.75 611.31,-197.75"/>
</a>
</g>
</g>
<!-- Node44 -->
<g id="Node000044" class="node">
<title>Node44</title>
<g id="a_Node000044"><a xlink:href="a02346.html#a7ab7c7fe9cb93434dde72a4e464a7e69" target="_top" xlink:title=" ">
<polygon fill="white" stroke="#666666" points="738.75,-166.5 623,-166.5 623,-148 738.75,-148 738.75,-166.5"/>
<text text-anchor="middle" x="680.88" y="-153" font-family="Helvetica,sans-Serif" font-size="10.00">async_semaphore_dec</text>
</a>
</g>
</g>
<!-- Node43&#45;&gt;Node44 -->
<g id="edge41_Node000043_Node000044" class="edge">
<title>Node43&#45;&gt;Node44</title>
<g id="a_edge41_Node000043_Node000044"><a xlink:title=" ">
<path fill="none" stroke="#63b8ff" d="M545.14,-184.53C568.45,-179.81 596.65,-174.1 621.22,-169.12"/>
<polygon fill="#63b8ff" stroke="#63b8ff" points="621.76,-172.39 630.86,-166.97 620.37,-165.52 621.76,-172.39"/>
</a>
</g>
</g>
<!-- Node45&#45;&gt;Node24 -->
<g id="edge47_Node000045_Node000024" class="edge">
<title>Node45&#45;&gt;Node24</title>
<g id="a_edge47_Node000045_Node000024"><a xlink:title=" ">
<path fill="none" stroke="#63b8ff" d="M726.84,-723.97C748.46,-728.65 774.6,-734.3 797.46,-739.24"/>
<polygon fill="#63b8ff" stroke="#63b8ff" points="796.53,-742.84 807.04,-741.53 798.01,-736 796.53,-742.84"/>
</a>
</g>
</g>
<!-- Node45&#45;&gt;Node26 -->
<g id="edge48_Node000045_Node000026" class="edge">
<title>Node45&#45;&gt;Node26</title>
<g id="a_edge48_Node000045_Node000026"><a xlink:title=" ">
<path fill="none" stroke="#63b8ff" d="M699.02,-704.7C720.74,-692.83 759.54,-672.42 794.25,-658.25 799.27,-656.2 804.6,-654.22 809.92,-652.36"/>
<polygon fill="#63b8ff" stroke="#63b8ff" points="810.7,-655.45 819.06,-648.95 808.46,-648.82 810.7,-655.45"/>
</a>
</g>
</g>
<!-- Node46 -->
<g id="Node000046" class="node">
<title>Node46</title>
<g id="a_Node000046"><a xlink:href="a02346.html#ab2195e0b081f467f8e058d1406bd4fc7" target="_top" xlink:title=" ">
<polygon fill="white" stroke="#666666" points="890.88,-723.5 817.12,-723.5 817.12,-705 890.88,-705 890.88,-723.5"/>
<text text-anchor="middle" x="854" y="-710" font-family="Helvetica,sans-Serif" font-size="10.00">async_thread</text>
</a>
</g>
</g>
<!-- Node45&#45;&gt;Node46 -->
<g id="edge43_Node000045_Node000046" class="edge">
<title>Node45&#45;&gt;Node46</title>
<g id="a_edge43_Node000045_Node000046"><a xlink:title=" ">
<path fill="none" stroke="#63b8ff" d="M741.73,-714.25C762.69,-714.25 785.93,-714.25 805.72,-714.25"/>
<polygon fill="#63b8ff" stroke="#63b8ff" points="805.63,-717.75 815.63,-714.25 805.63,-710.75 805.63,-717.75"/>
</a>
</g>
</g>
<!-- Node45&#45;&gt;Node50 -->
<g id="edge49_Node000045_Node000050" class="edge">
<title>Node45&#45;&gt;Node50</title>
<g id="a_edge49_Node000045_Node000050"><a xlink:title=" ">
<path fill="none" stroke="#63b8ff" d="M725.5,-704.56C747.74,-699.62 775,-693.57 798.6,-688.33"/>
<polygon fill="#63b8ff" stroke="#63b8ff" points="799.15,-691.57 808.16,-685.99 797.64,-684.74 799.15,-691.57"/>
</a>
</g>
</g>
<!-- Node47 -->
<g id="Node000047" class="node">
<title>Node47</title>
<g id="a_Node000047"><a xlink:href="a02346.html#ae66ae81847153386c57918f4d91be8a7" target="_top" xlink:title=" ">
<polygon fill="white" stroke="#666666" points="1082,-758.5 956.5,-758.5 956.5,-740 1082,-740 1082,-758.5"/>
<text text-anchor="middle" x="1019.25" y="-745" font-family="Helvetica,sans-Serif" font-size="10.00">async_completion_check</text>
</a>
</g>
</g>
<!-- Node46&#45;&gt;Node47 -->
<g id="edge44_Node000046_Node000047" class="edge">
<title>Node46&#45;&gt;Node47</title>
<g id="a_edge44_Node000046_Node000047"><a xlink:title=" ">
<path fill="none" stroke="#63b8ff" d="M891.23,-722.02C912.08,-726.49 938.73,-732.2 962.23,-737.24"/>
<polygon fill="#63b8ff" stroke="#63b8ff" points="961.26,-740.83 971.78,-739.5 962.73,-733.98 961.26,-740.83"/>
</a>
</g>
</g>
<!-- Node48 -->
<g id="Node000048" class="node">
<title>Node48</title>
<g id="a_Node000048"><a xlink:href="a02346.html#a49083e8ceb4bfe7793ca1a5a799834d0" target="_top" xlink:title=" ">
<polygon fill="white" stroke="#666666" points="1046.75,-721.5 991.75,-721.5 991.75,-703 1046.75,-703 1046.75,-721.5"/>
<text text-anchor="middle" x="1019.25" y="-708" font-family="Helvetica,sans-Serif" font-size="10.00">getVmID</text>
</a>
</g>
</g>
<!-- Node46&#45;&gt;Node48 -->
<g id="edge45_Node000046_Node000048" class="edge">
<title>Node46&#45;&gt;Node48</title>
<g id="a_edge45_Node000046_Node000048"><a xlink:title=" ">
<path fill="none" stroke="#63b8ff" d="M891.23,-713.81C917.7,-713.48 953.5,-713.04 980.35,-712.71"/>
<polygon fill="#63b8ff" stroke="#63b8ff" points="980.3,-716.2 990.25,-712.58 980.21,-709.2 980.3,-716.2"/>
</a>
</g>
</g>
<!-- Node49 -->
<g id="Node000049" class="node">
<title>Node49</title>
<g id="a_Node000049"><a xlink:href="a01946.html#a0c85e5516222ab7e7fc354c614760ec5" target="_top" xlink:title=" ">
<polygon fill="white" stroke="#666666" points="1054.25,-795.5 984.25,-795.5 984.25,-777 1054.25,-777 1054.25,-795.5"/>
<text text-anchor="middle" x="1019.25" y="-782" font-family="Helvetica,sans-Serif" font-size="10.00">utils_list_del</text>
</a>
</g>
</g>
<!-- Node46&#45;&gt;Node49 -->
<g id="edge46_Node000046_Node000049" class="edge">
<title>Node46&#45;&gt;Node49</title>
<g id="a_edge46_Node000046_Node000049"><a xlink:title=" ">
<path fill="none" stroke="#63b8ff" d="M891.2,-723.17C898.93,-725.82 906.83,-729.15 913.75,-733.25 932.68,-744.47 930.58,-756.44 949.75,-767.25 957,-771.34 965.18,-774.59 973.31,-777.17"/>
<polygon fill="#63b8ff" stroke="#63b8ff" points="972.29,-780.8 982.87,-780.17 974.21,-774.07 972.29,-780.8"/>
</a>
</g>
</g>
<!-- Node50&#45;&gt;Node30 -->
<g id="edge50_Node000050_Node000030" class="edge">
<title>Node50&#45;&gt;Node30</title>
<g id="a_edge50_Node000050_Node000030"><a xlink:title=" ">
<path fill="none" stroke="#63b8ff" d="M904.79,-672.18C990.02,-665.22 1163.73,-651.03 1257.26,-643.39"/>
<polygon fill="#63b8ff" stroke="#63b8ff" points="1257.3,-646.82 1266.98,-642.52 1256.73,-639.84 1257.3,-646.82"/>
</a>
</g>
</g>
<!-- Node36 -->
<g id="Node000036" class="node">
<title>Node36</title>
<g id="a_Node000036"><a xlink:href="a01952.html#a4b9cd8f5d0c205ac6c1fd30f77cbf539" target="_top" xlink:title=" ">
<polygon fill="#fff0f0" stroke="red" points="1073.38,-647.5 965.12,-647.5 965.12,-629 1073.38,-629 1073.38,-647.5"/>
<text text-anchor="middle" x="1019.25" y="-634" font-family="Helvetica,sans-Serif" font-size="10.00">utils_config_write_str</text>
</a>
</g>
</g>
<!-- Node50&#45;&gt;Node36 -->
<g id="edge51_Node000050_Node000036" class="edge">
<title>Node50&#45;&gt;Node36</title>
<g id="a_edge51_Node000050_Node000036"><a xlink:title=" ">
<path fill="none" stroke="#63b8ff" d="M896.62,-666.56C917.64,-661.67 943.38,-655.68 965.75,-650.47"/>
<polygon fill="#63b8ff" stroke="#63b8ff" points="966.48,-653.66 975.43,-647.99 964.89,-646.84 966.48,-653.66"/>
</a>
</g>
</g>
<!-- Node33 -->
<g id="Node000033" class="node">
<title>Node33</title>
<g id="a_Node000033"><a xlink:href="a01955.html#a86c3bfbf6daaf8172e131aa23dc7393c" target="_top" xlink:title=" ">
<polygon fill="white" stroke="#666666" points="724.5,-92.5 637.25,-92.5 637.25,-74 724.5,-74 724.5,-92.5"/>
<text text-anchor="middle" x="680.88" y="-79" font-family="Helvetica,sans-Serif" font-size="10.00">system_file_size</text>
</a>
</g>
</g>
<!-- Node51&#45;&gt;Node33 -->
<g id="edge53_Node000051_Node000033" class="edge">
<title>Node51&#45;&gt;Node33</title>
<g id="a_edge53_Node000051_Node000033"><a xlink:title=" ">
<path fill="none" stroke="#63b8ff" d="M535.88,-112.4C562.17,-107.08 597.28,-99.97 626.25,-94.11"/>
<polygon fill="#63b8ff" stroke="#63b8ff" points="626.91,-97.34 636.02,-91.93 625.53,-90.48 626.91,-97.34"/>
</a>
</g>
</g>
<!-- Node54&#45;&gt;Node29 -->
<g id="edge59_Node000054_Node000029" class="edge">
<title>Node54&#45;&gt;Node29</title>
<g id="a_edge59_Node000054_Node000029"><a xlink:title=" ">
<path fill="none" stroke="#63b8ff" d="M907.65,-566.74C955.16,-569.41 1026.87,-574.49 1088.75,-583.25 1100.31,-584.89 1112.63,-587.09 1124.3,-589.39"/>
<polygon fill="#63b8ff" stroke="#63b8ff" points="1123.3,-592.96 1133.79,-591.52 1124.69,-586.1 1123.3,-592.96"/>
</a>
</g>
</g>
<!-- Node32 -->
<g id="Node000032" class="node">
<title>Node32</title>
<g id="a_Node000032"><a xlink:href="a01955.html#acde493d3889d6f207d1e122cf4bb1b8c" target="_top" xlink:title=" ">
<polygon fill="white" stroke="#666666" points="723.75,-18.5 638,-18.5 638,0 723.75,0 723.75,-18.5"/>
<text text-anchor="middle" x="680.88" y="-5" font-family="Helvetica,sans-Serif" font-size="10.00">system_env_var</text>
</a>
</g>
</g>
<!-- Node34&#45;&gt;Node32 -->
<g id="edge61_Node000034_Node000032" class="edge">
<title>Node34&#45;&gt;Node32</title>
<g id="a_edge61_Node000034_Node000032"><a xlink:title=" ">
<path fill="none" stroke="#63b8ff" d="M555.95,-9.25C578.72,-9.25 604.58,-9.25 626.76,-9.25"/>
<polygon fill="#63b8ff" stroke="#63b8ff" points="626.66,-12.75 636.66,-9.25 626.66,-5.75 626.66,-12.75"/>
</a>
</g>
</g>
</g>
</svg>
