<?xml version="1.0" encoding="UTF-8" standalone="no"?>
<!DOCTYPE svg PUBLIC "-//W3C//DTD SVG 1.1//EN"
 "http://www.w3.org/Graphics/SVG/1.1/DTD/svg11.dtd">
<!-- Generated by graphviz version 8.0.5 (0)
 -->
<!-- Title: utils_list_del Pages: 1 -->
<svg width="1360pt" height="526pt"
 viewBox="0.00 0.00 1359.50 525.50" xmlns="http://www.w3.org/2000/svg" xmlns:xlink="http://www.w3.org/1999/xlink">
<g id="graph0" class="graph" transform="scale(1 1) rotate(0) translate(4 521.5)">
<title>utils_list_del</title>
<!-- Node1 -->
<g id="Node000001" class="node">
<title>Node1</title>
<g id="a_Node000001"><a xlink:title=" ">
<polygon fill="#999999" stroke="#666666" points="1351.5,-183.5 1281.5,-183.5 1281.5,-165 1351.5,-165 1351.5,-183.5"/>
<text text-anchor="middle" x="1316.5" y="-170" font-family="Helvetica,sans-Serif" font-size="10.00">utils_list_del</text>
</a>
</g>
</g>
<!-- Node2 -->
<g id="Node000002" class="node">
<title>Node2</title>
<g id="a_Node000002"><a xlink:href="a01904.html#aa3f384ca4812e46dedce753be42654df" target="_top" xlink:title=" ">
<polygon fill="white" stroke="#666666" points="925.12,-517.5 810.12,-517.5 810.12,-499 925.12,-499 925.12,-517.5"/>
<text text-anchor="middle" x="867.62" y="-504" font-family="Helvetica,sans-Serif" font-size="10.00">arax_accel_del_vaccel</text>
</a>
</g>
</g>
<!-- Node1&#45;&gt;Node2 -->
<g id="edge1_Node000001_Node000002" class="edge">
<title>Node1&#45;&gt;Node2</title>
<g id="a_edge1_Node000001_Node000002"><a xlink:title=" ">
<path fill="none" stroke="#63b8ff" d="M1312.54,-193.98C1306.14,-230.97 1287.99,-311.72 1245.5,-364.25 1165.55,-463.09 1009.53,-494.16 925.49,-503.87"/>
<polygon fill="#63b8ff" stroke="#63b8ff" points="1316.08,-195.03 1314.22,-184.6 1309.17,-193.91 1316.08,-195.03"/>
</a>
</g>
</g>
<!-- Node4 -->
<g id="Node000004" class="node">
<title>Node4</title>
<g id="a_Node000004"><a xlink:href="a01910.html#afe7e4a63c40fbcaae742b8de8693483f" target="_top" xlink:title=" ">
<polygon fill="white" stroke="#666666" points="590.12,-229.5 485.62,-229.5 485.62,-211 590.12,-211 590.12,-229.5"/>
<text text-anchor="middle" x="537.88" y="-216" font-family="Helvetica,sans-Serif" font-size="10.00">arax_object_ref_dec</text>
</a>
</g>
</g>
<!-- Node1&#45;&gt;Node4 -->
<g id="edge3_Node000001_Node000004" class="edge">
<title>Node1&#45;&gt;Node4</title>
<g id="a_edge3_Node000001_Node000004"><a xlink:title=" ">
<path fill="none" stroke="#63b8ff" d="M1270.37,-176.92C1135.14,-184.93 733.82,-208.7 590.48,-217.19"/>
<polygon fill="#63b8ff" stroke="#63b8ff" points="1270.35,-180.37 1280.13,-176.29 1269.94,-173.38 1270.35,-180.37"/>
</a>
</g>
</g>
<!-- Node25 -->
<g id="Node000025" class="node">
<title>Node25</title>
<g id="a_Node000025"><a xlink:href="a01910.html#a0a0b147b7fc892c291afe60cb0fa2c1c" target="_top" xlink:title=" ">
<polygon fill="white" stroke="#666666" points="590.12,-160.75 485.62,-160.75 485.62,-131.75 590.12,-131.75 590.12,-160.75"/>
<text text-anchor="start" x="493.62" y="-147.25" font-family="Helvetica,sans-Serif" font-size="10.00">arax_object_ref_dec</text>
<text text-anchor="middle" x="537.88" y="-136.75" font-family="Helvetica,sans-Serif" font-size="10.00">_pre_locked</text>
</a>
</g>
</g>
<!-- Node1&#45;&gt;Node25 -->
<g id="edge26_Node000001_Node000025" class="edge">
<title>Node1&#45;&gt;Node25</title>
<g id="a_edge26_Node000001_Node000025"><a xlink:title=" ">
<path fill="none" stroke="#63b8ff" d="M1270.61,-167.05C1214.9,-158.76 1116.88,-146.25 1032.38,-146.25 1032.38,-146.25 1032.38,-146.25 866.62,-146.25 769.04,-146.25 655.11,-146.25 590.53,-146.25"/>
<polygon fill="#63b8ff" stroke="#63b8ff" points="1269.77,-170.62 1280.18,-168.65 1270.81,-163.69 1269.77,-170.62"/>
</a>
</g>
</g>
<!-- Node28 -->
<g id="Node000028" class="node">
<title>Node28</title>
<g id="a_Node000028"><a xlink:href="a01913.html#aa5172b735dddd3f77fbb0265bbcdfc20" target="_top" xlink:title=" ">
<polygon fill="white" stroke="#666666" points="1096.75,-448.75 966,-448.75 966,-419.75 1096.75,-419.75 1096.75,-448.75"/>
<text text-anchor="start" x="974" y="-435.25" font-family="Helvetica,sans-Serif" font-size="10.00">arax_pipe_remove_orphan</text>
<text text-anchor="middle" x="1031.38" y="-424.75" font-family="Helvetica,sans-Serif" font-size="10.00">_vaccel</text>
</a>
</g>
</g>
<!-- Node1&#45;&gt;Node28 -->
<g id="edge29_Node000001_Node000028" class="edge">
<title>Node1&#45;&gt;Node28</title>
<g id="a_edge29_Node000001_Node000028"><a xlink:title=" ">
<path fill="none" stroke="#63b8ff" d="M1309.49,-194.17C1299.93,-223.11 1278.85,-277.17 1245.5,-312.25 1196.15,-364.16 1119.78,-400.48 1073.12,-419.31"/>
<polygon fill="#63b8ff" stroke="#63b8ff" points="1313.11,-195.34 1312.79,-184.75 1306.44,-193.22 1313.11,-195.34"/>
</a>
</g>
</g>
<!-- Node35 -->
<g id="Node000035" class="node">
<title>Node35</title>
<g id="a_Node000035"><a xlink:href="a02352.html#a0fa370eee5160963e617d1daf1c07363" target="_top" xlink:title=" ">
<polygon fill="white" stroke="#666666" points="1245.5,-303.5 1132.75,-303.5 1132.75,-285 1245.5,-285 1245.5,-303.5"/>
<text text-anchor="middle" x="1189.12" y="-290" font-family="Helvetica,sans-Serif" font-size="10.00">async_semaphore_inc</text>
</a>
</g>
</g>
<!-- Node1&#45;&gt;Node35 -->
<g id="edge37_Node000001_Node000035" class="edge">
<title>Node1&#45;&gt;Node35</title>
<g id="a_edge37_Node000001_Node000035"><a xlink:title=" ">
<path fill="none" stroke="#63b8ff" d="M1297.89,-191.11C1271.26,-216.6 1221.58,-264.14 1200.27,-284.54"/>
<polygon fill="#63b8ff" stroke="#63b8ff" points="1299.86,-194.11 1304.66,-184.67 1295.02,-189.05 1299.86,-194.11"/>
</a>
</g>
</g>
<!-- Node46 -->
<g id="Node000046" class="node">
<title>Node46</title>
<g id="a_Node000046"><a xlink:href="a02346.html#ab2195e0b081f467f8e058d1406bd4fc7" target="_top" xlink:title=" ">
<polygon fill="white" stroke="#666666" points="1226,-118.5 1152.25,-118.5 1152.25,-100 1226,-100 1226,-118.5"/>
<text text-anchor="middle" x="1189.12" y="-105" font-family="Helvetica,sans-Serif" font-size="10.00">async_thread</text>
</a>
</g>
</g>
<!-- Node1&#45;&gt;Node46 -->
<g id="edge52_Node000001_Node000046" class="edge">
<title>Node1&#45;&gt;Node46</title>
<g id="a_edge52_Node000001_Node000046"><a xlink:title=" ">
<path fill="none" stroke="#63b8ff" d="M1291.87,-158.88C1278.52,-150.51 1261.39,-140.26 1245.5,-132.25 1235.93,-127.42 1225.09,-122.76 1215.56,-118.9"/>
<polygon fill="#63b8ff" stroke="#63b8ff" points="1289.52,-162.18 1299.84,-164.59 1293.28,-156.27 1289.52,-162.18"/>
</a>
</g>
</g>
<!-- Node56 -->
<g id="Node000056" class="node">
<title>Node56</title>
<g id="a_Node000056"><a xlink:href="a01946.html#a4cace11e17315f11b44dd9e3eabbf72a" target="_top" xlink:title=" ">
<polygon fill="white" stroke="#666666" points="1238.75,-81.5 1139.5,-81.5 1139.5,-63 1238.75,-63 1238.75,-81.5"/>
<text text-anchor="middle" x="1189.12" y="-68" font-family="Helvetica,sans-Serif" font-size="10.00">utils_list_pop_head</text>
</a>
</g>
</g>
<!-- Node1&#45;&gt;Node56 -->
<g id="edge56_Node000001_Node000056" class="edge">
<title>Node1&#45;&gt;Node56</title>
<g id="a_edge56_Node000001_Node000056"><a xlink:title=" ">
<path fill="none" stroke="#63b8ff" d="M1304.09,-155.55C1291.79,-136.82 1270.55,-108.4 1245.5,-91.25 1240.05,-87.52 1233.8,-84.46 1227.5,-81.96"/>
<polygon fill="#63b8ff" stroke="#63b8ff" points="1301.52,-157.02 1309.83,-163.58 1307.42,-153.26 1301.52,-157.02"/>
</a>
</g>
</g>
<!-- Node58 -->
<g id="Node000058" class="node">
<title>Node58</title>
<g id="a_Node000058"><a xlink:href="a01946.html#a00a9ced40b89f30fa314c4534bfb0922" target="_top" xlink:title=" ">
<polygon fill="white" stroke="#666666" points="1234.62,-44.5 1143.62,-44.5 1143.62,-26 1234.62,-26 1234.62,-44.5"/>
<text text-anchor="middle" x="1189.12" y="-31" font-family="Helvetica,sans-Serif" font-size="10.00">utils_list_pop_tail</text>
</a>
</g>
</g>
<!-- Node1&#45;&gt;Node58 -->
<g id="edge58_Node000001_Node000058" class="edge">
<title>Node1&#45;&gt;Node58</title>
<g id="a_edge58_Node000001_Node000058"><a xlink:title=" ">
<path fill="none" stroke="#63b8ff" d="M1308.88,-154.28C1299.1,-127.77 1278.32,-81.15 1245.5,-54.25 1240.86,-50.45 1235.42,-47.39 1229.79,-44.93"/>
<polygon fill="#63b8ff" stroke="#63b8ff" points="1305.89,-155.33 1312.5,-163.61 1312.49,-153.01 1305.89,-155.33"/>
</a>
</g>
</g>
<!-- Node3 -->
<g id="Node000003" class="node">
<title>Node3</title>
<g id="a_Node000003"><a xlink:href="a01928.html#a5920cc4cd90589f3c5ac8686a72bcfc0" target="_top" xlink:title=" ">
<polygon fill="white" stroke="#666666" points="769.25,-498.5 637,-498.5 637,-480 769.25,-480 769.25,-498.5"/>
<text text-anchor="middle" x="703.12" y="-485" font-family="Helvetica,sans-Serif" font-size="10.00">ARAX_OBJ_DTOR_DECL</text>
</a>
</g>
</g>
<!-- Node2&#45;&gt;Node3 -->
<g id="edge2_Node000002_Node000003" class="edge">
<title>Node2&#45;&gt;Node3</title>
<g id="a_edge2_Node000002_Node000003"><a xlink:title=" ">
<path fill="none" stroke="#63b8ff" d="M798.95,-500.34C789.23,-499.2 779.24,-498.03 769.55,-496.9"/>
<polygon fill="#63b8ff" stroke="#63b8ff" points="798.45,-503.92 808.79,-501.6 799.26,-496.97 798.45,-503.92"/>
</a>
</g>
</g>
<!-- Node5 -->
<g id="Node000005" class="node">
<title>Node5</title>
<g id="a_Node000005"><a xlink:href="a02175.html#ga41bcefd54b929d1a638d174da051130f" target="_top" xlink:title=" ">
<polygon fill="white" stroke="#666666" points="424.5,-396.5 320.75,-396.5 320.75,-378 424.5,-378 424.5,-396.5"/>
<text text-anchor="middle" x="372.62" y="-383" font-family="Helvetica,sans-Serif" font-size="10.00">arax_accel_list_free</text>
</a>
</g>
</g>
<!-- Node4&#45;&gt;Node5 -->
<g id="edge4_Node000004_Node000005" class="edge">
<title>Node4&#45;&gt;Node5</title>
<g id="a_edge4_Node000004_Node000005"><a xlink:title=" ">
<path fill="none" stroke="#63b8ff" d="M529.25,-239.74C515.82,-271.49 484.94,-334.24 438.75,-368.25 433.53,-372.09 427.55,-375.16 421.38,-377.61"/>
<polygon fill="#63b8ff" stroke="#63b8ff" points="532.73,-241.48 533.27,-230.9 526.25,-238.83 532.73,-241.48"/>
</a>
</g>
</g>
<!-- Node6 -->
<g id="Node000006" class="node">
<title>Node6</title>
<g id="a_Node000006"><a xlink:href="a02175.html#ga497b17905d4c7ee2f5ee831d367ece92" target="_top" xlink:title=" ">
<polygon fill="white" stroke="#666666" points="423,-359.5 322.25,-359.5 322.25,-341 423,-341 423,-359.5"/>
<text text-anchor="middle" x="372.62" y="-346" font-family="Helvetica,sans-Serif" font-size="10.00">arax_accel_release</text>
</a>
</g>
</g>
<!-- Node4&#45;&gt;Node6 -->
<g id="edge5_Node000004_Node000006" class="edge">
<title>Node4&#45;&gt;Node6</title>
<g id="a_edge5_Node000004_Node000006"><a xlink:title=" ">
<path fill="none" stroke="#63b8ff" d="M525.25,-238.98C508.94,-263.74 476.93,-307.03 438.75,-331.25 432.78,-335.04 426.04,-338.09 419.2,-340.55"/>
<polygon fill="#63b8ff" stroke="#63b8ff" points="528.62,-241.21 531.08,-230.9 522.73,-237.43 528.62,-241.21"/>
</a>
</g>
</g>
<!-- Node8 -->
<g id="Node000008" class="node">
<title>Node8</title>
<g id="a_Node000008"><a xlink:href="a01931.html#a96e0520e5569748ce1172bafca24fafe" target="_top" xlink:title=" ">
<polygon fill="white" stroke="#666666" points="413.25,-322.5 332,-322.5 332,-304 413.25,-304 413.25,-322.5"/>
<text text-anchor="middle" x="372.62" y="-309" font-family="Helvetica,sans-Serif" font-size="10.00">arax_data_free</text>
</a>
</g>
</g>
<!-- Node4&#45;&gt;Node8 -->
<g id="edge7_Node000004_Node000008" class="edge">
<title>Node4&#45;&gt;Node8</title>
<g id="a_edge7_Node000004_Node000008"><a xlink:title=" ">
<path fill="none" stroke="#63b8ff" d="M518.9,-237.03C500.18,-253.68 469.37,-278.89 438.75,-294.25 430.85,-298.21 422,-301.48 413.42,-304.13"/>
<polygon fill="#63b8ff" stroke="#63b8ff" points="520.78,-240.14 525.83,-230.83 516.08,-234.96 520.78,-240.14"/>
</a>
</g>
</g>
<!-- Node9 -->
<g id="Node000009" class="node">
<title>Node9</title>
<g id="a_Node000009"><a xlink:href="a01931.html#a4b65f90a821aca384f0ca1cff7bd1846" target="_top" xlink:title=" ">
<polygon fill="white" stroke="#666666" points="435.38,-285.5 309.88,-285.5 309.88,-267 435.38,-267 435.38,-285.5"/>
<text text-anchor="middle" x="372.62" y="-272" font-family="Helvetica,sans-Serif" font-size="10.00">arax_data_migrate_accel</text>
</a>
</g>
</g>
<!-- Node4&#45;&gt;Node9 -->
<g id="edge8_Node000004_Node000009" class="edge">
<title>Node4&#45;&gt;Node9</title>
<g id="a_edge8_Node000004_Node000009"><a xlink:title=" ">
<path fill="none" stroke="#63b8ff" d="M502.73,-233.86C483.97,-241.15 460.22,-250.08 438.75,-257.25 429.03,-260.49 418.4,-263.73 408.59,-266.58"/>
<polygon fill="#63b8ff" stroke="#63b8ff" points="503.83,-236.8 511.86,-229.89 501.28,-230.28 503.83,-236.8"/>
</a>
</g>
</g>
<!-- Node18 -->
<g id="Node000018" class="node">
<title>Node18</title>
<g id="a_Node000018"><a xlink:href="a01931.html#af735744d0f8bec04394639a841d2ba0f" target="_top" xlink:title=" ">
<polygon fill="white" stroke="#666666" points="438.75,-248.5 306.5,-248.5 306.5,-230 438.75,-230 438.75,-248.5"/>
<text text-anchor="middle" x="372.62" y="-235" font-family="Helvetica,sans-Serif" font-size="10.00">ARAX_OBJ_DTOR_DECL</text>
</a>
</g>
</g>
<!-- Node4&#45;&gt;Node18 -->
<g id="edge14_Node000004_Node000018" class="edge">
<title>Node4&#45;&gt;Node18</title>
<g id="a_edge14_Node000004_Node000018"><a xlink:title=" ">
<path fill="none" stroke="#63b8ff" d="M474.33,-227.53C462.77,-228.87 450.67,-230.28 439.03,-231.64"/>
<polygon fill="#63b8ff" stroke="#63b8ff" points="474.69,-230.89 484.22,-226.26 473.88,-223.94 474.69,-230.89"/>
</a>
</g>
</g>
<!-- Node21 -->
<g id="Node000021" class="node">
<title>Node21</title>
<g id="a_Node000021"><a xlink:href="a01922.html#a5eb16d4196838d10a2b57715f2eddee7" target="_top" xlink:title=" ">
<polygon fill="white" stroke="#666666" points="438.75,-211.5 306.5,-211.5 306.5,-193 438.75,-193 438.75,-211.5"/>
<text text-anchor="middle" x="372.62" y="-198" font-family="Helvetica,sans-Serif" font-size="10.00">ARAX_OBJ_DTOR_DECL</text>
</a>
</g>
</g>
<!-- Node4&#45;&gt;Node21 -->
<g id="edge15_Node000004_Node000021" class="edge">
<title>Node4&#45;&gt;Node21</title>
<g id="a_edge15_Node000004_Node000021"><a xlink:title=" ">
<path fill="none" stroke="#63b8ff" d="M474.33,-213.35C462.77,-212.08 450.67,-210.74 439.03,-209.46"/>
<polygon fill="#63b8ff" stroke="#63b8ff" points="473.9,-216.94 484.22,-214.55 474.67,-209.98 473.9,-216.94"/>
</a>
</g>
</g>
<!-- Node22 -->
<g id="Node000022" class="node">
<title>Node22</title>
<g id="a_Node000022"><a xlink:href="a01913.html#aa0862a60d187bfed0cfa11bf27174551" target="_top" xlink:title=" ">
<polygon fill="white" stroke="#666666" points="432,-174.5 313.25,-174.5 313.25,-156 432,-156 432,-174.5"/>
<text text-anchor="middle" x="372.62" y="-161" font-family="Helvetica,sans-Serif" font-size="10.00">arax_pipe_delete_accel</text>
</a>
</g>
</g>
<!-- Node4&#45;&gt;Node22 -->
<g id="edge16_Node000004_Node000022" class="edge">
<title>Node4&#45;&gt;Node22</title>
<g id="a_edge16_Node000004_Node000022"><a xlink:title=" ">
<path fill="none" stroke="#63b8ff" d="M501.93,-206.78C483.29,-199.75 459.89,-191.2 438.75,-184.25 429.02,-181.05 418.38,-177.83 408.57,-174.97"/>
<polygon fill="#63b8ff" stroke="#63b8ff" points="500.44,-210.33 511.03,-210.61 502.92,-203.79 500.44,-210.33"/>
</a>
</g>
</g>
<!-- Node23 -->
<g id="Node000023" class="node">
<title>Node23</title>
<g id="a_Node000023"><a xlink:href="a02176.html#ga70242aa6d9591e5fa3dbb36f1e27a896" target="_top" xlink:title=" ">
<polygon fill="white" stroke="#666666" points="411.75,-137.5 333.5,-137.5 333.5,-119 411.75,-119 411.75,-137.5"/>
<text text-anchor="middle" x="372.62" y="-124" font-family="Helvetica,sans-Serif" font-size="10.00">arax_proc_put</text>
</a>
</g>
</g>
<!-- Node4&#45;&gt;Node23 -->
<g id="edge17_Node000004_Node000023" class="edge">
<title>Node4&#45;&gt;Node23</title>
<g id="a_edge17_Node000004_Node000023"><a xlink:title=" ">
<path fill="none" stroke="#63b8ff" d="M516.67,-203.88C492.99,-184.93 454.93,-155.3 438.75,-147.25 430.42,-143.1 421.03,-139.71 412.03,-136.99"/>
<polygon fill="#63b8ff" stroke="#63b8ff" points="513.98,-207.01 523.96,-210.55 518.36,-201.55 513.98,-207.01"/>
</a>
</g>
</g>
<!-- Node24 -->
<g id="Node000024" class="node">
<title>Node24</title>
<g id="a_Node000024"><a xlink:href="a02177.html#ga55195957c1cde1508257782716aa6db3" target="_top" xlink:title=" ">
<polygon fill="white" stroke="#666666" points="413.25,-98.5 332,-98.5 332,-80 413.25,-80 413.25,-98.5"/>
<text text-anchor="middle" x="372.62" y="-85" font-family="Helvetica,sans-Serif" font-size="10.00">arax_task_free</text>
</a>
</g>
</g>
<!-- Node4&#45;&gt;Node24 -->
<g id="edge22_Node000004_Node000024" class="edge">
<title>Node4&#45;&gt;Node24</title>
<g id="a_edge22_Node000004_Node000024"><a xlink:title=" ">
<path fill="none" stroke="#63b8ff" d="M513.21,-204.3C500.84,-195.23 485.98,-183.14 474.75,-170.25 454.32,-146.8 463.1,-129.59 438.75,-110.25 431.4,-104.41 422.39,-100.18 413.43,-97.11"/>
<polygon fill="#63b8ff" stroke="#63b8ff" points="510.9,-207.66 521.08,-210.6 514.95,-201.95 510.9,-207.66"/>
</a>
</g>
</g>
<!-- Node7 -->
<g id="Node000007" class="node">
<title>Node7</title>
<g id="a_Node000007"><a xlink:href="a01904.html#a871ba8da471f464d7e10b13d5db07101" target="_top" xlink:title=" ">
<polygon fill="white" stroke="#666666" points="270.5,-359.5 138.25,-359.5 138.25,-341 270.5,-341 270.5,-359.5"/>
<text text-anchor="middle" x="204.38" y="-346" font-family="Helvetica,sans-Serif" font-size="10.00">ARAX_OBJ_DTOR_DECL</text>
</a>
</g>
</g>
<!-- Node6&#45;&gt;Node7 -->
<g id="edge6_Node000006_Node000007" class="edge">
<title>Node6&#45;&gt;Node7</title>
<g id="a_edge6_Node000006_Node000007"><a xlink:title=" ">
<path fill="none" stroke="#63b8ff" d="M311.38,-350.25C298.24,-350.25 284.28,-350.25 270.94,-350.25"/>
<polygon fill="#63b8ff" stroke="#63b8ff" points="311.19,-353.75 321.19,-350.25 311.19,-346.75 311.19,-353.75"/>
</a>
</g>
</g>
<!-- Node10 -->
<g id="Node000010" class="node">
<title>Node10</title>
<g id="a_Node000010"><a xlink:href="a01931.html#a113a3c52b0c3b4f3b390921ee4c5022e" target="_top" xlink:title=" ">
<polygon fill="white" stroke="#666666" points="252.5,-322.5 156.25,-322.5 156.25,-304 252.5,-304 252.5,-322.5"/>
<text text-anchor="middle" x="204.38" y="-309" font-family="Helvetica,sans-Serif" font-size="10.00">arax_data_arg_init</text>
</a>
</g>
</g>
<!-- Node9&#45;&gt;Node10 -->
<g id="edge9_Node000009_Node000010" class="edge">
<title>Node9&#45;&gt;Node10</title>
<g id="a_edge9_Node000009_Node000010"><a xlink:title=" ">
<path fill="none" stroke="#63b8ff" d="M317.36,-288.33C295.22,-293.25 269.97,-298.87 249.05,-303.53"/>
<polygon fill="#63b8ff" stroke="#63b8ff" points="317.94,-291.56 326.94,-285.97 316.42,-284.73 317.94,-291.56"/>
</a>
</g>
</g>
<!-- Node11 -->
<g id="Node000011" class="node">
<title>Node11</title>
<g id="a_Node000011"><a xlink:href="a01931.html#a1dc669466d6f52d5be8af2d991512ac2" target="_top" xlink:title=" ">
<polygon fill="white" stroke="#666666" points="256.25,-285.5 152.5,-285.5 152.5,-267 256.25,-267 256.25,-285.5"/>
<text text-anchor="middle" x="204.38" y="-272" font-family="Helvetica,sans-Serif" font-size="10.00">arax_data_input_init</text>
</a>
</g>
</g>
<!-- Node9&#45;&gt;Node11 -->
<g id="edge10_Node000009_Node000011" class="edge">
<title>Node9&#45;&gt;Node11</title>
<g id="a_edge10_Node000009_Node000011"><a xlink:title=" ">
<path fill="none" stroke="#63b8ff" d="M298.95,-276.25C284.72,-276.25 270.08,-276.25 256.73,-276.25"/>
<polygon fill="#63b8ff" stroke="#63b8ff" points="298.72,-279.75 308.72,-276.25 298.72,-272.75 298.72,-279.75"/>
</a>
</g>
</g>
<!-- Node20 -->
<g id="Node000020" class="node">
<title>Node20</title>
<g id="a_Node000020"><a xlink:href="a01931.html#a18d07d808917e0b971d46332e9e64da4" target="_top" xlink:title=" ">
<polygon fill="white" stroke="#666666" points="259.25,-248.5 149.5,-248.5 149.5,-230 259.25,-230 259.25,-248.5"/>
<text text-anchor="middle" x="204.38" y="-235" font-family="Helvetica,sans-Serif" font-size="10.00">arax_data_output_init</text>
</a>
</g>
</g>
<!-- Node9&#45;&gt;Node20 -->
<g id="edge12_Node000009_Node000020" class="edge">
<title>Node9&#45;&gt;Node20</title>
<g id="a_edge12_Node000009_Node000020"><a xlink:title=" ">
<path fill="none" stroke="#63b8ff" d="M317.36,-264.17C295.22,-259.25 269.97,-253.63 249.05,-248.97"/>
<polygon fill="#63b8ff" stroke="#63b8ff" points="316.42,-267.77 326.94,-266.53 317.94,-260.94 316.42,-267.77"/>
</a>
</g>
</g>
<!-- Node12 -->
<g id="Node000012" class="node">
<title>Node12</title>
<g id="a_Node000012"><a xlink:href="a01922.html#a27bee94f7a23281c8b2b72ec433f6059" target="_top" xlink:title=" ">
<polygon fill="#fff0f0" stroke="red" points="93.62,-266.5 8.62,-266.5 8.62,-248 93.62,-248 93.62,-266.5"/>
<text text-anchor="middle" x="51.12" y="-253" font-family="Helvetica,sans-Serif" font-size="10.00">arax_task_alloc</text>
</a>
</g>
</g>
<!-- Node11&#45;&gt;Node12 -->
<g id="edge11_Node000011_Node000012" class="edge">
<title>Node11&#45;&gt;Node12</title>
<g id="a_edge11_Node000011_Node000012"><a xlink:title=" ">
<path fill="none" stroke="#63b8ff" d="M141.26,-268.45C125.26,-266.44 108.42,-264.32 93.74,-262.48"/>
<polygon fill="#63b8ff" stroke="#63b8ff" points="140.81,-272.04 151.17,-269.82 141.68,-265.1 140.81,-272.04"/>
</a>
</g>
</g>
<!-- Node20&#45;&gt;Node12 -->
<g id="edge13_Node000020_Node000012" class="edge">
<title>Node20&#45;&gt;Node12</title>
<g id="a_edge13_Node000020_Node000012"><a xlink:title=" ">
<path fill="none" stroke="#63b8ff" d="M138.4,-246.98C123.38,-248.77 107.79,-250.63 94.06,-252.26"/>
<polygon fill="#63b8ff" stroke="#63b8ff" points="138.68,-250.35 148.2,-245.7 137.85,-243.4 138.68,-250.35"/>
</a>
</g>
</g>
<!-- Node15 -->
<g id="Node000015" class="node">
<title>Node15</title>
<g id="a_Node000015"><a xlink:href="a01931.html#a696bc4319d0f6c6baa7d797a8df6b56f" target="_top" xlink:title=" ">
<polygon fill="white" stroke="#666666" points="243.5,-139.5 165.25,-139.5 165.25,-121 243.5,-121 243.5,-139.5"/>
<text text-anchor="middle" x="204.38" y="-126" font-family="Helvetica,sans-Serif" font-size="10.00">arax_data_get</text>
</a>
</g>
</g>
<!-- Node23&#45;&gt;Node15 -->
<g id="edge18_Node000023_Node000015" class="edge">
<title>Node23&#45;&gt;Node15</title>
<g id="a_edge18_Node000023_Node000015"><a xlink:title=" ">
<path fill="none" stroke="#63b8ff" d="M322.28,-128.84C297.16,-129.15 267.08,-129.51 243.72,-129.79"/>
<polygon fill="#63b8ff" stroke="#63b8ff" points="322.11,-132.33 332.07,-128.71 322.02,-125.33 322.11,-132.33"/>
</a>
</g>
</g>
<!-- Node17 -->
<g id="Node000017" class="node">
<title>Node17</title>
<g id="a_Node000017"><a xlink:href="a01931.html#a8995f71dba475975efc37756783cfce9" target="_top" xlink:title=" ">
<polygon fill="white" stroke="#666666" points="243.5,-176.5 165.25,-176.5 165.25,-158 243.5,-158 243.5,-176.5"/>
<text text-anchor="middle" x="204.38" y="-163" font-family="Helvetica,sans-Serif" font-size="10.00">arax_data_set</text>
</a>
</g>
</g>
<!-- Node23&#45;&gt;Node17 -->
<g id="edge20_Node000023_Node000017" class="edge">
<title>Node23&#45;&gt;Node17</title>
<g id="a_edge20_Node000023_Node000017"><a xlink:title=" ">
<path fill="none" stroke="#63b8ff" d="M322.62,-139.75C297.43,-145.66 267.19,-152.75 243.72,-158.25"/>
<polygon fill="#63b8ff" stroke="#63b8ff" points="323.13,-142.99 332.07,-137.3 321.53,-136.17 323.13,-142.99"/>
</a>
</g>
</g>
<!-- Node16 -->
<g id="Node000016" class="node">
<title>Node16</title>
<g id="a_Node000016"><a xlink:href="a01931.html#a7d8356bd5c8b6a8d7dffc6ba94cc22e5" target="_top" xlink:title=" ">
<polygon fill="white" stroke="#666666" points="102.25,-158.5 0,-158.5 0,-140 102.25,-140 102.25,-158.5"/>
<text text-anchor="middle" x="51.12" y="-145" font-family="Helvetica,sans-Serif" font-size="10.00">arax_data_memcpy</text>
</a>
</g>
</g>
<!-- Node15&#45;&gt;Node16 -->
<g id="edge19_Node000015_Node000016" class="edge">
<title>Node15&#45;&gt;Node16</title>
<g id="a_edge19_Node000015_Node000016"><a xlink:title=" ">
<path fill="none" stroke="#63b8ff" d="M154.27,-136.42C137.73,-138.5 119.26,-140.82 102.61,-142.91"/>
<polygon fill="#63b8ff" stroke="#63b8ff" points="154.33,-139.81 163.82,-135.09 153.46,-132.87 154.33,-139.81"/>
</a>
</g>
</g>
<!-- Node17&#45;&gt;Node16 -->
<g id="edge21_Node000017_Node000016" class="edge">
<title>Node17&#45;&gt;Node16</title>
<g id="a_edge21_Node000017_Node000016"><a xlink:title=" ">
<path fill="none" stroke="#63b8ff" d="M154.27,-161.41C137.73,-159.44 119.26,-157.24 102.61,-155.26"/>
<polygon fill="#63b8ff" stroke="#63b8ff" points="153.47,-164.95 163.82,-162.66 154.3,-158 153.47,-164.95"/>
</a>
</g>
</g>
<!-- Node24&#45;&gt;Node15 -->
<g id="edge24_Node000024_Node000015" class="edge">
<title>Node24&#45;&gt;Node15</title>
<g id="a_edge24_Node000024_Node000015"><a xlink:title=" ">
<path fill="none" stroke="#63b8ff" d="M321.85,-101.52C296.89,-107.68 267.11,-115.02 243.92,-120.74"/>
<polygon fill="#63b8ff" stroke="#63b8ff" points="322.36,-104.76 331.23,-98.97 320.68,-97.96 322.36,-104.76"/>
</a>
</g>
</g>
<!-- Node14 -->
<g id="Node000014" class="node">
<title>Node14</title>
<g id="a_Node000014"><a xlink:href="a01931.html#af8ede6fc8d207004035f45d945688d2c" target="_top" xlink:title=" ">
<polygon fill="white" stroke="#666666" points="253.62,-102.75 155.12,-102.75 155.12,-73.75 253.62,-73.75 253.62,-102.75"/>
<text text-anchor="start" x="163.12" y="-89.25" font-family="Helvetica,sans-Serif" font-size="10.00">arax_data_allocate</text>
<text text-anchor="middle" x="204.38" y="-78.75" font-family="Helvetica,sans-Serif" font-size="10.00">_remote</text>
</a>
</g>
</g>
<!-- Node24&#45;&gt;Node14 -->
<g id="edge23_Node000024_Node000014" class="edge">
<title>Node24&#45;&gt;Node14</title>
<g id="a_edge23_Node000024_Node000014"><a xlink:title=" ">
<path fill="none" stroke="#63b8ff" d="M321.03,-88.95C299.76,-88.82 275.13,-88.67 254.07,-88.54"/>
<polygon fill="#63b8ff" stroke="#63b8ff" points="320.78,-92.45 330.8,-89.01 320.83,-85.45 320.78,-92.45"/>
</a>
</g>
</g>
<!-- Node19 -->
<g id="Node000019" class="node">
<title>Node19</title>
<g id="a_Node000019"><a xlink:href="a02177.html#ga1418f4cd7336bf77cce7b955a1bf7077" target="_top" xlink:title=" ">
<polygon fill="white" stroke="#666666" points="261.12,-55.5 147.62,-55.5 147.62,-37 261.12,-37 261.12,-55.5"/>
<text text-anchor="middle" x="204.38" y="-42" font-family="Helvetica,sans-Serif" font-size="10.00">arax_task_issue_sync</text>
</a>
</g>
</g>
<!-- Node24&#45;&gt;Node19 -->
<g id="edge25_Node000024_Node000019" class="edge">
<title>Node24&#45;&gt;Node19</title>
<g id="a_edge25_Node000024_Node000019"><a xlink:title=" ">
<path fill="none" stroke="#63b8ff" d="M323.67,-76.85C297.96,-70.2 266.75,-62.13 242.85,-55.94"/>
<polygon fill="#63b8ff" stroke="#63b8ff" points="322.76,-80.48 333.32,-79.6 324.51,-73.71 322.76,-80.48"/>
</a>
</g>
</g>
<!-- Node26 -->
<g id="Node000026" class="node">
<title>Node26</title>
<g id="a_Node000026"><a xlink:href="a01898.html#a4cb362223e9e7a76f4c5695080db2755" target="_top" xlink:title=" ">
<polygon fill="white" stroke="#666666" points="424.5,-43.75 320.75,-43.75 320.75,-14.75 424.5,-14.75 424.5,-43.75"/>
<text text-anchor="start" x="328.75" y="-30.25" font-family="Helvetica,sans-Serif" font-size="10.00">arax_accel_list_free</text>
<text text-anchor="middle" x="372.62" y="-19.75" font-family="Helvetica,sans-Serif" font-size="10.00">_pre_locked</text>
</a>
</g>
</g>
<!-- Node25&#45;&gt;Node26 -->
<g id="edge27_Node000025_Node000026" class="edge">
<title>Node25&#45;&gt;Node26</title>
<g id="a_edge27_Node000025_Node000026"><a xlink:title=" ">
<path fill="none" stroke="#63b8ff" d="M510.02,-124.8C490.54,-109.47 463.39,-88.57 438.75,-71.25 425.43,-61.89 410.15,-51.99 397.75,-44.16"/>
<polygon fill="#63b8ff" stroke="#63b8ff" points="507.38,-127.96 517.4,-131.42 511.72,-122.47 507.38,-127.96"/>
</a>
</g>
</g>
<!-- Node27 -->
<g id="Node000027" class="node">
<title>Node27</title>
<g id="a_Node000027"><a xlink:href="a02175.html#ga7f1598b99463c5ef533a457f225b4c0b" target="_top" xlink:title=" ">
<polygon fill="white" stroke="#666666" points="245.38,-18.5 163.38,-18.5 163.38,0 245.38,0 245.38,-18.5"/>
<text text-anchor="middle" x="204.38" y="-5" font-family="Helvetica,sans-Serif" font-size="10.00">arax_accel_list</text>
</a>
</g>
</g>
<!-- Node26&#45;&gt;Node27 -->
<g id="edge28_Node000026_Node000027" class="edge">
<title>Node26&#45;&gt;Node27</title>
<g id="a_edge28_Node000026_Node000027"><a xlink:title=" ">
<path fill="none" stroke="#63b8ff" d="M309.73,-21.8C288.3,-19.23 264.86,-16.41 245.63,-14.09"/>
<polygon fill="#63b8ff" stroke="#63b8ff" points="309.04,-25.37 319.39,-23.09 309.88,-18.42 309.04,-25.37"/>
</a>
</g>
</g>
<!-- Node28&#45;&gt;Node3 -->
<g id="edge36_Node000028_Node000003" class="edge">
<title>Node28&#45;&gt;Node3</title>
<g id="a_edge36_Node000028_Node000003"><a xlink:title=" ">
<path fill="none" stroke="#63b8ff" d="M954.98,-447.9C946.56,-449.38 938.1,-450.86 930,-452.25 874.19,-461.82 810.53,-472.2 765.04,-479.53"/>
<polygon fill="#63b8ff" stroke="#63b8ff" points="955.37,-451.2 964.61,-446.01 954.15,-444.31 955.37,-451.2"/>
</a>
</g>
</g>
<!-- Node29 -->
<g id="Node000029" class="node">
<title>Node29</title>
<g id="a_Node000029"><a xlink:href="a01904.html#af0b933c02a24d69c1efa40179f60288f" target="_top" xlink:title=" ">
<polygon fill="white" stroke="#666666" points="926.62,-443.5 808.62,-443.5 808.62,-425 926.62,-425 926.62,-443.5"/>
<text text-anchor="middle" x="867.62" y="-430" font-family="Helvetica,sans-Serif" font-size="10.00">arax_accel_add_vaccel</text>
</a>
</g>
</g>
<!-- Node28&#45;&gt;Node29 -->
<g id="edge30_Node000028_Node000029" class="edge">
<title>Node28&#45;&gt;Node29</title>
<g id="a_edge30_Node000028_Node000029"><a xlink:title=" ">
<path fill="none" stroke="#63b8ff" d="M954.66,-434.25C945.36,-434.25 935.96,-434.25 926.96,-434.25"/>
<polygon fill="#63b8ff" stroke="#63b8ff" points="954.52,-437.75 964.52,-434.25 954.52,-430.75 954.52,-437.75"/>
</a>
</g>
</g>
<!-- Node30 -->
<g id="Node000030" class="node">
<title>Node30</title>
<g id="a_Node000030"><a xlink:href="a02175.html#ga30b30e50de286842c7942a7e3e163578" target="_top" xlink:title=" ">
<polygon fill="white" stroke="#666666" points="764.75,-443.5 641.5,-443.5 641.5,-425 764.75,-425 764.75,-443.5"/>
<text text-anchor="middle" x="703.12" y="-430" font-family="Helvetica,sans-Serif" font-size="10.00">arax_accel_set_physical</text>
</a>
</g>
</g>
<!-- Node29&#45;&gt;Node30 -->
<g id="edge31_Node000029_Node000030" class="edge">
<title>Node29&#45;&gt;Node30</title>
<g id="a_edge31_Node000029_Node000030"><a xlink:title=" ">
<path fill="none" stroke="#63b8ff" d="M797.74,-434.25C786.94,-434.25 775.83,-434.25 765.22,-434.25"/>
<polygon fill="#63b8ff" stroke="#63b8ff" points="797.42,-437.75 807.42,-434.25 797.42,-430.75 797.42,-437.75"/>
</a>
</g>
</g>
<!-- Node31 -->
<g id="Node000031" class="node">
<title>Node31</title>
<g id="a_Node000031"><a xlink:href="a01928.html#a83ddb422946cf774c687c1ab63dcda15" target="_top" xlink:title=" ">
<polygon fill="white" stroke="#666666" points="746.38,-403.5 659.88,-403.5 659.88,-385 746.38,-385 746.38,-403.5"/>
<text text-anchor="middle" x="703.12" y="-390" font-family="Helvetica,sans-Serif" font-size="10.00">arax_vaccel_init</text>
</a>
</g>
</g>
<!-- Node29&#45;&gt;Node31 -->
<g id="edge32_Node000029_Node000031" class="edge">
<title>Node29&#45;&gt;Node31</title>
<g id="a_edge32_Node000029_Node000031"><a xlink:title=" ">
<path fill="none" stroke="#63b8ff" d="M816.82,-421.99C793.33,-416.21 765.69,-409.4 743.66,-403.98"/>
<polygon fill="#63b8ff" stroke="#63b8ff" points="815.74,-425.58 826.29,-424.57 817.41,-418.78 815.74,-425.58"/>
</a>
</g>
</g>
<!-- Node32 -->
<g id="Node000032" class="node">
<title>Node32</title>
<g id="a_Node000032"><a xlink:href="a02175.html#gaf8a10ab4e51e59c464ab3ab473e4a0f7" target="_top" xlink:title=" ">
<polygon fill="white" stroke="#666666" points="601,-440.5 474.75,-440.5 474.75,-422 601,-422 601,-440.5"/>
<text text-anchor="middle" x="537.88" y="-427" font-family="Helvetica,sans-Serif" font-size="10.00">arax_accel_acquire_phys</text>
</a>
</g>
</g>
<!-- Node31&#45;&gt;Node32 -->
<g id="edge33_Node000031_Node000032" class="edge">
<title>Node31&#45;&gt;Node32</title>
<g id="a_edge33_Node000031_Node000032"><a xlink:title=" ">
<path fill="none" stroke="#63b8ff" d="M649.22,-406.24C627.37,-411.19 602.37,-416.86 581.7,-421.54"/>
<polygon fill="#63b8ff" stroke="#63b8ff" points="649.68,-409.5 658.66,-403.87 648.13,-402.67 649.68,-409.5"/>
</a>
</g>
</g>
<!-- Node33 -->
<g id="Node000033" class="node">
<title>Node33</title>
<g id="a_Node000033"><a xlink:href="a02175.html#ga008252bb9afc2990fa2c5f4b980c9f27" target="_top" xlink:title=" ">
<polygon fill="white" stroke="#666666" points="600.25,-403.5 475.5,-403.5 475.5,-385 600.25,-385 600.25,-403.5"/>
<text text-anchor="middle" x="537.88" y="-390" font-family="Helvetica,sans-Serif" font-size="10.00">arax_accel_acquire_type</text>
</a>
</g>
</g>
<!-- Node31&#45;&gt;Node33 -->
<g id="edge34_Node000031_Node000033" class="edge">
<title>Node31&#45;&gt;Node33</title>
<g id="a_edge34_Node000031_Node000033"><a xlink:title=" ">
<path fill="none" stroke="#63b8ff" d="M648.74,-394.25C633.32,-394.25 616.37,-394.25 600.5,-394.25"/>
<polygon fill="#63b8ff" stroke="#63b8ff" points="648.66,-397.75 658.66,-394.25 648.66,-390.75 648.66,-397.75"/>
</a>
</g>
</g>
<!-- Node34 -->
<g id="Node000034" class="node">
<title>Node34</title>
<g id="a_Node000034"><a xlink:href="a01904.html#a0706a66a62ca8710342ac1c097b703ed" target="_top" xlink:title=" ">
<polygon fill="white" stroke="#666666" points="578.88,-366.5 496.88,-366.5 496.88,-348 578.88,-348 578.88,-366.5"/>
<text text-anchor="middle" x="537.88" y="-353" font-family="Helvetica,sans-Serif" font-size="10.00">arax_accel_init</text>
</a>
</g>
</g>
<!-- Node31&#45;&gt;Node34 -->
<g id="edge35_Node000031_Node000034" class="edge">
<title>Node31&#45;&gt;Node34</title>
<g id="a_edge35_Node000031_Node000034"><a xlink:title=" ">
<path fill="none" stroke="#63b8ff" d="M649.15,-382.24C626.41,-377.09 600.28,-371.17 579.16,-366.38"/>
<polygon fill="#63b8ff" stroke="#63b8ff" points="648.13,-385.83 658.66,-384.63 649.68,-379 648.13,-385.83"/>
</a>
</g>
</g>
<!-- Node36 -->
<g id="Node000036" class="node">
<title>Node36</title>
<g id="a_Node000036"><a xlink:href="a02352.html#a45a896fb606c2aa66a5a4c2af59ce494" target="_top" xlink:title=" ">
<polygon fill="white" stroke="#666666" points="1088.88,-340.5 973.88,-340.5 973.88,-322 1088.88,-322 1088.88,-340.5"/>
<text text-anchor="middle" x="1031.38" y="-327" font-family="Helvetica,sans-Serif" font-size="10.00">async_condition_notify</text>
</a>
</g>
</g>
<!-- Node35&#45;&gt;Node36 -->
<g id="edge38_Node000035_Node000036" class="edge">
<title>Node35&#45;&gt;Node36</title>
<g id="a_edge38_Node000035_Node000036"><a xlink:title=" ">
<path fill="none" stroke="#63b8ff" d="M1136.72,-306.46C1116.12,-311.36 1092.71,-316.92 1073.29,-321.53"/>
<polygon fill="#63b8ff" stroke="#63b8ff" points="1137.28,-309.69 1146.2,-303.97 1135.67,-302.88 1137.28,-309.69"/>
</a>
</g>
</g>
<!-- Node36&#45;&gt;Node2 -->
<g id="edge42_Node000036_Node000002" class="edge">
<title>Node36&#45;&gt;Node2</title>
<g id="a_edge42_Node000036_Node000002"><a xlink:title=" ">
<path fill="none" stroke="#63b8ff" d="M1015.85,-349.38C992.51,-378.4 947.51,-433.89 930,-452.25 913.47,-469.58 892.57,-487.98 879.92,-498.78"/>
<polygon fill="#63b8ff" stroke="#63b8ff" points="1019.07,-351.96 1022.6,-341.97 1013.61,-347.57 1019.07,-351.96"/>
</a>
</g>
</g>
<!-- Node36&#45;&gt;Node29 -->
<g id="edge41_Node000036_Node000029" class="edge">
<title>Node36&#45;&gt;Node29</title>
<g id="a_edge41_Node000036_Node000029"><a xlink:title=" ">
<path fill="none" stroke="#63b8ff" d="M1014.13,-348.84C995.53,-368.01 963.3,-398.32 930,-416.25 923.94,-419.51 917.21,-422.25 910.5,-424.53"/>
<polygon fill="#63b8ff" stroke="#63b8ff" points="1016.32,-351.57 1020.68,-341.91 1011.25,-346.74 1016.32,-351.57"/>
</a>
</g>
</g>
<!-- Node37 -->
<g id="Node000037" class="node">
<title>Node37</title>
<g id="a_Node000037"><a xlink:href="a01904.html#ab6afd8cc035237c811ce6a1b7727acc3" target="_top" xlink:title=" ">
<polygon fill="white" stroke="#666666" points="922.12,-359.5 813.12,-359.5 813.12,-341 922.12,-341 922.12,-359.5"/>
<text text-anchor="middle" x="867.62" y="-346" font-family="Helvetica,sans-Serif" font-size="10.00">arax_accel_add_task</text>
</a>
</g>
</g>
<!-- Node36&#45;&gt;Node37 -->
<g id="edge39_Node000036_Node000037" class="edge">
<title>Node36&#45;&gt;Node37</title>
<g id="a_edge39_Node000036_Node000037"><a xlink:title=" ">
<path fill="none" stroke="#63b8ff" d="M963.08,-339.15C949.53,-340.75 935.46,-342.4 922.45,-343.93"/>
<polygon fill="#63b8ff" stroke="#63b8ff" points="963.28,-342.54 972.8,-337.9 962.46,-335.59 963.28,-342.54"/>
</a>
</g>
</g>
<!-- Node40 -->
<g id="Node000040" class="node">
<title>Node40</title>
<g id="a_Node000040"><a xlink:href="a01898.html#a57a9203f163a9c8c78e22bde5fa4efbc" target="_top" xlink:title=" ">
<polygon fill="white" stroke="#666666" points="930,-322.5 805.25,-322.5 805.25,-304 930,-304 930,-322.5"/>
<text text-anchor="middle" x="867.62" y="-309" font-family="Helvetica,sans-Serif" font-size="10.00">arax_controller_init_done</text>
</a>
</g>
</g>
<!-- Node36&#45;&gt;Node40 -->
<g id="edge43_Node000036_Node000040" class="edge">
<title>Node36&#45;&gt;Node40</title>
<g id="a_edge43_Node000036_Node000040"><a xlink:title=" ">
<path fill="none" stroke="#63b8ff" d="M963.11,-323.76C952.27,-322.56 941.1,-321.32 930.4,-320.12"/>
<polygon fill="#63b8ff" stroke="#63b8ff" points="962.48,-327.33 972.8,-324.95 963.25,-320.37 962.48,-327.33"/>
</a>
</g>
</g>
<!-- Node41 -->
<g id="Node000041" class="node">
<title>Node41</title>
<g id="a_Node000041"><a xlink:href="a01913.html#aa4461ab1d225a0f76f08d2f37a4a7e0e" target="_top" xlink:title=" ">
<polygon fill="white" stroke="#666666" points="925.12,-406.75 810.12,-406.75 810.12,-377.75 925.12,-377.75 925.12,-406.75"/>
<text text-anchor="start" x="818.12" y="-393.25" font-family="Helvetica,sans-Serif" font-size="10.00">arax_pipe_add_orphan</text>
<text text-anchor="middle" x="867.62" y="-382.75" font-family="Helvetica,sans-Serif" font-size="10.00">_vaccel</text>
</a>
</g>
</g>
<!-- Node36&#45;&gt;Node41 -->
<g id="edge44_Node000036_Node000041" class="edge">
<title>Node36&#45;&gt;Node41</title>
<g id="a_edge44_Node000036_Node000041"><a xlink:title=" ">
<path fill="none" stroke="#63b8ff" d="M994.73,-344.69C969.18,-354.33 934.75,-367.31 908.33,-377.28"/>
<polygon fill="#63b8ff" stroke="#63b8ff" points="995.62,-347.72 1003.75,-340.92 993.15,-341.17 995.62,-347.72"/>
</a>
</g>
</g>
<!-- Node42 -->
<g id="Node000042" class="node">
<title>Node42</title>
<g id="a_Node000042"><a xlink:href="a01913.html#a6cb53dd71cfaedb214bc5aef0e572cc2" target="_top" xlink:title=" ">
<polygon fill="white" stroke="#666666" points="926.62,-285.5 808.62,-285.5 808.62,-267 926.62,-267 926.62,-285.5"/>
<text text-anchor="middle" x="867.62" y="-272" font-family="Helvetica,sans-Serif" font-size="10.00">arax_pipe_orphan_stop</text>
</a>
</g>
</g>
<!-- Node36&#45;&gt;Node42 -->
<g id="edge46_Node000036_Node000042" class="edge">
<title>Node36&#45;&gt;Node42</title>
<g id="a_edge46_Node000036_Node000042"><a xlink:title=" ">
<path fill="none" stroke="#63b8ff" d="M994.17,-317.83C975.14,-310.88 951.38,-302.39 930,-295.25 920.58,-292.11 910.3,-288.85 900.88,-285.94"/>
<polygon fill="#63b8ff" stroke="#63b8ff" points="992.89,-321.46 1003.49,-321.61 995.3,-314.88 992.89,-321.46"/>
</a>
</g>
</g>
<!-- Node43 -->
<g id="Node000043" class="node">
<title>Node43</title>
<g id="a_Node000043"><a xlink:href="a01925.html#a22aaf13eb56eb1832e725ef73236116f" target="_top" xlink:title=" ">
<polygon fill="white" stroke="#666666" points="923.25,-248.5 812,-248.5 812,-230 923.25,-230 923.25,-248.5"/>
<text text-anchor="middle" x="867.62" y="-235" font-family="Helvetica,sans-Serif" font-size="10.00">arax_throttle_size_inc</text>
</a>
</g>
</g>
<!-- Node36&#45;&gt;Node43 -->
<g id="edge47_Node000036_Node000043" class="edge">
<title>Node36&#45;&gt;Node43</title>
<g id="a_edge47_Node000036_Node000043"><a xlink:title=" ">
<path fill="none" stroke="#63b8ff" d="M1011.51,-314.58C992.21,-298.26 960.77,-273.67 930,-258.25 922.72,-254.6 914.6,-251.49 906.71,-248.9"/>
<polygon fill="#63b8ff" stroke="#63b8ff" points="1008.86,-317.77 1018.72,-321.64 1013.42,-312.46 1008.86,-317.77"/>
</a>
</g>
</g>
<!-- Node38 -->
<g id="Node000038" class="node">
<title>Node38</title>
<g id="a_Node000038"><a xlink:href="a01928.html#a8b82433bc8c7d7f03683ac521a3679fa" target="_top" xlink:title=" ">
<polygon fill="#fff0f0" stroke="red" points="759.88,-359.5 646.38,-359.5 646.38,-341 759.88,-341 759.88,-359.5"/>
<text text-anchor="middle" x="703.12" y="-346" font-family="Helvetica,sans-Serif" font-size="10.00">arax_vaccel_add_task</text>
</a>
</g>
</g>
<!-- Node37&#45;&gt;Node38 -->
<g id="edge40_Node000037_Node000038" class="edge">
<title>Node37&#45;&gt;Node38</title>
<g id="a_edge40_Node000037_Node000038"><a xlink:title=" ">
<path fill="none" stroke="#63b8ff" d="M802.05,-350.25C788.22,-350.25 773.72,-350.25 760.24,-350.25"/>
<polygon fill="#63b8ff" stroke="#63b8ff" points="801.97,-353.75 811.97,-350.25 801.97,-346.75 801.97,-353.75"/>
</a>
</g>
</g>
<!-- Node41&#45;&gt;Node31 -->
<g id="edge45_Node000041_Node000031" class="edge">
<title>Node41&#45;&gt;Node31</title>
<g id="a_edge45_Node000041_Node000031"><a xlink:title=" ">
<path fill="none" stroke="#63b8ff" d="M798.95,-393.08C781.31,-393.3 762.78,-393.53 746.84,-393.72"/>
<polygon fill="#63b8ff" stroke="#63b8ff" points="798.83,-396.57 808.79,-392.95 798.75,-389.57 798.83,-396.57"/>
</a>
</g>
</g>
<!-- Node44 -->
<g id="Node000044" class="node">
<title>Node44</title>
<g id="a_Node000044"><a xlink:href="a01904.html#a9443355ad3d09b08427e538d75cab254" target="_top" xlink:title=" ">
<polygon fill="white" stroke="#666666" points="755.38,-266.5 650.88,-266.5 650.88,-248 755.38,-248 755.38,-266.5"/>
<text text-anchor="middle" x="703.12" y="-253" font-family="Helvetica,sans-Serif" font-size="10.00">arax_accel_size_inc</text>
</a>
</g>
</g>
<!-- Node43&#45;&gt;Node44 -->
<g id="edge48_Node000043_Node000044" class="edge">
<title>Node43&#45;&gt;Node44</title>
<g id="a_edge48_Node000043_Node000044"><a xlink:title=" ">
<path fill="none" stroke="#63b8ff" d="M800.85,-246.54C785.84,-248.2 770.11,-249.94 755.79,-251.53"/>
<polygon fill="#63b8ff" stroke="#63b8ff" points="801.06,-249.92 810.61,-245.34 800.29,-242.97 801.06,-249.92"/>
</a>
</g>
</g>
<!-- Node45 -->
<g id="Node000045" class="node">
<title>Node45</title>
<g id="a_Node000045"><a xlink:href="a01913.html#a5144f906658718ef853a8d18dda1e724" target="_top" xlink:title=" ">
<polygon fill="white" stroke="#666666" points="752.75,-192.5 653.5,-192.5 653.5,-174 752.75,-174 752.75,-192.5"/>
<text text-anchor="middle" x="703.12" y="-179" font-family="Helvetica,sans-Serif" font-size="10.00">arax_pipe_size_inc</text>
</a>
</g>
</g>
<!-- Node43&#45;&gt;Node45 -->
<g id="edge49_Node000043_Node000045" class="edge">
<title>Node43&#45;&gt;Node45</title>
<g id="a_edge49_Node000043_Node000045"><a xlink:title=" ">
<path fill="none" stroke="#63b8ff" d="M828.36,-226.06C798.88,-215.9 758.81,-202.09 732.24,-192.94"/>
<polygon fill="#63b8ff" stroke="#63b8ff" points="827.1,-229.67 837.69,-229.62 829.38,-223.06 827.1,-229.67"/>
</a>
</g>
</g>
<!-- Node45&#45;&gt;Node4 -->
<g id="edge50_Node000045_Node000004" class="edge">
<title>Node45&#45;&gt;Node4</title>
<g id="a_edge50_Node000045_Node000004"><a xlink:title=" ">
<path fill="none" stroke="#63b8ff" d="M648.54,-195.39C626.88,-200.3 602.21,-205.9 581.76,-210.53"/>
<polygon fill="#63b8ff" stroke="#63b8ff" points="649.25,-198.6 658.23,-192.97 647.71,-191.77 649.25,-198.6"/>
</a>
</g>
</g>
<!-- Node45&#45;&gt;Node25 -->
<g id="edge51_Node000045_Node000025" class="edge">
<title>Node45&#45;&gt;Node25</title>
<g id="a_edge51_Node000045_Node000025"><a xlink:title=" ">
<path fill="none" stroke="#63b8ff" d="M648.54,-171.1C629.88,-166.87 608.99,-162.14 590.49,-157.95"/>
<polygon fill="#63b8ff" stroke="#63b8ff" points="647.71,-174.73 658.23,-173.53 649.25,-167.9 647.71,-174.73"/>
</a>
</g>
</g>
<!-- Node47 -->
<g id="Node000047" class="node">
<title>Node47</title>
<g id="a_Node000047"><a xlink:href="a02352.html#adbaa29dfccfdfe6e3fe69a1d001c05b5" target="_top" xlink:title=" ">
<polygon fill="white" stroke="#666666" points="1091.88,-118.5 970.88,-118.5 970.88,-100 1091.88,-100 1091.88,-118.5"/>
<text text-anchor="middle" x="1031.38" y="-105" font-family="Helvetica,sans-Serif" font-size="10.00">async_meta_init_always</text>
</a>
</g>
</g>
<!-- Node46&#45;&gt;Node47 -->
<g id="edge53_Node000046_Node000047" class="edge">
<title>Node46&#45;&gt;Node47</title>
<g id="a_edge53_Node000046_Node000047"><a xlink:title=" ">
<path fill="none" stroke="#63b8ff" d="M1141.15,-109.25C1125.71,-109.25 1108.34,-109.25 1092.09,-109.25"/>
<polygon fill="#63b8ff" stroke="#63b8ff" points="1141,-112.75 1151,-109.25 1141,-105.75 1141,-112.75"/>
</a>
</g>
</g>
<!-- Node48 -->
<g id="Node000048" class="node">
<title>Node48</title>
<g id="a_Node000048"><a xlink:href="a01898.html#a02fd608f651d254148dc74f0ae371dfe" target="_top" xlink:title=" ">
<polygon fill="#fff0f0" stroke="red" points="897,-115.5 838.25,-115.5 838.25,-97 897,-97 897,-115.5"/>
<text text-anchor="middle" x="867.62" y="-102" font-family="Helvetica,sans-Serif" font-size="10.00">_arax_init</text>
</a>
</g>
</g>
<!-- Node47&#45;&gt;Node48 -->
<g id="edge54_Node000047_Node000048" class="edge">
<title>Node47&#45;&gt;Node48</title>
<g id="a_edge54_Node000047_Node000048"><a xlink:title=" ">
<path fill="none" stroke="#63b8ff" d="M959.61,-107.94C937.68,-107.53 914.74,-107.11 897.38,-106.78"/>
<polygon fill="#63b8ff" stroke="#63b8ff" points="959.54,-111.46 969.6,-108.14 959.67,-104.46 959.54,-111.46"/>
</a>
</g>
</g>
<!-- Node49 -->
<g id="Node000049" class="node">
<title>Node49</title>
<g id="a_Node000049"><a xlink:href="a01898.html#aa6e4832b06bd5757be4502d2de7b3026" target="_top" xlink:title=" ">
<polygon fill="white" stroke="#666666" points="752.38,-117.75 653.88,-117.75 653.88,-88.75 752.38,-88.75 752.38,-117.75"/>
<text text-anchor="start" x="661.88" y="-104.25" font-family="Helvetica,sans-Serif" font-size="10.00">arax_controller_init</text>
<text text-anchor="middle" x="703.12" y="-93.75" font-family="Helvetica,sans-Serif" font-size="10.00">_start</text>
</a>
</g>
</g>
<!-- Node48&#45;&gt;Node49 -->
<g id="edge55_Node000048_Node000049" class="edge">
<title>Node48&#45;&gt;Node49</title>
<g id="a_edge55_Node000048_Node000049"><a xlink:title=" ">
<path fill="none" stroke="#63b8ff" d="M827.12,-105.52C804.66,-105.11 776.36,-104.58 752.57,-104.14"/>
<polygon fill="#63b8ff" stroke="#63b8ff" points="826.88,-109.04 836.95,-105.72 827.01,-102.04 826.88,-109.04"/>
</a>
</g>
</g>
<!-- Node57 -->
<g id="Node000057" class="node">
<title>Node57</title>
<g id="a_Node000057"><a xlink:href="a01913.html#a8ff14a859f9b7a34676c2fcdb762386b" target="_top" xlink:title=" ">
<polygon fill="white" stroke="#666666" points="1087.75,-81.75 975,-81.75 975,-52.75 1087.75,-52.75 1087.75,-81.75"/>
<text text-anchor="start" x="983" y="-68.25" font-family="Helvetica,sans-Serif" font-size="10.00">arax_pipe_get_orphan</text>
<text text-anchor="middle" x="1031.38" y="-57.75" font-family="Helvetica,sans-Serif" font-size="10.00">_vaccel</text>
</a>
</g>
</g>
<!-- Node56&#45;&gt;Node57 -->
<g id="edge57_Node000056_Node000057" class="edge">
<title>Node56&#45;&gt;Node57</title>
<g id="a_edge57_Node000056_Node000057"><a xlink:title=" ">
<path fill="none" stroke="#63b8ff" d="M1128.37,-70.33C1115.14,-69.91 1101.18,-69.46 1088.12,-69.04"/>
<polygon fill="#63b8ff" stroke="#63b8ff" points="1128.16,-73.86 1138.27,-70.68 1128.39,-66.86 1128.16,-73.86"/>
</a>
</g>
</g>
</g>
</svg>
