<?xml version="1.0" encoding="UTF-8" standalone="no"?>
<!DOCTYPE svg PUBLIC "-//W3C//DTD SVG 1.1//EN"
 "http://www.w3.org/Graphics/SVG/1.1/DTD/svg11.dtd">
<!-- Generated by graphviz version 8.0.5 (0)
 -->
<!-- Title: arax_types.h Pages: 1 -->
<svg width="1020pt" height="408pt"
 viewBox="0.00 0.00 1019.62 408.00" xmlns="http://www.w3.org/2000/svg" xmlns:xlink="http://www.w3.org/1999/xlink">
<g id="graph0" class="graph" transform="scale(1 1) rotate(0) translate(4 404)">
<title>arax_types.h</title>
<!-- Node1 -->
<g id="Node000001" class="node">
<title>Node1</title>
<g id="a_Node000001"><a xlink:title=" ">
<polygon fill="#999999" stroke="#666666" points="500.88,-400 427.88,-400 427.88,-381.5 500.88,-381.5 500.88,-400"/>
<text text-anchor="middle" x="464.38" y="-386.5" font-family="Helvetica,sans-Serif" font-size="10.00">arax_types.h</text>
</a>
</g>
</g>
<!-- Node2 -->
<g id="Node000002" class="node">
<title>Node2</title>
<g id="a_Node000002"><a xlink:href="a01355.html" target="_top" xlink:title=" ">
<polygon fill="white" stroke="#666666" points="102.62,-345.5 58.12,-345.5 58.12,-327 102.62,-327 102.62,-345.5"/>
<text text-anchor="middle" x="80.38" y="-332" font-family="Helvetica,sans-Serif" font-size="10.00">alloc.h</text>
</a>
</g>
</g>
<!-- Node1&#45;&gt;Node2 -->
<g id="edge1_Node000001_Node000002" class="edge">
<title>Node1&#45;&gt;Node2</title>
<g id="a_edge1_Node000001_Node000002"><a xlink:title=" ">
<path fill="none" stroke="#63b8ff" d="M416.86,-383.25C333.44,-371.85 163.73,-348.65 102.79,-340.31"/>
<polygon fill="#63b8ff" stroke="#63b8ff" points="416.17,-386.83 426.56,-384.72 417.12,-379.89 416.17,-386.83"/>
</a>
</g>
</g>
<!-- Node5 -->
<g id="Node000005" class="node">
<title>Node5</title>
<g id="a_Node000005"><a xlink:href="a01346.html" target="_top" xlink:title=" ">
<polygon fill="white" stroke="#666666" points="525.88,-291 482.88,-291 482.88,-272.5 525.88,-272.5 525.88,-291"/>
<text text-anchor="middle" x="504.38" y="-277.5" font-family="Helvetica,sans-Serif" font-size="10.00">arax.h</text>
</a>
</g>
</g>
<!-- Node1&#45;&gt;Node5 -->
<g id="edge4_Node000001_Node000005" class="edge">
<title>Node1&#45;&gt;Node5</title>
<g id="a_edge4_Node000001_Node000005"><a xlink:title=" ">
<path fill="none" stroke="#63b8ff" d="M451.66,-372.13C444.01,-359.22 437.05,-341.5 444.38,-327 452.66,-310.59 470.21,-298.77 484.21,-291.5"/>
<polygon fill="#63b8ff" stroke="#63b8ff" points="449.27,-373.86 457.68,-380.3 455.12,-370.02 449.27,-373.86"/>
</a>
</g>
</g>
<!-- Node25 -->
<g id="Node000025" class="node">
<title>Node25</title>
<g id="a_Node000025"><a xlink:href="a01907.html" target="_top" xlink:title=" ">
<polygon fill="white" stroke="#666666" points="675.12,-345.5 573.62,-345.5 573.62,-327 675.12,-327 675.12,-345.5"/>
<text text-anchor="middle" x="624.38" y="-332" font-family="Helvetica,sans-Serif" font-size="10.00">arax_accel_types.c</text>
</a>
</g>
</g>
<!-- Node1&#45;&gt;Node25 -->
<g id="edge43_Node000001_Node000025" class="edge">
<title>Node1&#45;&gt;Node25</title>
<g id="a_edge43_Node000001_Node000025"><a xlink:title=" ">
<path fill="none" stroke="#63b8ff" d="M501.13,-377.69C530.68,-367.99 571.5,-354.6 597.92,-345.93"/>
<polygon fill="#63b8ff" stroke="#63b8ff" points="500.21,-374.64 491.8,-381.08 502.39,-381.29 500.21,-374.64"/>
</a>
</g>
</g>
<!-- Node26 -->
<g id="Node000026" class="node">
<title>Node26</title>
<g id="a_Node000026"><a xlink:href="a01394.html" target="_top" xlink:title=" ">
<polygon fill="white" stroke="#666666" points="555.12,-345.5 453.62,-345.5 453.62,-327 555.12,-327 555.12,-345.5"/>
<text text-anchor="middle" x="504.38" y="-332" font-family="Helvetica,sans-Serif" font-size="10.00">arax_accel_types.h</text>
</a>
</g>
</g>
<!-- Node1&#45;&gt;Node26 -->
<g id="edge44_Node000001_Node000026" class="edge">
<title>Node1&#45;&gt;Node26</title>
<g id="a_edge44_Node000001_Node000026"><a xlink:title=" ">
<path fill="none" stroke="#63b8ff" d="M477.5,-372.52C484.34,-363.54 492.4,-352.97 497.89,-345.76"/>
<polygon fill="#63b8ff" stroke="#63b8ff" points="474.26,-370.01 470.98,-380.08 479.82,-374.25 474.26,-370.01"/>
</a>
</g>
</g>
<!-- Node3 -->
<g id="Node000003" class="node">
<title>Node3</title>
<g id="a_Node000003"><a xlink:href="a01940.html" target="_top" xlink:title=" ">
<polygon fill="white" stroke="#666666" points="128.38,-73 64.38,-73 64.38,-54.5 128.38,-54.5 128.38,-73"/>
<text text-anchor="middle" x="96.38" y="-59.5" font-family="Helvetica,sans-Serif" font-size="10.00">arax_plot.c</text>
</a>
</g>
</g>
<!-- Node2&#45;&gt;Node3 -->
<g id="edge2_Node000002_Node000003" class="edge">
<title>Node2&#45;&gt;Node3</title>
<g id="a_edge2_Node000002_Node000003"><a xlink:title=" ">
<path fill="none" stroke="#63b8ff" d="M80.38,-315.8C80.38,-294.35 80.38,-258.84 80.38,-228.25 80.38,-228.25 80.38,-228.25 80.38,-171.75 80.38,-134.75 89.85,-91.33 94.22,-73.28"/>
<polygon fill="#63b8ff" stroke="#63b8ff" points="76.88,-315.65 80.38,-325.65 83.88,-315.65 76.88,-315.65"/>
</a>
</g>
</g>
<!-- Node4 -->
<g id="Node000004" class="node">
<title>Node4</title>
<g id="a_Node000004"><a xlink:href="a01889.html" target="_top" xlink:title=" ">
<polygon fill="white" stroke="#666666" points="52.75,-291 0,-291 0,-272.5 52.75,-272.5 52.75,-291"/>
<text text-anchor="middle" x="26.38" y="-277.5" font-family="Helvetica,sans-Serif" font-size="10.00">malloc.c</text>
</a>
</g>
</g>
<!-- Node2&#45;&gt;Node4 -->
<g id="edge3_Node000002_Node000004" class="edge">
<title>Node2&#45;&gt;Node4</title>
<g id="a_edge3_Node000002_Node000004"><a xlink:title=" ">
<path fill="none" stroke="#63b8ff" d="M63.81,-319.14C54.34,-309.94 42.86,-298.77 35.13,-291.26"/>
<polygon fill="#63b8ff" stroke="#63b8ff" points="60.85,-321.12 70.46,-325.58 65.73,-316.1 60.85,-321.12"/>
</a>
</g>
</g>
<!-- Node6 -->
<g id="Node000006" class="node">
<title>Node6</title>
<g id="a_Node000006"><a xlink:href="a01391.html" target="_top" xlink:title=" ">
<polygon fill="white" stroke="#666666" points="352.5,-182 280.25,-182 280.25,-163.5 352.5,-163.5 352.5,-182"/>
<text text-anchor="middle" x="316.38" y="-168.5" font-family="Helvetica,sans-Serif" font-size="10.00">arax_accel.h</text>
</a>
</g>
</g>
<!-- Node5&#45;&gt;Node6 -->
<g id="edge5_Node000005_Node000006" class="edge">
<title>Node5&#45;&gt;Node6</title>
<g id="a_edge5_Node000005_Node000006"><a xlink:title=" ">
<path fill="none" stroke="#63b8ff" d="M471.65,-275.46C442.58,-269.58 399.92,-257.93 368.38,-236.5 346.84,-221.87 329.4,-195.85 321.29,-182.38"/>
<polygon fill="#63b8ff" stroke="#63b8ff" points="470.98,-279.09 481.45,-277.51 472.28,-272.21 470.98,-279.09"/>
</a>
</g>
</g>
<!-- Node7 -->
<g id="Node000007" class="node">
<title>Node7</title>
<g id="a_Node000007"><a xlink:href="a01397.html" target="_top" xlink:title=" ">
<polygon fill="white" stroke="#666666" points="748.25,-127.5 680.5,-127.5 680.5,-109 748.25,-109 748.25,-127.5"/>
<text text-anchor="middle" x="714.38" y="-114" font-family="Helvetica,sans-Serif" font-size="10.00">arax_data.h</text>
</a>
</g>
</g>
<!-- Node5&#45;&gt;Node7 -->
<g id="edge26_Node000005_Node000007" class="edge">
<title>Node5&#45;&gt;Node7</title>
<g id="a_edge26_Node000005_Node000007"><a xlink:title=" ">
<path fill="none" stroke="#63b8ff" d="M524.19,-265.51C567.4,-232.28 668.98,-154.16 703.03,-127.98"/>
<polygon fill="#63b8ff" stroke="#63b8ff" points="522.46,-263.2 516.67,-272.07 526.73,-268.75 522.46,-263.2"/>
</a>
</g>
</g>
<!-- Node11 -->
<g id="Node000011" class="node">
<title>Node11</title>
<g id="a_Node000011"><a xlink:href="a01922.html" target="_top" xlink:title=" ">
<polygon fill="white" stroke="#666666" points="889.25,-73 821.5,-73 821.5,-54.5 889.25,-54.5 889.25,-73"/>
<text text-anchor="middle" x="855.38" y="-59.5" font-family="Helvetica,sans-Serif" font-size="10.00">arax_task.c</text>
</a>
</g>
</g>
<!-- Node5&#45;&gt;Node11 -->
<g id="edge37_Node000005_Node000011" class="edge">
<title>Node5&#45;&gt;Node11</title>
<g id="a_edge37_Node000005_Node000011"><a xlink:title=" ">
<path fill="none" stroke="#63b8ff" d="M530.96,-267.27C547.4,-258.76 568.82,-247.37 587.38,-236.5 687.99,-177.57 804.81,-99.11 842.77,-73.34"/>
<polygon fill="#63b8ff" stroke="#63b8ff" points="529.74,-264.47 522.44,-272.16 532.94,-270.7 529.74,-264.47"/>
</a>
</g>
</g>
<!-- Node12 -->
<g id="Node000012" class="node">
<title>Node12</title>
<g id="a_Node000012"><a xlink:href="a01898.html" target="_top" xlink:title=" ">
<polygon fill="white" stroke="#666666" points="949.5,-73 907.25,-73 907.25,-54.5 949.5,-54.5 949.5,-73"/>
<text text-anchor="middle" x="928.38" y="-59.5" font-family="Helvetica,sans-Serif" font-size="10.00">impl.c</text>
</a>
</g>
</g>
<!-- Node5&#45;&gt;Node12 -->
<g id="edge38_Node000005_Node000012" class="edge">
<title>Node5&#45;&gt;Node12</title>
<g id="a_edge38_Node000005_Node000012"><a xlink:title=" ">
<path fill="none" stroke="#63b8ff" d="M536.82,-279.95C609.71,-277.6 783.72,-268.69 831.38,-236.5 892.39,-195.29 919.34,-102.16 926.4,-73.38"/>
<polygon fill="#63b8ff" stroke="#63b8ff" points="536.92,-276.48 527.03,-280.28 537.13,-283.48 536.92,-276.48"/>
</a>
</g>
</g>
<!-- Node13 -->
<g id="Node000013" class="node">
<title>Node13</title>
<g id="a_Node000013"><a xlink:href="a01349.html" target="_top" xlink:title=" ">
<polygon fill="white" stroke="#666666" points="475.88,-127.5 408.88,-127.5 408.88,-109 475.88,-109 475.88,-127.5"/>
<text text-anchor="middle" x="442.38" y="-114" font-family="Helvetica,sans-Serif" font-size="10.00">arax_pipe.h</text>
</a>
</g>
</g>
<!-- Node5&#45;&gt;Node13 -->
<g id="edge27_Node000005_Node000013" class="edge">
<title>Node5&#45;&gt;Node13</title>
<g id="a_edge27_Node000005_Node000013"><a xlink:title=" ">
<path fill="none" stroke="#63b8ff" d="M504.73,-261.4C504.41,-237.23 501.31,-195.19 485.38,-163.5 477.96,-148.76 463.91,-135.74 453.89,-127.71"/>
<polygon fill="#63b8ff" stroke="#63b8ff" points="501.22,-261.26 504.69,-271.27 508.22,-261.28 501.22,-261.26"/>
</a>
</g>
</g>
<!-- Node19 -->
<g id="Node000019" class="node">
<title>Node19</title>
<g id="a_Node000019"><a xlink:href="a01364.html" target="_top" xlink:title=" ">
<polygon fill="white" stroke="#666666" points="261.38,-236.5 197.38,-236.5 197.38,-218 261.38,-218 261.38,-236.5"/>
<text text-anchor="middle" x="229.38" y="-223" font-family="Helvetica,sans-Serif" font-size="10.00">arax_plot.h</text>
</a>
</g>
</g>
<!-- Node5&#45;&gt;Node19 -->
<g id="edge28_Node000005_Node000019" class="edge">
<title>Node5&#45;&gt;Node19</title>
<g id="a_edge28_Node000005_Node000019"><a xlink:title=" ">
<path fill="none" stroke="#63b8ff" d="M472.01,-274.57C419.06,-264.46 314.51,-244.5 261.63,-234.41"/>
<polygon fill="#63b8ff" stroke="#63b8ff" points="471.32,-278.19 481.8,-276.63 472.63,-271.32 471.32,-278.19"/>
</a>
</g>
</g>
<!-- Node20 -->
<g id="Node000020" class="node">
<title>Node20</title>
<g id="a_Node000020"><a xlink:href="a01406.html" target="_top" xlink:title=" ">
<polygon fill="white" stroke="#666666" points="445.25,-236.5 377.5,-236.5 377.5,-218 445.25,-218 445.25,-236.5"/>
<text text-anchor="middle" x="411.38" y="-223" font-family="Helvetica,sans-Serif" font-size="10.00">arax_proc.h</text>
</a>
</g>
</g>
<!-- Node5&#45;&gt;Node20 -->
<g id="edge30_Node000005_Node000020" class="edge">
<title>Node5&#45;&gt;Node20</title>
<g id="a_edge30_Node000005_Node000020"><a xlink:title=" ">
<path fill="none" stroke="#63b8ff" d="M479.78,-266.86C462.95,-257.37 441.17,-245.07 426.75,-236.93"/>
<polygon fill="#63b8ff" stroke="#63b8ff" points="477.59,-270.21 488.02,-272.08 481.03,-264.12 477.59,-270.21"/>
</a>
</g>
</g>
<!-- Node23 -->
<g id="Node000023" class="node">
<title>Node23</title>
<g id="a_Node000023"><a xlink:href="a01388.html" target="_top" xlink:title=" ">
<polygon fill="white" stroke="#666666" points="883.38,-127.5 837.38,-127.5 837.38,-109 883.38,-109 883.38,-127.5"/>
<text text-anchor="middle" x="860.38" y="-114" font-family="Helvetica,sans-Serif" font-size="10.00">timer.h</text>
</a>
</g>
</g>
<!-- Node5&#45;&gt;Node23 -->
<g id="edge39_Node000005_Node000023" class="edge">
<title>Node5&#45;&gt;Node23</title>
<g id="a_edge39_Node000005_Node000023"><a xlink:title=" ">
<path fill="none" stroke="#63b8ff" d="M536.79,-279.95C606.35,-277.62 767.08,-268.8 809.38,-236.5 845.71,-208.74 856.59,-149.74 859.46,-127.74"/>
<polygon fill="#63b8ff" stroke="#63b8ff" points="536.94,-276.47 527.05,-280.28 537.16,-283.47 536.94,-276.47"/>
</a>
</g>
</g>
<!-- Node6&#45;&gt;Node7 -->
<g id="edge6_Node000006_Node000007" class="edge">
<title>Node6&#45;&gt;Node7</title>
<g id="a_edge6_Node000006_Node000007"><a xlink:title=" ">
<path fill="none" stroke="#63b8ff" d="M363.64,-165.51C444.87,-154.8 609.07,-133.14 680.21,-123.76"/>
<polygon fill="#63b8ff" stroke="#63b8ff" points="363.21,-162.17 353.75,-166.95 364.12,-169.11 363.21,-162.17"/>
</a>
</g>
</g>
<!-- Node10 -->
<g id="Node000010" class="node">
<title>Node10</title>
<g id="a_Node000010"><a xlink:href="a01910.html" target="_top" xlink:title=" ">
<polygon fill="white" stroke="#666666" points="258.62,-73 184.12,-73 184.12,-54.5 258.62,-54.5 258.62,-73"/>
<text text-anchor="middle" x="221.38" y="-59.5" font-family="Helvetica,sans-Serif" font-size="10.00">arax_object.c</text>
</a>
</g>
</g>
<!-- Node6&#45;&gt;Node10 -->
<g id="edge13_Node000006_Node000010" class="edge">
<title>Node6&#45;&gt;Node10</title>
<g id="a_edge13_Node000006_Node000010"><a xlink:title=" ">
<path fill="none" stroke="#63b8ff" d="M324.37,-153.3C328.82,-139.94 331.93,-122.03 323.38,-109 309.18,-87.37 281.9,-76.26 259.12,-70.59"/>
<polygon fill="#63b8ff" stroke="#63b8ff" points="320.87,-151.64 320.54,-162.23 327.4,-154.16 320.87,-151.64"/>
</a>
</g>
</g>
<!-- Node6&#45;&gt;Node13 -->
<g id="edge14_Node000006_Node000013" class="edge">
<title>Node6&#45;&gt;Node13</title>
<g id="a_edge14_Node000006_Node000013"><a xlink:title=" ">
<path fill="none" stroke="#63b8ff" d="M347.17,-158.92C370.28,-149.29 401.28,-136.37 421.54,-127.93"/>
<polygon fill="#63b8ff" stroke="#63b8ff" points="346.07,-156 338.18,-163.08 348.76,-162.47 346.07,-156"/>
</a>
</g>
</g>
<!-- Node18 -->
<g id="Node000018" class="node">
<title>Node18</title>
<g id="a_Node000018"><a xlink:href="a01418.html" target="_top" xlink:title=" ">
<polygon fill="white" stroke="#666666" points="314.75,-127.5 238,-127.5 238,-109 314.75,-109 314.75,-127.5"/>
<text text-anchor="middle" x="276.38" y="-114" font-family="Helvetica,sans-Serif" font-size="10.00">arax_vaccel.h</text>
</a>
</g>
</g>
<!-- Node6&#45;&gt;Node18 -->
<g id="edge24_Node000006_Node000018" class="edge">
<title>Node6&#45;&gt;Node18</title>
<g id="a_edge24_Node000006_Node000018"><a xlink:title=" ">
<path fill="none" stroke="#63b8ff" d="M297.34,-155.08C289.59,-145.99 281.71,-135.12 277.73,-127.76"/>
<polygon fill="#63b8ff" stroke="#63b8ff" points="294.29,-157.03 303.6,-162.08 299.47,-152.32 294.29,-157.03"/>
</a>
</g>
</g>
<!-- Node8 -->
<g id="Node000008" class="node">
<title>Node8</title>
<g id="a_Node000008"><a xlink:href="a01931.html" target="_top" xlink:title=" ">
<polygon fill="white" stroke="#666666" points="534.25,-18.5 466.5,-18.5 466.5,0 534.25,0 534.25,-18.5"/>
<text text-anchor="middle" x="500.38" y="-5" font-family="Helvetica,sans-Serif" font-size="10.00">arax_data.c</text>
</a>
</g>
</g>
<!-- Node7&#45;&gt;Node8 -->
<g id="edge7_Node000007_Node000008" class="edge">
<title>Node7&#45;&gt;Node8</title>
<g id="a_edge7_Node000007_Node000008"><a xlink:title=" ">
<path fill="none" stroke="#63b8ff" d="M742.82,-103.55C764.87,-91.12 789.36,-72.09 774.38,-54.5 743.96,-18.77 601.25,-11.8 534.7,-10.5"/>
<polygon fill="#63b8ff" stroke="#63b8ff" points="741.51,-100.82 734.33,-108.61 744.8,-107 741.51,-100.82"/>
</a>
</g>
</g>
<!-- Node9 -->
<g id="Node000009" class="node">
<title>Node9</title>
<g id="a_Node000009"><a xlink:href="a01400.html" target="_top" xlink:title=" ">
<polygon fill="white" stroke="#666666" points="765.12,-73 663.62,-73 663.62,-54.5 765.12,-54.5 765.12,-73"/>
<text text-anchor="middle" x="714.38" y="-59.5" font-family="Helvetica,sans-Serif" font-size="10.00">arax_data_private.h</text>
</a>
</g>
</g>
<!-- Node7&#45;&gt;Node9 -->
<g id="edge8_Node000007_Node000009" class="edge">
<title>Node7&#45;&gt;Node9</title>
<g id="a_edge8_Node000007_Node000009"><a xlink:title=" ">
<path fill="none" stroke="#63b8ff" d="M714.38,-97.72C714.38,-89.29 714.38,-79.86 714.38,-73.26"/>
<polygon fill="#63b8ff" stroke="#63b8ff" points="710.88,-97.58 714.38,-107.58 717.88,-97.58 710.88,-97.58"/>
</a>
</g>
</g>
<!-- Node7&#45;&gt;Node10 -->
<g id="edge10_Node000007_Node000010" class="edge">
<title>Node7&#45;&gt;Node10</title>
<g id="a_edge10_Node000007_Node000010"><a xlink:title=" ">
<path fill="none" stroke="#63b8ff" d="M669.27,-112.45C572.92,-102.19 348.49,-78.29 259.1,-68.77"/>
<polygon fill="#63b8ff" stroke="#63b8ff" points="668.79,-116.02 679.1,-113.6 669.53,-109.06 668.79,-116.02"/>
</a>
</g>
</g>
<!-- Node7&#45;&gt;Node11 -->
<g id="edge11_Node000007_Node000011" class="edge">
<title>Node7&#45;&gt;Node11</title>
<g id="a_edge11_Node000007_Node000011"><a xlink:title=" ">
<path fill="none" stroke="#63b8ff" d="M747.8,-104.81C773.75,-95.14 809.08,-81.99 832.06,-73.43"/>
<polygon fill="#63b8ff" stroke="#63b8ff" points="746.81,-101.81 738.66,-108.58 749.25,-108.37 746.81,-101.81"/>
</a>
</g>
</g>
<!-- Node7&#45;&gt;Node12 -->
<g id="edge12_Node000007_Node000012" class="edge">
<title>Node7&#45;&gt;Node12</title>
<g id="a_edge12_Node000007_Node000012"><a xlink:title=" ">
<path fill="none" stroke="#63b8ff" d="M759.23,-106.89C796.55,-98.17 851.03,-85.2 898.38,-73 901.1,-72.3 903.95,-71.54 906.77,-70.78"/>
<polygon fill="#63b8ff" stroke="#63b8ff" points="758.65,-103.66 749.71,-109.34 760.24,-110.48 758.65,-103.66"/>
</a>
</g>
</g>
<!-- Node9&#45;&gt;Node8 -->
<g id="edge9_Node000009_Node000008" class="edge">
<title>Node9&#45;&gt;Node8</title>
<g id="a_edge9_Node000009_Node000008"><a xlink:title=" ">
<path fill="none" stroke="#63b8ff" d="M668.46,-51.49C628.33,-41.64 570.96,-27.57 534.7,-18.67"/>
<polygon fill="#63b8ff" stroke="#63b8ff" points="667.49,-55.1 678.04,-54.08 669.16,-48.3 667.49,-55.1"/>
</a>
</g>
</g>
<!-- Node13&#45;&gt;Node3 -->
<g id="edge19_Node000013_Node000003" class="edge">
<title>Node13&#45;&gt;Node3</title>
<g id="a_edge19_Node000013_Node000003"><a xlink:title=" ">
<path fill="none" stroke="#63b8ff" d="M397.81,-110.49C327.13,-99.76 190.99,-79.11 128.8,-69.67"/>
<polygon fill="#63b8ff" stroke="#63b8ff" points="397.16,-114.08 407.57,-112.12 398.21,-107.16 397.16,-114.08"/>
</a>
</g>
</g>
<!-- Node13&#45;&gt;Node8 -->
<g id="edge16_Node000013_Node000008" class="edge">
<title>Node13&#45;&gt;Node8</title>
<g id="a_edge16_Node000013_Node000008"><a xlink:title=" ">
<path fill="none" stroke="#63b8ff" d="M397.99,-108.78C362.36,-100.97 316.51,-88.29 305.38,-73 300.54,-66.35 300.24,-60.93 305.38,-54.5 325.14,-29.75 415.83,-17.8 466.27,-12.98"/>
<polygon fill="#63b8ff" stroke="#63b8ff" points="397.16,-112.39 407.67,-111.04 398.61,-105.54 397.16,-112.39"/>
</a>
</g>
</g>
<!-- Node13&#45;&gt;Node10 -->
<g id="edge17_Node000013_Node000010" class="edge">
<title>Node13&#45;&gt;Node10</title>
<g id="a_edge17_Node000013_Node000010"><a xlink:title=" ">
<path fill="none" stroke="#63b8ff" d="M398.27,-106.77C357.08,-96.99 296.35,-82.56 257.84,-73.41"/>
<polygon fill="#63b8ff" stroke="#63b8ff" points="397.27,-110.37 407.81,-109.28 398.89,-103.56 397.27,-110.37"/>
</a>
</g>
</g>
<!-- Node13&#45;&gt;Node11 -->
<g id="edge21_Node000013_Node000011" class="edge">
<title>Node13&#45;&gt;Node11</title>
<g id="a_edge21_Node000013_Node000011"><a xlink:title=" ">
<path fill="none" stroke="#63b8ff" d="M487.01,-111.58C570.07,-101.02 746.64,-78.57 821.11,-69.11"/>
<polygon fill="#63b8ff" stroke="#63b8ff" points="486.65,-108.22 477.17,-112.95 487.53,-115.16 486.65,-108.22"/>
</a>
</g>
</g>
<!-- Node13&#45;&gt;Node12 -->
<g id="edge23_Node000013_Node000012" class="edge">
<title>Node13&#45;&gt;Node12</title>
<g id="a_edge23_Node000013_Node000012"><a xlink:title=" ">
<path fill="none" stroke="#63b8ff" d="M487.03,-115.46C569.1,-111.61 749.16,-100.55 898.38,-73 901.14,-72.49 904.02,-71.85 906.85,-71.15"/>
<polygon fill="#63b8ff" stroke="#63b8ff" points="486.95,-112.01 477.12,-115.96 487.27,-119 486.95,-112.01"/>
</a>
</g>
</g>
<!-- Node14 -->
<g id="Node000014" class="node">
<title>Node14</title>
<g id="a_Node000014"><a xlink:href="a01904.html" target="_top" xlink:title=" ">
<polygon fill="white" stroke="#666666" points="560.5,-73 488.25,-73 488.25,-54.5 560.5,-54.5 560.5,-73"/>
<text text-anchor="middle" x="524.38" y="-59.5" font-family="Helvetica,sans-Serif" font-size="10.00">arax_accel.c</text>
</a>
</g>
</g>
<!-- Node13&#45;&gt;Node14 -->
<g id="edge15_Node000013_Node000014" class="edge">
<title>Node13&#45;&gt;Node14</title>
<g id="a_edge15_Node000013_Node000014"><a xlink:title=" ">
<path fill="none" stroke="#63b8ff" d="M464.9,-102.83C479.61,-93.41 498.34,-81.42 510.81,-73.43"/>
<polygon fill="#63b8ff" stroke="#63b8ff" points="463.45,-100.24 456.92,-108.58 467.22,-106.14 463.45,-100.24"/>
</a>
</g>
</g>
<!-- Node15 -->
<g id="Node000015" class="node">
<title>Node15</title>
<g id="a_Node000015"><a xlink:href="a01913.html" target="_top" xlink:title=" ">
<polygon fill="white" stroke="#666666" points="645.88,-73 578.88,-73 578.88,-54.5 645.88,-54.5 645.88,-73"/>
<text text-anchor="middle" x="612.38" y="-59.5" font-family="Helvetica,sans-Serif" font-size="10.00">arax_pipe.c</text>
</a>
</g>
</g>
<!-- Node13&#45;&gt;Node15 -->
<g id="edge18_Node000013_Node000015" class="edge">
<title>Node13&#45;&gt;Node15</title>
<g id="a_edge18_Node000013_Node000015"><a xlink:title=" ">
<path fill="none" stroke="#63b8ff" d="M480.6,-105.44C512.07,-95.73 555.95,-82.18 584.26,-73.43"/>
<polygon fill="#63b8ff" stroke="#63b8ff" points="479.97,-102.29 471.45,-108.58 482.03,-108.97 479.97,-102.29"/>
</a>
</g>
</g>
<!-- Node16 -->
<g id="Node000016" class="node">
<title>Node16</title>
<g id="a_Node000016"><a xlink:href="a01919.html" target="_top" xlink:title=" ">
<polygon fill="white" stroke="#666666" points="374.5,-73 314.25,-73 314.25,-54.5 374.5,-54.5 374.5,-73"/>
<text text-anchor="middle" x="344.38" y="-59.5" font-family="Helvetica,sans-Serif" font-size="10.00">arax_ptr.c</text>
</a>
</g>
</g>
<!-- Node13&#45;&gt;Node16 -->
<g id="edge20_Node000013_Node000016" class="edge">
<title>Node13&#45;&gt;Node16</title>
<g id="a_edge20_Node000013_Node000016"><a xlink:title=" ">
<path fill="none" stroke="#63b8ff" d="M416.95,-103.63C399.15,-94.1 375.91,-81.64 360.58,-73.43"/>
<polygon fill="#63b8ff" stroke="#63b8ff" points="414.72,-106.94 425.19,-108.58 418.03,-100.77 414.72,-106.94"/>
</a>
</g>
</g>
<!-- Node17 -->
<g id="Node000017" class="node">
<title>Node17</title>
<g id="a_Node000017"><a xlink:href="a01928.html" target="_top" xlink:title=" ">
<polygon fill="white" stroke="#666666" points="469.75,-73 393,-73 393,-54.5 469.75,-54.5 469.75,-73"/>
<text text-anchor="middle" x="431.38" y="-59.5" font-family="Helvetica,sans-Serif" font-size="10.00">arax_vaccel.c</text>
</a>
</g>
</g>
<!-- Node13&#45;&gt;Node17 -->
<g id="edge22_Node000013_Node000017" class="edge">
<title>Node13&#45;&gt;Node17</title>
<g id="a_edge22_Node000013_Node000017"><a xlink:title=" ">
<path fill="none" stroke="#63b8ff" d="M438.34,-98.01C436.56,-89.5 434.56,-79.94 433.16,-73.26"/>
<polygon fill="#63b8ff" stroke="#63b8ff" points="435.08,-98.51 440.56,-107.58 441.93,-97.08 435.08,-98.51"/>
</a>
</g>
</g>
<!-- Node18&#45;&gt;Node6 -->
<g id="edge25_Node000018_Node000006" class="edge">
<title>Node18&#45;&gt;Node6</title>
<g id="a_edge25_Node000018_Node000006"><a xlink:title=" ">
<path fill="none" stroke="#63b8ff" d="M295.24,-135.72C302.99,-144.78 310.9,-155.67 314.94,-163.08"/>
<polygon fill="#63b8ff" stroke="#63b8ff" points="298.31,-133.8 288.99,-128.76 293.13,-138.51 298.31,-133.8"/>
</a>
</g>
</g>
<!-- Node19&#45;&gt;Node3 -->
<g id="edge29_Node000019_Node000003" class="edge">
<title>Node19&#45;&gt;Node3</title>
<g id="a_edge29_Node000019_Node000003"><a xlink:title=" ">
<path fill="none" stroke="#63b8ff" d="M208.43,-210.96C198.18,-202.94 186,-192.6 176.38,-182 142.92,-145.14 112.45,-93.45 101.09,-73.28"/>
<polygon fill="#63b8ff" stroke="#63b8ff" points="206.1,-214.34 216.18,-217.61 210.34,-208.77 206.1,-214.34"/>
</a>
</g>
</g>
<!-- Node20&#45;&gt;Node10 -->
<g id="edge31_Node000020_Node000010" class="edge">
<title>Node20&#45;&gt;Node10</title>
<g id="a_edge31_Node000020_Node000010"><a xlink:title=" ">
<path fill="none" stroke="#63b8ff" d="M404.52,-207.27C394.32,-181.57 372.81,-135.83 340.38,-109 316.94,-89.61 284.19,-78.27 258.98,-71.93"/>
<polygon fill="#63b8ff" stroke="#63b8ff" points="401.59,-208.42 408.41,-216.53 408.14,-205.94 401.59,-208.42"/>
</a>
</g>
</g>
<!-- Node21 -->
<g id="Node000021" class="node">
<title>Node21</title>
<g id="a_Node000021"><a xlink:href="a01916.html" target="_top" xlink:title=" ">
<polygon fill="white" stroke="#666666" points="476.25,-182 408.5,-182 408.5,-163.5 476.25,-163.5 476.25,-182"/>
<text text-anchor="middle" x="442.38" y="-168.5" font-family="Helvetica,sans-Serif" font-size="10.00">arax_proc.c</text>
</a>
</g>
</g>
<!-- Node20&#45;&gt;Node21 -->
<g id="edge32_Node000020_Node000021" class="edge">
<title>Node20&#45;&gt;Node21</title>
<g id="a_edge32_Node000020_Node000021"><a xlink:title=" ">
<path fill="none" stroke="#63b8ff" d="M422.06,-208.16C427.24,-199.38 433.23,-189.24 437.35,-182.26"/>
<polygon fill="#63b8ff" stroke="#63b8ff" points="418.56,-206.19 416.49,-216.58 424.59,-209.75 418.56,-206.19"/>
</a>
</g>
</g>
<!-- Node22 -->
<g id="Node000022" class="node">
<title>Node22</title>
<g id="a_Node000022"><a xlink:href="a01412.html" target="_top" xlink:title=" ">
<polygon fill="white" stroke="#666666" points="253.25,-182 185.5,-182 185.5,-163.5 253.25,-163.5 253.25,-182"/>
<text text-anchor="middle" x="219.38" y="-168.5" font-family="Helvetica,sans-Serif" font-size="10.00">arax_task.h</text>
</a>
</g>
</g>
<!-- Node20&#45;&gt;Node22 -->
<g id="edge33_Node000020_Node000022" class="edge">
<title>Node20&#45;&gt;Node22</title>
<g id="a_edge33_Node000020_Node000022"><a xlink:title=" ">
<path fill="none" stroke="#63b8ff" d="M369.13,-214.7C333.53,-204.96 283.38,-191.25 251.13,-182.43"/>
<polygon fill="#63b8ff" stroke="#63b8ff" points="368.1,-218.32 378.67,-217.58 369.95,-211.57 368.1,-218.32"/>
</a>
</g>
</g>
<!-- Node22&#45;&gt;Node8 -->
<g id="edge34_Node000022_Node000008" class="edge">
<title>Node22&#45;&gt;Node8</title>
<g id="a_edge34_Node000022_Node000008"><a xlink:title=" ">
<path fill="none" stroke="#63b8ff" d="M203.52,-155.01C182.13,-130.38 149.52,-84.11 175.38,-54.5 212.87,-11.55 390.57,-8.72 466.18,-9.52"/>
<polygon fill="#63b8ff" stroke="#63b8ff" points="200.47,-156.95 209.77,-162.03 205.66,-152.26 200.47,-156.95"/>
</a>
</g>
</g>
<!-- Node22&#45;&gt;Node10 -->
<g id="edge35_Node000022_Node000010" class="edge">
<title>Node22&#45;&gt;Node10</title>
<g id="a_edge35_Node000022_Node000010"><a xlink:title=" ">
<path fill="none" stroke="#63b8ff" d="M219.74,-152.38C220.18,-128.94 220.89,-90.49 221.21,-73.4"/>
<polygon fill="#63b8ff" stroke="#63b8ff" points="216.22,-152.29 219.53,-162.35 223.22,-152.42 216.22,-152.29"/>
</a>
</g>
</g>
<!-- Node22&#45;&gt;Node13 -->
<g id="edge36_Node000022_Node000013" class="edge">
<title>Node22&#45;&gt;Node13</title>
<g id="a_edge36_Node000022_Node000013"><a xlink:title=" ">
<path fill="none" stroke="#63b8ff" d="M264.38,-161.15C307.06,-151.11 370.23,-136.23 408.71,-127.18"/>
<polygon fill="#63b8ff" stroke="#63b8ff" points="263.66,-157.96 254.73,-163.66 265.27,-164.78 263.66,-157.96"/>
</a>
</g>
</g>
<!-- Node23&#45;&gt;Node11 -->
<g id="edge41_Node000023_Node000011" class="edge">
<title>Node23&#45;&gt;Node11</title>
<g id="a_edge41_Node000023_Node000011"><a xlink:title=" ">
<path fill="none" stroke="#63b8ff" d="M858.51,-97.72C857.71,-89.29 856.81,-79.86 856.19,-73.26"/>
<polygon fill="#63b8ff" stroke="#63b8ff" points="855.12,-97.96 859.55,-107.58 862.09,-97.29 855.12,-97.96"/>
</a>
</g>
</g>
<!-- Node23&#45;&gt;Node12 -->
<g id="edge42_Node000023_Node000012" class="edge">
<title>Node23&#45;&gt;Node12</title>
<g id="a_edge42_Node000023_Node000012"><a xlink:title=" ">
<path fill="none" stroke="#63b8ff" d="M880.16,-101.97C892.28,-92.62 907.32,-81 917.36,-73.26"/>
<polygon fill="#63b8ff" stroke="#63b8ff" points="878.38,-99.7 872.6,-108.58 882.66,-105.24 878.38,-99.7"/>
</a>
</g>
</g>
<!-- Node24 -->
<g id="Node000024" class="node">
<title>Node24</title>
<g id="a_Node000024"><a xlink:href="a02340.html" target="_top" xlink:title=" ">
<polygon fill="white" stroke="#666666" points="1011.62,-73 967.12,-73 967.12,-54.5 1011.62,-54.5 1011.62,-73"/>
<text text-anchor="middle" x="989.38" y="-59.5" font-family="Helvetica,sans-Serif" font-size="10.00">alloc.c</text>
</a>
</g>
</g>
<!-- Node23&#45;&gt;Node24 -->
<g id="edge40_Node000023_Node000024" class="edge">
<title>Node23&#45;&gt;Node24</title>
<g id="a_edge40_Node000023_Node000024"><a xlink:title=" ">
<path fill="none" stroke="#63b8ff" d="M891.59,-104.55C915.27,-94.91 947.21,-81.91 968.04,-73.43"/>
<polygon fill="#63b8ff" stroke="#63b8ff" points="890.62,-101.57 882.68,-108.58 893.26,-108.05 890.62,-101.57"/>
</a>
</g>
</g>
<!-- Node26&#45;&gt;Node5 -->
<g id="edge45_Node000026_Node000005" class="edge">
<title>Node26&#45;&gt;Node5</title>
<g id="a_edge45_Node000026_Node000005"><a xlink:title=" ">
<path fill="none" stroke="#63b8ff" d="M504.38,-315.72C504.38,-307.29 504.38,-297.86 504.38,-291.26"/>
<polygon fill="#63b8ff" stroke="#63b8ff" points="500.88,-315.58 504.38,-325.58 507.88,-315.58 500.88,-315.58"/>
</a>
</g>
</g>
</g>
</svg>
