<?xml version="1.0" encoding="UTF-8" standalone="no"?>
<!DOCTYPE svg PUBLIC "-//W3C//DTD SVG 1.1//EN"
 "http://www.w3.org/Graphics/SVG/1.1/DTD/svg11.dtd">
<!-- Generated by graphviz version 8.0.5 (0)
 -->
<!-- Title: compat.h Pages: 1 -->
<svg width="1117pt" height="463pt"
 viewBox="0.00 0.00 1116.82 462.50" xmlns="http://www.w3.org/2000/svg" xmlns:xlink="http://www.w3.org/1999/xlink">
<g id="graph0" class="graph" transform="scale(1 1) rotate(0) translate(4 458.5)">
<title>compat.h</title>
<!-- Node1 -->
<g id="Node000001" class="node">
<title>Node1</title>
<g id="a_Node000001"><a xlink:title=" ">
<polygon fill="#999999" stroke="#666666" points="760.75,-454.5 705,-454.5 705,-436 760.75,-436 760.75,-454.5"/>
<text text-anchor="middle" x="732.88" y="-441" font-family="Helvetica,sans-Serif" font-size="10.00">compat.h</text>
</a>
</g>
</g>
<!-- Node2 -->
<g id="Node000002" class="node">
<title>Node2</title>
<g id="a_Node000002"><a xlink:href="a01361.html" target="_top" xlink:title=" ">
<polygon fill="white" stroke="#666666" points="712.88,-400 636.88,-400 636.88,-381.5 712.88,-381.5 712.88,-400"/>
<text text-anchor="middle" x="674.88" y="-386.5" font-family="Helvetica,sans-Serif" font-size="10.00">arax_assert.h</text>
</a>
</g>
</g>
<!-- Node1&#45;&gt;Node2 -->
<g id="edge1_Node000001_Node000002" class="edge">
<title>Node1&#45;&gt;Node2</title>
<g id="a_edge1_Node000001_Node000002"><a xlink:title=" ">
<path fill="none" stroke="#63b8ff" d="M715.39,-428.42C705.16,-419.17 692.66,-407.85 684.27,-400.26"/>
<polygon fill="#63b8ff" stroke="#63b8ff" points="712.53,-430.46 722.3,-434.58 717.23,-425.28 712.53,-430.46"/>
</a>
</g>
</g>
<!-- Node39 -->
<g id="Node000039" class="node">
<title>Node39</title>
<g id="a_Node000039"><a xlink:href="a01409.html" target="_top" xlink:title=" ">
<polygon fill="white" stroke="#666666" points="1048,-291 987.75,-291 987.75,-272.5 1048,-272.5 1048,-291"/>
<text text-anchor="middle" x="1017.88" y="-277.5" font-family="Helvetica,sans-Serif" font-size="10.00">arax_ptr.h</text>
</a>
</g>
</g>
<!-- Node1&#45;&gt;Node39 -->
<g id="edge57_Node000001_Node000039" class="edge">
<title>Node1&#45;&gt;Node39</title>
<g id="a_edge57_Node000001_Node000039"><a xlink:title=" ">
<path fill="none" stroke="#63b8ff" d="M757.59,-430.25C814.93,-397.75 955.69,-317.99 1002.48,-291.48"/>
<polygon fill="#63b8ff" stroke="#63b8ff" points="756.17,-427.59 749.2,-435.57 759.62,-433.68 756.17,-427.59"/>
</a>
</g>
</g>
<!-- Node3 -->
<g id="Node000003" class="node">
<title>Node3</title>
<g id="a_Node000003"><a xlink:href="a01937.html" target="_top" xlink:title=" ">
<polygon fill="white" stroke="#666666" points="657.88,-236.5 581.88,-236.5 581.88,-218 657.88,-218 657.88,-236.5"/>
<text text-anchor="middle" x="619.88" y="-223" font-family="Helvetica,sans-Serif" font-size="10.00">arax_assert.c</text>
</a>
</g>
</g>
<!-- Node2&#45;&gt;Node3 -->
<g id="edge2_Node000002_Node000003" class="edge">
<title>Node2&#45;&gt;Node3</title>
<g id="a_edge2_Node000002_Node000003"><a xlink:title=" ">
<path fill="none" stroke="#63b8ff" d="M668.42,-370.79C656.49,-335.78 631.45,-262.22 622.85,-236.98"/>
<polygon fill="#63b8ff" stroke="#63b8ff" points="665.38,-371.73 671.92,-380.07 672.01,-369.47 665.38,-371.73"/>
</a>
</g>
</g>
<!-- Node4 -->
<g id="Node000004" class="node">
<title>Node4</title>
<g id="a_Node000004"><a xlink:href="a01925.html" target="_top" xlink:title=" ">
<polygon fill="white" stroke="#666666" points="559.38,-345.5 480.38,-345.5 480.38,-327 559.38,-327 559.38,-345.5"/>
<text text-anchor="middle" x="519.88" y="-332" font-family="Helvetica,sans-Serif" font-size="10.00">arax_throttle.c</text>
</a>
</g>
</g>
<!-- Node2&#45;&gt;Node4 -->
<g id="edge3_Node000002_Node000004" class="edge">
<title>Node2&#45;&gt;Node4</title>
<g id="a_edge3_Node000002_Node000004"><a xlink:title=" ">
<path fill="none" stroke="#63b8ff" d="M638.89,-377.56C610.29,-367.88 570.99,-354.56 545.51,-345.93"/>
<polygon fill="#63b8ff" stroke="#63b8ff" points="637.69,-381.19 648.28,-381.08 639.93,-374.56 637.69,-381.19"/>
</a>
</g>
</g>
<!-- Node5 -->
<g id="Node000005" class="node">
<title>Node5</title>
<g id="a_Node000005"><a xlink:href="a01952.html" target="_top" xlink:title=" ">
<polygon fill="white" stroke="#666666" points="628.12,-345.5 577.62,-345.5 577.62,-327 628.12,-327 628.12,-345.5"/>
<text text-anchor="middle" x="602.88" y="-332" font-family="Helvetica,sans-Serif" font-size="10.00">config.c</text>
</a>
</g>
</g>
<!-- Node2&#45;&gt;Node5 -->
<g id="edge4_Node000002_Node000005" class="edge">
<title>Node2&#45;&gt;Node5</title>
<g id="a_edge4_Node000002_Node000005"><a xlink:title=" ">
<path fill="none" stroke="#63b8ff" d="M654.3,-374.75C641.41,-365.35 625.27,-353.58 614.54,-345.76"/>
<polygon fill="#63b8ff" stroke="#63b8ff" points="651.84,-378.02 661.99,-381.08 655.97,-372.36 651.84,-378.02"/>
</a>
</g>
</g>
<!-- Node6 -->
<g id="Node000006" class="node">
<title>Node6</title>
<g id="a_Node000006"><a xlink:href="a01949.html" target="_top" xlink:title=" ">
<polygon fill="white" stroke="#666666" points="726.12,-236.5 675.62,-236.5 675.62,-218 726.12,-218 726.12,-236.5"/>
<text text-anchor="middle" x="700.88" y="-223" font-family="Helvetica,sans-Serif" font-size="10.00">queue.c</text>
</a>
</g>
</g>
<!-- Node2&#45;&gt;Node6 -->
<g id="edge5_Node000002_Node000006" class="edge">
<title>Node2&#45;&gt;Node6</title>
<g id="a_edge5_Node000002_Node000006"><a xlink:title=" ">
<path fill="none" stroke="#63b8ff" d="M678,-370.34C683.67,-335.14 695.42,-262.11 699.47,-236.98"/>
<polygon fill="#63b8ff" stroke="#63b8ff" points="674.41,-369.64 676.27,-380.07 681.32,-370.75 674.41,-369.64"/>
</a>
</g>
</g>
<!-- Node7 -->
<g id="Node000007" class="node">
<title>Node7</title>
<g id="a_Node000007"><a xlink:href="a01382.html" target="_top" xlink:title=" ">
<polygon fill="white" stroke="#666666" points="782,-345.5 721.75,-345.5 721.75,-327 782,-327 782,-345.5"/>
<text text-anchor="middle" x="751.88" y="-332" font-family="Helvetica,sans-Serif" font-size="10.00">spinlock.h</text>
</a>
</g>
</g>
<!-- Node2&#45;&gt;Node7 -->
<g id="edge6_Node000002_Node000007" class="edge">
<title>Node2&#45;&gt;Node7</title>
<g id="a_edge6_Node000002_Node000007"><a xlink:title=" ">
<path fill="none" stroke="#63b8ff" d="M696.42,-375.06C710.18,-365.68 727.54,-353.84 739.14,-345.93"/>
<polygon fill="#63b8ff" stroke="#63b8ff" points="694.88,-372.56 688.59,-381.08 698.82,-378.34 694.88,-372.56"/>
</a>
</g>
</g>
<!-- Node8 -->
<g id="Node000008" class="node">
<title>Node8</title>
<g id="a_Node000008"><a xlink:href="a01358.html" target="_top" xlink:title=" ">
<polygon fill="white" stroke="#666666" points="951.62,-291 916.12,-291 916.12,-272.5 951.62,-272.5 951.62,-291"/>
<text text-anchor="middle" x="933.88" y="-277.5" font-family="Helvetica,sans-Serif" font-size="10.00">Kv.h</text>
</a>
</g>
</g>
<!-- Node7&#45;&gt;Node8 -->
<g id="edge7_Node000007_Node000008" class="edge">
<title>Node7&#45;&gt;Node8</title>
<g id="a_edge7_Node000007_Node000008"><a xlink:title=" ">
<path fill="none" stroke="#63b8ff" d="M792.32,-323.58C830.95,-312.44 887.41,-296.15 915.94,-287.92"/>
<polygon fill="#63b8ff" stroke="#63b8ff" points="791.57,-320.45 782.93,-326.58 793.51,-327.17 791.57,-320.45"/>
</a>
</g>
</g>
<!-- Node20 -->
<g id="Node000020" class="node">
<title>Node20</title>
<g id="a_Node000020"><a xlink:href="a01403.html" target="_top" xlink:title=" ">
<polygon fill="white" stroke="#666666" points="444.12,-291 369.62,-291 369.62,-272.5 444.12,-272.5 444.12,-291"/>
<text text-anchor="middle" x="406.88" y="-277.5" font-family="Helvetica,sans-Serif" font-size="10.00">arax_object.h</text>
</a>
</g>
</g>
<!-- Node7&#45;&gt;Node20 -->
<g id="edge19_Node000007_Node000020" class="edge">
<title>Node7&#45;&gt;Node20</title>
<g id="a_edge19_Node000007_Node000020"><a xlink:title=" ">
<path fill="none" stroke="#63b8ff" d="M710.6,-328.97C642.95,-318.67 509.51,-298.37 444.39,-288.46"/>
<polygon fill="#63b8ff" stroke="#63b8ff" points="709.85,-332.55 720.26,-330.59 710.9,-325.63 709.85,-332.55"/>
</a>
</g>
</g>
<!-- Node34 -->
<g id="Node000034" class="node">
<title>Node34</title>
<g id="a_Node000034"><a xlink:href="a01367.html" target="_top" xlink:title=" ">
<polygon fill="white" stroke="#666666" points="843.62,-291 790.12,-291 790.12,-272.5 843.62,-272.5 843.62,-291"/>
<text text-anchor="middle" x="816.88" y="-277.5" font-family="Helvetica,sans-Serif" font-size="10.00">bitmap.h</text>
</a>
</g>
</g>
<!-- Node7&#45;&gt;Node34 -->
<g id="edge48_Node000007_Node000034" class="edge">
<title>Node7&#45;&gt;Node34</title>
<g id="a_edge48_Node000007_Node000034"><a xlink:title=" ">
<path fill="none" stroke="#63b8ff" d="M771.13,-319.7C782.65,-310.39 796.85,-298.93 806.34,-291.26"/>
<polygon fill="#63b8ff" stroke="#63b8ff" points="769.19,-317.57 763.61,-326.58 773.59,-323.02 769.19,-317.57"/>
</a>
</g>
</g>
<!-- Node38 -->
<g id="Node000038" class="node">
<title>Node38</title>
<g id="a_Node000038"><a xlink:href="a01379.html" target="_top" xlink:title=" ">
<polygon fill="white" stroke="#666666" points="772.12,-291 721.62,-291 721.62,-272.5 772.12,-272.5 772.12,-291"/>
<text text-anchor="middle" x="746.88" y="-277.5" font-family="Helvetica,sans-Serif" font-size="10.00">queue.h</text>
</a>
</g>
</g>
<!-- Node7&#45;&gt;Node38 -->
<g id="edge53_Node000007_Node000038" class="edge">
<title>Node7&#45;&gt;Node38</title>
<g id="a_edge53_Node000007_Node000038"><a xlink:title=" ">
<path fill="none" stroke="#63b8ff" d="M750.01,-315.72C749.21,-307.29 748.31,-297.86 747.69,-291.26"/>
<polygon fill="#63b8ff" stroke="#63b8ff" points="746.62,-315.96 751.05,-325.58 753.59,-315.29 746.62,-315.96"/>
</a>
</g>
</g>
<!-- Node9 -->
<g id="Node000009" class="node">
<title>Node9</title>
<g id="a_Node000009"><a xlink:href="a01934.html" target="_top" xlink:title=" ">
<polygon fill="white" stroke="#666666" points="951.62,-236.5 916.12,-236.5 916.12,-218 951.62,-218 951.62,-236.5"/>
<text text-anchor="middle" x="933.88" y="-223" font-family="Helvetica,sans-Serif" font-size="10.00">Kv.c</text>
</a>
</g>
</g>
<!-- Node8&#45;&gt;Node9 -->
<g id="edge8_Node000008_Node000009" class="edge">
<title>Node8&#45;&gt;Node9</title>
<g id="a_edge8_Node000008_Node000009"><a xlink:title=" ">
<path fill="none" stroke="#63b8ff" d="M933.88,-261.22C933.88,-252.79 933.88,-243.36 933.88,-236.76"/>
<polygon fill="#63b8ff" stroke="#63b8ff" points="930.38,-261.08 933.88,-271.08 937.38,-261.08 930.38,-261.08"/>
</a>
</g>
</g>
<!-- Node10 -->
<g id="Node000010" class="node">
<title>Node10</title>
<g id="a_Node000010"><a xlink:href="a01349.html" target="_top" xlink:title=" ">
<polygon fill="white" stroke="#666666" points="737.38,-127.5 670.38,-127.5 670.38,-109 737.38,-109 737.38,-127.5"/>
<text text-anchor="middle" x="703.88" y="-114" font-family="Helvetica,sans-Serif" font-size="10.00">arax_pipe.h</text>
</a>
</g>
</g>
<!-- Node8&#45;&gt;Node10 -->
<g id="edge9_Node000008_Node000010" class="edge">
<title>Node8&#45;&gt;Node10</title>
<g id="a_edge9_Node000008_Node000010"><a xlink:title=" ">
<path fill="none" stroke="#63b8ff" d="M948.83,-263.8C958.03,-251.25 966.98,-233.68 960.88,-218 948.95,-187.37 939.41,-179.82 910.88,-163.5 855.69,-131.94 780.56,-122.83 737.64,-120.23"/>
<polygon fill="#63b8ff" stroke="#63b8ff" points="945.53,-261.31 942,-271.3 950.99,-265.7 945.53,-261.31"/>
</a>
</g>
</g>
<!-- Node11 -->
<g id="Node000011" class="node">
<title>Node11</title>
<g id="a_Node000011"><a xlink:href="a01904.html" target="_top" xlink:title=" ">
<polygon fill="white" stroke="#666666" points="740,-73 667.75,-73 667.75,-54.5 740,-54.5 740,-73"/>
<text text-anchor="middle" x="703.88" y="-59.5" font-family="Helvetica,sans-Serif" font-size="10.00">arax_accel.c</text>
</a>
</g>
</g>
<!-- Node10&#45;&gt;Node11 -->
<g id="edge10_Node000010_Node000011" class="edge">
<title>Node10&#45;&gt;Node11</title>
<g id="a_edge10_Node000010_Node000011"><a xlink:title=" ">
<path fill="none" stroke="#63b8ff" d="M703.88,-97.72C703.88,-89.29 703.88,-79.86 703.88,-73.26"/>
<polygon fill="#63b8ff" stroke="#63b8ff" points="700.38,-97.58 703.88,-107.58 707.38,-97.58 700.38,-97.58"/>
</a>
</g>
</g>
<!-- Node12 -->
<g id="Node000012" class="node">
<title>Node12</title>
<g id="a_Node000012"><a xlink:href="a01931.html" target="_top" xlink:title=" ">
<polygon fill="white" stroke="#666666" points="489.75,-18.5 422,-18.5 422,0 489.75,0 489.75,-18.5"/>
<text text-anchor="middle" x="455.88" y="-5" font-family="Helvetica,sans-Serif" font-size="10.00">arax_data.c</text>
</a>
</g>
</g>
<!-- Node10&#45;&gt;Node12 -->
<g id="edge11_Node000010_Node000012" class="edge">
<title>Node10&#45;&gt;Node12</title>
<g id="a_edge11_Node000010_Node000012"><a xlink:title=" ">
<path fill="none" stroke="#63b8ff" d="M687.13,-101.47C671.23,-87.27 646.07,-66.82 620.88,-54.5 578.24,-33.66 524.45,-21.58 490.1,-15.46"/>
<polygon fill="#63b8ff" stroke="#63b8ff" points="684.21,-103.45 693.96,-107.62 688.94,-98.29 684.21,-103.45"/>
</a>
</g>
</g>
<!-- Node13 -->
<g id="Node000013" class="node">
<title>Node13</title>
<g id="a_Node000013"><a xlink:href="a01910.html" target="_top" xlink:title=" ">
<polygon fill="white" stroke="#666666" points="308.12,-73 233.62,-73 233.62,-54.5 308.12,-54.5 308.12,-73"/>
<text text-anchor="middle" x="270.88" y="-59.5" font-family="Helvetica,sans-Serif" font-size="10.00">arax_object.c</text>
</a>
</g>
</g>
<!-- Node10&#45;&gt;Node13 -->
<g id="edge12_Node000010_Node000013" class="edge">
<title>Node10&#45;&gt;Node13</title>
<g id="a_edge12_Node000010_Node000013"><a xlink:title=" ">
<path fill="none" stroke="#63b8ff" d="M659.21,-113.07C587.04,-106.12 440.4,-91.12 316.88,-73 314.15,-72.6 311.33,-72.16 308.5,-71.7"/>
<polygon fill="#63b8ff" stroke="#63b8ff" points="658.85,-116.65 669.13,-114.12 659.51,-109.68 658.85,-116.65"/>
</a>
</g>
</g>
<!-- Node14 -->
<g id="Node000014" class="node">
<title>Node14</title>
<g id="a_Node000014"><a xlink:href="a01913.html" target="_top" xlink:title=" ">
<polygon fill="white" stroke="#666666" points="825.38,-73 758.38,-73 758.38,-54.5 825.38,-54.5 825.38,-73"/>
<text text-anchor="middle" x="791.88" y="-59.5" font-family="Helvetica,sans-Serif" font-size="10.00">arax_pipe.c</text>
</a>
</g>
</g>
<!-- Node10&#45;&gt;Node14 -->
<g id="edge13_Node000010_Node000014" class="edge">
<title>Node10&#45;&gt;Node14</title>
<g id="a_edge13_Node000010_Node000014"><a xlink:title=" ">
<path fill="none" stroke="#63b8ff" d="M727.6,-103.1C743.46,-93.64 763.81,-81.49 777.32,-73.43"/>
<polygon fill="#63b8ff" stroke="#63b8ff" points="726.2,-100.45 719.41,-108.58 729.79,-106.46 726.2,-100.45"/>
</a>
</g>
</g>
<!-- Node15 -->
<g id="Node000015" class="node">
<title>Node15</title>
<g id="a_Node000015"><a xlink:href="a01940.html" target="_top" xlink:title=" ">
<polygon fill="white" stroke="#666666" points="1001.88,-73 937.88,-73 937.88,-54.5 1001.88,-54.5 1001.88,-73"/>
<text text-anchor="middle" x="969.88" y="-59.5" font-family="Helvetica,sans-Serif" font-size="10.00">arax_plot.c</text>
</a>
</g>
</g>
<!-- Node10&#45;&gt;Node15 -->
<g id="edge14_Node000010_Node000015" class="edge">
<title>Node10&#45;&gt;Node15</title>
<g id="a_edge14_Node000010_Node000015"><a xlink:title=" ">
<path fill="none" stroke="#63b8ff" d="M748.47,-108.54C793.87,-99.66 866.29,-85.45 928.88,-73 931.72,-72.43 934.68,-71.84 937.65,-71.25"/>
<polygon fill="#63b8ff" stroke="#63b8ff" points="747.95,-105.27 738.81,-110.62 749.3,-112.14 747.95,-105.27"/>
</a>
</g>
</g>
<!-- Node16 -->
<g id="Node000016" class="node">
<title>Node16</title>
<g id="a_Node000016"><a xlink:href="a01919.html" target="_top" xlink:title=" ">
<polygon fill="white" stroke="#666666" points="1080,-73 1019.75,-73 1019.75,-54.5 1080,-54.5 1080,-73"/>
<text text-anchor="middle" x="1049.88" y="-59.5" font-family="Helvetica,sans-Serif" font-size="10.00">arax_ptr.c</text>
</a>
</g>
</g>
<!-- Node10&#45;&gt;Node16 -->
<g id="edge15_Node000010_Node000016" class="edge">
<title>Node10&#45;&gt;Node16</title>
<g id="a_edge15_Node000010_Node000016"><a xlink:title=" ">
<path fill="none" stroke="#63b8ff" d="M748.18,-111.79C807.98,-104.2 917.79,-89.54 1010.88,-73 1013.6,-72.52 1016.43,-71.98 1019.26,-71.42"/>
<polygon fill="#63b8ff" stroke="#63b8ff" points="748.09,-108.4 738.61,-113.12 748.97,-115.34 748.09,-108.4"/>
</a>
</g>
</g>
<!-- Node17 -->
<g id="Node000017" class="node">
<title>Node17</title>
<g id="a_Node000017"><a xlink:href="a01922.html" target="_top" xlink:title=" ">
<polygon fill="white" stroke="#666666" points="611.75,-73 544,-73 544,-54.5 611.75,-54.5 611.75,-73"/>
<text text-anchor="middle" x="577.88" y="-59.5" font-family="Helvetica,sans-Serif" font-size="10.00">arax_task.c</text>
</a>
</g>
</g>
<!-- Node10&#45;&gt;Node17 -->
<g id="edge16_Node000010_Node000017" class="edge">
<title>Node10&#45;&gt;Node17</title>
<g id="a_edge16_Node000010_Node000017"><a xlink:title=" ">
<path fill="none" stroke="#63b8ff" d="M673.08,-104.42C649.97,-94.79 618.97,-81.87 598.71,-73.43"/>
<polygon fill="#63b8ff" stroke="#63b8ff" points="671.49,-107.97 682.07,-108.58 674.18,-101.5 671.49,-107.97"/>
</a>
</g>
</g>
<!-- Node18 -->
<g id="Node000018" class="node">
<title>Node18</title>
<g id="a_Node000018"><a xlink:href="a01928.html" target="_top" xlink:title=" ">
<polygon fill="white" stroke="#666666" points="920.25,-73 843.5,-73 843.5,-54.5 920.25,-54.5 920.25,-73"/>
<text text-anchor="middle" x="881.88" y="-59.5" font-family="Helvetica,sans-Serif" font-size="10.00">arax_vaccel.c</text>
</a>
</g>
</g>
<!-- Node10&#45;&gt;Node18 -->
<g id="edge17_Node000010_Node000018" class="edge">
<title>Node10&#45;&gt;Node18</title>
<g id="a_edge17_Node000010_Node000018"><a xlink:title=" ">
<path fill="none" stroke="#63b8ff" d="M743.47,-105.57C776.44,-95.85 822.66,-82.21 852.44,-73.43"/>
<polygon fill="#63b8ff" stroke="#63b8ff" points="742.87,-102.39 734.27,-108.58 744.85,-109.11 742.87,-102.39"/>
</a>
</g>
</g>
<!-- Node19 -->
<g id="Node000019" class="node">
<title>Node19</title>
<g id="a_Node000019"><a xlink:href="a01898.html" target="_top" xlink:title=" ">
<polygon fill="white" stroke="#666666" points="526,-73 483.75,-73 483.75,-54.5 526,-54.5 526,-73"/>
<text text-anchor="middle" x="504.88" y="-59.5" font-family="Helvetica,sans-Serif" font-size="10.00">impl.c</text>
</a>
</g>
</g>
<!-- Node10&#45;&gt;Node19 -->
<g id="edge18_Node000010_Node000019" class="edge">
<title>Node10&#45;&gt;Node19</title>
<g id="a_edge18_Node000010_Node000019"><a xlink:title=" ">
<path fill="none" stroke="#63b8ff" d="M659.62,-105.82C625.51,-96.97 577.17,-84.35 534.88,-73 532.16,-72.27 529.31,-71.5 526.5,-70.73"/>
<polygon fill="#63b8ff" stroke="#63b8ff" points="658.62,-109.44 669.17,-108.56 660.37,-102.66 658.62,-109.44"/>
</a>
</g>
</g>
<!-- Node20&#45;&gt;Node3 -->
<g id="edge20_Node000020_Node000003" class="edge">
<title>Node20&#45;&gt;Node3</title>
<g id="a_edge20_Node000020_Node000003"><a xlink:title=" ">
<path fill="none" stroke="#63b8ff" d="M452.73,-269.45C492.27,-259.7 548.56,-245.83 584.65,-236.93"/>
<polygon fill="#63b8ff" stroke="#63b8ff" points="451.92,-266.29 443.05,-272.08 453.59,-273.09 451.92,-266.29"/>
</a>
</g>
</g>
<!-- Node20&#45;&gt;Node13 -->
<g id="edge28_Node000020_Node000013" class="edge">
<title>Node20&#45;&gt;Node13</title>
<g id="a_edge28_Node000020_Node000013"><a xlink:title=" ">
<path fill="none" stroke="#63b8ff" d="M358.38,-280.39C309.55,-278.06 233.53,-268.89 176.88,-236.5 148.85,-220.48 140.28,-212.2 128.88,-182 116.36,-148.86 134.04,-132.12 160.88,-109 181.54,-91.2 210.28,-79.97 233.2,-73.28"/>
<polygon fill="#63b8ff" stroke="#63b8ff" points="358.15,-283.93 368.28,-280.82 358.42,-276.93 358.15,-283.93"/>
</a>
</g>
</g>
<!-- Node21 -->
<g id="Node000021" class="node">
<title>Node21</title>
<g id="a_Node000021"><a xlink:href="a01397.html" target="_top" xlink:title=" ">
<polygon fill="white" stroke="#666666" points="495.75,-127.5 428,-127.5 428,-109 495.75,-109 495.75,-127.5"/>
<text text-anchor="middle" x="461.88" y="-114" font-family="Helvetica,sans-Serif" font-size="10.00">arax_data.h</text>
</a>
</g>
</g>
<!-- Node20&#45;&gt;Node21 -->
<g id="edge21_Node000020_Node000021" class="edge">
<title>Node20&#45;&gt;Node21</title>
<g id="a_edge21_Node000020_Node000021"><a xlink:title=" ">
<path fill="none" stroke="#63b8ff" d="M422.86,-263.94C429.42,-256.16 436.48,-246.44 440.88,-236.5 457.68,-198.48 461.04,-147.88 461.71,-127.9"/>
<polygon fill="#63b8ff" stroke="#63b8ff" points="420.63,-261.3 416.59,-271.1 425.86,-265.96 420.63,-261.3"/>
</a>
</g>
</g>
<!-- Node23 -->
<g id="Node000023" class="node">
<title>Node23</title>
<g id="a_Node000023"><a xlink:href="a01406.html" target="_top" xlink:title=" ">
<polygon fill="white" stroke="#666666" points="253.75,-236.5 186,-236.5 186,-218 253.75,-218 253.75,-236.5"/>
<text text-anchor="middle" x="219.88" y="-223" font-family="Helvetica,sans-Serif" font-size="10.00">arax_proc.h</text>
</a>
</g>
</g>
<!-- Node20&#45;&gt;Node23 -->
<g id="edge29_Node000020_Node000023" class="edge">
<title>Node20&#45;&gt;Node23</title>
<g id="a_edge29_Node000020_Node000023"><a xlink:title=" ">
<path fill="none" stroke="#63b8ff" d="M365.73,-269.2C331.06,-259.46 282.22,-245.75 250.8,-236.93"/>
<polygon fill="#63b8ff" stroke="#63b8ff" points="364.42,-272.75 375,-272.08 366.31,-266.01 364.42,-272.75"/>
</a>
</g>
</g>
<!-- Node26 -->
<g id="Node000026" class="node">
<title>Node26</title>
<g id="a_Node000026"><a xlink:href="a01418.html" target="_top" xlink:title=" ">
<polygon fill="white" stroke="#666666" points="564.25,-236.5 487.5,-236.5 487.5,-218 564.25,-218 564.25,-236.5"/>
<text text-anchor="middle" x="525.88" y="-223" font-family="Helvetica,sans-Serif" font-size="10.00">arax_vaccel.h</text>
</a>
</g>
</g>
<!-- Node20&#45;&gt;Node26 -->
<g id="edge36_Node000020_Node000026" class="edge">
<title>Node20&#45;&gt;Node26</title>
<g id="a_edge36_Node000020_Node000026"><a xlink:title=" ">
<path fill="none" stroke="#63b8ff" d="M436.55,-267.66C458.31,-258.06 487.24,-245.3 506.2,-236.93"/>
<polygon fill="#63b8ff" stroke="#63b8ff" points="435.26,-264.84 427.53,-272.08 438.09,-271.25 435.26,-264.84"/>
</a>
</g>
</g>
<!-- Node28 -->
<g id="Node000028" class="node">
<title>Node28</title>
<g id="a_Node000028"><a xlink:href="a02355.html" target="_top" xlink:title=" ">
<polygon fill="white" stroke="#666666" points="363.75,-236.5 314,-236.5 314,-218 363.75,-218 363.75,-236.5"/>
<text text-anchor="middle" x="338.88" y="-223" font-family="Helvetica,sans-Serif" font-size="10.00">async.h</text>
</a>
</g>
</g>
<!-- Node20&#45;&gt;Node28 -->
<g id="edge42_Node000020_Node000028" class="edge">
<title>Node20&#45;&gt;Node28</title>
<g id="a_edge42_Node000020_Node000028"><a xlink:title=" ">
<path fill="none" stroke="#63b8ff" d="M387.09,-265.47C374.97,-256.12 359.93,-244.5 349.89,-236.76"/>
<polygon fill="#63b8ff" stroke="#63b8ff" points="384.59,-268.74 394.65,-272.08 388.87,-263.2 384.59,-268.74"/>
</a>
</g>
</g>
<!-- Node30 -->
<g id="Node000030" class="node">
<title>Node30</title>
<g id="a_Node000030"><a xlink:href="a02358.html" target="_top" xlink:title=" ">
<polygon fill="white" stroke="#666666" points="431.75,-236.5 382,-236.5 382,-218 431.75,-218 431.75,-236.5"/>
<text text-anchor="middle" x="406.88" y="-223" font-family="Helvetica,sans-Serif" font-size="10.00">async.h</text>
</a>
</g>
</g>
<!-- Node20&#45;&gt;Node30 -->
<g id="edge44_Node000020_Node000030" class="edge">
<title>Node20&#45;&gt;Node30</title>
<g id="a_edge44_Node000020_Node000030"><a xlink:title=" ">
<path fill="none" stroke="#63b8ff" d="M406.88,-261.22C406.88,-252.79 406.88,-243.36 406.88,-236.76"/>
<polygon fill="#63b8ff" stroke="#63b8ff" points="403.38,-261.08 406.88,-271.08 410.38,-261.08 403.38,-261.08"/>
</a>
</g>
</g>
<!-- Node32 -->
<g id="Node000032" class="node">
<title>Node32</title>
<g id="a_Node000032"><a xlink:href="a02361.html" target="_top" xlink:title=" ">
<polygon fill="white" stroke="#666666" points="49.75,-236.5 0,-236.5 0,-218 49.75,-218 49.75,-236.5"/>
<text text-anchor="middle" x="24.88" y="-223" font-family="Helvetica,sans-Serif" font-size="10.00">async.h</text>
</a>
</g>
</g>
<!-- Node20&#45;&gt;Node32 -->
<g id="edge46_Node000020_Node000032" class="edge">
<title>Node20&#45;&gt;Node32</title>
<g id="a_edge46_Node000020_Node000032"><a xlink:title=" ">
<path fill="none" stroke="#63b8ff" d="M358.6,-275.76C292.04,-268.59 168.45,-254.28 63.88,-236.5 59.37,-235.73 54.6,-234.82 49.99,-233.87"/>
<polygon fill="#63b8ff" stroke="#63b8ff" points="357.85,-279.3 368.17,-276.89 358.6,-272.34 357.85,-279.3"/>
</a>
</g>
</g>
<!-- Node21&#45;&gt;Node12 -->
<g id="edge22_Node000021_Node000012" class="edge">
<title>Node21&#45;&gt;Node12</title>
<g id="a_edge22_Node000021_Node000012"><a xlink:title=" ">
<path fill="none" stroke="#63b8ff" d="M460.79,-97.88C459.47,-74.44 457.32,-35.99 456.36,-18.9"/>
<polygon fill="#63b8ff" stroke="#63b8ff" points="457.35,-98.07 461.4,-107.85 464.34,-97.67 457.35,-98.07"/>
</a>
</g>
</g>
<!-- Node21&#45;&gt;Node13 -->
<g id="edge25_Node000021_Node000013" class="edge">
<title>Node21&#45;&gt;Node13</title>
<g id="a_edge25_Node000021_Node000013"><a xlink:title=" ">
<path fill="none" stroke="#63b8ff" d="M419.85,-105.7C384.43,-95.96 334.55,-82.25 302.46,-73.43"/>
<polygon fill="#63b8ff" stroke="#63b8ff" points="418.77,-109.31 429.34,-108.58 420.62,-102.56 418.77,-109.31"/>
</a>
</g>
</g>
<!-- Node21&#45;&gt;Node17 -->
<g id="edge26_Node000021_Node000017" class="edge">
<title>Node21&#45;&gt;Node17</title>
<g id="a_edge26_Node000021_Node000017"><a xlink:title=" ">
<path fill="none" stroke="#63b8ff" d="M490.81,-104.16C512.01,-94.56 540.21,-81.8 558.69,-73.43"/>
<polygon fill="#63b8ff" stroke="#63b8ff" points="489.7,-101.27 482.03,-108.58 492.58,-107.65 489.7,-101.27"/>
</a>
</g>
</g>
<!-- Node21&#45;&gt;Node19 -->
<g id="edge27_Node000021_Node000019" class="edge">
<title>Node21&#45;&gt;Node19</title>
<g id="a_edge27_Node000021_Node000019"><a xlink:title=" ">
<path fill="none" stroke="#63b8ff" d="M475.76,-100.3C483.16,-91.27 491.94,-80.55 497.91,-73.26"/>
<polygon fill="#63b8ff" stroke="#63b8ff" points="472.6,-97.63 468.98,-107.58 478.02,-102.06 472.6,-97.63"/>
</a>
</g>
</g>
<!-- Node22 -->
<g id="Node000022" class="node">
<title>Node22</title>
<g id="a_Node000022"><a xlink:href="a01400.html" target="_top" xlink:title=" ">
<polygon fill="white" stroke="#666666" points="427.62,-73 326.12,-73 326.12,-54.5 427.62,-54.5 427.62,-73"/>
<text text-anchor="middle" x="376.88" y="-59.5" font-family="Helvetica,sans-Serif" font-size="10.00">arax_data_private.h</text>
</a>
</g>
</g>
<!-- Node21&#45;&gt;Node22 -->
<g id="edge23_Node000021_Node000022" class="edge">
<title>Node21&#45;&gt;Node22</title>
<g id="a_edge23_Node000021_Node000022"><a xlink:title=" ">
<path fill="none" stroke="#63b8ff" d="M438.53,-102.83C423.27,-93.41 403.86,-81.42 390.93,-73.43"/>
<polygon fill="#63b8ff" stroke="#63b8ff" points="436.49,-106.3 446.84,-108.58 440.17,-100.35 436.49,-106.3"/>
</a>
</g>
</g>
<!-- Node22&#45;&gt;Node12 -->
<g id="edge24_Node000022_Node000012" class="edge">
<title>Node22&#45;&gt;Node12</title>
<g id="a_edge24_Node000022_Node000012"><a xlink:title=" ">
<path fill="none" stroke="#63b8ff" d="M398.98,-48.06C413.1,-38.68 430.91,-26.84 442.81,-18.93"/>
<polygon fill="#63b8ff" stroke="#63b8ff" points="397.31,-45.63 390.92,-54.08 401.19,-51.46 397.31,-45.63"/>
</a>
</g>
</g>
<!-- Node23&#45;&gt;Node13 -->
<g id="edge30_Node000023_Node000013" class="edge">
<title>Node23&#45;&gt;Node13</title>
<g id="a_edge30_Node000023_Node000013"><a xlink:title=" ">
<path fill="none" stroke="#63b8ff" d="M177.46,-213.88C150.62,-203.55 123.02,-186.76 134.88,-163.5 158.66,-116.84 215.95,-87.06 248.07,-73.43"/>
<polygon fill="#63b8ff" stroke="#63b8ff" points="176.04,-217.44 186.63,-217.52 178.4,-210.85 176.04,-217.44"/>
</a>
</g>
</g>
<!-- Node24 -->
<g id="Node000024" class="node">
<title>Node24</title>
<g id="a_Node000024"><a xlink:href="a01916.html" target="_top" xlink:title=" ">
<polygon fill="white" stroke="#666666" points="211.75,-182 144,-182 144,-163.5 211.75,-163.5 211.75,-182"/>
<text text-anchor="middle" x="177.88" y="-168.5" font-family="Helvetica,sans-Serif" font-size="10.00">arax_proc.c</text>
</a>
</g>
</g>
<!-- Node23&#45;&gt;Node24 -->
<g id="edge31_Node000023_Node000024" class="edge">
<title>Node23&#45;&gt;Node24</title>
<g id="a_edge31_Node000023_Node000024"><a xlink:title=" ">
<path fill="none" stroke="#63b8ff" d="M206.09,-209.02C198.91,-200.04 190.45,-189.47 184.68,-182.26"/>
<polygon fill="#63b8ff" stroke="#63b8ff" points="203.96,-210.96 212.94,-216.58 209.43,-206.59 203.96,-210.96"/>
</a>
</g>
</g>
<!-- Node25 -->
<g id="Node000025" class="node">
<title>Node25</title>
<g id="a_Node000025"><a xlink:href="a01412.html" target="_top" xlink:title=" ">
<polygon fill="white" stroke="#666666" points="297.75,-182 230,-182 230,-163.5 297.75,-163.5 297.75,-182"/>
<text text-anchor="middle" x="263.88" y="-168.5" font-family="Helvetica,sans-Serif" font-size="10.00">arax_task.h</text>
</a>
</g>
</g>
<!-- Node23&#45;&gt;Node25 -->
<g id="edge32_Node000023_Node000025" class="edge">
<title>Node23&#45;&gt;Node25</title>
<g id="a_edge32_Node000023_Node000025"><a xlink:title=" ">
<path fill="none" stroke="#63b8ff" d="M234.08,-209.3C241.65,-200.27 250.64,-189.55 256.74,-182.26"/>
<polygon fill="#63b8ff" stroke="#63b8ff" points="230.88,-206.67 227.14,-216.58 236.25,-211.16 230.88,-206.67"/>
</a>
</g>
</g>
<!-- Node25&#45;&gt;Node10 -->
<g id="edge35_Node000025_Node000010" class="edge">
<title>Node25&#45;&gt;Node10</title>
<g id="a_edge35_Node000025_Node000010"><a xlink:title=" ">
<path fill="none" stroke="#63b8ff" d="M308.58,-163.35C448.54,-142.5 603.03,-127.99 670.03,-122.12"/>
<polygon fill="#63b8ff" stroke="#63b8ff" points="308.47,-159.98 299.1,-164.93 309.51,-166.9 308.47,-159.98"/>
</a>
</g>
</g>
<!-- Node25&#45;&gt;Node12 -->
<g id="edge33_Node000025_Node000012" class="edge">
<title>Node25&#45;&gt;Node12</title>
<g id="a_edge33_Node000025_Node000012"><a xlink:title=" ">
<path fill="none" stroke="#63b8ff" d="M249.1,-154.76C229.55,-130.14 200.27,-84.26 224.88,-54.5 249.46,-24.76 363.65,-14.81 421.74,-11.64"/>
<polygon fill="#63b8ff" stroke="#63b8ff" points="246.91,-156.6 255.98,-162.07 252.3,-152.14 246.91,-156.6"/>
</a>
</g>
</g>
<!-- Node25&#45;&gt;Node13 -->
<g id="edge34_Node000025_Node000013" class="edge">
<title>Node25&#45;&gt;Node13</title>
<g id="a_edge34_Node000025_Node000013"><a xlink:title=" ">
<path fill="none" stroke="#63b8ff" d="M265.14,-152.38C266.68,-128.94 269.19,-90.49 270.31,-73.4"/>
<polygon fill="#63b8ff" stroke="#63b8ff" points="261.58,-152.15 264.42,-162.35 268.57,-152.6 261.58,-152.15"/>
</a>
</g>
</g>
<!-- Node27 -->
<g id="Node000027" class="node">
<title>Node27</title>
<g id="a_Node000027"><a xlink:href="a01391.html" target="_top" xlink:title=" ">
<polygon fill="white" stroke="#666666" points="562,-182 489.75,-182 489.75,-163.5 562,-163.5 562,-182"/>
<text text-anchor="middle" x="525.88" y="-168.5" font-family="Helvetica,sans-Serif" font-size="10.00">arax_accel.h</text>
</a>
</g>
</g>
<!-- Node26&#45;&gt;Node27 -->
<g id="edge37_Node000026_Node000027" class="edge">
<title>Node26&#45;&gt;Node27</title>
<g id="a_edge37_Node000026_Node000027"><a xlink:title=" ">
<path fill="none" stroke="#63b8ff" d="M519.33,-206.72C518.81,-198.29 519.28,-188.86 520.74,-182.26"/>
<polygon fill="#63b8ff" stroke="#63b8ff" points="515.97,-207.1 520.71,-216.58 522.92,-206.22 515.97,-207.1"/>
</a>
</g>
</g>
<!-- Node27&#45;&gt;Node10 -->
<g id="edge40_Node000027_Node000010" class="edge">
<title>Node27&#45;&gt;Node10</title>
<g id="a_edge40_Node000027_Node000010"><a xlink:title=" ">
<path fill="none" stroke="#63b8ff" d="M565.47,-160.07C598.44,-150.35 644.66,-136.71 674.44,-127.93"/>
<polygon fill="#63b8ff" stroke="#63b8ff" points="564.87,-156.89 556.27,-163.08 566.85,-163.61 564.87,-156.89"/>
</a>
</g>
</g>
<!-- Node27&#45;&gt;Node13 -->
<g id="edge39_Node000027_Node000013" class="edge">
<title>Node27&#45;&gt;Node13</title>
<g id="a_edge39_Node000027_Node000013"><a xlink:title=" ">
<path fill="none" stroke="#63b8ff" d="M494.82,-158.99C473.44,-150.19 444.41,-138.19 418.88,-127.5 373.05,-108.31 319.4,-85.47 290.96,-73.33"/>
<polygon fill="#63b8ff" stroke="#63b8ff" points="493.36,-162.59 503.94,-163.16 496.02,-156.11 493.36,-162.59"/>
</a>
</g>
</g>
<!-- Node27&#45;&gt;Node21 -->
<g id="edge38_Node000027_Node000021" class="edge">
<title>Node27&#45;&gt;Node21</title>
<g id="a_edge38_Node000027_Node000021"><a xlink:title=" ">
<path fill="none" stroke="#63b8ff" d="M506.91,-156.2C495.57,-146.89 481.6,-135.43 472.25,-127.76"/>
<polygon fill="#63b8ff" stroke="#63b8ff" points="504.36,-159.44 514.31,-163.08 508.79,-154.03 504.36,-159.44"/>
</a>
</g>
</g>
<!-- Node27&#45;&gt;Node26 -->
<g id="edge41_Node000027_Node000026" class="edge">
<title>Node27&#45;&gt;Node26</title>
<g id="a_edge41_Node000027_Node000026"><a xlink:title=" ">
<path fill="none" stroke="#63b8ff" d="M532.41,-193.08C532.94,-201.49 532.48,-210.93 531.04,-217.58"/>
<polygon fill="#63b8ff" stroke="#63b8ff" points="535.77,-192.72 531.01,-183.26 528.82,-193.63 535.77,-192.72"/>
</a>
</g>
</g>
<!-- Node29 -->
<g id="Node000029" class="node">
<title>Node29</title>
<g id="a_Node000029"><a xlink:href="a02346.html" target="_top" xlink:title=" ">
<polygon fill="white" stroke="#666666" points="365.75,-182 316,-182 316,-163.5 365.75,-163.5 365.75,-182"/>
<text text-anchor="middle" x="340.88" y="-168.5" font-family="Helvetica,sans-Serif" font-size="10.00">async.c</text>
</a>
</g>
</g>
<!-- Node28&#45;&gt;Node29 -->
<g id="edge43_Node000028_Node000029" class="edge">
<title>Node28&#45;&gt;Node29</title>
<g id="a_edge43_Node000028_Node000029"><a xlink:title=" ">
<path fill="none" stroke="#63b8ff" d="M339.62,-206.72C339.94,-198.29 340.3,-188.86 340.55,-182.26"/>
<polygon fill="#63b8ff" stroke="#63b8ff" points="336.09,-206.45 339.21,-216.58 343.08,-206.72 336.09,-206.45"/>
</a>
</g>
</g>
<!-- Node31 -->
<g id="Node000031" class="node">
<title>Node31</title>
<g id="a_Node000031"><a xlink:href="a02349.html" target="_top" xlink:title=" ">
<polygon fill="white" stroke="#666666" points="433.75,-182 384,-182 384,-163.5 433.75,-163.5 433.75,-182"/>
<text text-anchor="middle" x="408.88" y="-168.5" font-family="Helvetica,sans-Serif" font-size="10.00">async.c</text>
</a>
</g>
</g>
<!-- Node30&#45;&gt;Node31 -->
<g id="edge45_Node000030_Node000031" class="edge">
<title>Node30&#45;&gt;Node31</title>
<g id="a_edge45_Node000030_Node000031"><a xlink:title=" ">
<path fill="none" stroke="#63b8ff" d="M407.62,-206.72C407.94,-198.29 408.3,-188.86 408.55,-182.26"/>
<polygon fill="#63b8ff" stroke="#63b8ff" points="404.09,-206.45 407.21,-216.58 411.08,-206.72 404.09,-206.45"/>
</a>
</g>
</g>
<!-- Node33 -->
<g id="Node000033" class="node">
<title>Node33</title>
<g id="a_Node000033"><a xlink:href="a02352.html" target="_top" xlink:title=" ">
<polygon fill="white" stroke="#666666" points="49.75,-182 0,-182 0,-163.5 49.75,-163.5 49.75,-182"/>
<text text-anchor="middle" x="24.88" y="-168.5" font-family="Helvetica,sans-Serif" font-size="10.00">async.c</text>
</a>
</g>
</g>
<!-- Node32&#45;&gt;Node33 -->
<g id="edge47_Node000032_Node000033" class="edge">
<title>Node32&#45;&gt;Node33</title>
<g id="a_edge47_Node000032_Node000033"><a xlink:title=" ">
<path fill="none" stroke="#63b8ff" d="M24.88,-206.72C24.88,-198.29 24.88,-188.86 24.88,-182.26"/>
<polygon fill="#63b8ff" stroke="#63b8ff" points="21.38,-206.58 24.88,-216.58 28.38,-206.58 21.38,-206.58"/>
</a>
</g>
</g>
<!-- Node35 -->
<g id="Node000035" class="node">
<title>Node35</title>
<g id="a_Node000035"><a xlink:href="a01355.html" target="_top" xlink:title=" ">
<polygon fill="white" stroke="#666666" points="898.12,-236.5 853.62,-236.5 853.62,-218 898.12,-218 898.12,-236.5"/>
<text text-anchor="middle" x="875.88" y="-223" font-family="Helvetica,sans-Serif" font-size="10.00">alloc.h</text>
</a>
</g>
</g>
<!-- Node34&#45;&gt;Node35 -->
<g id="edge49_Node000034_Node000035" class="edge">
<title>Node34&#45;&gt;Node35</title>
<g id="a_edge49_Node000034_Node000035"><a xlink:title=" ">
<path fill="none" stroke="#63b8ff" d="M834.67,-264.92C845.06,-255.67 857.78,-244.35 866.31,-236.76"/>
<polygon fill="#63b8ff" stroke="#63b8ff" points="832.76,-261.82 827.62,-271.08 837.41,-267.05 832.76,-261.82"/>
</a>
</g>
</g>
<!-- Node37 -->
<g id="Node000037" class="node">
<title>Node37</title>
<g id="a_Node000037"><a xlink:href="a01943.html" target="_top" xlink:title=" ">
<polygon fill="white" stroke="#666666" points="835.62,-236.5 782.12,-236.5 782.12,-218 835.62,-218 835.62,-236.5"/>
<text text-anchor="middle" x="808.88" y="-223" font-family="Helvetica,sans-Serif" font-size="10.00">bitmap.c</text>
</a>
</g>
</g>
<!-- Node34&#45;&gt;Node37 -->
<g id="edge52_Node000034_Node000037" class="edge">
<title>Node34&#45;&gt;Node37</title>
<g id="a_edge52_Node000034_Node000037"><a xlink:title=" ">
<path fill="none" stroke="#63b8ff" d="M813.9,-261.22C812.61,-252.79 811.18,-243.36 810.17,-236.76"/>
<polygon fill="#63b8ff" stroke="#63b8ff" points="810.59,-261.72 815.55,-271.08 817.51,-260.67 810.59,-261.72"/>
</a>
</g>
</g>
<!-- Node35&#45;&gt;Node15 -->
<g id="edge50_Node000035_Node000015" class="edge">
<title>Node35&#45;&gt;Node15</title>
<g id="a_edge50_Node000035_Node000015"><a xlink:title=" ">
<path fill="none" stroke="#63b8ff" d="M890.3,-209.67C896.97,-201.61 904.75,-191.6 910.88,-182 935.5,-143.38 957.83,-93.12 966.29,-73.31"/>
<polygon fill="#63b8ff" stroke="#63b8ff" points="887.19,-206.93 883.39,-216.82 892.53,-211.46 887.19,-206.93"/>
</a>
</g>
</g>
<!-- Node36 -->
<g id="Node000036" class="node">
<title>Node36</title>
<g id="a_Node000036"><a xlink:href="a01889.html" target="_top" xlink:title=" ">
<polygon fill="white" stroke="#666666" points="902.25,-182 849.5,-182 849.5,-163.5 902.25,-163.5 902.25,-182"/>
<text text-anchor="middle" x="875.88" y="-168.5" font-family="Helvetica,sans-Serif" font-size="10.00">malloc.c</text>
</a>
</g>
</g>
<!-- Node35&#45;&gt;Node36 -->
<g id="edge51_Node000035_Node000036" class="edge">
<title>Node35&#45;&gt;Node36</title>
<g id="a_edge51_Node000035_Node000036"><a xlink:title=" ">
<path fill="none" stroke="#63b8ff" d="M875.88,-206.72C875.88,-198.29 875.88,-188.86 875.88,-182.26"/>
<polygon fill="#63b8ff" stroke="#63b8ff" points="872.38,-206.58 875.88,-216.58 879.38,-206.58 872.38,-206.58"/>
</a>
</g>
</g>
<!-- Node38&#45;&gt;Node6 -->
<g id="edge56_Node000038_Node000006" class="edge">
<title>Node38&#45;&gt;Node6</title>
<g id="a_edge56_Node000038_Node000006"><a xlink:title=" ">
<path fill="none" stroke="#63b8ff" d="M732.27,-264.08C724.31,-254.99 714.78,-244.12 708.33,-236.76"/>
<polygon fill="#63b8ff" stroke="#63b8ff" points="730.06,-265.87 739.28,-271.08 735.32,-261.25 730.06,-265.87"/>
</a>
</g>
</g>
<!-- Node38&#45;&gt;Node10 -->
<g id="edge54_Node000038_Node000010" class="edge">
<title>Node38&#45;&gt;Node10</title>
<g id="a_edge54_Node000038_Node000010"><a xlink:title=" ">
<path fill="none" stroke="#63b8ff" d="M743.81,-261.65C741.66,-249.15 738.53,-232.51 734.88,-218 726.37,-184.19 712.95,-144.92 706.95,-127.87"/>
<polygon fill="#63b8ff" stroke="#63b8ff" points="740.46,-261.86 745.55,-271.16 747.37,-260.72 740.46,-261.86"/>
</a>
</g>
</g>
<!-- Node38&#45;&gt;Node26 -->
<g id="edge55_Node000038_Node000026" class="edge">
<title>Node38&#45;&gt;Node26</title>
<g id="a_edge55_Node000038_Node000026"><a xlink:title=" ">
<path fill="none" stroke="#63b8ff" d="M710.98,-272.22C670.15,-262.52 603.83,-246.77 562.65,-236.99"/>
<polygon fill="#63b8ff" stroke="#63b8ff" points="709.99,-275.82 720.52,-274.73 711.6,-269.01 709.99,-275.82"/>
</a>
</g>
</g>
<!-- Node39&#45;&gt;Node3 -->
<g id="edge58_Node000039_Node000003" class="edge">
<title>Node39&#45;&gt;Node3</title>
<g id="a_edge58_Node000039_Node000003"><a xlink:title=" ">
<path fill="none" stroke="#63b8ff" d="M976.69,-274.68C971.37,-273.93 965.99,-273.18 960.88,-272.5 830.39,-255.07 797.08,-255.89 666.88,-236.5 664.09,-236.09 661.21,-235.64 658.32,-235.17"/>
<polygon fill="#63b8ff" stroke="#63b8ff" points="976.03,-278.26 986.42,-276.22 977.02,-271.33 976.03,-278.26"/>
</a>
</g>
</g>
<!-- Node39&#45;&gt;Node12 -->
<g id="edge59_Node000039_Node000012" class="edge">
<title>Node39&#45;&gt;Node12</title>
<g id="a_edge59_Node000039_Node000012"><a xlink:title=" ">
<path fill="none" stroke="#63b8ff" d="M1042.31,-266.07C1068.96,-248 1107.88,-214.61 1107.88,-173.75 1107.88,-173.75 1107.88,-173.75 1107.88,-117.25 1107.88,-88.11 1111.66,-72.67 1088.88,-54.5 1041.88,-17.02 614.94,-11.28 490.04,-10.41"/>
<polygon fill="#63b8ff" stroke="#63b8ff" points="1040.62,-263.65 1034.14,-272.03 1044.44,-269.52 1040.62,-263.65"/>
</a>
</g>
</g>
<!-- Node39&#45;&gt;Node15 -->
<g id="edge60_Node000039_Node000015" class="edge">
<title>Node39&#45;&gt;Node15</title>
<g id="a_edge60_Node000039_Node000015"><a xlink:title=" ">
<path fill="none" stroke="#63b8ff" d="M1013.56,-261.34C1003.51,-216.11 978.84,-105.1 971.79,-73.36"/>
<polygon fill="#63b8ff" stroke="#63b8ff" points="1010.35,-262.01 1015.93,-271.02 1017.18,-260.49 1010.35,-262.01"/>
</a>
</g>
</g>
<!-- Node39&#45;&gt;Node16 -->
<g id="edge61_Node000039_Node000016" class="edge">
<title>Node39&#45;&gt;Node16</title>
<g id="a_edge61_Node000039_Node000016"><a xlink:title=" ">
<path fill="none" stroke="#63b8ff" d="M1024.76,-261.92C1027.36,-254.14 1030.11,-244.98 1031.88,-236.5 1044.72,-174.86 1048.6,-98.78 1049.58,-73.42"/>
<polygon fill="#63b8ff" stroke="#63b8ff" points="1021.2,-260.48 1021.2,-271.07 1027.81,-262.8 1021.2,-260.48"/>
</a>
</g>
</g>
</g>
</svg>
