<?xml version="1.0" encoding="UTF-8" standalone="no"?>
<!DOCTYPE svg PUBLIC "-//W3C//DTD SVG 1.1//EN"
 "http://www.w3.org/Graphics/SVG/1.1/DTD/svg11.dtd">
<!-- Generated by graphviz version 8.0.5 (0)
 -->
<!-- Title: arax_pipe_init Pages: 1 -->
<svg width="1403pt" height="323pt"
 viewBox="0.00 0.00 1402.50 323.43" xmlns="http://www.w3.org/2000/svg" xmlns:xlink="http://www.w3.org/1999/xlink">
<g id="graph0" class="graph" transform="scale(1 1) rotate(0) translate(4 319.43)">
<title>arax_pipe_init</title>
<!-- Node1 -->
<g id="Node000001" class="node">
<title>Node1</title>
<g id="a_Node000001"><a xlink:title=" ">
<polygon fill="#999999" stroke="#666666" points="76.75,-166.5 0,-166.5 0,-148 76.75,-148 76.75,-166.5"/>
<text text-anchor="middle" x="38.38" y="-153" font-family="Helvetica,sans-Serif" font-size="10.00">arax_pipe_init</text>
</a>
</g>
</g>
<!-- Node2 -->
<g id="Node000002" class="node">
<title>Node2</title>
<g id="a_Node000002"><a xlink:href="a01910.html#a86352ba91ba482c6688b7364d10bf956" target="_top" xlink:title=" ">
<polygon fill="white" stroke="#666666" points="227,-277.5 118,-277.5 118,-259 227,-259 227,-277.5"/>
<text text-anchor="middle" x="172.5" y="-264" font-family="Helvetica,sans-Serif" font-size="10.00">arax_object_repo_init</text>
</a>
</g>
</g>
<!-- Node1&#45;&gt;Node2 -->
<g id="edge1_Node000001_Node000002" class="edge">
<title>Node1&#45;&gt;Node2</title>
<g id="a_edge1_Node000001_Node000002"><a xlink:title=" ">
<path fill="none" stroke="#63b8ff" d="M44.47,-166.86C54.82,-185.49 80.15,-226.7 112.75,-249.25 115.31,-251.02 118.05,-252.64 120.89,-254.11"/>
<polygon fill="#63b8ff" stroke="#63b8ff" points="119.28,-257.67 129.84,-258.57 122.14,-251.28 119.28,-257.67"/>
</a>
</g>
</g>
<!-- Node3 -->
<g id="Node000003" class="node">
<title>Node3</title>
<g id="a_Node000003"><a xlink:href="a01946.html#ab36e49d2e694b1da49504a689ed48e4a" target="_top" xlink:title=" ">
<polygon fill="white" stroke="#666666" points="360.75,-314.5 290.75,-314.5 290.75,-296 360.75,-296 360.75,-314.5"/>
<text text-anchor="middle" x="325.75" y="-301" font-family="Helvetica,sans-Serif" font-size="10.00">utils_list_init</text>
</a>
</g>
</g>
<!-- Node1&#45;&gt;Node3 -->
<g id="edge36_Node000001_Node000003" class="edge">
<title>Node1&#45;&gt;Node3</title>
<g id="a_edge36_Node000001_Node000003"><a xlink:title=" ">
<path fill="none" stroke="#63b8ff" d="M41.57,-166.81C47.8,-191.51 68.11,-257.54 112.75,-286.25 162.85,-318.47 233.92,-317.65 279.68,-312.62"/>
<polygon fill="#63b8ff" stroke="#63b8ff" points="279.96,-315.99 289.46,-311.3 279.11,-309.04 279.96,-315.99"/>
</a>
</g>
</g>
<!-- Node5 -->
<g id="Node000005" class="node">
<title>Node5</title>
<g id="a_Node000005"><a xlink:href="a01913.html#a60dde947b05bc69599a6c7d92c38d088" target="_top" xlink:title=" ">
<polygon fill="white" stroke="#666666" points="232.25,-203.5 112.75,-203.5 112.75,-185 232.25,-185 232.25,-203.5"/>
<text text-anchor="middle" x="172.5" y="-190" font-family="Helvetica,sans-Serif" font-size="10.00">arax_pipe_add_process</text>
</a>
</g>
</g>
<!-- Node1&#45;&gt;Node5 -->
<g id="edge4_Node000001_Node000005" class="edge">
<title>Node1&#45;&gt;Node5</title>
<g id="a_edge4_Node000001_Node000005"><a xlink:title=" ">
<path fill="none" stroke="#63b8ff" d="M74.09,-166.97C90.17,-171.47 109.48,-176.88 126.65,-181.69"/>
<polygon fill="#63b8ff" stroke="#63b8ff" points="125.44,-185.27 136.02,-184.59 127.33,-178.53 125.44,-185.27"/>
</a>
</g>
</g>
<!-- Node6 -->
<g id="Node000006" class="node">
<title>Node6</title>
<g id="a_Node000006"><a xlink:href="a01925.html#acf84ea82594c4dbe91cf602ee078e04d" target="_top" xlink:title=" ">
<polygon fill="white" stroke="#666666" points="216.88,-129.5 128.12,-129.5 128.12,-111 216.88,-111 216.88,-129.5"/>
<text text-anchor="middle" x="172.5" y="-116" font-family="Helvetica,sans-Serif" font-size="10.00">arax_throttle_init</text>
</a>
</g>
</g>
<!-- Node1&#45;&gt;Node6 -->
<g id="edge5_Node000001_Node000006" class="edge">
<title>Node1&#45;&gt;Node6</title>
<g id="a_edge5_Node000001_Node000006"><a xlink:title=" ">
<path fill="none" stroke="#63b8ff" d="M74.09,-147.53C90.17,-143.03 109.48,-137.62 126.65,-132.81"/>
<polygon fill="#63b8ff" stroke="#63b8ff" points="127.33,-135.97 136.02,-129.91 125.44,-129.23 127.33,-135.97"/>
</a>
</g>
</g>
<!-- Node7 -->
<g id="Node000007" class="node">
<title>Node7</title>
<g id="a_Node000007"><a xlink:href="a02352.html#ac7fbf1f43289d3e0e862b315f00e35e2" target="_top" xlink:title=" ">
<polygon fill="white" stroke="#666666" points="377.62,-129.5 273.88,-129.5 273.88,-111 377.62,-111 377.62,-129.5"/>
<text text-anchor="middle" x="325.75" y="-116" font-family="Helvetica,sans-Serif" font-size="10.00">async_condition_init</text>
</a>
</g>
</g>
<!-- Node1&#45;&gt;Node7 -->
<g id="edge15_Node000001_Node000007" class="edge">
<title>Node1&#45;&gt;Node7</title>
<g id="a_edge15_Node000001_Node000007"><a xlink:title=" ">
<path fill="none" stroke="#63b8ff" d="M77.2,-154.58C116.18,-151.58 178.65,-146.09 232.25,-138.25 244.02,-136.53 256.57,-134.33 268.51,-132.07"/>
<polygon fill="#63b8ff" stroke="#63b8ff" points="269.11,-135.33 278.26,-129.99 267.77,-128.45 269.11,-135.33"/>
</a>
</g>
</g>
<!-- Node13 -->
<g id="Node000013" class="node">
<title>Node13</title>
<g id="a_Node000013"><a xlink:href="a02343.html#a75bfaa5e934f1853fc8fd536ea469ad9" target="_top" xlink:title=" ">
<polygon fill="white" stroke="#666666" points="228.88,-92.5 116.12,-92.5 116.12,-74 228.88,-74 228.88,-92.5"/>
<text text-anchor="middle" x="172.5" y="-79" font-family="Helvetica,sans-Serif" font-size="10.00">arch_alloc_init_always</text>
</a>
</g>
</g>
<!-- Node1&#45;&gt;Node13 -->
<g id="edge12_Node000001_Node000013" class="edge">
<title>Node1&#45;&gt;Node13</title>
<g id="a_edge12_Node000001_Node000013"><a xlink:title=" ">
<path fill="none" stroke="#63b8ff" d="M49.57,-147.86C63.1,-135.82 88.15,-114.99 112.75,-102.25 116.55,-100.28 120.59,-98.46 124.71,-96.8"/>
<polygon fill="#63b8ff" stroke="#63b8ff" points="125.85,-99.74 134.01,-92.98 123.42,-93.18 125.85,-99.74"/>
</a>
</g>
</g>
<!-- Node14 -->
<g id="Node000014" class="node">
<title>Node14</title>
<g id="a_Node000014"><a xlink:href="a02343.html#a44fec37f87bcd49aaacc97696f9e0e7d" target="_top" xlink:title=" ">
<polygon fill="white" stroke="#666666" points="224.75,-55.5 120.25,-55.5 120.25,-37 224.75,-37 224.75,-55.5"/>
<text text-anchor="middle" x="172.5" y="-42" font-family="Helvetica,sans-Serif" font-size="10.00">arch_alloc_init_once</text>
</a>
</g>
</g>
<!-- Node1&#45;&gt;Node14 -->
<g id="edge13_Node000001_Node000014" class="edge">
<title>Node1&#45;&gt;Node14</title>
<g id="a_edge13_Node000001_Node000014"><a xlink:title=" ">
<path fill="none" stroke="#63b8ff" d="M44.47,-147.64C54.82,-129.01 80.15,-87.8 112.75,-65.25 115.31,-63.48 118.05,-61.86 120.89,-60.39"/>
<polygon fill="#63b8ff" stroke="#63b8ff" points="122.14,-63.22 129.84,-55.93 119.28,-56.83 122.14,-63.22"/>
</a>
</g>
</g>
<!-- Node16 -->
<g id="Node000016" class="node">
<title>Node16</title>
<g id="a_Node000016"><a xlink:href="a02352.html#ab2e422aab2fcfa562795beb2843e8019" target="_top" xlink:title=" ">
<polygon fill="white" stroke="#666666" points="228.88,-240.5 116.12,-240.5 116.12,-222 228.88,-222 228.88,-240.5"/>
<text text-anchor="middle" x="172.5" y="-227" font-family="Helvetica,sans-Serif" font-size="10.00">async_meta_init_once</text>
</a>
</g>
</g>
<!-- Node1&#45;&gt;Node16 -->
<g id="edge16_Node000001_Node000016" class="edge">
<title>Node1&#45;&gt;Node16</title>
<g id="a_edge16_Node000001_Node000016"><a xlink:title=" ">
<path fill="none" stroke="#63b8ff" d="M49.57,-166.64C63.1,-178.68 88.15,-199.51 112.75,-212.25 116.55,-214.22 120.59,-216.04 124.71,-217.7"/>
<polygon fill="#63b8ff" stroke="#63b8ff" points="123.42,-221.32 134.01,-221.52 125.85,-214.76 123.42,-221.32"/>
</a>
</g>
</g>
<!-- Node31 -->
<g id="Node000031" class="node">
<title>Node31</title>
<g id="a_Node000031"><a xlink:href="a01934.html#a2e86c7792c1e7e0e1bdf1fe1a25dcab0" target="_top" xlink:title=" ">
<polygon fill="white" stroke="#666666" points="206.38,-18.5 138.62,-18.5 138.62,0 206.38,0 206.38,-18.5"/>
<text text-anchor="middle" x="172.5" y="-5" font-family="Helvetica,sans-Serif" font-size="10.00">utils_kv_init</text>
</a>
</g>
</g>
<!-- Node1&#45;&gt;Node31 -->
<g id="edge35_Node000001_Node000031" class="edge">
<title>Node1&#45;&gt;Node31</title>
<g id="a_edge35_Node000001_Node000031"><a xlink:title=" ">
<path fill="none" stroke="#63b8ff" d="M42.18,-147.55C49.6,-123.65 71.99,-61.43 112.75,-28.25 117.32,-24.53 122.64,-21.53 128.18,-19.11"/>
<polygon fill="#63b8ff" stroke="#63b8ff" points="129.1,-22.13 137.26,-15.36 126.66,-15.57 129.1,-22.13"/>
</a>
</g>
</g>
<!-- Node2&#45;&gt;Node3 -->
<g id="edge2_Node000002_Node000003" class="edge">
<title>Node2&#45;&gt;Node3</title>
<g id="a_edge2_Node000002_Node000003"><a xlink:title=" ">
<path fill="none" stroke="#63b8ff" d="M213.24,-277.97C233.66,-282.97 258.63,-289.07 279.76,-294.24"/>
<polygon fill="#63b8ff" stroke="#63b8ff" points="278.87,-297.87 289.41,-296.85 280.53,-291.07 278.87,-297.87"/>
</a>
</g>
</g>
<!-- Node4 -->
<g id="Node000004" class="node">
<title>Node4</title>
<g id="a_Node000004"><a xlink:href="a01946.html#a63f2791c9b5c8e2fa15967cfafb7ccbb" target="_top" xlink:title=" ">
<polygon fill="white" stroke="#666666" points="536.88,-314.5 440.62,-314.5 440.62,-296 536.88,-296 536.88,-314.5"/>
<text text-anchor="middle" x="488.75" y="-301" font-family="Helvetica,sans-Serif" font-size="10.00">utils_list_node_init</text>
</a>
</g>
</g>
<!-- Node3&#45;&gt;Node4 -->
<g id="edge3_Node000003_Node000004" class="edge">
<title>Node3&#45;&gt;Node4</title>
<g id="a_edge3_Node000003_Node000004"><a xlink:title=" ">
<path fill="none" stroke="#63b8ff" d="M360.89,-305.25C380.82,-305.25 406.48,-305.25 429.51,-305.25"/>
<polygon fill="#63b8ff" stroke="#63b8ff" points="429.22,-308.75 439.22,-305.25 429.22,-301.75 429.22,-308.75"/>
</a>
</g>
</g>
<!-- Node6&#45;&gt;Node7 -->
<g id="edge6_Node000006_Node000007" class="edge">
<title>Node6&#45;&gt;Node7</title>
<g id="a_edge6_Node000006_Node000007"><a xlink:title=" ">
<path fill="none" stroke="#63b8ff" d="M217.25,-120.25C231.43,-120.25 247.44,-120.25 262.69,-120.25"/>
<polygon fill="#63b8ff" stroke="#63b8ff" points="262.63,-123.75 272.63,-120.25 262.63,-116.75 262.63,-123.75"/>
</a>
</g>
</g>
<!-- Node8 -->
<g id="Node000008" class="node">
<title>Node8</title>
<g id="a_Node000008"><a xlink:href="a02346.html#ad1d30ecbf6bff6457b680aa940281072" target="_top" xlink:title=" ">
<polygon fill="white" stroke="#666666" points="558.25,-166.5 419.25,-166.5 419.25,-148 558.25,-148 558.25,-166.5"/>
<text text-anchor="middle" x="488.75" y="-153" font-family="Helvetica,sans-Serif" font-size="10.00">async_completion_complete</text>
</a>
</g>
</g>
<!-- Node7&#45;&gt;Node8 -->
<g id="edge7_Node000007_Node000008" class="edge">
<title>Node7&#45;&gt;Node8</title>
<g id="a_edge7_Node000007_Node000008"><a xlink:title=" ">
<path fill="none" stroke="#63b8ff" d="M369.05,-129.97C389.22,-134.61 413.54,-140.2 434.91,-145.11"/>
<polygon fill="#63b8ff" stroke="#63b8ff" points="433.92,-148.7 444.45,-147.53 435.49,-141.88 433.92,-148.7"/>
</a>
</g>
</g>
<!-- Node9 -->
<g id="Node000009" class="node">
<title>Node9</title>
<g id="a_Node000009"><a xlink:href="a02346.html#ac728117d73179c279de49e01ae905dda" target="_top" xlink:title=" ">
<polygon fill="white" stroke="#666666" points="544.75,-129.5 432.75,-129.5 432.75,-111 544.75,-111 544.75,-129.5"/>
<text text-anchor="middle" x="488.75" y="-116" font-family="Helvetica,sans-Serif" font-size="10.00">async_completion_init</text>
</a>
</g>
</g>
<!-- Node7&#45;&gt;Node9 -->
<g id="edge8_Node000007_Node000009" class="edge">
<title>Node7&#45;&gt;Node9</title>
<g id="a_edge8_Node000007_Node000009"><a xlink:title=" ">
<path fill="none" stroke="#63b8ff" d="M377.69,-120.25C391.7,-120.25 407.1,-120.25 421.83,-120.25"/>
<polygon fill="#63b8ff" stroke="#63b8ff" points="421.4,-123.75 431.4,-120.25 421.4,-116.75 421.4,-123.75"/>
</a>
</g>
</g>
<!-- Node10 -->
<g id="Node000010" class="node">
<title>Node10</title>
<g id="a_Node000010"><a xlink:href="a02349.html#a3bbcb7c4c024e99d5c4ba52b61dfbbf7" target="_top" xlink:title=" ">
<polygon fill="white" stroke="#666666" points="548.5,-92.5 429,-92.5 429,-74 548.5,-74 548.5,-92.5"/>
<text text-anchor="middle" x="488.75" y="-79" font-family="Helvetica,sans-Serif" font-size="10.00">async_condition_unlock</text>
</a>
</g>
</g>
<!-- Node7&#45;&gt;Node10 -->
<g id="edge9_Node000007_Node000010" class="edge">
<title>Node7&#45;&gt;Node10</title>
<g id="a_edge9_Node000007_Node000010"><a xlink:title=" ">
<path fill="none" stroke="#63b8ff" d="M369.05,-110.53C389.22,-105.89 413.54,-100.3 434.91,-95.39"/>
<polygon fill="#63b8ff" stroke="#63b8ff" points="435.49,-98.62 444.45,-92.97 433.92,-91.8 435.49,-98.62"/>
</a>
</g>
</g>
<!-- Node12 -->
<g id="Node000012" class="node">
<title>Node12</title>
<g id="a_Node000012"><a xlink:href="a02346.html#a2a7d01fc7720e936a430efc09d094c6c" target="_top" xlink:title=" ">
<polygon fill="white" stroke="#666666" points="545.12,-55.5 432.38,-55.5 432.38,-37 545.12,-37 545.12,-55.5"/>
<text text-anchor="middle" x="488.75" y="-42" font-family="Helvetica,sans-Serif" font-size="10.00">async_semaphore_init</text>
</a>
</g>
</g>
<!-- Node7&#45;&gt;Node12 -->
<g id="edge11_Node000007_Node000012" class="edge">
<title>Node7&#45;&gt;Node12</title>
<g id="a_edge11_Node000007_Node000012"><a xlink:title=" ">
<path fill="none" stroke="#63b8ff" d="M340.24,-110.66C357.73,-98.6 389.52,-77.94 419.25,-65.25 424.5,-63.01 430.09,-60.96 435.72,-59.1"/>
<polygon fill="#63b8ff" stroke="#63b8ff" points="436.33,-62.27 444.85,-55.97 434.26,-55.58 436.33,-62.27"/>
</a>
</g>
</g>
<!-- Node11 -->
<g id="Node000011" class="node">
<title>Node11</title>
<g id="a_Node000011"><a xlink:href="a02349.html#ad1d30ecbf6bff6457b680aa940281072" target="_top" xlink:title=" ">
<polygon fill="white" stroke="#666666" points="733.25,-92.5 594.25,-92.5 594.25,-74 733.25,-74 733.25,-92.5"/>
<text text-anchor="middle" x="663.75" y="-79" font-family="Helvetica,sans-Serif" font-size="10.00">async_completion_complete</text>
</a>
</g>
</g>
<!-- Node10&#45;&gt;Node11 -->
<g id="edge10_Node000010_Node000011" class="edge">
<title>Node10&#45;&gt;Node11</title>
<g id="a_edge10_Node000010_Node000011"><a xlink:title=" ">
<path fill="none" stroke="#63b8ff" d="M548.8,-83.25C559.78,-83.25 571.42,-83.25 582.9,-83.25"/>
<polygon fill="#63b8ff" stroke="#63b8ff" points="582.83,-86.75 592.83,-83.25 582.83,-79.75 582.83,-86.75"/>
</a>
</g>
</g>
<!-- Node15 -->
<g id="Node000015" class="node">
<title>Node15</title>
<g id="a_Node000015"><a xlink:href="a01943.html#a6699a24a46fb1be57ca21abf8bc61928" target="_top" xlink:title=" ">
<polygon fill="white" stroke="#666666" points="369,-55.5 282.5,-55.5 282.5,-37 369,-37 369,-55.5"/>
<text text-anchor="middle" x="325.75" y="-42" font-family="Helvetica,sans-Serif" font-size="10.00">utils_bitmap_init</text>
</a>
</g>
</g>
<!-- Node14&#45;&gt;Node15 -->
<g id="edge14_Node000014_Node000015" class="edge">
<title>Node14&#45;&gt;Node15</title>
<g id="a_edge14_Node000014_Node000015"><a xlink:title=" ">
<path fill="none" stroke="#63b8ff" d="M225.13,-46.25C240.14,-46.25 256.56,-46.25 271.66,-46.25"/>
<polygon fill="#63b8ff" stroke="#63b8ff" points="271.38,-49.75 281.38,-46.25 271.38,-42.75 271.38,-49.75"/>
</a>
</g>
</g>
<!-- Node16&#45;&gt;Node3 -->
<g id="edge34_Node000016_Node000003" class="edge">
<title>Node16&#45;&gt;Node3</title>
<g id="a_edge34_Node000016_Node000003"><a xlink:title=" ">
<path fill="none" stroke="#63b8ff" d="M212.27,-240.9C219.18,-243.41 226.12,-246.5 232.25,-250.25 251.55,-262.06 249.02,-274.33 268.25,-286.25 272.06,-288.61 276.2,-290.72 280.44,-292.59"/>
<polygon fill="#63b8ff" stroke="#63b8ff" points="278.86,-296.12 289.44,-296.53 281.42,-289.61 278.86,-296.12"/>
</a>
</g>
</g>
<!-- Node17 -->
<g id="Node000017" class="node">
<title>Node17</title>
<g id="a_Node000017"><a xlink:href="a01952.html#aff9af0356940583dfe3045e693cc8a45" target="_top" xlink:title=" ">
<polygon fill="white" stroke="#666666" points="383.25,-277.5 268.25,-277.5 268.25,-259 383.25,-259 383.25,-277.5"/>
<text text-anchor="middle" x="325.75" y="-264" font-family="Helvetica,sans-Serif" font-size="10.00">utils_config_alloc_path</text>
</a>
</g>
</g>
<!-- Node16&#45;&gt;Node17 -->
<g id="edge17_Node000016_Node000017" class="edge">
<title>Node16&#45;&gt;Node17</title>
<g id="a_edge17_Node000016_Node000017"><a xlink:title=" ">
<path fill="none" stroke="#63b8ff" d="M213.24,-240.97C232.01,-245.56 254.62,-251.09 274.56,-255.97"/>
<polygon fill="#63b8ff" stroke="#63b8ff" points="273.47,-259.55 284.01,-258.53 275.13,-252.75 273.47,-259.55"/>
</a>
</g>
</g>
<!-- Node19 -->
<g id="Node000019" class="node">
<title>Node19</title>
<g id="a_Node000019"><a xlink:href="a01952.html#a84f3886cdcb91a28bf13b07aae8b2285" target="_top" xlink:title=" ">
<polygon fill="white" stroke="#666666" points="381.38,-240.5 270.12,-240.5 270.12,-222 381.38,-222 381.38,-240.5"/>
<text text-anchor="middle" x="325.75" y="-227" font-family="Helvetica,sans-Serif" font-size="10.00">utils_config_free_path</text>
</a>
</g>
</g>
<!-- Node16&#45;&gt;Node19 -->
<g id="edge19_Node000016_Node000019" class="edge">
<title>Node16&#45;&gt;Node19</title>
<g id="a_edge19_Node000016_Node000019"><a xlink:title=" ">
<path fill="none" stroke="#63b8ff" d="M228.96,-231.25C238.74,-231.25 249.01,-231.25 259.04,-231.25"/>
<polygon fill="#63b8ff" stroke="#63b8ff" points="258.8,-234.75 268.8,-231.25 258.8,-227.75 258.8,-234.75"/>
</a>
</g>
</g>
<!-- Node20 -->
<g id="Node000020" class="node">
<title>Node20</title>
<g id="a_Node000020"><a xlink:href="a01952.html#aa7aa94ad075bf97a566f01f899fcd859" target="_top" xlink:title=" ">
<polygon fill="white" stroke="#666666" points="379.5,-203.5 272,-203.5 272,-185 379.5,-185 379.5,-203.5"/>
<text text-anchor="middle" x="325.75" y="-190" font-family="Helvetica,sans-Serif" font-size="10.00">utils_config_get_bool</text>
</a>
</g>
</g>
<!-- Node16&#45;&gt;Node20 -->
<g id="edge20_Node000016_Node000020" class="edge">
<title>Node16&#45;&gt;Node20</title>
<g id="a_edge20_Node000016_Node000020"><a xlink:title=" ">
<path fill="none" stroke="#63b8ff" d="M213.24,-221.53C232.01,-216.94 254.62,-211.41 274.56,-206.53"/>
<polygon fill="#63b8ff" stroke="#63b8ff" points="275.13,-209.75 284.01,-203.97 273.47,-202.95 275.13,-209.75"/>
</a>
</g>
</g>
<!-- Node18 -->
<g id="Node000018" class="node">
<title>Node18</title>
<g id="a_Node000018"><a xlink:href="a01955.html#a0844807fe9679a9a5fbf1bfc9dd78dc6" target="_top" xlink:title=" ">
<polygon fill="white" stroke="#666666" points="538.75,-277.5 438.75,-277.5 438.75,-259 538.75,-259 538.75,-277.5"/>
<text text-anchor="middle" x="488.75" y="-264" font-family="Helvetica,sans-Serif" font-size="10.00">system_home_path</text>
</a>
</g>
</g>
<!-- Node17&#45;&gt;Node18 -->
<g id="edge18_Node000017_Node000018" class="edge">
<title>Node17&#45;&gt;Node18</title>
<g id="a_edge18_Node000017_Node000018"><a xlink:title=" ">
<path fill="none" stroke="#63b8ff" d="M383.51,-268.25C397.8,-268.25 413.18,-268.25 427.62,-268.25"/>
<polygon fill="#63b8ff" stroke="#63b8ff" points="427.45,-271.75 437.45,-268.25 427.45,-264.75 427.45,-271.75"/>
</a>
</g>
</g>
<!-- Node21 -->
<g id="Node000021" class="node">
<title>Node21</title>
<g id="a_Node000021"><a xlink:href="a01952.html#a336fa8eefc3d744aa7248d6786cfee03" target="_top" xlink:title=" ">
<polygon fill="white" stroke="#666666" points="538.75,-203.5 438.75,-203.5 438.75,-185 538.75,-185 538.75,-203.5"/>
<text text-anchor="middle" x="488.75" y="-190" font-family="Helvetica,sans-Serif" font-size="10.00">utils_config_get_int</text>
</a>
</g>
</g>
<!-- Node20&#45;&gt;Node21 -->
<g id="edge21_Node000020_Node000021" class="edge">
<title>Node20&#45;&gt;Node21</title>
<g id="a_edge21_Node000020_Node000021"><a xlink:title=" ">
<path fill="none" stroke="#63b8ff" d="M379.91,-194.25C395.24,-194.25 412.08,-194.25 427.79,-194.25"/>
<polygon fill="#63b8ff" stroke="#63b8ff" points="427.46,-197.75 437.46,-194.25 427.46,-190.75 427.46,-197.75"/>
</a>
</g>
</g>
<!-- Node22 -->
<g id="Node000022" class="node">
<title>Node22</title>
<g id="a_Node000022"><a xlink:href="a01952.html#a1a28ba7c7791236d03b1fa9f81aa6a71" target="_top" xlink:title=" ">
<polygon fill="white" stroke="#666666" points="717.5,-203.5 610,-203.5 610,-185 717.5,-185 717.5,-203.5"/>
<text text-anchor="middle" x="663.75" y="-190" font-family="Helvetica,sans-Serif" font-size="10.00">utils_config_get_long</text>
</a>
</g>
</g>
<!-- Node21&#45;&gt;Node22 -->
<g id="edge22_Node000021_Node000022" class="edge">
<title>Node21&#45;&gt;Node22</title>
<g id="a_edge22_Node000021_Node000022"><a xlink:title=" ">
<path fill="none" stroke="#63b8ff" d="M538.86,-194.25C557.49,-194.25 578.98,-194.25 598.78,-194.25"/>
<polygon fill="#63b8ff" stroke="#63b8ff" points="598.58,-197.75 608.58,-194.25 598.58,-190.75 598.58,-197.75"/>
</a>
</g>
</g>
<!-- Node23 -->
<g id="Node000023" class="node">
<title>Node23</title>
<g id="a_Node000023"><a xlink:href="a01952.html#a0738274ac3fd171eda6bfb42492bc0d7" target="_top" xlink:title=" ">
<polygon fill="white" stroke="#666666" points="1027.38,-221.5 921.38,-221.5 921.38,-203 1027.38,-203 1027.38,-221.5"/>
<text text-anchor="middle" x="974.38" y="-208" font-family="Helvetica,sans-Serif" font-size="10.00">_utils_config_get_str</text>
</a>
</g>
</g>
<!-- Node22&#45;&gt;Node23 -->
<g id="edge23_Node000022_Node000023" class="edge">
<title>Node22&#45;&gt;Node23</title>
<g id="a_edge23_Node000022_Node000023"><a xlink:title=" ">
<path fill="none" stroke="#63b8ff" d="M717.8,-197.34C771.23,-200.46 853.66,-205.27 910.38,-208.58"/>
<polygon fill="#63b8ff" stroke="#63b8ff" points="909.83,-212.11 920.01,-209.2 910.23,-205.12 909.83,-212.11"/>
</a>
</g>
</g>
<!-- Node28 -->
<g id="Node000028" class="node">
<title>Node28</title>
<g id="a_Node000028"><a xlink:href="a01952.html#a88091e179416d4beec1b5681cfb68742" target="_top" xlink:title=" ">
<polygon fill="white" stroke="#666666" points="884.25,-184.5 769.25,-184.5 769.25,-166 884.25,-166 884.25,-184.5"/>
<text text-anchor="middle" x="826.75" y="-171" font-family="Helvetica,sans-Serif" font-size="10.00">utils_config_write_long</text>
</a>
</g>
</g>
<!-- Node22&#45;&gt;Node28 -->
<g id="edge29_Node000022_Node000028" class="edge">
<title>Node22&#45;&gt;Node28</title>
<g id="a_edge29_Node000022_Node000028"><a xlink:title=" ">
<path fill="none" stroke="#63b8ff" d="M717.91,-187.98C730.78,-186.46 744.7,-184.81 758.13,-183.23"/>
<polygon fill="#63b8ff" stroke="#63b8ff" points="758.25,-186.62 767.77,-181.97 757.42,-179.67 758.25,-186.62"/>
</a>
</g>
</g>
<!-- Node24 -->
<g id="Node000024" class="node">
<title>Node24</title>
<g id="a_Node000024"><a xlink:href="a01952.html#a8b687fb4c464903e23504eea3ddc3873" target="_top" xlink:title=" ">
<polygon fill="white" stroke="#666666" points="1118,-221.5 1064.5,-221.5 1064.5,-203 1118,-203 1118,-221.5"/>
<text text-anchor="middle" x="1091.25" y="-208" font-family="Helvetica,sans-Serif" font-size="10.00">conf_get</text>
</a>
</g>
</g>
<!-- Node23&#45;&gt;Node24 -->
<g id="edge24_Node000023_Node000024" class="edge">
<title>Node23&#45;&gt;Node24</title>
<g id="a_edge24_Node000023_Node000024"><a xlink:title=" ">
<path fill="none" stroke="#63b8ff" d="M1027.77,-212.25C1036.38,-212.25 1045.14,-212.25 1053.27,-212.25"/>
<polygon fill="#63b8ff" stroke="#63b8ff" points="1053.26,-215.75 1063.26,-212.25 1053.26,-208.75 1053.26,-215.75"/>
</a>
</g>
</g>
<!-- Node25 -->
<g id="Node000025" class="node">
<title>Node25</title>
<g id="a_Node000025"><a xlink:href="a01955.html#acde493d3889d6f207d1e122cf4bb1b8c" target="_top" xlink:title=" ">
<polygon fill="white" stroke="#666666" points="1394.5,-221.5 1308.75,-221.5 1308.75,-203 1394.5,-203 1394.5,-221.5"/>
<text text-anchor="middle" x="1351.62" y="-208" font-family="Helvetica,sans-Serif" font-size="10.00">system_env_var</text>
</a>
</g>
</g>
<!-- Node24&#45;&gt;Node25 -->
<g id="edge25_Node000024_Node000025" class="edge">
<title>Node24&#45;&gt;Node25</title>
<g id="a_edge25_Node000024_Node000025"><a xlink:title=" ">
<path fill="none" stroke="#63b8ff" d="M1118.33,-221.63C1129.21,-225.08 1142.06,-228.55 1154,-230.25 1206.25,-237.71 1220.31,-236.23 1272.75,-230.25 1283.61,-229.01 1295.15,-226.83 1305.94,-224.41"/>
<polygon fill="#63b8ff" stroke="#63b8ff" points="1306.49,-227.64 1315.42,-221.93 1304.88,-220.82 1306.49,-227.64"/>
</a>
</g>
</g>
<!-- Node26 -->
<g id="Node000026" class="node">
<title>Node26</title>
<g id="a_Node000026"><a xlink:href="a01955.html#a86c3bfbf6daaf8172e131aa23dc7393c" target="_top" xlink:title=" ">
<polygon fill="white" stroke="#666666" points="1257,-221.5 1169.75,-221.5 1169.75,-203 1257,-203 1257,-221.5"/>
<text text-anchor="middle" x="1213.38" y="-208" font-family="Helvetica,sans-Serif" font-size="10.00">system_file_size</text>
</a>
</g>
</g>
<!-- Node24&#45;&gt;Node26 -->
<g id="edge26_Node000024_Node000026" class="edge">
<title>Node24&#45;&gt;Node26</title>
<g id="a_edge26_Node000024_Node000026"><a xlink:title=" ">
<path fill="none" stroke="#63b8ff" d="M1118.32,-212.25C1130.19,-212.25 1144.71,-212.25 1158.76,-212.25"/>
<polygon fill="#63b8ff" stroke="#63b8ff" points="1158.36,-215.75 1168.36,-212.25 1158.36,-208.75 1158.36,-215.75"/>
</a>
</g>
</g>
<!-- Node27 -->
<g id="Node000027" class="node">
<title>Node27</title>
<g id="a_Node000027"><a xlink:href="a01952.html#a17713c8e9b90065e23b0ec1a225f79ab" target="_top" xlink:title=" ">
<polygon fill="white" stroke="#666666" points="1272.75,-184.5 1154,-184.5 1154,-166 1272.75,-166 1272.75,-184.5"/>
<text text-anchor="middle" x="1213.38" y="-171" font-family="Helvetica,sans-Serif" font-size="10.00">utils_config_get_source</text>
</a>
</g>
</g>
<!-- Node24&#45;&gt;Node27 -->
<g id="edge27_Node000024_Node000027" class="edge">
<title>Node24&#45;&gt;Node27</title>
<g id="a_edge27_Node000024_Node000027"><a xlink:title=" ">
<path fill="none" stroke="#63b8ff" d="M1118.32,-204.22C1133.52,-199.54 1153.05,-193.52 1170.37,-188.19"/>
<polygon fill="#63b8ff" stroke="#63b8ff" points="1171.28,-191.26 1179.81,-184.97 1169.22,-184.57 1171.28,-191.26"/>
</a>
</g>
</g>
<!-- Node27&#45;&gt;Node25 -->
<g id="edge28_Node000027_Node000025" class="edge">
<title>Node27&#45;&gt;Node25</title>
<g id="a_edge28_Node000027_Node000025"><a xlink:title=" ">
<path fill="none" stroke="#63b8ff" d="M1250.17,-184.97C1266.84,-189.5 1286.86,-194.93 1304.63,-199.76"/>
<polygon fill="#63b8ff" stroke="#63b8ff" points="1303.5,-203.35 1314.07,-202.59 1305.33,-196.6 1303.5,-203.35"/>
</a>
</g>
</g>
<!-- Node29 -->
<g id="Node000029" class="node">
<title>Node29</title>
<g id="a_Node000029"><a xlink:href="a01952.html#a4b9cd8f5d0c205ac6c1fd30f77cbf539" target="_top" xlink:title=" ">
<polygon fill="white" stroke="#666666" points="1028.5,-184.5 920.25,-184.5 920.25,-166 1028.5,-166 1028.5,-184.5"/>
<text text-anchor="middle" x="974.38" y="-171" font-family="Helvetica,sans-Serif" font-size="10.00">utils_config_write_str</text>
</a>
</g>
</g>
<!-- Node28&#45;&gt;Node29 -->
<g id="edge30_Node000028_Node000029" class="edge">
<title>Node28&#45;&gt;Node29</title>
<g id="a_edge30_Node000028_Node000029"><a xlink:title=" ">
<path fill="none" stroke="#63b8ff" d="M884.47,-175.25C892.49,-175.25 900.78,-175.25 908.92,-175.25"/>
<polygon fill="#63b8ff" stroke="#63b8ff" points="908.91,-178.75 918.91,-175.25 908.91,-171.75 908.91,-178.75"/>
</a>
</g>
</g>
<!-- Node29&#45;&gt;Node24 -->
<g id="edge31_Node000029_Node000024" class="edge">
<title>Node29&#45;&gt;Node24</title>
<g id="a_edge31_Node000029_Node000024"><a xlink:title=" ">
<path fill="none" stroke="#63b8ff" d="M1005.56,-184.97C1020.36,-189.74 1038.3,-195.52 1053.85,-200.53"/>
<polygon fill="#63b8ff" stroke="#63b8ff" points="1052.58,-204.12 1063.17,-203.85 1054.72,-197.45 1052.58,-204.12"/>
</a>
</g>
</g>
<!-- Node30 -->
<g id="Node000030" class="node">
<title>Node30</title>
<g id="a_Node000030"><a xlink:href="a01952.html#ab87e9691e65d65348749f8dc70f24602" target="_top" xlink:title=" ">
<polygon fill="white" stroke="#666666" points="1118,-184.5 1064.5,-184.5 1064.5,-166 1118,-166 1118,-184.5"/>
<text text-anchor="middle" x="1091.25" y="-171" font-family="Helvetica,sans-Serif" font-size="10.00">conf_set</text>
</a>
</g>
</g>
<!-- Node29&#45;&gt;Node30 -->
<g id="edge32_Node000029_Node000030" class="edge">
<title>Node29&#45;&gt;Node30</title>
<g id="a_edge32_Node000029_Node000030"><a xlink:title=" ">
<path fill="none" stroke="#63b8ff" d="M1028.78,-175.25C1037.04,-175.25 1045.42,-175.25 1053.22,-175.25"/>
<polygon fill="#63b8ff" stroke="#63b8ff" points="1053.16,-178.75 1063.16,-175.25 1053.16,-171.75 1053.16,-178.75"/>
</a>
</g>
</g>
<!-- Node30&#45;&gt;Node27 -->
<g id="edge33_Node000030_Node000027" class="edge">
<title>Node30&#45;&gt;Node27</title>
<g id="a_edge33_Node000030_Node000027"><a xlink:title=" ">
<path fill="none" stroke="#63b8ff" d="M1118.32,-175.25C1125.77,-175.25 1134.27,-175.25 1143.04,-175.25"/>
<polygon fill="#63b8ff" stroke="#63b8ff" points="1142.82,-178.75 1152.82,-175.25 1142.82,-171.75 1142.82,-178.75"/>
</a>
</g>
</g>
</g>
</svg>
