<?xml version="1.0" encoding="UTF-8" standalone="no"?>
<!DOCTYPE svg PUBLIC "-//W3C//DTD SVG 1.1//EN"
 "http://www.w3.org/Graphics/SVG/1.1/DTD/svg11.dtd">
<!-- Generated by graphviz version 8.0.5 (0)
 -->
<!-- Title: arax_types.h Pages: 1 -->
<svg width="130pt" height="81pt"
 viewBox="0.00 0.00 129.62 81.00" xmlns="http://www.w3.org/2000/svg" xmlns:xlink="http://www.w3.org/1999/xlink">
<g id="graph0" class="graph" transform="scale(1 1) rotate(0) translate(4 77)">
<title>arax_types.h</title>
<!-- Node1 -->
<g id="Node000001" class="node">
<title>Node1</title>
<g id="a_Node000001"><a xlink:title=" ">
<polygon fill="#999999" stroke="#666666" points="101.62,-73 28.62,-73 28.62,-54.5 101.62,-54.5 101.62,-73"/>
<text text-anchor="middle" x="65.12" y="-59.5" font-family="Helvetica,sans-Serif" font-size="10.00">arax_types.h</text>
</a>
</g>
</g>
<!-- Node2 -->
<g id="Node000002" class="node">
<title>Node2</title>
<g id="a_Node000002"><a xlink:title=" ">
<polygon fill="#e0e0e0" stroke="#999999" points="60.25,-18.5 0,-18.5 0,0 60.25,0 60.25,-18.5"/>
<text text-anchor="middle" x="30.12" y="-5" font-family="Helvetica,sans-Serif" font-size="10.00">sys/time.h</text>
</a>
</g>
</g>
<!-- Node1&#45;&gt;Node2 -->
<g id="edge1_Node000001_Node000002" class="edge">
<title>Node1&#45;&gt;Node2</title>
<g id="a_edge1_Node000001_Node000002"><a xlink:title=" ">
<path fill="none" stroke="#63b8ff" d="M59.35,-54.08C54.61,-46.97 47.74,-36.68 41.86,-27.85"/>
<polygon fill="#63b8ff" stroke="#63b8ff" points="44.26,-26.14 35.8,-19.76 38.43,-30.02 44.26,-26.14"/>
</a>
</g>
</g>
<!-- Node3 -->
<g id="Node000003" class="node">
<title>Node3</title>
<g id="a_Node000003"><a xlink:title=" ">
<polygon fill="#e0e0e0" stroke="#999999" points="121.62,-18.5 78.62,-18.5 78.62,0 121.62,0 121.62,-18.5"/>
<text text-anchor="middle" x="100.12" y="-5" font-family="Helvetica,sans-Serif" font-size="10.00">time.h</text>
</a>
</g>
</g>
<!-- Node1&#45;&gt;Node3 -->
<g id="edge2_Node000001_Node000003" class="edge">
<title>Node1&#45;&gt;Node3</title>
<g id="a_edge2_Node000001_Node000003"><a xlink:title=" ">
<path fill="none" stroke="#63b8ff" d="M70.9,-54.08C75.64,-46.97 82.51,-36.68 88.39,-27.85"/>
<polygon fill="#63b8ff" stroke="#63b8ff" points="91.82,-30.02 94.45,-19.76 85.99,-26.14 91.82,-30.02"/>
</a>
</g>
</g>
</g>
</svg>
