<?xml version="1.0" encoding="UTF-8" standalone="no"?>
<!DOCTYPE svg PUBLIC "-//W3C//DTD SVG 1.1//EN"
 "http://www.w3.org/Graphics/SVG/1.1/DTD/svg11.dtd">
<!-- Generated by graphviz version 8.0.5 (0)
 -->
<!-- Title: system.h Pages: 1 -->
<svg width="142pt" height="81pt"
 viewBox="0.00 0.00 142.00 81.00" xmlns="http://www.w3.org/2000/svg" xmlns:xlink="http://www.w3.org/1999/xlink">
<g id="graph0" class="graph" transform="scale(1 1) rotate(0) translate(4 77)">
<title>system.h</title>
<!-- Node1 -->
<g id="Node000001" class="node">
<title>Node1</title>
<g id="a_Node000001"><a xlink:title=" ">
<polygon fill="#999999" stroke="#666666" points="90.75,-73 35.75,-73 35.75,-54.5 90.75,-54.5 90.75,-73"/>
<text text-anchor="middle" x="63.25" y="-59.5" font-family="Helvetica,sans-Serif" font-size="10.00">system.h</text>
</a>
</g>
</g>
<!-- Node2 -->
<g id="Node000002" class="node">
<title>Node2</title>
<g id="a_Node000002"><a xlink:title=" ">
<polygon fill="#e0e0e0" stroke="#999999" points="50.5,-18.5 0,-18.5 0,0 50.5,0 50.5,-18.5"/>
<text text-anchor="middle" x="25.25" y="-5" font-family="Helvetica,sans-Serif" font-size="10.00">stddef.h</text>
</a>
</g>
</g>
<!-- Node1&#45;&gt;Node2 -->
<g id="edge1_Node000001_Node000002" class="edge">
<title>Node1&#45;&gt;Node2</title>
<g id="a_edge1_Node000001_Node000002"><a xlink:title=" ">
<path fill="none" stroke="#63b8ff" d="M56.98,-54.08C51.77,-46.89 44.22,-36.45 37.78,-27.57"/>
<polygon fill="#63b8ff" stroke="#63b8ff" points="40.11,-25.81 31.41,-19.76 34.44,-29.91 40.11,-25.81"/>
</a>
</g>
</g>
<!-- Node3 -->
<g id="Node000003" class="node">
<title>Node3</title>
<g id="a_Node000003"><a xlink:title=" ">
<polygon fill="#e0e0e0" stroke="#999999" points="134,-18.5 68.5,-18.5 68.5,0 134,0 134,-18.5"/>
<text text-anchor="middle" x="101.25" y="-5" font-family="Helvetica,sans-Serif" font-size="10.00">sys/types.h</text>
</a>
</g>
</g>
<!-- Node1&#45;&gt;Node3 -->
<g id="edge2_Node000001_Node000003" class="edge">
<title>Node1&#45;&gt;Node3</title>
<g id="a_edge2_Node000001_Node000003"><a xlink:title=" ">
<path fill="none" stroke="#63b8ff" d="M69.52,-54.08C74.73,-46.89 82.28,-36.45 88.72,-27.57"/>
<polygon fill="#63b8ff" stroke="#63b8ff" points="92.06,-29.91 95.09,-19.76 86.39,-25.81 92.06,-29.91"/>
</a>
</g>
</g>
</g>
</svg>
