<?xml version="1.0" encoding="UTF-8" standalone="no"?>
<!DOCTYPE svg PUBLIC "-//W3C//DTD SVG 1.1//EN"
 "http://www.w3.org/Graphics/SVG/1.1/DTD/svg11.dtd">
<!-- Generated by graphviz version 12.2.1 (0)
 -->
<!-- Title: arax_types.h Pages: 1 -->
<svg width="1020pt" height="408pt"
 viewBox="0.00 0.00 1019.62 408.00" xmlns="http://www.w3.org/2000/svg" xmlns:xlink="http://www.w3.org/1999/xlink">
<g id="graph0" class="graph" transform="scale(1 1) rotate(0) translate(4 404)">
<title>arax_types.h</title>
<!-- Node1 -->
<g id="Node000001" class="node">
<title>Node1</title>
<g id="a_Node000001"><a xlink:title=" ">
<polygon fill="#999999" stroke="#666666" points="500.88,-400 427.88,-400 427.88,-381.5 500.88,-381.5 500.88,-400"/>
<text text-anchor="middle" x="464.38" y="-386.5" font-family="Helvetica,sans-Serif" font-size="10.00">arax_types.h</text>
</a>
</g>
</g>
<!-- Node2 -->
<g id="Node000002" class="node">
<title>Node2</title>
<g id="a_Node000002"><a xlink:href="a01367.html" target="_top" xlink:title=" ">
<polygon fill="white" stroke="#666666" points="102.62,-345.5 58.12,-345.5 58.12,-327 102.62,-327 102.62,-345.5"/>
<text text-anchor="middle" x="80.38" y="-332" font-family="Helvetica,sans-Serif" font-size="10.00">alloc.h</text>
</a>
</g>
</g>
<!-- Node1&#45;&gt;Node2 -->
<g id="edge1_Node000001_Node000002" class="edge">
<title>Node1&#45;&gt;Node2</title>
<g id="a_edge1_Node000001_Node000002"><a xlink:title=" ">
<path fill="none" stroke="#63b8ff" d="M416.35,-383.18C332.75,-371.75 163.61,-348.63 102.79,-340.31"/>
<polygon fill="#63b8ff" stroke="#63b8ff" points="415.67,-386.62 426.06,-384.51 416.62,-379.69 415.67,-386.62"/>
</a>
</g>
</g>
<!-- Node5 -->
<g id="Node000005" class="node">
<title>Node5</title>
<g id="a_Node000005"><a xlink:href="a01355.html" target="_top" xlink:title=" ">
<polygon fill="white" stroke="#666666" points="525.88,-291 482.88,-291 482.88,-272.5 525.88,-272.5 525.88,-291"/>
<text text-anchor="middle" x="504.38" y="-277.5" font-family="Helvetica,sans-Serif" font-size="10.00">arax.h</text>
</a>
</g>
</g>
<!-- Node1&#45;&gt;Node5 -->
<g id="edge4_Node000001_Node000005" class="edge">
<title>Node1&#45;&gt;Node5</title>
<g id="a_edge4_Node000001_Node000005"><a xlink:title=" ">
<path fill="none" stroke="#63b8ff" d="M451.43,-371.75C443.88,-358.87 437.13,-341.35 444.38,-327 452.66,-310.59 470.21,-298.77 484.21,-291.5"/>
<polygon fill="#63b8ff" stroke="#63b8ff" points="448.45,-373.58 456.85,-380.03 454.31,-369.75 448.45,-373.58"/>
</a>
</g>
</g>
<!-- Node25 -->
<g id="Node000025" class="node">
<title>Node25</title>
<g id="a_Node000025"><a xlink:href="a01919.html" target="_top" xlink:title=" ">
<polygon fill="white" stroke="#666666" points="675.12,-345.5 573.62,-345.5 573.62,-327 675.12,-327 675.12,-345.5"/>
<text text-anchor="middle" x="624.38" y="-332" font-family="Helvetica,sans-Serif" font-size="10.00">arax_accel_types.c</text>
</a>
</g>
</g>
<!-- Node1&#45;&gt;Node25 -->
<g id="edge43_Node000001_Node000025" class="edge">
<title>Node1&#45;&gt;Node25</title>
<g id="a_edge43_Node000001_Node000025"><a xlink:title=" ">
<path fill="none" stroke="#63b8ff" d="M501.52,-377.56C531.04,-367.88 571.61,-354.56 597.92,-345.93"/>
<polygon fill="#63b8ff" stroke="#63b8ff" points="500.64,-374.17 492.23,-380.61 502.83,-380.82 500.64,-374.17"/>
</a>
</g>
</g>
<!-- Node26 -->
<g id="Node000026" class="node">
<title>Node26</title>
<g id="a_Node000026"><a xlink:href="a01406.html" target="_top" xlink:title=" ">
<polygon fill="white" stroke="#666666" points="555.12,-345.5 453.62,-345.5 453.62,-327 555.12,-327 555.12,-345.5"/>
<text text-anchor="middle" x="504.38" y="-332" font-family="Helvetica,sans-Serif" font-size="10.00">arax_accel_types.h</text>
</a>
</g>
</g>
<!-- Node1&#45;&gt;Node26 -->
<g id="edge44_Node000001_Node000026" class="edge">
<title>Node1&#45;&gt;Node26</title>
<g id="a_edge44_Node000001_Node000026"><a xlink:title=" ">
<path fill="none" stroke="#63b8ff" d="M477.94,-371.95C484.68,-363.1 492.51,-352.82 497.89,-345.76"/>
<polygon fill="#63b8ff" stroke="#63b8ff" points="475.17,-369.8 471.9,-379.88 480.74,-374.04 475.17,-369.8"/>
</a>
</g>
</g>
<!-- Node3 -->
<g id="Node000003" class="node">
<title>Node3</title>
<g id="a_Node000003"><a xlink:href="a01946.html" target="_top" xlink:title=" ">
<polygon fill="white" stroke="#666666" points="128.38,-73 64.38,-73 64.38,-54.5 128.38,-54.5 128.38,-73"/>
<text text-anchor="middle" x="96.38" y="-59.5" font-family="Helvetica,sans-Serif" font-size="10.00">arax_plot.c</text>
</a>
</g>
</g>
<!-- Node2&#45;&gt;Node3 -->
<g id="edge2_Node000002_Node000003" class="edge">
<title>Node2&#45;&gt;Node3</title>
<g id="a_edge2_Node000002_Node000003"><a xlink:title=" ">
<path fill="none" stroke="#63b8ff" d="M80.38,-315.19C80.38,-293.69 80.38,-258.56 80.38,-228.25 80.38,-228.25 80.38,-228.25 80.38,-171.75 80.38,-134.75 89.85,-91.33 94.22,-73.28"/>
<polygon fill="#63b8ff" stroke="#63b8ff" points="76.88,-315.14 80.38,-325.14 83.88,-315.14 76.88,-315.14"/>
</a>
</g>
</g>
<!-- Node4 -->
<g id="Node000004" class="node">
<title>Node4</title>
<g id="a_Node000004"><a xlink:href="a01901.html" target="_top" xlink:title=" ">
<polygon fill="white" stroke="#666666" points="52.75,-291 0,-291 0,-272.5 52.75,-272.5 52.75,-291"/>
<text text-anchor="middle" x="26.38" y="-277.5" font-family="Helvetica,sans-Serif" font-size="10.00">malloc.c</text>
</a>
</g>
</g>
<!-- Node2&#45;&gt;Node4 -->
<g id="edge3_Node000002_Node000004" class="edge">
<title>Node2&#45;&gt;Node4</title>
<g id="a_edge3_Node000002_Node000004"><a xlink:title=" ">
<path fill="none" stroke="#63b8ff" d="M63.23,-318.58C53.88,-309.49 42.7,-298.62 35.13,-291.26"/>
<polygon fill="#63b8ff" stroke="#63b8ff" points="60.76,-321.06 70.37,-325.53 65.64,-316.05 60.76,-321.06"/>
</a>
</g>
</g>
<!-- Node6 -->
<g id="Node000006" class="node">
<title>Node6</title>
<g id="a_Node000006"><a xlink:href="a01403.html" target="_top" xlink:title=" ">
<polygon fill="white" stroke="#666666" points="352.5,-182 280.25,-182 280.25,-163.5 352.5,-163.5 352.5,-182"/>
<text text-anchor="middle" x="316.38" y="-168.5" font-family="Helvetica,sans-Serif" font-size="10.00">arax_accel.h</text>
</a>
</g>
</g>
<!-- Node5&#45;&gt;Node6 -->
<g id="edge5_Node000005_Node000006" class="edge">
<title>Node5&#45;&gt;Node6</title>
<g id="a_edge5_Node000005_Node000006"><a xlink:title=" ">
<path fill="none" stroke="#63b8ff" d="M471.26,-275.38C442.2,-269.47 399.79,-257.84 368.38,-236.5 346.84,-221.87 329.4,-195.85 321.29,-182.38"/>
<polygon fill="#63b8ff" stroke="#63b8ff" points="470.49,-278.8 480.97,-277.23 471.8,-271.92 470.49,-278.8"/>
</a>
</g>
</g>
<!-- Node7 -->
<g id="Node000007" class="node">
<title>Node7</title>
<g id="a_Node000007"><a xlink:href="a01409.html" target="_top" xlink:title=" ">
<polygon fill="white" stroke="#666666" points="748.25,-127.5 680.5,-127.5 680.5,-109 748.25,-109 748.25,-127.5"/>
<text text-anchor="middle" x="714.38" y="-114" font-family="Helvetica,sans-Serif" font-size="10.00">arax_data.h</text>
</a>
</g>
</g>
<!-- Node5&#45;&gt;Node7 -->
<g id="edge26_Node000005_Node000007" class="edge">
<title>Node5&#45;&gt;Node7</title>
<g id="a_edge26_Node000005_Node000007"><a xlink:title=" ">
<path fill="none" stroke="#63b8ff" d="M524.73,-265.09C568.25,-231.63 669.13,-154.05 703.03,-127.98"/>
<polygon fill="#63b8ff" stroke="#63b8ff" points="522.66,-262.27 516.87,-271.14 526.93,-267.82 522.66,-262.27"/>
</a>
</g>
</g>
<!-- Node11 -->
<g id="Node000011" class="node">
<title>Node11</title>
<g id="a_Node000011"><a xlink:href="a01937.html" target="_top" xlink:title=" ">
<polygon fill="white" stroke="#666666" points="889.25,-73 821.5,-73 821.5,-54.5 889.25,-54.5 889.25,-73"/>
<text text-anchor="middle" x="855.38" y="-59.5" font-family="Helvetica,sans-Serif" font-size="10.00">arax_task.c</text>
</a>
</g>
</g>
<!-- Node5&#45;&gt;Node11 -->
<g id="edge37_Node000005_Node000011" class="edge">
<title>Node5&#45;&gt;Node11</title>
<g id="a_edge37_Node000005_Node000011"><a xlink:title=" ">
<path fill="none" stroke="#63b8ff" d="M532.09,-266.92C548.62,-258.47 569.92,-247.27 588.38,-236.5 688.82,-177.89 805.07,-99.22 842.84,-73.37"/>
<polygon fill="#63b8ff" stroke="#63b8ff" points="530.68,-263.71 523.34,-271.35 533.84,-269.95 530.68,-263.71"/>
</a>
</g>
</g>
<!-- Node12 -->
<g id="Node000012" class="node">
<title>Node12</title>
<g id="a_Node000012"><a xlink:href="a01910.html" target="_top" xlink:title=" ">
<polygon fill="white" stroke="#666666" points="949.5,-73 907.25,-73 907.25,-54.5 949.5,-54.5 949.5,-73"/>
<text text-anchor="middle" x="928.38" y="-59.5" font-family="Helvetica,sans-Serif" font-size="10.00">impl.c</text>
</a>
</g>
</g>
<!-- Node5&#45;&gt;Node12 -->
<g id="edge38_Node000005_Node000012" class="edge">
<title>Node5&#45;&gt;Node12</title>
<g id="a_edge38_Node000005_Node000012"><a xlink:title=" ">
<path fill="none" stroke="#63b8ff" d="M537.38,-279.95C610.74,-277.61 784.67,-268.71 832.38,-236.5 893.24,-195.4 919.58,-102.19 926.46,-73.39"/>
<polygon fill="#63b8ff" stroke="#63b8ff" points="537.5,-276.45 527.61,-280.24 537.71,-283.44 537.5,-276.45"/>
</a>
</g>
</g>
<!-- Node13 -->
<g id="Node000013" class="node">
<title>Node13</title>
<g id="a_Node000013"><a xlink:href="a01358.html" target="_top" xlink:title=" ">
<polygon fill="white" stroke="#666666" points="475.88,-127.5 408.88,-127.5 408.88,-109 475.88,-109 475.88,-127.5"/>
<text text-anchor="middle" x="442.38" y="-114" font-family="Helvetica,sans-Serif" font-size="10.00">arax_pipe.h</text>
</a>
</g>
</g>
<!-- Node5&#45;&gt;Node13 -->
<g id="edge27_Node000005_Node000013" class="edge">
<title>Node5&#45;&gt;Node13</title>
<g id="a_edge27_Node000005_Node000013"><a xlink:title=" ">
<path fill="none" stroke="#63b8ff" d="M504.72,-261.07C504.38,-236.85 501.24,-195.05 485.38,-163.5 477.96,-148.76 463.91,-135.74 453.89,-127.71"/>
<polygon fill="#63b8ff" stroke="#63b8ff" points="501.22,-260.75 504.7,-270.75 508.22,-260.76 501.22,-260.75"/>
</a>
</g>
</g>
<!-- Node19 -->
<g id="Node000019" class="node">
<title>Node19</title>
<g id="a_Node000019"><a xlink:href="a01376.html" target="_top" xlink:title=" ">
<polygon fill="white" stroke="#666666" points="261.38,-236.5 197.38,-236.5 197.38,-218 261.38,-218 261.38,-236.5"/>
<text text-anchor="middle" x="229.38" y="-223" font-family="Helvetica,sans-Serif" font-size="10.00">arax_plot.h</text>
</a>
</g>
</g>
<!-- Node5&#45;&gt;Node19 -->
<g id="edge28_Node000005_Node000019" class="edge">
<title>Node5&#45;&gt;Node19</title>
<g id="a_edge28_Node000005_Node000019"><a xlink:title=" ">
<path fill="none" stroke="#63b8ff" d="M471.68,-274.51C418.62,-264.38 314.4,-244.48 261.63,-234.41"/>
<polygon fill="#63b8ff" stroke="#63b8ff" points="470.83,-277.91 481.31,-276.35 472.14,-271.03 470.83,-277.91"/>
</a>
</g>
</g>
<!-- Node20 -->
<g id="Node000020" class="node">
<title>Node20</title>
<g id="a_Node000020"><a xlink:href="a01418.html" target="_top" xlink:title=" ">
<polygon fill="white" stroke="#666666" points="445.25,-236.5 377.5,-236.5 377.5,-218 445.25,-218 445.25,-236.5"/>
<text text-anchor="middle" x="411.38" y="-223" font-family="Helvetica,sans-Serif" font-size="10.00">arax_proc.h</text>
</a>
</g>
</g>
<!-- Node5&#45;&gt;Node20 -->
<g id="edge30_Node000005_Node000020" class="edge">
<title>Node5&#45;&gt;Node20</title>
<g id="a_edge30_Node000005_Node000020"><a xlink:title=" ">
<path fill="none" stroke="#63b8ff" d="M479.3,-266.6C462.55,-257.14 441.03,-244.99 426.75,-236.93"/>
<polygon fill="#63b8ff" stroke="#63b8ff" points="477.27,-269.47 487.7,-271.34 480.71,-263.37 477.27,-269.47"/>
</a>
</g>
</g>
<!-- Node23 -->
<g id="Node000023" class="node">
<title>Node23</title>
<g id="a_Node000023"><a xlink:href="a01400.html" target="_top" xlink:title=" ">
<polygon fill="white" stroke="#666666" points="883.38,-127.5 837.38,-127.5 837.38,-109 883.38,-109 883.38,-127.5"/>
<text text-anchor="middle" x="860.38" y="-114" font-family="Helvetica,sans-Serif" font-size="10.00">timer.h</text>
</a>
</g>
</g>
<!-- Node5&#45;&gt;Node23 -->
<g id="edge39_Node000005_Node000023" class="edge">
<title>Node5&#45;&gt;Node23</title>
<g id="a_edge39_Node000005_Node000023"><a xlink:title=" ">
<path fill="none" stroke="#63b8ff" d="M537.22,-279.93C607.02,-277.59 767.17,-268.74 809.38,-236.5 845.71,-208.74 856.59,-149.74 859.46,-127.74"/>
<polygon fill="#63b8ff" stroke="#63b8ff" points="537.45,-276.43 527.57,-280.23 537.67,-283.42 537.45,-276.43"/>
</a>
</g>
</g>
<!-- Node6&#45;&gt;Node7 -->
<g id="edge6_Node000006_Node000007" class="edge">
<title>Node6&#45;&gt;Node7</title>
<g id="a_edge6_Node000006_Node000007"><a xlink:title=" ">
<path fill="none" stroke="#63b8ff" d="M364.14,-165.45C445.54,-154.71 609.21,-133.12 680.21,-123.76"/>
<polygon fill="#63b8ff" stroke="#63b8ff" points="363.71,-161.98 354.25,-166.75 364.62,-168.92 363.71,-161.98"/>
</a>
</g>
</g>
<!-- Node10 -->
<g id="Node000010" class="node">
<title>Node10</title>
<g id="a_Node000010"><a xlink:href="a01925.html" target="_top" xlink:title=" ">
<polygon fill="white" stroke="#666666" points="258.62,-73 184.12,-73 184.12,-54.5 258.62,-54.5 258.62,-73"/>
<text text-anchor="middle" x="221.38" y="-59.5" font-family="Helvetica,sans-Serif" font-size="10.00">arax_object.c</text>
</a>
</g>
</g>
<!-- Node6&#45;&gt;Node10 -->
<g id="edge13_Node000006_Node000010" class="edge">
<title>Node6&#45;&gt;Node10</title>
<g id="a_edge13_Node000006_Node000010"><a xlink:title=" ">
<path fill="none" stroke="#63b8ff" d="M324.63,-152.49C328.94,-139.23 331.76,-121.77 323.38,-109 309.18,-87.37 281.9,-76.26 259.12,-70.59"/>
<polygon fill="#63b8ff" stroke="#63b8ff" points="321.37,-151.23 321.07,-161.82 327.91,-153.72 321.37,-151.23"/>
</a>
</g>
</g>
<!-- Node6&#45;&gt;Node13 -->
<g id="edge14_Node000006_Node000013" class="edge">
<title>Node6&#45;&gt;Node13</title>
<g id="a_edge14_Node000006_Node000013"><a xlink:title=" ">
<path fill="none" stroke="#63b8ff" d="M347.8,-158.66C370.83,-149.06 401.46,-136.3 421.54,-127.93"/>
<polygon fill="#63b8ff" stroke="#63b8ff" points="346.46,-155.42 338.58,-162.5 349.16,-161.88 346.46,-155.42"/>
</a>
</g>
</g>
<!-- Node18 -->
<g id="Node000018" class="node">
<title>Node18</title>
<g id="a_Node000018"><a xlink:href="a01430.html" target="_top" xlink:title=" ">
<polygon fill="white" stroke="#666666" points="314.75,-127.5 238,-127.5 238,-109 314.75,-109 314.75,-127.5"/>
<text text-anchor="middle" x="276.38" y="-114" font-family="Helvetica,sans-Serif" font-size="10.00">arax_vaccel.h</text>
</a>
</g>
</g>
<!-- Node6&#45;&gt;Node18 -->
<g id="edge24_Node000006_Node000018" class="edge">
<title>Node6&#45;&gt;Node18</title>
<g id="a_edge24_Node000006_Node000018"><a xlink:title=" ">
<path fill="none" stroke="#63b8ff" d="M297.1,-154.8C289.43,-145.77 281.67,-135.05 277.73,-127.76"/>
<polygon fill="#63b8ff" stroke="#63b8ff" points="294.28,-156.9 303.59,-161.96 299.47,-152.2 294.28,-156.9"/>
</a>
</g>
</g>
<!-- Node8 -->
<g id="Node000008" class="node">
<title>Node8</title>
<g id="a_Node000008"><a xlink:href="a01922.html" target="_top" xlink:title=" ">
<polygon fill="white" stroke="#666666" points="534.25,-18.5 466.5,-18.5 466.5,0 534.25,0 534.25,-18.5"/>
<text text-anchor="middle" x="500.38" y="-5" font-family="Helvetica,sans-Serif" font-size="10.00">arax_data.c</text>
</a>
</g>
</g>
<!-- Node7&#45;&gt;Node8 -->
<g id="edge7_Node000007_Node000008" class="edge">
<title>Node7&#45;&gt;Node8</title>
<g id="a_edge7_Node000007_Node000008"><a xlink:title=" ">
<path fill="none" stroke="#63b8ff" d="M743.42,-103.22C765.31,-90.78 789.22,-71.94 774.38,-54.5 743.96,-18.77 601.25,-11.8 534.7,-10.5"/>
<polygon fill="#63b8ff" stroke="#63b8ff" points="741.83,-100.1 734.66,-107.9 745.13,-106.27 741.83,-100.1"/>
</a>
</g>
</g>
<!-- Node9 -->
<g id="Node000009" class="node">
<title>Node9</title>
<g id="a_Node000009"><a xlink:href="a01412.html" target="_top" xlink:title=" ">
<polygon fill="white" stroke="#666666" points="765.12,-73 663.62,-73 663.62,-54.5 765.12,-54.5 765.12,-73"/>
<text text-anchor="middle" x="714.38" y="-59.5" font-family="Helvetica,sans-Serif" font-size="10.00">arax_data_private.h</text>
</a>
</g>
</g>
<!-- Node7&#45;&gt;Node9 -->
<g id="edge8_Node000007_Node000009" class="edge">
<title>Node7&#45;&gt;Node9</title>
<g id="a_edge8_Node000007_Node000009"><a xlink:title=" ">
<path fill="none" stroke="#63b8ff" d="M714.38,-97.14C714.38,-88.86 714.38,-79.71 714.38,-73.26"/>
<polygon fill="#63b8ff" stroke="#63b8ff" points="710.88,-97.07 714.38,-107.07 717.88,-97.07 710.88,-97.07"/>
</a>
</g>
</g>
<!-- Node7&#45;&gt;Node10 -->
<g id="edge10_Node000007_Node000010" class="edge">
<title>Node7&#45;&gt;Node10</title>
<g id="a_edge10_Node000007_Node000010"><a xlink:title=" ">
<path fill="none" stroke="#63b8ff" d="M668.68,-112.38C572,-102.09 348.31,-78.27 259.1,-68.77"/>
<polygon fill="#63b8ff" stroke="#63b8ff" points="668.28,-115.86 678.59,-113.44 669.02,-108.9 668.28,-115.86"/>
</a>
</g>
</g>
<!-- Node7&#45;&gt;Node11 -->
<g id="edge11_Node000007_Node000011" class="edge">
<title>Node7&#45;&gt;Node11</title>
<g id="a_edge11_Node000007_Node000011"><a xlink:title=" ">
<path fill="none" stroke="#63b8ff" d="M748.14,-104.68C774.07,-95.02 809.19,-81.95 832.06,-73.43"/>
<polygon fill="#63b8ff" stroke="#63b8ff" points="747.23,-101.28 739.08,-108.05 749.67,-107.84 747.23,-101.28"/>
</a>
</g>
</g>
<!-- Node7&#45;&gt;Node12 -->
<g id="edge12_Node000007_Node000012" class="edge">
<title>Node7&#45;&gt;Node12</title>
<g id="a_edge12_Node000007_Node000012"><a xlink:title=" ">
<path fill="none" stroke="#63b8ff" d="M759.72,-106.78C797.02,-98.06 851.23,-85.15 898.38,-73 901.1,-72.3 903.95,-71.54 906.77,-70.78"/>
<polygon fill="#63b8ff" stroke="#63b8ff" points="759.13,-103.32 750.18,-109 760.72,-110.14 759.13,-103.32"/>
</a>
</g>
</g>
<!-- Node9&#45;&gt;Node8 -->
<g id="edge9_Node000009_Node000008" class="edge">
<title>Node9&#45;&gt;Node8</title>
<g id="a_edge9_Node000009_Node000008"><a xlink:title=" ">
<path fill="none" stroke="#63b8ff" d="M667.95,-51.36C627.84,-41.52 570.81,-27.53 534.7,-18.67"/>
<polygon fill="#63b8ff" stroke="#63b8ff" points="667.02,-54.74 677.57,-53.72 668.69,-47.94 667.02,-54.74"/>
</a>
</g>
</g>
<!-- Node13&#45;&gt;Node3 -->
<g id="edge19_Node000013_Node000003" class="edge">
<title>Node13&#45;&gt;Node3</title>
<g id="a_edge19_Node000013_Node000003"><a xlink:title=" ">
<path fill="none" stroke="#63b8ff" d="M397.37,-110.42C326.57,-99.68 190.87,-79.09 128.8,-69.67"/>
<polygon fill="#63b8ff" stroke="#63b8ff" points="396.66,-113.85 407.07,-111.89 397.71,-106.93 396.66,-113.85"/>
</a>
</g>
</g>
<!-- Node13&#45;&gt;Node8 -->
<g id="edge16_Node000013_Node000008" class="edge">
<title>Node13&#45;&gt;Node8</title>
<g id="a_edge16_Node000013_Node000008"><a xlink:title=" ">
<path fill="none" stroke="#63b8ff" d="M397.53,-108.68C361.96,-100.86 316.46,-88.23 305.38,-73 300.54,-66.35 300.24,-60.93 305.38,-54.5 325.14,-29.75 415.83,-17.8 466.27,-12.98"/>
<polygon fill="#63b8ff" stroke="#63b8ff" points="396.68,-112.07 407.19,-110.73 398.13,-105.23 396.68,-112.07"/>
</a>
</g>
</g>
<!-- Node13&#45;&gt;Node10 -->
<g id="edge17_Node000013_Node000010" class="edge">
<title>Node13&#45;&gt;Node10</title>
<g id="a_edge17_Node000013_Node000010"><a xlink:title=" ">
<path fill="none" stroke="#63b8ff" d="M397.74,-106.65C356.57,-96.87 296.18,-82.52 257.84,-73.41"/>
<polygon fill="#63b8ff" stroke="#63b8ff" points="396.8,-110.02 407.34,-108.93 398.42,-103.21 396.8,-110.02"/>
</a>
</g>
</g>
<!-- Node13&#45;&gt;Node11 -->
<g id="edge21_Node000013_Node000011" class="edge">
<title>Node13&#45;&gt;Node11</title>
<g id="a_edge21_Node000013_Node000011"><a xlink:title=" ">
<path fill="none" stroke="#63b8ff" d="M487.52,-111.51C570.79,-100.93 746.79,-78.55 821.11,-69.11"/>
<polygon fill="#63b8ff" stroke="#63b8ff" points="487.15,-108.03 477.67,-112.76 488.04,-114.97 487.15,-108.03"/>
</a>
</g>
</g>
<!-- Node13&#45;&gt;Node12 -->
<g id="edge23_Node000013_Node000012" class="edge">
<title>Node13&#45;&gt;Node12</title>
<g id="a_edge23_Node000013_Node000012"><a xlink:title=" ">
<path fill="none" stroke="#63b8ff" d="M487.54,-115.44C569.83,-111.57 749.46,-100.49 898.38,-73 901.14,-72.49 904.02,-71.85 906.85,-71.15"/>
<polygon fill="#63b8ff" stroke="#63b8ff" points="487.46,-111.94 477.63,-115.89 487.78,-118.93 487.46,-111.94"/>
</a>
</g>
</g>
<!-- Node14 -->
<g id="Node000014" class="node">
<title>Node14</title>
<g id="a_Node000014"><a xlink:href="a01916.html" target="_top" xlink:title=" ">
<polygon fill="white" stroke="#666666" points="560.5,-73 488.25,-73 488.25,-54.5 560.5,-54.5 560.5,-73"/>
<text text-anchor="middle" x="524.38" y="-59.5" font-family="Helvetica,sans-Serif" font-size="10.00">arax_accel.c</text>
</a>
</g>
</g>
<!-- Node13&#45;&gt;Node14 -->
<g id="edge15_Node000013_Node000014" class="edge">
<title>Node13&#45;&gt;Node14</title>
<g id="a_edge15_Node000013_Node000014"><a xlink:title=" ">
<path fill="none" stroke="#63b8ff" d="M465.32,-102.56C479.97,-93.18 498.46,-81.34 510.81,-73.43"/>
<polygon fill="#63b8ff" stroke="#63b8ff" points="463.72,-99.42 457.19,-107.76 467.5,-105.32 463.72,-99.42"/>
</a>
</g>
</g>
<!-- Node15 -->
<g id="Node000015" class="node">
<title>Node15</title>
<g id="a_Node000015"><a xlink:href="a01928.html" target="_top" xlink:title=" ">
<polygon fill="white" stroke="#666666" points="645.88,-73 578.88,-73 578.88,-54.5 645.88,-54.5 645.88,-73"/>
<text text-anchor="middle" x="612.38" y="-59.5" font-family="Helvetica,sans-Serif" font-size="10.00">arax_pipe.c</text>
</a>
</g>
</g>
<!-- Node13&#45;&gt;Node15 -->
<g id="edge18_Node000013_Node000015" class="edge">
<title>Node13&#45;&gt;Node15</title>
<g id="a_edge18_Node000013_Node000015"><a xlink:title=" ">
<path fill="none" stroke="#63b8ff" d="M481.42,-105.19C512.83,-95.49 556.19,-82.1 584.26,-73.43"/>
<polygon fill="#63b8ff" stroke="#63b8ff" points="480.42,-101.84 471.89,-108.13 482.48,-108.53 480.42,-101.84"/>
</a>
</g>
</g>
<!-- Node16 -->
<g id="Node000016" class="node">
<title>Node16</title>
<g id="a_Node000016"><a xlink:href="a01934.html" target="_top" xlink:title=" ">
<polygon fill="white" stroke="#666666" points="374.5,-73 314.25,-73 314.25,-54.5 374.5,-54.5 374.5,-73"/>
<text text-anchor="middle" x="344.38" y="-59.5" font-family="Helvetica,sans-Serif" font-size="10.00">arax_ptr.c</text>
</a>
</g>
</g>
<!-- Node13&#45;&gt;Node16 -->
<g id="edge20_Node000013_Node000016" class="edge">
<title>Node13&#45;&gt;Node16</title>
<g id="a_edge20_Node000013_Node000016"><a xlink:title=" ">
<path fill="none" stroke="#63b8ff" d="M416.45,-103.36C398.72,-93.87 375.77,-81.57 360.58,-73.43"/>
<polygon fill="#63b8ff" stroke="#63b8ff" points="414.39,-106.23 424.86,-107.87 417.7,-100.06 414.39,-106.23"/>
</a>
</g>
</g>
<!-- Node17 -->
<g id="Node000017" class="node">
<title>Node17</title>
<g id="a_Node000017"><a xlink:href="a01943.html" target="_top" xlink:title=" ">
<polygon fill="white" stroke="#666666" points="469.75,-73 393,-73 393,-54.5 469.75,-54.5 469.75,-73"/>
<text text-anchor="middle" x="431.38" y="-59.5" font-family="Helvetica,sans-Serif" font-size="10.00">arax_vaccel.c</text>
</a>
</g>
</g>
<!-- Node13&#45;&gt;Node17 -->
<g id="edge22_Node000013_Node000017" class="edge">
<title>Node13&#45;&gt;Node17</title>
<g id="a_edge22_Node000013_Node000017"><a xlink:title=" ">
<path fill="none" stroke="#63b8ff" d="M438.22,-97.43C436.47,-89.07 434.53,-79.79 433.16,-73.26"/>
<polygon fill="#63b8ff" stroke="#63b8ff" points="434.77,-98.03 440.25,-107.1 441.62,-96.59 434.77,-98.03"/>
</a>
</g>
</g>
<!-- Node18&#45;&gt;Node6 -->
<g id="edge25_Node000018_Node000006" class="edge">
<title>Node18&#45;&gt;Node6</title>
<g id="a_edge25_Node000018_Node000006"><a xlink:title=" ">
<path fill="none" stroke="#63b8ff" d="M295.72,-136.28C303.31,-145.23 310.98,-155.82 314.94,-163.08"/>
<polygon fill="#63b8ff" stroke="#63b8ff" points="298.31,-133.94 289,-128.88 293.13,-138.64 298.31,-133.94"/>
</a>
</g>
</g>
<!-- Node19&#45;&gt;Node3 -->
<g id="edge29_Node000019_Node000003" class="edge">
<title>Node19&#45;&gt;Node3</title>
<g id="a_edge29_Node000019_Node000003"><a xlink:title=" ">
<path fill="none" stroke="#63b8ff" d="M208.12,-210.71C197.93,-202.73 185.9,-192.49 176.38,-182 142.92,-145.14 112.45,-93.45 101.09,-73.28"/>
<polygon fill="#63b8ff" stroke="#63b8ff" points="205.9,-213.42 215.98,-216.69 210.14,-207.85 205.9,-213.42"/>
</a>
</g>
</g>
<!-- Node20&#45;&gt;Node10 -->
<g id="edge31_Node000020_Node000010" class="edge">
<title>Node20&#45;&gt;Node10</title>
<g id="a_edge31_Node000020_Node000010"><a xlink:title=" ">
<path fill="none" stroke="#63b8ff" d="M404.38,-206.93C394.13,-181.16 372.67,-135.71 340.38,-109 316.94,-89.61 284.19,-78.27 258.98,-71.93"/>
<polygon fill="#63b8ff" stroke="#63b8ff" points="401.05,-208.01 407.87,-216.12 407.59,-205.53 401.05,-208.01"/>
</a>
</g>
</g>
<!-- Node21 -->
<g id="Node000021" class="node">
<title>Node21</title>
<g id="a_Node000021"><a xlink:href="a01931.html" target="_top" xlink:title=" ">
<polygon fill="white" stroke="#666666" points="476.25,-182 408.5,-182 408.5,-163.5 476.25,-163.5 476.25,-182"/>
<text text-anchor="middle" x="442.38" y="-168.5" font-family="Helvetica,sans-Serif" font-size="10.00">arax_proc.c</text>
</a>
</g>
</g>
<!-- Node20&#45;&gt;Node21 -->
<g id="edge32_Node000020_Node000021" class="edge">
<title>Node20&#45;&gt;Node21</title>
<g id="a_edge32_Node000020_Node000021"><a xlink:title=" ">
<path fill="none" stroke="#63b8ff" d="M422.22,-207.88C427.37,-199.16 433.27,-189.17 437.35,-182.26"/>
<polygon fill="#63b8ff" stroke="#63b8ff" points="419.33,-205.89 417.26,-216.28 425.36,-209.45 419.33,-205.89"/>
</a>
</g>
</g>
<!-- Node22 -->
<g id="Node000022" class="node">
<title>Node22</title>
<g id="a_Node000022"><a xlink:href="a01424.html" target="_top" xlink:title=" ">
<polygon fill="white" stroke="#666666" points="253.25,-182 185.5,-182 185.5,-163.5 253.25,-163.5 253.25,-182"/>
<text text-anchor="middle" x="219.38" y="-168.5" font-family="Helvetica,sans-Serif" font-size="10.00">arax_task.h</text>
</a>
</g>
</g>
<!-- Node20&#45;&gt;Node22 -->
<g id="edge33_Node000020_Node000022" class="edge">
<title>Node20&#45;&gt;Node22</title>
<g id="a_edge33_Node000020_Node000022"><a xlink:title=" ">
<path fill="none" stroke="#63b8ff" d="M368.66,-214.57C333.1,-204.85 283.24,-191.21 251.13,-182.43"/>
<polygon fill="#63b8ff" stroke="#63b8ff" points="367.64,-217.92 378.21,-217.18 369.49,-211.17 367.64,-217.92"/>
</a>
</g>
</g>
<!-- Node22&#45;&gt;Node8 -->
<g id="edge34_Node000022_Node000008" class="edge">
<title>Node22&#45;&gt;Node8</title>
<g id="a_edge34_Node000022_Node000008"><a xlink:title=" ">
<path fill="none" stroke="#63b8ff" d="M203.24,-154.68C181.85,-129.97 149.64,-83.98 175.38,-54.5 212.87,-11.55 390.57,-8.72 466.18,-9.52"/>
<polygon fill="#63b8ff" stroke="#63b8ff" points="200.46,-156.82 209.75,-161.91 205.66,-152.13 200.46,-156.82"/>
</a>
</g>
</g>
<!-- Node22&#45;&gt;Node10 -->
<g id="edge35_Node000022_Node000010" class="edge">
<title>Node22&#45;&gt;Node10</title>
<g id="a_edge35_Node000022_Node000010"><a xlink:title=" ">
<path fill="none" stroke="#63b8ff" d="M219.74,-152.06C220.18,-128.59 220.9,-90.41 221.21,-73.4"/>
<polygon fill="#63b8ff" stroke="#63b8ff" points="216.25,-151.78 219.56,-161.84 223.25,-151.91 216.25,-151.78"/>
</a>
</g>
</g>
<!-- Node22&#45;&gt;Node13 -->
<g id="edge36_Node000022_Node000013" class="edge">
<title>Node22&#45;&gt;Node13</title>
<g id="a_edge36_Node000022_Node000013"><a xlink:title=" ">
<path fill="none" stroke="#63b8ff" d="M264.93,-161.03C307.6,-150.98 370.39,-136.2 408.71,-127.18"/>
<polygon fill="#63b8ff" stroke="#63b8ff" points="264.14,-157.62 255.2,-163.32 265.74,-164.43 264.14,-157.62"/>
</a>
</g>
</g>
<!-- Node23&#45;&gt;Node11 -->
<g id="edge41_Node000023_Node000011" class="edge">
<title>Node23&#45;&gt;Node11</title>
<g id="a_edge41_Node000023_Node000011"><a xlink:title=" ">
<path fill="none" stroke="#63b8ff" d="M858.46,-97.14C857.67,-88.86 856.8,-79.71 856.19,-73.26"/>
<polygon fill="#63b8ff" stroke="#63b8ff" points="854.97,-97.45 859.41,-107.07 861.94,-96.79 854.97,-97.45"/>
</a>
</g>
</g>
<!-- Node23&#45;&gt;Node12 -->
<g id="edge42_Node000023_Node000012" class="edge">
<title>Node23&#45;&gt;Node12</title>
<g id="a_edge42_Node000023_Node000012"><a xlink:title=" ">
<path fill="none" stroke="#63b8ff" d="M880.52,-101.7C892.57,-92.39 907.42,-80.93 917.36,-73.26"/>
<polygon fill="#63b8ff" stroke="#63b8ff" points="878.58,-98.77 872.8,-107.66 882.86,-104.31 878.58,-98.77"/>
</a>
</g>
</g>
<!-- Node24 -->
<g id="Node000024" class="node">
<title>Node24</title>
<g id="a_Node000024"><a xlink:href="a02352.html" target="_top" xlink:title=" ">
<polygon fill="white" stroke="#666666" points="1011.62,-73 967.12,-73 967.12,-54.5 1011.62,-54.5 1011.62,-73"/>
<text text-anchor="middle" x="989.38" y="-59.5" font-family="Helvetica,sans-Serif" font-size="10.00">alloc.c</text>
</a>
</g>
</g>
<!-- Node23&#45;&gt;Node24 -->
<g id="edge40_Node000023_Node000024" class="edge">
<title>Node23&#45;&gt;Node24</title>
<g id="a_edge40_Node000023_Node000024"><a xlink:title=" ">
<path fill="none" stroke="#63b8ff" d="M892.23,-104.29C915.85,-94.67 947.4,-81.83 968.04,-73.43"/>
<polygon fill="#63b8ff" stroke="#63b8ff" points="891.02,-101 883.08,-108.01 893.66,-107.48 891.02,-101"/>
</a>
</g>
</g>
<!-- Node26&#45;&gt;Node5 -->
<g id="edge45_Node000026_Node000005" class="edge">
<title>Node26&#45;&gt;Node5</title>
<g id="a_edge45_Node000026_Node000005"><a xlink:title=" ">
<path fill="none" stroke="#63b8ff" d="M504.38,-315.14C504.38,-306.86 504.38,-297.71 504.38,-291.26"/>
<polygon fill="#63b8ff" stroke="#63b8ff" points="500.88,-315.07 504.38,-325.07 507.88,-315.07 500.88,-315.07"/>
</a>
</g>
</g>
</g>
</svg>
