<?xml version="1.0" encoding="UTF-8" standalone="no"?>
<!DOCTYPE svg PUBLIC "-//W3C//DTD SVG 1.1//EN"
 "http://www.w3.org/Graphics/SVG/1.1/DTD/svg11.dtd">
<!-- Generated by graphviz version 8.0.5 (0)
 -->
<!-- Title: utils_bitmap_alloc_bits Pages: 1 -->
<svg width="488pt" height="82pt"
 viewBox="0.00 0.00 488.25 81.50" xmlns="http://www.w3.org/2000/svg" xmlns:xlink="http://www.w3.org/1999/xlink">
<g id="graph0" class="graph" transform="scale(1 1) rotate(0) translate(4 77.5)">
<title>utils_bitmap_alloc_bits</title>
<!-- Node1 -->
<g id="Node000001" class="node">
<title>Node1</title>
<g id="a_Node000001"><a xlink:title=" ">
<polygon fill="#999999" stroke="#666666" points="115,-36.5 0,-36.5 0,-18 115,-18 115,-36.5"/>
<text text-anchor="middle" x="57.5" y="-23" font-family="Helvetica,sans-Serif" font-size="10.00">utils_bitmap_alloc_bits</text>
</a>
</g>
</g>
<!-- Node2 -->
<g id="Node000002" class="node">
<title>Node2</title>
<g id="a_Node000002"><a xlink:href="a01943.html#ae5a4ee90ef57eb7d12191236c3a105f2" target="_top" xlink:title=" ">
<polygon fill="white" stroke="#666666" points="224.75,-55.5 167.5,-55.5 167.5,-37 224.75,-37 224.75,-55.5"/>
<text text-anchor="middle" x="196.12" y="-42" font-family="Helvetica,sans-Serif" font-size="10.00">find_start</text>
</a>
</g>
</g>
<!-- Node1&#45;&gt;Node2 -->
<g id="edge1_Node000001_Node000002" class="edge">
<title>Node1&#45;&gt;Node2</title>
<g id="a_edge1_Node000001_Node000002"><a xlink:title=" ">
<path fill="none" stroke="#63b8ff" d="M115.25,-35.14C129.09,-37.07 143.58,-39.08 156.36,-40.86"/>
<polygon fill="#63b8ff" stroke="#63b8ff" points="155.7,-44.44 166.09,-42.35 156.67,-37.51 155.7,-44.44"/>
</a>
</g>
</g>
<!-- Node6 -->
<g id="Node000006" class="node">
<title>Node6</title>
<g id="a_Node000006"><a xlink:href="a01943.html#a84bb16b03a95a60c4748c189dafa8a54" target="_top" xlink:title=" ">
<polygon fill="white" stroke="#666666" points="241.25,-18.5 151,-18.5 151,0 241.25,0 241.25,-18.5"/>
<text text-anchor="middle" x="196.12" y="-5" font-family="Helvetica,sans-Serif" font-size="10.00">utils_bitmap_free</text>
</a>
</g>
</g>
<!-- Node1&#45;&gt;Node6 -->
<g id="edge6_Node000001_Node000006" class="edge">
<title>Node1&#45;&gt;Node6</title>
<g id="a_edge6_Node000001_Node000006"><a xlink:title=" ">
<path fill="none" stroke="#63b8ff" d="M115.25,-19.77C123.42,-18.7 131.81,-17.59 139.95,-16.52"/>
<polygon fill="#63b8ff" stroke="#63b8ff" points="140.38,-19.86 149.83,-15.09 139.46,-12.92 140.38,-19.86"/>
</a>
</g>
</g>
<!-- Node3 -->
<g id="Node000003" class="node">
<title>Node3</title>
<g id="a_Node000003"><a xlink:href="a01943.html#a73d0d5ad8a6878dde35fe7b827b33b05" target="_top" xlink:title=" ">
<polygon fill="white" stroke="#666666" points="357.75,-73.5 282.5,-73.5 282.5,-55 357.75,-55 357.75,-73.5"/>
<text text-anchor="middle" x="320.12" y="-60" font-family="Helvetica,sans-Serif" font-size="10.00">find_start_big</text>
</a>
</g>
</g>
<!-- Node2&#45;&gt;Node3 -->
<g id="edge2_Node000002_Node000003" class="edge">
<title>Node2&#45;&gt;Node3</title>
<g id="a_edge2_Node000002_Node000003"><a xlink:title=" ">
<path fill="none" stroke="#63b8ff" d="M225.11,-50.38C238.83,-52.4 255.74,-54.9 271.41,-57.21"/>
<polygon fill="#63b8ff" stroke="#63b8ff" points="270.61,-60.78 281.01,-58.77 271.63,-53.85 270.61,-60.78"/>
</a>
</g>
</g>
<!-- Node5 -->
<g id="Node000005" class="node">
<title>Node5</title>
<g id="a_Node000005"><a xlink:href="a01943.html#afac539947a2f5fe419a493103a45e4be" target="_top" xlink:title=" ">
<polygon fill="white" stroke="#666666" points="363,-36.5 277.25,-36.5 277.25,-18 363,-18 363,-36.5"/>
<text text-anchor="middle" x="320.12" y="-23" font-family="Helvetica,sans-Serif" font-size="10.00">find_start_small</text>
</a>
</g>
</g>
<!-- Node2&#45;&gt;Node5 -->
<g id="edge4_Node000002_Node000005" class="edge">
<title>Node2&#45;&gt;Node5</title>
<g id="a_edge4_Node000002_Node000005"><a xlink:title=" ">
<path fill="none" stroke="#63b8ff" d="M225.11,-41.89C237.34,-39.99 252.09,-37.69 266.24,-35.49"/>
<polygon fill="#63b8ff" stroke="#63b8ff" points="266.56,-38.82 275.9,-33.83 265.48,-31.91 266.56,-38.82"/>
</a>
</g>
</g>
<!-- Node4 -->
<g id="Node000004" class="node">
<title>Node4</title>
<g id="a_Node000004"><a xlink:href="a01943.html#af8a432f287b9f55f026e2d120e677998" target="_top" xlink:title=" ">
<polygon fill="white" stroke="#666666" points="480.25,-54.5 399,-54.5 399,-36 480.25,-36 480.25,-54.5"/>
<text text-anchor="middle" x="439.62" y="-41" font-family="Helvetica,sans-Serif" font-size="10.00">find_end_small</text>
</a>
</g>
</g>
<!-- Node3&#45;&gt;Node4 -->
<g id="edge3_Node000003_Node000004" class="edge">
<title>Node3&#45;&gt;Node4</title>
<g id="a_edge3_Node000003_Node000004"><a xlink:title=" ">
<path fill="none" stroke="#63b8ff" d="M357.98,-58.29C367.47,-56.76 377.85,-55.08 387.91,-53.45"/>
<polygon fill="#63b8ff" stroke="#63b8ff" points="388.33,-56.77 397.64,-51.72 387.21,-49.86 388.33,-56.77"/>
</a>
</g>
</g>
<!-- Node5&#45;&gt;Node4 -->
<g id="edge5_Node000005_Node000004" class="edge">
<title>Node5&#45;&gt;Node4</title>
<g id="a_edge5_Node000005_Node000004"><a xlink:title=" ">
<path fill="none" stroke="#63b8ff" d="M363.21,-33.7C371.27,-34.93 379.79,-36.24 388.08,-37.51"/>
<polygon fill="#63b8ff" stroke="#63b8ff" points="387.38,-41.09 397.79,-39.15 388.44,-34.17 387.38,-41.09"/>
</a>
</g>
</g>
</g>
</svg>
