<?xml version="1.0" encoding="UTF-8" standalone="no"?>
<!DOCTYPE svg PUBLIC "-//W3C//DTD SVG 1.1//EN"
 "http://www.w3.org/Graphics/SVG/1.1/DTD/svg11.dtd">
<!-- Generated by graphviz version 12.2.1 (0)
 -->
<!-- Title: arax.h Pages: 1 -->
<svg width="955pt" height="299pt"
 viewBox="0.00 0.00 955.25 299.00" xmlns="http://www.w3.org/2000/svg" xmlns:xlink="http://www.w3.org/1999/xlink">
<g id="graph0" class="graph" transform="scale(1 1) rotate(0) translate(4 295)">
<title>arax.h</title>
<!-- Node1 -->
<g id="Node000001" class="node">
<title>Node1</title>
<g id="a_Node000001"><a xlink:title=" ">
<polygon fill="#999999" stroke="#666666" points="244.75,-291 201.75,-291 201.75,-272.5 244.75,-272.5 244.75,-291"/>
<text text-anchor="middle" x="223.25" y="-277.5" font-family="Helvetica,sans-Serif" font-size="10.00">arax.h</text>
</a>
</g>
</g>
<!-- Node2 -->
<g id="Node000002" class="node">
<title>Node2</title>
<g id="a_Node000002"><a xlink:href="a01403.html" target="_top" xlink:title=" ">
<polygon fill="white" stroke="#666666" points="291.38,-182 219.12,-182 219.12,-163.5 291.38,-163.5 291.38,-182"/>
<text text-anchor="middle" x="255.25" y="-168.5" font-family="Helvetica,sans-Serif" font-size="10.00">arax_accel.h</text>
</a>
</g>
</g>
<!-- Node1&#45;&gt;Node2 -->
<g id="edge1_Node000001_Node000002" class="edge">
<title>Node1&#45;&gt;Node2</title>
<g id="a_edge1_Node000001_Node000002"><a xlink:title=" ">
<path fill="none" stroke="#63b8ff" d="M229.04,-261.38C236.05,-237.94 247.55,-199.49 252.66,-182.4"/>
<polygon fill="#63b8ff" stroke="#63b8ff" points="225.71,-260.32 226.19,-270.9 232.41,-262.33 225.71,-260.32"/>
</a>
</g>
</g>
<!-- Node3 -->
<g id="Node000003" class="node">
<title>Node3</title>
<g id="a_Node000003"><a xlink:href="a01409.html" target="_top" xlink:title=" ">
<polygon fill="white" stroke="#666666" points="243.12,-127.5 175.38,-127.5 175.38,-109 243.12,-109 243.12,-127.5"/>
<text text-anchor="middle" x="209.25" y="-114" font-family="Helvetica,sans-Serif" font-size="10.00">arax_data.h</text>
</a>
</g>
</g>
<!-- Node1&#45;&gt;Node3 -->
<g id="edge22_Node000001_Node000003" class="edge">
<title>Node1&#45;&gt;Node3</title>
<g id="a_edge22_Node000001_Node000003"><a xlink:title=" ">
<path fill="none" stroke="#63b8ff" d="M219.94,-260.82C216.8,-240.93 212.27,-209.44 210.25,-182 208.83,-162.66 208.9,-139.88 209.08,-127.79"/>
<polygon fill="#63b8ff" stroke="#63b8ff" points="216.47,-261.26 221.52,-270.57 223.38,-260.14 216.47,-261.26"/>
</a>
</g>
</g>
<!-- Node7 -->
<g id="Node000007" class="node">
<title>Node7</title>
<g id="a_Node000007"><a xlink:href="a01937.html" target="_top" xlink:title=" ">
<polygon fill="white" stroke="#666666" points="130.12,-73 62.38,-73 62.38,-54.5 130.12,-54.5 130.12,-73"/>
<text text-anchor="middle" x="96.25" y="-59.5" font-family="Helvetica,sans-Serif" font-size="10.00">arax_task.c</text>
</a>
</g>
</g>
<!-- Node1&#45;&gt;Node7 -->
<g id="edge33_Node000001_Node000007" class="edge">
<title>Node1&#45;&gt;Node7</title>
<g id="a_edge33_Node000001_Node000007"><a xlink:title=" ">
<path fill="none" stroke="#63b8ff" d="M190.75,-273.69C167.84,-267.29 137.71,-255.83 117.25,-236.5 78.09,-199.51 76.34,-179.99 64.25,-127.5 62.41,-119.49 61.72,-116.82 64.25,-109 68.8,-94.93 79.69,-81.58 87.5,-73.29"/>
<polygon fill="#63b8ff" stroke="#63b8ff" points="189.64,-277.02 200.19,-276.14 191.39,-270.24 189.64,-277.02"/>
</a>
</g>
</g>
<!-- Node8 -->
<g id="Node000008" class="node">
<title>Node8</title>
<g id="a_Node000008"><a xlink:href="a01910.html" target="_top" xlink:title=" ">
<polygon fill="white" stroke="#666666" points="190.38,-73 148.12,-73 148.12,-54.5 190.38,-54.5 190.38,-73"/>
<text text-anchor="middle" x="169.25" y="-59.5" font-family="Helvetica,sans-Serif" font-size="10.00">impl.c</text>
</a>
</g>
</g>
<!-- Node1&#45;&gt;Node8 -->
<g id="edge34_Node000001_Node000008" class="edge">
<title>Node1&#45;&gt;Node8</title>
<g id="a_edge34_Node000001_Node000008"><a xlink:title=" ">
<path fill="none" stroke="#63b8ff" d="M213.8,-262.04C200.09,-233.77 175.35,-178.08 166.25,-127.5 162.81,-108.39 165.61,-85.52 167.63,-73.35"/>
<polygon fill="#63b8ff" stroke="#63b8ff" points="210.52,-263.31 218.09,-270.73 216.79,-260.21 210.52,-263.31"/>
</a>
</g>
</g>
<!-- Node9 -->
<g id="Node000009" class="node">
<title>Node9</title>
<g id="a_Node000009"><a xlink:href="a01358.html" target="_top" xlink:title=" ">
<polygon fill="white" stroke="#666666" points="574.75,-127.5 507.75,-127.5 507.75,-109 574.75,-109 574.75,-127.5"/>
<text text-anchor="middle" x="541.25" y="-114" font-family="Helvetica,sans-Serif" font-size="10.00">arax_pipe.h</text>
</a>
</g>
</g>
<!-- Node1&#45;&gt;Node9 -->
<g id="edge23_Node000001_Node000009" class="edge">
<title>Node1&#45;&gt;Node9</title>
<g id="a_edge23_Node000001_Node000009"><a xlink:title=" ">
<path fill="none" stroke="#63b8ff" d="M256.25,-279.92C317.59,-276.49 449.13,-259.9 517.25,-182 531.22,-166.02 537.46,-141.05 539.9,-127.94"/>
<polygon fill="#63b8ff" stroke="#63b8ff" points="256.29,-276.42 246.47,-280.38 256.62,-283.41 256.29,-276.42"/>
</a>
</g>
</g>
<!-- Node16 -->
<g id="Node000016" class="node">
<title>Node16</title>
<g id="a_Node000016"><a xlink:href="a01376.html" target="_top" xlink:title=" ">
<polygon fill="white" stroke="#666666" points="639.25,-236.5 575.25,-236.5 575.25,-218 639.25,-218 639.25,-236.5"/>
<text text-anchor="middle" x="607.25" y="-223" font-family="Helvetica,sans-Serif" font-size="10.00">arax_plot.h</text>
</a>
</g>
</g>
<!-- Node1&#45;&gt;Node16 -->
<g id="edge24_Node000001_Node000016" class="edge">
<title>Node1&#45;&gt;Node16</title>
<g id="a_edge24_Node000001_Node000016"><a xlink:title=" ">
<path fill="none" stroke="#63b8ff" d="M256.14,-276.54C315.53,-268.9 444.58,-252.09 553.25,-236.5 560.29,-235.49 567.84,-234.36 575,-233.28"/>
<polygon fill="#63b8ff" stroke="#63b8ff" points="255.86,-273.05 246.39,-277.79 256.76,-279.99 255.86,-273.05"/>
</a>
</g>
</g>
<!-- Node17 -->
<g id="Node000017" class="node">
<title>Node17</title>
<g id="a_Node000017"><a xlink:href="a01418.html" target="_top" xlink:title=" ">
<polygon fill="white" stroke="#666666" points="408.12,-236.5 340.38,-236.5 340.38,-218 408.12,-218 408.12,-236.5"/>
<text text-anchor="middle" x="374.25" y="-223" font-family="Helvetica,sans-Serif" font-size="10.00">arax_proc.h</text>
</a>
</g>
</g>
<!-- Node1&#45;&gt;Node17 -->
<g id="edge26_Node000001_Node000017" class="edge">
<title>Node1&#45;&gt;Node17</title>
<g id="a_edge26_Node000001_Node000017"><a xlink:title=" ">
<path fill="none" stroke="#63b8ff" d="M256.05,-269.35C284.06,-259.61 323.75,-245.81 349.25,-236.94"/>
<polygon fill="#63b8ff" stroke="#63b8ff" points="254.93,-266.03 246.64,-272.62 257.23,-272.64 254.93,-266.03"/>
</a>
</g>
</g>
<!-- Node20 -->
<g id="Node000020" class="node">
<title>Node20</title>
<g id="a_Node000020"><a xlink:href="a01400.html" target="_top" xlink:title=" ">
<polygon fill="white" stroke="#666666" points="119.25,-127.5 73.25,-127.5 73.25,-109 119.25,-109 119.25,-127.5"/>
<text text-anchor="middle" x="96.25" y="-114" font-family="Helvetica,sans-Serif" font-size="10.00">timer.h</text>
</a>
</g>
</g>
<!-- Node1&#45;&gt;Node20 -->
<g id="edge35_Node000001_Node000020" class="edge">
<title>Node1&#45;&gt;Node20</title>
<g id="a_edge35_Node000001_Node000020"><a xlink:title=" ">
<path fill="none" stroke="#63b8ff" d="M190.57,-271.82C171.42,-265.02 148.14,-253.83 133.25,-236.5 104.87,-203.47 98.23,-148.63 96.7,-127.71"/>
<polygon fill="#63b8ff" stroke="#63b8ff" points="189.24,-275.06 199.83,-274.85 191.42,-268.41 189.24,-275.06"/>
</a>
</g>
</g>
<!-- Node2&#45;&gt;Node3 -->
<g id="edge2_Node000002_Node000003" class="edge">
<title>Node2&#45;&gt;Node3</title>
<g id="a_edge2_Node000002_Node000003"><a xlink:title=" ">
<path fill="none" stroke="#63b8ff" d="M240.15,-154.52C232.29,-145.54 223.02,-134.97 216.7,-127.76"/>
<polygon fill="#63b8ff" stroke="#63b8ff" points="237.43,-156.73 246.66,-161.94 242.7,-152.11 237.43,-156.73"/>
</a>
</g>
</g>
<!-- Node6 -->
<g id="Node000006" class="node">
<title>Node6</title>
<g id="a_Node000006"><a xlink:href="a01925.html" target="_top" xlink:title=" ">
<polygon fill="white" stroke="#666666" points="440.5,-73 366,-73 366,-54.5 440.5,-54.5 440.5,-73"/>
<text text-anchor="middle" x="403.25" y="-59.5" font-family="Helvetica,sans-Serif" font-size="10.00">arax_object.c</text>
</a>
</g>
</g>
<!-- Node2&#45;&gt;Node6 -->
<g id="edge9_Node000002_Node000006" class="edge">
<title>Node2&#45;&gt;Node6</title>
<g id="a_edge9_Node000002_Node000006"><a xlink:title=" ">
<path fill="none" stroke="#63b8ff" d="M261.91,-152.52C267.56,-138.76 276.88,-120.67 290.25,-109 311.68,-90.3 341.93,-79.01 365.74,-72.53"/>
<polygon fill="#63b8ff" stroke="#63b8ff" points="258.66,-151.22 258.43,-161.82 265.22,-153.68 258.66,-151.22"/>
</a>
</g>
</g>
<!-- Node2&#45;&gt;Node9 -->
<g id="edge10_Node000002_Node000009" class="edge">
<title>Node2&#45;&gt;Node9</title>
<g id="a_edge10_Node000002_Node000009"><a xlink:title=" ">
<path fill="none" stroke="#63b8ff" d="M302.8,-163.02C360.67,-152.4 456.91,-134.73 507.62,-125.42"/>
<polygon fill="#63b8ff" stroke="#63b8ff" points="302.45,-159.53 293.25,-164.77 303.72,-166.41 302.45,-159.53"/>
</a>
</g>
</g>
<!-- Node15 -->
<g id="Node000015" class="node">
<title>Node15</title>
<g id="a_Node000015"><a xlink:href="a01430.html" target="_top" xlink:title=" ">
<polygon fill="white" stroke="#666666" points="375.62,-127.5 298.88,-127.5 298.88,-109 375.62,-109 375.62,-127.5"/>
<text text-anchor="middle" x="337.25" y="-114" font-family="Helvetica,sans-Serif" font-size="10.00">arax_vaccel.h</text>
</a>
</g>
</g>
<!-- Node2&#45;&gt;Node15 -->
<g id="edge20_Node000002_Node000015" class="edge">
<title>Node2&#45;&gt;Node15</title>
<g id="a_edge20_Node000002_Node000015"><a xlink:title=" ">
<path fill="none" stroke="#63b8ff" d="M272.85,-156.52C286.36,-147.23 304.73,-135.69 318.52,-127.93"/>
<polygon fill="#63b8ff" stroke="#63b8ff" points="270.98,-153.55 264.86,-162.2 275.04,-159.26 270.98,-153.55"/>
</a>
</g>
</g>
<!-- Node4 -->
<g id="Node000004" class="node">
<title>Node4</title>
<g id="a_Node000004"><a xlink:href="a01922.html" target="_top" xlink:title=" ">
<polygon fill="white" stroke="#666666" points="437.12,-18.5 369.38,-18.5 369.38,0 437.12,0 437.12,-18.5"/>
<text text-anchor="middle" x="403.25" y="-5" font-family="Helvetica,sans-Serif" font-size="10.00">arax_data.c</text>
</a>
</g>
</g>
<!-- Node3&#45;&gt;Node4 -->
<g id="edge3_Node000003_Node000004" class="edge">
<title>Node3&#45;&gt;Node4</title>
<g id="a_edge3_Node000003_Node000004"><a xlink:title=" ">
<path fill="none" stroke="#63b8ff" d="M247.16,-104.76C268.9,-96.93 296.33,-85.88 319.25,-73 348.13,-56.77 378.4,-31.9 393.49,-18.88"/>
<polygon fill="#63b8ff" stroke="#63b8ff" points="246.07,-101.43 237.79,-108.05 248.39,-108.04 246.07,-101.43"/>
</a>
</g>
</g>
<!-- Node5 -->
<g id="Node000005" class="node">
<title>Node5</title>
<g id="a_Node000005"><a xlink:href="a01412.html" target="_top" xlink:title=" ">
<polygon fill="white" stroke="#666666" points="310,-73 208.5,-73 208.5,-54.5 310,-54.5 310,-73"/>
<text text-anchor="middle" x="259.25" y="-59.5" font-family="Helvetica,sans-Serif" font-size="10.00">arax_data_private.h</text>
</a>
</g>
</g>
<!-- Node3&#45;&gt;Node5 -->
<g id="edge4_Node000003_Node000005" class="edge">
<title>Node3&#45;&gt;Node5</title>
<g id="a_edge4_Node000003_Node000005"><a xlink:title=" ">
<path fill="none" stroke="#63b8ff" d="M225.39,-100.3C234,-91.27 244.21,-80.55 251.15,-73.26"/>
<polygon fill="#63b8ff" stroke="#63b8ff" points="222.91,-97.83 218.55,-107.48 227.98,-102.66 222.91,-97.83"/>
</a>
</g>
</g>
<!-- Node3&#45;&gt;Node6 -->
<g id="edge6_Node000003_Node000006" class="edge">
<title>Node3&#45;&gt;Node6</title>
<g id="a_edge6_Node000003_Node000006"><a xlink:title=" ">
<path fill="none" stroke="#63b8ff" d="M251.94,-105.7C287.91,-95.96 338.57,-82.25 371.17,-73.43"/>
<polygon fill="#63b8ff" stroke="#63b8ff" points="251.48,-102.19 242.75,-108.19 253.31,-108.95 251.48,-102.19"/>
</a>
</g>
</g>
<!-- Node3&#45;&gt;Node7 -->
<g id="edge7_Node000003_Node000007" class="edge">
<title>Node3&#45;&gt;Node7</title>
<g id="a_edge7_Node000003_Node000007"><a xlink:title=" ">
<path fill="none" stroke="#63b8ff" d="M180.22,-103.76C159.66,-94.21 132.69,-81.68 114.94,-73.43"/>
<polygon fill="#63b8ff" stroke="#63b8ff" points="178.67,-106.9 189.22,-107.94 181.62,-100.56 178.67,-106.9"/>
</a>
</g>
</g>
<!-- Node3&#45;&gt;Node8 -->
<g id="edge8_Node000003_Node000008" class="edge">
<title>Node3&#45;&gt;Node8</title>
<g id="a_edge8_Node000003_Node000008"><a xlink:title=" ">
<path fill="none" stroke="#63b8ff" d="M195.69,-99.45C188.95,-90.6 181.11,-80.32 175.73,-73.26"/>
<polygon fill="#63b8ff" stroke="#63b8ff" points="192.88,-101.54 201.73,-107.38 198.45,-97.3 192.88,-101.54"/>
</a>
</g>
</g>
<!-- Node5&#45;&gt;Node4 -->
<g id="edge5_Node000005_Node000004" class="edge">
<title>Node5&#45;&gt;Node4</title>
<g id="a_edge5_Node000005_Node000004"><a xlink:title=" ">
<path fill="none" stroke="#63b8ff" d="M293.74,-50.18C320.21,-40.52 356.08,-27.45 379.44,-18.93"/>
<polygon fill="#63b8ff" stroke="#63b8ff" points="292.65,-46.85 284.45,-53.56 295.04,-53.43 292.65,-46.85"/>
</a>
</g>
</g>
<!-- Node9&#45;&gt;Node4 -->
<g id="edge12_Node000009_Node000004" class="edge">
<title>Node9&#45;&gt;Node4</title>
<g id="a_edge12_Node000009_Node000004"><a xlink:title=" ">
<path fill="none" stroke="#63b8ff" d="M586.35,-110.01C629.56,-101.18 684.84,-83.69 660.25,-54.5 632.1,-21.09 500.32,-12.9 437.17,-10.9"/>
<polygon fill="#63b8ff" stroke="#63b8ff" points="585.76,-106.56 576.61,-111.89 587.09,-113.44 585.76,-106.56"/>
</a>
</g>
</g>
<!-- Node9&#45;&gt;Node6 -->
<g id="edge13_Node000009_Node000006" class="edge">
<title>Node9&#45;&gt;Node6</title>
<g id="a_edge13_Node000009_Node000006"><a xlink:title=" ">
<path fill="none" stroke="#63b8ff" d="M507.86,-104.55C482.52,-94.91 448.36,-81.91 426.07,-73.43"/>
<polygon fill="#63b8ff" stroke="#63b8ff" points="506.46,-107.76 517.05,-108.04 508.95,-101.22 506.46,-107.76"/>
</a>
</g>
</g>
<!-- Node9&#45;&gt;Node7 -->
<g id="edge17_Node000009_Node000007" class="edge">
<title>Node9&#45;&gt;Node7</title>
<g id="a_edge17_Node000009_Node000007"><a xlink:title=" ">
<path fill="none" stroke="#63b8ff" d="M496.25,-113.48C421.77,-106.97 268.26,-92.44 139.25,-73 136.39,-72.57 133.44,-72.09 130.48,-71.57"/>
<polygon fill="#63b8ff" stroke="#63b8ff" points="495.74,-116.95 506.01,-114.32 496.35,-109.97 495.74,-116.95"/>
</a>
</g>
</g>
<!-- Node9&#45;&gt;Node8 -->
<g id="edge19_Node000009_Node000008" class="edge">
<title>Node9&#45;&gt;Node8</title>
<g id="a_edge19_Node000009_Node000008"><a xlink:title=" ">
<path fill="none" stroke="#63b8ff" d="M496.34,-113.46C430.65,-107.45 304.73,-94.22 199.25,-73 196.5,-72.45 193.62,-71.78 190.79,-71.06"/>
<polygon fill="#63b8ff" stroke="#63b8ff" points="495.72,-116.91 505.99,-114.32 496.35,-109.94 495.72,-116.91"/>
</a>
</g>
</g>
<!-- Node10 -->
<g id="Node000010" class="node">
<title>Node10</title>
<g id="a_Node000010"><a xlink:href="a01916.html" target="_top" xlink:title=" ">
<polygon fill="white" stroke="#666666" points="779.38,-73 707.12,-73 707.12,-54.5 779.38,-54.5 779.38,-73"/>
<text text-anchor="middle" x="743.25" y="-59.5" font-family="Helvetica,sans-Serif" font-size="10.00">arax_accel.c</text>
</a>
</g>
</g>
<!-- Node9&#45;&gt;Node10 -->
<g id="edge11_Node000009_Node000010" class="edge">
<title>Node9&#45;&gt;Node10</title>
<g id="a_edge11_Node000009_Node000010"><a xlink:title=" ">
<path fill="none" stroke="#63b8ff" d="M585.7,-105.7C623.15,-95.96 675.91,-82.25 709.84,-73.43"/>
<polygon fill="#63b8ff" stroke="#63b8ff" points="584.87,-102.3 576.07,-108.2 586.63,-109.07 584.87,-102.3"/>
</a>
</g>
</g>
<!-- Node11 -->
<g id="Node000011" class="node">
<title>Node11</title>
<g id="a_Node000011"><a xlink:href="a01928.html" target="_top" xlink:title=" ">
<polygon fill="white" stroke="#666666" points="864.75,-73 797.75,-73 797.75,-54.5 864.75,-54.5 864.75,-73"/>
<text text-anchor="middle" x="831.25" y="-59.5" font-family="Helvetica,sans-Serif" font-size="10.00">arax_pipe.c</text>
</a>
</g>
</g>
<!-- Node9&#45;&gt;Node11 -->
<g id="edge14_Node000009_Node000011" class="edge">
<title>Node9&#45;&gt;Node11</title>
<g id="a_edge14_Node000009_Node000011"><a xlink:title=" ">
<path fill="none" stroke="#63b8ff" d="M586.51,-109.31C636.07,-100.58 717.86,-86.06 788.25,-73 791.24,-72.45 794.34,-71.86 797.46,-71.27"/>
<polygon fill="#63b8ff" stroke="#63b8ff" points="585.97,-105.86 576.73,-111.04 587.18,-112.75 585.97,-105.86"/>
</a>
</g>
</g>
<!-- Node12 -->
<g id="Node000012" class="node">
<title>Node12</title>
<g id="a_Node000012"><a xlink:href="a01946.html" target="_top" xlink:title=" ">
<polygon fill="white" stroke="#666666" points="947.25,-73 883.25,-73 883.25,-54.5 947.25,-54.5 947.25,-73"/>
<text text-anchor="middle" x="915.25" y="-59.5" font-family="Helvetica,sans-Serif" font-size="10.00">arax_plot.c</text>
</a>
</g>
</g>
<!-- Node9&#45;&gt;Node12 -->
<g id="edge15_Node000009_Node000012" class="edge">
<title>Node9&#45;&gt;Node12</title>
<g id="a_edge15_Node000009_Node000012"><a xlink:title=" ">
<path fill="none" stroke="#63b8ff" d="M586.21,-112.24C650.32,-104.87 771.63,-90.12 874.25,-73 877.11,-72.52 880.09,-71.99 883.06,-71.44"/>
<polygon fill="#63b8ff" stroke="#63b8ff" points="585.96,-108.74 576.42,-113.35 586.76,-115.7 585.96,-108.74"/>
</a>
</g>
</g>
<!-- Node13 -->
<g id="Node000013" class="node">
<title>Node13</title>
<g id="a_Node000013"><a xlink:href="a01934.html" target="_top" xlink:title=" ">
<polygon fill="white" stroke="#666666" points="556.38,-73 496.12,-73 496.12,-54.5 556.38,-54.5 556.38,-73"/>
<text text-anchor="middle" x="526.25" y="-59.5" font-family="Helvetica,sans-Serif" font-size="10.00">arax_ptr.c</text>
</a>
</g>
</g>
<!-- Node9&#45;&gt;Node13 -->
<g id="edge16_Node000009_Node000013" class="edge">
<title>Node9&#45;&gt;Node13</title>
<g id="a_edge16_Node000009_Node000013"><a xlink:title=" ">
<path fill="none" stroke="#63b8ff" d="M535.67,-97.72C533.26,-89.29 530.57,-79.86 528.68,-73.26"/>
<polygon fill="#63b8ff" stroke="#63b8ff" points="532.24,-98.47 538.36,-107.13 538.98,-96.55 532.24,-98.47"/>
</a>
</g>
</g>
<!-- Node14 -->
<g id="Node000014" class="node">
<title>Node14</title>
<g id="a_Node000014"><a xlink:href="a01943.html" target="_top" xlink:title=" ">
<polygon fill="white" stroke="#666666" points="651.62,-73 574.88,-73 574.88,-54.5 651.62,-54.5 651.62,-73"/>
<text text-anchor="middle" x="613.25" y="-59.5" font-family="Helvetica,sans-Serif" font-size="10.00">arax_vaccel.c</text>
</a>
</g>
</g>
<!-- Node9&#45;&gt;Node14 -->
<g id="edge18_Node000009_Node000014" class="edge">
<title>Node9&#45;&gt;Node14</title>
<g id="a_edge18_Node000009_Node000014"><a xlink:title=" ">
<path fill="none" stroke="#63b8ff" d="M562.2,-101.97C575.03,-92.62 590.96,-81 601.58,-73.26"/>
<polygon fill="#63b8ff" stroke="#63b8ff" points="560.38,-98.97 554.36,-107.69 564.5,-104.63 560.38,-98.97"/>
</a>
</g>
</g>
<!-- Node15&#45;&gt;Node2 -->
<g id="edge21_Node000015_Node000002" class="edge">
<title>Node15&#45;&gt;Node2</title>
<g id="a_edge21_Node000015_Node000002"><a xlink:title=" ">
<path fill="none" stroke="#63b8ff" d="M319.87,-134.33C306.33,-143.65 287.83,-155.28 273.96,-163.08"/>
<polygon fill="#63b8ff" stroke="#63b8ff" points="321.75,-137.29 327.86,-128.64 317.68,-131.59 321.75,-137.29"/>
</a>
</g>
</g>
<!-- Node16&#45;&gt;Node12 -->
<g id="edge25_Node000016_Node000012" class="edge">
<title>Node16&#45;&gt;Node12</title>
<g id="a_edge25_Node000016_Node000012"><a xlink:title=" ">
<path fill="none" stroke="#63b8ff" d="M633.95,-212.25C695.92,-179.75 848.05,-99.99 898.61,-73.48"/>
<polygon fill="#63b8ff" stroke="#63b8ff" points="632.38,-209.12 625.15,-216.86 635.63,-215.32 632.38,-209.12"/>
</a>
</g>
</g>
<!-- Node17&#45;&gt;Node6 -->
<g id="edge27_Node000017_Node000006" class="edge">
<title>Node17&#45;&gt;Node6</title>
<g id="a_edge27_Node000017_Node000006"><a xlink:title=" ">
<path fill="none" stroke="#63b8ff" d="M380.16,-206.49C382.29,-198.89 384.57,-190.09 386.25,-182 394.6,-141.72 400.28,-92.81 402.36,-73.34"/>
<polygon fill="#63b8ff" stroke="#63b8ff" points="376.81,-205.48 377.38,-216.06 383.53,-207.43 376.81,-205.48"/>
</a>
</g>
</g>
<!-- Node18 -->
<g id="Node000018" class="node">
<title>Node18</title>
<g id="a_Node000018"><a xlink:href="a01931.html" target="_top" xlink:title=" ">
<polygon fill="white" stroke="#666666" points="377.12,-182 309.38,-182 309.38,-163.5 377.12,-163.5 377.12,-182"/>
<text text-anchor="middle" x="343.25" y="-168.5" font-family="Helvetica,sans-Serif" font-size="10.00">arax_proc.c</text>
</a>
</g>
</g>
<!-- Node17&#45;&gt;Node18 -->
<g id="edge28_Node000017_Node000018" class="edge">
<title>Node17&#45;&gt;Node18</title>
<g id="a_edge28_Node000017_Node000018"><a xlink:title=" ">
<path fill="none" stroke="#63b8ff" d="M363.4,-207.88C358.25,-199.16 352.35,-189.17 348.27,-182.26"/>
<polygon fill="#63b8ff" stroke="#63b8ff" points="360.26,-209.45 368.36,-216.28 366.29,-205.89 360.26,-209.45"/>
</a>
</g>
</g>
<!-- Node19 -->
<g id="Node000019" class="node">
<title>Node19</title>
<g id="a_Node000019"><a xlink:href="a01424.html" target="_top" xlink:title=" ">
<polygon fill="white" stroke="#666666" points="508.12,-182 440.38,-182 440.38,-163.5 508.12,-163.5 508.12,-182"/>
<text text-anchor="middle" x="474.25" y="-168.5" font-family="Helvetica,sans-Serif" font-size="10.00">arax_task.h</text>
</a>
</g>
</g>
<!-- Node17&#45;&gt;Node19 -->
<g id="edge29_Node000017_Node000019" class="edge">
<title>Node17&#45;&gt;Node19</title>
<g id="a_edge29_Node000017_Node000019"><a xlink:title=" ">
<path fill="none" stroke="#63b8ff" d="M400.95,-212.23C419.01,-202.75 442.29,-190.53 457.71,-182.43"/>
<polygon fill="#63b8ff" stroke="#63b8ff" points="399.33,-209.13 392.1,-216.88 402.58,-215.33 399.33,-209.13"/>
</a>
</g>
</g>
<!-- Node19&#45;&gt;Node4 -->
<g id="edge30_Node000019_Node000004" class="edge">
<title>Node19&#45;&gt;Node4</title>
<g id="a_edge30_Node000019_Node000004"><a xlink:title=" ">
<path fill="none" stroke="#63b8ff" d="M473.54,-151.94C471.9,-127.58 466.57,-85.65 449.25,-54.5 441.07,-39.78 426.38,-26.94 415.8,-18.94"/>
<polygon fill="#63b8ff" stroke="#63b8ff" points="470.03,-151.88 474.03,-161.69 477.02,-151.53 470.03,-151.88"/>
</a>
</g>
</g>
<!-- Node19&#45;&gt;Node6 -->
<g id="edge31_Node000019_Node000006" class="edge">
<title>Node19&#45;&gt;Node6</title>
<g id="a_edge31_Node000019_Node000006"><a xlink:title=" ">
<path fill="none" stroke="#63b8ff" d="M462.46,-153.98C447.03,-130.72 420.59,-90.89 408.99,-73.4"/>
<polygon fill="#63b8ff" stroke="#63b8ff" points="459.4,-155.7 467.84,-162.09 465.23,-151.83 459.4,-155.7"/>
</a>
</g>
</g>
<!-- Node19&#45;&gt;Node9 -->
<g id="edge32_Node000019_Node000009" class="edge">
<title>Node19&#45;&gt;Node9</title>
<g id="a_edge32_Node000019_Node000009"><a xlink:title=" ">
<path fill="none" stroke="#63b8ff" d="M494.1,-156.2C505.97,-146.89 520.61,-135.43 530.39,-127.76"/>
<polygon fill="#63b8ff" stroke="#63b8ff" points="492.22,-153.22 486.51,-162.15 496.54,-158.73 492.22,-153.22"/>
</a>
</g>
</g>
<!-- Node20&#45;&gt;Node7 -->
<g id="edge37_Node000020_Node000007" class="edge">
<title>Node20&#45;&gt;Node7</title>
<g id="a_edge37_Node000020_Node000007"><a xlink:title=" ">
<path fill="none" stroke="#63b8ff" d="M96.25,-97.14C96.25,-88.86 96.25,-79.71 96.25,-73.26"/>
<polygon fill="#63b8ff" stroke="#63b8ff" points="92.75,-97.07 96.25,-107.07 99.75,-97.07 92.75,-97.07"/>
</a>
</g>
</g>
<!-- Node20&#45;&gt;Node8 -->
<g id="edge38_Node000020_Node000008" class="edge">
<title>Node20&#45;&gt;Node8</title>
<g id="a_edge38_Node000020_Node000008"><a xlink:title=" ">
<path fill="none" stroke="#63b8ff" d="M117.49,-101.97C130.5,-92.62 146.65,-81 157.42,-73.26"/>
<polygon fill="#63b8ff" stroke="#63b8ff" points="115.61,-99.02 109.53,-107.7 119.7,-104.7 115.61,-99.02"/>
</a>
</g>
</g>
<!-- Node21 -->
<g id="Node000021" class="node">
<title>Node21</title>
<g id="a_Node000021"><a xlink:href="a02352.html" target="_top" xlink:title=" ">
<polygon fill="white" stroke="#666666" points="44.5,-73 0,-73 0,-54.5 44.5,-54.5 44.5,-73"/>
<text text-anchor="middle" x="22.25" y="-59.5" font-family="Helvetica,sans-Serif" font-size="10.00">alloc.c</text>
</a>
</g>
</g>
<!-- Node20&#45;&gt;Node21 -->
<g id="edge36_Node000020_Node000021" class="edge">
<title>Node20&#45;&gt;Node21</title>
<g id="a_edge36_Node000020_Node000021"><a xlink:title=" ">
<path fill="none" stroke="#63b8ff" d="M74.78,-102.02C61.68,-92.73 45.42,-81.19 34.49,-73.43"/>
<polygon fill="#63b8ff" stroke="#63b8ff" points="72.61,-104.77 82.8,-107.7 76.67,-99.06 72.61,-104.77"/>
</a>
</g>
</g>
</g>
</svg>
