<?xml version="1.0" encoding="UTF-8" standalone="no"?>
<!DOCTYPE svg PUBLIC "-//W3C//DTD SVG 1.1//EN"
 "http://www.w3.org/Graphics/SVG/1.1/DTD/svg11.dtd">
<!-- Generated by graphviz version 12.2.1 (0)
 -->
<!-- Title: timer.h Pages: 1 -->
<svg width="198pt" height="81pt"
 viewBox="0.00 0.00 198.38 81.00" xmlns="http://www.w3.org/2000/svg" xmlns:xlink="http://www.w3.org/1999/xlink">
<g id="graph0" class="graph" transform="scale(1 1) rotate(0) translate(4 77)">
<title>timer.h</title>
<!-- Node1 -->
<g id="Node000001" class="node">
<title>Node1</title>
<g id="a_Node000001"><a xlink:title=" ">
<polygon fill="#999999" stroke="#666666" points="119.25,-73 73.25,-73 73.25,-54.5 119.25,-54.5 119.25,-73"/>
<text text-anchor="middle" x="96.25" y="-59.5" font-family="Helvetica,sans-Serif" font-size="10.00">timer.h</text>
</a>
</g>
</g>
<!-- Node2 -->
<g id="Node000002" class="node">
<title>Node2</title>
<g id="a_Node000002"><a xlink:href="a02352.html" target="_top" xlink:title=" ">
<polygon fill="white" stroke="#666666" points="44.5,-18.5 0,-18.5 0,0 44.5,0 44.5,-18.5"/>
<text text-anchor="middle" x="22.25" y="-5" font-family="Helvetica,sans-Serif" font-size="10.00">alloc.c</text>
</a>
</g>
</g>
<!-- Node1&#45;&gt;Node2 -->
<g id="edge1_Node000001_Node000002" class="edge">
<title>Node1&#45;&gt;Node2</title>
<g id="a_edge1_Node000001_Node000002"><a xlink:title=" ">
<path fill="none" stroke="#63b8ff" d="M74.78,-47.52C61.68,-38.23 45.42,-26.69 34.49,-18.93"/>
<polygon fill="#63b8ff" stroke="#63b8ff" points="72.61,-50.27 82.8,-53.2 76.67,-44.56 72.61,-50.27"/>
</a>
</g>
</g>
<!-- Node3 -->
<g id="Node000003" class="node">
<title>Node3</title>
<g id="a_Node000003"><a xlink:href="a01937.html" target="_top" xlink:title=" ">
<polygon fill="white" stroke="#666666" points="130.12,-18.5 62.38,-18.5 62.38,0 130.12,0 130.12,-18.5"/>
<text text-anchor="middle" x="96.25" y="-5" font-family="Helvetica,sans-Serif" font-size="10.00">arax_task.c</text>
</a>
</g>
</g>
<!-- Node1&#45;&gt;Node3 -->
<g id="edge2_Node000001_Node000003" class="edge">
<title>Node1&#45;&gt;Node3</title>
<g id="a_edge2_Node000001_Node000003"><a xlink:title=" ">
<path fill="none" stroke="#63b8ff" d="M96.25,-42.64C96.25,-34.36 96.25,-25.21 96.25,-18.76"/>
<polygon fill="#63b8ff" stroke="#63b8ff" points="92.75,-42.57 96.25,-52.57 99.75,-42.57 92.75,-42.57"/>
</a>
</g>
</g>
<!-- Node4 -->
<g id="Node000004" class="node">
<title>Node4</title>
<g id="a_Node000004"><a xlink:href="a01910.html" target="_top" xlink:title=" ">
<polygon fill="white" stroke="#666666" points="190.38,-18.5 148.12,-18.5 148.12,0 190.38,0 190.38,-18.5"/>
<text text-anchor="middle" x="169.25" y="-5" font-family="Helvetica,sans-Serif" font-size="10.00">impl.c</text>
</a>
</g>
</g>
<!-- Node1&#45;&gt;Node4 -->
<g id="edge3_Node000001_Node000004" class="edge">
<title>Node1&#45;&gt;Node4</title>
<g id="a_edge3_Node000001_Node000004"><a xlink:title=" ">
<path fill="none" stroke="#63b8ff" d="M117.49,-47.47C130.5,-38.12 146.65,-26.5 157.42,-18.76"/>
<polygon fill="#63b8ff" stroke="#63b8ff" points="115.61,-44.52 109.53,-53.2 119.7,-50.2 115.61,-44.52"/>
</a>
</g>
</g>
</g>
</svg>
