<?xml version="1.0" encoding="UTF-8" standalone="no"?>
<!DOCTYPE svg PUBLIC "-//W3C//DTD SVG 1.1//EN"
 "http://www.w3.org/Graphics/SVG/1.1/DTD/svg11.dtd">
<!-- Generated by graphviz version 12.2.1 (0)
 -->
<!-- Title: arax_data_init_aligned Pages: 1 -->
<svg width="361pt" height="27pt"
 viewBox="0.00 0.00 360.50 26.50" xmlns="http://www.w3.org/2000/svg" xmlns:xlink="http://www.w3.org/1999/xlink">
<g id="graph0" class="graph" transform="scale(1 1) rotate(0) translate(4 22.5)">
<title>arax_data_init_aligned</title>
<!-- Node1 -->
<g id="Node000001" class="node">
<title>Node1</title>
<g id="a_Node000001"><a xlink:title=" ">
<polygon fill="#999999" stroke="#666666" points="352.5,-18.5 239,-18.5 239,0 352.5,0 352.5,-18.5"/>
<text text-anchor="middle" x="295.75" y="-5" font-family="Helvetica,sans-Serif" font-size="10.00">arax_data_init_aligned</text>
</a>
</g>
</g>
<!-- Node2 -->
<g id="Node000002" class="node">
<title>Node2</title>
<g id="a_Node000002"><a xlink:href="a01922.html#aeefe449d4a278e9fc4b9c5f7e31000a1" target="_top" xlink:title=" ">
<polygon fill="white" stroke="#666666" points="203,-18.5 125.5,-18.5 125.5,0 203,0 203,-18.5"/>
<text text-anchor="middle" x="164.25" y="-5" font-family="Helvetica,sans-Serif" font-size="10.00">arax_data_init</text>
</a>
</g>
</g>
<!-- Node1&#45;&gt;Node2 -->
<g id="edge1_Node000001_Node000002" class="edge">
<title>Node1&#45;&gt;Node2</title>
<g id="a_edge1_Node000001_Node000002"><a xlink:title=" ">
<path fill="none" stroke="#63b8ff" d="M227.2,-9.25C219.06,-9.25 210.98,-9.25 203.47,-9.25"/>
<polygon fill="#63b8ff" stroke="#63b8ff" points="227.19,-12.75 237.19,-9.25 227.19,-5.75 227.19,-12.75"/>
</a>
</g>
</g>
<!-- Node3 -->
<g id="Node000003" class="node">
<title>Node3</title>
<g id="a_Node000003"><a xlink:href="a02190.html#ga9260ad2dd766aec3274c518e2e312b1f" target="_top" xlink:title=" ">
<polygon fill="white" stroke="#666666" points="89.5,-18.5 0,-18.5 0,0 89.5,0 89.5,-18.5"/>
<text text-anchor="middle" x="44.75" y="-5" font-family="Helvetica,sans-Serif" font-size="10.00">ARAX_BUFFER</text>
</a>
</g>
</g>
<!-- Node2&#45;&gt;Node3 -->
<g id="edge2_Node000002_Node000003" class="edge">
<title>Node2&#45;&gt;Node3</title>
<g id="a_edge2_Node000002_Node000003"><a xlink:title=" ">
<path fill="none" stroke="#63b8ff" d="M113.72,-9.25C105.78,-9.25 97.62,-9.25 89.83,-9.25"/>
<polygon fill="#63b8ff" stroke="#63b8ff" points="113.59,-12.75 123.59,-9.25 113.59,-5.75 113.59,-12.75"/>
</a>
</g>
</g>
</g>
</svg>
