<?xml version="1.0" encoding="UTF-8" standalone="no"?>
<!DOCTYPE svg PUBLIC "-//W3C//DTD SVG 1.1//EN"
 "http://www.w3.org/Graphics/SVG/1.1/DTD/svg11.dtd">
<!-- Generated by graphviz version 8.0.5 (0)
 -->
<!-- Title: arax_data_ref Pages: 1 -->
<svg width="1367pt" height="844pt"
 viewBox="0.00 0.00 1366.50 843.50" xmlns="http://www.w3.org/2000/svg" xmlns:xlink="http://www.w3.org/1999/xlink">
<g id="graph0" class="graph" transform="scale(1 1) rotate(0) translate(4 839.5)">
<title>arax_data_ref</title>
<!-- Node1 -->
<g id="Node000001" class="node">
<title>Node1</title>
<g id="a_Node000001"><a xlink:title=" ">
<polygon fill="#999999" stroke="#666666" points="76,-332.5 0,-332.5 0,-314 76,-314 76,-332.5"/>
<text text-anchor="middle" x="38" y="-319" font-family="Helvetica,sans-Serif" font-size="10.00">arax_data_ref</text>
</a>
</g>
</g>
<!-- Node2 -->
<g id="Node000002" class="node">
<title>Node2</title>
<g id="a_Node000002"><a xlink:href="a01919.html#a80ab3bf4a8af9bb101b5a53248609771" target="_top" xlink:title=" ">
<polygon fill="white" stroke="#666666" points="188.75,-332.5 112,-332.5 112,-314 188.75,-314 188.75,-332.5"/>
<text text-anchor="middle" x="150.38" y="-319" font-family="Helvetica,sans-Serif" font-size="10.00">arax_ptr_valid</text>
</a>
</g>
</g>
<!-- Node1&#45;&gt;Node2 -->
<g id="edge1_Node000001_Node000002" class="edge">
<title>Node1&#45;&gt;Node2</title>
<g id="a_edge1_Node000001_Node000002"><a xlink:title=" ">
<path fill="none" stroke="#63b8ff" d="M76.37,-323.25C84.19,-323.25 92.55,-323.25 100.72,-323.25"/>
<polygon fill="#63b8ff" stroke="#63b8ff" points="100.67,-326.75 110.67,-323.25 100.67,-319.75 100.67,-326.75"/>
</a>
</g>
</g>
<!-- Node3 -->
<g id="Node000003" class="node">
<title>Node3</title>
<g id="a_Node000003"><a xlink:href="a02174.html#gae1d371a2840849690acce147e7a205da" target="_top" xlink:title=" ">
<polygon fill="white" stroke="#666666" points="278.25,-332.5 224.75,-332.5 224.75,-314 278.25,-314 278.25,-332.5"/>
<text text-anchor="middle" x="251.5" y="-319" font-family="Helvetica,sans-Serif" font-size="10.00">arax_init</text>
</a>
</g>
</g>
<!-- Node2&#45;&gt;Node3 -->
<g id="edge2_Node000002_Node000003" class="edge">
<title>Node2&#45;&gt;Node3</title>
<g id="a_edge2_Node000002_Node000003"><a xlink:title=" ">
<path fill="none" stroke="#63b8ff" d="M189.13,-323.25C197.17,-323.25 205.64,-323.25 213.64,-323.25"/>
<polygon fill="#63b8ff" stroke="#63b8ff" points="213.53,-326.75 223.53,-323.25 213.53,-319.75 213.53,-326.75"/>
</a>
</g>
</g>
<!-- Node4 -->
<g id="Node000004" class="node">
<title>Node4</title>
<g id="a_Node000004"><a xlink:href="a01898.html#a02fd608f651d254148dc74f0ae371dfe" target="_top" xlink:title=" ">
<polygon fill="white" stroke="#666666" points="373,-332.5 314.25,-332.5 314.25,-314 373,-314 373,-332.5"/>
<text text-anchor="middle" x="343.62" y="-319" font-family="Helvetica,sans-Serif" font-size="10.00">_arax_init</text>
</a>
</g>
</g>
<!-- Node3&#45;&gt;Node4 -->
<g id="edge3_Node000003_Node000004" class="edge">
<title>Node3&#45;&gt;Node4</title>
<g id="a_edge3_Node000003_Node000004"><a xlink:title=" ">
<path fill="none" stroke="#63b8ff" d="M278.57,-323.25C286.14,-323.25 294.6,-323.25 302.82,-323.25"/>
<polygon fill="#63b8ff" stroke="#63b8ff" points="302.77,-326.75 312.77,-323.25 302.77,-319.75 302.77,-326.75"/>
</a>
</g>
</g>
<!-- Node5 -->
<g id="Node000005" class="node">
<title>Node5</title>
<g id="a_Node000005"><a xlink:href="a01913.html#a94ce6437cad359c8523f57fe50be020d" target="_top" xlink:title=" ">
<polygon fill="white" stroke="#666666" points="551.75,-835.5 409,-835.5 409,-817 551.75,-817 551.75,-835.5"/>
<text text-anchor="middle" x="480.38" y="-822" font-family="Helvetica,sans-Serif" font-size="10.00">arax_pipe_get_available_size</text>
</a>
</g>
</g>
<!-- Node4&#45;&gt;Node5 -->
<g id="edge4_Node000004_Node000005" class="edge">
<title>Node4&#45;&gt;Node5</title>
<g id="a_edge4_Node000004_Node000005"><a xlink:title=" ">
<path fill="none" stroke="#63b8ff" d="M344.51,-332.86C343.98,-394.43 344.05,-733.14 409,-807.25 409.94,-808.32 410.93,-809.33 411.97,-810.29"/>
<polygon fill="#63b8ff" stroke="#63b8ff" points="409.59,-813.61 419.74,-816.63 413.68,-807.94 409.59,-813.61"/>
</a>
</g>
</g>
<!-- Node7 -->
<g id="Node000007" class="node">
<title>Node7</title>
<g id="a_Node000007"><a xlink:href="a01913.html#a5006bea23d2b9964f0f7c12947180e01" target="_top" xlink:title=" ">
<polygon fill="white" stroke="#666666" points="545.38,-798.5 415.38,-798.5 415.38,-780 545.38,-780 545.38,-798.5"/>
<text text-anchor="middle" x="480.38" y="-785" font-family="Helvetica,sans-Serif" font-size="10.00">arax_pipe_have_to_mmap</text>
</a>
</g>
</g>
<!-- Node4&#45;&gt;Node7 -->
<g id="edge6_Node000004_Node000007" class="edge">
<title>Node4&#45;&gt;Node7</title>
<g id="a_edge6_Node000004_Node000007"><a xlink:title=" ">
<path fill="none" stroke="#63b8ff" d="M344.69,-332.75C345.27,-390.81 351.07,-697.42 409,-766.25 411.59,-769.33 414.61,-772 417.9,-774.32"/>
<polygon fill="#63b8ff" stroke="#63b8ff" points="415.75,-777.7 426.17,-779.66 419.25,-771.64 415.75,-777.7"/>
</a>
</g>
</g>
<!-- Node8 -->
<g id="Node000008" class="node">
<title>Node8</title>
<g id="a_Node000008"><a xlink:href="a01913.html#aa6293e9ec7776aa49ecf632fcc4f5e26" target="_top" xlink:title=" ">
<polygon fill="white" stroke="#666666" points="518.75,-406.5 442,-406.5 442,-388 518.75,-388 518.75,-406.5"/>
<text text-anchor="middle" x="480.38" y="-393" font-family="Helvetica,sans-Serif" font-size="10.00">arax_pipe_init</text>
</a>
</g>
</g>
<!-- Node4&#45;&gt;Node8 -->
<g id="edge7_Node000004_Node000008" class="edge">
<title>Node4&#45;&gt;Node8</title>
<g id="a_edge7_Node000004_Node000008"><a xlink:title=" ">
<path fill="none" stroke="#63b8ff" d="M362.24,-332.92C385.14,-345.5 425.37,-367.59 452.19,-382.32"/>
<polygon fill="#63b8ff" stroke="#63b8ff" points="450.3,-385.83 460.75,-387.57 453.67,-379.69 450.3,-385.83"/>
</a>
</g>
</g>
<!-- Node24 -->
<g id="Node000024" class="node">
<title>Node24</title>
<g id="a_Node000024"><a xlink:href="a01952.html#aff9af0356940583dfe3045e693cc8a45" target="_top" xlink:title=" ">
<polygon fill="white" stroke="#666666" points="895.75,-760.5 780.75,-760.5 780.75,-742 895.75,-742 895.75,-760.5"/>
<text text-anchor="middle" x="838.25" y="-747" font-family="Helvetica,sans-Serif" font-size="10.00">utils_config_alloc_path</text>
</a>
</g>
</g>
<!-- Node4&#45;&gt;Node24 -->
<g id="edge56_Node000004_Node000024" class="edge">
<title>Node4&#45;&gt;Node24</title>
<g id="a_edge56_Node000004_Node000024"><a xlink:title=" ">
<path fill="none" stroke="#63b8ff" d="M344.62,-332.77C344.83,-388.27 348.84,-669.62 409,-724.25 460.19,-770.73 662.3,-764 769.56,-756.79"/>
<polygon fill="#63b8ff" stroke="#63b8ff" points="769.53,-760.23 779.26,-756.05 769.04,-753.25 769.53,-760.23"/>
</a>
</g>
</g>
<!-- Node27 -->
<g id="Node000027" class="node">
<title>Node27</title>
<g id="a_Node000027"><a xlink:href="a01952.html#aa7aa94ad075bf97a566f01f899fcd859" target="_top" xlink:title=" ">
<polygon fill="white" stroke="#666666" points="892,-610.5 784.5,-610.5 784.5,-592 892,-592 892,-610.5"/>
<text text-anchor="middle" x="838.25" y="-597" font-family="Helvetica,sans-Serif" font-size="10.00">utils_config_get_bool</text>
</a>
</g>
</g>
<!-- Node4&#45;&gt;Node27 -->
<g id="edge57_Node000004_Node000027" class="edge">
<title>Node4&#45;&gt;Node27</title>
<g id="a_edge57_Node000004_Node000027"><a xlink:title=" ">
<path fill="none" stroke="#63b8ff" d="M346.51,-332.99C352.07,-359.8 370.52,-436.01 409,-486.25 469.21,-564.86 493.75,-588.12 587.75,-619.25 658.04,-642.53 745.36,-626.82 795.86,-613.73"/>
<polygon fill="#63b8ff" stroke="#63b8ff" points="796.61,-616.88 805.36,-610.9 794.79,-610.12 796.61,-616.88"/>
</a>
</g>
</g>
<!-- Node39 -->
<g id="Node000039" class="node">
<title>Node39</title>
<g id="a_Node000039"><a xlink:href="a01913.html#a8d805b003097be6a6328a35c78bf558b" target="_top" xlink:title=" ">
<polygon fill="white" stroke="#666666" points="545.75,-166.5 415,-166.5 415,-148 545.75,-148 545.75,-166.5"/>
<text text-anchor="middle" x="480.38" y="-153" font-family="Helvetica,sans-Serif" font-size="10.00">arax_pipe_mmap_address</text>
</a>
</g>
</g>
<!-- Node4&#45;&gt;Node39 -->
<g id="edge33_Node000004_Node000039" class="edge">
<title>Node4&#45;&gt;Node39</title>
<g id="a_edge33_Node000004_Node000039"><a xlink:title=" ">
<path fill="none" stroke="#63b8ff" d="M345.93,-313.67C350.03,-287.47 365.09,-214.06 409,-176.25 410.79,-174.71 412.7,-173.29 414.69,-171.98"/>
<polygon fill="#63b8ff" stroke="#63b8ff" points="415.8,-174.82 422.91,-166.96 412.45,-168.67 415.8,-174.82"/>
</a>
</g>
</g>
<!-- Node40 -->
<g id="Node000040" class="node">
<title>Node40</title>
<g id="a_Node000040"><a xlink:href="a02352.html#aed6af4d83e934e3e654ead541b15f2d9" target="_top" xlink:title=" ">
<polygon fill="white" stroke="#666666" points="534.88,-240.5 425.88,-240.5 425.88,-222 534.88,-222 534.88,-240.5"/>
<text text-anchor="middle" x="480.38" y="-227" font-family="Helvetica,sans-Serif" font-size="10.00">async_condition_lock</text>
</a>
</g>
</g>
<!-- Node4&#45;&gt;Node40 -->
<g id="edge34_Node000004_Node000040" class="edge">
<title>Node4&#45;&gt;Node40</title>
<g id="a_edge34_Node000004_Node000040"><a xlink:title=" ">
<path fill="none" stroke="#63b8ff" d="M351.01,-313.79C361.45,-299.02 383.59,-270.47 409,-254.25 414.76,-250.57 421.16,-247.43 427.69,-244.76"/>
<polygon fill="#63b8ff" stroke="#63b8ff" points="428.82,-247.71 436.98,-240.95 426.39,-241.14 428.82,-247.71"/>
</a>
</g>
</g>
<!-- Node42 -->
<g id="Node000042" class="node">
<title>Node42</title>
<g id="a_Node000042"><a xlink:href="a02352.html#a3bbcb7c4c024e99d5c4ba52b61dfbbf7" target="_top" xlink:title=" ">
<polygon fill="white" stroke="#666666" points="898,-240.5 778.5,-240.5 778.5,-222 898,-222 898,-240.5"/>
<text text-anchor="middle" x="838.25" y="-227" font-family="Helvetica,sans-Serif" font-size="10.00">async_condition_unlock</text>
</a>
</g>
</g>
<!-- Node4&#45;&gt;Node42 -->
<g id="edge36_Node000004_Node000042" class="edge">
<title>Node4&#45;&gt;Node42</title>
<g id="a_edge36_Node000004_Node000042"><a xlink:title=" ">
<path fill="none" stroke="#63b8ff" d="M370.08,-313.61C413.85,-297.49 506.51,-265.36 587.75,-250.25 647.73,-239.1 716.99,-234.46 767.3,-232.55"/>
<polygon fill="#63b8ff" stroke="#63b8ff" points="767.19,-236.02 777.06,-232.17 766.94,-229.03 767.19,-236.02"/>
</a>
</g>
</g>
<!-- Node43 -->
<g id="Node000043" class="node">
<title>Node43</title>
<g id="a_Node000043"><a xlink:href="a02352.html#a1bfeaeb9b81855e640d7a67cc9d92b17" target="_top" xlink:title=" ">
<polygon fill="white" stroke="#666666" points="534.5,-203.5 426.25,-203.5 426.25,-185 534.5,-185 534.5,-203.5"/>
<text text-anchor="middle" x="480.38" y="-190" font-family="Helvetica,sans-Serif" font-size="10.00">async_condition_wait</text>
</a>
</g>
</g>
<!-- Node4&#45;&gt;Node43 -->
<g id="edge38_Node000004_Node000043" class="edge">
<title>Node4&#45;&gt;Node43</title>
<g id="a_edge38_Node000004_Node000043"><a xlink:title=" ">
<path fill="none" stroke="#63b8ff" d="M347.47,-313.62C354.32,-292.14 373.84,-240.12 409,-213.25 411.2,-211.57 413.54,-210.04 415.97,-208.64"/>
<polygon fill="#63b8ff" stroke="#63b8ff" points="417.3,-211.4 424.77,-203.9 414.25,-205.1 417.3,-211.4"/>
</a>
</g>
</g>
<!-- Node45 -->
<g id="Node000045" class="node">
<title>Node45</title>
<g id="a_Node000045"><a xlink:href="a02352.html#adbaa29dfccfdfe6e3fe69a1d001c05b5" target="_top" xlink:title=" ">
<polygon fill="white" stroke="#666666" points="725.62,-723.5 604.62,-723.5 604.62,-705 725.62,-705 725.62,-723.5"/>
<text text-anchor="middle" x="665.12" y="-710" font-family="Helvetica,sans-Serif" font-size="10.00">async_meta_init_always</text>
</a>
</g>
</g>
<!-- Node4&#45;&gt;Node45 -->
<g id="edge42_Node000004_Node000045" class="edge">
<title>Node4&#45;&gt;Node45</title>
<g id="a_edge42_Node000004_Node000045"><a xlink:title=" ">
<path fill="none" stroke="#63b8ff" d="M344.81,-332.96C346.01,-385.98 354.58,-640.01 409,-690.25 463.51,-740.57 555.25,-735.52 612.6,-725.88"/>
<polygon fill="#63b8ff" stroke="#63b8ff" points="613.01,-729.18 622.24,-723.97 611.78,-722.29 613.01,-729.18"/>
</a>
</g>
</g>
<!-- Node50 -->
<g id="Node000050" class="node">
<title>Node50</title>
<g id="a_Node000050"><a xlink:href="a01952.html#a1e8deff7c038efae14d1cc98e4ab109f" target="_top" xlink:title=" ">
<polygon fill="white" stroke="#666666" points="888.62,-685.5 787.88,-685.5 787.88,-667 888.62,-667 888.62,-685.5"/>
<text text-anchor="middle" x="838.25" y="-672" font-family="Helvetica,sans-Serif" font-size="10.00">utils_config_get_str</text>
</a>
</g>
</g>
<!-- Node4&#45;&gt;Node50 -->
<g id="edge62_Node000004_Node000050" class="edge">
<title>Node4&#45;&gt;Node50</title>
<g id="a_edge62_Node000004_Node000050"><a xlink:title=" ">
<path fill="none" stroke="#63b8ff" d="M344.47,-332.67C344.39,-367.28 348.62,-489.07 409,-559.25 501.6,-666.87 682.67,-680.19 776.95,-679.2"/>
<polygon fill="#63b8ff" stroke="#63b8ff" points="776.78,-682.69 786.72,-679.02 776.67,-675.69 776.78,-682.69"/>
</a>
</g>
</g>
<!-- Node51 -->
<g id="Node000051" class="node">
<title>Node51</title>
<g id="a_Node000051"><a xlink:href="a01955.html#ad8ca0aa2e50dbe9c1827c2d4da814cf6" target="_top" xlink:title=" ">
<polygon fill="white" stroke="#666666" points="519.88,-129.5 440.88,-129.5 440.88,-111 519.88,-111 519.88,-129.5"/>
<text text-anchor="middle" x="480.38" y="-116" font-family="Helvetica,sans-Serif" font-size="10.00">system_mmap</text>
</a>
</g>
</g>
<!-- Node4&#45;&gt;Node51 -->
<g id="edge52_Node000004_Node000051" class="edge">
<title>Node4&#45;&gt;Node51</title>
<g id="a_edge52_Node000004_Node000051"><a xlink:title=" ">
<path fill="none" stroke="#63b8ff" d="M344.99,-313.57C346.7,-283.12 356.2,-188.33 409,-139.25 414.99,-133.68 422.45,-129.71 430.25,-126.89"/>
<polygon fill="#63b8ff" stroke="#63b8ff" points="431.01,-130.01 439.6,-123.8 429.02,-123.3 431.01,-130.01"/>
</a>
</g>
</g>
<!-- Node52 -->
<g id="Node000052" class="node">
<title>Node52</title>
<g id="a_Node000052"><a xlink:href="a01955.html#a38809d11e47f180968c23903fed321ef" target="_top" xlink:title=" ">
<polygon fill="white" stroke="#666666" points="530,-92.5 430.75,-92.5 430.75,-74 530,-74 530,-92.5"/>
<text text-anchor="middle" x="480.38" y="-79" font-family="Helvetica,sans-Serif" font-size="10.00">system_process_id</text>
</a>
</g>
</g>
<!-- Node4&#45;&gt;Node52 -->
<g id="edge54_Node000004_Node000052" class="edge">
<title>Node4&#45;&gt;Node52</title>
<g id="a_edge54_Node000004_Node000052"><a xlink:title=" ">
<path fill="none" stroke="#63b8ff" d="M344.34,-313.65C343.88,-279.54 347.08,-162.96 409,-102.25 412.45,-98.87 416.43,-96.07 420.71,-93.77"/>
<polygon fill="#63b8ff" stroke="#63b8ff" points="421.75,-96.69 429.48,-89.45 418.92,-90.29 421.75,-96.69"/>
</a>
</g>
</g>
<!-- Node53 -->
<g id="Node000053" class="node">
<title>Node53</title>
<g id="a_Node000053"><a xlink:href="a01955.html#a54bd28e423e19877e5abcb1fe3d12c03" target="_top" xlink:title=" ">
<polygon fill="white" stroke="#666666" points="536.38,-55.5 424.38,-55.5 424.38,-37 536.38,-37 536.38,-55.5"/>
<text text-anchor="middle" x="480.38" y="-42" font-family="Helvetica,sans-Serif" font-size="10.00">system_total_memory</text>
</a>
</g>
</g>
<!-- Node4&#45;&gt;Node53 -->
<g id="edge55_Node000004_Node000053" class="edge">
<title>Node4&#45;&gt;Node53</title>
<g id="a_edge55_Node000004_Node000053"><a xlink:title=" ">
<path fill="none" stroke="#63b8ff" d="M345.73,-313.61C350.76,-271.25 372.87,-102.08 409,-65.25 410.73,-63.49 412.6,-61.88 414.59,-60.43"/>
<polygon fill="#63b8ff" stroke="#63b8ff" points="416.09,-63.01 422.92,-54.91 412.53,-56.98 416.09,-63.01"/>
</a>
</g>
</g>
<!-- Node54 -->
<g id="Node000054" class="node">
<title>Node54</title>
<g id="a_Node000054"><a xlink:href="a01952.html#a4a525d89ade920512dc65409bc8e85d8" target="_top" xlink:title=" ">
<polygon fill="white" stroke="#666666" points="891.62,-573.5 784.88,-573.5 784.88,-555 891.62,-555 891.62,-573.5"/>
<text text-anchor="middle" x="838.25" y="-560" font-family="Helvetica,sans-Serif" font-size="10.00">utils_config_get_size</text>
</a>
</g>
</g>
<!-- Node4&#45;&gt;Node54 -->
<g id="edge58_Node000004_Node000054" class="edge">
<title>Node4&#45;&gt;Node54</title>
<g id="a_edge58_Node000004_Node000054"><a xlink:title=" ">
<path fill="none" stroke="#63b8ff" d="M349.92,-332.89C359.92,-350.55 382.91,-388.68 409,-415.25 477.82,-485.34 495.55,-511.34 587.75,-545.25 648.27,-567.51 722.5,-570.34 774.18,-568.79"/>
<polygon fill="#63b8ff" stroke="#63b8ff" points="773.99,-572.27 783.85,-568.4 773.73,-565.27 773.99,-572.27"/>
</a>
</g>
</g>
<!-- Node34 -->
<g id="Node000034" class="node">
<title>Node34</title>
<g id="a_Node000034"><a xlink:href="a01952.html#a17713c8e9b90065e23b0ec1a225f79ab" target="_top" xlink:title=" ">
<polygon fill="white" stroke="#666666" points="539.75,-18.5 421,-18.5 421,0 539.75,0 539.75,-18.5"/>
<text text-anchor="middle" x="480.38" y="-5" font-family="Helvetica,sans-Serif" font-size="10.00">utils_config_get_source</text>
</a>
</g>
</g>
<!-- Node4&#45;&gt;Node34 -->
<g id="edge60_Node000004_Node000034" class="edge">
<title>Node4&#45;&gt;Node34</title>
<g id="a_edge60_Node000004_Node000034"><a xlink:title=" ">
<path fill="none" stroke="#63b8ff" d="M345.41,-313.51C349.34,-267.34 368.24,-71.05 409,-28.25 410.12,-27.08 411.3,-25.97 412.54,-24.93"/>
<polygon fill="#63b8ff" stroke="#63b8ff" points="414.05,-27.47 420.41,-18.99 410.15,-21.65 414.05,-27.47"/>
</a>
</g>
</g>
<!-- Node6 -->
<g id="Node000006" class="node">
<title>Node6</title>
<g id="a_Node000006"><a xlink:href="a01925.html#a078da9ec8e2f9a4470f10ee3059bd593" target="_top" xlink:title=" ">
<polygon fill="white" stroke="#666666" points="742.5,-835.5 587.75,-835.5 587.75,-817 742.5,-817 742.5,-835.5"/>
<text text-anchor="middle" x="665.12" y="-822" font-family="Helvetica,sans-Serif" font-size="10.00">arax_throttle_get_available_size</text>
</a>
</g>
</g>
<!-- Node5&#45;&gt;Node6 -->
<g id="edge5_Node000005_Node000006" class="edge">
<title>Node5&#45;&gt;Node6</title>
<g id="a_edge5_Node000005_Node000006"><a xlink:title=" ">
<path fill="none" stroke="#63b8ff" d="M552.03,-826.25C560.06,-826.25 568.32,-826.25 576.53,-826.25"/>
<polygon fill="#63b8ff" stroke="#63b8ff" points="576.29,-829.75 586.29,-826.25 576.29,-822.75 576.29,-829.75"/>
</a>
</g>
</g>
<!-- Node9 -->
<g id="Node000009" class="node">
<title>Node9</title>
<g id="a_Node000009"><a xlink:href="a01910.html#a86352ba91ba482c6688b7364d10bf956" target="_top" xlink:title=" ">
<polygon fill="white" stroke="#666666" points="719.62,-462.5 610.62,-462.5 610.62,-444 719.62,-444 719.62,-462.5"/>
<text text-anchor="middle" x="665.12" y="-449" font-family="Helvetica,sans-Serif" font-size="10.00">arax_object_repo_init</text>
</a>
</g>
</g>
<!-- Node8&#45;&gt;Node9 -->
<g id="edge8_Node000008_Node000009" class="edge">
<title>Node8&#45;&gt;Node9</title>
<g id="a_edge8_Node000008_Node000009"><a xlink:title=" ">
<path fill="none" stroke="#63b8ff" d="M512.54,-406.99C533.73,-413.6 562.42,-422.51 587.75,-430.25 598.69,-433.59 610.52,-437.17 621.53,-440.49"/>
<polygon fill="#63b8ff" stroke="#63b8ff" points="620.19,-444.04 630.78,-443.57 622.21,-437.34 620.19,-444.04"/>
</a>
</g>
</g>
<!-- Node10 -->
<g id="Node000010" class="node">
<title>Node10</title>
<g id="a_Node000010"><a xlink:href="a01946.html#ab36e49d2e694b1da49504a689ed48e4a" target="_top" xlink:title=" ">
<polygon fill="white" stroke="#666666" points="873.25,-499.5 803.25,-499.5 803.25,-481 873.25,-481 873.25,-499.5"/>
<text text-anchor="middle" x="838.25" y="-486" font-family="Helvetica,sans-Serif" font-size="10.00">utils_list_init</text>
</a>
</g>
</g>
<!-- Node8&#45;&gt;Node10 -->
<g id="edge32_Node000008_Node000010" class="edge">
<title>Node8&#45;&gt;Node10</title>
<g id="a_edge32_Node000008_Node000010"><a xlink:title=" ">
<path fill="none" stroke="#63b8ff" d="M491.19,-406.87C508.8,-423.45 547.69,-456.99 587.75,-471.25 656,-495.54 741.21,-496.25 792.32,-493.79"/>
<polygon fill="#63b8ff" stroke="#63b8ff" points="792.2,-497.24 802,-493.2 791.82,-490.25 792.2,-497.24"/>
</a>
</g>
</g>
<!-- Node12 -->
<g id="Node000012" class="node">
<title>Node12</title>
<g id="a_Node000012"><a xlink:href="a01913.html#a60dde947b05bc69599a6c7d92c38d088" target="_top" xlink:title=" ">
<polygon fill="white" stroke="#666666" points="724.88,-536.5 605.38,-536.5 605.38,-518 724.88,-518 724.88,-536.5"/>
<text text-anchor="middle" x="665.12" y="-523" font-family="Helvetica,sans-Serif" font-size="10.00">arax_pipe_add_process</text>
</a>
</g>
</g>
<!-- Node8&#45;&gt;Node12 -->
<g id="edge11_Node000008_Node000012" class="edge">
<title>Node8&#45;&gt;Node12</title>
<g id="a_edge11_Node000008_Node000012"><a xlink:title=" ">
<path fill="none" stroke="#63b8ff" d="M488.2,-406.81C503.57,-427.65 543.05,-477.43 587.75,-504.25 594.2,-508.12 601.35,-511.38 608.61,-514.12"/>
<polygon fill="#63b8ff" stroke="#63b8ff" points="606.94,-517.59 617.53,-517.54 609.22,-510.97 606.94,-517.59"/>
</a>
</g>
</g>
<!-- Node13 -->
<g id="Node000013" class="node">
<title>Node13</title>
<g id="a_Node000013"><a xlink:href="a01925.html#acf84ea82594c4dbe91cf602ee078e04d" target="_top" xlink:title=" ">
<polygon fill="white" stroke="#666666" points="709.5,-388.5 620.75,-388.5 620.75,-370 709.5,-370 709.5,-388.5"/>
<text text-anchor="middle" x="665.12" y="-375" font-family="Helvetica,sans-Serif" font-size="10.00">arax_throttle_init</text>
</a>
</g>
</g>
<!-- Node8&#45;&gt;Node13 -->
<g id="edge12_Node000008_Node000013" class="edge">
<title>Node8&#45;&gt;Node13</title>
<g id="a_edge12_Node000008_Node000013"><a xlink:title=" ">
<path fill="none" stroke="#63b8ff" d="M519.24,-393.52C545.38,-390.95 580.55,-387.48 609.69,-384.61"/>
<polygon fill="#63b8ff" stroke="#63b8ff" points="609.92,-388.01 619.53,-383.54 609.23,-381.04 609.92,-388.01"/>
</a>
</g>
</g>
<!-- Node14 -->
<g id="Node000014" class="node">
<title>Node14</title>
<g id="a_Node000014"><a xlink:href="a02352.html#ac7fbf1f43289d3e0e862b315f00e35e2" target="_top" xlink:title=" ">
<polygon fill="white" stroke="#666666" points="890.12,-388.5 786.38,-388.5 786.38,-370 890.12,-370 890.12,-388.5"/>
<text text-anchor="middle" x="838.25" y="-375" font-family="Helvetica,sans-Serif" font-size="10.00">async_condition_init</text>
</a>
</g>
</g>
<!-- Node8&#45;&gt;Node14 -->
<g id="edge21_Node000008_Node000014" class="edge">
<title>Node8&#45;&gt;Node14</title>
<g id="a_edge21_Node000008_Node000014"><a xlink:title=" ">
<path fill="none" stroke="#63b8ff" d="M519.1,-399.46C569.96,-401.94 663.29,-404.71 742.5,-397.25 756.31,-395.95 771.11,-393.61 784.8,-391.03"/>
<polygon fill="#63b8ff" stroke="#63b8ff" points="785.37,-394.29 794.51,-388.93 784.03,-387.42 785.37,-394.29"/>
</a>
</g>
</g>
<!-- Node20 -->
<g id="Node000020" class="node">
<title>Node20</title>
<g id="a_Node000020"><a xlink:href="a02343.html#a75bfaa5e934f1853fc8fd536ea469ad9" target="_top" xlink:title=" ">
<polygon fill="white" stroke="#666666" points="721.5,-351.5 608.75,-351.5 608.75,-333 721.5,-333 721.5,-351.5"/>
<text text-anchor="middle" x="665.12" y="-338" font-family="Helvetica,sans-Serif" font-size="10.00">arch_alloc_init_always</text>
</a>
</g>
</g>
<!-- Node8&#45;&gt;Node20 -->
<g id="edge18_Node000008_Node000020" class="edge">
<title>Node8&#45;&gt;Node20</title>
<g id="a_edge18_Node000008_Node000020"><a xlink:title=" ">
<path fill="none" stroke="#63b8ff" d="M507.85,-387.61C529.25,-379.98 560.25,-369.31 587.75,-361.25 595.5,-358.98 603.74,-356.74 611.84,-354.65"/>
<polygon fill="#63b8ff" stroke="#63b8ff" points="612.5,-357.84 621.34,-351.99 610.78,-351.05 612.5,-357.84"/>
</a>
</g>
</g>
<!-- Node21 -->
<g id="Node000021" class="node">
<title>Node21</title>
<g id="a_Node000021"><a xlink:href="a02343.html#a44fec37f87bcd49aaacc97696f9e0e7d" target="_top" xlink:title=" ">
<polygon fill="white" stroke="#666666" points="717.38,-314.5 612.88,-314.5 612.88,-296 717.38,-296 717.38,-314.5"/>
<text text-anchor="middle" x="665.12" y="-301" font-family="Helvetica,sans-Serif" font-size="10.00">arch_alloc_init_once</text>
</a>
</g>
</g>
<!-- Node8&#45;&gt;Node21 -->
<g id="edge19_Node000008_Node000021" class="edge">
<title>Node8&#45;&gt;Node21</title>
<g id="a_edge19_Node000008_Node000021"><a xlink:title=" ">
<path fill="none" stroke="#63b8ff" d="M492.36,-387.69C510.82,-372.13 549.75,-341.34 587.75,-324.25 592.97,-321.9 598.52,-319.82 604.16,-317.97"/>
<polygon fill="#63b8ff" stroke="#63b8ff" points="604.8,-321.13 613.36,-314.89 602.77,-314.43 604.8,-321.13"/>
</a>
</g>
</g>
<!-- Node23 -->
<g id="Node000023" class="node">
<title>Node23</title>
<g id="a_Node000023"><a xlink:href="a02352.html#ab2e422aab2fcfa562795beb2843e8019" target="_top" xlink:title=" ">
<polygon fill="white" stroke="#666666" points="721.5,-610.5 608.75,-610.5 608.75,-592 721.5,-592 721.5,-610.5"/>
<text text-anchor="middle" x="665.12" y="-597" font-family="Helvetica,sans-Serif" font-size="10.00">async_meta_init_once</text>
</a>
</g>
</g>
<!-- Node8&#45;&gt;Node23 -->
<g id="edge22_Node000008_Node000023" class="edge">
<title>Node8&#45;&gt;Node23</title>
<g id="a_edge22_Node000008_Node000023"><a xlink:title=" ">
<path fill="none" stroke="#63b8ff" d="M486.71,-406.68C500.95,-431.33 541.88,-498.94 587.75,-545.25 603.18,-560.82 623.25,-575.37 638.95,-585.73"/>
<polygon fill="#63b8ff" stroke="#63b8ff" points="636.77,-589.13 647.07,-591.61 640.57,-583.25 636.77,-589.13"/>
</a>
</g>
</g>
<!-- Node38 -->
<g id="Node000038" class="node">
<title>Node38</title>
<g id="a_Node000038"><a xlink:href="a01934.html#a2e86c7792c1e7e0e1bdf1fe1a25dcab0" target="_top" xlink:title=" ">
<polygon fill="white" stroke="#666666" points="699,-277.5 631.25,-277.5 631.25,-259 699,-259 699,-277.5"/>
<text text-anchor="middle" x="665.12" y="-264" font-family="Helvetica,sans-Serif" font-size="10.00">utils_kv_init</text>
</a>
</g>
</g>
<!-- Node8&#45;&gt;Node38 -->
<g id="edge31_Node000008_Node000038" class="edge">
<title>Node8&#45;&gt;Node38</title>
<g id="a_edge31_Node000008_Node000038"><a xlink:title=" ">
<path fill="none" stroke="#63b8ff" d="M487.81,-387.57C502.69,-366 541.72,-313.79 587.75,-287.25 597.71,-281.51 609.37,-277.49 620.54,-274.68"/>
<polygon fill="#63b8ff" stroke="#63b8ff" points="621.02,-277.93 630.02,-272.34 619.5,-271.1 621.02,-277.93"/>
</a>
</g>
</g>
<!-- Node9&#45;&gt;Node10 -->
<g id="edge9_Node000009_Node000010" class="edge">
<title>Node9&#45;&gt;Node10</title>
<g id="a_edge9_Node000009_Node000010"><a xlink:title=" ">
<path fill="none" stroke="#63b8ff" d="M711.09,-462.97C736.1,-468.38 767.15,-475.09 792.18,-480.5"/>
<polygon fill="#63b8ff" stroke="#63b8ff" points="791.34,-484.12 801.86,-482.81 792.82,-477.28 791.34,-484.12"/>
</a>
</g>
</g>
<!-- Node11 -->
<g id="Node000011" class="node">
<title>Node11</title>
<g id="a_Node000011"><a xlink:href="a01946.html#a63f2791c9b5c8e2fa15967cfafb7ccbb" target="_top" xlink:title=" ">
<polygon fill="white" stroke="#666666" points="1051.62,-499.5 955.38,-499.5 955.38,-481 1051.62,-481 1051.62,-499.5"/>
<text text-anchor="middle" x="1003.5" y="-486" font-family="Helvetica,sans-Serif" font-size="10.00">utils_list_node_init</text>
</a>
</g>
</g>
<!-- Node10&#45;&gt;Node11 -->
<g id="edge10_Node000010_Node000011" class="edge">
<title>Node10&#45;&gt;Node11</title>
<g id="a_edge10_Node000010_Node000011"><a xlink:title=" ">
<path fill="none" stroke="#63b8ff" d="M873.47,-490.25C893.89,-490.25 920.37,-490.25 944.02,-490.25"/>
<polygon fill="#63b8ff" stroke="#63b8ff" points="944.01,-493.75 954.01,-490.25 944.01,-486.75 944.01,-493.75"/>
</a>
</g>
</g>
<!-- Node13&#45;&gt;Node14 -->
<g id="edge13_Node000013_Node000014" class="edge">
<title>Node13&#45;&gt;Node14</title>
<g id="a_edge13_Node000013_Node000014"><a xlink:title=" ">
<path fill="none" stroke="#63b8ff" d="M709.75,-379.25C729.66,-379.25 753.59,-379.25 775.31,-379.25"/>
<polygon fill="#63b8ff" stroke="#63b8ff" points="775.11,-382.75 785.11,-379.25 775.11,-375.75 775.11,-382.75"/>
</a>
</g>
</g>
<!-- Node15 -->
<g id="Node000015" class="node">
<title>Node15</title>
<g id="a_Node000015"><a xlink:href="a02346.html#ad1d30ecbf6bff6457b680aa940281072" target="_top" xlink:title=" ">
<polygon fill="white" stroke="#666666" points="1073,-240.5 934,-240.5 934,-222 1073,-222 1073,-240.5"/>
<text text-anchor="middle" x="1003.5" y="-227" font-family="Helvetica,sans-Serif" font-size="10.00">async_completion_complete</text>
</a>
</g>
</g>
<!-- Node14&#45;&gt;Node15 -->
<g id="edge14_Node000014_Node000015" class="edge">
<title>Node14&#45;&gt;Node15</title>
<g id="a_edge14_Node000014_Node000015"><a xlink:title=" ">
<path fill="none" stroke="#63b8ff" d="M849.96,-369.54C877.3,-344.76 949.89,-278.95 984.13,-247.9"/>
<polygon fill="#63b8ff" stroke="#63b8ff" points="985.9,-251.11 990.96,-241.8 981.2,-245.93 985.9,-251.11"/>
</a>
</g>
</g>
<!-- Node16 -->
<g id="Node000016" class="node">
<title>Node16</title>
<g id="a_Node000016"><a xlink:href="a02346.html#ac728117d73179c279de49e01ae905dda" target="_top" xlink:title=" ">
<polygon fill="white" stroke="#666666" points="1059.5,-388.5 947.5,-388.5 947.5,-370 1059.5,-370 1059.5,-388.5"/>
<text text-anchor="middle" x="1003.5" y="-375" font-family="Helvetica,sans-Serif" font-size="10.00">async_completion_init</text>
</a>
</g>
</g>
<!-- Node14&#45;&gt;Node16 -->
<g id="edge15_Node000014_Node000016" class="edge">
<title>Node14&#45;&gt;Node16</title>
<g id="a_edge15_Node000014_Node000016"><a xlink:title=" ">
<path fill="none" stroke="#63b8ff" d="M890.46,-379.25C904.98,-379.25 921,-379.25 936.27,-379.25"/>
<polygon fill="#63b8ff" stroke="#63b8ff" points="936.23,-382.75 946.23,-379.25 936.23,-375.75 936.23,-382.75"/>
</a>
</g>
</g>
<!-- Node17 -->
<g id="Node000017" class="node">
<title>Node17</title>
<g id="a_Node000017"><a xlink:href="a02349.html#a3bbcb7c4c024e99d5c4ba52b61dfbbf7" target="_top" xlink:title=" ">
<polygon fill="#fff0f0" stroke="red" points="1063.25,-351.5 943.75,-351.5 943.75,-333 1063.25,-333 1063.25,-351.5"/>
<text text-anchor="middle" x="1003.5" y="-338" font-family="Helvetica,sans-Serif" font-size="10.00">async_condition_unlock</text>
</a>
</g>
</g>
<!-- Node14&#45;&gt;Node17 -->
<g id="edge16_Node000014_Node000017" class="edge">
<title>Node14&#45;&gt;Node17</title>
<g id="a_edge16_Node000014_Node000017"><a xlink:title=" ">
<path fill="none" stroke="#63b8ff" d="M882.14,-369.53C902.59,-364.89 927.26,-359.3 948.92,-354.39"/>
<polygon fill="#63b8ff" stroke="#63b8ff" points="949.63,-357.59 958.61,-351.97 948.09,-350.77 949.63,-357.59"/>
</a>
</g>
</g>
<!-- Node19 -->
<g id="Node000019" class="node">
<title>Node19</title>
<g id="a_Node000019"><a xlink:href="a02346.html#a2a7d01fc7720e936a430efc09d094c6c" target="_top" xlink:title=" ">
<polygon fill="white" stroke="#666666" points="1059.88,-425.5 947.12,-425.5 947.12,-407 1059.88,-407 1059.88,-425.5"/>
<text text-anchor="middle" x="1003.5" y="-412" font-family="Helvetica,sans-Serif" font-size="10.00">async_semaphore_init</text>
</a>
</g>
</g>
<!-- Node14&#45;&gt;Node19 -->
<g id="edge17_Node000014_Node000019" class="edge">
<title>Node14&#45;&gt;Node19</title>
<g id="a_edge17_Node000014_Node000019"><a xlink:title=" ">
<path fill="none" stroke="#63b8ff" d="M882.14,-388.97C902.59,-393.61 927.26,-399.2 948.92,-404.11"/>
<polygon fill="#63b8ff" stroke="#63b8ff" points="948.09,-407.73 958.61,-406.53 949.63,-400.91 948.09,-407.73"/>
</a>
</g>
</g>
<!-- Node22 -->
<g id="Node000022" class="node">
<title>Node22</title>
<g id="a_Node000022"><a xlink:href="a01943.html#a6699a24a46fb1be57ca21abf8bc61928" target="_top" xlink:title=" ">
<polygon fill="white" stroke="#666666" points="881.5,-314.5 795,-314.5 795,-296 881.5,-296 881.5,-314.5"/>
<text text-anchor="middle" x="838.25" y="-301" font-family="Helvetica,sans-Serif" font-size="10.00">utils_bitmap_init</text>
</a>
</g>
</g>
<!-- Node21&#45;&gt;Node22 -->
<g id="edge20_Node000021_Node000022" class="edge">
<title>Node21&#45;&gt;Node22</title>
<g id="a_edge20_Node000021_Node000022"><a xlink:title=" ">
<path fill="none" stroke="#63b8ff" d="M717.47,-305.25C738.43,-305.25 762.67,-305.25 783.83,-305.25"/>
<polygon fill="#63b8ff" stroke="#63b8ff" points="783.59,-308.75 793.59,-305.25 783.59,-301.75 783.59,-308.75"/>
</a>
</g>
</g>
<!-- Node23&#45;&gt;Node10 -->
<g id="edge30_Node000023_Node000010" class="edge">
<title>Node23&#45;&gt;Node10</title>
<g id="a_edge30_Node000023_Node000010"><a xlink:title=" ">
<path fill="none" stroke="#63b8ff" d="M681.01,-591.59C710.72,-572.32 777.59,-528.95 813.45,-505.69"/>
<polygon fill="#63b8ff" stroke="#63b8ff" points="814.79,-508.34 821.28,-499.96 810.98,-502.47 814.79,-508.34"/>
</a>
</g>
</g>
<!-- Node23&#45;&gt;Node24 -->
<g id="edge23_Node000023_Node000024" class="edge">
<title>Node23&#45;&gt;Node24</title>
<g id="a_edge23_Node000023_Node000024"><a xlink:title=" ">
<path fill="none" stroke="#63b8ff" d="M673.77,-610.75C696.89,-639.39 765.28,-723.45 778.5,-732.25 781.22,-734.06 784.13,-735.71 787.14,-737.21"/>
<polygon fill="#63b8ff" stroke="#63b8ff" points="785.44,-740.73 796.01,-741.52 788.24,-734.31 785.44,-740.73"/>
</a>
</g>
</g>
<!-- Node26 -->
<g id="Node000026" class="node">
<title>Node26</title>
<g id="a_Node000026"><a xlink:href="a01952.html#a84f3886cdcb91a28bf13b07aae8b2285" target="_top" xlink:title=" ">
<polygon fill="white" stroke="#666666" points="893.88,-648.5 782.62,-648.5 782.62,-630 893.88,-630 893.88,-648.5"/>
<text text-anchor="middle" x="838.25" y="-635" font-family="Helvetica,sans-Serif" font-size="10.00">utils_config_free_path</text>
</a>
</g>
</g>
<!-- Node23&#45;&gt;Node26 -->
<g id="edge25_Node000023_Node000026" class="edge">
<title>Node23&#45;&gt;Node26</title>
<g id="a_edge25_Node000023_Node000026"><a xlink:title=" ">
<path fill="none" stroke="#63b8ff" d="M709.75,-610.94C731.99,-615.88 759.25,-621.93 782.85,-627.17"/>
<polygon fill="#63b8ff" stroke="#63b8ff" points="781.89,-630.76 792.41,-629.51 783.4,-623.93 781.89,-630.76"/>
</a>
</g>
</g>
<!-- Node23&#45;&gt;Node27 -->
<g id="edge26_Node000023_Node000027" class="edge">
<title>Node23&#45;&gt;Node27</title>
<g id="a_edge26_Node000023_Node000027"><a xlink:title=" ">
<path fill="none" stroke="#63b8ff" d="M721.68,-601.25C738.1,-601.25 756.19,-601.25 773.1,-601.25"/>
<polygon fill="#63b8ff" stroke="#63b8ff" points="773.01,-604.75 783.01,-601.25 773.01,-597.75 773.01,-604.75"/>
</a>
</g>
</g>
<!-- Node25 -->
<g id="Node000025" class="node">
<title>Node25</title>
<g id="a_Node000025"><a xlink:href="a01955.html#a0844807fe9679a9a5fbf1bfc9dd78dc6" target="_top" xlink:title=" ">
<polygon fill="white" stroke="#666666" points="1053.5,-832.5 953.5,-832.5 953.5,-814 1053.5,-814 1053.5,-832.5"/>
<text text-anchor="middle" x="1003.5" y="-819" font-family="Helvetica,sans-Serif" font-size="10.00">system_home_path</text>
</a>
</g>
</g>
<!-- Node24&#45;&gt;Node25 -->
<g id="edge24_Node000024_Node000025" class="edge">
<title>Node24&#45;&gt;Node25</title>
<g id="a_edge24_Node000024_Node000025"><a xlink:title=" ">
<path fill="none" stroke="#63b8ff" d="M853.79,-760.84C871.93,-772.46 904.19,-791.99 934,-804.25 939.42,-806.48 945.19,-808.54 950.99,-810.41"/>
<polygon fill="#63b8ff" stroke="#63b8ff" points="949.81,-814.01 960.39,-813.57 951.84,-807.31 949.81,-814.01"/>
</a>
</g>
</g>
<!-- Node28 -->
<g id="Node000028" class="node">
<title>Node28</title>
<g id="a_Node000028"><a xlink:href="a01952.html#a336fa8eefc3d744aa7248d6786cfee03" target="_top" xlink:title=" ">
<polygon fill="white" stroke="#666666" points="1053.5,-610.5 953.5,-610.5 953.5,-592 1053.5,-592 1053.5,-610.5"/>
<text text-anchor="middle" x="1003.5" y="-597" font-family="Helvetica,sans-Serif" font-size="10.00">utils_config_get_int</text>
</a>
</g>
</g>
<!-- Node27&#45;&gt;Node28 -->
<g id="edge27_Node000027_Node000028" class="edge">
<title>Node27&#45;&gt;Node28</title>
<g id="a_edge27_Node000027_Node000028"><a xlink:title=" ">
<path fill="none" stroke="#63b8ff" d="M892.25,-601.25C908.29,-601.25 926.02,-601.25 942.48,-601.25"/>
<polygon fill="#63b8ff" stroke="#63b8ff" points="942.09,-604.75 952.09,-601.25 942.09,-597.75 942.09,-604.75"/>
</a>
</g>
</g>
<!-- Node29 -->
<g id="Node000029" class="node">
<title>Node29</title>
<g id="a_Node000029"><a xlink:href="a01952.html#a1a28ba7c7791236d03b1fa9f81aa6a71" target="_top" xlink:title=" ">
<polygon fill="#fff0f0" stroke="red" points="1216.5,-610.5 1109,-610.5 1109,-592 1216.5,-592 1216.5,-610.5"/>
<text text-anchor="middle" x="1162.75" y="-597" font-family="Helvetica,sans-Serif" font-size="10.00">utils_config_get_long</text>
</a>
</g>
</g>
<!-- Node28&#45;&gt;Node29 -->
<g id="edge28_Node000028_Node000029" class="edge">
<title>Node28&#45;&gt;Node29</title>
<g id="a_edge28_Node000028_Node000029"><a xlink:title=" ">
<path fill="none" stroke="#63b8ff" d="M1053.82,-601.25C1067.68,-601.25 1082.94,-601.25 1097.53,-601.25"/>
<polygon fill="#63b8ff" stroke="#63b8ff" points="1097.51,-604.75 1107.51,-601.25 1097.51,-597.75 1097.51,-604.75"/>
</a>
</g>
</g>
<!-- Node30 -->
<g id="Node000030" class="node">
<title>Node30</title>
<g id="a_Node000030"><a xlink:href="a01952.html#a0738274ac3fd171eda6bfb42492bc0d7" target="_top" xlink:title=" ">
<polygon fill="#fff0f0" stroke="red" points="1358.5,-647.5 1252.5,-647.5 1252.5,-629 1358.5,-629 1358.5,-647.5"/>
<text text-anchor="middle" x="1305.5" y="-634" font-family="Helvetica,sans-Serif" font-size="10.00">_utils_config_get_str</text>
</a>
</g>
</g>
<!-- Node29&#45;&gt;Node30 -->
<g id="edge29_Node000029_Node000030" class="edge">
<title>Node29&#45;&gt;Node30</title>
<g id="a_edge29_Node000029_Node000030"><a xlink:title=" ">
<path fill="none" stroke="#63b8ff" d="M1200.73,-610.97C1218.02,-615.52 1238.82,-620.98 1257.24,-625.83"/>
<polygon fill="#63b8ff" stroke="#63b8ff" points="1256.21,-629.44 1266.77,-628.59 1257.99,-622.67 1256.21,-629.44"/>
</a>
</g>
</g>
<!-- Node41 -->
<g id="Node000041" class="node">
<title>Node41</title>
<g id="a_Node000041"><a xlink:href="a02346.html#aebf9e72bb6cbd8b9e33489d46c25075d" target="_top" xlink:title=" ">
<polygon fill="white" stroke="#666666" points="723.38,-203.5 606.88,-203.5 606.88,-185 723.38,-185 723.38,-203.5"/>
<text text-anchor="middle" x="665.12" y="-190" font-family="Helvetica,sans-Serif" font-size="10.00">async_completion_wait</text>
</a>
</g>
</g>
<!-- Node40&#45;&gt;Node41 -->
<g id="edge35_Node000040_Node000041" class="edge">
<title>Node40&#45;&gt;Node41</title>
<g id="a_edge35_Node000040_Node000041"><a xlink:title=" ">
<path fill="none" stroke="#63b8ff" d="M529.39,-221.53C552.7,-216.81 580.9,-211.1 605.47,-206.12"/>
<polygon fill="#63b8ff" stroke="#63b8ff" points="606.01,-209.39 615.11,-203.97 604.62,-202.52 606.01,-209.39"/>
</a>
</g>
</g>
<!-- Node42&#45;&gt;Node15 -->
<g id="edge37_Node000042_Node000015" class="edge">
<title>Node42&#45;&gt;Node15</title>
<g id="a_edge37_Node000042_Node000015"><a xlink:title=" ">
<path fill="none" stroke="#63b8ff" d="M898.19,-231.25C906.19,-231.25 914.51,-231.25 922.8,-231.25"/>
<polygon fill="#63b8ff" stroke="#63b8ff" points="922.65,-234.75 932.65,-231.25 922.65,-227.75 922.65,-234.75"/>
</a>
</g>
</g>
<!-- Node43&#45;&gt;Node15 -->
<g id="edge39_Node000043_Node000015" class="edge">
<title>Node43&#45;&gt;Node15</title>
<g id="a_edge39_Node000043_Node000015"><a xlink:title=" ">
<path fill="none" stroke="#63b8ff" d="M530.41,-184.58C537.82,-182.12 545.18,-179.05 551.75,-175.25 571.34,-163.92 566.84,-147.91 587.75,-139.25 651.29,-112.93 674.71,-127.61 742.5,-139.25 829.15,-154.13 925.25,-194.99 972.68,-216.91"/>
<polygon fill="#63b8ff" stroke="#63b8ff" points="971.03,-220.47 981.57,-221.54 974,-214.13 971.03,-220.47"/>
</a>
</g>
</g>
<!-- Node43&#45;&gt;Node41 -->
<g id="edge40_Node000043_Node000041" class="edge">
<title>Node43&#45;&gt;Node41</title>
<g id="a_edge40_Node000043_Node000041"><a xlink:title=" ">
<path fill="none" stroke="#63b8ff" d="M534.73,-194.25C553.75,-194.25 575.45,-194.25 595.57,-194.25"/>
<polygon fill="#63b8ff" stroke="#63b8ff" points="595.56,-197.75 605.56,-194.25 595.56,-190.75 595.56,-197.75"/>
</a>
</g>
</g>
<!-- Node44 -->
<g id="Node000044" class="node">
<title>Node44</title>
<g id="a_Node000044"><a xlink:href="a02346.html#a7ab7c7fe9cb93434dde72a4e464a7e69" target="_top" xlink:title=" ">
<polygon fill="white" stroke="#666666" points="723,-166.5 607.25,-166.5 607.25,-148 723,-148 723,-166.5"/>
<text text-anchor="middle" x="665.12" y="-153" font-family="Helvetica,sans-Serif" font-size="10.00">async_semaphore_dec</text>
</a>
</g>
</g>
<!-- Node43&#45;&gt;Node44 -->
<g id="edge41_Node000043_Node000044" class="edge">
<title>Node43&#45;&gt;Node44</title>
<g id="a_edge41_Node000043_Node000044"><a xlink:title=" ">
<path fill="none" stroke="#63b8ff" d="M529.39,-184.53C552.7,-179.81 580.9,-174.1 605.47,-169.12"/>
<polygon fill="#63b8ff" stroke="#63b8ff" points="606.01,-172.39 615.11,-166.97 604.62,-165.52 606.01,-172.39"/>
</a>
</g>
</g>
<!-- Node45&#45;&gt;Node24 -->
<g id="edge47_Node000045_Node000024" class="edge">
<title>Node45&#45;&gt;Node24</title>
<g id="a_edge47_Node000045_Node000024"><a xlink:title=" ">
<path fill="none" stroke="#63b8ff" d="M711.09,-723.97C732.71,-728.65 758.85,-734.3 781.71,-739.24"/>
<polygon fill="#63b8ff" stroke="#63b8ff" points="780.78,-742.84 791.29,-741.53 782.26,-736 780.78,-742.84"/>
</a>
</g>
</g>
<!-- Node45&#45;&gt;Node26 -->
<g id="edge48_Node000045_Node000026" class="edge">
<title>Node45&#45;&gt;Node26</title>
<g id="a_edge48_Node000045_Node000026"><a xlink:title=" ">
<path fill="none" stroke="#63b8ff" d="M683.27,-704.7C704.99,-692.83 743.79,-672.42 778.5,-658.25 783.52,-656.2 788.85,-654.22 794.17,-652.36"/>
<polygon fill="#63b8ff" stroke="#63b8ff" points="794.95,-655.45 803.31,-648.95 792.71,-648.82 794.95,-655.45"/>
</a>
</g>
</g>
<!-- Node46 -->
<g id="Node000046" class="node">
<title>Node46</title>
<g id="a_Node000046"><a xlink:href="a02346.html#ab2195e0b081f467f8e058d1406bd4fc7" target="_top" xlink:title=" ">
<polygon fill="white" stroke="#666666" points="875.12,-723.5 801.38,-723.5 801.38,-705 875.12,-705 875.12,-723.5"/>
<text text-anchor="middle" x="838.25" y="-710" font-family="Helvetica,sans-Serif" font-size="10.00">async_thread</text>
</a>
</g>
</g>
<!-- Node45&#45;&gt;Node46 -->
<g id="edge43_Node000045_Node000046" class="edge">
<title>Node45&#45;&gt;Node46</title>
<g id="a_edge43_Node000045_Node000046"><a xlink:title=" ">
<path fill="none" stroke="#63b8ff" d="M725.98,-714.25C746.94,-714.25 770.18,-714.25 789.97,-714.25"/>
<polygon fill="#63b8ff" stroke="#63b8ff" points="789.88,-717.75 799.88,-714.25 789.88,-710.75 789.88,-717.75"/>
</a>
</g>
</g>
<!-- Node45&#45;&gt;Node50 -->
<g id="edge49_Node000045_Node000050" class="edge">
<title>Node45&#45;&gt;Node50</title>
<g id="a_edge49_Node000045_Node000050"><a xlink:title=" ">
<path fill="none" stroke="#63b8ff" d="M709.75,-704.56C731.99,-699.62 759.25,-693.57 782.85,-688.33"/>
<polygon fill="#63b8ff" stroke="#63b8ff" points="783.4,-691.57 792.41,-685.99 781.89,-684.74 783.4,-691.57"/>
</a>
</g>
</g>
<!-- Node47 -->
<g id="Node000047" class="node">
<title>Node47</title>
<g id="a_Node000047"><a xlink:href="a02346.html#ae66ae81847153386c57918f4d91be8a7" target="_top" xlink:title=" ">
<polygon fill="white" stroke="#666666" points="1066.25,-758.5 940.75,-758.5 940.75,-740 1066.25,-740 1066.25,-758.5"/>
<text text-anchor="middle" x="1003.5" y="-745" font-family="Helvetica,sans-Serif" font-size="10.00">async_completion_check</text>
</a>
</g>
</g>
<!-- Node46&#45;&gt;Node47 -->
<g id="edge44_Node000046_Node000047" class="edge">
<title>Node46&#45;&gt;Node47</title>
<g id="a_edge44_Node000046_Node000047"><a xlink:title=" ">
<path fill="none" stroke="#63b8ff" d="M875.48,-722.02C896.33,-726.49 922.98,-732.2 946.48,-737.24"/>
<polygon fill="#63b8ff" stroke="#63b8ff" points="945.51,-740.83 956.03,-739.5 946.98,-733.98 945.51,-740.83"/>
</a>
</g>
</g>
<!-- Node48 -->
<g id="Node000048" class="node">
<title>Node48</title>
<g id="a_Node000048"><a xlink:href="a02346.html#a49083e8ceb4bfe7793ca1a5a799834d0" target="_top" xlink:title=" ">
<polygon fill="white" stroke="#666666" points="1031,-721.5 976,-721.5 976,-703 1031,-703 1031,-721.5"/>
<text text-anchor="middle" x="1003.5" y="-708" font-family="Helvetica,sans-Serif" font-size="10.00">getVmID</text>
</a>
</g>
</g>
<!-- Node46&#45;&gt;Node48 -->
<g id="edge45_Node000046_Node000048" class="edge">
<title>Node46&#45;&gt;Node48</title>
<g id="a_edge45_Node000046_Node000048"><a xlink:title=" ">
<path fill="none" stroke="#63b8ff" d="M875.48,-713.81C901.95,-713.48 937.75,-713.04 964.6,-712.71"/>
<polygon fill="#63b8ff" stroke="#63b8ff" points="964.55,-716.2 974.5,-712.58 964.46,-709.2 964.55,-716.2"/>
</a>
</g>
</g>
<!-- Node49 -->
<g id="Node000049" class="node">
<title>Node49</title>
<g id="a_Node000049"><a xlink:href="a01946.html#a0c85e5516222ab7e7fc354c614760ec5" target="_top" xlink:title=" ">
<polygon fill="white" stroke="#666666" points="1038.5,-795.5 968.5,-795.5 968.5,-777 1038.5,-777 1038.5,-795.5"/>
<text text-anchor="middle" x="1003.5" y="-782" font-family="Helvetica,sans-Serif" font-size="10.00">utils_list_del</text>
</a>
</g>
</g>
<!-- Node46&#45;&gt;Node49 -->
<g id="edge46_Node000046_Node000049" class="edge">
<title>Node46&#45;&gt;Node49</title>
<g id="a_edge46_Node000046_Node000049"><a xlink:title=" ">
<path fill="none" stroke="#63b8ff" d="M875.45,-723.17C883.18,-725.82 891.08,-729.15 898,-733.25 916.93,-744.47 914.83,-756.44 934,-767.25 941.25,-771.34 949.43,-774.59 957.56,-777.17"/>
<polygon fill="#63b8ff" stroke="#63b8ff" points="956.54,-780.8 967.12,-780.17 958.46,-774.07 956.54,-780.8"/>
</a>
</g>
</g>
<!-- Node50&#45;&gt;Node30 -->
<g id="edge50_Node000050_Node000030" class="edge">
<title>Node50&#45;&gt;Node30</title>
<g id="a_edge50_Node000050_Node000030"><a xlink:title=" ">
<path fill="none" stroke="#63b8ff" d="M889.04,-672.18C974.27,-665.22 1147.98,-651.03 1241.51,-643.39"/>
<polygon fill="#63b8ff" stroke="#63b8ff" points="1241.55,-646.82 1251.23,-642.52 1240.98,-639.84 1241.55,-646.82"/>
</a>
</g>
</g>
<!-- Node36 -->
<g id="Node000036" class="node">
<title>Node36</title>
<g id="a_Node000036"><a xlink:href="a01952.html#a4b9cd8f5d0c205ac6c1fd30f77cbf539" target="_top" xlink:title=" ">
<polygon fill="#fff0f0" stroke="red" points="1057.62,-647.5 949.38,-647.5 949.38,-629 1057.62,-629 1057.62,-647.5"/>
<text text-anchor="middle" x="1003.5" y="-634" font-family="Helvetica,sans-Serif" font-size="10.00">utils_config_write_str</text>
</a>
</g>
</g>
<!-- Node50&#45;&gt;Node36 -->
<g id="edge51_Node000050_Node000036" class="edge">
<title>Node50&#45;&gt;Node36</title>
<g id="a_edge51_Node000050_Node000036"><a xlink:title=" ">
<path fill="none" stroke="#63b8ff" d="M880.87,-666.56C901.89,-661.67 927.63,-655.68 950,-650.47"/>
<polygon fill="#63b8ff" stroke="#63b8ff" points="950.73,-653.66 959.68,-647.99 949.14,-646.84 950.73,-653.66"/>
</a>
</g>
</g>
<!-- Node33 -->
<g id="Node000033" class="node">
<title>Node33</title>
<g id="a_Node000033"><a xlink:href="a01955.html#a86c3bfbf6daaf8172e131aa23dc7393c" target="_top" xlink:title=" ">
<polygon fill="white" stroke="#666666" points="708.75,-92.5 621.5,-92.5 621.5,-74 708.75,-74 708.75,-92.5"/>
<text text-anchor="middle" x="665.12" y="-79" font-family="Helvetica,sans-Serif" font-size="10.00">system_file_size</text>
</a>
</g>
</g>
<!-- Node51&#45;&gt;Node33 -->
<g id="edge53_Node000051_Node000033" class="edge">
<title>Node51&#45;&gt;Node33</title>
<g id="a_edge53_Node000051_Node000033"><a xlink:title=" ">
<path fill="none" stroke="#63b8ff" d="M520.13,-112.4C546.42,-107.08 581.53,-99.97 610.5,-94.11"/>
<polygon fill="#63b8ff" stroke="#63b8ff" points="611.16,-97.34 620.27,-91.93 609.78,-90.48 611.16,-97.34"/>
</a>
</g>
</g>
<!-- Node54&#45;&gt;Node29 -->
<g id="edge59_Node000054_Node000029" class="edge">
<title>Node54&#45;&gt;Node29</title>
<g id="a_edge59_Node000054_Node000029"><a xlink:title=" ">
<path fill="none" stroke="#63b8ff" d="M891.9,-566.74C939.41,-569.41 1011.12,-574.49 1073,-583.25 1084.56,-584.89 1096.88,-587.09 1108.55,-589.39"/>
<polygon fill="#63b8ff" stroke="#63b8ff" points="1107.55,-592.96 1118.04,-591.52 1108.94,-586.1 1107.55,-592.96"/>
</a>
</g>
</g>
<!-- Node32 -->
<g id="Node000032" class="node">
<title>Node32</title>
<g id="a_Node000032"><a xlink:href="a01955.html#acde493d3889d6f207d1e122cf4bb1b8c" target="_top" xlink:title=" ">
<polygon fill="white" stroke="#666666" points="708,-18.5 622.25,-18.5 622.25,0 708,0 708,-18.5"/>
<text text-anchor="middle" x="665.12" y="-5" font-family="Helvetica,sans-Serif" font-size="10.00">system_env_var</text>
</a>
</g>
</g>
<!-- Node34&#45;&gt;Node32 -->
<g id="edge61_Node000034_Node000032" class="edge">
<title>Node34&#45;&gt;Node32</title>
<g id="a_edge61_Node000034_Node000032"><a xlink:title=" ">
<path fill="none" stroke="#63b8ff" d="M540.2,-9.25C562.97,-9.25 588.83,-9.25 611.01,-9.25"/>
<polygon fill="#63b8ff" stroke="#63b8ff" points="610.91,-12.75 620.91,-9.25 610.91,-5.75 610.91,-12.75"/>
</a>
</g>
</g>
</g>
</svg>
