<?xml version="1.0" encoding="UTF-8" standalone="no"?>
<!DOCTYPE svg PUBLIC "-//W3C//DTD SVG 1.1//EN"
 "http://www.w3.org/Graphics/SVG/1.1/DTD/svg11.dtd">
<!-- Generated by graphviz version 12.2.1 (0)
 -->
<!-- Title: async_semaphore_dec Pages: 1 -->
<svg width="1331pt" height="440pt"
 viewBox="0.00 0.00 1331.00 439.75" xmlns="http://www.w3.org/2000/svg" xmlns:xlink="http://www.w3.org/1999/xlink">
<g id="graph0" class="graph" transform="scale(1 1) rotate(0) translate(4 435.75)">
<title>async_semaphore_dec</title>
<!-- Node1 -->
<g id="Node000001" class="node">
<title>Node1</title>
<g id="a_Node000001"><a xlink:title=" ">
<polygon fill="#999999" stroke="#666666" points="1323,-327.5 1207.25,-327.5 1207.25,-309 1323,-309 1323,-327.5"/>
<text text-anchor="middle" x="1265.12" y="-314" font-family="Helvetica,sans-Serif" font-size="10.00">async_semaphore_dec</text>
</a>
</g>
</g>
<!-- Node2 -->
<g id="Node000002" class="node">
<title>Node2</title>
<g id="a_Node000002"><a xlink:href="a02364.html#a1bfeaeb9b81855e640d7a67cc9d92b17" target="_top" xlink:title=" ">
<polygon fill="white" stroke="#666666" points="1171.25,-327.5 1063,-327.5 1063,-309 1171.25,-309 1171.25,-327.5"/>
<text text-anchor="middle" x="1117.12" y="-314" font-family="Helvetica,sans-Serif" font-size="10.00">async_condition_wait</text>
</a>
</g>
</g>
<!-- Node1&#45;&gt;Node2 -->
<g id="edge1_Node000001_Node000002" class="edge">
<title>Node1&#45;&gt;Node2</title>
<g id="a_edge1_Node000001_Node000002"><a xlink:title=" ">
<path fill="none" stroke="#63b8ff" d="M1195.5,-318.25C1187.42,-318.25 1179.26,-318.25 1171.43,-318.25"/>
<polygon fill="#63b8ff" stroke="#63b8ff" points="1195.33,-321.75 1205.33,-318.25 1195.33,-314.75 1195.33,-321.75"/>
</a>
</g>
</g>
<!-- Node3 -->
<g id="Node000003" class="node">
<title>Node3</title>
<g id="a_Node000003"><a xlink:href="a01910.html#a02fd608f651d254148dc74f0ae371dfe" target="_top" xlink:title=" ">
<polygon fill="white" stroke="#666666" points="992.88,-385.5 934.12,-385.5 934.12,-367 992.88,-367 992.88,-385.5"/>
<text text-anchor="middle" x="963.5" y="-372" font-family="Helvetica,sans-Serif" font-size="10.00">_arax_init</text>
</a>
</g>
</g>
<!-- Node2&#45;&gt;Node3 -->
<g id="edge2_Node000002_Node000003" class="edge">
<title>Node2&#45;&gt;Node3</title>
<g id="a_edge2_Node000002_Node000003"><a xlink:title=" ">
<path fill="none" stroke="#63b8ff" d="M1085.43,-332.75C1068.41,-340.51 1046.75,-349.95 1027,-357.25 1016.15,-361.26 1004.02,-365.09 993.36,-368.25"/>
<polygon fill="#63b8ff" stroke="#63b8ff" points="1086.89,-335.93 1094.5,-328.56 1083.95,-329.57 1086.89,-335.93"/>
</a>
</g>
</g>
<!-- Node11 -->
<g id="Node000011" class="node">
<title>Node11</title>
<g id="a_Node000011"><a xlink:href="a01916.html#a415e79d6e82e45f24bcd1742c146a0da" target="_top" xlink:title=" ">
<polygon fill="white" stroke="#666666" points="1027,-348.5 900,-348.5 900,-330 1027,-330 1027,-348.5"/>
<text text-anchor="middle" x="963.5" y="-335" font-family="Helvetica,sans-Serif" font-size="10.00">arax_accel_wait_for_task</text>
</a>
</g>
</g>
<!-- Node2&#45;&gt;Node11 -->
<g id="edge12_Node000002_Node000011" class="edge">
<title>Node2&#45;&gt;Node11</title>
<g id="a_edge12_Node000002_Node000011"><a xlink:title=" ">
<path fill="none" stroke="#63b8ff" d="M1051.5,-327.2C1043.49,-328.31 1035.31,-329.44 1027.33,-330.55"/>
<polygon fill="#63b8ff" stroke="#63b8ff" points="1051.74,-330.7 1061.17,-325.86 1050.78,-323.77 1051.74,-330.7"/>
</a>
</g>
</g>
<!-- Node12 -->
<g id="Node000012" class="node">
<title>Node12</title>
<g id="a_Node000012"><a xlink:href="a01928.html#a8ff14a859f9b7a34676c2fcdb762386b" target="_top" xlink:title=" ">
<polygon fill="white" stroke="#666666" points="1019.88,-311.75 907.12,-311.75 907.12,-282.75 1019.88,-282.75 1019.88,-311.75"/>
<text text-anchor="start" x="915.12" y="-298.25" font-family="Helvetica,sans-Serif" font-size="10.00">arax_pipe_get_orphan</text>
<text text-anchor="middle" x="963.5" y="-287.75" font-family="Helvetica,sans-Serif" font-size="10.00">_vaccel</text>
</a>
</g>
</g>
<!-- Node2&#45;&gt;Node12 -->
<g id="edge13_Node000002_Node000012" class="edge">
<title>Node2&#45;&gt;Node12</title>
<g id="a_edge13_Node000002_Node000012"><a xlink:title=" ">
<path fill="none" stroke="#63b8ff" d="M1051.54,-309.3C1041.15,-307.87 1030.46,-306.39 1020.3,-304.98"/>
<polygon fill="#63b8ff" stroke="#63b8ff" points="1050.78,-312.73 1061.17,-310.64 1051.74,-305.8 1050.78,-312.73"/>
</a>
</g>
</g>
<!-- Node13 -->
<g id="Node000013" class="node">
<title>Node13</title>
<g id="a_Node000013"><a xlink:href="a01940.html#a63b80783cfb3106ec4169ce082f153c0" target="_top" xlink:title=" ">
<polygon fill="white" stroke="#666666" points="1020.62,-246.5 906.38,-246.5 906.38,-228 1020.62,-228 1020.62,-246.5"/>
<text text-anchor="middle" x="963.5" y="-233" font-family="Helvetica,sans-Serif" font-size="10.00">arax_throttle_size_dec</text>
</a>
</g>
</g>
<!-- Node2&#45;&gt;Node13 -->
<g id="edge14_Node000002_Node000013" class="edge">
<title>Node2&#45;&gt;Node13</title>
<g id="a_edge14_Node000002_Node000013"><a xlink:title=" ">
<path fill="none" stroke="#63b8ff" d="M1088.03,-303.24C1057.18,-286.76 1008.56,-260.79 982.47,-246.85"/>
<polygon fill="#63b8ff" stroke="#63b8ff" points="1086.33,-306.3 1096.8,-307.93 1089.63,-300.13 1086.33,-306.3"/>
</a>
</g>
</g>
<!-- Node4 -->
<g id="Node000004" class="node">
<title>Node4</title>
<g id="a_Node000004"><a xlink:href="a01910.html#aa6e4832b06bd5757be4502d2de7b3026" target="_top" xlink:title=" ">
<polygon fill="white" stroke="#666666" points="862.12,-431.75 763.62,-431.75 763.62,-402.75 862.12,-402.75 862.12,-431.75"/>
<text text-anchor="start" x="771.62" y="-418.25" font-family="Helvetica,sans-Serif" font-size="10.00">arax_controller_init</text>
<text text-anchor="middle" x="812.88" y="-407.75" font-family="Helvetica,sans-Serif" font-size="10.00">_start</text>
</a>
</g>
</g>
<!-- Node3&#45;&gt;Node4 -->
<g id="edge3_Node000003_Node000004" class="edge">
<title>Node3&#45;&gt;Node4</title>
<g id="a_edge3_Node000003_Node000004"><a xlink:title=" ">
<path fill="none" stroke="#63b8ff" d="M922.81,-387.2C904.22,-392.33 881.91,-398.48 862.33,-403.88"/>
<polygon fill="#63b8ff" stroke="#63b8ff" points="923.68,-390.59 932.38,-384.56 921.81,-383.84 923.68,-390.59"/>
</a>
</g>
</g>
<!-- Node5 -->
<g id="Node000005" class="node">
<title>Node5</title>
<g id="a_Node000005"><a xlink:href="a02186.html#gae1d371a2840849690acce147e7a205da" target="_top" xlink:title=" ">
<polygon fill="white" stroke="#666666" points="839.62,-384.5 786.12,-384.5 786.12,-366 839.62,-366 839.62,-384.5"/>
<text text-anchor="middle" x="812.88" y="-371" font-family="Helvetica,sans-Serif" font-size="10.00">arax_init</text>
</a>
</g>
</g>
<!-- Node3&#45;&gt;Node5 -->
<g id="edge4_Node000003_Node000005" class="edge">
<title>Node3&#45;&gt;Node5</title>
<g id="a_edge4_Node000003_Node000005"><a xlink:title=" ">
<path fill="none" stroke="#63b8ff" d="M922.38,-375.98C896.19,-375.8 862.74,-375.58 839.95,-375.43"/>
<polygon fill="#63b8ff" stroke="#63b8ff" points="922.31,-379.48 932.33,-376.05 922.35,-372.48 922.31,-379.48"/>
</a>
</g>
</g>
<!-- Node6 -->
<g id="Node000006" class="node">
<title>Node6</title>
<g id="a_Node000006"><a xlink:href="a01946.html#a8a99bcb12e2ee55d68a029bfca9b6d51" target="_top" xlink:title=" ">
<polygon fill="white" stroke="#666666" points="572.5,-427.75 478.5,-427.75 478.5,-398.75 572.5,-398.75 572.5,-427.75"/>
<text text-anchor="start" x="486.5" y="-414.25" font-family="Helvetica,sans-Serif" font-size="10.00">arax_plot_register</text>
<text text-anchor="middle" x="525.5" y="-403.75" font-family="Helvetica,sans-Serif" font-size="10.00">_metric</text>
</a>
</g>
</g>
<!-- Node5&#45;&gt;Node6 -->
<g id="edge5_Node000005_Node000006" class="edge">
<title>Node5&#45;&gt;Node6</title>
<g id="a_edge5_Node000005_Node000006"><a xlink:title=" ">
<path fill="none" stroke="#63b8ff" d="M774.87,-381.61C759.67,-384.13 741.89,-386.97 725.75,-389.25 673.48,-396.64 613.3,-403.69 572.87,-408.21"/>
<polygon fill="#63b8ff" stroke="#63b8ff" points="775.14,-385.11 784.42,-380.01 773.98,-378.21 775.14,-385.11"/>
</a>
</g>
</g>
<!-- Node7 -->
<g id="Node000007" class="node">
<title>Node7</title>
<g id="a_Node000007"><a xlink:href="a01934.html#a80ab3bf4a8af9bb101b5a53248609771" target="_top" xlink:title=" ">
<polygon fill="white" stroke="#666666" points="710.38,-380.5 633.62,-380.5 633.62,-362 710.38,-362 710.38,-380.5"/>
<text text-anchor="middle" x="672" y="-367" font-family="Helvetica,sans-Serif" font-size="10.00">arax_ptr_valid</text>
</a>
</g>
</g>
<!-- Node5&#45;&gt;Node7 -->
<g id="edge6_Node000005_Node000007" class="edge">
<title>Node5&#45;&gt;Node7</title>
<g id="a_edge6_Node000005_Node000007"><a xlink:title=" ">
<path fill="none" stroke="#63b8ff" d="M774.42,-374.17C754.7,-373.6 730.58,-372.91 710.8,-372.34"/>
<polygon fill="#63b8ff" stroke="#63b8ff" points="774.14,-377.66 784.24,-374.45 774.35,-370.67 774.14,-377.66"/>
</a>
</g>
</g>
<!-- Node7&#45;&gt;Node6 -->
<g id="edge11_Node000007_Node000006" class="edge">
<title>Node7&#45;&gt;Node6</title>
<g id="a_edge11_Node000007_Node000006"><a xlink:title=" ">
<path fill="none" stroke="#63b8ff" d="M626.7,-384.13C609.67,-389.08 590.19,-394.74 572.97,-399.74"/>
<polygon fill="#63b8ff" stroke="#63b8ff" points="627.41,-387.57 636.03,-381.41 625.45,-380.84 627.41,-387.57"/>
</a>
</g>
</g>
<!-- Node8 -->
<g id="Node000008" class="node">
<title>Node8</title>
<g id="a_Node000008"><a xlink:href="a01967.html#a4ee1fea325d2edd421f59ab240dfbe54" target="_top" xlink:title=" ">
<polygon fill="white" stroke="#666666" points="571.38,-380.5 479.62,-380.5 479.62,-362 571.38,-362 571.38,-380.5"/>
<text text-anchor="middle" x="525.5" y="-367" font-family="Helvetica,sans-Serif" font-size="10.00">_arax_assert_obj</text>
</a>
</g>
</g>
<!-- Node7&#45;&gt;Node8 -->
<g id="edge7_Node000007_Node000008" class="edge">
<title>Node7&#45;&gt;Node8</title>
<g id="a_edge7_Node000007_Node000008"><a xlink:title=" ">
<path fill="none" stroke="#63b8ff" d="M621.92,-371.25C605.63,-371.25 587.59,-371.25 571.62,-371.25"/>
<polygon fill="#63b8ff" stroke="#63b8ff" points="621.9,-374.75 631.9,-371.25 621.9,-367.75 621.9,-374.75"/>
</a>
</g>
</g>
<!-- Node9 -->
<g id="Node000009" class="node">
<title>Node9</title>
<g id="a_Node000009"><a xlink:href="a01922.html#afeaab7d93372f0752d59c70d9c5940e7" target="_top" xlink:title=" ">
<polygon fill="white" stroke="#666666" points="563.5,-306.5 487.5,-306.5 487.5,-288 563.5,-288 563.5,-306.5"/>
<text text-anchor="middle" x="525.5" y="-293" font-family="Helvetica,sans-Serif" font-size="10.00">arax_data_ref</text>
</a>
</g>
</g>
<!-- Node7&#45;&gt;Node9 -->
<g id="edge8_Node000007_Node000009" class="edge">
<title>Node7&#45;&gt;Node9</title>
<g id="a_edge8_Node000007_Node000009"><a xlink:title=" ">
<path fill="none" stroke="#63b8ff" d="M646.14,-355.8C628.6,-345.19 604.39,-331.12 582.25,-320.25 572.57,-315.5 561.65,-310.85 552.06,-306.98"/>
<polygon fill="#63b8ff" stroke="#63b8ff" points="643.97,-358.58 654.33,-360.8 647.62,-352.6 643.97,-358.58"/>
</a>
</g>
</g>
<!-- Node10 -->
<g id="Node000010" class="node">
<title>Node10</title>
<g id="a_Node000010"><a xlink:href="a01922.html#ac1f7fb20b3a23b388bea24f1b46a33a8" target="_top" xlink:title=" ">
<polygon fill="white" stroke="#666666" points="422.25,-325.5 317,-325.5 317,-307 422.25,-307 422.25,-325.5"/>
<text text-anchor="middle" x="369.62" y="-312" font-family="Helvetica,sans-Serif" font-size="10.00">arax_data_ref_offset</text>
</a>
</g>
</g>
<!-- Node7&#45;&gt;Node10 -->
<g id="edge10_Node000007_Node000010" class="edge">
<title>Node7&#45;&gt;Node10</title>
<g id="a_edge10_Node000007_Node000010"><a xlink:title=" ">
<path fill="none" stroke="#63b8ff" d="M622.36,-361.14C609.34,-358.5 595.27,-355.71 582.25,-353.25 527.82,-342.97 465.33,-332.17 422.44,-324.91"/>
<polygon fill="#63b8ff" stroke="#63b8ff" points="621.49,-364.53 631.99,-363.1 622.89,-357.67 621.49,-364.53"/>
</a>
</g>
</g>
<!-- Node9&#45;&gt;Node10 -->
<g id="edge9_Node000009_Node000010" class="edge">
<title>Node9&#45;&gt;Node10</title>
<g id="a_edge9_Node000009_Node000010"><a xlink:title=" ">
<path fill="none" stroke="#63b8ff" d="M475.91,-303.25C458.95,-305.34 439.87,-307.7 422.65,-309.83"/>
<polygon fill="#63b8ff" stroke="#63b8ff" points="476.25,-306.73 485.75,-302.03 475.4,-299.79 476.25,-306.73"/>
</a>
</g>
</g>
<!-- Node13&#45;&gt;Node13 -->
<g id="edge40_Node000013_Node000013" class="edge">
<title>Node13&#45;&gt;Node13</title>
<g id="a_edge40_Node000013_Node000013"><a xlink:title=" ">
<path fill="none" stroke="#63b8ff" d="M990.61,-257.53C987.6,-261.59 978.56,-264.5 963.5,-264.5 936.73,-264.5 928.99,-255.32 940.28,-246.75"/>
<polygon fill="#63b8ff" stroke="#63b8ff" points="993.92,-256.39 987.23,-248.17 987.34,-258.76 993.92,-256.39"/>
</a>
</g>
</g>
<!-- Node14 -->
<g id="Node000014" class="node">
<title>Node14</title>
<g id="a_Node000014"><a xlink:href="a01916.html#a9c8e53aad4b86498a6b709c35c156fc3" target="_top" xlink:title=" ">
<polygon fill="white" stroke="#666666" points="725.75,-249.5 618.25,-249.5 618.25,-231 725.75,-231 725.75,-249.5"/>
<text text-anchor="middle" x="672" y="-236" font-family="Helvetica,sans-Serif" font-size="10.00">arax_accel_size_dec</text>
</a>
</g>
</g>
<!-- Node13&#45;&gt;Node14 -->
<g id="edge15_Node000013_Node000014" class="edge">
<title>Node13&#45;&gt;Node14</title>
<g id="a_edge15_Node000013_Node000014"><a xlink:title=" ">
<path fill="none" stroke="#63b8ff" d="M894.64,-237.95C843.15,-238.49 773.36,-239.21 725.95,-239.7"/>
<polygon fill="#63b8ff" stroke="#63b8ff" points="894.52,-241.45 904.48,-237.85 894.45,-234.46 894.52,-241.45"/>
</a>
</g>
</g>
<!-- Node16 -->
<g id="Node000016" class="node">
<title>Node16</title>
<g id="a_Node000016"><a xlink:href="a01928.html#a6cc54ee40009c61b5f6526f5edff004f" target="_top" xlink:title=" ">
<polygon fill="white" stroke="#666666" points="864,-187.5 761.75,-187.5 761.75,-169 864,-169 864,-187.5"/>
<text text-anchor="middle" x="812.88" y="-174" font-family="Helvetica,sans-Serif" font-size="10.00">arax_pipe_size_dec</text>
</a>
</g>
</g>
<!-- Node13&#45;&gt;Node16 -->
<g id="edge18_Node000013_Node000016" class="edge">
<title>Node13&#45;&gt;Node16</title>
<g id="a_edge18_Node000013_Node000016"><a xlink:title=" ">
<path fill="none" stroke="#63b8ff" d="M927.57,-223.38C900,-212.44 862.25,-197.45 837.96,-187.81"/>
<polygon fill="#63b8ff" stroke="#63b8ff" points="925.97,-226.51 936.55,-226.95 928.55,-220.01 925.97,-226.51"/>
</a>
</g>
</g>
<!-- Node14&#45;&gt;Node14 -->
<g id="edge16_Node000014_Node000014" class="edge">
<title>Node14&#45;&gt;Node14</title>
<g id="a_edge16_Node000014_Node000014"><a xlink:title=" ">
<path fill="none" stroke="#63b8ff" d="M697.36,-260.53C694.54,-264.59 686.08,-267.5 672,-267.5 646.96,-267.5 639.72,-258.32 650.29,-249.75"/>
<polygon fill="#63b8ff" stroke="#63b8ff" points="700.71,-259.53 694.2,-251.18 694.08,-261.77 700.71,-259.53"/>
</a>
</g>
</g>
<!-- Node15 -->
<g id="Node000015" class="node">
<title>Node15</title>
<g id="a_Node000015"><a xlink:href="a01922.html#af8ede6fc8d207004035f45d945688d2c" target="_top" xlink:title=" ">
<polygon fill="white" stroke="#666666" points="253.62,-268.75 155.12,-268.75 155.12,-239.75 253.62,-239.75 253.62,-268.75"/>
<text text-anchor="start" x="163.12" y="-255.25" font-family="Helvetica,sans-Serif" font-size="10.00">arax_data_allocate</text>
<text text-anchor="middle" x="204.38" y="-244.75" font-family="Helvetica,sans-Serif" font-size="10.00">_remote</text>
</a>
</g>
</g>
<!-- Node14&#45;&gt;Node15 -->
<g id="edge17_Node000014_Node000015" class="edge">
<title>Node14&#45;&gt;Node15</title>
<g id="a_edge17_Node000014_Node000015"><a xlink:title=" ">
<path fill="none" stroke="#63b8ff" d="M606.66,-242.18C512.34,-245.02 338.57,-250.25 254.07,-252.79"/>
<polygon fill="#63b8ff" stroke="#63b8ff" points="606.64,-245.69 616.53,-241.89 606.43,-238.69 606.64,-245.69"/>
</a>
</g>
</g>
<!-- Node16&#45;&gt;Node16 -->
<g id="edge39_Node000016_Node000016" class="edge">
<title>Node16&#45;&gt;Node16</title>
<g id="a_edge39_Node000016_Node000016"><a xlink:title=" ">
<path fill="none" stroke="#63b8ff" d="M838.23,-198.53C835.41,-202.59 826.96,-205.5 812.88,-205.5 787.84,-205.5 780.6,-196.32 791.16,-187.75"/>
<polygon fill="#63b8ff" stroke="#63b8ff" points="841.59,-197.53 835.07,-189.18 834.96,-199.77 841.59,-197.53"/>
</a>
</g>
</g>
<!-- Node17 -->
<g id="Node000017" class="node">
<title>Node17</title>
<g id="a_Node000017"><a xlink:href="a01925.html#a402bbd6fa197c2c48d527325e5e2cf5b" target="_top" xlink:title=" ">
<polygon fill="white" stroke="#666666" points="724.25,-148.5 619.75,-148.5 619.75,-130 724.25,-130 724.25,-148.5"/>
<text text-anchor="middle" x="672" y="-135" font-family="Helvetica,sans-Serif" font-size="10.00">arax_object_register</text>
</a>
</g>
</g>
<!-- Node16&#45;&gt;Node17 -->
<g id="edge19_Node000016_Node000017" class="edge">
<title>Node16&#45;&gt;Node17</title>
<g id="a_edge19_Node000016_Node000017"><a xlink:title=" ">
<path fill="none" stroke="#63b8ff" d="M766.25,-165.44C747.03,-160.04 725.04,-153.86 707.24,-148.87"/>
<polygon fill="#63b8ff" stroke="#63b8ff" points="765.16,-168.77 775.73,-168.1 767.05,-162.03 765.16,-168.77"/>
</a>
</g>
</g>
<!-- Node18 -->
<g id="Node000018" class="node">
<title>Node18</title>
<g id="a_Node000018"><a xlink:href="a01916.html#a0706a66a62ca8710342ac1c097b703ed" target="_top" xlink:title=" ">
<polygon fill="white" stroke="#666666" points="410.62,-166.5 328.62,-166.5 328.62,-148 410.62,-148 410.62,-166.5"/>
<text text-anchor="middle" x="369.62" y="-153" font-family="Helvetica,sans-Serif" font-size="10.00">arax_accel_init</text>
</a>
</g>
</g>
<!-- Node17&#45;&gt;Node18 -->
<g id="edge20_Node000017_Node000018" class="edge">
<title>Node17&#45;&gt;Node18</title>
<g id="a_edge20_Node000017_Node000018"><a xlink:title=" ">
<path fill="none" stroke="#63b8ff" d="M607.89,-143.03C548.55,-146.59 461.53,-151.8 411.02,-154.83"/>
<polygon fill="#63b8ff" stroke="#63b8ff" points="608.08,-146.53 617.85,-142.43 607.66,-139.54 608.08,-146.53"/>
</a>
</g>
</g>
<!-- Node19 -->
<g id="Node000019" class="node">
<title>Node19</title>
<g id="a_Node000019"><a xlink:href="a01922.html#a526989df37e605824d846b7ba54b43ea" target="_top" xlink:title=" ">
<polygon fill="white" stroke="#666666" points="582.25,-83.5 468.75,-83.5 468.75,-65 582.25,-65 582.25,-83.5"/>
<text text-anchor="middle" x="525.5" y="-70" font-family="Helvetica,sans-Serif" font-size="10.00">arax_data_init_aligned</text>
</a>
</g>
</g>
<!-- Node17&#45;&gt;Node19 -->
<g id="edge21_Node000017_Node000019" class="edge">
<title>Node17&#45;&gt;Node19</title>
<g id="a_edge21_Node000017_Node000019"><a xlink:title=" ">
<path fill="none" stroke="#63b8ff" d="M638.99,-124.85C611.24,-112.37 571.86,-94.65 547.81,-83.84"/>
<polygon fill="#63b8ff" stroke="#63b8ff" points="637.43,-127.99 647.99,-128.9 640.3,-121.6 637.43,-127.99"/>
</a>
</g>
</g>
<!-- Node22 -->
<g id="Node000022" class="node">
<title>Node22</title>
<g id="a_Node000022"><a xlink:href="a01931.html#a86ac572ea8f5f613129192c47d598818" target="_top" xlink:title=" ">
<polygon fill="white" stroke="#666666" points="564.25,-28.5 486.75,-28.5 486.75,-10 564.25,-10 564.25,-28.5"/>
<text text-anchor="middle" x="525.5" y="-15" font-family="Helvetica,sans-Serif" font-size="10.00">arax_proc_init</text>
</a>
</g>
</g>
<!-- Node17&#45;&gt;Node22 -->
<g id="edge24_Node000017_Node000022" class="edge">
<title>Node17&#45;&gt;Node22</title>
<g id="a_edge24_Node000017_Node000022"><a xlink:title=" ">
<path fill="none" stroke="#63b8ff" d="M653.84,-121.57C636.51,-104.11 608.6,-77.08 582.25,-56.25 569.49,-46.16 554.01,-36.04 542.61,-28.94"/>
<polygon fill="#63b8ff" stroke="#63b8ff" points="651.31,-123.99 660.82,-128.66 656.3,-119.08 651.31,-123.99"/>
</a>
</g>
</g>
<!-- Node24 -->
<g id="Node000024" class="node">
<title>Node24</title>
<g id="a_Node000024"><a xlink:href="a01937.html#a27bee94f7a23281c8b2b72ec433f6059" target="_top" xlink:title=" ">
<polygon fill="white" stroke="#666666" points="568,-203.5 483,-203.5 483,-185 568,-185 568,-203.5"/>
<text text-anchor="middle" x="525.5" y="-190" font-family="Helvetica,sans-Serif" font-size="10.00">arax_task_alloc</text>
</a>
</g>
</g>
<!-- Node17&#45;&gt;Node24 -->
<g id="edge26_Node000017_Node000024" class="edge">
<title>Node17&#45;&gt;Node24</title>
<g id="a_edge26_Node000017_Node000024"><a xlink:title=" ">
<path fill="none" stroke="#63b8ff" d="M634.97,-152.97C609.06,-162.83 574.77,-175.88 551.75,-184.64"/>
<polygon fill="#63b8ff" stroke="#63b8ff" points="635.98,-156.32 644.08,-149.49 633.49,-149.78 635.98,-156.32"/>
</a>
</g>
</g>
<!-- Node31 -->
<g id="Node000031" class="node">
<title>Node31</title>
<g id="a_Node000031"><a xlink:href="a01943.html#a83ddb422946cf774c687c1ab63dcda15" target="_top" xlink:title=" ">
<polygon fill="white" stroke="#666666" points="568.75,-129.5 482.25,-129.5 482.25,-111 568.75,-111 568.75,-129.5"/>
<text text-anchor="middle" x="525.5" y="-116" font-family="Helvetica,sans-Serif" font-size="10.00">arax_vaccel_init</text>
</a>
</g>
</g>
<!-- Node17&#45;&gt;Node31 -->
<g id="edge35_Node000017_Node000031" class="edge">
<title>Node17&#45;&gt;Node31</title>
<g id="a_edge35_Node000017_Node000031"><a xlink:title=" ">
<path fill="none" stroke="#63b8ff" d="M608.6,-131.05C595.27,-129.29 581.48,-127.48 569.1,-125.85"/>
<polygon fill="#63b8ff" stroke="#63b8ff" points="607.78,-134.47 618.15,-132.3 608.69,-127.53 607.78,-134.47"/>
</a>
</g>
</g>
<!-- Node20 -->
<g id="Node000020" class="node">
<title>Node20</title>
<g id="a_Node000020"><a xlink:href="a01922.html#aeefe449d4a278e9fc4b9c5f7e31000a1" target="_top" xlink:title=" ">
<polygon fill="white" stroke="#666666" points="408.38,-55.5 330.88,-55.5 330.88,-37 408.38,-37 408.38,-55.5"/>
<text text-anchor="middle" x="369.62" y="-42" font-family="Helvetica,sans-Serif" font-size="10.00">arax_data_init</text>
</a>
</g>
</g>
<!-- Node19&#45;&gt;Node20 -->
<g id="edge22_Node000019_Node000020" class="edge">
<title>Node19&#45;&gt;Node20</title>
<g id="a_edge22_Node000019_Node000020"><a xlink:title=" ">
<path fill="none" stroke="#63b8ff" d="M460.27,-62.56C442.62,-59.35 424.04,-55.97 408.41,-53.13"/>
<polygon fill="#63b8ff" stroke="#63b8ff" points="459.16,-65.92 469.62,-64.26 460.41,-59.03 459.16,-65.92"/>
</a>
</g>
</g>
<!-- Node21 -->
<g id="Node000021" class="node">
<title>Node21</title>
<g id="a_Node000021"><a xlink:href="a02190.html#ga9260ad2dd766aec3274c518e2e312b1f" target="_top" xlink:title=" ">
<polygon fill="white" stroke="#666666" points="249.12,-55.5 159.62,-55.5 159.62,-37 249.12,-37 249.12,-55.5"/>
<text text-anchor="middle" x="204.38" y="-42" font-family="Helvetica,sans-Serif" font-size="10.00">ARAX_BUFFER</text>
</a>
</g>
</g>
<!-- Node20&#45;&gt;Node21 -->
<g id="edge23_Node000020_Node000021" class="edge">
<title>Node20&#45;&gt;Node21</title>
<g id="a_edge23_Node000020_Node000021"><a xlink:title=" ">
<path fill="none" stroke="#63b8ff" d="M319.5,-46.25C297.2,-46.25 271.04,-46.25 249.39,-46.25"/>
<polygon fill="#63b8ff" stroke="#63b8ff" points="319.25,-49.75 329.25,-46.25 319.25,-42.75 319.25,-49.75"/>
</a>
</g>
</g>
<!-- Node23 -->
<g id="Node000023" class="node">
<title>Node23</title>
<g id="a_Node000023"><a xlink:href="a02188.html#gafad2dafb4a231390f02b7c866295b7d9" target="_top" xlink:title=" ">
<polygon fill="white" stroke="#666666" points="418.12,-18.5 321.12,-18.5 321.12,0 418.12,0 418.12,-18.5"/>
<text text-anchor="middle" x="369.62" y="-5" font-family="Helvetica,sans-Serif" font-size="10.00">arax_proc_register</text>
</a>
</g>
</g>
<!-- Node22&#45;&gt;Node23 -->
<g id="edge25_Node000022_Node000023" class="edge">
<title>Node22&#45;&gt;Node23</title>
<g id="a_edge25_Node000022_Node000023"><a xlink:title=" ">
<path fill="none" stroke="#63b8ff" d="M475.2,-16.05C457.02,-14.86 436.47,-13.53 418.42,-12.36"/>
<polygon fill="#63b8ff" stroke="#63b8ff" points="474.75,-19.52 484.95,-16.68 475.2,-12.54 474.75,-19.52"/>
</a>
</g>
</g>
<!-- Node25 -->
<g id="Node000025" class="node">
<title>Node25</title>
<g id="a_Node000025"><a xlink:href="a02189.html#gac9f0f3fbb14da879d3ff09bd367bbb24" target="_top" xlink:title=" ">
<polygon fill="white" stroke="#666666" points="413.62,-203.5 325.62,-203.5 325.62,-185 413.62,-185 413.62,-203.5"/>
<text text-anchor="middle" x="369.62" y="-190" font-family="Helvetica,sans-Serif" font-size="10.00">arax_task_issue</text>
</a>
</g>
</g>
<!-- Node24&#45;&gt;Node25 -->
<g id="edge27_Node000024_Node000025" class="edge">
<title>Node24&#45;&gt;Node25</title>
<g id="a_edge27_Node000024_Node000025"><a xlink:title=" ">
<path fill="none" stroke="#63b8ff" d="M471.48,-194.25C452.69,-194.25 431.79,-194.25 413.91,-194.25"/>
<polygon fill="#63b8ff" stroke="#63b8ff" points="471.35,-197.75 481.35,-194.25 471.35,-190.75 471.35,-197.75"/>
</a>
</g>
</g>
<!-- Node25&#45;&gt;Node15 -->
<g id="edge28_Node000025_Node000015" class="edge">
<title>Node25&#45;&gt;Node15</title>
<g id="a_edge28_Node000025_Node000015"><a xlink:title=" ">
<path fill="none" stroke="#63b8ff" d="M331.66,-207.83C306.13,-217.22 272.16,-229.7 245.89,-239.36"/>
<polygon fill="#63b8ff" stroke="#63b8ff" points="332.8,-211.15 340.98,-204.41 330.38,-204.58 332.8,-211.15"/>
</a>
</g>
</g>
<!-- Node26 -->
<g id="Node000026" class="node">
<title>Node26</title>
<g id="a_Node000026"><a xlink:href="a01922.html#a696bc4319d0f6c6baa7d797a8df6b56f" target="_top" xlink:title=" ">
<polygon fill="white" stroke="#666666" points="243.5,-221.5 165.25,-221.5 165.25,-203 243.5,-203 243.5,-221.5"/>
<text text-anchor="middle" x="204.38" y="-208" font-family="Helvetica,sans-Serif" font-size="10.00">arax_data_get</text>
</a>
</g>
</g>
<!-- Node25&#45;&gt;Node26 -->
<g id="edge29_Node000025_Node000026" class="edge">
<title>Node25&#45;&gt;Node26</title>
<g id="a_edge29_Node000025_Node000026"><a xlink:title=" ">
<path fill="none" stroke="#63b8ff" d="M313.97,-200.28C290.99,-202.81 264.79,-205.7 243.88,-208"/>
<polygon fill="#63b8ff" stroke="#63b8ff" points="314.25,-203.77 323.8,-199.19 313.48,-196.81 314.25,-203.77"/>
</a>
</g>
</g>
<!-- Node28 -->
<g id="Node000028" class="node">
<title>Node28</title>
<g id="a_Node000028"><a xlink:href="a01922.html#a8995f71dba475975efc37756783cfce9" target="_top" xlink:title=" ">
<polygon fill="white" stroke="#666666" points="243.5,-184.5 165.25,-184.5 165.25,-166 243.5,-166 243.5,-184.5"/>
<text text-anchor="middle" x="204.38" y="-171" font-family="Helvetica,sans-Serif" font-size="10.00">arax_data_set</text>
</a>
</g>
</g>
<!-- Node25&#45;&gt;Node28 -->
<g id="edge31_Node000025_Node000028" class="edge">
<title>Node25&#45;&gt;Node28</title>
<g id="a_edge31_Node000025_Node000028"><a xlink:title=" ">
<path fill="none" stroke="#63b8ff" d="M313.97,-187.89C290.99,-185.21 264.79,-182.16 243.88,-179.73"/>
<polygon fill="#63b8ff" stroke="#63b8ff" points="313.46,-191.35 323.8,-189.03 314.27,-184.4 313.46,-191.35"/>
</a>
</g>
</g>
<!-- Node29 -->
<g id="Node000029" class="node">
<title>Node29</title>
<g id="a_Node000029"><a xlink:href="a01922.html#af735744d0f8bec04394639a841d2ba0f" target="_top" xlink:title=" ">
<polygon fill="white" stroke="#666666" points="270.5,-147.5 138.25,-147.5 138.25,-129 270.5,-129 270.5,-147.5"/>
<text text-anchor="middle" x="204.38" y="-134" font-family="Helvetica,sans-Serif" font-size="10.00">ARAX_OBJ_DTOR_DECL</text>
</a>
</g>
</g>
<!-- Node25&#45;&gt;Node29 -->
<g id="edge33_Node000025_Node000029" class="edge">
<title>Node25&#45;&gt;Node29</title>
<g id="a_edge33_Node000025_Node000029"><a xlink:title=" ">
<path fill="none" stroke="#63b8ff" d="M322.22,-180.99C316.87,-179.19 311.54,-177.26 306.5,-175.25 289.89,-168.61 287.15,-163.78 270.5,-157.25 261.73,-153.81 252.08,-150.66 242.96,-147.97"/>
<polygon fill="#63b8ff" stroke="#63b8ff" points="321.08,-184.3 331.68,-184.04 323.23,-177.64 321.08,-184.3"/>
</a>
</g>
</g>
<!-- Node30 -->
<g id="Node000030" class="node">
<title>Node30</title>
<g id="a_Node000030"><a xlink:href="a02189.html#ga1418f4cd7336bf77cce7b955a1bf7077" target="_top" xlink:title=" ">
<polygon fill="white" stroke="#666666" points="261.12,-110.5 147.62,-110.5 147.62,-92 261.12,-92 261.12,-110.5"/>
<text text-anchor="middle" x="204.38" y="-97" font-family="Helvetica,sans-Serif" font-size="10.00">arax_task_issue_sync</text>
</a>
</g>
</g>
<!-- Node25&#45;&gt;Node30 -->
<g id="edge34_Node000025_Node000030" class="edge">
<title>Node25&#45;&gt;Node30</title>
<g id="a_edge34_Node000025_Node000030"><a xlink:title=" ">
<path fill="none" stroke="#63b8ff" d="M314.9,-180.57C311.95,-178.98 309.12,-177.22 306.5,-175.25 283.14,-157.71 293.98,-137.64 270.5,-120.25 265.39,-116.46 259.54,-113.43 253.48,-111"/>
<polygon fill="#63b8ff" stroke="#63b8ff" points="313.37,-183.72 323.92,-184.66 316.26,-177.34 313.37,-183.72"/>
</a>
</g>
</g>
<!-- Node27 -->
<g id="Node000027" class="node">
<title>Node27</title>
<g id="a_Node000027"><a xlink:href="a01922.html#a7d8356bd5c8b6a8d7dffc6ba94cc22e5" target="_top" xlink:title=" ">
<polygon fill="white" stroke="#666666" points="102.25,-202.5 0,-202.5 0,-184 102.25,-184 102.25,-202.5"/>
<text text-anchor="middle" x="51.12" y="-189" font-family="Helvetica,sans-Serif" font-size="10.00">arax_data_memcpy</text>
</a>
</g>
</g>
<!-- Node26&#45;&gt;Node27 -->
<g id="edge30_Node000026_Node000027" class="edge">
<title>Node26&#45;&gt;Node27</title>
<g id="a_edge30_Node000026_Node000027"><a xlink:title=" ">
<path fill="none" stroke="#63b8ff" d="M153.79,-206.02C137.38,-203.96 119.1,-201.66 102.61,-199.59"/>
<polygon fill="#63b8ff" stroke="#63b8ff" points="152.96,-209.44 163.32,-207.22 153.83,-202.5 152.96,-209.44"/>
</a>
</g>
</g>
<!-- Node28&#45;&gt;Node27 -->
<g id="edge32_Node000028_Node000027" class="edge">
<title>Node28&#45;&gt;Node27</title>
<g id="a_edge32_Node000028_Node000027"><a xlink:title=" ">
<path fill="none" stroke="#63b8ff" d="M153.79,-181.15C137.38,-183.1 119.1,-185.28 102.61,-187.24"/>
<polygon fill="#63b8ff" stroke="#63b8ff" points="153.8,-184.67 163.31,-180.02 152.97,-177.72 153.8,-184.67"/>
</a>
</g>
</g>
<!-- Node31&#45;&gt;Node18 -->
<g id="edge38_Node000031_Node000018" class="edge">
<title>Node31&#45;&gt;Node18</title>
<g id="a_edge38_Node000031_Node000018"><a xlink:title=" ">
<path fill="none" stroke="#63b8ff" d="M473.15,-132.6C452.94,-137.46 430.06,-142.96 411.05,-147.53"/>
<polygon fill="#63b8ff" stroke="#63b8ff" points="473.69,-136.07 482.6,-130.33 472.06,-129.26 473.69,-136.07"/>
</a>
</g>
</g>
<!-- Node32 -->
<g id="Node000032" class="node">
<title>Node32</title>
<g id="a_Node000032"><a xlink:href="a02187.html#gaf8a10ab4e51e59c464ab3ab473e4a0f7" target="_top" xlink:title=" ">
<polygon fill="white" stroke="#666666" points="432.75,-129.5 306.5,-129.5 306.5,-111 432.75,-111 432.75,-129.5"/>
<text text-anchor="middle" x="369.62" y="-116" font-family="Helvetica,sans-Serif" font-size="10.00">arax_accel_acquire_phys</text>
</a>
</g>
</g>
<!-- Node31&#45;&gt;Node32 -->
<g id="edge36_Node000031_Node000032" class="edge">
<title>Node31&#45;&gt;Node32</title>
<g id="a_edge36_Node000031_Node000032"><a xlink:title=" ">
<path fill="none" stroke="#63b8ff" d="M470.71,-120.25C458.57,-120.25 445.58,-120.25 433.11,-120.25"/>
<polygon fill="#63b8ff" stroke="#63b8ff" points="470.53,-123.75 480.53,-120.25 470.53,-116.75 470.53,-123.75"/>
</a>
</g>
</g>
<!-- Node33 -->
<g id="Node000033" class="node">
<title>Node33</title>
<g id="a_Node000033"><a xlink:href="a02187.html#ga008252bb9afc2990fa2c5f4b980c9f27" target="_top" xlink:title=" ">
<polygon fill="white" stroke="#666666" points="432,-92.5 307.25,-92.5 307.25,-74 432,-74 432,-92.5"/>
<text text-anchor="middle" x="369.62" y="-79" font-family="Helvetica,sans-Serif" font-size="10.00">arax_accel_acquire_type</text>
</a>
</g>
</g>
<!-- Node31&#45;&gt;Node33 -->
<g id="edge37_Node000031_Node000033" class="edge">
<title>Node31&#45;&gt;Node33</title>
<g id="a_edge37_Node000031_Node000033"><a xlink:title=" ">
<path fill="none" stroke="#63b8ff" d="M473.15,-107.9C452.94,-103.04 430.06,-97.54 411.05,-92.97"/>
<polygon fill="#63b8ff" stroke="#63b8ff" points="472.06,-111.24 482.6,-110.17 473.69,-104.43 472.06,-111.24"/>
</a>
</g>
</g>
</g>
</svg>
