<?xml version="1.0" encoding="UTF-8" standalone="no"?>
<!DOCTYPE svg PUBLIC "-//W3C//DTD SVG 1.1//EN"
 "http://www.w3.org/Graphics/SVG/1.1/DTD/svg11.dtd">
<!-- Generated by graphviz version 12.2.1 (0)
 -->
<!-- Title: arax_task.h Pages: 1 -->
<svg width="744pt" height="136pt"
 viewBox="0.00 0.00 744.25 135.50" xmlns="http://www.w3.org/2000/svg" xmlns:xlink="http://www.w3.org/1999/xlink">
<g id="graph0" class="graph" transform="scale(1 1) rotate(0) translate(4 131.5)">
<title>arax_task.h</title>
<!-- Node1 -->
<g id="Node000001" class="node">
<title>Node1</title>
<g id="a_Node000001"><a xlink:title=" ">
<polygon fill="#999999" stroke="#666666" points="156.75,-127.5 89,-127.5 89,-109 156.75,-109 156.75,-127.5"/>
<text text-anchor="middle" x="122.88" y="-114" font-family="Helvetica,sans-Serif" font-size="10.00">arax_task.h</text>
</a>
</g>
</g>
<!-- Node2 -->
<g id="Node000002" class="node">
<title>Node2</title>
<g id="a_Node000002"><a xlink:href="a01922.html" target="_top" xlink:title=" ">
<polygon fill="white" stroke="#666666" points="67.75,-18.5 0,-18.5 0,0 67.75,0 67.75,-18.5"/>
<text text-anchor="middle" x="33.88" y="-5" font-family="Helvetica,sans-Serif" font-size="10.00">arax_data.c</text>
</a>
</g>
</g>
<!-- Node1&#45;&gt;Node2 -->
<g id="edge1_Node000001_Node000002" class="edge">
<title>Node1&#45;&gt;Node2</title>
<g id="a_edge1_Node000001_Node000002"><a xlink:title=" ">
<path fill="none" stroke="#63b8ff" d="M108.61,-100.1C89.35,-76.94 55.75,-36.54 41.07,-18.9"/>
<polygon fill="#63b8ff" stroke="#63b8ff" points="105.84,-102.24 114.92,-107.69 111.22,-97.76 105.84,-102.24"/>
</a>
</g>
</g>
<!-- Node3 -->
<g id="Node000003" class="node">
<title>Node3</title>
<g id="a_Node000003"><a xlink:href="a01925.html" target="_top" xlink:title=" ">
<polygon fill="white" stroke="#666666" points="160.12,-18.5 85.62,-18.5 85.62,0 160.12,0 160.12,-18.5"/>
<text text-anchor="middle" x="122.88" y="-5" font-family="Helvetica,sans-Serif" font-size="10.00">arax_object.c</text>
</a>
</g>
</g>
<!-- Node1&#45;&gt;Node3 -->
<g id="edge2_Node000001_Node000003" class="edge">
<title>Node1&#45;&gt;Node3</title>
<g id="a_edge2_Node000001_Node000003"><a xlink:title=" ">
<path fill="none" stroke="#63b8ff" d="M122.88,-97.56C122.88,-74.09 122.88,-35.91 122.88,-18.9"/>
<polygon fill="#63b8ff" stroke="#63b8ff" points="119.38,-97.34 122.88,-107.34 126.38,-97.34 119.38,-97.34"/>
</a>
</g>
</g>
<!-- Node4 -->
<g id="Node000004" class="node">
<title>Node4</title>
<g id="a_Node000004"><a xlink:href="a01358.html" target="_top" xlink:title=" ">
<polygon fill="white" stroke="#666666" points="351.38,-73 284.38,-73 284.38,-54.5 351.38,-54.5 351.38,-73"/>
<text text-anchor="middle" x="317.88" y="-59.5" font-family="Helvetica,sans-Serif" font-size="10.00">arax_pipe.h</text>
</a>
</g>
</g>
<!-- Node1&#45;&gt;Node4 -->
<g id="edge3_Node000001_Node000004" class="edge">
<title>Node1&#45;&gt;Node4</title>
<g id="a_edge3_Node000001_Node000004"><a xlink:title=" ">
<path fill="none" stroke="#63b8ff" d="M165.78,-105.7C201.94,-95.96 252.87,-82.25 285.63,-73.43"/>
<polygon fill="#63b8ff" stroke="#63b8ff" points="165.28,-102.21 156.54,-108.19 167.1,-108.97 165.28,-102.21"/>
</a>
</g>
</g>
<!-- Node4&#45;&gt;Node2 -->
<g id="edge5_Node000004_Node000002" class="edge">
<title>Node4&#45;&gt;Node2</title>
<g id="a_edge5_Node000004_Node000002"><a xlink:title=" ">
<path fill="none" stroke="#63b8ff" d="M272.91,-54.6C224.48,-45.81 145.19,-31.33 76.88,-18.5 74.04,-17.97 71.09,-17.41 68.14,-16.85"/>
<polygon fill="#63b8ff" stroke="#63b8ff" points="271.98,-57.99 282.45,-56.34 273.23,-51.11 271.98,-57.99"/>
</a>
</g>
</g>
<!-- Node4&#45;&gt;Node3 -->
<g id="edge6_Node000004_Node000003" class="edge">
<title>Node4&#45;&gt;Node3</title>
<g id="a_edge6_Node000004_Node000003"><a xlink:title=" ">
<path fill="none" stroke="#63b8ff" d="M274.97,-51.2C238.81,-41.46 187.88,-27.75 155.12,-18.93"/>
<polygon fill="#63b8ff" stroke="#63b8ff" points="273.65,-54.47 284.21,-53.69 275.47,-47.71 273.65,-54.47"/>
</a>
</g>
</g>
<!-- Node5 -->
<g id="Node000005" class="node">
<title>Node5</title>
<g id="a_Node000005"><a xlink:href="a01916.html" target="_top" xlink:title=" ">
<polygon fill="white" stroke="#666666" points="310,-18.5 237.75,-18.5 237.75,0 310,0 310,-18.5"/>
<text text-anchor="middle" x="273.88" y="-5" font-family="Helvetica,sans-Serif" font-size="10.00">arax_accel.c</text>
</a>
</g>
</g>
<!-- Node4&#45;&gt;Node5 -->
<g id="edge4_Node000004_Node000005" class="edge">
<title>Node4&#45;&gt;Node5</title>
<g id="a_edge4_Node000004_Node000005"><a xlink:title=" ">
<path fill="none" stroke="#63b8ff" d="M303.43,-45.52C295.91,-36.54 287.05,-25.97 281.01,-18.76"/>
<polygon fill="#63b8ff" stroke="#63b8ff" points="300.53,-47.5 309.64,-52.92 305.9,-43.01 300.53,-47.5"/>
</a>
</g>
</g>
<!-- Node6 -->
<g id="Node000006" class="node">
<title>Node6</title>
<g id="a_Node000006"><a xlink:href="a01928.html" target="_top" xlink:title=" ">
<polygon fill="white" stroke="#666666" points="395.38,-18.5 328.38,-18.5 328.38,0 395.38,0 395.38,-18.5"/>
<text text-anchor="middle" x="361.88" y="-5" font-family="Helvetica,sans-Serif" font-size="10.00">arax_pipe.c</text>
</a>
</g>
</g>
<!-- Node4&#45;&gt;Node6 -->
<g id="edge7_Node000004_Node000006" class="edge">
<title>Node4&#45;&gt;Node6</title>
<g id="a_edge7_Node000004_Node000006"><a xlink:title=" ">
<path fill="none" stroke="#63b8ff" d="M332.32,-45.52C339.84,-36.54 348.7,-25.97 354.74,-18.76"/>
<polygon fill="#63b8ff" stroke="#63b8ff" points="329.85,-43.01 326.11,-52.92 335.22,-47.5 329.85,-43.01"/>
</a>
</g>
</g>
<!-- Node7 -->
<g id="Node000007" class="node">
<title>Node7</title>
<g id="a_Node000007"><a xlink:href="a01946.html" target="_top" xlink:title=" ">
<polygon fill="white" stroke="#666666" points="477.88,-18.5 413.88,-18.5 413.88,0 477.88,0 477.88,-18.5"/>
<text text-anchor="middle" x="445.88" y="-5" font-family="Helvetica,sans-Serif" font-size="10.00">arax_plot.c</text>
</a>
</g>
</g>
<!-- Node4&#45;&gt;Node7 -->
<g id="edge8_Node000004_Node000007" class="edge">
<title>Node4&#45;&gt;Node7</title>
<g id="a_edge8_Node000004_Node000007"><a xlink:title=" ">
<path fill="none" stroke="#63b8ff" d="M349.48,-49.79C372.92,-40.17 404.22,-27.33 424.71,-18.93"/>
<polygon fill="#63b8ff" stroke="#63b8ff" points="348.34,-46.47 340.41,-53.51 350.99,-52.95 348.34,-46.47"/>
</a>
</g>
</g>
<!-- Node8 -->
<g id="Node000008" class="node">
<title>Node8</title>
<g id="a_Node000008"><a xlink:href="a01934.html" target="_top" xlink:title=" ">
<polygon fill="white" stroke="#666666" points="556,-18.5 495.75,-18.5 495.75,0 556,0 556,-18.5"/>
<text text-anchor="middle" x="525.88" y="-5" font-family="Helvetica,sans-Serif" font-size="10.00">arax_ptr.c</text>
</a>
</g>
</g>
<!-- Node4&#45;&gt;Node8 -->
<g id="edge9_Node000004_Node000008" class="edge">
<title>Node4&#45;&gt;Node8</title>
<g id="a_edge9_Node000004_Node000008"><a xlink:title=" ">
<path fill="none" stroke="#63b8ff" d="M362.82,-51.41C402.89,-41.29 460.47,-26.76 495.4,-17.94"/>
<polygon fill="#63b8ff" stroke="#63b8ff" points="362.06,-47.99 353.22,-53.83 363.78,-54.77 362.06,-47.99"/>
</a>
</g>
</g>
<!-- Node9 -->
<g id="Node000009" class="node">
<title>Node9</title>
<g id="a_Node000009"><a xlink:href="a01937.html" target="_top" xlink:title=" ">
<polygon fill="white" stroke="#666666" points="641.75,-18.5 574,-18.5 574,0 641.75,0 641.75,-18.5"/>
<text text-anchor="middle" x="607.88" y="-5" font-family="Helvetica,sans-Serif" font-size="10.00">arax_task.c</text>
</a>
</g>
</g>
<!-- Node4&#45;&gt;Node9 -->
<g id="edge10_Node000004_Node000009" class="edge">
<title>Node4&#45;&gt;Node9</title>
<g id="a_edge10_Node000004_Node000009"><a xlink:title=" ">
<path fill="none" stroke="#63b8ff" d="M363.13,-54.81C412.69,-46.08 494.49,-31.56 564.88,-18.5 567.72,-17.97 570.66,-17.42 573.61,-16.86"/>
<polygon fill="#63b8ff" stroke="#63b8ff" points="362.59,-51.36 353.35,-56.54 363.81,-58.25 362.59,-51.36"/>
</a>
</g>
</g>
<!-- Node10 -->
<g id="Node000010" class="node">
<title>Node10</title>
<g id="a_Node000010"><a xlink:href="a01943.html" target="_top" xlink:title=" ">
<polygon fill="white" stroke="#666666" points="736.25,-18.5 659.5,-18.5 659.5,0 736.25,0 736.25,-18.5"/>
<text text-anchor="middle" x="697.88" y="-5" font-family="Helvetica,sans-Serif" font-size="10.00">arax_vaccel.c</text>
</a>
</g>
</g>
<!-- Node4&#45;&gt;Node10 -->
<g id="edge11_Node000004_Node000010" class="edge">
<title>Node4&#45;&gt;Node10</title>
<g id="a_edge11_Node000004_Node000010"><a xlink:title=" ">
<path fill="none" stroke="#63b8ff" d="M362.78,-57.39C426.82,-49.6 548.05,-34.35 650.88,-18.5 653.58,-18.08 656.36,-17.64 659.17,-17.18"/>
<polygon fill="#63b8ff" stroke="#63b8ff" points="362.51,-53.89 353,-58.57 363.35,-60.84 362.51,-53.89"/>
</a>
</g>
</g>
<!-- Node11 -->
<g id="Node000011" class="node">
<title>Node11</title>
<g id="a_Node000011"><a xlink:href="a01910.html" target="_top" xlink:title=" ">
<polygon fill="white" stroke="#666666" points="220,-18.5 177.75,-18.5 177.75,0 220,0 220,-18.5"/>
<text text-anchor="middle" x="198.88" y="-5" font-family="Helvetica,sans-Serif" font-size="10.00">impl.c</text>
</a>
</g>
</g>
<!-- Node4&#45;&gt;Node11 -->
<g id="edge12_Node000004_Node000011" class="edge">
<title>Node4&#45;&gt;Node11</title>
<g id="a_edge12_Node000004_Node000011"><a xlink:title=" ">
<path fill="none" stroke="#63b8ff" d="M287.9,-49.53C266.18,-39.94 237.43,-27.26 218.55,-18.93"/>
<polygon fill="#63b8ff" stroke="#63b8ff" points="286.28,-52.64 296.84,-53.47 289.1,-46.23 286.28,-52.64"/>
</a>
</g>
</g>
</g>
</svg>
