<?xml version="1.0" encoding="UTF-8" standalone="no"?>
<!DOCTYPE svg PUBLIC "-//W3C//DTD SVG 1.1//EN"
 "http://www.w3.org/Graphics/SVG/1.1/DTD/svg11.dtd">
<!-- Generated by graphviz version 12.2.1 (0)
 -->
<!-- Title: arax_task_alloc Pages: 1 -->
<svg width="1179pt" height="259pt"
 viewBox="0.00 0.00 1178.50 258.50" xmlns="http://www.w3.org/2000/svg" xmlns:xlink="http://www.w3.org/1999/xlink">
<g id="graph0" class="graph" transform="scale(1 1) rotate(0) translate(4 254.5)">
<title>arax_task_alloc</title>
<!-- Node1 -->
<g id="Node000001" class="node">
<title>Node1</title>
<g id="a_Node000001"><a xlink:title=" ">
<polygon fill="#999999" stroke="#666666" points="85,-129.5 0,-129.5 0,-111 85,-111 85,-129.5"/>
<text text-anchor="middle" x="42.5" y="-116" font-family="Helvetica,sans-Serif" font-size="10.00">arax_task_alloc</text>
</a>
</g>
</g>
<!-- Node2 -->
<g id="Node000002" class="node">
<title>Node2</title>
<g id="a_Node000002"><a xlink:href="a01922.html#a1dc669466d6f52d5be8af2d991512ac2" target="_top" xlink:title=" ">
<polygon fill="white" stroke="#666666" points="228.88,-166.5 125.12,-166.5 125.12,-148 228.88,-148 228.88,-166.5"/>
<text text-anchor="middle" x="177" y="-153" font-family="Helvetica,sans-Serif" font-size="10.00">arax_data_input_init</text>
</a>
</g>
</g>
<!-- Node1&#45;&gt;Node2 -->
<g id="edge1_Node000001_Node000002" class="edge">
<title>Node1&#45;&gt;Node2</title>
<g id="a_edge1_Node000001_Node000002"><a xlink:title=" ">
<path fill="none" stroke="#63b8ff" d="M78.31,-129.97C94.29,-134.43 113.44,-139.78 130.54,-144.55"/>
<polygon fill="#63b8ff" stroke="#63b8ff" points="129.39,-147.87 139.96,-147.19 131.27,-141.13 129.39,-147.87"/>
</a>
</g>
</g>
<!-- Node16 -->
<g id="Node000016" class="node">
<title>Node16</title>
<g id="a_Node000016"><a xlink:href="a01922.html#a18d07d808917e0b971d46332e9e64da4" target="_top" xlink:title=" ">
<polygon fill="white" stroke="#666666" points="231.88,-204.5 122.12,-204.5 122.12,-186 231.88,-186 231.88,-204.5"/>
<text text-anchor="middle" x="177" y="-191" font-family="Helvetica,sans-Serif" font-size="10.00">arax_data_output_init</text>
</a>
</g>
</g>
<!-- Node1&#45;&gt;Node16 -->
<g id="edge18_Node000001_Node000016" class="edge">
<title>Node1&#45;&gt;Node16</title>
<g id="a_edge18_Node000001_Node000016"><a xlink:title=" ">
<path fill="none" stroke="#63b8ff" d="M54.94,-129.87C69.52,-141.77 95.87,-162.07 121,-175.25 125.2,-177.45 129.7,-179.52 134.25,-181.42"/>
<polygon fill="#63b8ff" stroke="#63b8ff" points="132.83,-184.63 143.42,-185.01 135.38,-178.11 132.83,-184.63"/>
</a>
</g>
</g>
<!-- Node17 -->
<g id="Node000017" class="node">
<title>Node17</title>
<g id="a_Node000017"><a xlink:href="a01925.html#a402bbd6fa197c2c48d527325e5e2cf5b" target="_top" xlink:title=" ">
<polygon fill="white" stroke="#666666" points="229.25,-92.5 124.75,-92.5 124.75,-74 229.25,-74 229.25,-92.5"/>
<text text-anchor="middle" x="177" y="-79" font-family="Helvetica,sans-Serif" font-size="10.00">arax_object_register</text>
</a>
</g>
</g>
<!-- Node1&#45;&gt;Node17 -->
<g id="edge21_Node000001_Node000017" class="edge">
<title>Node1&#45;&gt;Node17</title>
<g id="a_edge21_Node000001_Node000017"><a xlink:title=" ">
<path fill="none" stroke="#63b8ff" d="M78.31,-110.53C94.29,-106.07 113.44,-100.72 130.54,-95.95"/>
<polygon fill="#63b8ff" stroke="#63b8ff" points="131.27,-99.37 139.96,-93.31 129.39,-92.63 131.27,-99.37"/>
</a>
</g>
</g>
<!-- Node26 -->
<g id="Node000026" class="node">
<title>Node26</title>
<g id="a_Node000026"><a xlink:href="a02364.html#ac728117d73179c279de49e01ae905dda" target="_top" xlink:title=" ">
<polygon fill="white" stroke="#666666" points="233,-37.5 121,-37.5 121,-19 233,-19 233,-37.5"/>
<text text-anchor="middle" x="177" y="-24" font-family="Helvetica,sans-Serif" font-size="10.00">async_completion_init</text>
</a>
</g>
</g>
<!-- Node1&#45;&gt;Node26 -->
<g id="edge36_Node000001_Node000026" class="edge">
<title>Node1&#45;&gt;Node26</title>
<g id="a_edge36_Node000001_Node000026"><a xlink:title=" ">
<path fill="none" stroke="#63b8ff" d="M56.87,-110.61C72.26,-99.55 98.33,-80.91 121,-65.25 131.12,-58.26 142.37,-50.65 152.05,-44.17"/>
<polygon fill="#63b8ff" stroke="#63b8ff" points="153.83,-47.19 160.2,-38.73 149.94,-41.37 153.83,-47.19"/>
</a>
</g>
</g>
<!-- Node3 -->
<g id="Node000003" class="node">
<title>Node3</title>
<g id="a_Node000003"><a xlink:href="a01922.html#a4b65f90a821aca384f0ca1cff7bd1846" target="_top" xlink:title=" ">
<polygon fill="white" stroke="#666666" points="394.5,-241.5 269,-241.5 269,-223 394.5,-223 394.5,-241.5"/>
<text text-anchor="middle" x="331.75" y="-228" font-family="Helvetica,sans-Serif" font-size="10.00">arax_data_migrate_accel</text>
</a>
</g>
</g>
<!-- Node2&#45;&gt;Node3 -->
<g id="edge2_Node000002_Node000003" class="edge">
<title>Node2&#45;&gt;Node3</title>
<g id="a_edge2_Node000002_Node000003"><a xlink:title=" ">
<path fill="none" stroke="#63b8ff" d="M207.47,-166.96C215.84,-169.99 224.88,-173.52 233,-177.25 258.65,-189.03 286.59,-205.1 306.01,-216.83"/>
<polygon fill="#63b8ff" stroke="#63b8ff" points="303.93,-219.67 314.29,-221.89 307.58,-213.69 303.93,-219.67"/>
</a>
</g>
</g>
<!-- Node14 -->
<g id="Node000014" class="node">
<title>Node14</title>
<g id="a_Node000014"><a xlink:href="a01925.html#a9255b8011e6d7c9b28c7df40065efb28" target="_top" xlink:title=" ">
<polygon fill="white" stroke="#666666" points="541.75,-176.5 440.25,-176.5 440.25,-158 541.75,-158 541.75,-176.5"/>
<text text-anchor="middle" x="491" y="-163" font-family="Helvetica,sans-Serif" font-size="10.00">arax_object_ref_inc</text>
</a>
</g>
</g>
<!-- Node2&#45;&gt;Node14 -->
<g id="edge17_Node000002_Node000014" class="edge">
<title>Node2&#45;&gt;Node14</title>
<g id="a_edge17_Node000002_Node000014"><a xlink:title=" ">
<path fill="none" stroke="#63b8ff" d="M229.17,-158.89C283.79,-160.64 370.32,-163.41 428.58,-165.28"/>
<polygon fill="#63b8ff" stroke="#63b8ff" points="428.21,-168.77 438.32,-165.59 428.44,-161.77 428.21,-168.77"/>
</a>
</g>
</g>
<!-- Node4 -->
<g id="Node000004" class="node">
<title>Node4</title>
<g id="a_Node000004"><a xlink:href="a01925.html#afe7e4a63c40fbcaae742b8de8693483f" target="_top" xlink:title=" ">
<polygon fill="white" stroke="#666666" points="543.25,-213.5 438.75,-213.5 438.75,-195 543.25,-195 543.25,-213.5"/>
<text text-anchor="middle" x="491" y="-200" font-family="Helvetica,sans-Serif" font-size="10.00">arax_object_ref_dec</text>
</a>
</g>
</g>
<!-- Node3&#45;&gt;Node4 -->
<g id="edge3_Node000003_Node000004" class="edge">
<title>Node3&#45;&gt;Node4</title>
<g id="a_edge3_Node000003_Node000004"><a xlink:title=" ">
<path fill="none" stroke="#63b8ff" d="M387.31,-222.54C400.27,-220.23 414.19,-217.75 427.48,-215.38"/>
<polygon fill="#63b8ff" stroke="#63b8ff" points="427.73,-218.89 436.96,-213.69 426.5,-212 427.73,-218.89"/>
</a>
</g>
</g>
<!-- Node3&#45;&gt;Node14 -->
<g id="edge15_Node000003_Node000014" class="edge">
<title>Node3&#45;&gt;Node14</title>
<g id="a_edge15_Node000003_Node000014"><a xlink:title=" ">
<path fill="none" stroke="#63b8ff" d="M362.5,-222.61C372.83,-218.89 384.36,-214.3 394.5,-209.25 411.49,-200.78 413.31,-194.32 430.5,-186.25 434.75,-184.25 439.27,-182.39 443.84,-180.67"/>
<polygon fill="#63b8ff" stroke="#63b8ff" points="444.8,-184.04 453.07,-177.43 442.47,-177.44 444.8,-184.04"/>
</a>
</g>
</g>
<!-- Node15 -->
<g id="Node000015" class="node">
<title>Node15</title>
<g id="a_Node000015"><a xlink:href="a01925.html#a668fd893484b6e2d67d8b372b508d14f" target="_top" xlink:title=" ">
<polygon fill="white" stroke="#666666" points="551.5,-250.5 430.5,-250.5 430.5,-232 551.5,-232 551.5,-250.5"/>
<text text-anchor="middle" x="491" y="-237" font-family="Helvetica,sans-Serif" font-size="10.00">arax_object_type_to_str</text>
</a>
</g>
</g>
<!-- Node3&#45;&gt;Node15 -->
<g id="edge16_Node000003_Node000015" class="edge">
<title>Node3&#45;&gt;Node15</title>
<g id="a_edge16_Node000003_Node000015"><a xlink:title=" ">
<path fill="none" stroke="#63b8ff" d="M394.9,-235.81C402.69,-236.25 410.7,-236.71 418.61,-237.16"/>
<polygon fill="#63b8ff" stroke="#63b8ff" points="418.4,-240.66 428.59,-237.74 418.8,-233.67 418.4,-240.66"/>
</a>
</g>
</g>
<!-- Node5 -->
<g id="Node000005" class="node">
<title>Node5</title>
<g id="a_Node000005"><a xlink:href="a01928.html#a9f30684f01feac766b42d622970ed5a6" target="_top" xlink:title=" ">
<polygon fill="white" stroke="#666666" points="688.25,-158.5 589,-158.5 589,-140 688.25,-140 688.25,-158.5"/>
<text text-anchor="middle" x="638.62" y="-145" font-family="Helvetica,sans-Serif" font-size="10.00">arax_pipe_size_inc</text>
</a>
</g>
</g>
<!-- Node4&#45;&gt;Node5 -->
<g id="edge4_Node000004_Node000005" class="edge">
<title>Node4&#45;&gt;Node5</title>
<g id="a_edge4_Node000004_Node000005"><a xlink:title=" ">
<path fill="none" stroke="#63b8ff" d="M524.29,-194.5C533.16,-191.67 542.75,-188.47 551.5,-185.25 569.54,-178.61 589.36,-170.4 605.43,-163.49"/>
<polygon fill="#63b8ff" stroke="#63b8ff" points="606.72,-166.75 614.5,-159.56 603.93,-160.32 606.72,-166.75"/>
</a>
</g>
</g>
<!-- Node13 -->
<g id="Node000013" class="node">
<title>Node13</title>
<g id="a_Node000013"><a xlink:href="a01955.html#a0c85e5516222ab7e7fc354c614760ec5" target="_top" xlink:title=" ">
<polygon fill="white" stroke="#666666" points="673.62,-213.5 603.62,-213.5 603.62,-195 673.62,-195 673.62,-213.5"/>
<text text-anchor="middle" x="638.62" y="-200" font-family="Helvetica,sans-Serif" font-size="10.00">utils_list_del</text>
</a>
</g>
</g>
<!-- Node4&#45;&gt;Node13 -->
<g id="edge14_Node000004_Node000013" class="edge">
<title>Node4&#45;&gt;Node13</title>
<g id="a_edge14_Node000004_Node000013"><a xlink:title=" ">
<path fill="none" stroke="#63b8ff" d="M543.34,-204.25C559.13,-204.25 576.4,-204.25 591.8,-204.25"/>
<polygon fill="#63b8ff" stroke="#63b8ff" points="591.64,-207.75 601.64,-204.25 591.64,-200.75 591.64,-207.75"/>
</a>
</g>
</g>
<!-- Node5&#45;&gt;Node5 -->
<g id="edge5_Node000005_Node000005" class="edge">
<title>Node5&#45;&gt;Node5</title>
<g id="a_edge5_Node000005_Node000005"><a xlink:title=" ">
<path fill="none" stroke="#63b8ff" d="M616.39,-158.75C605.58,-167.32 612.99,-176.5 638.62,-176.5 653.05,-176.5 661.7,-173.59 664.59,-169.53"/>
<polygon fill="#63b8ff" stroke="#63b8ff" points="667.93,-168.48 661.35,-160.18 661.31,-170.77 667.93,-168.48"/>
</a>
</g>
</g>
<!-- Node6 -->
<g id="Node000006" class="node">
<title>Node6</title>
<g id="a_Node000006"><a xlink:href="a01940.html#a7d3a67fa4eeb00cc9508a7ffe451a02f" target="_top" xlink:title=" ">
<polygon fill="white" stroke="#666666" points="838.5,-153.5 727.25,-153.5 727.25,-135 838.5,-135 838.5,-153.5"/>
<text text-anchor="middle" x="782.88" y="-140" font-family="Helvetica,sans-Serif" font-size="10.00">arax_throttle_size_inc</text>
</a>
</g>
</g>
<!-- Node5&#45;&gt;Node6 -->
<g id="edge6_Node000005_Node000006" class="edge">
<title>Node5&#45;&gt;Node6</title>
<g id="a_edge6_Node000005_Node000006"><a xlink:title=" ">
<path fill="none" stroke="#63b8ff" d="M688.58,-147.53C697.28,-147.22 706.48,-146.9 715.56,-146.58"/>
<polygon fill="#63b8ff" stroke="#63b8ff" points="715.59,-150.08 725.46,-146.23 715.35,-143.09 715.59,-150.08"/>
</a>
</g>
</g>
<!-- Node6&#45;&gt;Node6 -->
<g id="edge7_Node000006_Node000006" class="edge">
<title>Node6&#45;&gt;Node6</title>
<g id="a_edge7_Node000006_Node000006"><a xlink:title=" ">
<path fill="none" stroke="#63b8ff" d="M760.64,-153.75C749.83,-162.32 757.24,-171.5 782.88,-171.5 797.3,-171.5 805.95,-168.59 808.84,-164.53"/>
<polygon fill="#63b8ff" stroke="#63b8ff" points="812.18,-163.48 805.6,-155.18 805.56,-165.77 812.18,-163.48"/>
</a>
</g>
</g>
<!-- Node7 -->
<g id="Node000007" class="node">
<title>Node7</title>
<g id="a_Node000007"><a xlink:href="a02364.html#aed6af4d83e934e3e654ead541b15f2d9" target="_top" xlink:title=" ">
<polygon fill="white" stroke="#666666" points="990.25,-102.5 881.25,-102.5 881.25,-84 990.25,-84 990.25,-102.5"/>
<text text-anchor="middle" x="935.75" y="-89" font-family="Helvetica,sans-Serif" font-size="10.00">async_condition_lock</text>
</a>
</g>
</g>
<!-- Node6&#45;&gt;Node7 -->
<g id="edge8_Node000006_Node000007" class="edge">
<title>Node6&#45;&gt;Node7</title>
<g id="a_edge8_Node000006_Node000007"><a xlink:title=" ">
<path fill="none" stroke="#63b8ff" d="M811.23,-134.57C829.53,-128.14 854.17,-119.57 876,-112.25 881.72,-110.33 887.76,-108.34 893.7,-106.4"/>
<polygon fill="#63b8ff" stroke="#63b8ff" points="894.35,-109.87 902.78,-103.45 892.18,-103.21 894.35,-109.87"/>
</a>
</g>
</g>
<!-- Node9 -->
<g id="Node000009" class="node">
<title>Node9</title>
<g id="a_Node000009"><a xlink:href="a02364.html#a45a896fb606c2aa66a5a4c2af59ce494" target="_top" xlink:title=" ">
<polygon fill="white" stroke="#666666" points="993.25,-176.5 878.25,-176.5 878.25,-158 993.25,-158 993.25,-176.5"/>
<text text-anchor="middle" x="935.75" y="-163" font-family="Helvetica,sans-Serif" font-size="10.00">async_condition_notify</text>
</a>
</g>
</g>
<!-- Node6&#45;&gt;Node9 -->
<g id="edge10_Node000006_Node000009" class="edge">
<title>Node6&#45;&gt;Node9</title>
<g id="a_edge10_Node000006_Node000009"><a xlink:title=" ">
<path fill="none" stroke="#63b8ff" d="M838.77,-152.62C847.82,-154 857.29,-155.44 866.61,-156.86"/>
<polygon fill="#63b8ff" stroke="#63b8ff" points="865.96,-160.3 876.37,-158.35 867.01,-153.38 865.96,-160.3"/>
</a>
</g>
</g>
<!-- Node11 -->
<g id="Node000011" class="node">
<title>Node11</title>
<g id="a_Node000011"><a xlink:href="a02364.html#a3bbcb7c4c024e99d5c4ba52b61dfbbf7" target="_top" xlink:title=" ">
<polygon fill="white" stroke="#666666" points="995.5,-139.5 876,-139.5 876,-121 995.5,-121 995.5,-139.5"/>
<text text-anchor="middle" x="935.75" y="-126" font-family="Helvetica,sans-Serif" font-size="10.00">async_condition_unlock</text>
</a>
</g>
</g>
<!-- Node6&#45;&gt;Node11 -->
<g id="edge12_Node000006_Node000011" class="edge">
<title>Node6&#45;&gt;Node11</title>
<g id="a_edge12_Node000006_Node000011"><a xlink:title=" ">
<path fill="none" stroke="#63b8ff" d="M838.77,-139.16C847.09,-138.38 855.77,-137.58 864.36,-136.78"/>
<polygon fill="#63b8ff" stroke="#63b8ff" points="864.43,-140.29 874.06,-135.88 863.78,-133.32 864.43,-140.29"/>
</a>
</g>
</g>
<!-- Node8 -->
<g id="Node000008" class="node">
<title>Node8</title>
<g id="a_Node000008"><a xlink:href="a02358.html#aebf9e72bb6cbd8b9e33489d46c25075d" target="_top" xlink:title=" ">
<polygon fill="white" stroke="#666666" points="1159.25,-102.5 1042.75,-102.5 1042.75,-84 1159.25,-84 1159.25,-102.5"/>
<text text-anchor="middle" x="1101" y="-89" font-family="Helvetica,sans-Serif" font-size="10.00">async_completion_wait</text>
</a>
</g>
</g>
<!-- Node7&#45;&gt;Node8 -->
<g id="edge9_Node000007_Node000008" class="edge">
<title>Node7&#45;&gt;Node8</title>
<g id="a_edge9_Node000007_Node000008"><a xlink:title=" ">
<path fill="none" stroke="#63b8ff" d="M990.66,-93.25C1003.64,-93.25 1017.69,-93.25 1031.26,-93.25"/>
<polygon fill="#63b8ff" stroke="#63b8ff" points="1030.99,-96.75 1040.99,-93.25 1030.99,-89.75 1030.99,-96.75"/>
</a>
</g>
</g>
<!-- Node10 -->
<g id="Node000010" class="node">
<title>Node10</title>
<g id="a_Node000010"><a xlink:href="a02358.html#a0fa370eee5160963e617d1daf1c07363" target="_top" xlink:title=" ">
<polygon fill="white" stroke="#666666" points="1157.38,-176.5 1044.62,-176.5 1044.62,-158 1157.38,-158 1157.38,-176.5"/>
<text text-anchor="middle" x="1101" y="-163" font-family="Helvetica,sans-Serif" font-size="10.00">async_semaphore_inc</text>
</a>
</g>
</g>
<!-- Node9&#45;&gt;Node10 -->
<g id="edge11_Node000009_Node000010" class="edge">
<title>Node9&#45;&gt;Node10</title>
<g id="a_edge11_Node000009_Node000010"><a xlink:title=" ">
<path fill="none" stroke="#63b8ff" d="M993.39,-167.25C1006.14,-167.25 1019.79,-167.25 1032.92,-167.25"/>
<polygon fill="#63b8ff" stroke="#63b8ff" points="1032.78,-170.75 1042.78,-167.25 1032.77,-163.75 1032.78,-170.75"/>
</a>
</g>
</g>
<!-- Node12 -->
<g id="Node000012" class="node">
<title>Node12</title>
<g id="a_Node000012"><a xlink:href="a02358.html#ad1d30ecbf6bff6457b680aa940281072" target="_top" xlink:title=" ">
<polygon fill="white" stroke="#666666" points="1170.5,-139.5 1031.5,-139.5 1031.5,-121 1170.5,-121 1170.5,-139.5"/>
<text text-anchor="middle" x="1101" y="-126" font-family="Helvetica,sans-Serif" font-size="10.00">async_completion_complete</text>
</a>
</g>
</g>
<!-- Node11&#45;&gt;Node12 -->
<g id="edge13_Node000011_Node000012" class="edge">
<title>Node11&#45;&gt;Node12</title>
<g id="a_edge13_Node000011_Node000012"><a xlink:title=" ">
<path fill="none" stroke="#63b8ff" d="M995.69,-130.25C1003.51,-130.25 1011.63,-130.25 1019.74,-130.25"/>
<polygon fill="#63b8ff" stroke="#63b8ff" points="1019.64,-133.75 1029.64,-130.25 1019.64,-126.75 1019.64,-133.75"/>
</a>
</g>
</g>
<!-- Node16&#45;&gt;Node3 -->
<g id="edge19_Node000016_Node000003" class="edge">
<title>Node16&#45;&gt;Node3</title>
<g id="a_edge19_Node000016_Node000003"><a xlink:title=" ">
<path fill="none" stroke="#63b8ff" d="M218.13,-204.97C236.92,-209.52 259.5,-214.99 279.5,-219.84"/>
<polygon fill="#63b8ff" stroke="#63b8ff" points="278.61,-223.22 289.15,-222.17 280.25,-216.42 278.61,-223.22"/>
</a>
</g>
</g>
<!-- Node16&#45;&gt;Node14 -->
<g id="edge20_Node000016_Node000014" class="edge">
<title>Node16&#45;&gt;Node14</title>
<g id="a_edge20_Node000016_Node000014"><a xlink:title=" ">
<path fill="none" stroke="#63b8ff" d="M232.28,-190.58C276.08,-186.8 339.26,-181.28 394.5,-176.25 405.57,-175.24 417.36,-174.15 428.74,-173.08"/>
<polygon fill="#63b8ff" stroke="#63b8ff" points="428.81,-176.59 438.44,-172.17 428.16,-169.62 428.81,-176.59"/>
</a>
</g>
</g>
<!-- Node18 -->
<g id="Node000018" class="node">
<title>Node18</title>
<g id="a_Node000018"><a xlink:href="a01928.html#a6cc54ee40009c61b5f6526f5edff004f" target="_top" xlink:title=" ">
<polygon fill="white" stroke="#666666" points="689.75,-93.5 587.5,-93.5 587.5,-75 689.75,-75 689.75,-93.5"/>
<text text-anchor="middle" x="638.62" y="-80" font-family="Helvetica,sans-Serif" font-size="10.00">arax_pipe_size_dec</text>
</a>
</g>
</g>
<!-- Node17&#45;&gt;Node18 -->
<g id="edge22_Node000017_Node000018" class="edge">
<title>Node17&#45;&gt;Node18</title>
<g id="a_edge22_Node000017_Node000018"><a xlink:title=" ">
<path fill="none" stroke="#63b8ff" d="M229.39,-83.36C314.53,-83.55 484.51,-83.92 575.98,-84.12"/>
<polygon fill="#63b8ff" stroke="#63b8ff" points="575.75,-87.62 585.75,-84.14 575.76,-80.62 575.75,-87.62"/>
</a>
</g>
</g>
<!-- Node22 -->
<g id="Node000022" class="node">
<title>Node22</title>
<g id="a_Node000022"><a xlink:href="a02355.html#ac9828b5c2758940f6d3c7d4335228de5" target="_top" xlink:title=" ">
<polygon fill="white" stroke="#666666" points="381.38,-55.5 282.12,-55.5 282.12,-37 381.38,-37 381.38,-55.5"/>
<text text-anchor="middle" x="331.75" y="-42" font-family="Helvetica,sans-Serif" font-size="10.00">arch_alloc_allocate</text>
</a>
</g>
</g>
<!-- Node17&#45;&gt;Node22 -->
<g id="edge32_Node000017_Node000022" class="edge">
<title>Node17&#45;&gt;Node22</title>
<g id="a_edge32_Node000017_Node000022"><a xlink:title=" ">
<path fill="none" stroke="#63b8ff" d="M218.13,-73.53C236.92,-68.98 259.5,-63.51 279.5,-58.66"/>
<polygon fill="#63b8ff" stroke="#63b8ff" points="280.25,-62.08 289.15,-56.33 278.61,-55.28 280.25,-62.08"/>
</a>
</g>
</g>
<!-- Node23 -->
<g id="Node000023" class="node">
<title>Node23</title>
<g id="a_Node000023"><a xlink:href="a01955.html#ae06a9e78e6a4f6c9c8afcf0f4862ce29" target="_top" xlink:title=" ">
<polygon fill="white" stroke="#666666" points="368.25,-129.5 295.25,-129.5 295.25,-111 368.25,-111 368.25,-129.5"/>
<text text-anchor="middle" x="331.75" y="-116" font-family="Helvetica,sans-Serif" font-size="10.00">utils_list_add</text>
</a>
</g>
</g>
<!-- Node17&#45;&gt;Node23 -->
<g id="edge33_Node000017_Node000023" class="edge">
<title>Node17&#45;&gt;Node23</title>
<g id="a_edge33_Node000017_Node000023"><a xlink:title=" ">
<path fill="none" stroke="#63b8ff" d="M218.13,-92.97C238.29,-97.85 262.83,-103.8 283.85,-108.89"/>
<polygon fill="#63b8ff" stroke="#63b8ff" points="282.78,-112.23 293.32,-111.18 284.43,-105.43 282.78,-112.23"/>
</a>
</g>
</g>
<!-- Node25 -->
<g id="Node000025" class="node">
<title>Node25</title>
<g id="a_Node000025"><a xlink:href="a01955.html#a63f2791c9b5c8e2fa15967cfafb7ccbb" target="_top" xlink:title=" ">
<polygon fill="white" stroke="#666666" points="379.88,-18.5 283.62,-18.5 283.62,0 379.88,0 379.88,-18.5"/>
<text text-anchor="middle" x="331.75" y="-5" font-family="Helvetica,sans-Serif" font-size="10.00">utils_list_node_init</text>
</a>
</g>
</g>
<!-- Node17&#45;&gt;Node25 -->
<g id="edge35_Node000017_Node000025" class="edge">
<title>Node17&#45;&gt;Node25</title>
<g id="a_edge35_Node000017_Node000025"><a xlink:title=" ">
<path fill="none" stroke="#63b8ff" d="M191.6,-73.56C208.9,-61.59 240.02,-41.23 269,-28.25 273.56,-26.21 278.4,-24.3 283.28,-22.55"/>
<polygon fill="#63b8ff" stroke="#63b8ff" points="284.17,-25.94 292.53,-19.43 281.93,-19.31 284.17,-25.94"/>
</a>
</g>
</g>
<!-- Node18&#45;&gt;Node18 -->
<g id="edge23_Node000018_Node000018" class="edge">
<title>Node18&#45;&gt;Node18</title>
<g id="a_edge23_Node000018_Node000018"><a xlink:title=" ">
<path fill="none" stroke="#63b8ff" d="M616.39,-93.75C605.58,-102.32 612.99,-111.5 638.62,-111.5 653.05,-111.5 661.7,-108.59 664.59,-104.53"/>
<polygon fill="#63b8ff" stroke="#63b8ff" points="667.93,-103.48 661.35,-95.18 661.31,-105.77 667.93,-103.48"/>
</a>
</g>
</g>
<!-- Node19 -->
<g id="Node000019" class="node">
<title>Node19</title>
<g id="a_Node000019"><a xlink:href="a01940.html#a63b80783cfb3106ec4169ce082f153c0" target="_top" xlink:title=" ">
<polygon fill="white" stroke="#666666" points="840,-93.5 725.75,-93.5 725.75,-75 840,-75 840,-93.5"/>
<text text-anchor="middle" x="782.88" y="-80" font-family="Helvetica,sans-Serif" font-size="10.00">arax_throttle_size_dec</text>
</a>
</g>
</g>
<!-- Node18&#45;&gt;Node19 -->
<g id="edge24_Node000018_Node000019" class="edge">
<title>Node18&#45;&gt;Node19</title>
<g id="a_edge24_Node000018_Node000019"><a xlink:title=" ">
<path fill="none" stroke="#63b8ff" d="M690.18,-84.25C697.99,-84.25 706.17,-84.25 714.29,-84.25"/>
<polygon fill="#63b8ff" stroke="#63b8ff" points="714.17,-87.75 724.17,-84.25 714.17,-80.75 714.17,-87.75"/>
</a>
</g>
</g>
<!-- Node19&#45;&gt;Node7 -->
<g id="edge26_Node000019_Node000007" class="edge">
<title>Node19&#45;&gt;Node7</title>
<g id="a_edge26_Node000019_Node000007"><a xlink:title=" ">
<path fill="none" stroke="#63b8ff" d="M840.48,-87.63C849.98,-88.19 859.9,-88.79 869.59,-89.36"/>
<polygon fill="#63b8ff" stroke="#63b8ff" points="869.12,-92.84 879.31,-89.94 869.54,-85.85 869.12,-92.84"/>
</a>
</g>
</g>
<!-- Node19&#45;&gt;Node11 -->
<g id="edge27_Node000019_Node000011" class="edge">
<title>Node19&#45;&gt;Node11</title>
<g id="a_edge27_Node000019_Node000011"><a xlink:title=" ">
<path fill="none" stroke="#63b8ff" d="M815.5,-93.89C837.76,-100.68 867.8,-109.84 892.16,-117.26"/>
<polygon fill="#63b8ff" stroke="#63b8ff" points="890.87,-120.53 901.46,-120.1 892.91,-113.83 890.87,-120.53"/>
</a>
</g>
</g>
<!-- Node19&#45;&gt;Node19 -->
<g id="edge25_Node000019_Node000019" class="edge">
<title>Node19&#45;&gt;Node19</title>
<g id="a_edge25_Node000019_Node000019"><a xlink:title=" ">
<path fill="none" stroke="#63b8ff" d="M760.64,-93.75C749.83,-102.32 757.24,-111.5 782.88,-111.5 797.3,-111.5 805.95,-108.59 808.84,-104.53"/>
<polygon fill="#63b8ff" stroke="#63b8ff" points="812.18,-103.48 805.6,-95.18 805.56,-105.77 812.18,-103.48"/>
</a>
</g>
</g>
<!-- Node20 -->
<g id="Node000020" class="node">
<title>Node20</title>
<g id="a_Node000020"><a xlink:href="a02364.html#a1bfeaeb9b81855e640d7a67cc9d92b17" target="_top" xlink:title=" ">
<polygon fill="white" stroke="#666666" points="989.88,-65.5 881.62,-65.5 881.62,-47 989.88,-47 989.88,-65.5"/>
<text text-anchor="middle" x="935.75" y="-52" font-family="Helvetica,sans-Serif" font-size="10.00">async_condition_wait</text>
</a>
</g>
</g>
<!-- Node19&#45;&gt;Node20 -->
<g id="edge28_Node000019_Node000020" class="edge">
<title>Node19&#45;&gt;Node20</title>
<g id="a_edge28_Node000019_Node000020"><a xlink:title=" ">
<path fill="none" stroke="#63b8ff" d="M836.22,-74.54C847.51,-72.44 859.56,-70.2 871.22,-68.04"/>
<polygon fill="#63b8ff" stroke="#63b8ff" points="871.56,-71.54 880.75,-66.27 870.28,-64.65 871.56,-71.54"/>
</a>
</g>
</g>
<!-- Node20&#45;&gt;Node8 -->
<g id="edge30_Node000020_Node000008" class="edge">
<title>Node20&#45;&gt;Node8</title>
<g id="a_edge30_Node000020_Node000008"><a xlink:title=" ">
<path fill="none" stroke="#63b8ff" d="M979.64,-65.97C999.99,-70.58 1024.53,-76.15 1046.12,-81.04"/>
<polygon fill="#63b8ff" stroke="#63b8ff" points="1045.11,-84.4 1055.64,-83.19 1046.66,-77.57 1045.11,-84.4"/>
</a>
</g>
</g>
<!-- Node20&#45;&gt;Node12 -->
<g id="edge29_Node000020_Node000012" class="edge">
<title>Node20&#45;&gt;Node12</title>
<g id="a_edge29_Node000020_Node000012"><a xlink:title=" ">
<path fill="none" stroke="#63b8ff" d="M975.52,-65.9C982.43,-68.41 989.37,-71.5 995.5,-75.25 1014.8,-87.06 1011.95,-99.85 1031.5,-111.25 1034.85,-113.21 1038.42,-114.97 1042.09,-116.55"/>
<polygon fill="#63b8ff" stroke="#63b8ff" points="1040.63,-119.74 1051.22,-120.03 1043.12,-113.2 1040.63,-119.74"/>
</a>
</g>
</g>
<!-- Node21 -->
<g id="Node000021" class="node">
<title>Node21</title>
<g id="a_Node000021"><a xlink:href="a02358.html#a7ab7c7fe9cb93434dde72a4e464a7e69" target="_top" xlink:title=" ">
<polygon fill="white" stroke="#666666" points="1158.88,-65.5 1043.12,-65.5 1043.12,-47 1158.88,-47 1158.88,-65.5"/>
<text text-anchor="middle" x="1101" y="-52" font-family="Helvetica,sans-Serif" font-size="10.00">async_semaphore_dec</text>
</a>
</g>
</g>
<!-- Node20&#45;&gt;Node21 -->
<g id="edge31_Node000020_Node000021" class="edge">
<title>Node20&#45;&gt;Node21</title>
<g id="a_edge31_Node000020_Node000021"><a xlink:title=" ">
<path fill="none" stroke="#63b8ff" d="M990.2,-56.25C1003.35,-56.25 1017.61,-56.25 1031.37,-56.25"/>
<polygon fill="#63b8ff" stroke="#63b8ff" points="1031.26,-59.75 1041.26,-56.25 1031.26,-52.75 1031.26,-59.75"/>
</a>
</g>
</g>
<!-- Node24 -->
<g id="Node000024" class="node">
<title>Node24</title>
<g id="a_Node000024"><a xlink:href="a01955.html#a5c575f52a42e0e0d2fb41bda2d1268ce" target="_top" xlink:title=" ">
<polygon fill="white" stroke="#666666" points="540.62,-129.5 441.38,-129.5 441.38,-111 540.62,-111 540.62,-129.5"/>
<text text-anchor="middle" x="491" y="-116" font-family="Helvetica,sans-Serif" font-size="10.00">utils_list_node_add</text>
</a>
</g>
</g>
<!-- Node23&#45;&gt;Node24 -->
<g id="edge34_Node000023_Node000024" class="edge">
<title>Node23&#45;&gt;Node24</title>
<g id="a_edge34_Node000023_Node000024"><a xlink:title=" ">
<path fill="none" stroke="#63b8ff" d="M368.43,-120.25C386.55,-120.25 409.06,-120.25 429.77,-120.25"/>
<polygon fill="#63b8ff" stroke="#63b8ff" points="429.53,-123.75 439.53,-120.25 429.53,-116.75 429.53,-123.75"/>
</a>
</g>
</g>
<!-- Node26&#45;&gt;Node25 -->
<g id="edge37_Node000026_Node000025" class="edge">
<title>Node26&#45;&gt;Node25</title>
<g id="a_edge37_Node000026_Node000025"><a xlink:title=" ">
<path fill="none" stroke="#63b8ff" d="M233.15,-21.39C245.84,-19.81 259.38,-18.13 272.2,-16.53"/>
<polygon fill="#63b8ff" stroke="#63b8ff" points="272.26,-20.05 281.75,-15.34 271.4,-13.11 272.26,-20.05"/>
</a>
</g>
</g>
</g>
</svg>
