<?xml version="1.0" encoding="UTF-8" standalone="no"?>
<!DOCTYPE svg PUBLIC "-//W3C//DTD SVG 1.1//EN"
 "http://www.w3.org/Graphics/SVG/1.1/DTD/svg11.dtd">
<!-- Generated by graphviz version 12.2.1 (0)
 -->
<!-- Title: arax_throttle_size_dec Pages: 1 -->
<svg width="1022pt" height="277pt"
 viewBox="0.00 0.00 1022.25 276.75" xmlns="http://www.w3.org/2000/svg" xmlns:xlink="http://www.w3.org/1999/xlink">
<g id="graph0" class="graph" transform="scale(1 1) rotate(0) translate(4 272.75)">
<title>arax_throttle_size_dec</title>
<!-- Node1 -->
<g id="Node000001" class="node">
<title>Node1</title>
<g id="a_Node000001"><a xlink:title=" ">
<polygon fill="#999999" stroke="#666666" points="1014.25,-194.5 900,-194.5 900,-176 1014.25,-176 1014.25,-194.5"/>
<text text-anchor="middle" x="957.12" y="-181" font-family="Helvetica,sans-Serif" font-size="10.00">arax_throttle_size_dec</text>
</a>
</g>
</g>
<!-- Node1&#45;&gt;Node1 -->
<g id="edge26_Node000001_Node000001" class="edge">
<title>Node1&#45;&gt;Node1</title>
<g id="a_edge26_Node000001_Node000001"><a xlink:title=" ">
<path fill="none" stroke="#63b8ff" d="M983.09,-205.53C980.2,-209.59 971.55,-212.5 957.12,-212.5 931.49,-212.5 924.08,-203.32 934.89,-194.75"/>
<polygon fill="#63b8ff" stroke="#63b8ff" points="986.43,-204.48 979.85,-196.18 979.81,-206.77 986.43,-204.48"/>
</a>
</g>
</g>
<!-- Node2 -->
<g id="Node000002" class="node">
<title>Node2</title>
<g id="a_Node000002"><a xlink:href="a01916.html#a9c8e53aad4b86498a6b709c35c156fc3" target="_top" xlink:title=" ">
<polygon fill="white" stroke="#666666" points="725.75,-249.5 618.25,-249.5 618.25,-231 725.75,-231 725.75,-249.5"/>
<text text-anchor="middle" x="672" y="-236" font-family="Helvetica,sans-Serif" font-size="10.00">arax_accel_size_dec</text>
</a>
</g>
</g>
<!-- Node1&#45;&gt;Node2 -->
<g id="edge1_Node000001_Node000002" class="edge">
<title>Node1&#45;&gt;Node2</title>
<g id="a_edge1_Node000001_Node000002"><a xlink:title=" ">
<path fill="none" stroke="#63b8ff" d="M894.87,-197.15C843.45,-207.14 770.9,-221.23 722.94,-230.55"/>
<polygon fill="#63b8ff" stroke="#63b8ff" points="895.52,-200.59 904.67,-195.24 894.19,-193.72 895.52,-200.59"/>
</a>
</g>
</g>
<!-- Node4 -->
<g id="Node000004" class="node">
<title>Node4</title>
<g id="a_Node000004"><a xlink:href="a01928.html#a6cc54ee40009c61b5f6526f5edff004f" target="_top" xlink:title=" ">
<polygon fill="white" stroke="#666666" points="864,-167.5 761.75,-167.5 761.75,-149 864,-149 864,-167.5"/>
<text text-anchor="middle" x="812.88" y="-154" font-family="Helvetica,sans-Serif" font-size="10.00">arax_pipe_size_dec</text>
</a>
</g>
</g>
<!-- Node1&#45;&gt;Node4 -->
<g id="edge4_Node000001_Node000004" class="edge">
<title>Node1&#45;&gt;Node4</title>
<g id="a_edge4_Node000001_Node000004"><a xlink:title=" ">
<path fill="none" stroke="#63b8ff" d="M893.75,-173.41C883.87,-171.54 873.76,-169.62 864.2,-167.8"/>
<polygon fill="#63b8ff" stroke="#63b8ff" points="892.81,-176.79 903.28,-175.22 894.11,-169.92 892.81,-176.79"/>
</a>
</g>
</g>
<!-- Node2&#45;&gt;Node2 -->
<g id="edge2_Node000002_Node000002" class="edge">
<title>Node2&#45;&gt;Node2</title>
<g id="a_edge2_Node000002_Node000002"><a xlink:title=" ">
<path fill="none" stroke="#63b8ff" d="M697.36,-260.53C694.54,-264.59 686.08,-267.5 672,-267.5 646.96,-267.5 639.72,-258.32 650.29,-249.75"/>
<polygon fill="#63b8ff" stroke="#63b8ff" points="700.71,-259.53 694.2,-251.18 694.08,-261.77 700.71,-259.53"/>
</a>
</g>
</g>
<!-- Node3 -->
<g id="Node000003" class="node">
<title>Node3</title>
<g id="a_Node000003"><a xlink:href="a01922.html#af8ede6fc8d207004035f45d945688d2c" target="_top" xlink:title=" ">
<polygon fill="white" stroke="#666666" points="253.62,-268.75 155.12,-268.75 155.12,-239.75 253.62,-239.75 253.62,-268.75"/>
<text text-anchor="start" x="163.12" y="-255.25" font-family="Helvetica,sans-Serif" font-size="10.00">arax_data_allocate</text>
<text text-anchor="middle" x="204.38" y="-244.75" font-family="Helvetica,sans-Serif" font-size="10.00">_remote</text>
</a>
</g>
</g>
<!-- Node2&#45;&gt;Node3 -->
<g id="edge3_Node000002_Node000003" class="edge">
<title>Node2&#45;&gt;Node3</title>
<g id="a_edge3_Node000002_Node000003"><a xlink:title=" ">
<path fill="none" stroke="#63b8ff" d="M606.66,-242.18C512.34,-245.02 338.57,-250.25 254.07,-252.79"/>
<polygon fill="#63b8ff" stroke="#63b8ff" points="606.64,-245.69 616.53,-241.89 606.43,-238.69 606.64,-245.69"/>
</a>
</g>
</g>
<!-- Node4&#45;&gt;Node4 -->
<g id="edge25_Node000004_Node000004" class="edge">
<title>Node4&#45;&gt;Node4</title>
<g id="a_edge25_Node000004_Node000004"><a xlink:title=" ">
<path fill="none" stroke="#63b8ff" d="M838.23,-178.53C835.41,-182.59 826.96,-185.5 812.88,-185.5 787.84,-185.5 780.6,-176.32 791.16,-167.75"/>
<polygon fill="#63b8ff" stroke="#63b8ff" points="841.59,-177.53 835.07,-169.18 834.96,-179.77 841.59,-177.53"/>
</a>
</g>
</g>
<!-- Node5 -->
<g id="Node000005" class="node">
<title>Node5</title>
<g id="a_Node000005"><a xlink:href="a01925.html#a402bbd6fa197c2c48d527325e5e2cf5b" target="_top" xlink:title=" ">
<polygon fill="white" stroke="#666666" points="724.25,-137.5 619.75,-137.5 619.75,-119 724.25,-119 724.25,-137.5"/>
<text text-anchor="middle" x="672" y="-124" font-family="Helvetica,sans-Serif" font-size="10.00">arax_object_register</text>
</a>
</g>
</g>
<!-- Node4&#45;&gt;Node5 -->
<g id="edge5_Node000004_Node000005" class="edge">
<title>Node4&#45;&gt;Node5</title>
<g id="a_edge5_Node000004_Node000005"><a xlink:title=" ">
<path fill="none" stroke="#63b8ff" d="M755.88,-146.15C743.24,-143.42 729.98,-140.56 717.86,-137.94"/>
<polygon fill="#63b8ff" stroke="#63b8ff" points="754.79,-149.5 765.31,-148.19 756.27,-142.66 754.79,-149.5"/>
</a>
</g>
</g>
<!-- Node6 -->
<g id="Node000006" class="node">
<title>Node6</title>
<g id="a_Node000006"><a xlink:href="a01916.html#a0706a66a62ca8710342ac1c097b703ed" target="_top" xlink:title=" ">
<polygon fill="white" stroke="#666666" points="410.62,-166.5 328.62,-166.5 328.62,-148 410.62,-148 410.62,-166.5"/>
<text text-anchor="middle" x="369.62" y="-153" font-family="Helvetica,sans-Serif" font-size="10.00">arax_accel_init</text>
</a>
</g>
</g>
<!-- Node5&#45;&gt;Node6 -->
<g id="edge6_Node000005_Node000006" class="edge">
<title>Node5&#45;&gt;Node6</title>
<g id="a_edge6_Node000005_Node000006"><a xlink:title=" ">
<path fill="none" stroke="#63b8ff" d="M608.1,-135.52C599.42,-136.47 590.62,-137.4 582.25,-138.25 522.61,-144.29 453.42,-150.31 410.83,-153.91"/>
<polygon fill="#63b8ff" stroke="#63b8ff" points="608.34,-139.01 617.89,-134.43 607.57,-132.05 608.34,-139.01"/>
</a>
</g>
</g>
<!-- Node7 -->
<g id="Node000007" class="node">
<title>Node7</title>
<g id="a_Node000007"><a xlink:href="a01922.html#a526989df37e605824d846b7ba54b43ea" target="_top" xlink:title=" ">
<polygon fill="white" stroke="#666666" points="582.25,-83.5 468.75,-83.5 468.75,-65 582.25,-65 582.25,-83.5"/>
<text text-anchor="middle" x="525.5" y="-70" font-family="Helvetica,sans-Serif" font-size="10.00">arax_data_init_aligned</text>
</a>
</g>
</g>
<!-- Node5&#45;&gt;Node7 -->
<g id="edge7_Node000005_Node000007" class="edge">
<title>Node5&#45;&gt;Node7</title>
<g id="a_edge7_Node000005_Node000007"><a xlink:title=" ">
<path fill="none" stroke="#63b8ff" d="M634.69,-114.68C608.95,-105.06 575.05,-92.39 552.11,-83.82"/>
<polygon fill="#63b8ff" stroke="#63b8ff" points="633.16,-117.84 643.75,-118.07 635.61,-111.29 633.16,-117.84"/>
</a>
</g>
</g>
<!-- Node10 -->
<g id="Node000010" class="node">
<title>Node10</title>
<g id="a_Node000010"><a xlink:href="a01931.html#a86ac572ea8f5f613129192c47d598818" target="_top" xlink:title=" ">
<polygon fill="white" stroke="#666666" points="564.25,-28.5 486.75,-28.5 486.75,-10 564.25,-10 564.25,-28.5"/>
<text text-anchor="middle" x="525.5" y="-15" font-family="Helvetica,sans-Serif" font-size="10.00">arax_proc_init</text>
</a>
</g>
</g>
<!-- Node5&#45;&gt;Node10 -->
<g id="edge10_Node000005_Node000010" class="edge">
<title>Node5&#45;&gt;Node10</title>
<g id="a_edge10_Node000005_Node000010"><a xlink:title=" ">
<path fill="none" stroke="#63b8ff" d="M651.44,-111.48C633.73,-96.51 606.76,-74.26 582.25,-56.25 568.96,-46.48 553.26,-36.17 541.91,-28.92"/>
<polygon fill="#63b8ff" stroke="#63b8ff" points="648.75,-113.78 658.63,-117.59 653.28,-108.45 648.75,-113.78"/>
</a>
</g>
</g>
<!-- Node12 -->
<g id="Node000012" class="node">
<title>Node12</title>
<g id="a_Node000012"><a xlink:href="a01937.html#a27bee94f7a23281c8b2b72ec433f6059" target="_top" xlink:title=" ">
<polygon fill="white" stroke="#666666" points="568,-203.5 483,-203.5 483,-185 568,-185 568,-203.5"/>
<text text-anchor="middle" x="525.5" y="-190" font-family="Helvetica,sans-Serif" font-size="10.00">arax_task_alloc</text>
</a>
</g>
</g>
<!-- Node5&#45;&gt;Node12 -->
<g id="edge12_Node000005_Node000012" class="edge">
<title>Node5&#45;&gt;Node12</title>
<g id="a_edge12_Node000005_Node000012"><a xlink:title=" ">
<path fill="none" stroke="#63b8ff" d="M641.77,-142.96C624.56,-151.48 602.31,-162.26 582.25,-171.25 572.03,-175.83 560.61,-180.6 550.78,-184.6"/>
<polygon fill="#63b8ff" stroke="#63b8ff" points="643.02,-146.25 650.41,-138.66 639.9,-139.98 643.02,-146.25"/>
</a>
</g>
</g>
<!-- Node19 -->
<g id="Node000019" class="node">
<title>Node19</title>
<g id="a_Node000019"><a xlink:href="a01943.html#a83ddb422946cf774c687c1ab63dcda15" target="_top" xlink:title=" ">
<polygon fill="white" stroke="#666666" points="568.75,-129.5 482.25,-129.5 482.25,-111 568.75,-111 568.75,-129.5"/>
<text text-anchor="middle" x="525.5" y="-116" font-family="Helvetica,sans-Serif" font-size="10.00">arax_vaccel_init</text>
</a>
</g>
</g>
<!-- Node5&#45;&gt;Node19 -->
<g id="edge21_Node000005_Node000019" class="edge">
<title>Node5&#45;&gt;Node19</title>
<g id="a_edge21_Node000005_Node000019"><a xlink:title=" ">
<path fill="none" stroke="#63b8ff" d="M608.2,-124.77C594.99,-124.04 581.36,-123.29 569.1,-122.61"/>
<polygon fill="#63b8ff" stroke="#63b8ff" points="607.96,-128.27 618.14,-125.32 608.35,-121.28 607.96,-128.27"/>
</a>
</g>
</g>
<!-- Node8 -->
<g id="Node000008" class="node">
<title>Node8</title>
<g id="a_Node000008"><a xlink:href="a01922.html#aeefe449d4a278e9fc4b9c5f7e31000a1" target="_top" xlink:title=" ">
<polygon fill="white" stroke="#666666" points="408.38,-55.5 330.88,-55.5 330.88,-37 408.38,-37 408.38,-55.5"/>
<text text-anchor="middle" x="369.62" y="-42" font-family="Helvetica,sans-Serif" font-size="10.00">arax_data_init</text>
</a>
</g>
</g>
<!-- Node7&#45;&gt;Node8 -->
<g id="edge8_Node000007_Node000008" class="edge">
<title>Node7&#45;&gt;Node8</title>
<g id="a_edge8_Node000007_Node000008"><a xlink:title=" ">
<path fill="none" stroke="#63b8ff" d="M460.27,-62.56C442.62,-59.35 424.04,-55.97 408.41,-53.13"/>
<polygon fill="#63b8ff" stroke="#63b8ff" points="459.16,-65.92 469.62,-64.26 460.41,-59.03 459.16,-65.92"/>
</a>
</g>
</g>
<!-- Node9 -->
<g id="Node000009" class="node">
<title>Node9</title>
<g id="a_Node000009"><a xlink:href="a02190.html#ga9260ad2dd766aec3274c518e2e312b1f" target="_top" xlink:title=" ">
<polygon fill="white" stroke="#666666" points="249.12,-55.5 159.62,-55.5 159.62,-37 249.12,-37 249.12,-55.5"/>
<text text-anchor="middle" x="204.38" y="-42" font-family="Helvetica,sans-Serif" font-size="10.00">ARAX_BUFFER</text>
</a>
</g>
</g>
<!-- Node8&#45;&gt;Node9 -->
<g id="edge9_Node000008_Node000009" class="edge">
<title>Node8&#45;&gt;Node9</title>
<g id="a_edge9_Node000008_Node000009"><a xlink:title=" ">
<path fill="none" stroke="#63b8ff" d="M319.5,-46.25C297.2,-46.25 271.04,-46.25 249.39,-46.25"/>
<polygon fill="#63b8ff" stroke="#63b8ff" points="319.25,-49.75 329.25,-46.25 319.25,-42.75 319.25,-49.75"/>
</a>
</g>
</g>
<!-- Node11 -->
<g id="Node000011" class="node">
<title>Node11</title>
<g id="a_Node000011"><a xlink:href="a02188.html#gafad2dafb4a231390f02b7c866295b7d9" target="_top" xlink:title=" ">
<polygon fill="white" stroke="#666666" points="418.12,-18.5 321.12,-18.5 321.12,0 418.12,0 418.12,-18.5"/>
<text text-anchor="middle" x="369.62" y="-5" font-family="Helvetica,sans-Serif" font-size="10.00">arax_proc_register</text>
</a>
</g>
</g>
<!-- Node10&#45;&gt;Node11 -->
<g id="edge11_Node000010_Node000011" class="edge">
<title>Node10&#45;&gt;Node11</title>
<g id="a_edge11_Node000010_Node000011"><a xlink:title=" ">
<path fill="none" stroke="#63b8ff" d="M475.2,-16.05C457.02,-14.86 436.47,-13.53 418.42,-12.36"/>
<polygon fill="#63b8ff" stroke="#63b8ff" points="474.75,-19.52 484.95,-16.68 475.2,-12.54 474.75,-19.52"/>
</a>
</g>
</g>
<!-- Node13 -->
<g id="Node000013" class="node">
<title>Node13</title>
<g id="a_Node000013"><a xlink:href="a02189.html#gac9f0f3fbb14da879d3ff09bd367bbb24" target="_top" xlink:title=" ">
<polygon fill="white" stroke="#666666" points="413.62,-203.5 325.62,-203.5 325.62,-185 413.62,-185 413.62,-203.5"/>
<text text-anchor="middle" x="369.62" y="-190" font-family="Helvetica,sans-Serif" font-size="10.00">arax_task_issue</text>
</a>
</g>
</g>
<!-- Node12&#45;&gt;Node13 -->
<g id="edge13_Node000012_Node000013" class="edge">
<title>Node12&#45;&gt;Node13</title>
<g id="a_edge13_Node000012_Node000013"><a xlink:title=" ">
<path fill="none" stroke="#63b8ff" d="M471.48,-194.25C452.69,-194.25 431.79,-194.25 413.91,-194.25"/>
<polygon fill="#63b8ff" stroke="#63b8ff" points="471.35,-197.75 481.35,-194.25 471.35,-190.75 471.35,-197.75"/>
</a>
</g>
</g>
<!-- Node13&#45;&gt;Node3 -->
<g id="edge14_Node000013_Node000003" class="edge">
<title>Node13&#45;&gt;Node3</title>
<g id="a_edge14_Node000013_Node000003"><a xlink:title=" ">
<path fill="none" stroke="#63b8ff" d="M331.66,-207.83C306.13,-217.22 272.16,-229.7 245.89,-239.36"/>
<polygon fill="#63b8ff" stroke="#63b8ff" points="332.8,-211.15 340.98,-204.41 330.38,-204.58 332.8,-211.15"/>
</a>
</g>
</g>
<!-- Node14 -->
<g id="Node000014" class="node">
<title>Node14</title>
<g id="a_Node000014"><a xlink:href="a01922.html#a696bc4319d0f6c6baa7d797a8df6b56f" target="_top" xlink:title=" ">
<polygon fill="white" stroke="#666666" points="243.5,-221.5 165.25,-221.5 165.25,-203 243.5,-203 243.5,-221.5"/>
<text text-anchor="middle" x="204.38" y="-208" font-family="Helvetica,sans-Serif" font-size="10.00">arax_data_get</text>
</a>
</g>
</g>
<!-- Node13&#45;&gt;Node14 -->
<g id="edge15_Node000013_Node000014" class="edge">
<title>Node13&#45;&gt;Node14</title>
<g id="a_edge15_Node000013_Node000014"><a xlink:title=" ">
<path fill="none" stroke="#63b8ff" d="M313.97,-200.28C290.99,-202.81 264.79,-205.7 243.88,-208"/>
<polygon fill="#63b8ff" stroke="#63b8ff" points="314.25,-203.77 323.8,-199.19 313.48,-196.81 314.25,-203.77"/>
</a>
</g>
</g>
<!-- Node16 -->
<g id="Node000016" class="node">
<title>Node16</title>
<g id="a_Node000016"><a xlink:href="a01922.html#a8995f71dba475975efc37756783cfce9" target="_top" xlink:title=" ">
<polygon fill="white" stroke="#666666" points="243.5,-184.5 165.25,-184.5 165.25,-166 243.5,-166 243.5,-184.5"/>
<text text-anchor="middle" x="204.38" y="-171" font-family="Helvetica,sans-Serif" font-size="10.00">arax_data_set</text>
</a>
</g>
</g>
<!-- Node13&#45;&gt;Node16 -->
<g id="edge17_Node000013_Node000016" class="edge">
<title>Node13&#45;&gt;Node16</title>
<g id="a_edge17_Node000013_Node000016"><a xlink:title=" ">
<path fill="none" stroke="#63b8ff" d="M313.97,-187.89C290.99,-185.21 264.79,-182.16 243.88,-179.73"/>
<polygon fill="#63b8ff" stroke="#63b8ff" points="313.46,-191.35 323.8,-189.03 314.27,-184.4 313.46,-191.35"/>
</a>
</g>
</g>
<!-- Node17 -->
<g id="Node000017" class="node">
<title>Node17</title>
<g id="a_Node000017"><a xlink:href="a01922.html#af735744d0f8bec04394639a841d2ba0f" target="_top" xlink:title=" ">
<polygon fill="white" stroke="#666666" points="270.5,-147.5 138.25,-147.5 138.25,-129 270.5,-129 270.5,-147.5"/>
<text text-anchor="middle" x="204.38" y="-134" font-family="Helvetica,sans-Serif" font-size="10.00">ARAX_OBJ_DTOR_DECL</text>
</a>
</g>
</g>
<!-- Node13&#45;&gt;Node17 -->
<g id="edge19_Node000013_Node000017" class="edge">
<title>Node13&#45;&gt;Node17</title>
<g id="a_edge19_Node000013_Node000017"><a xlink:title=" ">
<path fill="none" stroke="#63b8ff" d="M322.22,-180.99C316.87,-179.19 311.54,-177.26 306.5,-175.25 289.89,-168.61 287.15,-163.78 270.5,-157.25 261.73,-153.81 252.08,-150.66 242.96,-147.97"/>
<polygon fill="#63b8ff" stroke="#63b8ff" points="321.08,-184.3 331.68,-184.04 323.23,-177.64 321.08,-184.3"/>
</a>
</g>
</g>
<!-- Node18 -->
<g id="Node000018" class="node">
<title>Node18</title>
<g id="a_Node000018"><a xlink:href="a02189.html#ga1418f4cd7336bf77cce7b955a1bf7077" target="_top" xlink:title=" ">
<polygon fill="white" stroke="#666666" points="261.12,-110.5 147.62,-110.5 147.62,-92 261.12,-92 261.12,-110.5"/>
<text text-anchor="middle" x="204.38" y="-97" font-family="Helvetica,sans-Serif" font-size="10.00">arax_task_issue_sync</text>
</a>
</g>
</g>
<!-- Node13&#45;&gt;Node18 -->
<g id="edge20_Node000013_Node000018" class="edge">
<title>Node13&#45;&gt;Node18</title>
<g id="a_edge20_Node000013_Node000018"><a xlink:title=" ">
<path fill="none" stroke="#63b8ff" d="M314.9,-180.57C311.95,-178.98 309.12,-177.22 306.5,-175.25 283.14,-157.71 293.98,-137.64 270.5,-120.25 265.39,-116.46 259.54,-113.43 253.48,-111"/>
<polygon fill="#63b8ff" stroke="#63b8ff" points="313.37,-183.72 323.92,-184.66 316.26,-177.34 313.37,-183.72"/>
</a>
</g>
</g>
<!-- Node15 -->
<g id="Node000015" class="node">
<title>Node15</title>
<g id="a_Node000015"><a xlink:href="a01922.html#a7d8356bd5c8b6a8d7dffc6ba94cc22e5" target="_top" xlink:title=" ">
<polygon fill="white" stroke="#666666" points="102.25,-202.5 0,-202.5 0,-184 102.25,-184 102.25,-202.5"/>
<text text-anchor="middle" x="51.12" y="-189" font-family="Helvetica,sans-Serif" font-size="10.00">arax_data_memcpy</text>
</a>
</g>
</g>
<!-- Node14&#45;&gt;Node15 -->
<g id="edge16_Node000014_Node000015" class="edge">
<title>Node14&#45;&gt;Node15</title>
<g id="a_edge16_Node000014_Node000015"><a xlink:title=" ">
<path fill="none" stroke="#63b8ff" d="M153.79,-206.02C137.38,-203.96 119.1,-201.66 102.61,-199.59"/>
<polygon fill="#63b8ff" stroke="#63b8ff" points="152.96,-209.44 163.32,-207.22 153.83,-202.5 152.96,-209.44"/>
</a>
</g>
</g>
<!-- Node16&#45;&gt;Node15 -->
<g id="edge18_Node000016_Node000015" class="edge">
<title>Node16&#45;&gt;Node15</title>
<g id="a_edge18_Node000016_Node000015"><a xlink:title=" ">
<path fill="none" stroke="#63b8ff" d="M153.79,-181.15C137.38,-183.1 119.1,-185.28 102.61,-187.24"/>
<polygon fill="#63b8ff" stroke="#63b8ff" points="153.8,-184.67 163.31,-180.02 152.97,-177.72 153.8,-184.67"/>
</a>
</g>
</g>
<!-- Node19&#45;&gt;Node6 -->
<g id="edge24_Node000019_Node000006" class="edge">
<title>Node19&#45;&gt;Node6</title>
<g id="a_edge24_Node000019_Node000006"><a xlink:title=" ">
<path fill="none" stroke="#63b8ff" d="M473.15,-132.6C452.94,-137.46 430.06,-142.96 411.05,-147.53"/>
<polygon fill="#63b8ff" stroke="#63b8ff" points="473.69,-136.07 482.6,-130.33 472.06,-129.26 473.69,-136.07"/>
</a>
</g>
</g>
<!-- Node20 -->
<g id="Node000020" class="node">
<title>Node20</title>
<g id="a_Node000020"><a xlink:href="a02187.html#gaf8a10ab4e51e59c464ab3ab473e4a0f7" target="_top" xlink:title=" ">
<polygon fill="white" stroke="#666666" points="432.75,-129.5 306.5,-129.5 306.5,-111 432.75,-111 432.75,-129.5"/>
<text text-anchor="middle" x="369.62" y="-116" font-family="Helvetica,sans-Serif" font-size="10.00">arax_accel_acquire_phys</text>
</a>
</g>
</g>
<!-- Node19&#45;&gt;Node20 -->
<g id="edge22_Node000019_Node000020" class="edge">
<title>Node19&#45;&gt;Node20</title>
<g id="a_edge22_Node000019_Node000020"><a xlink:title=" ">
<path fill="none" stroke="#63b8ff" d="M470.71,-120.25C458.57,-120.25 445.58,-120.25 433.11,-120.25"/>
<polygon fill="#63b8ff" stroke="#63b8ff" points="470.53,-123.75 480.53,-120.25 470.53,-116.75 470.53,-123.75"/>
</a>
</g>
</g>
<!-- Node21 -->
<g id="Node000021" class="node">
<title>Node21</title>
<g id="a_Node000021"><a xlink:href="a02187.html#ga008252bb9afc2990fa2c5f4b980c9f27" target="_top" xlink:title=" ">
<polygon fill="white" stroke="#666666" points="432,-92.5 307.25,-92.5 307.25,-74 432,-74 432,-92.5"/>
<text text-anchor="middle" x="369.62" y="-79" font-family="Helvetica,sans-Serif" font-size="10.00">arax_accel_acquire_type</text>
</a>
</g>
</g>
<!-- Node19&#45;&gt;Node21 -->
<g id="edge23_Node000019_Node000021" class="edge">
<title>Node19&#45;&gt;Node21</title>
<g id="a_edge23_Node000019_Node000021"><a xlink:title=" ">
<path fill="none" stroke="#63b8ff" d="M473.15,-107.9C452.94,-103.04 430.06,-97.54 411.05,-92.97"/>
<polygon fill="#63b8ff" stroke="#63b8ff" points="472.06,-111.24 482.6,-110.17 473.69,-104.43 472.06,-111.24"/>
</a>
</g>
</g>
</g>
</svg>
