<?xml version="1.0" encoding="UTF-8" standalone="no"?>
<!DOCTYPE svg PUBLIC "-//W3C//DTD SVG 1.1//EN"
 "http://www.w3.org/Graphics/SVG/1.1/DTD/svg11.dtd">
<!-- Generated by graphviz version 8.0.5 (0)
 -->
<!-- Title: async_completion_wait Pages: 1 -->
<svg width="494pt" height="64pt"
 viewBox="0.00 0.00 494.25 63.50" xmlns="http://www.w3.org/2000/svg" xmlns:xlink="http://www.w3.org/1999/xlink">
<g id="graph0" class="graph" transform="scale(1 1) rotate(0) translate(4 59.5)">
<title>async_completion_wait</title>
<!-- Node1 -->
<g id="Node000001" class="node">
<title>Node1</title>
<g id="a_Node000001"><a xlink:title=" ">
<polygon fill="#999999" stroke="#666666" points="116.5,-36.5 0,-36.5 0,-18 116.5,-18 116.5,-36.5"/>
<text text-anchor="middle" x="58.25" y="-23" font-family="Helvetica,sans-Serif" font-size="10.00">async_completion_wait</text>
</a>
</g>
</g>
<!-- Node2 -->
<g id="Node000002" class="node">
<title>Node2</title>
<g id="a_Node000002"><a xlink:href="a02346.html#aa459f71b73bbc23f0b4bb342d093dde3" target="_top" xlink:title=" ">
<polygon fill="white" stroke="#666666" points="242,-55.5 152.5,-55.5 152.5,-37 242,-37 242,-55.5"/>
<text text-anchor="middle" x="197.25" y="-42" font-family="Helvetica,sans-Serif" font-size="10.00">_add_completion</text>
</a>
</g>
</g>
<!-- Node1&#45;&gt;Node2 -->
<g id="edge1_Node000001_Node000002" class="edge">
<title>Node1&#45;&gt;Node2</title>
<g id="a_edge1_Node000001_Node000002"><a xlink:title=" ">
<path fill="none" stroke="#63b8ff" d="M116.95,-35.25C125.1,-36.38 133.45,-37.54 141.54,-38.66"/>
<polygon fill="#63b8ff" stroke="#63b8ff" points="140.97,-42.26 151.35,-40.16 141.93,-35.32 140.97,-42.26"/>
</a>
</g>
</g>
<!-- Node5 -->
<g id="Node000005" class="node">
<title>Node5</title>
<g id="a_Node000005"><a xlink:href="a02346.html#a49083e8ceb4bfe7793ca1a5a799834d0" target="_top" xlink:title=" ">
<polygon fill="white" stroke="#666666" points="224.75,-18.5 169.75,-18.5 169.75,0 224.75,0 224.75,-18.5"/>
<text text-anchor="middle" x="197.25" y="-5" font-family="Helvetica,sans-Serif" font-size="10.00">getVmID</text>
</a>
</g>
</g>
<!-- Node1&#45;&gt;Node5 -->
<g id="edge4_Node000001_Node000005" class="edge">
<title>Node1&#45;&gt;Node5</title>
<g id="a_edge4_Node000001_Node000005"><a xlink:title=" ">
<path fill="none" stroke="#63b8ff" d="M116.95,-19.67C131.09,-17.81 145.86,-15.87 158.77,-14.17"/>
<polygon fill="#63b8ff" stroke="#63b8ff" points="159.11,-17.53 168.57,-12.76 158.2,-10.59 159.11,-17.53"/>
</a>
</g>
</g>
<!-- Node3 -->
<g id="Node000003" class="node">
<title>Node3</title>
<g id="a_Node000003"><a xlink:href="a01946.html#ae06a9e78e6a4f6c9c8afcf0f4862ce29" target="_top" xlink:title=" ">
<polygon fill="white" stroke="#666666" points="351,-55.5 278,-55.5 278,-37 351,-37 351,-55.5"/>
<text text-anchor="middle" x="314.5" y="-42" font-family="Helvetica,sans-Serif" font-size="10.00">utils_list_add</text>
</a>
</g>
</g>
<!-- Node2&#45;&gt;Node3 -->
<g id="edge2_Node000002_Node000003" class="edge">
<title>Node2&#45;&gt;Node3</title>
<g id="a_edge2_Node000002_Node000003"><a xlink:title=" ">
<path fill="none" stroke="#63b8ff" d="M242.48,-46.25C250.51,-46.25 258.91,-46.25 267,-46.25"/>
<polygon fill="#63b8ff" stroke="#63b8ff" points="266.78,-49.75 276.78,-46.25 266.78,-42.75 266.78,-49.75"/>
</a>
</g>
</g>
<!-- Node4 -->
<g id="Node000004" class="node">
<title>Node4</title>
<g id="a_Node000004"><a xlink:href="a01946.html#a5c575f52a42e0e0d2fb41bda2d1268ce" target="_top" xlink:title=" ">
<polygon fill="white" stroke="#666666" points="486.25,-55.5 387,-55.5 387,-37 486.25,-37 486.25,-55.5"/>
<text text-anchor="middle" x="436.62" y="-42" font-family="Helvetica,sans-Serif" font-size="10.00">utils_list_node_add</text>
</a>
</g>
</g>
<!-- Node3&#45;&gt;Node4 -->
<g id="edge3_Node000003_Node000004" class="edge">
<title>Node3&#45;&gt;Node4</title>
<g id="a_edge3_Node000003_Node000004"><a xlink:title=" ">
<path fill="none" stroke="#63b8ff" d="M351.22,-46.25C359.09,-46.25 367.64,-46.25 376.18,-46.25"/>
<polygon fill="#63b8ff" stroke="#63b8ff" points="375.93,-49.75 385.93,-46.25 375.93,-42.75 375.93,-49.75"/>
</a>
</g>
</g>
</g>
</svg>
