<?xml version="1.0" encoding="UTF-8" standalone="no"?>
<!DOCTYPE svg PUBLIC "-//W3C//DTD SVG 1.1//EN"
 "http://www.w3.org/Graphics/SVG/1.1/DTD/svg11.dtd">
<!-- Generated by graphviz version 8.0.5 (0)
 -->
<!-- Title: async_condition_wait Pages: 1 -->
<svg width="291pt" height="101pt"
 viewBox="0.00 0.00 291.25 100.50" xmlns="http://www.w3.org/2000/svg" xmlns:xlink="http://www.w3.org/1999/xlink">
<g id="graph0" class="graph" transform="scale(1 1) rotate(0) translate(4 96.5)">
<title>async_condition_wait</title>
<!-- Node1 -->
<g id="Node000001" class="node">
<title>Node1</title>
<g id="a_Node000001"><a xlink:title=" ">
<polygon fill="#999999" stroke="#666666" points="108.25,-55.5 0,-55.5 0,-37 108.25,-37 108.25,-55.5"/>
<text text-anchor="middle" x="54.12" y="-42" font-family="Helvetica,sans-Serif" font-size="10.00">async_condition_wait</text>
</a>
</g>
</g>
<!-- Node2 -->
<g id="Node000002" class="node">
<title>Node2</title>
<g id="a_Node000002"><a xlink:href="a02346.html#ad1d30ecbf6bff6457b680aa940281072" target="_top" xlink:title=" ">
<polygon fill="white" stroke="#666666" points="283.25,-92.5 144.25,-92.5 144.25,-74 283.25,-74 283.25,-92.5"/>
<text text-anchor="middle" x="213.75" y="-79" font-family="Helvetica,sans-Serif" font-size="10.00">async_completion_complete</text>
</a>
</g>
</g>
<!-- Node1&#45;&gt;Node2 -->
<g id="edge1_Node000001_Node000002" class="edge">
<title>Node1&#45;&gt;Node2</title>
<g id="a_edge1_Node000001_Node000002"><a xlink:title=" ">
<path fill="none" stroke="#63b8ff" d="M96.54,-55.97C116.19,-60.58 139.88,-66.15 160.73,-71.04"/>
<polygon fill="#63b8ff" stroke="#63b8ff" points="159.8,-74.65 170.34,-73.53 161.4,-67.84 159.8,-74.65"/>
</a>
</g>
</g>
<!-- Node3 -->
<g id="Node000003" class="node">
<title>Node3</title>
<g id="a_Node000003"><a xlink:href="a02346.html#aebf9e72bb6cbd8b9e33489d46c25075d" target="_top" xlink:title=" ">
<polygon fill="white" stroke="#666666" points="272,-55.5 155.5,-55.5 155.5,-37 272,-37 272,-55.5"/>
<text text-anchor="middle" x="213.75" y="-42" font-family="Helvetica,sans-Serif" font-size="10.00">async_completion_wait</text>
</a>
</g>
</g>
<!-- Node1&#45;&gt;Node3 -->
<g id="edge2_Node000001_Node000003" class="edge">
<title>Node1&#45;&gt;Node3</title>
<g id="a_edge2_Node000001_Node000003"><a xlink:title=" ">
<path fill="none" stroke="#63b8ff" d="M108.49,-46.25C119.98,-46.25 132.27,-46.25 144.25,-46.25"/>
<polygon fill="#63b8ff" stroke="#63b8ff" points="144.12,-49.75 154.12,-46.25 144.12,-42.75 144.12,-49.75"/>
</a>
</g>
</g>
<!-- Node4 -->
<g id="Node000004" class="node">
<title>Node4</title>
<g id="a_Node000004"><a xlink:href="a02346.html#a7ab7c7fe9cb93434dde72a4e464a7e69" target="_top" xlink:title=" ">
<polygon fill="white" stroke="#666666" points="271.62,-18.5 155.88,-18.5 155.88,0 271.62,0 271.62,-18.5"/>
<text text-anchor="middle" x="213.75" y="-5" font-family="Helvetica,sans-Serif" font-size="10.00">async_semaphore_dec</text>
</a>
</g>
</g>
<!-- Node1&#45;&gt;Node4 -->
<g id="edge3_Node000001_Node000004" class="edge">
<title>Node1&#45;&gt;Node4</title>
<g id="a_edge3_Node000001_Node000004"><a xlink:title=" ">
<path fill="none" stroke="#63b8ff" d="M96.54,-36.53C116.19,-31.92 139.88,-26.35 160.73,-21.46"/>
<polygon fill="#63b8ff" stroke="#63b8ff" points="161.4,-24.66 170.34,-18.97 159.8,-17.85 161.4,-24.66"/>
</a>
</g>
</g>
</g>
</svg>
