<?xml version="1.0" encoding="UTF-8" standalone="no"?>
<!DOCTYPE svg PUBLIC "-//W3C//DTD SVG 1.1//EN"
 "http://www.w3.org/Graphics/SVG/1.1/DTD/svg11.dtd">
<!-- Generated by graphviz version 8.0.5 (0)
 -->
<!-- Title: arax_vaccel.h Pages: 1 -->
<svg width="831pt" height="245pt"
 viewBox="0.00 0.00 831.16 244.50" xmlns="http://www.w3.org/2000/svg" xmlns:xlink="http://www.w3.org/1999/xlink">
<g id="graph0" class="graph" transform="scale(1 1) rotate(0) translate(4 240.5)">
<title>arax_vaccel.h</title>
<!-- Node1 -->
<g id="Node000001" class="node">
<title>Node1</title>
<g id="a_Node000001"><a xlink:title=" ">
<polygon fill="#999999" stroke="#666666" points="271.03,-236.5 194.28,-236.5 194.28,-218 271.03,-218 271.03,-236.5"/>
<text text-anchor="middle" x="232.66" y="-223" font-family="Helvetica,sans-Serif" font-size="10.00">arax_vaccel.h</text>
</a>
</g>
</g>
<!-- Node2 -->
<g id="Node000002" class="node">
<title>Node2</title>
<g id="a_Node000002"><a xlink:href="a01391.html" target="_top" xlink:title=" ">
<polygon fill="white" stroke="#666666" points="268.78,-182 196.53,-182 196.53,-163.5 268.78,-163.5 268.78,-182"/>
<text text-anchor="middle" x="232.66" y="-168.5" font-family="Helvetica,sans-Serif" font-size="10.00">arax_accel.h</text>
</a>
</g>
</g>
<!-- Node1&#45;&gt;Node2 -->
<g id="edge1_Node000001_Node000002" class="edge">
<title>Node1&#45;&gt;Node2</title>
<g id="a_edge1_Node000001_Node000002"><a xlink:title=" ">
<path fill="none" stroke="#63b8ff" d="M226.11,-206.72C225.59,-198.29 226.07,-188.86 227.52,-182.26"/>
<polygon fill="#63b8ff" stroke="#63b8ff" points="222.75,-207.1 227.49,-216.58 229.7,-206.22 222.75,-207.1"/>
</a>
</g>
</g>
<!-- Node2&#45;&gt;Node1 -->
<g id="edge20_Node000002_Node000001" class="edge">
<title>Node2&#45;&gt;Node1</title>
<g id="a_edge20_Node000002_Node000001"><a xlink:title=" ">
<path fill="none" stroke="#63b8ff" d="M239.19,-193.08C239.72,-201.49 239.27,-210.93 237.82,-217.58"/>
<polygon fill="#63b8ff" stroke="#63b8ff" points="242.55,-192.72 237.79,-183.26 235.6,-193.63 242.55,-192.72"/>
</a>
</g>
</g>
<!-- Node3 -->
<g id="Node000003" class="node">
<title>Node3</title>
<g id="a_Node000003"><a xlink:href="a01397.html" target="_top" xlink:title=" ">
<polygon fill="white" stroke="#666666" points="266.53,-127.5 198.78,-127.5 198.78,-109 266.53,-109 266.53,-127.5"/>
<text text-anchor="middle" x="232.66" y="-114" font-family="Helvetica,sans-Serif" font-size="10.00">arax_data.h</text>
</a>
</g>
</g>
<!-- Node2&#45;&gt;Node3 -->
<g id="edge2_Node000002_Node000003" class="edge">
<title>Node2&#45;&gt;Node3</title>
<g id="a_edge2_Node000002_Node000003"><a xlink:title=" ">
<path fill="none" stroke="#63b8ff" d="M232.66,-152.22C232.66,-143.79 232.66,-134.36 232.66,-127.76"/>
<polygon fill="#63b8ff" stroke="#63b8ff" points="229.16,-152.08 232.66,-162.08 236.16,-152.08 229.16,-152.08"/>
</a>
</g>
</g>
<!-- Node6 -->
<g id="Node000006" class="node">
<title>Node6</title>
<g id="a_Node000006"><a xlink:href="a01910.html" target="_top" xlink:title=" ">
<polygon fill="white" stroke="#666666" points="207.91,-73 133.41,-73 133.41,-54.5 207.91,-54.5 207.91,-73"/>
<text text-anchor="middle" x="170.66" y="-59.5" font-family="Helvetica,sans-Serif" font-size="10.00">arax_object.c</text>
</a>
</g>
</g>
<!-- Node2&#45;&gt;Node6 -->
<g id="edge9_Node000002_Node000006" class="edge">
<title>Node2&#45;&gt;Node6</title>
<g id="a_edge9_Node000002_Node000006"><a xlink:title=" ">
<path fill="none" stroke="#63b8ff" d="M213.43,-155.78C205.11,-148 195.87,-138.05 189.66,-127.5 179.25,-109.85 174.09,-86 171.93,-73.39"/>
<polygon fill="#63b8ff" stroke="#63b8ff" points="210.8,-158.02 220.61,-162.04 215.45,-152.78 210.8,-158.02"/>
</a>
</g>
</g>
<!-- Node9 -->
<g id="Node000009" class="node">
<title>Node9</title>
<g id="a_Node000009"><a xlink:href="a01349.html" target="_top" xlink:title=" ">
<polygon fill="white" stroke="#666666" points="445.16,-127.5 378.16,-127.5 378.16,-109 445.16,-109 445.16,-127.5"/>
<text text-anchor="middle" x="411.66" y="-114" font-family="Helvetica,sans-Serif" font-size="10.00">arax_pipe.h</text>
</a>
</g>
</g>
<!-- Node2&#45;&gt;Node9 -->
<g id="edge10_Node000002_Node000009" class="edge">
<title>Node2&#45;&gt;Node9</title>
<g id="a_edge10_Node000002_Node000009"><a xlink:title=" ">
<path fill="none" stroke="#63b8ff" d="M272.47,-160.07C305.63,-150.35 352.11,-136.71 382.05,-127.93"/>
<polygon fill="#63b8ff" stroke="#63b8ff" points="271.82,-156.91 263.21,-163.08 273.79,-163.62 271.82,-156.91"/>
</a>
</g>
</g>
<!-- Node4 -->
<g id="Node000004" class="node">
<title>Node4</title>
<g id="a_Node000004"><a xlink:href="a01931.html" target="_top" xlink:title=" ">
<polygon fill="white" stroke="#666666" points="98.53,-18.5 30.78,-18.5 30.78,0 98.53,0 98.53,-18.5"/>
<text text-anchor="middle" x="64.66" y="-5" font-family="Helvetica,sans-Serif" font-size="10.00">arax_data.c</text>
</a>
</g>
</g>
<!-- Node3&#45;&gt;Node4 -->
<g id="edge3_Node000003_Node000004" class="edge">
<title>Node3&#45;&gt;Node4</title>
<g id="a_edge3_Node000003_Node000004"><a xlink:title=" ">
<path fill="none" stroke="#63b8ff" d="M187.86,-115.1C128.18,-111.2 27.42,-100.6 4.66,-73 -12.22,-52.53 22.47,-30.55 45.8,-18.81"/>
<polygon fill="#63b8ff" stroke="#63b8ff" points="187.31,-118.64 197.5,-115.76 187.74,-111.65 187.31,-118.64"/>
</a>
</g>
</g>
<!-- Node5 -->
<g id="Node000005" class="node">
<title>Node5</title>
<g id="a_Node000005"><a xlink:href="a01400.html" target="_top" xlink:title=" ">
<polygon fill="white" stroke="#666666" points="115.41,-73 13.91,-73 13.91,-54.5 115.41,-54.5 115.41,-73"/>
<text text-anchor="middle" x="64.66" y="-59.5" font-family="Helvetica,sans-Serif" font-size="10.00">arax_data_private.h</text>
</a>
</g>
</g>
<!-- Node3&#45;&gt;Node5 -->
<g id="edge4_Node000003_Node000005" class="edge">
<title>Node3&#45;&gt;Node5</title>
<g id="a_edge4_Node000003_Node000005"><a xlink:title=" ">
<path fill="none" stroke="#63b8ff" d="M194.47,-105.32C163.41,-95.61 120.3,-82.14 92.44,-73.43"/>
<polygon fill="#63b8ff" stroke="#63b8ff" points="193.33,-108.94 203.91,-108.58 195.41,-102.26 193.33,-108.94"/>
</a>
</g>
</g>
<!-- Node3&#45;&gt;Node6 -->
<g id="edge6_Node000003_Node000006" class="edge">
<title>Node3&#45;&gt;Node6</title>
<g id="a_edge6_Node000003_Node000006"><a xlink:title=" ">
<path fill="none" stroke="#63b8ff" d="M214.29,-101.7C203.3,-92.39 189.76,-80.93 180.7,-73.26"/>
<polygon fill="#63b8ff" stroke="#63b8ff" points="211.52,-104.79 221.42,-108.58 216.05,-99.45 211.52,-104.79"/>
</a>
</g>
</g>
<!-- Node7 -->
<g id="Node000007" class="node">
<title>Node7</title>
<g id="a_Node000007"><a xlink:href="a01922.html" target="_top" xlink:title=" ">
<polygon fill="white" stroke="#666666" points="353.53,-73 285.78,-73 285.78,-54.5 353.53,-54.5 353.53,-73"/>
<text text-anchor="middle" x="319.66" y="-59.5" font-family="Helvetica,sans-Serif" font-size="10.00">arax_task.c</text>
</a>
</g>
</g>
<!-- Node3&#45;&gt;Node7 -->
<g id="edge7_Node000003_Node000007" class="edge">
<title>Node3&#45;&gt;Node7</title>
<g id="a_edge7_Node000003_Node000007"><a xlink:title=" ">
<path fill="none" stroke="#63b8ff" d="M256.11,-103.1C271.79,-93.64 291.91,-81.49 305.27,-73.43"/>
<polygon fill="#63b8ff" stroke="#63b8ff" points="254.78,-100.42 248.02,-108.58 258.39,-106.41 254.78,-100.42"/>
</a>
</g>
</g>
<!-- Node8 -->
<g id="Node000008" class="node">
<title>Node8</title>
<g id="a_Node000008"><a xlink:href="a01898.html" target="_top" xlink:title=" ">
<polygon fill="white" stroke="#666666" points="267.78,-73 225.53,-73 225.53,-54.5 267.78,-54.5 267.78,-73"/>
<text text-anchor="middle" x="246.66" y="-59.5" font-family="Helvetica,sans-Serif" font-size="10.00">impl.c</text>
</a>
</g>
</g>
<!-- Node3&#45;&gt;Node8 -->
<g id="edge8_Node000003_Node000008" class="edge">
<title>Node3&#45;&gt;Node8</title>
<g id="a_edge8_Node000003_Node000008"><a xlink:title=" ">
<path fill="none" stroke="#63b8ff" d="M237.79,-98.01C240.05,-89.5 242.61,-79.94 244.39,-73.26"/>
<polygon fill="#63b8ff" stroke="#63b8ff" points="234.16,-97.02 234.97,-107.58 240.93,-98.82 234.16,-97.02"/>
</a>
</g>
</g>
<!-- Node5&#45;&gt;Node4 -->
<g id="edge5_Node000005_Node000004" class="edge">
<title>Node5&#45;&gt;Node4</title>
<g id="a_edge5_Node000005_Node000004"><a xlink:title=" ">
<path fill="none" stroke="#63b8ff" d="M64.66,-43.22C64.66,-34.79 64.66,-25.36 64.66,-18.76"/>
<polygon fill="#63b8ff" stroke="#63b8ff" points="61.16,-43.08 64.66,-53.08 68.16,-43.08 61.16,-43.08"/>
</a>
</g>
</g>
<!-- Node9&#45;&gt;Node4 -->
<g id="edge12_Node000009_Node000004" class="edge">
<title>Node9&#45;&gt;Node4</title>
<g id="a_edge12_Node000009_Node000004"><a xlink:title=" ">
<path fill="none" stroke="#63b8ff" d="M402.57,-99.16C394.25,-84.6 380.53,-64.92 362.66,-54.5 318.37,-28.69 167.21,-16.46 98.79,-12.15"/>
<polygon fill="#63b8ff" stroke="#63b8ff" points="399.84,-100.48 407.65,-107.64 406.01,-97.18 399.84,-100.48"/>
</a>
</g>
</g>
<!-- Node9&#45;&gt;Node6 -->
<g id="edge13_Node000009_Node000006" class="edge">
<title>Node9&#45;&gt;Node6</title>
<g id="a_edge13_Node000009_Node000006"><a xlink:title=" ">
<path fill="none" stroke="#63b8ff" d="M367.41,-107.61C321.72,-97.66 251.19,-82.29 208.15,-72.92"/>
<polygon fill="#63b8ff" stroke="#63b8ff" points="366.38,-111.19 376.89,-109.89 367.87,-104.35 366.38,-111.19"/>
</a>
</g>
</g>
<!-- Node9&#45;&gt;Node7 -->
<g id="edge17_Node000009_Node000007" class="edge">
<title>Node9&#45;&gt;Node7</title>
<g id="a_edge17_Node000009_Node000007"><a xlink:title=" ">
<path fill="none" stroke="#63b8ff" d="M387.32,-103.36C370.68,-93.87 349.13,-81.57 334.87,-73.43"/>
<polygon fill="#63b8ff" stroke="#63b8ff" points="385.04,-106.66 395.46,-108.58 388.51,-100.58 385.04,-106.66"/>
</a>
</g>
</g>
<!-- Node9&#45;&gt;Node8 -->
<g id="edge19_Node000009_Node000008" class="edge">
<title>Node9&#45;&gt;Node8</title>
<g id="a_edge19_Node000009_Node000008"><a xlink:title=" ">
<path fill="none" stroke="#63b8ff" d="M374.3,-105.36C341.53,-94.94 295.04,-80.15 268.15,-71.59"/>
<polygon fill="#63b8ff" stroke="#63b8ff" points="372.82,-108.88 383.41,-108.58 374.94,-102.21 372.82,-108.88"/>
</a>
</g>
</g>
<!-- Node10 -->
<g id="Node000010" class="node">
<title>Node10</title>
<g id="a_Node000010"><a xlink:href="a01904.html" target="_top" xlink:title=" ">
<polygon fill="white" stroke="#666666" points="737.78,-73 665.53,-73 665.53,-54.5 737.78,-54.5 737.78,-73"/>
<text text-anchor="middle" x="701.66" y="-59.5" font-family="Helvetica,sans-Serif" font-size="10.00">arax_accel.c</text>
</a>
</g>
</g>
<!-- Node9&#45;&gt;Node10 -->
<g id="edge11_Node000009_Node000010" class="edge">
<title>Node9&#45;&gt;Node10</title>
<g id="a_edge11_Node000009_Node000010"><a xlink:title=" ">
<path fill="none" stroke="#63b8ff" d="M456.04,-109.21C513.4,-98.83 612.18,-80.95 665.31,-71.33"/>
<polygon fill="#63b8ff" stroke="#63b8ff" points="455.71,-105.9 446.49,-111.12 456.95,-112.79 455.71,-105.9"/>
</a>
</g>
</g>
<!-- Node11 -->
<g id="Node000011" class="node">
<title>Node11</title>
<g id="a_Node000011"><a xlink:href="a01913.html" target="_top" xlink:title=" ">
<polygon fill="white" stroke="#666666" points="823.16,-73 756.16,-73 756.16,-54.5 823.16,-54.5 823.16,-73"/>
<text text-anchor="middle" x="789.66" y="-59.5" font-family="Helvetica,sans-Serif" font-size="10.00">arax_pipe.c</text>
</a>
</g>
</g>
<!-- Node9&#45;&gt;Node11 -->
<g id="edge14_Node000009_Node000011" class="edge">
<title>Node9&#45;&gt;Node11</title>
<g id="a_edge14_Node000009_Node000011"><a xlink:title=" ">
<path fill="none" stroke="#63b8ff" d="M456.06,-112.22C520.33,-104.75 642.92,-89.79 746.66,-73 749.66,-72.51 752.77,-71.98 755.89,-71.42"/>
<polygon fill="#63b8ff" stroke="#63b8ff" points="456.04,-108.81 446.51,-113.44 456.85,-115.77 456.04,-108.81"/>
</a>
</g>
</g>
<!-- Node12 -->
<g id="Node000012" class="node">
<title>Node12</title>
<g id="a_Node000012"><a xlink:href="a01940.html" target="_top" xlink:title=" ">
<polygon fill="white" stroke="#666666" points="473.66,-73 409.66,-73 409.66,-54.5 473.66,-54.5 473.66,-73"/>
<text text-anchor="middle" x="441.66" y="-59.5" font-family="Helvetica,sans-Serif" font-size="10.00">arax_plot.c</text>
</a>
</g>
</g>
<!-- Node9&#45;&gt;Node12 -->
<g id="edge15_Node000009_Node000012" class="edge">
<title>Node9&#45;&gt;Node12</title>
<g id="a_edge15_Node000009_Node000012"><a xlink:title=" ">
<path fill="none" stroke="#63b8ff" d="M421.99,-99.16C427.01,-90.38 432.8,-80.24 436.79,-73.26"/>
<polygon fill="#63b8ff" stroke="#63b8ff" points="418.53,-97.16 416.61,-107.58 424.61,-100.63 418.53,-97.16"/>
</a>
</g>
</g>
<!-- Node13 -->
<g id="Node000013" class="node">
<title>Node13</title>
<g id="a_Node000013"><a xlink:href="a01919.html" target="_top" xlink:title=" ">
<polygon fill="white" stroke="#666666" points="551.78,-73 491.53,-73 491.53,-54.5 551.78,-54.5 551.78,-73"/>
<text text-anchor="middle" x="521.66" y="-59.5" font-family="Helvetica,sans-Serif" font-size="10.00">arax_ptr.c</text>
</a>
</g>
</g>
<!-- Node9&#45;&gt;Node13 -->
<g id="edge16_Node000009_Node000013" class="edge">
<title>Node9&#45;&gt;Node13</title>
<g id="a_edge16_Node000009_Node000013"><a xlink:title=" ">
<path fill="none" stroke="#63b8ff" d="M439.64,-103.89C459.68,-94.33 486.1,-81.72 503.46,-73.43"/>
<polygon fill="#63b8ff" stroke="#63b8ff" points="438.34,-101.11 430.82,-108.58 441.35,-107.43 438.34,-101.11"/>
</a>
</g>
</g>
<!-- Node14 -->
<g id="Node000014" class="node">
<title>Node14</title>
<g id="a_Node000014"><a xlink:href="a01928.html" target="_top" xlink:title=" ">
<polygon fill="white" stroke="#666666" points="647.03,-73 570.28,-73 570.28,-54.5 647.03,-54.5 647.03,-73"/>
<text text-anchor="middle" x="608.66" y="-59.5" font-family="Helvetica,sans-Serif" font-size="10.00">arax_vaccel.c</text>
</a>
</g>
</g>
<!-- Node9&#45;&gt;Node14 -->
<g id="edge18_Node000009_Node000014" class="edge">
<title>Node9&#45;&gt;Node14</title>
<g id="a_edge18_Node000009_Node000014"><a xlink:title=" ">
<path fill="none" stroke="#63b8ff" d="M454.53,-105.82C491.08,-96.08 542.84,-82.29 576.08,-73.43"/>
<polygon fill="#63b8ff" stroke="#63b8ff" points="453.95,-102.62 445.19,-108.58 455.75,-109.39 453.95,-102.62"/>
</a>
</g>
</g>
</g>
</svg>
