<?xml version="1.0" encoding="UTF-8" standalone="no"?>
<!DOCTYPE svg PUBLIC "-//W3C//DTD SVG 1.1//EN"
 "http://www.w3.org/Graphics/SVG/1.1/DTD/svg11.dtd">
<!-- Generated by graphviz version 8.0.5 (0)
 -->
<!-- Title: arax_task_submit Pages: 1 -->
<svg width="727pt" height="101pt"
 viewBox="0.00 0.00 727.00 100.50" xmlns="http://www.w3.org/2000/svg" xmlns:xlink="http://www.w3.org/1999/xlink">
<g id="graph0" class="graph" transform="scale(1 1) rotate(0) translate(4 96.5)">
<title>arax_task_submit</title>
<!-- Node1 -->
<g id="Node000001" class="node">
<title>Node1</title>
<g id="a_Node000001"><a xlink:title=" ">
<polygon fill="#999999" stroke="#666666" points="94,-54.5 0,-54.5 0,-36 94,-36 94,-54.5"/>
<text text-anchor="middle" x="47" y="-41" font-family="Helvetica,sans-Serif" font-size="10.00">arax_task_submit</text>
</a>
</g>
</g>
<!-- Node2 -->
<g id="Node000002" class="node">
<title>Node2</title>
<g id="a_Node000002"><a xlink:href="a01910.html#a9255b8011e6d7c9b28c7df40065efb28" target="_top" xlink:title=" ">
<polygon fill="white" stroke="#666666" points="237.5,-73.5 136,-73.5 136,-55 237.5,-55 237.5,-73.5"/>
<text text-anchor="middle" x="186.75" y="-60" font-family="Helvetica,sans-Serif" font-size="10.00">arax_object_ref_inc</text>
</a>
</g>
</g>
<!-- Node1&#45;&gt;Node2 -->
<g id="edge1_Node000001_Node000002" class="edge">
<title>Node1&#45;&gt;Node2</title>
<g id="a_edge1_Node000001_Node000002"><a xlink:title=" ">
<path fill="none" stroke="#63b8ff" d="M94.25,-51.63C104.11,-52.99 114.67,-54.45 124.98,-55.87"/>
<polygon fill="#63b8ff" stroke="#63b8ff" points="124.22,-59.43 134.6,-57.33 125.17,-52.5 124.22,-59.43"/>
</a>
</g>
</g>
<!-- Node3 -->
<g id="Node000003" class="node">
<title>Node3</title>
<g id="a_Node000003"><a xlink:href="a01928.html#a8b82433bc8c7d7f03683ac521a3679fa" target="_top" xlink:title=" ">
<polygon fill="white" stroke="#666666" points="243.5,-36.5 130,-36.5 130,-18 243.5,-18 243.5,-36.5"/>
<text text-anchor="middle" x="186.75" y="-23" font-family="Helvetica,sans-Serif" font-size="10.00">arax_vaccel_add_task</text>
</a>
</g>
</g>
<!-- Node1&#45;&gt;Node3 -->
<g id="edge2_Node000001_Node000003" class="edge">
<title>Node1&#45;&gt;Node3</title>
<g id="a_edge2_Node000001_Node000003"><a xlink:title=" ">
<path fill="none" stroke="#63b8ff" d="M94.25,-39.21C102.19,-38.17 110.57,-37.07 118.92,-35.98"/>
<polygon fill="#63b8ff" stroke="#63b8ff" points="119.36,-39.32 128.82,-34.56 118.45,-32.38 119.36,-39.32"/>
</a>
</g>
</g>
<!-- Node4 -->
<g id="Node000004" class="node">
<title>Node4</title>
<g id="a_Node000004"><a xlink:href="a01904.html#ab6afd8cc035237c811ce6a1b7727acc3" target="_top" xlink:title=" ">
<polygon fill="white" stroke="#666666" points="388.5,-55.5 279.5,-55.5 279.5,-37 388.5,-37 388.5,-55.5"/>
<text text-anchor="middle" x="334" y="-42" font-family="Helvetica,sans-Serif" font-size="10.00">arax_accel_add_task</text>
</a>
</g>
</g>
<!-- Node3&#45;&gt;Node4 -->
<g id="edge3_Node000003_Node000004" class="edge">
<title>Node3&#45;&gt;Node4</title>
<g id="a_edge3_Node000003_Node000004"><a xlink:title=" ">
<path fill="none" stroke="#63b8ff" d="M243.91,-34.6C252.01,-35.66 260.4,-36.75 268.65,-37.83"/>
<polygon fill="#63b8ff" stroke="#63b8ff" points="268.01,-41.41 278.38,-39.24 268.92,-34.47 268.01,-41.41"/>
</a>
</g>
</g>
<!-- Node11 -->
<g id="Node000011" class="node">
<title>Node11</title>
<g id="a_Node000011"><a xlink:href="a01949.html#a9fae55b169121c4851bb7c0adf4eac47" target="_top" xlink:title=" ">
<polygon fill="white" stroke="#666666" points="379.88,-18.5 288.12,-18.5 288.12,0 379.88,0 379.88,-18.5"/>
<text text-anchor="middle" x="334" y="-5" font-family="Helvetica,sans-Serif" font-size="10.00">utils_queue_push</text>
</a>
</g>
</g>
<!-- Node3&#45;&gt;Node11 -->
<g id="edge10_Node000003_Node000011" class="edge">
<title>Node3&#45;&gt;Node11</title>
<g id="a_edge10_Node000003_Node000011"><a xlink:title=" ">
<path fill="none" stroke="#63b8ff" d="M243.91,-20.29C254.8,-18.94 266.22,-17.53 277.11,-16.18"/>
<polygon fill="#63b8ff" stroke="#63b8ff" points="277.29,-19.56 286.78,-14.85 276.43,-12.61 277.29,-19.56"/>
</a>
</g>
</g>
<!-- Node5 -->
<g id="Node000005" class="node">
<title>Node5</title>
<g id="a_Node000005"><a xlink:href="a02352.html#aed6af4d83e934e3e654ead541b15f2d9" target="_top" xlink:title=" ">
<polygon fill="white" stroke="#666666" points="538.75,-92.5 429.75,-92.5 429.75,-74 538.75,-74 538.75,-92.5"/>
<text text-anchor="middle" x="484.25" y="-79" font-family="Helvetica,sans-Serif" font-size="10.00">async_condition_lock</text>
</a>
</g>
</g>
<!-- Node4&#45;&gt;Node5 -->
<g id="edge4_Node000004_Node000005" class="edge">
<title>Node4&#45;&gt;Node5</title>
<g id="a_edge4_Node000004_Node000005"><a xlink:title=" ">
<path fill="none" stroke="#63b8ff" d="M373.95,-55.97C392.26,-60.54 414.31,-66.04 433.78,-70.9"/>
<polygon fill="#63b8ff" stroke="#63b8ff" points="432.75,-74.5 443.3,-73.53 434.45,-67.71 432.75,-74.5"/>
</a>
</g>
</g>
<!-- Node7 -->
<g id="Node000007" class="node">
<title>Node7</title>
<g id="a_Node000007"><a xlink:href="a02352.html#a45a896fb606c2aa66a5a4c2af59ce494" target="_top" xlink:title=" ">
<polygon fill="white" stroke="#666666" points="541.75,-55.5 426.75,-55.5 426.75,-37 541.75,-37 541.75,-55.5"/>
<text text-anchor="middle" x="484.25" y="-42" font-family="Helvetica,sans-Serif" font-size="10.00">async_condition_notify</text>
</a>
</g>
</g>
<!-- Node4&#45;&gt;Node7 -->
<g id="edge6_Node000004_Node000007" class="edge">
<title>Node4&#45;&gt;Node7</title>
<g id="a_edge6_Node000004_Node000007"><a xlink:title=" ">
<path fill="none" stroke="#63b8ff" d="M388.94,-46.25C397.59,-46.25 406.64,-46.25 415.57,-46.25"/>
<polygon fill="#63b8ff" stroke="#63b8ff" points="415.35,-49.75 425.35,-46.25 415.35,-42.75 415.35,-49.75"/>
</a>
</g>
</g>
<!-- Node9 -->
<g id="Node000009" class="node">
<title>Node9</title>
<g id="a_Node000009"><a xlink:href="a02352.html#a3bbcb7c4c024e99d5c4ba52b61dfbbf7" target="_top" xlink:title=" ">
<polygon fill="white" stroke="#666666" points="544,-18.5 424.5,-18.5 424.5,0 544,0 544,-18.5"/>
<text text-anchor="middle" x="484.25" y="-5" font-family="Helvetica,sans-Serif" font-size="10.00">async_condition_unlock</text>
</a>
</g>
</g>
<!-- Node4&#45;&gt;Node9 -->
<g id="edge8_Node000004_Node000009" class="edge">
<title>Node4&#45;&gt;Node9</title>
<g id="a_edge8_Node000004_Node000009"><a xlink:title=" ">
<path fill="none" stroke="#63b8ff" d="M373.95,-36.53C392.26,-31.96 414.31,-26.46 433.78,-21.6"/>
<polygon fill="#63b8ff" stroke="#63b8ff" points="434.45,-24.79 443.3,-18.97 432.75,-18 434.45,-24.79"/>
</a>
</g>
</g>
<!-- Node6 -->
<g id="Node000006" class="node">
<title>Node6</title>
<g id="a_Node000006"><a xlink:href="a02346.html#aebf9e72bb6cbd8b9e33489d46c25075d" target="_top" xlink:title=" ">
<polygon fill="white" stroke="#666666" points="707.75,-92.5 591.25,-92.5 591.25,-74 707.75,-74 707.75,-92.5"/>
<text text-anchor="middle" x="649.5" y="-79" font-family="Helvetica,sans-Serif" font-size="10.00">async_completion_wait</text>
</a>
</g>
</g>
<!-- Node5&#45;&gt;Node6 -->
<g id="edge5_Node000005_Node000006" class="edge">
<title>Node5&#45;&gt;Node6</title>
<g id="a_edge5_Node000005_Node000006"><a xlink:title=" ">
<path fill="none" stroke="#63b8ff" d="M539.16,-83.25C552.27,-83.25 566.48,-83.25 580.16,-83.25"/>
<polygon fill="#63b8ff" stroke="#63b8ff" points="580,-86.75 590,-83.25 580,-79.75 580,-86.75"/>
</a>
</g>
</g>
<!-- Node8 -->
<g id="Node000008" class="node">
<title>Node8</title>
<g id="a_Node000008"><a xlink:href="a02346.html#a0fa370eee5160963e617d1daf1c07363" target="_top" xlink:title=" ">
<polygon fill="white" stroke="#666666" points="705.88,-55.5 593.12,-55.5 593.12,-37 705.88,-37 705.88,-55.5"/>
<text text-anchor="middle" x="649.5" y="-42" font-family="Helvetica,sans-Serif" font-size="10.00">async_semaphore_inc</text>
</a>
</g>
</g>
<!-- Node7&#45;&gt;Node8 -->
<g id="edge7_Node000007_Node000008" class="edge">
<title>Node7&#45;&gt;Node8</title>
<g id="a_edge7_Node000007_Node000008"><a xlink:title=" ">
<path fill="none" stroke="#63b8ff" d="M541.89,-46.25C554.77,-46.25 568.56,-46.25 581.82,-46.25"/>
<polygon fill="#63b8ff" stroke="#63b8ff" points="581.79,-49.75 591.79,-46.25 581.79,-42.75 581.79,-49.75"/>
</a>
</g>
</g>
<!-- Node10 -->
<g id="Node000010" class="node">
<title>Node10</title>
<g id="a_Node000010"><a xlink:href="a02346.html#ad1d30ecbf6bff6457b680aa940281072" target="_top" xlink:title=" ">
<polygon fill="white" stroke="#666666" points="719,-18.5 580,-18.5 580,0 719,0 719,-18.5"/>
<text text-anchor="middle" x="649.5" y="-5" font-family="Helvetica,sans-Serif" font-size="10.00">async_completion_complete</text>
</a>
</g>
</g>
<!-- Node9&#45;&gt;Node10 -->
<g id="edge9_Node000009_Node000010" class="edge">
<title>Node9&#45;&gt;Node10</title>
<g id="a_edge9_Node000009_Node000010"><a xlink:title=" ">
<path fill="none" stroke="#63b8ff" d="M544.19,-9.25C552.19,-9.25 560.51,-9.25 568.8,-9.25"/>
<polygon fill="#63b8ff" stroke="#63b8ff" points="568.65,-12.75 578.65,-9.25 568.65,-5.75 568.65,-12.75"/>
</a>
</g>
</g>
</g>
</svg>
