<?xml version="1.0" encoding="UTF-8" standalone="no"?>
<!DOCTYPE svg PUBLIC "-//W3C//DTD SVG 1.1//EN"
 "http://www.w3.org/Graphics/SVG/1.1/DTD/svg11.dtd">
<!-- Generated by graphviz version 12.2.1 (0)
 -->
<!-- Title: arax_vaccel.h Pages: 1 -->
<svg width="721pt" height="299pt"
 viewBox="0.00 0.00 720.62 299.00" xmlns="http://www.w3.org/2000/svg" xmlns:xlink="http://www.w3.org/1999/xlink">
<g id="graph0" class="graph" transform="scale(1 1) rotate(0) translate(4 295)">
<title>arax_vaccel.h</title>
<!-- Node1 -->
<g id="Node000001" class="node">
<title>Node1</title>
<g id="a_Node000001"><a xlink:title=" ">
<polygon fill="#999999" stroke="#666666" points="443.5,-291 366.75,-291 366.75,-272.5 443.5,-272.5 443.5,-291"/>
<text text-anchor="middle" x="405.12" y="-277.5" font-family="Helvetica,sans-Serif" font-size="10.00">arax_vaccel.h</text>
</a>
</g>
</g>
<!-- Node2 -->
<g id="Node000002" class="node">
<title>Node2</title>
<g id="a_Node000002"><a xlink:href="a01415.html" target="_top" xlink:title=" ">
<polygon fill="white" stroke="#666666" points="217.25,-236.5 121,-236.5 121,-218 217.25,-218 217.25,-236.5"/>
<text text-anchor="middle" x="169.12" y="-223" font-family="Helvetica,sans-Serif" font-size="10.00">core/arax_object.h</text>
</a>
</g>
</g>
<!-- Node1&#45;&gt;Node2 -->
<g id="edge1_Node000001_Node000002" class="edge">
<title>Node1&#45;&gt;Node2</title>
<g id="a_edge1_Node000001_Node000002"><a xlink:title=" ">
<path fill="none" stroke="#63b8ff" d="M366.42,-272.14C326.24,-263.2 263.23,-249.19 219.27,-239.4"/>
<polygon fill="#63b8ff" stroke="#63b8ff" points="220.24,-236.04 209.72,-237.28 218.72,-242.87 220.24,-236.04"/>
</a>
</g>
</g>
<!-- Node10 -->
<g id="Node000010" class="node">
<title>Node10</title>
<g id="a_Node000010"><a xlink:href="a01391.html" target="_top" xlink:title=" ">
<polygon fill="white" stroke="#666666" points="353.88,-236.5 282.38,-236.5 282.38,-218 353.88,-218 353.88,-236.5"/>
<text text-anchor="middle" x="318.12" y="-223" font-family="Helvetica,sans-Serif" font-size="10.00">utils/queue.h</text>
</a>
</g>
</g>
<!-- Node1&#45;&gt;Node10 -->
<g id="edge10_Node000001_Node000010" class="edge">
<title>Node1&#45;&gt;Node10</title>
<g id="a_edge10_Node000001_Node000010"><a xlink:title=" ">
<path fill="none" stroke="#63b8ff" d="M390.76,-272.08C377.54,-264.1 357.67,-252.11 342.05,-242.69"/>
<polygon fill="#63b8ff" stroke="#63b8ff" points="344.18,-239.88 333.81,-237.71 340.56,-245.88 344.18,-239.88"/>
</a>
</g>
</g>
<!-- Node12 -->
<g id="Node000012" class="node">
<title>Node12</title>
<g id="a_Node000012"><a xlink:href="a01403.html" target="_top" xlink:title=" ">
<polygon fill="white" stroke="#666666" points="527.12,-236.5 433.12,-236.5 433.12,-218 527.12,-218 527.12,-236.5"/>
<text text-anchor="middle" x="480.12" y="-223" font-family="Helvetica,sans-Serif" font-size="10.00">core/arax_accel.h</text>
</a>
</g>
</g>
<!-- Node1&#45;&gt;Node12 -->
<g id="edge15_Node000001_Node000012" class="edge">
<title>Node1&#45;&gt;Node12</title>
<g id="a_edge15_Node000001_Node000012"><a xlink:title=" ">
<path fill="none" stroke="#63b8ff" d="M412.34,-272.08C421.92,-264.18 438.51,-252.34 452.98,-242.96"/>
<polygon fill="#63b8ff" stroke="#63b8ff" points="454.67,-246.03 461.27,-237.74 450.94,-240.1 454.67,-246.03"/>
</a>
</g>
</g>
<!-- Node19 -->
<g id="Node000019" class="node">
<title>Node19</title>
<g id="a_Node000019"><a xlink:title=" ">
<polygon fill="#e0e0e0" stroke="#999999" points="468,-127.5 418.25,-127.5 418.25,-109 468,-109 468,-127.5"/>
<text text-anchor="middle" x="443.12" y="-114" font-family="Helvetica,sans-Serif" font-size="10.00">async.h</text>
</a>
</g>
</g>
<!-- Node1&#45;&gt;Node19 -->
<g id="edge28_Node000001_Node000019" class="edge">
<title>Node1&#45;&gt;Node19</title>
<g id="a_edge28_Node000001_Node000019"><a xlink:title=" ">
<path fill="none" stroke="#63b8ff" d="M407.17,-272.07C413.07,-246.98 430.25,-173.96 438.54,-138.72"/>
<polygon fill="#63b8ff" stroke="#63b8ff" points="441.84,-139.99 440.73,-129.45 435.03,-138.38 441.84,-139.99"/>
</a>
</g>
</g>
<!-- Node3 -->
<g id="Node000003" class="node">
<title>Node3</title>
<g id="a_Node000003"><a xlink:href="a01388.html" target="_top" xlink:title=" ">
<polygon fill="white" stroke="#666666" points="240.75,-182 183.5,-182 183.5,-163.5 240.75,-163.5 240.75,-182"/>
<text text-anchor="middle" x="212.12" y="-168.5" font-family="Helvetica,sans-Serif" font-size="10.00">utils/list.h</text>
</a>
</g>
</g>
<!-- Node2&#45;&gt;Node3 -->
<g id="edge2_Node000002_Node000003" class="edge">
<title>Node2&#45;&gt;Node3</title>
<g id="a_edge2_Node000002_Node000003"><a xlink:title=" ">
<path fill="none" stroke="#63b8ff" d="M176.23,-217.58C182.11,-210.39 190.66,-199.95 197.94,-191.07"/>
<polygon fill="#63b8ff" stroke="#63b8ff" points="200.57,-193.38 204.2,-183.43 195.15,-188.95 200.57,-193.38"/>
</a>
</g>
</g>
<!-- Node6 -->
<g id="Node000006" class="node">
<title>Node6</title>
<g id="a_Node000006"><a xlink:href="a01394.html" target="_top" xlink:title=" ">
<polygon fill="white" stroke="#666666" points="165.75,-182 84.5,-182 84.5,-163.5 165.75,-163.5 165.75,-182"/>
<text text-anchor="middle" x="125.12" y="-168.5" font-family="Helvetica,sans-Serif" font-size="10.00">utils/spinlock.h</text>
</a>
</g>
</g>
<!-- Node2&#45;&gt;Node6 -->
<g id="edge5_Node000002_Node000006" class="edge">
<title>Node2&#45;&gt;Node6</title>
<g id="a_edge5_Node000002_Node000006"><a xlink:title=" ">
<path fill="none" stroke="#63b8ff" d="M161.86,-217.58C155.84,-210.39 147.09,-199.95 139.64,-191.07"/>
<polygon fill="#63b8ff" stroke="#63b8ff" points="142.33,-188.83 133.23,-183.42 136.97,-193.33 142.33,-188.83"/>
</a>
</g>
</g>
<!-- Node9 -->
<g id="Node000009" class="node">
<title>Node9</title>
<g id="a_Node000009"><a xlink:title=" ">
<polygon fill="#e0e0e0" stroke="#999999" points="66.25,-182 0,-182 0,-163.5 66.25,-163.5 66.25,-182"/>
<text text-anchor="middle" x="33.12" y="-168.5" font-family="Helvetica,sans-Serif" font-size="10.00">arch/alloc.h</text>
</a>
</g>
</g>
<!-- Node2&#45;&gt;Node9 -->
<g id="edge9_Node000002_Node000009" class="edge">
<title>Node2&#45;&gt;Node9</title>
<g id="a_edge9_Node000002_Node000009"><a xlink:title=" ">
<path fill="none" stroke="#63b8ff" d="M146.67,-217.58C124.72,-209.11 91.05,-196.11 66.07,-186.47"/>
<polygon fill="#63b8ff" stroke="#63b8ff" points="67.62,-183.31 57.03,-182.98 65.1,-189.84 67.62,-183.31"/>
</a>
</g>
</g>
<!-- Node4 -->
<g id="Node000004" class="node">
<title>Node4</title>
<g id="a_Node000004"><a xlink:title=" ">
<polygon fill="#e0e0e0" stroke="#999999" points="392.38,-127.5 341.88,-127.5 341.88,-109 392.38,-109 392.38,-127.5"/>
<text text-anchor="middle" x="367.12" y="-114" font-family="Helvetica,sans-Serif" font-size="10.00">stddef.h</text>
</a>
</g>
</g>
<!-- Node3&#45;&gt;Node4 -->
<g id="edge3_Node000003_Node000004" class="edge">
<title>Node3&#45;&gt;Node4</title>
<g id="a_edge3_Node000003_Node000004"><a xlink:title=" ">
<path fill="none" stroke="#63b8ff" d="M237.72,-163.08C263.07,-154.49 302.14,-141.26 330.72,-131.58"/>
<polygon fill="#63b8ff" stroke="#63b8ff" points="331.71,-134.94 340.06,-128.42 329.46,-128.31 331.71,-134.94"/>
</a>
</g>
</g>
<!-- Node5 -->
<g id="Node000005" class="node">
<title>Node5</title>
<g id="a_Node000005"><a xlink:title=" ">
<polygon fill="#e0e0e0" stroke="#999999" points="237.88,-127.5 190.38,-127.5 190.38,-109 237.88,-109 237.88,-127.5"/>
<text text-anchor="middle" x="214.12" y="-114" font-family="Helvetica,sans-Serif" font-size="10.00">stdint.h</text>
</a>
</g>
</g>
<!-- Node3&#45;&gt;Node5 -->
<g id="edge4_Node000003_Node000005" class="edge">
<title>Node3&#45;&gt;Node5</title>
<g id="a_edge4_Node000003_Node000005"><a xlink:title=" ">
<path fill="none" stroke="#63b8ff" d="M212.46,-163.08C212.7,-156.58 213.05,-147.42 213.37,-139.16"/>
<polygon fill="#63b8ff" stroke="#63b8ff" points="216.86,-139.4 213.74,-129.27 209.87,-139.13 216.86,-139.4"/>
</a>
</g>
</g>
<!-- Node6&#45;&gt;Node5 -->
<g id="edge6_Node000006_Node000005" class="edge">
<title>Node6&#45;&gt;Node5</title>
<g id="a_edge6_Node000006_Node000005"><a xlink:title=" ">
<path fill="none" stroke="#63b8ff" d="M139.82,-163.08C153.35,-155.1 173.68,-143.11 189.65,-133.69"/>
<polygon fill="#63b8ff" stroke="#63b8ff" points="191.27,-136.8 198.1,-128.7 187.71,-130.77 191.27,-136.8"/>
</a>
</g>
</g>
<!-- Node7 -->
<g id="Node000007" class="node">
<title>Node7</title>
<g id="a_Node000007"><a xlink:href="a01373.html" target="_top" xlink:title=" ">
<polygon fill="white" stroke="#666666" points="172.62,-127.5 75.62,-127.5 75.62,-109 172.62,-109 172.62,-127.5"/>
<text text-anchor="middle" x="124.12" y="-114" font-family="Helvetica,sans-Serif" font-size="10.00">utils/arax_assert.h</text>
</a>
</g>
</g>
<!-- Node6&#45;&gt;Node7 -->
<g id="edge7_Node000006_Node000007" class="edge">
<title>Node6&#45;&gt;Node7</title>
<g id="a_edge7_Node000006_Node000007"><a xlink:title=" ">
<path fill="none" stroke="#63b8ff" d="M124.96,-163.08C124.84,-156.58 124.66,-147.42 124.5,-139.16"/>
<polygon fill="#63b8ff" stroke="#63b8ff" points="128.01,-139.2 124.32,-129.27 121.01,-139.34 128.01,-139.2"/>
</a>
</g>
</g>
<!-- Node8 -->
<g id="Node000008" class="node">
<title>Node8</title>
<g id="a_Node000008"><a xlink:href="a01382.html" target="_top" xlink:title=" ">
<polygon fill="white" stroke="#666666" points="152,-73 96.25,-73 96.25,-54.5 152,-54.5 152,-73"/>
<text text-anchor="middle" x="124.12" y="-59.5" font-family="Helvetica,sans-Serif" font-size="10.00">compat.h</text>
</a>
</g>
</g>
<!-- Node7&#45;&gt;Node8 -->
<g id="edge8_Node000007_Node000008" class="edge">
<title>Node7&#45;&gt;Node8</title>
<g id="a_edge8_Node000007_Node000008"><a xlink:title=" ">
<path fill="none" stroke="#63b8ff" d="M124.12,-108.58C124.12,-102.08 124.12,-92.92 124.12,-84.66"/>
<polygon fill="#63b8ff" stroke="#63b8ff" points="127.63,-84.77 124.13,-74.77 120.63,-84.77 127.63,-84.77"/>
</a>
</g>
</g>
<!-- Node10&#45;&gt;Node4 -->
<g id="edge11_Node000010_Node000004" class="edge">
<title>Node10&#45;&gt;Node4</title>
<g id="a_edge11_Node000010_Node000004"><a xlink:title=" ">
<path fill="none" stroke="#63b8ff" d="M325.17,-217.58C331.87,-208.99 341.81,-195.24 348.12,-182 354.74,-168.13 359.66,-151.44 362.84,-138.76"/>
<polygon fill="#63b8ff" stroke="#63b8ff" points="366.22,-139.68 365.08,-129.14 359.4,-138.08 366.22,-139.68"/>
</a>
</g>
</g>
<!-- Node10&#45;&gt;Node5 -->
<g id="edge12_Node000010_Node000005" class="edge">
<title>Node10&#45;&gt;Node5</title>
<g id="a_edge12_Node000010_Node000005"><a xlink:title=" ">
<path fill="none" stroke="#63b8ff" d="M309.96,-217.85C292.89,-200.28 253.1,-159.34 230.52,-136.12"/>
<polygon fill="#63b8ff" stroke="#63b8ff" points="233.07,-133.72 223.59,-128.99 228.05,-138.6 233.07,-133.72"/>
</a>
</g>
</g>
<!-- Node10&#45;&gt;Node6 -->
<g id="edge14_Node000010_Node000006" class="edge">
<title>Node10&#45;&gt;Node6</title>
<g id="a_edge14_Node000010_Node000006"><a xlink:title=" ">
<path fill="none" stroke="#63b8ff" d="M286.25,-217.58C253.99,-208.8 203.88,-195.17 168.11,-185.44"/>
<polygon fill="#63b8ff" stroke="#63b8ff" points="169.07,-182.08 158.5,-182.83 167.23,-188.83 169.07,-182.08"/>
</a>
</g>
</g>
<!-- Node11 -->
<g id="Node000011" class="node">
<title>Node11</title>
<g id="a_Node000011"><a xlink:href="a01364.html" target="_top" xlink:title=" ">
<polygon fill="white" stroke="#666666" points="339.25,-182 297,-182 297,-163.5 339.25,-163.5 339.25,-182"/>
<text text-anchor="middle" x="318.12" y="-168.5" font-family="Helvetica,sans-Serif" font-size="10.00">conf.h</text>
</a>
</g>
</g>
<!-- Node10&#45;&gt;Node11 -->
<g id="edge13_Node000010_Node000011" class="edge">
<title>Node10&#45;&gt;Node11</title>
<g id="a_edge13_Node000010_Node000011"><a xlink:title=" ">
<path fill="none" stroke="#63b8ff" d="M318.12,-217.58C318.12,-211.08 318.12,-201.92 318.12,-193.66"/>
<polygon fill="#63b8ff" stroke="#63b8ff" points="321.63,-193.77 318.13,-183.77 314.63,-193.77 321.63,-193.77"/>
</a>
</g>
</g>
<!-- Node12&#45;&gt;Node1 -->
<g id="edge25_Node000012_Node000001" class="edge">
<title>Node12&#45;&gt;Node1</title>
<g id="a_edge25_Node000012_Node000001"><a xlink:title=" ">
<path fill="none" stroke="#63b8ff" d="M473.1,-236.76C463.57,-244.65 446.87,-256.58 432.3,-266.02"/>
<polygon fill="#63b8ff" stroke="#63b8ff" points="430.55,-262.98 423.96,-271.27 434.28,-268.91 430.55,-262.98"/>
</a>
</g>
</g>
<!-- Node13 -->
<g id="Node000013" class="node">
<title>Node13</title>
<g id="a_Node000013"><a xlink:href="a01355.html" target="_top" xlink:title=" ">
<polygon fill="white" stroke="#666666" points="632.62,-182 589.62,-182 589.62,-163.5 632.62,-163.5 632.62,-182"/>
<text text-anchor="middle" x="611.12" y="-168.5" font-family="Helvetica,sans-Serif" font-size="10.00">arax.h</text>
</a>
</g>
</g>
<!-- Node12&#45;&gt;Node13 -->
<g id="edge16_Node000012_Node000013" class="edge">
<title>Node12&#45;&gt;Node13</title>
<g id="a_edge16_Node000012_Node000013"><a xlink:title=" ">
<path fill="none" stroke="#63b8ff" d="M501.76,-217.58C522.81,-209.15 555.04,-196.23 579.07,-186.6"/>
<polygon fill="#63b8ff" stroke="#63b8ff" points="580.08,-189.96 588.06,-183 577.47,-183.47 580.08,-189.96"/>
</a>
</g>
</g>
<!-- Node12&#45;&gt;Node19 -->
<g id="edge24_Node000012_Node000019" class="edge">
<title>Node12&#45;&gt;Node19</title>
<g id="a_edge24_Node000012_Node000019"><a xlink:title=" ">
<path fill="none" stroke="#63b8ff" d="M476.3,-217.53C472.48,-208.67 466.55,-194.51 462.12,-182 457.05,-167.68 452.11,-151.23 448.53,-138.76"/>
<polygon fill="#63b8ff" stroke="#63b8ff" points="451.95,-137.99 445.87,-129.31 445.21,-139.89 451.95,-137.99"/>
</a>
</g>
</g>
<!-- Node20 -->
<g id="Node000020" class="node">
<title>Node20</title>
<g id="a_Node000020"><a xlink:href="a01427.html" target="_top" xlink:title=" ">
<polygon fill="white" stroke="#666666" points="571.5,-182 470.75,-182 470.75,-163.5 571.5,-163.5 571.5,-182"/>
<text text-anchor="middle" x="521.12" y="-168.5" font-family="Helvetica,sans-Serif" font-size="10.00">core/arax_throttle.h</text>
</a>
</g>
</g>
<!-- Node12&#45;&gt;Node20 -->
<g id="edge26_Node000012_Node000020" class="edge">
<title>Node12&#45;&gt;Node20</title>
<g id="a_edge26_Node000012_Node000020"><a xlink:title=" ">
<path fill="none" stroke="#63b8ff" d="M486.9,-217.58C492.51,-210.39 500.66,-199.95 507.6,-191.07"/>
<polygon fill="#63b8ff" stroke="#63b8ff" points="510.15,-193.49 513.55,-183.45 504.64,-189.18 510.15,-193.49"/>
</a>
</g>
</g>
<!-- Node13&#45;&gt;Node4 -->
<g id="edge18_Node000013_Node000004" class="edge">
<title>Node13&#45;&gt;Node4</title>
<g id="a_edge18_Node000013_Node000004"><a xlink:title=" ">
<path fill="none" stroke="#63b8ff" d="M589.15,-165.74C586.12,-164.96 583.05,-164.19 580.12,-163.5 547.07,-155.67 455.29,-137 403.64,-126.58"/>
<polygon fill="#63b8ff" stroke="#63b8ff" points="404.63,-123.21 394.14,-124.67 403.25,-130.07 404.63,-123.21"/>
</a>
</g>
</g>
<!-- Node14 -->
<g id="Node000014" class="node">
<title>Node14</title>
<g id="a_Node000014"><a xlink:title=" ">
<polygon fill="#e0e0e0" stroke="#999999" points="531.75,-127.5 486.5,-127.5 486.5,-109 531.75,-109 531.75,-127.5"/>
<text text-anchor="middle" x="509.12" y="-114" font-family="Helvetica,sans-Serif" font-size="10.00">stdio.h</text>
</a>
</g>
</g>
<!-- Node13&#45;&gt;Node14 -->
<g id="edge17_Node000013_Node000014" class="edge">
<title>Node13&#45;&gt;Node14</title>
<g id="a_edge17_Node000013_Node000014"><a xlink:title=" ">
<path fill="none" stroke="#63b8ff" d="M594.28,-163.08C578.48,-154.95 554.59,-142.65 536.13,-133.15"/>
<polygon fill="#63b8ff" stroke="#63b8ff" points="537.83,-130.09 527.34,-128.62 534.63,-136.31 537.83,-130.09"/>
</a>
</g>
</g>
<!-- Node15 -->
<g id="Node000015" class="node">
<title>Node15</title>
<g id="a_Node000015"><a xlink:href="a01361.html" target="_top" xlink:title=" ">
<polygon fill="white" stroke="#666666" points="692.62,-73 619.62,-73 619.62,-54.5 692.62,-54.5 692.62,-73"/>
<text text-anchor="middle" x="656.12" y="-59.5" font-family="Helvetica,sans-Serif" font-size="10.00">arax_types.h</text>
</a>
</g>
</g>
<!-- Node13&#45;&gt;Node15 -->
<g id="edge19_Node000013_Node000015" class="edge">
<title>Node13&#45;&gt;Node15</title>
<g id="a_edge19_Node000013_Node000015"><a xlink:title=" ">
<path fill="none" stroke="#63b8ff" d="M632.8,-164.8C649.59,-158.15 671.69,-146.29 682.12,-127.5 690.33,-112.71 681.18,-94.8 671.55,-81.9"/>
<polygon fill="#63b8ff" stroke="#63b8ff" points="674.37,-79.83 665.32,-74.32 668.96,-84.27 674.37,-79.83"/>
</a>
</g>
</g>
<!-- Node18 -->
<g id="Node000018" class="node">
<title>Node18</title>
<g id="a_Node000018"><a xlink:href="a01406.html" target="_top" xlink:title=" ">
<polygon fill="white" stroke="#666666" points="672.75,-127.5 549.5,-127.5 549.5,-109 672.75,-109 672.75,-127.5"/>
<text text-anchor="middle" x="611.12" y="-114" font-family="Helvetica,sans-Serif" font-size="10.00">core/arax_accel_types.h</text>
</a>
</g>
</g>
<!-- Node13&#45;&gt;Node18 -->
<g id="edge22_Node000013_Node000018" class="edge">
<title>Node13&#45;&gt;Node18</title>
<g id="a_edge22_Node000013_Node000018"><a xlink:title=" ">
<path fill="none" stroke="#63b8ff" d="M611.12,-163.08C611.12,-156.58 611.12,-147.42 611.12,-139.16"/>
<polygon fill="#63b8ff" stroke="#63b8ff" points="614.63,-139.27 611.13,-129.27 607.63,-139.27 614.63,-139.27"/>
</a>
</g>
</g>
<!-- Node16 -->
<g id="Node000016" class="node">
<title>Node16</title>
<g id="a_Node000016"><a xlink:title=" ">
<polygon fill="#e0e0e0" stroke="#999999" points="651.25,-18.5 591,-18.5 591,0 651.25,0 651.25,-18.5"/>
<text text-anchor="middle" x="621.12" y="-5" font-family="Helvetica,sans-Serif" font-size="10.00">sys/time.h</text>
</a>
</g>
</g>
<!-- Node15&#45;&gt;Node16 -->
<g id="edge20_Node000015_Node000016" class="edge">
<title>Node15&#45;&gt;Node16</title>
<g id="a_edge20_Node000015_Node000016"><a xlink:title=" ">
<path fill="none" stroke="#63b8ff" d="M650.35,-54.08C645.66,-47.05 638.89,-36.9 633.05,-28.14"/>
<polygon fill="#63b8ff" stroke="#63b8ff" points="636.1,-26.4 627.64,-20.02 630.27,-30.28 636.1,-26.4"/>
</a>
</g>
</g>
<!-- Node17 -->
<g id="Node000017" class="node">
<title>Node17</title>
<g id="a_Node000017"><a xlink:title=" ">
<polygon fill="#e0e0e0" stroke="#999999" points="712.62,-18.5 669.62,-18.5 669.62,0 712.62,0 712.62,-18.5"/>
<text text-anchor="middle" x="691.12" y="-5" font-family="Helvetica,sans-Serif" font-size="10.00">time.h</text>
</a>
</g>
</g>
<!-- Node15&#45;&gt;Node17 -->
<g id="edge21_Node000015_Node000017" class="edge">
<title>Node15&#45;&gt;Node17</title>
<g id="a_edge21_Node000015_Node000017"><a xlink:title=" ">
<path fill="none" stroke="#63b8ff" d="M661.9,-54.08C666.59,-47.05 673.36,-36.9 679.2,-28.14"/>
<polygon fill="#63b8ff" stroke="#63b8ff" points="681.98,-30.28 684.61,-20.02 676.15,-26.4 681.98,-30.28"/>
</a>
</g>
</g>
<!-- Node18&#45;&gt;Node15 -->
<g id="edge23_Node000018_Node000015" class="edge">
<title>Node18&#45;&gt;Node15</title>
<g id="a_edge23_Node000018_Node000015"><a xlink:title=" ">
<path fill="none" stroke="#63b8ff" d="M618.56,-108.58C624.78,-101.32 633.85,-90.73 641.53,-81.78"/>
<polygon fill="#63b8ff" stroke="#63b8ff" points="644,-84.28 647.85,-74.41 638.68,-79.72 644,-84.28"/>
</a>
</g>
</g>
<!-- Node20&#45;&gt;Node19 -->
<g id="edge27_Node000020_Node000019" class="edge">
<title>Node20&#45;&gt;Node19</title>
<g id="a_edge27_Node000020_Node000019"><a xlink:title=" ">
<path fill="none" stroke="#63b8ff" d="M508.24,-163.08C496.62,-155.25 479.25,-143.57 465.38,-134.23"/>
<polygon fill="#63b8ff" stroke="#63b8ff" points="467.53,-131.46 457.28,-128.78 463.62,-137.26 467.53,-131.46"/>
</a>
</g>
</g>
</g>
</svg>
