<?xml version="1.0" encoding="UTF-8" standalone="no"?>
<!DOCTYPE svg PUBLIC "-//W3C//DTD SVG 1.1//EN"
 "http://www.w3.org/Graphics/SVG/1.1/DTD/svg11.dtd">
<!-- Generated by graphviz version 12.2.1 (0)
 -->
<!-- Title: arax_object_ref_inc Pages: 1 -->
<svg width="977pt" height="364pt"
 viewBox="0.00 0.00 977.25 363.50" xmlns="http://www.w3.org/2000/svg" xmlns:xlink="http://www.w3.org/1999/xlink">
<g id="graph0" class="graph" transform="scale(1 1) rotate(0) translate(4 359.5)">
<title>arax_object_ref_inc</title>
<!-- Node1 -->
<g id="Node000001" class="node">
<title>Node1</title>
<g id="a_Node000001"><a xlink:title=" ">
<polygon fill="#999999" stroke="#666666" points="969.25,-186.5 867.75,-186.5 867.75,-168 969.25,-168 969.25,-186.5"/>
<text text-anchor="middle" x="918.5" y="-173" font-family="Helvetica,sans-Serif" font-size="10.00">arax_object_ref_inc</text>
</a>
</g>
</g>
<!-- Node2 -->
<g id="Node000002" class="node">
<title>Node2</title>
<g id="a_Node000002"><a xlink:href="a02187.html#ga7f1598b99463c5ef533a457f225b4c0b" target="_top" xlink:title=" ">
<polygon fill="white" stroke="#666666" points="810,-355.5 728,-355.5 728,-337 810,-337 810,-355.5"/>
<text text-anchor="middle" x="769" y="-342" font-family="Helvetica,sans-Serif" font-size="10.00">arax_accel_list</text>
</a>
</g>
</g>
<!-- Node1&#45;&gt;Node2 -->
<g id="edge1_Node000001_Node000002" class="edge">
<title>Node1&#45;&gt;Node2</title>
<g id="a_edge1_Node000001_Node000002"><a xlink:title=" ">
<path fill="none" stroke="#63b8ff" d="M910.56,-197.79C899,-229.09 872.9,-288.72 831.75,-323.25 825,-328.91 816.73,-333.25 808.45,-336.55"/>
<polygon fill="#63b8ff" stroke="#63b8ff" points="913.86,-198.97 913.9,-188.38 907.26,-196.64 913.86,-198.97"/>
</a>
</g>
</g>
<!-- Node3 -->
<g id="Node000003" class="node">
<title>Node3</title>
<g id="a_Node000003"><a xlink:href="a01922.html#af8ede6fc8d207004035f45d945688d2c" target="_top" xlink:title=" ">
<polygon fill="white" stroke="#666666" points="253.62,-232.75 155.12,-232.75 155.12,-203.75 253.62,-203.75 253.62,-232.75"/>
<text text-anchor="start" x="163.12" y="-219.25" font-family="Helvetica,sans-Serif" font-size="10.00">arax_data_allocate</text>
<text text-anchor="middle" x="204.38" y="-208.75" font-family="Helvetica,sans-Serif" font-size="10.00">_remote</text>
</a>
</g>
</g>
<!-- Node1&#45;&gt;Node3 -->
<g id="edge2_Node000001_Node000003" class="edge">
<title>Node1&#45;&gt;Node3</title>
<g id="a_edge2_Node000001_Node000003"><a xlink:title=" ">
<path fill="none" stroke="#63b8ff" d="M904.37,-196.02C889.25,-216.16 862.49,-247.48 831.75,-264.25 745.9,-311.07 714.16,-309.25 616.38,-309.25 616.38,-309.25 616.38,-309.25 476.5,-309.25 464.69,-309.25 320.69,-258.99 247.51,-233.17"/>
<polygon fill="#63b8ff" stroke="#63b8ff" points="907.06,-198.27 910.11,-188.13 901.4,-194.16 907.06,-198.27"/>
</a>
</g>
</g>
<!-- Node4 -->
<g id="Node000004" class="node">
<title>Node4</title>
<g id="a_Node000004"><a xlink:href="a01922.html#a1dc669466d6f52d5be8af2d991512ac2" target="_top" xlink:title=" ">
<polygon fill="white" stroke="#666666" points="667.25,-168.5 563.5,-168.5 563.5,-150 667.25,-150 667.25,-168.5"/>
<text text-anchor="middle" x="615.38" y="-155" font-family="Helvetica,sans-Serif" font-size="10.00">arax_data_input_init</text>
</a>
</g>
</g>
<!-- Node1&#45;&gt;Node4 -->
<g id="edge3_Node000001_Node000004" class="edge">
<title>Node1&#45;&gt;Node4</title>
<g id="a_edge3_Node000001_Node000004"><a xlink:title=" ">
<path fill="none" stroke="#63b8ff" d="M855.99,-173.57C800.44,-170.25 719.66,-165.42 667.57,-162.31"/>
<polygon fill="#63b8ff" stroke="#63b8ff" points="855.74,-177.06 865.93,-174.17 856.15,-170.08 855.74,-177.06"/>
</a>
</g>
</g>
<!-- Node9 -->
<g id="Node000009" class="node">
<title>Node9</title>
<g id="a_Node000009"><a xlink:href="a01922.html#a8995f71dba475975efc37756783cfce9" target="_top" xlink:title=" ">
<polygon fill="white" stroke="#666666" points="243.5,-111.5 165.25,-111.5 165.25,-93 243.5,-93 243.5,-111.5"/>
<text text-anchor="middle" x="204.38" y="-98" font-family="Helvetica,sans-Serif" font-size="10.00">arax_data_set</text>
</a>
</g>
</g>
<!-- Node1&#45;&gt;Node9 -->
<g id="edge19_Node000001_Node000009" class="edge">
<title>Node1&#45;&gt;Node9</title>
<g id="a_edge19_Node000001_Node000009"><a xlink:title=" ">
<path fill="none" stroke="#63b8ff" d="M889.67,-162.31C837.59,-135.79 721.19,-83.25 616.38,-83.25 616.38,-83.25 616.38,-83.25 476.5,-83.25 393.45,-83.25 296.45,-92.23 243.93,-97.84"/>
<polygon fill="#63b8ff" stroke="#63b8ff" points="887.94,-165.36 898.43,-166.85 891.16,-159.14 887.94,-165.36"/>
</a>
</g>
</g>
<!-- Node12 -->
<g id="Node000012" class="node">
<title>Node12</title>
<g id="a_Node000012"><a xlink:href="a01922.html#a4b65f90a821aca384f0ca1cff7bd1846" target="_top" xlink:title=" ">
<polygon fill="white" stroke="#666666" points="831.75,-205.5 706.25,-205.5 706.25,-187 831.75,-187 831.75,-205.5"/>
<text text-anchor="middle" x="769" y="-192" font-family="Helvetica,sans-Serif" font-size="10.00">arax_data_migrate_accel</text>
</a>
</g>
</g>
<!-- Node1&#45;&gt;Node12 -->
<g id="edge13_Node000001_Node000012" class="edge">
<title>Node1&#45;&gt;Node12</title>
<g id="a_edge13_Node000001_Node000012"><a xlink:title=" ">
<path fill="none" stroke="#63b8ff" d="M856.15,-185.15C848.23,-186.17 840.11,-187.22 832.18,-188.24"/>
<polygon fill="#63b8ff" stroke="#63b8ff" points="856.59,-188.62 866.06,-183.88 855.7,-181.68 856.59,-188.62"/>
</a>
</g>
</g>
<!-- Node14 -->
<g id="Node000014" class="node">
<title>Node14</title>
<g id="a_Node000014"><a xlink:href="a01922.html#a18d07d808917e0b971d46332e9e64da4" target="_top" xlink:title=" ">
<polygon fill="white" stroke="#666666" points="670.25,-242.5 560.5,-242.5 560.5,-224 670.25,-224 670.25,-242.5"/>
<text text-anchor="middle" x="615.38" y="-229" font-family="Helvetica,sans-Serif" font-size="10.00">arax_data_output_init</text>
</a>
</g>
</g>
<!-- Node1&#45;&gt;Node14 -->
<g id="edge18_Node000001_Node000014" class="edge">
<title>Node1&#45;&gt;Node14</title>
<g id="a_edge18_Node000001_Node000014"><a xlink:title=" ">
<path fill="none" stroke="#63b8ff" d="M889.7,-191.94C873.3,-199.92 851.87,-209.16 831.75,-214.25 778.07,-227.82 714.75,-232.06 670.72,-233.22"/>
<polygon fill="#63b8ff" stroke="#63b8ff" points="890.97,-195.22 898.34,-187.62 887.83,-188.96 890.97,-195.22"/>
</a>
</g>
</g>
<!-- Node15 -->
<g id="Node000015" class="node">
<title>Node15</title>
<g id="a_Node000015"><a xlink:href="a01922.html#ad4f10e1a58d989e93ad8d6318f9d4162" target="_top" xlink:title=" ">
<polygon fill="white" stroke="#666666" points="822.38,-55.5 715.62,-55.5 715.62,-37 822.38,-37 822.38,-55.5"/>
<text text-anchor="middle" x="769" y="-42" font-family="Helvetica,sans-Serif" font-size="10.00">arax_data_set_accel</text>
</a>
</g>
</g>
<!-- Node1&#45;&gt;Node15 -->
<g id="edge20_Node000001_Node000015" class="edge">
<title>Node1&#45;&gt;Node15</title>
<g id="a_edge20_Node000001_Node000015"><a xlink:title=" ">
<path fill="none" stroke="#63b8ff" d="M906.77,-158.05C892.51,-134.15 865.18,-93.53 831.75,-69.25 824.07,-63.67 814.88,-59.29 805.96,-55.92"/>
<polygon fill="#63b8ff" stroke="#63b8ff" points="903.57,-159.53 911.61,-166.43 909.63,-156.02 903.57,-159.53"/>
</a>
</g>
</g>
<!-- Node16 -->
<g id="Node000016" class="node">
<title>Node16</title>
<g id="a_Node000016"><a xlink:href="a01922.html#aca0dcc5fe70fd3aa9aa77ee4b8b9aac1" target="_top" xlink:title=" ">
<polygon fill="white" stroke="#666666" points="825.75,-18.5 712.25,-18.5 712.25,0 825.75,0 825.75,-18.5"/>
<text text-anchor="middle" x="769" y="-5" font-family="Helvetica,sans-Serif" font-size="10.00">arax_data_set_remote</text>
</a>
</g>
</g>
<!-- Node1&#45;&gt;Node16 -->
<g id="edge21_Node000001_Node000016" class="edge">
<title>Node1&#45;&gt;Node16</title>
<g id="a_edge21_Node000001_Node000016"><a xlink:title=" ">
<path fill="none" stroke="#63b8ff" d="M911.23,-156.88C900.31,-124.79 874.78,-62.59 831.75,-28.25 826.93,-24.4 821.33,-21.33 815.51,-18.88"/>
<polygon fill="#63b8ff" stroke="#63b8ff" points="907.82,-157.71 914.24,-166.14 914.48,-155.55 907.82,-157.71"/>
</a>
</g>
</g>
<!-- Node17 -->
<g id="Node000017" class="node">
<title>Node17</title>
<g id="a_Node000017"><a xlink:href="a02188.html#ga739047efb2b454e6c1ac54138ef2985d" target="_top" xlink:title=" ">
<polygon fill="white" stroke="#666666" points="389.62,-148.5 311.38,-148.5 311.38,-130 389.62,-130 389.62,-148.5"/>
<text text-anchor="middle" x="350.5" y="-135" font-family="Helvetica,sans-Serif" font-size="10.00">arax_proc_get</text>
</a>
</g>
</g>
<!-- Node1&#45;&gt;Node17 -->
<g id="edge22_Node000001_Node000017" class="edge">
<title>Node1&#45;&gt;Node17</title>
<g id="a_edge22_Node000001_Node000017"><a xlink:title=" ">
<path fill="none" stroke="#63b8ff" d="M857.11,-165.5C848.61,-163.99 839.97,-162.52 831.75,-161.25 760.28,-150.17 742.42,-145.93 670.25,-141.25 569.19,-134.7 449.73,-136.49 389.82,-138.05"/>
<polygon fill="#63b8ff" stroke="#63b8ff" points="856.21,-168.9 866.67,-167.24 857.46,-162.01 856.21,-168.9"/>
</a>
</g>
</g>
<!-- Node18 -->
<g id="Node000018" class="node">
<title>Node18</title>
<g id="a_Node000018"><a xlink:href="a01937.html#ace08f924cb86d1310099621564536657" target="_top" xlink:title=" ">
<polygon fill="white" stroke="#666666" points="524.5,-263.5 430.5,-263.5 430.5,-245 524.5,-245 524.5,-263.5"/>
<text text-anchor="middle" x="477.5" y="-250" font-family="Helvetica,sans-Serif" font-size="10.00">arax_task_submit</text>
</a>
</g>
</g>
<!-- Node1&#45;&gt;Node18 -->
<g id="edge27_Node000001_Node000018" class="edge">
<title>Node1&#45;&gt;Node18</title>
<g id="a_edge27_Node000001_Node000018"><a xlink:title=" ">
<path fill="none" stroke="#63b8ff" d="M899.44,-194.2C883.12,-208.4 857.73,-227.81 831.75,-237.25 727.3,-275.2 593.96,-267.98 524.8,-260.5"/>
<polygon fill="#63b8ff" stroke="#63b8ff" points="901.72,-196.86 906.81,-187.57 897.04,-191.66 901.72,-196.86"/>
</a>
</g>
</g>
<!-- Node5 -->
<g id="Node000005" class="node">
<title>Node5</title>
<g id="a_Node000005"><a xlink:href="a01937.html#a27bee94f7a23281c8b2b72ec433f6059" target="_top" xlink:title=" ">
<polygon fill="white" stroke="#666666" points="520,-207.5 435,-207.5 435,-189 520,-189 520,-207.5"/>
<text text-anchor="middle" x="477.5" y="-194" font-family="Helvetica,sans-Serif" font-size="10.00">arax_task_alloc</text>
</a>
</g>
</g>
<!-- Node4&#45;&gt;Node5 -->
<g id="edge4_Node000004_Node000005" class="edge">
<title>Node4&#45;&gt;Node5</title>
<g id="a_edge4_Node000004_Node000005"><a xlink:title=" ">
<path fill="none" stroke="#63b8ff" d="M569.47,-172.14C550.73,-177.52 529.33,-183.66 512,-188.63"/>
<polygon fill="#63b8ff" stroke="#63b8ff" points="570.34,-175.53 578.98,-169.41 568.41,-168.8 570.34,-175.53"/>
</a>
</g>
</g>
<!-- Node6 -->
<g id="Node000006" class="node">
<title>Node6</title>
<g id="a_Node000006"><a xlink:href="a02189.html#gac9f0f3fbb14da879d3ff09bd367bbb24" target="_top" xlink:title=" ">
<polygon fill="white" stroke="#666666" points="394.5,-207.5 306.5,-207.5 306.5,-189 394.5,-189 394.5,-207.5"/>
<text text-anchor="middle" x="350.5" y="-194" font-family="Helvetica,sans-Serif" font-size="10.00">arax_task_issue</text>
</a>
</g>
</g>
<!-- Node5&#45;&gt;Node6 -->
<g id="edge5_Node000005_Node000006" class="edge">
<title>Node5&#45;&gt;Node6</title>
<g id="a_edge5_Node000005_Node000006"><a xlink:title=" ">
<path fill="none" stroke="#63b8ff" d="M423.2,-198.25C413.74,-198.25 403.99,-198.25 394.85,-198.25"/>
<polygon fill="#63b8ff" stroke="#63b8ff" points="423.02,-201.75 433.02,-198.25 423.02,-194.75 423.02,-201.75"/>
</a>
</g>
</g>
<!-- Node6&#45;&gt;Node3 -->
<g id="edge6_Node000006_Node000003" class="edge">
<title>Node6&#45;&gt;Node3</title>
<g id="a_edge6_Node000006_Node000003"><a xlink:title=" ">
<path fill="none" stroke="#63b8ff" d="M295.13,-205.8C281.58,-207.68 267.13,-209.68 253.89,-211.52"/>
<polygon fill="#63b8ff" stroke="#63b8ff" points="295.33,-209.3 304.76,-204.46 294.37,-202.37 295.33,-209.3"/>
</a>
</g>
</g>
<!-- Node7 -->
<g id="Node000007" class="node">
<title>Node7</title>
<g id="a_Node000007"><a xlink:href="a01922.html#a696bc4319d0f6c6baa7d797a8df6b56f" target="_top" xlink:title=" ">
<polygon fill="white" stroke="#666666" points="243.5,-185.5 165.25,-185.5 165.25,-167 243.5,-167 243.5,-185.5"/>
<text text-anchor="middle" x="204.38" y="-172" font-family="Helvetica,sans-Serif" font-size="10.00">arax_data_get</text>
</a>
</g>
</g>
<!-- Node6&#45;&gt;Node7 -->
<g id="edge7_Node000006_Node000007" class="edge">
<title>Node6&#45;&gt;Node7</title>
<g id="a_edge7_Node000006_Node000007"><a xlink:title=" ">
<path fill="none" stroke="#63b8ff" d="M295.23,-189.97C278.08,-187.35 259.49,-184.51 243.69,-182.1"/>
<polygon fill="#63b8ff" stroke="#63b8ff" points="294.35,-193.37 304.76,-191.42 295.4,-186.45 294.35,-193.37"/>
</a>
</g>
</g>
<!-- Node6&#45;&gt;Node9 -->
<g id="edge9_Node000006_Node000009" class="edge">
<title>Node6&#45;&gt;Node9</title>
<g id="a_edge9_Node000006_Node000009"><a xlink:title=" ">
<path fill="none" stroke="#63b8ff" d="M330.95,-180.75C323.34,-173.52 314.46,-165.02 306.5,-157.25 290.31,-141.44 289.97,-132.78 270.5,-121.25 262.39,-116.45 252.99,-112.79 243.9,-110.04"/>
<polygon fill="#63b8ff" stroke="#63b8ff" points="328.42,-183.17 338.08,-187.5 333.23,-178.08 328.42,-183.17"/>
</a>
</g>
</g>
<!-- Node10 -->
<g id="Node000010" class="node">
<title>Node10</title>
<g id="a_Node000010"><a xlink:href="a01922.html#af735744d0f8bec04394639a841d2ba0f" target="_top" xlink:title=" ">
<polygon fill="white" stroke="#666666" points="270.5,-148.5 138.25,-148.5 138.25,-130 270.5,-130 270.5,-148.5"/>
<text text-anchor="middle" x="204.38" y="-135" font-family="Helvetica,sans-Serif" font-size="10.00">ARAX_OBJ_DTOR_DECL</text>
</a>
</g>
</g>
<!-- Node6&#45;&gt;Node10 -->
<g id="edge11_Node000006_Node000010" class="edge">
<title>Node6&#45;&gt;Node10</title>
<g id="a_edge11_Node000006_Node000010"><a xlink:title=" ">
<path fill="none" stroke="#63b8ff" d="M322.99,-183.28C307.91,-175.16 288.51,-165.36 270.5,-158.25 261.74,-154.79 252.09,-151.63 242.97,-148.93"/>
<polygon fill="#63b8ff" stroke="#63b8ff" points="320.88,-186.11 331.33,-187.85 324.24,-179.97 320.88,-186.11"/>
</a>
</g>
</g>
<!-- Node11 -->
<g id="Node000011" class="node">
<title>Node11</title>
<g id="a_Node000011"><a xlink:href="a02189.html#ga1418f4cd7336bf77cce7b955a1bf7077" target="_top" xlink:title=" ">
<polygon fill="white" stroke="#666666" points="261.12,-269.5 147.62,-269.5 147.62,-251 261.12,-251 261.12,-269.5"/>
<text text-anchor="middle" x="204.38" y="-256" font-family="Helvetica,sans-Serif" font-size="10.00">arax_task_issue_sync</text>
</a>
</g>
</g>
<!-- Node6&#45;&gt;Node11 -->
<g id="edge12_Node000006_Node000011" class="edge">
<title>Node6&#45;&gt;Node11</title>
<g id="a_edge12_Node000006_Node000011"><a xlink:title=" ">
<path fill="none" stroke="#63b8ff" d="M324.93,-213.94C309.71,-223.15 289.5,-234.46 270.5,-242.25 262.79,-245.41 254.35,-248.2 246.18,-250.58"/>
<polygon fill="#63b8ff" stroke="#63b8ff" points="326.64,-217 333.31,-208.77 322.96,-211.04 326.64,-217"/>
</a>
</g>
</g>
<!-- Node8 -->
<g id="Node000008" class="node">
<title>Node8</title>
<g id="a_Node000008"><a xlink:href="a01922.html#a7d8356bd5c8b6a8d7dffc6ba94cc22e5" target="_top" xlink:title=" ">
<polygon fill="white" stroke="#666666" points="102.25,-148.5 0,-148.5 0,-130 102.25,-130 102.25,-148.5"/>
<text text-anchor="middle" x="51.12" y="-135" font-family="Helvetica,sans-Serif" font-size="10.00">arax_data_memcpy</text>
</a>
</g>
</g>
<!-- Node7&#45;&gt;Node8 -->
<g id="edge8_Node000007_Node000008" class="edge">
<title>Node7&#45;&gt;Node8</title>
<g id="a_edge8_Node000007_Node000008"><a xlink:title=" ">
<path fill="none" stroke="#63b8ff" d="M153.7,-164.1C133.66,-159.2 110.85,-153.62 91.93,-148.99"/>
<polygon fill="#63b8ff" stroke="#63b8ff" points="152.8,-167.48 163.35,-166.46 154.46,-160.68 152.8,-167.48"/>
</a>
</g>
</g>
<!-- Node9&#45;&gt;Node8 -->
<g id="edge10_Node000009_Node000008" class="edge">
<title>Node9&#45;&gt;Node8</title>
<g id="a_edge10_Node000009_Node000008"><a xlink:title=" ">
<path fill="none" stroke="#63b8ff" d="M153.7,-114.4C133.66,-119.3 110.85,-124.88 91.93,-129.51"/>
<polygon fill="#63b8ff" stroke="#63b8ff" points="154.46,-117.82 163.35,-112.04 152.8,-111.02 154.46,-117.82"/>
</a>
</g>
</g>
<!-- Node12&#45;&gt;Node4 -->
<g id="edge15_Node000012_Node000004" class="edge">
<title>Node12&#45;&gt;Node4</title>
<g id="a_edge15_Node000012_Node000004"><a xlink:title=" ">
<path fill="none" stroke="#63b8ff" d="M717.13,-183.84C697.27,-178.99 674.85,-173.52 656.21,-168.97"/>
<polygon fill="#63b8ff" stroke="#63b8ff" points="716.15,-187.2 726.69,-186.17 717.81,-180.4 716.15,-187.2"/>
</a>
</g>
</g>
<!-- Node13 -->
<g id="Node000013" class="node">
<title>Node13</title>
<g id="a_Node000013"><a xlink:href="a01922.html#a113a3c52b0c3b4f3b390921ee4c5022e" target="_top" xlink:title=" ">
<polygon fill="white" stroke="#666666" points="663.5,-205.5 567.25,-205.5 567.25,-187 663.5,-187 663.5,-205.5"/>
<text text-anchor="middle" x="615.38" y="-192" font-family="Helvetica,sans-Serif" font-size="10.00">arax_data_arg_init</text>
</a>
</g>
</g>
<!-- Node12&#45;&gt;Node13 -->
<g id="edge14_Node000012_Node000013" class="edge">
<title>Node12&#45;&gt;Node13</title>
<g id="a_edge14_Node000012_Node000013"><a xlink:title=" ">
<path fill="none" stroke="#63b8ff" d="M694.58,-196.25C684.1,-196.25 673.56,-196.25 663.76,-196.25"/>
<polygon fill="#63b8ff" stroke="#63b8ff" points="694.38,-199.75 704.38,-196.25 694.38,-192.75 694.38,-199.75"/>
</a>
</g>
</g>
<!-- Node12&#45;&gt;Node14 -->
<g id="edge16_Node000012_Node000014" class="edge">
<title>Node12&#45;&gt;Node14</title>
<g id="a_edge16_Node000012_Node000014"><a xlink:title=" ">
<path fill="none" stroke="#63b8ff" d="M717.13,-208.66C697.27,-213.51 674.85,-218.98 656.21,-223.53"/>
<polygon fill="#63b8ff" stroke="#63b8ff" points="717.81,-212.1 726.69,-206.33 716.15,-205.3 717.81,-212.1"/>
</a>
</g>
</g>
<!-- Node14&#45;&gt;Node5 -->
<g id="edge17_Node000014_Node000005" class="edge">
<title>Node14&#45;&gt;Node5</title>
<g id="a_edge17_Node000014_Node000005"><a xlink:title=" ">
<path fill="none" stroke="#63b8ff" d="M565.57,-220.68C549.3,-216.49 531.44,-211.89 516.15,-207.95"/>
<polygon fill="#63b8ff" stroke="#63b8ff" points="564.5,-224.02 575.06,-223.12 566.25,-217.24 564.5,-224.02"/>
</a>
</g>
</g>
<!-- Node17&#45;&gt;Node3 -->
<g id="edge23_Node000017_Node000003" class="edge">
<title>Node17&#45;&gt;Node3</title>
<g id="a_edge23_Node000017_Node000003"><a xlink:title=" ">
<path fill="none" stroke="#63b8ff" d="M329.12,-155.62C313.68,-167.46 291.61,-183.24 270.5,-194.25 264.2,-197.54 257.34,-200.58 250.52,-203.33"/>
<polygon fill="#63b8ff" stroke="#63b8ff" points="330.88,-158.68 336.6,-149.77 326.57,-153.17 330.88,-158.68"/>
</a>
</g>
</g>
<!-- Node17&#45;&gt;Node7 -->
<g id="edge24_Node000017_Node000007" class="edge">
<title>Node17&#45;&gt;Node7</title>
<g id="a_edge24_Node000017_Node000007"><a xlink:title=" ">
<path fill="none" stroke="#63b8ff" d="M300.62,-151.8C281.88,-156.61 260.8,-162.02 243.24,-166.53"/>
<polygon fill="#63b8ff" stroke="#63b8ff" points="301.35,-155.22 310.17,-149.35 299.61,-148.44 301.35,-155.22"/>
</a>
</g>
</g>
<!-- Node17&#45;&gt;Node9 -->
<g id="edge25_Node000017_Node000009" class="edge">
<title>Node17&#45;&gt;Node9</title>
<g id="a_edge25_Node000017_Node000009"><a xlink:title=" ">
<path fill="none" stroke="#63b8ff" d="M300.62,-126.7C281.88,-121.89 260.8,-116.48 243.24,-111.97"/>
<polygon fill="#63b8ff" stroke="#63b8ff" points="299.61,-130.06 310.17,-129.15 301.35,-123.28 299.61,-130.06"/>
</a>
</g>
</g>
<!-- Node17&#45;&gt;Node10 -->
<g id="edge26_Node000017_Node000010" class="edge">
<title>Node17&#45;&gt;Node10</title>
<g id="a_edge26_Node000017_Node000010"><a xlink:title=" ">
<path fill="none" stroke="#63b8ff" d="M299.49,-139.25C290.24,-139.25 280.45,-139.25 270.82,-139.25"/>
<polygon fill="#63b8ff" stroke="#63b8ff" points="299.36,-142.75 309.36,-139.25 299.36,-135.75 299.36,-142.75"/>
</a>
</g>
</g>
<!-- Node18&#45;&gt;Node6 -->
<g id="edge28_Node000018_Node000006" class="edge">
<title>Node18&#45;&gt;Node6</title>
<g id="a_edge28_Node000018_Node000006"><a xlink:title=" ">
<path fill="none" stroke="#63b8ff" d="M444.65,-239.98C422.24,-229.94 392.85,-216.77 373.13,-207.94"/>
<polygon fill="#63b8ff" stroke="#63b8ff" points="443.07,-243.11 453.63,-244 445.94,-236.72 443.07,-243.11"/>
</a>
</g>
</g>
</g>
</svg>
