<?xml version="1.0" encoding="UTF-8" standalone="no"?>
<!DOCTYPE svg PUBLIC "-//W3C//DTD SVG 1.1//EN"
 "http://www.w3.org/Graphics/SVG/1.1/DTD/svg11.dtd">
<!-- Generated by graphviz version 8.0.5 (0)
 -->
<!-- Title: arax_vaccel_add_task Pages: 1 -->
<svg width="597pt" height="101pt"
 viewBox="0.00 0.00 597.00 100.50" xmlns="http://www.w3.org/2000/svg" xmlns:xlink="http://www.w3.org/1999/xlink">
<g id="graph0" class="graph" transform="scale(1 1) rotate(0) translate(4 96.5)">
<title>arax_vaccel_add_task</title>
<!-- Node1 -->
<g id="Node000001" class="node">
<title>Node1</title>
<g id="a_Node000001"><a xlink:title=" ">
<polygon fill="#999999" stroke="#666666" points="113.5,-36.5 0,-36.5 0,-18 113.5,-18 113.5,-36.5"/>
<text text-anchor="middle" x="56.75" y="-23" font-family="Helvetica,sans-Serif" font-size="10.00">arax_vaccel_add_task</text>
</a>
</g>
</g>
<!-- Node2 -->
<g id="Node000002" class="node">
<title>Node2</title>
<g id="a_Node000002"><a xlink:href="a01904.html#ab6afd8cc035237c811ce6a1b7727acc3" target="_top" xlink:title=" ">
<polygon fill="white" stroke="#666666" points="258.5,-55.5 149.5,-55.5 149.5,-37 258.5,-37 258.5,-55.5"/>
<text text-anchor="middle" x="204" y="-42" font-family="Helvetica,sans-Serif" font-size="10.00">arax_accel_add_task</text>
</a>
</g>
</g>
<!-- Node1&#45;&gt;Node2 -->
<g id="edge1_Node000001_Node000002" class="edge">
<title>Node1&#45;&gt;Node2</title>
<g id="a_edge1_Node000001_Node000002"><a xlink:title=" ">
<path fill="none" stroke="#63b8ff" d="M113.91,-34.6C122.01,-35.66 130.4,-36.75 138.65,-37.83"/>
<polygon fill="#63b8ff" stroke="#63b8ff" points="138.01,-41.41 148.38,-39.24 138.92,-34.47 138.01,-41.41"/>
</a>
</g>
</g>
<!-- Node9 -->
<g id="Node000009" class="node">
<title>Node9</title>
<g id="a_Node000009"><a xlink:href="a01949.html#a9fae55b169121c4851bb7c0adf4eac47" target="_top" xlink:title=" ">
<polygon fill="white" stroke="#666666" points="249.88,-18.5 158.12,-18.5 158.12,0 249.88,0 249.88,-18.5"/>
<text text-anchor="middle" x="204" y="-5" font-family="Helvetica,sans-Serif" font-size="10.00">utils_queue_push</text>
</a>
</g>
</g>
<!-- Node1&#45;&gt;Node9 -->
<g id="edge8_Node000001_Node000009" class="edge">
<title>Node1&#45;&gt;Node9</title>
<g id="a_edge8_Node000001_Node000009"><a xlink:title=" ">
<path fill="none" stroke="#63b8ff" d="M113.91,-20.29C124.8,-18.94 136.22,-17.53 147.11,-16.18"/>
<polygon fill="#63b8ff" stroke="#63b8ff" points="147.29,-19.56 156.78,-14.85 146.43,-12.61 147.29,-19.56"/>
</a>
</g>
</g>
<!-- Node3 -->
<g id="Node000003" class="node">
<title>Node3</title>
<g id="a_Node000003"><a xlink:href="a02352.html#aed6af4d83e934e3e654ead541b15f2d9" target="_top" xlink:title=" ">
<polygon fill="white" stroke="#666666" points="408.75,-92.5 299.75,-92.5 299.75,-74 408.75,-74 408.75,-92.5"/>
<text text-anchor="middle" x="354.25" y="-79" font-family="Helvetica,sans-Serif" font-size="10.00">async_condition_lock</text>
</a>
</g>
</g>
<!-- Node2&#45;&gt;Node3 -->
<g id="edge2_Node000002_Node000003" class="edge">
<title>Node2&#45;&gt;Node3</title>
<g id="a_edge2_Node000002_Node000003"><a xlink:title=" ">
<path fill="none" stroke="#63b8ff" d="M243.95,-55.97C262.26,-60.54 284.31,-66.04 303.78,-70.9"/>
<polygon fill="#63b8ff" stroke="#63b8ff" points="302.75,-74.5 313.3,-73.53 304.45,-67.71 302.75,-74.5"/>
</a>
</g>
</g>
<!-- Node5 -->
<g id="Node000005" class="node">
<title>Node5</title>
<g id="a_Node000005"><a xlink:href="a02352.html#a45a896fb606c2aa66a5a4c2af59ce494" target="_top" xlink:title=" ">
<polygon fill="white" stroke="#666666" points="411.75,-55.5 296.75,-55.5 296.75,-37 411.75,-37 411.75,-55.5"/>
<text text-anchor="middle" x="354.25" y="-42" font-family="Helvetica,sans-Serif" font-size="10.00">async_condition_notify</text>
</a>
</g>
</g>
<!-- Node2&#45;&gt;Node5 -->
<g id="edge4_Node000002_Node000005" class="edge">
<title>Node2&#45;&gt;Node5</title>
<g id="a_edge4_Node000002_Node000005"><a xlink:title=" ">
<path fill="none" stroke="#63b8ff" d="M258.94,-46.25C267.59,-46.25 276.64,-46.25 285.57,-46.25"/>
<polygon fill="#63b8ff" stroke="#63b8ff" points="285.35,-49.75 295.35,-46.25 285.35,-42.75 285.35,-49.75"/>
</a>
</g>
</g>
<!-- Node7 -->
<g id="Node000007" class="node">
<title>Node7</title>
<g id="a_Node000007"><a xlink:href="a02352.html#a3bbcb7c4c024e99d5c4ba52b61dfbbf7" target="_top" xlink:title=" ">
<polygon fill="white" stroke="#666666" points="414,-18.5 294.5,-18.5 294.5,0 414,0 414,-18.5"/>
<text text-anchor="middle" x="354.25" y="-5" font-family="Helvetica,sans-Serif" font-size="10.00">async_condition_unlock</text>
</a>
</g>
</g>
<!-- Node2&#45;&gt;Node7 -->
<g id="edge6_Node000002_Node000007" class="edge">
<title>Node2&#45;&gt;Node7</title>
<g id="a_edge6_Node000002_Node000007"><a xlink:title=" ">
<path fill="none" stroke="#63b8ff" d="M243.95,-36.53C262.26,-31.96 284.31,-26.46 303.78,-21.6"/>
<polygon fill="#63b8ff" stroke="#63b8ff" points="304.45,-24.79 313.3,-18.97 302.75,-18 304.45,-24.79"/>
</a>
</g>
</g>
<!-- Node4 -->
<g id="Node000004" class="node">
<title>Node4</title>
<g id="a_Node000004"><a xlink:href="a02346.html#aebf9e72bb6cbd8b9e33489d46c25075d" target="_top" xlink:title=" ">
<polygon fill="white" stroke="#666666" points="577.75,-92.5 461.25,-92.5 461.25,-74 577.75,-74 577.75,-92.5"/>
<text text-anchor="middle" x="519.5" y="-79" font-family="Helvetica,sans-Serif" font-size="10.00">async_completion_wait</text>
</a>
</g>
</g>
<!-- Node3&#45;&gt;Node4 -->
<g id="edge3_Node000003_Node000004" class="edge">
<title>Node3&#45;&gt;Node4</title>
<g id="a_edge3_Node000003_Node000004"><a xlink:title=" ">
<path fill="none" stroke="#63b8ff" d="M409.16,-83.25C422.27,-83.25 436.48,-83.25 450.16,-83.25"/>
<polygon fill="#63b8ff" stroke="#63b8ff" points="450,-86.75 460,-83.25 450,-79.75 450,-86.75"/>
</a>
</g>
</g>
<!-- Node6 -->
<g id="Node000006" class="node">
<title>Node6</title>
<g id="a_Node000006"><a xlink:href="a02346.html#a0fa370eee5160963e617d1daf1c07363" target="_top" xlink:title=" ">
<polygon fill="white" stroke="#666666" points="575.88,-55.5 463.12,-55.5 463.12,-37 575.88,-37 575.88,-55.5"/>
<text text-anchor="middle" x="519.5" y="-42" font-family="Helvetica,sans-Serif" font-size="10.00">async_semaphore_inc</text>
</a>
</g>
</g>
<!-- Node5&#45;&gt;Node6 -->
<g id="edge5_Node000005_Node000006" class="edge">
<title>Node5&#45;&gt;Node6</title>
<g id="a_edge5_Node000005_Node000006"><a xlink:title=" ">
<path fill="none" stroke="#63b8ff" d="M411.89,-46.25C424.77,-46.25 438.56,-46.25 451.82,-46.25"/>
<polygon fill="#63b8ff" stroke="#63b8ff" points="451.79,-49.75 461.79,-46.25 451.79,-42.75 451.79,-49.75"/>
</a>
</g>
</g>
<!-- Node8 -->
<g id="Node000008" class="node">
<title>Node8</title>
<g id="a_Node000008"><a xlink:href="a02346.html#ad1d30ecbf6bff6457b680aa940281072" target="_top" xlink:title=" ">
<polygon fill="white" stroke="#666666" points="589,-18.5 450,-18.5 450,0 589,0 589,-18.5"/>
<text text-anchor="middle" x="519.5" y="-5" font-family="Helvetica,sans-Serif" font-size="10.00">async_completion_complete</text>
</a>
</g>
</g>
<!-- Node7&#45;&gt;Node8 -->
<g id="edge7_Node000007_Node000008" class="edge">
<title>Node7&#45;&gt;Node8</title>
<g id="a_edge7_Node000007_Node000008"><a xlink:title=" ">
<path fill="none" stroke="#63b8ff" d="M414.19,-9.25C422.19,-9.25 430.51,-9.25 438.8,-9.25"/>
<polygon fill="#63b8ff" stroke="#63b8ff" points="438.65,-12.75 448.65,-9.25 438.65,-5.75 438.65,-12.75"/>
</a>
</g>
</g>
</g>
</svg>
