<?xml version="1.0" encoding="UTF-8" standalone="no"?>
<!DOCTYPE svg PUBLIC "-//W3C//DTD SVG 1.1//EN"
 "http://www.w3.org/Graphics/SVG/1.1/DTD/svg11.dtd">
<!-- Generated by graphviz version 8.0.5 (0)
 -->
<!-- Title: async_condition_init Pages: 1 -->
<svg width="462pt" height="138pt"
 viewBox="0.00 0.00 461.75 137.50" xmlns="http://www.w3.org/2000/svg" xmlns:xlink="http://www.w3.org/1999/xlink">
<g id="graph0" class="graph" transform="scale(1 1) rotate(0) translate(4 133.5)">
<title>async_condition_init</title>
<!-- Node1 -->
<g id="Node000001" class="node">
<title>Node1</title>
<g id="a_Node000001"><a xlink:title=" ">
<polygon fill="#999999" stroke="#666666" points="103.75,-73.5 0,-73.5 0,-55 103.75,-55 103.75,-73.5"/>
<text text-anchor="middle" x="51.88" y="-60" font-family="Helvetica,sans-Serif" font-size="10.00">async_condition_init</text>
</a>
</g>
</g>
<!-- Node2 -->
<g id="Node000002" class="node">
<title>Node2</title>
<g id="a_Node000002"><a xlink:href="a02346.html#ad1d30ecbf6bff6457b680aa940281072" target="_top" xlink:title=" ">
<polygon fill="white" stroke="#666666" points="278.75,-129.5 139.75,-129.5 139.75,-111 278.75,-111 278.75,-129.5"/>
<text text-anchor="middle" x="209.25" y="-116" font-family="Helvetica,sans-Serif" font-size="10.00">async_completion_complete</text>
</a>
</g>
</g>
<!-- Node1&#45;&gt;Node2 -->
<g id="edge1_Node000001_Node000002" class="edge">
<title>Node1&#45;&gt;Node2</title>
<g id="a_edge1_Node000001_Node000002"><a xlink:title=" ">
<path fill="none" stroke="#63b8ff" d="M73.29,-73.85C90.7,-81.82 116.54,-93.13 139.75,-101.25 146.09,-103.47 152.84,-105.61 159.53,-107.59"/>
<polygon fill="#63b8ff" stroke="#63b8ff" points="158.35,-111.18 168.93,-110.58 160.29,-104.45 158.35,-111.18"/>
</a>
</g>
</g>
<!-- Node3 -->
<g id="Node000003" class="node">
<title>Node3</title>
<g id="a_Node000003"><a xlink:href="a02346.html#ac728117d73179c279de49e01ae905dda" target="_top" xlink:title=" ">
<polygon fill="white" stroke="#666666" points="265.25,-92.5 153.25,-92.5 153.25,-74 265.25,-74 265.25,-92.5"/>
<text text-anchor="middle" x="209.25" y="-79" font-family="Helvetica,sans-Serif" font-size="10.00">async_completion_init</text>
</a>
</g>
</g>
<!-- Node1&#45;&gt;Node3 -->
<g id="edge2_Node000001_Node000003" class="edge">
<title>Node1&#45;&gt;Node3</title>
<g id="a_edge2_Node000001_Node000003"><a xlink:title=" ">
<path fill="none" stroke="#63b8ff" d="M104.18,-70.52C116.4,-72.02 129.62,-73.63 142.39,-75.2"/>
<polygon fill="#63b8ff" stroke="#63b8ff" points="141.64,-78.75 151.99,-76.49 142.49,-71.8 141.64,-78.75"/>
</a>
</g>
</g>
<!-- Node4 -->
<g id="Node000004" class="node">
<title>Node4</title>
<g id="a_Node000004"><a xlink:href="a02349.html#a3bbcb7c4c024e99d5c4ba52b61dfbbf7" target="_top" xlink:title=" ">
<polygon fill="white" stroke="#666666" points="269,-55.5 149.5,-55.5 149.5,-37 269,-37 269,-55.5"/>
<text text-anchor="middle" x="209.25" y="-42" font-family="Helvetica,sans-Serif" font-size="10.00">async_condition_unlock</text>
</a>
</g>
</g>
<!-- Node1&#45;&gt;Node4 -->
<g id="edge3_Node000001_Node000004" class="edge">
<title>Node1&#45;&gt;Node4</title>
<g id="a_edge3_Node000001_Node000004"><a xlink:title=" ">
<path fill="none" stroke="#63b8ff" d="M104.18,-58.31C115.1,-57.04 126.81,-55.69 138.29,-54.36"/>
<polygon fill="#63b8ff" stroke="#63b8ff" points="138.66,-57.72 148.19,-53.09 137.86,-50.77 138.66,-57.72"/>
</a>
</g>
</g>
<!-- Node6 -->
<g id="Node000006" class="node">
<title>Node6</title>
<g id="a_Node000006"><a xlink:href="a02346.html#a2a7d01fc7720e936a430efc09d094c6c" target="_top" xlink:title=" ">
<polygon fill="white" stroke="#666666" points="265.62,-18.5 152.88,-18.5 152.88,0 265.62,0 265.62,-18.5"/>
<text text-anchor="middle" x="209.25" y="-5" font-family="Helvetica,sans-Serif" font-size="10.00">async_semaphore_init</text>
</a>
</g>
</g>
<!-- Node1&#45;&gt;Node6 -->
<g id="edge5_Node000001_Node000006" class="edge">
<title>Node1&#45;&gt;Node6</title>
<g id="a_edge5_Node000001_Node000006"><a xlink:title=" ">
<path fill="none" stroke="#63b8ff" d="M74.02,-54.64C91.44,-46.92 116.9,-36.12 139.75,-28.25 146.11,-26.06 152.86,-23.94 159.55,-21.97"/>
<polygon fill="#63b8ff" stroke="#63b8ff" points="160.3,-25.1 168.95,-18.98 158.37,-18.38 160.3,-25.1"/>
</a>
</g>
</g>
<!-- Node5 -->
<g id="Node000005" class="node">
<title>Node5</title>
<g id="a_Node000005"><a xlink:href="a02349.html#ad1d30ecbf6bff6457b680aa940281072" target="_top" xlink:title=" ">
<polygon fill="white" stroke="#666666" points="453.75,-55.5 314.75,-55.5 314.75,-37 453.75,-37 453.75,-55.5"/>
<text text-anchor="middle" x="384.25" y="-42" font-family="Helvetica,sans-Serif" font-size="10.00">async_completion_complete</text>
</a>
</g>
</g>
<!-- Node4&#45;&gt;Node5 -->
<g id="edge4_Node000004_Node000005" class="edge">
<title>Node4&#45;&gt;Node5</title>
<g id="a_edge4_Node000004_Node000005"><a xlink:title=" ">
<path fill="none" stroke="#63b8ff" d="M269.3,-46.25C280.28,-46.25 291.92,-46.25 303.4,-46.25"/>
<polygon fill="#63b8ff" stroke="#63b8ff" points="303.33,-49.75 313.33,-46.25 303.33,-42.75 303.33,-49.75"/>
</a>
</g>
</g>
</g>
</svg>
