<?xml version="1.0" encoding="UTF-8" standalone="no"?>
<!DOCTYPE svg PUBLIC "-//W3C//DTD SVG 1.1//EN"
 "http://www.w3.org/Graphics/SVG/1.1/DTD/svg11.dtd">
<!-- Generated by graphviz version 12.2.1 (0)
 -->
<!-- Title: async_meta_init_always Pages: 1 -->
<svg width="808pt" height="230pt"
 viewBox="0.00 0.00 807.50 229.50" xmlns="http://www.w3.org/2000/svg" xmlns:xlink="http://www.w3.org/1999/xlink">
<g id="graph0" class="graph" transform="scale(1 1) rotate(0) translate(4 225.5)">
<title>async_meta_init_always</title>
<!-- Node1 -->
<g id="Node000001" class="node">
<title>Node1</title>
<g id="a_Node000001"><a xlink:title=" ">
<polygon fill="#999999" stroke="#666666" points="121,-100.5 0,-100.5 0,-82 121,-82 121,-100.5"/>
<text text-anchor="middle" x="60.5" y="-87" font-family="Helvetica,sans-Serif" font-size="10.00">async_meta_init_always</text>
</a>
</g>
</g>
<!-- Node2 -->
<g id="Node000002" class="node">
<title>Node2</title>
<g id="a_Node000002"><a xlink:href="a02358.html#ab2195e0b081f467f8e058d1406bd4fc7" target="_top" xlink:title=" ">
<polygon fill="white" stroke="#666666" points="251.38,-174.5 177.62,-174.5 177.62,-156 251.38,-156 251.38,-174.5"/>
<text text-anchor="middle" x="214.5" y="-161" font-family="Helvetica,sans-Serif" font-size="10.00">async_thread</text>
</a>
</g>
</g>
<!-- Node1&#45;&gt;Node2 -->
<g id="edge1_Node000001_Node000002" class="edge">
<title>Node1&#45;&gt;Node2</title>
<g id="a_edge1_Node000001_Node000002"><a xlink:title=" ">
<path fill="none" stroke="#63b8ff" d="M81.37,-100.92C107.43,-113.61 153.38,-135.98 183.63,-150.71"/>
<polygon fill="#63b8ff" stroke="#63b8ff" points="181.74,-153.68 192.26,-154.91 184.8,-147.39 181.74,-153.68"/>
</a>
</g>
</g>
<!-- Node6 -->
<g id="Node000006" class="node">
<title>Node6</title>
<g id="a_Node000006"><a xlink:href="a01952.html#aff9af0356940583dfe3045e693cc8a45" target="_top" xlink:title=" ">
<polygon fill="white" stroke="#666666" points="272,-119.5 157,-119.5 157,-101 272,-101 272,-119.5"/>
<text text-anchor="middle" x="214.5" y="-106" font-family="Helvetica,sans-Serif" font-size="10.00">utils_config_alloc_path</text>
</a>
</g>
</g>
<!-- Node1&#45;&gt;Node6 -->
<g id="edge5_Node000001_Node000006" class="edge">
<title>Node1&#45;&gt;Node6</title>
<g id="a_edge5_Node000001_Node000006"><a xlink:title=" ">
<path fill="none" stroke="#63b8ff" d="M121.14,-98.7C129.05,-99.69 137.22,-100.71 145.26,-101.72"/>
<polygon fill="#63b8ff" stroke="#63b8ff" points="144.66,-105.17 155.02,-102.94 145.53,-98.23 144.66,-105.17"/>
</a>
</g>
</g>
<!-- Node8 -->
<g id="Node000008" class="node">
<title>Node8</title>
<g id="a_Node000008"><a xlink:href="a01952.html#a84f3886cdcb91a28bf13b07aae8b2285" target="_top" xlink:title=" ">
<polygon fill="white" stroke="#666666" points="270.12,-82.5 158.88,-82.5 158.88,-64 270.12,-64 270.12,-82.5"/>
<text text-anchor="middle" x="214.5" y="-69" font-family="Helvetica,sans-Serif" font-size="10.00">utils_config_free_path</text>
</a>
</g>
</g>
<!-- Node1&#45;&gt;Node8 -->
<g id="edge7_Node000001_Node000008" class="edge">
<title>Node1&#45;&gt;Node8</title>
<g id="a_edge7_Node000001_Node000008"><a xlink:title=" ">
<path fill="none" stroke="#63b8ff" d="M121.14,-84.19C129.7,-83.17 138.55,-82.13 147.22,-81.1"/>
<polygon fill="#63b8ff" stroke="#63b8ff" points="147.47,-84.59 156.99,-79.94 146.65,-77.64 147.47,-84.59"/>
</a>
</g>
</g>
<!-- Node9 -->
<g id="Node000009" class="node">
<title>Node9</title>
<g id="a_Node000009"><a xlink:href="a01952.html#a1e8deff7c038efae14d1cc98e4ab109f" target="_top" xlink:title=" ">
<polygon fill="white" stroke="#666666" points="264.88,-45.5 164.12,-45.5 164.12,-27 264.88,-27 264.88,-45.5"/>
<text text-anchor="middle" x="214.5" y="-32" font-family="Helvetica,sans-Serif" font-size="10.00">utils_config_get_str</text>
</a>
</g>
</g>
<!-- Node1&#45;&gt;Node9 -->
<g id="edge8_Node000001_Node000009" class="edge">
<title>Node1&#45;&gt;Node9</title>
<g id="a_edge8_Node000001_Node000009"><a xlink:title=" ">
<path fill="none" stroke="#63b8ff" d="M86.54,-81.53C105.75,-74.14 132.97,-63.82 157,-55.25 162.35,-53.34 167.99,-51.38 173.57,-49.48"/>
<polygon fill="#63b8ff" stroke="#63b8ff" points="174.32,-52.92 182.67,-46.4 172.08,-46.29 174.32,-52.92"/>
</a>
</g>
</g>
<!-- Node3 -->
<g id="Node000003" class="node">
<title>Node3</title>
<g id="a_Node000003"><a xlink:href="a02358.html#ae66ae81847153386c57918f4d91be8a7" target="_top" xlink:title=" ">
<polygon fill="white" stroke="#666666" points="433.5,-221.5 308,-221.5 308,-203 433.5,-203 433.5,-221.5"/>
<text text-anchor="middle" x="370.75" y="-208" font-family="Helvetica,sans-Serif" font-size="10.00">async_completion_check</text>
</a>
</g>
</g>
<!-- Node2&#45;&gt;Node3 -->
<g id="edge2_Node000002_Node000003" class="edge">
<title>Node2&#45;&gt;Node3</title>
<g id="a_edge2_Node000002_Node000003"><a xlink:title=" ">
<path fill="none" stroke="#63b8ff" d="M247.46,-174.99C270.52,-182.01 301.9,-191.58 327.1,-199.25"/>
<polygon fill="#63b8ff" stroke="#63b8ff" points="325.8,-202.52 336.38,-202.08 327.84,-195.82 325.8,-202.52"/>
</a>
</g>
</g>
<!-- Node4 -->
<g id="Node000004" class="node">
<title>Node4</title>
<g id="a_Node000004"><a xlink:href="a02358.html#a49083e8ceb4bfe7793ca1a5a799834d0" target="_top" xlink:title=" ">
<polygon fill="white" stroke="#666666" points="398.25,-184.5 343.25,-184.5 343.25,-166 398.25,-166 398.25,-184.5"/>
<text text-anchor="middle" x="370.75" y="-171" font-family="Helvetica,sans-Serif" font-size="10.00">getVmID</text>
</a>
</g>
</g>
<!-- Node2&#45;&gt;Node4 -->
<g id="edge3_Node000002_Node000004" class="edge">
<title>Node2&#45;&gt;Node4</title>
<g id="a_edge3_Node000002_Node000004"><a xlink:title=" ">
<path fill="none" stroke="#63b8ff" d="M251.66,-167.59C275.69,-169.15 307.19,-171.19 331.62,-172.78"/>
<polygon fill="#63b8ff" stroke="#63b8ff" points="331.26,-176.26 341.46,-173.42 331.71,-169.28 331.26,-176.26"/>
</a>
</g>
</g>
<!-- Node5 -->
<g id="Node000005" class="node">
<title>Node5</title>
<g id="a_Node000005"><a xlink:href="a01955.html#a0c85e5516222ab7e7fc354c614760ec5" target="_top" xlink:title=" ">
<polygon fill="white" stroke="#666666" points="405.75,-147.5 335.75,-147.5 335.75,-129 405.75,-129 405.75,-147.5"/>
<text text-anchor="middle" x="370.75" y="-134" font-family="Helvetica,sans-Serif" font-size="10.00">utils_list_del</text>
</a>
</g>
</g>
<!-- Node2&#45;&gt;Node5 -->
<g id="edge4_Node000002_Node000005" class="edge">
<title>Node2&#45;&gt;Node5</title>
<g id="a_edge4_Node000002_Node000005"><a xlink:title=" ">
<path fill="none" stroke="#63b8ff" d="M251.66,-158.92C273.3,-155.13 300.99,-150.29 324.12,-146.24"/>
<polygon fill="#63b8ff" stroke="#63b8ff" points="324.66,-149.7 333.91,-144.52 323.46,-142.8 324.66,-149.7"/>
</a>
</g>
</g>
<!-- Node7 -->
<g id="Node000007" class="node">
<title>Node7</title>
<g id="a_Node000007"><a xlink:href="a01961.html#a0844807fe9679a9a5fbf1bfc9dd78dc6" target="_top" xlink:title=" ">
<polygon fill="white" stroke="#666666" points="420.75,-110.5 320.75,-110.5 320.75,-92 420.75,-92 420.75,-110.5"/>
<text text-anchor="middle" x="370.75" y="-97" font-family="Helvetica,sans-Serif" font-size="10.00">system_home_path</text>
</a>
</g>
</g>
<!-- Node6&#45;&gt;Node7 -->
<g id="edge6_Node000006_Node000007" class="edge">
<title>Node6&#45;&gt;Node7</title>
<g id="a_edge6_Node000006_Node000007"><a xlink:title=" ">
<path fill="none" stroke="#63b8ff" d="M272.5,-106.92C284.4,-106.23 296.99,-105.5 309.02,-104.79"/>
<polygon fill="#63b8ff" stroke="#63b8ff" points="309.05,-108.3 318.83,-104.22 308.65,-101.31 309.05,-108.3"/>
</a>
</g>
</g>
<!-- Node10 -->
<g id="Node000010" class="node">
<title>Node10</title>
<g id="a_Node000010"><a xlink:href="a01952.html#a0738274ac3fd171eda6bfb42492bc0d7" target="_top" xlink:title=" ">
<polygon fill="white" stroke="#666666" points="423.75,-55.5 317.75,-55.5 317.75,-37 423.75,-37 423.75,-55.5"/>
<text text-anchor="middle" x="370.75" y="-42" font-family="Helvetica,sans-Serif" font-size="10.00">_utils_config_get_str</text>
</a>
</g>
</g>
<!-- Node9&#45;&gt;Node10 -->
<g id="edge9_Node000009_Node000010" class="edge">
<title>Node9&#45;&gt;Node10</title>
<g id="a_edge9_Node000009_Node000010"><a xlink:title=" ">
<path fill="none" stroke="#63b8ff" d="M265.15,-39.47C278.16,-40.31 292.36,-41.23 305.99,-42.12"/>
<polygon fill="#63b8ff" stroke="#63b8ff" points="305.55,-45.6 315.75,-42.75 306,-38.61 305.55,-45.6"/>
</a>
</g>
</g>
<!-- Node15 -->
<g id="Node000015" class="node">
<title>Node15</title>
<g id="a_Node000015"><a xlink:href="a01952.html#a4b9cd8f5d0c205ac6c1fd30f77cbf539" target="_top" xlink:title=" ">
<polygon fill="white" stroke="#666666" points="424.88,-18.5 316.62,-18.5 316.62,0 424.88,0 424.88,-18.5"/>
<text text-anchor="middle" x="370.75" y="-5" font-family="Helvetica,sans-Serif" font-size="10.00">utils_config_write_str</text>
</a>
</g>
</g>
<!-- Node9&#45;&gt;Node15 -->
<g id="edge15_Node000009_Node000015" class="edge">
<title>Node9&#45;&gt;Node15</title>
<g id="a_edge15_Node000009_Node000015"><a xlink:title=" ">
<path fill="none" stroke="#63b8ff" d="M265.15,-27.56C277.88,-25.33 291.76,-22.9 305.12,-20.56"/>
<polygon fill="#63b8ff" stroke="#63b8ff" points="305.45,-24.06 314.7,-18.89 304.25,-17.16 305.45,-24.06"/>
</a>
</g>
</g>
<!-- Node11 -->
<g id="Node000011" class="node">
<title>Node11</title>
<g id="a_Node000011"><a xlink:href="a01952.html#a8b687fb4c464903e23504eea3ddc3873" target="_top" xlink:title=" ">
<polygon fill="white" stroke="#666666" points="523,-55.5 469.5,-55.5 469.5,-37 523,-37 523,-55.5"/>
<text text-anchor="middle" x="496.25" y="-42" font-family="Helvetica,sans-Serif" font-size="10.00">conf_get</text>
</a>
</g>
</g>
<!-- Node10&#45;&gt;Node11 -->
<g id="edge10_Node000010_Node000011" class="edge">
<title>Node10&#45;&gt;Node11</title>
<g id="a_edge10_Node000010_Node000011"><a xlink:title=" ">
<path fill="none" stroke="#63b8ff" d="M424.13,-46.25C435.4,-46.25 447.1,-46.25 457.67,-46.25"/>
<polygon fill="#63b8ff" stroke="#63b8ff" points="457.54,-49.75 467.54,-46.25 457.54,-42.75 457.54,-49.75"/>
</a>
</g>
</g>
<!-- Node12 -->
<g id="Node000012" class="node">
<title>Node12</title>
<g id="a_Node000012"><a xlink:href="a01961.html#acde493d3889d6f207d1e122cf4bb1b8c" target="_top" xlink:title=" ">
<polygon fill="white" stroke="#666666" points="799.5,-55.5 713.75,-55.5 713.75,-37 799.5,-37 799.5,-55.5"/>
<text text-anchor="middle" x="756.62" y="-42" font-family="Helvetica,sans-Serif" font-size="10.00">system_env_var</text>
</a>
</g>
</g>
<!-- Node11&#45;&gt;Node12 -->
<g id="edge11_Node000011_Node000012" class="edge">
<title>Node11&#45;&gt;Node12</title>
<g id="a_edge11_Node000011_Node000012"><a xlink:title=" ">
<path fill="none" stroke="#63b8ff" d="M523.33,-55.63C534.21,-59.08 547.06,-62.55 559,-64.25 611.25,-71.71 625.31,-70.23 677.75,-64.25 688.38,-63.04 699.67,-60.92 710.26,-58.56"/>
<polygon fill="#63b8ff" stroke="#63b8ff" points="711.01,-61.98 719.94,-56.27 709.41,-55.16 711.01,-61.98"/>
</a>
</g>
</g>
<!-- Node13 -->
<g id="Node000013" class="node">
<title>Node13</title>
<g id="a_Node000013"><a xlink:href="a01961.html#a86c3bfbf6daaf8172e131aa23dc7393c" target="_top" xlink:title=" ">
<polygon fill="white" stroke="#666666" points="662,-55.5 574.75,-55.5 574.75,-37 662,-37 662,-55.5"/>
<text text-anchor="middle" x="618.38" y="-42" font-family="Helvetica,sans-Serif" font-size="10.00">system_file_size</text>
</a>
</g>
</g>
<!-- Node11&#45;&gt;Node13 -->
<g id="edge12_Node000011_Node000013" class="edge">
<title>Node11&#45;&gt;Node13</title>
<g id="a_edge12_Node000011_Node000013"><a xlink:title=" ">
<path fill="none" stroke="#63b8ff" d="M523.32,-46.25C534.96,-46.25 549.15,-46.25 562.93,-46.25"/>
<polygon fill="#63b8ff" stroke="#63b8ff" points="562.84,-49.75 572.84,-46.25 562.84,-42.75 562.84,-49.75"/>
</a>
</g>
</g>
<!-- Node14 -->
<g id="Node000014" class="node">
<title>Node14</title>
<g id="a_Node000014"><a xlink:href="a01952.html#a17713c8e9b90065e23b0ec1a225f79ab" target="_top" xlink:title=" ">
<polygon fill="white" stroke="#666666" points="677.75,-18.5 559,-18.5 559,0 677.75,0 677.75,-18.5"/>
<text text-anchor="middle" x="618.38" y="-5" font-family="Helvetica,sans-Serif" font-size="10.00">utils_config_get_source</text>
</a>
</g>
</g>
<!-- Node11&#45;&gt;Node14 -->
<g id="edge13_Node000011_Node000014" class="edge">
<title>Node11&#45;&gt;Node14</title>
<g id="a_edge13_Node000011_Node000014"><a xlink:title=" ">
<path fill="none" stroke="#63b8ff" d="M523.32,-38.22C538.37,-33.58 557.68,-27.64 574.88,-22.34"/>
<polygon fill="#63b8ff" stroke="#63b8ff" points="575.84,-25.71 584.36,-19.42 573.78,-19.02 575.84,-25.71"/>
</a>
</g>
</g>
<!-- Node14&#45;&gt;Node12 -->
<g id="edge14_Node000014_Node000012" class="edge">
<title>Node14&#45;&gt;Node12</title>
<g id="a_edge14_Node000014_Node000012"><a xlink:title=" ">
<path fill="none" stroke="#63b8ff" d="M655.17,-18.97C671.68,-23.45 691.48,-28.83 709.13,-33.62"/>
<polygon fill="#63b8ff" stroke="#63b8ff" points="708.04,-36.95 718.61,-36.2 709.87,-30.2 708.04,-36.95"/>
</a>
</g>
</g>
<!-- Node15&#45;&gt;Node11 -->
<g id="edge16_Node000015_Node000011" class="edge">
<title>Node15&#45;&gt;Node11</title>
<g id="a_edge16_Node000015_Node000011"><a xlink:title=" ">
<path fill="none" stroke="#63b8ff" d="M404.2,-18.97C420.85,-23.96 441.2,-30.06 458.43,-35.22"/>
<polygon fill="#63b8ff" stroke="#63b8ff" points="457.2,-38.51 467.79,-38.02 459.21,-31.8 457.2,-38.51"/>
</a>
</g>
</g>
<!-- Node16 -->
<g id="Node000016" class="node">
<title>Node16</title>
<g id="a_Node000016"><a xlink:href="a01952.html#ab87e9691e65d65348749f8dc70f24602" target="_top" xlink:title=" ">
<polygon fill="white" stroke="#666666" points="523,-18.5 469.5,-18.5 469.5,0 523,0 523,-18.5"/>
<text text-anchor="middle" x="496.25" y="-5" font-family="Helvetica,sans-Serif" font-size="10.00">conf_set</text>
</a>
</g>
</g>
<!-- Node15&#45;&gt;Node16 -->
<g id="edge17_Node000015_Node000016" class="edge">
<title>Node15&#45;&gt;Node16</title>
<g id="a_edge17_Node000015_Node000016"><a xlink:title=" ">
<path fill="none" stroke="#63b8ff" d="M425.2,-9.25C436.16,-9.25 447.48,-9.25 457.74,-9.25"/>
<polygon fill="#63b8ff" stroke="#63b8ff" points="457.7,-12.75 467.7,-9.25 457.7,-5.75 457.7,-12.75"/>
</a>
</g>
</g>
<!-- Node16&#45;&gt;Node14 -->
<g id="edge18_Node000016_Node000014" class="edge">
<title>Node16&#45;&gt;Node14</title>
<g id="a_edge18_Node000016_Node000014"><a xlink:title=" ">
<path fill="none" stroke="#63b8ff" d="M523.32,-9.25C530.61,-9.25 538.9,-9.25 547.46,-9.25"/>
<polygon fill="#63b8ff" stroke="#63b8ff" points="547.31,-12.75 557.31,-9.25 547.31,-5.75 547.31,-12.75"/>
</a>
</g>
</g>
</g>
</svg>
