<?xml version="1.0" encoding="UTF-8" standalone="no"?>
<!DOCTYPE svg PUBLIC "-//W3C//DTD SVG 1.1//EN"
 "http://www.w3.org/Graphics/SVG/1.1/DTD/svg11.dtd">
<!-- Generated by graphviz version 11.0.0 (0)
 -->
<!-- Title: arax_data_allocate_remote Pages: 1 -->
<svg width="1478pt" height="493pt"
 viewBox="0.00 0.00 1478.25 493.09" xmlns="http://www.w3.org/2000/svg" xmlns:xlink="http://www.w3.org/1999/xlink">
<g id="graph0" class="graph" transform="scale(1 1) rotate(0) translate(4 489.09)">
<title>arax_data_allocate_remote</title>
<!-- Node1 -->
<g id="Node000001" class="node">
<title>Node1</title>
<g id="a_Node000001"><a xlink:title=" ">
<polygon fill="#999999" stroke="#666666" points="98.5,-352.48 0,-352.48 0,-323.48 98.5,-323.48 98.5,-352.48"/>
<text text-anchor="start" x="8" y="-338.98" font-family="Helvetica,sans-Serif" font-size="10.00">arax_data_allocate</text>
<text text-anchor="middle" x="49.25" y="-328.48" font-family="Helvetica,sans-Serif" font-size="10.00">_remote</text>
</a>
</g>
</g>
<!-- Node2 -->
<g id="Node000002" class="node">
<title>Node2</title>
<g id="a_Node000002"><a xlink:href="a01919.html#a9c8e53aad4b86498a6b709c35c156fc3" target="_top" xlink:title=" ">
<polygon fill="white" stroke="#666666" points="366.38,-32.23 258.88,-32.23 258.88,-13.73 366.38,-13.73 366.38,-32.23"/>
<text text-anchor="middle" x="312.62" y="-18.73" font-family="Helvetica,sans-Serif" font-size="10.00">arax_accel_size_dec</text>
</a>
</g>
</g>
<!-- Node1&#45;&gt;Node2 -->
<g id="edge1_Node000001_Node000002" class="edge">
<title>Node1&#45;&gt;Node2</title>
<g id="a_edge1_Node000001_Node000002"><a xlink:title=" ">
<path fill="none" stroke="#63b8ff" d="M54.19,-323.16C63.6,-289.86 89.98,-207.75 134.5,-152.98 176.72,-101.03 244.3,-59.21 282.62,-38.05"/>
<polygon fill="#63b8ff" stroke="#63b8ff" points="284.16,-41.2 291.28,-33.36 280.82,-35.04 284.16,-41.2"/>
</a>
</g>
</g>
<!-- Node10 -->
<g id="Node000010" class="node">
<title>Node10</title>
<g id="a_Node000010"><a xlink:href="a01925.html#a369e660e3e344bc697d98174059ead3c" target="_top" xlink:title=" ">
<polygon fill="white" stroke="#666666" points="219.5,-421.23 137.5,-421.23 137.5,-402.73 219.5,-402.73 219.5,-421.23"/>
<text text-anchor="middle" x="178.5" y="-407.73" font-family="Helvetica,sans-Serif" font-size="10.00">arax_data_size</text>
</a>
</g>
</g>
<!-- Node1&#45;&gt;Node10 -->
<g id="edge11_Node000001_Node000010" class="edge">
<title>Node1&#45;&gt;Node10</title>
<g id="a_edge11_Node000001_Node000010"><a xlink:title=" ">
<path fill="none" stroke="#63b8ff" d="M71.13,-352.98C87.83,-364.64 112.09,-380.81 134.5,-392.98 137.39,-394.55 140.44,-396.09 143.52,-397.59"/>
<polygon fill="#63b8ff" stroke="#63b8ff" points="142.04,-400.76 152.58,-401.77 144.97,-394.4 142.04,-400.76"/>
</a>
</g>
</g>
<!-- Node11 -->
<g id="Node000011" class="node">
<title>Node11</title>
<g id="a_Node000011"><a xlink:href="a01928.html#a9255b8011e6d7c9b28c7df40065efb28" target="_top" xlink:title=" ">
<polygon fill="white" stroke="#666666" points="830.25,-290.23 728.75,-290.23 728.75,-271.73 830.25,-271.73 830.25,-290.23"/>
<text text-anchor="middle" x="779.5" y="-276.73" font-family="Helvetica,sans-Serif" font-size="10.00">arax_object_ref_inc</text>
</a>
</g>
</g>
<!-- Node1&#45;&gt;Node11 -->
<g id="edge12_Node000001_Node000011" class="edge">
<title>Node1&#45;&gt;Node11</title>
<g id="a_edge12_Node000001_Node000011"><a xlink:title=" ">
<path fill="none" stroke="#63b8ff" d="M98.9,-337.98C151.39,-337.98 237.43,-337.98 311.62,-337.98 311.62,-337.98 311.62,-337.98 463.12,-337.98 561.92,-337.98 675.38,-310.56 735.64,-293.75"/>
<polygon fill="#63b8ff" stroke="#63b8ff" points="736.49,-297.15 745.15,-291.06 734.58,-290.42 736.49,-297.15"/>
</a>
</g>
</g>
<!-- Node12 -->
<g id="Node000012" class="node">
<title>Node12</title>
<g id="a_Node000012"><a xlink:href="a02191.html#ga739047efb2b454e6c1ac54138ef2985d" target="_top" xlink:title=" ">
<polygon fill="white" stroke="#666666" points="217.62,-384.23 139.38,-384.23 139.38,-365.73 217.62,-365.73 217.62,-384.23"/>
<text text-anchor="middle" x="178.5" y="-370.73" font-family="Helvetica,sans-Serif" font-size="10.00">arax_proc_get</text>
</a>
</g>
</g>
<!-- Node1&#45;&gt;Node12 -->
<g id="edge13_Node000001_Node000012" class="edge">
<title>Node1&#45;&gt;Node12</title>
<g id="a_edge13_Node000001_Node000012"><a xlink:title=" ">
<path fill="none" stroke="#63b8ff" d="M98.72,-352.07C110.1,-355.38 122.16,-358.89 133.34,-362.14"/>
<polygon fill="#63b8ff" stroke="#63b8ff" points="132.13,-365.43 142.71,-364.86 134.09,-358.71 132.13,-365.43"/>
</a>
</g>
</g>
<!-- Node16 -->
<g id="Node000016" class="node">
<title>Node16</title>
<g id="a_Node000016"><a xlink:href="a02192.html#ga55195957c1cde1508257782716aa6db3" target="_top" xlink:title=" ">
<polygon fill="white" stroke="#666666" points="219.12,-477.23 137.88,-477.23 137.88,-458.73 219.12,-458.73 219.12,-477.23"/>
<text text-anchor="middle" x="178.5" y="-463.73" font-family="Helvetica,sans-Serif" font-size="10.00">arax_task_free</text>
</a>
</g>
</g>
<!-- Node1&#45;&gt;Node16 -->
<g id="edge18_Node000001_Node000016" class="edge">
<title>Node1&#45;&gt;Node16</title>
<g id="a_edge18_Node000001_Node000016"><a xlink:title=" ">
<path fill="none" stroke="#63b8ff" d="M62.93,-352.76C79.03,-371.32 107.93,-403.87 134.5,-429.98 141.7,-437.05 149.93,-444.47 157.25,-450.86"/>
<polygon fill="#63b8ff" stroke="#63b8ff" points="154.88,-453.44 164.74,-457.31 159.44,-448.13 154.88,-453.44"/>
</a>
</g>
</g>
<!-- Node23 -->
<g id="Node000023" class="node">
<title>Node23</title>
<g id="a_Node000023"><a xlink:href="a02192.html#gac9f0f3fbb14da879d3ff09bd367bbb24" target="_top" xlink:title=" ">
<polygon fill="white" stroke="#666666" points="222.5,-235.23 134.5,-235.23 134.5,-216.73 222.5,-216.73 222.5,-235.23"/>
<text text-anchor="middle" x="178.5" y="-221.73" font-family="Helvetica,sans-Serif" font-size="10.00">arax_task_issue</text>
</a>
</g>
</g>
<!-- Node1&#45;&gt;Node23 -->
<g id="edge27_Node000001_Node000023" class="edge">
<title>Node1&#45;&gt;Node23</title>
<g id="a_edge27_Node000001_Node000023"><a xlink:title=" ">
<path fill="none" stroke="#63b8ff" d="M67.15,-323.11C90.65,-302.42 133.1,-265.06 157.94,-243.19"/>
<polygon fill="#63b8ff" stroke="#63b8ff" points="160.19,-245.87 165.39,-236.64 155.57,-240.62 160.19,-245.87"/>
</a>
</g>
</g>
<!-- Node42 -->
<g id="Node000042" class="node">
<title>Node42</title>
<g id="a_Node000042"><a xlink:href="a02192.html#gacb098c0a8c3908f3fdd32e7ea7d780bb" target="_top" xlink:title=" ">
<polygon fill="white" stroke="#666666" points="219.5,-180.23 137.5,-180.23 137.5,-161.73 219.5,-161.73 219.5,-180.23"/>
<text text-anchor="middle" x="178.5" y="-166.73" font-family="Helvetica,sans-Serif" font-size="10.00">arax_task_wait</text>
</a>
</g>
</g>
<!-- Node1&#45;&gt;Node42 -->
<g id="edge57_Node000001_Node000042" class="edge">
<title>Node1&#45;&gt;Node42</title>
<g id="a_edge57_Node000001_Node000042"><a xlink:title=" ">
<path fill="none" stroke="#63b8ff" d="M58.1,-323C71.72,-297.77 101.43,-245.87 134.5,-207.98 140.88,-200.68 148.71,-193.52 155.93,-187.47"/>
<polygon fill="#63b8ff" stroke="#63b8ff" points="157.83,-190.44 163.42,-181.44 153.44,-184.99 157.83,-190.44"/>
</a>
</g>
</g>
<!-- Node3 -->
<g id="Node000003" class="node">
<title>Node3</title>
<g id="a_Node000003"><a xlink:href="a01943.html#a63b80783cfb3106ec4169ce082f153c0" target="_top" xlink:title=" ">
<polygon fill="white" stroke="#666666" points="1139.75,-106.23 1025.5,-106.23 1025.5,-87.73 1139.75,-87.73 1139.75,-106.23"/>
<text text-anchor="middle" x="1082.62" y="-92.73" font-family="Helvetica,sans-Serif" font-size="10.00">arax_throttle_size_dec</text>
</a>
</g>
</g>
<!-- Node2&#45;&gt;Node3 -->
<g id="edge2_Node000002_Node000003" class="edge">
<title>Node2&#45;&gt;Node3</title>
<g id="a_edge2_Node000002_Node000003"><a xlink:title=" ">
<path fill="none" stroke="#63b8ff" d="M366.84,-17.66C427.77,-12.04 530.6,-3.98 619.25,-3.98 619.25,-3.98 619.25,-3.98 780.5,-3.98 873.77,-3.98 903.01,11.94 989.5,-22.98 1020.12,-35.34 1048.65,-61.41 1065.62,-79.06"/>
<polygon fill="#63b8ff" stroke="#63b8ff" points="1062.98,-81.36 1072.35,-86.3 1068.1,-76.6 1062.98,-81.36"/>
</a>
</g>
</g>
<!-- Node4 -->
<g id="Node000004" class="node">
<title>Node4</title>
<g id="a_Node000004"><a xlink:href="a02367.html#aed6af4d83e934e3e654ead541b15f2d9" target="_top" xlink:title=" ">
<polygon fill="white" stroke="#666666" points="1290,-180.23 1181,-180.23 1181,-161.73 1290,-161.73 1290,-180.23"/>
<text text-anchor="middle" x="1235.5" y="-166.73" font-family="Helvetica,sans-Serif" font-size="10.00">async_condition_lock</text>
</a>
</g>
</g>
<!-- Node3&#45;&gt;Node4 -->
<g id="edge3_Node000003_Node000004" class="edge">
<title>Node3&#45;&gt;Node4</title>
<g id="a_edge3_Node000003_Node000004"><a xlink:title=" ">
<path fill="none" stroke="#63b8ff" d="M1120.36,-106.7C1127.06,-109.22 1133.81,-112.29 1139.75,-115.98 1158.97,-127.92 1156.45,-140.17 1175.75,-151.98 1178.72,-153.79 1181.88,-155.46 1185.13,-156.97"/>
<polygon fill="#63b8ff" stroke="#63b8ff" points="1183.75,-160.19 1194.33,-160.76 1186.42,-153.72 1183.75,-160.19"/>
</a>
</g>
</g>
<!-- Node6 -->
<g id="Node000006" class="node">
<title>Node6</title>
<g id="a_Node000006"><a xlink:href="a02367.html#a3bbcb7c4c024e99d5c4ba52b61dfbbf7" target="_top" xlink:title=" ">
<polygon fill="white" stroke="#666666" points="1295.25,-143.23 1175.75,-143.23 1175.75,-124.73 1295.25,-124.73 1295.25,-143.23"/>
<text text-anchor="middle" x="1235.5" y="-129.73" font-family="Helvetica,sans-Serif" font-size="10.00">async_condition_unlock</text>
</a>
</g>
</g>
<!-- Node3&#45;&gt;Node6 -->
<g id="edge5_Node000003_Node000006" class="edge">
<title>Node3&#45;&gt;Node6</title>
<g id="a_edge5_Node000003_Node000006"><a xlink:title=" ">
<path fill="none" stroke="#63b8ff" d="M1123.27,-106.7C1141.82,-111.25 1164.13,-116.72 1183.88,-121.57"/>
<polygon fill="#63b8ff" stroke="#63b8ff" points="1182.85,-124.92 1193.39,-123.9 1184.51,-118.12 1182.85,-124.92"/>
</a>
</g>
</g>
<!-- Node8 -->
<g id="Node000008" class="node">
<title>Node8</title>
<g id="a_Node000008"><a xlink:href="a02367.html#a1bfeaeb9b81855e640d7a67cc9d92b17" target="_top" xlink:title=" ">
<polygon fill="white" stroke="#666666" points="1289.62,-106.23 1181.38,-106.23 1181.38,-87.73 1289.62,-87.73 1289.62,-106.23"/>
<text text-anchor="middle" x="1235.5" y="-92.73" font-family="Helvetica,sans-Serif" font-size="10.00">async_condition_wait</text>
</a>
</g>
</g>
<!-- Node3&#45;&gt;Node8 -->
<g id="edge7_Node000003_Node000008" class="edge">
<title>Node3&#45;&gt;Node8</title>
<g id="a_edge7_Node000003_Node000008"><a xlink:title=" ">
<path fill="none" stroke="#63b8ff" d="M1140.23,-96.98C1149.85,-96.98 1159.9,-96.98 1169.71,-96.98"/>
<polygon fill="#63b8ff" stroke="#63b8ff" points="1169.55,-100.48 1179.55,-96.98 1169.55,-93.48 1169.55,-100.48"/>
</a>
</g>
</g>
<!-- Node5 -->
<g id="Node000005" class="node">
<title>Node5</title>
<g id="a_Node000005"><a xlink:href="a02361.html#aebf9e72bb6cbd8b9e33489d46c25075d" target="_top" xlink:title=" ">
<polygon fill="white" stroke="#666666" points="1459,-180.23 1342.5,-180.23 1342.5,-161.73 1459,-161.73 1459,-180.23"/>
<text text-anchor="middle" x="1400.75" y="-166.73" font-family="Helvetica,sans-Serif" font-size="10.00">async_completion_wait</text>
</a>
</g>
</g>
<!-- Node4&#45;&gt;Node5 -->
<g id="edge4_Node000004_Node000005" class="edge">
<title>Node4&#45;&gt;Node5</title>
<g id="a_edge4_Node000004_Node000005"><a xlink:title=" ">
<path fill="none" stroke="#63b8ff" d="M1290.41,-170.98C1303.39,-170.98 1317.44,-170.98 1331.01,-170.98"/>
<polygon fill="#63b8ff" stroke="#63b8ff" points="1330.74,-174.48 1340.74,-170.98 1330.74,-167.48 1330.74,-174.48"/>
</a>
</g>
</g>
<!-- Node7 -->
<g id="Node000007" class="node">
<title>Node7</title>
<g id="a_Node000007"><a xlink:href="a02361.html#ad1d30ecbf6bff6457b680aa940281072" target="_top" xlink:title=" ">
<polygon fill="white" stroke="#666666" points="1470.25,-143.23 1331.25,-143.23 1331.25,-124.73 1470.25,-124.73 1470.25,-143.23"/>
<text text-anchor="middle" x="1400.75" y="-129.73" font-family="Helvetica,sans-Serif" font-size="10.00">async_completion_complete</text>
</a>
</g>
</g>
<!-- Node6&#45;&gt;Node7 -->
<g id="edge6_Node000006_Node000007" class="edge">
<title>Node6&#45;&gt;Node7</title>
<g id="a_edge6_Node000006_Node000007"><a xlink:title=" ">
<path fill="none" stroke="#63b8ff" d="M1295.44,-133.98C1303.26,-133.98 1311.38,-133.98 1319.49,-133.98"/>
<polygon fill="#63b8ff" stroke="#63b8ff" points="1319.39,-137.48 1329.39,-133.98 1319.39,-130.48 1319.39,-137.48"/>
</a>
</g>
</g>
<!-- Node8&#45;&gt;Node5 -->
<g id="edge9_Node000008_Node000005" class="edge">
<title>Node8&#45;&gt;Node5</title>
<g id="a_edge9_Node000008_Node000005"><a xlink:title=" ">
<path fill="none" stroke="#63b8ff" d="M1275.27,-106.63C1282.18,-109.14 1289.12,-112.23 1295.25,-115.98 1314.55,-127.79 1311.7,-140.58 1331.25,-151.98 1334.6,-153.93 1338.17,-155.7 1341.84,-157.28"/>
<polygon fill="#63b8ff" stroke="#63b8ff" points="1340.38,-160.47 1350.97,-160.76 1342.87,-153.93 1340.38,-160.47"/>
</a>
</g>
</g>
<!-- Node8&#45;&gt;Node7 -->
<g id="edge8_Node000008_Node000007" class="edge">
<title>Node8&#45;&gt;Node7</title>
<g id="a_edge8_Node000008_Node000007"><a xlink:title=" ">
<path fill="none" stroke="#63b8ff" d="M1279.39,-106.7C1299.74,-111.31 1324.28,-116.87 1345.87,-121.77"/>
<polygon fill="#63b8ff" stroke="#63b8ff" points="1344.86,-125.13 1355.39,-123.92 1346.41,-118.3 1344.86,-125.13"/>
</a>
</g>
</g>
<!-- Node9 -->
<g id="Node000009" class="node">
<title>Node9</title>
<g id="a_Node000009"><a xlink:href="a02361.html#a7ab7c7fe9cb93434dde72a4e464a7e69" target="_top" xlink:title=" ">
<polygon fill="white" stroke="#666666" points="1458.62,-106.23 1342.88,-106.23 1342.88,-87.73 1458.62,-87.73 1458.62,-106.23"/>
<text text-anchor="middle" x="1400.75" y="-92.73" font-family="Helvetica,sans-Serif" font-size="10.00">async_semaphore_dec</text>
</a>
</g>
</g>
<!-- Node8&#45;&gt;Node9 -->
<g id="edge10_Node000008_Node000009" class="edge">
<title>Node8&#45;&gt;Node9</title>
<g id="a_edge10_Node000008_Node000009"><a xlink:title=" ">
<path fill="none" stroke="#63b8ff" d="M1289.95,-96.98C1303.1,-96.98 1317.36,-96.98 1331.12,-96.98"/>
<polygon fill="#63b8ff" stroke="#63b8ff" points="1331.01,-100.48 1341.01,-96.98 1331.01,-93.48 1331.01,-100.48"/>
</a>
</g>
</g>
<!-- Node12&#45;&gt;Node11 -->
<g id="edge14_Node000012_Node000011" class="edge">
<title>Node12&#45;&gt;Node11</title>
<g id="a_edge14_Node000012_Node000011"><a xlink:title=" ">
<path fill="none" stroke="#63b8ff" d="M217.94,-377.53C321.43,-383.72 603.47,-395.99 683,-351.98 707.59,-338.37 696.41,-316.7 719,-299.98 721.17,-298.37 723.48,-296.9 725.88,-295.55"/>
<polygon fill="#63b8ff" stroke="#63b8ff" points="727.27,-298.76 734.79,-291.31 724.26,-292.44 727.27,-298.76"/>
</a>
</g>
</g>
<!-- Node13 -->
<g id="Node000013" class="node">
<title>Node13</title>
<g id="a_Node000013"><a xlink:href="a01931.html#a4c22ae41507232dc3efc725428cbfc7b" target="_top" xlink:title=" ">
<polygon fill="white" stroke="#666666" points="364.5,-422.23 260.75,-422.23 260.75,-403.73 364.5,-403.73 364.5,-422.23"/>
<text text-anchor="middle" x="312.62" y="-408.73" font-family="Helvetica,sans-Serif" font-size="10.00">arax_pipe_find_proc</text>
</a>
</g>
</g>
<!-- Node12&#45;&gt;Node13 -->
<g id="edge15_Node000012_Node000013" class="edge">
<title>Node12&#45;&gt;Node13</title>
<g id="a_edge15_Node000012_Node000013"><a xlink:title=" ">
<path fill="none" stroke="#63b8ff" d="M213.18,-384.67C229.57,-389.38 249.48,-395.11 267.1,-400.17"/>
<polygon fill="#63b8ff" stroke="#63b8ff" points="265.97,-403.49 276.55,-402.89 267.91,-396.76 265.97,-403.49"/>
</a>
</g>
</g>
<!-- Node14 -->
<g id="Node000014" class="node">
<title>Node14</title>
<g id="a_Node000014"><a xlink:href="a01928.html#aa750d1c54fe430c1294b9c8a9d3e1466" target="_top" xlink:title=" ">
<polygon fill="white" stroke="#666666" points="516.25,-459.23 408,-459.23 408,-440.73 516.25,-440.73 516.25,-459.23"/>
<text text-anchor="middle" x="462.12" y="-445.73" font-family="Helvetica,sans-Serif" font-size="10.00">arax_object_list_lock</text>
</a>
</g>
</g>
<!-- Node13&#45;&gt;Node14 -->
<g id="edge16_Node000013_Node000014" class="edge">
<title>Node13&#45;&gt;Node14</title>
<g id="a_edge16_Node000013_Node000014"><a xlink:title=" ">
<path fill="none" stroke="#63b8ff" d="M352.38,-422.7C370.43,-427.23 392.12,-432.67 411.37,-437.5"/>
<polygon fill="#63b8ff" stroke="#63b8ff" points="410.35,-440.85 420.91,-439.89 412.06,-434.06 410.35,-440.85"/>
</a>
</g>
</g>
<!-- Node15 -->
<g id="Node000015" class="node">
<title>Node15</title>
<g id="a_Node000015"><a xlink:href="a01928.html#abb03d3cde2d1354544cd082482c3f185" target="_top" xlink:title=" ">
<polygon fill="white" stroke="#666666" points="521.5,-422.23 402.75,-422.23 402.75,-403.73 521.5,-403.73 521.5,-422.23"/>
<text text-anchor="middle" x="462.12" y="-408.73" font-family="Helvetica,sans-Serif" font-size="10.00">arax_object_list_unlock</text>
</a>
</g>
</g>
<!-- Node13&#45;&gt;Node15 -->
<g id="edge17_Node000013_Node000015" class="edge">
<title>Node13&#45;&gt;Node15</title>
<g id="a_edge17_Node000013_Node000015"><a xlink:title=" ">
<path fill="none" stroke="#63b8ff" d="M364.8,-412.98C373.25,-412.98 382.13,-412.98 390.95,-412.98"/>
<polygon fill="#63b8ff" stroke="#63b8ff" points="390.94,-416.48 400.94,-412.98 390.94,-409.48 390.94,-416.48"/>
</a>
</g>
</g>
<!-- Node17 -->
<g id="Node000017" class="node">
<title>Node17</title>
<g id="a_Node000017"><a xlink:href="a01928.html#afe7e4a63c40fbcaae742b8de8693483f" target="_top" xlink:title=" ">
<polygon fill="white" stroke="#666666" points="831.75,-327.23 727.25,-327.23 727.25,-308.73 831.75,-308.73 831.75,-327.23"/>
<text text-anchor="middle" x="779.5" y="-313.73" font-family="Helvetica,sans-Serif" font-size="10.00">arax_object_ref_dec</text>
</a>
</g>
</g>
<!-- Node16&#45;&gt;Node17 -->
<g id="edge19_Node000016_Node000017" class="edge">
<title>Node16&#45;&gt;Node17</title>
<g id="a_edge19_Node000016_Node000017"><a xlink:title=" ">
<path fill="none" stroke="#63b8ff" d="M219.54,-474.33C284.24,-483.19 415.26,-495.31 521.5,-467.98 619.7,-442.71 718.38,-368.02 759.09,-334.54"/>
<polygon fill="#63b8ff" stroke="#63b8ff" points="761.14,-337.39 766.57,-328.3 756.65,-332.02 761.14,-337.39"/>
</a>
</g>
</g>
<!-- Node18 -->
<g id="Node000018" class="node">
<title>Node18</title>
<g id="a_Node000018"><a xlink:href="a01931.html#a9f30684f01feac766b42d622970ed5a6" target="_top" xlink:title=" ">
<polygon fill="white" stroke="#666666" points="982.38,-327.23 883.12,-327.23 883.12,-308.73 982.38,-308.73 982.38,-327.23"/>
<text text-anchor="middle" x="932.75" y="-313.73" font-family="Helvetica,sans-Serif" font-size="10.00">arax_pipe_size_inc</text>
</a>
</g>
</g>
<!-- Node17&#45;&gt;Node18 -->
<g id="edge20_Node000017_Node000018" class="edge">
<title>Node17&#45;&gt;Node18</title>
<g id="a_edge20_Node000017_Node000018"><a xlink:title=" ">
<path fill="none" stroke="#63b8ff" d="M832.13,-317.98C844.77,-317.98 858.41,-317.98 871.42,-317.98"/>
<polygon fill="#63b8ff" stroke="#63b8ff" points="871.14,-321.48 881.14,-317.98 871.14,-314.48 871.14,-321.48"/>
</a>
</g>
</g>
<!-- Node22 -->
<g id="Node000022" class="node">
<title>Node22</title>
<g id="a_Node000022"><a xlink:href="a01958.html#a0c85e5516222ab7e7fc354c614760ec5" target="_top" xlink:title=" ">
<polygon fill="white" stroke="#666666" points="967.75,-290.23 897.75,-290.23 897.75,-271.73 967.75,-271.73 967.75,-290.23"/>
<text text-anchor="middle" x="932.75" y="-276.73" font-family="Helvetica,sans-Serif" font-size="10.00">utils_list_del</text>
</a>
</g>
</g>
<!-- Node17&#45;&gt;Node22 -->
<g id="edge26_Node000017_Node000022" class="edge">
<title>Node17&#45;&gt;Node22</title>
<g id="a_edge26_Node000017_Node000022"><a xlink:title=" ">
<path fill="none" stroke="#63b8ff" d="M820.24,-308.26C840.57,-303.28 865.4,-297.21 886.47,-292.06"/>
<polygon fill="#63b8ff" stroke="#63b8ff" points="887.06,-295.51 895.94,-289.74 885.4,-288.72 887.06,-295.51"/>
</a>
</g>
</g>
<!-- Node19 -->
<g id="Node000019" class="node">
<title>Node19</title>
<g id="a_Node000019"><a xlink:href="a01943.html#a7d3a67fa4eeb00cc9508a7ffe451a02f" target="_top" xlink:title=" ">
<polygon fill="white" stroke="#666666" points="1138.25,-217.23 1027,-217.23 1027,-198.73 1138.25,-198.73 1138.25,-217.23"/>
<text text-anchor="middle" x="1082.62" y="-203.73" font-family="Helvetica,sans-Serif" font-size="10.00">arax_throttle_size_inc</text>
</a>
</g>
</g>
<!-- Node18&#45;&gt;Node19 -->
<g id="edge21_Node000018_Node000019" class="edge">
<title>Node18&#45;&gt;Node19</title>
<g id="a_edge21_Node000018_Node000019"><a xlink:title=" ">
<path fill="none" stroke="#63b8ff" d="M969.93,-308.32C976.68,-305.78 983.5,-302.69 989.5,-298.98 1021.21,-279.37 1050.5,-246.97 1067.2,-226.59"/>
<polygon fill="#63b8ff" stroke="#63b8ff" points="1069.88,-228.83 1073.39,-218.84 1064.42,-224.46 1069.88,-228.83"/>
</a>
</g>
</g>
<!-- Node19&#45;&gt;Node4 -->
<g id="edge22_Node000019_Node000004" class="edge">
<title>Node19&#45;&gt;Node4</title>
<g id="a_edge22_Node000019_Node000004"><a xlink:title=" ">
<path fill="none" stroke="#63b8ff" d="M1123.27,-198.26C1141.82,-193.71 1164.13,-188.24 1183.88,-183.39"/>
<polygon fill="#63b8ff" stroke="#63b8ff" points="1184.51,-186.84 1193.39,-181.06 1182.85,-180.04 1184.51,-186.84"/>
</a>
</g>
</g>
<!-- Node19&#45;&gt;Node6 -->
<g id="edge25_Node000019_Node000006" class="edge">
<title>Node19&#45;&gt;Node6</title>
<g id="a_edge25_Node000019_Node000006"><a xlink:title=" ">
<path fill="none" stroke="#63b8ff" d="M1120.36,-198.26C1127.06,-195.74 1133.81,-192.67 1139.75,-188.98 1158.97,-177.04 1156.45,-164.79 1175.75,-152.98 1178.72,-151.16 1181.88,-149.5 1185.13,-147.99"/>
<polygon fill="#63b8ff" stroke="#63b8ff" points="1186.42,-151.24 1194.33,-144.2 1183.75,-144.77 1186.42,-151.24"/>
</a>
</g>
</g>
<!-- Node20 -->
<g id="Node000020" class="node">
<title>Node20</title>
<g id="a_Node000020"><a xlink:href="a02367.html#a45a896fb606c2aa66a5a4c2af59ce494" target="_top" xlink:title=" ">
<polygon fill="white" stroke="#666666" points="1293,-217.23 1178,-217.23 1178,-198.73 1293,-198.73 1293,-217.23"/>
<text text-anchor="middle" x="1235.5" y="-203.73" font-family="Helvetica,sans-Serif" font-size="10.00">async_condition_notify</text>
</a>
</g>
</g>
<!-- Node19&#45;&gt;Node20 -->
<g id="edge23_Node000019_Node000020" class="edge">
<title>Node19&#45;&gt;Node20</title>
<g id="a_edge23_Node000019_Node000020"><a xlink:title=" ">
<path fill="none" stroke="#63b8ff" d="M1138.52,-207.98C1147.57,-207.98 1157.04,-207.98 1166.36,-207.98"/>
<polygon fill="#63b8ff" stroke="#63b8ff" points="1166.1,-211.48 1176.1,-207.98 1166.1,-204.48 1166.1,-211.48"/>
</a>
</g>
</g>
<!-- Node21 -->
<g id="Node000021" class="node">
<title>Node21</title>
<g id="a_Node000021"><a xlink:href="a02361.html#a0fa370eee5160963e617d1daf1c07363" target="_top" xlink:title=" ">
<polygon fill="white" stroke="#666666" points="1457.12,-217.23 1344.38,-217.23 1344.38,-198.73 1457.12,-198.73 1457.12,-217.23"/>
<text text-anchor="middle" x="1400.75" y="-203.73" font-family="Helvetica,sans-Serif" font-size="10.00">async_semaphore_inc</text>
</a>
</g>
</g>
<!-- Node20&#45;&gt;Node21 -->
<g id="edge24_Node000020_Node000021" class="edge">
<title>Node20&#45;&gt;Node21</title>
<g id="a_edge24_Node000020_Node000021"><a xlink:title=" ">
<path fill="none" stroke="#63b8ff" d="M1293.14,-207.98C1305.89,-207.98 1319.54,-207.98 1332.67,-207.98"/>
<polygon fill="#63b8ff" stroke="#63b8ff" points="1332.53,-211.48 1342.53,-207.98 1332.52,-204.48 1332.53,-211.48"/>
</a>
</g>
</g>
<!-- Node24 -->
<g id="Node000024" class="node">
<title>Node24</title>
<g id="a_Node000024"><a xlink:href="a01940.html#a27bee94f7a23281c8b2b72ec433f6059" target="_top" xlink:title=" ">
<polygon fill="white" stroke="#666666" points="355.12,-161.23 270.12,-161.23 270.12,-142.73 355.12,-142.73 355.12,-161.23"/>
<text text-anchor="middle" x="312.62" y="-147.73" font-family="Helvetica,sans-Serif" font-size="10.00">arax_task_alloc</text>
</a>
</g>
</g>
<!-- Node23&#45;&gt;Node24 -->
<g id="edge28_Node000023_Node000024" class="edge">
<title>Node23&#45;&gt;Node24</title>
<g id="a_edge28_Node000023_Node000024"><a xlink:title=" ">
<path fill="none" stroke="#63b8ff" d="M193.07,-216.24C208.48,-205.41 234.6,-187.75 258.5,-174.98 264.29,-171.88 270.59,-168.87 276.75,-166.1"/>
<polygon fill="#63b8ff" stroke="#63b8ff" points="277.73,-169.49 285.51,-162.29 274.94,-163.07 277.73,-169.49"/>
</a>
</g>
</g>
<!-- Node36 -->
<g id="Node000036" class="node">
<title>Node36</title>
<g id="a_Node000036"><a xlink:href="a01940.html#aa3cb73b347940187fb3399f51b1a55b7" target="_top" xlink:title=" ">
<polygon fill="white" stroke="#666666" points="366.38,-235.23 258.88,-235.23 258.88,-216.73 366.38,-216.73 366.38,-235.23"/>
<text text-anchor="middle" x="312.62" y="-221.73" font-family="Helvetica,sans-Serif" font-size="10.00">arax_task_host_data</text>
</a>
</g>
</g>
<!-- Node23&#45;&gt;Node36 -->
<g id="edge47_Node000023_Node000036" class="edge">
<title>Node23&#45;&gt;Node36</title>
<g id="a_edge47_Node000023_Node000036"><a xlink:title=" ">
<path fill="none" stroke="#63b8ff" d="M222.76,-225.98C230.63,-225.98 238.98,-225.98 247.3,-225.98"/>
<polygon fill="#63b8ff" stroke="#63b8ff" points="247.06,-229.48 257.06,-225.98 247.06,-222.48 247.06,-229.48"/>
</a>
</g>
</g>
<!-- Node37 -->
<g id="Node000037" class="node">
<title>Node37</title>
<g id="a_Node000037"><a xlink:href="a01940.html#ace08f924cb86d1310099621564536657" target="_top" xlink:title=" ">
<polygon fill="white" stroke="#666666" points="667.25,-198.23 573.25,-198.23 573.25,-179.73 667.25,-179.73 667.25,-198.23"/>
<text text-anchor="middle" x="620.25" y="-184.73" font-family="Helvetica,sans-Serif" font-size="10.00">arax_task_submit</text>
</a>
</g>
</g>
<!-- Node23&#45;&gt;Node37 -->
<g id="edge48_Node000023_Node000037" class="edge">
<title>Node23&#45;&gt;Node37</title>
<g id="a_edge48_Node000023_Node000037"><a xlink:title=" ">
<path fill="none" stroke="#63b8ff" d="M216.23,-216.23C229.47,-213.09 244.57,-209.92 258.5,-207.98 364.71,-193.19 489.97,-189.68 561.46,-188.98"/>
<polygon fill="#63b8ff" stroke="#63b8ff" points="561.4,-192.48 571.37,-188.9 561.34,-185.48 561.4,-192.48"/>
</a>
</g>
</g>
<!-- Node41 -->
<g id="Node000041" class="node">
<title>Node41</title>
<g id="a_Node000041"><a xlink:href="a01913.html#a226d4d420328a42fd671699ae60c4c3a" target="_top" xlink:title=" ">
<polygon fill="white" stroke="#666666" points="358.88,-272.23 266.38,-272.23 266.38,-253.73 358.88,-253.73 358.88,-272.23"/>
<text text-anchor="middle" x="312.62" y="-258.73" font-family="Helvetica,sans-Serif" font-size="10.00">check_semantics</text>
</a>
</g>
</g>
<!-- Node23&#45;&gt;Node41 -->
<g id="edge56_Node000023_Node000041" class="edge">
<title>Node23&#45;&gt;Node41</title>
<g id="a_edge56_Node000023_Node000041"><a xlink:title=" ">
<path fill="none" stroke="#63b8ff" d="M214.21,-235.7C230.14,-240.16 249.24,-245.51 266.29,-250.28"/>
<polygon fill="#63b8ff" stroke="#63b8ff" points="265.11,-253.59 275.69,-252.91 267,-246.85 265.11,-253.59"/>
</a>
</g>
</g>
<!-- Node25 -->
<g id="Node000025" class="node">
<title>Node25</title>
<g id="a_Node000025"><a xlink:href="a01925.html#a1dc669466d6f52d5be8af2d991512ac2" target="_top" xlink:title=" ">
<polygon fill="white" stroke="#666666" points="514,-272.23 410.25,-272.23 410.25,-253.73 514,-253.73 514,-272.23"/>
<text text-anchor="middle" x="462.12" y="-258.73" font-family="Helvetica,sans-Serif" font-size="10.00">arax_data_input_init</text>
</a>
</g>
</g>
<!-- Node24&#45;&gt;Node25 -->
<g id="edge29_Node000024_Node000025" class="edge">
<title>Node24&#45;&gt;Node25</title>
<g id="a_edge29_Node000024_Node000025"><a xlink:title=" ">
<path fill="none" stroke="#63b8ff" d="M322.57,-161.45C344.2,-184.34 397.94,-240.98 402.75,-243.98 405.64,-245.78 408.72,-247.43 411.89,-248.94"/>
<polygon fill="#63b8ff" stroke="#63b8ff" points="410.28,-252.06 420.85,-252.69 412.98,-245.6 410.28,-252.06"/>
</a>
</g>
</g>
<!-- Node28 -->
<g id="Node000028" class="node">
<title>Node28</title>
<g id="a_Node000028"><a xlink:href="a01925.html#a18d07d808917e0b971d46332e9e64da4" target="_top" xlink:title=" ">
<polygon fill="white" stroke="#666666" points="517,-235.23 407.25,-235.23 407.25,-216.73 517,-216.73 517,-235.23"/>
<text text-anchor="middle" x="462.12" y="-221.73" font-family="Helvetica,sans-Serif" font-size="10.00">arax_data_output_init</text>
</a>
</g>
</g>
<!-- Node24&#45;&gt;Node28 -->
<g id="edge35_Node000024_Node000028" class="edge">
<title>Node24&#45;&gt;Node28</title>
<g id="a_edge35_Node000024_Node000028"><a xlink:title=" ">
<path fill="none" stroke="#63b8ff" d="M332.91,-161.65C358.08,-174.28 402.39,-196.51 431.76,-211.25"/>
<polygon fill="#63b8ff" stroke="#63b8ff" points="429.98,-214.27 440.48,-215.62 433.12,-208.01 429.98,-214.27"/>
</a>
</g>
</g>
<!-- Node29 -->
<g id="Node000029" class="node">
<title>Node29</title>
<g id="a_Node000029"><a xlink:href="a01928.html#a402bbd6fa197c2c48d527325e5e2cf5b" target="_top" xlink:title=" ">
<polygon fill="white" stroke="#666666" points="672.5,-124.23 568,-124.23 568,-105.73 672.5,-105.73 672.5,-124.23"/>
<text text-anchor="middle" x="620.25" y="-110.73" font-family="Helvetica,sans-Serif" font-size="10.00">arax_object_register</text>
</a>
</g>
</g>
<!-- Node24&#45;&gt;Node29 -->
<g id="edge38_Node000024_Node000029" class="edge">
<title>Node24&#45;&gt;Node29</title>
<g id="a_edge38_Node000024_Node000029"><a xlink:title=" ">
<path fill="none" stroke="#63b8ff" d="M355.62,-142.49C370.45,-139.41 387.28,-136.21 402.75,-133.98 454.34,-126.53 513.3,-121.59 556.65,-118.61"/>
<polygon fill="#63b8ff" stroke="#63b8ff" points="556.63,-122.12 566.37,-117.97 556.16,-115.14 556.63,-122.12"/>
</a>
</g>
</g>
<!-- Node35 -->
<g id="Node000035" class="node">
<title>Node35</title>
<g id="a_Node000035"><a xlink:href="a02367.html#ac728117d73179c279de49e01ae905dda" target="_top" xlink:title=" ">
<polygon fill="white" stroke="#666666" points="518.12,-161.23 406.12,-161.23 406.12,-142.73 518.12,-142.73 518.12,-161.23"/>
<text text-anchor="middle" x="462.12" y="-147.73" font-family="Helvetica,sans-Serif" font-size="10.00">async_completion_init</text>
</a>
</g>
</g>
<!-- Node24&#45;&gt;Node35 -->
<g id="edge45_Node000024_Node000035" class="edge">
<title>Node24&#45;&gt;Node35</title>
<g id="a_edge45_Node000024_Node000035"><a xlink:title=" ">
<path fill="none" stroke="#63b8ff" d="M355.5,-151.98C367.55,-151.98 381.02,-151.98 394.19,-151.98"/>
<polygon fill="#63b8ff" stroke="#63b8ff" points="394.13,-155.48 404.13,-151.98 394.13,-148.48 394.13,-155.48"/>
</a>
</g>
</g>
<!-- Node25&#45;&gt;Node11 -->
<g id="edge34_Node000025_Node000011" class="edge">
<title>Node25&#45;&gt;Node11</title>
<g id="a_edge34_Node000025_Node000011"><a xlink:title=" ">
<path fill="none" stroke="#63b8ff" d="M504.7,-272.66C521.05,-276.01 540.06,-279.33 557.5,-280.98 611.15,-286.05 672.45,-285.56 716.86,-284.08"/>
<polygon fill="#63b8ff" stroke="#63b8ff" points="716.96,-287.58 726.83,-283.72 716.71,-280.58 716.96,-287.58"/>
</a>
</g>
</g>
<!-- Node26 -->
<g id="Node000026" class="node">
<title>Node26</title>
<g id="a_Node000026"><a xlink:href="a01925.html#a4b65f90a821aca384f0ca1cff7bd1846" target="_top" xlink:title=" ">
<polygon fill="white" stroke="#666666" points="683,-272.23 557.5,-272.23 557.5,-253.73 683,-253.73 683,-272.23"/>
<text text-anchor="middle" x="620.25" y="-258.73" font-family="Helvetica,sans-Serif" font-size="10.00">arax_data_migrate_accel</text>
</a>
</g>
</g>
<!-- Node25&#45;&gt;Node26 -->
<g id="edge30_Node000025_Node000026" class="edge">
<title>Node25&#45;&gt;Node26</title>
<g id="a_edge30_Node000025_Node000026"><a xlink:title=" ">
<path fill="none" stroke="#63b8ff" d="M514.25,-262.98C524.3,-262.98 535.04,-262.98 545.67,-262.98"/>
<polygon fill="#63b8ff" stroke="#63b8ff" points="545.6,-266.48 555.6,-262.98 545.6,-259.48 545.6,-266.48"/>
</a>
</g>
</g>
<!-- Node26&#45;&gt;Node11 -->
<g id="edge32_Node000026_Node000011" class="edge">
<title>Node26&#45;&gt;Node11</title>
<g id="a_edge32_Node000026_Node000011"><a xlink:title=" ">
<path fill="none" stroke="#63b8ff" d="M683.4,-270.09C694.49,-271.36 706.03,-272.68 717.1,-273.95"/>
<polygon fill="#63b8ff" stroke="#63b8ff" points="716.58,-277.41 726.91,-275.07 717.37,-270.46 716.58,-277.41"/>
</a>
</g>
</g>
<!-- Node26&#45;&gt;Node17 -->
<g id="edge31_Node000026_Node000017" class="edge">
<title>Node26&#45;&gt;Node17</title>
<g id="a_edge31_Node000026_Node000017"><a xlink:title=" ">
<path fill="none" stroke="#63b8ff" d="M646.46,-272.61C666.13,-280.04 694.2,-290.46 719,-298.98 724.7,-300.94 730.74,-302.94 736.69,-304.88"/>
<polygon fill="#63b8ff" stroke="#63b8ff" points="735.19,-308.08 745.79,-307.81 737.34,-301.41 735.19,-308.08"/>
</a>
</g>
</g>
<!-- Node27 -->
<g id="Node000027" class="node">
<title>Node27</title>
<g id="a_Node000027"><a xlink:href="a01928.html#a668fd893484b6e2d67d8b372b508d14f" target="_top" xlink:title=" ">
<polygon fill="white" stroke="#666666" points="840,-253.23 719,-253.23 719,-234.73 840,-234.73 840,-253.23"/>
<text text-anchor="middle" x="779.5" y="-239.73" font-family="Helvetica,sans-Serif" font-size="10.00">arax_object_type_to_str</text>
</a>
</g>
</g>
<!-- Node26&#45;&gt;Node27 -->
<g id="edge33_Node000026_Node000027" class="edge">
<title>Node26&#45;&gt;Node27</title>
<g id="a_edge33_Node000026_Node000027"><a xlink:title=" ">
<path fill="none" stroke="#63b8ff" d="M683.4,-255.47C691.28,-254.52 699.38,-253.54 707.39,-252.57"/>
<polygon fill="#63b8ff" stroke="#63b8ff" points="707.59,-256.07 717.1,-251.4 706.75,-249.12 707.59,-256.07"/>
</a>
</g>
</g>
<!-- Node28&#45;&gt;Node11 -->
<g id="edge37_Node000028_Node000011" class="edge">
<title>Node28&#45;&gt;Node11</title>
<g id="a_edge37_Node000028_Node000011"><a xlink:title=" ">
<path fill="none" stroke="#63b8ff" d="M517.36,-225.36C562.44,-226.1 627.88,-230.1 683,-244.98 700.08,-249.59 702.54,-255.5 719,-261.98 724.03,-263.96 729.36,-265.89 734.68,-267.72"/>
<polygon fill="#63b8ff" stroke="#63b8ff" points="733.46,-271 744.06,-270.82 735.66,-264.35 733.46,-271"/>
</a>
</g>
</g>
<!-- Node28&#45;&gt;Node26 -->
<g id="edge36_Node000028_Node000026" class="edge">
<title>Node28&#45;&gt;Node26</title>
<g id="a_edge36_Node000028_Node000026"><a xlink:title=" ">
<path fill="none" stroke="#63b8ff" d="M504.15,-235.7C523.43,-240.27 546.64,-245.77 567.16,-250.63"/>
<polygon fill="#63b8ff" stroke="#63b8ff" points="566.22,-254.01 576.76,-252.91 567.84,-247.2 566.22,-254.01"/>
</a>
</g>
</g>
<!-- Node30 -->
<g id="Node000030" class="node">
<title>Node30</title>
<g id="a_Node000030"><a xlink:href="a01931.html#a6cc54ee40009c61b5f6526f5edff004f" target="_top" xlink:title=" ">
<polygon fill="white" stroke="#666666" points="983.88,-96.23 881.62,-96.23 881.62,-77.73 983.88,-77.73 983.88,-96.23"/>
<text text-anchor="middle" x="932.75" y="-82.73" font-family="Helvetica,sans-Serif" font-size="10.00">arax_pipe_size_dec</text>
</a>
</g>
</g>
<!-- Node29&#45;&gt;Node30 -->
<g id="edge39_Node000029_Node000030" class="edge">
<title>Node29&#45;&gt;Node30</title>
<g id="a_edge39_Node000029_Node000030"><a xlink:title=" ">
<path fill="none" stroke="#63b8ff" d="M666.81,-105.27C683.19,-102.13 701.86,-98.95 719,-96.98 769.64,-91.15 827.44,-88.7 870,-87.68"/>
<polygon fill="#63b8ff" stroke="#63b8ff" points="869.87,-91.18 879.79,-87.47 869.71,-84.19 869.87,-91.18"/>
</a>
</g>
</g>
<!-- Node31 -->
<g id="Node000031" class="node">
<title>Node31</title>
<g id="a_Node000031"><a xlink:href="a02358.html#ac9828b5c2758940f6d3c7d4335228de5" target="_top" xlink:title=" ">
<polygon fill="white" stroke="#666666" points="829.12,-124.23 729.88,-124.23 729.88,-105.73 829.12,-105.73 829.12,-124.23"/>
<text text-anchor="middle" x="779.5" y="-110.73" font-family="Helvetica,sans-Serif" font-size="10.00">arch_alloc_allocate</text>
</a>
</g>
</g>
<!-- Node29&#45;&gt;Node31 -->
<g id="edge41_Node000029_Node000031" class="edge">
<title>Node29&#45;&gt;Node31</title>
<g id="a_edge41_Node000029_Node000031"><a xlink:title=" ">
<path fill="none" stroke="#63b8ff" d="M672.74,-114.98C687.3,-114.98 703.28,-114.98 718.3,-114.98"/>
<polygon fill="#63b8ff" stroke="#63b8ff" points="718.05,-118.48 728.05,-114.98 718.05,-111.48 718.05,-118.48"/>
</a>
</g>
</g>
<!-- Node32 -->
<g id="Node000032" class="node">
<title>Node32</title>
<g id="a_Node000032"><a xlink:href="a01958.html#ae06a9e78e6a4f6c9c8afcf0f4862ce29" target="_top" xlink:title=" ">
<polygon fill="white" stroke="#666666" points="816,-50.23 743,-50.23 743,-31.73 816,-31.73 816,-50.23"/>
<text text-anchor="middle" x="779.5" y="-36.73" font-family="Helvetica,sans-Serif" font-size="10.00">utils_list_add</text>
</a>
</g>
</g>
<!-- Node29&#45;&gt;Node32 -->
<g id="edge42_Node000029_Node000032" class="edge">
<title>Node29&#45;&gt;Node32</title>
<g id="a_edge42_Node000029_Node000032"><a xlink:title=" ">
<path fill="none" stroke="#63b8ff" d="M661.49,-105.34C668.88,-102.81 676.35,-99.72 683,-95.98 701.66,-85.48 700.72,-75.13 719,-63.98 724.57,-60.58 730.73,-57.53 736.91,-54.84"/>
<polygon fill="#63b8ff" stroke="#63b8ff" points="737.87,-58.23 745.84,-51.24 735.25,-51.74 737.87,-58.23"/>
</a>
</g>
</g>
<!-- Node34 -->
<g id="Node000034" class="node">
<title>Node34</title>
<g id="a_Node000034"><a xlink:href="a01958.html#a63f2791c9b5c8e2fa15967cfafb7ccbb" target="_top" xlink:title=" ">
<polygon fill="white" stroke="#666666" points="827.62,-161.23 731.38,-161.23 731.38,-142.73 827.62,-142.73 827.62,-161.23"/>
<text text-anchor="middle" x="779.5" y="-147.73" font-family="Helvetica,sans-Serif" font-size="10.00">utils_list_node_init</text>
</a>
</g>
</g>
<!-- Node29&#45;&gt;Node34 -->
<g id="edge44_Node000029_Node000034" class="edge">
<title>Node29&#45;&gt;Node34</title>
<g id="a_edge44_Node000029_Node000034"><a xlink:title=" ">
<path fill="none" stroke="#63b8ff" d="M662.57,-124.7C681.99,-129.27 705.37,-134.77 726.03,-139.63"/>
<polygon fill="#63b8ff" stroke="#63b8ff" points="725.18,-143.03 735.71,-141.91 726.78,-136.21 725.18,-143.03"/>
</a>
</g>
</g>
<!-- Node30&#45;&gt;Node3 -->
<g id="edge40_Node000030_Node000003" class="edge">
<title>Node30&#45;&gt;Node3</title>
<g id="a_edge40_Node000030_Node000003"><a xlink:title=" ">
<path fill="none" stroke="#63b8ff" d="M984.23,-90.39C993.67,-91.03 1003.68,-91.71 1013.55,-92.38"/>
<polygon fill="#63b8ff" stroke="#63b8ff" points="1013.31,-95.87 1023.52,-93.05 1013.78,-88.88 1013.31,-95.87"/>
</a>
</g>
</g>
<!-- Node33 -->
<g id="Node000033" class="node">
<title>Node33</title>
<g id="a_Node000033"><a xlink:href="a01958.html#a5c575f52a42e0e0d2fb41bda2d1268ce" target="_top" xlink:title=" ">
<polygon fill="white" stroke="#666666" points="982.38,-50.23 883.12,-50.23 883.12,-31.73 982.38,-31.73 982.38,-50.23"/>
<text text-anchor="middle" x="932.75" y="-36.73" font-family="Helvetica,sans-Serif" font-size="10.00">utils_list_node_add</text>
</a>
</g>
</g>
<!-- Node32&#45;&gt;Node33 -->
<g id="edge43_Node000032_Node000033" class="edge">
<title>Node32&#45;&gt;Node33</title>
<g id="a_edge43_Node000032_Node000033"><a xlink:title=" ">
<path fill="none" stroke="#63b8ff" d="M816.34,-40.98C832.77,-40.98 852.69,-40.98 871.32,-40.98"/>
<polygon fill="#63b8ff" stroke="#63b8ff" points="871.2,-44.48 881.2,-40.98 871.2,-37.48 871.2,-44.48"/>
</a>
</g>
</g>
<!-- Node35&#45;&gt;Node34 -->
<g id="edge46_Node000035_Node000034" class="edge">
<title>Node35&#45;&gt;Node34</title>
<g id="a_edge46_Node000035_Node000034"><a xlink:title=" ">
<path fill="none" stroke="#63b8ff" d="M518.42,-151.98C574.78,-151.98 661.88,-151.98 719.53,-151.98"/>
<polygon fill="#63b8ff" stroke="#63b8ff" points="719.49,-155.48 729.49,-151.98 719.49,-148.48 719.49,-155.48"/>
</a>
</g>
</g>
<!-- Node37&#45;&gt;Node11 -->
<g id="edge49_Node000037_Node000011" class="edge">
<title>Node37&#45;&gt;Node11</title>
<g id="a_edge49_Node000037_Node000011"><a xlink:title=" ">
<path fill="none" stroke="#63b8ff" d="M658.04,-198.65C666.75,-201.99 675.63,-206.36 683,-211.98 704.77,-228.59 696.84,-245.89 719,-261.98 721.3,-263.65 723.76,-265.18 726.31,-266.58"/>
<polygon fill="#63b8ff" stroke="#63b8ff" points="724.62,-269.65 735.16,-270.7 727.58,-263.3 724.62,-269.65"/>
</a>
</g>
</g>
<!-- Node38 -->
<g id="Node000038" class="node">
<title>Node38</title>
<g id="a_Node000038"><a xlink:href="a01946.html#a8b82433bc8c7d7f03683ac521a3679fa" target="_top" xlink:title=" ">
<polygon fill="white" stroke="#666666" points="989.5,-180.23 876,-180.23 876,-161.73 989.5,-161.73 989.5,-180.23"/>
<text text-anchor="middle" x="932.75" y="-166.73" font-family="Helvetica,sans-Serif" font-size="10.00">arax_vaccel_add_task</text>
</a>
</g>
</g>
<!-- Node37&#45;&gt;Node38 -->
<g id="edge50_Node000037_Node000038" class="edge">
<title>Node37&#45;&gt;Node38</title>
<g id="a_edge50_Node000037_Node000038"><a xlink:title=" ">
<path fill="none" stroke="#63b8ff" d="M667.73,-186.28C719.95,-183.26 805.14,-178.32 864.58,-174.87"/>
<polygon fill="#63b8ff" stroke="#63b8ff" points="864.44,-178.39 874.23,-174.31 864.04,-171.4 864.44,-178.39"/>
</a>
</g>
</g>
<!-- Node39 -->
<g id="Node000039" class="node">
<title>Node39</title>
<g id="a_Node000039"><a xlink:href="a01919.html#ab6afd8cc035237c811ce6a1b7727acc3" target="_top" xlink:title=" ">
<polygon fill="white" stroke="#666666" points="1137.12,-180.23 1028.12,-180.23 1028.12,-161.73 1137.12,-161.73 1137.12,-180.23"/>
<text text-anchor="middle" x="1082.62" y="-166.73" font-family="Helvetica,sans-Serif" font-size="10.00">arax_accel_add_task</text>
</a>
</g>
</g>
<!-- Node38&#45;&gt;Node39 -->
<g id="edge51_Node000038_Node000039" class="edge">
<title>Node38&#45;&gt;Node39</title>
<g id="a_edge51_Node000038_Node000039"><a xlink:title=" ">
<path fill="none" stroke="#63b8ff" d="M989.66,-170.98C998.51,-170.98 1007.74,-170.98 1016.77,-170.98"/>
<polygon fill="#63b8ff" stroke="#63b8ff" points="1016.57,-174.48 1026.57,-170.98 1016.57,-167.48 1016.57,-174.48"/>
</a>
</g>
</g>
<!-- Node40 -->
<g id="Node000040" class="node">
<title>Node40</title>
<g id="a_Node000040"><a xlink:href="a01961.html#a9fae55b169121c4851bb7c0adf4eac47" target="_top" xlink:title=" ">
<polygon fill="white" stroke="#666666" points="1128.5,-143.23 1036.75,-143.23 1036.75,-124.73 1128.5,-124.73 1128.5,-143.23"/>
<text text-anchor="middle" x="1082.62" y="-129.73" font-family="Helvetica,sans-Serif" font-size="10.00">utils_queue_push</text>
</a>
</g>
</g>
<!-- Node38&#45;&gt;Node40 -->
<g id="edge55_Node000038_Node000040" class="edge">
<title>Node38&#45;&gt;Node40</title>
<g id="a_edge55_Node000038_Node000040"><a xlink:title=" ">
<path fill="none" stroke="#63b8ff" d="M972.6,-161.26C990.7,-156.73 1012.45,-151.29 1031.74,-146.46"/>
<polygon fill="#63b8ff" stroke="#63b8ff" points="1032.46,-149.89 1041.31,-144.07 1030.76,-143.1 1032.46,-149.89"/>
</a>
</g>
</g>
<!-- Node39&#45;&gt;Node4 -->
<g id="edge52_Node000039_Node000004" class="edge">
<title>Node39&#45;&gt;Node4</title>
<g id="a_edge52_Node000039_Node000004"><a xlink:title=" ">
<path fill="none" stroke="#63b8ff" d="M1137.24,-170.98C1147.57,-170.98 1158.49,-170.98 1169.14,-170.98"/>
<polygon fill="#63b8ff" stroke="#63b8ff" points="1169.03,-174.48 1179.03,-170.98 1169.03,-167.48 1169.03,-174.48"/>
</a>
</g>
</g>
<!-- Node39&#45;&gt;Node6 -->
<g id="edge54_Node000039_Node000006" class="edge">
<title>Node39&#45;&gt;Node6</title>
<g id="a_edge54_Node000039_Node000006"><a xlink:title=" ">
<path fill="none" stroke="#63b8ff" d="M1123.27,-161.26C1141.82,-156.71 1164.13,-151.24 1183.88,-146.39"/>
<polygon fill="#63b8ff" stroke="#63b8ff" points="1184.51,-149.84 1193.39,-144.06 1182.85,-143.04 1184.51,-149.84"/>
</a>
</g>
</g>
<!-- Node39&#45;&gt;Node20 -->
<g id="edge53_Node000039_Node000020" class="edge">
<title>Node39&#45;&gt;Node20</title>
<g id="a_edge53_Node000039_Node000020"><a xlink:title=" ">
<path fill="none" stroke="#63b8ff" d="M1123.27,-180.7C1141.82,-185.25 1164.13,-190.72 1183.88,-195.57"/>
<polygon fill="#63b8ff" stroke="#63b8ff" points="1182.85,-198.92 1193.39,-197.9 1184.51,-192.12 1182.85,-198.92"/>
</a>
</g>
</g>
<!-- Node43 -->
<g id="Node000043" class="node">
<title>Node43</title>
<g id="a_Node000043"><a xlink:href="a01940.html#a0d3707df989265f8cf380acdef95eb02" target="_top" xlink:title=" ">
<polygon fill="white" stroke="#666666" points="366.75,-106.23 258.5,-106.23 258.5,-87.73 366.75,-87.73 366.75,-106.23"/>
<text text-anchor="middle" x="312.62" y="-92.73" font-family="Helvetica,sans-Serif" font-size="10.00">arax_task_wait_done</text>
</a>
</g>
</g>
<!-- Node42&#45;&gt;Node43 -->
<g id="edge58_Node000042_Node000043" class="edge">
<title>Node42&#45;&gt;Node43</title>
<g id="a_edge58_Node000042_Node000043"><a xlink:title=" ">
<path fill="none" stroke="#63b8ff" d="M196.77,-161.3C219.13,-148.78 258.32,-126.83 284.62,-112.1"/>
<polygon fill="#63b8ff" stroke="#63b8ff" points="286.01,-115.34 293.03,-107.4 282.59,-109.23 286.01,-115.34"/>
</a>
</g>
</g>
<!-- Node44 -->
<g id="Node000044" class="node">
<title>Node44</title>
<g id="a_Node000044"><a xlink:href="a02367.html#aebf9e72bb6cbd8b9e33489d46c25075d" target="_top" xlink:title=" ">
<polygon fill="white" stroke="#666666" points="520.38,-87.23 403.88,-87.23 403.88,-68.73 520.38,-68.73 520.38,-87.23"/>
<text text-anchor="middle" x="462.12" y="-73.73" font-family="Helvetica,sans-Serif" font-size="10.00">async_completion_wait</text>
</a>
</g>
</g>
<!-- Node43&#45;&gt;Node44 -->
<g id="edge59_Node000043_Node000044" class="edge">
<title>Node43&#45;&gt;Node44</title>
<g id="a_edge59_Node000043_Node000044"><a xlink:title=" ">
<path fill="none" stroke="#63b8ff" d="M366.88,-90.12C375.14,-89.06 383.77,-87.94 392.32,-86.84"/>
<polygon fill="#63b8ff" stroke="#63b8ff" points="392.49,-90.35 401.96,-85.6 391.6,-83.41 392.49,-90.35"/>
</a>
</g>
</g>
<!-- Node45 -->
<g id="Node000045" class="node">
<title>Node45</title>
<g id="a_Node000045"><a xlink:href="a02361.html#aa459f71b73bbc23f0b4bb342d093dde3" target="_top" xlink:title=" ">
<polygon fill="white" stroke="#666666" points="665,-87.23 575.5,-87.23 575.5,-68.73 665,-68.73 665,-87.23"/>
<text text-anchor="middle" x="620.25" y="-73.73" font-family="Helvetica,sans-Serif" font-size="10.00">_add_completion</text>
</a>
</g>
</g>
<!-- Node44&#45;&gt;Node45 -->
<g id="edge60_Node000044_Node000045" class="edge">
<title>Node44&#45;&gt;Node45</title>
<g id="a_edge60_Node000044_Node000045"><a xlink:title=" ">
<path fill="none" stroke="#63b8ff" d="M520.82,-77.98C534.93,-77.98 550,-77.98 564,-77.98"/>
<polygon fill="#63b8ff" stroke="#63b8ff" points="563.95,-81.48 573.95,-77.98 563.95,-74.48 563.95,-81.48"/>
</a>
</g>
</g>
<!-- Node46 -->
<g id="Node000046" class="node">
<title>Node46</title>
<g id="a_Node000046"><a xlink:href="a02361.html#a49083e8ceb4bfe7793ca1a5a799834d0" target="_top" xlink:title=" ">
<polygon fill="white" stroke="#666666" points="647.75,-50.23 592.75,-50.23 592.75,-31.73 647.75,-31.73 647.75,-50.23"/>
<text text-anchor="middle" x="620.25" y="-36.73" font-family="Helvetica,sans-Serif" font-size="10.00">getVmID</text>
</a>
</g>
</g>
<!-- Node44&#45;&gt;Node46 -->
<g id="edge62_Node000044_Node000046" class="edge">
<title>Node44&#45;&gt;Node46</title>
<g id="a_edge62_Node000044_Node000046"><a xlink:title=" ">
<path fill="none" stroke="#63b8ff" d="M504.15,-68.26C528.21,-62.55 558.4,-55.4 581.82,-49.85"/>
<polygon fill="#63b8ff" stroke="#63b8ff" points="582.32,-53.33 591.24,-47.62 580.71,-46.52 582.32,-53.33"/>
</a>
</g>
</g>
<!-- Node45&#45;&gt;Node32 -->
<g id="edge61_Node000045_Node000032" class="edge">
<title>Node45&#45;&gt;Node32</title>
<g id="a_edge61_Node000045_Node000032"><a xlink:title=" ">
<path fill="none" stroke="#63b8ff" d="M662.57,-68.26C683.72,-63.28 709.57,-57.2 731.48,-52.04"/>
<polygon fill="#63b8ff" stroke="#63b8ff" points="732.13,-55.48 741.06,-49.79 730.53,-48.67 732.13,-55.48"/>
</a>
</g>
</g>
</g>
</svg>
