<?xml version="1.0" encoding="UTF-8" standalone="no"?>
<!DOCTYPE svg PUBLIC "-//W3C//DTD SVG 1.1//EN"
 "http://www.w3.org/Graphics/SVG/1.1/DTD/svg11.dtd">
<!-- Generated by graphviz version 8.0.5 (0)
 -->
<!-- Title: async_condition_unlock Pages: 1 -->
<svg width="1127pt" height="815pt"
 viewBox="0.00 0.00 1126.50 815.23" xmlns="http://www.w3.org/2000/svg" xmlns:xlink="http://www.w3.org/1999/xlink">
<g id="graph0" class="graph" transform="scale(1 1) rotate(0) translate(4 811.23)">
<title>async_condition_unlock</title>
<!-- Node1 -->
<g id="Node000001" class="node">
<title>Node1</title>
<g id="a_Node000001"><a xlink:title=" ">
<polygon fill="#999999" stroke="#666666" points="1118.5,-279.5 999,-279.5 999,-261 1118.5,-261 1118.5,-279.5"/>
<text text-anchor="middle" x="1058.75" y="-266" font-family="Helvetica,sans-Serif" font-size="10.00">async_condition_unlock</text>
</a>
</g>
</g>
<!-- Node2 -->
<g id="Node000002" class="node">
<title>Node2</title>
<g id="a_Node000002"><a xlink:href="a01898.html#a02fd608f651d254148dc74f0ae371dfe" target="_top" xlink:title=" ">
<polygon fill="white" stroke="#666666" points="927,-686.5 868.25,-686.5 868.25,-668 927,-668 927,-686.5"/>
<text text-anchor="middle" x="897.62" y="-673" font-family="Helvetica,sans-Serif" font-size="10.00">_arax_init</text>
</a>
</g>
</g>
<!-- Node1&#45;&gt;Node2 -->
<g id="edge1_Node000001_Node000002" class="edge">
<title>Node1&#45;&gt;Node2</title>
<g id="a_edge1_Node000001_Node000002"><a xlink:title=" ">
<path fill="none" stroke="#63b8ff" d="M1050.03,-290C1021.56,-362.81 923.08,-614.71 902.44,-667.5"/>
<polygon fill="#63b8ff" stroke="#63b8ff" points="1053.59,-291.5 1053.97,-280.91 1047.07,-288.95 1053.59,-291.5"/>
</a>
</g>
</g>
<!-- Node10 -->
<g id="Node000010" class="node">
<title>Node10</title>
<g id="a_Node000010"><a xlink:href="a01904.html#ab6afd8cc035237c811ce6a1b7727acc3" target="_top" xlink:title=" ">
<polygon fill="white" stroke="#666666" points="952.12,-457.5 843.12,-457.5 843.12,-439 952.12,-439 952.12,-457.5"/>
<text text-anchor="middle" x="897.62" y="-444" font-family="Helvetica,sans-Serif" font-size="10.00">arax_accel_add_task</text>
</a>
</g>
</g>
<!-- Node1&#45;&gt;Node10 -->
<g id="edge11_Node000001_Node000010" class="edge">
<title>Node1&#45;&gt;Node10</title>
<g id="a_edge11_Node000001_Node000010"><a xlink:title=" ">
<path fill="none" stroke="#63b8ff" d="M1050.78,-289.87C1038.21,-322.52 1008.75,-388.05 963,-425.25 956,-430.94 947.48,-435.28 938.97,-438.57"/>
<polygon fill="#63b8ff" stroke="#63b8ff" points="1054.32,-291.39 1054.51,-280.8 1047.75,-288.96 1054.32,-291.39"/>
</a>
</g>
</g>
<!-- Node20 -->
<g id="Node000020" class="node">
<title>Node20</title>
<g id="a_Node000020"><a xlink:href="a01904.html#af0b933c02a24d69c1efa40179f60288f" target="_top" xlink:title=" ">
<polygon fill="white" stroke="#666666" points="789.12,-341.5 671.12,-341.5 671.12,-323 789.12,-323 789.12,-341.5"/>
<text text-anchor="middle" x="730.12" y="-328" font-family="Helvetica,sans-Serif" font-size="10.00">arax_accel_add_vaccel</text>
</a>
</g>
</g>
<!-- Node1&#45;&gt;Node20 -->
<g id="edge17_Node000001_Node000020" class="edge">
<title>Node1&#45;&gt;Node20</title>
<g id="a_edge17_Node000001_Node000020"><a xlink:title=" ">
<path fill="none" stroke="#63b8ff" d="M987.98,-281.35C943.34,-288.69 884.26,-298.85 832.25,-309.25 812.12,-313.28 789.87,-318.28 771.37,-322.59"/>
<polygon fill="#63b8ff" stroke="#63b8ff" points="988.41,-284.66 997.72,-279.59 987.28,-277.75 988.41,-284.66"/>
</a>
</g>
</g>
<!-- Node26 -->
<g id="Node000026" class="node">
<title>Node26</title>
<g id="a_Node000026"><a xlink:href="a01904.html#aa3f384ca4812e46dedce753be42654df" target="_top" xlink:title=" ">
<polygon fill="white" stroke="#666666" points="955.12,-383.5 840.12,-383.5 840.12,-365 955.12,-365 955.12,-383.5"/>
<text text-anchor="middle" x="897.62" y="-370" font-family="Helvetica,sans-Serif" font-size="10.00">arax_accel_del_vaccel</text>
</a>
</g>
</g>
<!-- Node1&#45;&gt;Node26 -->
<g id="edge23_Node000001_Node000026" class="edge">
<title>Node1&#45;&gt;Node26</title>
<g id="a_edge23_Node000001_Node000026"><a xlink:title=" ">
<path fill="none" stroke="#63b8ff" d="M1042.98,-287.87C1025.72,-307.36 995.37,-338.36 963,-356.25 957.01,-359.56 950.36,-362.3 943.67,-364.56"/>
<polygon fill="#63b8ff" stroke="#63b8ff" points="1046.05,-290.67 1049.95,-280.82 1040.76,-286.09 1046.05,-290.67"/>
</a>
</g>
</g>
<!-- Node28 -->
<g id="Node000028" class="node">
<title>Node28</title>
<g id="a_Node000028"><a xlink:href="a01904.html#aa164c99d44fec2d7296a76c8926eb585" target="_top" xlink:title=" ">
<polygon fill="white" stroke="#666666" points="961.12,-186.75 834.12,-186.75 834.12,-157.75 961.12,-157.75 961.12,-186.75"/>
<text text-anchor="start" x="842.12" y="-173.25" font-family="Helvetica,sans-Serif" font-size="10.00">arax_accel_get_assigned</text>
<text text-anchor="middle" x="897.62" y="-162.75" font-family="Helvetica,sans-Serif" font-size="10.00">_vaccels</text>
</a>
</g>
</g>
<!-- Node1&#45;&gt;Node28 -->
<g id="edge25_Node000001_Node000028" class="edge">
<title>Node1&#45;&gt;Node28</title>
<g id="a_edge25_Node000001_Node000028"><a xlink:title=" ">
<path fill="none" stroke="#63b8ff" d="M1037.82,-253.86C1019.19,-239 990.24,-217.08 963,-201.25 954.31,-196.2 944.58,-191.41 935.37,-187.23"/>
<polygon fill="#63b8ff" stroke="#63b8ff" points="1035.34,-257.16 1045.32,-260.72 1039.74,-251.71 1035.34,-257.16"/>
</a>
</g>
</g>
<!-- Node29 -->
<g id="Node000029" class="node">
<title>Node29</title>
<g id="a_Node000029"><a xlink:href="a01904.html#a415e79d6e82e45f24bcd1742c146a0da" target="_top" xlink:title=" ">
<polygon fill="white" stroke="#666666" points="961.12,-139.5 834.12,-139.5 834.12,-121 961.12,-121 961.12,-139.5"/>
<text text-anchor="middle" x="897.62" y="-126" font-family="Helvetica,sans-Serif" font-size="10.00">arax_accel_wait_for_task</text>
</a>
</g>
</g>
<!-- Node1&#45;&gt;Node29 -->
<g id="edge26_Node000001_Node000029" class="edge">
<title>Node1&#45;&gt;Node29</title>
<g id="a_edge26_Node000001_Node000029"><a xlink:title=" ">
<path fill="none" stroke="#63b8ff" d="M1048.06,-251.14C1033.37,-224.12 1002.89,-175.05 963,-148.25 957.99,-144.88 952.36,-142.14 946.57,-139.91"/>
<polygon fill="#63b8ff" stroke="#63b8ff" points="1045.3,-252.42 1053.06,-259.63 1051.49,-249.15 1045.3,-252.42"/>
</a>
</g>
</g>
<!-- Node30 -->
<g id="Node000030" class="node">
<title>Node30</title>
<g id="a_Node000030"><a xlink:href="a01904.html#a871ba8da471f464d7e10b13d5db07101" target="_top" xlink:title=" ">
<polygon fill="white" stroke="#666666" points="300.5,-124.5 168.25,-124.5 168.25,-106 300.5,-106 300.5,-124.5"/>
<text text-anchor="middle" x="234.38" y="-111" font-family="Helvetica,sans-Serif" font-size="10.00">ARAX_OBJ_DTOR_DECL</text>
</a>
</g>
</g>
<!-- Node1&#45;&gt;Node30 -->
<g id="edge27_Node000001_Node000030" class="edge">
<title>Node1&#45;&gt;Node30</title>
<g id="a_edge27_Node000001_Node000030"><a xlink:title=" ">
<path fill="none" stroke="#63b8ff" d="M1024.2,-256.63C1006.2,-249.55 983.55,-240.99 963,-234.25 935.92,-225.37 496.98,-101.09 468.75,-97.25 410.51,-89.33 395.05,-92.08 336.5,-97.25 317.94,-98.89 297.68,-102.19 280.2,-105.52"/>
<polygon fill="#63b8ff" stroke="#63b8ff" points="1022.63,-260.17 1033.21,-260.61 1025.21,-253.67 1022.63,-260.17"/>
</a>
</g>
</g>
<!-- Node31 -->
<g id="Node000031" class="node">
<title>Node31</title>
<g id="a_Node000031"><a xlink:href="a01913.html#aa4461ab1d225a0f76f08d2f37a4a7e0e" target="_top" xlink:title=" ">
<polygon fill="white" stroke="#666666" points="623.88,-425.75 508.88,-425.75 508.88,-396.75 623.88,-396.75 623.88,-425.75"/>
<text text-anchor="start" x="516.88" y="-412.25" font-family="Helvetica,sans-Serif" font-size="10.00">arax_pipe_add_orphan</text>
<text text-anchor="middle" x="566.38" y="-401.75" font-family="Helvetica,sans-Serif" font-size="10.00">_vaccel</text>
</a>
</g>
</g>
<!-- Node1&#45;&gt;Node31 -->
<g id="edge28_Node000001_Node000031" class="edge">
<title>Node1&#45;&gt;Node31</title>
<g id="a_edge28_Node000001_Node000031"><a xlink:title=" ">
<path fill="none" stroke="#63b8ff" d="M1049.2,-289.78C1035.6,-318.16 1006.07,-369.87 963,-392.25 854.08,-448.85 704.71,-435.75 624.25,-422.64"/>
<polygon fill="#63b8ff" stroke="#63b8ff" points="1052.78,-291.38 1053.78,-280.83 1046.42,-288.45 1052.78,-291.38"/>
</a>
</g>
</g>
<!-- Node32 -->
<g id="Node000032" class="node">
<title>Node32</title>
<g id="a_Node000032"><a xlink:href="a01913.html#a8ff14a859f9b7a34676c2fcdb762386b" target="_top" xlink:title=" ">
<polygon fill="white" stroke="#666666" points="954,-102.75 841.25,-102.75 841.25,-73.75 954,-73.75 954,-102.75"/>
<text text-anchor="start" x="849.25" y="-89.25" font-family="Helvetica,sans-Serif" font-size="10.00">arax_pipe_get_orphan</text>
<text text-anchor="middle" x="897.62" y="-78.75" font-family="Helvetica,sans-Serif" font-size="10.00">_vaccel</text>
</a>
</g>
</g>
<!-- Node1&#45;&gt;Node32 -->
<g id="edge30_Node000001_Node000032" class="edge">
<title>Node1&#45;&gt;Node32</title>
<g id="a_edge30_Node000001_Node000032"><a xlink:title=" ">
<path fill="none" stroke="#63b8ff" d="M1050.82,-250.31C1038.33,-217.14 1008.98,-150.49 963,-112.25 958.78,-108.74 954,-105.72 949,-103.12"/>
<polygon fill="#63b8ff" stroke="#63b8ff" points="1047.84,-251.34 1054.54,-259.55 1054.42,-248.96 1047.84,-251.34"/>
</a>
</g>
</g>
<!-- Node33 -->
<g id="Node000033" class="node">
<title>Node33</title>
<g id="a_Node000033"><a xlink:href="a01913.html#a6cb53dd71cfaedb214bc5aef0e572cc2" target="_top" xlink:title=" ">
<polygon fill="white" stroke="#666666" points="956.62,-55.5 838.62,-55.5 838.62,-37 956.62,-37 956.62,-55.5"/>
<text text-anchor="middle" x="897.62" y="-42" font-family="Helvetica,sans-Serif" font-size="10.00">arax_pipe_orphan_stop</text>
</a>
</g>
</g>
<!-- Node1&#45;&gt;Node33 -->
<g id="edge31_Node000001_Node000033" class="edge">
<title>Node1&#45;&gt;Node33</title>
<g id="a_edge31_Node000001_Node000033"><a xlink:title=" ">
<path fill="none" stroke="#63b8ff" d="M1054.27,-249.97C1046.1,-208.64 1021.76,-114.36 963,-64.25 959.03,-60.86 954.46,-58.11 949.63,-55.87"/>
<polygon fill="#63b8ff" stroke="#63b8ff" points="1051.01,-250.58 1056.27,-259.78 1057.89,-249.31 1051.01,-250.58"/>
</a>
</g>
</g>
<!-- Node34 -->
<g id="Node000034" class="node">
<title>Node34</title>
<g id="a_Node000034"><a xlink:href="a01913.html#aa5172b735dddd3f77fbb0265bbcdfc20" target="_top" xlink:title=" ">
<polygon fill="white" stroke="#666666" points="963,-346.75 832.25,-346.75 832.25,-317.75 963,-317.75 963,-346.75"/>
<text text-anchor="start" x="840.25" y="-333.25" font-family="Helvetica,sans-Serif" font-size="10.00">arax_pipe_remove_orphan</text>
<text text-anchor="middle" x="897.62" y="-322.75" font-family="Helvetica,sans-Serif" font-size="10.00">_vaccel</text>
</a>
</g>
</g>
<!-- Node1&#45;&gt;Node34 -->
<g id="edge32_Node000001_Node000034" class="edge">
<title>Node1&#45;&gt;Node34</title>
<g id="a_edge32_Node000001_Node000034"><a xlink:title=" ">
<path fill="none" stroke="#63b8ff" d="M1022.95,-283.81C997.55,-293.71 963.13,-307.12 936.94,-317.32"/>
<polygon fill="#63b8ff" stroke="#63b8ff" points="1023.84,-286.83 1031.89,-279.94 1021.3,-280.31 1023.84,-286.83"/>
</a>
</g>
</g>
<!-- Node35 -->
<g id="Node000035" class="node">
<title>Node35</title>
<g id="a_Node000035"><a xlink:href="a01925.html#a8413a3584787f9b629e54b2ef9439f06" target="_top" xlink:title=" ">
<polygon fill="white" stroke="#666666" points="954.75,-494.5 840.5,-494.5 840.5,-476 954.75,-476 954.75,-494.5"/>
<text text-anchor="middle" x="897.62" y="-481" font-family="Helvetica,sans-Serif" font-size="10.00">arax_throttle_size_dec</text>
</a>
</g>
</g>
<!-- Node1&#45;&gt;Node35 -->
<g id="edge35_Node000001_Node000035" class="edge">
<title>Node1&#45;&gt;Node35</title>
<g id="a_edge35_Node000001_Node000035"><a xlink:title=" ">
<path fill="none" stroke="#63b8ff" d="M1053.72,-290.3C1044.71,-329.94 1019.15,-418.6 963,-466.25 958.47,-470.1 953.19,-473.16 947.64,-475.61"/>
<polygon fill="#63b8ff" stroke="#63b8ff" points="1057.33,-291.19 1056,-280.68 1050.48,-289.72 1057.33,-291.19"/>
</a>
</g>
</g>
<!-- Node45 -->
<g id="Node000045" class="node">
<title>Node45</title>
<g id="a_Node000045"><a xlink:href="a01925.html#a22aaf13eb56eb1832e725ef73236116f" target="_top" xlink:title=" ">
<polygon fill="white" stroke="#666666" points="953.25,-261.5 842,-261.5 842,-243 953.25,-243 953.25,-261.5"/>
<text text-anchor="middle" x="897.62" y="-248" font-family="Helvetica,sans-Serif" font-size="10.00">arax_throttle_size_inc</text>
</a>
</g>
</g>
<!-- Node1&#45;&gt;Node45 -->
<g id="edge46_Node000001_Node000045" class="edge">
<title>Node1&#45;&gt;Node45</title>
<g id="a_edge46_Node000001_Node000045"><a xlink:title=" ">
<path fill="none" stroke="#63b8ff" d="M988.35,-262.4C976.68,-261.08 964.72,-259.73 953.49,-258.46"/>
<polygon fill="#63b8ff" stroke="#63b8ff" points="987.62,-265.95 997.95,-263.6 988.41,-259 987.62,-265.95"/>
</a>
</g>
</g>
<!-- Node63 -->
<g id="Node000063" class="node">
<title>Node63</title>
<g id="a_Node000063"><a xlink:href="a02349.html#ac7fbf1f43289d3e0e862b315f00e35e2" target="_top" xlink:title=" ">
<polygon fill="white" stroke="#666666" points="949.5,-18.5 845.75,-18.5 845.75,0 949.5,0 949.5,-18.5"/>
<text text-anchor="middle" x="897.62" y="-5" font-family="Helvetica,sans-Serif" font-size="10.00">async_condition_init</text>
</a>
</g>
</g>
<!-- Node1&#45;&gt;Node63 -->
<g id="edge60_Node000001_Node000063" class="edge">
<title>Node1&#45;&gt;Node63</title>
<g id="a_edge60_Node000001_Node000063"><a xlink:title=" ">
<path fill="none" stroke="#63b8ff" d="M1055.77,-250.05C1050.13,-203.82 1029.84,-89.57 963,-28.25 958.79,-24.39 953.84,-21.31 948.57,-18.86"/>
<polygon fill="#63b8ff" stroke="#63b8ff" points="1052.37,-250.18 1056.95,-259.73 1059.33,-249.41 1052.37,-250.18"/>
</a>
</g>
</g>
<!-- Node3 -->
<g id="Node000003" class="node">
<title>Node3</title>
<g id="a_Node000003"><a xlink:href="a01898.html#aa6e4832b06bd5757be4502d2de7b3026" target="_top" xlink:title=" ">
<polygon fill="white" stroke="#666666" points="779.38,-691.75 680.88,-691.75 680.88,-662.75 779.38,-662.75 779.38,-691.75"/>
<text text-anchor="start" x="688.88" y="-678.25" font-family="Helvetica,sans-Serif" font-size="10.00">arax_controller_init</text>
<text text-anchor="middle" x="730.12" y="-667.75" font-family="Helvetica,sans-Serif" font-size="10.00">_start</text>
</a>
</g>
</g>
<!-- Node2&#45;&gt;Node3 -->
<g id="edge2_Node000002_Node000003" class="edge">
<title>Node2&#45;&gt;Node3</title>
<g id="a_edge2_Node000002_Node000003"><a xlink:title=" ">
<path fill="none" stroke="#63b8ff" d="M856.96,-677.25C833.76,-677.25 804.29,-677.25 779.7,-677.25"/>
<polygon fill="#63b8ff" stroke="#63b8ff" points="856.8,-680.75 866.8,-677.25 856.8,-673.75 856.8,-680.75"/>
</a>
</g>
</g>
<!-- Node4 -->
<g id="Node000004" class="node">
<title>Node4</title>
<g id="a_Node000004"><a xlink:href="a02174.html#gae1d371a2840849690acce147e7a205da" target="_top" xlink:title=" ">
<polygon fill="white" stroke="#666666" points="756.88,-728.5 703.38,-728.5 703.38,-710 756.88,-710 756.88,-728.5"/>
<text text-anchor="middle" x="730.12" y="-715" font-family="Helvetica,sans-Serif" font-size="10.00">arax_init</text>
</a>
</g>
</g>
<!-- Node2&#45;&gt;Node4 -->
<g id="edge3_Node000002_Node000004" class="edge">
<title>Node2&#45;&gt;Node4</title>
<g id="a_edge3_Node000002_Node000004"><a xlink:title=" ">
<path fill="none" stroke="#63b8ff" d="M857.36,-687.21C826.39,-695.07 784.08,-705.81 757.17,-712.64"/>
<polygon fill="#63b8ff" stroke="#63b8ff" points="857.97,-690.42 866.8,-684.57 856.24,-683.63 857.97,-690.42"/>
</a>
</g>
</g>
<!-- Node5 -->
<g id="Node000005" class="node">
<title>Node5</title>
<g id="a_Node000005"><a xlink:href="a01940.html#a8a99bcb12e2ee55d68a029bfca9b6d51" target="_top" xlink:title=" ">
<polygon fill="white" stroke="#666666" points="449.62,-712.75 355.62,-712.75 355.62,-683.75 449.62,-683.75 449.62,-712.75"/>
<text text-anchor="start" x="363.62" y="-699.25" font-family="Helvetica,sans-Serif" font-size="10.00">arax_plot_register</text>
<text text-anchor="middle" x="402.62" y="-688.75" font-family="Helvetica,sans-Serif" font-size="10.00">_metric</text>
</a>
</g>
</g>
<!-- Node4&#45;&gt;Node5 -->
<g id="edge4_Node000004_Node000005" class="edge">
<title>Node4&#45;&gt;Node5</title>
<g id="a_edge4_Node000004_Node000005"><a xlink:title=" ">
<path fill="none" stroke="#63b8ff" d="M692.26,-716.87C632.6,-713.02 515.05,-705.44 449.88,-701.23"/>
<polygon fill="#63b8ff" stroke="#63b8ff" points="691.83,-720.42 702.04,-717.57 692.28,-713.43 691.83,-720.42"/>
</a>
</g>
</g>
<!-- Node6 -->
<g id="Node000006" class="node">
<title>Node6</title>
<g id="a_Node000006"><a xlink:href="a01919.html#a80ab3bf4a8af9bb101b5a53248609771" target="_top" xlink:title=" ">
<polygon fill="white" stroke="#666666" points="604.75,-749.5 528,-749.5 528,-731 604.75,-731 604.75,-749.5"/>
<text text-anchor="middle" x="566.38" y="-736" font-family="Helvetica,sans-Serif" font-size="10.00">arax_ptr_valid</text>
</a>
</g>
</g>
<!-- Node4&#45;&gt;Node6 -->
<g id="edge5_Node000004_Node000006" class="edge">
<title>Node4&#45;&gt;Node6</title>
<g id="a_edge5_Node000004_Node000006"><a xlink:title=" ">
<path fill="none" stroke="#63b8ff" d="M692.54,-724C666.43,-727.39 631.41,-731.94 605.06,-735.36"/>
<polygon fill="#63b8ff" stroke="#63b8ff" points="692.67,-727.38 702.14,-722.62 691.77,-720.44 692.67,-727.38"/>
</a>
</g>
</g>
<!-- Node6&#45;&gt;Node5 -->
<g id="edge10_Node000006_Node000005" class="edge">
<title>Node6&#45;&gt;Node5</title>
<g id="a_edge10_Node000006_Node000005"><a xlink:title=" ">
<path fill="none" stroke="#63b8ff" d="M517.4,-727.79C496.06,-722.25 471.03,-715.75 449.89,-710.26"/>
<polygon fill="#63b8ff" stroke="#63b8ff" points="516.3,-731.38 526.86,-730.51 518.06,-724.61 516.3,-731.38"/>
</a>
</g>
</g>
<!-- Node7 -->
<g id="Node000007" class="node">
<title>Node7</title>
<g id="a_Node000007"><a xlink:href="a01937.html#a4ee1fea325d2edd421f59ab240dfbe54" target="_top" xlink:title=" ">
<polygon fill="white" stroke="#666666" points="448.5,-749.5 356.75,-749.5 356.75,-731 448.5,-731 448.5,-749.5"/>
<text text-anchor="middle" x="402.62" y="-736" font-family="Helvetica,sans-Serif" font-size="10.00">_arax_assert_obj</text>
</a>
</g>
</g>
<!-- Node6&#45;&gt;Node7 -->
<g id="edge6_Node000006_Node000007" class="edge">
<title>Node6&#45;&gt;Node7</title>
<g id="a_edge6_Node000006_Node000007"><a xlink:title=" ">
<path fill="none" stroke="#63b8ff" d="M516.92,-740.25C495.29,-740.25 469.94,-740.25 448.71,-740.25"/>
<polygon fill="#63b8ff" stroke="#63b8ff" points="516.86,-743.75 526.86,-740.25 516.86,-736.75 516.86,-743.75"/>
</a>
</g>
</g>
<!-- Node8 -->
<g id="Node000008" class="node">
<title>Node8</title>
<g id="a_Node000008"><a xlink:href="a01931.html#afeaab7d93372f0752d59c70d9c5940e7" target="_top" xlink:title=" ">
<polygon fill="white" stroke="#666666" points="440.62,-786.5 364.62,-786.5 364.62,-768 440.62,-768 440.62,-786.5"/>
<text text-anchor="middle" x="402.62" y="-773" font-family="Helvetica,sans-Serif" font-size="10.00">arax_data_ref</text>
</a>
</g>
</g>
<!-- Node6&#45;&gt;Node8 -->
<g id="edge7_Node000006_Node000008" class="edge">
<title>Node6&#45;&gt;Node8</title>
<g id="a_edge7_Node000006_Node000008"><a xlink:title=" ">
<path fill="none" stroke="#63b8ff" d="M517.36,-751.23C492.92,-756.82 463.66,-763.52 440.94,-768.71"/>
<polygon fill="#63b8ff" stroke="#63b8ff" points="517.89,-754.47 526.86,-748.83 516.33,-747.65 517.89,-754.47"/>
</a>
</g>
</g>
<!-- Node9 -->
<g id="Node000009" class="node">
<title>Node9</title>
<g id="a_Node000009"><a xlink:href="a01931.html#ac1f7fb20b3a23b388bea24f1b46a33a8" target="_top" xlink:title=" ">
<polygon fill="white" stroke="#666666" points="287,-804.5 181.75,-804.5 181.75,-786 287,-786 287,-804.5"/>
<text text-anchor="middle" x="234.38" y="-791" font-family="Helvetica,sans-Serif" font-size="10.00">arax_data_ref_offset</text>
</a>
</g>
</g>
<!-- Node6&#45;&gt;Node9 -->
<g id="edge9_Node000006_Node000009" class="edge">
<title>Node6&#45;&gt;Node9</title>
<g id="a_edge9_Node000006_Node000009"><a xlink:title=" ">
<path fill="none" stroke="#63b8ff" d="M544.69,-756.28C526.02,-769.66 497.19,-787.72 468.75,-795.25 408.04,-811.32 335.29,-807.93 287.34,-802.75"/>
<polygon fill="#63b8ff" stroke="#63b8ff" points="546.51,-758.54 552.47,-749.78 542.35,-752.91 546.51,-758.54"/>
</a>
</g>
</g>
<!-- Node8&#45;&gt;Node9 -->
<g id="edge8_Node000008_Node000009" class="edge">
<title>Node8&#45;&gt;Node9</title>
<g id="a_edge8_Node000008_Node000009"><a xlink:title=" ">
<path fill="none" stroke="#63b8ff" d="M353.52,-782.46C332.8,-784.7 308.51,-787.33 287.37,-789.62"/>
<polygon fill="#63b8ff" stroke="#63b8ff" points="353.75,-785.85 363.32,-781.29 353,-778.89 353.75,-785.85"/>
</a>
</g>
</g>
<!-- Node11 -->
<g id="Node000011" class="node">
<title>Node11</title>
<g id="a_Node000011"><a xlink:href="a01928.html#a8b82433bc8c7d7f03683ac521a3679fa" target="_top" xlink:title=" ">
<polygon fill="white" stroke="#666666" points="786.88,-550.5 673.38,-550.5 673.38,-532 786.88,-532 786.88,-550.5"/>
<text text-anchor="middle" x="730.12" y="-537" font-family="Helvetica,sans-Serif" font-size="10.00">arax_vaccel_add_task</text>
</a>
</g>
</g>
<!-- Node10&#45;&gt;Node11 -->
<g id="edge12_Node000010_Node000011" class="edge">
<title>Node10&#45;&gt;Node11</title>
<g id="a_edge12_Node000010_Node000011"><a xlink:title=" ">
<path fill="none" stroke="#63b8ff" d="M842.86,-461.84C839.18,-463.46 835.6,-465.26 832.25,-467.25 812.8,-478.81 814.17,-489.43 796.25,-503.25 781.94,-514.28 764.14,-524.46 750.76,-531.5"/>
<polygon fill="#63b8ff" stroke="#63b8ff" points="843.75,-464.87 851.79,-457.97 841.2,-458.35 843.75,-464.87"/>
</a>
</g>
</g>
<!-- Node12 -->
<g id="Node000012" class="node">
<title>Node12</title>
<g id="a_Node000012"><a xlink:href="a01922.html#ace08f924cb86d1310099621564536657" target="_top" xlink:title=" ">
<polygon fill="white" stroke="#666666" points="613.38,-587.5 519.38,-587.5 519.38,-569 613.38,-569 613.38,-587.5"/>
<text text-anchor="middle" x="566.38" y="-574" font-family="Helvetica,sans-Serif" font-size="10.00">arax_task_submit</text>
</a>
</g>
</g>
<!-- Node11&#45;&gt;Node12 -->
<g id="edge13_Node000011_Node000012" class="edge">
<title>Node11&#45;&gt;Node12</title>
<g id="a_edge13_Node000011_Node000012"><a xlink:title=" ">
<path fill="none" stroke="#63b8ff" d="M676.04,-553.39C654.57,-558.3 630.13,-563.9 609.87,-568.53"/>
<polygon fill="#63b8ff" stroke="#63b8ff" points="676.66,-556.61 685.63,-550.97 675.1,-549.79 676.66,-556.61"/>
</a>
</g>
</g>
<!-- Node13 -->
<g id="Node000013" class="node">
<title>Node13</title>
<g id="a_Node000013"><a xlink:href="a02177.html#gac9f0f3fbb14da879d3ff09bd367bbb24" target="_top" xlink:title=" ">
<polygon fill="#fff0f0" stroke="red" points="278.38,-549.5 190.38,-549.5 190.38,-531 278.38,-531 278.38,-549.5"/>
<text text-anchor="middle" x="234.38" y="-536" font-family="Helvetica,sans-Serif" font-size="10.00">arax_task_issue</text>
</a>
</g>
</g>
<!-- Node12&#45;&gt;Node13 -->
<g id="edge14_Node000012_Node000013" class="edge">
<title>Node12&#45;&gt;Node13</title>
<g id="a_edge14_Node000012_Node000013"><a xlink:title=" ">
<path fill="none" stroke="#63b8ff" d="M508.13,-583.43C461.53,-586.35 394.25,-587.61 336.5,-577.25 307.24,-572 275.32,-559 255.33,-549.9"/>
<polygon fill="#63b8ff" stroke="#63b8ff" points="508.18,-586.87 517.92,-582.7 507.71,-579.89 508.18,-586.87"/>
</a>
</g>
</g>
<!-- Node14 -->
<g id="Node000014" class="node">
<title>Node14</title>
<g id="a_Node000014"><a xlink:href="a01931.html#af8ede6fc8d207004035f45d945688d2c" target="_top" xlink:title=" ">
<polygon fill="white" stroke="#666666" points="115.38,-586.75 16.88,-586.75 16.88,-557.75 115.38,-557.75 115.38,-586.75"/>
<text text-anchor="start" x="24.88" y="-573.25" font-family="Helvetica,sans-Serif" font-size="10.00">arax_data_allocate</text>
<text text-anchor="middle" x="66.12" y="-562.75" font-family="Helvetica,sans-Serif" font-size="10.00">_remote</text>
</a>
</g>
</g>
<!-- Node13&#45;&gt;Node14 -->
<g id="edge15_Node000013_Node000014" class="edge">
<title>Node13&#45;&gt;Node14</title>
<g id="a_edge15_Node000013_Node000014"><a xlink:title=" ">
<path fill="none" stroke="#63b8ff" d="M179.38,-550.64C158.89,-554.59 135.69,-559.05 115.73,-562.89"/>
<polygon fill="#63b8ff" stroke="#63b8ff" points="179.97,-553.9 189.13,-548.57 178.65,-547.03 179.97,-553.9"/>
</a>
</g>
</g>
<!-- Node18 -->
<g id="Node000018" class="node">
<title>Node18</title>
<g id="a_Node000018"><a xlink:href="a01931.html#af735744d0f8bec04394639a841d2ba0f" target="_top" xlink:title=" ">
<polygon fill="white" stroke="#666666" points="132.25,-403.5 0,-403.5 0,-385 132.25,-385 132.25,-403.5"/>
<text text-anchor="middle" x="66.12" y="-390" font-family="Helvetica,sans-Serif" font-size="10.00">ARAX_OBJ_DTOR_DECL</text>
</a>
</g>
</g>
<!-- Node13&#45;&gt;Node18 -->
<g id="edge16_Node000013_Node000018" class="edge">
<title>Node13&#45;&gt;Node18</title>
<g id="a_edge16_Node000013_Node000018"><a xlink:title=" ">
<path fill="none" stroke="#63b8ff" d="M214.45,-523.63C179.41,-492.86 105.5,-427.95 77.86,-403.67"/>
<polygon fill="#63b8ff" stroke="#63b8ff" points="211.64,-526.7 221.47,-530.67 216.26,-521.44 211.64,-526.7"/>
</a>
</g>
</g>
<!-- Node21 -->
<g id="Node000021" class="node">
<title>Node21</title>
<g id="a_Node000021"><a xlink:href="a02175.html#ga30b30e50de286842c7942a7e3e163578" target="_top" xlink:title=" ">
<polygon fill="white" stroke="#666666" points="628,-378.5 504.75,-378.5 504.75,-360 628,-360 628,-378.5"/>
<text text-anchor="middle" x="566.38" y="-365" font-family="Helvetica,sans-Serif" font-size="10.00">arax_accel_set_physical</text>
</a>
</g>
</g>
<!-- Node20&#45;&gt;Node21 -->
<g id="edge18_Node000020_Node000021" class="edge">
<title>Node20&#45;&gt;Node21</title>
<g id="a_edge18_Node000020_Node000021"><a xlink:title=" ">
<path fill="none" stroke="#63b8ff" d="M676.04,-344.39C654.57,-349.3 630.13,-354.9 609.87,-359.53"/>
<polygon fill="#63b8ff" stroke="#63b8ff" points="676.66,-347.61 685.63,-341.97 675.1,-340.79 676.66,-347.61"/>
</a>
</g>
</g>
<!-- Node22 -->
<g id="Node000022" class="node">
<title>Node22</title>
<g id="a_Node000022"><a xlink:href="a01928.html#a83ddb422946cf774c687c1ab63dcda15" target="_top" xlink:title=" ">
<polygon fill="white" stroke="#666666" points="445.88,-420.5 359.38,-420.5 359.38,-402 445.88,-402 445.88,-420.5"/>
<text text-anchor="middle" x="402.62" y="-407" font-family="Helvetica,sans-Serif" font-size="10.00">arax_vaccel_init</text>
</a>
</g>
</g>
<!-- Node20&#45;&gt;Node22 -->
<g id="edge19_Node000020_Node000022" class="edge">
<title>Node20&#45;&gt;Node22</title>
<g id="a_edge19_Node000020_Node000022"><a xlink:title=" ">
<path fill="none" stroke="#63b8ff" d="M660.23,-325.13C613.89,-323.35 552.73,-327.04 504.75,-351.25 483.1,-362.18 489.2,-379.22 468.75,-392.25 461.9,-396.62 454,-400.01 446.13,-402.63"/>
<polygon fill="#63b8ff" stroke="#63b8ff" points="659.92,-328.66 670.08,-325.65 660.26,-321.67 659.92,-328.66"/>
</a>
</g>
</g>
<!-- Node23 -->
<g id="Node000023" class="node">
<title>Node23</title>
<g id="a_Node000023"><a xlink:href="a02175.html#gaf8a10ab4e51e59c464ab3ab473e4a0f7" target="_top" xlink:title=" ">
<polygon fill="white" stroke="#666666" points="297.5,-383.5 171.25,-383.5 171.25,-365 297.5,-365 297.5,-383.5"/>
<text text-anchor="middle" x="234.38" y="-370" font-family="Helvetica,sans-Serif" font-size="10.00">arax_accel_acquire_phys</text>
</a>
</g>
</g>
<!-- Node22&#45;&gt;Node23 -->
<g id="edge20_Node000022_Node000023" class="edge">
<title>Node22&#45;&gt;Node23</title>
<g id="a_edge20_Node000022_Node000023"><a xlink:title=" ">
<path fill="none" stroke="#63b8ff" d="M348.55,-399.44C326.16,-394.46 300.41,-388.72 279.13,-383.99"/>
<polygon fill="#63b8ff" stroke="#63b8ff" points="347.72,-403.06 358.24,-401.82 349.24,-396.23 347.72,-403.06"/>
</a>
</g>
</g>
<!-- Node24 -->
<g id="Node000024" class="node">
<title>Node24</title>
<g id="a_Node000024"><a xlink:href="a02175.html#ga008252bb9afc2990fa2c5f4b980c9f27" target="_top" xlink:title=" ">
<polygon fill="white" stroke="#666666" points="296.75,-420.5 172,-420.5 172,-402 296.75,-402 296.75,-420.5"/>
<text text-anchor="middle" x="234.38" y="-407" font-family="Helvetica,sans-Serif" font-size="10.00">arax_accel_acquire_type</text>
</a>
</g>
</g>
<!-- Node22&#45;&gt;Node24 -->
<g id="edge21_Node000022_Node000024" class="edge">
<title>Node22&#45;&gt;Node24</title>
<g id="a_edge21_Node000022_Node000024"><a xlink:title=" ">
<path fill="none" stroke="#63b8ff" d="M348.28,-411.25C331.99,-411.25 313.94,-411.25 297.14,-411.25"/>
<polygon fill="#63b8ff" stroke="#63b8ff" points="348.24,-414.75 358.24,-411.25 348.24,-407.75 348.24,-414.75"/>
</a>
</g>
</g>
<!-- Node25 -->
<g id="Node000025" class="node">
<title>Node25</title>
<g id="a_Node000025"><a xlink:href="a01904.html#a0706a66a62ca8710342ac1c097b703ed" target="_top" xlink:title=" ">
<polygon fill="white" stroke="#666666" points="275.38,-457.5 193.38,-457.5 193.38,-439 275.38,-439 275.38,-457.5"/>
<text text-anchor="middle" x="234.38" y="-444" font-family="Helvetica,sans-Serif" font-size="10.00">arax_accel_init</text>
</a>
</g>
</g>
<!-- Node22&#45;&gt;Node25 -->
<g id="edge22_Node000022_Node000025" class="edge">
<title>Node22&#45;&gt;Node25</title>
<g id="a_edge22_Node000022_Node000025"><a xlink:title=" ">
<path fill="none" stroke="#63b8ff" d="M348.68,-423.03C325.03,-428.3 297.61,-434.4 275.68,-439.28"/>
<polygon fill="#63b8ff" stroke="#63b8ff" points="349.24,-426.27 358.24,-420.68 347.72,-419.44 349.24,-426.27"/>
</a>
</g>
</g>
<!-- Node27 -->
<g id="Node000027" class="node">
<title>Node27</title>
<g id="a_Node000027"><a xlink:href="a01928.html#a5920cc4cd90589f3c5ac8686a72bcfc0" target="_top" xlink:title=" ">
<polygon fill="white" stroke="#666666" points="796.25,-381.5 664,-381.5 664,-363 796.25,-363 796.25,-381.5"/>
<text text-anchor="middle" x="730.12" y="-368" font-family="Helvetica,sans-Serif" font-size="10.00">ARAX_OBJ_DTOR_DECL</text>
</a>
</g>
</g>
<!-- Node26&#45;&gt;Node27 -->
<g id="edge24_Node000026_Node000027" class="edge">
<title>Node26&#45;&gt;Node27</title>
<g id="a_edge24_Node000026_Node000027"><a xlink:title=" ">
<path fill="none" stroke="#63b8ff" d="M828.78,-373.43C818.19,-373.3 807.26,-373.17 796.72,-373.04"/>
<polygon fill="#63b8ff" stroke="#63b8ff" points="828.63,-376.94 838.67,-373.56 828.71,-369.94 828.63,-376.94"/>
</a>
</g>
</g>
<!-- Node31&#45;&gt;Node22 -->
<g id="edge29_Node000031_Node000022" class="edge">
<title>Node31&#45;&gt;Node22</title>
<g id="a_edge29_Node000031_Node000022"><a xlink:title=" ">
<path fill="none" stroke="#63b8ff" d="M498.01,-411.25C480.45,-411.25 462.01,-411.25 446.14,-411.25"/>
<polygon fill="#63b8ff" stroke="#63b8ff" points="497.8,-414.75 507.8,-411.25 497.8,-407.75 497.8,-414.75"/>
</a>
</g>
</g>
<!-- Node34&#45;&gt;Node20 -->
<g id="edge33_Node000034_Node000020" class="edge">
<title>Node34&#45;&gt;Node20</title>
<g id="a_edge33_Node000034_Node000020"><a xlink:title=" ">
<path fill="none" stroke="#63b8ff" d="M821.17,-332.25C810.53,-332.25 799.72,-332.25 789.47,-332.25"/>
<polygon fill="#63b8ff" stroke="#63b8ff" points="821.16,-335.75 831.16,-332.25 821.16,-328.75 821.16,-335.75"/>
</a>
</g>
</g>
<!-- Node34&#45;&gt;Node27 -->
<g id="edge34_Node000034_Node000027" class="edge">
<title>Node34&#45;&gt;Node27</title>
<g id="a_edge34_Node000034_Node000027"><a xlink:title=" ">
<path fill="none" stroke="#63b8ff" d="M824.37,-349.71C806.14,-354.12 787.21,-358.69 771.21,-362.56"/>
<polygon fill="#63b8ff" stroke="#63b8ff" points="825.1,-352.9 834,-347.14 823.46,-346.09 825.1,-352.9"/>
</a>
</g>
</g>
<!-- Node36 -->
<g id="Node000036" class="node">
<title>Node36</title>
<g id="a_Node000036"><a xlink:href="a01904.html#a503b6bc6d5be49fd8715f62c7174c28e" target="_top" xlink:title=" ">
<polygon fill="white" stroke="#666666" points="288.12,-614.5 180.62,-614.5 180.62,-596 288.12,-596 288.12,-614.5"/>
<text text-anchor="middle" x="234.38" y="-601" font-family="Helvetica,sans-Serif" font-size="10.00">arax_accel_size_dec</text>
</a>
</g>
</g>
<!-- Node35&#45;&gt;Node36 -->
<g id="edge36_Node000035_Node000036" class="edge">
<title>Node35&#45;&gt;Node36</title>
<g id="a_edge36_Node000035_Node000036"><a xlink:title=" ">
<path fill="none" stroke="#63b8ff" d="M878.68,-502.17C859.68,-519.16 828.08,-544.81 796.25,-559.25 624.08,-637.35 391.74,-623.67 288.56,-612.33"/>
<polygon fill="#63b8ff" stroke="#63b8ff" points="880.69,-505.16 885.72,-495.83 875.97,-500 880.69,-505.16"/>
</a>
</g>
</g>
<!-- Node37 -->
<g id="Node000037" class="node">
<title>Node37</title>
<g id="a_Node000037"><a xlink:href="a01913.html#a1cfa2c90268c6e53ce376beb7cce153c" target="_top" xlink:title=" ">
<polygon fill="white" stroke="#666666" points="781.25,-494.5 679,-494.5 679,-476 781.25,-476 781.25,-494.5"/>
<text text-anchor="middle" x="730.12" y="-481" font-family="Helvetica,sans-Serif" font-size="10.00">arax_pipe_size_dec</text>
</a>
</g>
</g>
<!-- Node35&#45;&gt;Node37 -->
<g id="edge38_Node000035_Node000037" class="edge">
<title>Node35&#45;&gt;Node37</title>
<g id="a_edge38_Node000035_Node000037"><a xlink:title=" ">
<path fill="none" stroke="#63b8ff" d="M829.25,-485.25C813.31,-485.25 796.58,-485.25 781.54,-485.25"/>
<polygon fill="#63b8ff" stroke="#63b8ff" points="829.13,-488.75 839.13,-485.25 829.13,-481.75 829.13,-488.75"/>
</a>
</g>
</g>
<!-- Node36&#45;&gt;Node14 -->
<g id="edge37_Node000036_Node000014" class="edge">
<title>Node36&#45;&gt;Node14</title>
<g id="a_edge37_Node000036_Node000014"><a xlink:title=" ">
<path fill="none" stroke="#63b8ff" d="M173.74,-593.41C154.71,-589.64 133.9,-585.5 115.76,-581.9"/>
<polygon fill="#63b8ff" stroke="#63b8ff" points="172.9,-597.01 183.39,-595.53 174.27,-590.15 172.9,-597.01"/>
</a>
</g>
</g>
<!-- Node38 -->
<g id="Node000038" class="node">
<title>Node38</title>
<g id="a_Node000038"><a xlink:href="a01910.html#a402bbd6fa197c2c48d527325e5e2cf5b" target="_top" xlink:title=" ">
<polygon fill="white" stroke="#666666" points="618.62,-494.5 514.12,-494.5 514.12,-476 618.62,-476 618.62,-494.5"/>
<text text-anchor="middle" x="566.38" y="-481" font-family="Helvetica,sans-Serif" font-size="10.00">arax_object_register</text>
</a>
</g>
</g>
<!-- Node37&#45;&gt;Node38 -->
<g id="edge39_Node000037_Node000038" class="edge">
<title>Node37&#45;&gt;Node38</title>
<g id="a_edge39_Node000037_Node000038"><a xlink:title=" ">
<path fill="none" stroke="#63b8ff" d="M667.89,-485.25C651.79,-485.25 634.58,-485.25 619.03,-485.25"/>
<polygon fill="#63b8ff" stroke="#63b8ff" points="667.83,-488.75 677.83,-485.25 667.83,-481.75 667.83,-488.75"/>
</a>
</g>
</g>
<!-- Node38&#45;&gt;Node22 -->
<g id="edge45_Node000038_Node000022" class="edge">
<title>Node38&#45;&gt;Node22</title>
<g id="a_edge45_Node000038_Node000022"><a xlink:title=" ">
<path fill="none" stroke="#63b8ff" d="M539.46,-470.24C520.29,-459.47 493.35,-445.02 468.75,-434.25 457.66,-429.39 445.18,-424.79 434.14,-420.99"/>
<polygon fill="#63b8ff" stroke="#63b8ff" points="537.56,-473.76 547.98,-475.65 541.01,-467.67 537.56,-473.76"/>
</a>
</g>
</g>
<!-- Node38&#45;&gt;Node25 -->
<g id="edge40_Node000038_Node000025" class="edge">
<title>Node38&#45;&gt;Node25</title>
<g id="a_edge40_Node000038_Node000025"><a xlink:title=" ">
<path fill="none" stroke="#63b8ff" d="M508.19,-473.59C495.26,-471.24 481.57,-468.96 468.75,-467.25 401.26,-458.24 322.18,-452.89 275.57,-450.26"/>
<polygon fill="#63b8ff" stroke="#63b8ff" points="507.37,-477.18 517.84,-475.58 508.65,-470.3 507.37,-477.18"/>
</a>
</g>
</g>
<!-- Node39 -->
<g id="Node000039" class="node">
<title>Node39</title>
<g id="a_Node000039"><a xlink:href="a01931.html#a526989df37e605824d846b7ba54b43ea" target="_top" xlink:title=" ">
<polygon fill="#fff0f0" stroke="red" points="459.38,-568.5 345.88,-568.5 345.88,-550 459.38,-550 459.38,-568.5"/>
<text text-anchor="middle" x="402.62" y="-555" font-family="Helvetica,sans-Serif" font-size="10.00">arax_data_init_aligned</text>
</a>
</g>
</g>
<!-- Node38&#45;&gt;Node39 -->
<g id="edge41_Node000038_Node000039" class="edge">
<title>Node38&#45;&gt;Node39</title>
<g id="a_edge41_Node000038_Node000039"><a xlink:title=" ">
<path fill="none" stroke="#63b8ff" d="M541.74,-500.78C522.66,-512.81 494.78,-529.22 468.75,-540.25 460.4,-543.79 451.18,-546.92 442.37,-549.56"/>
<polygon fill="#63b8ff" stroke="#63b8ff" points="543.33,-503.28 549.87,-494.95 539.56,-497.39 543.33,-503.28"/>
</a>
</g>
</g>
<!-- Node42 -->
<g id="Node000042" class="node">
<title>Node42</title>
<g id="a_Node000042"><a xlink:href="a01916.html#a86ac572ea8f5f613129192c47d598818" target="_top" xlink:title=" ">
<polygon fill="#fff0f0" stroke="red" points="441.38,-531.5 363.88,-531.5 363.88,-513 441.38,-513 441.38,-531.5"/>
<text text-anchor="middle" x="402.62" y="-518" font-family="Helvetica,sans-Serif" font-size="10.00">arax_proc_init</text>
</a>
</g>
</g>
<!-- Node38&#45;&gt;Node42 -->
<g id="edge42_Node000038_Node000042" class="edge">
<title>Node38&#45;&gt;Node42</title>
<g id="a_edge42_Node000038_Node000042"><a xlink:title=" ">
<path fill="none" stroke="#63b8ff" d="M512.22,-497.41C489.18,-502.68 462.73,-508.73 441.7,-513.54"/>
<polygon fill="#63b8ff" stroke="#63b8ff" points="512.91,-500.61 521.88,-494.97 511.35,-493.79 512.91,-500.61"/>
</a>
</g>
</g>
<!-- Node44 -->
<g id="Node000044" class="node">
<title>Node44</title>
<g id="a_Node000044"><a xlink:href="a01922.html#a27bee94f7a23281c8b2b72ec433f6059" target="_top" xlink:title=" ">
<polygon fill="white" stroke="#666666" points="445.12,-494.5 360.12,-494.5 360.12,-476 445.12,-476 445.12,-494.5"/>
<text text-anchor="middle" x="402.62" y="-481" font-family="Helvetica,sans-Serif" font-size="10.00">arax_task_alloc</text>
</a>
</g>
</g>
<!-- Node38&#45;&gt;Node44 -->
<g id="edge43_Node000038_Node000044" class="edge">
<title>Node38&#45;&gt;Node44</title>
<g id="a_edge43_Node000038_Node000044"><a xlink:title=" ">
<path fill="none" stroke="#63b8ff" d="M502.95,-485.25C483.75,-485.25 463.07,-485.25 445.58,-485.25"/>
<polygon fill="#63b8ff" stroke="#63b8ff" points="502.75,-488.75 512.75,-485.25 502.75,-481.75 502.75,-488.75"/>
</a>
</g>
</g>
<!-- Node44&#45;&gt;Node13 -->
<g id="edge44_Node000044_Node000013" class="edge">
<title>Node44&#45;&gt;Node13</title>
<g id="a_edge44_Node000044_Node000013"><a xlink:title=" ">
<path fill="none" stroke="#63b8ff" d="M356.59,-498.02C349.84,-500.04 342.97,-502.16 336.5,-504.25 310.79,-512.57 281.76,-523.01 261.42,-530.51"/>
<polygon fill="#63b8ff" stroke="#63b8ff" points="357.44,-501.12 366.04,-494.94 355.45,-494.41 357.44,-501.12"/>
</a>
</g>
</g>
<!-- Node46 -->
<g id="Node000046" class="node">
<title>Node46</title>
<g id="a_Node000046"><a xlink:href="a01904.html#a9443355ad3d09b08427e538d75cab254" target="_top" xlink:title=" ">
<polygon fill="white" stroke="#666666" points="782.38,-290.5 677.88,-290.5 677.88,-272 782.38,-272 782.38,-290.5"/>
<text text-anchor="middle" x="730.12" y="-277" font-family="Helvetica,sans-Serif" font-size="10.00">arax_accel_size_inc</text>
</a>
</g>
</g>
<!-- Node45&#45;&gt;Node46 -->
<g id="edge47_Node000045_Node000046" class="edge">
<title>Node45&#45;&gt;Node46</title>
<g id="a_edge47_Node000045_Node000046"><a xlink:title=" ">
<path fill="none" stroke="#63b8ff" d="M831.09,-263.73C814.99,-266.56 797.97,-269.54 782.64,-272.22"/>
<polygon fill="#63b8ff" stroke="#63b8ff" points="831.27,-267.08 840.52,-261.91 830.06,-260.19 831.27,-267.08"/>
</a>
</g>
</g>
<!-- Node47 -->
<g id="Node000047" class="node">
<title>Node47</title>
<g id="a_Node000047"><a xlink:href="a01913.html#a5144f906658718ef853a8d18dda1e724" target="_top" xlink:title=" ">
<polygon fill="white" stroke="#666666" points="779.75,-253.5 680.5,-253.5 680.5,-235 779.75,-235 779.75,-253.5"/>
<text text-anchor="middle" x="730.12" y="-240" font-family="Helvetica,sans-Serif" font-size="10.00">arax_pipe_size_inc</text>
</a>
</g>
</g>
<!-- Node45&#45;&gt;Node47 -->
<g id="edge48_Node000045_Node000047" class="edge">
<title>Node45&#45;&gt;Node47</title>
<g id="a_edge48_Node000045_Node000047"><a xlink:title=" ">
<path fill="none" stroke="#63b8ff" d="M830.62,-249.06C813.78,-248.25 795.97,-247.38 780.15,-246.62"/>
<polygon fill="#63b8ff" stroke="#63b8ff" points="830.36,-252.6 840.52,-249.59 830.7,-245.61 830.36,-252.6"/>
</a>
</g>
</g>
<!-- Node48 -->
<g id="Node000048" class="node">
<title>Node48</title>
<g id="a_Node000048"><a xlink:href="a01910.html#afe7e4a63c40fbcaae742b8de8693483f" target="_top" xlink:title=" ">
<polygon fill="#fff0f0" stroke="red" points="618.62,-246.5 514.12,-246.5 514.12,-228 618.62,-228 618.62,-246.5"/>
<text text-anchor="middle" x="566.38" y="-233" font-family="Helvetica,sans-Serif" font-size="10.00">arax_object_ref_dec</text>
</a>
</g>
</g>
<!-- Node47&#45;&gt;Node48 -->
<g id="edge49_Node000047_Node000048" class="edge">
<title>Node47&#45;&gt;Node48</title>
<g id="a_edge49_Node000047_Node000048"><a xlink:title=" ">
<path fill="none" stroke="#63b8ff" d="M669.48,-241.67C652.91,-240.95 635.06,-240.18 618.98,-239.48"/>
<polygon fill="#63b8ff" stroke="#63b8ff" points="669.01,-245.2 679.16,-242.13 669.32,-238.2 669.01,-245.2"/>
</a>
</g>
</g>
<!-- Node60 -->
<g id="Node000060" class="node">
<title>Node60</title>
<g id="a_Node000060"><a xlink:href="a01910.html#a0a0b147b7fc892c291afe60cb0fa2c1c" target="_top" xlink:title=" ">
<polygon fill="#fff0f0" stroke="red" points="618.62,-293.75 514.12,-293.75 514.12,-264.75 618.62,-264.75 618.62,-293.75"/>
<text text-anchor="start" x="522.12" y="-280.25" font-family="Helvetica,sans-Serif" font-size="10.00">arax_object_ref_dec</text>
<text text-anchor="middle" x="566.38" y="-269.75" font-family="Helvetica,sans-Serif" font-size="10.00">_pre_locked</text>
</a>
</g>
</g>
<!-- Node47&#45;&gt;Node60 -->
<g id="edge59_Node000047_Node000060" class="edge">
<title>Node47&#45;&gt;Node60</title>
<g id="a_edge59_Node000047_Node000060"><a xlink:title=" ">
<path fill="none" stroke="#63b8ff" d="M673.36,-256.32C655.74,-260.13 636.36,-264.32 619.04,-268.07"/>
<polygon fill="#63b8ff" stroke="#63b8ff" points="674.04,-259.54 683.07,-254 672.55,-252.69 674.04,-259.54"/>
</a>
</g>
</g>
<!-- Node48&#45;&gt;Node18 -->
<g id="edge55_Node000048_Node000018" class="edge">
<title>Node48&#45;&gt;Node18</title>
<g id="a_edge55_Node000048_Node000018"><a xlink:title=" ">
<path fill="none" stroke="#63b8ff" d="M503.02,-231.68C456.32,-229.36 391.31,-230.08 336.5,-245.25 228.08,-275.27 115.83,-356.66 79.35,-384.65"/>
<polygon fill="#63b8ff" stroke="#63b8ff" points="502.71,-235.23 512.89,-232.3 503.1,-228.24 502.71,-235.23"/>
</a>
</g>
</g>
<!-- Node49 -->
<g id="Node000049" class="node">
<title>Node49</title>
<g id="a_Node000049"><a xlink:href="a02175.html#ga41bcefd54b929d1a638d174da051130f" target="_top" xlink:title=" ">
<polygon fill="white" stroke="#666666" points="454.5,-198.5 350.75,-198.5 350.75,-180 454.5,-180 454.5,-198.5"/>
<text text-anchor="middle" x="402.62" y="-185" font-family="Helvetica,sans-Serif" font-size="10.00">arax_accel_list_free</text>
</a>
</g>
</g>
<!-- Node48&#45;&gt;Node49 -->
<g id="edge50_Node000048_Node000049" class="edge">
<title>Node48&#45;&gt;Node49</title>
<g id="a_edge50_Node000048_Node000049"><a xlink:title=" ">
<path fill="none" stroke="#63b8ff" d="M522.31,-224.47C495.32,-216.46 461.07,-206.3 436.31,-198.95"/>
<polygon fill="#63b8ff" stroke="#63b8ff" points="521.06,-228.05 531.64,-227.54 523.05,-221.34 521.06,-228.05"/>
</a>
</g>
</g>
<!-- Node50 -->
<g id="Node000050" class="node">
<title>Node50</title>
<g id="a_Node000050"><a xlink:href="a02175.html#ga497b17905d4c7ee2f5ee831d367ece92" target="_top" xlink:title=" ">
<polygon fill="white" stroke="#666666" points="453,-161.5 352.25,-161.5 352.25,-143 453,-143 453,-161.5"/>
<text text-anchor="middle" x="402.62" y="-148" font-family="Helvetica,sans-Serif" font-size="10.00">arax_accel_release</text>
</a>
</g>
</g>
<!-- Node48&#45;&gt;Node50 -->
<g id="edge51_Node000048_Node000050" class="edge">
<title>Node48&#45;&gt;Node50</title>
<g id="a_edge51_Node000048_Node000050"><a xlink:title=" ">
<path fill="none" stroke="#63b8ff" d="M545.36,-220.77C526.57,-206.02 497.19,-184.69 468.75,-171.25 461.08,-167.63 452.58,-164.54 444.31,-161.97"/>
<polygon fill="#63b8ff" stroke="#63b8ff" points="542.92,-224.11 552.91,-227.62 547.29,-218.64 542.92,-224.11"/>
</a>
</g>
</g>
<!-- Node51 -->
<g id="Node000051" class="node">
<title>Node51</title>
<g id="a_Node000051"><a xlink:href="a01931.html#a96e0520e5569748ce1172bafca24fafe" target="_top" xlink:title=" ">
<polygon fill="white" stroke="#666666" points="443.25,-124.5 362,-124.5 362,-106 443.25,-106 443.25,-124.5"/>
<text text-anchor="middle" x="402.62" y="-111" font-family="Helvetica,sans-Serif" font-size="10.00">arax_data_free</text>
</a>
</g>
</g>
<!-- Node48&#45;&gt;Node51 -->
<g id="edge53_Node000048_Node000051" class="edge">
<title>Node48&#45;&gt;Node51</title>
<g id="a_edge53_Node000048_Node000051"><a xlink:title=" ">
<path fill="none" stroke="#63b8ff" d="M552.96,-218.89C536.41,-195.79 504.95,-156.47 468.75,-134.25 461.12,-129.57 452.28,-125.99 443.62,-123.27"/>
<polygon fill="#63b8ff" stroke="#63b8ff" points="550.52,-220.5 559.11,-226.7 556.26,-216.49 550.52,-220.5"/>
</a>
</g>
</g>
<!-- Node52 -->
<g id="Node000052" class="node">
<title>Node52</title>
<g id="a_Node000052"><a xlink:href="a01931.html#a4b65f90a821aca384f0ca1cff7bd1846" target="_top" xlink:title=" ">
<polygon fill="#fff0f0" stroke="red" points="465.38,-383.5 339.88,-383.5 339.88,-365 465.38,-365 465.38,-383.5"/>
<text text-anchor="middle" x="402.62" y="-370" font-family="Helvetica,sans-Serif" font-size="10.00">arax_data_migrate_accel</text>
</a>
</g>
</g>
<!-- Node48&#45;&gt;Node52 -->
<g id="edge54_Node000048_Node000052" class="edge">
<title>Node48&#45;&gt;Node52</title>
<g id="a_edge54_Node000048_Node000052"><a xlink:title=" ">
<path fill="none" stroke="#63b8ff" d="M509.11,-252.58C507.58,-253.72 506.12,-254.94 504.75,-256.25 470.91,-288.6 502.91,-323.24 468.75,-355.25 464.71,-359.04 459.96,-362.07 454.89,-364.5"/>
<polygon fill="#63b8ff" stroke="#63b8ff" points="510.74,-255.09 517.53,-246.96 507.15,-249.08 510.74,-255.09"/>
</a>
</g>
</g>
<!-- Node56 -->
<g id="Node000056" class="node">
<title>Node56</title>
<g id="a_Node000056"><a xlink:href="a01922.html#a5eb16d4196838d10a2b57715f2eddee7" target="_top" xlink:title=" ">
<polygon fill="white" stroke="#666666" points="468.75,-346.5 336.5,-346.5 336.5,-328 468.75,-328 468.75,-346.5"/>
<text text-anchor="middle" x="402.62" y="-333" font-family="Helvetica,sans-Serif" font-size="10.00">ARAX_OBJ_DTOR_DECL</text>
</a>
</g>
</g>
<!-- Node48&#45;&gt;Node56 -->
<g id="edge56_Node000048_Node000056" class="edge">
<title>Node48&#45;&gt;Node56</title>
<g id="a_edge56_Node000048_Node000056"><a xlink:title=" ">
<path fill="none" stroke="#63b8ff" d="M511.36,-251.7C509.04,-253.08 506.82,-254.59 504.75,-256.25 479.86,-276.14 493.84,-298.61 468.75,-318.25 463.84,-322.1 458.16,-325.17 452.26,-327.62"/>
<polygon fill="#63b8ff" stroke="#63b8ff" points="512.35,-254.62 519.71,-246.99 509.2,-248.36 512.35,-254.62"/>
</a>
</g>
</g>
<!-- Node57 -->
<g id="Node000057" class="node">
<title>Node57</title>
<g id="a_Node000057"><a xlink:href="a01913.html#aa0862a60d187bfed0cfa11bf27174551" target="_top" xlink:title=" ">
<polygon fill="white" stroke="#666666" points="462,-309.5 343.25,-309.5 343.25,-291 462,-291 462,-309.5"/>
<text text-anchor="middle" x="402.62" y="-296" font-family="Helvetica,sans-Serif" font-size="10.00">arax_pipe_delete_accel</text>
</a>
</g>
</g>
<!-- Node48&#45;&gt;Node57 -->
<g id="edge57_Node000048_Node000057" class="edge">
<title>Node48&#45;&gt;Node57</title>
<g id="a_edge57_Node000048_Node000057"><a xlink:title=" ">
<path fill="none" stroke="#63b8ff" d="M518.08,-250.52C513.5,-252.26 508.99,-254.17 504.75,-256.25 487.26,-264.82 486.33,-272.86 468.75,-281.25 461.1,-284.9 452.6,-288 444.33,-290.58"/>
<polygon fill="#63b8ff" stroke="#63b8ff" points="518.87,-253.6 527.13,-246.96 516.54,-247 518.87,-253.6"/>
</a>
</g>
</g>
<!-- Node58 -->
<g id="Node000058" class="node">
<title>Node58</title>
<g id="a_Node000058"><a xlink:href="a02176.html#ga70242aa6d9591e5fa3dbb36f1e27a896" target="_top" xlink:title=" ">
<polygon fill="#fff0f0" stroke="red" points="441.75,-272.5 363.5,-272.5 363.5,-254 441.75,-254 441.75,-272.5"/>
<text text-anchor="middle" x="402.62" y="-259" font-family="Helvetica,sans-Serif" font-size="10.00">arax_proc_put</text>
</a>
</g>
</g>
<!-- Node48&#45;&gt;Node58 -->
<g id="edge58_Node000048_Node000058" class="edge">
<title>Node48&#45;&gt;Node58</title>
<g id="a_edge58_Node000048_Node000058"><a xlink:title=" ">
<path fill="none" stroke="#63b8ff" d="M502.92,-247.29C482.47,-250.58 460.36,-254.13 442.21,-257.05"/>
<polygon fill="#63b8ff" stroke="#63b8ff" points="503.43,-250.59 512.75,-245.55 502.32,-243.68 503.43,-250.59"/>
</a>
</g>
</g>
<!-- Node50&#45;&gt;Node30 -->
<g id="edge52_Node000050_Node000030" class="edge">
<title>Node50&#45;&gt;Node30</title>
<g id="a_edge52_Node000050_Node000030"><a xlink:title=" ">
<path fill="none" stroke="#63b8ff" d="M347.36,-140.17C325.22,-135.25 299.97,-129.63 279.05,-124.97"/>
<polygon fill="#63b8ff" stroke="#63b8ff" points="346.42,-143.77 356.94,-142.53 347.94,-136.94 346.42,-143.77"/>
</a>
</g>
</g>
</g>
</svg>
