<?xml version="1.0" encoding="UTF-8" standalone="no"?>
<!DOCTYPE svg PUBLIC "-//W3C//DTD SVG 1.1//EN"
 "http://www.w3.org/Graphics/SVG/1.1/DTD/svg11.dtd">
<!-- Generated by graphviz version 12.2.1 (0)
 -->
<!-- Title: arax_proc.h Pages: 1 -->
<svg width="745pt" height="190pt"
 viewBox="0.00 0.00 745.12 190.00" xmlns="http://www.w3.org/2000/svg" xmlns:xlink="http://www.w3.org/1999/xlink">
<g id="graph0" class="graph" transform="scale(1 1) rotate(0) translate(4 186)">
<title>arax_proc.h</title>
<!-- Node1 -->
<g id="Node000001" class="node">
<title>Node1</title>
<g id="a_Node000001"><a xlink:title=" ">
<polygon fill="#999999" stroke="#666666" points="637.75,-182 570,-182 570,-163.5 637.75,-163.5 637.75,-182"/>
<text text-anchor="middle" x="603.88" y="-168.5" font-family="Helvetica,sans-Serif" font-size="10.00">arax_proc.h</text>
</a>
</g>
</g>
<!-- Node2 -->
<g id="Node000002" class="node">
<title>Node2</title>
<g id="a_Node000002"><a xlink:href="a01925.html" target="_top" xlink:title=" ">
<polygon fill="white" stroke="#666666" points="737.12,-18.5 662.62,-18.5 662.62,0 737.12,0 737.12,-18.5"/>
<text text-anchor="middle" x="699.88" y="-5" font-family="Helvetica,sans-Serif" font-size="10.00">arax_object.c</text>
</a>
</g>
</g>
<!-- Node1&#45;&gt;Node2 -->
<g id="edge1_Node000001_Node000002" class="edge">
<title>Node1&#45;&gt;Node2</title>
<g id="a_edge1_Node000001_Node000002"><a xlink:title=" ">
<path fill="none" stroke="#63b8ff" d="M622.42,-155.44C630.63,-147.57 639.97,-137.64 646.88,-127.5 672.27,-90.2 690.59,-38.76 697.19,-18.72"/>
<polygon fill="#63b8ff" stroke="#63b8ff" points="620.22,-152.71 615.24,-162.07 624.96,-157.86 620.22,-152.71"/>
</a>
</g>
</g>
<!-- Node3 -->
<g id="Node000003" class="node">
<title>Node3</title>
<g id="a_Node000003"><a xlink:href="a01931.html" target="_top" xlink:title=" ">
<polygon fill="white" stroke="#666666" points="637.75,-127.5 570,-127.5 570,-109 637.75,-109 637.75,-127.5"/>
<text text-anchor="middle" x="603.88" y="-114" font-family="Helvetica,sans-Serif" font-size="10.00">arax_proc.c</text>
</a>
</g>
</g>
<!-- Node1&#45;&gt;Node3 -->
<g id="edge2_Node000001_Node000003" class="edge">
<title>Node1&#45;&gt;Node3</title>
<g id="a_edge2_Node000001_Node000003"><a xlink:title=" ">
<path fill="none" stroke="#63b8ff" d="M603.88,-151.64C603.88,-143.36 603.88,-134.21 603.88,-127.76"/>
<polygon fill="#63b8ff" stroke="#63b8ff" points="600.38,-151.57 603.88,-161.57 607.38,-151.57 600.38,-151.57"/>
</a>
</g>
</g>
<!-- Node4 -->
<g id="Node000004" class="node">
<title>Node4</title>
<g id="a_Node000004"><a xlink:href="a01424.html" target="_top" xlink:title=" ">
<polygon fill="white" stroke="#666666" points="507.75,-127.5 440,-127.5 440,-109 507.75,-109 507.75,-127.5"/>
<text text-anchor="middle" x="473.88" y="-114" font-family="Helvetica,sans-Serif" font-size="10.00">arax_task.h</text>
</a>
</g>
</g>
<!-- Node1&#45;&gt;Node4 -->
<g id="edge3_Node000001_Node000004" class="edge">
<title>Node1&#45;&gt;Node4</title>
<g id="a_edge3_Node000001_Node000004"><a xlink:title=" ">
<path fill="none" stroke="#63b8ff" d="M571.78,-158.79C547.97,-149.17 516.18,-136.33 495.37,-127.93"/>
<polygon fill="#63b8ff" stroke="#63b8ff" points="570.42,-162.01 581,-162.51 573.04,-155.52 570.42,-162.01"/>
</a>
</g>
</g>
<!-- Node4&#45;&gt;Node2 -->
<g id="edge5_Node000004_Node000002" class="edge">
<title>Node4&#45;&gt;Node2</title>
<g id="a_edge5_Node000004_Node000002"><a xlink:title=" ">
<path fill="none" stroke="#63b8ff" d="M502.1,-103.89C549.15,-81.61 642.34,-37.49 681.68,-18.87"/>
<polygon fill="#63b8ff" stroke="#63b8ff" points="500.9,-100.58 493.36,-108.03 503.89,-106.91 500.9,-100.58"/>
</a>
</g>
</g>
<!-- Node5 -->
<g id="Node000005" class="node">
<title>Node5</title>
<g id="a_Node000005"><a xlink:href="a01922.html" target="_top" xlink:title=" ">
<polygon fill="white" stroke="#666666" points="67.75,-18.5 0,-18.5 0,0 67.75,0 67.75,-18.5"/>
<text text-anchor="middle" x="33.88" y="-5" font-family="Helvetica,sans-Serif" font-size="10.00">arax_data.c</text>
</a>
</g>
</g>
<!-- Node4&#45;&gt;Node5 -->
<g id="edge4_Node000004_Node000005" class="edge">
<title>Node4&#45;&gt;Node5</title>
<g id="a_edge4_Node000004_Node000005"><a xlink:title=" ">
<path fill="none" stroke="#63b8ff" d="M428.73,-106.27C340.43,-84.8 146.62,-37.67 68.01,-18.55"/>
<polygon fill="#63b8ff" stroke="#63b8ff" points="427.7,-109.62 438.24,-108.59 429.35,-102.82 427.7,-109.62"/>
</a>
</g>
</g>
<!-- Node6 -->
<g id="Node000006" class="node">
<title>Node6</title>
<g id="a_Node000006"><a xlink:href="a01358.html" target="_top" xlink:title=" ">
<polygon fill="white" stroke="#666666" points="418.38,-73 351.38,-73 351.38,-54.5 418.38,-54.5 418.38,-73"/>
<text text-anchor="middle" x="384.88" y="-59.5" font-family="Helvetica,sans-Serif" font-size="10.00">arax_pipe.h</text>
</a>
</g>
</g>
<!-- Node4&#45;&gt;Node6 -->
<g id="edge6_Node000004_Node000006" class="edge">
<title>Node4&#45;&gt;Node6</title>
<g id="a_edge6_Node000004_Node000006"><a xlink:title=" ">
<path fill="none" stroke="#63b8ff" d="M449.43,-102.83C433.46,-93.41 413.13,-81.42 399.59,-73.43"/>
<polygon fill="#63b8ff" stroke="#63b8ff" points="447.48,-105.75 457.87,-107.81 451.04,-99.72 447.48,-105.75"/>
</a>
</g>
</g>
<!-- Node6&#45;&gt;Node2 -->
<g id="edge9_Node000006_Node000002" class="edge">
<title>Node6&#45;&gt;Node2</title>
<g id="a_edge9_Node000006_Node000002"><a xlink:title=" ">
<path fill="none" stroke="#63b8ff" d="M430,-55.53C483.47,-46.93 575.22,-32.02 653.88,-18.5 656.59,-18.03 659.4,-17.54 662.23,-17.05"/>
<polygon fill="#63b8ff" stroke="#63b8ff" points="429.69,-52.04 420.37,-57.08 430.8,-58.95 429.69,-52.04"/>
</a>
</g>
</g>
<!-- Node6&#45;&gt;Node5 -->
<g id="edge8_Node000006_Node000005" class="edge">
<title>Node6&#45;&gt;Node5</title>
<g id="a_edge8_Node000006_Node000005"><a xlink:title=" ">
<path fill="none" stroke="#63b8ff" d="M339.72,-56.94C279.61,-49.04 170.03,-34.12 76.88,-18.5 74.03,-18.02 71.08,-17.5 68.12,-16.97"/>
<polygon fill="#63b8ff" stroke="#63b8ff" points="339.2,-60.4 349.57,-58.22 340.11,-53.46 339.2,-60.4"/>
</a>
</g>
</g>
<!-- Node7 -->
<g id="Node000007" class="node">
<title>Node7</title>
<g id="a_Node000007"><a xlink:href="a01916.html" target="_top" xlink:title=" ">
<polygon fill="white" stroke="#666666" points="158,-18.5 85.75,-18.5 85.75,0 158,0 158,-18.5"/>
<text text-anchor="middle" x="121.88" y="-5" font-family="Helvetica,sans-Serif" font-size="10.00">arax_accel.c</text>
</a>
</g>
</g>
<!-- Node6&#45;&gt;Node7 -->
<g id="edge7_Node000006_Node000007" class="edge">
<title>Node6&#45;&gt;Node7</title>
<g id="a_edge7_Node000006_Node000007"><a xlink:title=" ">
<path fill="none" stroke="#63b8ff" d="M339.95,-53.78C288.6,-43.53 205.53,-26.95 158.12,-17.48"/>
<polygon fill="#63b8ff" stroke="#63b8ff" points="339.05,-57.17 349.55,-55.7 340.43,-50.31 339.05,-57.17"/>
</a>
</g>
</g>
<!-- Node8 -->
<g id="Node000008" class="node">
<title>Node8</title>
<g id="a_Node000008"><a xlink:href="a01928.html" target="_top" xlink:title=" ">
<polygon fill="white" stroke="#666666" points="243.38,-18.5 176.38,-18.5 176.38,0 243.38,0 243.38,-18.5"/>
<text text-anchor="middle" x="209.88" y="-5" font-family="Helvetica,sans-Serif" font-size="10.00">arax_pipe.c</text>
</a>
</g>
</g>
<!-- Node6&#45;&gt;Node8 -->
<g id="edge10_Node000006_Node000008" class="edge">
<title>Node6&#45;&gt;Node8</title>
<g id="a_edge10_Node000006_Node000008"><a xlink:title=" ">
<path fill="none" stroke="#63b8ff" d="M345.1,-50.82C312.74,-41.11 267.84,-27.64 238.82,-18.93"/>
<polygon fill="#63b8ff" stroke="#63b8ff" points="343.94,-54.12 354.53,-53.65 345.96,-47.42 343.94,-54.12"/>
</a>
</g>
</g>
<!-- Node9 -->
<g id="Node000009" class="node">
<title>Node9</title>
<g id="a_Node000009"><a xlink:href="a01946.html" target="_top" xlink:title=" ">
<polygon fill="white" stroke="#666666" points="325.88,-18.5 261.88,-18.5 261.88,0 325.88,0 325.88,-18.5"/>
<text text-anchor="middle" x="293.88" y="-5" font-family="Helvetica,sans-Serif" font-size="10.00">arax_plot.c</text>
</a>
</g>
</g>
<!-- Node6&#45;&gt;Node9 -->
<g id="edge11_Node000006_Node000009" class="edge">
<title>Node6&#45;&gt;Node9</title>
<g id="a_edge11_Node000006_Node000009"><a xlink:title=" ">
<path fill="none" stroke="#63b8ff" d="M359.88,-48.33C343.55,-38.91 322.76,-26.92 308.92,-18.93"/>
<polygon fill="#63b8ff" stroke="#63b8ff" points="358.13,-51.36 368.54,-53.32 361.62,-45.3 358.13,-51.36"/>
</a>
</g>
</g>
<!-- Node10 -->
<g id="Node000010" class="node">
<title>Node10</title>
<g id="a_Node000010"><a xlink:href="a01934.html" target="_top" xlink:title=" ">
<polygon fill="white" stroke="#666666" points="404,-18.5 343.75,-18.5 343.75,0 404,0 404,-18.5"/>
<text text-anchor="middle" x="373.88" y="-5" font-family="Helvetica,sans-Serif" font-size="10.00">arax_ptr.c</text>
</a>
</g>
</g>
<!-- Node6&#45;&gt;Node10 -->
<g id="edge12_Node000006_Node000010" class="edge">
<title>Node6&#45;&gt;Node10</title>
<g id="a_edge12_Node000006_Node000010"><a xlink:title=" ">
<path fill="none" stroke="#63b8ff" d="M380.72,-42.93C378.97,-34.57 377.03,-25.29 375.66,-18.76"/>
<polygon fill="#63b8ff" stroke="#63b8ff" points="377.27,-43.53 382.75,-52.6 384.12,-42.09 377.27,-43.53"/>
</a>
</g>
</g>
<!-- Node11 -->
<g id="Node000011" class="node">
<title>Node11</title>
<g id="a_Node000011"><a xlink:href="a01937.html" target="_top" xlink:title=" ">
<polygon fill="white" stroke="#666666" points="489.75,-18.5 422,-18.5 422,0 489.75,0 489.75,-18.5"/>
<text text-anchor="middle" x="455.88" y="-5" font-family="Helvetica,sans-Serif" font-size="10.00">arax_task.c</text>
</a>
</g>
</g>
<!-- Node6&#45;&gt;Node11 -->
<g id="edge13_Node000006_Node000011" class="edge">
<title>Node6&#45;&gt;Node11</title>
<g id="a_edge13_Node000006_Node000011"><a xlink:title=" ">
<path fill="none" stroke="#63b8ff" d="M405.54,-47.47C418.18,-38.12 433.9,-26.5 444.37,-18.76"/>
<polygon fill="#63b8ff" stroke="#63b8ff" points="403.78,-44.42 397.82,-53.18 407.94,-50.05 403.78,-44.42"/>
</a>
</g>
</g>
<!-- Node12 -->
<g id="Node000012" class="node">
<title>Node12</title>
<g id="a_Node000012"><a xlink:href="a01943.html" target="_top" xlink:title=" ">
<polygon fill="white" stroke="#666666" points="584.25,-18.5 507.5,-18.5 507.5,0 584.25,0 584.25,-18.5"/>
<text text-anchor="middle" x="545.88" y="-5" font-family="Helvetica,sans-Serif" font-size="10.00">arax_vaccel.c</text>
</a>
</g>
</g>
<!-- Node6&#45;&gt;Node12 -->
<g id="edge14_Node000006_Node000012" class="edge">
<title>Node6&#45;&gt;Node12</title>
<g id="a_edge14_Node000006_Node000012"><a xlink:title=" ">
<path fill="none" stroke="#63b8ff" d="M422.25,-50.56C451.96,-40.88 492.78,-27.56 519.25,-18.93"/>
<polygon fill="#63b8ff" stroke="#63b8ff" points="421.32,-47.18 412.9,-53.61 423.49,-53.84 421.32,-47.18"/>
</a>
</g>
</g>
<!-- Node13 -->
<g id="Node000013" class="node">
<title>Node13</title>
<g id="a_Node000013"><a xlink:href="a01910.html" target="_top" xlink:title=" ">
<polygon fill="white" stroke="#666666" points="645,-18.5 602.75,-18.5 602.75,0 645,0 645,-18.5"/>
<text text-anchor="middle" x="623.88" y="-5" font-family="Helvetica,sans-Serif" font-size="10.00">impl.c</text>
</a>
</g>
</g>
<!-- Node6&#45;&gt;Node13 -->
<g id="edge15_Node000006_Node000013" class="edge">
<title>Node6&#45;&gt;Node13</title>
<g id="a_edge15_Node000006_Node000013"><a xlink:title=" ">
<path fill="none" stroke="#63b8ff" d="M429.88,-53.86C472.11,-45.35 536.96,-31.88 592.88,-18.5 596.02,-17.75 599.33,-16.91 602.57,-16.07"/>
<polygon fill="#63b8ff" stroke="#63b8ff" points="429.46,-50.37 420.34,-55.77 430.84,-57.24 429.46,-50.37"/>
</a>
</g>
</g>
</g>
</svg>
