<?xml version="1.0" encoding="UTF-8" standalone="no"?>
<!DOCTYPE svg PUBLIC "-//W3C//DTD SVG 1.1//EN"
 "http://www.w3.org/Graphics/SVG/1.1/DTD/svg11.dtd">
<!-- Generated by graphviz version 8.0.5 (0)
 -->
<!-- Title: async_api.h Pages: 1 -->
<svg width="194pt" height="136pt"
 viewBox="0.00 0.00 193.75 135.50" xmlns="http://www.w3.org/2000/svg" xmlns:xlink="http://www.w3.org/1999/xlink">
<g id="graph0" class="graph" transform="scale(1 1) rotate(0) translate(4 131.5)">
<title>async_api.h</title>
<!-- Node1 -->
<g id="Node000001" class="node">
<title>Node1</title>
<g id="a_Node000001"><a xlink:title=" ">
<polygon fill="#999999" stroke="#666666" points="126.75,-127.5 59,-127.5 59,-109 126.75,-109 126.75,-127.5"/>
<text text-anchor="middle" x="92.88" y="-114" font-family="Helvetica,sans-Serif" font-size="10.00">async_api.h</text>
</a>
</g>
</g>
<!-- Node2 -->
<g id="Node000002" class="node">
<title>Node2</title>
<g id="a_Node000002"><a xlink:href="a02355.html" target="_top" xlink:title=" ">
<polygon fill="white" stroke="#666666" points="49.75,-73 0,-73 0,-54.5 49.75,-54.5 49.75,-73"/>
<text text-anchor="middle" x="24.88" y="-59.5" font-family="Helvetica,sans-Serif" font-size="10.00">async.h</text>
</a>
</g>
</g>
<!-- Node1&#45;&gt;Node2 -->
<g id="edge1_Node000001_Node000002" class="edge">
<title>Node1&#45;&gt;Node2</title>
<g id="a_edge1_Node000001_Node000002"><a xlink:title=" ">
<path fill="none" stroke="#63b8ff" d="M73.09,-101.97C60.97,-92.62 45.93,-81 35.89,-73.26"/>
<polygon fill="#63b8ff" stroke="#63b8ff" points="70.59,-105.24 80.65,-108.58 74.87,-99.7 70.59,-105.24"/>
</a>
</g>
</g>
<!-- Node4 -->
<g id="Node000004" class="node">
<title>Node4</title>
<g id="a_Node000004"><a xlink:href="a02358.html" target="_top" xlink:title=" ">
<polygon fill="white" stroke="#666666" points="117.75,-73 68,-73 68,-54.5 117.75,-54.5 117.75,-73"/>
<text text-anchor="middle" x="92.88" y="-59.5" font-family="Helvetica,sans-Serif" font-size="10.00">async.h</text>
</a>
</g>
</g>
<!-- Node1&#45;&gt;Node4 -->
<g id="edge3_Node000001_Node000004" class="edge">
<title>Node1&#45;&gt;Node4</title>
<g id="a_edge3_Node000001_Node000004"><a xlink:title=" ">
<path fill="none" stroke="#63b8ff" d="M92.88,-97.72C92.88,-89.29 92.88,-79.86 92.88,-73.26"/>
<polygon fill="#63b8ff" stroke="#63b8ff" points="89.38,-97.58 92.88,-107.58 96.38,-97.58 89.38,-97.58"/>
</a>
</g>
</g>
<!-- Node6 -->
<g id="Node000006" class="node">
<title>Node6</title>
<g id="a_Node000006"><a xlink:href="a02361.html" target="_top" xlink:title=" ">
<polygon fill="white" stroke="#666666" points="185.75,-73 136,-73 136,-54.5 185.75,-54.5 185.75,-73"/>
<text text-anchor="middle" x="160.88" y="-59.5" font-family="Helvetica,sans-Serif" font-size="10.00">async.h</text>
</a>
</g>
</g>
<!-- Node1&#45;&gt;Node6 -->
<g id="edge5_Node000001_Node000006" class="edge">
<title>Node1&#45;&gt;Node6</title>
<g id="a_edge5_Node000001_Node000006"><a xlink:title=" ">
<path fill="none" stroke="#63b8ff" d="M112.66,-101.97C124.78,-92.62 139.82,-81 149.86,-73.26"/>
<polygon fill="#63b8ff" stroke="#63b8ff" points="110.88,-99.7 105.1,-108.58 115.16,-105.24 110.88,-99.7"/>
</a>
</g>
</g>
<!-- Node3 -->
<g id="Node000003" class="node">
<title>Node3</title>
<g id="a_Node000003"><a xlink:href="a02346.html" target="_top" xlink:title=" ">
<polygon fill="white" stroke="#666666" points="49.75,-18.5 0,-18.5 0,0 49.75,0 49.75,-18.5"/>
<text text-anchor="middle" x="24.88" y="-5" font-family="Helvetica,sans-Serif" font-size="10.00">async.c</text>
</a>
</g>
</g>
<!-- Node2&#45;&gt;Node3 -->
<g id="edge2_Node000002_Node000003" class="edge">
<title>Node2&#45;&gt;Node3</title>
<g id="a_edge2_Node000002_Node000003"><a xlink:title=" ">
<path fill="none" stroke="#63b8ff" d="M24.88,-43.22C24.88,-34.79 24.88,-25.36 24.88,-18.76"/>
<polygon fill="#63b8ff" stroke="#63b8ff" points="21.38,-43.08 24.88,-53.08 28.38,-43.08 21.38,-43.08"/>
</a>
</g>
</g>
<!-- Node5 -->
<g id="Node000005" class="node">
<title>Node5</title>
<g id="a_Node000005"><a xlink:href="a02349.html" target="_top" xlink:title=" ">
<polygon fill="white" stroke="#666666" points="117.75,-18.5 68,-18.5 68,0 117.75,0 117.75,-18.5"/>
<text text-anchor="middle" x="92.88" y="-5" font-family="Helvetica,sans-Serif" font-size="10.00">async.c</text>
</a>
</g>
</g>
<!-- Node4&#45;&gt;Node5 -->
<g id="edge4_Node000004_Node000005" class="edge">
<title>Node4&#45;&gt;Node5</title>
<g id="a_edge4_Node000004_Node000005"><a xlink:title=" ">
<path fill="none" stroke="#63b8ff" d="M92.88,-43.22C92.88,-34.79 92.88,-25.36 92.88,-18.76"/>
<polygon fill="#63b8ff" stroke="#63b8ff" points="89.38,-43.08 92.88,-53.08 96.38,-43.08 89.38,-43.08"/>
</a>
</g>
</g>
<!-- Node7 -->
<g id="Node000007" class="node">
<title>Node7</title>
<g id="a_Node000007"><a xlink:href="a02352.html" target="_top" xlink:title=" ">
<polygon fill="white" stroke="#666666" points="185.75,-18.5 136,-18.5 136,0 185.75,0 185.75,-18.5"/>
<text text-anchor="middle" x="160.88" y="-5" font-family="Helvetica,sans-Serif" font-size="10.00">async.c</text>
</a>
</g>
</g>
<!-- Node6&#45;&gt;Node7 -->
<g id="edge6_Node000006_Node000007" class="edge">
<title>Node6&#45;&gt;Node7</title>
<g id="a_edge6_Node000006_Node000007"><a xlink:title=" ">
<path fill="none" stroke="#63b8ff" d="M160.88,-43.22C160.88,-34.79 160.88,-25.36 160.88,-18.76"/>
<polygon fill="#63b8ff" stroke="#63b8ff" points="157.38,-43.08 160.88,-53.08 164.38,-43.08 157.38,-43.08"/>
</a>
</g>
</g>
</g>
</svg>
