<?xml version="1.0" encoding="UTF-8" standalone="no"?>
<!DOCTYPE svg PUBLIC "-//W3C//DTD SVG 1.1//EN"
 "http://www.w3.org/Graphics/SVG/1.1/DTD/svg11.dtd">
<!-- Generated by graphviz version 8.0.5 (0)
 -->
<!-- Title: arax_proc.h Pages: 1 -->
<svg width="745pt" height="190pt"
 viewBox="0.00 0.00 745.12 190.00" xmlns="http://www.w3.org/2000/svg" xmlns:xlink="http://www.w3.org/1999/xlink">
<g id="graph0" class="graph" transform="scale(1 1) rotate(0) translate(4 186)">
<title>arax_proc.h</title>
<!-- Node1 -->
<g id="Node000001" class="node">
<title>Node1</title>
<g id="a_Node000001"><a xlink:title=" ">
<polygon fill="#999999" stroke="#666666" points="637.75,-182 570,-182 570,-163.5 637.75,-163.5 637.75,-182"/>
<text text-anchor="middle" x="603.88" y="-168.5" font-family="Helvetica,sans-Serif" font-size="10.00">arax_proc.h</text>
</a>
</g>
</g>
<!-- Node2 -->
<g id="Node000002" class="node">
<title>Node2</title>
<g id="a_Node000002"><a xlink:href="a01910.html" target="_top" xlink:title=" ">
<polygon fill="white" stroke="#666666" points="737.12,-18.5 662.62,-18.5 662.62,0 737.12,0 737.12,-18.5"/>
<text text-anchor="middle" x="699.88" y="-5" font-family="Helvetica,sans-Serif" font-size="10.00">arax_object.c</text>
</a>
</g>
</g>
<!-- Node1&#45;&gt;Node2 -->
<g id="edge1_Node000001_Node000002" class="edge">
<title>Node1&#45;&gt;Node2</title>
<g id="a_edge1_Node000001_Node000002"><a xlink:title=" ">
<path fill="none" stroke="#63b8ff" d="M622.16,-155.69C630.43,-147.78 639.89,-137.75 646.88,-127.5 672.27,-90.2 690.59,-38.76 697.19,-18.72"/>
<polygon fill="#63b8ff" stroke="#63b8ff" points="620.11,-152.74 615.13,-162.09 624.85,-157.89 620.11,-152.74"/>
</a>
</g>
</g>
<!-- Node3 -->
<g id="Node000003" class="node">
<title>Node3</title>
<g id="a_Node000003"><a xlink:href="a01916.html" target="_top" xlink:title=" ">
<polygon fill="white" stroke="#666666" points="637.75,-127.5 570,-127.5 570,-109 637.75,-109 637.75,-127.5"/>
<text text-anchor="middle" x="603.88" y="-114" font-family="Helvetica,sans-Serif" font-size="10.00">arax_proc.c</text>
</a>
</g>
</g>
<!-- Node1&#45;&gt;Node3 -->
<g id="edge2_Node000001_Node000003" class="edge">
<title>Node1&#45;&gt;Node3</title>
<g id="a_edge2_Node000001_Node000003"><a xlink:title=" ">
<path fill="none" stroke="#63b8ff" d="M603.88,-152.22C603.88,-143.79 603.88,-134.36 603.88,-127.76"/>
<polygon fill="#63b8ff" stroke="#63b8ff" points="600.38,-152.08 603.88,-162.08 607.38,-152.08 600.38,-152.08"/>
</a>
</g>
</g>
<!-- Node4 -->
<g id="Node000004" class="node">
<title>Node4</title>
<g id="a_Node000004"><a xlink:href="a01412.html" target="_top" xlink:title=" ">
<polygon fill="white" stroke="#666666" points="507.75,-127.5 440,-127.5 440,-109 507.75,-109 507.75,-127.5"/>
<text text-anchor="middle" x="473.88" y="-114" font-family="Helvetica,sans-Serif" font-size="10.00">arax_task.h</text>
</a>
</g>
</g>
<!-- Node1&#45;&gt;Node4 -->
<g id="edge3_Node000001_Node000004" class="edge">
<title>Node1&#45;&gt;Node4</title>
<g id="a_edge3_Node000001_Node000004"><a xlink:title=" ">
<path fill="none" stroke="#63b8ff" d="M572.42,-159.05C548.55,-149.41 516.37,-136.41 495.37,-127.93"/>
<polygon fill="#63b8ff" stroke="#63b8ff" points="570.83,-162.58 581.41,-163.08 573.45,-156.09 570.83,-162.58"/>
</a>
</g>
</g>
<!-- Node4&#45;&gt;Node2 -->
<g id="edge5_Node000004_Node000002" class="edge">
<title>Node4&#45;&gt;Node2</title>
<g id="a_edge5_Node000004_Node000002"><a xlink:title=" ">
<path fill="none" stroke="#63b8ff" d="M501.8,-104.03C548.76,-81.8 642.26,-37.53 681.68,-18.87"/>
<polygon fill="#63b8ff" stroke="#63b8ff" points="500.53,-101.23 492.99,-108.67 503.52,-107.56 500.53,-101.23"/>
</a>
</g>
</g>
<!-- Node5 -->
<g id="Node000005" class="node">
<title>Node5</title>
<g id="a_Node000005"><a xlink:href="a01931.html" target="_top" xlink:title=" ">
<polygon fill="white" stroke="#666666" points="67.75,-18.5 0,-18.5 0,0 67.75,0 67.75,-18.5"/>
<text text-anchor="middle" x="33.88" y="-5" font-family="Helvetica,sans-Serif" font-size="10.00">arax_data.c</text>
</a>
</g>
</g>
<!-- Node4&#45;&gt;Node5 -->
<g id="edge4_Node000004_Node000005" class="edge">
<title>Node4&#45;&gt;Node5</title>
<g id="a_edge4_Node000004_Node000005"><a xlink:title=" ">
<path fill="none" stroke="#63b8ff" d="M429.27,-106.4C341.22,-84.99 146.78,-37.71 68.01,-18.55"/>
<polygon fill="#63b8ff" stroke="#63b8ff" points="428.17,-109.98 438.72,-108.94 429.83,-103.18 428.17,-109.98"/>
</a>
</g>
</g>
<!-- Node6 -->
<g id="Node000006" class="node">
<title>Node6</title>
<g id="a_Node000006"><a xlink:href="a01349.html" target="_top" xlink:title=" ">
<polygon fill="white" stroke="#666666" points="418.38,-73 351.38,-73 351.38,-54.5 418.38,-54.5 418.38,-73"/>
<text text-anchor="middle" x="384.88" y="-59.5" font-family="Helvetica,sans-Serif" font-size="10.00">arax_pipe.h</text>
</a>
</g>
</g>
<!-- Node4&#45;&gt;Node6 -->
<g id="edge6_Node000004_Node000006" class="edge">
<title>Node4&#45;&gt;Node6</title>
<g id="a_edge6_Node000004_Node000006"><a xlink:title=" ">
<path fill="none" stroke="#63b8ff" d="M449.88,-103.1C433.84,-93.64 413.26,-81.49 399.59,-73.43"/>
<polygon fill="#63b8ff" stroke="#63b8ff" points="447.79,-106.51 458.18,-108.58 451.34,-100.49 447.79,-106.51"/>
</a>
</g>
</g>
<!-- Node6&#45;&gt;Node2 -->
<g id="edge9_Node000006_Node000002" class="edge">
<title>Node6&#45;&gt;Node2</title>
<g id="a_edge9_Node000006_Node000002"><a xlink:title=" ">
<path fill="none" stroke="#63b8ff" d="M429.67,-55.58C483.08,-46.99 575.05,-32.05 653.88,-18.5 656.59,-18.03 659.4,-17.54 662.23,-17.05"/>
<polygon fill="#63b8ff" stroke="#63b8ff" points="429.19,-52.28 419.87,-57.32 430.3,-59.19 429.19,-52.28"/>
</a>
</g>
</g>
<!-- Node6&#45;&gt;Node5 -->
<g id="edge8_Node000006_Node000005" class="edge">
<title>Node6&#45;&gt;Node5</title>
<g id="a_edge8_Node000006_Node000005"><a xlink:title=" ">
<path fill="none" stroke="#63b8ff" d="M340.47,-57.04C280.52,-49.17 170.42,-34.18 76.88,-18.5 74.03,-18.02 71.08,-17.5 68.12,-16.97"/>
<polygon fill="#63b8ff" stroke="#63b8ff" points="339.7,-60.59 350.07,-58.42 340.61,-53.65 339.7,-60.59"/>
</a>
</g>
</g>
<!-- Node7 -->
<g id="Node000007" class="node">
<title>Node7</title>
<g id="a_Node000007"><a xlink:href="a01904.html" target="_top" xlink:title=" ">
<polygon fill="white" stroke="#666666" points="158,-18.5 85.75,-18.5 85.75,0 158,0 158,-18.5"/>
<text text-anchor="middle" x="121.88" y="-5" font-family="Helvetica,sans-Serif" font-size="10.00">arax_accel.c</text>
</a>
</g>
</g>
<!-- Node6&#45;&gt;Node7 -->
<g id="edge7_Node000006_Node000007" class="edge">
<title>Node6&#45;&gt;Node7</title>
<g id="a_edge7_Node000006_Node000007"><a xlink:title=" ">
<path fill="none" stroke="#63b8ff" d="M340.28,-53.85C288.94,-43.6 205.63,-26.97 158.12,-17.48"/>
<polygon fill="#63b8ff" stroke="#63b8ff" points="339.54,-57.47 350.03,-55.99 340.91,-50.6 339.54,-57.47"/>
</a>
</g>
</g>
<!-- Node8 -->
<g id="Node000008" class="node">
<title>Node8</title>
<g id="a_Node000008"><a xlink:href="a01913.html" target="_top" xlink:title=" ">
<polygon fill="white" stroke="#666666" points="243.38,-18.5 176.38,-18.5 176.38,0 243.38,0 243.38,-18.5"/>
<text text-anchor="middle" x="209.88" y="-5" font-family="Helvetica,sans-Serif" font-size="10.00">arax_pipe.c</text>
</a>
</g>
</g>
<!-- Node6&#45;&gt;Node8 -->
<g id="edge10_Node000006_Node000008" class="edge">
<title>Node6&#45;&gt;Node8</title>
<g id="a_edge10_Node000006_Node000008"><a xlink:title=" ">
<path fill="none" stroke="#63b8ff" d="M345.52,-50.94C313.14,-41.23 267.96,-27.68 238.82,-18.93"/>
<polygon fill="#63b8ff" stroke="#63b8ff" points="344.39,-54.56 354.98,-54.08 346.4,-47.85 344.39,-54.56"/>
</a>
</g>
</g>
<!-- Node9 -->
<g id="Node000009" class="node">
<title>Node9</title>
<g id="a_Node000009"><a xlink:href="a01940.html" target="_top" xlink:title=" ">
<polygon fill="white" stroke="#666666" points="325.88,-18.5 261.88,-18.5 261.88,0 325.88,0 325.88,-18.5"/>
<text text-anchor="middle" x="293.88" y="-5" font-family="Helvetica,sans-Serif" font-size="10.00">arax_plot.c</text>
</a>
</g>
</g>
<!-- Node6&#45;&gt;Node9 -->
<g id="edge11_Node000006_Node000009" class="edge">
<title>Node6&#45;&gt;Node9</title>
<g id="a_edge11_Node000006_Node000009"><a xlink:title=" ">
<path fill="none" stroke="#63b8ff" d="M360.34,-48.6C343.94,-39.14 322.89,-26.99 308.92,-18.93"/>
<polygon fill="#63b8ff" stroke="#63b8ff" points="358.44,-52.12 368.85,-54.08 361.94,-46.05 358.44,-52.12"/>
</a>
</g>
</g>
<!-- Node10 -->
<g id="Node000010" class="node">
<title>Node10</title>
<g id="a_Node000010"><a xlink:href="a01919.html" target="_top" xlink:title=" ">
<polygon fill="white" stroke="#666666" points="404,-18.5 343.75,-18.5 343.75,0 404,0 404,-18.5"/>
<text text-anchor="middle" x="373.88" y="-5" font-family="Helvetica,sans-Serif" font-size="10.00">arax_ptr.c</text>
</a>
</g>
</g>
<!-- Node6&#45;&gt;Node10 -->
<g id="edge12_Node000006_Node000010" class="edge">
<title>Node6&#45;&gt;Node10</title>
<g id="a_edge12_Node000006_Node000010"><a xlink:title=" ">
<path fill="none" stroke="#63b8ff" d="M380.84,-43.51C379.06,-35 377.06,-25.44 375.66,-18.76"/>
<polygon fill="#63b8ff" stroke="#63b8ff" points="377.58,-44.01 383.06,-53.08 384.43,-42.58 377.58,-44.01"/>
</a>
</g>
</g>
<!-- Node11 -->
<g id="Node000011" class="node">
<title>Node11</title>
<g id="a_Node000011"><a xlink:href="a01922.html" target="_top" xlink:title=" ">
<polygon fill="white" stroke="#666666" points="489.75,-18.5 422,-18.5 422,0 489.75,0 489.75,-18.5"/>
<text text-anchor="middle" x="455.88" y="-5" font-family="Helvetica,sans-Serif" font-size="10.00">arax_task.c</text>
</a>
</g>
</g>
<!-- Node6&#45;&gt;Node11 -->
<g id="edge13_Node000006_Node000011" class="edge">
<title>Node6&#45;&gt;Node11</title>
<g id="a_edge13_Node000006_Node000011"><a xlink:title=" ">
<path fill="none" stroke="#63b8ff" d="M405.16,-47.75C417.87,-38.35 433.79,-26.58 444.37,-18.76"/>
<polygon fill="#63b8ff" stroke="#63b8ff" points="403.56,-45.32 397.6,-54.08 407.72,-50.95 403.56,-45.32"/>
</a>
</g>
</g>
<!-- Node12 -->
<g id="Node000012" class="node">
<title>Node12</title>
<g id="a_Node000012"><a xlink:href="a01928.html" target="_top" xlink:title=" ">
<polygon fill="white" stroke="#666666" points="584.25,-18.5 507.5,-18.5 507.5,0 584.25,0 584.25,-18.5"/>
<text text-anchor="middle" x="545.88" y="-5" font-family="Helvetica,sans-Serif" font-size="10.00">arax_vaccel.c</text>
</a>
</g>
</g>
<!-- Node6&#45;&gt;Node12 -->
<g id="edge14_Node000006_Node000012" class="edge">
<title>Node6&#45;&gt;Node12</title>
<g id="a_edge14_Node000006_Node000012"><a xlink:title=" ">
<path fill="none" stroke="#63b8ff" d="M421.86,-50.69C451.6,-40.99 492.67,-27.6 519.25,-18.93"/>
<polygon fill="#63b8ff" stroke="#63b8ff" points="420.88,-47.65 412.46,-54.08 423.05,-54.31 420.88,-47.65"/>
</a>
</g>
</g>
<!-- Node13 -->
<g id="Node000013" class="node">
<title>Node13</title>
<g id="a_Node000013"><a xlink:href="a01898.html" target="_top" xlink:title=" ">
<polygon fill="white" stroke="#666666" points="645,-18.5 602.75,-18.5 602.75,0 645,0 645,-18.5"/>
<text text-anchor="middle" x="623.88" y="-5" font-family="Helvetica,sans-Serif" font-size="10.00">impl.c</text>
</a>
</g>
</g>
<!-- Node6&#45;&gt;Node13 -->
<g id="edge15_Node000006_Node000013" class="edge">
<title>Node6&#45;&gt;Node13</title>
<g id="a_edge15_Node000006_Node000013"><a xlink:title=" ">
<path fill="none" stroke="#63b8ff" d="M429.61,-53.91C471.83,-45.41 536.84,-31.91 592.88,-18.5 596.02,-17.75 599.33,-16.91 602.57,-16.07"/>
<polygon fill="#63b8ff" stroke="#63b8ff" points="428.98,-50.67 419.86,-56.07 430.35,-57.53 428.98,-50.67"/>
</a>
</g>
</g>
</g>
</svg>
