<?xml version="1.0" encoding="UTF-8" standalone="no"?>
<!DOCTYPE svg PUBLIC "-//W3C//DTD SVG 1.1//EN"
 "http://www.w3.org/Graphics/SVG/1.1/DTD/svg11.dtd">
<!-- Generated by graphviz version 12.2.1 (0)
 -->
<!-- Title: arax_vaccel.h Pages: 1 -->
<svg width="831pt" height="245pt"
 viewBox="0.00 0.00 831.16 244.50" xmlns="http://www.w3.org/2000/svg" xmlns:xlink="http://www.w3.org/1999/xlink">
<g id="graph0" class="graph" transform="scale(1 1) rotate(0) translate(4 240.5)">
<title>arax_vaccel.h</title>
<!-- Node1 -->
<g id="Node000001" class="node">
<title>Node1</title>
<g id="a_Node000001"><a xlink:title=" ">
<polygon fill="#999999" stroke="#666666" points="271.03,-236.5 194.28,-236.5 194.28,-218 271.03,-218 271.03,-236.5"/>
<text text-anchor="middle" x="232.66" y="-223" font-family="Helvetica,sans-Serif" font-size="10.00">arax_vaccel.h</text>
</a>
</g>
</g>
<!-- Node2 -->
<g id="Node000002" class="node">
<title>Node2</title>
<g id="a_Node000002"><a xlink:href="a01403.html" target="_top" xlink:title=" ">
<polygon fill="white" stroke="#666666" points="268.78,-182 196.53,-182 196.53,-163.5 268.78,-163.5 268.78,-182"/>
<text text-anchor="middle" x="232.66" y="-168.5" font-family="Helvetica,sans-Serif" font-size="10.00">arax_accel.h</text>
</a>
</g>
</g>
<!-- Node1&#45;&gt;Node2 -->
<g id="edge1_Node000001_Node000002" class="edge">
<title>Node1&#45;&gt;Node2</title>
<g id="a_edge1_Node000001_Node000002"><a xlink:title=" ">
<path fill="none" stroke="#63b8ff" d="M226.09,-206.43C225.6,-198.07 226.08,-188.79 227.52,-182.26"/>
<polygon fill="#63b8ff" stroke="#63b8ff" points="222.58,-206.59 227.3,-216.08 229.53,-205.72 222.58,-206.59"/>
</a>
</g>
</g>
<!-- Node2&#45;&gt;Node1 -->
<g id="edge20_Node000002_Node000001" class="edge">
<title>Node2&#45;&gt;Node1</title>
<g id="a_edge20_Node000002_Node000001"><a xlink:title=" ">
<path fill="none" stroke="#63b8ff" d="M239.23,-193.66C239.7,-201.92 239.23,-211.08 237.82,-217.58"/>
<polygon fill="#63b8ff" stroke="#63b8ff" points="242.7,-193.24 237.98,-183.76 235.76,-194.12 242.7,-193.24"/>
</a>
</g>
</g>
<!-- Node3 -->
<g id="Node000003" class="node">
<title>Node3</title>
<g id="a_Node000003"><a xlink:href="a01409.html" target="_top" xlink:title=" ">
<polygon fill="white" stroke="#666666" points="266.53,-127.5 198.78,-127.5 198.78,-109 266.53,-109 266.53,-127.5"/>
<text text-anchor="middle" x="232.66" y="-114" font-family="Helvetica,sans-Serif" font-size="10.00">arax_data.h</text>
</a>
</g>
</g>
<!-- Node2&#45;&gt;Node3 -->
<g id="edge2_Node000002_Node000003" class="edge">
<title>Node2&#45;&gt;Node3</title>
<g id="a_edge2_Node000002_Node000003"><a xlink:title=" ">
<path fill="none" stroke="#63b8ff" d="M232.66,-151.64C232.66,-143.36 232.66,-134.21 232.66,-127.76"/>
<polygon fill="#63b8ff" stroke="#63b8ff" points="229.16,-151.57 232.66,-161.57 236.16,-151.57 229.16,-151.57"/>
</a>
</g>
</g>
<!-- Node6 -->
<g id="Node000006" class="node">
<title>Node6</title>
<g id="a_Node000006"><a xlink:href="a01925.html" target="_top" xlink:title=" ">
<polygon fill="white" stroke="#666666" points="207.91,-73 133.41,-73 133.41,-54.5 207.91,-54.5 207.91,-73"/>
<text text-anchor="middle" x="170.66" y="-59.5" font-family="Helvetica,sans-Serif" font-size="10.00">arax_object.c</text>
</a>
</g>
</g>
<!-- Node2&#45;&gt;Node6 -->
<g id="edge9_Node000002_Node000006" class="edge">
<title>Node2&#45;&gt;Node6</title>
<g id="a_edge9_Node000002_Node000006"><a xlink:title=" ">
<path fill="none" stroke="#63b8ff" d="M213.17,-155.53C204.91,-147.79 195.81,-137.94 189.66,-127.5 179.25,-109.85 174.09,-86 171.93,-73.39"/>
<polygon fill="#63b8ff" stroke="#63b8ff" points="210.68,-158 220.47,-162.04 215.33,-152.77 210.68,-158"/>
</a>
</g>
</g>
<!-- Node9 -->
<g id="Node000009" class="node">
<title>Node9</title>
<g id="a_Node000009"><a xlink:href="a01358.html" target="_top" xlink:title=" ">
<polygon fill="white" stroke="#666666" points="445.16,-127.5 378.16,-127.5 378.16,-109 445.16,-109 445.16,-127.5"/>
<text text-anchor="middle" x="411.66" y="-114" font-family="Helvetica,sans-Serif" font-size="10.00">arax_pipe.h</text>
</a>
</g>
</g>
<!-- Node2&#45;&gt;Node9 -->
<g id="edge10_Node000002_Node000009" class="edge">
<title>Node2&#45;&gt;Node9</title>
<g id="a_edge10_Node000002_Node000009"><a xlink:title=" ">
<path fill="none" stroke="#63b8ff" d="M272.91,-159.94C306.04,-150.23 352.24,-136.68 382.05,-127.93"/>
<polygon fill="#63b8ff" stroke="#63b8ff" points="272.28,-156.48 263.67,-162.65 274.25,-163.2 272.28,-156.48"/>
</a>
</g>
</g>
<!-- Node4 -->
<g id="Node000004" class="node">
<title>Node4</title>
<g id="a_Node000004"><a xlink:href="a01922.html" target="_top" xlink:title=" ">
<polygon fill="white" stroke="#666666" points="98.53,-18.5 30.78,-18.5 30.78,0 98.53,0 98.53,-18.5"/>
<text text-anchor="middle" x="64.66" y="-5" font-family="Helvetica,sans-Serif" font-size="10.00">arax_data.c</text>
</a>
</g>
</g>
<!-- Node3&#45;&gt;Node4 -->
<g id="edge3_Node000003_Node000004" class="edge">
<title>Node3&#45;&gt;Node4</title>
<g id="a_edge3_Node000003_Node000004"><a xlink:title=" ">
<path fill="none" stroke="#63b8ff" d="M187.12,-115.06C127.34,-111.11 27.32,-100.49 4.66,-73 -12.22,-52.53 22.47,-30.55 45.8,-18.81"/>
<polygon fill="#63b8ff" stroke="#63b8ff" points="186.8,-118.54 196.99,-115.67 187.23,-111.56 186.8,-118.54"/>
</a>
</g>
</g>
<!-- Node5 -->
<g id="Node000005" class="node">
<title>Node5</title>
<g id="a_Node000005"><a xlink:href="a01412.html" target="_top" xlink:title=" ">
<polygon fill="white" stroke="#666666" points="115.41,-73 13.91,-73 13.91,-54.5 115.41,-54.5 115.41,-73"/>
<text text-anchor="middle" x="64.66" y="-59.5" font-family="Helvetica,sans-Serif" font-size="10.00">arax_data_private.h</text>
</a>
</g>
</g>
<!-- Node3&#45;&gt;Node5 -->
<g id="edge4_Node000003_Node000005" class="edge">
<title>Node3&#45;&gt;Node5</title>
<g id="a_edge4_Node000003_Node000005"><a xlink:title=" ">
<path fill="none" stroke="#63b8ff" d="M194.07,-105.19C163.03,-95.49 120.18,-82.1 92.44,-73.43"/>
<polygon fill="#63b8ff" stroke="#63b8ff" points="192.88,-108.49 203.47,-108.13 194.97,-101.81 192.88,-108.49"/>
</a>
</g>
</g>
<!-- Node3&#45;&gt;Node6 -->
<g id="edge6_Node000003_Node000006" class="edge">
<title>Node3&#45;&gt;Node6</title>
<g id="a_edge6_Node000003_Node000006"><a xlink:title=" ">
<path fill="none" stroke="#63b8ff" d="M213.63,-101.14C202.77,-91.94 189.58,-80.77 180.7,-73.26"/>
<polygon fill="#63b8ff" stroke="#63b8ff" points="211.37,-103.81 221.26,-107.6 215.89,-98.47 211.37,-103.81"/>
</a>
</g>
</g>
<!-- Node7 -->
<g id="Node000007" class="node">
<title>Node7</title>
<g id="a_Node000007"><a xlink:href="a01937.html" target="_top" xlink:title=" ">
<polygon fill="white" stroke="#666666" points="353.53,-73 285.78,-73 285.78,-54.5 353.53,-54.5 353.53,-73"/>
<text text-anchor="middle" x="319.66" y="-59.5" font-family="Helvetica,sans-Serif" font-size="10.00">arax_task.c</text>
</a>
</g>
</g>
<!-- Node3&#45;&gt;Node7 -->
<g id="edge7_Node000003_Node000007" class="edge">
<title>Node3&#45;&gt;Node7</title>
<g id="a_edge7_Node000003_Node000007"><a xlink:title=" ">
<path fill="none" stroke="#63b8ff" d="M256.55,-102.83C272.17,-93.41 292.04,-81.42 305.27,-73.43"/>
<polygon fill="#63b8ff" stroke="#63b8ff" points="255.07,-99.64 248.32,-107.8 258.69,-105.63 255.07,-99.64"/>
</a>
</g>
</g>
<!-- Node8 -->
<g id="Node000008" class="node">
<title>Node8</title>
<g id="a_Node000008"><a xlink:href="a01910.html" target="_top" xlink:title=" ">
<polygon fill="white" stroke="#666666" points="267.78,-73 225.53,-73 225.53,-54.5 267.78,-54.5 267.78,-73"/>
<text text-anchor="middle" x="246.66" y="-59.5" font-family="Helvetica,sans-Serif" font-size="10.00">impl.c</text>
</a>
</g>
</g>
<!-- Node3&#45;&gt;Node8 -->
<g id="edge8_Node000003_Node000008" class="edge">
<title>Node3&#45;&gt;Node8</title>
<g id="a_edge8_Node000003_Node000008"><a xlink:title=" ">
<path fill="none" stroke="#63b8ff" d="M237.86,-97.72C240.11,-89.29 242.63,-79.86 244.39,-73.26"/>
<polygon fill="#63b8ff" stroke="#63b8ff" points="234.55,-96.55 235.36,-107.12 241.32,-98.36 234.55,-96.55"/>
</a>
</g>
</g>
<!-- Node5&#45;&gt;Node4 -->
<g id="edge5_Node000005_Node000004" class="edge">
<title>Node5&#45;&gt;Node4</title>
<g id="a_edge5_Node000005_Node000004"><a xlink:title=" ">
<path fill="none" stroke="#63b8ff" d="M64.66,-42.64C64.66,-34.36 64.66,-25.21 64.66,-18.76"/>
<polygon fill="#63b8ff" stroke="#63b8ff" points="61.16,-42.57 64.66,-52.57 68.16,-42.57 61.16,-42.57"/>
</a>
</g>
</g>
<!-- Node9&#45;&gt;Node4 -->
<g id="edge12_Node000009_Node000004" class="edge">
<title>Node9&#45;&gt;Node4</title>
<g id="a_edge12_Node000009_Node000004"><a xlink:title=" ">
<path fill="none" stroke="#63b8ff" d="M402.33,-98.73C393.99,-84.22 380.36,-64.81 362.66,-54.5 318.37,-28.69 167.21,-16.46 98.79,-12.15"/>
<polygon fill="#63b8ff" stroke="#63b8ff" points="399.12,-100.16 406.93,-107.31 405.28,-96.85 399.12,-100.16"/>
</a>
</g>
</g>
<!-- Node9&#45;&gt;Node6 -->
<g id="edge13_Node000009_Node000006" class="edge">
<title>Node9&#45;&gt;Node6</title>
<g id="a_edge13_Node000009_Node000006"><a xlink:title=" ">
<path fill="none" stroke="#63b8ff" d="M366.83,-107.48C321.12,-97.53 251.01,-82.25 208.15,-72.92"/>
<polygon fill="#63b8ff" stroke="#63b8ff" points="365.9,-110.86 376.41,-109.57 367.39,-104.02 365.9,-110.86"/>
</a>
</g>
</g>
<!-- Node9&#45;&gt;Node7 -->
<g id="edge17_Node000009_Node000007" class="edge">
<title>Node9&#45;&gt;Node7</title>
<g id="a_edge17_Node000009_Node000007"><a xlink:title=" ">
<path fill="none" stroke="#63b8ff" d="M386.85,-103.1C370.28,-93.64 348.99,-81.49 334.87,-73.43"/>
<polygon fill="#63b8ff" stroke="#63b8ff" points="384.73,-105.91 395.15,-107.83 388.2,-99.83 384.73,-105.91"/>
</a>
</g>
</g>
<!-- Node9&#45;&gt;Node8 -->
<g id="edge19_Node000009_Node000008" class="edge">
<title>Node9&#45;&gt;Node8</title>
<g id="a_edge19_Node000009_Node000008"><a xlink:title=" ">
<path fill="none" stroke="#63b8ff" d="M373.44,-105.09C340.73,-94.68 294.81,-80.07 268.15,-71.59"/>
<polygon fill="#63b8ff" stroke="#63b8ff" points="372.38,-108.42 382.97,-108.12 374.5,-101.75 372.38,-108.42"/>
</a>
</g>
</g>
<!-- Node10 -->
<g id="Node000010" class="node">
<title>Node10</title>
<g id="a_Node000010"><a xlink:href="a01916.html" target="_top" xlink:title=" ">
<polygon fill="white" stroke="#666666" points="737.78,-73 665.53,-73 665.53,-54.5 737.78,-54.5 737.78,-73"/>
<text text-anchor="middle" x="701.66" y="-59.5" font-family="Helvetica,sans-Serif" font-size="10.00">arax_accel.c</text>
</a>
</g>
</g>
<!-- Node9&#45;&gt;Node10 -->
<g id="edge11_Node000009_Node000010" class="edge">
<title>Node9&#45;&gt;Node10</title>
<g id="a_edge11_Node000009_Node000010"><a xlink:title=" ">
<path fill="none" stroke="#63b8ff" d="M456.76,-109.08C514.22,-98.68 612.4,-80.91 665.31,-71.33"/>
<polygon fill="#63b8ff" stroke="#63b8ff" points="456.2,-105.63 446.98,-110.86 457.44,-112.52 456.2,-105.63"/>
</a>
</g>
</g>
<!-- Node11 -->
<g id="Node000011" class="node">
<title>Node11</title>
<g id="a_Node000011"><a xlink:href="a01928.html" target="_top" xlink:title=" ">
<polygon fill="white" stroke="#666666" points="823.16,-73 756.16,-73 756.16,-54.5 823.16,-54.5 823.16,-73"/>
<text text-anchor="middle" x="789.66" y="-59.5" font-family="Helvetica,sans-Serif" font-size="10.00">arax_pipe.c</text>
</a>
</g>
</g>
<!-- Node9&#45;&gt;Node11 -->
<g id="edge14_Node000009_Node000011" class="edge">
<title>Node9&#45;&gt;Node11</title>
<g id="a_edge14_Node000009_Node000011"><a xlink:title=" ">
<path fill="none" stroke="#63b8ff" d="M456.86,-112.13C521.34,-104.63 643.34,-89.72 746.66,-73 749.66,-72.51 752.77,-71.98 755.89,-71.42"/>
<polygon fill="#63b8ff" stroke="#63b8ff" points="456.55,-108.64 447.02,-113.26 457.35,-115.59 456.55,-108.64"/>
</a>
</g>
</g>
<!-- Node12 -->
<g id="Node000012" class="node">
<title>Node12</title>
<g id="a_Node000012"><a xlink:href="a01946.html" target="_top" xlink:title=" ">
<polygon fill="white" stroke="#666666" points="473.66,-73 409.66,-73 409.66,-54.5 473.66,-54.5 473.66,-73"/>
<text text-anchor="middle" x="441.66" y="-59.5" font-family="Helvetica,sans-Serif" font-size="10.00">arax_plot.c</text>
</a>
</g>
</g>
<!-- Node9&#45;&gt;Node12 -->
<g id="edge15_Node000009_Node000012" class="edge">
<title>Node9&#45;&gt;Node12</title>
<g id="a_edge15_Node000009_Node000012"><a xlink:title=" ">
<path fill="none" stroke="#63b8ff" d="M422.32,-98.59C427.26,-89.94 432.89,-80.09 436.79,-73.26"/>
<polygon fill="#63b8ff" stroke="#63b8ff" points="419.28,-96.85 417.36,-107.27 425.36,-100.32 419.28,-96.85"/>
</a>
</g>
</g>
<!-- Node13 -->
<g id="Node000013" class="node">
<title>Node13</title>
<g id="a_Node000013"><a xlink:href="a01934.html" target="_top" xlink:title=" ">
<polygon fill="white" stroke="#666666" points="551.78,-73 491.53,-73 491.53,-54.5 551.78,-54.5 551.78,-73"/>
<text text-anchor="middle" x="521.66" y="-59.5" font-family="Helvetica,sans-Serif" font-size="10.00">arax_ptr.c</text>
</a>
</g>
</g>
<!-- Node9&#45;&gt;Node13 -->
<g id="edge16_Node000009_Node000013" class="edge">
<title>Node9&#45;&gt;Node13</title>
<g id="a_edge16_Node000009_Node000013"><a xlink:title=" ">
<path fill="none" stroke="#63b8ff" d="M440.19,-103.63C460.17,-94.1 486.26,-81.64 503.46,-73.43"/>
<polygon fill="#63b8ff" stroke="#63b8ff" points="438.7,-100.46 431.19,-107.93 441.72,-106.78 438.7,-100.46"/>
</a>
</g>
</g>
<!-- Node14 -->
<g id="Node000014" class="node">
<title>Node14</title>
<g id="a_Node000014"><a xlink:href="a01943.html" target="_top" xlink:title=" ">
<polygon fill="white" stroke="#666666" points="647.03,-73 570.28,-73 570.28,-54.5 647.03,-54.5 647.03,-73"/>
<text text-anchor="middle" x="608.66" y="-59.5" font-family="Helvetica,sans-Serif" font-size="10.00">arax_vaccel.c</text>
</a>
</g>
</g>
<!-- Node9&#45;&gt;Node14 -->
<g id="edge18_Node000009_Node000014" class="edge">
<title>Node9&#45;&gt;Node14</title>
<g id="a_edge18_Node000009_Node000014"><a xlink:title=" ">
<path fill="none" stroke="#63b8ff" d="M455.01,-105.7C491.53,-95.96 542.98,-82.25 576.08,-73.43"/>
<polygon fill="#63b8ff" stroke="#63b8ff" points="454.41,-102.23 445.65,-108.19 456.21,-109 454.41,-102.23"/>
</a>
</g>
</g>
</g>
</svg>
