<?xml version="1.0" encoding="UTF-8" standalone="no"?>
<!DOCTYPE svg PUBLIC "-//W3C//DTD SVG 1.1//EN"
 "http://www.w3.org/Graphics/SVG/1.1/DTD/svg11.dtd">
<!-- Generated by graphviz version 8.0.5 (0)
 -->
<!-- Title: arax_task_alloc Pages: 1 -->
<svg width="1179pt" height="268pt"
 viewBox="0.00 0.00 1178.50 267.50" xmlns="http://www.w3.org/2000/svg" xmlns:xlink="http://www.w3.org/1999/xlink">
<g id="graph0" class="graph" transform="scale(1 1) rotate(0) translate(4 263.5)">
<title>arax_task_alloc</title>
<!-- Node1 -->
<g id="Node000001" class="node">
<title>Node1</title>
<g id="a_Node000001"><a xlink:title=" ">
<polygon fill="#999999" stroke="#666666" points="85,-129.5 0,-129.5 0,-111 85,-111 85,-129.5"/>
<text text-anchor="middle" x="42.5" y="-116" font-family="Helvetica,sans-Serif" font-size="10.00">arax_task_alloc</text>
</a>
</g>
</g>
<!-- Node2 -->
<g id="Node000002" class="node">
<title>Node2</title>
<g id="a_Node000002"><a xlink:href="a01931.html#a1dc669466d6f52d5be8af2d991512ac2" target="_top" xlink:title=" ">
<polygon fill="white" stroke="#666666" points="228.88,-166.5 125.12,-166.5 125.12,-148 228.88,-148 228.88,-166.5"/>
<text text-anchor="middle" x="177" y="-153" font-family="Helvetica,sans-Serif" font-size="10.00">arax_data_input_init</text>
</a>
</g>
</g>
<!-- Node1&#45;&gt;Node2 -->
<g id="edge1_Node000001_Node000002" class="edge">
<title>Node1&#45;&gt;Node2</title>
<g id="a_edge1_Node000001_Node000002"><a xlink:title=" ">
<path fill="none" stroke="#63b8ff" d="M78.31,-129.97C94.44,-134.47 113.8,-139.88 131.02,-144.69"/>
<polygon fill="#63b8ff" stroke="#63b8ff" points="129.85,-148.28 140.42,-147.59 131.73,-141.53 129.85,-148.28"/>
</a>
</g>
</g>
<!-- Node16 -->
<g id="Node000016" class="node">
<title>Node16</title>
<g id="a_Node000016"><a xlink:href="a01931.html#a18d07d808917e0b971d46332e9e64da4" target="_top" xlink:title=" ">
<polygon fill="white" stroke="#666666" points="231.88,-204.5 122.12,-204.5 122.12,-186 231.88,-186 231.88,-204.5"/>
<text text-anchor="middle" x="177" y="-191" font-family="Helvetica,sans-Serif" font-size="10.00">arax_data_output_init</text>
</a>
</g>
</g>
<!-- Node1&#45;&gt;Node16 -->
<g id="edge16_Node000001_Node000016" class="edge">
<title>Node1&#45;&gt;Node16</title>
<g id="a_edge16_Node000001_Node000016"><a xlink:title=" ">
<path fill="none" stroke="#63b8ff" d="M54.94,-129.87C69.52,-141.77 95.87,-162.07 121,-175.25 125.32,-177.51 129.95,-179.63 134.62,-181.58"/>
<polygon fill="#63b8ff" stroke="#63b8ff" points="133.24,-185.19 143.83,-185.56 135.78,-178.66 133.24,-185.19"/>
</a>
</g>
</g>
<!-- Node17 -->
<g id="Node000017" class="node">
<title>Node17</title>
<g id="a_Node000017"><a xlink:href="a01910.html#a402bbd6fa197c2c48d527325e5e2cf5b" target="_top" xlink:title=" ">
<polygon fill="white" stroke="#666666" points="229.25,-92.5 124.75,-92.5 124.75,-74 229.25,-74 229.25,-92.5"/>
<text text-anchor="middle" x="177" y="-79" font-family="Helvetica,sans-Serif" font-size="10.00">arax_object_register</text>
</a>
</g>
</g>
<!-- Node1&#45;&gt;Node17 -->
<g id="edge19_Node000001_Node000017" class="edge">
<title>Node1&#45;&gt;Node17</title>
<g id="a_edge19_Node000001_Node000017"><a xlink:title=" ">
<path fill="none" stroke="#63b8ff" d="M78.31,-110.53C94.44,-106.03 113.8,-100.62 131.02,-95.81"/>
<polygon fill="#63b8ff" stroke="#63b8ff" points="131.73,-98.97 140.42,-92.91 129.85,-92.22 131.73,-98.97"/>
</a>
</g>
</g>
<!-- Node26 -->
<g id="Node000026" class="node">
<title>Node26</title>
<g id="a_Node000026"><a xlink:href="a02352.html#ac728117d73179c279de49e01ae905dda" target="_top" xlink:title=" ">
<polygon fill="white" stroke="#666666" points="233,-37.5 121,-37.5 121,-19 233,-19 233,-37.5"/>
<text text-anchor="middle" x="177" y="-24" font-family="Helvetica,sans-Serif" font-size="10.00">async_completion_init</text>
</a>
</g>
</g>
<!-- Node1&#45;&gt;Node26 -->
<g id="edge32_Node000001_Node000026" class="edge">
<title>Node1&#45;&gt;Node26</title>
<g id="a_edge32_Node000001_Node000026"><a xlink:title=" ">
<path fill="none" stroke="#63b8ff" d="M56.87,-110.61C72.26,-99.55 98.33,-80.91 121,-65.25 131.22,-58.18 142.61,-50.49 152.36,-43.97"/>
<polygon fill="#63b8ff" stroke="#63b8ff" points="154.09,-46.35 160.46,-37.89 150.2,-40.53 154.09,-46.35"/>
</a>
</g>
</g>
<!-- Node3 -->
<g id="Node000003" class="node">
<title>Node3</title>
<g id="a_Node000003"><a xlink:href="a01931.html#a4b65f90a821aca384f0ca1cff7bd1846" target="_top" xlink:title=" ">
<polygon fill="white" stroke="#666666" points="394.5,-241.5 269,-241.5 269,-223 394.5,-223 394.5,-241.5"/>
<text text-anchor="middle" x="331.75" y="-228" font-family="Helvetica,sans-Serif" font-size="10.00">arax_data_migrate_accel</text>
</a>
</g>
</g>
<!-- Node2&#45;&gt;Node3 -->
<g id="edge2_Node000002_Node000003" class="edge">
<title>Node2&#45;&gt;Node3</title>
<g id="a_edge2_Node000002_Node000003"><a xlink:title=" ">
<path fill="none" stroke="#63b8ff" d="M207.47,-166.96C215.84,-169.99 224.88,-173.52 233,-177.25 258.77,-189.09 286.85,-205.25 306.27,-216.99"/>
<polygon fill="#63b8ff" stroke="#63b8ff" points="304.23,-220.46 314.58,-222.68 307.88,-214.48 304.23,-220.46"/>
</a>
</g>
</g>
<!-- Node14 -->
<g id="Node000014" class="node">
<title>Node14</title>
<g id="a_Node000014"><a xlink:href="a01910.html#a9255b8011e6d7c9b28c7df40065efb28" target="_top" xlink:title=" ">
<polygon fill="white" stroke="#666666" points="541.75,-185.5 440.25,-185.5 440.25,-167 541.75,-167 541.75,-185.5"/>
<text text-anchor="middle" x="491" y="-172" font-family="Helvetica,sans-Serif" font-size="10.00">arax_object_ref_inc</text>
</a>
</g>
</g>
<!-- Node2&#45;&gt;Node14 -->
<g id="edge15_Node000002_Node000014" class="edge">
<title>Node2&#45;&gt;Node14</title>
<g id="a_edge15_Node000002_Node000014"><a xlink:title=" ">
<path fill="none" stroke="#63b8ff" d="M229.17,-160.37C283.9,-163.7 370.68,-168.98 428.94,-172.53"/>
<polygon fill="#63b8ff" stroke="#63b8ff" points="428.64,-176.08 438.83,-173.2 429.07,-169.09 428.64,-176.08"/>
</a>
</g>
</g>
<!-- Node4 -->
<g id="Node000004" class="node">
<title>Node4</title>
<g id="a_Node000004"><a xlink:href="a01910.html#afe7e4a63c40fbcaae742b8de8693483f" target="_top" xlink:title=" ">
<polygon fill="white" stroke="#666666" points="543.25,-222.5 438.75,-222.5 438.75,-204 543.25,-204 543.25,-222.5"/>
<text text-anchor="middle" x="491" y="-209" font-family="Helvetica,sans-Serif" font-size="10.00">arax_object_ref_dec</text>
</a>
</g>
</g>
<!-- Node3&#45;&gt;Node4 -->
<g id="edge3_Node000003_Node000004" class="edge">
<title>Node3&#45;&gt;Node4</title>
<g id="a_edge3_Node000003_Node000004"><a xlink:title=" ">
<path fill="none" stroke="#63b8ff" d="M394.9,-224.74C405.72,-223.43 416.97,-222.07 427.79,-220.77"/>
<polygon fill="#63b8ff" stroke="#63b8ff" points="427.92,-224.16 437.43,-219.48 427.08,-217.21 427.92,-224.16"/>
</a>
</g>
</g>
<!-- Node3&#45;&gt;Node14 -->
<g id="edge13_Node000003_Node000014" class="edge">
<title>Node3&#45;&gt;Node14</title>
<g id="a_edge13_Node000003_Node000014"><a xlink:title=" ">
<path fill="none" stroke="#63b8ff" d="M358.92,-222.6C369.92,-218.51 382.85,-213.69 394.5,-209.25 410.54,-203.14 414.32,-200.97 430.5,-195.25 436.12,-193.26 442.08,-191.25 447.96,-189.32"/>
<polygon fill="#63b8ff" stroke="#63b8ff" points="448.94,-192.35 457.38,-185.95 446.79,-185.69 448.94,-192.35"/>
</a>
</g>
</g>
<!-- Node15 -->
<g id="Node000015" class="node">
<title>Node15</title>
<g id="a_Node000015"><a xlink:href="a01910.html#a668fd893484b6e2d67d8b372b508d14f" target="_top" xlink:title=" ">
<polygon fill="white" stroke="#666666" points="551.5,-259.5 430.5,-259.5 430.5,-241 551.5,-241 551.5,-259.5"/>
<text text-anchor="middle" x="491" y="-246" font-family="Helvetica,sans-Serif" font-size="10.00">arax_object_type_to_str</text>
</a>
</g>
</g>
<!-- Node3&#45;&gt;Node15 -->
<g id="edge14_Node000003_Node000015" class="edge">
<title>Node3&#45;&gt;Node15</title>
<g id="a_edge14_Node000003_Node000015"><a xlink:title=" ">
<path fill="none" stroke="#63b8ff" d="M394.9,-239.36C402.96,-240.29 411.26,-241.24 419.44,-242.17"/>
<polygon fill="#63b8ff" stroke="#63b8ff" points="418.77,-245.73 429.1,-243.39 419.56,-238.78 418.77,-245.73"/>
</a>
</g>
</g>
<!-- Node5 -->
<g id="Node000005" class="node">
<title>Node5</title>
<g id="a_Node000005"><a xlink:href="a01913.html#a5144f906658718ef853a8d18dda1e724" target="_top" xlink:title=" ">
<polygon fill="white" stroke="#666666" points="688.25,-176.5 589,-176.5 589,-158 688.25,-158 688.25,-176.5"/>
<text text-anchor="middle" x="638.62" y="-163" font-family="Helvetica,sans-Serif" font-size="10.00">arax_pipe_size_inc</text>
</a>
</g>
</g>
<!-- Node4&#45;&gt;Node5 -->
<g id="edge4_Node000004_Node000005" class="edge">
<title>Node4&#45;&gt;Node5</title>
<g id="a_edge4_Node000004_Node000005"><a xlink:title=" ">
<path fill="none" stroke="#63b8ff" d="M522.53,-203.61C544.08,-196.8 573.2,-187.6 596.75,-180.16"/>
<polygon fill="#63b8ff" stroke="#63b8ff" points="597.66,-183.23 606.14,-176.88 595.55,-176.56 597.66,-183.23"/>
</a>
</g>
</g>
<!-- Node13 -->
<g id="Node000013" class="node">
<title>Node13</title>
<g id="a_Node000013"><a xlink:href="a01946.html#a0c85e5516222ab7e7fc354c614760ec5" target="_top" xlink:title=" ">
<polygon fill="white" stroke="#666666" points="673.62,-222.5 603.62,-222.5 603.62,-204 673.62,-204 673.62,-222.5"/>
<text text-anchor="middle" x="638.62" y="-209" font-family="Helvetica,sans-Serif" font-size="10.00">utils_list_del</text>
</a>
</g>
</g>
<!-- Node4&#45;&gt;Node13 -->
<g id="edge12_Node000004_Node000013" class="edge">
<title>Node4&#45;&gt;Node13</title>
<g id="a_edge12_Node000004_Node000013"><a xlink:title=" ">
<path fill="none" stroke="#63b8ff" d="M543.34,-213.25C559.29,-213.25 576.74,-213.25 592.25,-213.25"/>
<polygon fill="#63b8ff" stroke="#63b8ff" points="592.15,-216.75 602.15,-213.25 592.15,-209.75 592.15,-216.75"/>
</a>
</g>
</g>
<!-- Node6 -->
<g id="Node000006" class="node">
<title>Node6</title>
<g id="a_Node000006"><a xlink:href="a01925.html#a22aaf13eb56eb1832e725ef73236116f" target="_top" xlink:title=" ">
<polygon fill="white" stroke="#666666" points="838.5,-162.5 727.25,-162.5 727.25,-144 838.5,-144 838.5,-162.5"/>
<text text-anchor="middle" x="782.88" y="-149" font-family="Helvetica,sans-Serif" font-size="10.00">arax_throttle_size_inc</text>
</a>
</g>
</g>
<!-- Node5&#45;&gt;Node6 -->
<g id="edge5_Node000005_Node000006" class="edge">
<title>Node5&#45;&gt;Node6</title>
<g id="a_edge5_Node000005_Node000006"><a xlink:title=" ">
<path fill="none" stroke="#63b8ff" d="M688.58,-162.43C697.47,-161.56 706.88,-160.63 716.17,-159.72"/>
<polygon fill="#63b8ff" stroke="#63b8ff" points="716.37,-163.12 725.98,-158.65 715.68,-156.15 716.37,-163.12"/>
</a>
</g>
</g>
<!-- Node7 -->
<g id="Node000007" class="node">
<title>Node7</title>
<g id="a_Node000007"><a xlink:href="a02352.html#aed6af4d83e934e3e654ead541b15f2d9" target="_top" xlink:title=" ">
<polygon fill="white" stroke="#666666" points="990.25,-122.5 881.25,-122.5 881.25,-104 990.25,-104 990.25,-122.5"/>
<text text-anchor="middle" x="935.75" y="-109" font-family="Helvetica,sans-Serif" font-size="10.00">async_condition_lock</text>
</a>
</g>
</g>
<!-- Node6&#45;&gt;Node7 -->
<g id="edge6_Node000006_Node000007" class="edge">
<title>Node6&#45;&gt;Node7</title>
<g id="a_edge6_Node000006_Node000007"><a xlink:title=" ">
<path fill="none" stroke="#63b8ff" d="M820.4,-143.57C840.54,-138.23 865.78,-131.53 887.42,-125.8"/>
<polygon fill="#63b8ff" stroke="#63b8ff" points="888.27,-128.93 897.04,-122.98 886.48,-122.16 888.27,-128.93"/>
</a>
</g>
</g>
<!-- Node9 -->
<g id="Node000009" class="node">
<title>Node9</title>
<g id="a_Node000009"><a xlink:href="a02352.html#a45a896fb606c2aa66a5a4c2af59ce494" target="_top" xlink:title=" ">
<polygon fill="white" stroke="#666666" points="993.25,-196.5 878.25,-196.5 878.25,-178 993.25,-178 993.25,-196.5"/>
<text text-anchor="middle" x="935.75" y="-183" font-family="Helvetica,sans-Serif" font-size="10.00">async_condition_notify</text>
</a>
</g>
</g>
<!-- Node6&#45;&gt;Node9 -->
<g id="edge8_Node000006_Node000009" class="edge">
<title>Node6&#45;&gt;Node9</title>
<g id="a_edge8_Node000006_Node000009"><a xlink:title=" ">
<path fill="none" stroke="#63b8ff" d="M827.11,-162.99C843.84,-166.76 863.17,-171.12 880.79,-175.09"/>
<polygon fill="#63b8ff" stroke="#63b8ff" points="879.98,-178.72 890.51,-177.51 881.52,-171.89 879.98,-178.72"/>
</a>
</g>
</g>
<!-- Node11 -->
<g id="Node000011" class="node">
<title>Node11</title>
<g id="a_Node000011"><a xlink:href="a02352.html#a3bbcb7c4c024e99d5c4ba52b61dfbbf7" target="_top" xlink:title=" ">
<polygon fill="white" stroke="#666666" points="995.5,-159.5 876,-159.5 876,-141 995.5,-141 995.5,-159.5"/>
<text text-anchor="middle" x="935.75" y="-146" font-family="Helvetica,sans-Serif" font-size="10.00">async_condition_unlock</text>
</a>
</g>
</g>
<!-- Node6&#45;&gt;Node11 -->
<g id="edge10_Node000006_Node000011" class="edge">
<title>Node6&#45;&gt;Node11</title>
<g id="a_edge10_Node000006_Node000011"><a xlink:title=" ">
<path fill="none" stroke="#63b8ff" d="M838.77,-152.16C847.18,-151.99 855.96,-151.82 864.65,-151.64"/>
<polygon fill="#63b8ff" stroke="#63b8ff" points="864.64,-155.12 874.57,-151.43 864.5,-148.13 864.64,-155.12"/>
</a>
</g>
</g>
<!-- Node8 -->
<g id="Node000008" class="node">
<title>Node8</title>
<g id="a_Node000008"><a xlink:href="a02346.html#aebf9e72bb6cbd8b9e33489d46c25075d" target="_top" xlink:title=" ">
<polygon fill="white" stroke="#666666" points="1159.25,-122.5 1042.75,-122.5 1042.75,-104 1159.25,-104 1159.25,-122.5"/>
<text text-anchor="middle" x="1101" y="-109" font-family="Helvetica,sans-Serif" font-size="10.00">async_completion_wait</text>
</a>
</g>
</g>
<!-- Node7&#45;&gt;Node8 -->
<g id="edge7_Node000007_Node000008" class="edge">
<title>Node7&#45;&gt;Node8</title>
<g id="a_edge7_Node000007_Node000008"><a xlink:title=" ">
<path fill="none" stroke="#63b8ff" d="M990.66,-113.25C1003.77,-113.25 1017.98,-113.25 1031.66,-113.25"/>
<polygon fill="#63b8ff" stroke="#63b8ff" points="1031.5,-116.75 1041.5,-113.25 1031.5,-109.75 1031.5,-116.75"/>
</a>
</g>
</g>
<!-- Node10 -->
<g id="Node000010" class="node">
<title>Node10</title>
<g id="a_Node000010"><a xlink:href="a02346.html#a0fa370eee5160963e617d1daf1c07363" target="_top" xlink:title=" ">
<polygon fill="white" stroke="#666666" points="1157.38,-196.5 1044.62,-196.5 1044.62,-178 1157.38,-178 1157.38,-196.5"/>
<text text-anchor="middle" x="1101" y="-183" font-family="Helvetica,sans-Serif" font-size="10.00">async_semaphore_inc</text>
</a>
</g>
</g>
<!-- Node9&#45;&gt;Node10 -->
<g id="edge9_Node000009_Node000010" class="edge">
<title>Node9&#45;&gt;Node10</title>
<g id="a_edge9_Node000009_Node000010"><a xlink:title=" ">
<path fill="none" stroke="#63b8ff" d="M993.39,-187.25C1006.27,-187.25 1020.06,-187.25 1033.32,-187.25"/>
<polygon fill="#63b8ff" stroke="#63b8ff" points="1033.29,-190.75 1043.29,-187.25 1033.29,-183.75 1033.29,-190.75"/>
</a>
</g>
</g>
<!-- Node12 -->
<g id="Node000012" class="node">
<title>Node12</title>
<g id="a_Node000012"><a xlink:href="a02346.html#ad1d30ecbf6bff6457b680aa940281072" target="_top" xlink:title=" ">
<polygon fill="white" stroke="#666666" points="1170.5,-159.5 1031.5,-159.5 1031.5,-141 1170.5,-141 1170.5,-159.5"/>
<text text-anchor="middle" x="1101" y="-146" font-family="Helvetica,sans-Serif" font-size="10.00">async_completion_complete</text>
</a>
</g>
</g>
<!-- Node11&#45;&gt;Node12 -->
<g id="edge11_Node000011_Node000012" class="edge">
<title>Node11&#45;&gt;Node12</title>
<g id="a_edge11_Node000011_Node000012"><a xlink:title=" ">
<path fill="none" stroke="#63b8ff" d="M995.69,-150.25C1003.69,-150.25 1012.01,-150.25 1020.3,-150.25"/>
<polygon fill="#63b8ff" stroke="#63b8ff" points="1020.15,-153.75 1030.15,-150.25 1020.15,-146.75 1020.15,-153.75"/>
</a>
</g>
</g>
<!-- Node16&#45;&gt;Node3 -->
<g id="edge17_Node000016_Node000003" class="edge">
<title>Node16&#45;&gt;Node3</title>
<g id="a_edge17_Node000016_Node000003"><a xlink:title=" ">
<path fill="none" stroke="#63b8ff" d="M218.13,-204.97C237.09,-209.56 259.92,-215.09 280.06,-219.97"/>
<polygon fill="#63b8ff" stroke="#63b8ff" points="279.08,-223.58 289.62,-222.53 280.72,-216.77 279.08,-223.58"/>
</a>
</g>
</g>
<!-- Node16&#45;&gt;Node14 -->
<g id="edge18_Node000016_Node000014" class="edge">
<title>Node16&#45;&gt;Node14</title>
<g id="a_edge18_Node000016_Node000014"><a xlink:title=" ">
<path fill="none" stroke="#63b8ff" d="M232.35,-191.94C287.29,-188.59 372.04,-183.43 429.19,-179.95"/>
<polygon fill="#63b8ff" stroke="#63b8ff" points="429.11,-183.4 438.88,-179.3 428.69,-176.42 429.11,-183.4"/>
</a>
</g>
</g>
<!-- Node18 -->
<g id="Node000018" class="node">
<title>Node18</title>
<g id="a_Node000018"><a xlink:href="a01913.html#a1cfa2c90268c6e53ce376beb7cce153c" target="_top" xlink:title=" ">
<polygon fill="white" stroke="#666666" points="689.75,-96.5 587.5,-96.5 587.5,-78 689.75,-78 689.75,-96.5"/>
<text text-anchor="middle" x="638.62" y="-83" font-family="Helvetica,sans-Serif" font-size="10.00">arax_pipe_size_dec</text>
</a>
</g>
</g>
<!-- Node17&#45;&gt;Node18 -->
<g id="edge20_Node000017_Node000018" class="edge">
<title>Node17&#45;&gt;Node18</title>
<g id="a_edge20_Node000017_Node000018"><a xlink:title=" ">
<path fill="none" stroke="#63b8ff" d="M229.39,-83.7C314.7,-84.44 485.2,-85.92 576.53,-86.72"/>
<polygon fill="#63b8ff" stroke="#63b8ff" points="576.24,-90.22 586.27,-86.81 576.3,-83.22 576.24,-90.22"/>
</a>
</g>
</g>
<!-- Node22 -->
<g id="Node000022" class="node">
<title>Node22</title>
<g id="a_Node000022"><a xlink:href="a02343.html#ac9828b5c2758940f6d3c7d4335228de5" target="_top" xlink:title=" ">
<polygon fill="white" stroke="#666666" points="381.38,-55.5 282.12,-55.5 282.12,-37 381.38,-37 381.38,-55.5"/>
<text text-anchor="middle" x="331.75" y="-42" font-family="Helvetica,sans-Serif" font-size="10.00">arch_alloc_allocate</text>
</a>
</g>
</g>
<!-- Node17&#45;&gt;Node22 -->
<g id="edge28_Node000017_Node000022" class="edge">
<title>Node17&#45;&gt;Node22</title>
<g id="a_edge28_Node000017_Node000022"><a xlink:title=" ">
<path fill="none" stroke="#63b8ff" d="M218.13,-73.53C237.09,-68.94 259.92,-63.41 280.06,-58.53"/>
<polygon fill="#63b8ff" stroke="#63b8ff" points="280.72,-61.73 289.62,-55.97 279.08,-54.92 280.72,-61.73"/>
</a>
</g>
</g>
<!-- Node23 -->
<g id="Node000023" class="node">
<title>Node23</title>
<g id="a_Node000023"><a xlink:href="a01946.html#ae06a9e78e6a4f6c9c8afcf0f4862ce29" target="_top" xlink:title=" ">
<polygon fill="white" stroke="#666666" points="368.25,-129.5 295.25,-129.5 295.25,-111 368.25,-111 368.25,-129.5"/>
<text text-anchor="middle" x="331.75" y="-116" font-family="Helvetica,sans-Serif" font-size="10.00">utils_list_add</text>
</a>
</g>
</g>
<!-- Node17&#45;&gt;Node23 -->
<g id="edge29_Node000017_Node000023" class="edge">
<title>Node17&#45;&gt;Node23</title>
<g id="a_edge29_Node000017_Node000023"><a xlink:title=" ">
<path fill="none" stroke="#63b8ff" d="M218.13,-92.97C238.38,-97.88 263.05,-103.85 284.14,-108.96"/>
<polygon fill="#63b8ff" stroke="#63b8ff" points="283.25,-112.59 293.8,-111.54 284.9,-105.78 283.25,-112.59"/>
</a>
</g>
</g>
<!-- Node25 -->
<g id="Node000025" class="node">
<title>Node25</title>
<g id="a_Node000025"><a xlink:href="a01946.html#a63f2791c9b5c8e2fa15967cfafb7ccbb" target="_top" xlink:title=" ">
<polygon fill="white" stroke="#666666" points="379.88,-18.5 283.62,-18.5 283.62,0 379.88,0 379.88,-18.5"/>
<text text-anchor="middle" x="331.75" y="-5" font-family="Helvetica,sans-Serif" font-size="10.00">utils_list_node_init</text>
</a>
</g>
</g>
<!-- Node17&#45;&gt;Node25 -->
<g id="edge31_Node000017_Node000025" class="edge">
<title>Node17&#45;&gt;Node25</title>
<g id="a_edge31_Node000017_Node000025"><a xlink:title=" ">
<path fill="none" stroke="#63b8ff" d="M191.6,-73.56C208.9,-61.59 240.02,-41.23 269,-28.25 273.68,-26.15 278.66,-24.2 283.68,-22.41"/>
<polygon fill="#63b8ff" stroke="#63b8ff" points="284.6,-25.45 292.96,-18.95 282.37,-18.82 284.6,-25.45"/>
</a>
</g>
</g>
<!-- Node19 -->
<g id="Node000019" class="node">
<title>Node19</title>
<g id="a_Node000019"><a xlink:href="a01925.html#a8413a3584787f9b629e54b2ef9439f06" target="_top" xlink:title=" ">
<polygon fill="white" stroke="#666666" points="840,-115.5 725.75,-115.5 725.75,-97 840,-97 840,-115.5"/>
<text text-anchor="middle" x="782.88" y="-102" font-family="Helvetica,sans-Serif" font-size="10.00">arax_throttle_size_dec</text>
</a>
</g>
</g>
<!-- Node18&#45;&gt;Node19 -->
<g id="edge21_Node000018_Node000019" class="edge">
<title>Node18&#45;&gt;Node19</title>
<g id="a_edge21_Node000018_Node000019"><a xlink:title=" ">
<path fill="none" stroke="#63b8ff" d="M690.18,-94C698.17,-95.07 706.55,-96.19 714.85,-97.3"/>
<polygon fill="#63b8ff" stroke="#63b8ff" points="714.3,-100.89 724.68,-98.74 715.23,-93.95 714.3,-100.89"/>
</a>
</g>
</g>
<!-- Node19&#45;&gt;Node7 -->
<g id="edge22_Node000019_Node000007" class="edge">
<title>Node19&#45;&gt;Node7</title>
<g id="a_edge22_Node000019_Node000007"><a xlink:title=" ">
<path fill="none" stroke="#63b8ff" d="M840.48,-108.88C850.08,-109.32 860.12,-109.79 869.91,-110.24"/>
<polygon fill="#63b8ff" stroke="#63b8ff" points="869.67,-113.78 879.82,-110.75 869.99,-106.79 869.67,-113.78"/>
</a>
</g>
</g>
<!-- Node19&#45;&gt;Node11 -->
<g id="edge23_Node000019_Node000011" class="edge">
<title>Node19&#45;&gt;Node11</title>
<g id="a_edge23_Node000019_Node000011"><a xlink:title=" ">
<path fill="none" stroke="#63b8ff" d="M816.99,-115.91C838.72,-122.25 867.4,-130.61 891.01,-137.49"/>
<polygon fill="#63b8ff" stroke="#63b8ff" points="889.88,-141.1 900.46,-140.54 891.84,-134.38 889.88,-141.1"/>
</a>
</g>
</g>
<!-- Node20 -->
<g id="Node000020" class="node">
<title>Node20</title>
<g id="a_Node000020"><a xlink:href="a02352.html#a1bfeaeb9b81855e640d7a67cc9d92b17" target="_top" xlink:title=" ">
<polygon fill="white" stroke="#666666" points="989.88,-85.5 881.62,-85.5 881.62,-67 989.88,-67 989.88,-85.5"/>
<text text-anchor="middle" x="935.75" y="-72" font-family="Helvetica,sans-Serif" font-size="10.00">async_condition_wait</text>
</a>
</g>
</g>
<!-- Node19&#45;&gt;Node20 -->
<g id="edge24_Node000019_Node000020" class="edge">
<title>Node19&#45;&gt;Node20</title>
<g id="a_edge24_Node000019_Node000020"><a xlink:title=" ">
<path fill="none" stroke="#63b8ff" d="M832.86,-96.51C846.37,-93.82 861.17,-90.88 875.2,-88.09"/>
<polygon fill="#63b8ff" stroke="#63b8ff" points="875.63,-91.38 884.75,-85.99 874.26,-84.51 875.63,-91.38"/>
</a>
</g>
</g>
<!-- Node20&#45;&gt;Node8 -->
<g id="edge26_Node000020_Node000008" class="edge">
<title>Node20&#45;&gt;Node8</title>
<g id="a_edge26_Node000020_Node000008"><a xlink:title=" ">
<path fill="none" stroke="#63b8ff" d="M979.64,-85.97C1000.09,-90.61 1024.76,-96.2 1046.42,-101.11"/>
<polygon fill="#63b8ff" stroke="#63b8ff" points="1045.59,-104.73 1056.11,-103.53 1047.13,-97.91 1045.59,-104.73"/>
</a>
</g>
</g>
<!-- Node20&#45;&gt;Node12 -->
<g id="edge25_Node000020_Node000012" class="edge">
<title>Node20&#45;&gt;Node12</title>
<g id="a_edge25_Node000020_Node000012"><a xlink:title=" ">
<path fill="none" stroke="#63b8ff" d="M975.52,-85.9C982.43,-88.41 989.37,-91.5 995.5,-95.25 1014.8,-107.06 1011.95,-119.85 1031.5,-131.25 1034.95,-133.26 1038.63,-135.07 1042.42,-136.7"/>
<polygon fill="#63b8ff" stroke="#63b8ff" points="1041.04,-140.3 1051.63,-140.57 1043.53,-133.75 1041.04,-140.3"/>
</a>
</g>
</g>
<!-- Node21 -->
<g id="Node000021" class="node">
<title>Node21</title>
<g id="a_Node000021"><a xlink:href="a02346.html#a7ab7c7fe9cb93434dde72a4e464a7e69" target="_top" xlink:title=" ">
<polygon fill="white" stroke="#666666" points="1158.88,-85.5 1043.12,-85.5 1043.12,-67 1158.88,-67 1158.88,-85.5"/>
<text text-anchor="middle" x="1101" y="-72" font-family="Helvetica,sans-Serif" font-size="10.00">async_semaphore_dec</text>
</a>
</g>
</g>
<!-- Node20&#45;&gt;Node21 -->
<g id="edge27_Node000020_Node000021" class="edge">
<title>Node20&#45;&gt;Node21</title>
<g id="a_edge27_Node000020_Node000021"><a xlink:title=" ">
<path fill="none" stroke="#63b8ff" d="M990.2,-76.25C1003.48,-76.25 1017.9,-76.25 1031.78,-76.25"/>
<polygon fill="#63b8ff" stroke="#63b8ff" points="1031.77,-79.75 1041.77,-76.25 1031.77,-72.75 1031.77,-79.75"/>
</a>
</g>
</g>
<!-- Node24 -->
<g id="Node000024" class="node">
<title>Node24</title>
<g id="a_Node000024"><a xlink:href="a01946.html#a5c575f52a42e0e0d2fb41bda2d1268ce" target="_top" xlink:title=" ">
<polygon fill="white" stroke="#666666" points="540.62,-129.5 441.38,-129.5 441.38,-111 540.62,-111 540.62,-129.5"/>
<text text-anchor="middle" x="491" y="-116" font-family="Helvetica,sans-Serif" font-size="10.00">utils_list_node_add</text>
</a>
</g>
</g>
<!-- Node23&#45;&gt;Node24 -->
<g id="edge30_Node000023_Node000024" class="edge">
<title>Node23&#45;&gt;Node24</title>
<g id="a_edge30_Node000023_Node000024"><a xlink:title=" ">
<path fill="none" stroke="#63b8ff" d="M368.43,-120.25C386.64,-120.25 409.27,-120.25 430.06,-120.25"/>
<polygon fill="#63b8ff" stroke="#63b8ff" points="430.05,-123.75 440.05,-120.25 430.05,-116.75 430.05,-123.75"/>
</a>
</g>
</g>
<!-- Node26&#45;&gt;Node25 -->
<g id="edge33_Node000026_Node000025" class="edge">
<title>Node26&#45;&gt;Node25</title>
<g id="a_edge33_Node000026_Node000025"><a xlink:title=" ">
<path fill="none" stroke="#63b8ff" d="M233.15,-21.39C245.96,-19.8 259.65,-18.09 272.59,-16.48"/>
<polygon fill="#63b8ff" stroke="#63b8ff" points="272.76,-19.87 282.26,-15.16 271.9,-12.92 272.76,-19.87"/>
</a>
</g>
</g>
</g>
</svg>
