<?xml version="1.0" encoding="UTF-8" standalone="no"?>
<!DOCTYPE svg PUBLIC "-//W3C//DTD SVG 1.1//EN"
 "http://www.w3.org/Graphics/SVG/1.1/DTD/svg11.dtd">
<!-- Generated by graphviz version 12.2.1 (0)
 -->
<!-- Title: arax_object_register Pages: 1 -->
<svg width="731pt" height="238pt"
 viewBox="0.00 0.00 730.75 237.50" xmlns="http://www.w3.org/2000/svg" xmlns:xlink="http://www.w3.org/1999/xlink">
<g id="graph0" class="graph" transform="scale(1 1) rotate(0) translate(4 233.5)">
<title>arax_object_register</title>
<!-- Node1 -->
<g id="Node000001" class="node">
<title>Node1</title>
<g id="a_Node000001"><a xlink:title=" ">
<polygon fill="#999999" stroke="#666666" points="722.75,-129.5 618.25,-129.5 618.25,-111 722.75,-111 722.75,-129.5"/>
<text text-anchor="middle" x="670.5" y="-116" font-family="Helvetica,sans-Serif" font-size="10.00">arax_object_register</text>
</a>
</g>
</g>
<!-- Node2 -->
<g id="Node000002" class="node">
<title>Node2</title>
<g id="a_Node000002"><a xlink:href="a01916.html#a0706a66a62ca8710342ac1c097b703ed" target="_top" xlink:title=" ">
<polygon fill="white" stroke="#666666" points="410.62,-92.5 328.62,-92.5 328.62,-74 410.62,-74 410.62,-92.5"/>
<text text-anchor="middle" x="369.62" y="-79" font-family="Helvetica,sans-Serif" font-size="10.00">arax_accel_init</text>
</a>
</g>
</g>
<!-- Node1&#45;&gt;Node2 -->
<g id="edge1_Node000001_Node000002" class="edge">
<title>Node1&#45;&gt;Node2</title>
<g id="a_edge1_Node000001_Node000002"><a xlink:title=" ">
<path fill="none" stroke="#63b8ff" d="M616.49,-108.31C605.23,-106.06 593.38,-103.89 582.25,-102.25 522.95,-93.5 453.66,-88.2 410.96,-85.5"/>
<polygon fill="#63b8ff" stroke="#63b8ff" points="615.53,-111.68 626.03,-110.27 616.94,-104.83 615.53,-111.68"/>
</a>
</g>
</g>
<!-- Node3 -->
<g id="Node000003" class="node">
<title>Node3</title>
<g id="a_Node000003"><a xlink:href="a01922.html#a526989df37e605824d846b7ba54b43ea" target="_top" xlink:title=" ">
<polygon fill="white" stroke="#666666" points="582.25,-204.5 468.75,-204.5 468.75,-186 582.25,-186 582.25,-204.5"/>
<text text-anchor="middle" x="525.5" y="-191" font-family="Helvetica,sans-Serif" font-size="10.00">arax_data_init_aligned</text>
</a>
</g>
</g>
<!-- Node1&#45;&gt;Node3 -->
<g id="edge2_Node000001_Node000003" class="edge">
<title>Node1&#45;&gt;Node3</title>
<g id="a_edge2_Node000001_Node000003"><a xlink:title=" ">
<path fill="none" stroke="#63b8ff" d="M646.94,-136.4C629.78,-148.2 605.26,-164.04 582.25,-175.25 574.39,-179.08 565.61,-182.57 557.38,-185.53"/>
<polygon fill="#63b8ff" stroke="#63b8ff" points="648.7,-139.44 654.89,-130.84 644.69,-133.7 648.7,-139.44"/>
</a>
</g>
</g>
<!-- Node6 -->
<g id="Node000006" class="node">
<title>Node6</title>
<g id="a_Node000006"><a xlink:href="a01931.html#a86ac572ea8f5f613129192c47d598818" target="_top" xlink:title=" ">
<polygon fill="white" stroke="#666666" points="564.25,-166.5 486.75,-166.5 486.75,-148 564.25,-148 564.25,-166.5"/>
<text text-anchor="middle" x="525.5" y="-153" font-family="Helvetica,sans-Serif" font-size="10.00">arax_proc_init</text>
</a>
</g>
</g>
<!-- Node1&#45;&gt;Node6 -->
<g id="edge5_Node000001_Node000006" class="edge">
<title>Node1&#45;&gt;Node6</title>
<g id="a_edge5_Node000001_Node000006"><a xlink:title=" ">
<path fill="none" stroke="#63b8ff" d="M620.95,-132.81C602.28,-137.64 581.27,-143.08 563.82,-147.59"/>
<polygon fill="#63b8ff" stroke="#63b8ff" points="621.66,-136.24 630.46,-130.35 619.91,-129.47 621.66,-136.24"/>
</a>
</g>
</g>
<!-- Node8 -->
<g id="Node000008" class="node">
<title>Node8</title>
<g id="a_Node000008"><a xlink:href="a01937.html#a27bee94f7a23281c8b2b72ec433f6059" target="_top" xlink:title=" ">
<polygon fill="white" stroke="#666666" points="568,-129.5 483,-129.5 483,-111 568,-111 568,-129.5"/>
<text text-anchor="middle" x="525.5" y="-116" font-family="Helvetica,sans-Serif" font-size="10.00">arax_task_alloc</text>
</a>
</g>
</g>
<!-- Node1&#45;&gt;Node8 -->
<g id="edge7_Node000001_Node000008" class="edge">
<title>Node1&#45;&gt;Node8</title>
<g id="a_edge7_Node000001_Node000008"><a xlink:title=" ">
<path fill="none" stroke="#63b8ff" d="M606.59,-120.25C593.6,-120.25 580.21,-120.25 568.2,-120.25"/>
<polygon fill="#63b8ff" stroke="#63b8ff" points="606.36,-123.75 616.36,-120.25 606.36,-116.75 606.36,-123.75"/>
</a>
</g>
</g>
<!-- Node16 -->
<g id="Node000016" class="node">
<title>Node16</title>
<g id="a_Node000016"><a xlink:href="a01943.html#a83ddb422946cf774c687c1ab63dcda15" target="_top" xlink:title=" ">
<polygon fill="white" stroke="#666666" points="568.75,-55.5 482.25,-55.5 482.25,-37 568.75,-37 568.75,-55.5"/>
<text text-anchor="middle" x="525.5" y="-42" font-family="Helvetica,sans-Serif" font-size="10.00">arax_vaccel_init</text>
</a>
</g>
</g>
<!-- Node1&#45;&gt;Node16 -->
<g id="edge16_Node000001_Node000016" class="edge">
<title>Node1&#45;&gt;Node16</title>
<g id="a_edge16_Node000001_Node000016"><a xlink:title=" ">
<path fill="none" stroke="#63b8ff" d="M645.09,-104.76C627.87,-94.14 604.06,-80.06 582.25,-69.25 572.59,-64.46 561.68,-59.8 552.08,-55.94"/>
<polygon fill="#63b8ff" stroke="#63b8ff" points="642.78,-107.45 653.12,-109.77 646.49,-101.51 642.78,-107.45"/>
</a>
</g>
</g>
<!-- Node4 -->
<g id="Node000004" class="node">
<title>Node4</title>
<g id="a_Node000004"><a xlink:href="a01922.html#aeefe449d4a278e9fc4b9c5f7e31000a1" target="_top" xlink:title=" ">
<polygon fill="white" stroke="#666666" points="408.38,-206.5 330.88,-206.5 330.88,-188 408.38,-188 408.38,-206.5"/>
<text text-anchor="middle" x="369.62" y="-193" font-family="Helvetica,sans-Serif" font-size="10.00">arax_data_init</text>
</a>
</g>
</g>
<!-- Node3&#45;&gt;Node4 -->
<g id="edge3_Node000003_Node000004" class="edge">
<title>Node3&#45;&gt;Node4</title>
<g id="a_edge3_Node000003_Node000004"><a xlink:title=" ">
<path fill="none" stroke="#63b8ff" d="M457.12,-196.13C440.48,-196.34 423.22,-196.57 408.54,-196.76"/>
<polygon fill="#63b8ff" stroke="#63b8ff" points="457.05,-199.63 467,-196 456.95,-192.63 457.05,-199.63"/>
</a>
</g>
</g>
<!-- Node5 -->
<g id="Node000005" class="node">
<title>Node5</title>
<g id="a_Node000005"><a xlink:href="a02190.html#ga9260ad2dd766aec3274c518e2e312b1f" target="_top" xlink:title=" ">
<polygon fill="white" stroke="#666666" points="249.12,-229.5 159.62,-229.5 159.62,-211 249.12,-211 249.12,-229.5"/>
<text text-anchor="middle" x="204.38" y="-216" font-family="Helvetica,sans-Serif" font-size="10.00">ARAX_BUFFER</text>
</a>
</g>
</g>
<!-- Node4&#45;&gt;Node5 -->
<g id="edge4_Node000004_Node000005" class="edge">
<title>Node4&#45;&gt;Node5</title>
<g id="a_edge4_Node000004_Node000005"><a xlink:title=" ">
<path fill="none" stroke="#63b8ff" d="M319.5,-204.17C297.2,-207.31 271.04,-211 249.39,-214.05"/>
<polygon fill="#63b8ff" stroke="#63b8ff" points="319.85,-207.66 329.26,-202.8 318.87,-200.73 319.85,-207.66"/>
</a>
</g>
</g>
<!-- Node7 -->
<g id="Node000007" class="node">
<title>Node7</title>
<g id="a_Node000007"><a xlink:href="a02188.html#gafad2dafb4a231390f02b7c866295b7d9" target="_top" xlink:title=" ">
<polygon fill="white" stroke="#666666" points="418.12,-166.5 321.12,-166.5 321.12,-148 418.12,-148 418.12,-166.5"/>
<text text-anchor="middle" x="369.62" y="-153" font-family="Helvetica,sans-Serif" font-size="10.00">arax_proc_register</text>
</a>
</g>
</g>
<!-- Node6&#45;&gt;Node7 -->
<g id="edge6_Node000006_Node000007" class="edge">
<title>Node6&#45;&gt;Node7</title>
<g id="a_edge6_Node000006_Node000007"><a xlink:title=" ">
<path fill="none" stroke="#63b8ff" d="M475.2,-157.25C457.02,-157.25 436.47,-157.25 418.42,-157.25"/>
<polygon fill="#63b8ff" stroke="#63b8ff" points="474.95,-160.75 484.95,-157.25 474.95,-153.75 474.95,-160.75"/>
</a>
</g>
</g>
<!-- Node9 -->
<g id="Node000009" class="node">
<title>Node9</title>
<g id="a_Node000009"><a xlink:href="a02189.html#gac9f0f3fbb14da879d3ff09bd367bbb24" target="_top" xlink:title=" ">
<polygon fill="white" stroke="#666666" points="413.62,-129.5 325.62,-129.5 325.62,-111 413.62,-111 413.62,-129.5"/>
<text text-anchor="middle" x="369.62" y="-116" font-family="Helvetica,sans-Serif" font-size="10.00">arax_task_issue</text>
</a>
</g>
</g>
<!-- Node8&#45;&gt;Node9 -->
<g id="edge8_Node000008_Node000009" class="edge">
<title>Node8&#45;&gt;Node9</title>
<g id="a_edge8_Node000008_Node000009"><a xlink:title=" ">
<path fill="none" stroke="#63b8ff" d="M471.48,-120.25C452.69,-120.25 431.79,-120.25 413.91,-120.25"/>
<polygon fill="#63b8ff" stroke="#63b8ff" points="471.35,-123.75 481.35,-120.25 471.35,-116.75 471.35,-123.75"/>
</a>
</g>
</g>
<!-- Node10 -->
<g id="Node000010" class="node">
<title>Node10</title>
<g id="a_Node000010"><a xlink:href="a01922.html#af8ede6fc8d207004035f45d945688d2c" target="_top" xlink:title=" ">
<polygon fill="white" stroke="#666666" points="253.62,-155.75 155.12,-155.75 155.12,-126.75 253.62,-126.75 253.62,-155.75"/>
<text text-anchor="start" x="163.12" y="-142.25" font-family="Helvetica,sans-Serif" font-size="10.00">arax_data_allocate</text>
<text text-anchor="middle" x="204.38" y="-131.75" font-family="Helvetica,sans-Serif" font-size="10.00">_remote</text>
</a>
</g>
</g>
<!-- Node9&#45;&gt;Node10 -->
<g id="edge9_Node000009_Node000010" class="edge">
<title>Node9&#45;&gt;Node10</title>
<g id="a_edge9_Node000009_Node000010"><a xlink:title=" ">
<path fill="none" stroke="#63b8ff" d="M313.9,-127.29C294.54,-129.78 272.91,-132.56 254.09,-134.98"/>
<polygon fill="#63b8ff" stroke="#63b8ff" points="314.33,-130.76 323.8,-126.02 313.44,-123.82 314.33,-130.76"/>
</a>
</g>
</g>
<!-- Node11 -->
<g id="Node000011" class="node">
<title>Node11</title>
<g id="a_Node000011"><a xlink:href="a01922.html#a696bc4319d0f6c6baa7d797a8df6b56f" target="_top" xlink:title=" ">
<polygon fill="white" stroke="#666666" points="243.5,-108.5 165.25,-108.5 165.25,-90 243.5,-90 243.5,-108.5"/>
<text text-anchor="middle" x="204.38" y="-95" font-family="Helvetica,sans-Serif" font-size="10.00">arax_data_get</text>
</a>
</g>
</g>
<!-- Node9&#45;&gt;Node11 -->
<g id="edge10_Node000009_Node000011" class="edge">
<title>Node9&#45;&gt;Node11</title>
<g id="a_edge10_Node000009_Node000011"><a xlink:title=" ">
<path fill="none" stroke="#63b8ff" d="M313.97,-113.22C290.99,-110.26 264.79,-106.89 243.88,-104.2"/>
<polygon fill="#63b8ff" stroke="#63b8ff" points="313.44,-116.68 323.8,-114.48 314.33,-109.74 313.44,-116.68"/>
</a>
</g>
</g>
<!-- Node13 -->
<g id="Node000013" class="node">
<title>Node13</title>
<g id="a_Node000013"><a xlink:href="a01922.html#a8995f71dba475975efc37756783cfce9" target="_top" xlink:title=" ">
<polygon fill="white" stroke="#666666" points="243.5,-71.5 165.25,-71.5 165.25,-53 243.5,-53 243.5,-71.5"/>
<text text-anchor="middle" x="204.38" y="-58" font-family="Helvetica,sans-Serif" font-size="10.00">arax_data_set</text>
</a>
</g>
</g>
<!-- Node9&#45;&gt;Node13 -->
<g id="edge12_Node000009_Node000013" class="edge">
<title>Node9&#45;&gt;Node13</title>
<g id="a_edge12_Node000009_Node000013"><a xlink:title=" ">
<path fill="none" stroke="#63b8ff" d="M321.74,-107.07C316.54,-105.27 311.37,-103.32 306.5,-101.25 289.66,-94.09 287.39,-88.3 270.5,-81.25 262.02,-77.71 252.67,-74.56 243.75,-71.9"/>
<polygon fill="#63b8ff" stroke="#63b8ff" points="320.33,-110.29 330.92,-110.09 322.51,-103.64 320.33,-110.29"/>
</a>
</g>
</g>
<!-- Node14 -->
<g id="Node000014" class="node">
<title>Node14</title>
<g id="a_Node000014"><a xlink:href="a01922.html#af735744d0f8bec04394639a841d2ba0f" target="_top" xlink:title=" ">
<polygon fill="white" stroke="#666666" points="270.5,-34.5 138.25,-34.5 138.25,-16 270.5,-16 270.5,-34.5"/>
<text text-anchor="middle" x="204.38" y="-21" font-family="Helvetica,sans-Serif" font-size="10.00">ARAX_OBJ_DTOR_DECL</text>
</a>
</g>
</g>
<!-- Node9&#45;&gt;Node14 -->
<g id="edge14_Node000009_Node000014" class="edge">
<title>Node9&#45;&gt;Node14</title>
<g id="a_edge14_Node000009_Node000014"><a xlink:title=" ">
<path fill="none" stroke="#63b8ff" d="M314.86,-106.62C311.92,-105.02 309.11,-103.24 306.5,-101.25 282.69,-83.07 294.43,-62.28 270.5,-44.25 265.42,-40.42 259.59,-37.37 253.54,-34.92"/>
<polygon fill="#63b8ff" stroke="#63b8ff" points="313.32,-109.76 323.87,-110.74 316.23,-103.39 313.32,-109.76"/>
</a>
</g>
</g>
<!-- Node15 -->
<g id="Node000015" class="node">
<title>Node15</title>
<g id="a_Node000015"><a xlink:href="a02189.html#ga1418f4cd7336bf77cce7b955a1bf7077" target="_top" xlink:title=" ">
<polygon fill="white" stroke="#666666" points="261.12,-192.5 147.62,-192.5 147.62,-174 261.12,-174 261.12,-192.5"/>
<text text-anchor="middle" x="204.38" y="-179" font-family="Helvetica,sans-Serif" font-size="10.00">arax_task_issue_sync</text>
</a>
</g>
</g>
<!-- Node9&#45;&gt;Node15 -->
<g id="edge15_Node000009_Node000015" class="edge">
<title>Node9&#45;&gt;Node15</title>
<g id="a_edge15_Node000009_Node000015"><a xlink:title=" ">
<path fill="none" stroke="#63b8ff" d="M319,-133.79C314.7,-135.46 310.48,-137.27 306.5,-139.25 288.83,-148.03 288.29,-156.71 270.5,-165.25 263.73,-168.5 256.28,-171.25 248.9,-173.55"/>
<polygon fill="#63b8ff" stroke="#63b8ff" points="320.07,-137.13 328.32,-130.49 317.73,-130.53 320.07,-137.13"/>
</a>
</g>
</g>
<!-- Node12 -->
<g id="Node000012" class="node">
<title>Node12</title>
<g id="a_Node000012"><a xlink:href="a01922.html#a7d8356bd5c8b6a8d7dffc6ba94cc22e5" target="_top" xlink:title=" ">
<polygon fill="white" stroke="#666666" points="102.25,-89.5 0,-89.5 0,-71 102.25,-71 102.25,-89.5"/>
<text text-anchor="middle" x="51.12" y="-76" font-family="Helvetica,sans-Serif" font-size="10.00">arax_data_memcpy</text>
</a>
</g>
</g>
<!-- Node11&#45;&gt;Node12 -->
<g id="edge11_Node000011_Node000012" class="edge">
<title>Node11&#45;&gt;Node12</title>
<g id="a_edge11_Node000011_Node000012"><a xlink:title=" ">
<path fill="none" stroke="#63b8ff" d="M153.79,-93.02C137.38,-90.96 119.1,-88.66 102.61,-86.59"/>
<polygon fill="#63b8ff" stroke="#63b8ff" points="152.96,-96.44 163.32,-94.22 153.83,-89.5 152.96,-96.44"/>
</a>
</g>
</g>
<!-- Node13&#45;&gt;Node12 -->
<g id="edge13_Node000013_Node000012" class="edge">
<title>Node13&#45;&gt;Node12</title>
<g id="a_edge13_Node000013_Node000012"><a xlink:title=" ">
<path fill="none" stroke="#63b8ff" d="M153.79,-68.15C137.38,-70.1 119.1,-72.28 102.61,-74.24"/>
<polygon fill="#63b8ff" stroke="#63b8ff" points="153.8,-71.67 163.31,-67.02 152.97,-64.72 153.8,-71.67"/>
</a>
</g>
</g>
<!-- Node16&#45;&gt;Node2 -->
<g id="edge19_Node000016_Node000002" class="edge">
<title>Node16&#45;&gt;Node2</title>
<g id="a_edge19_Node000016_Node000002"><a xlink:title=" ">
<path fill="none" stroke="#63b8ff" d="M473.15,-58.6C452.94,-63.46 430.06,-68.96 411.05,-73.53"/>
<polygon fill="#63b8ff" stroke="#63b8ff" points="473.69,-62.07 482.6,-56.33 472.06,-55.26 473.69,-62.07"/>
</a>
</g>
</g>
<!-- Node17 -->
<g id="Node000017" class="node">
<title>Node17</title>
<g id="a_Node000017"><a xlink:href="a02187.html#gaf8a10ab4e51e59c464ab3ab473e4a0f7" target="_top" xlink:title=" ">
<polygon fill="white" stroke="#666666" points="432.75,-55.5 306.5,-55.5 306.5,-37 432.75,-37 432.75,-55.5"/>
<text text-anchor="middle" x="369.62" y="-42" font-family="Helvetica,sans-Serif" font-size="10.00">arax_accel_acquire_phys</text>
</a>
</g>
</g>
<!-- Node16&#45;&gt;Node17 -->
<g id="edge17_Node000016_Node000017" class="edge">
<title>Node16&#45;&gt;Node17</title>
<g id="a_edge17_Node000016_Node000017"><a xlink:title=" ">
<path fill="none" stroke="#63b8ff" d="M470.71,-46.25C458.57,-46.25 445.58,-46.25 433.11,-46.25"/>
<polygon fill="#63b8ff" stroke="#63b8ff" points="470.53,-49.75 480.53,-46.25 470.53,-42.75 470.53,-49.75"/>
</a>
</g>
</g>
<!-- Node18 -->
<g id="Node000018" class="node">
<title>Node18</title>
<g id="a_Node000018"><a xlink:href="a02187.html#ga008252bb9afc2990fa2c5f4b980c9f27" target="_top" xlink:title=" ">
<polygon fill="white" stroke="#666666" points="432,-18.5 307.25,-18.5 307.25,0 432,0 432,-18.5"/>
<text text-anchor="middle" x="369.62" y="-5" font-family="Helvetica,sans-Serif" font-size="10.00">arax_accel_acquire_type</text>
</a>
</g>
</g>
<!-- Node16&#45;&gt;Node18 -->
<g id="edge18_Node000016_Node000018" class="edge">
<title>Node16&#45;&gt;Node18</title>
<g id="a_edge18_Node000016_Node000018"><a xlink:title=" ">
<path fill="none" stroke="#63b8ff" d="M473.15,-33.9C452.94,-29.04 430.06,-23.54 411.05,-18.97"/>
<polygon fill="#63b8ff" stroke="#63b8ff" points="472.06,-37.24 482.6,-36.17 473.69,-30.43 472.06,-37.24"/>
</a>
</g>
</g>
</g>
</svg>
