<?xml version="1.0" encoding="UTF-8" standalone="no"?>
<!DOCTYPE svg PUBLIC "-//W3C//DTD SVG 1.1//EN"
 "http://www.w3.org/Graphics/SVG/1.1/DTD/svg11.dtd">
<!-- Generated by graphviz version 8.0.5 (0)
 -->
<!-- Title: arax_ptr_valid Pages: 1 -->
<svg width="1408pt" height="916pt"
 viewBox="0.00 0.00 1407.75 915.50" xmlns="http://www.w3.org/2000/svg" xmlns:xlink="http://www.w3.org/1999/xlink">
<g id="graph0" class="graph" transform="scale(1 1) rotate(0) translate(4 911.5)">
<title>arax_ptr_valid</title>
<!-- Node1 -->
<g id="Node000001" class="node">
<title>Node1</title>
<g id="a_Node000001"><a xlink:title=" ">
<polygon fill="#999999" stroke="#666666" points="76.75,-369.5 0,-369.5 0,-351 76.75,-351 76.75,-369.5"/>
<text text-anchor="middle" x="38.38" y="-356" font-family="Helvetica,sans-Serif" font-size="10.00">arax_ptr_valid</text>
</a>
</g>
</g>
<!-- Node2 -->
<g id="Node000002" class="node">
<title>Node2</title>
<g id="a_Node000002"><a xlink:href="a02174.html#gae1d371a2840849690acce147e7a205da" target="_top" xlink:title=" ">
<polygon fill="white" stroke="#666666" points="166.25,-369.5 112.75,-369.5 112.75,-351 166.25,-351 166.25,-369.5"/>
<text text-anchor="middle" x="139.5" y="-356" font-family="Helvetica,sans-Serif" font-size="10.00">arax_init</text>
</a>
</g>
</g>
<!-- Node1&#45;&gt;Node2 -->
<g id="edge1_Node000001_Node000002" class="edge">
<title>Node1&#45;&gt;Node2</title>
<g id="a_edge1_Node000001_Node000002"><a xlink:title=" ">
<path fill="none" stroke="#63b8ff" d="M77.13,-360.25C85.17,-360.25 93.64,-360.25 101.64,-360.25"/>
<polygon fill="#63b8ff" stroke="#63b8ff" points="101.53,-363.75 111.53,-360.25 101.53,-356.75 101.53,-363.75"/>
</a>
</g>
</g>
<!-- Node3 -->
<g id="Node000003" class="node">
<title>Node3</title>
<g id="a_Node000003"><a xlink:href="a01898.html#a02fd608f651d254148dc74f0ae371dfe" target="_top" xlink:title=" ">
<polygon fill="white" stroke="#666666" points="261,-369.5 202.25,-369.5 202.25,-351 261,-351 261,-369.5"/>
<text text-anchor="middle" x="231.62" y="-356" font-family="Helvetica,sans-Serif" font-size="10.00">_arax_init</text>
</a>
</g>
</g>
<!-- Node2&#45;&gt;Node3 -->
<g id="edge2_Node000002_Node000003" class="edge">
<title>Node2&#45;&gt;Node3</title>
<g id="a_edge2_Node000002_Node000003"><a xlink:title=" ">
<path fill="none" stroke="#63b8ff" d="M166.57,-360.25C174.14,-360.25 182.6,-360.25 190.82,-360.25"/>
<polygon fill="#63b8ff" stroke="#63b8ff" points="190.77,-363.75 200.77,-360.25 190.77,-356.75 190.77,-363.75"/>
</a>
</g>
</g>
<!-- Node4 -->
<g id="Node000004" class="node">
<title>Node4</title>
<g id="a_Node000004"><a xlink:href="a01913.html#a94ce6437cad359c8523f57fe50be020d" target="_top" xlink:title=" ">
<polygon fill="white" stroke="#666666" points="439.75,-907.5 297,-907.5 297,-889 439.75,-889 439.75,-907.5"/>
<text text-anchor="middle" x="368.38" y="-894" font-family="Helvetica,sans-Serif" font-size="10.00">arax_pipe_get_available_size</text>
</a>
</g>
</g>
<!-- Node3&#45;&gt;Node4 -->
<g id="edge3_Node000003_Node000004" class="edge">
<title>Node3&#45;&gt;Node4</title>
<g id="a_edge3_Node000003_Node000004"><a xlink:title=" ">
<path fill="none" stroke="#63b8ff" d="M232.42,-369.72C231.22,-433.4 227.48,-799.23 297,-879.25 297.93,-880.32 298.92,-881.34 299.96,-882.3"/>
<polygon fill="#63b8ff" stroke="#63b8ff" points="297.56,-885.62 307.71,-888.66 301.67,-879.95 297.56,-885.62"/>
</a>
</g>
</g>
<!-- Node6 -->
<g id="Node000006" class="node">
<title>Node6</title>
<g id="a_Node000006"><a xlink:href="a01913.html#a5006bea23d2b9964f0f7c12947180e01" target="_top" xlink:title=" ">
<polygon fill="white" stroke="#666666" points="433.38,-870.5 303.38,-870.5 303.38,-852 433.38,-852 433.38,-870.5"/>
<text text-anchor="middle" x="368.38" y="-857" font-family="Helvetica,sans-Serif" font-size="10.00">arax_pipe_have_to_mmap</text>
</a>
</g>
</g>
<!-- Node3&#45;&gt;Node6 -->
<g id="edge5_Node000003_Node000006" class="edge">
<title>Node3&#45;&gt;Node6</title>
<g id="a_edge5_Node000003_Node000006"><a xlink:title=" ">
<path fill="none" stroke="#63b8ff" d="M232.58,-369.7C232.47,-430.25 234.71,-763.45 297,-838.25 299.46,-841.2 302.31,-843.78 305.41,-846.03"/>
<polygon fill="#63b8ff" stroke="#63b8ff" points="303.37,-849.48 313.76,-851.54 306.92,-843.45 303.37,-849.48"/>
</a>
</g>
</g>
<!-- Node7 -->
<g id="Node000007" class="node">
<title>Node7</title>
<g id="a_Node000007"><a xlink:href="a01913.html#aa6293e9ec7776aa49ecf632fcc4f5e26" target="_top" xlink:title=" ">
<polygon fill="white" stroke="#666666" points="406.75,-444.5 330,-444.5 330,-426 406.75,-426 406.75,-444.5"/>
<text text-anchor="middle" x="368.38" y="-431" font-family="Helvetica,sans-Serif" font-size="10.00">arax_pipe_init</text>
</a>
</g>
</g>
<!-- Node3&#45;&gt;Node7 -->
<g id="edge6_Node000003_Node000007" class="edge">
<title>Node3&#45;&gt;Node7</title>
<g id="a_edge6_Node000003_Node000007"><a xlink:title=" ">
<path fill="none" stroke="#63b8ff" d="M249.97,-369.9C272.91,-382.67 313.58,-405.31 340.52,-420.3"/>
<polygon fill="#63b8ff" stroke="#63b8ff" points="338.66,-423.83 349.1,-425.64 342.07,-417.71 338.66,-423.83"/>
</a>
</g>
</g>
<!-- Node23 -->
<g id="Node000023" class="node">
<title>Node23</title>
<g id="a_Node000023"><a xlink:href="a01952.html#aff9af0356940583dfe3045e693cc8a45" target="_top" xlink:title=" ">
<polygon fill="white" stroke="#666666" points="783.75,-760.5 668.75,-760.5 668.75,-742 783.75,-742 783.75,-760.5"/>
<text text-anchor="middle" x="726.25" y="-747" font-family="Helvetica,sans-Serif" font-size="10.00">utils_config_alloc_path</text>
</a>
</g>
</g>
<!-- Node3&#45;&gt;Node23 -->
<g id="edge57_Node000003_Node000023" class="edge">
<title>Node3&#45;&gt;Node23</title>
<g id="a_edge57_Node000003_Node000023"><a xlink:title=" ">
<path fill="none" stroke="#63b8ff" d="M232.79,-369.91C233.93,-422.65 242.21,-675.28 297,-724.25 405.42,-821.15 597.48,-785.98 682.6,-763.8"/>
<polygon fill="#63b8ff" stroke="#63b8ff" points="683.4,-766.94 692.16,-760.98 681.59,-760.18 683.4,-766.94"/>
</a>
</g>
</g>
<!-- Node26 -->
<g id="Node000026" class="node">
<title>Node26</title>
<g id="a_Node000026"><a xlink:href="a01952.html#aa7aa94ad075bf97a566f01f899fcd859" target="_top" xlink:title=" ">
<polygon fill="white" stroke="#666666" points="780,-573.5 672.5,-573.5 672.5,-555 780,-555 780,-573.5"/>
<text text-anchor="middle" x="726.25" y="-560" font-family="Helvetica,sans-Serif" font-size="10.00">utils_config_get_bool</text>
</a>
</g>
</g>
<!-- Node3&#45;&gt;Node26 -->
<g id="edge58_Node000003_Node000026" class="edge">
<title>Node3&#45;&gt;Node26</title>
<g id="a_edge58_Node000003_Node000026"><a xlink:title=" ">
<path fill="none" stroke="#63b8ff" d="M237.46,-369.82C258.66,-410.47 348.03,-569.09 475.75,-619.25 539.77,-644.39 566.96,-645.57 630.5,-619.25 651.41,-610.59 647.2,-595.06 666.5,-583.25 669.66,-581.32 673.04,-579.56 676.51,-577.97"/>
<polygon fill="#63b8ff" stroke="#63b8ff" points="677.55,-580.92 685.48,-573.9 674.9,-574.43 677.55,-580.92"/>
</a>
</g>
</g>
<!-- Node38 -->
<g id="Node000038" class="node">
<title>Node38</title>
<g id="a_Node000038"><a xlink:href="a01913.html#a8d805b003097be6a6328a35c78bf558b" target="_top" xlink:title=" ">
<polygon fill="white" stroke="#666666" points="433.75,-166.5 303,-166.5 303,-148 433.75,-148 433.75,-166.5"/>
<text text-anchor="middle" x="368.38" y="-153" font-family="Helvetica,sans-Serif" font-size="10.00">arax_pipe_mmap_address</text>
</a>
</g>
</g>
<!-- Node3&#45;&gt;Node38 -->
<g id="edge34_Node000003_Node000038" class="edge">
<title>Node3&#45;&gt;Node38</title>
<g id="a_edge34_Node000003_Node000038"><a xlink:title=" ">
<path fill="none" stroke="#63b8ff" d="M232.99,-350.57C234.7,-320.12 244.2,-225.33 297,-176.25 298.53,-174.83 300.15,-173.51 301.85,-172.29"/>
<polygon fill="#63b8ff" stroke="#63b8ff" points="303.07,-175.05 309.91,-166.96 299.52,-169.02 303.07,-175.05"/>
</a>
</g>
</g>
<!-- Node39 -->
<g id="Node000039" class="node">
<title>Node39</title>
<g id="a_Node000039"><a xlink:href="a02352.html#aed6af4d83e934e3e654ead541b15f2d9" target="_top" xlink:title=" ">
<polygon fill="white" stroke="#666666" points="422.88,-203.5 313.88,-203.5 313.88,-185 422.88,-185 422.88,-203.5"/>
<text text-anchor="middle" x="368.38" y="-190" font-family="Helvetica,sans-Serif" font-size="10.00">async_condition_lock</text>
</a>
</g>
</g>
<!-- Node3&#45;&gt;Node39 -->
<g id="edge35_Node000003_Node000039" class="edge">
<title>Node3&#45;&gt;Node39</title>
<g id="a_edge35_Node000003_Node000039"><a xlink:title=" ">
<path fill="none" stroke="#63b8ff" d="M233.93,-350.67C238.03,-324.47 253.09,-251.06 297,-213.25 299.22,-211.34 301.61,-209.62 304.12,-208.08"/>
<polygon fill="#63b8ff" stroke="#63b8ff" points="305.37,-210.86 312.68,-203.19 302.18,-204.63 305.37,-210.86"/>
</a>
</g>
</g>
<!-- Node41 -->
<g id="Node000041" class="node">
<title>Node41</title>
<g id="a_Node000041"><a xlink:href="a02352.html#a3bbcb7c4c024e99d5c4ba52b61dfbbf7" target="_top" xlink:title=" ">
<polygon fill="white" stroke="#666666" points="786,-277.5 666.5,-277.5 666.5,-259 786,-259 786,-277.5"/>
<text text-anchor="middle" x="726.25" y="-264" font-family="Helvetica,sans-Serif" font-size="10.00">async_condition_unlock</text>
</a>
</g>
</g>
<!-- Node3&#45;&gt;Node41 -->
<g id="edge37_Node000003_Node000041" class="edge">
<title>Node3&#45;&gt;Node41</title>
<g id="a_edge37_Node000003_Node000041"><a xlink:title=" ">
<path fill="none" stroke="#63b8ff" d="M258.08,-350.61C301.85,-334.49 394.51,-302.36 475.75,-287.25 535.73,-276.1 604.99,-271.46 655.3,-269.55"/>
<polygon fill="#63b8ff" stroke="#63b8ff" points="655.19,-273.02 665.06,-269.17 654.94,-266.03 655.19,-273.02"/>
</a>
</g>
</g>
<!-- Node42 -->
<g id="Node000042" class="node">
<title>Node42</title>
<g id="a_Node000042"><a xlink:href="a02352.html#a1bfeaeb9b81855e640d7a67cc9d92b17" target="_top" xlink:title=" ">
<polygon fill="white" stroke="#666666" points="422.5,-240.5 314.25,-240.5 314.25,-222 422.5,-222 422.5,-240.5"/>
<text text-anchor="middle" x="368.38" y="-227" font-family="Helvetica,sans-Serif" font-size="10.00">async_condition_wait</text>
</a>
</g>
</g>
<!-- Node3&#45;&gt;Node42 -->
<g id="edge39_Node000003_Node000042" class="edge">
<title>Node3&#45;&gt;Node42</title>
<g id="a_edge39_Node000003_Node000042"><a xlink:title=" ">
<path fill="none" stroke="#63b8ff" d="M235.79,-350.78C243.15,-330.16 263.43,-280.87 297,-254.25 301.53,-250.66 306.65,-247.61 312,-245.04"/>
<polygon fill="#63b8ff" stroke="#63b8ff" points="312.95,-248.02 320.81,-240.9 310.23,-241.57 312.95,-248.02"/>
</a>
</g>
</g>
<!-- Node44 -->
<g id="Node000044" class="node">
<title>Node44</title>
<g id="a_Node000044"><a xlink:href="a02352.html#adbaa29dfccfdfe6e3fe69a1d001c05b5" target="_top" xlink:title=" ">
<polygon fill="white" stroke="#666666" points="613.62,-722.5 492.62,-722.5 492.62,-704 613.62,-704 613.62,-722.5"/>
<text text-anchor="middle" x="553.12" y="-709" font-family="Helvetica,sans-Serif" font-size="10.00">async_meta_init_always</text>
</a>
</g>
</g>
<!-- Node3&#45;&gt;Node44 -->
<g id="edge43_Node000003_Node000044" class="edge">
<title>Node3&#45;&gt;Node44</title>
<g id="a_edge43_Node000003_Node000044"><a xlink:title=" ">
<path fill="none" stroke="#63b8ff" d="M233.01,-369.96C235.18,-419.73 247.7,-645.77 297,-690.25 352.22,-740.07 444.16,-734.61 501.28,-724.84"/>
<polygon fill="#63b8ff" stroke="#63b8ff" points="501.66,-728.15 510.87,-722.91 500.41,-721.26 501.66,-728.15"/>
</a>
</g>
</g>
<!-- Node49 -->
<g id="Node000049" class="node">
<title>Node49</title>
<g id="a_Node000049"><a xlink:href="a01952.html#a1e8deff7c038efae14d1cc98e4ab109f" target="_top" xlink:title=" ">
<polygon fill="white" stroke="#666666" points="1101.12,-652.5 1000.38,-652.5 1000.38,-634 1101.12,-634 1101.12,-652.5"/>
<text text-anchor="middle" x="1050.75" y="-639" font-family="Helvetica,sans-Serif" font-size="10.00">utils_config_get_str</text>
</a>
</g>
</g>
<!-- Node3&#45;&gt;Node49 -->
<g id="edge63_Node000003_Node000049" class="edge">
<title>Node3&#45;&gt;Node49</title>
<g id="a_edge63_Node000003_Node000049"><a xlink:title=" ">
<path fill="none" stroke="#63b8ff" d="M232.73,-369.77C233.57,-425.32 240.56,-707.15 297,-767.25 376.53,-851.95 435.94,-824.25 552.12,-824.25 552.12,-824.25 552.12,-824.25 727.25,-824.25 831.48,-824.25 873.55,-861.97 961,-805.25 1012.25,-772.01 1036.37,-698.56 1045.36,-663.13"/>
<polygon fill="#63b8ff" stroke="#63b8ff" points="1048.93,-664.22 1047.84,-653.68 1042.12,-662.6 1048.93,-664.22"/>
</a>
</g>
</g>
<!-- Node50 -->
<g id="Node000050" class="node">
<title>Node50</title>
<g id="a_Node000050"><a xlink:href="a01955.html#ad8ca0aa2e50dbe9c1827c2d4da814cf6" target="_top" xlink:title=" ">
<polygon fill="white" stroke="#666666" points="407.88,-129.5 328.88,-129.5 328.88,-111 407.88,-111 407.88,-129.5"/>
<text text-anchor="middle" x="368.38" y="-116" font-family="Helvetica,sans-Serif" font-size="10.00">system_mmap</text>
</a>
</g>
</g>
<!-- Node3&#45;&gt;Node50 -->
<g id="edge53_Node000003_Node000050" class="edge">
<title>Node3&#45;&gt;Node50</title>
<g id="a_edge53_Node000003_Node000050"><a xlink:title=" ">
<path fill="none" stroke="#63b8ff" d="M232.34,-350.65C231.88,-316.54 235.08,-199.96 297,-139.25 302.91,-133.46 310.38,-129.39 318.25,-126.53"/>
<polygon fill="#63b8ff" stroke="#63b8ff" points="319.11,-129.63 327.7,-123.44 317.12,-122.92 319.11,-129.63"/>
</a>
</g>
</g>
<!-- Node51 -->
<g id="Node000051" class="node">
<title>Node51</title>
<g id="a_Node000051"><a xlink:href="a01955.html#a38809d11e47f180968c23903fed321ef" target="_top" xlink:title=" ">
<polygon fill="white" stroke="#666666" points="418,-92.5 318.75,-92.5 318.75,-74 418,-74 418,-92.5"/>
<text text-anchor="middle" x="368.38" y="-79" font-family="Helvetica,sans-Serif" font-size="10.00">system_process_id</text>
</a>
</g>
</g>
<!-- Node3&#45;&gt;Node51 -->
<g id="edge55_Node000003_Node000051" class="edge">
<title>Node3&#45;&gt;Node51</title>
<g id="a_edge55_Node000003_Node000051"><a xlink:title=" ">
<path fill="none" stroke="#63b8ff" d="M233.73,-350.61C238.76,-308.25 260.87,-139.08 297,-102.25 300.38,-98.8 304.32,-95.96 308.57,-93.62"/>
<polygon fill="#63b8ff" stroke="#63b8ff" points="309.6,-96.55 317.29,-89.26 306.73,-90.16 309.6,-96.55"/>
</a>
</g>
</g>
<!-- Node52 -->
<g id="Node000052" class="node">
<title>Node52</title>
<g id="a_Node000052"><a xlink:href="a01955.html#a54bd28e423e19877e5abcb1fe3d12c03" target="_top" xlink:title=" ">
<polygon fill="white" stroke="#666666" points="424.38,-55.5 312.38,-55.5 312.38,-37 424.38,-37 424.38,-55.5"/>
<text text-anchor="middle" x="368.38" y="-42" font-family="Helvetica,sans-Serif" font-size="10.00">system_total_memory</text>
</a>
</g>
</g>
<!-- Node3&#45;&gt;Node52 -->
<g id="edge56_Node000003_Node000052" class="edge">
<title>Node3&#45;&gt;Node52</title>
<g id="a_edge56_Node000003_Node000052"><a xlink:title=" ">
<path fill="none" stroke="#63b8ff" d="M233.41,-350.51C237.34,-304.34 256.24,-108.05 297,-65.25 298.87,-63.29 300.92,-61.52 303.11,-59.92"/>
<polygon fill="#63b8ff" stroke="#63b8ff" points="304.29,-62.7 311.14,-54.62 300.74,-56.67 304.29,-62.7"/>
</a>
</g>
</g>
<!-- Node53 -->
<g id="Node000053" class="node">
<title>Node53</title>
<g id="a_Node000053"><a xlink:href="a01952.html#a4a525d89ade920512dc65409bc8e85d8" target="_top" xlink:title=" ">
<polygon fill="white" stroke="#666666" points="779.62,-647.5 672.88,-647.5 672.88,-629 779.62,-629 779.62,-647.5"/>
<text text-anchor="middle" x="726.25" y="-634" font-family="Helvetica,sans-Serif" font-size="10.00">utils_config_get_size</text>
</a>
</g>
</g>
<!-- Node3&#45;&gt;Node53 -->
<g id="edge59_Node000003_Node000053" class="edge">
<title>Node3&#45;&gt;Node53</title>
<g id="a_edge59_Node000003_Node000053"><a xlink:title=" ">
<path fill="none" stroke="#63b8ff" d="M233.42,-369.66C236.38,-399.35 249.2,-492.44 297,-548.25 397.18,-665.21 476.54,-645.5 630.5,-642.25 640.64,-642.04 651.39,-641.69 661.86,-641.3"/>
<polygon fill="#63b8ff" stroke="#63b8ff" points="661.79,-644.76 671.64,-640.87 661.51,-637.77 661.79,-644.76"/>
</a>
</g>
</g>
<!-- Node33 -->
<g id="Node000033" class="node">
<title>Node33</title>
<g id="a_Node000033"><a xlink:href="a01952.html#a17713c8e9b90065e23b0ec1a225f79ab" target="_top" xlink:title=" ">
<polygon fill="white" stroke="#666666" points="427.75,-18.5 309,-18.5 309,0 427.75,0 427.75,-18.5"/>
<text text-anchor="middle" x="368.38" y="-5" font-family="Helvetica,sans-Serif" font-size="10.00">utils_config_get_source</text>
</a>
</g>
</g>
<!-- Node3&#45;&gt;Node33 -->
<g id="edge61_Node000003_Node000033" class="edge">
<title>Node3&#45;&gt;Node33</title>
<g id="a_edge61_Node000003_Node000033"><a xlink:title=" ">
<path fill="none" stroke="#63b8ff" d="M233.15,-350.64C236.03,-301.33 251.51,-77.15 297,-28.25 298.1,-27.06 299.27,-25.95 300.5,-24.9"/>
<polygon fill="#63b8ff" stroke="#63b8ff" points="302.01,-27.42 308.32,-18.91 298.08,-21.63 302.01,-27.42"/>
</a>
</g>
</g>
<!-- Node5 -->
<g id="Node000005" class="node">
<title>Node5</title>
<g id="a_Node000005"><a xlink:href="a01925.html#a078da9ec8e2f9a4470f10ee3059bd593" target="_top" xlink:title=" ">
<polygon fill="white" stroke="#666666" points="630.5,-907.5 475.75,-907.5 475.75,-889 630.5,-889 630.5,-907.5"/>
<text text-anchor="middle" x="553.12" y="-894" font-family="Helvetica,sans-Serif" font-size="10.00">arax_throttle_get_available_size</text>
</a>
</g>
</g>
<!-- Node4&#45;&gt;Node5 -->
<g id="edge4_Node000004_Node000005" class="edge">
<title>Node4&#45;&gt;Node5</title>
<g id="a_edge4_Node000004_Node000005"><a xlink:title=" ">
<path fill="none" stroke="#63b8ff" d="M440.03,-898.25C448.06,-898.25 456.32,-898.25 464.53,-898.25"/>
<polygon fill="#63b8ff" stroke="#63b8ff" points="464.29,-901.75 474.29,-898.25 464.29,-894.75 464.29,-901.75"/>
</a>
</g>
</g>
<!-- Node8 -->
<g id="Node000008" class="node">
<title>Node8</title>
<g id="a_Node000008"><a xlink:href="a01910.html#a86352ba91ba482c6688b7364d10bf956" target="_top" xlink:title=" ">
<polygon fill="white" stroke="#666666" points="607.62,-536.5 498.62,-536.5 498.62,-518 607.62,-518 607.62,-536.5"/>
<text text-anchor="middle" x="553.12" y="-523" font-family="Helvetica,sans-Serif" font-size="10.00">arax_object_repo_init</text>
</a>
</g>
</g>
<!-- Node7&#45;&gt;Node8 -->
<g id="edge7_Node000007_Node000008" class="edge">
<title>Node7&#45;&gt;Node8</title>
<g id="a_edge7_Node000007_Node000008"><a xlink:title=" ">
<path fill="none" stroke="#63b8ff" d="M381.79,-444.99C400.97,-459.64 439.4,-487.4 475.75,-504.25 483.97,-508.06 492.97,-511.42 501.82,-514.32"/>
<polygon fill="#63b8ff" stroke="#63b8ff" points="500.5,-517.88 511.09,-517.51 502.58,-511.2 500.5,-517.88"/>
</a>
</g>
</g>
<!-- Node9 -->
<g id="Node000009" class="node">
<title>Node9</title>
<g id="a_Node000009"><a xlink:href="a01946.html#ab36e49d2e694b1da49504a689ed48e4a" target="_top" xlink:title=" ">
<polygon fill="white" stroke="#666666" points="761.25,-536.5 691.25,-536.5 691.25,-518 761.25,-518 761.25,-536.5"/>
<text text-anchor="middle" x="726.25" y="-523" font-family="Helvetica,sans-Serif" font-size="10.00">utils_list_init</text>
</a>
</g>
</g>
<!-- Node7&#45;&gt;Node9 -->
<g id="edge33_Node000007_Node000009" class="edge">
<title>Node7&#45;&gt;Node9</title>
<g id="a_edge33_Node000007_Node000009"><a xlink:title=" ">
<path fill="none" stroke="#63b8ff" d="M395.36,-444.9C416.76,-452.64 447.97,-463.45 475.75,-471.25 546.63,-491.14 630.38,-508.76 680.58,-518.7"/>
<polygon fill="#63b8ff" stroke="#63b8ff" points="679.58,-522.27 690.07,-520.77 680.93,-515.4 679.58,-522.27"/>
</a>
</g>
</g>
<!-- Node11 -->
<g id="Node000011" class="node">
<title>Node11</title>
<g id="a_Node000011"><a xlink:href="a01913.html#a60dde947b05bc69599a6c7d92c38d088" target="_top" xlink:title=" ">
<polygon fill="white" stroke="#666666" points="612.88,-610.5 493.38,-610.5 493.38,-592 612.88,-592 612.88,-610.5"/>
<text text-anchor="middle" x="553.12" y="-597" font-family="Helvetica,sans-Serif" font-size="10.00">arax_pipe_add_process</text>
</a>
</g>
</g>
<!-- Node7&#45;&gt;Node11 -->
<g id="edge10_Node000007_Node000011" class="edge">
<title>Node7&#45;&gt;Node11</title>
<g id="a_edge10_Node000007_Node000011"><a xlink:title=" ">
<path fill="none" stroke="#63b8ff" d="M373.47,-444.95C385.16,-471.45 421.45,-545.57 475.75,-582.25 478.49,-584.1 481.4,-585.77 484.41,-587.28"/>
<polygon fill="#63b8ff" stroke="#63b8ff" points="482.78,-590.82 493.35,-591.57 485.55,-584.39 482.78,-590.82"/>
</a>
</g>
</g>
<!-- Node12 -->
<g id="Node000012" class="node">
<title>Node12</title>
<g id="a_Node000012"><a xlink:href="a01925.html#acf84ea82594c4dbe91cf602ee078e04d" target="_top" xlink:title=" ">
<polygon fill="white" stroke="#666666" points="597.5,-462.5 508.75,-462.5 508.75,-444 597.5,-444 597.5,-462.5"/>
<text text-anchor="middle" x="553.12" y="-449" font-family="Helvetica,sans-Serif" font-size="10.00">arax_throttle_init</text>
</a>
</g>
</g>
<!-- Node7&#45;&gt;Node12 -->
<g id="edge11_Node000007_Node000012" class="edge">
<title>Node7&#45;&gt;Node12</title>
<g id="a_edge11_Node000007_Node000012"><a xlink:title=" ">
<path fill="none" stroke="#63b8ff" d="M407.24,-438.98C433.38,-441.55 468.55,-445.02 497.69,-447.89"/>
<polygon fill="#63b8ff" stroke="#63b8ff" points="497.23,-451.46 507.53,-448.96 497.92,-444.49 497.23,-451.46"/>
</a>
</g>
</g>
<!-- Node13 -->
<g id="Node000013" class="node">
<title>Node13</title>
<g id="a_Node000013"><a xlink:href="a02352.html#ac7fbf1f43289d3e0e862b315f00e35e2" target="_top" xlink:title=" ">
<polygon fill="white" stroke="#666666" points="778.12,-425.5 674.38,-425.5 674.38,-407 778.12,-407 778.12,-425.5"/>
<text text-anchor="middle" x="726.25" y="-412" font-family="Helvetica,sans-Serif" font-size="10.00">async_condition_init</text>
</a>
</g>
</g>
<!-- Node7&#45;&gt;Node13 -->
<g id="edge20_Node000007_Node000013" class="edge">
<title>Node7&#45;&gt;Node13</title>
<g id="a_edge20_Node000007_Node000013"><a xlink:title=" ">
<path fill="none" stroke="#63b8ff" d="M407.12,-433.23C468.25,-429.97 589.48,-423.5 663.36,-419.55"/>
<polygon fill="#63b8ff" stroke="#63b8ff" points="663.11,-423.02 672.91,-418.99 662.73,-416.03 663.11,-423.02"/>
</a>
</g>
</g>
<!-- Node19 -->
<g id="Node000019" class="node">
<title>Node19</title>
<g id="a_Node000019"><a xlink:href="a02343.html#a75bfaa5e934f1853fc8fd536ea469ad9" target="_top" xlink:title=" ">
<polygon fill="white" stroke="#666666" points="609.5,-388.5 496.75,-388.5 496.75,-370 609.5,-370 609.5,-388.5"/>
<text text-anchor="middle" x="553.12" y="-375" font-family="Helvetica,sans-Serif" font-size="10.00">arch_alloc_init_always</text>
</a>
</g>
</g>
<!-- Node7&#45;&gt;Node19 -->
<g id="edge17_Node000007_Node000019" class="edge">
<title>Node7&#45;&gt;Node19</title>
<g id="a_edge17_Node000007_Node000019"><a xlink:title=" ">
<path fill="none" stroke="#63b8ff" d="M400.54,-425.51C421.73,-418.9 450.42,-409.99 475.75,-402.25 486.69,-398.91 498.52,-395.33 509.53,-392.01"/>
<polygon fill="#63b8ff" stroke="#63b8ff" points="510.21,-395.16 518.78,-388.93 508.19,-388.46 510.21,-395.16"/>
</a>
</g>
</g>
<!-- Node20 -->
<g id="Node000020" class="node">
<title>Node20</title>
<g id="a_Node000020"><a xlink:href="a02343.html#a44fec37f87bcd49aaacc97696f9e0e7d" target="_top" xlink:title=" ">
<polygon fill="white" stroke="#666666" points="605.38,-351.5 500.88,-351.5 500.88,-333 605.38,-333 605.38,-351.5"/>
<text text-anchor="middle" x="553.12" y="-338" font-family="Helvetica,sans-Serif" font-size="10.00">arch_alloc_init_once</text>
</a>
</g>
</g>
<!-- Node7&#45;&gt;Node20 -->
<g id="edge18_Node000007_Node000020" class="edge">
<title>Node7&#45;&gt;Node20</title>
<g id="a_edge18_Node000007_Node000020"><a xlink:title=" ">
<path fill="none" stroke="#63b8ff" d="M380.34,-425.55C398.76,-409.77 437.64,-378.53 475.75,-361.25 480.75,-358.98 486.07,-356.95 491.48,-355.15"/>
<polygon fill="#63b8ff" stroke="#63b8ff" points="492.39,-358.23 500.93,-351.96 490.35,-351.53 492.39,-358.23"/>
</a>
</g>
</g>
<!-- Node22 -->
<g id="Node000022" class="node">
<title>Node22</title>
<g id="a_Node000022"><a xlink:href="a02352.html#ab2e422aab2fcfa562795beb2843e8019" target="_top" xlink:title=" ">
<polygon fill="white" stroke="#666666" points="609.5,-573.5 496.75,-573.5 496.75,-555 609.5,-555 609.5,-573.5"/>
<text text-anchor="middle" x="553.12" y="-560" font-family="Helvetica,sans-Serif" font-size="10.00">async_meta_init_once</text>
</a>
</g>
</g>
<!-- Node7&#45;&gt;Node22 -->
<g id="edge21_Node000007_Node000022" class="edge">
<title>Node7&#45;&gt;Node22</title>
<g id="a_edge21_Node000007_Node000022"><a xlink:title=" ">
<path fill="none" stroke="#63b8ff" d="M375.81,-444.93C390.69,-466.5 429.72,-518.71 475.75,-545.25 479.38,-547.34 483.23,-549.2 487.2,-550.86"/>
<polygon fill="#63b8ff" stroke="#63b8ff" points="485.66,-554.39 496.25,-554.58 488.09,-547.83 485.66,-554.39"/>
</a>
</g>
</g>
<!-- Node37 -->
<g id="Node000037" class="node">
<title>Node37</title>
<g id="a_Node000037"><a xlink:href="a01934.html#a2e86c7792c1e7e0e1bdf1fe1a25dcab0" target="_top" xlink:title=" ">
<polygon fill="white" stroke="#666666" points="587,-314.5 519.25,-314.5 519.25,-296 587,-296 587,-314.5"/>
<text text-anchor="middle" x="553.12" y="-301" font-family="Helvetica,sans-Serif" font-size="10.00">utils_kv_init</text>
</a>
</g>
</g>
<!-- Node7&#45;&gt;Node37 -->
<g id="edge32_Node000007_Node000037" class="edge">
<title>Node7&#45;&gt;Node37</title>
<g id="a_edge32_Node000007_Node000037"><a xlink:title=" ">
<path fill="none" stroke="#63b8ff" d="M375.57,-425.81C390.23,-404.24 429.33,-351.15 475.75,-324.25 485.69,-318.49 497.35,-314.46 508.52,-311.65"/>
<polygon fill="#63b8ff" stroke="#63b8ff" points="509.01,-314.9 518,-309.31 507.48,-308.07 509.01,-314.9"/>
</a>
</g>
</g>
<!-- Node8&#45;&gt;Node9 -->
<g id="edge8_Node000008_Node000009" class="edge">
<title>Node8&#45;&gt;Node9</title>
<g id="a_edge8_Node000008_Node000009"><a xlink:title=" ">
<path fill="none" stroke="#63b8ff" d="M607.8,-527.25C631.03,-527.25 657.91,-527.25 680.09,-527.25"/>
<polygon fill="#63b8ff" stroke="#63b8ff" points="679.89,-530.75 689.89,-527.25 679.89,-523.75 679.89,-530.75"/>
</a>
</g>
</g>
<!-- Node10 -->
<g id="Node000010" class="node">
<title>Node10</title>
<g id="a_Node000010"><a xlink:href="a01946.html#a63f2791c9b5c8e2fa15967cfafb7ccbb" target="_top" xlink:title=" ">
<polygon fill="white" stroke="#666666" points="939.62,-536.5 843.38,-536.5 843.38,-518 939.62,-518 939.62,-536.5"/>
<text text-anchor="middle" x="891.5" y="-523" font-family="Helvetica,sans-Serif" font-size="10.00">utils_list_node_init</text>
</a>
</g>
</g>
<!-- Node9&#45;&gt;Node10 -->
<g id="edge9_Node000009_Node000010" class="edge">
<title>Node9&#45;&gt;Node10</title>
<g id="a_edge9_Node000009_Node000010"><a xlink:title=" ">
<path fill="none" stroke="#63b8ff" d="M761.47,-527.25C781.89,-527.25 808.37,-527.25 832.02,-527.25"/>
<polygon fill="#63b8ff" stroke="#63b8ff" points="832.01,-530.75 842.01,-527.25 832.01,-523.75 832.01,-530.75"/>
</a>
</g>
</g>
<!-- Node12&#45;&gt;Node13 -->
<g id="edge12_Node000012_Node000013" class="edge">
<title>Node12&#45;&gt;Node13</title>
<g id="a_edge12_Node000012_Node000013"><a xlink:title=" ">
<path fill="none" stroke="#63b8ff" d="M597.75,-443.82C619.65,-439.08 646.41,-433.3 669.76,-428.25"/>
<polygon fill="#63b8ff" stroke="#63b8ff" points="670.18,-431.52 679.21,-425.99 668.7,-424.68 670.18,-431.52"/>
</a>
</g>
</g>
<!-- Node14 -->
<g id="Node000014" class="node">
<title>Node14</title>
<g id="a_Node000014"><a xlink:href="a02346.html#ad1d30ecbf6bff6457b680aa940281072" target="_top" xlink:title=" ">
<polygon fill="white" stroke="#666666" points="961,-277.5 822,-277.5 822,-259 961,-259 961,-277.5"/>
<text text-anchor="middle" x="891.5" y="-264" font-family="Helvetica,sans-Serif" font-size="10.00">async_completion_complete</text>
</a>
</g>
</g>
<!-- Node13&#45;&gt;Node14 -->
<g id="edge13_Node000013_Node000014" class="edge">
<title>Node13&#45;&gt;Node14</title>
<g id="a_edge13_Node000013_Node000014"><a xlink:title=" ">
<path fill="none" stroke="#63b8ff" d="M737.96,-406.54C765.3,-381.76 837.89,-315.95 872.13,-284.9"/>
<polygon fill="#63b8ff" stroke="#63b8ff" points="873.9,-288.11 878.96,-278.8 869.2,-282.93 873.9,-288.11"/>
</a>
</g>
</g>
<!-- Node15 -->
<g id="Node000015" class="node">
<title>Node15</title>
<g id="a_Node000015"><a xlink:href="a02346.html#ac728117d73179c279de49e01ae905dda" target="_top" xlink:title=" ">
<polygon fill="white" stroke="#666666" points="947.5,-425.5 835.5,-425.5 835.5,-407 947.5,-407 947.5,-425.5"/>
<text text-anchor="middle" x="891.5" y="-412" font-family="Helvetica,sans-Serif" font-size="10.00">async_completion_init</text>
</a>
</g>
</g>
<!-- Node13&#45;&gt;Node15 -->
<g id="edge14_Node000013_Node000015" class="edge">
<title>Node13&#45;&gt;Node15</title>
<g id="a_edge14_Node000013_Node000015"><a xlink:title=" ">
<path fill="none" stroke="#63b8ff" d="M778.46,-416.25C792.98,-416.25 809,-416.25 824.27,-416.25"/>
<polygon fill="#63b8ff" stroke="#63b8ff" points="824.23,-419.75 834.23,-416.25 824.23,-412.75 824.23,-419.75"/>
</a>
</g>
</g>
<!-- Node16 -->
<g id="Node000016" class="node">
<title>Node16</title>
<g id="a_Node000016"><a xlink:href="a02349.html#a3bbcb7c4c024e99d5c4ba52b61dfbbf7" target="_top" xlink:title=" ">
<polygon fill="#fff0f0" stroke="red" points="951.25,-388.5 831.75,-388.5 831.75,-370 951.25,-370 951.25,-388.5"/>
<text text-anchor="middle" x="891.5" y="-375" font-family="Helvetica,sans-Serif" font-size="10.00">async_condition_unlock</text>
</a>
</g>
</g>
<!-- Node13&#45;&gt;Node16 -->
<g id="edge15_Node000013_Node000016" class="edge">
<title>Node13&#45;&gt;Node16</title>
<g id="a_edge15_Node000013_Node000016"><a xlink:title=" ">
<path fill="none" stroke="#63b8ff" d="M770.14,-406.53C790.59,-401.89 815.26,-396.3 836.92,-391.39"/>
<polygon fill="#63b8ff" stroke="#63b8ff" points="837.63,-394.59 846.61,-388.97 836.09,-387.77 837.63,-394.59"/>
</a>
</g>
</g>
<!-- Node18 -->
<g id="Node000018" class="node">
<title>Node18</title>
<g id="a_Node000018"><a xlink:href="a02346.html#a2a7d01fc7720e936a430efc09d094c6c" target="_top" xlink:title=" ">
<polygon fill="white" stroke="#666666" points="947.88,-462.5 835.12,-462.5 835.12,-444 947.88,-444 947.88,-462.5"/>
<text text-anchor="middle" x="891.5" y="-449" font-family="Helvetica,sans-Serif" font-size="10.00">async_semaphore_init</text>
</a>
</g>
</g>
<!-- Node13&#45;&gt;Node18 -->
<g id="edge16_Node000013_Node000018" class="edge">
<title>Node13&#45;&gt;Node18</title>
<g id="a_edge16_Node000013_Node000018"><a xlink:title=" ">
<path fill="none" stroke="#63b8ff" d="M770.14,-425.97C790.59,-430.61 815.26,-436.2 836.92,-441.11"/>
<polygon fill="#63b8ff" stroke="#63b8ff" points="836.09,-444.73 846.61,-443.53 837.63,-437.91 836.09,-444.73"/>
</a>
</g>
</g>
<!-- Node21 -->
<g id="Node000021" class="node">
<title>Node21</title>
<g id="a_Node000021"><a xlink:href="a01943.html#a6699a24a46fb1be57ca21abf8bc61928" target="_top" xlink:title=" ">
<polygon fill="white" stroke="#666666" points="769.5,-351.5 683,-351.5 683,-333 769.5,-333 769.5,-351.5"/>
<text text-anchor="middle" x="726.25" y="-338" font-family="Helvetica,sans-Serif" font-size="10.00">utils_bitmap_init</text>
</a>
</g>
</g>
<!-- Node20&#45;&gt;Node21 -->
<g id="edge19_Node000020_Node000021" class="edge">
<title>Node20&#45;&gt;Node21</title>
<g id="a_edge19_Node000020_Node000021"><a xlink:title=" ">
<path fill="none" stroke="#63b8ff" d="M605.47,-342.25C626.43,-342.25 650.67,-342.25 671.83,-342.25"/>
<polygon fill="#63b8ff" stroke="#63b8ff" points="671.59,-345.75 681.59,-342.25 671.59,-338.75 671.59,-345.75"/>
</a>
</g>
</g>
<!-- Node22&#45;&gt;Node9 -->
<g id="edge31_Node000022_Node000009" class="edge">
<title>Node22&#45;&gt;Node9</title>
<g id="a_edge31_Node000022_Node000009"><a xlink:title=" ">
<path fill="none" stroke="#63b8ff" d="M599.09,-554.53C624.1,-549.12 655.15,-542.41 680.18,-537"/>
<polygon fill="#63b8ff" stroke="#63b8ff" points="680.82,-540.22 689.86,-534.69 679.34,-533.38 680.82,-540.22"/>
</a>
</g>
</g>
<!-- Node22&#45;&gt;Node23 -->
<g id="edge22_Node000022_Node000023" class="edge">
<title>Node22&#45;&gt;Node23</title>
<g id="a_edge22_Node000022_Node000023"><a xlink:title=" ">
<path fill="none" stroke="#63b8ff" d="M609.71,-570.39C617.45,-573.31 624.72,-577.44 630.5,-583.25 678.24,-631.24 620.82,-681.29 666.5,-731.25 667.97,-732.86 669.58,-734.34 671.29,-735.7"/>
<polygon fill="#63b8ff" stroke="#63b8ff" points="669.25,-739.18 679.57,-741.56 672.99,-733.27 669.25,-739.18"/>
</a>
</g>
</g>
<!-- Node25 -->
<g id="Node000025" class="node">
<title>Node25</title>
<g id="a_Node000025"><a xlink:href="a01952.html#a84f3886cdcb91a28bf13b07aae8b2285" target="_top" xlink:title=" ">
<polygon fill="white" stroke="#666666" points="781.88,-610.5 670.62,-610.5 670.62,-592 781.88,-592 781.88,-610.5"/>
<text text-anchor="middle" x="726.25" y="-597" font-family="Helvetica,sans-Serif" font-size="10.00">utils_config_free_path</text>
</a>
</g>
</g>
<!-- Node22&#45;&gt;Node25 -->
<g id="edge24_Node000022_Node000025" class="edge">
<title>Node22&#45;&gt;Node25</title>
<g id="a_edge24_Node000022_Node000025"><a xlink:title=" ">
<path fill="none" stroke="#63b8ff" d="M599.09,-573.97C620.71,-578.65 646.85,-584.3 669.71,-589.24"/>
<polygon fill="#63b8ff" stroke="#63b8ff" points="668.78,-592.84 679.29,-591.53 670.26,-586 668.78,-592.84"/>
</a>
</g>
</g>
<!-- Node22&#45;&gt;Node26 -->
<g id="edge25_Node000022_Node000026" class="edge">
<title>Node22&#45;&gt;Node26</title>
<g id="a_edge25_Node000022_Node000026"><a xlink:title=" ">
<path fill="none" stroke="#63b8ff" d="M609.68,-564.25C626.1,-564.25 644.19,-564.25 661.1,-564.25"/>
<polygon fill="#63b8ff" stroke="#63b8ff" points="661.01,-567.75 671.01,-564.25 661.01,-560.75 661.01,-567.75"/>
</a>
</g>
</g>
<!-- Node24 -->
<g id="Node000024" class="node">
<title>Node24</title>
<g id="a_Node000024"><a xlink:href="a01955.html#a0844807fe9679a9a5fbf1bfc9dd78dc6" target="_top" xlink:title=" ">
<polygon fill="white" stroke="#666666" points="941.5,-796.5 841.5,-796.5 841.5,-778 941.5,-778 941.5,-796.5"/>
<text text-anchor="middle" x="891.5" y="-783" font-family="Helvetica,sans-Serif" font-size="10.00">system_home_path</text>
</a>
</g>
</g>
<!-- Node23&#45;&gt;Node24 -->
<g id="edge23_Node000023_Node000024" class="edge">
<title>Node23&#45;&gt;Node24</title>
<g id="a_edge23_Node000023_Node000024"><a xlink:title=" ">
<path fill="none" stroke="#63b8ff" d="M771.43,-760.99C791.21,-765.35 814.74,-770.54 835.63,-775.15"/>
<polygon fill="#63b8ff" stroke="#63b8ff" points="834.77,-778.76 845.29,-777.5 836.28,-771.93 834.77,-778.76"/>
</a>
</g>
</g>
<!-- Node27 -->
<g id="Node000027" class="node">
<title>Node27</title>
<g id="a_Node000027"><a xlink:href="a01952.html#a336fa8eefc3d744aa7248d6786cfee03" target="_top" xlink:title=" ">
<polygon fill="white" stroke="#666666" points="941.5,-573.5 841.5,-573.5 841.5,-555 941.5,-555 941.5,-573.5"/>
<text text-anchor="middle" x="891.5" y="-560" font-family="Helvetica,sans-Serif" font-size="10.00">utils_config_get_int</text>
</a>
</g>
</g>
<!-- Node26&#45;&gt;Node27 -->
<g id="edge26_Node000026_Node000027" class="edge">
<title>Node26&#45;&gt;Node27</title>
<g id="a_edge26_Node000026_Node000027"><a xlink:title=" ">
<path fill="none" stroke="#63b8ff" d="M780.25,-564.25C796.29,-564.25 814.02,-564.25 830.48,-564.25"/>
<polygon fill="#63b8ff" stroke="#63b8ff" points="830.09,-567.75 840.09,-564.25 830.09,-560.75 830.09,-567.75"/>
</a>
</g>
</g>
<!-- Node28 -->
<g id="Node000028" class="node">
<title>Node28</title>
<g id="a_Node000028"><a xlink:href="a01952.html#a1a28ba7c7791236d03b1fa9f81aa6a71" target="_top" xlink:title=" ">
<polygon fill="white" stroke="#666666" points="1104.5,-601.5 997,-601.5 997,-583 1104.5,-583 1104.5,-601.5"/>
<text text-anchor="middle" x="1050.75" y="-588" font-family="Helvetica,sans-Serif" font-size="10.00">utils_config_get_long</text>
</a>
</g>
</g>
<!-- Node27&#45;&gt;Node28 -->
<g id="edge27_Node000027_Node000028" class="edge">
<title>Node27&#45;&gt;Node28</title>
<g id="a_edge27_Node000027_Node000028"><a xlink:title=" ">
<path fill="none" stroke="#63b8ff" d="M941.82,-573.03C955.81,-575.52 971.24,-578.27 985.96,-580.89"/>
<polygon fill="#63b8ff" stroke="#63b8ff" points="985.05,-584.46 995.51,-582.77 986.28,-577.57 985.05,-584.46"/>
</a>
</g>
</g>
<!-- Node29 -->
<g id="Node000029" class="node">
<title>Node29</title>
<g id="a_Node000029"><a xlink:href="a01952.html#a0738274ac3fd171eda6bfb42492bc0d7" target="_top" xlink:title=" ">
<polygon fill="#fff0f0" stroke="red" points="1251,-620.5 1145,-620.5 1145,-602 1251,-602 1251,-620.5"/>
<text text-anchor="middle" x="1198" y="-607" font-family="Helvetica,sans-Serif" font-size="10.00">_utils_config_get_str</text>
</a>
</g>
</g>
<!-- Node28&#45;&gt;Node29 -->
<g id="edge28_Node000028_Node000029" class="edge">
<title>Node28&#45;&gt;Node29</title>
<g id="a_edge28_Node000028_Node000029"><a xlink:title=" ">
<path fill="none" stroke="#63b8ff" d="M1104.6,-599.16C1114.25,-600.43 1124.4,-601.75 1134.31,-603.05"/>
<polygon fill="#63b8ff" stroke="#63b8ff" points="1133.55,-606.61 1143.92,-604.44 1134.46,-599.67 1133.55,-606.61"/>
</a>
</g>
</g>
<!-- Node34 -->
<g id="Node000034" class="node">
<title>Node34</title>
<g id="a_Node000034"><a xlink:href="a01952.html#a88091e179416d4beec1b5681cfb68742" target="_top" xlink:title=" ">
<polygon fill="white" stroke="#666666" points="1255.5,-583.5 1140.5,-583.5 1140.5,-565 1255.5,-565 1255.5,-583.5"/>
<text text-anchor="middle" x="1198" y="-570" font-family="Helvetica,sans-Serif" font-size="10.00">utils_config_write_long</text>
</a>
</g>
</g>
<!-- Node28&#45;&gt;Node34 -->
<g id="edge29_Node000028_Node000034" class="edge">
<title>Node28&#45;&gt;Node34</title>
<g id="a_edge29_Node000028_Node000034"><a xlink:title=" ">
<path fill="none" stroke="#63b8ff" d="M1104.6,-585.7C1112.61,-584.71 1120.96,-583.67 1129.24,-582.65"/>
<polygon fill="#63b8ff" stroke="#63b8ff" points="1129.53,-586.01 1139.02,-581.31 1128.67,-579.07 1129.53,-586.01"/>
</a>
</g>
</g>
<!-- Node35 -->
<g id="Node000035" class="node">
<title>Node35</title>
<g id="a_Node000035"><a xlink:href="a01952.html#a4b9cd8f5d0c205ac6c1fd30f77cbf539" target="_top" xlink:title=" ">
<polygon fill="#fff0f0" stroke="red" points="1399.75,-620.5 1291.5,-620.5 1291.5,-602 1399.75,-602 1399.75,-620.5"/>
<text text-anchor="middle" x="1345.62" y="-607" font-family="Helvetica,sans-Serif" font-size="10.00">utils_config_write_str</text>
</a>
</g>
</g>
<!-- Node34&#45;&gt;Node35 -->
<g id="edge30_Node000034_Node000035" class="edge">
<title>Node34&#45;&gt;Node35</title>
<g id="a_edge30_Node000034_Node000035"><a xlink:title=" ">
<path fill="none" stroke="#63b8ff" d="M1237.26,-583.97C1255.17,-588.52 1276.7,-593.99 1295.77,-598.84"/>
<polygon fill="#63b8ff" stroke="#63b8ff" points="1294.81,-602.46 1305.37,-601.53 1296.54,-595.67 1294.81,-602.46"/>
</a>
</g>
</g>
<!-- Node40 -->
<g id="Node000040" class="node">
<title>Node40</title>
<g id="a_Node000040"><a xlink:href="a02346.html#aebf9e72bb6cbd8b9e33489d46c25075d" target="_top" xlink:title=" ">
<polygon fill="white" stroke="#666666" points="611.38,-165.5 494.88,-165.5 494.88,-147 611.38,-147 611.38,-165.5"/>
<text text-anchor="middle" x="553.12" y="-152" font-family="Helvetica,sans-Serif" font-size="10.00">async_completion_wait</text>
</a>
</g>
</g>
<!-- Node39&#45;&gt;Node40 -->
<g id="edge36_Node000039_Node000040" class="edge">
<title>Node39&#45;&gt;Node40</title>
<g id="a_edge36_Node000039_Node000040"><a xlink:title=" ">
<path fill="none" stroke="#63b8ff" d="M415.96,-184.56C439.93,-179.58 469.36,-173.46 494.71,-168.19"/>
<polygon fill="#63b8ff" stroke="#63b8ff" points="495.23,-171.45 504.3,-165.99 493.8,-164.59 495.23,-171.45"/>
</a>
</g>
</g>
<!-- Node41&#45;&gt;Node14 -->
<g id="edge38_Node000041_Node000014" class="edge">
<title>Node41&#45;&gt;Node14</title>
<g id="a_edge38_Node000041_Node000014"><a xlink:title=" ">
<path fill="none" stroke="#63b8ff" d="M786.19,-268.25C794.19,-268.25 802.51,-268.25 810.8,-268.25"/>
<polygon fill="#63b8ff" stroke="#63b8ff" points="810.65,-271.75 820.65,-268.25 810.65,-264.75 810.65,-271.75"/>
</a>
</g>
</g>
<!-- Node42&#45;&gt;Node14 -->
<g id="edge40_Node000042_Node000014" class="edge">
<title>Node42&#45;&gt;Node14</title>
<g id="a_edge40_Node000042_Node000014"><a xlink:title=" ">
<path fill="none" stroke="#63b8ff" d="M422.81,-231.55C502.24,-232.49 656.07,-236.15 786,-250.25 800.65,-251.84 816.36,-254.2 831.04,-256.68"/>
<polygon fill="#63b8ff" stroke="#63b8ff" points="830.05,-260.24 840.5,-258.51 831.25,-253.34 830.05,-260.24"/>
</a>
</g>
</g>
<!-- Node42&#45;&gt;Node40 -->
<g id="edge41_Node000042_Node000040" class="edge">
<title>Node42&#45;&gt;Node40</title>
<g id="a_edge41_Node000042_Node000040"><a xlink:title=" ">
<path fill="none" stroke="#63b8ff" d="M418.82,-221.53C426.11,-219.08 433.31,-216.03 439.75,-212.25 459.53,-200.62 455.86,-186.68 475.75,-175.25 479.38,-173.17 483.23,-171.31 487.2,-169.65"/>
<polygon fill="#63b8ff" stroke="#63b8ff" points="488.09,-172.69 496.26,-165.94 485.67,-166.12 488.09,-172.69"/>
</a>
</g>
</g>
<!-- Node43 -->
<g id="Node000043" class="node">
<title>Node43</title>
<g id="a_Node000043"><a xlink:href="a02346.html#a7ab7c7fe9cb93434dde72a4e464a7e69" target="_top" xlink:title=" ">
<polygon fill="white" stroke="#666666" points="611,-202.5 495.25,-202.5 495.25,-184 611,-184 611,-202.5"/>
<text text-anchor="middle" x="553.12" y="-189" font-family="Helvetica,sans-Serif" font-size="10.00">async_semaphore_dec</text>
</a>
</g>
</g>
<!-- Node42&#45;&gt;Node43 -->
<g id="edge42_Node000042_Node000043" class="edge">
<title>Node42&#45;&gt;Node43</title>
<g id="a_edge42_Node000042_Node000043"><a xlink:title=" ">
<path fill="none" stroke="#63b8ff" d="M415.96,-221.56C439.93,-216.58 469.36,-210.46 494.71,-205.19"/>
<polygon fill="#63b8ff" stroke="#63b8ff" points="495.23,-208.45 504.3,-202.99 493.8,-201.59 495.23,-208.45"/>
</a>
</g>
</g>
<!-- Node44&#45;&gt;Node23 -->
<g id="edge48_Node000044_Node000023" class="edge">
<title>Node44&#45;&gt;Node23</title>
<g id="a_edge48_Node000044_Node000023"><a xlink:title=" ">
<path fill="none" stroke="#63b8ff" d="M597.75,-722.94C619.99,-727.88 647.25,-733.93 670.85,-739.17"/>
<polygon fill="#63b8ff" stroke="#63b8ff" points="669.89,-742.76 680.41,-741.51 671.4,-735.93 669.89,-742.76"/>
</a>
</g>
</g>
<!-- Node44&#45;&gt;Node25 -->
<g id="edge49_Node000044_Node000025" class="edge">
<title>Node44&#45;&gt;Node25</title>
<g id="a_edge49_Node000044_Node000025"><a xlink:title=" ">
<path fill="none" stroke="#63b8ff" d="M566.72,-703.52C582,-691.64 608.44,-670.84 630.5,-652.25 646.87,-638.45 647.92,-630.88 666.5,-620.25 669.91,-618.3 673.55,-616.52 677.28,-614.89"/>
<polygon fill="#63b8ff" stroke="#63b8ff" points="678.25,-617.88 686.28,-610.97 675.69,-611.37 678.25,-617.88"/>
</a>
</g>
</g>
<!-- Node45 -->
<g id="Node000045" class="node">
<title>Node45</title>
<g id="a_Node000045"><a xlink:href="a02346.html#ab2195e0b081f467f8e058d1406bd4fc7" target="_top" xlink:title=" ">
<polygon fill="white" stroke="#666666" points="763.12,-722.5 689.38,-722.5 689.38,-704 763.12,-704 763.12,-722.5"/>
<text text-anchor="middle" x="726.25" y="-709" font-family="Helvetica,sans-Serif" font-size="10.00">async_thread</text>
</a>
</g>
</g>
<!-- Node44&#45;&gt;Node45 -->
<g id="edge44_Node000044_Node000045" class="edge">
<title>Node44&#45;&gt;Node45</title>
<g id="a_edge44_Node000044_Node000045"><a xlink:title=" ">
<path fill="none" stroke="#63b8ff" d="M613.98,-713.25C634.94,-713.25 658.18,-713.25 677.97,-713.25"/>
<polygon fill="#63b8ff" stroke="#63b8ff" points="677.88,-716.75 687.88,-713.25 677.88,-709.75 677.88,-716.75"/>
</a>
</g>
</g>
<!-- Node44&#45;&gt;Node49 -->
<g id="edge50_Node000044_Node000049" class="edge">
<title>Node44&#45;&gt;Node49</title>
<g id="a_edge50_Node000044_Node000049"><a xlink:title=" ">
<path fill="none" stroke="#63b8ff" d="M592.88,-703.55C644.72,-690.98 739.66,-669.36 822,-658.25 878.41,-650.64 943.23,-646.84 989.26,-644.98"/>
<polygon fill="#63b8ff" stroke="#63b8ff" points="989.38,-648.44 999.24,-644.56 989.11,-641.45 989.38,-648.44"/>
</a>
</g>
</g>
<!-- Node46 -->
<g id="Node000046" class="node">
<title>Node46</title>
<g id="a_Node000046"><a xlink:href="a02346.html#ae66ae81847153386c57918f4d91be8a7" target="_top" xlink:title=" ">
<polygon fill="white" stroke="#666666" points="954.25,-685.5 828.75,-685.5 828.75,-667 954.25,-667 954.25,-685.5"/>
<text text-anchor="middle" x="891.5" y="-672" font-family="Helvetica,sans-Serif" font-size="10.00">async_completion_check</text>
</a>
</g>
</g>
<!-- Node45&#45;&gt;Node46 -->
<g id="edge45_Node000045_Node000046" class="edge">
<title>Node45&#45;&gt;Node46</title>
<g id="a_edge45_Node000045_Node000046"><a xlink:title=" ">
<path fill="none" stroke="#63b8ff" d="M763.48,-705.04C785.16,-700.12 813.12,-693.79 837.27,-688.31"/>
<polygon fill="#63b8ff" stroke="#63b8ff" points="837.74,-691.57 846.72,-685.95 836.19,-684.74 837.74,-691.57"/>
</a>
</g>
</g>
<!-- Node47 -->
<g id="Node000047" class="node">
<title>Node47</title>
<g id="a_Node000047"><a xlink:href="a02346.html#a49083e8ceb4bfe7793ca1a5a799834d0" target="_top" xlink:title=" ">
<polygon fill="white" stroke="#666666" points="919,-759.5 864,-759.5 864,-741 919,-741 919,-759.5"/>
<text text-anchor="middle" x="891.5" y="-746" font-family="Helvetica,sans-Serif" font-size="10.00">getVmID</text>
</a>
</g>
</g>
<!-- Node45&#45;&gt;Node47 -->
<g id="edge46_Node000045_Node000047" class="edge">
<title>Node45&#45;&gt;Node47</title>
<g id="a_edge46_Node000045_Node000047"><a xlink:title=" ">
<path fill="none" stroke="#63b8ff" d="M763.48,-721.46C790.06,-727.49 826.07,-735.65 852.96,-741.74"/>
<polygon fill="#63b8ff" stroke="#63b8ff" points="851.98,-745.33 862.5,-744.13 853.52,-738.51 851.98,-745.33"/>
</a>
</g>
</g>
<!-- Node48 -->
<g id="Node000048" class="node">
<title>Node48</title>
<g id="a_Node000048"><a xlink:href="a01946.html#a0c85e5516222ab7e7fc354c614760ec5" target="_top" xlink:title=" ">
<polygon fill="white" stroke="#666666" points="926.5,-722.5 856.5,-722.5 856.5,-704 926.5,-704 926.5,-722.5"/>
<text text-anchor="middle" x="891.5" y="-709" font-family="Helvetica,sans-Serif" font-size="10.00">utils_list_del</text>
</a>
</g>
</g>
<!-- Node45&#45;&gt;Node48 -->
<g id="edge47_Node000045_Node000048" class="edge">
<title>Node45&#45;&gt;Node48</title>
<g id="a_edge47_Node000045_Node000048"><a xlink:title=" ">
<path fill="none" stroke="#63b8ff" d="M763.48,-713.25C787.54,-713.25 819.31,-713.25 845.06,-713.25"/>
<polygon fill="#63b8ff" stroke="#63b8ff" points="845.05,-716.75 855.05,-713.25 845.05,-709.75 845.05,-716.75"/>
</a>
</g>
</g>
<!-- Node49&#45;&gt;Node29 -->
<g id="edge51_Node000049_Node000029" class="edge">
<title>Node49&#45;&gt;Node29</title>
<g id="a_edge51_Node000049_Node000029"><a xlink:title=" ">
<path fill="none" stroke="#63b8ff" d="M1095.72,-633.56C1110.51,-630.3 1127.19,-626.63 1142.68,-623.22"/>
<polygon fill="#63b8ff" stroke="#63b8ff" points="1143.16,-626.47 1152.18,-620.9 1141.66,-619.64 1143.16,-626.47"/>
</a>
</g>
</g>
<!-- Node49&#45;&gt;Node35 -->
<g id="edge52_Node000049_Node000035" class="edge">
<title>Node49&#45;&gt;Node35</title>
<g id="a_edge52_Node000049_Node000035"><a xlink:title=" ">
<path fill="none" stroke="#63b8ff" d="M1101.34,-641.65C1142.71,-639.89 1203.14,-636.31 1255.5,-629.25 1267.24,-627.67 1279.75,-625.47 1291.58,-623.15"/>
<polygon fill="#63b8ff" stroke="#63b8ff" points="1292.1,-626.41 1301.2,-621 1290.71,-619.55 1292.1,-626.41"/>
</a>
</g>
</g>
<!-- Node32 -->
<g id="Node000032" class="node">
<title>Node32</title>
<g id="a_Node000032"><a xlink:href="a01955.html#a86c3bfbf6daaf8172e131aa23dc7393c" target="_top" xlink:title=" ">
<polygon fill="white" stroke="#666666" points="596.75,-128.5 509.5,-128.5 509.5,-110 596.75,-110 596.75,-128.5"/>
<text text-anchor="middle" x="553.12" y="-115" font-family="Helvetica,sans-Serif" font-size="10.00">system_file_size</text>
</a>
</g>
</g>
<!-- Node50&#45;&gt;Node32 -->
<g id="edge54_Node000050_Node000032" class="edge">
<title>Node50&#45;&gt;Node32</title>
<g id="a_edge54_Node000050_Node000032"><a xlink:title=" ">
<path fill="none" stroke="#63b8ff" d="M408.13,-120.04C434.42,-119.89 469.53,-119.7 498.5,-119.54"/>
<polygon fill="#63b8ff" stroke="#63b8ff" points="498.29,-123.04 508.27,-119.48 498.25,-116.04 498.29,-123.04"/>
</a>
</g>
</g>
<!-- Node53&#45;&gt;Node28 -->
<g id="edge60_Node000053_Node000028" class="edge">
<title>Node53&#45;&gt;Node28</title>
<g id="a_edge60_Node000053_Node000028"><a xlink:title=" ">
<path fill="none" stroke="#63b8ff" d="M779.78,-630.76C836.19,-622.71 925.82,-609.93 986.16,-601.32"/>
<polygon fill="#63b8ff" stroke="#63b8ff" points="986.3,-604.69 995.7,-599.82 985.31,-597.76 986.3,-604.69"/>
</a>
</g>
</g>
<!-- Node31 -->
<g id="Node000031" class="node">
<title>Node31</title>
<g id="a_Node000031"><a xlink:href="a01955.html#acde493d3889d6f207d1e122cf4bb1b8c" target="_top" xlink:title=" ">
<polygon fill="white" stroke="#666666" points="596,-18.5 510.25,-18.5 510.25,0 596,0 596,-18.5"/>
<text text-anchor="middle" x="553.12" y="-5" font-family="Helvetica,sans-Serif" font-size="10.00">system_env_var</text>
</a>
</g>
</g>
<!-- Node33&#45;&gt;Node31 -->
<g id="edge62_Node000033_Node000031" class="edge">
<title>Node33&#45;&gt;Node31</title>
<g id="a_edge62_Node000033_Node000031"><a xlink:title=" ">
<path fill="none" stroke="#63b8ff" d="M428.2,-9.25C450.97,-9.25 476.83,-9.25 499.01,-9.25"/>
<polygon fill="#63b8ff" stroke="#63b8ff" points="498.91,-12.75 508.91,-9.25 498.91,-5.75 498.91,-12.75"/>
</a>
</g>
</g>
</g>
</svg>
