<?xml version="1.0" encoding="UTF-8" standalone="no"?>
<!DOCTYPE svg PUBLIC "-//W3C//DTD SVG 1.1//EN"
 "http://www.w3.org/Graphics/SVG/1.1/DTD/svg11.dtd">
<!-- Generated by graphviz version 12.2.1 (0)
 -->
<!-- Title: async_condition_notify Pages: 1 -->
<svg width="1511pt" height="460pt"
 viewBox="0.00 0.00 1511.25 459.50" xmlns="http://www.w3.org/2000/svg" xmlns:xlink="http://www.w3.org/1999/xlink">
<g id="graph0" class="graph" transform="scale(1 1) rotate(0) translate(4 455.5)">
<title>async_condition_notify</title>
<!-- Node1 -->
<g id="Node000001" class="node">
<title>Node1</title>
<g id="a_Node000001"><a xlink:title=" ">
<polygon fill="#999999" stroke="#666666" points="1503.25,-134.5 1388.25,-134.5 1388.25,-116 1503.25,-116 1503.25,-134.5"/>
<text text-anchor="middle" x="1445.75" y="-121" font-family="Helvetica,sans-Serif" font-size="10.00">async_condition_notify</text>
</a>
</g>
</g>
<!-- Node2 -->
<g id="Node000002" class="node">
<title>Node2</title>
<g id="a_Node000002"><a xlink:href="a01916.html#ab6afd8cc035237c811ce6a1b7727acc3" target="_top" xlink:title=" ">
<polygon fill="white" stroke="#666666" points="1344.38,-314.5 1235.38,-314.5 1235.38,-296 1344.38,-296 1344.38,-314.5"/>
<text text-anchor="middle" x="1289.88" y="-301" font-family="Helvetica,sans-Serif" font-size="10.00">arax_accel_add_task</text>
</a>
</g>
</g>
<!-- Node1&#45;&gt;Node2 -->
<g id="edge1_Node000001_Node000002" class="edge">
<title>Node1&#45;&gt;Node2</title>
<g id="a_edge1_Node000001_Node000002"><a xlink:title=" ">
<path fill="none" stroke="#63b8ff" d="M1430.64,-143.7C1412.87,-166.72 1381.15,-207.11 1352.25,-240.25 1334.5,-260.61 1312.53,-283.32 1300.27,-295.78"/>
<polygon fill="#63b8ff" stroke="#63b8ff" points="1433.32,-145.96 1436.64,-135.9 1427.77,-141.69 1433.32,-145.96"/>
</a>
</g>
</g>
<!-- Node12 -->
<g id="Node000012" class="node">
<title>Node12</title>
<g id="a_Node000012"><a xlink:href="a01916.html#af0b933c02a24d69c1efa40179f60288f" target="_top" xlink:title=" ">
<polygon fill="white" stroke="#666666" points="1348.88,-176.5 1230.88,-176.5 1230.88,-158 1348.88,-158 1348.88,-176.5"/>
<text text-anchor="middle" x="1289.88" y="-163" font-family="Helvetica,sans-Serif" font-size="10.00">arax_accel_add_vaccel</text>
</a>
</g>
</g>
<!-- Node1&#45;&gt;Node12 -->
<g id="edge12_Node000001_Node000012" class="edge">
<title>Node1&#45;&gt;Node12</title>
<g id="a_edge12_Node000001_Node000012"><a xlink:title=" ">
<path fill="none" stroke="#63b8ff" d="M1398.14,-137.97C1375.08,-144.27 1347.7,-151.74 1326.37,-157.56"/>
<polygon fill="#63b8ff" stroke="#63b8ff" points="1398.88,-141.4 1407.6,-135.39 1397.03,-134.65 1398.88,-141.4"/>
</a>
</g>
</g>
<!-- Node18 -->
<g id="Node000018" class="node">
<title>Node18</title>
<g id="a_Node000018"><a xlink:href="a01916.html#aa3f384ca4812e46dedce753be42654df" target="_top" xlink:title=" ">
<polygon fill="white" stroke="#666666" points="1347.38,-92.5 1232.38,-92.5 1232.38,-74 1347.38,-74 1347.38,-92.5"/>
<text text-anchor="middle" x="1289.88" y="-79" font-family="Helvetica,sans-Serif" font-size="10.00">arax_accel_del_vaccel</text>
</a>
</g>
</g>
<!-- Node1&#45;&gt;Node18 -->
<g id="edge18_Node000001_Node000018" class="edge">
<title>Node1&#45;&gt;Node18</title>
<g id="a_edge18_Node000001_Node000018"><a xlink:title=" ">
<path fill="none" stroke="#63b8ff" d="M1398.14,-112.53C1375.08,-106.23 1347.7,-98.76 1326.37,-92.94"/>
<polygon fill="#63b8ff" stroke="#63b8ff" points="1397.03,-115.85 1407.6,-115.11 1398.88,-109.1 1397.03,-115.85"/>
</a>
</g>
</g>
<!-- Node20 -->
<g id="Node000020" class="node">
<title>Node20</title>
<g id="a_Node000020"><a xlink:href="a01910.html#a57a9203f163a9c8c78e22bde5fa4efbc" target="_top" xlink:title=" ">
<polygon fill="white" stroke="#666666" points="1352.25,-55.5 1227.5,-55.5 1227.5,-37 1352.25,-37 1352.25,-55.5"/>
<text text-anchor="middle" x="1289.88" y="-42" font-family="Helvetica,sans-Serif" font-size="10.00">arax_controller_init_done</text>
</a>
</g>
</g>
<!-- Node1&#45;&gt;Node20 -->
<g id="edge20_Node000001_Node000020" class="edge">
<title>Node1&#45;&gt;Node20</title>
<g id="a_edge20_Node000001_Node000020"><a xlink:title=" ">
<path fill="none" stroke="#63b8ff" d="M1423.13,-108.77C1405,-95.56 1377.99,-77.3 1352.25,-65.25 1344.67,-61.7 1336.27,-58.6 1328.17,-55.99"/>
<polygon fill="#63b8ff" stroke="#63b8ff" points="1420.9,-111.47 1431.02,-114.62 1425.07,-105.85 1420.9,-111.47"/>
</a>
</g>
</g>
<!-- Node21 -->
<g id="Node000021" class="node">
<title>Node21</title>
<g id="a_Node000021"><a xlink:href="a01928.html#aa4461ab1d225a0f76f08d2f37a4a7e0e" target="_top" xlink:title=" ">
<polygon fill="white" stroke="#666666" points="1347.38,-139.75 1232.38,-139.75 1232.38,-110.75 1347.38,-110.75 1347.38,-139.75"/>
<text text-anchor="start" x="1240.38" y="-126.25" font-family="Helvetica,sans-Serif" font-size="10.00">arax_pipe_add_orphan</text>
<text text-anchor="middle" x="1289.88" y="-115.75" font-family="Helvetica,sans-Serif" font-size="10.00">_vaccel</text>
</a>
</g>
</g>
<!-- Node1&#45;&gt;Node21 -->
<g id="edge21_Node000001_Node000021" class="edge">
<title>Node1&#45;&gt;Node21</title>
<g id="a_edge21_Node000001_Node000021"><a xlink:title=" ">
<path fill="none" stroke="#63b8ff" d="M1376.68,-125.25C1367.02,-125.25 1357.17,-125.25 1347.76,-125.25"/>
<polygon fill="#63b8ff" stroke="#63b8ff" points="1376.38,-128.75 1386.38,-125.25 1376.38,-121.75 1376.38,-128.75"/>
</a>
</g>
</g>
<!-- Node22 -->
<g id="Node000022" class="node">
<title>Node22</title>
<g id="a_Node000022"><a xlink:href="a01928.html#a6cb53dd71cfaedb214bc5aef0e572cc2" target="_top" xlink:title=" ">
<polygon fill="white" stroke="#666666" points="1348.88,-18.5 1230.88,-18.5 1230.88,0 1348.88,0 1348.88,-18.5"/>
<text text-anchor="middle" x="1289.88" y="-5" font-family="Helvetica,sans-Serif" font-size="10.00">arax_pipe_orphan_stop</text>
</a>
</g>
</g>
<!-- Node1&#45;&gt;Node22 -->
<g id="edge23_Node000001_Node000022" class="edge">
<title>Node1&#45;&gt;Node22</title>
<g id="a_edge23_Node000001_Node000022"><a xlink:title=" ">
<path fill="none" stroke="#63b8ff" d="M1431.6,-106.51C1415.36,-84.69 1385.72,-48.99 1352.25,-28.25 1346.18,-24.49 1339.31,-21.42 1332.42,-18.94"/>
<polygon fill="#63b8ff" stroke="#63b8ff" points="1428.69,-108.45 1437.39,-114.5 1434.36,-104.34 1428.69,-108.45"/>
</a>
</g>
</g>
<!-- Node23 -->
<g id="Node000023" class="node">
<title>Node23</title>
<g id="a_Node000023"><a xlink:href="a01940.html#a7d3a67fa4eeb00cc9508a7ffe451a02f" target="_top" xlink:title=" ">
<polygon fill="white" stroke="#666666" points="1345.5,-213.5 1234.25,-213.5 1234.25,-195 1345.5,-195 1345.5,-213.5"/>
<text text-anchor="middle" x="1289.88" y="-200" font-family="Helvetica,sans-Serif" font-size="10.00">arax_throttle_size_inc</text>
</a>
</g>
</g>
<!-- Node1&#45;&gt;Node23 -->
<g id="edge24_Node000001_Node000023" class="edge">
<title>Node1&#45;&gt;Node23</title>
<g id="a_edge24_Node000001_Node000023"><a xlink:title=" ">
<path fill="none" stroke="#63b8ff" d="M1423.13,-141.73C1405,-154.94 1377.99,-173.2 1352.25,-185.25 1344.67,-188.8 1336.27,-191.9 1328.17,-194.51"/>
<polygon fill="#63b8ff" stroke="#63b8ff" points="1425.07,-144.65 1431.02,-135.88 1420.9,-139.03 1425.07,-144.65"/>
</a>
</g>
</g>
<!-- Node3 -->
<g id="Node000003" class="node">
<title>Node3</title>
<g id="a_Node000003"><a xlink:href="a01943.html#a8b82433bc8c7d7f03683ac521a3679fa" target="_top" xlink:title=" ">
<polygon fill="white" stroke="#666666" points="1182.12,-406.5 1068.62,-406.5 1068.62,-388 1182.12,-388 1182.12,-406.5"/>
<text text-anchor="middle" x="1125.38" y="-393" font-family="Helvetica,sans-Serif" font-size="10.00">arax_vaccel_add_task</text>
</a>
</g>
</g>
<!-- Node2&#45;&gt;Node3 -->
<g id="edge2_Node000002_Node000003" class="edge">
<title>Node2&#45;&gt;Node3</title>
<g id="a_edge2_Node000002_Node000003"><a xlink:title=" ">
<path fill="none" stroke="#63b8ff" d="M1262.13,-320.39C1228.41,-339.49 1171.43,-371.74 1143.23,-387.71"/>
<polygon fill="#63b8ff" stroke="#63b8ff" points="1263.5,-323.64 1270.47,-315.67 1260.05,-317.55 1263.5,-323.64"/>
</a>
</g>
</g>
<!-- Node4 -->
<g id="Node000004" class="node">
<title>Node4</title>
<g id="a_Node000004"><a xlink:href="a01937.html#ace08f924cb86d1310099621564536657" target="_top" xlink:title=" ">
<polygon fill="white" stroke="#666666" points="524.5,-451.5 430.5,-451.5 430.5,-433 524.5,-433 524.5,-451.5"/>
<text text-anchor="middle" x="477.5" y="-438" font-family="Helvetica,sans-Serif" font-size="10.00">arax_task_submit</text>
</a>
</g>
</g>
<!-- Node3&#45;&gt;Node4 -->
<g id="edge3_Node000003_Node000004" class="edge">
<title>Node3&#45;&gt;Node4</title>
<g id="a_edge3_Node000003_Node000004"><a xlink:title=" ">
<path fill="none" stroke="#63b8ff" d="M1056.8,-402.58C1003.61,-406.72 927.59,-412.55 861,-417.25 739.69,-425.82 596.65,-434.89 524.73,-439.39"/>
<polygon fill="#63b8ff" stroke="#63b8ff" points="1056.92,-406.08 1066.62,-401.81 1056.38,-399.1 1056.92,-406.08"/>
</a>
</g>
</g>
<!-- Node5 -->
<g id="Node000005" class="node">
<title>Node5</title>
<g id="a_Node000005"><a xlink:href="a02189.html#gac9f0f3fbb14da879d3ff09bd367bbb24" target="_top" xlink:title=" ">
<polygon fill="white" stroke="#666666" points="394.5,-247.5 306.5,-247.5 306.5,-229 394.5,-229 394.5,-247.5"/>
<text text-anchor="middle" x="350.5" y="-234" font-family="Helvetica,sans-Serif" font-size="10.00">arax_task_issue</text>
</a>
</g>
</g>
<!-- Node4&#45;&gt;Node5 -->
<g id="edge4_Node000004_Node000005" class="edge">
<title>Node4&#45;&gt;Node5</title>
<g id="a_edge4_Node000004_Node000005"><a xlink:title=" ">
<path fill="none" stroke="#63b8ff" d="M470.51,-421.75C459.7,-387.33 434.28,-317.02 394.5,-269.25 387.32,-260.62 377.21,-253.18 368.6,-247.75"/>
<polygon fill="#63b8ff" stroke="#63b8ff" points="467.14,-422.69 473.4,-431.25 473.84,-420.66 467.14,-422.69"/>
</a>
</g>
</g>
<!-- Node6 -->
<g id="Node000006" class="node">
<title>Node6</title>
<g id="a_Node000006"><a xlink:href="a01922.html#af8ede6fc8d207004035f45d945688d2c" target="_top" xlink:title=" ">
<polygon fill="white" stroke="#666666" points="253.62,-322.75 155.12,-322.75 155.12,-293.75 253.62,-293.75 253.62,-322.75"/>
<text text-anchor="start" x="163.12" y="-309.25" font-family="Helvetica,sans-Serif" font-size="10.00">arax_data_allocate</text>
<text text-anchor="middle" x="204.38" y="-298.75" font-family="Helvetica,sans-Serif" font-size="10.00">_remote</text>
</a>
</g>
</g>
<!-- Node5&#45;&gt;Node6 -->
<g id="edge5_Node000005_Node000006" class="edge">
<title>Node5&#45;&gt;Node6</title>
<g id="a_edge5_Node000005_Node000006"><a xlink:title=" ">
<path fill="none" stroke="#63b8ff" d="M325.06,-253.97C309.75,-263.44 289.4,-275.35 270.5,-284.25 263.74,-287.43 256.44,-290.48 249.25,-293.28"/>
<polygon fill="#63b8ff" stroke="#63b8ff" points="326.89,-256.96 333.49,-248.67 323.16,-251.03 326.89,-256.96"/>
</a>
</g>
</g>
<!-- Node7 -->
<g id="Node000007" class="node">
<title>Node7</title>
<g id="a_Node000007"><a xlink:href="a01922.html#a696bc4319d0f6c6baa7d797a8df6b56f" target="_top" xlink:title=" ">
<polygon fill="white" stroke="#666666" points="243.5,-238.5 165.25,-238.5 165.25,-220 243.5,-220 243.5,-238.5"/>
<text text-anchor="middle" x="204.38" y="-225" font-family="Helvetica,sans-Serif" font-size="10.00">arax_data_get</text>
</a>
</g>
</g>
<!-- Node5&#45;&gt;Node7 -->
<g id="edge6_Node000005_Node000007" class="edge">
<title>Node5&#45;&gt;Node7</title>
<g id="a_edge6_Node000005_Node000007"><a xlink:title=" ">
<path fill="none" stroke="#63b8ff" d="M295.23,-234.86C278.08,-233.79 259.49,-232.63 243.69,-231.64"/>
<polygon fill="#63b8ff" stroke="#63b8ff" points="294.55,-238.33 304.75,-235.46 294.98,-231.34 294.55,-238.33"/>
</a>
</g>
</g>
<!-- Node9 -->
<g id="Node000009" class="node">
<title>Node9</title>
<g id="a_Node000009"><a xlink:href="a01922.html#a8995f71dba475975efc37756783cfce9" target="_top" xlink:title=" ">
<polygon fill="white" stroke="#666666" points="243.5,-201.5 165.25,-201.5 165.25,-183 243.5,-183 243.5,-201.5"/>
<text text-anchor="middle" x="204.38" y="-188" font-family="Helvetica,sans-Serif" font-size="10.00">arax_data_set</text>
</a>
</g>
</g>
<!-- Node5&#45;&gt;Node9 -->
<g id="edge8_Node000005_Node000009" class="edge">
<title>Node5&#45;&gt;Node9</title>
<g id="a_edge8_Node000005_Node000009"><a xlink:title=" ">
<path fill="none" stroke="#63b8ff" d="M311.31,-224.81C298.4,-220.37 283.86,-215.48 270.5,-211.25 260.51,-208.09 249.59,-204.83 239.6,-201.92"/>
<polygon fill="#63b8ff" stroke="#63b8ff" points="310.16,-228.11 320.75,-228.08 312.45,-221.5 310.16,-228.11"/>
</a>
</g>
</g>
<!-- Node10 -->
<g id="Node000010" class="node">
<title>Node10</title>
<g id="a_Node000010"><a xlink:href="a01922.html#af735744d0f8bec04394639a841d2ba0f" target="_top" xlink:title=" ">
<polygon fill="white" stroke="#666666" points="270.5,-164.5 138.25,-164.5 138.25,-146 270.5,-146 270.5,-164.5"/>
<text text-anchor="middle" x="204.38" y="-151" font-family="Helvetica,sans-Serif" font-size="10.00">ARAX_OBJ_DTOR_DECL</text>
</a>
</g>
</g>
<!-- Node5&#45;&gt;Node10 -->
<g id="edge10_Node000005_Node000010" class="edge">
<title>Node5&#45;&gt;Node10</title>
<g id="a_edge10_Node000005_Node000010"><a xlink:title=" ">
<path fill="none" stroke="#63b8ff" d="M323.62,-222.64C317.82,-218.81 311.82,-214.56 306.5,-210.25 288.92,-196 289.97,-185.78 270.5,-174.25 264.12,-170.47 256.93,-167.4 249.72,-164.92"/>
<polygon fill="#63b8ff" stroke="#63b8ff" points="321.43,-225.4 331.74,-227.83 325.19,-219.5 321.43,-225.4"/>
</a>
</g>
</g>
<!-- Node11 -->
<g id="Node000011" class="node">
<title>Node11</title>
<g id="a_Node000011"><a xlink:href="a02189.html#ga1418f4cd7336bf77cce7b955a1bf7077" target="_top" xlink:title=" ">
<polygon fill="white" stroke="#666666" points="261.12,-275.5 147.62,-275.5 147.62,-257 261.12,-257 261.12,-275.5"/>
<text text-anchor="middle" x="204.38" y="-262" font-family="Helvetica,sans-Serif" font-size="10.00">arax_task_issue_sync</text>
</a>
</g>
</g>
<!-- Node5&#45;&gt;Node11 -->
<g id="edge11_Node000005_Node000011" class="edge">
<title>Node5&#45;&gt;Node11</title>
<g id="a_edge11_Node000005_Node000011"><a xlink:title=" ">
<path fill="none" stroke="#63b8ff" d="M295.08,-248.82C282.06,-251.35 268.23,-254.04 255.42,-256.53"/>
<polygon fill="#63b8ff" stroke="#63b8ff" points="295.62,-252.28 304.77,-246.94 294.29,-245.41 295.62,-252.28"/>
</a>
</g>
</g>
<!-- Node8 -->
<g id="Node000008" class="node">
<title>Node8</title>
<g id="a_Node000008"><a xlink:href="a01922.html#a7d8356bd5c8b6a8d7dffc6ba94cc22e5" target="_top" xlink:title=" ">
<polygon fill="white" stroke="#666666" points="102.25,-219.5 0,-219.5 0,-201 102.25,-201 102.25,-219.5"/>
<text text-anchor="middle" x="51.12" y="-206" font-family="Helvetica,sans-Serif" font-size="10.00">arax_data_memcpy</text>
</a>
</g>
</g>
<!-- Node7&#45;&gt;Node8 -->
<g id="edge7_Node000007_Node000008" class="edge">
<title>Node7&#45;&gt;Node8</title>
<g id="a_edge7_Node000007_Node000008"><a xlink:title=" ">
<path fill="none" stroke="#63b8ff" d="M153.79,-223.02C137.38,-220.96 119.1,-218.66 102.61,-216.59"/>
<polygon fill="#63b8ff" stroke="#63b8ff" points="152.96,-226.44 163.32,-224.22 153.83,-219.5 152.96,-226.44"/>
</a>
</g>
</g>
<!-- Node9&#45;&gt;Node8 -->
<g id="edge9_Node000009_Node000008" class="edge">
<title>Node9&#45;&gt;Node8</title>
<g id="a_edge9_Node000009_Node000008"><a xlink:title=" ">
<path fill="none" stroke="#63b8ff" d="M153.79,-198.15C137.38,-200.1 119.1,-202.28 102.61,-204.24"/>
<polygon fill="#63b8ff" stroke="#63b8ff" points="153.8,-201.67 163.31,-197.02 152.97,-194.72 153.8,-201.67"/>
</a>
</g>
</g>
<!-- Node13 -->
<g id="Node000013" class="node">
<title>Node13</title>
<g id="a_Node000013"><a xlink:href="a02187.html#ga30b30e50de286842c7942a7e3e163578" target="_top" xlink:title=" ">
<polygon fill="white" stroke="#666666" points="1187,-174.5 1063.75,-174.5 1063.75,-156 1187,-156 1187,-174.5"/>
<text text-anchor="middle" x="1125.38" y="-161" font-family="Helvetica,sans-Serif" font-size="10.00">arax_accel_set_physical</text>
</a>
</g>
</g>
<!-- Node12&#45;&gt;Node13 -->
<g id="edge13_Node000012_Node000013" class="edge">
<title>Node12&#45;&gt;Node13</title>
<g id="a_edge13_Node000012_Node000013"><a xlink:title=" ">
<path fill="none" stroke="#63b8ff" d="M1219.32,-166.39C1208.72,-166.26 1197.86,-166.13 1187.47,-166"/>
<polygon fill="#63b8ff" stroke="#63b8ff" points="1219.11,-169.89 1229.15,-166.51 1219.2,-162.89 1219.11,-169.89"/>
</a>
</g>
</g>
<!-- Node14 -->
<g id="Node000014" class="node">
<title>Node14</title>
<g id="a_Node000014"><a xlink:href="a01943.html#a83ddb422946cf774c687c1ab63dcda15" target="_top" xlink:title=" ">
<polygon fill="white" stroke="#666666" points="1168.62,-135.5 1082.12,-135.5 1082.12,-117 1168.62,-117 1168.62,-135.5"/>
<text text-anchor="middle" x="1125.38" y="-122" font-family="Helvetica,sans-Serif" font-size="10.00">arax_vaccel_init</text>
</a>
</g>
</g>
<!-- Node12&#45;&gt;Node14 -->
<g id="edge14_Node000012_Node000014" class="edge">
<title>Node12&#45;&gt;Node14</title>
<g id="a_edge14_Node000012_Node000014"><a xlink:title=" ">
<path fill="none" stroke="#63b8ff" d="M1239.37,-154.76C1215.45,-148.72 1187.17,-141.59 1164.89,-135.97"/>
<polygon fill="#63b8ff" stroke="#63b8ff" points="1238.34,-158.11 1248.9,-157.16 1240.06,-151.32 1238.34,-158.11"/>
</a>
</g>
</g>
<!-- Node15 -->
<g id="Node000015" class="node">
<title>Node15</title>
<g id="a_Node000015"><a xlink:href="a02187.html#gaf8a10ab4e51e59c464ab3ab473e4a0f7" target="_top" xlink:title=" ">
<polygon fill="white" stroke="#666666" points="1023.25,-172.5 897,-172.5 897,-154 1023.25,-154 1023.25,-172.5"/>
<text text-anchor="middle" x="960.12" y="-159" font-family="Helvetica,sans-Serif" font-size="10.00">arax_accel_acquire_phys</text>
</a>
</g>
</g>
<!-- Node14&#45;&gt;Node15 -->
<g id="edge15_Node000014_Node000015" class="edge">
<title>Node14&#45;&gt;Node15</title>
<g id="a_edge15_Node000014_Node000015"><a xlink:title=" ">
<path fill="none" stroke="#63b8ff" d="M1070.87,-138.38C1049.16,-143.3 1024.43,-148.9 1003.95,-153.54"/>
<polygon fill="#63b8ff" stroke="#63b8ff" points="1071.45,-141.83 1080.43,-136.21 1069.91,-135.01 1071.45,-141.83"/>
</a>
</g>
</g>
<!-- Node16 -->
<g id="Node000016" class="node">
<title>Node16</title>
<g id="a_Node000016"><a xlink:href="a02187.html#ga008252bb9afc2990fa2c5f4b980c9f27" target="_top" xlink:title=" ">
<polygon fill="white" stroke="#666666" points="1022.5,-135.5 897.75,-135.5 897.75,-117 1022.5,-117 1022.5,-135.5"/>
<text text-anchor="middle" x="960.12" y="-122" font-family="Helvetica,sans-Serif" font-size="10.00">arax_accel_acquire_type</text>
</a>
</g>
</g>
<!-- Node14&#45;&gt;Node16 -->
<g id="edge16_Node000014_Node000016" class="edge">
<title>Node14&#45;&gt;Node16</title>
<g id="a_edge16_Node000014_Node000016"><a xlink:title=" ">
<path fill="none" stroke="#63b8ff" d="M1070.54,-126.25C1055.24,-126.25 1038.47,-126.25 1022.75,-126.25"/>
<polygon fill="#63b8ff" stroke="#63b8ff" points="1070.4,-129.75 1080.4,-126.25 1070.4,-122.75 1070.4,-129.75"/>
</a>
</g>
</g>
<!-- Node17 -->
<g id="Node000017" class="node">
<title>Node17</title>
<g id="a_Node000017"><a xlink:href="a01916.html#a0706a66a62ca8710342ac1c097b703ed" target="_top" xlink:title=" ">
<polygon fill="white" stroke="#666666" points="1001.12,-98.5 919.12,-98.5 919.12,-80 1001.12,-80 1001.12,-98.5"/>
<text text-anchor="middle" x="960.12" y="-85" font-family="Helvetica,sans-Serif" font-size="10.00">arax_accel_init</text>
</a>
</g>
</g>
<!-- Node14&#45;&gt;Node17 -->
<g id="edge17_Node000014_Node000017" class="edge">
<title>Node14&#45;&gt;Node17</title>
<g id="a_edge17_Node000014_Node000017"><a xlink:title=" ">
<path fill="none" stroke="#63b8ff" d="M1070.78,-114.1C1048.19,-108.98 1022.34,-103.12 1001.41,-98.38"/>
<polygon fill="#63b8ff" stroke="#63b8ff" points="1069.91,-117.49 1080.43,-116.29 1071.45,-110.67 1069.91,-117.49"/>
</a>
</g>
</g>
<!-- Node19 -->
<g id="Node000019" class="node">
<title>Node19</title>
<g id="a_Node000019"><a xlink:href="a01943.html#a5920cc4cd90589f3c5ac8686a72bcfc0" target="_top" xlink:title=" ">
<polygon fill="white" stroke="#666666" points="1191.5,-92.5 1059.25,-92.5 1059.25,-74 1191.5,-74 1191.5,-92.5"/>
<text text-anchor="middle" x="1125.38" y="-79" font-family="Helvetica,sans-Serif" font-size="10.00">ARAX_OBJ_DTOR_DECL</text>
</a>
</g>
</g>
<!-- Node18&#45;&gt;Node19 -->
<g id="edge19_Node000018_Node000019" class="edge">
<title>Node18&#45;&gt;Node19</title>
<g id="a_edge19_Node000018_Node000019"><a xlink:title=" ">
<path fill="none" stroke="#63b8ff" d="M1220.58,-83.25C1211.05,-83.25 1201.28,-83.25 1191.8,-83.25"/>
<polygon fill="#63b8ff" stroke="#63b8ff" points="1220.53,-86.75 1230.53,-83.25 1220.53,-79.75 1220.53,-86.75"/>
</a>
</g>
</g>
<!-- Node21&#45;&gt;Node14 -->
<g id="edge22_Node000021_Node000014" class="edge">
<title>Node21&#45;&gt;Node14</title>
<g id="a_edge22_Node000021_Node000014"><a xlink:title=" ">
<path fill="none" stroke="#63b8ff" d="M1220.7,-125.67C1203.21,-125.78 1184.88,-125.89 1169.09,-125.99"/>
<polygon fill="#63b8ff" stroke="#63b8ff" points="1220.55,-129.17 1230.53,-125.61 1220.51,-122.17 1220.55,-129.17"/>
</a>
</g>
</g>
<!-- Node23&#45;&gt;Node23 -->
<g id="edge54_Node000023_Node000023" class="edge">
<title>Node23&#45;&gt;Node23</title>
<g id="a_edge54_Node000023_Node000023"><a xlink:title=" ">
<path fill="none" stroke="#63b8ff" d="M1317.93,-224.53C1314.81,-228.59 1305.46,-231.5 1289.88,-231.5 1262.17,-231.5 1254.16,-222.32 1265.85,-213.75"/>
<polygon fill="#63b8ff" stroke="#63b8ff" points="1321.21,-223.3 1314.43,-215.16 1314.65,-225.76 1321.21,-223.3"/>
</a>
</g>
</g>
<!-- Node24 -->
<g id="Node000024" class="node">
<title>Node24</title>
<g id="a_Node000024"><a xlink:href="a01916.html#a926dd9c41781c18d0c9f7fdf2b72cfdc" target="_top" xlink:title=" ">
<polygon fill="white" stroke="#666666" points="1177.62,-211.5 1073.12,-211.5 1073.12,-193 1177.62,-193 1177.62,-211.5"/>
<text text-anchor="middle" x="1125.38" y="-198" font-family="Helvetica,sans-Serif" font-size="10.00">arax_accel_size_inc</text>
</a>
</g>
</g>
<!-- Node23&#45;&gt;Node24 -->
<g id="edge25_Node000023_Node000024" class="edge">
<title>Node23&#45;&gt;Node24</title>
<g id="a_edge25_Node000023_Node000024"><a xlink:title=" ">
<path fill="none" stroke="#63b8ff" d="M1222.66,-203.44C1207.79,-203.25 1192.22,-203.06 1178.04,-202.89"/>
<polygon fill="#63b8ff" stroke="#63b8ff" points="1222.3,-206.93 1232.35,-203.55 1222.39,-199.93 1222.3,-206.93"/>
</a>
</g>
</g>
<!-- Node25 -->
<g id="Node000025" class="node">
<title>Node25</title>
<g id="a_Node000025"><a xlink:href="a01928.html#a9f30684f01feac766b42d622970ed5a6" target="_top" xlink:title=" ">
<polygon fill="white" stroke="#666666" points="1175,-266.5 1075.75,-266.5 1075.75,-248 1175,-248 1175,-266.5"/>
<text text-anchor="middle" x="1125.38" y="-253" font-family="Helvetica,sans-Serif" font-size="10.00">arax_pipe_size_inc</text>
</a>
</g>
</g>
<!-- Node23&#45;&gt;Node25 -->
<g id="edge27_Node000023_Node000025" class="edge">
<title>Node23&#45;&gt;Node25</title>
<g id="a_edge27_Node000023_Node000025"><a xlink:title=" ">
<path fill="none" stroke="#63b8ff" d="M1251.85,-217.69C1233.73,-224.13 1211.55,-231.83 1191.5,-238.25 1181.63,-241.41 1170.85,-244.64 1160.95,-247.53"/>
<polygon fill="#63b8ff" stroke="#63b8ff" points="1252.89,-221.03 1261.12,-214.37 1250.53,-214.44 1252.89,-221.03"/>
</a>
</g>
</g>
<!-- Node24&#45;&gt;Node24 -->
<g id="edge26_Node000024_Node000024" class="edge">
<title>Node24&#45;&gt;Node24</title>
<g id="a_edge26_Node000024_Node000024"><a xlink:title=" ">
<path fill="none" stroke="#63b8ff" d="M1155.24,-222.19C1152.23,-226.43 1142.28,-229.5 1125.38,-229.5 1096.14,-229.5 1087.69,-220.32 1100.02,-211.75"/>
<polygon fill="#63b8ff" stroke="#63b8ff" points="1158.51,-220.93 1151.33,-213.14 1152.08,-223.7 1158.51,-220.93"/>
</a>
</g>
</g>
<!-- Node25&#45;&gt;Node25 -->
<g id="edge53_Node000025_Node000025" class="edge">
<title>Node25&#45;&gt;Node25</title>
<g id="a_edge53_Node000025_Node000025"><a xlink:title=" ">
<path fill="none" stroke="#63b8ff" d="M1155.24,-277.19C1152.23,-281.43 1142.28,-284.5 1125.38,-284.5 1096.14,-284.5 1087.69,-275.32 1100.02,-266.75"/>
<polygon fill="#63b8ff" stroke="#63b8ff" points="1158.51,-275.93 1151.33,-268.14 1152.08,-278.7 1158.51,-275.93"/>
</a>
</g>
</g>
<!-- Node26 -->
<g id="Node000026" class="node">
<title>Node26</title>
<g id="a_Node000026"><a xlink:href="a01925.html#afe7e4a63c40fbcaae742b8de8693483f" target="_top" xlink:title=" ">
<polygon fill="white" stroke="#666666" points="1012.38,-266.5 907.88,-266.5 907.88,-248 1012.38,-248 1012.38,-266.5"/>
<text text-anchor="middle" x="960.12" y="-253" font-family="Helvetica,sans-Serif" font-size="10.00">arax_object_ref_dec</text>
</a>
</g>
</g>
<!-- Node25&#45;&gt;Node26 -->
<g id="edge28_Node000025_Node000026" class="edge">
<title>Node25&#45;&gt;Node26</title>
<g id="a_edge28_Node000025_Node000026"><a xlink:title=" ">
<path fill="none" stroke="#63b8ff" d="M1063.96,-257.25C1047.09,-257.25 1028.93,-257.25 1012.62,-257.25"/>
<polygon fill="#63b8ff" stroke="#63b8ff" points="1063.88,-260.75 1073.88,-257.25 1063.88,-253.75 1063.88,-260.75"/>
</a>
</g>
</g>
<!-- Node40 -->
<g id="Node000040" class="node">
<title>Node40</title>
<g id="a_Node000040"><a xlink:href="a01925.html#a0a0b147b7fc892c291afe60cb0fa2c1c" target="_top" xlink:title=" ">
<polygon fill="white" stroke="#666666" points="1012.38,-224.75 907.88,-224.75 907.88,-195.75 1012.38,-195.75 1012.38,-224.75"/>
<text text-anchor="start" x="915.88" y="-211.25" font-family="Helvetica,sans-Serif" font-size="10.00">arax_object_ref_dec</text>
<text text-anchor="middle" x="960.12" y="-200.75" font-family="Helvetica,sans-Serif" font-size="10.00">_pre_locked</text>
</a>
</g>
</g>
<!-- Node25&#45;&gt;Node40 -->
<g id="edge50_Node000025_Node000040" class="edge">
<title>Node25&#45;&gt;Node40</title>
<g id="a_edge50_Node000025_Node000040"><a xlink:title=" ">
<path fill="none" stroke="#63b8ff" d="M1079.5,-244.33C1058.78,-238.36 1034.07,-231.25 1012.6,-225.07"/>
<polygon fill="#63b8ff" stroke="#63b8ff" points="1078.52,-247.69 1089.1,-247.09 1080.45,-240.96 1078.52,-247.69"/>
</a>
</g>
</g>
<!-- Node26&#45;&gt;Node10 -->
<g id="edge40_Node000026_Node000010" class="edge">
<title>Node26&#45;&gt;Node10</title>
<g id="a_edge40_Node000026_Node000010"><a xlink:title=" ">
<path fill="none" stroke="#63b8ff" d="M909.51,-242.81C905.01,-240.37 900.75,-237.54 897,-234.25 871.27,-211.72 889.48,-185.18 861,-166.25 774.28,-108.59 731.77,-145.25 627.62,-145.25 627.62,-145.25 627.62,-145.25 476.5,-145.25 406.2,-145.25 325.72,-148.65 270.82,-151.48"/>
<polygon fill="#63b8ff" stroke="#63b8ff" points="907.69,-245.82 918.23,-246.9 910.66,-239.48 907.69,-245.82"/>
</a>
</g>
</g>
<!-- Node27 -->
<g id="Node000027" class="node">
<title>Node27</title>
<g id="a_Node000027"><a xlink:href="a02187.html#ga41bcefd54b929d1a638d174da051130f" target="_top" xlink:title=" ">
<polygon fill="white" stroke="#666666" points="846.75,-117.5 743,-117.5 743,-99 846.75,-99 846.75,-117.5"/>
<text text-anchor="middle" x="794.88" y="-104" font-family="Helvetica,sans-Serif" font-size="10.00">arax_accel_list_free</text>
</a>
</g>
</g>
<!-- Node26&#45;&gt;Node27 -->
<g id="edge29_Node000026_Node000027" class="edge">
<title>Node26&#45;&gt;Node27</title>
<g id="a_edge29_Node000026_Node000027"><a xlink:title=" ">
<path fill="none" stroke="#63b8ff" d="M907.12,-242.25C903.43,-239.95 900,-237.3 897,-234.25 863.03,-199.65 895.23,-165.6 861,-131.25 855.24,-125.48 847.95,-121.15 840.34,-117.9"/>
<polygon fill="#63b8ff" stroke="#63b8ff" points="905.5,-245.36 915.98,-246.87 908.73,-239.15 905.5,-245.36"/>
</a>
</g>
</g>
<!-- Node28 -->
<g id="Node000028" class="node">
<title>Node28</title>
<g id="a_Node000028"><a xlink:href="a02187.html#ga497b17905d4c7ee2f5ee831d367ece92" target="_top" xlink:title=" ">
<polygon fill="white" stroke="#666666" points="845.25,-377.5 744.5,-377.5 744.5,-359 845.25,-359 845.25,-377.5"/>
<text text-anchor="middle" x="794.88" y="-364" font-family="Helvetica,sans-Serif" font-size="10.00">arax_accel_release</text>
</a>
</g>
</g>
<!-- Node26&#45;&gt;Node28 -->
<g id="edge30_Node000026_Node000028" class="edge">
<title>Node26&#45;&gt;Node28</title>
<g id="a_edge30_Node000026_Node000028"><a xlink:title=" ">
<path fill="none" stroke="#63b8ff" d="M944.23,-275.69C926.49,-296.47 894.97,-329.87 861,-349.25 854.45,-352.99 847.11,-356.04 839.78,-358.52"/>
<polygon fill="#63b8ff" stroke="#63b8ff" points="946.89,-277.96 950.6,-268.04 941.51,-273.48 946.89,-277.96"/>
</a>
</g>
</g>
<!-- Node30 -->
<g id="Node000030" class="node">
<title>Node30</title>
<g id="a_Node000030"><a xlink:href="a01922.html#a96e0520e5569748ce1172bafca24fafe" target="_top" xlink:title=" ">
<polygon fill="white" stroke="#666666" points="835.5,-340.5 754.25,-340.5 754.25,-322 835.5,-322 835.5,-340.5"/>
<text text-anchor="middle" x="794.88" y="-327" font-family="Helvetica,sans-Serif" font-size="10.00">arax_data_free</text>
</a>
</g>
</g>
<!-- Node26&#45;&gt;Node30 -->
<g id="edge32_Node000026_Node000030" class="edge">
<title>Node26&#45;&gt;Node30</title>
<g id="a_edge32_Node000026_Node000030"><a xlink:title=" ">
<path fill="none" stroke="#63b8ff" d="M934.82,-272.93C915.43,-284.92 887.25,-301.23 861,-312.25 852.64,-315.76 843.41,-318.88 834.6,-321.52"/>
<polygon fill="#63b8ff" stroke="#63b8ff" points="936.48,-276.02 943.09,-267.74 932.76,-270.09 936.48,-276.02"/>
</a>
</g>
</g>
<!-- Node31 -->
<g id="Node000031" class="node">
<title>Node31</title>
<g id="a_Node000031"><a xlink:href="a01922.html#a4b65f90a821aca384f0ca1cff7bd1846" target="_top" xlink:title=" ">
<polygon fill="white" stroke="#666666" points="857.62,-229.5 732.12,-229.5 732.12,-211 857.62,-211 857.62,-229.5"/>
<text text-anchor="middle" x="794.88" y="-216" font-family="Helvetica,sans-Serif" font-size="10.00">arax_data_migrate_accel</text>
</a>
</g>
</g>
<!-- Node26&#45;&gt;Node31 -->
<g id="edge33_Node000026_Node000031" class="edge">
<title>Node26&#45;&gt;Node31</title>
<g id="a_edge33_Node000026_Node000031"><a xlink:title=" ">
<path fill="none" stroke="#63b8ff" d="M905.25,-245.04C883.65,-240.14 859.12,-234.58 838.76,-229.97"/>
<polygon fill="#63b8ff" stroke="#63b8ff" points="904.23,-248.4 914.76,-247.19 905.78,-241.57 904.23,-248.4"/>
</a>
</g>
</g>
<!-- Node36 -->
<g id="Node000036" class="node">
<title>Node36</title>
<g id="a_Node000036"><a xlink:href="a01937.html#a5eb16d4196838d10a2b57715f2eddee7" target="_top" xlink:title=" ">
<polygon fill="white" stroke="#666666" points="861,-303.5 728.75,-303.5 728.75,-285 861,-285 861,-303.5"/>
<text text-anchor="middle" x="794.88" y="-290" font-family="Helvetica,sans-Serif" font-size="10.00">ARAX_OBJ_DTOR_DECL</text>
</a>
</g>
</g>
<!-- Node26&#45;&gt;Node36 -->
<g id="edge41_Node000026_Node000036" class="edge">
<title>Node26&#45;&gt;Node36</title>
<g id="a_edge41_Node000026_Node000036"><a xlink:title=" ">
<path fill="none" stroke="#63b8ff" d="M905.25,-269.46C883.65,-274.36 859.12,-279.92 838.76,-284.53"/>
<polygon fill="#63b8ff" stroke="#63b8ff" points="905.78,-272.93 914.76,-267.31 904.23,-266.1 905.78,-272.93"/>
</a>
</g>
</g>
<!-- Node37 -->
<g id="Node000037" class="node">
<title>Node37</title>
<g id="a_Node000037"><a xlink:href="a01928.html#aa0862a60d187bfed0cfa11bf27174551" target="_top" xlink:title=" ">
<polygon fill="white" stroke="#666666" points="854.25,-266.5 735.5,-266.5 735.5,-248 854.25,-248 854.25,-266.5"/>
<text text-anchor="middle" x="794.88" y="-253" font-family="Helvetica,sans-Serif" font-size="10.00">arax_pipe_delete_accel</text>
</a>
</g>
</g>
<!-- Node26&#45;&gt;Node37 -->
<g id="edge42_Node000026_Node000037" class="edge">
<title>Node26&#45;&gt;Node37</title>
<g id="a_edge42_Node000026_Node000037"><a xlink:title=" ">
<path fill="none" stroke="#63b8ff" d="M896.19,-257.25C882.51,-257.25 868.09,-257.25 854.58,-257.25"/>
<polygon fill="#63b8ff" stroke="#63b8ff" points="895.96,-260.75 905.96,-257.25 895.96,-253.75 895.96,-260.75"/>
</a>
</g>
</g>
<!-- Node38 -->
<g id="Node000038" class="node">
<title>Node38</title>
<g id="a_Node000038"><a xlink:href="a02188.html#ga70242aa6d9591e5fa3dbb36f1e27a896" target="_top" xlink:title=" ">
<polygon fill="white" stroke="#666666" points="389.62,-201.5 311.38,-201.5 311.38,-183 389.62,-183 389.62,-201.5"/>
<text text-anchor="middle" x="350.5" y="-188" font-family="Helvetica,sans-Serif" font-size="10.00">arax_proc_put</text>
</a>
</g>
</g>
<!-- Node26&#45;&gt;Node38 -->
<g id="edge43_Node000026_Node000038" class="edge">
<title>Node26&#45;&gt;Node38</title>
<g id="a_edge43_Node000026_Node000038"><a xlink:title=" ">
<path fill="none" stroke="#63b8ff" d="M915.48,-243.46C909.1,-240.77 902.75,-237.7 897,-234.25 878.65,-223.23 880.93,-210.05 861,-202.25 696.03,-137.67 477.39,-168 389.99,-184.28"/>
<polygon fill="#63b8ff" stroke="#63b8ff" points="914.15,-246.7 924.74,-247.07 916.69,-240.17 914.15,-246.7"/>
</a>
</g>
</g>
<!-- Node39 -->
<g id="Node000039" class="node">
<title>Node39</title>
<g id="a_Node000039"><a xlink:href="a02189.html#ga55195957c1cde1508257782716aa6db3" target="_top" xlink:title=" ">
<polygon fill="white" stroke="#666666" points="391.12,-296.5 309.88,-296.5 309.88,-278 391.12,-278 391.12,-296.5"/>
<text text-anchor="middle" x="350.5" y="-283" font-family="Helvetica,sans-Serif" font-size="10.00">arax_task_free</text>
</a>
</g>
</g>
<!-- Node26&#45;&gt;Node39 -->
<g id="edge46_Node000026_Node000039" class="edge">
<title>Node26&#45;&gt;Node39</title>
<g id="a_edge46_Node000026_Node000039"><a xlink:title=" ">
<path fill="none" stroke="#63b8ff" d="M950.94,-277.28C937.37,-307.44 907.07,-363.41 861,-386.25 741.34,-445.57 690.8,-415.55 560.5,-386.25 482.16,-368.63 398.66,-318.12 365.88,-296.86"/>
<polygon fill="#63b8ff" stroke="#63b8ff" points="954.12,-278.74 954.85,-268.17 947.69,-275.97 954.12,-278.74"/>
</a>
</g>
</g>
<!-- Node29 -->
<g id="Node000029" class="node">
<title>Node29</title>
<g id="a_Node000029"><a xlink:href="a01916.html#a871ba8da471f464d7e10b13d5db07101" target="_top" xlink:title=" ">
<polygon fill="white" stroke="#666666" points="692.75,-377.5 560.5,-377.5 560.5,-359 692.75,-359 692.75,-377.5"/>
<text text-anchor="middle" x="626.62" y="-364" font-family="Helvetica,sans-Serif" font-size="10.00">ARAX_OBJ_DTOR_DECL</text>
</a>
</g>
</g>
<!-- Node28&#45;&gt;Node29 -->
<g id="edge31_Node000028_Node000029" class="edge">
<title>Node28&#45;&gt;Node29</title>
<g id="a_edge31_Node000028_Node000029"><a xlink:title=" ">
<path fill="none" stroke="#63b8ff" d="M733.24,-368.25C720.21,-368.25 706.39,-368.25 693.19,-368.25"/>
<polygon fill="#63b8ff" stroke="#63b8ff" points="732.93,-371.75 742.93,-368.25 732.93,-364.75 732.93,-371.75"/>
</a>
</g>
</g>
<!-- Node32 -->
<g id="Node000032" class="node">
<title>Node32</title>
<g id="a_Node000032"><a xlink:href="a01922.html#a113a3c52b0c3b4f3b390921ee4c5022e" target="_top" xlink:title=" ">
<polygon fill="white" stroke="#666666" points="674.75,-303.5 578.5,-303.5 578.5,-285 674.75,-285 674.75,-303.5"/>
<text text-anchor="middle" x="626.62" y="-290" font-family="Helvetica,sans-Serif" font-size="10.00">arax_data_arg_init</text>
</a>
</g>
</g>
<!-- Node31&#45;&gt;Node32 -->
<g id="edge34_Node000031_Node000032" class="edge">
<title>Node31&#45;&gt;Node32</title>
<g id="a_edge34_Node000031_Node000032"><a xlink:title=" ">
<path fill="none" stroke="#63b8ff" d="M738.83,-234.1C735.34,-235.65 731.94,-237.36 728.75,-239.25 709.28,-250.78 712.22,-263.72 692.75,-275.25 686.37,-279.03 679.18,-282.1 671.97,-284.58"/>
<polygon fill="#63b8ff" stroke="#63b8ff" points="740.08,-237.37 748.12,-230.47 737.53,-230.85 740.08,-237.37"/>
</a>
</g>
</g>
<!-- Node33 -->
<g id="Node000033" class="node">
<title>Node33</title>
<g id="a_Node000033"><a xlink:href="a01922.html#a1dc669466d6f52d5be8af2d991512ac2" target="_top" xlink:title=" ">
<polygon fill="white" stroke="#666666" points="678.5,-266.5 574.75,-266.5 574.75,-248 678.5,-248 678.5,-266.5"/>
<text text-anchor="middle" x="626.62" y="-253" font-family="Helvetica,sans-Serif" font-size="10.00">arax_data_input_init</text>
</a>
</g>
</g>
<!-- Node31&#45;&gt;Node33 -->
<g id="edge35_Node000031_Node000033" class="edge">
<title>Node31&#45;&gt;Node33</title>
<g id="a_edge35_Node000031_Node000033"><a xlink:title=" ">
<path fill="none" stroke="#63b8ff" d="M739.01,-232.46C717.01,-237.36 692.03,-242.92 671.3,-247.53"/>
<polygon fill="#63b8ff" stroke="#63b8ff" points="739.72,-235.89 748.72,-230.3 738.2,-229.06 739.72,-235.89"/>
</a>
</g>
</g>
<!-- Node35 -->
<g id="Node000035" class="node">
<title>Node35</title>
<g id="a_Node000035"><a xlink:href="a01922.html#a18d07d808917e0b971d46332e9e64da4" target="_top" xlink:title=" ">
<polygon fill="white" stroke="#666666" points="681.5,-229.5 571.75,-229.5 571.75,-211 681.5,-211 681.5,-229.5"/>
<text text-anchor="middle" x="626.62" y="-216" font-family="Helvetica,sans-Serif" font-size="10.00">arax_data_output_init</text>
</a>
</g>
</g>
<!-- Node31&#45;&gt;Node35 -->
<g id="edge38_Node000031_Node000035" class="edge">
<title>Node31&#45;&gt;Node35</title>
<g id="a_edge38_Node000031_Node000035"><a xlink:title=" ">
<path fill="none" stroke="#63b8ff" d="M720.65,-220.25C707.64,-220.25 694.29,-220.25 681.92,-220.25"/>
<polygon fill="#63b8ff" stroke="#63b8ff" points="720.46,-223.75 730.46,-220.25 720.46,-216.75 720.46,-223.75"/>
</a>
</g>
</g>
<!-- Node34 -->
<g id="Node000034" class="node">
<title>Node34</title>
<g id="a_Node000034"><a xlink:href="a01937.html#a27bee94f7a23281c8b2b72ec433f6059" target="_top" xlink:title=" ">
<polygon fill="white" stroke="#666666" points="520,-247.5 435,-247.5 435,-229 520,-229 520,-247.5"/>
<text text-anchor="middle" x="477.5" y="-234" font-family="Helvetica,sans-Serif" font-size="10.00">arax_task_alloc</text>
</a>
</g>
</g>
<!-- Node33&#45;&gt;Node34 -->
<g id="edge36_Node000033_Node000034" class="edge">
<title>Node33&#45;&gt;Node34</title>
<g id="a_edge36_Node000033_Node000034"><a xlink:title=" ">
<path fill="none" stroke="#63b8ff" d="M563.56,-249.23C548.93,-247.35 533.69,-245.38 520.21,-243.64"/>
<polygon fill="#63b8ff" stroke="#63b8ff" points="562.71,-252.65 573.08,-250.46 563.61,-245.71 562.71,-252.65"/>
</a>
</g>
</g>
<!-- Node34&#45;&gt;Node5 -->
<g id="edge37_Node000034_Node000005" class="edge">
<title>Node34&#45;&gt;Node5</title>
<g id="a_edge37_Node000034_Node000005"><a xlink:title=" ">
<path fill="none" stroke="#63b8ff" d="M423.2,-238.25C413.74,-238.25 403.99,-238.25 394.85,-238.25"/>
<polygon fill="#63b8ff" stroke="#63b8ff" points="423.02,-241.75 433.02,-238.25 423.02,-234.75 423.02,-241.75"/>
</a>
</g>
</g>
<!-- Node35&#45;&gt;Node34 -->
<g id="edge39_Node000035_Node000034" class="edge">
<title>Node35&#45;&gt;Node34</title>
<g id="a_edge39_Node000035_Node000034"><a xlink:title=" ">
<path fill="none" stroke="#63b8ff" d="M560.03,-228.28C546.5,-229.93 532.62,-231.63 520.23,-233.15"/>
<polygon fill="#63b8ff" stroke="#63b8ff" points="560.26,-231.77 569.76,-227.09 559.41,-224.83 560.26,-231.77"/>
</a>
</g>
</g>
<!-- Node38&#45;&gt;Node7 -->
<g id="edge44_Node000038_Node000007" class="edge">
<title>Node38&#45;&gt;Node7</title>
<g id="a_edge44_Node000038_Node000007"><a xlink:title=" ">
<path fill="none" stroke="#63b8ff" d="M300.62,-204.8C281.88,-209.61 260.8,-215.02 243.24,-219.53"/>
<polygon fill="#63b8ff" stroke="#63b8ff" points="301.35,-208.22 310.17,-202.35 299.61,-201.44 301.35,-208.22"/>
</a>
</g>
</g>
<!-- Node38&#45;&gt;Node9 -->
<g id="edge45_Node000038_Node000009" class="edge">
<title>Node38&#45;&gt;Node9</title>
<g id="a_edge45_Node000038_Node000009"><a xlink:title=" ">
<path fill="none" stroke="#63b8ff" d="M299.49,-192.25C281.17,-192.25 260.74,-192.25 243.6,-192.25"/>
<polygon fill="#63b8ff" stroke="#63b8ff" points="299.36,-195.75 309.36,-192.25 299.36,-188.75 299.36,-195.75"/>
</a>
</g>
</g>
<!-- Node39&#45;&gt;Node6 -->
<g id="edge47_Node000039_Node000006" class="edge">
<title>Node39&#45;&gt;Node6</title>
<g id="a_edge47_Node000039_Node000006"><a xlink:title=" ">
<path fill="none" stroke="#63b8ff" d="M298.46,-294.69C284,-296.79 268.3,-299.08 253.99,-301.17"/>
<polygon fill="#63b8ff" stroke="#63b8ff" points="298.85,-298.17 308.24,-293.26 297.84,-291.24 298.85,-298.17"/>
</a>
</g>
</g>
<!-- Node39&#45;&gt;Node7 -->
<g id="edge48_Node000039_Node000007" class="edge">
<title>Node39&#45;&gt;Node7</title>
<g id="a_edge48_Node000039_Node000007"><a xlink:title=" ">
<path fill="none" stroke="#63b8ff" d="M321.93,-272.16C306.99,-264.36 288.05,-255.08 270.5,-248.25 261.72,-244.83 252.07,-241.69 242.94,-239"/>
<polygon fill="#63b8ff" stroke="#63b8ff" points="320.21,-275.21 330.68,-276.8 323.49,-269.02 320.21,-275.21"/>
</a>
</g>
</g>
<!-- Node39&#45;&gt;Node11 -->
<g id="edge49_Node000039_Node000011" class="edge">
<title>Node39&#45;&gt;Node11</title>
<g id="a_edge49_Node000039_Node000011"><a xlink:title=" ">
<path fill="none" stroke="#63b8ff" d="M298.54,-279.82C286.54,-278.08 273.68,-276.2 261.46,-274.42"/>
<polygon fill="#63b8ff" stroke="#63b8ff" points="297.84,-283.26 308.24,-281.24 298.85,-276.33 297.84,-283.26"/>
</a>
</g>
</g>
<!-- Node41 -->
<g id="Node000041" class="node">
<title>Node41</title>
<g id="a_Node000041"><a xlink:href="a01910.html#a4cb362223e9e7a76f4c5695080db2755" target="_top" xlink:title=" ">
<polygon fill="white" stroke="#666666" points="846.75,-80.75 743,-80.75 743,-51.75 846.75,-51.75 846.75,-80.75"/>
<text text-anchor="start" x="751" y="-67.25" font-family="Helvetica,sans-Serif" font-size="10.00">arax_accel_list_free</text>
<text text-anchor="middle" x="794.88" y="-56.75" font-family="Helvetica,sans-Serif" font-size="10.00">_pre_locked</text>
</a>
</g>
</g>
<!-- Node40&#45;&gt;Node41 -->
<g id="edge51_Node000040_Node000041" class="edge">
<title>Node40&#45;&gt;Node41</title>
<g id="a_edge51_Node000040_Node000041"><a xlink:title=" ">
<path fill="none" stroke="#63b8ff" d="M906.11,-189.19C902.82,-186.8 899.73,-184.15 897,-181.25 867.18,-149.59 892.12,-120.64 861,-90.25 856.95,-86.29 852.19,-82.98 847.12,-80.21"/>
<polygon fill="#63b8ff" stroke="#63b8ff" points="904.23,-192.14 914.56,-194.51 907.96,-186.22 904.23,-192.14"/>
</a>
</g>
</g>
<!-- Node42 -->
<g id="Node000042" class="node">
<title>Node42</title>
<g id="a_Node000042"><a xlink:href="a02187.html#ga7f1598b99463c5ef533a457f225b4c0b" target="_top" xlink:title=" ">
<polygon fill="white" stroke="#666666" points="667.62,-75.5 585.62,-75.5 585.62,-57 667.62,-57 667.62,-75.5"/>
<text text-anchor="middle" x="626.62" y="-62" font-family="Helvetica,sans-Serif" font-size="10.00">arax_accel_list</text>
</a>
</g>
</g>
<!-- Node41&#45;&gt;Node42 -->
<g id="edge52_Node000041_Node000042" class="edge">
<title>Node41&#45;&gt;Node42</title>
<g id="a_edge52_Node000041_Node000042"><a xlink:title=" ">
<path fill="none" stroke="#63b8ff" d="M731.39,-66.25C710.13,-66.25 686.93,-66.25 667.88,-66.25"/>
<polygon fill="#63b8ff" stroke="#63b8ff" points="731.12,-69.75 741.12,-66.25 731.12,-62.75 731.12,-69.75"/>
</a>
</g>
</g>
</g>
</svg>
