<?xml version="1.0" encoding="UTF-8" standalone="no"?>
<!DOCTYPE svg PUBLIC "-//W3C//DTD SVG 1.1//EN"
 "http://www.w3.org/Graphics/SVG/1.1/DTD/svg11.dtd">
<!-- Generated by graphviz version 8.0.5 (0)
 -->
<!-- Title: arax_ptr.h Pages: 1 -->
<svg width="330pt" height="81pt"
 viewBox="0.00 0.00 330.12 81.00" xmlns="http://www.w3.org/2000/svg" xmlns:xlink="http://www.w3.org/1999/xlink">
<g id="graph0" class="graph" transform="scale(1 1) rotate(0) translate(4 77)">
<title>arax_ptr.h</title>
<!-- Node1 -->
<g id="Node000001" class="node">
<title>Node1</title>
<g id="a_Node000001"><a xlink:title=" ">
<polygon fill="#999999" stroke="#666666" points="200.12,-73 139.88,-73 139.88,-54.5 200.12,-54.5 200.12,-73"/>
<text text-anchor="middle" x="170" y="-59.5" font-family="Helvetica,sans-Serif" font-size="10.00">arax_ptr.h</text>
</a>
</g>
</g>
<!-- Node2 -->
<g id="Node000002" class="node">
<title>Node2</title>
<g id="a_Node000002"><a xlink:href="a01937.html" target="_top" xlink:title=" ">
<polygon fill="white" stroke="#666666" points="76,-18.5 0,-18.5 0,0 76,0 76,-18.5"/>
<text text-anchor="middle" x="38" y="-5" font-family="Helvetica,sans-Serif" font-size="10.00">arax_assert.c</text>
</a>
</g>
</g>
<!-- Node1&#45;&gt;Node2 -->
<g id="edge1_Node000001_Node000002" class="edge">
<title>Node1&#45;&gt;Node2</title>
<g id="a_edge1_Node000001_Node000002"><a xlink:title=" ">
<path fill="none" stroke="#63b8ff" d="M138.06,-50.05C113.82,-40.41 81.15,-27.41 59.83,-18.93"/>
<polygon fill="#63b8ff" stroke="#63b8ff" points="136.62,-53.64 147.2,-54.08 139.2,-47.13 136.62,-53.64"/>
</a>
</g>
</g>
<!-- Node3 -->
<g id="Node000003" class="node">
<title>Node3</title>
<g id="a_Node000003"><a xlink:href="a01931.html" target="_top" xlink:title=" ">
<polygon fill="white" stroke="#666666" points="161.88,-18.5 94.12,-18.5 94.12,0 161.88,0 161.88,-18.5"/>
<text text-anchor="middle" x="128" y="-5" font-family="Helvetica,sans-Serif" font-size="10.00">arax_data.c</text>
</a>
</g>
</g>
<!-- Node1&#45;&gt;Node3 -->
<g id="edge2_Node000001_Node000003" class="edge">
<title>Node1&#45;&gt;Node3</title>
<g id="a_edge2_Node000001_Node000003"><a xlink:title=" ">
<path fill="none" stroke="#63b8ff" d="M156.21,-45.52C149.04,-36.54 140.58,-25.97 134.81,-18.76"/>
<polygon fill="#63b8ff" stroke="#63b8ff" points="154.08,-47.46 163.06,-53.08 159.55,-43.09 154.08,-47.46"/>
</a>
</g>
</g>
<!-- Node4 -->
<g id="Node000004" class="node">
<title>Node4</title>
<g id="a_Node000004"><a xlink:href="a01940.html" target="_top" xlink:title=" ">
<polygon fill="white" stroke="#666666" points="244,-18.5 180,-18.5 180,0 244,0 244,-18.5"/>
<text text-anchor="middle" x="212" y="-5" font-family="Helvetica,sans-Serif" font-size="10.00">arax_plot.c</text>
</a>
</g>
</g>
<!-- Node1&#45;&gt;Node4 -->
<g id="edge3_Node000001_Node000004" class="edge">
<title>Node1&#45;&gt;Node4</title>
<g id="a_edge3_Node000001_Node000004"><a xlink:title=" ">
<path fill="none" stroke="#63b8ff" d="M183.79,-45.52C190.96,-36.54 199.42,-25.97 205.19,-18.76"/>
<polygon fill="#63b8ff" stroke="#63b8ff" points="180.45,-43.09 176.94,-53.08 185.92,-47.46 180.45,-43.09"/>
</a>
</g>
</g>
<!-- Node5 -->
<g id="Node000005" class="node">
<title>Node5</title>
<g id="a_Node000005"><a xlink:href="a01919.html" target="_top" xlink:title=" ">
<polygon fill="white" stroke="#666666" points="322.12,-18.5 261.88,-18.5 261.88,0 322.12,0 322.12,-18.5"/>
<text text-anchor="middle" x="292" y="-5" font-family="Helvetica,sans-Serif" font-size="10.00">arax_ptr.c</text>
</a>
</g>
</g>
<!-- Node1&#45;&gt;Node5 -->
<g id="edge4_Node000001_Node000005" class="edge">
<title>Node1&#45;&gt;Node5</title>
<g id="a_edge4_Node000001_Node000005"><a xlink:title=" ">
<path fill="none" stroke="#63b8ff" d="M200.12,-49.79C222.46,-40.17 252.3,-27.33 271.82,-18.93"/>
<polygon fill="#63b8ff" stroke="#63b8ff" points="198.95,-46.91 191.15,-54.08 201.71,-53.34 198.95,-46.91"/>
</a>
</g>
</g>
</g>
</svg>
