<?xml version="1.0" encoding="UTF-8" standalone="no"?>
<!DOCTYPE svg PUBLIC "-//W3C//DTD SVG 1.1//EN"
 "http://www.w3.org/Graphics/SVG/1.1/DTD/svg11.dtd">
<!-- Generated by graphviz version 8.0.5 (0)
 -->
<!-- Title: async_completion_init Pages: 1 -->
<svg width="1481pt" height="536pt"
 viewBox="0.00 0.00 1481.25 535.75" xmlns="http://www.w3.org/2000/svg" xmlns:xlink="http://www.w3.org/1999/xlink">
<g id="graph0" class="graph" transform="scale(1 1) rotate(0) translate(4 531.75)">
<title>async_completion_init</title>
<!-- Node1 -->
<g id="Node000001" class="node">
<title>Node1</title>
<g id="a_Node000001"><a xlink:title=" ">
<polygon fill="#999999" stroke="#666666" points="1473.25,-284.75 1361.25,-284.75 1361.25,-266.25 1473.25,-266.25 1473.25,-284.75"/>
<text text-anchor="middle" x="1417.25" y="-271.25" font-family="Helvetica,sans-Serif" font-size="10.00">async_completion_init</text>
</a>
</g>
</g>
<!-- Node2 -->
<g id="Node000002" class="node">
<title>Node2</title>
<g id="a_Node000002"><a xlink:href="a01922.html#a27bee94f7a23281c8b2b72ec433f6059" target="_top" xlink:title=" ">
<polygon fill="white" stroke="#666666" points="568,-412.75 483,-412.75 483,-394.25 568,-394.25 568,-412.75"/>
<text text-anchor="middle" x="525.5" y="-399.25" font-family="Helvetica,sans-Serif" font-size="10.00">arax_task_alloc</text>
</a>
</g>
</g>
<!-- Node1&#45;&gt;Node2 -->
<g id="edge1_Node000001_Node000002" class="edge">
<title>Node1&#45;&gt;Node2</title>
<g id="a_edge1_Node000001_Node000002"><a xlink:title=" ">
<path fill="none" stroke="#63b8ff" d="M1395.53,-291.57C1349.08,-325.94 1231.9,-403.5 1120.38,-403.5 1120.38,-403.5 1120.38,-403.5 811.5,-403.5 724.91,-403.5 623.53,-403.5 568.04,-403.5"/>
<polygon fill="#63b8ff" stroke="#63b8ff" points="1397.22,-293.93 1403.1,-285.12 1393.01,-288.34 1397.22,-293.93"/>
</a>
</g>
</g>
<!-- Node10 -->
<g id="Node000010" class="node">
<title>Node10</title>
<g id="a_Node000010"><a xlink:href="a02352.html#ac7fbf1f43289d3e0e862b315f00e35e2" target="_top" xlink:title=" ">
<polygon fill="white" stroke="#666666" points="1319.25,-169.75 1215.5,-169.75 1215.5,-151.25 1319.25,-151.25 1319.25,-169.75"/>
<text text-anchor="middle" x="1267.38" y="-156.25" font-family="Helvetica,sans-Serif" font-size="10.00">async_condition_init</text>
</a>
</g>
</g>
<!-- Node1&#45;&gt;Node10 -->
<g id="edge10_Node000001_Node000010" class="edge">
<title>Node1&#45;&gt;Node10</title>
<g id="a_edge10_Node000001_Node000010"><a xlink:title=" ">
<path fill="none" stroke="#63b8ff" d="M1395.47,-259.34C1364.16,-234.99 1305.87,-189.66 1280.59,-170"/>
<polygon fill="#63b8ff" stroke="#63b8ff" points="1392.85,-262.52 1402.9,-265.89 1397.15,-256.99 1392.85,-262.52"/>
</a>
</g>
</g>
<!-- Node22 -->
<g id="Node000022" class="node">
<title>Node22</title>
<g id="a_Node000022"><a xlink:href="a02352.html#a7ab7c7fe9cb93434dde72a4e464a7e69" target="_top" xlink:title=" ">
<polygon fill="white" stroke="#666666" points="1325.25,-284.75 1209.5,-284.75 1209.5,-266.25 1325.25,-266.25 1325.25,-284.75"/>
<text text-anchor="middle" x="1267.38" y="-271.25" font-family="Helvetica,sans-Serif" font-size="10.00">async_semaphore_dec</text>
</a>
</g>
</g>
<!-- Node1&#45;&gt;Node22 -->
<g id="edge26_Node000001_Node000022" class="edge">
<title>Node1&#45;&gt;Node22</title>
<g id="a_edge26_Node000001_Node000022"><a xlink:title=" ">
<path fill="none" stroke="#63b8ff" d="M1349.86,-275.5C1341.78,-275.5 1333.58,-275.5 1325.65,-275.5"/>
<polygon fill="#63b8ff" stroke="#63b8ff" points="1349.77,-279 1359.77,-275.5 1349.77,-272 1349.77,-279"/>
</a>
</g>
</g>
<!-- Node3 -->
<g id="Node000003" class="node">
<title>Node3</title>
<g id="a_Node000003"><a xlink:href="a02177.html#gac9f0f3fbb14da879d3ff09bd367bbb24" target="_top" xlink:title=" ">
<polygon fill="white" stroke="#666666" points="413.62,-435.75 325.62,-435.75 325.62,-417.25 413.62,-417.25 413.62,-435.75"/>
<text text-anchor="middle" x="369.62" y="-422.25" font-family="Helvetica,sans-Serif" font-size="10.00">arax_task_issue</text>
</a>
</g>
</g>
<!-- Node2&#45;&gt;Node3 -->
<g id="edge2_Node000002_Node000003" class="edge">
<title>Node2&#45;&gt;Node3</title>
<g id="a_edge2_Node000002_Node000003"><a xlink:title=" ">
<path fill="none" stroke="#63b8ff" d="M472.01,-411.35C453.09,-414.17 431.96,-417.33 413.91,-420.03"/>
<polygon fill="#63b8ff" stroke="#63b8ff" points="472.49,-414.66 481.86,-409.72 471.45,-407.74 472.49,-414.66"/>
</a>
</g>
</g>
<!-- Node4 -->
<g id="Node000004" class="node">
<title>Node4</title>
<g id="a_Node000004"><a xlink:href="a01931.html#af8ede6fc8d207004035f45d945688d2c" target="_top" xlink:title=" ">
<polygon fill="white" stroke="#666666" points="253.62,-380 155.12,-380 155.12,-351 253.62,-351 253.62,-380"/>
<text text-anchor="start" x="163.12" y="-366.5" font-family="Helvetica,sans-Serif" font-size="10.00">arax_data_allocate</text>
<text text-anchor="middle" x="204.38" y="-356" font-family="Helvetica,sans-Serif" font-size="10.00">_remote</text>
</a>
</g>
</g>
<!-- Node3&#45;&gt;Node4 -->
<g id="edge3_Node000003_Node000004" class="edge">
<title>Node3&#45;&gt;Node4</title>
<g id="a_edge3_Node000003_Node000004"><a xlink:title=" ">
<path fill="none" stroke="#63b8ff" d="M333.12,-413.04C314.49,-405.99 291.27,-397.24 270.5,-389.5 262.6,-386.55 254.15,-383.42 246.04,-380.43"/>
<polygon fill="#63b8ff" stroke="#63b8ff" points="331.64,-416.6 342.23,-416.86 334.12,-410.05 331.64,-416.6"/>
</a>
</g>
</g>
<!-- Node5 -->
<g id="Node000005" class="node">
<title>Node5</title>
<g id="a_Node000005"><a xlink:href="a01931.html#a696bc4319d0f6c6baa7d797a8df6b56f" target="_top" xlink:title=" ">
<polygon fill="white" stroke="#666666" points="243.5,-527.75 165.25,-527.75 165.25,-509.25 243.5,-509.25 243.5,-527.75"/>
<text text-anchor="middle" x="204.38" y="-514.25" font-family="Helvetica,sans-Serif" font-size="10.00">arax_data_get</text>
</a>
</g>
</g>
<!-- Node3&#45;&gt;Node5 -->
<g id="edge4_Node000003_Node000005" class="edge">
<title>Node3&#45;&gt;Node5</title>
<g id="a_edge4_Node000003_Node000005"><a xlink:title=" ">
<path fill="none" stroke="#63b8ff" d="M350.31,-443.3C331.53,-459.72 300.86,-484.39 270.5,-499.5 262.17,-503.65 252.78,-507.04 243.78,-509.76"/>
<polygon fill="#63b8ff" stroke="#63b8ff" points="352.15,-446.46 357.28,-437.19 347.49,-441.23 352.15,-446.46"/>
</a>
</g>
</g>
<!-- Node7 -->
<g id="Node000007" class="node">
<title>Node7</title>
<g id="a_Node000007"><a xlink:href="a01931.html#a8995f71dba475975efc37756783cfce9" target="_top" xlink:title=" ">
<polygon fill="white" stroke="#666666" points="243.5,-490.75 165.25,-490.75 165.25,-472.25 243.5,-472.25 243.5,-490.75"/>
<text text-anchor="middle" x="204.38" y="-477.25" font-family="Helvetica,sans-Serif" font-size="10.00">arax_data_set</text>
</a>
</g>
</g>
<!-- Node3&#45;&gt;Node7 -->
<g id="edge6_Node000003_Node000007" class="edge">
<title>Node3&#45;&gt;Node7</title>
<g id="a_edge6_Node000003_Node000007"><a xlink:title=" ">
<path fill="none" stroke="#63b8ff" d="M333.68,-439.97C315.04,-447 291.64,-455.55 270.5,-462.5 260.77,-465.7 250.13,-468.92 240.32,-471.78"/>
<polygon fill="#63b8ff" stroke="#63b8ff" points="334.67,-442.96 342.78,-436.14 332.19,-436.42 334.67,-442.96"/>
</a>
</g>
</g>
<!-- Node8 -->
<g id="Node000008" class="node">
<title>Node8</title>
<g id="a_Node000008"><a xlink:href="a01931.html#af735744d0f8bec04394639a841d2ba0f" target="_top" xlink:title=" ">
<polygon fill="white" stroke="#666666" points="270.5,-453.75 138.25,-453.75 138.25,-435.25 270.5,-435.25 270.5,-453.75"/>
<text text-anchor="middle" x="204.38" y="-440.25" font-family="Helvetica,sans-Serif" font-size="10.00">ARAX_OBJ_DTOR_DECL</text>
</a>
</g>
</g>
<!-- Node3&#45;&gt;Node8 -->
<g id="edge8_Node000003_Node000008" class="edge">
<title>Node3&#45;&gt;Node8</title>
<g id="a_edge8_Node000003_Node000008"><a xlink:title=" ">
<path fill="none" stroke="#63b8ff" d="M314.39,-432.48C300.41,-434.02 285.22,-435.7 270.74,-437.29"/>
<polygon fill="#63b8ff" stroke="#63b8ff" points="314.75,-435.85 324.31,-431.28 313.98,-428.89 314.75,-435.85"/>
</a>
</g>
</g>
<!-- Node9 -->
<g id="Node000009" class="node">
<title>Node9</title>
<g id="a_Node000009"><a xlink:href="a02177.html#ga1418f4cd7336bf77cce7b955a1bf7077" target="_top" xlink:title=" ">
<polygon fill="white" stroke="#666666" points="261.12,-416.75 147.62,-416.75 147.62,-398.25 261.12,-398.25 261.12,-416.75"/>
<text text-anchor="middle" x="204.38" y="-403.25" font-family="Helvetica,sans-Serif" font-size="10.00">arax_task_issue_sync</text>
</a>
</g>
</g>
<!-- Node3&#45;&gt;Node9 -->
<g id="edge9_Node000003_Node000009" class="edge">
<title>Node3&#45;&gt;Node9</title>
<g id="a_edge9_Node000003_Node000009"><a xlink:title=" ">
<path fill="none" stroke="#63b8ff" d="M314.43,-420.19C297.44,-418.22 278.66,-416.03 261.53,-414.04"/>
<polygon fill="#63b8ff" stroke="#63b8ff" points="313.97,-423.78 324.31,-421.46 314.78,-416.83 313.97,-423.78"/>
</a>
</g>
</g>
<!-- Node6 -->
<g id="Node000006" class="node">
<title>Node6</title>
<g id="a_Node000006"><a xlink:href="a01931.html#a7d8356bd5c8b6a8d7dffc6ba94cc22e5" target="_top" xlink:title=" ">
<polygon fill="white" stroke="#666666" points="102.25,-508.75 0,-508.75 0,-490.25 102.25,-490.25 102.25,-508.75"/>
<text text-anchor="middle" x="51.12" y="-495.25" font-family="Helvetica,sans-Serif" font-size="10.00">arax_data_memcpy</text>
</a>
</g>
</g>
<!-- Node5&#45;&gt;Node6 -->
<g id="edge5_Node000005_Node000006" class="edge">
<title>Node5&#45;&gt;Node6</title>
<g id="a_edge5_Node000005_Node000006"><a xlink:title=" ">
<path fill="none" stroke="#63b8ff" d="M154.27,-512.33C137.73,-510.25 119.26,-507.93 102.61,-505.84"/>
<polygon fill="#63b8ff" stroke="#63b8ff" points="153.46,-515.88 163.82,-513.66 154.33,-508.94 153.46,-515.88"/>
</a>
</g>
</g>
<!-- Node7&#45;&gt;Node6 -->
<g id="edge7_Node000007_Node000006" class="edge">
<title>Node7&#45;&gt;Node6</title>
<g id="a_edge7_Node000007_Node000006"><a xlink:title=" ">
<path fill="none" stroke="#63b8ff" d="M154.27,-487.34C137.73,-489.31 119.26,-491.51 102.61,-493.49"/>
<polygon fill="#63b8ff" stroke="#63b8ff" points="154.3,-490.75 163.82,-486.09 153.47,-483.8 154.3,-490.75"/>
</a>
</g>
</g>
<!-- Node11 -->
<g id="Node000011" class="node">
<title>Node11</title>
<g id="a_Node000011"><a xlink:href="a01904.html#a0706a66a62ca8710342ac1c097b703ed" target="_top" xlink:title=" ">
<polygon fill="white" stroke="#666666" points="410.62,-189.75 328.62,-189.75 328.62,-171.25 410.62,-171.25 410.62,-189.75"/>
<text text-anchor="middle" x="369.62" y="-176.25" font-family="Helvetica,sans-Serif" font-size="10.00">arax_accel_init</text>
</a>
</g>
</g>
<!-- Node10&#45;&gt;Node11 -->
<g id="edge11_Node000010_Node000011" class="edge">
<title>Node10&#45;&gt;Node11</title>
<g id="a_edge11_Node000010_Node000011"><a xlink:title=" ">
<path fill="none" stroke="#63b8ff" d="M1204.11,-166.75C1143.56,-172.29 1048.94,-179.5 966.75,-179.5 966.75,-179.5 966.75,-179.5 669.5,-179.5 576.88,-179.5 468.11,-179.99 410.75,-180.28"/>
<polygon fill="#63b8ff" stroke="#63b8ff" points="1204.38,-170.15 1214.01,-165.74 1203.73,-163.18 1204.38,-170.15"/>
</a>
</g>
</g>
<!-- Node12 -->
<g id="Node000012" class="node">
<title>Node12</title>
<g id="a_Node000012"><a xlink:href="a01913.html#aa6293e9ec7776aa49ecf632fcc4f5e26" target="_top" xlink:title=" ">
<polygon fill="white" stroke="#666666" points="1004.12,-145.75 927.38,-145.75 927.38,-127.25 1004.12,-127.25 1004.12,-145.75"/>
<text text-anchor="middle" x="965.75" y="-132.25" font-family="Helvetica,sans-Serif" font-size="10.00">arax_pipe_init</text>
</a>
</g>
</g>
<!-- Node10&#45;&gt;Node12 -->
<g id="edge12_Node000010_Node000012" class="edge">
<title>Node10&#45;&gt;Node12</title>
<g id="a_edge12_Node000010_Node000012"><a xlink:title=" ">
<path fill="none" stroke="#63b8ff" d="M1204.32,-155.53C1144.08,-150.7 1054.62,-143.54 1004.42,-139.52"/>
<polygon fill="#63b8ff" stroke="#63b8ff" points="1203.96,-159.09 1214.21,-156.4 1204.52,-152.11 1203.96,-159.09"/>
</a>
</g>
</g>
<!-- Node21 -->
<g id="Node000021" class="node">
<title>Node21</title>
<g id="a_Node000021"><a xlink:href="a01925.html#acf84ea82594c4dbe91cf602ee078e04d" target="_top" xlink:title=" ">
<polygon fill="white" stroke="#666666" points="1163.75,-113.75 1075,-113.75 1075,-95.25 1163.75,-95.25 1163.75,-113.75"/>
<text text-anchor="middle" x="1119.38" y="-100.25" font-family="Helvetica,sans-Serif" font-size="10.00">arax_throttle_init</text>
</a>
</g>
</g>
<!-- Node10&#45;&gt;Node21 -->
<g id="edge23_Node000010_Node000021" class="edge">
<title>Node10&#45;&gt;Node21</title>
<g id="a_edge23_Node000010_Node000021"><a xlink:title=" ">
<path fill="none" stroke="#63b8ff" d="M1231.29,-147.04C1204.88,-136.91 1169.3,-123.26 1145.63,-114.19"/>
<polygon fill="#63b8ff" stroke="#63b8ff" points="1229.69,-150.56 1240.28,-150.87 1232.19,-144.02 1229.69,-150.56"/>
</a>
</g>
</g>
<!-- Node13 -->
<g id="Node000013" class="node">
<title>Node13</title>
<g id="a_Node000013"><a xlink:href="a01898.html#a02fd608f651d254148dc74f0ae371dfe" target="_top" xlink:title=" ">
<polygon fill="white" stroke="#666666" points="841.88,-145.75 783.12,-145.75 783.12,-127.25 841.88,-127.25 841.88,-145.75"/>
<text text-anchor="middle" x="812.5" y="-132.25" font-family="Helvetica,sans-Serif" font-size="10.00">_arax_init</text>
</a>
</g>
</g>
<!-- Node12&#45;&gt;Node13 -->
<g id="edge13_Node000012_Node000013" class="edge">
<title>Node12&#45;&gt;Node13</title>
<g id="a_edge13_Node000012_Node000013"><a xlink:title=" ">
<path fill="none" stroke="#63b8ff" d="M916.12,-136.5C891.76,-136.5 863.09,-136.5 842.25,-136.5"/>
<polygon fill="#63b8ff" stroke="#63b8ff" points="915.97,-140 925.97,-136.5 915.97,-133 915.97,-140"/>
</a>
</g>
</g>
<!-- Node14 -->
<g id="Node000014" class="node">
<title>Node14</title>
<g id="a_Node000014"><a xlink:href="a01898.html#aa6e4832b06bd5757be4502d2de7b3026" target="_top" xlink:title=" ">
<polygon fill="white" stroke="#666666" points="719.75,-151 621.25,-151 621.25,-122 719.75,-122 719.75,-151"/>
<text text-anchor="start" x="629.25" y="-137.5" font-family="Helvetica,sans-Serif" font-size="10.00">arax_controller_init</text>
<text text-anchor="middle" x="670.5" y="-127" font-family="Helvetica,sans-Serif" font-size="10.00">_start</text>
</a>
</g>
</g>
<!-- Node13&#45;&gt;Node14 -->
<g id="edge14_Node000013_Node000014" class="edge">
<title>Node13&#45;&gt;Node14</title>
<g id="a_edge14_Node000013_Node000014"><a xlink:title=" ">
<path fill="none" stroke="#63b8ff" d="M772.11,-136.5C755.92,-136.5 737.01,-136.5 719.98,-136.5"/>
<polygon fill="#63b8ff" stroke="#63b8ff" points="771.83,-140 781.83,-136.5 771.83,-133 771.83,-140"/>
</a>
</g>
</g>
<!-- Node15 -->
<g id="Node000015" class="node">
<title>Node15</title>
<g id="a_Node000015"><a xlink:href="a02174.html#gae1d371a2840849690acce147e7a205da" target="_top" xlink:title=" ">
<polygon fill="white" stroke="#666666" points="697.25,-65.75 643.75,-65.75 643.75,-47.25 697.25,-47.25 697.25,-65.75"/>
<text text-anchor="middle" x="670.5" y="-52.25" font-family="Helvetica,sans-Serif" font-size="10.00">arax_init</text>
</a>
</g>
</g>
<!-- Node13&#45;&gt;Node15 -->
<g id="edge15_Node000013_Node000015" class="edge">
<title>Node13&#45;&gt;Node15</title>
<g id="a_edge15_Node000013_Node000015"><a xlink:title=" ">
<path fill="none" stroke="#63b8ff" d="M785.31,-121.53C756.95,-105.33 712.55,-79.96 688.45,-66.18"/>
<polygon fill="#63b8ff" stroke="#63b8ff" points="783.19,-124.93 793.61,-126.85 786.67,-118.85 783.19,-124.93"/>
</a>
</g>
</g>
<!-- Node16 -->
<g id="Node000016" class="node">
<title>Node16</title>
<g id="a_Node000016"><a xlink:href="a01940.html#a8a99bcb12e2ee55d68a029bfca9b6d51" target="_top" xlink:title=" ">
<polygon fill="white" stroke="#666666" points="416.62,-29 322.62,-29 322.62,0 416.62,0 416.62,-29"/>
<text text-anchor="start" x="330.62" y="-15.5" font-family="Helvetica,sans-Serif" font-size="10.00">arax_plot_register</text>
<text text-anchor="middle" x="369.62" y="-5" font-family="Helvetica,sans-Serif" font-size="10.00">_metric</text>
</a>
</g>
</g>
<!-- Node15&#45;&gt;Node16 -->
<g id="edge16_Node000015_Node000016" class="edge">
<title>Node15&#45;&gt;Node16</title>
<g id="a_edge16_Node000015_Node000016"><a xlink:title=" ">
<path fill="none" stroke="#63b8ff" d="M632.54,-48.1C617.06,-44.79 598.84,-41.15 582.25,-38.5 525.65,-29.47 460.01,-22.58 417.03,-18.54"/>
<polygon fill="#63b8ff" stroke="#63b8ff" points="631.75,-51.73 642.27,-50.44 633.24,-44.89 631.75,-51.73"/>
</a>
</g>
</g>
<!-- Node17 -->
<g id="Node000017" class="node">
<title>Node17</title>
<g id="a_Node000017"><a xlink:href="a01919.html#a80ab3bf4a8af9bb101b5a53248609771" target="_top" xlink:title=" ">
<polygon fill="white" stroke="#666666" points="563.88,-65.75 487.12,-65.75 487.12,-47.25 563.88,-47.25 563.88,-65.75"/>
<text text-anchor="middle" x="525.5" y="-52.25" font-family="Helvetica,sans-Serif" font-size="10.00">arax_ptr_valid</text>
</a>
</g>
</g>
<!-- Node15&#45;&gt;Node17 -->
<g id="edge17_Node000015_Node000017" class="edge">
<title>Node15&#45;&gt;Node17</title>
<g id="a_edge17_Node000015_Node000017"><a xlink:title=" ">
<path fill="none" stroke="#63b8ff" d="M632.51,-56.5C611.5,-56.5 585.26,-56.5 564.14,-56.5"/>
<polygon fill="#63b8ff" stroke="#63b8ff" points="632.27,-60 642.27,-56.5 632.27,-53 632.27,-60"/>
</a>
</g>
</g>
<!-- Node17&#45;&gt;Node16 -->
<g id="edge22_Node000017_Node000016" class="edge">
<title>Node17&#45;&gt;Node16</title>
<g id="a_edge22_Node000017_Node000016"><a xlink:title=" ">
<path fill="none" stroke="#63b8ff" d="M478.38,-43.91C458.95,-38.61 436.37,-32.45 416.92,-27.14"/>
<polygon fill="#63b8ff" stroke="#63b8ff" points="477.24,-47.5 487.81,-46.76 479.09,-40.75 477.24,-47.5"/>
</a>
</g>
</g>
<!-- Node18 -->
<g id="Node000018" class="node">
<title>Node18</title>
<g id="a_Node000018"><a xlink:href="a01937.html#a4ee1fea325d2edd421f59ab240dfbe54" target="_top" xlink:title=" ">
<polygon fill="white" stroke="#666666" points="415.5,-102.75 323.75,-102.75 323.75,-84.25 415.5,-84.25 415.5,-102.75"/>
<text text-anchor="middle" x="369.62" y="-89.25" font-family="Helvetica,sans-Serif" font-size="10.00">_arax_assert_obj</text>
</a>
</g>
</g>
<!-- Node17&#45;&gt;Node18 -->
<g id="edge18_Node000017_Node000018" class="edge">
<title>Node17&#45;&gt;Node18</title>
<g id="a_edge18_Node000017_Node000018"><a xlink:title=" ">
<path fill="none" stroke="#63b8ff" d="M476.25,-68.1C455.32,-73.13 431.09,-78.96 411.11,-83.76"/>
<polygon fill="#63b8ff" stroke="#63b8ff" points="476.95,-71.29 485.86,-65.55 475.32,-64.49 476.95,-71.29"/>
</a>
</g>
</g>
<!-- Node19 -->
<g id="Node000019" class="node">
<title>Node19</title>
<g id="a_Node000019"><a xlink:href="a01931.html#afeaab7d93372f0752d59c70d9c5940e7" target="_top" xlink:title=" ">
<polygon fill="white" stroke="#666666" points="407.62,-65.75 331.62,-65.75 331.62,-47.25 407.62,-47.25 407.62,-65.75"/>
<text text-anchor="middle" x="369.62" y="-52.25" font-family="Helvetica,sans-Serif" font-size="10.00">arax_data_ref</text>
</a>
</g>
</g>
<!-- Node17&#45;&gt;Node19 -->
<g id="edge19_Node000017_Node000019" class="edge">
<title>Node17&#45;&gt;Node19</title>
<g id="a_edge19_Node000017_Node000019"><a xlink:title=" ">
<path fill="none" stroke="#63b8ff" d="M476.05,-56.5C454.02,-56.5 428.36,-56.5 407.88,-56.5"/>
<polygon fill="#63b8ff" stroke="#63b8ff" points="475.86,-60 485.86,-56.5 475.86,-53 475.86,-60"/>
</a>
</g>
</g>
<!-- Node20 -->
<g id="Node000020" class="node">
<title>Node20</title>
<g id="a_Node000020"><a xlink:href="a01931.html#ac1f7fb20b3a23b388bea24f1b46a33a8" target="_top" xlink:title=" ">
<polygon fill="white" stroke="#666666" points="257,-102.75 151.75,-102.75 151.75,-84.25 257,-84.25 257,-102.75"/>
<text text-anchor="middle" x="204.38" y="-89.25" font-family="Helvetica,sans-Serif" font-size="10.00">arax_data_ref_offset</text>
</a>
</g>
</g>
<!-- Node17&#45;&gt;Node20 -->
<g id="edge21_Node000017_Node000020" class="edge">
<title>Node17&#45;&gt;Node20</title>
<g id="a_edge21_Node000017_Node000020"><a xlink:title=" ">
<path fill="none" stroke="#63b8ff" d="M485.93,-70.41C480.01,-73.11 474.1,-76.16 468.75,-79.5 450.6,-90.85 452.76,-103.89 432.75,-111.5 364.83,-137.32 277.46,-116.88 233.41,-103.23"/>
<polygon fill="#63b8ff" stroke="#63b8ff" points="486.98,-73.35 494.8,-66.2 484.23,-66.91 486.98,-73.35"/>
</a>
</g>
</g>
<!-- Node19&#45;&gt;Node20 -->
<g id="edge20_Node000019_Node000020" class="edge">
<title>Node19&#45;&gt;Node20</title>
<g id="a_edge20_Node000019_Node000020"><a xlink:title=" ">
<path fill="none" stroke="#63b8ff" d="M320.62,-67.38C297.65,-72.59 270.38,-78.77 248.13,-83.81"/>
<polygon fill="#63b8ff" stroke="#63b8ff" points="321.19,-70.61 330.17,-64.99 319.65,-63.79 321.19,-70.61"/>
</a>
</g>
</g>
<!-- Node21&#45;&gt;Node11 -->
<g id="edge24_Node000021_Node000011" class="edge">
<title>Node21&#45;&gt;Node11</title>
<g id="a_edge24_Node000021_Node000011"><a xlink:title=" ">
<path fill="none" stroke="#63b8ff" d="M1063.82,-101.35C1002.84,-98.09 901.13,-93.5 813.5,-93.5 813.5,-93.5 813.5,-93.5 669.5,-93.5 559.8,-93.5 436.14,-148.21 389.65,-170.86"/>
<polygon fill="#63b8ff" stroke="#63b8ff" points="1063.55,-104.89 1073.72,-101.93 1063.93,-97.9 1063.55,-104.89"/>
</a>
</g>
</g>
<!-- Node21&#45;&gt;Node12 -->
<g id="edge25_Node000021_Node000012" class="edge">
<title>Node21&#45;&gt;Node12</title>
<g id="a_edge25_Node000021_Node000012"><a xlink:title=" ">
<path fill="none" stroke="#63b8ff" d="M1063.86,-116.01C1044.22,-120.15 1022.5,-124.73 1004.59,-128.51"/>
<polygon fill="#63b8ff" stroke="#63b8ff" points="1064.46,-119.25 1073.52,-113.76 1063.01,-112.4 1064.46,-119.25"/>
</a>
</g>
</g>
<!-- Node23 -->
<g id="Node000023" class="node">
<title>Node23</title>
<g id="a_Node000023"><a xlink:href="a02352.html#a1bfeaeb9b81855e640d7a67cc9d92b17" target="_top" xlink:title=" ">
<polygon fill="white" stroke="#666666" points="1173.5,-284.75 1065.25,-284.75 1065.25,-266.25 1173.5,-266.25 1173.5,-284.75"/>
<text text-anchor="middle" x="1119.38" y="-271.25" font-family="Helvetica,sans-Serif" font-size="10.00">async_condition_wait</text>
</a>
</g>
</g>
<!-- Node22&#45;&gt;Node23 -->
<g id="edge27_Node000022_Node000023" class="edge">
<title>Node22&#45;&gt;Node23</title>
<g id="a_edge27_Node000022_Node000023"><a xlink:title=" ">
<path fill="none" stroke="#63b8ff" d="M1198.31,-275.5C1190.04,-275.5 1181.69,-275.5 1173.68,-275.5"/>
<polygon fill="#63b8ff" stroke="#63b8ff" points="1198.09,-279 1208.09,-275.5 1198.09,-272 1198.09,-279"/>
</a>
</g>
</g>
<!-- Node23&#45;&gt;Node13 -->
<g id="edge28_Node000023_Node000013" class="edge">
<title>Node23&#45;&gt;Node13</title>
<g id="a_edge28_Node000023_Node000013"><a xlink:title=" ">
<path fill="none" stroke="#63b8ff" d="M1087.46,-261.4C1025.47,-233.14 887.41,-170.2 834.6,-146.12"/>
<polygon fill="#63b8ff" stroke="#63b8ff" points="1085.87,-264.98 1096.42,-265.95 1088.77,-258.61 1085.87,-264.98"/>
</a>
</g>
</g>
<!-- Node24 -->
<g id="Node000024" class="node">
<title>Node24</title>
<g id="a_Node000024"><a xlink:href="a01904.html#a415e79d6e82e45f24bcd1742c146a0da" target="_top" xlink:title=" ">
<polygon fill="white" stroke="#666666" points="1029.25,-263.75 902.25,-263.75 902.25,-245.25 1029.25,-245.25 1029.25,-263.75"/>
<text text-anchor="middle" x="965.75" y="-250.25" font-family="Helvetica,sans-Serif" font-size="10.00">arax_accel_wait_for_task</text>
</a>
</g>
</g>
<!-- Node23&#45;&gt;Node24 -->
<g id="edge29_Node000023_Node000024" class="edge">
<title>Node23&#45;&gt;Node24</title>
<g id="a_edge29_Node000023_Node000024"><a xlink:title=" ">
<path fill="none" stroke="#63b8ff" d="M1054.02,-266.59C1045.93,-265.47 1037.65,-264.32 1029.58,-263.2"/>
<polygon fill="#63b8ff" stroke="#63b8ff" points="1053.53,-270.19 1063.92,-268.1 1054.49,-263.26 1053.53,-270.19"/>
</a>
</g>
</g>
<!-- Node25 -->
<g id="Node000025" class="node">
<title>Node25</title>
<g id="a_Node000025"><a xlink:href="a01913.html#a8ff14a859f9b7a34676c2fcdb762386b" target="_top" xlink:title=" ">
<polygon fill="white" stroke="#666666" points="1022.12,-311 909.38,-311 909.38,-282 1022.12,-282 1022.12,-311"/>
<text text-anchor="start" x="917.38" y="-297.5" font-family="Helvetica,sans-Serif" font-size="10.00">arax_pipe_get_orphan</text>
<text text-anchor="middle" x="965.75" y="-287" font-family="Helvetica,sans-Serif" font-size="10.00">_vaccel</text>
</a>
</g>
</g>
<!-- Node23&#45;&gt;Node25 -->
<g id="edge30_Node000023_Node000025" class="edge">
<title>Node23&#45;&gt;Node25</title>
<g id="a_edge30_Node000023_Node000025"><a xlink:title=" ">
<path fill="none" stroke="#63b8ff" d="M1054.12,-284.4C1043.62,-285.85 1032.82,-287.35 1022.55,-288.77"/>
<polygon fill="#63b8ff" stroke="#63b8ff" points="1054.49,-287.74 1063.92,-282.9 1053.53,-280.81 1054.49,-287.74"/>
</a>
</g>
</g>
<!-- Node26 -->
<g id="Node000026" class="node">
<title>Node26</title>
<g id="a_Node000026"><a xlink:href="a01925.html#a8413a3584787f9b629e54b2ef9439f06" target="_top" xlink:title=" ">
<polygon fill="white" stroke="#666666" points="1022.88,-347.75 908.62,-347.75 908.62,-329.25 1022.88,-329.25 1022.88,-347.75"/>
<text text-anchor="middle" x="965.75" y="-334.25" font-family="Helvetica,sans-Serif" font-size="10.00">arax_throttle_size_dec</text>
</a>
</g>
</g>
<!-- Node23&#45;&gt;Node26 -->
<g id="edge31_Node000023_Node000026" class="edge">
<title>Node23&#45;&gt;Node26</title>
<g id="a_edge31_Node000023_Node000026"><a xlink:title=" ">
<path fill="none" stroke="#63b8ff" d="M1091.49,-290.21C1074.07,-299.38 1050.71,-311.01 1029.25,-319.5 1020.6,-322.92 1011.08,-326.1 1002.14,-328.84"/>
<polygon fill="#63b8ff" stroke="#63b8ff" points="1092.83,-292.93 1100.01,-285.14 1089.54,-286.75 1092.83,-292.93"/>
</a>
</g>
</g>
<!-- Node27 -->
<g id="Node000027" class="node">
<title>Node27</title>
<g id="a_Node000027"><a xlink:href="a01904.html#a503b6bc6d5be49fd8715f62c7174c28e" target="_top" xlink:title=" ">
<polygon fill="white" stroke="#666666" points="866.25,-360.75 758.75,-360.75 758.75,-342.25 866.25,-342.25 866.25,-360.75"/>
<text text-anchor="middle" x="812.5" y="-347.25" font-family="Helvetica,sans-Serif" font-size="10.00">arax_accel_size_dec</text>
</a>
</g>
</g>
<!-- Node26&#45;&gt;Node27 -->
<g id="edge32_Node000026_Node000027" class="edge">
<title>Node26&#45;&gt;Node27</title>
<g id="a_edge32_Node000026_Node000027"><a xlink:title=" ">
<path fill="none" stroke="#63b8ff" d="M897.63,-344.27C887.15,-345.17 876.46,-346.09 866.36,-346.96"/>
<polygon fill="#63b8ff" stroke="#63b8ff" points="897.77,-347.68 907.43,-343.34 897.17,-340.71 897.77,-347.68"/>
</a>
</g>
</g>
<!-- Node28 -->
<g id="Node000028" class="node">
<title>Node28</title>
<g id="a_Node000028"><a xlink:href="a01913.html#a1cfa2c90268c6e53ce376beb7cce153c" target="_top" xlink:title=" ">
<polygon fill="white" stroke="#666666" points="863.62,-317.75 761.38,-317.75 761.38,-299.25 863.62,-299.25 863.62,-317.75"/>
<text text-anchor="middle" x="812.5" y="-304.25" font-family="Helvetica,sans-Serif" font-size="10.00">arax_pipe_size_dec</text>
</a>
</g>
</g>
<!-- Node26&#45;&gt;Node28 -->
<g id="edge34_Node000026_Node000028" class="edge">
<title>Node26&#45;&gt;Node28</title>
<g id="a_edge34_Node000026_Node000028"><a xlink:title=" ">
<path fill="none" stroke="#63b8ff" d="M905.07,-326.66C891,-323.87 876.16,-320.93 862.62,-318.24"/>
<polygon fill="#63b8ff" stroke="#63b8ff" points="904.15,-330.25 914.64,-328.76 905.52,-323.38 904.15,-330.25"/>
</a>
</g>
</g>
<!-- Node27&#45;&gt;Node4 -->
<g id="edge33_Node000027_Node000004" class="edge">
<title>Node27&#45;&gt;Node4</title>
<g id="a_edge33_Node000027_Node000004"><a xlink:title=" ">
<path fill="none" stroke="#63b8ff" d="M747.52,-352.98C625.7,-355.79 362.93,-361.86 254.1,-364.37"/>
<polygon fill="#63b8ff" stroke="#63b8ff" points="747.59,-356.45 757.51,-352.72 747.43,-349.46 747.59,-356.45"/>
</a>
</g>
</g>
<!-- Node29 -->
<g id="Node000029" class="node">
<title>Node29</title>
<g id="a_Node000029"><a xlink:href="a01910.html#a402bbd6fa197c2c48d527325e5e2cf5b" target="_top" xlink:title=" ">
<polygon fill="white" stroke="#666666" points="722.75,-306.75 618.25,-306.75 618.25,-288.25 722.75,-288.25 722.75,-306.75"/>
<text text-anchor="middle" x="670.5" y="-293.25" font-family="Helvetica,sans-Serif" font-size="10.00">arax_object_register</text>
</a>
</g>
</g>
<!-- Node28&#45;&gt;Node29 -->
<g id="edge35_Node000028_Node000029" class="edge">
<title>Node28&#45;&gt;Node29</title>
<g id="a_edge35_Node000028_Node000029"><a xlink:title=" ">
<path fill="none" stroke="#63b8ff" d="M750.05,-303.67C740.99,-302.96 731.74,-302.23 722.91,-301.54"/>
<polygon fill="#63b8ff" stroke="#63b8ff" points="749.71,-307.23 759.96,-304.53 750.26,-300.26 749.71,-307.23"/>
</a>
</g>
</g>
<!-- Node29&#45;&gt;Node2 -->
<g id="edge42_Node000029_Node000002" class="edge">
<title>Node29&#45;&gt;Node2</title>
<g id="a_edge42_Node000029_Node000002"><a xlink:title=" ">
<path fill="none" stroke="#63b8ff" d="M648.3,-313.21C618.22,-335.51 564.04,-375.67 539.37,-393.96"/>
<polygon fill="#63b8ff" stroke="#63b8ff" points="649.86,-315.67 655.81,-306.91 645.69,-310.05 649.86,-315.67"/>
</a>
</g>
</g>
<!-- Node29&#45;&gt;Node11 -->
<g id="edge36_Node000029_Node000011" class="edge">
<title>Node29&#45;&gt;Node11</title>
<g id="a_edge36_Node000029_Node000011"><a xlink:title=" ">
<path fill="none" stroke="#63b8ff" d="M650.01,-280.84C633.1,-267.15 607.43,-248.18 582.25,-236.5 525.71,-210.27 454.76,-194.66 411.07,-186.83"/>
<polygon fill="#63b8ff" stroke="#63b8ff" points="647.51,-284.14 657.45,-287.82 651.97,-278.75 647.51,-284.14"/>
</a>
</g>
</g>
<!-- Node30 -->
<g id="Node000030" class="node">
<title>Node30</title>
<g id="a_Node000030"><a xlink:href="a01931.html#a526989df37e605824d846b7ba54b43ea" target="_top" xlink:title=" ">
<polygon fill="white" stroke="#666666" points="582.25,-337.75 468.75,-337.75 468.75,-319.25 582.25,-319.25 582.25,-337.75"/>
<text text-anchor="middle" x="525.5" y="-324.25" font-family="Helvetica,sans-Serif" font-size="10.00">arax_data_init_aligned</text>
</a>
</g>
</g>
<!-- Node29&#45;&gt;Node30 -->
<g id="edge37_Node000029_Node000030" class="edge">
<title>Node29&#45;&gt;Node30</title>
<g id="a_edge37_Node000029_Node000030"><a xlink:title=" ">
<path fill="none" stroke="#63b8ff" d="M614.01,-309.53C599.83,-312.6 584.76,-315.87 571.19,-318.81"/>
<polygon fill="#63b8ff" stroke="#63b8ff" points="614.61,-312.76 623.65,-307.22 613.13,-305.92 614.61,-312.76"/>
</a>
</g>
</g>
<!-- Node33 -->
<g id="Node000033" class="node">
<title>Node33</title>
<g id="a_Node000033"><a xlink:href="a01916.html#a86ac572ea8f5f613129192c47d598818" target="_top" xlink:title=" ">
<polygon fill="white" stroke="#666666" points="564.25,-300.75 486.75,-300.75 486.75,-282.25 564.25,-282.25 564.25,-300.75"/>
<text text-anchor="middle" x="525.5" y="-287.25" font-family="Helvetica,sans-Serif" font-size="10.00">arax_proc_init</text>
</a>
</g>
</g>
<!-- Node29&#45;&gt;Node33 -->
<g id="edge40_Node000029_Node000033" class="edge">
<title>Node29&#45;&gt;Node33</title>
<g id="a_edge40_Node000029_Node000033"><a xlink:title=" ">
<path fill="none" stroke="#63b8ff" d="M606.97,-294.88C592.54,-294.27 577.61,-293.64 564.59,-293.1"/>
<polygon fill="#63b8ff" stroke="#63b8ff" points="606.74,-298.41 616.87,-295.33 607.03,-291.42 606.74,-298.41"/>
</a>
</g>
</g>
<!-- Node35 -->
<g id="Node000035" class="node">
<title>Node35</title>
<g id="a_Node000035"><a xlink:href="a01928.html#a83ddb422946cf774c687c1ab63dcda15" target="_top" xlink:title=" ">
<polygon fill="white" stroke="#666666" points="568.75,-263.75 482.25,-263.75 482.25,-245.25 568.75,-245.25 568.75,-263.75"/>
<text text-anchor="middle" x="525.5" y="-250.25" font-family="Helvetica,sans-Serif" font-size="10.00">arax_vaccel_init</text>
</a>
</g>
</g>
<!-- Node29&#45;&gt;Node35 -->
<g id="edge43_Node000029_Node000035" class="edge">
<title>Node29&#45;&gt;Node35</title>
<g id="a_edge43_Node000029_Node000035"><a xlink:title=" ">
<path fill="none" stroke="#63b8ff" d="M627.03,-284.73C605.06,-278.12 578.7,-270.2 558.48,-264.12"/>
<polygon fill="#63b8ff" stroke="#63b8ff" points="625.82,-288.32 636.41,-287.85 627.84,-281.62 625.82,-288.32"/>
</a>
</g>
</g>
<!-- Node31 -->
<g id="Node000031" class="node">
<title>Node31</title>
<g id="a_Node000031"><a xlink:href="a01931.html#aeefe449d4a278e9fc4b9c5f7e31000a1" target="_top" xlink:title=" ">
<polygon fill="white" stroke="#666666" points="408.38,-337.75 330.88,-337.75 330.88,-319.25 408.38,-319.25 408.38,-337.75"/>
<text text-anchor="middle" x="369.62" y="-324.25" font-family="Helvetica,sans-Serif" font-size="10.00">arax_data_init</text>
</a>
</g>
</g>
<!-- Node30&#45;&gt;Node31 -->
<g id="edge38_Node000030_Node000031" class="edge">
<title>Node30&#45;&gt;Node31</title>
<g id="a_edge38_Node000030_Node000031"><a xlink:title=" ">
<path fill="none" stroke="#63b8ff" d="M457.6,-328.5C440.81,-328.5 423.36,-328.5 408.54,-328.5"/>
<polygon fill="#63b8ff" stroke="#63b8ff" points="457.51,-332 467.51,-328.5 457.51,-325 457.51,-332"/>
</a>
</g>
</g>
<!-- Node32 -->
<g id="Node000032" class="node">
<title>Node32</title>
<g id="a_Node000032"><a xlink:href="a02178.html#ga9260ad2dd766aec3274c518e2e312b1f" target="_top" xlink:title=" ">
<polygon fill="white" stroke="#666666" points="249.12,-332.75 159.62,-332.75 159.62,-314.25 249.12,-314.25 249.12,-332.75"/>
<text text-anchor="middle" x="204.38" y="-319.25" font-family="Helvetica,sans-Serif" font-size="10.00">ARAX_BUFFER</text>
</a>
</g>
</g>
<!-- Node31&#45;&gt;Node32 -->
<g id="edge39_Node000031_Node000032" class="edge">
<title>Node31&#45;&gt;Node32</title>
<g id="a_edge39_Node000031_Node000032"><a xlink:title=" ">
<path fill="none" stroke="#63b8ff" d="M319.81,-327C297.44,-326.32 271.14,-325.51 249.39,-324.85"/>
<polygon fill="#63b8ff" stroke="#63b8ff" points="319.66,-330.53 329.76,-327.34 319.87,-323.54 319.66,-330.53"/>
</a>
</g>
</g>
<!-- Node34 -->
<g id="Node000034" class="node">
<title>Node34</title>
<g id="a_Node000034"><a xlink:href="a02176.html#gafad2dafb4a231390f02b7c866295b7d9" target="_top" xlink:title=" ">
<polygon fill="white" stroke="#666666" points="418.12,-300.75 321.12,-300.75 321.12,-282.25 418.12,-282.25 418.12,-300.75"/>
<text text-anchor="middle" x="369.62" y="-287.25" font-family="Helvetica,sans-Serif" font-size="10.00">arax_proc_register</text>
</a>
</g>
</g>
<!-- Node33&#45;&gt;Node34 -->
<g id="edge41_Node000033_Node000034" class="edge">
<title>Node33&#45;&gt;Node34</title>
<g id="a_edge41_Node000033_Node000034"><a xlink:title=" ">
<path fill="none" stroke="#63b8ff" d="M475.72,-291.5C457.41,-291.5 436.64,-291.5 418.42,-291.5"/>
<polygon fill="#63b8ff" stroke="#63b8ff" points="475.46,-295 485.46,-291.5 475.46,-288 475.46,-295"/>
</a>
</g>
</g>
<!-- Node35&#45;&gt;Node11 -->
<g id="edge46_Node000035_Node000011" class="edge">
<title>Node35&#45;&gt;Node11</title>
<g id="a_edge46_Node000035_Node000011"><a xlink:title=" ">
<path fill="none" stroke="#63b8ff" d="M485.93,-240.59C480.01,-237.89 474.1,-234.84 468.75,-231.5 450.6,-220.15 451.42,-209.98 432.75,-199.5 426.06,-195.74 418.55,-192.64 411.11,-190.11"/>
<polygon fill="#63b8ff" stroke="#63b8ff" points="484.23,-244.09 494.8,-244.8 486.98,-237.65 484.23,-244.09"/>
</a>
</g>
</g>
<!-- Node36 -->
<g id="Node000036" class="node">
<title>Node36</title>
<g id="a_Node000036"><a xlink:href="a02175.html#gaf8a10ab4e51e59c464ab3ab473e4a0f7" target="_top" xlink:title=" ">
<polygon fill="white" stroke="#666666" points="432.75,-226.75 306.5,-226.75 306.5,-208.25 432.75,-208.25 432.75,-226.75"/>
<text text-anchor="middle" x="369.62" y="-213.25" font-family="Helvetica,sans-Serif" font-size="10.00">arax_accel_acquire_phys</text>
</a>
</g>
</g>
<!-- Node35&#45;&gt;Node36 -->
<g id="edge44_Node000035_Node000036" class="edge">
<title>Node35&#45;&gt;Node36</title>
<g id="a_edge44_Node000035_Node000036"><a xlink:title=" ">
<path fill="none" stroke="#63b8ff" d="M473.44,-242.22C453.15,-237.34 430.15,-231.81 411.05,-227.22"/>
<polygon fill="#63b8ff" stroke="#63b8ff" points="472.53,-245.84 483.07,-244.78 474.17,-239.04 472.53,-245.84"/>
</a>
</g>
</g>
<!-- Node37 -->
<g id="Node000037" class="node">
<title>Node37</title>
<g id="a_Node000037"><a xlink:href="a02175.html#ga008252bb9afc2990fa2c5f4b980c9f27" target="_top" xlink:title=" ">
<polygon fill="white" stroke="#666666" points="432,-263.75 307.25,-263.75 307.25,-245.25 432,-245.25 432,-263.75"/>
<text text-anchor="middle" x="369.62" y="-250.25" font-family="Helvetica,sans-Serif" font-size="10.00">arax_accel_acquire_type</text>
</a>
</g>
</g>
<!-- Node35&#45;&gt;Node37 -->
<g id="edge45_Node000035_Node000037" class="edge">
<title>Node35&#45;&gt;Node37</title>
<g id="a_edge45_Node000035_Node000037"><a xlink:title=" ">
<path fill="none" stroke="#63b8ff" d="M471.27,-254.5C458.68,-254.5 445.16,-254.5 432.24,-254.5"/>
<polygon fill="#63b8ff" stroke="#63b8ff" points="471.05,-258 481.05,-254.5 471.05,-251 471.05,-258"/>
</a>
</g>
</g>
</g>
</svg>
