<?xml version="1.0" encoding="UTF-8" standalone="no"?>
<!DOCTYPE svg PUBLIC "-//W3C//DTD SVG 1.1//EN"
 "http://www.w3.org/Graphics/SVG/1.1/DTD/svg11.dtd">
<!-- Generated by graphviz version 8.0.5 (0)
 -->
<!-- Title: arax_throttle_get_total_size Pages: 1 -->
<svg width="309pt" height="64pt"
 viewBox="0.00 0.00 309.25 63.50" xmlns="http://www.w3.org/2000/svg" xmlns:xlink="http://www.w3.org/1999/xlink">
<g id="graph0" class="graph" transform="scale(1 1) rotate(0) translate(4 59.5)">
<title>arax_throttle_get_total_size</title>
<!-- Node1 -->
<g id="Node000001" class="node">
<title>Node1</title>
<g id="a_Node000001"><a xlink:title=" ">
<polygon fill="#999999" stroke="#666666" points="301.25,-36.5 165.25,-36.5 165.25,-18 301.25,-18 301.25,-36.5"/>
<text text-anchor="middle" x="233.25" y="-23" font-family="Helvetica,sans-Serif" font-size="10.00">arax_throttle_get_total_size</text>
</a>
</g>
</g>
<!-- Node2 -->
<g id="Node000002" class="node">
<title>Node2</title>
<g id="a_Node000002"><a xlink:href="a01904.html#a1c89dce1734d8093f7a443d71a5ebb94" target="_top" xlink:title=" ">
<polygon fill="white" stroke="#666666" points="129.25,-55.5 0,-55.5 0,-37 129.25,-37 129.25,-55.5"/>
<text text-anchor="middle" x="64.62" y="-42" font-family="Helvetica,sans-Serif" font-size="10.00">arax_accel_get_total_size</text>
</a>
</g>
</g>
<!-- Node1&#45;&gt;Node2 -->
<g id="edge1_Node000001_Node000002" class="edge">
<title>Node1&#45;&gt;Node2</title>
<g id="a_edge1_Node000001_Node000002"><a xlink:title=" ">
<path fill="none" stroke="#63b8ff" d="M154.21,-36.15C145.99,-37.09 137.7,-38.03 129.66,-38.95"/>
<polygon fill="#63b8ff" stroke="#63b8ff" points="154.42,-39.53 163.96,-34.92 153.63,-32.58 154.42,-39.53"/>
</a>
</g>
</g>
<!-- Node3 -->
<g id="Node000003" class="node">
<title>Node3</title>
<g id="a_Node000003"><a xlink:href="a01913.html#a59aa16caa6dfcec85af956b42b33a0fa" target="_top" xlink:title=" ">
<polygon fill="white" stroke="#666666" points="126.62,-18.5 2.62,-18.5 2.62,0 126.62,0 126.62,-18.5"/>
<text text-anchor="middle" x="64.62" y="-5" font-family="Helvetica,sans-Serif" font-size="10.00">arax_pipe_get_total_size</text>
</a>
</g>
</g>
<!-- Node1&#45;&gt;Node3 -->
<g id="edge2_Node000001_Node000003" class="edge">
<title>Node1&#45;&gt;Node3</title>
<g id="a_edge2_Node000001_Node000003"><a xlink:title=" ">
<path fill="none" stroke="#63b8ff" d="M154.27,-18.83C145.11,-17.84 135.87,-16.84 126.98,-15.88"/>
<polygon fill="#63b8ff" stroke="#63b8ff" points="153.64,-22.39 163.96,-19.98 154.39,-15.43 153.64,-22.39"/>
</a>
</g>
</g>
</g>
</svg>
