<?xml version="1.0" encoding="UTF-8" standalone="no"?>
<!DOCTYPE svg PUBLIC "-//W3C//DTD SVG 1.1//EN"
 "http://www.w3.org/Graphics/SVG/1.1/DTD/svg11.dtd">
<!-- Generated by graphviz version 8.0.5 (0)
 -->
<!-- Title: arax_vaccel.h Pages: 1 -->
<svg width="721pt" height="299pt"
 viewBox="0.00 0.00 720.62 299.00" xmlns="http://www.w3.org/2000/svg" xmlns:xlink="http://www.w3.org/1999/xlink">
<g id="graph0" class="graph" transform="scale(1 1) rotate(0) translate(4 295)">
<title>arax_vaccel.h</title>
<!-- Node1 -->
<g id="Node000001" class="node">
<title>Node1</title>
<g id="a_Node000001"><a xlink:title=" ">
<polygon fill="#999999" stroke="#666666" points="443.5,-291 366.75,-291 366.75,-272.5 443.5,-272.5 443.5,-291"/>
<text text-anchor="middle" x="405.12" y="-277.5" font-family="Helvetica,sans-Serif" font-size="10.00">arax_vaccel.h</text>
</a>
</g>
</g>
<!-- Node2 -->
<g id="Node000002" class="node">
<title>Node2</title>
<g id="a_Node000002"><a xlink:href="a01403.html" target="_top" xlink:title=" ">
<polygon fill="white" stroke="#666666" points="217.25,-236.5 121,-236.5 121,-218 217.25,-218 217.25,-236.5"/>
<text text-anchor="middle" x="169.12" y="-223" font-family="Helvetica,sans-Serif" font-size="10.00">core/arax_object.h</text>
</a>
</g>
</g>
<!-- Node1&#45;&gt;Node2 -->
<g id="edge1_Node000001_Node000002" class="edge">
<title>Node1&#45;&gt;Node2</title>
<g id="a_edge1_Node000001_Node000002"><a xlink:title=" ">
<path fill="none" stroke="#63b8ff" d="M366.42,-272.14C326.07,-263.16 262.7,-249.07 218.71,-239.28"/>
<polygon fill="#63b8ff" stroke="#63b8ff" points="219.77,-235.71 209.25,-236.95 218.25,-242.54 219.77,-235.71"/>
</a>
</g>
</g>
<!-- Node10 -->
<g id="Node000010" class="node">
<title>Node10</title>
<g id="a_Node000010"><a xlink:href="a01379.html" target="_top" xlink:title=" ">
<polygon fill="white" stroke="#666666" points="353.88,-236.5 282.38,-236.5 282.38,-218 353.88,-218 353.88,-236.5"/>
<text text-anchor="middle" x="318.12" y="-223" font-family="Helvetica,sans-Serif" font-size="10.00">utils/queue.h</text>
</a>
</g>
</g>
<!-- Node1&#45;&gt;Node10 -->
<g id="edge10_Node000001_Node000010" class="edge">
<title>Node1&#45;&gt;Node10</title>
<g id="a_edge10_Node000001_Node000010"><a xlink:title=" ">
<path fill="none" stroke="#63b8ff" d="M390.76,-272.08C377.41,-264.03 357.29,-251.88 341.6,-242.42"/>
<polygon fill="#63b8ff" stroke="#63b8ff" points="343.88,-239.1 333.51,-236.93 340.27,-245.1 343.88,-239.1"/>
</a>
</g>
</g>
<!-- Node12 -->
<g id="Node000012" class="node">
<title>Node12</title>
<g id="a_Node000012"><a xlink:href="a01391.html" target="_top" xlink:title=" ">
<polygon fill="white" stroke="#666666" points="527.12,-236.5 433.12,-236.5 433.12,-218 527.12,-218 527.12,-236.5"/>
<text text-anchor="middle" x="480.12" y="-223" font-family="Helvetica,sans-Serif" font-size="10.00">core/arax_accel.h</text>
</a>
</g>
</g>
<!-- Node1&#45;&gt;Node12 -->
<g id="edge15_Node000001_Node000012" class="edge">
<title>Node1&#45;&gt;Node12</title>
<g id="a_edge15_Node000001_Node000012"><a xlink:title=" ">
<path fill="none" stroke="#63b8ff" d="M412.34,-272.08C422.01,-264.1 438.83,-252.11 453.4,-242.69"/>
<polygon fill="#63b8ff" stroke="#63b8ff" points="454.95,-245.22 461.55,-236.93 451.22,-239.29 454.95,-245.22"/>
</a>
</g>
</g>
<!-- Node19 -->
<g id="Node000019" class="node">
<title>Node19</title>
<g id="a_Node000019"><a xlink:title=" ">
<polygon fill="#e0e0e0" stroke="#999999" points="468,-127.5 418.25,-127.5 418.25,-109 468,-109 468,-127.5"/>
<text text-anchor="middle" x="443.12" y="-114" font-family="Helvetica,sans-Serif" font-size="10.00">async.h</text>
</a>
</g>
</g>
<!-- Node1&#45;&gt;Node19 -->
<g id="edge28_Node000001_Node000019" class="edge">
<title>Node1&#45;&gt;Node19</title>
<g id="a_edge28_Node000001_Node000019"><a xlink:title=" ">
<path fill="none" stroke="#63b8ff" d="M407.17,-272.07C413.1,-246.87 430.4,-173.32 438.65,-138.26"/>
<polygon fill="#63b8ff" stroke="#63b8ff" points="442.19,-139.51 441.07,-128.98 435.37,-137.91 442.19,-139.51"/>
</a>
</g>
</g>
<!-- Node3 -->
<g id="Node000003" class="node">
<title>Node3</title>
<g id="a_Node000003"><a xlink:href="a01376.html" target="_top" xlink:title=" ">
<polygon fill="white" stroke="#666666" points="240.75,-182 183.5,-182 183.5,-163.5 240.75,-163.5 240.75,-182"/>
<text text-anchor="middle" x="212.12" y="-168.5" font-family="Helvetica,sans-Serif" font-size="10.00">utils/list.h</text>
</a>
</g>
</g>
<!-- Node2&#45;&gt;Node3 -->
<g id="edge2_Node000002_Node000003" class="edge">
<title>Node2&#45;&gt;Node3</title>
<g id="a_edge2_Node000002_Node000003"><a xlink:title=" ">
<path fill="none" stroke="#63b8ff" d="M176.23,-217.58C182.24,-210.24 191.03,-199.51 198.41,-190.5"/>
<polygon fill="#63b8ff" stroke="#63b8ff" points="201.53,-193.21 205.16,-183.26 196.11,-188.78 201.53,-193.21"/>
</a>
</g>
</g>
<!-- Node6 -->
<g id="Node000006" class="node">
<title>Node6</title>
<g id="a_Node000006"><a xlink:href="a01382.html" target="_top" xlink:title=" ">
<polygon fill="white" stroke="#666666" points="165.75,-182 84.5,-182 84.5,-163.5 165.75,-163.5 165.75,-182"/>
<text text-anchor="middle" x="125.12" y="-168.5" font-family="Helvetica,sans-Serif" font-size="10.00">utils/spinlock.h</text>
</a>
</g>
</g>
<!-- Node2&#45;&gt;Node6 -->
<g id="edge5_Node000002_Node000006" class="edge">
<title>Node2&#45;&gt;Node6</title>
<g id="a_edge5_Node000002_Node000006"><a xlink:title=" ">
<path fill="none" stroke="#63b8ff" d="M161.86,-217.58C155.71,-210.24 146.71,-199.51 139.16,-190.5"/>
<polygon fill="#63b8ff" stroke="#63b8ff" points="141.36,-188.67 132.26,-183.26 136,-193.17 141.36,-188.67"/>
</a>
</g>
</g>
<!-- Node9 -->
<g id="Node000009" class="node">
<title>Node9</title>
<g id="a_Node000009"><a xlink:title=" ">
<polygon fill="#e0e0e0" stroke="#999999" points="66.25,-182 0,-182 0,-163.5 66.25,-163.5 66.25,-182"/>
<text text-anchor="middle" x="33.12" y="-168.5" font-family="Helvetica,sans-Serif" font-size="10.00">arch/alloc.h</text>
</a>
</g>
</g>
<!-- Node2&#45;&gt;Node9 -->
<g id="edge9_Node000002_Node000009" class="edge">
<title>Node2&#45;&gt;Node9</title>
<g id="a_edge9_Node000002_Node000009"><a xlink:title=" ">
<path fill="none" stroke="#63b8ff" d="M146.67,-217.58C124.62,-209.07 90.75,-195.99 65.73,-186.34"/>
<polygon fill="#63b8ff" stroke="#63b8ff" points="67.21,-182.77 56.62,-182.43 64.68,-189.3 67.21,-182.77"/>
</a>
</g>
</g>
<!-- Node4 -->
<g id="Node000004" class="node">
<title>Node4</title>
<g id="a_Node000004"><a xlink:title=" ">
<polygon fill="#e0e0e0" stroke="#999999" points="392.38,-127.5 341.88,-127.5 341.88,-109 392.38,-109 392.38,-127.5"/>
<text text-anchor="middle" x="367.12" y="-114" font-family="Helvetica,sans-Serif" font-size="10.00">stddef.h</text>
</a>
</g>
</g>
<!-- Node3&#45;&gt;Node4 -->
<g id="edge3_Node000003_Node000004" class="edge">
<title>Node3&#45;&gt;Node4</title>
<g id="a_edge3_Node000003_Node000004"><a xlink:title=" ">
<path fill="none" stroke="#63b8ff" d="M237.72,-163.08C263.19,-154.46 302.49,-141.14 331.1,-131.45"/>
<polygon fill="#63b8ff" stroke="#63b8ff" points="332.14,-134.46 340.49,-127.93 329.9,-127.83 332.14,-134.46"/>
</a>
</g>
</g>
<!-- Node5 -->
<g id="Node000005" class="node">
<title>Node5</title>
<g id="a_Node000005"><a xlink:title=" ">
<polygon fill="#e0e0e0" stroke="#999999" points="237.88,-127.5 190.38,-127.5 190.38,-109 237.88,-109 237.88,-127.5"/>
<text text-anchor="middle" x="214.12" y="-114" font-family="Helvetica,sans-Serif" font-size="10.00">stdint.h</text>
</a>
</g>
</g>
<!-- Node3&#45;&gt;Node5 -->
<g id="edge4_Node000003_Node000005" class="edge">
<title>Node3&#45;&gt;Node5</title>
<g id="a_edge4_Node000003_Node000005"><a xlink:title=" ">
<path fill="none" stroke="#63b8ff" d="M212.46,-163.08C212.71,-156.43 213.07,-146.99 213.39,-138.58"/>
<polygon fill="#63b8ff" stroke="#63b8ff" points="216.92,-138.88 213.8,-128.76 209.92,-138.62 216.92,-138.88"/>
</a>
</g>
</g>
<!-- Node6&#45;&gt;Node5 -->
<g id="edge6_Node000006_Node000005" class="edge">
<title>Node6&#45;&gt;Node5</title>
<g id="a_edge6_Node000006_Node000005"><a xlink:title=" ">
<path fill="none" stroke="#63b8ff" d="M139.82,-163.08C153.48,-155.03 174.06,-142.88 190.11,-133.42"/>
<polygon fill="#63b8ff" stroke="#63b8ff" points="191.57,-136.03 198.41,-127.93 188.02,-130 191.57,-136.03"/>
</a>
</g>
</g>
<!-- Node7 -->
<g id="Node000007" class="node">
<title>Node7</title>
<g id="a_Node000007"><a xlink:href="a01361.html" target="_top" xlink:title=" ">
<polygon fill="white" stroke="#666666" points="172.62,-127.5 75.62,-127.5 75.62,-109 172.62,-109 172.62,-127.5"/>
<text text-anchor="middle" x="124.12" y="-114" font-family="Helvetica,sans-Serif" font-size="10.00">utils/arax_assert.h</text>
</a>
</g>
</g>
<!-- Node6&#45;&gt;Node7 -->
<g id="edge7_Node000006_Node000007" class="edge">
<title>Node6&#45;&gt;Node7</title>
<g id="a_edge7_Node000006_Node000007"><a xlink:title=" ">
<path fill="none" stroke="#63b8ff" d="M124.96,-163.08C124.83,-156.43 124.65,-146.99 124.49,-138.58"/>
<polygon fill="#63b8ff" stroke="#63b8ff" points="127.98,-138.69 124.29,-128.76 120.98,-138.82 127.98,-138.69"/>
</a>
</g>
</g>
<!-- Node8 -->
<g id="Node000008" class="node">
<title>Node8</title>
<g id="a_Node000008"><a xlink:href="a01370.html" target="_top" xlink:title=" ">
<polygon fill="white" stroke="#666666" points="152,-73 96.25,-73 96.25,-54.5 152,-54.5 152,-73"/>
<text text-anchor="middle" x="124.12" y="-59.5" font-family="Helvetica,sans-Serif" font-size="10.00">compat.h</text>
</a>
</g>
</g>
<!-- Node7&#45;&gt;Node8 -->
<g id="edge8_Node000007_Node000008" class="edge">
<title>Node7&#45;&gt;Node8</title>
<g id="a_edge8_Node000007_Node000008"><a xlink:title=" ">
<path fill="none" stroke="#63b8ff" d="M124.12,-108.58C124.12,-101.93 124.12,-92.49 124.12,-84.08"/>
<polygon fill="#63b8ff" stroke="#63b8ff" points="127.63,-84.26 124.12,-74.26 120.63,-84.26 127.63,-84.26"/>
</a>
</g>
</g>
<!-- Node10&#45;&gt;Node4 -->
<g id="edge11_Node000010_Node000004" class="edge">
<title>Node10&#45;&gt;Node4</title>
<g id="a_edge11_Node000010_Node000004"><a xlink:title=" ">
<path fill="none" stroke="#63b8ff" d="M325.17,-217.58C331.87,-208.99 341.81,-195.24 348.12,-182 354.81,-167.98 359.76,-151.09 362.93,-138.36"/>
<polygon fill="#63b8ff" stroke="#63b8ff" points="366.57,-139.2 365.43,-128.67 359.75,-137.61 366.57,-139.2"/>
</a>
</g>
</g>
<!-- Node10&#45;&gt;Node5 -->
<g id="edge12_Node000010_Node000005" class="edge">
<title>Node10&#45;&gt;Node5</title>
<g id="a_edge12_Node000010_Node000005"><a xlink:title=" ">
<path fill="none" stroke="#63b8ff" d="M309.96,-217.85C292.73,-200.13 252.39,-158.62 229.93,-135.51"/>
<polygon fill="#63b8ff" stroke="#63b8ff" points="233.02,-133.64 223.54,-128.9 228,-138.51 233.02,-133.64"/>
</a>
</g>
</g>
<!-- Node10&#45;&gt;Node6 -->
<g id="edge14_Node000010_Node000006" class="edge">
<title>Node10&#45;&gt;Node6</title>
<g id="a_edge14_Node000010_Node000006"><a xlink:title=" ">
<path fill="none" stroke="#63b8ff" d="M286.25,-217.58C253.85,-208.77 203.44,-195.05 167.65,-185.32"/>
<polygon fill="#63b8ff" stroke="#63b8ff" points="168.61,-181.68 158.04,-182.43 166.77,-188.43 168.61,-181.68"/>
</a>
</g>
</g>
<!-- Node11 -->
<g id="Node000011" class="node">
<title>Node11</title>
<g id="a_Node000011"><a xlink:href="a01427.html" target="_top" xlink:title=" ">
<polygon fill="white" stroke="#666666" points="339.25,-182 297,-182 297,-163.5 339.25,-163.5 339.25,-182"/>
<text text-anchor="middle" x="318.12" y="-168.5" font-family="Helvetica,sans-Serif" font-size="10.00">conf.h</text>
</a>
</g>
</g>
<!-- Node10&#45;&gt;Node11 -->
<g id="edge13_Node000010_Node000011" class="edge">
<title>Node10&#45;&gt;Node11</title>
<g id="a_edge13_Node000010_Node000011"><a xlink:title=" ">
<path fill="none" stroke="#63b8ff" d="M318.12,-217.58C318.12,-210.93 318.12,-201.49 318.12,-193.08"/>
<polygon fill="#63b8ff" stroke="#63b8ff" points="321.63,-193.26 318.12,-183.26 314.63,-193.26 321.63,-193.26"/>
</a>
</g>
</g>
<!-- Node12&#45;&gt;Node1 -->
<g id="edge25_Node000012_Node000001" class="edge">
<title>Node12&#45;&gt;Node1</title>
<g id="a_edge25_Node000012_Node000001"><a xlink:title=" ">
<path fill="none" stroke="#63b8ff" d="M473.1,-236.76C463.47,-244.73 446.55,-256.81 431.88,-266.29"/>
<polygon fill="#63b8ff" stroke="#63b8ff" points="430.28,-263.8 423.68,-272.08 434,-269.72 430.28,-263.8"/>
</a>
</g>
</g>
<!-- Node13 -->
<g id="Node000013" class="node">
<title>Node13</title>
<g id="a_Node000013"><a xlink:href="a01346.html" target="_top" xlink:title=" ">
<polygon fill="white" stroke="#666666" points="632.62,-182 589.62,-182 589.62,-163.5 632.62,-163.5 632.62,-182"/>
<text text-anchor="middle" x="611.12" y="-168.5" font-family="Helvetica,sans-Serif" font-size="10.00">arax.h</text>
</a>
</g>
</g>
<!-- Node12&#45;&gt;Node13 -->
<g id="edge16_Node000012_Node000013" class="edge">
<title>Node12&#45;&gt;Node13</title>
<g id="a_edge16_Node000012_Node000013"><a xlink:title=" ">
<path fill="none" stroke="#63b8ff" d="M501.76,-217.58C522.9,-209.11 555.33,-196.11 579.39,-186.47"/>
<polygon fill="#63b8ff" stroke="#63b8ff" points="580.48,-189.4 588.46,-182.43 577.88,-182.9 580.48,-189.4"/>
</a>
</g>
</g>
<!-- Node12&#45;&gt;Node19 -->
<g id="edge24_Node000012_Node000019" class="edge">
<title>Node12&#45;&gt;Node19</title>
<g id="a_edge24_Node000012_Node000019"><a xlink:title=" ">
<path fill="none" stroke="#63b8ff" d="M476.3,-217.53C472.48,-208.67 466.55,-194.51 462.12,-182 457,-167.53 452,-150.88 448.42,-138.38"/>
<polygon fill="#63b8ff" stroke="#63b8ff" points="451.54,-137.53 445.46,-128.86 444.8,-139.43 451.54,-137.53"/>
</a>
</g>
</g>
<!-- Node20 -->
<g id="Node000020" class="node">
<title>Node20</title>
<g id="a_Node000020"><a xlink:href="a01415.html" target="_top" xlink:title=" ">
<polygon fill="white" stroke="#666666" points="571.5,-182 470.75,-182 470.75,-163.5 571.5,-163.5 571.5,-182"/>
<text text-anchor="middle" x="521.12" y="-168.5" font-family="Helvetica,sans-Serif" font-size="10.00">core/arax_throttle.h</text>
</a>
</g>
</g>
<!-- Node12&#45;&gt;Node20 -->
<g id="edge26_Node000012_Node000020" class="edge">
<title>Node12&#45;&gt;Node20</title>
<g id="a_edge26_Node000012_Node000020"><a xlink:title=" ">
<path fill="none" stroke="#63b8ff" d="M486.9,-217.58C492.57,-210.32 500.83,-199.73 507.82,-190.78"/>
<polygon fill="#63b8ff" stroke="#63b8ff" points="511.08,-193.29 514.48,-183.26 505.57,-188.99 511.08,-193.29"/>
</a>
</g>
</g>
<!-- Node13&#45;&gt;Node4 -->
<g id="edge18_Node000013_Node000004" class="edge">
<title>Node13&#45;&gt;Node4</title>
<g id="a_edge18_Node000013_Node000004"><a xlink:title=" ">
<path fill="none" stroke="#63b8ff" d="M589.15,-165.74C586.12,-164.96 583.05,-164.19 580.12,-163.5 547,-155.66 454.9,-136.92 403.32,-126.52"/>
<polygon fill="#63b8ff" stroke="#63b8ff" points="404.15,-122.91 393.65,-124.37 402.77,-129.77 404.15,-122.91"/>
</a>
</g>
</g>
<!-- Node14 -->
<g id="Node000014" class="node">
<title>Node14</title>
<g id="a_Node000014"><a xlink:title=" ">
<polygon fill="#e0e0e0" stroke="#999999" points="531.75,-127.5 486.5,-127.5 486.5,-109 531.75,-109 531.75,-127.5"/>
<text text-anchor="middle" x="509.12" y="-114" font-family="Helvetica,sans-Serif" font-size="10.00">stdio.h</text>
</a>
</g>
</g>
<!-- Node13&#45;&gt;Node14 -->
<g id="edge17_Node000013_Node000014" class="edge">
<title>Node13&#45;&gt;Node14</title>
<g id="a_edge17_Node000013_Node000014"><a xlink:title=" ">
<path fill="none" stroke="#63b8ff" d="M594.28,-163.08C578.34,-154.87 554.14,-142.42 535.62,-132.89"/>
<polygon fill="#63b8ff" stroke="#63b8ff" points="537.49,-129.4 526.99,-127.93 534.28,-135.62 537.49,-129.4"/>
</a>
</g>
</g>
<!-- Node15 -->
<g id="Node000015" class="node">
<title>Node15</title>
<g id="a_Node000015"><a xlink:href="a01352.html" target="_top" xlink:title=" ">
<polygon fill="white" stroke="#666666" points="692.62,-73 619.62,-73 619.62,-54.5 692.62,-54.5 692.62,-73"/>
<text text-anchor="middle" x="656.12" y="-59.5" font-family="Helvetica,sans-Serif" font-size="10.00">arax_types.h</text>
</a>
</g>
</g>
<!-- Node13&#45;&gt;Node15 -->
<g id="edge19_Node000013_Node000015" class="edge">
<title>Node13&#45;&gt;Node15</title>
<g id="a_edge19_Node000013_Node000015"><a xlink:title=" ">
<path fill="none" stroke="#63b8ff" d="M632.8,-164.8C649.59,-158.15 671.69,-146.29 682.12,-127.5 690.41,-112.57 681,-94.44 671.26,-81.52"/>
<polygon fill="#63b8ff" stroke="#63b8ff" points="673.42,-79.64 664.36,-74.15 668.02,-84.09 673.42,-79.64"/>
</a>
</g>
</g>
<!-- Node18 -->
<g id="Node000018" class="node">
<title>Node18</title>
<g id="a_Node000018"><a xlink:href="a01394.html" target="_top" xlink:title=" ">
<polygon fill="white" stroke="#666666" points="672.75,-127.5 549.5,-127.5 549.5,-109 672.75,-109 672.75,-127.5"/>
<text text-anchor="middle" x="611.12" y="-114" font-family="Helvetica,sans-Serif" font-size="10.00">core/arax_accel_types.h</text>
</a>
</g>
</g>
<!-- Node13&#45;&gt;Node18 -->
<g id="edge22_Node000013_Node000018" class="edge">
<title>Node13&#45;&gt;Node18</title>
<g id="a_edge22_Node000013_Node000018"><a xlink:title=" ">
<path fill="none" stroke="#63b8ff" d="M611.12,-163.08C611.12,-156.43 611.12,-146.99 611.12,-138.58"/>
<polygon fill="#63b8ff" stroke="#63b8ff" points="614.63,-138.76 611.12,-128.76 607.63,-138.76 614.63,-138.76"/>
</a>
</g>
</g>
<!-- Node16 -->
<g id="Node000016" class="node">
<title>Node16</title>
<g id="a_Node000016"><a xlink:title=" ">
<polygon fill="#e0e0e0" stroke="#999999" points="651.25,-18.5 591,-18.5 591,0 651.25,0 651.25,-18.5"/>
<text text-anchor="middle" x="621.12" y="-5" font-family="Helvetica,sans-Serif" font-size="10.00">sys/time.h</text>
</a>
</g>
</g>
<!-- Node15&#45;&gt;Node16 -->
<g id="edge20_Node000015_Node000016" class="edge">
<title>Node15&#45;&gt;Node16</title>
<g id="a_edge20_Node000015_Node000016"><a xlink:title=" ">
<path fill="none" stroke="#63b8ff" d="M650.35,-54.08C645.61,-46.97 638.74,-36.68 632.86,-27.85"/>
<polygon fill="#63b8ff" stroke="#63b8ff" points="635.26,-26.14 626.8,-19.76 629.43,-30.02 635.26,-26.14"/>
</a>
</g>
</g>
<!-- Node17 -->
<g id="Node000017" class="node">
<title>Node17</title>
<g id="a_Node000017"><a xlink:title=" ">
<polygon fill="#e0e0e0" stroke="#999999" points="712.62,-18.5 669.62,-18.5 669.62,0 712.62,0 712.62,-18.5"/>
<text text-anchor="middle" x="691.12" y="-5" font-family="Helvetica,sans-Serif" font-size="10.00">time.h</text>
</a>
</g>
</g>
<!-- Node15&#45;&gt;Node17 -->
<g id="edge21_Node000015_Node000017" class="edge">
<title>Node15&#45;&gt;Node17</title>
<g id="a_edge21_Node000015_Node000017"><a xlink:title=" ">
<path fill="none" stroke="#63b8ff" d="M661.9,-54.08C666.64,-46.97 673.51,-36.68 679.39,-27.85"/>
<polygon fill="#63b8ff" stroke="#63b8ff" points="682.82,-30.02 685.45,-19.76 676.99,-26.14 682.82,-30.02"/>
</a>
</g>
</g>
<!-- Node18&#45;&gt;Node15 -->
<g id="edge23_Node000018_Node000015" class="edge">
<title>Node18&#45;&gt;Node15</title>
<g id="a_edge23_Node000018_Node000015"><a xlink:title=" ">
<path fill="none" stroke="#63b8ff" d="M618.56,-108.58C624.85,-101.24 634.05,-90.51 641.77,-81.5"/>
<polygon fill="#63b8ff" stroke="#63b8ff" points="644.98,-84.13 648.83,-74.26 639.67,-79.57 644.98,-84.13"/>
</a>
</g>
</g>
<!-- Node20&#45;&gt;Node19 -->
<g id="edge27_Node000020_Node000019" class="edge">
<title>Node20&#45;&gt;Node19</title>
<g id="a_edge27_Node000020_Node000019"><a xlink:title=" ">
<path fill="none" stroke="#63b8ff" d="M508.24,-163.08C496.5,-155.18 478.91,-143.34 464.97,-133.96"/>
<polygon fill="#63b8ff" stroke="#63b8ff" points="467.27,-130.61 457.02,-127.93 463.37,-136.42 467.27,-130.61"/>
</a>
</g>
</g>
</g>
</svg>
