<?xml version="1.0" encoding="UTF-8" standalone="no"?>
<!DOCTYPE svg PUBLIC "-//W3C//DTD SVG 1.1//EN"
 "http://www.w3.org/Graphics/SVG/1.1/DTD/svg11.dtd">
<!-- Generated by graphviz version 8.0.5 (0)
 -->
<!-- Title: arax_proc.h Pages: 1 -->
<svg width="514pt" height="245pt"
 viewBox="0.00 0.00 513.83 244.50" xmlns="http://www.w3.org/2000/svg" xmlns:xlink="http://www.w3.org/1999/xlink">
<g id="graph0" class="graph" transform="scale(1 1) rotate(0) translate(4 240.5)">
<title>arax_proc.h</title>
<!-- Node1 -->
<g id="Node000001" class="node">
<title>Node1</title>
<g id="a_Node000001"><a xlink:title=" ">
<polygon fill="#999999" stroke="#666666" points="245.21,-236.5 177.46,-236.5 177.46,-218 245.21,-218 245.21,-236.5"/>
<text text-anchor="middle" x="211.33" y="-223" font-family="Helvetica,sans-Serif" font-size="10.00">arax_proc.h</text>
</a>
</g>
</g>
<!-- Node2 -->
<g id="Node000002" class="node">
<title>Node2</title>
<g id="a_Node000002"><a xlink:href="a01346.html" target="_top" xlink:title=" ">
<polygon fill="white" stroke="#666666" points="159.83,-182 116.83,-182 116.83,-163.5 159.83,-163.5 159.83,-182"/>
<text text-anchor="middle" x="138.33" y="-168.5" font-family="Helvetica,sans-Serif" font-size="10.00">arax.h</text>
</a>
</g>
</g>
<!-- Node1&#45;&gt;Node2 -->
<g id="edge1_Node000001_Node000002" class="edge">
<title>Node1&#45;&gt;Node2</title>
<g id="a_edge1_Node000001_Node000002"><a xlink:title=" ">
<path fill="none" stroke="#63b8ff" d="M199.28,-217.58C188.33,-209.71 171.95,-197.93 158.93,-188.56"/>
<polygon fill="#63b8ff" stroke="#63b8ff" points="161.33,-185.26 151.16,-182.26 157.24,-190.94 161.33,-185.26"/>
</a>
</g>
</g>
<!-- Node9 -->
<g id="Node000009" class="node">
<title>Node9</title>
<g id="a_Node000009"><a xlink:href="a01403.html" target="_top" xlink:title=" ">
<polygon fill="white" stroke="#666666" points="373.46,-182 277.21,-182 277.21,-163.5 373.46,-163.5 373.46,-182"/>
<text text-anchor="middle" x="325.33" y="-168.5" font-family="Helvetica,sans-Serif" font-size="10.00">core/arax_object.h</text>
</a>
</g>
</g>
<!-- Node1&#45;&gt;Node9 -->
<g id="edge9_Node000001_Node000009" class="edge">
<title>Node1&#45;&gt;Node9</title>
<g id="a_edge9_Node000001_Node000009"><a xlink:title=" ">
<path fill="none" stroke="#63b8ff" d="M230.16,-217.58C248.23,-209.26 275.77,-196.58 296.59,-186.99"/>
<polygon fill="#63b8ff" stroke="#63b8ff" points="297.86,-189.79 305.48,-182.43 294.93,-183.44 297.86,-189.79"/>
</a>
</g>
</g>
<!-- Node3 -->
<g id="Node000003" class="node">
<title>Node3</title>
<g id="a_Node000003"><a xlink:title=" ">
<polygon fill="#e0e0e0" stroke="#999999" points="58.96,-127.5 13.71,-127.5 13.71,-109 58.96,-109 58.96,-127.5"/>
<text text-anchor="middle" x="36.33" y="-114" font-family="Helvetica,sans-Serif" font-size="10.00">stdio.h</text>
</a>
</g>
</g>
<!-- Node2&#45;&gt;Node3 -->
<g id="edge2_Node000002_Node000003" class="edge">
<title>Node2&#45;&gt;Node3</title>
<g id="a_edge2_Node000002_Node000003"><a xlink:title=" ">
<path fill="none" stroke="#63b8ff" d="M121.49,-163.08C105.54,-154.87 81.35,-142.42 62.83,-132.89"/>
<polygon fill="#63b8ff" stroke="#63b8ff" points="64.7,-129.4 54.2,-127.93 61.49,-135.62 64.7,-129.4"/>
</a>
</g>
</g>
<!-- Node4 -->
<g id="Node000004" class="node">
<title>Node4</title>
<g id="a_Node000004"><a xlink:title=" ">
<polygon fill="#e0e0e0" stroke="#999999" points="271.58,-73 221.08,-73 221.08,-54.5 271.58,-54.5 271.58,-73"/>
<text text-anchor="middle" x="246.33" y="-59.5" font-family="Helvetica,sans-Serif" font-size="10.00">stddef.h</text>
</a>
</g>
</g>
<!-- Node2&#45;&gt;Node4 -->
<g id="edge3_Node000002_Node000004" class="edge">
<title>Node2&#45;&gt;Node4</title>
<g id="a_edge3_Node000002_Node000004"><a xlink:title=" ">
<path fill="none" stroke="#63b8ff" d="M157.26,-163.14C172.65,-155.44 194.22,-142.99 209.33,-127.5 221.89,-114.63 231.91,-96.7 238.34,-83.3"/>
<polygon fill="#63b8ff" stroke="#63b8ff" points="241.93,-84.87 242.88,-74.32 235.55,-81.98 241.93,-84.87"/>
</a>
</g>
</g>
<!-- Node5 -->
<g id="Node000005" class="node">
<title>Node5</title>
<g id="a_Node000005"><a xlink:href="a01352.html" target="_top" xlink:title=" ">
<polygon fill="white" stroke="#666666" points="98.83,-73 25.83,-73 25.83,-54.5 98.83,-54.5 98.83,-73"/>
<text text-anchor="middle" x="62.33" y="-59.5" font-family="Helvetica,sans-Serif" font-size="10.00">arax_types.h</text>
</a>
</g>
</g>
<!-- Node2&#45;&gt;Node5 -->
<g id="edge4_Node000002_Node000005" class="edge">
<title>Node2&#45;&gt;Node5</title>
<g id="a_edge4_Node000002_Node000005"><a xlink:title=" ">
<path fill="none" stroke="#63b8ff" d="M116.49,-171.8C85.61,-170.56 30.1,-163.14 4.33,-127.5 -8.8,-109.34 13.77,-90.76 34.47,-78.58"/>
<polygon fill="#63b8ff" stroke="#63b8ff" points="35.96,-81.2 43.02,-73.3 32.58,-75.08 35.96,-81.2"/>
</a>
</g>
</g>
<!-- Node8 -->
<g id="Node000008" class="node">
<title>Node8</title>
<g id="a_Node000008"><a xlink:href="a01394.html" target="_top" xlink:title=" ">
<polygon fill="white" stroke="#666666" points="199.96,-127.5 76.71,-127.5 76.71,-109 199.96,-109 199.96,-127.5"/>
<text text-anchor="middle" x="138.33" y="-114" font-family="Helvetica,sans-Serif" font-size="10.00">core/arax_accel_types.h</text>
</a>
</g>
</g>
<!-- Node2&#45;&gt;Node8 -->
<g id="edge7_Node000002_Node000008" class="edge">
<title>Node2&#45;&gt;Node8</title>
<g id="a_edge7_Node000002_Node000008"><a xlink:title=" ">
<path fill="none" stroke="#63b8ff" d="M138.33,-163.08C138.33,-156.43 138.33,-146.99 138.33,-138.58"/>
<polygon fill="#63b8ff" stroke="#63b8ff" points="141.83,-138.76 138.33,-128.76 134.83,-138.76 141.83,-138.76"/>
</a>
</g>
</g>
<!-- Node6 -->
<g id="Node000006" class="node">
<title>Node6</title>
<g id="a_Node000006"><a xlink:title=" ">
<polygon fill="#e0e0e0" stroke="#999999" points="127.46,-18.5 67.21,-18.5 67.21,0 127.46,0 127.46,-18.5"/>
<text text-anchor="middle" x="97.33" y="-5" font-family="Helvetica,sans-Serif" font-size="10.00">sys/time.h</text>
</a>
</g>
</g>
<!-- Node5&#45;&gt;Node6 -->
<g id="edge5_Node000005_Node000006" class="edge">
<title>Node5&#45;&gt;Node6</title>
<g id="a_edge5_Node000005_Node000006"><a xlink:title=" ">
<path fill="none" stroke="#63b8ff" d="M68.11,-54.08C72.85,-46.97 79.72,-36.68 85.6,-27.85"/>
<polygon fill="#63b8ff" stroke="#63b8ff" points="89.03,-30.02 91.66,-19.76 83.2,-26.14 89.03,-30.02"/>
</a>
</g>
</g>
<!-- Node7 -->
<g id="Node000007" class="node">
<title>Node7</title>
<g id="a_Node000007"><a xlink:title=" ">
<polygon fill="#e0e0e0" stroke="#999999" points="48.83,-18.5 5.83,-18.5 5.83,0 48.83,0 48.83,-18.5"/>
<text text-anchor="middle" x="27.33" y="-5" font-family="Helvetica,sans-Serif" font-size="10.00">time.h</text>
</a>
</g>
</g>
<!-- Node5&#45;&gt;Node7 -->
<g id="edge6_Node000005_Node000007" class="edge">
<title>Node5&#45;&gt;Node7</title>
<g id="a_edge6_Node000005_Node000007"><a xlink:title=" ">
<path fill="none" stroke="#63b8ff" d="M56.55,-54.08C51.81,-46.97 44.95,-36.68 39.07,-27.85"/>
<polygon fill="#63b8ff" stroke="#63b8ff" points="41.47,-26.14 33.01,-19.76 35.64,-30.02 41.47,-26.14"/>
</a>
</g>
</g>
<!-- Node8&#45;&gt;Node5 -->
<g id="edge8_Node000008_Node000005" class="edge">
<title>Node8&#45;&gt;Node5</title>
<g id="a_edge8_Node000008_Node000005"><a xlink:title=" ">
<path fill="none" stroke="#63b8ff" d="M125.78,-108.58C114.34,-100.68 97.2,-88.84 83.62,-79.46"/>
<polygon fill="#63b8ff" stroke="#63b8ff" points="86.12,-76.24 75.9,-73.43 82.14,-82 86.12,-76.24"/>
</a>
</g>
</g>
<!-- Node10 -->
<g id="Node000010" class="node">
<title>Node10</title>
<g id="a_Node000010"><a xlink:href="a01376.html" target="_top" xlink:title=" ">
<polygon fill="white" stroke="#666666" points="313.96,-127.5 256.71,-127.5 256.71,-109 313.96,-109 313.96,-127.5"/>
<text text-anchor="middle" x="285.33" y="-114" font-family="Helvetica,sans-Serif" font-size="10.00">utils/list.h</text>
</a>
</g>
</g>
<!-- Node9&#45;&gt;Node10 -->
<g id="edge10_Node000009_Node000010" class="edge">
<title>Node9&#45;&gt;Node10</title>
<g id="a_edge10_Node000009_Node000010"><a xlink:title=" ">
<path fill="none" stroke="#63b8ff" d="M318.73,-163.08C313.2,-155.82 305.13,-145.23 298.31,-136.28"/>
<polygon fill="#63b8ff" stroke="#63b8ff" points="300.66,-134.59 291.82,-128.76 295.09,-138.83 300.66,-134.59"/>
</a>
</g>
</g>
<!-- Node12 -->
<g id="Node000012" class="node">
<title>Node12</title>
<g id="a_Node000012"><a xlink:href="a01382.html" target="_top" xlink:title=" ">
<polygon fill="white" stroke="#666666" points="497.96,-127.5 416.71,-127.5 416.71,-109 497.96,-109 497.96,-127.5"/>
<text text-anchor="middle" x="457.33" y="-114" font-family="Helvetica,sans-Serif" font-size="10.00">utils/spinlock.h</text>
</a>
</g>
</g>
<!-- Node9&#45;&gt;Node12 -->
<g id="edge13_Node000009_Node000012" class="edge">
<title>Node9&#45;&gt;Node12</title>
<g id="a_edge13_Node000009_Node000012"><a xlink:title=" ">
<path fill="none" stroke="#63b8ff" d="M347.13,-163.08C368.44,-154.61 401.11,-141.61 425.36,-131.97"/>
<polygon fill="#63b8ff" stroke="#63b8ff" points="426.51,-134.88 434.5,-127.93 423.92,-128.38 426.51,-134.88"/>
</a>
</g>
</g>
<!-- Node15 -->
<g id="Node000015" class="node">
<title>Node15</title>
<g id="a_Node000015"><a xlink:title=" ">
<polygon fill="#e0e0e0" stroke="#999999" points="398.46,-127.5 332.21,-127.5 332.21,-109 398.46,-109 398.46,-127.5"/>
<text text-anchor="middle" x="365.33" y="-114" font-family="Helvetica,sans-Serif" font-size="10.00">arch/alloc.h</text>
</a>
</g>
</g>
<!-- Node9&#45;&gt;Node15 -->
<g id="edge17_Node000009_Node000015" class="edge">
<title>Node9&#45;&gt;Node15</title>
<g id="a_edge17_Node000009_Node000015"><a xlink:title=" ">
<path fill="none" stroke="#63b8ff" d="M331.94,-163.08C337.47,-155.82 345.54,-145.23 352.36,-136.28"/>
<polygon fill="#63b8ff" stroke="#63b8ff" points="355.58,-138.83 358.85,-128.76 350.01,-134.59 355.58,-138.83"/>
</a>
</g>
</g>
<!-- Node10&#45;&gt;Node4 -->
<g id="edge11_Node000010_Node000004" class="edge">
<title>Node10&#45;&gt;Node4</title>
<g id="a_edge11_Node000010_Node000004"><a xlink:title=" ">
<path fill="none" stroke="#63b8ff" d="M278.89,-108.58C273.56,-101.39 265.8,-90.95 259.2,-82.07"/>
<polygon fill="#63b8ff" stroke="#63b8ff" points="261.43,-80.2 252.65,-74.26 255.81,-84.37 261.43,-80.2"/>
</a>
</g>
</g>
<!-- Node11 -->
<g id="Node000011" class="node">
<title>Node11</title>
<g id="a_Node000011"><a xlink:title=" ">
<polygon fill="#e0e0e0" stroke="#999999" points="355.08,-73 307.58,-73 307.58,-54.5 355.08,-54.5 355.08,-73"/>
<text text-anchor="middle" x="331.33" y="-59.5" font-family="Helvetica,sans-Serif" font-size="10.00">stdint.h</text>
</a>
</g>
</g>
<!-- Node10&#45;&gt;Node11 -->
<g id="edge12_Node000010_Node000011" class="edge">
<title>Node10&#45;&gt;Node11</title>
<g id="a_edge12_Node000010_Node000011"><a xlink:title=" ">
<path fill="none" stroke="#63b8ff" d="M292.93,-108.58C299.36,-101.24 308.76,-90.51 316.66,-81.5"/>
<polygon fill="#63b8ff" stroke="#63b8ff" points="319.92,-84.09 323.88,-74.26 314.66,-79.47 319.92,-84.09"/>
</a>
</g>
</g>
<!-- Node12&#45;&gt;Node11 -->
<g id="edge14_Node000012_Node000011" class="edge">
<title>Node12&#45;&gt;Node11</title>
<g id="a_edge14_Node000012_Node000011"><a xlink:title=" ">
<path fill="none" stroke="#63b8ff" d="M436.53,-108.58C416.28,-100.15 385.28,-87.23 362.17,-77.6"/>
<polygon fill="#63b8ff" stroke="#63b8ff" points="363.75,-74.05 353.17,-73.43 361.06,-80.51 363.75,-74.05"/>
</a>
</g>
</g>
<!-- Node13 -->
<g id="Node000013" class="node">
<title>Node13</title>
<g id="a_Node000013"><a xlink:href="a01361.html" target="_top" xlink:title=" ">
<polygon fill="white" stroke="#666666" points="505.83,-73 408.83,-73 408.83,-54.5 505.83,-54.5 505.83,-73"/>
<text text-anchor="middle" x="457.33" y="-59.5" font-family="Helvetica,sans-Serif" font-size="10.00">utils/arax_assert.h</text>
</a>
</g>
</g>
<!-- Node12&#45;&gt;Node13 -->
<g id="edge15_Node000012_Node000013" class="edge">
<title>Node12&#45;&gt;Node13</title>
<g id="a_edge15_Node000012_Node000013"><a xlink:title=" ">
<path fill="none" stroke="#63b8ff" d="M457.33,-108.58C457.33,-101.93 457.33,-92.49 457.33,-84.08"/>
<polygon fill="#63b8ff" stroke="#63b8ff" points="460.83,-84.26 457.33,-74.26 453.83,-84.26 460.83,-84.26"/>
</a>
</g>
</g>
<!-- Node14 -->
<g id="Node000014" class="node">
<title>Node14</title>
<g id="a_Node000014"><a xlink:href="a01370.html" target="_top" xlink:title=" ">
<polygon fill="white" stroke="#666666" points="485.21,-18.5 429.46,-18.5 429.46,0 485.21,0 485.21,-18.5"/>
<text text-anchor="middle" x="457.33" y="-5" font-family="Helvetica,sans-Serif" font-size="10.00">compat.h</text>
</a>
</g>
</g>
<!-- Node13&#45;&gt;Node14 -->
<g id="edge16_Node000013_Node000014" class="edge">
<title>Node13&#45;&gt;Node14</title>
<g id="a_edge16_Node000013_Node000014"><a xlink:title=" ">
<path fill="none" stroke="#63b8ff" d="M457.33,-54.08C457.33,-47.43 457.33,-37.99 457.33,-29.58"/>
<polygon fill="#63b8ff" stroke="#63b8ff" points="460.83,-29.76 457.33,-19.76 453.83,-29.76 460.83,-29.76"/>
</a>
</g>
</g>
</g>
</svg>
