<?xml version="1.0" encoding="UTF-8" standalone="no"?>
<!DOCTYPE svg PUBLIC "-//W3C//DTD SVG 1.1//EN"
 "http://www.w3.org/Graphics/SVG/1.1/DTD/svg11.dtd">
<!-- Generated by graphviz version 8.0.5 (0)
 -->
<!-- Title: async_semaphore_inc Pages: 1 -->
<svg width="540pt" height="101pt"
 viewBox="0.00 0.00 540.00 100.50" xmlns="http://www.w3.org/2000/svg" xmlns:xlink="http://www.w3.org/1999/xlink">
<g id="graph0" class="graph" transform="scale(1 1) rotate(0) translate(4 96.5)">
<title>async_semaphore_inc</title>
<!-- Node1 -->
<g id="Node000001" class="node">
<title>Node1</title>
<g id="a_Node000001"><a xlink:title=" ">
<polygon fill="#999999" stroke="#666666" points="112.75,-55.5 0,-55.5 0,-37 112.75,-37 112.75,-55.5"/>
<text text-anchor="middle" x="56.38" y="-42" font-family="Helvetica,sans-Serif" font-size="10.00">async_semaphore_inc</text>
</a>
</g>
</g>
<!-- Node2 -->
<g id="Node000002" class="node">
<title>Node2</title>
<g id="a_Node000002"><a xlink:href="a02346.html#aa459f71b73bbc23f0b4bb342d093dde3" target="_top" xlink:title=" ">
<polygon fill="white" stroke="#666666" points="263,-92.5 173.5,-92.5 173.5,-74 263,-74 263,-92.5"/>
<text text-anchor="middle" x="218.25" y="-79" font-family="Helvetica,sans-Serif" font-size="10.00">_add_completion</text>
</a>
</g>
</g>
<!-- Node1&#45;&gt;Node2 -->
<g id="edge1_Node000001_Node000002" class="edge">
<title>Node1&#45;&gt;Node2</title>
<g id="a_edge1_Node000001_Node000002"><a xlink:title=" ">
<path fill="none" stroke="#63b8ff" d="M99.38,-55.97C119.4,-60.61 143.56,-66.2 164.78,-71.11"/>
<polygon fill="#63b8ff" stroke="#63b8ff" points="163.72,-74.68 174.25,-73.53 165.29,-67.86 163.72,-74.68"/>
</a>
</g>
</g>
<!-- Node5 -->
<g id="Node000005" class="node">
<title>Node5</title>
<g id="a_Node000005"><a xlink:href="a02346.html#ad1d30ecbf6bff6457b680aa940281072" target="_top" xlink:title=" ">
<polygon fill="white" stroke="#666666" points="287.75,-55.5 148.75,-55.5 148.75,-37 287.75,-37 287.75,-55.5"/>
<text text-anchor="middle" x="218.25" y="-42" font-family="Helvetica,sans-Serif" font-size="10.00">async_completion_complete</text>
</a>
</g>
</g>
<!-- Node1&#45;&gt;Node5 -->
<g id="edge4_Node000001_Node000005" class="edge">
<title>Node1&#45;&gt;Node5</title>
<g id="a_edge4_Node000001_Node000005"><a xlink:title=" ">
<path fill="none" stroke="#63b8ff" d="M112.84,-46.25C120.81,-46.25 129.13,-46.25 137.45,-46.25"/>
<polygon fill="#63b8ff" stroke="#63b8ff" points="137.36,-49.75 147.36,-46.25 137.36,-42.75 137.36,-49.75"/>
</a>
</g>
</g>
<!-- Node6 -->
<g id="Node000006" class="node">
<title>Node6</title>
<g id="a_Node000006"><a xlink:href="a01946.html#a0c85e5516222ab7e7fc354c614760ec5" target="_top" xlink:title=" ">
<polygon fill="white" stroke="#666666" points="253.25,-18.5 183.25,-18.5 183.25,0 253.25,0 253.25,-18.5"/>
<text text-anchor="middle" x="218.25" y="-5" font-family="Helvetica,sans-Serif" font-size="10.00">utils_list_del</text>
</a>
</g>
</g>
<!-- Node1&#45;&gt;Node6 -->
<g id="edge5_Node000001_Node000006" class="edge">
<title>Node1&#45;&gt;Node6</title>
<g id="a_edge5_Node000001_Node000006"><a xlink:title=" ">
<path fill="none" stroke="#63b8ff" d="M99.38,-36.53C121.82,-31.33 149.46,-24.94 172.33,-19.65"/>
<polygon fill="#63b8ff" stroke="#63b8ff" points="172.84,-22.89 181.8,-17.22 171.26,-16.07 172.84,-22.89"/>
</a>
</g>
</g>
<!-- Node3 -->
<g id="Node000003" class="node">
<title>Node3</title>
<g id="a_Node000003"><a xlink:href="a01946.html#ae06a9e78e6a4f6c9c8afcf0f4862ce29" target="_top" xlink:title=" ">
<polygon fill="white" stroke="#666666" points="396.75,-92.5 323.75,-92.5 323.75,-74 396.75,-74 396.75,-92.5"/>
<text text-anchor="middle" x="360.25" y="-79" font-family="Helvetica,sans-Serif" font-size="10.00">utils_list_add</text>
</a>
</g>
</g>
<!-- Node2&#45;&gt;Node3 -->
<g id="edge2_Node000002_Node000003" class="edge">
<title>Node2&#45;&gt;Node3</title>
<g id="a_edge2_Node000002_Node000003"><a xlink:title=" ">
<path fill="none" stroke="#63b8ff" d="M263.16,-83.25C278.93,-83.25 296.76,-83.25 312.74,-83.25"/>
<polygon fill="#63b8ff" stroke="#63b8ff" points="312.46,-86.75 322.46,-83.25 312.46,-79.75 312.46,-86.75"/>
</a>
</g>
</g>
<!-- Node4 -->
<g id="Node000004" class="node">
<title>Node4</title>
<g id="a_Node000004"><a xlink:href="a01946.html#a5c575f52a42e0e0d2fb41bda2d1268ce" target="_top" xlink:title=" ">
<polygon fill="white" stroke="#666666" points="532,-92.5 432.75,-92.5 432.75,-74 532,-74 532,-92.5"/>
<text text-anchor="middle" x="482.38" y="-79" font-family="Helvetica,sans-Serif" font-size="10.00">utils_list_node_add</text>
</a>
</g>
</g>
<!-- Node3&#45;&gt;Node4 -->
<g id="edge3_Node000003_Node000004" class="edge">
<title>Node3&#45;&gt;Node4</title>
<g id="a_edge3_Node000003_Node000004"><a xlink:title=" ">
<path fill="none" stroke="#63b8ff" d="M396.97,-83.25C404.84,-83.25 413.39,-83.25 421.93,-83.25"/>
<polygon fill="#63b8ff" stroke="#63b8ff" points="421.68,-86.75 431.68,-83.25 421.68,-79.75 421.68,-86.75"/>
</a>
</g>
</g>
</g>
</svg>
