<?xml version="1.0" encoding="UTF-8" standalone="no"?>
<!DOCTYPE svg PUBLIC "-//W3C//DTD SVG 1.1//EN"
 "http://www.w3.org/Graphics/SVG/1.1/DTD/svg11.dtd">
<!-- Generated by graphviz version 8.0.5 (0)
 -->
<!-- Title: arax_object.h Pages: 1 -->
<svg width="278pt" height="190pt"
 viewBox="0.00 0.00 278.38 190.00" xmlns="http://www.w3.org/2000/svg" xmlns:xlink="http://www.w3.org/1999/xlink">
<g id="graph0" class="graph" transform="scale(1 1) rotate(0) translate(4 186)">
<title>arax_object.h</title>
<!-- Node1 -->
<g id="Node000001" class="node">
<title>Node1</title>
<g id="a_Node000001"><a xlink:title=" ">
<polygon fill="#999999" stroke="#666666" points="182.5,-182 108,-182 108,-163.5 182.5,-163.5 182.5,-182"/>
<text text-anchor="middle" x="145.25" y="-168.5" font-family="Helvetica,sans-Serif" font-size="10.00">arax_object.h</text>
</a>
</g>
</g>
<!-- Node2 -->
<g id="Node000002" class="node">
<title>Node2</title>
<g id="a_Node000002"><a xlink:href="a01376.html" target="_top" xlink:title=" ">
<polygon fill="white" stroke="#666666" points="86.88,-127.5 29.62,-127.5 29.62,-109 86.88,-109 86.88,-127.5"/>
<text text-anchor="middle" x="58.25" y="-114" font-family="Helvetica,sans-Serif" font-size="10.00">utils/list.h</text>
</a>
</g>
</g>
<!-- Node1&#45;&gt;Node2 -->
<g id="edge1_Node000001_Node000002" class="edge">
<title>Node1&#45;&gt;Node2</title>
<g id="a_edge1_Node000001_Node000002"><a xlink:title=" ">
<path fill="none" stroke="#63b8ff" d="M130.88,-163.08C117.53,-155.03 97.41,-142.88 81.73,-133.42"/>
<polygon fill="#63b8ff" stroke="#63b8ff" points="84.01,-130.1 73.64,-127.93 80.39,-136.1 84.01,-130.1"/>
</a>
</g>
</g>
<!-- Node5 -->
<g id="Node000005" class="node">
<title>Node5</title>
<g id="a_Node000005"><a xlink:href="a01382.html" target="_top" xlink:title=" ">
<polygon fill="white" stroke="#666666" points="185.88,-127.5 104.62,-127.5 104.62,-109 185.88,-109 185.88,-127.5"/>
<text text-anchor="middle" x="145.25" y="-114" font-family="Helvetica,sans-Serif" font-size="10.00">utils/spinlock.h</text>
</a>
</g>
</g>
<!-- Node1&#45;&gt;Node5 -->
<g id="edge4_Node000001_Node000005" class="edge">
<title>Node1&#45;&gt;Node5</title>
<g id="a_edge4_Node000001_Node000005"><a xlink:title=" ">
<path fill="none" stroke="#63b8ff" d="M145.25,-163.08C145.25,-156.43 145.25,-146.99 145.25,-138.58"/>
<polygon fill="#63b8ff" stroke="#63b8ff" points="148.75,-138.76 145.25,-128.76 141.75,-138.76 148.75,-138.76"/>
</a>
</g>
</g>
<!-- Node8 -->
<g id="Node000008" class="node">
<title>Node8</title>
<g id="a_Node000008"><a xlink:title=" ">
<polygon fill="#e0e0e0" stroke="#999999" points="270.38,-127.5 204.12,-127.5 204.12,-109 270.38,-109 270.38,-127.5"/>
<text text-anchor="middle" x="237.25" y="-114" font-family="Helvetica,sans-Serif" font-size="10.00">arch/alloc.h</text>
</a>
</g>
</g>
<!-- Node1&#45;&gt;Node8 -->
<g id="edge8_Node000001_Node000008" class="edge">
<title>Node1&#45;&gt;Node8</title>
<g id="a_edge8_Node000001_Node000008"><a xlink:title=" ">
<path fill="none" stroke="#63b8ff" d="M160.44,-163.08C174.69,-154.95 196.24,-142.65 212.89,-133.15"/>
<polygon fill="#63b8ff" stroke="#63b8ff" points="214.08,-135.93 221.04,-127.93 210.62,-129.85 214.08,-135.93"/>
</a>
</g>
</g>
<!-- Node3 -->
<g id="Node000003" class="node">
<title>Node3</title>
<g id="a_Node000003"><a xlink:title=" ">
<polygon fill="#e0e0e0" stroke="#999999" points="50.5,-73 0,-73 0,-54.5 50.5,-54.5 50.5,-73"/>
<text text-anchor="middle" x="25.25" y="-59.5" font-family="Helvetica,sans-Serif" font-size="10.00">stddef.h</text>
</a>
</g>
</g>
<!-- Node2&#45;&gt;Node3 -->
<g id="edge2_Node000002_Node000003" class="edge">
<title>Node2&#45;&gt;Node3</title>
<g id="a_edge2_Node000002_Node000003"><a xlink:title=" ">
<path fill="none" stroke="#63b8ff" d="M52.8,-108.58C48.33,-101.47 41.86,-91.18 36.31,-82.35"/>
<polygon fill="#63b8ff" stroke="#63b8ff" points="38.88,-80.86 30.6,-74.26 32.96,-84.59 38.88,-80.86"/>
</a>
</g>
</g>
<!-- Node4 -->
<g id="Node000004" class="node">
<title>Node4</title>
<g id="a_Node000004"><a xlink:title=" ">
<polygon fill="#e0e0e0" stroke="#999999" points="116,-73 68.5,-73 68.5,-54.5 116,-54.5 116,-73"/>
<text text-anchor="middle" x="92.25" y="-59.5" font-family="Helvetica,sans-Serif" font-size="10.00">stdint.h</text>
</a>
</g>
</g>
<!-- Node2&#45;&gt;Node4 -->
<g id="edge3_Node000002_Node000004" class="edge">
<title>Node2&#45;&gt;Node4</title>
<g id="a_edge3_Node000002_Node000004"><a xlink:title=" ">
<path fill="none" stroke="#63b8ff" d="M63.86,-108.58C68.47,-101.47 75.14,-91.18 80.85,-82.35"/>
<polygon fill="#63b8ff" stroke="#63b8ff" points="84.24,-84.55 86.74,-74.26 78.37,-80.75 84.24,-84.55"/>
</a>
</g>
</g>
<!-- Node5&#45;&gt;Node4 -->
<g id="edge5_Node000005_Node000004" class="edge">
<title>Node5&#45;&gt;Node4</title>
<g id="a_edge5_Node000005_Node000004"><a xlink:title=" ">
<path fill="none" stroke="#63b8ff" d="M136.5,-108.58C128.93,-101.09 117.8,-90.06 108.59,-80.94"/>
<polygon fill="#63b8ff" stroke="#63b8ff" points="111.41,-78.81 101.84,-74.26 106.48,-83.78 111.41,-78.81"/>
</a>
</g>
</g>
<!-- Node6 -->
<g id="Node000006" class="node">
<title>Node6</title>
<g id="a_Node000006"><a xlink:href="a01361.html" target="_top" xlink:title=" ">
<polygon fill="white" stroke="#666666" points="230.75,-73 133.75,-73 133.75,-54.5 230.75,-54.5 230.75,-73"/>
<text text-anchor="middle" x="182.25" y="-59.5" font-family="Helvetica,sans-Serif" font-size="10.00">utils/arax_assert.h</text>
</a>
</g>
</g>
<!-- Node5&#45;&gt;Node6 -->
<g id="edge6_Node000005_Node000006" class="edge">
<title>Node5&#45;&gt;Node6</title>
<g id="a_edge6_Node000005_Node000006"><a xlink:title=" ">
<path fill="none" stroke="#63b8ff" d="M151.36,-108.58C156.42,-101.39 163.78,-90.95 170.05,-82.07"/>
<polygon fill="#63b8ff" stroke="#63b8ff" points="173.35,-84.45 176.25,-74.26 167.63,-80.42 173.35,-84.45"/>
</a>
</g>
</g>
<!-- Node7 -->
<g id="Node000007" class="node">
<title>Node7</title>
<g id="a_Node000007"><a xlink:href="a01370.html" target="_top" xlink:title=" ">
<polygon fill="white" stroke="#666666" points="210.12,-18.5 154.38,-18.5 154.38,0 210.12,0 210.12,-18.5"/>
<text text-anchor="middle" x="182.25" y="-5" font-family="Helvetica,sans-Serif" font-size="10.00">compat.h</text>
</a>
</g>
</g>
<!-- Node6&#45;&gt;Node7 -->
<g id="edge7_Node000006_Node000007" class="edge">
<title>Node6&#45;&gt;Node7</title>
<g id="a_edge7_Node000006_Node000007"><a xlink:title=" ">
<path fill="none" stroke="#63b8ff" d="M182.25,-54.08C182.25,-47.43 182.25,-37.99 182.25,-29.58"/>
<polygon fill="#63b8ff" stroke="#63b8ff" points="185.75,-29.76 182.25,-19.76 178.75,-29.76 185.75,-29.76"/>
</a>
</g>
</g>
</g>
</svg>
