<?xml version="1.0" encoding="UTF-8" standalone="no"?>
<!DOCTYPE svg PUBLIC "-//W3C//DTD SVG 1.1//EN"
 "http://www.w3.org/Graphics/SVG/1.1/DTD/svg11.dtd">
<!-- Generated by graphviz version 8.0.5 (0)
 -->
<!-- Title: async_meta_exit Pages: 1 -->
<svg width="197pt" height="64pt"
 viewBox="0.00 0.00 196.75 63.50" xmlns="http://www.w3.org/2000/svg" xmlns:xlink="http://www.w3.org/1999/xlink">
<g id="graph0" class="graph" transform="scale(1 1) rotate(0) translate(4 59.5)">
<title>async_meta_exit</title>
<!-- Node1 -->
<g id="Node000001" class="node">
<title>Node1</title>
<g id="a_Node000001"><a xlink:title=" ">
<polygon fill="#999999" stroke="#666666" points="89.5,-36.5 0,-36.5 0,-18 89.5,-18 89.5,-36.5"/>
<text text-anchor="middle" x="44.75" y="-23" font-family="Helvetica,sans-Serif" font-size="10.00">async_meta_exit</text>
</a>
</g>
</g>
<!-- Node2 -->
<g id="Node000002" class="node">
<title>Node2</title>
<g id="a_Node000002"><a xlink:href="a02346.html#a49083e8ceb4bfe7793ca1a5a799834d0" target="_top" xlink:title=" ">
<polygon fill="white" stroke="#666666" points="184.62,-55.5 129.62,-55.5 129.62,-37 184.62,-37 184.62,-55.5"/>
<text text-anchor="middle" x="157.12" y="-42" font-family="Helvetica,sans-Serif" font-size="10.00">getVmID</text>
</a>
</g>
</g>
<!-- Node1&#45;&gt;Node2 -->
<g id="edge1_Node000001_Node000002" class="edge">
<title>Node1&#45;&gt;Node2</title>
<g id="a_edge1_Node000001_Node000002"><a xlink:title=" ">
<path fill="none" stroke="#63b8ff" d="M89.69,-34.81C99.18,-36.45 109.13,-38.16 118.36,-39.75"/>
<polygon fill="#63b8ff" stroke="#63b8ff" points="117.73,-43.36 128.17,-41.61 118.91,-36.46 117.73,-43.36"/>
</a>
</g>
</g>
<!-- Node3 -->
<g id="Node000003" class="node">
<title>Node3</title>
<g id="a_Node000003"><a xlink:href="a02346.html#ab5d38a2680290bd159549efaa41b925b" target="_top" xlink:title=" ">
<polygon fill="white" stroke="#666666" points="188.75,-18.5 125.5,-18.5 125.5,0 188.75,0 188.75,-18.5"/>
<text text-anchor="middle" x="157.12" y="-5" font-family="Helvetica,sans-Serif" font-size="10.00">wakeupVm</text>
</a>
</g>
</g>
<!-- Node1&#45;&gt;Node3 -->
<g id="edge2_Node000001_Node000003" class="edge">
<title>Node1&#45;&gt;Node3</title>
<g id="a_edge2_Node000001_Node000003"><a xlink:title=" ">
<path fill="none" stroke="#63b8ff" d="M89.69,-20.08C97.87,-18.75 106.4,-17.36 114.51,-16.04"/>
<polygon fill="#63b8ff" stroke="#63b8ff" points="114.94,-19.35 124.24,-14.29 113.81,-12.44 114.94,-19.35"/>
</a>
</g>
</g>
</g>
</svg>
