<?xml version="1.0" encoding="UTF-8" standalone="no"?>
<!DOCTYPE svg PUBLIC "-//W3C//DTD SVG 1.1//EN"
 "http://www.w3.org/Graphics/SVG/1.1/DTD/svg11.dtd">
<!-- Generated by graphviz version 12.2.1 (0)
 -->
<!-- Title: arax_data_input_init Pages: 1 -->
<svg width="1043pt" height="156pt"
 viewBox="0.00 0.00 1043.25 155.50" xmlns="http://www.w3.org/2000/svg" xmlns:xlink="http://www.w3.org/1999/xlink">
<g id="graph0" class="graph" transform="scale(1 1) rotate(0) translate(4 151.5)">
<title>arax_data_input_init</title>
<!-- Node1 -->
<g id="Node000001" class="node">
<title>Node1</title>
<g id="a_Node000001"><a xlink:title=" ">
<polygon fill="#999999" stroke="#666666" points="103.75,-36.5 0,-36.5 0,-18 103.75,-18 103.75,-36.5"/>
<text text-anchor="middle" x="51.88" y="-23" font-family="Helvetica,sans-Serif" font-size="10.00">arax_data_input_init</text>
</a>
</g>
</g>
<!-- Node2 -->
<g id="Node000002" class="node">
<title>Node2</title>
<g id="a_Node000002"><a xlink:href="a01922.html#a4b65f90a821aca384f0ca1cff7bd1846" target="_top" xlink:title=" ">
<polygon fill="white" stroke="#666666" points="265.25,-55.5 139.75,-55.5 139.75,-37 265.25,-37 265.25,-55.5"/>
<text text-anchor="middle" x="202.5" y="-42" font-family="Helvetica,sans-Serif" font-size="10.00">arax_data_migrate_accel</text>
</a>
</g>
</g>
<!-- Node1&#45;&gt;Node2 -->
<g id="edge1_Node000001_Node000002" class="edge">
<title>Node1&#45;&gt;Node2</title>
<g id="a_edge1_Node000001_Node000002"><a xlink:title=" ">
<path fill="none" stroke="#63b8ff" d="M104.02,-33.79C111.87,-34.79 120.11,-35.85 128.32,-36.9"/>
<polygon fill="#63b8ff" stroke="#63b8ff" points="127.61,-40.33 137.98,-38.13 128.5,-33.39 127.61,-40.33"/>
</a>
</g>
</g>
<!-- Node13 -->
<g id="Node000013" class="node">
<title>Node13</title>
<g id="a_Node000013"><a xlink:href="a01925.html#a9255b8011e6d7c9b28c7df40065efb28" target="_top" xlink:title=" ">
<polygon fill="white" stroke="#666666" points="412.5,-18.5 311,-18.5 311,0 412.5,0 412.5,-18.5"/>
<text text-anchor="middle" x="361.75" y="-5" font-family="Helvetica,sans-Serif" font-size="10.00">arax_object_ref_inc</text>
</a>
</g>
</g>
<!-- Node1&#45;&gt;Node13 -->
<g id="edge16_Node000001_Node000013" class="edge">
<title>Node1&#45;&gt;Node13</title>
<g id="a_edge16_Node000001_Node000013"><a xlink:title=" ">
<path fill="none" stroke="#63b8ff" d="M104.06,-24.26C157.73,-21.12 242.06,-16.19 299.3,-12.84"/>
<polygon fill="#63b8ff" stroke="#63b8ff" points="299.43,-16.34 309.21,-12.26 299.02,-9.35 299.43,-16.34"/>
</a>
</g>
</g>
<!-- Node3 -->
<g id="Node000003" class="node">
<title>Node3</title>
<g id="a_Node000003"><a xlink:href="a01925.html#afe7e4a63c40fbcaae742b8de8693483f" target="_top" xlink:title=" ">
<polygon fill="white" stroke="#666666" points="414,-92.5 309.5,-92.5 309.5,-74 414,-74 414,-92.5"/>
<text text-anchor="middle" x="361.75" y="-79" font-family="Helvetica,sans-Serif" font-size="10.00">arax_object_ref_dec</text>
</a>
</g>
</g>
<!-- Node2&#45;&gt;Node3 -->
<g id="edge2_Node000002_Node000003" class="edge">
<title>Node2&#45;&gt;Node3</title>
<g id="a_edge2_Node000002_Node000003"><a xlink:title=" ">
<path fill="none" stroke="#63b8ff" d="M244.82,-55.97C264.24,-60.54 287.62,-66.04 308.28,-70.9"/>
<polygon fill="#63b8ff" stroke="#63b8ff" points="307.43,-74.3 317.96,-73.18 309.03,-67.49 307.43,-74.3"/>
</a>
</g>
</g>
<!-- Node2&#45;&gt;Node13 -->
<g id="edge14_Node000002_Node000013" class="edge">
<title>Node2&#45;&gt;Node13</title>
<g id="a_edge14_Node000002_Node000013"><a xlink:title=" ">
<path fill="none" stroke="#63b8ff" d="M244.82,-36.53C264.24,-31.96 287.62,-26.46 308.28,-21.6"/>
<polygon fill="#63b8ff" stroke="#63b8ff" points="309.03,-25.01 317.96,-19.32 307.43,-18.2 309.03,-25.01"/>
</a>
</g>
</g>
<!-- Node14 -->
<g id="Node000014" class="node">
<title>Node14</title>
<g id="a_Node000014"><a xlink:href="a01925.html#a668fd893484b6e2d67d8b372b508d14f" target="_top" xlink:title=" ">
<polygon fill="white" stroke="#666666" points="422.25,-55.5 301.25,-55.5 301.25,-37 422.25,-37 422.25,-55.5"/>
<text text-anchor="middle" x="361.75" y="-42" font-family="Helvetica,sans-Serif" font-size="10.00">arax_object_type_to_str</text>
</a>
</g>
</g>
<!-- Node2&#45;&gt;Node14 -->
<g id="edge15_Node000002_Node000014" class="edge">
<title>Node2&#45;&gt;Node14</title>
<g id="a_edge15_Node000002_Node000014"><a xlink:title=" ">
<path fill="none" stroke="#63b8ff" d="M265.65,-46.25C273.44,-46.25 281.45,-46.25 289.36,-46.25"/>
<polygon fill="#63b8ff" stroke="#63b8ff" points="289.33,-49.75 299.33,-46.25 289.33,-42.75 289.33,-49.75"/>
</a>
</g>
</g>
<!-- Node4 -->
<g id="Node000004" class="node">
<title>Node4</title>
<g id="a_Node000004"><a xlink:href="a01928.html#a9f30684f01feac766b42d622970ed5a6" target="_top" xlink:title=" ">
<polygon fill="white" stroke="#666666" points="557.5,-110.5 458.25,-110.5 458.25,-92 557.5,-92 557.5,-110.5"/>
<text text-anchor="middle" x="507.88" y="-97" font-family="Helvetica,sans-Serif" font-size="10.00">arax_pipe_size_inc</text>
</a>
</g>
</g>
<!-- Node3&#45;&gt;Node4 -->
<g id="edge3_Node000003_Node000004" class="edge">
<title>Node3&#45;&gt;Node4</title>
<g id="a_edge3_Node000003_Node000004"><a xlink:title=" ">
<path fill="none" stroke="#63b8ff" d="M414.38,-89.7C424.93,-91.02 436.11,-92.41 446.93,-93.76"/>
<polygon fill="#63b8ff" stroke="#63b8ff" points="446.16,-97.19 456.52,-94.96 447.03,-90.25 446.16,-97.19"/>
</a>
</g>
</g>
<!-- Node12 -->
<g id="Node000012" class="node">
<title>Node12</title>
<g id="a_Node000012"><a xlink:href="a01955.html#a0c85e5516222ab7e7fc354c614760ec5" target="_top" xlink:title=" ">
<polygon fill="white" stroke="#666666" points="542.88,-73.5 472.88,-73.5 472.88,-55 542.88,-55 542.88,-73.5"/>
<text text-anchor="middle" x="507.88" y="-60" font-family="Helvetica,sans-Serif" font-size="10.00">utils_list_del</text>
</a>
</g>
</g>
<!-- Node3&#45;&gt;Node12 -->
<g id="edge13_Node000003_Node000012" class="edge">
<title>Node3&#45;&gt;Node12</title>
<g id="a_edge13_Node000003_Node000012"><a xlink:title=" ">
<path fill="none" stroke="#63b8ff" d="M414.38,-76.44C429.82,-74.41 446.64,-72.19 461.64,-70.21"/>
<polygon fill="#63b8ff" stroke="#63b8ff" points="461.75,-73.73 471.21,-68.95 460.84,-66.79 461.75,-73.73"/>
</a>
</g>
</g>
<!-- Node4&#45;&gt;Node4 -->
<g id="edge4_Node000004_Node000004" class="edge">
<title>Node4&#45;&gt;Node4</title>
<g id="a_edge4_Node000004_Node000004"><a xlink:title=" ">
<path fill="none" stroke="#63b8ff" d="M486.1,-110.75C475.51,-119.32 482.77,-128.5 507.88,-128.5 522,-128.5 530.47,-125.59 533.3,-121.53"/>
<polygon fill="#63b8ff" stroke="#63b8ff" points="536.65,-120.53 530.13,-112.18 530.02,-122.77 536.65,-120.53"/>
</a>
</g>
</g>
<!-- Node5 -->
<g id="Node000005" class="node">
<title>Node5</title>
<g id="a_Node000005"><a xlink:href="a01940.html#a7d3a67fa4eeb00cc9508a7ffe451a02f" target="_top" xlink:title=" ">
<polygon fill="white" stroke="#666666" points="704.75,-110.5 593.5,-110.5 593.5,-92 704.75,-92 704.75,-110.5"/>
<text text-anchor="middle" x="649.12" y="-97" font-family="Helvetica,sans-Serif" font-size="10.00">arax_throttle_size_inc</text>
</a>
</g>
</g>
<!-- Node4&#45;&gt;Node5 -->
<g id="edge5_Node000004_Node000005" class="edge">
<title>Node4&#45;&gt;Node5</title>
<g id="a_edge5_Node000004_Node000005"><a xlink:title=" ">
<path fill="none" stroke="#63b8ff" d="M557.97,-101.25C565.74,-101.25 573.88,-101.25 581.97,-101.25"/>
<polygon fill="#63b8ff" stroke="#63b8ff" points="581.79,-104.75 591.79,-101.25 581.79,-97.75 581.79,-104.75"/>
</a>
</g>
</g>
<!-- Node5&#45;&gt;Node5 -->
<g id="edge6_Node000005_Node000005" class="edge">
<title>Node5&#45;&gt;Node5</title>
<g id="a_edge6_Node000005_Node000005"><a xlink:title=" ">
<path fill="none" stroke="#63b8ff" d="M627.35,-110.75C616.76,-119.32 624.02,-128.5 649.12,-128.5 663.25,-128.5 671.72,-125.59 674.55,-121.53"/>
<polygon fill="#63b8ff" stroke="#63b8ff" points="677.9,-120.53 671.38,-112.18 671.27,-122.77 677.9,-120.53"/>
</a>
</g>
</g>
<!-- Node6 -->
<g id="Node000006" class="node">
<title>Node6</title>
<g id="a_Node000006"><a xlink:href="a02364.html#aed6af4d83e934e3e654ead541b15f2d9" target="_top" xlink:title=" ">
<polygon fill="white" stroke="#666666" points="855,-147.5 746,-147.5 746,-129 855,-129 855,-147.5"/>
<text text-anchor="middle" x="800.5" y="-134" font-family="Helvetica,sans-Serif" font-size="10.00">async_condition_lock</text>
</a>
</g>
</g>
<!-- Node5&#45;&gt;Node6 -->
<g id="edge7_Node000005_Node000006" class="edge">
<title>Node5&#45;&gt;Node6</title>
<g id="a_edge7_Node000005_Node000006"><a xlink:title=" ">
<path fill="none" stroke="#63b8ff" d="M689.37,-110.97C707.65,-115.5 729.62,-120.94 749.11,-125.77"/>
<polygon fill="#63b8ff" stroke="#63b8ff" points="748.24,-129.16 758.79,-128.17 749.92,-122.36 748.24,-129.16"/>
</a>
</g>
</g>
<!-- Node8 -->
<g id="Node000008" class="node">
<title>Node8</title>
<g id="a_Node000008"><a xlink:href="a02364.html#a45a896fb606c2aa66a5a4c2af59ce494" target="_top" xlink:title=" ">
<polygon fill="white" stroke="#666666" points="858,-110.5 743,-110.5 743,-92 858,-92 858,-110.5"/>
<text text-anchor="middle" x="800.5" y="-97" font-family="Helvetica,sans-Serif" font-size="10.00">async_condition_notify</text>
</a>
</g>
</g>
<!-- Node5&#45;&gt;Node8 -->
<g id="edge9_Node000005_Node000008" class="edge">
<title>Node5&#45;&gt;Node8</title>
<g id="a_edge9_Node000005_Node000008"><a xlink:title=" ">
<path fill="none" stroke="#63b8ff" d="M704.9,-101.25C713.47,-101.25 722.41,-101.25 731.24,-101.25"/>
<polygon fill="#63b8ff" stroke="#63b8ff" points="731.21,-104.75 741.21,-101.25 731.21,-97.75 731.21,-104.75"/>
</a>
</g>
</g>
<!-- Node10 -->
<g id="Node000010" class="node">
<title>Node10</title>
<g id="a_Node000010"><a xlink:href="a02364.html#a3bbcb7c4c024e99d5c4ba52b61dfbbf7" target="_top" xlink:title=" ">
<polygon fill="white" stroke="#666666" points="860.25,-73.5 740.75,-73.5 740.75,-55 860.25,-55 860.25,-73.5"/>
<text text-anchor="middle" x="800.5" y="-60" font-family="Helvetica,sans-Serif" font-size="10.00">async_condition_unlock</text>
</a>
</g>
</g>
<!-- Node5&#45;&gt;Node10 -->
<g id="edge11_Node000005_Node000010" class="edge">
<title>Node5&#45;&gt;Node10</title>
<g id="a_edge11_Node000005_Node000010"><a xlink:title=" ">
<path fill="none" stroke="#63b8ff" d="M689.37,-91.53C707.65,-87 729.62,-81.56 749.11,-76.73"/>
<polygon fill="#63b8ff" stroke="#63b8ff" points="749.92,-80.14 758.79,-74.33 748.24,-73.34 749.92,-80.14"/>
</a>
</g>
</g>
<!-- Node7 -->
<g id="Node000007" class="node">
<title>Node7</title>
<g id="a_Node000007"><a xlink:href="a02358.html#aebf9e72bb6cbd8b9e33489d46c25075d" target="_top" xlink:title=" ">
<polygon fill="white" stroke="#666666" points="1024,-147.5 907.5,-147.5 907.5,-129 1024,-129 1024,-147.5"/>
<text text-anchor="middle" x="965.75" y="-134" font-family="Helvetica,sans-Serif" font-size="10.00">async_completion_wait</text>
</a>
</g>
</g>
<!-- Node6&#45;&gt;Node7 -->
<g id="edge8_Node000006_Node000007" class="edge">
<title>Node6&#45;&gt;Node7</title>
<g id="a_edge8_Node000006_Node000007"><a xlink:title=" ">
<path fill="none" stroke="#63b8ff" d="M855.41,-138.25C868.39,-138.25 882.44,-138.25 896.01,-138.25"/>
<polygon fill="#63b8ff" stroke="#63b8ff" points="895.74,-141.75 905.74,-138.25 895.74,-134.75 895.74,-141.75"/>
</a>
</g>
</g>
<!-- Node9 -->
<g id="Node000009" class="node">
<title>Node9</title>
<g id="a_Node000009"><a xlink:href="a02358.html#a0fa370eee5160963e617d1daf1c07363" target="_top" xlink:title=" ">
<polygon fill="white" stroke="#666666" points="1022.12,-110.5 909.38,-110.5 909.38,-92 1022.12,-92 1022.12,-110.5"/>
<text text-anchor="middle" x="965.75" y="-97" font-family="Helvetica,sans-Serif" font-size="10.00">async_semaphore_inc</text>
</a>
</g>
</g>
<!-- Node8&#45;&gt;Node9 -->
<g id="edge10_Node000008_Node000009" class="edge">
<title>Node8&#45;&gt;Node9</title>
<g id="a_edge10_Node000008_Node000009"><a xlink:title=" ">
<path fill="none" stroke="#63b8ff" d="M858.14,-101.25C870.89,-101.25 884.54,-101.25 897.67,-101.25"/>
<polygon fill="#63b8ff" stroke="#63b8ff" points="897.53,-104.75 907.53,-101.25 897.52,-97.75 897.53,-104.75"/>
</a>
</g>
</g>
<!-- Node11 -->
<g id="Node000011" class="node">
<title>Node11</title>
<g id="a_Node000011"><a xlink:href="a02358.html#ad1d30ecbf6bff6457b680aa940281072" target="_top" xlink:title=" ">
<polygon fill="white" stroke="#666666" points="1035.25,-73.5 896.25,-73.5 896.25,-55 1035.25,-55 1035.25,-73.5"/>
<text text-anchor="middle" x="965.75" y="-60" font-family="Helvetica,sans-Serif" font-size="10.00">async_completion_complete</text>
</a>
</g>
</g>
<!-- Node10&#45;&gt;Node11 -->
<g id="edge12_Node000010_Node000011" class="edge">
<title>Node10&#45;&gt;Node11</title>
<g id="a_edge12_Node000010_Node000011"><a xlink:title=" ">
<path fill="none" stroke="#63b8ff" d="M860.44,-64.25C868.26,-64.25 876.38,-64.25 884.49,-64.25"/>
<polygon fill="#63b8ff" stroke="#63b8ff" points="884.39,-67.75 894.39,-64.25 884.39,-60.75 884.39,-67.75"/>
</a>
</g>
</g>
</g>
</svg>
