<?xml version="1.0" encoding="UTF-8" standalone="no"?>
<!DOCTYPE svg PUBLIC "-//W3C//DTD SVG 1.1//EN"
 "http://www.w3.org/Graphics/SVG/1.1/DTD/svg11.dtd">
<!-- Generated by graphviz version 12.2.1 (0)
 -->
<!-- Title: arax_data.h Pages: 1 -->
<svg width="371pt" height="136pt"
 viewBox="0.00 0.00 371.00 135.50" xmlns="http://www.w3.org/2000/svg" xmlns:xlink="http://www.w3.org/1999/xlink">
<g id="graph0" class="graph" transform="scale(1 1) rotate(0) translate(4 131.5)">
<title>arax_data.h</title>
<!-- Node1 -->
<g id="Node000001" class="node">
<title>Node1</title>
<g id="a_Node000001"><a xlink:title=" ">
<polygon fill="#999999" stroke="#666666" points="213.75,-127.5 146,-127.5 146,-109 213.75,-109 213.75,-127.5"/>
<text text-anchor="middle" x="179.88" y="-114" font-family="Helvetica,sans-Serif" font-size="10.00">arax_data.h</text>
</a>
</g>
</g>
<!-- Node2 -->
<g id="Node000002" class="node">
<title>Node2</title>
<g id="a_Node000002"><a xlink:href="a01922.html" target="_top" xlink:title=" ">
<polygon fill="white" stroke="#666666" points="67.75,-18.5 0,-18.5 0,0 67.75,0 67.75,-18.5"/>
<text text-anchor="middle" x="33.88" y="-5" font-family="Helvetica,sans-Serif" font-size="10.00">arax_data.c</text>
</a>
</g>
</g>
<!-- Node1&#45;&gt;Node2 -->
<g id="edge1_Node000001_Node000002" class="edge">
<title>Node1&#45;&gt;Node2</title>
<g id="a_edge1_Node000001_Node000002"><a xlink:title=" ">
<path fill="none" stroke="#63b8ff" d="M134.39,-111.37C90.47,-104.65 28.51,-92.05 13.88,-73 1.2,-56.5 16.65,-31.74 26.65,-18.81"/>
<polygon fill="#63b8ff" stroke="#63b8ff" points="133.79,-114.82 144.19,-112.81 134.8,-107.89 133.79,-114.82"/>
</a>
</g>
</g>
<!-- Node3 -->
<g id="Node000003" class="node">
<title>Node3</title>
<g id="a_Node000003"><a xlink:href="a01412.html" target="_top" xlink:title=" ">
<polygon fill="white" stroke="#666666" points="124.62,-73 23.12,-73 23.12,-54.5 124.62,-54.5 124.62,-73"/>
<text text-anchor="middle" x="73.88" y="-59.5" font-family="Helvetica,sans-Serif" font-size="10.00">arax_data_private.h</text>
</a>
</g>
</g>
<!-- Node1&#45;&gt;Node3 -->
<g id="edge2_Node000001_Node000003" class="edge">
<title>Node1&#45;&gt;Node3</title>
<g id="a_edge2_Node000001_Node000003"><a xlink:title=" ">
<path fill="none" stroke="#63b8ff" d="M152.11,-103.5C132.89,-93.98 107.91,-81.61 91.4,-73.43"/>
<polygon fill="#63b8ff" stroke="#63b8ff" points="150.5,-106.61 161.01,-107.91 153.61,-100.33 150.5,-106.61"/>
</a>
</g>
</g>
<!-- Node4 -->
<g id="Node000004" class="node">
<title>Node4</title>
<g id="a_Node000004"><a xlink:href="a01925.html" target="_top" xlink:title=" ">
<polygon fill="white" stroke="#666666" points="217.12,-73 142.62,-73 142.62,-54.5 217.12,-54.5 217.12,-73"/>
<text text-anchor="middle" x="179.88" y="-59.5" font-family="Helvetica,sans-Serif" font-size="10.00">arax_object.c</text>
</a>
</g>
</g>
<!-- Node1&#45;&gt;Node4 -->
<g id="edge4_Node000001_Node000004" class="edge">
<title>Node1&#45;&gt;Node4</title>
<g id="a_edge4_Node000001_Node000004"><a xlink:title=" ">
<path fill="none" stroke="#63b8ff" d="M179.88,-97.14C179.88,-88.86 179.88,-79.71 179.88,-73.26"/>
<polygon fill="#63b8ff" stroke="#63b8ff" points="176.38,-97.07 179.88,-107.07 183.38,-97.07 176.38,-97.07"/>
</a>
</g>
</g>
<!-- Node5 -->
<g id="Node000005" class="node">
<title>Node5</title>
<g id="a_Node000005"><a xlink:href="a01937.html" target="_top" xlink:title=" ">
<polygon fill="white" stroke="#666666" points="302.75,-73 235,-73 235,-54.5 302.75,-54.5 302.75,-73"/>
<text text-anchor="middle" x="268.88" y="-59.5" font-family="Helvetica,sans-Serif" font-size="10.00">arax_task.c</text>
</a>
</g>
</g>
<!-- Node1&#45;&gt;Node5 -->
<g id="edge5_Node000001_Node000005" class="edge">
<title>Node1&#45;&gt;Node5</title>
<g id="a_edge5_Node000001_Node000005"><a xlink:title=" ">
<path fill="none" stroke="#63b8ff" d="M204.32,-102.83C220.29,-93.41 240.62,-81.42 254.16,-73.43"/>
<polygon fill="#63b8ff" stroke="#63b8ff" points="202.71,-99.72 195.88,-107.81 206.27,-105.75 202.71,-99.72"/>
</a>
</g>
</g>
<!-- Node6 -->
<g id="Node000006" class="node">
<title>Node6</title>
<g id="a_Node000006"><a xlink:href="a01910.html" target="_top" xlink:title=" ">
<polygon fill="white" stroke="#666666" points="363,-73 320.75,-73 320.75,-54.5 363,-54.5 363,-73"/>
<text text-anchor="middle" x="341.88" y="-59.5" font-family="Helvetica,sans-Serif" font-size="10.00">impl.c</text>
</a>
</g>
</g>
<!-- Node1&#45;&gt;Node6 -->
<g id="edge6_Node000001_Node000006" class="edge">
<title>Node1&#45;&gt;Node6</title>
<g id="a_edge6_Node000001_Node000006"><a xlink:title=" ">
<path fill="none" stroke="#63b8ff" d="M217.33,-105.11C249.25,-94.77 294.01,-80.26 320.27,-71.75"/>
<polygon fill="#63b8ff" stroke="#63b8ff" points="216.5,-101.7 208.07,-108.11 218.66,-108.36 216.5,-101.7"/>
</a>
</g>
</g>
<!-- Node3&#45;&gt;Node2 -->
<g id="edge3_Node000003_Node000002" class="edge">
<title>Node3&#45;&gt;Node2</title>
<g id="a_edge3_Node000003_Node000002"><a xlink:title=" ">
<path fill="none" stroke="#63b8ff" d="M60.31,-44.95C53.57,-36.1 45.74,-25.82 40.36,-18.76"/>
<polygon fill="#63b8ff" stroke="#63b8ff" points="57.51,-47.04 66.35,-52.88 63.08,-42.8 57.51,-47.04"/>
</a>
</g>
</g>
</g>
</svg>
