<?xml version="1.0" encoding="UTF-8" standalone="no"?>
<!DOCTYPE svg PUBLIC "-//W3C//DTD SVG 1.1//EN"
 "http://www.w3.org/Graphics/SVG/1.1/DTD/svg11.dtd">
<!-- Generated by graphviz version 8.0.5 (0)
 -->
<!-- Title: arax_vaccel_init Pages: 1 -->
<svg width="886pt" height="414pt"
 viewBox="0.00 0.00 886.25 413.50" xmlns="http://www.w3.org/2000/svg" xmlns:xlink="http://www.w3.org/1999/xlink">
<g id="graph0" class="graph" transform="scale(1 1) rotate(0) translate(4 409.5)">
<title>arax_vaccel_init</title>
<!-- Node1 -->
<g id="Node000001" class="node">
<title>Node1</title>
<g id="a_Node000001"><a xlink:title=" ">
<polygon fill="#999999" stroke="#666666" points="86.5,-92.5 0,-92.5 0,-74 86.5,-74 86.5,-92.5"/>
<text text-anchor="middle" x="43.25" y="-79" font-family="Helvetica,sans-Serif" font-size="10.00">arax_vaccel_init</text>
</a>
</g>
</g>
<!-- Node2 -->
<g id="Node000002" class="node">
<title>Node2</title>
<g id="a_Node000002"><a xlink:href="a01904.html#af0b933c02a24d69c1efa40179f60288f" target="_top" xlink:title=" ">
<polygon fill="white" stroke="#666666" points="381,-264.5 263,-264.5 263,-246 381,-246 381,-264.5"/>
<text text-anchor="middle" x="322" y="-251" font-family="Helvetica,sans-Serif" font-size="10.00">arax_accel_add_vaccel</text>
</a>
</g>
</g>
<!-- Node1&#45;&gt;Node2 -->
<g id="edge1_Node000001_Node000002" class="edge">
<title>Node1&#45;&gt;Node2</title>
<g id="a_edge1_Node000001_Node000002"><a xlink:title=" ">
<path fill="none" stroke="#63b8ff" d="M58.27,-92.83C73.83,-103.4 99.77,-120.84 122.5,-135.25 183.69,-174.05 256.92,-217.59 295.04,-240.04"/>
<polygon fill="#63b8ff" stroke="#63b8ff" points="292.99,-243.48 303.38,-245.53 296.54,-237.44 292.99,-243.48"/>
</a>
</g>
</g>
<!-- Node18 -->
<g id="Node000018" class="node">
<title>Node18</title>
<g id="a_Node000018"><a xlink:href="a01910.html#a402bbd6fa197c2c48d527325e5e2cf5b" target="_top" xlink:title=" ">
<polygon fill="white" stroke="#666666" points="227,-92.5 122.5,-92.5 122.5,-74 227,-74 227,-92.5"/>
<text text-anchor="middle" x="174.75" y="-79" font-family="Helvetica,sans-Serif" font-size="10.00">arax_object_register</text>
</a>
</g>
</g>
<!-- Node1&#45;&gt;Node18 -->
<g id="edge19_Node000001_Node000018" class="edge">
<title>Node1&#45;&gt;Node18</title>
<g id="a_edge19_Node000001_Node000018"><a xlink:title=" ">
<path fill="none" stroke="#63b8ff" d="M86.65,-83.25C94.55,-83.25 102.96,-83.25 111.31,-83.25"/>
<polygon fill="#63b8ff" stroke="#63b8ff" points="111.21,-86.75 121.21,-83.25 111.21,-79.75 111.21,-86.75"/>
</a>
</g>
</g>
<!-- Node24 -->
<g id="Node000024" class="node">
<title>Node24</title>
<g id="a_Node000024"><a xlink:href="a01946.html#a63f2791c9b5c8e2fa15967cfafb7ccbb" target="_top" xlink:title=" ">
<polygon fill="white" stroke="#666666" points="370.12,-18.5 273.88,-18.5 273.88,0 370.12,0 370.12,-18.5"/>
<text text-anchor="middle" x="322" y="-5" font-family="Helvetica,sans-Serif" font-size="10.00">utils_list_node_init</text>
</a>
</g>
</g>
<!-- Node1&#45;&gt;Node24 -->
<g id="edge36_Node000001_Node000024" class="edge">
<title>Node1&#45;&gt;Node24</title>
<g id="a_edge36_Node000001_Node000024"><a xlink:title=" ">
<path fill="none" stroke="#63b8ff" d="M80.43,-73.58C130.15,-60.28 219.66,-36.35 274.36,-21.72"/>
<polygon fill="#63b8ff" stroke="#63b8ff" points="275.05,-24.89 283.81,-18.93 273.25,-18.13 275.05,-24.89"/>
</a>
</g>
</g>
<!-- Node25 -->
<g id="Node000025" class="node">
<title>Node25</title>
<g id="a_Node000025"><a xlink:href="a01913.html#aa4461ab1d225a0f76f08d2f37a4a7e0e" target="_top" xlink:title=" ">
<polygon fill="white" stroke="#666666" points="379.5,-176.75 264.5,-176.75 264.5,-147.75 379.5,-147.75 379.5,-176.75"/>
<text text-anchor="start" x="272.5" y="-163.25" font-family="Helvetica,sans-Serif" font-size="10.00">arax_pipe_add_orphan</text>
<text text-anchor="middle" x="322" y="-152.75" font-family="Helvetica,sans-Serif" font-size="10.00">_vaccel</text>
</a>
</g>
</g>
<!-- Node1&#45;&gt;Node25 -->
<g id="edge31_Node000001_Node000025" class="edge">
<title>Node1&#45;&gt;Node25</title>
<g id="a_edge31_Node000001_Node000025"><a xlink:title=" ">
<path fill="none" stroke="#63b8ff" d="M78.18,-92.94C122.86,-105.69 202.27,-128.36 258.09,-144.29"/>
<polygon fill="#63b8ff" stroke="#63b8ff" points="256.99,-147.9 267.57,-147.28 258.91,-141.17 256.99,-147.9"/>
</a>
</g>
</g>
<!-- Node26 -->
<g id="Node000026" class="node">
<title>Node26</title>
<g id="a_Node000026"><a xlink:href="a01949.html#a49c353188156b1df4463a5fc7f7bc25e" target="_top" xlink:title=" ">
<polygon fill="white" stroke="#666666" points="216.5,-18.5 133,-18.5 133,0 216.5,0 216.5,-18.5"/>
<text text-anchor="middle" x="174.75" y="-5" font-family="Helvetica,sans-Serif" font-size="10.00">utils_queue_init</text>
</a>
</g>
</g>
<!-- Node1&#45;&gt;Node26 -->
<g id="edge37_Node000001_Node000026" class="edge">
<title>Node1&#45;&gt;Node26</title>
<g id="a_edge37_Node000001_Node000026"><a xlink:title=" ">
<path fill="none" stroke="#63b8ff" d="M57.7,-73.55C72.99,-62.76 98.87,-45.15 122.5,-32.25 128.15,-29.17 134.29,-26.14 140.29,-23.36"/>
<polygon fill="#63b8ff" stroke="#63b8ff" points="141.48,-26.21 149.16,-18.92 138.61,-19.83 141.48,-26.21"/>
</a>
</g>
</g>
<!-- Node3 -->
<g id="Node000003" class="node">
<title>Node3</title>
<g id="a_Node000003"><a xlink:href="a01904.html#aed864d2fab73a39a8c98356f7bca1304" target="_top" xlink:title=" ">
<polygon fill="white" stroke="#666666" points="542.88,-405.5 421.88,-405.5 421.88,-387 542.88,-387 542.88,-405.5"/>
<text text-anchor="middle" x="482.38" y="-392" font-family="Helvetica,sans-Serif" font-size="10.00">arax_accel_inc_revision</text>
</a>
</g>
</g>
<!-- Node2&#45;&gt;Node3 -->
<g id="edge2_Node000002_Node000003" class="edge">
<title>Node2&#45;&gt;Node3</title>
<g id="a_edge2_Node000002_Node000003"><a xlink:title=" ">
<path fill="none" stroke="#63b8ff" d="M327.66,-264.83C339.35,-287.83 372.22,-346.57 417,-377.25 419.7,-379.1 422.58,-380.77 425.58,-382.29"/>
<polygon fill="#63b8ff" stroke="#63b8ff" points="423.86,-385.79 434.42,-386.59 426.66,-379.38 423.86,-385.79"/>
</a>
</g>
</g>
<!-- Node4 -->
<g id="Node000004" class="node">
<title>Node4</title>
<g id="a_Node000004"><a xlink:href="a01913.html#aa5172b735dddd3f77fbb0265bbcdfc20" target="_top" xlink:title=" ">
<polygon fill="white" stroke="#666666" points="547.75,-331.75 417,-331.75 417,-302.75 547.75,-302.75 547.75,-331.75"/>
<text text-anchor="start" x="425" y="-318.25" font-family="Helvetica,sans-Serif" font-size="10.00">arax_pipe_remove_orphan</text>
<text text-anchor="middle" x="482.38" y="-307.75" font-family="Helvetica,sans-Serif" font-size="10.00">_vaccel</text>
</a>
</g>
</g>
<!-- Node2&#45;&gt;Node4 -->
<g id="edge3_Node000002_Node000004" class="edge">
<title>Node2&#45;&gt;Node4</title>
<g id="a_edge3_Node000002_Node000004"><a xlink:title=" ">
<path fill="none" stroke="#63b8ff" d="M347.75,-264.94C370.53,-273.86 404.96,-287.33 433.16,-298.38"/>
<polygon fill="#63b8ff" stroke="#63b8ff" points="431.65,-301.93 442.24,-302.32 434.2,-295.42 431.65,-301.93"/>
</a>
</g>
</g>
<!-- Node5 -->
<g id="Node000005" class="node">
<title>Node5</title>
<g id="a_Node000005"><a xlink:href="a02352.html#aed6af4d83e934e3e654ead541b15f2d9" target="_top" xlink:title=" ">
<polygon fill="white" stroke="#666666" points="698,-171.5 589,-171.5 589,-153 698,-153 698,-171.5"/>
<text text-anchor="middle" x="643.5" y="-158" font-family="Helvetica,sans-Serif" font-size="10.00">async_condition_lock</text>
</a>
</g>
</g>
<!-- Node2&#45;&gt;Node5 -->
<g id="edge13_Node000002_Node000005" class="edge">
<title>Node2&#45;&gt;Node5</title>
<g id="a_edge13_Node000002_Node000005"><a xlink:title=" ">
<path fill="none" stroke="#63b8ff" d="M367.6,-264.96C414.4,-272.97 489.17,-279.51 547.75,-255.25 568.66,-246.59 567.63,-235.13 583.75,-219.25 597.44,-205.77 613.05,-190.63 624.74,-179.34"/>
<polygon fill="#63b8ff" stroke="#63b8ff" points="626.71,-182.35 631.48,-172.89 621.85,-177.31 626.71,-182.35"/>
</a>
</g>
</g>
<!-- Node7 -->
<g id="Node000007" class="node">
<title>Node7</title>
<g id="a_Node000007"><a xlink:href="a02352.html#a3bbcb7c4c024e99d5c4ba52b61dfbbf7" target="_top" xlink:title=" ">
<polygon fill="white" stroke="#666666" points="703.25,-134.5 583.75,-134.5 583.75,-116 703.25,-116 703.25,-134.5"/>
<text text-anchor="middle" x="643.5" y="-121" font-family="Helvetica,sans-Serif" font-size="10.00">async_condition_unlock</text>
</a>
</g>
</g>
<!-- Node2&#45;&gt;Node7 -->
<g id="edge16_Node000002_Node000007" class="edge">
<title>Node2&#45;&gt;Node7</title>
<g id="a_edge16_Node000002_Node000007"><a xlink:title=" ">
<path fill="none" stroke="#63b8ff" d="M345.36,-245.67C406.33,-219.55 571.74,-148.74 583.75,-144.25 589.15,-142.23 594.87,-140.23 600.54,-138.31"/>
<polygon fill="#63b8ff" stroke="#63b8ff" points="601.21,-141.45 609.61,-134.99 599.02,-134.8 601.21,-141.45"/>
</a>
</g>
</g>
<!-- Node11 -->
<g id="Node000011" class="node">
<title>Node11</title>
<g id="a_Node000011"><a xlink:href="a01928.html#ab2fa3d6e6c761009b464cc0fbedc6a16" target="_top" xlink:title=" ">
<polygon fill="white" stroke="#666666" points="543.62,-368.5 421.12,-368.5 421.12,-350 543.62,-350 543.62,-368.5"/>
<text text-anchor="middle" x="482.38" y="-355" font-family="Helvetica,sans-Serif" font-size="10.00">arax_vaccel_queue_size</text>
</a>
</g>
</g>
<!-- Node2&#45;&gt;Node11 -->
<g id="edge10_Node000002_Node000011" class="edge">
<title>Node2&#45;&gt;Node11</title>
<g id="a_edge10_Node000002_Node000011"><a xlink:title=" ">
<path fill="none" stroke="#63b8ff" d="M330.73,-264.82C345.56,-282.57 379.87,-320.64 417,-341.25 419.9,-342.86 422.95,-344.33 426.09,-345.68"/>
<polygon fill="#63b8ff" stroke="#63b8ff" points="424.73,-349.29 435.32,-349.58 427.22,-342.75 424.73,-349.29"/>
</a>
</g>
</g>
<!-- Node14 -->
<g id="Node000014" class="node">
<title>Node14</title>
<g id="a_Node000014"><a xlink:href="a02352.html#a45a896fb606c2aa66a5a4c2af59ce494" target="_top" xlink:title=" ">
<polygon fill="white" stroke="#666666" points="539.88,-246.5 424.88,-246.5 424.88,-228 539.88,-228 539.88,-246.5"/>
<text text-anchor="middle" x="482.38" y="-233" font-family="Helvetica,sans-Serif" font-size="10.00">async_condition_notify</text>
</a>
</g>
</g>
<!-- Node2&#45;&gt;Node14 -->
<g id="edge14_Node000002_Node000014" class="edge">
<title>Node2&#45;&gt;Node14</title>
<g id="a_edge14_Node000002_Node000014"><a xlink:title=" ">
<path fill="none" stroke="#63b8ff" d="M381.07,-248.65C391.73,-247.44 402.94,-246.16 413.85,-244.92"/>
<polygon fill="#63b8ff" stroke="#63b8ff" points="414.09,-248.31 423.63,-243.7 413.3,-241.35 414.09,-248.31"/>
</a>
</g>
</g>
<!-- Node16 -->
<g id="Node000016" class="node">
<title>Node16</title>
<g id="a_Node000016"><a xlink:href="a01946.html#ae06a9e78e6a4f6c9c8afcf0f4862ce29" target="_top" xlink:title=" ">
<polygon fill="white" stroke="#666666" points="518.88,-59.5 445.88,-59.5 445.88,-41 518.88,-41 518.88,-59.5"/>
<text text-anchor="middle" x="482.38" y="-46" font-family="Helvetica,sans-Serif" font-size="10.00">utils_list_add</text>
</a>
</g>
</g>
<!-- Node2&#45;&gt;Node16 -->
<g id="edge17_Node000002_Node000016" class="edge">
<title>Node2&#45;&gt;Node16</title>
<g id="a_edge17_Node000002_Node000016"><a xlink:title=" ">
<path fill="none" stroke="#63b8ff" d="M333.01,-245.74C345.83,-233.06 367.92,-209.4 381,-185.25 406.71,-137.78 378.56,-107.15 417,-69.25 422.18,-64.14 428.67,-60.39 435.52,-57.64"/>
<polygon fill="#63b8ff" stroke="#63b8ff" points="436.29,-60.74 444.7,-54.29 434.11,-54.09 436.29,-60.74"/>
</a>
</g>
</g>
<!-- Node4&#45;&gt;Node5 -->
<g id="edge4_Node000004_Node000005" class="edge">
<title>Node4&#45;&gt;Node5</title>
<g id="a_edge4_Node000004_Node000005"><a xlink:title=" ">
<path fill="none" stroke="#63b8ff" d="M527.06,-302.39C534.52,-298.56 541.78,-293.89 547.75,-288.25 572.9,-264.51 563.07,-246.98 583.75,-219.25 594.96,-204.21 610.23,-189.53 622.39,-178.84"/>
<polygon fill="#63b8ff" stroke="#63b8ff" points="624.27,-180.97 629.59,-171.8 619.72,-175.66 624.27,-180.97"/>
</a>
</g>
</g>
<!-- Node4&#45;&gt;Node7 -->
<g id="edge6_Node000004_Node000007" class="edge">
<title>Node4&#45;&gt;Node7</title>
<g id="a_edge6_Node000004_Node000007"><a xlink:title=" ">
<path fill="none" stroke="#63b8ff" d="M503.35,-302.43C517.54,-290.96 536.07,-273.93 547.75,-255.25 575.25,-211.28 547.06,-180.91 583.75,-144.25 585.05,-142.95 586.45,-141.73 587.91,-140.6"/>
<polygon fill="#63b8ff" stroke="#63b8ff" points="589.3,-143.24 595.96,-135 585.62,-137.29 589.3,-143.24"/>
</a>
</g>
</g>
<!-- Node9 -->
<g id="Node000009" class="node">
<title>Node9</title>
<g id="a_Node000009"><a xlink:href="a01946.html#a0c85e5516222ab7e7fc354c614760ec5" target="_top" xlink:title=" ">
<polygon fill="white" stroke="#666666" points="678.5,-290.5 608.5,-290.5 608.5,-272 678.5,-272 678.5,-290.5"/>
<text text-anchor="middle" x="643.5" y="-277" font-family="Helvetica,sans-Serif" font-size="10.00">utils_list_del</text>
</a>
</g>
</g>
<!-- Node4&#45;&gt;Node9 -->
<g id="edge8_Node000004_Node000009" class="edge">
<title>Node4&#45;&gt;Node9</title>
<g id="a_edge8_Node000004_Node000009"><a xlink:title=" ">
<path fill="none" stroke="#63b8ff" d="M548.1,-302.61C564.88,-298.81 582.57,-294.81 598.04,-291.31"/>
<polygon fill="#63b8ff" stroke="#63b8ff" points="598.38,-294.59 607.36,-288.97 596.84,-287.77 598.38,-294.59"/>
</a>
</g>
</g>
<!-- Node10 -->
<g id="Node000010" class="node">
<title>Node10</title>
<g id="a_Node000010"><a xlink:href="a01946.html#ab0c44e095ebfd8721de878c42abcbbdc" target="_top" xlink:title=" ">
<polygon fill="white" stroke="#666666" points="697.62,-327.5 589.38,-327.5 589.38,-309 697.62,-309 697.62,-327.5"/>
<text text-anchor="middle" x="643.5" y="-314" font-family="Helvetica,sans-Serif" font-size="10.00">utils_list_node_linked</text>
</a>
</g>
</g>
<!-- Node4&#45;&gt;Node10 -->
<g id="edge9_Node000004_Node000010" class="edge">
<title>Node4&#45;&gt;Node10</title>
<g id="a_edge9_Node000004_Node000010"><a xlink:title=" ">
<path fill="none" stroke="#63b8ff" d="M548.1,-317.66C557.97,-317.72 568.17,-317.78 578.04,-317.84"/>
<polygon fill="#63b8ff" stroke="#63b8ff" points="577.99,-321.35 588.02,-317.91 578.04,-314.35 577.99,-321.35"/>
</a>
</g>
</g>
<!-- Node6 -->
<g id="Node000006" class="node">
<title>Node6</title>
<g id="a_Node000006"><a xlink:href="a02346.html#aebf9e72bb6cbd8b9e33489d46c25075d" target="_top" xlink:title=" ">
<polygon fill="white" stroke="#666666" points="867,-171.5 750.5,-171.5 750.5,-153 867,-153 867,-171.5"/>
<text text-anchor="middle" x="808.75" y="-158" font-family="Helvetica,sans-Serif" font-size="10.00">async_completion_wait</text>
</a>
</g>
</g>
<!-- Node5&#45;&gt;Node6 -->
<g id="edge5_Node000005_Node000006" class="edge">
<title>Node5&#45;&gt;Node6</title>
<g id="a_edge5_Node000005_Node000006"><a xlink:title=" ">
<path fill="none" stroke="#63b8ff" d="M698.41,-162.25C711.52,-162.25 725.73,-162.25 739.41,-162.25"/>
<polygon fill="#63b8ff" stroke="#63b8ff" points="739.25,-165.75 749.25,-162.25 739.25,-158.75 739.25,-165.75"/>
</a>
</g>
</g>
<!-- Node8 -->
<g id="Node000008" class="node">
<title>Node8</title>
<g id="a_Node000008"><a xlink:href="a02346.html#ad1d30ecbf6bff6457b680aa940281072" target="_top" xlink:title=" ">
<polygon fill="white" stroke="#666666" points="878.25,-134.5 739.25,-134.5 739.25,-116 878.25,-116 878.25,-134.5"/>
<text text-anchor="middle" x="808.75" y="-121" font-family="Helvetica,sans-Serif" font-size="10.00">async_completion_complete</text>
</a>
</g>
</g>
<!-- Node7&#45;&gt;Node8 -->
<g id="edge7_Node000007_Node000008" class="edge">
<title>Node7&#45;&gt;Node8</title>
<g id="a_edge7_Node000007_Node000008"><a xlink:title=" ">
<path fill="none" stroke="#63b8ff" d="M703.44,-125.25C711.44,-125.25 719.76,-125.25 728.05,-125.25"/>
<polygon fill="#63b8ff" stroke="#63b8ff" points="727.9,-128.75 737.9,-125.25 727.9,-121.75 727.9,-128.75"/>
</a>
</g>
</g>
<!-- Node12 -->
<g id="Node000012" class="node">
<title>Node12</title>
<g id="a_Node000012"><a xlink:href="a01928.html#afe1eb3edd264c847c36e9456b2598452" target="_top" xlink:title=" ">
<polygon fill="white" stroke="#666666" points="693.5,-366.5 593.5,-366.5 593.5,-348 693.5,-348 693.5,-366.5"/>
<text text-anchor="middle" x="643.5" y="-353" font-family="Helvetica,sans-Serif" font-size="10.00">arax_vaccel_queue</text>
</a>
</g>
</g>
<!-- Node11&#45;&gt;Node12 -->
<g id="edge11_Node000011_Node000012" class="edge">
<title>Node11&#45;&gt;Node12</title>
<g id="a_edge11_Node000011_Node000012"><a xlink:title=" ">
<path fill="none" stroke="#63b8ff" d="M543.99,-358.49C556.55,-358.33 569.79,-358.16 582.34,-358.01"/>
<polygon fill="#63b8ff" stroke="#63b8ff" points="582.21,-361.5 592.16,-357.87 582.12,-354.5 582.21,-361.5"/>
</a>
</g>
</g>
<!-- Node13 -->
<g id="Node000013" class="node">
<title>Node13</title>
<g id="a_Node000013"><a xlink:href="a01949.html#a5d84d59bded666fdcf1a8e949cb56a6a" target="_top" xlink:title=" ">
<polygon fill="white" stroke="#666666" points="702.5,-403.5 584.5,-403.5 584.5,-385 702.5,-385 702.5,-403.5"/>
<text text-anchor="middle" x="643.5" y="-390" font-family="Helvetica,sans-Serif" font-size="10.00">utils_queue_used_slots</text>
</a>
</g>
</g>
<!-- Node11&#45;&gt;Node13 -->
<g id="edge12_Node000011_Node000013" class="edge">
<title>Node11&#45;&gt;Node13</title>
<g id="a_edge12_Node000011_Node000013"><a xlink:title=" ">
<path fill="none" stroke="#63b8ff" d="M527.7,-369C546.32,-373.1 568.17,-377.9 587.78,-382.21"/>
<polygon fill="#63b8ff" stroke="#63b8ff" points="586.89,-385.82 597.41,-384.55 588.4,-378.99 586.89,-385.82"/>
</a>
</g>
</g>
<!-- Node15 -->
<g id="Node000015" class="node">
<title>Node15</title>
<g id="a_Node000015"><a xlink:href="a02346.html#a0fa370eee5160963e617d1daf1c07363" target="_top" xlink:title=" ">
<polygon fill="white" stroke="#666666" points="699.88,-246.5 587.12,-246.5 587.12,-228 699.88,-228 699.88,-246.5"/>
<text text-anchor="middle" x="643.5" y="-233" font-family="Helvetica,sans-Serif" font-size="10.00">async_semaphore_inc</text>
</a>
</g>
</g>
<!-- Node14&#45;&gt;Node15 -->
<g id="edge15_Node000014_Node000015" class="edge">
<title>Node14&#45;&gt;Node15</title>
<g id="a_edge15_Node000014_Node000015"><a xlink:title=" ">
<path fill="none" stroke="#63b8ff" d="M540.37,-237.25C551.91,-237.25 564.14,-237.25 575.97,-237.25"/>
<polygon fill="#63b8ff" stroke="#63b8ff" points="575.7,-240.75 585.7,-237.25 575.7,-233.75 575.7,-240.75"/>
</a>
</g>
</g>
<!-- Node17 -->
<g id="Node000017" class="node">
<title>Node17</title>
<g id="a_Node000017"><a xlink:href="a01946.html#a5c575f52a42e0e0d2fb41bda2d1268ce" target="_top" xlink:title=" ">
<polygon fill="white" stroke="#666666" points="693.12,-59.5 593.88,-59.5 593.88,-41 693.12,-41 693.12,-59.5"/>
<text text-anchor="middle" x="643.5" y="-46" font-family="Helvetica,sans-Serif" font-size="10.00">utils_list_node_add</text>
</a>
</g>
</g>
<!-- Node16&#45;&gt;Node17 -->
<g id="edge18_Node000016_Node000017" class="edge">
<title>Node16&#45;&gt;Node17</title>
<g id="a_edge18_Node000016_Node000017"><a xlink:title=" ">
<path fill="none" stroke="#63b8ff" d="M519.09,-50.25C537.81,-50.25 561.25,-50.25 582.66,-50.25"/>
<polygon fill="#63b8ff" stroke="#63b8ff" points="582.64,-53.75 592.64,-50.25 582.64,-46.75 582.64,-53.75"/>
</a>
</g>
</g>
<!-- Node18&#45;&gt;Node16 -->
<g id="edge29_Node000018_Node000016" class="edge">
<title>Node18&#45;&gt;Node16</title>
<g id="a_edge29_Node000018_Node000016"><a xlink:title=" ">
<path fill="none" stroke="#63b8ff" d="M216.83,-73.59C231.34,-70.49 247.83,-67.33 263,-65.25 322.01,-57.17 390.61,-53.36 434.94,-51.62"/>
<polygon fill="#63b8ff" stroke="#63b8ff" points="434.81,-55.09 444.67,-51.23 434.55,-48.1 434.81,-55.09"/>
</a>
</g>
</g>
<!-- Node19 -->
<g id="Node000019" class="node">
<title>Node19</title>
<g id="a_Node000019"><a xlink:href="a01913.html#a1cfa2c90268c6e53ce376beb7cce153c" target="_top" xlink:title=" ">
<polygon fill="white" stroke="#666666" points="373.12,-129.5 270.88,-129.5 270.88,-111 373.12,-111 373.12,-129.5"/>
<text text-anchor="middle" x="322" y="-116" font-family="Helvetica,sans-Serif" font-size="10.00">arax_pipe_size_dec</text>
</a>
</g>
</g>
<!-- Node18&#45;&gt;Node19 -->
<g id="edge20_Node000018_Node000019" class="edge">
<title>Node18&#45;&gt;Node19</title>
<g id="a_edge20_Node000018_Node000019"><a xlink:title=" ">
<path fill="none" stroke="#63b8ff" d="M213.91,-92.97C231.77,-97.52 253.25,-102.99 272.27,-107.84"/>
<polygon fill="#63b8ff" stroke="#63b8ff" points="271.29,-111.45 281.84,-110.53 273.01,-104.67 271.29,-111.45"/>
</a>
</g>
</g>
<!-- Node23 -->
<g id="Node000023" class="node">
<title>Node23</title>
<g id="a_Node000023"><a xlink:href="a02343.html#ac9828b5c2758940f6d3c7d4335228de5" target="_top" xlink:title=" ">
<polygon fill="white" stroke="#666666" points="371.62,-92.5 272.38,-92.5 272.38,-74 371.62,-74 371.62,-92.5"/>
<text text-anchor="middle" x="322" y="-79" font-family="Helvetica,sans-Serif" font-size="10.00">arch_alloc_allocate</text>
</a>
</g>
</g>
<!-- Node18&#45;&gt;Node23 -->
<g id="edge28_Node000018_Node000023" class="edge">
<title>Node18&#45;&gt;Node23</title>
<g id="a_edge28_Node000018_Node000023"><a xlink:title=" ">
<path fill="none" stroke="#63b8ff" d="M227.37,-83.25C238.25,-83.25 249.83,-83.25 260.99,-83.25"/>
<polygon fill="#63b8ff" stroke="#63b8ff" points="260.98,-86.75 270.98,-83.25 260.98,-79.75 260.98,-86.75"/>
</a>
</g>
</g>
<!-- Node18&#45;&gt;Node24 -->
<g id="edge30_Node000018_Node000024" class="edge">
<title>Node18&#45;&gt;Node24</title>
<g id="a_edge30_Node000018_Node000024"><a xlink:title=" ">
<path fill="none" stroke="#63b8ff" d="M200.6,-73.52C209.19,-69.79 218.73,-65.23 227,-60.25 244.37,-49.8 245.4,-42.31 263,-32.25 268.92,-28.86 275.45,-25.75 281.91,-22.98"/>
<polygon fill="#63b8ff" stroke="#63b8ff" points="282.98,-25.92 290.93,-18.93 280.35,-19.43 282.98,-25.92"/>
</a>
</g>
</g>
<!-- Node20 -->
<g id="Node000020" class="node">
<title>Node20</title>
<g id="a_Node000020"><a xlink:href="a01925.html#a8413a3584787f9b629e54b2ef9439f06" target="_top" xlink:title=" ">
<polygon fill="white" stroke="#666666" points="539.5,-96.5 425.25,-96.5 425.25,-78 539.5,-78 539.5,-96.5"/>
<text text-anchor="middle" x="482.38" y="-83" font-family="Helvetica,sans-Serif" font-size="10.00">arax_throttle_size_dec</text>
</a>
</g>
</g>
<!-- Node19&#45;&gt;Node20 -->
<g id="edge21_Node000019_Node000020" class="edge">
<title>Node19&#45;&gt;Node20</title>
<g id="a_edge21_Node000019_Node000020"><a xlink:title=" ">
<path fill="none" stroke="#63b8ff" d="M369.66,-110.53C386.74,-106.97 406.27,-102.9 424.17,-99.17"/>
<polygon fill="#63b8ff" stroke="#63b8ff" points="424.7,-102.43 433.77,-96.96 423.27,-95.57 424.7,-102.43"/>
</a>
</g>
</g>
<!-- Node20&#45;&gt;Node5 -->
<g id="edge22_Node000020_Node000005" class="edge">
<title>Node20&#45;&gt;Node5</title>
<g id="a_edge22_Node000020_Node000005"><a xlink:title=" ">
<path fill="none" stroke="#63b8ff" d="M498.54,-96.95C517.79,-108.98 552.28,-129.54 583.75,-143.25 588.42,-145.28 593.38,-147.22 598.36,-149.02"/>
<polygon fill="#63b8ff" stroke="#63b8ff" points="596.93,-152.57 607.52,-152.51 599.21,-145.95 596.93,-152.57"/>
</a>
</g>
</g>
<!-- Node20&#45;&gt;Node7 -->
<g id="edge23_Node000020_Node000007" class="edge">
<title>Node20&#45;&gt;Node7</title>
<g id="a_edge23_Node000020_Node000007"><a xlink:title=" ">
<path fill="none" stroke="#63b8ff" d="M523.94,-96.94C544.44,-101.83 569.52,-107.82 591.32,-113.03"/>
<polygon fill="#63b8ff" stroke="#63b8ff" points="590.19,-116.6 600.73,-115.51 591.82,-109.79 590.19,-116.6"/>
</a>
</g>
</g>
<!-- Node21 -->
<g id="Node000021" class="node">
<title>Node21</title>
<g id="a_Node000021"><a xlink:href="a02352.html#a1bfeaeb9b81855e640d7a67cc9d92b17" target="_top" xlink:title=" ">
<polygon fill="white" stroke="#666666" points="697.62,-97.5 589.38,-97.5 589.38,-79 697.62,-79 697.62,-97.5"/>
<text text-anchor="middle" x="643.5" y="-84" font-family="Helvetica,sans-Serif" font-size="10.00">async_condition_wait</text>
</a>
</g>
</g>
<!-- Node20&#45;&gt;Node21 -->
<g id="edge24_Node000020_Node000021" class="edge">
<title>Node20&#45;&gt;Node21</title>
<g id="a_edge24_Node000020_Node000021"><a xlink:title=" ">
<path fill="none" stroke="#63b8ff" d="M539.92,-87.61C552.29,-87.68 565.47,-87.77 578.12,-87.85"/>
<polygon fill="#63b8ff" stroke="#63b8ff" points="578.04,-91.35 588.06,-87.91 578.08,-84.35 578.04,-91.35"/>
</a>
</g>
</g>
<!-- Node21&#45;&gt;Node6 -->
<g id="edge26_Node000021_Node000006" class="edge">
<title>Node21&#45;&gt;Node6</title>
<g id="a_edge26_Node000021_Node000006"><a xlink:title=" ">
<path fill="none" stroke="#63b8ff" d="M683.27,-97.9C690.18,-100.41 697.12,-103.5 703.25,-107.25 722.55,-119.06 719.7,-131.85 739.25,-143.25 742.7,-145.26 746.38,-147.07 750.17,-148.7"/>
<polygon fill="#63b8ff" stroke="#63b8ff" points="748.79,-152.3 759.38,-152.57 751.28,-145.75 748.79,-152.3"/>
</a>
</g>
</g>
<!-- Node21&#45;&gt;Node8 -->
<g id="edge25_Node000021_Node000008" class="edge">
<title>Node21&#45;&gt;Node8</title>
<g id="a_edge25_Node000021_Node000008"><a xlink:title=" ">
<path fill="none" stroke="#63b8ff" d="M687.39,-97.97C707.84,-102.61 732.51,-108.2 754.17,-113.11"/>
<polygon fill="#63b8ff" stroke="#63b8ff" points="753.34,-116.73 763.86,-115.53 754.88,-109.91 753.34,-116.73"/>
</a>
</g>
</g>
<!-- Node22 -->
<g id="Node000022" class="node">
<title>Node22</title>
<g id="a_Node000022"><a xlink:href="a02346.html#a7ab7c7fe9cb93434dde72a4e464a7e69" target="_top" xlink:title=" ">
<polygon fill="white" stroke="#666666" points="866.62,-97.5 750.88,-97.5 750.88,-79 866.62,-79 866.62,-97.5"/>
<text text-anchor="middle" x="808.75" y="-84" font-family="Helvetica,sans-Serif" font-size="10.00">async_semaphore_dec</text>
</a>
</g>
</g>
<!-- Node21&#45;&gt;Node22 -->
<g id="edge27_Node000021_Node000022" class="edge">
<title>Node21&#45;&gt;Node22</title>
<g id="a_edge27_Node000021_Node000022"><a xlink:title=" ">
<path fill="none" stroke="#63b8ff" d="M697.95,-88.25C711.23,-88.25 725.65,-88.25 739.53,-88.25"/>
<polygon fill="#63b8ff" stroke="#63b8ff" points="739.52,-91.75 749.52,-88.25 739.52,-84.75 739.52,-91.75"/>
</a>
</g>
</g>
<!-- Node25&#45;&gt;Node5 -->
<g id="edge32_Node000025_Node000005" class="edge">
<title>Node25&#45;&gt;Node5</title>
<g id="a_edge32_Node000025_Node000005"><a xlink:title=" ">
<path fill="none" stroke="#63b8ff" d="M379.75,-162.25C435.26,-162.25 519.69,-162.25 577.78,-162.25"/>
<polygon fill="#63b8ff" stroke="#63b8ff" points="577.67,-165.75 587.67,-162.25 577.67,-158.75 577.67,-165.75"/>
</a>
</g>
</g>
<!-- Node25&#45;&gt;Node7 -->
<g id="edge34_Node000025_Node000007" class="edge">
<title>Node25&#45;&gt;Node7</title>
<g id="a_edge34_Node000025_Node000007"><a xlink:title=" ">
<path fill="none" stroke="#63b8ff" d="M379.75,-155.68C433.58,-149.44 514.59,-140.06 572.42,-133.37"/>
<polygon fill="#63b8ff" stroke="#63b8ff" points="572.77,-136.73 582.3,-132.11 571.96,-129.78 572.77,-136.73"/>
</a>
</g>
</g>
<!-- Node25&#45;&gt;Node14 -->
<g id="edge33_Node000025_Node000014" class="edge">
<title>Node25&#45;&gt;Node14</title>
<g id="a_edge33_Node000025_Node000014"><a xlink:title=" ">
<path fill="none" stroke="#63b8ff" d="M354.67,-177.25C382.68,-190.51 423.29,-209.74 450.93,-222.83"/>
<polygon fill="#63b8ff" stroke="#63b8ff" points="449.3,-226.41 459.84,-227.52 452.3,-220.08 449.3,-226.41"/>
</a>
</g>
</g>
<!-- Node25&#45;&gt;Node16 -->
<g id="edge35_Node000025_Node000016" class="edge">
<title>Node25&#45;&gt;Node16</title>
<g id="a_edge35_Node000025_Node000016"><a xlink:title=" ">
<path fill="none" stroke="#63b8ff" d="M368.3,-147.29C372.88,-144.7 377.22,-141.71 381,-138.25 406.52,-114.9 390.29,-91.23 417,-69.25 422.31,-64.88 428.6,-61.51 435.13,-58.92"/>
<polygon fill="#63b8ff" stroke="#63b8ff" points="436.12,-61.95 444.49,-55.45 433.9,-55.31 436.12,-61.95"/>
</a>
</g>
</g>
</g>
</svg>
