<?xml version="1.0" encoding="UTF-8" standalone="no"?>
<!DOCTYPE svg PUBLIC "-//W3C//DTD SVG 1.1//EN"
 "http://www.w3.org/Graphics/SVG/1.1/DTD/svg11.dtd">
<!-- Generated by graphviz version 12.2.1 (0)
 -->
<!-- Title: arax_data_set Pages: 1 -->
<svg width="1457pt" height="377pt"
 viewBox="0.00 0.00 1457.25 377.04" xmlns="http://www.w3.org/2000/svg" xmlns:xlink="http://www.w3.org/1999/xlink">
<g id="graph0" class="graph" transform="scale(1 1) rotate(0) translate(4 373.04)">
<title>arax_data_set</title>
<!-- Node1 -->
<g id="Node000001" class="node">
<title>Node1</title>
<g id="a_Node000001"><a xlink:title=" ">
<polygon fill="#999999" stroke="#666666" points="78.25,-276.04 0,-276.04 0,-257.54 78.25,-257.54 78.25,-276.04"/>
<text text-anchor="middle" x="39.12" y="-262.54" font-family="Helvetica,sans-Serif" font-size="10.00">arax_data_set</text>
</a>
</g>
</g>
<!-- Node2 -->
<g id="Node000002" class="node">
<title>Node2</title>
<g id="a_Node000002"><a xlink:href="a01922.html#a369e660e3e344bc697d98174059ead3c" target="_top" xlink:title=" ">
<polygon fill="white" stroke="#666666" points="199.25,-369.04 117.25,-369.04 117.25,-350.54 199.25,-350.54 199.25,-369.04"/>
<text text-anchor="middle" x="158.25" y="-355.54" font-family="Helvetica,sans-Serif" font-size="10.00">arax_data_size</text>
</a>
</g>
</g>
<!-- Node1&#45;&gt;Node2 -->
<g id="edge1_Node000001_Node000002" class="edge">
<title>Node1&#45;&gt;Node2</title>
<g id="a_edge1_Node000001_Node000002"><a xlink:title=" ">
<path fill="none" stroke="#63b8ff" d="M48.57,-276.24C61.67,-290.53 88.11,-317.97 114.25,-336.79 118.11,-339.57 122.36,-342.24 126.62,-344.71"/>
<polygon fill="#63b8ff" stroke="#63b8ff" points="124.68,-347.64 135.13,-349.36 128.03,-341.49 124.68,-347.64"/>
</a>
</g>
</g>
<!-- Node3 -->
<g id="Node000003" class="node">
<title>Node3</title>
<g id="a_Node000003"><a xlink:href="a01925.html#a9255b8011e6d7c9b28c7df40065efb28" target="_top" xlink:title=" ">
<polygon fill="white" stroke="#666666" points="809.25,-275.04 707.75,-275.04 707.75,-256.54 809.25,-256.54 809.25,-275.04"/>
<text text-anchor="middle" x="758.5" y="-261.54" font-family="Helvetica,sans-Serif" font-size="10.00">arax_object_ref_inc</text>
</a>
</g>
</g>
<!-- Node1&#45;&gt;Node3 -->
<g id="edge2_Node000001_Node000003" class="edge">
<title>Node1&#45;&gt;Node3</title>
<g id="a_edge2_Node000001_Node000003"><a xlink:title=" ">
<path fill="none" stroke="#63b8ff" d="M65.71,-276.41C110.62,-292.43 206.88,-322.79 291,-322.79 291,-322.79 291,-322.79 442.12,-322.79 540.92,-322.79 654.38,-295.37 714.64,-278.56"/>
<polygon fill="#63b8ff" stroke="#63b8ff" points="715.49,-281.96 724.15,-275.87 713.58,-275.23 715.49,-281.96"/>
</a>
</g>
</g>
<!-- Node4 -->
<g id="Node000004" class="node">
<title>Node4</title>
<g id="a_Node000004"><a xlink:href="a02188.html#ga739047efb2b454e6c1ac54138ef2985d" target="_top" xlink:title=" ">
<polygon fill="white" stroke="#666666" points="197.38,-221.04 119.12,-221.04 119.12,-202.54 197.38,-202.54 197.38,-221.04"/>
<text text-anchor="middle" x="158.25" y="-207.54" font-family="Helvetica,sans-Serif" font-size="10.00">arax_proc_get</text>
</a>
</g>
</g>
<!-- Node1&#45;&gt;Node4 -->
<g id="edge3_Node000001_Node000004" class="edge">
<title>Node1&#45;&gt;Node4</title>
<g id="a_edge3_Node000001_Node000004"><a xlink:title=" ">
<path fill="none" stroke="#63b8ff" d="M60.79,-257.08C79.03,-248.52 105.84,-235.93 126.58,-226.19"/>
<polygon fill="#63b8ff" stroke="#63b8ff" points="127.85,-229.46 135.42,-222.04 124.88,-223.12 127.85,-229.46"/>
</a>
</g>
</g>
<!-- Node8 -->
<g id="Node000008" class="node">
<title>Node8</title>
<g id="a_Node000008"><a xlink:href="a02188.html#ga70242aa6d9591e5fa3dbb36f1e27a896" target="_top" xlink:title=" ">
<polygon fill="white" stroke="#666666" points="197.38,-90.04 119.12,-90.04 119.12,-71.54 197.38,-71.54 197.38,-90.04"/>
<text text-anchor="middle" x="158.25" y="-76.54" font-family="Helvetica,sans-Serif" font-size="10.00">arax_proc_put</text>
</a>
</g>
</g>
<!-- Node1&#45;&gt;Node8 -->
<g id="edge8_Node000001_Node000008" class="edge">
<title>Node1&#45;&gt;Node8</title>
<g id="a_edge8_Node000001_Node000008"><a xlink:title=" ">
<path fill="none" stroke="#63b8ff" d="M46.26,-257.05C64.76,-227.67 120.26,-139.52 145.06,-100.15"/>
<polygon fill="#63b8ff" stroke="#63b8ff" points="148.01,-102.04 150.37,-91.71 142.08,-98.31 148.01,-102.04"/>
</a>
</g>
</g>
<!-- Node19 -->
<g id="Node000019" class="node">
<title>Node19</title>
<g id="a_Node000019"><a xlink:href="a02189.html#gac9f0f3fbb14da879d3ff09bd367bbb24" target="_top" xlink:title=" ">
<polygon fill="white" stroke="#666666" points="202.25,-276.04 114.25,-276.04 114.25,-257.54 202.25,-257.54 202.25,-276.04"/>
<text text-anchor="middle" x="158.25" y="-262.54" font-family="Helvetica,sans-Serif" font-size="10.00">arax_task_issue</text>
</a>
</g>
</g>
<!-- Node1&#45;&gt;Node19 -->
<g id="edge21_Node000001_Node000019" class="edge">
<title>Node1&#45;&gt;Node19</title>
<g id="a_edge21_Node000001_Node000019"><a xlink:title=" ">
<path fill="none" stroke="#63b8ff" d="M78.48,-266.79C86.18,-266.79 94.43,-266.79 102.57,-266.79"/>
<polygon fill="#63b8ff" stroke="#63b8ff" points="102.43,-270.29 112.43,-266.79 102.43,-263.29 102.43,-270.29"/>
</a>
</g>
</g>
<!-- Node4&#45;&gt;Node3 -->
<g id="edge4_Node000004_Node000003" class="edge">
<title>Node4&#45;&gt;Node3</title>
<g id="a_edge4_Node000004_Node000003"><a xlink:title=" ">
<path fill="none" stroke="#63b8ff" d="M197.84,-215.63C235.56,-219.4 294.61,-225.37 345.75,-230.79 430.56,-239.78 451.53,-244.42 536.5,-251.79 590.29,-256.45 651.58,-260.21 695.95,-262.66"/>
<polygon fill="#63b8ff" stroke="#63b8ff" points="695.73,-266.15 705.91,-263.2 696.11,-259.16 695.73,-266.15"/>
</a>
</g>
</g>
<!-- Node5 -->
<g id="Node000005" class="node">
<title>Node5</title>
<g id="a_Node000005"><a xlink:href="a01928.html#a4c22ae41507232dc3efc725428cbfc7b" target="_top" xlink:title=" ">
<polygon fill="white" stroke="#666666" points="343.88,-70.04 240.12,-70.04 240.12,-51.54 343.88,-51.54 343.88,-70.04"/>
<text text-anchor="middle" x="292" y="-56.54" font-family="Helvetica,sans-Serif" font-size="10.00">arax_pipe_find_proc</text>
</a>
</g>
</g>
<!-- Node4&#45;&gt;Node5 -->
<g id="edge5_Node000004_Node000005" class="edge">
<title>Node4&#45;&gt;Node5</title>
<g id="a_edge5_Node000004_Node000005"><a xlink:title=" ">
<path fill="none" stroke="#63b8ff" d="M167.49,-202.34C189.03,-177.66 247.25,-110.93 275.38,-78.69"/>
<polygon fill="#63b8ff" stroke="#63b8ff" points="277.83,-81.21 281.77,-71.37 272.55,-76.6 277.83,-81.21"/>
</a>
</g>
</g>
<!-- Node6 -->
<g id="Node000006" class="node">
<title>Node6</title>
<g id="a_Node000006"><a xlink:href="a01925.html#aa750d1c54fe430c1294b9c8a9d3e1466" target="_top" xlink:title=" ">
<polygon fill="white" stroke="#666666" points="495.25,-70.04 387,-70.04 387,-51.54 495.25,-51.54 495.25,-70.04"/>
<text text-anchor="middle" x="441.12" y="-56.54" font-family="Helvetica,sans-Serif" font-size="10.00">arax_object_list_lock</text>
</a>
</g>
</g>
<!-- Node5&#45;&gt;Node6 -->
<g id="edge6_Node000005_Node000006" class="edge">
<title>Node5&#45;&gt;Node6</title>
<g id="a_edge6_Node000005_Node000006"><a xlink:title=" ">
<path fill="none" stroke="#63b8ff" d="M344.04,-60.79C354.16,-60.79 364.91,-60.79 375.41,-60.79"/>
<polygon fill="#63b8ff" stroke="#63b8ff" points="375.16,-64.29 385.16,-60.79 375.16,-57.29 375.16,-64.29"/>
</a>
</g>
</g>
<!-- Node7 -->
<g id="Node000007" class="node">
<title>Node7</title>
<g id="a_Node000007"><a xlink:href="a01925.html#abb03d3cde2d1354544cd082482c3f185" target="_top" xlink:title=" ">
<polygon fill="white" stroke="#666666" points="500.5,-33.04 381.75,-33.04 381.75,-14.54 500.5,-14.54 500.5,-33.04"/>
<text text-anchor="middle" x="441.12" y="-19.54" font-family="Helvetica,sans-Serif" font-size="10.00">arax_object_list_unlock</text>
</a>
</g>
</g>
<!-- Node5&#45;&gt;Node7 -->
<g id="edge7_Node000005_Node000007" class="edge">
<title>Node5&#45;&gt;Node7</title>
<g id="a_edge7_Node000005_Node000007"><a xlink:title=" ">
<path fill="none" stroke="#63b8ff" d="M331.66,-51.07C349.66,-46.54 371.3,-41.1 390.5,-36.27"/>
<polygon fill="#63b8ff" stroke="#63b8ff" points="391.16,-39.71 400,-33.88 389.45,-32.92 391.16,-39.71"/>
</a>
</g>
</g>
<!-- Node9 -->
<g id="Node000009" class="node">
<title>Node9</title>
<g id="a_Node000009"><a xlink:href="a01925.html#afe7e4a63c40fbcaae742b8de8693483f" target="_top" xlink:title=" ">
<polygon fill="white" stroke="#666666" points="810.75,-134.04 706.25,-134.04 706.25,-115.54 810.75,-115.54 810.75,-134.04"/>
<text text-anchor="middle" x="758.5" y="-120.54" font-family="Helvetica,sans-Serif" font-size="10.00">arax_object_ref_dec</text>
</a>
</g>
</g>
<!-- Node8&#45;&gt;Node9 -->
<g id="edge9_Node000008_Node000009" class="edge">
<title>Node8&#45;&gt;Node9</title>
<g id="a_edge9_Node000008_Node000009"><a xlink:title=" ">
<path fill="none" stroke="#63b8ff" d="M176.7,-71.16C192.43,-62.79 216.38,-50.78 238.25,-42.79 348.81,-2.39 383.54,7.44 500.5,-5.79 573.67,-14.06 601.39,-0.97 662,-42.79 685.74,-59.17 676.15,-77.96 698,-96.79 704.11,-102.06 711.39,-106.55 718.71,-110.3"/>
<polygon fill="#63b8ff" stroke="#63b8ff" points="717.08,-113.39 727.62,-114.45 720.04,-107.05 717.08,-113.39"/>
</a>
</g>
</g>
<!-- Node10 -->
<g id="Node000010" class="node">
<title>Node10</title>
<g id="a_Node000010"><a xlink:href="a01928.html#a9f30684f01feac766b42d622970ed5a6" target="_top" xlink:title=" ">
<polygon fill="white" stroke="#666666" points="961.38,-152.04 862.12,-152.04 862.12,-133.54 961.38,-133.54 961.38,-152.04"/>
<text text-anchor="middle" x="911.75" y="-138.54" font-family="Helvetica,sans-Serif" font-size="10.00">arax_pipe_size_inc</text>
</a>
</g>
</g>
<!-- Node9&#45;&gt;Node10 -->
<g id="edge10_Node000009_Node000010" class="edge">
<title>Node9&#45;&gt;Node10</title>
<g id="a_edge10_Node000009_Node000010"><a xlink:title=" ">
<path fill="none" stroke="#63b8ff" d="M811.13,-130.93C823.77,-132.44 837.41,-134.06 850.42,-135.61"/>
<polygon fill="#63b8ff" stroke="#63b8ff" points="849.8,-139.06 860.15,-136.77 850.63,-132.11 849.8,-139.06"/>
</a>
</g>
</g>
<!-- Node18 -->
<g id="Node000018" class="node">
<title>Node18</title>
<g id="a_Node000018"><a xlink:href="a01955.html#a0c85e5516222ab7e7fc354c614760ec5" target="_top" xlink:title=" ">
<polygon fill="white" stroke="#666666" points="946.75,-115.04 876.75,-115.04 876.75,-96.54 946.75,-96.54 946.75,-115.04"/>
<text text-anchor="middle" x="911.75" y="-101.54" font-family="Helvetica,sans-Serif" font-size="10.00">utils_list_del</text>
</a>
</g>
</g>
<!-- Node9&#45;&gt;Node18 -->
<g id="edge20_Node000009_Node000018" class="edge">
<title>Node9&#45;&gt;Node18</title>
<g id="a_edge20_Node000009_Node000018"><a xlink:title=" ">
<path fill="none" stroke="#63b8ff" d="M811.13,-118.3C828.65,-116.1 848.09,-113.66 865.11,-111.52"/>
<polygon fill="#63b8ff" stroke="#63b8ff" points="865.47,-115 874.95,-110.28 864.6,-108.06 865.47,-115"/>
</a>
</g>
</g>
<!-- Node10&#45;&gt;Node10 -->
<g id="edge11_Node000010_Node000010" class="edge">
<title>Node10&#45;&gt;Node10</title>
<g id="a_edge11_Node000010_Node000010"><a xlink:title=" ">
<path fill="none" stroke="#63b8ff" d="M888.65,-152.28C877.41,-160.86 885.11,-170.04 911.75,-170.04 926.73,-170.04 935.73,-167.13 938.73,-163.06"/>
<polygon fill="#63b8ff" stroke="#63b8ff" points="942.04,-161.93 935.36,-153.71 935.45,-164.3 942.04,-161.93"/>
</a>
</g>
</g>
<!-- Node11 -->
<g id="Node000011" class="node">
<title>Node11</title>
<g id="a_Node000011"><a xlink:href="a01940.html#a7d3a67fa4eeb00cc9508a7ffe451a02f" target="_top" xlink:title=" ">
<polygon fill="white" stroke="#666666" points="1117.25,-152.04 1006,-152.04 1006,-133.54 1117.25,-133.54 1117.25,-152.04"/>
<text text-anchor="middle" x="1061.62" y="-138.54" font-family="Helvetica,sans-Serif" font-size="10.00">arax_throttle_size_inc</text>
</a>
</g>
</g>
<!-- Node10&#45;&gt;Node11 -->
<g id="edge12_Node000010_Node000011" class="edge">
<title>Node10&#45;&gt;Node11</title>
<g id="a_edge12_Node000010_Node000011"><a xlink:title=" ">
<path fill="none" stroke="#63b8ff" d="M961.58,-142.79C972.07,-142.79 983.32,-142.79 994.35,-142.79"/>
<polygon fill="#63b8ff" stroke="#63b8ff" points="994.2,-146.29 1004.2,-142.79 994.2,-139.29 994.2,-146.29"/>
</a>
</g>
</g>
<!-- Node11&#45;&gt;Node11 -->
<g id="edge13_Node000011_Node000011" class="edge">
<title>Node11&#45;&gt;Node11</title>
<g id="a_edge13_Node000011_Node000011"><a xlink:title=" ">
<path fill="none" stroke="#63b8ff" d="M1038.52,-152.28C1027.29,-160.86 1034.99,-170.04 1061.62,-170.04 1076.61,-170.04 1085.6,-167.13 1088.6,-163.06"/>
<polygon fill="#63b8ff" stroke="#63b8ff" points="1091.91,-161.93 1085.24,-153.71 1085.33,-164.3 1091.91,-161.93"/>
</a>
</g>
</g>
<!-- Node12 -->
<g id="Node000012" class="node">
<title>Node12</title>
<g id="a_Node000012"><a xlink:href="a02364.html#aed6af4d83e934e3e654ead541b15f2d9" target="_top" xlink:title=" ">
<polygon fill="white" stroke="#666666" points="1269,-133.04 1160,-133.04 1160,-114.54 1269,-114.54 1269,-133.04"/>
<text text-anchor="middle" x="1214.5" y="-119.54" font-family="Helvetica,sans-Serif" font-size="10.00">async_condition_lock</text>
</a>
</g>
</g>
<!-- Node11&#45;&gt;Node12 -->
<g id="edge14_Node000011_Node000012" class="edge">
<title>Node11&#45;&gt;Node12</title>
<g id="a_edge14_Node000011_Node000012"><a xlink:title=" ">
<path fill="none" stroke="#63b8ff" d="M1117.52,-135.87C1127.5,-134.62 1138,-133.3 1148.24,-132.01"/>
<polygon fill="#63b8ff" stroke="#63b8ff" points="1148.67,-135.48 1158.15,-130.76 1147.79,-128.53 1148.67,-135.48"/>
</a>
</g>
</g>
<!-- Node14 -->
<g id="Node000014" class="node">
<title>Node14</title>
<g id="a_Node000014"><a xlink:href="a02364.html#a45a896fb606c2aa66a5a4c2af59ce494" target="_top" xlink:title=" ">
<polygon fill="white" stroke="#666666" points="1272,-207.04 1157,-207.04 1157,-188.54 1272,-188.54 1272,-207.04"/>
<text text-anchor="middle" x="1214.5" y="-193.54" font-family="Helvetica,sans-Serif" font-size="10.00">async_condition_notify</text>
</a>
</g>
</g>
<!-- Node11&#45;&gt;Node14 -->
<g id="edge16_Node000011_Node000014" class="edge">
<title>Node11&#45;&gt;Node14</title>
<g id="a_edge16_Node000011_Node000014"><a xlink:title=" ">
<path fill="none" stroke="#63b8ff" d="M1086.34,-152.5C1104.86,-159.98 1131.3,-170.42 1154.75,-178.79 1160.16,-180.72 1165.89,-182.68 1171.55,-184.56"/>
<polygon fill="#63b8ff" stroke="#63b8ff" points="1170.25,-187.82 1180.84,-187.6 1172.43,-181.16 1170.25,-187.82"/>
</a>
</g>
</g>
<!-- Node16 -->
<g id="Node000016" class="node">
<title>Node16</title>
<g id="a_Node000016"><a xlink:href="a02364.html#a3bbcb7c4c024e99d5c4ba52b61dfbbf7" target="_top" xlink:title=" ">
<polygon fill="white" stroke="#666666" points="1274.25,-170.04 1154.75,-170.04 1154.75,-151.54 1274.25,-151.54 1274.25,-170.04"/>
<text text-anchor="middle" x="1214.5" y="-156.54" font-family="Helvetica,sans-Serif" font-size="10.00">async_condition_unlock</text>
</a>
</g>
</g>
<!-- Node11&#45;&gt;Node16 -->
<g id="edge18_Node000011_Node000016" class="edge">
<title>Node11&#45;&gt;Node16</title>
<g id="a_edge18_Node000011_Node000016"><a xlink:title=" ">
<path fill="none" stroke="#63b8ff" d="M1117.52,-149.34C1125.84,-150.33 1134.52,-151.37 1143.11,-152.39"/>
<polygon fill="#63b8ff" stroke="#63b8ff" points="1142.47,-155.84 1152.82,-153.55 1143.3,-148.89 1142.47,-155.84"/>
</a>
</g>
</g>
<!-- Node13 -->
<g id="Node000013" class="node">
<title>Node13</title>
<g id="a_Node000013"><a xlink:href="a02358.html#aebf9e72bb6cbd8b9e33489d46c25075d" target="_top" xlink:title=" ">
<polygon fill="white" stroke="#666666" points="1438,-133.04 1321.5,-133.04 1321.5,-114.54 1438,-114.54 1438,-133.04"/>
<text text-anchor="middle" x="1379.75" y="-119.54" font-family="Helvetica,sans-Serif" font-size="10.00">async_completion_wait</text>
</a>
</g>
</g>
<!-- Node12&#45;&gt;Node13 -->
<g id="edge15_Node000012_Node000013" class="edge">
<title>Node12&#45;&gt;Node13</title>
<g id="a_edge15_Node000012_Node000013"><a xlink:title=" ">
<path fill="none" stroke="#63b8ff" d="M1269.41,-123.79C1282.39,-123.79 1296.44,-123.79 1310.01,-123.79"/>
<polygon fill="#63b8ff" stroke="#63b8ff" points="1309.74,-127.29 1319.74,-123.79 1309.74,-120.29 1309.74,-127.29"/>
</a>
</g>
</g>
<!-- Node15 -->
<g id="Node000015" class="node">
<title>Node15</title>
<g id="a_Node000015"><a xlink:href="a02358.html#a0fa370eee5160963e617d1daf1c07363" target="_top" xlink:title=" ">
<polygon fill="white" stroke="#666666" points="1436.12,-207.04 1323.38,-207.04 1323.38,-188.54 1436.12,-188.54 1436.12,-207.04"/>
<text text-anchor="middle" x="1379.75" y="-193.54" font-family="Helvetica,sans-Serif" font-size="10.00">async_semaphore_inc</text>
</a>
</g>
</g>
<!-- Node14&#45;&gt;Node15 -->
<g id="edge17_Node000014_Node000015" class="edge">
<title>Node14&#45;&gt;Node15</title>
<g id="a_edge17_Node000014_Node000015"><a xlink:title=" ">
<path fill="none" stroke="#63b8ff" d="M1272.14,-197.79C1284.89,-197.79 1298.54,-197.79 1311.67,-197.79"/>
<polygon fill="#63b8ff" stroke="#63b8ff" points="1311.53,-201.29 1321.53,-197.79 1311.52,-194.29 1311.53,-201.29"/>
</a>
</g>
</g>
<!-- Node17 -->
<g id="Node000017" class="node">
<title>Node17</title>
<g id="a_Node000017"><a xlink:href="a02358.html#ad1d30ecbf6bff6457b680aa940281072" target="_top" xlink:title=" ">
<polygon fill="white" stroke="#666666" points="1449.25,-170.04 1310.25,-170.04 1310.25,-151.54 1449.25,-151.54 1449.25,-170.04"/>
<text text-anchor="middle" x="1379.75" y="-156.54" font-family="Helvetica,sans-Serif" font-size="10.00">async_completion_complete</text>
</a>
</g>
</g>
<!-- Node16&#45;&gt;Node17 -->
<g id="edge19_Node000016_Node000017" class="edge">
<title>Node16&#45;&gt;Node17</title>
<g id="a_edge19_Node000016_Node000017"><a xlink:title=" ">
<path fill="none" stroke="#63b8ff" d="M1274.44,-160.79C1282.26,-160.79 1290.38,-160.79 1298.49,-160.79"/>
<polygon fill="#63b8ff" stroke="#63b8ff" points="1298.39,-164.29 1308.39,-160.79 1298.39,-157.29 1298.39,-164.29"/>
</a>
</g>
</g>
<!-- Node20 -->
<g id="Node000020" class="node">
<title>Node20</title>
<g id="a_Node000020"><a xlink:href="a01937.html#a27bee94f7a23281c8b2b72ec433f6059" target="_top" xlink:title=" ">
<polygon fill="white" stroke="#666666" points="334.5,-181.04 249.5,-181.04 249.5,-162.54 334.5,-162.54 334.5,-181.04"/>
<text text-anchor="middle" x="292" y="-167.54" font-family="Helvetica,sans-Serif" font-size="10.00">arax_task_alloc</text>
</a>
</g>
</g>
<!-- Node19&#45;&gt;Node20 -->
<g id="edge22_Node000019_Node000020" class="edge">
<title>Node19&#45;&gt;Node20</title>
<g id="a_edge22_Node000019_Node000020"><a xlink:title=" ">
<path fill="none" stroke="#63b8ff" d="M172.36,-257.33C194.74,-241.2 240.55,-208.16 268.24,-188.2"/>
<polygon fill="#63b8ff" stroke="#63b8ff" points="270.25,-191.06 276.32,-182.37 266.16,-185.38 270.25,-191.06"/>
</a>
</g>
</g>
<!-- Node35 -->
<g id="Node000035" class="node">
<title>Node35</title>
<g id="a_Node000035"><a xlink:href="a01937.html#aa3cb73b347940187fb3399f51b1a55b7" target="_top" xlink:title=" ">
<polygon fill="white" stroke="#666666" points="345.75,-258.04 238.25,-258.04 238.25,-239.54 345.75,-239.54 345.75,-258.04"/>
<text text-anchor="middle" x="292" y="-244.54" font-family="Helvetica,sans-Serif" font-size="10.00">arax_task_host_data</text>
</a>
</g>
</g>
<!-- Node19&#45;&gt;Node35 -->
<g id="edge49_Node000019_Node000035" class="edge">
<title>Node19&#45;&gt;Node35</title>
<g id="a_edge49_Node000019_Node000035"><a xlink:title=" ">
<path fill="none" stroke="#63b8ff" d="M202.39,-260.89C210.23,-259.82 218.56,-258.68 226.86,-257.55"/>
<polygon fill="#63b8ff" stroke="#63b8ff" points="227.17,-261.04 236.6,-256.22 226.22,-254.11 227.17,-261.04"/>
</a>
</g>
</g>
<!-- Node36 -->
<g id="Node000036" class="node">
<title>Node36</title>
<g id="a_Node000036"><a xlink:href="a01937.html#ace08f924cb86d1310099621564536657" target="_top" xlink:title=" ">
<polygon fill="white" stroke="#666666" points="646.25,-369.04 552.25,-369.04 552.25,-350.54 646.25,-350.54 646.25,-369.04"/>
<text text-anchor="middle" x="599.25" y="-355.54" font-family="Helvetica,sans-Serif" font-size="10.00">arax_task_submit</text>
</a>
</g>
</g>
<!-- Node19&#45;&gt;Node36 -->
<g id="edge50_Node000019_Node000036" class="edge">
<title>Node19&#45;&gt;Node36</title>
<g id="a_edge50_Node000019_Node000036"><a xlink:title=" ">
<path fill="none" stroke="#63b8ff" d="M176.26,-276.49C191.89,-284.97 215.94,-296.98 238.25,-303.79 342.19,-335.5 468.76,-349.87 540.78,-355.89"/>
<polygon fill="#63b8ff" stroke="#63b8ff" points="540.1,-359.35 550.34,-356.67 540.66,-352.37 540.1,-359.35"/>
</a>
</g>
</g>
<!-- Node40 -->
<g id="Node000040" class="node">
<title>Node40</title>
<g id="a_Node000040"><a xlink:href="a01910.html#a226d4d420328a42fd671699ae60c4c3a" target="_top" xlink:title=" ">
<polygon fill="white" stroke="#666666" points="338.25,-295.04 245.75,-295.04 245.75,-276.54 338.25,-276.54 338.25,-295.04"/>
<text text-anchor="middle" x="292" y="-281.54" font-family="Helvetica,sans-Serif" font-size="10.00">check_semantics</text>
</a>
</g>
</g>
<!-- Node19&#45;&gt;Node40 -->
<g id="edge58_Node000019_Node000040" class="edge">
<title>Node19&#45;&gt;Node40</title>
<g id="a_edge58_Node000019_Node000040"><a xlink:title=" ">
<path fill="none" stroke="#63b8ff" d="M202.39,-273.01C212.53,-274.47 223.49,-276.05 234.13,-277.59"/>
<polygon fill="#63b8ff" stroke="#63b8ff" points="233.6,-281.05 244,-279.01 234.6,-274.12 233.6,-281.05"/>
</a>
</g>
</g>
<!-- Node21 -->
<g id="Node000021" class="node">
<title>Node21</title>
<g id="a_Node000021"><a xlink:href="a01922.html#a1dc669466d6f52d5be8af2d991512ac2" target="_top" xlink:title=" ">
<polygon fill="white" stroke="#666666" points="493,-181.04 389.25,-181.04 389.25,-162.54 493,-162.54 493,-181.04"/>
<text text-anchor="middle" x="441.12" y="-167.54" font-family="Helvetica,sans-Serif" font-size="10.00">arax_data_input_init</text>
</a>
</g>
</g>
<!-- Node20&#45;&gt;Node21 -->
<g id="edge23_Node000020_Node000021" class="edge">
<title>Node20&#45;&gt;Node21</title>
<g id="a_edge23_Node000020_Node000021"><a xlink:title=" ">
<path fill="none" stroke="#63b8ff" d="M334.77,-171.79C348.04,-171.79 363.02,-171.79 377.44,-171.79"/>
<polygon fill="#63b8ff" stroke="#63b8ff" points="377.32,-175.29 387.32,-171.79 377.32,-168.29 377.32,-175.29"/>
</a>
</g>
</g>
<!-- Node24 -->
<g id="Node000024" class="node">
<title>Node24</title>
<g id="a_Node000024"><a xlink:href="a01922.html#a18d07d808917e0b971d46332e9e64da4" target="_top" xlink:title=" ">
<polygon fill="white" stroke="#666666" points="496,-218.04 386.25,-218.04 386.25,-199.54 496,-199.54 496,-218.04"/>
<text text-anchor="middle" x="441.12" y="-204.54" font-family="Helvetica,sans-Serif" font-size="10.00">arax_data_output_init</text>
</a>
</g>
</g>
<!-- Node20&#45;&gt;Node24 -->
<g id="edge29_Node000020_Node000024" class="edge">
<title>Node20&#45;&gt;Node24</title>
<g id="a_edge29_Node000020_Node000024"><a xlink:title=" ">
<path fill="none" stroke="#63b8ff" d="M331.66,-181.51C349.66,-186.04 371.3,-191.48 390.5,-196.31"/>
<polygon fill="#63b8ff" stroke="#63b8ff" points="389.45,-199.65 400,-198.7 391.16,-192.86 389.45,-199.65"/>
</a>
</g>
</g>
<!-- Node25 -->
<g id="Node000025" class="node">
<title>Node25</title>
<g id="a_Node000025"><a xlink:href="a01925.html#a402bbd6fa197c2c48d527325e5e2cf5b" target="_top" xlink:title=" ">
<polygon fill="white" stroke="#666666" points="493.38,-107.04 388.88,-107.04 388.88,-88.54 493.38,-88.54 493.38,-107.04"/>
<text text-anchor="middle" x="441.12" y="-93.54" font-family="Helvetica,sans-Serif" font-size="10.00">arax_object_register</text>
</a>
</g>
</g>
<!-- Node20&#45;&gt;Node25 -->
<g id="edge32_Node000020_Node000025" class="edge">
<title>Node20&#45;&gt;Node25</title>
<g id="a_edge32_Node000020_Node000025"><a xlink:title=" ">
<path fill="none" stroke="#63b8ff" d="M306.26,-162.15C323.13,-150.23 353.47,-129.92 381.75,-116.79 385.99,-114.82 390.49,-112.97 395.04,-111.25"/>
<polygon fill="#63b8ff" stroke="#63b8ff" points="395.96,-114.64 404.21,-108 393.62,-108.04 395.96,-114.64"/>
</a>
</g>
</g>
<!-- Node34 -->
<g id="Node000034" class="node">
<title>Node34</title>
<g id="a_Node000034"><a xlink:href="a02364.html#ac728117d73179c279de49e01ae905dda" target="_top" xlink:title=" ">
<polygon fill="white" stroke="#666666" points="497.12,-144.04 385.12,-144.04 385.12,-125.54 497.12,-125.54 497.12,-144.04"/>
<text text-anchor="middle" x="441.12" y="-130.54" font-family="Helvetica,sans-Serif" font-size="10.00">async_completion_init</text>
</a>
</g>
</g>
<!-- Node20&#45;&gt;Node34 -->
<g id="edge47_Node000020_Node000034" class="edge">
<title>Node20&#45;&gt;Node34</title>
<g id="a_edge47_Node000020_Node000034"><a xlink:title=" ">
<path fill="none" stroke="#63b8ff" d="M331.66,-162.07C349.66,-157.54 371.3,-152.1 390.5,-147.27"/>
<polygon fill="#63b8ff" stroke="#63b8ff" points="391.16,-150.71 400,-144.88 389.45,-143.92 391.16,-150.71"/>
</a>
</g>
</g>
<!-- Node21&#45;&gt;Node3 -->
<g id="edge28_Node000021_Node000003" class="edge">
<title>Node21&#45;&gt;Node3</title>
<g id="a_edge28_Node000021_Node000003"><a xlink:title=" ">
<path fill="none" stroke="#63b8ff" d="M488.73,-181.48C543.33,-193.03 630.35,-212.11 662,-222.79 685.04,-230.56 710.08,-241.95 728.73,-251.06"/>
<polygon fill="#63b8ff" stroke="#63b8ff" points="727.04,-254.13 737.56,-255.43 730.15,-247.86 727.04,-254.13"/>
</a>
</g>
</g>
<!-- Node22 -->
<g id="Node000022" class="node">
<title>Node22</title>
<g id="a_Node000022"><a xlink:href="a01922.html#a4b65f90a821aca384f0ca1cff7bd1846" target="_top" xlink:title=" ">
<polygon fill="white" stroke="#666666" points="662,-181.04 536.5,-181.04 536.5,-162.54 662,-162.54 662,-181.04"/>
<text text-anchor="middle" x="599.25" y="-167.54" font-family="Helvetica,sans-Serif" font-size="10.00">arax_data_migrate_accel</text>
</a>
</g>
</g>
<!-- Node21&#45;&gt;Node22 -->
<g id="edge24_Node000021_Node000022" class="edge">
<title>Node21&#45;&gt;Node22</title>
<g id="a_edge24_Node000021_Node000022"><a xlink:title=" ">
<path fill="none" stroke="#63b8ff" d="M493.25,-171.79C503.3,-171.79 514.04,-171.79 524.67,-171.79"/>
<polygon fill="#63b8ff" stroke="#63b8ff" points="524.6,-175.29 534.6,-171.79 524.6,-168.29 524.6,-175.29"/>
</a>
</g>
</g>
<!-- Node22&#45;&gt;Node3 -->
<g id="edge26_Node000022_Node000003" class="edge">
<title>Node22&#45;&gt;Node3</title>
<g id="a_edge26_Node000022_Node000003"><a xlink:title=" ">
<path fill="none" stroke="#63b8ff" d="M631.47,-181.48C641.49,-185.09 652.45,-189.6 662,-194.79 690.29,-210.16 719.52,-233.13 738.07,-248.75"/>
<polygon fill="#63b8ff" stroke="#63b8ff" points="735.71,-251.34 745.59,-255.18 740.27,-246.02 735.71,-251.34"/>
</a>
</g>
</g>
<!-- Node22&#45;&gt;Node9 -->
<g id="edge25_Node000022_Node000009" class="edge">
<title>Node22&#45;&gt;Node9</title>
<g id="a_edge25_Node000022_Node000009"><a xlink:title=" ">
<path fill="none" stroke="#63b8ff" d="M632.83,-162.05C656.34,-155.02 688.33,-145.46 714.02,-137.78"/>
<polygon fill="#63b8ff" stroke="#63b8ff" points="714.93,-141.16 723.51,-134.95 712.93,-134.46 714.93,-141.16"/>
</a>
</g>
</g>
<!-- Node23 -->
<g id="Node000023" class="node">
<title>Node23</title>
<g id="a_Node000023"><a xlink:href="a01925.html#a668fd893484b6e2d67d8b372b508d14f" target="_top" xlink:title=" ">
<polygon fill="white" stroke="#666666" points="819,-181.04 698,-181.04 698,-162.54 819,-162.54 819,-181.04"/>
<text text-anchor="middle" x="758.5" y="-167.54" font-family="Helvetica,sans-Serif" font-size="10.00">arax_object_type_to_str</text>
</a>
</g>
</g>
<!-- Node22&#45;&gt;Node23 -->
<g id="edge27_Node000022_Node000023" class="edge">
<title>Node22&#45;&gt;Node23</title>
<g id="a_edge27_Node000022_Node000023"><a xlink:title=" ">
<path fill="none" stroke="#63b8ff" d="M662.4,-171.79C670.19,-171.79 678.2,-171.79 686.11,-171.79"/>
<polygon fill="#63b8ff" stroke="#63b8ff" points="686.08,-175.29 696.08,-171.79 686.08,-168.29 686.08,-175.29"/>
</a>
</g>
</g>
<!-- Node24&#45;&gt;Node3 -->
<g id="edge31_Node000024_Node000003" class="edge">
<title>Node24&#45;&gt;Node3</title>
<g id="a_edge31_Node000024_Node000003"><a xlink:title=" ">
<path fill="none" stroke="#63b8ff" d="M495.98,-218.52C551.48,-228.55 637.87,-244.17 696.02,-254.68"/>
<polygon fill="#63b8ff" stroke="#63b8ff" points="695.3,-258.1 705.76,-256.44 696.54,-251.21 695.3,-258.1"/>
</a>
</g>
</g>
<!-- Node24&#45;&gt;Node22 -->
<g id="edge30_Node000024_Node000022" class="edge">
<title>Node24&#45;&gt;Node22</title>
<g id="a_edge30_Node000024_Node000022"><a xlink:title=" ">
<path fill="none" stroke="#63b8ff" d="M483.15,-199.07C502.43,-194.5 525.64,-188.99 546.16,-184.13"/>
<polygon fill="#63b8ff" stroke="#63b8ff" points="546.84,-187.57 555.76,-181.86 545.22,-180.76 546.84,-187.57"/>
</a>
</g>
</g>
<!-- Node26 -->
<g id="Node000026" class="node">
<title>Node26</title>
<g id="a_Node000026"><a xlink:href="a01928.html#a6cc54ee40009c61b5f6526f5edff004f" target="_top" xlink:title=" ">
<polygon fill="white" stroke="#666666" points="809.62,-33.04 707.38,-33.04 707.38,-14.54 809.62,-14.54 809.62,-33.04"/>
<text text-anchor="middle" x="758.5" y="-19.54" font-family="Helvetica,sans-Serif" font-size="10.00">arax_pipe_size_dec</text>
</a>
</g>
</g>
<!-- Node25&#45;&gt;Node26 -->
<g id="edge33_Node000025_Node000026" class="edge">
<title>Node25&#45;&gt;Node26</title>
<g id="a_edge33_Node000025_Node000026"><a xlink:title=" ">
<path fill="none" stroke="#63b8ff" d="M480.64,-88.11C487.51,-85.6 494.41,-82.52 500.5,-78.79 519.79,-66.96 515.99,-52.34 536.5,-42.79 586.55,-19.5 649.84,-16.33 695.86,-18.06"/>
<polygon fill="#63b8ff" stroke="#63b8ff" points="695.5,-21.54 705.65,-18.52 695.83,-14.55 695.5,-21.54"/>
</a>
</g>
</g>
<!-- Node30 -->
<g id="Node000030" class="node">
<title>Node30</title>
<g id="a_Node000030"><a xlink:href="a02355.html#ac9828b5c2758940f6d3c7d4335228de5" target="_top" xlink:title=" ">
<polygon fill="white" stroke="#666666" points="648.88,-107.04 549.62,-107.04 549.62,-88.54 648.88,-88.54 648.88,-107.04"/>
<text text-anchor="middle" x="599.25" y="-93.54" font-family="Helvetica,sans-Serif" font-size="10.00">arch_alloc_allocate</text>
</a>
</g>
</g>
<!-- Node25&#45;&gt;Node30 -->
<g id="edge43_Node000025_Node000030" class="edge">
<title>Node25&#45;&gt;Node30</title>
<g id="a_edge43_Node000025_Node000030"><a xlink:title=" ">
<path fill="none" stroke="#63b8ff" d="M493.68,-97.79C507.77,-97.79 523.16,-97.79 537.7,-97.79"/>
<polygon fill="#63b8ff" stroke="#63b8ff" points="537.62,-101.29 547.62,-97.79 537.62,-94.29 537.62,-101.29"/>
</a>
</g>
</g>
<!-- Node31 -->
<g id="Node000031" class="node">
<title>Node31</title>
<g id="a_Node000031"><a xlink:href="a01955.html#ae06a9e78e6a4f6c9c8afcf0f4862ce29" target="_top" xlink:title=" ">
<polygon fill="white" stroke="#666666" points="635.75,-70.04 562.75,-70.04 562.75,-51.54 635.75,-51.54 635.75,-70.04"/>
<text text-anchor="middle" x="599.25" y="-56.54" font-family="Helvetica,sans-Serif" font-size="10.00">utils_list_add</text>
</a>
</g>
</g>
<!-- Node25&#45;&gt;Node31 -->
<g id="edge44_Node000025_Node000031" class="edge">
<title>Node25&#45;&gt;Node31</title>
<g id="a_edge44_Node000025_Node000031"><a xlink:title=" ">
<path fill="none" stroke="#63b8ff" d="M483.15,-88.07C504.07,-83.11 529.62,-77.05 551.33,-71.91"/>
<polygon fill="#63b8ff" stroke="#63b8ff" points="551.89,-75.37 560.81,-69.66 550.27,-68.56 551.89,-75.37"/>
</a>
</g>
</g>
<!-- Node33 -->
<g id="Node000033" class="node">
<title>Node33</title>
<g id="a_Node000033"><a xlink:href="a01955.html#a63f2791c9b5c8e2fa15967cfafb7ccbb" target="_top" xlink:title=" ">
<polygon fill="white" stroke="#666666" points="647.38,-144.04 551.12,-144.04 551.12,-125.54 647.38,-125.54 647.38,-144.04"/>
<text text-anchor="middle" x="599.25" y="-130.54" font-family="Helvetica,sans-Serif" font-size="10.00">utils_list_node_init</text>
</a>
</g>
</g>
<!-- Node25&#45;&gt;Node33 -->
<g id="edge46_Node000025_Node000033" class="edge">
<title>Node25&#45;&gt;Node33</title>
<g id="a_edge46_Node000025_Node000033"><a xlink:title=" ">
<path fill="none" stroke="#63b8ff" d="M483.15,-107.51C502.43,-112.08 525.64,-117.58 546.16,-122.44"/>
<polygon fill="#63b8ff" stroke="#63b8ff" points="545.22,-125.82 555.76,-124.72 546.84,-119.01 545.22,-125.82"/>
</a>
</g>
</g>
<!-- Node26&#45;&gt;Node26 -->
<g id="edge34_Node000026_Node000026" class="edge">
<title>Node26&#45;&gt;Node26</title>
<g id="a_edge34_Node000026_Node000026"><a xlink:title=" ">
<path fill="none" stroke="#63b8ff" d="M734.88,-33.28C723.39,-41.86 731.26,-51.04 758.5,-51.04 773.82,-51.04 783.02,-48.13 786.08,-44.06"/>
<polygon fill="#63b8ff" stroke="#63b8ff" points="789.38,-42.88 782.64,-34.7 782.81,-45.3 789.38,-42.88"/>
</a>
</g>
</g>
<!-- Node27 -->
<g id="Node000027" class="node">
<title>Node27</title>
<g id="a_Node000027"><a xlink:href="a01940.html#a63b80783cfb3106ec4169ce082f153c0" target="_top" xlink:title=" ">
<polygon fill="white" stroke="#666666" points="1118.75,-97.04 1004.5,-97.04 1004.5,-78.54 1118.75,-78.54 1118.75,-97.04"/>
<text text-anchor="middle" x="1061.62" y="-83.54" font-family="Helvetica,sans-Serif" font-size="10.00">arax_throttle_size_dec</text>
</a>
</g>
</g>
<!-- Node26&#45;&gt;Node27 -->
<g id="edge35_Node000026_Node000027" class="edge">
<title>Node26&#45;&gt;Node27</title>
<g id="a_edge35_Node000026_Node000027"><a xlink:title=" ">
<path fill="none" stroke="#63b8ff" d="M805.23,-33.51C858.45,-44.82 946.35,-63.5 1003.87,-75.73"/>
<polygon fill="#63b8ff" stroke="#63b8ff" points="1002.96,-79.11 1013.47,-77.77 1004.42,-72.26 1002.96,-79.11"/>
</a>
</g>
</g>
<!-- Node27&#45;&gt;Node12 -->
<g id="edge37_Node000027_Node000012" class="edge">
<title>Node27&#45;&gt;Node12</title>
<g id="a_edge37_Node000027_Node000012"><a xlink:title=" ">
<path fill="none" stroke="#63b8ff" d="M1103.45,-97.53C1121.32,-101.79 1142.48,-106.84 1161.46,-111.37"/>
<polygon fill="#63b8ff" stroke="#63b8ff" points="1160.63,-114.77 1171.17,-113.69 1162.25,-107.96 1160.63,-114.77"/>
</a>
</g>
</g>
<!-- Node27&#45;&gt;Node16 -->
<g id="edge38_Node000027_Node000016" class="edge">
<title>Node27&#45;&gt;Node16</title>
<g id="a_edge38_Node000027_Node000016"><a xlink:title=" ">
<path fill="none" stroke="#63b8ff" d="M1076.78,-97.4C1094.44,-109.08 1125.82,-128.82 1154.75,-141.79 1159.1,-143.74 1163.7,-145.58 1168.35,-147.3"/>
<polygon fill="#63b8ff" stroke="#63b8ff" points="1167.14,-150.58 1177.73,-150.57 1169.44,-143.97 1167.14,-150.58"/>
</a>
</g>
</g>
<!-- Node27&#45;&gt;Node27 -->
<g id="edge36_Node000027_Node000027" class="edge">
<title>Node27&#45;&gt;Node27</title>
<g id="a_edge36_Node000027_Node000027"><a xlink:title=" ">
<path fill="none" stroke="#63b8ff" d="M1038.52,-97.28C1027.29,-105.86 1034.99,-115.04 1061.62,-115.04 1076.61,-115.04 1085.6,-112.13 1088.6,-108.06"/>
<polygon fill="#63b8ff" stroke="#63b8ff" points="1091.91,-106.93 1085.24,-98.71 1085.33,-109.3 1091.91,-106.93"/>
</a>
</g>
</g>
<!-- Node28 -->
<g id="Node000028" class="node">
<title>Node28</title>
<g id="a_Node000028"><a xlink:href="a02364.html#a1bfeaeb9b81855e640d7a67cc9d92b17" target="_top" xlink:title=" ">
<polygon fill="white" stroke="#666666" points="1268.62,-96.04 1160.38,-96.04 1160.38,-77.54 1268.62,-77.54 1268.62,-96.04"/>
<text text-anchor="middle" x="1214.5" y="-82.54" font-family="Helvetica,sans-Serif" font-size="10.00">async_condition_wait</text>
</a>
</g>
</g>
<!-- Node27&#45;&gt;Node28 -->
<g id="edge39_Node000027_Node000028" class="edge">
<title>Node27&#45;&gt;Node28</title>
<g id="a_edge39_Node000027_Node000028"><a xlink:title=" ">
<path fill="none" stroke="#63b8ff" d="M1119.23,-87.41C1128.85,-87.35 1138.9,-87.28 1148.71,-87.22"/>
<polygon fill="#63b8ff" stroke="#63b8ff" points="1148.58,-90.72 1158.55,-87.15 1148.53,-83.72 1148.58,-90.72"/>
</a>
</g>
</g>
<!-- Node28&#45;&gt;Node13 -->
<g id="edge41_Node000028_Node000013" class="edge">
<title>Node28&#45;&gt;Node13</title>
<g id="a_edge41_Node000028_Node000013"><a xlink:title=" ">
<path fill="none" stroke="#63b8ff" d="M1258.39,-96.51C1278.74,-101.12 1303.28,-106.68 1324.87,-111.58"/>
<polygon fill="#63b8ff" stroke="#63b8ff" points="1323.86,-114.94 1334.39,-113.73 1325.41,-108.11 1323.86,-114.94"/>
</a>
</g>
</g>
<!-- Node28&#45;&gt;Node17 -->
<g id="edge40_Node000028_Node000017" class="edge">
<title>Node28&#45;&gt;Node17</title>
<g id="a_edge40_Node000028_Node000017"><a xlink:title=" ">
<path fill="none" stroke="#63b8ff" d="M1254.27,-96.44C1261.18,-98.95 1268.12,-102.04 1274.25,-105.79 1293.55,-117.6 1290.7,-130.39 1310.25,-141.79 1313.6,-143.74 1317.17,-145.51 1320.84,-147.09"/>
<polygon fill="#63b8ff" stroke="#63b8ff" points="1319.38,-150.28 1329.97,-150.57 1321.87,-143.74 1319.38,-150.28"/>
</a>
</g>
</g>
<!-- Node29 -->
<g id="Node000029" class="node">
<title>Node29</title>
<g id="a_Node000029"><a xlink:href="a02358.html#a7ab7c7fe9cb93434dde72a4e464a7e69" target="_top" xlink:title=" ">
<polygon fill="white" stroke="#666666" points="1437.62,-96.04 1321.88,-96.04 1321.88,-77.54 1437.62,-77.54 1437.62,-96.04"/>
<text text-anchor="middle" x="1379.75" y="-82.54" font-family="Helvetica,sans-Serif" font-size="10.00">async_semaphore_dec</text>
</a>
</g>
</g>
<!-- Node28&#45;&gt;Node29 -->
<g id="edge42_Node000028_Node000029" class="edge">
<title>Node28&#45;&gt;Node29</title>
<g id="a_edge42_Node000028_Node000029"><a xlink:title=" ">
<path fill="none" stroke="#63b8ff" d="M1268.95,-86.79C1282.1,-86.79 1296.36,-86.79 1310.12,-86.79"/>
<polygon fill="#63b8ff" stroke="#63b8ff" points="1310.01,-90.29 1320.01,-86.79 1310.01,-83.29 1310.01,-90.29"/>
</a>
</g>
</g>
<!-- Node32 -->
<g id="Node000032" class="node">
<title>Node32</title>
<g id="a_Node000032"><a xlink:href="a01955.html#a5c575f52a42e0e0d2fb41bda2d1268ce" target="_top" xlink:title=" ">
<polygon fill="white" stroke="#666666" points="808.12,-88.04 708.88,-88.04 708.88,-69.54 808.12,-69.54 808.12,-88.04"/>
<text text-anchor="middle" x="758.5" y="-74.54" font-family="Helvetica,sans-Serif" font-size="10.00">utils_list_node_add</text>
</a>
</g>
</g>
<!-- Node31&#45;&gt;Node32 -->
<g id="edge45_Node000031_Node000032" class="edge">
<title>Node31&#45;&gt;Node32</title>
<g id="a_edge45_Node000031_Node000032"><a xlink:title=" ">
<path fill="none" stroke="#63b8ff" d="M635.93,-64.87C654.05,-66.95 676.56,-69.52 697.27,-71.89"/>
<polygon fill="#63b8ff" stroke="#63b8ff" points="696.71,-75.35 707.04,-73.01 697.51,-68.4 696.71,-75.35"/>
</a>
</g>
</g>
<!-- Node34&#45;&gt;Node33 -->
<g id="edge48_Node000034_Node000033" class="edge">
<title>Node34&#45;&gt;Node33</title>
<g id="a_edge48_Node000034_Node000033"><a xlink:title=" ">
<path fill="none" stroke="#63b8ff" d="M497.61,-134.79C511.17,-134.79 525.72,-134.79 539.43,-134.79"/>
<polygon fill="#63b8ff" stroke="#63b8ff" points="539.19,-138.29 549.19,-134.79 539.19,-131.29 539.19,-138.29"/>
</a>
</g>
</g>
<!-- Node36&#45;&gt;Node3 -->
<g id="edge51_Node000036_Node000003" class="edge">
<title>Node36&#45;&gt;Node3</title>
<g id="a_edge51_Node000036_Node000003"><a xlink:title=" ">
<path fill="none" stroke="#63b8ff" d="M631.47,-350.1C641.49,-346.48 652.45,-341.98 662,-336.79 690.29,-321.41 719.52,-298.45 738.07,-282.83"/>
<polygon fill="#63b8ff" stroke="#63b8ff" points="740.27,-285.56 745.59,-276.39 735.71,-280.24 740.27,-285.56"/>
</a>
</g>
</g>
<!-- Node37 -->
<g id="Node000037" class="node">
<title>Node37</title>
<g id="a_Node000037"><a xlink:href="a01943.html#a8b82433bc8c7d7f03683ac521a3679fa" target="_top" xlink:title=" ">
<polygon fill="white" stroke="#666666" points="968.5,-282.04 855,-282.04 855,-263.54 968.5,-263.54 968.5,-282.04"/>
<text text-anchor="middle" x="911.75" y="-268.54" font-family="Helvetica,sans-Serif" font-size="10.00">arax_vaccel_add_task</text>
</a>
</g>
</g>
<!-- Node36&#45;&gt;Node37 -->
<g id="edge52_Node000036_Node000037" class="edge">
<title>Node36&#45;&gt;Node37</title>
<g id="a_edge52_Node000036_Node000037"><a xlink:title=" ">
<path fill="none" stroke="#63b8ff" d="M634.96,-350.06C691.39,-334.25 802.99,-302.98 865.55,-285.45"/>
<polygon fill="#63b8ff" stroke="#63b8ff" points="866.12,-288.93 874.8,-282.86 864.23,-282.19 866.12,-288.93"/>
</a>
</g>
</g>
<!-- Node38 -->
<g id="Node000038" class="node">
<title>Node38</title>
<g id="a_Node000038"><a xlink:href="a01916.html#ab6afd8cc035237c811ce6a1b7727acc3" target="_top" xlink:title=" ">
<polygon fill="white" stroke="#666666" points="1116.12,-207.04 1007.12,-207.04 1007.12,-188.54 1116.12,-188.54 1116.12,-207.04"/>
<text text-anchor="middle" x="1061.62" y="-193.54" font-family="Helvetica,sans-Serif" font-size="10.00">arax_accel_add_task</text>
</a>
</g>
</g>
<!-- Node37&#45;&gt;Node38 -->
<g id="edge53_Node000037_Node000038" class="edge">
<title>Node37&#45;&gt;Node38</title>
<g id="a_edge53_Node000037_Node000038"><a xlink:title=" ">
<path fill="none" stroke="#63b8ff" d="M931.78,-263.14C957.07,-250.31 1001.99,-227.53 1031.54,-212.54"/>
<polygon fill="#63b8ff" stroke="#63b8ff" points="1032.98,-215.73 1040.32,-208.09 1029.82,-209.49 1032.98,-215.73"/>
</a>
</g>
</g>
<!-- Node39 -->
<g id="Node000039" class="node">
<title>Node39</title>
<g id="a_Node000039"><a xlink:href="a01958.html#a9fae55b169121c4851bb7c0adf4eac47" target="_top" xlink:title=" ">
<polygon fill="white" stroke="#666666" points="1107.5,-282.04 1015.75,-282.04 1015.75,-263.54 1107.5,-263.54 1107.5,-282.04"/>
<text text-anchor="middle" x="1061.62" y="-268.54" font-family="Helvetica,sans-Serif" font-size="10.00">utils_queue_push</text>
</a>
</g>
</g>
<!-- Node37&#45;&gt;Node39 -->
<g id="edge57_Node000037_Node000039" class="edge">
<title>Node37&#45;&gt;Node39</title>
<g id="a_edge57_Node000037_Node000039"><a xlink:title=" ">
<path fill="none" stroke="#63b8ff" d="M968.66,-272.79C980.31,-272.79 992.6,-272.79 1004.27,-272.79"/>
<polygon fill="#63b8ff" stroke="#63b8ff" points="1004.18,-276.29 1014.18,-272.79 1004.18,-269.29 1004.18,-276.29"/>
</a>
</g>
</g>
<!-- Node38&#45;&gt;Node12 -->
<g id="edge54_Node000038_Node000012" class="edge">
<title>Node38&#45;&gt;Node12</title>
<g id="a_edge54_Node000038_Node000012"><a xlink:title=" ">
<path fill="none" stroke="#63b8ff" d="M1099.36,-188.07C1106.06,-185.55 1112.81,-182.48 1118.75,-178.79 1137.97,-166.85 1135.45,-154.6 1154.75,-142.79 1157.72,-140.97 1160.88,-139.31 1164.13,-137.8"/>
<polygon fill="#63b8ff" stroke="#63b8ff" points="1165.42,-141.05 1173.33,-134.01 1162.75,-134.58 1165.42,-141.05"/>
</a>
</g>
</g>
<!-- Node38&#45;&gt;Node14 -->
<g id="edge55_Node000038_Node000014" class="edge">
<title>Node38&#45;&gt;Node14</title>
<g id="a_edge55_Node000038_Node000014"><a xlink:title=" ">
<path fill="none" stroke="#63b8ff" d="M1116.24,-197.79C1125.68,-197.79 1135.61,-197.79 1145.38,-197.79"/>
<polygon fill="#63b8ff" stroke="#63b8ff" points="1145.22,-201.29 1155.22,-197.79 1145.22,-194.29 1145.22,-201.29"/>
</a>
</g>
</g>
<!-- Node38&#45;&gt;Node16 -->
<g id="edge56_Node000038_Node000016" class="edge">
<title>Node38&#45;&gt;Node16</title>
<g id="a_edge56_Node000038_Node000016"><a xlink:title=" ">
<path fill="none" stroke="#63b8ff" d="M1102.27,-188.07C1120.82,-183.52 1143.13,-178.05 1162.88,-173.2"/>
<polygon fill="#63b8ff" stroke="#63b8ff" points="1163.51,-176.65 1172.39,-170.87 1161.85,-169.85 1163.51,-176.65"/>
</a>
</g>
</g>
</g>
</svg>
