<?xml version="1.0" encoding="UTF-8" standalone="no"?>
<!DOCTYPE svg PUBLIC "-//W3C//DTD SVG 1.1//EN"
 "http://www.w3.org/Graphics/SVG/1.1/DTD/svg11.dtd">
<!-- Generated by graphviz version 12.2.1 (0)
 -->
<!-- Title: arax_accel_init Pages: 1 -->
<svg width="1016pt" height="514pt"
 viewBox="0.00 0.00 1016.25 513.50" xmlns="http://www.w3.org/2000/svg" xmlns:xlink="http://www.w3.org/1999/xlink">
<g id="graph0" class="graph" transform="scale(1 1) rotate(0) translate(4 509.5)">
<title>arax_accel_init</title>
<!-- Node1 -->
<g id="Node000001" class="node">
<title>Node1</title>
<g id="a_Node000001"><a xlink:title=" ">
<polygon fill="#999999" stroke="#666666" points="82,-225.5 0,-225.5 0,-207 82,-207 82,-225.5"/>
<text text-anchor="middle" x="41" y="-212" font-family="Helvetica,sans-Serif" font-size="10.00">arax_accel_init</text>
</a>
</g>
</g>
<!-- Node2 -->
<g id="Node000002" class="node">
<title>Node2</title>
<g id="a_Node000002"><a xlink:href="a01925.html#a402bbd6fa197c2c48d527325e5e2cf5b" target="_top" xlink:title=" ">
<polygon fill="white" stroke="#666666" points="347.25,-414.5 242.75,-414.5 242.75,-396 347.25,-396 347.25,-414.5"/>
<text text-anchor="middle" x="295" y="-401" font-family="Helvetica,sans-Serif" font-size="10.00">arax_object_register</text>
</a>
</g>
</g>
<!-- Node1&#45;&gt;Node2 -->
<g id="edge1_Node000001_Node000002" class="edge">
<title>Node1&#45;&gt;Node2</title>
<g id="a_edge1_Node000001_Node000002"><a xlink:title=" ">
<path fill="none" stroke="#63b8ff" d="M46.31,-225.89C56.16,-246.94 82.27,-297.53 118,-327.25 156,-358.86 208.84,-379.98 246.69,-392.18"/>
<polygon fill="#63b8ff" stroke="#63b8ff" points="245.39,-395.44 255.98,-395.08 247.48,-388.76 245.39,-395.44"/>
</a>
</g>
</g>
<!-- Node15 -->
<g id="Node000015" class="node">
<title>Node15</title>
<g id="a_Node000015"><a xlink:href="a01940.html#acf84ea82594c4dbe91cf602ee078e04d" target="_top" xlink:title=" ">
<polygon fill="white" stroke="#666666" points="206.75,-183.5 118,-183.5 118,-165 206.75,-165 206.75,-183.5"/>
<text text-anchor="middle" x="162.38" y="-170" font-family="Helvetica,sans-Serif" font-size="10.00">arax_throttle_init</text>
</a>
</g>
</g>
<!-- Node1&#45;&gt;Node15 -->
<g id="edge18_Node000001_Node000015" class="edge">
<title>Node1&#45;&gt;Node15</title>
<g id="a_edge18_Node000001_Node000015"><a xlink:title=" ">
<path fill="none" stroke="#63b8ff" d="M69.69,-206.51C85.66,-200.89 105.97,-193.74 123.41,-187.61"/>
<polygon fill="#63b8ff" stroke="#63b8ff" points="124.14,-191.06 132.41,-184.44 121.82,-184.46 124.14,-191.06"/>
</a>
</g>
</g>
<!-- Node16 -->
<g id="Node000016" class="node">
<title>Node16</title>
<g id="a_Node000016"><a xlink:href="a02364.html#ac7fbf1f43289d3e0e862b315f00e35e2" target="_top" xlink:title=" ">
<polygon fill="white" stroke="#666666" points="346.88,-111.5 243.12,-111.5 243.12,-93 346.88,-93 346.88,-111.5"/>
<text text-anchor="middle" x="295" y="-98" font-family="Helvetica,sans-Serif" font-size="10.00">async_condition_init</text>
</a>
</g>
</g>
<!-- Node1&#45;&gt;Node16 -->
<g id="edge49_Node000001_Node000016" class="edge">
<title>Node1&#45;&gt;Node16</title>
<g id="a_edge49_Node000001_Node000016"><a xlink:title=" ">
<path fill="none" stroke="#63b8ff" d="M51.49,-206.8C65.11,-193.73 91.5,-170.15 118,-156.25 154.78,-136.96 199.56,-123.34 234.75,-114.61"/>
<polygon fill="#63b8ff" stroke="#63b8ff" points="235.45,-118.04 244.35,-112.29 233.81,-111.23 235.45,-118.04"/>
</a>
</g>
</g>
<!-- Node21 -->
<g id="Node000021" class="node">
<title>Node21</title>
<g id="a_Node000021"><a xlink:href="a01943.html#a83ddb422946cf774c687c1ab63dcda15" target="_top" xlink:title=" ">
<polygon fill="white" stroke="#666666" points="205.62,-318.5 119.12,-318.5 119.12,-300 205.62,-300 205.62,-318.5"/>
<text text-anchor="middle" x="162.38" y="-305" font-family="Helvetica,sans-Serif" font-size="10.00">arax_vaccel_init</text>
</a>
</g>
</g>
<!-- Node1&#45;&gt;Node21 -->
<g id="edge25_Node000001_Node000021" class="edge">
<title>Node1&#45;&gt;Node21</title>
<g id="a_edge25_Node000001_Node000021"><a xlink:title=" ">
<path fill="none" stroke="#63b8ff" d="M54.33,-225.85C74.52,-241.58 114.9,-273.04 139.89,-292.51"/>
<polygon fill="#63b8ff" stroke="#63b8ff" points="137.7,-295.25 147.74,-298.63 142.01,-289.72 137.7,-295.25"/>
</a>
</g>
</g>
<!-- Node34 -->
<g id="Node000034" class="node">
<title>Node34</title>
<g id="a_Node000034"><a xlink:href="a01955.html#ab36e49d2e694b1da49504a689ed48e4a" target="_top" xlink:title=" ">
<polygon fill="white" stroke="#666666" points="197.38,-225.5 127.38,-225.5 127.38,-207 197.38,-207 197.38,-225.5"/>
<text text-anchor="middle" x="162.38" y="-212" font-family="Helvetica,sans-Serif" font-size="10.00">utils_list_init</text>
</a>
</g>
</g>
<!-- Node1&#45;&gt;Node34 -->
<g id="edge50_Node000001_Node000034" class="edge">
<title>Node1&#45;&gt;Node34</title>
<g id="a_edge50_Node000001_Node000034"><a xlink:title=" ">
<path fill="none" stroke="#63b8ff" d="M82.41,-216.25C93.04,-216.25 104.59,-216.25 115.48,-216.25"/>
<polygon fill="#63b8ff" stroke="#63b8ff" points="115.46,-219.75 125.46,-216.25 115.46,-212.75 115.46,-219.75"/>
</a>
</g>
</g>
<!-- Node3 -->
<g id="Node000003" class="node">
<title>Node3</title>
<g id="a_Node000003"><a xlink:href="a01928.html#a6cc54ee40009c61b5f6526f5edff004f" target="_top" xlink:title=" ">
<polygon fill="white" stroke="#666666" points="494.12,-417.5 391.88,-417.5 391.88,-399 494.12,-399 494.12,-417.5"/>
<text text-anchor="middle" x="443" y="-404" font-family="Helvetica,sans-Serif" font-size="10.00">arax_pipe_size_dec</text>
</a>
</g>
</g>
<!-- Node2&#45;&gt;Node3 -->
<g id="edge2_Node000002_Node000003" class="edge">
<title>Node2&#45;&gt;Node3</title>
<g id="a_edge2_Node000002_Node000003"><a xlink:title=" ">
<path fill="none" stroke="#63b8ff" d="M347.47,-406.31C358.08,-406.53 369.34,-406.76 380.27,-406.98"/>
<polygon fill="#63b8ff" stroke="#63b8ff" points="379.9,-410.47 389.97,-407.18 380.04,-403.48 379.9,-410.47"/>
</a>
</g>
</g>
<!-- Node11 -->
<g id="Node000011" class="node">
<title>Node11</title>
<g id="a_Node000011"><a xlink:href="a02355.html#ac9828b5c2758940f6d3c7d4335228de5" target="_top" xlink:title=" ">
<polygon fill="white" stroke="#666666" points="492.62,-472.5 393.38,-472.5 393.38,-454 492.62,-454 492.62,-472.5"/>
<text text-anchor="middle" x="443" y="-459" font-family="Helvetica,sans-Serif" font-size="10.00">arch_alloc_allocate</text>
</a>
</g>
</g>
<!-- Node2&#45;&gt;Node11 -->
<g id="edge14_Node000002_Node000011" class="edge">
<title>Node2&#45;&gt;Node11</title>
<g id="a_edge14_Node000002_Node000011"><a xlink:title=" ">
<path fill="none" stroke="#63b8ff" d="M315.84,-414.85C333.36,-423.16 359.71,-435.21 383.25,-444.25 388.3,-446.19 393.64,-448.1 398.97,-449.92"/>
<polygon fill="#63b8ff" stroke="#63b8ff" points="397.74,-453.2 408.33,-453.04 399.94,-446.56 397.74,-453.2"/>
</a>
</g>
</g>
<!-- Node12 -->
<g id="Node000012" class="node">
<title>Node12</title>
<g id="a_Node000012"><a xlink:href="a01955.html#ae06a9e78e6a4f6c9c8afcf0f4862ce29" target="_top" xlink:title=" ">
<polygon fill="white" stroke="#666666" points="644.75,-505.5 571.75,-505.5 571.75,-487 644.75,-487 644.75,-505.5"/>
<text text-anchor="middle" x="608.25" y="-492" font-family="Helvetica,sans-Serif" font-size="10.00">utils_list_add</text>
</a>
</g>
</g>
<!-- Node2&#45;&gt;Node12 -->
<g id="edge15_Node000002_Node000012" class="edge">
<title>Node2&#45;&gt;Node12</title>
<g id="a_edge15_Node000002_Node000012"><a xlink:title=" ">
<path fill="none" stroke="#63b8ff" d="M303.37,-414.89C317,-431.87 347.97,-466.68 383.25,-481.25 440.7,-504.98 513.51,-504.97 560.24,-501.58"/>
<polygon fill="#63b8ff" stroke="#63b8ff" points="560.34,-505.08 570.02,-500.78 559.77,-498.11 560.34,-505.08"/>
</a>
</g>
</g>
<!-- Node14 -->
<g id="Node000014" class="node">
<title>Node14</title>
<g id="a_Node000014"><a xlink:href="a01955.html#a63f2791c9b5c8e2fa15967cfafb7ccbb" target="_top" xlink:title=" ">
<polygon fill="white" stroke="#666666" points="491.12,-333.5 394.88,-333.5 394.88,-315 491.12,-315 491.12,-333.5"/>
<text text-anchor="middle" x="443" y="-320" font-family="Helvetica,sans-Serif" font-size="10.00">utils_list_node_init</text>
</a>
</g>
</g>
<!-- Node2&#45;&gt;Node14 -->
<g id="edge17_Node000002_Node000014" class="edge">
<title>Node2&#45;&gt;Node14</title>
<g id="a_edge17_Node000002_Node000014"><a xlink:title=" ">
<path fill="none" stroke="#63b8ff" d="M307.13,-395.62C323.05,-382.27 353.69,-358.09 383.25,-343.25 387.18,-341.28 391.36,-339.45 395.6,-337.77"/>
<polygon fill="#63b8ff" stroke="#63b8ff" points="396.58,-341.14 404.78,-334.42 394.18,-334.56 396.58,-341.14"/>
</a>
</g>
</g>
<!-- Node3&#45;&gt;Node3 -->
<g id="edge3_Node000003_Node000003" class="edge">
<title>Node3&#45;&gt;Node3</title>
<g id="a_edge3_Node000003_Node000003"><a xlink:title=" ">
<path fill="none" stroke="#63b8ff" d="M420.19,-417.75C409.09,-426.32 416.7,-435.5 443,-435.5 457.8,-435.5 466.68,-432.59 469.64,-428.53"/>
<polygon fill="#63b8ff" stroke="#63b8ff" points="472.96,-427.43 466.32,-419.17 466.36,-429.77 472.96,-427.43"/>
</a>
</g>
</g>
<!-- Node4 -->
<g id="Node000004" class="node">
<title>Node4</title>
<g id="a_Node000004"><a xlink:href="a01940.html#a63b80783cfb3106ec4169ce082f153c0" target="_top" xlink:title=" ">
<polygon fill="white" stroke="#666666" points="665.38,-450.5 551.12,-450.5 551.12,-432 665.38,-432 665.38,-450.5"/>
<text text-anchor="middle" x="608.25" y="-437" font-family="Helvetica,sans-Serif" font-size="10.00">arax_throttle_size_dec</text>
</a>
</g>
</g>
<!-- Node3&#45;&gt;Node4 -->
<g id="edge4_Node000003_Node000004" class="edge">
<title>Node3&#45;&gt;Node4</title>
<g id="a_edge4_Node000003_Node000004"><a xlink:title=" ">
<path fill="none" stroke="#63b8ff" d="M492.1,-417.97C509.62,-421.52 529.64,-425.56 548.02,-429.28"/>
<polygon fill="#63b8ff" stroke="#63b8ff" points="547.24,-432.69 557.73,-431.24 548.62,-425.83 547.24,-432.69"/>
</a>
</g>
</g>
<!-- Node4&#45;&gt;Node4 -->
<g id="edge5_Node000004_Node000004" class="edge">
<title>Node4&#45;&gt;Node4</title>
<g id="a_edge5_Node000004_Node000004"><a xlink:title=" ">
<path fill="none" stroke="#63b8ff" d="M582.78,-450.75C570.39,-459.32 578.88,-468.5 608.25,-468.5 625.23,-468.5 635.23,-465.43 638.25,-461.19"/>
<polygon fill="#63b8ff" stroke="#63b8ff" points="641.52,-459.91 634.32,-452.13 635.1,-462.7 641.52,-459.91"/>
</a>
</g>
</g>
<!-- Node5 -->
<g id="Node000005" class="node">
<title>Node5</title>
<g id="a_Node000005"><a xlink:href="a02364.html#aed6af4d83e934e3e654ead541b15f2d9" target="_top" xlink:title=" ">
<polygon fill="white" stroke="#666666" points="828,-382.5 719,-382.5 719,-364 828,-364 828,-382.5"/>
<text text-anchor="middle" x="773.5" y="-369" font-family="Helvetica,sans-Serif" font-size="10.00">async_condition_lock</text>
</a>
</g>
</g>
<!-- Node4&#45;&gt;Node5 -->
<g id="edge6_Node000004_Node000005" class="edge">
<title>Node4&#45;&gt;Node5</title>
<g id="a_edge6_Node000004_Node000005"><a xlink:title=" ">
<path fill="none" stroke="#63b8ff" d="M644.93,-431.52C655.75,-427.98 667.48,-423.53 677.75,-418.25 695.3,-409.23 696.15,-401.17 713.75,-392.25 717.62,-390.29 721.73,-388.47 725.92,-386.8"/>
<polygon fill="#63b8ff" stroke="#63b8ff" points="726.77,-390.22 734.95,-383.49 724.35,-383.65 726.77,-390.22"/>
</a>
</g>
</g>
<!-- Node7 -->
<g id="Node000007" class="node">
<title>Node7</title>
<g id="a_Node000007"><a xlink:href="a02364.html#a3bbcb7c4c024e99d5c4ba52b61dfbbf7" target="_top" xlink:title=" ">
<polygon fill="white" stroke="#666666" points="833.25,-277.5 713.75,-277.5 713.75,-259 833.25,-259 833.25,-277.5"/>
<text text-anchor="middle" x="773.5" y="-264" font-family="Helvetica,sans-Serif" font-size="10.00">async_condition_unlock</text>
</a>
</g>
</g>
<!-- Node4&#45;&gt;Node7 -->
<g id="edge8_Node000004_Node000007" class="edge">
<title>Node4&#45;&gt;Node7</title>
<g id="a_edge8_Node000004_Node000007"><a xlink:title=" ">
<path fill="none" stroke="#63b8ff" d="M623.67,-431.59C638.94,-420.71 662.87,-401.71 677.75,-380.25 703.01,-343.83 681.54,-317.69 713.75,-287.25 715.14,-285.93 716.63,-284.71 718.18,-283.57"/>
<polygon fill="#63b8ff" stroke="#63b8ff" points="719.62,-286.79 726.45,-278.69 716.06,-280.76 719.62,-286.79"/>
</a>
</g>
</g>
<!-- Node9 -->
<g id="Node000009" class="node">
<title>Node9</title>
<g id="a_Node000009"><a xlink:href="a02364.html#a1bfeaeb9b81855e640d7a67cc9d92b17" target="_top" xlink:title=" ">
<polygon fill="white" stroke="#666666" points="827.62,-419.5 719.38,-419.5 719.38,-401 827.62,-401 827.62,-419.5"/>
<text text-anchor="middle" x="773.5" y="-406" font-family="Helvetica,sans-Serif" font-size="10.00">async_condition_wait</text>
</a>
</g>
</g>
<!-- Node4&#45;&gt;Node9 -->
<g id="edge10_Node000004_Node000009" class="edge">
<title>Node4&#45;&gt;Node9</title>
<g id="a_edge10_Node000004_Node000009"><a xlink:title=" ">
<path fill="none" stroke="#63b8ff" d="M660.46,-431.53C676.18,-428.54 693.67,-425.22 710.06,-422.11"/>
<polygon fill="#63b8ff" stroke="#63b8ff" points="710.54,-425.58 719.71,-420.27 709.23,-418.7 710.54,-425.58"/>
</a>
</g>
</g>
<!-- Node6 -->
<g id="Node000006" class="node">
<title>Node6</title>
<g id="a_Node000006"><a xlink:href="a02358.html#aebf9e72bb6cbd8b9e33489d46c25075d" target="_top" xlink:title=" ">
<polygon fill="white" stroke="#666666" points="997,-382.5 880.5,-382.5 880.5,-364 997,-364 997,-382.5"/>
<text text-anchor="middle" x="938.75" y="-369" font-family="Helvetica,sans-Serif" font-size="10.00">async_completion_wait</text>
</a>
</g>
</g>
<!-- Node5&#45;&gt;Node6 -->
<g id="edge7_Node000005_Node000006" class="edge">
<title>Node5&#45;&gt;Node6</title>
<g id="a_edge7_Node000005_Node000006"><a xlink:title=" ">
<path fill="none" stroke="#63b8ff" d="M828.41,-373.25C841.39,-373.25 855.44,-373.25 869.01,-373.25"/>
<polygon fill="#63b8ff" stroke="#63b8ff" points="868.74,-376.75 878.74,-373.25 868.74,-369.75 868.74,-376.75"/>
</a>
</g>
</g>
<!-- Node8 -->
<g id="Node000008" class="node">
<title>Node8</title>
<g id="a_Node000008"><a xlink:href="a02358.html#ad1d30ecbf6bff6457b680aa940281072" target="_top" xlink:title=" ">
<polygon fill="white" stroke="#666666" points="1008.25,-277.5 869.25,-277.5 869.25,-259 1008.25,-259 1008.25,-277.5"/>
<text text-anchor="middle" x="938.75" y="-264" font-family="Helvetica,sans-Serif" font-size="10.00">async_completion_complete</text>
</a>
</g>
</g>
<!-- Node7&#45;&gt;Node8 -->
<g id="edge9_Node000007_Node000008" class="edge">
<title>Node7&#45;&gt;Node8</title>
<g id="a_edge9_Node000007_Node000008"><a xlink:title=" ">
<path fill="none" stroke="#63b8ff" d="M833.44,-268.25C841.26,-268.25 849.38,-268.25 857.49,-268.25"/>
<polygon fill="#63b8ff" stroke="#63b8ff" points="857.39,-271.75 867.39,-268.25 857.39,-264.75 857.39,-271.75"/>
</a>
</g>
</g>
<!-- Node9&#45;&gt;Node6 -->
<g id="edge12_Node000009_Node000006" class="edge">
<title>Node9&#45;&gt;Node6</title>
<g id="a_edge12_Node000009_Node000006"><a xlink:title=" ">
<path fill="none" stroke="#63b8ff" d="M817.39,-400.53C837.74,-395.92 862.28,-390.35 883.87,-385.46"/>
<polygon fill="#63b8ff" stroke="#63b8ff" points="884.41,-388.93 893.39,-383.31 882.86,-382.1 884.41,-388.93"/>
</a>
</g>
</g>
<!-- Node9&#45;&gt;Node8 -->
<g id="edge11_Node000009_Node000008" class="edge">
<title>Node9&#45;&gt;Node8</title>
<g id="a_edge11_Node000009_Node000008"><a xlink:title=" ">
<path fill="none" stroke="#63b8ff" d="M814.76,-400.54C821.23,-398.06 827.64,-395.01 833.25,-391.25 844.33,-383.84 896.69,-319.47 922.83,-286.92"/>
<polygon fill="#63b8ff" stroke="#63b8ff" points="925.56,-289.12 929.08,-279.13 920.09,-284.74 925.56,-289.12"/>
</a>
</g>
</g>
<!-- Node10 -->
<g id="Node000010" class="node">
<title>Node10</title>
<g id="a_Node000010"><a xlink:href="a02358.html#a7ab7c7fe9cb93434dde72a4e464a7e69" target="_top" xlink:title=" ">
<polygon fill="white" stroke="#666666" points="996.62,-419.5 880.88,-419.5 880.88,-401 996.62,-401 996.62,-419.5"/>
<text text-anchor="middle" x="938.75" y="-406" font-family="Helvetica,sans-Serif" font-size="10.00">async_semaphore_dec</text>
</a>
</g>
</g>
<!-- Node9&#45;&gt;Node10 -->
<g id="edge13_Node000009_Node000010" class="edge">
<title>Node9&#45;&gt;Node10</title>
<g id="a_edge13_Node000009_Node000010"><a xlink:title=" ">
<path fill="none" stroke="#63b8ff" d="M827.95,-410.25C841.1,-410.25 855.36,-410.25 869.12,-410.25"/>
<polygon fill="#63b8ff" stroke="#63b8ff" points="869.01,-413.75 879.01,-410.25 869.01,-406.75 869.01,-413.75"/>
</a>
</g>
</g>
<!-- Node13 -->
<g id="Node000013" class="node">
<title>Node13</title>
<g id="a_Node000013"><a xlink:href="a01955.html#a5c575f52a42e0e0d2fb41bda2d1268ce" target="_top" xlink:title=" ">
<polygon fill="white" stroke="#666666" points="823.12,-505.5 723.88,-505.5 723.88,-487 823.12,-487 823.12,-505.5"/>
<text text-anchor="middle" x="773.5" y="-492" font-family="Helvetica,sans-Serif" font-size="10.00">utils_list_node_add</text>
</a>
</g>
</g>
<!-- Node12&#45;&gt;Node13 -->
<g id="edge16_Node000012_Node000013" class="edge">
<title>Node12&#45;&gt;Node13</title>
<g id="a_edge16_Node000012_Node000013"><a xlink:title=" ">
<path fill="none" stroke="#63b8ff" d="M645.08,-496.25C664.66,-496.25 689.44,-496.25 711.93,-496.25"/>
<polygon fill="#63b8ff" stroke="#63b8ff" points="711.93,-499.75 721.93,-496.25 711.93,-492.75 711.93,-499.75"/>
</a>
</g>
</g>
<!-- Node15&#45;&gt;Node16 -->
<g id="edge19_Node000015_Node000016" class="edge">
<title>Node15&#45;&gt;Node16</title>
<g id="a_edge19_Node000015_Node000016"><a xlink:title=" ">
<path fill="none" stroke="#63b8ff" d="M180.99,-164.54C203.03,-152.39 240.98,-131.47 266.77,-117.26"/>
<polygon fill="#63b8ff" stroke="#63b8ff" points="268.27,-120.43 275.34,-112.54 264.89,-114.3 268.27,-120.43"/>
</a>
</g>
</g>
<!-- Node16&#45;&gt;Node8 -->
<g id="edge20_Node000016_Node000008" class="edge">
<title>Node16&#45;&gt;Node8</title>
<g id="a_edge20_Node000016_Node000008"><a xlink:title=" ">
<path fill="none" stroke="#63b8ff" d="M347.06,-96.12C464.67,-82.98 750.88,-56.77 833.25,-102.25 890.3,-133.75 920.45,-210.92 932.04,-247.87"/>
<polygon fill="#63b8ff" stroke="#63b8ff" points="928.63,-248.7 934.84,-257.29 935.34,-246.71 928.63,-248.7"/>
</a>
</g>
</g>
<!-- Node17 -->
<g id="Node000017" class="node">
<title>Node17</title>
<g id="a_Node000017"><a xlink:href="a02358.html#ac728117d73179c279de49e01ae905dda" target="_top" xlink:title=" ">
<polygon fill="white" stroke="#666666" points="499,-55.5 387,-55.5 387,-37 499,-37 499,-55.5"/>
<text text-anchor="middle" x="443" y="-42" font-family="Helvetica,sans-Serif" font-size="10.00">async_completion_init</text>
</a>
</g>
</g>
<!-- Node16&#45;&gt;Node17 -->
<g id="edge21_Node000016_Node000017" class="edge">
<title>Node16&#45;&gt;Node17</title>
<g id="a_edge21_Node000016_Node000017"><a xlink:title=" ">
<path fill="none" stroke="#63b8ff" d="M321.1,-92.62C344.5,-83.65 379.65,-70.16 406.03,-60.05"/>
<polygon fill="#63b8ff" stroke="#63b8ff" points="407.24,-63.33 415.33,-56.48 404.74,-56.79 407.24,-63.33"/>
</a>
</g>
</g>
<!-- Node18 -->
<g id="Node000018" class="node">
<title>Node18</title>
<g id="a_Node000018"><a xlink:href="a02361.html#a3bbcb7c4c024e99d5c4ba52b61dfbbf7" target="_top" xlink:title=" ">
<polygon fill="white" stroke="#666666" points="502.75,-18.5 383.25,-18.5 383.25,0 502.75,0 502.75,-18.5"/>
<text text-anchor="middle" x="443" y="-5" font-family="Helvetica,sans-Serif" font-size="10.00">async_condition_unlock</text>
</a>
</g>
</g>
<!-- Node16&#45;&gt;Node18 -->
<g id="edge22_Node000016_Node000018" class="edge">
<title>Node16&#45;&gt;Node18</title>
<g id="a_edge22_Node000016_Node000018"><a xlink:title=" ">
<path fill="none" stroke="#63b8ff" d="M304.76,-92.71C319.54,-77.14 350.97,-46.22 383.25,-28.25 386.63,-26.37 390.23,-24.64 393.91,-23.06"/>
<polygon fill="#63b8ff" stroke="#63b8ff" points="394.94,-26.41 403,-19.53 392.41,-19.88 394.94,-26.41"/>
</a>
</g>
</g>
<!-- Node20 -->
<g id="Node000020" class="node">
<title>Node20</title>
<g id="a_Node000020"><a xlink:href="a02358.html#a2a7d01fc7720e936a430efc09d094c6c" target="_top" xlink:title=" ">
<polygon fill="white" stroke="#666666" points="499.38,-129.5 386.62,-129.5 386.62,-111 499.38,-111 499.38,-129.5"/>
<text text-anchor="middle" x="443" y="-116" font-family="Helvetica,sans-Serif" font-size="10.00">async_semaphore_init</text>
</a>
</g>
</g>
<!-- Node16&#45;&gt;Node20 -->
<g id="edge24_Node000016_Node000020" class="edge">
<title>Node16&#45;&gt;Node20</title>
<g id="a_edge24_Node000016_Node000020"><a xlink:title=" ">
<path fill="none" stroke="#63b8ff" d="M347.06,-108.55C356.07,-109.66 365.56,-110.83 374.92,-111.98"/>
<polygon fill="#63b8ff" stroke="#63b8ff" points="374.38,-115.44 384.74,-113.19 375.24,-108.49 374.38,-115.44"/>
</a>
</g>
</g>
<!-- Node19 -->
<g id="Node000019" class="node">
<title>Node19</title>
<g id="a_Node000019"><a xlink:href="a02361.html#ad1d30ecbf6bff6457b680aa940281072" target="_top" xlink:title=" ">
<polygon fill="white" stroke="#666666" points="677.75,-18.5 538.75,-18.5 538.75,0 677.75,0 677.75,-18.5"/>
<text text-anchor="middle" x="608.25" y="-5" font-family="Helvetica,sans-Serif" font-size="10.00">async_completion_complete</text>
</a>
</g>
</g>
<!-- Node18&#45;&gt;Node19 -->
<g id="edge23_Node000018_Node000019" class="edge">
<title>Node18&#45;&gt;Node19</title>
<g id="a_edge23_Node000018_Node000019"><a xlink:title=" ">
<path fill="none" stroke="#63b8ff" d="M502.94,-9.25C510.76,-9.25 518.88,-9.25 526.99,-9.25"/>
<polygon fill="#63b8ff" stroke="#63b8ff" points="526.89,-12.75 536.89,-9.25 526.89,-5.75 526.89,-12.75"/>
</a>
</g>
</g>
<!-- Node21&#45;&gt;Node2 -->
<g id="edge41_Node000021_Node000002" class="edge">
<title>Node21&#45;&gt;Node2</title>
<g id="a_edge41_Node000021_Node000002"><a xlink:title=" ">
<path fill="none" stroke="#63b8ff" d="M172.44,-318.91C186.49,-333.51 214.82,-361.48 242.75,-380.25 248.33,-384 254.55,-387.52 260.69,-390.67"/>
<polygon fill="#63b8ff" stroke="#63b8ff" points="258.92,-393.7 269.44,-394.93 261.98,-387.4 258.92,-393.7"/>
</a>
</g>
</g>
<!-- Node21&#45;&gt;Node14 -->
<g id="edge47_Node000021_Node000014" class="edge">
<title>Node21&#45;&gt;Node14</title>
<g id="a_edge47_Node000021_Node000014"><a xlink:title=" ">
<path fill="none" stroke="#63b8ff" d="M206,-311.54C253.43,-314.1 330.38,-318.24 383.45,-321.1"/>
<polygon fill="#63b8ff" stroke="#63b8ff" points="383.04,-324.58 393.21,-321.62 383.41,-317.59 383.04,-324.58"/>
</a>
</g>
</g>
<!-- Node22 -->
<g id="Node000022" class="node">
<title>Node22</title>
<g id="a_Node000022"><a xlink:href="a01916.html#af0b933c02a24d69c1efa40179f60288f" target="_top" xlink:title=" ">
<polygon fill="white" stroke="#666666" points="502,-263.5 384,-263.5 384,-245 502,-245 502,-263.5"/>
<text text-anchor="middle" x="443" y="-250" font-family="Helvetica,sans-Serif" font-size="10.00">arax_accel_add_vaccel</text>
</a>
</g>
</g>
<!-- Node21&#45;&gt;Node22 -->
<g id="edge26_Node000021_Node000022" class="edge">
<title>Node21&#45;&gt;Node22</title>
<g id="a_edge26_Node000021_Node000022"><a xlink:title=" ">
<path fill="none" stroke="#63b8ff" d="M180.41,-299.52C196.08,-291.06 220.23,-279.25 242.75,-273.25 284.92,-262.01 333.68,-257.23 372.4,-255.27"/>
<polygon fill="#63b8ff" stroke="#63b8ff" points="372.22,-258.78 382.05,-254.84 371.9,-251.79 372.22,-258.78"/>
</a>
</g>
</g>
<!-- Node32 -->
<g id="Node000032" class="node">
<title>Node32</title>
<g id="a_Node000032"><a xlink:href="a01928.html#aa4461ab1d225a0f76f08d2f37a4a7e0e" target="_top" xlink:title=" ">
<polygon fill="white" stroke="#666666" points="500.5,-380.75 385.5,-380.75 385.5,-351.75 500.5,-351.75 500.5,-380.75"/>
<text text-anchor="start" x="393.5" y="-367.25" font-family="Helvetica,sans-Serif" font-size="10.00">arax_pipe_add_orphan</text>
<text text-anchor="middle" x="443" y="-356.75" font-family="Helvetica,sans-Serif" font-size="10.00">_vaccel</text>
</a>
</g>
</g>
<!-- Node21&#45;&gt;Node32 -->
<g id="edge42_Node000021_Node000032" class="edge">
<title>Node21&#45;&gt;Node32</title>
<g id="a_edge42_Node000021_Node000032"><a xlink:title=" ">
<path fill="none" stroke="#63b8ff" d="M197.61,-318.95C211.55,-322.73 227.86,-326.94 242.75,-330.25 286.16,-339.9 335.33,-348.8 373.96,-355.34"/>
<polygon fill="#63b8ff" stroke="#63b8ff" points="373.14,-358.75 383.58,-356.96 374.3,-351.85 373.14,-358.75"/>
</a>
</g>
</g>
<!-- Node33 -->
<g id="Node000033" class="node">
<title>Node33</title>
<g id="a_Node000033"><a xlink:href="a01958.html#a49c353188156b1df4463a5fc7f7bc25e" target="_top" xlink:title=" ">
<polygon fill="white" stroke="#666666" points="336.75,-300.5 253.25,-300.5 253.25,-282 336.75,-282 336.75,-300.5"/>
<text text-anchor="middle" x="295" y="-287" font-family="Helvetica,sans-Serif" font-size="10.00">utils_queue_init</text>
</a>
</g>
</g>
<!-- Node21&#45;&gt;Node33 -->
<g id="edge48_Node000021_Node000033" class="edge">
<title>Node21&#45;&gt;Node33</title>
<g id="a_edge48_Node000021_Node000033"><a xlink:title=" ">
<path fill="none" stroke="#63b8ff" d="M205.79,-303.41C217.3,-301.82 229.91,-300.08 241.89,-298.43"/>
<polygon fill="#63b8ff" stroke="#63b8ff" points="242.21,-301.92 251.64,-297.09 241.25,-294.99 242.21,-301.92"/>
</a>
</g>
</g>
<!-- Node22&#45;&gt;Node5 -->
<g id="edge36_Node000022_Node000005" class="edge">
<title>Node22&#45;&gt;Node5</title>
<g id="a_edge36_Node000022_Node000005"><a xlink:title=" ">
<path fill="none" stroke="#63b8ff" d="M457.85,-263.84C475.8,-275.89 508.4,-296.54 538.75,-309.25 595.52,-333.02 663.73,-350.52 711.77,-361.16"/>
<polygon fill="#63b8ff" stroke="#63b8ff" points="710.93,-364.56 721.44,-363.26 712.41,-357.72 710.93,-364.56"/>
</a>
</g>
</g>
<!-- Node22&#45;&gt;Node7 -->
<g id="edge39_Node000022_Node000007" class="edge">
<title>Node22&#45;&gt;Node7</title>
<g id="a_edge39_Node000022_Node000007"><a xlink:title=" ">
<path fill="none" stroke="#63b8ff" d="M502.35,-256.74C558.21,-259.12 642.56,-262.71 702.12,-265.25"/>
<polygon fill="#63b8ff" stroke="#63b8ff" points="701.66,-268.73 711.8,-265.66 701.95,-261.74 701.66,-268.73"/>
</a>
</g>
</g>
<!-- Node22&#45;&gt;Node12 -->
<g id="edge40_Node000022_Node000012" class="edge">
<title>Node22&#45;&gt;Node12</title>
<g id="a_edge40_Node000022_Node000012"><a xlink:title=" ">
<path fill="none" stroke="#63b8ff" d="M459.79,-263.98C473.33,-273.18 492.27,-288.24 502.75,-306.25 541.8,-373.38 485.59,-420.63 538.75,-477.25 544.62,-483.51 552.36,-487.77 560.51,-490.65"/>
<polygon fill="#63b8ff" stroke="#63b8ff" points="559.32,-493.95 569.89,-493.3 561.22,-487.21 559.32,-493.95"/>
</a>
</g>
</g>
<!-- Node23 -->
<g id="Node000023" class="node">
<title>Node23</title>
<g id="a_Node000023"><a xlink:href="a01916.html#aed864d2fab73a39a8c98356f7bca1304" target="_top" xlink:title=" ">
<polygon fill="white" stroke="#666666" points="668.75,-226.5 547.75,-226.5 547.75,-208 668.75,-208 668.75,-226.5"/>
<text text-anchor="middle" x="608.25" y="-213" font-family="Helvetica,sans-Serif" font-size="10.00">arax_accel_inc_revision</text>
</a>
</g>
</g>
<!-- Node22&#45;&gt;Node23 -->
<g id="edge27_Node000022_Node000023" class="edge">
<title>Node22&#45;&gt;Node23</title>
<g id="a_edge27_Node000022_Node000023"><a xlink:title=" ">
<path fill="none" stroke="#63b8ff" d="M486.89,-244.53C507.24,-239.92 531.78,-234.35 553.37,-229.46"/>
<polygon fill="#63b8ff" stroke="#63b8ff" points="553.91,-232.93 562.89,-227.31 552.36,-226.1 553.91,-232.93"/>
</a>
</g>
</g>
<!-- Node24 -->
<g id="Node000024" class="node">
<title>Node24</title>
<g id="a_Node000024"><a xlink:href="a01928.html#aa5172b735dddd3f77fbb0265bbcdfc20" target="_top" xlink:title=" ">
<polygon fill="white" stroke="#666666" points="673.62,-189.75 542.88,-189.75 542.88,-160.75 673.62,-160.75 673.62,-189.75"/>
<text text-anchor="start" x="550.88" y="-176.25" font-family="Helvetica,sans-Serif" font-size="10.00">arax_pipe_remove_orphan</text>
<text text-anchor="middle" x="608.25" y="-165.75" font-family="Helvetica,sans-Serif" font-size="10.00">_vaccel</text>
</a>
</g>
</g>
<!-- Node22&#45;&gt;Node24 -->
<g id="edge28_Node000022_Node000024" class="edge">
<title>Node22&#45;&gt;Node24</title>
<g id="a_edge28_Node000022_Node000024"><a xlink:title=" ">
<path fill="none" stroke="#63b8ff" d="M458.63,-244.58C476.86,-232.82 509.21,-212.85 538.75,-199.25 542.46,-197.54 546.33,-195.88 550.25,-194.29"/>
<polygon fill="#63b8ff" stroke="#63b8ff" points="551.26,-197.65 559.31,-190.76 548.72,-191.13 551.26,-197.65"/>
</a>
</g>
</g>
<!-- Node27 -->
<g id="Node000027" class="node">
<title>Node27</title>
<g id="a_Node000027"><a xlink:href="a01943.html#ab2fa3d6e6c761009b464cc0fbedc6a16" target="_top" xlink:title=" ">
<polygon fill="white" stroke="#666666" points="669.5,-142.5 547,-142.5 547,-124 669.5,-124 669.5,-142.5"/>
<text text-anchor="middle" x="608.25" y="-129" font-family="Helvetica,sans-Serif" font-size="10.00">arax_vaccel_queue_size</text>
</a>
</g>
</g>
<!-- Node22&#45;&gt;Node27 -->
<g id="edge33_Node000022_Node000027" class="edge">
<title>Node22&#45;&gt;Node27</title>
<g id="a_edge33_Node000022_Node000027"><a xlink:title=" ">
<path fill="none" stroke="#63b8ff" d="M450.09,-244.74C463.54,-224.53 497.86,-177.12 538.75,-152.25 541.86,-150.36 545.16,-148.65 548.57,-147.11"/>
<polygon fill="#63b8ff" stroke="#63b8ff" points="549.62,-150.46 557.63,-143.52 547.05,-143.95 549.62,-150.46"/>
</a>
</g>
</g>
<!-- Node30 -->
<g id="Node000030" class="node">
<title>Node30</title>
<g id="a_Node000030"><a xlink:href="a02364.html#a45a896fb606c2aa66a5a4c2af59ce494" target="_top" xlink:title=" ">
<polygon fill="white" stroke="#666666" points="665.75,-300.5 550.75,-300.5 550.75,-282 665.75,-282 665.75,-300.5"/>
<text text-anchor="middle" x="608.25" y="-287" font-family="Helvetica,sans-Serif" font-size="10.00">async_condition_notify</text>
</a>
</g>
</g>
<!-- Node22&#45;&gt;Node30 -->
<g id="edge37_Node000022_Node000030" class="edge">
<title>Node22&#45;&gt;Node30</title>
<g id="a_edge37_Node000022_Node000030"><a xlink:title=" ">
<path fill="none" stroke="#63b8ff" d="M486.89,-263.97C507.24,-268.58 531.78,-274.15 553.37,-279.04"/>
<polygon fill="#63b8ff" stroke="#63b8ff" points="552.36,-282.4 562.89,-281.19 553.91,-275.57 552.36,-282.4"/>
</a>
</g>
</g>
<!-- Node24&#45;&gt;Node5 -->
<g id="edge29_Node000024_Node000005" class="edge">
<title>Node24&#45;&gt;Node5</title>
<g id="a_edge29_Node000024_Node000005"><a xlink:title=" ">
<path fill="none" stroke="#63b8ff" d="M666.18,-190.06C670.43,-192.64 674.37,-195.68 677.75,-199.25 717.21,-240.92 682.58,-275.06 713.75,-323.25 722.39,-336.6 735.65,-348.33 747.39,-357.06"/>
<polygon fill="#63b8ff" stroke="#63b8ff" points="745.34,-359.89 755.53,-362.79 749.37,-354.17 745.34,-359.89"/>
</a>
</g>
</g>
<!-- Node24&#45;&gt;Node7 -->
<g id="edge30_Node000024_Node000007" class="edge">
<title>Node24&#45;&gt;Node7</title>
<g id="a_edge30_Node000024_Node000007"><a xlink:title=" ">
<path fill="none" stroke="#63b8ff" d="M662.54,-190.2C667.92,-192.78 673.11,-195.78 677.75,-199.25 699.68,-215.64 691.62,-233.12 713.75,-249.25 715.94,-250.85 718.28,-252.32 720.7,-253.66"/>
<polygon fill="#63b8ff" stroke="#63b8ff" points="719.15,-256.8 729.69,-257.91 722.14,-250.47 719.15,-256.8"/>
</a>
</g>
</g>
<!-- Node25 -->
<g id="Node000025" class="node">
<title>Node25</title>
<g id="a_Node000025"><a xlink:href="a01955.html#a0c85e5516222ab7e7fc354c614760ec5" target="_top" xlink:title=" ">
<polygon fill="white" stroke="#666666" points="808.5,-203.5 738.5,-203.5 738.5,-185 808.5,-185 808.5,-203.5"/>
<text text-anchor="middle" x="773.5" y="-190" font-family="Helvetica,sans-Serif" font-size="10.00">utils_list_del</text>
</a>
</g>
</g>
<!-- Node24&#45;&gt;Node25 -->
<g id="edge31_Node000024_Node000025" class="edge">
<title>Node24&#45;&gt;Node25</title>
<g id="a_edge31_Node000024_Node000025"><a xlink:title=" ">
<path fill="none" stroke="#63b8ff" d="M673.77,-182.76C691.73,-184.85 710.84,-187.07 727.42,-189"/>
<polygon fill="#63b8ff" stroke="#63b8ff" points="726.61,-192.43 736.95,-190.11 727.42,-185.48 726.61,-192.43"/>
</a>
</g>
</g>
<!-- Node26 -->
<g id="Node000026" class="node">
<title>Node26</title>
<g id="a_Node000026"><a xlink:href="a01955.html#ab0c44e095ebfd8721de878c42abcbbdc" target="_top" xlink:title=" ">
<polygon fill="white" stroke="#666666" points="827.62,-240.5 719.38,-240.5 719.38,-222 827.62,-222 827.62,-240.5"/>
<text text-anchor="middle" x="773.5" y="-227" font-family="Helvetica,sans-Serif" font-size="10.00">utils_list_node_linked</text>
</a>
</g>
</g>
<!-- Node24&#45;&gt;Node26 -->
<g id="edge32_Node000024_Node000026" class="edge">
<title>Node24&#45;&gt;Node26</title>
<g id="a_edge32_Node000024_Node000026"><a xlink:title=" ">
<path fill="none" stroke="#63b8ff" d="M652.02,-190.17C660.55,-193.16 669.44,-196.29 677.75,-199.25 693.78,-204.95 697.65,-206.74 713.75,-212.25 719.46,-214.2 725.49,-216.21 731.43,-218.16"/>
<polygon fill="#63b8ff" stroke="#63b8ff" points="729.91,-221.35 740.5,-221.12 732.08,-214.69 729.91,-221.35"/>
</a>
</g>
</g>
<!-- Node28 -->
<g id="Node000028" class="node">
<title>Node28</title>
<g id="a_Node000028"><a xlink:href="a01943.html#afe1eb3edd264c847c36e9456b2598452" target="_top" xlink:title=" ">
<polygon fill="white" stroke="#666666" points="823.5,-166.5 723.5,-166.5 723.5,-148 823.5,-148 823.5,-166.5"/>
<text text-anchor="middle" x="773.5" y="-153" font-family="Helvetica,sans-Serif" font-size="10.00">arax_vaccel_queue</text>
</a>
</g>
</g>
<!-- Node27&#45;&gt;Node28 -->
<g id="edge34_Node000027_Node000028" class="edge">
<title>Node27&#45;&gt;Node28</title>
<g id="a_edge34_Node000027_Node000028"><a xlink:title=" ">
<path fill="none" stroke="#63b8ff" d="M669.57,-142.12C683.34,-144.14 697.98,-146.29 711.76,-148.32"/>
<polygon fill="#63b8ff" stroke="#63b8ff" points="711.2,-151.78 721.6,-149.77 712.22,-144.85 711.2,-151.78"/>
</a>
</g>
</g>
<!-- Node29 -->
<g id="Node000029" class="node">
<title>Node29</title>
<g id="a_Node000029"><a xlink:href="a01958.html#a5d84d59bded666fdcf1a8e949cb56a6a" target="_top" xlink:title=" ">
<polygon fill="white" stroke="#666666" points="832.5,-129.5 714.5,-129.5 714.5,-111 832.5,-111 832.5,-129.5"/>
<text text-anchor="middle" x="773.5" y="-116" font-family="Helvetica,sans-Serif" font-size="10.00">utils_queue_used_slots</text>
</a>
</g>
</g>
<!-- Node27&#45;&gt;Node29 -->
<g id="edge35_Node000027_Node000029" class="edge">
<title>Node27&#45;&gt;Node29</title>
<g id="a_edge35_Node000027_Node000029"><a xlink:title=" ">
<path fill="none" stroke="#63b8ff" d="M669.57,-128.45C680.36,-127.59 691.68,-126.69 702.7,-125.81"/>
<polygon fill="#63b8ff" stroke="#63b8ff" points="702.85,-129.31 712.54,-125.02 702.3,-122.33 702.85,-129.31"/>
</a>
</g>
</g>
<!-- Node31 -->
<g id="Node000031" class="node">
<title>Node31</title>
<g id="a_Node000031"><a xlink:href="a02358.html#a0fa370eee5160963e617d1daf1c07363" target="_top" xlink:title=" ">
<polygon fill="white" stroke="#666666" points="829.88,-314.5 717.12,-314.5 717.12,-296 829.88,-296 829.88,-314.5"/>
<text text-anchor="middle" x="773.5" y="-301" font-family="Helvetica,sans-Serif" font-size="10.00">async_semaphore_inc</text>
</a>
</g>
</g>
<!-- Node30&#45;&gt;Node31 -->
<g id="edge38_Node000030_Node000031" class="edge">
<title>Node30&#45;&gt;Node31</title>
<g id="a_edge38_Node000030_Node000031"><a xlink:title=" ">
<path fill="none" stroke="#63b8ff" d="M665.89,-296.11C678.64,-297.2 692.29,-298.37 705.42,-299.5"/>
<polygon fill="#63b8ff" stroke="#63b8ff" points="705.02,-302.98 715.28,-300.34 705.62,-296 705.02,-302.98"/>
</a>
</g>
</g>
<!-- Node32&#45;&gt;Node5 -->
<g id="edge43_Node000032_Node000005" class="edge">
<title>Node32&#45;&gt;Node5</title>
<g id="a_edge43_Node000032_Node000005"><a xlink:title=" ">
<path fill="none" stroke="#63b8ff" d="M500.97,-376.05C513.38,-377.8 526.48,-379.35 538.75,-380.25 595.61,-384.43 660.42,-381.92 707.35,-378.8"/>
<polygon fill="#63b8ff" stroke="#63b8ff" points="707.34,-382.31 717.07,-378.12 706.85,-375.32 707.34,-382.31"/>
</a>
</g>
</g>
<!-- Node32&#45;&gt;Node7 -->
<g id="edge45_Node000032_Node000007" class="edge">
<title>Node32&#45;&gt;Node7</title>
<g id="a_edge45_Node000032_Node000007"><a xlink:title=" ">
<path fill="none" stroke="#63b8ff" d="M500.8,-357.48C549.12,-348.83 619.7,-333.38 677.75,-309.25 695.07,-302.05 696.71,-295.08 713.75,-287.25 718.02,-285.29 722.56,-283.44 727.14,-281.72"/>
<polygon fill="#63b8ff" stroke="#63b8ff" points="728.11,-285.09 736.38,-278.47 725.79,-278.49 728.11,-285.09"/>
</a>
</g>
</g>
<!-- Node32&#45;&gt;Node12 -->
<g id="edge46_Node000032_Node000012" class="edge">
<title>Node32&#45;&gt;Node12</title>
<g id="a_edge46_Node000032_Node000012"><a xlink:title=" ">
<path fill="none" stroke="#63b8ff" d="M490.78,-381.16C495.14,-383.74 499.24,-386.75 502.75,-390.25 532.41,-419.77 507.41,-449.52 538.75,-477.25 544.98,-482.76 552.67,-486.69 560.63,-489.48"/>
<polygon fill="#63b8ff" stroke="#63b8ff" points="559.5,-492.8 570.08,-492.21 561.44,-486.07 559.5,-492.8"/>
</a>
</g>
</g>
<!-- Node32&#45;&gt;Node30 -->
<g id="edge44_Node000032_Node000030" class="edge">
<title>Node32&#45;&gt;Node30</title>
<g id="a_edge44_Node000032_Node000030"><a xlink:title=" ">
<path fill="none" stroke="#63b8ff" d="M481.77,-351.25C488.78,-348.35 496.01,-345.27 502.75,-342.25 528.64,-330.66 557.59,-316.43 578.44,-305.95"/>
<polygon fill="#63b8ff" stroke="#63b8ff" points="579.85,-309.16 587.2,-301.52 576.69,-302.91 579.85,-309.16"/>
</a>
</g>
</g>
<!-- Node34&#45;&gt;Node14 -->
<g id="edge51_Node000034_Node000014" class="edge">
<title>Node34&#45;&gt;Node14</title>
<g id="a_edge51_Node000034_Node000014"><a xlink:title=" ">
<path fill="none" stroke="#63b8ff" d="M197.62,-224.74C235.09,-234.51 296.55,-251.98 347.25,-273.25 371.56,-283.45 397.85,-297.9 416.56,-308.81"/>
<polygon fill="#63b8ff" stroke="#63b8ff" points="414.68,-311.76 425.07,-313.85 418.24,-305.74 414.68,-311.76"/>
</a>
</g>
</g>
</g>
</svg>
