<?xml version="1.0" encoding="UTF-8" standalone="no"?>
<!DOCTYPE svg PUBLIC "-//W3C//DTD SVG 1.1//EN"
 "http://www.w3.org/Graphics/SVG/1.1/DTD/svg11.dtd">
<!-- Generated by graphviz version 12.2.1 (0)
 -->
<!-- Title: arax_accel_size_dec Pages: 1 -->
<svg width="596pt" height="101pt"
 viewBox="0.00 0.00 596.25 100.50" xmlns="http://www.w3.org/2000/svg" xmlns:xlink="http://www.w3.org/1999/xlink">
<g id="graph0" class="graph" transform="scale(1 1) rotate(0) translate(4 96.5)">
<title>arax_accel_size_dec</title>
<!-- Node1 -->
<g id="Node000001" class="node">
<title>Node1</title>
<g id="a_Node000001"><a xlink:title=" ">
<polygon fill="#999999" stroke="#666666" points="107.5,-55.5 0,-55.5 0,-37 107.5,-37 107.5,-55.5"/>
<text text-anchor="middle" x="53.75" y="-42" font-family="Helvetica,sans-Serif" font-size="10.00">arax_accel_size_dec</text>
</a>
</g>
</g>
<!-- Node1&#45;&gt;Node1 -->
<g id="edge1_Node000001_Node000001" class="edge">
<title>Node1&#45;&gt;Node1</title>
<g id="a_edge1_Node000001_Node000001"><a xlink:title=" ">
<path fill="none" stroke="#63b8ff" d="M31.11,-55.75C20.1,-64.32 27.65,-73.5 53.75,-73.5 68.43,-73.5 77.25,-70.59 80.19,-66.53"/>
<polygon fill="#63b8ff" stroke="#63b8ff" points="83.51,-65.44 76.89,-57.17 76.91,-67.77 83.51,-65.44"/>
</a>
</g>
</g>
<!-- Node2 -->
<g id="Node000002" class="node">
<title>Node2</title>
<g id="a_Node000002"><a xlink:href="a01940.html#a63b80783cfb3106ec4169ce082f153c0" target="_top" xlink:title=" ">
<polygon fill="white" stroke="#666666" points="257.75,-55.5 143.5,-55.5 143.5,-37 257.75,-37 257.75,-55.5"/>
<text text-anchor="middle" x="200.62" y="-42" font-family="Helvetica,sans-Serif" font-size="10.00">arax_throttle_size_dec</text>
</a>
</g>
</g>
<!-- Node1&#45;&gt;Node2 -->
<g id="edge2_Node000001_Node000002" class="edge">
<title>Node1&#45;&gt;Node2</title>
<g id="a_edge2_Node000001_Node000002"><a xlink:title=" ">
<path fill="none" stroke="#63b8ff" d="M107.87,-46.25C115.67,-46.25 123.78,-46.25 131.82,-46.25"/>
<polygon fill="#63b8ff" stroke="#63b8ff" points="131.58,-49.75 141.58,-46.25 131.58,-42.75 131.58,-49.75"/>
</a>
</g>
</g>
<!-- Node2&#45;&gt;Node2 -->
<g id="edge3_Node000002_Node000002" class="edge">
<title>Node2&#45;&gt;Node2</title>
<g id="a_edge3_Node000002_Node000002"><a xlink:title=" ">
<path fill="none" stroke="#63b8ff" d="M177.99,-55.75C166.97,-64.32 174.52,-73.5 200.62,-73.5 215.31,-73.5 224.12,-70.59 227.06,-66.53"/>
<polygon fill="#63b8ff" stroke="#63b8ff" points="230.39,-65.44 223.77,-57.17 223.79,-67.77 230.39,-65.44"/>
</a>
</g>
</g>
<!-- Node3 -->
<g id="Node000003" class="node">
<title>Node3</title>
<g id="a_Node000003"><a xlink:href="a02364.html#aed6af4d83e934e3e654ead541b15f2d9" target="_top" xlink:title=" ">
<polygon fill="white" stroke="#666666" points="408,-92.5 299,-92.5 299,-74 408,-74 408,-92.5"/>
<text text-anchor="middle" x="353.5" y="-79" font-family="Helvetica,sans-Serif" font-size="10.00">async_condition_lock</text>
</a>
</g>
</g>
<!-- Node2&#45;&gt;Node3 -->
<g id="edge4_Node000002_Node000003" class="edge">
<title>Node2&#45;&gt;Node3</title>
<g id="a_edge4_Node000002_Node000003"><a xlink:title=" ">
<path fill="none" stroke="#63b8ff" d="M241.27,-55.97C259.82,-60.52 282.13,-65.99 301.88,-70.84"/>
<polygon fill="#63b8ff" stroke="#63b8ff" points="300.85,-74.19 311.39,-73.17 302.51,-67.39 300.85,-74.19"/>
</a>
</g>
</g>
<!-- Node5 -->
<g id="Node000005" class="node">
<title>Node5</title>
<g id="a_Node000005"><a xlink:href="a02364.html#a3bbcb7c4c024e99d5c4ba52b61dfbbf7" target="_top" xlink:title=" ">
<polygon fill="white" stroke="#666666" points="413.25,-18.5 293.75,-18.5 293.75,0 413.25,0 413.25,-18.5"/>
<text text-anchor="middle" x="353.5" y="-5" font-family="Helvetica,sans-Serif" font-size="10.00">async_condition_unlock</text>
</a>
</g>
</g>
<!-- Node2&#45;&gt;Node5 -->
<g id="edge6_Node000002_Node000005" class="edge">
<title>Node2&#45;&gt;Node5</title>
<g id="a_edge6_Node000002_Node000005"><a xlink:title=" ">
<path fill="none" stroke="#63b8ff" d="M241.27,-36.53C259.82,-31.98 282.13,-26.51 301.88,-21.66"/>
<polygon fill="#63b8ff" stroke="#63b8ff" points="302.51,-25.11 311.39,-19.33 300.85,-18.31 302.51,-25.11"/>
</a>
</g>
</g>
<!-- Node7 -->
<g id="Node000007" class="node">
<title>Node7</title>
<g id="a_Node000007"><a xlink:href="a02364.html#a1bfeaeb9b81855e640d7a67cc9d92b17" target="_top" xlink:title=" ">
<polygon fill="white" stroke="#666666" points="407.62,-55.5 299.38,-55.5 299.38,-37 407.62,-37 407.62,-55.5"/>
<text text-anchor="middle" x="353.5" y="-42" font-family="Helvetica,sans-Serif" font-size="10.00">async_condition_wait</text>
</a>
</g>
</g>
<!-- Node2&#45;&gt;Node7 -->
<g id="edge8_Node000002_Node000007" class="edge">
<title>Node2&#45;&gt;Node7</title>
<g id="a_edge8_Node000002_Node000007"><a xlink:title=" ">
<path fill="none" stroke="#63b8ff" d="M258.23,-46.25C267.85,-46.25 277.9,-46.25 287.71,-46.25"/>
<polygon fill="#63b8ff" stroke="#63b8ff" points="287.55,-49.75 297.55,-46.25 287.55,-42.75 287.55,-49.75"/>
</a>
</g>
</g>
<!-- Node4 -->
<g id="Node000004" class="node">
<title>Node4</title>
<g id="a_Node000004"><a xlink:href="a02358.html#aebf9e72bb6cbd8b9e33489d46c25075d" target="_top" xlink:title=" ">
<polygon fill="white" stroke="#666666" points="577,-92.5 460.5,-92.5 460.5,-74 577,-74 577,-92.5"/>
<text text-anchor="middle" x="518.75" y="-79" font-family="Helvetica,sans-Serif" font-size="10.00">async_completion_wait</text>
</a>
</g>
</g>
<!-- Node3&#45;&gt;Node4 -->
<g id="edge5_Node000003_Node000004" class="edge">
<title>Node3&#45;&gt;Node4</title>
<g id="a_edge5_Node000003_Node000004"><a xlink:title=" ">
<path fill="none" stroke="#63b8ff" d="M408.41,-83.25C421.39,-83.25 435.44,-83.25 449.01,-83.25"/>
<polygon fill="#63b8ff" stroke="#63b8ff" points="448.74,-86.75 458.74,-83.25 448.74,-79.75 448.74,-86.75"/>
</a>
</g>
</g>
<!-- Node6 -->
<g id="Node000006" class="node">
<title>Node6</title>
<g id="a_Node000006"><a xlink:href="a02358.html#ad1d30ecbf6bff6457b680aa940281072" target="_top" xlink:title=" ">
<polygon fill="white" stroke="#666666" points="588.25,-18.5 449.25,-18.5 449.25,0 588.25,0 588.25,-18.5"/>
<text text-anchor="middle" x="518.75" y="-5" font-family="Helvetica,sans-Serif" font-size="10.00">async_completion_complete</text>
</a>
</g>
</g>
<!-- Node5&#45;&gt;Node6 -->
<g id="edge7_Node000005_Node000006" class="edge">
<title>Node5&#45;&gt;Node6</title>
<g id="a_edge7_Node000005_Node000006"><a xlink:title=" ">
<path fill="none" stroke="#63b8ff" d="M413.44,-9.25C421.26,-9.25 429.38,-9.25 437.49,-9.25"/>
<polygon fill="#63b8ff" stroke="#63b8ff" points="437.39,-12.75 447.39,-9.25 437.39,-5.75 437.39,-12.75"/>
</a>
</g>
</g>
<!-- Node7&#45;&gt;Node4 -->
<g id="edge10_Node000007_Node000004" class="edge">
<title>Node7&#45;&gt;Node4</title>
<g id="a_edge10_Node000007_Node000004"><a xlink:title=" ">
<path fill="none" stroke="#63b8ff" d="M397.39,-55.97C417.74,-60.58 442.28,-66.15 463.87,-71.04"/>
<polygon fill="#63b8ff" stroke="#63b8ff" points="462.86,-74.4 473.39,-73.19 464.41,-67.57 462.86,-74.4"/>
</a>
</g>
</g>
<!-- Node7&#45;&gt;Node6 -->
<g id="edge9_Node000007_Node000006" class="edge">
<title>Node7&#45;&gt;Node6</title>
<g id="a_edge9_Node000007_Node000006"><a xlink:title=" ">
<path fill="none" stroke="#63b8ff" d="M397.39,-36.53C417.74,-31.92 442.28,-26.35 463.87,-21.46"/>
<polygon fill="#63b8ff" stroke="#63b8ff" points="464.41,-24.93 473.39,-19.31 462.86,-18.1 464.41,-24.93"/>
</a>
</g>
</g>
<!-- Node8 -->
<g id="Node000008" class="node">
<title>Node8</title>
<g id="a_Node000008"><a xlink:href="a02358.html#a7ab7c7fe9cb93434dde72a4e464a7e69" target="_top" xlink:title=" ">
<polygon fill="white" stroke="#666666" points="576.62,-55.5 460.88,-55.5 460.88,-37 576.62,-37 576.62,-55.5"/>
<text text-anchor="middle" x="518.75" y="-42" font-family="Helvetica,sans-Serif" font-size="10.00">async_semaphore_dec</text>
</a>
</g>
</g>
<!-- Node7&#45;&gt;Node8 -->
<g id="edge11_Node000007_Node000008" class="edge">
<title>Node7&#45;&gt;Node8</title>
<g id="a_edge11_Node000007_Node000008"><a xlink:title=" ">
<path fill="none" stroke="#63b8ff" d="M407.95,-46.25C421.1,-46.25 435.36,-46.25 449.12,-46.25"/>
<polygon fill="#63b8ff" stroke="#63b8ff" points="449.01,-49.75 459.01,-46.25 449.01,-42.75 449.01,-49.75"/>
</a>
</g>
</g>
</g>
</svg>
