<?xml version="1.0" encoding="UTF-8" standalone="no"?>
<!DOCTYPE svg PUBLIC "-//W3C//DTD SVG 1.1//EN"
 "http://www.w3.org/Graphics/SVG/1.1/DTD/svg11.dtd">
<!-- Generated by graphviz version 11.0.0 (0)
 -->
<!-- Title: async_condition_unlock Pages: 1 -->
<svg width="1127pt" height="814pt"
 viewBox="0.00 0.00 1126.50 814.23" xmlns="http://www.w3.org/2000/svg" xmlns:xlink="http://www.w3.org/1999/xlink">
<g id="graph0" class="graph" transform="scale(1 1) rotate(0) translate(4 810.23)">
<title>async_condition_unlock</title>
<!-- Node1 -->
<g id="Node000001" class="node">
<title>Node1</title>
<g id="a_Node000001"><a xlink:title=" ">
<polygon fill="#999999" stroke="#666666" points="1118.5,-279.5 999,-279.5 999,-261 1118.5,-261 1118.5,-279.5"/>
<text text-anchor="middle" x="1058.75" y="-266" font-family="Helvetica,sans-Serif" font-size="10.00">async_condition_unlock</text>
</a>
</g>
</g>
<!-- Node2 -->
<g id="Node000002" class="node">
<title>Node2</title>
<g id="a_Node000002"><a xlink:href="a01913.html#a02fd608f651d254148dc74f0ae371dfe" target="_top" xlink:title=" ">
<polygon fill="white" stroke="#666666" points="927,-686.5 868.25,-686.5 868.25,-668 927,-668 927,-686.5"/>
<text text-anchor="middle" x="897.62" y="-673" font-family="Helvetica,sans-Serif" font-size="10.00">_arax_init</text>
</a>
</g>
</g>
<!-- Node1&#45;&gt;Node2 -->
<g id="edge1_Node000001_Node000002" class="edge">
<title>Node1&#45;&gt;Node2</title>
<g id="a_edge1_Node000001_Node000002"><a xlink:title=" ">
<path fill="none" stroke="#63b8ff" d="M1049.85,-290.45C1021.16,-363.84 923.03,-614.82 902.44,-667.5"/>
<polygon fill="#63b8ff" stroke="#63b8ff" points="1053.04,-291.91 1053.42,-281.32 1046.52,-289.36 1053.04,-291.91"/>
</a>
</g>
</g>
<!-- Node10 -->
<g id="Node000010" class="node">
<title>Node10</title>
<g id="a_Node000010"><a xlink:href="a01919.html#ab6afd8cc035237c811ce6a1b7727acc3" target="_top" xlink:title=" ">
<polygon fill="white" stroke="#666666" points="952.12,-457.5 843.12,-457.5 843.12,-439 952.12,-439 952.12,-457.5"/>
<text text-anchor="middle" x="897.62" y="-444" font-family="Helvetica,sans-Serif" font-size="10.00">arax_accel_add_task</text>
</a>
</g>
</g>
<!-- Node1&#45;&gt;Node10 -->
<g id="edge11_Node000001_Node000010" class="edge">
<title>Node1&#45;&gt;Node10</title>
<g id="a_edge11_Node000001_Node000010"><a xlink:title=" ">
<path fill="none" stroke="#63b8ff" d="M1050.61,-290.3C1037.95,-323.09 1008.55,-388.22 963,-425.25 956,-430.94 947.48,-435.28 938.97,-438.57"/>
<polygon fill="#63b8ff" stroke="#63b8ff" points="1053.78,-291.81 1053.99,-281.22 1047.22,-289.37 1053.78,-291.81"/>
</a>
</g>
</g>
<!-- Node20 -->
<g id="Node000020" class="node">
<title>Node20</title>
<g id="a_Node000020"><a xlink:href="a01919.html#af0b933c02a24d69c1efa40179f60288f" target="_top" xlink:title=" ">
<polygon fill="white" stroke="#666666" points="789.12,-341.5 671.12,-341.5 671.12,-323 789.12,-323 789.12,-341.5"/>
<text text-anchor="middle" x="730.12" y="-328" font-family="Helvetica,sans-Serif" font-size="10.00">arax_accel_add_vaccel</text>
</a>
</g>
</g>
<!-- Node1&#45;&gt;Node20 -->
<g id="edge17_Node000001_Node000020" class="edge">
<title>Node1&#45;&gt;Node20</title>
<g id="a_edge17_Node000001_Node000020"><a xlink:title=" ">
<path fill="none" stroke="#63b8ff" d="M987.42,-281.44C942.84,-288.77 884.04,-298.89 832.25,-309.25 812.12,-313.28 789.87,-318.28 771.37,-322.59"/>
<polygon fill="#63b8ff" stroke="#63b8ff" points="987.92,-284.9 997.22,-279.84 986.79,-278 987.92,-284.9"/>
</a>
</g>
</g>
<!-- Node26 -->
<g id="Node000026" class="node">
<title>Node26</title>
<g id="a_Node000026"><a xlink:href="a01919.html#aa3f384ca4812e46dedce753be42654df" target="_top" xlink:title=" ">
<polygon fill="white" stroke="#666666" points="955.12,-383.5 840.12,-383.5 840.12,-365 955.12,-365 955.12,-383.5"/>
<text text-anchor="middle" x="897.62" y="-370" font-family="Helvetica,sans-Serif" font-size="10.00">arax_accel_del_vaccel</text>
</a>
</g>
</g>
<!-- Node1&#45;&gt;Node26 -->
<g id="edge23_Node000001_Node000026" class="edge">
<title>Node1&#45;&gt;Node26</title>
<g id="a_edge23_Node000001_Node000026"><a xlink:title=" ">
<path fill="none" stroke="#63b8ff" d="M1042.51,-288.4C1025.17,-307.92 995.08,-338.52 963,-356.25 957.01,-359.56 950.36,-362.3 943.67,-364.56"/>
<polygon fill="#63b8ff" stroke="#63b8ff" points="1045.05,-290.81 1048.95,-280.96 1039.76,-286.23 1045.05,-290.81"/>
</a>
</g>
</g>
<!-- Node28 -->
<g id="Node000028" class="node">
<title>Node28</title>
<g id="a_Node000028"><a xlink:href="a01919.html#aa164c99d44fec2d7296a76c8926eb585" target="_top" xlink:title=" ">
<polygon fill="white" stroke="#666666" points="961.12,-186.75 834.12,-186.75 834.12,-157.75 961.12,-157.75 961.12,-186.75"/>
<text text-anchor="start" x="842.12" y="-173.25" font-family="Helvetica,sans-Serif" font-size="10.00">arax_accel_get_assigned</text>
<text text-anchor="middle" x="897.62" y="-162.75" font-family="Helvetica,sans-Serif" font-size="10.00">_vaccels</text>
</a>
</g>
</g>
<!-- Node1&#45;&gt;Node28 -->
<g id="edge25_Node000001_Node000028" class="edge">
<title>Node1&#45;&gt;Node28</title>
<g id="a_edge25_Node000001_Node000028"><a xlink:title=" ">
<path fill="none" stroke="#63b8ff" d="M1037.56,-253.65C1018.93,-238.8 990.12,-217.01 963,-201.25 954.31,-196.2 944.58,-191.41 935.37,-187.23"/>
<polygon fill="#63b8ff" stroke="#63b8ff" points="1035.16,-256.21 1045.14,-259.77 1039.56,-250.76 1035.16,-256.21"/>
</a>
</g>
</g>
<!-- Node29 -->
<g id="Node000029" class="node">
<title>Node29</title>
<g id="a_Node000029"><a xlink:href="a01919.html#a415e79d6e82e45f24bcd1742c146a0da" target="_top" xlink:title=" ">
<polygon fill="white" stroke="#666666" points="961.12,-139.5 834.12,-139.5 834.12,-121 961.12,-121 961.12,-139.5"/>
<text text-anchor="middle" x="897.62" y="-126" font-family="Helvetica,sans-Serif" font-size="10.00">arax_accel_wait_for_task</text>
</a>
</g>
</g>
<!-- Node1&#45;&gt;Node29 -->
<g id="edge26_Node000001_Node000029" class="edge">
<title>Node1&#45;&gt;Node29</title>
<g id="a_edge26_Node000001_Node000029"><a xlink:title=" ">
<path fill="none" stroke="#63b8ff" d="M1047.86,-250.78C1033.1,-223.68 1002.72,-174.93 963,-148.25 957.99,-144.88 952.36,-142.14 946.57,-139.91"/>
<polygon fill="#63b8ff" stroke="#63b8ff" points="1044.59,-252.08 1052.35,-259.29 1050.78,-248.81 1044.59,-252.08"/>
</a>
</g>
</g>
<!-- Node30 -->
<g id="Node000030" class="node">
<title>Node30</title>
<g id="a_Node000030"><a xlink:href="a01919.html#a871ba8da471f464d7e10b13d5db07101" target="_top" xlink:title=" ">
<polygon fill="white" stroke="#666666" points="300.5,-124.5 168.25,-124.5 168.25,-106 300.5,-106 300.5,-124.5"/>
<text text-anchor="middle" x="234.38" y="-111" font-family="Helvetica,sans-Serif" font-size="10.00">ARAX_OBJ_DTOR_DECL</text>
</a>
</g>
</g>
<!-- Node1&#45;&gt;Node30 -->
<g id="edge27_Node000001_Node000030" class="edge">
<title>Node1&#45;&gt;Node30</title>
<g id="a_edge27_Node000001_Node000030"><a xlink:title=" ">
<path fill="none" stroke="#63b8ff" d="M1023.7,-256.44C1005.78,-249.39 983.36,-240.92 963,-234.25 935.92,-225.37 496.98,-101.09 468.75,-97.25 410.51,-89.33 395.05,-92.08 336.5,-97.25 317.94,-98.89 297.68,-102.19 280.2,-105.52"/>
<polygon fill="#63b8ff" stroke="#63b8ff" points="1022.22,-259.62 1032.81,-260.05 1024.8,-253.11 1022.22,-259.62"/>
</a>
</g>
</g>
<!-- Node31 -->
<g id="Node000031" class="node">
<title>Node31</title>
<g id="a_Node000031"><a xlink:href="a01931.html#aa4461ab1d225a0f76f08d2f37a4a7e0e" target="_top" xlink:title=" ">
<polygon fill="white" stroke="#666666" points="623.88,-425.75 508.88,-425.75 508.88,-396.75 623.88,-396.75 623.88,-425.75"/>
<text text-anchor="start" x="516.88" y="-412.25" font-family="Helvetica,sans-Serif" font-size="10.00">arax_pipe_add_orphan</text>
<text text-anchor="middle" x="566.38" y="-401.75" font-family="Helvetica,sans-Serif" font-size="10.00">_vaccel</text>
</a>
</g>
</g>
<!-- Node1&#45;&gt;Node31 -->
<g id="edge28_Node000001_Node000031" class="edge">
<title>Node1&#45;&gt;Node31</title>
<g id="a_edge28_Node000001_Node000031"><a xlink:title=" ">
<path fill="none" stroke="#63b8ff" d="M1049.02,-290.15C1035.33,-318.62 1005.88,-369.97 963,-392.25 854.08,-448.85 704.71,-435.75 624.25,-422.64"/>
<polygon fill="#63b8ff" stroke="#63b8ff" points="1052.14,-291.75 1053.14,-281.2 1045.78,-288.82 1052.14,-291.75"/>
</a>
</g>
</g>
<!-- Node32 -->
<g id="Node000032" class="node">
<title>Node32</title>
<g id="a_Node000032"><a xlink:href="a01931.html#a8ff14a859f9b7a34676c2fcdb762386b" target="_top" xlink:title=" ">
<polygon fill="white" stroke="#666666" points="954,-102.75 841.25,-102.75 841.25,-73.75 954,-73.75 954,-102.75"/>
<text text-anchor="start" x="849.25" y="-89.25" font-family="Helvetica,sans-Serif" font-size="10.00">arax_pipe_get_orphan</text>
<text text-anchor="middle" x="897.62" y="-78.75" font-family="Helvetica,sans-Serif" font-size="10.00">_vaccel</text>
</a>
</g>
</g>
<!-- Node1&#45;&gt;Node32 -->
<g id="edge30_Node000001_Node000032" class="edge">
<title>Node1&#45;&gt;Node32</title>
<g id="a_edge30_Node000001_Node000032"><a xlink:title=" ">
<path fill="none" stroke="#63b8ff" d="M1050.66,-249.88C1038.08,-216.56 1008.78,-150.32 963,-112.25 958.78,-108.74 954,-105.72 949,-103.12"/>
<polygon fill="#63b8ff" stroke="#63b8ff" points="1047.32,-250.93 1054.02,-259.13 1053.9,-248.53 1047.32,-250.93"/>
</a>
</g>
</g>
<!-- Node33 -->
<g id="Node000033" class="node">
<title>Node33</title>
<g id="a_Node000033"><a xlink:href="a01931.html#a6cb53dd71cfaedb214bc5aef0e572cc2" target="_top" xlink:title=" ">
<polygon fill="white" stroke="#666666" points="956.62,-55.5 838.62,-55.5 838.62,-37 956.62,-37 956.62,-55.5"/>
<text text-anchor="middle" x="897.62" y="-42" font-family="Helvetica,sans-Serif" font-size="10.00">arax_pipe_orphan_stop</text>
</a>
</g>
</g>
<!-- Node1&#45;&gt;Node33 -->
<g id="edge31_Node000001_Node000033" class="edge">
<title>Node1&#45;&gt;Node33</title>
<g id="a_edge31_Node000001_Node000033"><a xlink:title=" ">
<path fill="none" stroke="#63b8ff" d="M1054.22,-249.7C1046,-208.23 1021.63,-114.26 963,-64.25 959.03,-60.86 954.46,-58.11 949.63,-55.87"/>
<polygon fill="#63b8ff" stroke="#63b8ff" points="1050.73,-250.09 1056,-259.29 1057.61,-248.82 1050.73,-250.09"/>
</a>
</g>
</g>
<!-- Node34 -->
<g id="Node000034" class="node">
<title>Node34</title>
<g id="a_Node000034"><a xlink:href="a01931.html#aa5172b735dddd3f77fbb0265bbcdfc20" target="_top" xlink:title=" ">
<polygon fill="white" stroke="#666666" points="963,-346.75 832.25,-346.75 832.25,-317.75 963,-317.75 963,-346.75"/>
<text text-anchor="start" x="840.25" y="-333.25" font-family="Helvetica,sans-Serif" font-size="10.00">arax_pipe_remove_orphan</text>
<text text-anchor="middle" x="897.62" y="-322.75" font-family="Helvetica,sans-Serif" font-size="10.00">_vaccel</text>
</a>
</g>
</g>
<!-- Node1&#45;&gt;Node34 -->
<g id="edge32_Node000001_Node000034" class="edge">
<title>Node1&#45;&gt;Node34</title>
<g id="a_edge32_Node000001_Node000034"><a xlink:title=" ">
<path fill="none" stroke="#63b8ff" d="M1022.27,-284.08C996.94,-293.95 962.89,-307.21 936.94,-317.32"/>
<polygon fill="#63b8ff" stroke="#63b8ff" points="1023.43,-287.38 1031.48,-280.49 1020.89,-280.86 1023.43,-287.38"/>
</a>
</g>
</g>
<!-- Node35 -->
<g id="Node000035" class="node">
<title>Node35</title>
<g id="a_Node000035"><a xlink:href="a01943.html#a63b80783cfb3106ec4169ce082f153c0" target="_top" xlink:title=" ">
<polygon fill="white" stroke="#666666" points="954.75,-494.5 840.5,-494.5 840.5,-476 954.75,-476 954.75,-494.5"/>
<text text-anchor="middle" x="897.62" y="-481" font-family="Helvetica,sans-Serif" font-size="10.00">arax_throttle_size_dec</text>
</a>
</g>
</g>
<!-- Node1&#45;&gt;Node35 -->
<g id="edge35_Node000001_Node000035" class="edge">
<title>Node1&#45;&gt;Node35</title>
<g id="a_edge35_Node000001_Node000035"><a xlink:title=" ">
<path fill="none" stroke="#63b8ff" d="M1053.61,-290.82C1044.49,-330.71 1018.9,-418.8 963,-466.25 958.47,-470.1 953.19,-473.16 947.64,-475.61"/>
<polygon fill="#63b8ff" stroke="#63b8ff" points="1057,-291.67 1055.69,-281.16 1050.16,-290.2 1057,-291.67"/>
</a>
</g>
</g>
<!-- Node45 -->
<g id="Node000045" class="node">
<title>Node45</title>
<g id="a_Node000045"><a xlink:href="a01943.html#a7d3a67fa4eeb00cc9508a7ffe451a02f" target="_top" xlink:title=" ">
<polygon fill="white" stroke="#666666" points="953.25,-261.5 842,-261.5 842,-243 953.25,-243 953.25,-261.5"/>
<text text-anchor="middle" x="897.62" y="-248" font-family="Helvetica,sans-Serif" font-size="10.00">arax_throttle_size_inc</text>
</a>
</g>
</g>
<!-- Node1&#45;&gt;Node45 -->
<g id="edge46_Node000001_Node000045" class="edge">
<title>Node1&#45;&gt;Node45</title>
<g id="a_edge46_Node000001_Node000045"><a xlink:title=" ">
<path fill="none" stroke="#63b8ff" d="M987.64,-262.32C976.2,-261.02 964.49,-259.7 953.49,-258.46"/>
<polygon fill="#63b8ff" stroke="#63b8ff" points="987.12,-265.78 997.45,-263.43 987.9,-258.83 987.12,-265.78"/>
</a>
</g>
</g>
<!-- Node63 -->
<g id="Node000063" class="node">
<title>Node63</title>
<g id="a_Node000063"><a xlink:href="a02364.html#ac7fbf1f43289d3e0e862b315f00e35e2" target="_top" xlink:title=" ">
<polygon fill="white" stroke="#666666" points="949.5,-18.5 845.75,-18.5 845.75,0 949.5,0 949.5,-18.5"/>
<text text-anchor="middle" x="897.62" y="-5" font-family="Helvetica,sans-Serif" font-size="10.00">async_condition_init</text>
</a>
</g>
</g>
<!-- Node1&#45;&gt;Node63 -->
<g id="edge60_Node000001_Node000063" class="edge">
<title>Node1&#45;&gt;Node63</title>
<g id="a_edge60_Node000001_Node000063"><a xlink:title=" ">
<path fill="none" stroke="#63b8ff" d="M1055.69,-249.46C1049.96,-202.85 1029.56,-89.31 963,-28.25 958.79,-24.39 953.84,-21.31 948.57,-18.86"/>
<polygon fill="#63b8ff" stroke="#63b8ff" points="1052.2,-249.68 1056.78,-259.23 1059.15,-248.9 1052.2,-249.68"/>
</a>
</g>
</g>
<!-- Node3 -->
<g id="Node000003" class="node">
<title>Node3</title>
<g id="a_Node000003"><a xlink:href="a01913.html#aa6e4832b06bd5757be4502d2de7b3026" target="_top" xlink:title=" ">
<polygon fill="white" stroke="#666666" points="779.38,-691.75 680.88,-691.75 680.88,-662.75 779.38,-662.75 779.38,-691.75"/>
<text text-anchor="start" x="688.88" y="-678.25" font-family="Helvetica,sans-Serif" font-size="10.00">arax_controller_init</text>
<text text-anchor="middle" x="730.12" y="-667.75" font-family="Helvetica,sans-Serif" font-size="10.00">_start</text>
</a>
</g>
</g>
<!-- Node2&#45;&gt;Node3 -->
<g id="edge2_Node000002_Node000003" class="edge">
<title>Node2&#45;&gt;Node3</title>
<g id="a_edge2_Node000002_Node000003"><a xlink:title=" ">
<path fill="none" stroke="#63b8ff" d="M856.33,-677.25C833.22,-677.25 804.07,-677.25 779.7,-677.25"/>
<polygon fill="#63b8ff" stroke="#63b8ff" points="856.28,-680.75 866.28,-677.25 856.28,-673.75 856.28,-680.75"/>
</a>
</g>
</g>
<!-- Node4 -->
<g id="Node000004" class="node">
<title>Node4</title>
<g id="a_Node000004"><a xlink:href="a02189.html#gae1d371a2840849690acce147e7a205da" target="_top" xlink:title=" ">
<polygon fill="white" stroke="#666666" points="756.88,-728.5 703.38,-728.5 703.38,-710 756.88,-710 756.88,-728.5"/>
<text text-anchor="middle" x="730.12" y="-715" font-family="Helvetica,sans-Serif" font-size="10.00">arax_init</text>
</a>
</g>
</g>
<!-- Node2&#45;&gt;Node4 -->
<g id="edge3_Node000002_Node000004" class="edge">
<title>Node2&#45;&gt;Node4</title>
<g id="a_edge3_Node000002_Node000004"><a xlink:title=" ">
<path fill="none" stroke="#63b8ff" d="M856.95,-687.32C826.03,-695.17 783.96,-705.84 757.17,-712.64"/>
<polygon fill="#63b8ff" stroke="#63b8ff" points="857.5,-690.79 866.33,-684.94 855.78,-684.01 857.5,-690.79"/>
</a>
</g>
</g>
<!-- Node5 -->
<g id="Node000005" class="node">
<title>Node5</title>
<g id="a_Node000005"><a xlink:href="a01949.html#a8a99bcb12e2ee55d68a029bfca9b6d51" target="_top" xlink:title=" ">
<polygon fill="white" stroke="#666666" points="449.62,-711.75 355.62,-711.75 355.62,-682.75 449.62,-682.75 449.62,-711.75"/>
<text text-anchor="start" x="363.62" y="-698.25" font-family="Helvetica,sans-Serif" font-size="10.00">arax_plot_register</text>
<text text-anchor="middle" x="402.62" y="-687.75" font-family="Helvetica,sans-Serif" font-size="10.00">_metric</text>
</a>
</g>
</g>
<!-- Node4&#45;&gt;Node5 -->
<g id="edge4_Node000004_Node000005" class="edge">
<title>Node4&#45;&gt;Node5</title>
<g id="a_edge4_Node000004_Node000005"><a xlink:title=" ">
<path fill="none" stroke="#63b8ff" d="M691.88,-716.73C632.12,-712.69 514.92,-704.77 449.88,-700.38"/>
<polygon fill="#63b8ff" stroke="#63b8ff" points="691.31,-720.2 701.53,-717.38 691.79,-713.22 691.31,-720.2"/>
</a>
</g>
</g>
<!-- Node6 -->
<g id="Node000006" class="node">
<title>Node6</title>
<g id="a_Node000006"><a xlink:href="a01937.html#a80ab3bf4a8af9bb101b5a53248609771" target="_top" xlink:title=" ">
<polygon fill="white" stroke="#666666" points="604.75,-748.5 528,-748.5 528,-730 604.75,-730 604.75,-748.5"/>
<text text-anchor="middle" x="566.38" y="-735" font-family="Helvetica,sans-Serif" font-size="10.00">arax_ptr_valid</text>
</a>
</g>
</g>
<!-- Node4&#45;&gt;Node6 -->
<g id="edge5_Node000004_Node000006" class="edge">
<title>Node4&#45;&gt;Node6</title>
<g id="a_edge5_Node000004_Node000006"><a xlink:title=" ">
<path fill="none" stroke="#63b8ff" d="M691.84,-723.86C665.81,-727.08 631.18,-731.36 605.06,-734.59"/>
<polygon fill="#63b8ff" stroke="#63b8ff" points="692.14,-727.35 701.63,-722.65 691.28,-720.4 692.14,-727.35"/>
</a>
</g>
</g>
<!-- Node6&#45;&gt;Node5 -->
<g id="edge10_Node000006_Node000005" class="edge">
<title>Node6&#45;&gt;Node5</title>
<g id="a_edge10_Node000006_Node000005"><a xlink:title=" ">
<path fill="none" stroke="#63b8ff" d="M516.81,-726.64C495.6,-721.13 470.84,-714.7 449.89,-709.26"/>
<polygon fill="#63b8ff" stroke="#63b8ff" points="515.84,-730 526.39,-729.13 517.6,-723.23 515.84,-730"/>
</a>
</g>
</g>
<!-- Node7 -->
<g id="Node000007" class="node">
<title>Node7</title>
<g id="a_Node000007"><a xlink:href="a01970.html#a4ee1fea325d2edd421f59ab240dfbe54" target="_top" xlink:title=" ">
<polygon fill="white" stroke="#666666" points="448.5,-748.5 356.75,-748.5 356.75,-730 448.5,-730 448.5,-748.5"/>
<text text-anchor="middle" x="402.62" y="-735" font-family="Helvetica,sans-Serif" font-size="10.00">_arax_assert_obj</text>
</a>
</g>
</g>
<!-- Node6&#45;&gt;Node7 -->
<g id="edge6_Node000006_Node000007" class="edge">
<title>Node6&#45;&gt;Node7</title>
<g id="a_edge6_Node000006_Node000007"><a xlink:title=" ">
<path fill="none" stroke="#63b8ff" d="M516.63,-739.25C495.05,-739.25 469.84,-739.25 448.71,-739.25"/>
<polygon fill="#63b8ff" stroke="#63b8ff" points="516.35,-742.75 526.35,-739.25 516.35,-735.75 516.35,-742.75"/>
</a>
</g>
</g>
<!-- Node8 -->
<g id="Node000008" class="node">
<title>Node8</title>
<g id="a_Node000008"><a xlink:href="a01925.html#afeaab7d93372f0752d59c70d9c5940e7" target="_top" xlink:title=" ">
<polygon fill="white" stroke="#666666" points="440.62,-785.5 364.62,-785.5 364.62,-767 440.62,-767 440.62,-785.5"/>
<text text-anchor="middle" x="402.62" y="-772" font-family="Helvetica,sans-Serif" font-size="10.00">arax_data_ref</text>
</a>
</g>
</g>
<!-- Node6&#45;&gt;Node8 -->
<g id="edge7_Node000006_Node000008" class="edge">
<title>Node6&#45;&gt;Node8</title>
<g id="a_edge7_Node000006_Node000008"><a xlink:title=" ">
<path fill="none" stroke="#63b8ff" d="M516.71,-750.38C492.4,-755.94 463.46,-762.56 440.94,-767.71"/>
<polygon fill="#63b8ff" stroke="#63b8ff" points="517.42,-753.81 526.38,-748.17 515.86,-746.99 517.42,-753.81"/>
</a>
</g>
</g>
<!-- Node9 -->
<g id="Node000009" class="node">
<title>Node9</title>
<g id="a_Node000009"><a xlink:href="a01925.html#ac1f7fb20b3a23b388bea24f1b46a33a8" target="_top" xlink:title=" ">
<polygon fill="white" stroke="#666666" points="287,-803.5 181.75,-803.5 181.75,-785 287,-785 287,-803.5"/>
<text text-anchor="middle" x="234.38" y="-790" font-family="Helvetica,sans-Serif" font-size="10.00">arax_data_ref_offset</text>
</a>
</g>
</g>
<!-- Node6&#45;&gt;Node9 -->
<g id="edge9_Node000006_Node000009" class="edge">
<title>Node6&#45;&gt;Node9</title>
<g id="a_edge9_Node000006_Node000009"><a xlink:title=" ">
<path fill="none" stroke="#63b8ff" d="M544.43,-755.46C525.76,-768.82 497.06,-786.76 468.75,-794.25 408.04,-810.32 335.29,-806.93 287.34,-801.75"/>
<polygon fill="#63b8ff" stroke="#63b8ff" points="546.29,-758.44 552.26,-749.68 542.13,-752.81 546.29,-758.44"/>
</a>
</g>
</g>
<!-- Node8&#45;&gt;Node9 -->
<g id="edge8_Node000008_Node000009" class="edge">
<title>Node8&#45;&gt;Node9</title>
<g id="a_edge8_Node000008_Node000009"><a xlink:title=" ">
<path fill="none" stroke="#63b8ff" d="M352.95,-781.52C332.35,-783.75 308.32,-786.35 287.37,-788.62"/>
<polygon fill="#63b8ff" stroke="#63b8ff" points="353.25,-785.01 362.81,-780.45 352.49,-778.05 353.25,-785.01"/>
</a>
</g>
</g>
<!-- Node11 -->
<g id="Node000011" class="node">
<title>Node11</title>
<g id="a_Node000011"><a xlink:href="a01946.html#a8b82433bc8c7d7f03683ac521a3679fa" target="_top" xlink:title=" ">
<polygon fill="white" stroke="#666666" points="786.88,-550.5 673.38,-550.5 673.38,-532 786.88,-532 786.88,-550.5"/>
<text text-anchor="middle" x="730.12" y="-537" font-family="Helvetica,sans-Serif" font-size="10.00">arax_vaccel_add_task</text>
</a>
</g>
</g>
<!-- Node10&#45;&gt;Node11 -->
<g id="edge12_Node000010_Node000011" class="edge">
<title>Node10&#45;&gt;Node11</title>
<g id="a_edge12_Node000010_Node000011"><a xlink:title=" ">
<path fill="none" stroke="#63b8ff" d="M842.21,-462.13C838.76,-463.67 835.41,-465.37 832.25,-467.25 812.8,-478.81 814.17,-489.43 796.25,-503.25 781.94,-514.28 764.14,-524.46 750.76,-531.5"/>
<polygon fill="#63b8ff" stroke="#63b8ff" points="843.36,-465.44 851.38,-458.52 840.79,-458.93 843.36,-465.44"/>
</a>
</g>
</g>
<!-- Node12 -->
<g id="Node000012" class="node">
<title>Node12</title>
<g id="a_Node000012"><a xlink:href="a01940.html#ace08f924cb86d1310099621564536657" target="_top" xlink:title=" ">
<polygon fill="white" stroke="#666666" points="613.38,-587.5 519.38,-587.5 519.38,-569 613.38,-569 613.38,-587.5"/>
<text text-anchor="middle" x="566.38" y="-574" font-family="Helvetica,sans-Serif" font-size="10.00">arax_task_submit</text>
</a>
</g>
</g>
<!-- Node11&#45;&gt;Node12 -->
<g id="edge13_Node000011_Node000012" class="edge">
<title>Node11&#45;&gt;Node12</title>
<g id="a_edge13_Node000011_Node000012"><a xlink:title=" ">
<path fill="none" stroke="#63b8ff" d="M675.45,-553.53C654.12,-558.41 629.94,-563.94 609.87,-568.53"/>
<polygon fill="#63b8ff" stroke="#63b8ff" points="676.18,-556.95 685.15,-551.31 674.62,-550.13 676.18,-556.95"/>
</a>
</g>
</g>
<!-- Node13 -->
<g id="Node000013" class="node">
<title>Node13</title>
<g id="a_Node000013"><a xlink:href="a02192.html#gac9f0f3fbb14da879d3ff09bd367bbb24" target="_top" xlink:title=" ">
<polygon fill="#fff0f0" stroke="red" points="278.38,-550.5 190.38,-550.5 190.38,-532 278.38,-532 278.38,-550.5"/>
<text text-anchor="middle" x="234.38" y="-537" font-family="Helvetica,sans-Serif" font-size="10.00">arax_task_issue</text>
</a>
</g>
</g>
<!-- Node12&#45;&gt;Node13 -->
<g id="edge14_Node000012_Node000013" class="edge">
<title>Node12&#45;&gt;Node13</title>
<g id="a_edge14_Node000012_Node000013"><a xlink:title=" ">
<path fill="none" stroke="#63b8ff" d="M507.56,-583.33C461,-586.15 394.05,-587.32 336.5,-577.25 307.68,-572.21 276.17,-559.81 256.12,-550.98"/>
<polygon fill="#63b8ff" stroke="#63b8ff" points="507.68,-586.83 517.43,-582.69 507.22,-579.85 507.68,-586.83"/>
</a>
</g>
</g>
<!-- Node14 -->
<g id="Node000014" class="node">
<title>Node14</title>
<g id="a_Node000014"><a xlink:href="a01925.html#af8ede6fc8d207004035f45d945688d2c" target="_top" xlink:title=" ">
<polygon fill="white" stroke="#666666" points="115.38,-587.75 16.88,-587.75 16.88,-558.75 115.38,-558.75 115.38,-587.75"/>
<text text-anchor="start" x="24.88" y="-574.25" font-family="Helvetica,sans-Serif" font-size="10.00">arax_data_allocate</text>
<text text-anchor="middle" x="66.12" y="-563.75" font-family="Helvetica,sans-Serif" font-size="10.00">_remote</text>
</a>
</g>
</g>
<!-- Node13&#45;&gt;Node14 -->
<g id="edge15_Node000013_Node000014" class="edge">
<title>Node13&#45;&gt;Node14</title>
<g id="a_edge15_Node000013_Node000014"><a xlink:title=" ">
<path fill="none" stroke="#63b8ff" d="M179.09,-551.7C158.67,-555.63 135.6,-560.07 115.73,-563.89"/>
<polygon fill="#63b8ff" stroke="#63b8ff" points="179.48,-555.19 188.64,-549.86 178.16,-548.31 179.48,-555.19"/>
</a>
</g>
</g>
<!-- Node18 -->
<g id="Node000018" class="node">
<title>Node18</title>
<g id="a_Node000018"><a xlink:href="a01925.html#af735744d0f8bec04394639a841d2ba0f" target="_top" xlink:title=" ">
<polygon fill="white" stroke="#666666" points="132.25,-404.5 0,-404.5 0,-386 132.25,-386 132.25,-404.5"/>
<text text-anchor="middle" x="66.12" y="-391" font-family="Helvetica,sans-Serif" font-size="10.00">ARAX_OBJ_DTOR_DECL</text>
</a>
</g>
</g>
<!-- Node13&#45;&gt;Node18 -->
<g id="edge16_Node000013_Node000018" class="edge">
<title>Node13&#45;&gt;Node18</title>
<g id="a_edge16_Node000013_Node000018"><a xlink:title=" ">
<path fill="none" stroke="#63b8ff" d="M214,-524.24C178.79,-493.31 105.38,-428.85 77.86,-404.67"/>
<polygon fill="#63b8ff" stroke="#63b8ff" points="211.51,-526.7 221.33,-530.67 216.13,-521.44 211.51,-526.7"/>
</a>
</g>
</g>
<!-- Node21 -->
<g id="Node000021" class="node">
<title>Node21</title>
<g id="a_Node000021"><a xlink:href="a02190.html#ga30b30e50de286842c7942a7e3e163578" target="_top" xlink:title=" ">
<polygon fill="white" stroke="#666666" points="628,-378.5 504.75,-378.5 504.75,-360 628,-360 628,-378.5"/>
<text text-anchor="middle" x="566.38" y="-365" font-family="Helvetica,sans-Serif" font-size="10.00">arax_accel_set_physical</text>
</a>
</g>
</g>
<!-- Node20&#45;&gt;Node21 -->
<g id="edge18_Node000020_Node000021" class="edge">
<title>Node20&#45;&gt;Node21</title>
<g id="a_edge18_Node000020_Node000021"><a xlink:title=" ">
<path fill="none" stroke="#63b8ff" d="M675.45,-344.53C654.12,-349.41 629.94,-354.94 609.87,-359.53"/>
<polygon fill="#63b8ff" stroke="#63b8ff" points="676.18,-347.95 685.15,-342.31 674.62,-341.13 676.18,-347.95"/>
</a>
</g>
</g>
<!-- Node22 -->
<g id="Node000022" class="node">
<title>Node22</title>
<g id="a_Node000022"><a xlink:href="a01946.html#a83ddb422946cf774c687c1ab63dcda15" target="_top" xlink:title=" ">
<polygon fill="white" stroke="#666666" points="445.88,-420.5 359.38,-420.5 359.38,-402 445.88,-402 445.88,-420.5"/>
<text text-anchor="middle" x="402.62" y="-407" font-family="Helvetica,sans-Serif" font-size="10.00">arax_vaccel_init</text>
</a>
</g>
</g>
<!-- Node20&#45;&gt;Node22 -->
<g id="edge19_Node000020_Node000022" class="edge">
<title>Node20&#45;&gt;Node22</title>
<g id="a_edge19_Node000020_Node000022"><a xlink:title=" ">
<path fill="none" stroke="#63b8ff" d="M659.64,-325.1C613.37,-323.38 552.53,-327.14 504.75,-351.25 483.1,-362.18 489.2,-379.22 468.75,-392.25 461.9,-396.62 454,-400.01 446.13,-402.63"/>
<polygon fill="#63b8ff" stroke="#63b8ff" points="659.41,-328.6 669.56,-325.58 659.74,-321.6 659.41,-328.6"/>
</a>
</g>
</g>
<!-- Node23 -->
<g id="Node000023" class="node">
<title>Node23</title>
<g id="a_Node000023"><a xlink:href="a02190.html#gaf8a10ab4e51e59c464ab3ab473e4a0f7" target="_top" xlink:title=" ">
<polygon fill="white" stroke="#666666" points="297.5,-383.5 171.25,-383.5 171.25,-365 297.5,-365 297.5,-383.5"/>
<text text-anchor="middle" x="234.38" y="-370" font-family="Helvetica,sans-Serif" font-size="10.00">arax_accel_acquire_phys</text>
</a>
</g>
</g>
<!-- Node22&#45;&gt;Node23 -->
<g id="edge20_Node000022_Node000023" class="edge">
<title>Node22&#45;&gt;Node23</title>
<g id="a_edge20_Node000022_Node000023"><a xlink:title=" ">
<path fill="none" stroke="#63b8ff" d="M348.25,-399.37C325.93,-394.4 300.31,-388.7 279.13,-383.99"/>
<polygon fill="#63b8ff" stroke="#63b8ff" points="347.24,-402.73 357.77,-401.49 348.76,-395.9 347.24,-402.73"/>
</a>
</g>
</g>
<!-- Node24 -->
<g id="Node000024" class="node">
<title>Node24</title>
<g id="a_Node000024"><a xlink:href="a02190.html#ga008252bb9afc2990fa2c5f4b980c9f27" target="_top" xlink:title=" ">
<polygon fill="white" stroke="#666666" points="296.75,-420.5 172,-420.5 172,-402 296.75,-402 296.75,-420.5"/>
<text text-anchor="middle" x="234.38" y="-407" font-family="Helvetica,sans-Serif" font-size="10.00">arax_accel_acquire_type</text>
</a>
</g>
</g>
<!-- Node22&#45;&gt;Node24 -->
<g id="edge21_Node000022_Node000024" class="edge">
<title>Node22&#45;&gt;Node24</title>
<g id="a_edge21_Node000022_Node000024"><a xlink:title=" ">
<path fill="none" stroke="#63b8ff" d="M347.81,-411.25C331.64,-411.25 313.78,-411.25 297.14,-411.25"/>
<polygon fill="#63b8ff" stroke="#63b8ff" points="347.73,-414.75 357.73,-411.25 347.73,-407.75 347.73,-414.75"/>
</a>
</g>
</g>
<!-- Node25 -->
<g id="Node000025" class="node">
<title>Node25</title>
<g id="a_Node000025"><a xlink:href="a01919.html#a0706a66a62ca8710342ac1c097b703ed" target="_top" xlink:title=" ">
<polygon fill="white" stroke="#666666" points="275.38,-457.5 193.38,-457.5 193.38,-439 275.38,-439 275.38,-457.5"/>
<text text-anchor="middle" x="234.38" y="-444" font-family="Helvetica,sans-Serif" font-size="10.00">arax_accel_init</text>
</a>
</g>
</g>
<!-- Node22&#45;&gt;Node25 -->
<g id="edge22_Node000022_Node000025" class="edge">
<title>Node22&#45;&gt;Node25</title>
<g id="a_edge22_Node000022_Node000025"><a xlink:title=" ">
<path fill="none" stroke="#63b8ff" d="M348.04,-423.18C324.54,-428.41 297.42,-434.44 275.68,-439.28"/>
<polygon fill="#63b8ff" stroke="#63b8ff" points="348.76,-426.6 357.77,-421.01 347.24,-419.77 348.76,-426.6"/>
</a>
</g>
</g>
<!-- Node27 -->
<g id="Node000027" class="node">
<title>Node27</title>
<g id="a_Node000027"><a xlink:href="a01946.html#a5920cc4cd90589f3c5ac8686a72bcfc0" target="_top" xlink:title=" ">
<polygon fill="white" stroke="#666666" points="796.25,-381.5 664,-381.5 664,-363 796.25,-363 796.25,-381.5"/>
<text text-anchor="middle" x="730.12" y="-368" font-family="Helvetica,sans-Serif" font-size="10.00">ARAX_OBJ_DTOR_DECL</text>
</a>
</g>
</g>
<!-- Node26&#45;&gt;Node27 -->
<g id="edge24_Node000026_Node000027" class="edge">
<title>Node26&#45;&gt;Node27</title>
<g id="a_edge24_Node000026_Node000027"><a xlink:title=" ">
<path fill="none" stroke="#63b8ff" d="M828.45,-373.43C817.96,-373.3 807.15,-373.17 796.72,-373.04"/>
<polygon fill="#63b8ff" stroke="#63b8ff" points="828.11,-376.92 838.16,-373.54 828.2,-369.92 828.11,-376.92"/>
</a>
</g>
</g>
<!-- Node31&#45;&gt;Node22 -->
<g id="edge29_Node000031_Node000022" class="edge">
<title>Node31&#45;&gt;Node22</title>
<g id="a_edge29_Node000031_Node000022"><a xlink:title=" ">
<path fill="none" stroke="#63b8ff" d="M497.51,-411.25C480.1,-411.25 461.86,-411.25 446.14,-411.25"/>
<polygon fill="#63b8ff" stroke="#63b8ff" points="497.29,-414.75 507.29,-411.25 497.29,-407.75 497.29,-414.75"/>
</a>
</g>
</g>
<!-- Node34&#45;&gt;Node20 -->
<g id="edge33_Node000034_Node000020" class="edge">
<title>Node34&#45;&gt;Node20</title>
<g id="a_edge33_Node000034_Node000020"><a xlink:title=" ">
<path fill="none" stroke="#63b8ff" d="M820.83,-332.25C810.3,-332.25 799.62,-332.25 789.47,-332.25"/>
<polygon fill="#63b8ff" stroke="#63b8ff" points="820.65,-335.75 830.65,-332.25 820.65,-328.75 820.65,-335.75"/>
</a>
</g>
</g>
<!-- Node34&#45;&gt;Node27 -->
<g id="edge34_Node000034_Node000027" class="edge">
<title>Node34&#45;&gt;Node27</title>
<g id="a_edge34_Node000034_Node000027"><a xlink:title=" ">
<path fill="none" stroke="#63b8ff" d="M823.86,-349.84C805.78,-354.21 787.06,-358.73 771.21,-362.56"/>
<polygon fill="#63b8ff" stroke="#63b8ff" points="824.63,-353.25 833.53,-347.5 822.99,-346.45 824.63,-353.25"/>
</a>
</g>
</g>
<!-- Node36 -->
<g id="Node000036" class="node">
<title>Node36</title>
<g id="a_Node000036"><a xlink:href="a01919.html#a9c8e53aad4b86498a6b709c35c156fc3" target="_top" xlink:title=" ">
<polygon fill="white" stroke="#666666" points="288.12,-615.5 180.62,-615.5 180.62,-597 288.12,-597 288.12,-615.5"/>
<text text-anchor="middle" x="234.38" y="-602" font-family="Helvetica,sans-Serif" font-size="10.00">arax_accel_size_dec</text>
</a>
</g>
</g>
<!-- Node35&#45;&gt;Node36 -->
<g id="edge36_Node000035_Node000036" class="edge">
<title>Node35&#45;&gt;Node36</title>
<g id="a_edge36_Node000035_Node000036"><a xlink:title=" ">
<path fill="none" stroke="#63b8ff" d="M878.42,-502.4C859.39,-519.39 827.93,-544.88 796.25,-559.25 624.06,-637.36 391.73,-624.24 288.55,-613.18"/>
<polygon fill="#63b8ff" stroke="#63b8ff" points="880.57,-505.18 885.6,-495.86 875.85,-500.01 880.57,-505.18"/>
</a>
</g>
</g>
<!-- Node37 -->
<g id="Node000037" class="node">
<title>Node37</title>
<g id="a_Node000037"><a xlink:href="a01931.html#a6cc54ee40009c61b5f6526f5edff004f" target="_top" xlink:title=" ">
<polygon fill="white" stroke="#666666" points="781.25,-494.5 679,-494.5 679,-476 781.25,-476 781.25,-494.5"/>
<text text-anchor="middle" x="730.12" y="-481" font-family="Helvetica,sans-Serif" font-size="10.00">arax_pipe_size_dec</text>
</a>
</g>
</g>
<!-- Node35&#45;&gt;Node37 -->
<g id="edge38_Node000035_Node000037" class="edge">
<title>Node35&#45;&gt;Node37</title>
<g id="a_edge38_Node000035_Node000037"><a xlink:title=" ">
<path fill="none" stroke="#63b8ff" d="M828.79,-485.25C812.99,-485.25 796.44,-485.25 781.54,-485.25"/>
<polygon fill="#63b8ff" stroke="#63b8ff" points="828.62,-488.75 838.62,-485.25 828.62,-481.75 828.62,-488.75"/>
</a>
</g>
</g>
<!-- Node36&#45;&gt;Node14 -->
<g id="edge37_Node000036_Node000014" class="edge">
<title>Node36&#45;&gt;Node14</title>
<g id="a_edge37_Node000036_Node000014"><a xlink:title=" ">
<path fill="none" stroke="#63b8ff" d="M173.21,-594.31C154.33,-590.56 133.73,-586.47 115.76,-582.9"/>
<polygon fill="#63b8ff" stroke="#63b8ff" points="172.42,-597.72 182.91,-596.23 173.78,-590.85 172.42,-597.72"/>
</a>
</g>
</g>
<!-- Node38 -->
<g id="Node000038" class="node">
<title>Node38</title>
<g id="a_Node000038"><a xlink:href="a01928.html#a402bbd6fa197c2c48d527325e5e2cf5b" target="_top" xlink:title=" ">
<polygon fill="white" stroke="#666666" points="618.62,-494.5 514.12,-494.5 514.12,-476 618.62,-476 618.62,-494.5"/>
<text text-anchor="middle" x="566.38" y="-481" font-family="Helvetica,sans-Serif" font-size="10.00">arax_object_register</text>
</a>
</g>
</g>
<!-- Node37&#45;&gt;Node38 -->
<g id="edge39_Node000037_Node000038" class="edge">
<title>Node37&#45;&gt;Node38</title>
<g id="a_edge39_Node000037_Node000038"><a xlink:title=" ">
<path fill="none" stroke="#63b8ff" d="M667.43,-485.25C651.46,-485.25 634.43,-485.25 619.03,-485.25"/>
<polygon fill="#63b8ff" stroke="#63b8ff" points="667.32,-488.75 677.32,-485.25 667.32,-481.75 667.32,-488.75"/>
</a>
</g>
</g>
<!-- Node38&#45;&gt;Node22 -->
<g id="edge45_Node000038_Node000022" class="edge">
<title>Node38&#45;&gt;Node22</title>
<g id="a_edge45_Node000038_Node000022"><a xlink:title=" ">
<path fill="none" stroke="#63b8ff" d="M539.19,-470.09C520.04,-459.34 493.24,-444.97 468.75,-434.25 457.66,-429.39 445.18,-424.79 434.14,-420.99"/>
<polygon fill="#63b8ff" stroke="#63b8ff" points="537.24,-473.01 547.67,-474.9 540.7,-466.92 537.24,-473.01"/>
</a>
</g>
</g>
<!-- Node38&#45;&gt;Node25 -->
<g id="edge40_Node000038_Node000025" class="edge">
<title>Node38&#45;&gt;Node25</title>
<g id="a_edge40_Node000038_Node000025"><a xlink:title=" ">
<path fill="none" stroke="#63b8ff" d="M507.81,-473.52C494.99,-471.19 481.44,-468.94 468.75,-467.25 401.26,-458.24 322.18,-452.89 275.57,-450.26"/>
<polygon fill="#63b8ff" stroke="#63b8ff" points="506.88,-476.91 517.35,-475.3 508.16,-470.03 506.88,-476.91"/>
</a>
</g>
</g>
<!-- Node39 -->
<g id="Node000039" class="node">
<title>Node39</title>
<g id="a_Node000039"><a xlink:href="a01925.html#a526989df37e605824d846b7ba54b43ea" target="_top" xlink:title=" ">
<polygon fill="#fff0f0" stroke="red" points="459.38,-568.5 345.88,-568.5 345.88,-550 459.38,-550 459.38,-568.5"/>
<text text-anchor="middle" x="402.62" y="-555" font-family="Helvetica,sans-Serif" font-size="10.00">arax_data_init_aligned</text>
</a>
</g>
</g>
<!-- Node38&#45;&gt;Node39 -->
<g id="edge41_Node000038_Node000039" class="edge">
<title>Node38&#45;&gt;Node39</title>
<g id="a_edge41_Node000038_Node000039"><a xlink:title=" ">
<path fill="none" stroke="#63b8ff" d="M541.22,-501.12C522.15,-513.11 494.54,-529.32 468.75,-540.25 460.4,-543.79 451.18,-546.92 442.37,-549.56"/>
<polygon fill="#63b8ff" stroke="#63b8ff" points="543.05,-504.1 549.59,-495.76 539.28,-498.2 543.05,-504.1"/>
</a>
</g>
</g>
<!-- Node42 -->
<g id="Node000042" class="node">
<title>Node42</title>
<g id="a_Node000042"><a xlink:href="a01934.html#a86ac572ea8f5f613129192c47d598818" target="_top" xlink:title=" ">
<polygon fill="#fff0f0" stroke="red" points="441.38,-531.5 363.88,-531.5 363.88,-513 441.38,-513 441.38,-531.5"/>
<text text-anchor="middle" x="402.62" y="-518" font-family="Helvetica,sans-Serif" font-size="10.00">arax_proc_init</text>
</a>
</g>
</g>
<!-- Node38&#45;&gt;Node42 -->
<g id="edge42_Node000038_Node000042" class="edge">
<title>Node38&#45;&gt;Node42</title>
<g id="a_edge42_Node000038_Node000042"><a xlink:title=" ">
<path fill="none" stroke="#63b8ff" d="M511.91,-497.48C488.94,-502.73 462.63,-508.75 441.7,-513.54"/>
<polygon fill="#63b8ff" stroke="#63b8ff" points="512.43,-500.95 521.4,-495.31 510.87,-494.13 512.43,-500.95"/>
</a>
</g>
</g>
<!-- Node44 -->
<g id="Node000044" class="node">
<title>Node44</title>
<g id="a_Node000044"><a xlink:href="a01940.html#a27bee94f7a23281c8b2b72ec433f6059" target="_top" xlink:title=" ">
<polygon fill="white" stroke="#666666" points="445.12,-494.5 360.12,-494.5 360.12,-476 445.12,-476 445.12,-494.5"/>
<text text-anchor="middle" x="402.62" y="-481" font-family="Helvetica,sans-Serif" font-size="10.00">arax_task_alloc</text>
</a>
</g>
</g>
<!-- Node38&#45;&gt;Node44 -->
<g id="edge43_Node000038_Node000044" class="edge">
<title>Node38&#45;&gt;Node44</title>
<g id="a_edge43_Node000038_Node000044"><a xlink:title=" ">
<path fill="none" stroke="#63b8ff" d="M502.42,-485.25C483.36,-485.25 462.91,-485.25 445.58,-485.25"/>
<polygon fill="#63b8ff" stroke="#63b8ff" points="502.24,-488.75 512.24,-485.25 502.24,-481.75 502.24,-488.75"/>
</a>
</g>
</g>
<!-- Node44&#45;&gt;Node13 -->
<g id="edge44_Node000044_Node000013" class="edge">
<title>Node44&#45;&gt;Node13</title>
<g id="a_edge44_Node000044_Node000013"><a xlink:title=" ">
<path fill="none" stroke="#63b8ff" d="M355.87,-498.18C349.34,-500.14 342.74,-502.2 336.5,-504.25 310.39,-512.82 280.92,-523.75 260.56,-531.5"/>
<polygon fill="#63b8ff" stroke="#63b8ff" points="356.63,-501.6 365.23,-495.41 354.65,-494.89 356.63,-501.6"/>
</a>
</g>
</g>
<!-- Node46 -->
<g id="Node000046" class="node">
<title>Node46</title>
<g id="a_Node000046"><a xlink:href="a01919.html#a926dd9c41781c18d0c9f7fdf2b72cfdc" target="_top" xlink:title=" ">
<polygon fill="white" stroke="#666666" points="782.38,-291.5 677.88,-291.5 677.88,-273 782.38,-273 782.38,-291.5"/>
<text text-anchor="middle" x="730.12" y="-278" font-family="Helvetica,sans-Serif" font-size="10.00">arax_accel_size_inc</text>
</a>
</g>
</g>
<!-- Node45&#45;&gt;Node46 -->
<g id="edge47_Node000045_Node000046" class="edge">
<title>Node45&#45;&gt;Node46</title>
<g id="a_edge47_Node000045_Node000046"><a xlink:title=" ">
<path fill="none" stroke="#63b8ff" d="M831.79,-264C815.47,-266.96 798.18,-270.1 782.62,-272.92"/>
<polygon fill="#63b8ff" stroke="#63b8ff" points="832.19,-267.49 841.4,-262.26 830.94,-260.6 832.19,-267.49"/>
</a>
</g>
</g>
<!-- Node47 -->
<g id="Node000047" class="node">
<title>Node47</title>
<g id="a_Node000047"><a xlink:href="a01931.html#a9f30684f01feac766b42d622970ed5a6" target="_top" xlink:title=" ">
<polygon fill="white" stroke="#666666" points="779.75,-254.5 680.5,-254.5 680.5,-236 779.75,-236 779.75,-254.5"/>
<text text-anchor="middle" x="730.12" y="-241" font-family="Helvetica,sans-Serif" font-size="10.00">arax_pipe_size_inc</text>
</a>
</g>
</g>
<!-- Node45&#45;&gt;Node47 -->
<g id="edge48_Node000045_Node000047" class="edge">
<title>Node45&#45;&gt;Node47</title>
<g id="a_edge48_Node000045_Node000047"><a xlink:title=" ">
<path fill="none" stroke="#63b8ff" d="M830.14,-249.44C813.44,-248.73 795.82,-247.99 780.15,-247.32"/>
<polygon fill="#63b8ff" stroke="#63b8ff" points="829.86,-252.93 840,-249.86 830.16,-245.94 829.86,-252.93"/>
</a>
</g>
</g>
<!-- Node48 -->
<g id="Node000048" class="node">
<title>Node48</title>
<g id="a_Node000048"><a xlink:href="a01928.html#afe7e4a63c40fbcaae742b8de8693483f" target="_top" xlink:title=" ">
<polygon fill="#fff0f0" stroke="red" points="618.62,-241.5 514.12,-241.5 514.12,-223 618.62,-223 618.62,-241.5"/>
<text text-anchor="middle" x="566.38" y="-228" font-family="Helvetica,sans-Serif" font-size="10.00">arax_object_ref_dec</text>
</a>
</g>
</g>
<!-- Node47&#45;&gt;Node48 -->
<g id="edge49_Node000047_Node000048" class="edge">
<title>Node47&#45;&gt;Node48</title>
<g id="a_edge49_Node000047_Node000048"><a xlink:title=" ">
<path fill="none" stroke="#63b8ff" d="M669.01,-240.42C652.57,-239.1 634.9,-237.68 618.98,-236.4"/>
<polygon fill="#63b8ff" stroke="#63b8ff" points="668.4,-243.88 678.65,-241.19 668.96,-236.9 668.4,-243.88"/>
</a>
</g>
</g>
<!-- Node60 -->
<g id="Node000060" class="node">
<title>Node60</title>
<g id="a_Node000060"><a xlink:href="a01928.html#a0a0b147b7fc892c291afe60cb0fa2c1c" target="_top" xlink:title=" ">
<polygon fill="#fff0f0" stroke="red" points="618.62,-288.75 514.12,-288.75 514.12,-259.75 618.62,-259.75 618.62,-288.75"/>
<text text-anchor="start" x="522.12" y="-275.25" font-family="Helvetica,sans-Serif" font-size="10.00">arax_object_ref_dec</text>
<text text-anchor="middle" x="566.38" y="-264.75" font-family="Helvetica,sans-Serif" font-size="10.00">_pre_locked</text>
</a>
</g>
</g>
<!-- Node47&#45;&gt;Node60 -->
<g id="edge59_Node000047_Node000060" class="edge">
<title>Node47&#45;&gt;Node60</title>
<g id="a_edge59_Node000047_Node000060"><a xlink:title=" ">
<path fill="none" stroke="#63b8ff" d="M669.01,-256.03C652.57,-258.98 634.9,-262.14 618.98,-265"/>
<polygon fill="#63b8ff" stroke="#63b8ff" points="669.44,-259.51 678.67,-254.3 668.21,-252.62 669.44,-259.51"/>
</a>
</g>
</g>
<!-- Node48&#45;&gt;Node18 -->
<g id="edge55_Node000048_Node000018" class="edge">
<title>Node48&#45;&gt;Node18</title>
<g id="a_edge55_Node000048_Node000018"><a xlink:title=" ">
<path fill="none" stroke="#63b8ff" d="M502.35,-228.33C455.65,-227.21 390.94,-229.45 336.5,-245.25 228.29,-276.65 115.9,-357.83 79.37,-385.69"/>
<polygon fill="#63b8ff" stroke="#63b8ff" points="502.2,-231.83 512.3,-228.63 502.42,-224.83 502.2,-231.83"/>
</a>
</g>
</g>
<!-- Node49 -->
<g id="Node000049" class="node">
<title>Node49</title>
<g id="a_Node000049"><a xlink:href="a02190.html#ga41bcefd54b929d1a638d174da051130f" target="_top" xlink:title=" ">
<polygon fill="white" stroke="#666666" points="454.5,-198.5 350.75,-198.5 350.75,-180 454.5,-180 454.5,-198.5"/>
<text text-anchor="middle" x="402.62" y="-185" font-family="Helvetica,sans-Serif" font-size="10.00">arax_accel_list_free</text>
</a>
</g>
</g>
<!-- Node48&#45;&gt;Node49 -->
<g id="edge50_Node000048_Node000049" class="edge">
<title>Node48&#45;&gt;Node49</title>
<g id="a_edge50_Node000048_Node000049"><a xlink:title=" ">
<path fill="none" stroke="#63b8ff" d="M518.05,-219.67C493.17,-213.05 463.14,-205.07 440.08,-198.94"/>
<polygon fill="#63b8ff" stroke="#63b8ff" points="517.05,-223.02 527.61,-222.21 518.85,-216.26 517.05,-223.02"/>
</a>
</g>
</g>
<!-- Node50 -->
<g id="Node000050" class="node">
<title>Node50</title>
<g id="a_Node000050"><a xlink:href="a02190.html#ga497b17905d4c7ee2f5ee831d367ece92" target="_top" xlink:title=" ">
<polygon fill="white" stroke="#666666" points="453,-161.5 352.25,-161.5 352.25,-143 453,-143 453,-161.5"/>
<text text-anchor="middle" x="402.62" y="-148" font-family="Helvetica,sans-Serif" font-size="10.00">arax_accel_release</text>
</a>
</g>
</g>
<!-- Node48&#45;&gt;Node50 -->
<g id="edge51_Node000048_Node000050" class="edge">
<title>Node48&#45;&gt;Node50</title>
<g id="a_edge51_Node000048_Node000050"><a xlink:title=" ">
<path fill="none" stroke="#63b8ff" d="M543.36,-215.84C524.4,-202.33 495.89,-183.48 468.75,-171.25 460.8,-167.67 452.01,-164.57 443.52,-161.97"/>
<polygon fill="#63b8ff" stroke="#63b8ff" points="541.22,-218.6 551.37,-221.64 545.33,-212.94 541.22,-218.6"/>
</a>
</g>
</g>
<!-- Node51 -->
<g id="Node000051" class="node">
<title>Node51</title>
<g id="a_Node000051"><a xlink:href="a01925.html#a96e0520e5569748ce1172bafca24fafe" target="_top" xlink:title=" ">
<polygon fill="white" stroke="#666666" points="443.25,-124.5 362,-124.5 362,-106 443.25,-106 443.25,-124.5"/>
<text text-anchor="middle" x="402.62" y="-111" font-family="Helvetica,sans-Serif" font-size="10.00">arax_data_free</text>
</a>
</g>
</g>
<!-- Node48&#45;&gt;Node51 -->
<g id="edge53_Node000048_Node000051" class="edge">
<title>Node48&#45;&gt;Node51</title>
<g id="a_edge53_Node000048_Node000051"><a xlink:title=" ">
<path fill="none" stroke="#63b8ff" d="M551.79,-213.54C534.78,-191.44 503.62,-155.07 468.75,-134.25 461.06,-129.66 452.2,-126.12 443.54,-123.42"/>
<polygon fill="#63b8ff" stroke="#63b8ff" points="548.86,-215.47 557.66,-221.37 554.46,-211.27 548.86,-215.47"/>
</a>
</g>
</g>
<!-- Node52 -->
<g id="Node000052" class="node">
<title>Node52</title>
<g id="a_Node000052"><a xlink:href="a01925.html#a4b65f90a821aca384f0ca1cff7bd1846" target="_top" xlink:title=" ">
<polygon fill="#fff0f0" stroke="red" points="465.38,-383.5 339.88,-383.5 339.88,-365 465.38,-365 465.38,-383.5"/>
<text text-anchor="middle" x="402.62" y="-370" font-family="Helvetica,sans-Serif" font-size="10.00">arax_data_migrate_accel</text>
</a>
</g>
</g>
<!-- Node48&#45;&gt;Node52 -->
<g id="edge54_Node000048_Node000052" class="edge">
<title>Node48&#45;&gt;Node52</title>
<g id="a_edge54_Node000048_Node000052"><a xlink:title=" ">
<path fill="none" stroke="#63b8ff" d="M508.67,-247.87C507.3,-248.92 505.99,-250.05 504.75,-251.25 469.66,-285.32 504.18,-321.53 468.75,-355.25 464.74,-359.07 460.01,-362.12 454.95,-364.57"/>
<polygon fill="#63b8ff" stroke="#63b8ff" points="510.46,-250.88 517.18,-242.68 506.82,-244.9 510.46,-250.88"/>
</a>
</g>
</g>
<!-- Node56 -->
<g id="Node000056" class="node">
<title>Node56</title>
<g id="a_Node000056"><a xlink:href="a01940.html#a5eb16d4196838d10a2b57715f2eddee7" target="_top" xlink:title=" ">
<polygon fill="white" stroke="#666666" points="468.75,-346.5 336.5,-346.5 336.5,-328 468.75,-328 468.75,-346.5"/>
<text text-anchor="middle" x="402.62" y="-333" font-family="Helvetica,sans-Serif" font-size="10.00">ARAX_OBJ_DTOR_DECL</text>
</a>
</g>
</g>
<!-- Node48&#45;&gt;Node56 -->
<g id="edge56_Node000048_Node000056" class="edge">
<title>Node48&#45;&gt;Node56</title>
<g id="a_edge56_Node000048_Node000056"><a xlink:title=" ">
<path fill="none" stroke="#63b8ff" d="M510.21,-247.29C508.3,-248.51 506.47,-249.83 504.75,-251.25 478.69,-272.79 495.02,-296.97 468.75,-318.25 463.99,-322.1 458.48,-325.18 452.71,-327.63"/>
<polygon fill="#63b8ff" stroke="#63b8ff" points="511.73,-250.45 518.94,-242.69 508.46,-244.26 511.73,-250.45"/>
</a>
</g>
</g>
<!-- Node57 -->
<g id="Node000057" class="node">
<title>Node57</title>
<g id="a_Node000057"><a xlink:href="a01931.html#aa0862a60d187bfed0cfa11bf27174551" target="_top" xlink:title=" ">
<polygon fill="white" stroke="#666666" points="462,-309.5 343.25,-309.5 343.25,-291 462,-291 462,-309.5"/>
<text text-anchor="middle" x="402.62" y="-296" font-family="Helvetica,sans-Serif" font-size="10.00">arax_pipe_delete_accel</text>
</a>
</g>
</g>
<!-- Node48&#45;&gt;Node57 -->
<g id="edge57_Node000048_Node000057" class="edge">
<title>Node48&#45;&gt;Node57</title>
<g id="a_edge57_Node000048_Node000057"><a xlink:title=" ">
<path fill="none" stroke="#63b8ff" d="M516.11,-245.86C512.19,-247.49 508.35,-249.29 504.75,-251.25 486.46,-261.22 487.13,-271.46 468.75,-281.25 461.78,-284.96 454,-288.03 446.31,-290.54"/>
<polygon fill="#63b8ff" stroke="#63b8ff" points="517.06,-249.24 525.19,-242.44 514.6,-242.69 517.06,-249.24"/>
</a>
</g>
</g>
<!-- Node58 -->
<g id="Node000058" class="node">
<title>Node58</title>
<g id="a_Node000058"><a xlink:href="a02191.html#ga70242aa6d9591e5fa3dbb36f1e27a896" target="_top" xlink:title=" ">
<polygon fill="#fff0f0" stroke="red" points="441.75,-272.5 363.5,-272.5 363.5,-254 441.75,-254 441.75,-272.5"/>
<text text-anchor="middle" x="402.62" y="-259" font-family="Helvetica,sans-Serif" font-size="10.00">arax_proc_put</text>
</a>
</g>
</g>
<!-- Node48&#45;&gt;Node58 -->
<g id="edge58_Node000048_Node000058" class="edge">
<title>Node48&#45;&gt;Node58</title>
<g id="a_edge58_Node000048_Node000058"><a xlink:title=" ">
<path fill="none" stroke="#63b8ff" d="M503.4,-244.13C482.78,-248.08 460.43,-252.36 442.11,-255.87"/>
<polygon fill="#63b8ff" stroke="#63b8ff" points="503.99,-247.58 513.15,-242.26 502.67,-240.7 503.99,-247.58"/>
</a>
</g>
</g>
<!-- Node50&#45;&gt;Node30 -->
<g id="edge52_Node000050_Node000030" class="edge">
<title>Node50&#45;&gt;Node30</title>
<g id="a_edge52_Node000050_Node000030"><a xlink:title=" ">
<path fill="none" stroke="#63b8ff" d="M346.76,-140.04C324.76,-135.14 299.78,-129.58 279.05,-124.97"/>
<polygon fill="#63b8ff" stroke="#63b8ff" points="345.95,-143.44 356.47,-142.2 347.47,-136.61 345.95,-143.44"/>
</a>
</g>
</g>
</g>
</svg>
