<?xml version="1.0" encoding="UTF-8" standalone="no"?>
<!DOCTYPE svg PUBLIC "-//W3C//DTD SVG 1.1//EN"
 "http://www.w3.org/Graphics/SVG/1.1/DTD/svg11.dtd">
<!-- Generated by graphviz version 12.2.1 (0)
 -->
<!-- Title: arax_object_register Pages: 1 -->
<svg width="732pt" height="175pt"
 viewBox="0.00 0.00 731.50 174.50" xmlns="http://www.w3.org/2000/svg" xmlns:xlink="http://www.w3.org/1999/xlink">
<g id="graph0" class="graph" transform="scale(1 1) rotate(0) translate(4 170.5)">
<title>arax_object_register</title>
<!-- Node1 -->
<g id="Node000001" class="node">
<title>Node1</title>
<g id="a_Node000001"><a xlink:title=" ">
<polygon fill="#999999" stroke="#666666" points="104.5,-73.5 0,-73.5 0,-55 104.5,-55 104.5,-73.5"/>
<text text-anchor="middle" x="52.25" y="-60" font-family="Helvetica,sans-Serif" font-size="10.00">arax_object_register</text>
</a>
</g>
</g>
<!-- Node2 -->
<g id="Node000002" class="node">
<title>Node2</title>
<g id="a_Node000002"><a xlink:href="a01928.html#a6cc54ee40009c61b5f6526f5edff004f" target="_top" xlink:title=" ">
<polygon fill="white" stroke="#666666" points="242.75,-129.5 140.5,-129.5 140.5,-111 242.75,-111 242.75,-129.5"/>
<text text-anchor="middle" x="191.62" y="-116" font-family="Helvetica,sans-Serif" font-size="10.00">arax_pipe_size_dec</text>
</a>
</g>
</g>
<!-- Node1&#45;&gt;Node2 -->
<g id="edge1_Node000001_Node000002" class="edge">
<title>Node1&#45;&gt;Node2</title>
<g id="a_edge1_Node000001_Node000002"><a xlink:title=" ">
<path fill="none" stroke="#63b8ff" d="M75.39,-73.92C92.96,-81.53 118.21,-92.3 140.5,-101.25 144.87,-103 149.48,-104.81 154.05,-106.57"/>
<polygon fill="#63b8ff" stroke="#63b8ff" points="152.53,-109.74 163.12,-110.04 155.03,-103.2 152.53,-109.74"/>
</a>
</g>
</g>
<!-- Node10 -->
<g id="Node000010" class="node">
<title>Node10</title>
<g id="a_Node000010"><a xlink:href="a02355.html#ac9828b5c2758940f6d3c7d4335228de5" target="_top" xlink:title=" ">
<polygon fill="white" stroke="#666666" points="241.25,-92.5 142,-92.5 142,-74 241.25,-74 241.25,-92.5"/>
<text text-anchor="middle" x="191.62" y="-79" font-family="Helvetica,sans-Serif" font-size="10.00">arch_alloc_allocate</text>
</a>
</g>
</g>
<!-- Node1&#45;&gt;Node10 -->
<g id="edge13_Node000001_Node000010" class="edge">
<title>Node1&#45;&gt;Node10</title>
<g id="a_edge13_Node000001_Node000010"><a xlink:title=" ">
<path fill="none" stroke="#63b8ff" d="M104.79,-71.38C113.06,-72.52 121.69,-73.72 130.14,-74.89"/>
<polygon fill="#63b8ff" stroke="#63b8ff" points="129.64,-78.35 140.02,-76.25 130.6,-71.41 129.64,-78.35"/>
</a>
</g>
</g>
<!-- Node11 -->
<g id="Node000011" class="node">
<title>Node11</title>
<g id="a_Node000011"><a xlink:href="a01955.html#ae06a9e78e6a4f6c9c8afcf0f4862ce29" target="_top" xlink:title=" ">
<polygon fill="white" stroke="#666666" points="228.12,-55.5 155.12,-55.5 155.12,-37 228.12,-37 228.12,-55.5"/>
<text text-anchor="middle" x="191.62" y="-42" font-family="Helvetica,sans-Serif" font-size="10.00">utils_list_add</text>
</a>
</g>
</g>
<!-- Node1&#45;&gt;Node11 -->
<g id="edge14_Node000001_Node000011" class="edge">
<title>Node1&#45;&gt;Node11</title>
<g id="a_edge14_Node000001_Node000011"><a xlink:title=" ">
<path fill="none" stroke="#63b8ff" d="M104.79,-57.5C117.5,-55.83 131.05,-54.06 143.53,-52.42"/>
<polygon fill="#63b8ff" stroke="#63b8ff" points="143.68,-55.93 153.14,-51.16 142.77,-48.99 143.68,-55.93"/>
</a>
</g>
</g>
<!-- Node13 -->
<g id="Node000013" class="node">
<title>Node13</title>
<g id="a_Node000013"><a xlink:href="a01955.html#a63f2791c9b5c8e2fa15967cfafb7ccbb" target="_top" xlink:title=" ">
<polygon fill="white" stroke="#666666" points="239.75,-18.5 143.5,-18.5 143.5,0 239.75,0 239.75,-18.5"/>
<text text-anchor="middle" x="191.62" y="-5" font-family="Helvetica,sans-Serif" font-size="10.00">utils_list_node_init</text>
</a>
</g>
</g>
<!-- Node1&#45;&gt;Node13 -->
<g id="edge16_Node000001_Node000013" class="edge">
<title>Node1&#45;&gt;Node13</title>
<g id="a_edge16_Node000001_Node000013"><a xlink:title=" ">
<path fill="none" stroke="#63b8ff" d="M76.14,-54.59C93.7,-47.24 118.56,-36.93 140.5,-28.25 144.88,-26.52 149.49,-24.73 154.06,-22.97"/>
<polygon fill="#63b8ff" stroke="#63b8ff" points="155.04,-26.34 163.14,-19.51 152.55,-19.8 155.04,-26.34"/>
</a>
</g>
</g>
<!-- Node2&#45;&gt;Node2 -->
<g id="edge2_Node000002_Node000002" class="edge">
<title>Node2&#45;&gt;Node2</title>
<g id="a_edge2_Node000002_Node000002"><a xlink:title=" ">
<path fill="none" stroke="#63b8ff" d="M170.14,-129.75C159.69,-138.32 166.85,-147.5 191.62,-147.5 205.56,-147.5 213.92,-144.59 216.71,-140.53"/>
<polygon fill="#63b8ff" stroke="#63b8ff" points="220.08,-139.56 213.59,-131.18 213.44,-141.77 220.08,-139.56"/>
</a>
</g>
</g>
<!-- Node3 -->
<g id="Node000003" class="node">
<title>Node3</title>
<g id="a_Node000003"><a xlink:href="a01940.html#a63b80783cfb3106ec4169ce082f153c0" target="_top" xlink:title=" ">
<polygon fill="white" stroke="#666666" points="393,-129.5 278.75,-129.5 278.75,-111 393,-111 393,-129.5"/>
<text text-anchor="middle" x="335.88" y="-116" font-family="Helvetica,sans-Serif" font-size="10.00">arax_throttle_size_dec</text>
</a>
</g>
</g>
<!-- Node2&#45;&gt;Node3 -->
<g id="edge3_Node000002_Node000003" class="edge">
<title>Node2&#45;&gt;Node3</title>
<g id="a_edge3_Node000002_Node000003"><a xlink:title=" ">
<path fill="none" stroke="#63b8ff" d="M243.18,-120.25C250.99,-120.25 259.17,-120.25 267.29,-120.25"/>
<polygon fill="#63b8ff" stroke="#63b8ff" points="267.17,-123.75 277.17,-120.25 267.17,-116.75 267.17,-123.75"/>
</a>
</g>
</g>
<!-- Node3&#45;&gt;Node3 -->
<g id="edge4_Node000003_Node000003" class="edge">
<title>Node3&#45;&gt;Node3</title>
<g id="a_edge4_Node000003_Node000003"><a xlink:title=" ">
<path fill="none" stroke="#63b8ff" d="M313.64,-129.75C302.83,-138.32 310.24,-147.5 335.88,-147.5 350.3,-147.5 358.95,-144.59 361.84,-140.53"/>
<polygon fill="#63b8ff" stroke="#63b8ff" points="365.18,-139.48 358.6,-131.18 358.56,-141.77 365.18,-139.48"/>
</a>
</g>
</g>
<!-- Node4 -->
<g id="Node000004" class="node">
<title>Node4</title>
<g id="a_Node000004"><a xlink:href="a02364.html#aed6af4d83e934e3e654ead541b15f2d9" target="_top" xlink:title=" ">
<polygon fill="white" stroke="#666666" points="543.25,-166.5 434.25,-166.5 434.25,-148 543.25,-148 543.25,-166.5"/>
<text text-anchor="middle" x="488.75" y="-153" font-family="Helvetica,sans-Serif" font-size="10.00">async_condition_lock</text>
</a>
</g>
</g>
<!-- Node3&#45;&gt;Node4 -->
<g id="edge5_Node000003_Node000004" class="edge">
<title>Node3&#45;&gt;Node4</title>
<g id="a_edge5_Node000003_Node000004"><a xlink:title=" ">
<path fill="none" stroke="#63b8ff" d="M376.52,-129.97C395.07,-134.52 417.38,-139.99 437.13,-144.84"/>
<polygon fill="#63b8ff" stroke="#63b8ff" points="436.1,-148.19 446.64,-147.17 437.76,-141.39 436.1,-148.19"/>
</a>
</g>
</g>
<!-- Node6 -->
<g id="Node000006" class="node">
<title>Node6</title>
<g id="a_Node000006"><a xlink:href="a02364.html#a3bbcb7c4c024e99d5c4ba52b61dfbbf7" target="_top" xlink:title=" ">
<polygon fill="white" stroke="#666666" points="548.5,-92.5 429,-92.5 429,-74 548.5,-74 548.5,-92.5"/>
<text text-anchor="middle" x="488.75" y="-79" font-family="Helvetica,sans-Serif" font-size="10.00">async_condition_unlock</text>
</a>
</g>
</g>
<!-- Node3&#45;&gt;Node6 -->
<g id="edge7_Node000003_Node000006" class="edge">
<title>Node3&#45;&gt;Node6</title>
<g id="a_edge7_Node000003_Node000006"><a xlink:title=" ">
<path fill="none" stroke="#63b8ff" d="M376.52,-110.53C395.07,-105.98 417.38,-100.51 437.13,-95.66"/>
<polygon fill="#63b8ff" stroke="#63b8ff" points="437.76,-99.11 446.64,-93.33 436.1,-92.31 437.76,-99.11"/>
</a>
</g>
</g>
<!-- Node8 -->
<g id="Node000008" class="node">
<title>Node8</title>
<g id="a_Node000008"><a xlink:href="a02364.html#a1bfeaeb9b81855e640d7a67cc9d92b17" target="_top" xlink:title=" ">
<polygon fill="white" stroke="#666666" points="542.88,-129.5 434.62,-129.5 434.62,-111 542.88,-111 542.88,-129.5"/>
<text text-anchor="middle" x="488.75" y="-116" font-family="Helvetica,sans-Serif" font-size="10.00">async_condition_wait</text>
</a>
</g>
</g>
<!-- Node3&#45;&gt;Node8 -->
<g id="edge9_Node000003_Node000008" class="edge">
<title>Node3&#45;&gt;Node8</title>
<g id="a_edge9_Node000003_Node000008"><a xlink:title=" ">
<path fill="none" stroke="#63b8ff" d="M393.48,-120.25C403.1,-120.25 413.15,-120.25 422.96,-120.25"/>
<polygon fill="#63b8ff" stroke="#63b8ff" points="422.8,-123.75 432.8,-120.25 422.8,-116.75 422.8,-123.75"/>
</a>
</g>
</g>
<!-- Node5 -->
<g id="Node000005" class="node">
<title>Node5</title>
<g id="a_Node000005"><a xlink:href="a02358.html#aebf9e72bb6cbd8b9e33489d46c25075d" target="_top" xlink:title=" ">
<polygon fill="white" stroke="#666666" points="712.25,-166.5 595.75,-166.5 595.75,-148 712.25,-148 712.25,-166.5"/>
<text text-anchor="middle" x="654" y="-153" font-family="Helvetica,sans-Serif" font-size="10.00">async_completion_wait</text>
</a>
</g>
</g>
<!-- Node4&#45;&gt;Node5 -->
<g id="edge6_Node000004_Node000005" class="edge">
<title>Node4&#45;&gt;Node5</title>
<g id="a_edge6_Node000004_Node000005"><a xlink:title=" ">
<path fill="none" stroke="#63b8ff" d="M543.66,-157.25C556.64,-157.25 570.69,-157.25 584.26,-157.25"/>
<polygon fill="#63b8ff" stroke="#63b8ff" points="583.99,-160.75 593.99,-157.25 583.99,-153.75 583.99,-160.75"/>
</a>
</g>
</g>
<!-- Node7 -->
<g id="Node000007" class="node">
<title>Node7</title>
<g id="a_Node000007"><a xlink:href="a02358.html#ad1d30ecbf6bff6457b680aa940281072" target="_top" xlink:title=" ">
<polygon fill="white" stroke="#666666" points="723.5,-92.5 584.5,-92.5 584.5,-74 723.5,-74 723.5,-92.5"/>
<text text-anchor="middle" x="654" y="-79" font-family="Helvetica,sans-Serif" font-size="10.00">async_completion_complete</text>
</a>
</g>
</g>
<!-- Node6&#45;&gt;Node7 -->
<g id="edge8_Node000006_Node000007" class="edge">
<title>Node6&#45;&gt;Node7</title>
<g id="a_edge8_Node000006_Node000007"><a xlink:title=" ">
<path fill="none" stroke="#63b8ff" d="M548.69,-83.25C556.51,-83.25 564.63,-83.25 572.74,-83.25"/>
<polygon fill="#63b8ff" stroke="#63b8ff" points="572.64,-86.75 582.64,-83.25 572.64,-79.75 572.64,-86.75"/>
</a>
</g>
</g>
<!-- Node8&#45;&gt;Node5 -->
<g id="edge11_Node000008_Node000005" class="edge">
<title>Node8&#45;&gt;Node5</title>
<g id="a_edge11_Node000008_Node000005"><a xlink:title=" ">
<path fill="none" stroke="#63b8ff" d="M532.64,-129.97C552.99,-134.58 577.53,-140.15 599.12,-145.04"/>
<polygon fill="#63b8ff" stroke="#63b8ff" points="598.11,-148.4 608.64,-147.19 599.66,-141.57 598.11,-148.4"/>
</a>
</g>
</g>
<!-- Node8&#45;&gt;Node7 -->
<g id="edge10_Node000008_Node000007" class="edge">
<title>Node8&#45;&gt;Node7</title>
<g id="a_edge10_Node000008_Node000007"><a xlink:title=" ">
<path fill="none" stroke="#63b8ff" d="M532.64,-110.53C552.99,-105.92 577.53,-100.35 599.12,-95.46"/>
<polygon fill="#63b8ff" stroke="#63b8ff" points="599.66,-98.93 608.64,-93.31 598.11,-92.1 599.66,-98.93"/>
</a>
</g>
</g>
<!-- Node9 -->
<g id="Node000009" class="node">
<title>Node9</title>
<g id="a_Node000009"><a xlink:href="a02358.html#a7ab7c7fe9cb93434dde72a4e464a7e69" target="_top" xlink:title=" ">
<polygon fill="white" stroke="#666666" points="711.88,-129.5 596.12,-129.5 596.12,-111 711.88,-111 711.88,-129.5"/>
<text text-anchor="middle" x="654" y="-116" font-family="Helvetica,sans-Serif" font-size="10.00">async_semaphore_dec</text>
</a>
</g>
</g>
<!-- Node8&#45;&gt;Node9 -->
<g id="edge12_Node000008_Node000009" class="edge">
<title>Node8&#45;&gt;Node9</title>
<g id="a_edge12_Node000008_Node000009"><a xlink:title=" ">
<path fill="none" stroke="#63b8ff" d="M543.2,-120.25C556.35,-120.25 570.61,-120.25 584.37,-120.25"/>
<polygon fill="#63b8ff" stroke="#63b8ff" points="584.26,-123.75 594.26,-120.25 584.26,-116.75 584.26,-123.75"/>
</a>
</g>
</g>
<!-- Node12 -->
<g id="Node000012" class="node">
<title>Node12</title>
<g id="a_Node000012"><a xlink:href="a01955.html#a5c575f52a42e0e0d2fb41bda2d1268ce" target="_top" xlink:title=" ">
<polygon fill="white" stroke="#666666" points="385.5,-55.5 286.25,-55.5 286.25,-37 385.5,-37 385.5,-55.5"/>
<text text-anchor="middle" x="335.88" y="-42" font-family="Helvetica,sans-Serif" font-size="10.00">utils_list_node_add</text>
</a>
</g>
</g>
<!-- Node11&#45;&gt;Node12 -->
<g id="edge15_Node000011_Node000012" class="edge">
<title>Node11&#45;&gt;Node12</title>
<g id="a_edge15_Node000011_Node000012"><a xlink:title=" ">
<path fill="none" stroke="#63b8ff" d="M228.52,-46.25C242.5,-46.25 258.9,-46.25 274.58,-46.25"/>
<polygon fill="#63b8ff" stroke="#63b8ff" points="274.31,-49.75 284.31,-46.25 274.31,-42.75 274.31,-49.75"/>
</a>
</g>
</g>
</g>
</svg>
