<?xml version="1.0" encoding="UTF-8" standalone="no"?>
<!DOCTYPE svg PUBLIC "-//W3C//DTD SVG 1.1//EN"
 "http://www.w3.org/Graphics/SVG/1.1/DTD/svg11.dtd">
<!-- Generated by graphviz version 8.0.5 (0)
 -->
<!-- Title: arax_task_wait_done Pages: 1 -->
<svg width="639pt" height="64pt"
 viewBox="0.00 0.00 638.50 63.50" xmlns="http://www.w3.org/2000/svg" xmlns:xlink="http://www.w3.org/1999/xlink">
<g id="graph0" class="graph" transform="scale(1 1) rotate(0) translate(4 59.5)">
<title>arax_task_wait_done</title>
<!-- Node1 -->
<g id="Node000001" class="node">
<title>Node1</title>
<g id="a_Node000001"><a xlink:title=" ">
<polygon fill="#999999" stroke="#666666" points="108.25,-36.5 0,-36.5 0,-18 108.25,-18 108.25,-36.5"/>
<text text-anchor="middle" x="54.12" y="-23" font-family="Helvetica,sans-Serif" font-size="10.00">arax_task_wait_done</text>
</a>
</g>
</g>
<!-- Node2 -->
<g id="Node000002" class="node">
<title>Node2</title>
<g id="a_Node000002"><a xlink:href="a02352.html#aebf9e72bb6cbd8b9e33489d46c25075d" target="_top" xlink:title=" ">
<polygon fill="white" stroke="#666666" points="260.75,-36.5 144.25,-36.5 144.25,-18 260.75,-18 260.75,-36.5"/>
<text text-anchor="middle" x="202.5" y="-23" font-family="Helvetica,sans-Serif" font-size="10.00">async_completion_wait</text>
</a>
</g>
</g>
<!-- Node1&#45;&gt;Node2 -->
<g id="edge1_Node000001_Node000002" class="edge">
<title>Node1&#45;&gt;Node2</title>
<g id="a_edge1_Node000001_Node000002"><a xlink:title=" ">
<path fill="none" stroke="#63b8ff" d="M108.38,-27.25C116.45,-27.25 124.88,-27.25 133.21,-27.25"/>
<polygon fill="#63b8ff" stroke="#63b8ff" points="133.08,-30.75 143.08,-27.25 133.08,-23.75 133.08,-30.75"/>
</a>
</g>
</g>
<!-- Node3 -->
<g id="Node000003" class="node">
<title>Node3</title>
<g id="a_Node000003"><a xlink:href="a02346.html#aa459f71b73bbc23f0b4bb342d093dde3" target="_top" xlink:title=" ">
<polygon fill="white" stroke="#666666" points="386.25,-55.5 296.75,-55.5 296.75,-37 386.25,-37 386.25,-55.5"/>
<text text-anchor="middle" x="341.5" y="-42" font-family="Helvetica,sans-Serif" font-size="10.00">_add_completion</text>
</a>
</g>
</g>
<!-- Node2&#45;&gt;Node3 -->
<g id="edge2_Node000002_Node000003" class="edge">
<title>Node2&#45;&gt;Node3</title>
<g id="a_edge2_Node000002_Node000003"><a xlink:title=" ">
<path fill="none" stroke="#63b8ff" d="M261.2,-35.25C269.35,-36.38 277.7,-37.54 285.79,-38.66"/>
<polygon fill="#63b8ff" stroke="#63b8ff" points="285.22,-42.26 295.6,-40.16 286.18,-35.32 285.22,-42.26"/>
</a>
</g>
</g>
<!-- Node6 -->
<g id="Node000006" class="node">
<title>Node6</title>
<g id="a_Node000006"><a xlink:href="a02346.html#a49083e8ceb4bfe7793ca1a5a799834d0" target="_top" xlink:title=" ">
<polygon fill="white" stroke="#666666" points="369,-18.5 314,-18.5 314,0 369,0 369,-18.5"/>
<text text-anchor="middle" x="341.5" y="-5" font-family="Helvetica,sans-Serif" font-size="10.00">getVmID</text>
</a>
</g>
</g>
<!-- Node2&#45;&gt;Node6 -->
<g id="edge5_Node000002_Node000006" class="edge">
<title>Node2&#45;&gt;Node6</title>
<g id="a_edge5_Node000002_Node000006"><a xlink:title=" ">
<path fill="none" stroke="#63b8ff" d="M261.2,-19.67C275.34,-17.81 290.11,-15.87 303.02,-14.17"/>
<polygon fill="#63b8ff" stroke="#63b8ff" points="303.36,-17.53 312.82,-12.76 302.45,-10.59 303.36,-17.53"/>
</a>
</g>
</g>
<!-- Node4 -->
<g id="Node000004" class="node">
<title>Node4</title>
<g id="a_Node000004"><a xlink:href="a01946.html#ae06a9e78e6a4f6c9c8afcf0f4862ce29" target="_top" xlink:title=" ">
<polygon fill="white" stroke="#666666" points="495.25,-55.5 422.25,-55.5 422.25,-37 495.25,-37 495.25,-55.5"/>
<text text-anchor="middle" x="458.75" y="-42" font-family="Helvetica,sans-Serif" font-size="10.00">utils_list_add</text>
</a>
</g>
</g>
<!-- Node3&#45;&gt;Node4 -->
<g id="edge3_Node000003_Node000004" class="edge">
<title>Node3&#45;&gt;Node4</title>
<g id="a_edge3_Node000003_Node000004"><a xlink:title=" ">
<path fill="none" stroke="#63b8ff" d="M386.73,-46.25C394.76,-46.25 403.16,-46.25 411.25,-46.25"/>
<polygon fill="#63b8ff" stroke="#63b8ff" points="411.03,-49.75 421.03,-46.25 411.03,-42.75 411.03,-49.75"/>
</a>
</g>
</g>
<!-- Node5 -->
<g id="Node000005" class="node">
<title>Node5</title>
<g id="a_Node000005"><a xlink:href="a01946.html#a5c575f52a42e0e0d2fb41bda2d1268ce" target="_top" xlink:title=" ">
<polygon fill="white" stroke="#666666" points="630.5,-55.5 531.25,-55.5 531.25,-37 630.5,-37 630.5,-55.5"/>
<text text-anchor="middle" x="580.88" y="-42" font-family="Helvetica,sans-Serif" font-size="10.00">utils_list_node_add</text>
</a>
</g>
</g>
<!-- Node4&#45;&gt;Node5 -->
<g id="edge4_Node000004_Node000005" class="edge">
<title>Node4&#45;&gt;Node5</title>
<g id="a_edge4_Node000004_Node000005"><a xlink:title=" ">
<path fill="none" stroke="#63b8ff" d="M495.47,-46.25C503.34,-46.25 511.89,-46.25 520.43,-46.25"/>
<polygon fill="#63b8ff" stroke="#63b8ff" points="520.18,-49.75 530.18,-46.25 520.18,-42.75 520.18,-49.75"/>
</a>
</g>
</g>
</g>
</svg>
