<?xml version="1.0" encoding="UTF-8" standalone="no"?>
<!DOCTYPE svg PUBLIC "-//W3C//DTD SVG 1.1//EN"
 "http://www.w3.org/Graphics/SVG/1.1/DTD/svg11.dtd">
<!-- Generated by graphviz version 12.2.1 (0)
 -->
<!-- Title: arax_object.h Pages: 1 -->
<svg width="848pt" height="299pt"
 viewBox="0.00 0.00 847.91 299.00" xmlns="http://www.w3.org/2000/svg" xmlns:xlink="http://www.w3.org/1999/xlink">
<g id="graph0" class="graph" transform="scale(1 1) rotate(0) translate(4 295)">
<title>arax_object.h</title>
<!-- Node1 -->
<g id="Node000001" class="node">
<title>Node1</title>
<g id="a_Node000001"><a xlink:title=" ">
<polygon fill="#999999" stroke="#666666" points="409.09,-291 334.59,-291 334.59,-272.5 409.09,-272.5 409.09,-291"/>
<text text-anchor="middle" x="371.84" y="-277.5" font-family="Helvetica,sans-Serif" font-size="10.00">arax_object.h</text>
</a>
</g>
</g>
<!-- Node2 -->
<g id="Node000002" class="node">
<title>Node2</title>
<g id="a_Node000002"><a xlink:href="a01967.html" target="_top" xlink:title=" ">
<polygon fill="white" stroke="#666666" points="162.84,-236.5 86.84,-236.5 86.84,-218 162.84,-218 162.84,-236.5"/>
<text text-anchor="middle" x="124.84" y="-223" font-family="Helvetica,sans-Serif" font-size="10.00">arax_assert.c</text>
</a>
</g>
</g>
<!-- Node1&#45;&gt;Node2 -->
<g id="edge1_Node000001_Node000002" class="edge">
<title>Node1&#45;&gt;Node2</title>
<g id="a_edge1_Node000001_Node000002"><a xlink:title=" ">
<path fill="none" stroke="#63b8ff" d="M323.22,-270.42C276.3,-260.44 206.2,-245.54 163.12,-236.39"/>
<polygon fill="#63b8ff" stroke="#63b8ff" points="322.34,-273.81 332.85,-272.46 323.8,-266.96 322.34,-273.81"/>
</a>
</g>
</g>
<!-- Node3 -->
<g id="Node000003" class="node">
<title>Node3</title>
<g id="a_Node000003"><a xlink:href="a01409.html" target="_top" xlink:title=" ">
<polygon fill="white" stroke="#666666" points="224.72,-127.5 156.97,-127.5 156.97,-109 224.72,-109 224.72,-127.5"/>
<text text-anchor="middle" x="190.84" y="-114" font-family="Helvetica,sans-Serif" font-size="10.00">arax_data.h</text>
</a>
</g>
</g>
<!-- Node1&#45;&gt;Node3 -->
<g id="edge2_Node000001_Node000003" class="edge">
<title>Node1&#45;&gt;Node3</title>
<g id="a_edge2_Node000001_Node000003"><a xlink:title=" ">
<path fill="none" stroke="#63b8ff" d="M323.04,-280.75C286.51,-277.99 238.17,-267.99 209.84,-236.5 181.72,-205.22 186.35,-149.34 189.4,-127.93"/>
<polygon fill="#63b8ff" stroke="#63b8ff" points="322.75,-284.24 332.93,-281.32 323.15,-277.25 322.75,-284.24"/>
</a>
</g>
</g>
<!-- Node6 -->
<g id="Node000006" class="node">
<title>Node6</title>
<g id="a_Node000006"><a xlink:href="a01925.html" target="_top" xlink:title=" ">
<polygon fill="white" stroke="#666666" points="358.09,-73 283.59,-73 283.59,-54.5 358.09,-54.5 358.09,-73"/>
<text text-anchor="middle" x="320.84" y="-59.5" font-family="Helvetica,sans-Serif" font-size="10.00">arax_object.c</text>
</a>
</g>
</g>
<!-- Node1&#45;&gt;Node6 -->
<g id="edge9_Node000001_Node000006" class="edge">
<title>Node1&#45;&gt;Node6</title>
<g id="a_edge9_Node000001_Node000006"><a xlink:title=" ">
<path fill="none" stroke="#63b8ff" d="M366.43,-261.48C364.31,-253.73 361.89,-244.71 359.84,-236.5 344.33,-174.19 328.02,-98.54 322.67,-73.36"/>
<polygon fill="#63b8ff" stroke="#63b8ff" points="362.98,-262.14 369.03,-270.84 369.73,-260.26 362.98,-262.14"/>
</a>
</g>
</g>
<!-- Node9 -->
<g id="Node000009" class="node">
<title>Node9</title>
<g id="a_Node000009"><a xlink:href="a01418.html" target="_top" xlink:title=" ">
<polygon fill="white" stroke="#666666" points="436.72,-236.5 368.97,-236.5 368.97,-218 436.72,-218 436.72,-236.5"/>
<text text-anchor="middle" x="402.84" y="-223" font-family="Helvetica,sans-Serif" font-size="10.00">arax_proc.h</text>
</a>
</g>
</g>
<!-- Node1&#45;&gt;Node9 -->
<g id="edge10_Node000001_Node000009" class="edge">
<title>Node1&#45;&gt;Node9</title>
<g id="a_edge10_Node000001_Node000009"><a xlink:title=" ">
<path fill="none" stroke="#63b8ff" d="M382.69,-262.38C387.84,-253.66 393.74,-243.67 397.82,-236.76"/>
<polygon fill="#63b8ff" stroke="#63b8ff" points="379.8,-260.39 377.73,-270.78 385.83,-263.95 379.8,-260.39"/>
</a>
</g>
</g>
<!-- Node18 -->
<g id="Node000018" class="node">
<title>Node18</title>
<g id="a_Node000018"><a xlink:href="a01430.html" target="_top" xlink:title=" ">
<polygon fill="white" stroke="#666666" points="295.22,-236.5 218.47,-236.5 218.47,-218 295.22,-218 295.22,-236.5"/>
<text text-anchor="middle" x="256.84" y="-223" font-family="Helvetica,sans-Serif" font-size="10.00">arax_vaccel.h</text>
</a>
</g>
</g>
<!-- Node1&#45;&gt;Node18 -->
<g id="edge26_Node000001_Node000018" class="edge">
<title>Node1&#45;&gt;Node18</title>
<g id="a_edge26_Node000001_Node000018"><a xlink:title=" ">
<path fill="none" stroke="#63b8ff" d="M342.59,-267.39C321.63,-257.83 294.02,-245.22 275.86,-236.93"/>
<polygon fill="#63b8ff" stroke="#63b8ff" points="340.93,-270.48 351.48,-271.45 343.83,-264.12 340.93,-270.48"/>
</a>
</g>
</g>
<!-- Node20 -->
<g id="Node000020" class="node">
<title>Node20</title>
<g id="a_Node000020"><a xlink:href="a02367.html" target="_top" xlink:title=" ">
<polygon fill="white" stroke="#666666" points="547.72,-236.5 497.97,-236.5 497.97,-218 547.72,-218 547.72,-236.5"/>
<text text-anchor="middle" x="522.84" y="-223" font-family="Helvetica,sans-Serif" font-size="10.00">async.h</text>
</a>
</g>
</g>
<!-- Node1&#45;&gt;Node20 -->
<g id="edge32_Node000001_Node000020" class="edge">
<title>Node1&#45;&gt;Node20</title>
<g id="a_edge32_Node000001_Node000020"><a xlink:title=" ">
<path fill="none" stroke="#63b8ff" d="M407.64,-268.31C435.43,-258.64 473.27,-245.49 497.87,-236.93"/>
<polygon fill="#63b8ff" stroke="#63b8ff" points="406.5,-264.99 398.21,-271.58 408.8,-271.61 406.5,-264.99"/>
</a>
</g>
</g>
<!-- Node22 -->
<g id="Node000022" class="node">
<title>Node22</title>
<g id="a_Node000022"><a xlink:href="a02370.html" target="_top" xlink:title=" ">
<polygon fill="white" stroke="#666666" points="636.72,-236.5 586.97,-236.5 586.97,-218 636.72,-218 636.72,-236.5"/>
<text text-anchor="middle" x="611.84" y="-223" font-family="Helvetica,sans-Serif" font-size="10.00">async.h</text>
</a>
</g>
</g>
<!-- Node1&#45;&gt;Node22 -->
<g id="edge34_Node000001_Node000022" class="edge">
<title>Node1&#45;&gt;Node22</title>
<g id="a_edge34_Node000001_Node000022"><a xlink:title=" ">
<path fill="none" stroke="#63b8ff" d="M420.28,-270.15C470.61,-259.14 547.41,-242.35 586.73,-233.74"/>
<polygon fill="#63b8ff" stroke="#63b8ff" points="419.84,-266.67 410.82,-272.22 421.34,-273.51 419.84,-266.67"/>
</a>
</g>
</g>
<!-- Node24 -->
<g id="Node000024" class="node">
<title>Node24</title>
<g id="a_Node000024"><a xlink:href="a02373.html" target="_top" xlink:title=" ">
<polygon fill="white" stroke="#666666" points="715.72,-236.5 665.97,-236.5 665.97,-218 715.72,-218 715.72,-236.5"/>
<text text-anchor="middle" x="690.84" y="-223" font-family="Helvetica,sans-Serif" font-size="10.00">async.h</text>
</a>
</g>
</g>
<!-- Node1&#45;&gt;Node24 -->
<g id="edge36_Node000001_Node000024" class="edge">
<title>Node1&#45;&gt;Node24</title>
<g id="a_edge36_Node000001_Node000024"><a xlink:title=" ">
<path fill="none" stroke="#63b8ff" d="M420.69,-273.18C475.53,-264.61 567.16,-250.07 645.84,-236.5 652.26,-235.39 659.19,-234.15 665.63,-232.97"/>
<polygon fill="#63b8ff" stroke="#63b8ff" points="420.4,-269.69 411.05,-274.68 421.47,-276.6 420.4,-269.69"/>
</a>
</g>
</g>
<!-- Node4 -->
<g id="Node000004" class="node">
<title>Node4</title>
<g id="a_Node000004"><a xlink:href="a01922.html" target="_top" xlink:title=" ">
<polygon fill="white" stroke="#666666" points="308.72,-18.5 240.97,-18.5 240.97,0 308.72,0 308.72,-18.5"/>
<text text-anchor="middle" x="274.84" y="-5" font-family="Helvetica,sans-Serif" font-size="10.00">arax_data.c</text>
</a>
</g>
</g>
<!-- Node3&#45;&gt;Node4 -->
<g id="edge3_Node000003_Node000004" class="edge">
<title>Node3&#45;&gt;Node4</title>
<g id="a_edge3_Node000003_Node000004"><a xlink:title=" ">
<path fill="none" stroke="#63b8ff" d="M145.25,-116.24C79.31,-113.18 -30.7,-101.17 8.84,-54.5 38.16,-19.9 175.47,-12.33 240.51,-10.69"/>
<polygon fill="#63b8ff" stroke="#63b8ff" points="144.97,-119.73 155.1,-116.63 145.25,-112.73 144.97,-119.73"/>
</a>
</g>
</g>
<!-- Node5 -->
<g id="Node000005" class="node">
<title>Node5</title>
<g id="a_Node000005"><a xlink:href="a01412.html" target="_top" xlink:title=" ">
<polygon fill="white" stroke="#666666" points="119.59,-73 18.09,-73 18.09,-54.5 119.59,-54.5 119.59,-73"/>
<text text-anchor="middle" x="68.84" y="-59.5" font-family="Helvetica,sans-Serif" font-size="10.00">arax_data_private.h</text>
</a>
</g>
</g>
<!-- Node3&#45;&gt;Node5 -->
<g id="edge4_Node000003_Node000005" class="edge">
<title>Node3&#45;&gt;Node5</title>
<g id="a_edge4_Node000003_Node000005"><a xlink:title=" ">
<path fill="none" stroke="#63b8ff" d="M160.42,-104.16C138.11,-94.56 108.46,-81.8 89.02,-73.43"/>
<polygon fill="#63b8ff" stroke="#63b8ff" points="158.74,-107.24 169.31,-107.98 161.51,-100.81 158.74,-107.24"/>
</a>
</g>
</g>
<!-- Node3&#45;&gt;Node6 -->
<g id="edge6_Node000003_Node000006" class="edge">
<title>Node3&#45;&gt;Node6</title>
<g id="a_edge6_Node000003_Node000006"><a xlink:title=" ">
<path fill="none" stroke="#63b8ff" d="M222.94,-104.29C246.74,-94.67 278.54,-81.83 299.35,-73.43"/>
<polygon fill="#63b8ff" stroke="#63b8ff" points="221.68,-101.02 213.71,-108.01 224.3,-107.51 221.68,-101.02"/>
</a>
</g>
</g>
<!-- Node7 -->
<g id="Node000007" class="node">
<title>Node7</title>
<g id="a_Node000007"><a xlink:href="a01937.html" target="_top" xlink:title=" ">
<polygon fill="white" stroke="#666666" points="205.72,-73 137.97,-73 137.97,-54.5 205.72,-54.5 205.72,-73"/>
<text text-anchor="middle" x="171.84" y="-59.5" font-family="Helvetica,sans-Serif" font-size="10.00">arax_task.c</text>
</a>
</g>
</g>
<!-- Node3&#45;&gt;Node7 -->
<g id="edge7_Node000003_Node000007" class="edge">
<title>Node3&#45;&gt;Node7</title>
<g id="a_edge7_Node000003_Node000007"><a xlink:title=" ">
<path fill="none" stroke="#63b8ff" d="M183.88,-98.01C180.8,-89.5 177.34,-79.94 174.92,-73.26"/>
<polygon fill="#63b8ff" stroke="#63b8ff" points="180.5,-98.95 187.19,-107.16 187.08,-96.56 180.5,-98.95"/>
</a>
</g>
</g>
<!-- Node8 -->
<g id="Node000008" class="node">
<title>Node8</title>
<g id="a_Node000008"><a xlink:href="a01910.html" target="_top" xlink:title=" ">
<polygon fill="white" stroke="#666666" points="265.97,-73 223.72,-73 223.72,-54.5 265.97,-54.5 265.97,-73"/>
<text text-anchor="middle" x="244.84" y="-59.5" font-family="Helvetica,sans-Serif" font-size="10.00">impl.c</text>
</a>
</g>
</g>
<!-- Node3&#45;&gt;Node8 -->
<g id="edge8_Node000003_Node000008" class="edge">
<title>Node3&#45;&gt;Node8</title>
<g id="a_edge8_Node000003_Node000008"><a xlink:title=" ">
<path fill="none" stroke="#63b8ff" d="M207.99,-100.58C217.34,-91.49 228.52,-80.62 236.09,-73.26"/>
<polygon fill="#63b8ff" stroke="#63b8ff" points="205.58,-98.05 200.85,-107.53 210.46,-103.06 205.58,-98.05"/>
</a>
</g>
</g>
<!-- Node5&#45;&gt;Node4 -->
<g id="edge5_Node000005_Node000004" class="edge">
<title>Node5&#45;&gt;Node4</title>
<g id="a_edge5_Node000005_Node000004"><a xlink:title=" ">
<path fill="none" stroke="#63b8ff" d="M113.68,-51.32C151.9,-41.58 206.02,-27.79 240.78,-18.93"/>
<polygon fill="#63b8ff" stroke="#63b8ff" points="113.15,-47.85 104.33,-53.71 114.88,-54.63 113.15,-47.85"/>
</a>
</g>
</g>
<!-- Node9&#45;&gt;Node6 -->
<g id="edge11_Node000009_Node000006" class="edge">
<title>Node9&#45;&gt;Node6</title>
<g id="a_edge11_Node000009_Node000006"><a xlink:title=" ">
<path fill="none" stroke="#63b8ff" d="M391.97,-207.6C387.49,-199.76 382.3,-190.5 377.84,-182 356.81,-141.92 333.85,-92.9 324.81,-73.37"/>
<polygon fill="#63b8ff" stroke="#63b8ff" points="388.91,-209.3 396.95,-216.21 394.97,-205.8 388.91,-209.3"/>
</a>
</g>
</g>
<!-- Node10 -->
<g id="Node000010" class="node">
<title>Node10</title>
<g id="a_Node000010"><a xlink:href="a01931.html" target="_top" xlink:title=" ">
<polygon fill="white" stroke="#666666" points="540.72,-182 472.97,-182 472.97,-163.5 540.72,-163.5 540.72,-182"/>
<text text-anchor="middle" x="506.84" y="-168.5" font-family="Helvetica,sans-Serif" font-size="10.00">arax_proc.c</text>
</a>
</g>
</g>
<!-- Node9&#45;&gt;Node10 -->
<g id="edge12_Node000009_Node000010" class="edge">
<title>Node9&#45;&gt;Node10</title>
<g id="a_edge12_Node000009_Node000010"><a xlink:title=" ">
<path fill="none" stroke="#63b8ff" d="M430.09,-212.5C448.94,-202.98 473.45,-190.61 489.65,-182.43"/>
<polygon fill="#63b8ff" stroke="#63b8ff" points="428.72,-209.27 421.37,-216.9 431.87,-215.52 428.72,-209.27"/>
</a>
</g>
</g>
<!-- Node11 -->
<g id="Node000011" class="node">
<title>Node11</title>
<g id="a_Node000011"><a xlink:href="a01424.html" target="_top" xlink:title=" ">
<polygon fill="white" stroke="#666666" points="454.72,-182 386.97,-182 386.97,-163.5 454.72,-163.5 454.72,-182"/>
<text text-anchor="middle" x="420.84" y="-168.5" font-family="Helvetica,sans-Serif" font-size="10.00">arax_task.h</text>
</a>
</g>
</g>
<!-- Node9&#45;&gt;Node11 -->
<g id="edge13_Node000009_Node000011" class="edge">
<title>Node9&#45;&gt;Node11</title>
<g id="a_edge13_Node000009_Node000011"><a xlink:title=" ">
<path fill="none" stroke="#63b8ff" d="M409.54,-206.72C412.43,-198.29 415.66,-188.86 417.93,-182.26"/>
<polygon fill="#63b8ff" stroke="#63b8ff" points="406.24,-205.55 406.31,-216.15 412.86,-207.82 406.24,-205.55"/>
</a>
</g>
</g>
<!-- Node11&#45;&gt;Node4 -->
<g id="edge14_Node000011_Node000004" class="edge">
<title>Node11&#45;&gt;Node4</title>
<g id="a_edge14_Node000011_Node000004"><a xlink:title=" ">
<path fill="none" stroke="#63b8ff" d="M466.26,-162.51C571.54,-140.89 824.23,-87.7 835.84,-73 840.94,-66.55 841.43,-60.54 835.84,-54.5 800.04,-15.76 425.27,-10.89 309.03,-10.32"/>
<polygon fill="#63b8ff" stroke="#63b8ff" points="465.64,-159.07 456.54,-164.5 467.04,-165.93 465.64,-159.07"/>
</a>
</g>
</g>
<!-- Node11&#45;&gt;Node6 -->
<g id="edge15_Node000011_Node000006" class="edge">
<title>Node11&#45;&gt;Node6</title>
<g id="a_edge15_Node000011_Node000006"><a xlink:title=" ">
<path fill="none" stroke="#63b8ff" d="M408.75,-153.91C399.56,-140.9 386.26,-123.13 372.84,-109 359.95,-95.42 343.16,-81.74 332.2,-73.27"/>
<polygon fill="#63b8ff" stroke="#63b8ff" points="405.73,-155.7 414.3,-161.93 411.49,-151.72 405.73,-155.7"/>
</a>
</g>
</g>
<!-- Node12 -->
<g id="Node000012" class="node">
<title>Node12</title>
<g id="a_Node000012"><a xlink:href="a01358.html" target="_top" xlink:title=" ">
<polygon fill="white" stroke="#666666" points="492.34,-127.5 425.34,-127.5 425.34,-109 492.34,-109 492.34,-127.5"/>
<text text-anchor="middle" x="458.84" y="-114" font-family="Helvetica,sans-Serif" font-size="10.00">arax_pipe.h</text>
</a>
</g>
</g>
<!-- Node11&#45;&gt;Node12 -->
<g id="edge16_Node000011_Node000012" class="edge">
<title>Node11&#45;&gt;Node12</title>
<g id="a_edge16_Node000011_Node000012"><a xlink:title=" ">
<path fill="none" stroke="#63b8ff" d="M433.73,-153.95C440.13,-145.1 447.58,-134.82 452.69,-127.76"/>
<polygon fill="#63b8ff" stroke="#63b8ff" points="431.03,-151.7 428.01,-161.85 436.71,-155.81 431.03,-151.7"/>
</a>
</g>
</g>
<!-- Node12&#45;&gt;Node4 -->
<g id="edge18_Node000012_Node000004" class="edge">
<title>Node12&#45;&gt;Node4</title>
<g id="a_edge18_Node000012_Node000004"><a xlink:title=" ">
<path fill="none" stroke="#63b8ff" d="M465.79,-98.32C469.47,-84.7 471.47,-66.67 461.84,-54.5 443.17,-30.89 357.86,-18.57 309.17,-13.36"/>
<polygon fill="#63b8ff" stroke="#63b8ff" points="462.59,-96.85 462.84,-107.45 469.25,-99.01 462.59,-96.85"/>
</a>
</g>
</g>
<!-- Node12&#45;&gt;Node6 -->
<g id="edge19_Node000012_Node000006" class="edge">
<title>Node12&#45;&gt;Node6</title>
<g id="a_edge19_Node000012_Node000006"><a xlink:title=" ">
<path fill="none" stroke="#63b8ff" d="M425.45,-104.55C400.12,-94.91 365.95,-81.91 343.67,-73.43"/>
<polygon fill="#63b8ff" stroke="#63b8ff" points="424.05,-107.76 434.64,-108.04 426.54,-101.22 424.05,-107.76"/>
</a>
</g>
</g>
<!-- Node12&#45;&gt;Node7 -->
<g id="edge23_Node000012_Node000007" class="edge">
<title>Node12&#45;&gt;Node7</title>
<g id="a_edge23_Node000012_Node000007"><a xlink:title=" ">
<path fill="none" stroke="#63b8ff" d="M413.73,-109.21C364.73,-100.44 284.19,-85.94 214.84,-73 212,-72.47 209.06,-71.92 206.11,-71.36"/>
<polygon fill="#63b8ff" stroke="#63b8ff" points="412.93,-112.62 423.39,-110.94 414.16,-105.73 412.93,-112.62"/>
</a>
</g>
</g>
<!-- Node12&#45;&gt;Node8 -->
<g id="edge25_Node000012_Node000008" class="edge">
<title>Node12&#45;&gt;Node8</title>
<g id="a_edge25_Node000012_Node000008"><a xlink:title=" ">
<path fill="none" stroke="#63b8ff" d="M413.84,-106.86C376.53,-98.14 322.13,-85.18 274.84,-73 272.12,-72.3 269.27,-71.54 266.45,-70.78"/>
<polygon fill="#63b8ff" stroke="#63b8ff" points="412.84,-110.22 423.38,-109.08 414.43,-103.4 412.84,-110.22"/>
</a>
</g>
</g>
<!-- Node13 -->
<g id="Node000013" class="node">
<title>Node13</title>
<g id="a_Node000013"><a xlink:href="a01916.html" target="_top" xlink:title=" ">
<polygon fill="white" stroke="#666666" points="580.97,-73 508.72,-73 508.72,-54.5 580.97,-54.5 580.97,-73"/>
<text text-anchor="middle" x="544.84" y="-59.5" font-family="Helvetica,sans-Serif" font-size="10.00">arax_accel.c</text>
</a>
</g>
</g>
<!-- Node12&#45;&gt;Node13 -->
<g id="edge17_Node000012_Node000013" class="edge">
<title>Node12&#45;&gt;Node13</title>
<g id="a_edge17_Node000012_Node000013"><a xlink:title=" ">
<path fill="none" stroke="#63b8ff" d="M482.47,-102.83C497.9,-93.41 517.54,-81.42 530.62,-73.43"/>
<polygon fill="#63b8ff" stroke="#63b8ff" points="481.05,-99.59 474.34,-107.79 484.7,-105.57 481.05,-99.59"/>
</a>
</g>
</g>
<!-- Node14 -->
<g id="Node000014" class="node">
<title>Node14</title>
<g id="a_Node000014"><a xlink:href="a01928.html" target="_top" xlink:title=" ">
<polygon fill="white" stroke="#666666" points="666.34,-73 599.34,-73 599.34,-54.5 666.34,-54.5 666.34,-73"/>
<text text-anchor="middle" x="632.84" y="-59.5" font-family="Helvetica,sans-Serif" font-size="10.00">arax_pipe.c</text>
</a>
</g>
</g>
<!-- Node12&#45;&gt;Node14 -->
<g id="edge20_Node000012_Node000014" class="edge">
<title>Node12&#45;&gt;Node14</title>
<g id="a_edge20_Node000012_Node000014"><a xlink:title=" ">
<path fill="none" stroke="#63b8ff" d="M498.39,-105.32C530.56,-95.61 575.21,-82.14 604.07,-73.43"/>
<polygon fill="#63b8ff" stroke="#63b8ff" points="497.59,-101.9 489.03,-108.14 499.61,-108.61 497.59,-101.9"/>
</a>
</g>
</g>
<!-- Node15 -->
<g id="Node000015" class="node">
<title>Node15</title>
<g id="a_Node000015"><a xlink:href="a01946.html" target="_top" xlink:title=" ">
<polygon fill="white" stroke="#666666" points="748.84,-73 684.84,-73 684.84,-54.5 748.84,-54.5 748.84,-73"/>
<text text-anchor="middle" x="716.84" y="-59.5" font-family="Helvetica,sans-Serif" font-size="10.00">arax_plot.c</text>
</a>
</g>
</g>
<!-- Node12&#45;&gt;Node15 -->
<g id="edge21_Node000012_Node000015" class="edge">
<title>Node12&#45;&gt;Node15</title>
<g id="a_edge21_Node000012_Node000015"><a xlink:title=" ">
<path fill="none" stroke="#63b8ff" d="M503.98,-108.07C555.59,-97.56 638.81,-80.63 684.4,-71.35"/>
<polygon fill="#63b8ff" stroke="#63b8ff" points="503.42,-104.61 494.32,-110.03 504.82,-111.47 503.42,-104.61"/>
</a>
</g>
</g>
<!-- Node16 -->
<g id="Node000016" class="node">
<title>Node16</title>
<g id="a_Node000016"><a xlink:href="a01934.html" target="_top" xlink:title=" ">
<polygon fill="white" stroke="#666666" points="826.97,-73 766.72,-73 766.72,-54.5 826.97,-54.5 826.97,-73"/>
<text text-anchor="middle" x="796.84" y="-59.5" font-family="Helvetica,sans-Serif" font-size="10.00">arax_ptr.c</text>
</a>
</g>
</g>
<!-- Node12&#45;&gt;Node16 -->
<g id="edge22_Node000012_Node000016" class="edge">
<title>Node12&#45;&gt;Node16</title>
<g id="a_edge22_Node000012_Node000016"><a xlink:title=" ">
<path fill="none" stroke="#63b8ff" d="M503.66,-111.49C562.26,-103.77 668.02,-89.13 757.84,-73 760.57,-72.51 763.39,-71.97 766.22,-71.41"/>
<polygon fill="#63b8ff" stroke="#63b8ff" points="503.55,-107.98 494.09,-112.75 504.46,-114.92 503.55,-107.98"/>
</a>
</g>
</g>
<!-- Node17 -->
<g id="Node000017" class="node">
<title>Node17</title>
<g id="a_Node000017"><a xlink:href="a01943.html" target="_top" xlink:title=" ">
<polygon fill="white" stroke="#666666" points="453.22,-73 376.47,-73 376.47,-54.5 453.22,-54.5 453.22,-73"/>
<text text-anchor="middle" x="414.84" y="-59.5" font-family="Helvetica,sans-Serif" font-size="10.00">arax_vaccel.c</text>
</a>
</g>
</g>
<!-- Node12&#45;&gt;Node17 -->
<g id="edge24_Node000012_Node000017" class="edge">
<title>Node12&#45;&gt;Node17</title>
<g id="a_edge24_Node000012_Node000017"><a xlink:title=" ">
<path fill="none" stroke="#63b8ff" d="M444.4,-100.02C436.88,-91.04 428.02,-80.47 421.97,-73.26"/>
<polygon fill="#63b8ff" stroke="#63b8ff" points="441.5,-102 450.61,-107.42 446.87,-97.51 441.5,-102"/>
</a>
</g>
</g>
<!-- Node19 -->
<g id="Node000019" class="node">
<title>Node19</title>
<g id="a_Node000019"><a xlink:href="a01403.html" target="_top" xlink:title=" ">
<polygon fill="white" stroke="#666666" points="292.97,-182 220.72,-182 220.72,-163.5 292.97,-163.5 292.97,-182"/>
<text text-anchor="middle" x="256.84" y="-168.5" font-family="Helvetica,sans-Serif" font-size="10.00">arax_accel.h</text>
</a>
</g>
</g>
<!-- Node18&#45;&gt;Node19 -->
<g id="edge27_Node000018_Node000019" class="edge">
<title>Node18&#45;&gt;Node19</title>
<g id="a_edge27_Node000018_Node000019"><a xlink:title=" ">
<path fill="none" stroke="#63b8ff" d="M250.28,-206.43C249.79,-198.07 250.27,-188.79 251.71,-182.26"/>
<polygon fill="#63b8ff" stroke="#63b8ff" points="246.77,-206.59 251.49,-216.08 253.72,-205.72 246.77,-206.59"/>
</a>
</g>
</g>
<!-- Node19&#45;&gt;Node3 -->
<g id="edge28_Node000019_Node000003" class="edge">
<title>Node19&#45;&gt;Node3</title>
<g id="a_edge28_Node000019_Node000003"><a xlink:title=" ">
<path fill="none" stroke="#63b8ff" d="M236.94,-155.92C225.31,-146.67 211.09,-135.35 201.54,-127.76"/>
<polygon fill="#63b8ff" stroke="#63b8ff" points="234.76,-158.65 244.76,-162.14 239.11,-153.17 234.76,-158.65"/>
</a>
</g>
</g>
<!-- Node19&#45;&gt;Node6 -->
<g id="edge29_Node000019_Node000006" class="edge">
<title>Node19&#45;&gt;Node6</title>
<g id="a_edge29_Node000019_Node000006"><a xlink:title=" ">
<path fill="none" stroke="#63b8ff" d="M267.66,-153.66C281.6,-130.37 305.26,-90.81 315.67,-73.4"/>
<polygon fill="#63b8ff" stroke="#63b8ff" points="264.77,-151.68 262.64,-162.05 270.78,-155.27 264.77,-151.68"/>
</a>
</g>
</g>
<!-- Node19&#45;&gt;Node12 -->
<g id="edge30_Node000019_Node000012" class="edge">
<title>Node19&#45;&gt;Node12</title>
<g id="a_edge30_Node000019_Node000012"><a xlink:title=" ">
<path fill="none" stroke="#63b8ff" d="M301.29,-160.2C338.74,-150.46 391.5,-136.75 425.44,-127.93"/>
<polygon fill="#63b8ff" stroke="#63b8ff" points="300.46,-156.8 291.67,-162.7 302.22,-163.57 300.46,-156.8"/>
</a>
</g>
</g>
<!-- Node19&#45;&gt;Node18 -->
<g id="edge31_Node000019_Node000018" class="edge">
<title>Node19&#45;&gt;Node18</title>
<g id="a_edge31_Node000019_Node000018"><a xlink:title=" ">
<path fill="none" stroke="#63b8ff" d="M263.42,-193.66C263.89,-201.92 263.42,-211.08 262.01,-217.58"/>
<polygon fill="#63b8ff" stroke="#63b8ff" points="266.89,-193.24 262.17,-183.76 259.95,-194.12 266.89,-193.24"/>
</a>
</g>
</g>
<!-- Node21 -->
<g id="Node000021" class="node">
<title>Node21</title>
<g id="a_Node000021"><a xlink:href="a02358.html" target="_top" xlink:title=" ">
<polygon fill="white" stroke="#666666" points="608.72,-182 558.97,-182 558.97,-163.5 608.72,-163.5 608.72,-182"/>
<text text-anchor="middle" x="583.84" y="-168.5" font-family="Helvetica,sans-Serif" font-size="10.00">async.c</text>
</a>
</g>
</g>
<!-- Node20&#45;&gt;Node21 -->
<g id="edge33_Node000020_Node000021" class="edge">
<title>Node20&#45;&gt;Node21</title>
<g id="a_edge33_Node000020_Node000021"><a xlink:title=" ">
<path fill="none" stroke="#63b8ff" d="M541.56,-210.14C552.25,-200.94 565.23,-189.77 573.96,-182.26"/>
<polygon fill="#63b8ff" stroke="#63b8ff" points="539.36,-207.42 534.06,-216.59 543.93,-212.72 539.36,-207.42"/>
</a>
</g>
</g>
<!-- Node23 -->
<g id="Node000023" class="node">
<title>Node23</title>
<g id="a_Node000023"><a xlink:href="a02361.html" target="_top" xlink:title=" ">
<polygon fill="white" stroke="#666666" points="676.72,-182 626.97,-182 626.97,-163.5 676.72,-163.5 676.72,-182"/>
<text text-anchor="middle" x="651.84" y="-168.5" font-family="Helvetica,sans-Serif" font-size="10.00">async.c</text>
</a>
</g>
</g>
<!-- Node22&#45;&gt;Node23 -->
<g id="edge35_Node000022_Node000023" class="edge">
<title>Node22&#45;&gt;Node23</title>
<g id="a_edge35_Node000022_Node000023"><a xlink:title=" ">
<path fill="none" stroke="#63b8ff" d="M625.41,-208.45C632.15,-199.6 639.98,-189.32 645.36,-182.26"/>
<polygon fill="#63b8ff" stroke="#63b8ff" points="622.64,-206.3 619.37,-216.38 628.21,-210.54 622.64,-206.3"/>
</a>
</g>
</g>
<!-- Node25 -->
<g id="Node000025" class="node">
<title>Node25</title>
<g id="a_Node000025"><a xlink:href="a02364.html" target="_top" xlink:title=" ">
<polygon fill="white" stroke="#666666" points="744.72,-182 694.97,-182 694.97,-163.5 744.72,-163.5 744.72,-182"/>
<text text-anchor="middle" x="719.84" y="-168.5" font-family="Helvetica,sans-Serif" font-size="10.00">async.c</text>
</a>
</g>
</g>
<!-- Node24&#45;&gt;Node25 -->
<g id="edge37_Node000024_Node000025" class="edge">
<title>Node24&#45;&gt;Node25</title>
<g id="a_edge37_Node000024_Node000025"><a xlink:title=" ">
<path fill="none" stroke="#63b8ff" d="M701.15,-207.59C705.93,-198.94 711.37,-189.09 715.14,-182.26"/>
<polygon fill="#63b8ff" stroke="#63b8ff" points="698.14,-205.81 696.37,-216.26 704.26,-209.19 698.14,-205.81"/>
</a>
</g>
</g>
</g>
</svg>
