<?xml version="1.0" encoding="UTF-8" standalone="no"?>
<!DOCTYPE svg PUBLIC "-//W3C//DTD SVG 1.1//EN"
 "http://www.w3.org/Graphics/SVG/1.1/DTD/svg11.dtd">
<!-- Generated by graphviz version 12.2.1 (0)
 -->
<!-- Title: arax_accel.h Pages: 1 -->
<svg width="688pt" height="299pt"
 viewBox="0.00 0.00 688.00 299.00" xmlns="http://www.w3.org/2000/svg" xmlns:xlink="http://www.w3.org/1999/xlink">
<g id="graph0" class="graph" transform="scale(1 1) rotate(0) translate(4 295)">
<title>arax_accel.h</title>
<!-- Node1 -->
<g id="Node000001" class="node">
<title>Node1</title>
<g id="a_Node000001"><a xlink:title=" ">
<polygon fill="#999999" stroke="#666666" points="510.75,-291 438.5,-291 438.5,-272.5 510.75,-272.5 510.75,-291"/>
<text text-anchor="middle" x="474.62" y="-277.5" font-family="Helvetica,sans-Serif" font-size="10.00">arax_accel.h</text>
</a>
</g>
</g>
<!-- Node2 -->
<g id="Node000002" class="node">
<title>Node2</title>
<g id="a_Node000002"><a xlink:href="a01355.html" target="_top" xlink:title=" ">
<polygon fill="white" stroke="#666666" points="224.12,-236.5 181.12,-236.5 181.12,-218 224.12,-218 224.12,-236.5"/>
<text text-anchor="middle" x="202.62" y="-223" font-family="Helvetica,sans-Serif" font-size="10.00">arax.h</text>
</a>
</g>
</g>
<!-- Node1&#45;&gt;Node2 -->
<g id="edge1_Node000001_Node000002" class="edge">
<title>Node1&#45;&gt;Node2</title>
<g id="a_edge1_Node000001_Node000002"><a xlink:title=" ">
<path fill="none" stroke="#63b8ff" d="M438.22,-273.72C385.04,-263.46 286.88,-244.51 235.67,-234.63"/>
<polygon fill="#63b8ff" stroke="#63b8ff" points="236.57,-231.24 226.08,-232.78 235.24,-238.11 236.57,-231.24"/>
</a>
</g>
</g>
<!-- Node9 -->
<g id="Node000009" class="node">
<title>Node9</title>
<g id="a_Node000009"><a xlink:title=" ">
<polygon fill="#e0e0e0" stroke="#999999" points="616.5,-182 566.75,-182 566.75,-163.5 616.5,-163.5 616.5,-182"/>
<text text-anchor="middle" x="591.62" y="-168.5" font-family="Helvetica,sans-Serif" font-size="10.00">async.h</text>
</a>
</g>
</g>
<!-- Node1&#45;&gt;Node9 -->
<g id="edge9_Node000001_Node000009" class="edge">
<title>Node1&#45;&gt;Node9</title>
<g id="a_edge9_Node000001_Node000009"><a xlink:title=" ">
<path fill="none" stroke="#63b8ff" d="M487.08,-272.15C499.16,-263.62 517.77,-249.9 532.62,-236.5 548.71,-221.99 565.48,-203.81 577.01,-190.76"/>
<polygon fill="#63b8ff" stroke="#63b8ff" points="579.47,-193.27 583.4,-183.43 574.19,-188.67 579.47,-193.27"/>
</a>
</g>
</g>
<!-- Node10 -->
<g id="Node000010" class="node">
<title>Node10</title>
<g id="a_Node000010"><a xlink:href="a01430.html" target="_top" xlink:title=" ">
<polygon fill="white" stroke="#666666" points="523.88,-236.5 425.38,-236.5 425.38,-218 523.88,-218 523.88,-236.5"/>
<text text-anchor="middle" x="474.62" y="-223" font-family="Helvetica,sans-Serif" font-size="10.00">core/arax_vaccel.h</text>
</a>
</g>
</g>
<!-- Node1&#45;&gt;Node10 -->
<g id="edge10_Node000001_Node000010" class="edge">
<title>Node1&#45;&gt;Node10</title>
<g id="a_edge10_Node000001_Node000010"><a xlink:title=" ">
<path fill="none" stroke="#63b8ff" d="M469.46,-272.08C468.05,-265.58 467.58,-256.42 468.05,-248.16"/>
<polygon fill="#63b8ff" stroke="#63b8ff" points="471.52,-248.62 469.3,-238.26 464.58,-247.74 471.52,-248.62"/>
</a>
</g>
</g>
<!-- Node20 -->
<g id="Node000020" class="node">
<title>Node20</title>
<g id="a_Node000020"><a xlink:href="a01427.html" target="_top" xlink:title=" ">
<polygon fill="white" stroke="#666666" points="680,-236.5 579.25,-236.5 579.25,-218 680,-218 680,-236.5"/>
<text text-anchor="middle" x="629.62" y="-223" font-family="Helvetica,sans-Serif" font-size="10.00">core/arax_throttle.h</text>
</a>
</g>
</g>
<!-- Node1&#45;&gt;Node20 -->
<g id="edge27_Node000001_Node000020" class="edge">
<title>Node1&#45;&gt;Node20</title>
<g id="a_edge27_Node000001_Node000020"><a xlink:title=" ">
<path fill="none" stroke="#63b8ff" d="M500.22,-272.08C525.57,-263.49 564.64,-250.26 593.22,-240.58"/>
<polygon fill="#63b8ff" stroke="#63b8ff" points="594.21,-243.94 602.56,-237.42 591.96,-237.31 594.21,-243.94"/>
</a>
</g>
</g>
<!-- Node3 -->
<g id="Node000003" class="node">
<title>Node3</title>
<g id="a_Node000003"><a xlink:title=" ">
<polygon fill="#e0e0e0" stroke="#999999" points="225.25,-182 180,-182 180,-163.5 225.25,-163.5 225.25,-182"/>
<text text-anchor="middle" x="202.62" y="-168.5" font-family="Helvetica,sans-Serif" font-size="10.00">stdio.h</text>
</a>
</g>
</g>
<!-- Node2&#45;&gt;Node3 -->
<g id="edge2_Node000002_Node000003" class="edge">
<title>Node2&#45;&gt;Node3</title>
<g id="a_edge2_Node000002_Node000003"><a xlink:title=" ">
<path fill="none" stroke="#63b8ff" d="M202.62,-217.58C202.62,-211.08 202.62,-201.92 202.62,-193.66"/>
<polygon fill="#63b8ff" stroke="#63b8ff" points="206.13,-193.77 202.63,-183.77 199.13,-193.77 206.13,-193.77"/>
</a>
</g>
</g>
<!-- Node4 -->
<g id="Node000004" class="node">
<title>Node4</title>
<g id="a_Node000004"><a xlink:title=" ">
<polygon fill="#e0e0e0" stroke="#999999" points="400.88,-73 350.38,-73 350.38,-54.5 400.88,-54.5 400.88,-73"/>
<text text-anchor="middle" x="375.62" y="-59.5" font-family="Helvetica,sans-Serif" font-size="10.00">stddef.h</text>
</a>
</g>
</g>
<!-- Node2&#45;&gt;Node4 -->
<g id="edge3_Node000002_Node000004" class="edge">
<title>Node2&#45;&gt;Node4</title>
<g id="a_edge3_Node000002_Node000004"><a xlink:title=" ">
<path fill="none" stroke="#63b8ff" d="M209.39,-217.69C216.15,-208.97 226.66,-194.91 234.62,-182 253.84,-150.88 245.82,-133.89 272.62,-109 291.24,-91.71 317.66,-80.55 339.07,-73.76"/>
<polygon fill="#63b8ff" stroke="#63b8ff" points="340.01,-77.13 348.61,-70.94 338.03,-70.42 340.01,-77.13"/>
</a>
</g>
</g>
<!-- Node5 -->
<g id="Node000005" class="node">
<title>Node5</title>
<g id="a_Node000005"><a xlink:href="a01361.html" target="_top" xlink:title=" ">
<polygon fill="white" stroke="#666666" points="143.12,-127.5 70.12,-127.5 70.12,-109 143.12,-109 143.12,-127.5"/>
<text text-anchor="middle" x="106.62" y="-114" font-family="Helvetica,sans-Serif" font-size="10.00">arax_types.h</text>
</a>
</g>
</g>
<!-- Node2&#45;&gt;Node5 -->
<g id="edge4_Node000002_Node000005" class="edge">
<title>Node2&#45;&gt;Node5</title>
<g id="a_edge4_Node000002_Node000005"><a xlink:title=" ">
<path fill="none" stroke="#63b8ff" d="M195.09,-217.85C179.4,-200.36 142.92,-159.71 122.04,-136.43"/>
<polygon fill="#63b8ff" stroke="#63b8ff" points="124.68,-134.14 115.4,-129.03 119.47,-138.81 124.68,-134.14"/>
</a>
</g>
</g>
<!-- Node8 -->
<g id="Node000008" class="node">
<title>Node8</title>
<g id="a_Node000008"><a xlink:href="a01406.html" target="_top" xlink:title=" ">
<polygon fill="white" stroke="#666666" points="123.25,-182 0,-182 0,-163.5 123.25,-163.5 123.25,-182"/>
<text text-anchor="middle" x="61.62" y="-168.5" font-family="Helvetica,sans-Serif" font-size="10.00">core/arax_accel_types.h</text>
</a>
</g>
</g>
<!-- Node2&#45;&gt;Node8 -->
<g id="edge7_Node000002_Node000008" class="edge">
<title>Node2&#45;&gt;Node8</title>
<g id="a_edge7_Node000002_Node000008"><a xlink:title=" ">
<path fill="none" stroke="#63b8ff" d="M180.9,-218.16C158.19,-209.71 122.23,-196.32 95.73,-186.45"/>
<polygon fill="#63b8ff" stroke="#63b8ff" points="97.03,-183.2 86.44,-182.99 94.59,-189.76 97.03,-183.2"/>
</a>
</g>
</g>
<!-- Node6 -->
<g id="Node000006" class="node">
<title>Node6</title>
<g id="a_Node000006"><a xlink:title=" ">
<polygon fill="#e0e0e0" stroke="#999999" points="171.75,-73 111.5,-73 111.5,-54.5 171.75,-54.5 171.75,-73"/>
<text text-anchor="middle" x="141.62" y="-59.5" font-family="Helvetica,sans-Serif" font-size="10.00">sys/time.h</text>
</a>
</g>
</g>
<!-- Node5&#45;&gt;Node6 -->
<g id="edge5_Node000005_Node000006" class="edge">
<title>Node5&#45;&gt;Node6</title>
<g id="a_edge5_Node000005_Node000006"><a xlink:title=" ">
<path fill="none" stroke="#63b8ff" d="M112.4,-108.58C117.09,-101.55 123.86,-91.4 129.7,-82.64"/>
<polygon fill="#63b8ff" stroke="#63b8ff" points="132.48,-84.78 135.11,-74.52 126.65,-80.9 132.48,-84.78"/>
</a>
</g>
</g>
<!-- Node7 -->
<g id="Node000007" class="node">
<title>Node7</title>
<g id="a_Node000007"><a xlink:title=" ">
<polygon fill="#e0e0e0" stroke="#999999" points="93.12,-73 50.12,-73 50.12,-54.5 93.12,-54.5 93.12,-73"/>
<text text-anchor="middle" x="71.62" y="-59.5" font-family="Helvetica,sans-Serif" font-size="10.00">time.h</text>
</a>
</g>
</g>
<!-- Node5&#45;&gt;Node7 -->
<g id="edge6_Node000005_Node000007" class="edge">
<title>Node5&#45;&gt;Node7</title>
<g id="a_edge6_Node000005_Node000007"><a xlink:title=" ">
<path fill="none" stroke="#63b8ff" d="M100.85,-108.58C96.16,-101.55 89.39,-91.4 83.55,-82.64"/>
<polygon fill="#63b8ff" stroke="#63b8ff" points="86.6,-80.9 78.14,-74.52 80.77,-84.78 86.6,-80.9"/>
</a>
</g>
</g>
<!-- Node8&#45;&gt;Node5 -->
<g id="edge8_Node000008_Node000005" class="edge">
<title>Node8&#45;&gt;Node5</title>
<g id="a_edge8_Node000008_Node000005"><a xlink:title=" ">
<path fill="none" stroke="#63b8ff" d="M69.06,-163.08C75.28,-155.82 84.35,-145.23 92.03,-136.28"/>
<polygon fill="#63b8ff" stroke="#63b8ff" points="94.5,-138.78 98.35,-128.91 89.18,-134.22 94.5,-138.78"/>
</a>
</g>
</g>
<!-- Node10&#45;&gt;Node1 -->
<g id="edge25_Node000010_Node000001" class="edge">
<title>Node10&#45;&gt;Node1</title>
<g id="a_edge25_Node000010_Node000001"><a xlink:title=" ">
<path fill="none" stroke="#63b8ff" d="M479.76,-236.76C481.2,-243.29 481.68,-252.57 481.19,-260.93"/>
<polygon fill="#63b8ff" stroke="#63b8ff" points="477.75,-260.22 479.98,-270.58 484.7,-261.09 477.75,-260.22"/>
</a>
</g>
</g>
<!-- Node10&#45;&gt;Node9 -->
<g id="edge26_Node000010_Node000009" class="edge">
<title>Node10&#45;&gt;Node9</title>
<g id="a_edge26_Node000010_Node000009"><a xlink:title=" ">
<path fill="none" stroke="#63b8ff" d="M493.95,-217.58C512.41,-209.3 540.5,-196.69 561.83,-187.12"/>
<polygon fill="#63b8ff" stroke="#63b8ff" points="563.2,-190.34 570.9,-183.05 560.34,-183.95 563.2,-190.34"/>
</a>
</g>
</g>
<!-- Node11 -->
<g id="Node000011" class="node">
<title>Node11</title>
<g id="a_Node000011"><a xlink:href="a01415.html" target="_top" xlink:title=" ">
<polygon fill="white" stroke="#666666" points="458.75,-182 362.5,-182 362.5,-163.5 458.75,-163.5 458.75,-182"/>
<text text-anchor="middle" x="410.62" y="-168.5" font-family="Helvetica,sans-Serif" font-size="10.00">core/arax_object.h</text>
</a>
</g>
</g>
<!-- Node10&#45;&gt;Node11 -->
<g id="edge11_Node000010_Node000011" class="edge">
<title>Node10&#45;&gt;Node11</title>
<g id="a_edge11_Node000010_Node000011"><a xlink:title=" ">
<path fill="none" stroke="#63b8ff" d="M464.06,-217.58C454.74,-209.94 440.93,-198.61 429.68,-189.38"/>
<polygon fill="#63b8ff" stroke="#63b8ff" points="432.12,-186.85 422.17,-183.22 427.68,-192.27 432.12,-186.85"/>
</a>
</g>
</g>
<!-- Node18 -->
<g id="Node000018" class="node">
<title>Node18</title>
<g id="a_Node000018"><a xlink:href="a01391.html" target="_top" xlink:title=" ">
<polygon fill="white" stroke="#666666" points="548.38,-182 476.88,-182 476.88,-163.5 548.38,-163.5 548.38,-182"/>
<text text-anchor="middle" x="512.62" y="-168.5" font-family="Helvetica,sans-Serif" font-size="10.00">utils/queue.h</text>
</a>
</g>
</g>
<!-- Node10&#45;&gt;Node18 -->
<g id="edge20_Node000010_Node000018" class="edge">
<title>Node10&#45;&gt;Node18</title>
<g id="a_edge20_Node000010_Node000018"><a xlink:title=" ">
<path fill="none" stroke="#63b8ff" d="M480.9,-217.58C486.05,-210.47 493.5,-200.18 499.89,-191.35"/>
<polygon fill="#63b8ff" stroke="#63b8ff" points="502.55,-193.64 505.58,-183.48 496.88,-189.53 502.55,-193.64"/>
</a>
</g>
</g>
<!-- Node12 -->
<g id="Node000012" class="node">
<title>Node12</title>
<g id="a_Node000012"><a xlink:href="a01388.html" target="_top" xlink:title=" ">
<polygon fill="white" stroke="#666666" points="461.25,-127.5 404,-127.5 404,-109 461.25,-109 461.25,-127.5"/>
<text text-anchor="middle" x="432.62" y="-114" font-family="Helvetica,sans-Serif" font-size="10.00">utils/list.h</text>
</a>
</g>
</g>
<!-- Node11&#45;&gt;Node12 -->
<g id="edge12_Node000011_Node000012" class="edge">
<title>Node11&#45;&gt;Node12</title>
<g id="a_edge12_Node000011_Node000012"><a xlink:title=" ">
<path fill="none" stroke="#63b8ff" d="M414.26,-163.08C417.08,-156.35 421.09,-146.77 424.65,-138.29"/>
<polygon fill="#63b8ff" stroke="#63b8ff" points="427.84,-139.73 428.47,-129.15 421.38,-137.02 427.84,-139.73"/>
</a>
</g>
</g>
<!-- Node14 -->
<g id="Node000014" class="node">
<title>Node14</title>
<g id="a_Node000014"><a xlink:href="a01394.html" target="_top" xlink:title=" ">
<polygon fill="white" stroke="#666666" points="599.25,-127.5 518,-127.5 518,-109 599.25,-109 599.25,-127.5"/>
<text text-anchor="middle" x="558.62" y="-114" font-family="Helvetica,sans-Serif" font-size="10.00">utils/spinlock.h</text>
</a>
</g>
</g>
<!-- Node11&#45;&gt;Node14 -->
<g id="edge15_Node000011_Node000014" class="edge">
<title>Node11&#45;&gt;Node14</title>
<g id="a_edge15_Node000011_Node000014"><a xlink:title=" ">
<path fill="none" stroke="#63b8ff" d="M435.06,-163.08C459.17,-154.53 496.25,-141.38 523.5,-131.71"/>
<polygon fill="#63b8ff" stroke="#63b8ff" points="524.47,-135.08 532.72,-128.44 522.13,-128.48 524.47,-135.08"/>
</a>
</g>
</g>
<!-- Node17 -->
<g id="Node000017" class="node">
<title>Node17</title>
<g id="a_Node000017"><a xlink:title=" ">
<polygon fill="#e0e0e0" stroke="#999999" points="347.75,-127.5 281.5,-127.5 281.5,-109 347.75,-109 347.75,-127.5"/>
<text text-anchor="middle" x="314.62" y="-114" font-family="Helvetica,sans-Serif" font-size="10.00">arch/alloc.h</text>
</a>
</g>
</g>
<!-- Node11&#45;&gt;Node17 -->
<g id="edge19_Node000011_Node000017" class="edge">
<title>Node11&#45;&gt;Node17</title>
<g id="a_edge19_Node000011_Node000017"><a xlink:title=" ">
<path fill="none" stroke="#63b8ff" d="M394.77,-163.08C380.04,-155.03 357.84,-142.88 340.53,-133.42"/>
<polygon fill="#63b8ff" stroke="#63b8ff" points="342.28,-130.39 331.83,-128.66 338.92,-136.53 342.28,-130.39"/>
</a>
</g>
</g>
<!-- Node12&#45;&gt;Node4 -->
<g id="edge13_Node000012_Node000004" class="edge">
<title>Node12&#45;&gt;Node4</title>
<g id="a_edge13_Node000012_Node000004"><a xlink:title=" ">
<path fill="none" stroke="#63b8ff" d="M423.21,-108.58C415.08,-101.09 403.1,-90.06 393.2,-80.94"/>
<polygon fill="#63b8ff" stroke="#63b8ff" points="395.7,-78.48 385.98,-74.28 390.96,-83.63 395.7,-78.48"/>
</a>
</g>
</g>
<!-- Node13 -->
<g id="Node000013" class="node">
<title>Node13</title>
<g id="a_Node000013"><a xlink:title=" ">
<polygon fill="#e0e0e0" stroke="#999999" points="502.38,-73 454.88,-73 454.88,-54.5 502.38,-54.5 502.38,-73"/>
<text text-anchor="middle" x="478.62" y="-59.5" font-family="Helvetica,sans-Serif" font-size="10.00">stdint.h</text>
</a>
</g>
</g>
<!-- Node12&#45;&gt;Node13 -->
<g id="edge14_Node000012_Node000013" class="edge">
<title>Node12&#45;&gt;Node13</title>
<g id="a_edge14_Node000012_Node000013"><a xlink:title=" ">
<path fill="none" stroke="#63b8ff" d="M440.22,-108.58C446.58,-101.32 455.86,-90.73 463.7,-81.78"/>
<polygon fill="#63b8ff" stroke="#63b8ff" points="466.22,-84.22 470.17,-74.4 460.95,-79.61 466.22,-84.22"/>
</a>
</g>
</g>
<!-- Node14&#45;&gt;Node13 -->
<g id="edge16_Node000014_Node000013" class="edge">
<title>Node14&#45;&gt;Node13</title>
<g id="a_edge16_Node000014_Node000013"><a xlink:title=" ">
<path fill="none" stroke="#63b8ff" d="M545.41,-108.58C533.49,-100.75 515.68,-89.07 501.45,-79.73"/>
<polygon fill="#63b8ff" stroke="#63b8ff" points="503.4,-76.82 493.12,-74.26 499.56,-82.68 503.4,-76.82"/>
</a>
</g>
</g>
<!-- Node15 -->
<g id="Node000015" class="node">
<title>Node15</title>
<g id="a_Node000015"><a xlink:href="a01373.html" target="_top" xlink:title=" ">
<polygon fill="white" stroke="#666666" points="617.12,-73 520.12,-73 520.12,-54.5 617.12,-54.5 617.12,-73"/>
<text text-anchor="middle" x="568.62" y="-59.5" font-family="Helvetica,sans-Serif" font-size="10.00">utils/arax_assert.h</text>
</a>
</g>
</g>
<!-- Node14&#45;&gt;Node15 -->
<g id="edge17_Node000014_Node000015" class="edge">
<title>Node14&#45;&gt;Node15</title>
<g id="a_edge17_Node000014_Node000015"><a xlink:title=" ">
<path fill="none" stroke="#63b8ff" d="M560.28,-108.58C561.53,-102.01 563.3,-92.71 564.89,-84.37"/>
<polygon fill="#63b8ff" stroke="#63b8ff" points="568.29,-85.22 566.72,-74.74 561.41,-83.91 568.29,-85.22"/>
</a>
</g>
</g>
<!-- Node16 -->
<g id="Node000016" class="node">
<title>Node16</title>
<g id="a_Node000016"><a xlink:href="a01382.html" target="_top" xlink:title=" ">
<polygon fill="white" stroke="#666666" points="596.5,-18.5 540.75,-18.5 540.75,0 596.5,0 596.5,-18.5"/>
<text text-anchor="middle" x="568.62" y="-5" font-family="Helvetica,sans-Serif" font-size="10.00">compat.h</text>
</a>
</g>
</g>
<!-- Node15&#45;&gt;Node16 -->
<g id="edge18_Node000015_Node000016" class="edge">
<title>Node15&#45;&gt;Node16</title>
<g id="a_edge18_Node000015_Node000016"><a xlink:title=" ">
<path fill="none" stroke="#63b8ff" d="M568.62,-54.08C568.62,-47.58 568.62,-38.42 568.62,-30.16"/>
<polygon fill="#63b8ff" stroke="#63b8ff" points="572.13,-30.27 568.63,-20.27 565.13,-30.27 572.13,-30.27"/>
</a>
</g>
</g>
<!-- Node18&#45;&gt;Node4 -->
<g id="edge21_Node000018_Node000004" class="edge">
<title>Node18&#45;&gt;Node4</title>
<g id="a_edge21_Node000018_Node000004"><a xlink:title=" ">
<path fill="none" stroke="#63b8ff" d="M480.05,-163.05C449.43,-154.28 406.56,-140.23 394.62,-127.5 383.66,-115.8 379.01,-97.98 377.04,-84.31"/>
<polygon fill="#63b8ff" stroke="#63b8ff" points="380.56,-84.31 376.05,-74.73 373.6,-85.04 380.56,-84.31"/>
</a>
</g>
</g>
<!-- Node18&#45;&gt;Node13 -->
<g id="edge22_Node000018_Node000013" class="edge">
<title>Node18&#45;&gt;Node13</title>
<g id="a_edge22_Node000018_Node000013"><a xlink:title=" ">
<path fill="none" stroke="#63b8ff" d="M509.96,-163.35C504.57,-146.4 492.28,-107.71 484.79,-84.15"/>
<polygon fill="#63b8ff" stroke="#63b8ff" points="488.2,-83.32 481.83,-74.85 481.53,-85.44 488.2,-83.32"/>
</a>
</g>
</g>
<!-- Node18&#45;&gt;Node14 -->
<g id="edge24_Node000018_Node000014" class="edge">
<title>Node18&#45;&gt;Node14</title>
<g id="a_edge24_Node000018_Node000014"><a xlink:title=" ">
<path fill="none" stroke="#63b8ff" d="M520.22,-163.08C526.58,-155.82 535.86,-145.23 543.7,-136.28"/>
<polygon fill="#63b8ff" stroke="#63b8ff" points="546.22,-138.72 550.17,-128.9 540.95,-134.11 546.22,-138.72"/>
</a>
</g>
</g>
<!-- Node19 -->
<g id="Node000019" class="node">
<title>Node19</title>
<g id="a_Node000019"><a xlink:href="a01364.html" target="_top" xlink:title=" ">
<polygon fill="white" stroke="#666666" points="659.75,-127.5 617.5,-127.5 617.5,-109 659.75,-109 659.75,-127.5"/>
<text text-anchor="middle" x="638.62" y="-114" font-family="Helvetica,sans-Serif" font-size="10.00">conf.h</text>
</a>
</g>
</g>
<!-- Node18&#45;&gt;Node19 -->
<g id="edge23_Node000018_Node000019" class="edge">
<title>Node18&#45;&gt;Node19</title>
<g id="a_edge23_Node000018_Node000019"><a xlink:title=" ">
<path fill="none" stroke="#63b8ff" d="M533.43,-163.08C553.49,-154.72 584.12,-141.96 607.16,-132.36"/>
<polygon fill="#63b8ff" stroke="#63b8ff" points="608.51,-135.59 616.39,-128.51 605.81,-129.13 608.51,-135.59"/>
</a>
</g>
</g>
<!-- Node20&#45;&gt;Node9 -->
<g id="edge28_Node000020_Node000009" class="edge">
<title>Node20&#45;&gt;Node9</title>
<g id="a_edge28_Node000020_Node000009"><a xlink:title=" ">
<path fill="none" stroke="#63b8ff" d="M623.35,-217.58C618.2,-210.47 610.75,-200.18 604.36,-191.35"/>
<polygon fill="#63b8ff" stroke="#63b8ff" points="607.37,-189.53 598.67,-183.48 601.7,-193.64 607.37,-189.53"/>
</a>
</g>
</g>
</g>
</svg>
