<?xml version="1.0" encoding="UTF-8" standalone="no"?>
<!DOCTYPE svg PUBLIC "-//W3C//DTD SVG 1.1//EN"
 "http://www.w3.org/Graphics/SVG/1.1/DTD/svg11.dtd">
<!-- Generated by graphviz version 12.2.1 (0)
 -->
<!-- Title: async_completion_init Pages: 1 -->
<svg width="1481pt" height="536pt"
 viewBox="0.00 0.00 1481.25 535.75" xmlns="http://www.w3.org/2000/svg" xmlns:xlink="http://www.w3.org/1999/xlink">
<g id="graph0" class="graph" transform="scale(1 1) rotate(0) translate(4 531.75)">
<title>async_completion_init</title>
<!-- Node1 -->
<g id="Node000001" class="node">
<title>Node1</title>
<g id="a_Node000001"><a xlink:title=" ">
<polygon fill="#999999" stroke="#666666" points="1473.25,-284.75 1361.25,-284.75 1361.25,-266.25 1473.25,-266.25 1473.25,-284.75"/>
<text text-anchor="middle" x="1417.25" y="-271.25" font-family="Helvetica,sans-Serif" font-size="10.00">async_completion_init</text>
</a>
</g>
</g>
<!-- Node2 -->
<g id="Node000002" class="node">
<title>Node2</title>
<g id="a_Node000002"><a xlink:href="a01937.html#a27bee94f7a23281c8b2b72ec433f6059" target="_top" xlink:title=" ">
<polygon fill="white" stroke="#666666" points="568,-412.75 483,-412.75 483,-394.25 568,-394.25 568,-412.75"/>
<text text-anchor="middle" x="525.5" y="-399.25" font-family="Helvetica,sans-Serif" font-size="10.00">arax_task_alloc</text>
</a>
</g>
</g>
<!-- Node1&#45;&gt;Node2 -->
<g id="edge1_Node000001_Node000002" class="edge">
<title>Node1&#45;&gt;Node2</title>
<g id="a_edge1_Node000001_Node000002"><a xlink:title=" ">
<path fill="none" stroke="#63b8ff" d="M1394.95,-292C1348.1,-326.59 1231.44,-403.5 1120.38,-403.5 1120.38,-403.5 1120.38,-403.5 811.5,-403.5 724.91,-403.5 623.53,-403.5 568.04,-403.5"/>
<polygon fill="#63b8ff" stroke="#63b8ff" points="1397,-294.84 1402.89,-286.03 1392.8,-289.24 1397,-294.84"/>
</a>
</g>
</g>
<!-- Node10 -->
<g id="Node000010" class="node">
<title>Node10</title>
<g id="a_Node000010"><a xlink:href="a02364.html#ac7fbf1f43289d3e0e862b315f00e35e2" target="_top" xlink:title=" ">
<polygon fill="white" stroke="#666666" points="1319.25,-169.75 1215.5,-169.75 1215.5,-151.25 1319.25,-151.25 1319.25,-169.75"/>
<text text-anchor="middle" x="1267.38" y="-156.25" font-family="Helvetica,sans-Serif" font-size="10.00">async_condition_init</text>
</a>
</g>
</g>
<!-- Node1&#45;&gt;Node10 -->
<g id="edge10_Node000001_Node000010" class="edge">
<title>Node1&#45;&gt;Node10</title>
<g id="a_edge10_Node000001_Node000010"><a xlink:title=" ">
<path fill="none" stroke="#63b8ff" d="M1395.07,-259.03C1363.66,-234.6 1305.76,-189.57 1280.59,-170"/>
<polygon fill="#63b8ff" stroke="#63b8ff" points="1392.66,-261.59 1402.7,-264.96 1396.96,-256.06 1392.66,-261.59"/>
</a>
</g>
</g>
<!-- Node22 -->
<g id="Node000022" class="node">
<title>Node22</title>
<g id="a_Node000022"><a xlink:href="a02364.html#a7ab7c7fe9cb93434dde72a4e464a7e69" target="_top" xlink:title=" ">
<polygon fill="white" stroke="#666666" points="1325.25,-284.75 1209.5,-284.75 1209.5,-266.25 1325.25,-266.25 1325.25,-284.75"/>
<text text-anchor="middle" x="1267.38" y="-271.25" font-family="Helvetica,sans-Serif" font-size="10.00">async_semaphore_dec</text>
</a>
</g>
</g>
<!-- Node1&#45;&gt;Node22 -->
<g id="edge26_Node000001_Node000022" class="edge">
<title>Node1&#45;&gt;Node22</title>
<g id="a_edge26_Node000001_Node000022"><a xlink:title=" ">
<path fill="none" stroke="#63b8ff" d="M1349.31,-275.5C1341.41,-275.5 1333.4,-275.5 1325.65,-275.5"/>
<polygon fill="#63b8ff" stroke="#63b8ff" points="1349.25,-279 1359.25,-275.5 1349.25,-272 1349.25,-279"/>
</a>
</g>
</g>
<!-- Node3 -->
<g id="Node000003" class="node">
<title>Node3</title>
<g id="a_Node000003"><a xlink:href="a02189.html#gac9f0f3fbb14da879d3ff09bd367bbb24" target="_top" xlink:title=" ">
<polygon fill="white" stroke="#666666" points="413.62,-435.75 325.62,-435.75 325.62,-417.25 413.62,-417.25 413.62,-435.75"/>
<text text-anchor="middle" x="369.62" y="-422.25" font-family="Helvetica,sans-Serif" font-size="10.00">arax_task_issue</text>
</a>
</g>
</g>
<!-- Node2&#45;&gt;Node3 -->
<g id="edge2_Node000002_Node000003" class="edge">
<title>Node2&#45;&gt;Node3</title>
<g id="a_edge2_Node000002_Node000003"><a xlink:title=" ">
<path fill="none" stroke="#63b8ff" d="M471.48,-411.43C452.69,-414.23 431.79,-417.36 413.91,-420.03"/>
<polygon fill="#63b8ff" stroke="#63b8ff" points="471.99,-414.89 481.36,-409.95 470.95,-407.96 471.99,-414.89"/>
</a>
</g>
</g>
<!-- Node4 -->
<g id="Node000004" class="node">
<title>Node4</title>
<g id="a_Node000004"><a xlink:href="a01922.html#af8ede6fc8d207004035f45d945688d2c" target="_top" xlink:title=" ">
<polygon fill="white" stroke="#666666" points="253.62,-380 155.12,-380 155.12,-351 253.62,-351 253.62,-380"/>
<text text-anchor="start" x="163.12" y="-366.5" font-family="Helvetica,sans-Serif" font-size="10.00">arax_data_allocate</text>
<text text-anchor="middle" x="204.38" y="-356" font-family="Helvetica,sans-Serif" font-size="10.00">_remote</text>
</a>
</g>
</g>
<!-- Node3&#45;&gt;Node4 -->
<g id="edge3_Node000003_Node000004" class="edge">
<title>Node3&#45;&gt;Node4</title>
<g id="a_edge3_Node000003_Node000004"><a xlink:title=" ">
<path fill="none" stroke="#63b8ff" d="M332.6,-412.84C314.06,-405.83 291.08,-397.17 270.5,-389.5 262.6,-386.55 254.15,-383.42 246.04,-380.43"/>
<polygon fill="#63b8ff" stroke="#63b8ff" points="331.22,-416.06 341.82,-416.33 333.7,-409.52 331.22,-416.06"/>
</a>
</g>
</g>
<!-- Node5 -->
<g id="Node000005" class="node">
<title>Node5</title>
<g id="a_Node000005"><a xlink:href="a01922.html#a696bc4319d0f6c6baa7d797a8df6b56f" target="_top" xlink:title=" ">
<polygon fill="white" stroke="#666666" points="243.5,-527.75 165.25,-527.75 165.25,-509.25 243.5,-509.25 243.5,-527.75"/>
<text text-anchor="middle" x="204.38" y="-514.25" font-family="Helvetica,sans-Serif" font-size="10.00">arax_data_get</text>
</a>
</g>
</g>
<!-- Node3&#45;&gt;Node5 -->
<g id="edge4_Node000003_Node000005" class="edge">
<title>Node3&#45;&gt;Node5</title>
<g id="a_edge4_Node000003_Node000005"><a xlink:title=" ">
<path fill="none" stroke="#63b8ff" d="M349.79,-443.75C330.97,-460.17 300.58,-484.53 270.5,-499.5 262.17,-503.65 252.78,-507.04 243.78,-509.76"/>
<polygon fill="#63b8ff" stroke="#63b8ff" points="352.01,-446.46 357.15,-437.2 347.36,-441.23 352.01,-446.46"/>
</a>
</g>
</g>
<!-- Node7 -->
<g id="Node000007" class="node">
<title>Node7</title>
<g id="a_Node000007"><a xlink:href="a01922.html#a8995f71dba475975efc37756783cfce9" target="_top" xlink:title=" ">
<polygon fill="white" stroke="#666666" points="243.5,-490.75 165.25,-490.75 165.25,-472.25 243.5,-472.25 243.5,-490.75"/>
<text text-anchor="middle" x="204.38" y="-477.25" font-family="Helvetica,sans-Serif" font-size="10.00">arax_data_set</text>
</a>
</g>
</g>
<!-- Node3&#45;&gt;Node7 -->
<g id="edge6_Node000003_Node000007" class="edge">
<title>Node3&#45;&gt;Node7</title>
<g id="a_edge6_Node000003_Node000007"><a xlink:title=" ">
<path fill="none" stroke="#63b8ff" d="M333.16,-440.17C314.6,-447.16 291.44,-455.61 270.5,-462.5 260.77,-465.7 250.13,-468.92 240.32,-471.78"/>
<polygon fill="#63b8ff" stroke="#63b8ff" points="334.26,-443.5 342.37,-436.68 331.78,-436.95 334.26,-443.5"/>
</a>
</g>
</g>
<!-- Node8 -->
<g id="Node000008" class="node">
<title>Node8</title>
<g id="a_Node000008"><a xlink:href="a01922.html#af735744d0f8bec04394639a841d2ba0f" target="_top" xlink:title=" ">
<polygon fill="white" stroke="#666666" points="270.5,-453.75 138.25,-453.75 138.25,-435.25 270.5,-435.25 270.5,-453.75"/>
<text text-anchor="middle" x="204.38" y="-440.25" font-family="Helvetica,sans-Serif" font-size="10.00">ARAX_OBJ_DTOR_DECL</text>
</a>
</g>
</g>
<!-- Node3&#45;&gt;Node8 -->
<g id="edge8_Node000003_Node000008" class="edge">
<title>Node3&#45;&gt;Node8</title>
<g id="a_edge8_Node000003_Node000008"><a xlink:title=" ">
<path fill="none" stroke="#63b8ff" d="M313.98,-432.53C300.11,-434.05 285.08,-435.71 270.74,-437.29"/>
<polygon fill="#63b8ff" stroke="#63b8ff" points="314.25,-436.02 323.8,-431.44 313.48,-429.06 314.25,-436.02"/>
</a>
</g>
</g>
<!-- Node9 -->
<g id="Node000009" class="node">
<title>Node9</title>
<g id="a_Node000009"><a xlink:href="a02189.html#ga1418f4cd7336bf77cce7b955a1bf7077" target="_top" xlink:title=" ">
<polygon fill="white" stroke="#666666" points="261.12,-416.75 147.62,-416.75 147.62,-398.25 261.12,-398.25 261.12,-416.75"/>
<text text-anchor="middle" x="204.38" y="-403.25" font-family="Helvetica,sans-Serif" font-size="10.00">arax_task_issue_sync</text>
</a>
</g>
</g>
<!-- Node3&#45;&gt;Node9 -->
<g id="edge9_Node000003_Node000009" class="edge">
<title>Node3&#45;&gt;Node9</title>
<g id="a_edge9_Node000003_Node000009"><a xlink:title=" ">
<path fill="none" stroke="#63b8ff" d="M313.95,-420.14C297.08,-418.17 278.49,-416.01 261.53,-414.04"/>
<polygon fill="#63b8ff" stroke="#63b8ff" points="313.46,-423.6 323.8,-421.28 314.27,-416.65 313.46,-423.6"/>
</a>
</g>
</g>
<!-- Node6 -->
<g id="Node000006" class="node">
<title>Node6</title>
<g id="a_Node000006"><a xlink:href="a01922.html#a7d8356bd5c8b6a8d7dffc6ba94cc22e5" target="_top" xlink:title=" ">
<polygon fill="white" stroke="#666666" points="102.25,-508.75 0,-508.75 0,-490.25 102.25,-490.25 102.25,-508.75"/>
<text text-anchor="middle" x="51.12" y="-495.25" font-family="Helvetica,sans-Serif" font-size="10.00">arax_data_memcpy</text>
</a>
</g>
</g>
<!-- Node5&#45;&gt;Node6 -->
<g id="edge5_Node000005_Node000006" class="edge">
<title>Node5&#45;&gt;Node6</title>
<g id="a_edge5_Node000005_Node000006"><a xlink:title=" ">
<path fill="none" stroke="#63b8ff" d="M153.79,-512.27C137.38,-510.21 119.1,-507.91 102.61,-505.84"/>
<polygon fill="#63b8ff" stroke="#63b8ff" points="152.96,-515.69 163.32,-513.47 153.83,-508.75 152.96,-515.69"/>
</a>
</g>
</g>
<!-- Node7&#45;&gt;Node6 -->
<g id="edge7_Node000007_Node000006" class="edge">
<title>Node7&#45;&gt;Node6</title>
<g id="a_edge7_Node000007_Node000006"><a xlink:title=" ">
<path fill="none" stroke="#63b8ff" d="M153.79,-487.4C137.38,-489.35 119.1,-491.53 102.61,-493.49"/>
<polygon fill="#63b8ff" stroke="#63b8ff" points="153.8,-490.92 163.31,-486.27 152.97,-483.97 153.8,-490.92"/>
</a>
</g>
</g>
<!-- Node11 -->
<g id="Node000011" class="node">
<title>Node11</title>
<g id="a_Node000011"><a xlink:href="a01916.html#a0706a66a62ca8710342ac1c097b703ed" target="_top" xlink:title=" ">
<polygon fill="white" stroke="#666666" points="410.62,-189.75 328.62,-189.75 328.62,-171.25 410.62,-171.25 410.62,-189.75"/>
<text text-anchor="middle" x="369.62" y="-176.25" font-family="Helvetica,sans-Serif" font-size="10.00">arax_accel_init</text>
</a>
</g>
</g>
<!-- Node10&#45;&gt;Node11 -->
<g id="edge11_Node000010_Node000011" class="edge">
<title>Node10&#45;&gt;Node11</title>
<g id="a_edge11_Node000010_Node000011"><a xlink:title=" ">
<path fill="none" stroke="#63b8ff" d="M1203.73,-166.79C1143.17,-172.32 1048.77,-179.5 966.75,-179.5 966.75,-179.5 966.75,-179.5 669.5,-179.5 576.88,-179.5 468.11,-179.99 410.75,-180.28"/>
<polygon fill="#63b8ff" stroke="#63b8ff" points="1203.87,-170.29 1213.5,-165.88 1203.22,-163.32 1203.87,-170.29"/>
</a>
</g>
</g>
<!-- Node12 -->
<g id="Node000012" class="node">
<title>Node12</title>
<g id="a_Node000012"><a xlink:href="a01928.html#aa6293e9ec7776aa49ecf632fcc4f5e26" target="_top" xlink:title=" ">
<polygon fill="white" stroke="#666666" points="1004.12,-145.75 927.38,-145.75 927.38,-127.25 1004.12,-127.25 1004.12,-145.75"/>
<text text-anchor="middle" x="965.75" y="-132.25" font-family="Helvetica,sans-Serif" font-size="10.00">arax_pipe_init</text>
</a>
</g>
</g>
<!-- Node10&#45;&gt;Node12 -->
<g id="edge12_Node000010_Node000012" class="edge">
<title>Node10&#45;&gt;Node12</title>
<g id="a_edge12_Node000010_Node000012"><a xlink:title=" ">
<path fill="none" stroke="#63b8ff" d="M1203.94,-155.5C1143.71,-150.67 1054.51,-143.53 1004.42,-139.52"/>
<polygon fill="#63b8ff" stroke="#63b8ff" points="1203.45,-158.97 1213.7,-156.28 1204.01,-151.99 1203.45,-158.97"/>
</a>
</g>
</g>
<!-- Node21 -->
<g id="Node000021" class="node">
<title>Node21</title>
<g id="a_Node000021"><a xlink:href="a01940.html#acf84ea82594c4dbe91cf602ee078e04d" target="_top" xlink:title=" ">
<polygon fill="white" stroke="#666666" points="1163.75,-113.75 1075,-113.75 1075,-95.25 1163.75,-95.25 1163.75,-113.75"/>
<text text-anchor="middle" x="1119.38" y="-100.25" font-family="Helvetica,sans-Serif" font-size="10.00">arax_throttle_init</text>
</a>
</g>
</g>
<!-- Node10&#45;&gt;Node21 -->
<g id="edge23_Node000010_Node000021" class="edge">
<title>Node10&#45;&gt;Node21</title>
<g id="a_edge23_Node000010_Node000021"><a xlink:title=" ">
<path fill="none" stroke="#63b8ff" d="M1230.59,-146.77C1204.25,-136.67 1169.09,-123.18 1145.63,-114.19"/>
<polygon fill="#63b8ff" stroke="#63b8ff" points="1229.27,-150.02 1239.86,-150.33 1231.78,-143.48 1229.27,-150.02"/>
</a>
</g>
</g>
<!-- Node13 -->
<g id="Node000013" class="node">
<title>Node13</title>
<g id="a_Node000013"><a xlink:href="a01910.html#a02fd608f651d254148dc74f0ae371dfe" target="_top" xlink:title=" ">
<polygon fill="white" stroke="#666666" points="841.88,-145.75 783.12,-145.75 783.12,-127.25 841.88,-127.25 841.88,-145.75"/>
<text text-anchor="middle" x="812.5" y="-132.25" font-family="Helvetica,sans-Serif" font-size="10.00">_arax_init</text>
</a>
</g>
</g>
<!-- Node12&#45;&gt;Node13 -->
<g id="edge13_Node000012_Node000013" class="edge">
<title>Node12&#45;&gt;Node13</title>
<g id="a_edge13_Node000012_Node000013"><a xlink:title=" ">
<path fill="none" stroke="#63b8ff" d="M915.46,-136.5C891.24,-136.5 862.9,-136.5 842.25,-136.5"/>
<polygon fill="#63b8ff" stroke="#63b8ff" points="915.46,-140 925.46,-136.5 915.46,-133 915.46,-140"/>
</a>
</g>
</g>
<!-- Node14 -->
<g id="Node000014" class="node">
<title>Node14</title>
<g id="a_Node000014"><a xlink:href="a01910.html#aa6e4832b06bd5757be4502d2de7b3026" target="_top" xlink:title=" ">
<polygon fill="white" stroke="#666666" points="719.75,-151 621.25,-151 621.25,-122 719.75,-122 719.75,-151"/>
<text text-anchor="start" x="629.25" y="-137.5" font-family="Helvetica,sans-Serif" font-size="10.00">arax_controller_init</text>
<text text-anchor="middle" x="670.5" y="-127" font-family="Helvetica,sans-Serif" font-size="10.00">_start</text>
</a>
</g>
</g>
<!-- Node13&#45;&gt;Node14 -->
<g id="edge14_Node000013_Node000014" class="edge">
<title>Node13&#45;&gt;Node14</title>
<g id="a_edge14_Node000013_Node000014"><a xlink:title=" ">
<path fill="none" stroke="#63b8ff" d="M771.65,-136.5C755.56,-136.5 736.85,-136.5 719.98,-136.5"/>
<polygon fill="#63b8ff" stroke="#63b8ff" points="771.32,-140 781.32,-136.5 771.32,-133 771.32,-140"/>
</a>
</g>
</g>
<!-- Node15 -->
<g id="Node000015" class="node">
<title>Node15</title>
<g id="a_Node000015"><a xlink:href="a02186.html#gae1d371a2840849690acce147e7a205da" target="_top" xlink:title=" ">
<polygon fill="white" stroke="#666666" points="697.25,-65.75 643.75,-65.75 643.75,-47.25 697.25,-47.25 697.25,-65.75"/>
<text text-anchor="middle" x="670.5" y="-52.25" font-family="Helvetica,sans-Serif" font-size="10.00">arax_init</text>
</a>
</g>
</g>
<!-- Node13&#45;&gt;Node15 -->
<g id="edge15_Node000013_Node000015" class="edge">
<title>Node13&#45;&gt;Node15</title>
<g id="a_edge15_Node000013_Node000015"><a xlink:title=" ">
<path fill="none" stroke="#63b8ff" d="M784.94,-121.32C756.56,-105.11 712.45,-79.9 688.45,-66.18"/>
<polygon fill="#63b8ff" stroke="#63b8ff" points="782.88,-124.18 793.3,-126.1 786.35,-118.1 782.88,-124.18"/>
</a>
</g>
</g>
<!-- Node16 -->
<g id="Node000016" class="node">
<title>Node16</title>
<g id="a_Node000016"><a xlink:href="a01946.html#a8a99bcb12e2ee55d68a029bfca9b6d51" target="_top" xlink:title=" ">
<polygon fill="white" stroke="#666666" points="416.62,-29 322.62,-29 322.62,0 416.62,0 416.62,-29"/>
<text text-anchor="start" x="330.62" y="-15.5" font-family="Helvetica,sans-Serif" font-size="10.00">arax_plot_register</text>
<text text-anchor="middle" x="369.62" y="-5" font-family="Helvetica,sans-Serif" font-size="10.00">_metric</text>
</a>
</g>
</g>
<!-- Node15&#45;&gt;Node16 -->
<g id="edge16_Node000015_Node000016" class="edge">
<title>Node15&#45;&gt;Node16</title>
<g id="a_edge16_Node000015_Node000016"><a xlink:title=" ">
<path fill="none" stroke="#63b8ff" d="M632.09,-48.01C616.71,-44.72 598.68,-41.12 582.25,-38.5 525.65,-29.47 460.01,-22.58 417.03,-18.54"/>
<polygon fill="#63b8ff" stroke="#63b8ff" points="631.27,-51.41 641.79,-50.12 632.76,-44.57 631.27,-51.41"/>
</a>
</g>
</g>
<!-- Node17 -->
<g id="Node000017" class="node">
<title>Node17</title>
<g id="a_Node000017"><a xlink:href="a01934.html#a80ab3bf4a8af9bb101b5a53248609771" target="_top" xlink:title=" ">
<polygon fill="white" stroke="#666666" points="563.88,-65.75 487.12,-65.75 487.12,-47.25 563.88,-47.25 563.88,-65.75"/>
<text text-anchor="middle" x="525.5" y="-52.25" font-family="Helvetica,sans-Serif" font-size="10.00">arax_ptr_valid</text>
</a>
</g>
</g>
<!-- Node15&#45;&gt;Node17 -->
<g id="edge17_Node000015_Node000017" class="edge">
<title>Node15&#45;&gt;Node17</title>
<g id="a_edge17_Node000015_Node000017"><a xlink:title=" ">
<path fill="none" stroke="#63b8ff" d="M631.93,-56.5C611.02,-56.5 585.07,-56.5 564.14,-56.5"/>
<polygon fill="#63b8ff" stroke="#63b8ff" points="631.76,-60 641.76,-56.5 631.76,-53 631.76,-60"/>
</a>
</g>
</g>
<!-- Node17&#45;&gt;Node16 -->
<g id="edge22_Node000017_Node000016" class="edge">
<title>Node17&#45;&gt;Node16</title>
<g id="a_edge22_Node000017_Node000016"><a xlink:title=" ">
<path fill="none" stroke="#63b8ff" d="M477.84,-43.76C458.53,-38.49 436.19,-32.4 416.92,-27.14"/>
<polygon fill="#63b8ff" stroke="#63b8ff" points="476.78,-47.1 487.35,-46.36 478.63,-40.35 476.78,-47.1"/>
</a>
</g>
</g>
<!-- Node18 -->
<g id="Node000018" class="node">
<title>Node18</title>
<g id="a_Node000018"><a xlink:href="a01967.html#a4ee1fea325d2edd421f59ab240dfbe54" target="_top" xlink:title=" ">
<polygon fill="white" stroke="#666666" points="415.5,-102.75 323.75,-102.75 323.75,-84.25 415.5,-84.25 415.5,-102.75"/>
<text text-anchor="middle" x="369.62" y="-89.25" font-family="Helvetica,sans-Serif" font-size="10.00">_arax_assert_obj</text>
</a>
</g>
</g>
<!-- Node17&#45;&gt;Node18 -->
<g id="edge18_Node000017_Node000018" class="edge">
<title>Node17&#45;&gt;Node18</title>
<g id="a_edge18_Node000017_Node000018"><a xlink:title=" ">
<path fill="none" stroke="#63b8ff" d="M475.68,-68.24C454.88,-73.24 430.9,-79.01 411.11,-83.76"/>
<polygon fill="#63b8ff" stroke="#63b8ff" points="476.48,-71.65 485.39,-65.91 474.85,-64.84 476.48,-71.65"/>
</a>
</g>
</g>
<!-- Node19 -->
<g id="Node000019" class="node">
<title>Node19</title>
<g id="a_Node000019"><a xlink:href="a01922.html#afeaab7d93372f0752d59c70d9c5940e7" target="_top" xlink:title=" ">
<polygon fill="white" stroke="#666666" points="407.62,-65.75 331.62,-65.75 331.62,-47.25 407.62,-47.25 407.62,-65.75"/>
<text text-anchor="middle" x="369.62" y="-52.25" font-family="Helvetica,sans-Serif" font-size="10.00">arax_data_ref</text>
</a>
</g>
</g>
<!-- Node17&#45;&gt;Node19 -->
<g id="edge19_Node000017_Node000019" class="edge">
<title>Node17&#45;&gt;Node19</title>
<g id="a_edge19_Node000017_Node000019"><a xlink:title=" ">
<path fill="none" stroke="#63b8ff" d="M475.44,-56.5C453.55,-56.5 428.18,-56.5 407.88,-56.5"/>
<polygon fill="#63b8ff" stroke="#63b8ff" points="475.34,-60 485.34,-56.5 475.34,-53 475.34,-60"/>
</a>
</g>
</g>
<!-- Node20 -->
<g id="Node000020" class="node">
<title>Node20</title>
<g id="a_Node000020"><a xlink:href="a01922.html#ac1f7fb20b3a23b388bea24f1b46a33a8" target="_top" xlink:title=" ">
<polygon fill="white" stroke="#666666" points="257,-102.75 151.75,-102.75 151.75,-84.25 257,-84.25 257,-102.75"/>
<text text-anchor="middle" x="204.38" y="-89.25" font-family="Helvetica,sans-Serif" font-size="10.00">arax_data_ref_offset</text>
</a>
</g>
</g>
<!-- Node17&#45;&gt;Node20 -->
<g id="edge21_Node000017_Node000020" class="edge">
<title>Node17&#45;&gt;Node20</title>
<g id="a_edge21_Node000017_Node000020"><a xlink:title=" ">
<path fill="none" stroke="#63b8ff" d="M485.5,-70.61C479.72,-73.26 473.97,-76.24 468.75,-79.5 450.6,-90.85 452.76,-103.89 432.75,-111.5 364.83,-137.32 277.46,-116.88 233.41,-103.23"/>
<polygon fill="#63b8ff" stroke="#63b8ff" points="486.59,-73.95 494.41,-66.8 483.84,-67.51 486.59,-73.95"/>
</a>
</g>
</g>
<!-- Node19&#45;&gt;Node20 -->
<g id="edge20_Node000019_Node000020" class="edge">
<title>Node19&#45;&gt;Node20</title>
<g id="a_edge20_Node000019_Node000020"><a xlink:title=" ">
<path fill="none" stroke="#63b8ff" d="M320,-67.52C297.16,-72.7 270.17,-78.81 248.13,-83.81"/>
<polygon fill="#63b8ff" stroke="#63b8ff" points="320.72,-70.95 329.7,-65.32 319.17,-64.12 320.72,-70.95"/>
</a>
</g>
</g>
<!-- Node21&#45;&gt;Node11 -->
<g id="edge24_Node000021_Node000011" class="edge">
<title>Node21&#45;&gt;Node11</title>
<g id="a_edge24_Node000021_Node000011"><a xlink:title=" ">
<path fill="none" stroke="#63b8ff" d="M1063.44,-101.32C1002.41,-98.08 900.95,-93.5 813.5,-93.5 813.5,-93.5 813.5,-93.5 669.5,-93.5 559.8,-93.5 436.14,-148.21 389.65,-170.86"/>
<polygon fill="#63b8ff" stroke="#63b8ff" points="1063.04,-104.81 1073.21,-101.85 1063.41,-97.82 1063.04,-104.81"/>
</a>
</g>
</g>
<!-- Node21&#45;&gt;Node12 -->
<g id="edge25_Node000021_Node000012" class="edge">
<title>Node21&#45;&gt;Node12</title>
<g id="a_edge25_Node000021_Node000012"><a xlink:title=" ">
<path fill="none" stroke="#63b8ff" d="M1063.31,-116.12C1043.82,-120.24 1022.34,-124.77 1004.59,-128.51"/>
<polygon fill="#63b8ff" stroke="#63b8ff" points="1063.98,-119.56 1073.04,-114.07 1062.53,-112.71 1063.98,-119.56"/>
</a>
</g>
</g>
<!-- Node23 -->
<g id="Node000023" class="node">
<title>Node23</title>
<g id="a_Node000023"><a xlink:href="a02364.html#a1bfeaeb9b81855e640d7a67cc9d92b17" target="_top" xlink:title=" ">
<polygon fill="white" stroke="#666666" points="1173.5,-284.75 1065.25,-284.75 1065.25,-266.25 1173.5,-266.25 1173.5,-284.75"/>
<text text-anchor="middle" x="1119.38" y="-271.25" font-family="Helvetica,sans-Serif" font-size="10.00">async_condition_wait</text>
</a>
</g>
</g>
<!-- Node22&#45;&gt;Node23 -->
<g id="edge27_Node000022_Node000023" class="edge">
<title>Node22&#45;&gt;Node23</title>
<g id="a_edge27_Node000022_Node000023"><a xlink:title=" ">
<path fill="none" stroke="#63b8ff" d="M1197.75,-275.5C1189.67,-275.5 1181.51,-275.5 1173.68,-275.5"/>
<polygon fill="#63b8ff" stroke="#63b8ff" points="1197.58,-279 1207.58,-275.5 1197.58,-272 1197.58,-279"/>
</a>
</g>
</g>
<!-- Node23&#45;&gt;Node13 -->
<g id="edge28_Node000023_Node000013" class="edge">
<title>Node23&#45;&gt;Node13</title>
<g id="a_edge28_Node000023_Node000013"><a xlink:title=" ">
<path fill="none" stroke="#63b8ff" d="M1087.07,-261.23C1024.9,-232.88 887.3,-170.15 834.6,-146.12"/>
<polygon fill="#63b8ff" stroke="#63b8ff" points="1085.49,-264.35 1096.04,-265.32 1088.4,-257.98 1085.49,-264.35"/>
</a>
</g>
</g>
<!-- Node24 -->
<g id="Node000024" class="node">
<title>Node24</title>
<g id="a_Node000024"><a xlink:href="a01916.html#a415e79d6e82e45f24bcd1742c146a0da" target="_top" xlink:title=" ">
<polygon fill="white" stroke="#666666" points="1029.25,-263.75 902.25,-263.75 902.25,-245.25 1029.25,-245.25 1029.25,-263.75"/>
<text text-anchor="middle" x="965.75" y="-250.25" font-family="Helvetica,sans-Serif" font-size="10.00">arax_accel_wait_for_task</text>
</a>
</g>
</g>
<!-- Node23&#45;&gt;Node24 -->
<g id="edge29_Node000023_Node000024" class="edge">
<title>Node23&#45;&gt;Node24</title>
<g id="a_edge29_Node000023_Node000024"><a xlink:title=" ">
<path fill="none" stroke="#63b8ff" d="M1053.75,-266.55C1045.74,-265.44 1037.56,-264.31 1029.58,-263.2"/>
<polygon fill="#63b8ff" stroke="#63b8ff" points="1053.03,-269.98 1063.42,-267.89 1053.99,-263.05 1053.03,-269.98"/>
</a>
</g>
</g>
<!-- Node25 -->
<g id="Node000025" class="node">
<title>Node25</title>
<g id="a_Node000025"><a xlink:href="a01928.html#a8ff14a859f9b7a34676c2fcdb762386b" target="_top" xlink:title=" ">
<polygon fill="white" stroke="#666666" points="1022.12,-311 909.38,-311 909.38,-282 1022.12,-282 1022.12,-311"/>
<text text-anchor="start" x="917.38" y="-297.5" font-family="Helvetica,sans-Serif" font-size="10.00">arax_pipe_get_orphan</text>
<text text-anchor="middle" x="965.75" y="-287" font-family="Helvetica,sans-Serif" font-size="10.00">_vaccel</text>
</a>
</g>
</g>
<!-- Node23&#45;&gt;Node25 -->
<g id="edge30_Node000023_Node000025" class="edge">
<title>Node23&#45;&gt;Node25</title>
<g id="a_edge30_Node000023_Node000025"><a xlink:title=" ">
<path fill="none" stroke="#63b8ff" d="M1053.79,-284.45C1043.4,-285.88 1032.71,-287.36 1022.55,-288.77"/>
<polygon fill="#63b8ff" stroke="#63b8ff" points="1053.99,-287.95 1063.42,-283.11 1053.03,-281.02 1053.99,-287.95"/>
</a>
</g>
</g>
<!-- Node26 -->
<g id="Node000026" class="node">
<title>Node26</title>
<g id="a_Node000026"><a xlink:href="a01940.html#a63b80783cfb3106ec4169ce082f153c0" target="_top" xlink:title=" ">
<polygon fill="white" stroke="#666666" points="1022.88,-347.75 908.62,-347.75 908.62,-329.25 1022.88,-329.25 1022.88,-347.75"/>
<text text-anchor="middle" x="965.75" y="-334.25" font-family="Helvetica,sans-Serif" font-size="10.00">arax_throttle_size_dec</text>
</a>
</g>
</g>
<!-- Node23&#45;&gt;Node26 -->
<g id="edge31_Node000023_Node000026" class="edge">
<title>Node23&#45;&gt;Node26</title>
<g id="a_edge31_Node000023_Node000026"><a xlink:title=" ">
<path fill="none" stroke="#63b8ff" d="M1091.74,-290.6C1074.33,-300.05 1050.9,-312 1029.25,-320.5 1021.47,-323.55 1012.97,-326.34 1004.81,-328.77"/>
<polygon fill="#63b8ff" stroke="#63b8ff" points="1093.33,-293.72 1100.4,-285.83 1089.95,-287.59 1093.33,-293.72"/>
</a>
</g>
</g>
<!-- Node26&#45;&gt;Node26 -->
<g id="edge49_Node000026_Node000026" class="edge">
<title>Node26&#45;&gt;Node26</title>
<g id="a_edge49_Node000026_Node000026"><a xlink:title=" ">
<path fill="none" stroke="#63b8ff" d="M993.33,-358.78C990.27,-362.84 981.07,-365.75 965.75,-365.75 938.51,-365.75 930.64,-356.57 942.13,-348"/>
<polygon fill="#63b8ff" stroke="#63b8ff" points="996.63,-357.6 989.89,-349.42 990.06,-360.01 996.63,-357.6"/>
</a>
</g>
</g>
<!-- Node27 -->
<g id="Node000027" class="node">
<title>Node27</title>
<g id="a_Node000027"><a xlink:href="a01916.html#a9c8e53aad4b86498a6b709c35c156fc3" target="_top" xlink:title=" ">
<polygon fill="white" stroke="#666666" points="866.25,-356.75 758.75,-356.75 758.75,-338.25 866.25,-338.25 866.25,-356.75"/>
<text text-anchor="middle" x="812.5" y="-343.25" font-family="Helvetica,sans-Serif" font-size="10.00">arax_accel_size_dec</text>
</a>
</g>
</g>
<!-- Node26&#45;&gt;Node27 -->
<g id="edge32_Node000026_Node000027" class="edge">
<title>Node26&#45;&gt;Node27</title>
<g id="a_edge32_Node000026_Node000027"><a xlink:title=" ">
<path fill="none" stroke="#63b8ff" d="M896.97,-342.53C886.7,-343.14 876.25,-343.77 866.36,-344.35"/>
<polygon fill="#63b8ff" stroke="#63b8ff" points="897.14,-346.03 906.92,-341.94 896.73,-339.04 897.14,-346.03"/>
</a>
</g>
</g>
<!-- Node28 -->
<g id="Node000028" class="node">
<title>Node28</title>
<g id="a_Node000028"><a xlink:href="a01928.html#a6cc54ee40009c61b5f6526f5edff004f" target="_top" xlink:title=" ">
<polygon fill="white" stroke="#666666" points="863.62,-300.75 761.38,-300.75 761.38,-282.25 863.62,-282.25 863.62,-300.75"/>
<text text-anchor="middle" x="812.5" y="-287.25" font-family="Helvetica,sans-Serif" font-size="10.00">arax_pipe_size_dec</text>
</a>
</g>
</g>
<!-- Node26&#45;&gt;Node28 -->
<g id="edge35_Node000026_Node000028" class="edge">
<title>Node26&#45;&gt;Node28</title>
<g id="a_edge35_Node000026_Node000028"><a xlink:title=" ">
<path fill="none" stroke="#63b8ff" d="M919.36,-325.63C913.59,-323.94 907.78,-322.2 902.25,-320.5 882.11,-314.31 859.54,-306.93 842.2,-301.16"/>
<polygon fill="#63b8ff" stroke="#63b8ff" points="918.27,-328.96 928.85,-328.39 920.22,-322.24 918.27,-328.96"/>
</a>
</g>
</g>
<!-- Node27&#45;&gt;Node4 -->
<g id="edge34_Node000027_Node000004" class="edge">
<title>Node27&#45;&gt;Node4</title>
<g id="a_edge34_Node000027_Node000004"><a xlink:title=" ">
<path fill="none" stroke="#63b8ff" d="M747.15,-349.41C625.17,-353.03 362.82,-360.82 254.1,-364.05"/>
<polygon fill="#63b8ff" stroke="#63b8ff" points="747.1,-352.91 756.99,-349.12 746.89,-345.92 747.1,-352.91"/>
</a>
</g>
</g>
<!-- Node27&#45;&gt;Node27 -->
<g id="edge33_Node000027_Node000027" class="edge">
<title>Node27&#45;&gt;Node27</title>
<g id="a_edge33_Node000027_Node000027"><a xlink:title=" ">
<path fill="none" stroke="#63b8ff" d="M838.06,-367.78C835.22,-371.84 826.7,-374.75 812.5,-374.75 787.26,-374.75 779.97,-365.57 790.61,-357"/>
<polygon fill="#63b8ff" stroke="#63b8ff" points="841.41,-366.77 834.87,-358.43 834.78,-369.02 841.41,-366.77"/>
</a>
</g>
</g>
<!-- Node28&#45;&gt;Node28 -->
<g id="edge48_Node000028_Node000028" class="edge">
<title>Node28&#45;&gt;Node28</title>
<g id="a_edge48_Node000028_Node000028"><a xlink:title=" ">
<path fill="none" stroke="#63b8ff" d="M838.06,-311.78C835.22,-315.84 826.7,-318.75 812.5,-318.75 787.26,-318.75 779.97,-309.57 790.61,-301"/>
<polygon fill="#63b8ff" stroke="#63b8ff" points="841.41,-310.77 834.87,-302.43 834.78,-313.02 841.41,-310.77"/>
</a>
</g>
</g>
<!-- Node29 -->
<g id="Node000029" class="node">
<title>Node29</title>
<g id="a_Node000029"><a xlink:href="a01925.html#a402bbd6fa197c2c48d527325e5e2cf5b" target="_top" xlink:title=" ">
<polygon fill="white" stroke="#666666" points="722.75,-300.75 618.25,-300.75 618.25,-282.25 722.75,-282.25 722.75,-300.75"/>
<text text-anchor="middle" x="670.5" y="-287.25" font-family="Helvetica,sans-Serif" font-size="10.00">arax_object_register</text>
</a>
</g>
</g>
<!-- Node28&#45;&gt;Node29 -->
<g id="edge36_Node000028_Node000029" class="edge">
<title>Node28&#45;&gt;Node29</title>
<g id="a_edge36_Node000028_Node000029"><a xlink:title=" ">
<path fill="none" stroke="#63b8ff" d="M749.45,-291.5C740.58,-291.5 731.54,-291.5 722.91,-291.5"/>
<polygon fill="#63b8ff" stroke="#63b8ff" points="749.44,-295 759.44,-291.5 749.44,-288 749.44,-295"/>
</a>
</g>
</g>
<!-- Node29&#45;&gt;Node2 -->
<g id="edge43_Node000029_Node000002" class="edge">
<title>Node29&#45;&gt;Node2</title>
<g id="a_edge43_Node000029_Node000002"><a xlink:title=" ">
<path fill="none" stroke="#63b8ff" d="M648.39,-308.04C618.02,-331.82 563.01,-374.9 538.66,-393.98"/>
<polygon fill="#63b8ff" stroke="#63b8ff" points="650.4,-310.9 656.12,-301.98 646.09,-305.39 650.4,-310.9"/>
</a>
</g>
</g>
<!-- Node29&#45;&gt;Node11 -->
<g id="edge37_Node000029_Node000011" class="edge">
<title>Node29&#45;&gt;Node11</title>
<g id="a_edge37_Node000029_Node000011"><a xlink:title=" ">
<path fill="none" stroke="#63b8ff" d="M647.81,-275.19C630.75,-263.05 605.99,-246.84 582.25,-236.5 525.1,-211.62 454.32,-195.64 410.83,-187.36"/>
<polygon fill="#63b8ff" stroke="#63b8ff" points="645.52,-277.86 655.67,-280.91 649.64,-272.2 645.52,-277.86"/>
</a>
</g>
</g>
<!-- Node30 -->
<g id="Node000030" class="node">
<title>Node30</title>
<g id="a_Node000030"><a xlink:href="a01922.html#a526989df37e605824d846b7ba54b43ea" target="_top" xlink:title=" ">
<polygon fill="white" stroke="#666666" points="582.25,-337.75 468.75,-337.75 468.75,-319.25 582.25,-319.25 582.25,-337.75"/>
<text text-anchor="middle" x="525.5" y="-324.25" font-family="Helvetica,sans-Serif" font-size="10.00">arax_data_init_aligned</text>
</a>
</g>
</g>
<!-- Node29&#45;&gt;Node30 -->
<g id="edge38_Node000029_Node000030" class="edge">
<title>Node29&#45;&gt;Node30</title>
<g id="a_edge38_Node000029_Node000030"><a xlink:title=" ">
<path fill="none" stroke="#63b8ff" d="M620.95,-304.06C602.28,-308.89 581.27,-314.33 563.82,-318.84"/>
<polygon fill="#63b8ff" stroke="#63b8ff" points="621.66,-307.49 630.46,-301.6 619.91,-300.72 621.66,-307.49"/>
</a>
</g>
</g>
<!-- Node33 -->
<g id="Node000033" class="node">
<title>Node33</title>
<g id="a_Node000033"><a xlink:href="a01931.html#a86ac572ea8f5f613129192c47d598818" target="_top" xlink:title=" ">
<polygon fill="white" stroke="#666666" points="564.25,-300.75 486.75,-300.75 486.75,-282.25 564.25,-282.25 564.25,-300.75"/>
<text text-anchor="middle" x="525.5" y="-287.25" font-family="Helvetica,sans-Serif" font-size="10.00">arax_proc_init</text>
</a>
</g>
</g>
<!-- Node29&#45;&gt;Node33 -->
<g id="edge41_Node000029_Node000033" class="edge">
<title>Node29&#45;&gt;Node33</title>
<g id="a_edge41_Node000029_Node000033"><a xlink:title=" ">
<path fill="none" stroke="#63b8ff" d="M606.55,-291.5C592.25,-291.5 577.48,-291.5 564.59,-291.5"/>
<polygon fill="#63b8ff" stroke="#63b8ff" points="606.36,-295 616.36,-291.5 606.36,-288 606.36,-295"/>
</a>
</g>
</g>
<!-- Node35 -->
<g id="Node000035" class="node">
<title>Node35</title>
<g id="a_Node000035"><a xlink:href="a01943.html#a83ddb422946cf774c687c1ab63dcda15" target="_top" xlink:title=" ">
<polygon fill="white" stroke="#666666" points="568.75,-263.75 482.25,-263.75 482.25,-245.25 568.75,-245.25 568.75,-263.75"/>
<text text-anchor="middle" x="525.5" y="-250.25" font-family="Helvetica,sans-Serif" font-size="10.00">arax_vaccel_init</text>
</a>
</g>
</g>
<!-- Node29&#45;&gt;Node35 -->
<g id="edge44_Node000029_Node000035" class="edge">
<title>Node29&#45;&gt;Node35</title>
<g id="a_edge44_Node000029_Node000035"><a xlink:title=" ">
<path fill="none" stroke="#63b8ff" d="M620.95,-278.94C602.28,-274.11 581.27,-268.67 563.82,-264.16"/>
<polygon fill="#63b8ff" stroke="#63b8ff" points="619.91,-282.28 630.46,-281.4 621.66,-275.51 619.91,-282.28"/>
</a>
</g>
</g>
<!-- Node31 -->
<g id="Node000031" class="node">
<title>Node31</title>
<g id="a_Node000031"><a xlink:href="a01922.html#aeefe449d4a278e9fc4b9c5f7e31000a1" target="_top" xlink:title=" ">
<polygon fill="white" stroke="#666666" points="408.38,-337.75 330.88,-337.75 330.88,-319.25 408.38,-319.25 408.38,-337.75"/>
<text text-anchor="middle" x="369.62" y="-324.25" font-family="Helvetica,sans-Serif" font-size="10.00">arax_data_init</text>
</a>
</g>
</g>
<!-- Node30&#45;&gt;Node31 -->
<g id="edge39_Node000030_Node000031" class="edge">
<title>Node30&#45;&gt;Node31</title>
<g id="a_edge39_Node000030_Node000031"><a xlink:title=" ">
<path fill="none" stroke="#63b8ff" d="M457.12,-328.5C440.48,-328.5 423.22,-328.5 408.54,-328.5"/>
<polygon fill="#63b8ff" stroke="#63b8ff" points="457,-332 467,-328.5 457,-325 457,-332"/>
</a>
</g>
</g>
<!-- Node32 -->
<g id="Node000032" class="node">
<title>Node32</title>
<g id="a_Node000032"><a xlink:href="a02190.html#ga9260ad2dd766aec3274c518e2e312b1f" target="_top" xlink:title=" ">
<polygon fill="white" stroke="#666666" points="249.12,-332.75 159.62,-332.75 159.62,-314.25 249.12,-314.25 249.12,-332.75"/>
<text text-anchor="middle" x="204.38" y="-319.25" font-family="Helvetica,sans-Serif" font-size="10.00">ARAX_BUFFER</text>
</a>
</g>
</g>
<!-- Node31&#45;&gt;Node32 -->
<g id="edge40_Node000031_Node000032" class="edge">
<title>Node31&#45;&gt;Node32</title>
<g id="a_edge40_Node000031_Node000032"><a xlink:title=" ">
<path fill="none" stroke="#63b8ff" d="M319.5,-327C297.2,-326.31 271.04,-325.51 249.39,-324.85"/>
<polygon fill="#63b8ff" stroke="#63b8ff" points="319.15,-330.49 329.25,-327.29 319.36,-323.49 319.15,-330.49"/>
</a>
</g>
</g>
<!-- Node34 -->
<g id="Node000034" class="node">
<title>Node34</title>
<g id="a_Node000034"><a xlink:href="a02188.html#gafad2dafb4a231390f02b7c866295b7d9" target="_top" xlink:title=" ">
<polygon fill="white" stroke="#666666" points="418.12,-300.75 321.12,-300.75 321.12,-282.25 418.12,-282.25 418.12,-300.75"/>
<text text-anchor="middle" x="369.62" y="-287.25" font-family="Helvetica,sans-Serif" font-size="10.00">arax_proc_register</text>
</a>
</g>
</g>
<!-- Node33&#45;&gt;Node34 -->
<g id="edge42_Node000033_Node000034" class="edge">
<title>Node33&#45;&gt;Node34</title>
<g id="a_edge42_Node000033_Node000034"><a xlink:title=" ">
<path fill="none" stroke="#63b8ff" d="M475.2,-291.5C457.02,-291.5 436.47,-291.5 418.42,-291.5"/>
<polygon fill="#63b8ff" stroke="#63b8ff" points="474.95,-295 484.95,-291.5 474.95,-288 474.95,-295"/>
</a>
</g>
</g>
<!-- Node35&#45;&gt;Node11 -->
<g id="edge47_Node000035_Node000011" class="edge">
<title>Node35&#45;&gt;Node11</title>
<g id="a_edge47_Node000035_Node000011"><a xlink:title=" ">
<path fill="none" stroke="#63b8ff" d="M485.5,-240.39C479.72,-237.74 473.97,-234.76 468.75,-231.5 450.6,-220.15 451.42,-209.98 432.75,-199.5 426.06,-195.74 418.55,-192.64 411.11,-190.11"/>
<polygon fill="#63b8ff" stroke="#63b8ff" points="483.84,-243.49 494.41,-244.2 486.59,-237.05 483.84,-243.49"/>
</a>
</g>
</g>
<!-- Node36 -->
<g id="Node000036" class="node">
<title>Node36</title>
<g id="a_Node000036"><a xlink:href="a02187.html#gaf8a10ab4e51e59c464ab3ab473e4a0f7" target="_top" xlink:title=" ">
<polygon fill="white" stroke="#666666" points="432.75,-226.75 306.5,-226.75 306.5,-208.25 432.75,-208.25 432.75,-226.75"/>
<text text-anchor="middle" x="369.62" y="-213.25" font-family="Helvetica,sans-Serif" font-size="10.00">arax_accel_acquire_phys</text>
</a>
</g>
</g>
<!-- Node35&#45;&gt;Node36 -->
<g id="edge45_Node000035_Node000036" class="edge">
<title>Node35&#45;&gt;Node36</title>
<g id="a_edge45_Node000035_Node000036"><a xlink:title=" ">
<path fill="none" stroke="#63b8ff" d="M473.15,-242.15C452.94,-237.29 430.06,-231.79 411.05,-227.22"/>
<polygon fill="#63b8ff" stroke="#63b8ff" points="472.06,-245.49 482.6,-244.42 473.69,-238.68 472.06,-245.49"/>
</a>
</g>
</g>
<!-- Node37 -->
<g id="Node000037" class="node">
<title>Node37</title>
<g id="a_Node000037"><a xlink:href="a02187.html#ga008252bb9afc2990fa2c5f4b980c9f27" target="_top" xlink:title=" ">
<polygon fill="white" stroke="#666666" points="432,-263.75 307.25,-263.75 307.25,-245.25 432,-245.25 432,-263.75"/>
<text text-anchor="middle" x="369.62" y="-250.25" font-family="Helvetica,sans-Serif" font-size="10.00">arax_accel_acquire_type</text>
</a>
</g>
</g>
<!-- Node35&#45;&gt;Node37 -->
<g id="edge46_Node000035_Node000037" class="edge">
<title>Node35&#45;&gt;Node37</title>
<g id="a_edge46_Node000035_Node000037"><a xlink:title=" ">
<path fill="none" stroke="#63b8ff" d="M470.89,-254.5C458.41,-254.5 445.03,-254.5 432.24,-254.5"/>
<polygon fill="#63b8ff" stroke="#63b8ff" points="470.53,-258 480.53,-254.5 470.53,-251 470.53,-258"/>
</a>
</g>
</g>
</g>
</svg>
