<?xml version="1.0" encoding="UTF-8" standalone="no"?>
<!DOCTYPE svg PUBLIC "-//W3C//DTD SVG 1.1//EN"
 "http://www.w3.org/Graphics/SVG/1.1/DTD/svg11.dtd">
<!-- Generated by graphviz version 8.0.5 (0)
 -->
<!-- Title: dlmalloc_trim Pages: 1 -->
<svg width="338pt" height="138pt"
 viewBox="0.00 0.00 338.00 137.50" xmlns="http://www.w3.org/2000/svg" xmlns:xlink="http://www.w3.org/1999/xlink">
<g id="graph0" class="graph" transform="scale(1 1) rotate(0) translate(4 133.5)">
<title>dlmalloc_trim</title>
<!-- Node1 -->
<g id="Node000001" class="node">
<title>Node1</title>
<g id="a_Node000001"><a xlink:title=" ">
<polygon fill="#999999" stroke="#666666" points="73.75,-73.5 0,-73.5 0,-55 73.75,-55 73.75,-73.5"/>
<text text-anchor="middle" x="36.88" y="-60" font-family="Helvetica,sans-Serif" font-size="10.00">dlmalloc_trim</text>
</a>
</g>
</g>
<!-- Node2 -->
<g id="Node000002" class="node">
<title>Node2</title>
<g id="a_Node000002"><a xlink:href="a01889.html#a3de256edbbbbd4018cd3563f55ee50ab" target="_top" xlink:title=" ">
<polygon fill="white" stroke="#666666" points="161.75,-73.5 109.75,-73.5 109.75,-55 161.75,-55 161.75,-73.5"/>
<text text-anchor="middle" x="135.75" y="-60" font-family="Helvetica,sans-Serif" font-size="10.00">sys_trim</text>
</a>
</g>
</g>
<!-- Node1&#45;&gt;Node2 -->
<g id="edge1_Node000001_Node000002" class="edge">
<title>Node1&#45;&gt;Node2</title>
<g id="a_edge1_Node000001_Node000002"><a xlink:title=" ">
<path fill="none" stroke="#63b8ff" d="M74.22,-64.25C82.18,-64.25 90.6,-64.25 98.55,-64.25"/>
<polygon fill="#63b8ff" stroke="#63b8ff" points="98.38,-67.75 108.38,-64.25 98.38,-60.75 98.38,-67.75"/>
</a>
</g>
</g>
<!-- Node3 -->
<g id="Node000003" class="node">
<title>Node3</title>
<g id="a_Node000003"><a xlink:href="a01889.html#ab22b9d57eca306724cb8c4f928d0e824" target="_top" xlink:title=" ">
<polygon fill="white" stroke="#666666" points="311.25,-129.5 216.5,-129.5 216.5,-111 311.25,-111 311.25,-129.5"/>
<text text-anchor="middle" x="263.88" y="-116" font-family="Helvetica,sans-Serif" font-size="10.00">has_segment_link</text>
</a>
</g>
</g>
<!-- Node2&#45;&gt;Node3 -->
<g id="edge2_Node000002_Node000003" class="edge">
<title>Node2&#45;&gt;Node3</title>
<g id="a_edge2_Node000002_Node000003"><a xlink:title=" ">
<path fill="none" stroke="#63b8ff" d="M150.24,-73.85C162.24,-82.04 180.52,-93.67 197.75,-101.25 202.68,-103.42 207.92,-105.42 213.21,-107.24"/>
<polygon fill="#63b8ff" stroke="#63b8ff" points="211.78,-110.78 222.37,-110.52 213.93,-104.12 211.78,-110.78"/>
</a>
</g>
</g>
<!-- Node4 -->
<g id="Node000004" class="node">
<title>Node4</title>
<g id="a_Node000004"><a xlink:href="a01889.html#a09ce4644252dfd54eb489e77d0adfd20" target="_top" xlink:title=" ">
<polygon fill="white" stroke="#666666" points="287.62,-92.5 240.12,-92.5 240.12,-74 287.62,-74 287.62,-92.5"/>
<text text-anchor="middle" x="263.88" y="-79" font-family="Helvetica,sans-Serif" font-size="10.00">init_top</text>
</a>
</g>
</g>
<!-- Node2&#45;&gt;Node4 -->
<g id="edge3_Node000002_Node000004" class="edge">
<title>Node2&#45;&gt;Node4</title>
<g id="a_edge3_Node000002_Node000004"><a xlink:title=" ">
<path fill="none" stroke="#63b8ff" d="M161.97,-68.05C181.23,-70.95 207.95,-74.98 229.06,-78.16"/>
<polygon fill="#63b8ff" stroke="#63b8ff" points="228.41,-81.75 238.82,-79.78 229.45,-74.83 228.41,-81.75"/>
</a>
</g>
</g>
<!-- Node5 -->
<g id="Node000005" class="node">
<title>Node5</title>
<g id="a_Node000005"><a xlink:href="a01889.html#a949111e5f127c26e3b9f11bf26c8038a" target="_top" xlink:title=" ">
<polygon fill="white" stroke="#666666" points="330,-55.5 197.75,-55.5 197.75,-37 330,-37 330,-55.5"/>
<text text-anchor="middle" x="263.88" y="-42" font-family="Helvetica,sans-Serif" font-size="10.00">release_unused_segments</text>
</a>
</g>
</g>
<!-- Node2&#45;&gt;Node5 -->
<g id="edge4_Node000002_Node000005" class="edge">
<title>Node2&#45;&gt;Node5</title>
<g id="a_edge4_Node000002_Node000005"><a xlink:title=" ">
<path fill="none" stroke="#63b8ff" d="M161.97,-60.65C169.33,-59.6 177.78,-58.39 186.59,-57.14"/>
<polygon fill="#63b8ff" stroke="#63b8ff" points="187.06,-60.46 196.47,-55.58 186.07,-53.53 187.06,-60.46"/>
</a>
</g>
</g>
<!-- Node6 -->
<g id="Node000006" class="node">
<title>Node6</title>
<g id="a_Node000006"><a xlink:href="a01889.html#adc1656892fa59cbd2e3b60a2608dfefc" target="_top" xlink:title=" ">
<polygon fill="white" stroke="#666666" points="308.62,-18.5 219.12,-18.5 219.12,0 308.62,0 308.62,-18.5"/>
<text text-anchor="middle" x="263.88" y="-5" font-family="Helvetica,sans-Serif" font-size="10.00">segment_holding</text>
</a>
</g>
</g>
<!-- Node2&#45;&gt;Node6 -->
<g id="edge5_Node000002_Node000006" class="edge">
<title>Node2&#45;&gt;Node6</title>
<g id="a_edge5_Node000002_Node000006"><a xlink:title=" ">
<path fill="none" stroke="#63b8ff" d="M150.76,-54.61C162.79,-46.68 180.82,-35.58 197.75,-28.25 202.76,-26.08 208.08,-24.08 213.45,-22.25"/>
<polygon fill="#63b8ff" stroke="#63b8ff" points="214.29,-25.33 222.74,-18.95 212.15,-18.67 214.29,-25.33"/>
</a>
</g>
</g>
</g>
</svg>
