<?xml version="1.0" encoding="UTF-8" standalone="no"?>
<!DOCTYPE svg PUBLIC "-//W3C//DTD SVG 1.1//EN"
 "http://www.w3.org/Graphics/SVG/1.1/DTD/svg11.dtd">
<!-- Generated by graphviz version 8.0.5 (0)
 -->
<!-- Title: malloc.h Pages: 1 -->
<svg width="110pt" height="81pt"
 viewBox="0.00 0.00 110.25 81.00" xmlns="http://www.w3.org/2000/svg" xmlns:xlink="http://www.w3.org/1999/xlink">
<g id="graph0" class="graph" transform="scale(1 1) rotate(0) translate(4 77)">
<title>malloc.h</title>
<!-- Node1 -->
<g id="Node000001" class="node">
<title>Node1</title>
<g id="a_Node000001"><a xlink:title=" ">
<polygon fill="#999999" stroke="#666666" points="78.62,-73 25.88,-73 25.88,-54.5 78.62,-54.5 78.62,-73"/>
<text text-anchor="middle" x="52.25" y="-59.5" font-family="Helvetica,sans-Serif" font-size="10.00">malloc.h</text>
</a>
</g>
</g>
<!-- Node2 -->
<g id="Node000002" class="node">
<title>Node2</title>
<g id="a_Node000002"><a xlink:href="a02340.html" target="_top" xlink:title=" ">
<polygon fill="white" stroke="#666666" points="44.5,-18.5 0,-18.5 0,0 44.5,0 44.5,-18.5"/>
<text text-anchor="middle" x="22.25" y="-5" font-family="Helvetica,sans-Serif" font-size="10.00">alloc.c</text>
</a>
</g>
</g>
<!-- Node1&#45;&gt;Node2 -->
<g id="edge1_Node000001_Node000002" class="edge">
<title>Node1&#45;&gt;Node2</title>
<g id="a_edge1_Node000001_Node000002"><a xlink:title=" ">
<path fill="none" stroke="#63b8ff" d="M41.91,-44.66C36.9,-35.88 31.1,-25.74 27.11,-18.76"/>
<polygon fill="#63b8ff" stroke="#63b8ff" points="39.3,-46.13 47.3,-53.08 45.37,-42.66 39.3,-46.13"/>
</a>
</g>
</g>
<!-- Node3 -->
<g id="Node000003" class="node">
<title>Node3</title>
<g id="a_Node000003"><a xlink:href="a01895.html" target="_top" xlink:title=" ">
<polygon fill="white" stroke="#666666" points="102.25,-18.5 62.25,-18.5 62.25,0 102.25,0 102.25,-18.5"/>
<text text-anchor="middle" x="82.25" y="-5" font-family="Helvetica,sans-Serif" font-size="10.00">test.c</text>
</a>
</g>
</g>
<!-- Node1&#45;&gt;Node3 -->
<g id="edge2_Node000001_Node000003" class="edge">
<title>Node1&#45;&gt;Node3</title>
<g id="a_edge2_Node000001_Node000003"><a xlink:title=" ">
<path fill="none" stroke="#63b8ff" d="M62.59,-44.66C67.6,-35.88 73.4,-25.74 77.39,-18.76"/>
<polygon fill="#63b8ff" stroke="#63b8ff" points="59.13,-42.66 57.2,-53.08 65.2,-46.13 59.13,-42.66"/>
</a>
</g>
</g>
</g>
</svg>
