<?xml version="1.0" encoding="UTF-8" standalone="no"?>
<!DOCTYPE svg PUBLIC "-//W3C//DTD SVG 1.1//EN"
 "http://www.w3.org/Graphics/SVG/1.1/DTD/svg11.dtd">
<!-- Generated by graphviz version 8.0.5 (0)
 -->
<!-- Title: sys_trim Pages: 1 -->
<svg width="288pt" height="101pt"
 viewBox="0.00 0.00 287.75 100.50" xmlns="http://www.w3.org/2000/svg" xmlns:xlink="http://www.w3.org/1999/xlink">
<g id="graph0" class="graph" transform="scale(1 1) rotate(0) translate(4 96.5)">
<title>sys_trim</title>
<!-- Node1 -->
<g id="Node000001" class="node">
<title>Node1</title>
<g id="a_Node000001"><a xlink:title=" ">
<polygon fill="#999999" stroke="#666666" points="279.75,-55.5 227.75,-55.5 227.75,-37 279.75,-37 279.75,-55.5"/>
<text text-anchor="middle" x="253.75" y="-42" font-family="Helvetica,sans-Serif" font-size="10.00">sys_trim</text>
</a>
</g>
</g>
<!-- Node2 -->
<g id="Node000002" class="node">
<title>Node2</title>
<g id="a_Node000002"><a xlink:href="a01889.html#a1b80f9ee2d497077e4741029c8e23700" target="_top" xlink:title=" ">
<polygon fill="white" stroke="#666666" points="165.5,-92.5 125.5,-92.5 125.5,-74 165.5,-74 165.5,-92.5"/>
<text text-anchor="middle" x="145.5" y="-79" font-family="Helvetica,sans-Serif" font-size="10.00">dlfree</text>
</a>
</g>
</g>
<!-- Node1&#45;&gt;Node2 -->
<g id="edge1_Node000001_Node000002" class="edge">
<title>Node1&#45;&gt;Node2</title>
<g id="a_edge1_Node000001_Node000002"><a xlink:title=" ">
<path fill="none" stroke="#63b8ff" d="M217.05,-58.68C199.9,-64.65 180.03,-71.57 165.75,-76.54"/>
<polygon fill="#63b8ff" stroke="#63b8ff" points="218.01,-61.71 226.3,-55.11 215.71,-55.1 218.01,-61.71"/>
</a>
</g>
</g>
<!-- Node3 -->
<g id="Node000003" class="node">
<title>Node3</title>
<g id="a_Node000003"><a xlink:href="a01889.html#a0cb0780a1d244f7541f85d2ece3999fc" target="_top" xlink:title=" ">
<polygon fill="white" stroke="#666666" points="182.38,-55.5 108.62,-55.5 108.62,-37 182.38,-37 182.38,-55.5"/>
<text text-anchor="middle" x="145.5" y="-42" font-family="Helvetica,sans-Serif" font-size="10.00">dlmalloc_trim</text>
</a>
</g>
</g>
<!-- Node1&#45;&gt;Node3 -->
<g id="edge2_Node000001_Node000003" class="edge">
<title>Node1&#45;&gt;Node3</title>
<g id="a_edge2_Node000001_Node000003"><a xlink:title=" ">
<path fill="none" stroke="#63b8ff" d="M216.39,-46.25C205.47,-46.25 193.49,-46.25 182.59,-46.25"/>
<polygon fill="#63b8ff" stroke="#63b8ff" points="216.3,-49.75 226.3,-46.25 216.3,-42.75 216.3,-49.75"/>
</a>
</g>
</g>
<!-- Node4 -->
<g id="Node000004" class="node">
<title>Node4</title>
<g id="a_Node000004"><a xlink:href="a01889.html#aa2888b3de06df35c3b18b31b1e15fe8c" target="_top" xlink:title=" ">
<polygon fill="white" stroke="#666666" points="191.75,-18.5 99.25,-18.5 99.25,0 191.75,0 191.75,-18.5"/>
<text text-anchor="middle" x="145.5" y="-5" font-family="Helvetica,sans-Serif" font-size="10.00">internal_bulk_free</text>
</a>
</g>
</g>
<!-- Node1&#45;&gt;Node4 -->
<g id="edge3_Node000001_Node000004" class="edge">
<title>Node1&#45;&gt;Node4</title>
<g id="a_edge3_Node000001_Node000004"><a xlink:title=" ">
<path fill="none" stroke="#63b8ff" d="M217.07,-33.83C203.15,-28.98 187.42,-23.5 174.35,-18.95"/>
<polygon fill="#63b8ff" stroke="#63b8ff" points="215.71,-37.4 226.3,-37.39 218.01,-30.79 215.71,-37.4"/>
</a>
</g>
</g>
<!-- Node5 -->
<g id="Node000005" class="node">
<title>Node5</title>
<g id="a_Node000005"><a xlink:href="a01889.html#a8e02204694aaa24ccc23b1cd2c403b7e" target="_top" xlink:title=" ">
<polygon fill="white" stroke="#666666" points="63.25,-18.5 0,-18.5 0,0 63.25,0 63.25,-18.5"/>
<text text-anchor="middle" x="31.62" y="-5" font-family="Helvetica,sans-Serif" font-size="10.00">dlbulk_free</text>
</a>
</g>
</g>
<!-- Node4&#45;&gt;Node5 -->
<g id="edge4_Node000004_Node000005" class="edge">
<title>Node4&#45;&gt;Node5</title>
<g id="a_edge4_Node000004_Node000005"><a xlink:title=" ">
<path fill="none" stroke="#63b8ff" d="M88.04,-9.25C79.67,-9.25 71.31,-9.25 63.71,-9.25"/>
<polygon fill="#63b8ff" stroke="#63b8ff" points="88,-12.75 98,-9.25 88,-5.75 88,-12.75"/>
</a>
</g>
</g>
</g>
</svg>
