<?xml version="1.0" encoding="UTF-8" standalone="no"?>
<!DOCTYPE svg PUBLIC "-//W3C//DTD SVG 1.1//EN"
 "http://www.w3.org/Graphics/SVG/1.1/DTD/svg11.dtd">
<!-- Generated by graphviz version 8.0.5 (0)
 -->
<!-- Title: malloc.c Pages: 1 -->
<svg width="661pt" height="299pt"
 viewBox="0.00 0.00 661.00 299.00" xmlns="http://www.w3.org/2000/svg" xmlns:xlink="http://www.w3.org/1999/xlink">
<g id="graph0" class="graph" transform="scale(1 1) rotate(0) translate(4 295)">
<title>malloc.c</title>
<!-- Node1 -->
<g id="Node000001" class="node">
<title>Node1</title>
<g id="a_Node000001"><a xlink:title=" ">
<polygon fill="#999999" stroke="#666666" points="299.12,-291 246.38,-291 246.38,-272.5 299.12,-272.5 299.12,-291"/>
<text text-anchor="middle" x="272.75" y="-277.5" font-family="Helvetica,sans-Serif" font-size="10.00">malloc.c</text>
</a>
</g>
</g>
<!-- Node2 -->
<g id="Node000002" class="node">
<title>Node2</title>
<g id="a_Node000002"><a xlink:title=" ">
<polygon fill="#e0e0e0" stroke="#999999" points="65.5,-236.5 0,-236.5 0,-218 65.5,-218 65.5,-236.5"/>
<text text-anchor="middle" x="32.75" y="-223" font-family="Helvetica,sans-Serif" font-size="10.00">sys/types.h</text>
</a>
</g>
</g>
<!-- Node1&#45;&gt;Node2 -->
<g id="edge1_Node000001_Node000002" class="edge">
<title>Node1&#45;&gt;Node2</title>
<g id="a_edge1_Node000001_Node000002"><a xlink:title=" ">
<path fill="none" stroke="#63b8ff" d="M246.15,-274.93C205.19,-265.97 126.23,-248.7 76.69,-237.86"/>
<polygon fill="#63b8ff" stroke="#63b8ff" points="77.51,-234.24 66.99,-235.52 76.01,-241.08 77.51,-234.24"/>
</a>
</g>
</g>
<!-- Node3 -->
<g id="Node000003" class="node">
<title>Node3</title>
<g id="a_Node000003"><a xlink:title=" ">
<polygon fill="#e0e0e0" stroke="#999999" points="128.38,-236.5 83.12,-236.5 83.12,-218 128.38,-218 128.38,-236.5"/>
<text text-anchor="middle" x="105.75" y="-223" font-family="Helvetica,sans-Serif" font-size="10.00">stdio.h</text>
</a>
</g>
</g>
<!-- Node1&#45;&gt;Node3 -->
<g id="edge2_Node000001_Node000003" class="edge">
<title>Node1&#45;&gt;Node3</title>
<g id="a_edge2_Node000001_Node000003"><a xlink:title=" ">
<path fill="none" stroke="#63b8ff" d="M245.92,-272.31C216.89,-263.19 170.55,-248.62 139.17,-238.76"/>
<polygon fill="#63b8ff" stroke="#63b8ff" points="140.34,-235.14 129.75,-235.48 138.24,-241.82 140.34,-235.14"/>
</a>
</g>
</g>
<!-- Node4 -->
<g id="Node000004" class="node">
<title>Node4</title>
<g id="a_Node000004"><a xlink:title=" ">
<polygon fill="#e0e0e0" stroke="#999999" points="192.75,-236.5 146.75,-236.5 146.75,-218 192.75,-218 192.75,-236.5"/>
<text text-anchor="middle" x="169.75" y="-223" font-family="Helvetica,sans-Serif" font-size="10.00">errno.h</text>
</a>
</g>
</g>
<!-- Node1&#45;&gt;Node4 -->
<g id="edge3_Node000001_Node000004" class="edge">
<title>Node1&#45;&gt;Node4</title>
<g id="a_edge3_Node000001_Node000004"><a xlink:title=" ">
<path fill="none" stroke="#63b8ff" d="M255.74,-272.08C239.64,-263.87 215.21,-251.42 196.5,-241.89"/>
<polygon fill="#63b8ff" stroke="#63b8ff" points="198.28,-238.36 187.78,-236.93 195.1,-244.59 198.28,-238.36"/>
</a>
</g>
</g>
<!-- Node5 -->
<g id="Node000005" class="node">
<title>Node5</title>
<g id="a_Node000005"><a xlink:title=" ">
<polygon fill="#e0e0e0" stroke="#999999" points="332.25,-127.5 289.25,-127.5 289.25,-109 332.25,-109 332.25,-127.5"/>
<text text-anchor="middle" x="310.75" y="-114" font-family="Helvetica,sans-Serif" font-size="10.00">time.h</text>
</a>
</g>
</g>
<!-- Node1&#45;&gt;Node5 -->
<g id="edge4_Node000001_Node000005" class="edge">
<title>Node1&#45;&gt;Node5</title>
<g id="a_edge4_Node000001_Node000005"><a xlink:title=" ">
<path fill="none" stroke="#63b8ff" d="M263.15,-272.24C251.2,-260.55 233.11,-238.62 239.75,-218 250.42,-184.89 276.77,-153.49 294.19,-135.32"/>
<polygon fill="#63b8ff" stroke="#63b8ff" points="295.94,-138.52 300.48,-128.94 290.96,-133.6 295.94,-138.52"/>
</a>
</g>
</g>
<!-- Node6 -->
<g id="Node000006" class="node">
<title>Node6</title>
<g id="a_Node000006"><a xlink:title=" ">
<polygon fill="#e0e0e0" stroke="#999999" points="296.5,-236.5 249,-236.5 249,-218 296.5,-218 296.5,-236.5"/>
<text text-anchor="middle" x="272.75" y="-223" font-family="Helvetica,sans-Serif" font-size="10.00">stdlib.h</text>
</a>
</g>
</g>
<!-- Node1&#45;&gt;Node6 -->
<g id="edge5_Node000001_Node000006" class="edge">
<title>Node1&#45;&gt;Node6</title>
<g id="a_edge5_Node000001_Node000006"><a xlink:title=" ">
<path fill="none" stroke="#63b8ff" d="M272.75,-272.08C272.75,-265.43 272.75,-255.99 272.75,-247.58"/>
<polygon fill="#63b8ff" stroke="#63b8ff" points="276.25,-247.76 272.75,-237.76 269.25,-247.76 276.25,-247.76"/>
</a>
</g>
</g>
<!-- Node7 -->
<g id="Node000007" class="node">
<title>Node7</title>
<g id="a_Node000007"><a xlink:title=" ">
<polygon fill="#e0e0e0" stroke="#999999" points="362.88,-236.5 314.62,-236.5 314.62,-218 362.88,-218 362.88,-236.5"/>
<text text-anchor="middle" x="338.75" y="-223" font-family="Helvetica,sans-Serif" font-size="10.00">string.h</text>
</a>
</g>
</g>
<!-- Node1&#45;&gt;Node7 -->
<g id="edge6_Node000001_Node000007" class="edge">
<title>Node1&#45;&gt;Node7</title>
<g id="a_edge6_Node000001_Node000007"><a xlink:title=" ">
<path fill="none" stroke="#63b8ff" d="M283.65,-272.08C293.45,-264.28 308.07,-252.65 319.79,-243.33"/>
<polygon fill="#63b8ff" stroke="#63b8ff" points="321.41,-245.72 327.05,-236.76 317.05,-240.24 321.41,-245.72"/>
</a>
</g>
</g>
<!-- Node8 -->
<g id="Node000008" class="node">
<title>Node8</title>
<g id="a_Node000008"><a xlink:title=" ">
<polygon fill="#e0e0e0" stroke="#999999" points="431,-236.5 380.5,-236.5 380.5,-218 431,-218 431,-236.5"/>
<text text-anchor="middle" x="405.75" y="-223" font-family="Helvetica,sans-Serif" font-size="10.00">unistd.h</text>
</a>
</g>
</g>
<!-- Node1&#45;&gt;Node8 -->
<g id="edge7_Node000001_Node000008" class="edge">
<title>Node1&#45;&gt;Node8</title>
<g id="a_edge7_Node000001_Node000008"><a xlink:title=" ">
<path fill="none" stroke="#63b8ff" d="M294.71,-272.08C316.18,-263.61 349.1,-250.61 373.53,-240.97"/>
<polygon fill="#63b8ff" stroke="#63b8ff" points="374.74,-243.86 382.76,-236.93 372.17,-237.35 374.74,-243.86"/>
</a>
</g>
</g>
<!-- Node9 -->
<g id="Node000009" class="node">
<title>Node9</title>
<g id="a_Node000009"><a xlink:title=" ">
<polygon fill="#e0e0e0" stroke="#999999" points="518,-236.5 449.5,-236.5 449.5,-218 518,-218 518,-236.5"/>
<text text-anchor="middle" x="483.75" y="-223" font-family="Helvetica,sans-Serif" font-size="10.00">sys/param.h</text>
</a>
</g>
</g>
<!-- Node1&#45;&gt;Node9 -->
<g id="edge8_Node000001_Node000009" class="edge">
<title>Node1&#45;&gt;Node9</title>
<g id="a_edge8_Node000001_Node000009"><a xlink:title=" ">
<path fill="none" stroke="#63b8ff" d="M299.47,-274.1C334.46,-265.39 396.31,-250.01 438.63,-239.48"/>
<polygon fill="#63b8ff" stroke="#63b8ff" points="439.35,-242.66 448.2,-236.85 437.66,-235.86 439.35,-242.66"/>
</a>
</g>
</g>
<!-- Node10 -->
<g id="Node000010" class="node">
<title>Node10</title>
<g id="a_Node000010"><a xlink:href="a01355.html" target="_top" xlink:title=" ">
<polygon fill="white" stroke="#666666" points="589.5,-236.5 536,-236.5 536,-218 589.5,-218 589.5,-236.5"/>
<text text-anchor="middle" x="562.75" y="-223" font-family="Helvetica,sans-Serif" font-size="10.00">../alloc.h</text>
</a>
</g>
</g>
<!-- Node1&#45;&gt;Node10 -->
<g id="edge9_Node000001_Node000010" class="edge">
<title>Node1&#45;&gt;Node10</title>
<g id="a_edge9_Node000001_Node000010"><a xlink:title=" ">
<path fill="none" stroke="#63b8ff" d="M299.53,-276.56C344.13,-269.48 436.66,-254.37 524.92,-236.78"/>
<polygon fill="#63b8ff" stroke="#63b8ff" points="525.54,-240.02 534.66,-234.62 524.16,-233.16 525.54,-240.02"/>
</a>
</g>
</g>
<!-- Node11 -->
<g id="Node000011" class="node">
<title>Node11</title>
<g id="a_Node000011"><a xlink:title=" ">
<polygon fill="#e0e0e0" stroke="#999999" points="653,-127.5 602.5,-127.5 602.5,-109 653,-109 653,-127.5"/>
<text text-anchor="middle" x="627.75" y="-114" font-family="Helvetica,sans-Serif" font-size="10.00">stddef.h</text>
</a>
</g>
</g>
<!-- Node10&#45;&gt;Node11 -->
<g id="edge10_Node000010_Node000011" class="edge">
<title>Node10&#45;&gt;Node11</title>
<g id="a_edge10_Node000010_Node000011"><a xlink:title=" ">
<path fill="none" stroke="#63b8ff" d="M574.59,-217.7C585,-209.61 599.84,-196.55 608.75,-182 616.94,-168.62 621.82,-151.46 624.58,-138.47"/>
<polygon fill="#63b8ff" stroke="#63b8ff" points="628.15,-139.41 626.55,-128.94 621.27,-138.12 628.15,-139.41"/>
</a>
</g>
</g>
<!-- Node12 -->
<g id="Node000012" class="node">
<title>Node12</title>
<g id="a_Node000012"><a xlink:href="a01427.html" target="_top" xlink:title=" ">
<polygon fill="white" stroke="#666666" points="415.88,-182 373.62,-182 373.62,-163.5 415.88,-163.5 415.88,-182"/>
<text text-anchor="middle" x="394.75" y="-168.5" font-family="Helvetica,sans-Serif" font-size="10.00">conf.h</text>
</a>
</g>
</g>
<!-- Node10&#45;&gt;Node12 -->
<g id="edge11_Node000010_Node000012" class="edge">
<title>Node10&#45;&gt;Node12</title>
<g id="a_edge11_Node000010_Node000012"><a xlink:title=" ">
<path fill="none" stroke="#63b8ff" d="M535.76,-217.81C506.05,-208.53 458.34,-193.62 426.77,-183.76"/>
<polygon fill="#63b8ff" stroke="#63b8ff" points="427.92,-180.14 417.33,-180.5 425.84,-186.82 427.92,-180.14"/>
</a>
</g>
</g>
<!-- Node13 -->
<g id="Node000013" class="node">
<title>Node13</title>
<g id="a_Node000013"><a xlink:href="a01352.html" target="_top" xlink:title=" ">
<polygon fill="white" stroke="#666666" points="507.25,-182 434.25,-182 434.25,-163.5 507.25,-163.5 507.25,-182"/>
<text text-anchor="middle" x="470.75" y="-168.5" font-family="Helvetica,sans-Serif" font-size="10.00">arax_types.h</text>
</a>
</g>
</g>
<!-- Node10&#45;&gt;Node13 -->
<g id="edge12_Node000010_Node000013" class="edge">
<title>Node10&#45;&gt;Node13</title>
<g id="a_edge12_Node000010_Node000013"><a xlink:title=" ">
<path fill="none" stroke="#63b8ff" d="M547.56,-217.58C533.31,-209.45 511.76,-197.15 495.11,-187.65"/>
<polygon fill="#63b8ff" stroke="#63b8ff" points="497.38,-184.35 486.96,-182.43 493.92,-190.43 497.38,-184.35"/>
</a>
</g>
</g>
<!-- Node15 -->
<g id="Node000015" class="node">
<title>Node15</title>
<g id="a_Node000015"><a xlink:href="a01367.html" target="_top" xlink:title=" ">
<polygon fill="white" stroke="#666666" points="600,-182 525.5,-182 525.5,-163.5 600,-163.5 600,-182"/>
<text text-anchor="middle" x="562.75" y="-168.5" font-family="Helvetica,sans-Serif" font-size="10.00">utils/bitmap.h</text>
</a>
</g>
</g>
<!-- Node10&#45;&gt;Node15 -->
<g id="edge15_Node000010_Node000015" class="edge">
<title>Node10&#45;&gt;Node15</title>
<g id="a_edge15_Node000010_Node000015"><a xlink:title=" ">
<path fill="none" stroke="#63b8ff" d="M562.75,-217.58C562.75,-210.93 562.75,-201.49 562.75,-193.08"/>
<polygon fill="#63b8ff" stroke="#63b8ff" points="566.25,-193.26 562.75,-183.26 559.25,-193.26 566.25,-193.26"/>
</a>
</g>
</g>
<!-- Node13&#45;&gt;Node5 -->
<g id="edge14_Node000013_Node000005" class="edge">
<title>Node13&#45;&gt;Node5</title>
<g id="a_edge14_Node000013_Node000005"><a xlink:title=" ">
<path fill="none" stroke="#63b8ff" d="M444.33,-163.08C416.5,-153.95 372.67,-139.57 342.87,-129.79"/>
<polygon fill="#63b8ff" stroke="#63b8ff" points="344.17,-126.2 333.58,-126.41 341.99,-132.86 344.17,-126.2"/>
</a>
</g>
</g>
<!-- Node14 -->
<g id="Node000014" class="node">
<title>Node14</title>
<g id="a_Node000014"><a xlink:title=" ">
<polygon fill="#e0e0e0" stroke="#999999" points="500.88,-127.5 440.62,-127.5 440.62,-109 500.88,-109 500.88,-127.5"/>
<text text-anchor="middle" x="470.75" y="-114" font-family="Helvetica,sans-Serif" font-size="10.00">sys/time.h</text>
</a>
</g>
</g>
<!-- Node13&#45;&gt;Node14 -->
<g id="edge13_Node000013_Node000014" class="edge">
<title>Node13&#45;&gt;Node14</title>
<g id="a_edge13_Node000013_Node000014"><a xlink:title=" ">
<path fill="none" stroke="#63b8ff" d="M470.75,-163.08C470.75,-156.43 470.75,-146.99 470.75,-138.58"/>
<polygon fill="#63b8ff" stroke="#63b8ff" points="474.25,-138.76 470.75,-128.76 467.25,-138.76 474.25,-138.76"/>
</a>
</g>
</g>
<!-- Node15&#45;&gt;Node11 -->
<g id="edge20_Node000015_Node000011" class="edge">
<title>Node15&#45;&gt;Node11</title>
<g id="a_edge20_Node000015_Node000011"><a xlink:title=" ">
<path fill="none" stroke="#63b8ff" d="M573.48,-163.08C583.04,-155.36 597.25,-143.88 608.73,-134.61"/>
<polygon fill="#63b8ff" stroke="#63b8ff" points="610.64,-136.76 616.22,-127.76 606.24,-131.32 610.64,-136.76"/>
</a>
</g>
</g>
<!-- Node16 -->
<g id="Node000016" class="node">
<title>Node16</title>
<g id="a_Node000016"><a xlink:href="a01382.html" target="_top" xlink:title=" ">
<polygon fill="white" stroke="#666666" points="584.88,-127.5 524.62,-127.5 524.62,-109 584.88,-109 584.88,-127.5"/>
<text text-anchor="middle" x="554.75" y="-114" font-family="Helvetica,sans-Serif" font-size="10.00">spinlock.h</text>
</a>
</g>
</g>
<!-- Node15&#45;&gt;Node16 -->
<g id="edge16_Node000015_Node000016" class="edge">
<title>Node15&#45;&gt;Node16</title>
<g id="a_edge16_Node000015_Node000016"><a xlink:title=" ">
<path fill="none" stroke="#63b8ff" d="M561.43,-163.08C560.42,-156.43 558.98,-146.99 557.69,-138.58"/>
<polygon fill="#63b8ff" stroke="#63b8ff" points="561.01,-138.12 556.05,-128.76 554.09,-139.17 561.01,-138.12"/>
</a>
</g>
</g>
<!-- Node17 -->
<g id="Node000017" class="node">
<title>Node17</title>
<g id="a_Node000017"><a xlink:title=" ">
<polygon fill="#e0e0e0" stroke="#999999" points="533.5,-73 486,-73 486,-54.5 533.5,-54.5 533.5,-73"/>
<text text-anchor="middle" x="509.75" y="-59.5" font-family="Helvetica,sans-Serif" font-size="10.00">stdint.h</text>
</a>
</g>
</g>
<!-- Node16&#45;&gt;Node17 -->
<g id="edge17_Node000016_Node000017" class="edge">
<title>Node16&#45;&gt;Node17</title>
<g id="a_edge17_Node000016_Node000017"><a xlink:title=" ">
<path fill="none" stroke="#63b8ff" d="M547.32,-108.58C541.03,-101.24 531.83,-90.51 524.11,-81.5"/>
<polygon fill="#63b8ff" stroke="#63b8ff" points="526.21,-79.57 517.04,-74.26 520.89,-84.13 526.21,-79.57"/>
</a>
</g>
</g>
<!-- Node18 -->
<g id="Node000018" class="node">
<title>Node18</title>
<g id="a_Node000018"><a xlink:href="a01361.html" target="_top" xlink:title=" ">
<polygon fill="white" stroke="#666666" points="648.25,-73 551.25,-73 551.25,-54.5 648.25,-54.5 648.25,-73"/>
<text text-anchor="middle" x="599.75" y="-59.5" font-family="Helvetica,sans-Serif" font-size="10.00">utils/arax_assert.h</text>
</a>
</g>
</g>
<!-- Node16&#45;&gt;Node18 -->
<g id="edge18_Node000016_Node000018" class="edge">
<title>Node16&#45;&gt;Node18</title>
<g id="a_edge18_Node000016_Node000018"><a xlink:title=" ">
<path fill="none" stroke="#63b8ff" d="M562.18,-108.58C568.47,-101.24 577.67,-90.51 585.39,-81.5"/>
<polygon fill="#63b8ff" stroke="#63b8ff" points="588.61,-84.13 592.46,-74.26 583.29,-79.57 588.61,-84.13"/>
</a>
</g>
</g>
<!-- Node19 -->
<g id="Node000019" class="node">
<title>Node19</title>
<g id="a_Node000019"><a xlink:href="a01370.html" target="_top" xlink:title=" ">
<polygon fill="white" stroke="#666666" points="627.62,-18.5 571.88,-18.5 571.88,0 627.62,0 627.62,-18.5"/>
<text text-anchor="middle" x="599.75" y="-5" font-family="Helvetica,sans-Serif" font-size="10.00">compat.h</text>
</a>
</g>
</g>
<!-- Node18&#45;&gt;Node19 -->
<g id="edge19_Node000018_Node000019" class="edge">
<title>Node18&#45;&gt;Node19</title>
<g id="a_edge19_Node000018_Node000019"><a xlink:title=" ">
<path fill="none" stroke="#63b8ff" d="M599.75,-54.08C599.75,-47.43 599.75,-37.99 599.75,-29.58"/>
<polygon fill="#63b8ff" stroke="#63b8ff" points="603.25,-29.76 599.75,-19.76 596.25,-29.76 603.25,-29.76"/>
</a>
</g>
</g>
</g>
</svg>
