<?xml version="1.0" encoding="UTF-8" standalone="no"?>
<!DOCTYPE svg PUBLIC "-//W3C//DTD SVG 1.1//EN"
 "http://www.w3.org/Graphics/SVG/1.1/DTD/svg11.dtd">
<!-- Generated by graphviz version 8.0.5 (0)
 -->
<!-- Title: impl.c Pages: 1 -->
<svg width="1283pt" height="408pt"
 viewBox="0.00 0.00 1283.38 408.00" xmlns="http://www.w3.org/2000/svg" xmlns:xlink="http://www.w3.org/1999/xlink">
<g id="graph0" class="graph" transform="scale(1 1) rotate(0) translate(4 404)">
<title>impl.c</title>
<!-- Node1 -->
<g id="Node000001" class="node">
<title>Node1</title>
<g id="a_Node000001"><a xlink:title=" ">
<polygon fill="#999999" stroke="#666666" points="913.38,-400 871.12,-400 871.12,-381.5 913.38,-381.5 913.38,-400"/>
<text text-anchor="middle" x="892.25" y="-386.5" font-family="Helvetica,sans-Serif" font-size="10.00">impl.c</text>
</a>
</g>
</g>
<!-- Node2 -->
<g id="Node000002" class="node">
<title>Node2</title>
<g id="a_Node000002"><a xlink:href="a01346.html" target="_top" xlink:title=" ">
<polygon fill="white" stroke="#666666" points="229.75,-182 186.75,-182 186.75,-163.5 229.75,-163.5 229.75,-182"/>
<text text-anchor="middle" x="208.25" y="-168.5" font-family="Helvetica,sans-Serif" font-size="10.00">arax.h</text>
</a>
</g>
</g>
<!-- Node1&#45;&gt;Node2 -->
<g id="edge1_Node000001_Node000002" class="edge">
<title>Node1&#45;&gt;Node2</title>
<g id="a_edge1_Node000001_Node000002"><a xlink:title=" ">
<path fill="none" stroke="#63b8ff" d="M870.7,-389.9C799.07,-389.96 562.77,-386.82 373.25,-345.5 303.13,-330.21 277.41,-335.68 221.25,-291 198.72,-273.08 194.36,-264.12 186.25,-236.5 181.73,-221.1 188.61,-203.91 195.84,-191.43"/>
<polygon fill="#63b8ff" stroke="#63b8ff" points="199.31,-193.49 201.76,-183.18 193.42,-189.72 199.31,-193.49"/>
</a>
</g>
</g>
<!-- Node9 -->
<g id="Node000009" class="node">
<title>Node9</title>
<g id="a_Node000009"><a xlink:href="a01349.html" target="_top" xlink:title=" ">
<polygon fill="white" stroke="#666666" points="448.75,-345.5 381.75,-345.5 381.75,-327 448.75,-327 448.75,-345.5"/>
<text text-anchor="middle" x="415.25" y="-332" font-family="Helvetica,sans-Serif" font-size="10.00">arax_pipe.h</text>
</a>
</g>
</g>
<!-- Node1&#45;&gt;Node9 -->
<g id="edge9_Node000001_Node000009" class="edge">
<title>Node1&#45;&gt;Node9</title>
<g id="a_edge9_Node000001_Node000009"><a xlink:title=" ">
<path fill="none" stroke="#63b8ff" d="M870.83,-387.39C798.13,-379.39 559.8,-353.16 459.92,-342.17"/>
<polygon fill="#63b8ff" stroke="#63b8ff" points="460.33,-338.58 450.01,-340.97 459.56,-345.54 460.33,-338.58"/>
</a>
</g>
</g>
<!-- Node26 -->
<g id="Node000026" class="node">
<title>Node26</title>
<g id="a_Node000026"><a xlink:href="a01397.html" target="_top" xlink:title=" ">
<polygon fill="white" stroke="#666666" points="737,-345.5 647.5,-345.5 647.5,-327 737,-327 737,-345.5"/>
<text text-anchor="middle" x="692.25" y="-332" font-family="Helvetica,sans-Serif" font-size="10.00">core/arax_data.h</text>
</a>
</g>
</g>
<!-- Node1&#45;&gt;Node26 -->
<g id="edge43_Node000001_Node000026" class="edge">
<title>Node1&#45;&gt;Node26</title>
<g id="a_edge43_Node000001_Node000026"><a xlink:title=" ">
<path fill="none" stroke="#63b8ff" d="M870.85,-384.13C838.77,-375.71 777.55,-359.64 735.82,-348.69"/>
<polygon fill="#63b8ff" stroke="#63b8ff" points="736.96,-345.11 726.4,-345.95 735.19,-351.88 736.96,-345.11"/>
</a>
</g>
</g>
<!-- Node27 -->
<g id="Node000027" class="node">
<title>Node27</title>
<g id="a_Node000027"><a xlink:href="a01373.html" target="_top" xlink:title=" ">
<polygon fill="white" stroke="#666666" points="954,-236.5 882.5,-236.5 882.5,-218 954,-218 954,-236.5"/>
<text text-anchor="middle" x="918.25" y="-223" font-family="Helvetica,sans-Serif" font-size="10.00">utils/config.h</text>
</a>
</g>
</g>
<!-- Node1&#45;&gt;Node27 -->
<g id="edge49_Node000001_Node000027" class="edge">
<title>Node1&#45;&gt;Node27</title>
<g id="a_edge49_Node000001_Node000027"><a xlink:title=" ">
<path fill="none" stroke="#63b8ff" d="M893.65,-381.07C897.69,-355.98 909.44,-282.96 915.11,-247.72"/>
<polygon fill="#63b8ff" stroke="#63b8ff" points="918.71,-248.41 916.85,-237.98 911.8,-247.29 918.71,-248.41"/>
</a>
</g>
</g>
<!-- Node28 -->
<g id="Node000028" class="node">
<title>Node28</title>
<g id="a_Node000028"><a xlink:href="a01385.html" target="_top" xlink:title=" ">
<polygon fill="white" stroke="#666666" points="996.25,-345.5 920.25,-345.5 920.25,-327 996.25,-327 996.25,-345.5"/>
<text text-anchor="middle" x="958.25" y="-332" font-family="Helvetica,sans-Serif" font-size="10.00">utils/system.h</text>
</a>
</g>
</g>
<!-- Node1&#45;&gt;Node28 -->
<g id="edge51_Node000001_Node000028" class="edge">
<title>Node1&#45;&gt;Node28</title>
<g id="a_edge51_Node000001_Node000028"><a xlink:title=" ">
<path fill="none" stroke="#63b8ff" d="M903.15,-381.08C912.95,-373.28 927.57,-361.65 939.29,-352.33"/>
<polygon fill="#63b8ff" stroke="#63b8ff" points="940.91,-354.72 946.55,-345.76 936.55,-349.24 940.91,-354.72"/>
</a>
</g>
</g>
<!-- Node30 -->
<g id="Node000030" class="node">
<title>Node30</title>
<g id="a_Node000030"><a xlink:href="a01388.html" target="_top" xlink:title=" ">
<polygon fill="white" stroke="#666666" points="109.75,-345.5 42.75,-345.5 42.75,-327 109.75,-327 109.75,-345.5"/>
<text text-anchor="middle" x="76.25" y="-332" font-family="Helvetica,sans-Serif" font-size="10.00">utils/timer.h</text>
</a>
</g>
</g>
<!-- Node1&#45;&gt;Node30 -->
<g id="edge54_Node000001_Node000030" class="edge">
<title>Node1&#45;&gt;Node30</title>
<g id="a_edge54_Node000001_Node000030"><a xlink:title=" ">
<path fill="none" stroke="#63b8ff" d="M870.8,-389.4C780.04,-387.73 418.82,-379.19 124.25,-345.5 123.09,-345.37 121.93,-345.23 120.75,-345.08"/>
<polygon fill="#63b8ff" stroke="#63b8ff" points="121.4,-341.49 111.01,-343.54 120.42,-348.42 121.4,-341.49"/>
</a>
</g>
</g>
<!-- Node31 -->
<g id="Node000031" class="node">
<title>Node31</title>
<g id="a_Node000031"><a xlink:title=" ">
<polygon fill="#e0e0e0" stroke="#999999" points="50.5,-291 0,-291 0,-272.5 50.5,-272.5 50.5,-291"/>
<text text-anchor="middle" x="25.25" y="-277.5" font-family="Helvetica,sans-Serif" font-size="10.00">unistd.h</text>
</a>
</g>
</g>
<!-- Node1&#45;&gt;Node31 -->
<g id="edge59_Node000001_Node000031" class="edge">
<title>Node1&#45;&gt;Node31</title>
<g id="a_edge59_Node000001_Node000031"><a xlink:title=" ">
<path fill="none" stroke="#63b8ff" d="M871.02,-389.42C741.76,-387.31 64.93,-374.88 33.25,-345.5 21.55,-334.65 20.55,-315.9 21.88,-301.71"/>
<polygon fill="#63b8ff" stroke="#63b8ff" points="25.44,-302.53 23.36,-292.14 18.51,-301.56 25.44,-302.53"/>
</a>
</g>
</g>
<!-- Node32 -->
<g id="Node000032" class="node">
<title>Node32</title>
<g id="a_Node000032"><a xlink:title=" ">
<polygon fill="#e0e0e0" stroke="#999999" points="1082.5,-345.5 1014,-345.5 1014,-327 1082.5,-327 1082.5,-345.5"/>
<text text-anchor="middle" x="1048.25" y="-332" font-family="Helvetica,sans-Serif" font-size="10.00">sys/mman.h</text>
</a>
</g>
</g>
<!-- Node1&#45;&gt;Node32 -->
<g id="edge57_Node000001_Node000032" class="edge">
<title>Node1&#45;&gt;Node32</title>
<g id="a_edge57_Node000001_Node000032"><a xlink:title=" ">
<path fill="none" stroke="#63b8ff" d="M913.61,-382.56C938.99,-374.02 981.73,-359.64 1012.25,-349.37"/>
<polygon fill="#63b8ff" stroke="#63b8ff" points="1013.12,-352.43 1021.48,-345.92 1010.89,-345.79 1013.12,-352.43"/>
</a>
</g>
</g>
<!-- Node33 -->
<g id="Node000033" class="node">
<title>Node33</title>
<g id="a_Node000033"><a xlink:title=" ">
<polygon fill="#e0e0e0" stroke="#999999" points="1143.75,-345.5 1100.75,-345.5 1100.75,-327 1143.75,-327 1143.75,-345.5"/>
<text text-anchor="middle" x="1122.25" y="-332" font-family="Helvetica,sans-Serif" font-size="10.00">fcntl.h</text>
</a>
</g>
</g>
<!-- Node1&#45;&gt;Node33 -->
<g id="edge58_Node000001_Node000033" class="edge">
<title>Node1&#45;&gt;Node33</title>
<g id="a_edge58_Node000001_Node000033"><a xlink:title=" ">
<path fill="none" stroke="#63b8ff" d="M913.81,-385.26C948.69,-377.93 1019.87,-362.71 1089.94,-345.74"/>
<polygon fill="#63b8ff" stroke="#63b8ff" points="1090.38,-348.99 1099.26,-343.22 1088.72,-342.19 1090.38,-348.99"/>
</a>
</g>
</g>
<!-- Node34 -->
<g id="Node000034" class="node">
<title>Node34</title>
<g id="a_Node000034"><a xlink:title=" ">
<polygon fill="#e0e0e0" stroke="#999999" points="1209,-345.5 1161.5,-345.5 1161.5,-327 1209,-327 1209,-345.5"/>
<text text-anchor="middle" x="1185.25" y="-332" font-family="Helvetica,sans-Serif" font-size="10.00">stdlib.h</text>
</a>
</g>
</g>
<!-- Node1&#45;&gt;Node34 -->
<g id="edge60_Node000001_Node000034" class="edge">
<title>Node1&#45;&gt;Node34</title>
<g id="a_edge60_Node000001_Node000034"><a xlink:title=" ">
<path fill="none" stroke="#63b8ff" d="M913.68,-386.74C956.76,-380.57 1057.11,-365.51 1150.43,-345.96"/>
<polygon fill="#63b8ff" stroke="#63b8ff" points="1151.13,-349.18 1160.19,-343.69 1149.68,-342.33 1151.13,-349.18"/>
</a>
</g>
</g>
<!-- Node35 -->
<g id="Node000035" class="node">
<title>Node35</title>
<g id="a_Node000035"><a xlink:title=" ">
<polygon fill="#e0e0e0" stroke="#999999" points="1275.38,-345.5 1227.12,-345.5 1227.12,-327 1275.38,-327 1275.38,-345.5"/>
<text text-anchor="middle" x="1251.25" y="-332" font-family="Helvetica,sans-Serif" font-size="10.00">string.h</text>
</a>
</g>
</g>
<!-- Node1&#45;&gt;Node35 -->
<g id="edge61_Node000001_Node000035" class="edge">
<title>Node1&#45;&gt;Node35</title>
<g id="a_edge61_Node000001_Node000035"><a xlink:title=" ">
<path fill="none" stroke="#63b8ff" d="M913.74,-387.66C964.58,-382.54 1096.36,-368.26 1216.01,-345.74"/>
<polygon fill="#63b8ff" stroke="#63b8ff" points="1216.64,-348.99 1225.81,-343.68 1215.33,-342.12 1216.64,-348.99"/>
</a>
</g>
</g>
<!-- Node3 -->
<g id="Node000003" class="node">
<title>Node3</title>
<g id="a_Node000003"><a xlink:title=" ">
<polygon fill="#e0e0e0" stroke="#999999" points="128.88,-127.5 83.62,-127.5 83.62,-109 128.88,-109 128.88,-127.5"/>
<text text-anchor="middle" x="106.25" y="-114" font-family="Helvetica,sans-Serif" font-size="10.00">stdio.h</text>
</a>
</g>
</g>
<!-- Node2&#45;&gt;Node3 -->
<g id="edge2_Node000002_Node000003" class="edge">
<title>Node2&#45;&gt;Node3</title>
<g id="a_edge2_Node000002_Node000003"><a xlink:title=" ">
<path fill="none" stroke="#63b8ff" d="M191.41,-163.08C175.46,-154.87 151.27,-142.42 132.74,-132.89"/>
<polygon fill="#63b8ff" stroke="#63b8ff" points="134.61,-129.4 124.12,-127.93 131.41,-135.62 134.61,-129.4"/>
</a>
</g>
</g>
<!-- Node4 -->
<g id="Node000004" class="node">
<title>Node4</title>
<g id="a_Node000004"><a xlink:title=" ">
<polygon fill="#e0e0e0" stroke="#999999" points="739.5,-73 689,-73 689,-54.5 739.5,-54.5 739.5,-73"/>
<text text-anchor="middle" x="714.25" y="-59.5" font-family="Helvetica,sans-Serif" font-size="10.00">stddef.h</text>
</a>
</g>
</g>
<!-- Node2&#45;&gt;Node4 -->
<g id="edge3_Node000002_Node000004" class="edge">
<title>Node2&#45;&gt;Node4</title>
<g id="a_edge3_Node000002_Node000004"><a xlink:title=" ">
<path fill="none" stroke="#63b8ff" d="M230.07,-166.15C275.14,-154.68 381.89,-127.99 472.25,-109 545,-93.71 630.69,-78.76 678.09,-70.75"/>
<polygon fill="#63b8ff" stroke="#63b8ff" points="678.45,-74.07 687.73,-68.96 677.29,-67.17 678.45,-74.07"/>
</a>
</g>
</g>
<!-- Node5 -->
<g id="Node000005" class="node">
<title>Node5</title>
<g id="a_Node000005"><a xlink:href="a01352.html" target="_top" xlink:title=" ">
<polygon fill="white" stroke="#666666" points="289.75,-73 216.75,-73 216.75,-54.5 289.75,-54.5 289.75,-73"/>
<text text-anchor="middle" x="253.25" y="-59.5" font-family="Helvetica,sans-Serif" font-size="10.00">arax_types.h</text>
</a>
</g>
</g>
<!-- Node2&#45;&gt;Node5 -->
<g id="edge4_Node000002_Node000005" class="edge">
<title>Node2&#45;&gt;Node5</title>
<g id="a_edge4_Node000002_Node000005"><a xlink:title=" ">
<path fill="none" stroke="#63b8ff" d="M229.93,-164.8C246.72,-158.15 268.82,-146.29 279.25,-127.5 287.54,-112.57 278.13,-94.44 268.39,-81.52"/>
<polygon fill="#63b8ff" stroke="#63b8ff" points="270.55,-79.64 261.49,-74.15 265.15,-84.09 270.55,-79.64"/>
</a>
</g>
</g>
<!-- Node8 -->
<g id="Node000008" class="node">
<title>Node8</title>
<g id="a_Node000008"><a xlink:href="a01394.html" target="_top" xlink:title=" ">
<polygon fill="white" stroke="#666666" points="269.88,-127.5 146.62,-127.5 146.62,-109 269.88,-109 269.88,-127.5"/>
<text text-anchor="middle" x="208.25" y="-114" font-family="Helvetica,sans-Serif" font-size="10.00">core/arax_accel_types.h</text>
</a>
</g>
</g>
<!-- Node2&#45;&gt;Node8 -->
<g id="edge7_Node000002_Node000008" class="edge">
<title>Node2&#45;&gt;Node8</title>
<g id="a_edge7_Node000002_Node000008"><a xlink:title=" ">
<path fill="none" stroke="#63b8ff" d="M208.25,-163.08C208.25,-156.43 208.25,-146.99 208.25,-138.58"/>
<polygon fill="#63b8ff" stroke="#63b8ff" points="211.75,-138.76 208.25,-128.76 204.75,-138.76 211.75,-138.76"/>
</a>
</g>
</g>
<!-- Node6 -->
<g id="Node000006" class="node">
<title>Node6</title>
<g id="a_Node000006"><a xlink:title=" ">
<polygon fill="#e0e0e0" stroke="#999999" points="248.38,-18.5 188.12,-18.5 188.12,0 248.38,0 248.38,-18.5"/>
<text text-anchor="middle" x="218.25" y="-5" font-family="Helvetica,sans-Serif" font-size="10.00">sys/time.h</text>
</a>
</g>
</g>
<!-- Node5&#45;&gt;Node6 -->
<g id="edge5_Node000005_Node000006" class="edge">
<title>Node5&#45;&gt;Node6</title>
<g id="a_edge5_Node000005_Node000006"><a xlink:title=" ">
<path fill="none" stroke="#63b8ff" d="M247.47,-54.08C242.73,-46.97 235.87,-36.68 229.98,-27.85"/>
<polygon fill="#63b8ff" stroke="#63b8ff" points="232.38,-26.14 223.92,-19.76 226.56,-30.02 232.38,-26.14"/>
</a>
</g>
</g>
<!-- Node7 -->
<g id="Node000007" class="node">
<title>Node7</title>
<g id="a_Node000007"><a xlink:title=" ">
<polygon fill="#e0e0e0" stroke="#999999" points="309.75,-18.5 266.75,-18.5 266.75,0 309.75,0 309.75,-18.5"/>
<text text-anchor="middle" x="288.25" y="-5" font-family="Helvetica,sans-Serif" font-size="10.00">time.h</text>
</a>
</g>
</g>
<!-- Node5&#45;&gt;Node7 -->
<g id="edge6_Node000005_Node000007" class="edge">
<title>Node5&#45;&gt;Node7</title>
<g id="a_edge6_Node000005_Node000007"><a xlink:title=" ">
<path fill="none" stroke="#63b8ff" d="M259.03,-54.08C263.77,-46.97 270.63,-36.68 276.52,-27.85"/>
<polygon fill="#63b8ff" stroke="#63b8ff" points="279.94,-30.02 282.58,-19.76 274.12,-26.14 279.94,-30.02"/>
</a>
</g>
</g>
<!-- Node8&#45;&gt;Node5 -->
<g id="edge8_Node000008_Node000005" class="edge">
<title>Node8&#45;&gt;Node5</title>
<g id="a_edge8_Node000008_Node000005"><a xlink:title=" ">
<path fill="none" stroke="#63b8ff" d="M215.68,-108.58C221.97,-101.24 231.17,-90.51 238.89,-81.5"/>
<polygon fill="#63b8ff" stroke="#63b8ff" points="242.11,-84.13 245.96,-74.26 236.79,-79.57 242.11,-84.13"/>
</a>
</g>
</g>
<!-- Node9&#45;&gt;Node2 -->
<g id="edge10_Node000009_Node000002" class="edge">
<title>Node9&#45;&gt;Node2</title>
<g id="a_edge10_Node000009_Node000002"><a xlink:title=" ">
<path fill="none" stroke="#63b8ff" d="M381.45,-332.58C328.82,-326.32 229.66,-305.47 194.25,-236.5 187.08,-222.54 192.01,-204.98 197.91,-191.99"/>
<polygon fill="#63b8ff" stroke="#63b8ff" points="201.42,-193.83 202.85,-183.33 195.18,-190.64 201.42,-193.83"/>
</a>
</g>
</g>
<!-- Node10 -->
<g id="Node000010" class="node">
<title>Node10</title>
<g id="a_Node000010"><a xlink:href="a01358.html" target="_top" xlink:title=" ">
<polygon fill="white" stroke="#666666" points="802.5,-182 746,-182 746,-163.5 802.5,-163.5 802.5,-182"/>
<text text-anchor="middle" x="774.25" y="-168.5" font-family="Helvetica,sans-Serif" font-size="10.00">utils/Kv.h</text>
</a>
</g>
</g>
<!-- Node9&#45;&gt;Node10 -->
<g id="edge11_Node000009_Node000010" class="edge">
<title>Node9&#45;&gt;Node10</title>
<g id="a_edge11_Node000009_Node000010"><a xlink:title=" ">
<path fill="none" stroke="#63b8ff" d="M449.03,-332.86C512.05,-326.81 649.1,-306.02 737.25,-236.5 751.67,-225.13 761.63,-206.47 767.56,-192.45"/>
<polygon fill="#63b8ff" stroke="#63b8ff" points="771.09,-194.02 771.45,-183.43 764.57,-191.48 771.09,-194.02"/>
</a>
</g>
</g>
<!-- Node16 -->
<g id="Node000016" class="node">
<title>Node16</title>
<g id="a_Node000016"><a xlink:href="a01379.html" target="_top" xlink:title=" ">
<polygon fill="white" stroke="#666666" points="485,-182 413.5,-182 413.5,-163.5 485,-163.5 485,-182"/>
<text text-anchor="middle" x="449.25" y="-168.5" font-family="Helvetica,sans-Serif" font-size="10.00">utils/queue.h</text>
</a>
</g>
</g>
<!-- Node9&#45;&gt;Node16 -->
<g id="edge18_Node000009_Node000016" class="edge">
<title>Node9&#45;&gt;Node16</title>
<g id="a_edge18_Node000009_Node000016"><a xlink:title=" ">
<path fill="none" stroke="#63b8ff" d="M385.29,-326.55C331.07,-309.3 225.77,-268.11 265.25,-218 282.03,-196.71 353.63,-184.48 402.41,-178.48"/>
<polygon fill="#63b8ff" stroke="#63b8ff" points="402.53,-181.87 412.05,-177.22 401.71,-174.92 402.53,-181.87"/>
</a>
</g>
</g>
<!-- Node17 -->
<g id="Node000017" class="node">
<title>Node17</title>
<g id="a_Node000017"><a xlink:href="a01391.html" target="_top" xlink:title=" ">
<polygon fill="white" stroke="#666666" points="517.25,-291 423.25,-291 423.25,-272.5 517.25,-272.5 517.25,-291"/>
<text text-anchor="middle" x="470.25" y="-277.5" font-family="Helvetica,sans-Serif" font-size="10.00">core/arax_accel.h</text>
</a>
</g>
</g>
<!-- Node9&#45;&gt;Node17 -->
<g id="edge23_Node000009_Node000017" class="edge">
<title>Node9&#45;&gt;Node17</title>
<g id="a_edge23_Node000009_Node000017"><a xlink:title=" ">
<path fill="none" stroke="#63b8ff" d="M424.33,-326.58C432.26,-319.01 443.97,-307.83 453.58,-298.66"/>
<polygon fill="#63b8ff" stroke="#63b8ff" points="455.52,-301.69 460.34,-292.26 450.69,-296.63 455.52,-301.69"/>
</a>
</g>
</g>
<!-- Node24 -->
<g id="Node000024" class="node">
<title>Node24</title>
<g id="a_Node000024"><a xlink:href="a01412.html" target="_top" xlink:title=" ">
<polygon fill="white" stroke="#666666" points="405,-291 315.5,-291 315.5,-272.5 405,-272.5 405,-291"/>
<text text-anchor="middle" x="360.25" y="-277.5" font-family="Helvetica,sans-Serif" font-size="10.00">core/arax_task.h</text>
</a>
</g>
</g>
<!-- Node9&#45;&gt;Node24 -->
<g id="edge38_Node000009_Node000024" class="edge">
<title>Node9&#45;&gt;Node24</title>
<g id="a_edge38_Node000009_Node000024"><a xlink:title=" ">
<path fill="none" stroke="#63b8ff" d="M406.17,-326.58C398.24,-319.01 386.53,-307.83 376.92,-298.66"/>
<polygon fill="#63b8ff" stroke="#63b8ff" points="379.81,-296.63 370.16,-292.26 374.98,-301.69 379.81,-296.63"/>
</a>
</g>
</g>
<!-- Node10&#45;&gt;Node4 -->
<g id="edge13_Node000010_Node000004" class="edge">
<title>Node10&#45;&gt;Node4</title>
<g id="a_edge13_Node000010_Node000004"><a xlink:title=" ">
<path fill="none" stroke="#63b8ff" d="M781.73,-163.16C791.7,-150.62 806.9,-126.84 796.25,-109 786.23,-92.2 767.38,-81.4 750.28,-74.68"/>
<polygon fill="#63b8ff" stroke="#63b8ff" points="751.55,-71.06 740.96,-71 749.2,-77.66 751.55,-71.06"/>
</a>
</g>
</g>
<!-- Node11 -->
<g id="Node000011" class="node">
<title>Node11</title>
<g id="a_Node000011"><a xlink:href="a01427.html" target="_top" xlink:title=" ">
<polygon fill="white" stroke="#666666" points="787.38,-127.5 745.12,-127.5 745.12,-109 787.38,-109 787.38,-127.5"/>
<text text-anchor="middle" x="766.25" y="-114" font-family="Helvetica,sans-Serif" font-size="10.00">conf.h</text>
</a>
</g>
</g>
<!-- Node10&#45;&gt;Node11 -->
<g id="edge12_Node000010_Node000011" class="edge">
<title>Node10&#45;&gt;Node11</title>
<g id="a_edge12_Node000010_Node000011"><a xlink:title=" ">
<path fill="none" stroke="#63b8ff" d="M772.93,-163.08C771.92,-156.43 770.48,-146.99 769.19,-138.58"/>
<polygon fill="#63b8ff" stroke="#63b8ff" points="772.51,-138.12 767.55,-128.76 765.59,-139.17 772.51,-138.12"/>
</a>
</g>
</g>
<!-- Node12 -->
<g id="Node000012" class="node">
<title>Node12</title>
<g id="a_Node000012"><a xlink:href="a01382.html" target="_top" xlink:title=" ">
<polygon fill="white" stroke="#666666" points="567.38,-127.5 507.12,-127.5 507.12,-109 567.38,-109 567.38,-127.5"/>
<text text-anchor="middle" x="537.25" y="-114" font-family="Helvetica,sans-Serif" font-size="10.00">spinlock.h</text>
</a>
</g>
</g>
<!-- Node10&#45;&gt;Node12 -->
<g id="edge14_Node000010_Node000012" class="edge">
<title>Node10&#45;&gt;Node12</title>
<g id="a_edge14_Node000010_Node000012"><a xlink:title=" ">
<path fill="none" stroke="#63b8ff" d="M745.66,-165.42C703.97,-156.18 626.27,-138.97 578.42,-128.37"/>
<polygon fill="#63b8ff" stroke="#63b8ff" points="579.33,-124.77 568.81,-126.02 577.82,-131.6 579.33,-124.77"/>
</a>
</g>
</g>
<!-- Node13 -->
<g id="Node000013" class="node">
<title>Node13</title>
<g id="a_Node000013"><a xlink:title=" ">
<polygon fill="#e0e0e0" stroke="#999999" points="566,-73 518.5,-73 518.5,-54.5 566,-54.5 566,-73"/>
<text text-anchor="middle" x="542.25" y="-59.5" font-family="Helvetica,sans-Serif" font-size="10.00">stdint.h</text>
</a>
</g>
</g>
<!-- Node12&#45;&gt;Node13 -->
<g id="edge15_Node000012_Node000013" class="edge">
<title>Node12&#45;&gt;Node13</title>
<g id="a_edge15_Node000012_Node000013"><a xlink:title=" ">
<path fill="none" stroke="#63b8ff" d="M538.08,-108.58C538.71,-101.93 539.61,-92.49 540.41,-84.08"/>
<polygon fill="#63b8ff" stroke="#63b8ff" points="543.98,-84.54 541.44,-74.26 537.01,-83.88 543.98,-84.54"/>
</a>
</g>
</g>
<!-- Node14 -->
<g id="Node000014" class="node">
<title>Node14</title>
<g id="a_Node000014"><a xlink:href="a01361.html" target="_top" xlink:title=" ">
<polygon fill="white" stroke="#666666" points="500.75,-73 403.75,-73 403.75,-54.5 500.75,-54.5 500.75,-73"/>
<text text-anchor="middle" x="452.25" y="-59.5" font-family="Helvetica,sans-Serif" font-size="10.00">utils/arax_assert.h</text>
</a>
</g>
</g>
<!-- Node12&#45;&gt;Node14 -->
<g id="edge16_Node000012_Node000014" class="edge">
<title>Node12&#45;&gt;Node14</title>
<g id="a_edge16_Node000012_Node000014"><a xlink:title=" ">
<path fill="none" stroke="#63b8ff" d="M523.21,-108.58C510.29,-100.6 490.88,-88.61 475.62,-79.19"/>
<polygon fill="#63b8ff" stroke="#63b8ff" points="477.65,-75.71 467.31,-73.43 473.98,-81.66 477.65,-75.71"/>
</a>
</g>
</g>
<!-- Node15 -->
<g id="Node000015" class="node">
<title>Node15</title>
<g id="a_Node000015"><a xlink:href="a01370.html" target="_top" xlink:title=" ">
<polygon fill="white" stroke="#666666" points="480.12,-18.5 424.38,-18.5 424.38,0 480.12,0 480.12,-18.5"/>
<text text-anchor="middle" x="452.25" y="-5" font-family="Helvetica,sans-Serif" font-size="10.00">compat.h</text>
</a>
</g>
</g>
<!-- Node14&#45;&gt;Node15 -->
<g id="edge17_Node000014_Node000015" class="edge">
<title>Node14&#45;&gt;Node15</title>
<g id="a_edge17_Node000014_Node000015"><a xlink:title=" ">
<path fill="none" stroke="#63b8ff" d="M452.25,-54.08C452.25,-47.43 452.25,-37.99 452.25,-29.58"/>
<polygon fill="#63b8ff" stroke="#63b8ff" points="455.75,-29.76 452.25,-19.76 448.75,-29.76 455.75,-29.76"/>
</a>
</g>
</g>
<!-- Node16&#45;&gt;Node4 -->
<g id="edge19_Node000016_Node000004" class="edge">
<title>Node16&#45;&gt;Node4</title>
<g id="a_edge19_Node000016_Node000004"><a xlink:title=" ">
<path fill="none" stroke="#63b8ff" d="M453.34,-163.28C460.43,-149.53 476.4,-122.55 498.25,-109 554.19,-74.32 632.41,-66.27 677.76,-64.71"/>
<polygon fill="#63b8ff" stroke="#63b8ff" points="677.64,-68.19 687.55,-64.45 677.47,-61.19 677.64,-68.19"/>
</a>
</g>
</g>
<!-- Node16&#45;&gt;Node11 -->
<g id="edge21_Node000016_Node000011" class="edge">
<title>Node16&#45;&gt;Node11</title>
<g id="a_edge21_Node000016_Node000011"><a xlink:title=" ">
<path fill="none" stroke="#63b8ff" d="M485.09,-165.07C488.19,-164.52 491.27,-163.99 494.25,-163.5 598.17,-146.25 628.01,-149.71 734.18,-127.72"/>
<polygon fill="#63b8ff" stroke="#63b8ff" points="734.63,-130.99 743.7,-125.51 733.19,-124.14 734.63,-130.99"/>
</a>
</g>
</g>
<!-- Node16&#45;&gt;Node12 -->
<g id="edge22_Node000016_Node000012" class="edge">
<title>Node16&#45;&gt;Node12</title>
<g id="a_edge22_Node000016_Node000012"><a xlink:title=" ">
<path fill="none" stroke="#63b8ff" d="M463.78,-163.08C477.28,-155.03 497.64,-142.88 513.5,-133.42"/>
<polygon fill="#63b8ff" stroke="#63b8ff" points="514.9,-136.06 521.7,-127.93 511.32,-130.05 514.9,-136.06"/>
</a>
</g>
</g>
<!-- Node16&#45;&gt;Node13 -->
<g id="edge20_Node000016_Node000013" class="edge">
<title>Node16&#45;&gt;Node13</title>
<g id="a_edge20_Node000016_Node000013"><a xlink:title=" ">
<path fill="none" stroke="#63b8ff" d="M449.39,-163.14C450.01,-150.14 452.88,-125.3 465.25,-109 476.19,-94.6 493.27,-84.1 508.57,-76.96"/>
<polygon fill="#63b8ff" stroke="#63b8ff" points="509.5,-79.93 517.28,-72.74 506.71,-73.51 509.5,-79.93"/>
</a>
</g>
</g>
<!-- Node17&#45;&gt;Node2 -->
<g id="edge24_Node000017_Node000002" class="edge">
<title>Node17&#45;&gt;Node2</title>
<g id="a_edge24_Node000017_Node000002"><a xlink:title=" ">
<path fill="none" stroke="#63b8ff" d="M459.55,-272.21C442.33,-258.85 406.98,-232.98 373.25,-218 329.3,-198.47 274.82,-185.93 240.79,-179.36"/>
<polygon fill="#63b8ff" stroke="#63b8ff" points="241.55,-175.75 231.07,-177.35 240.26,-182.63 241.55,-175.75"/>
</a>
</g>
</g>
<!-- Node18 -->
<g id="Node000018" class="node">
<title>Node18</title>
<g id="a_Node000018"><a xlink:title=" ">
<polygon fill="#e0e0e0" stroke="#999999" points="687.12,-182 637.38,-182 637.38,-163.5 687.12,-163.5 687.12,-182"/>
<text text-anchor="middle" x="662.25" y="-168.5" font-family="Helvetica,sans-Serif" font-size="10.00">async.h</text>
</a>
</g>
</g>
<!-- Node17&#45;&gt;Node18 -->
<g id="edge25_Node000017_Node000018" class="edge">
<title>Node17&#45;&gt;Node18</title>
<g id="a_edge25_Node000017_Node000018"><a xlink:title=" ">
<path fill="none" stroke="#63b8ff" d="M517.53,-279.39C582.91,-276.41 695.76,-266.88 721.25,-236.5 735.92,-219.02 712.13,-200.08 690.52,-187.63"/>
<polygon fill="#63b8ff" stroke="#63b8ff" points="692.35,-184.1 681.89,-182.4 689.01,-190.25 692.35,-184.1"/>
</a>
</g>
</g>
<!-- Node19 -->
<g id="Node000019" class="node">
<title>Node19</title>
<g id="a_Node000019"><a xlink:href="a01418.html" target="_top" xlink:title=" ">
<polygon fill="white" stroke="#666666" points="518.5,-236.5 420,-236.5 420,-218 518.5,-218 518.5,-236.5"/>
<text text-anchor="middle" x="469.25" y="-223" font-family="Helvetica,sans-Serif" font-size="10.00">core/arax_vaccel.h</text>
</a>
</g>
</g>
<!-- Node17&#45;&gt;Node19 -->
<g id="edge26_Node000017_Node000019" class="edge">
<title>Node17&#45;&gt;Node19</title>
<g id="a_edge26_Node000017_Node000019"><a xlink:title=" ">
<path fill="none" stroke="#63b8ff" d="M464.92,-272.08C463.35,-265.43 462.71,-255.99 463.08,-247.58"/>
<polygon fill="#63b8ff" stroke="#63b8ff" points="466.66,-248.08 464.28,-237.76 459.7,-247.31 466.66,-248.08"/>
</a>
</g>
</g>
<!-- Node23 -->
<g id="Node000023" class="node">
<title>Node23</title>
<g id="a_Node000023"><a xlink:href="a01415.html" target="_top" xlink:title=" ">
<polygon fill="white" stroke="#666666" points="712.62,-236.5 611.88,-236.5 611.88,-218 712.62,-218 712.62,-236.5"/>
<text text-anchor="middle" x="662.25" y="-223" font-family="Helvetica,sans-Serif" font-size="10.00">core/arax_throttle.h</text>
</a>
</g>
</g>
<!-- Node17&#45;&gt;Node23 -->
<g id="edge36_Node000017_Node000023" class="edge">
<title>Node17&#45;&gt;Node23</title>
<g id="a_edge36_Node000017_Node000023"><a xlink:title=" ">
<path fill="none" stroke="#63b8ff" d="M501.95,-272.08C534.19,-263.27 584.34,-249.55 619.95,-239.82"/>
<polygon fill="#63b8ff" stroke="#63b8ff" points="620.78,-242.95 629.5,-236.93 618.93,-236.19 620.78,-242.95"/>
</a>
</g>
</g>
<!-- Node19&#45;&gt;Node16 -->
<g id="edge33_Node000019_Node000016" class="edge">
<title>Node19&#45;&gt;Node16</title>
<g id="a_edge33_Node000019_Node000016"><a xlink:title=" ">
<path fill="none" stroke="#63b8ff" d="M465.95,-217.58C463.36,-210.78 459.65,-201.06 456.39,-192.5"/>
<polygon fill="#63b8ff" stroke="#63b8ff" points="459.32,-191.36 452.49,-183.26 452.78,-193.85 459.32,-191.36"/>
</a>
</g>
</g>
<!-- Node19&#45;&gt;Node17 -->
<g id="edge34_Node000019_Node000017" class="edge">
<title>Node19&#45;&gt;Node17</title>
<g id="a_edge34_Node000019_Node000017"><a xlink:title=" ">
<path fill="none" stroke="#63b8ff" d="M474.54,-236.76C476.13,-243.36 476.78,-252.79 476.43,-261.22"/>
<polygon fill="#63b8ff" stroke="#63b8ff" points="472.85,-260.76 475.25,-271.08 479.81,-261.52 472.85,-260.76"/>
</a>
</g>
</g>
<!-- Node19&#45;&gt;Node18 -->
<g id="edge35_Node000019_Node000018" class="edge">
<title>Node19&#45;&gt;Node18</title>
<g id="a_edge35_Node000019_Node000018"><a xlink:title=" ">
<path fill="none" stroke="#63b8ff" d="M501.12,-217.58C535.66,-208.18 590.65,-193.23 626.6,-183.45"/>
<polygon fill="#63b8ff" stroke="#63b8ff" points="627.37,-186.59 636.11,-180.59 625.54,-179.84 627.37,-186.59"/>
</a>
</g>
</g>
<!-- Node20 -->
<g id="Node000020" class="node">
<title>Node20</title>
<g id="a_Node000020"><a xlink:href="a01403.html" target="_top" xlink:title=" ">
<polygon fill="white" stroke="#666666" points="599.38,-182 503.12,-182 503.12,-163.5 599.38,-163.5 599.38,-182"/>
<text text-anchor="middle" x="551.25" y="-168.5" font-family="Helvetica,sans-Serif" font-size="10.00">core/arax_object.h</text>
</a>
</g>
</g>
<!-- Node19&#45;&gt;Node20 -->
<g id="edge27_Node000019_Node000020" class="edge">
<title>Node19&#45;&gt;Node20</title>
<g id="a_edge27_Node000019_Node000020"><a xlink:title=" ">
<path fill="none" stroke="#63b8ff" d="M482.79,-217.58C495.25,-209.6 513.98,-197.61 528.7,-188.19"/>
<polygon fill="#63b8ff" stroke="#63b8ff" points="530.15,-190.77 536.69,-182.43 526.38,-184.88 530.15,-190.77"/>
</a>
</g>
</g>
<!-- Node20&#45;&gt;Node12 -->
<g id="edge31_Node000020_Node000012" class="edge">
<title>Node20&#45;&gt;Node12</title>
<g id="a_edge31_Node000020_Node000012"><a xlink:title=" ">
<path fill="none" stroke="#63b8ff" d="M548.94,-163.08C547.14,-156.35 544.59,-146.77 542.33,-138.29"/>
<polygon fill="#63b8ff" stroke="#63b8ff" points="545.48,-137.52 539.52,-128.76 538.71,-139.32 545.48,-137.52"/>
</a>
</g>
</g>
<!-- Node21 -->
<g id="Node000021" class="node">
<title>Node21</title>
<g id="a_Node000021"><a xlink:href="a01376.html" target="_top" xlink:title=" ">
<polygon fill="white" stroke="#666666" points="642.88,-127.5 585.62,-127.5 585.62,-109 642.88,-109 642.88,-127.5"/>
<text text-anchor="middle" x="614.25" y="-114" font-family="Helvetica,sans-Serif" font-size="10.00">utils/list.h</text>
</a>
</g>
</g>
<!-- Node20&#45;&gt;Node21 -->
<g id="edge28_Node000020_Node000021" class="edge">
<title>Node20&#45;&gt;Node21</title>
<g id="a_edge28_Node000020_Node000021"><a xlink:title=" ">
<path fill="none" stroke="#63b8ff" d="M561.65,-163.08C570.92,-155.36 584.69,-143.88 595.82,-134.61"/>
<polygon fill="#63b8ff" stroke="#63b8ff" points="597.6,-136.85 603.04,-127.76 593.12,-131.47 597.6,-136.85"/>
</a>
</g>
</g>
<!-- Node22 -->
<g id="Node000022" class="node">
<title>Node22</title>
<g id="a_Node000022"><a xlink:title=" ">
<polygon fill="#e0e0e0" stroke="#999999" points="727.38,-127.5 661.12,-127.5 661.12,-109 727.38,-109 727.38,-127.5"/>
<text text-anchor="middle" x="694.25" y="-114" font-family="Helvetica,sans-Serif" font-size="10.00">arch/alloc.h</text>
</a>
</g>
</g>
<!-- Node20&#45;&gt;Node22 -->
<g id="edge32_Node000020_Node000022" class="edge">
<title>Node20&#45;&gt;Node22</title>
<g id="a_edge32_Node000020_Node000022"><a xlink:title=" ">
<path fill="none" stroke="#63b8ff" d="M574.86,-163.08C598.15,-154.53 633.98,-141.38 660.31,-131.71"/>
<polygon fill="#63b8ff" stroke="#63b8ff" points="661.42,-134.66 669.6,-127.93 659.01,-128.09 661.42,-134.66"/>
</a>
</g>
</g>
<!-- Node21&#45;&gt;Node4 -->
<g id="edge29_Node000021_Node000004" class="edge">
<title>Node21&#45;&gt;Node4</title>
<g id="a_edge29_Node000021_Node000004"><a xlink:title=" ">
<path fill="none" stroke="#63b8ff" d="M630.76,-108.58C646.32,-100.41 669.89,-88.04 688.03,-78.52"/>
<polygon fill="#63b8ff" stroke="#63b8ff" points="689.49,-81.18 696.71,-73.43 686.23,-74.98 689.49,-81.18"/>
</a>
</g>
</g>
<!-- Node21&#45;&gt;Node13 -->
<g id="edge30_Node000021_Node000013" class="edge">
<title>Node21&#45;&gt;Node13</title>
<g id="a_edge30_Node000021_Node000013"><a xlink:title=" ">
<path fill="none" stroke="#63b8ff" d="M602.36,-108.58C591.56,-100.71 575.41,-88.93 562.56,-79.56"/>
<polygon fill="#63b8ff" stroke="#63b8ff" points="565.06,-76.32 554.92,-73.26 560.94,-81.98 565.06,-76.32"/>
</a>
</g>
</g>
<!-- Node23&#45;&gt;Node18 -->
<g id="edge37_Node000023_Node000018" class="edge">
<title>Node23&#45;&gt;Node18</title>
<g id="a_edge37_Node000023_Node000018"><a xlink:title=" ">
<path fill="none" stroke="#63b8ff" d="M662.25,-217.58C662.25,-210.93 662.25,-201.49 662.25,-193.08"/>
<polygon fill="#63b8ff" stroke="#63b8ff" points="665.75,-193.26 662.25,-183.26 658.75,-193.26 665.75,-193.26"/>
</a>
</g>
</g>
<!-- Node24&#45;&gt;Node18 -->
<g id="edge42_Node000024_Node000018" class="edge">
<title>Node24&#45;&gt;Node18</title>
<g id="a_edge42_Node000024_Node000018"><a xlink:title=" ">
<path fill="none" stroke="#63b8ff" d="M401.02,-272.07C435.21,-264.28 485.08,-251.75 527.25,-236.5 566.3,-222.38 609.51,-201.26 636.28,-187.5"/>
<polygon fill="#63b8ff" stroke="#63b8ff" points="637.76,-190.15 645.02,-182.44 634.53,-183.94 637.76,-190.15"/>
</a>
</g>
</g>
<!-- Node25 -->
<g id="Node000025" class="node">
<title>Node25</title>
<g id="a_Node000025"><a xlink:href="a01406.html" target="_top" xlink:title=" ">
<polygon fill="white" stroke="#666666" points="364,-236.5 274.5,-236.5 274.5,-218 364,-218 364,-236.5"/>
<text text-anchor="middle" x="319.25" y="-223" font-family="Helvetica,sans-Serif" font-size="10.00">core/arax_proc.h</text>
</a>
</g>
</g>
<!-- Node24&#45;&gt;Node25 -->
<g id="edge39_Node000024_Node000025" class="edge">
<title>Node24&#45;&gt;Node25</title>
<g id="a_edge39_Node000024_Node000025"><a xlink:title=" ">
<path fill="none" stroke="#63b8ff" d="M353.48,-272.08C347.81,-264.82 339.54,-254.23 332.55,-245.28"/>
<polygon fill="#63b8ff" stroke="#63b8ff" points="334.81,-243.49 325.89,-237.76 329.29,-247.79 334.81,-243.49"/>
</a>
</g>
</g>
<!-- Node25&#45;&gt;Node2 -->
<g id="edge40_Node000025_Node000002" class="edge">
<title>Node25&#45;&gt;Node2</title>
<g id="a_edge40_Node000025_Node000002"><a xlink:title=" ">
<path fill="none" stroke="#63b8ff" d="M300.92,-217.58C283.41,-209.3 256.75,-196.69 236.52,-187.12"/>
<polygon fill="#63b8ff" stroke="#63b8ff" points="238.14,-183.54 227.61,-182.43 235.15,-189.87 238.14,-183.54"/>
</a>
</g>
</g>
<!-- Node25&#45;&gt;Node20 -->
<g id="edge41_Node000025_Node000020" class="edge">
<title>Node25&#45;&gt;Node20</title>
<g id="a_edge41_Node000025_Node000020"><a xlink:title=" ">
<path fill="none" stroke="#63b8ff" d="M357.82,-217.52C397.37,-208.57 459.03,-194.62 502.07,-184.88"/>
<polygon fill="#63b8ff" stroke="#63b8ff" points="502.61,-188.12 511.59,-182.5 501.06,-181.29 502.61,-188.12"/>
</a>
</g>
</g>
<!-- Node26&#45;&gt;Node2 -->
<g id="edge44_Node000026_Node000002" class="edge">
<title>Node26&#45;&gt;Node2</title>
<g id="a_edge44_Node000026_Node000002"><a xlink:title=" ">
<path fill="none" stroke="#63b8ff" d="M647.15,-334.24C558.3,-331.57 364.22,-322.24 306.25,-291 263.97,-268.21 232.47,-219.01 217.66,-192.15"/>
<polygon fill="#63b8ff" stroke="#63b8ff" points="220.29,-190.64 212.5,-183.45 214.1,-193.93 220.29,-190.64"/>
</a>
</g>
</g>
<!-- Node26&#45;&gt;Node11 -->
<g id="edge47_Node000026_Node000011" class="edge">
<title>Node26&#45;&gt;Node11</title>
<g id="a_edge47_Node000026_Node000011"><a xlink:title=" ">
<path fill="none" stroke="#63b8ff" d="M704.62,-326.76C716.05,-318.51 733.06,-305.18 745.25,-291 782.16,-248.04 796.02,-236.55 811.25,-182 813.46,-174.08 814.43,-171.08 811.25,-163.5 806.49,-152.13 797.22,-142.21 788.33,-134.66"/>
<polygon fill="#63b8ff" stroke="#63b8ff" points="790.77,-131.34 780.74,-127.93 786.45,-136.85 790.77,-131.34"/>
</a>
</g>
</g>
<!-- Node26&#45;&gt;Node17 -->
<g id="edge48_Node000026_Node000017" class="edge">
<title>Node26&#45;&gt;Node17</title>
<g id="a_edge48_Node000026_Node000017"><a xlink:title=" ">
<path fill="none" stroke="#63b8ff" d="M655.34,-326.52C617.65,-317.61 558.99,-303.74 517.83,-294"/>
<polygon fill="#63b8ff" stroke="#63b8ff" points="518.78,-290.39 508.25,-291.5 517.17,-297.21 518.78,-290.39"/>
</a>
</g>
</g>
<!-- Node26&#45;&gt;Node18 -->
<g id="edge46_Node000026_Node000018" class="edge">
<title>Node26&#45;&gt;Node18</title>
<g id="a_edge46_Node000026_Node000018"><a xlink:title=" ">
<path fill="none" stroke="#63b8ff" d="M700.6,-326.61C718.85,-306.63 758.98,-256.06 737.25,-218 728.52,-202.71 712.2,-192.17 697.02,-185.23"/>
<polygon fill="#63b8ff" stroke="#63b8ff" points="698.87,-181.79 688.29,-181.17 696.17,-188.25 698.87,-181.79"/>
</a>
</g>
</g>
<!-- Node26&#45;&gt;Node20 -->
<g id="edge45_Node000026_Node000020" class="edge">
<title>Node26&#45;&gt;Node20</title>
<g id="a_edge45_Node000026_Node000020"><a xlink:title=" ">
<path fill="none" stroke="#63b8ff" d="M684.27,-326.64C668.54,-309.62 632.53,-270.37 603.25,-236.5 590,-221.17 575.3,-203.35 564.92,-190.63"/>
<polygon fill="#63b8ff" stroke="#63b8ff" points="567.23,-188.92 558.2,-183.37 561.8,-193.34 567.23,-188.92"/>
</a>
</g>
</g>
<!-- Node27&#45;&gt;Node4 -->
<g id="edge50_Node000027_Node000004" class="edge">
<title>Node27&#45;&gt;Node4</title>
<g id="a_edge50_Node000027_Node000004"><a xlink:title=" ">
<path fill="none" stroke="#63b8ff" d="M912.12,-217.84C903.01,-205.51 885.16,-182.01 868.25,-163.5 844.61,-137.62 840.27,-128.66 811.25,-109 791.99,-95.95 768.25,-85.04 749.08,-77.32"/>
<polygon fill="#63b8ff" stroke="#63b8ff" points="750.54,-73.75 739.96,-73.37 748,-80.27 750.54,-73.75"/>
</a>
</g>
</g>
<!-- Node28&#45;&gt;Node4 -->
<g id="edge52_Node000028_Node000004" class="edge">
<title>Node28&#45;&gt;Node4</title>
<g id="a_edge52_Node000028_Node000004"><a xlink:title=" ">
<path fill="none" stroke="#63b8ff" d="M961.59,-326.52C968.18,-308.46 982.25,-265.56 982.25,-228.25 982.25,-228.25 982.25,-228.25 982.25,-171.75 982.25,-122.43 823.72,-85.68 750.51,-71.34"/>
<polygon fill="#63b8ff" stroke="#63b8ff" points="751.43,-67.76 740.95,-69.31 750.11,-74.63 751.43,-67.76"/>
</a>
</g>
</g>
<!-- Node29 -->
<g id="Node000029" class="node">
<title>Node29</title>
<g id="a_Node000029"><a xlink:title=" ">
<polygon fill="#e0e0e0" stroke="#999999" points="1076,-291 1010.5,-291 1010.5,-272.5 1076,-272.5 1076,-291"/>
<text text-anchor="middle" x="1043.25" y="-277.5" font-family="Helvetica,sans-Serif" font-size="10.00">sys/types.h</text>
</a>
</g>
</g>
<!-- Node28&#45;&gt;Node29 -->
<g id="edge53_Node000028_Node000029" class="edge">
<title>Node28&#45;&gt;Node29</title>
<g id="a_edge53_Node000028_Node000029"><a xlink:title=" ">
<path fill="none" stroke="#63b8ff" d="M972.29,-326.58C985.21,-318.6 1004.62,-306.61 1019.88,-297.19"/>
<polygon fill="#63b8ff" stroke="#63b8ff" points="1021.52,-299.66 1028.19,-291.43 1017.85,-293.71 1021.52,-299.66"/>
</a>
</g>
</g>
<!-- Node30&#45;&gt;Node2 -->
<g id="edge55_Node000030_Node000002" class="edge">
<title>Node30&#45;&gt;Node2</title>
<g id="a_edge55_Node000030_Node000002"><a xlink:title=" ">
<path fill="none" stroke="#63b8ff" d="M77.11,-326.77C79.64,-305.82 88.87,-250.9 118.25,-218 133.54,-200.88 156.96,-189.65 176.07,-182.79"/>
<polygon fill="#63b8ff" stroke="#63b8ff" points="177.07,-185.82 185.45,-179.34 174.86,-179.18 177.07,-185.82"/>
</a>
</g>
</g>
<!-- Node30&#45;&gt;Node31 -->
<g id="edge56_Node000030_Node000031" class="edge">
<title>Node30&#45;&gt;Node31</title>
<g id="a_edge56_Node000030_Node000031"><a xlink:title=" ">
<path fill="none" stroke="#63b8ff" d="M67.83,-326.58C60.55,-319.09 49.84,-308.06 40.98,-298.94"/>
<polygon fill="#63b8ff" stroke="#63b8ff" points="43.99,-296.99 34.51,-292.26 38.97,-301.87 43.99,-296.99"/>
</a>
</g>
</g>
</g>
</svg>
