<?xml version="1.0" encoding="UTF-8" standalone="no"?>
<!DOCTYPE svg PUBLIC "-//W3C//DTD SVG 1.1//EN"
 "http://www.w3.org/Graphics/SVG/1.1/DTD/svg11.dtd">
<!-- Generated by graphviz version 8.0.5 (0)
 -->
<!-- Title: init_top Pages: 1 -->
<svg width="394pt" height="138pt"
 viewBox="0.00 0.00 393.75 137.50" xmlns="http://www.w3.org/2000/svg" xmlns:xlink="http://www.w3.org/1999/xlink">
<g id="graph0" class="graph" transform="scale(1 1) rotate(0) translate(4 133.5)">
<title>init_top</title>
<!-- Node1 -->
<g id="Node000001" class="node">
<title>Node1</title>
<g id="a_Node000001"><a xlink:title=" ">
<polygon fill="#999999" stroke="#666666" points="385.75,-92.5 338.25,-92.5 338.25,-74 385.75,-74 385.75,-92.5"/>
<text text-anchor="middle" x="362" y="-79" font-family="Helvetica,sans-Serif" font-size="10.00">init_top</text>
</a>
</g>
</g>
<!-- Node2 -->
<g id="Node000002" class="node">
<title>Node2</title>
<g id="a_Node000002"><a xlink:href="a01889.html#aecee517bb2a61c5b79a745f3e0b4aa86" target="_top" xlink:title=" ">
<polygon fill="white" stroke="#666666" points="302.25,-129.5 227.75,-129.5 227.75,-111 302.25,-111 302.25,-129.5"/>
<text text-anchor="middle" x="265" y="-116" font-family="Helvetica,sans-Serif" font-size="10.00">add_segment</text>
</a>
</g>
</g>
<!-- Node1&#45;&gt;Node2 -->
<g id="edge1_Node000001_Node000002" class="edge">
<title>Node1&#45;&gt;Node2</title>
<g id="a_edge1_Node000001_Node000002"><a xlink:title=" ">
<path fill="none" stroke="#63b8ff" d="M327.76,-96.19C315.61,-100.93 302.07,-106.2 290.78,-110.6"/>
<polygon fill="#63b8ff" stroke="#63b8ff" points="328.96,-99.1 337,-92.21 326.41,-92.57 328.96,-99.1"/>
</a>
</g>
</g>
<!-- Node3 -->
<g id="Node000003" class="node">
<title>Node3</title>
<g id="a_Node000003"><a xlink:href="a01889.html#a726dbaacf5aca0a8435e3ce4d44844f4" target="_top" xlink:title=" ">
<polygon fill="white" stroke="#666666" points="173.38,-129.5 117.62,-129.5 117.62,-111 173.38,-111 173.38,-129.5"/>
<text text-anchor="middle" x="145.5" y="-116" font-family="Helvetica,sans-Serif" font-size="10.00">sys_alloc</text>
</a>
</g>
</g>
<!-- Node1&#45;&gt;Node3 -->
<g id="edge4_Node000001_Node000003" class="edge">
<title>Node1&#45;&gt;Node3</title>
<g id="a_edge4_Node000001_Node000003"><a xlink:title=" ">
<path fill="none" stroke="#63b8ff" d="M327,-87.37C300,-90.82 261.35,-96.14 227.75,-102.25 209.7,-105.53 189.56,-109.99 173.85,-113.64"/>
<polygon fill="#63b8ff" stroke="#63b8ff" points="327.32,-90.73 336.8,-86.01 326.45,-83.79 327.32,-90.73"/>
</a>
</g>
</g>
<!-- Node5 -->
<g id="Node000005" class="node">
<title>Node5</title>
<g id="a_Node000005"><a xlink:href="a01889.html#a3de256edbbbbd4018cd3563f55ee50ab" target="_top" xlink:title=" ">
<polygon fill="white" stroke="#666666" points="291,-55.5 239,-55.5 239,-37 291,-37 291,-55.5"/>
<text text-anchor="middle" x="265" y="-42" font-family="Helvetica,sans-Serif" font-size="10.00">sys_trim</text>
</a>
</g>
</g>
<!-- Node1&#45;&gt;Node5 -->
<g id="edge5_Node000001_Node000005" class="edge">
<title>Node1&#45;&gt;Node5</title>
<g id="a_edge5_Node000001_Node000005"><a xlink:title=" ">
<path fill="none" stroke="#63b8ff" d="M327.76,-70.31C315.61,-65.57 302.07,-60.3 290.78,-55.9"/>
<polygon fill="#63b8ff" stroke="#63b8ff" points="326.41,-73.93 337,-74.29 328.96,-67.4 326.41,-73.93"/>
</a>
</g>
</g>
<!-- Node2&#45;&gt;Node3 -->
<g id="edge2_Node000002_Node000003" class="edge">
<title>Node2&#45;&gt;Node3</title>
<g id="a_edge2_Node000002_Node000003"><a xlink:title=" ">
<path fill="none" stroke="#63b8ff" d="M216.56,-120.25C201.97,-120.25 186.41,-120.25 173.68,-120.25"/>
<polygon fill="#63b8ff" stroke="#63b8ff" points="216.47,-123.75 226.47,-120.25 216.47,-116.75 216.47,-123.75"/>
</a>
</g>
</g>
<!-- Node4 -->
<g id="Node000004" class="node">
<title>Node4</title>
<g id="a_Node000004"><a xlink:href="a01889.html#a018ffd885ac72f4cb8ac0f972f6b4900" target="_top" xlink:title=" ">
<polygon fill="white" stroke="#666666" points="57.62,-129.5 5.62,-129.5 5.62,-111 57.62,-111 57.62,-129.5"/>
<text text-anchor="middle" x="31.62" y="-116" font-family="Helvetica,sans-Serif" font-size="10.00">dlmalloc</text>
</a>
</g>
</g>
<!-- Node3&#45;&gt;Node4 -->
<g id="edge3_Node000003_Node000004" class="edge">
<title>Node3&#45;&gt;Node4</title>
<g id="a_edge3_Node000003_Node000004"><a xlink:title=" ">
<path fill="none" stroke="#63b8ff" d="M106.44,-120.25C90.39,-120.25 72.14,-120.25 57.8,-120.25"/>
<polygon fill="#63b8ff" stroke="#63b8ff" points="106.13,-123.75 116.13,-120.25 106.13,-116.75 106.13,-123.75"/>
</a>
</g>
</g>
<!-- Node6 -->
<g id="Node000006" class="node">
<title>Node6</title>
<g id="a_Node000006"><a xlink:href="a01889.html#a1b80f9ee2d497077e4741029c8e23700" target="_top" xlink:title=" ">
<polygon fill="white" stroke="#666666" points="165.5,-92.5 125.5,-92.5 125.5,-74 165.5,-74 165.5,-92.5"/>
<text text-anchor="middle" x="145.5" y="-79" font-family="Helvetica,sans-Serif" font-size="10.00">dlfree</text>
</a>
</g>
</g>
<!-- Node5&#45;&gt;Node6 -->
<g id="edge6_Node000005_Node000006" class="edge">
<title>Node5&#45;&gt;Node6</title>
<g id="a_edge6_Node000005_Node000006"><a xlink:title=" ">
<path fill="none" stroke="#63b8ff" d="M228.23,-57.51C207.67,-63.99 182.66,-71.86 165.76,-77.19"/>
<polygon fill="#63b8ff" stroke="#63b8ff" points="229.02,-60.62 237.5,-54.28 226.91,-53.94 229.02,-60.62"/>
</a>
</g>
</g>
<!-- Node7 -->
<g id="Node000007" class="node">
<title>Node7</title>
<g id="a_Node000007"><a xlink:href="a01889.html#a0cb0780a1d244f7541f85d2ece3999fc" target="_top" xlink:title=" ">
<polygon fill="white" stroke="#666666" points="182.38,-55.5 108.62,-55.5 108.62,-37 182.38,-37 182.38,-55.5"/>
<text text-anchor="middle" x="145.5" y="-42" font-family="Helvetica,sans-Serif" font-size="10.00">dlmalloc_trim</text>
</a>
</g>
</g>
<!-- Node5&#45;&gt;Node7 -->
<g id="edge7_Node000005_Node000007" class="edge">
<title>Node5&#45;&gt;Node7</title>
<g id="a_edge7_Node000005_Node000007"><a xlink:title=" ">
<path fill="none" stroke="#63b8ff" d="M227.56,-46.25C213.27,-46.25 196.91,-46.25 182.65,-46.25"/>
<polygon fill="#63b8ff" stroke="#63b8ff" points="227.5,-49.75 237.5,-46.25 227.5,-42.75 227.5,-49.75"/>
</a>
</g>
</g>
<!-- Node8 -->
<g id="Node000008" class="node">
<title>Node8</title>
<g id="a_Node000008"><a xlink:href="a01889.html#aa2888b3de06df35c3b18b31b1e15fe8c" target="_top" xlink:title=" ">
<polygon fill="white" stroke="#666666" points="191.75,-18.5 99.25,-18.5 99.25,0 191.75,0 191.75,-18.5"/>
<text text-anchor="middle" x="145.5" y="-5" font-family="Helvetica,sans-Serif" font-size="10.00">internal_bulk_free</text>
</a>
</g>
</g>
<!-- Node5&#45;&gt;Node8 -->
<g id="edge8_Node000005_Node000008" class="edge">
<title>Node5&#45;&gt;Node8</title>
<g id="a_edge8_Node000005_Node000008"><a xlink:title=" ">
<path fill="none" stroke="#63b8ff" d="M228.29,-35.01C212.04,-29.89 193,-23.89 177.37,-18.97"/>
<polygon fill="#63b8ff" stroke="#63b8ff" points="226.91,-38.56 237.5,-38.22 229.02,-31.88 226.91,-38.56"/>
</a>
</g>
</g>
<!-- Node9 -->
<g id="Node000009" class="node">
<title>Node9</title>
<g id="a_Node000009"><a xlink:href="a01889.html#a8e02204694aaa24ccc23b1cd2c403b7e" target="_top" xlink:title=" ">
<polygon fill="white" stroke="#666666" points="63.25,-18.5 0,-18.5 0,0 63.25,0 63.25,-18.5"/>
<text text-anchor="middle" x="31.62" y="-5" font-family="Helvetica,sans-Serif" font-size="10.00">dlbulk_free</text>
</a>
</g>
</g>
<!-- Node8&#45;&gt;Node9 -->
<g id="edge9_Node000008_Node000009" class="edge">
<title>Node8&#45;&gt;Node9</title>
<g id="a_edge9_Node000008_Node000009"><a xlink:title=" ">
<path fill="none" stroke="#63b8ff" d="M88.04,-9.25C79.67,-9.25 71.31,-9.25 63.71,-9.25"/>
<polygon fill="#63b8ff" stroke="#63b8ff" points="88,-12.75 98,-9.25 88,-5.75 88,-12.75"/>
</a>
</g>
</g>
</g>
</svg>
