<?xml version="1.0" encoding="UTF-8" standalone="no"?>
<!DOCTYPE svg PUBLIC "-//W3C//DTD SVG 1.1//EN"
 "http://www.w3.org/Graphics/SVG/1.1/DTD/svg11.dtd">
<!-- Generated by graphviz version 8.0.5 (0)
 -->
<!-- Title: try_realloc_chunk Pages: 1 -->
<svg width="219pt" height="64pt"
 viewBox="0.00 0.00 218.50 63.50" xmlns="http://www.w3.org/2000/svg" xmlns:xlink="http://www.w3.org/1999/xlink">
<g id="graph0" class="graph" transform="scale(1 1) rotate(0) translate(4 59.5)">
<title>try_realloc_chunk</title>
<!-- Node1 -->
<g id="Node000001" class="node">
<title>Node1</title>
<g id="a_Node000001"><a xlink:title=" ">
<polygon fill="#999999" stroke="#666666" points="93.25,-36.5 0,-36.5 0,-18 93.25,-18 93.25,-36.5"/>
<text text-anchor="middle" x="46.62" y="-23" font-family="Helvetica,sans-Serif" font-size="10.00">try_realloc_chunk</text>
</a>
</g>
</g>
<!-- Node2 -->
<g id="Node000002" class="node">
<title>Node2</title>
<g id="a_Node000002"><a xlink:href="a01889.html#a2d20e33b2d417733503759c0594f882d" target="_top" xlink:title=" ">
<polygon fill="white" stroke="#666666" points="210.5,-55.5 129.25,-55.5 129.25,-37 210.5,-37 210.5,-55.5"/>
<text text-anchor="middle" x="169.88" y="-42" font-family="Helvetica,sans-Serif" font-size="10.00">dispose_chunk</text>
</a>
</g>
</g>
<!-- Node1&#45;&gt;Node2 -->
<g id="edge1_Node000001_Node000002" class="edge">
<title>Node1&#45;&gt;Node2</title>
<g id="a_edge1_Node000001_Node000002"><a xlink:title=" ">
<path fill="none" stroke="#63b8ff" d="M93.46,-34.43C101.58,-35.7 110.07,-37.03 118.3,-38.33"/>
<polygon fill="#63b8ff" stroke="#63b8ff" points="117.51,-41.9 127.93,-39.99 118.59,-34.98 117.51,-41.9"/>
</a>
</g>
</g>
<!-- Node3 -->
<g id="Node000003" class="node">
<title>Node3</title>
<g id="a_Node000003"><a xlink:href="a01889.html#a614d873251d4d24875c099b0fdf89c8d" target="_top" xlink:title=" ">
<polygon fill="white" stroke="#666666" points="206.75,-18.5 133,-18.5 133,0 206.75,0 206.75,-18.5"/>
<text text-anchor="middle" x="169.88" y="-5" font-family="Helvetica,sans-Serif" font-size="10.00">mmap_resize</text>
</a>
</g>
</g>
<!-- Node1&#45;&gt;Node3 -->
<g id="edge2_Node000001_Node000003" class="edge">
<title>Node1&#45;&gt;Node3</title>
<g id="a_edge2_Node000001_Node000003"><a xlink:title=" ">
<path fill="none" stroke="#63b8ff" d="M93.46,-20.44C102.82,-19.06 112.67,-17.59 122.05,-16.2"/>
<polygon fill="#63b8ff" stroke="#63b8ff" points="122.42,-19.54 131.8,-14.61 121.39,-12.61 122.42,-19.54"/>
</a>
</g>
</g>
</g>
</svg>
