<?xml version="1.0" encoding="UTF-8" standalone="no"?>
<!DOCTYPE svg PUBLIC "-//W3C//DTD SVG 1.1//EN"
 "http://www.w3.org/Graphics/SVG/1.1/DTD/svg11.dtd">
<!-- Generated by graphviz version 8.0.5 (0)
 -->
<!-- Title: sys_trim Pages: 1 -->
<svg width="228pt" height="138pt"
 viewBox="0.00 0.00 228.25 137.50" xmlns="http://www.w3.org/2000/svg" xmlns:xlink="http://www.w3.org/1999/xlink">
<g id="graph0" class="graph" transform="scale(1 1) rotate(0) translate(4 133.5)">
<title>sys_trim</title>
<!-- Node1 -->
<g id="Node000001" class="node">
<title>Node1</title>
<g id="a_Node000001"><a xlink:title=" ">
<polygon fill="#999999" stroke="#666666" points="52,-73.5 0,-73.5 0,-55 52,-55 52,-73.5"/>
<text text-anchor="middle" x="26" y="-60" font-family="Helvetica,sans-Serif" font-size="10.00">sys_trim</text>
</a>
</g>
</g>
<!-- Node2 -->
<g id="Node000002" class="node">
<title>Node2</title>
<g id="a_Node000002"><a xlink:href="a01889.html#ab22b9d57eca306724cb8c4f928d0e824" target="_top" xlink:title=" ">
<polygon fill="white" stroke="#666666" points="201.5,-129.5 106.75,-129.5 106.75,-111 201.5,-111 201.5,-129.5"/>
<text text-anchor="middle" x="154.12" y="-116" font-family="Helvetica,sans-Serif" font-size="10.00">has_segment_link</text>
</a>
</g>
</g>
<!-- Node1&#45;&gt;Node2 -->
<g id="edge1_Node000001_Node000002" class="edge">
<title>Node1&#45;&gt;Node2</title>
<g id="a_edge1_Node000001_Node000002"><a xlink:title=" ">
<path fill="none" stroke="#63b8ff" d="M40.49,-73.85C52.49,-82.04 70.77,-93.67 88,-101.25 92.93,-103.42 98.17,-105.42 103.46,-107.24"/>
<polygon fill="#63b8ff" stroke="#63b8ff" points="102.03,-110.78 112.62,-110.52 104.18,-104.12 102.03,-110.78"/>
</a>
</g>
</g>
<!-- Node3 -->
<g id="Node000003" class="node">
<title>Node3</title>
<g id="a_Node000003"><a xlink:href="a01889.html#a09ce4644252dfd54eb489e77d0adfd20" target="_top" xlink:title=" ">
<polygon fill="white" stroke="#666666" points="177.88,-92.5 130.38,-92.5 130.38,-74 177.88,-74 177.88,-92.5"/>
<text text-anchor="middle" x="154.12" y="-79" font-family="Helvetica,sans-Serif" font-size="10.00">init_top</text>
</a>
</g>
</g>
<!-- Node1&#45;&gt;Node3 -->
<g id="edge2_Node000001_Node000003" class="edge">
<title>Node1&#45;&gt;Node3</title>
<g id="a_edge2_Node000001_Node000003"><a xlink:title=" ">
<path fill="none" stroke="#63b8ff" d="M52.22,-68.05C71.48,-70.95 98.2,-74.98 119.31,-78.16"/>
<polygon fill="#63b8ff" stroke="#63b8ff" points="118.66,-81.75 129.07,-79.78 119.7,-74.83 118.66,-81.75"/>
</a>
</g>
</g>
<!-- Node4 -->
<g id="Node000004" class="node">
<title>Node4</title>
<g id="a_Node000004"><a xlink:href="a01889.html#a949111e5f127c26e3b9f11bf26c8038a" target="_top" xlink:title=" ">
<polygon fill="white" stroke="#666666" points="220.25,-55.5 88,-55.5 88,-37 220.25,-37 220.25,-55.5"/>
<text text-anchor="middle" x="154.12" y="-42" font-family="Helvetica,sans-Serif" font-size="10.00">release_unused_segments</text>
</a>
</g>
</g>
<!-- Node1&#45;&gt;Node4 -->
<g id="edge3_Node000001_Node000004" class="edge">
<title>Node1&#45;&gt;Node4</title>
<g id="a_edge3_Node000001_Node000004"><a xlink:title=" ">
<path fill="none" stroke="#63b8ff" d="M52.22,-60.65C59.58,-59.6 68.03,-58.39 76.84,-57.14"/>
<polygon fill="#63b8ff" stroke="#63b8ff" points="77.31,-60.46 86.72,-55.58 76.32,-53.53 77.31,-60.46"/>
</a>
</g>
</g>
<!-- Node5 -->
<g id="Node000005" class="node">
<title>Node5</title>
<g id="a_Node000005"><a xlink:href="a01889.html#adc1656892fa59cbd2e3b60a2608dfefc" target="_top" xlink:title=" ">
<polygon fill="white" stroke="#666666" points="198.88,-18.5 109.38,-18.5 109.38,0 198.88,0 198.88,-18.5"/>
<text text-anchor="middle" x="154.12" y="-5" font-family="Helvetica,sans-Serif" font-size="10.00">segment_holding</text>
</a>
</g>
</g>
<!-- Node1&#45;&gt;Node5 -->
<g id="edge4_Node000001_Node000005" class="edge">
<title>Node1&#45;&gt;Node5</title>
<g id="a_edge4_Node000001_Node000005"><a xlink:title=" ">
<path fill="none" stroke="#63b8ff" d="M41.01,-54.61C53.04,-46.68 71.07,-35.58 88,-28.25 93.01,-26.08 98.33,-24.08 103.7,-22.25"/>
<polygon fill="#63b8ff" stroke="#63b8ff" points="104.54,-25.33 112.99,-18.95 102.4,-18.67 104.54,-25.33"/>
</a>
</g>
</g>
</g>
</svg>
