<?xml version="1.0" encoding="UTF-8" standalone="no"?>
<!DOCTYPE svg PUBLIC "-//W3C//DTD SVG 1.1//EN"
 "http://www.w3.org/Graphics/SVG/1.1/DTD/svg11.dtd">
<!-- Generated by graphviz version 8.0.5 (0)
 -->
<!-- Title: dlmemalign Pages: 1 -->
<svg width="322pt" height="27pt"
 viewBox="0.00 0.00 321.50 26.50" xmlns="http://www.w3.org/2000/svg" xmlns:xlink="http://www.w3.org/1999/xlink">
<g id="graph0" class="graph" transform="scale(1 1) rotate(0) translate(4 22.5)">
<title>dlmemalign</title>
<!-- Node1 -->
<g id="Node000001" class="node">
<title>Node1</title>
<g id="a_Node000001"><a xlink:title=" ">
<polygon fill="#999999" stroke="#666666" points="65.5,-18.5 0,-18.5 0,0 65.5,0 65.5,-18.5"/>
<text text-anchor="middle" x="32.75" y="-5" font-family="Helvetica,sans-Serif" font-size="10.00">dlmemalign</text>
</a>
</g>
</g>
<!-- Node2 -->
<g id="Node000002" class="node">
<title>Node2</title>
<g id="a_Node000002"><a xlink:href="a01889.html#a77bcf00a7c234d2b45926ac02550d634" target="_top" xlink:title=" ">
<polygon fill="white" stroke="#666666" points="196.25,-18.5 101.5,-18.5 101.5,0 196.25,0 196.25,-18.5"/>
<text text-anchor="middle" x="148.88" y="-5" font-family="Helvetica,sans-Serif" font-size="10.00">internal_memalign</text>
</a>
</g>
</g>
<!-- Node1&#45;&gt;Node2 -->
<g id="edge1_Node000001_Node000002" class="edge">
<title>Node1&#45;&gt;Node2</title>
<g id="a_edge1_Node000001_Node000002"><a xlink:title=" ">
<path fill="none" stroke="#63b8ff" d="M65.84,-9.25C73.45,-9.25 81.8,-9.25 90.17,-9.25"/>
<polygon fill="#63b8ff" stroke="#63b8ff" points="90.12,-12.75 100.12,-9.25 90.12,-5.75 90.12,-12.75"/>
</a>
</g>
</g>
<!-- Node3 -->
<g id="Node000003" class="node">
<title>Node3</title>
<g id="a_Node000003"><a xlink:href="a01889.html#a2d20e33b2d417733503759c0594f882d" target="_top" xlink:title=" ">
<polygon fill="white" stroke="#666666" points="313.5,-18.5 232.25,-18.5 232.25,0 313.5,0 313.5,-18.5"/>
<text text-anchor="middle" x="272.88" y="-5" font-family="Helvetica,sans-Serif" font-size="10.00">dispose_chunk</text>
</a>
</g>
</g>
<!-- Node2&#45;&gt;Node3 -->
<g id="edge2_Node000002_Node000003" class="edge">
<title>Node2&#45;&gt;Node3</title>
<g id="a_edge2_Node000002_Node000003"><a xlink:title=" ">
<path fill="none" stroke="#63b8ff" d="M196.69,-9.25C204.73,-9.25 213.12,-9.25 221.25,-9.25"/>
<polygon fill="#63b8ff" stroke="#63b8ff" points="221.13,-12.75 231.13,-9.25 221.13,-5.75 221.13,-12.75"/>
</a>
</g>
</g>
</g>
</svg>
