<?xml version="1.0" encoding="UTF-8" standalone="no"?>
<!DOCTYPE svg PUBLIC "-//W3C//DTD SVG 1.1//EN"
 "http://www.w3.org/Graphics/SVG/1.1/DTD/svg11.dtd">
<!-- Generated by graphviz version 8.0.5 (0)
 -->
<!-- Title: utils_config_get_long Pages: 1 -->
<svg width="777pt" height="77pt"
 viewBox="0.00 0.00 776.75 77.48" xmlns="http://www.w3.org/2000/svg" xmlns:xlink="http://www.w3.org/1999/xlink">
<g id="graph0" class="graph" transform="scale(1 1) rotate(0) translate(4 73.48)">
<title>utils_config_get_long</title>
<!-- Node1 -->
<g id="Node000001" class="node">
<title>Node1</title>
<g id="a_Node000001"><a xlink:title=" ">
<polygon fill="#999999" stroke="#666666" points="107.5,-36.5 0,-36.5 0,-18 107.5,-18 107.5,-36.5"/>
<text text-anchor="middle" x="53.75" y="-23" font-family="Helvetica,sans-Serif" font-size="10.00">utils_config_get_long</text>
</a>
</g>
</g>
<!-- Node2 -->
<g id="Node000002" class="node">
<title>Node2</title>
<g id="a_Node000002"><a xlink:href="a01952.html#a0738274ac3fd171eda6bfb42492bc0d7" target="_top" xlink:title=" ">
<polygon fill="white" stroke="#666666" points="401.62,-55.5 295.62,-55.5 295.62,-37 401.62,-37 401.62,-55.5"/>
<text text-anchor="middle" x="348.62" y="-42" font-family="Helvetica,sans-Serif" font-size="10.00">_utils_config_get_str</text>
</a>
</g>
</g>
<!-- Node1&#45;&gt;Node2 -->
<g id="edge1_Node000001_Node000002" class="edge">
<title>Node1&#45;&gt;Node2</title>
<g id="a_edge1_Node000001_Node000002"><a xlink:title=" ">
<path fill="none" stroke="#63b8ff" d="M107.79,-30.69C157.5,-33.92 231.85,-38.74 284.57,-42.16"/>
<polygon fill="#63b8ff" stroke="#63b8ff" points="284.27,-45.71 294.47,-42.87 284.72,-38.73 284.27,-45.71"/>
</a>
</g>
</g>
<!-- Node7 -->
<g id="Node000007" class="node">
<title>Node7</title>
<g id="a_Node000007"><a xlink:href="a01952.html#a88091e179416d4beec1b5681cfb68742" target="_top" xlink:title=" ">
<polygon fill="white" stroke="#666666" points="258.5,-18.5 143.5,-18.5 143.5,0 258.5,0 258.5,-18.5"/>
<text text-anchor="middle" x="201" y="-5" font-family="Helvetica,sans-Serif" font-size="10.00">utils_config_write_long</text>
</a>
</g>
</g>
<!-- Node1&#45;&gt;Node7 -->
<g id="edge7_Node000001_Node000007" class="edge">
<title>Node1&#45;&gt;Node7</title>
<g id="a_edge7_Node000001_Node000007"><a xlink:title=" ">
<path fill="none" stroke="#63b8ff" d="M107.6,-20.7C115.61,-19.71 123.96,-18.67 132.24,-17.65"/>
<polygon fill="#63b8ff" stroke="#63b8ff" points="132.53,-21.01 142.02,-16.31 131.67,-14.07 132.53,-21.01"/>
</a>
</g>
</g>
<!-- Node3 -->
<g id="Node000003" class="node">
<title>Node3</title>
<g id="a_Node000003"><a xlink:href="a01952.html#a8b687fb4c464903e23504eea3ddc3873" target="_top" xlink:title=" ">
<polygon fill="white" stroke="#666666" points="492.25,-55.5 438.75,-55.5 438.75,-37 492.25,-37 492.25,-55.5"/>
<text text-anchor="middle" x="465.5" y="-42" font-family="Helvetica,sans-Serif" font-size="10.00">conf_get</text>
</a>
</g>
</g>
<!-- Node2&#45;&gt;Node3 -->
<g id="edge2_Node000002_Node000003" class="edge">
<title>Node2&#45;&gt;Node3</title>
<g id="a_edge2_Node000002_Node000003"><a xlink:title=" ">
<path fill="none" stroke="#63b8ff" d="M402.02,-46.25C410.63,-46.25 419.39,-46.25 427.52,-46.25"/>
<polygon fill="#63b8ff" stroke="#63b8ff" points="427.51,-49.75 437.51,-46.25 427.51,-42.75 427.51,-49.75"/>
</a>
</g>
</g>
<!-- Node4 -->
<g id="Node000004" class="node">
<title>Node4</title>
<g id="a_Node000004"><a xlink:href="a01955.html#acde493d3889d6f207d1e122cf4bb1b8c" target="_top" xlink:title=" ">
<polygon fill="white" stroke="#666666" points="768.75,-55.5 683,-55.5 683,-37 768.75,-37 768.75,-55.5"/>
<text text-anchor="middle" x="725.88" y="-42" font-family="Helvetica,sans-Serif" font-size="10.00">system_env_var</text>
</a>
</g>
</g>
<!-- Node3&#45;&gt;Node4 -->
<g id="edge3_Node000003_Node000004" class="edge">
<title>Node3&#45;&gt;Node4</title>
<g id="a_edge3_Node000003_Node000004"><a xlink:title=" ">
<path fill="none" stroke="#63b8ff" d="M492.58,-55.63C503.46,-59.08 516.31,-62.55 528.25,-64.25 580.5,-71.71 594.56,-70.23 647,-64.25 657.86,-63.01 669.4,-60.83 680.19,-58.41"/>
<polygon fill="#63b8ff" stroke="#63b8ff" points="680.74,-61.64 689.67,-55.93 679.13,-54.82 680.74,-61.64"/>
</a>
</g>
</g>
<!-- Node5 -->
<g id="Node000005" class="node">
<title>Node5</title>
<g id="a_Node000005"><a xlink:href="a01955.html#a86c3bfbf6daaf8172e131aa23dc7393c" target="_top" xlink:title=" ">
<polygon fill="white" stroke="#666666" points="631.25,-55.5 544,-55.5 544,-37 631.25,-37 631.25,-55.5"/>
<text text-anchor="middle" x="587.62" y="-42" font-family="Helvetica,sans-Serif" font-size="10.00">system_file_size</text>
</a>
</g>
</g>
<!-- Node3&#45;&gt;Node5 -->
<g id="edge4_Node000003_Node000005" class="edge">
<title>Node3&#45;&gt;Node5</title>
<g id="a_edge4_Node000003_Node000005"><a xlink:title=" ">
<path fill="none" stroke="#63b8ff" d="M492.57,-46.25C504.44,-46.25 518.96,-46.25 533.01,-46.25"/>
<polygon fill="#63b8ff" stroke="#63b8ff" points="532.61,-49.75 542.61,-46.25 532.61,-42.75 532.61,-49.75"/>
</a>
</g>
</g>
<!-- Node6 -->
<g id="Node000006" class="node">
<title>Node6</title>
<g id="a_Node000006"><a xlink:href="a01952.html#a17713c8e9b90065e23b0ec1a225f79ab" target="_top" xlink:title=" ">
<polygon fill="white" stroke="#666666" points="647,-18.5 528.25,-18.5 528.25,0 647,0 647,-18.5"/>
<text text-anchor="middle" x="587.62" y="-5" font-family="Helvetica,sans-Serif" font-size="10.00">utils_config_get_source</text>
</a>
</g>
</g>
<!-- Node3&#45;&gt;Node6 -->
<g id="edge5_Node000003_Node000006" class="edge">
<title>Node3&#45;&gt;Node6</title>
<g id="a_edge5_Node000003_Node000006"><a xlink:title=" ">
<path fill="none" stroke="#63b8ff" d="M492.57,-38.22C507.77,-33.54 527.3,-27.52 544.62,-22.19"/>
<polygon fill="#63b8ff" stroke="#63b8ff" points="545.53,-25.26 554.06,-18.97 543.47,-18.57 545.53,-25.26"/>
</a>
</g>
</g>
<!-- Node6&#45;&gt;Node4 -->
<g id="edge6_Node000006_Node000004" class="edge">
<title>Node6&#45;&gt;Node4</title>
<g id="a_edge6_Node000006_Node000004"><a xlink:title=" ">
<path fill="none" stroke="#63b8ff" d="M624.42,-18.97C641.09,-23.5 661.11,-28.93 678.88,-33.76"/>
<polygon fill="#63b8ff" stroke="#63b8ff" points="677.75,-37.35 688.32,-36.59 679.58,-30.6 677.75,-37.35"/>
</a>
</g>
</g>
<!-- Node8 -->
<g id="Node000008" class="node">
<title>Node8</title>
<g id="a_Node000008"><a xlink:href="a01952.html#a4b9cd8f5d0c205ac6c1fd30f77cbf539" target="_top" xlink:title=" ">
<polygon fill="white" stroke="#666666" points="402.75,-18.5 294.5,-18.5 294.5,0 402.75,0 402.75,-18.5"/>
<text text-anchor="middle" x="348.62" y="-5" font-family="Helvetica,sans-Serif" font-size="10.00">utils_config_write_str</text>
</a>
</g>
</g>
<!-- Node7&#45;&gt;Node8 -->
<g id="edge8_Node000007_Node000008" class="edge">
<title>Node7&#45;&gt;Node8</title>
<g id="a_edge8_Node000007_Node000008"><a xlink:title=" ">
<path fill="none" stroke="#63b8ff" d="M258.72,-9.25C266.74,-9.25 275.03,-9.25 283.17,-9.25"/>
<polygon fill="#63b8ff" stroke="#63b8ff" points="283.16,-12.75 293.16,-9.25 283.16,-5.75 283.16,-12.75"/>
</a>
</g>
</g>
<!-- Node8&#45;&gt;Node3 -->
<g id="edge9_Node000008_Node000003" class="edge">
<title>Node8&#45;&gt;Node3</title>
<g id="a_edge9_Node000008_Node000003"><a xlink:title=" ">
<path fill="none" stroke="#63b8ff" d="M379.81,-18.97C394.61,-23.74 412.55,-29.52 428.1,-34.53"/>
<polygon fill="#63b8ff" stroke="#63b8ff" points="426.83,-38.12 437.42,-37.85 428.97,-31.45 426.83,-38.12"/>
</a>
</g>
</g>
<!-- Node9 -->
<g id="Node000009" class="node">
<title>Node9</title>
<g id="a_Node000009"><a xlink:href="a01952.html#ab87e9691e65d65348749f8dc70f24602" target="_top" xlink:title=" ">
<polygon fill="white" stroke="#666666" points="492.25,-18.5 438.75,-18.5 438.75,0 492.25,0 492.25,-18.5"/>
<text text-anchor="middle" x="465.5" y="-5" font-family="Helvetica,sans-Serif" font-size="10.00">conf_set</text>
</a>
</g>
</g>
<!-- Node8&#45;&gt;Node9 -->
<g id="edge10_Node000008_Node000009" class="edge">
<title>Node8&#45;&gt;Node9</title>
<g id="a_edge10_Node000008_Node000009"><a xlink:title=" ">
<path fill="none" stroke="#63b8ff" d="M403.03,-9.25C411.29,-9.25 419.67,-9.25 427.47,-9.25"/>
<polygon fill="#63b8ff" stroke="#63b8ff" points="427.41,-12.75 437.41,-9.25 427.41,-5.75 427.41,-12.75"/>
</a>
</g>
</g>
<!-- Node9&#45;&gt;Node6 -->
<g id="edge11_Node000009_Node000006" class="edge">
<title>Node9&#45;&gt;Node6</title>
<g id="a_edge11_Node000009_Node000006"><a xlink:title=" ">
<path fill="none" stroke="#63b8ff" d="M492.57,-9.25C500.02,-9.25 508.52,-9.25 517.29,-9.25"/>
<polygon fill="#63b8ff" stroke="#63b8ff" points="517.07,-12.75 527.07,-9.25 517.07,-5.75 517.07,-12.75"/>
</a>
</g>
</g>
</g>
</svg>
