<?xml version="1.0" encoding="UTF-8" standalone="no"?>
<!DOCTYPE svg PUBLIC "-//W3C//DTD SVG 1.1//EN"
 "http://www.w3.org/Graphics/SVG/1.1/DTD/svg11.dtd">
<!-- Generated by graphviz version 12.2.1 (0)
 -->
<!-- Title: arax_accel.c Pages: 1 -->
<svg width="666pt" height="408pt"
 viewBox="0.00 0.00 665.88 408.00" xmlns="http://www.w3.org/2000/svg" xmlns:xlink="http://www.w3.org/1999/xlink">
<g id="graph0" class="graph" transform="scale(1 1) rotate(0) translate(4 404)">
<title>arax_accel.c</title>
<!-- Node1 -->
<g id="Node000001" class="node">
<title>Node1</title>
<g id="a_Node000001"><a xlink:title=" ">
<polygon fill="#999999" stroke="#666666" points="542.75,-400 470.5,-400 470.5,-381.5 542.75,-381.5 542.75,-400"/>
<text text-anchor="middle" x="506.62" y="-386.5" font-family="Helvetica,sans-Serif" font-size="10.00">arax_accel.c</text>
</a>
</g>
</g>
<!-- Node2 -->
<g id="Node000002" class="node">
<title>Node2</title>
<g id="a_Node000002"><a xlink:href="a01358.html" target="_top" xlink:title=" ">
<polygon fill="white" stroke="#666666" points="464.12,-345.5 397.12,-345.5 397.12,-327 464.12,-327 464.12,-345.5"/>
<text text-anchor="middle" x="430.62" y="-332" font-family="Helvetica,sans-Serif" font-size="10.00">arax_pipe.h</text>
</a>
</g>
</g>
<!-- Node1&#45;&gt;Node2 -->
<g id="edge1_Node000001_Node000002" class="edge">
<title>Node1&#45;&gt;Node2</title>
<g id="a_edge1_Node000001_Node000002"><a xlink:title=" ">
<path fill="none" stroke="#63b8ff" d="M494.08,-381.08C482.74,-373.25 465.82,-361.57 452.31,-352.23"/>
<polygon fill="#63b8ff" stroke="#63b8ff" points="454.66,-349.6 444.44,-346.79 450.68,-355.36 454.66,-349.6"/>
</a>
</g>
</g>
<!-- Node26 -->
<g id="Node000026" class="node">
<title>Node26</title>
<g id="a_Node000026"><a xlink:title=" ">
<polygon fill="#e0e0e0" stroke="#999999" points="530.75,-345.5 482.5,-345.5 482.5,-327 530.75,-327 530.75,-345.5"/>
<text text-anchor="middle" x="506.62" y="-332" font-family="Helvetica,sans-Serif" font-size="10.00">string.h</text>
</a>
</g>
</g>
<!-- Node1&#45;&gt;Node26 -->
<g id="edge42_Node000001_Node000026" class="edge">
<title>Node1&#45;&gt;Node26</title>
<g id="a_edge42_Node000001_Node000026"><a xlink:title=" ">
<path fill="none" stroke="#63b8ff" d="M506.62,-381.08C506.62,-374.58 506.62,-365.42 506.62,-357.16"/>
<polygon fill="#63b8ff" stroke="#63b8ff" points="510.13,-357.27 506.63,-347.27 503.13,-357.27 510.13,-357.27"/>
</a>
</g>
</g>
<!-- Node27 -->
<g id="Node000027" class="node">
<title>Node27</title>
<g id="a_Node000027"><a xlink:title=" ">
<polygon fill="#e0e0e0" stroke="#999999" points="596.38,-345.5 548.88,-345.5 548.88,-327 596.38,-327 596.38,-345.5"/>
<text text-anchor="middle" x="572.62" y="-332" font-family="Helvetica,sans-Serif" font-size="10.00">stdlib.h</text>
</a>
</g>
</g>
<!-- Node1&#45;&gt;Node27 -->
<g id="edge43_Node000001_Node000027" class="edge">
<title>Node1&#45;&gt;Node27</title>
<g id="a_edge43_Node000001_Node000027"><a xlink:title=" ">
<path fill="none" stroke="#63b8ff" d="M517.52,-381.08C527.13,-373.44 541.37,-362.11 552.97,-352.88"/>
<polygon fill="#63b8ff" stroke="#63b8ff" points="555.1,-355.66 560.74,-346.7 550.74,-350.19 555.1,-355.66"/>
</a>
</g>
</g>
<!-- Node3 -->
<g id="Node000003" class="node">
<title>Node3</title>
<g id="a_Node000003"><a xlink:href="a01355.html" target="_top" xlink:title=" ">
<polygon fill="white" stroke="#666666" points="173.12,-182 130.12,-182 130.12,-163.5 173.12,-163.5 173.12,-182"/>
<text text-anchor="middle" x="151.62" y="-168.5" font-family="Helvetica,sans-Serif" font-size="10.00">arax.h</text>
</a>
</g>
</g>
<!-- Node2&#45;&gt;Node3 -->
<g id="edge2_Node000002_Node000003" class="edge">
<title>Node2&#45;&gt;Node3</title>
<g id="a_edge2_Node000002_Node000003"><a xlink:title=" ">
<path fill="none" stroke="#63b8ff" d="M396.93,-335.89C333.57,-334.98 198.24,-322.55 144.62,-236.5 136.55,-223.54 139.34,-206.09 143.56,-192.89"/>
<polygon fill="#63b8ff" stroke="#63b8ff" points="146.8,-194.21 147.03,-183.62 140.24,-191.76 146.8,-194.21"/>
</a>
</g>
</g>
<!-- Node10 -->
<g id="Node000010" class="node">
<title>Node10</title>
<g id="a_Node000010"><a xlink:href="a01370.html" target="_top" xlink:title=" ">
<polygon fill="white" stroke="#666666" points="657.88,-182 601.38,-182 601.38,-163.5 657.88,-163.5 657.88,-182"/>
<text text-anchor="middle" x="629.62" y="-168.5" font-family="Helvetica,sans-Serif" font-size="10.00">utils/Kv.h</text>
</a>
</g>
</g>
<!-- Node2&#45;&gt;Node10 -->
<g id="edge10_Node000002_Node000010" class="edge">
<title>Node2&#45;&gt;Node10</title>
<g id="a_edge10_Node000002_Node000010"><a xlink:title=" ">
<path fill="none" stroke="#63b8ff" d="M464.48,-328.24C489.81,-321.74 524.3,-310.13 549.62,-291 584.58,-264.6 609.57,-218.32 621.57,-192.51"/>
<polygon fill="#63b8ff" stroke="#63b8ff" points="624.66,-194.17 625.55,-183.61 618.27,-191.32 624.66,-194.17"/>
</a>
</g>
</g>
<!-- Node16 -->
<g id="Node000016" class="node">
<title>Node16</title>
<g id="a_Node000016"><a xlink:href="a01391.html" target="_top" xlink:title=" ">
<polygon fill="white" stroke="#666666" points="579.38,-182 507.88,-182 507.88,-163.5 579.38,-163.5 579.38,-182"/>
<text text-anchor="middle" x="543.62" y="-168.5" font-family="Helvetica,sans-Serif" font-size="10.00">utils/queue.h</text>
</a>
</g>
</g>
<!-- Node2&#45;&gt;Node16 -->
<g id="edge17_Node000002_Node000016" class="edge">
<title>Node2&#45;&gt;Node16</title>
<g id="a_edge17_Node000002_Node000016"><a xlink:title=" ">
<path fill="none" stroke="#63b8ff" d="M455.87,-326.52C490.02,-313.17 549.55,-284.11 574.62,-236.5 582.74,-221.1 572.07,-203.29 561.09,-190.59"/>
<polygon fill="#63b8ff" stroke="#63b8ff" points="563.76,-188.32 554.35,-183.45 558.67,-193.12 563.76,-188.32"/>
</a>
</g>
</g>
<!-- Node17 -->
<g id="Node000017" class="node">
<title>Node17</title>
<g id="a_Node000017"><a xlink:href="a01403.html" target="_top" xlink:title=" ">
<polygon fill="white" stroke="#666666" points="358.62,-291 264.62,-291 264.62,-272.5 358.62,-272.5 358.62,-291"/>
<text text-anchor="middle" x="311.62" y="-277.5" font-family="Helvetica,sans-Serif" font-size="10.00">core/arax_accel.h</text>
</a>
</g>
</g>
<!-- Node2&#45;&gt;Node17 -->
<g id="edge22_Node000002_Node000017" class="edge">
<title>Node2&#45;&gt;Node17</title>
<g id="a_edge22_Node000002_Node000017"><a xlink:title=" ">
<path fill="none" stroke="#63b8ff" d="M410.97,-326.58C392.11,-318.26 363.36,-305.58 341.63,-295.99"/>
<polygon fill="#63b8ff" stroke="#63b8ff" points="343.25,-292.88 332.69,-292.04 340.43,-299.28 343.25,-292.88"/>
</a>
</g>
</g>
<!-- Node24 -->
<g id="Node000024" class="node">
<title>Node24</title>
<g id="a_Node000024"><a xlink:href="a01424.html" target="_top" xlink:title=" ">
<polygon fill="white" stroke="#666666" points="475.38,-291 385.88,-291 385.88,-272.5 475.38,-272.5 475.38,-291"/>
<text text-anchor="middle" x="430.62" y="-277.5" font-family="Helvetica,sans-Serif" font-size="10.00">core/arax_task.h</text>
</a>
</g>
</g>
<!-- Node2&#45;&gt;Node24 -->
<g id="edge37_Node000002_Node000024" class="edge">
<title>Node2&#45;&gt;Node24</title>
<g id="a_edge37_Node000002_Node000024"><a xlink:title=" ">
<path fill="none" stroke="#63b8ff" d="M430.62,-326.58C430.62,-320.08 430.62,-310.92 430.62,-302.66"/>
<polygon fill="#63b8ff" stroke="#63b8ff" points="434.13,-302.77 430.63,-292.77 427.13,-302.77 434.13,-302.77"/>
</a>
</g>
</g>
<!-- Node4 -->
<g id="Node000004" class="node">
<title>Node4</title>
<g id="a_Node000004"><a xlink:title=" ">
<polygon fill="#e0e0e0" stroke="#999999" points="225.25,-127.5 180,-127.5 180,-109 225.25,-109 225.25,-127.5"/>
<text text-anchor="middle" x="202.62" y="-114" font-family="Helvetica,sans-Serif" font-size="10.00">stdio.h</text>
</a>
</g>
</g>
<!-- Node3&#45;&gt;Node4 -->
<g id="edge3_Node000003_Node000004" class="edge">
<title>Node3&#45;&gt;Node4</title>
<g id="a_edge3_Node000003_Node000004"><a xlink:title=" ">
<path fill="none" stroke="#63b8ff" d="M160.05,-163.08C167.18,-155.74 177.6,-145.01 186.35,-136"/>
<polygon fill="#63b8ff" stroke="#63b8ff" points="188.85,-138.46 193.31,-128.84 183.83,-133.58 188.85,-138.46"/>
</a>
</g>
</g>
<!-- Node5 -->
<g id="Node000005" class="node">
<title>Node5</title>
<g id="a_Node000005"><a xlink:title=" ">
<polygon fill="#e0e0e0" stroke="#999999" points="410.88,-73 360.38,-73 360.38,-54.5 410.88,-54.5 410.88,-73"/>
<text text-anchor="middle" x="385.62" y="-59.5" font-family="Helvetica,sans-Serif" font-size="10.00">stddef.h</text>
</a>
</g>
</g>
<!-- Node3&#45;&gt;Node5 -->
<g id="edge4_Node000003_Node000005" class="edge">
<title>Node3&#45;&gt;Node5</title>
<g id="a_edge4_Node000003_Node000005"><a xlink:title=" ">
<path fill="none" stroke="#63b8ff" d="M167.46,-163.18C190.83,-150.67 236.07,-126.93 275.62,-109 300.69,-97.64 329.58,-86.08 351.46,-77.62"/>
<polygon fill="#63b8ff" stroke="#63b8ff" points="352.71,-80.89 360.79,-74.04 350.2,-74.36 352.71,-80.89"/>
</a>
</g>
</g>
<!-- Node6 -->
<g id="Node000006" class="node">
<title>Node6</title>
<g id="a_Node000006"><a xlink:href="a01361.html" target="_top" xlink:title=" ">
<polygon fill="white" stroke="#666666" points="143.12,-73 70.12,-73 70.12,-54.5 143.12,-54.5 143.12,-73"/>
<text text-anchor="middle" x="106.62" y="-59.5" font-family="Helvetica,sans-Serif" font-size="10.00">arax_types.h</text>
</a>
</g>
</g>
<!-- Node3&#45;&gt;Node6 -->
<g id="edge5_Node000003_Node000006" class="edge">
<title>Node3&#45;&gt;Node6</title>
<g id="a_edge5_Node000003_Node000006"><a xlink:title=" ">
<path fill="none" stroke="#63b8ff" d="M149.77,-163.4C146.9,-151.17 140.84,-127.77 132.62,-109 128.69,-100.02 123.34,-90.59 118.51,-82.75"/>
<polygon fill="#63b8ff" stroke="#63b8ff" points="121.59,-81.06 113.25,-74.52 115.69,-84.83 121.59,-81.06"/>
</a>
</g>
</g>
<!-- Node9 -->
<g id="Node000009" class="node">
<title>Node9</title>
<g id="a_Node000009"><a xlink:href="a01406.html" target="_top" xlink:title=" ">
<polygon fill="white" stroke="#666666" points="123.25,-127.5 0,-127.5 0,-109 123.25,-109 123.25,-127.5"/>
<text text-anchor="middle" x="61.62" y="-114" font-family="Helvetica,sans-Serif" font-size="10.00">core/arax_accel_types.h</text>
</a>
</g>
</g>
<!-- Node3&#45;&gt;Node9 -->
<g id="edge8_Node000003_Node000009" class="edge">
<title>Node3&#45;&gt;Node9</title>
<g id="a_edge8_Node000003_Node000009"><a xlink:title=" ">
<path fill="none" stroke="#63b8ff" d="M136.76,-163.08C123.08,-155.1 102.53,-143.11 86.37,-133.69"/>
<polygon fill="#63b8ff" stroke="#63b8ff" points="88.22,-130.71 77.82,-128.69 84.69,-136.76 88.22,-130.71"/>
</a>
</g>
</g>
<!-- Node7 -->
<g id="Node000007" class="node">
<title>Node7</title>
<g id="a_Node000007"><a xlink:title=" ">
<polygon fill="#e0e0e0" stroke="#999999" points="101.75,-18.5 41.5,-18.5 41.5,0 101.75,0 101.75,-18.5"/>
<text text-anchor="middle" x="71.62" y="-5" font-family="Helvetica,sans-Serif" font-size="10.00">sys/time.h</text>
</a>
</g>
</g>
<!-- Node6&#45;&gt;Node7 -->
<g id="edge6_Node000006_Node000007" class="edge">
<title>Node6&#45;&gt;Node7</title>
<g id="a_edge6_Node000006_Node000007"><a xlink:title=" ">
<path fill="none" stroke="#63b8ff" d="M100.85,-54.08C96.16,-47.05 89.39,-36.9 83.55,-28.14"/>
<polygon fill="#63b8ff" stroke="#63b8ff" points="86.6,-26.4 78.14,-20.02 80.77,-30.28 86.6,-26.4"/>
</a>
</g>
</g>
<!-- Node8 -->
<g id="Node000008" class="node">
<title>Node8</title>
<g id="a_Node000008"><a xlink:title=" ">
<polygon fill="#e0e0e0" stroke="#999999" points="163.12,-18.5 120.12,-18.5 120.12,0 163.12,0 163.12,-18.5"/>
<text text-anchor="middle" x="141.62" y="-5" font-family="Helvetica,sans-Serif" font-size="10.00">time.h</text>
</a>
</g>
</g>
<!-- Node6&#45;&gt;Node8 -->
<g id="edge7_Node000006_Node000008" class="edge">
<title>Node6&#45;&gt;Node8</title>
<g id="a_edge7_Node000006_Node000008"><a xlink:title=" ">
<path fill="none" stroke="#63b8ff" d="M112.4,-54.08C117.09,-47.05 123.86,-36.9 129.7,-28.14"/>
<polygon fill="#63b8ff" stroke="#63b8ff" points="132.48,-30.28 135.11,-20.02 126.65,-26.4 132.48,-30.28"/>
</a>
</g>
</g>
<!-- Node9&#45;&gt;Node6 -->
<g id="edge9_Node000009_Node000006" class="edge">
<title>Node9&#45;&gt;Node6</title>
<g id="a_edge9_Node000009_Node000006"><a xlink:title=" ">
<path fill="none" stroke="#63b8ff" d="M69.06,-108.58C75.28,-101.32 84.35,-90.73 92.03,-81.78"/>
<polygon fill="#63b8ff" stroke="#63b8ff" points="94.5,-84.28 98.35,-74.41 89.18,-79.72 94.5,-84.28"/>
</a>
</g>
</g>
<!-- Node10&#45;&gt;Node5 -->
<g id="edge12_Node000010_Node000005" class="edge">
<title>Node10&#45;&gt;Node5</title>
<g id="a_edge12_Node000010_Node000005"><a xlink:title=" ">
<path fill="none" stroke="#63b8ff" d="M637.04,-163.03C647.29,-149.9 663.07,-124.88 649.62,-109 645.95,-104.66 493.76,-81.12 422.15,-70.25"/>
<polygon fill="#63b8ff" stroke="#63b8ff" points="422.89,-66.82 412.48,-68.79 421.84,-73.74 422.89,-66.82"/>
</a>
</g>
</g>
<!-- Node11 -->
<g id="Node000011" class="node">
<title>Node11</title>
<g id="a_Node000011"><a xlink:href="a01364.html" target="_top" xlink:title=" ">
<polygon fill="white" stroke="#666666" points="640.75,-127.5 598.5,-127.5 598.5,-109 640.75,-109 640.75,-127.5"/>
<text text-anchor="middle" x="619.62" y="-114" font-family="Helvetica,sans-Serif" font-size="10.00">conf.h</text>
</a>
</g>
</g>
<!-- Node10&#45;&gt;Node11 -->
<g id="edge11_Node000010_Node000011" class="edge">
<title>Node10&#45;&gt;Node11</title>
<g id="a_edge11_Node000010_Node000011"><a xlink:title=" ">
<path fill="none" stroke="#63b8ff" d="M627.97,-163.08C626.72,-156.51 624.95,-147.21 623.36,-138.87"/>
<polygon fill="#63b8ff" stroke="#63b8ff" points="626.84,-138.41 621.53,-129.24 619.96,-139.72 626.84,-138.41"/>
</a>
</g>
</g>
<!-- Node12 -->
<g id="Node000012" class="node">
<title>Node12</title>
<g id="a_Node000012"><a xlink:href="a01394.html" target="_top" xlink:title=" ">
<polygon fill="white" stroke="#666666" points="580.75,-127.5 520.5,-127.5 520.5,-109 580.75,-109 580.75,-127.5"/>
<text text-anchor="middle" x="550.62" y="-114" font-family="Helvetica,sans-Serif" font-size="10.00">spinlock.h</text>
</a>
</g>
</g>
<!-- Node10&#45;&gt;Node12 -->
<g id="edge13_Node000010_Node000012" class="edge">
<title>Node10&#45;&gt;Node12</title>
<g id="a_edge13_Node000010_Node000012"><a xlink:title=" ">
<path fill="none" stroke="#63b8ff" d="M616.58,-163.08C604.8,-155.25 587.21,-143.57 573.16,-134.23"/>
<polygon fill="#63b8ff" stroke="#63b8ff" points="575.22,-131.39 564.95,-128.77 571.34,-137.22 575.22,-131.39"/>
</a>
</g>
</g>
<!-- Node13 -->
<g id="Node000013" class="node">
<title>Node13</title>
<g id="a_Node000013"><a xlink:title=" ">
<polygon fill="#e0e0e0" stroke="#999999" points="500.38,-73 452.88,-73 452.88,-54.5 500.38,-54.5 500.38,-73"/>
<text text-anchor="middle" x="476.62" y="-59.5" font-family="Helvetica,sans-Serif" font-size="10.00">stdint.h</text>
</a>
</g>
</g>
<!-- Node12&#45;&gt;Node13 -->
<g id="edge14_Node000012_Node000013" class="edge">
<title>Node12&#45;&gt;Node13</title>
<g id="a_edge14_Node000012_Node000013"><a xlink:title=" ">
<path fill="none" stroke="#63b8ff" d="M538.41,-108.58C527.48,-100.83 511.22,-89.29 498.12,-80"/>
<polygon fill="#63b8ff" stroke="#63b8ff" points="500.28,-77.24 490.1,-74.31 496.23,-82.95 500.28,-77.24"/>
</a>
</g>
</g>
<!-- Node14 -->
<g id="Node000014" class="node">
<title>Node14</title>
<g id="a_Node000014"><a xlink:href="a01373.html" target="_top" xlink:title=" ">
<polygon fill="white" stroke="#666666" points="615.12,-73 518.12,-73 518.12,-54.5 615.12,-54.5 615.12,-73"/>
<text text-anchor="middle" x="566.62" y="-59.5" font-family="Helvetica,sans-Serif" font-size="10.00">utils/arax_assert.h</text>
</a>
</g>
</g>
<!-- Node12&#45;&gt;Node14 -->
<g id="edge15_Node000012_Node000014" class="edge">
<title>Node12&#45;&gt;Node14</title>
<g id="a_edge15_Node000012_Node000014"><a xlink:title=" ">
<path fill="none" stroke="#63b8ff" d="M553.27,-108.58C555.29,-101.93 558.17,-92.49 560.74,-84.08"/>
<polygon fill="#63b8ff" stroke="#63b8ff" points="564.02,-85.29 563.59,-74.71 557.33,-83.25 564.02,-85.29"/>
</a>
</g>
</g>
<!-- Node15 -->
<g id="Node000015" class="node">
<title>Node15</title>
<g id="a_Node000015"><a xlink:href="a01382.html" target="_top" xlink:title=" ">
<polygon fill="white" stroke="#666666" points="594.5,-18.5 538.75,-18.5 538.75,0 594.5,0 594.5,-18.5"/>
<text text-anchor="middle" x="566.62" y="-5" font-family="Helvetica,sans-Serif" font-size="10.00">compat.h</text>
</a>
</g>
</g>
<!-- Node14&#45;&gt;Node15 -->
<g id="edge16_Node000014_Node000015" class="edge">
<title>Node14&#45;&gt;Node15</title>
<g id="a_edge16_Node000014_Node000015"><a xlink:title=" ">
<path fill="none" stroke="#63b8ff" d="M566.62,-54.08C566.62,-47.58 566.62,-38.42 566.62,-30.16"/>
<polygon fill="#63b8ff" stroke="#63b8ff" points="570.13,-30.27 566.63,-20.27 563.13,-30.27 570.13,-30.27"/>
</a>
</g>
</g>
<!-- Node16&#45;&gt;Node5 -->
<g id="edge18_Node000016_Node000005" class="edge">
<title>Node16&#45;&gt;Node5</title>
<g id="a_edge18_Node000016_Node000005"><a xlink:title=" ">
<path fill="none" stroke="#63b8ff" d="M507.63,-165.25C469.35,-157.6 412.33,-143.84 397.62,-127.5 387.17,-115.89 384.59,-98.05 384.38,-84.36"/>
<polygon fill="#63b8ff" stroke="#63b8ff" points="387.87,-84.86 384.66,-74.76 380.87,-84.66 387.87,-84.86"/>
</a>
</g>
</g>
<!-- Node16&#45;&gt;Node11 -->
<g id="edge20_Node000016_Node000011" class="edge">
<title>Node16&#45;&gt;Node11</title>
<g id="a_edge20_Node000016_Node000011"><a xlink:title=" ">
<path fill="none" stroke="#63b8ff" d="M556.17,-163.08C567.51,-155.25 584.43,-143.57 597.94,-134.23"/>
<polygon fill="#63b8ff" stroke="#63b8ff" points="599.57,-137.36 605.81,-128.79 595.59,-131.6 599.57,-137.36"/>
</a>
</g>
</g>
<!-- Node16&#45;&gt;Node12 -->
<g id="edge21_Node000016_Node000012" class="edge">
<title>Node16&#45;&gt;Node12</title>
<g id="a_edge21_Node000016_Node000012"><a xlink:title=" ">
<path fill="none" stroke="#63b8ff" d="M544.78,-163.08C545.65,-156.58 546.87,-147.42 547.97,-139.16"/>
<polygon fill="#63b8ff" stroke="#63b8ff" points="551.44,-139.63 549.29,-129.26 544.5,-138.71 551.44,-139.63"/>
</a>
</g>
</g>
<!-- Node16&#45;&gt;Node13 -->
<g id="edge19_Node000016_Node000013" class="edge">
<title>Node16&#45;&gt;Node13</title>
<g id="a_edge19_Node000016_Node000013"><a xlink:title=" ">
<path fill="none" stroke="#63b8ff" d="M536.94,-163.15C530.24,-154.38 519.78,-140.29 511.62,-127.5 502.39,-113.02 492.97,-95.96 486.23,-83.29"/>
<polygon fill="#63b8ff" stroke="#63b8ff" points="489.52,-82.03 481.77,-74.8 483.32,-85.28 489.52,-82.03"/>
</a>
</g>
</g>
<!-- Node17&#45;&gt;Node3 -->
<g id="edge23_Node000017_Node000003" class="edge">
<title>Node17&#45;&gt;Node3</title>
<g id="a_edge23_Node000017_Node000003"><a xlink:title=" ">
<path fill="none" stroke="#63b8ff" d="M264.34,-280.74C228.96,-277.99 182.42,-268 156.62,-236.5 146.87,-224.59 146.34,-206.78 147.83,-193.18"/>
<polygon fill="#63b8ff" stroke="#63b8ff" points="151.23,-194.07 149.33,-183.65 144.32,-192.99 151.23,-194.07"/>
</a>
</g>
</g>
<!-- Node18 -->
<g id="Node000018" class="node">
<title>Node18</title>
<g id="a_Node000018"><a xlink:title=" ">
<polygon fill="#e0e0e0" stroke="#999999" points="343.5,-182 293.75,-182 293.75,-163.5 343.5,-163.5 343.5,-182"/>
<text text-anchor="middle" x="318.62" y="-168.5" font-family="Helvetica,sans-Serif" font-size="10.00">async.h</text>
</a>
</g>
</g>
<!-- Node17&#45;&gt;Node18 -->
<g id="edge24_Node000017_Node000018" class="edge">
<title>Node17&#45;&gt;Node18</title>
<g id="a_edge24_Node000017_Node000018"><a xlink:title=" ">
<path fill="none" stroke="#63b8ff" d="M311.44,-272.21C311.25,-260.12 311.16,-237.34 312.62,-218 313.23,-209.98 314.33,-201.19 315.43,-193.57"/>
<polygon fill="#63b8ff" stroke="#63b8ff" points="318.88,-194.11 316.94,-183.7 311.97,-193.05 318.88,-194.11"/>
</a>
</g>
</g>
<!-- Node19 -->
<g id="Node000019" class="node">
<title>Node19</title>
<g id="a_Node000019"><a xlink:href="a01430.html" target="_top" xlink:title=" ">
<polygon fill="white" stroke="#666666" points="565.88,-236.5 467.38,-236.5 467.38,-218 565.88,-218 565.88,-236.5"/>
<text text-anchor="middle" x="516.62" y="-223" font-family="Helvetica,sans-Serif" font-size="10.00">core/arax_vaccel.h</text>
</a>
</g>
</g>
<!-- Node17&#45;&gt;Node19 -->
<g id="edge25_Node000017_Node000019" class="edge">
<title>Node17&#45;&gt;Node19</title>
<g id="a_edge25_Node000017_Node000019"><a xlink:title=" ">
<path fill="none" stroke="#63b8ff" d="M340.31,-272.08C373.03,-263.21 426.87,-249.38 466.52,-239.63"/>
<polygon fill="#63b8ff" stroke="#63b8ff" points="467.2,-243.06 476.08,-237.29 465.54,-236.26 467.2,-243.06"/>
</a>
</g>
</g>
<!-- Node23 -->
<g id="Node000023" class="node">
<title>Node23</title>
<g id="a_Node000023"><a xlink:href="a01427.html" target="_top" xlink:title=" ">
<polygon fill="white" stroke="#666666" points="266,-236.5 165.25,-236.5 165.25,-218 266,-218 266,-236.5"/>
<text text-anchor="middle" x="215.62" y="-223" font-family="Helvetica,sans-Serif" font-size="10.00">core/arax_throttle.h</text>
</a>
</g>
</g>
<!-- Node17&#45;&gt;Node23 -->
<g id="edge35_Node000017_Node000023" class="edge">
<title>Node17&#45;&gt;Node23</title>
<g id="a_edge35_Node000017_Node000023"><a xlink:title=" ">
<path fill="none" stroke="#63b8ff" d="M295.77,-272.08C281.04,-264.03 258.84,-251.88 241.53,-242.42"/>
<polygon fill="#63b8ff" stroke="#63b8ff" points="243.28,-239.39 232.83,-237.66 239.92,-245.53 243.28,-239.39"/>
</a>
</g>
</g>
<!-- Node19&#45;&gt;Node16 -->
<g id="edge32_Node000019_Node000016" class="edge">
<title>Node19&#45;&gt;Node16</title>
<g id="a_edge32_Node000019_Node000016"><a xlink:title=" ">
<path fill="none" stroke="#63b8ff" d="M521.08,-217.58C524.62,-210.7 529.69,-200.84 534.13,-192.21"/>
<polygon fill="#63b8ff" stroke="#63b8ff" points="537.1,-194.1 538.56,-183.6 530.87,-190.9 537.1,-194.1"/>
</a>
</g>
</g>
<!-- Node19&#45;&gt;Node17 -->
<g id="edge33_Node000019_Node000017" class="edge">
<title>Node19&#45;&gt;Node17</title>
<g id="a_edge33_Node000019_Node000017"><a xlink:title=" ">
<path fill="none" stroke="#63b8ff" d="M487.89,-236.93C455.15,-245.81 401.31,-259.64 361.67,-269.39"/>
<polygon fill="#63b8ff" stroke="#63b8ff" points="361,-265.95 352.11,-271.72 362.66,-272.75 361,-265.95"/>
</a>
</g>
</g>
<!-- Node19&#45;&gt;Node18 -->
<g id="edge34_Node000019_Node000018" class="edge">
<title>Node19&#45;&gt;Node18</title>
<g id="a_edge34_Node000019_Node000018"><a xlink:title=" ">
<path fill="none" stroke="#63b8ff" d="M483.93,-217.58C448.29,-208.13 391.44,-193.06 354.58,-183.28"/>
<polygon fill="#63b8ff" stroke="#63b8ff" points="355.85,-180 345.28,-180.82 354.05,-186.76 355.85,-180"/>
</a>
</g>
</g>
<!-- Node20 -->
<g id="Node000020" class="node">
<title>Node20</title>
<g id="a_Node000020"><a xlink:href="a01415.html" target="_top" xlink:title=" ">
<polygon fill="white" stroke="#666666" points="483.75,-182 387.5,-182 387.5,-163.5 483.75,-163.5 483.75,-182"/>
<text text-anchor="middle" x="435.62" y="-168.5" font-family="Helvetica,sans-Serif" font-size="10.00">core/arax_object.h</text>
</a>
</g>
</g>
<!-- Node19&#45;&gt;Node20 -->
<g id="edge26_Node000019_Node000020" class="edge">
<title>Node19&#45;&gt;Node20</title>
<g id="a_edge26_Node000019_Node000020"><a xlink:title=" ">
<path fill="none" stroke="#63b8ff" d="M503.25,-217.58C491.06,-209.68 472.79,-197.84 458.31,-188.46"/>
<polygon fill="#63b8ff" stroke="#63b8ff" points="460.59,-185.76 450.29,-183.26 456.78,-191.63 460.59,-185.76"/>
</a>
</g>
</g>
<!-- Node20&#45;&gt;Node12 -->
<g id="edge30_Node000020_Node000012" class="edge">
<title>Node20&#45;&gt;Node12</title>
<g id="a_edge30_Node000020_Node000012"><a xlink:title=" ">
<path fill="none" stroke="#63b8ff" d="M454.61,-163.08C472.76,-154.8 500.37,-142.19 521.34,-132.62"/>
<polygon fill="#63b8ff" stroke="#63b8ff" points="522.59,-135.9 530.23,-128.56 519.68,-129.53 522.59,-135.9"/>
</a>
</g>
</g>
<!-- Node21 -->
<g id="Node000021" class="node">
<title>Node21</title>
<g id="a_Node000021"><a xlink:href="a01388.html" target="_top" xlink:title=" ">
<polygon fill="white" stroke="#666666" points="464.25,-127.5 407,-127.5 407,-109 464.25,-109 464.25,-127.5"/>
<text text-anchor="middle" x="435.62" y="-114" font-family="Helvetica,sans-Serif" font-size="10.00">utils/list.h</text>
</a>
</g>
</g>
<!-- Node20&#45;&gt;Node21 -->
<g id="edge27_Node000020_Node000021" class="edge">
<title>Node20&#45;&gt;Node21</title>
<g id="a_edge27_Node000020_Node000021"><a xlink:title=" ">
<path fill="none" stroke="#63b8ff" d="M435.62,-163.08C435.62,-156.58 435.62,-147.42 435.62,-139.16"/>
<polygon fill="#63b8ff" stroke="#63b8ff" points="439.13,-139.27 435.63,-129.27 432.13,-139.27 439.13,-139.27"/>
</a>
</g>
</g>
<!-- Node22 -->
<g id="Node000022" class="node">
<title>Node22</title>
<g id="a_Node000022"><a xlink:title=" ">
<polygon fill="#e0e0e0" stroke="#999999" points="350.75,-127.5 284.5,-127.5 284.5,-109 350.75,-109 350.75,-127.5"/>
<text text-anchor="middle" x="317.62" y="-114" font-family="Helvetica,sans-Serif" font-size="10.00">arch/alloc.h</text>
</a>
</g>
</g>
<!-- Node20&#45;&gt;Node22 -->
<g id="edge31_Node000020_Node000022" class="edge">
<title>Node20&#45;&gt;Node22</title>
<g id="a_edge31_Node000020_Node000022"><a xlink:title=" ">
<path fill="none" stroke="#63b8ff" d="M416.14,-163.08C397.44,-154.76 368.93,-142.08 347.38,-132.49"/>
<polygon fill="#63b8ff" stroke="#63b8ff" points="349.08,-129.41 338.52,-128.55 346.24,-135.81 349.08,-129.41"/>
</a>
</g>
</g>
<!-- Node21&#45;&gt;Node5 -->
<g id="edge28_Node000021_Node000005" class="edge">
<title>Node21&#45;&gt;Node5</title>
<g id="a_edge28_Node000021_Node000005"><a xlink:title=" ">
<path fill="none" stroke="#63b8ff" d="M427.37,-108.58C420.38,-101.24 410.16,-90.51 401.58,-81.5"/>
<polygon fill="#63b8ff" stroke="#63b8ff" points="404.2,-79.18 394.77,-74.35 399.13,-84.01 404.2,-79.18"/>
</a>
</g>
</g>
<!-- Node21&#45;&gt;Node13 -->
<g id="edge29_Node000021_Node000013" class="edge">
<title>Node21&#45;&gt;Node13</title>
<g id="a_edge29_Node000021_Node000013"><a xlink:title=" ">
<path fill="none" stroke="#63b8ff" d="M442.4,-108.58C448.01,-101.39 456.16,-90.95 463.1,-82.07"/>
<polygon fill="#63b8ff" stroke="#63b8ff" points="465.65,-84.49 469.05,-74.45 460.14,-80.18 465.65,-84.49"/>
</a>
</g>
</g>
<!-- Node23&#45;&gt;Node18 -->
<g id="edge36_Node000023_Node000018" class="edge">
<title>Node23&#45;&gt;Node18</title>
<g id="a_edge36_Node000023_Node000018"><a xlink:title=" ">
<path fill="none" stroke="#63b8ff" d="M232.63,-217.58C248.59,-209.45 272.71,-197.15 291.35,-187.65"/>
<polygon fill="#63b8ff" stroke="#63b8ff" points="292.92,-190.78 300.24,-183.12 289.74,-184.54 292.92,-190.78"/>
</a>
</g>
</g>
<!-- Node24&#45;&gt;Node18 -->
<g id="edge41_Node000024_Node000018" class="edge">
<title>Node24&#45;&gt;Node18</title>
<g id="a_edge41_Node000024_Node000018"><a xlink:title=" ">
<path fill="none" stroke="#63b8ff" d="M431.69,-272.03C432.79,-258.89 432.93,-233.86 420.62,-218 404.71,-197.48 377.35,-186.31 354.97,-180.32"/>
<polygon fill="#63b8ff" stroke="#63b8ff" points="355.82,-176.93 345.28,-178 354.18,-183.73 355.82,-176.93"/>
</a>
</g>
</g>
<!-- Node25 -->
<g id="Node000025" class="node">
<title>Node25</title>
<g id="a_Node000025"><a xlink:href="a01418.html" target="_top" xlink:title=" ">
<polygon fill="white" stroke="#666666" points="411.38,-236.5 321.88,-236.5 321.88,-218 411.38,-218 411.38,-236.5"/>
<text text-anchor="middle" x="366.62" y="-223" font-family="Helvetica,sans-Serif" font-size="10.00">core/arax_proc.h</text>
</a>
</g>
</g>
<!-- Node24&#45;&gt;Node25 -->
<g id="edge38_Node000024_Node000025" class="edge">
<title>Node24&#45;&gt;Node25</title>
<g id="a_edge38_Node000024_Node000025"><a xlink:title=" ">
<path fill="none" stroke="#63b8ff" d="M420.06,-272.08C410.74,-264.44 396.93,-253.11 385.68,-243.88"/>
<polygon fill="#63b8ff" stroke="#63b8ff" points="388.12,-241.35 378.17,-237.72 383.68,-246.77 388.12,-241.35"/>
</a>
</g>
</g>
<!-- Node25&#45;&gt;Node3 -->
<g id="edge39_Node000025_Node000003" class="edge">
<title>Node25&#45;&gt;Node3</title>
<g id="a_edge39_Node000025_Node000003"><a xlink:title=" ">
<path fill="none" stroke="#63b8ff" d="M331.12,-217.58C290.39,-207.64 224.15,-191.46 184.54,-181.79"/>
<polygon fill="#63b8ff" stroke="#63b8ff" points="185.41,-178.4 174.87,-179.43 183.75,-185.2 185.41,-178.4"/>
</a>
</g>
</g>
<!-- Node25&#45;&gt;Node20 -->
<g id="edge40_Node000025_Node000020" class="edge">
<title>Node25&#45;&gt;Node20</title>
<g id="a_edge40_Node000025_Node000020"><a xlink:title=" ">
<path fill="none" stroke="#63b8ff" d="M378.02,-217.58C388.17,-209.86 403.25,-198.38 415.44,-189.11"/>
<polygon fill="#63b8ff" stroke="#63b8ff" points="417.4,-192.02 423.24,-183.17 413.16,-186.44 417.4,-192.02"/>
</a>
</g>
</g>
</g>
</svg>
