<?xml version="1.0" encoding="UTF-8" standalone="no"?>
<!DOCTYPE svg PUBLIC "-//W3C//DTD SVG 1.1//EN"
 "http://www.w3.org/Graphics/SVG/1.1/DTD/svg11.dtd">
<!-- Generated by graphviz version 12.2.1 (0)
 -->
<!-- Title: arax_accel_types.c Pages: 1 -->
<svg width="181pt" height="136pt"
 viewBox="0.00 0.00 180.88 135.50" xmlns="http://www.w3.org/2000/svg" xmlns:xlink="http://www.w3.org/1999/xlink">
<g id="graph0" class="graph" transform="scale(1 1) rotate(0) translate(4 131.5)">
<title>arax_accel_types.c</title>
<!-- Node1 -->
<g id="Node000001" class="node">
<title>Node1</title>
<g id="a_Node000001"><a xlink:title=" ">
<polygon fill="#999999" stroke="#666666" points="155.88,-127.5 54.38,-127.5 54.38,-109 155.88,-109 155.88,-127.5"/>
<text text-anchor="middle" x="105.12" y="-114" font-family="Helvetica,sans-Serif" font-size="10.00">arax_accel_types.c</text>
</a>
</g>
</g>
<!-- Node2 -->
<g id="Node000002" class="node">
<title>Node2</title>
<g id="a_Node000002"><a xlink:href="a01361.html" target="_top" xlink:title=" ">
<polygon fill="white" stroke="#666666" points="101.62,-73 28.62,-73 28.62,-54.5 101.62,-54.5 101.62,-73"/>
<text text-anchor="middle" x="65.12" y="-59.5" font-family="Helvetica,sans-Serif" font-size="10.00">arax_types.h</text>
</a>
</g>
</g>
<!-- Node1&#45;&gt;Node2 -->
<g id="edge1_Node000001_Node000002" class="edge">
<title>Node1&#45;&gt;Node2</title>
<g id="a_edge1_Node000001_Node000002"><a xlink:title=" ">
<path fill="none" stroke="#63b8ff" d="M98.52,-108.58C93.1,-101.47 85.26,-91.18 78.53,-82.35"/>
<polygon fill="#63b8ff" stroke="#63b8ff" points="81.37,-80.3 72.52,-74.46 75.8,-84.54 81.37,-80.3"/>
</a>
</g>
</g>
<!-- Node5 -->
<g id="Node000005" class="node">
<title>Node5</title>
<g id="a_Node000005"><a xlink:title=" ">
<polygon fill="#e0e0e0" stroke="#999999" points="172.88,-73 119.38,-73 119.38,-54.5 172.88,-54.5 172.88,-73"/>
<text text-anchor="middle" x="146.12" y="-59.5" font-family="Helvetica,sans-Serif" font-size="10.00">strings.h</text>
</a>
</g>
</g>
<!-- Node1&#45;&gt;Node5 -->
<g id="edge4_Node000001_Node000005" class="edge">
<title>Node1&#45;&gt;Node5</title>
<g id="a_edge4_Node000001_Node000005"><a xlink:title=" ">
<path fill="none" stroke="#63b8ff" d="M111.9,-108.58C117.51,-101.39 125.66,-90.95 132.6,-82.07"/>
<polygon fill="#63b8ff" stroke="#63b8ff" points="135.15,-84.49 138.55,-74.45 129.64,-80.18 135.15,-84.49"/>
</a>
</g>
</g>
<!-- Node3 -->
<g id="Node000003" class="node">
<title>Node3</title>
<g id="a_Node000003"><a xlink:title=" ">
<polygon fill="#e0e0e0" stroke="#999999" points="60.25,-18.5 0,-18.5 0,0 60.25,0 60.25,-18.5"/>
<text text-anchor="middle" x="30.12" y="-5" font-family="Helvetica,sans-Serif" font-size="10.00">sys/time.h</text>
</a>
</g>
</g>
<!-- Node2&#45;&gt;Node3 -->
<g id="edge2_Node000002_Node000003" class="edge">
<title>Node2&#45;&gt;Node3</title>
<g id="a_edge2_Node000002_Node000003"><a xlink:title=" ">
<path fill="none" stroke="#63b8ff" d="M59.35,-54.08C54.66,-47.05 47.89,-36.9 42.05,-28.14"/>
<polygon fill="#63b8ff" stroke="#63b8ff" points="45.1,-26.4 36.64,-20.02 39.27,-30.28 45.1,-26.4"/>
</a>
</g>
</g>
<!-- Node4 -->
<g id="Node000004" class="node">
<title>Node4</title>
<g id="a_Node000004"><a xlink:title=" ">
<polygon fill="#e0e0e0" stroke="#999999" points="121.62,-18.5 78.62,-18.5 78.62,0 121.62,0 121.62,-18.5"/>
<text text-anchor="middle" x="100.12" y="-5" font-family="Helvetica,sans-Serif" font-size="10.00">time.h</text>
</a>
</g>
</g>
<!-- Node2&#45;&gt;Node4 -->
<g id="edge3_Node000002_Node000004" class="edge">
<title>Node2&#45;&gt;Node4</title>
<g id="a_edge3_Node000002_Node000004"><a xlink:title=" ">
<path fill="none" stroke="#63b8ff" d="M70.9,-54.08C75.59,-47.05 82.36,-36.9 88.2,-28.14"/>
<polygon fill="#63b8ff" stroke="#63b8ff" points="90.98,-30.28 93.61,-20.02 85.15,-26.4 90.98,-30.28"/>
</a>
</g>
</g>
</g>
</svg>
