<?xml version="1.0" encoding="UTF-8" standalone="no"?>
<!DOCTYPE svg PUBLIC "-//W3C//DTD SVG 1.1//EN"
 "http://www.w3.org/Graphics/SVG/1.1/DTD/svg11.dtd">
<!-- Generated by graphviz version 8.0.5 (0)
 -->
<!-- Title: arax_throttle_size_inc Pages: 1 -->
<svg width="450pt" height="101pt"
 viewBox="0.00 0.00 449.75 100.50" xmlns="http://www.w3.org/2000/svg" xmlns:xlink="http://www.w3.org/1999/xlink">
<g id="graph0" class="graph" transform="scale(1 1) rotate(0) translate(4 96.5)">
<title>arax_throttle_size_inc</title>
<!-- Node1 -->
<g id="Node000001" class="node">
<title>Node1</title>
<g id="a_Node000001"><a xlink:title=" ">
<polygon fill="#999999" stroke="#666666" points="111.25,-55.5 0,-55.5 0,-37 111.25,-37 111.25,-55.5"/>
<text text-anchor="middle" x="55.62" y="-42" font-family="Helvetica,sans-Serif" font-size="10.00">arax_throttle_size_inc</text>
</a>
</g>
</g>
<!-- Node2 -->
<g id="Node000002" class="node">
<title>Node2</title>
<g id="a_Node000002"><a xlink:href="a02352.html#aed6af4d83e934e3e654ead541b15f2d9" target="_top" xlink:title=" ">
<polygon fill="white" stroke="#666666" points="261.5,-92.5 152.5,-92.5 152.5,-74 261.5,-74 261.5,-92.5"/>
<text text-anchor="middle" x="207" y="-79" font-family="Helvetica,sans-Serif" font-size="10.00">async_condition_lock</text>
</a>
</g>
</g>
<!-- Node1&#45;&gt;Node2 -->
<g id="edge1_Node000001_Node000002" class="edge">
<title>Node1&#45;&gt;Node2</title>
<g id="a_edge1_Node000001_Node000002"><a xlink:title=" ">
<path fill="none" stroke="#63b8ff" d="M95.87,-55.97C114.32,-60.54 136.53,-66.04 156.16,-70.9"/>
<polygon fill="#63b8ff" stroke="#63b8ff" points="155.21,-74.52 165.76,-73.53 156.89,-67.73 155.21,-74.52"/>
</a>
</g>
</g>
<!-- Node4 -->
<g id="Node000004" class="node">
<title>Node4</title>
<g id="a_Node000004"><a xlink:href="a02352.html#a45a896fb606c2aa66a5a4c2af59ce494" target="_top" xlink:title=" ">
<polygon fill="white" stroke="#666666" points="264.5,-55.5 149.5,-55.5 149.5,-37 264.5,-37 264.5,-55.5"/>
<text text-anchor="middle" x="207" y="-42" font-family="Helvetica,sans-Serif" font-size="10.00">async_condition_notify</text>
</a>
</g>
</g>
<!-- Node1&#45;&gt;Node4 -->
<g id="edge3_Node000001_Node000004" class="edge">
<title>Node1&#45;&gt;Node4</title>
<g id="a_edge3_Node000001_Node000004"><a xlink:title=" ">
<path fill="none" stroke="#63b8ff" d="M111.4,-46.25C120.16,-46.25 129.31,-46.25 138.33,-46.25"/>
<polygon fill="#63b8ff" stroke="#63b8ff" points="138.23,-49.75 148.23,-46.25 138.23,-42.75 138.23,-49.75"/>
</a>
</g>
</g>
<!-- Node6 -->
<g id="Node000006" class="node">
<title>Node6</title>
<g id="a_Node000006"><a xlink:href="a02352.html#a3bbcb7c4c024e99d5c4ba52b61dfbbf7" target="_top" xlink:title=" ">
<polygon fill="white" stroke="#666666" points="266.75,-18.5 147.25,-18.5 147.25,0 266.75,0 266.75,-18.5"/>
<text text-anchor="middle" x="207" y="-5" font-family="Helvetica,sans-Serif" font-size="10.00">async_condition_unlock</text>
</a>
</g>
</g>
<!-- Node1&#45;&gt;Node6 -->
<g id="edge5_Node000001_Node000006" class="edge">
<title>Node1&#45;&gt;Node6</title>
<g id="a_edge5_Node000001_Node000006"><a xlink:title=" ">
<path fill="none" stroke="#63b8ff" d="M95.87,-36.53C114.32,-31.96 136.53,-26.46 156.16,-21.6"/>
<polygon fill="#63b8ff" stroke="#63b8ff" points="156.89,-24.77 165.76,-18.97 155.21,-17.98 156.89,-24.77"/>
</a>
</g>
</g>
<!-- Node3 -->
<g id="Node000003" class="node">
<title>Node3</title>
<g id="a_Node000003"><a xlink:href="a02346.html#aebf9e72bb6cbd8b9e33489d46c25075d" target="_top" xlink:title=" ">
<polygon fill="white" stroke="#666666" points="430.5,-92.5 314,-92.5 314,-74 430.5,-74 430.5,-92.5"/>
<text text-anchor="middle" x="372.25" y="-79" font-family="Helvetica,sans-Serif" font-size="10.00">async_completion_wait</text>
</a>
</g>
</g>
<!-- Node2&#45;&gt;Node3 -->
<g id="edge2_Node000002_Node000003" class="edge">
<title>Node2&#45;&gt;Node3</title>
<g id="a_edge2_Node000002_Node000003"><a xlink:title=" ">
<path fill="none" stroke="#63b8ff" d="M261.91,-83.25C275.02,-83.25 289.23,-83.25 302.91,-83.25"/>
<polygon fill="#63b8ff" stroke="#63b8ff" points="302.75,-86.75 312.75,-83.25 302.75,-79.75 302.75,-86.75"/>
</a>
</g>
</g>
<!-- Node5 -->
<g id="Node000005" class="node">
<title>Node5</title>
<g id="a_Node000005"><a xlink:href="a02346.html#a0fa370eee5160963e617d1daf1c07363" target="_top" xlink:title=" ">
<polygon fill="white" stroke="#666666" points="428.62,-55.5 315.88,-55.5 315.88,-37 428.62,-37 428.62,-55.5"/>
<text text-anchor="middle" x="372.25" y="-42" font-family="Helvetica,sans-Serif" font-size="10.00">async_semaphore_inc</text>
</a>
</g>
</g>
<!-- Node4&#45;&gt;Node5 -->
<g id="edge4_Node000004_Node000005" class="edge">
<title>Node4&#45;&gt;Node5</title>
<g id="a_edge4_Node000004_Node000005"><a xlink:title=" ">
<path fill="none" stroke="#63b8ff" d="M264.64,-46.25C277.52,-46.25 291.31,-46.25 304.57,-46.25"/>
<polygon fill="#63b8ff" stroke="#63b8ff" points="304.54,-49.75 314.54,-46.25 304.54,-42.75 304.54,-49.75"/>
</a>
</g>
</g>
<!-- Node7 -->
<g id="Node000007" class="node">
<title>Node7</title>
<g id="a_Node000007"><a xlink:href="a02346.html#ad1d30ecbf6bff6457b680aa940281072" target="_top" xlink:title=" ">
<polygon fill="white" stroke="#666666" points="441.75,-18.5 302.75,-18.5 302.75,0 441.75,0 441.75,-18.5"/>
<text text-anchor="middle" x="372.25" y="-5" font-family="Helvetica,sans-Serif" font-size="10.00">async_completion_complete</text>
</a>
</g>
</g>
<!-- Node6&#45;&gt;Node7 -->
<g id="edge6_Node000006_Node000007" class="edge">
<title>Node6&#45;&gt;Node7</title>
<g id="a_edge6_Node000006_Node000007"><a xlink:title=" ">
<path fill="none" stroke="#63b8ff" d="M266.94,-9.25C274.94,-9.25 283.26,-9.25 291.55,-9.25"/>
<polygon fill="#63b8ff" stroke="#63b8ff" points="291.4,-12.75 301.4,-9.25 291.4,-5.75 291.4,-12.75"/>
</a>
</g>
</g>
</g>
</svg>
