<?xml version="1.0" encoding="UTF-8" standalone="no"?>
<!DOCTYPE svg PUBLIC "-//W3C//DTD SVG 1.1//EN"
 "http://www.w3.org/Graphics/SVG/1.1/DTD/svg11.dtd">
<!-- Generated by graphviz version 12.2.1 (0)
 -->
<!-- Title: arax_object.c Pages: 1 -->
<svg width="909pt" height="408pt"
 viewBox="0.00 0.00 909.18 408.00" xmlns="http://www.w3.org/2000/svg" xmlns:xlink="http://www.w3.org/1999/xlink">
<g id="graph0" class="graph" transform="scale(1 1) rotate(0) translate(4 404)">
<title>arax_object.c</title>
<!-- Node1 -->
<g id="Node000001" class="node">
<title>Node1</title>
<g id="a_Node000001"><a xlink:title=" ">
<polygon fill="#999999" stroke="#666666" points="716.81,-400 642.31,-400 642.31,-381.5 716.81,-381.5 716.81,-400"/>
<text text-anchor="middle" x="679.56" y="-386.5" font-family="Helvetica,sans-Serif" font-size="10.00">arax_object.c</text>
</a>
</g>
</g>
<!-- Node2 -->
<g id="Node000002" class="node">
<title>Node2</title>
<g id="a_Node000002"><a xlink:href="a01415.html" target="_top" xlink:title=" ">
<polygon fill="white" stroke="#666666" points="464.81,-182 390.31,-182 390.31,-163.5 464.81,-163.5 464.81,-182"/>
<text text-anchor="middle" x="427.56" y="-168.5" font-family="Helvetica,sans-Serif" font-size="10.00">arax_object.h</text>
</a>
</g>
</g>
<!-- Node1&#45;&gt;Node2 -->
<g id="edge1_Node000001_Node000002" class="edge">
<title>Node1&#45;&gt;Node2</title>
<g id="a_edge1_Node000001_Node000002"><a xlink:title=" ">
<path fill="none" stroke="#63b8ff" d="M677.47,-381.28C671.91,-360.33 654.94,-305.41 622.56,-272.5 620.93,-270.85 508.03,-214.11 454.79,-187.4"/>
<polygon fill="#63b8ff" stroke="#63b8ff" points="456.55,-184.37 446.04,-183.01 453.41,-190.63 456.55,-184.37"/>
</a>
</g>
</g>
<!-- Node10 -->
<g id="Node000010" class="node">
<title>Node10</title>
<g id="a_Node000010"><a xlink:href="a01358.html" target="_top" xlink:title=" ">
<polygon fill="white" stroke="#666666" points="570.06,-345.5 503.06,-345.5 503.06,-327 570.06,-327 570.06,-345.5"/>
<text text-anchor="middle" x="536.56" y="-332" font-family="Helvetica,sans-Serif" font-size="10.00">arax_pipe.h</text>
</a>
</g>
</g>
<!-- Node1&#45;&gt;Node10 -->
<g id="edge10_Node000001_Node000010" class="edge">
<title>Node1&#45;&gt;Node10</title>
<g id="a_edge10_Node000001_Node000010"><a xlink:title=" ">
<path fill="none" stroke="#63b8ff" d="M655.95,-381.08C632.76,-372.57 597.15,-359.49 570.85,-349.84"/>
<polygon fill="#63b8ff" stroke="#63b8ff" points="572.22,-346.61 561.63,-346.45 569.81,-353.19 572.22,-346.61"/>
</a>
</g>
</g>
<!-- Node12 -->
<g id="Node000012" class="node">
<title>Node12</title>
<g id="a_Node000012"><a xlink:title=" ">
<polygon fill="#e0e0e0" stroke="#999999" points="821.18,-127.5 775.93,-127.5 775.93,-109 821.18,-109 821.18,-127.5"/>
<text text-anchor="middle" x="798.56" y="-114" font-family="Helvetica,sans-Serif" font-size="10.00">stdio.h</text>
</a>
</g>
</g>
<!-- Node1&#45;&gt;Node12 -->
<g id="edge52_Node000001_Node000012" class="edge">
<title>Node1&#45;&gt;Node12</title>
<g id="a_edge52_Node000001_Node000012"><a xlink:title=" ">
<path fill="none" stroke="#63b8ff" d="M691.43,-381.23C712.81,-364.81 755.56,-326.5 755.56,-282.75 755.56,-282.75 755.56,-282.75 755.56,-226.25 755.56,-193.16 773.49,-158.19 786.19,-137.57"/>
<polygon fill="#63b8ff" stroke="#63b8ff" points="789.1,-139.5 791.58,-129.2 783.22,-135.71 789.1,-139.5"/>
</a>
</g>
</g>
<!-- Node20 -->
<g id="Node000020" class="node">
<title>Node20</title>
<g id="a_Node000020"><a xlink:href="a01403.html" target="_top" xlink:title=" ">
<polygon fill="white" stroke="#666666" points="324.56,-291 230.56,-291 230.56,-272.5 324.56,-272.5 324.56,-291"/>
<text text-anchor="middle" x="277.56" y="-277.5" font-family="Helvetica,sans-Serif" font-size="10.00">core/arax_accel.h</text>
</a>
</g>
</g>
<!-- Node1&#45;&gt;Node20 -->
<g id="edge43_Node000001_Node000020" class="edge">
<title>Node1&#45;&gt;Node20</title>
<g id="a_edge43_Node000001_Node000020"><a xlink:title=" ">
<path fill="none" stroke="#63b8ff" d="M641.83,-387.23C567.44,-381.85 404.64,-367.86 353.56,-345.5 329.41,-334.93 306.81,-314.36 292.64,-299.66"/>
<polygon fill="#63b8ff" stroke="#63b8ff" points="295.36,-297.45 285.99,-292.51 290.23,-302.21 295.36,-297.45"/>
</a>
</g>
</g>
<!-- Node24 -->
<g id="Node000024" class="node">
<title>Node24</title>
<g id="a_Node000024"><a xlink:href="a01424.html" target="_top" xlink:title=" ">
<polygon fill="white" stroke="#666666" points="613.31,-291 523.81,-291 523.81,-272.5 613.31,-272.5 613.31,-291"/>
<text text-anchor="middle" x="568.56" y="-277.5" font-family="Helvetica,sans-Serif" font-size="10.00">core/arax_task.h</text>
</a>
</g>
</g>
<!-- Node1&#45;&gt;Node24 -->
<g id="edge45_Node000001_Node000024" class="edge">
<title>Node1&#45;&gt;Node24</title>
<g id="a_edge45_Node000001_Node000024"><a xlink:title=" ">
<path fill="none" stroke="#63b8ff" d="M670.85,-381.35C652.54,-363.71 609.78,-322.48 585.74,-299.31"/>
<polygon fill="#63b8ff" stroke="#63b8ff" points="588.26,-296.88 578.63,-292.45 583.4,-301.91 588.26,-296.88"/>
</a>
</g>
</g>
<!-- Node25 -->
<g id="Node000025" class="node">
<title>Node25</title>
<g id="a_Node000025"><a xlink:href="a01418.html" target="_top" xlink:title=" ">
<polygon fill="white" stroke="#666666" points="651.31,-236.5 561.81,-236.5 561.81,-218 651.31,-218 651.31,-236.5"/>
<text text-anchor="middle" x="606.56" y="-223" font-family="Helvetica,sans-Serif" font-size="10.00">core/arax_proc.h</text>
</a>
</g>
</g>
<!-- Node1&#45;&gt;Node25 -->
<g id="edge44_Node000001_Node000025" class="edge">
<title>Node1&#45;&gt;Node25</title>
<g id="a_edge44_Node000001_Node000025"><a xlink:title=" ">
<path fill="none" stroke="#63b8ff" d="M684.06,-381.01C693.98,-360.39 715.21,-307.8 693.56,-272.5 684.56,-257.83 669.01,-247.83 653.52,-241.11"/>
<polygon fill="#63b8ff" stroke="#63b8ff" points="654.89,-237.89 644.3,-237.52 652.34,-244.41 654.89,-237.89"/>
</a>
</g>
</g>
<!-- Node26 -->
<g id="Node000026" class="node">
<title>Node26</title>
<g id="a_Node000026"><a xlink:href="a01409.html" target="_top" xlink:title=" ">
<polygon fill="white" stroke="#666666" points="430.43,-345.5 362.68,-345.5 362.68,-327 430.43,-327 430.43,-345.5"/>
<text text-anchor="middle" x="396.56" y="-332" font-family="Helvetica,sans-Serif" font-size="10.00">arax_data.h</text>
</a>
</g>
</g>
<!-- Node1&#45;&gt;Node26 -->
<g id="edge46_Node000001_Node000026" class="edge">
<title>Node1&#45;&gt;Node26</title>
<g id="a_edge46_Node000001_Node000026"><a xlink:title=" ">
<path fill="none" stroke="#63b8ff" d="M641.98,-382.78C590.32,-373.2 497.49,-355.97 441.99,-345.68"/>
<polygon fill="#63b8ff" stroke="#63b8ff" points="442.71,-342.25 432.24,-343.87 441.43,-349.13 442.71,-342.25"/>
</a>
</g>
</g>
<!-- Node27 -->
<g id="Node000027" class="node">
<title>Node27</title>
<g id="a_Node000027"><a xlink:title=" ">
<polygon fill="#e0e0e0" stroke="#999999" points="831.68,-345.5 783.43,-345.5 783.43,-327 831.68,-327 831.68,-345.5"/>
<text text-anchor="middle" x="807.56" y="-332" font-family="Helvetica,sans-Serif" font-size="10.00">string.h</text>
</a>
</g>
</g>
<!-- Node1&#45;&gt;Node27 -->
<g id="edge53_Node000001_Node000027" class="edge">
<title>Node1&#45;&gt;Node27</title>
<g id="a_edge53_Node000001_Node000027"><a xlink:title=" ">
<path fill="none" stroke="#63b8ff" d="M700.7,-381.08C721.17,-372.68 752.47,-359.84 775.92,-350.23"/>
<polygon fill="#63b8ff" stroke="#63b8ff" points="777.07,-353.54 784.99,-346.51 774.41,-347.06 777.07,-353.54"/>
</a>
</g>
</g>
<!-- Node28 -->
<g id="Node000028" class="node">
<title>Node28</title>
<g id="a_Node000028"><a xlink:title=" ">
<polygon fill="#e0e0e0" stroke="#999999" points="901.18,-345.5 849.93,-345.5 849.93,-327 901.18,-327 901.18,-345.5"/>
<text text-anchor="middle" x="875.56" y="-332" font-family="Helvetica,sans-Serif" font-size="10.00">stdarg.h</text>
</a>
</g>
</g>
<!-- Node1&#45;&gt;Node28 -->
<g id="edge54_Node000001_Node000028" class="edge">
<title>Node1&#45;&gt;Node28</title>
<g id="a_edge54_Node000001_Node000028"><a xlink:title=" ">
<path fill="none" stroke="#63b8ff" d="M711.92,-381.08C746.91,-371.71 802.53,-356.81 839.05,-347.03"/>
<polygon fill="#63b8ff" stroke="#63b8ff" points="839.51,-350.53 848.26,-344.56 837.7,-343.77 839.51,-350.53"/>
</a>
</g>
</g>
<!-- Node3 -->
<g id="Node000003" class="node">
<title>Node3</title>
<g id="a_Node000003"><a xlink:href="a01388.html" target="_top" xlink:title=" ">
<polygon fill="white" stroke="#666666" points="456.18,-127.5 398.93,-127.5 398.93,-109 456.18,-109 456.18,-127.5"/>
<text text-anchor="middle" x="427.56" y="-114" font-family="Helvetica,sans-Serif" font-size="10.00">utils/list.h</text>
</a>
</g>
</g>
<!-- Node2&#45;&gt;Node3 -->
<g id="edge2_Node000002_Node000003" class="edge">
<title>Node2&#45;&gt;Node3</title>
<g id="a_edge2_Node000002_Node000003"><a xlink:title=" ">
<path fill="none" stroke="#63b8ff" d="M427.56,-163.08C427.56,-156.58 427.56,-147.42 427.56,-139.16"/>
<polygon fill="#63b8ff" stroke="#63b8ff" points="431.06,-139.27 427.56,-129.27 424.06,-139.27 431.06,-139.27"/>
</a>
</g>
</g>
<!-- Node6 -->
<g id="Node000006" class="node">
<title>Node6</title>
<g id="a_Node000006"><a xlink:href="a01394.html" target="_top" xlink:title=" ">
<polygon fill="white" stroke="#666666" points="342.18,-127.5 260.93,-127.5 260.93,-109 342.18,-109 342.18,-127.5"/>
<text text-anchor="middle" x="301.56" y="-114" font-family="Helvetica,sans-Serif" font-size="10.00">utils/spinlock.h</text>
</a>
</g>
</g>
<!-- Node2&#45;&gt;Node6 -->
<g id="edge5_Node000002_Node000006" class="edge">
<title>Node2&#45;&gt;Node6</title>
<g id="a_edge5_Node000002_Node000006"><a xlink:title=" ">
<path fill="none" stroke="#63b8ff" d="M406.75,-163.08C386.69,-154.72 356.06,-141.96 333.02,-132.36"/>
<polygon fill="#63b8ff" stroke="#63b8ff" points="334.37,-129.13 323.79,-128.51 331.68,-135.59 334.37,-129.13"/>
</a>
</g>
</g>
<!-- Node9 -->
<g id="Node000009" class="node">
<title>Node9</title>
<g id="a_Node000009"><a xlink:title=" ">
<polygon fill="#e0e0e0" stroke="#999999" points="540.68,-127.5 474.43,-127.5 474.43,-109 540.68,-109 540.68,-127.5"/>
<text text-anchor="middle" x="507.56" y="-114" font-family="Helvetica,sans-Serif" font-size="10.00">arch/alloc.h</text>
</a>
</g>
</g>
<!-- Node2&#45;&gt;Node9 -->
<g id="edge9_Node000002_Node000009" class="edge">
<title>Node2&#45;&gt;Node9</title>
<g id="a_edge9_Node000002_Node000009"><a xlink:title=" ">
<path fill="none" stroke="#63b8ff" d="M440.77,-163.08C452.7,-155.25 470.51,-143.57 484.74,-134.23"/>
<polygon fill="#63b8ff" stroke="#63b8ff" points="486.62,-137.18 493.06,-128.76 482.78,-131.32 486.62,-137.18"/>
</a>
</g>
</g>
<!-- Node4 -->
<g id="Node000004" class="node">
<title>Node4</title>
<g id="a_Node000004"><a xlink:title=" ">
<polygon fill="#e0e0e0" stroke="#999999" points="423.81,-73 373.31,-73 373.31,-54.5 423.81,-54.5 423.81,-73"/>
<text text-anchor="middle" x="398.56" y="-59.5" font-family="Helvetica,sans-Serif" font-size="10.00">stddef.h</text>
</a>
</g>
</g>
<!-- Node3&#45;&gt;Node4 -->
<g id="edge3_Node000003_Node000004" class="edge">
<title>Node3&#45;&gt;Node4</title>
<g id="a_edge3_Node000003_Node000004"><a xlink:title=" ">
<path fill="none" stroke="#63b8ff" d="M422.77,-108.58C418.97,-101.7 413.52,-91.84 408.76,-83.21"/>
<polygon fill="#63b8ff" stroke="#63b8ff" points="411.89,-81.64 403.99,-74.58 405.76,-85.03 411.89,-81.64"/>
</a>
</g>
</g>
<!-- Node5 -->
<g id="Node000005" class="node">
<title>Node5</title>
<g id="a_Node000005"><a xlink:title=" ">
<polygon fill="#e0e0e0" stroke="#999999" points="354.31,-73 306.81,-73 306.81,-54.5 354.31,-54.5 354.31,-73"/>
<text text-anchor="middle" x="330.56" y="-59.5" font-family="Helvetica,sans-Serif" font-size="10.00">stdint.h</text>
</a>
</g>
</g>
<!-- Node3&#45;&gt;Node5 -->
<g id="edge4_Node000003_Node000005" class="edge">
<title>Node3&#45;&gt;Node5</title>
<g id="a_edge4_Node000003_Node000005"><a xlink:title=" ">
<path fill="none" stroke="#63b8ff" d="M411.54,-108.58C396.52,-100.45 373.8,-88.15 356.24,-78.65"/>
<polygon fill="#63b8ff" stroke="#63b8ff" points="358.39,-75.83 347.93,-74.15 355.06,-81.99 358.39,-75.83"/>
</a>
</g>
</g>
<!-- Node6&#45;&gt;Node5 -->
<g id="edge6_Node000006_Node000005" class="edge">
<title>Node6&#45;&gt;Node5</title>
<g id="a_edge6_Node000006_Node000005"><a xlink:title=" ">
<path fill="none" stroke="#63b8ff" d="M306.35,-108.58C310.15,-101.7 315.6,-91.84 320.36,-83.21"/>
<polygon fill="#63b8ff" stroke="#63b8ff" points="323.36,-85.03 325.13,-74.58 317.23,-81.64 323.36,-85.03"/>
</a>
</g>
</g>
<!-- Node7 -->
<g id="Node000007" class="node">
<title>Node7</title>
<g id="a_Node000007"><a xlink:href="a01373.html" target="_top" xlink:title=" ">
<polygon fill="white" stroke="#666666" points="289.06,-73 192.06,-73 192.06,-54.5 289.06,-54.5 289.06,-73"/>
<text text-anchor="middle" x="240.56" y="-59.5" font-family="Helvetica,sans-Serif" font-size="10.00">utils/arax_assert.h</text>
</a>
</g>
</g>
<!-- Node6&#45;&gt;Node7 -->
<g id="edge7_Node000006_Node000007" class="edge">
<title>Node6&#45;&gt;Node7</title>
<g id="a_edge7_Node000006_Node000007"><a xlink:title=" ">
<path fill="none" stroke="#63b8ff" d="M291.49,-108.58C282.69,-101.01 269.71,-89.83 259.05,-80.66"/>
<polygon fill="#63b8ff" stroke="#63b8ff" points="261.45,-78.12 251.59,-74.25 256.89,-83.42 261.45,-78.12"/>
</a>
</g>
</g>
<!-- Node8 -->
<g id="Node000008" class="node">
<title>Node8</title>
<g id="a_Node000008"><a xlink:href="a01382.html" target="_top" xlink:title=" ">
<polygon fill="white" stroke="#666666" points="268.43,-18.5 212.68,-18.5 212.68,0 268.43,0 268.43,-18.5"/>
<text text-anchor="middle" x="240.56" y="-5" font-family="Helvetica,sans-Serif" font-size="10.00">compat.h</text>
</a>
</g>
</g>
<!-- Node7&#45;&gt;Node8 -->
<g id="edge8_Node000007_Node000008" class="edge">
<title>Node7&#45;&gt;Node8</title>
<g id="a_edge8_Node000007_Node000008"><a xlink:title=" ">
<path fill="none" stroke="#63b8ff" d="M240.56,-54.08C240.56,-47.58 240.56,-38.42 240.56,-30.16"/>
<polygon fill="#63b8ff" stroke="#63b8ff" points="244.06,-30.27 240.56,-20.27 237.06,-30.27 244.06,-30.27"/>
</a>
</g>
</g>
<!-- Node11 -->
<g id="Node000011" class="node">
<title>Node11</title>
<g id="a_Node000011"><a xlink:href="a01355.html" target="_top" xlink:title=" ">
<polygon fill="white" stroke="#666666" points="628.06,-182 585.06,-182 585.06,-163.5 628.06,-163.5 628.06,-182"/>
<text text-anchor="middle" x="606.56" y="-168.5" font-family="Helvetica,sans-Serif" font-size="10.00">arax.h</text>
</a>
</g>
</g>
<!-- Node10&#45;&gt;Node11 -->
<g id="edge11_Node000010_Node000011" class="edge">
<title>Node10&#45;&gt;Node11</title>
<g id="a_edge11_Node000010_Node000011"><a xlink:title=" ">
<path fill="none" stroke="#63b8ff" d="M560.71,-326.55C579.08,-319.1 604.23,-307.03 622.56,-291 644.79,-271.56 651.71,-264.67 660.56,-236.5 663.02,-228.66 664.08,-225.43 660.56,-218 654.76,-205.75 643.73,-195.77 633.14,-188.4"/>
<polygon fill="#63b8ff" stroke="#63b8ff" points="635.3,-185.62 624.98,-183.19 631.53,-191.52 635.3,-185.62"/>
</a>
</g>
</g>
<!-- Node17 -->
<g id="Node000017" class="node">
<title>Node17</title>
<g id="a_Node000017"><a xlink:href="a01370.html" target="_top" xlink:title=" ">
<polygon fill="white" stroke="#666666" points="357.81,-182 301.31,-182 301.31,-163.5 357.81,-163.5 357.81,-182"/>
<text text-anchor="middle" x="329.56" y="-168.5" font-family="Helvetica,sans-Serif" font-size="10.00">utils/Kv.h</text>
</a>
</g>
</g>
<!-- Node10&#45;&gt;Node17 -->
<g id="edge19_Node000010_Node000017" class="edge">
<title>Node10&#45;&gt;Node17</title>
<g id="a_edge19_Node000010_Node000017"><a xlink:title=" ">
<path fill="none" stroke="#63b8ff" d="M526.93,-326.65C504.5,-306.75 446.8,-256.33 395.56,-218 381.79,-207.7 365.78,-196.94 352.97,-188.61"/>
<polygon fill="#63b8ff" stroke="#63b8ff" points="355.07,-185.79 344.77,-183.32 351.28,-191.68 355.07,-185.79"/>
</a>
</g>
</g>
<!-- Node19 -->
<g id="Node000019" class="node">
<title>Node19</title>
<g id="a_Node000019"><a xlink:href="a01391.html" target="_top" xlink:title=" ">
<polygon fill="white" stroke="#666666" points="276.31,-182 204.81,-182 204.81,-163.5 276.31,-163.5 276.31,-182"/>
<text text-anchor="middle" x="240.56" y="-168.5" font-family="Helvetica,sans-Serif" font-size="10.00">utils/queue.h</text>
</a>
</g>
</g>
<!-- Node10&#45;&gt;Node19 -->
<g id="edge23_Node000010_Node000019" class="edge">
<title>Node10&#45;&gt;Node19</title>
<g id="a_edge23_Node000010_Node000019"><a xlink:title=" ">
<path fill="none" stroke="#63b8ff" d="M521.19,-326.61C486.34,-307.05 398.58,-257.96 324.56,-218 305.52,-207.72 283.93,-196.35 267.4,-187.71"/>
<polygon fill="#63b8ff" stroke="#63b8ff" points="269.17,-184.69 258.69,-183.17 265.93,-190.9 269.17,-184.69"/>
</a>
</g>
</g>
<!-- Node10&#45;&gt;Node20 -->
<g id="edge28_Node000010_Node000020" class="edge">
<title>Node10&#45;&gt;Node20</title>
<g id="a_edge28_Node000010_Node000020"><a xlink:title=" ">
<path fill="none" stroke="#63b8ff" d="M502.7,-328.39C459.23,-319.58 383.27,-304.18 331.73,-293.73"/>
<polygon fill="#63b8ff" stroke="#63b8ff" points="332.46,-290.31 321.96,-291.75 331.07,-297.17 332.46,-290.31"/>
</a>
</g>
</g>
<!-- Node10&#45;&gt;Node24 -->
<g id="edge38_Node000010_Node000024" class="edge">
<title>Node10&#45;&gt;Node24</title>
<g id="a_edge38_Node000010_Node000024"><a xlink:title=" ">
<path fill="none" stroke="#63b8ff" d="M541.84,-326.58C546.08,-319.62 552.18,-309.62 557.48,-300.92"/>
<polygon fill="#63b8ff" stroke="#63b8ff" points="560.37,-302.91 562.59,-292.55 554.39,-299.27 560.37,-302.91"/>
</a>
</g>
</g>
<!-- Node11&#45;&gt;Node4 -->
<g id="edge13_Node000011_Node000004" class="edge">
<title>Node11&#45;&gt;Node4</title>
<g id="a_edge13_Node000011_Node000004"><a xlink:title=" ">
<path fill="none" stroke="#63b8ff" d="M601.02,-163.06C591.92,-149.5 572.51,-123.37 549.56,-109 514.19,-86.86 467.27,-75.39 435.18,-69.74"/>
<polygon fill="#63b8ff" stroke="#63b8ff" points="436,-66.32 425.57,-68.15 434.86,-73.23 436,-66.32"/>
</a>
</g>
</g>
<!-- Node11&#45;&gt;Node12 -->
<g id="edge12_Node000011_Node000012" class="edge">
<title>Node11&#45;&gt;Node12</title>
<g id="a_edge12_Node000011_Node000012"><a xlink:title=" ">
<path fill="none" stroke="#63b8ff" d="M628.21,-165.83C661.42,-156.75 725.2,-139.31 764.6,-128.54"/>
<polygon fill="#63b8ff" stroke="#63b8ff" points="765.32,-131.97 774.04,-125.96 763.47,-125.22 765.32,-131.97"/>
</a>
</g>
</g>
<!-- Node13 -->
<g id="Node000013" class="node">
<title>Node13</title>
<g id="a_Node000013"><a xlink:href="a01361.html" target="_top" xlink:title=" ">
<polygon fill="white" stroke="#666666" points="688.06,-73 615.06,-73 615.06,-54.5 688.06,-54.5 688.06,-73"/>
<text text-anchor="middle" x="651.56" y="-59.5" font-family="Helvetica,sans-Serif" font-size="10.00">arax_types.h</text>
</a>
</g>
</g>
<!-- Node11&#45;&gt;Node13 -->
<g id="edge14_Node000011_Node000013" class="edge">
<title>Node11&#45;&gt;Node13</title>
<g id="a_edge14_Node000011_Node000013"><a xlink:title=" ">
<path fill="none" stroke="#63b8ff" d="M608.42,-163.4C611.29,-151.17 617.34,-127.77 625.56,-109 629.49,-100.02 634.84,-90.59 639.67,-82.75"/>
<polygon fill="#63b8ff" stroke="#63b8ff" points="642.5,-84.83 644.93,-74.52 636.6,-81.06 642.5,-84.83"/>
</a>
</g>
</g>
<!-- Node16 -->
<g id="Node000016" class="node">
<title>Node16</title>
<g id="a_Node000016"><a xlink:href="a01406.html" target="_top" xlink:title=" ">
<polygon fill="white" stroke="#666666" points="758.18,-127.5 634.93,-127.5 634.93,-109 758.18,-109 758.18,-127.5"/>
<text text-anchor="middle" x="696.56" y="-114" font-family="Helvetica,sans-Serif" font-size="10.00">core/arax_accel_types.h</text>
</a>
</g>
</g>
<!-- Node11&#45;&gt;Node16 -->
<g id="edge17_Node000011_Node000016" class="edge">
<title>Node11&#45;&gt;Node16</title>
<g id="a_edge17_Node000011_Node000016"><a xlink:title=" ">
<path fill="none" stroke="#63b8ff" d="M621.42,-163.08C635.1,-155.1 655.66,-143.11 671.81,-133.69"/>
<polygon fill="#63b8ff" stroke="#63b8ff" points="673.49,-136.76 680.37,-128.69 669.97,-130.71 673.49,-136.76"/>
</a>
</g>
</g>
<!-- Node14 -->
<g id="Node000014" class="node">
<title>Node14</title>
<g id="a_Node000014"><a xlink:title=" ">
<polygon fill="#e0e0e0" stroke="#999999" points="646.68,-18.5 586.43,-18.5 586.43,0 646.68,0 646.68,-18.5"/>
<text text-anchor="middle" x="616.56" y="-5" font-family="Helvetica,sans-Serif" font-size="10.00">sys/time.h</text>
</a>
</g>
</g>
<!-- Node13&#45;&gt;Node14 -->
<g id="edge15_Node000013_Node000014" class="edge">
<title>Node13&#45;&gt;Node14</title>
<g id="a_edge15_Node000013_Node000014"><a xlink:title=" ">
<path fill="none" stroke="#63b8ff" d="M645.78,-54.08C641.09,-47.05 634.32,-36.9 628.48,-28.14"/>
<polygon fill="#63b8ff" stroke="#63b8ff" points="631.53,-26.4 623.07,-20.02 625.71,-30.28 631.53,-26.4"/>
</a>
</g>
</g>
<!-- Node15 -->
<g id="Node000015" class="node">
<title>Node15</title>
<g id="a_Node000015"><a xlink:title=" ">
<polygon fill="#e0e0e0" stroke="#999999" points="708.06,-18.5 665.06,-18.5 665.06,0 708.06,0 708.06,-18.5"/>
<text text-anchor="middle" x="686.56" y="-5" font-family="Helvetica,sans-Serif" font-size="10.00">time.h</text>
</a>
</g>
</g>
<!-- Node13&#45;&gt;Node15 -->
<g id="edge16_Node000013_Node000015" class="edge">
<title>Node13&#45;&gt;Node15</title>
<g id="a_edge16_Node000013_Node000015"><a xlink:title=" ">
<path fill="none" stroke="#63b8ff" d="M657.34,-54.08C662.03,-47.05 668.79,-36.9 674.64,-28.14"/>
<polygon fill="#63b8ff" stroke="#63b8ff" points="677.41,-30.28 680.05,-20.02 671.59,-26.4 677.41,-30.28"/>
</a>
</g>
</g>
<!-- Node16&#45;&gt;Node13 -->
<g id="edge18_Node000016_Node000013" class="edge">
<title>Node16&#45;&gt;Node13</title>
<g id="a_edge18_Node000016_Node000013"><a xlink:title=" ">
<path fill="none" stroke="#63b8ff" d="M689.13,-108.58C682.9,-101.32 673.83,-90.73 666.16,-81.78"/>
<polygon fill="#63b8ff" stroke="#63b8ff" points="669,-79.72 659.84,-74.41 663.69,-84.28 669,-79.72"/>
</a>
</g>
</g>
<!-- Node17&#45;&gt;Node4 -->
<g id="edge21_Node000017_Node000004" class="edge">
<title>Node17&#45;&gt;Node4</title>
<g id="a_edge21_Node000017_Node000004"><a xlink:title=" ">
<path fill="none" stroke="#63b8ff" d="M334.97,-163.35C346.1,-146.09 371.77,-106.29 386.87,-82.87"/>
<polygon fill="#63b8ff" stroke="#63b8ff" points="389.68,-84.98 392.16,-74.68 383.8,-81.18 389.68,-84.98"/>
</a>
</g>
</g>
<!-- Node17&#45;&gt;Node6 -->
<g id="edge22_Node000017_Node000006" class="edge">
<title>Node17&#45;&gt;Node6</title>
<g id="a_edge22_Node000017_Node000006"><a xlink:title=" ">
<path fill="none" stroke="#63b8ff" d="M324.94,-163.08C321.27,-156.2 316.01,-146.34 311.4,-137.71"/>
<polygon fill="#63b8ff" stroke="#63b8ff" points="314.6,-136.27 306.81,-129.09 308.43,-139.56 314.6,-136.27"/>
</a>
</g>
</g>
<!-- Node18 -->
<g id="Node000018" class="node">
<title>Node18</title>
<g id="a_Node000018"><a xlink:href="a01364.html" target="_top" xlink:title=" ">
<polygon fill="white" stroke="#666666" points="166.68,-127.5 124.43,-127.5 124.43,-109 166.68,-109 166.68,-127.5"/>
<text text-anchor="middle" x="145.56" y="-114" font-family="Helvetica,sans-Serif" font-size="10.00">conf.h</text>
</a>
</g>
</g>
<!-- Node17&#45;&gt;Node18 -->
<g id="edge20_Node000017_Node000018" class="edge">
<title>Node17&#45;&gt;Node18</title>
<g id="a_edge20_Node000017_Node000018"><a xlink:title=" ">
<path fill="none" stroke="#63b8ff" d="M300.81,-163.55C267.48,-154.04 212.69,-138.41 177.91,-128.48"/>
<polygon fill="#63b8ff" stroke="#63b8ff" points="178.97,-125.14 168.39,-125.76 177.05,-131.87 178.97,-125.14"/>
</a>
</g>
</g>
<!-- Node19&#45;&gt;Node4 -->
<g id="edge24_Node000019_Node000004" class="edge">
<title>Node19&#45;&gt;Node4</title>
<g id="a_edge24_Node000019_Node000004"><a xlink:title=" ">
<path fill="none" stroke="#63b8ff" d="M239.47,-163.26C238.28,-149.98 238.05,-124.22 251.56,-109 259.06,-100.55 321.11,-83.88 362.16,-73.59"/>
<polygon fill="#63b8ff" stroke="#63b8ff" points="362.79,-77.04 371.65,-71.23 361.1,-70.25 362.79,-77.04"/>
</a>
</g>
</g>
<!-- Node19&#45;&gt;Node5 -->
<g id="edge25_Node000019_Node000005" class="edge">
<title>Node19&#45;&gt;Node5</title>
<g id="a_edge25_Node000019_Node000005"><a xlink:title=" ">
<path fill="none" stroke="#63b8ff" d="M233.15,-163.41C222.85,-150.76 206.74,-126.37 218.56,-109 227.6,-95.7 266.23,-82.41 295.61,-73.91"/>
<polygon fill="#63b8ff" stroke="#63b8ff" points="296.2,-77.38 304.88,-71.31 294.31,-70.64 296.2,-77.38"/>
</a>
</g>
</g>
<!-- Node19&#45;&gt;Node6 -->
<g id="edge27_Node000019_Node000006" class="edge">
<title>Node19&#45;&gt;Node6</title>
<g id="a_edge27_Node000019_Node000006"><a xlink:title=" ">
<path fill="none" stroke="#63b8ff" d="M250.63,-163.08C259.43,-155.51 272.41,-144.33 283.07,-135.16"/>
<polygon fill="#63b8ff" stroke="#63b8ff" points="285.23,-137.92 290.53,-128.75 280.66,-132.62 285.23,-137.92"/>
</a>
</g>
</g>
<!-- Node19&#45;&gt;Node18 -->
<g id="edge26_Node000019_Node000018" class="edge">
<title>Node19&#45;&gt;Node18</title>
<g id="a_edge26_Node000019_Node000018"><a xlink:title=" ">
<path fill="none" stroke="#63b8ff" d="M224.87,-163.08C210.3,-155.03 188.32,-142.88 171.2,-133.42"/>
<polygon fill="#63b8ff" stroke="#63b8ff" points="173.04,-130.44 162.59,-128.66 169.65,-136.56 173.04,-130.44"/>
</a>
</g>
</g>
<!-- Node20&#45;&gt;Node11 -->
<g id="edge29_Node000020_Node000011" class="edge">
<title>Node20&#45;&gt;Node11</title>
<g id="a_edge29_Node000020_Node000011"><a xlink:title=" ">
<path fill="none" stroke="#63b8ff" d="M304.2,-272.08C364.09,-252.61 509.17,-205.42 574.15,-184.29"/>
<polygon fill="#63b8ff" stroke="#63b8ff" points="575.08,-187.67 583.51,-181.25 572.92,-181.01 575.08,-187.67"/>
</a>
</g>
</g>
<!-- Node21 -->
<g id="Node000021" class="node">
<title>Node21</title>
<g id="a_Node000021"><a xlink:title=" ">
<polygon fill="#e0e0e0" stroke="#999999" points="176.43,-182 126.68,-182 126.68,-163.5 176.43,-163.5 176.43,-182"/>
<text text-anchor="middle" x="151.56" y="-168.5" font-family="Helvetica,sans-Serif" font-size="10.00">async.h</text>
</a>
</g>
</g>
<!-- Node20&#45;&gt;Node21 -->
<g id="edge30_Node000020_Node000021" class="edge">
<title>Node20&#45;&gt;Node21</title>
<g id="a_edge30_Node000020_Node000021"><a xlink:title=" ">
<path fill="none" stroke="#63b8ff" d="M239.37,-272.01C218.14,-265.41 192.64,-254.35 175.56,-236.5 164.2,-224.63 158.07,-206.82 154.86,-193.2"/>
<polygon fill="#63b8ff" stroke="#63b8ff" points="158.35,-192.78 152.96,-183.65 151.48,-194.14 158.35,-192.78"/>
</a>
</g>
</g>
<!-- Node22 -->
<g id="Node000022" class="node">
<title>Node22</title>
<g id="a_Node000022"><a xlink:href="a01430.html" target="_top" xlink:title=" ">
<polygon fill="white" stroke="#666666" points="315.81,-236.5 217.31,-236.5 217.31,-218 315.81,-218 315.81,-236.5"/>
<text text-anchor="middle" x="266.56" y="-223" font-family="Helvetica,sans-Serif" font-size="10.00">core/arax_vaccel.h</text>
</a>
</g>
</g>
<!-- Node20&#45;&gt;Node22 -->
<g id="edge31_Node000020_Node000022" class="edge">
<title>Node20&#45;&gt;Node22</title>
<g id="a_edge31_Node000020_Node000022"><a xlink:title=" ">
<path fill="none" stroke="#63b8ff" d="M270.58,-272.08C267.8,-265.58 265.42,-256.42 264.16,-248.16"/>
<polygon fill="#63b8ff" stroke="#63b8ff" points="267.65,-247.94 263.34,-238.27 260.68,-248.52 267.65,-247.94"/>
</a>
</g>
</g>
<!-- Node23 -->
<g id="Node000023" class="node">
<title>Node23</title>
<g id="a_Node000023"><a xlink:href="a01427.html" target="_top" xlink:title=" ">
<polygon fill="white" stroke="#666666" points="123.93,-236.5 23.18,-236.5 23.18,-218 123.93,-218 123.93,-236.5"/>
<text text-anchor="middle" x="73.56" y="-223" font-family="Helvetica,sans-Serif" font-size="10.00">core/arax_throttle.h</text>
</a>
</g>
</g>
<!-- Node20&#45;&gt;Node23 -->
<g id="edge36_Node000020_Node000023" class="edge">
<title>Node20&#45;&gt;Node23</title>
<g id="a_edge36_Node000020_Node000023"><a xlink:title=" ">
<path fill="none" stroke="#63b8ff" d="M243.87,-272.08C209.47,-263.23 155.88,-249.44 118.02,-239.69"/>
<polygon fill="#63b8ff" stroke="#63b8ff" points="119.32,-236.41 108.76,-237.31 117.57,-243.19 119.32,-236.41"/>
</a>
</g>
</g>
<!-- Node22&#45;&gt;Node2 -->
<g id="edge32_Node000022_Node000002" class="edge">
<title>Node22&#45;&gt;Node2</title>
<g id="a_edge32_Node000022_Node000002"><a xlink:title=" ">
<path fill="none" stroke="#63b8ff" d="M293.15,-217.58C319.6,-208.96 360.42,-195.64 390.14,-185.95"/>
<polygon fill="#63b8ff" stroke="#63b8ff" points="391.07,-189.33 399.49,-182.9 388.9,-182.67 391.07,-189.33"/>
</a>
</g>
</g>
<!-- Node22&#45;&gt;Node19 -->
<g id="edge33_Node000022_Node000019" class="edge">
<title>Node22&#45;&gt;Node19</title>
<g id="a_edge33_Node000022_Node000019"><a xlink:title=" ">
<path fill="none" stroke="#63b8ff" d="M262.27,-217.58C258.9,-210.78 254.08,-201.06 249.84,-192.5"/>
<polygon fill="#63b8ff" stroke="#63b8ff" points="253.02,-191.02 245.44,-183.61 246.75,-194.13 253.02,-191.02"/>
</a>
</g>
</g>
<!-- Node22&#45;&gt;Node20 -->
<g id="edge34_Node000022_Node000020" class="edge">
<title>Node22&#45;&gt;Node20</title>
<g id="a_edge34_Node000022_Node000020"><a xlink:title=" ">
<path fill="none" stroke="#63b8ff" d="M273.47,-236.76C276.25,-243.21 278.65,-252.36 279.93,-260.64"/>
<polygon fill="#63b8ff" stroke="#63b8ff" points="276.44,-260.91 280.78,-270.57 283.41,-260.31 276.44,-260.91"/>
</a>
</g>
</g>
<!-- Node22&#45;&gt;Node21 -->
<g id="edge35_Node000022_Node000021" class="edge">
<title>Node22&#45;&gt;Node21</title>
<g id="a_edge35_Node000022_Node000021"><a xlink:title=" ">
<path fill="none" stroke="#63b8ff" d="M247.57,-217.58C229.42,-209.3 201.81,-196.69 180.85,-187.12"/>
<polygon fill="#63b8ff" stroke="#63b8ff" points="182.5,-184.03 171.95,-183.06 179.6,-190.4 182.5,-184.03"/>
</a>
</g>
</g>
<!-- Node23&#45;&gt;Node21 -->
<g id="edge37_Node000023_Node000021" class="edge">
<title>Node23&#45;&gt;Node21</title>
<g id="a_edge37_Node000023_Node000021"><a xlink:title=" ">
<path fill="none" stroke="#63b8ff" d="M86.44,-217.58C98.07,-209.75 115.43,-198.07 129.31,-188.73"/>
<polygon fill="#63b8ff" stroke="#63b8ff" points="131.06,-191.76 137.4,-183.28 127.15,-185.96 131.06,-191.76"/>
</a>
</g>
</g>
<!-- Node24&#45;&gt;Node21 -->
<g id="edge42_Node000024_Node000021" class="edge">
<title>Node24&#45;&gt;Node21</title>
<g id="a_edge42_Node000024_Node000021"><a xlink:title=" ">
<path fill="none" stroke="#63b8ff" d="M523.36,-279.09C439.27,-275.38 262.45,-264.41 208.56,-236.5 189,-226.37 172.83,-206.64 162.77,-191.99"/>
<polygon fill="#63b8ff" stroke="#63b8ff" points="165.77,-190.19 157.39,-183.7 159.9,-194 165.77,-190.19"/>
</a>
</g>
</g>
<!-- Node24&#45;&gt;Node25 -->
<g id="edge39_Node000024_Node000025" class="edge">
<title>Node24&#45;&gt;Node25</title>
<g id="a_edge39_Node000024_Node000025"><a xlink:title=" ">
<path fill="none" stroke="#63b8ff" d="M574.83,-272.08C579.98,-264.97 587.43,-254.68 593.82,-245.85"/>
<polygon fill="#63b8ff" stroke="#63b8ff" points="596.49,-248.14 599.51,-237.98 590.82,-244.03 596.49,-248.14"/>
</a>
</g>
</g>
<!-- Node25&#45;&gt;Node2 -->
<g id="edge41_Node000025_Node000002" class="edge">
<title>Node25&#45;&gt;Node2</title>
<g id="a_edge41_Node000025_Node000002"><a xlink:title=" ">
<path fill="none" stroke="#63b8ff" d="M577,-217.58C547.2,-208.84 501,-195.29 467.86,-185.57"/>
<polygon fill="#63b8ff" stroke="#63b8ff" points="469.19,-182.31 458.61,-182.86 467.22,-189.03 469.19,-182.31"/>
</a>
</g>
</g>
<!-- Node25&#45;&gt;Node11 -->
<g id="edge40_Node000025_Node000011" class="edge">
<title>Node25&#45;&gt;Node11</title>
<g id="a_edge40_Node000025_Node000011"><a xlink:title=" ">
<path fill="none" stroke="#63b8ff" d="M606.56,-217.58C606.56,-211.08 606.56,-201.92 606.56,-193.66"/>
<polygon fill="#63b8ff" stroke="#63b8ff" points="610.06,-193.77 606.56,-183.77 603.06,-193.77 610.06,-193.77"/>
</a>
</g>
</g>
<!-- Node26&#45;&gt;Node2 -->
<g id="edge48_Node000026_Node000002" class="edge">
<title>Node26&#45;&gt;Node2</title>
<g id="a_edge48_Node000026_Node000002"><a xlink:title=" ">
<path fill="none" stroke="#63b8ff" d="M398.23,-326.57C403.02,-301.59 416.93,-229.1 423.73,-193.69"/>
<polygon fill="#63b8ff" stroke="#63b8ff" points="427.15,-194.44 425.6,-183.96 420.28,-193.12 427.15,-194.44"/>
</a>
</g>
</g>
<!-- Node26&#45;&gt;Node11 -->
<g id="edge47_Node000026_Node000011" class="edge">
<title>Node26&#45;&gt;Node11</title>
<g id="a_edge47_Node000026_Node000011"><a xlink:title=" ">
<path fill="none" stroke="#63b8ff" d="M407.85,-326.57C441.68,-300.55 542.55,-222.98 586.13,-189.46"/>
<polygon fill="#63b8ff" stroke="#63b8ff" points="588.22,-192.27 594.01,-183.4 583.95,-186.72 588.22,-192.27"/>
</a>
</g>
</g>
<!-- Node26&#45;&gt;Node18 -->
<g id="edge50_Node000026_Node000018" class="edge">
<title>Node26&#45;&gt;Node18</title>
<g id="a_edge50_Node000026_Node000018"><a xlink:title=" ">
<path fill="none" stroke="#63b8ff" d="M362.19,-332.98C289.47,-327.78 122.42,-313.7 70.56,-291 35.71,-275.75 20.77,-270.91 4.56,-236.5 -20.55,-183.19 64.35,-145.68 113.31,-128.99"/>
<polygon fill="#63b8ff" stroke="#63b8ff" points="114.18,-132.38 122.59,-125.94 112,-125.73 114.18,-132.38"/>
</a>
</g>
</g>
<!-- Node26&#45;&gt;Node20 -->
<g id="edge51_Node000026_Node000020" class="edge">
<title>Node26&#45;&gt;Node20</title>
<g id="a_edge51_Node000026_Node000020"><a xlink:title=" ">
<path fill="none" stroke="#63b8ff" d="M376.91,-326.58C358.05,-318.26 329.3,-305.58 307.57,-295.99"/>
<polygon fill="#63b8ff" stroke="#63b8ff" points="309.19,-292.88 298.62,-292.04 306.36,-299.28 309.19,-292.88"/>
</a>
</g>
</g>
<!-- Node26&#45;&gt;Node21 -->
<g id="edge49_Node000026_Node000021" class="edge">
<title>Node26&#45;&gt;Node21</title>
<g id="a_edge49_Node000026_Node000021"><a xlink:title=" ">
<path fill="none" stroke="#63b8ff" d="M362.22,-331.68C276.6,-321.98 57.42,-292.11 14.56,-236.5 -14.2,-199.19 65.28,-183.32 114.96,-177.19"/>
<polygon fill="#63b8ff" stroke="#63b8ff" points="115.22,-180.68 124.76,-176.07 114.42,-173.73 115.22,-180.68"/>
</a>
</g>
</g>
</g>
</svg>
