<?xml version="1.0" encoding="UTF-8" standalone="no"?>
<!DOCTYPE svg PUBLIC "-//W3C//DTD SVG 1.1//EN"
 "http://www.w3.org/Graphics/SVG/1.1/DTD/svg11.dtd">
<!-- Generated by graphviz version 8.0.5 (0)
 -->
<!-- Title: arax_accel.c Pages: 1 -->
<svg width="666pt" height="408pt"
 viewBox="0.00 0.00 665.88 408.00" xmlns="http://www.w3.org/2000/svg" xmlns:xlink="http://www.w3.org/1999/xlink">
<g id="graph0" class="graph" transform="scale(1 1) rotate(0) translate(4 404)">
<title>arax_accel.c</title>
<!-- Node1 -->
<g id="Node000001" class="node">
<title>Node1</title>
<g id="a_Node000001"><a xlink:title=" ">
<polygon fill="#999999" stroke="#666666" points="542.75,-400 470.5,-400 470.5,-381.5 542.75,-381.5 542.75,-400"/>
<text text-anchor="middle" x="506.62" y="-386.5" font-family="Helvetica,sans-Serif" font-size="10.00">arax_accel.c</text>
</a>
</g>
</g>
<!-- Node2 -->
<g id="Node000002" class="node">
<title>Node2</title>
<g id="a_Node000002"><a xlink:href="a01349.html" target="_top" xlink:title=" ">
<polygon fill="white" stroke="#666666" points="464.12,-345.5 397.12,-345.5 397.12,-327 464.12,-327 464.12,-345.5"/>
<text text-anchor="middle" x="430.62" y="-332" font-family="Helvetica,sans-Serif" font-size="10.00">arax_pipe.h</text>
</a>
</g>
</g>
<!-- Node1&#45;&gt;Node2 -->
<g id="edge1_Node000001_Node000002" class="edge">
<title>Node1&#45;&gt;Node2</title>
<g id="a_edge1_Node000001_Node000002"><a xlink:title=" ">
<path fill="none" stroke="#63b8ff" d="M494.08,-381.08C482.63,-373.18 465.5,-361.34 451.91,-351.96"/>
<polygon fill="#63b8ff" stroke="#63b8ff" points="454.41,-348.74 444.19,-345.93 450.43,-354.5 454.41,-348.74"/>
</a>
</g>
</g>
<!-- Node26 -->
<g id="Node000026" class="node">
<title>Node26</title>
<g id="a_Node000026"><a xlink:title=" ">
<polygon fill="#e0e0e0" stroke="#999999" points="530.75,-345.5 482.5,-345.5 482.5,-327 530.75,-327 530.75,-345.5"/>
<text text-anchor="middle" x="506.62" y="-332" font-family="Helvetica,sans-Serif" font-size="10.00">string.h</text>
</a>
</g>
</g>
<!-- Node1&#45;&gt;Node26 -->
<g id="edge42_Node000001_Node000026" class="edge">
<title>Node1&#45;&gt;Node26</title>
<g id="a_edge42_Node000001_Node000026"><a xlink:title=" ">
<path fill="none" stroke="#63b8ff" d="M506.62,-381.08C506.62,-374.43 506.62,-364.99 506.62,-356.58"/>
<polygon fill="#63b8ff" stroke="#63b8ff" points="510.13,-356.76 506.62,-346.76 503.13,-356.76 510.13,-356.76"/>
</a>
</g>
</g>
<!-- Node27 -->
<g id="Node000027" class="node">
<title>Node27</title>
<g id="a_Node000027"><a xlink:title=" ">
<polygon fill="#e0e0e0" stroke="#999999" points="596.38,-345.5 548.88,-345.5 548.88,-327 596.38,-327 596.38,-345.5"/>
<text text-anchor="middle" x="572.62" y="-332" font-family="Helvetica,sans-Serif" font-size="10.00">stdlib.h</text>
</a>
</g>
</g>
<!-- Node1&#45;&gt;Node27 -->
<g id="edge43_Node000001_Node000027" class="edge">
<title>Node1&#45;&gt;Node27</title>
<g id="a_edge43_Node000001_Node000027"><a xlink:title=" ">
<path fill="none" stroke="#63b8ff" d="M517.52,-381.08C527.33,-373.28 541.95,-361.65 553.66,-352.33"/>
<polygon fill="#63b8ff" stroke="#63b8ff" points="555.28,-354.72 560.93,-345.76 550.92,-349.24 555.28,-354.72"/>
</a>
</g>
</g>
<!-- Node3 -->
<g id="Node000003" class="node">
<title>Node3</title>
<g id="a_Node000003"><a xlink:href="a01346.html" target="_top" xlink:title=" ">
<polygon fill="white" stroke="#666666" points="173.12,-182 130.12,-182 130.12,-163.5 173.12,-163.5 173.12,-182"/>
<text text-anchor="middle" x="151.62" y="-168.5" font-family="Helvetica,sans-Serif" font-size="10.00">arax.h</text>
</a>
</g>
</g>
<!-- Node2&#45;&gt;Node3 -->
<g id="edge2_Node000002_Node000003" class="edge">
<title>Node2&#45;&gt;Node3</title>
<g id="a_edge2_Node000002_Node000003"><a xlink:title=" ">
<path fill="none" stroke="#63b8ff" d="M396.93,-335.89C333.57,-334.98 198.24,-322.55 144.62,-236.5 136.47,-223.4 139.4,-205.74 143.69,-192.49"/>
<polygon fill="#63b8ff" stroke="#63b8ff" points="147.31,-193.8 147.56,-183.2 140.76,-191.33 147.31,-193.8"/>
</a>
</g>
</g>
<!-- Node10 -->
<g id="Node000010" class="node">
<title>Node10</title>
<g id="a_Node000010"><a xlink:href="a01358.html" target="_top" xlink:title=" ">
<polygon fill="white" stroke="#666666" points="657.88,-182 601.38,-182 601.38,-163.5 657.88,-163.5 657.88,-182"/>
<text text-anchor="middle" x="629.62" y="-168.5" font-family="Helvetica,sans-Serif" font-size="10.00">utils/Kv.h</text>
</a>
</g>
</g>
<!-- Node2&#45;&gt;Node10 -->
<g id="edge10_Node000002_Node000010" class="edge">
<title>Node2&#45;&gt;Node10</title>
<g id="a_edge10_Node000002_Node000010"><a xlink:title=" ">
<path fill="none" stroke="#63b8ff" d="M464.4,-328.02C489.45,-321.43 523.49,-309.81 548.62,-291 584,-264.53 609.44,-217.94 621.59,-192.18"/>
<polygon fill="#63b8ff" stroke="#63b8ff" points="625.15,-193.79 626.1,-183.24 618.78,-190.9 625.15,-193.79"/>
</a>
</g>
</g>
<!-- Node16 -->
<g id="Node000016" class="node">
<title>Node16</title>
<g id="a_Node000016"><a xlink:href="a01379.html" target="_top" xlink:title=" ">
<polygon fill="white" stroke="#666666" points="579.38,-182 507.88,-182 507.88,-163.5 579.38,-163.5 579.38,-182"/>
<text text-anchor="middle" x="543.62" y="-168.5" font-family="Helvetica,sans-Serif" font-size="10.00">utils/queue.h</text>
</a>
</g>
</g>
<!-- Node2&#45;&gt;Node16 -->
<g id="edge17_Node000002_Node000016" class="edge">
<title>Node2&#45;&gt;Node16</title>
<g id="a_edge17_Node000002_Node000016"><a xlink:title=" ">
<path fill="none" stroke="#63b8ff" d="M455.87,-326.52C490.02,-313.17 549.55,-284.11 574.62,-236.5 582.82,-220.95 571.86,-202.94 560.77,-190.22"/>
<polygon fill="#63b8ff" stroke="#63b8ff" points="563.73,-188.2 554.31,-183.35 558.65,-193.01 563.73,-188.2"/>
</a>
</g>
</g>
<!-- Node17 -->
<g id="Node000017" class="node">
<title>Node17</title>
<g id="a_Node000017"><a xlink:href="a01391.html" target="_top" xlink:title=" ">
<polygon fill="white" stroke="#666666" points="358.62,-291 264.62,-291 264.62,-272.5 358.62,-272.5 358.62,-291"/>
<text text-anchor="middle" x="311.62" y="-277.5" font-family="Helvetica,sans-Serif" font-size="10.00">core/arax_accel.h</text>
</a>
</g>
</g>
<!-- Node2&#45;&gt;Node17 -->
<g id="edge22_Node000002_Node000017" class="edge">
<title>Node2&#45;&gt;Node17</title>
<g id="a_edge22_Node000002_Node000017"><a xlink:title=" ">
<path fill="none" stroke="#63b8ff" d="M410.97,-326.58C392.03,-318.22 363.1,-305.46 341.34,-295.86"/>
<polygon fill="#63b8ff" stroke="#63b8ff" points="342.87,-292.27 332.3,-291.43 340.04,-298.67 342.87,-292.27"/>
</a>
</g>
</g>
<!-- Node24 -->
<g id="Node000024" class="node">
<title>Node24</title>
<g id="a_Node000024"><a xlink:href="a01412.html" target="_top" xlink:title=" ">
<polygon fill="white" stroke="#666666" points="475.38,-291 385.88,-291 385.88,-272.5 475.38,-272.5 475.38,-291"/>
<text text-anchor="middle" x="430.62" y="-277.5" font-family="Helvetica,sans-Serif" font-size="10.00">core/arax_task.h</text>
</a>
</g>
</g>
<!-- Node2&#45;&gt;Node24 -->
<g id="edge37_Node000002_Node000024" class="edge">
<title>Node2&#45;&gt;Node24</title>
<g id="a_edge37_Node000002_Node000024"><a xlink:title=" ">
<path fill="none" stroke="#63b8ff" d="M430.62,-326.58C430.62,-319.93 430.62,-310.49 430.62,-302.08"/>
<polygon fill="#63b8ff" stroke="#63b8ff" points="434.13,-302.26 430.62,-292.26 427.13,-302.26 434.13,-302.26"/>
</a>
</g>
</g>
<!-- Node4 -->
<g id="Node000004" class="node">
<title>Node4</title>
<g id="a_Node000004"><a xlink:title=" ">
<polygon fill="#e0e0e0" stroke="#999999" points="225.25,-127.5 180,-127.5 180,-109 225.25,-109 225.25,-127.5"/>
<text text-anchor="middle" x="202.62" y="-114" font-family="Helvetica,sans-Serif" font-size="10.00">stdio.h</text>
</a>
</g>
</g>
<!-- Node3&#45;&gt;Node4 -->
<g id="edge3_Node000003_Node000004" class="edge">
<title>Node3&#45;&gt;Node4</title>
<g id="a_edge3_Node000003_Node000004"><a xlink:title=" ">
<path fill="none" stroke="#63b8ff" d="M160.05,-163.08C167.32,-155.59 178.04,-144.56 186.9,-135.44"/>
<polygon fill="#63b8ff" stroke="#63b8ff" points="188.9,-138.37 193.36,-128.76 183.88,-133.49 188.9,-138.37"/>
</a>
</g>
</g>
<!-- Node5 -->
<g id="Node000005" class="node">
<title>Node5</title>
<g id="a_Node000005"><a xlink:title=" ">
<polygon fill="#e0e0e0" stroke="#999999" points="410.88,-73 360.38,-73 360.38,-54.5 410.88,-54.5 410.88,-73"/>
<text text-anchor="middle" x="385.62" y="-59.5" font-family="Helvetica,sans-Serif" font-size="10.00">stddef.h</text>
</a>
</g>
</g>
<!-- Node3&#45;&gt;Node5 -->
<g id="edge4_Node000003_Node000005" class="edge">
<title>Node3&#45;&gt;Node5</title>
<g id="a_edge4_Node000003_Node000005"><a xlink:title=" ">
<path fill="none" stroke="#63b8ff" d="M167.46,-163.18C190.83,-150.67 236.07,-126.93 275.62,-109 300.92,-97.54 330.11,-85.87 352.06,-77.39"/>
<polygon fill="#63b8ff" stroke="#63b8ff" points="353.12,-80.35 361.2,-73.5 350.61,-73.81 353.12,-80.35"/>
</a>
</g>
</g>
<!-- Node6 -->
<g id="Node000006" class="node">
<title>Node6</title>
<g id="a_Node000006"><a xlink:href="a01352.html" target="_top" xlink:title=" ">
<polygon fill="white" stroke="#666666" points="143.12,-73 70.12,-73 70.12,-54.5 143.12,-54.5 143.12,-73"/>
<text text-anchor="middle" x="106.62" y="-59.5" font-family="Helvetica,sans-Serif" font-size="10.00">arax_types.h</text>
</a>
</g>
</g>
<!-- Node3&#45;&gt;Node6 -->
<g id="edge5_Node000003_Node000006" class="edge">
<title>Node3&#45;&gt;Node6</title>
<g id="a_edge5_Node000003_Node000006"><a xlink:title=" ">
<path fill="none" stroke="#63b8ff" d="M149.77,-163.4C146.9,-151.17 140.84,-127.77 132.62,-109 128.65,-99.92 123.22,-90.37 118.35,-82.48"/>
<polygon fill="#63b8ff" stroke="#63b8ff" points="120.78,-80.78 112.44,-74.24 114.88,-84.55 120.78,-80.78"/>
</a>
</g>
</g>
<!-- Node9 -->
<g id="Node000009" class="node">
<title>Node9</title>
<g id="a_Node000009"><a xlink:href="a01394.html" target="_top" xlink:title=" ">
<polygon fill="white" stroke="#666666" points="123.25,-127.5 0,-127.5 0,-109 123.25,-109 123.25,-127.5"/>
<text text-anchor="middle" x="61.62" y="-114" font-family="Helvetica,sans-Serif" font-size="10.00">core/arax_accel_types.h</text>
</a>
</g>
</g>
<!-- Node3&#45;&gt;Node9 -->
<g id="edge8_Node000003_Node000009" class="edge">
<title>Node3&#45;&gt;Node9</title>
<g id="a_edge8_Node000003_Node000009"><a xlink:title=" ">
<path fill="none" stroke="#63b8ff" d="M136.76,-163.08C122.95,-155.03 102.14,-142.88 85.91,-133.42"/>
<polygon fill="#63b8ff" stroke="#63b8ff" points="87.91,-129.95 77.51,-127.93 84.38,-135.99 87.91,-129.95"/>
</a>
</g>
</g>
<!-- Node7 -->
<g id="Node000007" class="node">
<title>Node7</title>
<g id="a_Node000007"><a xlink:title=" ">
<polygon fill="#e0e0e0" stroke="#999999" points="101.75,-18.5 41.5,-18.5 41.5,0 101.75,0 101.75,-18.5"/>
<text text-anchor="middle" x="71.62" y="-5" font-family="Helvetica,sans-Serif" font-size="10.00">sys/time.h</text>
</a>
</g>
</g>
<!-- Node6&#45;&gt;Node7 -->
<g id="edge6_Node000006_Node000007" class="edge">
<title>Node6&#45;&gt;Node7</title>
<g id="a_edge6_Node000006_Node000007"><a xlink:title=" ">
<path fill="none" stroke="#63b8ff" d="M100.85,-54.08C96.11,-46.97 89.24,-36.68 83.36,-27.85"/>
<polygon fill="#63b8ff" stroke="#63b8ff" points="85.76,-26.14 77.3,-19.76 79.93,-30.02 85.76,-26.14"/>
</a>
</g>
</g>
<!-- Node8 -->
<g id="Node000008" class="node">
<title>Node8</title>
<g id="a_Node000008"><a xlink:title=" ">
<polygon fill="#e0e0e0" stroke="#999999" points="163.12,-18.5 120.12,-18.5 120.12,0 163.12,0 163.12,-18.5"/>
<text text-anchor="middle" x="141.62" y="-5" font-family="Helvetica,sans-Serif" font-size="10.00">time.h</text>
</a>
</g>
</g>
<!-- Node6&#45;&gt;Node8 -->
<g id="edge7_Node000006_Node000008" class="edge">
<title>Node6&#45;&gt;Node8</title>
<g id="a_edge7_Node000006_Node000008"><a xlink:title=" ">
<path fill="none" stroke="#63b8ff" d="M112.4,-54.08C117.14,-46.97 124.01,-36.68 129.89,-27.85"/>
<polygon fill="#63b8ff" stroke="#63b8ff" points="133.32,-30.02 135.95,-19.76 127.49,-26.14 133.32,-30.02"/>
</a>
</g>
</g>
<!-- Node9&#45;&gt;Node6 -->
<g id="edge9_Node000009_Node000006" class="edge">
<title>Node9&#45;&gt;Node6</title>
<g id="a_edge9_Node000009_Node000006"><a xlink:title=" ">
<path fill="none" stroke="#63b8ff" d="M69.06,-108.58C75.35,-101.24 84.55,-90.51 92.27,-81.5"/>
<polygon fill="#63b8ff" stroke="#63b8ff" points="95.48,-84.13 99.33,-74.26 90.17,-79.57 95.48,-84.13"/>
</a>
</g>
</g>
<!-- Node10&#45;&gt;Node5 -->
<g id="edge12_Node000010_Node000005" class="edge">
<title>Node10&#45;&gt;Node5</title>
<g id="a_edge12_Node000010_Node000005"><a xlink:title=" ">
<path fill="none" stroke="#63b8ff" d="M637.04,-163.03C647.29,-149.9 663.07,-124.88 649.62,-109 645.95,-104.65 493.13,-81.02 421.71,-70.18"/>
<polygon fill="#63b8ff" stroke="#63b8ff" points="422.4,-66.6 411.98,-68.56 421.35,-73.52 422.4,-66.6"/>
</a>
</g>
</g>
<!-- Node11 -->
<g id="Node000011" class="node">
<title>Node11</title>
<g id="a_Node000011"><a xlink:href="a01427.html" target="_top" xlink:title=" ">
<polygon fill="white" stroke="#666666" points="640.75,-127.5 598.5,-127.5 598.5,-109 640.75,-109 640.75,-127.5"/>
<text text-anchor="middle" x="619.62" y="-114" font-family="Helvetica,sans-Serif" font-size="10.00">conf.h</text>
</a>
</g>
</g>
<!-- Node10&#45;&gt;Node11 -->
<g id="edge11_Node000010_Node000011" class="edge">
<title>Node10&#45;&gt;Node11</title>
<g id="a_edge11_Node000010_Node000011"><a xlink:title=" ">
<path fill="none" stroke="#63b8ff" d="M627.97,-163.08C626.69,-156.35 624.87,-146.77 623.25,-138.29"/>
<polygon fill="#63b8ff" stroke="#63b8ff" points="626.55,-137.93 621.25,-128.76 619.68,-139.24 626.55,-137.93"/>
</a>
</g>
</g>
<!-- Node12 -->
<g id="Node000012" class="node">
<title>Node12</title>
<g id="a_Node000012"><a xlink:href="a01382.html" target="_top" xlink:title=" ">
<polygon fill="white" stroke="#666666" points="580.75,-127.5 520.5,-127.5 520.5,-109 580.75,-109 580.75,-127.5"/>
<text text-anchor="middle" x="550.62" y="-114" font-family="Helvetica,sans-Serif" font-size="10.00">spinlock.h</text>
</a>
</g>
</g>
<!-- Node10&#45;&gt;Node12 -->
<g id="edge13_Node000010_Node000012" class="edge">
<title>Node10&#45;&gt;Node12</title>
<g id="a_edge13_Node000010_Node000012"><a xlink:title=" ">
<path fill="none" stroke="#63b8ff" d="M616.58,-163.08C604.69,-155.18 586.87,-143.34 572.75,-133.96"/>
<polygon fill="#63b8ff" stroke="#63b8ff" points="574.96,-130.55 564.69,-127.93 571.08,-136.38 574.96,-130.55"/>
</a>
</g>
</g>
<!-- Node13 -->
<g id="Node000013" class="node">
<title>Node13</title>
<g id="a_Node000013"><a xlink:title=" ">
<polygon fill="#e0e0e0" stroke="#999999" points="500.38,-73 452.88,-73 452.88,-54.5 500.38,-54.5 500.38,-73"/>
<text text-anchor="middle" x="476.62" y="-59.5" font-family="Helvetica,sans-Serif" font-size="10.00">stdint.h</text>
</a>
</g>
</g>
<!-- Node12&#45;&gt;Node13 -->
<g id="edge14_Node000012_Node000013" class="edge">
<title>Node12&#45;&gt;Node13</title>
<g id="a_edge14_Node000012_Node000013"><a xlink:title=" ">
<path fill="none" stroke="#63b8ff" d="M538.41,-108.58C527.37,-100.75 510.9,-89.07 497.74,-79.73"/>
<polygon fill="#63b8ff" stroke="#63b8ff" points="500.04,-76.36 489.86,-73.43 495.99,-82.07 500.04,-76.36"/>
</a>
</g>
</g>
<!-- Node14 -->
<g id="Node000014" class="node">
<title>Node14</title>
<g id="a_Node000014"><a xlink:href="a01361.html" target="_top" xlink:title=" ">
<polygon fill="white" stroke="#666666" points="615.12,-73 518.12,-73 518.12,-54.5 615.12,-54.5 615.12,-73"/>
<text text-anchor="middle" x="566.62" y="-59.5" font-family="Helvetica,sans-Serif" font-size="10.00">utils/arax_assert.h</text>
</a>
</g>
</g>
<!-- Node12&#45;&gt;Node14 -->
<g id="edge15_Node000012_Node000014" class="edge">
<title>Node12&#45;&gt;Node14</title>
<g id="a_edge15_Node000012_Node000014"><a xlink:title=" ">
<path fill="none" stroke="#63b8ff" d="M553.27,-108.58C555.34,-101.78 558.3,-92.06 560.91,-83.5"/>
<polygon fill="#63b8ff" stroke="#63b8ff" points="564.46,-84.84 564.03,-74.26 557.77,-82.8 564.46,-84.84"/>
</a>
</g>
</g>
<!-- Node15 -->
<g id="Node000015" class="node">
<title>Node15</title>
<g id="a_Node000015"><a xlink:href="a01370.html" target="_top" xlink:title=" ">
<polygon fill="white" stroke="#666666" points="594.5,-18.5 538.75,-18.5 538.75,0 594.5,0 594.5,-18.5"/>
<text text-anchor="middle" x="566.62" y="-5" font-family="Helvetica,sans-Serif" font-size="10.00">compat.h</text>
</a>
</g>
</g>
<!-- Node14&#45;&gt;Node15 -->
<g id="edge16_Node000014_Node000015" class="edge">
<title>Node14&#45;&gt;Node15</title>
<g id="a_edge16_Node000014_Node000015"><a xlink:title=" ">
<path fill="none" stroke="#63b8ff" d="M566.62,-54.08C566.62,-47.43 566.62,-37.99 566.62,-29.58"/>
<polygon fill="#63b8ff" stroke="#63b8ff" points="570.13,-29.76 566.62,-19.76 563.13,-29.76 570.13,-29.76"/>
</a>
</g>
</g>
<!-- Node16&#45;&gt;Node5 -->
<g id="edge18_Node000016_Node000005" class="edge">
<title>Node16&#45;&gt;Node5</title>
<g id="a_edge18_Node000016_Node000005"><a xlink:title=" ">
<path fill="none" stroke="#63b8ff" d="M507.63,-165.25C469.35,-157.6 412.33,-143.84 397.62,-127.5 387.07,-115.77 384.54,-97.69 384.38,-83.94"/>
<polygon fill="#63b8ff" stroke="#63b8ff" points="387.9,-84.35 384.7,-74.25 380.9,-84.14 387.9,-84.35"/>
</a>
</g>
</g>
<!-- Node16&#45;&gt;Node11 -->
<g id="edge20_Node000016_Node000011" class="edge">
<title>Node16&#45;&gt;Node11</title>
<g id="a_edge20_Node000016_Node000011"><a xlink:title=" ">
<path fill="none" stroke="#63b8ff" d="M556.17,-163.08C567.62,-155.18 584.75,-143.34 598.34,-133.96"/>
<polygon fill="#63b8ff" stroke="#63b8ff" points="599.82,-136.5 606.06,-127.93 595.84,-130.74 599.82,-136.5"/>
</a>
</g>
</g>
<!-- Node16&#45;&gt;Node12 -->
<g id="edge21_Node000016_Node000012" class="edge">
<title>Node16&#45;&gt;Node12</title>
<g id="a_edge21_Node000016_Node000012"><a xlink:title=" ">
<path fill="none" stroke="#63b8ff" d="M544.78,-163.08C545.67,-156.43 546.93,-146.99 548.05,-138.58"/>
<polygon fill="#63b8ff" stroke="#63b8ff" points="551.64,-139.13 549.49,-128.76 544.7,-138.21 551.64,-139.13"/>
</a>
</g>
</g>
<!-- Node16&#45;&gt;Node13 -->
<g id="edge19_Node000016_Node000013" class="edge">
<title>Node16&#45;&gt;Node13</title>
<g id="a_edge19_Node000016_Node000013"><a xlink:title=" ">
<path fill="none" stroke="#63b8ff" d="M536.94,-163.15C530.24,-154.38 519.78,-140.29 511.62,-127.5 502.3,-112.87 492.78,-95.62 486.03,-82.91"/>
<polygon fill="#63b8ff" stroke="#63b8ff" points="488.81,-81.69 481.07,-74.46 482.61,-84.94 488.81,-81.69"/>
</a>
</g>
</g>
<!-- Node17&#45;&gt;Node3 -->
<g id="edge23_Node000017_Node000003" class="edge">
<title>Node17&#45;&gt;Node3</title>
<g id="a_edge23_Node000017_Node000003"><a xlink:title=" ">
<path fill="none" stroke="#63b8ff" d="M264.34,-280.74C228.96,-277.99 182.42,-268 156.62,-236.5 146.77,-224.47 146.33,-206.42 147.88,-192.76"/>
<polygon fill="#63b8ff" stroke="#63b8ff" points="151.45,-193.58 149.57,-183.16 144.54,-192.48 151.45,-193.58"/>
</a>
</g>
</g>
<!-- Node18 -->
<g id="Node000018" class="node">
<title>Node18</title>
<g id="a_Node000018"><a xlink:title=" ">
<polygon fill="#e0e0e0" stroke="#999999" points="343.5,-182 293.75,-182 293.75,-163.5 343.5,-163.5 343.5,-182"/>
<text text-anchor="middle" x="318.62" y="-168.5" font-family="Helvetica,sans-Serif" font-size="10.00">async.h</text>
</a>
</g>
</g>
<!-- Node17&#45;&gt;Node18 -->
<g id="edge24_Node000017_Node000018" class="edge">
<title>Node17&#45;&gt;Node18</title>
<g id="a_edge24_Node000017_Node000018"><a xlink:title=" ">
<path fill="none" stroke="#63b8ff" d="M311.44,-272.21C311.25,-260.12 311.16,-237.34 312.62,-218 313.25,-209.78 314.39,-200.76 315.51,-193.01"/>
<polygon fill="#63b8ff" stroke="#63b8ff" points="319.11,-193.62 317.17,-183.2 312.19,-192.55 319.11,-193.62"/>
</a>
</g>
</g>
<!-- Node19 -->
<g id="Node000019" class="node">
<title>Node19</title>
<g id="a_Node000019"><a xlink:href="a01418.html" target="_top" xlink:title=" ">
<polygon fill="white" stroke="#666666" points="565.88,-236.5 467.38,-236.5 467.38,-218 565.88,-218 565.88,-236.5"/>
<text text-anchor="middle" x="516.62" y="-223" font-family="Helvetica,sans-Serif" font-size="10.00">core/arax_vaccel.h</text>
</a>
</g>
</g>
<!-- Node17&#45;&gt;Node19 -->
<g id="edge25_Node000017_Node000019" class="edge">
<title>Node17&#45;&gt;Node19</title>
<g id="a_edge25_Node000017_Node000019"><a xlink:title=" ">
<path fill="none" stroke="#63b8ff" d="M340.31,-272.08C373.17,-263.17 427.33,-249.26 467.03,-239.5"/>
<polygon fill="#63b8ff" stroke="#63b8ff" points="467.67,-242.71 476.55,-236.93 466.01,-235.91 467.67,-242.71"/>
</a>
</g>
</g>
<!-- Node23 -->
<g id="Node000023" class="node">
<title>Node23</title>
<g id="a_Node000023"><a xlink:href="a01415.html" target="_top" xlink:title=" ">
<polygon fill="white" stroke="#666666" points="266,-236.5 165.25,-236.5 165.25,-218 266,-218 266,-236.5"/>
<text text-anchor="middle" x="215.62" y="-223" font-family="Helvetica,sans-Serif" font-size="10.00">core/arax_throttle.h</text>
</a>
</g>
</g>
<!-- Node17&#45;&gt;Node23 -->
<g id="edge35_Node000017_Node000023" class="edge">
<title>Node17&#45;&gt;Node23</title>
<g id="a_edge35_Node000017_Node000023"><a xlink:title=" ">
<path fill="none" stroke="#63b8ff" d="M295.77,-272.08C280.9,-263.95 258.42,-251.65 241.04,-242.15"/>
<polygon fill="#63b8ff" stroke="#63b8ff" points="242.95,-238.66 232.5,-236.93 239.6,-244.8 242.95,-238.66"/>
</a>
</g>
</g>
<!-- Node19&#45;&gt;Node16 -->
<g id="edge32_Node000019_Node000016" class="edge">
<title>Node19&#45;&gt;Node16</title>
<g id="a_edge32_Node000019_Node000016"><a xlink:title=" ">
<path fill="none" stroke="#63b8ff" d="M521.08,-217.58C524.66,-210.62 529.81,-200.62 534.28,-191.92"/>
<polygon fill="#63b8ff" stroke="#63b8ff" points="537.79,-193.75 539.25,-183.26 531.56,-190.55 537.79,-193.75"/>
</a>
</g>
</g>
<!-- Node19&#45;&gt;Node17 -->
<g id="edge33_Node000019_Node000017" class="edge">
<title>Node19&#45;&gt;Node17</title>
<g id="a_edge33_Node000019_Node000017"><a xlink:title=" ">
<path fill="none" stroke="#63b8ff" d="M487.89,-236.93C455.01,-245.85 400.85,-259.76 361.16,-269.51"/>
<polygon fill="#63b8ff" stroke="#63b8ff" points="360.53,-266.31 351.64,-272.08 362.19,-273.11 360.53,-266.31"/>
</a>
</g>
</g>
<!-- Node19&#45;&gt;Node18 -->
<g id="edge34_Node000019_Node000018" class="edge">
<title>Node19&#45;&gt;Node18</title>
<g id="a_edge34_Node000019_Node000018"><a xlink:title=" ">
<path fill="none" stroke="#63b8ff" d="M483.93,-217.58C448.14,-208.09 390.95,-192.93 354.1,-183.16"/>
<polygon fill="#63b8ff" stroke="#63b8ff" points="355.38,-179.61 344.82,-180.43 353.59,-186.38 355.38,-179.61"/>
</a>
</g>
</g>
<!-- Node20 -->
<g id="Node000020" class="node">
<title>Node20</title>
<g id="a_Node000020"><a xlink:href="a01403.html" target="_top" xlink:title=" ">
<polygon fill="white" stroke="#666666" points="483.75,-182 387.5,-182 387.5,-163.5 483.75,-163.5 483.75,-182"/>
<text text-anchor="middle" x="435.62" y="-168.5" font-family="Helvetica,sans-Serif" font-size="10.00">core/arax_object.h</text>
</a>
</g>
</g>
<!-- Node19&#45;&gt;Node20 -->
<g id="edge26_Node000019_Node000020" class="edge">
<title>Node19&#45;&gt;Node20</title>
<g id="a_edge26_Node000019_Node000020"><a xlink:title=" ">
<path fill="none" stroke="#63b8ff" d="M503.25,-217.58C490.94,-209.6 472.44,-197.61 457.9,-188.19"/>
<polygon fill="#63b8ff" stroke="#63b8ff" points="460.32,-184.93 450.02,-182.43 456.51,-190.81 460.32,-184.93"/>
</a>
</g>
</g>
<!-- Node20&#45;&gt;Node12 -->
<g id="edge30_Node000020_Node000012" class="edge">
<title>Node20&#45;&gt;Node12</title>
<g id="a_edge30_Node000020_Node000012"><a xlink:title=" ">
<path fill="none" stroke="#63b8ff" d="M454.61,-163.08C472.84,-154.76 500.63,-142.08 521.62,-132.49"/>
<polygon fill="#63b8ff" stroke="#63b8ff" points="522.96,-135.27 530.61,-127.93 520.06,-128.9 522.96,-135.27"/>
</a>
</g>
</g>
<!-- Node21 -->
<g id="Node000021" class="node">
<title>Node21</title>
<g id="a_Node000021"><a xlink:href="a01376.html" target="_top" xlink:title=" ">
<polygon fill="white" stroke="#666666" points="464.25,-127.5 407,-127.5 407,-109 464.25,-109 464.25,-127.5"/>
<text text-anchor="middle" x="435.62" y="-114" font-family="Helvetica,sans-Serif" font-size="10.00">utils/list.h</text>
</a>
</g>
</g>
<!-- Node20&#45;&gt;Node21 -->
<g id="edge27_Node000020_Node000021" class="edge">
<title>Node20&#45;&gt;Node21</title>
<g id="a_edge27_Node000020_Node000021"><a xlink:title=" ">
<path fill="none" stroke="#63b8ff" d="M435.62,-163.08C435.62,-156.43 435.62,-146.99 435.62,-138.58"/>
<polygon fill="#63b8ff" stroke="#63b8ff" points="439.13,-138.76 435.62,-128.76 432.13,-138.76 439.13,-138.76"/>
</a>
</g>
</g>
<!-- Node22 -->
<g id="Node000022" class="node">
<title>Node22</title>
<g id="a_Node000022"><a xlink:title=" ">
<polygon fill="#e0e0e0" stroke="#999999" points="350.75,-127.5 284.5,-127.5 284.5,-109 350.75,-109 350.75,-127.5"/>
<text text-anchor="middle" x="317.62" y="-114" font-family="Helvetica,sans-Serif" font-size="10.00">arch/alloc.h</text>
</a>
</g>
</g>
<!-- Node20&#45;&gt;Node22 -->
<g id="edge31_Node000020_Node000022" class="edge">
<title>Node20&#45;&gt;Node22</title>
<g id="a_edge31_Node000020_Node000022"><a xlink:title=" ">
<path fill="none" stroke="#63b8ff" d="M416.14,-163.08C397.35,-154.72 368.67,-141.96 347.09,-132.36"/>
<polygon fill="#63b8ff" stroke="#63b8ff" points="348.7,-128.8 338.14,-127.93 345.85,-135.2 348.7,-128.8"/>
</a>
</g>
</g>
<!-- Node21&#45;&gt;Node5 -->
<g id="edge28_Node000021_Node000005" class="edge">
<title>Node21&#45;&gt;Node5</title>
<g id="a_edge28_Node000021_Node000005"><a xlink:title=" ">
<path fill="none" stroke="#63b8ff" d="M427.37,-108.58C420.31,-101.17 409.94,-90.28 401.31,-81.22"/>
<polygon fill="#63b8ff" stroke="#63b8ff" points="404.16,-79.09 394.73,-74.26 399.09,-83.91 404.16,-79.09"/>
</a>
</g>
</g>
<!-- Node21&#45;&gt;Node13 -->
<g id="edge29_Node000021_Node000013" class="edge">
<title>Node21&#45;&gt;Node13</title>
<g id="a_edge29_Node000021_Node000013"><a xlink:title=" ">
<path fill="none" stroke="#63b8ff" d="M442.4,-108.58C448.07,-101.32 456.33,-90.73 463.32,-81.78"/>
<polygon fill="#63b8ff" stroke="#63b8ff" points="466.58,-84.29 469.98,-74.26 461.07,-79.99 466.58,-84.29"/>
</a>
</g>
</g>
<!-- Node23&#45;&gt;Node18 -->
<g id="edge36_Node000023_Node000018" class="edge">
<title>Node23&#45;&gt;Node18</title>
<g id="a_edge36_Node000023_Node000018"><a xlink:title=" ">
<path fill="none" stroke="#63b8ff" d="M232.63,-217.58C248.74,-209.37 273.16,-196.92 291.87,-187.39"/>
<polygon fill="#63b8ff" stroke="#63b8ff" points="293.27,-190.09 300.59,-182.43 290.09,-183.86 293.27,-190.09"/>
</a>
</g>
</g>
<!-- Node24&#45;&gt;Node18 -->
<g id="edge41_Node000024_Node000018" class="edge">
<title>Node24&#45;&gt;Node18</title>
<g id="a_edge41_Node000024_Node000018"><a xlink:title=" ">
<path fill="none" stroke="#63b8ff" d="M431.69,-272.03C432.79,-258.89 432.93,-233.86 420.62,-218 404.56,-197.29 376.84,-186.1 354.35,-180.16"/>
<polygon fill="#63b8ff" stroke="#63b8ff" points="355.34,-176.56 344.81,-177.64 353.72,-183.37 355.34,-176.56"/>
</a>
</g>
</g>
<!-- Node25 -->
<g id="Node000025" class="node">
<title>Node25</title>
<g id="a_Node000025"><a xlink:href="a01406.html" target="_top" xlink:title=" ">
<polygon fill="white" stroke="#666666" points="411.38,-236.5 321.88,-236.5 321.88,-218 411.38,-218 411.38,-236.5"/>
<text text-anchor="middle" x="366.62" y="-223" font-family="Helvetica,sans-Serif" font-size="10.00">core/arax_proc.h</text>
</a>
</g>
</g>
<!-- Node24&#45;&gt;Node25 -->
<g id="edge38_Node000024_Node000025" class="edge">
<title>Node24&#45;&gt;Node25</title>
<g id="a_edge38_Node000024_Node000025"><a xlink:title=" ">
<path fill="none" stroke="#63b8ff" d="M420.06,-272.08C410.64,-264.36 396.65,-252.88 385.35,-243.61"/>
<polygon fill="#63b8ff" stroke="#63b8ff" points="387.95,-240.39 378,-236.76 383.51,-245.81 387.95,-240.39"/>
</a>
</g>
</g>
<!-- Node25&#45;&gt;Node3 -->
<g id="edge39_Node000025_Node000003" class="edge">
<title>Node25&#45;&gt;Node3</title>
<g id="a_edge39_Node000025_Node000003"><a xlink:title=" ">
<path fill="none" stroke="#63b8ff" d="M331.12,-217.58C290.22,-207.59 223.58,-191.32 184.03,-181.66"/>
<polygon fill="#63b8ff" stroke="#63b8ff" points="184.94,-178.04 174.4,-179.07 183.28,-184.84 184.94,-178.04"/>
</a>
</g>
</g>
<!-- Node25&#45;&gt;Node20 -->
<g id="edge40_Node000025_Node000020" class="edge">
<title>Node25&#45;&gt;Node20</title>
<g id="a_edge40_Node000025_Node000020"><a xlink:title=" ">
<path fill="none" stroke="#63b8ff" d="M378.02,-217.58C388.27,-209.78 403.55,-198.15 415.8,-188.83"/>
<polygon fill="#63b8ff" stroke="#63b8ff" points="417.6,-191.1 423.44,-182.26 413.37,-185.53 417.6,-191.1"/>
</a>
</g>
</g>
</g>
</svg>
