<?xml version="1.0" encoding="UTF-8" standalone="no"?>
<!DOCTYPE svg PUBLIC "-//W3C//DTD SVG 1.1//EN"
 "http://www.w3.org/Graphics/SVG/1.1/DTD/svg11.dtd">
<!-- Generated by graphviz version 12.2.1 (0)
 -->
<!-- Title: conf_get Pages: 1 -->
<svg width="1699pt" height="252pt"
 viewBox="0.00 0.00 1698.75 251.50" xmlns="http://www.w3.org/2000/svg" xmlns:xlink="http://www.w3.org/1999/xlink">
<g id="graph0" class="graph" transform="scale(1 1) rotate(0) translate(4 247.5)">
<title>conf_get</title>
<!-- Node1 -->
<g id="Node000001" class="node">
<title>Node1</title>
<g id="a_Node000001"><a xlink:title=" ">
<polygon fill="#999999" stroke="#666666" points="1690.75,-148.5 1637.25,-148.5 1637.25,-130 1690.75,-130 1690.75,-148.5"/>
<text text-anchor="middle" x="1664" y="-135" font-family="Helvetica,sans-Serif" font-size="10.00">conf_get</text>
</a>
</g>
</g>
<!-- Node2 -->
<g id="Node000002" class="node">
<title>Node2</title>
<g id="a_Node000002"><a xlink:href="a01952.html#a0738274ac3fd171eda6bfb42492bc0d7" target="_top" xlink:title=" ">
<polygon fill="white" stroke="#666666" points="1452.5,-130.5 1346.5,-130.5 1346.5,-112 1452.5,-112 1452.5,-130.5"/>
<text text-anchor="middle" x="1399.5" y="-117" font-family="Helvetica,sans-Serif" font-size="10.00">_utils_config_get_str</text>
</a>
</g>
</g>
<!-- Node1&#45;&gt;Node2 -->
<g id="edge1_Node000001_Node000002" class="edge">
<title>Node1&#45;&gt;Node2</title>
<g id="a_edge1_Node000001_Node000002"><a xlink:title=" ">
<path fill="none" stroke="#63b8ff" d="M1625.53,-136.68C1580.29,-133.58 1503.95,-128.34 1452.9,-124.84"/>
<polygon fill="#63b8ff" stroke="#63b8ff" points="1625.14,-140.16 1635.36,-137.35 1625.62,-133.18 1625.14,-140.16"/>
</a>
</g>
</g>
<!-- Node21 -->
<g id="Node000021" class="node">
<title>Node21</title>
<g id="a_Node000021"><a xlink:href="a01952.html#a4b9cd8f5d0c205ac6c1fd30f77cbf539" target="_top" xlink:title=" ">
<polygon fill="white" stroke="#666666" points="1601.25,-167.5 1493,-167.5 1493,-149 1601.25,-149 1601.25,-167.5"/>
<text text-anchor="middle" x="1547.12" y="-154" font-family="Helvetica,sans-Serif" font-size="10.00">utils_config_write_str</text>
</a>
</g>
</g>
<!-- Node1&#45;&gt;Node21 -->
<g id="edge26_Node000001_Node000021" class="edge">
<title>Node1&#45;&gt;Node21</title>
<g id="a_edge26_Node000001_Node000021"><a xlink:title=" ">
<path fill="none" stroke="#63b8ff" d="M1625.65,-145.43C1617.88,-146.71 1609.54,-148.09 1601.32,-149.45"/>
<polygon fill="#63b8ff" stroke="#63b8ff" points="1626.15,-148.89 1635.44,-143.81 1625,-141.99 1626.15,-148.89"/>
</a>
</g>
</g>
<!-- Node3 -->
<g id="Node000003" class="node">
<title>Node3</title>
<g id="a_Node000003"><a xlink:href="a01952.html#a1a28ba7c7791236d03b1fa9f81aa6a71" target="_top" xlink:title=" ">
<polygon fill="white" stroke="#666666" points="1306,-130.5 1198.5,-130.5 1198.5,-112 1306,-112 1306,-130.5"/>
<text text-anchor="middle" x="1252.25" y="-117" font-family="Helvetica,sans-Serif" font-size="10.00">utils_config_get_long</text>
</a>
</g>
</g>
<!-- Node2&#45;&gt;Node3 -->
<g id="edge2_Node000002_Node000003" class="edge">
<title>Node2&#45;&gt;Node3</title>
<g id="a_edge2_Node000002_Node000003"><a xlink:title=" ">
<path fill="none" stroke="#63b8ff" d="M1334.6,-121.25C1325.08,-121.25 1315.36,-121.25 1306.1,-121.25"/>
<polygon fill="#63b8ff" stroke="#63b8ff" points="1334.55,-124.75 1344.55,-121.25 1334.55,-117.75 1334.55,-124.75"/>
</a>
</g>
</g>
<!-- Node17 -->
<g id="Node000017" class="node">
<title>Node17</title>
<g id="a_Node000017"><a xlink:href="a01952.html#a1e8deff7c038efae14d1cc98e4ab109f" target="_top" xlink:title=" ">
<polygon fill="white" stroke="#666666" points="1302.62,-204.5 1201.88,-204.5 1201.88,-186 1302.62,-186 1302.62,-204.5"/>
<text text-anchor="middle" x="1252.25" y="-191" font-family="Helvetica,sans-Serif" font-size="10.00">utils_config_get_str</text>
</a>
</g>
</g>
<!-- Node2&#45;&gt;Node17 -->
<g id="edge20_Node000002_Node000017" class="edge">
<title>Node2&#45;&gt;Node17</title>
<g id="a_edge20_Node000002_Node000017"><a xlink:title=" ">
<path fill="none" stroke="#63b8ff" d="M1354.67,-134.87C1350.34,-136.55 1346.05,-138.35 1342,-140.25 1313.79,-153.52 1283.42,-173.79 1266.53,-185.66"/>
<polygon fill="#63b8ff" stroke="#63b8ff" points="1355.81,-138.18 1364.01,-131.47 1353.41,-131.6 1355.81,-138.18"/>
</a>
</g>
</g>
<!-- Node4 -->
<g id="Node000004" class="node">
<title>Node4</title>
<g id="a_Node000004"><a xlink:href="a01952.html#a336fa8eefc3d744aa7248d6786cfee03" target="_top" xlink:title=" ">
<polygon fill="white" stroke="#666666" points="1162.5,-93.5 1062.5,-93.5 1062.5,-75 1162.5,-75 1162.5,-93.5"/>
<text text-anchor="middle" x="1112.5" y="-80" font-family="Helvetica,sans-Serif" font-size="10.00">utils_config_get_int</text>
</a>
</g>
</g>
<!-- Node3&#45;&gt;Node4 -->
<g id="edge3_Node000003_Node000004" class="edge">
<title>Node3&#45;&gt;Node4</title>
<g id="a_edge3_Node000003_Node000004"><a xlink:title=" ">
<path fill="none" stroke="#63b8ff" d="M1203.98,-108.55C1186.12,-103.76 1166.11,-98.38 1149.45,-93.91"/>
<polygon fill="#63b8ff" stroke="#63b8ff" points="1203.03,-111.92 1213.6,-111.14 1204.85,-105.16 1203.03,-111.92"/>
</a>
</g>
</g>
<!-- Node16 -->
<g id="Node000016" class="node">
<title>Node16</title>
<g id="a_Node000016"><a xlink:href="a01952.html#a4a525d89ade920512dc65409bc8e85d8" target="_top" xlink:title=" ">
<polygon fill="white" stroke="#666666" points="880,-131.5 773.25,-131.5 773.25,-113 880,-113 880,-131.5"/>
<text text-anchor="middle" x="826.62" y="-118" font-family="Helvetica,sans-Serif" font-size="10.00">utils_config_get_size</text>
</a>
</g>
</g>
<!-- Node3&#45;&gt;Node16 -->
<g id="edge18_Node000003_Node000016" class="edge">
<title>Node3&#45;&gt;Node16</title>
<g id="a_edge18_Node000003_Node000016"><a xlink:title=" ">
<path fill="none" stroke="#63b8ff" d="M1186.6,-121.4C1102.7,-121.6 957.87,-121.94 880.3,-122.13"/>
<polygon fill="#63b8ff" stroke="#63b8ff" points="1186.52,-124.9 1196.51,-121.38 1186.5,-117.9 1186.52,-124.9"/>
</a>
</g>
</g>
<!-- Node5 -->
<g id="Node000005" class="node">
<title>Node5</title>
<g id="a_Node000005"><a xlink:href="a01952.html#aa7aa94ad075bf97a566f01f899fcd859" target="_top" xlink:title=" ">
<polygon fill="white" stroke="#666666" points="1026.5,-93.5 919,-93.5 919,-75 1026.5,-75 1026.5,-93.5"/>
<text text-anchor="middle" x="972.75" y="-80" font-family="Helvetica,sans-Serif" font-size="10.00">utils_config_get_bool</text>
</a>
</g>
</g>
<!-- Node4&#45;&gt;Node5 -->
<g id="edge4_Node000004_Node000005" class="edge">
<title>Node4&#45;&gt;Node5</title>
<g id="a_edge4_Node000004_Node000005"><a xlink:title=" ">
<path fill="none" stroke="#63b8ff" d="M1050.71,-84.25C1042.79,-84.25 1034.72,-84.25 1026.94,-84.25"/>
<polygon fill="#63b8ff" stroke="#63b8ff" points="1050.64,-87.75 1060.64,-84.25 1050.64,-80.75 1050.64,-87.75"/>
</a>
</g>
</g>
<!-- Node6 -->
<g id="Node000006" class="node">
<title>Node6</title>
<g id="a_Node000006"><a xlink:href="a01910.html#a02fd608f651d254148dc74f0ae371dfe" target="_top" xlink:title=" ">
<polygon fill="white" stroke="#666666" points="577.25,-131.5 518.5,-131.5 518.5,-113 577.25,-113 577.25,-131.5"/>
<text text-anchor="middle" x="547.88" y="-118" font-family="Helvetica,sans-Serif" font-size="10.00">_arax_init</text>
</a>
</g>
</g>
<!-- Node5&#45;&gt;Node6 -->
<g id="edge5_Node000005_Node000006" class="edge">
<title>Node5&#45;&gt;Node6</title>
<g id="a_edge5_Node000005_Node000006"><a xlink:title=" ">
<path fill="none" stroke="#63b8ff" d="M907.34,-90.04C813.93,-98.43 644.7,-113.64 577.5,-119.68"/>
<polygon fill="#63b8ff" stroke="#63b8ff" points="907.47,-93.54 917.11,-89.16 906.84,-86.57 907.47,-93.54"/>
</a>
</g>
</g>
<!-- Node14 -->
<g id="Node000014" class="node">
<title>Node14</title>
<g id="a_Node000014"><a xlink:href="a02364.html#ab2e422aab2fcfa562795beb2843e8019" target="_top" xlink:title=" ">
<polygon fill="white" stroke="#666666" points="883,-56.5 770.25,-56.5 770.25,-38 883,-38 883,-56.5"/>
<text text-anchor="middle" x="826.62" y="-43" font-family="Helvetica,sans-Serif" font-size="10.00">async_meta_init_once</text>
</a>
</g>
</g>
<!-- Node5&#45;&gt;Node14 -->
<g id="edge15_Node000005_Node000014" class="edge">
<title>Node5&#45;&gt;Node14</title>
<g id="a_edge15_Node000005_Node000014"><a xlink:title=" ">
<path fill="none" stroke="#63b8ff" d="M922.87,-71.7C904.13,-66.89 883.05,-61.48 865.49,-56.97"/>
<polygon fill="#63b8ff" stroke="#63b8ff" points="921.86,-75.06 932.42,-74.15 923.6,-68.28 921.86,-75.06"/>
</a>
</g>
</g>
<!-- Node7 -->
<g id="Node000007" class="node">
<title>Node7</title>
<g id="a_Node000007"><a xlink:href="a01910.html#aa6e4832b06bd5757be4502d2de7b3026" target="_top" xlink:title=" ">
<polygon fill="white" stroke="#666666" points="482.5,-157.75 384,-157.75 384,-128.75 482.5,-128.75 482.5,-157.75"/>
<text text-anchor="start" x="392" y="-144.25" font-family="Helvetica,sans-Serif" font-size="10.00">arax_controller_init</text>
<text text-anchor="middle" x="433.25" y="-133.75" font-family="Helvetica,sans-Serif" font-size="10.00">_start</text>
</a>
</g>
</g>
<!-- Node6&#45;&gt;Node7 -->
<g id="edge6_Node000006_Node000007" class="edge">
<title>Node6&#45;&gt;Node7</title>
<g id="a_edge6_Node000006_Node000007"><a xlink:title=" ">
<path fill="none" stroke="#63b8ff" d="M507.01,-129.68C499.11,-131.16 490.74,-132.72 482.6,-134.23"/>
<polygon fill="#63b8ff" stroke="#63b8ff" points="507.49,-133.15 516.68,-127.88 506.2,-126.27 507.49,-133.15"/>
</a>
</g>
</g>
<!-- Node8 -->
<g id="Node000008" class="node">
<title>Node8</title>
<g id="a_Node000008"><a xlink:href="a02186.html#gae1d371a2840849690acce147e7a205da" target="_top" xlink:title=" ">
<polygon fill="white" stroke="#666666" points="460,-110.5 406.5,-110.5 406.5,-92 460,-92 460,-110.5"/>
<text text-anchor="middle" x="433.25" y="-97" font-family="Helvetica,sans-Serif" font-size="10.00">arax_init</text>
</a>
</g>
</g>
<!-- Node6&#45;&gt;Node8 -->
<g id="edge7_Node000006_Node000008" class="edge">
<title>Node6&#45;&gt;Node8</title>
<g id="a_edge7_Node000006_Node000008"><a xlink:title=" ">
<path fill="none" stroke="#63b8ff" d="M507.21,-114.85C491.62,-111.95 474.15,-108.69 460.21,-106.09"/>
<polygon fill="#63b8ff" stroke="#63b8ff" points="506.2,-118.23 516.68,-116.62 507.49,-111.35 506.2,-118.23"/>
</a>
</g>
</g>
<!-- Node9 -->
<g id="Node000009" class="node">
<title>Node9</title>
<g id="a_Node000009"><a xlink:href="a01946.html#a8a99bcb12e2ee55d68a029bfca9b6d51" target="_top" xlink:title=" ">
<polygon fill="white" stroke="#666666" points="235.25,-139.75 141.25,-139.75 141.25,-110.75 235.25,-110.75 235.25,-139.75"/>
<text text-anchor="start" x="149.25" y="-126.25" font-family="Helvetica,sans-Serif" font-size="10.00">arax_plot_register</text>
<text text-anchor="middle" x="188.25" y="-115.75" font-family="Helvetica,sans-Serif" font-size="10.00">_metric</text>
</a>
</g>
</g>
<!-- Node8&#45;&gt;Node9 -->
<g id="edge8_Node000008_Node000009" class="edge">
<title>Node8&#45;&gt;Node9</title>
<g id="a_edge8_Node000008_Node000009"><a xlink:title=" ">
<path fill="none" stroke="#63b8ff" d="M394.92,-104.94C352.02,-109.17 281.6,-116.13 235.32,-120.7"/>
<polygon fill="#63b8ff" stroke="#63b8ff" points="395.13,-108.43 404.74,-103.97 394.44,-101.47 395.13,-108.43"/>
</a>
</g>
</g>
<!-- Node10 -->
<g id="Node000010" class="node">
<title>Node10</title>
<g id="a_Node000010"><a xlink:href="a01934.html#a80ab3bf4a8af9bb101b5a53248609771" target="_top" xlink:title=" ">
<polygon fill="white" stroke="#666666" points="348,-92.5 271.25,-92.5 271.25,-74 348,-74 348,-92.5"/>
<text text-anchor="middle" x="309.62" y="-79" font-family="Helvetica,sans-Serif" font-size="10.00">arax_ptr_valid</text>
</a>
</g>
</g>
<!-- Node8&#45;&gt;Node10 -->
<g id="edge9_Node000008_Node000010" class="edge">
<title>Node8&#45;&gt;Node10</title>
<g id="a_edge9_Node000008_Node000010"><a xlink:title=" ">
<path fill="none" stroke="#63b8ff" d="M394.83,-95.71C380.03,-93.52 363.04,-91.01 348.21,-88.81"/>
<polygon fill="#63b8ff" stroke="#63b8ff" points="394.26,-99.17 404.66,-97.17 395.28,-92.24 394.26,-99.17"/>
</a>
</g>
</g>
<!-- Node10&#45;&gt;Node9 -->
<g id="edge14_Node000010_Node000009" class="edge">
<title>Node10&#45;&gt;Node9</title>
<g id="a_edge14_Node000010_Node000009"><a xlink:title=" ">
<path fill="none" stroke="#63b8ff" d="M270.14,-96.79C257.89,-101.1 244.27,-105.89 231.76,-110.29"/>
<polygon fill="#63b8ff" stroke="#63b8ff" points="271.24,-100.11 279.51,-93.49 268.92,-93.51 271.24,-100.11"/>
</a>
</g>
</g>
<!-- Node11 -->
<g id="Node000011" class="node">
<title>Node11</title>
<g id="a_Node000011"><a xlink:href="a01967.html#a4ee1fea325d2edd421f59ab240dfbe54" target="_top" xlink:title=" ">
<polygon fill="white" stroke="#666666" points="234.12,-92.5 142.38,-92.5 142.38,-74 234.12,-74 234.12,-92.5"/>
<text text-anchor="middle" x="188.25" y="-79" font-family="Helvetica,sans-Serif" font-size="10.00">_arax_assert_obj</text>
</a>
</g>
</g>
<!-- Node10&#45;&gt;Node11 -->
<g id="edge10_Node000010_Node000011" class="edge">
<title>Node10&#45;&gt;Node11</title>
<g id="a_edge10_Node000010_Node000011"><a xlink:title=" ">
<path fill="none" stroke="#63b8ff" d="M259.37,-83.25C251.07,-83.25 242.49,-83.25 234.3,-83.25"/>
<polygon fill="#63b8ff" stroke="#63b8ff" points="259.34,-86.75 269.34,-83.25 259.34,-79.75 259.34,-86.75"/>
</a>
</g>
</g>
<!-- Node12 -->
<g id="Node000012" class="node">
<title>Node12</title>
<g id="a_Node000012"><a xlink:href="a01922.html#afeaab7d93372f0752d59c70d9c5940e7" target="_top" xlink:title=" ">
<polygon fill="white" stroke="#666666" points="226.25,-18.5 150.25,-18.5 150.25,0 226.25,0 226.25,-18.5"/>
<text text-anchor="middle" x="188.25" y="-5" font-family="Helvetica,sans-Serif" font-size="10.00">arax_data_ref</text>
</a>
</g>
</g>
<!-- Node10&#45;&gt;Node12 -->
<g id="edge11_Node000010_Node000012" class="edge">
<title>Node10&#45;&gt;Node12</title>
<g id="a_edge11_Node000010_Node000012"><a xlink:title=" ">
<path fill="none" stroke="#63b8ff" d="M286.98,-66.97C272.65,-56.51 253.24,-42.93 235.25,-32.25 227.26,-27.51 218.17,-22.83 210.2,-18.93"/>
<polygon fill="#63b8ff" stroke="#63b8ff" points="284.67,-69.62 294.79,-72.75 288.83,-63.99 284.67,-69.62"/>
</a>
</g>
</g>
<!-- Node13 -->
<g id="Node000013" class="node">
<title>Node13</title>
<g id="a_Node000013"><a xlink:href="a01922.html#ac1f7fb20b3a23b388bea24f1b46a33a8" target="_top" xlink:title=" ">
<polygon fill="white" stroke="#666666" points="105.25,-36.5 0,-36.5 0,-18 105.25,-18 105.25,-36.5"/>
<text text-anchor="middle" x="52.62" y="-23" font-family="Helvetica,sans-Serif" font-size="10.00">arax_data_ref_offset</text>
</a>
</g>
</g>
<!-- Node10&#45;&gt;Node13 -->
<g id="edge13_Node000010_Node000013" class="edge">
<title>Node10&#45;&gt;Node13</title>
<g id="a_edge13_Node000010_Node000013"><a xlink:title=" ">
<path fill="none" stroke="#63b8ff" d="M259.96,-71.06C251.73,-69.07 243.25,-67.07 235.25,-65.25 190.33,-55.04 138.92,-44.38 102.29,-36.96"/>
<polygon fill="#63b8ff" stroke="#63b8ff" points="258.96,-74.42 269.51,-73.39 260.62,-67.62 258.96,-74.42"/>
</a>
</g>
</g>
<!-- Node12&#45;&gt;Node13 -->
<g id="edge12_Node000012_Node000013" class="edge">
<title>Node12&#45;&gt;Node13</title>
<g id="a_edge12_Node000012_Node000013"><a xlink:title=" ">
<path fill="none" stroke="#63b8ff" d="M138.69,-15.79C127.94,-17.24 116.51,-18.78 105.63,-20.25"/>
<polygon fill="#63b8ff" stroke="#63b8ff" points="139.08,-19.27 148.53,-14.47 138.15,-12.33 139.08,-19.27"/>
</a>
</g>
</g>
<!-- Node15 -->
<g id="Node000015" class="node">
<title>Node15</title>
<g id="a_Node000015"><a xlink:href="a01928.html#aa6293e9ec7776aa49ecf632fcc4f5e26" target="_top" xlink:title=" ">
<polygon fill="white" stroke="#666666" points="712.12,-56.5 635.38,-56.5 635.38,-38 712.12,-38 712.12,-56.5"/>
<text text-anchor="middle" x="673.75" y="-43" font-family="Helvetica,sans-Serif" font-size="10.00">arax_pipe_init</text>
</a>
</g>
</g>
<!-- Node14&#45;&gt;Node15 -->
<g id="edge16_Node000014_Node000015" class="edge">
<title>Node14&#45;&gt;Node15</title>
<g id="a_edge16_Node000014_Node000015"><a xlink:title=" ">
<path fill="none" stroke="#63b8ff" d="M758.49,-47.25C742.69,-47.25 726.39,-47.25 712.42,-47.25"/>
<polygon fill="#63b8ff" stroke="#63b8ff" points="758.36,-50.75 768.36,-47.25 758.36,-43.75 758.36,-50.75"/>
</a>
</g>
</g>
<!-- Node15&#45;&gt;Node6 -->
<g id="edge17_Node000015_Node000006" class="edge">
<title>Node15&#45;&gt;Node6</title>
<g id="a_edge17_Node000015_Node000006"><a xlink:title=" ">
<path fill="none" stroke="#63b8ff" d="M631.71,-61.17C625.37,-63.87 619.02,-66.91 613.25,-70.25 592.11,-82.47 570.66,-101.39 558.63,-112.73"/>
<polygon fill="#63b8ff" stroke="#63b8ff" points="632.86,-64.48 640.85,-57.53 630.26,-57.98 632.86,-64.48"/>
</a>
</g>
</g>
<!-- Node16&#45;&gt;Node6 -->
<g id="edge19_Node000016_Node000006" class="edge">
<title>Node16&#45;&gt;Node6</title>
<g id="a_edge19_Node000016_Node000006"><a xlink:title=" ">
<path fill="none" stroke="#63b8ff" d="M761.67,-122.25C703.67,-122.25 620.85,-122.25 577.63,-122.25"/>
<polygon fill="#63b8ff" stroke="#63b8ff" points="761.41,-125.75 771.41,-122.25 761.41,-118.75 761.41,-125.75"/>
</a>
</g>
</g>
<!-- Node17&#45;&gt;Node6 -->
<g id="edge21_Node000017_Node000006" class="edge">
<title>Node17&#45;&gt;Node6</title>
<g id="a_edge21_Node000017_Node000006"><a xlink:title=" ">
<path fill="none" stroke="#63b8ff" d="M1190.44,-195.94C1134.22,-196.52 1048.35,-197.25 973.75,-197.25 973.75,-197.25 973.75,-197.25 825.62,-197.25 730.82,-197.25 700.56,-214.21 613.25,-177.25 589.15,-167.05 567.44,-144.44 556.45,-131.62"/>
<polygon fill="#63b8ff" stroke="#63b8ff" points="1190.15,-199.44 1200.11,-195.84 1190.07,-192.44 1190.15,-199.44"/>
</a>
</g>
</g>
<!-- Node18 -->
<g id="Node000018" class="node">
<title>Node18</title>
<g id="a_Node000018"><a xlink:href="a02186.html#ga4bae55e86ffc384b3c1d2da3580f5c42" target="_top" xlink:title=" ">
<polygon fill="white" stroke="#666666" points="1144.5,-243.5 1080.5,-243.5 1080.5,-225 1144.5,-225 1144.5,-243.5"/>
<text text-anchor="middle" x="1112.5" y="-230" font-family="Helvetica,sans-Serif" font-size="10.00">arax_clean</text>
</a>
</g>
</g>
<!-- Node17&#45;&gt;Node18 -->
<g id="edge22_Node000017_Node000018" class="edge">
<title>Node17&#45;&gt;Node18</title>
<g id="a_edge22_Node000017_Node000018"><a xlink:title=" ">
<path fill="none" stroke="#63b8ff" d="M1206.04,-208.05C1185.94,-213.74 1162.77,-220.3 1144.65,-225.43"/>
<polygon fill="#63b8ff" stroke="#63b8ff" points="1206.72,-211.49 1215.39,-205.4 1204.81,-204.76 1206.72,-211.49"/>
</a>
</g>
</g>
<!-- Node20 -->
<g id="Node000020" class="node">
<title>Node20</title>
<g id="a_Node000020"><a xlink:href="a02364.html#adbaa29dfccfdfe6e3fe69a1d001c05b5" target="_top" xlink:title=" ">
<polygon fill="white" stroke="#666666" points="734.25,-168.5 613.25,-168.5 613.25,-150 734.25,-150 734.25,-168.5"/>
<text text-anchor="middle" x="673.75" y="-155" font-family="Helvetica,sans-Serif" font-size="10.00">async_meta_init_always</text>
</a>
</g>
</g>
<!-- Node17&#45;&gt;Node20 -->
<g id="edge24_Node000017_Node000020" class="edge">
<title>Node17&#45;&gt;Node20</title>
<g id="a_edge24_Node000017_Node000020"><a xlink:title=" ">
<path fill="none" stroke="#63b8ff" d="M1190.36,-186.32C1181.04,-185.16 1171.53,-184.08 1162.5,-183.25 1008.64,-169.09 826.65,-162.93 734.56,-160.55"/>
<polygon fill="#63b8ff" stroke="#63b8ff" points="1189.71,-189.76 1200.08,-187.58 1190.61,-182.82 1189.71,-189.76"/>
</a>
</g>
</g>
<!-- Node19 -->
<g id="Node000019" class="node">
<title>Node19</title>
<g id="a_Node000019"><a xlink:href="a02186.html#ga8ac7e88ed7b8a1e2ff8aa435ac6b58ec" target="_top" xlink:title=" ">
<polygon fill="white" stroke="#666666" points="1001,-243.5 944.5,-243.5 944.5,-225 1001,-225 1001,-243.5"/>
<text text-anchor="middle" x="972.75" y="-230" font-family="Helvetica,sans-Serif" font-size="10.00">arax_exit</text>
</a>
</g>
</g>
<!-- Node18&#45;&gt;Node19 -->
<g id="edge23_Node000018_Node000019" class="edge">
<title>Node18&#45;&gt;Node19</title>
<g id="a_edge23_Node000018_Node000019"><a xlink:title=" ">
<path fill="none" stroke="#63b8ff" d="M1068.82,-234.25C1046.76,-234.25 1020.49,-234.25 1001.16,-234.25"/>
<polygon fill="#63b8ff" stroke="#63b8ff" points="1068.73,-237.75 1078.73,-234.25 1068.73,-230.75 1068.73,-237.75"/>
</a>
</g>
</g>
<!-- Node20&#45;&gt;Node6 -->
<g id="edge25_Node000020_Node000006" class="edge">
<title>Node20&#45;&gt;Node6</title>
<g id="a_edge25_Node000020_Node000006"><a xlink:title=" ">
<path fill="none" stroke="#63b8ff" d="M629.27,-146.26C612.07,-141.13 592.78,-135.36 577.41,-130.77"/>
<polygon fill="#63b8ff" stroke="#63b8ff" points="628.17,-149.59 638.75,-149.1 630.17,-142.88 628.17,-149.59"/>
</a>
</g>
</g>
<!-- Node21&#45;&gt;Node17 -->
<g id="edge27_Node000021_Node000017" class="edge">
<title>Node21&#45;&gt;Node17</title>
<g id="a_edge27_Node000021_Node000017"><a xlink:title=" ">
<path fill="none" stroke="#63b8ff" d="M1491.61,-170.21C1480.21,-172.45 1468.24,-174.6 1457,-176.25 1404.63,-183.96 1344.2,-189.13 1302.83,-192.11"/>
<polygon fill="#63b8ff" stroke="#63b8ff" points="1492.17,-173.67 1501.29,-168.27 1490.79,-166.81 1492.17,-173.67"/>
</a>
</g>
</g>
<!-- Node22 -->
<g id="Node000022" class="node">
<title>Node22</title>
<g id="a_Node000022"><a xlink:href="a01952.html#a88091e179416d4beec1b5681cfb68742" target="_top" xlink:title=" ">
<polygon fill="white" stroke="#666666" points="1457,-167.5 1342,-167.5 1342,-149 1457,-149 1457,-167.5"/>
<text text-anchor="middle" x="1399.5" y="-154" font-family="Helvetica,sans-Serif" font-size="10.00">utils_config_write_long</text>
</a>
</g>
</g>
<!-- Node21&#45;&gt;Node22 -->
<g id="edge28_Node000021_Node000022" class="edge">
<title>Node21&#45;&gt;Node22</title>
<g id="a_edge28_Node000021_Node000022"><a xlink:title=" ">
<path fill="none" stroke="#63b8ff" d="M1481.48,-158.25C1473.43,-158.25 1465.24,-158.25 1457.32,-158.25"/>
<polygon fill="#63b8ff" stroke="#63b8ff" points="1481.21,-161.75 1491.21,-158.25 1481.21,-154.75 1481.21,-161.75"/>
</a>
</g>
</g>
<!-- Node22&#45;&gt;Node3 -->
<g id="edge29_Node000022_Node000003" class="edge">
<title>Node22&#45;&gt;Node3</title>
<g id="a_edge29_Node000022_Node000003"><a xlink:title=" ">
<path fill="none" stroke="#63b8ff" d="M1349.24,-145.7C1330.35,-140.89 1309.1,-135.48 1291.41,-130.97"/>
<polygon fill="#63b8ff" stroke="#63b8ff" points="1348.32,-149.08 1358.87,-148.16 1350.04,-142.29 1348.32,-149.08"/>
</a>
</g>
</g>
</g>
</svg>
