<?xml version="1.0" encoding="UTF-8" standalone="no"?>
<!DOCTYPE svg PUBLIC "-//W3C//DTD SVG 1.1//EN"
 "http://www.w3.org/Graphics/SVG/1.1/DTD/svg11.dtd">
<!-- Generated by graphviz version 12.2.1 (0)
 -->
<!-- Title: internal_memalign Pages: 1 -->
<svg width="233pt" height="64pt"
 viewBox="0.00 0.00 232.75 63.50" xmlns="http://www.w3.org/2000/svg" xmlns:xlink="http://www.w3.org/1999/xlink">
<g id="graph0" class="graph" transform="scale(1 1) rotate(0) translate(4 59.5)">
<title>internal_memalign</title>
<!-- Node1 -->
<g id="Node000001" class="node">
<title>Node1</title>
<g id="a_Node000001"><a xlink:title=" ">
<polygon fill="#999999" stroke="#666666" points="224.75,-36.5 130,-36.5 130,-18 224.75,-18 224.75,-36.5"/>
<text text-anchor="middle" x="177.38" y="-23" font-family="Helvetica,sans-Serif" font-size="10.00">internal_memalign</text>
</a>
</g>
</g>
<!-- Node2 -->
<g id="Node000002" class="node">
<title>Node2</title>
<g id="a_Node000002"><a xlink:href="a01901.html#a789f1726140c8d0ef5b54d893d806262" target="_top" xlink:title=" ">
<polygon fill="white" stroke="#666666" points="79.75,-55.5 14.25,-55.5 14.25,-37 79.75,-37 79.75,-55.5"/>
<text text-anchor="middle" x="47" y="-42" font-family="Helvetica,sans-Serif" font-size="10.00">dlmemalign</text>
</a>
</g>
</g>
<!-- Node1&#45;&gt;Node2 -->
<g id="edge1_Node000001_Node000002" class="edge">
<title>Node1&#45;&gt;Node2</title>
<g id="a_edge1_Node000001_Node000002"><a xlink:title=" ">
<path fill="none" stroke="#63b8ff" d="M118.66,-35.79C105.39,-37.76 91.74,-39.78 80.03,-41.51"/>
<polygon fill="#63b8ff" stroke="#63b8ff" points="118.79,-39.31 128.17,-34.38 117.76,-32.39 118.79,-39.31"/>
</a>
</g>
</g>
<!-- Node3 -->
<g id="Node000003" class="node">
<title>Node3</title>
<g id="a_Node000003"><a xlink:href="a01901.html#a61f04155b5dceea889ba3cef64968684" target="_top" xlink:title=" ">
<polygon fill="white" stroke="#666666" points="94,-18.5 0,-18.5 0,0 94,0 94,-18.5"/>
<text text-anchor="middle" x="47" y="-5" font-family="Helvetica,sans-Serif" font-size="10.00">dlposix_memalign</text>
</a>
</g>
</g>
<!-- Node1&#45;&gt;Node3 -->
<g id="edge2_Node000001_Node000003" class="edge">
<title>Node1&#45;&gt;Node3</title>
<g id="a_edge2_Node000001_Node000003"><a xlink:title=" ">
<path fill="none" stroke="#63b8ff" d="M118.45,-19.13C110.41,-18 102.25,-16.86 94.46,-15.76"/>
<polygon fill="#63b8ff" stroke="#63b8ff" points="117.78,-22.57 128.17,-20.49 118.75,-15.64 117.78,-22.57"/>
</a>
</g>
</g>
</g>
</svg>
