<?xml version="1.0" encoding="UTF-8" standalone="no"?>
<!DOCTYPE svg PUBLIC "-//W3C//DTD SVG 1.1//EN"
 "http://www.w3.org/Graphics/SVG/1.1/DTD/svg11.dtd">
<!-- Generated by graphviz version 12.2.1 (0)
 -->
<!-- Title: _utils_config_get_str Pages: 1 -->
<svg width="480pt" height="77pt"
 viewBox="0.00 0.00 480.00 77.48" xmlns="http://www.w3.org/2000/svg" xmlns:xlink="http://www.w3.org/1999/xlink">
<g id="graph0" class="graph" transform="scale(1 1) rotate(0) translate(4 73.48)">
<title>_utils_config_get_str</title>
<!-- Node1 -->
<g id="Node000001" class="node">
<title>Node1</title>
<g id="a_Node000001"><a xlink:title=" ">
<polygon fill="#999999" stroke="#666666" points="106,-55.5 0,-55.5 0,-37 106,-37 106,-55.5"/>
<text text-anchor="middle" x="53" y="-42" font-family="Helvetica,sans-Serif" font-size="10.00">_utils_config_get_str</text>
</a>
</g>
</g>
<!-- Node2 -->
<g id="Node000002" class="node">
<title>Node2</title>
<g id="a_Node000002"><a xlink:href="a01952.html#a8b687fb4c464903e23504eea3ddc3873" target="_top" xlink:title=" ">
<polygon fill="white" stroke="#666666" points="195.5,-55.5 142,-55.5 142,-37 195.5,-37 195.5,-55.5"/>
<text text-anchor="middle" x="168.75" y="-42" font-family="Helvetica,sans-Serif" font-size="10.00">conf_get</text>
</a>
</g>
</g>
<!-- Node1&#45;&gt;Node2 -->
<g id="edge1_Node000001_Node000002" class="edge">
<title>Node1&#45;&gt;Node2</title>
<g id="a_edge1_Node000001_Node000002"><a xlink:title=" ">
<path fill="none" stroke="#63b8ff" d="M106.21,-46.25C114.26,-46.25 122.44,-46.25 130.09,-46.25"/>
<polygon fill="#63b8ff" stroke="#63b8ff" points="130.07,-49.75 140.07,-46.25 130.07,-42.75 130.07,-49.75"/>
</a>
</g>
</g>
<!-- Node3 -->
<g id="Node000003" class="node">
<title>Node3</title>
<g id="a_Node000003"><a xlink:href="a01961.html#acde493d3889d6f207d1e122cf4bb1b8c" target="_top" xlink:title=" ">
<polygon fill="white" stroke="#666666" points="472,-55.5 386.25,-55.5 386.25,-37 472,-37 472,-55.5"/>
<text text-anchor="middle" x="429.12" y="-42" font-family="Helvetica,sans-Serif" font-size="10.00">system_env_var</text>
</a>
</g>
</g>
<!-- Node2&#45;&gt;Node3 -->
<g id="edge2_Node000002_Node000003" class="edge">
<title>Node2&#45;&gt;Node3</title>
<g id="a_edge2_Node000002_Node000003"><a xlink:title=" ">
<path fill="none" stroke="#63b8ff" d="M195.83,-55.63C206.71,-59.08 219.56,-62.55 231.5,-64.25 283.75,-71.71 297.81,-70.23 350.25,-64.25 360.88,-63.04 372.17,-60.92 382.76,-58.56"/>
<polygon fill="#63b8ff" stroke="#63b8ff" points="383.51,-61.98 392.44,-56.27 381.91,-55.16 383.51,-61.98"/>
</a>
</g>
</g>
<!-- Node4 -->
<g id="Node000004" class="node">
<title>Node4</title>
<g id="a_Node000004"><a xlink:href="a01961.html#a86c3bfbf6daaf8172e131aa23dc7393c" target="_top" xlink:title=" ">
<polygon fill="white" stroke="#666666" points="334.5,-55.5 247.25,-55.5 247.25,-37 334.5,-37 334.5,-55.5"/>
<text text-anchor="middle" x="290.88" y="-42" font-family="Helvetica,sans-Serif" font-size="10.00">system_file_size</text>
</a>
</g>
</g>
<!-- Node2&#45;&gt;Node4 -->
<g id="edge3_Node000002_Node000004" class="edge">
<title>Node2&#45;&gt;Node4</title>
<g id="a_edge3_Node000002_Node000004"><a xlink:title=" ">
<path fill="none" stroke="#63b8ff" d="M195.82,-46.25C207.46,-46.25 221.65,-46.25 235.43,-46.25"/>
<polygon fill="#63b8ff" stroke="#63b8ff" points="235.34,-49.75 245.34,-46.25 235.34,-42.75 235.34,-49.75"/>
</a>
</g>
</g>
<!-- Node5 -->
<g id="Node000005" class="node">
<title>Node5</title>
<g id="a_Node000005"><a xlink:href="a01952.html#a17713c8e9b90065e23b0ec1a225f79ab" target="_top" xlink:title=" ">
<polygon fill="white" stroke="#666666" points="350.25,-18.5 231.5,-18.5 231.5,0 350.25,0 350.25,-18.5"/>
<text text-anchor="middle" x="290.88" y="-5" font-family="Helvetica,sans-Serif" font-size="10.00">utils_config_get_source</text>
</a>
</g>
</g>
<!-- Node2&#45;&gt;Node5 -->
<g id="edge4_Node000002_Node000005" class="edge">
<title>Node2&#45;&gt;Node5</title>
<g id="a_edge4_Node000002_Node000005"><a xlink:title=" ">
<path fill="none" stroke="#63b8ff" d="M195.82,-38.22C210.87,-33.58 230.18,-27.64 247.38,-22.34"/>
<polygon fill="#63b8ff" stroke="#63b8ff" points="248.34,-25.71 256.86,-19.42 246.28,-19.02 248.34,-25.71"/>
</a>
</g>
</g>
<!-- Node5&#45;&gt;Node3 -->
<g id="edge5_Node000005_Node000003" class="edge">
<title>Node5&#45;&gt;Node3</title>
<g id="a_edge5_Node000005_Node000003"><a xlink:title=" ">
<path fill="none" stroke="#63b8ff" d="M327.67,-18.97C344.18,-23.45 363.98,-28.83 381.63,-33.62"/>
<polygon fill="#63b8ff" stroke="#63b8ff" points="380.54,-36.95 391.11,-36.2 382.37,-30.2 380.54,-36.95"/>
</a>
</g>
</g>
</g>
</svg>
