<?xml version="1.0" encoding="UTF-8" standalone="no"?>
<!DOCTYPE svg PUBLIC "-//W3C//DTD SVG 1.1//EN"
 "http://www.w3.org/Graphics/SVG/1.1/DTD/svg11.dtd">
<!-- Generated by graphviz version 12.2.1 (0)
 -->
<!-- Title: arax_controller_init_done Pages: 1 -->
<svg width="433pt" height="27pt"
 viewBox="0.00 0.00 432.50 26.50" xmlns="http://www.w3.org/2000/svg" xmlns:xlink="http://www.w3.org/1999/xlink">
<g id="graph0" class="graph" transform="scale(1 1) rotate(0) translate(4 22.5)">
<title>arax_controller_init_done</title>
<!-- Node1 -->
<g id="Node000001" class="node">
<title>Node1</title>
<g id="a_Node000001"><a xlink:title=" ">
<polygon fill="#999999" stroke="#666666" points="124.75,-18.5 0,-18.5 0,0 124.75,0 124.75,-18.5"/>
<text text-anchor="middle" x="62.38" y="-5" font-family="Helvetica,sans-Serif" font-size="10.00">arax_controller_init_done</text>
</a>
</g>
</g>
<!-- Node2 -->
<g id="Node000002" class="node">
<title>Node2</title>
<g id="a_Node000002"><a xlink:href="a02364.html#a45a896fb606c2aa66a5a4c2af59ce494" target="_top" xlink:title=" ">
<polygon fill="white" stroke="#666666" points="275.75,-18.5 160.75,-18.5 160.75,0 275.75,0 275.75,-18.5"/>
<text text-anchor="middle" x="218.25" y="-5" font-family="Helvetica,sans-Serif" font-size="10.00">async_condition_notify</text>
</a>
</g>
</g>
<!-- Node1&#45;&gt;Node2 -->
<g id="edge1_Node000001_Node000002" class="edge">
<title>Node1&#45;&gt;Node2</title>
<g id="a_edge1_Node000001_Node000002"><a xlink:title=" ">
<path fill="none" stroke="#63b8ff" d="M125.08,-9.25C133.03,-9.25 141.21,-9.25 149.26,-9.25"/>
<polygon fill="#63b8ff" stroke="#63b8ff" points="149.01,-12.75 159.01,-9.25 149.01,-5.75 149.01,-12.75"/>
</a>
</g>
</g>
<!-- Node3 -->
<g id="Node000003" class="node">
<title>Node3</title>
<g id="a_Node000003"><a xlink:href="a02358.html#a0fa370eee5160963e617d1daf1c07363" target="_top" xlink:title=" ">
<polygon fill="white" stroke="#666666" points="424.5,-18.5 311.75,-18.5 311.75,0 424.5,0 424.5,-18.5"/>
<text text-anchor="middle" x="368.12" y="-5" font-family="Helvetica,sans-Serif" font-size="10.00">async_semaphore_inc</text>
</a>
</g>
</g>
<!-- Node2&#45;&gt;Node3 -->
<g id="edge2_Node000002_Node000003" class="edge">
<title>Node2&#45;&gt;Node3</title>
<g id="a_edge2_Node000002_Node000003"><a xlink:title=" ">
<path fill="none" stroke="#63b8ff" d="M276,-9.25C283.77,-9.25 291.81,-9.25 299.75,-9.25"/>
<polygon fill="#63b8ff" stroke="#63b8ff" points="299.75,-12.75 309.75,-9.25 299.75,-5.75 299.75,-12.75"/>
</a>
</g>
</g>
</g>
</svg>
