<?xml version="1.0" encoding="UTF-8" standalone="no"?>
<!DOCTYPE svg PUBLIC "-//W3C//DTD SVG 1.1//EN"
 "http://www.w3.org/Graphics/SVG/1.1/DTD/svg11.dtd">
<!-- Generated by graphviz version 12.2.1 (0)
 -->
<!-- Title: arax_accel_add_vaccel Pages: 1 -->
<svg width="623pt" height="295pt"
 viewBox="0.00 0.00 623.25 294.50" xmlns="http://www.w3.org/2000/svg" xmlns:xlink="http://www.w3.org/1999/xlink">
<g id="graph0" class="graph" transform="scale(1 1) rotate(0) translate(4 290.5)">
<title>arax_accel_add_vaccel</title>
<!-- Node1 -->
<g id="Node000001" class="node">
<title>Node1</title>
<g id="a_Node000001"><a xlink:title=" ">
<polygon fill="#999999" stroke="#666666" points="118,-163.5 0,-163.5 0,-145 118,-145 118,-163.5"/>
<text text-anchor="middle" x="59" y="-150" font-family="Helvetica,sans-Serif" font-size="10.00">arax_accel_add_vaccel</text>
</a>
</g>
</g>
<!-- Node2 -->
<g id="Node000002" class="node">
<title>Node2</title>
<g id="a_Node000002"><a xlink:href="a01916.html#aed864d2fab73a39a8c98356f7bca1304" target="_top" xlink:title=" ">
<polygon fill="white" stroke="#666666" points="279.88,-286.5 158.88,-286.5 158.88,-268 279.88,-268 279.88,-286.5"/>
<text text-anchor="middle" x="219.38" y="-273" font-family="Helvetica,sans-Serif" font-size="10.00">arax_accel_inc_revision</text>
</a>
</g>
</g>
<!-- Node1&#45;&gt;Node2 -->
<g id="edge1_Node000001_Node000002" class="edge">
<title>Node1&#45;&gt;Node2</title>
<g id="a_edge1_Node000001_Node000002"><a xlink:title=" ">
<path fill="none" stroke="#63b8ff" d="M66.63,-163.94C80.58,-183.64 114.93,-228.67 154,-254.25 159.41,-257.79 165.43,-260.86 171.55,-263.51"/>
<polygon fill="#63b8ff" stroke="#63b8ff" points="169.88,-266.62 180.47,-267.02 172.44,-260.1 169.88,-266.62"/>
</a>
</g>
</g>
<!-- Node3 -->
<g id="Node000003" class="node">
<title>Node3</title>
<g id="a_Node000003"><a xlink:href="a01928.html#aa5172b735dddd3f77fbb0265bbcdfc20" target="_top" xlink:title=" ">
<polygon fill="white" stroke="#666666" points="284.75,-211.75 154,-211.75 154,-182.75 284.75,-182.75 284.75,-211.75"/>
<text text-anchor="start" x="162" y="-198.25" font-family="Helvetica,sans-Serif" font-size="10.00">arax_pipe_remove_orphan</text>
<text text-anchor="middle" x="219.38" y="-187.75" font-family="Helvetica,sans-Serif" font-size="10.00">_vaccel</text>
</a>
</g>
</g>
<!-- Node1&#45;&gt;Node3 -->
<g id="edge2_Node000001_Node000003" class="edge">
<title>Node1&#45;&gt;Node3</title>
<g id="a_edge2_Node000001_Node000003"><a xlink:title=" ">
<path fill="none" stroke="#63b8ff" d="M95.54,-163.9C112.32,-168.45 132.89,-174.04 152.37,-179.33"/>
<polygon fill="#63b8ff" stroke="#63b8ff" points="151.33,-182.67 161.9,-181.92 153.16,-175.92 151.33,-182.67"/>
</a>
</g>
</g>
<!-- Node4 -->
<g id="Node000004" class="node">
<title>Node4</title>
<g id="a_Node000004"><a xlink:href="a02364.html#aed6af4d83e934e3e654ead541b15f2d9" target="_top" xlink:title=" ">
<polygon fill="white" stroke="#666666" points="435,-277.5 326,-277.5 326,-259 435,-259 435,-277.5"/>
<text text-anchor="middle" x="380.5" y="-264" font-family="Helvetica,sans-Serif" font-size="10.00">async_condition_lock</text>
</a>
</g>
</g>
<!-- Node1&#45;&gt;Node4 -->
<g id="edge12_Node000001_Node000004" class="edge">
<title>Node1&#45;&gt;Node4</title>
<g id="a_edge12_Node000001_Node000004"><a xlink:title=" ">
<path fill="none" stroke="#63b8ff" d="M70.37,-163.9C86.8,-178.63 120.4,-206.55 154,-221.25 205.34,-243.71 268.04,-255.66 314.28,-261.88"/>
<polygon fill="#63b8ff" stroke="#63b8ff" points="313.8,-265.35 324.16,-263.15 314.69,-258.41 313.8,-265.35"/>
</a>
</g>
</g>
<!-- Node6 -->
<g id="Node000006" class="node">
<title>Node6</title>
<g id="a_Node000006"><a xlink:href="a02364.html#a3bbcb7c4c024e99d5c4ba52b61dfbbf7" target="_top" xlink:title=" ">
<polygon fill="white" stroke="#666666" points="440.25,-166.5 320.75,-166.5 320.75,-148 440.25,-148 440.25,-166.5"/>
<text text-anchor="middle" x="380.5" y="-153" font-family="Helvetica,sans-Serif" font-size="10.00">async_condition_unlock</text>
</a>
</g>
</g>
<!-- Node1&#45;&gt;Node6 -->
<g id="edge15_Node000001_Node000006" class="edge">
<title>Node1&#45;&gt;Node6</title>
<g id="a_edge15_Node000001_Node000006"><a xlink:title=" ">
<path fill="none" stroke="#63b8ff" d="M118.23,-154.8C171.86,-155.3 251.56,-156.05 308.82,-156.59"/>
<polygon fill="#63b8ff" stroke="#63b8ff" points="308.77,-160.09 318.8,-156.68 308.84,-153.09 308.77,-160.09"/>
</a>
</g>
</g>
<!-- Node10 -->
<g id="Node000010" class="node">
<title>Node10</title>
<g id="a_Node000010"><a xlink:href="a01943.html#ab2fa3d6e6c761009b464cc0fbedc6a16" target="_top" xlink:title=" ">
<polygon fill="white" stroke="#666666" points="280.62,-126.5 158.12,-126.5 158.12,-108 280.62,-108 280.62,-126.5"/>
<text text-anchor="middle" x="219.38" y="-113" font-family="Helvetica,sans-Serif" font-size="10.00">arax_vaccel_queue_size</text>
</a>
</g>
</g>
<!-- Node1&#45;&gt;Node10 -->
<g id="edge9_Node000001_Node000010" class="edge">
<title>Node1&#45;&gt;Node10</title>
<g id="a_edge9_Node000001_Node000010"><a xlink:title=" ">
<path fill="none" stroke="#63b8ff" d="M101.61,-144.53C121.27,-139.94 144.94,-134.41 165.82,-129.53"/>
<polygon fill="#63b8ff" stroke="#63b8ff" points="166.35,-133 175.29,-127.31 164.76,-126.18 166.35,-133"/>
</a>
</g>
</g>
<!-- Node13 -->
<g id="Node000013" class="node">
<title>Node13</title>
<g id="a_Node000013"><a xlink:href="a02364.html#a45a896fb606c2aa66a5a4c2af59ce494" target="_top" xlink:title=" ">
<polygon fill="white" stroke="#666666" points="276.88,-70.5 161.88,-70.5 161.88,-52 276.88,-52 276.88,-70.5"/>
<text text-anchor="middle" x="219.38" y="-57" font-family="Helvetica,sans-Serif" font-size="10.00">async_condition_notify</text>
</a>
</g>
</g>
<!-- Node1&#45;&gt;Node13 -->
<g id="edge13_Node000001_Node000013" class="edge">
<title>Node1&#45;&gt;Node13</title>
<g id="a_edge13_Node000001_Node000013"><a xlink:title=" ">
<path fill="none" stroke="#63b8ff" d="M76.35,-144.65C103.74,-128.57 159.1,-96.06 192.03,-76.72"/>
<polygon fill="#63b8ff" stroke="#63b8ff" points="193.72,-79.79 200.57,-71.71 190.17,-73.75 193.72,-79.79"/>
</a>
</g>
</g>
<!-- Node15 -->
<g id="Node000015" class="node">
<title>Node15</title>
<g id="a_Node000015"><a xlink:href="a01955.html#ae06a9e78e6a4f6c9c8afcf0f4862ce29" target="_top" xlink:title=" ">
<polygon fill="white" stroke="#666666" points="255.88,-33.5 182.88,-33.5 182.88,-15 255.88,-15 255.88,-33.5"/>
<text text-anchor="middle" x="219.38" y="-20" font-family="Helvetica,sans-Serif" font-size="10.00">utils_list_add</text>
</a>
</g>
</g>
<!-- Node1&#45;&gt;Node15 -->
<g id="edge16_Node000001_Node000015" class="edge">
<title>Node1&#45;&gt;Node15</title>
<g id="a_edge16_Node000001_Node000015"><a xlink:title=" ">
<path fill="none" stroke="#63b8ff" d="M65.45,-144.6C78.12,-123.06 111.69,-70.83 154,-43.25 159.5,-39.66 165.71,-36.73 172.03,-34.35"/>
<polygon fill="#63b8ff" stroke="#63b8ff" points="172.86,-37.76 181.25,-31.3 170.66,-31.12 172.86,-37.76"/>
</a>
</g>
</g>
<!-- Node3&#45;&gt;Node4 -->
<g id="edge3_Node000003_Node000004" class="edge">
<title>Node3&#45;&gt;Node4</title>
<g id="a_edge3_Node000003_Node000004"><a xlink:title=" ">
<path fill="none" stroke="#63b8ff" d="M255.91,-212.15C265.41,-216.43 275.59,-221.29 284.75,-226.25 301.45,-235.28 303.58,-241.15 320.75,-249.25 324.95,-251.23 329.41,-253.08 333.92,-254.8"/>
<polygon fill="#63b8ff" stroke="#63b8ff" points="332.43,-257.98 343.02,-258.03 334.77,-251.39 332.43,-257.98"/>
</a>
</g>
</g>
<!-- Node3&#45;&gt;Node6 -->
<g id="edge5_Node000003_Node000006" class="edge">
<title>Node3&#45;&gt;Node6</title>
<g id="a_edge5_Node000003_Node000006"><a xlink:title=" ">
<path fill="none" stroke="#63b8ff" d="M279.63,-182.36C296.28,-178.17 314.21,-173.66 330.22,-169.64"/>
<polygon fill="#63b8ff" stroke="#63b8ff" points="330.64,-173.14 339.49,-167.31 328.94,-166.35 330.64,-173.14"/>
</a>
</g>
</g>
<!-- Node8 -->
<g id="Node000008" class="node">
<title>Node8</title>
<g id="a_Node000008"><a xlink:href="a01955.html#a0c85e5516222ab7e7fc354c614760ec5" target="_top" xlink:title=" ">
<polygon fill="white" stroke="#666666" points="415.5,-240.5 345.5,-240.5 345.5,-222 415.5,-222 415.5,-240.5"/>
<text text-anchor="middle" x="380.5" y="-227" font-family="Helvetica,sans-Serif" font-size="10.00">utils_list_del</text>
</a>
</g>
</g>
<!-- Node3&#45;&gt;Node8 -->
<g id="edge7_Node000003_Node000008" class="edge">
<title>Node3&#45;&gt;Node8</title>
<g id="a_edge7_Node000003_Node000008"><a xlink:title=" ">
<path fill="none" stroke="#63b8ff" d="M285.1,-211.08C301.55,-214.6 318.89,-218.3 334.15,-221.56"/>
<polygon fill="#63b8ff" stroke="#63b8ff" points="333.37,-224.97 343.88,-223.64 334.84,-218.13 333.37,-224.97"/>
</a>
</g>
</g>
<!-- Node9 -->
<g id="Node000009" class="node">
<title>Node9</title>
<g id="a_Node000009"><a xlink:href="a01955.html#ab0c44e095ebfd8721de878c42abcbbdc" target="_top" xlink:title=" ">
<polygon fill="white" stroke="#666666" points="434.62,-203.5 326.38,-203.5 326.38,-185 434.62,-185 434.62,-203.5"/>
<text text-anchor="middle" x="380.5" y="-190" font-family="Helvetica,sans-Serif" font-size="10.00">utils_list_node_linked</text>
</a>
</g>
</g>
<!-- Node3&#45;&gt;Node9 -->
<g id="edge8_Node000003_Node000009" class="edge">
<title>Node3&#45;&gt;Node9</title>
<g id="a_edge8_Node000003_Node000009"><a xlink:title=" ">
<path fill="none" stroke="#63b8ff" d="M285.1,-196.03C294.87,-195.85 304.95,-195.66 314.72,-195.47"/>
<polygon fill="#63b8ff" stroke="#63b8ff" points="314.57,-198.97 324.5,-195.29 314.44,-191.98 314.57,-198.97"/>
</a>
</g>
</g>
<!-- Node5 -->
<g id="Node000005" class="node">
<title>Node5</title>
<g id="a_Node000005"><a xlink:href="a02358.html#aebf9e72bb6cbd8b9e33489d46c25075d" target="_top" xlink:title=" ">
<polygon fill="white" stroke="#666666" points="604,-277.5 487.5,-277.5 487.5,-259 604,-259 604,-277.5"/>
<text text-anchor="middle" x="545.75" y="-264" font-family="Helvetica,sans-Serif" font-size="10.00">async_completion_wait</text>
</a>
</g>
</g>
<!-- Node4&#45;&gt;Node5 -->
<g id="edge4_Node000004_Node000005" class="edge">
<title>Node4&#45;&gt;Node5</title>
<g id="a_edge4_Node000004_Node000005"><a xlink:title=" ">
<path fill="none" stroke="#63b8ff" d="M435.41,-268.25C448.39,-268.25 462.44,-268.25 476.01,-268.25"/>
<polygon fill="#63b8ff" stroke="#63b8ff" points="475.74,-271.75 485.74,-268.25 475.74,-264.75 475.74,-271.75"/>
</a>
</g>
</g>
<!-- Node7 -->
<g id="Node000007" class="node">
<title>Node7</title>
<g id="a_Node000007"><a xlink:href="a02358.html#ad1d30ecbf6bff6457b680aa940281072" target="_top" xlink:title=" ">
<polygon fill="white" stroke="#666666" points="615.25,-166.5 476.25,-166.5 476.25,-148 615.25,-148 615.25,-166.5"/>
<text text-anchor="middle" x="545.75" y="-153" font-family="Helvetica,sans-Serif" font-size="10.00">async_completion_complete</text>
</a>
</g>
</g>
<!-- Node6&#45;&gt;Node7 -->
<g id="edge6_Node000006_Node000007" class="edge">
<title>Node6&#45;&gt;Node7</title>
<g id="a_edge6_Node000006_Node000007"><a xlink:title=" ">
<path fill="none" stroke="#63b8ff" d="M440.44,-157.25C448.26,-157.25 456.38,-157.25 464.49,-157.25"/>
<polygon fill="#63b8ff" stroke="#63b8ff" points="464.39,-160.75 474.39,-157.25 464.39,-153.75 464.39,-160.75"/>
</a>
</g>
</g>
<!-- Node11 -->
<g id="Node000011" class="node">
<title>Node11</title>
<g id="a_Node000011"><a xlink:href="a01943.html#afe1eb3edd264c847c36e9456b2598452" target="_top" xlink:title=" ">
<polygon fill="white" stroke="#666666" points="430.5,-129.5 330.5,-129.5 330.5,-111 430.5,-111 430.5,-129.5"/>
<text text-anchor="middle" x="380.5" y="-116" font-family="Helvetica,sans-Serif" font-size="10.00">arax_vaccel_queue</text>
</a>
</g>
</g>
<!-- Node10&#45;&gt;Node11 -->
<g id="edge10_Node000010_Node000011" class="edge">
<title>Node10&#45;&gt;Node11</title>
<g id="a_edge10_Node000010_Node000011"><a xlink:title=" ">
<path fill="none" stroke="#63b8ff" d="M280.99,-118.39C293.43,-118.63 306.52,-118.87 318.96,-119.11"/>
<polygon fill="#63b8ff" stroke="#63b8ff" points="318.58,-122.6 328.65,-119.29 318.72,-115.6 318.58,-122.6"/>
</a>
</g>
</g>
<!-- Node12 -->
<g id="Node000012" class="node">
<title>Node12</title>
<g id="a_Node000012"><a xlink:href="a01958.html#a5d84d59bded666fdcf1a8e949cb56a6a" target="_top" xlink:title=" ">
<polygon fill="white" stroke="#666666" points="439.5,-92.5 321.5,-92.5 321.5,-74 439.5,-74 439.5,-92.5"/>
<text text-anchor="middle" x="380.5" y="-79" font-family="Helvetica,sans-Serif" font-size="10.00">utils_queue_used_slots</text>
</a>
</g>
</g>
<!-- Node10&#45;&gt;Node12 -->
<g id="edge11_Node000010_Node000012" class="edge">
<title>Node10&#45;&gt;Node12</title>
<g id="a_edge11_Node000010_Node000012"><a xlink:title=" ">
<path fill="none" stroke="#63b8ff" d="M265.97,-107.51C283.7,-103.72 304.2,-99.34 322.86,-95.35"/>
<polygon fill="#63b8ff" stroke="#63b8ff" points="323.37,-98.82 332.41,-93.31 321.9,-91.98 323.37,-98.82"/>
</a>
</g>
</g>
<!-- Node14 -->
<g id="Node000014" class="node">
<title>Node14</title>
<g id="a_Node000014"><a xlink:href="a02358.html#a0fa370eee5160963e617d1daf1c07363" target="_top" xlink:title=" ">
<polygon fill="white" stroke="#666666" points="436.88,-55.5 324.12,-55.5 324.12,-37 436.88,-37 436.88,-55.5"/>
<text text-anchor="middle" x="380.5" y="-42" font-family="Helvetica,sans-Serif" font-size="10.00">async_semaphore_inc</text>
</a>
</g>
</g>
<!-- Node13&#45;&gt;Node14 -->
<g id="edge14_Node000013_Node000014" class="edge">
<title>Node13&#45;&gt;Node14</title>
<g id="a_edge14_Node000013_Node000014"><a xlink:title=" ">
<path fill="none" stroke="#63b8ff" d="M277.37,-55.88C288.68,-54.81 300.64,-53.68 312.25,-52.59"/>
<polygon fill="#63b8ff" stroke="#63b8ff" points="312.57,-56.08 322.19,-51.65 311.91,-49.11 312.57,-56.08"/>
</a>
</g>
</g>
<!-- Node16 -->
<g id="Node000016" class="node">
<title>Node16</title>
<g id="a_Node000016"><a xlink:href="a01955.html#a5c575f52a42e0e0d2fb41bda2d1268ce" target="_top" xlink:title=" ">
<polygon fill="white" stroke="#666666" points="430.12,-18.5 330.88,-18.5 330.88,0 430.12,0 430.12,-18.5"/>
<text text-anchor="middle" x="380.5" y="-5" font-family="Helvetica,sans-Serif" font-size="10.00">utils_list_node_add</text>
</a>
</g>
</g>
<!-- Node15&#45;&gt;Node16 -->
<g id="edge17_Node000015_Node000016" class="edge">
<title>Node15&#45;&gt;Node16</title>
<g id="a_edge17_Node000015_Node000016"><a xlink:title=" ">
<path fill="none" stroke="#63b8ff" d="M256.09,-20.88C274.73,-19.13 298.04,-16.93 319.37,-14.92"/>
<polygon fill="#63b8ff" stroke="#63b8ff" points="319.5,-18.42 329.13,-14 318.84,-11.45 319.5,-18.42"/>
</a>
</g>
</g>
</g>
</svg>
