<?xml version="1.0" encoding="UTF-8" standalone="no"?>
<!DOCTYPE svg PUBLIC "-//W3C//DTD SVG 1.1//EN"
 "http://www.w3.org/Graphics/SVG/1.1/DTD/svg11.dtd">
<!-- Generated by graphviz version 12.2.1 (0)
 -->
<!-- Title: list.c Pages: 1 -->
<svg width="124pt" height="136pt"
 viewBox="0.00 0.00 124.00 135.50" xmlns="http://www.w3.org/2000/svg" xmlns:xlink="http://www.w3.org/1999/xlink">
<g id="graph0" class="graph" transform="scale(1 1) rotate(0) translate(4 131.5)">
<title>list.c</title>
<!-- Node1 -->
<g id="Node000001" class="node">
<title>Node1</title>
<g id="a_Node000001"><a xlink:title=" ">
<polygon fill="#999999" stroke="#666666" points="76.38,-127.5 40.12,-127.5 40.12,-109 76.38,-109 76.38,-127.5"/>
<text text-anchor="middle" x="58.25" y="-114" font-family="Helvetica,sans-Serif" font-size="10.00">list.c</text>
</a>
</g>
</g>
<!-- Node2 -->
<g id="Node000002" class="node">
<title>Node2</title>
<g id="a_Node000002"><a xlink:href="a01388.html" target="_top" xlink:title=" ">
<polygon fill="white" stroke="#666666" points="76.38,-73 40.12,-73 40.12,-54.5 76.38,-54.5 76.38,-73"/>
<text text-anchor="middle" x="58.25" y="-59.5" font-family="Helvetica,sans-Serif" font-size="10.00">list.h</text>
</a>
</g>
</g>
<!-- Node1&#45;&gt;Node2 -->
<g id="edge1_Node000001_Node000002" class="edge">
<title>Node1&#45;&gt;Node2</title>
<g id="a_edge1_Node000001_Node000002"><a xlink:title=" ">
<path fill="none" stroke="#63b8ff" d="M58.25,-108.58C58.25,-102.08 58.25,-92.92 58.25,-84.66"/>
<polygon fill="#63b8ff" stroke="#63b8ff" points="61.75,-84.77 58.25,-74.77 54.75,-84.77 61.75,-84.77"/>
</a>
</g>
</g>
<!-- Node3 -->
<g id="Node000003" class="node">
<title>Node3</title>
<g id="a_Node000003"><a xlink:title=" ">
<polygon fill="#e0e0e0" stroke="#999999" points="50.5,-18.5 0,-18.5 0,0 50.5,0 50.5,-18.5"/>
<text text-anchor="middle" x="25.25" y="-5" font-family="Helvetica,sans-Serif" font-size="10.00">stddef.h</text>
</a>
</g>
</g>
<!-- Node2&#45;&gt;Node3 -->
<g id="edge2_Node000002_Node000003" class="edge">
<title>Node2&#45;&gt;Node3</title>
<g id="a_edge2_Node000002_Node000003"><a xlink:title=" ">
<path fill="none" stroke="#63b8ff" d="M52.8,-54.08C48.43,-47.12 42.14,-37.12 36.67,-28.42"/>
<polygon fill="#63b8ff" stroke="#63b8ff" points="39.69,-26.64 31.4,-20.04 33.76,-30.37 39.69,-26.64"/>
</a>
</g>
</g>
<!-- Node4 -->
<g id="Node000004" class="node">
<title>Node4</title>
<g id="a_Node000004"><a xlink:title=" ">
<polygon fill="#e0e0e0" stroke="#999999" points="116,-18.5 68.5,-18.5 68.5,0 116,0 116,-18.5"/>
<text text-anchor="middle" x="92.25" y="-5" font-family="Helvetica,sans-Serif" font-size="10.00">stdint.h</text>
</a>
</g>
</g>
<!-- Node2&#45;&gt;Node4 -->
<g id="edge3_Node000002_Node000004" class="edge">
<title>Node2&#45;&gt;Node4</title>
<g id="a_edge3_Node000002_Node000004"><a xlink:title=" ">
<path fill="none" stroke="#63b8ff" d="M63.86,-54.08C68.37,-47.12 74.85,-37.12 80.48,-28.42"/>
<polygon fill="#63b8ff" stroke="#63b8ff" points="83.42,-30.32 85.92,-20.03 77.54,-26.52 83.42,-30.32"/>
</a>
</g>
</g>
</g>
</svg>
