<?xml version="1.0" encoding="UTF-8" standalone="no"?>
<!DOCTYPE svg PUBLIC "-//W3C//DTD SVG 1.1//EN"
 "http://www.w3.org/Graphics/SVG/1.1/DTD/svg11.dtd">
<!-- Generated by graphviz version 12.2.1 (0)
 -->
<!-- Title: arax_accel_get_stat Pages: 1 -->
<svg width="379pt" height="45pt"
 viewBox="0.00 0.00 379.25 44.50" xmlns="http://www.w3.org/2000/svg" xmlns:xlink="http://www.w3.org/1999/xlink">
<g id="graph0" class="graph" transform="scale(1 1) rotate(0) translate(4 40.5)">
<title>arax_accel_get_stat</title>
<!-- Node1 -->
<g id="Node000001" class="node">
<title>Node1</title>
<g id="a_Node000001"><a xlink:title=" ">
<polygon fill="#999999" stroke="#666666" points="371.25,-36.5 266.75,-36.5 266.75,-18 371.25,-18 371.25,-36.5"/>
<text text-anchor="middle" x="319" y="-23" font-family="Helvetica,sans-Serif" font-size="10.00">arax_accel_get_stat</text>
</a>
</g>
</g>
<!-- Node2 -->
<g id="Node000002" class="node">
<title>Node2</title>
<g id="a_Node000002"><a xlink:href="a02187.html#gadd7613438ee9db973f6abf9259956bd5" target="_top" xlink:title=" ">
<polygon fill="white" stroke="#666666" points="85.75,-36.5 0,-36.5 0,-18 85.75,-18 85.75,-36.5"/>
<text text-anchor="middle" x="42.88" y="-23" font-family="Helvetica,sans-Serif" font-size="10.00">arax_accel_stat</text>
</a>
</g>
</g>
<!-- Node1&#45;&gt;Node2 -->
<g id="edge1_Node000001_Node000002" class="edge">
<title>Node1&#45;&gt;Node2</title>
<g id="a_edge1_Node000001_Node000002"><a xlink:title=" ">
<path fill="none" stroke="#63b8ff" d="M255.06,-27.25C203.29,-27.25 131.35,-27.25 86.22,-27.25"/>
<polygon fill="#63b8ff" stroke="#63b8ff" points="254.93,-30.75 264.93,-27.25 254.93,-23.75 254.93,-30.75"/>
</a>
</g>
</g>
<!-- Node3 -->
<g id="Node000003" class="node">
<title>Node3</title>
<g id="a_Node000003"><a xlink:href="a01943.html#a3e57dc466fca84c701d8fd6a84cb6789" target="_top" xlink:title=" ">
<polygon fill="white" stroke="#666666" points="230.75,-18.5 121.75,-18.5 121.75,0 230.75,0 230.75,-18.5"/>
<text text-anchor="middle" x="176.25" y="-5" font-family="Helvetica,sans-Serif" font-size="10.00">arax_vaccel_get_stat</text>
</a>
</g>
</g>
<!-- Node1&#45;&gt;Node3 -->
<g id="edge2_Node000001_Node000003" class="edge">
<title>Node1&#45;&gt;Node3</title>
<g id="a_edge2_Node000001_Node000003"><a xlink:title=" ">
<path fill="none" stroke="#63b8ff" d="M255.21,-19.22C247.2,-18.2 239.07,-17.16 231.22,-16.15"/>
<polygon fill="#63b8ff" stroke="#63b8ff" points="254.52,-22.66 264.89,-20.46 255.41,-15.72 254.52,-22.66"/>
</a>
</g>
</g>
<!-- Node3&#45;&gt;Node2 -->
<g id="edge3_Node000003_Node000002" class="edge">
<title>Node3&#45;&gt;Node2</title>
<g id="a_edge3_Node000003_Node000002"><a xlink:title=" ">
<path fill="none" stroke="#63b8ff" d="M110.3,-18.15C102.1,-19.27 93.87,-20.4 86.15,-21.46"/>
<polygon fill="#63b8ff" stroke="#63b8ff" points="110.5,-21.65 119.94,-16.83 109.55,-14.72 110.5,-21.65"/>
</a>
</g>
</g>
</g>
</svg>
