<?xml version="1.0" encoding="UTF-8" standalone="no"?>
<!DOCTYPE svg PUBLIC "-//W3C//DTD SVG 1.1//EN"
 "http://www.w3.org/Graphics/SVG/1.1/DTD/svg11.dtd">
<!-- Generated by graphviz version 12.2.1 (0)
 -->
<!-- Title: arax_throttle_init Pages: 1 -->
<svg width="587pt" height="138pt"
 viewBox="0.00 0.00 586.50 137.50" xmlns="http://www.w3.org/2000/svg" xmlns:xlink="http://www.w3.org/1999/xlink">
<g id="graph0" class="graph" transform="scale(1 1) rotate(0) translate(4 133.5)">
<title>arax_throttle_init</title>
<!-- Node1 -->
<g id="Node000001" class="node">
<title>Node1</title>
<g id="a_Node000001"><a xlink:title=" ">
<polygon fill="#999999" stroke="#666666" points="88.75,-73.5 0,-73.5 0,-55 88.75,-55 88.75,-73.5"/>
<text text-anchor="middle" x="44.38" y="-60" font-family="Helvetica,sans-Serif" font-size="10.00">arax_throttle_init</text>
</a>
</g>
</g>
<!-- Node2 -->
<g id="Node000002" class="node">
<title>Node2</title>
<g id="a_Node000002"><a xlink:href="a02364.html#ac7fbf1f43289d3e0e862b315f00e35e2" target="_top" xlink:title=" ">
<polygon fill="white" stroke="#666666" points="228.5,-73.5 124.75,-73.5 124.75,-55 228.5,-55 228.5,-73.5"/>
<text text-anchor="middle" x="176.62" y="-60" font-family="Helvetica,sans-Serif" font-size="10.00">async_condition_init</text>
</a>
</g>
</g>
<!-- Node1&#45;&gt;Node2 -->
<g id="edge1_Node000001_Node000002" class="edge">
<title>Node1&#45;&gt;Node2</title>
<g id="a_edge1_Node000001_Node000002"><a xlink:title=" ">
<path fill="none" stroke="#63b8ff" d="M89.11,-64.25C96.84,-64.25 105.03,-64.25 113.17,-64.25"/>
<polygon fill="#63b8ff" stroke="#63b8ff" points="113.06,-67.75 123.06,-64.25 113.06,-60.75 113.06,-67.75"/>
</a>
</g>
</g>
<!-- Node3 -->
<g id="Node000003" class="node">
<title>Node3</title>
<g id="a_Node000003"><a xlink:href="a02358.html#ad1d30ecbf6bff6457b680aa940281072" target="_top" xlink:title=" ">
<polygon fill="white" stroke="#666666" points="403.5,-129.5 264.5,-129.5 264.5,-111 403.5,-111 403.5,-129.5"/>
<text text-anchor="middle" x="334" y="-116" font-family="Helvetica,sans-Serif" font-size="10.00">async_completion_complete</text>
</a>
</g>
</g>
<!-- Node2&#45;&gt;Node3 -->
<g id="edge2_Node000002_Node000003" class="edge">
<title>Node2&#45;&gt;Node3</title>
<g id="a_edge2_Node000002_Node000003"><a xlink:title=" ">
<path fill="none" stroke="#63b8ff" d="M198.04,-73.85C215.45,-81.82 241.29,-93.13 264.5,-101.25 270.69,-103.42 277.27,-105.5 283.8,-107.45"/>
<polygon fill="#63b8ff" stroke="#63b8ff" points="282.65,-110.76 293.22,-110.16 284.58,-104.03 282.65,-110.76"/>
</a>
</g>
</g>
<!-- Node4 -->
<g id="Node000004" class="node">
<title>Node4</title>
<g id="a_Node000004"><a xlink:href="a02358.html#ac728117d73179c279de49e01ae905dda" target="_top" xlink:title=" ">
<polygon fill="white" stroke="#666666" points="390,-92.5 278,-92.5 278,-74 390,-74 390,-92.5"/>
<text text-anchor="middle" x="334" y="-79" font-family="Helvetica,sans-Serif" font-size="10.00">async_completion_init</text>
</a>
</g>
</g>
<!-- Node2&#45;&gt;Node4 -->
<g id="edge3_Node000002_Node000004" class="edge">
<title>Node2&#45;&gt;Node4</title>
<g id="a_edge3_Node000002_Node000004"><a xlink:title=" ">
<path fill="none" stroke="#63b8ff" d="M228.93,-70.52C240.91,-71.99 253.84,-73.57 266.37,-75.1"/>
<polygon fill="#63b8ff" stroke="#63b8ff" points="265.88,-78.57 276.24,-76.31 266.73,-71.62 265.88,-78.57"/>
</a>
</g>
</g>
<!-- Node5 -->
<g id="Node000005" class="node">
<title>Node5</title>
<g id="a_Node000005"><a xlink:href="a02361.html#a3bbcb7c4c024e99d5c4ba52b61dfbbf7" target="_top" xlink:title=" ">
<polygon fill="white" stroke="#666666" points="393.75,-55.5 274.25,-55.5 274.25,-37 393.75,-37 393.75,-55.5"/>
<text text-anchor="middle" x="334" y="-42" font-family="Helvetica,sans-Serif" font-size="10.00">async_condition_unlock</text>
</a>
</g>
</g>
<!-- Node2&#45;&gt;Node5 -->
<g id="edge4_Node000002_Node000005" class="edge">
<title>Node2&#45;&gt;Node5</title>
<g id="a_edge4_Node000002_Node000005"><a xlink:title=" ">
<path fill="none" stroke="#63b8ff" d="M228.93,-58.31C239.74,-57.05 251.32,-55.71 262.68,-54.4"/>
<polygon fill="#63b8ff" stroke="#63b8ff" points="262.91,-57.89 272.44,-53.27 262.1,-50.94 262.91,-57.89"/>
</a>
</g>
</g>
<!-- Node7 -->
<g id="Node000007" class="node">
<title>Node7</title>
<g id="a_Node000007"><a xlink:href="a02358.html#a2a7d01fc7720e936a430efc09d094c6c" target="_top" xlink:title=" ">
<polygon fill="white" stroke="#666666" points="390.38,-18.5 277.62,-18.5 277.62,0 390.38,0 390.38,-18.5"/>
<text text-anchor="middle" x="334" y="-5" font-family="Helvetica,sans-Serif" font-size="10.00">async_semaphore_init</text>
</a>
</g>
</g>
<!-- Node2&#45;&gt;Node7 -->
<g id="edge6_Node000002_Node000007" class="edge">
<title>Node2&#45;&gt;Node7</title>
<g id="a_edge6_Node000002_Node000007"><a xlink:title=" ">
<path fill="none" stroke="#63b8ff" d="M198.77,-54.64C216.19,-46.92 241.65,-36.12 264.5,-28.25 270.7,-26.11 277.29,-24.04 283.82,-22.11"/>
<polygon fill="#63b8ff" stroke="#63b8ff" points="284.6,-25.52 293.25,-19.4 282.67,-18.8 284.6,-25.52"/>
</a>
</g>
</g>
<!-- Node6 -->
<g id="Node000006" class="node">
<title>Node6</title>
<g id="a_Node000006"><a xlink:href="a02361.html#ad1d30ecbf6bff6457b680aa940281072" target="_top" xlink:title=" ">
<polygon fill="white" stroke="#666666" points="578.5,-55.5 439.5,-55.5 439.5,-37 578.5,-37 578.5,-55.5"/>
<text text-anchor="middle" x="509" y="-42" font-family="Helvetica,sans-Serif" font-size="10.00">async_completion_complete</text>
</a>
</g>
</g>
<!-- Node5&#45;&gt;Node6 -->
<g id="edge5_Node000005_Node000006" class="edge">
<title>Node5&#45;&gt;Node6</title>
<g id="a_edge5_Node000005_Node000006"><a xlink:title=" ">
<path fill="none" stroke="#63b8ff" d="M394.05,-46.25C404.92,-46.25 416.43,-46.25 427.79,-46.25"/>
<polygon fill="#63b8ff" stroke="#63b8ff" points="427.56,-49.75 437.56,-46.25 427.56,-42.75 427.56,-49.75"/>
</a>
</g>
</g>
</g>
</svg>
