<?xml version="1.0" encoding="UTF-8" standalone="no"?>
<!DOCTYPE svg PUBLIC "-//W3C//DTD SVG 1.1//EN"
 "http://www.w3.org/Graphics/SVG/1.1/DTD/svg11.dtd">
<!-- Generated by graphviz version 12.2.1 (0)
 -->
<!-- Title: arax_data.c Pages: 1 -->
<svg width="1021pt" height="463pt"
 viewBox="0.00 0.00 1021.38 462.50" xmlns="http://www.w3.org/2000/svg" xmlns:xlink="http://www.w3.org/1999/xlink">
<g id="graph0" class="graph" transform="scale(1 1) rotate(0) translate(4 458.5)">
<title>arax_data.c</title>
<!-- Node1 -->
<g id="Node000001" class="node">
<title>Node1</title>
<g id="a_Node000001"><a xlink:title=" ">
<polygon fill="#999999" stroke="#666666" points="802.5,-454.5 734.75,-454.5 734.75,-436 802.5,-436 802.5,-454.5"/>
<text text-anchor="middle" x="768.62" y="-441" font-family="Helvetica,sans-Serif" font-size="10.00">arax_data.c</text>
</a>
</g>
</g>
<!-- Node2 -->
<g id="Node000002" class="node">
<title>Node2</title>
<g id="a_Node000002"><a xlink:href="a01409.html" target="_top" xlink:title=" ">
<polygon fill="white" stroke="#666666" points="611.5,-345.5 543.75,-345.5 543.75,-327 611.5,-327 611.5,-345.5"/>
<text text-anchor="middle" x="577.62" y="-332" font-family="Helvetica,sans-Serif" font-size="10.00">arax_data.h</text>
</a>
</g>
</g>
<!-- Node1&#45;&gt;Node2 -->
<g id="edge1_Node000001_Node000002" class="edge">
<title>Node1&#45;&gt;Node2</title>
<g id="a_edge1_Node000001_Node000002"><a xlink:title=" ">
<path fill="none" stroke="#63b8ff" d="M734.54,-444.86C696.04,-443.65 633.91,-435.74 596.62,-400 585.05,-388.9 580.46,-371.02 578.67,-357.17"/>
<polygon fill="#63b8ff" stroke="#63b8ff" points="582.18,-357.08 577.83,-347.42 575.2,-357.68 582.18,-357.08"/>
</a>
</g>
</g>
<!-- Node23 -->
<g id="Node000023" class="node">
<title>Node23</title>
<g id="a_Node000023"><a xlink:href="a01424.html" target="_top" xlink:title=" ">
<polygon fill="white" stroke="#666666" points="437.5,-291 369.75,-291 369.75,-272.5 437.5,-272.5 437.5,-291"/>
<text text-anchor="middle" x="403.62" y="-277.5" font-family="Helvetica,sans-Serif" font-size="10.00">arax_task.h</text>
</a>
</g>
</g>
<!-- Node1&#45;&gt;Node23 -->
<g id="edge35_Node000001_Node000023" class="edge">
<title>Node1&#45;&gt;Node23</title>
<g id="a_edge35_Node000001_Node000023"><a xlink:title=" ">
<path fill="none" stroke="#63b8ff" d="M734.55,-439.93C695.98,-434.21 631.87,-422.16 580.62,-400 518.04,-372.94 453.49,-323.77 422.48,-298.57"/>
<polygon fill="#63b8ff" stroke="#63b8ff" points="424.76,-295.9 414.81,-292.25 420.31,-301.31 424.76,-295.9"/>
</a>
</g>
</g>
<!-- Node25 -->
<g id="Node000025" class="node">
<title>Node25</title>
<g id="a_Node000025"><a xlink:href="a01412.html" target="_top" xlink:title=" ">
<polygon fill="white" stroke="#666666" points="707.38,-400 605.88,-400 605.88,-381.5 707.38,-381.5 707.38,-400"/>
<text text-anchor="middle" x="656.62" y="-386.5" font-family="Helvetica,sans-Serif" font-size="10.00">arax_data_private.h</text>
</a>
</g>
</g>
<!-- Node1&#45;&gt;Node25 -->
<g id="edge40_Node000001_Node000025" class="edge">
<title>Node1&#45;&gt;Node25</title>
<g id="a_edge40_Node000001_Node000025"><a xlink:title=" ">
<path fill="none" stroke="#63b8ff" d="M750.13,-435.58C732.54,-427.34 705.81,-414.81 685.43,-405.25"/>
<polygon fill="#63b8ff" stroke="#63b8ff" points="687.06,-402.15 676.52,-401.07 684.09,-408.49 687.06,-402.15"/>
</a>
</g>
</g>
<!-- Node26 -->
<g id="Node000026" class="node">
<title>Node26</title>
<g id="a_Node000026"><a xlink:href="a01358.html" target="_top" xlink:title=" ">
<polygon fill="white" stroke="#666666" points="709.12,-345.5 642.12,-345.5 642.12,-327 709.12,-327 709.12,-345.5"/>
<text text-anchor="middle" x="675.62" y="-332" font-family="Helvetica,sans-Serif" font-size="10.00">arax_pipe.h</text>
</a>
</g>
</g>
<!-- Node1&#45;&gt;Node26 -->
<g id="edge42_Node000001_Node000026" class="edge">
<title>Node1&#45;&gt;Node26</title>
<g id="a_edge42_Node000001_Node000026"><a xlink:title=" ">
<path fill="none" stroke="#63b8ff" d="M761.71,-435.6C751.88,-423.38 733.22,-400.44 716.62,-381.5 708.6,-372.34 699.41,-362.38 691.77,-354.23"/>
<polygon fill="#63b8ff" stroke="#63b8ff" points="694.39,-351.9 684.98,-347.04 689.3,-356.71 694.39,-351.9"/>
</a>
</g>
</g>
<!-- Node28 -->
<g id="Node000028" class="node">
<title>Node28</title>
<g id="a_Node000028"><a xlink:href="a01421.html" target="_top" xlink:title=" ">
<polygon fill="white" stroke="#666666" points="894.75,-291 834.5,-291 834.5,-272.5 894.75,-272.5 894.75,-291"/>
<text text-anchor="middle" x="864.62" y="-277.5" font-family="Helvetica,sans-Serif" font-size="10.00">arax_ptr.h</text>
</a>
</g>
</g>
<!-- Node1&#45;&gt;Node28 -->
<g id="edge51_Node000001_Node000028" class="edge">
<title>Node1&#45;&gt;Node28</title>
<g id="a_edge51_Node000001_Node000028"><a xlink:title=" ">
<path fill="none" stroke="#63b8ff" d="M797.63,-435.63C815.25,-428.85 836.61,-417.55 848.62,-400 868.7,-370.7 868.96,-327.51 867.01,-302.54"/>
<polygon fill="#63b8ff" stroke="#63b8ff" points="870.51,-302.43 866.03,-292.83 863.55,-303.13 870.51,-302.43"/>
</a>
</g>
</g>
<!-- Node29 -->
<g id="Node000029" class="node">
<title>Node29</title>
<g id="a_Node000029"><a xlink:title=" ">
<polygon fill="#e0e0e0" stroke="#999999" points="947.75,-400 899.5,-400 899.5,-381.5 947.75,-381.5 947.75,-400"/>
<text text-anchor="middle" x="923.62" y="-386.5" font-family="Helvetica,sans-Serif" font-size="10.00">string.h</text>
</a>
</g>
</g>
<!-- Node1&#45;&gt;Node29 -->
<g id="edge53_Node000001_Node000029" class="edge">
<title>Node1&#45;&gt;Node29</title>
<g id="a_edge53_Node000001_Node000029"><a xlink:title=" ">
<path fill="none" stroke="#63b8ff" d="M794.22,-435.58C819.88,-426.89 859.58,-413.44 888.24,-403.73"/>
<polygon fill="#63b8ff" stroke="#63b8ff" points="889.23,-407.09 897.58,-400.57 886.99,-400.46 889.23,-407.09"/>
</a>
</g>
</g>
<!-- Node30 -->
<g id="Node000030" class="node">
<title>Node30</title>
<g id="a_Node000030"><a xlink:title=" ">
<polygon fill="#e0e0e0" stroke="#999999" points="1013.38,-400 965.88,-400 965.88,-381.5 1013.38,-381.5 1013.38,-400"/>
<text text-anchor="middle" x="989.62" y="-386.5" font-family="Helvetica,sans-Serif" font-size="10.00">stdlib.h</text>
</a>
</g>
</g>
<!-- Node1&#45;&gt;Node30 -->
<g id="edge54_Node000001_Node000030" class="edge">
<title>Node1&#45;&gt;Node30</title>
<g id="a_edge54_Node000001_Node000030"><a xlink:title=" ">
<path fill="none" stroke="#63b8ff" d="M802.96,-436.32C838.47,-428.08 895.8,-414.69 954.51,-400.49"/>
<polygon fill="#63b8ff" stroke="#63b8ff" points="955.12,-403.94 964.01,-398.18 953.47,-397.14 955.12,-403.94"/>
</a>
</g>
</g>
<!-- Node31 -->
<g id="Node000031" class="node">
<title>Node31</title>
<g id="a_Node000031"><a xlink:href="a01397.html" target="_top" xlink:title=" ">
<polygon fill="white" stroke="#666666" points="839.62,-400 763.62,-400 763.62,-381.5 839.62,-381.5 839.62,-400"/>
<text text-anchor="middle" x="801.62" y="-386.5" font-family="Helvetica,sans-Serif" font-size="10.00">utils/system.h</text>
</a>
</g>
</g>
<!-- Node1&#45;&gt;Node31 -->
<g id="edge55_Node000001_Node000031" class="edge">
<title>Node1&#45;&gt;Node31</title>
<g id="a_edge55_Node000001_Node000031"><a xlink:title=" ">
<path fill="none" stroke="#63b8ff" d="M774.07,-435.58C778.45,-428.62 784.74,-418.62 790.2,-409.92"/>
<polygon fill="#63b8ff" stroke="#63b8ff" points="793.11,-411.87 795.47,-401.54 787.19,-408.14 793.11,-411.87"/>
</a>
</g>
</g>
<!-- Node3 -->
<g id="Node000003" class="node">
<title>Node3</title>
<g id="a_Node000003"><a xlink:href="a01355.html" target="_top" xlink:title=" ">
<polygon fill="white" stroke="#666666" points="173.12,-182 130.12,-182 130.12,-163.5 173.12,-163.5 173.12,-182"/>
<text text-anchor="middle" x="151.62" y="-168.5" font-family="Helvetica,sans-Serif" font-size="10.00">arax.h</text>
</a>
</g>
</g>
<!-- Node2&#45;&gt;Node3 -->
<g id="edge2_Node000002_Node000003" class="edge">
<title>Node2&#45;&gt;Node3</title>
<g id="a_edge2_Node000002_Node000003"><a xlink:title=" ">
<path fill="none" stroke="#63b8ff" d="M543.49,-334.69C439.12,-332.61 129.45,-323.72 99.62,-291 77.77,-267.02 86.02,-247.45 99.62,-218 105.16,-206.01 115.73,-196.08 125.9,-188.68"/>
<polygon fill="#63b8ff" stroke="#63b8ff" points="127.71,-191.68 134.09,-183.22 123.83,-185.86 127.71,-191.68"/>
</a>
</g>
</g>
<!-- Node10 -->
<g id="Node000010" class="node">
<title>Node10</title>
<g id="a_Node000010"><a xlink:href="a01415.html" target="_top" xlink:title=" ">
<polygon fill="white" stroke="#666666" points="413.75,-182 317.5,-182 317.5,-163.5 413.75,-163.5 413.75,-182"/>
<text text-anchor="middle" x="365.62" y="-168.5" font-family="Helvetica,sans-Serif" font-size="10.00">core/arax_object.h</text>
</a>
</g>
</g>
<!-- Node2&#45;&gt;Node10 -->
<g id="edge10_Node000002_Node000010" class="edge">
<title>Node2&#45;&gt;Node10</title>
<g id="a_edge10_Node000002_Node000010"><a xlink:title=" ">
<path fill="none" stroke="#63b8ff" d="M543.26,-331.57C459.28,-321.75 247.6,-291.88 208.62,-236.5 181.36,-197.76 250.86,-182.93 305.96,-177.25"/>
<polygon fill="#63b8ff" stroke="#63b8ff" points="305.98,-180.77 315.6,-176.35 305.32,-173.8 305.98,-180.77"/>
</a>
</g>
</g>
<!-- Node17 -->
<g id="Node000017" class="node">
<title>Node17</title>
<g id="a_Node000017"><a xlink:title=" ">
<polygon fill="#e0e0e0" stroke="#999999" points="481.5,-182 431.75,-182 431.75,-163.5 481.5,-163.5 481.5,-182"/>
<text text-anchor="middle" x="456.62" y="-168.5" font-family="Helvetica,sans-Serif" font-size="10.00">async.h</text>
</a>
</g>
</g>
<!-- Node2&#45;&gt;Node17 -->
<g id="edge19_Node000002_Node000017" class="edge">
<title>Node2&#45;&gt;Node17</title>
<g id="a_edge19_Node000002_Node000017"><a xlink:title=" ">
<path fill="none" stroke="#63b8ff" d="M591.84,-326.72C603.26,-318.98 618.52,-306.44 625.62,-291 639.2,-261.52 647.49,-243.66 627.62,-218 611.34,-196.97 538.59,-184.12 493.39,-178.02"/>
<polygon fill="#63b8ff" stroke="#63b8ff" points="493.85,-174.55 483.49,-176.74 492.96,-181.5 493.85,-174.55"/>
</a>
</g>
</g>
<!-- Node18 -->
<g id="Node000018" class="node">
<title>Node18</title>
<g id="a_Node000018"><a xlink:href="a01364.html" target="_top" xlink:title=" ">
<polygon fill="white" stroke="#666666" points="714.75,-127.5 672.5,-127.5 672.5,-109 714.75,-109 714.75,-127.5"/>
<text text-anchor="middle" x="693.62" y="-114" font-family="Helvetica,sans-Serif" font-size="10.00">conf.h</text>
</a>
</g>
</g>
<!-- Node2&#45;&gt;Node18 -->
<g id="edge20_Node000002_Node000018" class="edge">
<title>Node2&#45;&gt;Node18</title>
<g id="a_edge20_Node000002_Node000018"><a xlink:title=" ">
<path fill="none" stroke="#63b8ff" d="M597.43,-326.61C612.21,-319.19 631.81,-307.14 643.62,-291 678.26,-243.67 689.01,-172.69 692.26,-138.72"/>
<polygon fill="#63b8ff" stroke="#63b8ff" points="695.71,-139.4 693.05,-129.15 688.74,-138.83 695.71,-139.4"/>
</a>
</g>
</g>
<!-- Node19 -->
<g id="Node000019" class="node">
<title>Node19</title>
<g id="a_Node000019"><a xlink:href="a01403.html" target="_top" xlink:title=" ">
<polygon fill="white" stroke="#666666" points="616.62,-291 522.62,-291 522.62,-272.5 616.62,-272.5 616.62,-291"/>
<text text-anchor="middle" x="569.62" y="-277.5" font-family="Helvetica,sans-Serif" font-size="10.00">core/arax_accel.h</text>
</a>
</g>
</g>
<!-- Node2&#45;&gt;Node19 -->
<g id="edge21_Node000002_Node000019" class="edge">
<title>Node2&#45;&gt;Node19</title>
<g id="a_edge21_Node000002_Node000019"><a xlink:title=" ">
<path fill="none" stroke="#63b8ff" d="M576.3,-326.58C575.3,-320.01 573.89,-310.71 572.61,-302.37"/>
<polygon fill="#63b8ff" stroke="#63b8ff" points="576.12,-302.11 571.15,-292.75 569.2,-303.17 576.12,-302.11"/>
</a>
</g>
</g>
<!-- Node4 -->
<g id="Node000004" class="node">
<title>Node4</title>
<g id="a_Node000004"><a xlink:title=" ">
<polygon fill="#e0e0e0" stroke="#999999" points="225.25,-127.5 180,-127.5 180,-109 225.25,-109 225.25,-127.5"/>
<text text-anchor="middle" x="202.62" y="-114" font-family="Helvetica,sans-Serif" font-size="10.00">stdio.h</text>
</a>
</g>
</g>
<!-- Node3&#45;&gt;Node4 -->
<g id="edge3_Node000003_Node000004" class="edge">
<title>Node3&#45;&gt;Node4</title>
<g id="a_edge3_Node000003_Node000004"><a xlink:title=" ">
<path fill="none" stroke="#63b8ff" d="M160.05,-163.08C167.18,-155.74 177.6,-145.01 186.35,-136"/>
<polygon fill="#63b8ff" stroke="#63b8ff" points="188.85,-138.46 193.31,-128.84 183.83,-133.58 188.85,-138.46"/>
</a>
</g>
</g>
<!-- Node5 -->
<g id="Node000005" class="node">
<title>Node5</title>
<g id="a_Node000005"><a xlink:title=" ">
<polygon fill="#e0e0e0" stroke="#999999" points="693.88,-73 643.38,-73 643.38,-54.5 693.88,-54.5 693.88,-73"/>
<text text-anchor="middle" x="668.62" y="-59.5" font-family="Helvetica,sans-Serif" font-size="10.00">stddef.h</text>
</a>
</g>
</g>
<!-- Node3&#45;&gt;Node5 -->
<g id="edge4_Node000003_Node000005" class="edge">
<title>Node3&#45;&gt;Node5</title>
<g id="a_edge4_Node000003_Node000005"><a xlink:title=" ">
<path fill="none" stroke="#63b8ff" d="M170.77,-163.07C202.06,-149.29 266.4,-122.55 323.62,-109 455.46,-77.78 495.54,-96.41 631.79,-73.28"/>
<polygon fill="#63b8ff" stroke="#63b8ff" points="632.34,-76.74 641.59,-71.57 631.13,-69.84 632.34,-76.74"/>
</a>
</g>
</g>
<!-- Node6 -->
<g id="Node000006" class="node">
<title>Node6</title>
<g id="a_Node000006"><a xlink:href="a01361.html" target="_top" xlink:title=" ">
<polygon fill="white" stroke="#666666" points="143.12,-73 70.12,-73 70.12,-54.5 143.12,-54.5 143.12,-73"/>
<text text-anchor="middle" x="106.62" y="-59.5" font-family="Helvetica,sans-Serif" font-size="10.00">arax_types.h</text>
</a>
</g>
</g>
<!-- Node3&#45;&gt;Node6 -->
<g id="edge5_Node000003_Node000006" class="edge">
<title>Node3&#45;&gt;Node6</title>
<g id="a_edge5_Node000003_Node000006"><a xlink:title=" ">
<path fill="none" stroke="#63b8ff" d="M149.77,-163.4C146.9,-151.17 140.84,-127.77 132.62,-109 128.69,-100.02 123.34,-90.59 118.51,-82.75"/>
<polygon fill="#63b8ff" stroke="#63b8ff" points="121.59,-81.06 113.25,-74.52 115.69,-84.83 121.59,-81.06"/>
</a>
</g>
</g>
<!-- Node9 -->
<g id="Node000009" class="node">
<title>Node9</title>
<g id="a_Node000009"><a xlink:href="a01406.html" target="_top" xlink:title=" ">
<polygon fill="white" stroke="#666666" points="123.25,-127.5 0,-127.5 0,-109 123.25,-109 123.25,-127.5"/>
<text text-anchor="middle" x="61.62" y="-114" font-family="Helvetica,sans-Serif" font-size="10.00">core/arax_accel_types.h</text>
</a>
</g>
</g>
<!-- Node3&#45;&gt;Node9 -->
<g id="edge8_Node000003_Node000009" class="edge">
<title>Node3&#45;&gt;Node9</title>
<g id="a_edge8_Node000003_Node000009"><a xlink:title=" ">
<path fill="none" stroke="#63b8ff" d="M136.76,-163.08C123.08,-155.1 102.53,-143.11 86.37,-133.69"/>
<polygon fill="#63b8ff" stroke="#63b8ff" points="88.22,-130.71 77.82,-128.69 84.69,-136.76 88.22,-130.71"/>
</a>
</g>
</g>
<!-- Node7 -->
<g id="Node000007" class="node">
<title>Node7</title>
<g id="a_Node000007"><a xlink:title=" ">
<polygon fill="#e0e0e0" stroke="#999999" points="101.75,-18.5 41.5,-18.5 41.5,0 101.75,0 101.75,-18.5"/>
<text text-anchor="middle" x="71.62" y="-5" font-family="Helvetica,sans-Serif" font-size="10.00">sys/time.h</text>
</a>
</g>
</g>
<!-- Node6&#45;&gt;Node7 -->
<g id="edge6_Node000006_Node000007" class="edge">
<title>Node6&#45;&gt;Node7</title>
<g id="a_edge6_Node000006_Node000007"><a xlink:title=" ">
<path fill="none" stroke="#63b8ff" d="M100.85,-54.08C96.16,-47.05 89.39,-36.9 83.55,-28.14"/>
<polygon fill="#63b8ff" stroke="#63b8ff" points="86.6,-26.4 78.14,-20.02 80.77,-30.28 86.6,-26.4"/>
</a>
</g>
</g>
<!-- Node8 -->
<g id="Node000008" class="node">
<title>Node8</title>
<g id="a_Node000008"><a xlink:title=" ">
<polygon fill="#e0e0e0" stroke="#999999" points="163.12,-18.5 120.12,-18.5 120.12,0 163.12,0 163.12,-18.5"/>
<text text-anchor="middle" x="141.62" y="-5" font-family="Helvetica,sans-Serif" font-size="10.00">time.h</text>
</a>
</g>
</g>
<!-- Node6&#45;&gt;Node8 -->
<g id="edge7_Node000006_Node000008" class="edge">
<title>Node6&#45;&gt;Node8</title>
<g id="a_edge7_Node000006_Node000008"><a xlink:title=" ">
<path fill="none" stroke="#63b8ff" d="M112.4,-54.08C117.09,-47.05 123.86,-36.9 129.7,-28.14"/>
<polygon fill="#63b8ff" stroke="#63b8ff" points="132.48,-30.28 135.11,-20.02 126.65,-26.4 132.48,-30.28"/>
</a>
</g>
</g>
<!-- Node9&#45;&gt;Node6 -->
<g id="edge9_Node000009_Node000006" class="edge">
<title>Node9&#45;&gt;Node6</title>
<g id="a_edge9_Node000009_Node000006"><a xlink:title=" ">
<path fill="none" stroke="#63b8ff" d="M69.06,-108.58C75.28,-101.32 84.35,-90.73 92.03,-81.78"/>
<polygon fill="#63b8ff" stroke="#63b8ff" points="94.5,-84.28 98.35,-74.41 89.18,-79.72 94.5,-84.28"/>
</a>
</g>
</g>
<!-- Node11 -->
<g id="Node000011" class="node">
<title>Node11</title>
<g id="a_Node000011"><a xlink:href="a01388.html" target="_top" xlink:title=" ">
<polygon fill="white" stroke="#666666" points="517.25,-127.5 460,-127.5 460,-109 517.25,-109 517.25,-127.5"/>
<text text-anchor="middle" x="488.62" y="-114" font-family="Helvetica,sans-Serif" font-size="10.00">utils/list.h</text>
</a>
</g>
</g>
<!-- Node10&#45;&gt;Node11 -->
<g id="edge11_Node000010_Node000011" class="edge">
<title>Node10&#45;&gt;Node11</title>
<g id="a_edge11_Node000010_Node000011"><a xlink:title=" ">
<path fill="none" stroke="#63b8ff" d="M385.94,-163.08C405.52,-154.72 435.42,-141.96 457.91,-132.36"/>
<polygon fill="#63b8ff" stroke="#63b8ff" points="459.07,-135.67 466.89,-128.53 456.32,-129.23 459.07,-135.67"/>
</a>
</g>
</g>
<!-- Node13 -->
<g id="Node000013" class="node">
<title>Node13</title>
<g id="a_Node000013"><a xlink:href="a01394.html" target="_top" xlink:title=" ">
<polygon fill="white" stroke="#666666" points="616.25,-127.5 535,-127.5 535,-109 616.25,-109 616.25,-127.5"/>
<text text-anchor="middle" x="575.62" y="-114" font-family="Helvetica,sans-Serif" font-size="10.00">utils/spinlock.h</text>
</a>
</g>
</g>
<!-- Node10&#45;&gt;Node13 -->
<g id="edge14_Node000010_Node000013" class="edge">
<title>Node10&#45;&gt;Node13</title>
<g id="a_edge14_Node000010_Node000013"><a xlink:title=" ">
<path fill="none" stroke="#63b8ff" d="M400.3,-163.08C435.72,-154.23 490.88,-140.44 529.86,-130.69"/>
<polygon fill="#63b8ff" stroke="#63b8ff" points="530.58,-134.12 539.43,-128.3 528.88,-127.33 530.58,-134.12"/>
</a>
</g>
</g>
<!-- Node16 -->
<g id="Node000016" class="node">
<title>Node16</title>
<g id="a_Node000016"><a xlink:title=" ">
<polygon fill="#e0e0e0" stroke="#999999" points="398.75,-127.5 332.5,-127.5 332.5,-109 398.75,-109 398.75,-127.5"/>
<text text-anchor="middle" x="365.62" y="-114" font-family="Helvetica,sans-Serif" font-size="10.00">arch/alloc.h</text>
</a>
</g>
</g>
<!-- Node10&#45;&gt;Node16 -->
<g id="edge18_Node000010_Node000016" class="edge">
<title>Node10&#45;&gt;Node16</title>
<g id="a_edge18_Node000010_Node000016"><a xlink:title=" ">
<path fill="none" stroke="#63b8ff" d="M365.62,-163.08C365.62,-156.58 365.62,-147.42 365.62,-139.16"/>
<polygon fill="#63b8ff" stroke="#63b8ff" points="369.13,-139.27 365.63,-129.27 362.13,-139.27 369.13,-139.27"/>
</a>
</g>
</g>
<!-- Node11&#45;&gt;Node5 -->
<g id="edge12_Node000011_Node000005" class="edge">
<title>Node11&#45;&gt;Node5</title>
<g id="a_edge12_Node000011_Node000005"><a xlink:title=" ">
<path fill="none" stroke="#63b8ff" d="M517.55,-108.81C548.71,-99.73 598.36,-85.24 632.17,-75.38"/>
<polygon fill="#63b8ff" stroke="#63b8ff" points="632.91,-78.81 641.53,-72.65 630.95,-72.09 632.91,-78.81"/>
</a>
</g>
</g>
<!-- Node12 -->
<g id="Node000012" class="node">
<title>Node12</title>
<g id="a_Node000012"><a xlink:title=" ">
<polygon fill="#e0e0e0" stroke="#999999" points="510.38,-73 462.88,-73 462.88,-54.5 510.38,-54.5 510.38,-73"/>
<text text-anchor="middle" x="486.62" y="-59.5" font-family="Helvetica,sans-Serif" font-size="10.00">stdint.h</text>
</a>
</g>
</g>
<!-- Node11&#45;&gt;Node12 -->
<g id="edge13_Node000011_Node000012" class="edge">
<title>Node11&#45;&gt;Node12</title>
<g id="a_edge13_Node000011_Node000012"><a xlink:title=" ">
<path fill="none" stroke="#63b8ff" d="M488.29,-108.58C488.05,-102.08 487.7,-92.92 487.38,-84.66"/>
<polygon fill="#63b8ff" stroke="#63b8ff" points="490.88,-84.63 487.01,-74.77 483.89,-84.9 490.88,-84.63"/>
</a>
</g>
</g>
<!-- Node13&#45;&gt;Node12 -->
<g id="edge15_Node000013_Node000012" class="edge">
<title>Node13&#45;&gt;Node12</title>
<g id="a_edge15_Node000013_Node000012"><a xlink:title=" ">
<path fill="none" stroke="#63b8ff" d="M560.93,-108.58C547.4,-100.6 527.07,-88.61 511.1,-79.19"/>
<polygon fill="#63b8ff" stroke="#63b8ff" points="513.04,-76.27 502.65,-74.2 509.48,-82.3 513.04,-76.27"/>
</a>
</g>
</g>
<!-- Node14 -->
<g id="Node000014" class="node">
<title>Node14</title>
<g id="a_Node000014"><a xlink:href="a01373.html" target="_top" xlink:title=" ">
<polygon fill="white" stroke="#666666" points="625.12,-73 528.12,-73 528.12,-54.5 625.12,-54.5 625.12,-73"/>
<text text-anchor="middle" x="576.62" y="-59.5" font-family="Helvetica,sans-Serif" font-size="10.00">utils/arax_assert.h</text>
</a>
</g>
</g>
<!-- Node13&#45;&gt;Node14 -->
<g id="edge16_Node000013_Node000014" class="edge">
<title>Node13&#45;&gt;Node14</title>
<g id="a_edge16_Node000013_Node000014"><a xlink:title=" ">
<path fill="none" stroke="#63b8ff" d="M575.79,-108.58C575.91,-102.08 576.09,-92.92 576.25,-84.66"/>
<polygon fill="#63b8ff" stroke="#63b8ff" points="579.74,-84.84 576.43,-74.77 572.74,-84.7 579.74,-84.84"/>
</a>
</g>
</g>
<!-- Node15 -->
<g id="Node000015" class="node">
<title>Node15</title>
<g id="a_Node000015"><a xlink:href="a01382.html" target="_top" xlink:title=" ">
<polygon fill="white" stroke="#666666" points="739.5,-18.5 683.75,-18.5 683.75,0 739.5,0 739.5,-18.5"/>
<text text-anchor="middle" x="711.62" y="-5" font-family="Helvetica,sans-Serif" font-size="10.00">compat.h</text>
</a>
</g>
</g>
<!-- Node14&#45;&gt;Node15 -->
<g id="edge17_Node000014_Node000015" class="edge">
<title>Node14&#45;&gt;Node15</title>
<g id="a_edge17_Node000014_Node000015"><a xlink:title=" ">
<path fill="none" stroke="#63b8ff" d="M598.92,-54.08C620.61,-45.65 653.83,-32.73 678.59,-23.1"/>
<polygon fill="#63b8ff" stroke="#63b8ff" points="679.84,-26.37 687.89,-19.48 677.3,-19.84 679.84,-26.37"/>
</a>
</g>
</g>
<!-- Node19&#45;&gt;Node3 -->
<g id="edge22_Node000019_Node000003" class="edge">
<title>Node19&#45;&gt;Node3</title>
<g id="a_edge22_Node000019_Node000003"><a xlink:title=" ">
<path fill="none" stroke="#63b8ff" d="M522.21,-276.79C430.61,-268.87 235.93,-250.63 208.62,-236.5 189.06,-226.37 172.89,-206.64 162.83,-191.99"/>
<polygon fill="#63b8ff" stroke="#63b8ff" points="165.83,-190.19 157.45,-183.71 159.96,-194 165.83,-190.19"/>
</a>
</g>
</g>
<!-- Node19&#45;&gt;Node17 -->
<g id="edge23_Node000019_Node000017" class="edge">
<title>Node19&#45;&gt;Node17</title>
<g id="a_edge23_Node000019_Node000017"><a xlink:title=" ">
<path fill="none" stroke="#63b8ff" d="M522.38,-275.47C475.51,-269.15 408.46,-256.79 392.62,-236.5 378.18,-217.99 402.99,-199.5 425.81,-187.44"/>
<polygon fill="#63b8ff" stroke="#63b8ff" points="427.25,-190.63 434.65,-183.04 424.14,-184.36 427.25,-190.63"/>
</a>
</g>
</g>
<!-- Node20 -->
<g id="Node000020" class="node">
<title>Node20</title>
<g id="a_Node000020"><a xlink:href="a01430.html" target="_top" xlink:title=" ">
<polygon fill="white" stroke="#666666" points="618.88,-236.5 520.38,-236.5 520.38,-218 618.88,-218 618.88,-236.5"/>
<text text-anchor="middle" x="569.62" y="-223" font-family="Helvetica,sans-Serif" font-size="10.00">core/arax_vaccel.h</text>
</a>
</g>
</g>
<!-- Node19&#45;&gt;Node20 -->
<g id="edge24_Node000019_Node000020" class="edge">
<title>Node19&#45;&gt;Node20</title>
<g id="a_edge24_Node000019_Node000020"><a xlink:title=" ">
<path fill="none" stroke="#63b8ff" d="M564.46,-272.08C563.05,-265.58 562.58,-256.42 563.05,-248.16"/>
<polygon fill="#63b8ff" stroke="#63b8ff" points="566.52,-248.62 564.3,-238.26 559.58,-247.74 566.52,-248.62"/>
</a>
</g>
</g>
<!-- Node22 -->
<g id="Node000022" class="node">
<title>Node22</title>
<g id="a_Node000022"><a xlink:href="a01427.html" target="_top" xlink:title=" ">
<polygon fill="white" stroke="#666666" points="502,-236.5 401.25,-236.5 401.25,-218 502,-218 502,-236.5"/>
<text text-anchor="middle" x="451.62" y="-223" font-family="Helvetica,sans-Serif" font-size="10.00">core/arax_throttle.h</text>
</a>
</g>
</g>
<!-- Node19&#45;&gt;Node22 -->
<g id="edge33_Node000019_Node000022" class="edge">
<title>Node19&#45;&gt;Node22</title>
<g id="a_edge33_Node000019_Node000022"><a xlink:title=" ">
<path fill="none" stroke="#63b8ff" d="M550.14,-272.08C531.44,-263.76 502.93,-251.08 481.38,-241.49"/>
<polygon fill="#63b8ff" stroke="#63b8ff" points="483.08,-238.41 472.52,-237.55 480.24,-244.81 483.08,-238.41"/>
</a>
</g>
</g>
<!-- Node20&#45;&gt;Node10 -->
<g id="edge25_Node000020_Node000010" class="edge">
<title>Node20&#45;&gt;Node10</title>
<g id="a_edge25_Node000020_Node000010"><a xlink:title=" ">
<path fill="none" stroke="#63b8ff" d="M535.94,-217.58C501.54,-208.73 447.95,-194.94 410.08,-185.19"/>
<polygon fill="#63b8ff" stroke="#63b8ff" points="411.38,-181.91 400.83,-182.81 409.64,-188.69 411.38,-181.91"/>
</a>
</g>
</g>
<!-- Node20&#45;&gt;Node17 -->
<g id="edge32_Node000020_Node000017" class="edge">
<title>Node20&#45;&gt;Node17</title>
<g id="a_edge32_Node000020_Node000017"><a xlink:title=" ">
<path fill="none" stroke="#63b8ff" d="M550.97,-217.58C533.22,-209.34 506.25,-196.81 485.69,-187.25"/>
<polygon fill="#63b8ff" stroke="#63b8ff" points="487.23,-184.11 476.69,-183.07 484.28,-190.46 487.23,-184.11"/>
</a>
</g>
</g>
<!-- Node20&#45;&gt;Node19 -->
<g id="edge31_Node000020_Node000019" class="edge">
<title>Node20&#45;&gt;Node19</title>
<g id="a_edge31_Node000020_Node000019"><a xlink:title=" ">
<path fill="none" stroke="#63b8ff" d="M574.76,-236.76C576.2,-243.29 576.68,-252.57 576.19,-260.93"/>
<polygon fill="#63b8ff" stroke="#63b8ff" points="572.75,-260.22 574.98,-270.58 579.7,-261.09 572.75,-260.22"/>
</a>
</g>
</g>
<!-- Node21 -->
<g id="Node000021" class="node">
<title>Node21</title>
<g id="a_Node000021"><a xlink:href="a01391.html" target="_top" xlink:title=" ">
<polygon fill="white" stroke="#666666" points="634.38,-182 562.88,-182 562.88,-163.5 634.38,-163.5 634.38,-182"/>
<text text-anchor="middle" x="598.62" y="-168.5" font-family="Helvetica,sans-Serif" font-size="10.00">utils/queue.h</text>
</a>
</g>
</g>
<!-- Node20&#45;&gt;Node21 -->
<g id="edge26_Node000020_Node000021" class="edge">
<title>Node20&#45;&gt;Node21</title>
<g id="a_edge26_Node000020_Node000021"><a xlink:title=" ">
<path fill="none" stroke="#63b8ff" d="M574.41,-217.58C578.21,-210.7 583.66,-200.84 588.43,-192.21"/>
<polygon fill="#63b8ff" stroke="#63b8ff" points="591.42,-194.03 593.19,-183.58 585.29,-190.64 591.42,-194.03"/>
</a>
</g>
</g>
<!-- Node21&#45;&gt;Node5 -->
<g id="edge27_Node000021_Node000005" class="edge">
<title>Node21&#45;&gt;Node5</title>
<g id="a_edge27_Node000021_Node000005"><a xlink:title=" ">
<path fill="none" stroke="#63b8ff" d="M604.12,-163.35C615.41,-146.09 641.45,-106.29 656.77,-82.87"/>
<polygon fill="#63b8ff" stroke="#63b8ff" points="659.59,-84.96 662.13,-74.67 653.73,-81.12 659.59,-84.96"/>
</a>
</g>
</g>
<!-- Node21&#45;&gt;Node12 -->
<g id="edge28_Node000021_Node000012" class="edge">
<title>Node21&#45;&gt;Node12</title>
<g id="a_edge28_Node000021_Node000012"><a xlink:title=" ">
<path fill="none" stroke="#63b8ff" d="M562.61,-172.27C527.66,-170.6 476.25,-161.91 450.62,-127.5 439.5,-112.57 453.33,-93.89 466.95,-80.81"/>
<polygon fill="#63b8ff" stroke="#63b8ff" points="468.91,-83.75 474.04,-74.48 464.25,-78.53 468.91,-83.75"/>
</a>
</g>
</g>
<!-- Node21&#45;&gt;Node13 -->
<g id="edge30_Node000021_Node000013" class="edge">
<title>Node21&#45;&gt;Node13</title>
<g id="a_edge30_Node000021_Node000013"><a xlink:title=" ">
<path fill="none" stroke="#63b8ff" d="M594.83,-163.08C591.88,-156.35 587.68,-146.77 583.96,-138.29"/>
<polygon fill="#63b8ff" stroke="#63b8ff" points="587.18,-136.9 579.96,-129.14 580.77,-139.71 587.18,-136.9"/>
</a>
</g>
</g>
<!-- Node21&#45;&gt;Node18 -->
<g id="edge29_Node000021_Node000018" class="edge">
<title>Node21&#45;&gt;Node18</title>
<g id="a_edge29_Node000021_Node000018"><a xlink:title=" ">
<path fill="none" stroke="#63b8ff" d="M614.31,-163.08C628.89,-155.03 650.86,-142.88 667.99,-133.42"/>
<polygon fill="#63b8ff" stroke="#63b8ff" points="669.53,-136.56 676.59,-128.66 666.14,-130.44 669.53,-136.56"/>
</a>
</g>
</g>
<!-- Node22&#45;&gt;Node17 -->
<g id="edge34_Node000022_Node000017" class="edge">
<title>Node22&#45;&gt;Node17</title>
<g id="a_edge34_Node000022_Node000017"><a xlink:title=" ">
<path fill="none" stroke="#63b8ff" d="M452.45,-217.58C453.07,-211.08 453.94,-201.92 454.73,-193.66"/>
<polygon fill="#63b8ff" stroke="#63b8ff" points="458.21,-194.05 455.67,-183.76 451.24,-193.39 458.21,-194.05"/>
</a>
</g>
</g>
<!-- Node23&#45;&gt;Node17 -->
<g id="edge39_Node000023_Node000017" class="edge">
<title>Node23&#45;&gt;Node17</title>
<g id="a_edge39_Node000023_Node000017"><a xlink:title=" ">
<path fill="none" stroke="#63b8ff" d="M390,-272.17C372.8,-260.22 346.89,-237.81 359.62,-218 366.79,-206.86 396.25,-194.35 420.84,-185.48"/>
<polygon fill="#63b8ff" stroke="#63b8ff" points="421.99,-188.79 430.27,-182.18 419.68,-182.18 421.99,-188.79"/>
</a>
</g>
</g>
<!-- Node24 -->
<g id="Node000024" class="node">
<title>Node24</title>
<g id="a_Node000024"><a xlink:href="a01418.html" target="_top" xlink:title=" ">
<polygon fill="white" stroke="#666666" points="307.38,-236.5 217.88,-236.5 217.88,-218 307.38,-218 307.38,-236.5"/>
<text text-anchor="middle" x="262.62" y="-223" font-family="Helvetica,sans-Serif" font-size="10.00">core/arax_proc.h</text>
</a>
</g>
</g>
<!-- Node23&#45;&gt;Node24 -->
<g id="edge36_Node000023_Node000024" class="edge">
<title>Node23&#45;&gt;Node24</title>
<g id="a_edge36_Node000023_Node000024"><a xlink:title=" ">
<path fill="none" stroke="#63b8ff" d="M380.34,-272.08C357.48,-263.57 322.37,-250.49 296.43,-240.84"/>
<polygon fill="#63b8ff" stroke="#63b8ff" points="297.95,-237.67 287.36,-237.46 295.51,-244.23 297.95,-237.67"/>
</a>
</g>
</g>
<!-- Node24&#45;&gt;Node3 -->
<g id="edge37_Node000024_Node000003" class="edge">
<title>Node24&#45;&gt;Node3</title>
<g id="a_edge37_Node000024_Node000003"><a xlink:title=" ">
<path fill="none" stroke="#63b8ff" d="M244.3,-217.58C226.86,-209.34 200.37,-196.81 180.17,-187.25"/>
<polygon fill="#63b8ff" stroke="#63b8ff" points="181.89,-184.19 171.35,-183.08 178.89,-190.52 181.89,-184.19"/>
</a>
</g>
</g>
<!-- Node24&#45;&gt;Node10 -->
<g id="edge38_Node000024_Node000010" class="edge">
<title>Node24&#45;&gt;Node10</title>
<g id="a_edge38_Node000024_Node000010"><a xlink:title=" ">
<path fill="none" stroke="#63b8ff" d="M279.63,-217.58C295.59,-209.45 319.71,-197.15 338.35,-187.65"/>
<polygon fill="#63b8ff" stroke="#63b8ff" points="339.92,-190.78 347.24,-183.12 336.74,-184.54 339.92,-190.78"/>
</a>
</g>
</g>
<!-- Node25&#45;&gt;Node2 -->
<g id="edge41_Node000025_Node000002" class="edge">
<title>Node25&#45;&gt;Node2</title>
<g id="a_edge41_Node000025_Node000002"><a xlink:title=" ">
<path fill="none" stroke="#63b8ff" d="M643.58,-381.08C631.8,-373.25 614.21,-361.57 600.16,-352.23"/>
<polygon fill="#63b8ff" stroke="#63b8ff" points="602.22,-349.39 591.95,-346.77 598.34,-355.22 602.22,-349.39"/>
</a>
</g>
</g>
<!-- Node26&#45;&gt;Node3 -->
<g id="edge43_Node000026_Node000003" class="edge">
<title>Node26&#45;&gt;Node3</title>
<g id="a_edge43_Node000026_Node000003"><a xlink:title=" ">
<path fill="none" stroke="#63b8ff" d="M641.89,-330.13C634.87,-329.08 627.51,-327.99 620.62,-327 423.02,-298.5 331.26,-367.54 180.62,-236.5 167.74,-225.29 160.22,-207.15 156.08,-193.25"/>
<polygon fill="#63b8ff" stroke="#63b8ff" points="159.55,-192.67 153.64,-183.87 152.77,-194.43 159.55,-192.67"/>
</a>
</g>
</g>
<!-- Node26&#45;&gt;Node19 -->
<g id="edge49_Node000026_Node000019" class="edge">
<title>Node26&#45;&gt;Node19</title>
<g id="a_edge49_Node000026_Node000019"><a xlink:title=" ">
<path fill="none" stroke="#63b8ff" d="M658.12,-326.58C641.63,-318.41 616.64,-306.04 597.42,-296.52"/>
<polygon fill="#63b8ff" stroke="#63b8ff" points="599.03,-293.41 588.51,-292.1 595.92,-299.68 599.03,-293.41"/>
</a>
</g>
</g>
<!-- Node26&#45;&gt;Node21 -->
<g id="edge48_Node000026_Node000021" class="edge">
<title>Node26&#45;&gt;Node21</title>
<g id="a_edge48_Node000026_Node000021"><a xlink:title=" ">
<path fill="none" stroke="#63b8ff" d="M676.74,-326.55C678.94,-306.01 681.91,-253.57 660.62,-218 652.99,-205.23 640.09,-195.14 628.03,-187.84"/>
<polygon fill="#63b8ff" stroke="#63b8ff" points="629.99,-184.92 619.55,-183.1 626.57,-191.04 629.99,-184.92"/>
</a>
</g>
</g>
<!-- Node26&#45;&gt;Node23 -->
<g id="edge50_Node000026_Node000023" class="edge">
<title>Node26&#45;&gt;Node23</title>
<g id="a_edge50_Node000026_Node000023"><a xlink:title=" ">
<path fill="none" stroke="#63b8ff" d="M641.73,-328.71C593.06,-319.31 503.31,-301.99 448.98,-291.5"/>
<polygon fill="#63b8ff" stroke="#63b8ff" points="449.92,-288.12 439.44,-289.66 448.59,-294.99 449.92,-288.12"/>
</a>
</g>
</g>
<!-- Node27 -->
<g id="Node000027" class="node">
<title>Node27</title>
<g id="a_Node000027"><a xlink:href="a01370.html" target="_top" xlink:title=" ">
<polygon fill="white" stroke="#666666" points="770.88,-182 714.38,-182 714.38,-163.5 770.88,-163.5 770.88,-182"/>
<text text-anchor="middle" x="742.62" y="-168.5" font-family="Helvetica,sans-Serif" font-size="10.00">utils/Kv.h</text>
</a>
</g>
</g>
<!-- Node26&#45;&gt;Node27 -->
<g id="edge44_Node000026_Node000027" class="edge">
<title>Node26&#45;&gt;Node27</title>
<g id="a_edge44_Node000026_Node000027"><a xlink:title=" ">
<path fill="none" stroke="#63b8ff" d="M695.57,-326.61C709.71,-319.32 727.7,-307.44 736.62,-291 753.35,-260.18 750.31,-217.84 746.51,-193.38"/>
<polygon fill="#63b8ff" stroke="#63b8ff" points="750.02,-193.09 744.82,-183.86 743.12,-194.32 750.02,-193.09"/>
</a>
</g>
</g>
<!-- Node27&#45;&gt;Node5 -->
<g id="edge46_Node000027_Node000005" class="edge">
<title>Node27&#45;&gt;Node5</title>
<g id="a_edge46_Node000027_Node000005"><a xlink:title=" ">
<path fill="none" stroke="#63b8ff" d="M741.68,-163.36C739.93,-150.64 735.21,-126.17 723.62,-109 715.75,-97.33 703.87,-87.23 693.17,-79.63"/>
<polygon fill="#63b8ff" stroke="#63b8ff" points="695.34,-76.87 685.07,-74.23 691.45,-82.69 695.34,-76.87"/>
</a>
</g>
</g>
<!-- Node27&#45;&gt;Node13 -->
<g id="edge47_Node000027_Node000013" class="edge">
<title>Node27&#45;&gt;Node13</title>
<g id="a_edge47_Node000027_Node000013"><a xlink:title=" ">
<path fill="none" stroke="#63b8ff" d="M715.05,-163.08C687.49,-154.42 644.89,-141.03 614.03,-131.32"/>
<polygon fill="#63b8ff" stroke="#63b8ff" points="615.28,-128.05 604.69,-128.39 613.18,-134.72 615.28,-128.05"/>
</a>
</g>
</g>
<!-- Node27&#45;&gt;Node18 -->
<g id="edge45_Node000027_Node000018" class="edge">
<title>Node27&#45;&gt;Node18</title>
<g id="a_edge45_Node000027_Node000018"><a xlink:title=" ">
<path fill="none" stroke="#63b8ff" d="M734.53,-163.08C727.68,-155.74 717.67,-145.01 709.26,-136"/>
<polygon fill="#63b8ff" stroke="#63b8ff" points="711.98,-133.79 702.6,-128.86 706.86,-138.56 711.98,-133.79"/>
</a>
</g>
</g>
<!-- Node28&#45;&gt;Node15 -->
<g id="edge52_Node000028_Node000015" class="edge">
<title>Node28&#45;&gt;Node15</title>
<g id="a_edge52_Node000028_Node000015"><a xlink:title=" ">
<path fill="none" stroke="#63b8ff" d="M862.33,-272.22C857.69,-254.19 847.62,-210.8 847.62,-173.75 847.62,-173.75 847.62,-173.75 847.62,-117.25 847.62,-67.55 790.82,-37.4 750.64,-22.29"/>
<polygon fill="#63b8ff" stroke="#63b8ff" points="751.82,-18.99 741.23,-18.93 749.47,-25.59 751.82,-18.99"/>
</a>
</g>
</g>
<!-- Node31&#45;&gt;Node5 -->
<g id="edge56_Node000031_Node000005" class="edge">
<title>Node31&#45;&gt;Node5</title>
<g id="a_edge56_Node000031_Node000005"><a xlink:title=" ">
<path fill="none" stroke="#63b8ff" d="M792.61,-381.26C784.56,-373.02 773.33,-359.69 768.62,-345.5 766.04,-337.7 767.42,-335.13 768.62,-327 775.36,-281.63 798.62,-274.12 798.62,-228.25 798.62,-228.25 798.62,-228.25 798.62,-171.75 798.62,-122.85 743.12,-92.17 704.65,-76.78"/>
<polygon fill="#63b8ff" stroke="#63b8ff" points="706.31,-73.67 695.72,-73.38 703.82,-80.21 706.31,-73.67"/>
</a>
</g>
</g>
<!-- Node32 -->
<g id="Node000032" class="node">
<title>Node32</title>
<g id="a_Node000032"><a xlink:title=" ">
<polygon fill="#e0e0e0" stroke="#999999" points="843.38,-345.5 777.88,-345.5 777.88,-327 843.38,-327 843.38,-345.5"/>
<text text-anchor="middle" x="810.62" y="-332" font-family="Helvetica,sans-Serif" font-size="10.00">sys/types.h</text>
</a>
</g>
</g>
<!-- Node31&#45;&gt;Node32 -->
<g id="edge57_Node000031_Node000032" class="edge">
<title>Node31&#45;&gt;Node32</title>
<g id="a_edge57_Node000031_Node000032"><a xlink:title=" ">
<path fill="none" stroke="#63b8ff" d="M803.11,-381.08C804.24,-374.51 805.83,-365.21 807.26,-356.87"/>
<polygon fill="#63b8ff" stroke="#63b8ff" points="810.67,-357.7 808.91,-347.25 803.77,-356.51 810.67,-357.7"/>
</a>
</g>
</g>
</g>
</svg>
