<?xml version="1.0" encoding="UTF-8" standalone="no"?>
<!DOCTYPE svg PUBLIC "-//W3C//DTD SVG 1.1//EN"
 "http://www.w3.org/Graphics/SVG/1.1/DTD/svg11.dtd">
<!-- Generated by graphviz version 12.2.1 (0)
 -->
<!-- Title: arax_data_stat Pages: 1 -->
<svg width="212pt" height="64pt"
 viewBox="0.00 0.00 211.75 63.50" xmlns="http://www.w3.org/2000/svg" xmlns:xlink="http://www.w3.org/1999/xlink">
<g id="graph0" class="graph" transform="scale(1 1) rotate(0) translate(4 59.5)">
<title>arax_data_stat</title>
<!-- Node1 -->
<g id="Node000001" class="node">
<title>Node1</title>
<g id="a_Node000001"><a xlink:title=" ">
<polygon fill="#999999" stroke="#666666" points="81.25,-36.5 0,-36.5 0,-18 81.25,-18 81.25,-36.5"/>
<text text-anchor="middle" x="40.62" y="-23" font-family="Helvetica,sans-Serif" font-size="10.00">arax_data_stat</text>
</a>
</g>
</g>
<!-- Node2 -->
<g id="Node000002" class="node">
<title>Node2</title>
<g id="a_Node000002"><a xlink:href="a01922.html#a1c74d47b5c2c866aa3a61bec0dde4e0d" target="_top" xlink:title=" ">
<polygon fill="white" stroke="#666666" points="203.75,-55.5 117.25,-55.5 117.25,-37 203.75,-37 203.75,-55.5"/>
<text text-anchor="middle" x="160.5" y="-42" font-family="Helvetica,sans-Serif" font-size="10.00">arax_data_deref</text>
</a>
</g>
</g>
<!-- Node1&#45;&gt;Node2 -->
<g id="edge1_Node000001_Node000002" class="edge">
<title>Node1&#45;&gt;Node2</title>
<g id="a_edge1_Node000001_Node000002"><a xlink:title=" ">
<path fill="none" stroke="#63b8ff" d="M81.53,-33.68C89.25,-34.93 97.45,-36.25 105.53,-37.55"/>
<polygon fill="#63b8ff" stroke="#63b8ff" points="104.89,-40.99 115.31,-39.13 106,-34.08 104.89,-40.99"/>
</a>
</g>
</g>
<!-- Node3 -->
<g id="Node000003" class="node">
<title>Node3</title>
<g id="a_Node000003"><a xlink:href="a01922.html#a369e660e3e344bc697d98174059ead3c" target="_top" xlink:title=" ">
<polygon fill="white" stroke="#666666" points="201.5,-18.5 119.5,-18.5 119.5,0 201.5,0 201.5,-18.5"/>
<text text-anchor="middle" x="160.5" y="-5" font-family="Helvetica,sans-Serif" font-size="10.00">arax_data_size</text>
</a>
</g>
</g>
<!-- Node1&#45;&gt;Node3 -->
<g id="edge2_Node000001_Node000003" class="edge">
<title>Node1&#45;&gt;Node3</title>
<g id="a_edge2_Node000001_Node000003"><a xlink:title=" ">
<path fill="none" stroke="#63b8ff" d="M81.53,-21.16C90.08,-19.85 99.22,-18.45 108.13,-17.09"/>
<polygon fill="#63b8ff" stroke="#63b8ff" points="108.38,-20.6 117.74,-15.63 107.32,-13.68 108.38,-20.6"/>
</a>
</g>
</g>
</g>
</svg>
