<?xml version="1.0" encoding="UTF-8" standalone="no"?>
<!DOCTYPE svg PUBLIC "-//W3C//DTD SVG 1.1//EN"
 "http://www.w3.org/Graphics/SVG/1.1/DTD/svg11.dtd">
<!-- Generated by graphviz version 12.2.1 (0)
 -->
<!-- Title: utils_list_node_linked Pages: 1 -->
<svg width="773pt" height="101pt"
 viewBox="0.00 0.00 772.75 100.50" xmlns="http://www.w3.org/2000/svg" xmlns:xlink="http://www.w3.org/1999/xlink">
<g id="graph0" class="graph" transform="scale(1 1) rotate(0) translate(4 96.5)">
<title>utils_list_node_linked</title>
<!-- Node1 -->
<g id="Node000001" class="node">
<title>Node1</title>
<g id="a_Node000001"><a xlink:title=" ">
<polygon fill="#999999" stroke="#666666" points="764.75,-55.5 656.5,-55.5 656.5,-37 764.75,-37 764.75,-55.5"/>
<text text-anchor="middle" x="710.62" y="-42" font-family="Helvetica,sans-Serif" font-size="10.00">utils_list_node_linked</text>
</a>
</g>
</g>
<!-- Node2 -->
<g id="Node000002" class="node">
<title>Node2</title>
<g id="a_Node000002"><a xlink:href="a01928.html#aa5172b735dddd3f77fbb0265bbcdfc20" target="_top" xlink:title=" ">
<polygon fill="white" stroke="#666666" points="620.5,-60.75 489.75,-60.75 489.75,-31.75 620.5,-31.75 620.5,-60.75"/>
<text text-anchor="start" x="497.75" y="-47.25" font-family="Helvetica,sans-Serif" font-size="10.00">arax_pipe_remove_orphan</text>
<text text-anchor="middle" x="555.12" y="-36.75" font-family="Helvetica,sans-Serif" font-size="10.00">_vaccel</text>
</a>
</g>
</g>
<!-- Node1&#45;&gt;Node2 -->
<g id="edge1_Node000001_Node000002" class="edge">
<title>Node1&#45;&gt;Node2</title>
<g id="a_edge1_Node000001_Node000002"><a xlink:title=" ">
<path fill="none" stroke="#63b8ff" d="M644.91,-46.25C636.97,-46.25 628.86,-46.25 620.93,-46.25"/>
<polygon fill="#63b8ff" stroke="#63b8ff" points="644.86,-49.75 654.86,-46.25 644.86,-42.75 644.86,-49.75"/>
</a>
</g>
</g>
<!-- Node3 -->
<g id="Node000003" class="node">
<title>Node3</title>
<g id="a_Node000003"><a xlink:href="a01916.html#af0b933c02a24d69c1efa40179f60288f" target="_top" xlink:title=" ">
<polygon fill="white" stroke="#666666" points="446.62,-74.5 328.62,-74.5 328.62,-56 446.62,-56 446.62,-74.5"/>
<text text-anchor="middle" x="387.62" y="-61" font-family="Helvetica,sans-Serif" font-size="10.00">arax_accel_add_vaccel</text>
</a>
</g>
</g>
<!-- Node2&#45;&gt;Node3 -->
<g id="edge2_Node000002_Node000003" class="edge">
<title>Node2&#45;&gt;Node3</title>
<g id="a_edge2_Node000002_Node000003"><a xlink:title=" ">
<path fill="none" stroke="#63b8ff" d="M478.33,-54.95C467.8,-56.16 457.12,-57.39 446.97,-58.55"/>
<polygon fill="#63b8ff" stroke="#63b8ff" points="478.63,-58.44 488.16,-53.82 477.83,-51.49 478.63,-58.44"/>
</a>
</g>
</g>
<!-- Node9 -->
<g id="Node000009" class="node">
<title>Node9</title>
<g id="a_Node000009"><a xlink:href="a01943.html#a5920cc4cd90589f3c5ac8686a72bcfc0" target="_top" xlink:title=" ">
<polygon fill="white" stroke="#666666" points="453.75,-37.5 321.5,-37.5 321.5,-19 453.75,-19 453.75,-37.5"/>
<text text-anchor="middle" x="387.62" y="-24" font-family="Helvetica,sans-Serif" font-size="10.00">ARAX_OBJ_DTOR_DECL</text>
</a>
</g>
</g>
<!-- Node2&#45;&gt;Node9 -->
<g id="edge8_Node000002_Node000009" class="edge">
<title>Node2&#45;&gt;Node9</title>
<g id="a_edge8_Node000002_Node000009"><a xlink:title=" ">
<path fill="none" stroke="#63b8ff" d="M478.29,-38C470.18,-37.12 461.98,-36.23 454,-35.36"/>
<polygon fill="#63b8ff" stroke="#63b8ff" points="477.84,-41.47 488.16,-39.08 478.6,-34.51 477.84,-41.47"/>
</a>
</g>
</g>
<!-- Node4 -->
<g id="Node000004" class="node">
<title>Node4</title>
<g id="a_Node000004"><a xlink:href="a02187.html#ga30b30e50de286842c7942a7e3e163578" target="_top" xlink:title=" ">
<polygon fill="white" stroke="#666666" points="285.5,-92.5 162.25,-92.5 162.25,-74 285.5,-74 285.5,-92.5"/>
<text text-anchor="middle" x="223.88" y="-79" font-family="Helvetica,sans-Serif" font-size="10.00">arax_accel_set_physical</text>
</a>
</g>
</g>
<!-- Node3&#45;&gt;Node4 -->
<g id="edge3_Node000003_Node000004" class="edge">
<title>Node3&#45;&gt;Node4</title>
<g id="a_edge3_Node000003_Node000004"><a xlink:title=" ">
<path fill="none" stroke="#63b8ff" d="M317.1,-72.99C306.73,-74.14 296.09,-75.32 285.91,-76.46"/>
<polygon fill="#63b8ff" stroke="#63b8ff" points="317.17,-76.5 326.73,-71.92 316.4,-69.54 317.17,-76.5"/>
</a>
</g>
</g>
<!-- Node5 -->
<g id="Node000005" class="node">
<title>Node5</title>
<g id="a_Node000005"><a xlink:href="a01943.html#a83ddb422946cf774c687c1ab63dcda15" target="_top" xlink:title=" ">
<polygon fill="white" stroke="#666666" points="267.12,-55.5 180.62,-55.5 180.62,-37 267.12,-37 267.12,-55.5"/>
<text text-anchor="middle" x="223.88" y="-42" font-family="Helvetica,sans-Serif" font-size="10.00">arax_vaccel_init</text>
</a>
</g>
</g>
<!-- Node3&#45;&gt;Node5 -->
<g id="edge4_Node000003_Node000005" class="edge">
<title>Node3&#45;&gt;Node5</title>
<g id="a_edge4_Node000003_Node000005"><a xlink:title=" ">
<path fill="none" stroke="#63b8ff" d="M317.24,-57.1C300.31,-55.11 282.7,-53.04 267.45,-51.25"/>
<polygon fill="#63b8ff" stroke="#63b8ff" points="316.39,-60.52 326.73,-58.21 317.2,-53.57 316.39,-60.52"/>
</a>
</g>
</g>
<!-- Node6 -->
<g id="Node000006" class="node">
<title>Node6</title>
<g id="a_Node000006"><a xlink:href="a02187.html#gaf8a10ab4e51e59c464ab3ab473e4a0f7" target="_top" xlink:title=" ">
<polygon fill="white" stroke="#666666" points="126.25,-92.5 0,-92.5 0,-74 126.25,-74 126.25,-92.5"/>
<text text-anchor="middle" x="63.12" y="-79" font-family="Helvetica,sans-Serif" font-size="10.00">arax_accel_acquire_phys</text>
</a>
</g>
</g>
<!-- Node5&#45;&gt;Node6 -->
<g id="edge5_Node000005_Node000006" class="edge">
<title>Node5&#45;&gt;Node6</title>
<g id="a_edge5_Node000005_Node000006"><a xlink:title=" ">
<path fill="none" stroke="#63b8ff" d="M170.19,-58.53C149.26,-63.41 125.53,-68.94 105.83,-73.53"/>
<polygon fill="#63b8ff" stroke="#63b8ff" points="170.75,-61.99 179.69,-56.31 169.16,-55.18 170.75,-61.99"/>
</a>
</g>
</g>
<!-- Node7 -->
<g id="Node000007" class="node">
<title>Node7</title>
<g id="a_Node000007"><a xlink:href="a02187.html#ga008252bb9afc2990fa2c5f4b980c9f27" target="_top" xlink:title=" ">
<polygon fill="white" stroke="#666666" points="125.5,-55.5 0.75,-55.5 0.75,-37 125.5,-37 125.5,-55.5"/>
<text text-anchor="middle" x="63.12" y="-42" font-family="Helvetica,sans-Serif" font-size="10.00">arax_accel_acquire_type</text>
</a>
</g>
</g>
<!-- Node5&#45;&gt;Node7 -->
<g id="edge6_Node000005_Node000007" class="edge">
<title>Node5&#45;&gt;Node7</title>
<g id="a_edge6_Node000005_Node000007"><a xlink:title=" ">
<path fill="none" stroke="#63b8ff" d="M169,-46.25C155.14,-46.25 140.12,-46.25 125.89,-46.25"/>
<polygon fill="#63b8ff" stroke="#63b8ff" points="168.82,-49.75 178.82,-46.25 168.82,-42.75 168.82,-49.75"/>
</a>
</g>
</g>
<!-- Node8 -->
<g id="Node000008" class="node">
<title>Node8</title>
<g id="a_Node000008"><a xlink:href="a01916.html#a0706a66a62ca8710342ac1c097b703ed" target="_top" xlink:title=" ">
<polygon fill="white" stroke="#666666" points="104.12,-18.5 22.12,-18.5 22.12,0 104.12,0 104.12,-18.5"/>
<text text-anchor="middle" x="63.12" y="-5" font-family="Helvetica,sans-Serif" font-size="10.00">arax_accel_init</text>
</a>
</g>
</g>
<!-- Node5&#45;&gt;Node8 -->
<g id="edge7_Node000005_Node000008" class="edge">
<title>Node5&#45;&gt;Node8</title>
<g id="a_edge7_Node000005_Node000008"><a xlink:title=" ">
<path fill="none" stroke="#63b8ff" d="M169.97,-33.92C148.61,-28.94 124.35,-23.29 104.46,-18.65"/>
<polygon fill="#63b8ff" stroke="#63b8ff" points="169.16,-37.32 179.69,-36.19 170.75,-30.51 169.16,-37.32"/>
</a>
</g>
</g>
</g>
</svg>
