<?xml version="1.0" encoding="UTF-8" standalone="no"?>
<!DOCTYPE svg PUBLIC "-//W3C//DTD SVG 1.1//EN"
 "http://www.w3.org/Graphics/SVG/1.1/DTD/svg11.dtd">
<!-- Generated by graphviz version 12.2.1 (0)
 -->
<!-- Title: add_segment Pages: 1 -->
<svg width="262pt" height="27pt"
 viewBox="0.00 0.00 262.25 26.50" xmlns="http://www.w3.org/2000/svg" xmlns:xlink="http://www.w3.org/1999/xlink">
<g id="graph0" class="graph" transform="scale(1 1) rotate(0) translate(4 22.5)">
<title>add_segment</title>
<!-- Node1 -->
<g id="Node000001" class="node">
<title>Node1</title>
<g id="a_Node000001"><a xlink:title=" ">
<polygon fill="#999999" stroke="#666666" points="254.25,-18.5 179.75,-18.5 179.75,0 254.25,0 254.25,-18.5"/>
<text text-anchor="middle" x="217" y="-5" font-family="Helvetica,sans-Serif" font-size="10.00">add_segment</text>
</a>
</g>
</g>
<!-- Node2 -->
<g id="Node000002" class="node">
<title>Node2</title>
<g id="a_Node000002"><a xlink:href="a01901.html#a726dbaacf5aca0a8435e3ce4d44844f4" target="_top" xlink:title=" ">
<polygon fill="white" stroke="#666666" points="143.75,-18.5 88,-18.5 88,0 143.75,0 143.75,-18.5"/>
<text text-anchor="middle" x="115.88" y="-5" font-family="Helvetica,sans-Serif" font-size="10.00">sys_alloc</text>
</a>
</g>
</g>
<!-- Node1&#45;&gt;Node2 -->
<g id="edge1_Node000001_Node000002" class="edge">
<title>Node1&#45;&gt;Node2</title>
<g id="a_edge1_Node000001_Node000002"><a xlink:title=" ">
<path fill="none" stroke="#63b8ff" d="M167.91,-9.25C159.72,-9.25 151.46,-9.25 144.06,-9.25"/>
<polygon fill="#63b8ff" stroke="#63b8ff" points="167.86,-12.75 177.86,-9.25 167.86,-5.75 167.86,-12.75"/>
</a>
</g>
</g>
<!-- Node3 -->
<g id="Node000003" class="node">
<title>Node3</title>
<g id="a_Node000003"><a xlink:href="a01901.html#a018ffd885ac72f4cb8ac0f972f6b4900" target="_top" xlink:title=" ">
<polygon fill="white" stroke="#666666" points="52,-18.5 0,-18.5 0,0 52,0 52,-18.5"/>
<text text-anchor="middle" x="26" y="-5" font-family="Helvetica,sans-Serif" font-size="10.00">dlmalloc</text>
</a>
</g>
</g>
<!-- Node2&#45;&gt;Node3 -->
<g id="edge2_Node000002_Node000003" class="edge">
<title>Node2&#45;&gt;Node3</title>
<g id="a_edge2_Node000002_Node000003"><a xlink:title=" ">
<path fill="none" stroke="#63b8ff" d="M76.3,-9.25C68.14,-9.25 59.72,-9.25 52.21,-9.25"/>
<polygon fill="#63b8ff" stroke="#63b8ff" points="76.04,-12.75 86.04,-9.25 76.04,-5.75 76.04,-12.75"/>
</a>
</g>
</g>
</g>
</svg>
