<?xml version="1.0" encoding="UTF-8" standalone="no"?>
<!DOCTYPE svg PUBLIC "-//W3C//DTD SVG 1.1//EN"
 "http://www.w3.org/Graphics/SVG/1.1/DTD/svg11.dtd">
<!-- Generated by graphviz version 11.0.0 (0)
 -->
<!-- Title: arax_vaccel_init Pages: 1 -->
<svg width="886pt" height="414pt"
 viewBox="0.00 0.00 886.25 413.50" xmlns="http://www.w3.org/2000/svg" xmlns:xlink="http://www.w3.org/1999/xlink">
<g id="graph0" class="graph" transform="scale(1 1) rotate(0) translate(4 409.5)">
<title>arax_vaccel_init</title>
<!-- Node1 -->
<g id="Node000001" class="node">
<title>Node1</title>
<g id="a_Node000001"><a xlink:title=" ">
<polygon fill="#999999" stroke="#666666" points="86.5,-92.5 0,-92.5 0,-74 86.5,-74 86.5,-92.5"/>
<text text-anchor="middle" x="43.25" y="-79" font-family="Helvetica,sans-Serif" font-size="10.00">arax_vaccel_init</text>
</a>
</g>
</g>
<!-- Node2 -->
<g id="Node000002" class="node">
<title>Node2</title>
<g id="a_Node000002"><a xlink:href="a01919.html#af0b933c02a24d69c1efa40179f60288f" target="_top" xlink:title=" ">
<polygon fill="white" stroke="#666666" points="381,-264.5 263,-264.5 263,-246 381,-246 381,-264.5"/>
<text text-anchor="middle" x="322" y="-251" font-family="Helvetica,sans-Serif" font-size="10.00">arax_accel_add_vaccel</text>
</a>
</g>
</g>
<!-- Node1&#45;&gt;Node2 -->
<g id="edge1_Node000001_Node000002" class="edge">
<title>Node1&#45;&gt;Node2</title>
<g id="a_edge1_Node000001_Node000002"><a xlink:title=" ">
<path fill="none" stroke="#63b8ff" d="M58.88,-92.97C74.53,-103.33 100.14,-120.15 122.5,-134.25 183.82,-172.91 256.81,-216.89 294.91,-239.69"/>
<polygon fill="#63b8ff" stroke="#63b8ff" points="293.01,-242.63 303.39,-244.76 296.6,-236.62 293.01,-242.63"/>
</a>
</g>
</g>
<!-- Node18 -->
<g id="Node000018" class="node">
<title>Node18</title>
<g id="a_Node000018"><a xlink:href="a01928.html#a402bbd6fa197c2c48d527325e5e2cf5b" target="_top" xlink:title=" ">
<polygon fill="white" stroke="#666666" points="227,-92.5 122.5,-92.5 122.5,-74 227,-74 227,-92.5"/>
<text text-anchor="middle" x="174.75" y="-79" font-family="Helvetica,sans-Serif" font-size="10.00">arax_object_register</text>
</a>
</g>
</g>
<!-- Node1&#45;&gt;Node18 -->
<g id="edge19_Node000001_Node000018" class="edge">
<title>Node1&#45;&gt;Node18</title>
<g id="a_edge19_Node000001_Node000018"><a xlink:title=" ">
<path fill="none" stroke="#63b8ff" d="M86.65,-83.25C94.37,-83.25 102.58,-83.25 110.75,-83.25"/>
<polygon fill="#63b8ff" stroke="#63b8ff" points="110.7,-86.75 120.7,-83.25 110.7,-79.75 110.7,-86.75"/>
</a>
</g>
</g>
<!-- Node24 -->
<g id="Node000024" class="node">
<title>Node24</title>
<g id="a_Node000024"><a xlink:href="a01958.html#a63f2791c9b5c8e2fa15967cfafb7ccbb" target="_top" xlink:title=" ">
<polygon fill="white" stroke="#666666" points="370.12,-18.5 273.88,-18.5 273.88,0 370.12,0 370.12,-18.5"/>
<text text-anchor="middle" x="322" y="-5" font-family="Helvetica,sans-Serif" font-size="10.00">utils_list_node_init</text>
</a>
</g>
</g>
<!-- Node1&#45;&gt;Node24 -->
<g id="edge36_Node000001_Node000024" class="edge">
<title>Node1&#45;&gt;Node24</title>
<g id="a_edge36_Node000001_Node000024"><a xlink:title=" ">
<path fill="none" stroke="#63b8ff" d="M80.43,-73.58C130.05,-60.31 219.28,-36.45 274.01,-21.81"/>
<polygon fill="#63b8ff" stroke="#63b8ff" points="274.59,-25.28 283.35,-19.32 272.78,-18.52 274.59,-25.28"/>
</a>
</g>
</g>
<!-- Node25 -->
<g id="Node000025" class="node">
<title>Node25</title>
<g id="a_Node000025"><a xlink:href="a01931.html#aa4461ab1d225a0f76f08d2f37a4a7e0e" target="_top" xlink:title=" ">
<polygon fill="white" stroke="#666666" points="379.5,-176.75 264.5,-176.75 264.5,-147.75 379.5,-147.75 379.5,-176.75"/>
<text text-anchor="start" x="272.5" y="-163.25" font-family="Helvetica,sans-Serif" font-size="10.00">arax_pipe_add_orphan</text>
<text text-anchor="middle" x="322" y="-152.75" font-family="Helvetica,sans-Serif" font-size="10.00">_vaccel</text>
</a>
</g>
</g>
<!-- Node1&#45;&gt;Node25 -->
<g id="edge31_Node000001_Node000025" class="edge">
<title>Node1&#45;&gt;Node25</title>
<g id="a_edge31_Node000001_Node000025"><a xlink:title=" ">
<path fill="none" stroke="#63b8ff" d="M78.18,-92.94C122.77,-105.66 201.94,-128.26 257.74,-144.19"/>
<polygon fill="#63b8ff" stroke="#63b8ff" points="256.54,-147.49 267.11,-146.87 258.46,-140.76 256.54,-147.49"/>
</a>
</g>
</g>
<!-- Node26 -->
<g id="Node000026" class="node">
<title>Node26</title>
<g id="a_Node000026"><a xlink:href="a01961.html#a49c353188156b1df4463a5fc7f7bc25e" target="_top" xlink:title=" ">
<polygon fill="white" stroke="#666666" points="216.5,-18.5 133,-18.5 133,0 216.5,0 216.5,-18.5"/>
<text text-anchor="middle" x="174.75" y="-5" font-family="Helvetica,sans-Serif" font-size="10.00">utils_queue_init</text>
</a>
</g>
</g>
<!-- Node1&#45;&gt;Node26 -->
<g id="edge37_Node000001_Node000026" class="edge">
<title>Node1&#45;&gt;Node26</title>
<g id="a_edge37_Node000001_Node000026"><a xlink:title=" ">
<path fill="none" stroke="#63b8ff" d="M57.7,-73.55C72.99,-62.76 98.87,-45.15 122.5,-32.25 128.01,-29.24 133.99,-26.29 139.86,-23.56"/>
<polygon fill="#63b8ff" stroke="#63b8ff" points="141.1,-26.84 148.78,-19.54 138.23,-20.46 141.1,-26.84"/>
</a>
</g>
</g>
<!-- Node3 -->
<g id="Node000003" class="node">
<title>Node3</title>
<g id="a_Node000003"><a xlink:href="a01919.html#aed864d2fab73a39a8c98356f7bca1304" target="_top" xlink:title=" ">
<polygon fill="white" stroke="#666666" points="542.88,-405.5 421.88,-405.5 421.88,-387 542.88,-387 542.88,-405.5"/>
<text text-anchor="middle" x="482.38" y="-392" font-family="Helvetica,sans-Serif" font-size="10.00">arax_accel_inc_revision</text>
</a>
</g>
</g>
<!-- Node2&#45;&gt;Node3 -->
<g id="edge2_Node000002_Node000003" class="edge">
<title>Node2&#45;&gt;Node3</title>
<g id="a_edge2_Node000002_Node000003"><a xlink:title=" ">
<path fill="none" stroke="#63b8ff" d="M327.66,-264.83C339.35,-287.83 372.22,-346.57 417,-377.25 419.53,-378.98 422.21,-380.56 425,-381.99"/>
<polygon fill="#63b8ff" stroke="#63b8ff" points="423.48,-385.14 434.04,-385.98 426.3,-378.74 423.48,-385.14"/>
</a>
</g>
</g>
<!-- Node4 -->
<g id="Node000004" class="node">
<title>Node4</title>
<g id="a_Node000004"><a xlink:href="a01931.html#aa5172b735dddd3f77fbb0265bbcdfc20" target="_top" xlink:title=" ">
<polygon fill="white" stroke="#666666" points="547.75,-331.75 417,-331.75 417,-302.75 547.75,-302.75 547.75,-331.75"/>
<text text-anchor="start" x="425" y="-318.25" font-family="Helvetica,sans-Serif" font-size="10.00">arax_pipe_remove_orphan</text>
<text text-anchor="middle" x="482.38" y="-307.75" font-family="Helvetica,sans-Serif" font-size="10.00">_vaccel</text>
</a>
</g>
</g>
<!-- Node2&#45;&gt;Node4 -->
<g id="edge3_Node000002_Node000004" class="edge">
<title>Node2&#45;&gt;Node4</title>
<g id="a_edge3_Node000002_Node000004"><a xlink:title=" ">
<path fill="none" stroke="#63b8ff" d="M347.75,-264.94C370.43,-273.82 404.65,-287.22 432.79,-298.23"/>
<polygon fill="#63b8ff" stroke="#63b8ff" points="431.24,-301.38 441.83,-301.77 433.79,-294.86 431.24,-301.38"/>
</a>
</g>
</g>
<!-- Node5 -->
<g id="Node000005" class="node">
<title>Node5</title>
<g id="a_Node000005"><a xlink:href="a02367.html#aed6af4d83e934e3e654ead541b15f2d9" target="_top" xlink:title=" ">
<polygon fill="white" stroke="#666666" points="698,-171.5 589,-171.5 589,-153 698,-153 698,-171.5"/>
<text text-anchor="middle" x="643.5" y="-158" font-family="Helvetica,sans-Serif" font-size="10.00">async_condition_lock</text>
</a>
</g>
</g>
<!-- Node2&#45;&gt;Node5 -->
<g id="edge13_Node000002_Node000005" class="edge">
<title>Node2&#45;&gt;Node5</title>
<g id="a_edge13_Node000002_Node000005"><a xlink:title=" ">
<path fill="none" stroke="#63b8ff" d="M367.6,-264.96C414.4,-272.97 489.17,-279.51 547.75,-255.25 568.66,-246.59 567.63,-235.13 583.75,-219.25 597.3,-205.9 612.75,-190.92 624.4,-179.67"/>
<polygon fill="#63b8ff" stroke="#63b8ff" points="626.62,-182.4 631.39,-172.94 621.76,-177.36 626.62,-182.4"/>
</a>
</g>
</g>
<!-- Node7 -->
<g id="Node000007" class="node">
<title>Node7</title>
<g id="a_Node000007"><a xlink:href="a02367.html#a3bbcb7c4c024e99d5c4ba52b61dfbbf7" target="_top" xlink:title=" ">
<polygon fill="white" stroke="#666666" points="703.25,-134.5 583.75,-134.5 583.75,-116 703.25,-116 703.25,-134.5"/>
<text text-anchor="middle" x="643.5" y="-121" font-family="Helvetica,sans-Serif" font-size="10.00">async_condition_unlock</text>
</a>
</g>
</g>
<!-- Node2&#45;&gt;Node7 -->
<g id="edge16_Node000002_Node000007" class="edge">
<title>Node2&#45;&gt;Node7</title>
<g id="a_edge16_Node000002_Node000007"><a xlink:title=" ">
<path fill="none" stroke="#63b8ff" d="M345.09,-245.55C399.07,-221.87 536.74,-161.82 583.75,-144.25 588.88,-142.33 594.3,-140.43 599.69,-138.6"/>
<polygon fill="#63b8ff" stroke="#63b8ff" points="600.78,-141.93 609.17,-135.46 598.58,-135.28 600.78,-141.93"/>
</a>
</g>
</g>
<!-- Node11 -->
<g id="Node000011" class="node">
<title>Node11</title>
<g id="a_Node000011"><a xlink:href="a01946.html#ab2fa3d6e6c761009b464cc0fbedc6a16" target="_top" xlink:title=" ">
<polygon fill="white" stroke="#666666" points="543.62,-368.5 421.12,-368.5 421.12,-350 543.62,-350 543.62,-368.5"/>
<text text-anchor="middle" x="482.38" y="-355" font-family="Helvetica,sans-Serif" font-size="10.00">arax_vaccel_queue_size</text>
</a>
</g>
</g>
<!-- Node2&#45;&gt;Node11 -->
<g id="edge10_Node000002_Node000011" class="edge">
<title>Node2&#45;&gt;Node11</title>
<g id="a_edge10_Node000002_Node000011"><a xlink:title=" ">
<path fill="none" stroke="#63b8ff" d="M330.73,-264.82C345.56,-282.57 379.87,-320.64 417,-341.25 419.81,-342.81 422.76,-344.24 425.79,-345.55"/>
<polygon fill="#63b8ff" stroke="#63b8ff" points="424.31,-348.74 434.9,-349.04 426.81,-342.2 424.31,-348.74"/>
</a>
</g>
</g>
<!-- Node14 -->
<g id="Node000014" class="node">
<title>Node14</title>
<g id="a_Node000014"><a xlink:href="a02367.html#a45a896fb606c2aa66a5a4c2af59ce494" target="_top" xlink:title=" ">
<polygon fill="white" stroke="#666666" points="539.88,-246.5 424.88,-246.5 424.88,-228 539.88,-228 539.88,-246.5"/>
<text text-anchor="middle" x="482.38" y="-233" font-family="Helvetica,sans-Serif" font-size="10.00">async_condition_notify</text>
</a>
</g>
</g>
<!-- Node2&#45;&gt;Node14 -->
<g id="edge14_Node000002_Node000014" class="edge">
<title>Node2&#45;&gt;Node14</title>
<g id="a_edge14_Node000002_Node000014"><a xlink:title=" ">
<path fill="none" stroke="#63b8ff" d="M381.07,-248.65C391.62,-247.45 402.71,-246.19 413.51,-244.96"/>
<polygon fill="#63b8ff" stroke="#63b8ff" points="413.58,-248.48 423.13,-243.87 412.79,-241.52 413.58,-248.48"/>
</a>
</g>
</g>
<!-- Node16 -->
<g id="Node000016" class="node">
<title>Node16</title>
<g id="a_Node000016"><a xlink:href="a01958.html#ae06a9e78e6a4f6c9c8afcf0f4862ce29" target="_top" xlink:title=" ">
<polygon fill="white" stroke="#666666" points="518.88,-59.5 445.88,-59.5 445.88,-41 518.88,-41 518.88,-59.5"/>
<text text-anchor="middle" x="482.38" y="-46" font-family="Helvetica,sans-Serif" font-size="10.00">utils_list_add</text>
</a>
</g>
</g>
<!-- Node2&#45;&gt;Node16 -->
<g id="edge17_Node000002_Node000016" class="edge">
<title>Node2&#45;&gt;Node16</title>
<g id="a_edge17_Node000002_Node000016"><a xlink:title=" ">
<path fill="none" stroke="#63b8ff" d="M333.03,-245.91C345.86,-233.45 367.98,-210.16 381,-186.25 407.02,-138.47 378.31,-107.5 417,-69.25 422.06,-64.25 428.36,-60.55 435.03,-57.83"/>
<polygon fill="#63b8ff" stroke="#63b8ff" points="435.87,-61.24 444.25,-54.76 433.66,-54.59 435.87,-61.24"/>
</a>
</g>
</g>
<!-- Node4&#45;&gt;Node5 -->
<g id="edge4_Node000004_Node000005" class="edge">
<title>Node4&#45;&gt;Node5</title>
<g id="a_edge4_Node000004_Node000005"><a xlink:title=" ">
<path fill="none" stroke="#63b8ff" d="M527.06,-302.39C534.52,-298.56 541.78,-293.89 547.75,-288.25 572.9,-264.51 563.07,-246.98 583.75,-219.25 594.85,-204.36 609.93,-189.82 622.03,-179.15"/>
<polygon fill="#63b8ff" stroke="#63b8ff" points="624.13,-181.96 629.44,-172.79 619.57,-176.65 624.13,-181.96"/>
</a>
</g>
</g>
<!-- Node4&#45;&gt;Node7 -->
<g id="edge6_Node000004_Node000007" class="edge">
<title>Node4&#45;&gt;Node7</title>
<g id="a_edge6_Node000004_Node000007"><a xlink:title=" ">
<path fill="none" stroke="#63b8ff" d="M503.35,-302.43C517.54,-290.96 536.07,-273.93 547.75,-255.25 575.25,-211.28 547.06,-180.91 583.75,-144.25 584.93,-143.07 586.19,-141.96 587.51,-140.91"/>
<polygon fill="#63b8ff" stroke="#63b8ff" points="589.06,-144.08 595.68,-135.8 585.35,-138.14 589.06,-144.08"/>
</a>
</g>
</g>
<!-- Node9 -->
<g id="Node000009" class="node">
<title>Node9</title>
<g id="a_Node000009"><a xlink:href="a01958.html#a0c85e5516222ab7e7fc354c614760ec5" target="_top" xlink:title=" ">
<polygon fill="white" stroke="#666666" points="678.5,-290.5 608.5,-290.5 608.5,-272 678.5,-272 678.5,-290.5"/>
<text text-anchor="middle" x="643.5" y="-277" font-family="Helvetica,sans-Serif" font-size="10.00">utils_list_del</text>
</a>
</g>
</g>
<!-- Node4&#45;&gt;Node9 -->
<g id="edge8_Node000004_Node000009" class="edge">
<title>Node4&#45;&gt;Node9</title>
<g id="a_edge8_Node000004_Node000009"><a xlink:title=" ">
<path fill="none" stroke="#63b8ff" d="M548.1,-302.61C564.55,-298.88 581.89,-294.96 597.15,-291.51"/>
<polygon fill="#63b8ff" stroke="#63b8ff" points="597.91,-294.93 606.89,-289.31 596.36,-288.1 597.91,-294.93"/>
</a>
</g>
</g>
<!-- Node10 -->
<g id="Node000010" class="node">
<title>Node10</title>
<g id="a_Node000010"><a xlink:href="a01958.html#ab0c44e095ebfd8721de878c42abcbbdc" target="_top" xlink:title=" ">
<polygon fill="white" stroke="#666666" points="697.62,-327.5 589.38,-327.5 589.38,-309 697.62,-309 697.62,-327.5"/>
<text text-anchor="middle" x="643.5" y="-314" font-family="Helvetica,sans-Serif" font-size="10.00">utils_list_node_linked</text>
</a>
</g>
</g>
<!-- Node4&#45;&gt;Node10 -->
<g id="edge9_Node000004_Node000010" class="edge">
<title>Node4&#45;&gt;Node10</title>
<g id="a_edge9_Node000004_Node000010"><a xlink:title=" ">
<path fill="none" stroke="#63b8ff" d="M548.1,-317.66C557.87,-317.72 567.95,-317.78 577.72,-317.84"/>
<polygon fill="#63b8ff" stroke="#63b8ff" points="577.48,-321.34 587.5,-317.9 577.52,-314.34 577.48,-321.34"/>
</a>
</g>
</g>
<!-- Node6 -->
<g id="Node000006" class="node">
<title>Node6</title>
<g id="a_Node000006"><a xlink:href="a02361.html#aebf9e72bb6cbd8b9e33489d46c25075d" target="_top" xlink:title=" ">
<polygon fill="white" stroke="#666666" points="867,-171.5 750.5,-171.5 750.5,-153 867,-153 867,-171.5"/>
<text text-anchor="middle" x="808.75" y="-158" font-family="Helvetica,sans-Serif" font-size="10.00">async_completion_wait</text>
</a>
</g>
</g>
<!-- Node5&#45;&gt;Node6 -->
<g id="edge5_Node000005_Node000006" class="edge">
<title>Node5&#45;&gt;Node6</title>
<g id="a_edge5_Node000005_Node000006"><a xlink:title=" ">
<path fill="none" stroke="#63b8ff" d="M698.41,-162.25C711.39,-162.25 725.44,-162.25 739.01,-162.25"/>
<polygon fill="#63b8ff" stroke="#63b8ff" points="738.74,-165.75 748.74,-162.25 738.74,-158.75 738.74,-165.75"/>
</a>
</g>
</g>
<!-- Node8 -->
<g id="Node000008" class="node">
<title>Node8</title>
<g id="a_Node000008"><a xlink:href="a02361.html#ad1d30ecbf6bff6457b680aa940281072" target="_top" xlink:title=" ">
<polygon fill="white" stroke="#666666" points="878.25,-134.5 739.25,-134.5 739.25,-116 878.25,-116 878.25,-134.5"/>
<text text-anchor="middle" x="808.75" y="-121" font-family="Helvetica,sans-Serif" font-size="10.00">async_completion_complete</text>
</a>
</g>
</g>
<!-- Node7&#45;&gt;Node8 -->
<g id="edge7_Node000007_Node000008" class="edge">
<title>Node7&#45;&gt;Node8</title>
<g id="a_edge7_Node000007_Node000008"><a xlink:title=" ">
<path fill="none" stroke="#63b8ff" d="M703.44,-125.25C711.26,-125.25 719.38,-125.25 727.49,-125.25"/>
<polygon fill="#63b8ff" stroke="#63b8ff" points="727.39,-128.75 737.39,-125.25 727.39,-121.75 727.39,-128.75"/>
</a>
</g>
</g>
<!-- Node12 -->
<g id="Node000012" class="node">
<title>Node12</title>
<g id="a_Node000012"><a xlink:href="a01946.html#afe1eb3edd264c847c36e9456b2598452" target="_top" xlink:title=" ">
<polygon fill="white" stroke="#666666" points="693.5,-366.5 593.5,-366.5 593.5,-348 693.5,-348 693.5,-366.5"/>
<text text-anchor="middle" x="643.5" y="-353" font-family="Helvetica,sans-Serif" font-size="10.00">arax_vaccel_queue</text>
</a>
</g>
</g>
<!-- Node11&#45;&gt;Node12 -->
<g id="edge11_Node000011_Node000012" class="edge">
<title>Node11&#45;&gt;Node12</title>
<g id="a_edge11_Node000011_Node000012"><a xlink:title=" ">
<path fill="none" stroke="#63b8ff" d="M543.99,-358.49C556.43,-358.33 569.52,-358.17 581.96,-358.01"/>
<polygon fill="#63b8ff" stroke="#63b8ff" points="581.69,-361.51 591.65,-357.89 581.6,-354.52 581.69,-361.51"/>
</a>
</g>
</g>
<!-- Node13 -->
<g id="Node000013" class="node">
<title>Node13</title>
<g id="a_Node000013"><a xlink:href="a01961.html#a5d84d59bded666fdcf1a8e949cb56a6a" target="_top" xlink:title=" ">
<polygon fill="white" stroke="#666666" points="702.5,-403.5 584.5,-403.5 584.5,-385 702.5,-385 702.5,-403.5"/>
<text text-anchor="middle" x="643.5" y="-390" font-family="Helvetica,sans-Serif" font-size="10.00">utils_queue_used_slots</text>
</a>
</g>
</g>
<!-- Node11&#45;&gt;Node13 -->
<g id="edge12_Node000011_Node000013" class="edge">
<title>Node11&#45;&gt;Node13</title>
<g id="a_edge12_Node000011_Node000013"><a xlink:title=" ">
<path fill="none" stroke="#63b8ff" d="M527.7,-369C546.15,-373.06 567.77,-377.81 587.24,-382.09"/>
<polygon fill="#63b8ff" stroke="#63b8ff" points="586.42,-385.5 596.93,-384.23 587.92,-378.66 586.42,-385.5"/>
</a>
</g>
</g>
<!-- Node15 -->
<g id="Node000015" class="node">
<title>Node15</title>
<g id="a_Node000015"><a xlink:href="a02361.html#a0fa370eee5160963e617d1daf1c07363" target="_top" xlink:title=" ">
<polygon fill="white" stroke="#666666" points="699.88,-246.5 587.12,-246.5 587.12,-228 699.88,-228 699.88,-246.5"/>
<text text-anchor="middle" x="643.5" y="-233" font-family="Helvetica,sans-Serif" font-size="10.00">async_semaphore_inc</text>
</a>
</g>
</g>
<!-- Node14&#45;&gt;Node15 -->
<g id="edge15_Node000014_Node000015" class="edge">
<title>Node14&#45;&gt;Node15</title>
<g id="a_edge15_Node000014_Node000015"><a xlink:title=" ">
<path fill="none" stroke="#63b8ff" d="M540.37,-237.25C551.68,-237.25 563.64,-237.25 575.25,-237.25"/>
<polygon fill="#63b8ff" stroke="#63b8ff" points="575.19,-240.75 585.19,-237.25 575.19,-233.75 575.19,-240.75"/>
</a>
</g>
</g>
<!-- Node17 -->
<g id="Node000017" class="node">
<title>Node17</title>
<g id="a_Node000017"><a xlink:href="a01958.html#a5c575f52a42e0e0d2fb41bda2d1268ce" target="_top" xlink:title=" ">
<polygon fill="white" stroke="#666666" points="693.12,-59.5 593.88,-59.5 593.88,-41 693.12,-41 693.12,-59.5"/>
<text text-anchor="middle" x="643.5" y="-46" font-family="Helvetica,sans-Serif" font-size="10.00">utils_list_node_add</text>
</a>
</g>
</g>
<!-- Node16&#45;&gt;Node17 -->
<g id="edge18_Node000016_Node000017" class="edge">
<title>Node16&#45;&gt;Node17</title>
<g id="a_edge18_Node000016_Node000017"><a xlink:title=" ">
<path fill="none" stroke="#63b8ff" d="M519.09,-50.25C537.73,-50.25 561.04,-50.25 582.37,-50.25"/>
<polygon fill="#63b8ff" stroke="#63b8ff" points="582.12,-53.75 592.12,-50.25 582.12,-46.75 582.12,-53.75"/>
</a>
</g>
</g>
<!-- Node18&#45;&gt;Node16 -->
<g id="edge29_Node000018_Node000016" class="edge">
<title>Node18&#45;&gt;Node16</title>
<g id="a_edge29_Node000018_Node000016"><a xlink:title=" ">
<path fill="none" stroke="#63b8ff" d="M216.83,-73.59C231.34,-70.49 247.83,-67.33 263,-65.25 321.76,-57.21 390.03,-53.4 434.38,-51.65"/>
<polygon fill="#63b8ff" stroke="#63b8ff" points="434.29,-55.15 444.16,-51.28 434.03,-48.16 434.29,-55.15"/>
</a>
</g>
</g>
<!-- Node19 -->
<g id="Node000019" class="node">
<title>Node19</title>
<g id="a_Node000019"><a xlink:href="a01931.html#a6cc54ee40009c61b5f6526f5edff004f" target="_top" xlink:title=" ">
<polygon fill="white" stroke="#666666" points="373.12,-129.5 270.88,-129.5 270.88,-111 373.12,-111 373.12,-129.5"/>
<text text-anchor="middle" x="322" y="-116" font-family="Helvetica,sans-Serif" font-size="10.00">arax_pipe_size_dec</text>
</a>
</g>
</g>
<!-- Node18&#45;&gt;Node19 -->
<g id="edge20_Node000018_Node000019" class="edge">
<title>Node18&#45;&gt;Node19</title>
<g id="a_edge20_Node000018_Node000019"><a xlink:title=" ">
<path fill="none" stroke="#63b8ff" d="M213.91,-92.97C231.61,-97.48 252.85,-102.89 271.74,-107.7"/>
<polygon fill="#63b8ff" stroke="#63b8ff" points="270.82,-111.08 281.37,-110.16 272.55,-104.3 270.82,-111.08"/>
</a>
</g>
</g>
<!-- Node23 -->
<g id="Node000023" class="node">
<title>Node23</title>
<g id="a_Node000023"><a xlink:href="a02358.html#ac9828b5c2758940f6d3c7d4335228de5" target="_top" xlink:title=" ">
<polygon fill="white" stroke="#666666" points="371.62,-92.5 272.38,-92.5 272.38,-74 371.62,-74 371.62,-92.5"/>
<text text-anchor="middle" x="322" y="-79" font-family="Helvetica,sans-Serif" font-size="10.00">arch_alloc_allocate</text>
</a>
</g>
</g>
<!-- Node18&#45;&gt;Node23 -->
<g id="edge28_Node000018_Node000023" class="edge">
<title>Node18&#45;&gt;Node23</title>
<g id="a_edge28_Node000018_Node000023"><a xlink:title=" ">
<path fill="none" stroke="#63b8ff" d="M227.37,-83.25C238.14,-83.25 249.59,-83.25 260.64,-83.25"/>
<polygon fill="#63b8ff" stroke="#63b8ff" points="260.47,-86.75 270.47,-83.25 260.47,-79.75 260.47,-86.75"/>
</a>
</g>
</g>
<!-- Node18&#45;&gt;Node24 -->
<g id="edge30_Node000018_Node000024" class="edge">
<title>Node18&#45;&gt;Node24</title>
<g id="a_edge30_Node000018_Node000024"><a xlink:title=" ">
<path fill="none" stroke="#63b8ff" d="M200.6,-73.52C209.19,-69.79 218.73,-65.23 227,-60.25 244.37,-49.8 245.4,-42.31 263,-32.25 268.78,-28.94 275.14,-25.9 281.45,-23.18"/>
<polygon fill="#63b8ff" stroke="#63b8ff" points="282.58,-26.5 290.53,-19.49 279.95,-20.01 282.58,-26.5"/>
</a>
</g>
</g>
<!-- Node20 -->
<g id="Node000020" class="node">
<title>Node20</title>
<g id="a_Node000020"><a xlink:href="a01943.html#a63b80783cfb3106ec4169ce082f153c0" target="_top" xlink:title=" ">
<polygon fill="white" stroke="#666666" points="539.5,-96.5 425.25,-96.5 425.25,-78 539.5,-78 539.5,-96.5"/>
<text text-anchor="middle" x="482.38" y="-83" font-family="Helvetica,sans-Serif" font-size="10.00">arax_throttle_size_dec</text>
</a>
</g>
</g>
<!-- Node19&#45;&gt;Node20 -->
<g id="edge21_Node000019_Node000020" class="edge">
<title>Node19&#45;&gt;Node20</title>
<g id="a_edge21_Node000019_Node000020"><a xlink:title=" ">
<path fill="none" stroke="#63b8ff" d="M369.66,-110.53C386.58,-107 405.9,-102.98 423.66,-99.28"/>
<polygon fill="#63b8ff" stroke="#63b8ff" points="424.22,-102.74 433.29,-97.27 422.79,-95.88 424.22,-102.74"/>
</a>
</g>
</g>
<!-- Node20&#45;&gt;Node5 -->
<g id="edge22_Node000020_Node000005" class="edge">
<title>Node20&#45;&gt;Node5</title>
<g id="a_edge22_Node000020_Node000005"><a xlink:title=" ">
<path fill="none" stroke="#63b8ff" d="M498.54,-96.95C517.79,-108.98 552.28,-129.54 583.75,-143.25 588.3,-145.23 593.12,-147.11 597.96,-148.87"/>
<polygon fill="#63b8ff" stroke="#63b8ff" points="596.5,-152.07 607.09,-152.02 598.78,-145.45 596.5,-152.07"/>
</a>
</g>
</g>
<!-- Node20&#45;&gt;Node7 -->
<g id="edge23_Node000020_Node000007" class="edge">
<title>Node20&#45;&gt;Node7</title>
<g id="a_edge23_Node000020_Node000007"><a xlink:title=" ">
<path fill="none" stroke="#63b8ff" d="M523.94,-96.94C544.25,-101.79 569.06,-107.71 590.73,-112.89"/>
<polygon fill="#63b8ff" stroke="#63b8ff" points="589.72,-116.24 600.26,-115.16 591.35,-109.44 589.72,-116.24"/>
</a>
</g>
</g>
<!-- Node21 -->
<g id="Node000021" class="node">
<title>Node21</title>
<g id="a_Node000021"><a xlink:href="a02367.html#a1bfeaeb9b81855e640d7a67cc9d92b17" target="_top" xlink:title=" ">
<polygon fill="white" stroke="#666666" points="697.62,-97.5 589.38,-97.5 589.38,-79 697.62,-79 697.62,-97.5"/>
<text text-anchor="middle" x="643.5" y="-84" font-family="Helvetica,sans-Serif" font-size="10.00">async_condition_wait</text>
</a>
</g>
</g>
<!-- Node20&#45;&gt;Node21 -->
<g id="edge24_Node000020_Node000021" class="edge">
<title>Node20&#45;&gt;Node21</title>
<g id="a_edge24_Node000020_Node000021"><a xlink:title=" ">
<path fill="none" stroke="#63b8ff" d="M539.92,-87.61C552.17,-87.68 565.2,-87.76 577.74,-87.84"/>
<polygon fill="#63b8ff" stroke="#63b8ff" points="577.53,-91.34 587.55,-87.9 577.57,-84.34 577.53,-91.34"/>
</a>
</g>
</g>
<!-- Node21&#45;&gt;Node6 -->
<g id="edge26_Node000021_Node000006" class="edge">
<title>Node21&#45;&gt;Node6</title>
<g id="a_edge26_Node000021_Node000006"><a xlink:title=" ">
<path fill="none" stroke="#63b8ff" d="M683.27,-97.9C690.18,-100.41 697.12,-103.5 703.25,-107.25 722.55,-119.06 719.7,-131.85 739.25,-143.25 742.6,-145.21 746.17,-146.97 749.84,-148.55"/>
<polygon fill="#63b8ff" stroke="#63b8ff" points="748.38,-151.74 758.97,-152.03 750.87,-145.2 748.38,-151.74"/>
</a>
</g>
</g>
<!-- Node21&#45;&gt;Node8 -->
<g id="edge25_Node000021_Node000008" class="edge">
<title>Node21&#45;&gt;Node8</title>
<g id="a_edge25_Node000021_Node000008"><a xlink:title=" ">
<path fill="none" stroke="#63b8ff" d="M687.39,-97.97C707.74,-102.58 732.28,-108.15 753.87,-113.04"/>
<polygon fill="#63b8ff" stroke="#63b8ff" points="752.86,-116.4 763.39,-115.19 754.41,-109.57 752.86,-116.4"/>
</a>
</g>
</g>
<!-- Node22 -->
<g id="Node000022" class="node">
<title>Node22</title>
<g id="a_Node000022"><a xlink:href="a02361.html#a7ab7c7fe9cb93434dde72a4e464a7e69" target="_top" xlink:title=" ">
<polygon fill="white" stroke="#666666" points="866.62,-97.5 750.88,-97.5 750.88,-79 866.62,-79 866.62,-97.5"/>
<text text-anchor="middle" x="808.75" y="-84" font-family="Helvetica,sans-Serif" font-size="10.00">async_semaphore_dec</text>
</a>
</g>
</g>
<!-- Node21&#45;&gt;Node22 -->
<g id="edge27_Node000021_Node000022" class="edge">
<title>Node21&#45;&gt;Node22</title>
<g id="a_edge27_Node000021_Node000022"><a xlink:title=" ">
<path fill="none" stroke="#63b8ff" d="M697.95,-88.25C711.1,-88.25 725.36,-88.25 739.12,-88.25"/>
<polygon fill="#63b8ff" stroke="#63b8ff" points="739.01,-91.75 749.01,-88.25 739.01,-84.75 739.01,-91.75"/>
</a>
</g>
</g>
<!-- Node25&#45;&gt;Node5 -->
<g id="edge32_Node000025_Node000005" class="edge">
<title>Node25&#45;&gt;Node5</title>
<g id="a_edge32_Node000025_Node000005"><a xlink:title=" ">
<path fill="none" stroke="#63b8ff" d="M379.75,-162.25C435.14,-162.25 519.34,-162.25 577.42,-162.25"/>
<polygon fill="#63b8ff" stroke="#63b8ff" points="577.16,-165.75 587.16,-162.25 577.16,-158.75 577.16,-165.75"/>
</a>
</g>
</g>
<!-- Node25&#45;&gt;Node7 -->
<g id="edge34_Node000025_Node000007" class="edge">
<title>Node25&#45;&gt;Node7</title>
<g id="a_edge34_Node000025_Node000007"><a xlink:title=" ">
<path fill="none" stroke="#63b8ff" d="M379.75,-155.68C433.46,-149.46 514.26,-140.1 572.06,-133.41"/>
<polygon fill="#63b8ff" stroke="#63b8ff" points="572.27,-136.91 581.8,-132.28 571.46,-129.95 572.27,-136.91"/>
</a>
</g>
</g>
<!-- Node25&#45;&gt;Node14 -->
<g id="edge33_Node000025_Node000014" class="edge">
<title>Node25&#45;&gt;Node14</title>
<g id="a_edge33_Node000025_Node000014"><a xlink:title=" ">
<path fill="none" stroke="#63b8ff" d="M354.67,-177.25C382.56,-190.46 422.93,-209.57 450.57,-222.66"/>
<polygon fill="#63b8ff" stroke="#63b8ff" points="448.93,-225.76 459.47,-226.88 451.93,-219.43 448.93,-225.76"/>
</a>
</g>
</g>
<!-- Node25&#45;&gt;Node16 -->
<g id="edge35_Node000025_Node000016" class="edge">
<title>Node25&#45;&gt;Node16</title>
<g id="a_edge35_Node000025_Node000016"><a xlink:title=" ">
<path fill="none" stroke="#63b8ff" d="M368.3,-147.29C372.88,-144.7 377.22,-141.71 381,-138.25 406.52,-114.9 390.29,-91.23 417,-69.25 422.19,-64.98 428.3,-61.67 434.67,-59.11"/>
<polygon fill="#63b8ff" stroke="#63b8ff" points="435.7,-62.45 444.06,-55.94 433.46,-55.82 435.7,-62.45"/>
</a>
</g>
</g>
</g>
</svg>
