<?xml version="1.0" encoding="UTF-8" standalone="no"?>
<!DOCTYPE svg PUBLIC "-//W3C//DTD SVG 1.1//EN"
 "http://www.w3.org/Graphics/SVG/1.1/DTD/svg11.dtd">
<!-- Generated by graphviz version 8.0.5 (0)
 -->
<!-- Title: arax_data_deref Pages: 1 -->
<svg width="236pt" height="101pt"
 viewBox="0.00 0.00 235.75 100.50" xmlns="http://www.w3.org/2000/svg" xmlns:xlink="http://www.w3.org/1999/xlink">
<g id="graph0" class="graph" transform="scale(1 1) rotate(0) translate(4 96.5)">
<title>arax_data_deref</title>
<!-- Node1 -->
<g id="Node000001" class="node">
<title>Node1</title>
<g id="a_Node000001"><a xlink:title=" ">
<polygon fill="#999999" stroke="#666666" points="227.75,-55.5 141.25,-55.5 141.25,-37 227.75,-37 227.75,-55.5"/>
<text text-anchor="middle" x="184.5" y="-42" font-family="Helvetica,sans-Serif" font-size="10.00">arax_data_deref</text>
</a>
</g>
</g>
<!-- Node2 -->
<g id="Node000002" class="node">
<title>Node2</title>
<g id="a_Node000002"><a xlink:href="a01931.html#a7d8356bd5c8b6a8d7dffc6ba94cc22e5" target="_top" xlink:title=" ">
<polygon fill="white" stroke="#666666" points="103.75,-92.5 1.5,-92.5 1.5,-74 103.75,-74 103.75,-92.5"/>
<text text-anchor="middle" x="52.62" y="-79" font-family="Helvetica,sans-Serif" font-size="10.00">arax_data_memcpy</text>
</a>
</g>
</g>
<!-- Node1&#45;&gt;Node2 -->
<g id="edge1_Node000001_Node000002" class="edge">
<title>Node1&#45;&gt;Node2</title>
<g id="a_edge1_Node000001_Node000002"><a xlink:title=" ">
<path fill="none" stroke="#63b8ff" d="M139.17,-58.88C122.27,-63.69 103.3,-69.1 87.52,-73.59"/>
<polygon fill="#63b8ff" stroke="#63b8ff" points="139.72,-62.08 148.38,-55.97 137.8,-55.35 139.72,-62.08"/>
</a>
</g>
</g>
<!-- Node3 -->
<g id="Node000003" class="node">
<title>Node3</title>
<g id="a_Node000003"><a xlink:href="a01931.html#ac1f7fb20b3a23b388bea24f1b46a33a8" target="_top" xlink:title=" ">
<polygon fill="white" stroke="#666666" points="105.25,-55.5 0,-55.5 0,-37 105.25,-37 105.25,-55.5"/>
<text text-anchor="middle" x="52.62" y="-42" font-family="Helvetica,sans-Serif" font-size="10.00">arax_data_ref_offset</text>
</a>
</g>
</g>
<!-- Node1&#45;&gt;Node3 -->
<g id="edge2_Node000001_Node000003" class="edge">
<title>Node1&#45;&gt;Node3</title>
<g id="a_edge2_Node000001_Node000003"><a xlink:title=" ">
<path fill="none" stroke="#63b8ff" d="M130.04,-46.25C121.87,-46.25 113.44,-46.25 105.31,-46.25"/>
<polygon fill="#63b8ff" stroke="#63b8ff" points="129.97,-49.75 139.97,-46.25 129.97,-42.75 129.97,-49.75"/>
</a>
</g>
</g>
<!-- Node4 -->
<g id="Node000004" class="node">
<title>Node4</title>
<g id="a_Node000004"><a xlink:href="a01931.html#a6c43ea323f2de1675b00e48330a12e2a" target="_top" xlink:title=" ">
<polygon fill="white" stroke="#666666" points="93.25,-18.5 12,-18.5 12,0 93.25,0 93.25,-18.5"/>
<text text-anchor="middle" x="52.62" y="-5" font-family="Helvetica,sans-Serif" font-size="10.00">arax_data_stat</text>
</a>
</g>
</g>
<!-- Node1&#45;&gt;Node4 -->
<g id="edge3_Node000001_Node000004" class="edge">
<title>Node1&#45;&gt;Node4</title>
<g id="a_edge3_Node000001_Node000004"><a xlink:title=" ">
<path fill="none" stroke="#63b8ff" d="M139.17,-33.62C122.27,-28.81 103.3,-23.4 87.52,-18.91"/>
<polygon fill="#63b8ff" stroke="#63b8ff" points="137.8,-37.15 148.38,-36.53 139.72,-30.42 137.8,-37.15"/>
</a>
</g>
</g>
</g>
</svg>
