<?xml version="1.0" encoding="UTF-8" standalone="no"?>
<!DOCTYPE svg PUBLIC "-//W3C//DTD SVG 1.1//EN"
 "http://www.w3.org/Graphics/SVG/1.1/DTD/svg11.dtd">
<!-- Generated by graphviz version 12.2.1 (0)
 -->
<!-- Title: arax_assert.c Pages: 1 -->
<svg width="559pt" height="245pt"
 viewBox="0.00 0.00 558.50 244.50" xmlns="http://www.w3.org/2000/svg" xmlns:xlink="http://www.w3.org/1999/xlink">
<g id="graph0" class="graph" transform="scale(1 1) rotate(0) translate(4 240.5)">
<title>arax_assert.c</title>
<!-- Node1 -->
<g id="Node000001" class="node">
<title>Node1</title>
<g id="a_Node000001"><a xlink:title=" ">
<polygon fill="#999999" stroke="#666666" points="314,-236.5 238,-236.5 238,-218 314,-218 314,-236.5"/>
<text text-anchor="middle" x="276" y="-223" font-family="Helvetica,sans-Serif" font-size="10.00">arax_assert.c</text>
</a>
</g>
</g>
<!-- Node2 -->
<g id="Node000002" class="node">
<title>Node2</title>
<g id="a_Node000002"><a xlink:href="a01373.html" target="_top" xlink:title=" ">
<polygon fill="white" stroke="#666666" points="176,-73 100,-73 100,-54.5 176,-54.5 176,-73"/>
<text text-anchor="middle" x="138" y="-59.5" font-family="Helvetica,sans-Serif" font-size="10.00">arax_assert.h</text>
</a>
</g>
</g>
<!-- Node1&#45;&gt;Node2 -->
<g id="edge1_Node000001_Node000002" class="edge">
<title>Node1&#45;&gt;Node2</title>
<g id="a_edge1_Node000001_Node000002"><a xlink:title=" ">
<path fill="none" stroke="#63b8ff" d="M237.76,-222.21C190.73,-216.35 115.01,-203.76 98,-182 78.02,-156.44 86.34,-139.28 98,-109 102.11,-98.33 110.12,-88.63 117.9,-81.05"/>
<polygon fill="#63b8ff" stroke="#63b8ff" points="120.13,-83.75 125.23,-74.46 115.45,-78.54 120.13,-83.75"/>
</a>
</g>
</g>
<!-- Node4 -->
<g id="Node000004" class="node">
<title>Node4</title>
<g id="a_Node000004"><a xlink:href="a01421.html" target="_top" xlink:title=" ">
<polygon fill="white" stroke="#666666" points="82,-73 0,-73 0,-54.5 82,-54.5 82,-73"/>
<text text-anchor="middle" x="41" y="-59.5" font-family="Helvetica,sans-Serif" font-size="10.00">core/arax_ptr.h</text>
</a>
</g>
</g>
<!-- Node1&#45;&gt;Node4 -->
<g id="edge3_Node000001_Node000004" class="edge">
<title>Node1&#45;&gt;Node4</title>
<g id="a_edge3_Node000001_Node000004"><a xlink:title=" ">
<path fill="none" stroke="#63b8ff" d="M237.66,-221.77C188.39,-215.29 106.51,-201.86 84,-182 55.36,-156.73 45.77,-110.71 42.58,-84.47"/>
<polygon fill="#63b8ff" stroke="#63b8ff" points="46.1,-84.46 41.62,-74.86 39.13,-85.16 46.1,-84.46"/>
</a>
</g>
</g>
<!-- Node5 -->
<g id="Node000005" class="node">
<title>Node5</title>
<g id="a_Node000005"><a xlink:href="a01415.html" target="_top" xlink:title=" ">
<polygon fill="white" stroke="#666666" points="203.12,-182 106.88,-182 106.88,-163.5 203.12,-163.5 203.12,-182"/>
<text text-anchor="middle" x="155" y="-168.5" font-family="Helvetica,sans-Serif" font-size="10.00">core/arax_object.h</text>
</a>
</g>
</g>
<!-- Node1&#45;&gt;Node5 -->
<g id="edge5_Node000001_Node000005" class="edge">
<title>Node1&#45;&gt;Node5</title>
<g id="a_edge5_Node000001_Node000005"><a xlink:title=" ">
<path fill="none" stroke="#63b8ff" d="M256.02,-217.58C236.84,-209.26 207.61,-196.58 185.51,-186.99"/>
<polygon fill="#63b8ff" stroke="#63b8ff" points="186.97,-183.8 176.4,-183.03 184.18,-190.23 186.97,-183.8"/>
</a>
</g>
</g>
<!-- Node11 -->
<g id="Node000011" class="node">
<title>Node11</title>
<g id="a_Node000011"><a xlink:title=" ">
<polygon fill="#e0e0e0" stroke="#999999" points="266.62,-182 221.38,-182 221.38,-163.5 266.62,-163.5 266.62,-182"/>
<text text-anchor="middle" x="244" y="-168.5" font-family="Helvetica,sans-Serif" font-size="10.00">stdio.h</text>
</a>
</g>
</g>
<!-- Node1&#45;&gt;Node11 -->
<g id="edge13_Node000001_Node000011" class="edge">
<title>Node1&#45;&gt;Node11</title>
<g id="a_edge13_Node000001_Node000011"><a xlink:title=" ">
<path fill="none" stroke="#63b8ff" d="M270.72,-217.58C266.48,-210.62 260.38,-200.62 255.08,-191.92"/>
<polygon fill="#63b8ff" stroke="#63b8ff" points="258.17,-190.27 249.97,-183.55 252.19,-193.91 258.17,-190.27"/>
</a>
</g>
</g>
<!-- Node12 -->
<g id="Node000012" class="node">
<title>Node12</title>
<g id="a_Node000012"><a xlink:title=" ">
<polygon fill="#e0e0e0" stroke="#999999" points="333.12,-182 284.88,-182 284.88,-163.5 333.12,-163.5 333.12,-182"/>
<text text-anchor="middle" x="309" y="-168.5" font-family="Helvetica,sans-Serif" font-size="10.00">string.h</text>
</a>
</g>
</g>
<!-- Node1&#45;&gt;Node12 -->
<g id="edge14_Node000001_Node000012" class="edge">
<title>Node1&#45;&gt;Node12</title>
<g id="a_edge14_Node000001_Node000012"><a xlink:title=" ">
<path fill="none" stroke="#63b8ff" d="M281.45,-217.58C285.82,-210.62 292.11,-200.62 297.58,-191.92"/>
<polygon fill="#63b8ff" stroke="#63b8ff" points="300.49,-193.87 302.85,-183.54 294.56,-190.14 300.49,-193.87"/>
</a>
</g>
</g>
<!-- Node13 -->
<g id="Node000013" class="node">
<title>Node13</title>
<g id="a_Node000013"><a xlink:title=" ">
<polygon fill="#e0e0e0" stroke="#999999" points="398.75,-182 351.25,-182 351.25,-163.5 398.75,-163.5 398.75,-182"/>
<text text-anchor="middle" x="375" y="-168.5" font-family="Helvetica,sans-Serif" font-size="10.00">stdlib.h</text>
</a>
</g>
</g>
<!-- Node1&#45;&gt;Node13 -->
<g id="edge15_Node000001_Node000013" class="edge">
<title>Node1&#45;&gt;Node13</title>
<g id="a_edge15_Node000001_Node000013"><a xlink:title=" ">
<path fill="none" stroke="#63b8ff" d="M292.35,-217.58C307.61,-209.49 330.65,-197.27 348.54,-187.78"/>
<polygon fill="#63b8ff" stroke="#63b8ff" points="350.1,-190.92 357.29,-183.14 346.82,-184.73 350.1,-190.92"/>
</a>
</g>
</g>
<!-- Node14 -->
<g id="Node000014" class="node">
<title>Node14</title>
<g id="a_Node000014"><a xlink:title=" ">
<polygon fill="#e0e0e0" stroke="#999999" points="477.12,-182 416.88,-182 416.88,-163.5 477.12,-163.5 477.12,-182"/>
<text text-anchor="middle" x="447" y="-168.5" font-family="Helvetica,sans-Serif" font-size="10.00">execinfo.h</text>
</a>
</g>
</g>
<!-- Node1&#45;&gt;Node14 -->
<g id="edge16_Node000001_Node000014" class="edge">
<title>Node1&#45;&gt;Node14</title>
<g id="a_edge16_Node000001_Node000014"><a xlink:title=" ">
<path fill="none" stroke="#63b8ff" d="M304.24,-217.58C332.58,-208.88 376.46,-195.41 408.09,-185.7"/>
<polygon fill="#63b8ff" stroke="#63b8ff" points="408.74,-189.16 417.27,-182.88 406.69,-182.47 408.74,-189.16"/>
</a>
</g>
</g>
<!-- Node15 -->
<g id="Node000015" class="node">
<title>Node15</title>
<g id="a_Node000015"><a xlink:href="a01397.html" target="_top" xlink:title=" ">
<polygon fill="white" stroke="#666666" points="550.5,-182 495.5,-182 495.5,-163.5 550.5,-163.5 550.5,-182"/>
<text text-anchor="middle" x="523" y="-168.5" font-family="Helvetica,sans-Serif" font-size="10.00">system.h</text>
</a>
</g>
</g>
<!-- Node1&#45;&gt;Node15 -->
<g id="edge17_Node000001_Node000015" class="edge">
<title>Node1&#45;&gt;Node15</title>
<g id="a_edge17_Node000001_Node000015"><a xlink:title=" ">
<path fill="none" stroke="#63b8ff" d="M314.35,-218.31C354.25,-210.02 418.83,-196.51 484.21,-182.37"/>
<polygon fill="#63b8ff" stroke="#63b8ff" points="484.62,-185.86 493.65,-180.32 483.13,-179.02 484.62,-185.86"/>
</a>
</g>
</g>
<!-- Node3 -->
<g id="Node000003" class="node">
<title>Node3</title>
<g id="a_Node000003"><a xlink:href="a01382.html" target="_top" xlink:title=" ">
<polygon fill="white" stroke="#666666" points="116.88,-18.5 61.12,-18.5 61.12,0 116.88,0 116.88,-18.5"/>
<text text-anchor="middle" x="89" y="-5" font-family="Helvetica,sans-Serif" font-size="10.00">compat.h</text>
</a>
</g>
</g>
<!-- Node2&#45;&gt;Node3 -->
<g id="edge2_Node000002_Node000003" class="edge">
<title>Node2&#45;&gt;Node3</title>
<g id="a_edge2_Node000002_Node000003"><a xlink:title=" ">
<path fill="none" stroke="#63b8ff" d="M129.91,-54.08C123.06,-46.74 113.04,-36.01 104.63,-27"/>
<polygon fill="#63b8ff" stroke="#63b8ff" points="107.36,-24.79 97.97,-19.86 102.24,-29.56 107.36,-24.79"/>
</a>
</g>
</g>
<!-- Node4&#45;&gt;Node3 -->
<g id="edge4_Node000004_Node000003" class="edge">
<title>Node4&#45;&gt;Node3</title>
<g id="a_edge4_Node000004_Node000003"><a xlink:title=" ">
<path fill="none" stroke="#63b8ff" d="M48.93,-54.08C55.64,-46.74 65.45,-36.01 73.68,-27"/>
<polygon fill="#63b8ff" stroke="#63b8ff" points="76.04,-29.62 80.2,-19.88 70.87,-24.89 76.04,-29.62"/>
</a>
</g>
</g>
<!-- Node6 -->
<g id="Node000006" class="node">
<title>Node6</title>
<g id="a_Node000006"><a xlink:href="a01388.html" target="_top" xlink:title=" ">
<polygon fill="white" stroke="#666666" points="348.62,-127.5 291.38,-127.5 291.38,-109 348.62,-109 348.62,-127.5"/>
<text text-anchor="middle" x="320" y="-114" font-family="Helvetica,sans-Serif" font-size="10.00">utils/list.h</text>
</a>
</g>
</g>
<!-- Node5&#45;&gt;Node6 -->
<g id="edge6_Node000005_Node000006" class="edge">
<title>Node5&#45;&gt;Node6</title>
<g id="a_edge6_Node000005_Node000006"><a xlink:title=" ">
<path fill="none" stroke="#63b8ff" d="M182.25,-163.08C209.47,-154.42 251.56,-141.03 282.05,-131.32"/>
<polygon fill="#63b8ff" stroke="#63b8ff" points="282.8,-134.76 291.27,-128.39 280.68,-128.09 282.8,-134.76"/>
</a>
</g>
</g>
<!-- Node9 -->
<g id="Node000009" class="node">
<title>Node9</title>
<g id="a_Node000009"><a xlink:href="a01394.html" target="_top" xlink:title=" ">
<polygon fill="white" stroke="#666666" points="188.62,-127.5 107.38,-127.5 107.38,-109 188.62,-109 188.62,-127.5"/>
<text text-anchor="middle" x="148" y="-114" font-family="Helvetica,sans-Serif" font-size="10.00">utils/spinlock.h</text>
</a>
</g>
</g>
<!-- Node5&#45;&gt;Node9 -->
<g id="edge9_Node000005_Node000009" class="edge">
<title>Node5&#45;&gt;Node9</title>
<g id="a_edge9_Node000005_Node000009"><a xlink:title=" ">
<path fill="none" stroke="#63b8ff" d="M153.84,-163.08C152.98,-156.58 151.76,-147.42 150.65,-139.16"/>
<polygon fill="#63b8ff" stroke="#63b8ff" points="154.13,-138.71 149.33,-129.26 147.19,-139.63 154.13,-138.71"/>
</a>
</g>
</g>
<!-- Node10 -->
<g id="Node000010" class="node">
<title>Node10</title>
<g id="a_Node000010"><a xlink:title=" ">
<polygon fill="#e0e0e0" stroke="#999999" points="273.12,-127.5 206.88,-127.5 206.88,-109 273.12,-109 273.12,-127.5"/>
<text text-anchor="middle" x="240" y="-114" font-family="Helvetica,sans-Serif" font-size="10.00">arch/alloc.h</text>
</a>
</g>
</g>
<!-- Node5&#45;&gt;Node10 -->
<g id="edge12_Node000005_Node000010" class="edge">
<title>Node5&#45;&gt;Node10</title>
<g id="a_edge12_Node000005_Node000010"><a xlink:title=" ">
<path fill="none" stroke="#63b8ff" d="M169.04,-163.08C181.83,-155.18 201,-143.34 216.19,-133.96"/>
<polygon fill="#63b8ff" stroke="#63b8ff" points="217.99,-136.96 224.66,-128.73 214.31,-131 217.99,-136.96"/>
</a>
</g>
</g>
<!-- Node7 -->
<g id="Node000007" class="node">
<title>Node7</title>
<g id="a_Node000007"><a xlink:title=" ">
<polygon fill="#e0e0e0" stroke="#999999" points="387.25,-73 336.75,-73 336.75,-54.5 387.25,-54.5 387.25,-73"/>
<text text-anchor="middle" x="362" y="-59.5" font-family="Helvetica,sans-Serif" font-size="10.00">stddef.h</text>
</a>
</g>
</g>
<!-- Node6&#45;&gt;Node7 -->
<g id="edge7_Node000006_Node000007" class="edge">
<title>Node6&#45;&gt;Node7</title>
<g id="a_edge7_Node000006_Node000007"><a xlink:title=" ">
<path fill="none" stroke="#63b8ff" d="M326.94,-108.58C332.68,-101.39 341.04,-90.95 348.15,-82.07"/>
<polygon fill="#63b8ff" stroke="#63b8ff" points="350.73,-84.44 354.25,-74.44 345.27,-80.06 350.73,-84.44"/>
</a>
</g>
</g>
<!-- Node8 -->
<g id="Node000008" class="node">
<title>Node8</title>
<g id="a_Node000008"><a xlink:title=" ">
<polygon fill="#e0e0e0" stroke="#999999" points="301.75,-73 254.25,-73 254.25,-54.5 301.75,-54.5 301.75,-73"/>
<text text-anchor="middle" x="278" y="-59.5" font-family="Helvetica,sans-Serif" font-size="10.00">stdint.h</text>
</a>
</g>
</g>
<!-- Node6&#45;&gt;Node8 -->
<g id="edge8_Node000006_Node000008" class="edge">
<title>Node6&#45;&gt;Node8</title>
<g id="a_edge8_Node000006_Node000008"><a xlink:title=" ">
<path fill="none" stroke="#63b8ff" d="M313.06,-108.58C307.32,-101.39 298.96,-90.95 291.85,-82.07"/>
<polygon fill="#63b8ff" stroke="#63b8ff" points="294.73,-80.06 285.75,-74.44 289.27,-84.44 294.73,-80.06"/>
</a>
</g>
</g>
<!-- Node9&#45;&gt;Node2 -->
<g id="edge11_Node000009_Node000002" class="edge">
<title>Node9&#45;&gt;Node2</title>
<g id="a_edge11_Node000009_Node000002"><a xlink:title=" ">
<path fill="none" stroke="#63b8ff" d="M146.35,-108.58C145.1,-102.01 143.33,-92.71 141.74,-84.37"/>
<polygon fill="#63b8ff" stroke="#63b8ff" points="145.21,-83.91 139.9,-74.74 138.34,-85.22 145.21,-83.91"/>
</a>
</g>
</g>
<!-- Node9&#45;&gt;Node8 -->
<g id="edge10_Node000009_Node000008" class="edge">
<title>Node9&#45;&gt;Node8</title>
<g id="a_edge10_Node000009_Node000008"><a xlink:title=" ">
<path fill="none" stroke="#63b8ff" d="M169.47,-108.58C190.26,-100.18 222.05,-87.34 245.86,-77.73"/>
<polygon fill="#63b8ff" stroke="#63b8ff" points="247.14,-80.99 255.1,-74 244.51,-74.5 247.14,-80.99"/>
</a>
</g>
</g>
<!-- Node15&#45;&gt;Node7 -->
<g id="edge18_Node000015_Node000007" class="edge">
<title>Node15&#45;&gt;Node7</title>
<g id="a_edge18_Node000015_Node000007"><a xlink:title=" ">
<path fill="none" stroke="#63b8ff" d="M522.84,-163.18C522.11,-149.78 518.75,-123.87 504,-109 476.14,-80.92 430.78,-70.6 398.83,-66.84"/>
<polygon fill="#63b8ff" stroke="#63b8ff" points="399.53,-63.39 389.24,-65.88 398.84,-70.36 399.53,-63.39"/>
</a>
</g>
</g>
<!-- Node16 -->
<g id="Node000016" class="node">
<title>Node16</title>
<g id="a_Node000016"><a xlink:title=" ">
<polygon fill="#e0e0e0" stroke="#999999" points="494.75,-127.5 429.25,-127.5 429.25,-109 494.75,-109 494.75,-127.5"/>
<text text-anchor="middle" x="462" y="-114" font-family="Helvetica,sans-Serif" font-size="10.00">sys/types.h</text>
</a>
</g>
</g>
<!-- Node15&#45;&gt;Node16 -->
<g id="edge19_Node000015_Node000016" class="edge">
<title>Node15&#45;&gt;Node16</title>
<g id="a_edge19_Node000015_Node000016"><a xlink:title=" ">
<path fill="none" stroke="#63b8ff" d="M512.93,-163.08C504.13,-155.51 491.15,-144.33 480.49,-135.16"/>
<polygon fill="#63b8ff" stroke="#63b8ff" points="482.9,-132.62 473.03,-128.75 478.33,-137.92 482.9,-132.62"/>
</a>
</g>
</g>
</g>
</svg>
