<?xml version="1.0" encoding="UTF-8" standalone="no"?>
<!DOCTYPE svg PUBLIC "-//W3C//DTD SVG 1.1//EN"
 "http://www.w3.org/Graphics/SVG/1.1/DTD/svg11.dtd">
<!-- Generated by graphviz version 8.0.5 (0)
 -->
<!-- Title: arax_object.c Pages: 1 -->
<svg width="909pt" height="408pt"
 viewBox="0.00 0.00 909.23 408.00" xmlns="http://www.w3.org/2000/svg" xmlns:xlink="http://www.w3.org/1999/xlink">
<g id="graph0" class="graph" transform="scale(1 1) rotate(0) translate(4 404)">
<title>arax_object.c</title>
<!-- Node1 -->
<g id="Node000001" class="node">
<title>Node1</title>
<g id="a_Node000001"><a xlink:title=" ">
<polygon fill="#999999" stroke="#666666" points="716.86,-400 642.36,-400 642.36,-381.5 716.86,-381.5 716.86,-400"/>
<text text-anchor="middle" x="679.61" y="-386.5" font-family="Helvetica,sans-Serif" font-size="10.00">arax_object.c</text>
</a>
</g>
</g>
<!-- Node2 -->
<g id="Node000002" class="node">
<title>Node2</title>
<g id="a_Node000002"><a xlink:href="a01403.html" target="_top" xlink:title=" ">
<polygon fill="white" stroke="#666666" points="464.86,-182 390.36,-182 390.36,-163.5 464.86,-163.5 464.86,-182"/>
<text text-anchor="middle" x="427.61" y="-168.5" font-family="Helvetica,sans-Serif" font-size="10.00">arax_object.h</text>
</a>
</g>
</g>
<!-- Node1&#45;&gt;Node2 -->
<g id="edge1_Node000001_Node000002" class="edge">
<title>Node1&#45;&gt;Node2</title>
<g id="a_edge1_Node000001_Node000002"><a xlink:title=" ">
<path fill="none" stroke="#63b8ff" d="M677.52,-381.28C671.96,-360.33 654.99,-305.41 622.61,-272.5 620.98,-270.84 507.61,-213.87 454.51,-187.23"/>
<polygon fill="#63b8ff" stroke="#63b8ff" points="456.25,-183.69 445.74,-182.33 453.11,-189.95 456.25,-183.69"/>
</a>
</g>
</g>
<!-- Node10 -->
<g id="Node000010" class="node">
<title>Node10</title>
<g id="a_Node000010"><a xlink:href="a01349.html" target="_top" xlink:title=" ">
<polygon fill="white" stroke="#666666" points="570.11,-345.5 503.11,-345.5 503.11,-327 570.11,-327 570.11,-345.5"/>
<text text-anchor="middle" x="536.61" y="-332" font-family="Helvetica,sans-Serif" font-size="10.00">arax_pipe.h</text>
</a>
</g>
</g>
<!-- Node1&#45;&gt;Node10 -->
<g id="edge10_Node000001_Node000010" class="edge">
<title>Node1&#45;&gt;Node10</title>
<g id="a_edge10_Node000001_Node000010"><a xlink:title=" ">
<path fill="none" stroke="#63b8ff" d="M656,-381.08C632.71,-372.53 596.88,-359.38 570.55,-349.71"/>
<polygon fill="#63b8ff" stroke="#63b8ff" points="571.85,-346.09 561.26,-345.93 569.44,-352.66 571.85,-346.09"/>
</a>
</g>
</g>
<!-- Node12 -->
<g id="Node000012" class="node">
<title>Node12</title>
<g id="a_Node000012"><a xlink:title=" ">
<polygon fill="#e0e0e0" stroke="#999999" points="821.23,-127.5 775.98,-127.5 775.98,-109 821.23,-109 821.23,-127.5"/>
<text text-anchor="middle" x="798.61" y="-114" font-family="Helvetica,sans-Serif" font-size="10.00">stdio.h</text>
</a>
</g>
</g>
<!-- Node1&#45;&gt;Node12 -->
<g id="edge52_Node000001_Node000012" class="edge">
<title>Node1&#45;&gt;Node12</title>
<g id="a_edge52_Node000001_Node000012"><a xlink:title=" ">
<path fill="none" stroke="#63b8ff" d="M691.48,-381.23C712.86,-364.81 755.61,-326.5 755.61,-282.75 755.61,-282.75 755.61,-282.75 755.61,-226.25 755.61,-192.85 773.87,-157.55 786.59,-137"/>
<polygon fill="#63b8ff" stroke="#63b8ff" points="789.96,-139.23 792.45,-128.93 784.08,-135.43 789.96,-139.23"/>
</a>
</g>
</g>
<!-- Node20 -->
<g id="Node000020" class="node">
<title>Node20</title>
<g id="a_Node000020"><a xlink:href="a01391.html" target="_top" xlink:title=" ">
<polygon fill="white" stroke="#666666" points="324.61,-291 230.61,-291 230.61,-272.5 324.61,-272.5 324.61,-291"/>
<text text-anchor="middle" x="277.61" y="-277.5" font-family="Helvetica,sans-Serif" font-size="10.00">core/arax_accel.h</text>
</a>
</g>
</g>
<!-- Node1&#45;&gt;Node20 -->
<g id="edge43_Node000001_Node000020" class="edge">
<title>Node1&#45;&gt;Node20</title>
<g id="a_edge43_Node000001_Node000020"><a xlink:title=" ">
<path fill="none" stroke="#63b8ff" d="M641.88,-387.23C567.49,-381.85 404.69,-367.86 353.61,-345.5 329.24,-334.83 306.44,-313.98 292.29,-299.24"/>
<polygon fill="#63b8ff" stroke="#63b8ff" points="295.38,-297.35 286.01,-292.4 290.24,-302.11 295.38,-297.35"/>
</a>
</g>
</g>
<!-- Node24 -->
<g id="Node000024" class="node">
<title>Node24</title>
<g id="a_Node000024"><a xlink:href="a01412.html" target="_top" xlink:title=" ">
<polygon fill="white" stroke="#666666" points="613.36,-291 523.86,-291 523.86,-272.5 613.36,-272.5 613.36,-291"/>
<text text-anchor="middle" x="568.61" y="-277.5" font-family="Helvetica,sans-Serif" font-size="10.00">core/arax_task.h</text>
</a>
</g>
</g>
<!-- Node1&#45;&gt;Node24 -->
<g id="edge45_Node000001_Node000024" class="edge">
<title>Node1&#45;&gt;Node24</title>
<g id="a_edge45_Node000001_Node000024"><a xlink:title=" ">
<path fill="none" stroke="#63b8ff" d="M670.9,-381.35C652.51,-363.63 609.45,-322.12 585.48,-299.01"/>
<polygon fill="#63b8ff" stroke="#63b8ff" points="588.22,-296.82 578.59,-292.4 583.36,-301.86 588.22,-296.82"/>
</a>
</g>
</g>
<!-- Node25 -->
<g id="Node000025" class="node">
<title>Node25</title>
<g id="a_Node000025"><a xlink:href="a01406.html" target="_top" xlink:title=" ">
<polygon fill="white" stroke="#666666" points="651.36,-236.5 561.86,-236.5 561.86,-218 651.36,-218 651.36,-236.5"/>
<text text-anchor="middle" x="606.61" y="-223" font-family="Helvetica,sans-Serif" font-size="10.00">core/arax_proc.h</text>
</a>
</g>
</g>
<!-- Node1&#45;&gt;Node25 -->
<g id="edge44_Node000001_Node000025" class="edge">
<title>Node1&#45;&gt;Node25</title>
<g id="a_edge44_Node000001_Node000025"><a xlink:title=" ">
<path fill="none" stroke="#63b8ff" d="M684.11,-381.01C694.03,-360.39 715.26,-307.8 693.61,-272.5 684.53,-257.69 668.76,-247.64 653.12,-240.92"/>
<polygon fill="#63b8ff" stroke="#63b8ff" points="654.53,-237.32 643.94,-236.97 652,-243.85 654.53,-237.32"/>
</a>
</g>
</g>
<!-- Node26 -->
<g id="Node000026" class="node">
<title>Node26</title>
<g id="a_Node000026"><a xlink:href="a01397.html" target="_top" xlink:title=" ">
<polygon fill="white" stroke="#666666" points="430.48,-345.5 362.73,-345.5 362.73,-327 430.48,-327 430.48,-345.5"/>
<text text-anchor="middle" x="396.61" y="-332" font-family="Helvetica,sans-Serif" font-size="10.00">arax_data.h</text>
</a>
</g>
</g>
<!-- Node1&#45;&gt;Node26 -->
<g id="edge46_Node000001_Node000026" class="edge">
<title>Node1&#45;&gt;Node26</title>
<g id="a_edge46_Node000001_Node000026"><a xlink:title=" ">
<path fill="none" stroke="#63b8ff" d="M642.03,-382.78C590.16,-373.16 496.76,-355.83 441.35,-345.55"/>
<polygon fill="#63b8ff" stroke="#63b8ff" points="442.27,-341.98 431.8,-343.59 440.99,-348.86 442.27,-341.98"/>
</a>
</g>
</g>
<!-- Node27 -->
<g id="Node000027" class="node">
<title>Node27</title>
<g id="a_Node000027"><a xlink:title=" ">
<polygon fill="#e0e0e0" stroke="#999999" points="831.73,-345.5 783.48,-345.5 783.48,-327 831.73,-327 831.73,-345.5"/>
<text text-anchor="middle" x="807.61" y="-332" font-family="Helvetica,sans-Serif" font-size="10.00">string.h</text>
</a>
</g>
</g>
<!-- Node1&#45;&gt;Node27 -->
<g id="edge53_Node000001_Node000027" class="edge">
<title>Node1&#45;&gt;Node27</title>
<g id="a_edge53_Node000001_Node000027"><a xlink:title=" ">
<path fill="none" stroke="#63b8ff" d="M700.75,-381.08C721.31,-372.65 752.81,-359.73 776.29,-350.1"/>
<polygon fill="#63b8ff" stroke="#63b8ff" points="777.52,-352.97 785.44,-345.93 774.86,-346.49 777.52,-352.97"/>
</a>
</g>
</g>
<!-- Node28 -->
<g id="Node000028" class="node">
<title>Node28</title>
<g id="a_Node000028"><a xlink:title=" ">
<polygon fill="#e0e0e0" stroke="#999999" points="901.23,-345.5 849.98,-345.5 849.98,-327 901.23,-327 901.23,-345.5"/>
<text text-anchor="middle" x="875.61" y="-332" font-family="Helvetica,sans-Serif" font-size="10.00">stdarg.h</text>
</a>
</g>
</g>
<!-- Node1&#45;&gt;Node28 -->
<g id="edge54_Node000001_Node000028" class="edge">
<title>Node1&#45;&gt;Node28</title>
<g id="a_edge54_Node000001_Node000028"><a xlink:title=" ">
<path fill="none" stroke="#63b8ff" d="M711.98,-381.08C747.11,-371.67 803.06,-356.68 839.57,-346.9"/>
<polygon fill="#63b8ff" stroke="#63b8ff" points="840.02,-350.14 848.78,-344.17 838.21,-343.38 840.02,-350.14"/>
</a>
</g>
</g>
<!-- Node3 -->
<g id="Node000003" class="node">
<title>Node3</title>
<g id="a_Node000003"><a xlink:href="a01376.html" target="_top" xlink:title=" ">
<polygon fill="white" stroke="#666666" points="456.23,-127.5 398.98,-127.5 398.98,-109 456.23,-109 456.23,-127.5"/>
<text text-anchor="middle" x="427.61" y="-114" font-family="Helvetica,sans-Serif" font-size="10.00">utils/list.h</text>
</a>
</g>
</g>
<!-- Node2&#45;&gt;Node3 -->
<g id="edge2_Node000002_Node000003" class="edge">
<title>Node2&#45;&gt;Node3</title>
<g id="a_edge2_Node000002_Node000003"><a xlink:title=" ">
<path fill="none" stroke="#63b8ff" d="M427.61,-163.08C427.61,-156.43 427.61,-146.99 427.61,-138.58"/>
<polygon fill="#63b8ff" stroke="#63b8ff" points="431.11,-138.76 427.61,-128.76 424.11,-138.76 431.11,-138.76"/>
</a>
</g>
</g>
<!-- Node6 -->
<g id="Node000006" class="node">
<title>Node6</title>
<g id="a_Node000006"><a xlink:href="a01382.html" target="_top" xlink:title=" ">
<polygon fill="white" stroke="#666666" points="342.23,-127.5 260.98,-127.5 260.98,-109 342.23,-109 342.23,-127.5"/>
<text text-anchor="middle" x="301.61" y="-114" font-family="Helvetica,sans-Serif" font-size="10.00">utils/spinlock.h</text>
</a>
</g>
</g>
<!-- Node2&#45;&gt;Node6 -->
<g id="edge5_Node000002_Node000006" class="edge">
<title>Node2&#45;&gt;Node6</title>
<g id="a_edge5_Node000002_Node000006"><a xlink:title=" ">
<path fill="none" stroke="#63b8ff" d="M406.8,-163.08C386.56,-154.65 355.55,-141.73 332.44,-132.1"/>
<polygon fill="#63b8ff" stroke="#63b8ff" points="334.02,-128.55 323.45,-127.93 331.33,-135.01 334.02,-128.55"/>
</a>
</g>
</g>
<!-- Node9 -->
<g id="Node000009" class="node">
<title>Node9</title>
<g id="a_Node000009"><a xlink:title=" ">
<polygon fill="#e0e0e0" stroke="#999999" points="540.73,-127.5 474.48,-127.5 474.48,-109 540.73,-109 540.73,-127.5"/>
<text text-anchor="middle" x="507.61" y="-114" font-family="Helvetica,sans-Serif" font-size="10.00">arch/alloc.h</text>
</a>
</g>
</g>
<!-- Node2&#45;&gt;Node9 -->
<g id="edge9_Node000002_Node000009" class="edge">
<title>Node2&#45;&gt;Node9</title>
<g id="a_edge9_Node000002_Node000009"><a xlink:title=" ">
<path fill="none" stroke="#63b8ff" d="M440.82,-163.08C452.86,-155.18 470.9,-143.34 485.2,-133.96"/>
<polygon fill="#63b8ff" stroke="#63b8ff" points="486.94,-136.34 493.38,-127.93 483.1,-130.49 486.94,-136.34"/>
</a>
</g>
</g>
<!-- Node4 -->
<g id="Node000004" class="node">
<title>Node4</title>
<g id="a_Node000004"><a xlink:title=" ">
<polygon fill="#e0e0e0" stroke="#999999" points="423.86,-73 373.36,-73 373.36,-54.5 423.86,-54.5 423.86,-73"/>
<text text-anchor="middle" x="398.61" y="-59.5" font-family="Helvetica,sans-Serif" font-size="10.00">stddef.h</text>
</a>
</g>
</g>
<!-- Node3&#45;&gt;Node4 -->
<g id="edge3_Node000003_Node000004" class="edge">
<title>Node3&#45;&gt;Node4</title>
<g id="a_edge3_Node000003_Node000004"><a xlink:title=" ">
<path fill="none" stroke="#63b8ff" d="M422.82,-108.58C418.94,-101.55 413.33,-91.4 408.49,-82.64"/>
<polygon fill="#63b8ff" stroke="#63b8ff" points="411.21,-81.32 403.31,-74.26 405.08,-84.7 411.21,-81.32"/>
</a>
</g>
</g>
<!-- Node5 -->
<g id="Node000005" class="node">
<title>Node5</title>
<g id="a_Node000005"><a xlink:title=" ">
<polygon fill="#e0e0e0" stroke="#999999" points="354.36,-73 306.86,-73 306.86,-54.5 354.36,-54.5 354.36,-73"/>
<text text-anchor="middle" x="330.61" y="-59.5" font-family="Helvetica,sans-Serif" font-size="10.00">stdint.h</text>
</a>
</g>
</g>
<!-- Node3&#45;&gt;Node5 -->
<g id="edge4_Node000003_Node000005" class="edge">
<title>Node3&#45;&gt;Node5</title>
<g id="a_edge4_Node000003_Node000005"><a xlink:title=" ">
<path fill="none" stroke="#63b8ff" d="M411.59,-108.58C396.57,-100.45 373.85,-88.15 356.29,-78.65"/>
<polygon fill="#63b8ff" stroke="#63b8ff" points="358.11,-75.11 347.65,-73.43 354.78,-81.27 358.11,-75.11"/>
</a>
</g>
</g>
<!-- Node6&#45;&gt;Node5 -->
<g id="edge6_Node000006_Node000005" class="edge">
<title>Node6&#45;&gt;Node5</title>
<g id="a_edge6_Node000006_Node000005"><a xlink:title=" ">
<path fill="none" stroke="#63b8ff" d="M306.4,-108.58C310.28,-101.55 315.89,-91.4 320.73,-82.64"/>
<polygon fill="#63b8ff" stroke="#63b8ff" points="324.14,-84.7 325.91,-74.26 318.01,-81.32 324.14,-84.7"/>
</a>
</g>
</g>
<!-- Node7 -->
<g id="Node000007" class="node">
<title>Node7</title>
<g id="a_Node000007"><a xlink:href="a01361.html" target="_top" xlink:title=" ">
<polygon fill="white" stroke="#666666" points="289.11,-73 192.11,-73 192.11,-54.5 289.11,-54.5 289.11,-73"/>
<text text-anchor="middle" x="240.61" y="-59.5" font-family="Helvetica,sans-Serif" font-size="10.00">utils/arax_assert.h</text>
</a>
</g>
</g>
<!-- Node6&#45;&gt;Node7 -->
<g id="edge7_Node000006_Node000007" class="edge">
<title>Node6&#45;&gt;Node7</title>
<g id="a_edge7_Node000006_Node000007"><a xlink:title=" ">
<path fill="none" stroke="#63b8ff" d="M291.54,-108.58C282.65,-100.94 269.49,-89.61 258.78,-80.38"/>
<polygon fill="#63b8ff" stroke="#63b8ff" points="261.36,-77.13 251.5,-73.26 256.79,-82.43 261.36,-77.13"/>
</a>
</g>
</g>
<!-- Node8 -->
<g id="Node000008" class="node">
<title>Node8</title>
<g id="a_Node000008"><a xlink:href="a01370.html" target="_top" xlink:title=" ">
<polygon fill="white" stroke="#666666" points="268.48,-18.5 212.73,-18.5 212.73,0 268.48,0 268.48,-18.5"/>
<text text-anchor="middle" x="240.61" y="-5" font-family="Helvetica,sans-Serif" font-size="10.00">compat.h</text>
</a>
</g>
</g>
<!-- Node7&#45;&gt;Node8 -->
<g id="edge8_Node000007_Node000008" class="edge">
<title>Node7&#45;&gt;Node8</title>
<g id="a_edge8_Node000007_Node000008"><a xlink:title=" ">
<path fill="none" stroke="#63b8ff" d="M240.61,-54.08C240.61,-47.43 240.61,-37.99 240.61,-29.58"/>
<polygon fill="#63b8ff" stroke="#63b8ff" points="244.11,-29.76 240.61,-19.76 237.11,-29.76 244.11,-29.76"/>
</a>
</g>
</g>
<!-- Node11 -->
<g id="Node000011" class="node">
<title>Node11</title>
<g id="a_Node000011"><a xlink:href="a01346.html" target="_top" xlink:title=" ">
<polygon fill="white" stroke="#666666" points="628.11,-182 585.11,-182 585.11,-163.5 628.11,-163.5 628.11,-182"/>
<text text-anchor="middle" x="606.61" y="-168.5" font-family="Helvetica,sans-Serif" font-size="10.00">arax.h</text>
</a>
</g>
</g>
<!-- Node10&#45;&gt;Node11 -->
<g id="edge11_Node000010_Node000011" class="edge">
<title>Node10&#45;&gt;Node11</title>
<g id="a_edge11_Node000010_Node000011"><a xlink:title=" ">
<path fill="none" stroke="#63b8ff" d="M560.76,-326.55C579.13,-319.1 604.28,-307.03 622.61,-291 644.84,-271.56 651.76,-264.67 660.61,-236.5 663.07,-228.66 664.13,-225.43 660.61,-218 654.75,-205.63 643.56,-195.56 632.87,-188.17"/>
<polygon fill="#63b8ff" stroke="#63b8ff" points="635.07,-184.79 624.76,-182.38 631.32,-190.7 635.07,-184.79"/>
</a>
</g>
</g>
<!-- Node17 -->
<g id="Node000017" class="node">
<title>Node17</title>
<g id="a_Node000017"><a xlink:href="a01358.html" target="_top" xlink:title=" ">
<polygon fill="white" stroke="#666666" points="357.86,-182 301.36,-182 301.36,-163.5 357.86,-163.5 357.86,-182"/>
<text text-anchor="middle" x="329.61" y="-168.5" font-family="Helvetica,sans-Serif" font-size="10.00">utils/Kv.h</text>
</a>
</g>
</g>
<!-- Node10&#45;&gt;Node17 -->
<g id="edge19_Node000010_Node000017" class="edge">
<title>Node10&#45;&gt;Node17</title>
<g id="a_edge19_Node000010_Node000017"><a xlink:title=" ">
<path fill="none" stroke="#63b8ff" d="M526.98,-326.65C504.55,-306.75 446.86,-256.33 395.61,-218 381.7,-207.6 365.51,-196.72 352.64,-188.36"/>
<polygon fill="#63b8ff" stroke="#63b8ff" points="354.85,-184.97 344.55,-182.5 351.06,-190.86 354.85,-184.97"/>
</a>
</g>
</g>
<!-- Node19 -->
<g id="Node000019" class="node">
<title>Node19</title>
<g id="a_Node000019"><a xlink:href="a01379.html" target="_top" xlink:title=" ">
<polygon fill="white" stroke="#666666" points="276.36,-182 204.86,-182 204.86,-163.5 276.36,-163.5 276.36,-182"/>
<text text-anchor="middle" x="240.61" y="-168.5" font-family="Helvetica,sans-Serif" font-size="10.00">utils/queue.h</text>
</a>
</g>
</g>
<!-- Node10&#45;&gt;Node19 -->
<g id="edge23_Node000010_Node000019" class="edge">
<title>Node10&#45;&gt;Node19</title>
<g id="a_edge23_Node000010_Node000019"><a xlink:title=" ">
<path fill="none" stroke="#63b8ff" d="M521.24,-326.61C486.39,-307.05 398.63,-257.96 324.61,-218 305.39,-207.62 283.56,-196.14 266.98,-187.46"/>
<polygon fill="#63b8ff" stroke="#63b8ff" points="268.88,-183.99 258.4,-182.47 265.64,-190.19 268.88,-183.99"/>
</a>
</g>
</g>
<!-- Node10&#45;&gt;Node20 -->
<g id="edge28_Node000010_Node000020" class="edge">
<title>Node10&#45;&gt;Node20</title>
<g id="a_edge28_Node000010_Node000020"><a xlink:title=" ">
<path fill="none" stroke="#63b8ff" d="M502.75,-328.39C459.1,-319.54 382.69,-304.05 331.13,-293.6"/>
<polygon fill="#63b8ff" stroke="#63b8ff" points="332.02,-290.01 321.53,-291.45 330.63,-296.87 332.02,-290.01"/>
</a>
</g>
</g>
<!-- Node10&#45;&gt;Node24 -->
<g id="edge38_Node000010_Node000024" class="edge">
<title>Node10&#45;&gt;Node24</title>
<g id="a_edge38_Node000010_Node000024"><a xlink:title=" ">
<path fill="none" stroke="#63b8ff" d="M541.89,-326.58C546.18,-319.55 552.37,-309.4 557.71,-300.64"/>
<polygon fill="#63b8ff" stroke="#63b8ff" points="561.21,-302.62 563.42,-292.26 555.23,-298.98 561.21,-302.62"/>
</a>
</g>
</g>
<!-- Node11&#45;&gt;Node4 -->
<g id="edge13_Node000011_Node000004" class="edge">
<title>Node11&#45;&gt;Node4</title>
<g id="a_edge13_Node000011_Node000004"><a xlink:title=" ">
<path fill="none" stroke="#63b8ff" d="M601.07,-163.06C591.97,-149.5 572.57,-123.37 549.61,-109 514.09,-86.77 466.91,-75.29 434.81,-69.66"/>
<polygon fill="#63b8ff" stroke="#63b8ff" points="435.56,-66.07 425.12,-67.91 434.42,-72.98 435.56,-66.07"/>
</a>
</g>
</g>
<!-- Node11&#45;&gt;Node12 -->
<g id="edge12_Node000011_Node000012" class="edge">
<title>Node11&#45;&gt;Node12</title>
<g id="a_edge12_Node000011_Node000012"><a xlink:title=" ">
<path fill="none" stroke="#63b8ff" d="M628.26,-165.83C661.61,-156.71 725.8,-139.16 765.15,-128.4"/>
<polygon fill="#63b8ff" stroke="#63b8ff" points="765.83,-131.57 774.55,-125.56 763.98,-124.82 765.83,-131.57"/>
</a>
</g>
</g>
<!-- Node13 -->
<g id="Node000013" class="node">
<title>Node13</title>
<g id="a_Node000013"><a xlink:href="a01352.html" target="_top" xlink:title=" ">
<polygon fill="white" stroke="#666666" points="688.11,-73 615.11,-73 615.11,-54.5 688.11,-54.5 688.11,-73"/>
<text text-anchor="middle" x="651.61" y="-59.5" font-family="Helvetica,sans-Serif" font-size="10.00">arax_types.h</text>
</a>
</g>
</g>
<!-- Node11&#45;&gt;Node13 -->
<g id="edge14_Node000011_Node000013" class="edge">
<title>Node11&#45;&gt;Node13</title>
<g id="a_edge14_Node000011_Node000013"><a xlink:title=" ">
<path fill="none" stroke="#63b8ff" d="M608.47,-163.4C611.34,-151.17 617.39,-127.77 625.61,-109 629.59,-99.92 635.02,-90.37 639.89,-82.48"/>
<polygon fill="#63b8ff" stroke="#63b8ff" points="643.36,-84.55 645.8,-74.24 637.46,-80.78 643.36,-84.55"/>
</a>
</g>
</g>
<!-- Node16 -->
<g id="Node000016" class="node">
<title>Node16</title>
<g id="a_Node000016"><a xlink:href="a01394.html" target="_top" xlink:title=" ">
<polygon fill="white" stroke="#666666" points="758.23,-127.5 634.98,-127.5 634.98,-109 758.23,-109 758.23,-127.5"/>
<text text-anchor="middle" x="696.61" y="-114" font-family="Helvetica,sans-Serif" font-size="10.00">core/arax_accel_types.h</text>
</a>
</g>
</g>
<!-- Node11&#45;&gt;Node16 -->
<g id="edge17_Node000011_Node000016" class="edge">
<title>Node11&#45;&gt;Node16</title>
<g id="a_edge17_Node000011_Node000016"><a xlink:title=" ">
<path fill="none" stroke="#63b8ff" d="M621.47,-163.08C635.28,-155.03 656.1,-142.88 672.32,-133.42"/>
<polygon fill="#63b8ff" stroke="#63b8ff" points="673.85,-135.99 680.73,-127.93 670.32,-129.95 673.85,-135.99"/>
</a>
</g>
</g>
<!-- Node14 -->
<g id="Node000014" class="node">
<title>Node14</title>
<g id="a_Node000014"><a xlink:title=" ">
<polygon fill="#e0e0e0" stroke="#999999" points="646.73,-18.5 586.48,-18.5 586.48,0 646.73,0 646.73,-18.5"/>
<text text-anchor="middle" x="616.61" y="-5" font-family="Helvetica,sans-Serif" font-size="10.00">sys/time.h</text>
</a>
</g>
</g>
<!-- Node13&#45;&gt;Node14 -->
<g id="edge15_Node000013_Node000014" class="edge">
<title>Node13&#45;&gt;Node14</title>
<g id="a_edge15_Node000013_Node000014"><a xlink:title=" ">
<path fill="none" stroke="#63b8ff" d="M645.83,-54.08C641.09,-46.97 634.23,-36.68 628.34,-27.85"/>
<polygon fill="#63b8ff" stroke="#63b8ff" points="630.74,-26.14 622.28,-19.76 624.92,-30.02 630.74,-26.14"/>
</a>
</g>
</g>
<!-- Node15 -->
<g id="Node000015" class="node">
<title>Node15</title>
<g id="a_Node000015"><a xlink:title=" ">
<polygon fill="#e0e0e0" stroke="#999999" points="708.11,-18.5 665.11,-18.5 665.11,0 708.11,0 708.11,-18.5"/>
<text text-anchor="middle" x="686.61" y="-5" font-family="Helvetica,sans-Serif" font-size="10.00">time.h</text>
</a>
</g>
</g>
<!-- Node13&#45;&gt;Node15 -->
<g id="edge16_Node000013_Node000015" class="edge">
<title>Node13&#45;&gt;Node15</title>
<g id="a_edge16_Node000013_Node000015"><a xlink:title=" ">
<path fill="none" stroke="#63b8ff" d="M657.39,-54.08C662.13,-46.97 668.99,-36.68 674.88,-27.85"/>
<polygon fill="#63b8ff" stroke="#63b8ff" points="678.3,-30.02 680.94,-19.76 672.48,-26.14 678.3,-30.02"/>
</a>
</g>
</g>
<!-- Node16&#45;&gt;Node13 -->
<g id="edge18_Node000016_Node000013" class="edge">
<title>Node16&#45;&gt;Node13</title>
<g id="a_edge18_Node000016_Node000013"><a xlink:title=" ">
<path fill="none" stroke="#63b8ff" d="M689.18,-108.58C682.89,-101.24 673.69,-90.51 665.97,-81.5"/>
<polygon fill="#63b8ff" stroke="#63b8ff" points="668.07,-79.57 658.9,-74.26 662.75,-84.13 668.07,-79.57"/>
</a>
</g>
</g>
<!-- Node17&#45;&gt;Node4 -->
<g id="edge21_Node000017_Node000004" class="edge">
<title>Node17&#45;&gt;Node4</title>
<g id="a_edge21_Node000017_Node000004"><a xlink:title=" ">
<path fill="none" stroke="#63b8ff" d="M335.02,-163.35C346.2,-146.02 372.06,-105.93 387.13,-82.55"/>
<polygon fill="#63b8ff" stroke="#63b8ff" points="390.55,-84.71 393.03,-74.4 384.67,-80.91 390.55,-84.71"/>
</a>
</g>
</g>
<!-- Node17&#45;&gt;Node6 -->
<g id="edge22_Node000017_Node000006" class="edge">
<title>Node17&#45;&gt;Node6</title>
<g id="a_edge22_Node000017_Node000006"><a xlink:title=" ">
<path fill="none" stroke="#63b8ff" d="M324.99,-163.08C321.28,-156.12 315.94,-146.12 311.3,-137.42"/>
<polygon fill="#63b8ff" stroke="#63b8ff" points="313.94,-135.93 306.15,-128.76 307.77,-139.23 313.94,-135.93"/>
</a>
</g>
</g>
<!-- Node18 -->
<g id="Node000018" class="node">
<title>Node18</title>
<g id="a_Node000018"><a xlink:href="a01427.html" target="_top" xlink:title=" ">
<polygon fill="white" stroke="#666666" points="166.73,-127.5 124.48,-127.5 124.48,-109 166.73,-109 166.73,-127.5"/>
<text text-anchor="middle" x="145.61" y="-114" font-family="Helvetica,sans-Serif" font-size="10.00">conf.h</text>
</a>
</g>
</g>
<!-- Node17&#45;&gt;Node18 -->
<g id="edge20_Node000017_Node000018" class="edge">
<title>Node17&#45;&gt;Node18</title>
<g id="a_edge20_Node000017_Node000018"><a xlink:title=" ">
<path fill="none" stroke="#63b8ff" d="M300.86,-163.55C267.39,-154 212.27,-138.27 177.5,-128.35"/>
<polygon fill="#63b8ff" stroke="#63b8ff" points="178.56,-124.73 167.99,-125.35 176.64,-131.46 178.56,-124.73"/>
</a>
</g>
</g>
<!-- Node19&#45;&gt;Node4 -->
<g id="edge24_Node000019_Node000004" class="edge">
<title>Node19&#45;&gt;Node4</title>
<g id="a_edge24_Node000019_Node000004"><a xlink:title=" ">
<path fill="none" stroke="#63b8ff" d="M239.52,-163.26C238.33,-149.98 238.1,-124.22 251.61,-109 259.14,-100.51 321.69,-83.74 362.74,-73.46"/>
<polygon fill="#63b8ff" stroke="#63b8ff" points="363.31,-76.67 372.17,-70.87 361.62,-69.88 363.31,-76.67"/>
</a>
</g>
</g>
<!-- Node19&#45;&gt;Node5 -->
<g id="edge25_Node000019_Node000005" class="edge">
<title>Node19&#45;&gt;Node5</title>
<g id="a_edge25_Node000019_Node000005"><a xlink:title=" ">
<path fill="none" stroke="#63b8ff" d="M233.2,-163.41C222.9,-150.76 206.79,-126.37 218.61,-109 227.69,-95.64 266.62,-82.29 296.05,-73.8"/>
<polygon fill="#63b8ff" stroke="#63b8ff" points="296.71,-76.97 305.39,-70.9 294.82,-70.23 296.71,-76.97"/>
</a>
</g>
</g>
<!-- Node19&#45;&gt;Node6 -->
<g id="edge27_Node000019_Node000006" class="edge">
<title>Node19&#45;&gt;Node6</title>
<g id="a_edge27_Node000019_Node000006"><a xlink:title=" ">
<path fill="none" stroke="#63b8ff" d="M250.68,-163.08C259.57,-155.44 272.73,-144.11 283.44,-134.88"/>
<polygon fill="#63b8ff" stroke="#63b8ff" points="285.43,-136.93 290.72,-127.76 280.86,-131.63 285.43,-136.93"/>
</a>
</g>
</g>
<!-- Node19&#45;&gt;Node18 -->
<g id="edge26_Node000019_Node000018" class="edge">
<title>Node19&#45;&gt;Node18</title>
<g id="a_edge26_Node000019_Node000018"><a xlink:title=" ">
<path fill="none" stroke="#63b8ff" d="M224.92,-163.08C210.21,-154.95 187.96,-142.65 170.76,-133.15"/>
<polygon fill="#63b8ff" stroke="#63b8ff" points="172.77,-129.71 162.32,-127.93 169.38,-135.83 172.77,-129.71"/>
</a>
</g>
</g>
<!-- Node20&#45;&gt;Node11 -->
<g id="edge29_Node000020_Node000011" class="edge">
<title>Node20&#45;&gt;Node11</title>
<g id="a_edge29_Node000020_Node000011"><a xlink:title=" ">
<path fill="none" stroke="#63b8ff" d="M304.25,-272.08C364.27,-252.57 509.83,-205.23 574.6,-184.16"/>
<polygon fill="#63b8ff" stroke="#63b8ff" points="575.57,-187.2 584,-180.78 573.41,-180.54 575.57,-187.2"/>
</a>
</g>
</g>
<!-- Node21 -->
<g id="Node000021" class="node">
<title>Node21</title>
<g id="a_Node000021"><a xlink:title=" ">
<polygon fill="#e0e0e0" stroke="#999999" points="176.48,-182 126.73,-182 126.73,-163.5 176.48,-163.5 176.48,-182"/>
<text text-anchor="middle" x="151.61" y="-168.5" font-family="Helvetica,sans-Serif" font-size="10.00">async.h</text>
</a>
</g>
</g>
<!-- Node20&#45;&gt;Node21 -->
<g id="edge30_Node000020_Node000021" class="edge">
<title>Node20&#45;&gt;Node21</title>
<g id="a_edge30_Node000020_Node000021"><a xlink:title=" ">
<path fill="none" stroke="#63b8ff" d="M239.42,-272.01C218.19,-265.41 192.69,-254.35 175.61,-236.5 164.13,-224.51 158,-206.46 154.82,-192.79"/>
<polygon fill="#63b8ff" stroke="#63b8ff" points="158.09,-192.3 152.72,-183.17 151.22,-193.66 158.09,-192.3"/>
</a>
</g>
</g>
<!-- Node22 -->
<g id="Node000022" class="node">
<title>Node22</title>
<g id="a_Node000022"><a xlink:href="a01418.html" target="_top" xlink:title=" ">
<polygon fill="white" stroke="#666666" points="315.86,-236.5 217.36,-236.5 217.36,-218 315.86,-218 315.86,-236.5"/>
<text text-anchor="middle" x="266.61" y="-223" font-family="Helvetica,sans-Serif" font-size="10.00">core/arax_vaccel.h</text>
</a>
</g>
</g>
<!-- Node20&#45;&gt;Node22 -->
<g id="edge31_Node000020_Node000022" class="edge">
<title>Node20&#45;&gt;Node22</title>
<g id="a_edge31_Node000020_Node000022"><a xlink:title=" ">
<path fill="none" stroke="#63b8ff" d="M270.63,-272.08C267.79,-265.43 265.36,-255.99 264.12,-247.58"/>
<polygon fill="#63b8ff" stroke="#63b8ff" points="267.54,-247.45 263.26,-237.76 260.57,-248 267.54,-247.45"/>
</a>
</g>
</g>
<!-- Node23 -->
<g id="Node000023" class="node">
<title>Node23</title>
<g id="a_Node000023"><a xlink:href="a01415.html" target="_top" xlink:title=" ">
<polygon fill="white" stroke="#666666" points="123.98,-236.5 23.23,-236.5 23.23,-218 123.98,-218 123.98,-236.5"/>
<text text-anchor="middle" x="73.61" y="-223" font-family="Helvetica,sans-Serif" font-size="10.00">core/arax_throttle.h</text>
</a>
</g>
</g>
<!-- Node20&#45;&gt;Node23 -->
<g id="edge36_Node000020_Node000023" class="edge">
<title>Node20&#45;&gt;Node23</title>
<g id="a_edge36_Node000020_Node000023"><a xlink:title=" ">
<path fill="none" stroke="#63b8ff" d="M243.92,-272.08C209.37,-263.19 155.47,-249.32 117.58,-239.57"/>
<polygon fill="#63b8ff" stroke="#63b8ff" points="118.9,-236.04 108.35,-236.93 117.16,-242.81 118.9,-236.04"/>
</a>
</g>
</g>
<!-- Node22&#45;&gt;Node2 -->
<g id="edge32_Node000022_Node000002" class="edge">
<title>Node22&#45;&gt;Node2</title>
<g id="a_edge32_Node000022_Node000002"><a xlink:title=" ">
<path fill="none" stroke="#63b8ff" d="M293.2,-217.58C319.76,-208.92 360.83,-195.53 390.58,-185.82"/>
<polygon fill="#63b8ff" stroke="#63b8ff" points="391.56,-188.86 399.98,-182.43 389.39,-182.2 391.56,-188.86"/>
</a>
</g>
</g>
<!-- Node22&#45;&gt;Node19 -->
<g id="edge33_Node000022_Node000019" class="edge">
<title>Node22&#45;&gt;Node19</title>
<g id="a_edge33_Node000022_Node000019"><a xlink:title=" ">
<path fill="none" stroke="#63b8ff" d="M262.32,-217.58C258.87,-210.62 253.92,-200.62 249.61,-191.92"/>
<polygon fill="#63b8ff" stroke="#63b8ff" points="252.4,-190.67 244.82,-183.26 246.13,-193.77 252.4,-190.67"/>
</a>
</g>
</g>
<!-- Node22&#45;&gt;Node20 -->
<g id="edge34_Node000022_Node000020" class="edge">
<title>Node22&#45;&gt;Node20</title>
<g id="a_edge34_Node000022_Node000020"><a xlink:title=" ">
<path fill="none" stroke="#63b8ff" d="M273.52,-236.76C276.37,-243.36 278.81,-252.79 280.07,-261.22"/>
<polygon fill="#63b8ff" stroke="#63b8ff" points="276.65,-261.4 280.96,-271.08 283.63,-260.83 276.65,-261.4"/>
</a>
</g>
</g>
<!-- Node22&#45;&gt;Node21 -->
<g id="edge35_Node000022_Node000021" class="edge">
<title>Node22&#45;&gt;Node21</title>
<g id="a_edge35_Node000022_Node000021"><a xlink:title=" ">
<path fill="none" stroke="#63b8ff" d="M247.62,-217.58C229.39,-209.26 201.61,-196.58 180.61,-186.99"/>
<polygon fill="#63b8ff" stroke="#63b8ff" points="182.18,-183.4 171.63,-182.43 179.27,-189.77 182.18,-183.4"/>
</a>
</g>
</g>
<!-- Node23&#45;&gt;Node21 -->
<g id="edge37_Node000023_Node000021" class="edge">
<title>Node23&#45;&gt;Node21</title>
<g id="a_edge37_Node000023_Node000021"><a xlink:title=" ">
<path fill="none" stroke="#63b8ff" d="M86.49,-217.58C98.23,-209.68 115.82,-197.84 129.76,-188.46"/>
<polygon fill="#63b8ff" stroke="#63b8ff" points="131.37,-190.92 137.71,-182.43 127.46,-185.11 131.37,-190.92"/>
</a>
</g>
</g>
<!-- Node24&#45;&gt;Node21 -->
<g id="edge42_Node000024_Node000021" class="edge">
<title>Node24&#45;&gt;Node21</title>
<g id="a_edge42_Node000024_Node000021"><a xlink:title=" ">
<path fill="none" stroke="#63b8ff" d="M523.41,-279.09C439.32,-275.38 262.5,-264.41 208.61,-236.5 188.86,-226.27 172.56,-206.25 162.53,-191.57"/>
<polygon fill="#63b8ff" stroke="#63b8ff" points="164.99,-189.93 156.61,-183.44 159.11,-193.73 164.99,-189.93"/>
</a>
</g>
</g>
<!-- Node24&#45;&gt;Node25 -->
<g id="edge39_Node000024_Node000025" class="edge">
<title>Node24&#45;&gt;Node25</title>
<g id="a_edge39_Node000024_Node000025"><a xlink:title=" ">
<path fill="none" stroke="#63b8ff" d="M574.88,-272.08C580.09,-264.89 587.64,-254.45 594.08,-245.57"/>
<polygon fill="#63b8ff" stroke="#63b8ff" points="597.42,-247.91 600.45,-237.76 591.75,-243.81 597.42,-247.91"/>
</a>
</g>
</g>
<!-- Node25&#45;&gt;Node2 -->
<g id="edge41_Node000025_Node000002" class="edge">
<title>Node25&#45;&gt;Node2</title>
<g id="a_edge41_Node000025_Node000002"><a xlink:title=" ">
<path fill="none" stroke="#63b8ff" d="M577.05,-217.58C547.12,-208.8 500.65,-195.17 467.48,-185.44"/>
<polygon fill="#63b8ff" stroke="#63b8ff" points="468.79,-181.89 458.21,-182.43 466.82,-188.61 468.79,-181.89"/>
</a>
</g>
</g>
<!-- Node25&#45;&gt;Node11 -->
<g id="edge40_Node000025_Node000011" class="edge">
<title>Node25&#45;&gt;Node11</title>
<g id="a_edge40_Node000025_Node000011"><a xlink:title=" ">
<path fill="none" stroke="#63b8ff" d="M606.61,-217.58C606.61,-210.93 606.61,-201.49 606.61,-193.08"/>
<polygon fill="#63b8ff" stroke="#63b8ff" points="610.11,-193.26 606.61,-183.26 603.11,-193.26 610.11,-193.26"/>
</a>
</g>
</g>
<!-- Node26&#45;&gt;Node2 -->
<g id="edge48_Node000026_Node000002" class="edge">
<title>Node26&#45;&gt;Node2</title>
<g id="a_edge48_Node000026_Node000002"><a xlink:title=" ">
<path fill="none" stroke="#63b8ff" d="M398.28,-326.57C403.09,-301.48 417.11,-228.46 423.87,-193.22"/>
<polygon fill="#63b8ff" stroke="#63b8ff" points="427.49,-193.96 425.94,-183.48 420.61,-192.64 427.49,-193.96"/>
</a>
</g>
</g>
<!-- Node26&#45;&gt;Node11 -->
<g id="edge47_Node000026_Node000011" class="edge">
<title>Node26&#45;&gt;Node11</title>
<g id="a_edge47_Node000026_Node000011"><a xlink:title=" ">
<path fill="none" stroke="#63b8ff" d="M407.9,-326.57C441.87,-300.44 543.45,-222.32 586.73,-189.04"/>
<polygon fill="#63b8ff" stroke="#63b8ff" points="588.47,-191.35 594.26,-182.48 584.2,-185.8 588.47,-191.35"/>
</a>
</g>
</g>
<!-- Node26&#45;&gt;Node18 -->
<g id="edge50_Node000026_Node000018" class="edge">
<title>Node26&#45;&gt;Node18</title>
<g id="a_edge50_Node000026_Node000018"><a xlink:title=" ">
<path fill="none" stroke="#63b8ff" d="M362.36,-332.94C289.88,-327.67 123.4,-313.45 71.61,-291 36.39,-275.73 21.1,-271.16 4.61,-236.5 -20.75,-183.18 64.65,-145.57 113.63,-128.9"/>
<polygon fill="#63b8ff" stroke="#63b8ff" points="114.64,-131.92 123.05,-125.48 112.46,-125.27 114.64,-131.92"/>
</a>
</g>
</g>
<!-- Node26&#45;&gt;Node20 -->
<g id="edge51_Node000026_Node000020" class="edge">
<title>Node26&#45;&gt;Node20</title>
<g id="a_edge51_Node000026_Node000020"><a xlink:title=" ">
<path fill="none" stroke="#63b8ff" d="M376.96,-326.58C358.01,-318.22 329.08,-305.46 307.32,-295.86"/>
<polygon fill="#63b8ff" stroke="#63b8ff" points="308.85,-292.27 298.29,-291.43 306.03,-298.67 308.85,-292.27"/>
</a>
</g>
</g>
<!-- Node26&#45;&gt;Node21 -->
<g id="edge49_Node000026_Node000021" class="edge">
<title>Node26&#45;&gt;Node21</title>
<g id="a_edge49_Node000026_Node000021"><a xlink:title=" ">
<path fill="none" stroke="#63b8ff" d="M362.27,-331.68C276.65,-321.98 57.47,-292.11 14.61,-236.5 -14.27,-199.03 66,-183.19 115.64,-177.11"/>
<polygon fill="#63b8ff" stroke="#63b8ff" points="115.77,-180.51 125.31,-175.9 114.98,-173.55 115.77,-180.51"/>
</a>
</g>
</g>
</g>
</svg>
