<?xml version="1.0" encoding="UTF-8" standalone="no"?>
<!DOCTYPE svg PUBLIC "-//W3C//DTD SVG 1.1//EN"
 "http://www.w3.org/Graphics/SVG/1.1/DTD/svg11.dtd">
<!-- Generated by graphviz version 12.2.1 (0)
 -->
<!-- Title: utils_config_write_str Pages: 1 -->
<svg width="482pt" height="77pt"
 viewBox="0.00 0.00 482.25 77.48" xmlns="http://www.w3.org/2000/svg" xmlns:xlink="http://www.w3.org/1999/xlink">
<g id="graph0" class="graph" transform="scale(1 1) rotate(0) translate(4 73.48)">
<title>utils_config_write_str</title>
<!-- Node1 -->
<g id="Node000001" class="node">
<title>Node1</title>
<g id="a_Node000001"><a xlink:title=" ">
<polygon fill="#999999" stroke="#666666" points="108.25,-36.5 0,-36.5 0,-18 108.25,-18 108.25,-36.5"/>
<text text-anchor="middle" x="54.12" y="-23" font-family="Helvetica,sans-Serif" font-size="10.00">utils_config_write_str</text>
</a>
</g>
</g>
<!-- Node2 -->
<g id="Node000002" class="node">
<title>Node2</title>
<g id="a_Node000002"><a xlink:href="a01952.html#a8b687fb4c464903e23504eea3ddc3873" target="_top" xlink:title=" ">
<polygon fill="white" stroke="#666666" points="197.75,-55.5 144.25,-55.5 144.25,-37 197.75,-37 197.75,-55.5"/>
<text text-anchor="middle" x="171" y="-42" font-family="Helvetica,sans-Serif" font-size="10.00">conf_get</text>
</a>
</g>
</g>
<!-- Node1&#45;&gt;Node2 -->
<g id="edge1_Node000001_Node000002" class="edge">
<title>Node1&#45;&gt;Node2</title>
<g id="a_edge1_Node000001_Node000002"><a xlink:title=" ">
<path fill="none" stroke="#63b8ff" d="M108.53,-36.08C116.7,-37.43 124.98,-38.8 132.7,-40.08"/>
<polygon fill="#63b8ff" stroke="#63b8ff" points="131.98,-43.51 142.42,-41.69 133.12,-36.6 131.98,-43.51"/>
</a>
</g>
</g>
<!-- Node6 -->
<g id="Node000006" class="node">
<title>Node6</title>
<g id="a_Node000006"><a xlink:href="a01952.html#ab87e9691e65d65348749f8dc70f24602" target="_top" xlink:title=" ">
<polygon fill="white" stroke="#666666" points="197.75,-18.5 144.25,-18.5 144.25,0 197.75,0 197.75,-18.5"/>
<text text-anchor="middle" x="171" y="-5" font-family="Helvetica,sans-Serif" font-size="10.00">conf_set</text>
</a>
</g>
</g>
<!-- Node1&#45;&gt;Node6 -->
<g id="edge6_Node000001_Node000006" class="edge">
<title>Node1&#45;&gt;Node6</title>
<g id="a_edge6_Node000001_Node000006"><a xlink:title=" ">
<path fill="none" stroke="#63b8ff" d="M108.53,-18.88C116.7,-17.6 124.98,-16.3 132.7,-15.09"/>
<polygon fill="#63b8ff" stroke="#63b8ff" points="133.08,-18.58 142.42,-13.57 131.99,-11.66 133.08,-18.58"/>
</a>
</g>
</g>
<!-- Node3 -->
<g id="Node000003" class="node">
<title>Node3</title>
<g id="a_Node000003"><a xlink:href="a01961.html#acde493d3889d6f207d1e122cf4bb1b8c" target="_top" xlink:title=" ">
<polygon fill="white" stroke="#666666" points="474.25,-55.5 388.5,-55.5 388.5,-37 474.25,-37 474.25,-55.5"/>
<text text-anchor="middle" x="431.38" y="-42" font-family="Helvetica,sans-Serif" font-size="10.00">system_env_var</text>
</a>
</g>
</g>
<!-- Node2&#45;&gt;Node3 -->
<g id="edge2_Node000002_Node000003" class="edge">
<title>Node2&#45;&gt;Node3</title>
<g id="a_edge2_Node000002_Node000003"><a xlink:title=" ">
<path fill="none" stroke="#63b8ff" d="M198.08,-55.63C208.96,-59.08 221.81,-62.55 233.75,-64.25 286,-71.71 300.06,-70.23 352.5,-64.25 363.13,-63.04 374.42,-60.92 385.01,-58.56"/>
<polygon fill="#63b8ff" stroke="#63b8ff" points="385.76,-61.98 394.69,-56.27 384.16,-55.16 385.76,-61.98"/>
</a>
</g>
</g>
<!-- Node4 -->
<g id="Node000004" class="node">
<title>Node4</title>
<g id="a_Node000004"><a xlink:href="a01961.html#a86c3bfbf6daaf8172e131aa23dc7393c" target="_top" xlink:title=" ">
<polygon fill="white" stroke="#666666" points="336.75,-55.5 249.5,-55.5 249.5,-37 336.75,-37 336.75,-55.5"/>
<text text-anchor="middle" x="293.12" y="-42" font-family="Helvetica,sans-Serif" font-size="10.00">system_file_size</text>
</a>
</g>
</g>
<!-- Node2&#45;&gt;Node4 -->
<g id="edge3_Node000002_Node000004" class="edge">
<title>Node2&#45;&gt;Node4</title>
<g id="a_edge3_Node000002_Node000004"><a xlink:title=" ">
<path fill="none" stroke="#63b8ff" d="M198.07,-46.25C209.71,-46.25 223.9,-46.25 237.68,-46.25"/>
<polygon fill="#63b8ff" stroke="#63b8ff" points="237.59,-49.75 247.59,-46.25 237.59,-42.75 237.59,-49.75"/>
</a>
</g>
</g>
<!-- Node5 -->
<g id="Node000005" class="node">
<title>Node5</title>
<g id="a_Node000005"><a xlink:href="a01952.html#a17713c8e9b90065e23b0ec1a225f79ab" target="_top" xlink:title=" ">
<polygon fill="white" stroke="#666666" points="352.5,-18.5 233.75,-18.5 233.75,0 352.5,0 352.5,-18.5"/>
<text text-anchor="middle" x="293.12" y="-5" font-family="Helvetica,sans-Serif" font-size="10.00">utils_config_get_source</text>
</a>
</g>
</g>
<!-- Node2&#45;&gt;Node5 -->
<g id="edge4_Node000002_Node000005" class="edge">
<title>Node2&#45;&gt;Node5</title>
<g id="a_edge4_Node000002_Node000005"><a xlink:title=" ">
<path fill="none" stroke="#63b8ff" d="M198.07,-38.22C213.12,-33.58 232.43,-27.64 249.63,-22.34"/>
<polygon fill="#63b8ff" stroke="#63b8ff" points="250.59,-25.71 259.11,-19.42 248.53,-19.02 250.59,-25.71"/>
</a>
</g>
</g>
<!-- Node5&#45;&gt;Node3 -->
<g id="edge5_Node000005_Node000003" class="edge">
<title>Node5&#45;&gt;Node3</title>
<g id="a_edge5_Node000005_Node000003"><a xlink:title=" ">
<path fill="none" stroke="#63b8ff" d="M329.92,-18.97C346.43,-23.45 366.23,-28.83 383.88,-33.62"/>
<polygon fill="#63b8ff" stroke="#63b8ff" points="382.79,-36.95 393.36,-36.2 384.62,-30.2 382.79,-36.95"/>
</a>
</g>
</g>
<!-- Node6&#45;&gt;Node5 -->
<g id="edge7_Node000006_Node000005" class="edge">
<title>Node6&#45;&gt;Node5</title>
<g id="a_edge7_Node000006_Node000005"><a xlink:title=" ">
<path fill="none" stroke="#63b8ff" d="M198.07,-9.25C205.36,-9.25 213.65,-9.25 222.21,-9.25"/>
<polygon fill="#63b8ff" stroke="#63b8ff" points="222.06,-12.75 232.06,-9.25 222.06,-5.75 222.06,-12.75"/>
</a>
</g>
</g>
</g>
</svg>
