<?xml version="1.0" encoding="UTF-8" standalone="no"?>
<!DOCTYPE svg PUBLIC "-//W3C//DTD SVG 1.1//EN"
 "http://www.w3.org/Graphics/SVG/1.1/DTD/svg11.dtd">
<!-- Generated by graphviz version 8.0.5 (0)
 -->
<!-- Title: bitmap.c Pages: 1 -->
<svg width="269pt" height="245pt"
 viewBox="0.00 0.00 269.38 244.50" xmlns="http://www.w3.org/2000/svg" xmlns:xlink="http://www.w3.org/1999/xlink">
<g id="graph0" class="graph" transform="scale(1 1) rotate(0) translate(4 240.5)">
<title>bitmap.c</title>
<!-- Node1 -->
<g id="Node000001" class="node">
<title>Node1</title>
<g id="a_Node000001"><a xlink:title=" ">
<polygon fill="#999999" stroke="#666666" points="200.5,-236.5 147,-236.5 147,-218 200.5,-218 200.5,-236.5"/>
<text text-anchor="middle" x="173.75" y="-223" font-family="Helvetica,sans-Serif" font-size="10.00">bitmap.c</text>
</a>
</g>
</g>
<!-- Node2 -->
<g id="Node000002" class="node">
<title>Node2</title>
<g id="a_Node000002"><a xlink:href="a01367.html" target="_top" xlink:title=" ">
<polygon fill="white" stroke="#666666" points="131.5,-182 78,-182 78,-163.5 131.5,-163.5 131.5,-182"/>
<text text-anchor="middle" x="104.75" y="-168.5" font-family="Helvetica,sans-Serif" font-size="10.00">bitmap.h</text>
</a>
</g>
</g>
<!-- Node1&#45;&gt;Node2 -->
<g id="edge1_Node000001_Node000002" class="edge">
<title>Node1&#45;&gt;Node2</title>
<g id="a_edge1_Node000001_Node000002"><a xlink:title=" ">
<path fill="none" stroke="#63b8ff" d="M162.36,-217.58C152.11,-209.78 136.82,-198.15 124.57,-188.83"/>
<polygon fill="#63b8ff" stroke="#63b8ff" points="127.01,-185.53 116.93,-182.26 122.77,-191.1 127.01,-185.53"/>
</a>
</g>
</g>
<!-- Node8 -->
<g id="Node000008" class="node">
<title>Node8</title>
<g id="a_Node000008"><a xlink:title=" ">
<polygon fill="#e0e0e0" stroke="#999999" points="197.88,-182 149.62,-182 149.62,-163.5 197.88,-163.5 197.88,-182"/>
<text text-anchor="middle" x="173.75" y="-168.5" font-family="Helvetica,sans-Serif" font-size="10.00">string.h</text>
</a>
</g>
</g>
<!-- Node1&#45;&gt;Node8 -->
<g id="edge7_Node000001_Node000008" class="edge">
<title>Node1&#45;&gt;Node8</title>
<g id="a_edge7_Node000001_Node000008"><a xlink:title=" ">
<path fill="none" stroke="#63b8ff" d="M173.75,-217.58C173.75,-210.93 173.75,-201.49 173.75,-193.08"/>
<polygon fill="#63b8ff" stroke="#63b8ff" points="177.25,-193.26 173.75,-183.26 170.25,-193.26 177.25,-193.26"/>
</a>
</g>
</g>
<!-- Node9 -->
<g id="Node000009" class="node">
<title>Node9</title>
<g id="a_Node000009"><a xlink:title=" ">
<polygon fill="#e0e0e0" stroke="#999999" points="261.38,-182 216.12,-182 216.12,-163.5 261.38,-163.5 261.38,-182"/>
<text text-anchor="middle" x="238.75" y="-168.5" font-family="Helvetica,sans-Serif" font-size="10.00">stdio.h</text>
</a>
</g>
</g>
<!-- Node1&#45;&gt;Node9 -->
<g id="edge8_Node000001_Node000009" class="edge">
<title>Node1&#45;&gt;Node9</title>
<g id="a_edge8_Node000001_Node000009"><a xlink:title=" ">
<path fill="none" stroke="#63b8ff" d="M184.48,-217.58C194.04,-209.86 208.25,-198.38 219.73,-189.11"/>
<polygon fill="#63b8ff" stroke="#63b8ff" points="221.64,-191.26 227.22,-182.26 217.24,-185.82 221.64,-191.26"/>
</a>
</g>
</g>
<!-- Node3 -->
<g id="Node000003" class="node">
<title>Node3</title>
<g id="a_Node000003"><a xlink:href="a01382.html" target="_top" xlink:title=" ">
<polygon fill="white" stroke="#666666" points="98.88,-127.5 38.62,-127.5 38.62,-109 98.88,-109 98.88,-127.5"/>
<text text-anchor="middle" x="68.75" y="-114" font-family="Helvetica,sans-Serif" font-size="10.00">spinlock.h</text>
</a>
</g>
</g>
<!-- Node2&#45;&gt;Node3 -->
<g id="edge2_Node000002_Node000003" class="edge">
<title>Node2&#45;&gt;Node3</title>
<g id="a_edge2_Node000002_Node000003"><a xlink:title=" ">
<path fill="none" stroke="#63b8ff" d="M98.81,-163.08C93.88,-155.89 86.72,-145.45 80.62,-136.57"/>
<polygon fill="#63b8ff" stroke="#63b8ff" points="83.13,-135.03 74.58,-128.76 77.35,-138.98 83.13,-135.03"/>
</a>
</g>
</g>
<!-- Node7 -->
<g id="Node000007" class="node">
<title>Node7</title>
<g id="a_Node000007"><a xlink:title=" ">
<polygon fill="#e0e0e0" stroke="#999999" points="167,-127.5 116.5,-127.5 116.5,-109 167,-109 167,-127.5"/>
<text text-anchor="middle" x="141.75" y="-114" font-family="Helvetica,sans-Serif" font-size="10.00">stddef.h</text>
</a>
</g>
</g>
<!-- Node2&#45;&gt;Node7 -->
<g id="edge6_Node000002_Node000007" class="edge">
<title>Node2&#45;&gt;Node7</title>
<g id="a_edge6_Node000002_Node000007"><a xlink:title=" ">
<path fill="none" stroke="#63b8ff" d="M110.86,-163.08C115.92,-155.89 123.28,-145.45 129.55,-136.57"/>
<polygon fill="#63b8ff" stroke="#63b8ff" points="132.85,-138.95 135.75,-128.76 127.13,-134.92 132.85,-138.95"/>
</a>
</g>
</g>
<!-- Node4 -->
<g id="Node000004" class="node">
<title>Node4</title>
<g id="a_Node000004"><a xlink:title=" ">
<polygon fill="#e0e0e0" stroke="#999999" points="47.5,-73 0,-73 0,-54.5 47.5,-54.5 47.5,-73"/>
<text text-anchor="middle" x="23.75" y="-59.5" font-family="Helvetica,sans-Serif" font-size="10.00">stdint.h</text>
</a>
</g>
</g>
<!-- Node3&#45;&gt;Node4 -->
<g id="edge3_Node000003_Node000004" class="edge">
<title>Node3&#45;&gt;Node4</title>
<g id="a_edge3_Node000003_Node000004"><a xlink:title=" ">
<path fill="none" stroke="#63b8ff" d="M61.32,-108.58C55.03,-101.24 45.83,-90.51 38.11,-81.5"/>
<polygon fill="#63b8ff" stroke="#63b8ff" points="40.21,-79.57 31.04,-74.26 34.89,-84.13 40.21,-79.57"/>
</a>
</g>
</g>
<!-- Node5 -->
<g id="Node000005" class="node">
<title>Node5</title>
<g id="a_Node000005"><a xlink:href="a01361.html" target="_top" xlink:title=" ">
<polygon fill="white" stroke="#666666" points="162.25,-73 65.25,-73 65.25,-54.5 162.25,-54.5 162.25,-73"/>
<text text-anchor="middle" x="113.75" y="-59.5" font-family="Helvetica,sans-Serif" font-size="10.00">utils/arax_assert.h</text>
</a>
</g>
</g>
<!-- Node3&#45;&gt;Node5 -->
<g id="edge4_Node000003_Node000005" class="edge">
<title>Node3&#45;&gt;Node5</title>
<g id="a_edge4_Node000003_Node000005"><a xlink:title=" ">
<path fill="none" stroke="#63b8ff" d="M76.18,-108.58C82.47,-101.24 91.67,-90.51 99.39,-81.5"/>
<polygon fill="#63b8ff" stroke="#63b8ff" points="102.61,-84.13 106.46,-74.26 97.29,-79.57 102.61,-84.13"/>
</a>
</g>
</g>
<!-- Node6 -->
<g id="Node000006" class="node">
<title>Node6</title>
<g id="a_Node000006"><a xlink:href="a01370.html" target="_top" xlink:title=" ">
<polygon fill="white" stroke="#666666" points="141.62,-18.5 85.88,-18.5 85.88,0 141.62,0 141.62,-18.5"/>
<text text-anchor="middle" x="113.75" y="-5" font-family="Helvetica,sans-Serif" font-size="10.00">compat.h</text>
</a>
</g>
</g>
<!-- Node5&#45;&gt;Node6 -->
<g id="edge5_Node000005_Node000006" class="edge">
<title>Node5&#45;&gt;Node6</title>
<g id="a_edge5_Node000005_Node000006"><a xlink:title=" ">
<path fill="none" stroke="#63b8ff" d="M113.75,-54.08C113.75,-47.43 113.75,-37.99 113.75,-29.58"/>
<polygon fill="#63b8ff" stroke="#63b8ff" points="117.25,-29.76 113.75,-19.76 110.25,-29.76 117.25,-29.76"/>
</a>
</g>
</g>
</g>
</svg>
