<?xml version="1.0" encoding="UTF-8" standalone="no"?>
<!DOCTYPE svg PUBLIC "-//W3C//DTD SVG 1.1//EN"
 "http://www.w3.org/Graphics/SVG/1.1/DTD/svg11.dtd">
<!-- Generated by graphviz version 12.2.1 (0)
 -->
<!-- Title: arax_throttle.c Pages: 1 -->
<svg width="265pt" height="136pt"
 viewBox="0.00 0.00 265.12 135.50" xmlns="http://www.w3.org/2000/svg" xmlns:xlink="http://www.w3.org/1999/xlink">
<g id="graph0" class="graph" transform="scale(1 1) rotate(0) translate(4 131.5)">
<title>arax_throttle.c</title>
<!-- Node1 -->
<g id="Node000001" class="node">
<title>Node1</title>
<g id="a_Node000001"><a xlink:title=" ">
<polygon fill="#999999" stroke="#666666" points="185,-127.5 106,-127.5 106,-109 185,-109 185,-127.5"/>
<text text-anchor="middle" x="145.5" y="-114" font-family="Helvetica,sans-Serif" font-size="10.00">arax_throttle.c</text>
</a>
</g>
</g>
<!-- Node2 -->
<g id="Node000002" class="node">
<title>Node2</title>
<g id="a_Node000002"><a xlink:href="a01427.html" target="_top" xlink:title=" ">
<polygon fill="white" stroke="#666666" points="79,-73 0,-73 0,-54.5 79,-54.5 79,-73"/>
<text text-anchor="middle" x="39.5" y="-59.5" font-family="Helvetica,sans-Serif" font-size="10.00">arax_throttle.h</text>
</a>
</g>
</g>
<!-- Node1&#45;&gt;Node2 -->
<g id="edge1_Node000001_Node000002" class="edge">
<title>Node1&#45;&gt;Node2</title>
<g id="a_edge1_Node000001_Node000002"><a xlink:title=" ">
<path fill="none" stroke="#63b8ff" d="M128,-108.58C111.5,-100.41 86.52,-88.04 67.3,-78.52"/>
<polygon fill="#63b8ff" stroke="#63b8ff" points="68.9,-75.41 58.39,-74.1 65.79,-81.68 68.9,-75.41"/>
</a>
</g>
</g>
<!-- Node4 -->
<g id="Node000004" class="node">
<title>Node4</title>
<g id="a_Node000004"><a xlink:href="a01373.html" target="_top" xlink:title=" ">
<polygon fill="white" stroke="#666666" points="194,-73 97,-73 97,-54.5 194,-54.5 194,-73"/>
<text text-anchor="middle" x="145.5" y="-59.5" font-family="Helvetica,sans-Serif" font-size="10.00">utils/arax_assert.h</text>
</a>
</g>
</g>
<!-- Node1&#45;&gt;Node4 -->
<g id="edge3_Node000001_Node000004" class="edge">
<title>Node1&#45;&gt;Node4</title>
<g id="a_edge3_Node000001_Node000004"><a xlink:title=" ">
<path fill="none" stroke="#63b8ff" d="M145.5,-108.58C145.5,-102.08 145.5,-92.92 145.5,-84.66"/>
<polygon fill="#63b8ff" stroke="#63b8ff" points="149,-84.77 145.5,-74.77 142,-84.77 149,-84.77"/>
</a>
</g>
</g>
<!-- Node6 -->
<g id="Node000006" class="node">
<title>Node6</title>
<g id="a_Node000006"><a xlink:title=" ">
<polygon fill="#e0e0e0" stroke="#999999" points="257.12,-73 211.88,-73 211.88,-54.5 257.12,-54.5 257.12,-73"/>
<text text-anchor="middle" x="234.5" y="-59.5" font-family="Helvetica,sans-Serif" font-size="10.00">stdio.h</text>
</a>
</g>
</g>
<!-- Node1&#45;&gt;Node6 -->
<g id="edge5_Node000001_Node000006" class="edge">
<title>Node1&#45;&gt;Node6</title>
<g id="a_edge5_Node000001_Node000006"><a xlink:title=" ">
<path fill="none" stroke="#63b8ff" d="M160.2,-108.58C173.72,-100.6 194.05,-88.61 210.03,-79.19"/>
<polygon fill="#63b8ff" stroke="#63b8ff" points="211.64,-82.3 218.48,-74.2 208.09,-76.27 211.64,-82.3"/>
</a>
</g>
</g>
<!-- Node3 -->
<g id="Node000003" class="node">
<title>Node3</title>
<g id="a_Node000003"><a xlink:title=" ">
<polygon fill="#e0e0e0" stroke="#999999" points="64.38,-18.5 14.62,-18.5 14.62,0 64.38,0 64.38,-18.5"/>
<text text-anchor="middle" x="39.5" y="-5" font-family="Helvetica,sans-Serif" font-size="10.00">async.h</text>
</a>
</g>
</g>
<!-- Node2&#45;&gt;Node3 -->
<g id="edge2_Node000002_Node000003" class="edge">
<title>Node2&#45;&gt;Node3</title>
<g id="a_edge2_Node000002_Node000003"><a xlink:title=" ">
<path fill="none" stroke="#63b8ff" d="M39.5,-54.08C39.5,-47.58 39.5,-38.42 39.5,-30.16"/>
<polygon fill="#63b8ff" stroke="#63b8ff" points="43,-30.27 39.5,-20.27 36,-30.27 43,-30.27"/>
</a>
</g>
</g>
<!-- Node5 -->
<g id="Node000005" class="node">
<title>Node5</title>
<g id="a_Node000005"><a xlink:href="a01382.html" target="_top" xlink:title=" ">
<polygon fill="white" stroke="#666666" points="173.38,-18.5 117.62,-18.5 117.62,0 173.38,0 173.38,-18.5"/>
<text text-anchor="middle" x="145.5" y="-5" font-family="Helvetica,sans-Serif" font-size="10.00">compat.h</text>
</a>
</g>
</g>
<!-- Node4&#45;&gt;Node5 -->
<g id="edge4_Node000004_Node000005" class="edge">
<title>Node4&#45;&gt;Node5</title>
<g id="a_edge4_Node000004_Node000005"><a xlink:title=" ">
<path fill="none" stroke="#63b8ff" d="M145.5,-54.08C145.5,-47.58 145.5,-38.42 145.5,-30.16"/>
<polygon fill="#63b8ff" stroke="#63b8ff" points="149,-30.27 145.5,-20.27 142,-30.27 149,-30.27"/>
</a>
</g>
</g>
</g>
</svg>
