<?xml version="1.0" encoding="UTF-8" standalone="no"?>
<!DOCTYPE svg PUBLIC "-//W3C//DTD SVG 1.1//EN"
 "http://www.w3.org/Graphics/SVG/1.1/DTD/svg11.dtd">
<!-- Generated by graphviz version 8.0.5 (0)
 -->
<!-- Title: arax_pipe_size_inc Pages: 1 -->
<svg width="1136pt" height="436pt"
 viewBox="0.00 0.00 1135.75 435.75" xmlns="http://www.w3.org/2000/svg" xmlns:xlink="http://www.w3.org/1999/xlink">
<g id="graph0" class="graph" transform="scale(1 1) rotate(0) translate(4 431.75)">
<title>arax_pipe_size_inc</title>
<!-- Node1 -->
<g id="Node000001" class="node">
<title>Node1</title>
<g id="a_Node000001"><a xlink:title=" ">
<polygon fill="#999999" stroke="#666666" points="1127.75,-164.75 1028.5,-164.75 1028.5,-146.25 1127.75,-146.25 1127.75,-164.75"/>
<text text-anchor="middle" x="1078.12" y="-151.25" font-family="Helvetica,sans-Serif" font-size="10.00">arax_pipe_size_inc</text>
</a>
</g>
</g>
<!-- Node2 -->
<g id="Node000002" class="node">
<title>Node2</title>
<g id="a_Node000002"><a xlink:href="a01910.html#afe7e4a63c40fbcaae742b8de8693483f" target="_top" xlink:title=" ">
<polygon fill="white" stroke="#666666" points="992.5,-260.75 888,-260.75 888,-242.25 992.5,-242.25 992.5,-260.75"/>
<text text-anchor="middle" x="940.25" y="-247.25" font-family="Helvetica,sans-Serif" font-size="10.00">arax_object_ref_dec</text>
</a>
</g>
</g>
<!-- Node1&#45;&gt;Node2 -->
<g id="edge1_Node000001_Node000002" class="edge">
<title>Node1&#45;&gt;Node2</title>
<g id="a_edge1_Node000001_Node000002"><a xlink:title=" ">
<path fill="none" stroke="#63b8ff" d="M1054.49,-171.49C1025.99,-191.63 977.92,-225.59 954.66,-242.03"/>
<polygon fill="#63b8ff" stroke="#63b8ff" points="1056.2,-173.86 1062.35,-165.23 1052.16,-168.15 1056.2,-173.86"/>
</a>
</g>
</g>
<!-- Node23 -->
<g id="Node000023" class="node">
<title>Node23</title>
<g id="a_Node000023"><a xlink:href="a01910.html#a0a0b147b7fc892c291afe60cb0fa2c1c" target="_top" xlink:title=" ">
<polygon fill="white" stroke="#666666" points="992.5,-149 888,-149 888,-120 992.5,-120 992.5,-149"/>
<text text-anchor="start" x="896" y="-135.5" font-family="Helvetica,sans-Serif" font-size="10.00">arax_object_ref_dec</text>
<text text-anchor="middle" x="940.25" y="-125" font-family="Helvetica,sans-Serif" font-size="10.00">_pre_locked</text>
</a>
</g>
</g>
<!-- Node1&#45;&gt;Node23 -->
<g id="edge30_Node000001_Node000023" class="edge">
<title>Node1&#45;&gt;Node23</title>
<g id="a_edge30_Node000001_Node000023"><a xlink:title=" ">
<path fill="none" stroke="#63b8ff" d="M1017.47,-146.28C1009.31,-145.02 1000.99,-143.73 992.98,-142.5"/>
<polygon fill="#63b8ff" stroke="#63b8ff" points="1016.65,-149.85 1027.07,-147.92 1017.72,-142.93 1016.65,-149.85"/>
</a>
</g>
</g>
<!-- Node3 -->
<g id="Node000003" class="node">
<title>Node3</title>
<g id="a_Node000003"><a xlink:href="a02175.html#ga41bcefd54b929d1a638d174da051130f" target="_top" xlink:title=" ">
<polygon fill="white" stroke="#666666" points="837.75,-353.75 734,-353.75 734,-335.25 837.75,-335.25 837.75,-353.75"/>
<text text-anchor="middle" x="785.88" y="-340.25" font-family="Helvetica,sans-Serif" font-size="10.00">arax_accel_list_free</text>
</a>
</g>
</g>
<!-- Node2&#45;&gt;Node3 -->
<g id="edge2_Node000002_Node000003" class="edge">
<title>Node2&#45;&gt;Node3</title>
<g id="a_edge2_Node000002_Node000003"><a xlink:title=" ">
<path fill="none" stroke="#63b8ff" d="M922.95,-269.07C906.53,-285.8 879.7,-310.59 852,-325.5 845.05,-329.24 837.28,-332.32 829.59,-334.84"/>
<polygon fill="#63b8ff" stroke="#63b8ff" points="925.15,-271.79 929.54,-262.15 920.1,-266.94 925.15,-271.79"/>
</a>
</g>
</g>
<!-- Node4 -->
<g id="Node000004" class="node">
<title>Node4</title>
<g id="a_Node000004"><a xlink:href="a02175.html#ga497b17905d4c7ee2f5ee831d367ece92" target="_top" xlink:title=" ">
<polygon fill="white" stroke="#666666" points="836.25,-316.75 735.5,-316.75 735.5,-298.25 836.25,-298.25 836.25,-316.75"/>
<text text-anchor="middle" x="785.88" y="-303.25" font-family="Helvetica,sans-Serif" font-size="10.00">arax_accel_release</text>
</a>
</g>
</g>
<!-- Node2&#45;&gt;Node4 -->
<g id="edge3_Node000002_Node000004" class="edge">
<title>Node2&#45;&gt;Node4</title>
<g id="a_edge3_Node000002_Node000004"><a xlink:title=" ">
<path fill="none" stroke="#63b8ff" d="M908.66,-265.51C892.08,-272.84 871.12,-281.68 852,-288.5 842.68,-291.82 832.47,-295.01 822.95,-297.79"/>
<polygon fill="#63b8ff" stroke="#63b8ff" points="909.67,-268.45 917.37,-261.17 906.81,-262.06 909.67,-268.45"/>
</a>
</g>
</g>
<!-- Node6 -->
<g id="Node000006" class="node">
<title>Node6</title>
<g id="a_Node000006"><a xlink:href="a01931.html#a96e0520e5569748ce1172bafca24fafe" target="_top" xlink:title=" ">
<polygon fill="white" stroke="#666666" points="826.5,-279.75 745.25,-279.75 745.25,-261.25 826.5,-261.25 826.5,-279.75"/>
<text text-anchor="middle" x="785.88" y="-266.25" font-family="Helvetica,sans-Serif" font-size="10.00">arax_data_free</text>
</a>
</g>
</g>
<!-- Node2&#45;&gt;Node6 -->
<g id="edge5_Node000002_Node000006" class="edge">
<title>Node2&#45;&gt;Node6</title>
<g id="a_edge5_Node000002_Node000006"><a xlink:title=" ">
<path fill="none" stroke="#63b8ff" d="M876.75,-259.29C859.89,-261.4 842.11,-263.61 826.85,-265.52"/>
<polygon fill="#63b8ff" stroke="#63b8ff" points="877.17,-262.64 886.66,-257.93 876.31,-255.7 877.17,-262.64"/>
</a>
</g>
</g>
<!-- Node7 -->
<g id="Node000007" class="node">
<title>Node7</title>
<g id="a_Node000007"><a xlink:href="a01931.html#a4b65f90a821aca384f0ca1cff7bd1846" target="_top" xlink:title=" ">
<polygon fill="white" stroke="#666666" points="848.62,-187.75 723.12,-187.75 723.12,-169.25 848.62,-169.25 848.62,-187.75"/>
<text text-anchor="middle" x="785.88" y="-174.25" font-family="Helvetica,sans-Serif" font-size="10.00">arax_data_migrate_accel</text>
</a>
</g>
</g>
<!-- Node2&#45;&gt;Node7 -->
<g id="edge6_Node000002_Node000007" class="edge">
<title>Node2&#45;&gt;Node7</title>
<g id="a_edge6_Node000002_Node000007"><a xlink:title=" ">
<path fill="none" stroke="#63b8ff" d="M909.43,-237.22C879.26,-222.76 833.42,-200.8 807.19,-188.23"/>
<polygon fill="#63b8ff" stroke="#63b8ff" points="907.49,-240.64 918.02,-241.81 910.51,-234.33 907.49,-240.64"/>
</a>
</g>
</g>
<!-- Node16 -->
<g id="Node000016" class="node">
<title>Node16</title>
<g id="a_Node000016"><a xlink:href="a01931.html#af735744d0f8bec04394639a841d2ba0f" target="_top" xlink:title=" ">
<polygon fill="white" stroke="#666666" points="270.5,-67.75 138.25,-67.75 138.25,-49.25 270.5,-49.25 270.5,-67.75"/>
<text text-anchor="middle" x="204.38" y="-54.25" font-family="Helvetica,sans-Serif" font-size="10.00">ARAX_OBJ_DTOR_DECL</text>
</a>
</g>
</g>
<!-- Node2&#45;&gt;Node16 -->
<g id="edge20_Node000002_Node000016" class="edge">
<title>Node2&#45;&gt;Node16</title>
<g id="a_edge20_Node000002_Node000016"><a xlink:title=" ">
<path fill="none" stroke="#63b8ff" d="M928.93,-232.49C908.47,-195.09 863.71,-114.82 852,-106.5 765.62,-45.09 724.61,-57.5 618.62,-57.5 618.62,-57.5 618.62,-57.5 472,-57.5 403.38,-57.5 324.82,-57.84 270.84,-58.12"/>
<polygon fill="#63b8ff" stroke="#63b8ff" points="926.15,-233.7 934.01,-240.81 932.3,-230.35 926.15,-233.7"/>
</a>
</g>
</g>
<!-- Node19 -->
<g id="Node000019" class="node">
<title>Node19</title>
<g id="a_Node000019"><a xlink:href="a01922.html#a5eb16d4196838d10a2b57715f2eddee7" target="_top" xlink:title=" ">
<polygon fill="white" stroke="#666666" points="852,-427.75 719.75,-427.75 719.75,-409.25 852,-409.25 852,-427.75"/>
<text text-anchor="middle" x="785.88" y="-414.25" font-family="Helvetica,sans-Serif" font-size="10.00">ARAX_OBJ_DTOR_DECL</text>
</a>
</g>
</g>
<!-- Node2&#45;&gt;Node19 -->
<g id="edge21_Node000002_Node000019" class="edge">
<title>Node2&#45;&gt;Node19</title>
<g id="a_edge21_Node000002_Node000019"><a xlink:title=" ">
<path fill="none" stroke="#63b8ff" d="M932.94,-271.39C921.8,-303.25 895.62,-365.58 852,-399.5 847.07,-403.33 841.39,-406.39 835.49,-408.83"/>
<polygon fill="#63b8ff" stroke="#63b8ff" points="936.51,-272.74 936.36,-262.14 929.87,-270.52 936.51,-272.74"/>
</a>
</g>
</g>
<!-- Node20 -->
<g id="Node000020" class="node">
<title>Node20</title>
<g id="a_Node000020"><a xlink:href="a01913.html#aa0862a60d187bfed0cfa11bf27174551" target="_top" xlink:title=" ">
<polygon fill="white" stroke="#666666" points="845.25,-390.75 726.5,-390.75 726.5,-372.25 845.25,-372.25 845.25,-390.75"/>
<text text-anchor="middle" x="785.88" y="-377.25" font-family="Helvetica,sans-Serif" font-size="10.00">arax_pipe_delete_accel</text>
</a>
</g>
</g>
<!-- Node2&#45;&gt;Node20 -->
<g id="edge22_Node000002_Node000020" class="edge">
<title>Node2&#45;&gt;Node20</title>
<g id="a_edge22_Node000002_Node000020"><a xlink:title=" ">
<path fill="none" stroke="#63b8ff" d="M929.25,-270.59C915.26,-295.43 887.54,-338.48 852,-362.5 846.34,-366.32 839.9,-369.39 833.33,-371.85"/>
<polygon fill="#63b8ff" stroke="#63b8ff" points="932.67,-272.63 934.38,-262.17 926.52,-269.28 932.67,-272.63"/>
</a>
</g>
</g>
<!-- Node21 -->
<g id="Node000021" class="node">
<title>Node21</title>
<g id="a_Node000021"><a xlink:href="a02176.html#ga70242aa6d9591e5fa3dbb36f1e27a896" target="_top" xlink:title=" ">
<polygon fill="white" stroke="#666666" points="389.62,-104.75 311.38,-104.75 311.38,-86.25 389.62,-86.25 389.62,-104.75"/>
<text text-anchor="middle" x="350.5" y="-91.25" font-family="Helvetica,sans-Serif" font-size="10.00">arax_proc_put</text>
</a>
</g>
</g>
<!-- Node2&#45;&gt;Node21 -->
<g id="edge23_Node000002_Node000021" class="edge">
<title>Node2&#45;&gt;Node21</title>
<g id="a_edge23_Node000002_Node000021"><a xlink:title=" ">
<path fill="none" stroke="#63b8ff" d="M926.47,-233.1C911.13,-212.41 883.5,-179.24 852,-160.5 700.64,-70.46 478.42,-81.74 389.92,-90.74"/>
<polygon fill="#63b8ff" stroke="#63b8ff" points="924.11,-234.82 932.8,-240.89 929.79,-230.73 924.11,-234.82"/>
</a>
</g>
</g>
<!-- Node22 -->
<g id="Node000022" class="node">
<title>Node22</title>
<g id="a_Node000022"><a xlink:href="a02177.html#ga55195957c1cde1508257782716aa6db3" target="_top" xlink:title=" ">
<polygon fill="white" stroke="#666666" points="391.12,-199.75 309.88,-199.75 309.88,-181.25 391.12,-181.25 391.12,-199.75"/>
<text text-anchor="middle" x="350.5" y="-186.25" font-family="Helvetica,sans-Serif" font-size="10.00">arax_task_free</text>
</a>
</g>
</g>
<!-- Node2&#45;&gt;Node22 -->
<g id="edge26_Node000002_Node000022" class="edge">
<title>Node2&#45;&gt;Node22</title>
<g id="a_edge26_Node000002_Node000022"><a xlink:title=" ">
<path fill="none" stroke="#63b8ff" d="M876.76,-249.05C799.98,-245.61 665.81,-238.16 551.5,-224.5 495.72,-217.83 431.81,-206.28 391.55,-198.51"/>
<polygon fill="#63b8ff" stroke="#63b8ff" points="876.52,-252.59 886.67,-249.53 876.83,-245.6 876.52,-252.59"/>
</a>
</g>
</g>
<!-- Node5 -->
<g id="Node000005" class="node">
<title>Node5</title>
<g id="a_Node000005"><a xlink:href="a01904.html#a871ba8da471f464d7e10b13d5db07101" target="_top" xlink:title=" ">
<polygon fill="white" stroke="#666666" points="683.75,-316.75 551.5,-316.75 551.5,-298.25 683.75,-298.25 683.75,-316.75"/>
<text text-anchor="middle" x="617.62" y="-303.25" font-family="Helvetica,sans-Serif" font-size="10.00">ARAX_OBJ_DTOR_DECL</text>
</a>
</g>
</g>
<!-- Node4&#45;&gt;Node5 -->
<g id="edge4_Node000004_Node000005" class="edge">
<title>Node4&#45;&gt;Node5</title>
<g id="a_edge4_Node000004_Node000005"><a xlink:title=" ">
<path fill="none" stroke="#63b8ff" d="M724.63,-307.5C711.49,-307.5 697.53,-307.5 684.19,-307.5"/>
<polygon fill="#63b8ff" stroke="#63b8ff" points="724.44,-311 734.44,-307.5 724.44,-304 724.44,-311"/>
</a>
</g>
</g>
<!-- Node8 -->
<g id="Node000008" class="node">
<title>Node8</title>
<g id="a_Node000008"><a xlink:href="a01931.html#a113a3c52b0c3b4f3b390921ee4c5022e" target="_top" xlink:title=" ">
<polygon fill="white" stroke="#666666" points="665.75,-215.75 569.5,-215.75 569.5,-197.25 665.75,-197.25 665.75,-215.75"/>
<text text-anchor="middle" x="617.62" y="-202.25" font-family="Helvetica,sans-Serif" font-size="10.00">arax_data_arg_init</text>
</a>
</g>
</g>
<!-- Node7&#45;&gt;Node8 -->
<g id="edge7_Node000007_Node000008" class="edge">
<title>Node7&#45;&gt;Node8</title>
<g id="a_edge7_Node000007_Node000008"><a xlink:title=" ">
<path fill="none" stroke="#63b8ff" d="M716.73,-189.98C699.7,-192.85 681.8,-195.86 666.02,-198.52"/>
<polygon fill="#63b8ff" stroke="#63b8ff" points="716.92,-193.33 726.2,-188.21 715.75,-186.42 716.92,-193.33"/>
</a>
</g>
</g>
<!-- Node9 -->
<g id="Node000009" class="node">
<title>Node9</title>
<g id="a_Node000009"><a xlink:href="a01931.html#a1dc669466d6f52d5be8af2d991512ac2" target="_top" xlink:title=" ">
<polygon fill="white" stroke="#666666" points="669.5,-178.75 565.75,-178.75 565.75,-160.25 669.5,-160.25 669.5,-178.75"/>
<text text-anchor="middle" x="617.62" y="-165.25" font-family="Helvetica,sans-Serif" font-size="10.00">arax_data_input_init</text>
</a>
</g>
</g>
<!-- Node7&#45;&gt;Node9 -->
<g id="edge8_Node000007_Node000009" class="edge">
<title>Node7&#45;&gt;Node9</title>
<g id="a_edge8_Node000007_Node000009"><a xlink:title=" ">
<path fill="none" stroke="#63b8ff" d="M712.2,-174.57C697.97,-173.8 683.33,-173 669.98,-172.28"/>
<polygon fill="#63b8ff" stroke="#63b8ff" points="711.8,-178.1 721.97,-175.15 712.17,-171.11 711.8,-178.1"/>
</a>
</g>
</g>
<!-- Node18 -->
<g id="Node000018" class="node">
<title>Node18</title>
<g id="a_Node000018"><a xlink:href="a01931.html#a18d07d808917e0b971d46332e9e64da4" target="_top" xlink:title=" ">
<polygon fill="white" stroke="#666666" points="672.5,-141.75 562.75,-141.75 562.75,-123.25 672.5,-123.25 672.5,-141.75"/>
<text text-anchor="middle" x="617.62" y="-128.25" font-family="Helvetica,sans-Serif" font-size="10.00">arax_data_output_init</text>
</a>
</g>
</g>
<!-- Node7&#45;&gt;Node18 -->
<g id="edge18_Node000007_Node000018" class="edge">
<title>Node7&#45;&gt;Node18</title>
<g id="a_edge18_Node000007_Node000018"><a xlink:title=" ">
<path fill="none" stroke="#63b8ff" d="M739.65,-165.99C712.6,-158.5 678.74,-149.13 653.72,-142.21"/>
<polygon fill="#63b8ff" stroke="#63b8ff" points="738.45,-169.56 749.02,-168.86 740.32,-162.82 738.45,-169.56"/>
</a>
</g>
</g>
<!-- Node10 -->
<g id="Node000010" class="node">
<title>Node10</title>
<g id="a_Node000010"><a xlink:href="a01922.html#a27bee94f7a23281c8b2b72ec433f6059" target="_top" xlink:title=" ">
<polygon fill="white" stroke="#666666" points="515.5,-141.75 430.5,-141.75 430.5,-123.25 515.5,-123.25 515.5,-141.75"/>
<text text-anchor="middle" x="473" y="-128.25" font-family="Helvetica,sans-Serif" font-size="10.00">arax_task_alloc</text>
</a>
</g>
</g>
<!-- Node9&#45;&gt;Node10 -->
<g id="edge9_Node000009_Node000010" class="edge">
<title>Node9&#45;&gt;Node10</title>
<g id="a_edge9_Node000009_Node000010"><a xlink:title=" ">
<path fill="none" stroke="#63b8ff" d="M568.73,-157.08C549.98,-152.21 528.79,-146.71 511.22,-142.16"/>
<polygon fill="#63b8ff" stroke="#63b8ff" points="567.59,-160.66 578.15,-159.78 569.35,-153.88 567.59,-160.66"/>
</a>
</g>
</g>
<!-- Node11 -->
<g id="Node000011" class="node">
<title>Node11</title>
<g id="a_Node000011"><a xlink:href="a02177.html#gac9f0f3fbb14da879d3ff09bd367bbb24" target="_top" xlink:title=" ">
<polygon fill="white" stroke="#666666" points="394.5,-141.75 306.5,-141.75 306.5,-123.25 394.5,-123.25 394.5,-141.75"/>
<text text-anchor="middle" x="350.5" y="-128.25" font-family="Helvetica,sans-Serif" font-size="10.00">arax_task_issue</text>
</a>
</g>
</g>
<!-- Node10&#45;&gt;Node11 -->
<g id="edge10_Node000010_Node000011" class="edge">
<title>Node10&#45;&gt;Node11</title>
<g id="a_edge10_Node000010_Node000011"><a xlink:title=" ">
<path fill="none" stroke="#63b8ff" d="M419.26,-132.5C411.11,-132.5 402.78,-132.5 394.87,-132.5"/>
<polygon fill="#63b8ff" stroke="#63b8ff" points="419.19,-136 429.19,-132.5 419.19,-129 419.19,-136"/>
</a>
</g>
</g>
<!-- Node12 -->
<g id="Node000012" class="node">
<title>Node12</title>
<g id="a_Node000012"><a xlink:href="a01931.html#af8ede6fc8d207004035f45d945688d2c" target="_top" xlink:title=" ">
<polygon fill="white" stroke="#666666" points="253.62,-226 155.12,-226 155.12,-197 253.62,-197 253.62,-226"/>
<text text-anchor="start" x="163.12" y="-212.5" font-family="Helvetica,sans-Serif" font-size="10.00">arax_data_allocate</text>
<text text-anchor="middle" x="204.38" y="-202" font-family="Helvetica,sans-Serif" font-size="10.00">_remote</text>
</a>
</g>
</g>
<!-- Node11&#45;&gt;Node12 -->
<g id="edge11_Node000011_Node000012" class="edge">
<title>Node11&#45;&gt;Node12</title>
<g id="a_edge11_Node000011_Node000012"><a xlink:title=" ">
<path fill="none" stroke="#63b8ff" d="M329.55,-148.54C314.1,-160.41 291.81,-176.39 270.5,-187.5 264.2,-190.79 257.34,-193.83 250.52,-196.58"/>
<polygon fill="#63b8ff" stroke="#63b8ff" points="331.08,-151 336.8,-142.09 326.76,-145.49 331.08,-151"/>
</a>
</g>
</g>
<!-- Node13 -->
<g id="Node000013" class="node">
<title>Node13</title>
<g id="a_Node000013"><a xlink:href="a01931.html#a696bc4319d0f6c6baa7d797a8df6b56f" target="_top" xlink:title=" ">
<polygon fill="white" stroke="#666666" points="243.5,-141.75 165.25,-141.75 165.25,-123.25 243.5,-123.25 243.5,-141.75"/>
<text text-anchor="middle" x="204.38" y="-128.25" font-family="Helvetica,sans-Serif" font-size="10.00">arax_data_get</text>
</a>
</g>
</g>
<!-- Node11&#45;&gt;Node13 -->
<g id="edge12_Node000011_Node000013" class="edge">
<title>Node11&#45;&gt;Node13</title>
<g id="a_edge12_Node000011_Node000013"><a xlink:title=" ">
<path fill="none" stroke="#63b8ff" d="M295.72,-132.5C278.43,-132.5 259.64,-132.5 243.69,-132.5"/>
<polygon fill="#63b8ff" stroke="#63b8ff" points="295.26,-136 305.26,-132.5 295.26,-129 295.26,-136"/>
</a>
</g>
</g>
<!-- Node15 -->
<g id="Node000015" class="node">
<title>Node15</title>
<g id="a_Node000015"><a xlink:href="a01931.html#a8995f71dba475975efc37756783cfce9" target="_top" xlink:title=" ">
<polygon fill="white" stroke="#666666" points="243.5,-104.75 165.25,-104.75 165.25,-86.25 243.5,-86.25 243.5,-104.75"/>
<text text-anchor="middle" x="204.38" y="-91.25" font-family="Helvetica,sans-Serif" font-size="10.00">arax_data_set</text>
</a>
</g>
</g>
<!-- Node11&#45;&gt;Node15 -->
<g id="edge14_Node000011_Node000015" class="edge">
<title>Node11&#45;&gt;Node15</title>
<g id="a_edge14_Node000011_Node000015"><a xlink:title=" ">
<path fill="none" stroke="#63b8ff" d="M301.14,-120.09C282.27,-115.24 260.96,-109.77 243.24,-105.22"/>
<polygon fill="#63b8ff" stroke="#63b8ff" points="300.08,-123.68 310.63,-122.78 301.82,-116.9 300.08,-123.68"/>
</a>
</g>
</g>
<!-- Node11&#45;&gt;Node16 -->
<g id="edge16_Node000011_Node000016" class="edge">
<title>Node11&#45;&gt;Node16</title>
<g id="a_edge16_Node000011_Node000016"><a xlink:title=" ">
<path fill="none" stroke="#63b8ff" d="M314.04,-118.12C311.42,-116.67 308.88,-115.13 306.5,-113.5 287.83,-100.71 289.97,-89.03 270.5,-77.5 264.12,-73.72 256.93,-70.65 249.72,-68.17"/>
<polygon fill="#63b8ff" stroke="#63b8ff" points="312.15,-121.59 322.66,-122.94 315.28,-115.33 312.15,-121.59"/>
</a>
</g>
</g>
<!-- Node17 -->
<g id="Node000017" class="node">
<title>Node17</title>
<g id="a_Node000017"><a xlink:href="a02177.html#ga1418f4cd7336bf77cce7b955a1bf7077" target="_top" xlink:title=" ">
<polygon fill="white" stroke="#666666" points="261.12,-178.75 147.62,-178.75 147.62,-160.25 261.12,-160.25 261.12,-178.75"/>
<text text-anchor="middle" x="204.38" y="-165.25" font-family="Helvetica,sans-Serif" font-size="10.00">arax_task_issue_sync</text>
</a>
</g>
</g>
<!-- Node11&#45;&gt;Node17 -->
<g id="edge17_Node000011_Node000017" class="edge">
<title>Node11&#45;&gt;Node17</title>
<g id="a_edge17_Node000011_Node000017"><a xlink:title=" ">
<path fill="none" stroke="#63b8ff" d="M301.14,-144.91C282.27,-149.76 260.96,-155.23 243.24,-159.78"/>
<polygon fill="#63b8ff" stroke="#63b8ff" points="301.82,-148.1 310.63,-142.22 300.08,-141.32 301.82,-148.1"/>
</a>
</g>
</g>
<!-- Node14 -->
<g id="Node000014" class="node">
<title>Node14</title>
<g id="a_Node000014"><a xlink:href="a01931.html#a7d8356bd5c8b6a8d7dffc6ba94cc22e5" target="_top" xlink:title=" ">
<polygon fill="white" stroke="#666666" points="102.25,-122.75 0,-122.75 0,-104.25 102.25,-104.25 102.25,-122.75"/>
<text text-anchor="middle" x="51.12" y="-109.25" font-family="Helvetica,sans-Serif" font-size="10.00">arax_data_memcpy</text>
</a>
</g>
</g>
<!-- Node13&#45;&gt;Node14 -->
<g id="edge13_Node000013_Node000014" class="edge">
<title>Node13&#45;&gt;Node14</title>
<g id="a_edge13_Node000013_Node000014"><a xlink:title=" ">
<path fill="none" stroke="#63b8ff" d="M154.27,-126.33C137.73,-124.25 119.26,-121.93 102.61,-119.84"/>
<polygon fill="#63b8ff" stroke="#63b8ff" points="153.46,-129.88 163.82,-127.66 154.33,-122.94 153.46,-129.88"/>
</a>
</g>
</g>
<!-- Node15&#45;&gt;Node14 -->
<g id="edge15_Node000015_Node000014" class="edge">
<title>Node15&#45;&gt;Node14</title>
<g id="a_edge15_Node000015_Node000014"><a xlink:title=" ">
<path fill="none" stroke="#63b8ff" d="M154.27,-101.34C137.73,-103.31 119.26,-105.51 102.61,-107.49"/>
<polygon fill="#63b8ff" stroke="#63b8ff" points="154.3,-104.75 163.82,-100.09 153.47,-97.8 154.3,-104.75"/>
</a>
</g>
</g>
<!-- Node18&#45;&gt;Node10 -->
<g id="edge19_Node000018_Node000010" class="edge">
<title>Node18&#45;&gt;Node10</title>
<g id="a_edge19_Node000018_Node000010"><a xlink:title=" ">
<path fill="none" stroke="#63b8ff" d="M551.3,-132.5C539.22,-132.5 526.9,-132.5 515.75,-132.5"/>
<polygon fill="#63b8ff" stroke="#63b8ff" points="551.3,-136 561.3,-132.5 551.3,-129 551.3,-136"/>
</a>
</g>
</g>
<!-- Node21&#45;&gt;Node13 -->
<g id="edge24_Node000021_Node000013" class="edge">
<title>Node21&#45;&gt;Node13</title>
<g id="a_edge24_Node000021_Node000013"><a xlink:title=" ">
<path fill="none" stroke="#63b8ff" d="M301.14,-107.91C282.27,-112.76 260.96,-118.23 243.24,-122.78"/>
<polygon fill="#63b8ff" stroke="#63b8ff" points="301.82,-111.1 310.63,-105.22 300.08,-104.32 301.82,-111.1"/>
</a>
</g>
</g>
<!-- Node21&#45;&gt;Node15 -->
<g id="edge25_Node000021_Node000015" class="edge">
<title>Node21&#45;&gt;Node15</title>
<g id="a_edge25_Node000021_Node000015"><a xlink:title=" ">
<path fill="none" stroke="#63b8ff" d="M300.01,-95.5C281.55,-95.5 260.9,-95.5 243.6,-95.5"/>
<polygon fill="#63b8ff" stroke="#63b8ff" points="299.88,-99 309.88,-95.5 299.88,-92 299.88,-99"/>
</a>
</g>
</g>
<!-- Node22&#45;&gt;Node12 -->
<g id="edge27_Node000022_Node000012" class="edge">
<title>Node22&#45;&gt;Node12</title>
<g id="a_edge27_Node000022_Node000012"><a xlink:title=" ">
<path fill="none" stroke="#63b8ff" d="M298.89,-197.87C284.31,-200 268.44,-202.31 253.99,-204.42"/>
<polygon fill="#63b8ff" stroke="#63b8ff" points="299.34,-201.2 308.74,-196.29 298.34,-194.27 299.34,-201.2"/>
</a>
</g>
</g>
<!-- Node22&#45;&gt;Node13 -->
<g id="edge28_Node000022_Node000013" class="edge">
<title>Node22&#45;&gt;Node13</title>
<g id="a_edge28_Node000022_Node000013"><a xlink:title=" ">
<path fill="none" stroke="#63b8ff" d="M322.36,-175.63C307.36,-167.79 288.22,-158.4 270.5,-151.5 261.72,-148.08 252.07,-144.94 242.94,-142.25"/>
<polygon fill="#63b8ff" stroke="#63b8ff" points="320.54,-179.16 331.02,-180.76 323.83,-172.98 320.54,-179.16"/>
</a>
</g>
</g>
<!-- Node22&#45;&gt;Node17 -->
<g id="edge29_Node000022_Node000017" class="edge">
<title>Node22&#45;&gt;Node17</title>
<g id="a_edge29_Node000022_Node000017"><a xlink:title=" ">
<path fill="none" stroke="#63b8ff" d="M298.91,-183.13C286.8,-181.36 273.8,-179.47 261.46,-177.67"/>
<polygon fill="#63b8ff" stroke="#63b8ff" points="298.34,-186.73 308.74,-184.71 299.34,-179.8 298.34,-186.73"/>
</a>
</g>
</g>
<!-- Node24 -->
<g id="Node000024" class="node">
<title>Node24</title>
<g id="a_Node000024"><a xlink:href="a01898.html#a4cb362223e9e7a76f4c5695080db2755" target="_top" xlink:title=" ">
<polygon fill="white" stroke="#666666" points="837.75,-29 734,-29 734,0 837.75,0 837.75,-29"/>
<text text-anchor="start" x="742" y="-15.5" font-family="Helvetica,sans-Serif" font-size="10.00">arax_accel_list_free</text>
<text text-anchor="middle" x="785.88" y="-5" font-family="Helvetica,sans-Serif" font-size="10.00">_pre_locked</text>
</a>
</g>
</g>
<!-- Node23&#45;&gt;Node24 -->
<g id="edge31_Node000023_Node000024" class="edge">
<title>Node23&#45;&gt;Node24</title>
<g id="a_edge31_Node000023_Node000024"><a xlink:title=" ">
<path fill="none" stroke="#63b8ff" d="M921.15,-111.02C904.79,-91.03 879.17,-62.6 852,-43.5 844.41,-38.16 835.67,-33.46 827.12,-29.49"/>
<polygon fill="#63b8ff" stroke="#63b8ff" points="919,-112.94 927.98,-118.55 924.46,-108.56 919,-112.94"/>
</a>
</g>
</g>
<!-- Node25 -->
<g id="Node000025" class="node">
<title>Node25</title>
<g id="a_Node000025"><a xlink:href="a02175.html#ga7f1598b99463c5ef533a457f225b4c0b" target="_top" xlink:title=" ">
<polygon fill="white" stroke="#666666" points="658.62,-23.75 576.62,-23.75 576.62,-5.25 658.62,-5.25 658.62,-23.75"/>
<text text-anchor="middle" x="617.62" y="-10.25" font-family="Helvetica,sans-Serif" font-size="10.00">arax_accel_list</text>
</a>
</g>
</g>
<!-- Node24&#45;&gt;Node25 -->
<g id="edge32_Node000024_Node000025" class="edge">
<title>Node24&#45;&gt;Node25</title>
<g id="a_edge32_Node000024_Node000025"><a xlink:title=" ">
<path fill="none" stroke="#63b8ff" d="M722.69,-14.5C701.34,-14.5 678.02,-14.5 658.88,-14.5"/>
<polygon fill="#63b8ff" stroke="#63b8ff" points="722.64,-18 732.64,-14.5 722.64,-11 722.64,-18"/>
</a>
</g>
</g>
</g>
</svg>
