<?xml version="1.0" encoding="UTF-8" standalone="no"?>
<!DOCTYPE svg PUBLIC "-//W3C//DTD SVG 1.1//EN"
 "http://www.w3.org/Graphics/SVG/1.1/DTD/svg11.dtd">
<!-- Generated by graphviz version 8.0.5 (0)
 -->
<!-- Title: config.c Pages: 1 -->
<svg width="765pt" height="136pt"
 viewBox="0.00 0.00 765.38 135.50" xmlns="http://www.w3.org/2000/svg" xmlns:xlink="http://www.w3.org/1999/xlink">
<g id="graph0" class="graph" transform="scale(1 1) rotate(0) translate(4 131.5)">
<title>config.c</title>
<!-- Node1 -->
<g id="Node000001" class="node">
<title>Node1</title>
<g id="a_Node000001"><a xlink:title=" ">
<polygon fill="#999999" stroke="#666666" points="386.5,-127.5 336,-127.5 336,-109 386.5,-109 386.5,-127.5"/>
<text text-anchor="middle" x="361.25" y="-114" font-family="Helvetica,sans-Serif" font-size="10.00">config.c</text>
</a>
</g>
</g>
<!-- Node2 -->
<g id="Node000002" class="node">
<title>Node2</title>
<g id="a_Node000002"><a xlink:href="a01373.html" target="_top" xlink:title=" ">
<polygon fill="white" stroke="#666666" points="50.5,-73 0,-73 0,-54.5 50.5,-54.5 50.5,-73"/>
<text text-anchor="middle" x="25.25" y="-59.5" font-family="Helvetica,sans-Serif" font-size="10.00">config.h</text>
</a>
</g>
</g>
<!-- Node1&#45;&gt;Node2 -->
<g id="edge1_Node000001_Node000002" class="edge">
<title>Node1&#45;&gt;Node2</title>
<g id="a_edge1_Node000001_Node000002"><a xlink:title=" ">
<path fill="none" stroke="#63b8ff" d="M335.66,-114.31C285.13,-108.34 168.77,-93.73 61.5,-73.28"/>
<polygon fill="#63b8ff" stroke="#63b8ff" points="62.3,-69.68 51.81,-71.22 60.97,-76.55 62.3,-69.68"/>
</a>
</g>
</g>
<!-- Node4 -->
<g id="Node000004" class="node">
<title>Node4</title>
<g id="a_Node000004"><a xlink:href="a01385.html" target="_top" xlink:title=" ">
<polygon fill="white" stroke="#666666" points="123.75,-73 68.75,-73 68.75,-54.5 123.75,-54.5 123.75,-73"/>
<text text-anchor="middle" x="96.25" y="-59.5" font-family="Helvetica,sans-Serif" font-size="10.00">system.h</text>
</a>
</g>
</g>
<!-- Node1&#45;&gt;Node4 -->
<g id="edge3_Node000001_Node000004" class="edge">
<title>Node1&#45;&gt;Node4</title>
<g id="a_edge3_Node000001_Node000004"><a xlink:title=" ">
<path fill="none" stroke="#63b8ff" d="M335.78,-112.62C295.26,-105.2 213.38,-89.94 134.71,-73.47"/>
<polygon fill="#63b8ff" stroke="#63b8ff" points="135.64,-69.88 125.14,-71.24 134.2,-76.73 135.64,-69.88"/>
</a>
</g>
</g>
<!-- Node6 -->
<g id="Node000006" class="node">
<title>Node6</title>
<g id="a_Node000006"><a xlink:title=" ">
<polygon fill="#e0e0e0" stroke="#999999" points="186.88,-73 141.62,-73 141.62,-54.5 186.88,-54.5 186.88,-73"/>
<text text-anchor="middle" x="164.25" y="-59.5" font-family="Helvetica,sans-Serif" font-size="10.00">stdio.h</text>
</a>
</g>
</g>
<!-- Node1&#45;&gt;Node6 -->
<g id="edge6_Node000001_Node000006" class="edge">
<title>Node1&#45;&gt;Node6</title>
<g id="a_edge6_Node000001_Node000006"><a xlink:title=" ">
<path fill="none" stroke="#63b8ff" d="M335.9,-110.49C300.73,-101.12 237.07,-84.16 197.94,-73.73"/>
<polygon fill="#63b8ff" stroke="#63b8ff" points="198.93,-70.1 188.36,-70.91 197.12,-76.87 198.93,-70.1"/>
</a>
</g>
</g>
<!-- Node7 -->
<g id="Node000007" class="node">
<title>Node7</title>
<g id="a_Node000007"><a xlink:title=" ">
<polygon fill="#e0e0e0" stroke="#999999" points="252,-73 204.5,-73 204.5,-54.5 252,-54.5 252,-73"/>
<text text-anchor="middle" x="228.25" y="-59.5" font-family="Helvetica,sans-Serif" font-size="10.00">stdlib.h</text>
</a>
</g>
</g>
<!-- Node1&#45;&gt;Node7 -->
<g id="edge7_Node000001_Node000007" class="edge">
<title>Node1&#45;&gt;Node7</title>
<g id="a_edge7_Node000001_Node000007"><a xlink:title=" ">
<path fill="none" stroke="#63b8ff" d="M339.29,-108.58C317.82,-100.11 284.9,-87.11 260.47,-77.47"/>
<polygon fill="#63b8ff" stroke="#63b8ff" points="261.83,-73.85 251.24,-73.43 259.26,-80.36 261.83,-73.85"/>
</a>
</g>
</g>
<!-- Node8 -->
<g id="Node000008" class="node">
<title>Node8</title>
<g id="a_Node000008"><a xlink:title=" ">
<polygon fill="#e0e0e0" stroke="#999999" points="318.38,-73 270.12,-73 270.12,-54.5 318.38,-54.5 318.38,-73"/>
<text text-anchor="middle" x="294.25" y="-59.5" font-family="Helvetica,sans-Serif" font-size="10.00">string.h</text>
</a>
</g>
</g>
<!-- Node1&#45;&gt;Node8 -->
<g id="edge8_Node000001_Node000008" class="edge">
<title>Node1&#45;&gt;Node8</title>
<g id="a_edge8_Node000001_Node000008"><a xlink:title=" ">
<path fill="none" stroke="#63b8ff" d="M350.19,-108.58C340.23,-100.78 325.39,-89.15 313.5,-79.83"/>
<polygon fill="#63b8ff" stroke="#63b8ff" points="316.14,-76.67 306.11,-73.26 311.82,-82.18 316.14,-76.67"/>
</a>
</g>
</g>
<!-- Node9 -->
<g id="Node000009" class="node">
<title>Node9</title>
<g id="a_Node000009"><a xlink:title=" ">
<polygon fill="#e0e0e0" stroke="#999999" points="386.5,-73 336,-73 336,-54.5 386.5,-54.5 386.5,-73"/>
<text text-anchor="middle" x="361.25" y="-59.5" font-family="Helvetica,sans-Serif" font-size="10.00">unistd.h</text>
</a>
</g>
</g>
<!-- Node1&#45;&gt;Node9 -->
<g id="edge9_Node000001_Node000009" class="edge">
<title>Node1&#45;&gt;Node9</title>
<g id="a_edge9_Node000001_Node000009"><a xlink:title=" ">
<path fill="none" stroke="#63b8ff" d="M361.25,-108.58C361.25,-101.93 361.25,-92.49 361.25,-84.08"/>
<polygon fill="#63b8ff" stroke="#63b8ff" points="364.75,-84.26 361.25,-74.26 357.75,-84.26 364.75,-84.26"/>
</a>
</g>
</g>
<!-- Node10 -->
<g id="Node000010" class="node">
<title>Node10</title>
<g id="a_Node000010"><a xlink:title=" ">
<polygon fill="#e0e0e0" stroke="#999999" points="450.25,-73 404.25,-73 404.25,-54.5 450.25,-54.5 450.25,-73"/>
<text text-anchor="middle" x="427.25" y="-59.5" font-family="Helvetica,sans-Serif" font-size="10.00">errno.h</text>
</a>
</g>
</g>
<!-- Node1&#45;&gt;Node10 -->
<g id="edge10_Node000001_Node000010" class="edge">
<title>Node1&#45;&gt;Node10</title>
<g id="a_edge10_Node000001_Node000010"><a xlink:title=" ">
<path fill="none" stroke="#63b8ff" d="M372.15,-108.58C381.95,-100.78 396.57,-89.15 408.29,-79.83"/>
<polygon fill="#63b8ff" stroke="#63b8ff" points="409.91,-82.22 415.55,-73.26 405.55,-76.74 409.91,-82.22"/>
</a>
</g>
</g>
<!-- Node11 -->
<g id="Node000011" class="node">
<title>Node11</title>
<g id="a_Node000011"><a xlink:title=" ">
<polygon fill="#e0e0e0" stroke="#999999" points="516,-73 468.5,-73 468.5,-54.5 516,-54.5 516,-73"/>
<text text-anchor="middle" x="492.25" y="-59.5" font-family="Helvetica,sans-Serif" font-size="10.00">limits.h</text>
</a>
</g>
</g>
<!-- Node1&#45;&gt;Node11 -->
<g id="edge11_Node000001_Node000011" class="edge">
<title>Node1&#45;&gt;Node11</title>
<g id="a_edge11_Node000001_Node000011"><a xlink:title=" ">
<path fill="none" stroke="#63b8ff" d="M382.88,-108.58C404.03,-100.11 436.46,-87.11 460.52,-77.47"/>
<polygon fill="#63b8ff" stroke="#63b8ff" points="461.61,-80.4 469.59,-73.43 459,-73.9 461.61,-80.4"/>
</a>
</g>
</g>
<!-- Node12 -->
<g id="Node000012" class="node">
<title>Node12</title>
<g id="a_Node000012"><a xlink:title=" ">
<polygon fill="#e0e0e0" stroke="#999999" points="582,-73 534.5,-73 534.5,-54.5 582,-54.5 582,-73"/>
<text text-anchor="middle" x="558.25" y="-59.5" font-family="Helvetica,sans-Serif" font-size="10.00">stdint.h</text>
</a>
</g>
</g>
<!-- Node1&#45;&gt;Node12 -->
<g id="edge12_Node000001_Node000012" class="edge">
<title>Node1&#45;&gt;Node12</title>
<g id="a_edge12_Node000001_Node000012"><a xlink:title=" ">
<path fill="none" stroke="#63b8ff" d="M386.6,-110.49C421.48,-101.2 484.4,-84.43 523.6,-73.98"/>
<polygon fill="#63b8ff" stroke="#63b8ff" points="524.47,-77.11 533.23,-71.15 522.67,-70.34 524.47,-77.11"/>
</a>
</g>
</g>
<!-- Node13 -->
<g id="Node000013" class="node">
<title>Node13</title>
<g id="a_Node000013"><a xlink:href="a01361.html" target="_top" xlink:title=" ">
<polygon fill="white" stroke="#666666" points="696.75,-73 599.75,-73 599.75,-54.5 696.75,-54.5 696.75,-73"/>
<text text-anchor="middle" x="648.25" y="-59.5" font-family="Helvetica,sans-Serif" font-size="10.00">utils/arax_assert.h</text>
</a>
</g>
</g>
<!-- Node1&#45;&gt;Node13 -->
<g id="edge13_Node000001_Node000013" class="edge">
<title>Node1&#45;&gt;Node13</title>
<g id="a_edge13_Node000001_Node000013"><a xlink:title=" ">
<path fill="none" stroke="#63b8ff" d="M386.97,-112.54C432.33,-104.25 527.62,-86.82 589.72,-75.46"/>
<polygon fill="#63b8ff" stroke="#63b8ff" points="590.32,-78.72 599.53,-73.48 589.06,-71.84 590.32,-78.72"/>
</a>
</g>
</g>
<!-- Node15 -->
<g id="Node000015" class="node">
<title>Node15</title>
<g id="a_Node000015"><a xlink:title=" ">
<polygon fill="#e0e0e0" stroke="#999999" points="757.38,-73 715.12,-73 715.12,-54.5 757.38,-54.5 757.38,-73"/>
<text text-anchor="middle" x="736.25" y="-59.5" font-family="Helvetica,sans-Serif" font-size="10.00">pwd.h</text>
</a>
</g>
</g>
<!-- Node1&#45;&gt;Node15 -->
<g id="edge15_Node000001_Node000015" class="edge">
<title>Node1&#45;&gt;Node15</title>
<g id="a_edge15_Node000001_Node000015"><a xlink:title=" ">
<path fill="none" stroke="#63b8ff" d="M386.99,-115.2C443.02,-110.46 580.35,-97.43 704.29,-73.14"/>
<polygon fill="#63b8ff" stroke="#63b8ff" points="704.58,-76.45 713.71,-71.06 703.22,-69.59 704.58,-76.45"/>
</a>
</g>
</g>
<!-- Node3 -->
<g id="Node000003" class="node">
<title>Node3</title>
<g id="a_Node000003"><a xlink:title=" ">
<polygon fill="#e0e0e0" stroke="#999999" points="50.5,-18.5 0,-18.5 0,0 50.5,0 50.5,-18.5"/>
<text text-anchor="middle" x="25.25" y="-5" font-family="Helvetica,sans-Serif" font-size="10.00">stddef.h</text>
</a>
</g>
</g>
<!-- Node2&#45;&gt;Node3 -->
<g id="edge2_Node000002_Node000003" class="edge">
<title>Node2&#45;&gt;Node3</title>
<g id="a_edge2_Node000002_Node000003"><a xlink:title=" ">
<path fill="none" stroke="#63b8ff" d="M25.25,-54.08C25.25,-47.43 25.25,-37.99 25.25,-29.58"/>
<polygon fill="#63b8ff" stroke="#63b8ff" points="28.75,-29.76 25.25,-19.76 21.75,-29.76 28.75,-29.76"/>
</a>
</g>
</g>
<!-- Node4&#45;&gt;Node3 -->
<g id="edge4_Node000004_Node000003" class="edge">
<title>Node4&#45;&gt;Node3</title>
<g id="a_edge4_Node000004_Node000003"><a xlink:title=" ">
<path fill="none" stroke="#63b8ff" d="M84.53,-54.08C73.88,-46.21 57.94,-34.43 45.28,-25.06"/>
<polygon fill="#63b8ff" stroke="#63b8ff" points="47.88,-21.89 37.76,-18.76 43.72,-27.52 47.88,-21.89"/>
</a>
</g>
</g>
<!-- Node5 -->
<g id="Node000005" class="node">
<title>Node5</title>
<g id="a_Node000005"><a xlink:title=" ">
<polygon fill="#e0e0e0" stroke="#999999" points="134,-18.5 68.5,-18.5 68.5,0 134,0 134,-18.5"/>
<text text-anchor="middle" x="101.25" y="-5" font-family="Helvetica,sans-Serif" font-size="10.00">sys/types.h</text>
</a>
</g>
</g>
<!-- Node4&#45;&gt;Node5 -->
<g id="edge5_Node000004_Node000005" class="edge">
<title>Node4&#45;&gt;Node5</title>
<g id="a_edge5_Node000004_Node000005"><a xlink:title=" ">
<path fill="none" stroke="#63b8ff" d="M97.08,-54.08C97.71,-47.43 98.61,-37.99 99.41,-29.58"/>
<polygon fill="#63b8ff" stroke="#63b8ff" points="102.98,-30.04 100.44,-19.76 96.01,-29.38 102.98,-30.04"/>
</a>
</g>
</g>
<!-- Node14 -->
<g id="Node000014" class="node">
<title>Node14</title>
<g id="a_Node000014"><a xlink:href="a01370.html" target="_top" xlink:title=" ">
<polygon fill="white" stroke="#666666" points="676.12,-18.5 620.38,-18.5 620.38,0 676.12,0 676.12,-18.5"/>
<text text-anchor="middle" x="648.25" y="-5" font-family="Helvetica,sans-Serif" font-size="10.00">compat.h</text>
</a>
</g>
</g>
<!-- Node13&#45;&gt;Node14 -->
<g id="edge14_Node000013_Node000014" class="edge">
<title>Node13&#45;&gt;Node14</title>
<g id="a_edge14_Node000013_Node000014"><a xlink:title=" ">
<path fill="none" stroke="#63b8ff" d="M648.25,-54.08C648.25,-47.43 648.25,-37.99 648.25,-29.58"/>
<polygon fill="#63b8ff" stroke="#63b8ff" points="651.75,-29.76 648.25,-19.76 644.75,-29.76 651.75,-29.76"/>
</a>
</g>
</g>
</g>
</svg>
