<?xml version="1.0" encoding="UTF-8" standalone="no"?>
<!DOCTYPE svg PUBLIC "-//W3C//DTD SVG 1.1//EN"
 "http://www.w3.org/Graphics/SVG/1.1/DTD/svg11.dtd">
<!-- Generated by graphviz version 8.0.5 (0)
 -->
<!-- Title: arax_accel_del_vaccel Pages: 1 -->
<svg width="457pt" height="212pt"
 viewBox="0.00 0.00 456.50 211.50" xmlns="http://www.w3.org/2000/svg" xmlns:xlink="http://www.w3.org/1999/xlink">
<g id="graph0" class="graph" transform="scale(1 1) rotate(0) translate(4 207.5)">
<title>arax_accel_del_vaccel</title>
<!-- Node1 -->
<g id="Node000001" class="node">
<title>Node1</title>
<g id="a_Node000001"><a xlink:title=" ">
<polygon fill="#999999" stroke="#666666" points="115,-110.5 0,-110.5 0,-92 115,-92 115,-110.5"/>
<text text-anchor="middle" x="57.5" y="-97" font-family="Helvetica,sans-Serif" font-size="10.00">arax_accel_del_vaccel</text>
</a>
</g>
</g>
<!-- Node2 -->
<g id="Node000002" class="node">
<title>Node2</title>
<g id="a_Node000002"><a xlink:href="a01904.html#aed864d2fab73a39a8c98356f7bca1304" target="_top" xlink:title=" ">
<polygon fill="white" stroke="#666666" points="272.75,-203.5 151.75,-203.5 151.75,-185 272.75,-185 272.75,-203.5"/>
<text text-anchor="middle" x="212.25" y="-190" font-family="Helvetica,sans-Serif" font-size="10.00">arax_accel_inc_revision</text>
</a>
</g>
</g>
<!-- Node1&#45;&gt;Node2 -->
<g id="edge1_Node000001_Node000002" class="edge">
<title>Node1&#45;&gt;Node2</title>
<g id="a_edge1_Node000001_Node000002"><a xlink:title=" ">
<path fill="none" stroke="#63b8ff" d="M67.9,-110.78C83.71,-126.34 117.25,-157.24 151,-175.25 154.76,-177.25 158.76,-179.09 162.85,-180.76"/>
<polygon fill="#63b8ff" stroke="#63b8ff" points="161.5,-184.36 172.1,-184.57 163.94,-177.8 161.5,-184.36"/>
</a>
</g>
</g>
<!-- Node3 -->
<g id="Node000003" class="node">
<title>Node3</title>
<g id="a_Node000003"><a xlink:href="a01928.html#ab2fa3d6e6c761009b464cc0fbedc6a16" target="_top" xlink:title=" ">
<polygon fill="white" stroke="#666666" points="273.5,-166.5 151,-166.5 151,-148 273.5,-148 273.5,-166.5"/>
<text text-anchor="middle" x="212.25" y="-153" font-family="Helvetica,sans-Serif" font-size="10.00">arax_vaccel_queue_size</text>
</a>
</g>
</g>
<!-- Node1&#45;&gt;Node3 -->
<g id="edge2_Node000001_Node000003" class="edge">
<title>Node1&#45;&gt;Node3</title>
<g id="a_edge2_Node000001_Node000003"><a xlink:title=" ">
<path fill="none" stroke="#63b8ff" d="M81.13,-110.85C99.74,-118.62 126.89,-129.64 151,-138.25 156.62,-140.26 162.57,-142.27 168.45,-144.19"/>
<polygon fill="#63b8ff" stroke="#63b8ff" points="167.3,-147.82 177.89,-147.54 169.44,-141.15 167.3,-147.82"/>
</a>
</g>
</g>
<!-- Node6 -->
<g id="Node000006" class="node">
<title>Node6</title>
<g id="a_Node000006"><a xlink:href="a02352.html#aed6af4d83e934e3e654ead541b15f2d9" target="_top" xlink:title=" ">
<polygon fill="white" stroke="#666666" points="266.75,-129.5 157.75,-129.5 157.75,-111 266.75,-111 266.75,-129.5"/>
<text text-anchor="middle" x="212.25" y="-116" font-family="Helvetica,sans-Serif" font-size="10.00">async_condition_lock</text>
</a>
</g>
</g>
<!-- Node1&#45;&gt;Node6 -->
<g id="edge5_Node000001_Node000006" class="edge">
<title>Node1&#45;&gt;Node6</title>
<g id="a_edge5_Node000001_Node000006"><a xlink:title=" ">
<path fill="none" stroke="#63b8ff" d="M115.38,-108.32C125.58,-109.59 136.27,-110.92 146.67,-112.22"/>
<polygon fill="#63b8ff" stroke="#63b8ff" points="146.01,-115.79 156.36,-113.55 146.87,-108.84 146.01,-115.79"/>
</a>
</g>
</g>
<!-- Node8 -->
<g id="Node000008" class="node">
<title>Node8</title>
<g id="a_Node000008"><a xlink:href="a02352.html#a45a896fb606c2aa66a5a4c2af59ce494" target="_top" xlink:title=" ">
<polygon fill="white" stroke="#666666" points="269.75,-92.5 154.75,-92.5 154.75,-74 269.75,-74 269.75,-92.5"/>
<text text-anchor="middle" x="212.25" y="-79" font-family="Helvetica,sans-Serif" font-size="10.00">async_condition_notify</text>
</a>
</g>
</g>
<!-- Node1&#45;&gt;Node8 -->
<g id="edge7_Node000001_Node000008" class="edge">
<title>Node1&#45;&gt;Node8</title>
<g id="a_edge7_Node000001_Node000008"><a xlink:title=" ">
<path fill="none" stroke="#63b8ff" d="M115.38,-94.55C124.52,-93.47 134.07,-92.35 143.44,-91.24"/>
<polygon fill="#63b8ff" stroke="#63b8ff" points="143.8,-94.6 153.32,-89.96 142.98,-87.65 143.8,-94.6"/>
</a>
</g>
</g>
<!-- Node10 -->
<g id="Node000010" class="node">
<title>Node10</title>
<g id="a_Node000010"><a xlink:href="a02352.html#a3bbcb7c4c024e99d5c4ba52b61dfbbf7" target="_top" xlink:title=" ">
<polygon fill="white" stroke="#666666" points="272,-55.5 152.5,-55.5 152.5,-37 272,-37 272,-55.5"/>
<text text-anchor="middle" x="212.25" y="-42" font-family="Helvetica,sans-Serif" font-size="10.00">async_condition_unlock</text>
</a>
</g>
</g>
<!-- Node1&#45;&gt;Node10 -->
<g id="edge9_Node000001_Node000010" class="edge">
<title>Node1&#45;&gt;Node10</title>
<g id="a_edge9_Node000001_Node000010"><a xlink:title=" ">
<path fill="none" stroke="#63b8ff" d="M81.91,-91.65C100.52,-84.14 127.27,-73.6 151,-65.25 156.83,-63.2 163.02,-61.13 169.12,-59.15"/>
<polygon fill="#63b8ff" stroke="#63b8ff" points="169.77,-62.3 178.23,-55.92 167.64,-55.63 169.77,-62.3"/>
</a>
</g>
</g>
<!-- Node12 -->
<g id="Node000012" class="node">
<title>Node12</title>
<g id="a_Node000012"><a xlink:href="a01946.html#a0c85e5516222ab7e7fc354c614760ec5" target="_top" xlink:title=" ">
<polygon fill="white" stroke="#666666" points="247.25,-18.5 177.25,-18.5 177.25,0 247.25,0 247.25,-18.5"/>
<text text-anchor="middle" x="212.25" y="-5" font-family="Helvetica,sans-Serif" font-size="10.00">utils_list_del</text>
</a>
</g>
</g>
<!-- Node1&#45;&gt;Node12 -->
<g id="edge11_Node000001_Node000012" class="edge">
<title>Node1&#45;&gt;Node12</title>
<g id="a_edge11_Node000001_Node000012"><a xlink:title=" ">
<path fill="none" stroke="#63b8ff" d="M68.18,-91.6C84.14,-76.19 117.55,-45.95 151,-28.25 155.9,-25.65 161.22,-23.34 166.6,-21.31"/>
<polygon fill="#63b8ff" stroke="#63b8ff" points="167.62,-24.31 175.92,-17.72 165.32,-17.7 167.62,-24.31"/>
</a>
</g>
</g>
<!-- Node4 -->
<g id="Node000004" class="node">
<title>Node4</title>
<g id="a_Node000004"><a xlink:href="a01928.html#afe1eb3edd264c847c36e9456b2598452" target="_top" xlink:title=" ">
<polygon fill="white" stroke="#666666" points="429,-203.5 329,-203.5 329,-185 429,-185 429,-203.5"/>
<text text-anchor="middle" x="379" y="-190" font-family="Helvetica,sans-Serif" font-size="10.00">arax_vaccel_queue</text>
</a>
</g>
</g>
<!-- Node3&#45;&gt;Node4 -->
<g id="edge3_Node000003_Node000004" class="edge">
<title>Node3&#45;&gt;Node4</title>
<g id="a_edge3_Node000003_Node000004"><a xlink:title=" ">
<path fill="none" stroke="#63b8ff" d="M256.54,-166.97C277.26,-171.63 302.29,-177.25 324.23,-182.17"/>
<polygon fill="#63b8ff" stroke="#63b8ff" points="323.19,-185.75 333.72,-184.53 324.73,-178.92 323.19,-185.75"/>
</a>
</g>
</g>
<!-- Node5 -->
<g id="Node000005" class="node">
<title>Node5</title>
<g id="a_Node000005"><a xlink:href="a01949.html#a5d84d59bded666fdcf1a8e949cb56a6a" target="_top" xlink:title=" ">
<polygon fill="white" stroke="#666666" points="438,-166.5 320,-166.5 320,-148 438,-148 438,-166.5"/>
<text text-anchor="middle" x="379" y="-153" font-family="Helvetica,sans-Serif" font-size="10.00">utils_queue_used_slots</text>
</a>
</g>
</g>
<!-- Node3&#45;&gt;Node5 -->
<g id="edge4_Node000003_Node000005" class="edge">
<title>Node3&#45;&gt;Node5</title>
<g id="a_edge4_Node000003_Node000005"><a xlink:title=" ">
<path fill="none" stroke="#63b8ff" d="M273.66,-157.25C285.01,-157.25 296.95,-157.25 308.54,-157.25"/>
<polygon fill="#63b8ff" stroke="#63b8ff" points="308.52,-160.75 318.52,-157.25 308.52,-153.75 308.52,-160.75"/>
</a>
</g>
</g>
<!-- Node7 -->
<g id="Node000007" class="node">
<title>Node7</title>
<g id="a_Node000007"><a xlink:href="a02346.html#aebf9e72bb6cbd8b9e33489d46c25075d" target="_top" xlink:title=" ">
<polygon fill="white" stroke="#666666" points="437.25,-129.5 320.75,-129.5 320.75,-111 437.25,-111 437.25,-129.5"/>
<text text-anchor="middle" x="379" y="-116" font-family="Helvetica,sans-Serif" font-size="10.00">async_completion_wait</text>
</a>
</g>
</g>
<!-- Node6&#45;&gt;Node7 -->
<g id="edge6_Node000006_Node000007" class="edge">
<title>Node6&#45;&gt;Node7</title>
<g id="a_edge6_Node000006_Node000007"><a xlink:title=" ">
<path fill="none" stroke="#63b8ff" d="M267.2,-120.25C280.81,-120.25 295.6,-120.25 309.81,-120.25"/>
<polygon fill="#63b8ff" stroke="#63b8ff" points="309.53,-123.75 319.53,-120.25 309.53,-116.75 309.53,-123.75"/>
</a>
</g>
</g>
<!-- Node9 -->
<g id="Node000009" class="node">
<title>Node9</title>
<g id="a_Node000009"><a xlink:href="a02346.html#a0fa370eee5160963e617d1daf1c07363" target="_top" xlink:title=" ">
<polygon fill="white" stroke="#666666" points="435.38,-92.5 322.62,-92.5 322.62,-74 435.38,-74 435.38,-92.5"/>
<text text-anchor="middle" x="379" y="-79" font-family="Helvetica,sans-Serif" font-size="10.00">async_semaphore_inc</text>
</a>
</g>
</g>
<!-- Node8&#45;&gt;Node9 -->
<g id="edge8_Node000008_Node000009" class="edge">
<title>Node8&#45;&gt;Node9</title>
<g id="a_edge8_Node000008_Node000009"><a xlink:title=" ">
<path fill="none" stroke="#63b8ff" d="M269.95,-83.25C283.31,-83.25 297.68,-83.25 311.44,-83.25"/>
<polygon fill="#63b8ff" stroke="#63b8ff" points="311.31,-86.75 321.31,-83.25 311.31,-79.75 311.31,-86.75"/>
</a>
</g>
</g>
<!-- Node11 -->
<g id="Node000011" class="node">
<title>Node11</title>
<g id="a_Node000011"><a xlink:href="a02346.html#ad1d30ecbf6bff6457b680aa940281072" target="_top" xlink:title=" ">
<polygon fill="white" stroke="#666666" points="448.5,-55.5 309.5,-55.5 309.5,-37 448.5,-37 448.5,-55.5"/>
<text text-anchor="middle" x="379" y="-42" font-family="Helvetica,sans-Serif" font-size="10.00">async_completion_complete</text>
</a>
</g>
</g>
<!-- Node10&#45;&gt;Node11 -->
<g id="edge10_Node000010_Node000011" class="edge">
<title>Node10&#45;&gt;Node11</title>
<g id="a_edge10_Node000010_Node000011"><a xlink:title=" ">
<path fill="none" stroke="#63b8ff" d="M272.26,-46.25C280.64,-46.25 289.36,-46.25 298.05,-46.25"/>
<polygon fill="#63b8ff" stroke="#63b8ff" points="298.01,-49.75 308.01,-46.25 298.01,-42.75 298.01,-49.75"/>
</a>
</g>
</g>
</g>
</svg>
