<?xml version="1.0" encoding="UTF-8" standalone="no"?>
<!DOCTYPE svg PUBLIC "-//W3C//DTD SVG 1.1//EN"
 "http://www.w3.org/Graphics/SVG/1.1/DTD/svg11.dtd">
<!-- Generated by graphviz version 12.2.1 (0)
 -->
<!-- Title: ARAX_OBJ_DTOR_DECL Pages: 1 -->
<svg width="1031pt" height="146pt"
 viewBox="0.00 0.00 1030.50 146.25" xmlns="http://www.w3.org/2000/svg" xmlns:xlink="http://www.w3.org/1999/xlink">
<g id="graph0" class="graph" transform="scale(1 1) rotate(0) translate(4 142.25)">
<title>ARAX_OBJ_DTOR_DECL</title>
<!-- Node1 -->
<g id="Node000001" class="node">
<title>Node1</title>
<g id="a_Node000001"><a xlink:title=" ">
<polygon fill="#999999" stroke="#666666" points="132.25,-82.5 0,-82.5 0,-64 132.25,-64 132.25,-82.5"/>
<text text-anchor="middle" x="66.12" y="-69" font-family="Helvetica,sans-Serif" font-size="10.00">ARAX_OBJ_DTOR_DECL</text>
</a>
</g>
</g>
<!-- Node2 -->
<g id="Node000002" class="node">
<title>Node2</title>
<g id="a_Node000002"><a xlink:href="a02187.html#ga497b17905d4c7ee2f5ee831d367ece92" target="_top" xlink:title=" ">
<polygon fill="white" stroke="#666666" points="269,-82.5 168.25,-82.5 168.25,-64 269,-64 269,-82.5"/>
<text text-anchor="middle" x="218.62" y="-69" font-family="Helvetica,sans-Serif" font-size="10.00">arax_accel_release</text>
</a>
</g>
</g>
<!-- Node1&#45;&gt;Node2 -->
<g id="edge1_Node000001_Node000002" class="edge">
<title>Node1&#45;&gt;Node2</title>
<g id="a_edge1_Node000001_Node000002"><a xlink:title=" ">
<path fill="none" stroke="#63b8ff" d="M132.7,-73.25C140.68,-73.25 148.81,-73.25 156.72,-73.25"/>
<polygon fill="#63b8ff" stroke="#63b8ff" points="156.6,-76.75 166.6,-73.25 156.6,-69.75 156.6,-76.75"/>
</a>
</g>
</g>
<!-- Node6 -->
<g id="Node000006" class="node">
<title>Node6</title>
<g id="a_Node000006"><a xlink:href="a02364.html#aed6af4d83e934e3e654ead541b15f2d9" target="_top" xlink:title=" ">
<polygon fill="white" stroke="#666666" points="842.25,-119.5 733.25,-119.5 733.25,-101 842.25,-101 842.25,-119.5"/>
<text text-anchor="middle" x="787.75" y="-106" font-family="Helvetica,sans-Serif" font-size="10.00">async_condition_lock</text>
</a>
</g>
</g>
<!-- Node1&#45;&gt;Node6 -->
<g id="edge14_Node000001_Node000006" class="edge">
<title>Node1&#45;&gt;Node6</title>
<g id="a_edge14_Node000001_Node000006"><a xlink:title=" ">
<path fill="none" stroke="#63b8ff" d="M92.61,-82.98C142.46,-101.11 256.7,-138.25 356.25,-138.25 356.25,-138.25 356.25,-138.25 496.12,-138.25 573.82,-138.25 662.67,-128.21 721.46,-120.16"/>
<polygon fill="#63b8ff" stroke="#63b8ff" points="721.88,-123.63 731.3,-118.78 720.91,-116.7 721.88,-123.63"/>
</a>
</g>
</g>
<!-- Node10 -->
<g id="Node000010" class="node">
<title>Node10</title>
<g id="a_Node000010"><a xlink:href="a02364.html#a3bbcb7c4c024e99d5c4ba52b61dfbbf7" target="_top" xlink:title=" ">
<polygon fill="white" stroke="#666666" points="847.5,-18.5 728,-18.5 728,0 847.5,0 847.5,-18.5"/>
<text text-anchor="middle" x="787.75" y="-5" font-family="Helvetica,sans-Serif" font-size="10.00">async_condition_unlock</text>
</a>
</g>
</g>
<!-- Node1&#45;&gt;Node10 -->
<g id="edge15_Node000001_Node000010" class="edge">
<title>Node1&#45;&gt;Node10</title>
<g id="a_edge15_Node000001_Node000010"><a xlink:title=" ">
<path fill="none" stroke="#63b8ff" d="M93.01,-63.53C143.08,-45.63 257.03,-9.25 356.25,-9.25 356.25,-9.25 356.25,-9.25 496.12,-9.25 571.34,-9.25 657.49,-9.25 716.35,-9.25"/>
<polygon fill="#63b8ff" stroke="#63b8ff" points="716.23,-12.75 726.23,-9.25 716.23,-5.75 716.23,-12.75"/>
</a>
</g>
</g>
<!-- Node3 -->
<g id="Node000003" class="node">
<title>Node3</title>
<g id="a_Node000003"><a xlink:href="a01925.html#afe7e4a63c40fbcaae742b8de8693483f" target="_top" xlink:title=" ">
<polygon fill="white" stroke="#666666" points="409.5,-82.5 305,-82.5 305,-64 409.5,-64 409.5,-82.5"/>
<text text-anchor="middle" x="357.25" y="-69" font-family="Helvetica,sans-Serif" font-size="10.00">arax_object_ref_dec</text>
</a>
</g>
</g>
<!-- Node2&#45;&gt;Node3 -->
<g id="edge2_Node000002_Node000003" class="edge">
<title>Node2&#45;&gt;Node3</title>
<g id="a_edge2_Node000002_Node000003"><a xlink:title=" ">
<path fill="none" stroke="#63b8ff" d="M269.34,-73.25C277.12,-73.25 285.24,-73.25 293.27,-73.25"/>
<polygon fill="#63b8ff" stroke="#63b8ff" points="292.99,-76.75 302.99,-73.25 292.99,-69.75 292.99,-76.75"/>
</a>
</g>
</g>
<!-- Node4 -->
<g id="Node000004" class="node">
<title>Node4</title>
<g id="a_Node000004"><a xlink:href="a01928.html#a9f30684f01feac766b42d622970ed5a6" target="_top" xlink:title=" ">
<polygon fill="white" stroke="#666666" points="544.75,-55.5 445.5,-55.5 445.5,-37 544.75,-37 544.75,-55.5"/>
<text text-anchor="middle" x="495.12" y="-42" font-family="Helvetica,sans-Serif" font-size="10.00">arax_pipe_size_inc</text>
</a>
</g>
</g>
<!-- Node3&#45;&gt;Node4 -->
<g id="edge3_Node000003_Node000004" class="edge">
<title>Node3&#45;&gt;Node4</title>
<g id="a_edge3_Node000003_Node000004"><a xlink:title=" ">
<path fill="none" stroke="#63b8ff" d="M407.3,-63.5C415.96,-61.78 425.07,-59.97 433.99,-58.2"/>
<polygon fill="#63b8ff" stroke="#63b8ff" points="434.53,-61.66 443.66,-56.28 433.17,-54.79 434.53,-61.66"/>
</a>
</g>
</g>
<!-- Node12 -->
<g id="Node000012" class="node">
<title>Node12</title>
<g id="a_Node000012"><a xlink:href="a01955.html#a0c85e5516222ab7e7fc354c614760ec5" target="_top" xlink:title=" ">
<polygon fill="white" stroke="#666666" points="530.12,-110.5 460.12,-110.5 460.12,-92 530.12,-92 530.12,-110.5"/>
<text text-anchor="middle" x="495.12" y="-97" font-family="Helvetica,sans-Serif" font-size="10.00">utils_list_del</text>
</a>
</g>
</g>
<!-- Node3&#45;&gt;Node12 -->
<g id="edge13_Node000003_Node000012" class="edge">
<title>Node3&#45;&gt;Node12</title>
<g id="a_edge13_Node000003_Node000012"><a xlink:title=" ">
<path fill="none" stroke="#63b8ff" d="M405.39,-82.96C419.54,-85.88 435.03,-89.07 449.04,-91.96"/>
<polygon fill="#63b8ff" stroke="#63b8ff" points="447.93,-95.3 458.43,-93.9 449.35,-88.45 447.93,-95.3"/>
</a>
</g>
</g>
<!-- Node4&#45;&gt;Node4 -->
<g id="edge4_Node000004_Node000004" class="edge">
<title>Node4&#45;&gt;Node4</title>
<g id="a_edge4_Node000004_Node000004"><a xlink:title=" ">
<path fill="none" stroke="#63b8ff" d="M473.87,-55.75C463.54,-64.32 470.62,-73.5 495.12,-73.5 508.91,-73.5 517.18,-70.59 519.94,-66.53"/>
<polygon fill="#63b8ff" stroke="#63b8ff" points="523.31,-65.58 516.85,-57.18 516.67,-67.78 523.31,-65.58"/>
</a>
</g>
</g>
<!-- Node5 -->
<g id="Node000005" class="node">
<title>Node5</title>
<g id="a_Node000005"><a xlink:href="a01940.html#a7d3a67fa4eeb00cc9508a7ffe451a02f" target="_top" xlink:title=" ">
<polygon fill="white" stroke="#666666" points="692,-55.5 580.75,-55.5 580.75,-37 692,-37 692,-55.5"/>
<text text-anchor="middle" x="636.38" y="-42" font-family="Helvetica,sans-Serif" font-size="10.00">arax_throttle_size_inc</text>
</a>
</g>
</g>
<!-- Node4&#45;&gt;Node5 -->
<g id="edge5_Node000004_Node000005" class="edge">
<title>Node4&#45;&gt;Node5</title>
<g id="a_edge5_Node000004_Node000005"><a xlink:title=" ">
<path fill="none" stroke="#63b8ff" d="M545.22,-46.25C552.99,-46.25 561.13,-46.25 569.22,-46.25"/>
<polygon fill="#63b8ff" stroke="#63b8ff" points="569.04,-49.75 579.04,-46.25 569.04,-42.75 569.04,-49.75"/>
</a>
</g>
</g>
<!-- Node5&#45;&gt;Node5 -->
<g id="edge6_Node000005_Node000005" class="edge">
<title>Node5&#45;&gt;Node5</title>
<g id="a_edge6_Node000005_Node000005"><a xlink:title=" ">
<path fill="none" stroke="#63b8ff" d="M614.6,-55.75C604.01,-64.32 611.27,-73.5 636.38,-73.5 650.5,-73.5 658.97,-70.59 661.8,-66.53"/>
<polygon fill="#63b8ff" stroke="#63b8ff" points="665.15,-65.53 658.63,-57.18 658.52,-67.77 665.15,-65.53"/>
</a>
</g>
</g>
<!-- Node5&#45;&gt;Node6 -->
<g id="edge7_Node000005_Node000006" class="edge">
<title>Node5&#45;&gt;Node6</title>
<g id="a_edge7_Node000005_Node000006"><a xlink:title=" ">
<path fill="none" stroke="#63b8ff" d="M660.06,-55.97C685.1,-66.7 725.62,-84.06 754.08,-96.25"/>
<polygon fill="#63b8ff" stroke="#63b8ff" points="752.38,-99.33 762.95,-100.05 755.13,-92.9 752.38,-99.33"/>
</a>
</g>
</g>
<!-- Node8 -->
<g id="Node000008" class="node">
<title>Node8</title>
<g id="a_Node000008"><a xlink:href="a02364.html#a45a896fb606c2aa66a5a4c2af59ce494" target="_top" xlink:title=" ">
<polygon fill="white" stroke="#666666" points="845.25,-55.5 730.25,-55.5 730.25,-37 845.25,-37 845.25,-55.5"/>
<text text-anchor="middle" x="787.75" y="-42" font-family="Helvetica,sans-Serif" font-size="10.00">async_condition_notify</text>
</a>
</g>
</g>
<!-- Node5&#45;&gt;Node8 -->
<g id="edge9_Node000005_Node000008" class="edge">
<title>Node5&#45;&gt;Node8</title>
<g id="a_edge9_Node000005_Node000008"><a xlink:title=" ">
<path fill="none" stroke="#63b8ff" d="M692.15,-46.25C700.72,-46.25 709.66,-46.25 718.49,-46.25"/>
<polygon fill="#63b8ff" stroke="#63b8ff" points="718.46,-49.75 728.46,-46.25 718.46,-42.75 718.46,-49.75"/>
</a>
</g>
</g>
<!-- Node5&#45;&gt;Node10 -->
<g id="edge11_Node000005_Node000010" class="edge">
<title>Node5&#45;&gt;Node10</title>
<g id="a_edge11_Node000005_Node000010"><a xlink:title=" ">
<path fill="none" stroke="#63b8ff" d="M676.62,-36.53C694.9,-32 716.87,-26.56 736.36,-21.73"/>
<polygon fill="#63b8ff" stroke="#63b8ff" points="737.17,-25.14 746.04,-19.33 735.49,-18.34 737.17,-25.14"/>
</a>
</g>
</g>
<!-- Node7 -->
<g id="Node000007" class="node">
<title>Node7</title>
<g id="a_Node000007"><a xlink:href="a02358.html#aebf9e72bb6cbd8b9e33489d46c25075d" target="_top" xlink:title=" ">
<polygon fill="white" stroke="#666666" points="1011.25,-119.5 894.75,-119.5 894.75,-101 1011.25,-101 1011.25,-119.5"/>
<text text-anchor="middle" x="953" y="-106" font-family="Helvetica,sans-Serif" font-size="10.00">async_completion_wait</text>
</a>
</g>
</g>
<!-- Node6&#45;&gt;Node7 -->
<g id="edge8_Node000006_Node000007" class="edge">
<title>Node6&#45;&gt;Node7</title>
<g id="a_edge8_Node000006_Node000007"><a xlink:title=" ">
<path fill="none" stroke="#63b8ff" d="M842.66,-110.25C855.64,-110.25 869.69,-110.25 883.26,-110.25"/>
<polygon fill="#63b8ff" stroke="#63b8ff" points="882.99,-113.75 892.99,-110.25 882.99,-106.75 882.99,-113.75"/>
</a>
</g>
</g>
<!-- Node9 -->
<g id="Node000009" class="node">
<title>Node9</title>
<g id="a_Node000009"><a xlink:href="a02358.html#a0fa370eee5160963e617d1daf1c07363" target="_top" xlink:title=" ">
<polygon fill="white" stroke="#666666" points="1009.38,-55.5 896.62,-55.5 896.62,-37 1009.38,-37 1009.38,-55.5"/>
<text text-anchor="middle" x="953" y="-42" font-family="Helvetica,sans-Serif" font-size="10.00">async_semaphore_inc</text>
</a>
</g>
</g>
<!-- Node8&#45;&gt;Node9 -->
<g id="edge10_Node000008_Node000009" class="edge">
<title>Node8&#45;&gt;Node9</title>
<g id="a_edge10_Node000008_Node000009"><a xlink:title=" ">
<path fill="none" stroke="#63b8ff" d="M845.39,-46.25C858.14,-46.25 871.79,-46.25 884.92,-46.25"/>
<polygon fill="#63b8ff" stroke="#63b8ff" points="884.78,-49.75 894.78,-46.25 884.77,-42.75 884.78,-49.75"/>
</a>
</g>
</g>
<!-- Node11 -->
<g id="Node000011" class="node">
<title>Node11</title>
<g id="a_Node000011"><a xlink:href="a02358.html#ad1d30ecbf6bff6457b680aa940281072" target="_top" xlink:title=" ">
<polygon fill="white" stroke="#666666" points="1022.5,-18.5 883.5,-18.5 883.5,0 1022.5,0 1022.5,-18.5"/>
<text text-anchor="middle" x="953" y="-5" font-family="Helvetica,sans-Serif" font-size="10.00">async_completion_complete</text>
</a>
</g>
</g>
<!-- Node10&#45;&gt;Node11 -->
<g id="edge12_Node000010_Node000011" class="edge">
<title>Node10&#45;&gt;Node11</title>
<g id="a_edge12_Node000010_Node000011"><a xlink:title=" ">
<path fill="none" stroke="#63b8ff" d="M847.69,-9.25C855.51,-9.25 863.63,-9.25 871.74,-9.25"/>
<polygon fill="#63b8ff" stroke="#63b8ff" points="871.64,-12.75 881.64,-9.25 871.64,-5.75 871.64,-12.75"/>
</a>
</g>
</g>
</g>
</svg>
