<?xml version="1.0" encoding="UTF-8" standalone="no"?>
<!DOCTYPE svg PUBLIC "-//W3C//DTD SVG 1.1//EN"
 "http://www.w3.org/Graphics/SVG/1.1/DTD/svg11.dtd">
<!-- Generated by graphviz version 12.2.1 (0)
 -->
<!-- Title: utils_config_get_long Pages: 1 -->
<svg width="777pt" height="77pt"
 viewBox="0.00 0.00 776.75 77.48" xmlns="http://www.w3.org/2000/svg" xmlns:xlink="http://www.w3.org/1999/xlink">
<g id="graph0" class="graph" transform="scale(1 1) rotate(0) translate(4 73.48)">
<title>utils_config_get_long</title>
<!-- Node1 -->
<g id="Node000001" class="node">
<title>Node1</title>
<g id="a_Node000001"><a xlink:title=" ">
<polygon fill="#999999" stroke="#666666" points="107.5,-36.5 0,-36.5 0,-18 107.5,-18 107.5,-36.5"/>
<text text-anchor="middle" x="53.75" y="-23" font-family="Helvetica,sans-Serif" font-size="10.00">utils_config_get_long</text>
</a>
</g>
</g>
<!-- Node2 -->
<g id="Node000002" class="node">
<title>Node2</title>
<g id="a_Node000002"><a xlink:href="a01952.html#a0738274ac3fd171eda6bfb42492bc0d7" target="_top" xlink:title=" ">
<polygon fill="white" stroke="#666666" points="401.62,-55.5 295.62,-55.5 295.62,-37 401.62,-37 401.62,-55.5"/>
<text text-anchor="middle" x="348.62" y="-42" font-family="Helvetica,sans-Serif" font-size="10.00">_utils_config_get_str</text>
</a>
</g>
</g>
<!-- Node1&#45;&gt;Node2 -->
<g id="edge1_Node000001_Node000002" class="edge">
<title>Node1&#45;&gt;Node2</title>
<g id="a_edge1_Node000001_Node000002"><a xlink:title=" ">
<path fill="none" stroke="#63b8ff" d="M107.79,-30.69C157.39,-33.91 231.53,-38.72 284.24,-42.14"/>
<polygon fill="#63b8ff" stroke="#63b8ff" points="283.76,-45.61 293.96,-42.77 284.21,-38.63 283.76,-45.61"/>
</a>
</g>
</g>
<!-- Node7 -->
<g id="Node000007" class="node">
<title>Node7</title>
<g id="a_Node000007"><a xlink:href="a01952.html#a88091e179416d4beec1b5681cfb68742" target="_top" xlink:title=" ">
<polygon fill="white" stroke="#666666" points="258.5,-18.5 143.5,-18.5 143.5,0 258.5,0 258.5,-18.5"/>
<text text-anchor="middle" x="201" y="-5" font-family="Helvetica,sans-Serif" font-size="10.00">utils_config_write_long</text>
</a>
</g>
</g>
<!-- Node1&#45;&gt;Node7 -->
<g id="edge7_Node000001_Node000007" class="edge">
<title>Node1&#45;&gt;Node7</title>
<g id="a_edge7_Node000001_Node000007"><a xlink:title=" ">
<path fill="none" stroke="#63b8ff" d="M107.6,-20.7C115.43,-19.73 123.59,-18.72 131.68,-17.72"/>
<polygon fill="#63b8ff" stroke="#63b8ff" points="132.03,-21.2 141.52,-16.5 131.17,-14.25 132.03,-21.2"/>
</a>
</g>
</g>
<!-- Node3 -->
<g id="Node000003" class="node">
<title>Node3</title>
<g id="a_Node000003"><a xlink:href="a01952.html#a8b687fb4c464903e23504eea3ddc3873" target="_top" xlink:title=" ">
<polygon fill="white" stroke="#666666" points="492.25,-55.5 438.75,-55.5 438.75,-37 492.25,-37 492.25,-55.5"/>
<text text-anchor="middle" x="465.5" y="-42" font-family="Helvetica,sans-Serif" font-size="10.00">conf_get</text>
</a>
</g>
</g>
<!-- Node2&#45;&gt;Node3 -->
<g id="edge2_Node000002_Node000003" class="edge">
<title>Node2&#45;&gt;Node3</title>
<g id="a_edge2_Node000002_Node000003"><a xlink:title=" ">
<path fill="none" stroke="#63b8ff" d="M402.02,-46.25C410.53,-46.25 419.19,-46.25 427.24,-46.25"/>
<polygon fill="#63b8ff" stroke="#63b8ff" points="427,-49.75 437,-46.25 427,-42.75 427,-49.75"/>
</a>
</g>
</g>
<!-- Node4 -->
<g id="Node000004" class="node">
<title>Node4</title>
<g id="a_Node000004"><a xlink:href="a01961.html#acde493d3889d6f207d1e122cf4bb1b8c" target="_top" xlink:title=" ">
<polygon fill="white" stroke="#666666" points="768.75,-55.5 683,-55.5 683,-37 768.75,-37 768.75,-55.5"/>
<text text-anchor="middle" x="725.88" y="-42" font-family="Helvetica,sans-Serif" font-size="10.00">system_env_var</text>
</a>
</g>
</g>
<!-- Node3&#45;&gt;Node4 -->
<g id="edge3_Node000003_Node000004" class="edge">
<title>Node3&#45;&gt;Node4</title>
<g id="a_edge3_Node000003_Node000004"><a xlink:title=" ">
<path fill="none" stroke="#63b8ff" d="M492.58,-55.63C503.46,-59.08 516.31,-62.55 528.25,-64.25 580.5,-71.71 594.56,-70.23 647,-64.25 657.63,-63.04 668.92,-60.92 679.51,-58.56"/>
<polygon fill="#63b8ff" stroke="#63b8ff" points="680.26,-61.98 689.19,-56.27 678.66,-55.16 680.26,-61.98"/>
</a>
</g>
</g>
<!-- Node5 -->
<g id="Node000005" class="node">
<title>Node5</title>
<g id="a_Node000005"><a xlink:href="a01961.html#a86c3bfbf6daaf8172e131aa23dc7393c" target="_top" xlink:title=" ">
<polygon fill="white" stroke="#666666" points="631.25,-55.5 544,-55.5 544,-37 631.25,-37 631.25,-55.5"/>
<text text-anchor="middle" x="587.62" y="-42" font-family="Helvetica,sans-Serif" font-size="10.00">system_file_size</text>
</a>
</g>
</g>
<!-- Node3&#45;&gt;Node5 -->
<g id="edge4_Node000003_Node000005" class="edge">
<title>Node3&#45;&gt;Node5</title>
<g id="a_edge4_Node000003_Node000005"><a xlink:title=" ">
<path fill="none" stroke="#63b8ff" d="M492.57,-46.25C504.21,-46.25 518.4,-46.25 532.18,-46.25"/>
<polygon fill="#63b8ff" stroke="#63b8ff" points="532.09,-49.75 542.09,-46.25 532.09,-42.75 532.09,-49.75"/>
</a>
</g>
</g>
<!-- Node6 -->
<g id="Node000006" class="node">
<title>Node6</title>
<g id="a_Node000006"><a xlink:href="a01952.html#a17713c8e9b90065e23b0ec1a225f79ab" target="_top" xlink:title=" ">
<polygon fill="white" stroke="#666666" points="647,-18.5 528.25,-18.5 528.25,0 647,0 647,-18.5"/>
<text text-anchor="middle" x="587.62" y="-5" font-family="Helvetica,sans-Serif" font-size="10.00">utils_config_get_source</text>
</a>
</g>
</g>
<!-- Node3&#45;&gt;Node6 -->
<g id="edge5_Node000003_Node000006" class="edge">
<title>Node3&#45;&gt;Node6</title>
<g id="a_edge5_Node000003_Node000006"><a xlink:title=" ">
<path fill="none" stroke="#63b8ff" d="M492.57,-38.22C507.62,-33.58 526.93,-27.64 544.13,-22.34"/>
<polygon fill="#63b8ff" stroke="#63b8ff" points="545.09,-25.71 553.61,-19.42 543.03,-19.02 545.09,-25.71"/>
</a>
</g>
</g>
<!-- Node6&#45;&gt;Node4 -->
<g id="edge6_Node000006_Node000004" class="edge">
<title>Node6&#45;&gt;Node4</title>
<g id="a_edge6_Node000006_Node000004"><a xlink:title=" ">
<path fill="none" stroke="#63b8ff" d="M624.42,-18.97C640.93,-23.45 660.73,-28.83 678.38,-33.62"/>
<polygon fill="#63b8ff" stroke="#63b8ff" points="677.29,-36.95 687.86,-36.2 679.12,-30.2 677.29,-36.95"/>
</a>
</g>
</g>
<!-- Node8 -->
<g id="Node000008" class="node">
<title>Node8</title>
<g id="a_Node000008"><a xlink:href="a01952.html#a4b9cd8f5d0c205ac6c1fd30f77cbf539" target="_top" xlink:title=" ">
<polygon fill="white" stroke="#666666" points="402.75,-18.5 294.5,-18.5 294.5,0 402.75,0 402.75,-18.5"/>
<text text-anchor="middle" x="348.62" y="-5" font-family="Helvetica,sans-Serif" font-size="10.00">utils_config_write_str</text>
</a>
</g>
</g>
<!-- Node7&#45;&gt;Node8 -->
<g id="edge8_Node000007_Node000008" class="edge">
<title>Node7&#45;&gt;Node8</title>
<g id="a_edge8_Node000007_Node000008"><a xlink:title=" ">
<path fill="none" stroke="#63b8ff" d="M258.72,-9.25C266.64,-9.25 274.84,-9.25 282.9,-9.25"/>
<polygon fill="#63b8ff" stroke="#63b8ff" points="282.65,-12.75 292.65,-9.25 282.65,-5.75 282.65,-12.75"/>
</a>
</g>
</g>
<!-- Node8&#45;&gt;Node3 -->
<g id="edge9_Node000008_Node000003" class="edge">
<title>Node8&#45;&gt;Node3</title>
<g id="a_edge9_Node000008_Node000003"><a xlink:title=" ">
<path fill="none" stroke="#63b8ff" d="M379.81,-18.97C394.46,-23.69 412.2,-29.41 427.65,-34.38"/>
<polygon fill="#63b8ff" stroke="#63b8ff" points="426.39,-37.65 436.98,-37.39 428.53,-30.99 426.39,-37.65"/>
</a>
</g>
</g>
<!-- Node9 -->
<g id="Node000009" class="node">
<title>Node9</title>
<g id="a_Node000009"><a xlink:href="a01952.html#ab87e9691e65d65348749f8dc70f24602" target="_top" xlink:title=" ">
<polygon fill="white" stroke="#666666" points="492.25,-18.5 438.75,-18.5 438.75,0 492.25,0 492.25,-18.5"/>
<text text-anchor="middle" x="465.5" y="-5" font-family="Helvetica,sans-Serif" font-size="10.00">conf_set</text>
</a>
</g>
</g>
<!-- Node8&#45;&gt;Node9 -->
<g id="edge10_Node000008_Node000009" class="edge">
<title>Node8&#45;&gt;Node9</title>
<g id="a_edge10_Node000008_Node000009"><a xlink:title=" ">
<path fill="none" stroke="#63b8ff" d="M403.03,-9.25C411.1,-9.25 419.28,-9.25 426.93,-9.25"/>
<polygon fill="#63b8ff" stroke="#63b8ff" points="426.9,-12.75 436.9,-9.25 426.9,-5.75 426.9,-12.75"/>
</a>
</g>
</g>
<!-- Node9&#45;&gt;Node6 -->
<g id="edge11_Node000009_Node000006" class="edge">
<title>Node9&#45;&gt;Node6</title>
<g id="a_edge11_Node000009_Node000006"><a xlink:title=" ">
<path fill="none" stroke="#63b8ff" d="M492.57,-9.25C499.86,-9.25 508.15,-9.25 516.71,-9.25"/>
<polygon fill="#63b8ff" stroke="#63b8ff" points="516.56,-12.75 526.56,-9.25 516.56,-5.75 516.56,-12.75"/>
</a>
</g>
</g>
</g>
</svg>
