<?xml version="1.0" encoding="UTF-8" standalone="no"?>
<!DOCTYPE svg PUBLIC "-//W3C//DTD SVG 1.1//EN"
 "http://www.w3.org/Graphics/SVG/1.1/DTD/svg11.dtd">
<!-- Generated by graphviz version 12.2.1 (0)
 -->
<!-- Title: arax_task_mark_done Pages: 1 -->
<svg width="396pt" height="27pt"
 viewBox="0.00 0.00 395.75 26.50" xmlns="http://www.w3.org/2000/svg" xmlns:xlink="http://www.w3.org/1999/xlink">
<g id="graph0" class="graph" transform="scale(1 1) rotate(0) translate(4 22.5)">
<title>arax_task_mark_done</title>
<!-- Node1 -->
<g id="Node000001" class="node">
<title>Node1</title>
<g id="a_Node000001"><a xlink:title=" ">
<polygon fill="#999999" stroke="#666666" points="113.5,-18.5 0,-18.5 0,0 113.5,0 113.5,-18.5"/>
<text text-anchor="middle" x="56.75" y="-5" font-family="Helvetica,sans-Serif" font-size="10.00">arax_task_mark_done</text>
</a>
</g>
</g>
<!-- Node2 -->
<g id="Node000002" class="node">
<title>Node2</title>
<g id="a_Node000002"><a xlink:href="a02364.html#ad1d30ecbf6bff6457b680aa940281072" target="_top" xlink:title=" ">
<polygon fill="white" stroke="#666666" points="288.5,-18.5 149.5,-18.5 149.5,0 288.5,0 288.5,-18.5"/>
<text text-anchor="middle" x="219" y="-5" font-family="Helvetica,sans-Serif" font-size="10.00">async_completion_complete</text>
</a>
</g>
</g>
<!-- Node1&#45;&gt;Node2 -->
<g id="edge1_Node000001_Node000002" class="edge">
<title>Node1&#45;&gt;Node2</title>
<g id="a_edge1_Node000001_Node000002"><a xlink:title=" ">
<path fill="none" stroke="#63b8ff" d="M113.8,-9.25C121.53,-9.25 129.59,-9.25 137.65,-9.25"/>
<polygon fill="#63b8ff" stroke="#63b8ff" points="137.5,-12.75 147.5,-9.25 137.5,-5.75 137.5,-12.75"/>
</a>
</g>
</g>
<!-- Node3 -->
<g id="Node000003" class="node">
<title>Node3</title>
<g id="a_Node000003"><a xlink:href="a02358.html#ab5d38a2680290bd159549efaa41b925b" target="_top" xlink:title=" ">
<polygon fill="white" stroke="#666666" points="387.75,-18.5 324.5,-18.5 324.5,0 387.75,0 387.75,-18.5"/>
<text text-anchor="middle" x="356.12" y="-5" font-family="Helvetica,sans-Serif" font-size="10.00">wakeupVm</text>
</a>
</g>
</g>
<!-- Node2&#45;&gt;Node3 -->
<g id="edge2_Node000002_Node000003" class="edge">
<title>Node2&#45;&gt;Node3</title>
<g id="a_edge2_Node000002_Node000003"><a xlink:title=" ">
<path fill="none" stroke="#63b8ff" d="M288.75,-9.25C296.88,-9.25 304.99,-9.25 312.6,-9.25"/>
<polygon fill="#63b8ff" stroke="#63b8ff" points="312.57,-12.75 322.57,-9.25 312.57,-5.75 312.57,-12.75"/>
</a>
</g>
</g>
</g>
</svg>
