<?xml version="1.0" encoding="UTF-8" standalone="no"?>
<!DOCTYPE svg PUBLIC "-//W3C//DTD SVG 1.1//EN"
 "http://www.w3.org/Graphics/SVG/1.1/DTD/svg11.dtd">
<!-- Generated by graphviz version 12.2.1 (0)
 -->
<!-- Title: find_start Pages: 1 -->
<svg width="320pt" height="27pt"
 viewBox="0.00 0.00 320.00 26.50" xmlns="http://www.w3.org/2000/svg" xmlns:xlink="http://www.w3.org/1999/xlink">
<g id="graph0" class="graph" transform="scale(1 1) rotate(0) translate(4 22.5)">
<title>find_start</title>
<!-- Node1 -->
<g id="Node000001" class="node">
<title>Node1</title>
<g id="a_Node000001"><a xlink:title=" ">
<polygon fill="#999999" stroke="#666666" points="312,-18.5 254.75,-18.5 254.75,0 312,0 312,-18.5"/>
<text text-anchor="middle" x="283.38" y="-5" font-family="Helvetica,sans-Serif" font-size="10.00">find_start</text>
</a>
</g>
</g>
<!-- Node2 -->
<g id="Node000002" class="node">
<title>Node2</title>
<g id="a_Node000002"><a xlink:href="a01949.html#a306b62b1bc50d56e80ba7b7adb02f961" target="_top" xlink:title=" ">
<polygon fill="white" stroke="#666666" points="218.75,-18.5 103.75,-18.5 103.75,0 218.75,0 218.75,-18.5"/>
<text text-anchor="middle" x="161.25" y="-5" font-family="Helvetica,sans-Serif" font-size="10.00">utils_bitmap_alloc_bits</text>
</a>
</g>
</g>
<!-- Node1&#45;&gt;Node2 -->
<g id="edge1_Node000001_Node000002" class="edge">
<title>Node1&#45;&gt;Node2</title>
<g id="a_edge1_Node000001_Node000002"><a xlink:title=" ">
<path fill="none" stroke="#63b8ff" d="M243.19,-9.25C235.4,-9.25 227.07,-9.25 218.84,-9.25"/>
<polygon fill="#63b8ff" stroke="#63b8ff" points="243,-12.75 253,-9.25 243,-5.75 243,-12.75"/>
</a>
</g>
</g>
<!-- Node3 -->
<g id="Node000003" class="node">
<title>Node3</title>
<g id="a_Node000003"><a xlink:href="a02355.html#a645f029b25098d24aca61b20beabe1bf" target="_top" xlink:title=" ">
<polygon fill="white" stroke="#666666" points="67.75,-18.5 0,-18.5 0,0 67.75,0 67.75,-18.5"/>
<text text-anchor="middle" x="33.88" y="-5" font-family="Helvetica,sans-Serif" font-size="10.00">arax_mmap</text>
</a>
</g>
</g>
<!-- Node2&#45;&gt;Node3 -->
<g id="edge2_Node000002_Node000003" class="edge">
<title>Node2&#45;&gt;Node3</title>
<g id="a_edge2_Node000002_Node000003"><a xlink:title=" ">
<path fill="none" stroke="#63b8ff" d="M92.1,-9.25C83.81,-9.25 75.65,-9.25 68.21,-9.25"/>
<polygon fill="#63b8ff" stroke="#63b8ff" points="91.92,-12.75 101.92,-9.25 91.92,-5.75 91.92,-12.75"/>
</a>
</g>
</g>
</g>
</svg>
