<?xml version="1.0" encoding="UTF-8" standalone="no"?>
<!DOCTYPE svg PUBLIC "-//W3C//DTD SVG 1.1//EN"
 "http://www.w3.org/Graphics/SVG/1.1/DTD/svg11.dtd">
<!-- Generated by graphviz version 8.0.5 (0)
 -->
<!-- Title: ARAX_OBJ_DTOR_DECL Pages: 1 -->
<svg width="641pt" height="249pt"
 viewBox="0.00 0.00 640.50 248.50" xmlns="http://www.w3.org/2000/svg" xmlns:xlink="http://www.w3.org/1999/xlink">
<g id="graph0" class="graph" transform="scale(1 1) rotate(0) translate(4 244.5)">
<title>ARAX_OBJ_DTOR_DECL</title>
<!-- Node1 -->
<g id="Node000001" class="node">
<title>Node1</title>
<g id="a_Node000001"><a xlink:title=" ">
<polygon fill="#999999" stroke="#666666" points="132.25,-110.5 0,-110.5 0,-92 132.25,-92 132.25,-110.5"/>
<text text-anchor="middle" x="66.12" y="-97" font-family="Helvetica,sans-Serif" font-size="10.00">ARAX_OBJ_DTOR_DECL</text>
</a>
</g>
</g>
<!-- Node2 -->
<g id="Node000002" class="node">
<title>Node2</title>
<g id="a_Node000002"><a xlink:href="a01904.html#aa3f384ca4812e46dedce753be42654df" target="_top" xlink:title=" ">
<polygon fill="white" stroke="#666666" points="291.12,-131.5 176.12,-131.5 176.12,-113 291.12,-113 291.12,-131.5"/>
<text text-anchor="middle" x="233.62" y="-118" font-family="Helvetica,sans-Serif" font-size="10.00">arax_accel_del_vaccel</text>
</a>
</g>
</g>
<!-- Node1&#45;&gt;Node2 -->
<g id="edge1_Node000001_Node000002" class="edge">
<title>Node1&#45;&gt;Node2</title>
<g id="a_edge1_Node000001_Node000002"><a xlink:title=" ">
<path fill="none" stroke="#63b8ff" d="M132.53,-109.55C143.24,-110.91 154.35,-112.32 165.11,-113.68"/>
<polygon fill="#63b8ff" stroke="#63b8ff" points="164.36,-117.24 174.72,-115.03 165.24,-110.3 164.36,-117.24"/>
</a>
</g>
</g>
<!-- Node14 -->
<g id="Node000014" class="node">
<title>Node14</title>
<g id="a_Node000014"><a xlink:href="a01913.html#aa5172b735dddd3f77fbb0265bbcdfc20" target="_top" xlink:title=" ">
<polygon fill="white" stroke="#666666" points="299,-94.75 168.25,-94.75 168.25,-65.75 299,-65.75 299,-94.75"/>
<text text-anchor="start" x="176.25" y="-81.25" font-family="Helvetica,sans-Serif" font-size="10.00">arax_pipe_remove_orphan</text>
<text text-anchor="middle" x="233.62" y="-70.75" font-family="Helvetica,sans-Serif" font-size="10.00">_vaccel</text>
</a>
</g>
</g>
<!-- Node1&#45;&gt;Node14 -->
<g id="edge13_Node000001_Node000014" class="edge">
<title>Node1&#45;&gt;Node14</title>
<g id="a_edge13_Node000001_Node000014"><a xlink:title=" ">
<path fill="none" stroke="#63b8ff" d="M132.53,-92.95C140.64,-91.92 148.98,-90.86 157.21,-89.82"/>
<polygon fill="#63b8ff" stroke="#63b8ff" points="157.48,-93.19 166.96,-88.46 156.6,-86.24 157.48,-93.19"/>
</a>
</g>
</g>
<!-- Node3 -->
<g id="Node000003" class="node">
<title>Node3</title>
<g id="a_Node000003"><a xlink:href="a01904.html#aed864d2fab73a39a8c98356f7bca1304" target="_top" xlink:title=" ">
<polygon fill="white" stroke="#666666" points="456.75,-240.5 335.75,-240.5 335.75,-222 456.75,-222 456.75,-240.5"/>
<text text-anchor="middle" x="396.25" y="-227" font-family="Helvetica,sans-Serif" font-size="10.00">arax_accel_inc_revision</text>
</a>
</g>
</g>
<!-- Node2&#45;&gt;Node3 -->
<g id="edge2_Node000002_Node000003" class="edge">
<title>Node2&#45;&gt;Node3</title>
<g id="a_edge2_Node000002_Node000003"><a xlink:title=" ">
<path fill="none" stroke="#63b8ff" d="M242.74,-131.85C258.64,-150.08 295.76,-189.87 335,-212.25 338.44,-214.21 342.11,-216 345.88,-217.62"/>
<polygon fill="#63b8ff" stroke="#63b8ff" points="344.39,-221.19 354.98,-221.54 346.92,-214.66 344.39,-221.19"/>
</a>
</g>
</g>
<!-- Node4 -->
<g id="Node000004" class="node">
<title>Node4</title>
<g id="a_Node000004"><a xlink:href="a01928.html#ab2fa3d6e6c761009b464cc0fbedc6a16" target="_top" xlink:title=" ">
<polygon fill="white" stroke="#666666" points="457.5,-203.5 335,-203.5 335,-185 457.5,-185 457.5,-203.5"/>
<text text-anchor="middle" x="396.25" y="-190" font-family="Helvetica,sans-Serif" font-size="10.00">arax_vaccel_queue_size</text>
</a>
</g>
</g>
<!-- Node2&#45;&gt;Node4 -->
<g id="edge3_Node000002_Node000004" class="edge">
<title>Node2&#45;&gt;Node4</title>
<g id="a_edge3_Node000002_Node000004"><a xlink:title=" ">
<path fill="none" stroke="#63b8ff" d="M250.53,-131.8C269.97,-143.2 304.09,-162.34 335,-175.25 340,-177.34 345.3,-179.32 350.62,-181.17"/>
<polygon fill="#63b8ff" stroke="#63b8ff" points="349.18,-184.72 359.77,-184.55 351.39,-178.07 349.18,-184.72"/>
</a>
</g>
</g>
<!-- Node7 -->
<g id="Node000007" class="node">
<title>Node7</title>
<g id="a_Node000007"><a xlink:href="a02352.html#aed6af4d83e934e3e654ead541b15f2d9" target="_top" xlink:title=" ">
<polygon fill="white" stroke="#666666" points="450.75,-129.5 341.75,-129.5 341.75,-111 450.75,-111 450.75,-129.5"/>
<text text-anchor="middle" x="396.25" y="-116" font-family="Helvetica,sans-Serif" font-size="10.00">async_condition_lock</text>
</a>
</g>
</g>
<!-- Node2&#45;&gt;Node7 -->
<g id="edge6_Node000002_Node000007" class="edge">
<title>Node2&#45;&gt;Node7</title>
<g id="a_edge6_Node000002_Node000007"><a xlink:title=" ">
<path fill="none" stroke="#63b8ff" d="M291.26,-121.54C303.96,-121.39 317.53,-121.22 330.53,-121.06"/>
<polygon fill="#63b8ff" stroke="#63b8ff" points="330.33,-124.55 340.29,-120.92 330.24,-117.55 330.33,-124.55"/>
</a>
</g>
</g>
<!-- Node9 -->
<g id="Node000009" class="node">
<title>Node9</title>
<g id="a_Node000009"><a xlink:href="a02352.html#a45a896fb606c2aa66a5a4c2af59ce494" target="_top" xlink:title=" ">
<polygon fill="white" stroke="#666666" points="453.75,-166.5 338.75,-166.5 338.75,-148 453.75,-148 453.75,-166.5"/>
<text text-anchor="middle" x="396.25" y="-153" font-family="Helvetica,sans-Serif" font-size="10.00">async_condition_notify</text>
</a>
</g>
</g>
<!-- Node2&#45;&gt;Node9 -->
<g id="edge8_Node000002_Node000009" class="edge">
<title>Node2&#45;&gt;Node9</title>
<g id="a_edge8_Node000002_Node000009"><a xlink:title=" ">
<path fill="none" stroke="#63b8ff" d="M279.37,-132C298.17,-136.1 320.22,-140.9 340.02,-145.21"/>
<polygon fill="#63b8ff" stroke="#63b8ff" points="339.23,-148.84 349.75,-147.55 340.72,-142 339.23,-148.84"/>
</a>
</g>
</g>
<!-- Node11 -->
<g id="Node000011" class="node">
<title>Node11</title>
<g id="a_Node000011"><a xlink:href="a02352.html#a3bbcb7c4c024e99d5c4ba52b61dfbbf7" target="_top" xlink:title=" ">
<polygon fill="white" stroke="#666666" points="456,-55.5 336.5,-55.5 336.5,-37 456,-37 456,-55.5"/>
<text text-anchor="middle" x="396.25" y="-42" font-family="Helvetica,sans-Serif" font-size="10.00">async_condition_unlock</text>
</a>
</g>
</g>
<!-- Node2&#45;&gt;Node11 -->
<g id="edge10_Node000002_Node000011" class="edge">
<title>Node2&#45;&gt;Node11</title>
<g id="a_edge10_Node000002_Node000011"><a xlink:title=" ">
<path fill="none" stroke="#63b8ff" d="M281.29,-112.55C287.48,-110.31 293.56,-107.58 299,-104.25 319.12,-91.94 315.08,-77.89 335,-65.25 337.96,-63.37 341.13,-61.66 344.4,-60.11"/>
<polygon fill="#63b8ff" stroke="#63b8ff" points="345.53,-63.01 353.42,-55.93 342.84,-56.55 345.53,-63.01"/>
</a>
</g>
</g>
<!-- Node13 -->
<g id="Node000013" class="node">
<title>Node13</title>
<g id="a_Node000013"><a xlink:href="a01946.html#a0c85e5516222ab7e7fc354c614760ec5" target="_top" xlink:title=" ">
<polygon fill="white" stroke="#666666" points="431.25,-92.5 361.25,-92.5 361.25,-74 431.25,-74 431.25,-92.5"/>
<text text-anchor="middle" x="396.25" y="-79" font-family="Helvetica,sans-Serif" font-size="10.00">utils_list_del</text>
</a>
</g>
</g>
<!-- Node2&#45;&gt;Node13 -->
<g id="edge12_Node000002_Node000013" class="edge">
<title>Node2&#45;&gt;Node13</title>
<g id="a_edge12_Node000002_Node000013"><a xlink:title=" ">
<path fill="none" stroke="#63b8ff" d="M274.74,-112.51C297.71,-106.93 326.58,-99.92 350.31,-94.16"/>
<polygon fill="#63b8ff" stroke="#63b8ff" points="350.92,-97.37 359.81,-91.61 349.26,-90.57 350.92,-97.37"/>
</a>
</g>
</g>
<!-- Node5 -->
<g id="Node000005" class="node">
<title>Node5</title>
<g id="a_Node000005"><a xlink:href="a01928.html#afe1eb3edd264c847c36e9456b2598452" target="_top" xlink:title=" ">
<polygon fill="white" stroke="#666666" points="613,-240.5 513,-240.5 513,-222 613,-222 613,-240.5"/>
<text text-anchor="middle" x="563" y="-227" font-family="Helvetica,sans-Serif" font-size="10.00">arax_vaccel_queue</text>
</a>
</g>
</g>
<!-- Node4&#45;&gt;Node5 -->
<g id="edge4_Node000004_Node000005" class="edge">
<title>Node4&#45;&gt;Node5</title>
<g id="a_edge4_Node000004_Node000005"><a xlink:title=" ">
<path fill="none" stroke="#63b8ff" d="M440.54,-203.97C461.26,-208.63 486.29,-214.25 508.23,-219.17"/>
<polygon fill="#63b8ff" stroke="#63b8ff" points="507.19,-222.75 517.72,-221.53 508.73,-215.92 507.19,-222.75"/>
</a>
</g>
</g>
<!-- Node6 -->
<g id="Node000006" class="node">
<title>Node6</title>
<g id="a_Node000006"><a xlink:href="a01949.html#a5d84d59bded666fdcf1a8e949cb56a6a" target="_top" xlink:title=" ">
<polygon fill="white" stroke="#666666" points="622,-203.5 504,-203.5 504,-185 622,-185 622,-203.5"/>
<text text-anchor="middle" x="563" y="-190" font-family="Helvetica,sans-Serif" font-size="10.00">utils_queue_used_slots</text>
</a>
</g>
</g>
<!-- Node4&#45;&gt;Node6 -->
<g id="edge5_Node000004_Node000006" class="edge">
<title>Node4&#45;&gt;Node6</title>
<g id="a_edge5_Node000004_Node000006"><a xlink:title=" ">
<path fill="none" stroke="#63b8ff" d="M457.66,-194.25C469.01,-194.25 480.95,-194.25 492.54,-194.25"/>
<polygon fill="#63b8ff" stroke="#63b8ff" points="492.52,-197.75 502.52,-194.25 492.52,-190.75 492.52,-197.75"/>
</a>
</g>
</g>
<!-- Node8 -->
<g id="Node000008" class="node">
<title>Node8</title>
<g id="a_Node000008"><a xlink:href="a02346.html#aebf9e72bb6cbd8b9e33489d46c25075d" target="_top" xlink:title=" ">
<polygon fill="white" stroke="#666666" points="621.25,-129.5 504.75,-129.5 504.75,-111 621.25,-111 621.25,-129.5"/>
<text text-anchor="middle" x="563" y="-116" font-family="Helvetica,sans-Serif" font-size="10.00">async_completion_wait</text>
</a>
</g>
</g>
<!-- Node7&#45;&gt;Node8 -->
<g id="edge7_Node000007_Node000008" class="edge">
<title>Node7&#45;&gt;Node8</title>
<g id="a_edge7_Node000007_Node000008"><a xlink:title=" ">
<path fill="none" stroke="#63b8ff" d="M451.2,-120.25C464.81,-120.25 479.6,-120.25 493.81,-120.25"/>
<polygon fill="#63b8ff" stroke="#63b8ff" points="493.53,-123.75 503.53,-120.25 493.53,-116.75 493.53,-123.75"/>
</a>
</g>
</g>
<!-- Node10 -->
<g id="Node000010" class="node">
<title>Node10</title>
<g id="a_Node000010"><a xlink:href="a02346.html#a0fa370eee5160963e617d1daf1c07363" target="_top" xlink:title=" ">
<polygon fill="white" stroke="#666666" points="619.38,-166.5 506.62,-166.5 506.62,-148 619.38,-148 619.38,-166.5"/>
<text text-anchor="middle" x="563" y="-153" font-family="Helvetica,sans-Serif" font-size="10.00">async_semaphore_inc</text>
</a>
</g>
</g>
<!-- Node9&#45;&gt;Node10 -->
<g id="edge9_Node000009_Node000010" class="edge">
<title>Node9&#45;&gt;Node10</title>
<g id="a_edge9_Node000009_Node000010"><a xlink:title=" ">
<path fill="none" stroke="#63b8ff" d="M453.95,-157.25C467.31,-157.25 481.68,-157.25 495.44,-157.25"/>
<polygon fill="#63b8ff" stroke="#63b8ff" points="495.31,-160.75 505.31,-157.25 495.31,-153.75 495.31,-160.75"/>
</a>
</g>
</g>
<!-- Node12 -->
<g id="Node000012" class="node">
<title>Node12</title>
<g id="a_Node000012"><a xlink:href="a02346.html#ad1d30ecbf6bff6457b680aa940281072" target="_top" xlink:title=" ">
<polygon fill="white" stroke="#666666" points="632.5,-55.5 493.5,-55.5 493.5,-37 632.5,-37 632.5,-55.5"/>
<text text-anchor="middle" x="563" y="-42" font-family="Helvetica,sans-Serif" font-size="10.00">async_completion_complete</text>
</a>
</g>
</g>
<!-- Node11&#45;&gt;Node12 -->
<g id="edge11_Node000011_Node000012" class="edge">
<title>Node11&#45;&gt;Node12</title>
<g id="a_edge11_Node000011_Node000012"><a xlink:title=" ">
<path fill="none" stroke="#63b8ff" d="M456.26,-46.25C464.64,-46.25 473.36,-46.25 482.05,-46.25"/>
<polygon fill="#63b8ff" stroke="#63b8ff" points="482.01,-49.75 492.01,-46.25 482.01,-42.75 482.01,-49.75"/>
</a>
</g>
</g>
<!-- Node14&#45;&gt;Node7 -->
<g id="edge14_Node000014_Node000007" class="edge">
<title>Node14&#45;&gt;Node7</title>
<g id="a_edge14_Node000014_Node000007"><a xlink:title=" ">
<path fill="none" stroke="#63b8ff" d="M294.44,-95.14C311.41,-99.37 329.7,-103.93 345.97,-107.98"/>
<polygon fill="#63b8ff" stroke="#63b8ff" points="344.79,-111.54 355.34,-110.56 346.48,-104.75 344.79,-111.54"/>
</a>
</g>
</g>
<!-- Node14&#45;&gt;Node11 -->
<g id="edge15_Node000014_Node000011" class="edge">
<title>Node14&#45;&gt;Node11</title>
<g id="a_edge15_Node000014_Node000011"><a xlink:title=" ">
<path fill="none" stroke="#63b8ff" d="M299.49,-66.52C312.55,-63.75 326.18,-60.87 338.92,-58.17"/>
<polygon fill="#63b8ff" stroke="#63b8ff" points="339.32,-61.45 348.38,-55.96 337.87,-54.61 339.32,-61.45"/>
</a>
</g>
</g>
<!-- Node14&#45;&gt;Node13 -->
<g id="edge16_Node000014_Node000013" class="edge">
<title>Node14&#45;&gt;Node13</title>
<g id="a_edge16_Node000014_Node000013"><a xlink:title=" ">
<path fill="none" stroke="#63b8ff" d="M299.49,-81.46C316.45,-81.78 334.36,-82.11 350.04,-82.41"/>
<polygon fill="#63b8ff" stroke="#63b8ff" points="349.96,-85.92 360.03,-82.61 350.09,-78.92 349.96,-85.92"/>
</a>
</g>
</g>
<!-- Node15 -->
<g id="Node000015" class="node">
<title>Node15</title>
<g id="a_Node000015"><a xlink:href="a01946.html#ab0c44e095ebfd8721de878c42abcbbdc" target="_top" xlink:title=" ">
<polygon fill="white" stroke="#666666" points="450.38,-18.5 342.12,-18.5 342.12,0 450.38,0 450.38,-18.5"/>
<text text-anchor="middle" x="396.25" y="-5" font-family="Helvetica,sans-Serif" font-size="10.00">utils_list_node_linked</text>
</a>
</g>
</g>
<!-- Node14&#45;&gt;Node15 -->
<g id="edge17_Node000014_Node000015" class="edge">
<title>Node14&#45;&gt;Node15</title>
<g id="a_edge17_Node000014_Node000015"><a xlink:title=" ">
<path fill="none" stroke="#63b8ff" d="M260.45,-65.3C280.39,-54.14 308.88,-39.04 335,-28.25 340,-26.18 345.32,-24.21 350.64,-22.36"/>
<polygon fill="#63b8ff" stroke="#63b8ff" points="351.4,-25.47 359.79,-18.99 349.2,-18.82 351.4,-25.47"/>
</a>
</g>
</g>
</g>
</svg>
