<?xml version="1.0" encoding="UTF-8" standalone="no"?>
<!DOCTYPE svg PUBLIC "-//W3C//DTD SVG 1.1//EN"
 "http://www.w3.org/Graphics/SVG/1.1/DTD/svg11.dtd">
<!-- Generated by graphviz version 12.2.1 (0)
 -->
<!-- Title: utils_list_node_init Pages: 1 -->
<svg width="1615pt" height="666pt"
 viewBox="0.00 0.00 1615.00 666.25" xmlns="http://www.w3.org/2000/svg" xmlns:xlink="http://www.w3.org/1999/xlink">
<g id="graph0" class="graph" transform="scale(1 1) rotate(0) translate(4 662.25)">
<title>utils_list_node_init</title>
<!-- Node1 -->
<g id="Node000001" class="node">
<title>Node1</title>
<g id="a_Node000001"><a xlink:title=" ">
<polygon fill="#999999" stroke="#666666" points="1607,-558.5 1510.75,-558.5 1510.75,-540 1607,-540 1607,-558.5"/>
<text text-anchor="middle" x="1558.88" y="-545" font-family="Helvetica,sans-Serif" font-size="10.00">utils_list_node_init</text>
</a>
</g>
</g>
<!-- Node2 -->
<g id="Node000002" class="node">
<title>Node2</title>
<g id="a_Node000002"><a xlink:href="a01925.html#a402bbd6fa197c2c48d527325e5e2cf5b" target="_top" xlink:title=" ">
<polygon fill="white" stroke="#666666" points="727.25,-544.5 622.75,-544.5 622.75,-526 727.25,-526 727.25,-544.5"/>
<text text-anchor="middle" x="675" y="-531" font-family="Helvetica,sans-Serif" font-size="10.00">arax_object_register</text>
</a>
</g>
</g>
<!-- Node1&#45;&gt;Node2 -->
<g id="edge1_Node000001_Node000002" class="edge">
<title>Node1&#45;&gt;Node2</title>
<g id="a_edge1_Node000001_Node000002"><a xlink:title=" ">
<path fill="none" stroke="#63b8ff" d="M1524.36,-563.12C1471.32,-583.79 1364.35,-620.25 1269.88,-620.25 1269.88,-620.25 1269.88,-620.25 965.5,-620.25 859.43,-620.25 740.02,-567.07 694.75,-544.84"/>
<polygon fill="#63b8ff" stroke="#63b8ff" points="1525.42,-566.47 1533.43,-559.53 1522.84,-559.96 1525.42,-566.47"/>
</a>
</g>
</g>
<!-- Node17 -->
<g id="Node000017" class="node">
<title>Node17</title>
<g id="a_Node000017"><a xlink:href="a01943.html#a83ddb422946cf774c687c1ab63dcda15" target="_top" xlink:title=" ">
<polygon fill="white" stroke="#666666" points="571.75,-535.5 485.25,-535.5 485.25,-517 571.75,-517 571.75,-535.5"/>
<text text-anchor="middle" x="528.5" y="-522" font-family="Helvetica,sans-Serif" font-size="10.00">arax_vaccel_init</text>
</a>
</g>
</g>
<!-- Node1&#45;&gt;Node17 -->
<g id="edge21_Node000001_Node000017" class="edge">
<title>Node1&#45;&gt;Node17</title>
<g id="a_edge21_Node000001_Node000017"><a xlink:title=" ">
<path fill="none" stroke="#63b8ff" d="M1539.62,-566.06C1523.64,-579.89 1499.21,-598.98 1474.75,-610.25 1389.81,-649.37 1363.4,-658.25 1269.88,-658.25 1269.88,-658.25 1269.88,-658.25 814.88,-658.25 701.13,-658.25 690.33,-588.8 585.25,-545.25 577.22,-541.92 568.38,-538.71 560.15,-535.9"/>
<polygon fill="#63b8ff" stroke="#63b8ff" points="1541.7,-568.89 1546.85,-559.63 1537.05,-563.65 1541.7,-568.89"/>
</a>
</g>
</g>
<!-- Node20 -->
<g id="Node000020" class="node">
<title>Node20</title>
<g id="a_Node000020"><a xlink:href="a02364.html#ac728117d73179c279de49e01ae905dda" target="_top" xlink:title=" ">
<polygon fill="white" stroke="#666666" points="1474.75,-451.5 1362.75,-451.5 1362.75,-433 1474.75,-433 1474.75,-451.5"/>
<text text-anchor="middle" x="1418.75" y="-438" font-family="Helvetica,sans-Serif" font-size="10.00">async_completion_init</text>
</a>
</g>
</g>
<!-- Node1&#45;&gt;Node20 -->
<g id="edge22_Node000001_Node000020" class="edge">
<title>Node1&#45;&gt;Node20</title>
<g id="a_edge22_Node000001_Node000020"><a xlink:title=" ">
<path fill="none" stroke="#63b8ff" d="M1536.65,-532.8C1507.44,-510.18 1455.8,-470.18 1432.18,-451.88"/>
<polygon fill="#63b8ff" stroke="#63b8ff" points="1534.37,-535.47 1544.42,-538.83 1538.66,-529.94 1534.37,-535.47"/>
</a>
</g>
</g>
<!-- Node39 -->
<g id="Node000039" class="node">
<title>Node39</title>
<g id="a_Node000039"><a xlink:href="a01955.html#ab36e49d2e694b1da49504a689ed48e4a" target="_top" xlink:title=" ">
<polygon fill="white" stroke="#666666" points="1453.75,-246.5 1383.75,-246.5 1383.75,-228 1453.75,-228 1453.75,-246.5"/>
<text text-anchor="middle" x="1418.75" y="-233" font-family="Helvetica,sans-Serif" font-size="10.00">utils_list_init</text>
</a>
</g>
</g>
<!-- Node1&#45;&gt;Node39 -->
<g id="edge53_Node000001_Node000039" class="edge">
<title>Node1&#45;&gt;Node39</title>
<g id="a_edge53_Node000001_Node000039"><a xlink:title=" ">
<path fill="none" stroke="#63b8ff" d="M1548.97,-529.13C1522.2,-468.68 1443.18,-290.17 1423.99,-246.82"/>
<polygon fill="#63b8ff" stroke="#63b8ff" points="1545.73,-530.46 1552.98,-538.19 1552.13,-527.63 1545.73,-530.46"/>
</a>
</g>
</g>
<!-- Node3 -->
<g id="Node000003" class="node">
<title>Node3</title>
<g id="a_Node000003"><a xlink:href="a01916.html#a0706a66a62ca8710342ac1c097b703ed" target="_top" xlink:title=" ">
<polygon fill="white" stroke="#666666" points="413.62,-376.5 331.62,-376.5 331.62,-358 413.62,-358 413.62,-376.5"/>
<text text-anchor="middle" x="372.62" y="-363" font-family="Helvetica,sans-Serif" font-size="10.00">arax_accel_init</text>
</a>
</g>
</g>
<!-- Node2&#45;&gt;Node3 -->
<g id="edge2_Node000002_Node000003" class="edge">
<title>Node2&#45;&gt;Node3</title>
<g id="a_edge2_Node000002_Node000003"><a xlink:title=" ">
<path fill="none" stroke="#63b8ff" d="M631.62,-522.22C574.4,-504.53 478.72,-474.63 471.75,-470.25 466.34,-466.85 405.52,-401.61 382.44,-376.75"/>
<polygon fill="#63b8ff" stroke="#63b8ff" points="630.48,-525.53 641.07,-525.13 632.55,-518.84 630.48,-525.53"/>
</a>
</g>
</g>
<!-- Node4 -->
<g id="Node000004" class="node">
<title>Node4</title>
<g id="a_Node000004"><a xlink:href="a01922.html#a526989df37e605824d846b7ba54b43ea" target="_top" xlink:title=" ">
<polygon fill="white" stroke="#666666" points="585.25,-572.5 471.75,-572.5 471.75,-554 585.25,-554 585.25,-572.5"/>
<text text-anchor="middle" x="528.5" y="-559" font-family="Helvetica,sans-Serif" font-size="10.00">arax_data_init_aligned</text>
</a>
</g>
</g>
<!-- Node2&#45;&gt;Node4 -->
<g id="edge3_Node000002_Node000004" class="edge">
<title>Node2&#45;&gt;Node4</title>
<g id="a_edge3_Node000002_Node000004"><a xlink:title=" ">
<path fill="none" stroke="#63b8ff" d="M612.91,-547.09C601.78,-549.24 590.3,-551.47 579.54,-553.55"/>
<polygon fill="#63b8ff" stroke="#63b8ff" points="613.23,-550.59 622.38,-545.25 611.9,-543.72 613.23,-550.59"/>
</a>
</g>
</g>
<!-- Node7 -->
<g id="Node000007" class="node">
<title>Node7</title>
<g id="a_Node000007"><a xlink:href="a01931.html#a86ac572ea8f5f613129192c47d598818" target="_top" xlink:title=" ">
<polygon fill="white" stroke="#666666" points="567.25,-609.5 489.75,-609.5 489.75,-591 567.25,-591 567.25,-609.5"/>
<text text-anchor="middle" x="528.5" y="-596" font-family="Helvetica,sans-Serif" font-size="10.00">arax_proc_init</text>
</a>
</g>
</g>
<!-- Node2&#45;&gt;Node7 -->
<g id="edge6_Node000002_Node000007" class="edge">
<title>Node2&#45;&gt;Node7</title>
<g id="a_edge6_Node000002_Node000007"><a xlink:title=" ">
<path fill="none" stroke="#63b8ff" d="M647.38,-550.38C630.01,-559.92 606.66,-572.11 585.25,-581.25 577.44,-584.58 568.84,-587.75 560.77,-590.51"/>
<polygon fill="#63b8ff" stroke="#63b8ff" points="648.99,-553.49 656.03,-545.57 645.59,-547.37 648.99,-553.49"/>
</a>
</g>
</g>
<!-- Node9 -->
<g id="Node000009" class="node">
<title>Node9</title>
<g id="a_Node000009"><a xlink:href="a01937.html#a27bee94f7a23281c8b2b72ec433f6059" target="_top" xlink:title=" ">
<polygon fill="white" stroke="#666666" points="571,-461.5 486,-461.5 486,-443 571,-443 571,-461.5"/>
<text text-anchor="middle" x="528.5" y="-448" font-family="Helvetica,sans-Serif" font-size="10.00">arax_task_alloc</text>
</a>
</g>
</g>
<!-- Node2&#45;&gt;Node9 -->
<g id="edge8_Node000002_Node000009" class="edge">
<title>Node2&#45;&gt;Node9</title>
<g id="a_edge8_Node000002_Node000009"><a xlink:title=" ">
<path fill="none" stroke="#63b8ff" d="M628.83,-520.78C626.19,-519.39 623.64,-517.88 621.25,-516.25 601.21,-502.6 604.98,-489.35 585.25,-475.25 577.67,-469.83 568.62,-465.4 560.04,-461.92"/>
<polygon fill="#63b8ff" stroke="#63b8ff" points="627.37,-523.96 637.91,-524.96 630.29,-517.6 627.37,-523.96"/>
</a>
</g>
</g>
<!-- Node2&#45;&gt;Node17 -->
<g id="edge17_Node000002_Node000017" class="edge">
<title>Node2&#45;&gt;Node17</title>
<g id="a_edge17_Node000002_Node000017"><a xlink:title=" ">
<path fill="none" stroke="#63b8ff" d="M611.2,-531.34C597.99,-530.52 584.36,-529.67 572.1,-528.9"/>
<polygon fill="#63b8ff" stroke="#63b8ff" points="610.94,-534.83 621.14,-531.96 611.37,-527.84 610.94,-534.83"/>
</a>
</g>
</g>
<!-- Node5 -->
<g id="Node000005" class="node">
<title>Node5</title>
<g id="a_Node000005"><a xlink:href="a01922.html#aeefe449d4a278e9fc4b9c5f7e31000a1" target="_top" xlink:title=" ">
<polygon fill="white" stroke="#666666" points="411.38,-572.5 333.88,-572.5 333.88,-554 411.38,-554 411.38,-572.5"/>
<text text-anchor="middle" x="372.62" y="-559" font-family="Helvetica,sans-Serif" font-size="10.00">arax_data_init</text>
</a>
</g>
</g>
<!-- Node4&#45;&gt;Node5 -->
<g id="edge4_Node000004_Node000005" class="edge">
<title>Node4&#45;&gt;Node5</title>
<g id="a_edge4_Node000004_Node000005"><a xlink:title=" ">
<path fill="none" stroke="#63b8ff" d="M460.12,-563.25C443.48,-563.25 426.22,-563.25 411.54,-563.25"/>
<polygon fill="#63b8ff" stroke="#63b8ff" points="460,-566.75 470,-563.25 460,-559.75 460,-566.75"/>
</a>
</g>
</g>
<!-- Node6 -->
<g id="Node000006" class="node">
<title>Node6</title>
<g id="a_Node000006"><a xlink:href="a02190.html#ga9260ad2dd766aec3274c518e2e312b1f" target="_top" xlink:title=" ">
<polygon fill="white" stroke="#666666" points="252.12,-572.5 162.62,-572.5 162.62,-554 252.12,-554 252.12,-572.5"/>
<text text-anchor="middle" x="207.38" y="-559" font-family="Helvetica,sans-Serif" font-size="10.00">ARAX_BUFFER</text>
</a>
</g>
</g>
<!-- Node5&#45;&gt;Node6 -->
<g id="edge5_Node000005_Node000006" class="edge">
<title>Node5&#45;&gt;Node6</title>
<g id="a_edge5_Node000005_Node000006"><a xlink:title=" ">
<path fill="none" stroke="#63b8ff" d="M322.5,-563.25C300.2,-563.25 274.04,-563.25 252.39,-563.25"/>
<polygon fill="#63b8ff" stroke="#63b8ff" points="322.25,-566.75 332.25,-563.25 322.25,-559.75 322.25,-566.75"/>
</a>
</g>
</g>
<!-- Node8 -->
<g id="Node000008" class="node">
<title>Node8</title>
<g id="a_Node000008"><a xlink:href="a02188.html#gafad2dafb4a231390f02b7c866295b7d9" target="_top" xlink:title=" ">
<polygon fill="white" stroke="#666666" points="421.12,-609.5 324.12,-609.5 324.12,-591 421.12,-591 421.12,-609.5"/>
<text text-anchor="middle" x="372.62" y="-596" font-family="Helvetica,sans-Serif" font-size="10.00">arax_proc_register</text>
</a>
</g>
</g>
<!-- Node7&#45;&gt;Node8 -->
<g id="edge7_Node000007_Node000008" class="edge">
<title>Node7&#45;&gt;Node8</title>
<g id="a_edge7_Node000007_Node000008"><a xlink:title=" ">
<path fill="none" stroke="#63b8ff" d="M478.2,-600.25C460.02,-600.25 439.47,-600.25 421.42,-600.25"/>
<polygon fill="#63b8ff" stroke="#63b8ff" points="477.95,-603.75 487.95,-600.25 477.95,-596.75 477.95,-603.75"/>
</a>
</g>
</g>
<!-- Node10 -->
<g id="Node000010" class="node">
<title>Node10</title>
<g id="a_Node000010"><a xlink:href="a02189.html#gac9f0f3fbb14da879d3ff09bd367bbb24" target="_top" xlink:title=" ">
<polygon fill="white" stroke="#666666" points="416.62,-461.5 328.62,-461.5 328.62,-443 416.62,-443 416.62,-461.5"/>
<text text-anchor="middle" x="372.62" y="-448" font-family="Helvetica,sans-Serif" font-size="10.00">arax_task_issue</text>
</a>
</g>
</g>
<!-- Node9&#45;&gt;Node10 -->
<g id="edge9_Node000009_Node000010" class="edge">
<title>Node9&#45;&gt;Node10</title>
<g id="a_edge9_Node000009_Node000010"><a xlink:title=" ">
<path fill="none" stroke="#63b8ff" d="M474.48,-452.25C455.69,-452.25 434.79,-452.25 416.91,-452.25"/>
<polygon fill="#63b8ff" stroke="#63b8ff" points="474.35,-455.75 484.35,-452.25 474.35,-448.75 474.35,-455.75"/>
</a>
</g>
</g>
<!-- Node11 -->
<g id="Node000011" class="node">
<title>Node11</title>
<g id="a_Node000011"><a xlink:href="a01922.html#af8ede6fc8d207004035f45d945688d2c" target="_top" xlink:title=" ">
<polygon fill="white" stroke="#666666" points="256.62,-387.75 158.12,-387.75 158.12,-358.75 256.62,-358.75 256.62,-387.75"/>
<text text-anchor="start" x="166.12" y="-374.25" font-family="Helvetica,sans-Serif" font-size="10.00">arax_data_allocate</text>
<text text-anchor="middle" x="207.38" y="-363.75" font-family="Helvetica,sans-Serif" font-size="10.00">_remote</text>
</a>
</g>
</g>
<!-- Node10&#45;&gt;Node11 -->
<g id="edge10_Node000010_Node000011" class="edge">
<title>Node10&#45;&gt;Node11</title>
<g id="a_edge10_Node000010_Node000011"><a xlink:title=" ">
<path fill="none" stroke="#63b8ff" d="M336.27,-437.93C327.34,-433.88 317.9,-429.21 309.5,-424.25 292.28,-414.08 291.07,-406.81 273.5,-397.25 267.36,-393.91 260.66,-390.85 253.97,-388.12"/>
<polygon fill="#63b8ff" stroke="#63b8ff" points="334.86,-441.14 345.42,-441.94 337.67,-434.73 334.86,-441.14"/>
</a>
</g>
</g>
<!-- Node12 -->
<g id="Node000012" class="node">
<title>Node12</title>
<g id="a_Node000012"><a xlink:href="a01922.html#a696bc4319d0f6c6baa7d797a8df6b56f" target="_top" xlink:title=" ">
<polygon fill="white" stroke="#666666" points="246.5,-461.5 168.25,-461.5 168.25,-443 246.5,-443 246.5,-461.5"/>
<text text-anchor="middle" x="207.38" y="-448" font-family="Helvetica,sans-Serif" font-size="10.00">arax_data_get</text>
</a>
</g>
</g>
<!-- Node10&#45;&gt;Node12 -->
<g id="edge11_Node000010_Node000012" class="edge">
<title>Node10&#45;&gt;Node12</title>
<g id="a_edge11_Node000010_Node000012"><a xlink:title=" ">
<path fill="none" stroke="#63b8ff" d="M316.97,-452.25C293.99,-452.25 267.79,-452.25 246.88,-452.25"/>
<polygon fill="#63b8ff" stroke="#63b8ff" points="316.79,-455.75 326.79,-452.25 316.79,-448.75 316.79,-455.75"/>
</a>
</g>
</g>
<!-- Node14 -->
<g id="Node000014" class="node">
<title>Node14</title>
<g id="a_Node000014"><a xlink:href="a01922.html#a8995f71dba475975efc37756783cfce9" target="_top" xlink:title=" ">
<polygon fill="white" stroke="#666666" points="246.5,-424.5 168.25,-424.5 168.25,-406 246.5,-406 246.5,-424.5"/>
<text text-anchor="middle" x="207.38" y="-411" font-family="Helvetica,sans-Serif" font-size="10.00">arax_data_set</text>
</a>
</g>
</g>
<!-- Node10&#45;&gt;Node14 -->
<g id="edge13_Node000010_Node000014" class="edge">
<title>Node10&#45;&gt;Node14</title>
<g id="a_edge13_Node000010_Node000014"><a xlink:title=" ">
<path fill="none" stroke="#63b8ff" d="M317.66,-440.02C294.49,-434.77 267.93,-428.75 246.8,-423.96"/>
<polygon fill="#63b8ff" stroke="#63b8ff" points="316.73,-443.4 327.26,-442.19 318.28,-436.57 316.73,-443.4"/>
</a>
</g>
</g>
<!-- Node15 -->
<g id="Node000015" class="node">
<title>Node15</title>
<g id="a_Node000015"><a xlink:href="a01922.html#af735744d0f8bec04394639a841d2ba0f" target="_top" xlink:title=" ">
<polygon fill="white" stroke="#666666" points="273.5,-535.5 141.25,-535.5 141.25,-517 273.5,-517 273.5,-535.5"/>
<text text-anchor="middle" x="207.38" y="-522" font-family="Helvetica,sans-Serif" font-size="10.00">ARAX_OBJ_DTOR_DECL</text>
</a>
</g>
</g>
<!-- Node10&#45;&gt;Node15 -->
<g id="edge15_Node000010_Node000015" class="edge">
<title>Node10&#45;&gt;Node15</title>
<g id="a_edge15_Node000010_Node000015"><a xlink:title=" ">
<path fill="none" stroke="#63b8ff" d="M319.43,-466.09C315.99,-467.65 312.64,-469.36 309.5,-471.25 290.11,-482.9 292.97,-495.72 273.5,-507.25 267.12,-511.03 259.93,-514.1 252.72,-516.58"/>
<polygon fill="#63b8ff" stroke="#63b8ff" points="320.58,-469.4 328.57,-462.45 317.98,-462.9 320.58,-469.4"/>
</a>
</g>
</g>
<!-- Node16 -->
<g id="Node000016" class="node">
<title>Node16</title>
<g id="a_Node000016"><a xlink:href="a02189.html#ga1418f4cd7336bf77cce7b955a1bf7077" target="_top" xlink:title=" ">
<polygon fill="white" stroke="#666666" points="264.12,-498.5 150.62,-498.5 150.62,-480 264.12,-480 264.12,-498.5"/>
<text text-anchor="middle" x="207.38" y="-485" font-family="Helvetica,sans-Serif" font-size="10.00">arax_task_issue_sync</text>
</a>
</g>
</g>
<!-- Node10&#45;&gt;Node16 -->
<g id="edge16_Node000010_Node000016" class="edge">
<title>Node10&#45;&gt;Node16</title>
<g id="a_edge16_Node000010_Node000016"><a xlink:title=" ">
<path fill="none" stroke="#63b8ff" d="M317.75,-464.46C296.15,-469.36 271.62,-474.92 251.26,-479.53"/>
<polygon fill="#63b8ff" stroke="#63b8ff" points="318.28,-467.93 327.26,-462.31 316.73,-461.1 318.28,-467.93"/>
</a>
</g>
</g>
<!-- Node13 -->
<g id="Node000013" class="node">
<title>Node13</title>
<g id="a_Node000013"><a xlink:href="a01922.html#a7d8356bd5c8b6a8d7dffc6ba94cc22e5" target="_top" xlink:title=" ">
<polygon fill="white" stroke="#666666" points="103.75,-442.5 1.5,-442.5 1.5,-424 103.75,-424 103.75,-442.5"/>
<text text-anchor="middle" x="52.62" y="-429" font-family="Helvetica,sans-Serif" font-size="10.00">arax_data_memcpy</text>
</a>
</g>
</g>
<!-- Node12&#45;&gt;Node13 -->
<g id="edge12_Node000012_Node000013" class="edge">
<title>Node12&#45;&gt;Node13</title>
<g id="a_edge12_Node000012_Node000013"><a xlink:title=" ">
<path fill="none" stroke="#63b8ff" d="M156.53,-446.05C139.69,-443.96 120.89,-441.62 104,-439.52"/>
<polygon fill="#63b8ff" stroke="#63b8ff" points="155.97,-449.51 166.33,-447.27 156.84,-442.56 155.97,-449.51"/>
</a>
</g>
</g>
<!-- Node14&#45;&gt;Node13 -->
<g id="edge14_Node000014_Node000013" class="edge">
<title>Node14&#45;&gt;Node13</title>
<g id="a_edge14_Node000014_Node000013"><a xlink:title=" ">
<path fill="none" stroke="#63b8ff" d="M156.53,-421.12C139.69,-423.11 120.89,-425.32 104,-427.31"/>
<polygon fill="#63b8ff" stroke="#63b8ff" points="156.8,-424.62 166.33,-419.97 155.99,-417.66 156.8,-424.62"/>
</a>
</g>
</g>
<!-- Node17&#45;&gt;Node3 -->
<g id="edge20_Node000017_Node000003" class="edge">
<title>Node17&#45;&gt;Node3</title>
<g id="a_edge20_Node000017_Node000003"><a xlink:title=" ">
<path fill="none" stroke="#63b8ff" d="M483.4,-511.61C479.2,-509.2 475.23,-506.43 471.75,-503.25 446.22,-479.91 455.69,-462.52 435.75,-434.25 420.02,-411.95 397.39,-389.37 384.22,-376.96"/>
<polygon fill="#63b8ff" stroke="#63b8ff" points="481.58,-514.61 492.09,-515.93 484.69,-508.34 481.58,-514.61"/>
</a>
</g>
</g>
<!-- Node18 -->
<g id="Node000018" class="node">
<title>Node18</title>
<g id="a_Node000018"><a xlink:href="a02187.html#gaf8a10ab4e51e59c464ab3ab473e4a0f7" target="_top" xlink:title=" ">
<polygon fill="white" stroke="#666666" points="435.75,-498.5 309.5,-498.5 309.5,-480 435.75,-480 435.75,-498.5"/>
<text text-anchor="middle" x="372.62" y="-485" font-family="Helvetica,sans-Serif" font-size="10.00">arax_accel_acquire_phys</text>
</a>
</g>
</g>
<!-- Node17&#45;&gt;Node18 -->
<g id="edge18_Node000017_Node000018" class="edge">
<title>Node17&#45;&gt;Node18</title>
<g id="a_edge18_Node000017_Node000018"><a xlink:title=" ">
<path fill="none" stroke="#63b8ff" d="M476.15,-513.9C455.94,-509.04 433.06,-503.54 414.05,-498.97"/>
<polygon fill="#63b8ff" stroke="#63b8ff" points="475.06,-517.24 485.6,-516.17 476.69,-510.43 475.06,-517.24"/>
</a>
</g>
</g>
<!-- Node19 -->
<g id="Node000019" class="node">
<title>Node19</title>
<g id="a_Node000019"><a xlink:href="a02187.html#ga008252bb9afc2990fa2c5f4b980c9f27" target="_top" xlink:title=" ">
<polygon fill="white" stroke="#666666" points="435,-535.5 310.25,-535.5 310.25,-517 435,-517 435,-535.5"/>
<text text-anchor="middle" x="372.62" y="-522" font-family="Helvetica,sans-Serif" font-size="10.00">arax_accel_acquire_type</text>
</a>
</g>
</g>
<!-- Node17&#45;&gt;Node19 -->
<g id="edge19_Node000017_Node000019" class="edge">
<title>Node17&#45;&gt;Node19</title>
<g id="a_edge19_Node000017_Node000019"><a xlink:title=" ">
<path fill="none" stroke="#63b8ff" d="M473.89,-526.25C461.41,-526.25 448.03,-526.25 435.24,-526.25"/>
<polygon fill="#63b8ff" stroke="#63b8ff" points="473.53,-529.75 483.53,-526.25 473.53,-522.75 473.53,-529.75"/>
</a>
</g>
</g>
<!-- Node20&#45;&gt;Node9 -->
<g id="edge23_Node000020_Node000009" class="edge">
<title>Node20&#45;&gt;Node9</title>
<g id="a_edge23_Node000020_Node000009"><a xlink:title=" ">
<path fill="none" stroke="#63b8ff" d="M1351.11,-442.43C1310.6,-442.58 1257.82,-442.83 1211,-443.25 968.74,-445.44 678.05,-449.88 571.38,-451.58"/>
<polygon fill="#63b8ff" stroke="#63b8ff" points="1350.96,-445.93 1360.95,-442.4 1350.94,-438.93 1350.96,-445.93"/>
</a>
</g>
</g>
<!-- Node21 -->
<g id="Node000021" class="node">
<title>Node21</title>
<g id="a_Node000021"><a xlink:href="a02364.html#ac7fbf1f43289d3e0e862b315f00e35e2" target="_top" xlink:title=" ">
<polygon fill="white" stroke="#666666" points="1172.38,-339.5 1068.62,-339.5 1068.62,-321 1172.38,-321 1172.38,-339.5"/>
<text text-anchor="middle" x="1120.5" y="-326" font-family="Helvetica,sans-Serif" font-size="10.00">async_condition_init</text>
</a>
</g>
</g>
<!-- Node20&#45;&gt;Node21 -->
<g id="edge24_Node000020_Node000021" class="edge">
<title>Node20&#45;&gt;Node21</title>
<g id="a_edge24_Node000020_Node000021"><a xlink:title=" ">
<path fill="none" stroke="#63b8ff" d="M1393.18,-426.51C1375.29,-415.54 1350.18,-401.15 1326.75,-391.25 1272.31,-368.24 1206.31,-350.28 1164.12,-339.98"/>
<polygon fill="#63b8ff" stroke="#63b8ff" points="1391.2,-429.39 1401.53,-431.71 1394.9,-423.45 1391.2,-429.39"/>
</a>
</g>
</g>
<!-- Node32 -->
<g id="Node000032" class="node">
<title>Node32</title>
<g id="a_Node000032"><a xlink:href="a02364.html#a7ab7c7fe9cb93434dde72a4e464a7e69" target="_top" xlink:title=" ">
<polygon fill="white" stroke="#666666" points="1326.75,-470.5 1211,-470.5 1211,-452 1326.75,-452 1326.75,-470.5"/>
<text text-anchor="middle" x="1268.88" y="-457" font-family="Helvetica,sans-Serif" font-size="10.00">async_semaphore_dec</text>
</a>
</g>
</g>
<!-- Node20&#45;&gt;Node32 -->
<g id="edge40_Node000020_Node000032" class="edge">
<title>Node20&#45;&gt;Node32</title>
<g id="a_edge40_Node000020_Node000032"><a xlink:title=" ">
<path fill="none" stroke="#63b8ff" d="M1351.09,-450.82C1343.1,-451.84 1334.99,-452.88 1327.15,-453.89"/>
<polygon fill="#63b8ff" stroke="#63b8ff" points="1351.29,-454.32 1360.76,-449.57 1350.4,-447.37 1351.29,-454.32"/>
</a>
</g>
</g>
<!-- Node21&#45;&gt;Node3 -->
<g id="edge25_Node000021_Node000003" class="edge">
<title>Node21&#45;&gt;Node3</title>
<g id="a_edge25_Node000021_Node000003"><a xlink:title=" ">
<path fill="none" stroke="#63b8ff" d="M1065.48,-342.11C1053.82,-344.39 1041.53,-346.58 1030,-348.25 935.88,-361.87 911.97,-367.25 816.88,-367.25 816.88,-367.25 816.88,-367.25 674,-367.25 580.92,-367.25 471.6,-367.25 413.95,-367.25"/>
<polygon fill="#63b8ff" stroke="#63b8ff" points="1065.82,-345.61 1074.94,-340.21 1064.44,-338.74 1065.82,-345.61"/>
</a>
</g>
</g>
<!-- Node22 -->
<g id="Node000022" class="node">
<title>Node22</title>
<g id="a_Node000022"><a xlink:href="a01928.html#aa6293e9ec7776aa49ecf632fcc4f5e26" target="_top" xlink:title=" ">
<polygon fill="white" stroke="#666666" points="854.25,-264.5 777.5,-264.5 777.5,-246 854.25,-246 854.25,-264.5"/>
<text text-anchor="middle" x="815.88" y="-251" font-family="Helvetica,sans-Serif" font-size="10.00">arax_pipe_init</text>
</a>
</g>
</g>
<!-- Node21&#45;&gt;Node22 -->
<g id="edge26_Node000021_Node000022" class="edge">
<title>Node21&#45;&gt;Node22</title>
<g id="a_edge26_Node000021_Node000022"><a xlink:title=" ">
<path fill="none" stroke="#63b8ff" d="M1069.08,-317.75C1008.65,-302.78 908.79,-278.03 854.63,-264.61"/>
<polygon fill="#63b8ff" stroke="#63b8ff" points="1068.23,-321.15 1078.78,-320.16 1069.91,-314.36 1068.23,-321.15"/>
</a>
</g>
</g>
<!-- Node31 -->
<g id="Node000031" class="node">
<title>Node31</title>
<g id="a_Node000031"><a xlink:href="a01940.html#acf84ea82594c4dbe91cf602ee078e04d" target="_top" xlink:title=" ">
<polygon fill="white" stroke="#666666" points="1010.88,-339.5 922.12,-339.5 922.12,-321 1010.88,-321 1010.88,-339.5"/>
<text text-anchor="middle" x="966.5" y="-326" font-family="Helvetica,sans-Serif" font-size="10.00">arax_throttle_init</text>
</a>
</g>
</g>
<!-- Node21&#45;&gt;Node31 -->
<g id="edge37_Node000021_Node000031" class="edge">
<title>Node21&#45;&gt;Node31</title>
<g id="a_edge37_Node000021_Node000031"><a xlink:title=" ">
<path fill="none" stroke="#63b8ff" d="M1057.33,-330.25C1041.79,-330.25 1025.46,-330.25 1011.04,-330.25"/>
<polygon fill="#63b8ff" stroke="#63b8ff" points="1056.95,-333.75 1066.95,-330.25 1056.95,-326.75 1056.95,-333.75"/>
</a>
</g>
</g>
<!-- Node23 -->
<g id="Node000023" class="node">
<title>Node23</title>
<g id="a_Node000023"><a xlink:href="a01910.html#a02fd608f651d254148dc74f0ae371dfe" target="_top" xlink:title=" ">
<polygon fill="white" stroke="#666666" points="704.38,-264.5 645.62,-264.5 645.62,-246 704.38,-246 704.38,-264.5"/>
<text text-anchor="middle" x="675" y="-251" font-family="Helvetica,sans-Serif" font-size="10.00">_arax_init</text>
</a>
</g>
</g>
<!-- Node22&#45;&gt;Node23 -->
<g id="edge27_Node000022_Node000023" class="edge">
<title>Node22&#45;&gt;Node23</title>
<g id="a_edge27_Node000022_Node000023"><a xlink:title=" ">
<path fill="none" stroke="#63b8ff" d="M765.94,-255.25C745.49,-255.25 722.44,-255.25 704.8,-255.25"/>
<polygon fill="#63b8ff" stroke="#63b8ff" points="765.78,-258.75 775.78,-255.25 765.78,-251.75 765.78,-258.75"/>
</a>
</g>
</g>
<!-- Node24 -->
<g id="Node000024" class="node">
<title>Node24</title>
<g id="a_Node000024"><a xlink:href="a01910.html#aa6e4832b06bd5757be4502d2de7b3026" target="_top" xlink:title=" ">
<polygon fill="white" stroke="#666666" points="577.75,-269.75 479.25,-269.75 479.25,-240.75 577.75,-240.75 577.75,-269.75"/>
<text text-anchor="start" x="487.25" y="-256.25" font-family="Helvetica,sans-Serif" font-size="10.00">arax_controller_init</text>
<text text-anchor="middle" x="528.5" y="-245.75" font-family="Helvetica,sans-Serif" font-size="10.00">_start</text>
</a>
</g>
</g>
<!-- Node23&#45;&gt;Node24 -->
<g id="edge28_Node000023_Node000024" class="edge">
<title>Node23&#45;&gt;Node24</title>
<g id="a_edge28_Node000023_Node000024"><a xlink:title=" ">
<path fill="none" stroke="#63b8ff" d="M634.04,-255.25C616.76,-255.25 596.36,-255.25 578.2,-255.25"/>
<polygon fill="#63b8ff" stroke="#63b8ff" points="633.94,-258.75 643.94,-255.25 633.94,-251.75 633.94,-258.75"/>
</a>
</g>
</g>
<!-- Node25 -->
<g id="Node000025" class="node">
<title>Node25</title>
<g id="a_Node000025"><a xlink:href="a02186.html#gae1d371a2840849690acce147e7a205da" target="_top" xlink:title=" ">
<polygon fill="white" stroke="#666666" points="555.25,-113.5 501.75,-113.5 501.75,-95 555.25,-95 555.25,-113.5"/>
<text text-anchor="middle" x="528.5" y="-100" font-family="Helvetica,sans-Serif" font-size="10.00">arax_init</text>
</a>
</g>
</g>
<!-- Node23&#45;&gt;Node25 -->
<g id="edge29_Node000023_Node000025" class="edge">
<title>Node23&#45;&gt;Node25</title>
<g id="a_edge29_Node000023_Node000025"><a xlink:title=" ">
<path fill="none" stroke="#63b8ff" d="M657.26,-237.75C626.56,-205.68 562.25,-138.48 538.54,-113.69"/>
<polygon fill="#63b8ff" stroke="#63b8ff" points="654.47,-239.91 663.91,-244.71 659.53,-235.07 654.47,-239.91"/>
</a>
</g>
</g>
<!-- Node26 -->
<g id="Node000026" class="node">
<title>Node26</title>
<g id="a_Node000026"><a xlink:href="a01946.html#a8a99bcb12e2ee55d68a029bfca9b6d51" target="_top" xlink:title=" ">
<polygon fill="white" stroke="#666666" points="254.38,-140.75 160.38,-140.75 160.38,-111.75 254.38,-111.75 254.38,-140.75"/>
<text text-anchor="start" x="168.38" y="-127.25" font-family="Helvetica,sans-Serif" font-size="10.00">arax_plot_register</text>
<text text-anchor="middle" x="207.38" y="-116.75" font-family="Helvetica,sans-Serif" font-size="10.00">_metric</text>
</a>
</g>
</g>
<!-- Node25&#45;&gt;Node26 -->
<g id="edge30_Node000025_Node000026" class="edge">
<title>Node25&#45;&gt;Node26</title>
<g id="a_edge30_Node000025_Node000026"><a xlink:title=" ">
<path fill="none" stroke="#63b8ff" d="M490.09,-106.83C431.51,-110.87 318.27,-118.67 254.65,-123.06"/>
<polygon fill="#63b8ff" stroke="#63b8ff" points="490.14,-110.33 499.87,-106.15 489.66,-103.35 490.14,-110.33"/>
</a>
</g>
</g>
<!-- Node27 -->
<g id="Node000027" class="node">
<title>Node27</title>
<g id="a_Node000027"><a xlink:href="a01934.html#a80ab3bf4a8af9bb101b5a53248609771" target="_top" xlink:title=" ">
<polygon fill="white" stroke="#666666" points="411,-92.5 334.25,-92.5 334.25,-74 411,-74 411,-92.5"/>
<text text-anchor="middle" x="372.62" y="-79" font-family="Helvetica,sans-Serif" font-size="10.00">arax_ptr_valid</text>
</a>
</g>
</g>
<!-- Node25&#45;&gt;Node27 -->
<g id="edge31_Node000025_Node000027" class="edge">
<title>Node25&#45;&gt;Node27</title>
<g id="a_edge31_Node000025_Node000027"><a xlink:title=" ">
<path fill="none" stroke="#63b8ff" d="M490.29,-99.17C466.39,-95.91 435.43,-91.69 411.41,-88.41"/>
<polygon fill="#63b8ff" stroke="#63b8ff" points="489.52,-102.6 499.9,-100.48 490.46,-95.66 489.52,-102.6"/>
</a>
</g>
</g>
<!-- Node27&#45;&gt;Node26 -->
<g id="edge36_Node000027_Node000026" class="edge">
<title>Node27&#45;&gt;Node26</title>
<g id="a_edge36_Node000027_Node000026"><a xlink:title=" ">
<path fill="none" stroke="#63b8ff" d="M324,-95.8C302.21,-101.53 276.48,-108.31 254.84,-114.01"/>
<polygon fill="#63b8ff" stroke="#63b8ff" points="324.75,-99.22 333.52,-93.29 322.96,-92.45 324.75,-99.22"/>
</a>
</g>
</g>
<!-- Node28 -->
<g id="Node000028" class="node">
<title>Node28</title>
<g id="a_Node000028"><a xlink:href="a01967.html#a4ee1fea325d2edd421f59ab240dfbe54" target="_top" xlink:title=" ">
<polygon fill="white" stroke="#666666" points="253.25,-55.5 161.5,-55.5 161.5,-37 253.25,-37 253.25,-55.5"/>
<text text-anchor="middle" x="207.38" y="-42" font-family="Helvetica,sans-Serif" font-size="10.00">_arax_assert_obj</text>
</a>
</g>
</g>
<!-- Node27&#45;&gt;Node28 -->
<g id="edge32_Node000027_Node000028" class="edge">
<title>Node27&#45;&gt;Node28</title>
<g id="a_edge32_Node000027_Node000028"><a xlink:title=" ">
<path fill="none" stroke="#63b8ff" d="M322.63,-72.15C299.9,-66.99 273.13,-60.93 251.21,-55.96"/>
<polygon fill="#63b8ff" stroke="#63b8ff" points="321.76,-75.54 332.29,-74.33 323.31,-68.71 321.76,-75.54"/>
</a>
</g>
</g>
<!-- Node29 -->
<g id="Node000029" class="node">
<title>Node29</title>
<g id="a_Node000029"><a xlink:href="a01922.html#afeaab7d93372f0752d59c70d9c5940e7" target="_top" xlink:title=" ">
<polygon fill="white" stroke="#666666" points="245.38,-18.5 169.38,-18.5 169.38,0 245.38,0 245.38,-18.5"/>
<text text-anchor="middle" x="207.38" y="-5" font-family="Helvetica,sans-Serif" font-size="10.00">arax_data_ref</text>
</a>
</g>
</g>
<!-- Node27&#45;&gt;Node29 -->
<g id="edge33_Node000027_Node000029" class="edge">
<title>Node27&#45;&gt;Node29</title>
<g id="a_edge33_Node000027_Node000029"><a xlink:title=" ">
<path fill="none" stroke="#63b8ff" d="M347.32,-67.57C327.93,-55.58 299.75,-39.27 273.5,-28.25 264.7,-24.56 254.95,-21.3 245.73,-18.57"/>
<polygon fill="#63b8ff" stroke="#63b8ff" points="345.26,-70.41 355.59,-72.76 348.98,-64.48 345.26,-70.41"/>
</a>
</g>
</g>
<!-- Node30 -->
<g id="Node000030" class="node">
<title>Node30</title>
<g id="a_Node000030"><a xlink:href="a01922.html#ac1f7fb20b3a23b388bea24f1b46a33a8" target="_top" xlink:title=" ">
<polygon fill="white" stroke="#666666" points="105.25,-55.5 0,-55.5 0,-37 105.25,-37 105.25,-55.5"/>
<text text-anchor="middle" x="52.62" y="-42" font-family="Helvetica,sans-Serif" font-size="10.00">arax_data_ref_offset</text>
</a>
</g>
</g>
<!-- Node27&#45;&gt;Node30 -->
<g id="edge35_Node000027_Node000030" class="edge">
<title>Node27&#45;&gt;Node30</title>
<g id="a_edge35_Node000027_Node000030"><a xlink:title=" ">
<path fill="none" stroke="#63b8ff" d="M322.64,-80.92C275.88,-78.3 203.51,-73.18 141.25,-64.25 126.34,-62.11 110.15,-59.01 95.79,-55.98"/>
<polygon fill="#63b8ff" stroke="#63b8ff" points="322.27,-84.41 332.45,-81.45 322.65,-77.42 322.27,-84.41"/>
</a>
</g>
</g>
<!-- Node29&#45;&gt;Node30 -->
<g id="edge34_Node000029_Node000030" class="edge">
<title>Node29&#45;&gt;Node30</title>
<g id="a_edge34_Node000029_Node000030"><a xlink:title=" ">
<path fill="none" stroke="#63b8ff" d="M157.91,-20.99C137.26,-25.99 113.46,-31.76 93.82,-36.51"/>
<polygon fill="#63b8ff" stroke="#63b8ff" points="158.64,-24.41 167.54,-18.66 156.99,-17.61 158.64,-24.41"/>
</a>
</g>
</g>
<!-- Node31&#45;&gt;Node3 -->
<g id="edge38_Node000031_Node000003" class="edge">
<title>Node31&#45;&gt;Node3</title>
<g id="a_edge38_Node000031_Node000003"><a xlink:title=" ">
<path fill="none" stroke="#63b8ff" d="M910.37,-331.11C819,-332.91 630.53,-338.26 471.75,-353.25 452.73,-355.05 431.76,-357.92 414.1,-360.59"/>
<polygon fill="#63b8ff" stroke="#63b8ff" points="910.37,-334.61 920.3,-330.92 910.23,-327.61 910.37,-334.61"/>
</a>
</g>
</g>
<!-- Node31&#45;&gt;Node22 -->
<g id="edge39_Node000031_Node000022" class="edge">
<title>Node31&#45;&gt;Node22</title>
<g id="a_edge39_Node000031_Node000022"><a xlink:title=" ">
<path fill="none" stroke="#63b8ff" d="M924.86,-316.58C917.48,-313.73 909.93,-310.58 903,-307.25 876.55,-294.54 847.73,-276.12 831.03,-264.95"/>
<polygon fill="#63b8ff" stroke="#63b8ff" points="923.44,-319.78 934.03,-319.98 925.87,-313.22 923.44,-319.78"/>
</a>
</g>
</g>
<!-- Node33 -->
<g id="Node000033" class="node">
<title>Node33</title>
<g id="a_Node000033"><a xlink:href="a02364.html#a1bfeaeb9b81855e640d7a67cc9d92b17" target="_top" xlink:title=" ">
<polygon fill="white" stroke="#666666" points="1174.62,-489.5 1066.38,-489.5 1066.38,-471 1174.62,-471 1174.62,-489.5"/>
<text text-anchor="middle" x="1120.5" y="-476" font-family="Helvetica,sans-Serif" font-size="10.00">async_condition_wait</text>
</a>
</g>
</g>
<!-- Node32&#45;&gt;Node33 -->
<g id="edge41_Node000032_Node000033" class="edge">
<title>Node32&#45;&gt;Node33</title>
<g id="a_edge41_Node000032_Node000033"><a xlink:title=" ">
<path fill="none" stroke="#63b8ff" d="M1199.59,-470.11C1191.26,-471.2 1182.84,-472.29 1174.77,-473.34"/>
<polygon fill="#63b8ff" stroke="#63b8ff" points="1199.9,-473.6 1209.36,-468.85 1199,-466.66 1199.9,-473.6"/>
</a>
</g>
</g>
<!-- Node33&#45;&gt;Node23 -->
<g id="edge42_Node000033_Node000023" class="edge">
<title>Node33&#45;&gt;Node23</title>
<g id="a_edge42_Node000033_Node000023"><a xlink:title=" ">
<path fill="none" stroke="#63b8ff" d="M1090.31,-465.44C1006.15,-422.75 764.6,-300.2 694.99,-264.88"/>
<polygon fill="#63b8ff" stroke="#63b8ff" points="1088.59,-468.49 1099.09,-469.9 1091.76,-462.25 1088.59,-468.49"/>
</a>
</g>
</g>
<!-- Node34 -->
<g id="Node000034" class="node">
<title>Node34</title>
<g id="a_Node000034"><a xlink:href="a01916.html#a415e79d6e82e45f24bcd1742c146a0da" target="_top" xlink:title=" ">
<polygon fill="white" stroke="#666666" points="1030,-489.5 903,-489.5 903,-471 1030,-471 1030,-489.5"/>
<text text-anchor="middle" x="966.5" y="-476" font-family="Helvetica,sans-Serif" font-size="10.00">arax_accel_wait_for_task</text>
</a>
</g>
</g>
<!-- Node33&#45;&gt;Node34 -->
<g id="edge43_Node000033_Node000034" class="edge">
<title>Node33&#45;&gt;Node34</title>
<g id="a_edge43_Node000033_Node000034"><a xlink:title=" ">
<path fill="none" stroke="#63b8ff" d="M1054.44,-480.25C1046.5,-480.25 1038.4,-480.25 1030.49,-480.25"/>
<polygon fill="#63b8ff" stroke="#63b8ff" points="1054.4,-483.75 1064.4,-480.25 1054.4,-476.75 1054.4,-483.75"/>
</a>
</g>
</g>
<!-- Node35 -->
<g id="Node000035" class="node">
<title>Node35</title>
<g id="a_Node000035"><a xlink:href="a01928.html#a8ff14a859f9b7a34676c2fcdb762386b" target="_top" xlink:title=" ">
<polygon fill="white" stroke="#666666" points="1022.88,-591.75 910.12,-591.75 910.12,-562.75 1022.88,-562.75 1022.88,-591.75"/>
<text text-anchor="start" x="918.12" y="-578.25" font-family="Helvetica,sans-Serif" font-size="10.00">arax_pipe_get_orphan</text>
<text text-anchor="middle" x="966.5" y="-567.75" font-family="Helvetica,sans-Serif" font-size="10.00">_vaccel</text>
</a>
</g>
</g>
<!-- Node33&#45;&gt;Node35 -->
<g id="edge44_Node000033_Node000035" class="edge">
<title>Node33&#45;&gt;Node35</title>
<g id="a_edge44_Node000033_Node000035"><a xlink:title=" ">
<path fill="none" stroke="#63b8ff" d="M1101.81,-497.57C1084.62,-513.68 1057.18,-537.49 1030,-553.25 1024.27,-556.57 1017.99,-559.61 1011.69,-562.31"/>
<polygon fill="#63b8ff" stroke="#63b8ff" points="1103.9,-500.41 1108.72,-490.98 1099.07,-495.35 1103.9,-500.41"/>
</a>
</g>
</g>
<!-- Node36 -->
<g id="Node000036" class="node">
<title>Node36</title>
<g id="a_Node000036"><a xlink:href="a01940.html#a63b80783cfb3106ec4169ce082f153c0" target="_top" xlink:title=" ">
<polygon fill="white" stroke="#666666" points="1023.62,-526.5 909.38,-526.5 909.38,-508 1023.62,-508 1023.62,-526.5"/>
<text text-anchor="middle" x="966.5" y="-513" font-family="Helvetica,sans-Serif" font-size="10.00">arax_throttle_size_dec</text>
</a>
</g>
</g>
<!-- Node33&#45;&gt;Node36 -->
<g id="edge45_Node000033_Node000036" class="edge">
<title>Node33&#45;&gt;Node36</title>
<g id="a_edge45_Node000033_Node000036"><a xlink:title=" ">
<path fill="none" stroke="#63b8ff" d="M1068.5,-492.66C1048.6,-497.51 1026.12,-502.98 1007.43,-507.53"/>
<polygon fill="#63b8ff" stroke="#63b8ff" points="1069.2,-496.1 1078.09,-490.33 1067.55,-489.29 1069.2,-496.1"/>
</a>
</g>
</g>
<!-- Node36&#45;&gt;Node36 -->
<g id="edge52_Node000036_Node000036" class="edge">
<title>Node36&#45;&gt;Node36</title>
<g id="a_edge52_Node000036_Node000036"><a xlink:title=" ">
<path fill="none" stroke="#63b8ff" d="M993.61,-537.53C990.6,-541.59 981.56,-544.5 966.5,-544.5 939.73,-544.5 931.99,-535.32 943.28,-526.75"/>
<polygon fill="#63b8ff" stroke="#63b8ff" points="996.92,-536.39 990.23,-528.17 990.34,-538.76 996.92,-536.39"/>
</a>
</g>
</g>
<!-- Node37 -->
<g id="Node000037" class="node">
<title>Node37</title>
<g id="a_Node000037"><a xlink:href="a01916.html#a9c8e53aad4b86498a6b709c35c156fc3" target="_top" xlink:title=" ">
<polygon fill="white" stroke="#666666" points="728.75,-489.5 621.25,-489.5 621.25,-471 728.75,-471 728.75,-489.5"/>
<text text-anchor="middle" x="675" y="-476" font-family="Helvetica,sans-Serif" font-size="10.00">arax_accel_size_dec</text>
</a>
</g>
</g>
<!-- Node36&#45;&gt;Node37 -->
<g id="edge46_Node000036_Node000037" class="edge">
<title>Node36&#45;&gt;Node37</title>
<g id="a_edge46_Node000036_Node000037"><a xlink:title=" ">
<path fill="none" stroke="#63b8ff" d="M897.64,-508.58C846.15,-502 776.36,-493.08 728.95,-487.02"/>
<polygon fill="#63b8ff" stroke="#63b8ff" points="897.13,-512.04 907.49,-509.84 898.02,-505.1 897.13,-512.04"/>
</a>
</g>
</g>
<!-- Node38 -->
<g id="Node000038" class="node">
<title>Node38</title>
<g id="a_Node000038"><a xlink:href="a01928.html#a6cc54ee40009c61b5f6526f5edff004f" target="_top" xlink:title=" ">
<polygon fill="white" stroke="#666666" points="867,-540.5 764.75,-540.5 764.75,-522 867,-522 867,-540.5"/>
<text text-anchor="middle" x="815.88" y="-527" font-family="Helvetica,sans-Serif" font-size="10.00">arax_pipe_size_dec</text>
</a>
</g>
</g>
<!-- Node36&#45;&gt;Node38 -->
<g id="edge49_Node000036_Node000038" class="edge">
<title>Node36&#45;&gt;Node38</title>
<g id="a_edge49_Node000036_Node000038"><a xlink:title=" ">
<path fill="none" stroke="#63b8ff" d="M897.57,-523.65C887.45,-524.6 877.17,-525.57 867.49,-526.48"/>
<polygon fill="#63b8ff" stroke="#63b8ff" points="897.75,-527.15 907.38,-522.72 897.1,-520.18 897.75,-527.15"/>
</a>
</g>
</g>
<!-- Node37&#45;&gt;Node11 -->
<g id="edge48_Node000037_Node000011" class="edge">
<title>Node37&#45;&gt;Node11</title>
<g id="a_edge48_Node000037_Node000011"><a xlink:title=" ">
<path fill="none" stroke="#63b8ff" d="M649.11,-464.61C631.82,-454.45 607.9,-441.74 585.25,-434.25 525.07,-414.35 344.47,-390.14 256.96,-379.16"/>
<polygon fill="#63b8ff" stroke="#63b8ff" points="647.28,-467.6 657.65,-469.76 650.89,-461.6 647.28,-467.6"/>
</a>
</g>
</g>
<!-- Node37&#45;&gt;Node37 -->
<g id="edge47_Node000037_Node000037" class="edge">
<title>Node37&#45;&gt;Node37</title>
<g id="a_edge47_Node000037_Node000037"><a xlink:title=" ">
<path fill="none" stroke="#63b8ff" d="M700.36,-500.53C697.54,-504.59 689.08,-507.5 675,-507.5 649.96,-507.5 642.72,-498.32 653.29,-489.75"/>
<polygon fill="#63b8ff" stroke="#63b8ff" points="703.71,-499.53 697.2,-491.18 697.08,-501.77 703.71,-499.53"/>
</a>
</g>
</g>
<!-- Node38&#45;&gt;Node2 -->
<g id="edge50_Node000038_Node000002" class="edge">
<title>Node38&#45;&gt;Node2</title>
<g id="a_edge50_Node000038_Node000002"><a xlink:title=" ">
<path fill="none" stroke="#63b8ff" d="M752.96,-533.03C744.51,-533.28 735.9,-533.52 727.66,-533.76"/>
<polygon fill="#63b8ff" stroke="#63b8ff" points="752.94,-536.54 762.83,-532.75 752.74,-529.54 752.94,-536.54"/>
</a>
</g>
</g>
<!-- Node38&#45;&gt;Node38 -->
<g id="edge51_Node000038_Node000038" class="edge">
<title>Node38&#45;&gt;Node38</title>
<g id="a_edge51_Node000038_Node000038"><a xlink:title=" ">
<path fill="none" stroke="#63b8ff" d="M841.23,-551.53C838.41,-555.59 829.96,-558.5 815.88,-558.5 790.84,-558.5 783.6,-549.32 794.16,-540.75"/>
<polygon fill="#63b8ff" stroke="#63b8ff" points="844.59,-550.53 838.07,-542.18 837.96,-552.77 844.59,-550.53"/>
</a>
</g>
</g>
<!-- Node39&#45;&gt;Node3 -->
<g id="edge54_Node000039_Node000003" class="edge">
<title>Node39&#45;&gt;Node3</title>
<g id="a_edge54_Node000039_Node000003"><a xlink:title=" ">
<path fill="none" stroke="#63b8ff" d="M1394.4,-221.22C1376.58,-209.67 1351.05,-194.54 1326.75,-185.25 1239.61,-151.93 1214.79,-141.25 1121.5,-141.25 1121.5,-141.25 1121.5,-141.25 674,-141.25 575.61,-141.25 548.11,-169.21 471.75,-231.25 425.42,-268.88 390.37,-333.45 378.24,-357.69"/>
<polygon fill="#63b8ff" stroke="#63b8ff" points="1392.4,-224.09 1402.67,-226.7 1396.26,-218.26 1392.4,-224.09"/>
</a>
</g>
</g>
<!-- Node39&#45;&gt;Node22 -->
<g id="edge57_Node000039_Node000022" class="edge">
<title>Node39&#45;&gt;Node22</title>
<g id="a_edge57_Node000039_Node000022"><a xlink:title=" ">
<path fill="none" stroke="#63b8ff" d="M1389.8,-222.59C1372.23,-214.22 1348.79,-204.56 1326.75,-200.25 1147.19,-165.14 927.35,-221.84 847.61,-245.57"/>
<polygon fill="#63b8ff" stroke="#63b8ff" points="1388.04,-225.63 1398.56,-226.91 1391.14,-219.35 1388.04,-225.63"/>
</a>
</g>
</g>
<!-- Node40 -->
<g id="Node000040" class="node">
<title>Node40</title>
<g id="a_Node000040"><a xlink:href="a01925.html#a86352ba91ba482c6688b7364d10bf956" target="_top" xlink:title=" ">
<polygon fill="white" stroke="#666666" points="1175,-264.5 1066,-264.5 1066,-246 1175,-246 1175,-264.5"/>
<text text-anchor="middle" x="1120.5" y="-251" font-family="Helvetica,sans-Serif" font-size="10.00">arax_object_repo_init</text>
</a>
</g>
</g>
<!-- Node39&#45;&gt;Node40 -->
<g id="edge55_Node000039_Node000040" class="edge">
<title>Node39&#45;&gt;Node40</title>
<g id="a_edge55_Node000039_Node000040"><a xlink:title=" ">
<path fill="none" stroke="#63b8ff" d="M1372.07,-240.03C1319.07,-243.25 1231.79,-248.55 1175.49,-251.97"/>
<polygon fill="#63b8ff" stroke="#63b8ff" points="1372.2,-243.52 1381.97,-239.42 1371.77,-236.54 1372.2,-243.52"/>
</a>
</g>
</g>
<!-- Node41 -->
<g id="Node000041" class="node">
<title>Node41</title>
<g id="a_Node000041"><a xlink:href="a02364.html#ab2e422aab2fcfa562795beb2843e8019" target="_top" xlink:title=" ">
<polygon fill="white" stroke="#666666" points="1325.25,-227.5 1212.5,-227.5 1212.5,-209 1325.25,-209 1325.25,-227.5"/>
<text text-anchor="middle" x="1268.88" y="-214" font-family="Helvetica,sans-Serif" font-size="10.00">async_meta_init_once</text>
</a>
</g>
</g>
<!-- Node39&#45;&gt;Node41 -->
<g id="edge58_Node000039_Node000041" class="edge">
<title>Node39&#45;&gt;Node41</title>
<g id="a_edge58_Node000039_Node000041"><a xlink:title=" ">
<path fill="none" stroke="#63b8ff" d="M1372.12,-231.39C1357.44,-229.5 1341.02,-227.39 1325.7,-225.42"/>
<polygon fill="#63b8ff" stroke="#63b8ff" points="1371.59,-234.85 1381.95,-232.65 1372.48,-227.9 1371.59,-234.85"/>
</a>
</g>
</g>
<!-- Node42 -->
<g id="Node000042" class="node">
<title>Node42</title>
<g id="a_Node000042"><a xlink:href="a02364.html#a2a7d01fc7720e936a430efc09d094c6c" target="_top" xlink:title=" ">
<polygon fill="white" stroke="#666666" points="1325.25,-320.5 1212.5,-320.5 1212.5,-302 1325.25,-302 1325.25,-320.5"/>
<text text-anchor="middle" x="1268.88" y="-307" font-family="Helvetica,sans-Serif" font-size="10.00">async_semaphore_init</text>
</a>
</g>
</g>
<!-- Node39&#45;&gt;Node42 -->
<g id="edge60_Node000039_Node000042" class="edge">
<title>Node39&#45;&gt;Node42</title>
<g id="a_edge60_Node000039_Node000042"><a xlink:title=" ">
<path fill="none" stroke="#63b8ff" d="M1388.31,-251.98C1358.88,-266.71 1314.45,-288.94 1289.21,-301.57"/>
<polygon fill="#63b8ff" stroke="#63b8ff" points="1389.69,-255.21 1397.06,-247.6 1386.56,-248.95 1389.69,-255.21"/>
</a>
</g>
</g>
<!-- Node40&#45;&gt;Node22 -->
<g id="edge56_Node000040_Node000022" class="edge">
<title>Node40&#45;&gt;Node22</title>
<g id="a_edge56_Node000040_Node000022"><a xlink:title=" ">
<path fill="none" stroke="#63b8ff" d="M1054.32,-255.25C993.3,-255.25 904.28,-255.25 854.37,-255.25"/>
<polygon fill="#63b8ff" stroke="#63b8ff" points="1054.23,-258.75 1064.23,-255.25 1054.23,-251.75 1054.23,-258.75"/>
</a>
</g>
</g>
<!-- Node41&#45;&gt;Node22 -->
<g id="edge59_Node000041_Node000022" class="edge">
<title>Node41&#45;&gt;Node22</title>
<g id="a_edge59_Node000041_Node000022"><a xlink:title=" ">
<path fill="none" stroke="#63b8ff" d="M1200.79,-223.75C1104.62,-231.64 930.76,-245.91 854.48,-252.17"/>
<polygon fill="#63b8ff" stroke="#63b8ff" points="1200.93,-227.25 1210.61,-222.95 1200.36,-220.28 1200.93,-227.25"/>
</a>
</g>
</g>
<!-- Node42&#45;&gt;Node21 -->
<g id="edge61_Node000042_Node000021" class="edge">
<title>Node42&#45;&gt;Node21</title>
<g id="a_edge61_Node000042_Node000021"><a xlink:title=" ">
<path fill="none" stroke="#63b8ff" d="M1200.76,-319.96C1191.36,-321.18 1181.82,-322.42 1172.77,-323.59"/>
<polygon fill="#63b8ff" stroke="#63b8ff" points="1201.15,-323.44 1210.62,-318.68 1200.25,-316.5 1201.15,-323.44"/>
</a>
</g>
</g>
</g>
</svg>
