<?xml version="1.0" encoding="UTF-8" standalone="no"?>
<!DOCTYPE svg PUBLIC "-//W3C//DTD SVG 1.1//EN"
 "http://www.w3.org/Graphics/SVG/1.1/DTD/svg11.dtd">
<!-- Generated by graphviz version 12.2.1 (0)
 -->
<!-- Title: find_start Pages: 1 -->
<svg width="304pt" height="64pt"
 viewBox="0.00 0.00 304.25 63.50" xmlns="http://www.w3.org/2000/svg" xmlns:xlink="http://www.w3.org/1999/xlink">
<g id="graph0" class="graph" transform="scale(1 1) rotate(0) translate(4 59.5)">
<title>find_start</title>
<!-- Node1 -->
<g id="Node000001" class="node">
<title>Node1</title>
<g id="a_Node000001"><a xlink:title=" ">
<polygon fill="#999999" stroke="#666666" points="57.25,-36.5 0,-36.5 0,-18 57.25,-18 57.25,-36.5"/>
<text text-anchor="middle" x="28.62" y="-23" font-family="Helvetica,sans-Serif" font-size="10.00">find_start</text>
</a>
</g>
</g>
<!-- Node2 -->
<g id="Node000002" class="node">
<title>Node2</title>
<g id="a_Node000002"><a xlink:href="a01949.html#a73d0d5ad8a6878dde35fe7b827b33b05" target="_top" xlink:title=" ">
<polygon fill="white" stroke="#666666" points="173.75,-55.5 98.5,-55.5 98.5,-37 173.75,-37 173.75,-55.5"/>
<text text-anchor="middle" x="136.12" y="-42" font-family="Helvetica,sans-Serif" font-size="10.00">find_start_big</text>
</a>
</g>
</g>
<!-- Node1&#45;&gt;Node2 -->
<g id="edge1_Node000001_Node000002" class="edge">
<title>Node1&#45;&gt;Node2</title>
<g id="a_edge1_Node000001_Node000002"><a xlink:title=" ">
<path fill="none" stroke="#63b8ff" d="M57.62,-32.29C66.67,-33.92 76.97,-35.78 87.05,-37.59"/>
<polygon fill="#63b8ff" stroke="#63b8ff" points="86.3,-41.01 96.76,-39.34 87.54,-34.12 86.3,-41.01"/>
</a>
</g>
</g>
<!-- Node4 -->
<g id="Node000004" class="node">
<title>Node4</title>
<g id="a_Node000004"><a xlink:href="a01949.html#afac539947a2f5fe419a493103a45e4be" target="_top" xlink:title=" ">
<polygon fill="white" stroke="#666666" points="179,-18.5 93.25,-18.5 93.25,0 179,0 179,-18.5"/>
<text text-anchor="middle" x="136.12" y="-5" font-family="Helvetica,sans-Serif" font-size="10.00">find_start_small</text>
</a>
</g>
</g>
<!-- Node1&#45;&gt;Node4 -->
<g id="edge3_Node000001_Node000004" class="edge">
<title>Node1&#45;&gt;Node4</title>
<g id="a_edge3_Node000001_Node000004"><a xlink:title=" ">
<path fill="none" stroke="#63b8ff" d="M57.62,-22.47C65.09,-21.2 73.42,-19.78 81.76,-18.35"/>
<polygon fill="#63b8ff" stroke="#63b8ff" points="82.32,-21.81 91.59,-16.68 81.14,-14.91 82.32,-21.81"/>
</a>
</g>
</g>
<!-- Node3 -->
<g id="Node000003" class="node">
<title>Node3</title>
<g id="a_Node000003"><a xlink:href="a01949.html#af8a432f287b9f55f026e2d120e677998" target="_top" xlink:title=" ">
<polygon fill="white" stroke="#666666" points="296.25,-36.5 215,-36.5 215,-18 296.25,-18 296.25,-36.5"/>
<text text-anchor="middle" x="255.62" y="-23" font-family="Helvetica,sans-Serif" font-size="10.00">find_end_small</text>
</a>
</g>
</g>
<!-- Node2&#45;&gt;Node3 -->
<g id="edge2_Node000002_Node000003" class="edge">
<title>Node2&#45;&gt;Node3</title>
<g id="a_edge2_Node000002_Node000003"><a xlink:title=" ">
<path fill="none" stroke="#63b8ff" d="M173.98,-40.29C183.37,-38.77 193.63,-37.11 203.59,-35.5"/>
<polygon fill="#63b8ff" stroke="#63b8ff" points="203.83,-39.01 213.15,-33.96 202.72,-32.1 203.83,-39.01"/>
</a>
</g>
</g>
<!-- Node4&#45;&gt;Node3 -->
<g id="edge4_Node000004_Node000003" class="edge">
<title>Node4&#45;&gt;Node3</title>
<g id="a_edge4_Node000004_Node000003"><a xlink:title=" ">
<path fill="none" stroke="#63b8ff" d="M179.21,-15.7C187.09,-16.9 195.4,-18.18 203.52,-19.42"/>
<polygon fill="#63b8ff" stroke="#63b8ff" points="202.88,-22.86 213.3,-20.92 203.94,-15.95 202.88,-22.86"/>
</a>
</g>
</g>
</g>
</svg>
