<?xml version="1.0" encoding="UTF-8" standalone="no"?>
<!DOCTYPE svg PUBLIC "-//W3C//DTD SVG 1.1//EN"
 "http://www.w3.org/Graphics/SVG/1.1/DTD/svg11.dtd">
<!-- Generated by graphviz version 12.2.1 (0)
 -->
<!-- Title: test.c Pages: 1 -->
<svg width="189pt" height="136pt"
 viewBox="0.00 0.00 189.00 135.50" xmlns="http://www.w3.org/2000/svg" xmlns:xlink="http://www.w3.org/1999/xlink">
<g id="graph0" class="graph" transform="scale(1 1) rotate(0) translate(4 131.5)">
<title>test.c</title>
<!-- Node1 -->
<g id="Node000001" class="node">
<title>Node1</title>
<g id="a_Node000001"><a xlink:title=" ">
<polygon fill="#999999" stroke="#666666" points="106.62,-127.5 66.62,-127.5 66.62,-109 106.62,-109 106.62,-127.5"/>
<text text-anchor="middle" x="86.62" y="-114" font-family="Helvetica,sans-Serif" font-size="10.00">test.c</text>
</a>
</g>
</g>
<!-- Node2 -->
<g id="Node000002" class="node">
<title>Node2</title>
<g id="a_Node000002"><a xlink:title=" ">
<polygon fill="#e0e0e0" stroke="#999999" points="45.25,-73 0,-73 0,-54.5 45.25,-54.5 45.25,-73"/>
<text text-anchor="middle" x="22.62" y="-59.5" font-family="Helvetica,sans-Serif" font-size="10.00">stdio.h</text>
</a>
</g>
</g>
<!-- Node1&#45;&gt;Node2 -->
<g id="edge1_Node000001_Node000002" class="edge">
<title>Node1&#45;&gt;Node2</title>
<g id="a_edge1_Node000001_Node000002"><a xlink:title=" ">
<path fill="none" stroke="#63b8ff" d="M76.06,-108.58C66.74,-100.94 52.93,-89.61 41.68,-80.38"/>
<polygon fill="#63b8ff" stroke="#63b8ff" points="44.12,-77.85 34.17,-74.22 39.68,-83.27 44.12,-77.85"/>
</a>
</g>
</g>
<!-- Node3 -->
<g id="Node000003" class="node">
<title>Node3</title>
<g id="a_Node000003"><a xlink:title=" ">
<polygon fill="#e0e0e0" stroke="#999999" points="110.38,-73 62.88,-73 62.88,-54.5 110.38,-54.5 110.38,-73"/>
<text text-anchor="middle" x="86.62" y="-59.5" font-family="Helvetica,sans-Serif" font-size="10.00">stdlib.h</text>
</a>
</g>
</g>
<!-- Node1&#45;&gt;Node3 -->
<g id="edge2_Node000001_Node000003" class="edge">
<title>Node1&#45;&gt;Node3</title>
<g id="a_edge2_Node000001_Node000003"><a xlink:title=" ">
<path fill="none" stroke="#63b8ff" d="M86.62,-108.58C86.62,-102.08 86.62,-92.92 86.62,-84.66"/>
<polygon fill="#63b8ff" stroke="#63b8ff" points="90.13,-84.77 86.63,-74.77 83.13,-84.77 90.13,-84.77"/>
</a>
</g>
</g>
<!-- Node4 -->
<g id="Node000004" class="node">
<title>Node4</title>
<g id="a_Node000004"><a xlink:href="a01904.html" target="_top" xlink:title=" ">
<polygon fill="white" stroke="#666666" points="181,-73 128.25,-73 128.25,-54.5 181,-54.5 181,-73"/>
<text text-anchor="middle" x="154.62" y="-59.5" font-family="Helvetica,sans-Serif" font-size="10.00">malloc.h</text>
</a>
</g>
</g>
<!-- Node1&#45;&gt;Node4 -->
<g id="edge3_Node000001_Node000004" class="edge">
<title>Node1&#45;&gt;Node4</title>
<g id="a_edge3_Node000001_Node000004"><a xlink:title=" ">
<path fill="none" stroke="#63b8ff" d="M97.85,-108.58C107.85,-100.86 122.72,-89.38 134.73,-80.11"/>
<polygon fill="#63b8ff" stroke="#63b8ff" points="136.63,-83.06 142.41,-74.18 132.35,-77.52 136.63,-83.06"/>
</a>
</g>
</g>
<!-- Node5 -->
<g id="Node000005" class="node">
<title>Node5</title>
<g id="a_Node000005"><a xlink:title=" ">
<polygon fill="#e0e0e0" stroke="#999999" points="179.88,-18.5 129.38,-18.5 129.38,0 179.88,0 179.88,-18.5"/>
<text text-anchor="middle" x="154.62" y="-5" font-family="Helvetica,sans-Serif" font-size="10.00">stddef.h</text>
</a>
</g>
</g>
<!-- Node4&#45;&gt;Node5 -->
<g id="edge4_Node000004_Node000005" class="edge">
<title>Node4&#45;&gt;Node5</title>
<g id="a_edge4_Node000004_Node000005"><a xlink:title=" ">
<path fill="none" stroke="#63b8ff" d="M154.62,-54.08C154.62,-47.58 154.62,-38.42 154.62,-30.16"/>
<polygon fill="#63b8ff" stroke="#63b8ff" points="158.13,-30.27 154.63,-20.27 151.13,-30.27 158.13,-30.27"/>
</a>
</g>
</g>
</g>
</svg>
