<?xml version="1.0" encoding="UTF-8" standalone="no"?>
<!DOCTYPE svg PUBLIC "-//W3C//DTD SVG 1.1//EN"
 "http://www.w3.org/Graphics/SVG/1.1/DTD/svg11.dtd">
<!-- Generated by graphviz version 11.0.0 (0)
 -->
<!-- Title: arax_throttle_size_dec Pages: 1 -->
<svg width="1022pt" height="277pt"
 viewBox="0.00 0.00 1022.25 276.75" xmlns="http://www.w3.org/2000/svg" xmlns:xlink="http://www.w3.org/1999/xlink">
<g id="graph0" class="graph" transform="scale(1 1) rotate(0) translate(4 272.75)">
<title>arax_throttle_size_dec</title>
<!-- Node1 -->
<g id="Node000001" class="node">
<title>Node1</title>
<g id="a_Node000001"><a xlink:title=" ">
<polygon fill="#999999" stroke="#666666" points="1014.25,-165.5 900,-165.5 900,-147 1014.25,-147 1014.25,-165.5"/>
<text text-anchor="middle" x="957.12" y="-152" font-family="Helvetica,sans-Serif" font-size="10.00">arax_throttle_size_dec</text>
</a>
</g>
</g>
<!-- Node2 -->
<g id="Node000002" class="node">
<title>Node2</title>
<g id="a_Node000002"><a xlink:href="a01919.html#a9c8e53aad4b86498a6b709c35c156fc3" target="_top" xlink:title=" ">
<polygon fill="white" stroke="#666666" points="725.75,-214.5 618.25,-214.5 618.25,-196 725.75,-196 725.75,-214.5"/>
<text text-anchor="middle" x="672" y="-201" font-family="Helvetica,sans-Serif" font-size="10.00">arax_accel_size_dec</text>
</a>
</g>
</g>
<!-- Node1&#45;&gt;Node2 -->
<g id="edge1_Node000001_Node000002" class="edge">
<title>Node1&#45;&gt;Node2</title>
<g id="a_edge1_Node000001_Node000002"><a xlink:title=" ">
<path fill="none" stroke="#63b8ff" d="M888.53,-167.95C838.67,-176.58 771.78,-188.15 725.82,-196.11"/>
<polygon fill="#63b8ff" stroke="#63b8ff" points="889.1,-171.4 898.36,-166.25 887.91,-164.5 889.1,-171.4"/>
</a>
</g>
</g>
<!-- Node4 -->
<g id="Node000004" class="node">
<title>Node4</title>
<g id="a_Node000004"><a xlink:href="a01931.html#a6cc54ee40009c61b5f6526f5edff004f" target="_top" xlink:title=" ">
<polygon fill="white" stroke="#666666" points="864,-147.5 761.75,-147.5 761.75,-129 864,-129 864,-147.5"/>
<text text-anchor="middle" x="812.88" y="-134" font-family="Helvetica,sans-Serif" font-size="10.00">arax_pipe_size_dec</text>
</a>
</g>
</g>
<!-- Node1&#45;&gt;Node4 -->
<g id="edge3_Node000001_Node000004" class="edge">
<title>Node1&#45;&gt;Node4</title>
<g id="a_edge3_Node000001_Node000004"><a xlink:title=" ">
<path fill="none" stroke="#63b8ff" d="M888.71,-147.72C880.44,-146.67 872.11,-145.62 864.15,-144.61"/>
<polygon fill="#63b8ff" stroke="#63b8ff" points="888.04,-151.16 898.4,-148.95 888.92,-144.22 888.04,-151.16"/>
</a>
</g>
</g>
<!-- Node3 -->
<g id="Node000003" class="node">
<title>Node3</title>
<g id="a_Node000003"><a xlink:href="a01925.html#af8ede6fc8d207004035f45d945688d2c" target="_top" xlink:title=" ">
<polygon fill="white" stroke="#666666" points="253.62,-268.75 155.12,-268.75 155.12,-239.75 253.62,-239.75 253.62,-268.75"/>
<text text-anchor="start" x="163.12" y="-255.25" font-family="Helvetica,sans-Serif" font-size="10.00">arax_data_allocate</text>
<text text-anchor="middle" x="204.38" y="-244.75" font-family="Helvetica,sans-Serif" font-size="10.00">_remote</text>
</a>
</g>
</g>
<!-- Node2&#45;&gt;Node3 -->
<g id="edge2_Node000002_Node000003" class="edge">
<title>Node2&#45;&gt;Node3</title>
<g id="a_edge2_Node000002_Node000003"><a xlink:title=" ">
<path fill="none" stroke="#63b8ff" d="M606.66,-212.02C512.34,-221.95 338.57,-240.23 254.07,-249.13"/>
<polygon fill="#63b8ff" stroke="#63b8ff" points="606.96,-215.51 616.53,-210.98 606.22,-208.55 606.96,-215.51"/>
</a>
</g>
</g>
<!-- Node5 -->
<g id="Node000005" class="node">
<title>Node5</title>
<g id="a_Node000005"><a xlink:href="a01928.html#a402bbd6fa197c2c48d527325e5e2cf5b" target="_top" xlink:title=" ">
<polygon fill="white" stroke="#666666" points="724.25,-147.5 619.75,-147.5 619.75,-129 724.25,-129 724.25,-147.5"/>
<text text-anchor="middle" x="672" y="-134" font-family="Helvetica,sans-Serif" font-size="10.00">arax_object_register</text>
</a>
</g>
</g>
<!-- Node4&#45;&gt;Node5 -->
<g id="edge4_Node000004_Node000005" class="edge">
<title>Node4&#45;&gt;Node5</title>
<g id="a_edge4_Node000004_Node000005"><a xlink:title=" ">
<path fill="none" stroke="#63b8ff" d="M749.96,-138.25C741.51,-138.25 732.9,-138.25 724.66,-138.25"/>
<polygon fill="#63b8ff" stroke="#63b8ff" points="749.83,-141.75 759.83,-138.25 749.83,-134.75 749.83,-141.75"/>
</a>
</g>
</g>
<!-- Node6 -->
<g id="Node000006" class="node">
<title>Node6</title>
<g id="a_Node000006"><a xlink:href="a01919.html#a0706a66a62ca8710342ac1c097b703ed" target="_top" xlink:title=" ">
<polygon fill="white" stroke="#666666" points="410.62,-166.5 328.62,-166.5 328.62,-148 410.62,-148 410.62,-166.5"/>
<text text-anchor="middle" x="369.62" y="-153" font-family="Helvetica,sans-Serif" font-size="10.00">arax_accel_init</text>
</a>
</g>
</g>
<!-- Node5&#45;&gt;Node6 -->
<g id="edge5_Node000005_Node000006" class="edge">
<title>Node5&#45;&gt;Node6</title>
<g id="a_edge5_Node000005_Node000006"><a xlink:title=" ">
<path fill="none" stroke="#63b8ff" d="M607.89,-142.24C548.55,-146 461.53,-151.5 411.02,-154.69"/>
<polygon fill="#63b8ff" stroke="#63b8ff" points="608.09,-145.74 617.85,-141.61 607.65,-138.75 608.09,-145.74"/>
</a>
</g>
</g>
<!-- Node7 -->
<g id="Node000007" class="node">
<title>Node7</title>
<g id="a_Node000007"><a xlink:href="a01925.html#a526989df37e605824d846b7ba54b43ea" target="_top" xlink:title=" ">
<polygon fill="white" stroke="#666666" points="582.25,-83.5 468.75,-83.5 468.75,-65 582.25,-65 582.25,-83.5"/>
<text text-anchor="middle" x="525.5" y="-70" font-family="Helvetica,sans-Serif" font-size="10.00">arax_data_init_aligned</text>
</a>
</g>
</g>
<!-- Node5&#45;&gt;Node7 -->
<g id="edge6_Node000005_Node000007" class="edge">
<title>Node5&#45;&gt;Node7</title>
<g id="a_edge6_Node000005_Node000007"><a xlink:title=" ">
<path fill="none" stroke="#63b8ff" d="M638.73,-123.96C611.13,-111.73 572.19,-94.48 548.18,-83.85"/>
<polygon fill="#63b8ff" stroke="#63b8ff" points="637.11,-127.07 647.67,-127.92 639.94,-120.67 637.11,-127.07"/>
</a>
</g>
</g>
<!-- Node10 -->
<g id="Node000010" class="node">
<title>Node10</title>
<g id="a_Node000010"><a xlink:href="a01934.html#a86ac572ea8f5f613129192c47d598818" target="_top" xlink:title=" ">
<polygon fill="white" stroke="#666666" points="564.25,-28.5 486.75,-28.5 486.75,-10 564.25,-10 564.25,-28.5"/>
<text text-anchor="middle" x="525.5" y="-15" font-family="Helvetica,sans-Serif" font-size="10.00">arax_proc_init</text>
</a>
</g>
</g>
<!-- Node5&#45;&gt;Node10 -->
<g id="edge9_Node000005_Node000010" class="edge">
<title>Node5&#45;&gt;Node10</title>
<g id="a_edge9_Node000005_Node000010"><a xlink:title=" ">
<path fill="none" stroke="#63b8ff" d="M653.53,-120.53C636.15,-103.29 608.38,-76.78 582.25,-56.25 569.46,-46.2 553.99,-36.08 542.59,-28.97"/>
<polygon fill="#63b8ff" stroke="#63b8ff" points="650.99,-122.94 660.53,-127.55 655.94,-118 650.99,-122.94"/>
</a>
</g>
</g>
<!-- Node12 -->
<g id="Node000012" class="node">
<title>Node12</title>
<g id="a_Node000012"><a xlink:href="a01940.html#a27bee94f7a23281c8b2b72ec433f6059" target="_top" xlink:title=" ">
<polygon fill="white" stroke="#666666" points="568,-203.5 483,-203.5 483,-185 568,-185 568,-203.5"/>
<text text-anchor="middle" x="525.5" y="-190" font-family="Helvetica,sans-Serif" font-size="10.00">arax_task_alloc</text>
</a>
</g>
</g>
<!-- Node5&#45;&gt;Node12 -->
<g id="edge11_Node000005_Node000012" class="edge">
<title>Node5&#45;&gt;Node12</title>
<g id="a_edge11_Node000005_Node000012"><a xlink:title=" ">
<path fill="none" stroke="#63b8ff" d="M635.58,-151.98C609.51,-162.08 574.71,-175.57 551.5,-184.56"/>
<polygon fill="#63b8ff" stroke="#63b8ff" points="636.69,-155.3 644.75,-148.42 634.16,-148.77 636.69,-155.3"/>
</a>
</g>
</g>
<!-- Node19 -->
<g id="Node000019" class="node">
<title>Node19</title>
<g id="a_Node000019"><a xlink:href="a01946.html#a83ddb422946cf774c687c1ab63dcda15" target="_top" xlink:title=" ">
<polygon fill="white" stroke="#666666" points="568.75,-129.5 482.25,-129.5 482.25,-111 568.75,-111 568.75,-129.5"/>
<text text-anchor="middle" x="525.5" y="-116" font-family="Helvetica,sans-Serif" font-size="10.00">arax_vaccel_init</text>
</a>
</g>
</g>
<!-- Node5&#45;&gt;Node19 -->
<g id="edge20_Node000005_Node000019" class="edge">
<title>Node5&#45;&gt;Node19</title>
<g id="a_edge20_Node000005_Node000019"><a xlink:title=" ">
<path fill="none" stroke="#63b8ff" d="M608.6,-130.48C595.27,-128.82 581.48,-127.1 569.1,-125.56"/>
<polygon fill="#63b8ff" stroke="#63b8ff" points="607.79,-133.9 618.15,-131.67 608.66,-126.96 607.79,-133.9"/>
</a>
</g>
</g>
<!-- Node8 -->
<g id="Node000008" class="node">
<title>Node8</title>
<g id="a_Node000008"><a xlink:href="a01925.html#aeefe449d4a278e9fc4b9c5f7e31000a1" target="_top" xlink:title=" ">
<polygon fill="white" stroke="#666666" points="408.38,-55.5 330.88,-55.5 330.88,-37 408.38,-37 408.38,-55.5"/>
<text text-anchor="middle" x="369.62" y="-42" font-family="Helvetica,sans-Serif" font-size="10.00">arax_data_init</text>
</a>
</g>
</g>
<!-- Node7&#45;&gt;Node8 -->
<g id="edge7_Node000007_Node000008" class="edge">
<title>Node7&#45;&gt;Node8</title>
<g id="a_edge7_Node000007_Node000008"><a xlink:title=" ">
<path fill="none" stroke="#63b8ff" d="M460.27,-62.56C442.62,-59.35 424.04,-55.97 408.41,-53.13"/>
<polygon fill="#63b8ff" stroke="#63b8ff" points="459.16,-65.92 469.62,-64.26 460.41,-59.03 459.16,-65.92"/>
</a>
</g>
</g>
<!-- Node9 -->
<g id="Node000009" class="node">
<title>Node9</title>
<g id="a_Node000009"><a xlink:href="a02193.html#ga9260ad2dd766aec3274c518e2e312b1f" target="_top" xlink:title=" ">
<polygon fill="white" stroke="#666666" points="249.12,-55.5 159.62,-55.5 159.62,-37 249.12,-37 249.12,-55.5"/>
<text text-anchor="middle" x="204.38" y="-42" font-family="Helvetica,sans-Serif" font-size="10.00">ARAX_BUFFER</text>
</a>
</g>
</g>
<!-- Node8&#45;&gt;Node9 -->
<g id="edge8_Node000008_Node000009" class="edge">
<title>Node8&#45;&gt;Node9</title>
<g id="a_edge8_Node000008_Node000009"><a xlink:title=" ">
<path fill="none" stroke="#63b8ff" d="M319.5,-46.25C297.2,-46.25 271.04,-46.25 249.39,-46.25"/>
<polygon fill="#63b8ff" stroke="#63b8ff" points="319.25,-49.75 329.25,-46.25 319.25,-42.75 319.25,-49.75"/>
</a>
</g>
</g>
<!-- Node11 -->
<g id="Node000011" class="node">
<title>Node11</title>
<g id="a_Node000011"><a xlink:href="a02191.html#gafad2dafb4a231390f02b7c866295b7d9" target="_top" xlink:title=" ">
<polygon fill="white" stroke="#666666" points="418.12,-18.5 321.12,-18.5 321.12,0 418.12,0 418.12,-18.5"/>
<text text-anchor="middle" x="369.62" y="-5" font-family="Helvetica,sans-Serif" font-size="10.00">arax_proc_register</text>
</a>
</g>
</g>
<!-- Node10&#45;&gt;Node11 -->
<g id="edge10_Node000010_Node000011" class="edge">
<title>Node10&#45;&gt;Node11</title>
<g id="a_edge10_Node000010_Node000011"><a xlink:title=" ">
<path fill="none" stroke="#63b8ff" d="M475.2,-16.05C457.02,-14.86 436.47,-13.53 418.42,-12.36"/>
<polygon fill="#63b8ff" stroke="#63b8ff" points="474.75,-19.52 484.95,-16.68 475.2,-12.54 474.75,-19.52"/>
</a>
</g>
</g>
<!-- Node13 -->
<g id="Node000013" class="node">
<title>Node13</title>
<g id="a_Node000013"><a xlink:href="a02192.html#gac9f0f3fbb14da879d3ff09bd367bbb24" target="_top" xlink:title=" ">
<polygon fill="white" stroke="#666666" points="413.62,-203.5 325.62,-203.5 325.62,-185 413.62,-185 413.62,-203.5"/>
<text text-anchor="middle" x="369.62" y="-190" font-family="Helvetica,sans-Serif" font-size="10.00">arax_task_issue</text>
</a>
</g>
</g>
<!-- Node12&#45;&gt;Node13 -->
<g id="edge12_Node000012_Node000013" class="edge">
<title>Node12&#45;&gt;Node13</title>
<g id="a_edge12_Node000012_Node000013"><a xlink:title=" ">
<path fill="none" stroke="#63b8ff" d="M471.48,-194.25C452.69,-194.25 431.79,-194.25 413.91,-194.25"/>
<polygon fill="#63b8ff" stroke="#63b8ff" points="471.35,-197.75 481.35,-194.25 471.35,-190.75 471.35,-197.75"/>
</a>
</g>
</g>
<!-- Node13&#45;&gt;Node3 -->
<g id="edge13_Node000013_Node000003" class="edge">
<title>Node13&#45;&gt;Node3</title>
<g id="a_edge13_Node000013_Node000003"><a xlink:title=" ">
<path fill="none" stroke="#63b8ff" d="M331.66,-207.83C306.13,-217.22 272.16,-229.7 245.89,-239.36"/>
<polygon fill="#63b8ff" stroke="#63b8ff" points="332.8,-211.15 340.98,-204.41 330.38,-204.58 332.8,-211.15"/>
</a>
</g>
</g>
<!-- Node14 -->
<g id="Node000014" class="node">
<title>Node14</title>
<g id="a_Node000014"><a xlink:href="a01925.html#a696bc4319d0f6c6baa7d797a8df6b56f" target="_top" xlink:title=" ">
<polygon fill="white" stroke="#666666" points="243.5,-221.5 165.25,-221.5 165.25,-203 243.5,-203 243.5,-221.5"/>
<text text-anchor="middle" x="204.38" y="-208" font-family="Helvetica,sans-Serif" font-size="10.00">arax_data_get</text>
</a>
</g>
</g>
<!-- Node13&#45;&gt;Node14 -->
<g id="edge14_Node000013_Node000014" class="edge">
<title>Node13&#45;&gt;Node14</title>
<g id="a_edge14_Node000013_Node000014"><a xlink:title=" ">
<path fill="none" stroke="#63b8ff" d="M313.97,-200.28C290.99,-202.81 264.79,-205.7 243.88,-208"/>
<polygon fill="#63b8ff" stroke="#63b8ff" points="314.25,-203.77 323.8,-199.19 313.48,-196.81 314.25,-203.77"/>
</a>
</g>
</g>
<!-- Node16 -->
<g id="Node000016" class="node">
<title>Node16</title>
<g id="a_Node000016"><a xlink:href="a01925.html#a8995f71dba475975efc37756783cfce9" target="_top" xlink:title=" ">
<polygon fill="white" stroke="#666666" points="243.5,-184.5 165.25,-184.5 165.25,-166 243.5,-166 243.5,-184.5"/>
<text text-anchor="middle" x="204.38" y="-171" font-family="Helvetica,sans-Serif" font-size="10.00">arax_data_set</text>
</a>
</g>
</g>
<!-- Node13&#45;&gt;Node16 -->
<g id="edge16_Node000013_Node000016" class="edge">
<title>Node13&#45;&gt;Node16</title>
<g id="a_edge16_Node000013_Node000016"><a xlink:title=" ">
<path fill="none" stroke="#63b8ff" d="M313.97,-187.89C290.99,-185.21 264.79,-182.16 243.88,-179.73"/>
<polygon fill="#63b8ff" stroke="#63b8ff" points="313.46,-191.35 323.8,-189.03 314.27,-184.4 313.46,-191.35"/>
</a>
</g>
</g>
<!-- Node17 -->
<g id="Node000017" class="node">
<title>Node17</title>
<g id="a_Node000017"><a xlink:href="a01925.html#af735744d0f8bec04394639a841d2ba0f" target="_top" xlink:title=" ">
<polygon fill="white" stroke="#666666" points="270.5,-147.5 138.25,-147.5 138.25,-129 270.5,-129 270.5,-147.5"/>
<text text-anchor="middle" x="204.38" y="-134" font-family="Helvetica,sans-Serif" font-size="10.00">ARAX_OBJ_DTOR_DECL</text>
</a>
</g>
</g>
<!-- Node13&#45;&gt;Node17 -->
<g id="edge18_Node000013_Node000017" class="edge">
<title>Node13&#45;&gt;Node17</title>
<g id="a_edge18_Node000013_Node000017"><a xlink:title=" ">
<path fill="none" stroke="#63b8ff" d="M322.22,-180.99C316.87,-179.19 311.54,-177.26 306.5,-175.25 289.89,-168.61 287.15,-163.78 270.5,-157.25 261.73,-153.81 252.08,-150.66 242.96,-147.97"/>
<polygon fill="#63b8ff" stroke="#63b8ff" points="321.08,-184.3 331.68,-184.04 323.23,-177.64 321.08,-184.3"/>
</a>
</g>
</g>
<!-- Node18 -->
<g id="Node000018" class="node">
<title>Node18</title>
<g id="a_Node000018"><a xlink:href="a02192.html#ga1418f4cd7336bf77cce7b955a1bf7077" target="_top" xlink:title=" ">
<polygon fill="white" stroke="#666666" points="261.12,-110.5 147.62,-110.5 147.62,-92 261.12,-92 261.12,-110.5"/>
<text text-anchor="middle" x="204.38" y="-97" font-family="Helvetica,sans-Serif" font-size="10.00">arax_task_issue_sync</text>
</a>
</g>
</g>
<!-- Node13&#45;&gt;Node18 -->
<g id="edge19_Node000013_Node000018" class="edge">
<title>Node13&#45;&gt;Node18</title>
<g id="a_edge19_Node000013_Node000018"><a xlink:title=" ">
<path fill="none" stroke="#63b8ff" d="M314.9,-180.57C311.95,-178.98 309.12,-177.22 306.5,-175.25 283.14,-157.71 293.98,-137.64 270.5,-120.25 265.39,-116.46 259.54,-113.43 253.48,-111"/>
<polygon fill="#63b8ff" stroke="#63b8ff" points="313.37,-183.72 323.92,-184.66 316.26,-177.34 313.37,-183.72"/>
</a>
</g>
</g>
<!-- Node15 -->
<g id="Node000015" class="node">
<title>Node15</title>
<g id="a_Node000015"><a xlink:href="a01925.html#a7d8356bd5c8b6a8d7dffc6ba94cc22e5" target="_top" xlink:title=" ">
<polygon fill="white" stroke="#666666" points="102.25,-202.5 0,-202.5 0,-184 102.25,-184 102.25,-202.5"/>
<text text-anchor="middle" x="51.12" y="-189" font-family="Helvetica,sans-Serif" font-size="10.00">arax_data_memcpy</text>
</a>
</g>
</g>
<!-- Node14&#45;&gt;Node15 -->
<g id="edge15_Node000014_Node000015" class="edge">
<title>Node14&#45;&gt;Node15</title>
<g id="a_edge15_Node000014_Node000015"><a xlink:title=" ">
<path fill="none" stroke="#63b8ff" d="M153.79,-206.02C137.38,-203.96 119.1,-201.66 102.61,-199.59"/>
<polygon fill="#63b8ff" stroke="#63b8ff" points="152.96,-209.44 163.32,-207.22 153.83,-202.5 152.96,-209.44"/>
</a>
</g>
</g>
<!-- Node16&#45;&gt;Node15 -->
<g id="edge17_Node000016_Node000015" class="edge">
<title>Node16&#45;&gt;Node15</title>
<g id="a_edge17_Node000016_Node000015"><a xlink:title=" ">
<path fill="none" stroke="#63b8ff" d="M153.79,-181.15C137.38,-183.1 119.1,-185.28 102.61,-187.24"/>
<polygon fill="#63b8ff" stroke="#63b8ff" points="153.8,-184.67 163.31,-180.02 152.97,-177.72 153.8,-184.67"/>
</a>
</g>
</g>
<!-- Node19&#45;&gt;Node6 -->
<g id="edge23_Node000019_Node000006" class="edge">
<title>Node19&#45;&gt;Node6</title>
<g id="a_edge23_Node000019_Node000006"><a xlink:title=" ">
<path fill="none" stroke="#63b8ff" d="M473.15,-132.6C452.94,-137.46 430.06,-142.96 411.05,-147.53"/>
<polygon fill="#63b8ff" stroke="#63b8ff" points="473.69,-136.07 482.6,-130.33 472.06,-129.26 473.69,-136.07"/>
</a>
</g>
</g>
<!-- Node20 -->
<g id="Node000020" class="node">
<title>Node20</title>
<g id="a_Node000020"><a xlink:href="a02190.html#gaf8a10ab4e51e59c464ab3ab473e4a0f7" target="_top" xlink:title=" ">
<polygon fill="white" stroke="#666666" points="432.75,-129.5 306.5,-129.5 306.5,-111 432.75,-111 432.75,-129.5"/>
<text text-anchor="middle" x="369.62" y="-116" font-family="Helvetica,sans-Serif" font-size="10.00">arax_accel_acquire_phys</text>
</a>
</g>
</g>
<!-- Node19&#45;&gt;Node20 -->
<g id="edge21_Node000019_Node000020" class="edge">
<title>Node19&#45;&gt;Node20</title>
<g id="a_edge21_Node000019_Node000020"><a xlink:title=" ">
<path fill="none" stroke="#63b8ff" d="M470.71,-120.25C458.57,-120.25 445.58,-120.25 433.11,-120.25"/>
<polygon fill="#63b8ff" stroke="#63b8ff" points="470.53,-123.75 480.53,-120.25 470.53,-116.75 470.53,-123.75"/>
</a>
</g>
</g>
<!-- Node21 -->
<g id="Node000021" class="node">
<title>Node21</title>
<g id="a_Node000021"><a xlink:href="a02190.html#ga008252bb9afc2990fa2c5f4b980c9f27" target="_top" xlink:title=" ">
<polygon fill="white" stroke="#666666" points="432,-92.5 307.25,-92.5 307.25,-74 432,-74 432,-92.5"/>
<text text-anchor="middle" x="369.62" y="-79" font-family="Helvetica,sans-Serif" font-size="10.00">arax_accel_acquire_type</text>
</a>
</g>
</g>
<!-- Node19&#45;&gt;Node21 -->
<g id="edge22_Node000019_Node000021" class="edge">
<title>Node19&#45;&gt;Node21</title>
<g id="a_edge22_Node000019_Node000021"><a xlink:title=" ">
<path fill="none" stroke="#63b8ff" d="M473.15,-107.9C452.94,-103.04 430.06,-97.54 411.05,-92.97"/>
<polygon fill="#63b8ff" stroke="#63b8ff" points="472.06,-111.24 482.6,-110.17 473.69,-104.43 472.06,-111.24"/>
</a>
</g>
</g>
</g>
</svg>
