<?xml version="1.0" encoding="UTF-8" standalone="no"?>
<!DOCTYPE svg PUBLIC "-//W3C//DTD SVG 1.1//EN"
 "http://www.w3.org/Graphics/SVG/1.1/DTD/svg11.dtd">
<!-- Generated by graphviz version 8.0.5 (0)
 -->
<!-- Title: _utils_config_get_str Pages: 1 -->
<svg width="480pt" height="77pt"
 viewBox="0.00 0.00 480.00 77.48" xmlns="http://www.w3.org/2000/svg" xmlns:xlink="http://www.w3.org/1999/xlink">
<g id="graph0" class="graph" transform="scale(1 1) rotate(0) translate(4 73.48)">
<title>_utils_config_get_str</title>
<!-- Node1 -->
<g id="Node000001" class="node">
<title>Node1</title>
<g id="a_Node000001"><a xlink:title=" ">
<polygon fill="#999999" stroke="#666666" points="106,-55.5 0,-55.5 0,-37 106,-37 106,-55.5"/>
<text text-anchor="middle" x="53" y="-42" font-family="Helvetica,sans-Serif" font-size="10.00">_utils_config_get_str</text>
</a>
</g>
</g>
<!-- Node2 -->
<g id="Node000002" class="node">
<title>Node2</title>
<g id="a_Node000002"><a xlink:href="a01952.html#a8b687fb4c464903e23504eea3ddc3873" target="_top" xlink:title=" ">
<polygon fill="white" stroke="#666666" points="195.5,-55.5 142,-55.5 142,-37 195.5,-37 195.5,-55.5"/>
<text text-anchor="middle" x="168.75" y="-42" font-family="Helvetica,sans-Serif" font-size="10.00">conf_get</text>
</a>
</g>
</g>
<!-- Node1&#45;&gt;Node2 -->
<g id="edge1_Node000001_Node000002" class="edge">
<title>Node1&#45;&gt;Node2</title>
<g id="a_edge1_Node000001_Node000002"><a xlink:title=" ">
<path fill="none" stroke="#63b8ff" d="M106.21,-46.25C114.45,-46.25 122.83,-46.25 130.63,-46.25"/>
<polygon fill="#63b8ff" stroke="#63b8ff" points="130.58,-49.75 140.58,-46.25 130.58,-42.75 130.58,-49.75"/>
</a>
</g>
</g>
<!-- Node3 -->
<g id="Node000003" class="node">
<title>Node3</title>
<g id="a_Node000003"><a xlink:href="a01955.html#acde493d3889d6f207d1e122cf4bb1b8c" target="_top" xlink:title=" ">
<polygon fill="white" stroke="#666666" points="472,-55.5 386.25,-55.5 386.25,-37 472,-37 472,-55.5"/>
<text text-anchor="middle" x="429.12" y="-42" font-family="Helvetica,sans-Serif" font-size="10.00">system_env_var</text>
</a>
</g>
</g>
<!-- Node2&#45;&gt;Node3 -->
<g id="edge2_Node000002_Node000003" class="edge">
<title>Node2&#45;&gt;Node3</title>
<g id="a_edge2_Node000002_Node000003"><a xlink:title=" ">
<path fill="none" stroke="#63b8ff" d="M195.83,-55.63C206.71,-59.08 219.56,-62.55 231.5,-64.25 283.75,-71.71 297.81,-70.23 350.25,-64.25 361.11,-63.01 372.65,-60.83 383.44,-58.41"/>
<polygon fill="#63b8ff" stroke="#63b8ff" points="383.99,-61.64 392.92,-55.93 382.38,-54.82 383.99,-61.64"/>
</a>
</g>
</g>
<!-- Node4 -->
<g id="Node000004" class="node">
<title>Node4</title>
<g id="a_Node000004"><a xlink:href="a01955.html#a86c3bfbf6daaf8172e131aa23dc7393c" target="_top" xlink:title=" ">
<polygon fill="white" stroke="#666666" points="334.5,-55.5 247.25,-55.5 247.25,-37 334.5,-37 334.5,-55.5"/>
<text text-anchor="middle" x="290.88" y="-42" font-family="Helvetica,sans-Serif" font-size="10.00">system_file_size</text>
</a>
</g>
</g>
<!-- Node2&#45;&gt;Node4 -->
<g id="edge3_Node000002_Node000004" class="edge">
<title>Node2&#45;&gt;Node4</title>
<g id="a_edge3_Node000002_Node000004"><a xlink:title=" ">
<path fill="none" stroke="#63b8ff" d="M195.82,-46.25C207.69,-46.25 222.21,-46.25 236.26,-46.25"/>
<polygon fill="#63b8ff" stroke="#63b8ff" points="235.86,-49.75 245.86,-46.25 235.86,-42.75 235.86,-49.75"/>
</a>
</g>
</g>
<!-- Node5 -->
<g id="Node000005" class="node">
<title>Node5</title>
<g id="a_Node000005"><a xlink:href="a01952.html#a17713c8e9b90065e23b0ec1a225f79ab" target="_top" xlink:title=" ">
<polygon fill="white" stroke="#666666" points="350.25,-18.5 231.5,-18.5 231.5,0 350.25,0 350.25,-18.5"/>
<text text-anchor="middle" x="290.88" y="-5" font-family="Helvetica,sans-Serif" font-size="10.00">utils_config_get_source</text>
</a>
</g>
</g>
<!-- Node2&#45;&gt;Node5 -->
<g id="edge4_Node000002_Node000005" class="edge">
<title>Node2&#45;&gt;Node5</title>
<g id="a_edge4_Node000002_Node000005"><a xlink:title=" ">
<path fill="none" stroke="#63b8ff" d="M195.82,-38.22C211.02,-33.54 230.55,-27.52 247.87,-22.19"/>
<polygon fill="#63b8ff" stroke="#63b8ff" points="248.78,-25.26 257.31,-18.97 246.72,-18.57 248.78,-25.26"/>
</a>
</g>
</g>
<!-- Node5&#45;&gt;Node3 -->
<g id="edge5_Node000005_Node000003" class="edge">
<title>Node5&#45;&gt;Node3</title>
<g id="a_edge5_Node000005_Node000003"><a xlink:title=" ">
<path fill="none" stroke="#63b8ff" d="M327.67,-18.97C344.34,-23.5 364.36,-28.93 382.13,-33.76"/>
<polygon fill="#63b8ff" stroke="#63b8ff" points="381,-37.35 391.57,-36.59 382.83,-30.6 381,-37.35"/>
</a>
</g>
</g>
</g>
</svg>
