<?xml version="1.0" encoding="UTF-8" standalone="no"?>
<!DOCTYPE svg PUBLIC "-//W3C//DTD SVG 1.1//EN"
 "http://www.w3.org/Graphics/SVG/1.1/DTD/svg11.dtd">
<!-- Generated by graphviz version 8.0.5 (0)
 -->
<!-- Title: arax_vaccel_add_task Pages: 1 -->
<svg width="682pt" height="185pt"
 viewBox="0.00 0.00 682.00 184.75" xmlns="http://www.w3.org/2000/svg" xmlns:xlink="http://www.w3.org/1999/xlink">
<g id="graph0" class="graph" transform="scale(1 1) rotate(0) translate(4 180.75)">
<title>arax_vaccel_add_task</title>
<!-- Node1 -->
<g id="Node000001" class="node">
<title>Node1</title>
<g id="a_Node000001"><a xlink:title=" ">
<polygon fill="#999999" stroke="#666666" points="674,-92.5 560.5,-92.5 560.5,-74 674,-74 674,-92.5"/>
<text text-anchor="middle" x="617.25" y="-79" font-family="Helvetica,sans-Serif" font-size="10.00">arax_vaccel_add_task</text>
</a>
</g>
</g>
<!-- Node2 -->
<g id="Node000002" class="node">
<title>Node2</title>
<g id="a_Node000002"><a xlink:href="a01922.html#ace08f924cb86d1310099621564536657" target="_top" xlink:title=" ">
<polygon fill="white" stroke="#666666" points="524.5,-92.5 430.5,-92.5 430.5,-74 524.5,-74 524.5,-92.5"/>
<text text-anchor="middle" x="477.5" y="-79" font-family="Helvetica,sans-Serif" font-size="10.00">arax_task_submit</text>
</a>
</g>
</g>
<!-- Node1&#45;&gt;Node2 -->
<g id="edge1_Node000001_Node000002" class="edge">
<title>Node1&#45;&gt;Node2</title>
<g id="a_edge1_Node000001_Node000002"><a xlink:title=" ">
<path fill="none" stroke="#63b8ff" d="M549.36,-83.25C541.05,-83.25 532.7,-83.25 524.8,-83.25"/>
<polygon fill="#63b8ff" stroke="#63b8ff" points="549.22,-86.75 559.22,-83.25 549.22,-79.75 549.22,-86.75"/>
</a>
</g>
</g>
<!-- Node3 -->
<g id="Node000003" class="node">
<title>Node3</title>
<g id="a_Node000003"><a xlink:href="a02177.html#gac9f0f3fbb14da879d3ff09bd367bbb24" target="_top" xlink:title=" ">
<polygon fill="white" stroke="#666666" points="394.5,-92.5 306.5,-92.5 306.5,-74 394.5,-74 394.5,-92.5"/>
<text text-anchor="middle" x="350.5" y="-79" font-family="Helvetica,sans-Serif" font-size="10.00">arax_task_issue</text>
</a>
</g>
</g>
<!-- Node2&#45;&gt;Node3 -->
<g id="edge2_Node000002_Node000003" class="edge">
<title>Node2&#45;&gt;Node3</title>
<g id="a_edge2_Node000002_Node000003"><a xlink:title=" ">
<path fill="none" stroke="#63b8ff" d="M419.45,-83.25C411.1,-83.25 402.61,-83.25 394.6,-83.25"/>
<polygon fill="#63b8ff" stroke="#63b8ff" points="419.31,-86.75 429.31,-83.25 419.31,-79.75 419.31,-86.75"/>
</a>
</g>
</g>
<!-- Node4 -->
<g id="Node000004" class="node">
<title>Node4</title>
<g id="a_Node000004"><a xlink:href="a01931.html#af8ede6fc8d207004035f45d945688d2c" target="_top" xlink:title=" ">
<polygon fill="white" stroke="#666666" points="253.62,-176.75 155.12,-176.75 155.12,-147.75 253.62,-147.75 253.62,-176.75"/>
<text text-anchor="start" x="163.12" y="-163.25" font-family="Helvetica,sans-Serif" font-size="10.00">arax_data_allocate</text>
<text text-anchor="middle" x="204.38" y="-152.75" font-family="Helvetica,sans-Serif" font-size="10.00">_remote</text>
</a>
</g>
</g>
<!-- Node3&#45;&gt;Node4 -->
<g id="edge3_Node000003_Node000004" class="edge">
<title>Node3&#45;&gt;Node4</title>
<g id="a_edge3_Node000003_Node000004"><a xlink:title=" ">
<path fill="none" stroke="#63b8ff" d="M329.55,-99.29C314.1,-111.16 291.81,-127.14 270.5,-138.25 264.2,-141.54 257.34,-144.58 250.52,-147.33"/>
<polygon fill="#63b8ff" stroke="#63b8ff" points="331.08,-101.75 336.8,-92.84 326.76,-96.24 331.08,-101.75"/>
</a>
</g>
</g>
<!-- Node5 -->
<g id="Node000005" class="node">
<title>Node5</title>
<g id="a_Node000005"><a xlink:href="a01931.html#a696bc4319d0f6c6baa7d797a8df6b56f" target="_top" xlink:title=" ">
<polygon fill="white" stroke="#666666" points="243.5,-129.5 165.25,-129.5 165.25,-111 243.5,-111 243.5,-129.5"/>
<text text-anchor="middle" x="204.38" y="-116" font-family="Helvetica,sans-Serif" font-size="10.00">arax_data_get</text>
</a>
</g>
</g>
<!-- Node3&#45;&gt;Node5 -->
<g id="edge4_Node000003_Node000005" class="edge">
<title>Node3&#45;&gt;Node5</title>
<g id="a_edge4_Node000003_Node000005"><a xlink:title=" ">
<path fill="none" stroke="#63b8ff" d="M301.14,-95.66C282.27,-100.51 260.96,-105.98 243.24,-110.53"/>
<polygon fill="#63b8ff" stroke="#63b8ff" points="301.82,-98.85 310.63,-92.97 300.08,-92.07 301.82,-98.85"/>
</a>
</g>
</g>
<!-- Node7 -->
<g id="Node000007" class="node">
<title>Node7</title>
<g id="a_Node000007"><a xlink:href="a01931.html#a8995f71dba475975efc37756783cfce9" target="_top" xlink:title=" ">
<polygon fill="white" stroke="#666666" points="243.5,-92.5 165.25,-92.5 165.25,-74 243.5,-74 243.5,-92.5"/>
<text text-anchor="middle" x="204.38" y="-79" font-family="Helvetica,sans-Serif" font-size="10.00">arax_data_set</text>
</a>
</g>
</g>
<!-- Node3&#45;&gt;Node7 -->
<g id="edge6_Node000003_Node000007" class="edge">
<title>Node3&#45;&gt;Node7</title>
<g id="a_edge6_Node000003_Node000007"><a xlink:title=" ">
<path fill="none" stroke="#63b8ff" d="M295.72,-83.25C278.43,-83.25 259.64,-83.25 243.69,-83.25"/>
<polygon fill="#63b8ff" stroke="#63b8ff" points="295.26,-86.75 305.26,-83.25 295.26,-79.75 295.26,-86.75"/>
</a>
</g>
</g>
<!-- Node8 -->
<g id="Node000008" class="node">
<title>Node8</title>
<g id="a_Node000008"><a xlink:href="a01931.html#af735744d0f8bec04394639a841d2ba0f" target="_top" xlink:title=" ">
<polygon fill="white" stroke="#666666" points="270.5,-55.5 138.25,-55.5 138.25,-37 270.5,-37 270.5,-55.5"/>
<text text-anchor="middle" x="204.38" y="-42" font-family="Helvetica,sans-Serif" font-size="10.00">ARAX_OBJ_DTOR_DECL</text>
</a>
</g>
</g>
<!-- Node3&#45;&gt;Node8 -->
<g id="edge8_Node000003_Node000008" class="edge">
<title>Node3&#45;&gt;Node8</title>
<g id="a_edge8_Node000003_Node000008"><a xlink:title=" ">
<path fill="none" stroke="#63b8ff" d="M301.14,-70.84C282.27,-65.99 260.96,-60.52 243.24,-55.97"/>
<polygon fill="#63b8ff" stroke="#63b8ff" points="300.08,-74.43 310.63,-73.53 301.82,-67.65 300.08,-74.43"/>
</a>
</g>
</g>
<!-- Node9 -->
<g id="Node000009" class="node">
<title>Node9</title>
<g id="a_Node000009"><a xlink:href="a02177.html#ga1418f4cd7336bf77cce7b955a1bf7077" target="_top" xlink:title=" ">
<polygon fill="white" stroke="#666666" points="261.12,-18.5 147.62,-18.5 147.62,0 261.12,0 261.12,-18.5"/>
<text text-anchor="middle" x="204.38" y="-5" font-family="Helvetica,sans-Serif" font-size="10.00">arax_task_issue_sync</text>
</a>
</g>
</g>
<!-- Node3&#45;&gt;Node9 -->
<g id="edge9_Node000003_Node000009" class="edge">
<title>Node3&#45;&gt;Node9</title>
<g id="a_edge9_Node000003_Node000009"><a xlink:title=" ">
<path fill="none" stroke="#63b8ff" d="M330.03,-67C314.68,-54.87 292.3,-38.68 270.5,-28.25 262.85,-24.59 254.35,-21.49 246.09,-18.92"/>
<polygon fill="#63b8ff" stroke="#63b8ff" points="327.22,-70.03 337.2,-73.59 331.61,-64.58 327.22,-70.03"/>
</a>
</g>
</g>
<!-- Node6 -->
<g id="Node000006" class="node">
<title>Node6</title>
<g id="a_Node000006"><a xlink:href="a01931.html#a7d8356bd5c8b6a8d7dffc6ba94cc22e5" target="_top" xlink:title=" ">
<polygon fill="white" stroke="#666666" points="102.25,-110.5 0,-110.5 0,-92 102.25,-92 102.25,-110.5"/>
<text text-anchor="middle" x="51.12" y="-97" font-family="Helvetica,sans-Serif" font-size="10.00">arax_data_memcpy</text>
</a>
</g>
</g>
<!-- Node5&#45;&gt;Node6 -->
<g id="edge5_Node000005_Node000006" class="edge">
<title>Node5&#45;&gt;Node6</title>
<g id="a_edge5_Node000005_Node000006"><a xlink:title=" ">
<path fill="none" stroke="#63b8ff" d="M154.27,-114.08C137.73,-112 119.26,-109.68 102.61,-107.59"/>
<polygon fill="#63b8ff" stroke="#63b8ff" points="153.46,-117.63 163.82,-115.41 154.33,-110.69 153.46,-117.63"/>
</a>
</g>
</g>
<!-- Node7&#45;&gt;Node6 -->
<g id="edge7_Node000007_Node000006" class="edge">
<title>Node7&#45;&gt;Node6</title>
<g id="a_edge7_Node000007_Node000006"><a xlink:title=" ">
<path fill="none" stroke="#63b8ff" d="M154.27,-89.09C137.73,-91.06 119.26,-93.26 102.61,-95.24"/>
<polygon fill="#63b8ff" stroke="#63b8ff" points="154.3,-92.5 163.82,-87.84 153.47,-85.55 154.3,-92.5"/>
</a>
</g>
</g>
</g>
</svg>
