<?xml version="1.0" encoding="UTF-8" standalone="no"?>
<!DOCTYPE svg PUBLIC "-//W3C//DTD SVG 1.1//EN"
 "http://www.w3.org/Graphics/SVG/1.1/DTD/svg11.dtd">
<!-- Generated by graphviz version 12.2.1 (0)
 -->
<!-- Title: arax_task.c Pages: 1 -->
<svg width="1029pt" height="408pt"
 viewBox="0.00 0.00 1029.38 408.00" xmlns="http://www.w3.org/2000/svg" xmlns:xlink="http://www.w3.org/1999/xlink">
<g id="graph0" class="graph" transform="scale(1 1) rotate(0) translate(4 404)">
<title>arax_task.c</title>
<!-- Node1 -->
<g id="Node000001" class="node">
<title>Node1</title>
<g id="a_Node000001"><a xlink:title=" ">
<polygon fill="#999999" stroke="#666666" points="511,-400 443.25,-400 443.25,-381.5 511,-381.5 511,-400"/>
<text text-anchor="middle" x="477.12" y="-386.5" font-family="Helvetica,sans-Serif" font-size="10.00">arax_task.c</text>
</a>
</g>
</g>
<!-- Node2 -->
<g id="Node000002" class="node">
<title>Node2</title>
<g id="a_Node000002"><a xlink:href="a01355.html" target="_top" xlink:title=" ">
<polygon fill="white" stroke="#666666" points="246.62,-182 203.62,-182 203.62,-163.5 246.62,-163.5 246.62,-182"/>
<text text-anchor="middle" x="225.12" y="-168.5" font-family="Helvetica,sans-Serif" font-size="10.00">arax.h</text>
</a>
</g>
</g>
<!-- Node1&#45;&gt;Node2 -->
<g id="edge1_Node000001_Node000002" class="edge">
<title>Node1&#45;&gt;Node2</title>
<g id="a_edge1_Node000001_Node000002"><a xlink:title=" ">
<path fill="none" stroke="#63b8ff" d="M443.66,-381.01C417.39,-373.47 380.33,-361.3 350.12,-345.5 313.61,-326.41 304.83,-319.55 275.12,-291 252.88,-269.62 243.84,-265.04 232.12,-236.5 226.51,-222.81 224.87,-206.11 224.57,-193.38"/>
<polygon fill="#63b8ff" stroke="#63b8ff" points="228.07,-193.76 224.62,-183.75 221.07,-193.73 228.07,-193.76"/>
</a>
</g>
</g>
<!-- Node9 -->
<g id="Node000009" class="node">
<title>Node9</title>
<g id="a_Node000009"><a xlink:href="a01358.html" target="_top" xlink:title=" ">
<polygon fill="white" stroke="#666666" points="425.62,-345.5 358.62,-345.5 358.62,-327 425.62,-327 425.62,-345.5"/>
<text text-anchor="middle" x="392.12" y="-332" font-family="Helvetica,sans-Serif" font-size="10.00">arax_pipe.h</text>
</a>
</g>
</g>
<!-- Node1&#45;&gt;Node9 -->
<g id="edge9_Node000001_Node000009" class="edge">
<title>Node1&#45;&gt;Node9</title>
<g id="a_edge9_Node000001_Node000009"><a xlink:title=" ">
<path fill="none" stroke="#63b8ff" d="M463.09,-381.08C450.29,-373.18 431.13,-361.34 415.94,-351.96"/>
<polygon fill="#63b8ff" stroke="#63b8ff" points="417.82,-349 407.47,-346.73 414.14,-354.96 417.82,-349"/>
</a>
</g>
</g>
<!-- Node26 -->
<g id="Node000026" class="node">
<title>Node26</title>
<g id="a_Node000026"><a xlink:href="a01409.html" target="_top" xlink:title=" ">
<polygon fill="white" stroke="#666666" points="511,-345.5 443.25,-345.5 443.25,-327 511,-327 511,-345.5"/>
<text text-anchor="middle" x="477.12" y="-332" font-family="Helvetica,sans-Serif" font-size="10.00">arax_data.h</text>
</a>
</g>
</g>
<!-- Node1&#45;&gt;Node26 -->
<g id="edge43_Node000001_Node000026" class="edge">
<title>Node1&#45;&gt;Node26</title>
<g id="a_edge43_Node000001_Node000026"><a xlink:title=" ">
<path fill="none" stroke="#63b8ff" d="M477.12,-381.08C477.12,-374.58 477.12,-365.42 477.12,-357.16"/>
<polygon fill="#63b8ff" stroke="#63b8ff" points="480.63,-357.27 477.13,-347.27 473.63,-357.27 480.63,-357.27"/>
</a>
</g>
</g>
<!-- Node27 -->
<g id="Node000027" class="node">
<title>Node27</title>
<g id="a_Node000027"><a xlink:href="a01400.html" target="_top" xlink:title=" ">
<polygon fill="white" stroke="#666666" points="595.62,-345.5 528.62,-345.5 528.62,-327 595.62,-327 595.62,-345.5"/>
<text text-anchor="middle" x="562.12" y="-332" font-family="Helvetica,sans-Serif" font-size="10.00">utils/timer.h</text>
</a>
</g>
</g>
<!-- Node1&#45;&gt;Node27 -->
<g id="edge49_Node000001_Node000027" class="edge">
<title>Node1&#45;&gt;Node27</title>
<g id="a_edge49_Node000001_Node000027"><a xlink:title=" ">
<path fill="none" stroke="#63b8ff" d="M491.16,-381.08C503.96,-373.18 523.12,-361.34 538.31,-351.96"/>
<polygon fill="#63b8ff" stroke="#63b8ff" points="540.11,-354.96 546.78,-346.73 536.43,-349 540.11,-354.96"/>
</a>
</g>
</g>
<!-- Node29 -->
<g id="Node000029" class="node">
<title>Node29</title>
<g id="a_Node000029"><a xlink:title=" ">
<polygon fill="#e0e0e0" stroke="#999999" points="660.88,-345.5 613.38,-345.5 613.38,-327 660.88,-327 660.88,-345.5"/>
<text text-anchor="middle" x="637.12" y="-332" font-family="Helvetica,sans-Serif" font-size="10.00">stdlib.h</text>
</a>
</g>
</g>
<!-- Node1&#45;&gt;Node29 -->
<g id="edge52_Node000001_Node000029" class="edge">
<title>Node1&#45;&gt;Node29</title>
<g id="a_edge52_Node000001_Node000029"><a xlink:title=" ">
<path fill="none" stroke="#63b8ff" d="M503.55,-381.08C530.54,-372.22 572.6,-358.42 602.3,-348.68"/>
<polygon fill="#63b8ff" stroke="#63b8ff" points="603.17,-352.07 611.58,-345.63 600.99,-345.42 603.17,-352.07"/>
</a>
</g>
</g>
<!-- Node3 -->
<g id="Node000003" class="node">
<title>Node3</title>
<g id="a_Node000003"><a xlink:title=" ">
<polygon fill="#e0e0e0" stroke="#999999" points="273.75,-127.5 228.5,-127.5 228.5,-109 273.75,-109 273.75,-127.5"/>
<text text-anchor="middle" x="251.12" y="-114" font-family="Helvetica,sans-Serif" font-size="10.00">stdio.h</text>
</a>
</g>
</g>
<!-- Node2&#45;&gt;Node3 -->
<g id="edge2_Node000002_Node000003" class="edge">
<title>Node2&#45;&gt;Node3</title>
<g id="a_edge2_Node000002_Node000003"><a xlink:title=" ">
<path fill="none" stroke="#63b8ff" d="M229.42,-163.08C232.79,-156.28 237.6,-146.56 241.84,-138"/>
<polygon fill="#63b8ff" stroke="#63b8ff" points="244.94,-139.63 246.24,-129.11 238.67,-136.52 244.94,-139.63"/>
</a>
</g>
</g>
<!-- Node4 -->
<g id="Node000004" class="node">
<title>Node4</title>
<g id="a_Node000004"><a xlink:title=" ">
<polygon fill="#e0e0e0" stroke="#999999" points="352.38,-73 301.88,-73 301.88,-54.5 352.38,-54.5 352.38,-73"/>
<text text-anchor="middle" x="327.12" y="-59.5" font-family="Helvetica,sans-Serif" font-size="10.00">stddef.h</text>
</a>
</g>
</g>
<!-- Node2&#45;&gt;Node4 -->
<g id="edge3_Node000002_Node000004" class="edge">
<title>Node2&#45;&gt;Node4</title>
<g id="a_edge3_Node000002_Node000004"><a xlink:title=" ">
<path fill="none" stroke="#63b8ff" d="M221.13,-163.2C215.74,-150.28 208.03,-125.54 219.12,-109 234.91,-85.47 265.68,-74.44 290.35,-69.28"/>
<polygon fill="#63b8ff" stroke="#63b8ff" points="290.83,-72.75 300.04,-67.51 289.58,-65.86 290.83,-72.75"/>
</a>
</g>
</g>
<!-- Node5 -->
<g id="Node000005" class="node">
<title>Node5</title>
<g id="a_Node000005"><a xlink:href="a01361.html" target="_top" xlink:title=" ">
<polygon fill="white" stroke="#666666" points="101.62,-73 28.62,-73 28.62,-54.5 101.62,-54.5 101.62,-73"/>
<text text-anchor="middle" x="65.12" y="-59.5" font-family="Helvetica,sans-Serif" font-size="10.00">arax_types.h</text>
</a>
</g>
</g>
<!-- Node2&#45;&gt;Node5 -->
<g id="edge4_Node000002_Node000005" class="edge">
<title>Node2&#45;&gt;Node5</title>
<g id="a_edge4_Node000002_Node000005"><a xlink:title=" ">
<path fill="none" stroke="#63b8ff" d="M203.27,-169.87C158.61,-165.53 59.39,-153.16 39.12,-127.5 28.42,-113.95 38.47,-95.37 49.04,-81.94"/>
<polygon fill="#63b8ff" stroke="#63b8ff" points="51.68,-84.24 55.54,-74.37 46.37,-79.68 51.68,-84.24"/>
</a>
</g>
</g>
<!-- Node8 -->
<g id="Node000008" class="node">
<title>Node8</title>
<g id="a_Node000008"><a xlink:href="a01406.html" target="_top" xlink:title=" ">
<polygon fill="white" stroke="#666666" points="171.75,-127.5 48.5,-127.5 48.5,-109 171.75,-109 171.75,-127.5"/>
<text text-anchor="middle" x="110.12" y="-114" font-family="Helvetica,sans-Serif" font-size="10.00">core/arax_accel_types.h</text>
</a>
</g>
</g>
<!-- Node2&#45;&gt;Node8 -->
<g id="edge7_Node000002_Node000008" class="edge">
<title>Node2&#45;&gt;Node8</title>
<g id="a_edge7_Node000002_Node000008"><a xlink:title=" ">
<path fill="none" stroke="#63b8ff" d="M206.14,-163.08C187.99,-154.8 160.38,-142.19 139.41,-132.62"/>
<polygon fill="#63b8ff" stroke="#63b8ff" points="141.07,-129.53 130.52,-128.56 138.16,-135.9 141.07,-129.53"/>
</a>
</g>
</g>
<!-- Node6 -->
<g id="Node000006" class="node">
<title>Node6</title>
<g id="a_Node000006"><a xlink:title=" ">
<polygon fill="#e0e0e0" stroke="#999999" points="60.25,-18.5 0,-18.5 0,0 60.25,0 60.25,-18.5"/>
<text text-anchor="middle" x="30.12" y="-5" font-family="Helvetica,sans-Serif" font-size="10.00">sys/time.h</text>
</a>
</g>
</g>
<!-- Node5&#45;&gt;Node6 -->
<g id="edge5_Node000005_Node000006" class="edge">
<title>Node5&#45;&gt;Node6</title>
<g id="a_edge5_Node000005_Node000006"><a xlink:title=" ">
<path fill="none" stroke="#63b8ff" d="M59.35,-54.08C54.66,-47.05 47.89,-36.9 42.05,-28.14"/>
<polygon fill="#63b8ff" stroke="#63b8ff" points="45.1,-26.4 36.64,-20.02 39.27,-30.28 45.1,-26.4"/>
</a>
</g>
</g>
<!-- Node7 -->
<g id="Node000007" class="node">
<title>Node7</title>
<g id="a_Node000007"><a xlink:title=" ">
<polygon fill="#e0e0e0" stroke="#999999" points="121.62,-18.5 78.62,-18.5 78.62,0 121.62,0 121.62,-18.5"/>
<text text-anchor="middle" x="100.12" y="-5" font-family="Helvetica,sans-Serif" font-size="10.00">time.h</text>
</a>
</g>
</g>
<!-- Node5&#45;&gt;Node7 -->
<g id="edge6_Node000005_Node000007" class="edge">
<title>Node5&#45;&gt;Node7</title>
<g id="a_edge6_Node000005_Node000007"><a xlink:title=" ">
<path fill="none" stroke="#63b8ff" d="M70.9,-54.08C75.59,-47.05 82.36,-36.9 88.2,-28.14"/>
<polygon fill="#63b8ff" stroke="#63b8ff" points="90.98,-30.28 93.61,-20.02 85.15,-26.4 90.98,-30.28"/>
</a>
</g>
</g>
<!-- Node8&#45;&gt;Node5 -->
<g id="edge8_Node000008_Node000005" class="edge">
<title>Node8&#45;&gt;Node5</title>
<g id="a_edge8_Node000008_Node000005"><a xlink:title=" ">
<path fill="none" stroke="#63b8ff" d="M102.69,-108.58C96.47,-101.32 87.4,-90.73 79.72,-81.78"/>
<polygon fill="#63b8ff" stroke="#63b8ff" points="82.57,-79.72 73.4,-74.41 77.25,-84.28 82.57,-79.72"/>
</a>
</g>
</g>
<!-- Node9&#45;&gt;Node2 -->
<g id="edge10_Node000009_Node000002" class="edge">
<title>Node9&#45;&gt;Node2</title>
<g id="a_edge10_Node000009_Node000002"><a xlink:title=" ">
<path fill="none" stroke="#63b8ff" d="M368.96,-326.55C335.78,-312.82 275.41,-282.82 245.12,-236.5 236.49,-223.3 231.36,-206.11 228.46,-193.06"/>
<polygon fill="#63b8ff" stroke="#63b8ff" points="231.95,-192.71 226.61,-183.57 225.08,-194.05 231.95,-192.71"/>
</a>
</g>
</g>
<!-- Node10 -->
<g id="Node000010" class="node">
<title>Node10</title>
<g id="a_Node000010"><a xlink:href="a01370.html" target="_top" xlink:title=" ">
<polygon fill="white" stroke="#666666" points="323.38,-182 266.88,-182 266.88,-163.5 323.38,-163.5 323.38,-182"/>
<text text-anchor="middle" x="295.12" y="-168.5" font-family="Helvetica,sans-Serif" font-size="10.00">utils/Kv.h</text>
</a>
</g>
</g>
<!-- Node9&#45;&gt;Node10 -->
<g id="edge11_Node000009_Node000010" class="edge">
<title>Node9&#45;&gt;Node10</title>
<g id="a_edge11_Node000009_Node000010"><a xlink:title=" ">
<path fill="none" stroke="#63b8ff" d="M369.18,-326.6C353.29,-319.44 332.95,-307.72 321.12,-291 300.3,-261.58 295.75,-218.43 294.98,-193.51"/>
<polygon fill="#63b8ff" stroke="#63b8ff" points="298.49,-193.78 294.88,-183.82 291.49,-193.85 298.49,-193.78"/>
</a>
</g>
</g>
<!-- Node16 -->
<g id="Node000016" class="node">
<title>Node16</title>
<g id="a_Node000016"><a xlink:href="a01391.html" target="_top" xlink:title=" ">
<polygon fill="white" stroke="#666666" points="459.88,-182 388.38,-182 388.38,-163.5 459.88,-163.5 459.88,-182"/>
<text text-anchor="middle" x="424.12" y="-168.5" font-family="Helvetica,sans-Serif" font-size="10.00">utils/queue.h</text>
</a>
</g>
</g>
<!-- Node9&#45;&gt;Node16 -->
<g id="edge18_Node000009_Node000016" class="edge">
<title>Node9&#45;&gt;Node16</title>
<g id="a_edge18_Node000009_Node000016"><a xlink:title=" ">
<path fill="none" stroke="#63b8ff" d="M393.85,-326.57C398.79,-301.59 413.16,-229.1 420.17,-193.69"/>
<polygon fill="#63b8ff" stroke="#63b8ff" points="423.59,-194.45 422.1,-183.96 416.72,-193.09 423.59,-194.45"/>
</a>
</g>
</g>
<!-- Node17 -->
<g id="Node000017" class="node">
<title>Node17</title>
<g id="a_Node000017"><a xlink:href="a01403.html" target="_top" xlink:title=" ">
<polygon fill="white" stroke="#666666" points="719.12,-291 625.12,-291 625.12,-272.5 719.12,-272.5 719.12,-291"/>
<text text-anchor="middle" x="672.12" y="-277.5" font-family="Helvetica,sans-Serif" font-size="10.00">core/arax_accel.h</text>
</a>
</g>
</g>
<!-- Node9&#45;&gt;Node17 -->
<g id="edge23_Node000009_Node000017" class="edge">
<title>Node9&#45;&gt;Node17</title>
<g id="a_edge23_Node000009_Node000017"><a xlink:title=" ">
<path fill="none" stroke="#63b8ff" d="M426.05,-328.56C428.78,-328.03 431.5,-327.5 434.12,-327 495.27,-315.31 565.34,-302.33 613.53,-293.47"/>
<polygon fill="#63b8ff" stroke="#63b8ff" points="613.99,-296.95 623.2,-291.7 612.73,-290.06 613.99,-296.95"/>
</a>
</g>
</g>
<!-- Node24 -->
<g id="Node000024" class="node">
<title>Node24</title>
<g id="a_Node000024"><a xlink:href="a01424.html" target="_top" xlink:title=" ">
<polygon fill="white" stroke="#666666" points="547.88,-291 458.38,-291 458.38,-272.5 547.88,-272.5 547.88,-291"/>
<text text-anchor="middle" x="503.12" y="-277.5" font-family="Helvetica,sans-Serif" font-size="10.00">core/arax_task.h</text>
</a>
</g>
</g>
<!-- Node9&#45;&gt;Node24 -->
<g id="edge38_Node000009_Node000024" class="edge">
<title>Node9&#45;&gt;Node24</title>
<g id="a_edge38_Node000009_Node000024"><a xlink:title=" ">
<path fill="none" stroke="#63b8ff" d="M410.45,-326.58C427.89,-318.34 454.38,-305.81 474.58,-296.25"/>
<polygon fill="#63b8ff" stroke="#63b8ff" points="475.86,-299.52 483.4,-292.08 472.86,-293.19 475.86,-299.52"/>
</a>
</g>
</g>
<!-- Node10&#45;&gt;Node4 -->
<g id="edge13_Node000010_Node000004" class="edge">
<title>Node10&#45;&gt;Node4</title>
<g id="a_edge13_Node000010_Node000004"><a xlink:title=" ">
<path fill="none" stroke="#63b8ff" d="M297.64,-163.35C302.7,-146.4 314.28,-107.71 321.32,-84.15"/>
<polygon fill="#63b8ff" stroke="#63b8ff" points="324.59,-85.44 324.1,-74.85 317.88,-83.43 324.59,-85.44"/>
</a>
</g>
</g>
<!-- Node11 -->
<g id="Node000011" class="node">
<title>Node11</title>
<g id="a_Node000011"><a xlink:href="a01364.html" target="_top" xlink:title=" ">
<polygon fill="white" stroke="#666666" points="372.25,-127.5 330,-127.5 330,-109 372.25,-109 372.25,-127.5"/>
<text text-anchor="middle" x="351.12" y="-114" font-family="Helvetica,sans-Serif" font-size="10.00">conf.h</text>
</a>
</g>
</g>
<!-- Node10&#45;&gt;Node11 -->
<g id="edge12_Node000010_Node000011" class="edge">
<title>Node10&#45;&gt;Node11</title>
<g id="a_edge12_Node000010_Node000011"><a xlink:title=" ">
<path fill="none" stroke="#63b8ff" d="M304.37,-163.08C312.36,-155.59 324.13,-144.56 333.86,-135.44"/>
<polygon fill="#63b8ff" stroke="#63b8ff" points="336.04,-138.19 340.95,-128.79 331.26,-133.08 336.04,-138.19"/>
</a>
</g>
</g>
<!-- Node12 -->
<g id="Node000012" class="node">
<title>Node12</title>
<g id="a_Node000012"><a xlink:href="a01394.html" target="_top" xlink:title=" ">
<polygon fill="white" stroke="#666666" points="488.25,-127.5 428,-127.5 428,-109 488.25,-109 488.25,-127.5"/>
<text text-anchor="middle" x="458.12" y="-114" font-family="Helvetica,sans-Serif" font-size="10.00">spinlock.h</text>
</a>
</g>
</g>
<!-- Node10&#45;&gt;Node12 -->
<g id="edge14_Node000010_Node000012" class="edge">
<title>Node10&#45;&gt;Node12</title>
<g id="a_edge14_Node000010_Node000012"><a xlink:title=" ">
<path fill="none" stroke="#63b8ff" d="M322.04,-163.08C348.82,-154.46 390.15,-141.14 420.24,-131.45"/>
<polygon fill="#63b8ff" stroke="#63b8ff" points="421.28,-134.79 429.73,-128.4 419.14,-128.13 421.28,-134.79"/>
</a>
</g>
</g>
<!-- Node13 -->
<g id="Node000013" class="node">
<title>Node13</title>
<g id="a_Node000013"><a xlink:title=" ">
<polygon fill="#e0e0e0" stroke="#999999" points="564.88,-73 517.38,-73 517.38,-54.5 564.88,-54.5 564.88,-73"/>
<text text-anchor="middle" x="541.12" y="-59.5" font-family="Helvetica,sans-Serif" font-size="10.00">stdint.h</text>
</a>
</g>
</g>
<!-- Node12&#45;&gt;Node13 -->
<g id="edge15_Node000012_Node000013" class="edge">
<title>Node12&#45;&gt;Node13</title>
<g id="a_edge15_Node000012_Node000013"><a xlink:title=" ">
<path fill="none" stroke="#63b8ff" d="M471.83,-108.58C484.33,-100.68 503.04,-88.84 517.87,-79.46"/>
<polygon fill="#63b8ff" stroke="#63b8ff" points="519.54,-82.54 526.12,-74.24 515.8,-76.63 519.54,-82.54"/>
</a>
</g>
</g>
<!-- Node14 -->
<g id="Node000014" class="node">
<title>Node14</title>
<g id="a_Node000014"><a xlink:href="a01373.html" target="_top" xlink:title=" ">
<polygon fill="white" stroke="#666666" points="499.62,-73 402.62,-73 402.62,-54.5 499.62,-54.5 499.62,-73"/>
<text text-anchor="middle" x="451.12" y="-59.5" font-family="Helvetica,sans-Serif" font-size="10.00">utils/arax_assert.h</text>
</a>
</g>
</g>
<!-- Node12&#45;&gt;Node14 -->
<g id="edge16_Node000012_Node000014" class="edge">
<title>Node12&#45;&gt;Node14</title>
<g id="a_edge16_Node000012_Node000014"><a xlink:title=" ">
<path fill="none" stroke="#63b8ff" d="M456.97,-108.58C456.1,-102.08 454.88,-92.92 453.78,-84.66"/>
<polygon fill="#63b8ff" stroke="#63b8ff" points="457.25,-84.21 452.46,-74.76 450.31,-85.13 457.25,-84.21"/>
</a>
</g>
</g>
<!-- Node15 -->
<g id="Node000015" class="node">
<title>Node15</title>
<g id="a_Node000015"><a xlink:href="a01382.html" target="_top" xlink:title=" ">
<polygon fill="white" stroke="#666666" points="479,-18.5 423.25,-18.5 423.25,0 479,0 479,-18.5"/>
<text text-anchor="middle" x="451.12" y="-5" font-family="Helvetica,sans-Serif" font-size="10.00">compat.h</text>
</a>
</g>
</g>
<!-- Node14&#45;&gt;Node15 -->
<g id="edge17_Node000014_Node000015" class="edge">
<title>Node14&#45;&gt;Node15</title>
<g id="a_edge17_Node000014_Node000015"><a xlink:title=" ">
<path fill="none" stroke="#63b8ff" d="M451.12,-54.08C451.12,-47.58 451.12,-38.42 451.12,-30.16"/>
<polygon fill="#63b8ff" stroke="#63b8ff" points="454.63,-30.27 451.13,-20.27 447.63,-30.27 454.63,-30.27"/>
</a>
</g>
</g>
<!-- Node16&#45;&gt;Node4 -->
<g id="edge19_Node000016_Node000004" class="edge">
<title>Node16&#45;&gt;Node4</title>
<g id="a_edge19_Node000016_Node000004"><a xlink:title=" ">
<path fill="none" stroke="#63b8ff" d="M419.26,-163.07C411.93,-150.42 397.2,-126.51 381.12,-109 371.34,-98.33 358.93,-87.99 348.47,-79.99"/>
<polygon fill="#63b8ff" stroke="#63b8ff" points="350.88,-77.42 340.77,-74.26 346.71,-83.03 350.88,-77.42"/>
</a>
</g>
</g>
<!-- Node16&#45;&gt;Node11 -->
<g id="edge21_Node000016_Node000011" class="edge">
<title>Node16&#45;&gt;Node11</title>
<g id="a_edge21_Node000016_Node000011"><a xlink:title=" ">
<path fill="none" stroke="#63b8ff" d="M412.07,-163.08C401.23,-155.28 385.06,-143.65 372.1,-134.33"/>
<polygon fill="#63b8ff" stroke="#63b8ff" points="374.35,-131.64 364.18,-128.64 370.26,-137.32 374.35,-131.64"/>
</a>
</g>
</g>
<!-- Node16&#45;&gt;Node12 -->
<g id="edge22_Node000016_Node000012" class="edge">
<title>Node16&#45;&gt;Node12</title>
<g id="a_edge22_Node000016_Node000012"><a xlink:title=" ">
<path fill="none" stroke="#63b8ff" d="M429.74,-163.08C434.24,-156.12 440.73,-146.12 446.36,-137.42"/>
<polygon fill="#63b8ff" stroke="#63b8ff" points="449.29,-139.32 451.79,-129.03 443.42,-135.52 449.29,-139.32"/>
</a>
</g>
</g>
<!-- Node16&#45;&gt;Node13 -->
<g id="edge20_Node000016_Node000013" class="edge">
<title>Node16&#45;&gt;Node13</title>
<g id="a_edge20_Node000016_Node000013"><a xlink:title=" ">
<path fill="none" stroke="#63b8ff" d="M460.05,-172.36C495.23,-170.79 547.22,-162.21 573.12,-127.5 583.92,-113.03 571.62,-94.38 559.27,-81.18"/>
<polygon fill="#63b8ff" stroke="#63b8ff" points="562.04,-79 552.47,-74.46 557.12,-83.98 562.04,-79"/>
</a>
</g>
</g>
<!-- Node17&#45;&gt;Node2 -->
<g id="edge24_Node000017_Node000002" class="edge">
<title>Node17&#45;&gt;Node2</title>
<g id="a_edge24_Node000017_Node000002"><a xlink:title=" ">
<path fill="none" stroke="#63b8ff" d="M657.45,-272.01C633.42,-258.13 583.76,-231.27 538.12,-218 421.06,-183.97 383.54,-204.04 258.24,-181.68"/>
<polygon fill="#63b8ff" stroke="#63b8ff" points="259.01,-178.26 248.55,-179.89 257.74,-185.15 259.01,-178.26"/>
</a>
</g>
</g>
<!-- Node18 -->
<g id="Node000018" class="node">
<title>Node18</title>
<g id="a_Node000018"><a xlink:title=" ">
<polygon fill="#e0e0e0" stroke="#999999" points="774,-182 724.25,-182 724.25,-163.5 774,-163.5 774,-182"/>
<text text-anchor="middle" x="749.12" y="-168.5" font-family="Helvetica,sans-Serif" font-size="10.00">async.h</text>
</a>
</g>
</g>
<!-- Node17&#45;&gt;Node18 -->
<g id="edge25_Node000017_Node000018" class="edge">
<title>Node17&#45;&gt;Node18</title>
<g id="a_edge25_Node000017_Node000018"><a xlink:title=" ">
<path fill="none" stroke="#63b8ff" d="M688.41,-272.15C701.48,-264.45 719.37,-252.01 730.12,-236.5 739.07,-223.6 743.9,-206.39 746.44,-193.25"/>
<polygon fill="#63b8ff" stroke="#63b8ff" points="749.85,-194.11 748,-183.68 742.94,-192.98 749.85,-194.11"/>
</a>
</g>
</g>
<!-- Node19 -->
<g id="Node000019" class="node">
<title>Node19</title>
<g id="a_Node000019"><a xlink:href="a01430.html" target="_top" xlink:title=" ">
<polygon fill="white" stroke="#666666" points="721.38,-236.5 622.88,-236.5 622.88,-218 721.38,-218 721.38,-236.5"/>
<text text-anchor="middle" x="672.12" y="-223" font-family="Helvetica,sans-Serif" font-size="10.00">core/arax_vaccel.h</text>
</a>
</g>
</g>
<!-- Node17&#45;&gt;Node19 -->
<g id="edge26_Node000017_Node000019" class="edge">
<title>Node17&#45;&gt;Node19</title>
<g id="a_edge26_Node000017_Node000019"><a xlink:title=" ">
<path fill="none" stroke="#63b8ff" d="M666.96,-272.08C665.55,-265.58 665.08,-256.42 665.55,-248.16"/>
<polygon fill="#63b8ff" stroke="#63b8ff" points="669.02,-248.62 666.8,-238.26 662.08,-247.74 669.02,-248.62"/>
</a>
</g>
</g>
<!-- Node23 -->
<g id="Node000023" class="node">
<title>Node23</title>
<g id="a_Node000023"><a xlink:href="a01427.html" target="_top" xlink:title=" ">
<polygon fill="white" stroke="#666666" points="877.5,-236.5 776.75,-236.5 776.75,-218 877.5,-218 877.5,-236.5"/>
<text text-anchor="middle" x="827.12" y="-223" font-family="Helvetica,sans-Serif" font-size="10.00">core/arax_throttle.h</text>
</a>
</g>
</g>
<!-- Node17&#45;&gt;Node23 -->
<g id="edge36_Node000017_Node000023" class="edge">
<title>Node17&#45;&gt;Node23</title>
<g id="a_edge36_Node000017_Node000023"><a xlink:title=" ">
<path fill="none" stroke="#63b8ff" d="M697.72,-272.08C723.07,-263.49 762.14,-250.26 790.72,-240.58"/>
<polygon fill="#63b8ff" stroke="#63b8ff" points="791.71,-243.94 800.06,-237.42 789.46,-237.31 791.71,-243.94"/>
</a>
</g>
</g>
<!-- Node19&#45;&gt;Node16 -->
<g id="edge33_Node000019_Node000016" class="edge">
<title>Node19&#45;&gt;Node16</title>
<g id="a_edge33_Node000019_Node000016"><a xlink:title=" ">
<path fill="none" stroke="#63b8ff" d="M630.89,-217.52C586.96,-208.22 517.52,-193.52 471.4,-183.76"/>
<polygon fill="#63b8ff" stroke="#63b8ff" points="472.2,-180.35 461.69,-181.7 470.75,-187.2 472.2,-180.35"/>
</a>
</g>
</g>
<!-- Node19&#45;&gt;Node17 -->
<g id="edge34_Node000019_Node000017" class="edge">
<title>Node19&#45;&gt;Node17</title>
<g id="a_edge34_Node000019_Node000017"><a xlink:title=" ">
<path fill="none" stroke="#63b8ff" d="M677.26,-236.76C678.7,-243.29 679.18,-252.57 678.69,-260.93"/>
<polygon fill="#63b8ff" stroke="#63b8ff" points="675.25,-260.22 677.48,-270.58 682.2,-261.09 675.25,-260.22"/>
</a>
</g>
</g>
<!-- Node19&#45;&gt;Node18 -->
<g id="edge35_Node000019_Node000018" class="edge">
<title>Node19&#45;&gt;Node18</title>
<g id="a_edge35_Node000019_Node000018"><a xlink:title=" ">
<path fill="none" stroke="#63b8ff" d="M684.84,-217.58C696.32,-209.75 713.46,-198.07 727.16,-188.73"/>
<polygon fill="#63b8ff" stroke="#63b8ff" points="728.85,-191.81 735.14,-183.28 724.91,-186.03 728.85,-191.81"/>
</a>
</g>
</g>
<!-- Node20 -->
<g id="Node000020" class="node">
<title>Node20</title>
<g id="a_Node000020"><a xlink:href="a01415.html" target="_top" xlink:title=" ">
<polygon fill="white" stroke="#666666" points="642.25,-182 546,-182 546,-163.5 642.25,-163.5 642.25,-182"/>
<text text-anchor="middle" x="594.12" y="-168.5" font-family="Helvetica,sans-Serif" font-size="10.00">core/arax_object.h</text>
</a>
</g>
</g>
<!-- Node19&#45;&gt;Node20 -->
<g id="edge27_Node000019_Node000020" class="edge">
<title>Node19&#45;&gt;Node20</title>
<g id="a_edge27_Node000019_Node000020"><a xlink:title=" ">
<path fill="none" stroke="#63b8ff" d="M659.24,-217.58C647.62,-209.75 630.25,-198.07 616.38,-188.73"/>
<polygon fill="#63b8ff" stroke="#63b8ff" points="618.53,-185.96 608.28,-183.28 614.62,-191.76 618.53,-185.96"/>
</a>
</g>
</g>
<!-- Node20&#45;&gt;Node12 -->
<g id="edge31_Node000020_Node000012" class="edge">
<title>Node20&#45;&gt;Node12</title>
<g id="a_edge31_Node000020_Node000012"><a xlink:title=" ">
<path fill="none" stroke="#63b8ff" d="M571.67,-163.08C549.72,-154.61 516.05,-141.61 491.07,-131.97"/>
<polygon fill="#63b8ff" stroke="#63b8ff" points="492.62,-128.81 482.03,-128.48 490.1,-135.34 492.62,-128.81"/>
</a>
</g>
</g>
<!-- Node21 -->
<g id="Node000021" class="node">
<title>Node21</title>
<g id="a_Node000021"><a xlink:href="a01388.html" target="_top" xlink:title=" ">
<polygon fill="white" stroke="#666666" points="563.75,-127.5 506.5,-127.5 506.5,-109 563.75,-109 563.75,-127.5"/>
<text text-anchor="middle" x="535.12" y="-114" font-family="Helvetica,sans-Serif" font-size="10.00">utils/list.h</text>
</a>
</g>
</g>
<!-- Node20&#45;&gt;Node21 -->
<g id="edge28_Node000020_Node000021" class="edge">
<title>Node20&#45;&gt;Node21</title>
<g id="a_edge28_Node000020_Node000021"><a xlink:title=" ">
<path fill="none" stroke="#63b8ff" d="M584.38,-163.08C575.88,-155.51 563.32,-144.33 553.01,-135.16"/>
<polygon fill="#63b8ff" stroke="#63b8ff" points="555.61,-132.8 545.82,-128.76 550.96,-138.03 555.61,-132.8"/>
</a>
</g>
</g>
<!-- Node22 -->
<g id="Node000022" class="node">
<title>Node22</title>
<g id="a_Node000022"><a xlink:title=" ">
<polygon fill="#e0e0e0" stroke="#999999" points="686.25,-127.5 620,-127.5 620,-109 686.25,-109 686.25,-127.5"/>
<text text-anchor="middle" x="653.12" y="-114" font-family="Helvetica,sans-Serif" font-size="10.00">arch/alloc.h</text>
</a>
</g>
</g>
<!-- Node20&#45;&gt;Node22 -->
<g id="edge32_Node000020_Node000022" class="edge">
<title>Node20&#45;&gt;Node22</title>
<g id="a_edge32_Node000020_Node000022"><a xlink:title=" ">
<path fill="none" stroke="#63b8ff" d="M603.87,-163.08C612.37,-155.51 624.93,-144.33 635.24,-135.16"/>
<polygon fill="#63b8ff" stroke="#63b8ff" points="637.29,-138.03 642.43,-128.76 632.64,-132.8 637.29,-138.03"/>
</a>
</g>
</g>
<!-- Node21&#45;&gt;Node4 -->
<g id="edge29_Node000021_Node000004" class="edge">
<title>Node21&#45;&gt;Node4</title>
<g id="a_edge29_Node000021_Node000004"><a xlink:title=" ">
<path fill="none" stroke="#63b8ff" d="M506.2,-109.95C469.04,-100.57 404.49,-84.28 363.88,-74.03"/>
<polygon fill="#63b8ff" stroke="#63b8ff" points="364.88,-70.67 354.33,-71.62 363.16,-77.46 364.88,-70.67"/>
</a>
</g>
</g>
<!-- Node21&#45;&gt;Node13 -->
<g id="edge30_Node000021_Node000013" class="edge">
<title>Node21&#45;&gt;Node13</title>
<g id="a_edge30_Node000021_Node000013"><a xlink:title=" ">
<path fill="none" stroke="#63b8ff" d="M536.12,-108.58C536.86,-102.08 537.91,-92.92 538.85,-84.66"/>
<polygon fill="#63b8ff" stroke="#63b8ff" points="542.32,-85.09 539.98,-74.76 535.37,-84.3 542.32,-85.09"/>
</a>
</g>
</g>
<!-- Node23&#45;&gt;Node18 -->
<g id="edge37_Node000023_Node000018" class="edge">
<title>Node23&#45;&gt;Node18</title>
<g id="a_edge37_Node000023_Node000018"><a xlink:title=" ">
<path fill="none" stroke="#63b8ff" d="M814.24,-217.58C802.62,-209.75 785.25,-198.07 771.38,-188.73"/>
<polygon fill="#63b8ff" stroke="#63b8ff" points="773.53,-185.96 763.28,-183.28 769.62,-191.76 773.53,-185.96"/>
</a>
</g>
</g>
<!-- Node24&#45;&gt;Node18 -->
<g id="edge42_Node000024_Node000018" class="edge">
<title>Node24&#45;&gt;Node18</title>
<g id="a_edge42_Node000024_Node000018"><a xlink:title=" ">
<path fill="none" stroke="#63b8ff" d="M516.35,-272.13C536.71,-259.12 577.27,-234.27 614.12,-218 646.85,-203.56 685.82,-191.28 713.46,-183.35"/>
<polygon fill="#63b8ff" stroke="#63b8ff" points="714.06,-186.81 722.73,-180.73 712.16,-180.08 714.06,-186.81"/>
</a>
</g>
</g>
<!-- Node25 -->
<g id="Node000025" class="node">
<title>Node25</title>
<g id="a_Node000025"><a xlink:href="a01418.html" target="_top" xlink:title=" ">
<polygon fill="white" stroke="#666666" points="528.88,-236.5 439.38,-236.5 439.38,-218 528.88,-218 528.88,-236.5"/>
<text text-anchor="middle" x="484.12" y="-223" font-family="Helvetica,sans-Serif" font-size="10.00">core/arax_proc.h</text>
</a>
</g>
</g>
<!-- Node24&#45;&gt;Node25 -->
<g id="edge39_Node000024_Node000025" class="edge">
<title>Node24&#45;&gt;Node25</title>
<g id="a_edge39_Node000024_Node000025"><a xlink:title=" ">
<path fill="none" stroke="#63b8ff" d="M499.99,-272.08C497.58,-265.43 494.16,-255.99 491.12,-247.58"/>
<polygon fill="#63b8ff" stroke="#63b8ff" points="494.41,-246.39 487.72,-238.18 487.83,-248.78 494.41,-246.39"/>
</a>
</g>
</g>
<!-- Node25&#45;&gt;Node2 -->
<g id="edge40_Node000025_Node000002" class="edge">
<title>Node25&#45;&gt;Node2</title>
<g id="a_edge40_Node000025_Node000002"><a xlink:title=" ">
<path fill="none" stroke="#63b8ff" d="M438.96,-218.12C395.56,-210.14 327.88,-197.3 258.28,-181.9"/>
<polygon fill="#63b8ff" stroke="#63b8ff" points="259.1,-178.5 248.58,-179.74 257.58,-185.33 259.1,-178.5"/>
</a>
</g>
</g>
<!-- Node25&#45;&gt;Node20 -->
<g id="edge41_Node000025_Node000020" class="edge">
<title>Node25&#45;&gt;Node20</title>
<g id="a_edge41_Node000025_Node000020"><a xlink:title=" ">
<path fill="none" stroke="#63b8ff" d="M502.29,-217.58C519.49,-209.37 545.57,-196.92 565.56,-187.39"/>
<polygon fill="#63b8ff" stroke="#63b8ff" points="567.05,-190.55 574.57,-183.08 564.04,-184.23 567.05,-190.55"/>
</a>
</g>
</g>
<!-- Node26&#45;&gt;Node2 -->
<g id="edge44_Node000026_Node000002" class="edge">
<title>Node26&#45;&gt;Node2</title>
<g id="a_edge44_Node000026_Node000002"><a xlink:title=" ">
<path fill="none" stroke="#63b8ff" d="M442.91,-328.07C403.36,-319.33 341.13,-304.12 321.12,-291 281.67,-265.12 250.37,-217.94 235.17,-192.02"/>
<polygon fill="#63b8ff" stroke="#63b8ff" points="238.4,-190.61 230.42,-183.65 232.32,-194.07 238.4,-190.61"/>
</a>
</g>
</g>
<!-- Node26&#45;&gt;Node11 -->
<g id="edge47_Node000026_Node000011" class="edge">
<title>Node26&#45;&gt;Node11</title>
<g id="a_edge47_Node000026_Node000011"><a xlink:title=" ">
<path fill="none" stroke="#63b8ff" d="M470.9,-326.55C454.64,-303.6 409.99,-239.27 379.12,-182 371.49,-167.83 364.13,-151.18 358.87,-138.58"/>
<polygon fill="#63b8ff" stroke="#63b8ff" points="362.13,-137.3 355.11,-129.37 355.65,-139.95 362.13,-137.3"/>
</a>
</g>
</g>
<!-- Node26&#45;&gt;Node17 -->
<g id="edge48_Node000026_Node000017" class="edge">
<title>Node26&#45;&gt;Node17</title>
<g id="a_edge48_Node000026_Node000017"><a xlink:title=" ">
<path fill="none" stroke="#63b8ff" d="M509.33,-326.58C542.07,-317.77 593,-304.05 629.16,-294.32"/>
<polygon fill="#63b8ff" stroke="#63b8ff" points="629.67,-297.81 638.42,-291.83 627.85,-291.05 629.67,-297.81"/>
</a>
</g>
</g>
<!-- Node26&#45;&gt;Node18 -->
<g id="edge46_Node000026_Node000018" class="edge">
<title>Node26&#45;&gt;Node18</title>
<g id="a_edge46_Node000026_Node000018"><a xlink:title=" ">
<path fill="none" stroke="#63b8ff" d="M511.35,-328.42C514.31,-327.91 517.27,-327.43 520.12,-327 594.84,-315.87 791.79,-327.14 858.12,-291 891.39,-272.88 924.89,-248.28 902.12,-218 888.14,-199.39 826.36,-186.12 785.71,-179.21"/>
<polygon fill="#63b8ff" stroke="#63b8ff" points="786.28,-175.76 775.85,-177.6 785.15,-182.67 786.28,-175.76"/>
</a>
</g>
</g>
<!-- Node26&#45;&gt;Node20 -->
<g id="edge45_Node000026_Node000020" class="edge">
<title>Node26&#45;&gt;Node20</title>
<g id="a_edge45_Node000026_Node000020"><a xlink:title=" ">
<path fill="none" stroke="#63b8ff" d="M511.38,-328.62C514.34,-328.06 517.28,-327.52 520.12,-327 684.97,-296.92 788.86,-372.94 886.12,-236.5 890.9,-229.8 891.49,-224.23 886.12,-218 871.18,-200.62 734.61,-185.93 653.64,-178.65"/>
<polygon fill="#63b8ff" stroke="#63b8ff" points="654.38,-175.2 644.11,-177.81 653.77,-182.17 654.38,-175.2"/>
</a>
</g>
</g>
<!-- Node27&#45;&gt;Node2 -->
<g id="edge50_Node000027_Node000002" class="edge">
<title>Node27&#45;&gt;Node2</title>
<g id="a_edge50_Node000027_Node000002"><a xlink:title=" ">
<path fill="none" stroke="#63b8ff" d="M537.56,-326.51C514.45,-318.08 479.03,-304.63 449.12,-291 375.25,-257.32 291.19,-211.1 250.23,-188.04"/>
<polygon fill="#63b8ff" stroke="#63b8ff" points="252.06,-185.06 241.63,-183.19 248.62,-191.15 252.06,-185.06"/>
</a>
</g>
</g>
<!-- Node28 -->
<g id="Node000028" class="node">
<title>Node28</title>
<g id="a_Node000028"><a xlink:title=" ">
<polygon fill="#e0e0e0" stroke="#999999" points="1021.38,-291 970.88,-291 970.88,-272.5 1021.38,-272.5 1021.38,-291"/>
<text text-anchor="middle" x="996.12" y="-277.5" font-family="Helvetica,sans-Serif" font-size="10.00">unistd.h</text>
</a>
</g>
</g>
<!-- Node27&#45;&gt;Node28 -->
<g id="edge51_Node000027_Node000028" class="edge">
<title>Node27&#45;&gt;Node28</title>
<g id="a_edge51_Node000027_Node000028"><a xlink:title=" ">
<path fill="none" stroke="#63b8ff" d="M596,-328.32C598.75,-327.84 601.48,-327.39 604.12,-327 760.11,-303.78 801.31,-315.35 957.12,-291 957.95,-290.87 958.77,-290.74 959.61,-290.6"/>
<polygon fill="#63b8ff" stroke="#63b8ff" points="959.92,-294.1 969.12,-288.83 958.64,-287.22 959.92,-294.1"/>
</a>
</g>
</g>
</g>
</svg>
