<?xml version="1.0" encoding="UTF-8" standalone="no"?>
<!DOCTYPE svg PUBLIC "-//W3C//DTD SVG 1.1//EN"
 "http://www.w3.org/Graphics/SVG/1.1/DTD/svg11.dtd">
<!-- Generated by graphviz version 8.0.5 (0)
 -->
<!-- Title: _utils_config_get_str Pages: 1 -->
<svg width="1456pt" height="205pt"
 viewBox="0.00 0.00 1456.00 204.90" xmlns="http://www.w3.org/2000/svg" xmlns:xlink="http://www.w3.org/1999/xlink">
<g id="graph0" class="graph" transform="scale(1 1) rotate(0) translate(4 200.9)">
<title>_utils_config_get_str</title>
<!-- Node1 -->
<g id="Node000001" class="node">
<title>Node1</title>
<g id="a_Node000001"><a xlink:title=" ">
<polygon fill="#999999" stroke="#666666" points="1448,-102.5 1342,-102.5 1342,-84 1448,-84 1448,-102.5"/>
<text text-anchor="middle" x="1395" y="-89" font-family="Helvetica,sans-Serif" font-size="10.00">_utils_config_get_str</text>
</a>
</g>
</g>
<!-- Node2 -->
<g id="Node000002" class="node">
<title>Node2</title>
<g id="a_Node000002"><a xlink:href="a01952.html#a1a28ba7c7791236d03b1fa9f81aa6a71" target="_top" xlink:title=" ">
<polygon fill="white" stroke="#666666" points="1306,-130.5 1198.5,-130.5 1198.5,-112 1306,-112 1306,-130.5"/>
<text text-anchor="middle" x="1252.25" y="-117" font-family="Helvetica,sans-Serif" font-size="10.00">utils_config_get_long</text>
</a>
</g>
</g>
<!-- Node1&#45;&gt;Node2 -->
<g id="edge1_Node000001_Node000002" class="edge">
<title>Node1&#45;&gt;Node2</title>
<g id="a_edge1_Node000001_Node000002"><a xlink:title=" ">
<path fill="none" stroke="#63b8ff" d="M1334.49,-105.09C1323.66,-107.24 1312.47,-109.47 1302,-111.55"/>
<polygon fill="#63b8ff" stroke="#63b8ff" points="1335.04,-108.35 1344.17,-102.96 1333.68,-101.48 1335.04,-108.35"/>
</a>
</g>
</g>
<!-- Node16 -->
<g id="Node000016" class="node">
<title>Node16</title>
<g id="a_Node000016"><a xlink:href="a01952.html#a1e8deff7c038efae14d1cc98e4ab109f" target="_top" xlink:title=" ">
<polygon fill="white" stroke="#666666" points="877,-74.5 776.25,-74.5 776.25,-56 877,-56 877,-74.5"/>
<text text-anchor="middle" x="826.62" y="-61" font-family="Helvetica,sans-Serif" font-size="10.00">utils_config_get_str</text>
</a>
</g>
</g>
<!-- Node1&#45;&gt;Node16 -->
<g id="edge19_Node000001_Node000016" class="edge">
<title>Node1&#45;&gt;Node16</title>
<g id="a_edge19_Node000001_Node000016"><a xlink:title=" ">
<path fill="none" stroke="#63b8ff" d="M1330.79,-90.13C1217.1,-84.5 980.37,-72.8 877.33,-67.71"/>
<polygon fill="#63b8ff" stroke="#63b8ff" points="1330.57,-93.67 1340.73,-90.67 1330.92,-86.68 1330.57,-93.67"/>
</a>
</g>
</g>
<!-- Node3 -->
<g id="Node000003" class="node">
<title>Node3</title>
<g id="a_Node000003"><a xlink:href="a01952.html#a336fa8eefc3d744aa7248d6786cfee03" target="_top" xlink:title=" ">
<polygon fill="white" stroke="#666666" points="1162.5,-167.5 1062.5,-167.5 1062.5,-149 1162.5,-149 1162.5,-167.5"/>
<text text-anchor="middle" x="1112.5" y="-154" font-family="Helvetica,sans-Serif" font-size="10.00">utils_config_get_int</text>
</a>
</g>
</g>
<!-- Node2&#45;&gt;Node3 -->
<g id="edge2_Node000002_Node000003" class="edge">
<title>Node2&#45;&gt;Node3</title>
<g id="a_edge2_Node000002_Node000003"><a xlink:title=" ">
<path fill="none" stroke="#63b8ff" d="M1204.49,-133.81C1186.5,-138.64 1166.26,-144.08 1149.45,-148.59"/>
<polygon fill="#63b8ff" stroke="#63b8ff" points="1205.31,-136.95 1214.06,-130.97 1203.49,-130.19 1205.31,-136.95"/>
</a>
</g>
</g>
<!-- Node15 -->
<g id="Node000015" class="node">
<title>Node15</title>
<g id="a_Node000015"><a xlink:href="a01952.html#a4a525d89ade920512dc65409bc8e85d8" target="_top" xlink:title=" ">
<polygon fill="white" stroke="#666666" points="1026.12,-130.5 919.38,-130.5 919.38,-112 1026.12,-112 1026.12,-130.5"/>
<text text-anchor="middle" x="972.75" y="-117" font-family="Helvetica,sans-Serif" font-size="10.00">utils_config_get_size</text>
</a>
</g>
</g>
<!-- Node2&#45;&gt;Node15 -->
<g id="edge17_Node000002_Node000015" class="edge">
<title>Node2&#45;&gt;Node15</title>
<g id="a_edge17_Node000002_Node000015"><a xlink:title=" ">
<path fill="none" stroke="#63b8ff" d="M1187.31,-121.25C1138.49,-121.25 1072.02,-121.25 1026.28,-121.25"/>
<polygon fill="#63b8ff" stroke="#63b8ff" points="1187.07,-124.75 1197.07,-121.25 1187.07,-117.75 1187.07,-124.75"/>
</a>
</g>
</g>
<!-- Node4 -->
<g id="Node000004" class="node">
<title>Node4</title>
<g id="a_Node000004"><a xlink:href="a01952.html#aa7aa94ad075bf97a566f01f899fcd859" target="_top" xlink:title=" ">
<polygon fill="white" stroke="#666666" points="1026.5,-167.5 919,-167.5 919,-149 1026.5,-149 1026.5,-167.5"/>
<text text-anchor="middle" x="972.75" y="-154" font-family="Helvetica,sans-Serif" font-size="10.00">utils_config_get_bool</text>
</a>
</g>
</g>
<!-- Node3&#45;&gt;Node4 -->
<g id="edge3_Node000003_Node000004" class="edge">
<title>Node3&#45;&gt;Node4</title>
<g id="a_edge3_Node000003_Node000004"><a xlink:title=" ">
<path fill="none" stroke="#63b8ff" d="M1051.26,-158.25C1043.16,-158.25 1034.91,-158.25 1026.94,-158.25"/>
<polygon fill="#63b8ff" stroke="#63b8ff" points="1051.16,-161.75 1061.16,-158.25 1051.16,-154.75 1051.16,-161.75"/>
</a>
</g>
</g>
<!-- Node5 -->
<g id="Node000005" class="node">
<title>Node5</title>
<g id="a_Node000005"><a xlink:href="a01898.html#a02fd608f651d254148dc74f0ae371dfe" target="_top" xlink:title=" ">
<polygon fill="white" stroke="#666666" points="577.25,-130.5 518.5,-130.5 518.5,-112 577.25,-112 577.25,-130.5"/>
<text text-anchor="middle" x="547.88" y="-117" font-family="Helvetica,sans-Serif" font-size="10.00">_arax_init</text>
</a>
</g>
</g>
<!-- Node4&#45;&gt;Node5 -->
<g id="edge4_Node000004_Node000005" class="edge">
<title>Node4&#45;&gt;Node5</title>
<g id="a_edge4_Node000004_Node000005"><a xlink:title=" ">
<path fill="none" stroke="#63b8ff" d="M929.39,-170.82C860.61,-188.96 721.47,-216.18 613.25,-176.25 588.7,-167.19 567.17,-144.14 556.33,-130.93"/>
<polygon fill="#63b8ff" stroke="#63b8ff" points="930.07,-173.99 938.8,-167.99 928.24,-167.23 930.07,-173.99"/>
</a>
</g>
</g>
<!-- Node13 -->
<g id="Node000013" class="node">
<title>Node13</title>
<g id="a_Node000013"><a xlink:href="a02352.html#ab2e422aab2fcfa562795beb2843e8019" target="_top" xlink:title=" ">
<polygon fill="white" stroke="#666666" points="883,-167.5 770.25,-167.5 770.25,-149 883,-149 883,-167.5"/>
<text text-anchor="middle" x="826.62" y="-154" font-family="Helvetica,sans-Serif" font-size="10.00">async_meta_init_once</text>
</a>
</g>
</g>
<!-- Node4&#45;&gt;Node13 -->
<g id="edge14_Node000004_Node000013" class="edge">
<title>Node4&#45;&gt;Node13</title>
<g id="a_edge14_Node000004_Node000013"><a xlink:title=" ">
<path fill="none" stroke="#63b8ff" d="M908.17,-158.25C899.9,-158.25 891.49,-158.25 883.37,-158.25"/>
<polygon fill="#63b8ff" stroke="#63b8ff" points="907.9,-161.75 917.9,-158.25 907.9,-154.75 907.9,-161.75"/>
</a>
</g>
</g>
<!-- Node6 -->
<g id="Node000006" class="node">
<title>Node6</title>
<g id="a_Node000006"><a xlink:href="a01898.html#aa6e4832b06bd5757be4502d2de7b3026" target="_top" xlink:title=" ">
<polygon fill="white" stroke="#666666" points="482.5,-156.75 384,-156.75 384,-127.75 482.5,-127.75 482.5,-156.75"/>
<text text-anchor="start" x="392" y="-143.25" font-family="Helvetica,sans-Serif" font-size="10.00">arax_controller_init</text>
<text text-anchor="middle" x="433.25" y="-132.75" font-family="Helvetica,sans-Serif" font-size="10.00">_start</text>
</a>
</g>
</g>
<!-- Node5&#45;&gt;Node6 -->
<g id="edge5_Node000005_Node000006" class="edge">
<title>Node5&#45;&gt;Node6</title>
<g id="a_edge5_Node000005_Node000006"><a xlink:title=" ">
<path fill="none" stroke="#63b8ff" d="M507.56,-128.58C499.5,-130.08 490.93,-131.68 482.6,-133.23"/>
<polygon fill="#63b8ff" stroke="#63b8ff" points="507.97,-131.88 517.16,-126.6 506.69,-125 507.97,-131.88"/>
</a>
</g>
</g>
<!-- Node7 -->
<g id="Node000007" class="node">
<title>Node7</title>
<g id="a_Node000007"><a xlink:href="a02174.html#gae1d371a2840849690acce147e7a205da" target="_top" xlink:title=" ">
<polygon fill="white" stroke="#666666" points="460,-109.5 406.5,-109.5 406.5,-91 460,-91 460,-109.5"/>
<text text-anchor="middle" x="433.25" y="-96" font-family="Helvetica,sans-Serif" font-size="10.00">arax_init</text>
</a>
</g>
</g>
<!-- Node5&#45;&gt;Node7 -->
<g id="edge6_Node000005_Node000007" class="edge">
<title>Node5&#45;&gt;Node7</title>
<g id="a_edge6_Node000005_Node000007"><a xlink:title=" ">
<path fill="none" stroke="#63b8ff" d="M507.67,-113.94C491.96,-111.01 474.28,-107.71 460.21,-105.09"/>
<polygon fill="#63b8ff" stroke="#63b8ff" points="506.69,-117.5 517.16,-115.9 507.97,-110.62 506.69,-117.5"/>
</a>
</g>
</g>
<!-- Node8 -->
<g id="Node000008" class="node">
<title>Node8</title>
<g id="a_Node000008"><a xlink:href="a01940.html#a8a99bcb12e2ee55d68a029bfca9b6d51" target="_top" xlink:title=" ">
<polygon fill="white" stroke="#666666" points="235.25,-138.75 141.25,-138.75 141.25,-109.75 235.25,-109.75 235.25,-138.75"/>
<text text-anchor="start" x="149.25" y="-125.25" font-family="Helvetica,sans-Serif" font-size="10.00">arax_plot_register</text>
<text text-anchor="middle" x="188.25" y="-114.75" font-family="Helvetica,sans-Serif" font-size="10.00">_metric</text>
</a>
</g>
</g>
<!-- Node7&#45;&gt;Node8 -->
<g id="edge7_Node000007_Node000008" class="edge">
<title>Node7&#45;&gt;Node8</title>
<g id="a_edge7_Node000007_Node000008"><a xlink:title=" ">
<path fill="none" stroke="#63b8ff" d="M395.47,-103.88C352.62,-108.11 281.79,-115.11 235.32,-119.7"/>
<polygon fill="#63b8ff" stroke="#63b8ff" points="395.64,-107.28 405.24,-102.82 394.95,-100.32 395.64,-107.28"/>
</a>
</g>
</g>
<!-- Node9 -->
<g id="Node000009" class="node">
<title>Node9</title>
<g id="a_Node000009"><a xlink:href="a01919.html#a80ab3bf4a8af9bb101b5a53248609771" target="_top" xlink:title=" ">
<polygon fill="white" stroke="#666666" points="348,-91.5 271.25,-91.5 271.25,-73 348,-73 348,-91.5"/>
<text text-anchor="middle" x="309.62" y="-78" font-family="Helvetica,sans-Serif" font-size="10.00">arax_ptr_valid</text>
</a>
</g>
</g>
<!-- Node7&#45;&gt;Node9 -->
<g id="edge8_Node000007_Node000009" class="edge">
<title>Node7&#45;&gt;Node9</title>
<g id="a_edge8_Node000007_Node000009"><a xlink:title=" ">
<path fill="none" stroke="#63b8ff" d="M395.71,-94.84C380.7,-92.62 363.33,-90.05 348.21,-87.81"/>
<polygon fill="#63b8ff" stroke="#63b8ff" points="394.75,-98.39 405.16,-96.39 395.78,-91.46 394.75,-98.39"/>
</a>
</g>
</g>
<!-- Node9&#45;&gt;Node8 -->
<g id="edge13_Node000009_Node000008" class="edge">
<title>Node9&#45;&gt;Node8</title>
<g id="a_edge13_Node000009_Node000008"><a xlink:title=" ">
<path fill="none" stroke="#63b8ff" d="M270.89,-95.53C258.45,-99.9 244.53,-104.8 231.76,-109.29"/>
<polygon fill="#63b8ff" stroke="#63b8ff" points="271.67,-98.61 279.94,-91.99 269.34,-92.01 271.67,-98.61"/>
</a>
</g>
</g>
<!-- Node10 -->
<g id="Node000010" class="node">
<title>Node10</title>
<g id="a_Node000010"><a xlink:href="a01937.html#a4ee1fea325d2edd421f59ab240dfbe54" target="_top" xlink:title=" ">
<polygon fill="white" stroke="#666666" points="234.12,-91.5 142.38,-91.5 142.38,-73 234.12,-73 234.12,-91.5"/>
<text text-anchor="middle" x="188.25" y="-78" font-family="Helvetica,sans-Serif" font-size="10.00">_arax_assert_obj</text>
</a>
</g>
</g>
<!-- Node9&#45;&gt;Node10 -->
<g id="edge9_Node000009_Node000010" class="edge">
<title>Node9&#45;&gt;Node10</title>
<g id="a_edge9_Node000009_Node000010"><a xlink:title=" ">
<path fill="none" stroke="#63b8ff" d="M259.94,-82.25C251.46,-82.25 242.67,-82.25 234.3,-82.25"/>
<polygon fill="#63b8ff" stroke="#63b8ff" points="259.85,-85.75 269.85,-82.25 259.85,-78.75 259.85,-85.75"/>
</a>
</g>
</g>
<!-- Node11 -->
<g id="Node000011" class="node">
<title>Node11</title>
<g id="a_Node000011"><a xlink:href="a01931.html#afeaab7d93372f0752d59c70d9c5940e7" target="_top" xlink:title=" ">
<polygon fill="white" stroke="#666666" points="226.25,-54.5 150.25,-54.5 150.25,-36 226.25,-36 226.25,-54.5"/>
<text text-anchor="middle" x="188.25" y="-41" font-family="Helvetica,sans-Serif" font-size="10.00">arax_data_ref</text>
</a>
</g>
</g>
<!-- Node9&#45;&gt;Node11 -->
<g id="edge10_Node000009_Node000011" class="edge">
<title>Node9&#45;&gt;Node11</title>
<g id="a_edge10_Node000009_Node000011"><a xlink:title=" ">
<path fill="none" stroke="#63b8ff" d="M267,-69.35C251.69,-64.6 234.63,-59.32 220.4,-54.91"/>
<polygon fill="#63b8ff" stroke="#63b8ff" points="265.67,-72.91 276.26,-72.53 267.75,-66.22 265.67,-72.91"/>
</a>
</g>
</g>
<!-- Node12 -->
<g id="Node000012" class="node">
<title>Node12</title>
<g id="a_Node000012"><a xlink:href="a01931.html#ac1f7fb20b3a23b388bea24f1b46a33a8" target="_top" xlink:title=" ">
<polygon fill="white" stroke="#666666" points="105.25,-35.5 0,-35.5 0,-17 105.25,-17 105.25,-35.5"/>
<text text-anchor="middle" x="52.62" y="-22" font-family="Helvetica,sans-Serif" font-size="10.00">arax_data_ref_offset</text>
</a>
</g>
</g>
<!-- Node9&#45;&gt;Node12 -->
<g id="edge12_Node000009_Node000012" class="edge">
<title>Node9&#45;&gt;Node12</title>
<g id="a_edge12_Node000009_Node000012"><a xlink:title=" ">
<path fill="none" stroke="#63b8ff" d="M292.22,-64.99C278.45,-51.83 257.49,-34.73 235.25,-27.25 193.26,-13.13 142.65,-14.21 105.53,-18.05"/>
<polygon fill="#63b8ff" stroke="#63b8ff" points="289.27,-66.98 298.82,-71.56 294.21,-62.02 289.27,-66.98"/>
</a>
</g>
</g>
<!-- Node11&#45;&gt;Node12 -->
<g id="edge11_Node000011_Node000012" class="edge">
<title>Node11&#45;&gt;Node12</title>
<g id="a_edge11_Node000011_Node000012"><a xlink:title=" ">
<path fill="none" stroke="#63b8ff" d="M139.37,-38.44C128.43,-36.89 116.74,-35.22 105.63,-33.64"/>
<polygon fill="#63b8ff" stroke="#63b8ff" points="138.63,-42.01 149.03,-39.96 139.62,-35.08 138.63,-42.01"/>
</a>
</g>
</g>
<!-- Node14 -->
<g id="Node000014" class="node">
<title>Node14</title>
<g id="a_Node000014"><a xlink:href="a01913.html#aa6293e9ec7776aa49ecf632fcc4f5e26" target="_top" xlink:title=" ">
<polygon fill="white" stroke="#666666" points="712.12,-167.5 635.38,-167.5 635.38,-149 712.12,-149 712.12,-167.5"/>
<text text-anchor="middle" x="673.75" y="-154" font-family="Helvetica,sans-Serif" font-size="10.00">arax_pipe_init</text>
</a>
</g>
</g>
<!-- Node13&#45;&gt;Node14 -->
<g id="edge15_Node000013_Node000014" class="edge">
<title>Node13&#45;&gt;Node14</title>
<g id="a_edge15_Node000013_Node000014"><a xlink:title=" ">
<path fill="none" stroke="#63b8ff" d="M758.95,-158.25C743,-158.25 726.52,-158.25 712.42,-158.25"/>
<polygon fill="#63b8ff" stroke="#63b8ff" points="758.87,-161.75 768.87,-158.25 758.87,-154.75 758.87,-161.75"/>
</a>
</g>
</g>
<!-- Node14&#45;&gt;Node5 -->
<g id="edge16_Node000014_Node000005" class="edge">
<title>Node14&#45;&gt;Node5</title>
<g id="a_edge16_Node000014_Node000005"><a xlink:title=" ">
<path fill="none" stroke="#63b8ff" d="M629.76,-145.41C612.44,-140.23 592.93,-134.41 577.41,-129.77"/>
<polygon fill="#63b8ff" stroke="#63b8ff" points="628.62,-149.02 639.2,-148.53 630.62,-142.31 628.62,-149.02"/>
</a>
</g>
</g>
<!-- Node15&#45;&gt;Node5 -->
<g id="edge18_Node000015_Node000005" class="edge">
<title>Node15&#45;&gt;Node5</title>
<g id="a_edge18_Node000015_Node000005"><a xlink:title=" ">
<path fill="none" stroke="#63b8ff" d="M908.07,-121.25C814.85,-121.25 644.99,-121.25 577.57,-121.25"/>
<polygon fill="#63b8ff" stroke="#63b8ff" points="908.05,-124.75 918.05,-121.25 908.05,-117.75 908.05,-124.75"/>
</a>
</g>
</g>
<!-- Node16&#45;&gt;Node5 -->
<g id="edge20_Node000016_Node000005" class="edge">
<title>Node16&#45;&gt;Node5</title>
<g id="a_edge20_Node000016_Node000005"><a xlink:title=" ">
<path fill="none" stroke="#63b8ff" d="M765.06,-76.91C722.54,-85.18 664.37,-96.64 613.25,-107.25 601.6,-109.67 588.8,-112.43 577.69,-114.86"/>
<polygon fill="#63b8ff" stroke="#63b8ff" points="765.64,-80.17 774.79,-74.83 764.31,-73.3 765.64,-80.17"/>
</a>
</g>
</g>
<!-- Node17 -->
<g id="Node000017" class="node">
<title>Node17</title>
<g id="a_Node000017"><a xlink:href="a02174.html#ga4bae55e86ffc384b3c1d2da3580f5c42" target="_top" xlink:title=" ">
<polygon fill="white" stroke="#666666" points="705.75,-18.5 641.75,-18.5 641.75,0 705.75,0 705.75,-18.5"/>
<text text-anchor="middle" x="673.75" y="-5" font-family="Helvetica,sans-Serif" font-size="10.00">arax_clean</text>
</a>
</g>
</g>
<!-- Node16&#45;&gt;Node17 -->
<g id="edge21_Node000016_Node000017" class="edge">
<title>Node16&#45;&gt;Node17</title>
<g id="a_edge21_Node000016_Node000017"><a xlink:title=" ">
<path fill="none" stroke="#63b8ff" d="M793.6,-51.59C776.17,-44.33 754.16,-35.45 734.25,-28.25 725.17,-24.97 715.22,-21.67 706.09,-18.77"/>
<polygon fill="#63b8ff" stroke="#63b8ff" points="791.7,-55.01 802.28,-55.65 794.41,-48.55 791.7,-55.01"/>
</a>
</g>
</g>
<!-- Node19 -->
<g id="Node000019" class="node">
<title>Node19</title>
<g id="a_Node000019"><a xlink:href="a02352.html#adbaa29dfccfdfe6e3fe69a1d001c05b5" target="_top" xlink:title=" ">
<polygon fill="white" stroke="#666666" points="734.25,-55.5 613.25,-55.5 613.25,-37 734.25,-37 734.25,-55.5"/>
<text text-anchor="middle" x="673.75" y="-42" font-family="Helvetica,sans-Serif" font-size="10.00">async_meta_init_always</text>
</a>
</g>
</g>
<!-- Node16&#45;&gt;Node19 -->
<g id="edge23_Node000016_Node000019" class="edge">
<title>Node16&#45;&gt;Node19</title>
<g id="a_edge23_Node000016_Node000019"><a xlink:title=" ">
<path fill="none" stroke="#63b8ff" d="M765.06,-57.62C754.98,-56.35 744.54,-55.04 734.49,-53.77"/>
<polygon fill="#63b8ff" stroke="#63b8ff" points="764.45,-61.2 774.8,-58.98 765.32,-54.25 764.45,-61.2"/>
</a>
</g>
</g>
<!-- Node18 -->
<g id="Node000018" class="node">
<title>Node18</title>
<g id="a_Node000018"><a xlink:href="a02174.html#ga8ac7e88ed7b8a1e2ff8aa435ac6b58ec" target="_top" xlink:title=" ">
<polygon fill="white" stroke="#666666" points="576.12,-18.5 519.62,-18.5 519.62,0 576.12,0 576.12,-18.5"/>
<text text-anchor="middle" x="547.88" y="-5" font-family="Helvetica,sans-Serif" font-size="10.00">arax_exit</text>
</a>
</g>
</g>
<!-- Node17&#45;&gt;Node18 -->
<g id="edge22_Node000017_Node000018" class="edge">
<title>Node17&#45;&gt;Node18</title>
<g id="a_edge22_Node000017_Node000018"><a xlink:title=" ">
<path fill="none" stroke="#63b8ff" d="M630.7,-9.25C612.74,-9.25 592.29,-9.25 576.33,-9.25"/>
<polygon fill="#63b8ff" stroke="#63b8ff" points="630.49,-12.75 640.49,-9.25 630.49,-5.75 630.49,-12.75"/>
</a>
</g>
</g>
<!-- Node19&#45;&gt;Node5 -->
<g id="edge24_Node000019_Node000005" class="edge">
<title>Node19&#45;&gt;Node5</title>
<g id="a_edge24_Node000019_Node000005"><a xlink:title=" ">
<path fill="none" stroke="#63b8ff" d="M632.17,-59.98C625.68,-62.72 619.16,-65.83 613.25,-69.25 592.11,-81.47 570.66,-100.39 558.63,-111.73"/>
<polygon fill="#63b8ff" stroke="#63b8ff" points="633.26,-62.92 641.25,-55.96 630.67,-56.41 633.26,-62.92"/>
</a>
</g>
</g>
</g>
</svg>
