<?xml version="1.0" encoding="UTF-8" standalone="no"?>
<!DOCTYPE svg PUBLIC "-//W3C//DTD SVG 1.1//EN"
 "http://www.w3.org/Graphics/SVG/1.1/DTD/svg11.dtd">
<!-- Generated by graphviz version 8.0.5 (0)
 -->
<!-- Title: arax_data_free Pages: 1 -->
<svg width="843pt" height="101pt"
 viewBox="0.00 0.00 842.75 100.50" xmlns="http://www.w3.org/2000/svg" xmlns:xlink="http://www.w3.org/1999/xlink">
<g id="graph0" class="graph" transform="scale(1 1) rotate(0) translate(4 96.5)">
<title>arax_data_free</title>
<!-- Node1 -->
<g id="Node000001" class="node">
<title>Node1</title>
<g id="a_Node000001"><a xlink:title=" ">
<polygon fill="#999999" stroke="#666666" points="81.25,-36.5 0,-36.5 0,-18 81.25,-18 81.25,-36.5"/>
<text text-anchor="middle" x="40.62" y="-23" font-family="Helvetica,sans-Serif" font-size="10.00">arax_data_free</text>
</a>
</g>
</g>
<!-- Node2 -->
<g id="Node000002" class="node">
<title>Node2</title>
<g id="a_Node000002"><a xlink:href="a01910.html#afe7e4a63c40fbcaae742b8de8693483f" target="_top" xlink:title=" ">
<polygon fill="white" stroke="#666666" points="221.75,-36.5 117.25,-36.5 117.25,-18 221.75,-18 221.75,-36.5"/>
<text text-anchor="middle" x="169.5" y="-23" font-family="Helvetica,sans-Serif" font-size="10.00">arax_object_ref_dec</text>
</a>
</g>
</g>
<!-- Node1&#45;&gt;Node2 -->
<g id="edge1_Node000001_Node000002" class="edge">
<title>Node1&#45;&gt;Node2</title>
<g id="a_edge1_Node000001_Node000002"><a xlink:title=" ">
<path fill="none" stroke="#63b8ff" d="M81.42,-27.25C89.39,-27.25 97.94,-27.25 106.46,-27.25"/>
<polygon fill="#63b8ff" stroke="#63b8ff" points="106.19,-30.75 116.19,-27.25 106.19,-23.75 106.19,-30.75"/>
</a>
</g>
</g>
<!-- Node3 -->
<g id="Node000003" class="node">
<title>Node3</title>
<g id="a_Node000003"><a xlink:href="a01913.html#a5144f906658718ef853a8d18dda1e724" target="_top" xlink:title=" ">
<polygon fill="white" stroke="#666666" points="357,-55.5 257.75,-55.5 257.75,-37 357,-37 357,-55.5"/>
<text text-anchor="middle" x="307.38" y="-42" font-family="Helvetica,sans-Serif" font-size="10.00">arax_pipe_size_inc</text>
</a>
</g>
</g>
<!-- Node2&#45;&gt;Node3 -->
<g id="edge2_Node000002_Node000003" class="edge">
<title>Node2&#45;&gt;Node3</title>
<g id="a_edge2_Node000002_Node000003"><a xlink:title=" ">
<path fill="none" stroke="#63b8ff" d="M221.87,-34.43C230.02,-35.57 238.51,-36.76 246.83,-37.92"/>
<polygon fill="#63b8ff" stroke="#63b8ff" points="246.24,-41.51 256.63,-39.43 247.21,-34.58 246.24,-41.51"/>
</a>
</g>
</g>
<!-- Node11 -->
<g id="Node000011" class="node">
<title>Node11</title>
<g id="a_Node000011"><a xlink:href="a01946.html#a0c85e5516222ab7e7fc354c614760ec5" target="_top" xlink:title=" ">
<polygon fill="white" stroke="#666666" points="342.38,-18.5 272.38,-18.5 272.38,0 342.38,0 342.38,-18.5"/>
<text text-anchor="middle" x="307.38" y="-5" font-family="Helvetica,sans-Serif" font-size="10.00">utils_list_del</text>
</a>
</g>
</g>
<!-- Node2&#45;&gt;Node11 -->
<g id="edge10_Node000002_Node000011" class="edge">
<title>Node2&#45;&gt;Node11</title>
<g id="a_edge10_Node000002_Node000011"><a xlink:title=" ">
<path fill="none" stroke="#63b8ff" d="M221.87,-20.44C234.89,-18.72 248.77,-16.88 261.45,-15.2"/>
<polygon fill="#63b8ff" stroke="#63b8ff" points="261.77,-18.56 271.22,-13.77 260.85,-11.62 261.77,-18.56"/>
</a>
</g>
</g>
<!-- Node4 -->
<g id="Node000004" class="node">
<title>Node4</title>
<g id="a_Node000004"><a xlink:href="a01925.html#a22aaf13eb56eb1832e725ef73236116f" target="_top" xlink:title=" ">
<polygon fill="white" stroke="#666666" points="504.25,-55.5 393,-55.5 393,-37 504.25,-37 504.25,-55.5"/>
<text text-anchor="middle" x="448.62" y="-42" font-family="Helvetica,sans-Serif" font-size="10.00">arax_throttle_size_inc</text>
</a>
</g>
</g>
<!-- Node3&#45;&gt;Node4 -->
<g id="edge3_Node000003_Node000004" class="edge">
<title>Node3&#45;&gt;Node4</title>
<g id="a_edge3_Node000003_Node000004"><a xlink:title=" ">
<path fill="none" stroke="#63b8ff" d="M357.47,-46.25C365.42,-46.25 373.76,-46.25 382.02,-46.25"/>
<polygon fill="#63b8ff" stroke="#63b8ff" points="381.81,-49.75 391.81,-46.25 381.81,-42.75 381.81,-49.75"/>
</a>
</g>
</g>
<!-- Node5 -->
<g id="Node000005" class="node">
<title>Node5</title>
<g id="a_Node000005"><a xlink:href="a02352.html#aed6af4d83e934e3e654ead541b15f2d9" target="_top" xlink:title=" ">
<polygon fill="white" stroke="#666666" points="654.5,-92.5 545.5,-92.5 545.5,-74 654.5,-74 654.5,-92.5"/>
<text text-anchor="middle" x="600" y="-79" font-family="Helvetica,sans-Serif" font-size="10.00">async_condition_lock</text>
</a>
</g>
</g>
<!-- Node4&#45;&gt;Node5 -->
<g id="edge4_Node000004_Node000005" class="edge">
<title>Node4&#45;&gt;Node5</title>
<g id="a_edge4_Node000004_Node000005"><a xlink:title=" ">
<path fill="none" stroke="#63b8ff" d="M488.87,-55.97C507.32,-60.54 529.53,-66.04 549.16,-70.9"/>
<polygon fill="#63b8ff" stroke="#63b8ff" points="548.21,-74.52 558.76,-73.53 549.89,-67.73 548.21,-74.52"/>
</a>
</g>
</g>
<!-- Node7 -->
<g id="Node000007" class="node">
<title>Node7</title>
<g id="a_Node000007"><a xlink:href="a02352.html#a45a896fb606c2aa66a5a4c2af59ce494" target="_top" xlink:title=" ">
<polygon fill="white" stroke="#666666" points="657.5,-55.5 542.5,-55.5 542.5,-37 657.5,-37 657.5,-55.5"/>
<text text-anchor="middle" x="600" y="-42" font-family="Helvetica,sans-Serif" font-size="10.00">async_condition_notify</text>
</a>
</g>
</g>
<!-- Node4&#45;&gt;Node7 -->
<g id="edge6_Node000004_Node000007" class="edge">
<title>Node4&#45;&gt;Node7</title>
<g id="a_edge6_Node000004_Node000007"><a xlink:title=" ">
<path fill="none" stroke="#63b8ff" d="M504.4,-46.25C513.16,-46.25 522.31,-46.25 531.33,-46.25"/>
<polygon fill="#63b8ff" stroke="#63b8ff" points="531.23,-49.75 541.23,-46.25 531.23,-42.75 531.23,-49.75"/>
</a>
</g>
</g>
<!-- Node9 -->
<g id="Node000009" class="node">
<title>Node9</title>
<g id="a_Node000009"><a xlink:href="a02352.html#a3bbcb7c4c024e99d5c4ba52b61dfbbf7" target="_top" xlink:title=" ">
<polygon fill="white" stroke="#666666" points="659.75,-18.5 540.25,-18.5 540.25,0 659.75,0 659.75,-18.5"/>
<text text-anchor="middle" x="600" y="-5" font-family="Helvetica,sans-Serif" font-size="10.00">async_condition_unlock</text>
</a>
</g>
</g>
<!-- Node4&#45;&gt;Node9 -->
<g id="edge8_Node000004_Node000009" class="edge">
<title>Node4&#45;&gt;Node9</title>
<g id="a_edge8_Node000004_Node000009"><a xlink:title=" ">
<path fill="none" stroke="#63b8ff" d="M488.87,-36.53C507.32,-31.96 529.53,-26.46 549.16,-21.6"/>
<polygon fill="#63b8ff" stroke="#63b8ff" points="549.89,-24.77 558.76,-18.97 548.21,-17.98 549.89,-24.77"/>
</a>
</g>
</g>
<!-- Node6 -->
<g id="Node000006" class="node">
<title>Node6</title>
<g id="a_Node000006"><a xlink:href="a02346.html#aebf9e72bb6cbd8b9e33489d46c25075d" target="_top" xlink:title=" ">
<polygon fill="white" stroke="#666666" points="823.5,-92.5 707,-92.5 707,-74 823.5,-74 823.5,-92.5"/>
<text text-anchor="middle" x="765.25" y="-79" font-family="Helvetica,sans-Serif" font-size="10.00">async_completion_wait</text>
</a>
</g>
</g>
<!-- Node5&#45;&gt;Node6 -->
<g id="edge5_Node000005_Node000006" class="edge">
<title>Node5&#45;&gt;Node6</title>
<g id="a_edge5_Node000005_Node000006"><a xlink:title=" ">
<path fill="none" stroke="#63b8ff" d="M654.91,-83.25C668.02,-83.25 682.23,-83.25 695.91,-83.25"/>
<polygon fill="#63b8ff" stroke="#63b8ff" points="695.75,-86.75 705.75,-83.25 695.75,-79.75 695.75,-86.75"/>
</a>
</g>
</g>
<!-- Node8 -->
<g id="Node000008" class="node">
<title>Node8</title>
<g id="a_Node000008"><a xlink:href="a02346.html#a0fa370eee5160963e617d1daf1c07363" target="_top" xlink:title=" ">
<polygon fill="white" stroke="#666666" points="821.62,-55.5 708.88,-55.5 708.88,-37 821.62,-37 821.62,-55.5"/>
<text text-anchor="middle" x="765.25" y="-42" font-family="Helvetica,sans-Serif" font-size="10.00">async_semaphore_inc</text>
</a>
</g>
</g>
<!-- Node7&#45;&gt;Node8 -->
<g id="edge7_Node000007_Node000008" class="edge">
<title>Node7&#45;&gt;Node8</title>
<g id="a_edge7_Node000007_Node000008"><a xlink:title=" ">
<path fill="none" stroke="#63b8ff" d="M657.64,-46.25C670.52,-46.25 684.31,-46.25 697.57,-46.25"/>
<polygon fill="#63b8ff" stroke="#63b8ff" points="697.54,-49.75 707.54,-46.25 697.54,-42.75 697.54,-49.75"/>
</a>
</g>
</g>
<!-- Node10 -->
<g id="Node000010" class="node">
<title>Node10</title>
<g id="a_Node000010"><a xlink:href="a02346.html#ad1d30ecbf6bff6457b680aa940281072" target="_top" xlink:title=" ">
<polygon fill="white" stroke="#666666" points="834.75,-18.5 695.75,-18.5 695.75,0 834.75,0 834.75,-18.5"/>
<text text-anchor="middle" x="765.25" y="-5" font-family="Helvetica,sans-Serif" font-size="10.00">async_completion_complete</text>
</a>
</g>
</g>
<!-- Node9&#45;&gt;Node10 -->
<g id="edge9_Node000009_Node000010" class="edge">
<title>Node9&#45;&gt;Node10</title>
<g id="a_edge9_Node000009_Node000010"><a xlink:title=" ">
<path fill="none" stroke="#63b8ff" d="M659.94,-9.25C667.94,-9.25 676.26,-9.25 684.55,-9.25"/>
<polygon fill="#63b8ff" stroke="#63b8ff" points="684.4,-12.75 694.4,-9.25 684.4,-5.75 684.4,-12.75"/>
</a>
</g>
</g>
</g>
</svg>
