<?xml version="1.0" encoding="UTF-8" standalone="no"?>
<!DOCTYPE svg PUBLIC "-//W3C//DTD SVG 1.1//EN"
 "http://www.w3.org/Graphics/SVG/1.1/DTD/svg11.dtd">
<!-- Generated by graphviz version 12.2.1 (0)
 -->
<!-- Title: arax_accel_size_inc Pages: 1 -->
<svg width="590pt" height="101pt"
 viewBox="0.00 0.00 590.25 100.50" xmlns="http://www.w3.org/2000/svg" xmlns:xlink="http://www.w3.org/1999/xlink">
<g id="graph0" class="graph" transform="scale(1 1) rotate(0) translate(4 96.5)">
<title>arax_accel_size_inc</title>
<!-- Node1 -->
<g id="Node000001" class="node">
<title>Node1</title>
<g id="a_Node000001"><a xlink:title=" ">
<polygon fill="#999999" stroke="#666666" points="104.5,-55.5 0,-55.5 0,-37 104.5,-37 104.5,-55.5"/>
<text text-anchor="middle" x="52.25" y="-42" font-family="Helvetica,sans-Serif" font-size="10.00">arax_accel_size_inc</text>
</a>
</g>
</g>
<!-- Node1&#45;&gt;Node1 -->
<g id="edge1_Node000001_Node000001" class="edge">
<title>Node1&#45;&gt;Node1</title>
<g id="a_edge1_Node000001_Node000001"><a xlink:title=" ">
<path fill="none" stroke="#63b8ff" d="M30.07,-55.75C19.29,-64.32 26.68,-73.5 52.25,-73.5 66.63,-73.5 75.27,-70.59 78.15,-66.53"/>
<polygon fill="#63b8ff" stroke="#63b8ff" points="81.49,-65.49 74.92,-57.18 74.87,-67.77 81.49,-65.49"/>
</a>
</g>
</g>
<!-- Node2 -->
<g id="Node000002" class="node">
<title>Node2</title>
<g id="a_Node000002"><a xlink:href="a01940.html#a7d3a67fa4eeb00cc9508a7ffe451a02f" target="_top" xlink:title=" ">
<polygon fill="white" stroke="#666666" points="251.75,-55.5 140.5,-55.5 140.5,-37 251.75,-37 251.75,-55.5"/>
<text text-anchor="middle" x="196.12" y="-42" font-family="Helvetica,sans-Serif" font-size="10.00">arax_throttle_size_inc</text>
</a>
</g>
</g>
<!-- Node1&#45;&gt;Node2 -->
<g id="edge2_Node000001_Node000002" class="edge">
<title>Node1&#45;&gt;Node2</title>
<g id="a_edge2_Node000001_Node000002"><a xlink:title=" ">
<path fill="none" stroke="#63b8ff" d="M104.87,-46.25C112.73,-46.25 120.94,-46.25 129.06,-46.25"/>
<polygon fill="#63b8ff" stroke="#63b8ff" points="128.92,-49.75 138.92,-46.25 128.92,-42.75 128.92,-49.75"/>
</a>
</g>
</g>
<!-- Node2&#45;&gt;Node2 -->
<g id="edge3_Node000002_Node000002" class="edge">
<title>Node2&#45;&gt;Node2</title>
<g id="a_edge3_Node000002_Node000002"><a xlink:title=" ">
<path fill="none" stroke="#63b8ff" d="M173.95,-55.75C163.16,-64.32 170.55,-73.5 196.12,-73.5 210.51,-73.5 219.14,-70.59 222.02,-66.53"/>
<polygon fill="#63b8ff" stroke="#63b8ff" points="225.36,-65.49 218.79,-57.18 218.75,-67.77 225.36,-65.49"/>
</a>
</g>
</g>
<!-- Node3 -->
<g id="Node000003" class="node">
<title>Node3</title>
<g id="a_Node000003"><a xlink:href="a02364.html#aed6af4d83e934e3e654ead541b15f2d9" target="_top" xlink:title=" ">
<polygon fill="white" stroke="#666666" points="402,-92.5 293,-92.5 293,-74 402,-74 402,-92.5"/>
<text text-anchor="middle" x="347.5" y="-79" font-family="Helvetica,sans-Serif" font-size="10.00">async_condition_lock</text>
</a>
</g>
</g>
<!-- Node2&#45;&gt;Node3 -->
<g id="edge4_Node000002_Node000003" class="edge">
<title>Node2&#45;&gt;Node3</title>
<g id="a_edge4_Node000002_Node000003"><a xlink:title=" ">
<path fill="none" stroke="#63b8ff" d="M236.37,-55.97C254.65,-60.5 276.62,-65.94 296.11,-70.77"/>
<polygon fill="#63b8ff" stroke="#63b8ff" points="295.24,-74.16 305.79,-73.17 296.92,-67.36 295.24,-74.16"/>
</a>
</g>
</g>
<!-- Node5 -->
<g id="Node000005" class="node">
<title>Node5</title>
<g id="a_Node000005"><a xlink:href="a02364.html#a45a896fb606c2aa66a5a4c2af59ce494" target="_top" xlink:title=" ">
<polygon fill="white" stroke="#666666" points="405,-55.5 290,-55.5 290,-37 405,-37 405,-55.5"/>
<text text-anchor="middle" x="347.5" y="-42" font-family="Helvetica,sans-Serif" font-size="10.00">async_condition_notify</text>
</a>
</g>
</g>
<!-- Node2&#45;&gt;Node5 -->
<g id="edge6_Node000002_Node000005" class="edge">
<title>Node2&#45;&gt;Node5</title>
<g id="a_edge6_Node000002_Node000005"><a xlink:title=" ">
<path fill="none" stroke="#63b8ff" d="M251.9,-46.25C260.47,-46.25 269.41,-46.25 278.24,-46.25"/>
<polygon fill="#63b8ff" stroke="#63b8ff" points="278.21,-49.75 288.21,-46.25 278.21,-42.75 278.21,-49.75"/>
</a>
</g>
</g>
<!-- Node7 -->
<g id="Node000007" class="node">
<title>Node7</title>
<g id="a_Node000007"><a xlink:href="a02364.html#a3bbcb7c4c024e99d5c4ba52b61dfbbf7" target="_top" xlink:title=" ">
<polygon fill="white" stroke="#666666" points="407.25,-18.5 287.75,-18.5 287.75,0 407.25,0 407.25,-18.5"/>
<text text-anchor="middle" x="347.5" y="-5" font-family="Helvetica,sans-Serif" font-size="10.00">async_condition_unlock</text>
</a>
</g>
</g>
<!-- Node2&#45;&gt;Node7 -->
<g id="edge8_Node000002_Node000007" class="edge">
<title>Node2&#45;&gt;Node7</title>
<g id="a_edge8_Node000002_Node000007"><a xlink:title=" ">
<path fill="none" stroke="#63b8ff" d="M236.37,-36.53C254.65,-32 276.62,-26.56 296.11,-21.73"/>
<polygon fill="#63b8ff" stroke="#63b8ff" points="296.92,-25.14 305.79,-19.33 295.24,-18.34 296.92,-25.14"/>
</a>
</g>
</g>
<!-- Node4 -->
<g id="Node000004" class="node">
<title>Node4</title>
<g id="a_Node000004"><a xlink:href="a02358.html#aebf9e72bb6cbd8b9e33489d46c25075d" target="_top" xlink:title=" ">
<polygon fill="white" stroke="#666666" points="571,-92.5 454.5,-92.5 454.5,-74 571,-74 571,-92.5"/>
<text text-anchor="middle" x="512.75" y="-79" font-family="Helvetica,sans-Serif" font-size="10.00">async_completion_wait</text>
</a>
</g>
</g>
<!-- Node3&#45;&gt;Node4 -->
<g id="edge5_Node000003_Node000004" class="edge">
<title>Node3&#45;&gt;Node4</title>
<g id="a_edge5_Node000003_Node000004"><a xlink:title=" ">
<path fill="none" stroke="#63b8ff" d="M402.41,-83.25C415.39,-83.25 429.44,-83.25 443.01,-83.25"/>
<polygon fill="#63b8ff" stroke="#63b8ff" points="442.74,-86.75 452.74,-83.25 442.74,-79.75 442.74,-86.75"/>
</a>
</g>
</g>
<!-- Node6 -->
<g id="Node000006" class="node">
<title>Node6</title>
<g id="a_Node000006"><a xlink:href="a02358.html#a0fa370eee5160963e617d1daf1c07363" target="_top" xlink:title=" ">
<polygon fill="white" stroke="#666666" points="569.12,-55.5 456.38,-55.5 456.38,-37 569.12,-37 569.12,-55.5"/>
<text text-anchor="middle" x="512.75" y="-42" font-family="Helvetica,sans-Serif" font-size="10.00">async_semaphore_inc</text>
</a>
</g>
</g>
<!-- Node5&#45;&gt;Node6 -->
<g id="edge7_Node000005_Node000006" class="edge">
<title>Node5&#45;&gt;Node6</title>
<g id="a_edge7_Node000005_Node000006"><a xlink:title=" ">
<path fill="none" stroke="#63b8ff" d="M405.14,-46.25C417.89,-46.25 431.54,-46.25 444.67,-46.25"/>
<polygon fill="#63b8ff" stroke="#63b8ff" points="444.53,-49.75 454.53,-46.25 444.52,-42.75 444.53,-49.75"/>
</a>
</g>
</g>
<!-- Node8 -->
<g id="Node000008" class="node">
<title>Node8</title>
<g id="a_Node000008"><a xlink:href="a02358.html#ad1d30ecbf6bff6457b680aa940281072" target="_top" xlink:title=" ">
<polygon fill="white" stroke="#666666" points="582.25,-18.5 443.25,-18.5 443.25,0 582.25,0 582.25,-18.5"/>
<text text-anchor="middle" x="512.75" y="-5" font-family="Helvetica,sans-Serif" font-size="10.00">async_completion_complete</text>
</a>
</g>
</g>
<!-- Node7&#45;&gt;Node8 -->
<g id="edge9_Node000007_Node000008" class="edge">
<title>Node7&#45;&gt;Node8</title>
<g id="a_edge9_Node000007_Node000008"><a xlink:title=" ">
<path fill="none" stroke="#63b8ff" d="M407.44,-9.25C415.26,-9.25 423.38,-9.25 431.49,-9.25"/>
<polygon fill="#63b8ff" stroke="#63b8ff" points="431.39,-12.75 441.39,-9.25 431.39,-5.75 431.39,-12.75"/>
</a>
</g>
</g>
</g>
</svg>
