<?xml version="1.0" encoding="UTF-8" standalone="no"?>
<!DOCTYPE svg PUBLIC "-//W3C//DTD SVG 1.1//EN"
 "http://www.w3.org/Graphics/SVG/1.1/DTD/svg11.dtd">
<!-- Generated by graphviz version 12.2.1 (0)
 -->
<!-- Title: arax_accel_size_dec Pages: 1 -->
<svg width="250pt" height="50pt"
 viewBox="0.00 0.00 250.00 49.75" xmlns="http://www.w3.org/2000/svg" xmlns:xlink="http://www.w3.org/1999/xlink">
<g id="graph0" class="graph" transform="scale(1 1) rotate(0) translate(4 45.75)">
<title>arax_accel_size_dec</title>
<!-- Node1 -->
<g id="Node000001" class="node">
<title>Node1</title>
<g id="a_Node000001"><a xlink:title=" ">
<polygon fill="#999999" stroke="#666666" points="242,-23.75 134.5,-23.75 134.5,-5.25 242,-5.25 242,-23.75"/>
<text text-anchor="middle" x="188.25" y="-10.25" font-family="Helvetica,sans-Serif" font-size="10.00">arax_accel_size_dec</text>
</a>
</g>
</g>
<!-- Node1&#45;&gt;Node1 -->
<g id="edge1_Node000001_Node000001" class="edge">
<title>Node1&#45;&gt;Node1</title>
<g id="a_edge1_Node000001_Node000001"><a xlink:title=" ">
<path fill="none" stroke="#63b8ff" d="M213.27,-34.78C210.49,-38.84 202.15,-41.75 188.25,-41.75 163.54,-41.75 156.4,-32.57 166.83,-24"/>
<polygon fill="#63b8ff" stroke="#63b8ff" points="216.64,-33.81 210.15,-25.43 209.99,-36.03 216.64,-33.81"/>
</a>
</g>
</g>
<!-- Node2 -->
<g id="Node000002" class="node">
<title>Node2</title>
<g id="a_Node000002"><a xlink:href="a01922.html#af8ede6fc8d207004035f45d945688d2c" target="_top" xlink:title=" ">
<polygon fill="white" stroke="#666666" points="98.5,-29 0,-29 0,0 98.5,0 98.5,-29"/>
<text text-anchor="start" x="8" y="-15.5" font-family="Helvetica,sans-Serif" font-size="10.00">arax_data_allocate</text>
<text text-anchor="middle" x="49.25" y="-5" font-family="Helvetica,sans-Serif" font-size="10.00">_remote</text>
</a>
</g>
</g>
<!-- Node1&#45;&gt;Node2 -->
<g id="edge2_Node000001_Node000002" class="edge">
<title>Node1&#45;&gt;Node2</title>
<g id="a_edge2_Node000001_Node000002"><a xlink:title=" ">
<path fill="none" stroke="#63b8ff" d="M122.85,-14.5C114.69,-14.5 106.45,-14.5 98.6,-14.5"/>
<polygon fill="#63b8ff" stroke="#63b8ff" points="122.77,-18 132.77,-14.5 122.77,-11 122.77,-18"/>
</a>
</g>
</g>
</g>
</svg>
