<?xml version="1.0" encoding="UTF-8" standalone="no"?>
<!DOCTYPE svg PUBLIC "-//W3C//DTD SVG 1.1//EN"
 "http://www.w3.org/Graphics/SVG/1.1/DTD/svg11.dtd">
<!-- Generated by graphviz version 12.2.1 (0)
 -->
<!-- Title: arax_object_list_lock Pages: 1 -->
<svg width="711pt" height="211pt"
 viewBox="0.00 0.00 710.50 210.50" xmlns="http://www.w3.org/2000/svg" xmlns:xlink="http://www.w3.org/1999/xlink">
<g id="graph0" class="graph" transform="scale(1 1) rotate(0) translate(4 206.5)">
<title>arax_object_list_lock</title>
<!-- Node1 -->
<g id="Node000001" class="node">
<title>Node1</title>
<g id="a_Node000001"><a xlink:title=" ">
<polygon fill="#999999" stroke="#666666" points="702.5,-128.5 594.25,-128.5 594.25,-110 702.5,-110 702.5,-128.5"/>
<text text-anchor="middle" x="648.38" y="-115" font-family="Helvetica,sans-Serif" font-size="10.00">arax_object_list_lock</text>
</a>
</g>
</g>
<!-- Node2 -->
<g id="Node000002" class="node">
<title>Node2</title>
<g id="a_Node000002"><a xlink:href="a02187.html#ga7f1598b99463c5ef533a457f225b4c0b" target="_top" xlink:title=" ">
<polygon fill="white" stroke="#666666" points="539.88,-202.5 457.88,-202.5 457.88,-184 539.88,-184 539.88,-202.5"/>
<text text-anchor="middle" x="498.88" y="-189" font-family="Helvetica,sans-Serif" font-size="10.00">arax_accel_list</text>
</a>
</g>
</g>
<!-- Node1&#45;&gt;Node2 -->
<g id="edge1_Node000001_Node000002" class="edge">
<title>Node1&#45;&gt;Node2</title>
<g id="a_edge1_Node000001_Node000002"><a xlink:title=" ">
<path fill="none" stroke="#63b8ff" d="M624.69,-135.36C607.16,-147.27 581.97,-163.26 558.25,-174.25 550.71,-177.74 542.34,-180.87 534.35,-183.53"/>
<polygon fill="#63b8ff" stroke="#63b8ff" points="626.57,-138.31 632.81,-129.74 622.59,-132.55 626.57,-138.31"/>
</a>
</g>
</g>
<!-- Node3 -->
<g id="Node000003" class="node">
<title>Node3</title>
<g id="a_Node000003"><a xlink:href="a01922.html#ac1f7fb20b3a23b388bea24f1b46a33a8" target="_top" xlink:title=" ">
<polygon fill="white" stroke="#666666" points="551.5,-165.5 446.25,-165.5 446.25,-147 551.5,-147 551.5,-165.5"/>
<text text-anchor="middle" x="498.88" y="-152" font-family="Helvetica,sans-Serif" font-size="10.00">arax_data_ref_offset</text>
</a>
</g>
</g>
<!-- Node1&#45;&gt;Node3 -->
<g id="edge2_Node000001_Node000003" class="edge">
<title>Node1&#45;&gt;Node3</title>
<g id="a_edge2_Node000001_Node000003"><a xlink:title=" ">
<path fill="none" stroke="#63b8ff" d="M597.62,-131.73C578.37,-136.56 556.68,-142 538.63,-146.53"/>
<polygon fill="#63b8ff" stroke="#63b8ff" points="598.31,-135.17 607.15,-129.34 596.6,-128.38 598.31,-135.17"/>
</a>
</g>
</g>
<!-- Node4 -->
<g id="Node000004" class="node">
<title>Node4</title>
<g id="a_Node000004"><a xlink:href="a01928.html#aa0862a60d187bfed0cfa11bf27174551" target="_top" xlink:title=" ">
<polygon fill="white" stroke="#666666" points="558.25,-128.5 439.5,-128.5 439.5,-110 558.25,-110 558.25,-128.5"/>
<text text-anchor="middle" x="498.88" y="-115" font-family="Helvetica,sans-Serif" font-size="10.00">arax_pipe_delete_accel</text>
</a>
</g>
</g>
<!-- Node1&#45;&gt;Node4 -->
<g id="edge3_Node000001_Node000004" class="edge">
<title>Node1&#45;&gt;Node4</title>
<g id="a_edge3_Node000001_Node000004"><a xlink:title=" ">
<path fill="none" stroke="#63b8ff" d="M582.84,-119.25C574.76,-119.25 566.53,-119.25 558.54,-119.25"/>
<polygon fill="#63b8ff" stroke="#63b8ff" points="582.61,-122.75 592.61,-119.25 582.61,-115.75 582.61,-122.75"/>
</a>
</g>
</g>
<!-- Node5 -->
<g id="Node000005" class="node">
<title>Node5</title>
<g id="a_Node000005"><a xlink:href="a01928.html#ac2e1e32dc603394aecede365f454c8c4" target="_top" xlink:title=" ">
<polygon fill="white" stroke="#666666" points="553,-91.5 444.75,-91.5 444.75,-73 553,-73 553,-91.5"/>
<text text-anchor="middle" x="498.88" y="-78" font-family="Helvetica,sans-Serif" font-size="10.00">arax_pipe_find_accel</text>
</a>
</g>
</g>
<!-- Node1&#45;&gt;Node5 -->
<g id="edge4_Node000001_Node000005" class="edge">
<title>Node1&#45;&gt;Node5</title>
<g id="a_edge4_Node000001_Node000005"><a xlink:title=" ">
<path fill="none" stroke="#63b8ff" d="M597.62,-106.77C578.37,-101.94 556.68,-96.5 538.63,-91.97"/>
<polygon fill="#63b8ff" stroke="#63b8ff" points="596.6,-110.12 607.15,-109.16 598.31,-103.33 596.6,-110.12"/>
</a>
</g>
</g>
<!-- Node6 -->
<g id="Node000006" class="node">
<title>Node6</title>
<g id="a_Node000006"><a xlink:href="a01928.html#a4c22ae41507232dc3efc725428cbfc7b" target="_top" xlink:title=" ">
<polygon fill="white" stroke="#666666" points="550.75,-54.5 447,-54.5 447,-36 550.75,-36 550.75,-54.5"/>
<text text-anchor="middle" x="498.88" y="-41" font-family="Helvetica,sans-Serif" font-size="10.00">arax_pipe_find_proc</text>
</a>
</g>
</g>
<!-- Node1&#45;&gt;Node6 -->
<g id="edge5_Node000001_Node000006" class="edge">
<title>Node1&#45;&gt;Node6</title>
<g id="a_edge5_Node000001_Node000006"><a xlink:title=" ">
<path fill="none" stroke="#63b8ff" d="M624.69,-103.14C607.16,-91.23 581.97,-75.24 558.25,-64.25 550.71,-60.76 542.34,-57.63 534.35,-54.97"/>
<polygon fill="#63b8ff" stroke="#63b8ff" points="622.59,-105.95 632.81,-108.76 626.57,-100.19 622.59,-105.95"/>
</a>
</g>
</g>
<!-- Node7 -->
<g id="Node000007" class="node">
<title>Node7</title>
<g id="a_Node000007"><a xlink:href="a02188.html#ga739047efb2b454e6c1ac54138ef2985d" target="_top" xlink:title=" ">
<polygon fill="white" stroke="#666666" points="394.12,-73.5 315.88,-73.5 315.88,-55 394.12,-55 394.12,-73.5"/>
<text text-anchor="middle" x="355" y="-60" font-family="Helvetica,sans-Serif" font-size="10.00">arax_proc_get</text>
</a>
</g>
</g>
<!-- Node6&#45;&gt;Node7 -->
<g id="edge6_Node000006_Node000007" class="edge">
<title>Node6&#45;&gt;Node7</title>
<g id="a_edge6_Node000006_Node000007"><a xlink:title=" ">
<path fill="none" stroke="#63b8ff" d="M435.52,-53.6C421.46,-55.48 406.95,-57.43 394.23,-59.13"/>
<polygon fill="#63b8ff" stroke="#63b8ff" points="435.71,-57.11 445.15,-52.31 434.78,-50.17 435.71,-57.11"/>
</a>
</g>
</g>
<!-- Node13 -->
<g id="Node000013" class="node">
<title>Node13</title>
<g id="a_Node000013"><a xlink:href="a02188.html#gafad2dafb4a231390f02b7c866295b7d9" target="_top" xlink:title=" ">
<polygon fill="white" stroke="#666666" points="403.5,-36.5 306.5,-36.5 306.5,-18 403.5,-18 403.5,-36.5"/>
<text text-anchor="middle" x="355" y="-23" font-family="Helvetica,sans-Serif" font-size="10.00">arax_proc_register</text>
</a>
</g>
</g>
<!-- Node6&#45;&gt;Node13 -->
<g id="edge13_Node000006_Node000013" class="edge">
<title>Node6&#45;&gt;Node13</title>
<g id="a_edge13_Node000006_Node000013"><a xlink:title=" ">
<path fill="none" stroke="#63b8ff" d="M435.33,-37.32C424.77,-35.97 413.95,-34.6 403.83,-33.32"/>
<polygon fill="#63b8ff" stroke="#63b8ff" points="434.79,-40.77 445.15,-38.56 435.67,-33.83 434.79,-40.77"/>
</a>
</g>
</g>
<!-- Node8 -->
<g id="Node000008" class="node">
<title>Node8</title>
<g id="a_Node000008"><a xlink:href="a01922.html#af8ede6fc8d207004035f45d945688d2c" target="_top" xlink:title=" ">
<polygon fill="white" stroke="#666666" points="253.62,-139.75 155.12,-139.75 155.12,-110.75 253.62,-110.75 253.62,-139.75"/>
<text text-anchor="start" x="163.12" y="-126.25" font-family="Helvetica,sans-Serif" font-size="10.00">arax_data_allocate</text>
<text text-anchor="middle" x="204.38" y="-115.75" font-family="Helvetica,sans-Serif" font-size="10.00">_remote</text>
</a>
</g>
</g>
<!-- Node7&#45;&gt;Node8 -->
<g id="edge7_Node000007_Node000008" class="edge">
<title>Node7&#45;&gt;Node8</title>
<g id="a_edge7_Node000007_Node000008"><a xlink:title=" ">
<path fill="none" stroke="#63b8ff" d="M323.05,-78.53C307.4,-85.61 288.05,-94.14 270.5,-101.25 263.02,-104.28 254.99,-107.37 247.22,-110.28"/>
<polygon fill="#63b8ff" stroke="#63b8ff" points="324.2,-81.85 331.85,-74.53 321.3,-75.48 324.2,-81.85"/>
</a>
</g>
</g>
<!-- Node9 -->
<g id="Node000009" class="node">
<title>Node9</title>
<g id="a_Node000009"><a xlink:href="a01922.html#a696bc4319d0f6c6baa7d797a8df6b56f" target="_top" xlink:title=" ">
<polygon fill="white" stroke="#666666" points="243.5,-92.5 165.25,-92.5 165.25,-74 243.5,-74 243.5,-92.5"/>
<text text-anchor="middle" x="204.38" y="-79" font-family="Helvetica,sans-Serif" font-size="10.00">arax_data_get</text>
</a>
</g>
</g>
<!-- Node7&#45;&gt;Node9 -->
<g id="edge8_Node000007_Node000009" class="edge">
<title>Node7&#45;&gt;Node9</title>
<g id="a_edge8_Node000007_Node000009"><a xlink:title=" ">
<path fill="none" stroke="#63b8ff" d="M304.44,-70.59C284.68,-73.11 262.27,-75.98 243.78,-78.34"/>
<polygon fill="#63b8ff" stroke="#63b8ff" points="304.75,-74.07 314.22,-69.33 303.86,-67.13 304.75,-74.07"/>
</a>
</g>
</g>
<!-- Node11 -->
<g id="Node000011" class="node">
<title>Node11</title>
<g id="a_Node000011"><a xlink:href="a01922.html#a8995f71dba475975efc37756783cfce9" target="_top" xlink:title=" ">
<polygon fill="white" stroke="#666666" points="243.5,-55.5 165.25,-55.5 165.25,-37 243.5,-37 243.5,-55.5"/>
<text text-anchor="middle" x="204.38" y="-42" font-family="Helvetica,sans-Serif" font-size="10.00">arax_data_set</text>
</a>
</g>
</g>
<!-- Node7&#45;&gt;Node11 -->
<g id="edge10_Node000007_Node000011" class="edge">
<title>Node7&#45;&gt;Node11</title>
<g id="a_edge10_Node000007_Node000011"><a xlink:title=" ">
<path fill="none" stroke="#63b8ff" d="M304.44,-58.25C284.68,-55.85 262.27,-53.14 243.78,-50.9"/>
<polygon fill="#63b8ff" stroke="#63b8ff" points="303.87,-61.7 314.22,-59.43 304.72,-54.76 303.87,-61.7"/>
</a>
</g>
</g>
<!-- Node12 -->
<g id="Node000012" class="node">
<title>Node12</title>
<g id="a_Node000012"><a xlink:href="a01922.html#af735744d0f8bec04394639a841d2ba0f" target="_top" xlink:title=" ">
<polygon fill="white" stroke="#666666" points="270.5,-18.5 138.25,-18.5 138.25,0 270.5,0 270.5,-18.5"/>
<text text-anchor="middle" x="204.38" y="-5" font-family="Helvetica,sans-Serif" font-size="10.00">ARAX_OBJ_DTOR_DECL</text>
</a>
</g>
</g>
<!-- Node7&#45;&gt;Node12 -->
<g id="edge12_Node000007_Node000012" class="edge">
<title>Node7&#45;&gt;Node12</title>
<g id="a_edge12_Node000007_Node000012"><a xlink:title=" ">
<path fill="none" stroke="#63b8ff" d="M318.58,-50.36C314.49,-48.67 310.39,-46.95 306.5,-45.25 290.28,-38.18 287.04,-34.52 270.5,-28.25 261.47,-24.83 251.54,-21.64 242.22,-18.9"/>
<polygon fill="#63b8ff" stroke="#63b8ff" points="317.24,-53.59 327.83,-54.1 319.87,-47.1 317.24,-53.59"/>
</a>
</g>
</g>
<!-- Node10 -->
<g id="Node000010" class="node">
<title>Node10</title>
<g id="a_Node000010"><a xlink:href="a01922.html#a7d8356bd5c8b6a8d7dffc6ba94cc22e5" target="_top" xlink:title=" ">
<polygon fill="white" stroke="#666666" points="102.25,-73.5 0,-73.5 0,-55 102.25,-55 102.25,-73.5"/>
<text text-anchor="middle" x="51.12" y="-60" font-family="Helvetica,sans-Serif" font-size="10.00">arax_data_memcpy</text>
</a>
</g>
</g>
<!-- Node9&#45;&gt;Node10 -->
<g id="edge9_Node000009_Node000010" class="edge">
<title>Node9&#45;&gt;Node10</title>
<g id="a_edge9_Node000009_Node000010"><a xlink:title=" ">
<path fill="none" stroke="#63b8ff" d="M153.79,-77.02C137.38,-74.96 119.1,-72.66 102.61,-70.59"/>
<polygon fill="#63b8ff" stroke="#63b8ff" points="152.96,-80.44 163.32,-78.22 153.83,-73.5 152.96,-80.44"/>
</a>
</g>
</g>
<!-- Node11&#45;&gt;Node10 -->
<g id="edge11_Node000011_Node000010" class="edge">
<title>Node11&#45;&gt;Node10</title>
<g id="a_edge11_Node000011_Node000010"><a xlink:title=" ">
<path fill="none" stroke="#63b8ff" d="M153.79,-52.15C137.38,-54.1 119.1,-56.28 102.61,-58.24"/>
<polygon fill="#63b8ff" stroke="#63b8ff" points="153.8,-55.67 163.31,-51.02 152.97,-48.72 153.8,-55.67"/>
</a>
</g>
</g>
</g>
</svg>
