<?xml version="1.0" encoding="UTF-8" standalone="no"?>
<!DOCTYPE svg PUBLIC "-//W3C//DTD SVG 1.1//EN"
 "http://www.w3.org/Graphics/SVG/1.1/DTD/svg11.dtd">
<!-- Generated by graphviz version 12.2.1 (0)
 -->
<!-- Title: arax_task_host_data Pages: 1 -->
<svg width="546pt" height="185pt"
 viewBox="0.00 0.00 546.00 184.50" xmlns="http://www.w3.org/2000/svg" xmlns:xlink="http://www.w3.org/1999/xlink">
<g id="graph0" class="graph" transform="scale(1 1) rotate(0) translate(4 180.5)">
<title>arax_task_host_data</title>
<!-- Node1 -->
<g id="Node000001" class="node">
<title>Node1</title>
<g id="a_Node000001"><a xlink:title=" ">
<polygon fill="#999999" stroke="#666666" points="538,-131.5 430.5,-131.5 430.5,-113 538,-113 538,-131.5"/>
<text text-anchor="middle" x="484.25" y="-118" font-family="Helvetica,sans-Serif" font-size="10.00">arax_task_host_data</text>
</a>
</g>
</g>
<!-- Node2 -->
<g id="Node000002" class="node">
<title>Node2</title>
<g id="a_Node000002"><a xlink:href="a01922.html#a696bc4319d0f6c6baa7d797a8df6b56f" target="_top" xlink:title=" ">
<polygon fill="white" stroke="#666666" points="243.5,-176.5 165.25,-176.5 165.25,-158 243.5,-158 243.5,-176.5"/>
<text text-anchor="middle" x="204.38" y="-163" font-family="Helvetica,sans-Serif" font-size="10.00">arax_data_get</text>
</a>
</g>
</g>
<!-- Node1&#45;&gt;Node2 -->
<g id="edge1_Node000001_Node000002" class="edge">
<title>Node1&#45;&gt;Node2</title>
<g id="a_edge1_Node000001_Node000002"><a xlink:title=" ">
<path fill="none" stroke="#63b8ff" d="M418.78,-132.69C364.55,-141.47 288.85,-153.73 243.71,-161.04"/>
<polygon fill="#63b8ff" stroke="#63b8ff" points="419.2,-136.17 428.51,-131.12 418.08,-129.26 419.2,-136.17"/>
</a>
</g>
</g>
<!-- Node4 -->
<g id="Node000004" class="node">
<title>Node4</title>
<g id="a_Node000004"><a xlink:href="a02189.html#gac9f0f3fbb14da879d3ff09bd367bbb24" target="_top" xlink:title=" ">
<polygon fill="white" stroke="#666666" points="394.5,-113.5 306.5,-113.5 306.5,-95 394.5,-95 394.5,-113.5"/>
<text text-anchor="middle" x="350.5" y="-100" font-family="Helvetica,sans-Serif" font-size="10.00">arax_task_issue</text>
</a>
</g>
</g>
<!-- Node1&#45;&gt;Node4 -->
<g id="edge3_Node000001_Node000004" class="edge">
<title>Node1&#45;&gt;Node4</title>
<g id="a_edge3_Node000001_Node000004"><a xlink:title=" ">
<path fill="none" stroke="#63b8ff" d="M418.67,-113.43C410.57,-112.32 402.45,-111.21 394.8,-110.17"/>
<polygon fill="#63b8ff" stroke="#63b8ff" points="418.16,-116.89 428.54,-114.78 419.11,-109.95 418.16,-116.89"/>
</a>
</g>
</g>
<!-- Node3 -->
<g id="Node000003" class="node">
<title>Node3</title>
<g id="a_Node000003"><a xlink:href="a01922.html#a7d8356bd5c8b6a8d7dffc6ba94cc22e5" target="_top" xlink:title=" ">
<polygon fill="white" stroke="#666666" points="102.25,-134.5 0,-134.5 0,-116 102.25,-116 102.25,-134.5"/>
<text text-anchor="middle" x="51.12" y="-121" font-family="Helvetica,sans-Serif" font-size="10.00">arax_data_memcpy</text>
</a>
</g>
</g>
<!-- Node2&#45;&gt;Node3 -->
<g id="edge2_Node000002_Node000003" class="edge">
<title>Node2&#45;&gt;Node3</title>
<g id="a_edge2_Node000002_Node000003"><a xlink:title=" ">
<path fill="none" stroke="#63b8ff" d="M157.51,-154.59C151.04,-152.8 144.48,-150.98 138.25,-149.25 121.35,-144.56 102.59,-139.33 86.9,-134.96"/>
<polygon fill="#63b8ff" stroke="#63b8ff" points="156.19,-157.85 166.76,-157.14 158.06,-151.11 156.19,-157.85"/>
</a>
</g>
</g>
<!-- Node4&#45;&gt;Node2 -->
<g id="edge5_Node000004_Node000002" class="edge">
<title>Node4&#45;&gt;Node2</title>
<g id="a_edge5_Node000004_Node000002"><a xlink:title=" ">
<path fill="none" stroke="#63b8ff" d="M325.55,-119.98C310.28,-129.47 289.8,-141.23 270.5,-149.25 262.05,-152.76 252.7,-155.8 243.79,-158.34"/>
<polygon fill="#63b8ff" stroke="#63b8ff" points="327.36,-122.97 333.93,-114.65 323.61,-117.06 327.36,-122.97"/>
</a>
</g>
</g>
<!-- Node5 -->
<g id="Node000005" class="node">
<title>Node5</title>
<g id="a_Node000005"><a xlink:href="a01922.html#af8ede6fc8d207004035f45d945688d2c" target="_top" xlink:title=" ">
<polygon fill="white" stroke="#666666" points="253.62,-139.75 155.12,-139.75 155.12,-110.75 253.62,-110.75 253.62,-139.75"/>
<text text-anchor="start" x="163.12" y="-126.25" font-family="Helvetica,sans-Serif" font-size="10.00">arax_data_allocate</text>
<text text-anchor="middle" x="204.38" y="-115.75" font-family="Helvetica,sans-Serif" font-size="10.00">_remote</text>
</a>
</g>
</g>
<!-- Node4&#45;&gt;Node5 -->
<g id="edge4_Node000004_Node000005" class="edge">
<title>Node4&#45;&gt;Node5</title>
<g id="a_edge4_Node000004_Node000005"><a xlink:title=" ">
<path fill="none" stroke="#63b8ff" d="M295.13,-112.17C281.58,-114.15 267.13,-116.25 253.89,-118.18"/>
<polygon fill="#63b8ff" stroke="#63b8ff" points="295.37,-115.67 304.76,-110.77 294.36,-108.75 295.37,-115.67"/>
</a>
</g>
</g>
<!-- Node6 -->
<g id="Node000006" class="node">
<title>Node6</title>
<g id="a_Node000006"><a xlink:href="a01922.html#a8995f71dba475975efc37756783cfce9" target="_top" xlink:title=" ">
<polygon fill="white" stroke="#666666" points="243.5,-92.5 165.25,-92.5 165.25,-74 243.5,-74 243.5,-92.5"/>
<text text-anchor="middle" x="204.38" y="-79" font-family="Helvetica,sans-Serif" font-size="10.00">arax_data_set</text>
</a>
</g>
</g>
<!-- Node4&#45;&gt;Node6 -->
<g id="edge6_Node000004_Node000006" class="edge">
<title>Node4&#45;&gt;Node6</title>
<g id="a_edge6_Node000004_Node000006"><a xlink:title=" ">
<path fill="none" stroke="#63b8ff" d="M295.23,-96.34C278.08,-93.84 259.49,-91.13 243.69,-88.83"/>
<polygon fill="#63b8ff" stroke="#63b8ff" points="294.36,-99.75 304.76,-97.73 295.37,-92.83 294.36,-99.75"/>
</a>
</g>
</g>
<!-- Node7 -->
<g id="Node000007" class="node">
<title>Node7</title>
<g id="a_Node000007"><a xlink:href="a01922.html#af735744d0f8bec04394639a841d2ba0f" target="_top" xlink:title=" ">
<polygon fill="white" stroke="#666666" points="270.5,-55.5 138.25,-55.5 138.25,-37 270.5,-37 270.5,-55.5"/>
<text text-anchor="middle" x="204.38" y="-42" font-family="Helvetica,sans-Serif" font-size="10.00">ARAX_OBJ_DTOR_DECL</text>
</a>
</g>
</g>
<!-- Node4&#45;&gt;Node7 -->
<g id="edge8_Node000004_Node000007" class="edge">
<title>Node4&#45;&gt;Node7</title>
<g id="a_edge8_Node000004_Node000007"><a xlink:title=" ">
<path fill="none" stroke="#63b8ff" d="M321.93,-89.16C306.99,-81.36 288.05,-72.08 270.5,-65.25 261.72,-61.83 252.07,-58.69 242.94,-56"/>
<polygon fill="#63b8ff" stroke="#63b8ff" points="320.21,-92.21 330.68,-93.8 323.49,-86.02 320.21,-92.21"/>
</a>
</g>
</g>
<!-- Node8 -->
<g id="Node000008" class="node">
<title>Node8</title>
<g id="a_Node000008"><a xlink:href="a02189.html#ga1418f4cd7336bf77cce7b955a1bf7077" target="_top" xlink:title=" ">
<polygon fill="white" stroke="#666666" points="261.12,-18.5 147.62,-18.5 147.62,0 261.12,0 261.12,-18.5"/>
<text text-anchor="middle" x="204.38" y="-5" font-family="Helvetica,sans-Serif" font-size="10.00">arax_task_issue_sync</text>
</a>
</g>
</g>
<!-- Node4&#45;&gt;Node8 -->
<g id="edge9_Node000004_Node000008" class="edge">
<title>Node4&#45;&gt;Node8</title>
<g id="a_edge9_Node000004_Node000008"><a xlink:title=" ">
<path fill="none" stroke="#63b8ff" d="M335.01,-85.92C320.45,-68.67 296.48,-43.3 270.5,-28.25 263.98,-24.47 256.65,-21.4 249.32,-18.91"/>
<polygon fill="#63b8ff" stroke="#63b8ff" points="332.08,-87.87 341.13,-93.38 337.5,-83.43 332.08,-87.87"/>
</a>
</g>
</g>
<!-- Node6&#45;&gt;Node3 -->
<g id="edge7_Node000006_Node000003" class="edge">
<title>Node6&#45;&gt;Node3</title>
<g id="a_edge7_Node000006_Node000003"><a xlink:title=" ">
<path fill="none" stroke="#63b8ff" d="M157.25,-96.06C134.65,-102.33 107.88,-109.77 87.01,-115.56"/>
<polygon fill="#63b8ff" stroke="#63b8ff" points="158.14,-99.44 166.84,-93.4 156.26,-92.7 158.14,-99.44"/>
</a>
</g>
</g>
</g>
</svg>
