<?xml version="1.0" encoding="UTF-8" standalone="no"?>
<!DOCTYPE svg PUBLIC "-//W3C//DTD SVG 1.1//EN"
 "http://www.w3.org/Graphics/SVG/1.1/DTD/svg11.dtd">
<!-- Generated by graphviz version 8.0.5 (0)
 -->
<!-- Title: arax_pipe_exit Pages: 1 -->
<svg width="340pt" height="156pt"
 viewBox="0.00 0.00 339.50 155.50" xmlns="http://www.w3.org/2000/svg" xmlns:xlink="http://www.w3.org/1999/xlink">
<g id="graph0" class="graph" transform="scale(1 1) rotate(0) translate(4 151.5)">
<title>arax_pipe_exit</title>
<!-- Node1 -->
<g id="Node000001" class="node">
<title>Node1</title>
<g id="a_Node000001"><a xlink:title=" ">
<polygon fill="#999999" stroke="#666666" points="79.75,-91.5 0,-91.5 0,-73 79.75,-73 79.75,-91.5"/>
<text text-anchor="middle" x="39.88" y="-78" font-family="Helvetica,sans-Serif" font-size="10.00">arax_pipe_exit</text>
</a>
</g>
</g>
<!-- Node2 -->
<g id="Node000002" class="node">
<title>Node2</title>
<g id="a_Node000002"><a xlink:href="a01910.html#a305682d9ee7b1c993dbf64d4f3de2d9f" target="_top" xlink:title=" ">
<polygon fill="white" stroke="#666666" points="230,-147.5 118,-147.5 118,-129 230,-129 230,-147.5"/>
<text text-anchor="middle" x="174" y="-134" font-family="Helvetica,sans-Serif" font-size="10.00">arax_object_repo_exit</text>
</a>
</g>
</g>
<!-- Node1&#45;&gt;Node2 -->
<g id="edge1_Node000001_Node000002" class="edge">
<title>Node1&#45;&gt;Node2</title>
<g id="a_edge1_Node000001_Node000002"><a xlink:title=" ">
<path fill="none" stroke="#63b8ff" d="M58.71,-91.94C73.68,-99.85 95.77,-111.04 115.75,-119.25 120.58,-121.23 125.7,-123.17 130.82,-124.99"/>
<polygon fill="#63b8ff" stroke="#63b8ff" points="129.62,-128.63 140.22,-128.57 131.9,-122.01 129.62,-128.63"/>
</a>
</g>
</g>
<!-- Node3 -->
<g id="Node000003" class="node">
<title>Node3</title>
<g id="a_Node000003"><a xlink:href="a01913.html#aedd2ffbe2275e3b8c2fc97a003ee7380" target="_top" xlink:title=" ">
<polygon fill="white" stroke="#666666" points="232.25,-110.5 115.75,-110.5 115.75,-92 232.25,-92 232.25,-110.5"/>
<text text-anchor="middle" x="174" y="-97" font-family="Helvetica,sans-Serif" font-size="10.00">arax_pipe_del_process</text>
</a>
</g>
</g>
<!-- Node1&#45;&gt;Node3 -->
<g id="edge2_Node000001_Node000003" class="edge">
<title>Node1&#45;&gt;Node3</title>
<g id="a_edge2_Node000001_Node000003"><a xlink:title=" ">
<path fill="none" stroke="#63b8ff" d="M80.16,-87.9C87.97,-89.02 96.38,-90.23 104.83,-91.45"/>
<polygon fill="#63b8ff" stroke="#63b8ff" points="104.13,-95.03 114.53,-92.99 105.13,-88.1 104.13,-95.03"/>
</a>
</g>
</g>
<!-- Node4 -->
<g id="Node000004" class="node">
<title>Node4</title>
<g id="a_Node000004"><a xlink:href="a02343.html#a726fb6388e92c5d82c9d5750fee1a7fb" target="_top" xlink:title=" ">
<polygon fill="white" stroke="#666666" points="214.62,-73.5 133.38,-73.5 133.38,-55 214.62,-55 214.62,-73.5"/>
<text text-anchor="middle" x="174" y="-60" font-family="Helvetica,sans-Serif" font-size="10.00">arch_alloc_exit</text>
</a>
</g>
</g>
<!-- Node1&#45;&gt;Node4 -->
<g id="edge3_Node000001_Node000004" class="edge">
<title>Node1&#45;&gt;Node4</title>
<g id="a_edge3_Node000001_Node000004"><a xlink:title=" ">
<path fill="none" stroke="#63b8ff" d="M80.16,-76.9C93.49,-75.08 108.58,-73.03 122.66,-71.11"/>
<polygon fill="#63b8ff" stroke="#63b8ff" points="122.75,-74.49 132.18,-69.67 121.8,-67.56 122.75,-74.49"/>
</a>
</g>
</g>
<!-- Node5 -->
<g id="Node000005" class="node">
<title>Node5</title>
<g id="a_Node000005"><a xlink:href="a02352.html#afe9571a12debd9d75a0f8fb93420e268" target="_top" xlink:title=" ">
<polygon fill="white" stroke="#666666" points="218.75,-36.5 129.25,-36.5 129.25,-18 218.75,-18 218.75,-36.5"/>
<text text-anchor="middle" x="174" y="-23" font-family="Helvetica,sans-Serif" font-size="10.00">async_meta_exit</text>
</a>
</g>
</g>
<!-- Node1&#45;&gt;Node5 -->
<g id="edge4_Node000001_Node000005" class="edge">
<title>Node1&#45;&gt;Node5</title>
<g id="a_edge4_Node000001_Node000005"><a xlink:title=" ">
<path fill="none" stroke="#63b8ff" d="M59.35,-72.55C74.32,-64.89 96.09,-54.2 115.75,-46.25 120.59,-44.29 125.72,-42.38 130.84,-40.56"/>
<polygon fill="#63b8ff" stroke="#63b8ff" points="131.92,-43.55 140.24,-36.99 129.65,-36.93 131.92,-43.55"/>
</a>
</g>
</g>
<!-- Node6 -->
<g id="Node000006" class="node">
<title>Node6</title>
<g id="a_Node000006"><a xlink:href="a02346.html#a49083e8ceb4bfe7793ca1a5a799834d0" target="_top" xlink:title=" ">
<polygon fill="white" stroke="#666666" points="327.38,-55.5 272.38,-55.5 272.38,-37 327.38,-37 327.38,-55.5"/>
<text text-anchor="middle" x="299.88" y="-42" font-family="Helvetica,sans-Serif" font-size="10.00">getVmID</text>
</a>
</g>
</g>
<!-- Node5&#45;&gt;Node6 -->
<g id="edge5_Node000005_Node000006" class="edge">
<title>Node5&#45;&gt;Node6</title>
<g id="a_edge5_Node000005_Node000006"><a xlink:title=" ">
<path fill="none" stroke="#63b8ff" d="M219.02,-34C232.82,-36.12 247.92,-38.43 261.24,-40.48"/>
<polygon fill="#63b8ff" stroke="#63b8ff" points="260.52,-44.06 270.94,-42.12 261.58,-37.14 260.52,-44.06"/>
</a>
</g>
</g>
<!-- Node7 -->
<g id="Node000007" class="node">
<title>Node7</title>
<g id="a_Node000007"><a xlink:href="a02346.html#ab5d38a2680290bd159549efaa41b925b" target="_top" xlink:title=" ">
<polygon fill="white" stroke="#666666" points="331.5,-18.5 268.25,-18.5 268.25,0 331.5,0 331.5,-18.5"/>
<text text-anchor="middle" x="299.88" y="-5" font-family="Helvetica,sans-Serif" font-size="10.00">wakeupVm</text>
</a>
</g>
</g>
<!-- Node5&#45;&gt;Node7 -->
<g id="edge6_Node000005_Node000007" class="edge">
<title>Node5&#45;&gt;Node7</title>
<g id="a_edge6_Node000005_Node000007"><a xlink:title=" ">
<path fill="none" stroke="#63b8ff" d="M219.02,-20.85C231.37,-19.06 244.77,-17.11 256.99,-15.34"/>
<polygon fill="#63b8ff" stroke="#63b8ff" points="257.43,-18.66 266.83,-13.76 256.43,-11.74 257.43,-18.66"/>
</a>
</g>
</g>
</g>
</svg>
