<?xml version="1.0" encoding="UTF-8" standalone="no"?>
<!DOCTYPE svg PUBLIC "-//W3C//DTD SVG 1.1//EN"
 "http://www.w3.org/Graphics/SVG/1.1/DTD/svg11.dtd">
<!-- Generated by graphviz version 8.0.5 (0)
 -->
<!-- Title: arax_ptr.c Pages: 1 -->
<svg width="697pt" height="408pt"
 viewBox="0.00 0.00 697.38 408.00" xmlns="http://www.w3.org/2000/svg" xmlns:xlink="http://www.w3.org/1999/xlink">
<g id="graph0" class="graph" transform="scale(1 1) rotate(0) translate(4 404)">
<title>arax_ptr.c</title>
<!-- Node1 -->
<g id="Node000001" class="node">
<title>Node1</title>
<g id="a_Node000001"><a xlink:title=" ">
<polygon fill="#999999" stroke="#666666" points="330.88,-400 270.62,-400 270.62,-381.5 330.88,-381.5 330.88,-400"/>
<text text-anchor="middle" x="300.75" y="-386.5" font-family="Helvetica,sans-Serif" font-size="10.00">arax_ptr.c</text>
</a>
</g>
</g>
<!-- Node2 -->
<g id="Node000002" class="node">
<title>Node2</title>
<g id="a_Node000002"><a xlink:href="a01409.html" target="_top" xlink:title=" ">
<polygon fill="white" stroke="#666666" points="470.88,-345.5 410.62,-345.5 410.62,-327 470.88,-327 470.88,-345.5"/>
<text text-anchor="middle" x="440.75" y="-332" font-family="Helvetica,sans-Serif" font-size="10.00">arax_ptr.h</text>
</a>
</g>
</g>
<!-- Node1&#45;&gt;Node2 -->
<g id="edge1_Node000001_Node000002" class="edge">
<title>Node1&#45;&gt;Node2</title>
<g id="a_edge1_Node000001_Node000002"><a xlink:title=" ">
<path fill="none" stroke="#63b8ff" d="M323.87,-381.08C346.67,-372.53 381.74,-359.38 407.53,-349.71"/>
<polygon fill="#63b8ff" stroke="#63b8ff" points="408.46,-352.72 416.6,-345.93 406.01,-346.17 408.46,-352.72"/>
</a>
</g>
</g>
<!-- Node4 -->
<g id="Node000004" class="node">
<title>Node4</title>
<g id="a_Node000004"><a xlink:href="a01349.html" target="_top" xlink:title=" ">
<polygon fill="white" stroke="#666666" points="293.25,-345.5 226.25,-345.5 226.25,-327 293.25,-327 293.25,-345.5"/>
<text text-anchor="middle" x="259.75" y="-332" font-family="Helvetica,sans-Serif" font-size="10.00">arax_pipe.h</text>
</a>
</g>
</g>
<!-- Node1&#45;&gt;Node4 -->
<g id="edge3_Node000001_Node000004" class="edge">
<title>Node1&#45;&gt;Node4</title>
<g id="a_edge3_Node000001_Node000004"><a xlink:title=" ">
<path fill="none" stroke="#63b8ff" d="M293.98,-381.08C288.31,-373.82 280.04,-363.23 273.05,-354.28"/>
<polygon fill="#63b8ff" stroke="#63b8ff" points="275.31,-352.49 266.39,-346.76 269.79,-356.79 275.31,-352.49"/>
</a>
</g>
</g>
<!-- Node3 -->
<g id="Node000003" class="node">
<title>Node3</title>
<g id="a_Node000003"><a xlink:href="a01370.html" target="_top" xlink:title=" ">
<polygon fill="white" stroke="#666666" points="363.12,-18.5 286.38,-18.5 286.38,0 363.12,0 363.12,-18.5"/>
<text text-anchor="middle" x="324.75" y="-5" font-family="Helvetica,sans-Serif" font-size="10.00">utils/compat.h</text>
</a>
</g>
</g>
<!-- Node2&#45;&gt;Node3 -->
<g id="edge2_Node000002_Node000003" class="edge">
<title>Node2&#45;&gt;Node3</title>
<g id="a_edge2_Node000002_Node000003"><a xlink:title=" ">
<path fill="none" stroke="#63b8ff" d="M457.65,-326.59C485.44,-311 537.75,-275.39 537.75,-228.25 537.75,-228.25 537.75,-228.25 537.75,-117.25 537.75,-44.44 437.15,-21.17 374.22,-13.74"/>
<polygon fill="#63b8ff" stroke="#63b8ff" points="374.64,-10.15 364.32,-12.56 373.89,-17.11 374.64,-10.15"/>
</a>
</g>
</g>
<!-- Node5 -->
<g id="Node000005" class="node">
<title>Node5</title>
<g id="a_Node000005"><a xlink:href="a01346.html" target="_top" xlink:title=" ">
<polygon fill="white" stroke="#666666" points="470.25,-182 427.25,-182 427.25,-163.5 470.25,-163.5 470.25,-182"/>
<text text-anchor="middle" x="448.75" y="-168.5" font-family="Helvetica,sans-Serif" font-size="10.00">arax.h</text>
</a>
</g>
</g>
<!-- Node4&#45;&gt;Node5 -->
<g id="edge4_Node000004_Node000005" class="edge">
<title>Node4&#45;&gt;Node5</title>
<g id="a_edge4_Node000004_Node000005"><a xlink:title=" ">
<path fill="none" stroke="#63b8ff" d="M293.49,-331.66C344.63,-324.19 440.08,-301.77 480.75,-236.5 490.3,-221.17 478.19,-202.65 466.22,-189.72"/>
<polygon fill="#63b8ff" stroke="#63b8ff" points="469.16,-187.71 459.61,-183.12 464.22,-192.66 469.16,-187.71"/>
</a>
</g>
</g>
<!-- Node12 -->
<g id="Node000012" class="node">
<title>Node12</title>
<g id="a_Node000012"><a xlink:href="a01358.html" target="_top" xlink:title=" ">
<polygon fill="white" stroke="#666666" points="152,-182 95.5,-182 95.5,-163.5 152,-163.5 152,-182"/>
<text text-anchor="middle" x="123.75" y="-168.5" font-family="Helvetica,sans-Serif" font-size="10.00">utils/Kv.h</text>
</a>
</g>
</g>
<!-- Node4&#45;&gt;Node12 -->
<g id="edge12_Node000004_Node000012" class="edge">
<title>Node4&#45;&gt;Node12</title>
<g id="a_edge12_Node000004_Node000012"><a xlink:title=" ">
<path fill="none" stroke="#63b8ff" d="M226.14,-332.62C172.41,-326.38 68.68,-305.56 23.75,-236.5 5.87,-209.02 49.37,-191.38 84.53,-182.02"/>
<polygon fill="#63b8ff" stroke="#63b8ff" points="85.25,-185.2 94.1,-179.37 83.55,-178.4 85.25,-185.2"/>
</a>
</g>
</g>
<!-- Node17 -->
<g id="Node000017" class="node">
<title>Node17</title>
<g id="a_Node000017"><a xlink:href="a01379.html" target="_top" xlink:title=" ">
<polygon fill="white" stroke="#666666" points="71.5,-182 0,-182 0,-163.5 71.5,-163.5 71.5,-182"/>
<text text-anchor="middle" x="35.75" y="-168.5" font-family="Helvetica,sans-Serif" font-size="10.00">utils/queue.h</text>
</a>
</g>
</g>
<!-- Node4&#45;&gt;Node17 -->
<g id="edge19_Node000004_Node000017" class="edge">
<title>Node4&#45;&gt;Node17</title>
<g id="a_edge19_Node000004_Node000017"><a xlink:title=" ">
<path fill="none" stroke="#63b8ff" d="M225.77,-334.92C183.09,-333 109.13,-324.59 56.75,-291 31.23,-274.64 25.36,-265.25 15.75,-236.5 10.71,-221.42 17.05,-204.21 23.89,-191.63"/>
<polygon fill="#63b8ff" stroke="#63b8ff" points="27.35,-193.67 29.51,-183.3 21.35,-190.06 27.35,-193.67"/>
</a>
</g>
</g>
<!-- Node18 -->
<g id="Node000018" class="node">
<title>Node18</title>
<g id="a_Node000018"><a xlink:href="a01391.html" target="_top" xlink:title=" ">
<polygon fill="white" stroke="#666666" points="249.75,-291 155.75,-291 155.75,-272.5 249.75,-272.5 249.75,-291"/>
<text text-anchor="middle" x="202.75" y="-277.5" font-family="Helvetica,sans-Serif" font-size="10.00">core/arax_accel.h</text>
</a>
</g>
</g>
<!-- Node4&#45;&gt;Node18 -->
<g id="edge24_Node000004_Node000018" class="edge">
<title>Node4&#45;&gt;Node18</title>
<g id="a_edge24_Node000004_Node000018"><a xlink:title=" ">
<path fill="none" stroke="#63b8ff" d="M250.34,-326.58C242.12,-319.01 229.98,-307.83 220.03,-298.66"/>
<polygon fill="#63b8ff" stroke="#63b8ff" points="222.71,-296.46 212.99,-292.26 217.97,-301.61 222.71,-296.46"/>
</a>
</g>
</g>
<!-- Node25 -->
<g id="Node000025" class="node">
<title>Node25</title>
<g id="a_Node000025"><a xlink:href="a01412.html" target="_top" xlink:title=" ">
<polygon fill="white" stroke="#666666" points="360.5,-291 271,-291 271,-272.5 360.5,-272.5 360.5,-291"/>
<text text-anchor="middle" x="315.75" y="-277.5" font-family="Helvetica,sans-Serif" font-size="10.00">core/arax_task.h</text>
</a>
</g>
</g>
<!-- Node4&#45;&gt;Node25 -->
<g id="edge39_Node000004_Node000025" class="edge">
<title>Node4&#45;&gt;Node25</title>
<g id="a_edge39_Node000004_Node000025"><a xlink:title=" ">
<path fill="none" stroke="#63b8ff" d="M269,-326.58C277.07,-319.01 288.99,-307.83 298.78,-298.66"/>
<polygon fill="#63b8ff" stroke="#63b8ff" points="300.77,-301.65 305.67,-292.26 295.99,-296.54 300.77,-301.65"/>
</a>
</g>
</g>
<!-- Node6 -->
<g id="Node000006" class="node">
<title>Node6</title>
<g id="a_Node000006"><a xlink:title=" ">
<polygon fill="#e0e0e0" stroke="#999999" points="471.38,-127.5 426.12,-127.5 426.12,-109 471.38,-109 471.38,-127.5"/>
<text text-anchor="middle" x="448.75" y="-114" font-family="Helvetica,sans-Serif" font-size="10.00">stdio.h</text>
</a>
</g>
</g>
<!-- Node5&#45;&gt;Node6 -->
<g id="edge5_Node000005_Node000006" class="edge">
<title>Node5&#45;&gt;Node6</title>
<g id="a_edge5_Node000005_Node000006"><a xlink:title=" ">
<path fill="none" stroke="#63b8ff" d="M448.75,-163.08C448.75,-156.43 448.75,-146.99 448.75,-138.58"/>
<polygon fill="#63b8ff" stroke="#63b8ff" points="452.25,-138.76 448.75,-128.76 445.25,-138.76 452.25,-138.76"/>
</a>
</g>
</g>
<!-- Node7 -->
<g id="Node000007" class="node">
<title>Node7</title>
<g id="a_Node000007"><a xlink:title=" ">
<polygon fill="#e0e0e0" stroke="#999999" points="282,-73 231.5,-73 231.5,-54.5 282,-54.5 282,-73"/>
<text text-anchor="middle" x="256.75" y="-59.5" font-family="Helvetica,sans-Serif" font-size="10.00">stddef.h</text>
</a>
</g>
</g>
<!-- Node5&#45;&gt;Node7 -->
<g id="edge6_Node000005_Node000007" class="edge">
<title>Node5&#45;&gt;Node7</title>
<g id="a_edge6_Node000005_Node000007"><a xlink:title=" ">
<path fill="none" stroke="#63b8ff" d="M441.37,-163.31C429.41,-150.09 404.52,-124.42 378.75,-109 351.81,-92.87 318.04,-81.19 292.86,-73.89"/>
<polygon fill="#63b8ff" stroke="#63b8ff" points="293.88,-70.26 283.3,-70.94 291.99,-77 293.88,-70.26"/>
</a>
</g>
</g>
<!-- Node8 -->
<g id="Node000008" class="node">
<title>Node8</title>
<g id="a_Node000008"><a xlink:href="a01352.html" target="_top" xlink:title=" ">
<polygon fill="white" stroke="#666666" points="651.25,-73 578.25,-73 578.25,-54.5 651.25,-54.5 651.25,-73"/>
<text text-anchor="middle" x="614.75" y="-59.5" font-family="Helvetica,sans-Serif" font-size="10.00">arax_types.h</text>
</a>
</g>
</g>
<!-- Node5&#45;&gt;Node8 -->
<g id="edge7_Node000005_Node000008" class="edge">
<title>Node5&#45;&gt;Node8</title>
<g id="a_edge7_Node000005_Node000008"><a xlink:title=" ">
<path fill="none" stroke="#63b8ff" d="M462.05,-163.17C490.46,-144.86 557.33,-101.76 592.39,-79.16"/>
<polygon fill="#63b8ff" stroke="#63b8ff" points="593.87,-81.73 600.38,-73.37 590.08,-75.84 593.87,-81.73"/>
</a>
</g>
</g>
<!-- Node11 -->
<g id="Node000011" class="node">
<title>Node11</title>
<g id="a_Node000011"><a xlink:href="a01394.html" target="_top" xlink:title=" ">
<polygon fill="white" stroke="#666666" points="689.38,-127.5 566.12,-127.5 566.12,-109 689.38,-109 689.38,-127.5"/>
<text text-anchor="middle" x="627.75" y="-114" font-family="Helvetica,sans-Serif" font-size="10.00">core/arax_accel_types.h</text>
</a>
</g>
</g>
<!-- Node5&#45;&gt;Node11 -->
<g id="edge10_Node000005_Node000011" class="edge">
<title>Node5&#45;&gt;Node11</title>
<g id="a_edge10_Node000005_Node000011"><a xlink:title=" ">
<path fill="none" stroke="#63b8ff" d="M470.7,-165.31C499.84,-156.76 551.83,-141.52 587.98,-130.92"/>
<polygon fill="#63b8ff" stroke="#63b8ff" points="588.57,-134.1 597.18,-127.92 586.6,-127.38 588.57,-134.1"/>
</a>
</g>
</g>
<!-- Node9 -->
<g id="Node000009" class="node">
<title>Node9</title>
<g id="a_Node000009"><a xlink:title=" ">
<polygon fill="#e0e0e0" stroke="#999999" points="679.88,-18.5 619.62,-18.5 619.62,0 679.88,0 679.88,-18.5"/>
<text text-anchor="middle" x="649.75" y="-5" font-family="Helvetica,sans-Serif" font-size="10.00">sys/time.h</text>
</a>
</g>
</g>
<!-- Node8&#45;&gt;Node9 -->
<g id="edge8_Node000008_Node000009" class="edge">
<title>Node8&#45;&gt;Node9</title>
<g id="a_edge8_Node000008_Node000009"><a xlink:title=" ">
<path fill="none" stroke="#63b8ff" d="M620.53,-54.08C625.27,-46.97 632.13,-36.68 638.02,-27.85"/>
<polygon fill="#63b8ff" stroke="#63b8ff" points="641.44,-30.02 644.08,-19.76 635.62,-26.14 641.44,-30.02"/>
</a>
</g>
</g>
<!-- Node10 -->
<g id="Node000010" class="node">
<title>Node10</title>
<g id="a_Node000010"><a xlink:title=" ">
<polygon fill="#e0e0e0" stroke="#999999" points="601.25,-18.5 558.25,-18.5 558.25,0 601.25,0 601.25,-18.5"/>
<text text-anchor="middle" x="579.75" y="-5" font-family="Helvetica,sans-Serif" font-size="10.00">time.h</text>
</a>
</g>
</g>
<!-- Node8&#45;&gt;Node10 -->
<g id="edge9_Node000008_Node000010" class="edge">
<title>Node8&#45;&gt;Node10</title>
<g id="a_edge9_Node000008_Node000010"><a xlink:title=" ">
<path fill="none" stroke="#63b8ff" d="M608.97,-54.08C604.23,-46.97 597.37,-36.68 591.48,-27.85"/>
<polygon fill="#63b8ff" stroke="#63b8ff" points="593.88,-26.14 585.42,-19.76 588.06,-30.02 593.88,-26.14"/>
</a>
</g>
</g>
<!-- Node11&#45;&gt;Node8 -->
<g id="edge11_Node000011_Node000008" class="edge">
<title>Node11&#45;&gt;Node8</title>
<g id="a_edge11_Node000011_Node000008"><a xlink:title=" ">
<path fill="none" stroke="#63b8ff" d="M625.6,-108.58C623.94,-101.85 621.57,-92.27 619.46,-83.79"/>
<polygon fill="#63b8ff" stroke="#63b8ff" points="622.66,-83.12 616.86,-74.26 615.86,-84.81 622.66,-83.12"/>
</a>
</g>
</g>
<!-- Node12&#45;&gt;Node7 -->
<g id="edge14_Node000012_Node000007" class="edge">
<title>Node12&#45;&gt;Node7</title>
<g id="a_edge14_Node000012_Node000007"><a xlink:title=" ">
<path fill="none" stroke="#63b8ff" d="M135.18,-163.03C146.75,-154.18 165.1,-140.03 180.75,-127.5 200.62,-111.59 223.07,-92.97 238.39,-80.17"/>
<polygon fill="#63b8ff" stroke="#63b8ff" points="240.08,-82.48 245.5,-73.37 235.59,-77.11 240.08,-82.48"/>
</a>
</g>
</g>
<!-- Node13 -->
<g id="Node000013" class="node">
<title>Node13</title>
<g id="a_Node000013"><a xlink:href="a01427.html" target="_top" xlink:title=" ">
<polygon fill="white" stroke="#666666" points="93.88,-127.5 51.62,-127.5 51.62,-109 93.88,-109 93.88,-127.5"/>
<text text-anchor="middle" x="72.75" y="-114" font-family="Helvetica,sans-Serif" font-size="10.00">conf.h</text>
</a>
</g>
</g>
<!-- Node12&#45;&gt;Node13 -->
<g id="edge13_Node000012_Node000013" class="edge">
<title>Node12&#45;&gt;Node13</title>
<g id="a_edge13_Node000012_Node000013"><a xlink:title=" ">
<path fill="none" stroke="#63b8ff" d="M115.33,-163.08C108.05,-155.59 97.34,-144.56 88.48,-135.44"/>
<polygon fill="#63b8ff" stroke="#63b8ff" points="91.49,-133.49 82.01,-128.76 86.47,-138.37 91.49,-133.49"/>
</a>
</g>
</g>
<!-- Node14 -->
<g id="Node000014" class="node">
<title>Node14</title>
<g id="a_Node000014"><a xlink:href="a01382.html" target="_top" xlink:title=" ">
<polygon fill="white" stroke="#666666" points="171.88,-127.5 111.62,-127.5 111.62,-109 171.88,-109 171.88,-127.5"/>
<text text-anchor="middle" x="141.75" y="-114" font-family="Helvetica,sans-Serif" font-size="10.00">spinlock.h</text>
</a>
</g>
</g>
<!-- Node12&#45;&gt;Node14 -->
<g id="edge15_Node000012_Node000014" class="edge">
<title>Node12&#45;&gt;Node14</title>
<g id="a_edge15_Node000012_Node000014"><a xlink:title=" ">
<path fill="none" stroke="#63b8ff" d="M126.72,-163.08C129.06,-156.28 132.39,-146.56 135.32,-138"/>
<polygon fill="#63b8ff" stroke="#63b8ff" points="138.9,-139.35 138.83,-128.76 132.28,-137.08 138.9,-139.35"/>
</a>
</g>
</g>
<!-- Node15 -->
<g id="Node000015" class="node">
<title>Node15</title>
<g id="a_Node000015"><a xlink:title=" ">
<polygon fill="#e0e0e0" stroke="#999999" points="213.5,-73 166,-73 166,-54.5 213.5,-54.5 213.5,-73"/>
<text text-anchor="middle" x="189.75" y="-59.5" font-family="Helvetica,sans-Serif" font-size="10.00">stdint.h</text>
</a>
</g>
</g>
<!-- Node14&#45;&gt;Node15 -->
<g id="edge16_Node000014_Node000015" class="edge">
<title>Node14&#45;&gt;Node15</title>
<g id="a_edge16_Node000014_Node000015"><a xlink:title=" ">
<path fill="none" stroke="#63b8ff" d="M149.68,-108.58C156.46,-101.17 166.4,-90.28 174.69,-81.22"/>
<polygon fill="#63b8ff" stroke="#63b8ff" points="176.81,-84 180.97,-74.26 171.64,-79.28 176.81,-84"/>
</a>
</g>
</g>
<!-- Node16 -->
<g id="Node000016" class="node">
<title>Node16</title>
<g id="a_Node000016"><a xlink:href="a01361.html" target="_top" xlink:title=" ">
<polygon fill="white" stroke="#666666" points="148.25,-73 51.25,-73 51.25,-54.5 148.25,-54.5 148.25,-73"/>
<text text-anchor="middle" x="99.75" y="-59.5" font-family="Helvetica,sans-Serif" font-size="10.00">utils/arax_assert.h</text>
</a>
</g>
</g>
<!-- Node14&#45;&gt;Node16 -->
<g id="edge17_Node000014_Node000016" class="edge">
<title>Node14&#45;&gt;Node16</title>
<g id="a_edge17_Node000014_Node000016"><a xlink:title=" ">
<path fill="none" stroke="#63b8ff" d="M134.81,-108.58C129,-101.32 120.54,-90.73 113.38,-81.78"/>
<polygon fill="#63b8ff" stroke="#63b8ff" points="115.54,-79.88 106.56,-74.26 110.07,-84.25 115.54,-79.88"/>
</a>
</g>
</g>
<!-- Node16&#45;&gt;Node3 -->
<g id="edge18_Node000016_Node000003" class="edge">
<title>Node16&#45;&gt;Node3</title>
<g id="a_edge18_Node000016_Node000003"><a xlink:title=" ">
<path fill="none" stroke="#63b8ff" d="M137.16,-54.02C175.44,-45.09 235.06,-31.18 276.79,-21.44"/>
<polygon fill="#63b8ff" stroke="#63b8ff" points="277.31,-24.68 286.25,-19 275.72,-17.86 277.31,-24.68"/>
</a>
</g>
</g>
<!-- Node17&#45;&gt;Node7 -->
<g id="edge20_Node000017_Node000007" class="edge">
<title>Node17&#45;&gt;Node7</title>
<g id="a_edge20_Node000017_Node000007"><a xlink:title=" ">
<path fill="none" stroke="#63b8ff" d="M33.86,-163.18C31.46,-149.78 29.12,-123.86 42.75,-109 95.63,-51.34 139.37,-87.37 220.53,-73.19"/>
<polygon fill="#63b8ff" stroke="#63b8ff" points="221.03,-76.46 230.16,-71.08 219.67,-69.59 221.03,-76.46"/>
</a>
</g>
</g>
<!-- Node17&#45;&gt;Node13 -->
<g id="edge22_Node000017_Node000013" class="edge">
<title>Node17&#45;&gt;Node13</title>
<g id="a_edge22_Node000017_Node000013"><a xlink:title=" ">
<path fill="none" stroke="#63b8ff" d="M41.86,-163.08C46.92,-155.89 54.28,-145.45 60.55,-136.57"/>
<polygon fill="#63b8ff" stroke="#63b8ff" points="63.85,-138.95 66.75,-128.76 58.13,-134.92 63.85,-138.95"/>
</a>
</g>
</g>
<!-- Node17&#45;&gt;Node14 -->
<g id="edge23_Node000017_Node000014" class="edge">
<title>Node17&#45;&gt;Node14</title>
<g id="a_edge23_Node000017_Node000014"><a xlink:title=" ">
<path fill="none" stroke="#63b8ff" d="M53.25,-163.08C69.9,-154.84 95.2,-142.31 114.49,-132.75"/>
<polygon fill="#63b8ff" stroke="#63b8ff" points="115.81,-135.51 123.22,-127.93 112.71,-129.23 115.81,-135.51"/>
</a>
</g>
</g>
<!-- Node17&#45;&gt;Node15 -->
<g id="edge21_Node000017_Node000015" class="edge">
<title>Node17&#45;&gt;Node15</title>
<g id="a_edge21_Node000017_Node000015"><a xlink:title=" ">
<path fill="none" stroke="#63b8ff" d="M27.16,-163.28C15.22,-150.47 -3.51,-125.87 9.75,-109 49.54,-58.37 88.12,-86.37 155.1,-73.35"/>
<polygon fill="#63b8ff" stroke="#63b8ff" points="155.65,-76.59 164.65,-71 154.12,-69.76 155.65,-76.59"/>
</a>
</g>
</g>
<!-- Node18&#45;&gt;Node5 -->
<g id="edge25_Node000018_Node000005" class="edge">
<title>Node18&#45;&gt;Node5</title>
<g id="a_edge25_Node000018_Node000005"><a xlink:title=" ">
<path fill="none" stroke="#63b8ff" d="M222.47,-272.17C265.47,-253.47 367.91,-208.91 418.88,-186.74"/>
<polygon fill="#63b8ff" stroke="#63b8ff" points="420.17,-189.56 427.94,-182.37 417.37,-183.15 420.17,-189.56"/>
</a>
</g>
</g>
<!-- Node19 -->
<g id="Node000019" class="node">
<title>Node19</title>
<g id="a_Node000019"><a xlink:title=" ">
<polygon fill="#e0e0e0" stroke="#999999" points="225.62,-182 175.88,-182 175.88,-163.5 225.62,-163.5 225.62,-182"/>
<text text-anchor="middle" x="200.75" y="-168.5" font-family="Helvetica,sans-Serif" font-size="10.00">async.h</text>
</a>
</g>
</g>
<!-- Node18&#45;&gt;Node19 -->
<g id="edge26_Node000018_Node000019" class="edge">
<title>Node18&#45;&gt;Node19</title>
<g id="a_edge26_Node000018_Node000019"><a xlink:title=" ">
<path fill="none" stroke="#63b8ff" d="M220.48,-272.19C240.78,-261.1 269.89,-240.51 258.75,-218 252.43,-205.23 240.46,-195.14 229.03,-187.84"/>
<polygon fill="#63b8ff" stroke="#63b8ff" points="231.09,-184.4 220.7,-182.36 227.55,-190.44 231.09,-184.4"/>
</a>
</g>
</g>
<!-- Node20 -->
<g id="Node000020" class="node">
<title>Node20</title>
<g id="a_Node000020"><a xlink:href="a01418.html" target="_top" xlink:title=" ">
<polygon fill="white" stroke="#666666" points="250,-236.5 151.5,-236.5 151.5,-218 250,-218 250,-236.5"/>
<text text-anchor="middle" x="200.75" y="-223" font-family="Helvetica,sans-Serif" font-size="10.00">core/arax_vaccel.h</text>
</a>
</g>
</g>
<!-- Node18&#45;&gt;Node20 -->
<g id="edge27_Node000018_Node000020" class="edge">
<title>Node18&#45;&gt;Node20</title>
<g id="a_edge27_Node000018_Node000020"><a xlink:title=" ">
<path fill="none" stroke="#63b8ff" d="M197.25,-272.08C195.56,-265.43 194.74,-255.99 194.95,-247.58"/>
<polygon fill="#63b8ff" stroke="#63b8ff" points="198.51,-248.04 195.94,-237.76 191.54,-247.4 198.51,-248.04"/>
</a>
</g>
</g>
<!-- Node24 -->
<g id="Node000024" class="node">
<title>Node24</title>
<g id="a_Node000024"><a xlink:href="a01415.html" target="_top" xlink:title=" ">
<polygon fill="white" stroke="#666666" points="133.12,-236.5 32.38,-236.5 32.38,-218 133.12,-218 133.12,-236.5"/>
<text text-anchor="middle" x="82.75" y="-223" font-family="Helvetica,sans-Serif" font-size="10.00">core/arax_throttle.h</text>
</a>
</g>
</g>
<!-- Node18&#45;&gt;Node24 -->
<g id="edge37_Node000018_Node000024" class="edge">
<title>Node18&#45;&gt;Node24</title>
<g id="a_edge37_Node000018_Node000024"><a xlink:title=" ">
<path fill="none" stroke="#63b8ff" d="M182.93,-272.08C163.74,-263.68 134.39,-250.84 112.41,-241.23"/>
<polygon fill="#63b8ff" stroke="#63b8ff" points="114.16,-237.73 103.59,-236.93 111.35,-244.15 114.16,-237.73"/>
</a>
</g>
</g>
<!-- Node20&#45;&gt;Node17 -->
<g id="edge34_Node000020_Node000017" class="edge">
<title>Node20&#45;&gt;Node17</title>
<g id="a_edge34_Node000020_Node000017"><a xlink:title=" ">
<path fill="none" stroke="#63b8ff" d="M173.5,-217.58C146.16,-208.88 103.82,-195.41 73.3,-185.7"/>
<polygon fill="#63b8ff" stroke="#63b8ff" points="74.63,-182.13 64.04,-182.43 72.5,-188.8 74.63,-182.13"/>
</a>
</g>
</g>
<!-- Node20&#45;&gt;Node18 -->
<g id="edge35_Node000020_Node000018" class="edge">
<title>Node20&#45;&gt;Node18</title>
<g id="a_edge35_Node000020_Node000018"><a xlink:title=" ">
<path fill="none" stroke="#63b8ff" d="M206.21,-236.76C207.92,-243.36 208.75,-252.79 208.56,-261.22"/>
<polygon fill="#63b8ff" stroke="#63b8ff" points="204.99,-260.81 207.59,-271.08 211.96,-261.43 204.99,-260.81"/>
</a>
</g>
</g>
<!-- Node20&#45;&gt;Node19 -->
<g id="edge36_Node000020_Node000019" class="edge">
<title>Node20&#45;&gt;Node19</title>
<g id="a_edge36_Node000020_Node000019"><a xlink:title=" ">
<path fill="none" stroke="#63b8ff" d="M200.75,-217.58C200.75,-210.93 200.75,-201.49 200.75,-193.08"/>
<polygon fill="#63b8ff" stroke="#63b8ff" points="204.25,-193.26 200.75,-183.26 197.25,-193.26 204.25,-193.26"/>
</a>
</g>
</g>
<!-- Node21 -->
<g id="Node000021" class="node">
<title>Node21</title>
<g id="a_Node000021"><a xlink:href="a01403.html" target="_top" xlink:title=" ">
<polygon fill="white" stroke="#666666" points="339.88,-182 243.62,-182 243.62,-163.5 339.88,-163.5 339.88,-182"/>
<text text-anchor="middle" x="291.75" y="-168.5" font-family="Helvetica,sans-Serif" font-size="10.00">core/arax_object.h</text>
</a>
</g>
</g>
<!-- Node20&#45;&gt;Node21 -->
<g id="edge28_Node000020_Node000021" class="edge">
<title>Node20&#45;&gt;Node21</title>
<g id="a_edge28_Node000020_Node000021"><a xlink:title=" ">
<path fill="none" stroke="#63b8ff" d="M215.78,-217.58C229.74,-209.53 250.79,-197.38 267.19,-187.92"/>
<polygon fill="#63b8ff" stroke="#63b8ff" points="268.79,-190.46 275.7,-182.43 265.29,-184.4 268.79,-190.46"/>
</a>
</g>
</g>
<!-- Node21&#45;&gt;Node14 -->
<g id="edge32_Node000021_Node000014" class="edge">
<title>Node21&#45;&gt;Node14</title>
<g id="a_edge32_Node000021_Node000014"><a xlink:title=" ">
<path fill="none" stroke="#63b8ff" d="M266.98,-163.08C242.34,-154.46 204.3,-141.14 176.61,-131.45"/>
<polygon fill="#63b8ff" stroke="#63b8ff" points="178.15,-127.93 167.56,-127.93 175.84,-134.54 178.15,-127.93"/>
</a>
</g>
</g>
<!-- Node22 -->
<g id="Node000022" class="node">
<title>Node22</title>
<g id="a_Node000022"><a xlink:href="a01376.html" target="_top" xlink:title=" ">
<polygon fill="white" stroke="#666666" points="285.38,-127.5 228.12,-127.5 228.12,-109 285.38,-109 285.38,-127.5"/>
<text text-anchor="middle" x="256.75" y="-114" font-family="Helvetica,sans-Serif" font-size="10.00">utils/list.h</text>
</a>
</g>
</g>
<!-- Node21&#45;&gt;Node22 -->
<g id="edge29_Node000021_Node000022" class="edge">
<title>Node21&#45;&gt;Node22</title>
<g id="a_edge29_Node000021_Node000022"><a xlink:title=" ">
<path fill="none" stroke="#63b8ff" d="M285.97,-163.08C281.23,-155.97 274.37,-145.68 268.48,-136.85"/>
<polygon fill="#63b8ff" stroke="#63b8ff" points="270.88,-135.14 262.42,-128.76 265.06,-139.02 270.88,-135.14"/>
</a>
</g>
</g>
<!-- Node23 -->
<g id="Node000023" class="node">
<title>Node23</title>
<g id="a_Node000023"><a xlink:title=" ">
<polygon fill="#e0e0e0" stroke="#999999" points="369.88,-127.5 303.62,-127.5 303.62,-109 369.88,-109 369.88,-127.5"/>
<text text-anchor="middle" x="336.75" y="-114" font-family="Helvetica,sans-Serif" font-size="10.00">arch/alloc.h</text>
</a>
</g>
</g>
<!-- Node21&#45;&gt;Node23 -->
<g id="edge33_Node000021_Node000023" class="edge">
<title>Node21&#45;&gt;Node23</title>
<g id="a_edge33_Node000021_Node000023"><a xlink:title=" ">
<path fill="none" stroke="#63b8ff" d="M299.18,-163.08C305.47,-155.74 314.67,-145.01 322.39,-136"/>
<polygon fill="#63b8ff" stroke="#63b8ff" points="325.61,-138.63 329.46,-128.76 320.29,-134.07 325.61,-138.63"/>
</a>
</g>
</g>
<!-- Node22&#45;&gt;Node7 -->
<g id="edge30_Node000022_Node000007" class="edge">
<title>Node22&#45;&gt;Node7</title>
<g id="a_edge30_Node000022_Node000007"><a xlink:title=" ">
<path fill="none" stroke="#63b8ff" d="M256.75,-108.58C256.75,-101.93 256.75,-92.49 256.75,-84.08"/>
<polygon fill="#63b8ff" stroke="#63b8ff" points="260.25,-84.26 256.75,-74.26 253.25,-84.26 260.25,-84.26"/>
</a>
</g>
</g>
<!-- Node22&#45;&gt;Node15 -->
<g id="edge31_Node000022_Node000015" class="edge">
<title>Node22&#45;&gt;Node15</title>
<g id="a_edge31_Node000022_Node000015"><a xlink:title=" ">
<path fill="none" stroke="#63b8ff" d="M245.69,-108.58C235.73,-100.78 220.89,-89.15 209,-79.83"/>
<polygon fill="#63b8ff" stroke="#63b8ff" points="211.64,-76.67 201.61,-73.26 207.32,-82.18 211.64,-76.67"/>
</a>
</g>
</g>
<!-- Node24&#45;&gt;Node19 -->
<g id="edge38_Node000024_Node000019" class="edge">
<title>Node24&#45;&gt;Node19</title>
<g id="a_edge38_Node000024_Node000019"><a xlink:title=" ">
<path fill="none" stroke="#63b8ff" d="M102.24,-217.58C121.02,-209.22 149.71,-196.46 171.29,-186.86"/>
<polygon fill="#63b8ff" stroke="#63b8ff" points="172.52,-189.7 180.24,-182.43 169.68,-183.3 172.52,-189.7"/>
</a>
</g>
</g>
<!-- Node25&#45;&gt;Node19 -->
<g id="edge43_Node000025_Node000019" class="edge">
<title>Node25&#45;&gt;Node19</title>
<g id="a_edge43_Node000025_Node000019"><a xlink:title=" ">
<path fill="none" stroke="#63b8ff" d="M311.57,-272.18C304.95,-259.25 291,-234.49 273.75,-218 260.78,-205.6 243.75,-195.03 229.41,-187.34"/>
<polygon fill="#63b8ff" stroke="#63b8ff" points="231.48,-183.95 220.98,-182.48 228.27,-190.17 231.48,-183.95"/>
</a>
</g>
</g>
<!-- Node26 -->
<g id="Node000026" class="node">
<title>Node26</title>
<g id="a_Node000026"><a xlink:href="a01406.html" target="_top" xlink:title=" ">
<polygon fill="white" stroke="#666666" points="471.5,-236.5 382,-236.5 382,-218 471.5,-218 471.5,-236.5"/>
<text text-anchor="middle" x="426.75" y="-223" font-family="Helvetica,sans-Serif" font-size="10.00">core/arax_proc.h</text>
</a>
</g>
</g>
<!-- Node25&#45;&gt;Node26 -->
<g id="edge40_Node000025_Node000026" class="edge">
<title>Node25&#45;&gt;Node26</title>
<g id="a_edge40_Node000025_Node000026"><a xlink:title=" ">
<path fill="none" stroke="#63b8ff" d="M334.08,-272.08C351.59,-263.8 378.25,-251.19 398.48,-241.62"/>
<polygon fill="#63b8ff" stroke="#63b8ff" points="399.85,-244.37 407.39,-236.93 396.86,-238.04 399.85,-244.37"/>
</a>
</g>
</g>
<!-- Node26&#45;&gt;Node5 -->
<g id="edge41_Node000026_Node000005" class="edge">
<title>Node26&#45;&gt;Node5</title>
<g id="a_edge41_Node000026_Node000005"><a xlink:title=" ">
<path fill="none" stroke="#63b8ff" d="M430.38,-217.58C433.27,-210.7 437.4,-200.84 441.01,-192.21"/>
<polygon fill="#63b8ff" stroke="#63b8ff" points="444.55,-193.83 445.18,-183.26 438.09,-191.13 444.55,-193.83"/>
</a>
</g>
</g>
<!-- Node26&#45;&gt;Node21 -->
<g id="edge42_Node000026_Node000021" class="edge">
<title>Node26&#45;&gt;Node21</title>
<g id="a_edge42_Node000026_Node000021"><a xlink:title=" ">
<path fill="none" stroke="#63b8ff" d="M404.46,-217.58C382.57,-209.07 348.95,-195.99 324.12,-186.34"/>
<polygon fill="#63b8ff" stroke="#63b8ff" points="325.66,-182.79 315.08,-182.43 323.13,-189.32 325.66,-182.79"/>
</a>
</g>
</g>
</g>
</svg>
