<?xml version="1.0" encoding="UTF-8" standalone="no"?>
<!DOCTYPE svg PUBLIC "-//W3C//DTD SVG 1.1//EN"
 "http://www.w3.org/Graphics/SVG/1.1/DTD/svg11.dtd">
<!-- Generated by graphviz version 8.0.5 (0)
 -->
<!-- Title: arax_assert.c Pages: 1 -->
<svg width="559pt" height="245pt"
 viewBox="0.00 0.00 558.50 244.50" xmlns="http://www.w3.org/2000/svg" xmlns:xlink="http://www.w3.org/1999/xlink">
<g id="graph0" class="graph" transform="scale(1 1) rotate(0) translate(4 240.5)">
<title>arax_assert.c</title>
<!-- Node1 -->
<g id="Node000001" class="node">
<title>Node1</title>
<g id="a_Node000001"><a xlink:title=" ">
<polygon fill="#999999" stroke="#666666" points="314,-236.5 238,-236.5 238,-218 314,-218 314,-236.5"/>
<text text-anchor="middle" x="276" y="-223" font-family="Helvetica,sans-Serif" font-size="10.00">arax_assert.c</text>
</a>
</g>
</g>
<!-- Node2 -->
<g id="Node000002" class="node">
<title>Node2</title>
<g id="a_Node000002"><a xlink:href="a01361.html" target="_top" xlink:title=" ">
<polygon fill="white" stroke="#666666" points="176,-73 100,-73 100,-54.5 176,-54.5 176,-73"/>
<text text-anchor="middle" x="138" y="-59.5" font-family="Helvetica,sans-Serif" font-size="10.00">arax_assert.h</text>
</a>
</g>
</g>
<!-- Node1&#45;&gt;Node2 -->
<g id="edge1_Node000001_Node000002" class="edge">
<title>Node1&#45;&gt;Node2</title>
<g id="a_edge1_Node000001_Node000002"><a xlink:title=" ">
<path fill="none" stroke="#63b8ff" d="M237.76,-222.21C190.73,-216.35 115.01,-203.76 98,-182 78.02,-156.44 86.34,-139.28 98,-109 102.2,-98.1 110.46,-88.21 118.4,-80.56"/>
<polygon fill="#63b8ff" stroke="#63b8ff" points="120.23,-83.72 125.36,-74.45 115.57,-78.5 120.23,-83.72"/>
</a>
</g>
</g>
<!-- Node4 -->
<g id="Node000004" class="node">
<title>Node4</title>
<g id="a_Node000004"><a xlink:href="a01409.html" target="_top" xlink:title=" ">
<polygon fill="white" stroke="#666666" points="82,-73 0,-73 0,-54.5 82,-54.5 82,-73"/>
<text text-anchor="middle" x="41" y="-59.5" font-family="Helvetica,sans-Serif" font-size="10.00">core/arax_ptr.h</text>
</a>
</g>
</g>
<!-- Node1&#45;&gt;Node4 -->
<g id="edge3_Node000001_Node000004" class="edge">
<title>Node1&#45;&gt;Node4</title>
<g id="a_edge3_Node000001_Node000004"><a xlink:title=" ">
<path fill="none" stroke="#63b8ff" d="M237.66,-221.77C188.39,-215.29 106.51,-201.86 84,-182 55.23,-156.62 45.69,-110.29 42.54,-84.11"/>
<polygon fill="#63b8ff" stroke="#63b8ff" points="45.94,-83.96 41.47,-74.36 38.97,-84.65 45.94,-83.96"/>
</a>
</g>
</g>
<!-- Node5 -->
<g id="Node000005" class="node">
<title>Node5</title>
<g id="a_Node000005"><a xlink:href="a01403.html" target="_top" xlink:title=" ">
<polygon fill="white" stroke="#666666" points="203.12,-182 106.88,-182 106.88,-163.5 203.12,-163.5 203.12,-182"/>
<text text-anchor="middle" x="155" y="-168.5" font-family="Helvetica,sans-Serif" font-size="10.00">core/arax_object.h</text>
</a>
</g>
</g>
<!-- Node1&#45;&gt;Node5 -->
<g id="edge5_Node000001_Node000005" class="edge">
<title>Node1&#45;&gt;Node5</title>
<g id="a_edge5_Node000001_Node000005"><a xlink:title=" ">
<path fill="none" stroke="#63b8ff" d="M256.02,-217.58C236.67,-209.18 207.07,-196.34 184.91,-186.73"/>
<polygon fill="#63b8ff" stroke="#63b8ff" points="186.58,-183.2 176.01,-182.43 183.79,-189.62 186.58,-183.2"/>
</a>
</g>
</g>
<!-- Node11 -->
<g id="Node000011" class="node">
<title>Node11</title>
<g id="a_Node000011"><a xlink:title=" ">
<polygon fill="#e0e0e0" stroke="#999999" points="266.62,-182 221.38,-182 221.38,-163.5 266.62,-163.5 266.62,-182"/>
<text text-anchor="middle" x="244" y="-168.5" font-family="Helvetica,sans-Serif" font-size="10.00">stdio.h</text>
</a>
</g>
</g>
<!-- Node1&#45;&gt;Node11 -->
<g id="edge13_Node000001_Node000011" class="edge">
<title>Node1&#45;&gt;Node11</title>
<g id="a_edge13_Node000001_Node000011"><a xlink:title=" ">
<path fill="none" stroke="#63b8ff" d="M270.72,-217.58C266.43,-210.55 260.24,-200.4 254.9,-191.64"/>
<polygon fill="#63b8ff" stroke="#63b8ff" points="257.38,-189.98 249.19,-183.26 251.4,-193.62 257.38,-189.98"/>
</a>
</g>
</g>
<!-- Node12 -->
<g id="Node000012" class="node">
<title>Node12</title>
<g id="a_Node000012"><a xlink:title=" ">
<polygon fill="#e0e0e0" stroke="#999999" points="333.12,-182 284.88,-182 284.88,-163.5 333.12,-163.5 333.12,-182"/>
<text text-anchor="middle" x="309" y="-168.5" font-family="Helvetica,sans-Serif" font-size="10.00">string.h</text>
</a>
</g>
</g>
<!-- Node1&#45;&gt;Node12 -->
<g id="edge14_Node000001_Node000012" class="edge">
<title>Node1&#45;&gt;Node12</title>
<g id="a_edge14_Node000001_Node000012"><a xlink:title=" ">
<path fill="none" stroke="#63b8ff" d="M281.45,-217.58C285.92,-210.47 292.39,-200.18 297.94,-191.35"/>
<polygon fill="#63b8ff" stroke="#63b8ff" points="301.29,-193.59 303.65,-183.26 295.37,-189.86 301.29,-193.59"/>
</a>
</g>
</g>
<!-- Node13 -->
<g id="Node000013" class="node">
<title>Node13</title>
<g id="a_Node000013"><a xlink:title=" ">
<polygon fill="#e0e0e0" stroke="#999999" points="398.75,-182 351.25,-182 351.25,-163.5 398.75,-163.5 398.75,-182"/>
<text text-anchor="middle" x="375" y="-168.5" font-family="Helvetica,sans-Serif" font-size="10.00">stdlib.h</text>
</a>
</g>
</g>
<!-- Node1&#45;&gt;Node13 -->
<g id="edge15_Node000001_Node000013" class="edge">
<title>Node1&#45;&gt;Node13</title>
<g id="a_edge15_Node000001_Node000013"><a xlink:title=" ">
<path fill="none" stroke="#63b8ff" d="M292.35,-217.58C307.75,-209.41 331.09,-197.04 349.04,-187.52"/>
<polygon fill="#63b8ff" stroke="#63b8ff" points="350.43,-190.21 357.63,-182.43 347.15,-184.03 350.43,-190.21"/>
</a>
</g>
</g>
<!-- Node14 -->
<g id="Node000014" class="node">
<title>Node14</title>
<g id="a_Node000014"><a xlink:title=" ">
<polygon fill="#e0e0e0" stroke="#999999" points="477.12,-182 416.88,-182 416.88,-163.5 477.12,-163.5 477.12,-182"/>
<text text-anchor="middle" x="447" y="-168.5" font-family="Helvetica,sans-Serif" font-size="10.00">execinfo.h</text>
</a>
</g>
</g>
<!-- Node1&#45;&gt;Node14 -->
<g id="edge16_Node000001_Node000014" class="edge">
<title>Node1&#45;&gt;Node14</title>
<g id="a_edge16_Node000001_Node000014"><a xlink:title=" ">
<path fill="none" stroke="#63b8ff" d="M304.24,-217.58C332.7,-208.84 376.84,-195.29 408.5,-185.57"/>
<polygon fill="#63b8ff" stroke="#63b8ff" points="409.19,-188.71 417.72,-182.43 407.13,-182.02 409.19,-188.71"/>
</a>
</g>
</g>
<!-- Node15 -->
<g id="Node000015" class="node">
<title>Node15</title>
<g id="a_Node000015"><a xlink:href="a01385.html" target="_top" xlink:title=" ">
<polygon fill="white" stroke="#666666" points="550.5,-182 495.5,-182 495.5,-163.5 550.5,-163.5 550.5,-182"/>
<text text-anchor="middle" x="523" y="-168.5" font-family="Helvetica,sans-Serif" font-size="10.00">system.h</text>
</a>
</g>
</g>
<!-- Node1&#45;&gt;Node15 -->
<g id="edge17_Node000001_Node000015" class="edge">
<title>Node1&#45;&gt;Node15</title>
<g id="a_edge17_Node000001_Node000015"><a xlink:title=" ">
<path fill="none" stroke="#63b8ff" d="M314.35,-218.31C354.33,-210 419.1,-196.45 484.61,-182.28"/>
<polygon fill="#63b8ff" stroke="#63b8ff" points="485.1,-185.54 494.13,-180 483.61,-178.7 485.1,-185.54"/>
</a>
</g>
</g>
<!-- Node3 -->
<g id="Node000003" class="node">
<title>Node3</title>
<g id="a_Node000003"><a xlink:href="a01370.html" target="_top" xlink:title=" ">
<polygon fill="white" stroke="#666666" points="116.88,-18.5 61.12,-18.5 61.12,0 116.88,0 116.88,-18.5"/>
<text text-anchor="middle" x="89" y="-5" font-family="Helvetica,sans-Serif" font-size="10.00">compat.h</text>
</a>
</g>
</g>
<!-- Node2&#45;&gt;Node3 -->
<g id="edge2_Node000002_Node000003" class="edge">
<title>Node2&#45;&gt;Node3</title>
<g id="a_edge2_Node000002_Node000003"><a xlink:title=" ">
<path fill="none" stroke="#63b8ff" d="M129.91,-54.08C122.99,-46.67 112.83,-35.78 104.37,-26.72"/>
<polygon fill="#63b8ff" stroke="#63b8ff" points="107.32,-24.68 97.94,-19.76 102.21,-29.46 107.32,-24.68"/>
</a>
</g>
</g>
<!-- Node4&#45;&gt;Node3 -->
<g id="edge4_Node000004_Node000003" class="edge">
<title>Node4&#45;&gt;Node3</title>
<g id="a_edge4_Node000004_Node000003"><a xlink:title=" ">
<path fill="none" stroke="#63b8ff" d="M48.93,-54.08C55.71,-46.67 65.65,-35.78 73.94,-26.72"/>
<polygon fill="#63b8ff" stroke="#63b8ff" points="76.06,-29.5 80.22,-19.76 70.89,-24.78 76.06,-29.5"/>
</a>
</g>
</g>
<!-- Node6 -->
<g id="Node000006" class="node">
<title>Node6</title>
<g id="a_Node000006"><a xlink:href="a01376.html" target="_top" xlink:title=" ">
<polygon fill="white" stroke="#666666" points="348.62,-127.5 291.38,-127.5 291.38,-109 348.62,-109 348.62,-127.5"/>
<text text-anchor="middle" x="320" y="-114" font-family="Helvetica,sans-Serif" font-size="10.00">utils/list.h</text>
</a>
</g>
</g>
<!-- Node5&#45;&gt;Node6 -->
<g id="edge6_Node000005_Node000006" class="edge">
<title>Node5&#45;&gt;Node6</title>
<g id="a_edge6_Node000005_Node000006"><a xlink:title=" ">
<path fill="none" stroke="#63b8ff" d="M182.25,-163.08C209.59,-154.38 251.93,-140.91 282.45,-131.2"/>
<polygon fill="#63b8ff" stroke="#63b8ff" points="283.25,-134.3 291.71,-127.93 281.12,-127.63 283.25,-134.3"/>
</a>
</g>
</g>
<!-- Node9 -->
<g id="Node000009" class="node">
<title>Node9</title>
<g id="a_Node000009"><a xlink:href="a01382.html" target="_top" xlink:title=" ">
<polygon fill="white" stroke="#666666" points="188.62,-127.5 107.38,-127.5 107.38,-109 188.62,-109 188.62,-127.5"/>
<text text-anchor="middle" x="148" y="-114" font-family="Helvetica,sans-Serif" font-size="10.00">utils/spinlock.h</text>
</a>
</g>
</g>
<!-- Node5&#45;&gt;Node9 -->
<g id="edge9_Node000005_Node000009" class="edge">
<title>Node5&#45;&gt;Node9</title>
<g id="a_edge9_Node000005_Node000009"><a xlink:title=" ">
<path fill="none" stroke="#63b8ff" d="M153.84,-163.08C152.96,-156.43 151.7,-146.99 150.58,-138.58"/>
<polygon fill="#63b8ff" stroke="#63b8ff" points="153.93,-138.21 149.13,-128.76 146.99,-139.13 153.93,-138.21"/>
</a>
</g>
</g>
<!-- Node10 -->
<g id="Node000010" class="node">
<title>Node10</title>
<g id="a_Node000010"><a xlink:title=" ">
<polygon fill="#e0e0e0" stroke="#999999" points="273.12,-127.5 206.88,-127.5 206.88,-109 273.12,-109 273.12,-127.5"/>
<text text-anchor="middle" x="240" y="-114" font-family="Helvetica,sans-Serif" font-size="10.00">arch/alloc.h</text>
</a>
</g>
</g>
<!-- Node5&#45;&gt;Node10 -->
<g id="edge12_Node000005_Node000010" class="edge">
<title>Node5&#45;&gt;Node10</title>
<g id="a_edge12_Node000005_Node000010"><a xlink:title=" ">
<path fill="none" stroke="#63b8ff" d="M169.04,-163.08C181.96,-155.1 201.37,-143.11 216.63,-133.69"/>
<polygon fill="#63b8ff" stroke="#63b8ff" points="218.27,-136.16 224.94,-127.93 214.6,-130.21 218.27,-136.16"/>
</a>
</g>
</g>
<!-- Node7 -->
<g id="Node000007" class="node">
<title>Node7</title>
<g id="a_Node000007"><a xlink:title=" ">
<polygon fill="#e0e0e0" stroke="#999999" points="387.25,-73 336.75,-73 336.75,-54.5 387.25,-54.5 387.25,-73"/>
<text text-anchor="middle" x="362" y="-59.5" font-family="Helvetica,sans-Serif" font-size="10.00">stddef.h</text>
</a>
</g>
</g>
<!-- Node6&#45;&gt;Node7 -->
<g id="edge7_Node000006_Node000007" class="edge">
<title>Node6&#45;&gt;Node7</title>
<g id="a_edge7_Node000006_Node000007"><a xlink:title=" ">
<path fill="none" stroke="#63b8ff" d="M326.94,-108.58C332.75,-101.32 341.21,-90.73 348.37,-81.78"/>
<polygon fill="#63b8ff" stroke="#63b8ff" points="351.68,-84.25 355.19,-74.26 346.21,-79.88 351.68,-84.25"/>
</a>
</g>
</g>
<!-- Node8 -->
<g id="Node000008" class="node">
<title>Node8</title>
<g id="a_Node000008"><a xlink:title=" ">
<polygon fill="#e0e0e0" stroke="#999999" points="301.75,-73 254.25,-73 254.25,-54.5 301.75,-54.5 301.75,-73"/>
<text text-anchor="middle" x="278" y="-59.5" font-family="Helvetica,sans-Serif" font-size="10.00">stdint.h</text>
</a>
</g>
</g>
<!-- Node6&#45;&gt;Node8 -->
<g id="edge8_Node000006_Node000008" class="edge">
<title>Node6&#45;&gt;Node8</title>
<g id="a_edge8_Node000006_Node000008"><a xlink:title=" ">
<path fill="none" stroke="#63b8ff" d="M313.06,-108.58C307.25,-101.32 298.79,-90.73 291.63,-81.78"/>
<polygon fill="#63b8ff" stroke="#63b8ff" points="293.79,-79.88 284.81,-74.26 288.32,-84.25 293.79,-79.88"/>
</a>
</g>
</g>
<!-- Node9&#45;&gt;Node2 -->
<g id="edge11_Node000009_Node000002" class="edge">
<title>Node9&#45;&gt;Node2</title>
<g id="a_edge11_Node000009_Node000002"><a xlink:title=" ">
<path fill="none" stroke="#63b8ff" d="M146.35,-108.58C145.07,-101.85 143.24,-92.27 141.63,-83.79"/>
<polygon fill="#63b8ff" stroke="#63b8ff" points="144.93,-83.43 139.62,-74.26 138.05,-84.74 144.93,-83.43"/>
</a>
</g>
</g>
<!-- Node9&#45;&gt;Node8 -->
<g id="edge10_Node000009_Node000008" class="edge">
<title>Node9&#45;&gt;Node8</title>
<g id="a_edge10_Node000009_Node000008"><a xlink:title=" ">
<path fill="none" stroke="#63b8ff" d="M169.47,-108.58C190.45,-100.11 222.63,-87.11 246.51,-77.47"/>
<polygon fill="#63b8ff" stroke="#63b8ff" points="247.54,-80.42 255.5,-73.43 244.92,-73.93 247.54,-80.42"/>
</a>
</g>
</g>
<!-- Node15&#45;&gt;Node7 -->
<g id="edge18_Node000015_Node000007" class="edge">
<title>Node15&#45;&gt;Node7</title>
<g id="a_edge18_Node000015_Node000007"><a xlink:title=" ">
<path fill="none" stroke="#63b8ff" d="M522.84,-163.18C522.11,-149.78 518.75,-123.87 504,-109 476.02,-80.79 430.38,-70.51 398.41,-66.79"/>
<polygon fill="#63b8ff" stroke="#63b8ff" points="399.03,-63.24 388.73,-65.73 398.34,-70.2 399.03,-63.24"/>
</a>
</g>
</g>
<!-- Node16 -->
<g id="Node000016" class="node">
<title>Node16</title>
<g id="a_Node000016"><a xlink:title=" ">
<polygon fill="#e0e0e0" stroke="#999999" points="494.75,-127.5 429.25,-127.5 429.25,-109 494.75,-109 494.75,-127.5"/>
<text text-anchor="middle" x="462" y="-114" font-family="Helvetica,sans-Serif" font-size="10.00">sys/types.h</text>
</a>
</g>
</g>
<!-- Node15&#45;&gt;Node16 -->
<g id="edge19_Node000015_Node000016" class="edge">
<title>Node15&#45;&gt;Node16</title>
<g id="a_edge19_Node000015_Node000016"><a xlink:title=" ">
<path fill="none" stroke="#63b8ff" d="M512.93,-163.08C504.04,-155.44 490.88,-144.11 480.17,-134.88"/>
<polygon fill="#63b8ff" stroke="#63b8ff" points="482.75,-131.63 472.89,-127.76 478.18,-136.93 482.75,-131.63"/>
</a>
</g>
</g>
</g>
</svg>
