<?xml version="1.0" encoding="UTF-8" standalone="no"?>
<!DOCTYPE svg PUBLIC "-//W3C//DTD SVG 1.1//EN"
 "http://www.w3.org/Graphics/SVG/1.1/DTD/svg11.dtd">
<!-- Generated by graphviz version 12.2.1 (0)
 -->
<!-- Title: arax_object_repo_init Pages: 1 -->
<svg width="355pt" height="27pt"
 viewBox="0.00 0.00 355.25 26.50" xmlns="http://www.w3.org/2000/svg" xmlns:xlink="http://www.w3.org/1999/xlink">
<g id="graph0" class="graph" transform="scale(1 1) rotate(0) translate(4 22.5)">
<title>arax_object_repo_init</title>
<!-- Node1 -->
<g id="Node000001" class="node">
<title>Node1</title>
<g id="a_Node000001"><a xlink:title=" ">
<polygon fill="#999999" stroke="#666666" points="109,-18.5 0,-18.5 0,0 109,0 109,-18.5"/>
<text text-anchor="middle" x="54.5" y="-5" font-family="Helvetica,sans-Serif" font-size="10.00">arax_object_repo_init</text>
</a>
</g>
</g>
<!-- Node2 -->
<g id="Node000002" class="node">
<title>Node2</title>
<g id="a_Node000002"><a xlink:href="a01955.html#ab36e49d2e694b1da49504a689ed48e4a" target="_top" xlink:title=" ">
<polygon fill="white" stroke="#666666" points="215,-18.5 145,-18.5 145,0 215,0 215,-18.5"/>
<text text-anchor="middle" x="180" y="-5" font-family="Helvetica,sans-Serif" font-size="10.00">utils_list_init</text>
</a>
</g>
</g>
<!-- Node1&#45;&gt;Node2 -->
<g id="edge1_Node000001_Node000002" class="edge">
<title>Node1&#45;&gt;Node2</title>
<g id="a_edge1_Node000001_Node000002"><a xlink:title=" ">
<path fill="none" stroke="#63b8ff" d="M109.31,-9.25C117.25,-9.25 125.37,-9.25 133.13,-9.25"/>
<polygon fill="#63b8ff" stroke="#63b8ff" points="133.05,-12.75 143.05,-9.25 133.05,-5.75 133.05,-12.75"/>
</a>
</g>
</g>
<!-- Node3 -->
<g id="Node000003" class="node">
<title>Node3</title>
<g id="a_Node000003"><a xlink:href="a01955.html#a63f2791c9b5c8e2fa15967cfafb7ccbb" target="_top" xlink:title=" ">
<polygon fill="white" stroke="#666666" points="347.25,-18.5 251,-18.5 251,0 347.25,0 347.25,-18.5"/>
<text text-anchor="middle" x="299.12" y="-5" font-family="Helvetica,sans-Serif" font-size="10.00">utils_list_node_init</text>
</a>
</g>
</g>
<!-- Node2&#45;&gt;Node3 -->
<g id="edge2_Node000002_Node000003" class="edge">
<title>Node2&#45;&gt;Node3</title>
<g id="a_edge2_Node000002_Node000003"><a xlink:title=" ">
<path fill="none" stroke="#63b8ff" d="M215.19,-9.25C222.81,-9.25 231.09,-9.25 239.37,-9.25"/>
<polygon fill="#63b8ff" stroke="#63b8ff" points="239.1,-12.75 249.1,-9.25 239.1,-5.75 239.1,-12.75"/>
</a>
</g>
</g>
</g>
</svg>
