<?xml version="1.0" encoding="UTF-8" standalone="no"?>
<!DOCTYPE svg PUBLIC "-//W3C//DTD SVG 1.1//EN"
 "http://www.w3.org/Graphics/SVG/1.1/DTD/svg11.dtd">
<!-- Generated by graphviz version 12.2.1 (0)
 -->
<!-- Title: ARAX_OBJ_DTOR_DECL Pages: 1 -->
<svg width="1511pt" height="472pt"
 viewBox="0.00 0.00 1511.25 471.50" xmlns="http://www.w3.org/2000/svg" xmlns:xlink="http://www.w3.org/1999/xlink">
<g id="graph0" class="graph" transform="scale(1 1) rotate(0) translate(4 467.5)">
<title>ARAX_OBJ_DTOR_DECL</title>
<!-- Node1 -->
<g id="Node000001" class="node">
<title>Node1</title>
<g id="a_Node000001"><a xlink:title=" ">
<polygon fill="#999999" stroke="#666666" points="132.25,-342.5 0,-342.5 0,-324 132.25,-324 132.25,-342.5"/>
<text text-anchor="middle" x="66.12" y="-329" font-family="Helvetica,sans-Serif" font-size="10.00">ARAX_OBJ_DTOR_DECL</text>
</a>
</g>
</g>
<!-- Node2 -->
<g id="Node000002" class="node">
<title>Node2</title>
<g id="a_Node000002"><a xlink:href="a01922.html#a369e660e3e344bc697d98174059ead3c" target="_top" xlink:title=" ">
<polygon fill="white" stroke="#666666" points="253.25,-463.5 171.25,-463.5 171.25,-445 253.25,-445 253.25,-463.5"/>
<text text-anchor="middle" x="212.25" y="-450" font-family="Helvetica,sans-Serif" font-size="10.00">arax_data_size</text>
</a>
</g>
</g>
<!-- Node1&#45;&gt;Node2 -->
<g id="edge1_Node000001_Node000002" class="edge">
<title>Node1&#45;&gt;Node2</title>
<g id="a_edge1_Node000001_Node000002"><a xlink:title=" ">
<path fill="none" stroke="#63b8ff" d="M75.3,-342.79C91.62,-361.43 129.94,-403.29 168.25,-431.25 172.1,-434.06 176.33,-436.74 180.59,-439.22"/>
<polygon fill="#63b8ff" stroke="#63b8ff" points="178.64,-442.15 189.1,-443.87 182,-436 178.64,-442.15"/>
</a>
</g>
</g>
<!-- Node3 -->
<g id="Node000003" class="node">
<title>Node3</title>
<g id="a_Node000003"><a xlink:href="a01925.html#afe7e4a63c40fbcaae742b8de8693483f" target="_top" xlink:title=" ">
<polygon fill="white" stroke="#666666" points="864.75,-283.5 760.25,-283.5 760.25,-265 864.75,-265 864.75,-283.5"/>
<text text-anchor="middle" x="812.5" y="-270" font-family="Helvetica,sans-Serif" font-size="10.00">arax_object_ref_dec</text>
</a>
</g>
</g>
<!-- Node1&#45;&gt;Node3 -->
<g id="edge2_Node000001_Node000003" class="edge">
<title>Node1&#45;&gt;Node3</title>
<g id="a_edge2_Node000001_Node000003"><a xlink:title=" ">
<path fill="none" stroke="#63b8ff" d="M85.41,-342.89C129.04,-364.95 243.2,-417.25 345,-417.25 345,-417.25 345,-417.25 496.12,-417.25 594.21,-417.25 637.86,-457.54 716,-398.25 752.3,-370.71 721.11,-335.75 752,-302.25 756.88,-296.96 762.95,-292.58 769.35,-288.98"/>
<polygon fill="#63b8ff" stroke="#63b8ff" points="770.76,-292.19 778.18,-284.62 767.66,-285.91 770.76,-292.19"/>
</a>
</g>
</g>
<!-- Node13 -->
<g id="Node000013" class="node">
<title>Node13</title>
<g id="a_Node000013"><a xlink:href="a02188.html#ga739047efb2b454e6c1ac54138ef2985d" target="_top" xlink:title=" ">
<polygon fill="white" stroke="#666666" points="251.38,-92.5 173.12,-92.5 173.12,-74 251.38,-74 251.38,-92.5"/>
<text text-anchor="middle" x="212.25" y="-79" font-family="Helvetica,sans-Serif" font-size="10.00">arax_proc_get</text>
</a>
</g>
</g>
<!-- Node1&#45;&gt;Node13 -->
<g id="edge14_Node000001_Node000013" class="edge">
<title>Node1&#45;&gt;Node13</title>
<g id="a_edge14_Node000001_Node000013"><a xlink:title=" ">
<path fill="none" stroke="#63b8ff" d="M72.6,-323.75C93.82,-286.94 170.95,-153.16 200.04,-102.7"/>
<polygon fill="#63b8ff" stroke="#63b8ff" points="203.05,-104.48 205.01,-94.07 196.99,-100.98 203.05,-104.48"/>
</a>
</g>
</g>
<!-- Node18 -->
<g id="Node000018" class="node">
<title>Node18</title>
<g id="a_Node000018"><a xlink:href="a02189.html#gac9f0f3fbb14da879d3ff09bd367bbb24" target="_top" xlink:title=" ">
<polygon fill="white" stroke="#666666" points="256.25,-231.5 168.25,-231.5 168.25,-213 256.25,-213 256.25,-231.5"/>
<text text-anchor="middle" x="212.25" y="-218" font-family="Helvetica,sans-Serif" font-size="10.00">arax_task_issue</text>
</a>
</g>
</g>
<!-- Node1&#45;&gt;Node18 -->
<g id="edge19_Node000001_Node000018" class="edge">
<title>Node1&#45;&gt;Node18</title>
<g id="a_edge19_Node000001_Node000018"><a xlink:title=" ">
<path fill="none" stroke="#63b8ff" d="M79.66,-323.59C104.26,-304.65 159.09,-262.42 189.64,-238.89"/>
<polygon fill="#63b8ff" stroke="#63b8ff" points="191.65,-241.76 197.44,-232.89 187.38,-236.22 191.65,-241.76"/>
</a>
</g>
</g>
<!-- Node4 -->
<g id="Node000004" class="node">
<title>Node4</title>
<g id="a_Node000004"><a xlink:href="a01928.html#a9f30684f01feac766b42d622970ed5a6" target="_top" xlink:title=" ">
<polygon fill="white" stroke="#666666" points="1015.38,-230.5 916.12,-230.5 916.12,-212 1015.38,-212 1015.38,-230.5"/>
<text text-anchor="middle" x="965.75" y="-217" font-family="Helvetica,sans-Serif" font-size="10.00">arax_pipe_size_inc</text>
</a>
</g>
</g>
<!-- Node3&#45;&gt;Node4 -->
<g id="edge3_Node000003_Node000004" class="edge">
<title>Node3&#45;&gt;Node4</title>
<g id="a_edge3_Node000003_Node000004"><a xlink:title=" ">
<path fill="none" stroke="#63b8ff" d="M841.24,-264.53C865.05,-256.19 899.6,-244.08 926.11,-234.79"/>
<polygon fill="#63b8ff" stroke="#63b8ff" points="927.22,-238.11 935.5,-231.5 924.91,-231.5 927.22,-238.11"/>
</a>
</g>
</g>
<!-- Node12 -->
<g id="Node000012" class="node">
<title>Node12</title>
<g id="a_Node000012"><a xlink:href="a01955.html#a0c85e5516222ab7e7fc354c614760ec5" target="_top" xlink:title=" ">
<polygon fill="white" stroke="#666666" points="1000.75,-285.5 930.75,-285.5 930.75,-267 1000.75,-267 1000.75,-285.5"/>
<text text-anchor="middle" x="965.75" y="-272" font-family="Helvetica,sans-Serif" font-size="10.00">utils_list_del</text>
</a>
</g>
</g>
<!-- Node3&#45;&gt;Node12 -->
<g id="edge13_Node000003_Node000012" class="edge">
<title>Node3&#45;&gt;Node12</title>
<g id="a_edge13_Node000003_Node000012"><a xlink:title=" ">
<path fill="none" stroke="#63b8ff" d="M865.13,-274.93C882.65,-275.16 902.09,-275.42 919.11,-275.65"/>
<polygon fill="#63b8ff" stroke="#63b8ff" points="918.9,-279.14 928.94,-275.78 918.99,-272.14 918.9,-279.14"/>
</a>
</g>
</g>
<!-- Node4&#45;&gt;Node4 -->
<g id="edge4_Node000004_Node000004" class="edge">
<title>Node4&#45;&gt;Node4</title>
<g id="a_edge4_Node000004_Node000004"><a xlink:title=" ">
<path fill="none" stroke="#63b8ff" d="M942.65,-230.75C931.41,-239.32 939.11,-248.5 965.75,-248.5 980.73,-248.5 989.73,-245.59 992.73,-241.53"/>
<polygon fill="#63b8ff" stroke="#63b8ff" points="996.04,-240.4 989.36,-232.17 989.45,-242.76 996.04,-240.4"/>
</a>
</g>
</g>
<!-- Node5 -->
<g id="Node000005" class="node">
<title>Node5</title>
<g id="a_Node000005"><a xlink:href="a01940.html#a7d3a67fa4eeb00cc9508a7ffe451a02f" target="_top" xlink:title=" ">
<polygon fill="white" stroke="#666666" points="1171.25,-230.5 1060,-230.5 1060,-212 1171.25,-212 1171.25,-230.5"/>
<text text-anchor="middle" x="1115.62" y="-217" font-family="Helvetica,sans-Serif" font-size="10.00">arax_throttle_size_inc</text>
</a>
</g>
</g>
<!-- Node4&#45;&gt;Node5 -->
<g id="edge5_Node000004_Node000005" class="edge">
<title>Node4&#45;&gt;Node5</title>
<g id="a_edge5_Node000004_Node000005"><a xlink:title=" ">
<path fill="none" stroke="#63b8ff" d="M1015.58,-221.25C1026.07,-221.25 1037.32,-221.25 1048.35,-221.25"/>
<polygon fill="#63b8ff" stroke="#63b8ff" points="1048.2,-224.75 1058.2,-221.25 1048.2,-217.75 1048.2,-224.75"/>
</a>
</g>
</g>
<!-- Node5&#45;&gt;Node5 -->
<g id="edge6_Node000005_Node000005" class="edge">
<title>Node5&#45;&gt;Node5</title>
<g id="a_edge6_Node000005_Node000005"><a xlink:title=" ">
<path fill="none" stroke="#63b8ff" d="M1092.52,-230.75C1081.29,-239.32 1088.99,-248.5 1115.62,-248.5 1130.61,-248.5 1139.6,-245.59 1142.6,-241.53"/>
<polygon fill="#63b8ff" stroke="#63b8ff" points="1145.91,-240.4 1139.24,-232.17 1139.33,-242.76 1145.91,-240.4"/>
</a>
</g>
</g>
<!-- Node6 -->
<g id="Node000006" class="node">
<title>Node6</title>
<g id="a_Node000006"><a xlink:href="a02364.html#aed6af4d83e934e3e654ead541b15f2d9" target="_top" xlink:title=" ">
<polygon fill="white" stroke="#666666" points="1323,-248.5 1214,-248.5 1214,-230 1323,-230 1323,-248.5"/>
<text text-anchor="middle" x="1268.5" y="-235" font-family="Helvetica,sans-Serif" font-size="10.00">async_condition_lock</text>
</a>
</g>
</g>
<!-- Node5&#45;&gt;Node6 -->
<g id="edge7_Node000005_Node000006" class="edge">
<title>Node5&#45;&gt;Node6</title>
<g id="a_edge7_Node000005_Node000006"><a xlink:title=" ">
<path fill="none" stroke="#63b8ff" d="M1171.52,-227.8C1181.5,-228.99 1192,-230.24 1202.24,-231.46"/>
<polygon fill="#63b8ff" stroke="#63b8ff" points="1201.81,-234.94 1212.15,-232.65 1202.64,-227.99 1201.81,-234.94"/>
</a>
</g>
</g>
<!-- Node8 -->
<g id="Node000008" class="node">
<title>Node8</title>
<g id="a_Node000008"><a xlink:href="a02364.html#a45a896fb606c2aa66a5a4c2af59ce494" target="_top" xlink:title=" ">
<polygon fill="white" stroke="#666666" points="1326,-165.5 1211,-165.5 1211,-147 1326,-147 1326,-165.5"/>
<text text-anchor="middle" x="1268.5" y="-152" font-family="Helvetica,sans-Serif" font-size="10.00">async_condition_notify</text>
</a>
</g>
</g>
<!-- Node5&#45;&gt;Node8 -->
<g id="edge9_Node000005_Node000008" class="edge">
<title>Node5&#45;&gt;Node8</title>
<g id="a_edge9_Node000005_Node000008"><a xlink:title=" ">
<path fill="none" stroke="#63b8ff" d="M1147.79,-211.55C1155.99,-208.76 1164.77,-205.58 1172.75,-202.25 1189.26,-195.37 1192.68,-192.1 1208.75,-184.25 1217.87,-179.8 1227.83,-175.02 1236.91,-170.7"/>
<polygon fill="#63b8ff" stroke="#63b8ff" points="1238.16,-173.97 1245.7,-166.52 1235.16,-167.65 1238.16,-173.97"/>
</a>
</g>
</g>
<!-- Node10 -->
<g id="Node000010" class="node">
<title>Node10</title>
<g id="a_Node000010"><a xlink:href="a02364.html#a3bbcb7c4c024e99d5c4ba52b61dfbbf7" target="_top" xlink:title=" ">
<polygon fill="white" stroke="#666666" points="1328.25,-211.5 1208.75,-211.5 1208.75,-193 1328.25,-193 1328.25,-211.5"/>
<text text-anchor="middle" x="1268.5" y="-198" font-family="Helvetica,sans-Serif" font-size="10.00">async_condition_unlock</text>
</a>
</g>
</g>
<!-- Node5&#45;&gt;Node10 -->
<g id="edge11_Node000005_Node000010" class="edge">
<title>Node5&#45;&gt;Node10</title>
<g id="a_edge11_Node000005_Node000010"><a xlink:title=" ">
<path fill="none" stroke="#63b8ff" d="M1171.52,-214.34C1179.84,-213.29 1188.52,-212.2 1197.11,-211.11"/>
<polygon fill="#63b8ff" stroke="#63b8ff" points="1197.33,-214.61 1206.82,-209.89 1196.46,-207.67 1197.33,-214.61"/>
</a>
</g>
</g>
<!-- Node7 -->
<g id="Node000007" class="node">
<title>Node7</title>
<g id="a_Node000007"><a xlink:href="a02358.html#aebf9e72bb6cbd8b9e33489d46c25075d" target="_top" xlink:title=" ">
<polygon fill="white" stroke="#666666" points="1492,-248.5 1375.5,-248.5 1375.5,-230 1492,-230 1492,-248.5"/>
<text text-anchor="middle" x="1433.75" y="-235" font-family="Helvetica,sans-Serif" font-size="10.00">async_completion_wait</text>
</a>
</g>
</g>
<!-- Node6&#45;&gt;Node7 -->
<g id="edge8_Node000006_Node000007" class="edge">
<title>Node6&#45;&gt;Node7</title>
<g id="a_edge8_Node000006_Node000007"><a xlink:title=" ">
<path fill="none" stroke="#63b8ff" d="M1323.41,-239.25C1336.39,-239.25 1350.44,-239.25 1364.01,-239.25"/>
<polygon fill="#63b8ff" stroke="#63b8ff" points="1363.74,-242.75 1373.74,-239.25 1363.74,-235.75 1363.74,-242.75"/>
</a>
</g>
</g>
<!-- Node9 -->
<g id="Node000009" class="node">
<title>Node9</title>
<g id="a_Node000009"><a xlink:href="a02358.html#a0fa370eee5160963e617d1daf1c07363" target="_top" xlink:title=" ">
<polygon fill="white" stroke="#666666" points="1490.12,-165.5 1377.38,-165.5 1377.38,-147 1490.12,-147 1490.12,-165.5"/>
<text text-anchor="middle" x="1433.75" y="-152" font-family="Helvetica,sans-Serif" font-size="10.00">async_semaphore_inc</text>
</a>
</g>
</g>
<!-- Node8&#45;&gt;Node9 -->
<g id="edge10_Node000008_Node000009" class="edge">
<title>Node8&#45;&gt;Node9</title>
<g id="a_edge10_Node000008_Node000009"><a xlink:title=" ">
<path fill="none" stroke="#63b8ff" d="M1326.14,-156.25C1338.89,-156.25 1352.54,-156.25 1365.67,-156.25"/>
<polygon fill="#63b8ff" stroke="#63b8ff" points="1365.53,-159.75 1375.53,-156.25 1365.52,-152.75 1365.53,-159.75"/>
</a>
</g>
</g>
<!-- Node11 -->
<g id="Node000011" class="node">
<title>Node11</title>
<g id="a_Node000011"><a xlink:href="a02358.html#ad1d30ecbf6bff6457b680aa940281072" target="_top" xlink:title=" ">
<polygon fill="white" stroke="#666666" points="1503.25,-211.5 1364.25,-211.5 1364.25,-193 1503.25,-193 1503.25,-211.5"/>
<text text-anchor="middle" x="1433.75" y="-198" font-family="Helvetica,sans-Serif" font-size="10.00">async_completion_complete</text>
</a>
</g>
</g>
<!-- Node10&#45;&gt;Node11 -->
<g id="edge12_Node000010_Node000011" class="edge">
<title>Node10&#45;&gt;Node11</title>
<g id="a_edge12_Node000010_Node000011"><a xlink:title=" ">
<path fill="none" stroke="#63b8ff" d="M1328.44,-202.25C1336.26,-202.25 1344.38,-202.25 1352.49,-202.25"/>
<polygon fill="#63b8ff" stroke="#63b8ff" points="1352.39,-205.75 1362.39,-202.25 1352.39,-198.75 1352.39,-205.75"/>
</a>
</g>
</g>
<!-- Node14 -->
<g id="Node000014" class="node">
<title>Node14</title>
<g id="a_Node000014"><a xlink:href="a01925.html#a9255b8011e6d7c9b28c7df40065efb28" target="_top" xlink:title=" ">
<polygon fill="white" stroke="#666666" points="863.25,-166.5 761.75,-166.5 761.75,-148 863.25,-148 863.25,-166.5"/>
<text text-anchor="middle" x="812.5" y="-153" font-family="Helvetica,sans-Serif" font-size="10.00">arax_object_ref_inc</text>
</a>
</g>
</g>
<!-- Node13&#45;&gt;Node14 -->
<g id="edge15_Node000013_Node000014" class="edge">
<title>Node13&#45;&gt;Node14</title>
<g id="a_edge15_Node000013_Node000014"><a xlink:title=" ">
<path fill="none" stroke="#63b8ff" d="M251.76,-78.54C337.29,-69.41 548.75,-54.13 716,-102.25 743.61,-110.2 771.7,-127.75 790.19,-140.9"/>
<polygon fill="#63b8ff" stroke="#63b8ff" points="788.07,-143.68 798.2,-146.77 792.21,-138.04 788.07,-143.68"/>
</a>
</g>
</g>
<!-- Node15 -->
<g id="Node000015" class="node">
<title>Node15</title>
<g id="a_Node000015"><a xlink:href="a01928.html#a4c22ae41507232dc3efc725428cbfc7b" target="_top" xlink:title=" ">
<polygon fill="white" stroke="#666666" points="397.88,-55.5 294.12,-55.5 294.12,-37 397.88,-37 397.88,-55.5"/>
<text text-anchor="middle" x="346" y="-42" font-family="Helvetica,sans-Serif" font-size="10.00">arax_pipe_find_proc</text>
</a>
</g>
</g>
<!-- Node13&#45;&gt;Node15 -->
<g id="edge16_Node000013_Node000015" class="edge">
<title>Node13&#45;&gt;Node15</title>
<g id="a_edge16_Node000013_Node000015"><a xlink:title=" ">
<path fill="none" stroke="#63b8ff" d="M247.87,-73.53C263.75,-69.07 282.79,-63.72 299.79,-58.95"/>
<polygon fill="#63b8ff" stroke="#63b8ff" points="300.48,-62.39 309.16,-56.32 298.58,-55.65 300.48,-62.39"/>
</a>
</g>
</g>
<!-- Node16 -->
<g id="Node000016" class="node">
<title>Node16</title>
<g id="a_Node000016"><a xlink:href="a01925.html#aa750d1c54fe430c1294b9c8a9d3e1466" target="_top" xlink:title=" ">
<polygon fill="white" stroke="#666666" points="549.25,-55.5 441,-55.5 441,-37 549.25,-37 549.25,-55.5"/>
<text text-anchor="middle" x="495.12" y="-42" font-family="Helvetica,sans-Serif" font-size="10.00">arax_object_list_lock</text>
</a>
</g>
</g>
<!-- Node15&#45;&gt;Node16 -->
<g id="edge17_Node000015_Node000016" class="edge">
<title>Node15&#45;&gt;Node16</title>
<g id="a_edge17_Node000015_Node000016"><a xlink:title=" ">
<path fill="none" stroke="#63b8ff" d="M398.04,-46.25C408.16,-46.25 418.91,-46.25 429.41,-46.25"/>
<polygon fill="#63b8ff" stroke="#63b8ff" points="429.16,-49.75 439.16,-46.25 429.16,-42.75 429.16,-49.75"/>
</a>
</g>
</g>
<!-- Node17 -->
<g id="Node000017" class="node">
<title>Node17</title>
<g id="a_Node000017"><a xlink:href="a01925.html#abb03d3cde2d1354544cd082482c3f185" target="_top" xlink:title=" ">
<polygon fill="white" stroke="#666666" points="554.5,-18.5 435.75,-18.5 435.75,0 554.5,0 554.5,-18.5"/>
<text text-anchor="middle" x="495.12" y="-5" font-family="Helvetica,sans-Serif" font-size="10.00">arax_object_list_unlock</text>
</a>
</g>
</g>
<!-- Node15&#45;&gt;Node17 -->
<g id="edge18_Node000015_Node000017" class="edge">
<title>Node15&#45;&gt;Node17</title>
<g id="a_edge18_Node000015_Node000017"><a xlink:title=" ">
<path fill="none" stroke="#63b8ff" d="M385.66,-36.53C403.66,-32 425.3,-26.56 444.5,-21.73"/>
<polygon fill="#63b8ff" stroke="#63b8ff" points="445.16,-25.17 454,-19.34 443.45,-18.38 445.16,-25.17"/>
</a>
</g>
</g>
<!-- Node19 -->
<g id="Node000019" class="node">
<title>Node19</title>
<g id="a_Node000019"><a xlink:href="a01937.html#a27bee94f7a23281c8b2b72ec433f6059" target="_top" xlink:title=" ">
<polygon fill="white" stroke="#666666" points="388.5,-268.5 303.5,-268.5 303.5,-250 388.5,-250 388.5,-268.5"/>
<text text-anchor="middle" x="346" y="-255" font-family="Helvetica,sans-Serif" font-size="10.00">arax_task_alloc</text>
</a>
</g>
</g>
<!-- Node18&#45;&gt;Node19 -->
<g id="edge20_Node000018_Node000019" class="edge">
<title>Node18&#45;&gt;Node19</title>
<g id="a_edge20_Node000018_Node000019"><a xlink:title=" ">
<path fill="none" stroke="#63b8ff" d="M247.87,-231.97C263.75,-236.43 282.79,-241.78 299.79,-246.55"/>
<polygon fill="#63b8ff" stroke="#63b8ff" points="298.58,-249.85 309.16,-249.18 300.48,-243.11 298.58,-249.85"/>
</a>
</g>
</g>
<!-- Node34 -->
<g id="Node000034" class="node">
<title>Node34</title>
<g id="a_Node000034"><a xlink:href="a01937.html#aa3cb73b347940187fb3399f51b1a55b7" target="_top" xlink:title=" ">
<polygon fill="white" stroke="#666666" points="399.75,-231.5 292.25,-231.5 292.25,-213 399.75,-213 399.75,-231.5"/>
<text text-anchor="middle" x="346" y="-218" font-family="Helvetica,sans-Serif" font-size="10.00">arax_task_host_data</text>
</a>
</g>
</g>
<!-- Node18&#45;&gt;Node34 -->
<g id="edge47_Node000018_Node000034" class="edge">
<title>Node18&#45;&gt;Node34</title>
<g id="a_edge47_Node000018_Node000034"><a xlink:title=" ">
<path fill="none" stroke="#63b8ff" d="M256.39,-222.25C264.23,-222.25 272.56,-222.25 280.86,-222.25"/>
<polygon fill="#63b8ff" stroke="#63b8ff" points="280.59,-225.75 290.59,-222.25 280.59,-218.75 280.59,-225.75"/>
</a>
</g>
</g>
<!-- Node35 -->
<g id="Node000035" class="node">
<title>Node35</title>
<g id="a_Node000035"><a xlink:href="a01937.html#ace08f924cb86d1310099621564536657" target="_top" xlink:title=" ">
<polygon fill="white" stroke="#666666" points="700.25,-129.5 606.25,-129.5 606.25,-111 700.25,-111 700.25,-129.5"/>
<text text-anchor="middle" x="653.25" y="-116" font-family="Helvetica,sans-Serif" font-size="10.00">arax_task_submit</text>
</a>
</g>
</g>
<!-- Node18&#45;&gt;Node35 -->
<g id="edge48_Node000018_Node000035" class="edge">
<title>Node18&#45;&gt;Node35</title>
<g id="a_edge48_Node000018_Node000035"><a xlink:title=" ">
<path fill="none" stroke="#63b8ff" d="M223.54,-212.6C237.76,-199.88 264.82,-177.86 292.25,-167.25 393.67,-128.03 521.89,-120.33 594.73,-119.47"/>
<polygon fill="#63b8ff" stroke="#63b8ff" points="594.44,-122.97 604.42,-119.4 594.39,-115.97 594.44,-122.97"/>
</a>
</g>
</g>
<!-- Node39 -->
<g id="Node000039" class="node">
<title>Node39</title>
<g id="a_Node000039"><a xlink:href="a01910.html#a226d4d420328a42fd671699ae60c4c3a" target="_top" xlink:title=" ">
<polygon fill="white" stroke="#666666" points="392.25,-194.5 299.75,-194.5 299.75,-176 392.25,-176 392.25,-194.5"/>
<text text-anchor="middle" x="346" y="-181" font-family="Helvetica,sans-Serif" font-size="10.00">check_semantics</text>
</a>
</g>
</g>
<!-- Node18&#45;&gt;Node39 -->
<g id="edge56_Node000018_Node000039" class="edge">
<title>Node18&#45;&gt;Node39</title>
<g id="a_edge56_Node000018_Node000039"><a xlink:title=" ">
<path fill="none" stroke="#63b8ff" d="M247.87,-212.53C263.75,-208.07 282.79,-202.72 299.79,-197.95"/>
<polygon fill="#63b8ff" stroke="#63b8ff" points="300.48,-201.39 309.16,-195.32 298.58,-194.65 300.48,-201.39"/>
</a>
</g>
</g>
<!-- Node20 -->
<g id="Node000020" class="node">
<title>Node20</title>
<g id="a_Node000020"><a xlink:href="a01922.html#a1dc669466d6f52d5be8af2d991512ac2" target="_top" xlink:title=" ">
<polygon fill="white" stroke="#666666" points="547,-204.5 443.25,-204.5 443.25,-186 547,-186 547,-204.5"/>
<text text-anchor="middle" x="495.12" y="-191" font-family="Helvetica,sans-Serif" font-size="10.00">arax_data_input_init</text>
</a>
</g>
</g>
<!-- Node19&#45;&gt;Node20 -->
<g id="edge21_Node000019_Node000020" class="edge">
<title>Node19&#45;&gt;Node20</title>
<g id="a_edge21_Node000019_Node000020"><a xlink:title=" ">
<path fill="none" stroke="#63b8ff" d="M378.58,-249.5C385.71,-246.86 393.12,-243.75 399.75,-240.25 417.2,-231.04 418.15,-223.19 435.75,-214.25 439.49,-212.35 443.45,-210.59 447.49,-208.96"/>
<polygon fill="#63b8ff" stroke="#63b8ff" points="448.64,-212.27 456.81,-205.51 446.21,-205.7 448.64,-212.27"/>
</a>
</g>
</g>
<!-- Node23 -->
<g id="Node000023" class="node">
<title>Node23</title>
<g id="a_Node000023"><a xlink:href="a01922.html#a18d07d808917e0b971d46332e9e64da4" target="_top" xlink:title=" ">
<polygon fill="white" stroke="#666666" points="550,-241.5 440.25,-241.5 440.25,-223 550,-223 550,-241.5"/>
<text text-anchor="middle" x="495.12" y="-228" font-family="Helvetica,sans-Serif" font-size="10.00">arax_data_output_init</text>
</a>
</g>
</g>
<!-- Node19&#45;&gt;Node23 -->
<g id="edge27_Node000019_Node000023" class="edge">
<title>Node19&#45;&gt;Node23</title>
<g id="a_edge27_Node000019_Node000023"><a xlink:title=" ">
<path fill="none" stroke="#63b8ff" d="M388.77,-251.59C401.64,-249.22 416.12,-246.57 430.12,-244"/>
<polygon fill="#63b8ff" stroke="#63b8ff" points="430.52,-247.48 439.73,-242.23 429.26,-240.6 430.52,-247.48"/>
</a>
</g>
</g>
<!-- Node24 -->
<g id="Node000024" class="node">
<title>Node24</title>
<g id="a_Node000024"><a xlink:href="a01925.html#a402bbd6fa197c2c48d527325e5e2cf5b" target="_top" xlink:title=" ">
<polygon fill="white" stroke="#666666" points="547.38,-315.5 442.88,-315.5 442.88,-297 547.38,-297 547.38,-315.5"/>
<text text-anchor="middle" x="495.12" y="-302" font-family="Helvetica,sans-Serif" font-size="10.00">arax_object_register</text>
</a>
</g>
</g>
<!-- Node19&#45;&gt;Node24 -->
<g id="edge30_Node000019_Node000024" class="edge">
<title>Node19&#45;&gt;Node24</title>
<g id="a_edge30_Node000019_Node000024"><a xlink:title=" ">
<path fill="none" stroke="#63b8ff" d="M377.48,-268.99C399.28,-275.95 428.87,-285.4 452.79,-293.05"/>
<polygon fill="#63b8ff" stroke="#63b8ff" points="451.65,-296.35 462.24,-296.06 453.78,-289.69 451.65,-296.35"/>
</a>
</g>
</g>
<!-- Node33 -->
<g id="Node000033" class="node">
<title>Node33</title>
<g id="a_Node000033"><a xlink:href="a02364.html#ac728117d73179c279de49e01ae905dda" target="_top" xlink:title=" ">
<polygon fill="white" stroke="#666666" points="551.12,-278.5 439.12,-278.5 439.12,-260 551.12,-260 551.12,-278.5"/>
<text text-anchor="middle" x="495.12" y="-265" font-family="Helvetica,sans-Serif" font-size="10.00">async_completion_init</text>
</a>
</g>
</g>
<!-- Node19&#45;&gt;Node33 -->
<g id="edge45_Node000019_Node000033" class="edge">
<title>Node19&#45;&gt;Node33</title>
<g id="a_edge45_Node000019_Node000033"><a xlink:title=" ">
<path fill="none" stroke="#63b8ff" d="M388.77,-262.09C400.79,-262.91 414.22,-263.82 427.36,-264.71"/>
<polygon fill="#63b8ff" stroke="#63b8ff" points="427.06,-268.2 437.27,-265.39 427.53,-261.22 427.06,-268.2"/>
</a>
</g>
</g>
<!-- Node20&#45;&gt;Node14 -->
<g id="edge26_Node000020_Node000014" class="edge">
<title>Node20&#45;&gt;Node14</title>
<g id="a_edge26_Node000020_Node000014"><a xlink:title=" ">
<path fill="none" stroke="#63b8ff" d="M547.01,-187.33C561.08,-185.24 576.37,-183.06 590.5,-181.25 644.38,-174.33 705.81,-167.77 750.21,-163.26"/>
<polygon fill="#63b8ff" stroke="#63b8ff" points="750.3,-166.77 759.9,-162.28 749.6,-159.8 750.3,-166.77"/>
</a>
</g>
</g>
<!-- Node21 -->
<g id="Node000021" class="node">
<title>Node21</title>
<g id="a_Node000021"><a xlink:href="a01922.html#a4b65f90a821aca384f0ca1cff7bd1846" target="_top" xlink:title=" ">
<polygon fill="white" stroke="#666666" points="716,-241.5 590.5,-241.5 590.5,-223 716,-223 716,-241.5"/>
<text text-anchor="middle" x="653.25" y="-228" font-family="Helvetica,sans-Serif" font-size="10.00">arax_data_migrate_accel</text>
</a>
</g>
</g>
<!-- Node20&#45;&gt;Node21 -->
<g id="edge22_Node000020_Node000021" class="edge">
<title>Node20&#45;&gt;Node21</title>
<g id="a_edge22_Node000020_Node000021"><a xlink:title=" ">
<path fill="none" stroke="#63b8ff" d="M537.15,-204.97C556.43,-209.54 579.64,-215.04 600.16,-219.9"/>
<polygon fill="#63b8ff" stroke="#63b8ff" points="599.22,-223.28 609.76,-222.18 600.84,-216.47 599.22,-223.28"/>
</a>
</g>
</g>
<!-- Node21&#45;&gt;Node3 -->
<g id="edge23_Node000021_Node000003" class="edge">
<title>Node21&#45;&gt;Node3</title>
<g id="a_edge23_Node000021_Node000003"><a xlink:title=" ">
<path fill="none" stroke="#63b8ff" d="M690.72,-241.99C712.65,-247.85 740.8,-255.37 764.4,-261.67"/>
<polygon fill="#63b8ff" stroke="#63b8ff" points="763.2,-264.97 773.76,-264.17 765.01,-258.21 763.2,-264.97"/>
</a>
</g>
</g>
<!-- Node21&#45;&gt;Node14 -->
<g id="edge24_Node000021_Node000014" class="edge">
<title>Node21&#45;&gt;Node14</title>
<g id="a_edge24_Node000021_Node000014"><a xlink:title=" ">
<path fill="none" stroke="#63b8ff" d="M682.88,-222.55C693.42,-218.72 705.38,-214.09 716,-209.25 740.09,-198.27 766.45,-183.71 785.36,-172.79"/>
<polygon fill="#63b8ff" stroke="#63b8ff" points="787.12,-175.82 793.99,-167.76 783.59,-169.77 787.12,-175.82"/>
</a>
</g>
</g>
<!-- Node22 -->
<g id="Node000022" class="node">
<title>Node22</title>
<g id="a_Node000022"><a xlink:href="a01925.html#a668fd893484b6e2d67d8b372b508d14f" target="_top" xlink:title=" ">
<polygon fill="white" stroke="#666666" points="873,-241.5 752,-241.5 752,-223 873,-223 873,-241.5"/>
<text text-anchor="middle" x="812.5" y="-228" font-family="Helvetica,sans-Serif" font-size="10.00">arax_object_type_to_str</text>
</a>
</g>
</g>
<!-- Node21&#45;&gt;Node22 -->
<g id="edge25_Node000021_Node000022" class="edge">
<title>Node21&#45;&gt;Node22</title>
<g id="a_edge25_Node000021_Node000022"><a xlink:title=" ">
<path fill="none" stroke="#63b8ff" d="M716.4,-232.25C724.19,-232.25 732.2,-232.25 740.11,-232.25"/>
<polygon fill="#63b8ff" stroke="#63b8ff" points="740.08,-235.75 750.08,-232.25 740.08,-228.75 740.08,-235.75"/>
</a>
</g>
</g>
<!-- Node23&#45;&gt;Node14 -->
<g id="edge29_Node000023_Node000014" class="edge">
<title>Node23&#45;&gt;Node14</title>
<g id="a_edge29_Node000023_Node000014"><a xlink:title=" ">
<path fill="none" stroke="#63b8ff" d="M539.15,-222.51C583.52,-212.42 654.67,-196.07 716,-181.25 731.1,-177.6 747.5,-173.52 762.39,-169.77"/>
<polygon fill="#63b8ff" stroke="#63b8ff" points="763.13,-173.2 771.97,-167.36 761.41,-166.41 763.13,-173.2"/>
</a>
</g>
</g>
<!-- Node23&#45;&gt;Node21 -->
<g id="edge28_Node000023_Node000021" class="edge">
<title>Node23&#45;&gt;Node21</title>
<g id="a_edge28_Node000023_Node000021"><a xlink:title=" ">
<path fill="none" stroke="#63b8ff" d="M550.29,-232.25C559.53,-232.25 569.27,-232.25 578.91,-232.25"/>
<polygon fill="#63b8ff" stroke="#63b8ff" points="578.63,-235.75 588.63,-232.25 578.63,-228.75 578.63,-235.75"/>
</a>
</g>
</g>
<!-- Node25 -->
<g id="Node000025" class="node">
<title>Node25</title>
<g id="a_Node000025"><a xlink:href="a01928.html#a6cc54ee40009c61b5f6526f5edff004f" target="_top" xlink:title=" ">
<polygon fill="white" stroke="#666666" points="863.62,-329.5 761.38,-329.5 761.38,-311 863.62,-311 863.62,-329.5"/>
<text text-anchor="middle" x="812.5" y="-316" font-family="Helvetica,sans-Serif" font-size="10.00">arax_pipe_size_dec</text>
</a>
</g>
</g>
<!-- Node24&#45;&gt;Node25 -->
<g id="edge31_Node000024_Node000025" class="edge">
<title>Node24&#45;&gt;Node25</title>
<g id="a_edge31_Node000024_Node000025"><a xlink:title=" ">
<path fill="none" stroke="#63b8ff" d="M537.7,-315.93C554.05,-319.28 573.06,-322.6 590.5,-324.25 643.98,-329.3 705.06,-327.64 749.43,-325.08"/>
<polygon fill="#63b8ff" stroke="#63b8ff" points="749.63,-328.58 759.4,-324.48 749.2,-321.59 749.63,-328.58"/>
</a>
</g>
</g>
<!-- Node29 -->
<g id="Node000029" class="node">
<title>Node29</title>
<g id="a_Node000029"><a xlink:href="a02355.html#ac9828b5c2758940f6d3c7d4335228de5" target="_top" xlink:title=" ">
<polygon fill="white" stroke="#666666" points="702.88,-315.5 603.62,-315.5 603.62,-297 702.88,-297 702.88,-315.5"/>
<text text-anchor="middle" x="653.25" y="-302" font-family="Helvetica,sans-Serif" font-size="10.00">arch_alloc_allocate</text>
</a>
</g>
</g>
<!-- Node24&#45;&gt;Node29 -->
<g id="edge41_Node000024_Node000029" class="edge">
<title>Node24&#45;&gt;Node29</title>
<g id="a_edge41_Node000024_Node000029"><a xlink:title=" ">
<path fill="none" stroke="#63b8ff" d="M547.68,-306.25C561.77,-306.25 577.16,-306.25 591.7,-306.25"/>
<polygon fill="#63b8ff" stroke="#63b8ff" points="591.62,-309.75 601.62,-306.25 591.62,-302.75 591.62,-309.75"/>
</a>
</g>
</g>
<!-- Node30 -->
<g id="Node000030" class="node">
<title>Node30</title>
<g id="a_Node000030"><a xlink:href="a01955.html#ae06a9e78e6a4f6c9c8afcf0f4862ce29" target="_top" xlink:title=" ">
<polygon fill="white" stroke="#666666" points="689.75,-389.5 616.75,-389.5 616.75,-371 689.75,-371 689.75,-389.5"/>
<text text-anchor="middle" x="653.25" y="-376" font-family="Helvetica,sans-Serif" font-size="10.00">utils_list_add</text>
</a>
</g>
</g>
<!-- Node24&#45;&gt;Node30 -->
<g id="edge42_Node000024_Node000030" class="edge">
<title>Node24&#45;&gt;Node30</title>
<g id="a_edge42_Node000024_Node000030"><a xlink:title=" ">
<path fill="none" stroke="#63b8ff" d="M512.48,-315.99C531.02,-326.82 562.35,-344.47 590.5,-357.25 597.64,-360.49 605.38,-363.64 612.89,-366.52"/>
<polygon fill="#63b8ff" stroke="#63b8ff" points="611.62,-369.79 622.21,-370 614.07,-363.23 611.62,-369.79"/>
</a>
</g>
</g>
<!-- Node32 -->
<g id="Node000032" class="node">
<title>Node32</title>
<g id="a_Node000032"><a xlink:href="a01955.html#a63f2791c9b5c8e2fa15967cfafb7ccbb" target="_top" xlink:title=" ">
<polygon fill="white" stroke="#666666" points="701.38,-278.5 605.12,-278.5 605.12,-260 701.38,-260 701.38,-278.5"/>
<text text-anchor="middle" x="653.25" y="-265" font-family="Helvetica,sans-Serif" font-size="10.00">utils_list_node_init</text>
</a>
</g>
</g>
<!-- Node24&#45;&gt;Node32 -->
<g id="edge44_Node000024_Node000032" class="edge">
<title>Node24&#45;&gt;Node32</title>
<g id="a_edge44_Node000024_Node000032"><a xlink:title=" ">
<path fill="none" stroke="#63b8ff" d="M537.15,-296.53C556.43,-291.96 579.64,-286.46 600.16,-281.6"/>
<polygon fill="#63b8ff" stroke="#63b8ff" points="600.84,-285.03 609.76,-279.32 599.22,-278.22 600.84,-285.03"/>
</a>
</g>
</g>
<!-- Node25&#45;&gt;Node25 -->
<g id="edge32_Node000025_Node000025" class="edge">
<title>Node25&#45;&gt;Node25</title>
<g id="a_edge32_Node000025_Node000025"><a xlink:title=" ">
<path fill="none" stroke="#63b8ff" d="M788.88,-329.75C777.39,-338.32 785.26,-347.5 812.5,-347.5 827.82,-347.5 837.02,-344.59 840.08,-340.53"/>
<polygon fill="#63b8ff" stroke="#63b8ff" points="843.38,-339.35 836.64,-331.17 836.81,-341.76 843.38,-339.35"/>
</a>
</g>
</g>
<!-- Node26 -->
<g id="Node000026" class="node">
<title>Node26</title>
<g id="a_Node000026"><a xlink:href="a01940.html#a63b80783cfb3106ec4169ce082f153c0" target="_top" xlink:title=" ">
<polygon fill="white" stroke="#666666" points="1172.75,-285.5 1058.5,-285.5 1058.5,-267 1172.75,-267 1172.75,-285.5"/>
<text text-anchor="middle" x="1115.62" y="-272" font-family="Helvetica,sans-Serif" font-size="10.00">arax_throttle_size_dec</text>
</a>
</g>
</g>
<!-- Node25&#45;&gt;Node26 -->
<g id="edge33_Node000025_Node000026" class="edge">
<title>Node25&#45;&gt;Node26</title>
<g id="a_edge33_Node000025_Node000026"><a xlink:title=" ">
<path fill="none" stroke="#63b8ff" d="M863.89,-314.97C906.31,-310.29 968.52,-302.87 1022.5,-294.25 1033.72,-292.46 1045.67,-290.31 1057.11,-288.12"/>
<polygon fill="#63b8ff" stroke="#63b8ff" points="1057.71,-291.57 1066.86,-286.23 1056.37,-284.7 1057.71,-291.57"/>
</a>
</g>
</g>
<!-- Node26&#45;&gt;Node6 -->
<g id="edge35_Node000026_Node000006" class="edge">
<title>Node26&#45;&gt;Node6</title>
<g id="a_edge35_Node000026_Node000006"><a xlink:title=" ">
<path fill="none" stroke="#63b8ff" d="M1156.27,-266.53C1174.82,-261.98 1197.13,-256.51 1216.88,-251.66"/>
<polygon fill="#63b8ff" stroke="#63b8ff" points="1217.51,-255.11 1226.39,-249.33 1215.85,-248.31 1217.51,-255.11"/>
</a>
</g>
</g>
<!-- Node26&#45;&gt;Node10 -->
<g id="edge36_Node000026_Node000010" class="edge">
<title>Node26&#45;&gt;Node10</title>
<g id="a_edge36_Node000026_Node000010"><a xlink:title=" ">
<path fill="none" stroke="#63b8ff" d="M1153.36,-266.53C1160.06,-264.01 1166.81,-260.94 1172.75,-257.25 1191.97,-245.31 1189.45,-233.06 1208.75,-221.25 1211.72,-219.43 1214.88,-217.77 1218.13,-216.26"/>
<polygon fill="#63b8ff" stroke="#63b8ff" points="1219.42,-219.51 1227.33,-212.47 1216.75,-213.04 1219.42,-219.51"/>
</a>
</g>
</g>
<!-- Node26&#45;&gt;Node26 -->
<g id="edge34_Node000026_Node000026" class="edge">
<title>Node26&#45;&gt;Node26</title>
<g id="a_edge34_Node000026_Node000026"><a xlink:title=" ">
<path fill="none" stroke="#63b8ff" d="M1092.52,-285.75C1081.29,-294.32 1088.99,-303.5 1115.62,-303.5 1130.61,-303.5 1139.6,-300.59 1142.6,-296.53"/>
<polygon fill="#63b8ff" stroke="#63b8ff" points="1145.91,-295.4 1139.24,-287.17 1139.33,-297.76 1145.91,-295.4"/>
</a>
</g>
</g>
<!-- Node27 -->
<g id="Node000027" class="node">
<title>Node27</title>
<g id="a_Node000027"><a xlink:href="a02364.html#a1bfeaeb9b81855e640d7a67cc9d92b17" target="_top" xlink:title=" ">
<polygon fill="white" stroke="#666666" points="1322.62,-285.5 1214.38,-285.5 1214.38,-267 1322.62,-267 1322.62,-285.5"/>
<text text-anchor="middle" x="1268.5" y="-272" font-family="Helvetica,sans-Serif" font-size="10.00">async_condition_wait</text>
</a>
</g>
</g>
<!-- Node26&#45;&gt;Node27 -->
<g id="edge37_Node000026_Node000027" class="edge">
<title>Node26&#45;&gt;Node27</title>
<g id="a_edge37_Node000026_Node000027"><a xlink:title=" ">
<path fill="none" stroke="#63b8ff" d="M1173.23,-276.25C1182.85,-276.25 1192.9,-276.25 1202.71,-276.25"/>
<polygon fill="#63b8ff" stroke="#63b8ff" points="1202.55,-279.75 1212.55,-276.25 1202.55,-272.75 1202.55,-279.75"/>
</a>
</g>
</g>
<!-- Node27&#45;&gt;Node7 -->
<g id="edge39_Node000027_Node000007" class="edge">
<title>Node27&#45;&gt;Node7</title>
<g id="a_edge39_Node000027_Node000007"><a xlink:title=" ">
<path fill="none" stroke="#63b8ff" d="M1312.39,-266.53C1332.74,-261.92 1357.28,-256.35 1378.87,-251.46"/>
<polygon fill="#63b8ff" stroke="#63b8ff" points="1379.41,-254.93 1388.39,-249.31 1377.86,-248.1 1379.41,-254.93"/>
</a>
</g>
</g>
<!-- Node27&#45;&gt;Node11 -->
<g id="edge38_Node000027_Node000011" class="edge">
<title>Node27&#45;&gt;Node11</title>
<g id="a_edge38_Node000027_Node000011"><a xlink:title=" ">
<path fill="none" stroke="#63b8ff" d="M1308.27,-266.6C1315.18,-264.09 1322.12,-261 1328.25,-257.25 1347.55,-245.44 1344.7,-232.65 1364.25,-221.25 1367.6,-219.29 1371.17,-217.53 1374.84,-215.95"/>
<polygon fill="#63b8ff" stroke="#63b8ff" points="1375.87,-219.3 1383.97,-212.47 1373.38,-212.76 1375.87,-219.3"/>
</a>
</g>
</g>
<!-- Node28 -->
<g id="Node000028" class="node">
<title>Node28</title>
<g id="a_Node000028"><a xlink:href="a02358.html#a7ab7c7fe9cb93434dde72a4e464a7e69" target="_top" xlink:title=" ">
<polygon fill="white" stroke="#666666" points="1491.62,-285.5 1375.88,-285.5 1375.88,-267 1491.62,-267 1491.62,-285.5"/>
<text text-anchor="middle" x="1433.75" y="-272" font-family="Helvetica,sans-Serif" font-size="10.00">async_semaphore_dec</text>
</a>
</g>
</g>
<!-- Node27&#45;&gt;Node28 -->
<g id="edge40_Node000027_Node000028" class="edge">
<title>Node27&#45;&gt;Node28</title>
<g id="a_edge40_Node000027_Node000028"><a xlink:title=" ">
<path fill="none" stroke="#63b8ff" d="M1322.95,-276.25C1336.1,-276.25 1350.36,-276.25 1364.12,-276.25"/>
<polygon fill="#63b8ff" stroke="#63b8ff" points="1364.01,-279.75 1374.01,-276.25 1364.01,-272.75 1364.01,-279.75"/>
</a>
</g>
</g>
<!-- Node31 -->
<g id="Node000031" class="node">
<title>Node31</title>
<g id="a_Node000031"><a xlink:href="a01955.html#a5c575f52a42e0e0d2fb41bda2d1268ce" target="_top" xlink:title=" ">
<polygon fill="white" stroke="#666666" points="862.12,-389.5 762.88,-389.5 762.88,-371 862.12,-371 862.12,-389.5"/>
<text text-anchor="middle" x="812.5" y="-376" font-family="Helvetica,sans-Serif" font-size="10.00">utils_list_node_add</text>
</a>
</g>
</g>
<!-- Node30&#45;&gt;Node31 -->
<g id="edge43_Node000030_Node000031" class="edge">
<title>Node30&#45;&gt;Node31</title>
<g id="a_edge43_Node000030_Node000031"><a xlink:title=" ">
<path fill="none" stroke="#63b8ff" d="M689.93,-380.25C708.05,-380.25 730.56,-380.25 751.27,-380.25"/>
<polygon fill="#63b8ff" stroke="#63b8ff" points="751.03,-383.75 761.03,-380.25 751.03,-376.75 751.03,-383.75"/>
</a>
</g>
</g>
<!-- Node33&#45;&gt;Node32 -->
<g id="edge46_Node000033_Node000032" class="edge">
<title>Node33&#45;&gt;Node32</title>
<g id="a_edge46_Node000033_Node000032"><a xlink:title=" ">
<path fill="none" stroke="#63b8ff" d="M551.61,-269.25C565.17,-269.25 579.72,-269.25 593.43,-269.25"/>
<polygon fill="#63b8ff" stroke="#63b8ff" points="593.19,-272.75 603.19,-269.25 593.19,-265.75 593.19,-272.75"/>
</a>
</g>
</g>
<!-- Node35&#45;&gt;Node14 -->
<g id="edge49_Node000035_Node000014" class="edge">
<title>Node35&#45;&gt;Node14</title>
<g id="a_edge49_Node000035_Node000014"><a xlink:title=" ">
<path fill="none" stroke="#63b8ff" d="M695.57,-129.97C714.99,-134.54 738.37,-140.04 759.03,-144.9"/>
<polygon fill="#63b8ff" stroke="#63b8ff" points="758.18,-148.3 768.71,-147.18 759.78,-141.49 758.18,-148.3"/>
</a>
</g>
</g>
<!-- Node36 -->
<g id="Node000036" class="node">
<title>Node36</title>
<g id="a_Node000036"><a xlink:href="a01943.html#a8b82433bc8c7d7f03683ac521a3679fa" target="_top" xlink:title=" ">
<polygon fill="white" stroke="#666666" points="1022.5,-156.5 909,-156.5 909,-138 1022.5,-138 1022.5,-156.5"/>
<text text-anchor="middle" x="965.75" y="-143" font-family="Helvetica,sans-Serif" font-size="10.00">arax_vaccel_add_task</text>
</a>
</g>
</g>
<!-- Node35&#45;&gt;Node36 -->
<g id="edge50_Node000035_Node000036" class="edge">
<title>Node35&#45;&gt;Node36</title>
<g id="a_edge50_Node000035_Node000036"><a xlink:title=" ">
<path fill="none" stroke="#63b8ff" d="M700.34,-124.25C744.61,-128.09 813.38,-134.06 873,-139.25 880.99,-139.95 889.38,-140.68 897.7,-141.4"/>
<polygon fill="#63b8ff" stroke="#63b8ff" points="897.18,-144.87 907.45,-142.25 897.79,-137.9 897.18,-144.87"/>
</a>
</g>
</g>
<!-- Node37 -->
<g id="Node000037" class="node">
<title>Node37</title>
<g id="a_Node000037"><a xlink:href="a01916.html#ab6afd8cc035237c811ce6a1b7727acc3" target="_top" xlink:title=" ">
<polygon fill="white" stroke="#666666" points="1170.12,-156.5 1061.12,-156.5 1061.12,-138 1170.12,-138 1170.12,-156.5"/>
<text text-anchor="middle" x="1115.62" y="-143" font-family="Helvetica,sans-Serif" font-size="10.00">arax_accel_add_task</text>
</a>
</g>
</g>
<!-- Node36&#45;&gt;Node37 -->
<g id="edge51_Node000036_Node000037" class="edge">
<title>Node36&#45;&gt;Node37</title>
<g id="a_edge51_Node000036_Node000037"><a xlink:title=" ">
<path fill="none" stroke="#63b8ff" d="M1022.66,-147.25C1031.51,-147.25 1040.74,-147.25 1049.77,-147.25"/>
<polygon fill="#63b8ff" stroke="#63b8ff" points="1049.57,-150.75 1059.57,-147.25 1049.57,-143.75 1049.57,-150.75"/>
</a>
</g>
</g>
<!-- Node38 -->
<g id="Node000038" class="node">
<title>Node38</title>
<g id="a_Node000038"><a xlink:href="a01958.html#a9fae55b169121c4851bb7c0adf4eac47" target="_top" xlink:title=" ">
<polygon fill="white" stroke="#666666" points="1161.5,-193.5 1069.75,-193.5 1069.75,-175 1161.5,-175 1161.5,-193.5"/>
<text text-anchor="middle" x="1115.62" y="-180" font-family="Helvetica,sans-Serif" font-size="10.00">utils_queue_push</text>
</a>
</g>
</g>
<!-- Node36&#45;&gt;Node38 -->
<g id="edge55_Node000036_Node000038" class="edge">
<title>Node36&#45;&gt;Node38</title>
<g id="a_edge55_Node000036_Node000038"><a xlink:title=" ">
<path fill="none" stroke="#63b8ff" d="M1005.6,-156.97C1023.7,-161.5 1045.45,-166.94 1064.74,-171.77"/>
<polygon fill="#63b8ff" stroke="#63b8ff" points="1063.76,-175.13 1074.31,-174.16 1065.46,-168.34 1063.76,-175.13"/>
</a>
</g>
</g>
<!-- Node37&#45;&gt;Node6 -->
<g id="edge52_Node000037_Node000006" class="edge">
<title>Node37&#45;&gt;Node6</title>
<g id="a_edge52_Node000037_Node000006"><a xlink:title=" ">
<path fill="none" stroke="#63b8ff" d="M1156.34,-157C1162.17,-159.45 1167.85,-162.49 1172.75,-166.25 1195.63,-183.81 1185.75,-202.84 1208.75,-220.25 1210.88,-221.86 1213.15,-223.34 1215.51,-224.69"/>
<polygon fill="#63b8ff" stroke="#63b8ff" points="1213.75,-227.72 1224.27,-228.93 1216.8,-221.42 1213.75,-227.72"/>
</a>
</g>
</g>
<!-- Node37&#45;&gt;Node8 -->
<g id="edge53_Node000037_Node000008" class="edge">
<title>Node37&#45;&gt;Node8</title>
<g id="a_edge53_Node000037_Node000008"><a xlink:title=" ">
<path fill="none" stroke="#63b8ff" d="M1170.24,-150.45C1179.68,-151.01 1189.61,-151.6 1199.38,-152.19"/>
<polygon fill="#63b8ff" stroke="#63b8ff" points="1199.03,-155.67 1209.22,-152.77 1199.45,-148.68 1199.03,-155.67"/>
</a>
</g>
</g>
<!-- Node37&#45;&gt;Node10 -->
<g id="edge54_Node000037_Node000010" class="edge">
<title>Node37&#45;&gt;Node10</title>
<g id="a_edge54_Node000037_Node000010"><a xlink:title=" ">
<path fill="none" stroke="#63b8ff" d="M1145.83,-156.91C1154.51,-159.84 1164.04,-163.12 1172.75,-166.25 1192.41,-173.31 1214.2,-181.56 1231.93,-188.38"/>
<polygon fill="#63b8ff" stroke="#63b8ff" points="1230.65,-191.64 1241.24,-191.98 1233.18,-185.11 1230.65,-191.64"/>
</a>
</g>
</g>
</g>
</svg>
