<?xml version="1.0" encoding="UTF-8" standalone="no"?>
<!DOCTYPE svg PUBLIC "-//W3C//DTD SVG 1.1//EN"
 "http://www.w3.org/Graphics/SVG/1.1/DTD/svg11.dtd">
<!-- Generated by graphviz version 8.0.5 (0)
 -->
<!-- Title: system.c Pages: 1 -->
<svg width="814pt" height="136pt"
 viewBox="0.00 0.00 813.50 135.50" xmlns="http://www.w3.org/2000/svg" xmlns:xlink="http://www.w3.org/1999/xlink">
<g id="graph0" class="graph" transform="scale(1 1) rotate(0) translate(4 131.5)">
<title>system.c</title>
<!-- Node1 -->
<g id="Node000001" class="node">
<title>Node1</title>
<g id="a_Node000001"><a xlink:title=" ">
<polygon fill="#999999" stroke="#666666" points="470.75,-127.5 415.75,-127.5 415.75,-109 470.75,-109 470.75,-127.5"/>
<text text-anchor="middle" x="443.25" y="-114" font-family="Helvetica,sans-Serif" font-size="10.00">system.c</text>
</a>
</g>
</g>
<!-- Node2 -->
<g id="Node000002" class="node">
<title>Node2</title>
<g id="a_Node000002"><a xlink:href="a01385.html" target="_top" xlink:title=" ">
<polygon fill="white" stroke="#666666" points="90.75,-73 35.75,-73 35.75,-54.5 90.75,-54.5 90.75,-73"/>
<text text-anchor="middle" x="63.25" y="-59.5" font-family="Helvetica,sans-Serif" font-size="10.00">system.h</text>
</a>
</g>
</g>
<!-- Node1&#45;&gt;Node2 -->
<g id="edge1_Node000001_Node000002" class="edge">
<title>Node1&#45;&gt;Node2</title>
<g id="a_edge1_Node000001_Node000002"><a xlink:title=" ">
<path fill="none" stroke="#63b8ff" d="M415.46,-114.6C358.45,-108.97 223.93,-94.68 101.75,-73.3"/>
<polygon fill="#63b8ff" stroke="#63b8ff" points="102.56,-69.71 92.1,-71.41 101.34,-76.61 102.56,-69.71"/>
</a>
</g>
</g>
<!-- Node5 -->
<g id="Node000005" class="node">
<title>Node5</title>
<g id="a_Node000005"><a xlink:title=" ">
<polygon fill="#e0e0e0" stroke="#999999" points="165.88,-73 108.62,-73 108.62,-54.5 165.88,-54.5 165.88,-73"/>
<text text-anchor="middle" x="137.25" y="-59.5" font-family="Helvetica,sans-Serif" font-size="10.00">sys/stat.h</text>
</a>
</g>
</g>
<!-- Node1&#45;&gt;Node5 -->
<g id="edge4_Node000001_Node000005" class="edge">
<title>Node1&#45;&gt;Node5</title>
<g id="a_edge4_Node000001_Node000005"><a xlink:title=" ">
<path fill="none" stroke="#63b8ff" d="M415.39,-113.12C368.41,-106.06 270.21,-90.86 177.01,-73.25"/>
<polygon fill="#63b8ff" stroke="#63b8ff" points="177.74,-69.64 167.27,-71.21 176.43,-76.51 177.74,-69.64"/>
</a>
</g>
</g>
<!-- Node6 -->
<g id="Node000006" class="node">
<title>Node6</title>
<g id="a_Node000006"><a xlink:title=" ">
<polygon fill="#e0e0e0" stroke="#999999" points="232.38,-73 184.12,-73 184.12,-54.5 232.38,-54.5 232.38,-73"/>
<text text-anchor="middle" x="208.25" y="-59.5" font-family="Helvetica,sans-Serif" font-size="10.00">string.h</text>
</a>
</g>
</g>
<!-- Node1&#45;&gt;Node6 -->
<g id="edge5_Node000001_Node000006" class="edge">
<title>Node1&#45;&gt;Node6</title>
<g id="a_edge5_Node000001_Node000006"><a xlink:title=" ">
<path fill="none" stroke="#63b8ff" d="M415.42,-111.42C378.31,-103.6 310.35,-89.06 243.09,-73.38"/>
<polygon fill="#63b8ff" stroke="#63b8ff" points="244.27,-69.83 233.74,-70.96 242.68,-76.64 244.27,-69.83"/>
</a>
</g>
</g>
<!-- Node7 -->
<g id="Node000007" class="node">
<title>Node7</title>
<g id="a_Node000007"><a xlink:title=" ">
<polygon fill="#e0e0e0" stroke="#999999" points="310.38,-73 250.12,-73 250.12,-54.5 310.38,-54.5 310.38,-73"/>
<text text-anchor="middle" x="280.25" y="-59.5" font-family="Helvetica,sans-Serif" font-size="10.00">execinfo.h</text>
</a>
</g>
</g>
<!-- Node1&#45;&gt;Node7 -->
<g id="edge6_Node000001_Node000007" class="edge">
<title>Node1&#45;&gt;Node7</title>
<g id="a_edge6_Node000001_Node000007"><a xlink:title=" ">
<path fill="none" stroke="#63b8ff" d="M416.33,-108.58C389.32,-99.88 347.49,-86.41 317.34,-76.7"/>
<polygon fill="#63b8ff" stroke="#63b8ff" points="318.8,-73.17 308.21,-73.43 316.65,-79.83 318.8,-73.17"/>
</a>
</g>
</g>
<!-- Node8 -->
<g id="Node000008" class="node">
<title>Node8</title>
<g id="a_Node000008"><a xlink:title=" ">
<polygon fill="#e0e0e0" stroke="#999999" points="399.62,-73 328.88,-73 328.88,-54.5 399.62,-54.5 399.62,-73"/>
<text text-anchor="middle" x="364.25" y="-59.5" font-family="Helvetica,sans-Serif" font-size="10.00">sys/syscall.h</text>
</a>
</g>
</g>
<!-- Node1&#45;&gt;Node8 -->
<g id="edge7_Node000001_Node000008" class="edge">
<title>Node1&#45;&gt;Node8</title>
<g id="a_edge7_Node000001_Node000008"><a xlink:title=" ">
<path fill="none" stroke="#63b8ff" d="M430.2,-108.58C418.31,-100.68 400.5,-88.84 386.38,-79.46"/>
<polygon fill="#63b8ff" stroke="#63b8ff" points="388.58,-76.05 378.31,-73.43 384.71,-81.88 388.58,-76.05"/>
</a>
</g>
</g>
<!-- Node9 -->
<g id="Node000009" class="node">
<title>Node9</title>
<g id="a_Node000009"><a xlink:title=" ">
<polygon fill="#e0e0e0" stroke="#999999" points="468.5,-73 418,-73 418,-54.5 468.5,-54.5 468.5,-73"/>
<text text-anchor="middle" x="443.25" y="-59.5" font-family="Helvetica,sans-Serif" font-size="10.00">unistd.h</text>
</a>
</g>
</g>
<!-- Node1&#45;&gt;Node9 -->
<g id="edge8_Node000001_Node000009" class="edge">
<title>Node1&#45;&gt;Node9</title>
<g id="a_edge8_Node000001_Node000009"><a xlink:title=" ">
<path fill="none" stroke="#63b8ff" d="M443.25,-108.58C443.25,-101.93 443.25,-92.49 443.25,-84.08"/>
<polygon fill="#63b8ff" stroke="#63b8ff" points="446.75,-84.26 443.25,-74.26 439.75,-84.26 446.75,-84.26"/>
</a>
</g>
</g>
<!-- Node10 -->
<g id="Node000010" class="node">
<title>Node10</title>
<g id="a_Node000010"><a xlink:title=" ">
<polygon fill="#e0e0e0" stroke="#999999" points="531.88,-73 486.62,-73 486.62,-54.5 531.88,-54.5 531.88,-73"/>
<text text-anchor="middle" x="509.25" y="-59.5" font-family="Helvetica,sans-Serif" font-size="10.00">stdio.h</text>
</a>
</g>
</g>
<!-- Node1&#45;&gt;Node10 -->
<g id="edge9_Node000001_Node000010" class="edge">
<title>Node1&#45;&gt;Node10</title>
<g id="a_edge9_Node000001_Node000010"><a xlink:title=" ">
<path fill="none" stroke="#63b8ff" d="M454.15,-108.58C463.95,-100.78 478.57,-89.15 490.29,-79.83"/>
<polygon fill="#63b8ff" stroke="#63b8ff" points="491.91,-82.22 497.55,-73.26 487.55,-76.74 491.91,-82.22"/>
</a>
</g>
</g>
<!-- Node11 -->
<g id="Node000011" class="node">
<title>Node11</title>
<g id="a_Node000011"><a xlink:title=" ">
<polygon fill="#e0e0e0" stroke="#999999" points="597,-73 549.5,-73 549.5,-54.5 597,-54.5 597,-73"/>
<text text-anchor="middle" x="573.25" y="-59.5" font-family="Helvetica,sans-Serif" font-size="10.00">stdlib.h</text>
</a>
</g>
</g>
<!-- Node1&#45;&gt;Node11 -->
<g id="edge10_Node000001_Node000011" class="edge">
<title>Node1&#45;&gt;Node11</title>
<g id="a_edge10_Node000001_Node000011"><a xlink:title=" ">
<path fill="none" stroke="#63b8ff" d="M464.72,-108.58C485.7,-100.11 517.88,-87.11 541.76,-77.47"/>
<polygon fill="#63b8ff" stroke="#63b8ff" points="542.79,-80.42 550.75,-73.43 540.17,-73.93 542.79,-80.42"/>
</a>
</g>
</g>
<!-- Node12 -->
<g id="Node000012" class="node">
<title>Node12</title>
<g id="a_Node000012"><a xlink:title=" ">
<polygon fill="#e0e0e0" stroke="#999999" points="657.38,-73 615.12,-73 615.12,-54.5 657.38,-54.5 657.38,-73"/>
<text text-anchor="middle" x="636.25" y="-59.5" font-family="Helvetica,sans-Serif" font-size="10.00">pwd.h</text>
</a>
</g>
</g>
<!-- Node1&#45;&gt;Node12 -->
<g id="edge11_Node000001_Node000012" class="edge">
<title>Node1&#45;&gt;Node12</title>
<g id="a_edge11_Node000001_Node000012"><a xlink:title=" ">
<path fill="none" stroke="#63b8ff" d="M471.24,-109.68C501.68,-101.44 552.06,-87.79 604.45,-73.49"/>
<polygon fill="#63b8ff" stroke="#63b8ff" points="605.22,-76.63 613.95,-70.62 603.38,-69.88 605.22,-76.63"/>
</a>
</g>
</g>
<!-- Node13 -->
<g id="Node000013" class="node">
<title>Node13</title>
<g id="a_Node000013"><a xlink:title=" ">
<polygon fill="#e0e0e0" stroke="#999999" points="718.75,-73 675.75,-73 675.75,-54.5 718.75,-54.5 718.75,-73"/>
<text text-anchor="middle" x="697.25" y="-59.5" font-family="Helvetica,sans-Serif" font-size="10.00">fcntl.h</text>
</a>
</g>
</g>
<!-- Node1&#45;&gt;Node13 -->
<g id="edge12_Node000001_Node000013" class="edge">
<title>Node1&#45;&gt;Node13</title>
<g id="a_edge12_Node000001_Node000013"><a xlink:title=" ">
<path fill="none" stroke="#63b8ff" d="M471.19,-112.3C511.64,-105.01 589.1,-90.57 664.64,-73.25"/>
<polygon fill="#63b8ff" stroke="#63b8ff" points="665.32,-76.45 674.28,-70.78 663.75,-69.63 665.32,-76.45"/>
</a>
</g>
</g>
<!-- Node14 -->
<g id="Node000014" class="node">
<title>Node14</title>
<g id="a_Node000014"><a xlink:title=" ">
<polygon fill="#e0e0e0" stroke="#999999" points="805.5,-73 737,-73 737,-54.5 805.5,-54.5 805.5,-73"/>
<text text-anchor="middle" x="771.25" y="-59.5" font-family="Helvetica,sans-Serif" font-size="10.00">sys/mman.h</text>
</a>
</g>
</g>
<!-- Node1&#45;&gt;Node14 -->
<g id="edge13_Node000001_Node000014" class="edge">
<title>Node1&#45;&gt;Node14</title>
<g id="a_edge13_Node000001_Node000014"><a xlink:title=" ">
<path fill="none" stroke="#63b8ff" d="M471.22,-113.24C520.54,-106.11 626.47,-90.46 725.72,-73.39"/>
<polygon fill="#63b8ff" stroke="#63b8ff" points="726.28,-76.67 735.54,-71.52 725.09,-69.78 726.28,-76.67"/>
</a>
</g>
</g>
<!-- Node3 -->
<g id="Node000003" class="node">
<title>Node3</title>
<g id="a_Node000003"><a xlink:title=" ">
<polygon fill="#e0e0e0" stroke="#999999" points="50.5,-18.5 0,-18.5 0,0 50.5,0 50.5,-18.5"/>
<text text-anchor="middle" x="25.25" y="-5" font-family="Helvetica,sans-Serif" font-size="10.00">stddef.h</text>
</a>
</g>
</g>
<!-- Node2&#45;&gt;Node3 -->
<g id="edge2_Node000002_Node000003" class="edge">
<title>Node2&#45;&gt;Node3</title>
<g id="a_edge2_Node000002_Node000003"><a xlink:title=" ">
<path fill="none" stroke="#63b8ff" d="M56.98,-54.08C51.77,-46.89 44.22,-36.45 37.78,-27.57"/>
<polygon fill="#63b8ff" stroke="#63b8ff" points="40.11,-25.81 31.41,-19.76 34.44,-29.91 40.11,-25.81"/>
</a>
</g>
</g>
<!-- Node4 -->
<g id="Node000004" class="node">
<title>Node4</title>
<g id="a_Node000004"><a xlink:title=" ">
<polygon fill="#e0e0e0" stroke="#999999" points="134,-18.5 68.5,-18.5 68.5,0 134,0 134,-18.5"/>
<text text-anchor="middle" x="101.25" y="-5" font-family="Helvetica,sans-Serif" font-size="10.00">sys/types.h</text>
</a>
</g>
</g>
<!-- Node2&#45;&gt;Node4 -->
<g id="edge3_Node000002_Node000004" class="edge">
<title>Node2&#45;&gt;Node4</title>
<g id="a_edge3_Node000002_Node000004"><a xlink:title=" ">
<path fill="none" stroke="#63b8ff" d="M69.52,-54.08C74.73,-46.89 82.28,-36.45 88.72,-27.57"/>
<polygon fill="#63b8ff" stroke="#63b8ff" points="92.06,-29.91 95.09,-19.76 86.39,-25.81 92.06,-29.91"/>
</a>
</g>
</g>
</g>
</svg>
