<?xml version="1.0" encoding="UTF-8" standalone="no"?>
<!DOCTYPE svg PUBLIC "-//W3C//DTD SVG 1.1//EN"
 "http://www.w3.org/Graphics/SVG/1.1/DTD/svg11.dtd">
<!-- Generated by graphviz version 12.2.1 (0)
 -->
<!-- Title: dlrealloc Pages: 1 -->
<svg width="307pt" height="64pt"
 viewBox="0.00 0.00 306.50 63.50" xmlns="http://www.w3.org/2000/svg" xmlns:xlink="http://www.w3.org/1999/xlink">
<g id="graph0" class="graph" transform="scale(1 1) rotate(0) translate(4 59.5)">
<title>dlrealloc</title>
<!-- Node1 -->
<g id="Node000001" class="node">
<title>Node1</title>
<g id="a_Node000001"><a xlink:title=" ">
<polygon fill="#999999" stroke="#666666" points="52,-36.5 0,-36.5 0,-18 52,-18 52,-36.5"/>
<text text-anchor="middle" x="26" y="-23" font-family="Helvetica,sans-Serif" font-size="10.00">dlrealloc</text>
</a>
</g>
</g>
<!-- Node2 -->
<g id="Node000002" class="node">
<title>Node2</title>
<g id="a_Node000002"><a xlink:href="a01901.html#af8adec320537d6e63bc68e76633a1f0e" target="_top" xlink:title=" ">
<polygon fill="white" stroke="#666666" points="181.25,-36.5 88,-36.5 88,-18 181.25,-18 181.25,-36.5"/>
<text text-anchor="middle" x="134.62" y="-23" font-family="Helvetica,sans-Serif" font-size="10.00">try_realloc_chunk</text>
</a>
</g>
</g>
<!-- Node1&#45;&gt;Node2 -->
<g id="edge1_Node000001_Node000002" class="edge">
<title>Node1&#45;&gt;Node2</title>
<g id="a_edge1_Node000001_Node000002"><a xlink:title=" ">
<path fill="none" stroke="#63b8ff" d="M52.27,-27.25C59.55,-27.25 67.81,-27.25 76.2,-27.25"/>
<polygon fill="#63b8ff" stroke="#63b8ff" points="76.14,-30.75 86.14,-27.25 76.14,-23.75 76.14,-30.75"/>
</a>
</g>
</g>
<!-- Node3 -->
<g id="Node000003" class="node">
<title>Node3</title>
<g id="a_Node000003"><a xlink:href="a01901.html#a2d20e33b2d417733503759c0594f882d" target="_top" xlink:title=" ">
<polygon fill="white" stroke="#666666" points="298.5,-55.5 217.25,-55.5 217.25,-37 298.5,-37 298.5,-55.5"/>
<text text-anchor="middle" x="257.88" y="-42" font-family="Helvetica,sans-Serif" font-size="10.00">dispose_chunk</text>
</a>
</g>
</g>
<!-- Node2&#45;&gt;Node3 -->
<g id="edge2_Node000002_Node000003" class="edge">
<title>Node2&#45;&gt;Node3</title>
<g id="a_edge2_Node000002_Node000003"><a xlink:title=" ">
<path fill="none" stroke="#63b8ff" d="M181.46,-34.43C189.4,-35.68 197.69,-36.98 205.75,-38.24"/>
<polygon fill="#63b8ff" stroke="#63b8ff" points="205.01,-41.67 215.43,-39.76 206.1,-34.75 205.01,-41.67"/>
</a>
</g>
</g>
<!-- Node4 -->
<g id="Node000004" class="node">
<title>Node4</title>
<g id="a_Node000004"><a xlink:href="a01901.html#a614d873251d4d24875c099b0fdf89c8d" target="_top" xlink:title=" ">
<polygon fill="white" stroke="#666666" points="294.75,-18.5 221,-18.5 221,0 294.75,0 294.75,-18.5"/>
<text text-anchor="middle" x="257.88" y="-5" font-family="Helvetica,sans-Serif" font-size="10.00">mmap_resize</text>
</a>
</g>
</g>
<!-- Node2&#45;&gt;Node4 -->
<g id="edge3_Node000002_Node000004" class="edge">
<title>Node2&#45;&gt;Node4</title>
<g id="a_edge3_Node000002_Node000004"><a xlink:title=" ">
<path fill="none" stroke="#63b8ff" d="M181.46,-20.44C190.61,-19.09 200.24,-17.66 209.44,-16.29"/>
<polygon fill="#63b8ff" stroke="#63b8ff" points="209.92,-19.76 219.3,-14.83 208.89,-12.83 209.92,-19.76"/>
</a>
</g>
</g>
</g>
</svg>
