<?xml version="1.0" encoding="UTF-8" standalone="no"?>
<!DOCTYPE svg PUBLIC "-//W3C//DTD SVG 1.1//EN"
 "http://www.w3.org/Graphics/SVG/1.1/DTD/svg11.dtd">
<!-- Generated by graphviz version 12.2.1 (0)
 -->
<!-- Title: arax_pipe_size_inc Pages: 1 -->
<svg width="585pt" height="101pt"
 viewBox="0.00 0.00 585.00 100.50" xmlns="http://www.w3.org/2000/svg" xmlns:xlink="http://www.w3.org/1999/xlink">
<g id="graph0" class="graph" transform="scale(1 1) rotate(0) translate(4 96.5)">
<title>arax_pipe_size_inc</title>
<!-- Node1 -->
<g id="Node000001" class="node">
<title>Node1</title>
<g id="a_Node000001"><a xlink:title=" ">
<polygon fill="#999999" stroke="#666666" points="99.25,-55.5 0,-55.5 0,-37 99.25,-37 99.25,-55.5"/>
<text text-anchor="middle" x="49.62" y="-42" font-family="Helvetica,sans-Serif" font-size="10.00">arax_pipe_size_inc</text>
</a>
</g>
</g>
<!-- Node1&#45;&gt;Node1 -->
<g id="edge1_Node000001_Node000001" class="edge">
<title>Node1&#45;&gt;Node1</title>
<g id="a_edge1_Node000001_Node000001"><a xlink:title=" ">
<path fill="none" stroke="#63b8ff" d="M27.85,-55.75C17.26,-64.32 24.52,-73.5 49.62,-73.5 63.75,-73.5 72.22,-70.59 75.05,-66.53"/>
<polygon fill="#63b8ff" stroke="#63b8ff" points="78.4,-65.53 71.88,-57.18 71.77,-67.77 78.4,-65.53"/>
</a>
</g>
</g>
<!-- Node2 -->
<g id="Node000002" class="node">
<title>Node2</title>
<g id="a_Node000002"><a xlink:href="a01940.html#a7d3a67fa4eeb00cc9508a7ffe451a02f" target="_top" xlink:title=" ">
<polygon fill="white" stroke="#666666" points="246.5,-55.5 135.25,-55.5 135.25,-37 246.5,-37 246.5,-55.5"/>
<text text-anchor="middle" x="190.88" y="-42" font-family="Helvetica,sans-Serif" font-size="10.00">arax_throttle_size_inc</text>
</a>
</g>
</g>
<!-- Node1&#45;&gt;Node2 -->
<g id="edge2_Node000001_Node000002" class="edge">
<title>Node1&#45;&gt;Node2</title>
<g id="a_edge2_Node000001_Node000002"><a xlink:title=" ">
<path fill="none" stroke="#63b8ff" d="M99.72,-46.25C107.49,-46.25 115.63,-46.25 123.72,-46.25"/>
<polygon fill="#63b8ff" stroke="#63b8ff" points="123.54,-49.75 133.54,-46.25 123.54,-42.75 123.54,-49.75"/>
</a>
</g>
</g>
<!-- Node2&#45;&gt;Node2 -->
<g id="edge3_Node000002_Node000002" class="edge">
<title>Node2&#45;&gt;Node2</title>
<g id="a_edge3_Node000002_Node000002"><a xlink:title=" ">
<path fill="none" stroke="#63b8ff" d="M169.1,-55.75C158.51,-64.32 165.77,-73.5 190.88,-73.5 205,-73.5 213.47,-70.59 216.3,-66.53"/>
<polygon fill="#63b8ff" stroke="#63b8ff" points="219.65,-65.53 213.13,-57.18 213.02,-67.77 219.65,-65.53"/>
</a>
</g>
</g>
<!-- Node3 -->
<g id="Node000003" class="node">
<title>Node3</title>
<g id="a_Node000003"><a xlink:href="a02364.html#aed6af4d83e934e3e654ead541b15f2d9" target="_top" xlink:title=" ">
<polygon fill="white" stroke="#666666" points="396.75,-92.5 287.75,-92.5 287.75,-74 396.75,-74 396.75,-92.5"/>
<text text-anchor="middle" x="342.25" y="-79" font-family="Helvetica,sans-Serif" font-size="10.00">async_condition_lock</text>
</a>
</g>
</g>
<!-- Node2&#45;&gt;Node3 -->
<g id="edge4_Node000002_Node000003" class="edge">
<title>Node2&#45;&gt;Node3</title>
<g id="a_edge4_Node000002_Node000003"><a xlink:title=" ">
<path fill="none" stroke="#63b8ff" d="M231.12,-55.97C249.4,-60.5 271.37,-65.94 290.86,-70.77"/>
<polygon fill="#63b8ff" stroke="#63b8ff" points="289.99,-74.16 300.54,-73.17 291.67,-67.36 289.99,-74.16"/>
</a>
</g>
</g>
<!-- Node5 -->
<g id="Node000005" class="node">
<title>Node5</title>
<g id="a_Node000005"><a xlink:href="a02364.html#a45a896fb606c2aa66a5a4c2af59ce494" target="_top" xlink:title=" ">
<polygon fill="white" stroke="#666666" points="399.75,-55.5 284.75,-55.5 284.75,-37 399.75,-37 399.75,-55.5"/>
<text text-anchor="middle" x="342.25" y="-42" font-family="Helvetica,sans-Serif" font-size="10.00">async_condition_notify</text>
</a>
</g>
</g>
<!-- Node2&#45;&gt;Node5 -->
<g id="edge6_Node000002_Node000005" class="edge">
<title>Node2&#45;&gt;Node5</title>
<g id="a_edge6_Node000002_Node000005"><a xlink:title=" ">
<path fill="none" stroke="#63b8ff" d="M246.65,-46.25C255.22,-46.25 264.16,-46.25 272.99,-46.25"/>
<polygon fill="#63b8ff" stroke="#63b8ff" points="272.96,-49.75 282.96,-46.25 272.96,-42.75 272.96,-49.75"/>
</a>
</g>
</g>
<!-- Node7 -->
<g id="Node000007" class="node">
<title>Node7</title>
<g id="a_Node000007"><a xlink:href="a02364.html#a3bbcb7c4c024e99d5c4ba52b61dfbbf7" target="_top" xlink:title=" ">
<polygon fill="white" stroke="#666666" points="402,-18.5 282.5,-18.5 282.5,0 402,0 402,-18.5"/>
<text text-anchor="middle" x="342.25" y="-5" font-family="Helvetica,sans-Serif" font-size="10.00">async_condition_unlock</text>
</a>
</g>
</g>
<!-- Node2&#45;&gt;Node7 -->
<g id="edge8_Node000002_Node000007" class="edge">
<title>Node2&#45;&gt;Node7</title>
<g id="a_edge8_Node000002_Node000007"><a xlink:title=" ">
<path fill="none" stroke="#63b8ff" d="M231.12,-36.53C249.4,-32 271.37,-26.56 290.86,-21.73"/>
<polygon fill="#63b8ff" stroke="#63b8ff" points="291.67,-25.14 300.54,-19.33 289.99,-18.34 291.67,-25.14"/>
</a>
</g>
</g>
<!-- Node4 -->
<g id="Node000004" class="node">
<title>Node4</title>
<g id="a_Node000004"><a xlink:href="a02358.html#aebf9e72bb6cbd8b9e33489d46c25075d" target="_top" xlink:title=" ">
<polygon fill="white" stroke="#666666" points="565.75,-92.5 449.25,-92.5 449.25,-74 565.75,-74 565.75,-92.5"/>
<text text-anchor="middle" x="507.5" y="-79" font-family="Helvetica,sans-Serif" font-size="10.00">async_completion_wait</text>
</a>
</g>
</g>
<!-- Node3&#45;&gt;Node4 -->
<g id="edge5_Node000003_Node000004" class="edge">
<title>Node3&#45;&gt;Node4</title>
<g id="a_edge5_Node000003_Node000004"><a xlink:title=" ">
<path fill="none" stroke="#63b8ff" d="M397.16,-83.25C410.14,-83.25 424.19,-83.25 437.76,-83.25"/>
<polygon fill="#63b8ff" stroke="#63b8ff" points="437.49,-86.75 447.49,-83.25 437.49,-79.75 437.49,-86.75"/>
</a>
</g>
</g>
<!-- Node6 -->
<g id="Node000006" class="node">
<title>Node6</title>
<g id="a_Node000006"><a xlink:href="a02358.html#a0fa370eee5160963e617d1daf1c07363" target="_top" xlink:title=" ">
<polygon fill="white" stroke="#666666" points="563.88,-55.5 451.12,-55.5 451.12,-37 563.88,-37 563.88,-55.5"/>
<text text-anchor="middle" x="507.5" y="-42" font-family="Helvetica,sans-Serif" font-size="10.00">async_semaphore_inc</text>
</a>
</g>
</g>
<!-- Node5&#45;&gt;Node6 -->
<g id="edge7_Node000005_Node000006" class="edge">
<title>Node5&#45;&gt;Node6</title>
<g id="a_edge7_Node000005_Node000006"><a xlink:title=" ">
<path fill="none" stroke="#63b8ff" d="M399.89,-46.25C412.64,-46.25 426.29,-46.25 439.42,-46.25"/>
<polygon fill="#63b8ff" stroke="#63b8ff" points="439.28,-49.75 449.28,-46.25 439.27,-42.75 439.28,-49.75"/>
</a>
</g>
</g>
<!-- Node8 -->
<g id="Node000008" class="node">
<title>Node8</title>
<g id="a_Node000008"><a xlink:href="a02358.html#ad1d30ecbf6bff6457b680aa940281072" target="_top" xlink:title=" ">
<polygon fill="white" stroke="#666666" points="577,-18.5 438,-18.5 438,0 577,0 577,-18.5"/>
<text text-anchor="middle" x="507.5" y="-5" font-family="Helvetica,sans-Serif" font-size="10.00">async_completion_complete</text>
</a>
</g>
</g>
<!-- Node7&#45;&gt;Node8 -->
<g id="edge9_Node000007_Node000008" class="edge">
<title>Node7&#45;&gt;Node8</title>
<g id="a_edge9_Node000007_Node000008"><a xlink:title=" ">
<path fill="none" stroke="#63b8ff" d="M402.19,-9.25C410.01,-9.25 418.13,-9.25 426.24,-9.25"/>
<polygon fill="#63b8ff" stroke="#63b8ff" points="426.14,-12.75 436.14,-9.25 426.14,-5.75 426.14,-12.75"/>
</a>
</g>
</g>
</g>
</svg>
