<?xml version="1.0" encoding="UTF-8" standalone="no"?>
<!DOCTYPE svg PUBLIC "-//W3C//DTD SVG 1.1//EN"
 "http://www.w3.org/Graphics/SVG/1.1/DTD/svg11.dtd">
<!-- Generated by graphviz version 8.0.5 (0)
 -->
<!-- Title: arax_data_init Pages: 1 -->
<svg width="995pt" height="175pt"
 viewBox="0.00 0.00 994.50 174.50" xmlns="http://www.w3.org/2000/svg" xmlns:xlink="http://www.w3.org/1999/xlink">
<g id="graph0" class="graph" transform="scale(1 1) rotate(0) translate(4 170.5)">
<title>arax_data_init</title>
<!-- Node1 -->
<g id="Node000001" class="node">
<title>Node1</title>
<g id="a_Node000001"><a xlink:title=" ">
<polygon fill="#999999" stroke="#666666" points="77.5,-73.5 0,-73.5 0,-55 77.5,-55 77.5,-73.5"/>
<text text-anchor="middle" x="38.75" y="-60" font-family="Helvetica,sans-Serif" font-size="10.00">arax_data_init</text>
</a>
</g>
</g>
<!-- Node2 -->
<g id="Node000002" class="node">
<title>Node2</title>
<g id="a_Node000002"><a xlink:href="a01931.html#a526989df37e605824d846b7ba54b43ea" target="_top" xlink:title=" ">
<polygon fill="white" stroke="#666666" points="227,-73.5 113.5,-73.5 113.5,-55 227,-55 227,-73.5"/>
<text text-anchor="middle" x="170.25" y="-60" font-family="Helvetica,sans-Serif" font-size="10.00">arax_data_init_aligned</text>
</a>
</g>
</g>
<!-- Node1&#45;&gt;Node2 -->
<g id="edge1_Node000001_Node000002" class="edge">
<title>Node1&#45;&gt;Node2</title>
<g id="a_edge1_Node000001_Node000002"><a xlink:title=" ">
<path fill="none" stroke="#63b8ff" d="M77.9,-64.25C85.58,-64.25 93.86,-64.25 102.2,-64.25"/>
<polygon fill="#63b8ff" stroke="#63b8ff" points="102.13,-67.75 112.13,-64.25 102.13,-60.75 102.13,-67.75"/>
</a>
</g>
</g>
<!-- Node3 -->
<g id="Node000003" class="node">
<title>Node3</title>
<g id="a_Node000003"><a xlink:href="a01910.html#a402bbd6fa197c2c48d527325e5e2cf5b" target="_top" xlink:title=" ">
<polygon fill="white" stroke="#666666" points="367.5,-73.5 263,-73.5 263,-55 367.5,-55 367.5,-73.5"/>
<text text-anchor="middle" x="315.25" y="-60" font-family="Helvetica,sans-Serif" font-size="10.00">arax_object_register</text>
</a>
</g>
</g>
<!-- Node2&#45;&gt;Node3 -->
<g id="edge2_Node000002_Node000003" class="edge">
<title>Node2&#45;&gt;Node3</title>
<g id="a_edge2_Node000002_Node000003"><a xlink:title=" ">
<path fill="none" stroke="#63b8ff" d="M227.36,-64.25C235.32,-64.25 243.55,-64.25 251.62,-64.25"/>
<polygon fill="#63b8ff" stroke="#63b8ff" points="251.5,-67.75 261.5,-64.25 251.5,-60.75 251.5,-67.75"/>
</a>
</g>
</g>
<!-- Node4 -->
<g id="Node000004" class="node">
<title>Node4</title>
<g id="a_Node000004"><a xlink:href="a01913.html#a1cfa2c90268c6e53ce376beb7cce153c" target="_top" xlink:title=" ">
<polygon fill="white" stroke="#666666" points="505.75,-129.5 403.5,-129.5 403.5,-111 505.75,-111 505.75,-129.5"/>
<text text-anchor="middle" x="454.62" y="-116" font-family="Helvetica,sans-Serif" font-size="10.00">arax_pipe_size_dec</text>
</a>
</g>
</g>
<!-- Node3&#45;&gt;Node4 -->
<g id="edge3_Node000003_Node000004" class="edge">
<title>Node3&#45;&gt;Node4</title>
<g id="a_edge3_Node000003_Node000004"><a xlink:title=" ">
<path fill="none" stroke="#63b8ff" d="M338.39,-73.92C355.96,-81.53 381.21,-92.3 403.5,-101.25 407.99,-103.05 412.73,-104.91 417.43,-106.72"/>
<polygon fill="#63b8ff" stroke="#63b8ff" points="415.94,-110.28 426.53,-110.58 418.44,-103.74 415.94,-110.28"/>
</a>
</g>
</g>
<!-- Node12 -->
<g id="Node000012" class="node">
<title>Node12</title>
<g id="a_Node000012"><a xlink:href="a02343.html#ac9828b5c2758940f6d3c7d4335228de5" target="_top" xlink:title=" ">
<polygon fill="white" stroke="#666666" points="504.25,-92.5 405,-92.5 405,-74 504.25,-74 504.25,-92.5"/>
<text text-anchor="middle" x="454.62" y="-79" font-family="Helvetica,sans-Serif" font-size="10.00">arch_alloc_allocate</text>
</a>
</g>
</g>
<!-- Node3&#45;&gt;Node12 -->
<g id="edge13_Node000003_Node000012" class="edge">
<title>Node3&#45;&gt;Node12</title>
<g id="a_edge13_Node000003_Node000012"><a xlink:title=" ">
<path fill="none" stroke="#63b8ff" d="M367.79,-71.38C376.25,-72.55 385.08,-73.77 393.72,-74.96"/>
<polygon fill="#63b8ff" stroke="#63b8ff" points="393.14,-78.56 403.52,-76.46 394.1,-71.62 393.14,-78.56"/>
</a>
</g>
</g>
<!-- Node13 -->
<g id="Node000013" class="node">
<title>Node13</title>
<g id="a_Node000013"><a xlink:href="a01946.html#ae06a9e78e6a4f6c9c8afcf0f4862ce29" target="_top" xlink:title=" ">
<polygon fill="white" stroke="#666666" points="491.12,-55.5 418.12,-55.5 418.12,-37 491.12,-37 491.12,-55.5"/>
<text text-anchor="middle" x="454.62" y="-42" font-family="Helvetica,sans-Serif" font-size="10.00">utils_list_add</text>
</a>
</g>
</g>
<!-- Node3&#45;&gt;Node13 -->
<g id="edge14_Node000003_Node000013" class="edge">
<title>Node3&#45;&gt;Node13</title>
<g id="a_edge14_Node000003_Node000013"><a xlink:title=" ">
<path fill="none" stroke="#63b8ff" d="M367.79,-57.5C380.63,-55.81 394.32,-54.02 406.91,-52.37"/>
<polygon fill="#63b8ff" stroke="#63b8ff" points="407.18,-55.73 416.64,-50.96 406.27,-48.79 407.18,-55.73"/>
</a>
</g>
</g>
<!-- Node15 -->
<g id="Node000015" class="node">
<title>Node15</title>
<g id="a_Node000015"><a xlink:href="a01946.html#a63f2791c9b5c8e2fa15967cfafb7ccbb" target="_top" xlink:title=" ">
<polygon fill="white" stroke="#666666" points="502.75,-18.5 406.5,-18.5 406.5,0 502.75,0 502.75,-18.5"/>
<text text-anchor="middle" x="454.62" y="-5" font-family="Helvetica,sans-Serif" font-size="10.00">utils_list_node_init</text>
</a>
</g>
</g>
<!-- Node3&#45;&gt;Node15 -->
<g id="edge16_Node000003_Node000015" class="edge">
<title>Node3&#45;&gt;Node15</title>
<g id="a_edge16_Node000003_Node000015"><a xlink:title=" ">
<path fill="none" stroke="#63b8ff" d="M339.14,-54.59C356.7,-47.24 381.56,-36.93 403.5,-28.25 408,-26.47 412.75,-24.63 417.45,-22.82"/>
<polygon fill="#63b8ff" stroke="#63b8ff" points="418.46,-25.8 426.55,-18.97 415.96,-19.26 418.46,-25.8"/>
</a>
</g>
</g>
<!-- Node5 -->
<g id="Node000005" class="node">
<title>Node5</title>
<g id="a_Node000005"><a xlink:href="a01925.html#a8413a3584787f9b629e54b2ef9439f06" target="_top" xlink:title=" ">
<polygon fill="white" stroke="#666666" points="656,-129.5 541.75,-129.5 541.75,-111 656,-111 656,-129.5"/>
<text text-anchor="middle" x="598.88" y="-116" font-family="Helvetica,sans-Serif" font-size="10.00">arax_throttle_size_dec</text>
</a>
</g>
</g>
<!-- Node4&#45;&gt;Node5 -->
<g id="edge4_Node000004_Node000005" class="edge">
<title>Node4&#45;&gt;Node5</title>
<g id="a_edge4_Node000004_Node000005"><a xlink:title=" ">
<path fill="none" stroke="#63b8ff" d="M506.18,-120.25C514.17,-120.25 522.55,-120.25 530.85,-120.25"/>
<polygon fill="#63b8ff" stroke="#63b8ff" points="530.68,-123.75 540.68,-120.25 530.68,-116.75 530.68,-123.75"/>
</a>
</g>
</g>
<!-- Node6 -->
<g id="Node000006" class="node">
<title>Node6</title>
<g id="a_Node000006"><a xlink:href="a02352.html#aed6af4d83e934e3e654ead541b15f2d9" target="_top" xlink:title=" ">
<polygon fill="white" stroke="#666666" points="806.25,-166.5 697.25,-166.5 697.25,-148 806.25,-148 806.25,-166.5"/>
<text text-anchor="middle" x="751.75" y="-153" font-family="Helvetica,sans-Serif" font-size="10.00">async_condition_lock</text>
</a>
</g>
</g>
<!-- Node5&#45;&gt;Node6 -->
<g id="edge5_Node000005_Node000006" class="edge">
<title>Node5&#45;&gt;Node6</title>
<g id="a_edge5_Node000005_Node000006"><a xlink:title=" ">
<path fill="none" stroke="#63b8ff" d="M639.52,-129.97C658.24,-134.56 680.79,-140.09 700.68,-144.97"/>
<polygon fill="#63b8ff" stroke="#63b8ff" points="699.57,-148.55 710.11,-147.53 701.23,-141.75 699.57,-148.55"/>
</a>
</g>
</g>
<!-- Node8 -->
<g id="Node000008" class="node">
<title>Node8</title>
<g id="a_Node000008"><a xlink:href="a02352.html#a3bbcb7c4c024e99d5c4ba52b61dfbbf7" target="_top" xlink:title=" ">
<polygon fill="white" stroke="#666666" points="811.5,-92.5 692,-92.5 692,-74 811.5,-74 811.5,-92.5"/>
<text text-anchor="middle" x="751.75" y="-79" font-family="Helvetica,sans-Serif" font-size="10.00">async_condition_unlock</text>
</a>
</g>
</g>
<!-- Node5&#45;&gt;Node8 -->
<g id="edge7_Node000005_Node000008" class="edge">
<title>Node5&#45;&gt;Node8</title>
<g id="a_edge7_Node000005_Node000008"><a xlink:title=" ">
<path fill="none" stroke="#63b8ff" d="M639.52,-110.53C658.24,-105.94 680.79,-100.41 700.68,-95.53"/>
<polygon fill="#63b8ff" stroke="#63b8ff" points="701.23,-98.75 710.11,-92.97 699.57,-91.95 701.23,-98.75"/>
</a>
</g>
</g>
<!-- Node10 -->
<g id="Node000010" class="node">
<title>Node10</title>
<g id="a_Node000010"><a xlink:href="a02352.html#a1bfeaeb9b81855e640d7a67cc9d92b17" target="_top" xlink:title=" ">
<polygon fill="white" stroke="#666666" points="805.88,-129.5 697.62,-129.5 697.62,-111 805.88,-111 805.88,-129.5"/>
<text text-anchor="middle" x="751.75" y="-116" font-family="Helvetica,sans-Serif" font-size="10.00">async_condition_wait</text>
</a>
</g>
</g>
<!-- Node5&#45;&gt;Node10 -->
<g id="edge9_Node000005_Node000010" class="edge">
<title>Node5&#45;&gt;Node10</title>
<g id="a_edge9_Node000005_Node000010"><a xlink:title=" ">
<path fill="none" stroke="#63b8ff" d="M656.48,-120.25C666.31,-120.25 676.59,-120.25 686.6,-120.25"/>
<polygon fill="#63b8ff" stroke="#63b8ff" points="686.32,-123.75 696.32,-120.25 686.32,-116.75 686.32,-123.75"/>
</a>
</g>
</g>
<!-- Node7 -->
<g id="Node000007" class="node">
<title>Node7</title>
<g id="a_Node000007"><a xlink:href="a02346.html#aebf9e72bb6cbd8b9e33489d46c25075d" target="_top" xlink:title=" ">
<polygon fill="white" stroke="#666666" points="975.25,-166.5 858.75,-166.5 858.75,-148 975.25,-148 975.25,-166.5"/>
<text text-anchor="middle" x="917" y="-153" font-family="Helvetica,sans-Serif" font-size="10.00">async_completion_wait</text>
</a>
</g>
</g>
<!-- Node6&#45;&gt;Node7 -->
<g id="edge6_Node000006_Node000007" class="edge">
<title>Node6&#45;&gt;Node7</title>
<g id="a_edge6_Node000006_Node000007"><a xlink:title=" ">
<path fill="none" stroke="#63b8ff" d="M806.66,-157.25C819.77,-157.25 833.98,-157.25 847.66,-157.25"/>
<polygon fill="#63b8ff" stroke="#63b8ff" points="847.5,-160.75 857.5,-157.25 847.5,-153.75 847.5,-160.75"/>
</a>
</g>
</g>
<!-- Node9 -->
<g id="Node000009" class="node">
<title>Node9</title>
<g id="a_Node000009"><a xlink:href="a02346.html#ad1d30ecbf6bff6457b680aa940281072" target="_top" xlink:title=" ">
<polygon fill="white" stroke="#666666" points="986.5,-92.5 847.5,-92.5 847.5,-74 986.5,-74 986.5,-92.5"/>
<text text-anchor="middle" x="917" y="-79" font-family="Helvetica,sans-Serif" font-size="10.00">async_completion_complete</text>
</a>
</g>
</g>
<!-- Node8&#45;&gt;Node9 -->
<g id="edge8_Node000008_Node000009" class="edge">
<title>Node8&#45;&gt;Node9</title>
<g id="a_edge8_Node000008_Node000009"><a xlink:title=" ">
<path fill="none" stroke="#63b8ff" d="M811.69,-83.25C819.69,-83.25 828.01,-83.25 836.3,-83.25"/>
<polygon fill="#63b8ff" stroke="#63b8ff" points="836.15,-86.75 846.15,-83.25 836.15,-79.75 836.15,-86.75"/>
</a>
</g>
</g>
<!-- Node10&#45;&gt;Node7 -->
<g id="edge11_Node000010_Node000007" class="edge">
<title>Node10&#45;&gt;Node7</title>
<g id="a_edge11_Node000010_Node000007"><a xlink:title=" ">
<path fill="none" stroke="#63b8ff" d="M795.64,-129.97C816.09,-134.61 840.76,-140.2 862.42,-145.11"/>
<polygon fill="#63b8ff" stroke="#63b8ff" points="861.59,-148.73 872.11,-147.53 863.13,-141.91 861.59,-148.73"/>
</a>
</g>
</g>
<!-- Node10&#45;&gt;Node9 -->
<g id="edge10_Node000010_Node000009" class="edge">
<title>Node10&#45;&gt;Node9</title>
<g id="a_edge10_Node000010_Node000009"><a xlink:title=" ">
<path fill="none" stroke="#63b8ff" d="M795.64,-110.53C816.09,-105.89 840.76,-100.3 862.42,-95.39"/>
<polygon fill="#63b8ff" stroke="#63b8ff" points="863.13,-98.59 872.11,-92.97 861.59,-91.77 863.13,-98.59"/>
</a>
</g>
</g>
<!-- Node11 -->
<g id="Node000011" class="node">
<title>Node11</title>
<g id="a_Node000011"><a xlink:href="a02346.html#a7ab7c7fe9cb93434dde72a4e464a7e69" target="_top" xlink:title=" ">
<polygon fill="white" stroke="#666666" points="974.88,-129.5 859.12,-129.5 859.12,-111 974.88,-111 974.88,-129.5"/>
<text text-anchor="middle" x="917" y="-116" font-family="Helvetica,sans-Serif" font-size="10.00">async_semaphore_dec</text>
</a>
</g>
</g>
<!-- Node10&#45;&gt;Node11 -->
<g id="edge12_Node000010_Node000011" class="edge">
<title>Node10&#45;&gt;Node11</title>
<g id="a_edge12_Node000010_Node000011"><a xlink:title=" ">
<path fill="none" stroke="#63b8ff" d="M806.2,-120.25C819.48,-120.25 833.9,-120.25 847.78,-120.25"/>
<polygon fill="#63b8ff" stroke="#63b8ff" points="847.77,-123.75 857.77,-120.25 847.77,-116.75 847.77,-123.75"/>
</a>
</g>
</g>
<!-- Node14 -->
<g id="Node000014" class="node">
<title>Node14</title>
<g id="a_Node000014"><a xlink:href="a01946.html#a5c575f52a42e0e0d2fb41bda2d1268ce" target="_top" xlink:title=" ">
<polygon fill="white" stroke="#666666" points="648.5,-55.5 549.25,-55.5 549.25,-37 648.5,-37 648.5,-55.5"/>
<text text-anchor="middle" x="598.88" y="-42" font-family="Helvetica,sans-Serif" font-size="10.00">utils_list_node_add</text>
</a>
</g>
</g>
<!-- Node13&#45;&gt;Node14 -->
<g id="edge15_Node000013_Node000014" class="edge">
<title>Node13&#45;&gt;Node14</title>
<g id="a_edge15_Node000013_Node000014"><a xlink:title=" ">
<path fill="none" stroke="#63b8ff" d="M491.52,-46.25C505.63,-46.25 522.22,-46.25 538.04,-46.25"/>
<polygon fill="#63b8ff" stroke="#63b8ff" points="537.83,-49.75 547.83,-46.25 537.83,-42.75 537.83,-49.75"/>
</a>
</g>
</g>
</g>
</svg>
