<?xml version="1.0" encoding="UTF-8" standalone="no"?>
<!DOCTYPE svg PUBLIC "-//W3C//DTD SVG 1.1//EN"
 "http://www.w3.org/Graphics/SVG/1.1/DTD/svg11.dtd">
<!-- Generated by graphviz version 8.0.5 (0)
 -->
<!-- Title: conf_get Pages: 1 -->
<svg width="338pt" height="77pt"
 viewBox="0.00 0.00 338.00 77.48" xmlns="http://www.w3.org/2000/svg" xmlns:xlink="http://www.w3.org/1999/xlink">
<g id="graph0" class="graph" transform="scale(1 1) rotate(0) translate(4 73.48)">
<title>conf_get</title>
<!-- Node1 -->
<g id="Node000001" class="node">
<title>Node1</title>
<g id="a_Node000001"><a xlink:title=" ">
<polygon fill="#999999" stroke="#666666" points="53.5,-55.5 0,-55.5 0,-37 53.5,-37 53.5,-55.5"/>
<text text-anchor="middle" x="26.75" y="-42" font-family="Helvetica,sans-Serif" font-size="10.00">conf_get</text>
</a>
</g>
</g>
<!-- Node2 -->
<g id="Node000002" class="node">
<title>Node2</title>
<g id="a_Node000002"><a xlink:href="a01955.html#acde493d3889d6f207d1e122cf4bb1b8c" target="_top" xlink:title=" ">
<polygon fill="white" stroke="#666666" points="330,-55.5 244.25,-55.5 244.25,-37 330,-37 330,-55.5"/>
<text text-anchor="middle" x="287.12" y="-42" font-family="Helvetica,sans-Serif" font-size="10.00">system_env_var</text>
</a>
</g>
</g>
<!-- Node1&#45;&gt;Node2 -->
<g id="edge1_Node000001_Node000002" class="edge">
<title>Node1&#45;&gt;Node2</title>
<g id="a_edge1_Node000001_Node000002"><a xlink:title=" ">
<path fill="none" stroke="#63b8ff" d="M53.83,-55.63C64.71,-59.08 77.56,-62.55 89.5,-64.25 141.75,-71.71 155.81,-70.23 208.25,-64.25 219.11,-63.01 230.65,-60.83 241.44,-58.41"/>
<polygon fill="#63b8ff" stroke="#63b8ff" points="241.99,-61.64 250.92,-55.93 240.38,-54.82 241.99,-61.64"/>
</a>
</g>
</g>
<!-- Node3 -->
<g id="Node000003" class="node">
<title>Node3</title>
<g id="a_Node000003"><a xlink:href="a01955.html#a86c3bfbf6daaf8172e131aa23dc7393c" target="_top" xlink:title=" ">
<polygon fill="white" stroke="#666666" points="192.5,-55.5 105.25,-55.5 105.25,-37 192.5,-37 192.5,-55.5"/>
<text text-anchor="middle" x="148.88" y="-42" font-family="Helvetica,sans-Serif" font-size="10.00">system_file_size</text>
</a>
</g>
</g>
<!-- Node1&#45;&gt;Node3 -->
<g id="edge2_Node000001_Node000003" class="edge">
<title>Node1&#45;&gt;Node3</title>
<g id="a_edge2_Node000001_Node000003"><a xlink:title=" ">
<path fill="none" stroke="#63b8ff" d="M53.82,-46.25C65.69,-46.25 80.21,-46.25 94.26,-46.25"/>
<polygon fill="#63b8ff" stroke="#63b8ff" points="93.86,-49.75 103.86,-46.25 93.86,-42.75 93.86,-49.75"/>
</a>
</g>
</g>
<!-- Node4 -->
<g id="Node000004" class="node">
<title>Node4</title>
<g id="a_Node000004"><a xlink:href="a01952.html#a17713c8e9b90065e23b0ec1a225f79ab" target="_top" xlink:title=" ">
<polygon fill="white" stroke="#666666" points="208.25,-18.5 89.5,-18.5 89.5,0 208.25,0 208.25,-18.5"/>
<text text-anchor="middle" x="148.88" y="-5" font-family="Helvetica,sans-Serif" font-size="10.00">utils_config_get_source</text>
</a>
</g>
</g>
<!-- Node1&#45;&gt;Node4 -->
<g id="edge3_Node000001_Node000004" class="edge">
<title>Node1&#45;&gt;Node4</title>
<g id="a_edge3_Node000001_Node000004"><a xlink:title=" ">
<path fill="none" stroke="#63b8ff" d="M53.82,-38.22C69.02,-33.54 88.55,-27.52 105.87,-22.19"/>
<polygon fill="#63b8ff" stroke="#63b8ff" points="106.78,-25.26 115.31,-18.97 104.72,-18.57 106.78,-25.26"/>
</a>
</g>
</g>
<!-- Node4&#45;&gt;Node2 -->
<g id="edge4_Node000004_Node000002" class="edge">
<title>Node4&#45;&gt;Node2</title>
<g id="a_edge4_Node000004_Node000002"><a xlink:title=" ">
<path fill="none" stroke="#63b8ff" d="M185.67,-18.97C202.34,-23.5 222.36,-28.93 240.13,-33.76"/>
<polygon fill="#63b8ff" stroke="#63b8ff" points="239,-37.35 249.57,-36.59 240.83,-30.6 239,-37.35"/>
</a>
</g>
</g>
</g>
</svg>
