<?xml version="1.0" encoding="UTF-8" standalone="no"?>
<!DOCTYPE svg PUBLIC "-//W3C//DTD SVG 1.1//EN"
 "http://www.w3.org/Graphics/SVG/1.1/DTD/svg11.dtd">
<!-- Generated by graphviz version 8.0.5 (0)
 -->
<!-- Title: arax_throttle_size_dec Pages: 1 -->
<svg width="1022pt" height="277pt"
 viewBox="0.00 0.00 1022.25 276.75" xmlns="http://www.w3.org/2000/svg" xmlns:xlink="http://www.w3.org/1999/xlink">
<g id="graph0" class="graph" transform="scale(1 1) rotate(0) translate(4 272.75)">
<title>arax_throttle_size_dec</title>
<!-- Node1 -->
<g id="Node000001" class="node">
<title>Node1</title>
<g id="a_Node000001"><a xlink:title=" ">
<polygon fill="#999999" stroke="#666666" points="1014.25,-165.5 900,-165.5 900,-147 1014.25,-147 1014.25,-165.5"/>
<text text-anchor="middle" x="957.12" y="-152" font-family="Helvetica,sans-Serif" font-size="10.00">arax_throttle_size_dec</text>
</a>
</g>
</g>
<!-- Node2 -->
<g id="Node000002" class="node">
<title>Node2</title>
<g id="a_Node000002"><a xlink:href="a01904.html#a503b6bc6d5be49fd8715f62c7174c28e" target="_top" xlink:title=" ">
<polygon fill="white" stroke="#666666" points="725.75,-214.5 618.25,-214.5 618.25,-196 725.75,-196 725.75,-214.5"/>
<text text-anchor="middle" x="672" y="-201" font-family="Helvetica,sans-Serif" font-size="10.00">arax_accel_size_dec</text>
</a>
</g>
</g>
<!-- Node1&#45;&gt;Node2 -->
<g id="edge1_Node000001_Node000002" class="edge">
<title>Node1&#45;&gt;Node2</title>
<g id="a_edge1_Node000001_Node000002"><a xlink:title=" ">
<path fill="none" stroke="#63b8ff" d="M889.16,-167.84C839.23,-176.48 771.98,-188.12 725.82,-196.11"/>
<polygon fill="#63b8ff" stroke="#63b8ff" points="889.59,-171.14 898.85,-165.99 888.4,-164.25 889.59,-171.14"/>
</a>
</g>
</g>
<!-- Node4 -->
<g id="Node000004" class="node">
<title>Node4</title>
<g id="a_Node000004"><a xlink:href="a01913.html#a1cfa2c90268c6e53ce376beb7cce153c" target="_top" xlink:title=" ">
<polygon fill="white" stroke="#666666" points="864,-147.5 761.75,-147.5 761.75,-129 864,-129 864,-147.5"/>
<text text-anchor="middle" x="812.88" y="-134" font-family="Helvetica,sans-Serif" font-size="10.00">arax_pipe_size_dec</text>
</a>
</g>
</g>
<!-- Node1&#45;&gt;Node4 -->
<g id="edge3_Node000001_Node000004" class="edge">
<title>Node1&#45;&gt;Node4</title>
<g id="a_edge3_Node000001_Node000004"><a xlink:title=" ">
<path fill="none" stroke="#63b8ff" d="M888.99,-147.76C880.63,-146.7 872.2,-145.63 864.15,-144.61"/>
<polygon fill="#63b8ff" stroke="#63b8ff" points="888.54,-151.35 898.9,-149.14 889.42,-144.41 888.54,-151.35"/>
</a>
</g>
</g>
<!-- Node3 -->
<g id="Node000003" class="node">
<title>Node3</title>
<g id="a_Node000003"><a xlink:href="a01931.html#af8ede6fc8d207004035f45d945688d2c" target="_top" xlink:title=" ">
<polygon fill="white" stroke="#666666" points="253.62,-268.75 155.12,-268.75 155.12,-239.75 253.62,-239.75 253.62,-268.75"/>
<text text-anchor="start" x="163.12" y="-255.25" font-family="Helvetica,sans-Serif" font-size="10.00">arax_data_allocate</text>
<text text-anchor="middle" x="204.38" y="-244.75" font-family="Helvetica,sans-Serif" font-size="10.00">_remote</text>
</a>
</g>
</g>
<!-- Node2&#45;&gt;Node3 -->
<g id="edge2_Node000002_Node000003" class="edge">
<title>Node2&#45;&gt;Node3</title>
<g id="a_edge2_Node000002_Node000003"><a xlink:title=" ">
<path fill="none" stroke="#63b8ff" d="M607.24,-211.96C513.04,-221.87 338.74,-240.22 254.07,-249.13"/>
<polygon fill="#63b8ff" stroke="#63b8ff" points="607.46,-215.35 617.04,-210.82 606.73,-208.39 607.46,-215.35"/>
</a>
</g>
</g>
<!-- Node5 -->
<g id="Node000005" class="node">
<title>Node5</title>
<g id="a_Node000005"><a xlink:href="a01910.html#a402bbd6fa197c2c48d527325e5e2cf5b" target="_top" xlink:title=" ">
<polygon fill="white" stroke="#666666" points="724.25,-147.5 619.75,-147.5 619.75,-129 724.25,-129 724.25,-147.5"/>
<text text-anchor="middle" x="672" y="-134" font-family="Helvetica,sans-Serif" font-size="10.00">arax_object_register</text>
</a>
</g>
</g>
<!-- Node4&#45;&gt;Node5 -->
<g id="edge4_Node000004_Node000005" class="edge">
<title>Node4&#45;&gt;Node5</title>
<g id="a_edge4_Node000004_Node000005"><a xlink:title=" ">
<path fill="none" stroke="#63b8ff" d="M750.54,-138.25C741.9,-138.25 733.09,-138.25 724.66,-138.25"/>
<polygon fill="#63b8ff" stroke="#63b8ff" points="750.35,-141.75 760.35,-138.25 750.35,-134.75 750.35,-141.75"/>
</a>
</g>
</g>
<!-- Node6 -->
<g id="Node000006" class="node">
<title>Node6</title>
<g id="a_Node000006"><a xlink:href="a01904.html#a0706a66a62ca8710342ac1c097b703ed" target="_top" xlink:title=" ">
<polygon fill="white" stroke="#666666" points="410.62,-166.5 328.62,-166.5 328.62,-148 410.62,-148 410.62,-166.5"/>
<text text-anchor="middle" x="369.62" y="-153" font-family="Helvetica,sans-Serif" font-size="10.00">arax_accel_init</text>
</a>
</g>
</g>
<!-- Node5&#45;&gt;Node6 -->
<g id="edge5_Node000005_Node000006" class="edge">
<title>Node5&#45;&gt;Node6</title>
<g id="a_edge5_Node000005_Node000006"><a xlink:title=" ">
<path fill="none" stroke="#63b8ff" d="M608.63,-142.2C549.28,-145.95 461.74,-151.49 411.02,-154.69"/>
<polygon fill="#63b8ff" stroke="#63b8ff" points="608.6,-145.64 618.36,-141.52 608.16,-138.65 608.6,-145.64"/>
</a>
</g>
</g>
<!-- Node7 -->
<g id="Node000007" class="node">
<title>Node7</title>
<g id="a_Node000007"><a xlink:href="a01931.html#a526989df37e605824d846b7ba54b43ea" target="_top" xlink:title=" ">
<polygon fill="white" stroke="#666666" points="582.25,-83.5 468.75,-83.5 468.75,-65 582.25,-65 582.25,-83.5"/>
<text text-anchor="middle" x="525.5" y="-70" font-family="Helvetica,sans-Serif" font-size="10.00">arax_data_init_aligned</text>
</a>
</g>
</g>
<!-- Node5&#45;&gt;Node7 -->
<g id="edge6_Node000005_Node000007" class="edge">
<title>Node5&#45;&gt;Node7</title>
<g id="a_edge6_Node000005_Node000007"><a xlink:title=" ">
<path fill="none" stroke="#63b8ff" d="M639.09,-124.12C611.48,-111.89 572.29,-94.53 548.18,-83.85"/>
<polygon fill="#63b8ff" stroke="#63b8ff" points="637.49,-127.68 648.05,-128.53 640.33,-121.28 637.49,-127.68"/>
</a>
</g>
</g>
<!-- Node10 -->
<g id="Node000010" class="node">
<title>Node10</title>
<g id="a_Node000010"><a xlink:href="a01916.html#a86ac572ea8f5f613129192c47d598818" target="_top" xlink:title=" ">
<polygon fill="white" stroke="#666666" points="564.25,-28.5 486.75,-28.5 486.75,-10 564.25,-10 564.25,-28.5"/>
<text text-anchor="middle" x="525.5" y="-15" font-family="Helvetica,sans-Serif" font-size="10.00">arax_proc_init</text>
</a>
</g>
</g>
<!-- Node5&#45;&gt;Node10 -->
<g id="edge9_Node000005_Node000010" class="edge">
<title>Node5&#45;&gt;Node10</title>
<g id="a_edge9_Node000005_Node000010"><a xlink:title=" ">
<path fill="none" stroke="#63b8ff" d="M654,-121C636.66,-103.78 608.62,-76.97 582.25,-56.25 569.46,-46.2 553.99,-36.08 542.59,-28.97"/>
<polygon fill="#63b8ff" stroke="#63b8ff" points="651.06,-123.01 660.6,-127.62 656.02,-118.07 651.06,-123.01"/>
</a>
</g>
</g>
<!-- Node12 -->
<g id="Node000012" class="node">
<title>Node12</title>
<g id="a_Node000012"><a xlink:href="a01922.html#a27bee94f7a23281c8b2b72ec433f6059" target="_top" xlink:title=" ">
<polygon fill="white" stroke="#666666" points="568,-203.5 483,-203.5 483,-185 568,-185 568,-203.5"/>
<text text-anchor="middle" x="525.5" y="-190" font-family="Helvetica,sans-Serif" font-size="10.00">arax_task_alloc</text>
</a>
</g>
</g>
<!-- Node5&#45;&gt;Node12 -->
<g id="edge11_Node000005_Node000012" class="edge">
<title>Node5&#45;&gt;Node12</title>
<g id="a_edge11_Node000005_Node000012"><a xlink:title=" ">
<path fill="none" stroke="#63b8ff" d="M635.93,-151.84C609.82,-161.96 574.82,-175.53 551.5,-184.56"/>
<polygon fill="#63b8ff" stroke="#63b8ff" points="637.1,-154.75 645.16,-147.88 634.57,-148.23 637.1,-154.75"/>
</a>
</g>
</g>
<!-- Node19 -->
<g id="Node000019" class="node">
<title>Node19</title>
<g id="a_Node000019"><a xlink:href="a01928.html#a83ddb422946cf774c687c1ab63dcda15" target="_top" xlink:title=" ">
<polygon fill="white" stroke="#666666" points="568.75,-129.5 482.25,-129.5 482.25,-111 568.75,-111 568.75,-129.5"/>
<text text-anchor="middle" x="525.5" y="-116" font-family="Helvetica,sans-Serif" font-size="10.00">arax_vaccel_init</text>
</a>
</g>
</g>
<!-- Node5&#45;&gt;Node19 -->
<g id="edge20_Node000005_Node000019" class="edge">
<title>Node5&#45;&gt;Node19</title>
<g id="a_edge20_Node000005_Node000019"><a xlink:title=" ">
<path fill="none" stroke="#63b8ff" d="M609,-130.53C595.55,-128.85 581.61,-127.11 569.1,-125.56"/>
<polygon fill="#63b8ff" stroke="#63b8ff" points="608.29,-134.09 618.65,-131.85 609.16,-127.14 608.29,-134.09"/>
</a>
</g>
</g>
<!-- Node8 -->
<g id="Node000008" class="node">
<title>Node8</title>
<g id="a_Node000008"><a xlink:href="a01931.html#aeefe449d4a278e9fc4b9c5f7e31000a1" target="_top" xlink:title=" ">
<polygon fill="white" stroke="#666666" points="408.38,-55.5 330.88,-55.5 330.88,-37 408.38,-37 408.38,-55.5"/>
<text text-anchor="middle" x="369.62" y="-42" font-family="Helvetica,sans-Serif" font-size="10.00">arax_data_init</text>
</a>
</g>
</g>
<!-- Node7&#45;&gt;Node8 -->
<g id="edge7_Node000007_Node000008" class="edge">
<title>Node7&#45;&gt;Node8</title>
<g id="a_edge7_Node000007_Node000008"><a xlink:title=" ">
<path fill="none" stroke="#63b8ff" d="M460.77,-62.65C442.97,-59.41 424.19,-56 408.41,-53.13"/>
<polygon fill="#63b8ff" stroke="#63b8ff" points="459.65,-66.19 470.11,-64.54 460.9,-59.3 459.65,-66.19"/>
</a>
</g>
</g>
<!-- Node9 -->
<g id="Node000009" class="node">
<title>Node9</title>
<g id="a_Node000009"><a xlink:href="a02178.html#ga9260ad2dd766aec3274c518e2e312b1f" target="_top" xlink:title=" ">
<polygon fill="white" stroke="#666666" points="249.12,-55.5 159.62,-55.5 159.62,-37 249.12,-37 249.12,-55.5"/>
<text text-anchor="middle" x="204.38" y="-42" font-family="Helvetica,sans-Serif" font-size="10.00">ARAX_BUFFER</text>
</a>
</g>
</g>
<!-- Node8&#45;&gt;Node9 -->
<g id="edge8_Node000008_Node000009" class="edge">
<title>Node8&#45;&gt;Node9</title>
<g id="a_edge8_Node000008_Node000009"><a xlink:title=" ">
<path fill="none" stroke="#63b8ff" d="M319.81,-46.25C297.44,-46.25 271.14,-46.25 249.39,-46.25"/>
<polygon fill="#63b8ff" stroke="#63b8ff" points="319.76,-49.75 329.76,-46.25 319.76,-42.75 319.76,-49.75"/>
</a>
</g>
</g>
<!-- Node11 -->
<g id="Node000011" class="node">
<title>Node11</title>
<g id="a_Node000011"><a xlink:href="a02176.html#gafad2dafb4a231390f02b7c866295b7d9" target="_top" xlink:title=" ">
<polygon fill="white" stroke="#666666" points="418.12,-18.5 321.12,-18.5 321.12,0 418.12,0 418.12,-18.5"/>
<text text-anchor="middle" x="369.62" y="-5" font-family="Helvetica,sans-Serif" font-size="10.00">arax_proc_register</text>
</a>
</g>
</g>
<!-- Node10&#45;&gt;Node11 -->
<g id="edge10_Node000010_Node000011" class="edge">
<title>Node10&#45;&gt;Node11</title>
<g id="a_edge10_Node000010_Node000011"><a xlink:title=" ">
<path fill="none" stroke="#63b8ff" d="M475.72,-16.08C457.41,-14.89 436.64,-13.54 418.42,-12.36"/>
<polygon fill="#63b8ff" stroke="#63b8ff" points="475.26,-19.62 485.46,-16.78 475.71,-12.64 475.26,-19.62"/>
</a>
</g>
</g>
<!-- Node13 -->
<g id="Node000013" class="node">
<title>Node13</title>
<g id="a_Node000013"><a xlink:href="a02177.html#gac9f0f3fbb14da879d3ff09bd367bbb24" target="_top" xlink:title=" ">
<polygon fill="white" stroke="#666666" points="413.62,-203.5 325.62,-203.5 325.62,-185 413.62,-185 413.62,-203.5"/>
<text text-anchor="middle" x="369.62" y="-190" font-family="Helvetica,sans-Serif" font-size="10.00">arax_task_issue</text>
</a>
</g>
</g>
<!-- Node12&#45;&gt;Node13 -->
<g id="edge12_Node000012_Node000013" class="edge">
<title>Node12&#45;&gt;Node13</title>
<g id="a_edge12_Node000012_Node000013"><a xlink:title=" ">
<path fill="none" stroke="#63b8ff" d="M472.01,-194.25C453.09,-194.25 431.96,-194.25 413.91,-194.25"/>
<polygon fill="#63b8ff" stroke="#63b8ff" points="471.86,-197.75 481.86,-194.25 471.86,-190.75 471.86,-197.75"/>
</a>
</g>
</g>
<!-- Node13&#45;&gt;Node3 -->
<g id="edge13_Node000013_Node000003" class="edge">
<title>Node13&#45;&gt;Node3</title>
<g id="a_edge13_Node000013_Node000003"><a xlink:title=" ">
<path fill="none" stroke="#63b8ff" d="M332.35,-207.58C306.74,-217 272.4,-229.62 245.89,-239.36"/>
<polygon fill="#63b8ff" stroke="#63b8ff" points="333.22,-210.62 341.4,-203.89 330.8,-204.05 333.22,-210.62"/>
</a>
</g>
</g>
<!-- Node14 -->
<g id="Node000014" class="node">
<title>Node14</title>
<g id="a_Node000014"><a xlink:href="a01931.html#a696bc4319d0f6c6baa7d797a8df6b56f" target="_top" xlink:title=" ">
<polygon fill="white" stroke="#666666" points="243.5,-221.5 165.25,-221.5 165.25,-203 243.5,-203 243.5,-221.5"/>
<text text-anchor="middle" x="204.38" y="-208" font-family="Helvetica,sans-Serif" font-size="10.00">arax_data_get</text>
</a>
</g>
</g>
<!-- Node13&#45;&gt;Node14 -->
<g id="edge14_Node000013_Node000014" class="edge">
<title>Node13&#45;&gt;Node14</title>
<g id="a_edge14_Node000013_Node000014"><a xlink:title=" ">
<path fill="none" stroke="#63b8ff" d="M314.6,-200.21C291.46,-202.76 264.98,-205.68 243.88,-208"/>
<polygon fill="#63b8ff" stroke="#63b8ff" points="314.75,-203.6 324.31,-199.03 313.98,-196.64 314.75,-203.6"/>
</a>
</g>
</g>
<!-- Node16 -->
<g id="Node000016" class="node">
<title>Node16</title>
<g id="a_Node000016"><a xlink:href="a01931.html#a8995f71dba475975efc37756783cfce9" target="_top" xlink:title=" ">
<polygon fill="white" stroke="#666666" points="243.5,-184.5 165.25,-184.5 165.25,-166 243.5,-166 243.5,-184.5"/>
<text text-anchor="middle" x="204.38" y="-171" font-family="Helvetica,sans-Serif" font-size="10.00">arax_data_set</text>
</a>
</g>
</g>
<!-- Node13&#45;&gt;Node16 -->
<g id="edge16_Node000013_Node000016" class="edge">
<title>Node13&#45;&gt;Node16</title>
<g id="a_edge16_Node000013_Node000016"><a xlink:title=" ">
<path fill="none" stroke="#63b8ff" d="M314.6,-187.96C291.46,-185.27 264.98,-182.19 243.88,-179.73"/>
<polygon fill="#63b8ff" stroke="#63b8ff" points="313.97,-191.53 324.31,-189.21 314.78,-184.58 313.97,-191.53"/>
</a>
</g>
</g>
<!-- Node17 -->
<g id="Node000017" class="node">
<title>Node17</title>
<g id="a_Node000017"><a xlink:href="a01931.html#af735744d0f8bec04394639a841d2ba0f" target="_top" xlink:title=" ">
<polygon fill="white" stroke="#666666" points="270.5,-147.5 138.25,-147.5 138.25,-129 270.5,-129 270.5,-147.5"/>
<text text-anchor="middle" x="204.38" y="-134" font-family="Helvetica,sans-Serif" font-size="10.00">ARAX_OBJ_DTOR_DECL</text>
</a>
</g>
</g>
<!-- Node13&#45;&gt;Node17 -->
<g id="edge18_Node000013_Node000017" class="edge">
<title>Node13&#45;&gt;Node17</title>
<g id="a_edge18_Node000013_Node000017"><a xlink:title=" ">
<path fill="none" stroke="#63b8ff" d="M323.06,-181.28C317.44,-179.39 311.8,-177.37 306.5,-175.25 289.89,-168.61 287.15,-163.78 270.5,-157.25 261.73,-153.81 252.08,-150.66 242.96,-147.97"/>
<polygon fill="#63b8ff" stroke="#63b8ff" points="321.52,-184.78 332.12,-184.51 323.67,-178.11 321.52,-184.78"/>
</a>
</g>
</g>
<!-- Node18 -->
<g id="Node000018" class="node">
<title>Node18</title>
<g id="a_Node000018"><a xlink:href="a02177.html#ga1418f4cd7336bf77cce7b955a1bf7077" target="_top" xlink:title=" ">
<polygon fill="white" stroke="#666666" points="261.12,-110.5 147.62,-110.5 147.62,-92 261.12,-92 261.12,-110.5"/>
<text text-anchor="middle" x="204.38" y="-97" font-family="Helvetica,sans-Serif" font-size="10.00">arax_task_issue_sync</text>
</a>
</g>
</g>
<!-- Node13&#45;&gt;Node18 -->
<g id="edge19_Node000013_Node000018" class="edge">
<title>Node13&#45;&gt;Node18</title>
<g id="a_edge19_Node000013_Node000018"><a xlink:title=" ">
<path fill="none" stroke="#63b8ff" d="M315.49,-180.88C312.33,-179.22 309.3,-177.35 306.5,-175.25 283.14,-157.71 293.98,-137.64 270.5,-120.25 265.39,-116.46 259.54,-113.43 253.48,-111"/>
<polygon fill="#63b8ff" stroke="#63b8ff" points="313.74,-184.38 324.3,-185.29 316.61,-178 313.74,-184.38"/>
</a>
</g>
</g>
<!-- Node15 -->
<g id="Node000015" class="node">
<title>Node15</title>
<g id="a_Node000015"><a xlink:href="a01931.html#a7d8356bd5c8b6a8d7dffc6ba94cc22e5" target="_top" xlink:title=" ">
<polygon fill="white" stroke="#666666" points="102.25,-202.5 0,-202.5 0,-184 102.25,-184 102.25,-202.5"/>
<text text-anchor="middle" x="51.12" y="-189" font-family="Helvetica,sans-Serif" font-size="10.00">arax_data_memcpy</text>
</a>
</g>
</g>
<!-- Node14&#45;&gt;Node15 -->
<g id="edge15_Node000014_Node000015" class="edge">
<title>Node14&#45;&gt;Node15</title>
<g id="a_edge15_Node000014_Node000015"><a xlink:title=" ">
<path fill="none" stroke="#63b8ff" d="M154.27,-206.08C137.73,-204 119.26,-201.68 102.61,-199.59"/>
<polygon fill="#63b8ff" stroke="#63b8ff" points="153.46,-209.63 163.82,-207.41 154.33,-202.69 153.46,-209.63"/>
</a>
</g>
</g>
<!-- Node16&#45;&gt;Node15 -->
<g id="edge17_Node000016_Node000015" class="edge">
<title>Node16&#45;&gt;Node15</title>
<g id="a_edge17_Node000016_Node000015"><a xlink:title=" ">
<path fill="none" stroke="#63b8ff" d="M154.27,-181.09C137.73,-183.06 119.26,-185.26 102.61,-187.24"/>
<polygon fill="#63b8ff" stroke="#63b8ff" points="154.3,-184.5 163.82,-179.84 153.47,-177.55 154.3,-184.5"/>
</a>
</g>
</g>
<!-- Node19&#45;&gt;Node6 -->
<g id="edge23_Node000019_Node000006" class="edge">
<title>Node19&#45;&gt;Node6</title>
<g id="a_edge23_Node000019_Node000006"><a xlink:title=" ">
<path fill="none" stroke="#63b8ff" d="M473.44,-132.53C453.15,-137.41 430.15,-142.94 411.05,-147.53"/>
<polygon fill="#63b8ff" stroke="#63b8ff" points="474.17,-135.71 483.07,-129.97 472.53,-128.91 474.17,-135.71"/>
</a>
</g>
</g>
<!-- Node20 -->
<g id="Node000020" class="node">
<title>Node20</title>
<g id="a_Node000020"><a xlink:href="a02175.html#gaf8a10ab4e51e59c464ab3ab473e4a0f7" target="_top" xlink:title=" ">
<polygon fill="white" stroke="#666666" points="432.75,-129.5 306.5,-129.5 306.5,-111 432.75,-111 432.75,-129.5"/>
<text text-anchor="middle" x="369.62" y="-116" font-family="Helvetica,sans-Serif" font-size="10.00">arax_accel_acquire_phys</text>
</a>
</g>
</g>
<!-- Node19&#45;&gt;Node20 -->
<g id="edge21_Node000019_Node000020" class="edge">
<title>Node19&#45;&gt;Node20</title>
<g id="a_edge21_Node000019_Node000020"><a xlink:title=" ">
<path fill="none" stroke="#63b8ff" d="M471.08,-120.25C458.83,-120.25 445.7,-120.25 433.11,-120.25"/>
<polygon fill="#63b8ff" stroke="#63b8ff" points="471.05,-123.75 481.05,-120.25 471.05,-116.75 471.05,-123.75"/>
</a>
</g>
</g>
<!-- Node21 -->
<g id="Node000021" class="node">
<title>Node21</title>
<g id="a_Node000021"><a xlink:href="a02175.html#ga008252bb9afc2990fa2c5f4b980c9f27" target="_top" xlink:title=" ">
<polygon fill="white" stroke="#666666" points="432,-92.5 307.25,-92.5 307.25,-74 432,-74 432,-92.5"/>
<text text-anchor="middle" x="369.62" y="-79" font-family="Helvetica,sans-Serif" font-size="10.00">arax_accel_acquire_type</text>
</a>
</g>
</g>
<!-- Node19&#45;&gt;Node21 -->
<g id="edge22_Node000019_Node000021" class="edge">
<title>Node19&#45;&gt;Node21</title>
<g id="a_edge22_Node000019_Node000021"><a xlink:title=" ">
<path fill="none" stroke="#63b8ff" d="M473.44,-107.97C453.15,-103.09 430.15,-97.56 411.05,-92.97"/>
<polygon fill="#63b8ff" stroke="#63b8ff" points="472.53,-111.59 483.07,-110.53 474.17,-104.79 472.53,-111.59"/>
</a>
</g>
</g>
</g>
</svg>
