<?xml version="1.0" encoding="UTF-8" standalone="no"?>
<!DOCTYPE svg PUBLIC "-//W3C//DTD SVG 1.1//EN"
 "http://www.w3.org/Graphics/SVG/1.1/DTD/svg11.dtd">
<!-- Generated by graphviz version 8.0.5 (0)
 -->
<!-- Title: utils_config_get_bool Pages: 1 -->
<svg width="1056pt" height="77pt"
 viewBox="0.00 0.00 1056.25 77.48" xmlns="http://www.w3.org/2000/svg" xmlns:xlink="http://www.w3.org/1999/xlink">
<g id="graph0" class="graph" transform="scale(1 1) rotate(0) translate(4 73.48)">
<title>utils_config_get_bool</title>
<!-- Node1 -->
<g id="Node000001" class="node">
<title>Node1</title>
<g id="a_Node000001"><a xlink:title=" ">
<polygon fill="#999999" stroke="#666666" points="107.5,-36.5 0,-36.5 0,-18 107.5,-18 107.5,-36.5"/>
<text text-anchor="middle" x="53.75" y="-23" font-family="Helvetica,sans-Serif" font-size="10.00">utils_config_get_bool</text>
</a>
</g>
</g>
<!-- Node2 -->
<g id="Node000002" class="node">
<title>Node2</title>
<g id="a_Node000002"><a xlink:href="a01952.html#a336fa8eefc3d744aa7248d6786cfee03" target="_top" xlink:title=" ">
<polygon fill="white" stroke="#666666" points="243.5,-36.5 143.5,-36.5 143.5,-18 243.5,-18 243.5,-36.5"/>
<text text-anchor="middle" x="193.5" y="-23" font-family="Helvetica,sans-Serif" font-size="10.00">utils_config_get_int</text>
</a>
</g>
</g>
<!-- Node1&#45;&gt;Node2 -->
<g id="edge1_Node000001_Node000002" class="edge">
<title>Node1&#45;&gt;Node2</title>
<g id="a_edge1_Node000001_Node000002"><a xlink:title=" ">
<path fill="none" stroke="#63b8ff" d="M107.61,-27.25C115.74,-27.25 124.18,-27.25 132.44,-27.25"/>
<polygon fill="#63b8ff" stroke="#63b8ff" points="132.17,-30.75 142.17,-27.25 132.17,-23.75 132.17,-30.75"/>
</a>
</g>
</g>
<!-- Node3 -->
<g id="Node000003" class="node">
<title>Node3</title>
<g id="a_Node000003"><a xlink:href="a01952.html#a1a28ba7c7791236d03b1fa9f81aa6a71" target="_top" xlink:title=" ">
<polygon fill="white" stroke="#666666" points="387,-36.5 279.5,-36.5 279.5,-18 387,-18 387,-36.5"/>
<text text-anchor="middle" x="333.25" y="-23" font-family="Helvetica,sans-Serif" font-size="10.00">utils_config_get_long</text>
</a>
</g>
</g>
<!-- Node2&#45;&gt;Node3 -->
<g id="edge2_Node000002_Node000003" class="edge">
<title>Node2&#45;&gt;Node3</title>
<g id="a_edge2_Node000002_Node000003"><a xlink:title=" ">
<path fill="none" stroke="#63b8ff" d="M243.84,-27.25C251.7,-27.25 259.92,-27.25 268.06,-27.25"/>
<polygon fill="#63b8ff" stroke="#63b8ff" points="268.06,-30.75 278.06,-27.25 268.06,-23.75 268.06,-30.75"/>
</a>
</g>
</g>
<!-- Node4 -->
<g id="Node000004" class="node">
<title>Node4</title>
<g id="a_Node000004"><a xlink:href="a01952.html#a0738274ac3fd171eda6bfb42492bc0d7" target="_top" xlink:title=" ">
<polygon fill="white" stroke="#666666" points="681.12,-55.5 575.12,-55.5 575.12,-37 681.12,-37 681.12,-55.5"/>
<text text-anchor="middle" x="628.12" y="-42" font-family="Helvetica,sans-Serif" font-size="10.00">_utils_config_get_str</text>
</a>
</g>
</g>
<!-- Node3&#45;&gt;Node4 -->
<g id="edge3_Node000003_Node000004" class="edge">
<title>Node3&#45;&gt;Node4</title>
<g id="a_edge3_Node000003_Node000004"><a xlink:title=" ">
<path fill="none" stroke="#63b8ff" d="M387.29,-30.69C437,-33.92 511.35,-38.74 564.07,-42.16"/>
<polygon fill="#63b8ff" stroke="#63b8ff" points="563.77,-45.71 573.97,-42.87 564.22,-38.73 563.77,-45.71"/>
</a>
</g>
</g>
<!-- Node9 -->
<g id="Node000009" class="node">
<title>Node9</title>
<g id="a_Node000009"><a xlink:href="a01952.html#a88091e179416d4beec1b5681cfb68742" target="_top" xlink:title=" ">
<polygon fill="white" stroke="#666666" points="538,-18.5 423,-18.5 423,0 538,0 538,-18.5"/>
<text text-anchor="middle" x="480.5" y="-5" font-family="Helvetica,sans-Serif" font-size="10.00">utils_config_write_long</text>
</a>
</g>
</g>
<!-- Node3&#45;&gt;Node9 -->
<g id="edge9_Node000003_Node000009" class="edge">
<title>Node3&#45;&gt;Node9</title>
<g id="a_edge9_Node000003_Node000009"><a xlink:title=" ">
<path fill="none" stroke="#63b8ff" d="M387.1,-20.7C395.11,-19.71 403.46,-18.67 411.74,-17.65"/>
<polygon fill="#63b8ff" stroke="#63b8ff" points="412.03,-21.01 421.52,-16.31 411.17,-14.07 412.03,-21.01"/>
</a>
</g>
</g>
<!-- Node5 -->
<g id="Node000005" class="node">
<title>Node5</title>
<g id="a_Node000005"><a xlink:href="a01952.html#a8b687fb4c464903e23504eea3ddc3873" target="_top" xlink:title=" ">
<polygon fill="white" stroke="#666666" points="771.75,-55.5 718.25,-55.5 718.25,-37 771.75,-37 771.75,-55.5"/>
<text text-anchor="middle" x="745" y="-42" font-family="Helvetica,sans-Serif" font-size="10.00">conf_get</text>
</a>
</g>
</g>
<!-- Node4&#45;&gt;Node5 -->
<g id="edge4_Node000004_Node000005" class="edge">
<title>Node4&#45;&gt;Node5</title>
<g id="a_edge4_Node000004_Node000005"><a xlink:title=" ">
<path fill="none" stroke="#63b8ff" d="M681.52,-46.25C690.13,-46.25 698.89,-46.25 707.02,-46.25"/>
<polygon fill="#63b8ff" stroke="#63b8ff" points="707.01,-49.75 717.01,-46.25 707.01,-42.75 707.01,-49.75"/>
</a>
</g>
</g>
<!-- Node6 -->
<g id="Node000006" class="node">
<title>Node6</title>
<g id="a_Node000006"><a xlink:href="a01955.html#acde493d3889d6f207d1e122cf4bb1b8c" target="_top" xlink:title=" ">
<polygon fill="white" stroke="#666666" points="1048.25,-55.5 962.5,-55.5 962.5,-37 1048.25,-37 1048.25,-55.5"/>
<text text-anchor="middle" x="1005.38" y="-42" font-family="Helvetica,sans-Serif" font-size="10.00">system_env_var</text>
</a>
</g>
</g>
<!-- Node5&#45;&gt;Node6 -->
<g id="edge5_Node000005_Node000006" class="edge">
<title>Node5&#45;&gt;Node6</title>
<g id="a_edge5_Node000005_Node000006"><a xlink:title=" ">
<path fill="none" stroke="#63b8ff" d="M772.08,-55.63C782.96,-59.08 795.81,-62.55 807.75,-64.25 860,-71.71 874.06,-70.23 926.5,-64.25 937.36,-63.01 948.9,-60.83 959.69,-58.41"/>
<polygon fill="#63b8ff" stroke="#63b8ff" points="960.24,-61.64 969.17,-55.93 958.63,-54.82 960.24,-61.64"/>
</a>
</g>
</g>
<!-- Node7 -->
<g id="Node000007" class="node">
<title>Node7</title>
<g id="a_Node000007"><a xlink:href="a01955.html#a86c3bfbf6daaf8172e131aa23dc7393c" target="_top" xlink:title=" ">
<polygon fill="white" stroke="#666666" points="910.75,-55.5 823.5,-55.5 823.5,-37 910.75,-37 910.75,-55.5"/>
<text text-anchor="middle" x="867.12" y="-42" font-family="Helvetica,sans-Serif" font-size="10.00">system_file_size</text>
</a>
</g>
</g>
<!-- Node5&#45;&gt;Node7 -->
<g id="edge6_Node000005_Node000007" class="edge">
<title>Node5&#45;&gt;Node7</title>
<g id="a_edge6_Node000005_Node000007"><a xlink:title=" ">
<path fill="none" stroke="#63b8ff" d="M772.07,-46.25C783.94,-46.25 798.46,-46.25 812.51,-46.25"/>
<polygon fill="#63b8ff" stroke="#63b8ff" points="812.11,-49.75 822.11,-46.25 812.11,-42.75 812.11,-49.75"/>
</a>
</g>
</g>
<!-- Node8 -->
<g id="Node000008" class="node">
<title>Node8</title>
<g id="a_Node000008"><a xlink:href="a01952.html#a17713c8e9b90065e23b0ec1a225f79ab" target="_top" xlink:title=" ">
<polygon fill="white" stroke="#666666" points="926.5,-18.5 807.75,-18.5 807.75,0 926.5,0 926.5,-18.5"/>
<text text-anchor="middle" x="867.12" y="-5" font-family="Helvetica,sans-Serif" font-size="10.00">utils_config_get_source</text>
</a>
</g>
</g>
<!-- Node5&#45;&gt;Node8 -->
<g id="edge7_Node000005_Node000008" class="edge">
<title>Node5&#45;&gt;Node8</title>
<g id="a_edge7_Node000005_Node000008"><a xlink:title=" ">
<path fill="none" stroke="#63b8ff" d="M772.07,-38.22C787.27,-33.54 806.8,-27.52 824.12,-22.19"/>
<polygon fill="#63b8ff" stroke="#63b8ff" points="825.03,-25.26 833.56,-18.97 822.97,-18.57 825.03,-25.26"/>
</a>
</g>
</g>
<!-- Node8&#45;&gt;Node6 -->
<g id="edge8_Node000008_Node000006" class="edge">
<title>Node8&#45;&gt;Node6</title>
<g id="a_edge8_Node000008_Node000006"><a xlink:title=" ">
<path fill="none" stroke="#63b8ff" d="M903.92,-18.97C920.59,-23.5 940.61,-28.93 958.38,-33.76"/>
<polygon fill="#63b8ff" stroke="#63b8ff" points="957.25,-37.35 967.82,-36.59 959.08,-30.6 957.25,-37.35"/>
</a>
</g>
</g>
<!-- Node10 -->
<g id="Node000010" class="node">
<title>Node10</title>
<g id="a_Node000010"><a xlink:href="a01952.html#a4b9cd8f5d0c205ac6c1fd30f77cbf539" target="_top" xlink:title=" ">
<polygon fill="white" stroke="#666666" points="682.25,-18.5 574,-18.5 574,0 682.25,0 682.25,-18.5"/>
<text text-anchor="middle" x="628.12" y="-5" font-family="Helvetica,sans-Serif" font-size="10.00">utils_config_write_str</text>
</a>
</g>
</g>
<!-- Node9&#45;&gt;Node10 -->
<g id="edge10_Node000009_Node000010" class="edge">
<title>Node9&#45;&gt;Node10</title>
<g id="a_edge10_Node000009_Node000010"><a xlink:title=" ">
<path fill="none" stroke="#63b8ff" d="M538.22,-9.25C546.24,-9.25 554.53,-9.25 562.67,-9.25"/>
<polygon fill="#63b8ff" stroke="#63b8ff" points="562.66,-12.75 572.66,-9.25 562.66,-5.75 562.66,-12.75"/>
</a>
</g>
</g>
<!-- Node10&#45;&gt;Node5 -->
<g id="edge11_Node000010_Node000005" class="edge">
<title>Node10&#45;&gt;Node5</title>
<g id="a_edge11_Node000010_Node000005"><a xlink:title=" ">
<path fill="none" stroke="#63b8ff" d="M659.31,-18.97C674.11,-23.74 692.05,-29.52 707.6,-34.53"/>
<polygon fill="#63b8ff" stroke="#63b8ff" points="706.33,-38.12 716.92,-37.85 708.47,-31.45 706.33,-38.12"/>
</a>
</g>
</g>
<!-- Node11 -->
<g id="Node000011" class="node">
<title>Node11</title>
<g id="a_Node000011"><a xlink:href="a01952.html#ab87e9691e65d65348749f8dc70f24602" target="_top" xlink:title=" ">
<polygon fill="white" stroke="#666666" points="771.75,-18.5 718.25,-18.5 718.25,0 771.75,0 771.75,-18.5"/>
<text text-anchor="middle" x="745" y="-5" font-family="Helvetica,sans-Serif" font-size="10.00">conf_set</text>
</a>
</g>
</g>
<!-- Node10&#45;&gt;Node11 -->
<g id="edge12_Node000010_Node000011" class="edge">
<title>Node10&#45;&gt;Node11</title>
<g id="a_edge12_Node000010_Node000011"><a xlink:title=" ">
<path fill="none" stroke="#63b8ff" d="M682.53,-9.25C690.79,-9.25 699.17,-9.25 706.97,-9.25"/>
<polygon fill="#63b8ff" stroke="#63b8ff" points="706.91,-12.75 716.91,-9.25 706.91,-5.75 706.91,-12.75"/>
</a>
</g>
</g>
<!-- Node11&#45;&gt;Node8 -->
<g id="edge13_Node000011_Node000008" class="edge">
<title>Node11&#45;&gt;Node8</title>
<g id="a_edge13_Node000011_Node000008"><a xlink:title=" ">
<path fill="none" stroke="#63b8ff" d="M772.07,-9.25C779.52,-9.25 788.02,-9.25 796.79,-9.25"/>
<polygon fill="#63b8ff" stroke="#63b8ff" points="796.57,-12.75 806.57,-9.25 796.57,-5.75 796.57,-12.75"/>
</a>
</g>
</g>
</g>
</svg>
