<?xml version="1.0" encoding="UTF-8" standalone="no"?>
<!DOCTYPE svg PUBLIC "-//W3C//DTD SVG 1.1//EN"
 "http://www.w3.org/Graphics/SVG/1.1/DTD/svg11.dtd">
<!-- Generated by graphviz version 8.0.5 (0)
 -->
<!-- Title: find_start Pages: 1 -->
<svg width="304pt" height="64pt"
 viewBox="0.00 0.00 304.25 63.50" xmlns="http://www.w3.org/2000/svg" xmlns:xlink="http://www.w3.org/1999/xlink">
<g id="graph0" class="graph" transform="scale(1 1) rotate(0) translate(4 59.5)">
<title>find_start</title>
<!-- Node1 -->
<g id="Node000001" class="node">
<title>Node1</title>
<g id="a_Node000001"><a xlink:title=" ">
<polygon fill="#999999" stroke="#666666" points="57.25,-36.5 0,-36.5 0,-18 57.25,-18 57.25,-36.5"/>
<text text-anchor="middle" x="28.62" y="-23" font-family="Helvetica,sans-Serif" font-size="10.00">find_start</text>
</a>
</g>
</g>
<!-- Node2 -->
<g id="Node000002" class="node">
<title>Node2</title>
<g id="a_Node000002"><a xlink:href="a01943.html#a73d0d5ad8a6878dde35fe7b827b33b05" target="_top" xlink:title=" ">
<polygon fill="white" stroke="#666666" points="173.75,-55.5 98.5,-55.5 98.5,-37 173.75,-37 173.75,-55.5"/>
<text text-anchor="middle" x="136.12" y="-42" font-family="Helvetica,sans-Serif" font-size="10.00">find_start_big</text>
</a>
</g>
</g>
<!-- Node1&#45;&gt;Node2 -->
<g id="edge1_Node000001_Node000002" class="edge">
<title>Node1&#45;&gt;Node2</title>
<g id="a_edge1_Node000001_Node000002"><a xlink:title=" ">
<path fill="none" stroke="#63b8ff" d="M57.62,-32.29C66.86,-33.96 77.42,-35.86 87.7,-37.71"/>
<polygon fill="#63b8ff" stroke="#63b8ff" points="86.79,-41.28 97.25,-39.61 88.03,-34.39 86.79,-41.28"/>
</a>
</g>
</g>
<!-- Node4 -->
<g id="Node000004" class="node">
<title>Node4</title>
<g id="a_Node000004"><a xlink:href="a01943.html#afac539947a2f5fe419a493103a45e4be" target="_top" xlink:title=" ">
<polygon fill="white" stroke="#666666" points="179,-18.5 93.25,-18.5 93.25,0 179,0 179,-18.5"/>
<text text-anchor="middle" x="136.12" y="-5" font-family="Helvetica,sans-Serif" font-size="10.00">find_start_small</text>
</a>
</g>
</g>
<!-- Node1&#45;&gt;Node4 -->
<g id="edge3_Node000001_Node000004" class="edge">
<title>Node1&#45;&gt;Node4</title>
<g id="a_edge3_Node000001_Node000004"><a xlink:title=" ">
<path fill="none" stroke="#63b8ff" d="M57.62,-22.47C65.26,-21.17 73.8,-19.71 82.33,-18.26"/>
<polygon fill="#63b8ff" stroke="#63b8ff" points="82.81,-21.56 92.08,-16.42 81.64,-14.66 82.81,-21.56"/>
</a>
</g>
</g>
<!-- Node3 -->
<g id="Node000003" class="node">
<title>Node3</title>
<g id="a_Node000003"><a xlink:href="a01943.html#af8a432f287b9f55f026e2d120e677998" target="_top" xlink:title=" ">
<polygon fill="white" stroke="#666666" points="296.25,-36.5 215,-36.5 215,-18 296.25,-18 296.25,-36.5"/>
<text text-anchor="middle" x="255.62" y="-23" font-family="Helvetica,sans-Serif" font-size="10.00">find_end_small</text>
</a>
</g>
</g>
<!-- Node2&#45;&gt;Node3 -->
<g id="edge2_Node000002_Node000003" class="edge">
<title>Node2&#45;&gt;Node3</title>
<g id="a_edge2_Node000002_Node000003"><a xlink:title=" ">
<path fill="none" stroke="#63b8ff" d="M173.98,-40.29C183.47,-38.76 193.85,-37.08 203.91,-35.45"/>
<polygon fill="#63b8ff" stroke="#63b8ff" points="204.33,-38.77 213.64,-33.72 203.21,-31.86 204.33,-38.77"/>
</a>
</g>
</g>
<!-- Node4&#45;&gt;Node3 -->
<g id="edge4_Node000004_Node000003" class="edge">
<title>Node4&#45;&gt;Node3</title>
<g id="a_edge4_Node000004_Node000003"><a xlink:title=" ">
<path fill="none" stroke="#63b8ff" d="M179.21,-15.7C187.27,-16.93 195.79,-18.24 204.08,-19.51"/>
<polygon fill="#63b8ff" stroke="#63b8ff" points="203.38,-23.09 213.79,-21.15 204.44,-16.17 203.38,-23.09"/>
</a>
</g>
</g>
</g>
</svg>
