<?xml version="1.0" encoding="UTF-8" standalone="no"?>
<!DOCTYPE svg PUBLIC "-//W3C//DTD SVG 1.1//EN"
 "http://www.w3.org/Graphics/SVG/1.1/DTD/svg11.dtd">
<!-- Generated by graphviz version 8.0.5 (0)
 -->
<!-- Title: arax_object_ref_inc Pages: 1 -->
<svg width="977pt" height="364pt"
 viewBox="0.00 0.00 977.25 363.50" xmlns="http://www.w3.org/2000/svg" xmlns:xlink="http://www.w3.org/1999/xlink">
<g id="graph0" class="graph" transform="scale(1 1) rotate(0) translate(4 359.5)">
<title>arax_object_ref_inc</title>
<!-- Node1 -->
<g id="Node000001" class="node">
<title>Node1</title>
<g id="a_Node000001"><a xlink:title=" ">
<polygon fill="#999999" stroke="#666666" points="969.25,-186.5 867.75,-186.5 867.75,-168 969.25,-168 969.25,-186.5"/>
<text text-anchor="middle" x="918.5" y="-173" font-family="Helvetica,sans-Serif" font-size="10.00">arax_object_ref_inc</text>
</a>
</g>
</g>
<!-- Node2 -->
<g id="Node000002" class="node">
<title>Node2</title>
<g id="a_Node000002"><a xlink:href="a02175.html#ga7f1598b99463c5ef533a457f225b4c0b" target="_top" xlink:title=" ">
<polygon fill="white" stroke="#666666" points="810,-355.5 728,-355.5 728,-337 810,-337 810,-355.5"/>
<text text-anchor="middle" x="769" y="-342" font-family="Helvetica,sans-Serif" font-size="10.00">arax_accel_list</text>
</a>
</g>
</g>
<!-- Node1&#45;&gt;Node2 -->
<g id="edge1_Node000001_Node000002" class="edge">
<title>Node1&#45;&gt;Node2</title>
<g id="a_edge1_Node000001_Node000002"><a xlink:title=" ">
<path fill="none" stroke="#63b8ff" d="M910.87,-196.97C899.46,-228.03 873.26,-288.41 831.75,-323.25 825,-328.91 816.73,-333.25 808.45,-336.55"/>
<polygon fill="#63b8ff" stroke="#63b8ff" points="914.37,-198.54 914.4,-187.95 907.77,-196.22 914.37,-198.54"/>
</a>
</g>
</g>
<!-- Node3 -->
<g id="Node000003" class="node">
<title>Node3</title>
<g id="a_Node000003"><a xlink:href="a01931.html#af8ede6fc8d207004035f45d945688d2c" target="_top" xlink:title=" ">
<polygon fill="white" stroke="#666666" points="253.62,-227.75 155.12,-227.75 155.12,-198.75 253.62,-198.75 253.62,-227.75"/>
<text text-anchor="start" x="163.12" y="-214.25" font-family="Helvetica,sans-Serif" font-size="10.00">arax_data_allocate</text>
<text text-anchor="middle" x="204.38" y="-203.75" font-family="Helvetica,sans-Serif" font-size="10.00">_remote</text>
</a>
</g>
</g>
<!-- Node1&#45;&gt;Node3 -->
<g id="edge2_Node000001_Node000003" class="edge">
<title>Node1&#45;&gt;Node3</title>
<g id="a_edge2_Node000001_Node000003"><a xlink:title=" ">
<path fill="none" stroke="#63b8ff" d="M904.22,-195.57C888.98,-215.2 862.14,-245.73 831.75,-262.25 745.67,-309.04 714.35,-309.25 616.38,-309.25 616.38,-309.25 616.38,-309.25 476.5,-309.25 470.51,-309.25 321,-255.25 246.61,-228.25"/>
<polygon fill="#63b8ff" stroke="#63b8ff" points="907.51,-198.02 910.73,-187.93 901.92,-193.81 907.51,-198.02"/>
</a>
</g>
</g>
<!-- Node4 -->
<g id="Node000004" class="node">
<title>Node4</title>
<g id="a_Node000004"><a xlink:href="a01931.html#a1dc669466d6f52d5be8af2d991512ac2" target="_top" xlink:title=" ">
<polygon fill="white" stroke="#666666" points="667.25,-168.5 563.5,-168.5 563.5,-150 667.25,-150 667.25,-168.5"/>
<text text-anchor="middle" x="615.38" y="-155" font-family="Helvetica,sans-Serif" font-size="10.00">arax_data_input_init</text>
</a>
</g>
</g>
<!-- Node1&#45;&gt;Node4 -->
<g id="edge3_Node000001_Node000004" class="edge">
<title>Node1&#45;&gt;Node4</title>
<g id="a_edge3_Node000001_Node000004"><a xlink:title=" ">
<path fill="none" stroke="#63b8ff" d="M856.68,-173.61C801.12,-170.29 719.88,-165.44 667.57,-162.31"/>
<polygon fill="#63b8ff" stroke="#63b8ff" points="856.25,-177.15 866.44,-174.26 856.66,-170.17 856.25,-177.15"/>
</a>
</g>
</g>
<!-- Node9 -->
<g id="Node000009" class="node">
<title>Node9</title>
<g id="a_Node000009"><a xlink:href="a01931.html#a8995f71dba475975efc37756783cfce9" target="_top" xlink:title=" ">
<polygon fill="white" stroke="#666666" points="243.5,-106.5 165.25,-106.5 165.25,-88 243.5,-88 243.5,-106.5"/>
<text text-anchor="middle" x="204.38" y="-93" font-family="Helvetica,sans-Serif" font-size="10.00">arax_data_set</text>
</a>
</g>
</g>
<!-- Node1&#45;&gt;Node9 -->
<g id="edge19_Node000001_Node000009" class="edge">
<title>Node1&#45;&gt;Node9</title>
<g id="a_edge19_Node000001_Node000009"><a xlink:title=" ">
<path fill="none" stroke="#63b8ff" d="M890.32,-162.64C838.56,-136.23 721.63,-83.25 616.38,-83.25 616.38,-83.25 616.38,-83.25 476.5,-83.25 393.55,-83.25 296.5,-89.87 243.96,-94"/>
<polygon fill="#63b8ff" stroke="#63b8ff" points="888.29,-166.05 898.78,-167.54 891.51,-159.83 888.29,-166.05"/>
</a>
</g>
</g>
<!-- Node12 -->
<g id="Node000012" class="node">
<title>Node12</title>
<g id="a_Node000012"><a xlink:href="a01931.html#a4b65f90a821aca384f0ca1cff7bd1846" target="_top" xlink:title=" ">
<polygon fill="white" stroke="#666666" points="831.75,-205.5 706.25,-205.5 706.25,-187 831.75,-187 831.75,-205.5"/>
<text text-anchor="middle" x="769" y="-192" font-family="Helvetica,sans-Serif" font-size="10.00">arax_data_migrate_accel</text>
</a>
</g>
</g>
<!-- Node1&#45;&gt;Node12 -->
<g id="edge13_Node000001_Node000012" class="edge">
<title>Node1&#45;&gt;Node12</title>
<g id="a_edge13_Node000001_Node000012"><a xlink:title=" ">
<path fill="none" stroke="#63b8ff" d="M856.7,-185.08C848.6,-186.12 840.3,-187.19 832.18,-188.24"/>
<polygon fill="#63b8ff" stroke="#63b8ff" points="857.09,-188.43 866.56,-183.68 856.2,-181.49 857.09,-188.43"/>
</a>
</g>
</g>
<!-- Node14 -->
<g id="Node000014" class="node">
<title>Node14</title>
<g id="a_Node000014"><a xlink:href="a01931.html#a18d07d808917e0b971d46332e9e64da4" target="_top" xlink:title=" ">
<polygon fill="white" stroke="#666666" points="670.25,-242.5 560.5,-242.5 560.5,-224 670.25,-224 670.25,-242.5"/>
<text text-anchor="middle" x="615.38" y="-229" font-family="Helvetica,sans-Serif" font-size="10.00">arax_data_output_init</text>
</a>
</g>
</g>
<!-- Node1&#45;&gt;Node14 -->
<g id="edge18_Node000001_Node000014" class="edge">
<title>Node1&#45;&gt;Node14</title>
<g id="a_edge18_Node000001_Node000014"><a xlink:title=" ">
<path fill="none" stroke="#63b8ff" d="M890.17,-191.71C873.71,-199.74 852.06,-209.12 831.75,-214.25 778.07,-227.82 714.75,-232.06 670.72,-233.22"/>
<polygon fill="#63b8ff" stroke="#63b8ff" points="891.32,-194.55 898.69,-186.94 888.19,-188.29 891.32,-194.55"/>
</a>
</g>
</g>
<!-- Node15 -->
<g id="Node000015" class="node">
<title>Node15</title>
<g id="a_Node000015"><a xlink:href="a01931.html#ad4f10e1a58d989e93ad8d6318f9d4162" target="_top" xlink:title=" ">
<polygon fill="white" stroke="#666666" points="822.38,-55.5 715.62,-55.5 715.62,-37 822.38,-37 822.38,-55.5"/>
<text text-anchor="middle" x="769" y="-42" font-family="Helvetica,sans-Serif" font-size="10.00">arax_data_set_accel</text>
</a>
</g>
</g>
<!-- Node1&#45;&gt;Node15 -->
<g id="edge20_Node000001_Node000015" class="edge">
<title>Node1&#45;&gt;Node15</title>
<g id="a_edge20_Node000001_Node000015"><a xlink:title=" ">
<path fill="none" stroke="#63b8ff" d="M906.96,-158.37C892.75,-134.52 865.33,-93.64 831.75,-69.25 824.07,-63.67 814.88,-59.29 805.96,-55.92"/>
<polygon fill="#63b8ff" stroke="#63b8ff" points="904.34,-159.83 912.37,-166.74 910.4,-156.33 904.34,-159.83"/>
</a>
</g>
</g>
<!-- Node16 -->
<g id="Node000016" class="node">
<title>Node16</title>
<g id="a_Node000016"><a xlink:href="a01931.html#aca0dcc5fe70fd3aa9aa77ee4b8b9aac1" target="_top" xlink:title=" ">
<polygon fill="white" stroke="#666666" points="825.75,-18.5 712.25,-18.5 712.25,0 825.75,0 825.75,-18.5"/>
<text text-anchor="middle" x="769" y="-5" font-family="Helvetica,sans-Serif" font-size="10.00">arax_data_set_remote</text>
</a>
</g>
</g>
<!-- Node1&#45;&gt;Node16 -->
<g id="edge21_Node000001_Node000016" class="edge">
<title>Node1&#45;&gt;Node16</title>
<g id="a_edge21_Node000001_Node000016"><a xlink:title=" ">
<path fill="none" stroke="#63b8ff" d="M911.37,-157.3C900.54,-125.34 874.97,-62.74 831.75,-28.25 826.93,-24.4 821.33,-21.33 815.51,-18.88"/>
<polygon fill="#63b8ff" stroke="#63b8ff" points="908.29,-158.15 914.7,-166.58 914.95,-155.99 908.29,-158.15"/>
</a>
</g>
</g>
<!-- Node17 -->
<g id="Node000017" class="node">
<title>Node17</title>
<g id="a_Node000017"><a xlink:href="a02176.html#ga739047efb2b454e6c1ac54138ef2985d" target="_top" xlink:title=" ">
<polygon fill="white" stroke="#666666" points="389.62,-143.5 311.38,-143.5 311.38,-125 389.62,-125 389.62,-143.5"/>
<text text-anchor="middle" x="350.5" y="-130" font-family="Helvetica,sans-Serif" font-size="10.00">arax_proc_get</text>
</a>
</g>
</g>
<!-- Node1&#45;&gt;Node17 -->
<g id="edge22_Node000001_Node000017" class="edge">
<title>Node1&#45;&gt;Node17</title>
<g id="a_edge22_Node000001_Node000017"><a xlink:title=" ">
<path fill="none" stroke="#63b8ff" d="M857.4,-165.55C848.81,-164.02 840.06,-162.54 831.75,-161.25 760.28,-150.17 742.39,-146.5 670.25,-141.25 569.22,-133.9 449.75,-133.48 389.83,-133.84"/>
<polygon fill="#63b8ff" stroke="#63b8ff" points="856.7,-169.17 867.16,-167.51 857.95,-162.28 856.7,-169.17"/>
</a>
</g>
</g>
<!-- Node18 -->
<g id="Node000018" class="node">
<title>Node18</title>
<g id="a_Node000018"><a xlink:href="a01922.html#ace08f924cb86d1310099621564536657" target="_top" xlink:title=" ">
<polygon fill="white" stroke="#666666" points="524.5,-253.5 430.5,-253.5 430.5,-235 524.5,-235 524.5,-253.5"/>
<text text-anchor="middle" x="477.5" y="-240" font-family="Helvetica,sans-Serif" font-size="10.00">arax_task_submit</text>
</a>
</g>
</g>
<!-- Node1&#45;&gt;Node18 -->
<g id="edge27_Node000001_Node000018" class="edge">
<title>Node1&#45;&gt;Node18</title>
<g id="a_edge27_Node000001_Node000018"><a xlink:title=" ">
<path fill="none" stroke="#63b8ff" d="M899.29,-193.95C882.92,-207.88 857.55,-226.9 831.75,-236.25 727.36,-274.08 594,-262.41 524.81,-252.33"/>
<polygon fill="#63b8ff" stroke="#63b8ff" points="901.19,-196.06 906.4,-186.83 896.58,-190.8 901.19,-196.06"/>
</a>
</g>
</g>
<!-- Node5 -->
<g id="Node000005" class="node">
<title>Node5</title>
<g id="a_Node000005"><a xlink:href="a01922.html#a27bee94f7a23281c8b2b72ec433f6059" target="_top" xlink:title=" ">
<polygon fill="white" stroke="#666666" points="520,-202.5 435,-202.5 435,-184 520,-184 520,-202.5"/>
<text text-anchor="middle" x="477.5" y="-189" font-family="Helvetica,sans-Serif" font-size="10.00">arax_task_alloc</text>
</a>
</g>
</g>
<!-- Node4&#45;&gt;Node5 -->
<g id="edge4_Node000004_Node000005" class="edge">
<title>Node4&#45;&gt;Node5</title>
<g id="a_edge4_Node000004_Node000005"><a xlink:title=" ">
<path fill="none" stroke="#63b8ff" d="M564.89,-171.63C549.26,-175.54 532.22,-179.81 517.44,-183.51"/>
<polygon fill="#63b8ff" stroke="#63b8ff" points="565.59,-174.82 574.44,-168.99 563.89,-168.03 565.59,-174.82"/>
</a>
</g>
</g>
<!-- Node6 -->
<g id="Node000006" class="node">
<title>Node6</title>
<g id="a_Node000006"><a xlink:href="a02177.html#gac9f0f3fbb14da879d3ff09bd367bbb24" target="_top" xlink:title=" ">
<polygon fill="white" stroke="#666666" points="394.5,-202.5 306.5,-202.5 306.5,-184 394.5,-184 394.5,-202.5"/>
<text text-anchor="middle" x="350.5" y="-189" font-family="Helvetica,sans-Serif" font-size="10.00">arax_task_issue</text>
</a>
</g>
</g>
<!-- Node5&#45;&gt;Node6 -->
<g id="edge5_Node000005_Node000006" class="edge">
<title>Node5&#45;&gt;Node6</title>
<g id="a_edge5_Node000005_Node000006"><a xlink:title=" ">
<path fill="none" stroke="#63b8ff" d="M423.82,-193.25C414.17,-193.25 404.2,-193.25 394.85,-193.25"/>
<polygon fill="#63b8ff" stroke="#63b8ff" points="423.53,-196.75 433.53,-193.25 423.53,-189.75 423.53,-196.75"/>
</a>
</g>
</g>
<!-- Node6&#45;&gt;Node3 -->
<g id="edge6_Node000006_Node000003" class="edge">
<title>Node6&#45;&gt;Node3</title>
<g id="a_edge6_Node000006_Node000003"><a xlink:title=" ">
<path fill="none" stroke="#63b8ff" d="M295.54,-200.74C281.87,-202.64 267.27,-204.66 253.89,-206.52"/>
<polygon fill="#63b8ff" stroke="#63b8ff" points="295.83,-204.09 305.26,-199.25 294.87,-197.16 295.83,-204.09"/>
</a>
</g>
</g>
<!-- Node7 -->
<g id="Node000007" class="node">
<title>Node7</title>
<g id="a_Node000007"><a xlink:href="a01931.html#a696bc4319d0f6c6baa7d797a8df6b56f" target="_top" xlink:title=" ">
<polygon fill="white" stroke="#666666" points="243.5,-180.5 165.25,-180.5 165.25,-162 243.5,-162 243.5,-180.5"/>
<text text-anchor="middle" x="204.38" y="-167" font-family="Helvetica,sans-Serif" font-size="10.00">arax_data_get</text>
</a>
</g>
</g>
<!-- Node6&#45;&gt;Node7 -->
<g id="edge7_Node000006_Node000007" class="edge">
<title>Node6&#45;&gt;Node7</title>
<g id="a_edge7_Node000006_Node000007"><a xlink:title=" ">
<path fill="none" stroke="#63b8ff" d="M295.72,-185.04C278.43,-182.4 259.64,-179.53 243.69,-177.1"/>
<polygon fill="#63b8ff" stroke="#63b8ff" points="294.84,-188.6 305.26,-186.65 295.9,-181.68 294.84,-188.6"/>
</a>
</g>
</g>
<!-- Node6&#45;&gt;Node9 -->
<g id="edge9_Node000006_Node000009" class="edge">
<title>Node6&#45;&gt;Node9</title>
<g id="a_edge9_Node000006_Node000009"><a xlink:title=" ">
<path fill="none" stroke="#63b8ff" d="M331.45,-176.22C323.72,-168.89 314.63,-160.19 306.5,-152.25 290.31,-136.44 289.97,-127.78 270.5,-116.25 262.39,-111.45 252.99,-107.79 243.9,-105.04"/>
<polygon fill="#63b8ff" stroke="#63b8ff" points="328.51,-178.21 338.18,-182.54 333.33,-173.13 328.51,-178.21"/>
</a>
</g>
</g>
<!-- Node10 -->
<g id="Node000010" class="node">
<title>Node10</title>
<g id="a_Node000010"><a xlink:href="a01931.html#af735744d0f8bec04394639a841d2ba0f" target="_top" xlink:title=" ">
<polygon fill="white" stroke="#666666" points="270.5,-143.5 138.25,-143.5 138.25,-125 270.5,-125 270.5,-143.5"/>
<text text-anchor="middle" x="204.38" y="-130" font-family="Helvetica,sans-Serif" font-size="10.00">ARAX_OBJ_DTOR_DECL</text>
</a>
</g>
</g>
<!-- Node6&#45;&gt;Node10 -->
<g id="edge11_Node000006_Node000010" class="edge">
<title>Node6&#45;&gt;Node10</title>
<g id="a_edge11_Node000006_Node000010"><a xlink:title=" ">
<path fill="none" stroke="#63b8ff" d="M323.42,-178.51C308.29,-170.35 288.68,-160.43 270.5,-153.25 261.74,-149.79 252.09,-146.63 242.97,-143.93"/>
<polygon fill="#63b8ff" stroke="#63b8ff" points="321.21,-181.84 331.66,-183.57 324.57,-175.7 321.21,-181.84"/>
</a>
</g>
</g>
<!-- Node11 -->
<g id="Node000011" class="node">
<title>Node11</title>
<g id="a_Node000011"><a xlink:href="a02177.html#ga1418f4cd7336bf77cce7b955a1bf7077" target="_top" xlink:title=" ">
<polygon fill="white" stroke="#666666" points="261.12,-264.5 147.62,-264.5 147.62,-246 261.12,-246 261.12,-264.5"/>
<text text-anchor="middle" x="204.38" y="-251" font-family="Helvetica,sans-Serif" font-size="10.00">arax_task_issue_sync</text>
</a>
</g>
</g>
<!-- Node6&#45;&gt;Node11 -->
<g id="edge12_Node000006_Node000011" class="edge">
<title>Node6&#45;&gt;Node11</title>
<g id="a_edge12_Node000006_Node000011"><a xlink:title=" ">
<path fill="none" stroke="#63b8ff" d="M325.37,-208.67C310.1,-217.93 289.69,-229.39 270.5,-237.25 262.79,-240.41 254.35,-243.2 246.18,-245.58"/>
<polygon fill="#63b8ff" stroke="#63b8ff" points="326.93,-211.21 333.6,-202.97 323.25,-205.25 326.93,-211.21"/>
</a>
</g>
</g>
<!-- Node8 -->
<g id="Node000008" class="node">
<title>Node8</title>
<g id="a_Node000008"><a xlink:href="a01931.html#a7d8356bd5c8b6a8d7dffc6ba94cc22e5" target="_top" xlink:title=" ">
<polygon fill="white" stroke="#666666" points="102.25,-143.5 0,-143.5 0,-125 102.25,-125 102.25,-143.5"/>
<text text-anchor="middle" x="51.12" y="-130" font-family="Helvetica,sans-Serif" font-size="10.00">arax_data_memcpy</text>
</a>
</g>
</g>
<!-- Node7&#45;&gt;Node8 -->
<g id="edge8_Node000007_Node000008" class="edge">
<title>Node7&#45;&gt;Node8</title>
<g id="a_edge8_Node000007_Node000008"><a xlink:title=" ">
<path fill="none" stroke="#63b8ff" d="M154.26,-159.23C134.08,-154.3 111.03,-148.66 91.93,-143.99"/>
<polygon fill="#63b8ff" stroke="#63b8ff" points="153.27,-162.84 163.82,-161.82 154.94,-156.04 153.27,-162.84"/>
</a>
</g>
</g>
<!-- Node9&#45;&gt;Node8 -->
<g id="edge10_Node000009_Node000008" class="edge">
<title>Node9&#45;&gt;Node8</title>
<g id="a_edge10_Node000009_Node000008"><a xlink:title=" ">
<path fill="none" stroke="#63b8ff" d="M154.26,-109.27C134.08,-114.2 111.03,-119.84 91.93,-124.51"/>
<polygon fill="#63b8ff" stroke="#63b8ff" points="154.94,-112.46 163.82,-106.68 153.27,-105.66 154.94,-112.46"/>
</a>
</g>
</g>
<!-- Node12&#45;&gt;Node4 -->
<g id="edge15_Node000012_Node000004" class="edge">
<title>Node12&#45;&gt;Node4</title>
<g id="a_edge15_Node000012_Node000004"><a xlink:title=" ">
<path fill="none" stroke="#63b8ff" d="M717.68,-183.97C697.69,-179.09 675.03,-173.56 656.21,-168.97"/>
<polygon fill="#63b8ff" stroke="#63b8ff" points="716.62,-187.56 727.16,-186.53 718.28,-180.76 716.62,-187.56"/>
</a>
</g>
</g>
<!-- Node13 -->
<g id="Node000013" class="node">
<title>Node13</title>
<g id="a_Node000013"><a xlink:href="a01931.html#a113a3c52b0c3b4f3b390921ee4c5022e" target="_top" xlink:title=" ">
<polygon fill="white" stroke="#666666" points="663.5,-205.5 567.25,-205.5 567.25,-187 663.5,-187 663.5,-205.5"/>
<text text-anchor="middle" x="615.38" y="-192" font-family="Helvetica,sans-Serif" font-size="10.00">arax_data_arg_init</text>
</a>
</g>
</g>
<!-- Node12&#45;&gt;Node13 -->
<g id="edge14_Node000012_Node000013" class="edge">
<title>Node12&#45;&gt;Node13</title>
<g id="a_edge14_Node000012_Node000013"><a xlink:title=" ">
<path fill="none" stroke="#63b8ff" d="M694.92,-196.25C684.33,-196.25 673.67,-196.25 663.76,-196.25"/>
<polygon fill="#63b8ff" stroke="#63b8ff" points="694.89,-199.75 704.89,-196.25 694.89,-192.75 694.89,-199.75"/>
</a>
</g>
</g>
<!-- Node12&#45;&gt;Node14 -->
<g id="edge16_Node000012_Node000014" class="edge">
<title>Node12&#45;&gt;Node14</title>
<g id="a_edge16_Node000012_Node000014"><a xlink:title=" ">
<path fill="none" stroke="#63b8ff" d="M717.68,-208.53C697.69,-213.41 675.03,-218.94 656.21,-223.53"/>
<polygon fill="#63b8ff" stroke="#63b8ff" points="718.28,-211.74 727.16,-205.97 716.62,-204.94 718.28,-211.74"/>
</a>
</g>
</g>
<!-- Node14&#45;&gt;Node5 -->
<g id="edge17_Node000014_Node000005" class="edge">
<title>Node14&#45;&gt;Node5</title>
<g id="a_edge17_Node000014_Node000005"><a xlink:title=" ">
<path fill="none" stroke="#63b8ff" d="M571.13,-220.52C551.84,-214.84 529.48,-208.26 511.56,-202.98"/>
<polygon fill="#63b8ff" stroke="#63b8ff" points="569.9,-224.1 580.48,-223.57 571.88,-217.39 569.9,-224.1"/>
</a>
</g>
</g>
<!-- Node17&#45;&gt;Node3 -->
<g id="edge23_Node000017_Node000003" class="edge">
<title>Node17&#45;&gt;Node3</title>
<g id="a_edge23_Node000017_Node000003"><a xlink:title=" ">
<path fill="none" stroke="#63b8ff" d="M329.55,-150.29C314.1,-162.16 291.81,-178.14 270.5,-189.25 264.2,-192.54 257.34,-195.58 250.52,-198.33"/>
<polygon fill="#63b8ff" stroke="#63b8ff" points="331.08,-152.75 336.8,-143.84 326.76,-147.24 331.08,-152.75"/>
</a>
</g>
</g>
<!-- Node17&#45;&gt;Node7 -->
<g id="edge24_Node000017_Node000007" class="edge">
<title>Node17&#45;&gt;Node7</title>
<g id="a_edge24_Node000017_Node000007"><a xlink:title=" ">
<path fill="none" stroke="#63b8ff" d="M301.14,-146.66C282.27,-151.51 260.96,-156.98 243.24,-161.53"/>
<polygon fill="#63b8ff" stroke="#63b8ff" points="301.82,-149.85 310.63,-143.97 300.08,-143.07 301.82,-149.85"/>
</a>
</g>
</g>
<!-- Node17&#45;&gt;Node9 -->
<g id="edge25_Node000017_Node000009" class="edge">
<title>Node17&#45;&gt;Node9</title>
<g id="a_edge25_Node000017_Node000009"><a xlink:title=" ">
<path fill="none" stroke="#63b8ff" d="M301.14,-121.84C282.27,-116.99 260.96,-111.52 243.24,-106.97"/>
<polygon fill="#63b8ff" stroke="#63b8ff" points="300.08,-125.43 310.63,-124.53 301.82,-118.65 300.08,-125.43"/>
</a>
</g>
</g>
<!-- Node17&#45;&gt;Node10 -->
<g id="edge26_Node000017_Node000010" class="edge">
<title>Node17&#45;&gt;Node10</title>
<g id="a_edge26_Node000017_Node000010"><a xlink:title=" ">
<path fill="none" stroke="#63b8ff" d="M300.11,-134.25C290.67,-134.25 280.66,-134.25 270.82,-134.25"/>
<polygon fill="#63b8ff" stroke="#63b8ff" points="299.88,-137.75 309.88,-134.25 299.88,-130.75 299.88,-137.75"/>
</a>
</g>
</g>
<!-- Node18&#45;&gt;Node6 -->
<g id="edge28_Node000018_Node000006" class="edge">
<title>Node18&#45;&gt;Node6</title>
<g id="a_edge28_Node000018_Node000006"><a xlink:title=" ">
<path fill="none" stroke="#63b8ff" d="M442.73,-230.47C421.38,-221.76 394.31,-210.72 375.22,-202.93"/>
<polygon fill="#63b8ff" stroke="#63b8ff" points="441.11,-234 451.69,-234.54 443.76,-227.52 441.11,-234"/>
</a>
</g>
</g>
</g>
</svg>
