<?xml version="1.0" encoding="UTF-8" standalone="no"?>
<!DOCTYPE svg PUBLIC "-//W3C//DTD SVG 1.1//EN"
 "http://www.w3.org/Graphics/SVG/1.1/DTD/svg11.dtd">
<!-- Generated by graphviz version 8.0.5 (0)
 -->
<!-- Title: arax_throttle_init Pages: 1 -->
<svg width="587pt" height="138pt"
 viewBox="0.00 0.00 586.50 137.50" xmlns="http://www.w3.org/2000/svg" xmlns:xlink="http://www.w3.org/1999/xlink">
<g id="graph0" class="graph" transform="scale(1 1) rotate(0) translate(4 133.5)">
<title>arax_throttle_init</title>
<!-- Node1 -->
<g id="Node000001" class="node">
<title>Node1</title>
<g id="a_Node000001"><a xlink:title=" ">
<polygon fill="#999999" stroke="#666666" points="88.75,-73.5 0,-73.5 0,-55 88.75,-55 88.75,-73.5"/>
<text text-anchor="middle" x="44.38" y="-60" font-family="Helvetica,sans-Serif" font-size="10.00">arax_throttle_init</text>
</a>
</g>
</g>
<!-- Node2 -->
<g id="Node000002" class="node">
<title>Node2</title>
<g id="a_Node000002"><a xlink:href="a02352.html#ac7fbf1f43289d3e0e862b315f00e35e2" target="_top" xlink:title=" ">
<polygon fill="white" stroke="#666666" points="228.5,-73.5 124.75,-73.5 124.75,-55 228.5,-55 228.5,-73.5"/>
<text text-anchor="middle" x="176.62" y="-60" font-family="Helvetica,sans-Serif" font-size="10.00">async_condition_init</text>
</a>
</g>
</g>
<!-- Node1&#45;&gt;Node2 -->
<g id="edge1_Node000001_Node000002" class="edge">
<title>Node1&#45;&gt;Node2</title>
<g id="a_edge1_Node000001_Node000002"><a xlink:title=" ">
<path fill="none" stroke="#63b8ff" d="M89.11,-64.25C97.02,-64.25 105.41,-64.25 113.73,-64.25"/>
<polygon fill="#63b8ff" stroke="#63b8ff" points="113.57,-67.75 123.57,-64.25 113.57,-60.75 113.57,-67.75"/>
</a>
</g>
</g>
<!-- Node3 -->
<g id="Node000003" class="node">
<title>Node3</title>
<g id="a_Node000003"><a xlink:href="a02346.html#ad1d30ecbf6bff6457b680aa940281072" target="_top" xlink:title=" ">
<polygon fill="white" stroke="#666666" points="403.5,-129.5 264.5,-129.5 264.5,-111 403.5,-111 403.5,-129.5"/>
<text text-anchor="middle" x="334" y="-116" font-family="Helvetica,sans-Serif" font-size="10.00">async_completion_complete</text>
</a>
</g>
</g>
<!-- Node2&#45;&gt;Node3 -->
<g id="edge2_Node000002_Node000003" class="edge">
<title>Node2&#45;&gt;Node3</title>
<g id="a_edge2_Node000002_Node000003"><a xlink:title=" ">
<path fill="none" stroke="#63b8ff" d="M198.04,-73.85C215.45,-81.82 241.29,-93.13 264.5,-101.25 270.84,-103.47 277.59,-105.61 284.28,-107.59"/>
<polygon fill="#63b8ff" stroke="#63b8ff" points="283.1,-111.18 293.68,-110.58 285.04,-104.45 283.1,-111.18"/>
</a>
</g>
</g>
<!-- Node4 -->
<g id="Node000004" class="node">
<title>Node4</title>
<g id="a_Node000004"><a xlink:href="a02346.html#ac728117d73179c279de49e01ae905dda" target="_top" xlink:title=" ">
<polygon fill="white" stroke="#666666" points="390,-92.5 278,-92.5 278,-74 390,-74 390,-92.5"/>
<text text-anchor="middle" x="334" y="-79" font-family="Helvetica,sans-Serif" font-size="10.00">async_completion_init</text>
</a>
</g>
</g>
<!-- Node2&#45;&gt;Node4 -->
<g id="edge3_Node000002_Node000004" class="edge">
<title>Node2&#45;&gt;Node4</title>
<g id="a_edge3_Node000002_Node000004"><a xlink:title=" ">
<path fill="none" stroke="#63b8ff" d="M228.93,-70.52C241.15,-72.02 254.37,-73.63 267.14,-75.2"/>
<polygon fill="#63b8ff" stroke="#63b8ff" points="266.39,-78.75 276.74,-76.49 267.24,-71.8 266.39,-78.75"/>
</a>
</g>
</g>
<!-- Node5 -->
<g id="Node000005" class="node">
<title>Node5</title>
<g id="a_Node000005"><a xlink:href="a02349.html#a3bbcb7c4c024e99d5c4ba52b61dfbbf7" target="_top" xlink:title=" ">
<polygon fill="white" stroke="#666666" points="393.75,-55.5 274.25,-55.5 274.25,-37 393.75,-37 393.75,-55.5"/>
<text text-anchor="middle" x="334" y="-42" font-family="Helvetica,sans-Serif" font-size="10.00">async_condition_unlock</text>
</a>
</g>
</g>
<!-- Node2&#45;&gt;Node5 -->
<g id="edge4_Node000002_Node000005" class="edge">
<title>Node2&#45;&gt;Node5</title>
<g id="a_edge4_Node000002_Node000005"><a xlink:title=" ">
<path fill="none" stroke="#63b8ff" d="M228.93,-58.31C239.85,-57.04 251.56,-55.69 263.04,-54.36"/>
<polygon fill="#63b8ff" stroke="#63b8ff" points="263.41,-57.72 272.94,-53.09 262.61,-50.77 263.41,-57.72"/>
</a>
</g>
</g>
<!-- Node7 -->
<g id="Node000007" class="node">
<title>Node7</title>
<g id="a_Node000007"><a xlink:href="a02346.html#a2a7d01fc7720e936a430efc09d094c6c" target="_top" xlink:title=" ">
<polygon fill="white" stroke="#666666" points="390.38,-18.5 277.62,-18.5 277.62,0 390.38,0 390.38,-18.5"/>
<text text-anchor="middle" x="334" y="-5" font-family="Helvetica,sans-Serif" font-size="10.00">async_semaphore_init</text>
</a>
</g>
</g>
<!-- Node2&#45;&gt;Node7 -->
<g id="edge6_Node000002_Node000007" class="edge">
<title>Node2&#45;&gt;Node7</title>
<g id="a_edge6_Node000002_Node000007"><a xlink:title=" ">
<path fill="none" stroke="#63b8ff" d="M198.77,-54.64C216.19,-46.92 241.65,-36.12 264.5,-28.25 270.86,-26.06 277.61,-23.94 284.3,-21.97"/>
<polygon fill="#63b8ff" stroke="#63b8ff" points="285.05,-25.1 293.7,-18.98 283.12,-18.38 285.05,-25.1"/>
</a>
</g>
</g>
<!-- Node6 -->
<g id="Node000006" class="node">
<title>Node6</title>
<g id="a_Node000006"><a xlink:href="a02349.html#ad1d30ecbf6bff6457b680aa940281072" target="_top" xlink:title=" ">
<polygon fill="white" stroke="#666666" points="578.5,-55.5 439.5,-55.5 439.5,-37 578.5,-37 578.5,-55.5"/>
<text text-anchor="middle" x="509" y="-42" font-family="Helvetica,sans-Serif" font-size="10.00">async_completion_complete</text>
</a>
</g>
</g>
<!-- Node5&#45;&gt;Node6 -->
<g id="edge5_Node000005_Node000006" class="edge">
<title>Node5&#45;&gt;Node6</title>
<g id="a_edge5_Node000005_Node000006"><a xlink:title=" ">
<path fill="none" stroke="#63b8ff" d="M394.05,-46.25C405.03,-46.25 416.67,-46.25 428.15,-46.25"/>
<polygon fill="#63b8ff" stroke="#63b8ff" points="428.08,-49.75 438.08,-46.25 428.08,-42.75 428.08,-49.75"/>
</a>
</g>
</g>
</g>
</svg>
