<?xml version="1.0" encoding="UTF-8" standalone="no"?>
<!DOCTYPE svg PUBLIC "-//W3C//DTD SVG 1.1//EN"
 "http://www.w3.org/Graphics/SVG/1.1/DTD/svg11.dtd">
<!-- Generated by graphviz version 8.0.5 (0)
 -->
<!-- Title: arax_data_output_init Pages: 1 -->
<svg width="1049pt" height="156pt"
 viewBox="0.00 0.00 1049.25 155.50" xmlns="http://www.w3.org/2000/svg" xmlns:xlink="http://www.w3.org/1999/xlink">
<g id="graph0" class="graph" transform="scale(1 1) rotate(0) translate(4 151.5)">
<title>arax_data_output_init</title>
<!-- Node1 -->
<g id="Node000001" class="node">
<title>Node1</title>
<g id="a_Node000001"><a xlink:title=" ">
<polygon fill="#999999" stroke="#666666" points="109.75,-36.5 0,-36.5 0,-18 109.75,-18 109.75,-36.5"/>
<text text-anchor="middle" x="54.88" y="-23" font-family="Helvetica,sans-Serif" font-size="10.00">arax_data_output_init</text>
</a>
</g>
</g>
<!-- Node2 -->
<g id="Node000002" class="node">
<title>Node2</title>
<g id="a_Node000002"><a xlink:href="a01931.html#a4b65f90a821aca384f0ca1cff7bd1846" target="_top" xlink:title=" ">
<polygon fill="white" stroke="#666666" points="271.25,-55.5 145.75,-55.5 145.75,-37 271.25,-37 271.25,-55.5"/>
<text text-anchor="middle" x="208.5" y="-42" font-family="Helvetica,sans-Serif" font-size="10.00">arax_data_migrate_accel</text>
</a>
</g>
</g>
<!-- Node1&#45;&gt;Node2 -->
<g id="edge1_Node000001_Node000002" class="edge">
<title>Node1&#45;&gt;Node2</title>
<g id="a_edge1_Node000001_Node000002"><a xlink:title=" ">
<path fill="none" stroke="#63b8ff" d="M110.19,-34.06C118.1,-35.05 126.36,-36.08 134.58,-37.11"/>
<polygon fill="#63b8ff" stroke="#63b8ff" points="133.96,-40.69 144.31,-38.46 134.83,-33.74 133.96,-40.69"/>
</a>
</g>
</g>
<!-- Node13 -->
<g id="Node000013" class="node">
<title>Node13</title>
<g id="a_Node000013"><a xlink:href="a01910.html#a9255b8011e6d7c9b28c7df40065efb28" target="_top" xlink:title=" ">
<polygon fill="white" stroke="#666666" points="418.5,-18.5 317,-18.5 317,0 418.5,0 418.5,-18.5"/>
<text text-anchor="middle" x="367.75" y="-5" font-family="Helvetica,sans-Serif" font-size="10.00">arax_object_ref_inc</text>
</a>
</g>
</g>
<!-- Node1&#45;&gt;Node13 -->
<g id="edge14_Node000001_Node000013" class="edge">
<title>Node1&#45;&gt;Node13</title>
<g id="a_edge14_Node000001_Node000013"><a xlink:title=" ">
<path fill="none" stroke="#63b8ff" d="M110.03,-24.11C164.69,-20.95 248.96,-16.07 305.91,-12.77"/>
<polygon fill="#63b8ff" stroke="#63b8ff" points="305.78,-16.23 315.56,-12.16 305.37,-9.24 305.78,-16.23"/>
</a>
</g>
</g>
<!-- Node3 -->
<g id="Node000003" class="node">
<title>Node3</title>
<g id="a_Node000003"><a xlink:href="a01910.html#afe7e4a63c40fbcaae742b8de8693483f" target="_top" xlink:title=" ">
<polygon fill="white" stroke="#666666" points="420,-92.5 315.5,-92.5 315.5,-74 420,-74 420,-92.5"/>
<text text-anchor="middle" x="367.75" y="-79" font-family="Helvetica,sans-Serif" font-size="10.00">arax_object_ref_dec</text>
</a>
</g>
</g>
<!-- Node2&#45;&gt;Node3 -->
<g id="edge2_Node000002_Node000003" class="edge">
<title>Node2&#45;&gt;Node3</title>
<g id="a_edge2_Node000002_Node000003"><a xlink:title=" ">
<path fill="none" stroke="#63b8ff" d="M250.82,-55.97C270.42,-60.58 294.05,-66.15 314.85,-71.04"/>
<polygon fill="#63b8ff" stroke="#63b8ff" points="313.9,-74.65 324.44,-73.53 315.51,-67.83 313.9,-74.65"/>
</a>
</g>
</g>
<!-- Node2&#45;&gt;Node13 -->
<g id="edge12_Node000002_Node000013" class="edge">
<title>Node2&#45;&gt;Node13</title>
<g id="a_edge12_Node000002_Node000013"><a xlink:title=" ">
<path fill="none" stroke="#63b8ff" d="M250.82,-36.53C270.42,-31.92 294.05,-26.35 314.85,-21.46"/>
<polygon fill="#63b8ff" stroke="#63b8ff" points="315.51,-24.67 324.44,-18.97 313.9,-17.85 315.51,-24.67"/>
</a>
</g>
</g>
<!-- Node14 -->
<g id="Node000014" class="node">
<title>Node14</title>
<g id="a_Node000014"><a xlink:href="a01910.html#a668fd893484b6e2d67d8b372b508d14f" target="_top" xlink:title=" ">
<polygon fill="white" stroke="#666666" points="428.25,-55.5 307.25,-55.5 307.25,-37 428.25,-37 428.25,-55.5"/>
<text text-anchor="middle" x="367.75" y="-42" font-family="Helvetica,sans-Serif" font-size="10.00">arax_object_type_to_str</text>
</a>
</g>
</g>
<!-- Node2&#45;&gt;Node14 -->
<g id="edge13_Node000002_Node000014" class="edge">
<title>Node2&#45;&gt;Node14</title>
<g id="a_edge13_Node000002_Node000014"><a xlink:title=" ">
<path fill="none" stroke="#63b8ff" d="M271.65,-46.25C279.62,-46.25 287.82,-46.25 295.91,-46.25"/>
<polygon fill="#63b8ff" stroke="#63b8ff" points="295.85,-49.75 305.85,-46.25 295.85,-42.75 295.85,-49.75"/>
</a>
</g>
</g>
<!-- Node4 -->
<g id="Node000004" class="node">
<title>Node4</title>
<g id="a_Node000004"><a xlink:href="a01913.html#a5144f906658718ef853a8d18dda1e724" target="_top" xlink:title=" ">
<polygon fill="white" stroke="#666666" points="563.5,-110.5 464.25,-110.5 464.25,-92 563.5,-92 563.5,-110.5"/>
<text text-anchor="middle" x="513.88" y="-97" font-family="Helvetica,sans-Serif" font-size="10.00">arax_pipe_size_inc</text>
</a>
</g>
</g>
<!-- Node3&#45;&gt;Node4 -->
<g id="edge3_Node000003_Node000004" class="edge">
<title>Node3&#45;&gt;Node4</title>
<g id="a_edge3_Node000003_Node000004"><a xlink:title=" ">
<path fill="none" stroke="#63b8ff" d="M420.38,-89.7C431.04,-91.03 442.35,-92.44 453.27,-93.81"/>
<polygon fill="#63b8ff" stroke="#63b8ff" points="452.66,-97.38 463.02,-95.15 453.53,-90.44 452.66,-97.38"/>
</a>
</g>
</g>
<!-- Node12 -->
<g id="Node000012" class="node">
<title>Node12</title>
<g id="a_Node000012"><a xlink:href="a01946.html#a0c85e5516222ab7e7fc354c614760ec5" target="_top" xlink:title=" ">
<polygon fill="white" stroke="#666666" points="548.88,-73.5 478.88,-73.5 478.88,-55 548.88,-55 548.88,-73.5"/>
<text text-anchor="middle" x="513.88" y="-60" font-family="Helvetica,sans-Serif" font-size="10.00">utils_list_del</text>
</a>
</g>
</g>
<!-- Node3&#45;&gt;Node12 -->
<g id="edge11_Node000003_Node000012" class="edge">
<title>Node3&#45;&gt;Node12</title>
<g id="a_edge11_Node000003_Node000012"><a xlink:title=" ">
<path fill="none" stroke="#63b8ff" d="M420.38,-76.44C435.97,-74.39 452.97,-72.15 468.08,-70.16"/>
<polygon fill="#63b8ff" stroke="#63b8ff" points="468.25,-73.53 477.71,-68.75 467.34,-66.59 468.25,-73.53"/>
</a>
</g>
</g>
<!-- Node5 -->
<g id="Node000005" class="node">
<title>Node5</title>
<g id="a_Node000005"><a xlink:href="a01925.html#a22aaf13eb56eb1832e725ef73236116f" target="_top" xlink:title=" ">
<polygon fill="white" stroke="#666666" points="710.75,-110.5 599.5,-110.5 599.5,-92 710.75,-92 710.75,-110.5"/>
<text text-anchor="middle" x="655.12" y="-97" font-family="Helvetica,sans-Serif" font-size="10.00">arax_throttle_size_inc</text>
</a>
</g>
</g>
<!-- Node4&#45;&gt;Node5 -->
<g id="edge4_Node000004_Node000005" class="edge">
<title>Node4&#45;&gt;Node5</title>
<g id="a_edge4_Node000004_Node000005"><a xlink:title=" ">
<path fill="none" stroke="#63b8ff" d="M563.97,-101.25C571.92,-101.25 580.26,-101.25 588.52,-101.25"/>
<polygon fill="#63b8ff" stroke="#63b8ff" points="588.31,-104.75 598.31,-101.25 588.31,-97.75 588.31,-104.75"/>
</a>
</g>
</g>
<!-- Node6 -->
<g id="Node000006" class="node">
<title>Node6</title>
<g id="a_Node000006"><a xlink:href="a02352.html#aed6af4d83e934e3e654ead541b15f2d9" target="_top" xlink:title=" ">
<polygon fill="white" stroke="#666666" points="861,-147.5 752,-147.5 752,-129 861,-129 861,-147.5"/>
<text text-anchor="middle" x="806.5" y="-134" font-family="Helvetica,sans-Serif" font-size="10.00">async_condition_lock</text>
</a>
</g>
</g>
<!-- Node5&#45;&gt;Node6 -->
<g id="edge5_Node000005_Node000006" class="edge">
<title>Node5&#45;&gt;Node6</title>
<g id="a_edge5_Node000005_Node000006"><a xlink:title=" ">
<path fill="none" stroke="#63b8ff" d="M695.37,-110.97C713.82,-115.54 736.03,-121.04 755.66,-125.9"/>
<polygon fill="#63b8ff" stroke="#63b8ff" points="754.71,-129.52 765.26,-128.53 756.39,-122.73 754.71,-129.52"/>
</a>
</g>
</g>
<!-- Node8 -->
<g id="Node000008" class="node">
<title>Node8</title>
<g id="a_Node000008"><a xlink:href="a02352.html#a45a896fb606c2aa66a5a4c2af59ce494" target="_top" xlink:title=" ">
<polygon fill="white" stroke="#666666" points="864,-110.5 749,-110.5 749,-92 864,-92 864,-110.5"/>
<text text-anchor="middle" x="806.5" y="-97" font-family="Helvetica,sans-Serif" font-size="10.00">async_condition_notify</text>
</a>
</g>
</g>
<!-- Node5&#45;&gt;Node8 -->
<g id="edge7_Node000005_Node000008" class="edge">
<title>Node5&#45;&gt;Node8</title>
<g id="a_edge7_Node000005_Node000008"><a xlink:title=" ">
<path fill="none" stroke="#63b8ff" d="M710.9,-101.25C719.66,-101.25 728.81,-101.25 737.83,-101.25"/>
<polygon fill="#63b8ff" stroke="#63b8ff" points="737.73,-104.75 747.73,-101.25 737.73,-97.75 737.73,-104.75"/>
</a>
</g>
</g>
<!-- Node10 -->
<g id="Node000010" class="node">
<title>Node10</title>
<g id="a_Node000010"><a xlink:href="a02352.html#a3bbcb7c4c024e99d5c4ba52b61dfbbf7" target="_top" xlink:title=" ">
<polygon fill="white" stroke="#666666" points="866.25,-73.5 746.75,-73.5 746.75,-55 866.25,-55 866.25,-73.5"/>
<text text-anchor="middle" x="806.5" y="-60" font-family="Helvetica,sans-Serif" font-size="10.00">async_condition_unlock</text>
</a>
</g>
</g>
<!-- Node5&#45;&gt;Node10 -->
<g id="edge9_Node000005_Node000010" class="edge">
<title>Node5&#45;&gt;Node10</title>
<g id="a_edge9_Node000005_Node000010"><a xlink:title=" ">
<path fill="none" stroke="#63b8ff" d="M695.37,-91.53C713.82,-86.96 736.03,-81.46 755.66,-76.6"/>
<polygon fill="#63b8ff" stroke="#63b8ff" points="756.39,-79.77 765.26,-73.97 754.71,-72.98 756.39,-79.77"/>
</a>
</g>
</g>
<!-- Node7 -->
<g id="Node000007" class="node">
<title>Node7</title>
<g id="a_Node000007"><a xlink:href="a02346.html#aebf9e72bb6cbd8b9e33489d46c25075d" target="_top" xlink:title=" ">
<polygon fill="white" stroke="#666666" points="1030,-147.5 913.5,-147.5 913.5,-129 1030,-129 1030,-147.5"/>
<text text-anchor="middle" x="971.75" y="-134" font-family="Helvetica,sans-Serif" font-size="10.00">async_completion_wait</text>
</a>
</g>
</g>
<!-- Node6&#45;&gt;Node7 -->
<g id="edge6_Node000006_Node000007" class="edge">
<title>Node6&#45;&gt;Node7</title>
<g id="a_edge6_Node000006_Node000007"><a xlink:title=" ">
<path fill="none" stroke="#63b8ff" d="M861.41,-138.25C874.52,-138.25 888.73,-138.25 902.41,-138.25"/>
<polygon fill="#63b8ff" stroke="#63b8ff" points="902.25,-141.75 912.25,-138.25 902.25,-134.75 902.25,-141.75"/>
</a>
</g>
</g>
<!-- Node9 -->
<g id="Node000009" class="node">
<title>Node9</title>
<g id="a_Node000009"><a xlink:href="a02346.html#a0fa370eee5160963e617d1daf1c07363" target="_top" xlink:title=" ">
<polygon fill="white" stroke="#666666" points="1028.12,-110.5 915.38,-110.5 915.38,-92 1028.12,-92 1028.12,-110.5"/>
<text text-anchor="middle" x="971.75" y="-97" font-family="Helvetica,sans-Serif" font-size="10.00">async_semaphore_inc</text>
</a>
</g>
</g>
<!-- Node8&#45;&gt;Node9 -->
<g id="edge8_Node000008_Node000009" class="edge">
<title>Node8&#45;&gt;Node9</title>
<g id="a_edge8_Node000008_Node000009"><a xlink:title=" ">
<path fill="none" stroke="#63b8ff" d="M864.14,-101.25C877.02,-101.25 890.81,-101.25 904.07,-101.25"/>
<polygon fill="#63b8ff" stroke="#63b8ff" points="904.04,-104.75 914.04,-101.25 904.04,-97.75 904.04,-104.75"/>
</a>
</g>
</g>
<!-- Node11 -->
<g id="Node000011" class="node">
<title>Node11</title>
<g id="a_Node000011"><a xlink:href="a02346.html#ad1d30ecbf6bff6457b680aa940281072" target="_top" xlink:title=" ">
<polygon fill="white" stroke="#666666" points="1041.25,-73.5 902.25,-73.5 902.25,-55 1041.25,-55 1041.25,-73.5"/>
<text text-anchor="middle" x="971.75" y="-60" font-family="Helvetica,sans-Serif" font-size="10.00">async_completion_complete</text>
</a>
</g>
</g>
<!-- Node10&#45;&gt;Node11 -->
<g id="edge10_Node000010_Node000011" class="edge">
<title>Node10&#45;&gt;Node11</title>
<g id="a_edge10_Node000010_Node000011"><a xlink:title=" ">
<path fill="none" stroke="#63b8ff" d="M866.44,-64.25C874.44,-64.25 882.76,-64.25 891.05,-64.25"/>
<polygon fill="#63b8ff" stroke="#63b8ff" points="890.9,-67.75 900.9,-64.25 890.9,-60.75 890.9,-67.75"/>
</a>
</g>
</g>
</g>
</svg>
