<?xml version="1.0" encoding="UTF-8" standalone="no"?>
<!DOCTYPE svg PUBLIC "-//W3C//DTD SVG 1.1//EN"
 "http://www.w3.org/Graphics/SVG/1.1/DTD/svg11.dtd">
<!-- Generated by graphviz version 12.2.1 (0)
 -->
<!-- Title: arax_ptr_valid Pages: 1 -->
<svg width="356pt" height="149pt"
 viewBox="0.00 0.00 356.00 148.75" xmlns="http://www.w3.org/2000/svg" xmlns:xlink="http://www.w3.org/1999/xlink">
<g id="graph0" class="graph" transform="scale(1 1) rotate(0) translate(4 144.75)">
<title>arax_ptr_valid</title>
<!-- Node1 -->
<g id="Node000001" class="node">
<title>Node1</title>
<g id="a_Node000001"><a xlink:title=" ">
<polygon fill="#999999" stroke="#666666" points="348,-84.75 271.25,-84.75 271.25,-66.25 348,-66.25 348,-84.75"/>
<text text-anchor="middle" x="309.62" y="-71.25" font-family="Helvetica,sans-Serif" font-size="10.00">arax_ptr_valid</text>
</a>
</g>
</g>
<!-- Node2 -->
<g id="Node000002" class="node">
<title>Node2</title>
<g id="a_Node000002"><a xlink:href="a01967.html#a4ee1fea325d2edd421f59ab240dfbe54" target="_top" xlink:title=" ">
<polygon fill="white" stroke="#666666" points="234.12,-140.75 142.38,-140.75 142.38,-122.25 234.12,-122.25 234.12,-140.75"/>
<text text-anchor="middle" x="188.25" y="-127.25" font-family="Helvetica,sans-Serif" font-size="10.00">_arax_assert_obj</text>
</a>
</g>
</g>
<!-- Node1&#45;&gt;Node2 -->
<g id="edge1_Node000001_Node000002" class="edge">
<title>Node1&#45;&gt;Node2</title>
<g id="a_edge1_Node000001_Node000002"><a xlink:title=" ">
<path fill="none" stroke="#63b8ff" d="M280.29,-90.41C266.77,-97.37 250.3,-105.61 235.25,-112.5 228.34,-115.67 220.74,-118.9 213.75,-121.78"/>
<polygon fill="#63b8ff" stroke="#63b8ff" points="281.81,-93.57 289.07,-85.86 278.58,-87.36 281.81,-93.57"/>
</a>
</g>
</g>
<!-- Node3 -->
<g id="Node000003" class="node">
<title>Node3</title>
<g id="a_Node000003"><a xlink:href="a01922.html#afeaab7d93372f0752d59c70d9c5940e7" target="_top" xlink:title=" ">
<polygon fill="white" stroke="#666666" points="226.25,-103.75 150.25,-103.75 150.25,-85.25 226.25,-85.25 226.25,-103.75"/>
<text text-anchor="middle" x="188.25" y="-90.25" font-family="Helvetica,sans-Serif" font-size="10.00">arax_data_ref</text>
</a>
</g>
</g>
<!-- Node1&#45;&gt;Node3 -->
<g id="edge2_Node000001_Node000003" class="edge">
<title>Node1&#45;&gt;Node3</title>
<g id="a_edge2_Node000001_Node000003"><a xlink:title=" ">
<path fill="none" stroke="#63b8ff" d="M259.55,-83.31C248.46,-85.08 236.87,-86.92 226.37,-88.59"/>
<polygon fill="#63b8ff" stroke="#63b8ff" points="260.03,-86.78 269.36,-81.75 258.93,-79.87 260.03,-86.78"/>
</a>
</g>
</g>
<!-- Node4 -->
<g id="Node000004" class="node">
<title>Node4</title>
<g id="a_Node000004"><a xlink:href="a01922.html#ac1f7fb20b3a23b388bea24f1b46a33a8" target="_top" xlink:title=" ">
<polygon fill="white" stroke="#666666" points="105.25,-84.75 0,-84.75 0,-66.25 105.25,-66.25 105.25,-84.75"/>
<text text-anchor="middle" x="52.62" y="-71.25" font-family="Helvetica,sans-Serif" font-size="10.00">arax_data_ref_offset</text>
</a>
</g>
</g>
<!-- Node1&#45;&gt;Node4 -->
<g id="edge4_Node000001_Node000004" class="edge">
<title>Node1&#45;&gt;Node4</title>
<g id="a_edge4_Node000001_Node000004"><a xlink:title=" ">
<path fill="none" stroke="#63b8ff" d="M259.67,-75.5C215.48,-75.5 150.65,-75.5 105.55,-75.5"/>
<polygon fill="#63b8ff" stroke="#63b8ff" points="259.49,-79 269.49,-75.5 259.49,-72 259.49,-79"/>
</a>
</g>
</g>
<!-- Node5 -->
<g id="Node000005" class="node">
<title>Node5</title>
<g id="a_Node000005"><a xlink:href="a01946.html#a8a99bcb12e2ee55d68a029bfca9b6d51" target="_top" xlink:title=" ">
<polygon fill="white" stroke="#666666" points="235.25,-29 141.25,-29 141.25,0 235.25,0 235.25,-29"/>
<text text-anchor="start" x="149.25" y="-15.5" font-family="Helvetica,sans-Serif" font-size="10.00">arax_plot_register</text>
<text text-anchor="middle" x="188.25" y="-5" font-family="Helvetica,sans-Serif" font-size="10.00">_metric</text>
</a>
</g>
</g>
<!-- Node1&#45;&gt;Node5 -->
<g id="edge5_Node000001_Node000005" class="edge">
<title>Node1&#45;&gt;Node5</title>
<g id="a_edge5_Node000001_Node000005"><a xlink:title=" ">
<path fill="none" stroke="#63b8ff" d="M279.47,-60.6C260.89,-51.11 236.89,-38.84 218.32,-29.36"/>
<polygon fill="#63b8ff" stroke="#63b8ff" points="277.86,-63.71 288.36,-65.15 281.05,-57.48 277.86,-63.71"/>
</a>
</g>
</g>
<!-- Node3&#45;&gt;Node4 -->
<g id="edge3_Node000003_Node000004" class="edge">
<title>Node3&#45;&gt;Node4</title>
<g id="a_edge3_Node000003_Node000004"><a xlink:title=" ">
<path fill="none" stroke="#63b8ff" d="M138.69,-87.6C127.94,-86.07 116.51,-84.44 105.63,-82.89"/>
<polygon fill="#63b8ff" stroke="#63b8ff" points="138.14,-91.05 148.53,-88.99 139.12,-84.12 138.14,-91.05"/>
</a>
</g>
</g>
</g>
</svg>
