<?xml version="1.0" encoding="UTF-8" standalone="no"?>
<!DOCTYPE svg PUBLIC "-//W3C//DTD SVG 1.1//EN"
 "http://www.w3.org/Graphics/SVG/1.1/DTD/svg11.dtd">
<!-- Generated by graphviz version 8.0.5 (0)
 -->
<!-- Title: utils_config_get_size Pages: 1 -->
<svg width="920pt" height="77pt"
 viewBox="0.00 0.00 919.50 77.48" xmlns="http://www.w3.org/2000/svg" xmlns:xlink="http://www.w3.org/1999/xlink">
<g id="graph0" class="graph" transform="scale(1 1) rotate(0) translate(4 73.48)">
<title>utils_config_get_size</title>
<!-- Node1 -->
<g id="Node000001" class="node">
<title>Node1</title>
<g id="a_Node000001"><a xlink:title=" ">
<polygon fill="#999999" stroke="#666666" points="106.75,-36.5 0,-36.5 0,-18 106.75,-18 106.75,-36.5"/>
<text text-anchor="middle" x="53.38" y="-23" font-family="Helvetica,sans-Serif" font-size="10.00">utils_config_get_size</text>
</a>
</g>
</g>
<!-- Node2 -->
<g id="Node000002" class="node">
<title>Node2</title>
<g id="a_Node000002"><a xlink:href="a01952.html#a1a28ba7c7791236d03b1fa9f81aa6a71" target="_top" xlink:title=" ">
<polygon fill="white" stroke="#666666" points="250.25,-36.5 142.75,-36.5 142.75,-18 250.25,-18 250.25,-36.5"/>
<text text-anchor="middle" x="196.5" y="-23" font-family="Helvetica,sans-Serif" font-size="10.00">utils_config_get_long</text>
</a>
</g>
</g>
<!-- Node1&#45;&gt;Node2 -->
<g id="edge1_Node000001_Node000002" class="edge">
<title>Node1&#45;&gt;Node2</title>
<g id="a_edge1_Node000001_Node000002"><a xlink:title=" ">
<path fill="none" stroke="#63b8ff" d="M106.92,-27.25C114.99,-27.25 123.39,-27.25 131.67,-27.25"/>
<polygon fill="#63b8ff" stroke="#63b8ff" points="131.44,-30.75 141.44,-27.25 131.44,-23.75 131.44,-30.75"/>
</a>
</g>
</g>
<!-- Node3 -->
<g id="Node000003" class="node">
<title>Node3</title>
<g id="a_Node000003"><a xlink:href="a01952.html#a0738274ac3fd171eda6bfb42492bc0d7" target="_top" xlink:title=" ">
<polygon fill="white" stroke="#666666" points="544.38,-55.5 438.38,-55.5 438.38,-37 544.38,-37 544.38,-55.5"/>
<text text-anchor="middle" x="491.38" y="-42" font-family="Helvetica,sans-Serif" font-size="10.00">_utils_config_get_str</text>
</a>
</g>
</g>
<!-- Node2&#45;&gt;Node3 -->
<g id="edge2_Node000002_Node000003" class="edge">
<title>Node2&#45;&gt;Node3</title>
<g id="a_edge2_Node000002_Node000003"><a xlink:title=" ">
<path fill="none" stroke="#63b8ff" d="M250.54,-30.69C300.25,-33.92 374.6,-38.74 427.32,-42.16"/>
<polygon fill="#63b8ff" stroke="#63b8ff" points="427.02,-45.71 437.22,-42.87 427.47,-38.73 427.02,-45.71"/>
</a>
</g>
</g>
<!-- Node8 -->
<g id="Node000008" class="node">
<title>Node8</title>
<g id="a_Node000008"><a xlink:href="a01952.html#a88091e179416d4beec1b5681cfb68742" target="_top" xlink:title=" ">
<polygon fill="white" stroke="#666666" points="401.25,-18.5 286.25,-18.5 286.25,0 401.25,0 401.25,-18.5"/>
<text text-anchor="middle" x="343.75" y="-5" font-family="Helvetica,sans-Serif" font-size="10.00">utils_config_write_long</text>
</a>
</g>
</g>
<!-- Node2&#45;&gt;Node8 -->
<g id="edge8_Node000002_Node000008" class="edge">
<title>Node2&#45;&gt;Node8</title>
<g id="a_edge8_Node000002_Node000008"><a xlink:title=" ">
<path fill="none" stroke="#63b8ff" d="M250.35,-20.7C258.36,-19.71 266.71,-18.67 274.99,-17.65"/>
<polygon fill="#63b8ff" stroke="#63b8ff" points="275.28,-21.01 284.77,-16.31 274.42,-14.07 275.28,-21.01"/>
</a>
</g>
</g>
<!-- Node4 -->
<g id="Node000004" class="node">
<title>Node4</title>
<g id="a_Node000004"><a xlink:href="a01952.html#a8b687fb4c464903e23504eea3ddc3873" target="_top" xlink:title=" ">
<polygon fill="white" stroke="#666666" points="635,-55.5 581.5,-55.5 581.5,-37 635,-37 635,-55.5"/>
<text text-anchor="middle" x="608.25" y="-42" font-family="Helvetica,sans-Serif" font-size="10.00">conf_get</text>
</a>
</g>
</g>
<!-- Node3&#45;&gt;Node4 -->
<g id="edge3_Node000003_Node000004" class="edge">
<title>Node3&#45;&gt;Node4</title>
<g id="a_edge3_Node000003_Node000004"><a xlink:title=" ">
<path fill="none" stroke="#63b8ff" d="M544.77,-46.25C553.38,-46.25 562.14,-46.25 570.27,-46.25"/>
<polygon fill="#63b8ff" stroke="#63b8ff" points="570.26,-49.75 580.26,-46.25 570.26,-42.75 570.26,-49.75"/>
</a>
</g>
</g>
<!-- Node5 -->
<g id="Node000005" class="node">
<title>Node5</title>
<g id="a_Node000005"><a xlink:href="a01955.html#acde493d3889d6f207d1e122cf4bb1b8c" target="_top" xlink:title=" ">
<polygon fill="white" stroke="#666666" points="911.5,-55.5 825.75,-55.5 825.75,-37 911.5,-37 911.5,-55.5"/>
<text text-anchor="middle" x="868.62" y="-42" font-family="Helvetica,sans-Serif" font-size="10.00">system_env_var</text>
</a>
</g>
</g>
<!-- Node4&#45;&gt;Node5 -->
<g id="edge4_Node000004_Node000005" class="edge">
<title>Node4&#45;&gt;Node5</title>
<g id="a_edge4_Node000004_Node000005"><a xlink:title=" ">
<path fill="none" stroke="#63b8ff" d="M635.33,-55.63C646.21,-59.08 659.06,-62.55 671,-64.25 723.25,-71.71 737.31,-70.23 789.75,-64.25 800.61,-63.01 812.15,-60.83 822.94,-58.41"/>
<polygon fill="#63b8ff" stroke="#63b8ff" points="823.49,-61.64 832.42,-55.93 821.88,-54.82 823.49,-61.64"/>
</a>
</g>
</g>
<!-- Node6 -->
<g id="Node000006" class="node">
<title>Node6</title>
<g id="a_Node000006"><a xlink:href="a01955.html#a86c3bfbf6daaf8172e131aa23dc7393c" target="_top" xlink:title=" ">
<polygon fill="white" stroke="#666666" points="774,-55.5 686.75,-55.5 686.75,-37 774,-37 774,-55.5"/>
<text text-anchor="middle" x="730.38" y="-42" font-family="Helvetica,sans-Serif" font-size="10.00">system_file_size</text>
</a>
</g>
</g>
<!-- Node4&#45;&gt;Node6 -->
<g id="edge5_Node000004_Node000006" class="edge">
<title>Node4&#45;&gt;Node6</title>
<g id="a_edge5_Node000004_Node000006"><a xlink:title=" ">
<path fill="none" stroke="#63b8ff" d="M635.32,-46.25C647.19,-46.25 661.71,-46.25 675.76,-46.25"/>
<polygon fill="#63b8ff" stroke="#63b8ff" points="675.36,-49.75 685.36,-46.25 675.36,-42.75 675.36,-49.75"/>
</a>
</g>
</g>
<!-- Node7 -->
<g id="Node000007" class="node">
<title>Node7</title>
<g id="a_Node000007"><a xlink:href="a01952.html#a17713c8e9b90065e23b0ec1a225f79ab" target="_top" xlink:title=" ">
<polygon fill="white" stroke="#666666" points="789.75,-18.5 671,-18.5 671,0 789.75,0 789.75,-18.5"/>
<text text-anchor="middle" x="730.38" y="-5" font-family="Helvetica,sans-Serif" font-size="10.00">utils_config_get_source</text>
</a>
</g>
</g>
<!-- Node4&#45;&gt;Node7 -->
<g id="edge6_Node000004_Node000007" class="edge">
<title>Node4&#45;&gt;Node7</title>
<g id="a_edge6_Node000004_Node000007"><a xlink:title=" ">
<path fill="none" stroke="#63b8ff" d="M635.32,-38.22C650.52,-33.54 670.05,-27.52 687.37,-22.19"/>
<polygon fill="#63b8ff" stroke="#63b8ff" points="688.28,-25.26 696.81,-18.97 686.22,-18.57 688.28,-25.26"/>
</a>
</g>
</g>
<!-- Node7&#45;&gt;Node5 -->
<g id="edge7_Node000007_Node000005" class="edge">
<title>Node7&#45;&gt;Node5</title>
<g id="a_edge7_Node000007_Node000005"><a xlink:title=" ">
<path fill="none" stroke="#63b8ff" d="M767.17,-18.97C783.84,-23.5 803.86,-28.93 821.63,-33.76"/>
<polygon fill="#63b8ff" stroke="#63b8ff" points="820.5,-37.35 831.07,-36.59 822.33,-30.6 820.5,-37.35"/>
</a>
</g>
</g>
<!-- Node9 -->
<g id="Node000009" class="node">
<title>Node9</title>
<g id="a_Node000009"><a xlink:href="a01952.html#a4b9cd8f5d0c205ac6c1fd30f77cbf539" target="_top" xlink:title=" ">
<polygon fill="white" stroke="#666666" points="545.5,-18.5 437.25,-18.5 437.25,0 545.5,0 545.5,-18.5"/>
<text text-anchor="middle" x="491.38" y="-5" font-family="Helvetica,sans-Serif" font-size="10.00">utils_config_write_str</text>
</a>
</g>
</g>
<!-- Node8&#45;&gt;Node9 -->
<g id="edge9_Node000008_Node000009" class="edge">
<title>Node8&#45;&gt;Node9</title>
<g id="a_edge9_Node000008_Node000009"><a xlink:title=" ">
<path fill="none" stroke="#63b8ff" d="M401.47,-9.25C409.49,-9.25 417.78,-9.25 425.92,-9.25"/>
<polygon fill="#63b8ff" stroke="#63b8ff" points="425.91,-12.75 435.91,-9.25 425.91,-5.75 425.91,-12.75"/>
</a>
</g>
</g>
<!-- Node9&#45;&gt;Node4 -->
<g id="edge10_Node000009_Node000004" class="edge">
<title>Node9&#45;&gt;Node4</title>
<g id="a_edge10_Node000009_Node000004"><a xlink:title=" ">
<path fill="none" stroke="#63b8ff" d="M522.56,-18.97C537.36,-23.74 555.3,-29.52 570.85,-34.53"/>
<polygon fill="#63b8ff" stroke="#63b8ff" points="569.58,-38.12 580.17,-37.85 571.72,-31.45 569.58,-38.12"/>
</a>
</g>
</g>
<!-- Node10 -->
<g id="Node000010" class="node">
<title>Node10</title>
<g id="a_Node000010"><a xlink:href="a01952.html#ab87e9691e65d65348749f8dc70f24602" target="_top" xlink:title=" ">
<polygon fill="white" stroke="#666666" points="635,-18.5 581.5,-18.5 581.5,0 635,0 635,-18.5"/>
<text text-anchor="middle" x="608.25" y="-5" font-family="Helvetica,sans-Serif" font-size="10.00">conf_set</text>
</a>
</g>
</g>
<!-- Node9&#45;&gt;Node10 -->
<g id="edge11_Node000009_Node000010" class="edge">
<title>Node9&#45;&gt;Node10</title>
<g id="a_edge11_Node000009_Node000010"><a xlink:title=" ">
<path fill="none" stroke="#63b8ff" d="M545.78,-9.25C554.04,-9.25 562.42,-9.25 570.22,-9.25"/>
<polygon fill="#63b8ff" stroke="#63b8ff" points="570.16,-12.75 580.16,-9.25 570.16,-5.75 570.16,-12.75"/>
</a>
</g>
</g>
<!-- Node10&#45;&gt;Node7 -->
<g id="edge12_Node000010_Node000007" class="edge">
<title>Node10&#45;&gt;Node7</title>
<g id="a_edge12_Node000010_Node000007"><a xlink:title=" ">
<path fill="none" stroke="#63b8ff" d="M635.32,-9.25C642.77,-9.25 651.27,-9.25 660.04,-9.25"/>
<polygon fill="#63b8ff" stroke="#63b8ff" points="659.82,-12.75 669.82,-9.25 659.82,-5.75 659.82,-12.75"/>
</a>
</g>
</g>
</g>
</svg>
