<?xml version="1.0" encoding="UTF-8" standalone="no"?>
<!DOCTYPE svg PUBLIC "-//W3C//DTD SVG 1.1//EN"
 "http://www.w3.org/Graphics/SVG/1.1/DTD/svg11.dtd">
<!-- Generated by graphviz version 12.2.1 (0)
 -->
<!-- Title: malloc.c Pages: 1 -->
<svg width="661pt" height="299pt"
 viewBox="0.00 0.00 661.00 299.00" xmlns="http://www.w3.org/2000/svg" xmlns:xlink="http://www.w3.org/1999/xlink">
<g id="graph0" class="graph" transform="scale(1 1) rotate(0) translate(4 295)">
<title>malloc.c</title>
<!-- Node1 -->
<g id="Node000001" class="node">
<title>Node1</title>
<g id="a_Node000001"><a xlink:title=" ">
<polygon fill="#999999" stroke="#666666" points="299.12,-291 246.38,-291 246.38,-272.5 299.12,-272.5 299.12,-291"/>
<text text-anchor="middle" x="272.75" y="-277.5" font-family="Helvetica,sans-Serif" font-size="10.00">malloc.c</text>
</a>
</g>
</g>
<!-- Node2 -->
<g id="Node000002" class="node">
<title>Node2</title>
<g id="a_Node000002"><a xlink:title=" ">
<polygon fill="#e0e0e0" stroke="#999999" points="65.5,-236.5 0,-236.5 0,-218 65.5,-218 65.5,-236.5"/>
<text text-anchor="middle" x="32.75" y="-223" font-family="Helvetica,sans-Serif" font-size="10.00">sys/types.h</text>
</a>
</g>
</g>
<!-- Node1&#45;&gt;Node2 -->
<g id="edge1_Node000001_Node000002" class="edge">
<title>Node1&#45;&gt;Node2</title>
<g id="a_edge1_Node000001_Node000002"><a xlink:title=" ">
<path fill="none" stroke="#63b8ff" d="M246.15,-274.93C205.27,-265.99 126.57,-248.77 77.01,-237.93"/>
<polygon fill="#63b8ff" stroke="#63b8ff" points="77.98,-234.56 67.47,-235.84 76.49,-241.4 77.98,-234.56"/>
</a>
</g>
</g>
<!-- Node3 -->
<g id="Node000003" class="node">
<title>Node3</title>
<g id="a_Node000003"><a xlink:title=" ">
<polygon fill="#e0e0e0" stroke="#999999" points="128.38,-236.5 83.12,-236.5 83.12,-218 128.38,-218 128.38,-236.5"/>
<text text-anchor="middle" x="105.75" y="-223" font-family="Helvetica,sans-Serif" font-size="10.00">stdio.h</text>
</a>
</g>
</g>
<!-- Node1&#45;&gt;Node3 -->
<g id="edge2_Node000001_Node000003" class="edge">
<title>Node1&#45;&gt;Node3</title>
<g id="a_edge2_Node000001_Node000003"><a xlink:title=" ">
<path fill="none" stroke="#63b8ff" d="M245.92,-272.31C217.01,-263.23 170.95,-248.75 139.59,-238.89"/>
<polygon fill="#63b8ff" stroke="#63b8ff" points="140.78,-235.6 130.2,-235.93 138.69,-242.27 140.78,-235.6"/>
</a>
</g>
</g>
<!-- Node4 -->
<g id="Node000004" class="node">
<title>Node4</title>
<g id="a_Node000004"><a xlink:title=" ">
<polygon fill="#e0e0e0" stroke="#999999" points="192.75,-236.5 146.75,-236.5 146.75,-218 192.75,-218 192.75,-236.5"/>
<text text-anchor="middle" x="169.75" y="-223" font-family="Helvetica,sans-Serif" font-size="10.00">errno.h</text>
</a>
</g>
</g>
<!-- Node1&#45;&gt;Node4 -->
<g id="edge3_Node000001_Node000004" class="edge">
<title>Node1&#45;&gt;Node4</title>
<g id="a_edge3_Node000001_Node000004"><a xlink:title=" ">
<path fill="none" stroke="#63b8ff" d="M255.74,-272.08C239.79,-263.95 215.66,-251.65 197.02,-242.15"/>
<polygon fill="#63b8ff" stroke="#63b8ff" points="198.63,-239.04 188.13,-237.62 195.45,-245.28 198.63,-239.04"/>
</a>
</g>
</g>
<!-- Node5 -->
<g id="Node000005" class="node">
<title>Node5</title>
<g id="a_Node000005"><a xlink:title=" ">
<polygon fill="#e0e0e0" stroke="#999999" points="332.25,-127.5 289.25,-127.5 289.25,-109 332.25,-109 332.25,-127.5"/>
<text text-anchor="middle" x="310.75" y="-114" font-family="Helvetica,sans-Serif" font-size="10.00">time.h</text>
</a>
</g>
</g>
<!-- Node1&#45;&gt;Node5 -->
<g id="edge4_Node000001_Node000005" class="edge">
<title>Node1&#45;&gt;Node5</title>
<g id="a_edge4_Node000001_Node000005"><a xlink:title=" ">
<path fill="none" stroke="#63b8ff" d="M263.15,-272.24C251.2,-260.55 233.11,-238.62 239.75,-218 250.27,-185.33 276.06,-154.34 293.48,-136.06"/>
<polygon fill="#63b8ff" stroke="#63b8ff" points="295.89,-138.6 300.42,-129.02 290.91,-133.69 295.89,-138.6"/>
</a>
</g>
</g>
<!-- Node6 -->
<g id="Node000006" class="node">
<title>Node6</title>
<g id="a_Node000006"><a xlink:title=" ">
<polygon fill="#e0e0e0" stroke="#999999" points="296.5,-236.5 249,-236.5 249,-218 296.5,-218 296.5,-236.5"/>
<text text-anchor="middle" x="272.75" y="-223" font-family="Helvetica,sans-Serif" font-size="10.00">stdlib.h</text>
</a>
</g>
</g>
<!-- Node1&#45;&gt;Node6 -->
<g id="edge5_Node000001_Node000006" class="edge">
<title>Node1&#45;&gt;Node6</title>
<g id="a_edge5_Node000001_Node000006"><a xlink:title=" ">
<path fill="none" stroke="#63b8ff" d="M272.75,-272.08C272.75,-265.58 272.75,-256.42 272.75,-248.16"/>
<polygon fill="#63b8ff" stroke="#63b8ff" points="276.25,-248.27 272.75,-238.27 269.25,-248.27 276.25,-248.27"/>
</a>
</g>
</g>
<!-- Node7 -->
<g id="Node000007" class="node">
<title>Node7</title>
<g id="a_Node000007"><a xlink:title=" ">
<polygon fill="#e0e0e0" stroke="#999999" points="362.88,-236.5 314.62,-236.5 314.62,-218 362.88,-218 362.88,-236.5"/>
<text text-anchor="middle" x="338.75" y="-223" font-family="Helvetica,sans-Serif" font-size="10.00">string.h</text>
</a>
</g>
</g>
<!-- Node1&#45;&gt;Node7 -->
<g id="edge6_Node000001_Node000007" class="edge">
<title>Node1&#45;&gt;Node7</title>
<g id="a_edge6_Node000001_Node000007"><a xlink:title=" ">
<path fill="none" stroke="#63b8ff" d="M283.65,-272.08C293.26,-264.44 307.5,-253.11 319.1,-243.88"/>
<polygon fill="#63b8ff" stroke="#63b8ff" points="321.22,-246.66 326.87,-237.7 316.86,-241.19 321.22,-246.66"/>
</a>
</g>
</g>
<!-- Node8 -->
<g id="Node000008" class="node">
<title>Node8</title>
<g id="a_Node000008"><a xlink:title=" ">
<polygon fill="#e0e0e0" stroke="#999999" points="431,-236.5 380.5,-236.5 380.5,-218 431,-218 431,-236.5"/>
<text text-anchor="middle" x="405.75" y="-223" font-family="Helvetica,sans-Serif" font-size="10.00">unistd.h</text>
</a>
</g>
</g>
<!-- Node1&#45;&gt;Node8 -->
<g id="edge7_Node000001_Node000008" class="edge">
<title>Node1&#45;&gt;Node8</title>
<g id="a_edge7_Node000001_Node000008"><a xlink:title=" ">
<path fill="none" stroke="#63b8ff" d="M294.71,-272.08C316.08,-263.65 348.81,-250.73 373.2,-241.1"/>
<polygon fill="#63b8ff" stroke="#63b8ff" points="374.33,-244.42 382.35,-237.49 371.76,-237.9 374.33,-244.42"/>
</a>
</g>
</g>
<!-- Node9 -->
<g id="Node000009" class="node">
<title>Node9</title>
<g id="a_Node000009"><a xlink:title=" ">
<polygon fill="#e0e0e0" stroke="#999999" points="518,-236.5 449.5,-236.5 449.5,-218 518,-218 518,-236.5"/>
<text text-anchor="middle" x="483.75" y="-223" font-family="Helvetica,sans-Serif" font-size="10.00">sys/param.h</text>
</a>
</g>
</g>
<!-- Node1&#45;&gt;Node9 -->
<g id="edge8_Node000001_Node000009" class="edge">
<title>Node1&#45;&gt;Node9</title>
<g id="a_edge8_Node000001_Node000009"><a xlink:title=" ">
<path fill="none" stroke="#63b8ff" d="M299.47,-274.1C334.32,-265.43 395.79,-250.14 438.09,-239.61"/>
<polygon fill="#63b8ff" stroke="#63b8ff" points="438.88,-243.02 447.74,-237.21 437.19,-236.23 438.88,-243.02"/>
</a>
</g>
</g>
<!-- Node10 -->
<g id="Node000010" class="node">
<title>Node10</title>
<g id="a_Node000010"><a xlink:href="a01367.html" target="_top" xlink:title=" ">
<polygon fill="white" stroke="#666666" points="589.5,-236.5 536,-236.5 536,-218 589.5,-218 589.5,-236.5"/>
<text text-anchor="middle" x="562.75" y="-223" font-family="Helvetica,sans-Serif" font-size="10.00">../alloc.h</text>
</a>
</g>
</g>
<!-- Node1&#45;&gt;Node10 -->
<g id="edge9_Node000001_Node000010" class="edge">
<title>Node1&#45;&gt;Node10</title>
<g id="a_edge9_Node000001_Node000010"><a xlink:title=" ">
<path fill="none" stroke="#63b8ff" d="M299.53,-276.56C344.04,-269.5 436.28,-254.43 524.38,-236.88"/>
<polygon fill="#63b8ff" stroke="#63b8ff" points="525.06,-240.32 534.17,-234.92 523.68,-233.46 525.06,-240.32"/>
</a>
</g>
</g>
<!-- Node11 -->
<g id="Node000011" class="node">
<title>Node11</title>
<g id="a_Node000011"><a xlink:title=" ">
<polygon fill="#e0e0e0" stroke="#999999" points="653,-127.5 602.5,-127.5 602.5,-109 653,-109 653,-127.5"/>
<text text-anchor="middle" x="627.75" y="-114" font-family="Helvetica,sans-Serif" font-size="10.00">stddef.h</text>
</a>
</g>
</g>
<!-- Node10&#45;&gt;Node11 -->
<g id="edge10_Node000010_Node000011" class="edge">
<title>Node10&#45;&gt;Node11</title>
<g id="a_edge10_Node000010_Node000011"><a xlink:title=" ">
<path fill="none" stroke="#63b8ff" d="M574.59,-217.7C585,-209.61 599.84,-196.55 608.75,-182 616.86,-168.76 621.72,-151.81 624.49,-138.87"/>
<polygon fill="#63b8ff" stroke="#63b8ff" points="627.86,-139.9 626.27,-129.43 620.98,-138.61 627.86,-139.9"/>
</a>
</g>
</g>
<!-- Node12 -->
<g id="Node000012" class="node">
<title>Node12</title>
<g id="a_Node000012"><a xlink:href="a01364.html" target="_top" xlink:title=" ">
<polygon fill="white" stroke="#666666" points="415.88,-182 373.62,-182 373.62,-163.5 415.88,-163.5 415.88,-182"/>
<text text-anchor="middle" x="394.75" y="-168.5" font-family="Helvetica,sans-Serif" font-size="10.00">conf.h</text>
</a>
</g>
</g>
<!-- Node10&#45;&gt;Node12 -->
<g id="edge11_Node000010_Node000012" class="edge">
<title>Node10&#45;&gt;Node12</title>
<g id="a_edge11_Node000010_Node000012"><a xlink:title=" ">
<path fill="none" stroke="#63b8ff" d="M535.76,-217.81C506.18,-208.57 458.76,-193.75 427.19,-183.89"/>
<polygon fill="#63b8ff" stroke="#63b8ff" points="428.37,-180.59 417.78,-180.95 426.28,-187.27 428.37,-180.59"/>
</a>
</g>
</g>
<!-- Node13 -->
<g id="Node000013" class="node">
<title>Node13</title>
<g id="a_Node000013"><a xlink:href="a01361.html" target="_top" xlink:title=" ">
<polygon fill="white" stroke="#666666" points="507.25,-182 434.25,-182 434.25,-163.5 507.25,-163.5 507.25,-182"/>
<text text-anchor="middle" x="470.75" y="-168.5" font-family="Helvetica,sans-Serif" font-size="10.00">arax_types.h</text>
</a>
</g>
</g>
<!-- Node10&#45;&gt;Node13 -->
<g id="edge12_Node000010_Node000013" class="edge">
<title>Node10&#45;&gt;Node13</title>
<g id="a_edge12_Node000010_Node000013"><a xlink:title=" ">
<path fill="none" stroke="#63b8ff" d="M547.56,-217.58C533.44,-209.53 512.16,-197.38 495.58,-187.92"/>
<polygon fill="#63b8ff" stroke="#63b8ff" points="497.7,-185.1 487.28,-183.18 494.23,-191.18 497.7,-185.1"/>
</a>
</g>
</g>
<!-- Node15 -->
<g id="Node000015" class="node">
<title>Node15</title>
<g id="a_Node000015"><a xlink:href="a01379.html" target="_top" xlink:title=" ">
<polygon fill="white" stroke="#666666" points="600,-182 525.5,-182 525.5,-163.5 600,-163.5 600,-182"/>
<text text-anchor="middle" x="562.75" y="-168.5" font-family="Helvetica,sans-Serif" font-size="10.00">utils/bitmap.h</text>
</a>
</g>
</g>
<!-- Node10&#45;&gt;Node15 -->
<g id="edge15_Node000010_Node000015" class="edge">
<title>Node10&#45;&gt;Node15</title>
<g id="a_edge15_Node000010_Node000015"><a xlink:title=" ">
<path fill="none" stroke="#63b8ff" d="M562.75,-217.58C562.75,-211.08 562.75,-201.92 562.75,-193.66"/>
<polygon fill="#63b8ff" stroke="#63b8ff" points="566.25,-193.77 562.75,-183.77 559.25,-193.77 566.25,-193.77"/>
</a>
</g>
</g>
<!-- Node13&#45;&gt;Node5 -->
<g id="edge14_Node000013_Node000005" class="edge">
<title>Node13&#45;&gt;Node5</title>
<g id="a_edge14_Node000013_Node000005"><a xlink:title=" ">
<path fill="none" stroke="#63b8ff" d="M444.33,-163.08C416.63,-153.99 373.06,-139.69 343.26,-129.92"/>
<polygon fill="#63b8ff" stroke="#63b8ff" points="344.61,-126.68 334.02,-126.88 342.43,-133.33 344.61,-126.68"/>
</a>
</g>
</g>
<!-- Node14 -->
<g id="Node000014" class="node">
<title>Node14</title>
<g id="a_Node000014"><a xlink:title=" ">
<polygon fill="#e0e0e0" stroke="#999999" points="500.88,-127.5 440.62,-127.5 440.62,-109 500.88,-109 500.88,-127.5"/>
<text text-anchor="middle" x="470.75" y="-114" font-family="Helvetica,sans-Serif" font-size="10.00">sys/time.h</text>
</a>
</g>
</g>
<!-- Node13&#45;&gt;Node14 -->
<g id="edge13_Node000013_Node000014" class="edge">
<title>Node13&#45;&gt;Node14</title>
<g id="a_edge13_Node000013_Node000014"><a xlink:title=" ">
<path fill="none" stroke="#63b8ff" d="M470.75,-163.08C470.75,-156.58 470.75,-147.42 470.75,-139.16"/>
<polygon fill="#63b8ff" stroke="#63b8ff" points="474.25,-139.27 470.75,-129.27 467.25,-139.27 474.25,-139.27"/>
</a>
</g>
</g>
<!-- Node15&#45;&gt;Node11 -->
<g id="edge20_Node000015_Node000011" class="edge">
<title>Node15&#45;&gt;Node11</title>
<g id="a_edge20_Node000015_Node000011"><a xlink:title=" ">
<path fill="none" stroke="#63b8ff" d="M573.48,-163.08C582.95,-155.44 596.97,-144.11 608.39,-134.88"/>
<polygon fill="#63b8ff" stroke="#63b8ff" points="610.46,-137.72 616.04,-128.71 606.06,-132.27 610.46,-137.72"/>
</a>
</g>
</g>
<!-- Node16 -->
<g id="Node000016" class="node">
<title>Node16</title>
<g id="a_Node000016"><a xlink:href="a01394.html" target="_top" xlink:title=" ">
<polygon fill="white" stroke="#666666" points="584.88,-127.5 524.62,-127.5 524.62,-109 584.88,-109 584.88,-127.5"/>
<text text-anchor="middle" x="554.75" y="-114" font-family="Helvetica,sans-Serif" font-size="10.00">spinlock.h</text>
</a>
</g>
</g>
<!-- Node15&#45;&gt;Node16 -->
<g id="edge16_Node000015_Node000016" class="edge">
<title>Node15&#45;&gt;Node16</title>
<g id="a_edge16_Node000015_Node000016"><a xlink:title=" ">
<path fill="none" stroke="#63b8ff" d="M561.43,-163.08C560.43,-156.51 559.01,-147.21 557.74,-138.87"/>
<polygon fill="#63b8ff" stroke="#63b8ff" points="561.24,-138.61 556.27,-129.25 554.32,-139.67 561.24,-138.61"/>
</a>
</g>
</g>
<!-- Node17 -->
<g id="Node000017" class="node">
<title>Node17</title>
<g id="a_Node000017"><a xlink:title=" ">
<polygon fill="#e0e0e0" stroke="#999999" points="533.5,-73 486,-73 486,-54.5 533.5,-54.5 533.5,-73"/>
<text text-anchor="middle" x="509.75" y="-59.5" font-family="Helvetica,sans-Serif" font-size="10.00">stdint.h</text>
</a>
</g>
</g>
<!-- Node16&#45;&gt;Node17 -->
<g id="edge17_Node000016_Node000017" class="edge">
<title>Node16&#45;&gt;Node17</title>
<g id="a_edge17_Node000016_Node000017"><a xlink:title=" ">
<path fill="none" stroke="#63b8ff" d="M547.32,-108.58C541.09,-101.32 532.02,-90.73 524.35,-81.78"/>
<polygon fill="#63b8ff" stroke="#63b8ff" points="527.19,-79.72 518.03,-74.41 521.88,-84.28 527.19,-79.72"/>
</a>
</g>
</g>
<!-- Node18 -->
<g id="Node000018" class="node">
<title>Node18</title>
<g id="a_Node000018"><a xlink:href="a01373.html" target="_top" xlink:title=" ">
<polygon fill="white" stroke="#666666" points="648.25,-73 551.25,-73 551.25,-54.5 648.25,-54.5 648.25,-73"/>
<text text-anchor="middle" x="599.75" y="-59.5" font-family="Helvetica,sans-Serif" font-size="10.00">utils/arax_assert.h</text>
</a>
</g>
</g>
<!-- Node16&#45;&gt;Node18 -->
<g id="edge18_Node000016_Node000018" class="edge">
<title>Node16&#45;&gt;Node18</title>
<g id="a_edge18_Node000016_Node000018"><a xlink:title=" ">
<path fill="none" stroke="#63b8ff" d="M562.18,-108.58C568.41,-101.32 577.48,-90.73 585.15,-81.78"/>
<polygon fill="#63b8ff" stroke="#63b8ff" points="587.62,-84.28 591.47,-74.41 582.31,-79.72 587.62,-84.28"/>
</a>
</g>
</g>
<!-- Node19 -->
<g id="Node000019" class="node">
<title>Node19</title>
<g id="a_Node000019"><a xlink:href="a01382.html" target="_top" xlink:title=" ">
<polygon fill="white" stroke="#666666" points="627.62,-18.5 571.88,-18.5 571.88,0 627.62,0 627.62,-18.5"/>
<text text-anchor="middle" x="599.75" y="-5" font-family="Helvetica,sans-Serif" font-size="10.00">compat.h</text>
</a>
</g>
</g>
<!-- Node18&#45;&gt;Node19 -->
<g id="edge19_Node000018_Node000019" class="edge">
<title>Node18&#45;&gt;Node19</title>
<g id="a_edge19_Node000018_Node000019"><a xlink:title=" ">
<path fill="none" stroke="#63b8ff" d="M599.75,-54.08C599.75,-47.58 599.75,-38.42 599.75,-30.16"/>
<polygon fill="#63b8ff" stroke="#63b8ff" points="603.25,-30.27 599.75,-20.27 596.25,-30.27 603.25,-30.27"/>
</a>
</g>
</g>
</g>
</svg>
