<?xml version="1.0" encoding="UTF-8" standalone="no"?>
<!DOCTYPE svg PUBLIC "-//W3C//DTD SVG 1.1//EN"
 "http://www.w3.org/Graphics/SVG/1.1/DTD/svg11.dtd">
<!-- Generated by graphviz version 8.0.5 (0)
 -->
<!-- Title: utils_list_node_init Pages: 1 -->
<svg width="1615pt" height="648pt"
 viewBox="0.00 0.00 1615.00 648.25" xmlns="http://www.w3.org/2000/svg" xmlns:xlink="http://www.w3.org/1999/xlink">
<g id="graph0" class="graph" transform="scale(1 1) rotate(0) translate(4 644.25)">
<title>utils_list_node_init</title>
<!-- Node1 -->
<g id="Node000001" class="node">
<title>Node1</title>
<g id="a_Node000001"><a xlink:title=" ">
<polygon fill="#999999" stroke="#666666" points="1607,-549.5 1510.75,-549.5 1510.75,-531 1607,-531 1607,-549.5"/>
<text text-anchor="middle" x="1558.88" y="-536" font-family="Helvetica,sans-Serif" font-size="10.00">utils_list_node_init</text>
</a>
</g>
</g>
<!-- Node2 -->
<g id="Node000002" class="node">
<title>Node2</title>
<g id="a_Node000002"><a xlink:href="a01910.html#a402bbd6fa197c2c48d527325e5e2cf5b" target="_top" xlink:title=" ">
<polygon fill="white" stroke="#666666" points="727.25,-527.5 622.75,-527.5 622.75,-509 727.25,-509 727.25,-527.5"/>
<text text-anchor="middle" x="675" y="-514" font-family="Helvetica,sans-Serif" font-size="10.00">arax_object_register</text>
</a>
</g>
</g>
<!-- Node1&#45;&gt;Node2 -->
<g id="edge1_Node000001_Node000002" class="edge">
<title>Node1&#45;&gt;Node2</title>
<g id="a_edge1_Node000001_Node000002"><a xlink:title=" ">
<path fill="none" stroke="#63b8ff" d="M1521.14,-553.4C1466.92,-571.6 1361.94,-602.25 1269.88,-602.25 1269.88,-602.25 1269.88,-602.25 965.5,-602.25 859.79,-602.25 740.65,-549.95 695.1,-527.89"/>
<polygon fill="#63b8ff" stroke="#63b8ff" points="1521.95,-556.48 1530.29,-549.94 1519.69,-549.85 1521.95,-556.48"/>
</a>
</g>
</g>
<!-- Node17 -->
<g id="Node000017" class="node">
<title>Node17</title>
<g id="a_Node000017"><a xlink:href="a01928.html#a83ddb422946cf774c687c1ab63dcda15" target="_top" xlink:title=" ">
<polygon fill="white" stroke="#666666" points="571.75,-526.5 485.25,-526.5 485.25,-508 571.75,-508 571.75,-526.5"/>
<text text-anchor="middle" x="528.5" y="-513" font-family="Helvetica,sans-Serif" font-size="10.00">arax_vaccel_init</text>
</a>
</g>
</g>
<!-- Node1&#45;&gt;Node17 -->
<g id="edge21_Node000001_Node000017" class="edge">
<title>Node1&#45;&gt;Node17</title>
<g id="a_edge21_Node000001_Node000017"><a xlink:title=" ">
<path fill="none" stroke="#63b8ff" d="M1537.73,-556.67C1521.6,-569.02 1497.93,-585.44 1474.75,-595.25 1388.9,-631.59 1363.1,-640.25 1269.88,-640.25 1269.88,-640.25 1269.88,-640.25 814.88,-640.25 702.84,-640.25 689.42,-577.48 585.25,-536.25 577.07,-533.01 568.1,-529.81 559.78,-526.98"/>
<polygon fill="#63b8ff" stroke="#63b8ff" points="1539.58,-558.88 1545.29,-549.95 1535.26,-553.37 1539.58,-558.88"/>
</a>
</g>
</g>
<!-- Node20 -->
<g id="Node000020" class="node">
<title>Node20</title>
<g id="a_Node000020"><a xlink:href="a02352.html#ac728117d73179c279de49e01ae905dda" target="_top" xlink:title=" ">
<polygon fill="white" stroke="#666666" points="1474.75,-451.5 1362.75,-451.5 1362.75,-433 1474.75,-433 1474.75,-451.5"/>
<text text-anchor="middle" x="1418.75" y="-438" font-family="Helvetica,sans-Serif" font-size="10.00">async_completion_init</text>
</a>
</g>
</g>
<!-- Node1&#45;&gt;Node20 -->
<g id="edge22_Node000001_Node000020" class="edge">
<title>Node1&#45;&gt;Node20</title>
<g id="a_edge22_Node000001_Node000020"><a xlink:title=" ">
<path fill="none" stroke="#63b8ff" d="M1535.77,-524.57C1506.79,-504.01 1456.88,-468.59 1433.1,-451.72"/>
<polygon fill="#63b8ff" stroke="#63b8ff" points="1533.2,-527.74 1543.38,-530.67 1537.25,-522.03 1533.2,-527.74"/>
</a>
</g>
</g>
<!-- Node39 -->
<g id="Node000039" class="node">
<title>Node39</title>
<g id="a_Node000039"><a xlink:href="a01946.html#ab36e49d2e694b1da49504a689ed48e4a" target="_top" xlink:title=" ">
<polygon fill="white" stroke="#666666" points="1453.75,-245.5 1383.75,-245.5 1383.75,-227 1453.75,-227 1453.75,-245.5"/>
<text text-anchor="middle" x="1418.75" y="-232" font-family="Helvetica,sans-Serif" font-size="10.00">utils_list_init</text>
</a>
</g>
</g>
<!-- Node1&#45;&gt;Node39 -->
<g id="edge50_Node000001_Node000039" class="edge">
<title>Node1&#45;&gt;Node39</title>
<g id="a_edge50_Node000001_Node000039"><a xlink:title=" ">
<path fill="none" stroke="#63b8ff" d="M1549.15,-521.04C1522.62,-462.66 1443.59,-288.73 1424.12,-245.87"/>
<polygon fill="#63b8ff" stroke="#63b8ff" points="1546.27,-522.16 1553.59,-529.82 1552.64,-519.27 1546.27,-522.16"/>
</a>
</g>
</g>
<!-- Node3 -->
<g id="Node000003" class="node">
<title>Node3</title>
<g id="a_Node000003"><a xlink:href="a01904.html#a0706a66a62ca8710342ac1c097b703ed" target="_top" xlink:title=" ">
<polygon fill="white" stroke="#666666" points="413.62,-376.5 331.62,-376.5 331.62,-358 413.62,-358 413.62,-376.5"/>
<text text-anchor="middle" x="372.62" y="-363" font-family="Helvetica,sans-Serif" font-size="10.00">arax_accel_init</text>
</a>
</g>
</g>
<!-- Node2&#45;&gt;Node3 -->
<g id="edge2_Node000002_Node000003" class="edge">
<title>Node2&#45;&gt;Node3</title>
<g id="a_edge2_Node000002_Node000003"><a xlink:title=" ">
<path fill="none" stroke="#63b8ff" d="M619.39,-506.15C568.47,-494.28 496.73,-475.89 471.75,-461.25 452.23,-449.81 452.02,-440.97 435.75,-425.25 417.92,-408.02 396.74,-388.43 384.28,-376.99"/>
<polygon fill="#63b8ff" stroke="#63b8ff" points="618.39,-509.74 628.92,-508.58 619.96,-502.92 618.39,-509.74"/>
</a>
</g>
</g>
<!-- Node4 -->
<g id="Node000004" class="node">
<title>Node4</title>
<g id="a_Node000004"><a xlink:href="a01931.html#a526989df37e605824d846b7ba54b43ea" target="_top" xlink:title=" ">
<polygon fill="white" stroke="#666666" points="585.25,-563.5 471.75,-563.5 471.75,-545 585.25,-545 585.25,-563.5"/>
<text text-anchor="middle" x="528.5" y="-550" font-family="Helvetica,sans-Serif" font-size="10.00">arax_data_init_aligned</text>
</a>
</g>
</g>
<!-- Node2&#45;&gt;Node4 -->
<g id="edge3_Node000002_Node000004" class="edge">
<title>Node2&#45;&gt;Node4</title>
<g id="a_edge3_Node000002_Node000004"><a xlink:title=" ">
<path fill="none" stroke="#63b8ff" d="M624.45,-530.6C606.21,-535.14 585.83,-540.22 568.64,-544.5"/>
<polygon fill="#63b8ff" stroke="#63b8ff" points="625.04,-533.81 633.9,-527.99 623.35,-527.01 625.04,-533.81"/>
</a>
</g>
</g>
<!-- Node7 -->
<g id="Node000007" class="node">
<title>Node7</title>
<g id="a_Node000007"><a xlink:href="a01916.html#a86ac572ea8f5f613129192c47d598818" target="_top" xlink:title=" ">
<polygon fill="white" stroke="#666666" points="567.25,-600.5 489.75,-600.5 489.75,-582 567.25,-582 567.25,-600.5"/>
<text text-anchor="middle" x="528.5" y="-587" font-family="Helvetica,sans-Serif" font-size="10.00">arax_proc_init</text>
</a>
</g>
</g>
<!-- Node2&#45;&gt;Node7 -->
<g id="edge6_Node000002_Node000007" class="edge">
<title>Node2&#45;&gt;Node7</title>
<g id="a_edge6_Node000002_Node000007"><a xlink:title=" ">
<path fill="none" stroke="#63b8ff" d="M651.51,-533.83C634.01,-545.47 608.82,-561.22 585.25,-572.25 577.84,-575.72 569.62,-578.87 561.81,-581.57"/>
<polygon fill="#63b8ff" stroke="#63b8ff" points="653.06,-536.33 659.38,-527.83 649.14,-530.53 653.06,-536.33"/>
</a>
</g>
</g>
<!-- Node9 -->
<g id="Node000009" class="node">
<title>Node9</title>
<g id="a_Node000009"><a xlink:href="a01922.html#a27bee94f7a23281c8b2b72ec433f6059" target="_top" xlink:title=" ">
<polygon fill="white" stroke="#666666" points="571,-452.5 486,-452.5 486,-434 571,-434 571,-452.5"/>
<text text-anchor="middle" x="528.5" y="-439" font-family="Helvetica,sans-Serif" font-size="10.00">arax_task_alloc</text>
</a>
</g>
</g>
<!-- Node2&#45;&gt;Node9 -->
<g id="edge8_Node000002_Node000009" class="edge">
<title>Node2&#45;&gt;Node9</title>
<g id="a_edge8_Node000002_Node000009"><a xlink:title=" ">
<path fill="none" stroke="#63b8ff" d="M630.73,-504.29C627.45,-502.74 624.25,-501.06 621.25,-499.25 602.68,-488.02 603.56,-477.9 585.25,-466.25 577.03,-461.02 567.43,-456.56 558.53,-452.99"/>
<polygon fill="#63b8ff" stroke="#63b8ff" points="629.14,-507.84 639.72,-508.53 631.88,-501.4 629.14,-507.84"/>
</a>
</g>
</g>
<!-- Node2&#45;&gt;Node17 -->
<g id="edge17_Node000002_Node000017" class="edge">
<title>Node2&#45;&gt;Node17</title>
<g id="a_edge17_Node000002_Node000017"><a xlink:title=" ">
<path fill="none" stroke="#63b8ff" d="M612,-517.82C598.55,-517.73 584.61,-517.63 572.1,-517.54"/>
<polygon fill="#63b8ff" stroke="#63b8ff" points="611.62,-521.33 621.65,-517.89 611.67,-514.33 611.62,-521.33"/>
</a>
</g>
</g>
<!-- Node5 -->
<g id="Node000005" class="node">
<title>Node5</title>
<g id="a_Node000005"><a xlink:href="a01931.html#aeefe449d4a278e9fc4b9c5f7e31000a1" target="_top" xlink:title=" ">
<polygon fill="white" stroke="#666666" points="411.38,-563.5 333.88,-563.5 333.88,-545 411.38,-545 411.38,-563.5"/>
<text text-anchor="middle" x="372.62" y="-550" font-family="Helvetica,sans-Serif" font-size="10.00">arax_data_init</text>
</a>
</g>
</g>
<!-- Node4&#45;&gt;Node5 -->
<g id="edge4_Node000004_Node000005" class="edge">
<title>Node4&#45;&gt;Node5</title>
<g id="a_edge4_Node000004_Node000005"><a xlink:title=" ">
<path fill="none" stroke="#63b8ff" d="M460.6,-554.25C443.81,-554.25 426.36,-554.25 411.54,-554.25"/>
<polygon fill="#63b8ff" stroke="#63b8ff" points="460.51,-557.75 470.51,-554.25 460.51,-550.75 460.51,-557.75"/>
</a>
</g>
</g>
<!-- Node6 -->
<g id="Node000006" class="node">
<title>Node6</title>
<g id="a_Node000006"><a xlink:href="a02178.html#ga9260ad2dd766aec3274c518e2e312b1f" target="_top" xlink:title=" ">
<polygon fill="white" stroke="#666666" points="252.12,-563.5 162.62,-563.5 162.62,-545 252.12,-545 252.12,-563.5"/>
<text text-anchor="middle" x="207.38" y="-550" font-family="Helvetica,sans-Serif" font-size="10.00">ARAX_BUFFER</text>
</a>
</g>
</g>
<!-- Node5&#45;&gt;Node6 -->
<g id="edge5_Node000005_Node000006" class="edge">
<title>Node5&#45;&gt;Node6</title>
<g id="a_edge5_Node000005_Node000006"><a xlink:title=" ">
<path fill="none" stroke="#63b8ff" d="M322.81,-554.25C300.44,-554.25 274.14,-554.25 252.39,-554.25"/>
<polygon fill="#63b8ff" stroke="#63b8ff" points="322.76,-557.75 332.76,-554.25 322.76,-550.75 322.76,-557.75"/>
</a>
</g>
</g>
<!-- Node8 -->
<g id="Node000008" class="node">
<title>Node8</title>
<g id="a_Node000008"><a xlink:href="a02176.html#gafad2dafb4a231390f02b7c866295b7d9" target="_top" xlink:title=" ">
<polygon fill="white" stroke="#666666" points="421.12,-600.5 324.12,-600.5 324.12,-582 421.12,-582 421.12,-600.5"/>
<text text-anchor="middle" x="372.62" y="-587" font-family="Helvetica,sans-Serif" font-size="10.00">arax_proc_register</text>
</a>
</g>
</g>
<!-- Node7&#45;&gt;Node8 -->
<g id="edge7_Node000007_Node000008" class="edge">
<title>Node7&#45;&gt;Node8</title>
<g id="a_edge7_Node000007_Node000008"><a xlink:title=" ">
<path fill="none" stroke="#63b8ff" d="M478.72,-591.25C460.41,-591.25 439.64,-591.25 421.42,-591.25"/>
<polygon fill="#63b8ff" stroke="#63b8ff" points="478.46,-594.75 488.46,-591.25 478.46,-587.75 478.46,-594.75"/>
</a>
</g>
</g>
<!-- Node10 -->
<g id="Node000010" class="node">
<title>Node10</title>
<g id="a_Node000010"><a xlink:href="a02177.html#gac9f0f3fbb14da879d3ff09bd367bbb24" target="_top" xlink:title=" ">
<polygon fill="white" stroke="#666666" points="416.62,-452.5 328.62,-452.5 328.62,-434 416.62,-434 416.62,-452.5"/>
<text text-anchor="middle" x="372.62" y="-439" font-family="Helvetica,sans-Serif" font-size="10.00">arax_task_issue</text>
</a>
</g>
</g>
<!-- Node9&#45;&gt;Node10 -->
<g id="edge9_Node000009_Node000010" class="edge">
<title>Node9&#45;&gt;Node10</title>
<g id="a_edge9_Node000009_Node000010"><a xlink:title=" ">
<path fill="none" stroke="#63b8ff" d="M475.01,-443.25C456.09,-443.25 434.96,-443.25 416.91,-443.25"/>
<polygon fill="#63b8ff" stroke="#63b8ff" points="474.86,-446.75 484.86,-443.25 474.86,-439.75 474.86,-446.75"/>
</a>
</g>
</g>
<!-- Node11 -->
<g id="Node000011" class="node">
<title>Node11</title>
<g id="a_Node000011"><a xlink:href="a01931.html#af8ede6fc8d207004035f45d945688d2c" target="_top" xlink:title=" ">
<polygon fill="white" stroke="#666666" points="256.62,-378.75 158.12,-378.75 158.12,-349.75 256.62,-349.75 256.62,-378.75"/>
<text text-anchor="start" x="166.12" y="-365.25" font-family="Helvetica,sans-Serif" font-size="10.00">arax_data_allocate</text>
<text text-anchor="middle" x="207.38" y="-354.75" font-family="Helvetica,sans-Serif" font-size="10.00">_remote</text>
</a>
</g>
</g>
<!-- Node10&#45;&gt;Node11 -->
<g id="edge10_Node000010_Node000011" class="edge">
<title>Node10&#45;&gt;Node11</title>
<g id="a_edge10_Node000010_Node000011"><a xlink:title=" ">
<path fill="none" stroke="#63b8ff" d="M328.45,-429.65C321.91,-426.92 315.39,-423.78 309.5,-420.25 291.15,-409.23 291.86,-399.25 273.5,-388.25 267.92,-384.91 261.79,-381.9 255.6,-379.25"/>
<polygon fill="#63b8ff" stroke="#63b8ff" points="327.06,-433.26 337.65,-433.62 329.6,-426.73 327.06,-433.26"/>
</a>
</g>
</g>
<!-- Node12 -->
<g id="Node000012" class="node">
<title>Node12</title>
<g id="a_Node000012"><a xlink:href="a01931.html#a696bc4319d0f6c6baa7d797a8df6b56f" target="_top" xlink:title=" ">
<polygon fill="white" stroke="#666666" points="246.5,-452.5 168.25,-452.5 168.25,-434 246.5,-434 246.5,-452.5"/>
<text text-anchor="middle" x="207.38" y="-439" font-family="Helvetica,sans-Serif" font-size="10.00">arax_data_get</text>
</a>
</g>
</g>
<!-- Node10&#45;&gt;Node12 -->
<g id="edge11_Node000010_Node000012" class="edge">
<title>Node10&#45;&gt;Node12</title>
<g id="a_edge11_Node000010_Node000012"><a xlink:title=" ">
<path fill="none" stroke="#63b8ff" d="M317.6,-443.25C294.46,-443.25 267.98,-443.25 246.88,-443.25"/>
<polygon fill="#63b8ff" stroke="#63b8ff" points="317.31,-446.75 327.31,-443.25 317.31,-439.75 317.31,-446.75"/>
</a>
</g>
</g>
<!-- Node14 -->
<g id="Node000014" class="node">
<title>Node14</title>
<g id="a_Node000014"><a xlink:href="a01931.html#a8995f71dba475975efc37756783cfce9" target="_top" xlink:title=" ">
<polygon fill="white" stroke="#666666" points="246.5,-415.5 168.25,-415.5 168.25,-397 246.5,-397 246.5,-415.5"/>
<text text-anchor="middle" x="207.38" y="-402" font-family="Helvetica,sans-Serif" font-size="10.00">arax_data_set</text>
</a>
</g>
</g>
<!-- Node10&#45;&gt;Node14 -->
<g id="edge13_Node000010_Node000014" class="edge">
<title>Node10&#45;&gt;Node14</title>
<g id="a_edge13_Node000010_Node000014"><a xlink:title=" ">
<path fill="none" stroke="#63b8ff" d="M318.3,-431.16C294.97,-425.88 268.12,-419.79 246.8,-414.96"/>
<polygon fill="#63b8ff" stroke="#63b8ff" points="317.21,-434.73 327.73,-433.53 318.75,-427.9 317.21,-434.73"/>
</a>
</g>
</g>
<!-- Node15 -->
<g id="Node000015" class="node">
<title>Node15</title>
<g id="a_Node000015"><a xlink:href="a01931.html#af735744d0f8bec04394639a841d2ba0f" target="_top" xlink:title=" ">
<polygon fill="white" stroke="#666666" points="273.5,-526.5 141.25,-526.5 141.25,-508 273.5,-508 273.5,-526.5"/>
<text text-anchor="middle" x="207.38" y="-513" font-family="Helvetica,sans-Serif" font-size="10.00">ARAX_OBJ_DTOR_DECL</text>
</a>
</g>
</g>
<!-- Node10&#45;&gt;Node15 -->
<g id="edge15_Node000010_Node000015" class="edge">
<title>Node10&#45;&gt;Node15</title>
<g id="a_edge15_Node000010_Node000015"><a xlink:title=" ">
<path fill="none" stroke="#63b8ff" d="M319.76,-456.95C316.2,-458.54 312.74,-460.3 309.5,-462.25 290.11,-473.9 292.97,-486.72 273.5,-498.25 267.12,-502.03 259.93,-505.1 252.72,-507.58"/>
<polygon fill="#63b8ff" stroke="#63b8ff" points="320.97,-459.83 328.98,-452.89 318.39,-453.33 320.97,-459.83"/>
</a>
</g>
</g>
<!-- Node16 -->
<g id="Node000016" class="node">
<title>Node16</title>
<g id="a_Node000016"><a xlink:href="a02177.html#ga1418f4cd7336bf77cce7b955a1bf7077" target="_top" xlink:title=" ">
<polygon fill="white" stroke="#666666" points="264.12,-489.5 150.62,-489.5 150.62,-471 264.12,-471 264.12,-489.5"/>
<text text-anchor="middle" x="207.38" y="-476" font-family="Helvetica,sans-Serif" font-size="10.00">arax_task_issue_sync</text>
</a>
</g>
</g>
<!-- Node10&#45;&gt;Node16 -->
<g id="edge16_Node000010_Node000016" class="edge">
<title>Node10&#45;&gt;Node16</title>
<g id="a_edge16_Node000010_Node000016"><a xlink:title=" ">
<path fill="none" stroke="#63b8ff" d="M318.04,-455.39C296.38,-460.3 271.71,-465.9 251.26,-470.53"/>
<polygon fill="#63b8ff" stroke="#63b8ff" points="318.75,-458.6 327.73,-452.97 317.21,-451.77 318.75,-458.6"/>
</a>
</g>
</g>
<!-- Node13 -->
<g id="Node000013" class="node">
<title>Node13</title>
<g id="a_Node000013"><a xlink:href="a01931.html#a7d8356bd5c8b6a8d7dffc6ba94cc22e5" target="_top" xlink:title=" ">
<polygon fill="white" stroke="#666666" points="103.75,-433.5 1.5,-433.5 1.5,-415 103.75,-415 103.75,-433.5"/>
<text text-anchor="middle" x="52.62" y="-420" font-family="Helvetica,sans-Serif" font-size="10.00">arax_data_memcpy</text>
</a>
</g>
</g>
<!-- Node12&#45;&gt;Node13 -->
<g id="edge12_Node000012_Node000013" class="edge">
<title>Node12&#45;&gt;Node13</title>
<g id="a_edge12_Node000012_Node000013"><a xlink:title=" ">
<path fill="none" stroke="#63b8ff" d="M157.02,-437.11C140.05,-435 121.05,-432.64 104,-430.52"/>
<polygon fill="#63b8ff" stroke="#63b8ff" points="156.47,-440.69 166.83,-438.46 157.34,-433.75 156.47,-440.69"/>
</a>
</g>
</g>
<!-- Node14&#45;&gt;Node13 -->
<g id="edge14_Node000014_Node000013" class="edge">
<title>Node14&#45;&gt;Node13</title>
<g id="a_edge14_Node000014_Node000013"><a xlink:title=" ">
<path fill="none" stroke="#63b8ff" d="M157.02,-412.07C140.05,-414.07 121.05,-416.3 104,-418.31"/>
<polygon fill="#63b8ff" stroke="#63b8ff" points="157.31,-415.44 166.83,-410.79 156.49,-408.49 157.31,-415.44"/>
</a>
</g>
</g>
<!-- Node17&#45;&gt;Node3 -->
<g id="edge20_Node000017_Node000003" class="edge">
<title>Node17&#45;&gt;Node3</title>
<g id="a_edge20_Node000017_Node000003"><a xlink:title=" ">
<path fill="none" stroke="#63b8ff" d="M483.75,-502.81C479.43,-500.35 475.32,-497.52 471.75,-494.25 446.22,-470.91 456.69,-452.78 435.75,-425.25 421.1,-405.99 399.72,-387.6 386.25,-376.88"/>
<polygon fill="#63b8ff" stroke="#63b8ff" points="481.93,-506.31 492.45,-507.6 485.03,-500.03 481.93,-506.31"/>
</a>
</g>
</g>
<!-- Node18 -->
<g id="Node000018" class="node">
<title>Node18</title>
<g id="a_Node000018"><a xlink:href="a02175.html#gaf8a10ab4e51e59c464ab3ab473e4a0f7" target="_top" xlink:title=" ">
<polygon fill="white" stroke="#666666" points="435.75,-489.5 309.5,-489.5 309.5,-471 435.75,-471 435.75,-489.5"/>
<text text-anchor="middle" x="372.62" y="-476" font-family="Helvetica,sans-Serif" font-size="10.00">arax_accel_acquire_phys</text>
</a>
</g>
</g>
<!-- Node17&#45;&gt;Node18 -->
<g id="edge18_Node000017_Node000018" class="edge">
<title>Node17&#45;&gt;Node18</title>
<g id="a_edge18_Node000017_Node000018"><a xlink:title=" ">
<path fill="none" stroke="#63b8ff" d="M476.44,-504.97C456.15,-500.09 433.15,-494.56 414.05,-489.97"/>
<polygon fill="#63b8ff" stroke="#63b8ff" points="475.53,-508.59 486.07,-507.53 477.17,-501.79 475.53,-508.59"/>
</a>
</g>
</g>
<!-- Node19 -->
<g id="Node000019" class="node">
<title>Node19</title>
<g id="a_Node000019"><a xlink:href="a02175.html#ga008252bb9afc2990fa2c5f4b980c9f27" target="_top" xlink:title=" ">
<polygon fill="white" stroke="#666666" points="435,-526.5 310.25,-526.5 310.25,-508 435,-508 435,-526.5"/>
<text text-anchor="middle" x="372.62" y="-513" font-family="Helvetica,sans-Serif" font-size="10.00">arax_accel_acquire_type</text>
</a>
</g>
</g>
<!-- Node17&#45;&gt;Node19 -->
<g id="edge19_Node000017_Node000019" class="edge">
<title>Node17&#45;&gt;Node19</title>
<g id="a_edge19_Node000017_Node000019"><a xlink:title=" ">
<path fill="none" stroke="#63b8ff" d="M474.27,-517.25C461.68,-517.25 448.16,-517.25 435.24,-517.25"/>
<polygon fill="#63b8ff" stroke="#63b8ff" points="474.05,-520.75 484.05,-517.25 474.05,-513.75 474.05,-520.75"/>
</a>
</g>
</g>
<!-- Node20&#45;&gt;Node9 -->
<g id="edge23_Node000020_Node000009" class="edge">
<title>Node20&#45;&gt;Node9</title>
<g id="a_edge23_Node000020_Node000009"><a xlink:title=" ">
<path fill="none" stroke="#63b8ff" d="M1351.78,-442.32C1178.41,-442.52 713.6,-443.04 571.41,-443.2"/>
<polygon fill="#63b8ff" stroke="#63b8ff" points="1351.53,-445.82 1361.52,-442.31 1351.52,-438.82 1351.53,-445.82"/>
</a>
</g>
</g>
<!-- Node21 -->
<g id="Node000021" class="node">
<title>Node21</title>
<g id="a_Node000021"><a xlink:href="a02352.html#ac7fbf1f43289d3e0e862b315f00e35e2" target="_top" xlink:title=" ">
<polygon fill="white" stroke="#666666" points="1172.38,-339.5 1068.62,-339.5 1068.62,-321 1172.38,-321 1172.38,-339.5"/>
<text text-anchor="middle" x="1120.5" y="-326" font-family="Helvetica,sans-Serif" font-size="10.00">async_condition_init</text>
</a>
</g>
</g>
<!-- Node20&#45;&gt;Node21 -->
<g id="edge24_Node000020_Node000021" class="edge">
<title>Node20&#45;&gt;Node21</title>
<g id="a_edge24_Node000020_Node000021"><a xlink:title=" ">
<path fill="none" stroke="#63b8ff" d="M1393.68,-426.81C1375.76,-415.81 1350.4,-401.24 1326.75,-391.25 1272.31,-368.24 1206.31,-350.28 1164.12,-339.98"/>
<polygon fill="#63b8ff" stroke="#63b8ff" points="1391.48,-430.19 1401.82,-432.51 1395.19,-424.25 1391.48,-430.19"/>
</a>
</g>
</g>
<!-- Node32 -->
<g id="Node000032" class="node">
<title>Node32</title>
<g id="a_Node000032"><a xlink:href="a02352.html#a7ab7c7fe9cb93434dde72a4e464a7e69" target="_top" xlink:title=" ">
<polygon fill="white" stroke="#666666" points="1326.75,-470.5 1211,-470.5 1211,-452 1326.75,-452 1326.75,-470.5"/>
<text text-anchor="middle" x="1268.88" y="-457" font-family="Helvetica,sans-Serif" font-size="10.00">async_semaphore_dec</text>
</a>
</g>
</g>
<!-- Node20&#45;&gt;Node32 -->
<g id="edge40_Node000020_Node000032" class="edge">
<title>Node20&#45;&gt;Node32</title>
<g id="a_edge40_Node000020_Node000032"><a xlink:title=" ">
<path fill="none" stroke="#63b8ff" d="M1351.36,-450.78C1343.28,-451.82 1335.08,-452.87 1327.15,-453.89"/>
<polygon fill="#63b8ff" stroke="#63b8ff" points="1351.79,-454.12 1361.27,-449.38 1350.9,-447.18 1351.79,-454.12"/>
</a>
</g>
</g>
<!-- Node21&#45;&gt;Node3 -->
<g id="edge25_Node000021_Node000003" class="edge">
<title>Node21&#45;&gt;Node3</title>
<g id="a_edge25_Node000021_Node000003"><a xlink:title=" ">
<path fill="none" stroke="#63b8ff" d="M1065.84,-342.04C1054.07,-344.34 1041.65,-346.56 1030,-348.25 935.88,-361.87 911.97,-367.25 816.88,-367.25 816.88,-367.25 816.88,-367.25 674,-367.25 580.92,-367.25 471.6,-367.25 413.95,-367.25"/>
<polygon fill="#63b8ff" stroke="#63b8ff" points="1066.31,-345.31 1075.42,-339.91 1064.93,-338.45 1066.31,-345.31"/>
</a>
</g>
</g>
<!-- Node22 -->
<g id="Node000022" class="node">
<title>Node22</title>
<g id="a_Node000022"><a xlink:href="a01913.html#aa6293e9ec7776aa49ecf632fcc4f5e26" target="_top" xlink:title=" ">
<polygon fill="white" stroke="#666666" points="854.25,-264.5 777.5,-264.5 777.5,-246 854.25,-246 854.25,-264.5"/>
<text text-anchor="middle" x="815.88" y="-251" font-family="Helvetica,sans-Serif" font-size="10.00">arax_pipe_init</text>
</a>
</g>
</g>
<!-- Node21&#45;&gt;Node22 -->
<g id="edge26_Node000021_Node000022" class="edge">
<title>Node21&#45;&gt;Node22</title>
<g id="a_edge26_Node000021_Node000022"><a xlink:title=" ">
<path fill="none" stroke="#63b8ff" d="M1069.83,-317.94C1009.48,-302.98 909.02,-278.09 854.63,-264.61"/>
<polygon fill="#63b8ff" stroke="#63b8ff" points="1068.7,-321.51 1079.25,-320.52 1070.38,-314.72 1068.7,-321.51"/>
</a>
</g>
</g>
<!-- Node31 -->
<g id="Node000031" class="node">
<title>Node31</title>
<g id="a_Node000031"><a xlink:href="a01925.html#acf84ea82594c4dbe91cf602ee078e04d" target="_top" xlink:title=" ">
<polygon fill="white" stroke="#666666" points="1010.88,-339.5 922.12,-339.5 922.12,-321 1010.88,-321 1010.88,-339.5"/>
<text text-anchor="middle" x="966.5" y="-326" font-family="Helvetica,sans-Serif" font-size="10.00">arax_throttle_init</text>
</a>
</g>
</g>
<!-- Node21&#45;&gt;Node31 -->
<g id="edge37_Node000021_Node000031" class="edge">
<title>Node21&#45;&gt;Node31</title>
<g id="a_edge37_Node000021_Node000031"><a xlink:title=" ">
<path fill="none" stroke="#63b8ff" d="M1057.78,-330.25C1042.11,-330.25 1025.59,-330.25 1011.04,-330.25"/>
<polygon fill="#63b8ff" stroke="#63b8ff" points="1057.46,-333.75 1067.46,-330.25 1057.46,-326.75 1057.46,-333.75"/>
</a>
</g>
</g>
<!-- Node23 -->
<g id="Node000023" class="node">
<title>Node23</title>
<g id="a_Node000023"><a xlink:href="a01898.html#a02fd608f651d254148dc74f0ae371dfe" target="_top" xlink:title=" ">
<polygon fill="white" stroke="#666666" points="704.38,-264.5 645.62,-264.5 645.62,-246 704.38,-246 704.38,-264.5"/>
<text text-anchor="middle" x="675" y="-251" font-family="Helvetica,sans-Serif" font-size="10.00">_arax_init</text>
</a>
</g>
</g>
<!-- Node22&#45;&gt;Node23 -->
<g id="edge27_Node000022_Node000023" class="edge">
<title>Node22&#45;&gt;Node23</title>
<g id="a_edge27_Node000022_Node000023"><a xlink:title=" ">
<path fill="none" stroke="#63b8ff" d="M766.51,-255.25C745.92,-255.25 722.61,-255.25 704.8,-255.25"/>
<polygon fill="#63b8ff" stroke="#63b8ff" points="766.29,-258.75 776.29,-255.25 766.29,-251.75 766.29,-258.75"/>
</a>
</g>
</g>
<!-- Node24 -->
<g id="Node000024" class="node">
<title>Node24</title>
<g id="a_Node000024"><a xlink:href="a01898.html#aa6e4832b06bd5757be4502d2de7b3026" target="_top" xlink:title=" ">
<polygon fill="white" stroke="#666666" points="577.75,-269.75 479.25,-269.75 479.25,-240.75 577.75,-240.75 577.75,-269.75"/>
<text text-anchor="start" x="487.25" y="-256.25" font-family="Helvetica,sans-Serif" font-size="10.00">arax_controller_init</text>
<text text-anchor="middle" x="528.5" y="-245.75" font-family="Helvetica,sans-Serif" font-size="10.00">_start</text>
</a>
</g>
</g>
<!-- Node23&#45;&gt;Node24 -->
<g id="edge28_Node000023_Node000024" class="edge">
<title>Node23&#45;&gt;Node24</title>
<g id="a_edge28_Node000023_Node000024"><a xlink:title=" ">
<path fill="none" stroke="#63b8ff" d="M634.54,-255.25C617.15,-255.25 596.54,-255.25 578.2,-255.25"/>
<polygon fill="#63b8ff" stroke="#63b8ff" points="634.45,-258.75 644.45,-255.25 634.45,-251.75 634.45,-258.75"/>
</a>
</g>
</g>
<!-- Node25 -->
<g id="Node000025" class="node">
<title>Node25</title>
<g id="a_Node000025"><a xlink:href="a02174.html#gae1d371a2840849690acce147e7a205da" target="_top" xlink:title=" ">
<polygon fill="white" stroke="#666666" points="555.25,-113.5 501.75,-113.5 501.75,-95 555.25,-95 555.25,-113.5"/>
<text text-anchor="middle" x="528.5" y="-100" font-family="Helvetica,sans-Serif" font-size="10.00">arax_init</text>
</a>
</g>
</g>
<!-- Node23&#45;&gt;Node25 -->
<g id="edge29_Node000023_Node000025" class="edge">
<title>Node23&#45;&gt;Node25</title>
<g id="a_edge29_Node000023_Node000025"><a xlink:title=" ">
<path fill="none" stroke="#63b8ff" d="M657.65,-238.16C627.11,-206.25 562.35,-138.58 538.54,-113.69"/>
<polygon fill="#63b8ff" stroke="#63b8ff" points="654.52,-240 663.96,-244.8 659.58,-235.16 654.52,-240"/>
</a>
</g>
</g>
<!-- Node26 -->
<g id="Node000026" class="node">
<title>Node26</title>
<g id="a_Node000026"><a xlink:href="a01940.html#a8a99bcb12e2ee55d68a029bfca9b6d51" target="_top" xlink:title=" ">
<polygon fill="white" stroke="#666666" points="254.38,-140.75 160.38,-140.75 160.38,-111.75 254.38,-111.75 254.38,-140.75"/>
<text text-anchor="start" x="168.38" y="-127.25" font-family="Helvetica,sans-Serif" font-size="10.00">arax_plot_register</text>
<text text-anchor="middle" x="207.38" y="-116.75" font-family="Helvetica,sans-Serif" font-size="10.00">_metric</text>
</a>
</g>
</g>
<!-- Node25&#45;&gt;Node26 -->
<g id="edge30_Node000025_Node000026" class="edge">
<title>Node25&#45;&gt;Node26</title>
<g id="a_edge30_Node000025_Node000026"><a xlink:title=" ">
<path fill="none" stroke="#63b8ff" d="M490.46,-106.8C431.98,-110.83 318.4,-118.67 254.65,-123.06"/>
<polygon fill="#63b8ff" stroke="#63b8ff" points="490.65,-110.23 500.38,-106.05 490.17,-103.25 490.65,-110.23"/>
</a>
</g>
</g>
<!-- Node27 -->
<g id="Node000027" class="node">
<title>Node27</title>
<g id="a_Node000027"><a xlink:href="a01919.html#a80ab3bf4a8af9bb101b5a53248609771" target="_top" xlink:title=" ">
<polygon fill="white" stroke="#666666" points="411,-92.5 334.25,-92.5 334.25,-74 411,-74 411,-92.5"/>
<text text-anchor="middle" x="372.62" y="-79" font-family="Helvetica,sans-Serif" font-size="10.00">arax_ptr_valid</text>
</a>
</g>
</g>
<!-- Node25&#45;&gt;Node27 -->
<g id="edge31_Node000025_Node000027" class="edge">
<title>Node25&#45;&gt;Node27</title>
<g id="a_edge31_Node000025_Node000027"><a xlink:title=" ">
<path fill="none" stroke="#63b8ff" d="M490.62,-99.22C466.67,-95.95 435.54,-91.7 411.41,-88.41"/>
<polygon fill="#63b8ff" stroke="#63b8ff" points="490.02,-102.8 500.4,-100.69 490.96,-95.87 490.02,-102.8"/>
</a>
</g>
</g>
<!-- Node27&#45;&gt;Node26 -->
<g id="edge36_Node000027_Node000026" class="edge">
<title>Node27&#45;&gt;Node26</title>
<g id="a_edge36_Node000027_Node000026"><a xlink:title=" ">
<path fill="none" stroke="#63b8ff" d="M324.59,-95.64C302.68,-101.41 276.68,-108.26 254.84,-114.01"/>
<polygon fill="#63b8ff" stroke="#63b8ff" points="325.21,-98.83 333.99,-92.9 323.43,-92.06 325.21,-98.83"/>
</a>
</g>
</g>
<!-- Node28 -->
<g id="Node000028" class="node">
<title>Node28</title>
<g id="a_Node000028"><a xlink:href="a01937.html#a4ee1fea325d2edd421f59ab240dfbe54" target="_top" xlink:title=" ">
<polygon fill="white" stroke="#666666" points="253.25,-55.5 161.5,-55.5 161.5,-37 253.25,-37 253.25,-55.5"/>
<text text-anchor="middle" x="207.38" y="-42" font-family="Helvetica,sans-Serif" font-size="10.00">_arax_assert_obj</text>
</a>
</g>
</g>
<!-- Node27&#45;&gt;Node28 -->
<g id="edge32_Node000027_Node000028" class="edge">
<title>Node27&#45;&gt;Node28</title>
<g id="a_edge32_Node000027_Node000028"><a xlink:title=" ">
<path fill="none" stroke="#63b8ff" d="M323.25,-72.29C300.39,-67.1 273.33,-60.97 251.21,-55.96"/>
<polygon fill="#63b8ff" stroke="#63b8ff" points="322.24,-75.87 332.76,-74.67 323.78,-69.04 322.24,-75.87"/>
</a>
</g>
</g>
<!-- Node29 -->
<g id="Node000029" class="node">
<title>Node29</title>
<g id="a_Node000029"><a xlink:href="a01931.html#afeaab7d93372f0752d59c70d9c5940e7" target="_top" xlink:title=" ">
<polygon fill="white" stroke="#666666" points="245.38,-18.5 169.38,-18.5 169.38,0 245.38,0 245.38,-18.5"/>
<text text-anchor="middle" x="207.38" y="-5" font-family="Helvetica,sans-Serif" font-size="10.00">arax_data_ref</text>
</a>
</g>
</g>
<!-- Node27&#45;&gt;Node29 -->
<g id="edge33_Node000027_Node000029" class="edge">
<title>Node27&#45;&gt;Node29</title>
<g id="a_edge33_Node000027_Node000029"><a xlink:title=" ">
<path fill="none" stroke="#63b8ff" d="M347.59,-67.74C328.19,-55.73 299.88,-39.32 273.5,-28.25 264.7,-24.56 254.95,-21.3 245.73,-18.57"/>
<polygon fill="#63b8ff" stroke="#63b8ff" points="345.54,-71.21 355.87,-73.57 349.26,-65.29 345.54,-71.21"/>
</a>
</g>
</g>
<!-- Node30 -->
<g id="Node000030" class="node">
<title>Node30</title>
<g id="a_Node000030"><a xlink:href="a01931.html#ac1f7fb20b3a23b388bea24f1b46a33a8" target="_top" xlink:title=" ">
<polygon fill="white" stroke="#666666" points="105.25,-55.5 0,-55.5 0,-37 105.25,-37 105.25,-55.5"/>
<text text-anchor="middle" x="52.62" y="-42" font-family="Helvetica,sans-Serif" font-size="10.00">arax_data_ref_offset</text>
</a>
</g>
</g>
<!-- Node27&#45;&gt;Node30 -->
<g id="edge35_Node000027_Node000030" class="edge">
<title>Node27&#45;&gt;Node30</title>
<g id="a_edge35_Node000027_Node000030"><a xlink:title=" ">
<path fill="none" stroke="#63b8ff" d="M323.24,-80.96C276.49,-78.34 203.77,-73.22 141.25,-64.25 126.34,-62.11 110.15,-59.01 95.79,-55.98"/>
<polygon fill="#63b8ff" stroke="#63b8ff" points="322.79,-84.49 332.96,-81.54 323.16,-77.5 322.79,-84.49"/>
</a>
</g>
</g>
<!-- Node29&#45;&gt;Node30 -->
<g id="edge34_Node000029_Node000030" class="edge">
<title>Node29&#45;&gt;Node30</title>
<g id="a_edge34_Node000029_Node000030"><a xlink:title=" ">
<path fill="none" stroke="#63b8ff" d="M158.48,-20.85C137.7,-25.88 113.64,-31.71 93.82,-36.51"/>
<polygon fill="#63b8ff" stroke="#63b8ff" points="159.11,-24.06 168.01,-18.3 157.47,-17.25 159.11,-24.06"/>
</a>
</g>
</g>
<!-- Node31&#45;&gt;Node3 -->
<g id="edge38_Node000031_Node000003" class="edge">
<title>Node31&#45;&gt;Node3</title>
<g id="a_edge38_Node000031_Node000003"><a xlink:title=" ">
<path fill="none" stroke="#63b8ff" d="M910.92,-331.1C819.77,-332.89 630.85,-338.23 471.75,-353.25 452.73,-355.05 431.76,-357.92 414.1,-360.59"/>
<polygon fill="#63b8ff" stroke="#63b8ff" points="910.88,-334.58 920.81,-330.89 910.75,-327.58 910.88,-334.58"/>
</a>
</g>
</g>
<!-- Node31&#45;&gt;Node22 -->
<g id="edge39_Node000031_Node000022" class="edge">
<title>Node31&#45;&gt;Node22</title>
<g id="a_edge39_Node000031_Node000022"><a xlink:title=" ">
<path fill="none" stroke="#63b8ff" d="M925.37,-316.77C917.83,-313.88 910.09,-310.66 903,-307.25 876.55,-294.54 847.73,-276.12 831.03,-264.95"/>
<polygon fill="#63b8ff" stroke="#63b8ff" points="923.86,-320.32 934.45,-320.5 926.29,-313.75 923.86,-320.32"/>
</a>
</g>
</g>
<!-- Node33 -->
<g id="Node000033" class="node">
<title>Node33</title>
<g id="a_Node000033"><a xlink:href="a02352.html#a1bfeaeb9b81855e640d7a67cc9d92b17" target="_top" xlink:title=" ">
<polygon fill="white" stroke="#666666" points="1174.62,-489.5 1066.38,-489.5 1066.38,-471 1174.62,-471 1174.62,-489.5"/>
<text text-anchor="middle" x="1120.5" y="-476" font-family="Helvetica,sans-Serif" font-size="10.00">async_condition_wait</text>
</a>
</g>
</g>
<!-- Node32&#45;&gt;Node33 -->
<g id="edge41_Node000032_Node000033" class="edge">
<title>Node32&#45;&gt;Node33</title>
<g id="a_edge41_Node000032_Node000033"><a xlink:title=" ">
<path fill="none" stroke="#63b8ff" d="M1200.16,-470.04C1191.64,-471.15 1183.02,-472.26 1174.77,-473.34"/>
<polygon fill="#63b8ff" stroke="#63b8ff" points="1200.4,-473.41 1209.86,-468.65 1199.5,-466.47 1200.4,-473.41"/>
</a>
</g>
</g>
<!-- Node33&#45;&gt;Node23 -->
<g id="edge42_Node000033_Node000023" class="edge">
<title>Node33&#45;&gt;Node23</title>
<g id="a_edge42_Node000033_Node000023"><a xlink:title=" ">
<path fill="none" stroke="#63b8ff" d="M1090.82,-465.7C1007.14,-423.25 764.74,-300.27 694.99,-264.88"/>
<polygon fill="#63b8ff" stroke="#63b8ff" points="1088.94,-469.18 1099.44,-470.58 1092.11,-462.94 1088.94,-469.18"/>
</a>
</g>
</g>
<!-- Node34 -->
<g id="Node000034" class="node">
<title>Node34</title>
<g id="a_Node000034"><a xlink:href="a01904.html#a415e79d6e82e45f24bcd1742c146a0da" target="_top" xlink:title=" ">
<polygon fill="white" stroke="#666666" points="1030,-489.5 903,-489.5 903,-471 1030,-471 1030,-489.5"/>
<text text-anchor="middle" x="966.5" y="-476" font-family="Helvetica,sans-Serif" font-size="10.00">arax_accel_wait_for_task</text>
</a>
</g>
</g>
<!-- Node33&#45;&gt;Node34 -->
<g id="edge43_Node000033_Node000034" class="edge">
<title>Node33&#45;&gt;Node34</title>
<g id="a_edge43_Node000033_Node000034"><a xlink:title=" ">
<path fill="none" stroke="#63b8ff" d="M1054.99,-480.25C1046.87,-480.25 1038.58,-480.25 1030.49,-480.25"/>
<polygon fill="#63b8ff" stroke="#63b8ff" points="1054.91,-483.75 1064.91,-480.25 1054.91,-476.75 1054.91,-483.75"/>
</a>
</g>
</g>
<!-- Node35 -->
<g id="Node000035" class="node">
<title>Node35</title>
<g id="a_Node000035"><a xlink:href="a01913.html#a8ff14a859f9b7a34676c2fcdb762386b" target="_top" xlink:title=" ">
<polygon fill="white" stroke="#666666" points="1022.88,-573.75 910.12,-573.75 910.12,-544.75 1022.88,-544.75 1022.88,-573.75"/>
<text text-anchor="start" x="918.12" y="-560.25" font-family="Helvetica,sans-Serif" font-size="10.00">arax_pipe_get_orphan</text>
<text text-anchor="middle" x="966.5" y="-549.75" font-family="Helvetica,sans-Serif" font-size="10.00">_vaccel</text>
</a>
</g>
</g>
<!-- Node33&#45;&gt;Node35 -->
<g id="edge44_Node000033_Node000035" class="edge">
<title>Node33&#45;&gt;Node35</title>
<g id="a_edge44_Node000033_Node000035"><a xlink:title=" ">
<path fill="none" stroke="#63b8ff" d="M1096.72,-495.87C1079.02,-507.61 1053.59,-523.6 1030,-535.25 1023.54,-538.44 1016.54,-541.5 1009.65,-544.29"/>
<polygon fill="#63b8ff" stroke="#63b8ff" points="1098.35,-498.33 1104.7,-489.85 1094.45,-492.51 1098.35,-498.33"/>
</a>
</g>
</g>
<!-- Node36 -->
<g id="Node000036" class="node">
<title>Node36</title>
<g id="a_Node000036"><a xlink:href="a01925.html#a8413a3584787f9b629e54b2ef9439f06" target="_top" xlink:title=" ">
<polygon fill="white" stroke="#666666" points="1023.62,-526.5 909.38,-526.5 909.38,-508 1023.62,-508 1023.62,-526.5"/>
<text text-anchor="middle" x="966.5" y="-513" font-family="Helvetica,sans-Serif" font-size="10.00">arax_throttle_size_dec</text>
</a>
</g>
</g>
<!-- Node33&#45;&gt;Node36 -->
<g id="edge45_Node000033_Node000036" class="edge">
<title>Node33&#45;&gt;Node36</title>
<g id="a_edge45_Node000033_Node000036"><a xlink:title=" ">
<path fill="none" stroke="#63b8ff" d="M1069.06,-492.53C1049.02,-497.41 1026.3,-502.94 1007.43,-507.53"/>
<polygon fill="#63b8ff" stroke="#63b8ff" points="1069.68,-495.74 1078.56,-489.97 1068.02,-488.94 1069.68,-495.74"/>
</a>
</g>
</g>
<!-- Node37 -->
<g id="Node000037" class="node">
<title>Node37</title>
<g id="a_Node000037"><a xlink:href="a01904.html#a503b6bc6d5be49fd8715f62c7174c28e" target="_top" xlink:title=" ">
<polygon fill="white" stroke="#666666" points="728.75,-490.5 621.25,-490.5 621.25,-472 728.75,-472 728.75,-490.5"/>
<text text-anchor="middle" x="675" y="-477" font-family="Helvetica,sans-Serif" font-size="10.00">arax_accel_size_dec</text>
</a>
</g>
</g>
<!-- Node36&#45;&gt;Node37 -->
<g id="edge46_Node000036_Node000037" class="edge">
<title>Node36&#45;&gt;Node37</title>
<g id="a_edge46_Node000036_Node000037"><a xlink:title=" ">
<path fill="none" stroke="#63b8ff" d="M902.54,-505.69C890.76,-503.73 878.52,-501.81 867,-500.25 820.61,-493.95 767.61,-488.84 729.22,-485.51"/>
<polygon fill="#63b8ff" stroke="#63b8ff" points="901.77,-509.28 912.21,-507.51 902.94,-502.38 901.77,-509.28"/>
</a>
</g>
</g>
<!-- Node38 -->
<g id="Node000038" class="node">
<title>Node38</title>
<g id="a_Node000038"><a xlink:href="a01913.html#a1cfa2c90268c6e53ce376beb7cce153c" target="_top" xlink:title=" ">
<polygon fill="white" stroke="#666666" points="867,-527.5 764.75,-527.5 764.75,-509 867,-509 867,-527.5"/>
<text text-anchor="middle" x="815.88" y="-514" font-family="Helvetica,sans-Serif" font-size="10.00">arax_pipe_size_dec</text>
</a>
</g>
</g>
<!-- Node36&#45;&gt;Node38 -->
<g id="edge48_Node000036_Node000038" class="edge">
<title>Node36&#45;&gt;Node38</title>
<g id="a_edge48_Node000036_Node000038"><a xlink:title=" ">
<path fill="none" stroke="#63b8ff" d="M897.89,-517.7C887.67,-517.77 877.27,-517.84 867.49,-517.91"/>
<polygon fill="#63b8ff" stroke="#63b8ff" points="897.91,-521.2 907.89,-517.63 897.86,-514.2 897.91,-521.2"/>
</a>
</g>
</g>
<!-- Node37&#45;&gt;Node11 -->
<g id="edge47_Node000037_Node000011" class="edge">
<title>Node37&#45;&gt;Node11</title>
<g id="a_edge47_Node000037_Node000011"><a xlink:title=" ">
<path fill="none" stroke="#63b8ff" d="M653.62,-464.87C636.43,-451.96 610.63,-434.62 585.25,-425.25 469.07,-382.38 431.46,-406.74 309.5,-385.25 292.37,-382.23 273.7,-378.49 257.12,-375"/>
<polygon fill="#63b8ff" stroke="#63b8ff" points="651.17,-468.18 661.23,-471.51 655.45,-462.63 651.17,-468.18"/>
</a>
</g>
</g>
<!-- Node38&#45;&gt;Node2 -->
<g id="edge49_Node000038_Node000002" class="edge">
<title>Node38&#45;&gt;Node2</title>
<g id="a_edge49_Node000038_Node000002"><a xlink:title=" ">
<path fill="none" stroke="#63b8ff" d="M753.54,-518.25C744.9,-518.25 736.09,-518.25 727.66,-518.25"/>
<polygon fill="#63b8ff" stroke="#63b8ff" points="753.35,-521.75 763.35,-518.25 753.35,-514.75 753.35,-521.75"/>
</a>
</g>
</g>
<!-- Node39&#45;&gt;Node3 -->
<g id="edge51_Node000039_Node000003" class="edge">
<title>Node39&#45;&gt;Node3</title>
<g id="a_edge51_Node000039_Node000003"><a xlink:title=" ">
<path fill="none" stroke="#63b8ff" d="M1394.17,-220.83C1376.3,-209.77 1350.81,-195.28 1326.75,-186.25 1239.32,-153.43 1214.89,-141.25 1121.5,-141.25 1121.5,-141.25 1121.5,-141.25 674,-141.25 575.61,-141.25 548.11,-169.21 471.75,-231.25 425.42,-268.88 390.37,-333.45 378.24,-357.69"/>
<polygon fill="#63b8ff" stroke="#63b8ff" points="1391.92,-224.18 1402.25,-226.56 1395.66,-218.26 1391.92,-224.18"/>
</a>
</g>
</g>
<!-- Node39&#45;&gt;Node22 -->
<g id="edge54_Node000039_Node000022" class="edge">
<title>Node39&#45;&gt;Node22</title>
<g id="a_edge54_Node000039_Node000022"><a xlink:title=" ">
<path fill="none" stroke="#63b8ff" d="M1389.58,-221.91C1372.02,-213.78 1348.65,-204.43 1326.75,-200.25 1147.46,-166.07 928.36,-221.9 848.17,-245.5"/>
<polygon fill="#63b8ff" stroke="#63b8ff" points="1387.67,-225.35 1398.2,-226.5 1390.69,-219.04 1387.67,-225.35"/>
</a>
</g>
</g>
<!-- Node40 -->
<g id="Node000040" class="node">
<title>Node40</title>
<g id="a_Node000040"><a xlink:href="a01910.html#a86352ba91ba482c6688b7364d10bf956" target="_top" xlink:title=" ">
<polygon fill="white" stroke="#666666" points="1175,-264.5 1066,-264.5 1066,-246 1175,-246 1175,-264.5"/>
<text text-anchor="middle" x="1120.5" y="-251" font-family="Helvetica,sans-Serif" font-size="10.00">arax_object_repo_init</text>
</a>
</g>
</g>
<!-- Node39&#45;&gt;Node40 -->
<g id="edge52_Node000039_Node000040" class="edge">
<title>Node39&#45;&gt;Node40</title>
<g id="a_edge52_Node000039_Node000040"><a xlink:title=" ">
<path fill="none" stroke="#63b8ff" d="M1372.74,-239.14C1319.81,-242.53 1232.02,-248.16 1175.49,-251.79"/>
<polygon fill="#63b8ff" stroke="#63b8ff" points="1372.72,-242.58 1382.48,-238.45 1372.27,-235.6 1372.72,-242.58"/>
</a>
</g>
</g>
<!-- Node41 -->
<g id="Node000041" class="node">
<title>Node41</title>
<g id="a_Node000041"><a xlink:href="a02352.html#ab2e422aab2fcfa562795beb2843e8019" target="_top" xlink:title=" ">
<polygon fill="white" stroke="#666666" points="1325.25,-227.5 1212.5,-227.5 1212.5,-209 1325.25,-209 1325.25,-227.5"/>
<text text-anchor="middle" x="1268.88" y="-214" font-family="Helvetica,sans-Serif" font-size="10.00">async_meta_init_once</text>
</a>
</g>
</g>
<!-- Node39&#45;&gt;Node41 -->
<g id="edge55_Node000039_Node000041" class="edge">
<title>Node39&#45;&gt;Node41</title>
<g id="a_edge55_Node000039_Node000041"><a xlink:title=" ">
<path fill="none" stroke="#63b8ff" d="M1372.55,-230.75C1357.77,-228.95 1341.17,-226.93 1325.7,-225.05"/>
<polygon fill="#63b8ff" stroke="#63b8ff" points="1372.1,-234.34 1382.45,-232.08 1372.95,-227.39 1372.1,-234.34"/>
</a>
</g>
</g>
<!-- Node42 -->
<g id="Node000042" class="node">
<title>Node42</title>
<g id="a_Node000042"><a xlink:href="a02352.html#a2a7d01fc7720e936a430efc09d094c6c" target="_top" xlink:title=" ">
<polygon fill="white" stroke="#666666" points="1325.25,-320.5 1212.5,-320.5 1212.5,-302 1325.25,-302 1325.25,-320.5"/>
<text text-anchor="middle" x="1268.88" y="-307" font-family="Helvetica,sans-Serif" font-size="10.00">async_semaphore_init</text>
</a>
</g>
</g>
<!-- Node39&#45;&gt;Node42 -->
<g id="edge57_Node000039_Node000042" class="edge">
<title>Node39&#45;&gt;Node42</title>
<g id="a_edge57_Node000039_Node000042"><a xlink:title=" ">
<path fill="none" stroke="#63b8ff" d="M1388.97,-250.85C1359.39,-265.85 1314.19,-288.77 1288.83,-301.64"/>
<polygon fill="#63b8ff" stroke="#63b8ff" points="1390.39,-253.55 1397.72,-245.9 1387.22,-247.3 1390.39,-253.55"/>
</a>
</g>
</g>
<!-- Node40&#45;&gt;Node22 -->
<g id="edge53_Node000040_Node000022" class="edge">
<title>Node40&#45;&gt;Node22</title>
<g id="a_edge53_Node000040_Node000022"><a xlink:title=" ">
<path fill="none" stroke="#63b8ff" d="M1055.08,-255.25C994.04,-255.25 904.48,-255.25 854.37,-255.25"/>
<polygon fill="#63b8ff" stroke="#63b8ff" points="1054.75,-258.75 1064.75,-255.25 1054.75,-251.75 1054.75,-258.75"/>
</a>
</g>
</g>
<!-- Node41&#45;&gt;Node22 -->
<g id="edge56_Node000041_Node000022" class="edge">
<title>Node41&#45;&gt;Node22</title>
<g id="a_edge56_Node000041_Node000022"><a xlink:title=" ">
<path fill="none" stroke="#63b8ff" d="M1201.38,-223.71C1105.32,-231.59 930.92,-245.89 854.48,-252.17"/>
<polygon fill="#63b8ff" stroke="#63b8ff" points="1201.44,-227.13 1211.12,-222.82 1200.87,-220.15 1201.44,-227.13"/>
</a>
</g>
</g>
<!-- Node42&#45;&gt;Node21 -->
<g id="edge58_Node000042_Node000021" class="edge">
<title>Node42&#45;&gt;Node21</title>
<g id="a_edge58_Node000042_Node000021"><a xlink:title=" ">
<path fill="none" stroke="#63b8ff" d="M1201.38,-319.88C1191.77,-321.13 1182.02,-322.39 1172.77,-323.59"/>
<polygon fill="#63b8ff" stroke="#63b8ff" points="1201.65,-323.25 1211.12,-318.49 1200.75,-316.3 1201.65,-323.25"/>
</a>
</g>
</g>
</g>
</svg>
