<?xml version="1.0" encoding="UTF-8" standalone="no"?>
<!DOCTYPE svg PUBLIC "-//W3C//DTD SVG 1.1//EN"
 "http://www.w3.org/Graphics/SVG/1.1/DTD/svg11.dtd">
<!-- Generated by graphviz version 12.2.1 (0)
 -->
<!-- Title: ialloc Pages: 1 -->
<svg width="203pt" height="64pt"
 viewBox="0.00 0.00 202.75 63.50" xmlns="http://www.w3.org/2000/svg" xmlns:xlink="http://www.w3.org/1999/xlink">
<g id="graph0" class="graph" transform="scale(1 1) rotate(0) translate(4 59.5)">
<title>ialloc</title>
<!-- Node1 -->
<g id="Node000001" class="node">
<title>Node1</title>
<g id="a_Node000001"><a xlink:title=" ">
<polygon fill="#999999" stroke="#666666" points="194.75,-36.5 156.25,-36.5 156.25,-18 194.75,-18 194.75,-36.5"/>
<text text-anchor="middle" x="175.5" y="-23" font-family="Helvetica,sans-Serif" font-size="10.00">ialloc</text>
</a>
</g>
</g>
<!-- Node2 -->
<g id="Node000002" class="node">
<title>Node2</title>
<g id="a_Node000002"><a xlink:href="a01901.html#a5c6367328ed688a118d756151de3455d" target="_top" xlink:title=" ">
<polygon fill="white" stroke="#666666" points="113.5,-55.5 6.75,-55.5 6.75,-37 113.5,-37 113.5,-55.5"/>
<text text-anchor="middle" x="60.12" y="-42" font-family="Helvetica,sans-Serif" font-size="10.00">dlindependent_calloc</text>
</a>
</g>
</g>
<!-- Node1&#45;&gt;Node2 -->
<g id="edge1_Node000001_Node000002" class="edge">
<title>Node1&#45;&gt;Node2</title>
<g id="a_edge1_Node000001_Node000002"><a xlink:title=" ">
<path fill="none" stroke="#63b8ff" d="M144.55,-32.27C135.05,-33.86 124.25,-35.67 113.64,-37.45"/>
<polygon fill="#63b8ff" stroke="#63b8ff" points="145,-35.74 154.29,-30.64 143.84,-28.84 145,-35.74"/>
</a>
</g>
</g>
<!-- Node3 -->
<g id="Node000003" class="node">
<title>Node3</title>
<g id="a_Node000003"><a xlink:href="a01901.html#ae78e200be9eedb1ddf007d431dcb09a2" target="_top" xlink:title=" ">
<polygon fill="white" stroke="#666666" points="120.25,-18.5 0,-18.5 0,0 120.25,0 120.25,-18.5"/>
<text text-anchor="middle" x="60.12" y="-5" font-family="Helvetica,sans-Serif" font-size="10.00">dlindependent_comalloc</text>
</a>
</g>
</g>
<!-- Node1&#45;&gt;Node3 -->
<g id="edge2_Node000001_Node000003" class="edge">
<title>Node1&#45;&gt;Node3</title>
<g id="a_edge2_Node000001_Node000003"><a xlink:title=" ">
<path fill="none" stroke="#63b8ff" d="M144.5,-22.49C137.07,-21.31 128.85,-20 120.54,-18.68"/>
<polygon fill="#63b8ff" stroke="#63b8ff" points="143.86,-25.93 154.28,-24.04 144.96,-19.02 143.86,-25.93"/>
</a>
</g>
</g>
</g>
</svg>
