<?xml version="1.0" encoding="UTF-8" standalone="no"?>
<!DOCTYPE svg PUBLIC "-//W3C//DTD SVG 1.1//EN"
 "http://www.w3.org/Graphics/SVG/1.1/DTD/svg11.dtd">
<!-- Generated by graphviz version 12.2.1 (0)
 -->
<!-- Title: dlposix_memalign Pages: 1 -->
<svg width="350pt" height="27pt"
 viewBox="0.00 0.00 350.00 26.50" xmlns="http://www.w3.org/2000/svg" xmlns:xlink="http://www.w3.org/1999/xlink">
<g id="graph0" class="graph" transform="scale(1 1) rotate(0) translate(4 22.5)">
<title>dlposix_memalign</title>
<!-- Node1 -->
<g id="Node000001" class="node">
<title>Node1</title>
<g id="a_Node000001"><a xlink:title=" ">
<polygon fill="#999999" stroke="#666666" points="94,-18.5 0,-18.5 0,0 94,0 94,-18.5"/>
<text text-anchor="middle" x="47" y="-5" font-family="Helvetica,sans-Serif" font-size="10.00">dlposix_memalign</text>
</a>
</g>
</g>
<!-- Node2 -->
<g id="Node000002" class="node">
<title>Node2</title>
<g id="a_Node000002"><a xlink:href="a01901.html#a77bcf00a7c234d2b45926ac02550d634" target="_top" xlink:title=" ">
<polygon fill="white" stroke="#666666" points="224.75,-18.5 130,-18.5 130,0 224.75,0 224.75,-18.5"/>
<text text-anchor="middle" x="177.38" y="-5" font-family="Helvetica,sans-Serif" font-size="10.00">internal_memalign</text>
</a>
</g>
</g>
<!-- Node1&#45;&gt;Node2 -->
<g id="edge1_Node000001_Node000002" class="edge">
<title>Node1&#45;&gt;Node2</title>
<g id="a_edge1_Node000001_Node000002"><a xlink:title=" ">
<path fill="none" stroke="#63b8ff" d="M94.35,-9.25C102.16,-9.25 110.35,-9.25 118.41,-9.25"/>
<polygon fill="#63b8ff" stroke="#63b8ff" points="118.15,-12.75 128.15,-9.25 118.15,-5.75 118.15,-12.75"/>
</a>
</g>
</g>
<!-- Node3 -->
<g id="Node000003" class="node">
<title>Node3</title>
<g id="a_Node000003"><a xlink:href="a01901.html#a2d20e33b2d417733503759c0594f882d" target="_top" xlink:title=" ">
<polygon fill="white" stroke="#666666" points="342,-18.5 260.75,-18.5 260.75,0 342,0 342,-18.5"/>
<text text-anchor="middle" x="301.38" y="-5" font-family="Helvetica,sans-Serif" font-size="10.00">dispose_chunk</text>
</a>
</g>
</g>
<!-- Node2&#45;&gt;Node3 -->
<g id="edge2_Node000002_Node000003" class="edge">
<title>Node2&#45;&gt;Node3</title>
<g id="a_edge2_Node000002_Node000003"><a xlink:title=" ">
<path fill="none" stroke="#63b8ff" d="M225.19,-9.25C233.05,-9.25 241.24,-9.25 249.2,-9.25"/>
<polygon fill="#63b8ff" stroke="#63b8ff" points="249.11,-12.75 259.11,-9.25 249.11,-5.75 249.11,-12.75"/>
</a>
</g>
</g>
</g>
</svg>
