<?xml version="1.0" encoding="UTF-8" standalone="no"?>
<!DOCTYPE svg PUBLIC "-//W3C//DTD SVG 1.1//EN"
 "http://www.w3.org/Graphics/SVG/1.1/DTD/svg11.dtd">
<!-- Generated by graphviz version 12.2.1 (0)
 -->
<!-- Title: arax_data_migrate_accel Pages: 1 -->
<svg width="904pt" height="156pt"
 viewBox="0.00 0.00 903.50 155.50" xmlns="http://www.w3.org/2000/svg" xmlns:xlink="http://www.w3.org/1999/xlink">
<g id="graph0" class="graph" transform="scale(1 1) rotate(0) translate(4 151.5)">
<title>arax_data_migrate_accel</title>
<!-- Node1 -->
<g id="Node000001" class="node">
<title>Node1</title>
<g id="a_Node000001"><a xlink:title=" ">
<polygon fill="#999999" stroke="#666666" points="125.5,-55.5 0,-55.5 0,-37 125.5,-37 125.5,-55.5"/>
<text text-anchor="middle" x="62.75" y="-42" font-family="Helvetica,sans-Serif" font-size="10.00">arax_data_migrate_accel</text>
</a>
</g>
</g>
<!-- Node2 -->
<g id="Node000002" class="node">
<title>Node2</title>
<g id="a_Node000002"><a xlink:href="a01925.html#afe7e4a63c40fbcaae742b8de8693483f" target="_top" xlink:title=" ">
<polygon fill="white" stroke="#666666" points="274.25,-92.5 169.75,-92.5 169.75,-74 274.25,-74 274.25,-92.5"/>
<text text-anchor="middle" x="222" y="-79" font-family="Helvetica,sans-Serif" font-size="10.00">arax_object_ref_dec</text>
</a>
</g>
</g>
<!-- Node1&#45;&gt;Node2 -->
<g id="edge1_Node000001_Node000002" class="edge">
<title>Node1&#45;&gt;Node2</title>
<g id="a_edge1_Node000001_Node000002"><a xlink:title=" ">
<path fill="none" stroke="#63b8ff" d="M105.07,-55.97C124.49,-60.54 147.87,-66.04 168.53,-70.9"/>
<polygon fill="#63b8ff" stroke="#63b8ff" points="167.68,-74.3 178.21,-73.18 169.28,-67.49 167.68,-74.3"/>
</a>
</g>
</g>
<!-- Node12 -->
<g id="Node000012" class="node">
<title>Node12</title>
<g id="a_Node000012"><a xlink:href="a01925.html#a9255b8011e6d7c9b28c7df40065efb28" target="_top" xlink:title=" ">
<polygon fill="white" stroke="#666666" points="272.75,-55.5 171.25,-55.5 171.25,-37 272.75,-37 272.75,-55.5"/>
<text text-anchor="middle" x="222" y="-42" font-family="Helvetica,sans-Serif" font-size="10.00">arax_object_ref_inc</text>
</a>
</g>
</g>
<!-- Node1&#45;&gt;Node12 -->
<g id="edge13_Node000001_Node000012" class="edge">
<title>Node1&#45;&gt;Node12</title>
<g id="a_edge13_Node000001_Node000012"><a xlink:title=" ">
<path fill="none" stroke="#63b8ff" d="M125.9,-46.25C136.99,-46.25 148.53,-46.25 159.6,-46.25"/>
<polygon fill="#63b8ff" stroke="#63b8ff" points="159.4,-49.75 169.4,-46.25 159.4,-42.75 159.4,-49.75"/>
</a>
</g>
</g>
<!-- Node13 -->
<g id="Node000013" class="node">
<title>Node13</title>
<g id="a_Node000013"><a xlink:href="a01925.html#a668fd893484b6e2d67d8b372b508d14f" target="_top" xlink:title=" ">
<polygon fill="white" stroke="#666666" points="282.5,-18.5 161.5,-18.5 161.5,0 282.5,0 282.5,-18.5"/>
<text text-anchor="middle" x="222" y="-5" font-family="Helvetica,sans-Serif" font-size="10.00">arax_object_type_to_str</text>
</a>
</g>
</g>
<!-- Node1&#45;&gt;Node13 -->
<g id="edge14_Node000001_Node000013" class="edge">
<title>Node1&#45;&gt;Node13</title>
<g id="a_edge14_Node000001_Node000013"><a xlink:title=" ">
<path fill="none" stroke="#63b8ff" d="M105.07,-36.53C124.49,-31.96 147.87,-26.46 168.53,-21.6"/>
<polygon fill="#63b8ff" stroke="#63b8ff" points="169.28,-25.01 178.21,-19.32 167.68,-18.2 169.28,-25.01"/>
</a>
</g>
</g>
<!-- Node3 -->
<g id="Node000003" class="node">
<title>Node3</title>
<g id="a_Node000003"><a xlink:href="a01928.html#a9f30684f01feac766b42d622970ed5a6" target="_top" xlink:title=" ">
<polygon fill="white" stroke="#666666" points="417.75,-110.5 318.5,-110.5 318.5,-92 417.75,-92 417.75,-110.5"/>
<text text-anchor="middle" x="368.12" y="-97" font-family="Helvetica,sans-Serif" font-size="10.00">arax_pipe_size_inc</text>
</a>
</g>
</g>
<!-- Node2&#45;&gt;Node3 -->
<g id="edge2_Node000002_Node000003" class="edge">
<title>Node2&#45;&gt;Node3</title>
<g id="a_edge2_Node000002_Node000003"><a xlink:title=" ">
<path fill="none" stroke="#63b8ff" d="M274.63,-89.7C285.18,-91.02 296.36,-92.41 307.18,-93.76"/>
<polygon fill="#63b8ff" stroke="#63b8ff" points="306.41,-97.19 316.77,-94.96 307.28,-90.25 306.41,-97.19"/>
</a>
</g>
</g>
<!-- Node11 -->
<g id="Node000011" class="node">
<title>Node11</title>
<g id="a_Node000011"><a xlink:href="a01955.html#a0c85e5516222ab7e7fc354c614760ec5" target="_top" xlink:title=" ">
<polygon fill="white" stroke="#666666" points="403.12,-73.5 333.12,-73.5 333.12,-55 403.12,-55 403.12,-73.5"/>
<text text-anchor="middle" x="368.12" y="-60" font-family="Helvetica,sans-Serif" font-size="10.00">utils_list_del</text>
</a>
</g>
</g>
<!-- Node2&#45;&gt;Node11 -->
<g id="edge12_Node000002_Node000011" class="edge">
<title>Node2&#45;&gt;Node11</title>
<g id="a_edge12_Node000002_Node000011"><a xlink:title=" ">
<path fill="none" stroke="#63b8ff" d="M274.63,-76.44C290.07,-74.41 306.89,-72.19 321.89,-70.21"/>
<polygon fill="#63b8ff" stroke="#63b8ff" points="322,-73.73 331.46,-68.95 321.09,-66.79 322,-73.73"/>
</a>
</g>
</g>
<!-- Node3&#45;&gt;Node3 -->
<g id="edge3_Node000003_Node000003" class="edge">
<title>Node3&#45;&gt;Node3</title>
<g id="a_edge3_Node000003_Node000003"><a xlink:title=" ">
<path fill="none" stroke="#63b8ff" d="M346.35,-110.75C335.76,-119.32 343.02,-128.5 368.12,-128.5 382.25,-128.5 390.72,-125.59 393.55,-121.53"/>
<polygon fill="#63b8ff" stroke="#63b8ff" points="396.9,-120.53 390.38,-112.18 390.27,-122.77 396.9,-120.53"/>
</a>
</g>
</g>
<!-- Node4 -->
<g id="Node000004" class="node">
<title>Node4</title>
<g id="a_Node000004"><a xlink:href="a01940.html#a7d3a67fa4eeb00cc9508a7ffe451a02f" target="_top" xlink:title=" ">
<polygon fill="white" stroke="#666666" points="565,-110.5 453.75,-110.5 453.75,-92 565,-92 565,-110.5"/>
<text text-anchor="middle" x="509.38" y="-97" font-family="Helvetica,sans-Serif" font-size="10.00">arax_throttle_size_inc</text>
</a>
</g>
</g>
<!-- Node3&#45;&gt;Node4 -->
<g id="edge4_Node000003_Node000004" class="edge">
<title>Node3&#45;&gt;Node4</title>
<g id="a_edge4_Node000003_Node000004"><a xlink:title=" ">
<path fill="none" stroke="#63b8ff" d="M418.22,-101.25C425.99,-101.25 434.13,-101.25 442.22,-101.25"/>
<polygon fill="#63b8ff" stroke="#63b8ff" points="442.04,-104.75 452.04,-101.25 442.04,-97.75 442.04,-104.75"/>
</a>
</g>
</g>
<!-- Node4&#45;&gt;Node4 -->
<g id="edge5_Node000004_Node000004" class="edge">
<title>Node4&#45;&gt;Node4</title>
<g id="a_edge5_Node000004_Node000004"><a xlink:title=" ">
<path fill="none" stroke="#63b8ff" d="M487.6,-110.75C477.01,-119.32 484.27,-128.5 509.38,-128.5 523.5,-128.5 531.97,-125.59 534.8,-121.53"/>
<polygon fill="#63b8ff" stroke="#63b8ff" points="538.15,-120.53 531.63,-112.18 531.52,-122.77 538.15,-120.53"/>
</a>
</g>
</g>
<!-- Node5 -->
<g id="Node000005" class="node">
<title>Node5</title>
<g id="a_Node000005"><a xlink:href="a02364.html#aed6af4d83e934e3e654ead541b15f2d9" target="_top" xlink:title=" ">
<polygon fill="white" stroke="#666666" points="715.25,-147.5 606.25,-147.5 606.25,-129 715.25,-129 715.25,-147.5"/>
<text text-anchor="middle" x="660.75" y="-134" font-family="Helvetica,sans-Serif" font-size="10.00">async_condition_lock</text>
</a>
</g>
</g>
<!-- Node4&#45;&gt;Node5 -->
<g id="edge6_Node000004_Node000005" class="edge">
<title>Node4&#45;&gt;Node5</title>
<g id="a_edge6_Node000004_Node000005"><a xlink:title=" ">
<path fill="none" stroke="#63b8ff" d="M549.62,-110.97C567.9,-115.5 589.87,-120.94 609.36,-125.77"/>
<polygon fill="#63b8ff" stroke="#63b8ff" points="608.49,-129.16 619.04,-128.17 610.17,-122.36 608.49,-129.16"/>
</a>
</g>
</g>
<!-- Node7 -->
<g id="Node000007" class="node">
<title>Node7</title>
<g id="a_Node000007"><a xlink:href="a02364.html#a45a896fb606c2aa66a5a4c2af59ce494" target="_top" xlink:title=" ">
<polygon fill="white" stroke="#666666" points="718.25,-110.5 603.25,-110.5 603.25,-92 718.25,-92 718.25,-110.5"/>
<text text-anchor="middle" x="660.75" y="-97" font-family="Helvetica,sans-Serif" font-size="10.00">async_condition_notify</text>
</a>
</g>
</g>
<!-- Node4&#45;&gt;Node7 -->
<g id="edge8_Node000004_Node000007" class="edge">
<title>Node4&#45;&gt;Node7</title>
<g id="a_edge8_Node000004_Node000007"><a xlink:title=" ">
<path fill="none" stroke="#63b8ff" d="M565.15,-101.25C573.72,-101.25 582.66,-101.25 591.49,-101.25"/>
<polygon fill="#63b8ff" stroke="#63b8ff" points="591.46,-104.75 601.46,-101.25 591.46,-97.75 591.46,-104.75"/>
</a>
</g>
</g>
<!-- Node9 -->
<g id="Node000009" class="node">
<title>Node9</title>
<g id="a_Node000009"><a xlink:href="a02364.html#a3bbcb7c4c024e99d5c4ba52b61dfbbf7" target="_top" xlink:title=" ">
<polygon fill="white" stroke="#666666" points="720.5,-73.5 601,-73.5 601,-55 720.5,-55 720.5,-73.5"/>
<text text-anchor="middle" x="660.75" y="-60" font-family="Helvetica,sans-Serif" font-size="10.00">async_condition_unlock</text>
</a>
</g>
</g>
<!-- Node4&#45;&gt;Node9 -->
<g id="edge10_Node000004_Node000009" class="edge">
<title>Node4&#45;&gt;Node9</title>
<g id="a_edge10_Node000004_Node000009"><a xlink:title=" ">
<path fill="none" stroke="#63b8ff" d="M549.62,-91.53C567.9,-87 589.87,-81.56 609.36,-76.73"/>
<polygon fill="#63b8ff" stroke="#63b8ff" points="610.17,-80.14 619.04,-74.33 608.49,-73.34 610.17,-80.14"/>
</a>
</g>
</g>
<!-- Node6 -->
<g id="Node000006" class="node">
<title>Node6</title>
<g id="a_Node000006"><a xlink:href="a02358.html#aebf9e72bb6cbd8b9e33489d46c25075d" target="_top" xlink:title=" ">
<polygon fill="white" stroke="#666666" points="884.25,-147.5 767.75,-147.5 767.75,-129 884.25,-129 884.25,-147.5"/>
<text text-anchor="middle" x="826" y="-134" font-family="Helvetica,sans-Serif" font-size="10.00">async_completion_wait</text>
</a>
</g>
</g>
<!-- Node5&#45;&gt;Node6 -->
<g id="edge7_Node000005_Node000006" class="edge">
<title>Node5&#45;&gt;Node6</title>
<g id="a_edge7_Node000005_Node000006"><a xlink:title=" ">
<path fill="none" stroke="#63b8ff" d="M715.66,-138.25C728.64,-138.25 742.69,-138.25 756.26,-138.25"/>
<polygon fill="#63b8ff" stroke="#63b8ff" points="755.99,-141.75 765.99,-138.25 755.99,-134.75 755.99,-141.75"/>
</a>
</g>
</g>
<!-- Node8 -->
<g id="Node000008" class="node">
<title>Node8</title>
<g id="a_Node000008"><a xlink:href="a02358.html#a0fa370eee5160963e617d1daf1c07363" target="_top" xlink:title=" ">
<polygon fill="white" stroke="#666666" points="882.38,-110.5 769.62,-110.5 769.62,-92 882.38,-92 882.38,-110.5"/>
<text text-anchor="middle" x="826" y="-97" font-family="Helvetica,sans-Serif" font-size="10.00">async_semaphore_inc</text>
</a>
</g>
</g>
<!-- Node7&#45;&gt;Node8 -->
<g id="edge9_Node000007_Node000008" class="edge">
<title>Node7&#45;&gt;Node8</title>
<g id="a_edge9_Node000007_Node000008"><a xlink:title=" ">
<path fill="none" stroke="#63b8ff" d="M718.39,-101.25C731.14,-101.25 744.79,-101.25 757.92,-101.25"/>
<polygon fill="#63b8ff" stroke="#63b8ff" points="757.78,-104.75 767.78,-101.25 757.77,-97.75 757.78,-104.75"/>
</a>
</g>
</g>
<!-- Node10 -->
<g id="Node000010" class="node">
<title>Node10</title>
<g id="a_Node000010"><a xlink:href="a02358.html#ad1d30ecbf6bff6457b680aa940281072" target="_top" xlink:title=" ">
<polygon fill="white" stroke="#666666" points="895.5,-73.5 756.5,-73.5 756.5,-55 895.5,-55 895.5,-73.5"/>
<text text-anchor="middle" x="826" y="-60" font-family="Helvetica,sans-Serif" font-size="10.00">async_completion_complete</text>
</a>
</g>
</g>
<!-- Node9&#45;&gt;Node10 -->
<g id="edge11_Node000009_Node000010" class="edge">
<title>Node9&#45;&gt;Node10</title>
<g id="a_edge11_Node000009_Node000010"><a xlink:title=" ">
<path fill="none" stroke="#63b8ff" d="M720.69,-64.25C728.51,-64.25 736.63,-64.25 744.74,-64.25"/>
<polygon fill="#63b8ff" stroke="#63b8ff" points="744.64,-67.75 754.64,-64.25 744.64,-60.75 744.64,-67.75"/>
</a>
</g>
</g>
</g>
</svg>
