<?xml version="1.0" encoding="UTF-8" standalone="no"?>
<!DOCTYPE svg PUBLIC "-//W3C//DTD SVG 1.1//EN"
 "http://www.w3.org/Graphics/SVG/1.1/DTD/svg11.dtd">
<!-- Generated by graphviz version 12.2.1 (0)
 -->
<!-- Title: arax_throttle_size_inc Pages: 1 -->
<svg width="450pt" height="101pt"
 viewBox="0.00 0.00 449.75 100.50" xmlns="http://www.w3.org/2000/svg" xmlns:xlink="http://www.w3.org/1999/xlink">
<g id="graph0" class="graph" transform="scale(1 1) rotate(0) translate(4 96.5)">
<title>arax_throttle_size_inc</title>
<!-- Node1 -->
<g id="Node000001" class="node">
<title>Node1</title>
<g id="a_Node000001"><a xlink:title=" ">
<polygon fill="#999999" stroke="#666666" points="111.25,-55.5 0,-55.5 0,-37 111.25,-37 111.25,-55.5"/>
<text text-anchor="middle" x="55.62" y="-42" font-family="Helvetica,sans-Serif" font-size="10.00">arax_throttle_size_inc</text>
</a>
</g>
</g>
<!-- Node1&#45;&gt;Node1 -->
<g id="edge1_Node000001_Node000001" class="edge">
<title>Node1&#45;&gt;Node1</title>
<g id="a_edge1_Node000001_Node000001"><a xlink:title=" ">
<path fill="none" stroke="#63b8ff" d="M32.29,-55.75C20.94,-64.32 28.72,-73.5 55.62,-73.5 70.76,-73.5 79.84,-70.59 82.87,-66.53"/>
<polygon fill="#63b8ff" stroke="#63b8ff" points="86.18,-65.37 79.47,-57.17 79.6,-67.76 86.18,-65.37"/>
</a>
</g>
</g>
<!-- Node2 -->
<g id="Node000002" class="node">
<title>Node2</title>
<g id="a_Node000002"><a xlink:href="a02364.html#aed6af4d83e934e3e654ead541b15f2d9" target="_top" xlink:title=" ">
<polygon fill="white" stroke="#666666" points="261.5,-92.5 152.5,-92.5 152.5,-74 261.5,-74 261.5,-92.5"/>
<text text-anchor="middle" x="207" y="-79" font-family="Helvetica,sans-Serif" font-size="10.00">async_condition_lock</text>
</a>
</g>
</g>
<!-- Node1&#45;&gt;Node2 -->
<g id="edge2_Node000001_Node000002" class="edge">
<title>Node1&#45;&gt;Node2</title>
<g id="a_edge2_Node000001_Node000002"><a xlink:title=" ">
<path fill="none" stroke="#63b8ff" d="M95.87,-55.97C114.15,-60.5 136.12,-65.94 155.61,-70.77"/>
<polygon fill="#63b8ff" stroke="#63b8ff" points="154.74,-74.16 165.29,-73.17 156.42,-67.36 154.74,-74.16"/>
</a>
</g>
</g>
<!-- Node4 -->
<g id="Node000004" class="node">
<title>Node4</title>
<g id="a_Node000004"><a xlink:href="a02364.html#a45a896fb606c2aa66a5a4c2af59ce494" target="_top" xlink:title=" ">
<polygon fill="white" stroke="#666666" points="264.5,-55.5 149.5,-55.5 149.5,-37 264.5,-37 264.5,-55.5"/>
<text text-anchor="middle" x="207" y="-42" font-family="Helvetica,sans-Serif" font-size="10.00">async_condition_notify</text>
</a>
</g>
</g>
<!-- Node1&#45;&gt;Node4 -->
<g id="edge4_Node000001_Node000004" class="edge">
<title>Node1&#45;&gt;Node4</title>
<g id="a_edge4_Node000001_Node000004"><a xlink:title=" ">
<path fill="none" stroke="#63b8ff" d="M111.4,-46.25C119.97,-46.25 128.91,-46.25 137.74,-46.25"/>
<polygon fill="#63b8ff" stroke="#63b8ff" points="137.71,-49.75 147.71,-46.25 137.71,-42.75 137.71,-49.75"/>
</a>
</g>
</g>
<!-- Node6 -->
<g id="Node000006" class="node">
<title>Node6</title>
<g id="a_Node000006"><a xlink:href="a02364.html#a3bbcb7c4c024e99d5c4ba52b61dfbbf7" target="_top" xlink:title=" ">
<polygon fill="white" stroke="#666666" points="266.75,-18.5 147.25,-18.5 147.25,0 266.75,0 266.75,-18.5"/>
<text text-anchor="middle" x="207" y="-5" font-family="Helvetica,sans-Serif" font-size="10.00">async_condition_unlock</text>
</a>
</g>
</g>
<!-- Node1&#45;&gt;Node6 -->
<g id="edge6_Node000001_Node000006" class="edge">
<title>Node1&#45;&gt;Node6</title>
<g id="a_edge6_Node000001_Node000006"><a xlink:title=" ">
<path fill="none" stroke="#63b8ff" d="M95.87,-36.53C114.15,-32 136.12,-26.56 155.61,-21.73"/>
<polygon fill="#63b8ff" stroke="#63b8ff" points="156.42,-25.14 165.29,-19.33 154.74,-18.34 156.42,-25.14"/>
</a>
</g>
</g>
<!-- Node3 -->
<g id="Node000003" class="node">
<title>Node3</title>
<g id="a_Node000003"><a xlink:href="a02358.html#aebf9e72bb6cbd8b9e33489d46c25075d" target="_top" xlink:title=" ">
<polygon fill="white" stroke="#666666" points="430.5,-92.5 314,-92.5 314,-74 430.5,-74 430.5,-92.5"/>
<text text-anchor="middle" x="372.25" y="-79" font-family="Helvetica,sans-Serif" font-size="10.00">async_completion_wait</text>
</a>
</g>
</g>
<!-- Node2&#45;&gt;Node3 -->
<g id="edge3_Node000002_Node000003" class="edge">
<title>Node2&#45;&gt;Node3</title>
<g id="a_edge3_Node000002_Node000003"><a xlink:title=" ">
<path fill="none" stroke="#63b8ff" d="M261.91,-83.25C274.89,-83.25 288.94,-83.25 302.51,-83.25"/>
<polygon fill="#63b8ff" stroke="#63b8ff" points="302.24,-86.75 312.24,-83.25 302.24,-79.75 302.24,-86.75"/>
</a>
</g>
</g>
<!-- Node5 -->
<g id="Node000005" class="node">
<title>Node5</title>
<g id="a_Node000005"><a xlink:href="a02358.html#a0fa370eee5160963e617d1daf1c07363" target="_top" xlink:title=" ">
<polygon fill="white" stroke="#666666" points="428.62,-55.5 315.88,-55.5 315.88,-37 428.62,-37 428.62,-55.5"/>
<text text-anchor="middle" x="372.25" y="-42" font-family="Helvetica,sans-Serif" font-size="10.00">async_semaphore_inc</text>
</a>
</g>
</g>
<!-- Node4&#45;&gt;Node5 -->
<g id="edge5_Node000004_Node000005" class="edge">
<title>Node4&#45;&gt;Node5</title>
<g id="a_edge5_Node000004_Node000005"><a xlink:title=" ">
<path fill="none" stroke="#63b8ff" d="M264.64,-46.25C277.39,-46.25 291.04,-46.25 304.17,-46.25"/>
<polygon fill="#63b8ff" stroke="#63b8ff" points="304.03,-49.75 314.03,-46.25 304.02,-42.75 304.03,-49.75"/>
</a>
</g>
</g>
<!-- Node7 -->
<g id="Node000007" class="node">
<title>Node7</title>
<g id="a_Node000007"><a xlink:href="a02358.html#ad1d30ecbf6bff6457b680aa940281072" target="_top" xlink:title=" ">
<polygon fill="white" stroke="#666666" points="441.75,-18.5 302.75,-18.5 302.75,0 441.75,0 441.75,-18.5"/>
<text text-anchor="middle" x="372.25" y="-5" font-family="Helvetica,sans-Serif" font-size="10.00">async_completion_complete</text>
</a>
</g>
</g>
<!-- Node6&#45;&gt;Node7 -->
<g id="edge7_Node000006_Node000007" class="edge">
<title>Node6&#45;&gt;Node7</title>
<g id="a_edge7_Node000006_Node000007"><a xlink:title=" ">
<path fill="none" stroke="#63b8ff" d="M266.94,-9.25C274.76,-9.25 282.88,-9.25 290.99,-9.25"/>
<polygon fill="#63b8ff" stroke="#63b8ff" points="290.89,-12.75 300.89,-9.25 290.89,-5.75 290.89,-12.75"/>
</a>
</g>
</g>
</g>
</svg>
