<?xml version="1.0" encoding="UTF-8" standalone="no"?>
<!DOCTYPE svg PUBLIC "-//W3C//DTD SVG 1.1//EN"
 "http://www.w3.org/Graphics/SVG/1.1/DTD/svg11.dtd">
<!-- Generated by graphviz version 8.0.5 (0)
 -->
<!-- Title: arax_object_register Pages: 1 -->
<svg width="731pt" height="253pt"
 viewBox="0.00 0.00 730.75 252.50" xmlns="http://www.w3.org/2000/svg" xmlns:xlink="http://www.w3.org/1999/xlink">
<g id="graph0" class="graph" transform="scale(1 1) rotate(0) translate(4 248.5)">
<title>arax_object_register</title>
<!-- Node1 -->
<g id="Node000001" class="node">
<title>Node1</title>
<g id="a_Node000001"><a xlink:title=" ">
<polygon fill="#999999" stroke="#666666" points="722.75,-129.5 618.25,-129.5 618.25,-111 722.75,-111 722.75,-129.5"/>
<text text-anchor="middle" x="670.5" y="-116" font-family="Helvetica,sans-Serif" font-size="10.00">arax_object_register</text>
</a>
</g>
</g>
<!-- Node2 -->
<g id="Node000002" class="node">
<title>Node2</title>
<g id="a_Node000002"><a xlink:href="a01904.html#a0706a66a62ca8710342ac1c097b703ed" target="_top" xlink:title=" ">
<polygon fill="white" stroke="#666666" points="410.62,-92.5 328.62,-92.5 328.62,-74 410.62,-74 410.62,-92.5"/>
<text text-anchor="middle" x="369.62" y="-79" font-family="Helvetica,sans-Serif" font-size="10.00">arax_accel_init</text>
</a>
</g>
</g>
<!-- Node1&#45;&gt;Node2 -->
<g id="edge1_Node000001_Node000002" class="edge">
<title>Node1&#45;&gt;Node2</title>
<g id="a_edge1_Node000001_Node000002"><a xlink:title=" ">
<path fill="none" stroke="#63b8ff" d="M616.85,-108.38C605.48,-106.1 593.5,-103.91 582.25,-102.25 522.95,-93.5 453.66,-88.2 410.96,-85.5"/>
<polygon fill="#63b8ff" stroke="#63b8ff" points="616.01,-111.99 626.51,-110.58 617.43,-105.13 616.01,-111.99"/>
</a>
</g>
</g>
<!-- Node3 -->
<g id="Node000003" class="node">
<title>Node3</title>
<g id="a_Node000003"><a xlink:href="a01931.html#a526989df37e605824d846b7ba54b43ea" target="_top" xlink:title=" ">
<polygon fill="white" stroke="#666666" points="582.25,-215.5 468.75,-215.5 468.75,-197 582.25,-197 582.25,-215.5"/>
<text text-anchor="middle" x="525.5" y="-202" font-family="Helvetica,sans-Serif" font-size="10.00">arax_data_init_aligned</text>
</a>
</g>
</g>
<!-- Node1&#45;&gt;Node3 -->
<g id="edge2_Node000001_Node000003" class="edge">
<title>Node1&#45;&gt;Node3</title>
<g id="a_edge2_Node000001_Node000003"><a xlink:title=" ">
<path fill="none" stroke="#63b8ff" d="M645.92,-135.6C628.49,-146.84 604.09,-162.31 582.25,-175.25 569.77,-182.65 555.46,-190.59 544.47,-196.58"/>
<polygon fill="#63b8ff" stroke="#63b8ff" points="647.34,-138.21 653.83,-129.84 643.53,-132.33 647.34,-138.21"/>
</a>
</g>
</g>
<!-- Node6 -->
<g id="Node000006" class="node">
<title>Node6</title>
<g id="a_Node000006"><a xlink:href="a01916.html#a86ac572ea8f5f613129192c47d598818" target="_top" xlink:title=" ">
<polygon fill="white" stroke="#666666" points="564.25,-166.5 486.75,-166.5 486.75,-148 564.25,-148 564.25,-166.5"/>
<text text-anchor="middle" x="525.5" y="-153" font-family="Helvetica,sans-Serif" font-size="10.00">arax_proc_init</text>
</a>
</g>
</g>
<!-- Node1&#45;&gt;Node6 -->
<g id="edge5_Node000001_Node000006" class="edge">
<title>Node1&#45;&gt;Node6</title>
<g id="a_edge5_Node000001_Node000006"><a xlink:title=" ">
<path fill="none" stroke="#63b8ff" d="M621.48,-132.67C602.68,-137.54 581.44,-143.04 563.82,-147.59"/>
<polygon fill="#63b8ff" stroke="#63b8ff" points="622.12,-135.86 630.93,-129.97 620.37,-129.09 622.12,-135.86"/>
</a>
</g>
</g>
<!-- Node8 -->
<g id="Node000008" class="node">
<title>Node8</title>
<g id="a_Node000008"><a xlink:href="a01922.html#a27bee94f7a23281c8b2b72ec433f6059" target="_top" xlink:title=" ">
<polygon fill="white" stroke="#666666" points="568,-129.5 483,-129.5 483,-111 568,-111 568,-129.5"/>
<text text-anchor="middle" x="525.5" y="-116" font-family="Helvetica,sans-Serif" font-size="10.00">arax_task_alloc</text>
</a>
</g>
</g>
<!-- Node1&#45;&gt;Node8 -->
<g id="edge7_Node000001_Node000008" class="edge">
<title>Node1&#45;&gt;Node8</title>
<g id="a_edge7_Node000001_Node000008"><a xlink:title=" ">
<path fill="none" stroke="#63b8ff" d="M606.99,-120.25C593.87,-120.25 580.33,-120.25 568.2,-120.25"/>
<polygon fill="#63b8ff" stroke="#63b8ff" points="606.87,-123.75 616.87,-120.25 606.87,-116.75 606.87,-123.75"/>
</a>
</g>
</g>
<!-- Node16 -->
<g id="Node000016" class="node">
<title>Node16</title>
<g id="a_Node000016"><a xlink:href="a01928.html#a83ddb422946cf774c687c1ab63dcda15" target="_top" xlink:title=" ">
<polygon fill="white" stroke="#666666" points="568.75,-55.5 482.25,-55.5 482.25,-37 568.75,-37 568.75,-55.5"/>
<text text-anchor="middle" x="525.5" y="-42" font-family="Helvetica,sans-Serif" font-size="10.00">arax_vaccel_init</text>
</a>
</g>
</g>
<!-- Node1&#45;&gt;Node16 -->
<g id="edge16_Node000001_Node000016" class="edge">
<title>Node1&#45;&gt;Node16</title>
<g id="a_edge16_Node000001_Node000016"><a xlink:title=" ">
<path fill="none" stroke="#63b8ff" d="M645.09,-104.76C627.87,-94.14 604.06,-80.06 582.25,-69.25 572.59,-64.46 561.68,-59.8 552.08,-55.94"/>
<polygon fill="#63b8ff" stroke="#63b8ff" points="643.07,-108.25 653.41,-110.57 646.77,-102.31 643.07,-108.25"/>
</a>
</g>
</g>
<!-- Node4 -->
<g id="Node000004" class="node">
<title>Node4</title>
<g id="a_Node000004"><a xlink:href="a01931.html#aeefe449d4a278e9fc4b9c5f7e31000a1" target="_top" xlink:title=" ">
<polygon fill="white" stroke="#666666" points="408.38,-238.5 330.88,-238.5 330.88,-220 408.38,-220 408.38,-238.5"/>
<text text-anchor="middle" x="369.62" y="-225" font-family="Helvetica,sans-Serif" font-size="10.00">arax_data_init</text>
</a>
</g>
</g>
<!-- Node3&#45;&gt;Node4 -->
<g id="edge3_Node000003_Node000004" class="edge">
<title>Node3&#45;&gt;Node4</title>
<g id="a_edge3_Node000003_Node000004"><a xlink:title=" ">
<path fill="none" stroke="#63b8ff" d="M458.08,-216.18C441.14,-218.71 423.5,-221.35 408.54,-223.58"/>
<polygon fill="#63b8ff" stroke="#63b8ff" points="458.14,-219.56 467.51,-214.62 457.1,-212.64 458.14,-219.56"/>
</a>
</g>
</g>
<!-- Node5 -->
<g id="Node000005" class="node">
<title>Node5</title>
<g id="a_Node000005"><a xlink:href="a02178.html#ga9260ad2dd766aec3274c518e2e312b1f" target="_top" xlink:title=" ">
<polygon fill="white" stroke="#666666" points="249.12,-244.5 159.62,-244.5 159.62,-226 249.12,-226 249.12,-244.5"/>
<text text-anchor="middle" x="204.38" y="-231" font-family="Helvetica,sans-Serif" font-size="10.00">ARAX_BUFFER</text>
</a>
</g>
</g>
<!-- Node4&#45;&gt;Node5 -->
<g id="edge4_Node000004_Node000005" class="edge">
<title>Node4&#45;&gt;Node5</title>
<g id="a_edge4_Node000004_Node000005"><a xlink:title=" ">
<path fill="none" stroke="#63b8ff" d="M319.81,-231.04C297.44,-231.87 271.14,-232.83 249.39,-233.63"/>
<polygon fill="#63b8ff" stroke="#63b8ff" points="319.9,-234.51 329.76,-230.64 319.64,-227.51 319.9,-234.51"/>
</a>
</g>
</g>
<!-- Node7 -->
<g id="Node000007" class="node">
<title>Node7</title>
<g id="a_Node000007"><a xlink:href="a02176.html#gafad2dafb4a231390f02b7c866295b7d9" target="_top" xlink:title=" ">
<polygon fill="white" stroke="#666666" points="418.12,-166.5 321.12,-166.5 321.12,-148 418.12,-148 418.12,-166.5"/>
<text text-anchor="middle" x="369.62" y="-153" font-family="Helvetica,sans-Serif" font-size="10.00">arax_proc_register</text>
</a>
</g>
</g>
<!-- Node6&#45;&gt;Node7 -->
<g id="edge6_Node000006_Node000007" class="edge">
<title>Node6&#45;&gt;Node7</title>
<g id="a_edge6_Node000006_Node000007"><a xlink:title=" ">
<path fill="none" stroke="#63b8ff" d="M475.72,-157.25C457.41,-157.25 436.64,-157.25 418.42,-157.25"/>
<polygon fill="#63b8ff" stroke="#63b8ff" points="475.46,-160.75 485.46,-157.25 475.46,-153.75 475.46,-160.75"/>
</a>
</g>
</g>
<!-- Node9 -->
<g id="Node000009" class="node">
<title>Node9</title>
<g id="a_Node000009"><a xlink:href="a02177.html#gac9f0f3fbb14da879d3ff09bd367bbb24" target="_top" xlink:title=" ">
<polygon fill="white" stroke="#666666" points="413.62,-129.5 325.62,-129.5 325.62,-111 413.62,-111 413.62,-129.5"/>
<text text-anchor="middle" x="369.62" y="-116" font-family="Helvetica,sans-Serif" font-size="10.00">arax_task_issue</text>
</a>
</g>
</g>
<!-- Node8&#45;&gt;Node9 -->
<g id="edge8_Node000008_Node000009" class="edge">
<title>Node8&#45;&gt;Node9</title>
<g id="a_edge8_Node000008_Node000009"><a xlink:title=" ">
<path fill="none" stroke="#63b8ff" d="M472.01,-120.25C453.09,-120.25 431.96,-120.25 413.91,-120.25"/>
<polygon fill="#63b8ff" stroke="#63b8ff" points="471.86,-123.75 481.86,-120.25 471.86,-116.75 471.86,-123.75"/>
</a>
</g>
</g>
<!-- Node10 -->
<g id="Node000010" class="node">
<title>Node10</title>
<g id="a_Node000010"><a xlink:href="a01931.html#af8ede6fc8d207004035f45d945688d2c" target="_top" xlink:title=" ">
<polygon fill="white" stroke="#666666" points="253.62,-170.75 155.12,-170.75 155.12,-141.75 253.62,-141.75 253.62,-170.75"/>
<text text-anchor="start" x="163.12" y="-157.25" font-family="Helvetica,sans-Serif" font-size="10.00">arax_data_allocate</text>
<text text-anchor="middle" x="204.38" y="-146.75" font-family="Helvetica,sans-Serif" font-size="10.00">_remote</text>
</a>
</g>
</g>
<!-- Node9&#45;&gt;Node10 -->
<g id="edge9_Node000009_Node000010" class="edge">
<title>Node9&#45;&gt;Node10</title>
<g id="a_edge9_Node000009_Node000010"><a xlink:title=" ">
<path fill="none" stroke="#63b8ff" d="M314.72,-132.14C295.15,-136.45 273.18,-141.3 254.09,-145.51"/>
<polygon fill="#63b8ff" stroke="#63b8ff" points="315.29,-135.37 324.31,-129.8 313.79,-128.54 315.29,-135.37"/>
</a>
</g>
</g>
<!-- Node11 -->
<g id="Node000011" class="node">
<title>Node11</title>
<g id="a_Node000011"><a xlink:href="a01931.html#a696bc4319d0f6c6baa7d797a8df6b56f" target="_top" xlink:title=" ">
<polygon fill="white" stroke="#666666" points="243.5,-123.5 165.25,-123.5 165.25,-105 243.5,-105 243.5,-123.5"/>
<text text-anchor="middle" x="204.38" y="-110" font-family="Helvetica,sans-Serif" font-size="10.00">arax_data_get</text>
</a>
</g>
</g>
<!-- Node9&#45;&gt;Node11 -->
<g id="edge10_Node000009_Node000011" class="edge">
<title>Node9&#45;&gt;Node11</title>
<g id="a_edge10_Node000009_Node000011"><a xlink:title=" ">
<path fill="none" stroke="#63b8ff" d="M314.6,-118.26C291.46,-117.41 264.98,-116.44 243.88,-115.67"/>
<polygon fill="#63b8ff" stroke="#63b8ff" points="314.18,-121.79 324.31,-118.66 314.44,-114.79 314.18,-121.79"/>
</a>
</g>
</g>
<!-- Node13 -->
<g id="Node000013" class="node">
<title>Node13</title>
<g id="a_Node000013"><a xlink:href="a01931.html#a8995f71dba475975efc37756783cfce9" target="_top" xlink:title=" ">
<polygon fill="white" stroke="#666666" points="243.5,-86.5 165.25,-86.5 165.25,-68 243.5,-68 243.5,-86.5"/>
<text text-anchor="middle" x="204.38" y="-73" font-family="Helvetica,sans-Serif" font-size="10.00">arax_data_set</text>
</a>
</g>
</g>
<!-- Node9&#45;&gt;Node13 -->
<g id="edge12_Node000009_Node000013" class="edge">
<title>Node9&#45;&gt;Node13</title>
<g id="a_edge12_Node000009_Node000013"><a xlink:title=" ">
<path fill="none" stroke="#63b8ff" d="M321.54,-107.85C296.29,-101.2 265.65,-93.13 242.17,-86.94"/>
<polygon fill="#63b8ff" stroke="#63b8ff" points="320.43,-111.44 330.99,-110.6 322.21,-104.67 320.43,-111.44"/>
</a>
</g>
</g>
<!-- Node14 -->
<g id="Node000014" class="node">
<title>Node14</title>
<g id="a_Node000014"><a xlink:href="a01931.html#af735744d0f8bec04394639a841d2ba0f" target="_top" xlink:title=" ">
<polygon fill="white" stroke="#666666" points="270.5,-49.5 138.25,-49.5 138.25,-31 270.5,-31 270.5,-49.5"/>
<text text-anchor="middle" x="204.38" y="-36" font-family="Helvetica,sans-Serif" font-size="10.00">ARAX_OBJ_DTOR_DECL</text>
</a>
</g>
</g>
<!-- Node9&#45;&gt;Node14 -->
<g id="edge14_Node000009_Node000014" class="edge">
<title>Node9&#45;&gt;Node14</title>
<g id="a_edge14_Node000009_Node000014"><a xlink:title=" ">
<path fill="none" stroke="#63b8ff" d="M315.34,-106.23C312.26,-104.73 309.29,-103.07 306.5,-101.25 285.93,-87.79 291.16,-72.58 270.5,-59.25 264.66,-55.48 258.05,-52.44 251.34,-49.99"/>
<polygon fill="#63b8ff" stroke="#63b8ff" points="313.85,-109.83 324.42,-110.53 316.59,-103.39 313.85,-109.83"/>
</a>
</g>
</g>
<!-- Node15 -->
<g id="Node000015" class="node">
<title>Node15</title>
<g id="a_Node000015"><a xlink:href="a02177.html#ga1418f4cd7336bf77cce7b955a1bf7077" target="_top" xlink:title=" ">
<polygon fill="white" stroke="#666666" points="261.12,-207.5 147.62,-207.5 147.62,-189 261.12,-189 261.12,-207.5"/>
<text text-anchor="middle" x="204.38" y="-194" font-family="Helvetica,sans-Serif" font-size="10.00">arax_task_issue_sync</text>
</a>
</g>
</g>
<!-- Node9&#45;&gt;Node15 -->
<g id="edge15_Node000009_Node000015" class="edge">
<title>Node9&#45;&gt;Node15</title>
<g id="a_edge15_Node000009_Node000015"><a xlink:title=" ">
<path fill="none" stroke="#63b8ff" d="M315.82,-134.09C312.57,-135.64 309.44,-137.35 306.5,-139.25 286.13,-152.41 291.05,-167.37 270.5,-180.25 265.13,-183.61 259.13,-186.36 253,-188.6"/>
<polygon fill="#63b8ff" stroke="#63b8ff" points="316.92,-137 324.79,-129.91 314.21,-130.55 316.92,-137"/>
</a>
</g>
</g>
<!-- Node12 -->
<g id="Node000012" class="node">
<title>Node12</title>
<g id="a_Node000012"><a xlink:href="a01931.html#a7d8356bd5c8b6a8d7dffc6ba94cc22e5" target="_top" xlink:title=" ">
<polygon fill="white" stroke="#666666" points="102.25,-104.5 0,-104.5 0,-86 102.25,-86 102.25,-104.5"/>
<text text-anchor="middle" x="51.12" y="-91" font-family="Helvetica,sans-Serif" font-size="10.00">arax_data_memcpy</text>
</a>
</g>
</g>
<!-- Node11&#45;&gt;Node12 -->
<g id="edge11_Node000011_Node000012" class="edge">
<title>Node11&#45;&gt;Node12</title>
<g id="a_edge11_Node000011_Node000012"><a xlink:title=" ">
<path fill="none" stroke="#63b8ff" d="M154.27,-108.08C137.73,-106 119.26,-103.68 102.61,-101.59"/>
<polygon fill="#63b8ff" stroke="#63b8ff" points="153.46,-111.63 163.82,-109.41 154.33,-104.69 153.46,-111.63"/>
</a>
</g>
</g>
<!-- Node13&#45;&gt;Node12 -->
<g id="edge13_Node000013_Node000012" class="edge">
<title>Node13&#45;&gt;Node12</title>
<g id="a_edge13_Node000013_Node000012"><a xlink:title=" ">
<path fill="none" stroke="#63b8ff" d="M154.27,-83.09C137.73,-85.06 119.26,-87.26 102.61,-89.24"/>
<polygon fill="#63b8ff" stroke="#63b8ff" points="154.3,-86.5 163.82,-81.84 153.47,-79.55 154.3,-86.5"/>
</a>
</g>
</g>
<!-- Node16&#45;&gt;Node2 -->
<g id="edge19_Node000016_Node000002" class="edge">
<title>Node16&#45;&gt;Node2</title>
<g id="a_edge19_Node000016_Node000002"><a xlink:title=" ">
<path fill="none" stroke="#63b8ff" d="M473.44,-58.53C453.15,-63.41 430.15,-68.94 411.05,-73.53"/>
<polygon fill="#63b8ff" stroke="#63b8ff" points="474.17,-61.71 483.07,-55.97 472.53,-54.91 474.17,-61.71"/>
</a>
</g>
</g>
<!-- Node17 -->
<g id="Node000017" class="node">
<title>Node17</title>
<g id="a_Node000017"><a xlink:href="a02175.html#gaf8a10ab4e51e59c464ab3ab473e4a0f7" target="_top" xlink:title=" ">
<polygon fill="white" stroke="#666666" points="432.75,-55.5 306.5,-55.5 306.5,-37 432.75,-37 432.75,-55.5"/>
<text text-anchor="middle" x="369.62" y="-42" font-family="Helvetica,sans-Serif" font-size="10.00">arax_accel_acquire_phys</text>
</a>
</g>
</g>
<!-- Node16&#45;&gt;Node17 -->
<g id="edge17_Node000016_Node000017" class="edge">
<title>Node16&#45;&gt;Node17</title>
<g id="a_edge17_Node000016_Node000017"><a xlink:title=" ">
<path fill="none" stroke="#63b8ff" d="M471.08,-46.25C458.83,-46.25 445.7,-46.25 433.11,-46.25"/>
<polygon fill="#63b8ff" stroke="#63b8ff" points="471.05,-49.75 481.05,-46.25 471.05,-42.75 471.05,-49.75"/>
</a>
</g>
</g>
<!-- Node18 -->
<g id="Node000018" class="node">
<title>Node18</title>
<g id="a_Node000018"><a xlink:href="a02175.html#ga008252bb9afc2990fa2c5f4b980c9f27" target="_top" xlink:title=" ">
<polygon fill="white" stroke="#666666" points="432,-18.5 307.25,-18.5 307.25,0 432,0 432,-18.5"/>
<text text-anchor="middle" x="369.62" y="-5" font-family="Helvetica,sans-Serif" font-size="10.00">arax_accel_acquire_type</text>
</a>
</g>
</g>
<!-- Node16&#45;&gt;Node18 -->
<g id="edge18_Node000016_Node000018" class="edge">
<title>Node16&#45;&gt;Node18</title>
<g id="a_edge18_Node000016_Node000018"><a xlink:title=" ">
<path fill="none" stroke="#63b8ff" d="M473.44,-33.97C453.15,-29.09 430.15,-23.56 411.05,-18.97"/>
<polygon fill="#63b8ff" stroke="#63b8ff" points="472.53,-37.59 483.07,-36.53 474.17,-30.79 472.53,-37.59"/>
</a>
</g>
</g>
</g>
</svg>
