<?xml version="1.0" encoding="UTF-8" standalone="no"?>
<!DOCTYPE svg PUBLIC "-//W3C//DTD SVG 1.1//EN"
 "http://www.w3.org/Graphics/SVG/1.1/DTD/svg11.dtd">
<!-- Generated by graphviz version 8.0.5 (0)
 -->
<!-- Title: system_env_var Pages: 1 -->
<svg width="1975pt" height="263pt"
 viewBox="0.00 0.00 1975.25 263.20" xmlns="http://www.w3.org/2000/svg" xmlns:xlink="http://www.w3.org/1999/xlink">
<g id="graph0" class="graph" transform="scale(1 1) rotate(0) translate(4 259.2)">
<title>system_env_var</title>
<!-- Node1 -->
<g id="Node000001" class="node">
<title>Node1</title>
<g id="a_Node000001"><a xlink:title=" ">
<polygon fill="#999999" stroke="#666666" points="1967.25,-169.5 1881.5,-169.5 1881.5,-151 1967.25,-151 1967.25,-169.5"/>
<text text-anchor="middle" x="1924.38" y="-156" font-family="Helvetica,sans-Serif" font-size="10.00">system_env_var</text>
</a>
</g>
</g>
<!-- Node2 -->
<g id="Node000002" class="node">
<title>Node2</title>
<g id="a_Node000002"><a xlink:href="a01952.html#a8b687fb4c464903e23504eea3ddc3873" target="_top" xlink:title=" ">
<polygon fill="white" stroke="#666666" points="1690.75,-151.5 1637.25,-151.5 1637.25,-133 1690.75,-133 1690.75,-151.5"/>
<text text-anchor="middle" x="1664" y="-138" font-family="Helvetica,sans-Serif" font-size="10.00">conf_get</text>
</a>
</g>
</g>
<!-- Node1&#45;&gt;Node2 -->
<g id="edge1_Node000001_Node000002" class="edge">
<title>Node1&#45;&gt;Node2</title>
<g id="a_edge1_Node000001_Node000002"><a xlink:title=" ">
<path fill="none" stroke="#63b8ff" d="M1870.41,-156.56C1815.74,-152.75 1732.71,-146.97 1690.94,-144.06"/>
<polygon fill="#63b8ff" stroke="#63b8ff" points="1870.07,-160.11 1880.29,-157.32 1870.55,-153.13 1870.07,-160.11"/>
</a>
</g>
</g>
<!-- Node24 -->
<g id="Node000024" class="node">
<title>Node24</title>
<g id="a_Node000024"><a xlink:href="a01952.html#a17713c8e9b90065e23b0ec1a225f79ab" target="_top" xlink:title=" ">
<polygon fill="white" stroke="#666666" points="1845.5,-188.5 1726.75,-188.5 1726.75,-170 1845.5,-170 1845.5,-188.5"/>
<text text-anchor="middle" x="1786.12" y="-175" font-family="Helvetica,sans-Serif" font-size="10.00">utils_config_get_source</text>
</a>
</g>
</g>
<!-- Node1&#45;&gt;Node24 -->
<g id="edge31_Node000001_Node000024" class="edge">
<title>Node1&#45;&gt;Node24</title>
<g id="a_edge31_Node000001_Node000024"><a xlink:title=" ">
<path fill="none" stroke="#63b8ff" d="M1870.34,-167.65C1862.35,-168.76 1854.07,-169.91 1845.97,-171.04"/>
<polygon fill="#63b8ff" stroke="#63b8ff" points="1870.59,-171.01 1880.01,-166.16 1869.62,-164.07 1870.59,-171.01"/>
</a>
</g>
</g>
<!-- Node3 -->
<g id="Node000003" class="node">
<title>Node3</title>
<g id="a_Node000003"><a xlink:href="a01952.html#a0738274ac3fd171eda6bfb42492bc0d7" target="_top" xlink:title=" ">
<polygon fill="white" stroke="#666666" points="1452.5,-113.5 1346.5,-113.5 1346.5,-95 1452.5,-95 1452.5,-113.5"/>
<text text-anchor="middle" x="1399.5" y="-100" font-family="Helvetica,sans-Serif" font-size="10.00">_utils_config_get_str</text>
</a>
</g>
</g>
<!-- Node2&#45;&gt;Node3 -->
<g id="edge2_Node000002_Node000003" class="edge">
<title>Node2&#45;&gt;Node3</title>
<g id="a_edge2_Node000002_Node000003"><a xlink:title=" ">
<path fill="none" stroke="#63b8ff" d="M1626.11,-136.91C1580.94,-130.37 1504.17,-119.26 1452.9,-111.84"/>
<polygon fill="#63b8ff" stroke="#63b8ff" points="1625.47,-140.5 1635.87,-138.47 1626.48,-133.57 1625.47,-140.5"/>
</a>
</g>
</g>
<!-- Node22 -->
<g id="Node000022" class="node">
<title>Node22</title>
<g id="a_Node000022"><a xlink:href="a01952.html#a4b9cd8f5d0c205ac6c1fd30f77cbf539" target="_top" xlink:title=" ">
<polygon fill="white" stroke="#666666" points="1601.25,-169.5 1493,-169.5 1493,-151 1601.25,-151 1601.25,-169.5"/>
<text text-anchor="middle" x="1547.12" y="-156" font-family="Helvetica,sans-Serif" font-size="10.00">utils_config_write_str</text>
</a>
</g>
</g>
<!-- Node2&#45;&gt;Node22 -->
<g id="edge27_Node000002_Node000022" class="edge">
<title>Node2&#45;&gt;Node22</title>
<g id="a_edge27_Node000002_Node000022"><a xlink:title=" ">
<path fill="none" stroke="#63b8ff" d="M1626.2,-148.02C1618.27,-149.26 1609.73,-150.6 1601.32,-151.92"/>
<polygon fill="#63b8ff" stroke="#63b8ff" points="1626.6,-151.34 1635.93,-146.33 1625.51,-144.42 1626.6,-151.34"/>
</a>
</g>
</g>
<!-- Node4 -->
<g id="Node000004" class="node">
<title>Node4</title>
<g id="a_Node000004"><a xlink:href="a01952.html#a1a28ba7c7791236d03b1fa9f81aa6a71" target="_top" xlink:title=" ">
<polygon fill="white" stroke="#666666" points="1306,-113.5 1198.5,-113.5 1198.5,-95 1306,-95 1306,-113.5"/>
<text text-anchor="middle" x="1252.25" y="-100" font-family="Helvetica,sans-Serif" font-size="10.00">utils_config_get_long</text>
</a>
</g>
</g>
<!-- Node3&#45;&gt;Node4 -->
<g id="edge3_Node000003_Node000004" class="edge">
<title>Node3&#45;&gt;Node4</title>
<g id="a_edge3_Node000003_Node000004"><a xlink:title=" ">
<path fill="none" stroke="#63b8ff" d="M1335.22,-104.25C1325.51,-104.25 1315.56,-104.25 1306.1,-104.25"/>
<polygon fill="#63b8ff" stroke="#63b8ff" points="1335.06,-107.75 1345.06,-104.25 1335.06,-100.75 1335.06,-107.75"/>
</a>
</g>
</g>
<!-- Node18 -->
<g id="Node000018" class="node">
<title>Node18</title>
<g id="a_Node000018"><a xlink:href="a01952.html#a1e8deff7c038efae14d1cc98e4ab109f" target="_top" xlink:title=" ">
<polygon fill="white" stroke="#666666" points="1302.62,-187.5 1201.88,-187.5 1201.88,-169 1302.62,-169 1302.62,-187.5"/>
<text text-anchor="middle" x="1252.25" y="-174" font-family="Helvetica,sans-Serif" font-size="10.00">utils_config_get_str</text>
</a>
</g>
</g>
<!-- Node3&#45;&gt;Node18 -->
<g id="edge21_Node000003_Node000018" class="edge">
<title>Node3&#45;&gt;Node18</title>
<g id="a_edge21_Node000003_Node000018"><a xlink:title=" ">
<path fill="none" stroke="#63b8ff" d="M1355.41,-117.58C1350.83,-119.34 1346.28,-121.24 1342,-123.25 1313.79,-136.52 1283.42,-156.79 1266.53,-168.66"/>
<polygon fill="#63b8ff" stroke="#63b8ff" points="1356.22,-120.65 1364.43,-113.95 1353.84,-114.07 1356.22,-120.65"/>
</a>
</g>
</g>
<!-- Node5 -->
<g id="Node000005" class="node">
<title>Node5</title>
<g id="a_Node000005"><a xlink:href="a01952.html#a336fa8eefc3d744aa7248d6786cfee03" target="_top" xlink:title=" ">
<polygon fill="white" stroke="#666666" points="1162.5,-113.5 1062.5,-113.5 1062.5,-95 1162.5,-95 1162.5,-113.5"/>
<text text-anchor="middle" x="1112.5" y="-100" font-family="Helvetica,sans-Serif" font-size="10.00">utils_config_get_int</text>
</a>
</g>
</g>
<!-- Node4&#45;&gt;Node5 -->
<g id="edge4_Node000004_Node000005" class="edge">
<title>Node4&#45;&gt;Node5</title>
<g id="a_edge4_Node000004_Node000005"><a xlink:title=" ">
<path fill="none" stroke="#63b8ff" d="M1187.57,-104.25C1179.26,-104.25 1170.85,-104.25 1162.83,-104.25"/>
<polygon fill="#63b8ff" stroke="#63b8ff" points="1187.39,-107.75 1197.39,-104.25 1187.39,-100.75 1187.39,-107.75"/>
</a>
</g>
</g>
<!-- Node17 -->
<g id="Node000017" class="node">
<title>Node17</title>
<g id="a_Node000017"><a xlink:href="a01952.html#a4a525d89ade920512dc65409bc8e85d8" target="_top" xlink:title=" ">
<polygon fill="white" stroke="#666666" points="880,-39.5 773.25,-39.5 773.25,-21 880,-21 880,-39.5"/>
<text text-anchor="middle" x="826.62" y="-26" font-family="Helvetica,sans-Serif" font-size="10.00">utils_config_get_size</text>
</a>
</g>
</g>
<!-- Node4&#45;&gt;Node17 -->
<g id="edge19_Node000004_Node000017" class="edge">
<title>Node4&#45;&gt;Node17</title>
<g id="a_edge19_Node000004_Node000017"><a xlink:title=" ">
<path fill="none" stroke="#63b8ff" d="M1194.04,-92.35C1183.56,-90.25 1172.71,-88.14 1162.5,-86.25 1062.95,-67.84 946.25,-48.92 880.21,-38.47"/>
<polygon fill="#63b8ff" stroke="#63b8ff" points="1193.29,-95.97 1203.79,-94.51 1194.68,-89.11 1193.29,-95.97"/>
</a>
</g>
</g>
<!-- Node6 -->
<g id="Node000006" class="node">
<title>Node6</title>
<g id="a_Node000006"><a xlink:href="a01952.html#aa7aa94ad075bf97a566f01f899fcd859" target="_top" xlink:title=" ">
<polygon fill="white" stroke="#666666" points="1026.5,-113.5 919,-113.5 919,-95 1026.5,-95 1026.5,-113.5"/>
<text text-anchor="middle" x="972.75" y="-100" font-family="Helvetica,sans-Serif" font-size="10.00">utils_config_get_bool</text>
</a>
</g>
</g>
<!-- Node5&#45;&gt;Node6 -->
<g id="edge5_Node000005_Node000006" class="edge">
<title>Node5&#45;&gt;Node6</title>
<g id="a_edge5_Node000005_Node000006"><a xlink:title=" ">
<path fill="none" stroke="#63b8ff" d="M1051.26,-104.25C1043.16,-104.25 1034.91,-104.25 1026.94,-104.25"/>
<polygon fill="#63b8ff" stroke="#63b8ff" points="1051.16,-107.75 1061.16,-104.25 1051.16,-100.75 1051.16,-107.75"/>
</a>
</g>
</g>
<!-- Node7 -->
<g id="Node000007" class="node">
<title>Node7</title>
<g id="a_Node000007"><a xlink:href="a01898.html#a02fd608f651d254148dc74f0ae371dfe" target="_top" xlink:title=" ">
<polygon fill="white" stroke="#666666" points="577.25,-131.5 518.5,-131.5 518.5,-113 577.25,-113 577.25,-131.5"/>
<text text-anchor="middle" x="547.88" y="-118" font-family="Helvetica,sans-Serif" font-size="10.00">_arax_init</text>
</a>
</g>
</g>
<!-- Node6&#45;&gt;Node7 -->
<g id="edge6_Node000006_Node000007" class="edge">
<title>Node6&#45;&gt;Node7</title>
<g id="a_edge6_Node000006_Node000007"><a xlink:title=" ">
<path fill="none" stroke="#63b8ff" d="M921.36,-92.32C851.09,-77.77 720.22,-58.37 613.25,-86.25 593.67,-91.35 573.74,-103.87 561.35,-112.71"/>
<polygon fill="#63b8ff" stroke="#63b8ff" points="920.19,-95.86 930.7,-94.51 921.64,-89.01 920.19,-95.86"/>
</a>
</g>
</g>
<!-- Node15 -->
<g id="Node000015" class="node">
<title>Node15</title>
<g id="a_Node000015"><a xlink:href="a02352.html#ab2e422aab2fcfa562795beb2843e8019" target="_top" xlink:title=" ">
<polygon fill="white" stroke="#666666" points="883,-113.5 770.25,-113.5 770.25,-95 883,-95 883,-113.5"/>
<text text-anchor="middle" x="826.62" y="-100" font-family="Helvetica,sans-Serif" font-size="10.00">async_meta_init_once</text>
</a>
</g>
</g>
<!-- Node6&#45;&gt;Node15 -->
<g id="edge16_Node000006_Node000015" class="edge">
<title>Node6&#45;&gt;Node15</title>
<g id="a_edge16_Node000006_Node000015"><a xlink:title=" ">
<path fill="none" stroke="#63b8ff" d="M908.17,-104.25C899.9,-104.25 891.49,-104.25 883.37,-104.25"/>
<polygon fill="#63b8ff" stroke="#63b8ff" points="907.9,-107.75 917.9,-104.25 907.9,-100.75 907.9,-107.75"/>
</a>
</g>
</g>
<!-- Node8 -->
<g id="Node000008" class="node">
<title>Node8</title>
<g id="a_Node000008"><a xlink:href="a01898.html#aa6e4832b06bd5757be4502d2de7b3026" target="_top" xlink:title=" ">
<polygon fill="white" stroke="#666666" points="482.5,-157.75 384,-157.75 384,-128.75 482.5,-128.75 482.5,-157.75"/>
<text text-anchor="start" x="392" y="-144.25" font-family="Helvetica,sans-Serif" font-size="10.00">arax_controller_init</text>
<text text-anchor="middle" x="433.25" y="-133.75" font-family="Helvetica,sans-Serif" font-size="10.00">_start</text>
</a>
</g>
</g>
<!-- Node7&#45;&gt;Node8 -->
<g id="edge7_Node000007_Node000008" class="edge">
<title>Node7&#45;&gt;Node8</title>
<g id="a_edge7_Node000007_Node000008"><a xlink:title=" ">
<path fill="none" stroke="#63b8ff" d="M507.56,-129.58C499.5,-131.08 490.93,-132.68 482.6,-134.23"/>
<polygon fill="#63b8ff" stroke="#63b8ff" points="507.97,-132.88 517.16,-127.6 506.69,-126 507.97,-132.88"/>
</a>
</g>
</g>
<!-- Node9 -->
<g id="Node000009" class="node">
<title>Node9</title>
<g id="a_Node000009"><a xlink:href="a02174.html#gae1d371a2840849690acce147e7a205da" target="_top" xlink:title=" ">
<polygon fill="white" stroke="#666666" points="460,-110.5 406.5,-110.5 406.5,-92 460,-92 460,-110.5"/>
<text text-anchor="middle" x="433.25" y="-97" font-family="Helvetica,sans-Serif" font-size="10.00">arax_init</text>
</a>
</g>
</g>
<!-- Node7&#45;&gt;Node9 -->
<g id="edge8_Node000007_Node000009" class="edge">
<title>Node7&#45;&gt;Node9</title>
<g id="a_edge8_Node000007_Node000009"><a xlink:title=" ">
<path fill="none" stroke="#63b8ff" d="M507.67,-114.94C491.96,-112.01 474.28,-108.71 460.21,-106.09"/>
<polygon fill="#63b8ff" stroke="#63b8ff" points="506.69,-118.5 517.16,-116.9 507.97,-111.62 506.69,-118.5"/>
</a>
</g>
</g>
<!-- Node10 -->
<g id="Node000010" class="node">
<title>Node10</title>
<g id="a_Node000010"><a xlink:href="a01940.html#a8a99bcb12e2ee55d68a029bfca9b6d51" target="_top" xlink:title=" ">
<polygon fill="white" stroke="#666666" points="235.25,-139.75 141.25,-139.75 141.25,-110.75 235.25,-110.75 235.25,-139.75"/>
<text text-anchor="start" x="149.25" y="-126.25" font-family="Helvetica,sans-Serif" font-size="10.00">arax_plot_register</text>
<text text-anchor="middle" x="188.25" y="-115.75" font-family="Helvetica,sans-Serif" font-size="10.00">_metric</text>
</a>
</g>
</g>
<!-- Node9&#45;&gt;Node10 -->
<g id="edge9_Node000009_Node000010" class="edge">
<title>Node9&#45;&gt;Node10</title>
<g id="a_edge9_Node000009_Node000010"><a xlink:title=" ">
<path fill="none" stroke="#63b8ff" d="M395.47,-104.88C352.62,-109.11 281.79,-116.11 235.32,-120.7"/>
<polygon fill="#63b8ff" stroke="#63b8ff" points="395.64,-108.28 405.24,-103.82 394.95,-101.32 395.64,-108.28"/>
</a>
</g>
</g>
<!-- Node11 -->
<g id="Node000011" class="node">
<title>Node11</title>
<g id="a_Node000011"><a xlink:href="a01919.html#a80ab3bf4a8af9bb101b5a53248609771" target="_top" xlink:title=" ">
<polygon fill="white" stroke="#666666" points="348,-92.5 271.25,-92.5 271.25,-74 348,-74 348,-92.5"/>
<text text-anchor="middle" x="309.62" y="-79" font-family="Helvetica,sans-Serif" font-size="10.00">arax_ptr_valid</text>
</a>
</g>
</g>
<!-- Node9&#45;&gt;Node11 -->
<g id="edge10_Node000009_Node000011" class="edge">
<title>Node9&#45;&gt;Node11</title>
<g id="a_edge10_Node000009_Node000011"><a xlink:title=" ">
<path fill="none" stroke="#63b8ff" d="M395.71,-95.84C380.7,-93.62 363.33,-91.05 348.21,-88.81"/>
<polygon fill="#63b8ff" stroke="#63b8ff" points="394.75,-99.39 405.16,-97.39 395.78,-92.46 394.75,-99.39"/>
</a>
</g>
</g>
<!-- Node11&#45;&gt;Node10 -->
<g id="edge15_Node000011_Node000010" class="edge">
<title>Node11&#45;&gt;Node10</title>
<g id="a_edge15_Node000011_Node000010"><a xlink:title=" ">
<path fill="none" stroke="#63b8ff" d="M270.89,-96.53C258.45,-100.9 244.53,-105.8 231.76,-110.29"/>
<polygon fill="#63b8ff" stroke="#63b8ff" points="271.67,-99.61 279.94,-92.99 269.34,-93.01 271.67,-99.61"/>
</a>
</g>
</g>
<!-- Node12 -->
<g id="Node000012" class="node">
<title>Node12</title>
<g id="a_Node000012"><a xlink:href="a01937.html#a4ee1fea325d2edd421f59ab240dfbe54" target="_top" xlink:title=" ">
<polygon fill="white" stroke="#666666" points="234.12,-92.5 142.38,-92.5 142.38,-74 234.12,-74 234.12,-92.5"/>
<text text-anchor="middle" x="188.25" y="-79" font-family="Helvetica,sans-Serif" font-size="10.00">_arax_assert_obj</text>
</a>
</g>
</g>
<!-- Node11&#45;&gt;Node12 -->
<g id="edge11_Node000011_Node000012" class="edge">
<title>Node11&#45;&gt;Node12</title>
<g id="a_edge11_Node000011_Node000012"><a xlink:title=" ">
<path fill="none" stroke="#63b8ff" d="M259.94,-83.25C251.46,-83.25 242.67,-83.25 234.3,-83.25"/>
<polygon fill="#63b8ff" stroke="#63b8ff" points="259.85,-86.75 269.85,-83.25 259.85,-79.75 259.85,-86.75"/>
</a>
</g>
</g>
<!-- Node13 -->
<g id="Node000013" class="node">
<title>Node13</title>
<g id="a_Node000013"><a xlink:href="a01931.html#afeaab7d93372f0752d59c70d9c5940e7" target="_top" xlink:title=" ">
<polygon fill="white" stroke="#666666" points="226.25,-18.5 150.25,-18.5 150.25,0 226.25,0 226.25,-18.5"/>
<text text-anchor="middle" x="188.25" y="-5" font-family="Helvetica,sans-Serif" font-size="10.00">arax_data_ref</text>
</a>
</g>
</g>
<!-- Node11&#45;&gt;Node13 -->
<g id="edge12_Node000011_Node000013" class="edge">
<title>Node11&#45;&gt;Node13</title>
<g id="a_edge12_Node000011_Node000013"><a xlink:title=" ">
<path fill="none" stroke="#63b8ff" d="M287.39,-67.27C273.02,-56.77 253.42,-43.03 235.25,-32.25 227.26,-27.51 218.17,-22.83 210.2,-18.93"/>
<polygon fill="#63b8ff" stroke="#63b8ff" points="284.88,-70.52 295.01,-73.64 289.05,-64.89 284.88,-70.52"/>
</a>
</g>
</g>
<!-- Node14 -->
<g id="Node000014" class="node">
<title>Node14</title>
<g id="a_Node000014"><a xlink:href="a01931.html#ac1f7fb20b3a23b388bea24f1b46a33a8" target="_top" xlink:title=" ">
<polygon fill="white" stroke="#666666" points="105.25,-36.5 0,-36.5 0,-18 105.25,-18 105.25,-36.5"/>
<text text-anchor="middle" x="52.62" y="-23" font-family="Helvetica,sans-Serif" font-size="10.00">arax_data_ref_offset</text>
</a>
</g>
</g>
<!-- Node11&#45;&gt;Node14 -->
<g id="edge14_Node000011_Node000014" class="edge">
<title>Node11&#45;&gt;Node14</title>
<g id="a_edge14_Node000011_Node000014"><a xlink:title=" ">
<path fill="none" stroke="#63b8ff" d="M260.52,-71.2C252.11,-69.16 243.43,-67.11 235.25,-65.25 190.33,-55.04 138.92,-44.38 102.29,-36.96"/>
<polygon fill="#63b8ff" stroke="#63b8ff" points="259.43,-74.78 269.98,-73.75 261.09,-67.98 259.43,-74.78"/>
</a>
</g>
</g>
<!-- Node13&#45;&gt;Node14 -->
<g id="edge13_Node000013_Node000014" class="edge">
<title>Node13&#45;&gt;Node14</title>
<g id="a_edge13_Node000013_Node000014"><a xlink:title=" ">
<path fill="none" stroke="#63b8ff" d="M139.37,-15.7C128.43,-17.17 116.74,-18.75 105.63,-20.25"/>
<polygon fill="#63b8ff" stroke="#63b8ff" points="139.58,-19.07 149.03,-14.26 138.65,-12.13 139.58,-19.07"/>
</a>
</g>
</g>
<!-- Node16 -->
<g id="Node000016" class="node">
<title>Node16</title>
<g id="a_Node000016"><a xlink:href="a01913.html#aa6293e9ec7776aa49ecf632fcc4f5e26" target="_top" xlink:title=" ">
<polygon fill="white" stroke="#666666" points="712.12,-113.5 635.38,-113.5 635.38,-95 712.12,-95 712.12,-113.5"/>
<text text-anchor="middle" x="673.75" y="-100" font-family="Helvetica,sans-Serif" font-size="10.00">arax_pipe_init</text>
</a>
</g>
</g>
<!-- Node15&#45;&gt;Node16 -->
<g id="edge17_Node000015_Node000016" class="edge">
<title>Node15&#45;&gt;Node16</title>
<g id="a_edge17_Node000015_Node000016"><a xlink:title=" ">
<path fill="none" stroke="#63b8ff" d="M758.95,-104.25C743,-104.25 726.52,-104.25 712.42,-104.25"/>
<polygon fill="#63b8ff" stroke="#63b8ff" points="758.87,-107.75 768.87,-104.25 758.87,-100.75 758.87,-107.75"/>
</a>
</g>
</g>
<!-- Node16&#45;&gt;Node7 -->
<g id="edge18_Node000016_Node000007" class="edge">
<title>Node16&#45;&gt;Node7</title>
<g id="a_edge18_Node000016_Node000007"><a xlink:title=" ">
<path fill="none" stroke="#63b8ff" d="M624.2,-111.3C608.37,-113.61 591.31,-116.08 577.44,-118.1"/>
<polygon fill="#63b8ff" stroke="#63b8ff" points="624.52,-114.65 633.91,-109.75 623.51,-107.72 624.52,-114.65"/>
</a>
</g>
</g>
<!-- Node17&#45;&gt;Node7 -->
<g id="edge20_Node000017_Node000007" class="edge">
<title>Node17&#45;&gt;Node7</title>
<g id="a_edge20_Node000017_Node000007"><a xlink:title=" ">
<path fill="none" stroke="#63b8ff" d="M762.17,-25.82C718.17,-25.37 659.42,-30.15 613.25,-53.25 586,-66.89 564.36,-97.13 554.57,-112.65"/>
<polygon fill="#63b8ff" stroke="#63b8ff" points="761.96,-29.33 772.02,-26.04 762.1,-22.34 761.96,-29.33"/>
</a>
</g>
</g>
<!-- Node18&#45;&gt;Node7 -->
<g id="edge22_Node000018_Node000007" class="edge">
<title>Node18&#45;&gt;Node7</title>
<g id="a_edge22_Node000018_Node000007"><a xlink:title=" ">
<path fill="none" stroke="#63b8ff" d="M1197.31,-166.42C1185.86,-164.15 1173.81,-161.96 1162.5,-160.25 1079.14,-147.63 1058.06,-141.25 973.75,-141.25 973.75,-141.25 973.75,-141.25 825.62,-141.25 734.84,-141.25 627.7,-130.95 577.52,-125.52"/>
<polygon fill="#63b8ff" stroke="#63b8ff" points="1196.57,-170.04 1207.07,-168.59 1197.96,-163.18 1196.57,-170.04"/>
</a>
</g>
</g>
<!-- Node19 -->
<g id="Node000019" class="node">
<title>Node19</title>
<g id="a_Node000019"><a xlink:href="a02174.html#ga4bae55e86ffc384b3c1d2da3580f5c42" target="_top" xlink:title=" ">
<polygon fill="white" stroke="#666666" points="1144.5,-187.5 1080.5,-187.5 1080.5,-169 1144.5,-169 1144.5,-187.5"/>
<text text-anchor="middle" x="1112.5" y="-174" font-family="Helvetica,sans-Serif" font-size="10.00">arax_clean</text>
</a>
</g>
</g>
<!-- Node18&#45;&gt;Node19 -->
<g id="edge23_Node000018_Node000019" class="edge">
<title>Node18&#45;&gt;Node19</title>
<g id="a_edge23_Node000018_Node000019"><a xlink:title=" ">
<path fill="none" stroke="#63b8ff" d="M1190.68,-178.25C1174.81,-178.25 1158.36,-178.25 1144.74,-178.25"/>
<polygon fill="#63b8ff" stroke="#63b8ff" points="1190.52,-181.75 1200.52,-178.25 1190.52,-174.75 1190.52,-181.75"/>
</a>
</g>
</g>
<!-- Node21 -->
<g id="Node000021" class="node">
<title>Node21</title>
<g id="a_Node000021"><a xlink:href="a02352.html#adbaa29dfccfdfe6e3fe69a1d001c05b5" target="_top" xlink:title=" ">
<polygon fill="white" stroke="#666666" points="734.25,-206.5 613.25,-206.5 613.25,-188 734.25,-188 734.25,-206.5"/>
<text text-anchor="middle" x="673.75" y="-193" font-family="Helvetica,sans-Serif" font-size="10.00">async_meta_init_always</text>
</a>
</g>
</g>
<!-- Node18&#45;&gt;Node21 -->
<g id="edge25_Node000018_Node000021" class="edge">
<title>Node18&#45;&gt;Node21</title>
<g id="a_edge25_Node000018_Node000021"><a xlink:title=" ">
<path fill="none" stroke="#63b8ff" d="M1201.77,-190.09C1189.05,-192.63 1175.33,-194.95 1162.5,-196.25 1008.96,-211.82 826.83,-205.73 734.64,-200.93"/>
<polygon fill="#63b8ff" stroke="#63b8ff" points="1202.11,-193.38 1211.19,-187.91 1200.68,-186.53 1202.11,-193.38"/>
</a>
</g>
</g>
<!-- Node20 -->
<g id="Node000020" class="node">
<title>Node20</title>
<g id="a_Node000020"><a xlink:href="a02174.html#ga8ac7e88ed7b8a1e2ff8aa435ac6b58ec" target="_top" xlink:title=" ">
<polygon fill="white" stroke="#666666" points="1001,-187.5 944.5,-187.5 944.5,-169 1001,-169 1001,-187.5"/>
<text text-anchor="middle" x="972.75" y="-174" font-family="Helvetica,sans-Serif" font-size="10.00">arax_exit</text>
</a>
</g>
</g>
<!-- Node19&#45;&gt;Node20 -->
<g id="edge24_Node000019_Node000020" class="edge">
<title>Node19&#45;&gt;Node20</title>
<g id="a_edge24_Node000019_Node000020"><a xlink:title=" ">
<path fill="none" stroke="#63b8ff" d="M1069.43,-178.25C1047.25,-178.25 1020.66,-178.25 1001.16,-178.25"/>
<polygon fill="#63b8ff" stroke="#63b8ff" points="1069.24,-181.75 1079.24,-178.25 1069.24,-174.75 1069.24,-181.75"/>
</a>
</g>
</g>
<!-- Node21&#45;&gt;Node7 -->
<g id="edge26_Node000021_Node000007" class="edge">
<title>Node21&#45;&gt;Node7</title>
<g id="a_edge26_Node000021_Node000007"><a xlink:title=" ">
<path fill="none" stroke="#63b8ff" d="M647.66,-182.06C622.87,-167.05 585.72,-144.56 564.75,-131.86"/>
<polygon fill="#63b8ff" stroke="#63b8ff" points="645.44,-185.41 655.81,-187.6 649.07,-179.43 645.44,-185.41"/>
</a>
</g>
</g>
<!-- Node22&#45;&gt;Node18 -->
<g id="edge28_Node000022_Node000018" class="edge">
<title>Node22&#45;&gt;Node18</title>
<g id="a_edge28_Node000022_Node000018"><a xlink:title=" ">
<path fill="none" stroke="#63b8ff" d="M1481.94,-164.19C1428.05,-167.51 1352.16,-172.17 1302.84,-175.2"/>
<polygon fill="#63b8ff" stroke="#63b8ff" points="1481.98,-167.64 1491.75,-163.53 1481.55,-160.65 1481.98,-167.64"/>
</a>
</g>
</g>
<!-- Node23 -->
<g id="Node000023" class="node">
<title>Node23</title>
<g id="a_Node000023"><a xlink:href="a01952.html#a88091e179416d4beec1b5681cfb68742" target="_top" xlink:title=" ">
<polygon fill="white" stroke="#666666" points="1457,-150.5 1342,-150.5 1342,-132 1457,-132 1457,-150.5"/>
<text text-anchor="middle" x="1399.5" y="-137" font-family="Helvetica,sans-Serif" font-size="10.00">utils_config_write_long</text>
</a>
</g>
</g>
<!-- Node22&#45;&gt;Node23 -->
<g id="edge29_Node000022_Node000023" class="edge">
<title>Node22&#45;&gt;Node23</title>
<g id="a_edge29_Node000022_Node000023"><a xlink:title=" ">
<path fill="none" stroke="#63b8ff" d="M1482.03,-151.89C1473.8,-150.81 1465.42,-149.72 1457.32,-148.66"/>
<polygon fill="#63b8ff" stroke="#63b8ff" points="1481.36,-155.46 1491.73,-153.28 1482.26,-148.52 1481.36,-155.46"/>
</a>
</g>
</g>
<!-- Node23&#45;&gt;Node4 -->
<g id="edge30_Node000023_Node000004" class="edge">
<title>Node23&#45;&gt;Node4</title>
<g id="a_edge30_Node000023_Node000004"><a xlink:title=" ">
<path fill="none" stroke="#63b8ff" d="M1349.77,-128.84C1330.75,-123.99 1309.27,-118.52 1291.41,-113.97"/>
<polygon fill="#63b8ff" stroke="#63b8ff" points="1348.78,-132.45 1359.34,-131.53 1350.51,-125.67 1348.78,-132.45"/>
</a>
</g>
</g>
<!-- Node24&#45;&gt;Node2 -->
<g id="edge33_Node000024_Node000002" class="edge">
<title>Node24&#45;&gt;Node2</title>
<g id="a_edge33_Node000024_Node000002"><a xlink:title=" ">
<path fill="none" stroke="#63b8ff" d="M1743.13,-166.31C1725.81,-160.98 1706.28,-154.97 1691.08,-150.28"/>
<polygon fill="#63b8ff" stroke="#63b8ff" points="1741.98,-169.93 1752.56,-169.53 1744.04,-163.24 1741.98,-169.93"/>
</a>
</g>
</g>
<!-- Node24&#45;&gt;Node7 -->
<g id="edge32_Node000024_Node000007" class="edge">
<title>Node24&#45;&gt;Node7</title>
<g id="a_edge32_Node000024_Node000007"><a xlink:title=" ">
<path fill="none" stroke="#63b8ff" d="M1757.49,-193.9C1714.14,-215.47 1626.97,-253.25 1548.12,-253.25 1548.12,-253.25 1548.12,-253.25 825.62,-253.25 729.74,-253.25 693.92,-267.09 613.25,-215.25 580.87,-194.44 560.34,-150.98 552.49,-131.75"/>
<polygon fill="#63b8ff" stroke="#63b8ff" points="1758.95,-196.57 1766.28,-188.92 1755.78,-190.33 1758.95,-196.57"/>
</a>
</g>
</g>
<!-- Node25 -->
<g id="Node000025" class="node">
<title>Node25</title>
<g id="a_Node000025"><a xlink:href="a01952.html#ab87e9691e65d65348749f8dc70f24602" target="_top" xlink:title=" ">
<polygon fill="white" stroke="#666666" points="1690.75,-188.5 1637.25,-188.5 1637.25,-170 1690.75,-170 1690.75,-188.5"/>
<text text-anchor="middle" x="1664" y="-175" font-family="Helvetica,sans-Serif" font-size="10.00">conf_set</text>
</a>
</g>
</g>
<!-- Node24&#45;&gt;Node25 -->
<g id="edge34_Node000024_Node000025" class="edge">
<title>Node24&#45;&gt;Node25</title>
<g id="a_edge34_Node000024_Node000025"><a xlink:title=" ">
<path fill="none" stroke="#63b8ff" d="M1715.47,-179.25C1706.86,-179.25 1698.52,-179.25 1691.18,-179.25"/>
<polygon fill="#63b8ff" stroke="#63b8ff" points="1715.47,-182.75 1725.47,-179.25 1715.47,-175.75 1715.47,-182.75"/>
</a>
</g>
</g>
<!-- Node25&#45;&gt;Node22 -->
<g id="edge35_Node000025_Node000022" class="edge">
<title>Node25&#45;&gt;Node22</title>
<g id="a_edge35_Node000025_Node000022"><a xlink:title=" ">
<path fill="none" stroke="#63b8ff" d="M1626.2,-173.16C1618.27,-171.85 1609.73,-170.44 1601.32,-169.05"/>
<polygon fill="#63b8ff" stroke="#63b8ff" points="1625.5,-176.76 1635.93,-174.94 1626.64,-169.85 1625.5,-176.76"/>
</a>
</g>
</g>
</g>
</svg>
