<?xml version="1.0" encoding="UTF-8" standalone="no"?>
<!DOCTYPE svg PUBLIC "-//W3C//DTD SVG 1.1//EN"
 "http://www.w3.org/Graphics/SVG/1.1/DTD/svg11.dtd">
<!-- Generated by graphviz version 12.2.1 (0)
 -->
<!-- Title: arax_vaccel_add_task Pages: 1 -->
<svg width="597pt" height="101pt"
 viewBox="0.00 0.00 597.00 100.50" xmlns="http://www.w3.org/2000/svg" xmlns:xlink="http://www.w3.org/1999/xlink">
<g id="graph0" class="graph" transform="scale(1 1) rotate(0) translate(4 96.5)">
<title>arax_vaccel_add_task</title>
<!-- Node1 -->
<g id="Node000001" class="node">
<title>Node1</title>
<g id="a_Node000001"><a xlink:title=" ">
<polygon fill="#999999" stroke="#666666" points="113.5,-36.5 0,-36.5 0,-18 113.5,-18 113.5,-36.5"/>
<text text-anchor="middle" x="56.75" y="-23" font-family="Helvetica,sans-Serif" font-size="10.00">arax_vaccel_add_task</text>
</a>
</g>
</g>
<!-- Node2 -->
<g id="Node000002" class="node">
<title>Node2</title>
<g id="a_Node000002"><a xlink:href="a01916.html#ab6afd8cc035237c811ce6a1b7727acc3" target="_top" xlink:title=" ">
<polygon fill="white" stroke="#666666" points="258.5,-55.5 149.5,-55.5 149.5,-37 258.5,-37 258.5,-55.5"/>
<text text-anchor="middle" x="204" y="-42" font-family="Helvetica,sans-Serif" font-size="10.00">arax_accel_add_task</text>
</a>
</g>
</g>
<!-- Node1&#45;&gt;Node2 -->
<g id="edge1_Node000001_Node000002" class="edge">
<title>Node1&#45;&gt;Node2</title>
<g id="a_edge1_Node000001_Node000002"><a xlink:title=" ">
<path fill="none" stroke="#63b8ff" d="M113.91,-34.6C121.83,-35.63 130.03,-36.7 138.1,-37.76"/>
<polygon fill="#63b8ff" stroke="#63b8ff" points="137.51,-41.21 147.88,-39.04 138.41,-34.27 137.51,-41.21"/>
</a>
</g>
</g>
<!-- Node9 -->
<g id="Node000009" class="node">
<title>Node9</title>
<g id="a_Node000009"><a xlink:href="a01958.html#a9fae55b169121c4851bb7c0adf4eac47" target="_top" xlink:title=" ">
<polygon fill="white" stroke="#666666" points="249.88,-18.5 158.12,-18.5 158.12,0 249.88,0 249.88,-18.5"/>
<text text-anchor="middle" x="204" y="-5" font-family="Helvetica,sans-Serif" font-size="10.00">utils_queue_push</text>
</a>
</g>
</g>
<!-- Node1&#45;&gt;Node9 -->
<g id="edge8_Node000001_Node000009" class="edge">
<title>Node1&#45;&gt;Node9</title>
<g id="a_edge8_Node000001_Node000009"><a xlink:title=" ">
<path fill="none" stroke="#63b8ff" d="M113.91,-20.29C124.58,-18.97 135.75,-17.58 146.43,-16.26"/>
<polygon fill="#63b8ff" stroke="#63b8ff" points="146.79,-19.74 156.28,-15.04 145.93,-12.8 146.79,-19.74"/>
</a>
</g>
</g>
<!-- Node3 -->
<g id="Node000003" class="node">
<title>Node3</title>
<g id="a_Node000003"><a xlink:href="a02364.html#aed6af4d83e934e3e654ead541b15f2d9" target="_top" xlink:title=" ">
<polygon fill="white" stroke="#666666" points="408.75,-92.5 299.75,-92.5 299.75,-74 408.75,-74 408.75,-92.5"/>
<text text-anchor="middle" x="354.25" y="-79" font-family="Helvetica,sans-Serif" font-size="10.00">async_condition_lock</text>
</a>
</g>
</g>
<!-- Node2&#45;&gt;Node3 -->
<g id="edge2_Node000002_Node000003" class="edge">
<title>Node2&#45;&gt;Node3</title>
<g id="a_edge2_Node000002_Node000003"><a xlink:title=" ">
<path fill="none" stroke="#63b8ff" d="M243.95,-55.97C262.09,-60.5 283.9,-65.94 303.24,-70.77"/>
<polygon fill="#63b8ff" stroke="#63b8ff" points="302.28,-74.14 312.83,-73.16 303.98,-67.35 302.28,-74.14"/>
</a>
</g>
</g>
<!-- Node5 -->
<g id="Node000005" class="node">
<title>Node5</title>
<g id="a_Node000005"><a xlink:href="a02364.html#a45a896fb606c2aa66a5a4c2af59ce494" target="_top" xlink:title=" ">
<polygon fill="white" stroke="#666666" points="411.75,-55.5 296.75,-55.5 296.75,-37 411.75,-37 411.75,-55.5"/>
<text text-anchor="middle" x="354.25" y="-42" font-family="Helvetica,sans-Serif" font-size="10.00">async_condition_notify</text>
</a>
</g>
</g>
<!-- Node2&#45;&gt;Node5 -->
<g id="edge4_Node000002_Node000005" class="edge">
<title>Node2&#45;&gt;Node5</title>
<g id="a_edge4_Node000002_Node000005"><a xlink:title=" ">
<path fill="none" stroke="#63b8ff" d="M258.94,-46.25C267.4,-46.25 276.24,-46.25 284.98,-46.25"/>
<polygon fill="#63b8ff" stroke="#63b8ff" points="284.84,-49.75 294.84,-46.25 284.84,-42.75 284.84,-49.75"/>
</a>
</g>
</g>
<!-- Node7 -->
<g id="Node000007" class="node">
<title>Node7</title>
<g id="a_Node000007"><a xlink:href="a02364.html#a3bbcb7c4c024e99d5c4ba52b61dfbbf7" target="_top" xlink:title=" ">
<polygon fill="white" stroke="#666666" points="414,-18.5 294.5,-18.5 294.5,0 414,0 414,-18.5"/>
<text text-anchor="middle" x="354.25" y="-5" font-family="Helvetica,sans-Serif" font-size="10.00">async_condition_unlock</text>
</a>
</g>
</g>
<!-- Node2&#45;&gt;Node7 -->
<g id="edge6_Node000002_Node000007" class="edge">
<title>Node2&#45;&gt;Node7</title>
<g id="a_edge6_Node000002_Node000007"><a xlink:title=" ">
<path fill="none" stroke="#63b8ff" d="M243.95,-36.53C262.09,-32 283.9,-26.56 303.24,-21.73"/>
<polygon fill="#63b8ff" stroke="#63b8ff" points="303.98,-25.15 312.83,-19.34 302.28,-18.36 303.98,-25.15"/>
</a>
</g>
</g>
<!-- Node4 -->
<g id="Node000004" class="node">
<title>Node4</title>
<g id="a_Node000004"><a xlink:href="a02358.html#aebf9e72bb6cbd8b9e33489d46c25075d" target="_top" xlink:title=" ">
<polygon fill="white" stroke="#666666" points="577.75,-92.5 461.25,-92.5 461.25,-74 577.75,-74 577.75,-92.5"/>
<text text-anchor="middle" x="519.5" y="-79" font-family="Helvetica,sans-Serif" font-size="10.00">async_completion_wait</text>
</a>
</g>
</g>
<!-- Node3&#45;&gt;Node4 -->
<g id="edge3_Node000003_Node000004" class="edge">
<title>Node3&#45;&gt;Node4</title>
<g id="a_edge3_Node000003_Node000004"><a xlink:title=" ">
<path fill="none" stroke="#63b8ff" d="M409.16,-83.25C422.14,-83.25 436.19,-83.25 449.76,-83.25"/>
<polygon fill="#63b8ff" stroke="#63b8ff" points="449.49,-86.75 459.49,-83.25 449.49,-79.75 449.49,-86.75"/>
</a>
</g>
</g>
<!-- Node6 -->
<g id="Node000006" class="node">
<title>Node6</title>
<g id="a_Node000006"><a xlink:href="a02358.html#a0fa370eee5160963e617d1daf1c07363" target="_top" xlink:title=" ">
<polygon fill="white" stroke="#666666" points="575.88,-55.5 463.12,-55.5 463.12,-37 575.88,-37 575.88,-55.5"/>
<text text-anchor="middle" x="519.5" y="-42" font-family="Helvetica,sans-Serif" font-size="10.00">async_semaphore_inc</text>
</a>
</g>
</g>
<!-- Node5&#45;&gt;Node6 -->
<g id="edge5_Node000005_Node000006" class="edge">
<title>Node5&#45;&gt;Node6</title>
<g id="a_edge5_Node000005_Node000006"><a xlink:title=" ">
<path fill="none" stroke="#63b8ff" d="M411.89,-46.25C424.64,-46.25 438.29,-46.25 451.42,-46.25"/>
<polygon fill="#63b8ff" stroke="#63b8ff" points="451.28,-49.75 461.28,-46.25 451.27,-42.75 451.28,-49.75"/>
</a>
</g>
</g>
<!-- Node8 -->
<g id="Node000008" class="node">
<title>Node8</title>
<g id="a_Node000008"><a xlink:href="a02358.html#ad1d30ecbf6bff6457b680aa940281072" target="_top" xlink:title=" ">
<polygon fill="white" stroke="#666666" points="589,-18.5 450,-18.5 450,0 589,0 589,-18.5"/>
<text text-anchor="middle" x="519.5" y="-5" font-family="Helvetica,sans-Serif" font-size="10.00">async_completion_complete</text>
</a>
</g>
</g>
<!-- Node7&#45;&gt;Node8 -->
<g id="edge7_Node000007_Node000008" class="edge">
<title>Node7&#45;&gt;Node8</title>
<g id="a_edge7_Node000007_Node000008"><a xlink:title=" ">
<path fill="none" stroke="#63b8ff" d="M414.19,-9.25C422.01,-9.25 430.13,-9.25 438.24,-9.25"/>
<polygon fill="#63b8ff" stroke="#63b8ff" points="438.14,-12.75 448.14,-9.25 438.14,-5.75 438.14,-12.75"/>
</a>
</g>
</g>
</g>
</svg>
