<?xml version="1.0" encoding="UTF-8" standalone="no"?>
<!DOCTYPE svg PUBLIC "-//W3C//DTD SVG 1.1//EN"
 "http://www.w3.org/Graphics/SVG/1.1/DTD/svg11.dtd">
<!-- Generated by graphviz version 12.2.1 (0)
 -->
<!-- Title: arax_proc_init Pages: 1 -->
<svg width="845pt" height="175pt"
 viewBox="0.00 0.00 845.00 174.50" xmlns="http://www.w3.org/2000/svg" xmlns:xlink="http://www.w3.org/1999/xlink">
<g id="graph0" class="graph" transform="scale(1 1) rotate(0) translate(4 170.5)">
<title>arax_proc_init</title>
<!-- Node1 -->
<g id="Node000001" class="node">
<title>Node1</title>
<g id="a_Node000001"><a xlink:title=" ">
<polygon fill="#999999" stroke="#666666" points="77.5,-73.5 0,-73.5 0,-55 77.5,-55 77.5,-73.5"/>
<text text-anchor="middle" x="38.75" y="-60" font-family="Helvetica,sans-Serif" font-size="10.00">arax_proc_init</text>
</a>
</g>
</g>
<!-- Node2 -->
<g id="Node000002" class="node">
<title>Node2</title>
<g id="a_Node000002"><a xlink:href="a01925.html#a402bbd6fa197c2c48d527325e5e2cf5b" target="_top" xlink:title=" ">
<polygon fill="white" stroke="#666666" points="218,-73.5 113.5,-73.5 113.5,-55 218,-55 218,-73.5"/>
<text text-anchor="middle" x="165.75" y="-60" font-family="Helvetica,sans-Serif" font-size="10.00">arax_object_register</text>
</a>
</g>
</g>
<!-- Node1&#45;&gt;Node2 -->
<g id="edge1_Node000001_Node000002" class="edge">
<title>Node1&#45;&gt;Node2</title>
<g id="a_edge1_Node000001_Node000002"><a xlink:title=" ">
<path fill="none" stroke="#63b8ff" d="M77.93,-64.25C85.63,-64.25 93.92,-64.25 102.2,-64.25"/>
<polygon fill="#63b8ff" stroke="#63b8ff" points="101.93,-67.75 111.93,-64.25 101.93,-60.75 101.93,-67.75"/>
</a>
</g>
</g>
<!-- Node3 -->
<g id="Node000003" class="node">
<title>Node3</title>
<g id="a_Node000003"><a xlink:href="a01928.html#a6cc54ee40009c61b5f6526f5edff004f" target="_top" xlink:title=" ">
<polygon fill="white" stroke="#666666" points="356.25,-129.5 254,-129.5 254,-111 356.25,-111 356.25,-129.5"/>
<text text-anchor="middle" x="305.12" y="-116" font-family="Helvetica,sans-Serif" font-size="10.00">arax_pipe_size_dec</text>
</a>
</g>
</g>
<!-- Node2&#45;&gt;Node3 -->
<g id="edge2_Node000002_Node000003" class="edge">
<title>Node2&#45;&gt;Node3</title>
<g id="a_edge2_Node000002_Node000003"><a xlink:title=" ">
<path fill="none" stroke="#63b8ff" d="M188.89,-73.92C206.46,-81.53 231.71,-92.3 254,-101.25 258.37,-103 262.98,-104.81 267.55,-106.57"/>
<polygon fill="#63b8ff" stroke="#63b8ff" points="266.03,-109.74 276.62,-110.04 268.53,-103.2 266.03,-109.74"/>
</a>
</g>
</g>
<!-- Node11 -->
<g id="Node000011" class="node">
<title>Node11</title>
<g id="a_Node000011"><a xlink:href="a02355.html#ac9828b5c2758940f6d3c7d4335228de5" target="_top" xlink:title=" ">
<polygon fill="white" stroke="#666666" points="354.75,-92.5 255.5,-92.5 255.5,-74 354.75,-74 354.75,-92.5"/>
<text text-anchor="middle" x="305.12" y="-79" font-family="Helvetica,sans-Serif" font-size="10.00">arch_alloc_allocate</text>
</a>
</g>
</g>
<!-- Node2&#45;&gt;Node11 -->
<g id="edge14_Node000002_Node000011" class="edge">
<title>Node2&#45;&gt;Node11</title>
<g id="a_edge14_Node000002_Node000011"><a xlink:title=" ">
<path fill="none" stroke="#63b8ff" d="M218.29,-71.38C226.56,-72.52 235.19,-73.72 243.64,-74.89"/>
<polygon fill="#63b8ff" stroke="#63b8ff" points="243.14,-78.35 253.52,-76.25 244.1,-71.41 243.14,-78.35"/>
</a>
</g>
</g>
<!-- Node12 -->
<g id="Node000012" class="node">
<title>Node12</title>
<g id="a_Node000012"><a xlink:href="a01955.html#ae06a9e78e6a4f6c9c8afcf0f4862ce29" target="_top" xlink:title=" ">
<polygon fill="white" stroke="#666666" points="341.62,-55.5 268.62,-55.5 268.62,-37 341.62,-37 341.62,-55.5"/>
<text text-anchor="middle" x="305.12" y="-42" font-family="Helvetica,sans-Serif" font-size="10.00">utils_list_add</text>
</a>
</g>
</g>
<!-- Node2&#45;&gt;Node12 -->
<g id="edge15_Node000002_Node000012" class="edge">
<title>Node2&#45;&gt;Node12</title>
<g id="a_edge15_Node000002_Node000012"><a xlink:title=" ">
<path fill="none" stroke="#63b8ff" d="M218.29,-57.5C231,-55.83 244.55,-54.06 257.03,-52.42"/>
<polygon fill="#63b8ff" stroke="#63b8ff" points="257.18,-55.93 266.64,-51.16 256.27,-48.99 257.18,-55.93"/>
</a>
</g>
</g>
<!-- Node14 -->
<g id="Node000014" class="node">
<title>Node14</title>
<g id="a_Node000014"><a xlink:href="a01955.html#a63f2791c9b5c8e2fa15967cfafb7ccbb" target="_top" xlink:title=" ">
<polygon fill="white" stroke="#666666" points="353.25,-18.5 257,-18.5 257,0 353.25,0 353.25,-18.5"/>
<text text-anchor="middle" x="305.12" y="-5" font-family="Helvetica,sans-Serif" font-size="10.00">utils_list_node_init</text>
</a>
</g>
</g>
<!-- Node2&#45;&gt;Node14 -->
<g id="edge17_Node000002_Node000014" class="edge">
<title>Node2&#45;&gt;Node14</title>
<g id="a_edge17_Node000002_Node000014"><a xlink:title=" ">
<path fill="none" stroke="#63b8ff" d="M189.64,-54.59C207.2,-47.24 232.06,-36.93 254,-28.25 258.38,-26.52 262.99,-24.73 267.56,-22.97"/>
<polygon fill="#63b8ff" stroke="#63b8ff" points="268.54,-26.34 276.64,-19.51 266.05,-19.8 268.54,-26.34"/>
</a>
</g>
</g>
<!-- Node3&#45;&gt;Node3 -->
<g id="edge3_Node000003_Node000003" class="edge">
<title>Node3&#45;&gt;Node3</title>
<g id="a_edge3_Node000003_Node000003"><a xlink:title=" ">
<path fill="none" stroke="#63b8ff" d="M283.64,-129.75C273.19,-138.32 280.35,-147.5 305.12,-147.5 319.06,-147.5 327.42,-144.59 330.21,-140.53"/>
<polygon fill="#63b8ff" stroke="#63b8ff" points="333.58,-139.56 327.09,-131.18 326.94,-141.77 333.58,-139.56"/>
</a>
</g>
</g>
<!-- Node4 -->
<g id="Node000004" class="node">
<title>Node4</title>
<g id="a_Node000004"><a xlink:href="a01940.html#a63b80783cfb3106ec4169ce082f153c0" target="_top" xlink:title=" ">
<polygon fill="white" stroke="#666666" points="506.5,-129.5 392.25,-129.5 392.25,-111 506.5,-111 506.5,-129.5"/>
<text text-anchor="middle" x="449.38" y="-116" font-family="Helvetica,sans-Serif" font-size="10.00">arax_throttle_size_dec</text>
</a>
</g>
</g>
<!-- Node3&#45;&gt;Node4 -->
<g id="edge4_Node000003_Node000004" class="edge">
<title>Node3&#45;&gt;Node4</title>
<g id="a_edge4_Node000003_Node000004"><a xlink:title=" ">
<path fill="none" stroke="#63b8ff" d="M356.68,-120.25C364.49,-120.25 372.67,-120.25 380.79,-120.25"/>
<polygon fill="#63b8ff" stroke="#63b8ff" points="380.67,-123.75 390.67,-120.25 380.67,-116.75 380.67,-123.75"/>
</a>
</g>
</g>
<!-- Node4&#45;&gt;Node4 -->
<g id="edge5_Node000004_Node000004" class="edge">
<title>Node4&#45;&gt;Node4</title>
<g id="a_edge5_Node000004_Node000004"><a xlink:title=" ">
<path fill="none" stroke="#63b8ff" d="M427.14,-129.75C416.33,-138.32 423.74,-147.5 449.38,-147.5 463.8,-147.5 472.45,-144.59 475.34,-140.53"/>
<polygon fill="#63b8ff" stroke="#63b8ff" points="478.68,-139.48 472.1,-131.18 472.06,-141.77 478.68,-139.48"/>
</a>
</g>
</g>
<!-- Node5 -->
<g id="Node000005" class="node">
<title>Node5</title>
<g id="a_Node000005"><a xlink:href="a02364.html#aed6af4d83e934e3e654ead541b15f2d9" target="_top" xlink:title=" ">
<polygon fill="white" stroke="#666666" points="656.75,-166.5 547.75,-166.5 547.75,-148 656.75,-148 656.75,-166.5"/>
<text text-anchor="middle" x="602.25" y="-153" font-family="Helvetica,sans-Serif" font-size="10.00">async_condition_lock</text>
</a>
</g>
</g>
<!-- Node4&#45;&gt;Node5 -->
<g id="edge6_Node000004_Node000005" class="edge">
<title>Node4&#45;&gt;Node5</title>
<g id="a_edge6_Node000004_Node000005"><a xlink:title=" ">
<path fill="none" stroke="#63b8ff" d="M490.02,-129.97C508.57,-134.52 530.88,-139.99 550.63,-144.84"/>
<polygon fill="#63b8ff" stroke="#63b8ff" points="549.6,-148.19 560.14,-147.17 551.26,-141.39 549.6,-148.19"/>
</a>
</g>
</g>
<!-- Node7 -->
<g id="Node000007" class="node">
<title>Node7</title>
<g id="a_Node000007"><a xlink:href="a02364.html#a3bbcb7c4c024e99d5c4ba52b61dfbbf7" target="_top" xlink:title=" ">
<polygon fill="white" stroke="#666666" points="662,-92.5 542.5,-92.5 542.5,-74 662,-74 662,-92.5"/>
<text text-anchor="middle" x="602.25" y="-79" font-family="Helvetica,sans-Serif" font-size="10.00">async_condition_unlock</text>
</a>
</g>
</g>
<!-- Node4&#45;&gt;Node7 -->
<g id="edge8_Node000004_Node000007" class="edge">
<title>Node4&#45;&gt;Node7</title>
<g id="a_edge8_Node000004_Node000007"><a xlink:title=" ">
<path fill="none" stroke="#63b8ff" d="M490.02,-110.53C508.57,-105.98 530.88,-100.51 550.63,-95.66"/>
<polygon fill="#63b8ff" stroke="#63b8ff" points="551.26,-99.11 560.14,-93.33 549.6,-92.31 551.26,-99.11"/>
</a>
</g>
</g>
<!-- Node9 -->
<g id="Node000009" class="node">
<title>Node9</title>
<g id="a_Node000009"><a xlink:href="a02364.html#a1bfeaeb9b81855e640d7a67cc9d92b17" target="_top" xlink:title=" ">
<polygon fill="white" stroke="#666666" points="656.38,-129.5 548.12,-129.5 548.12,-111 656.38,-111 656.38,-129.5"/>
<text text-anchor="middle" x="602.25" y="-116" font-family="Helvetica,sans-Serif" font-size="10.00">async_condition_wait</text>
</a>
</g>
</g>
<!-- Node4&#45;&gt;Node9 -->
<g id="edge10_Node000004_Node000009" class="edge">
<title>Node4&#45;&gt;Node9</title>
<g id="a_edge10_Node000004_Node000009"><a xlink:title=" ">
<path fill="none" stroke="#63b8ff" d="M506.98,-120.25C516.6,-120.25 526.65,-120.25 536.46,-120.25"/>
<polygon fill="#63b8ff" stroke="#63b8ff" points="536.3,-123.75 546.3,-120.25 536.3,-116.75 536.3,-123.75"/>
</a>
</g>
</g>
<!-- Node6 -->
<g id="Node000006" class="node">
<title>Node6</title>
<g id="a_Node000006"><a xlink:href="a02358.html#aebf9e72bb6cbd8b9e33489d46c25075d" target="_top" xlink:title=" ">
<polygon fill="white" stroke="#666666" points="825.75,-166.5 709.25,-166.5 709.25,-148 825.75,-148 825.75,-166.5"/>
<text text-anchor="middle" x="767.5" y="-153" font-family="Helvetica,sans-Serif" font-size="10.00">async_completion_wait</text>
</a>
</g>
</g>
<!-- Node5&#45;&gt;Node6 -->
<g id="edge7_Node000005_Node000006" class="edge">
<title>Node5&#45;&gt;Node6</title>
<g id="a_edge7_Node000005_Node000006"><a xlink:title=" ">
<path fill="none" stroke="#63b8ff" d="M657.16,-157.25C670.14,-157.25 684.19,-157.25 697.76,-157.25"/>
<polygon fill="#63b8ff" stroke="#63b8ff" points="697.49,-160.75 707.49,-157.25 697.49,-153.75 697.49,-160.75"/>
</a>
</g>
</g>
<!-- Node8 -->
<g id="Node000008" class="node">
<title>Node8</title>
<g id="a_Node000008"><a xlink:href="a02358.html#ad1d30ecbf6bff6457b680aa940281072" target="_top" xlink:title=" ">
<polygon fill="white" stroke="#666666" points="837,-92.5 698,-92.5 698,-74 837,-74 837,-92.5"/>
<text text-anchor="middle" x="767.5" y="-79" font-family="Helvetica,sans-Serif" font-size="10.00">async_completion_complete</text>
</a>
</g>
</g>
<!-- Node7&#45;&gt;Node8 -->
<g id="edge9_Node000007_Node000008" class="edge">
<title>Node7&#45;&gt;Node8</title>
<g id="a_edge9_Node000007_Node000008"><a xlink:title=" ">
<path fill="none" stroke="#63b8ff" d="M662.19,-83.25C670.01,-83.25 678.13,-83.25 686.24,-83.25"/>
<polygon fill="#63b8ff" stroke="#63b8ff" points="686.14,-86.75 696.14,-83.25 686.14,-79.75 686.14,-86.75"/>
</a>
</g>
</g>
<!-- Node9&#45;&gt;Node6 -->
<g id="edge12_Node000009_Node000006" class="edge">
<title>Node9&#45;&gt;Node6</title>
<g id="a_edge12_Node000009_Node000006"><a xlink:title=" ">
<path fill="none" stroke="#63b8ff" d="M646.14,-129.97C666.49,-134.58 691.03,-140.15 712.62,-145.04"/>
<polygon fill="#63b8ff" stroke="#63b8ff" points="711.61,-148.4 722.14,-147.19 713.16,-141.57 711.61,-148.4"/>
</a>
</g>
</g>
<!-- Node9&#45;&gt;Node8 -->
<g id="edge11_Node000009_Node000008" class="edge">
<title>Node9&#45;&gt;Node8</title>
<g id="a_edge11_Node000009_Node000008"><a xlink:title=" ">
<path fill="none" stroke="#63b8ff" d="M646.14,-110.53C666.49,-105.92 691.03,-100.35 712.62,-95.46"/>
<polygon fill="#63b8ff" stroke="#63b8ff" points="713.16,-98.93 722.14,-93.31 711.61,-92.1 713.16,-98.93"/>
</a>
</g>
</g>
<!-- Node10 -->
<g id="Node000010" class="node">
<title>Node10</title>
<g id="a_Node000010"><a xlink:href="a02358.html#a7ab7c7fe9cb93434dde72a4e464a7e69" target="_top" xlink:title=" ">
<polygon fill="white" stroke="#666666" points="825.38,-129.5 709.62,-129.5 709.62,-111 825.38,-111 825.38,-129.5"/>
<text text-anchor="middle" x="767.5" y="-116" font-family="Helvetica,sans-Serif" font-size="10.00">async_semaphore_dec</text>
</a>
</g>
</g>
<!-- Node9&#45;&gt;Node10 -->
<g id="edge13_Node000009_Node000010" class="edge">
<title>Node9&#45;&gt;Node10</title>
<g id="a_edge13_Node000009_Node000010"><a xlink:title=" ">
<path fill="none" stroke="#63b8ff" d="M656.7,-120.25C669.85,-120.25 684.11,-120.25 697.87,-120.25"/>
<polygon fill="#63b8ff" stroke="#63b8ff" points="697.76,-123.75 707.76,-120.25 697.76,-116.75 697.76,-123.75"/>
</a>
</g>
</g>
<!-- Node13 -->
<g id="Node000013" class="node">
<title>Node13</title>
<g id="a_Node000013"><a xlink:href="a01955.html#a5c575f52a42e0e0d2fb41bda2d1268ce" target="_top" xlink:title=" ">
<polygon fill="white" stroke="#666666" points="499,-55.5 399.75,-55.5 399.75,-37 499,-37 499,-55.5"/>
<text text-anchor="middle" x="449.38" y="-42" font-family="Helvetica,sans-Serif" font-size="10.00">utils_list_node_add</text>
</a>
</g>
</g>
<!-- Node12&#45;&gt;Node13 -->
<g id="edge16_Node000012_Node000013" class="edge">
<title>Node12&#45;&gt;Node13</title>
<g id="a_edge16_Node000012_Node000013"><a xlink:title=" ">
<path fill="none" stroke="#63b8ff" d="M342.02,-46.25C356,-46.25 372.4,-46.25 388.08,-46.25"/>
<polygon fill="#63b8ff" stroke="#63b8ff" points="387.81,-49.75 397.81,-46.25 387.81,-42.75 387.81,-49.75"/>
</a>
</g>
</g>
</g>
</svg>
