<?xml version="1.0" encoding="UTF-8" standalone="no"?>
<!DOCTYPE svg PUBLIC "-//W3C//DTD SVG 1.1//EN"
 "http://www.w3.org/Graphics/SVG/1.1/DTD/svg11.dtd">
<!-- Generated by graphviz version 12.2.1 (0)
 -->
<!-- Title: add_segment Pages: 1 -->
<svg width="208pt" height="64pt"
 viewBox="0.00 0.00 208.00 63.50" xmlns="http://www.w3.org/2000/svg" xmlns:xlink="http://www.w3.org/1999/xlink">
<g id="graph0" class="graph" transform="scale(1 1) rotate(0) translate(4 59.5)">
<title>add_segment</title>
<!-- Node1 -->
<g id="Node000001" class="node">
<title>Node1</title>
<g id="a_Node000001"><a xlink:title=" ">
<polygon fill="#999999" stroke="#666666" points="74.5,-36.5 0,-36.5 0,-18 74.5,-18 74.5,-36.5"/>
<text text-anchor="middle" x="37.25" y="-23" font-family="Helvetica,sans-Serif" font-size="10.00">add_segment</text>
</a>
</g>
</g>
<!-- Node2 -->
<g id="Node000002" class="node">
<title>Node2</title>
<g id="a_Node000002"><a xlink:href="a01901.html#a09ce4644252dfd54eb489e77d0adfd20" target="_top" xlink:title=" ">
<polygon fill="white" stroke="#666666" points="179,-55.5 131.5,-55.5 131.5,-37 179,-37 179,-55.5"/>
<text text-anchor="middle" x="155.25" y="-42" font-family="Helvetica,sans-Serif" font-size="10.00">init_top</text>
</a>
</g>
</g>
<!-- Node1&#45;&gt;Node2 -->
<g id="edge1_Node000001_Node000002" class="edge">
<title>Node1&#45;&gt;Node2</title>
<g id="a_edge1_Node000001_Node000002"><a xlink:title=" ">
<path fill="none" stroke="#63b8ff" d="M74.95,-33.26C89.37,-35.62 105.82,-38.32 119.99,-40.64"/>
<polygon fill="#63b8ff" stroke="#63b8ff" points="119.33,-44.08 129.77,-42.24 120.47,-37.17 119.33,-44.08"/>
</a>
</g>
</g>
<!-- Node3 -->
<g id="Node000003" class="node">
<title>Node3</title>
<g id="a_Node000003"><a xlink:href="a01901.html#adc1656892fa59cbd2e3b60a2608dfefc" target="_top" xlink:title=" ">
<polygon fill="white" stroke="#666666" points="200,-18.5 110.5,-18.5 110.5,0 200,0 200,-18.5"/>
<text text-anchor="middle" x="155.25" y="-5" font-family="Helvetica,sans-Serif" font-size="10.00">segment_holding</text>
</a>
</g>
</g>
<!-- Node1&#45;&gt;Node3 -->
<g id="edge2_Node000001_Node000003" class="edge">
<title>Node1&#45;&gt;Node3</title>
<g id="a_edge2_Node000001_Node000003"><a xlink:title=" ">
<path fill="none" stroke="#63b8ff" d="M74.95,-21.55C82.53,-20.38 90.68,-19.12 98.75,-17.86"/>
<polygon fill="#63b8ff" stroke="#63b8ff" points="99.22,-21.33 108.57,-16.34 98.15,-14.41 99.22,-21.33"/>
</a>
</g>
</g>
</g>
</svg>
