<?xml version="1.0" encoding="UTF-8" standalone="no"?>
<!DOCTYPE svg PUBLIC "-//W3C//DTD SVG 1.1//EN"
 "http://www.w3.org/Graphics/SVG/1.1/DTD/svg11.dtd">
<!-- Generated by graphviz version 8.0.5 (0)
 -->
<!-- Title: arax_data.c Pages: 1 -->
<svg width="1021pt" height="463pt"
 viewBox="0.00 0.00 1021.38 462.50" xmlns="http://www.w3.org/2000/svg" xmlns:xlink="http://www.w3.org/1999/xlink">
<g id="graph0" class="graph" transform="scale(1 1) rotate(0) translate(4 458.5)">
<title>arax_data.c</title>
<!-- Node1 -->
<g id="Node000001" class="node">
<title>Node1</title>
<g id="a_Node000001"><a xlink:title=" ">
<polygon fill="#999999" stroke="#666666" points="802.5,-454.5 734.75,-454.5 734.75,-436 802.5,-436 802.5,-454.5"/>
<text text-anchor="middle" x="768.62" y="-441" font-family="Helvetica,sans-Serif" font-size="10.00">arax_data.c</text>
</a>
</g>
</g>
<!-- Node2 -->
<g id="Node000002" class="node">
<title>Node2</title>
<g id="a_Node000002"><a xlink:href="a01397.html" target="_top" xlink:title=" ">
<polygon fill="white" stroke="#666666" points="611.5,-345.5 543.75,-345.5 543.75,-327 611.5,-327 611.5,-345.5"/>
<text text-anchor="middle" x="577.62" y="-332" font-family="Helvetica,sans-Serif" font-size="10.00">arax_data.h</text>
</a>
</g>
</g>
<!-- Node1&#45;&gt;Node2 -->
<g id="edge1_Node000001_Node000002" class="edge">
<title>Node1&#45;&gt;Node2</title>
<g id="a_edge1_Node000001_Node000002"><a xlink:title=" ">
<path fill="none" stroke="#63b8ff" d="M734.54,-444.86C696.04,-443.65 633.91,-435.74 596.62,-400 584.93,-388.79 580.37,-370.65 578.62,-356.75"/>
<polygon fill="#63b8ff" stroke="#63b8ff" points="582.03,-356.58 577.7,-346.91 575.06,-357.17 582.03,-356.58"/>
</a>
</g>
</g>
<!-- Node23 -->
<g id="Node000023" class="node">
<title>Node23</title>
<g id="a_Node000023"><a xlink:href="a01412.html" target="_top" xlink:title=" ">
<polygon fill="white" stroke="#666666" points="437.5,-291 369.75,-291 369.75,-272.5 437.5,-272.5 437.5,-291"/>
<text text-anchor="middle" x="403.62" y="-277.5" font-family="Helvetica,sans-Serif" font-size="10.00">arax_task.h</text>
</a>
</g>
</g>
<!-- Node1&#45;&gt;Node23 -->
<g id="edge35_Node000001_Node000023" class="edge">
<title>Node1&#45;&gt;Node23</title>
<g id="a_edge35_Node000001_Node000023"><a xlink:title=" ">
<path fill="none" stroke="#63b8ff" d="M734.55,-439.93C695.98,-434.21 631.87,-422.16 580.62,-400 517.77,-372.82 452.93,-323.34 422.08,-298.24"/>
<polygon fill="#63b8ff" stroke="#63b8ff" points="424.59,-294.94 414.64,-291.29 420.13,-300.35 424.59,-294.94"/>
</a>
</g>
</g>
<!-- Node25 -->
<g id="Node000025" class="node">
<title>Node25</title>
<g id="a_Node000025"><a xlink:href="a01400.html" target="_top" xlink:title=" ">
<polygon fill="white" stroke="#666666" points="707.38,-400 605.88,-400 605.88,-381.5 707.38,-381.5 707.38,-400"/>
<text text-anchor="middle" x="656.62" y="-386.5" font-family="Helvetica,sans-Serif" font-size="10.00">arax_data_private.h</text>
</a>
</g>
</g>
<!-- Node1&#45;&gt;Node25 -->
<g id="edge40_Node000001_Node000025" class="edge">
<title>Node1&#45;&gt;Node25</title>
<g id="a_edge40_Node000001_Node000025"><a xlink:title=" ">
<path fill="none" stroke="#63b8ff" d="M750.13,-435.58C732.38,-427.26 705.32,-414.58 684.87,-404.99"/>
<polygon fill="#63b8ff" stroke="#63b8ff" points="686.69,-401.51 676.15,-400.43 683.72,-407.85 686.69,-401.51"/>
</a>
</g>
</g>
<!-- Node26 -->
<g id="Node000026" class="node">
<title>Node26</title>
<g id="a_Node000026"><a xlink:href="a01349.html" target="_top" xlink:title=" ">
<polygon fill="white" stroke="#666666" points="709.12,-345.5 642.12,-345.5 642.12,-327 709.12,-327 709.12,-345.5"/>
<text text-anchor="middle" x="675.62" y="-332" font-family="Helvetica,sans-Serif" font-size="10.00">arax_pipe.h</text>
</a>
</g>
</g>
<!-- Node1&#45;&gt;Node26 -->
<g id="edge42_Node000001_Node000026" class="edge">
<title>Node1&#45;&gt;Node26</title>
<g id="a_edge42_Node000001_Node000026"><a xlink:title=" ">
<path fill="none" stroke="#63b8ff" d="M761.71,-435.6C751.88,-423.38 733.22,-400.44 716.62,-381.5 708.43,-372.15 699.01,-361.95 691.27,-353.7"/>
<polygon fill="#63b8ff" stroke="#63b8ff" points="694.35,-351.8 684.94,-346.93 689.26,-356.61 694.35,-351.8"/>
</a>
</g>
</g>
<!-- Node28 -->
<g id="Node000028" class="node">
<title>Node28</title>
<g id="a_Node000028"><a xlink:href="a01409.html" target="_top" xlink:title=" ">
<polygon fill="white" stroke="#666666" points="894.75,-291 834.5,-291 834.5,-272.5 894.75,-272.5 894.75,-291"/>
<text text-anchor="middle" x="864.62" y="-277.5" font-family="Helvetica,sans-Serif" font-size="10.00">arax_ptr.h</text>
</a>
</g>
</g>
<!-- Node1&#45;&gt;Node28 -->
<g id="edge51_Node000001_Node000028" class="edge">
<title>Node1&#45;&gt;Node28</title>
<g id="a_edge51_Node000001_Node000028"><a xlink:title=" ">
<path fill="none" stroke="#63b8ff" d="M797.63,-435.63C815.25,-428.85 836.61,-417.55 848.62,-400 868.79,-370.57 868.96,-327.11 866.98,-302.2"/>
<polygon fill="#63b8ff" stroke="#63b8ff" points="870.37,-301.92 865.88,-292.32 863.41,-302.62 870.37,-301.92"/>
</a>
</g>
</g>
<!-- Node29 -->
<g id="Node000029" class="node">
<title>Node29</title>
<g id="a_Node000029"><a xlink:title=" ">
<polygon fill="#e0e0e0" stroke="#999999" points="947.75,-400 899.5,-400 899.5,-381.5 947.75,-381.5 947.75,-400"/>
<text text-anchor="middle" x="923.62" y="-386.5" font-family="Helvetica,sans-Serif" font-size="10.00">string.h</text>
</a>
</g>
</g>
<!-- Node1&#45;&gt;Node29 -->
<g id="edge53_Node000001_Node000029" class="edge">
<title>Node1&#45;&gt;Node29</title>
<g id="a_edge53_Node000001_Node000029"><a xlink:title=" ">
<path fill="none" stroke="#63b8ff" d="M794.22,-435.58C819.99,-426.85 859.93,-413.32 888.62,-403.61"/>
<polygon fill="#63b8ff" stroke="#63b8ff" points="889.67,-406.61 898.02,-400.09 887.42,-399.98 889.67,-406.61"/>
</a>
</g>
</g>
<!-- Node30 -->
<g id="Node000030" class="node">
<title>Node30</title>
<g id="a_Node000030"><a xlink:title=" ">
<polygon fill="#e0e0e0" stroke="#999999" points="1013.38,-400 965.88,-400 965.88,-381.5 1013.38,-381.5 1013.38,-400"/>
<text text-anchor="middle" x="989.62" y="-386.5" font-family="Helvetica,sans-Serif" font-size="10.00">stdlib.h</text>
</a>
</g>
</g>
<!-- Node1&#45;&gt;Node30 -->
<g id="edge54_Node000001_Node000030" class="edge">
<title>Node1&#45;&gt;Node30</title>
<g id="a_edge54_Node000001_Node000030"><a xlink:title=" ">
<path fill="none" stroke="#63b8ff" d="M802.96,-436.32C838.54,-428.07 896.04,-414.64 954.88,-400.4"/>
<polygon fill="#63b8ff" stroke="#63b8ff" points="955.59,-403.58 964.48,-397.83 953.94,-396.78 955.59,-403.58"/>
</a>
</g>
</g>
<!-- Node31 -->
<g id="Node000031" class="node">
<title>Node31</title>
<g id="a_Node000031"><a xlink:href="a01385.html" target="_top" xlink:title=" ">
<polygon fill="white" stroke="#666666" points="839.62,-400 763.62,-400 763.62,-381.5 839.62,-381.5 839.62,-400"/>
<text text-anchor="middle" x="801.62" y="-386.5" font-family="Helvetica,sans-Serif" font-size="10.00">utils/system.h</text>
</a>
</g>
</g>
<!-- Node1&#45;&gt;Node31 -->
<g id="edge55_Node000001_Node000031" class="edge">
<title>Node1&#45;&gt;Node31</title>
<g id="a_edge55_Node000001_Node000031"><a xlink:title=" ">
<path fill="none" stroke="#63b8ff" d="M774.07,-435.58C778.54,-428.47 785.01,-418.18 790.56,-409.35"/>
<polygon fill="#63b8ff" stroke="#63b8ff" points="793.92,-411.59 796.28,-401.26 787.99,-407.86 793.92,-411.59"/>
</a>
</g>
</g>
<!-- Node3 -->
<g id="Node000003" class="node">
<title>Node3</title>
<g id="a_Node000003"><a xlink:href="a01346.html" target="_top" xlink:title=" ">
<polygon fill="white" stroke="#666666" points="173.12,-182 130.12,-182 130.12,-163.5 173.12,-163.5 173.12,-182"/>
<text text-anchor="middle" x="151.62" y="-168.5" font-family="Helvetica,sans-Serif" font-size="10.00">arax.h</text>
</a>
</g>
</g>
<!-- Node2&#45;&gt;Node3 -->
<g id="edge2_Node000002_Node000003" class="edge">
<title>Node2&#45;&gt;Node3</title>
<g id="a_edge2_Node000002_Node000003"><a xlink:title=" ">
<path fill="none" stroke="#63b8ff" d="M543.49,-334.69C439.12,-332.61 129.45,-323.72 99.62,-291 77.77,-267.02 86.02,-247.45 99.62,-218 105.22,-205.89 115.95,-195.87 126.21,-188.45"/>
<polygon fill="#63b8ff" stroke="#63b8ff" points="127.96,-190.83 134.35,-182.38 124.08,-185 127.96,-190.83"/>
</a>
</g>
</g>
<!-- Node10 -->
<g id="Node000010" class="node">
<title>Node10</title>
<g id="a_Node000010"><a xlink:href="a01403.html" target="_top" xlink:title=" ">
<polygon fill="white" stroke="#666666" points="413.75,-182 317.5,-182 317.5,-163.5 413.75,-163.5 413.75,-182"/>
<text text-anchor="middle" x="365.62" y="-168.5" font-family="Helvetica,sans-Serif" font-size="10.00">core/arax_object.h</text>
</a>
</g>
</g>
<!-- Node2&#45;&gt;Node10 -->
<g id="edge10_Node000002_Node000010" class="edge">
<title>Node2&#45;&gt;Node10</title>
<g id="a_edge10_Node000002_Node000010"><a xlink:title=" ">
<path fill="none" stroke="#63b8ff" d="M543.26,-331.57C459.28,-321.75 247.6,-291.88 208.62,-236.5 181.3,-197.68 251.15,-182.87 306.31,-177.22"/>
<polygon fill="#63b8ff" stroke="#63b8ff" points="306.48,-180.62 316.11,-176.21 305.83,-173.65 306.48,-180.62"/>
</a>
</g>
</g>
<!-- Node17 -->
<g id="Node000017" class="node">
<title>Node17</title>
<g id="a_Node000017"><a xlink:title=" ">
<polygon fill="#e0e0e0" stroke="#999999" points="481.5,-182 431.75,-182 431.75,-163.5 481.5,-163.5 481.5,-182"/>
<text text-anchor="middle" x="456.62" y="-168.5" font-family="Helvetica,sans-Serif" font-size="10.00">async.h</text>
</a>
</g>
</g>
<!-- Node2&#45;&gt;Node17 -->
<g id="edge19_Node000002_Node000017" class="edge">
<title>Node2&#45;&gt;Node17</title>
<g id="a_edge19_Node000002_Node000017"><a xlink:title=" ">
<path fill="none" stroke="#63b8ff" d="M591.84,-326.72C603.26,-318.98 618.52,-306.44 625.62,-291 639.2,-261.52 647.49,-243.66 627.62,-218 611.27,-196.88 537.97,-184.01 492.81,-177.94"/>
<polygon fill="#63b8ff" stroke="#63b8ff" points="493.35,-174.36 482.99,-176.55 492.46,-181.3 493.35,-174.36"/>
</a>
</g>
</g>
<!-- Node18 -->
<g id="Node000018" class="node">
<title>Node18</title>
<g id="a_Node000018"><a xlink:href="a01427.html" target="_top" xlink:title=" ">
<polygon fill="white" stroke="#666666" points="714.75,-127.5 672.5,-127.5 672.5,-109 714.75,-109 714.75,-127.5"/>
<text text-anchor="middle" x="693.62" y="-114" font-family="Helvetica,sans-Serif" font-size="10.00">conf.h</text>
</a>
</g>
</g>
<!-- Node2&#45;&gt;Node18 -->
<g id="edge20_Node000002_Node000018" class="edge">
<title>Node2&#45;&gt;Node18</title>
<g id="a_edge20_Node000002_Node000018"><a xlink:title=" ">
<path fill="none" stroke="#63b8ff" d="M597.1,-326.52C611.65,-319.06 630.95,-306.98 642.62,-291 677.43,-243.35 688.66,-172.01 692.14,-138.25"/>
<polygon fill="#63b8ff" stroke="#63b8ff" points="695.68,-138.91 693.1,-128.63 688.71,-138.27 695.68,-138.91"/>
</a>
</g>
</g>
<!-- Node19 -->
<g id="Node000019" class="node">
<title>Node19</title>
<g id="a_Node000019"><a xlink:href="a01391.html" target="_top" xlink:title=" ">
<polygon fill="white" stroke="#666666" points="616.62,-291 522.62,-291 522.62,-272.5 616.62,-272.5 616.62,-291"/>
<text text-anchor="middle" x="569.62" y="-277.5" font-family="Helvetica,sans-Serif" font-size="10.00">core/arax_accel.h</text>
</a>
</g>
</g>
<!-- Node2&#45;&gt;Node19 -->
<g id="edge21_Node000002_Node000019" class="edge">
<title>Node2&#45;&gt;Node19</title>
<g id="a_edge21_Node000002_Node000019"><a xlink:title=" ">
<path fill="none" stroke="#63b8ff" d="M576.3,-326.58C575.29,-319.93 573.85,-310.49 572.57,-302.08"/>
<polygon fill="#63b8ff" stroke="#63b8ff" points="575.89,-301.62 570.92,-292.26 568.97,-302.67 575.89,-301.62"/>
</a>
</g>
</g>
<!-- Node4 -->
<g id="Node000004" class="node">
<title>Node4</title>
<g id="a_Node000004"><a xlink:title=" ">
<polygon fill="#e0e0e0" stroke="#999999" points="225.25,-127.5 180,-127.5 180,-109 225.25,-109 225.25,-127.5"/>
<text text-anchor="middle" x="202.62" y="-114" font-family="Helvetica,sans-Serif" font-size="10.00">stdio.h</text>
</a>
</g>
</g>
<!-- Node3&#45;&gt;Node4 -->
<g id="edge3_Node000003_Node000004" class="edge">
<title>Node3&#45;&gt;Node4</title>
<g id="a_edge3_Node000003_Node000004"><a xlink:title=" ">
<path fill="none" stroke="#63b8ff" d="M160.05,-163.08C167.32,-155.59 178.04,-144.56 186.9,-135.44"/>
<polygon fill="#63b8ff" stroke="#63b8ff" points="188.9,-138.37 193.36,-128.76 183.88,-133.49 188.9,-138.37"/>
</a>
</g>
</g>
<!-- Node5 -->
<g id="Node000005" class="node">
<title>Node5</title>
<g id="a_Node000005"><a xlink:title=" ">
<polygon fill="#e0e0e0" stroke="#999999" points="693.88,-73 643.38,-73 643.38,-54.5 693.88,-54.5 693.88,-73"/>
<text text-anchor="middle" x="668.62" y="-59.5" font-family="Helvetica,sans-Serif" font-size="10.00">stddef.h</text>
</a>
</g>
</g>
<!-- Node3&#45;&gt;Node5 -->
<g id="edge4_Node000003_Node000005" class="edge">
<title>Node3&#45;&gt;Node5</title>
<g id="a_edge4_Node000003_Node000005"><a xlink:title=" ">
<path fill="none" stroke="#63b8ff" d="M170.77,-163.07C202.06,-149.29 266.4,-122.55 323.62,-109 455.72,-77.72 495.7,-96.48 632.61,-73.14"/>
<polygon fill="#63b8ff" stroke="#63b8ff" points="632.83,-76.48 642.08,-71.31 631.62,-69.58 632.83,-76.48"/>
</a>
</g>
</g>
<!-- Node6 -->
<g id="Node000006" class="node">
<title>Node6</title>
<g id="a_Node000006"><a xlink:href="a01352.html" target="_top" xlink:title=" ">
<polygon fill="white" stroke="#666666" points="143.12,-73 70.12,-73 70.12,-54.5 143.12,-54.5 143.12,-73"/>
<text text-anchor="middle" x="106.62" y="-59.5" font-family="Helvetica,sans-Serif" font-size="10.00">arax_types.h</text>
</a>
</g>
</g>
<!-- Node3&#45;&gt;Node6 -->
<g id="edge5_Node000003_Node000006" class="edge">
<title>Node3&#45;&gt;Node6</title>
<g id="a_edge5_Node000003_Node000006"><a xlink:title=" ">
<path fill="none" stroke="#63b8ff" d="M149.77,-163.4C146.9,-151.17 140.84,-127.77 132.62,-109 128.65,-99.92 123.22,-90.37 118.35,-82.48"/>
<polygon fill="#63b8ff" stroke="#63b8ff" points="120.78,-80.78 112.44,-74.24 114.88,-84.55 120.78,-80.78"/>
</a>
</g>
</g>
<!-- Node9 -->
<g id="Node000009" class="node">
<title>Node9</title>
<g id="a_Node000009"><a xlink:href="a01394.html" target="_top" xlink:title=" ">
<polygon fill="white" stroke="#666666" points="123.25,-127.5 0,-127.5 0,-109 123.25,-109 123.25,-127.5"/>
<text text-anchor="middle" x="61.62" y="-114" font-family="Helvetica,sans-Serif" font-size="10.00">core/arax_accel_types.h</text>
</a>
</g>
</g>
<!-- Node3&#45;&gt;Node9 -->
<g id="edge8_Node000003_Node000009" class="edge">
<title>Node3&#45;&gt;Node9</title>
<g id="a_edge8_Node000003_Node000009"><a xlink:title=" ">
<path fill="none" stroke="#63b8ff" d="M136.76,-163.08C122.95,-155.03 102.14,-142.88 85.91,-133.42"/>
<polygon fill="#63b8ff" stroke="#63b8ff" points="87.91,-129.95 77.51,-127.93 84.38,-135.99 87.91,-129.95"/>
</a>
</g>
</g>
<!-- Node7 -->
<g id="Node000007" class="node">
<title>Node7</title>
<g id="a_Node000007"><a xlink:title=" ">
<polygon fill="#e0e0e0" stroke="#999999" points="101.75,-18.5 41.5,-18.5 41.5,0 101.75,0 101.75,-18.5"/>
<text text-anchor="middle" x="71.62" y="-5" font-family="Helvetica,sans-Serif" font-size="10.00">sys/time.h</text>
</a>
</g>
</g>
<!-- Node6&#45;&gt;Node7 -->
<g id="edge6_Node000006_Node000007" class="edge">
<title>Node6&#45;&gt;Node7</title>
<g id="a_edge6_Node000006_Node000007"><a xlink:title=" ">
<path fill="none" stroke="#63b8ff" d="M100.85,-54.08C96.11,-46.97 89.24,-36.68 83.36,-27.85"/>
<polygon fill="#63b8ff" stroke="#63b8ff" points="85.76,-26.14 77.3,-19.76 79.93,-30.02 85.76,-26.14"/>
</a>
</g>
</g>
<!-- Node8 -->
<g id="Node000008" class="node">
<title>Node8</title>
<g id="a_Node000008"><a xlink:title=" ">
<polygon fill="#e0e0e0" stroke="#999999" points="163.12,-18.5 120.12,-18.5 120.12,0 163.12,0 163.12,-18.5"/>
<text text-anchor="middle" x="141.62" y="-5" font-family="Helvetica,sans-Serif" font-size="10.00">time.h</text>
</a>
</g>
</g>
<!-- Node6&#45;&gt;Node8 -->
<g id="edge7_Node000006_Node000008" class="edge">
<title>Node6&#45;&gt;Node8</title>
<g id="a_edge7_Node000006_Node000008"><a xlink:title=" ">
<path fill="none" stroke="#63b8ff" d="M112.4,-54.08C117.14,-46.97 124.01,-36.68 129.89,-27.85"/>
<polygon fill="#63b8ff" stroke="#63b8ff" points="133.32,-30.02 135.95,-19.76 127.49,-26.14 133.32,-30.02"/>
</a>
</g>
</g>
<!-- Node9&#45;&gt;Node6 -->
<g id="edge9_Node000009_Node000006" class="edge">
<title>Node9&#45;&gt;Node6</title>
<g id="a_edge9_Node000009_Node000006"><a xlink:title=" ">
<path fill="none" stroke="#63b8ff" d="M69.06,-108.58C75.35,-101.24 84.55,-90.51 92.27,-81.5"/>
<polygon fill="#63b8ff" stroke="#63b8ff" points="95.48,-84.13 99.33,-74.26 90.17,-79.57 95.48,-84.13"/>
</a>
</g>
</g>
<!-- Node11 -->
<g id="Node000011" class="node">
<title>Node11</title>
<g id="a_Node000011"><a xlink:href="a01376.html" target="_top" xlink:title=" ">
<polygon fill="white" stroke="#666666" points="517.25,-127.5 460,-127.5 460,-109 517.25,-109 517.25,-127.5"/>
<text text-anchor="middle" x="488.62" y="-114" font-family="Helvetica,sans-Serif" font-size="10.00">utils/list.h</text>
</a>
</g>
</g>
<!-- Node10&#45;&gt;Node11 -->
<g id="edge11_Node000010_Node000011" class="edge">
<title>Node10&#45;&gt;Node11</title>
<g id="a_edge11_Node000010_Node000011"><a xlink:title=" ">
<path fill="none" stroke="#63b8ff" d="M385.94,-163.08C405.61,-154.68 435.69,-141.84 458.22,-132.23"/>
<polygon fill="#63b8ff" stroke="#63b8ff" points="459.46,-135.08 467.28,-127.93 456.71,-128.64 459.46,-135.08"/>
</a>
</g>
</g>
<!-- Node13 -->
<g id="Node000013" class="node">
<title>Node13</title>
<g id="a_Node000013"><a xlink:href="a01382.html" target="_top" xlink:title=" ">
<polygon fill="white" stroke="#666666" points="616.25,-127.5 535,-127.5 535,-109 616.25,-109 616.25,-127.5"/>
<text text-anchor="middle" x="575.62" y="-114" font-family="Helvetica,sans-Serif" font-size="10.00">utils/spinlock.h</text>
</a>
</g>
</g>
<!-- Node10&#45;&gt;Node13 -->
<g id="edge14_Node000010_Node000013" class="edge">
<title>Node10&#45;&gt;Node13</title>
<g id="a_edge14_Node000010_Node000013"><a xlink:title=" ">
<path fill="none" stroke="#63b8ff" d="M400.3,-163.08C435.87,-154.19 491.36,-140.32 530.36,-130.57"/>
<polygon fill="#63b8ff" stroke="#63b8ff" points="531.04,-133.75 539.9,-127.93 529.35,-126.96 531.04,-133.75"/>
</a>
</g>
</g>
<!-- Node16 -->
<g id="Node000016" class="node">
<title>Node16</title>
<g id="a_Node000016"><a xlink:title=" ">
<polygon fill="#e0e0e0" stroke="#999999" points="398.75,-127.5 332.5,-127.5 332.5,-109 398.75,-109 398.75,-127.5"/>
<text text-anchor="middle" x="365.62" y="-114" font-family="Helvetica,sans-Serif" font-size="10.00">arch/alloc.h</text>
</a>
</g>
</g>
<!-- Node10&#45;&gt;Node16 -->
<g id="edge18_Node000010_Node000016" class="edge">
<title>Node10&#45;&gt;Node16</title>
<g id="a_edge18_Node000010_Node000016"><a xlink:title=" ">
<path fill="none" stroke="#63b8ff" d="M365.62,-163.08C365.62,-156.43 365.62,-146.99 365.62,-138.58"/>
<polygon fill="#63b8ff" stroke="#63b8ff" points="369.13,-138.76 365.62,-128.76 362.13,-138.76 369.13,-138.76"/>
</a>
</g>
</g>
<!-- Node11&#45;&gt;Node5 -->
<g id="edge12_Node000011_Node000005" class="edge">
<title>Node11&#45;&gt;Node5</title>
<g id="a_edge12_Node000011_Node000005"><a xlink:title=" ">
<path fill="none" stroke="#63b8ff" d="M517.55,-108.81C548.84,-99.69 598.79,-85.12 632.61,-75.25"/>
<polygon fill="#63b8ff" stroke="#63b8ff" points="633.36,-78.39 641.98,-72.23 631.4,-71.67 633.36,-78.39"/>
</a>
</g>
</g>
<!-- Node12 -->
<g id="Node000012" class="node">
<title>Node12</title>
<g id="a_Node000012"><a xlink:title=" ">
<polygon fill="#e0e0e0" stroke="#999999" points="510.38,-73 462.88,-73 462.88,-54.5 510.38,-54.5 510.38,-73"/>
<text text-anchor="middle" x="486.62" y="-59.5" font-family="Helvetica,sans-Serif" font-size="10.00">stdint.h</text>
</a>
</g>
</g>
<!-- Node11&#45;&gt;Node12 -->
<g id="edge13_Node000011_Node000012" class="edge">
<title>Node11&#45;&gt;Node12</title>
<g id="a_edge13_Node000011_Node000012"><a xlink:title=" ">
<path fill="none" stroke="#63b8ff" d="M488.29,-108.58C488.04,-101.93 487.68,-92.49 487.36,-84.08"/>
<polygon fill="#63b8ff" stroke="#63b8ff" points="490.83,-84.12 486.95,-74.26 483.83,-84.38 490.83,-84.12"/>
</a>
</g>
</g>
<!-- Node13&#45;&gt;Node12 -->
<g id="edge15_Node000013_Node000012" class="edge">
<title>Node13&#45;&gt;Node12</title>
<g id="a_edge15_Node000013_Node000012"><a xlink:title=" ">
<path fill="none" stroke="#63b8ff" d="M560.93,-108.58C547.27,-100.53 526.69,-88.38 510.64,-78.92"/>
<polygon fill="#63b8ff" stroke="#63b8ff" points="512.73,-75.5 502.34,-73.43 509.18,-81.53 512.73,-75.5"/>
</a>
</g>
</g>
<!-- Node14 -->
<g id="Node000014" class="node">
<title>Node14</title>
<g id="a_Node000014"><a xlink:href="a01361.html" target="_top" xlink:title=" ">
<polygon fill="white" stroke="#666666" points="625.12,-73 528.12,-73 528.12,-54.5 625.12,-54.5 625.12,-73"/>
<text text-anchor="middle" x="576.62" y="-59.5" font-family="Helvetica,sans-Serif" font-size="10.00">utils/arax_assert.h</text>
</a>
</g>
</g>
<!-- Node13&#45;&gt;Node14 -->
<g id="edge16_Node000013_Node000014" class="edge">
<title>Node13&#45;&gt;Node14</title>
<g id="a_edge16_Node000013_Node000014"><a xlink:title=" ">
<path fill="none" stroke="#63b8ff" d="M575.79,-108.58C575.92,-101.93 576.1,-92.49 576.26,-84.08"/>
<polygon fill="#63b8ff" stroke="#63b8ff" points="579.77,-84.32 576.46,-74.26 572.77,-84.19 579.77,-84.32"/>
</a>
</g>
</g>
<!-- Node15 -->
<g id="Node000015" class="node">
<title>Node15</title>
<g id="a_Node000015"><a xlink:href="a01370.html" target="_top" xlink:title=" ">
<polygon fill="white" stroke="#666666" points="739.5,-18.5 683.75,-18.5 683.75,0 739.5,0 739.5,-18.5"/>
<text text-anchor="middle" x="711.62" y="-5" font-family="Helvetica,sans-Serif" font-size="10.00">compat.h</text>
</a>
</g>
</g>
<!-- Node14&#45;&gt;Node15 -->
<g id="edge17_Node000014_Node000015" class="edge">
<title>Node14&#45;&gt;Node15</title>
<g id="a_edge17_Node000014_Node000015"><a xlink:title=" ">
<path fill="none" stroke="#63b8ff" d="M598.92,-54.08C620.8,-45.57 654.43,-32.49 679.26,-22.84"/>
<polygon fill="#63b8ff" stroke="#63b8ff" points="680.25,-25.82 688.3,-18.93 677.71,-19.29 680.25,-25.82"/>
</a>
</g>
</g>
<!-- Node19&#45;&gt;Node3 -->
<g id="edge22_Node000019_Node000003" class="edge">
<title>Node19&#45;&gt;Node3</title>
<g id="a_edge22_Node000019_Node000003"><a xlink:title=" ">
<path fill="none" stroke="#63b8ff" d="M522.21,-276.79C430.61,-268.87 235.93,-250.63 208.62,-236.5 188.87,-226.28 172.58,-206.25 162.54,-191.57"/>
<polygon fill="#63b8ff" stroke="#63b8ff" points="165,-189.93 156.63,-183.44 159.13,-193.73 165,-189.93"/>
</a>
</g>
</g>
<!-- Node19&#45;&gt;Node17 -->
<g id="edge23_Node000019_Node000017" class="edge">
<title>Node19&#45;&gt;Node17</title>
<g id="a_edge23_Node000019_Node000017"><a xlink:title=" ">
<path fill="none" stroke="#63b8ff" d="M522.38,-275.47C475.51,-269.15 408.46,-256.79 392.62,-236.5 378.05,-217.83 403.44,-199.17 426.43,-187.11"/>
<polygon fill="#63b8ff" stroke="#63b8ff" points="427.6,-189.95 435,-182.37 424.49,-183.67 427.6,-189.95"/>
</a>
</g>
</g>
<!-- Node20 -->
<g id="Node000020" class="node">
<title>Node20</title>
<g id="a_Node000020"><a xlink:href="a01418.html" target="_top" xlink:title=" ">
<polygon fill="white" stroke="#666666" points="618.88,-236.5 520.38,-236.5 520.38,-218 618.88,-218 618.88,-236.5"/>
<text text-anchor="middle" x="569.62" y="-223" font-family="Helvetica,sans-Serif" font-size="10.00">core/arax_vaccel.h</text>
</a>
</g>
</g>
<!-- Node19&#45;&gt;Node20 -->
<g id="edge24_Node000019_Node000020" class="edge">
<title>Node19&#45;&gt;Node20</title>
<g id="a_edge24_Node000019_Node000020"><a xlink:title=" ">
<path fill="none" stroke="#63b8ff" d="M564.46,-272.08C563.02,-265.43 562.56,-255.99 563.09,-247.58"/>
<polygon fill="#63b8ff" stroke="#63b8ff" points="566.68,-248.13 564.49,-237.76 559.73,-247.22 566.68,-248.13"/>
</a>
</g>
</g>
<!-- Node22 -->
<g id="Node000022" class="node">
<title>Node22</title>
<g id="a_Node000022"><a xlink:href="a01415.html" target="_top" xlink:title=" ">
<polygon fill="white" stroke="#666666" points="502,-236.5 401.25,-236.5 401.25,-218 502,-218 502,-236.5"/>
<text text-anchor="middle" x="451.62" y="-223" font-family="Helvetica,sans-Serif" font-size="10.00">core/arax_throttle.h</text>
</a>
</g>
</g>
<!-- Node19&#45;&gt;Node22 -->
<g id="edge33_Node000019_Node000022" class="edge">
<title>Node19&#45;&gt;Node22</title>
<g id="a_edge33_Node000019_Node000022"><a xlink:title=" ">
<path fill="none" stroke="#63b8ff" d="M550.14,-272.08C531.35,-263.72 502.67,-250.96 481.09,-241.36"/>
<polygon fill="#63b8ff" stroke="#63b8ff" points="482.7,-237.8 472.14,-236.93 479.85,-244.2 482.7,-237.8"/>
</a>
</g>
</g>
<!-- Node20&#45;&gt;Node10 -->
<g id="edge25_Node000020_Node000010" class="edge">
<title>Node20&#45;&gt;Node10</title>
<g id="a_edge25_Node000020_Node000010"><a xlink:title=" ">
<path fill="none" stroke="#63b8ff" d="M535.94,-217.58C501.39,-208.69 447.49,-194.82 409.59,-185.07"/>
<polygon fill="#63b8ff" stroke="#63b8ff" points="410.92,-181.54 400.36,-182.43 409.17,-188.31 410.92,-181.54"/>
</a>
</g>
</g>
<!-- Node20&#45;&gt;Node17 -->
<g id="edge32_Node000020_Node000017" class="edge">
<title>Node20&#45;&gt;Node17</title>
<g id="a_edge32_Node000020_Node000017"><a xlink:title=" ">
<path fill="none" stroke="#63b8ff" d="M550.97,-217.58C533.05,-209.26 505.75,-196.58 485.12,-186.99"/>
<polygon fill="#63b8ff" stroke="#63b8ff" points="486.86,-183.47 476.31,-182.43 483.91,-189.82 486.86,-183.47"/>
</a>
</g>
</g>
<!-- Node20&#45;&gt;Node19 -->
<g id="edge31_Node000020_Node000019" class="edge">
<title>Node20&#45;&gt;Node19</title>
<g id="a_edge31_Node000020_Node000019"><a xlink:title=" ">
<path fill="none" stroke="#63b8ff" d="M574.76,-236.76C576.22,-243.36 576.69,-252.79 576.17,-261.22"/>
<polygon fill="#63b8ff" stroke="#63b8ff" points="572.58,-260.72 574.79,-271.08 579.53,-261.6 572.58,-260.72"/>
</a>
</g>
</g>
<!-- Node21 -->
<g id="Node000021" class="node">
<title>Node21</title>
<g id="a_Node000021"><a xlink:href="a01379.html" target="_top" xlink:title=" ">
<polygon fill="white" stroke="#666666" points="634.38,-182 562.88,-182 562.88,-163.5 634.38,-163.5 634.38,-182"/>
<text text-anchor="middle" x="598.62" y="-168.5" font-family="Helvetica,sans-Serif" font-size="10.00">utils/queue.h</text>
</a>
</g>
</g>
<!-- Node20&#45;&gt;Node21 -->
<g id="edge26_Node000020_Node000021" class="edge">
<title>Node20&#45;&gt;Node21</title>
<g id="a_edge26_Node000020_Node000021"><a xlink:title=" ">
<path fill="none" stroke="#63b8ff" d="M574.41,-217.58C578.3,-210.55 583.91,-200.4 588.75,-191.64"/>
<polygon fill="#63b8ff" stroke="#63b8ff" points="592.15,-193.7 593.93,-183.26 586.03,-190.32 592.15,-193.7"/>
</a>
</g>
</g>
<!-- Node21&#45;&gt;Node5 -->
<g id="edge27_Node000021_Node000005" class="edge">
<title>Node21&#45;&gt;Node5</title>
<g id="a_edge27_Node000021_Node000005"><a xlink:title=" ">
<path fill="none" stroke="#63b8ff" d="M604.12,-163.35C615.46,-146.02 641.69,-105.93 656.98,-82.55"/>
<polygon fill="#63b8ff" stroke="#63b8ff" points="660.42,-84.69 662.96,-74.4 654.56,-80.86 660.42,-84.69"/>
</a>
</g>
</g>
<!-- Node21&#45;&gt;Node12 -->
<g id="edge28_Node000021_Node000012" class="edge">
<title>Node21&#45;&gt;Node12</title>
<g id="a_edge28_Node000021_Node000012"><a xlink:title=" ">
<path fill="none" stroke="#63b8ff" d="M562.61,-172.27C527.66,-170.6 476.25,-161.91 450.62,-127.5 439.4,-112.43 453.6,-93.54 467.33,-80.44"/>
<polygon fill="#63b8ff" stroke="#63b8ff" points="469.02,-83.73 474.17,-74.47 464.37,-78.5 469.02,-83.73"/>
</a>
</g>
</g>
<!-- Node21&#45;&gt;Node13 -->
<g id="edge30_Node000021_Node000013" class="edge">
<title>Node21&#45;&gt;Node13</title>
<g id="a_edge30_Node000021_Node000013"><a xlink:title=" ">
<path fill="none" stroke="#63b8ff" d="M594.83,-163.08C591.81,-156.2 587.49,-146.34 583.71,-137.71"/>
<polygon fill="#63b8ff" stroke="#63b8ff" points="586.57,-136.51 579.35,-128.76 580.16,-139.32 586.57,-136.51"/>
</a>
</g>
</g>
<!-- Node21&#45;&gt;Node18 -->
<g id="edge29_Node000021_Node000018" class="edge">
<title>Node21&#45;&gt;Node18</title>
<g id="a_edge29_Node000021_Node000018"><a xlink:title=" ">
<path fill="none" stroke="#63b8ff" d="M614.31,-163.08C629.03,-154.95 651.28,-142.65 668.47,-133.15"/>
<polygon fill="#63b8ff" stroke="#63b8ff" points="669.85,-135.83 676.91,-127.93 666.47,-129.71 669.85,-135.83"/>
</a>
</g>
</g>
<!-- Node22&#45;&gt;Node17 -->
<g id="edge34_Node000022_Node000017" class="edge">
<title>Node22&#45;&gt;Node17</title>
<g id="a_edge34_Node000022_Node000017"><a xlink:title=" ">
<path fill="none" stroke="#63b8ff" d="M452.45,-217.58C453.08,-210.93 453.98,-201.49 454.78,-193.08"/>
<polygon fill="#63b8ff" stroke="#63b8ff" points="458.35,-193.54 455.81,-183.26 451.38,-192.88 458.35,-193.54"/>
</a>
</g>
</g>
<!-- Node23&#45;&gt;Node17 -->
<g id="edge39_Node000023_Node000017" class="edge">
<title>Node23&#45;&gt;Node17</title>
<g id="a_edge39_Node000023_Node000017"><a xlink:title=" ">
<path fill="none" stroke="#63b8ff" d="M390,-272.17C372.8,-260.22 346.89,-237.81 359.62,-218 366.85,-206.76 396.78,-194.12 421.5,-185.24"/>
<polygon fill="#63b8ff" stroke="#63b8ff" points="422.41,-188.28 430.7,-181.68 420.1,-181.67 422.41,-188.28"/>
</a>
</g>
</g>
<!-- Node24 -->
<g id="Node000024" class="node">
<title>Node24</title>
<g id="a_Node000024"><a xlink:href="a01406.html" target="_top" xlink:title=" ">
<polygon fill="white" stroke="#666666" points="307.38,-236.5 217.88,-236.5 217.88,-218 307.38,-218 307.38,-236.5"/>
<text text-anchor="middle" x="262.62" y="-223" font-family="Helvetica,sans-Serif" font-size="10.00">core/arax_proc.h</text>
</a>
</g>
</g>
<!-- Node23&#45;&gt;Node24 -->
<g id="edge36_Node000023_Node000024" class="edge">
<title>Node23&#45;&gt;Node24</title>
<g id="a_edge36_Node000023_Node000024"><a xlink:title=" ">
<path fill="none" stroke="#63b8ff" d="M380.34,-272.08C357.38,-263.53 322.05,-250.38 296.09,-240.71"/>
<polygon fill="#63b8ff" stroke="#63b8ff" points="297.54,-237.14 286.94,-236.93 295.09,-243.7 297.54,-237.14"/>
</a>
</g>
</g>
<!-- Node24&#45;&gt;Node3 -->
<g id="edge37_Node000024_Node000003" class="edge">
<title>Node24&#45;&gt;Node3</title>
<g id="a_edge37_Node000024_Node000003"><a xlink:title=" ">
<path fill="none" stroke="#63b8ff" d="M244.3,-217.58C226.78,-209.3 200.13,-196.69 179.9,-187.12"/>
<polygon fill="#63b8ff" stroke="#63b8ff" points="181.52,-183.54 170.98,-182.43 178.53,-189.87 181.52,-183.54"/>
</a>
</g>
</g>
<!-- Node24&#45;&gt;Node10 -->
<g id="edge38_Node000024_Node000010" class="edge">
<title>Node24&#45;&gt;Node10</title>
<g id="a_edge38_Node000024_Node000010"><a xlink:title=" ">
<path fill="none" stroke="#63b8ff" d="M279.63,-217.58C295.74,-209.37 320.16,-196.92 338.87,-187.39"/>
<polygon fill="#63b8ff" stroke="#63b8ff" points="340.27,-190.09 347.59,-182.43 337.09,-183.86 340.27,-190.09"/>
</a>
</g>
</g>
<!-- Node25&#45;&gt;Node2 -->
<g id="edge41_Node000025_Node000002" class="edge">
<title>Node25&#45;&gt;Node2</title>
<g id="a_edge41_Node000025_Node000002"><a xlink:title=" ">
<path fill="none" stroke="#63b8ff" d="M643.58,-381.08C631.69,-373.18 613.87,-361.34 599.75,-351.96"/>
<polygon fill="#63b8ff" stroke="#63b8ff" points="601.96,-348.55 591.69,-345.93 598.08,-354.38 601.96,-348.55"/>
</a>
</g>
</g>
<!-- Node26&#45;&gt;Node3 -->
<g id="edge43_Node000026_Node000003" class="edge">
<title>Node26&#45;&gt;Node3</title>
<g id="a_edge43_Node000026_Node000003"><a xlink:title=" ">
<path fill="none" stroke="#63b8ff" d="M641.89,-330.13C634.87,-329.08 627.51,-327.99 620.62,-327 423.45,-298.56 332.68,-366.38 181.62,-236.5 168.46,-225.18 160.62,-206.79 156.28,-192.84"/>
<polygon fill="#63b8ff" stroke="#63b8ff" points="159.44,-192.12 153.41,-183.41 152.69,-193.98 159.44,-192.12"/>
</a>
</g>
</g>
<!-- Node26&#45;&gt;Node19 -->
<g id="edge49_Node000026_Node000019" class="edge">
<title>Node26&#45;&gt;Node19</title>
<g id="a_edge49_Node000026_Node000019"><a xlink:title=" ">
<path fill="none" stroke="#63b8ff" d="M658.12,-326.58C641.47,-318.34 616.18,-305.81 596.89,-296.25"/>
<polygon fill="#63b8ff" stroke="#63b8ff" points="598.67,-292.73 588.15,-291.43 595.56,-299.01 598.67,-292.73"/>
</a>
</g>
</g>
<!-- Node26&#45;&gt;Node21 -->
<g id="edge48_Node000026_Node000021" class="edge">
<title>Node26&#45;&gt;Node21</title>
<g id="a_edge48_Node000026_Node000021"><a xlink:title=" ">
<path fill="none" stroke="#63b8ff" d="M676.74,-326.55C678.94,-306.01 681.91,-253.57 660.62,-218 652.91,-205.11 639.83,-194.94 627.67,-187.62"/>
<polygon fill="#63b8ff" stroke="#63b8ff" points="629.67,-184.17 619.23,-182.36 626.26,-190.29 629.67,-184.17"/>
</a>
</g>
</g>
<!-- Node26&#45;&gt;Node23 -->
<g id="edge50_Node000026_Node000023" class="edge">
<title>Node26&#45;&gt;Node23</title>
<g id="a_edge50_Node000026_Node000023"><a xlink:title=" ">
<path fill="none" stroke="#63b8ff" d="M641.73,-328.71C592.96,-319.3 502.93,-301.92 448.64,-291.44"/>
<polygon fill="#63b8ff" stroke="#63b8ff" points="449.43,-287.83 438.95,-289.38 448.11,-294.71 449.43,-287.83"/>
</a>
</g>
</g>
<!-- Node27 -->
<g id="Node000027" class="node">
<title>Node27</title>
<g id="a_Node000027"><a xlink:href="a01358.html" target="_top" xlink:title=" ">
<polygon fill="white" stroke="#666666" points="770.88,-182 714.38,-182 714.38,-163.5 770.88,-163.5 770.88,-182"/>
<text text-anchor="middle" x="742.62" y="-168.5" font-family="Helvetica,sans-Serif" font-size="10.00">utils/Kv.h</text>
</a>
</g>
</g>
<!-- Node26&#45;&gt;Node27 -->
<g id="edge44_Node000026_Node000027" class="edge">
<title>Node26&#45;&gt;Node27</title>
<g id="a_edge44_Node000026_Node000027"><a xlink:title=" ">
<path fill="none" stroke="#63b8ff" d="M695.57,-326.61C709.71,-319.32 727.7,-307.44 736.62,-291 753.42,-260.04 750.28,-217.45 746.46,-193.04"/>
<polygon fill="#63b8ff" stroke="#63b8ff" points="749.76,-192.6 744.56,-183.37 742.87,-193.83 749.76,-192.6"/>
</a>
</g>
</g>
<!-- Node27&#45;&gt;Node5 -->
<g id="edge46_Node000027_Node000005" class="edge">
<title>Node27&#45;&gt;Node5</title>
<g id="a_edge46_Node000027_Node000005"><a xlink:title=" ">
<path fill="none" stroke="#63b8ff" d="M741.68,-163.36C739.93,-150.64 735.21,-126.17 723.62,-109 715.67,-97.21 703.63,-87.02 692.84,-79.4"/>
<polygon fill="#63b8ff" stroke="#63b8ff" points="695.08,-76.02 684.82,-73.39 691.2,-81.85 695.08,-76.02"/>
</a>
</g>
</g>
<!-- Node27&#45;&gt;Node13 -->
<g id="edge47_Node000027_Node000013" class="edge">
<title>Node27&#45;&gt;Node13</title>
<g id="a_edge47_Node000027_Node000013"><a xlink:title=" ">
<path fill="none" stroke="#63b8ff" d="M715.05,-163.08C687.37,-154.38 644.52,-140.91 613.63,-131.2"/>
<polygon fill="#63b8ff" stroke="#63b8ff" points="614.83,-127.59 604.24,-127.93 612.73,-134.27 614.83,-127.59"/>
</a>
</g>
</g>
<!-- Node27&#45;&gt;Node18 -->
<g id="edge45_Node000027_Node000018" class="edge">
<title>Node27&#45;&gt;Node18</title>
<g id="a_edge45_Node000027_Node000018"><a xlink:title=" ">
<path fill="none" stroke="#63b8ff" d="M734.53,-163.08C727.61,-155.67 717.46,-144.78 709,-135.72"/>
<polygon fill="#63b8ff" stroke="#63b8ff" points="711.95,-133.68 702.57,-128.76 706.83,-138.46 711.95,-133.68"/>
</a>
</g>
</g>
<!-- Node28&#45;&gt;Node15 -->
<g id="edge52_Node000028_Node000015" class="edge">
<title>Node28&#45;&gt;Node15</title>
<g id="a_edge52_Node000028_Node000015"><a xlink:title=" ">
<path fill="none" stroke="#63b8ff" d="M862.33,-272.22C857.69,-254.19 847.62,-210.8 847.62,-173.75 847.62,-173.75 847.62,-173.75 847.62,-117.25 847.62,-67.33 790.34,-37.14 750.12,-22.09"/>
<polygon fill="#63b8ff" stroke="#63b8ff" points="751.4,-18.48 740.8,-18.42 749.05,-25.07 751.4,-18.48"/>
</a>
</g>
</g>
<!-- Node31&#45;&gt;Node5 -->
<g id="edge56_Node000031_Node000005" class="edge">
<title>Node31&#45;&gt;Node5</title>
<g id="a_edge56_Node000031_Node000005"><a xlink:title=" ">
<path fill="none" stroke="#63b8ff" d="M792.61,-381.26C784.56,-373.02 773.33,-359.69 768.62,-345.5 766.04,-337.7 767.42,-335.13 768.62,-327 775.36,-281.63 798.62,-274.12 798.62,-228.25 798.62,-228.25 798.62,-228.25 798.62,-171.75 798.62,-122.65 742.65,-91.91 704.16,-76.58"/>
<polygon fill="#63b8ff" stroke="#63b8ff" points="705.9,-73.12 695.31,-72.84 703.41,-79.66 705.9,-73.12"/>
</a>
</g>
</g>
<!-- Node32 -->
<g id="Node000032" class="node">
<title>Node32</title>
<g id="a_Node000032"><a xlink:title=" ">
<polygon fill="#e0e0e0" stroke="#999999" points="843.38,-345.5 777.88,-345.5 777.88,-327 843.38,-327 843.38,-345.5"/>
<text text-anchor="middle" x="810.62" y="-332" font-family="Helvetica,sans-Serif" font-size="10.00">sys/types.h</text>
</a>
</g>
</g>
<!-- Node31&#45;&gt;Node32 -->
<g id="edge57_Node000031_Node000032" class="edge">
<title>Node31&#45;&gt;Node32</title>
<g id="a_edge57_Node000031_Node000032"><a xlink:title=" ">
<path fill="none" stroke="#63b8ff" d="M803.11,-381.08C804.25,-374.43 805.87,-364.99 807.31,-356.58"/>
<polygon fill="#63b8ff" stroke="#63b8ff" points="810.93,-357.21 809.17,-346.76 804.03,-356.02 810.93,-357.21"/>
</a>
</g>
</g>
</g>
</svg>
