<?xml version="1.0" encoding="UTF-8" standalone="no"?>
<!DOCTYPE svg PUBLIC "-//W3C//DTD SVG 1.1//EN"
 "http://www.w3.org/Graphics/SVG/1.1/DTD/svg11.dtd">
<!-- Generated by graphviz version 12.2.1 (0)
 -->
<!-- Title: ARAX_OBJ_DTOR_DECL Pages: 1 -->
<svg width="894pt" height="101pt"
 viewBox="0.00 0.00 893.75 100.50" xmlns="http://www.w3.org/2000/svg" xmlns:xlink="http://www.w3.org/1999/xlink">
<g id="graph0" class="graph" transform="scale(1 1) rotate(0) translate(4 96.5)">
<title>ARAX_OBJ_DTOR_DECL</title>
<!-- Node1 -->
<g id="Node000001" class="node">
<title>Node1</title>
<g id="a_Node000001"><a xlink:title=" ">
<polygon fill="#999999" stroke="#666666" points="132.25,-36.5 0,-36.5 0,-18 132.25,-18 132.25,-36.5"/>
<text text-anchor="middle" x="66.12" y="-23" font-family="Helvetica,sans-Serif" font-size="10.00">ARAX_OBJ_DTOR_DECL</text>
</a>
</g>
</g>
<!-- Node2 -->
<g id="Node000002" class="node">
<title>Node2</title>
<g id="a_Node000002"><a xlink:href="a01925.html#afe7e4a63c40fbcaae742b8de8693483f" target="_top" xlink:title=" ">
<polygon fill="white" stroke="#666666" points="272.75,-36.5 168.25,-36.5 168.25,-18 272.75,-18 272.75,-36.5"/>
<text text-anchor="middle" x="220.5" y="-23" font-family="Helvetica,sans-Serif" font-size="10.00">arax_object_ref_dec</text>
</a>
</g>
</g>
<!-- Node1&#45;&gt;Node2 -->
<g id="edge1_Node000001_Node000002" class="edge">
<title>Node1&#45;&gt;Node2</title>
<g id="a_edge1_Node000001_Node000002"><a xlink:title=" ">
<path fill="none" stroke="#63b8ff" d="M132.63,-27.25C140.54,-27.25 148.61,-27.25 156.49,-27.25"/>
<polygon fill="#63b8ff" stroke="#63b8ff" points="156.33,-30.75 166.33,-27.25 156.33,-23.75 156.33,-30.75"/>
</a>
</g>
</g>
<!-- Node3 -->
<g id="Node000003" class="node">
<title>Node3</title>
<g id="a_Node000003"><a xlink:href="a01928.html#a9f30684f01feac766b42d622970ed5a6" target="_top" xlink:title=" ">
<polygon fill="white" stroke="#666666" points="408,-55.5 308.75,-55.5 308.75,-37 408,-37 408,-55.5"/>
<text text-anchor="middle" x="358.38" y="-42" font-family="Helvetica,sans-Serif" font-size="10.00">arax_pipe_size_inc</text>
</a>
</g>
</g>
<!-- Node2&#45;&gt;Node3 -->
<g id="edge2_Node000002_Node000003" class="edge">
<title>Node2&#45;&gt;Node3</title>
<g id="a_edge2_Node000002_Node000003"><a xlink:title=" ">
<path fill="none" stroke="#63b8ff" d="M272.87,-34.43C280.84,-35.55 289.13,-36.71 297.27,-37.85"/>
<polygon fill="#63b8ff" stroke="#63b8ff" points="296.74,-41.31 307.13,-39.22 297.71,-34.37 296.74,-41.31"/>
</a>
</g>
</g>
<!-- Node11 -->
<g id="Node000011" class="node">
<title>Node11</title>
<g id="a_Node000011"><a xlink:href="a01955.html#a0c85e5516222ab7e7fc354c614760ec5" target="_top" xlink:title=" ">
<polygon fill="white" stroke="#666666" points="393.38,-18.5 323.38,-18.5 323.38,0 393.38,0 393.38,-18.5"/>
<text text-anchor="middle" x="358.38" y="-5" font-family="Helvetica,sans-Serif" font-size="10.00">utils_list_del</text>
</a>
</g>
</g>
<!-- Node2&#45;&gt;Node11 -->
<g id="edge12_Node000002_Node000011" class="edge">
<title>Node2&#45;&gt;Node11</title>
<g id="a_edge12_Node000002_Node000011"><a xlink:title=" ">
<path fill="none" stroke="#63b8ff" d="M272.87,-20.44C285.76,-18.74 299.49,-16.92 312.06,-15.25"/>
<polygon fill="#63b8ff" stroke="#63b8ff" points="312.27,-18.76 321.72,-13.97 311.35,-11.82 312.27,-18.76"/>
</a>
</g>
</g>
<!-- Node3&#45;&gt;Node3 -->
<g id="edge3_Node000003_Node000003" class="edge">
<title>Node3&#45;&gt;Node3</title>
<g id="a_edge3_Node000003_Node000003"><a xlink:title=" ">
<path fill="none" stroke="#63b8ff" d="M337.12,-55.75C326.79,-64.32 333.87,-73.5 358.38,-73.5 372.16,-73.5 380.43,-70.59 383.19,-66.53"/>
<polygon fill="#63b8ff" stroke="#63b8ff" points="386.56,-65.58 380.1,-57.18 379.92,-67.78 386.56,-65.58"/>
</a>
</g>
</g>
<!-- Node4 -->
<g id="Node000004" class="node">
<title>Node4</title>
<g id="a_Node000004"><a xlink:href="a01940.html#a7d3a67fa4eeb00cc9508a7ffe451a02f" target="_top" xlink:title=" ">
<polygon fill="white" stroke="#666666" points="555.25,-55.5 444,-55.5 444,-37 555.25,-37 555.25,-55.5"/>
<text text-anchor="middle" x="499.62" y="-42" font-family="Helvetica,sans-Serif" font-size="10.00">arax_throttle_size_inc</text>
</a>
</g>
</g>
<!-- Node3&#45;&gt;Node4 -->
<g id="edge4_Node000003_Node000004" class="edge">
<title>Node3&#45;&gt;Node4</title>
<g id="a_edge4_Node000003_Node000004"><a xlink:title=" ">
<path fill="none" stroke="#63b8ff" d="M408.47,-46.25C416.24,-46.25 424.38,-46.25 432.47,-46.25"/>
<polygon fill="#63b8ff" stroke="#63b8ff" points="432.29,-49.75 442.29,-46.25 432.29,-42.75 432.29,-49.75"/>
</a>
</g>
</g>
<!-- Node4&#45;&gt;Node4 -->
<g id="edge5_Node000004_Node000004" class="edge">
<title>Node4&#45;&gt;Node4</title>
<g id="a_edge5_Node000004_Node000004"><a xlink:title=" ">
<path fill="none" stroke="#63b8ff" d="M477.85,-55.75C467.26,-64.32 474.52,-73.5 499.62,-73.5 513.75,-73.5 522.22,-70.59 525.05,-66.53"/>
<polygon fill="#63b8ff" stroke="#63b8ff" points="528.4,-65.53 521.88,-57.18 521.77,-67.77 528.4,-65.53"/>
</a>
</g>
</g>
<!-- Node5 -->
<g id="Node000005" class="node">
<title>Node5</title>
<g id="a_Node000005"><a xlink:href="a02364.html#aed6af4d83e934e3e654ead541b15f2d9" target="_top" xlink:title=" ">
<polygon fill="white" stroke="#666666" points="705.5,-92.5 596.5,-92.5 596.5,-74 705.5,-74 705.5,-92.5"/>
<text text-anchor="middle" x="651" y="-79" font-family="Helvetica,sans-Serif" font-size="10.00">async_condition_lock</text>
</a>
</g>
</g>
<!-- Node4&#45;&gt;Node5 -->
<g id="edge6_Node000004_Node000005" class="edge">
<title>Node4&#45;&gt;Node5</title>
<g id="a_edge6_Node000004_Node000005"><a xlink:title=" ">
<path fill="none" stroke="#63b8ff" d="M539.87,-55.97C558.15,-60.5 580.12,-65.94 599.61,-70.77"/>
<polygon fill="#63b8ff" stroke="#63b8ff" points="598.74,-74.16 609.29,-73.17 600.42,-67.36 598.74,-74.16"/>
</a>
</g>
</g>
<!-- Node7 -->
<g id="Node000007" class="node">
<title>Node7</title>
<g id="a_Node000007"><a xlink:href="a02364.html#a45a896fb606c2aa66a5a4c2af59ce494" target="_top" xlink:title=" ">
<polygon fill="white" stroke="#666666" points="708.5,-55.5 593.5,-55.5 593.5,-37 708.5,-37 708.5,-55.5"/>
<text text-anchor="middle" x="651" y="-42" font-family="Helvetica,sans-Serif" font-size="10.00">async_condition_notify</text>
</a>
</g>
</g>
<!-- Node4&#45;&gt;Node7 -->
<g id="edge8_Node000004_Node000007" class="edge">
<title>Node4&#45;&gt;Node7</title>
<g id="a_edge8_Node000004_Node000007"><a xlink:title=" ">
<path fill="none" stroke="#63b8ff" d="M555.4,-46.25C563.97,-46.25 572.91,-46.25 581.74,-46.25"/>
<polygon fill="#63b8ff" stroke="#63b8ff" points="581.71,-49.75 591.71,-46.25 581.71,-42.75 581.71,-49.75"/>
</a>
</g>
</g>
<!-- Node9 -->
<g id="Node000009" class="node">
<title>Node9</title>
<g id="a_Node000009"><a xlink:href="a02364.html#a3bbcb7c4c024e99d5c4ba52b61dfbbf7" target="_top" xlink:title=" ">
<polygon fill="white" stroke="#666666" points="710.75,-18.5 591.25,-18.5 591.25,0 710.75,0 710.75,-18.5"/>
<text text-anchor="middle" x="651" y="-5" font-family="Helvetica,sans-Serif" font-size="10.00">async_condition_unlock</text>
</a>
</g>
</g>
<!-- Node4&#45;&gt;Node9 -->
<g id="edge10_Node000004_Node000009" class="edge">
<title>Node4&#45;&gt;Node9</title>
<g id="a_edge10_Node000004_Node000009"><a xlink:title=" ">
<path fill="none" stroke="#63b8ff" d="M539.87,-36.53C558.15,-32 580.12,-26.56 599.61,-21.73"/>
<polygon fill="#63b8ff" stroke="#63b8ff" points="600.42,-25.14 609.29,-19.33 598.74,-18.34 600.42,-25.14"/>
</a>
</g>
</g>
<!-- Node6 -->
<g id="Node000006" class="node">
<title>Node6</title>
<g id="a_Node000006"><a xlink:href="a02358.html#aebf9e72bb6cbd8b9e33489d46c25075d" target="_top" xlink:title=" ">
<polygon fill="white" stroke="#666666" points="874.5,-92.5 758,-92.5 758,-74 874.5,-74 874.5,-92.5"/>
<text text-anchor="middle" x="816.25" y="-79" font-family="Helvetica,sans-Serif" font-size="10.00">async_completion_wait</text>
</a>
</g>
</g>
<!-- Node5&#45;&gt;Node6 -->
<g id="edge7_Node000005_Node000006" class="edge">
<title>Node5&#45;&gt;Node6</title>
<g id="a_edge7_Node000005_Node000006"><a xlink:title=" ">
<path fill="none" stroke="#63b8ff" d="M705.91,-83.25C718.89,-83.25 732.94,-83.25 746.51,-83.25"/>
<polygon fill="#63b8ff" stroke="#63b8ff" points="746.24,-86.75 756.24,-83.25 746.24,-79.75 746.24,-86.75"/>
</a>
</g>
</g>
<!-- Node8 -->
<g id="Node000008" class="node">
<title>Node8</title>
<g id="a_Node000008"><a xlink:href="a02358.html#a0fa370eee5160963e617d1daf1c07363" target="_top" xlink:title=" ">
<polygon fill="white" stroke="#666666" points="872.62,-55.5 759.88,-55.5 759.88,-37 872.62,-37 872.62,-55.5"/>
<text text-anchor="middle" x="816.25" y="-42" font-family="Helvetica,sans-Serif" font-size="10.00">async_semaphore_inc</text>
</a>
</g>
</g>
<!-- Node7&#45;&gt;Node8 -->
<g id="edge9_Node000007_Node000008" class="edge">
<title>Node7&#45;&gt;Node8</title>
<g id="a_edge9_Node000007_Node000008"><a xlink:title=" ">
<path fill="none" stroke="#63b8ff" d="M708.64,-46.25C721.39,-46.25 735.04,-46.25 748.17,-46.25"/>
<polygon fill="#63b8ff" stroke="#63b8ff" points="748.03,-49.75 758.03,-46.25 748.02,-42.75 748.03,-49.75"/>
</a>
</g>
</g>
<!-- Node10 -->
<g id="Node000010" class="node">
<title>Node10</title>
<g id="a_Node000010"><a xlink:href="a02358.html#ad1d30ecbf6bff6457b680aa940281072" target="_top" xlink:title=" ">
<polygon fill="white" stroke="#666666" points="885.75,-18.5 746.75,-18.5 746.75,0 885.75,0 885.75,-18.5"/>
<text text-anchor="middle" x="816.25" y="-5" font-family="Helvetica,sans-Serif" font-size="10.00">async_completion_complete</text>
</a>
</g>
</g>
<!-- Node9&#45;&gt;Node10 -->
<g id="edge11_Node000009_Node000010" class="edge">
<title>Node9&#45;&gt;Node10</title>
<g id="a_edge11_Node000009_Node000010"><a xlink:title=" ">
<path fill="none" stroke="#63b8ff" d="M710.94,-9.25C718.76,-9.25 726.88,-9.25 734.99,-9.25"/>
<polygon fill="#63b8ff" stroke="#63b8ff" points="734.89,-12.75 744.89,-9.25 734.89,-5.75 734.89,-12.75"/>
</a>
</g>
</g>
</g>
</svg>
