<?xml version="1.0" encoding="UTF-8" standalone="no"?>
<!DOCTYPE svg PUBLIC "-//W3C//DTD SVG 1.1//EN"
 "http://www.w3.org/Graphics/SVG/1.1/DTD/svg11.dtd">
<!-- Generated by graphviz version 8.0.5 (0)
 -->
<!-- Title: arax_accel_init Pages: 1 -->
<svg width="1016pt" height="496pt"
 viewBox="0.00 0.00 1016.25 495.50" xmlns="http://www.w3.org/2000/svg" xmlns:xlink="http://www.w3.org/1999/xlink">
<g id="graph0" class="graph" transform="scale(1 1) rotate(0) translate(4 491.5)">
<title>arax_accel_init</title>
<!-- Node1 -->
<g id="Node000001" class="node">
<title>Node1</title>
<g id="a_Node000001"><a xlink:title=" ">
<polygon fill="#999999" stroke="#666666" points="82,-225.5 0,-225.5 0,-207 82,-207 82,-225.5"/>
<text text-anchor="middle" x="41" y="-212" font-family="Helvetica,sans-Serif" font-size="10.00">arax_accel_init</text>
</a>
</g>
</g>
<!-- Node2 -->
<g id="Node000002" class="node">
<title>Node2</title>
<g id="a_Node000002"><a xlink:href="a01910.html#a402bbd6fa197c2c48d527325e5e2cf5b" target="_top" xlink:title=" ">
<polygon fill="white" stroke="#666666" points="347.25,-414.5 242.75,-414.5 242.75,-396 347.25,-396 347.25,-414.5"/>
<text text-anchor="middle" x="295" y="-401" font-family="Helvetica,sans-Serif" font-size="10.00">arax_object_register</text>
</a>
</g>
</g>
<!-- Node1&#45;&gt;Node2 -->
<g id="edge1_Node000001_Node000002" class="edge">
<title>Node1&#45;&gt;Node2</title>
<g id="a_edge1_Node000001_Node000002"><a xlink:title=" ">
<path fill="none" stroke="#63b8ff" d="M46.31,-225.89C56.16,-246.94 82.27,-297.53 118,-327.25 156.17,-358.99 209.29,-380.16 247.17,-392.34"/>
<polygon fill="#63b8ff" stroke="#63b8ff" points="245.84,-395.9 256.43,-395.53 247.92,-389.22 245.84,-395.9"/>
</a>
</g>
</g>
<!-- Node15 -->
<g id="Node000015" class="node">
<title>Node15</title>
<g id="a_Node000015"><a xlink:href="a01925.html#acf84ea82594c4dbe91cf602ee078e04d" target="_top" xlink:title=" ">
<polygon fill="white" stroke="#666666" points="206.75,-186.5 118,-186.5 118,-168 206.75,-168 206.75,-186.5"/>
<text text-anchor="middle" x="162.38" y="-173" font-family="Helvetica,sans-Serif" font-size="10.00">arax_throttle_init</text>
</a>
</g>
</g>
<!-- Node1&#45;&gt;Node15 -->
<g id="edge16_Node000001_Node000015" class="edge">
<title>Node1&#45;&gt;Node15</title>
<g id="a_edge16_Node000001_Node000015"><a xlink:title=" ">
<path fill="none" stroke="#63b8ff" d="M71.82,-206.51C86.88,-201.59 105.38,-195.55 121.64,-190.23"/>
<polygon fill="#63b8ff" stroke="#63b8ff" points="122.52,-193.3 130.94,-186.87 120.35,-186.65 122.52,-193.3"/>
</a>
</g>
</g>
<!-- Node16 -->
<g id="Node000016" class="node">
<title>Node16</title>
<g id="a_Node000016"><a xlink:href="a02352.html#ac7fbf1f43289d3e0e862b315f00e35e2" target="_top" xlink:title=" ">
<polygon fill="white" stroke="#666666" points="346.88,-111.5 243.12,-111.5 243.12,-93 346.88,-93 346.88,-111.5"/>
<text text-anchor="middle" x="295" y="-98" font-family="Helvetica,sans-Serif" font-size="10.00">async_condition_init</text>
</a>
</g>
</g>
<!-- Node1&#45;&gt;Node16 -->
<g id="edge47_Node000001_Node000016" class="edge">
<title>Node1&#45;&gt;Node16</title>
<g id="a_edge47_Node000001_Node000016"><a xlink:title=" ">
<path fill="none" stroke="#63b8ff" d="M52.56,-206.52C66.57,-194.05 92.52,-172.46 118,-159.25 157.06,-139 204.71,-124.1 240.57,-114.62"/>
<polygon fill="#63b8ff" stroke="#63b8ff" points="241.02,-117.86 249.83,-111.98 239.27,-111.09 241.02,-117.86"/>
</a>
</g>
</g>
<!-- Node21 -->
<g id="Node000021" class="node">
<title>Node21</title>
<g id="a_Node000021"><a xlink:href="a01928.html#a83ddb422946cf774c687c1ab63dcda15" target="_top" xlink:title=" ">
<polygon fill="white" stroke="#666666" points="205.62,-318.5 119.12,-318.5 119.12,-300 205.62,-300 205.62,-318.5"/>
<text text-anchor="middle" x="162.38" y="-305" font-family="Helvetica,sans-Serif" font-size="10.00">arax_vaccel_init</text>
</a>
</g>
</g>
<!-- Node1&#45;&gt;Node21 -->
<g id="edge23_Node000001_Node000021" class="edge">
<title>Node1&#45;&gt;Node21</title>
<g id="a_edge23_Node000001_Node000021"><a xlink:title=" ">
<path fill="none" stroke="#63b8ff" d="M54.33,-225.85C74.7,-241.72 115.62,-273.6 140.55,-293.02"/>
<polygon fill="#63b8ff" stroke="#63b8ff" points="137.9,-296.18 147.94,-299.56 142.2,-290.65 137.9,-296.18"/>
</a>
</g>
</g>
<!-- Node34 -->
<g id="Node000034" class="node">
<title>Node34</title>
<g id="a_Node000034"><a xlink:href="a01946.html#ab36e49d2e694b1da49504a689ed48e4a" target="_top" xlink:title=" ">
<polygon fill="white" stroke="#666666" points="197.38,-225.5 127.38,-225.5 127.38,-207 197.38,-207 197.38,-225.5"/>
<text text-anchor="middle" x="162.38" y="-212" font-family="Helvetica,sans-Serif" font-size="10.00">utils_list_init</text>
</a>
</g>
</g>
<!-- Node1&#45;&gt;Node34 -->
<g id="edge48_Node000001_Node000034" class="edge">
<title>Node1&#45;&gt;Node34</title>
<g id="a_edge48_Node000001_Node000034"><a xlink:title=" ">
<path fill="none" stroke="#63b8ff" d="M82.41,-216.25C93.27,-216.25 105.08,-216.25 116.18,-216.25"/>
<polygon fill="#63b8ff" stroke="#63b8ff" points="115.98,-219.75 125.98,-216.25 115.98,-212.75 115.98,-219.75"/>
</a>
</g>
</g>
<!-- Node3 -->
<g id="Node000003" class="node">
<title>Node3</title>
<g id="a_Node000003"><a xlink:href="a01913.html#a1cfa2c90268c6e53ce376beb7cce153c" target="_top" xlink:title=" ">
<polygon fill="white" stroke="#666666" points="494.12,-417.5 391.88,-417.5 391.88,-399 494.12,-399 494.12,-417.5"/>
<text text-anchor="middle" x="443" y="-404" font-family="Helvetica,sans-Serif" font-size="10.00">arax_pipe_size_dec</text>
</a>
</g>
</g>
<!-- Node2&#45;&gt;Node3 -->
<g id="edge2_Node000002_Node000003" class="edge">
<title>Node2&#45;&gt;Node3</title>
<g id="a_edge2_Node000002_Node000003"><a xlink:title=" ">
<path fill="none" stroke="#63b8ff" d="M347.47,-406.31C358.19,-406.53 369.58,-406.76 380.61,-406.99"/>
<polygon fill="#63b8ff" stroke="#63b8ff" points="380.41,-410.51 390.48,-407.21 380.56,-403.51 380.41,-410.51"/>
</a>
</g>
</g>
<!-- Node11 -->
<g id="Node000011" class="node">
<title>Node11</title>
<g id="a_Node000011"><a xlink:href="a02343.html#ac9828b5c2758940f6d3c7d4335228de5" target="_top" xlink:title=" ">
<polygon fill="white" stroke="#666666" points="492.62,-454.5 393.38,-454.5 393.38,-436 492.62,-436 492.62,-454.5"/>
<text text-anchor="middle" x="443" y="-441" font-family="Helvetica,sans-Serif" font-size="10.00">arch_alloc_allocate</text>
</a>
</g>
</g>
<!-- Node2&#45;&gt;Node11 -->
<g id="edge12_Node000002_Node000011" class="edge">
<title>Node2&#45;&gt;Node11</title>
<g id="a_edge12_Node000002_Node000011"><a xlink:title=" ">
<path fill="none" stroke="#63b8ff" d="M331.34,-414.93C350.75,-420.25 375.04,-426.9 395.91,-432.62"/>
<polygon fill="#63b8ff" stroke="#63b8ff" points="394.91,-436.25 405.48,-435.52 396.76,-429.5 394.91,-436.25"/>
</a>
</g>
</g>
<!-- Node12 -->
<g id="Node000012" class="node">
<title>Node12</title>
<g id="a_Node000012"><a xlink:href="a01946.html#ae06a9e78e6a4f6c9c8afcf0f4862ce29" target="_top" xlink:title=" ">
<polygon fill="white" stroke="#666666" points="644.75,-487.5 571.75,-487.5 571.75,-469 644.75,-469 644.75,-487.5"/>
<text text-anchor="middle" x="608.25" y="-474" font-family="Helvetica,sans-Serif" font-size="10.00">utils_list_add</text>
</a>
</g>
</g>
<!-- Node2&#45;&gt;Node12 -->
<g id="edge13_Node000002_Node000012" class="edge">
<title>Node2&#45;&gt;Node12</title>
<g id="a_edge13_Node000002_Node000012"><a xlink:title=" ">
<path fill="none" stroke="#63b8ff" d="M306.56,-415C322.04,-428.61 352.41,-452.8 383.25,-463.25 442.08,-483.19 514.46,-484.12 560.74,-481.97"/>
<polygon fill="#63b8ff" stroke="#63b8ff" points="560.83,-485.42 570.63,-481.39 560.45,-478.43 560.83,-485.42"/>
</a>
</g>
</g>
<!-- Node14 -->
<g id="Node000014" class="node">
<title>Node14</title>
<g id="a_Node000014"><a xlink:href="a01946.html#a63f2791c9b5c8e2fa15967cfafb7ccbb" target="_top" xlink:title=" ">
<polygon fill="white" stroke="#666666" points="491.12,-333.5 394.88,-333.5 394.88,-315 491.12,-315 491.12,-333.5"/>
<text text-anchor="middle" x="443" y="-320" font-family="Helvetica,sans-Serif" font-size="10.00">utils_list_node_init</text>
</a>
</g>
</g>
<!-- Node2&#45;&gt;Node14 -->
<g id="edge15_Node000002_Node000014" class="edge">
<title>Node2&#45;&gt;Node14</title>
<g id="a_edge15_Node000002_Node000014"><a xlink:title=" ">
<path fill="none" stroke="#63b8ff" d="M307.13,-395.62C323.05,-382.27 353.69,-358.09 383.25,-343.25 387.29,-341.22 391.6,-339.34 395.97,-337.63"/>
<polygon fill="#63b8ff" stroke="#63b8ff" points="397,-340.61 405.2,-333.9 394.6,-334.03 397,-340.61"/>
</a>
</g>
</g>
<!-- Node4 -->
<g id="Node000004" class="node">
<title>Node4</title>
<g id="a_Node000004"><a xlink:href="a01925.html#a8413a3584787f9b629e54b2ef9439f06" target="_top" xlink:title=" ">
<polygon fill="white" stroke="#666666" points="665.38,-450.5 551.12,-450.5 551.12,-432 665.38,-432 665.38,-450.5"/>
<text text-anchor="middle" x="608.25" y="-437" font-family="Helvetica,sans-Serif" font-size="10.00">arax_throttle_size_dec</text>
</a>
</g>
</g>
<!-- Node3&#45;&gt;Node4 -->
<g id="edge3_Node000003_Node000004" class="edge">
<title>Node3&#45;&gt;Node4</title>
<g id="a_edge3_Node000003_Node000004"><a xlink:title=" ">
<path fill="none" stroke="#63b8ff" d="M492.1,-417.97C509.79,-421.55 530.02,-425.64 548.54,-429.38"/>
<polygon fill="#63b8ff" stroke="#63b8ff" points="547.72,-432.99 558.21,-431.54 549.11,-426.13 547.72,-432.99"/>
</a>
</g>
</g>
<!-- Node5 -->
<g id="Node000005" class="node">
<title>Node5</title>
<g id="a_Node000005"><a xlink:href="a02352.html#aed6af4d83e934e3e654ead541b15f2d9" target="_top" xlink:title=" ">
<polygon fill="white" stroke="#666666" points="828,-389.5 719,-389.5 719,-371 828,-371 828,-389.5"/>
<text text-anchor="middle" x="773.5" y="-376" font-family="Helvetica,sans-Serif" font-size="10.00">async_condition_lock</text>
</a>
</g>
</g>
<!-- Node4&#45;&gt;Node5 -->
<g id="edge4_Node000004_Node000005" class="edge">
<title>Node4&#45;&gt;Node5</title>
<g id="a_edge4_Node000004_Node000005"><a xlink:title=" ">
<path fill="none" stroke="#63b8ff" d="M641.71,-431.54C653.24,-427.78 666.22,-423.19 677.75,-418.25 694.38,-411.13 697.08,-406.28 713.75,-399.25 718.69,-397.17 723.93,-395.17 729.18,-393.32"/>
<polygon fill="#63b8ff" stroke="#63b8ff" points="729.85,-396.44 738.2,-389.92 727.6,-389.82 729.85,-396.44"/>
</a>
</g>
</g>
<!-- Node7 -->
<g id="Node000007" class="node">
<title>Node7</title>
<g id="a_Node000007"><a xlink:href="a02352.html#a3bbcb7c4c024e99d5c4ba52b61dfbbf7" target="_top" xlink:title=" ">
<polygon fill="white" stroke="#666666" points="833.25,-277.5 713.75,-277.5 713.75,-259 833.25,-259 833.25,-277.5"/>
<text text-anchor="middle" x="773.5" y="-264" font-family="Helvetica,sans-Serif" font-size="10.00">async_condition_unlock</text>
</a>
</g>
</g>
<!-- Node4&#45;&gt;Node7 -->
<g id="edge6_Node000004_Node000007" class="edge">
<title>Node4&#45;&gt;Node7</title>
<g id="a_edge6_Node000004_Node000007"><a xlink:title=" ">
<path fill="none" stroke="#63b8ff" d="M623.67,-431.59C638.94,-420.71 662.87,-401.71 677.75,-380.25 703.01,-343.83 681.54,-317.69 713.75,-287.25 715.27,-285.81 716.9,-284.49 718.61,-283.26"/>
<polygon fill="#63b8ff" stroke="#63b8ff" points="719.88,-285.99 726.76,-277.92 716.35,-279.94 719.88,-285.99"/>
</a>
</g>
</g>
<!-- Node9 -->
<g id="Node000009" class="node">
<title>Node9</title>
<g id="a_Node000009"><a xlink:href="a02352.html#a1bfeaeb9b81855e640d7a67cc9d92b17" target="_top" xlink:title=" ">
<polygon fill="white" stroke="#666666" points="827.62,-426.5 719.38,-426.5 719.38,-408 827.62,-408 827.62,-426.5"/>
<text text-anchor="middle" x="773.5" y="-413" font-family="Helvetica,sans-Serif" font-size="10.00">async_condition_wait</text>
</a>
</g>
</g>
<!-- Node4&#45;&gt;Node9 -->
<g id="edge8_Node000004_Node000009" class="edge">
<title>Node4&#45;&gt;Node9</title>
<g id="a_edge8_Node000004_Node000009"><a xlink:title=" ">
<path fill="none" stroke="#63b8ff" d="M665.43,-432.99C679.25,-430.96 694.15,-428.77 708.31,-426.69"/>
<polygon fill="#63b8ff" stroke="#63b8ff" points="708.58,-430.04 717.97,-425.12 707.57,-423.11 708.58,-430.04"/>
</a>
</g>
</g>
<!-- Node6 -->
<g id="Node000006" class="node">
<title>Node6</title>
<g id="a_Node000006"><a xlink:href="a02346.html#aebf9e72bb6cbd8b9e33489d46c25075d" target="_top" xlink:title=" ">
<polygon fill="white" stroke="#666666" points="997,-389.5 880.5,-389.5 880.5,-371 997,-371 997,-389.5"/>
<text text-anchor="middle" x="938.75" y="-376" font-family="Helvetica,sans-Serif" font-size="10.00">async_completion_wait</text>
</a>
</g>
</g>
<!-- Node5&#45;&gt;Node6 -->
<g id="edge5_Node000005_Node000006" class="edge">
<title>Node5&#45;&gt;Node6</title>
<g id="a_edge5_Node000005_Node000006"><a xlink:title=" ">
<path fill="none" stroke="#63b8ff" d="M828.41,-380.25C841.52,-380.25 855.73,-380.25 869.41,-380.25"/>
<polygon fill="#63b8ff" stroke="#63b8ff" points="869.25,-383.75 879.25,-380.25 869.25,-376.75 869.25,-383.75"/>
</a>
</g>
</g>
<!-- Node8 -->
<g id="Node000008" class="node">
<title>Node8</title>
<g id="a_Node000008"><a xlink:href="a02346.html#ad1d30ecbf6bff6457b680aa940281072" target="_top" xlink:title=" ">
<polygon fill="white" stroke="#666666" points="1008.25,-277.5 869.25,-277.5 869.25,-259 1008.25,-259 1008.25,-277.5"/>
<text text-anchor="middle" x="938.75" y="-264" font-family="Helvetica,sans-Serif" font-size="10.00">async_completion_complete</text>
</a>
</g>
</g>
<!-- Node7&#45;&gt;Node8 -->
<g id="edge7_Node000007_Node000008" class="edge">
<title>Node7&#45;&gt;Node8</title>
<g id="a_edge7_Node000007_Node000008"><a xlink:title=" ">
<path fill="none" stroke="#63b8ff" d="M833.44,-268.25C841.44,-268.25 849.76,-268.25 858.05,-268.25"/>
<polygon fill="#63b8ff" stroke="#63b8ff" points="857.9,-271.75 867.9,-268.25 857.9,-264.75 857.9,-271.75"/>
</a>
</g>
</g>
<!-- Node9&#45;&gt;Node6 -->
<g id="edge10_Node000009_Node000006" class="edge">
<title>Node9&#45;&gt;Node6</title>
<g id="a_edge10_Node000009_Node000006"><a xlink:title=" ">
<path fill="none" stroke="#63b8ff" d="M817.39,-407.53C837.84,-402.89 862.51,-397.3 884.17,-392.39"/>
<polygon fill="#63b8ff" stroke="#63b8ff" points="884.88,-395.59 893.86,-389.97 883.34,-388.77 884.88,-395.59"/>
</a>
</g>
</g>
<!-- Node9&#45;&gt;Node8 -->
<g id="edge9_Node000009_Node000008" class="edge">
<title>Node9&#45;&gt;Node8</title>
<g id="a_edge9_Node000009_Node000008"><a xlink:title=" ">
<path fill="none" stroke="#63b8ff" d="M815.15,-407.55C821.51,-405.08 827.78,-402.02 833.25,-398.25 855.94,-382.62 902.65,-318.38 925.12,-286.45"/>
<polygon fill="#63b8ff" stroke="#63b8ff" points="928.4,-288.86 931.27,-278.66 922.67,-284.85 928.4,-288.86"/>
</a>
</g>
</g>
<!-- Node10 -->
<g id="Node000010" class="node">
<title>Node10</title>
<g id="a_Node000010"><a xlink:href="a02346.html#a7ab7c7fe9cb93434dde72a4e464a7e69" target="_top" xlink:title=" ">
<polygon fill="white" stroke="#666666" points="996.62,-426.5 880.88,-426.5 880.88,-408 996.62,-408 996.62,-426.5"/>
<text text-anchor="middle" x="938.75" y="-413" font-family="Helvetica,sans-Serif" font-size="10.00">async_semaphore_dec</text>
</a>
</g>
</g>
<!-- Node9&#45;&gt;Node10 -->
<g id="edge11_Node000009_Node000010" class="edge">
<title>Node9&#45;&gt;Node10</title>
<g id="a_edge11_Node000009_Node000010"><a xlink:title=" ">
<path fill="none" stroke="#63b8ff" d="M827.95,-417.25C841.23,-417.25 855.65,-417.25 869.53,-417.25"/>
<polygon fill="#63b8ff" stroke="#63b8ff" points="869.52,-420.75 879.52,-417.25 869.52,-413.75 869.52,-420.75"/>
</a>
</g>
</g>
<!-- Node13 -->
<g id="Node000013" class="node">
<title>Node13</title>
<g id="a_Node000013"><a xlink:href="a01946.html#a5c575f52a42e0e0d2fb41bda2d1268ce" target="_top" xlink:title=" ">
<polygon fill="white" stroke="#666666" points="823.12,-487.5 723.88,-487.5 723.88,-469 823.12,-469 823.12,-487.5"/>
<text text-anchor="middle" x="773.5" y="-474" font-family="Helvetica,sans-Serif" font-size="10.00">utils_list_node_add</text>
</a>
</g>
</g>
<!-- Node12&#45;&gt;Node13 -->
<g id="edge14_Node000012_Node000013" class="edge">
<title>Node12&#45;&gt;Node13</title>
<g id="a_edge14_Node000012_Node000013"><a xlink:title=" ">
<path fill="none" stroke="#63b8ff" d="M645.08,-478.25C664.84,-478.25 689.89,-478.25 712.55,-478.25"/>
<polygon fill="#63b8ff" stroke="#63b8ff" points="712.44,-481.75 722.44,-478.25 712.44,-474.75 712.44,-481.75"/>
</a>
</g>
</g>
<!-- Node15&#45;&gt;Node16 -->
<g id="edge17_Node000015_Node000016" class="edge">
<title>Node15&#45;&gt;Node16</title>
<g id="a_edge17_Node000015_Node000016"><a xlink:title=" ">
<path fill="none" stroke="#63b8ff" d="M180.18,-167.6C202.42,-154.83 241.86,-132.19 267.96,-117.2"/>
<polygon fill="#63b8ff" stroke="#63b8ff" points="269.33,-119.88 276.25,-111.86 265.84,-113.81 269.33,-119.88"/>
</a>
</g>
</g>
<!-- Node16&#45;&gt;Node8 -->
<g id="edge18_Node000016_Node000008" class="edge">
<title>Node16&#45;&gt;Node8</title>
<g id="a_edge18_Node000016_Node000008"><a xlink:title=" ">
<path fill="none" stroke="#63b8ff" d="M347.06,-96.12C464.67,-82.98 750.88,-56.77 833.25,-102.25 890.55,-133.89 920.71,-211.59 932.19,-248.35"/>
<polygon fill="#63b8ff" stroke="#63b8ff" points="929.07,-249.15 935.27,-257.74 935.78,-247.16 929.07,-249.15"/>
</a>
</g>
</g>
<!-- Node17 -->
<g id="Node000017" class="node">
<title>Node17</title>
<g id="a_Node000017"><a xlink:href="a02346.html#ac728117d73179c279de49e01ae905dda" target="_top" xlink:title=" ">
<polygon fill="white" stroke="#666666" points="499,-55.5 387,-55.5 387,-37 499,-37 499,-55.5"/>
<text text-anchor="middle" x="443" y="-42" font-family="Helvetica,sans-Serif" font-size="10.00">async_completion_init</text>
</a>
</g>
</g>
<!-- Node16&#45;&gt;Node17 -->
<g id="edge19_Node000016_Node000017" class="edge">
<title>Node16&#45;&gt;Node17</title>
<g id="a_edge19_Node000016_Node000017"><a xlink:title=" ">
<path fill="none" stroke="#63b8ff" d="M321.1,-92.62C344.71,-83.57 380.28,-69.92 406.74,-59.78"/>
<polygon fill="#63b8ff" stroke="#63b8ff" points="407.66,-62.79 415.74,-55.94 405.15,-56.25 407.66,-62.79"/>
</a>
</g>
</g>
<!-- Node18 -->
<g id="Node000018" class="node">
<title>Node18</title>
<g id="a_Node000018"><a xlink:href="a02349.html#a3bbcb7c4c024e99d5c4ba52b61dfbbf7" target="_top" xlink:title=" ">
<polygon fill="white" stroke="#666666" points="502.75,-18.5 383.25,-18.5 383.25,0 502.75,0 502.75,-18.5"/>
<text text-anchor="middle" x="443" y="-5" font-family="Helvetica,sans-Serif" font-size="10.00">async_condition_unlock</text>
</a>
</g>
</g>
<!-- Node16&#45;&gt;Node18 -->
<g id="edge20_Node000016_Node000018" class="edge">
<title>Node16&#45;&gt;Node18</title>
<g id="a_edge20_Node000016_Node000018"><a xlink:title=" ">
<path fill="none" stroke="#63b8ff" d="M304.76,-92.71C319.54,-77.14 350.97,-46.22 383.25,-28.25 386.73,-26.31 390.44,-24.53 394.24,-22.91"/>
<polygon fill="#63b8ff" stroke="#63b8ff" points="395.34,-25.85 403.41,-18.98 392.82,-19.32 395.34,-25.85"/>
</a>
</g>
</g>
<!-- Node20 -->
<g id="Node000020" class="node">
<title>Node20</title>
<g id="a_Node000020"><a xlink:href="a02346.html#a2a7d01fc7720e936a430efc09d094c6c" target="_top" xlink:title=" ">
<polygon fill="white" stroke="#666666" points="499.38,-129.5 386.62,-129.5 386.62,-111 499.38,-111 499.38,-129.5"/>
<text text-anchor="middle" x="443" y="-116" font-family="Helvetica,sans-Serif" font-size="10.00">async_semaphore_init</text>
</a>
</g>
</g>
<!-- Node16&#45;&gt;Node20 -->
<g id="edge22_Node000016_Node000020" class="edge">
<title>Node16&#45;&gt;Node20</title>
<g id="a_edge22_Node000016_Node000020"><a xlink:title=" ">
<path fill="none" stroke="#63b8ff" d="M347.06,-108.55C356.26,-109.68 365.98,-110.88 375.54,-112.06"/>
<polygon fill="#63b8ff" stroke="#63b8ff" points="374.88,-115.63 385.24,-113.38 375.74,-108.68 374.88,-115.63"/>
</a>
</g>
</g>
<!-- Node19 -->
<g id="Node000019" class="node">
<title>Node19</title>
<g id="a_Node000019"><a xlink:href="a02349.html#ad1d30ecbf6bff6457b680aa940281072" target="_top" xlink:title=" ">
<polygon fill="white" stroke="#666666" points="677.75,-18.5 538.75,-18.5 538.75,0 677.75,0 677.75,-18.5"/>
<text text-anchor="middle" x="608.25" y="-5" font-family="Helvetica,sans-Serif" font-size="10.00">async_completion_complete</text>
</a>
</g>
</g>
<!-- Node18&#45;&gt;Node19 -->
<g id="edge21_Node000018_Node000019" class="edge">
<title>Node18&#45;&gt;Node19</title>
<g id="a_edge21_Node000018_Node000019"><a xlink:title=" ">
<path fill="none" stroke="#63b8ff" d="M502.94,-9.25C510.94,-9.25 519.26,-9.25 527.55,-9.25"/>
<polygon fill="#63b8ff" stroke="#63b8ff" points="527.4,-12.75 537.4,-9.25 527.4,-5.75 527.4,-12.75"/>
</a>
</g>
</g>
<!-- Node21&#45;&gt;Node2 -->
<g id="edge39_Node000021_Node000002" class="edge">
<title>Node21&#45;&gt;Node2</title>
<g id="a_edge39_Node000021_Node000002"><a xlink:title=" ">
<path fill="none" stroke="#63b8ff" d="M172.44,-318.91C186.49,-333.51 214.82,-361.48 242.75,-380.25 248.47,-384.09 254.86,-387.69 261.14,-390.9"/>
<polygon fill="#63b8ff" stroke="#63b8ff" points="259.28,-394.37 269.8,-395.59 262.34,-388.07 259.28,-394.37"/>
</a>
</g>
</g>
<!-- Node21&#45;&gt;Node14 -->
<g id="edge45_Node000021_Node000014" class="edge">
<title>Node21&#45;&gt;Node14</title>
<g id="a_edge45_Node000021_Node000014"><a xlink:title=" ">
<path fill="none" stroke="#63b8ff" d="M206,-311.54C253.53,-314.1 330.7,-318.26 383.78,-321.12"/>
<polygon fill="#63b8ff" stroke="#63b8ff" points="383.55,-324.66 393.72,-321.7 383.92,-317.67 383.55,-324.66"/>
</a>
</g>
</g>
<!-- Node22 -->
<g id="Node000022" class="node">
<title>Node22</title>
<g id="a_Node000022"><a xlink:href="a01904.html#af0b933c02a24d69c1efa40179f60288f" target="_top" xlink:title=" ">
<polygon fill="white" stroke="#666666" points="502,-263.5 384,-263.5 384,-245 502,-245 502,-263.5"/>
<text text-anchor="middle" x="443" y="-250" font-family="Helvetica,sans-Serif" font-size="10.00">arax_accel_add_vaccel</text>
</a>
</g>
</g>
<!-- Node21&#45;&gt;Node22 -->
<g id="edge24_Node000021_Node000022" class="edge">
<title>Node21&#45;&gt;Node22</title>
<g id="a_edge24_Node000021_Node000022"><a xlink:title=" ">
<path fill="none" stroke="#63b8ff" d="M180.41,-299.52C196.08,-291.06 220.23,-279.25 242.75,-273.25 285.1,-261.96 334.1,-257.19 372.9,-255.24"/>
<polygon fill="#63b8ff" stroke="#63b8ff" points="372.73,-258.71 382.56,-254.77 372.41,-251.72 372.73,-258.71"/>
</a>
</g>
</g>
<!-- Node32 -->
<g id="Node000032" class="node">
<title>Node32</title>
<g id="a_Node000032"><a xlink:href="a01913.html#aa4461ab1d225a0f76f08d2f37a4a7e0e" target="_top" xlink:title=" ">
<polygon fill="white" stroke="#666666" points="500.5,-380.75 385.5,-380.75 385.5,-351.75 500.5,-351.75 500.5,-380.75"/>
<text text-anchor="start" x="393.5" y="-367.25" font-family="Helvetica,sans-Serif" font-size="10.00">arax_pipe_add_orphan</text>
<text text-anchor="middle" x="443" y="-356.75" font-family="Helvetica,sans-Serif" font-size="10.00">_vaccel</text>
</a>
</g>
</g>
<!-- Node21&#45;&gt;Node32 -->
<g id="edge40_Node000021_Node000032" class="edge">
<title>Node21&#45;&gt;Node32</title>
<g id="a_edge40_Node000021_Node000032"><a xlink:title=" ">
<path fill="none" stroke="#63b8ff" d="M197.61,-318.95C211.55,-322.73 227.86,-326.94 242.75,-330.25 286.35,-339.94 335.75,-348.88 374.46,-355.43"/>
<polygon fill="#63b8ff" stroke="#63b8ff" points="373.63,-359 384.07,-357.21 374.79,-352.1 373.63,-359"/>
</a>
</g>
</g>
<!-- Node33 -->
<g id="Node000033" class="node">
<title>Node33</title>
<g id="a_Node000033"><a xlink:href="a01949.html#a49c353188156b1df4463a5fc7f7bc25e" target="_top" xlink:title=" ">
<polygon fill="white" stroke="#666666" points="336.75,-300.5 253.25,-300.5 253.25,-282 336.75,-282 336.75,-300.5"/>
<text text-anchor="middle" x="295" y="-287" font-family="Helvetica,sans-Serif" font-size="10.00">utils_queue_init</text>
</a>
</g>
</g>
<!-- Node21&#45;&gt;Node33 -->
<g id="edge46_Node000021_Node000033" class="edge">
<title>Node21&#45;&gt;Node33</title>
<g id="a_edge46_Node000021_Node000033"><a xlink:title=" ">
<path fill="none" stroke="#63b8ff" d="M205.79,-303.41C217.42,-301.8 230.17,-300.05 242.26,-298.38"/>
<polygon fill="#63b8ff" stroke="#63b8ff" points="242.71,-301.71 252.14,-296.88 241.75,-294.78 242.71,-301.71"/>
</a>
</g>
</g>
<!-- Node22&#45;&gt;Node5 -->
<g id="edge34_Node000022_Node000005" class="edge">
<title>Node22&#45;&gt;Node5</title>
<g id="a_edge34_Node000022_Node000005"><a xlink:title=" ">
<path fill="none" stroke="#63b8ff" d="M458.22,-263.91C476.29,-275.86 508.75,-296.2 538.75,-309.25 598.77,-335.37 671.37,-355.8 719.58,-367.91"/>
<polygon fill="#63b8ff" stroke="#63b8ff" points="718.53,-371.5 729.08,-370.51 720.22,-364.71 718.53,-371.5"/>
</a>
</g>
</g>
<!-- Node22&#45;&gt;Node7 -->
<g id="edge37_Node000022_Node000007" class="edge">
<title>Node22&#45;&gt;Node7</title>
<g id="a_edge37_Node000022_Node000007"><a xlink:title=" ">
<path fill="none" stroke="#63b8ff" d="M502.35,-256.74C558.33,-259.12 642.91,-262.73 702.49,-265.27"/>
<polygon fill="#63b8ff" stroke="#63b8ff" points="702.17,-268.8 712.31,-265.73 702.47,-261.8 702.17,-268.8"/>
</a>
</g>
</g>
<!-- Node22&#45;&gt;Node12 -->
<g id="edge38_Node000022_Node000012" class="edge">
<title>Node22&#45;&gt;Node12</title>
<g id="a_edge38_Node000022_Node000012"><a xlink:title=" ">
<path fill="none" stroke="#63b8ff" d="M459.42,-263.86C472.91,-273.08 491.99,-288.24 502.75,-306.25 538.59,-366.21 490.34,-408.89 538.75,-459.25 544.76,-465.51 552.64,-469.76 560.91,-472.64"/>
<polygon fill="#63b8ff" stroke="#63b8ff" points="559.9,-476.27 570.47,-475.59 561.78,-469.53 559.9,-476.27"/>
</a>
</g>
</g>
<!-- Node23 -->
<g id="Node000023" class="node">
<title>Node23</title>
<g id="a_Node000023"><a xlink:href="a01904.html#aed864d2fab73a39a8c98356f7bca1304" target="_top" xlink:title=" ">
<polygon fill="white" stroke="#666666" points="668.75,-226.5 547.75,-226.5 547.75,-208 668.75,-208 668.75,-226.5"/>
<text text-anchor="middle" x="608.25" y="-213" font-family="Helvetica,sans-Serif" font-size="10.00">arax_accel_inc_revision</text>
</a>
</g>
</g>
<!-- Node22&#45;&gt;Node23 -->
<g id="edge25_Node000022_Node000023" class="edge">
<title>Node22&#45;&gt;Node23</title>
<g id="a_edge25_Node000022_Node000023"><a xlink:title=" ">
<path fill="none" stroke="#63b8ff" d="M486.89,-244.53C507.34,-239.89 532.01,-234.3 553.67,-229.39"/>
<polygon fill="#63b8ff" stroke="#63b8ff" points="554.38,-232.59 563.36,-226.97 552.84,-225.77 554.38,-232.59"/>
</a>
</g>
</g>
<!-- Node24 -->
<g id="Node000024" class="node">
<title>Node24</title>
<g id="a_Node000024"><a xlink:href="a01913.html#aa5172b735dddd3f77fbb0265bbcdfc20" target="_top" xlink:title=" ">
<polygon fill="white" stroke="#666666" points="673.62,-189.75 542.88,-189.75 542.88,-160.75 673.62,-160.75 673.62,-189.75"/>
<text text-anchor="start" x="550.88" y="-176.25" font-family="Helvetica,sans-Serif" font-size="10.00">arax_pipe_remove_orphan</text>
<text text-anchor="middle" x="608.25" y="-165.75" font-family="Helvetica,sans-Serif" font-size="10.00">_vaccel</text>
</a>
</g>
</g>
<!-- Node22&#45;&gt;Node24 -->
<g id="edge26_Node000022_Node000024" class="edge">
<title>Node22&#45;&gt;Node24</title>
<g id="a_edge26_Node000022_Node000024"><a xlink:title=" ">
<path fill="none" stroke="#63b8ff" d="M458.63,-244.58C476.86,-232.82 509.21,-212.85 538.75,-199.25 542.57,-197.49 546.55,-195.78 550.6,-194.14"/>
<polygon fill="#63b8ff" stroke="#63b8ff" points="551.66,-197.1 559.72,-190.22 549.13,-190.57 551.66,-197.1"/>
</a>
</g>
</g>
<!-- Node27 -->
<g id="Node000027" class="node">
<title>Node27</title>
<g id="a_Node000027"><a xlink:href="a01928.html#ab2fa3d6e6c761009b464cc0fbedc6a16" target="_top" xlink:title=" ">
<polygon fill="white" stroke="#666666" points="669.5,-142.5 547,-142.5 547,-124 669.5,-124 669.5,-142.5"/>
<text text-anchor="middle" x="608.25" y="-129" font-family="Helvetica,sans-Serif" font-size="10.00">arax_vaccel_queue_size</text>
</a>
</g>
</g>
<!-- Node22&#45;&gt;Node27 -->
<g id="edge31_Node000022_Node000027" class="edge">
<title>Node22&#45;&gt;Node27</title>
<g id="a_edge31_Node000022_Node000027"><a xlink:title=" ">
<path fill="none" stroke="#63b8ff" d="M450.09,-244.74C463.54,-224.53 497.86,-177.12 538.75,-152.25 541.96,-150.3 545.37,-148.54 548.89,-146.96"/>
<polygon fill="#63b8ff" stroke="#63b8ff" points="550.02,-149.89 558.04,-142.97 547.45,-143.38 550.02,-149.89"/>
</a>
</g>
</g>
<!-- Node30 -->
<g id="Node000030" class="node">
<title>Node30</title>
<g id="a_Node000030"><a xlink:href="a02352.html#a45a896fb606c2aa66a5a4c2af59ce494" target="_top" xlink:title=" ">
<polygon fill="white" stroke="#666666" points="665.75,-300.5 550.75,-300.5 550.75,-282 665.75,-282 665.75,-300.5"/>
<text text-anchor="middle" x="608.25" y="-287" font-family="Helvetica,sans-Serif" font-size="10.00">async_condition_notify</text>
</a>
</g>
</g>
<!-- Node22&#45;&gt;Node30 -->
<g id="edge35_Node000022_Node000030" class="edge">
<title>Node22&#45;&gt;Node30</title>
<g id="a_edge35_Node000022_Node000030"><a xlink:title=" ">
<path fill="none" stroke="#63b8ff" d="M486.89,-263.97C507.34,-268.61 532.01,-274.2 553.67,-279.11"/>
<polygon fill="#63b8ff" stroke="#63b8ff" points="552.84,-282.73 563.36,-281.53 554.38,-275.91 552.84,-282.73"/>
</a>
</g>
</g>
<!-- Node24&#45;&gt;Node5 -->
<g id="edge27_Node000024_Node000005" class="edge">
<title>Node24&#45;&gt;Node5</title>
<g id="a_edge27_Node000024_Node000005"><a xlink:title=" ">
<path fill="none" stroke="#63b8ff" d="M666.18,-190.06C670.43,-192.64 674.37,-195.68 677.75,-199.25 717.21,-240.92 684.17,-274.07 713.75,-323.25 723.3,-339.13 738.36,-353.61 750.84,-364.01"/>
<polygon fill="#63b8ff" stroke="#63b8ff" points="748.36,-367.31 758.35,-370.82 752.73,-361.84 748.36,-367.31"/>
</a>
</g>
</g>
<!-- Node24&#45;&gt;Node7 -->
<g id="edge28_Node000024_Node000007" class="edge">
<title>Node24&#45;&gt;Node7</title>
<g id="a_edge28_Node000024_Node000007"><a xlink:title=" ">
<path fill="none" stroke="#63b8ff" d="M662.54,-190.2C667.92,-192.78 673.11,-195.78 677.75,-199.25 699.68,-215.64 691.62,-233.12 713.75,-249.25 716.11,-250.97 718.62,-252.53 721.24,-253.96"/>
<polygon fill="#63b8ff" stroke="#63b8ff" points="719.52,-257.49 730.06,-258.55 722.48,-251.15 719.52,-257.49"/>
</a>
</g>
</g>
<!-- Node25 -->
<g id="Node000025" class="node">
<title>Node25</title>
<g id="a_Node000025"><a xlink:href="a01946.html#a0c85e5516222ab7e7fc354c614760ec5" target="_top" xlink:title=" ">
<polygon fill="white" stroke="#666666" points="808.5,-203.5 738.5,-203.5 738.5,-185 808.5,-185 808.5,-203.5"/>
<text text-anchor="middle" x="773.5" y="-190" font-family="Helvetica,sans-Serif" font-size="10.00">utils_list_del</text>
</a>
</g>
</g>
<!-- Node24&#45;&gt;Node25 -->
<g id="edge29_Node000024_Node000025" class="edge">
<title>Node24&#45;&gt;Node25</title>
<g id="a_edge29_Node000024_Node000025"><a xlink:title=" ">
<path fill="none" stroke="#63b8ff" d="M673.77,-182.76C691.9,-184.87 711.21,-187.12 727.9,-189.06"/>
<polygon fill="#63b8ff" stroke="#63b8ff" points="727.11,-192.61 737.45,-190.29 727.92,-185.65 727.11,-192.61"/>
</a>
</g>
</g>
<!-- Node26 -->
<g id="Node000026" class="node">
<title>Node26</title>
<g id="a_Node000026"><a xlink:href="a01946.html#ab0c44e095ebfd8721de878c42abcbbdc" target="_top" xlink:title=" ">
<polygon fill="white" stroke="#666666" points="827.62,-240.5 719.38,-240.5 719.38,-222 827.62,-222 827.62,-240.5"/>
<text text-anchor="middle" x="773.5" y="-227" font-family="Helvetica,sans-Serif" font-size="10.00">utils_list_node_linked</text>
</a>
</g>
</g>
<!-- Node24&#45;&gt;Node26 -->
<g id="edge30_Node000024_Node000026" class="edge">
<title>Node24&#45;&gt;Node26</title>
<g id="a_edge30_Node000024_Node000026"><a xlink:title=" ">
<path fill="none" stroke="#63b8ff" d="M652.02,-190.17C660.55,-193.16 669.44,-196.29 677.75,-199.25 693.78,-204.95 697.65,-206.74 713.75,-212.25 719.6,-214.25 725.79,-216.31 731.88,-218.31"/>
<polygon fill="#63b8ff" stroke="#63b8ff" points="730.35,-221.82 740.94,-221.58 732.52,-215.16 730.35,-221.82"/>
</a>
</g>
</g>
<!-- Node28 -->
<g id="Node000028" class="node">
<title>Node28</title>
<g id="a_Node000028"><a xlink:href="a01928.html#afe1eb3edd264c847c36e9456b2598452" target="_top" xlink:title=" ">
<polygon fill="white" stroke="#666666" points="823.5,-166.5 723.5,-166.5 723.5,-148 823.5,-148 823.5,-166.5"/>
<text text-anchor="middle" x="773.5" y="-153" font-family="Helvetica,sans-Serif" font-size="10.00">arax_vaccel_queue</text>
</a>
</g>
</g>
<!-- Node27&#45;&gt;Node28 -->
<g id="edge32_Node000027_Node000028" class="edge">
<title>Node27&#45;&gt;Node28</title>
<g id="a_edge32_Node000027_Node000028"><a xlink:title=" ">
<path fill="none" stroke="#63b8ff" d="M669.57,-142.12C683.62,-144.18 698.56,-146.38 712.59,-148.44"/>
<polygon fill="#63b8ff" stroke="#63b8ff" points="711.7,-152 722.1,-149.99 712.71,-145.07 711.7,-152"/>
</a>
</g>
</g>
<!-- Node29 -->
<g id="Node000029" class="node">
<title>Node29</title>
<g id="a_Node000029"><a xlink:href="a01949.html#a5d84d59bded666fdcf1a8e949cb56a6a" target="_top" xlink:title=" ">
<polygon fill="white" stroke="#666666" points="832.5,-129.5 714.5,-129.5 714.5,-111 832.5,-111 832.5,-129.5"/>
<text text-anchor="middle" x="773.5" y="-116" font-family="Helvetica,sans-Serif" font-size="10.00">utils_queue_used_slots</text>
</a>
</g>
</g>
<!-- Node27&#45;&gt;Node29 -->
<g id="edge33_Node000027_Node000029" class="edge">
<title>Node27&#45;&gt;Node29</title>
<g id="a_edge33_Node000027_Node000029"><a xlink:title=" ">
<path fill="none" stroke="#63b8ff" d="M669.57,-128.45C680.59,-127.57 692.16,-126.65 703.4,-125.75"/>
<polygon fill="#63b8ff" stroke="#63b8ff" points="703.36,-129.19 713.05,-124.9 702.81,-122.21 703.36,-129.19"/>
</a>
</g>
</g>
<!-- Node31 -->
<g id="Node000031" class="node">
<title>Node31</title>
<g id="a_Node000031"><a xlink:href="a02346.html#a0fa370eee5160963e617d1daf1c07363" target="_top" xlink:title=" ">
<polygon fill="white" stroke="#666666" points="829.88,-314.5 717.12,-314.5 717.12,-296 829.88,-296 829.88,-314.5"/>
<text text-anchor="middle" x="773.5" y="-301" font-family="Helvetica,sans-Serif" font-size="10.00">async_semaphore_inc</text>
</a>
</g>
</g>
<!-- Node30&#45;&gt;Node31 -->
<g id="edge36_Node000030_Node000031" class="edge">
<title>Node30&#45;&gt;Node31</title>
<g id="a_edge36_Node000030_Node000031"><a xlink:title=" ">
<path fill="none" stroke="#63b8ff" d="M665.89,-296.11C678.9,-297.22 692.84,-298.42 706.21,-299.57"/>
<polygon fill="#63b8ff" stroke="#63b8ff" points="705.53,-303.1 715.79,-300.47 706.12,-296.13 705.53,-303.1"/>
</a>
</g>
</g>
<!-- Node32&#45;&gt;Node5 -->
<g id="edge41_Node000032_Node000005" class="edge">
<title>Node32&#45;&gt;Node5</title>
<g id="a_edge41_Node000032_Node000005"><a xlink:title=" ">
<path fill="none" stroke="#63b8ff" d="M500.97,-376.05C513.38,-377.8 526.48,-379.35 538.75,-380.25 595.7,-384.43 660.67,-384.02 707.64,-382.8"/>
<polygon fill="#63b8ff" stroke="#63b8ff" points="707.67,-386.27 717.57,-382.49 707.48,-379.27 707.67,-386.27"/>
</a>
</g>
</g>
<!-- Node32&#45;&gt;Node7 -->
<g id="edge43_Node000032_Node000007" class="edge">
<title>Node32&#45;&gt;Node7</title>
<g id="a_edge43_Node000032_Node000007"><a xlink:title=" ">
<path fill="none" stroke="#63b8ff" d="M500.8,-357.48C549.12,-348.83 619.7,-333.38 677.75,-309.25 695.07,-302.05 696.71,-295.08 713.75,-287.25 718.14,-285.23 722.81,-283.34 727.52,-281.58"/>
<polygon fill="#63b8ff" stroke="#63b8ff" points="728.53,-284.58 736.81,-277.97 726.21,-277.98 728.53,-284.58"/>
</a>
</g>
</g>
<!-- Node32&#45;&gt;Node12 -->
<g id="edge44_Node000032_Node000012" class="edge">
<title>Node32&#45;&gt;Node12</title>
<g id="a_edge44_Node000032_Node000012"><a xlink:title=" ">
<path fill="none" stroke="#63b8ff" d="M489.88,-381.15C494.52,-383.75 498.92,-386.76 502.75,-390.25 528.32,-413.54 511.86,-437.49 538.75,-459.25 545.22,-464.49 553.04,-468.28 561.04,-471.03"/>
<polygon fill="#63b8ff" stroke="#63b8ff" points="559.99,-474.66 570.57,-474.08 561.94,-467.94 559.99,-474.66"/>
</a>
</g>
</g>
<!-- Node32&#45;&gt;Node30 -->
<g id="edge42_Node000032_Node000030" class="edge">
<title>Node32&#45;&gt;Node30</title>
<g id="a_edge42_Node000032_Node000030"><a xlink:title=" ">
<path fill="none" stroke="#63b8ff" d="M481.77,-351.25C488.78,-348.35 496.01,-345.27 502.75,-342.25 528.88,-330.55 558.12,-316.17 579.01,-305.66"/>
<polygon fill="#63b8ff" stroke="#63b8ff" points="580.2,-308.48 587.55,-300.84 577.05,-302.23 580.2,-308.48"/>
</a>
</g>
</g>
<!-- Node34&#45;&gt;Node14 -->
<g id="edge49_Node000034_Node000014" class="edge">
<title>Node34&#45;&gt;Node14</title>
<g id="a_edge49_Node000034_Node000014"><a xlink:title=" ">
<path fill="none" stroke="#63b8ff" d="M197.62,-224.74C235.09,-234.51 296.55,-251.98 347.25,-273.25 371.78,-283.54 398.34,-298.16 417.08,-309.12"/>
<polygon fill="#63b8ff" stroke="#63b8ff" points="414.98,-312.53 425.37,-314.62 418.55,-306.51 414.98,-312.53"/>
</a>
</g>
</g>
</g>
</svg>
