<?xml version="1.0" encoding="UTF-8" standalone="no"?>
<!DOCTYPE svg PUBLIC "-//W3C//DTD SVG 1.1//EN"
 "http://www.w3.org/Graphics/SVG/1.1/DTD/svg11.dtd">
<!-- Generated by graphviz version 11.0.0 (0)
 -->
<!-- Title: utils_list_init Pages: 1 -->
<svg width="1252pt" height="223pt"
 viewBox="0.00 0.00 1251.75 222.59" xmlns="http://www.w3.org/2000/svg" xmlns:xlink="http://www.w3.org/1999/xlink">
<g id="graph0" class="graph" transform="scale(1 1) rotate(0) translate(4 218.59)">
<title>utils_list_init</title>
<!-- Node1 -->
<g id="Node000001" class="node">
<title>Node1</title>
<g id="a_Node000001"><a xlink:title=" ">
<polygon fill="#999999" stroke="#666666" points="1243.75,-137.47 1173.75,-137.47 1173.75,-118.97 1243.75,-118.97 1243.75,-137.47"/>
<text text-anchor="middle" x="1208.75" y="-123.97" font-family="Helvetica,sans-Serif" font-size="10.00">utils_list_init</text>
</a>
</g>
</g>
<!-- Node2 -->
<g id="Node000002" class="node">
<title>Node2</title>
<g id="a_Node000002"><a xlink:href="a01919.html#a0706a66a62ca8710342ac1c097b703ed" target="_top" xlink:title=" ">
<polygon fill="white" stroke="#666666" points="695.25,-27.47 613.25,-27.47 613.25,-8.97 695.25,-8.97 695.25,-27.47"/>
<text text-anchor="middle" x="654.25" y="-13.97" font-family="Helvetica,sans-Serif" font-size="10.00">arax_accel_init</text>
</a>
</g>
</g>
<!-- Node1&#45;&gt;Node2 -->
<g id="edge1_Node000001_Node000002" class="edge">
<title>Node1&#45;&gt;Node2</title>
<g id="a_edge1_Node000001_Node000002"><a xlink:title=" ">
<path fill="none" stroke="#63b8ff" d="M1195.54,-109.5C1183.18,-92.27 1162.43,-67.57 1137.75,-55.22 989,19.25 781.72,0.66 695.42,-11.59"/>
<polygon fill="#63b8ff" stroke="#63b8ff" points="1192.4,-111.12 1200.95,-117.39 1198.18,-107.16 1192.4,-111.12"/>
</a>
</g>
</g>
<!-- Node3 -->
<g id="Node000003" class="node">
<title>Node3</title>
<g id="a_Node000003"><a xlink:href="a01928.html#a86352ba91ba482c6688b7364d10bf956" target="_top" xlink:title=" ">
<polygon fill="white" stroke="#666666" points="989,-138.47 880,-138.47 880,-119.97 989,-119.97 989,-138.47"/>
<text text-anchor="middle" x="934.5" y="-124.97" font-family="Helvetica,sans-Serif" font-size="10.00">arax_object_repo_init</text>
</a>
</g>
</g>
<!-- Node1&#45;&gt;Node3 -->
<g id="edge2_Node000001_Node000003" class="edge">
<title>Node1&#45;&gt;Node3</title>
<g id="a_edge2_Node000001_Node000003"><a xlink:title=" ">
<path fill="none" stroke="#63b8ff" d="M1161.77,-128.39C1114.13,-128.56 1039.74,-128.84 989.38,-129.02"/>
<polygon fill="#63b8ff" stroke="#63b8ff" points="1161.77,-131.89 1171.76,-128.35 1161.74,-124.89 1161.77,-131.89"/>
</a>
</g>
</g>
<!-- Node4 -->
<g id="Node000004" class="node">
<title>Node4</title>
<g id="a_Node000004"><a xlink:href="a01931.html#aa6293e9ec7776aa49ecf632fcc4f5e26" target="_top" xlink:title=" ">
<polygon fill="white" stroke="#666666" points="692.62,-139.47 615.88,-139.47 615.88,-120.97 692.62,-120.97 692.62,-139.47"/>
<text text-anchor="middle" x="654.25" y="-125.97" font-family="Helvetica,sans-Serif" font-size="10.00">arax_pipe_init</text>
</a>
</g>
</g>
<!-- Node1&#45;&gt;Node4 -->
<g id="edge14_Node000001_Node000004" class="edge">
<title>Node1&#45;&gt;Node4</title>
<g id="a_edge14_Node000001_Node000004"><a xlink:title=" ">
<path fill="none" stroke="#63b8ff" d="M1181.48,-143.32C1168.69,-149.95 1152.85,-157.14 1137.75,-161.22 963.03,-208.42 903.43,-240.99 731.25,-185.22 703.67,-176.29 677.7,-153.19 664.44,-139.94"/>
<polygon fill="#63b8ff" stroke="#63b8ff" points="1182.94,-146.5 1190.08,-138.68 1179.62,-140.34 1182.94,-146.5"/>
</a>
</g>
</g>
<!-- Node13 -->
<g id="Node000013" class="node">
<title>Node13</title>
<g id="a_Node000013"><a xlink:href="a02367.html#ab2e422aab2fcfa562795beb2843e8019" target="_top" xlink:title=" ">
<polygon fill="white" stroke="#666666" points="844,-176.47 731.25,-176.47 731.25,-157.97 844,-157.97 844,-176.47"/>
<text text-anchor="middle" x="787.62" y="-162.97" font-family="Helvetica,sans-Serif" font-size="10.00">async_meta_init_once</text>
</a>
</g>
</g>
<!-- Node1&#45;&gt;Node13 -->
<g id="edge15_Node000001_Node000013" class="edge">
<title>Node1&#45;&gt;Node13</title>
<g id="a_edge15_Node000001_Node000013"><a xlink:title=" ">
<path fill="none" stroke="#63b8ff" d="M1162.17,-138.2C1154.06,-139.73 1145.68,-141.15 1137.75,-142.22 1034.78,-156.15 913.6,-162.62 844.48,-165.39"/>
<polygon fill="#63b8ff" stroke="#63b8ff" points="1162.74,-141.65 1171.87,-136.29 1161.39,-134.79 1162.74,-141.65"/>
</a>
</g>
</g>
<!-- Node14 -->
<g id="Node000014" class="node">
<title>Node14</title>
<g id="a_Node000014"><a xlink:href="a02367.html#a2a7d01fc7720e936a430efc09d094c6c" target="_top" xlink:title=" ">
<polygon fill="white" stroke="#666666" points="1137.75,-82.47 1025,-82.47 1025,-63.97 1137.75,-63.97 1137.75,-82.47"/>
<text text-anchor="middle" x="1081.38" y="-68.97" font-family="Helvetica,sans-Serif" font-size="10.00">async_semaphore_init</text>
</a>
</g>
</g>
<!-- Node1&#45;&gt;Node14 -->
<g id="edge17_Node000001_Node000014" class="edge">
<title>Node1&#45;&gt;Node14</title>
<g id="a_edge17_Node000001_Node000014"><a xlink:title=" ">
<path fill="none" stroke="#63b8ff" d="M1175.27,-113.97C1152.95,-104.18 1123.9,-91.44 1104.28,-82.83"/>
<polygon fill="#63b8ff" stroke="#63b8ff" points="1173.67,-117.09 1184.24,-117.91 1176.49,-110.68 1173.67,-117.09"/>
</a>
</g>
</g>
<!-- Node3&#45;&gt;Node4 -->
<g id="edge3_Node000003_Node000004" class="edge">
<title>Node3&#45;&gt;Node4</title>
<g id="a_edge3_Node000003_Node000004"><a xlink:title=" ">
<path fill="none" stroke="#63b8ff" d="M868.23,-129.46C813.74,-129.65 737.97,-129.92 693.03,-130.09"/>
<polygon fill="#63b8ff" stroke="#63b8ff" points="868.02,-132.96 878.01,-129.42 867.99,-125.96 868.02,-132.96"/>
</a>
</g>
</g>
<!-- Node5 -->
<g id="Node000005" class="node">
<title>Node5</title>
<g id="a_Node000005"><a xlink:href="a01913.html#a02fd608f651d254148dc74f0ae371dfe" target="_top" xlink:title=" ">
<polygon fill="white" stroke="#666666" points="577.25,-139.47 518.5,-139.47 518.5,-120.97 577.25,-120.97 577.25,-139.47"/>
<text text-anchor="middle" x="547.88" y="-125.97" font-family="Helvetica,sans-Serif" font-size="10.00">_arax_init</text>
</a>
</g>
</g>
<!-- Node4&#45;&gt;Node5 -->
<g id="edge4_Node000004_Node000005" class="edge">
<title>Node4&#45;&gt;Node5</title>
<g id="a_edge4_Node000004_Node000005"><a xlink:title=" ">
<path fill="none" stroke="#63b8ff" d="M604.2,-130.22C595.11,-130.22 585.89,-130.22 577.65,-130.22"/>
<polygon fill="#63b8ff" stroke="#63b8ff" points="604.05,-133.72 614.05,-130.22 604.05,-126.72 604.05,-133.72"/>
</a>
</g>
</g>
<!-- Node6 -->
<g id="Node000006" class="node">
<title>Node6</title>
<g id="a_Node000006"><a xlink:href="a01913.html#aa6e4832b06bd5757be4502d2de7b3026" target="_top" xlink:title=" ">
<polygon fill="white" stroke="#666666" points="482.5,-165.72 384,-165.72 384,-136.72 482.5,-136.72 482.5,-165.72"/>
<text text-anchor="start" x="392" y="-152.22" font-family="Helvetica,sans-Serif" font-size="10.00">arax_controller_init</text>
<text text-anchor="middle" x="433.25" y="-141.72" font-family="Helvetica,sans-Serif" font-size="10.00">_start</text>
</a>
</g>
</g>
<!-- Node5&#45;&gt;Node6 -->
<g id="edge5_Node000005_Node000006" class="edge">
<title>Node5&#45;&gt;Node6</title>
<g id="a_edge5_Node000005_Node000006"><a xlink:title=" ">
<path fill="none" stroke="#63b8ff" d="M507.01,-137.65C499.11,-139.13 490.74,-140.69 482.6,-142.21"/>
<polygon fill="#63b8ff" stroke="#63b8ff" points="507.49,-141.13 516.68,-135.85 506.2,-134.24 507.49,-141.13"/>
</a>
</g>
</g>
<!-- Node7 -->
<g id="Node000007" class="node">
<title>Node7</title>
<g id="a_Node000007"><a xlink:href="a02189.html#gae1d371a2840849690acce147e7a205da" target="_top" xlink:title=" ">
<polygon fill="white" stroke="#666666" points="460,-118.47 406.5,-118.47 406.5,-99.97 460,-99.97 460,-118.47"/>
<text text-anchor="middle" x="433.25" y="-104.97" font-family="Helvetica,sans-Serif" font-size="10.00">arax_init</text>
</a>
</g>
</g>
<!-- Node5&#45;&gt;Node7 -->
<g id="edge6_Node000005_Node000007" class="edge">
<title>Node5&#45;&gt;Node7</title>
<g id="a_edge6_Node000005_Node000007"><a xlink:title=" ">
<path fill="none" stroke="#63b8ff" d="M507.21,-122.83C491.62,-119.92 474.15,-116.66 460.21,-114.06"/>
<polygon fill="#63b8ff" stroke="#63b8ff" points="506.2,-126.2 516.68,-124.59 507.49,-119.32 506.2,-126.2"/>
</a>
</g>
</g>
<!-- Node8 -->
<g id="Node000008" class="node">
<title>Node8</title>
<g id="a_Node000008"><a xlink:href="a01949.html#a8a99bcb12e2ee55d68a029bfca9b6d51" target="_top" xlink:title=" ">
<polygon fill="white" stroke="#666666" points="235.25,-148.72 141.25,-148.72 141.25,-119.72 235.25,-119.72 235.25,-148.72"/>
<text text-anchor="start" x="149.25" y="-135.22" font-family="Helvetica,sans-Serif" font-size="10.00">arax_plot_register</text>
<text text-anchor="middle" x="188.25" y="-124.72" font-family="Helvetica,sans-Serif" font-size="10.00">_metric</text>
</a>
</g>
</g>
<!-- Node7&#45;&gt;Node8 -->
<g id="edge7_Node000007_Node000008" class="edge">
<title>Node7&#45;&gt;Node8</title>
<g id="a_edge7_Node000007_Node000008"><a xlink:title=" ">
<path fill="none" stroke="#63b8ff" d="M394.92,-113.06C352.02,-117.48 281.6,-124.72 235.32,-129.48"/>
<polygon fill="#63b8ff" stroke="#63b8ff" points="395.15,-116.56 404.74,-112.05 394.43,-109.59 395.15,-116.56"/>
</a>
</g>
</g>
<!-- Node9 -->
<g id="Node000009" class="node">
<title>Node9</title>
<g id="a_Node000009"><a xlink:href="a01937.html#a80ab3bf4a8af9bb101b5a53248609771" target="_top" xlink:title=" ">
<polygon fill="white" stroke="#666666" points="348,-100.47 271.25,-100.47 271.25,-81.97 348,-81.97 348,-100.47"/>
<text text-anchor="middle" x="309.62" y="-86.97" font-family="Helvetica,sans-Serif" font-size="10.00">arax_ptr_valid</text>
</a>
</g>
</g>
<!-- Node7&#45;&gt;Node9 -->
<g id="edge8_Node000007_Node000009" class="edge">
<title>Node7&#45;&gt;Node9</title>
<g id="a_edge8_Node000007_Node000009"><a xlink:title=" ">
<path fill="none" stroke="#63b8ff" d="M394.83,-103.68C380.03,-101.49 363.04,-98.98 348.21,-96.78"/>
<polygon fill="#63b8ff" stroke="#63b8ff" points="394.26,-107.14 404.66,-105.14 395.28,-100.21 394.26,-107.14"/>
</a>
</g>
</g>
<!-- Node9&#45;&gt;Node8 -->
<g id="edge13_Node000009_Node000008" class="edge">
<title>Node9&#45;&gt;Node8</title>
<g id="a_edge13_Node000009_Node000008"><a xlink:title=" ">
<path fill="none" stroke="#63b8ff" d="M271.39,-104.63C258.41,-109.31 243.77,-114.58 230.49,-119.37"/>
<polygon fill="#63b8ff" stroke="#63b8ff" points="272.19,-108.07 280.41,-101.38 269.82,-101.48 272.19,-108.07"/>
</a>
</g>
</g>
<!-- Node10 -->
<g id="Node000010" class="node">
<title>Node10</title>
<g id="a_Node000010"><a xlink:href="a01970.html#a4ee1fea325d2edd421f59ab240dfbe54" target="_top" xlink:title=" ">
<polygon fill="white" stroke="#666666" points="234.12,-63.47 142.38,-63.47 142.38,-44.97 234.12,-44.97 234.12,-63.47"/>
<text text-anchor="middle" x="188.25" y="-49.97" font-family="Helvetica,sans-Serif" font-size="10.00">_arax_assert_obj</text>
</a>
</g>
</g>
<!-- Node9&#45;&gt;Node10 -->
<g id="edge9_Node000009_Node000010" class="edge">
<title>Node9&#45;&gt;Node10</title>
<g id="a_edge9_Node000009_Node000010"><a xlink:title=" ">
<path fill="none" stroke="#63b8ff" d="M266.56,-78.18C251.36,-73.47 234.5,-68.25 220.4,-63.88"/>
<polygon fill="#63b8ff" stroke="#63b8ff" points="265.23,-81.43 275.81,-81.05 267.3,-74.75 265.23,-81.43"/>
</a>
</g>
</g>
<!-- Node11 -->
<g id="Node000011" class="node">
<title>Node11</title>
<g id="a_Node000011"><a xlink:href="a01925.html#afeaab7d93372f0752d59c70d9c5940e7" target="_top" xlink:title=" ">
<polygon fill="white" stroke="#666666" points="226.25,-26.47 150.25,-26.47 150.25,-7.97 226.25,-7.97 226.25,-26.47"/>
<text text-anchor="middle" x="188.25" y="-12.97" font-family="Helvetica,sans-Serif" font-size="10.00">arax_data_ref</text>
</a>
</g>
</g>
<!-- Node9&#45;&gt;Node11 -->
<g id="edge10_Node000009_Node000011" class="edge">
<title>Node9&#45;&gt;Node11</title>
<g id="a_edge10_Node000009_Node000011"><a xlink:title=" ">
<path fill="none" stroke="#63b8ff" d="M289.35,-74.64C275.06,-62.9 254.77,-47.33 235.25,-36.22 229.24,-32.8 222.5,-29.66 216.06,-26.97"/>
<polygon fill="#63b8ff" stroke="#63b8ff" points="286.72,-77.01 296.64,-80.75 291.22,-71.64 286.72,-77.01"/>
</a>
</g>
</g>
<!-- Node12 -->
<g id="Node000012" class="node">
<title>Node12</title>
<g id="a_Node000012"><a xlink:href="a01925.html#ac1f7fb20b3a23b388bea24f1b46a33a8" target="_top" xlink:title=" ">
<polygon fill="white" stroke="#666666" points="105.25,-63.47 0,-63.47 0,-44.97 105.25,-44.97 105.25,-63.47"/>
<text text-anchor="middle" x="52.62" y="-49.97" font-family="Helvetica,sans-Serif" font-size="10.00">arax_data_ref_offset</text>
</a>
</g>
</g>
<!-- Node9&#45;&gt;Node12 -->
<g id="edge12_Node000009_Node000012" class="edge">
<title>Node9&#45;&gt;Node12</title>
<g id="a_edge12_Node000009_Node000012"><a xlink:title=" ">
<path fill="none" stroke="#63b8ff" d="M259.63,-86.83C226.17,-83.54 180.91,-78.53 141.25,-72.22 126.83,-69.93 111.19,-66.89 97.16,-63.97"/>
<polygon fill="#63b8ff" stroke="#63b8ff" points="259.14,-90.29 269.43,-87.77 259.81,-83.33 259.14,-90.29"/>
</a>
</g>
</g>
<!-- Node11&#45;&gt;Node12 -->
<g id="edge11_Node000011_Node000012" class="edge">
<title>Node11&#45;&gt;Node12</title>
<g id="a_edge11_Node000011_Node000012"><a xlink:title=" ">
<path fill="none" stroke="#63b8ff" d="M141.15,-29.99C123.89,-34.77 104.58,-40.11 88.5,-44.56"/>
<polygon fill="#63b8ff" stroke="#63b8ff" points="141.98,-33.39 150.68,-27.35 140.11,-26.64 141.98,-33.39"/>
</a>
</g>
</g>
<!-- Node13&#45;&gt;Node4 -->
<g id="edge16_Node000013_Node000004" class="edge">
<title>Node13&#45;&gt;Node4</title>
<g id="a_edge16_Node000013_Node000004"><a xlink:title=" ">
<path fill="none" stroke="#63b8ff" d="M741.3,-154.46C724.33,-149.68 705.35,-144.33 689.54,-139.88"/>
<polygon fill="#63b8ff" stroke="#63b8ff" points="740.08,-157.75 750.65,-157.09 741.97,-151.01 740.08,-157.75"/>
</a>
</g>
</g>
<!-- Node15 -->
<g id="Node000015" class="node">
<title>Node15</title>
<g id="a_Node000015"><a xlink:href="a02367.html#ac7fbf1f43289d3e0e862b315f00e35e2" target="_top" xlink:title=" ">
<polygon fill="white" stroke="#666666" points="986.38,-73.47 882.62,-73.47 882.62,-54.97 986.38,-54.97 986.38,-73.47"/>
<text text-anchor="middle" x="934.5" y="-59.97" font-family="Helvetica,sans-Serif" font-size="10.00">async_condition_init</text>
</a>
</g>
</g>
<!-- Node14&#45;&gt;Node15 -->
<g id="edge18_Node000014_Node000015" class="edge">
<title>Node14&#45;&gt;Node15</title>
<g id="a_edge18_Node000014_Node000015"><a xlink:title=" ">
<path fill="none" stroke="#63b8ff" d="M1013.4,-69.06C1004.34,-68.5 995.16,-67.93 986.44,-67.39"/>
<polygon fill="#63b8ff" stroke="#63b8ff" points="1013.07,-72.55 1023.27,-69.67 1013.5,-65.56 1013.07,-72.55"/>
</a>
</g>
</g>
<!-- Node15&#45;&gt;Node2 -->
<g id="edge19_Node000015_Node000002" class="edge">
<title>Node15&#45;&gt;Node2</title>
<g id="a_edge19_Node000015_Node000002"><a xlink:title=" ">
<path fill="none" stroke="#63b8ff" d="M895.51,-50.99C879.75,-45.97 861.16,-40.64 844,-37.22 793.45,-27.15 734.17,-22.29 695.72,-20.04"/>
<polygon fill="#63b8ff" stroke="#63b8ff" points="894.4,-54.31 904.99,-54.09 896.57,-47.66 894.4,-54.31"/>
</a>
</g>
</g>
<!-- Node15&#45;&gt;Node4 -->
<g id="edge20_Node000015_Node000004" class="edge">
<title>Node15&#45;&gt;Node4</title>
<g id="a_edge20_Node000015_Node000004"><a xlink:title=" ">
<path fill="none" stroke="#63b8ff" d="M881.56,-76.54C826.73,-89.55 741.62,-109.73 692.9,-121.29"/>
<polygon fill="#63b8ff" stroke="#63b8ff" points="882.05,-80.02 890.97,-74.31 880.43,-73.21 882.05,-80.02"/>
</a>
</g>
</g>
<!-- Node16 -->
<g id="Node000016" class="node">
<title>Node16</title>
<g id="a_Node000016"><a xlink:href="a01943.html#acf84ea82594c4dbe91cf602ee078e04d" target="_top" xlink:title=" ">
<polygon fill="white" stroke="#666666" points="832,-64.47 743.25,-64.47 743.25,-45.97 832,-45.97 832,-64.47"/>
<text text-anchor="middle" x="787.62" y="-50.97" font-family="Helvetica,sans-Serif" font-size="10.00">arax_throttle_init</text>
</a>
</g>
</g>
<!-- Node15&#45;&gt;Node16 -->
<g id="edge21_Node000015_Node000016" class="edge">
<title>Node15&#45;&gt;Node16</title>
<g id="a_edge21_Node000015_Node000016"><a xlink:title=" ">
<path fill="none" stroke="#63b8ff" d="M871.03,-60.34C857.89,-59.52 844.3,-58.68 832.04,-57.92"/>
<polygon fill="#63b8ff" stroke="#63b8ff" points="870.71,-63.83 880.91,-60.95 871.15,-56.84 870.71,-63.83"/>
</a>
</g>
</g>
<!-- Node16&#45;&gt;Node2 -->
<g id="edge22_Node000016_Node000002" class="edge">
<title>Node16&#45;&gt;Node2</title>
<g id="a_edge22_Node000016_Node000002"><a xlink:title=" ">
<path fill="none" stroke="#63b8ff" d="M741.3,-42.46C724.33,-37.68 705.35,-32.33 689.54,-27.88"/>
<polygon fill="#63b8ff" stroke="#63b8ff" points="740.08,-45.75 750.65,-45.09 741.97,-39.01 740.08,-45.75"/>
</a>
</g>
</g>
<!-- Node16&#45;&gt;Node4 -->
<g id="edge23_Node000016_Node000004" class="edge">
<title>Node16&#45;&gt;Node4</title>
<g id="a_edge23_Node000016_Node000004"><a xlink:title=" ">
<path fill="none" stroke="#63b8ff" d="M749.8,-69.26C743.51,-72.01 737.11,-75.04 731.25,-78.22 707.64,-91.02 682.29,-109.42 667.65,-120.55"/>
<polygon fill="#63b8ff" stroke="#63b8ff" points="750.93,-72.58 758.8,-65.49 748.22,-66.13 750.93,-72.58"/>
</a>
</g>
</g>
</g>
</svg>
