<?xml version="1.0" encoding="UTF-8" standalone="no"?>
<!DOCTYPE svg PUBLIC "-//W3C//DTD SVG 1.1//EN"
 "http://www.w3.org/Graphics/SVG/1.1/DTD/svg11.dtd">
<!-- Generated by graphviz version 8.0.5 (0)
 -->
<!-- Title: arax_pipe_remove_orphan_vaccel Pages: 1 -->
<svg width="629pt" height="101pt"
 viewBox="0.00 0.00 628.50 100.50" xmlns="http://www.w3.org/2000/svg" xmlns:xlink="http://www.w3.org/1999/xlink">
<g id="graph0" class="graph" transform="scale(1 1) rotate(0) translate(4 96.5)">
<title>arax_pipe_remove_orphan_vaccel</title>
<!-- Node1 -->
<g id="Node000001" class="node">
<title>Node1</title>
<g id="a_Node000001"><a xlink:title=" ">
<polygon fill="#999999" stroke="#666666" points="620.5,-60.75 489.75,-60.75 489.75,-31.75 620.5,-31.75 620.5,-60.75"/>
<text text-anchor="start" x="497.75" y="-47.25" font-family="Helvetica,sans-Serif" font-size="10.00">arax_pipe_remove_orphan</text>
<text text-anchor="middle" x="555.12" y="-36.75" font-family="Helvetica,sans-Serif" font-size="10.00">_vaccel</text>
</a>
</g>
</g>
<!-- Node2 -->
<g id="Node000002" class="node">
<title>Node2</title>
<g id="a_Node000002"><a xlink:href="a01904.html#af0b933c02a24d69c1efa40179f60288f" target="_top" xlink:title=" ">
<polygon fill="white" stroke="#666666" points="446.62,-74.5 328.62,-74.5 328.62,-56 446.62,-56 446.62,-74.5"/>
<text text-anchor="middle" x="387.62" y="-61" font-family="Helvetica,sans-Serif" font-size="10.00">arax_accel_add_vaccel</text>
</a>
</g>
</g>
<!-- Node1&#45;&gt;Node2 -->
<g id="edge1_Node000001_Node000002" class="edge">
<title>Node1&#45;&gt;Node2</title>
<g id="a_edge1_Node000001_Node000002"><a xlink:title=" ">
<path fill="none" stroke="#63b8ff" d="M479,-54.87C468.25,-56.11 457.33,-57.36 446.97,-58.55"/>
<polygon fill="#63b8ff" stroke="#63b8ff" points="479.13,-58.27 488.66,-53.65 478.33,-51.31 479.13,-58.27"/>
</a>
</g>
</g>
<!-- Node8 -->
<g id="Node000008" class="node">
<title>Node8</title>
<g id="a_Node000008"><a xlink:href="a01928.html#a5920cc4cd90589f3c5ac8686a72bcfc0" target="_top" xlink:title=" ">
<polygon fill="white" stroke="#666666" points="453.75,-37.5 321.5,-37.5 321.5,-19 453.75,-19 453.75,-37.5"/>
<text text-anchor="middle" x="387.62" y="-24" font-family="Helvetica,sans-Serif" font-size="10.00">ARAX_OBJ_DTOR_DECL</text>
</a>
</g>
</g>
<!-- Node1&#45;&gt;Node8 -->
<g id="edge7_Node000001_Node000008" class="edge">
<title>Node1&#45;&gt;Node8</title>
<g id="a_edge7_Node000001_Node000008"><a xlink:title=" ">
<path fill="none" stroke="#63b8ff" d="M478.85,-38.06C470.55,-37.16 462.16,-36.25 454,-35.36"/>
<polygon fill="#63b8ff" stroke="#63b8ff" points="478.34,-41.64 488.66,-39.24 479.1,-34.68 478.34,-41.64"/>
</a>
</g>
</g>
<!-- Node3 -->
<g id="Node000003" class="node">
<title>Node3</title>
<g id="a_Node000003"><a xlink:href="a02175.html#ga30b30e50de286842c7942a7e3e163578" target="_top" xlink:title=" ">
<polygon fill="white" stroke="#666666" points="285.5,-92.5 162.25,-92.5 162.25,-74 285.5,-74 285.5,-92.5"/>
<text text-anchor="middle" x="223.88" y="-79" font-family="Helvetica,sans-Serif" font-size="10.00">arax_accel_set_physical</text>
</a>
</g>
</g>
<!-- Node2&#45;&gt;Node3 -->
<g id="edge2_Node000002_Node000003" class="edge">
<title>Node2&#45;&gt;Node3</title>
<g id="a_edge2_Node000002_Node000003"><a xlink:title=" ">
<path fill="none" stroke="#63b8ff" d="M317.43,-72.95C306.95,-74.12 296.2,-75.31 285.91,-76.46"/>
<polygon fill="#63b8ff" stroke="#63b8ff" points="317.68,-76.33 327.23,-71.75 316.9,-69.38 317.68,-76.33"/>
</a>
</g>
</g>
<!-- Node4 -->
<g id="Node000004" class="node">
<title>Node4</title>
<g id="a_Node000004"><a xlink:href="a01928.html#a83ddb422946cf774c687c1ab63dcda15" target="_top" xlink:title=" ">
<polygon fill="white" stroke="#666666" points="267.12,-55.5 180.62,-55.5 180.62,-37 267.12,-37 267.12,-55.5"/>
<text text-anchor="middle" x="223.88" y="-42" font-family="Helvetica,sans-Serif" font-size="10.00">arax_vaccel_init</text>
</a>
</g>
</g>
<!-- Node2&#45;&gt;Node4 -->
<g id="edge3_Node000002_Node000004" class="edge">
<title>Node2&#45;&gt;Node4</title>
<g id="a_edge3_Node000002_Node000004"><a xlink:title=" ">
<path fill="none" stroke="#63b8ff" d="M317.72,-57.16C300.65,-55.15 282.85,-53.06 267.45,-51.25"/>
<polygon fill="#63b8ff" stroke="#63b8ff" points="316.89,-60.7 327.23,-58.39 317.71,-53.75 316.89,-60.7"/>
</a>
</g>
</g>
<!-- Node5 -->
<g id="Node000005" class="node">
<title>Node5</title>
<g id="a_Node000005"><a xlink:href="a02175.html#gaf8a10ab4e51e59c464ab3ab473e4a0f7" target="_top" xlink:title=" ">
<polygon fill="white" stroke="#666666" points="126.25,-92.5 0,-92.5 0,-74 126.25,-74 126.25,-92.5"/>
<text text-anchor="middle" x="63.12" y="-79" font-family="Helvetica,sans-Serif" font-size="10.00">arax_accel_acquire_phys</text>
</a>
</g>
</g>
<!-- Node4&#45;&gt;Node5 -->
<g id="edge4_Node000004_Node000005" class="edge">
<title>Node4&#45;&gt;Node5</title>
<g id="a_edge4_Node000004_Node000005"><a xlink:title=" ">
<path fill="none" stroke="#63b8ff" d="M170.48,-58.46C149.48,-63.36 125.62,-68.92 105.83,-73.53"/>
<polygon fill="#63b8ff" stroke="#63b8ff" points="171.22,-61.65 180.17,-55.97 169.63,-54.83 171.22,-61.65"/>
</a>
</g>
</g>
<!-- Node6 -->
<g id="Node000006" class="node">
<title>Node6</title>
<g id="a_Node000006"><a xlink:href="a02175.html#ga008252bb9afc2990fa2c5f4b980c9f27" target="_top" xlink:title=" ">
<polygon fill="white" stroke="#666666" points="125.5,-55.5 0.75,-55.5 0.75,-37 125.5,-37 125.5,-55.5"/>
<text text-anchor="middle" x="63.12" y="-42" font-family="Helvetica,sans-Serif" font-size="10.00">arax_accel_acquire_type</text>
</a>
</g>
</g>
<!-- Node4&#45;&gt;Node6 -->
<g id="edge5_Node000004_Node000006" class="edge">
<title>Node4&#45;&gt;Node6</title>
<g id="a_edge5_Node000004_Node000006"><a xlink:title=" ">
<path fill="none" stroke="#63b8ff" d="M169.42,-46.25C155.44,-46.25 140.26,-46.25 125.89,-46.25"/>
<polygon fill="#63b8ff" stroke="#63b8ff" points="169.33,-49.75 179.33,-46.25 169.33,-42.75 169.33,-49.75"/>
</a>
</g>
</g>
<!-- Node7 -->
<g id="Node000007" class="node">
<title>Node7</title>
<g id="a_Node000007"><a xlink:href="a01904.html#a0706a66a62ca8710342ac1c097b703ed" target="_top" xlink:title=" ">
<polygon fill="white" stroke="#666666" points="104.12,-18.5 22.12,-18.5 22.12,0 104.12,0 104.12,-18.5"/>
<text text-anchor="middle" x="63.12" y="-5" font-family="Helvetica,sans-Serif" font-size="10.00">arax_accel_init</text>
</a>
</g>
</g>
<!-- Node4&#45;&gt;Node7 -->
<g id="edge6_Node000004_Node000007" class="edge">
<title>Node4&#45;&gt;Node7</title>
<g id="a_edge6_Node000004_Node000007"><a xlink:title=" ">
<path fill="none" stroke="#63b8ff" d="M170.56,-34.06C149.05,-29.04 124.54,-23.33 104.46,-18.65"/>
<polygon fill="#63b8ff" stroke="#63b8ff" points="169.63,-37.67 180.17,-36.53 171.22,-30.85 169.63,-37.67"/>
</a>
</g>
</g>
</g>
</svg>
