<?xml version="1.0" encoding="UTF-8" standalone="no"?>
<!DOCTYPE svg PUBLIC "-//W3C//DTD SVG 1.1//EN"
 "http://www.w3.org/Graphics/SVG/1.1/DTD/svg11.dtd">
<!-- Generated by graphviz version 12.2.1 (0)
 -->
<!-- Title: internal_bulk_free Pages: 1 -->
<svg width="386pt" height="138pt"
 viewBox="0.00 0.00 386.00 137.50" xmlns="http://www.w3.org/2000/svg" xmlns:xlink="http://www.w3.org/1999/xlink">
<g id="graph0" class="graph" transform="scale(1 1) rotate(0) translate(4 133.5)">
<title>internal_bulk_free</title>
<!-- Node1 -->
<g id="Node000001" class="node">
<title>Node1</title>
<g id="a_Node000001"><a xlink:title=" ">
<polygon fill="#999999" stroke="#666666" points="92.5,-91.5 0,-91.5 0,-73 92.5,-73 92.5,-91.5"/>
<text text-anchor="middle" x="46.25" y="-78" font-family="Helvetica,sans-Serif" font-size="10.00">internal_bulk_free</text>
</a>
</g>
</g>
<!-- Node2 -->
<g id="Node000002" class="node">
<title>Node2</title>
<g id="a_Node000002"><a xlink:href="a01901.html#a2d20e33b2d417733503759c0594f882d" target="_top" xlink:title=" ">
<polygon fill="white" stroke="#666666" points="209.75,-110.5 128.5,-110.5 128.5,-92 209.75,-92 209.75,-110.5"/>
<text text-anchor="middle" x="169.12" y="-97" font-family="Helvetica,sans-Serif" font-size="10.00">dispose_chunk</text>
</a>
</g>
</g>
<!-- Node1&#45;&gt;Node2 -->
<g id="edge1_Node000001_Node000002" class="edge">
<title>Node1&#45;&gt;Node2</title>
<g id="a_edge1_Node000001_Node000002"><a xlink:title=" ">
<path fill="none" stroke="#63b8ff" d="M92.95,-89.43C100.85,-90.68 109.12,-91.98 117.16,-93.24"/>
<polygon fill="#63b8ff" stroke="#63b8ff" points="116.39,-96.66 126.81,-94.76 117.47,-89.74 116.39,-96.66"/>
</a>
</g>
</g>
<!-- Node3 -->
<g id="Node000003" class="node">
<title>Node3</title>
<g id="a_Node000003"><a xlink:href="a01901.html#a3de256edbbbbd4018cd3563f55ee50ab" target="_top" xlink:title=" ">
<polygon fill="white" stroke="#666666" points="195.12,-73.5 143.12,-73.5 143.12,-55 195.12,-55 195.12,-73.5"/>
<text text-anchor="middle" x="169.12" y="-60" font-family="Helvetica,sans-Serif" font-size="10.00">sys_trim</text>
</a>
</g>
</g>
<!-- Node1&#45;&gt;Node3 -->
<g id="edge2_Node000001_Node000003" class="edge">
<title>Node1&#45;&gt;Node3</title>
<g id="a_edge2_Node000001_Node000003"><a xlink:title=" ">
<path fill="none" stroke="#63b8ff" d="M92.95,-75.44C105.71,-73.54 119.42,-71.5 131.58,-69.69"/>
<polygon fill="#63b8ff" stroke="#63b8ff" points="131.82,-73.2 141.19,-68.26 130.79,-66.27 131.82,-73.2"/>
</a>
</g>
</g>
<!-- Node4 -->
<g id="Node000004" class="node">
<title>Node4</title>
<g id="a_Node000004"><a xlink:href="a01901.html#ab22b9d57eca306724cb8c4f928d0e824" target="_top" xlink:title=" ">
<polygon fill="white" stroke="#666666" points="359.25,-129.5 264.5,-129.5 264.5,-111 359.25,-111 359.25,-129.5"/>
<text text-anchor="middle" x="311.88" y="-116" font-family="Helvetica,sans-Serif" font-size="10.00">has_segment_link</text>
</a>
</g>
</g>
<!-- Node3&#45;&gt;Node4 -->
<g id="edge3_Node000003_Node000004" class="edge">
<title>Node3&#45;&gt;Node4</title>
<g id="a_edge3_Node000003_Node000004"><a xlink:title=" ">
<path fill="none" stroke="#63b8ff" d="M190.31,-73.85C196.56,-76.84 203.45,-80.16 209.75,-83.25 225.82,-91.12 229.1,-94.72 245.75,-101.25 251.1,-103.35 256.77,-105.33 262.45,-107.18"/>
<polygon fill="#63b8ff" stroke="#63b8ff" points="261.26,-110.47 271.85,-110.09 263.33,-103.79 261.26,-110.47"/>
</a>
</g>
</g>
<!-- Node5 -->
<g id="Node000005" class="node">
<title>Node5</title>
<g id="a_Node000005"><a xlink:href="a01901.html#a09ce4644252dfd54eb489e77d0adfd20" target="_top" xlink:title=" ">
<polygon fill="white" stroke="#666666" points="335.62,-92.5 288.12,-92.5 288.12,-74 335.62,-74 335.62,-92.5"/>
<text text-anchor="middle" x="311.88" y="-79" font-family="Helvetica,sans-Serif" font-size="10.00">init_top</text>
</a>
</g>
</g>
<!-- Node3&#45;&gt;Node5 -->
<g id="edge4_Node000003_Node000005" class="edge">
<title>Node3&#45;&gt;Node5</title>
<g id="a_edge4_Node000003_Node000005"><a xlink:title=" ">
<path fill="none" stroke="#63b8ff" d="M195.61,-67.69C218.32,-70.76 251.72,-75.26 276.73,-78.64"/>
<polygon fill="#63b8ff" stroke="#63b8ff" points="276.03,-82.08 286.41,-79.95 276.96,-75.14 276.03,-82.08"/>
</a>
</g>
</g>
<!-- Node6 -->
<g id="Node000006" class="node">
<title>Node6</title>
<g id="a_Node000006"><a xlink:href="a01901.html#a949111e5f127c26e3b9f11bf26c8038a" target="_top" xlink:title=" ">
<polygon fill="white" stroke="#666666" points="378,-55.5 245.75,-55.5 245.75,-37 378,-37 378,-55.5"/>
<text text-anchor="middle" x="311.88" y="-42" font-family="Helvetica,sans-Serif" font-size="10.00">release_unused_segments</text>
</a>
</g>
</g>
<!-- Node3&#45;&gt;Node6 -->
<g id="edge5_Node000003_Node000006" class="edge">
<title>Node3&#45;&gt;Node6</title>
<g id="a_edge5_Node000003_Node000006"><a xlink:title=" ">
<path fill="none" stroke="#63b8ff" d="M195.61,-60.99C206.68,-59.58 220.28,-57.84 234.22,-56.05"/>
<polygon fill="#63b8ff" stroke="#63b8ff" points="234.45,-59.55 243.92,-54.81 233.56,-52.61 234.45,-59.55"/>
</a>
</g>
</g>
<!-- Node7 -->
<g id="Node000007" class="node">
<title>Node7</title>
<g id="a_Node000007"><a xlink:href="a01901.html#adc1656892fa59cbd2e3b60a2608dfefc" target="_top" xlink:title=" ">
<polygon fill="white" stroke="#666666" points="356.62,-18.5 267.12,-18.5 267.12,0 356.62,0 356.62,-18.5"/>
<text text-anchor="middle" x="311.88" y="-5" font-family="Helvetica,sans-Serif" font-size="10.00">segment_holding</text>
</a>
</g>
</g>
<!-- Node3&#45;&gt;Node7 -->
<g id="edge6_Node000003_Node000007" class="edge">
<title>Node3&#45;&gt;Node7</title>
<g id="a_edge6_Node000003_Node000007"><a xlink:title=" ">
<path fill="none" stroke="#63b8ff" d="M188.41,-54.53C203.51,-46.75 225.64,-35.91 245.75,-28.25 251.18,-26.18 256.94,-24.2 262.7,-22.36"/>
<polygon fill="#63b8ff" stroke="#63b8ff" points="263.7,-25.71 272.23,-19.43 261.65,-19.02 263.7,-25.71"/>
</a>
</g>
</g>
</g>
</svg>
