<?xml version="1.0" encoding="UTF-8" standalone="no"?>
<!DOCTYPE svg PUBLIC "-//W3C//DTD SVG 1.1//EN"
 "http://www.w3.org/Graphics/SVG/1.1/DTD/svg11.dtd">
<!-- Generated by graphviz version 12.2.1 (0)
 -->
<!-- Title: arax_pipe.c Pages: 1 -->
<svg width="703pt" height="408pt"
 viewBox="0.00 0.00 702.71 408.00" xmlns="http://www.w3.org/2000/svg" xmlns:xlink="http://www.w3.org/1999/xlink">
<g id="graph0" class="graph" transform="scale(1 1) rotate(0) translate(4 404)">
<title>arax_pipe.c</title>
<!-- Node1 -->
<g id="Node000001" class="node">
<title>Node1</title>
<g id="a_Node000001"><a xlink:title=" ">
<polygon fill="#999999" stroke="#666666" points="652.09,-400 585.09,-400 585.09,-381.5 652.09,-381.5 652.09,-400"/>
<text text-anchor="middle" x="618.59" y="-386.5" font-family="Helvetica,sans-Serif" font-size="10.00">arax_pipe.c</text>
</a>
</g>
</g>
<!-- Node2 -->
<g id="Node000002" class="node">
<title>Node2</title>
<g id="a_Node000002"><a xlink:href="a01358.html" target="_top" xlink:title=" ">
<polygon fill="white" stroke="#666666" points="408.09,-345.5 341.09,-345.5 341.09,-327 408.09,-327 408.09,-345.5"/>
<text text-anchor="middle" x="374.59" y="-332" font-family="Helvetica,sans-Serif" font-size="10.00">arax_pipe.h</text>
</a>
</g>
</g>
<!-- Node1&#45;&gt;Node2 -->
<g id="edge1_Node000001_Node000002" class="edge">
<title>Node1&#45;&gt;Node2</title>
<g id="a_edge1_Node000001_Node000002"><a xlink:title=" ">
<path fill="none" stroke="#63b8ff" d="M584.66,-382.45C541.59,-373.18 467.17,-357.17 419.45,-346.9"/>
<polygon fill="#63b8ff" stroke="#63b8ff" points="420.22,-343.49 409.7,-344.81 418.74,-350.33 420.22,-343.49"/>
</a>
</g>
</g>
<!-- Node4 -->
<g id="Node000004" class="node">
<title>Node4</title>
<g id="a_Node000004"><a xlink:title=" ">
<polygon fill="#e0e0e0" stroke="#999999" points="643.21,-127.5 597.96,-127.5 597.96,-109 643.21,-109 643.21,-127.5"/>
<text text-anchor="middle" x="620.59" y="-114" font-family="Helvetica,sans-Serif" font-size="10.00">stdio.h</text>
</a>
</g>
</g>
<!-- Node1&#45;&gt;Node4 -->
<g id="edge42_Node000001_Node000004" class="edge">
<title>Node1&#45;&gt;Node4</title>
<g id="a_edge42_Node000001_Node000004"><a xlink:title=" ">
<path fill="none" stroke="#63b8ff" d="M618.59,-381.15C618.59,-362.98 618.59,-319.35 618.59,-282.75 618.59,-282.75 618.59,-282.75 618.59,-226.25 618.59,-195.94 619.4,-160.81 619.99,-139.31"/>
<polygon fill="#63b8ff" stroke="#63b8ff" points="623.48,-139.46 620.27,-129.36 616.49,-139.26 623.48,-139.46"/>
</a>
</g>
</g>
<!-- Node26 -->
<g id="Node000026" class="node">
<title>Node26</title>
<g id="a_Node000026"><a xlink:title=" ">
<polygon fill="#e0e0e0" stroke="#999999" points="694.71,-345.5 646.46,-345.5 646.46,-327 694.71,-327 694.71,-345.5"/>
<text text-anchor="middle" x="670.59" y="-332" font-family="Helvetica,sans-Serif" font-size="10.00">string.h</text>
</a>
</g>
</g>
<!-- Node1&#45;&gt;Node26 -->
<g id="edge43_Node000001_Node000026" class="edge">
<title>Node1&#45;&gt;Node26</title>
<g id="a_edge43_Node000001_Node000026"><a xlink:title=" ">
<path fill="none" stroke="#63b8ff" d="M627.17,-381.08C634.52,-373.67 645.29,-362.78 654.27,-353.72"/>
<polygon fill="#63b8ff" stroke="#63b8ff" points="656.54,-356.4 661.09,-346.83 651.57,-351.48 656.54,-356.4"/>
</a>
</g>
</g>
<!-- Node3 -->
<g id="Node000003" class="node">
<title>Node3</title>
<g id="a_Node000003"><a xlink:href="a01355.html" target="_top" xlink:title=" ">
<polygon fill="white" stroke="#666666" points="526.09,-182 483.09,-182 483.09,-163.5 526.09,-163.5 526.09,-182"/>
<text text-anchor="middle" x="504.59" y="-168.5" font-family="Helvetica,sans-Serif" font-size="10.00">arax.h</text>
</a>
</g>
</g>
<!-- Node2&#45;&gt;Node3 -->
<g id="edge2_Node000002_Node000003" class="edge">
<title>Node2&#45;&gt;Node3</title>
<g id="a_edge2_Node000002_Node000003"><a xlink:title=" ">
<path fill="none" stroke="#63b8ff" d="M408.5,-329.14C453.31,-318.97 529.91,-293.7 558.59,-236.5 567.93,-217.85 549.33,-200.18 531.46,-188.37"/>
<polygon fill="#63b8ff" stroke="#63b8ff" points="533.44,-185.48 523.08,-183.24 529.78,-191.45 533.44,-185.48"/>
</a>
</g>
</g>
<!-- Node10 -->
<g id="Node000010" class="node">
<title>Node10</title>
<g id="a_Node000010"><a xlink:href="a01370.html" target="_top" xlink:title=" ">
<polygon fill="white" stroke="#666666" points="161.84,-182 105.34,-182 105.34,-163.5 161.84,-163.5 161.84,-182"/>
<text text-anchor="middle" x="133.59" y="-168.5" font-family="Helvetica,sans-Serif" font-size="10.00">utils/Kv.h</text>
</a>
</g>
</g>
<!-- Node2&#45;&gt;Node10 -->
<g id="edge10_Node000002_Node000010" class="edge">
<title>Node2&#45;&gt;Node10</title>
<g id="a_edge10_Node000002_Node000010"><a xlink:title=" ">
<path fill="none" stroke="#63b8ff" d="M340.59,-334.53C280.66,-331.2 157.37,-314.67 102.59,-236.5 92.39,-221.95 103.96,-203.54 115.75,-190.44"/>
<polygon fill="#63b8ff" stroke="#63b8ff" points="118.14,-193 122.63,-183.4 113.14,-188.1 118.14,-193"/>
</a>
</g>
</g>
<!-- Node16 -->
<g id="Node000016" class="node">
<title>Node16</title>
<g id="a_Node000016"><a xlink:href="a01391.html" target="_top" xlink:title=" ">
<polygon fill="white" stroke="#666666" points="85.34,-182 13.84,-182 13.84,-163.5 85.34,-163.5 85.34,-182"/>
<text text-anchor="middle" x="49.59" y="-168.5" font-family="Helvetica,sans-Serif" font-size="10.00">utils/queue.h</text>
</a>
</g>
</g>
<!-- Node2&#45;&gt;Node16 -->
<g id="edge17_Node000002_Node000016" class="edge">
<title>Node2&#45;&gt;Node16</title>
<g id="a_edge17_Node000002_Node000016"><a xlink:title=" ">
<path fill="none" stroke="#63b8ff" d="M340.72,-331.95C283.44,-325.89 170.38,-311.67 136.59,-291 97.79,-267.26 70.63,-219.19 57.86,-192.57"/>
<polygon fill="#63b8ff" stroke="#63b8ff" points="61.14,-191.3 53.78,-183.68 54.77,-194.23 61.14,-191.3"/>
</a>
</g>
</g>
<!-- Node17 -->
<g id="Node000017" class="node">
<title>Node17</title>
<g id="a_Node000017"><a xlink:href="a01403.html" target="_top" xlink:title=" ">
<polygon fill="white" stroke="#666666" points="363.59,-291 269.59,-291 269.59,-272.5 363.59,-272.5 363.59,-291"/>
<text text-anchor="middle" x="316.59" y="-277.5" font-family="Helvetica,sans-Serif" font-size="10.00">core/arax_accel.h</text>
</a>
</g>
</g>
<!-- Node2&#45;&gt;Node17 -->
<g id="edge22_Node000002_Node000017" class="edge">
<title>Node2&#45;&gt;Node17</title>
<g id="a_edge22_Node000002_Node000017"><a xlink:title=" ">
<path fill="none" stroke="#63b8ff" d="M365.01,-326.58C356.73,-319.09 344.55,-308.06 334.47,-298.94"/>
<polygon fill="#63b8ff" stroke="#63b8ff" points="336.87,-296.39 327.11,-292.27 332.17,-301.58 336.87,-296.39"/>
</a>
</g>
</g>
<!-- Node24 -->
<g id="Node000024" class="node">
<title>Node24</title>
<g id="a_Node000024"><a xlink:href="a01424.html" target="_top" xlink:title=" ">
<polygon fill="white" stroke="#666666" points="476.34,-291 386.84,-291 386.84,-272.5 476.34,-272.5 476.34,-291"/>
<text text-anchor="middle" x="431.59" y="-277.5" font-family="Helvetica,sans-Serif" font-size="10.00">core/arax_task.h</text>
</a>
</g>
</g>
<!-- Node2&#45;&gt;Node24 -->
<g id="edge37_Node000002_Node000024" class="edge">
<title>Node2&#45;&gt;Node24</title>
<g id="a_edge37_Node000002_Node000024"><a xlink:title=" ">
<path fill="none" stroke="#63b8ff" d="M384,-326.58C392.13,-319.09 404.11,-308.06 414.01,-298.94"/>
<polygon fill="#63b8ff" stroke="#63b8ff" points="416.25,-301.63 421.24,-292.28 411.51,-296.48 416.25,-301.63"/>
</a>
</g>
</g>
<!-- Node3&#45;&gt;Node4 -->
<g id="edge3_Node000003_Node000004" class="edge">
<title>Node3&#45;&gt;Node4</title>
<g id="a_edge3_Node000003_Node000004"><a xlink:title=" ">
<path fill="none" stroke="#63b8ff" d="M523.74,-163.08C542.04,-154.8 569.9,-142.19 591.04,-132.62"/>
<polygon fill="#63b8ff" stroke="#63b8ff" points="592.36,-135.87 600.02,-128.56 589.47,-129.49 592.36,-135.87"/>
</a>
</g>
</g>
<!-- Node5 -->
<g id="Node000005" class="node">
<title>Node5</title>
<g id="a_Node000005"><a xlink:title=" ">
<polygon fill="#e0e0e0" stroke="#999999" points="263.84,-73 213.34,-73 213.34,-54.5 263.84,-54.5 263.84,-73"/>
<text text-anchor="middle" x="238.59" y="-59.5" font-family="Helvetica,sans-Serif" font-size="10.00">stddef.h</text>
</a>
</g>
</g>
<!-- Node3&#45;&gt;Node5 -->
<g id="edge4_Node000003_Node000005" class="edge">
<title>Node3&#45;&gt;Node5</title>
<g id="a_edge4_Node000003_Node000005"><a xlink:title=" ">
<path fill="none" stroke="#63b8ff" d="M488.07,-163.17C463.21,-150.44 414.48,-126.18 371.59,-109 339.37,-96.09 301.77,-83.83 274.78,-75.51"/>
<polygon fill="#63b8ff" stroke="#63b8ff" points="275.95,-72.2 265.36,-72.63 273.9,-78.9 275.95,-72.2"/>
</a>
</g>
</g>
<!-- Node6 -->
<g id="Node000006" class="node">
<title>Node6</title>
<g id="a_Node000006"><a xlink:href="a01361.html" target="_top" xlink:title=" ">
<polygon fill="white" stroke="#666666" points="510.09,-73 437.09,-73 437.09,-54.5 510.09,-54.5 510.09,-73"/>
<text text-anchor="middle" x="473.59" y="-59.5" font-family="Helvetica,sans-Serif" font-size="10.00">arax_types.h</text>
</a>
</g>
</g>
<!-- Node3&#45;&gt;Node6 -->
<g id="edge5_Node000003_Node000006" class="edge">
<title>Node3&#45;&gt;Node6</title>
<g id="a_edge5_Node000003_Node000006"><a xlink:title=" ">
<path fill="none" stroke="#63b8ff" d="M485.96,-163.06C472.56,-155.68 455.52,-143.7 447.59,-127.5 440.23,-112.48 449.01,-94.84 458.3,-82.09"/>
<polygon fill="#63b8ff" stroke="#63b8ff" points="460.78,-84.6 464.3,-74.61 455.31,-80.22 460.78,-84.6"/>
</a>
</g>
</g>
<!-- Node9 -->
<g id="Node000009" class="node">
<title>Node9</title>
<g id="a_Node000009"><a xlink:href="a01406.html" target="_top" xlink:title=" ">
<polygon fill="white" stroke="#666666" points="580.21,-127.5 456.96,-127.5 456.96,-109 580.21,-109 580.21,-127.5"/>
<text text-anchor="middle" x="518.59" y="-114" font-family="Helvetica,sans-Serif" font-size="10.00">core/arax_accel_types.h</text>
</a>
</g>
</g>
<!-- Node3&#45;&gt;Node9 -->
<g id="edge8_Node000003_Node000009" class="edge">
<title>Node3&#45;&gt;Node9</title>
<g id="a_edge8_Node000003_Node000009"><a xlink:title=" ">
<path fill="none" stroke="#63b8ff" d="M506.9,-163.08C508.65,-156.51 511.13,-147.21 513.35,-138.87"/>
<polygon fill="#63b8ff" stroke="#63b8ff" points="516.73,-139.78 515.93,-129.22 509.97,-137.98 516.73,-139.78"/>
</a>
</g>
</g>
<!-- Node7 -->
<g id="Node000007" class="node">
<title>Node7</title>
<g id="a_Node000007"><a xlink:title=" ">
<polygon fill="#e0e0e0" stroke="#999999" points="538.71,-18.5 478.46,-18.5 478.46,0 538.71,0 538.71,-18.5"/>
<text text-anchor="middle" x="508.59" y="-5" font-family="Helvetica,sans-Serif" font-size="10.00">sys/time.h</text>
</a>
</g>
</g>
<!-- Node6&#45;&gt;Node7 -->
<g id="edge6_Node000006_Node000007" class="edge">
<title>Node6&#45;&gt;Node7</title>
<g id="a_edge6_Node000006_Node000007"><a xlink:title=" ">
<path fill="none" stroke="#63b8ff" d="M479.37,-54.08C484.05,-47.05 490.82,-36.9 496.66,-28.14"/>
<polygon fill="#63b8ff" stroke="#63b8ff" points="499.44,-30.28 502.07,-20.02 493.61,-26.4 499.44,-30.28"/>
</a>
</g>
</g>
<!-- Node8 -->
<g id="Node000008" class="node">
<title>Node8</title>
<g id="a_Node000008"><a xlink:title=" ">
<polygon fill="#e0e0e0" stroke="#999999" points="460.09,-18.5 417.09,-18.5 417.09,0 460.09,0 460.09,-18.5"/>
<text text-anchor="middle" x="438.59" y="-5" font-family="Helvetica,sans-Serif" font-size="10.00">time.h</text>
</a>
</g>
</g>
<!-- Node6&#45;&gt;Node8 -->
<g id="edge7_Node000006_Node000008" class="edge">
<title>Node6&#45;&gt;Node8</title>
<g id="a_edge7_Node000006_Node000008"><a xlink:title=" ">
<path fill="none" stroke="#63b8ff" d="M467.81,-54.08C463.12,-47.05 456.35,-36.9 450.51,-28.14"/>
<polygon fill="#63b8ff" stroke="#63b8ff" points="453.56,-26.4 445.1,-20.02 447.73,-30.28 453.56,-26.4"/>
</a>
</g>
</g>
<!-- Node9&#45;&gt;Node6 -->
<g id="edge9_Node000009_Node000006" class="edge">
<title>Node9&#45;&gt;Node6</title>
<g id="a_edge9_Node000009_Node000006"><a xlink:title=" ">
<path fill="none" stroke="#63b8ff" d="M511.15,-108.58C504.93,-101.32 495.86,-90.73 488.19,-81.78"/>
<polygon fill="#63b8ff" stroke="#63b8ff" points="491.03,-79.72 481.86,-74.41 485.71,-84.28 491.03,-79.72"/>
</a>
</g>
</g>
<!-- Node10&#45;&gt;Node5 -->
<g id="edge12_Node000010_Node000005" class="edge">
<title>Node10&#45;&gt;Node5</title>
<g id="a_edge12_Node000010_Node000005"><a xlink:title=" ">
<path fill="none" stroke="#63b8ff" d="M141.82,-163.35C159.07,-145.78 199.24,-104.84 222.03,-81.62"/>
<polygon fill="#63b8ff" stroke="#63b8ff" points="224.53,-84.07 229.03,-74.48 219.53,-79.17 224.53,-84.07"/>
</a>
</g>
</g>
<!-- Node11 -->
<g id="Node000011" class="node">
<title>Node11</title>
<g id="a_Node000011"><a xlink:href="a01364.html" target="_top" xlink:title=" ">
<polygon fill="white" stroke="#666666" points="86.71,-127.5 44.46,-127.5 44.46,-109 86.71,-109 86.71,-127.5"/>
<text text-anchor="middle" x="65.59" y="-114" font-family="Helvetica,sans-Serif" font-size="10.00">conf.h</text>
</a>
</g>
</g>
<!-- Node10&#45;&gt;Node11 -->
<g id="edge11_Node000010_Node000011" class="edge">
<title>Node10&#45;&gt;Node11</title>
<g id="a_edge11_Node000010_Node000011"><a xlink:title=" ">
<path fill="none" stroke="#63b8ff" d="M122.36,-163.08C112.36,-155.36 97.49,-143.88 85.48,-134.61"/>
<polygon fill="#63b8ff" stroke="#63b8ff" points="87.86,-132.02 77.8,-128.68 83.58,-137.56 87.86,-132.02"/>
</a>
</g>
</g>
<!-- Node12 -->
<g id="Node000012" class="node">
<title>Node12</title>
<g id="a_Node000012"><a xlink:href="a01394.html" target="_top" xlink:title=" ">
<polygon fill="white" stroke="#666666" points="164.71,-127.5 104.46,-127.5 104.46,-109 164.71,-109 164.71,-127.5"/>
<text text-anchor="middle" x="134.59" y="-114" font-family="Helvetica,sans-Serif" font-size="10.00">spinlock.h</text>
</a>
</g>
</g>
<!-- Node10&#45;&gt;Node12 -->
<g id="edge13_Node000010_Node000012" class="edge">
<title>Node10&#45;&gt;Node12</title>
<g id="a_edge13_Node000010_Node000012"><a xlink:title=" ">
<path fill="none" stroke="#63b8ff" d="M133.75,-163.08C133.87,-156.58 134.05,-147.42 134.21,-139.16"/>
<polygon fill="#63b8ff" stroke="#63b8ff" points="137.7,-139.34 134.39,-129.27 130.7,-139.2 137.7,-139.34"/>
</a>
</g>
</g>
<!-- Node13 -->
<g id="Node000013" class="node">
<title>Node13</title>
<g id="a_Node000013"><a xlink:title=" ">
<polygon fill="#e0e0e0" stroke="#999999" points="74.34,-73 26.84,-73 26.84,-54.5 74.34,-54.5 74.34,-73"/>
<text text-anchor="middle" x="50.59" y="-59.5" font-family="Helvetica,sans-Serif" font-size="10.00">stdint.h</text>
</a>
</g>
</g>
<!-- Node12&#45;&gt;Node13 -->
<g id="edge14_Node000012_Node000013" class="edge">
<title>Node12&#45;&gt;Node13</title>
<g id="a_edge14_Node000012_Node000013"><a xlink:title=" ">
<path fill="none" stroke="#63b8ff" d="M120.71,-108.58C108.07,-100.68 89.13,-88.84 74.12,-79.46"/>
<polygon fill="#63b8ff" stroke="#63b8ff" points="76.1,-76.57 65.76,-74.23 72.39,-82.5 76.1,-76.57"/>
</a>
</g>
</g>
<!-- Node14 -->
<g id="Node000014" class="node">
<title>Node14</title>
<g id="a_Node000014"><a xlink:href="a01373.html" target="_top" xlink:title=" ">
<polygon fill="white" stroke="#666666" points="189.09,-73 92.09,-73 92.09,-54.5 189.09,-54.5 189.09,-73"/>
<text text-anchor="middle" x="140.59" y="-59.5" font-family="Helvetica,sans-Serif" font-size="10.00">utils/arax_assert.h</text>
</a>
</g>
</g>
<!-- Node12&#45;&gt;Node14 -->
<g id="edge15_Node000012_Node000014" class="edge">
<title>Node12&#45;&gt;Node14</title>
<g id="a_edge15_Node000012_Node000014"><a xlink:title=" ">
<path fill="none" stroke="#63b8ff" d="M135.58,-108.58C136.32,-102.08 137.37,-92.92 138.31,-84.66"/>
<polygon fill="#63b8ff" stroke="#63b8ff" points="141.78,-85.09 139.44,-74.76 134.83,-84.3 141.78,-85.09"/>
</a>
</g>
</g>
<!-- Node15 -->
<g id="Node000015" class="node">
<title>Node15</title>
<g id="a_Node000015"><a xlink:href="a01382.html" target="_top" xlink:title=" ">
<polygon fill="white" stroke="#666666" points="168.46,-18.5 112.71,-18.5 112.71,0 168.46,0 168.46,-18.5"/>
<text text-anchor="middle" x="140.59" y="-5" font-family="Helvetica,sans-Serif" font-size="10.00">compat.h</text>
</a>
</g>
</g>
<!-- Node14&#45;&gt;Node15 -->
<g id="edge16_Node000014_Node000015" class="edge">
<title>Node14&#45;&gt;Node15</title>
<g id="a_edge16_Node000014_Node000015"><a xlink:title=" ">
<path fill="none" stroke="#63b8ff" d="M140.59,-54.08C140.59,-47.58 140.59,-38.42 140.59,-30.16"/>
<polygon fill="#63b8ff" stroke="#63b8ff" points="144.09,-30.27 140.59,-20.27 137.09,-30.27 144.09,-30.27"/>
</a>
</g>
</g>
<!-- Node16&#45;&gt;Node5 -->
<g id="edge18_Node000016_Node000005" class="edge">
<title>Node16&#45;&gt;Node5</title>
<g id="a_edge18_Node000016_Node000005"><a xlink:title=" ">
<path fill="none" stroke="#63b8ff" d="M43.56,-163.02C35.29,-149.86 22.84,-124.82 35.59,-109 38.21,-105.74 143.85,-83.92 201.67,-72.19"/>
<polygon fill="#63b8ff" stroke="#63b8ff" points="202.3,-75.63 211.4,-70.22 200.91,-68.77 202.3,-75.63"/>
</a>
</g>
</g>
<!-- Node16&#45;&gt;Node11 -->
<g id="edge20_Node000016_Node000011" class="edge">
<title>Node16&#45;&gt;Node11</title>
<g id="a_edge20_Node000016_Node000011"><a xlink:title=" ">
<path fill="none" stroke="#63b8ff" d="M52.23,-163.08C54.25,-156.43 57.13,-146.99 59.7,-138.58"/>
<polygon fill="#63b8ff" stroke="#63b8ff" points="62.98,-139.79 62.55,-129.21 56.29,-137.75 62.98,-139.79"/>
</a>
</g>
</g>
<!-- Node16&#45;&gt;Node12 -->
<g id="edge21_Node000016_Node000012" class="edge">
<title>Node16&#45;&gt;Node12</title>
<g id="a_edge21_Node000016_Node000012"><a xlink:title=" ">
<path fill="none" stroke="#63b8ff" d="M63.62,-163.08C76.42,-155.18 95.59,-143.34 110.78,-133.96"/>
<polygon fill="#63b8ff" stroke="#63b8ff" points="112.57,-136.96 119.24,-128.73 108.89,-131 112.57,-136.96"/>
</a>
</g>
</g>
<!-- Node16&#45;&gt;Node13 -->
<g id="edge19_Node000016_Node000013" class="edge">
<title>Node16&#45;&gt;Node13</title>
<g id="a_edge19_Node000016_Node000013"><a xlink:title=" ">
<path fill="none" stroke="#63b8ff" d="M34.99,-163.04C17.92,-151.64 -6.87,-130.57 2.59,-109 7.7,-97.32 17.59,-87.36 27.07,-79.87"/>
<polygon fill="#63b8ff" stroke="#63b8ff" points="28.96,-82.82 35,-74.11 24.85,-77.15 28.96,-82.82"/>
</a>
</g>
</g>
<!-- Node17&#45;&gt;Node3 -->
<g id="edge23_Node000017_Node000003" class="edge">
<title>Node17&#45;&gt;Node3</title>
<g id="a_edge23_Node000017_Node000003"><a xlink:title=" ">
<path fill="none" stroke="#63b8ff" d="M331.65,-272.17C363.9,-253.82 439.88,-210.58 479.52,-188.02"/>
<polygon fill="#63b8ff" stroke="#63b8ff" points="481.17,-191.1 488.13,-183.11 477.71,-185.02 481.17,-191.1"/>
</a>
</g>
</g>
<!-- Node18 -->
<g id="Node000018" class="node">
<title>Node18</title>
<g id="a_Node000018"><a xlink:title=" ">
<polygon fill="#e0e0e0" stroke="#999999" points="263.46,-182 213.71,-182 213.71,-163.5 263.46,-163.5 263.46,-182"/>
<text text-anchor="middle" x="238.59" y="-168.5" font-family="Helvetica,sans-Serif" font-size="10.00">async.h</text>
</a>
</g>
</g>
<!-- Node17&#45;&gt;Node18 -->
<g id="edge24_Node000017_Node000018" class="edge">
<title>Node17&#45;&gt;Node18</title>
<g id="a_edge24_Node000017_Node000018"><a xlink:title=" ">
<path fill="none" stroke="#63b8ff" d="M300.36,-272.11C287.32,-264.39 269.46,-251.93 258.59,-236.5 249.5,-223.61 244.4,-206.39 241.63,-193.26"/>
<polygon fill="#63b8ff" stroke="#63b8ff" points="245.12,-192.89 239.9,-183.67 238.23,-194.14 245.12,-192.89"/>
</a>
</g>
</g>
<!-- Node19 -->
<g id="Node000019" class="node">
<title>Node19</title>
<g id="a_Node000019"><a xlink:href="a01430.html" target="_top" xlink:title=" ">
<polygon fill="white" stroke="#666666" points="365.84,-236.5 267.34,-236.5 267.34,-218 365.84,-218 365.84,-236.5"/>
<text text-anchor="middle" x="316.59" y="-223" font-family="Helvetica,sans-Serif" font-size="10.00">core/arax_vaccel.h</text>
</a>
</g>
</g>
<!-- Node17&#45;&gt;Node19 -->
<g id="edge25_Node000017_Node000019" class="edge">
<title>Node17&#45;&gt;Node19</title>
<g id="a_edge25_Node000017_Node000019"><a xlink:title=" ">
<path fill="none" stroke="#63b8ff" d="M311.42,-272.08C310.01,-265.58 309.54,-256.42 310.01,-248.16"/>
<polygon fill="#63b8ff" stroke="#63b8ff" points="313.48,-248.62 311.26,-238.26 306.54,-247.74 313.48,-248.62"/>
</a>
</g>
</g>
<!-- Node23 -->
<g id="Node000023" class="node">
<title>Node23</title>
<g id="a_Node000023"><a xlink:href="a01427.html" target="_top" xlink:title=" ">
<polygon fill="white" stroke="#666666" points="211.96,-236.5 111.21,-236.5 111.21,-218 211.96,-218 211.96,-236.5"/>
<text text-anchor="middle" x="161.59" y="-223" font-family="Helvetica,sans-Serif" font-size="10.00">core/arax_throttle.h</text>
</a>
</g>
</g>
<!-- Node17&#45;&gt;Node23 -->
<g id="edge35_Node000017_Node000023" class="edge">
<title>Node17&#45;&gt;Node23</title>
<g id="a_edge35_Node000017_Node000023"><a xlink:title=" ">
<path fill="none" stroke="#63b8ff" d="M290.99,-272.08C265.64,-263.49 226.57,-250.26 197.99,-240.58"/>
<polygon fill="#63b8ff" stroke="#63b8ff" points="199.25,-237.31 188.65,-237.42 197,-243.94 199.25,-237.31"/>
</a>
</g>
</g>
<!-- Node19&#45;&gt;Node16 -->
<g id="edge32_Node000019_Node000016" class="edge">
<title>Node19&#45;&gt;Node16</title>
<g id="a_edge32_Node000019_Node000016"><a xlink:title=" ">
<path fill="none" stroke="#63b8ff" d="M272.2,-217.52C223.63,-207.97 146.12,-192.73 96.56,-182.99"/>
<polygon fill="#63b8ff" stroke="#63b8ff" points="97.49,-179.6 87,-181.11 96.13,-186.47 97.49,-179.6"/>
</a>
</g>
</g>
<!-- Node19&#45;&gt;Node17 -->
<g id="edge33_Node000019_Node000017" class="edge">
<title>Node19&#45;&gt;Node17</title>
<g id="a_edge33_Node000019_Node000017"><a xlink:title=" ">
<path fill="none" stroke="#63b8ff" d="M321.72,-236.76C323.16,-243.29 323.64,-252.57 323.15,-260.93"/>
<polygon fill="#63b8ff" stroke="#63b8ff" points="319.71,-260.22 321.94,-270.58 326.66,-261.09 319.71,-260.22"/>
</a>
</g>
</g>
<!-- Node19&#45;&gt;Node18 -->
<g id="edge34_Node000019_Node000018" class="edge">
<title>Node19&#45;&gt;Node18</title>
<g id="a_edge34_Node000019_Node000018"><a xlink:title=" ">
<path fill="none" stroke="#63b8ff" d="M303.71,-217.58C292.08,-209.75 274.71,-198.07 260.84,-188.73"/>
<polygon fill="#63b8ff" stroke="#63b8ff" points="262.99,-185.96 252.74,-183.28 259.08,-191.76 262.99,-185.96"/>
</a>
</g>
</g>
<!-- Node20 -->
<g id="Node000020" class="node">
<title>Node20</title>
<g id="a_Node000020"><a xlink:href="a01415.html" target="_top" xlink:title=" ">
<polygon fill="white" stroke="#666666" points="377.71,-182 281.46,-182 281.46,-163.5 377.71,-163.5 377.71,-182"/>
<text text-anchor="middle" x="329.59" y="-168.5" font-family="Helvetica,sans-Serif" font-size="10.00">core/arax_object.h</text>
</a>
</g>
</g>
<!-- Node19&#45;&gt;Node20 -->
<g id="edge26_Node000019_Node000020" class="edge">
<title>Node19&#45;&gt;Node20</title>
<g id="a_edge26_Node000019_Node000020"><a xlink:title=" ">
<path fill="none" stroke="#63b8ff" d="M318.73,-217.58C320.36,-211.01 322.66,-201.71 324.73,-193.37"/>
<polygon fill="#63b8ff" stroke="#63b8ff" points="328.11,-194.28 327.12,-183.73 321.31,-192.59 328.11,-194.28"/>
</a>
</g>
</g>
<!-- Node20&#45;&gt;Node12 -->
<g id="edge30_Node000020_Node000012" class="edge">
<title>Node20&#45;&gt;Node12</title>
<g id="a_edge30_Node000020_Node000012"><a xlink:title=" ">
<path fill="none" stroke="#63b8ff" d="M297.39,-163.08C264.05,-154.11 211.88,-140.06 175.61,-130.3"/>
<polygon fill="#63b8ff" stroke="#63b8ff" points="176.93,-127.03 166.37,-127.81 175.12,-133.79 176.93,-127.03"/>
</a>
</g>
</g>
<!-- Node21 -->
<g id="Node000021" class="node">
<title>Node21</title>
<g id="a_Node000021"><a xlink:href="a01388.html" target="_top" xlink:title=" ">
<polygon fill="white" stroke="#666666" points="278.21,-127.5 220.96,-127.5 220.96,-109 278.21,-109 278.21,-127.5"/>
<text text-anchor="middle" x="249.59" y="-114" font-family="Helvetica,sans-Serif" font-size="10.00">utils/list.h</text>
</a>
</g>
</g>
<!-- Node20&#45;&gt;Node21 -->
<g id="edge27_Node000020_Node000021" class="edge">
<title>Node20&#45;&gt;Node21</title>
<g id="a_edge27_Node000020_Node000021"><a xlink:title=" ">
<path fill="none" stroke="#63b8ff" d="M316.38,-163.08C304.45,-155.25 286.64,-143.57 272.41,-134.23"/>
<polygon fill="#63b8ff" stroke="#63b8ff" points="274.36,-131.32 264.08,-128.76 270.52,-137.18 274.36,-131.32"/>
</a>
</g>
</g>
<!-- Node22 -->
<g id="Node000022" class="node">
<title>Node22</title>
<g id="a_Node000022"><a xlink:title=" ">
<polygon fill="#e0e0e0" stroke="#999999" points="362.71,-127.5 296.46,-127.5 296.46,-109 362.71,-109 362.71,-127.5"/>
<text text-anchor="middle" x="329.59" y="-114" font-family="Helvetica,sans-Serif" font-size="10.00">arch/alloc.h</text>
</a>
</g>
</g>
<!-- Node20&#45;&gt;Node22 -->
<g id="edge31_Node000020_Node000022" class="edge">
<title>Node20&#45;&gt;Node22</title>
<g id="a_edge31_Node000020_Node000022"><a xlink:title=" ">
<path fill="none" stroke="#63b8ff" d="M329.59,-163.08C329.59,-156.58 329.59,-147.42 329.59,-139.16"/>
<polygon fill="#63b8ff" stroke="#63b8ff" points="333.09,-139.27 329.59,-129.27 326.09,-139.27 333.09,-139.27"/>
</a>
</g>
</g>
<!-- Node21&#45;&gt;Node5 -->
<g id="edge28_Node000021_Node000005" class="edge">
<title>Node21&#45;&gt;Node5</title>
<g id="a_edge28_Node000021_Node000005"><a xlink:title=" ">
<path fill="none" stroke="#63b8ff" d="M247.77,-108.58C246.39,-102.01 244.44,-92.71 242.7,-84.37"/>
<polygon fill="#63b8ff" stroke="#63b8ff" points="246.16,-83.81 240.68,-74.74 239.3,-85.24 246.16,-83.81"/>
</a>
</g>
</g>
<!-- Node21&#45;&gt;Node13 -->
<g id="edge29_Node000021_Node000013" class="edge">
<title>Node21&#45;&gt;Node13</title>
<g id="a_edge29_Node000021_Node000013"><a xlink:title=" ">
<path fill="none" stroke="#63b8ff" d="M220.65,-109.62C184.74,-100.14 123.57,-84 85.21,-73.88"/>
<polygon fill="#63b8ff" stroke="#63b8ff" points="86.59,-70.63 76.02,-71.46 84.8,-77.4 86.59,-70.63"/>
</a>
</g>
</g>
<!-- Node23&#45;&gt;Node18 -->
<g id="edge36_Node000023_Node000018" class="edge">
<title>Node23&#45;&gt;Node18</title>
<g id="a_edge36_Node000023_Node000018"><a xlink:title=" ">
<path fill="none" stroke="#63b8ff" d="M174.3,-217.58C185.78,-209.75 202.92,-198.07 216.62,-188.73"/>
<polygon fill="#63b8ff" stroke="#63b8ff" points="218.31,-191.81 224.6,-183.28 214.37,-186.03 218.31,-191.81"/>
</a>
</g>
</g>
<!-- Node24&#45;&gt;Node18 -->
<g id="edge41_Node000024_Node000018" class="edge">
<title>Node24&#45;&gt;Node18</title>
<g id="a_edge41_Node000024_Node000018"><a xlink:title=" ">
<path fill="none" stroke="#63b8ff" d="M425.99,-272.14C416.82,-258.69 397.33,-232.7 374.59,-218 357.96,-207.25 309.27,-192.72 274.92,-183.29"/>
<polygon fill="#63b8ff" stroke="#63b8ff" points="275.91,-179.94 265.35,-180.7 274.08,-186.69 275.91,-179.94"/>
</a>
</g>
</g>
<!-- Node25 -->
<g id="Node000025" class="node">
<title>Node25</title>
<g id="a_Node000025"><a xlink:href="a01418.html" target="_top" xlink:title=" ">
<polygon fill="white" stroke="#666666" points="549.34,-236.5 459.84,-236.5 459.84,-218 549.34,-218 549.34,-236.5"/>
<text text-anchor="middle" x="504.59" y="-223" font-family="Helvetica,sans-Serif" font-size="10.00">core/arax_proc.h</text>
</a>
</g>
</g>
<!-- Node24&#45;&gt;Node25 -->
<g id="edge38_Node000024_Node000025" class="edge">
<title>Node24&#45;&gt;Node25</title>
<g id="a_edge38_Node000024_Node000025"><a xlink:title=" ">
<path fill="none" stroke="#63b8ff" d="M443.64,-272.08C454.48,-264.28 470.65,-252.65 483.61,-243.33"/>
<polygon fill="#63b8ff" stroke="#63b8ff" points="485.45,-246.32 491.53,-237.64 481.36,-240.64 485.45,-246.32"/>
</a>
</g>
</g>
<!-- Node25&#45;&gt;Node3 -->
<g id="edge39_Node000025_Node000003" class="edge">
<title>Node25&#45;&gt;Node3</title>
<g id="a_edge39_Node000025_Node000003"><a xlink:title=" ">
<path fill="none" stroke="#63b8ff" d="M504.59,-217.58C504.59,-211.08 504.59,-201.92 504.59,-193.66"/>
<polygon fill="#63b8ff" stroke="#63b8ff" points="508.09,-193.77 504.59,-183.77 501.09,-193.77 508.09,-193.77"/>
</a>
</g>
</g>
<!-- Node25&#45;&gt;Node20 -->
<g id="edge40_Node000025_Node000020" class="edge">
<title>Node25&#45;&gt;Node20</title>
<g id="a_edge40_Node000025_Node000020"><a xlink:title=" ">
<path fill="none" stroke="#63b8ff" d="M475.69,-217.58C446.68,-208.88 401.78,-195.41 369.41,-185.7"/>
<polygon fill="#63b8ff" stroke="#63b8ff" points="370.56,-182.39 359.98,-182.87 368.55,-189.09 370.56,-182.39"/>
</a>
</g>
</g>
</g>
</svg>
