<?xml version="1.0" encoding="UTF-8" standalone="no"?>
<!DOCTYPE svg PUBLIC "-//W3C//DTD SVG 1.1//EN"
 "http://www.w3.org/Graphics/SVG/1.1/DTD/svg11.dtd">
<!-- Generated by graphviz version 12.2.1 (0)
 -->
<!-- Title: arax_data_get Pages: 1 -->
<svg width="1458pt" height="475pt"
 viewBox="0.00 0.00 1458.00 474.50" xmlns="http://www.w3.org/2000/svg" xmlns:xlink="http://www.w3.org/1999/xlink">
<g id="graph0" class="graph" transform="scale(1 1) rotate(0) translate(4 470.5)">
<title>arax_data_get</title>
<!-- Node1 -->
<g id="Node000001" class="node">
<title>Node1</title>
<g id="a_Node000001"><a xlink:title=" ">
<polygon fill="#999999" stroke="#666666" points="78.25,-168.5 0,-168.5 0,-150 78.25,-150 78.25,-168.5"/>
<text text-anchor="middle" x="39.12" y="-155" font-family="Helvetica,sans-Serif" font-size="10.00">arax_data_get</text>
</a>
</g>
</g>
<!-- Node2 -->
<g id="Node000002" class="node">
<title>Node2</title>
<g id="a_Node000002"><a xlink:href="a01922.html#a369e660e3e344bc697d98174059ead3c" target="_top" xlink:title=" ">
<polygon fill="white" stroke="#666666" points="199.25,-335.5 117.25,-335.5 117.25,-317 199.25,-317 199.25,-335.5"/>
<text text-anchor="middle" x="158.25" y="-322" font-family="Helvetica,sans-Serif" font-size="10.00">arax_data_size</text>
</a>
</g>
</g>
<!-- Node1&#45;&gt;Node2 -->
<g id="edge1_Node000001_Node000002" class="edge">
<title>Node1&#45;&gt;Node2</title>
<g id="a_edge1_Node000001_Node000002"><a xlink:title=" ">
<path fill="none" stroke="#63b8ff" d="M42.5,-168.93C49.3,-194.78 71.18,-266.21 114.25,-307.25 115.47,-308.41 116.77,-309.51 118.13,-310.55"/>
<polygon fill="#63b8ff" stroke="#63b8ff" points="116.16,-313.44 126.51,-315.73 119.85,-307.49 116.16,-313.44"/>
</a>
</g>
</g>
<!-- Node3 -->
<g id="Node000003" class="node">
<title>Node3</title>
<g id="a_Node000003"><a xlink:href="a02188.html#ga739047efb2b454e6c1ac54138ef2985d" target="_top" xlink:title=" ">
<polygon fill="white" stroke="#666666" points="197.38,-298.5 119.12,-298.5 119.12,-280 197.38,-280 197.38,-298.5"/>
<text text-anchor="middle" x="158.25" y="-285" font-family="Helvetica,sans-Serif" font-size="10.00">arax_proc_get</text>
</a>
</g>
</g>
<!-- Node1&#45;&gt;Node3 -->
<g id="edge2_Node000001_Node000003" class="edge">
<title>Node1&#45;&gt;Node3</title>
<g id="a_edge2_Node000001_Node000003"><a xlink:title=" ">
<path fill="none" stroke="#63b8ff" d="M48.55,-168.6C67.87,-190.04 115.65,-243.08 140.95,-271.15"/>
<polygon fill="#63b8ff" stroke="#63b8ff" points="138.28,-273.42 147.57,-278.51 143.48,-268.74 138.28,-273.42"/>
</a>
</g>
</g>
<!-- Node8 -->
<g id="Node000008" class="node">
<title>Node8</title>
<g id="a_Node000008"><a xlink:href="a02188.html#ga70242aa6d9591e5fa3dbb36f1e27a896" target="_top" xlink:title=" ">
<polygon fill="white" stroke="#666666" points="331.5,-93.5 253.25,-93.5 253.25,-75 331.5,-75 331.5,-93.5"/>
<text text-anchor="middle" x="292.38" y="-80" font-family="Helvetica,sans-Serif" font-size="10.00">arax_proc_put</text>
</a>
</g>
</g>
<!-- Node1&#45;&gt;Node8 -->
<g id="edge7_Node000001_Node000008" class="edge">
<title>Node1&#45;&gt;Node8</title>
<g id="a_edge7_Node000001_Node000008"><a xlink:title=" ">
<path fill="none" stroke="#63b8ff" d="M58.58,-149.51C73.33,-142.04 94.69,-131.92 114.25,-125.25 156.44,-110.86 205.98,-99.87 241.92,-92.91"/>
<polygon fill="#63b8ff" stroke="#63b8ff" points="242.43,-96.37 251.6,-91.07 241.13,-89.5 242.43,-96.37"/>
</a>
</g>
</g>
<!-- Node19 -->
<g id="Node000019" class="node">
<title>Node19</title>
<g id="a_Node000019"><a xlink:href="a02189.html#ga55195957c1cde1508257782716aa6db3" target="_top" xlink:title=" ">
<polygon fill="white" stroke="#666666" points="198.88,-168.5 117.62,-168.5 117.62,-150 198.88,-150 198.88,-168.5"/>
<text text-anchor="middle" x="158.25" y="-155" font-family="Helvetica,sans-Serif" font-size="10.00">arax_task_free</text>
</a>
</g>
</g>
<!-- Node1&#45;&gt;Node19 -->
<g id="edge20_Node000001_Node000019" class="edge">
<title>Node1&#45;&gt;Node19</title>
<g id="a_edge20_Node000001_Node000019"><a xlink:title=" ">
<path fill="none" stroke="#63b8ff" d="M78.48,-159.25C87.2,-159.25 96.61,-159.25 105.78,-159.25"/>
<polygon fill="#63b8ff" stroke="#63b8ff" points="105.69,-162.75 115.69,-159.25 105.69,-155.75 105.69,-162.75"/>
</a>
</g>
</g>
<!-- Node20 -->
<g id="Node000020" class="node">
<title>Node20</title>
<g id="a_Node000020"><a xlink:href="a01937.html#aa3cb73b347940187fb3399f51b1a55b7" target="_top" xlink:title=" ">
<polygon fill="white" stroke="#666666" points="346.12,-130.5 238.62,-130.5 238.62,-112 346.12,-112 346.12,-130.5"/>
<text text-anchor="middle" x="292.38" y="-117" font-family="Helvetica,sans-Serif" font-size="10.00">arax_task_host_data</text>
</a>
</g>
</g>
<!-- Node1&#45;&gt;Node20 -->
<g id="edge22_Node000001_Node000020" class="edge">
<title>Node1&#45;&gt;Node20</title>
<g id="a_edge22_Node000001_Node000020"><a xlink:title=" ">
<path fill="none" stroke="#63b8ff" d="M76.13,-149.54C88.18,-146.55 101.73,-143.47 114.25,-141.25 151.48,-134.65 193.52,-129.8 227.3,-126.52"/>
<polygon fill="#63b8ff" stroke="#63b8ff" points="227.29,-130.04 236.92,-125.62 226.63,-123.07 227.29,-130.04"/>
</a>
</g>
</g>
<!-- Node21 -->
<g id="Node000021" class="node">
<title>Node21</title>
<g id="a_Node000021"><a xlink:href="a02189.html#gac9f0f3fbb14da879d3ff09bd367bbb24" target="_top" xlink:title=" ">
<polygon fill="white" stroke="#666666" points="202.25,-205.5 114.25,-205.5 114.25,-187 202.25,-187 202.25,-205.5"/>
<text text-anchor="middle" x="158.25" y="-192" font-family="Helvetica,sans-Serif" font-size="10.00">arax_task_issue</text>
</a>
</g>
</g>
<!-- Node1&#45;&gt;Node21 -->
<g id="edge23_Node000001_Node000021" class="edge">
<title>Node1&#45;&gt;Node21</title>
<g id="a_edge23_Node000001_Node000021"><a xlink:title=" ">
<path fill="none" stroke="#63b8ff" d="M70.9,-168.97C84.62,-173.31 100.98,-178.48 115.76,-183.14"/>
<polygon fill="#63b8ff" stroke="#63b8ff" points="114.65,-186.46 125.24,-186.14 116.76,-179.79 114.65,-186.46"/>
</a>
</g>
</g>
<!-- Node42 -->
<g id="Node000042" class="node">
<title>Node42</title>
<g id="a_Node000042"><a xlink:href="a02189.html#gacb098c0a8c3908f3fdd32e7ea7d780bb" target="_top" xlink:title=" ">
<polygon fill="white" stroke="#666666" points="199.25,-56.5 117.25,-56.5 117.25,-38 199.25,-38 199.25,-56.5"/>
<text text-anchor="middle" x="158.25" y="-43" font-family="Helvetica,sans-Serif" font-size="10.00">arax_task_wait</text>
</a>
</g>
</g>
<!-- Node1&#45;&gt;Node42 -->
<g id="edge61_Node000001_Node000042" class="edge">
<title>Node1&#45;&gt;Node42</title>
<g id="a_edge61_Node000001_Node000042"><a xlink:title=" ">
<path fill="none" stroke="#63b8ff" d="M46.28,-149.64C57.87,-132.11 84.48,-94.51 114.25,-70.25 117.7,-67.44 121.54,-64.82 125.47,-62.42"/>
<polygon fill="#63b8ff" stroke="#63b8ff" points="126.9,-65.63 133.92,-57.69 123.48,-59.52 126.9,-65.63"/>
</a>
</g>
</g>
<!-- Node4 -->
<g id="Node000004" class="node">
<title>Node4</title>
<g id="a_Node000004"><a xlink:href="a01925.html#a9255b8011e6d7c9b28c7df40065efb28" target="_top" xlink:title=" ">
<polygon fill="white" stroke="#666666" points="810,-317.5 708.5,-317.5 708.5,-299 810,-299 810,-317.5"/>
<text text-anchor="middle" x="759.25" y="-304" font-family="Helvetica,sans-Serif" font-size="10.00">arax_object_ref_inc</text>
</a>
</g>
</g>
<!-- Node3&#45;&gt;Node4 -->
<g id="edge3_Node000003_Node000004" class="edge">
<title>Node3&#45;&gt;Node4</title>
<g id="a_edge3_Node000003_Node000004"><a xlink:title=" ">
<path fill="none" stroke="#63b8ff" d="M197.87,-291.25C266.26,-294.71 413.16,-301.78 537.25,-305.25 591.12,-306.76 652.4,-307.51 696.75,-307.89"/>
<polygon fill="#63b8ff" stroke="#63b8ff" points="696.67,-311.39 706.7,-307.97 696.73,-304.39 696.67,-311.39"/>
</a>
</g>
</g>
<!-- Node5 -->
<g id="Node000005" class="node">
<title>Node5</title>
<g id="a_Node000005"><a xlink:href="a01928.html#a4c22ae41507232dc3efc725428cbfc7b" target="_top" xlink:title=" ">
<polygon fill="white" stroke="#666666" points="344.25,-429.5 240.5,-429.5 240.5,-411 344.25,-411 344.25,-429.5"/>
<text text-anchor="middle" x="292.38" y="-416" font-family="Helvetica,sans-Serif" font-size="10.00">arax_pipe_find_proc</text>
</a>
</g>
</g>
<!-- Node3&#45;&gt;Node5 -->
<g id="edge4_Node000003_Node000005" class="edge">
<title>Node3&#45;&gt;Node5</title>
<g id="a_edge4_Node000003_Node000005"><a xlink:title=" ">
<path fill="none" stroke="#63b8ff" d="M189.4,-298.95C194.11,-301.44 198.62,-304.5 202.25,-308.25 231.94,-338.9 208.45,-366.72 238.25,-397.25 241.2,-400.27 244.6,-402.92 248.24,-405.23"/>
<polygon fill="#63b8ff" stroke="#63b8ff" points="246.46,-408.25 256.93,-409.9 249.78,-402.08 246.46,-408.25"/>
</a>
</g>
</g>
<!-- Node6 -->
<g id="Node000006" class="node">
<title>Node6</title>
<g id="a_Node000006"><a xlink:href="a01925.html#aa750d1c54fe430c1294b9c8a9d3e1466" target="_top" xlink:title=" ">
<polygon fill="white" stroke="#666666" points="496,-429.5 387.75,-429.5 387.75,-411 496,-411 496,-429.5"/>
<text text-anchor="middle" x="441.88" y="-416" font-family="Helvetica,sans-Serif" font-size="10.00">arax_object_list_lock</text>
</a>
</g>
</g>
<!-- Node5&#45;&gt;Node6 -->
<g id="edge5_Node000005_Node000006" class="edge">
<title>Node5&#45;&gt;Node6</title>
<g id="a_edge5_Node000005_Node000006"><a xlink:title=" ">
<path fill="none" stroke="#63b8ff" d="M344.55,-420.25C354.69,-420.25 365.47,-420.25 376,-420.25"/>
<polygon fill="#63b8ff" stroke="#63b8ff" points="375.77,-423.75 385.77,-420.25 375.77,-416.75 375.77,-423.75"/>
</a>
</g>
</g>
<!-- Node7 -->
<g id="Node000007" class="node">
<title>Node7</title>
<g id="a_Node000007"><a xlink:href="a01925.html#abb03d3cde2d1354544cd082482c3f185" target="_top" xlink:title=" ">
<polygon fill="white" stroke="#666666" points="501.25,-466.5 382.5,-466.5 382.5,-448 501.25,-448 501.25,-466.5"/>
<text text-anchor="middle" x="441.88" y="-453" font-family="Helvetica,sans-Serif" font-size="10.00">arax_object_list_unlock</text>
</a>
</g>
</g>
<!-- Node5&#45;&gt;Node7 -->
<g id="edge6_Node000005_Node000007" class="edge">
<title>Node5&#45;&gt;Node7</title>
<g id="a_edge6_Node000005_Node000007"><a xlink:title=" ">
<path fill="none" stroke="#63b8ff" d="M332.13,-429.97C350.18,-434.5 371.87,-439.94 391.12,-444.77"/>
<polygon fill="#63b8ff" stroke="#63b8ff" points="390.1,-448.12 400.66,-447.16 391.81,-441.33 390.1,-448.12"/>
</a>
</g>
</g>
<!-- Node9 -->
<g id="Node000009" class="node">
<title>Node9</title>
<g id="a_Node000009"><a xlink:href="a01925.html#afe7e4a63c40fbcaae742b8de8693483f" target="_top" xlink:title=" ">
<polygon fill="white" stroke="#666666" points="811.5,-203.5 707,-203.5 707,-185 811.5,-185 811.5,-203.5"/>
<text text-anchor="middle" x="759.25" y="-190" font-family="Helvetica,sans-Serif" font-size="10.00">arax_object_ref_dec</text>
</a>
</g>
</g>
<!-- Node8&#45;&gt;Node9 -->
<g id="edge8_Node000008_Node000009" class="edge">
<title>Node8&#45;&gt;Node9</title>
<g id="a_edge8_Node000008_Node000009"><a xlink:title=" ">
<path fill="none" stroke="#63b8ff" d="M331.78,-83.76C401.19,-84.3 550.71,-92.05 662.75,-144.25 681.89,-153.17 680.32,-164.94 698.75,-175.25 702.17,-177.16 705.8,-178.91 709.53,-180.51"/>
<polygon fill="#63b8ff" stroke="#63b8ff" points="708.15,-183.73 718.74,-184.06 710.67,-177.2 708.15,-183.73"/>
</a>
</g>
</g>
<!-- Node10 -->
<g id="Node000010" class="node">
<title>Node10</title>
<g id="a_Node000010"><a xlink:href="a01928.html#a9f30684f01feac766b42d622970ed5a6" target="_top" xlink:title=" ">
<polygon fill="white" stroke="#666666" points="962.12,-221.5 862.88,-221.5 862.88,-203 962.12,-203 962.12,-221.5"/>
<text text-anchor="middle" x="912.5" y="-208" font-family="Helvetica,sans-Serif" font-size="10.00">arax_pipe_size_inc</text>
</a>
</g>
</g>
<!-- Node9&#45;&gt;Node10 -->
<g id="edge9_Node000009_Node000010" class="edge">
<title>Node9&#45;&gt;Node10</title>
<g id="a_edge9_Node000009_Node000010"><a xlink:title=" ">
<path fill="none" stroke="#63b8ff" d="M811.88,-200.39C824.52,-201.9 838.16,-203.52 851.17,-205.07"/>
<polygon fill="#63b8ff" stroke="#63b8ff" points="850.55,-208.52 860.9,-206.23 851.38,-201.57 850.55,-208.52"/>
</a>
</g>
</g>
<!-- Node18 -->
<g id="Node000018" class="node">
<title>Node18</title>
<g id="a_Node000018"><a xlink:href="a01955.html#a0c85e5516222ab7e7fc354c614760ec5" target="_top" xlink:title=" ">
<polygon fill="white" stroke="#666666" points="947.5,-184.5 877.5,-184.5 877.5,-166 947.5,-166 947.5,-184.5"/>
<text text-anchor="middle" x="912.5" y="-171" font-family="Helvetica,sans-Serif" font-size="10.00">utils_list_del</text>
</a>
</g>
</g>
<!-- Node9&#45;&gt;Node18 -->
<g id="edge19_Node000009_Node000018" class="edge">
<title>Node9&#45;&gt;Node18</title>
<g id="a_edge19_Node000009_Node000018"><a xlink:title=" ">
<path fill="none" stroke="#63b8ff" d="M811.88,-187.76C829.4,-185.56 848.84,-183.12 865.86,-180.98"/>
<polygon fill="#63b8ff" stroke="#63b8ff" points="866.22,-184.47 875.7,-179.75 865.35,-177.52 866.22,-184.47"/>
</a>
</g>
</g>
<!-- Node10&#45;&gt;Node10 -->
<g id="edge10_Node000010_Node000010" class="edge">
<title>Node10&#45;&gt;Node10</title>
<g id="a_edge10_Node000010_Node000010"><a xlink:title=" ">
<path fill="none" stroke="#63b8ff" d="M889.4,-221.75C878.16,-230.32 885.86,-239.5 912.5,-239.5 927.48,-239.5 936.48,-236.59 939.48,-232.53"/>
<polygon fill="#63b8ff" stroke="#63b8ff" points="942.79,-231.4 936.11,-223.17 936.2,-233.76 942.79,-231.4"/>
</a>
</g>
</g>
<!-- Node11 -->
<g id="Node000011" class="node">
<title>Node11</title>
<g id="a_Node000011"><a xlink:href="a01940.html#a7d3a67fa4eeb00cc9508a7ffe451a02f" target="_top" xlink:title=" ">
<polygon fill="white" stroke="#666666" points="1118,-221.5 1006.75,-221.5 1006.75,-203 1118,-203 1118,-221.5"/>
<text text-anchor="middle" x="1062.38" y="-208" font-family="Helvetica,sans-Serif" font-size="10.00">arax_throttle_size_inc</text>
</a>
</g>
</g>
<!-- Node10&#45;&gt;Node11 -->
<g id="edge11_Node000010_Node000011" class="edge">
<title>Node10&#45;&gt;Node11</title>
<g id="a_edge11_Node000010_Node000011"><a xlink:title=" ">
<path fill="none" stroke="#63b8ff" d="M962.33,-212.25C972.82,-212.25 984.07,-212.25 995.1,-212.25"/>
<polygon fill="#63b8ff" stroke="#63b8ff" points="994.95,-215.75 1004.95,-212.25 994.95,-208.75 994.95,-215.75"/>
</a>
</g>
</g>
<!-- Node11&#45;&gt;Node11 -->
<g id="edge12_Node000011_Node000011" class="edge">
<title>Node11&#45;&gt;Node11</title>
<g id="a_edge12_Node000011_Node000011"><a xlink:title=" ">
<path fill="none" stroke="#63b8ff" d="M1039.27,-221.75C1028.04,-230.32 1035.74,-239.5 1062.38,-239.5 1077.36,-239.5 1086.35,-236.59 1089.35,-232.53"/>
<polygon fill="#63b8ff" stroke="#63b8ff" points="1092.66,-231.4 1085.99,-223.17 1086.08,-233.76 1092.66,-231.4"/>
</a>
</g>
</g>
<!-- Node12 -->
<g id="Node000012" class="node">
<title>Node12</title>
<g id="a_Node000012"><a xlink:href="a02364.html#aed6af4d83e934e3e654ead541b15f2d9" target="_top" xlink:title=" ">
<polygon fill="white" stroke="#666666" points="1269.75,-240.5 1160.75,-240.5 1160.75,-222 1269.75,-222 1269.75,-240.5"/>
<text text-anchor="middle" x="1215.25" y="-227" font-family="Helvetica,sans-Serif" font-size="10.00">async_condition_lock</text>
</a>
</g>
</g>
<!-- Node11&#45;&gt;Node12 -->
<g id="edge13_Node000011_Node000012" class="edge">
<title>Node11&#45;&gt;Node12</title>
<g id="a_edge13_Node000011_Node000012"><a xlink:title=" ">
<path fill="none" stroke="#63b8ff" d="M1118.27,-219.16C1128.25,-220.42 1138.75,-221.74 1148.99,-223.03"/>
<polygon fill="#63b8ff" stroke="#63b8ff" points="1148.54,-226.5 1158.9,-224.28 1149.42,-219.56 1148.54,-226.5"/>
</a>
</g>
</g>
<!-- Node14 -->
<g id="Node000014" class="node">
<title>Node14</title>
<g id="a_Node000014"><a xlink:href="a02364.html#a45a896fb606c2aa66a5a4c2af59ce494" target="_top" xlink:title=" ">
<polygon fill="white" stroke="#666666" points="1272.75,-277.5 1157.75,-277.5 1157.75,-259 1272.75,-259 1272.75,-277.5"/>
<text text-anchor="middle" x="1215.25" y="-264" font-family="Helvetica,sans-Serif" font-size="10.00">async_condition_notify</text>
</a>
</g>
</g>
<!-- Node11&#45;&gt;Node14 -->
<g id="edge15_Node000011_Node000014" class="edge">
<title>Node11&#45;&gt;Node14</title>
<g id="a_edge15_Node000011_Node000014"><a xlink:title=" ">
<path fill="none" stroke="#63b8ff" d="M1086.3,-221.97C1104.84,-229.71 1131.68,-240.63 1155.5,-249.25 1160.91,-251.21 1166.62,-253.18 1172.29,-255.07"/>
<polygon fill="#63b8ff" stroke="#63b8ff" points="1170.98,-258.33 1181.58,-258.12 1173.17,-251.67 1170.98,-258.33"/>
</a>
</g>
</g>
<!-- Node16 -->
<g id="Node000016" class="node">
<title>Node16</title>
<g id="a_Node000016"><a xlink:href="a02364.html#a3bbcb7c4c024e99d5c4ba52b61dfbbf7" target="_top" xlink:title=" ">
<polygon fill="white" stroke="#666666" points="1275,-166.5 1155.5,-166.5 1155.5,-148 1275,-148 1275,-166.5"/>
<text text-anchor="middle" x="1215.25" y="-153" font-family="Helvetica,sans-Serif" font-size="10.00">async_condition_unlock</text>
</a>
</g>
</g>
<!-- Node11&#45;&gt;Node16 -->
<g id="edge17_Node000011_Node000016" class="edge">
<title>Node11&#45;&gt;Node16</title>
<g id="a_edge17_Node000011_Node000016"><a xlink:title=" ">
<path fill="none" stroke="#63b8ff" d="M1094.19,-202.53C1102.48,-199.72 1111.39,-196.52 1119.5,-193.25 1135.91,-186.62 1139.05,-182.76 1155.5,-176.25 1160.47,-174.28 1165.74,-172.36 1170.99,-170.54"/>
<polygon fill="#63b8ff" stroke="#63b8ff" points="1171.86,-173.94 1180.23,-167.45 1169.63,-167.3 1171.86,-173.94"/>
</a>
</g>
</g>
<!-- Node13 -->
<g id="Node000013" class="node">
<title>Node13</title>
<g id="a_Node000013"><a xlink:href="a02358.html#aebf9e72bb6cbd8b9e33489d46c25075d" target="_top" xlink:title=" ">
<polygon fill="white" stroke="#666666" points="1438.75,-240.5 1322.25,-240.5 1322.25,-222 1438.75,-222 1438.75,-240.5"/>
<text text-anchor="middle" x="1380.5" y="-227" font-family="Helvetica,sans-Serif" font-size="10.00">async_completion_wait</text>
</a>
</g>
</g>
<!-- Node12&#45;&gt;Node13 -->
<g id="edge14_Node000012_Node000013" class="edge">
<title>Node12&#45;&gt;Node13</title>
<g id="a_edge14_Node000012_Node000013"><a xlink:title=" ">
<path fill="none" stroke="#63b8ff" d="M1270.16,-231.25C1283.14,-231.25 1297.19,-231.25 1310.76,-231.25"/>
<polygon fill="#63b8ff" stroke="#63b8ff" points="1310.49,-234.75 1320.49,-231.25 1310.49,-227.75 1310.49,-234.75"/>
</a>
</g>
</g>
<!-- Node15 -->
<g id="Node000015" class="node">
<title>Node15</title>
<g id="a_Node000015"><a xlink:href="a02358.html#a0fa370eee5160963e617d1daf1c07363" target="_top" xlink:title=" ">
<polygon fill="white" stroke="#666666" points="1436.88,-277.5 1324.12,-277.5 1324.12,-259 1436.88,-259 1436.88,-277.5"/>
<text text-anchor="middle" x="1380.5" y="-264" font-family="Helvetica,sans-Serif" font-size="10.00">async_semaphore_inc</text>
</a>
</g>
</g>
<!-- Node14&#45;&gt;Node15 -->
<g id="edge16_Node000014_Node000015" class="edge">
<title>Node14&#45;&gt;Node15</title>
<g id="a_edge16_Node000014_Node000015"><a xlink:title=" ">
<path fill="none" stroke="#63b8ff" d="M1272.89,-268.25C1285.64,-268.25 1299.29,-268.25 1312.42,-268.25"/>
<polygon fill="#63b8ff" stroke="#63b8ff" points="1312.28,-271.75 1322.28,-268.25 1312.27,-264.75 1312.28,-271.75"/>
</a>
</g>
</g>
<!-- Node17 -->
<g id="Node000017" class="node">
<title>Node17</title>
<g id="a_Node000017"><a xlink:href="a02358.html#ad1d30ecbf6bff6457b680aa940281072" target="_top" xlink:title=" ">
<polygon fill="white" stroke="#666666" points="1450,-166.5 1311,-166.5 1311,-148 1450,-148 1450,-166.5"/>
<text text-anchor="middle" x="1380.5" y="-153" font-family="Helvetica,sans-Serif" font-size="10.00">async_completion_complete</text>
</a>
</g>
</g>
<!-- Node16&#45;&gt;Node17 -->
<g id="edge18_Node000016_Node000017" class="edge">
<title>Node16&#45;&gt;Node17</title>
<g id="a_edge18_Node000016_Node000017"><a xlink:title=" ">
<path fill="none" stroke="#63b8ff" d="M1275.19,-157.25C1283.01,-157.25 1291.13,-157.25 1299.24,-157.25"/>
<polygon fill="#63b8ff" stroke="#63b8ff" points="1299.14,-160.75 1309.14,-157.25 1299.14,-153.75 1299.14,-160.75"/>
</a>
</g>
</g>
<!-- Node19&#45;&gt;Node9 -->
<g id="edge21_Node000019_Node000009" class="edge">
<title>Node19&#45;&gt;Node9</title>
<g id="a_edge21_Node000019_Node000009"><a xlink:title=" ">
<path fill="none" stroke="#63b8ff" d="M199.27,-161.39C263.13,-164.82 392.02,-171.82 501.25,-178.25 567.43,-182.15 643.17,-186.9 695.19,-190.21"/>
<polygon fill="#63b8ff" stroke="#63b8ff" points="694.86,-193.69 705.06,-190.83 695.3,-186.71 694.86,-193.69"/>
</a>
</g>
</g>
<!-- Node21&#45;&gt;Node20 -->
<g id="edge51_Node000021_Node000020" class="edge">
<title>Node21&#45;&gt;Node20</title>
<g id="a_edge51_Node000021_Node000020"><a xlink:title=" ">
<path fill="none" stroke="#63b8ff" d="M182.75,-186.6C189.17,-183.77 196.05,-180.54 202.25,-177.25 225.32,-164.99 250.41,-148.96 268.08,-137.2"/>
<polygon fill="#63b8ff" stroke="#63b8ff" points="269.95,-140.15 276.29,-131.67 266.04,-134.35 269.95,-140.15"/>
</a>
</g>
</g>
<!-- Node22 -->
<g id="Node000022" class="node">
<title>Node22</title>
<g id="a_Node000022"><a xlink:href="a01937.html#a27bee94f7a23281c8b2b72ec433f6059" target="_top" xlink:title=" ">
<polygon fill="white" stroke="#666666" points="334.88,-205.5 249.88,-205.5 249.88,-187 334.88,-187 334.88,-205.5"/>
<text text-anchor="middle" x="292.38" y="-192" font-family="Helvetica,sans-Serif" font-size="10.00">arax_task_alloc</text>
</a>
</g>
</g>
<!-- Node21&#45;&gt;Node22 -->
<g id="edge24_Node000021_Node000022" class="edge">
<title>Node21&#45;&gt;Node22</title>
<g id="a_edge24_Node000021_Node000022"><a xlink:title=" ">
<path fill="none" stroke="#63b8ff" d="M202.51,-196.25C214.03,-196.25 226.61,-196.25 238.58,-196.25"/>
<polygon fill="#63b8ff" stroke="#63b8ff" points="238.3,-199.75 248.3,-196.25 238.3,-192.75 238.3,-199.75"/>
</a>
</g>
</g>
<!-- Node37 -->
<g id="Node000037" class="node">
<title>Node37</title>
<g id="a_Node000037"><a xlink:href="a01937.html#ace08f924cb86d1310099621564536657" target="_top" xlink:title=" ">
<polygon fill="white" stroke="#666666" points="647,-392.5 553,-392.5 553,-374 647,-374 647,-392.5"/>
<text text-anchor="middle" x="600" y="-379" font-family="Helvetica,sans-Serif" font-size="10.00">arax_task_submit</text>
</a>
</g>
</g>
<!-- Node21&#45;&gt;Node37 -->
<g id="edge52_Node000021_Node000037" class="edge">
<title>Node21&#45;&gt;Node37</title>
<g id="a_edge52_Node000021_Node000037"><a xlink:title=" ">
<path fill="none" stroke="#63b8ff" d="M170.95,-205.85C185.85,-217.72 212.75,-237.99 238.25,-251.25 345.81,-307.17 482.51,-350.23 552.73,-370.5"/>
<polygon fill="#63b8ff" stroke="#63b8ff" points="551.39,-373.75 561.96,-373.14 553.31,-367.02 551.39,-373.75"/>
</a>
</g>
</g>
<!-- Node41 -->
<g id="Node000041" class="node">
<title>Node41</title>
<g id="a_Node000041"><a xlink:href="a01910.html#a226d4d420328a42fd671699ae60c4c3a" target="_top" xlink:title=" ">
<polygon fill="white" stroke="#666666" points="338.62,-242.5 246.12,-242.5 246.12,-224 338.62,-224 338.62,-242.5"/>
<text text-anchor="middle" x="292.38" y="-229" font-family="Helvetica,sans-Serif" font-size="10.00">check_semantics</text>
</a>
</g>
</g>
<!-- Node21&#45;&gt;Node41 -->
<g id="edge60_Node000021_Node000041" class="edge">
<title>Node21&#45;&gt;Node41</title>
<g id="a_edge60_Node000021_Node000041"><a xlink:title=" ">
<path fill="none" stroke="#63b8ff" d="M193.96,-205.97C209.89,-210.43 228.99,-215.78 246.04,-220.55"/>
<polygon fill="#63b8ff" stroke="#63b8ff" points="244.86,-223.86 255.44,-223.19 246.75,-217.12 244.86,-223.86"/>
</a>
</g>
</g>
<!-- Node23 -->
<g id="Node000023" class="node">
<title>Node23</title>
<g id="a_Node000023"><a xlink:href="a01922.html#a1dc669466d6f52d5be8af2d991512ac2" target="_top" xlink:title=" ">
<polygon fill="white" stroke="#666666" points="493.75,-279.5 390,-279.5 390,-261 493.75,-261 493.75,-279.5"/>
<text text-anchor="middle" x="441.88" y="-266" font-family="Helvetica,sans-Serif" font-size="10.00">arax_data_input_init</text>
</a>
</g>
</g>
<!-- Node22&#45;&gt;Node23 -->
<g id="edge25_Node000022_Node000023" class="edge">
<title>Node22&#45;&gt;Node23</title>
<g id="a_edge25_Node000022_Node000023"><a xlink:title=" ">
<path fill="none" stroke="#63b8ff" d="M327.58,-205.96C334.11,-208.5 340.71,-211.58 346.5,-215.25 365.62,-227.35 363.21,-239.42 382.5,-251.25 385.45,-253.06 388.59,-254.71 391.82,-256.22"/>
<polygon fill="#63b8ff" stroke="#63b8ff" points="390.38,-259.42 400.96,-260 393.05,-252.95 390.38,-259.42"/>
</a>
</g>
</g>
<!-- Node26 -->
<g id="Node000026" class="node">
<title>Node26</title>
<g id="a_Node000026"><a xlink:href="a01922.html#a18d07d808917e0b971d46332e9e64da4" target="_top" xlink:title=" ">
<polygon fill="white" stroke="#666666" points="496.75,-242.5 387,-242.5 387,-224 496.75,-224 496.75,-242.5"/>
<text text-anchor="middle" x="441.88" y="-229" font-family="Helvetica,sans-Serif" font-size="10.00">arax_data_output_init</text>
</a>
</g>
</g>
<!-- Node22&#45;&gt;Node26 -->
<g id="edge31_Node000022_Node000026" class="edge">
<title>Node22&#45;&gt;Node26</title>
<g id="a_edge31_Node000022_Node000026"><a xlink:title=" ">
<path fill="none" stroke="#63b8ff" d="M332.13,-205.97C350.18,-210.5 371.87,-215.94 391.12,-220.77"/>
<polygon fill="#63b8ff" stroke="#63b8ff" points="390.1,-224.12 400.66,-223.16 391.81,-217.33 390.1,-224.12"/>
</a>
</g>
</g>
<!-- Node27 -->
<g id="Node000027" class="node">
<title>Node27</title>
<g id="a_Node000027"><a xlink:href="a01925.html#a402bbd6fa197c2c48d527325e5e2cf5b" target="_top" xlink:title=" ">
<polygon fill="white" stroke="#666666" points="652.25,-92.5 547.75,-92.5 547.75,-74 652.25,-74 652.25,-92.5"/>
<text text-anchor="middle" x="600" y="-79" font-family="Helvetica,sans-Serif" font-size="10.00">arax_object_register</text>
</a>
</g>
</g>
<!-- Node22&#45;&gt;Node27 -->
<g id="edge34_Node000022_Node000027" class="edge">
<title>Node22&#45;&gt;Node27</title>
<g id="a_edge34_Node000022_Node000027"><a xlink:title=" ">
<path fill="none" stroke="#63b8ff" d="M319.7,-186.52C374.2,-166.37 499.52,-120.03 562.07,-96.9"/>
<polygon fill="#63b8ff" stroke="#63b8ff" points="563.05,-100.27 571.21,-93.52 560.62,-93.71 563.05,-100.27"/>
</a>
</g>
</g>
<!-- Node36 -->
<g id="Node000036" class="node">
<title>Node36</title>
<g id="a_Node000036"><a xlink:href="a02364.html#ac728117d73179c279de49e01ae905dda" target="_top" xlink:title=" ">
<polygon fill="white" stroke="#666666" points="497.88,-205.5 385.88,-205.5 385.88,-187 497.88,-187 497.88,-205.5"/>
<text text-anchor="middle" x="441.88" y="-192" font-family="Helvetica,sans-Serif" font-size="10.00">async_completion_init</text>
</a>
</g>
</g>
<!-- Node22&#45;&gt;Node36 -->
<g id="edge49_Node000022_Node000036" class="edge">
<title>Node22&#45;&gt;Node36</title>
<g id="a_edge49_Node000022_Node000036"><a xlink:title=" ">
<path fill="none" stroke="#63b8ff" d="M335.25,-196.25C347.3,-196.25 360.77,-196.25 373.94,-196.25"/>
<polygon fill="#63b8ff" stroke="#63b8ff" points="373.88,-199.75 383.88,-196.25 373.88,-192.75 373.88,-199.75"/>
</a>
</g>
</g>
<!-- Node23&#45;&gt;Node4 -->
<g id="edge30_Node000023_Node000004" class="edge">
<title>Node23&#45;&gt;Node4</title>
<g id="a_edge30_Node000023_Node000004"><a xlink:title=" ">
<path fill="none" stroke="#63b8ff" d="M493.76,-278.17C507.83,-280.26 523.12,-282.44 537.25,-284.25 591.13,-291.17 652.56,-297.73 696.96,-302.24"/>
<polygon fill="#63b8ff" stroke="#63b8ff" points="696.35,-305.7 706.65,-303.22 697.05,-298.73 696.35,-305.7"/>
</a>
</g>
</g>
<!-- Node24 -->
<g id="Node000024" class="node">
<title>Node24</title>
<g id="a_Node000024"><a xlink:href="a01922.html#a4b65f90a821aca384f0ca1cff7bd1846" target="_top" xlink:title=" ">
<polygon fill="white" stroke="#666666" points="662.75,-242.5 537.25,-242.5 537.25,-224 662.75,-224 662.75,-242.5"/>
<text text-anchor="middle" x="600" y="-229" font-family="Helvetica,sans-Serif" font-size="10.00">arax_data_migrate_accel</text>
</a>
</g>
</g>
<!-- Node23&#45;&gt;Node24 -->
<g id="edge26_Node000023_Node000024" class="edge">
<title>Node23&#45;&gt;Node24</title>
<g id="a_edge26_Node000023_Node000024"><a xlink:title=" ">
<path fill="none" stroke="#63b8ff" d="M483.9,-260.53C503.18,-255.96 526.39,-250.46 546.91,-245.6"/>
<polygon fill="#63b8ff" stroke="#63b8ff" points="547.59,-249.03 556.51,-243.32 545.97,-242.22 547.59,-249.03"/>
</a>
</g>
</g>
<!-- Node24&#45;&gt;Node4 -->
<g id="edge28_Node000024_Node000004" class="edge">
<title>Node24&#45;&gt;Node4</title>
<g id="a_edge28_Node000024_Node000004"><a xlink:title=" ">
<path fill="none" stroke="#63b8ff" d="M629.63,-242.95C640.17,-246.78 652.13,-251.41 662.75,-256.25 686.84,-267.23 713.2,-281.79 732.11,-292.71"/>
<polygon fill="#63b8ff" stroke="#63b8ff" points="730.34,-295.73 740.74,-297.74 733.87,-289.68 730.34,-295.73"/>
</a>
</g>
</g>
<!-- Node24&#45;&gt;Node9 -->
<g id="edge27_Node000024_Node000009" class="edge">
<title>Node24&#45;&gt;Node9</title>
<g id="a_edge27_Node000024_Node000009"><a xlink:title=" ">
<path fill="none" stroke="#63b8ff" d="M640.28,-223.51C660.8,-218.42 686.15,-212.13 708.09,-206.69"/>
<polygon fill="#63b8ff" stroke="#63b8ff" points="708.87,-210.1 717.73,-204.3 707.19,-203.31 708.87,-210.1"/>
</a>
</g>
</g>
<!-- Node25 -->
<g id="Node000025" class="node">
<title>Node25</title>
<g id="a_Node000025"><a xlink:href="a01925.html#a668fd893484b6e2d67d8b372b508d14f" target="_top" xlink:title=" ">
<polygon fill="white" stroke="#666666" points="819.75,-242.5 698.75,-242.5 698.75,-224 819.75,-224 819.75,-242.5"/>
<text text-anchor="middle" x="759.25" y="-229" font-family="Helvetica,sans-Serif" font-size="10.00">arax_object_type_to_str</text>
</a>
</g>
</g>
<!-- Node24&#45;&gt;Node25 -->
<g id="edge29_Node000024_Node000025" class="edge">
<title>Node24&#45;&gt;Node25</title>
<g id="a_edge29_Node000024_Node000025"><a xlink:title=" ">
<path fill="none" stroke="#63b8ff" d="M663.15,-233.25C670.94,-233.25 678.95,-233.25 686.86,-233.25"/>
<polygon fill="#63b8ff" stroke="#63b8ff" points="686.83,-236.75 696.83,-233.25 686.83,-229.75 686.83,-236.75"/>
</a>
</g>
</g>
<!-- Node26&#45;&gt;Node4 -->
<g id="edge33_Node000026_Node000004" class="edge">
<title>Node26&#45;&gt;Node4</title>
<g id="a_edge33_Node000026_Node000004"><a xlink:title=" ">
<path fill="none" stroke="#63b8ff" d="M485.9,-242.99C530.27,-253.08 601.42,-269.43 662.75,-284.25 677.85,-287.9 694.25,-291.98 709.14,-295.73"/>
<polygon fill="#63b8ff" stroke="#63b8ff" points="708.16,-299.09 718.72,-298.14 709.88,-292.3 708.16,-299.09"/>
</a>
</g>
</g>
<!-- Node26&#45;&gt;Node24 -->
<g id="edge32_Node000026_Node000024" class="edge">
<title>Node26&#45;&gt;Node24</title>
<g id="a_edge32_Node000026_Node000024"><a xlink:title=" ">
<path fill="none" stroke="#63b8ff" d="M497.04,-233.25C506.28,-233.25 516.02,-233.25 525.66,-233.25"/>
<polygon fill="#63b8ff" stroke="#63b8ff" points="525.38,-236.75 535.38,-233.25 525.38,-229.75 525.38,-236.75"/>
</a>
</g>
</g>
<!-- Node28 -->
<g id="Node000028" class="node">
<title>Node28</title>
<g id="a_Node000028"><a xlink:href="a01928.html#a6cc54ee40009c61b5f6526f5edff004f" target="_top" xlink:title=" ">
<polygon fill="white" stroke="#666666" points="963.62,-101.5 861.38,-101.5 861.38,-83 963.62,-83 963.62,-101.5"/>
<text text-anchor="middle" x="912.5" y="-88" font-family="Helvetica,sans-Serif" font-size="10.00">arax_pipe_size_dec</text>
</a>
</g>
</g>
<!-- Node27&#45;&gt;Node28 -->
<g id="edge35_Node000027_Node000028" class="edge">
<title>Node27&#45;&gt;Node28</title>
<g id="a_edge35_Node000027_Node000028"><a xlink:title=" ">
<path fill="none" stroke="#63b8ff" d="M652.62,-84.75C706.86,-86.32 792.16,-88.79 849.88,-90.46"/>
<polygon fill="#63b8ff" stroke="#63b8ff" points="849.43,-93.95 859.53,-90.74 849.64,-86.96 849.43,-93.95"/>
</a>
</g>
</g>
<!-- Node32 -->
<g id="Node000032" class="node">
<title>Node32</title>
<g id="a_Node000032"><a xlink:href="a02355.html#ac9828b5c2758940f6d3c7d4335228de5" target="_top" xlink:title=" ">
<polygon fill="white" stroke="#666666" points="808.88,-129.5 709.62,-129.5 709.62,-111 808.88,-111 808.88,-129.5"/>
<text text-anchor="middle" x="759.25" y="-116" font-family="Helvetica,sans-Serif" font-size="10.00">arch_alloc_allocate</text>
</a>
</g>
</g>
<!-- Node27&#45;&gt;Node32 -->
<g id="edge45_Node000027_Node000032" class="edge">
<title>Node27&#45;&gt;Node32</title>
<g id="a_edge45_Node000027_Node000032"><a xlink:title=" ">
<path fill="none" stroke="#63b8ff" d="M642.32,-92.97C661.74,-97.54 685.12,-103.04 705.78,-107.9"/>
<polygon fill="#63b8ff" stroke="#63b8ff" points="704.93,-111.3 715.46,-110.18 706.53,-104.49 704.93,-111.3"/>
</a>
</g>
</g>
<!-- Node33 -->
<g id="Node000033" class="node">
<title>Node33</title>
<g id="a_Node000033"><a xlink:href="a01955.html#ae06a9e78e6a4f6c9c8afcf0f4862ce29" target="_top" xlink:title=" ">
<polygon fill="white" stroke="#666666" points="795.75,-55.5 722.75,-55.5 722.75,-37 795.75,-37 795.75,-55.5"/>
<text text-anchor="middle" x="759.25" y="-42" font-family="Helvetica,sans-Serif" font-size="10.00">utils_list_add</text>
</a>
</g>
</g>
<!-- Node27&#45;&gt;Node33 -->
<g id="edge46_Node000027_Node000033" class="edge">
<title>Node27&#45;&gt;Node33</title>
<g id="a_edge46_Node000027_Node000033"><a xlink:title=" ">
<path fill="none" stroke="#63b8ff" d="M642.32,-73.53C663.47,-68.55 689.32,-62.47 711.23,-57.31"/>
<polygon fill="#63b8ff" stroke="#63b8ff" points="711.88,-60.76 720.81,-55.06 710.28,-53.94 711.88,-60.76"/>
</a>
</g>
</g>
<!-- Node35 -->
<g id="Node000035" class="node">
<title>Node35</title>
<g id="a_Node000035"><a xlink:href="a01955.html#a63f2791c9b5c8e2fa15967cfafb7ccbb" target="_top" xlink:title=" ">
<polygon fill="white" stroke="#666666" points="807.38,-166.5 711.12,-166.5 711.12,-148 807.38,-148 807.38,-166.5"/>
<text text-anchor="middle" x="759.25" y="-153" font-family="Helvetica,sans-Serif" font-size="10.00">utils_list_node_init</text>
</a>
</g>
</g>
<!-- Node27&#45;&gt;Node35 -->
<g id="edge48_Node000027_Node000035" class="edge">
<title>Node27&#45;&gt;Node35</title>
<g id="a_edge48_Node000027_Node000035"><a xlink:title=" ">
<path fill="none" stroke="#63b8ff" d="M633.77,-92.91C643.45,-96.43 653.83,-100.88 662.75,-106.25 681.09,-117.29 680.15,-127.65 698.75,-138.25 702.1,-140.16 705.67,-141.91 709.33,-143.5"/>
<polygon fill="#63b8ff" stroke="#63b8ff" points="707.8,-146.65 718.38,-147.03 710.34,-140.13 707.8,-146.65"/>
</a>
</g>
</g>
<!-- Node28&#45;&gt;Node28 -->
<g id="edge36_Node000028_Node000028" class="edge">
<title>Node28&#45;&gt;Node28</title>
<g id="a_edge36_Node000028_Node000028"><a xlink:title=" ">
<path fill="none" stroke="#63b8ff" d="M889.4,-101.75C878.16,-110.32 885.86,-119.5 912.5,-119.5 927.48,-119.5 936.48,-116.59 939.48,-112.53"/>
<polygon fill="#63b8ff" stroke="#63b8ff" points="942.79,-111.4 936.11,-103.17 936.2,-113.76 942.79,-111.4"/>
</a>
</g>
</g>
<!-- Node29 -->
<g id="Node000029" class="node">
<title>Node29</title>
<g id="a_Node000029"><a xlink:href="a01940.html#a63b80783cfb3106ec4169ce082f153c0" target="_top" xlink:title=" ">
<polygon fill="white" stroke="#666666" points="1119.5,-166.5 1005.25,-166.5 1005.25,-148 1119.5,-148 1119.5,-166.5"/>
<text text-anchor="middle" x="1062.38" y="-153" font-family="Helvetica,sans-Serif" font-size="10.00">arax_throttle_size_dec</text>
</a>
</g>
</g>
<!-- Node28&#45;&gt;Node29 -->
<g id="edge37_Node000028_Node000029" class="edge">
<title>Node28&#45;&gt;Node29</title>
<g id="a_edge37_Node000028_Node000029"><a xlink:title=" ">
<path fill="none" stroke="#63b8ff" d="M935.64,-101.98C960.5,-112.91 1001.07,-130.74 1029.38,-143.18"/>
<polygon fill="#63b8ff" stroke="#63b8ff" points="1027.62,-146.24 1038.18,-147.06 1030.44,-139.83 1027.62,-146.24"/>
</a>
</g>
</g>
<!-- Node29&#45;&gt;Node12 -->
<g id="edge39_Node000029_Node000012" class="edge">
<title>Node29&#45;&gt;Node12</title>
<g id="a_edge39_Node000029_Node000012"><a xlink:title=" ">
<path fill="none" stroke="#63b8ff" d="M1077.2,-166.86C1094.76,-178.74 1126.32,-199.02 1155.5,-212.25 1159.84,-214.22 1164.44,-216.07 1169.09,-217.8"/>
<polygon fill="#63b8ff" stroke="#63b8ff" points="1167.87,-221.08 1178.46,-221.08 1170.18,-214.47 1167.87,-221.08"/>
</a>
</g>
</g>
<!-- Node29&#45;&gt;Node16 -->
<g id="edge40_Node000029_Node000016" class="edge">
<title>Node29&#45;&gt;Node16</title>
<g id="a_edge40_Node000029_Node000016"><a xlink:title=" ">
<path fill="none" stroke="#63b8ff" d="M1119.98,-157.25C1127.68,-157.25 1135.66,-157.25 1143.56,-157.25"/>
<polygon fill="#63b8ff" stroke="#63b8ff" points="1143.54,-160.75 1153.54,-157.25 1143.54,-153.75 1143.54,-160.75"/>
</a>
</g>
</g>
<!-- Node29&#45;&gt;Node29 -->
<g id="edge38_Node000029_Node000029" class="edge">
<title>Node29&#45;&gt;Node29</title>
<g id="a_edge38_Node000029_Node000029"><a xlink:title=" ">
<path fill="none" stroke="#63b8ff" d="M1039.27,-166.75C1028.04,-175.32 1035.74,-184.5 1062.38,-184.5 1077.36,-184.5 1086.35,-181.59 1089.35,-177.53"/>
<polygon fill="#63b8ff" stroke="#63b8ff" points="1092.66,-176.4 1085.99,-168.17 1086.08,-178.76 1092.66,-176.4"/>
</a>
</g>
</g>
<!-- Node30 -->
<g id="Node000030" class="node">
<title>Node30</title>
<g id="a_Node000030"><a xlink:href="a02364.html#a1bfeaeb9b81855e640d7a67cc9d92b17" target="_top" xlink:title=" ">
<polygon fill="white" stroke="#666666" points="1269.38,-203.5 1161.12,-203.5 1161.12,-185 1269.38,-185 1269.38,-203.5"/>
<text text-anchor="middle" x="1215.25" y="-190" font-family="Helvetica,sans-Serif" font-size="10.00">async_condition_wait</text>
</a>
</g>
</g>
<!-- Node29&#45;&gt;Node30 -->
<g id="edge41_Node000029_Node000030" class="edge">
<title>Node29&#45;&gt;Node30</title>
<g id="a_edge41_Node000029_Node000030"><a xlink:title=" ">
<path fill="none" stroke="#63b8ff" d="M1103.02,-166.97C1121.57,-171.52 1143.88,-176.99 1163.63,-181.84"/>
<polygon fill="#63b8ff" stroke="#63b8ff" points="1162.6,-185.19 1173.14,-184.17 1164.26,-178.39 1162.6,-185.19"/>
</a>
</g>
</g>
<!-- Node30&#45;&gt;Node13 -->
<g id="edge43_Node000030_Node000013" class="edge">
<title>Node30&#45;&gt;Node13</title>
<g id="a_edge43_Node000030_Node000013"><a xlink:title=" ">
<path fill="none" stroke="#63b8ff" d="M1259.14,-203.97C1279.49,-208.58 1304.03,-214.15 1325.62,-219.04"/>
<polygon fill="#63b8ff" stroke="#63b8ff" points="1324.61,-222.4 1335.14,-221.19 1326.16,-215.57 1324.61,-222.4"/>
</a>
</g>
</g>
<!-- Node30&#45;&gt;Node17 -->
<g id="edge42_Node000030_Node000017" class="edge">
<title>Node30&#45;&gt;Node17</title>
<g id="a_edge42_Node000030_Node000017"><a xlink:title=" ">
<path fill="none" stroke="#63b8ff" d="M1259.14,-184.53C1279.49,-179.92 1304.03,-174.35 1325.62,-169.46"/>
<polygon fill="#63b8ff" stroke="#63b8ff" points="1326.16,-172.93 1335.14,-167.31 1324.61,-166.1 1326.16,-172.93"/>
</a>
</g>
</g>
<!-- Node31 -->
<g id="Node000031" class="node">
<title>Node31</title>
<g id="a_Node000031"><a xlink:href="a02358.html#a7ab7c7fe9cb93434dde72a4e464a7e69" target="_top" xlink:title=" ">
<polygon fill="white" stroke="#666666" points="1438.38,-203.5 1322.62,-203.5 1322.62,-185 1438.38,-185 1438.38,-203.5"/>
<text text-anchor="middle" x="1380.5" y="-190" font-family="Helvetica,sans-Serif" font-size="10.00">async_semaphore_dec</text>
</a>
</g>
</g>
<!-- Node30&#45;&gt;Node31 -->
<g id="edge44_Node000030_Node000031" class="edge">
<title>Node30&#45;&gt;Node31</title>
<g id="a_edge44_Node000030_Node000031"><a xlink:title=" ">
<path fill="none" stroke="#63b8ff" d="M1269.7,-194.25C1282.85,-194.25 1297.11,-194.25 1310.87,-194.25"/>
<polygon fill="#63b8ff" stroke="#63b8ff" points="1310.76,-197.75 1320.76,-194.25 1310.76,-190.75 1310.76,-197.75"/>
</a>
</g>
</g>
<!-- Node34 -->
<g id="Node000034" class="node">
<title>Node34</title>
<g id="a_Node000034"><a xlink:href="a01955.html#a5c575f52a42e0e0d2fb41bda2d1268ce" target="_top" xlink:title=" ">
<polygon fill="white" stroke="#666666" points="962.12,-55.5 862.88,-55.5 862.88,-37 962.12,-37 962.12,-55.5"/>
<text text-anchor="middle" x="912.5" y="-42" font-family="Helvetica,sans-Serif" font-size="10.00">utils_list_node_add</text>
</a>
</g>
</g>
<!-- Node33&#45;&gt;Node34 -->
<g id="edge47_Node000033_Node000034" class="edge">
<title>Node33&#45;&gt;Node34</title>
<g id="a_edge47_Node000033_Node000034"><a xlink:title=" ">
<path fill="none" stroke="#63b8ff" d="M796.09,-46.25C812.52,-46.25 832.44,-46.25 851.07,-46.25"/>
<polygon fill="#63b8ff" stroke="#63b8ff" points="850.95,-49.75 860.95,-46.25 850.95,-42.75 850.95,-49.75"/>
</a>
</g>
</g>
<!-- Node36&#45;&gt;Node35 -->
<g id="edge50_Node000036_Node000035" class="edge">
<title>Node36&#45;&gt;Node35</title>
<g id="a_edge50_Node000036_Node000035"><a xlink:title=" ">
<path fill="none" stroke="#63b8ff" d="M498.17,-189.41C554.64,-182.43 641.99,-171.63 699.64,-164.5"/>
<polygon fill="#63b8ff" stroke="#63b8ff" points="699.76,-168.01 709.25,-163.31 698.9,-161.06 699.76,-168.01"/>
</a>
</g>
</g>
<!-- Node37&#45;&gt;Node4 -->
<g id="edge53_Node000037_Node000004" class="edge">
<title>Node37&#45;&gt;Node4</title>
<g id="a_edge53_Node000037_Node000004"><a xlink:title=" ">
<path fill="none" stroke="#63b8ff" d="M629.63,-373.55C640.17,-369.72 652.13,-365.09 662.75,-360.25 686.84,-349.27 713.2,-334.71 732.11,-323.79"/>
<polygon fill="#63b8ff" stroke="#63b8ff" points="733.87,-326.82 740.74,-318.76 730.34,-320.77 733.87,-326.82"/>
</a>
</g>
</g>
<!-- Node38 -->
<g id="Node000038" class="node">
<title>Node38</title>
<g id="a_Node000038"><a xlink:href="a01943.html#a8b82433bc8c7d7f03683ac521a3679fa" target="_top" xlink:title=" ">
<polygon fill="white" stroke="#666666" points="969.25,-313.5 855.75,-313.5 855.75,-295 969.25,-295 969.25,-313.5"/>
<text text-anchor="middle" x="912.5" y="-300" font-family="Helvetica,sans-Serif" font-size="10.00">arax_vaccel_add_task</text>
</a>
</g>
</g>
<!-- Node37&#45;&gt;Node38 -->
<g id="edge54_Node000037_Node000038" class="edge">
<title>Node37&#45;&gt;Node38</title>
<g id="a_edge54_Node000037_Node000038"><a xlink:title=" ">
<path fill="none" stroke="#63b8ff" d="M639.07,-373.56C695.33,-359.25 800.65,-332.45 862.57,-316.7"/>
<polygon fill="#63b8ff" stroke="#63b8ff" points="863.31,-320.12 872.13,-314.27 861.58,-313.34 863.31,-320.12"/>
</a>
</g>
</g>
<!-- Node39 -->
<g id="Node000039" class="node">
<title>Node39</title>
<g id="a_Node000039"><a xlink:href="a01916.html#ab6afd8cc035237c811ce6a1b7727acc3" target="_top" xlink:title=" ">
<polygon fill="white" stroke="#666666" points="1116.88,-313.5 1007.88,-313.5 1007.88,-295 1116.88,-295 1116.88,-313.5"/>
<text text-anchor="middle" x="1062.38" y="-300" font-family="Helvetica,sans-Serif" font-size="10.00">arax_accel_add_task</text>
</a>
</g>
</g>
<!-- Node38&#45;&gt;Node39 -->
<g id="edge55_Node000038_Node000039" class="edge">
<title>Node38&#45;&gt;Node39</title>
<g id="a_edge55_Node000038_Node000039"><a xlink:title=" ">
<path fill="none" stroke="#63b8ff" d="M969.41,-304.25C978.26,-304.25 987.49,-304.25 996.52,-304.25"/>
<polygon fill="#63b8ff" stroke="#63b8ff" points="996.32,-307.75 1006.32,-304.25 996.32,-300.75 996.32,-307.75"/>
</a>
</g>
</g>
<!-- Node40 -->
<g id="Node000040" class="node">
<title>Node40</title>
<g id="a_Node000040"><a xlink:href="a01958.html#a9fae55b169121c4851bb7c0adf4eac47" target="_top" xlink:title=" ">
<polygon fill="white" stroke="#666666" points="1108.25,-276.5 1016.5,-276.5 1016.5,-258 1108.25,-258 1108.25,-276.5"/>
<text text-anchor="middle" x="1062.38" y="-263" font-family="Helvetica,sans-Serif" font-size="10.00">utils_queue_push</text>
</a>
</g>
</g>
<!-- Node38&#45;&gt;Node40 -->
<g id="edge59_Node000038_Node000040" class="edge">
<title>Node38&#45;&gt;Node40</title>
<g id="a_edge59_Node000038_Node000040"><a xlink:title=" ">
<path fill="none" stroke="#63b8ff" d="M952.35,-294.53C970.45,-290 992.2,-284.56 1011.49,-279.73"/>
<polygon fill="#63b8ff" stroke="#63b8ff" points="1012.21,-283.16 1021.06,-277.34 1010.51,-276.37 1012.21,-283.16"/>
</a>
</g>
</g>
<!-- Node39&#45;&gt;Node12 -->
<g id="edge56_Node000039_Node000012" class="edge">
<title>Node39&#45;&gt;Node12</title>
<g id="a_edge56_Node000039_Node000012"><a xlink:title=" ">
<path fill="none" stroke="#63b8ff" d="M1099.77,-294.57C1106.58,-292.04 1113.44,-288.95 1119.5,-285.25 1138.54,-273.61 1136.38,-261.76 1155.5,-250.25 1158.48,-248.46 1161.65,-246.81 1164.91,-245.31"/>
<polygon fill="#63b8ff" stroke="#63b8ff" points="1166.19,-248.56 1174.13,-241.54 1163.54,-242.08 1166.19,-248.56"/>
</a>
</g>
</g>
<!-- Node39&#45;&gt;Node14 -->
<g id="edge57_Node000039_Node000014" class="edge">
<title>Node39&#45;&gt;Node14</title>
<g id="a_edge57_Node000039_Node000014"><a xlink:title=" ">
<path fill="none" stroke="#63b8ff" d="M1104.2,-294.51C1122.07,-290.25 1143.23,-285.2 1162.21,-280.67"/>
<polygon fill="#63b8ff" stroke="#63b8ff" points="1163,-284.08 1171.92,-278.35 1161.38,-277.27 1163,-284.08"/>
</a>
</g>
</g>
<!-- Node39&#45;&gt;Node16 -->
<g id="edge58_Node000039_Node000016" class="edge">
<title>Node39&#45;&gt;Node16</title>
<g id="a_edge58_Node000039_Node000016"><a xlink:title=" ">
<path fill="none" stroke="#63b8ff" d="M1106.31,-294.52C1111.18,-292.08 1115.73,-289.05 1119.5,-285.25 1155.44,-249.04 1119.31,-212.21 1155.5,-176.25 1156.71,-175.05 1158,-173.92 1159.35,-172.86"/>
<polygon fill="#63b8ff" stroke="#63b8ff" points="1161.08,-175.91 1167.74,-167.67 1157.39,-169.96 1161.08,-175.91"/>
</a>
</g>
</g>
<!-- Node43 -->
<g id="Node000043" class="node">
<title>Node43</title>
<g id="a_Node000043"><a xlink:href="a01937.html#a0d3707df989265f8cf380acdef95eb02" target="_top" xlink:title=" ">
<polygon fill="white" stroke="#666666" points="346.5,-56.5 238.25,-56.5 238.25,-38 346.5,-38 346.5,-56.5"/>
<text text-anchor="middle" x="292.38" y="-43" font-family="Helvetica,sans-Serif" font-size="10.00">arax_task_wait_done</text>
</a>
</g>
</g>
<!-- Node42&#45;&gt;Node43 -->
<g id="edge62_Node000042_Node000043" class="edge">
<title>Node42&#45;&gt;Node43</title>
<g id="a_edge62_Node000042_Node000043"><a xlink:title=" ">
<path fill="none" stroke="#63b8ff" d="M199.61,-47.25C208.24,-47.25 217.57,-47.25 226.85,-47.25"/>
<polygon fill="#63b8ff" stroke="#63b8ff" points="226.6,-50.75 236.6,-47.25 226.6,-43.75 226.6,-50.75"/>
</a>
</g>
</g>
<!-- Node44 -->
<g id="Node000044" class="node">
<title>Node44</title>
<g id="a_Node000044"><a xlink:href="a02364.html#aebf9e72bb6cbd8b9e33489d46c25075d" target="_top" xlink:title=" ">
<polygon fill="white" stroke="#666666" points="500.12,-54.5 383.62,-54.5 383.62,-36 500.12,-36 500.12,-54.5"/>
<text text-anchor="middle" x="441.88" y="-41" font-family="Helvetica,sans-Serif" font-size="10.00">async_completion_wait</text>
</a>
</g>
</g>
<!-- Node43&#45;&gt;Node44 -->
<g id="edge63_Node000043_Node000044" class="edge">
<title>Node43&#45;&gt;Node44</title>
<g id="a_edge63_Node000043_Node000044"><a xlink:title=" ">
<path fill="none" stroke="#63b8ff" d="M346.63,-46.53C354.8,-46.42 363.33,-46.3 371.78,-46.19"/>
<polygon fill="#63b8ff" stroke="#63b8ff" points="371.75,-49.69 381.7,-46.05 371.65,-42.69 371.75,-49.69"/>
</a>
</g>
</g>
<!-- Node45 -->
<g id="Node000045" class="node">
<title>Node45</title>
<g id="a_Node000045"><a xlink:href="a02358.html#aa459f71b73bbc23f0b4bb342d093dde3" target="_top" xlink:title=" ">
<polygon fill="white" stroke="#666666" points="644.75,-55.5 555.25,-55.5 555.25,-37 644.75,-37 644.75,-55.5"/>
<text text-anchor="middle" x="600" y="-42" font-family="Helvetica,sans-Serif" font-size="10.00">_add_completion</text>
</a>
</g>
</g>
<!-- Node44&#45;&gt;Node45 -->
<g id="edge64_Node000044_Node000045" class="edge">
<title>Node44&#45;&gt;Node45</title>
<g id="a_edge64_Node000044_Node000045"><a xlink:title=" ">
<path fill="none" stroke="#63b8ff" d="M500.57,-45.62C514.68,-45.71 529.75,-45.81 543.75,-45.9"/>
<polygon fill="#63b8ff" stroke="#63b8ff" points="543.68,-49.4 553.7,-45.96 543.72,-42.4 543.68,-49.4"/>
</a>
</g>
</g>
<!-- Node46 -->
<g id="Node000046" class="node">
<title>Node46</title>
<g id="a_Node000046"><a xlink:href="a02358.html#a49083e8ceb4bfe7793ca1a5a799834d0" target="_top" xlink:title=" ">
<polygon fill="white" stroke="#666666" points="627.5,-18.5 572.5,-18.5 572.5,0 627.5,0 627.5,-18.5"/>
<text text-anchor="middle" x="600" y="-5" font-family="Helvetica,sans-Serif" font-size="10.00">getVmID</text>
</a>
</g>
</g>
<!-- Node44&#45;&gt;Node46 -->
<g id="edge66_Node000044_Node000046" class="edge">
<title>Node44&#45;&gt;Node46</title>
<g id="a_edge66_Node000044_Node000046"><a xlink:title=" ">
<path fill="none" stroke="#63b8ff" d="M485.12,-35.51C508.92,-30.02 538.38,-23.23 561.38,-17.93"/>
<polygon fill="#63b8ff" stroke="#63b8ff" points="561.99,-21.38 570.94,-15.72 560.41,-14.56 561.99,-21.38"/>
</a>
</g>
</g>
<!-- Node45&#45;&gt;Node33 -->
<g id="edge65_Node000045_Node000033" class="edge">
<title>Node45&#45;&gt;Node33</title>
<g id="a_edge65_Node000045_Node000033"><a xlink:title=" ">
<path fill="none" stroke="#63b8ff" d="M645.22,-46.25C665.67,-46.25 689.98,-46.25 710.81,-46.25"/>
<polygon fill="#63b8ff" stroke="#63b8ff" points="710.78,-49.75 720.78,-46.25 710.78,-42.75 710.78,-49.75"/>
</a>
</g>
</g>
</g>
</svg>
