<?xml version="1.0" encoding="UTF-8" standalone="no"?>
<!DOCTYPE svg PUBLIC "-//W3C//DTD SVG 1.1//EN"
 "http://www.w3.org/Graphics/SVG/1.1/DTD/svg11.dtd">
<!-- Generated by graphviz version 8.0.5 (0)
 -->
<!-- Title: utils_config_get_bool Pages: 1 -->
<svg width="990pt" height="150pt"
 viewBox="0.00 0.00 990.25 149.85" xmlns="http://www.w3.org/2000/svg" xmlns:xlink="http://www.w3.org/1999/xlink">
<g id="graph0" class="graph" transform="scale(1 1) rotate(0) translate(4 145.85)">
<title>utils_config_get_bool</title>
<!-- Node1 -->
<g id="Node000001" class="node">
<title>Node1</title>
<g id="a_Node000001"><a xlink:title=" ">
<polygon fill="#999999" stroke="#666666" points="982.25,-115.6 874.75,-115.6 874.75,-97.1 982.25,-97.1 982.25,-115.6"/>
<text text-anchor="middle" x="928.5" y="-102.1" font-family="Helvetica,sans-Serif" font-size="10.00">utils_config_get_bool</text>
</a>
</g>
</g>
<!-- Node2 -->
<g id="Node000002" class="node">
<title>Node2</title>
<g id="a_Node000002"><a xlink:href="a01898.html#a02fd608f651d254148dc74f0ae371dfe" target="_top" xlink:title=" ">
<polygon fill="white" stroke="#666666" points="577.25,-115.6 518.5,-115.6 518.5,-97.1 577.25,-97.1 577.25,-115.6"/>
<text text-anchor="middle" x="547.88" y="-102.1" font-family="Helvetica,sans-Serif" font-size="10.00">_arax_init</text>
</a>
</g>
</g>
<!-- Node1&#45;&gt;Node2 -->
<g id="edge1_Node000001_Node000002" class="edge">
<title>Node1&#45;&gt;Node2</title>
<g id="a_edge1_Node000001_Node000002"><a xlink:title=" ">
<path fill="none" stroke="#63b8ff" d="M863.61,-106.35C780.32,-106.35 638.16,-106.35 577.59,-106.35"/>
<polygon fill="#63b8ff" stroke="#63b8ff" points="863.46,-109.85 873.46,-106.35 863.46,-102.85 863.46,-109.85"/>
</a>
</g>
</g>
<!-- Node10 -->
<g id="Node000010" class="node">
<title>Node10</title>
<g id="a_Node000010"><a xlink:href="a02352.html#ab2e422aab2fcfa562795beb2843e8019" target="_top" xlink:title=" ">
<polygon fill="white" stroke="#666666" points="838.75,-97.6 726,-97.6 726,-79.1 838.75,-79.1 838.75,-97.6"/>
<text text-anchor="middle" x="782.38" y="-84.1" font-family="Helvetica,sans-Serif" font-size="10.00">async_meta_init_once</text>
</a>
</g>
</g>
<!-- Node1&#45;&gt;Node10 -->
<g id="edge11_Node000001_Node000010" class="edge">
<title>Node1&#45;&gt;Node10</title>
<g id="a_edge11_Node000001_Node000010"><a xlink:title=" ">
<path fill="none" stroke="#63b8ff" d="M863.92,-98.41C855.65,-97.38 847.24,-96.33 839.12,-95.31"/>
<polygon fill="#63b8ff" stroke="#63b8ff" points="863.29,-101.98 873.65,-99.75 864.16,-95.04 863.29,-101.98"/>
</a>
</g>
</g>
<!-- Node3 -->
<g id="Node000003" class="node">
<title>Node3</title>
<g id="a_Node000003"><a xlink:href="a01898.html#aa6e4832b06bd5757be4502d2de7b3026" target="_top" xlink:title=" ">
<polygon fill="white" stroke="#666666" points="482.5,-141.85 384,-141.85 384,-112.85 482.5,-112.85 482.5,-141.85"/>
<text text-anchor="start" x="392" y="-128.35" font-family="Helvetica,sans-Serif" font-size="10.00">arax_controller_init</text>
<text text-anchor="middle" x="433.25" y="-117.85" font-family="Helvetica,sans-Serif" font-size="10.00">_start</text>
</a>
</g>
</g>
<!-- Node2&#45;&gt;Node3 -->
<g id="edge2_Node000002_Node000003" class="edge">
<title>Node2&#45;&gt;Node3</title>
<g id="a_edge2_Node000002_Node000003"><a xlink:title=" ">
<path fill="none" stroke="#63b8ff" d="M507.56,-113.68C499.5,-115.18 490.93,-116.78 482.6,-118.33"/>
<polygon fill="#63b8ff" stroke="#63b8ff" points="507.97,-116.98 517.16,-111.7 506.69,-110.1 507.97,-116.98"/>
</a>
</g>
</g>
<!-- Node4 -->
<g id="Node000004" class="node">
<title>Node4</title>
<g id="a_Node000004"><a xlink:href="a02174.html#gae1d371a2840849690acce147e7a205da" target="_top" xlink:title=" ">
<polygon fill="white" stroke="#666666" points="460,-94.6 406.5,-94.6 406.5,-76.1 460,-76.1 460,-94.6"/>
<text text-anchor="middle" x="433.25" y="-81.1" font-family="Helvetica,sans-Serif" font-size="10.00">arax_init</text>
</a>
</g>
</g>
<!-- Node2&#45;&gt;Node4 -->
<g id="edge3_Node000002_Node000004" class="edge">
<title>Node2&#45;&gt;Node4</title>
<g id="a_edge3_Node000002_Node000004"><a xlink:title=" ">
<path fill="none" stroke="#63b8ff" d="M507.67,-99.04C491.96,-96.11 474.28,-92.81 460.21,-90.19"/>
<polygon fill="#63b8ff" stroke="#63b8ff" points="506.69,-102.6 517.16,-101 507.97,-95.72 506.69,-102.6"/>
</a>
</g>
</g>
<!-- Node5 -->
<g id="Node000005" class="node">
<title>Node5</title>
<g id="a_Node000005"><a xlink:href="a01940.html#a8a99bcb12e2ee55d68a029bfca9b6d51" target="_top" xlink:title=" ">
<polygon fill="white" stroke="#666666" points="235.25,-123.85 141.25,-123.85 141.25,-94.85 235.25,-94.85 235.25,-123.85"/>
<text text-anchor="start" x="149.25" y="-110.35" font-family="Helvetica,sans-Serif" font-size="10.00">arax_plot_register</text>
<text text-anchor="middle" x="188.25" y="-99.85" font-family="Helvetica,sans-Serif" font-size="10.00">_metric</text>
</a>
</g>
</g>
<!-- Node4&#45;&gt;Node5 -->
<g id="edge4_Node000004_Node000005" class="edge">
<title>Node4&#45;&gt;Node5</title>
<g id="a_edge4_Node000004_Node000005"><a xlink:title=" ">
<path fill="none" stroke="#63b8ff" d="M395.47,-88.98C352.62,-93.21 281.79,-100.21 235.32,-104.8"/>
<polygon fill="#63b8ff" stroke="#63b8ff" points="395.64,-92.38 405.24,-87.92 394.95,-85.42 395.64,-92.38"/>
</a>
</g>
</g>
<!-- Node6 -->
<g id="Node000006" class="node">
<title>Node6</title>
<g id="a_Node000006"><a xlink:href="a01919.html#a80ab3bf4a8af9bb101b5a53248609771" target="_top" xlink:title=" ">
<polygon fill="white" stroke="#666666" points="348,-76.6 271.25,-76.6 271.25,-58.1 348,-58.1 348,-76.6"/>
<text text-anchor="middle" x="309.62" y="-63.1" font-family="Helvetica,sans-Serif" font-size="10.00">arax_ptr_valid</text>
</a>
</g>
</g>
<!-- Node4&#45;&gt;Node6 -->
<g id="edge5_Node000004_Node000006" class="edge">
<title>Node4&#45;&gt;Node6</title>
<g id="a_edge5_Node000004_Node000006"><a xlink:title=" ">
<path fill="none" stroke="#63b8ff" d="M395.71,-79.94C380.7,-77.72 363.33,-75.15 348.21,-72.91"/>
<polygon fill="#63b8ff" stroke="#63b8ff" points="394.75,-83.49 405.16,-81.49 395.78,-76.56 394.75,-83.49"/>
</a>
</g>
</g>
<!-- Node6&#45;&gt;Node5 -->
<g id="edge10_Node000006_Node000005" class="edge">
<title>Node6&#45;&gt;Node5</title>
<g id="a_edge10_Node000006_Node000005"><a xlink:title=" ">
<path fill="none" stroke="#63b8ff" d="M270.89,-80.63C258.45,-85 244.53,-89.9 231.76,-94.39"/>
<polygon fill="#63b8ff" stroke="#63b8ff" points="271.67,-83.71 279.94,-77.09 269.34,-77.11 271.67,-83.71"/>
</a>
</g>
</g>
<!-- Node7 -->
<g id="Node000007" class="node">
<title>Node7</title>
<g id="a_Node000007"><a xlink:href="a01937.html#a4ee1fea325d2edd421f59ab240dfbe54" target="_top" xlink:title=" ">
<polygon fill="white" stroke="#666666" points="234.12,-76.6 142.38,-76.6 142.38,-58.1 234.12,-58.1 234.12,-76.6"/>
<text text-anchor="middle" x="188.25" y="-63.1" font-family="Helvetica,sans-Serif" font-size="10.00">_arax_assert_obj</text>
</a>
</g>
</g>
<!-- Node6&#45;&gt;Node7 -->
<g id="edge6_Node000006_Node000007" class="edge">
<title>Node6&#45;&gt;Node7</title>
<g id="a_edge6_Node000006_Node000007"><a xlink:title=" ">
<path fill="none" stroke="#63b8ff" d="M259.94,-67.35C251.46,-67.35 242.67,-67.35 234.3,-67.35"/>
<polygon fill="#63b8ff" stroke="#63b8ff" points="259.85,-70.85 269.85,-67.35 259.85,-63.85 259.85,-70.85"/>
</a>
</g>
</g>
<!-- Node8 -->
<g id="Node000008" class="node">
<title>Node8</title>
<g id="a_Node000008"><a xlink:href="a01931.html#afeaab7d93372f0752d59c70d9c5940e7" target="_top" xlink:title=" ">
<polygon fill="white" stroke="#666666" points="226.25,-39.6 150.25,-39.6 150.25,-21.1 226.25,-21.1 226.25,-39.6"/>
<text text-anchor="middle" x="188.25" y="-26.1" font-family="Helvetica,sans-Serif" font-size="10.00">arax_data_ref</text>
</a>
</g>
</g>
<!-- Node6&#45;&gt;Node8 -->
<g id="edge7_Node000006_Node000008" class="edge">
<title>Node6&#45;&gt;Node8</title>
<g id="a_edge7_Node000006_Node000008"><a xlink:title=" ">
<path fill="none" stroke="#63b8ff" d="M267,-54.45C251.69,-49.7 234.63,-44.42 220.4,-40.01"/>
<polygon fill="#63b8ff" stroke="#63b8ff" points="265.67,-58.01 276.26,-57.63 267.75,-51.32 265.67,-58.01"/>
</a>
</g>
</g>
<!-- Node9 -->
<g id="Node000009" class="node">
<title>Node9</title>
<g id="a_Node000009"><a xlink:href="a01931.html#ac1f7fb20b3a23b388bea24f1b46a33a8" target="_top" xlink:title=" ">
<polygon fill="white" stroke="#666666" points="105.25,-20.6 0,-20.6 0,-2.1 105.25,-2.1 105.25,-20.6"/>
<text text-anchor="middle" x="52.62" y="-7.1" font-family="Helvetica,sans-Serif" font-size="10.00">arax_data_ref_offset</text>
</a>
</g>
</g>
<!-- Node6&#45;&gt;Node9 -->
<g id="edge9_Node000006_Node000009" class="edge">
<title>Node6&#45;&gt;Node9</title>
<g id="a_edge9_Node000006_Node000009"><a xlink:title=" ">
<path fill="none" stroke="#63b8ff" d="M292.22,-50.09C278.45,-36.93 257.49,-19.83 235.25,-12.35 193.26,1.77 142.65,0.69 105.53,-3.15"/>
<polygon fill="#63b8ff" stroke="#63b8ff" points="289.27,-52.08 298.82,-56.66 294.21,-47.12 289.27,-52.08"/>
</a>
</g>
</g>
<!-- Node8&#45;&gt;Node9 -->
<g id="edge8_Node000008_Node000009" class="edge">
<title>Node8&#45;&gt;Node9</title>
<g id="a_edge8_Node000008_Node000009"><a xlink:title=" ">
<path fill="none" stroke="#63b8ff" d="M139.37,-23.54C128.43,-21.99 116.74,-20.32 105.63,-18.74"/>
<polygon fill="#63b8ff" stroke="#63b8ff" points="138.63,-27.11 149.03,-25.06 139.62,-20.18 138.63,-27.11"/>
</a>
</g>
</g>
<!-- Node11 -->
<g id="Node000011" class="node">
<title>Node11</title>
<g id="a_Node000011"><a xlink:href="a01913.html#aa6293e9ec7776aa49ecf632fcc4f5e26" target="_top" xlink:title=" ">
<polygon fill="white" stroke="#666666" points="690,-97.6 613.25,-97.6 613.25,-79.1 690,-79.1 690,-97.6"/>
<text text-anchor="middle" x="651.62" y="-84.1" font-family="Helvetica,sans-Serif" font-size="10.00">arax_pipe_init</text>
</a>
</g>
</g>
<!-- Node10&#45;&gt;Node11 -->
<g id="edge12_Node000010_Node000011" class="edge">
<title>Node10&#45;&gt;Node11</title>
<g id="a_edge12_Node000010_Node000011"><a xlink:title=" ">
<path fill="none" stroke="#63b8ff" d="M714.65,-88.35C706.27,-88.35 697.95,-88.35 690.24,-88.35"/>
<polygon fill="#63b8ff" stroke="#63b8ff" points="714.65,-91.85 724.65,-88.35 714.65,-84.85 714.65,-91.85"/>
</a>
</g>
</g>
<!-- Node11&#45;&gt;Node2 -->
<g id="edge13_Node000011_Node000002" class="edge">
<title>Node11&#45;&gt;Node2</title>
<g id="a_edge13_Node000011_Node000002"><a xlink:title=" ">
<path fill="none" stroke="#63b8ff" d="M602.45,-96.87C594,-98.37 585.45,-99.88 577.73,-101.25"/>
<polygon fill="#63b8ff" stroke="#63b8ff" points="602.79,-100.19 612.03,-95 601.57,-93.3 602.79,-100.19"/>
</a>
</g>
</g>
</g>
</svg>
