<?xml version="1.0" encoding="UTF-8" standalone="no"?>
<!DOCTYPE svg PUBLIC "-//W3C//DTD SVG 1.1//EN"
 "http://www.w3.org/Graphics/SVG/1.1/DTD/svg11.dtd">
<!-- Generated by graphviz version 8.0.5 (0)
 -->
<!-- Title: ARAX_OBJ_DTOR_DECL Pages: 1 -->
<svg width="1031pt" height="128pt"
 viewBox="0.00 0.00 1030.50 128.25" xmlns="http://www.w3.org/2000/svg" xmlns:xlink="http://www.w3.org/1999/xlink">
<g id="graph0" class="graph" transform="scale(1 1) rotate(0) translate(4 124.25)">
<title>ARAX_OBJ_DTOR_DECL</title>
<!-- Node1 -->
<g id="Node000001" class="node">
<title>Node1</title>
<g id="a_Node000001"><a xlink:title=" ">
<polygon fill="#999999" stroke="#666666" points="132.25,-73.5 0,-73.5 0,-55 132.25,-55 132.25,-73.5"/>
<text text-anchor="middle" x="66.12" y="-60" font-family="Helvetica,sans-Serif" font-size="10.00">ARAX_OBJ_DTOR_DECL</text>
</a>
</g>
</g>
<!-- Node2 -->
<g id="Node000002" class="node">
<title>Node2</title>
<g id="a_Node000002"><a xlink:href="a02175.html#ga497b17905d4c7ee2f5ee831d367ece92" target="_top" xlink:title=" ">
<polygon fill="white" stroke="#666666" points="269,-73.5 168.25,-73.5 168.25,-55 269,-55 269,-73.5"/>
<text text-anchor="middle" x="218.62" y="-60" font-family="Helvetica,sans-Serif" font-size="10.00">arax_accel_release</text>
</a>
</g>
</g>
<!-- Node1&#45;&gt;Node2 -->
<g id="edge1_Node000001_Node000002" class="edge">
<title>Node1&#45;&gt;Node2</title>
<g id="a_edge1_Node000001_Node000002"><a xlink:title=" ">
<path fill="none" stroke="#63b8ff" d="M132.7,-64.25C140.87,-64.25 149.19,-64.25 157.28,-64.25"/>
<polygon fill="#63b8ff" stroke="#63b8ff" points="157.11,-67.75 167.11,-64.25 157.11,-60.75 157.11,-67.75"/>
</a>
</g>
</g>
<!-- Node6 -->
<g id="Node000006" class="node">
<title>Node6</title>
<g id="a_Node000006"><a xlink:href="a02352.html#aed6af4d83e934e3e654ead541b15f2d9" target="_top" xlink:title=" ">
<polygon fill="white" stroke="#666666" points="842.25,-111.5 733.25,-111.5 733.25,-93 842.25,-93 842.25,-111.5"/>
<text text-anchor="middle" x="787.75" y="-98" font-family="Helvetica,sans-Serif" font-size="10.00">async_condition_lock</text>
</a>
</g>
</g>
<!-- Node1&#45;&gt;Node6 -->
<g id="edge12_Node000001_Node000006" class="edge">
<title>Node1&#45;&gt;Node6</title>
<g id="a_edge12_Node000001_Node000006"><a xlink:title=" ">
<path fill="none" stroke="#63b8ff" d="M96.73,-73.88C148.67,-89.89 259.87,-120.25 356.25,-120.25 356.25,-120.25 356.25,-120.25 496.12,-120.25 574.05,-120.25 663.51,-113.72 722.36,-108.53"/>
<polygon fill="#63b8ff" stroke="#63b8ff" points="722.33,-111.96 731.98,-107.58 721.71,-104.98 722.33,-111.96"/>
</a>
</g>
</g>
<!-- Node10 -->
<g id="Node000010" class="node">
<title>Node10</title>
<g id="a_Node000010"><a xlink:href="a02352.html#a3bbcb7c4c024e99d5c4ba52b61dfbbf7" target="_top" xlink:title=" ">
<polygon fill="white" stroke="#666666" points="847.5,-18.5 728,-18.5 728,0 847.5,0 847.5,-18.5"/>
<text text-anchor="middle" x="787.75" y="-5" font-family="Helvetica,sans-Serif" font-size="10.00">async_condition_unlock</text>
</a>
</g>
</g>
<!-- Node1&#45;&gt;Node10 -->
<g id="edge13_Node000001_Node000010" class="edge">
<title>Node1&#45;&gt;Node10</title>
<g id="a_edge13_Node000001_Node000010"><a xlink:title=" ">
<path fill="none" stroke="#63b8ff" d="M97.57,-54.54C149.88,-38.75 260.45,-9.25 356.25,-9.25 356.25,-9.25 356.25,-9.25 496.12,-9.25 571.65,-9.25 658.21,-9.25 717.09,-9.25"/>
<polygon fill="#63b8ff" stroke="#63b8ff" points="716.75,-12.75 726.75,-9.25 716.75,-5.75 716.75,-12.75"/>
</a>
</g>
</g>
<!-- Node3 -->
<g id="Node000003" class="node">
<title>Node3</title>
<g id="a_Node000003"><a xlink:href="a01910.html#afe7e4a63c40fbcaae742b8de8693483f" target="_top" xlink:title=" ">
<polygon fill="white" stroke="#666666" points="409.5,-73.5 305,-73.5 305,-55 409.5,-55 409.5,-73.5"/>
<text text-anchor="middle" x="357.25" y="-60" font-family="Helvetica,sans-Serif" font-size="10.00">arax_object_ref_dec</text>
</a>
</g>
</g>
<!-- Node2&#45;&gt;Node3 -->
<g id="edge2_Node000002_Node000003" class="edge">
<title>Node2&#45;&gt;Node3</title>
<g id="a_edge2_Node000002_Node000003"><a xlink:title=" ">
<path fill="none" stroke="#63b8ff" d="M269.34,-64.25C277.2,-64.25 285.43,-64.25 293.55,-64.25"/>
<polygon fill="#63b8ff" stroke="#63b8ff" points="293.51,-67.75 303.51,-64.25 293.51,-60.75 293.51,-67.75"/>
</a>
</g>
</g>
<!-- Node4 -->
<g id="Node000004" class="node">
<title>Node4</title>
<g id="a_Node000004"><a xlink:href="a01913.html#a5144f906658718ef853a8d18dda1e724" target="_top" xlink:title=" ">
<polygon fill="white" stroke="#666666" points="544.75,-55.5 445.5,-55.5 445.5,-37 544.75,-37 544.75,-55.5"/>
<text text-anchor="middle" x="495.12" y="-42" font-family="Helvetica,sans-Serif" font-size="10.00">arax_pipe_size_inc</text>
</a>
</g>
</g>
<!-- Node3&#45;&gt;Node4 -->
<g id="edge3_Node000003_Node000004" class="edge">
<title>Node3&#45;&gt;Node4</title>
<g id="a_edge3_Node000003_Node000004"><a xlink:title=" ">
<path fill="none" stroke="#63b8ff" d="M409.62,-57.44C417.77,-56.37 426.26,-55.24 434.58,-54.14"/>
<polygon fill="#63b8ff" stroke="#63b8ff" points="434.92,-57.49 444.38,-52.71 434,-50.55 434.92,-57.49"/>
</a>
</g>
</g>
<!-- Node12 -->
<g id="Node000012" class="node">
<title>Node12</title>
<g id="a_Node000012"><a xlink:href="a01946.html#a0c85e5516222ab7e7fc354c614760ec5" target="_top" xlink:title=" ">
<polygon fill="white" stroke="#666666" points="530.12,-92.5 460.12,-92.5 460.12,-74 530.12,-74 530.12,-92.5"/>
<text text-anchor="middle" x="495.12" y="-79" font-family="Helvetica,sans-Serif" font-size="10.00">utils_list_del</text>
</a>
</g>
</g>
<!-- Node3&#45;&gt;Node12 -->
<g id="edge11_Node000003_Node000012" class="edge">
<title>Node3&#45;&gt;Node12</title>
<g id="a_edge11_Node000003_Node000012"><a xlink:title=" ">
<path fill="none" stroke="#63b8ff" d="M409.62,-71.43C422.64,-73.25 436.52,-75.2 449.2,-76.97"/>
<polygon fill="#63b8ff" stroke="#63b8ff" points="448.58,-80.56 458.97,-78.47 449.55,-73.62 448.58,-80.56"/>
</a>
</g>
</g>
<!-- Node5 -->
<g id="Node000005" class="node">
<title>Node5</title>
<g id="a_Node000005"><a xlink:href="a01925.html#a22aaf13eb56eb1832e725ef73236116f" target="_top" xlink:title=" ">
<polygon fill="white" stroke="#666666" points="692,-55.5 580.75,-55.5 580.75,-37 692,-37 692,-55.5"/>
<text text-anchor="middle" x="636.38" y="-42" font-family="Helvetica,sans-Serif" font-size="10.00">arax_throttle_size_inc</text>
</a>
</g>
</g>
<!-- Node4&#45;&gt;Node5 -->
<g id="edge4_Node000004_Node000005" class="edge">
<title>Node4&#45;&gt;Node5</title>
<g id="a_edge4_Node000004_Node000005"><a xlink:title=" ">
<path fill="none" stroke="#63b8ff" d="M545.22,-46.25C553.17,-46.25 561.51,-46.25 569.77,-46.25"/>
<polygon fill="#63b8ff" stroke="#63b8ff" points="569.56,-49.75 579.56,-46.25 569.56,-42.75 569.56,-49.75"/>
</a>
</g>
</g>
<!-- Node5&#45;&gt;Node6 -->
<g id="edge5_Node000005_Node000006" class="edge">
<title>Node5&#45;&gt;Node6</title>
<g id="a_edge5_Node000005_Node000006"><a xlink:title=" ">
<path fill="none" stroke="#63b8ff" d="M663.05,-55.88C687.21,-64.93 723.6,-78.58 750.67,-88.72"/>
<polygon fill="#63b8ff" stroke="#63b8ff" points="749.31,-92.33 759.91,-92.56 751.77,-85.77 749.31,-92.33"/>
</a>
</g>
</g>
<!-- Node8 -->
<g id="Node000008" class="node">
<title>Node8</title>
<g id="a_Node000008"><a xlink:href="a02352.html#a45a896fb606c2aa66a5a4c2af59ce494" target="_top" xlink:title=" ">
<polygon fill="white" stroke="#666666" points="845.25,-55.5 730.25,-55.5 730.25,-37 845.25,-37 845.25,-55.5"/>
<text text-anchor="middle" x="787.75" y="-42" font-family="Helvetica,sans-Serif" font-size="10.00">async_condition_notify</text>
</a>
</g>
</g>
<!-- Node5&#45;&gt;Node8 -->
<g id="edge7_Node000005_Node000008" class="edge">
<title>Node5&#45;&gt;Node8</title>
<g id="a_edge7_Node000005_Node000008"><a xlink:title=" ">
<path fill="none" stroke="#63b8ff" d="M692.15,-46.25C700.91,-46.25 710.06,-46.25 719.08,-46.25"/>
<polygon fill="#63b8ff" stroke="#63b8ff" points="718.98,-49.75 728.98,-46.25 718.98,-42.75 718.98,-49.75"/>
</a>
</g>
</g>
<!-- Node5&#45;&gt;Node10 -->
<g id="edge9_Node000005_Node000010" class="edge">
<title>Node5&#45;&gt;Node10</title>
<g id="a_edge9_Node000005_Node000010"><a xlink:title=" ">
<path fill="none" stroke="#63b8ff" d="M676.62,-36.53C695.07,-31.96 717.28,-26.46 736.91,-21.6"/>
<polygon fill="#63b8ff" stroke="#63b8ff" points="737.64,-24.77 746.51,-18.97 735.96,-17.98 737.64,-24.77"/>
</a>
</g>
</g>
<!-- Node7 -->
<g id="Node000007" class="node">
<title>Node7</title>
<g id="a_Node000007"><a xlink:href="a02346.html#aebf9e72bb6cbd8b9e33489d46c25075d" target="_top" xlink:title=" ">
<polygon fill="white" stroke="#666666" points="1011.25,-111.5 894.75,-111.5 894.75,-93 1011.25,-93 1011.25,-111.5"/>
<text text-anchor="middle" x="953" y="-98" font-family="Helvetica,sans-Serif" font-size="10.00">async_completion_wait</text>
</a>
</g>
</g>
<!-- Node6&#45;&gt;Node7 -->
<g id="edge6_Node000006_Node000007" class="edge">
<title>Node6&#45;&gt;Node7</title>
<g id="a_edge6_Node000006_Node000007"><a xlink:title=" ">
<path fill="none" stroke="#63b8ff" d="M842.66,-102.25C855.77,-102.25 869.98,-102.25 883.66,-102.25"/>
<polygon fill="#63b8ff" stroke="#63b8ff" points="883.5,-105.75 893.5,-102.25 883.5,-98.75 883.5,-105.75"/>
</a>
</g>
</g>
<!-- Node9 -->
<g id="Node000009" class="node">
<title>Node9</title>
<g id="a_Node000009"><a xlink:href="a02346.html#a0fa370eee5160963e617d1daf1c07363" target="_top" xlink:title=" ">
<polygon fill="white" stroke="#666666" points="1009.38,-55.5 896.62,-55.5 896.62,-37 1009.38,-37 1009.38,-55.5"/>
<text text-anchor="middle" x="953" y="-42" font-family="Helvetica,sans-Serif" font-size="10.00">async_semaphore_inc</text>
</a>
</g>
</g>
<!-- Node8&#45;&gt;Node9 -->
<g id="edge8_Node000008_Node000009" class="edge">
<title>Node8&#45;&gt;Node9</title>
<g id="a_edge8_Node000008_Node000009"><a xlink:title=" ">
<path fill="none" stroke="#63b8ff" d="M845.39,-46.25C858.27,-46.25 872.06,-46.25 885.32,-46.25"/>
<polygon fill="#63b8ff" stroke="#63b8ff" points="885.29,-49.75 895.29,-46.25 885.29,-42.75 885.29,-49.75"/>
</a>
</g>
</g>
<!-- Node11 -->
<g id="Node000011" class="node">
<title>Node11</title>
<g id="a_Node000011"><a xlink:href="a02346.html#ad1d30ecbf6bff6457b680aa940281072" target="_top" xlink:title=" ">
<polygon fill="white" stroke="#666666" points="1022.5,-18.5 883.5,-18.5 883.5,0 1022.5,0 1022.5,-18.5"/>
<text text-anchor="middle" x="953" y="-5" font-family="Helvetica,sans-Serif" font-size="10.00">async_completion_complete</text>
</a>
</g>
</g>
<!-- Node10&#45;&gt;Node11 -->
<g id="edge10_Node000010_Node000011" class="edge">
<title>Node10&#45;&gt;Node11</title>
<g id="a_edge10_Node000010_Node000011"><a xlink:title=" ">
<path fill="none" stroke="#63b8ff" d="M847.69,-9.25C855.69,-9.25 864.01,-9.25 872.3,-9.25"/>
<polygon fill="#63b8ff" stroke="#63b8ff" points="872.15,-12.75 882.15,-9.25 872.15,-5.75 872.15,-12.75"/>
</a>
</g>
</g>
</g>
</svg>
