<?xml version="1.0" encoding="UTF-8" standalone="no"?>
<!DOCTYPE svg PUBLIC "-//W3C//DTD SVG 1.1//EN"
 "http://www.w3.org/Graphics/SVG/1.1/DTD/svg11.dtd">
<!-- Generated by graphviz version 8.0.5 (0)
 -->
<!-- Title: arax_throttle_size_dec Pages: 1 -->
<svg width="453pt" height="101pt"
 viewBox="0.00 0.00 452.75 100.50" xmlns="http://www.w3.org/2000/svg" xmlns:xlink="http://www.w3.org/1999/xlink">
<g id="graph0" class="graph" transform="scale(1 1) rotate(0) translate(4 96.5)">
<title>arax_throttle_size_dec</title>
<!-- Node1 -->
<g id="Node000001" class="node">
<title>Node1</title>
<g id="a_Node000001"><a xlink:title=" ">
<polygon fill="#999999" stroke="#666666" points="114.25,-55.5 0,-55.5 0,-37 114.25,-37 114.25,-55.5"/>
<text text-anchor="middle" x="57.12" y="-42" font-family="Helvetica,sans-Serif" font-size="10.00">arax_throttle_size_dec</text>
</a>
</g>
</g>
<!-- Node2 -->
<g id="Node000002" class="node">
<title>Node2</title>
<g id="a_Node000002"><a xlink:href="a02352.html#aed6af4d83e934e3e654ead541b15f2d9" target="_top" xlink:title=" ">
<polygon fill="white" stroke="#666666" points="264.5,-92.5 155.5,-92.5 155.5,-74 264.5,-74 264.5,-92.5"/>
<text text-anchor="middle" x="210" y="-79" font-family="Helvetica,sans-Serif" font-size="10.00">async_condition_lock</text>
</a>
</g>
</g>
<!-- Node1&#45;&gt;Node2 -->
<g id="edge1_Node000001_Node000002" class="edge">
<title>Node1&#45;&gt;Node2</title>
<g id="a_edge1_Node000001_Node000002"><a xlink:title=" ">
<path fill="none" stroke="#63b8ff" d="M97.77,-55.97C116.49,-60.56 139.04,-66.09 158.93,-70.97"/>
<polygon fill="#63b8ff" stroke="#63b8ff" points="157.82,-74.55 168.36,-73.53 159.48,-67.75 157.82,-74.55"/>
</a>
</g>
</g>
<!-- Node4 -->
<g id="Node000004" class="node">
<title>Node4</title>
<g id="a_Node000004"><a xlink:href="a02352.html#a3bbcb7c4c024e99d5c4ba52b61dfbbf7" target="_top" xlink:title=" ">
<polygon fill="white" stroke="#666666" points="269.75,-18.5 150.25,-18.5 150.25,0 269.75,0 269.75,-18.5"/>
<text text-anchor="middle" x="210" y="-5" font-family="Helvetica,sans-Serif" font-size="10.00">async_condition_unlock</text>
</a>
</g>
</g>
<!-- Node1&#45;&gt;Node4 -->
<g id="edge3_Node000001_Node000004" class="edge">
<title>Node1&#45;&gt;Node4</title>
<g id="a_edge3_Node000001_Node000004"><a xlink:title=" ">
<path fill="none" stroke="#63b8ff" d="M97.77,-36.53C116.49,-31.94 139.04,-26.41 158.93,-21.53"/>
<polygon fill="#63b8ff" stroke="#63b8ff" points="159.48,-24.75 168.36,-18.97 157.82,-17.95 159.48,-24.75"/>
</a>
</g>
</g>
<!-- Node6 -->
<g id="Node000006" class="node">
<title>Node6</title>
<g id="a_Node000006"><a xlink:href="a02352.html#a1bfeaeb9b81855e640d7a67cc9d92b17" target="_top" xlink:title=" ">
<polygon fill="white" stroke="#666666" points="264.12,-55.5 155.88,-55.5 155.88,-37 264.12,-37 264.12,-55.5"/>
<text text-anchor="middle" x="210" y="-42" font-family="Helvetica,sans-Serif" font-size="10.00">async_condition_wait</text>
</a>
</g>
</g>
<!-- Node1&#45;&gt;Node6 -->
<g id="edge5_Node000001_Node000006" class="edge">
<title>Node1&#45;&gt;Node6</title>
<g id="a_edge5_Node000001_Node000006"><a xlink:title=" ">
<path fill="none" stroke="#63b8ff" d="M114.73,-46.25C124.56,-46.25 134.84,-46.25 144.85,-46.25"/>
<polygon fill="#63b8ff" stroke="#63b8ff" points="144.57,-49.75 154.57,-46.25 144.57,-42.75 144.57,-49.75"/>
</a>
</g>
</g>
<!-- Node3 -->
<g id="Node000003" class="node">
<title>Node3</title>
<g id="a_Node000003"><a xlink:href="a02346.html#aebf9e72bb6cbd8b9e33489d46c25075d" target="_top" xlink:title=" ">
<polygon fill="white" stroke="#666666" points="433.5,-92.5 317,-92.5 317,-74 433.5,-74 433.5,-92.5"/>
<text text-anchor="middle" x="375.25" y="-79" font-family="Helvetica,sans-Serif" font-size="10.00">async_completion_wait</text>
</a>
</g>
</g>
<!-- Node2&#45;&gt;Node3 -->
<g id="edge2_Node000002_Node000003" class="edge">
<title>Node2&#45;&gt;Node3</title>
<g id="a_edge2_Node000002_Node000003"><a xlink:title=" ">
<path fill="none" stroke="#63b8ff" d="M264.91,-83.25C278.02,-83.25 292.23,-83.25 305.91,-83.25"/>
<polygon fill="#63b8ff" stroke="#63b8ff" points="305.75,-86.75 315.75,-83.25 305.75,-79.75 305.75,-86.75"/>
</a>
</g>
</g>
<!-- Node5 -->
<g id="Node000005" class="node">
<title>Node5</title>
<g id="a_Node000005"><a xlink:href="a02346.html#ad1d30ecbf6bff6457b680aa940281072" target="_top" xlink:title=" ">
<polygon fill="white" stroke="#666666" points="444.75,-18.5 305.75,-18.5 305.75,0 444.75,0 444.75,-18.5"/>
<text text-anchor="middle" x="375.25" y="-5" font-family="Helvetica,sans-Serif" font-size="10.00">async_completion_complete</text>
</a>
</g>
</g>
<!-- Node4&#45;&gt;Node5 -->
<g id="edge4_Node000004_Node000005" class="edge">
<title>Node4&#45;&gt;Node5</title>
<g id="a_edge4_Node000004_Node000005"><a xlink:title=" ">
<path fill="none" stroke="#63b8ff" d="M269.94,-9.25C277.94,-9.25 286.26,-9.25 294.55,-9.25"/>
<polygon fill="#63b8ff" stroke="#63b8ff" points="294.4,-12.75 304.4,-9.25 294.4,-5.75 294.4,-12.75"/>
</a>
</g>
</g>
<!-- Node6&#45;&gt;Node3 -->
<g id="edge7_Node000006_Node000003" class="edge">
<title>Node6&#45;&gt;Node3</title>
<g id="a_edge7_Node000006_Node000003"><a xlink:title=" ">
<path fill="none" stroke="#63b8ff" d="M253.89,-55.97C274.34,-60.61 299.01,-66.2 320.67,-71.11"/>
<polygon fill="#63b8ff" stroke="#63b8ff" points="319.84,-74.73 330.36,-73.53 321.38,-67.91 319.84,-74.73"/>
</a>
</g>
</g>
<!-- Node6&#45;&gt;Node5 -->
<g id="edge6_Node000006_Node000005" class="edge">
<title>Node6&#45;&gt;Node5</title>
<g id="a_edge6_Node000006_Node000005"><a xlink:title=" ">
<path fill="none" stroke="#63b8ff" d="M253.89,-36.53C274.34,-31.89 299.01,-26.3 320.67,-21.39"/>
<polygon fill="#63b8ff" stroke="#63b8ff" points="321.38,-24.59 330.36,-18.97 319.84,-17.77 321.38,-24.59"/>
</a>
</g>
</g>
<!-- Node7 -->
<g id="Node000007" class="node">
<title>Node7</title>
<g id="a_Node000007"><a xlink:href="a02346.html#a7ab7c7fe9cb93434dde72a4e464a7e69" target="_top" xlink:title=" ">
<polygon fill="white" stroke="#666666" points="433.12,-55.5 317.38,-55.5 317.38,-37 433.12,-37 433.12,-55.5"/>
<text text-anchor="middle" x="375.25" y="-42" font-family="Helvetica,sans-Serif" font-size="10.00">async_semaphore_dec</text>
</a>
</g>
</g>
<!-- Node6&#45;&gt;Node7 -->
<g id="edge8_Node000006_Node000007" class="edge">
<title>Node6&#45;&gt;Node7</title>
<g id="a_edge8_Node000006_Node000007"><a xlink:title=" ">
<path fill="none" stroke="#63b8ff" d="M264.45,-46.25C277.73,-46.25 292.15,-46.25 306.03,-46.25"/>
<polygon fill="#63b8ff" stroke="#63b8ff" points="306.02,-49.75 316.02,-46.25 306.02,-42.75 306.02,-49.75"/>
</a>
</g>
</g>
</g>
</svg>
