<?xml version="1.0" encoding="UTF-8" standalone="no"?>
<!DOCTYPE svg PUBLIC "-//W3C//DTD SVG 1.1//EN"
 "http://www.w3.org/Graphics/SVG/1.1/DTD/svg11.dtd">
<!-- Generated by graphviz version 12.2.1 (0)
 -->
<!-- Title: arax_pipe_get_orphan_vaccel Pages: 1 -->
<svg width="451pt" height="185pt"
 viewBox="0.00 0.00 451.25 184.75" xmlns="http://www.w3.org/2000/svg" xmlns:xlink="http://www.w3.org/1999/xlink">
<g id="graph0" class="graph" transform="scale(1 1) rotate(0) translate(4 180.75)">
<title>arax_pipe_get_orphan_vaccel</title>
<!-- Node1 -->
<g id="Node000001" class="node">
<title>Node1</title>
<g id="a_Node000001"><a xlink:title=" ">
<polygon fill="#999999" stroke="#666666" points="112.75,-97.75 0,-97.75 0,-68.75 112.75,-68.75 112.75,-97.75"/>
<text text-anchor="start" x="8" y="-84.25" font-family="Helvetica,sans-Serif" font-size="10.00">arax_pipe_get_orphan</text>
<text text-anchor="middle" x="56.38" y="-73.75" font-family="Helvetica,sans-Serif" font-size="10.00">_vaccel</text>
</a>
</g>
</g>
<!-- Node2 -->
<g id="Node000002" class="node">
<title>Node2</title>
<g id="a_Node000002"><a xlink:href="a01928.html#a186712b2a923d4bda1be98de189bc0f9" target="_top" xlink:title=" ">
<polygon fill="white" stroke="#666666" points="268.25,-176.75 148.75,-176.75 148.75,-147.75 268.25,-147.75 268.25,-176.75"/>
<text text-anchor="start" x="156.75" y="-163.25" font-family="Helvetica,sans-Serif" font-size="10.00">arax_pipe_have_orphan</text>
<text text-anchor="middle" x="208.5" y="-152.75" font-family="Helvetica,sans-Serif" font-size="10.00">_vaccels</text>
</a>
</g>
</g>
<!-- Node1&#45;&gt;Node2 -->
<g id="edge1_Node000001_Node000002" class="edge">
<title>Node1&#45;&gt;Node2</title>
<g id="a_edge1_Node000001_Node000002"><a xlink:title=" ">
<path fill="none" stroke="#63b8ff" d="M79.73,-98.04C97.9,-109.73 124.42,-126.05 148.75,-138.25 151.8,-139.78 154.98,-141.29 158.2,-142.77"/>
<polygon fill="#63b8ff" stroke="#63b8ff" points="156.62,-145.9 167.18,-146.72 159.44,-139.49 156.62,-145.9"/>
</a>
</g>
</g>
<!-- Node3 -->
<g id="Node000003" class="node">
<title>Node3</title>
<g id="a_Node000003"><a xlink:href="a02364.html#aed6af4d83e934e3e654ead541b15f2d9" target="_top" xlink:title=" ">
<polygon fill="white" stroke="#666666" points="263,-129.5 154,-129.5 154,-111 263,-111 263,-129.5"/>
<text text-anchor="middle" x="208.5" y="-116" font-family="Helvetica,sans-Serif" font-size="10.00">async_condition_lock</text>
</a>
</g>
</g>
<!-- Node1&#45;&gt;Node3 -->
<g id="edge2_Node000001_Node000003" class="edge">
<title>Node1&#45;&gt;Node3</title>
<g id="a_edge2_Node000001_Node000003"><a xlink:title=" ">
<path fill="none" stroke="#63b8ff" d="M112.85,-96.92C127.35,-100.5 142.9,-104.33 157.12,-107.83"/>
<polygon fill="#63b8ff" stroke="#63b8ff" points="156.17,-111.2 166.72,-110.2 157.85,-104.41 156.17,-111.2"/>
</a>
</g>
</g>
<!-- Node5 -->
<g id="Node000005" class="node">
<title>Node5</title>
<g id="a_Node000005"><a xlink:href="a02364.html#a3bbcb7c4c024e99d5c4ba52b61dfbbf7" target="_top" xlink:title=" ">
<polygon fill="white" stroke="#666666" points="268.25,-55.5 148.75,-55.5 148.75,-37 268.25,-37 268.25,-55.5"/>
<text text-anchor="middle" x="208.5" y="-42" font-family="Helvetica,sans-Serif" font-size="10.00">async_condition_unlock</text>
</a>
</g>
</g>
<!-- Node1&#45;&gt;Node5 -->
<g id="edge4_Node000001_Node000005" class="edge">
<title>Node1&#45;&gt;Node5</title>
<g id="a_edge4_Node000001_Node000005"><a xlink:title=" ">
<path fill="none" stroke="#63b8ff" d="M112.85,-69.58C127.35,-66 142.9,-62.17 157.12,-58.67"/>
<polygon fill="#63b8ff" stroke="#63b8ff" points="157.85,-62.09 166.72,-56.3 156.17,-55.3 157.85,-62.09"/>
</a>
</g>
</g>
<!-- Node7 -->
<g id="Node000007" class="node">
<title>Node7</title>
<g id="a_Node000007"><a xlink:href="a02364.html#a1bfeaeb9b81855e640d7a67cc9d92b17" target="_top" xlink:title=" ">
<polygon fill="white" stroke="#666666" points="262.62,-92.5 154.38,-92.5 154.38,-74 262.62,-74 262.62,-92.5"/>
<text text-anchor="middle" x="208.5" y="-79" font-family="Helvetica,sans-Serif" font-size="10.00">async_condition_wait</text>
</a>
</g>
</g>
<!-- Node1&#45;&gt;Node7 -->
<g id="edge6_Node000001_Node000007" class="edge">
<title>Node1&#45;&gt;Node7</title>
<g id="a_edge6_Node000001_Node000007"><a xlink:title=" ">
<path fill="none" stroke="#63b8ff" d="M112.85,-83.25C122.68,-83.25 132.99,-83.25 143.05,-83.25"/>
<polygon fill="#63b8ff" stroke="#63b8ff" points="142.74,-86.75 152.74,-83.25 142.74,-79.75 142.74,-86.75"/>
</a>
</g>
</g>
<!-- Node9 -->
<g id="Node000009" class="node">
<title>Node9</title>
<g id="a_Node000009"><a xlink:href="a01955.html#a4cace11e17315f11b44dd9e3eabbf72a" target="_top" xlink:title=" ">
<polygon fill="white" stroke="#666666" points="258.12,-18.5 158.88,-18.5 158.88,0 258.12,0 258.12,-18.5"/>
<text text-anchor="middle" x="208.5" y="-5" font-family="Helvetica,sans-Serif" font-size="10.00">utils_list_pop_head</text>
</a>
</g>
</g>
<!-- Node1&#45;&gt;Node9 -->
<g id="edge10_Node000001_Node000009" class="edge">
<title>Node1&#45;&gt;Node9</title>
<g id="a_edge10_Node000001_Node000009"><a xlink:title=" ">
<path fill="none" stroke="#63b8ff" d="M78.76,-68.45C96.81,-56.44 123.64,-39.68 148.75,-28.25 153.09,-26.28 157.69,-24.41 162.33,-22.69"/>
<polygon fill="#63b8ff" stroke="#63b8ff" points="163.42,-26.01 171.71,-19.41 161.11,-19.4 163.42,-26.01"/>
</a>
</g>
</g>
<!-- Node4 -->
<g id="Node000004" class="node">
<title>Node4</title>
<g id="a_Node000004"><a xlink:href="a02358.html#aebf9e72bb6cbd8b9e33489d46c25075d" target="_top" xlink:title=" ">
<polygon fill="white" stroke="#666666" points="432,-129.5 315.5,-129.5 315.5,-111 432,-111 432,-129.5"/>
<text text-anchor="middle" x="373.75" y="-116" font-family="Helvetica,sans-Serif" font-size="10.00">async_completion_wait</text>
</a>
</g>
</g>
<!-- Node3&#45;&gt;Node4 -->
<g id="edge3_Node000003_Node000004" class="edge">
<title>Node3&#45;&gt;Node4</title>
<g id="a_edge3_Node000003_Node000004"><a xlink:title=" ">
<path fill="none" stroke="#63b8ff" d="M263.41,-120.25C276.39,-120.25 290.44,-120.25 304.01,-120.25"/>
<polygon fill="#63b8ff" stroke="#63b8ff" points="303.74,-123.75 313.74,-120.25 303.74,-116.75 303.74,-123.75"/>
</a>
</g>
</g>
<!-- Node6 -->
<g id="Node000006" class="node">
<title>Node6</title>
<g id="a_Node000006"><a xlink:href="a02358.html#ad1d30ecbf6bff6457b680aa940281072" target="_top" xlink:title=" ">
<polygon fill="white" stroke="#666666" points="443.25,-55.5 304.25,-55.5 304.25,-37 443.25,-37 443.25,-55.5"/>
<text text-anchor="middle" x="373.75" y="-42" font-family="Helvetica,sans-Serif" font-size="10.00">async_completion_complete</text>
</a>
</g>
</g>
<!-- Node5&#45;&gt;Node6 -->
<g id="edge5_Node000005_Node000006" class="edge">
<title>Node5&#45;&gt;Node6</title>
<g id="a_edge5_Node000005_Node000006"><a xlink:title=" ">
<path fill="none" stroke="#63b8ff" d="M268.44,-46.25C276.26,-46.25 284.38,-46.25 292.49,-46.25"/>
<polygon fill="#63b8ff" stroke="#63b8ff" points="292.39,-49.75 302.39,-46.25 292.39,-42.75 292.39,-49.75"/>
</a>
</g>
</g>
<!-- Node7&#45;&gt;Node4 -->
<g id="edge8_Node000007_Node000004" class="edge">
<title>Node7&#45;&gt;Node4</title>
<g id="a_edge8_Node000007_Node000004"><a xlink:title=" ">
<path fill="none" stroke="#63b8ff" d="M252.39,-92.97C272.74,-97.58 297.28,-103.15 318.87,-108.04"/>
<polygon fill="#63b8ff" stroke="#63b8ff" points="317.86,-111.4 328.39,-110.19 319.41,-104.57 317.86,-111.4"/>
</a>
</g>
</g>
<!-- Node7&#45;&gt;Node6 -->
<g id="edge7_Node000007_Node000006" class="edge">
<title>Node7&#45;&gt;Node6</title>
<g id="a_edge7_Node000007_Node000006"><a xlink:title=" ">
<path fill="none" stroke="#63b8ff" d="M252.39,-73.53C272.74,-68.92 297.28,-63.35 318.87,-58.46"/>
<polygon fill="#63b8ff" stroke="#63b8ff" points="319.41,-61.93 328.39,-56.31 317.86,-55.1 319.41,-61.93"/>
</a>
</g>
</g>
<!-- Node8 -->
<g id="Node000008" class="node">
<title>Node8</title>
<g id="a_Node000008"><a xlink:href="a02358.html#a7ab7c7fe9cb93434dde72a4e464a7e69" target="_top" xlink:title=" ">
<polygon fill="white" stroke="#666666" points="431.62,-92.5 315.88,-92.5 315.88,-74 431.62,-74 431.62,-92.5"/>
<text text-anchor="middle" x="373.75" y="-79" font-family="Helvetica,sans-Serif" font-size="10.00">async_semaphore_dec</text>
</a>
</g>
</g>
<!-- Node7&#45;&gt;Node8 -->
<g id="edge9_Node000007_Node000008" class="edge">
<title>Node7&#45;&gt;Node8</title>
<g id="a_edge9_Node000007_Node000008"><a xlink:title=" ">
<path fill="none" stroke="#63b8ff" d="M262.95,-83.25C276.1,-83.25 290.36,-83.25 304.12,-83.25"/>
<polygon fill="#63b8ff" stroke="#63b8ff" points="304.01,-86.75 314.01,-83.25 304.01,-79.75 304.01,-86.75"/>
</a>
</g>
</g>
<!-- Node10 -->
<g id="Node000010" class="node">
<title>Node10</title>
<g id="a_Node000010"><a xlink:href="a01955.html#a0c85e5516222ab7e7fc354c614760ec5" target="_top" xlink:title=" ">
<polygon fill="white" stroke="#666666" points="408.75,-18.5 338.75,-18.5 338.75,0 408.75,0 408.75,-18.5"/>
<text text-anchor="middle" x="373.75" y="-5" font-family="Helvetica,sans-Serif" font-size="10.00">utils_list_del</text>
</a>
</g>
</g>
<!-- Node9&#45;&gt;Node10 -->
<g id="edge11_Node000009_Node000010" class="edge">
<title>Node9&#45;&gt;Node10</title>
<g id="a_edge11_Node000009_Node000010"><a xlink:title=" ">
<path fill="none" stroke="#63b8ff" d="M258.48,-9.25C280.19,-9.25 305.6,-9.25 326.93,-9.25"/>
<polygon fill="#63b8ff" stroke="#63b8ff" points="326.8,-12.75 336.8,-9.25 326.8,-5.75 326.8,-12.75"/>
</a>
</g>
</g>
</g>
</svg>
