<?xml version="1.0" encoding="UTF-8" standalone="no"?>
<!DOCTYPE svg PUBLIC "-//W3C//DTD SVG 1.1//EN"
 "http://www.w3.org/Graphics/SVG/1.1/DTD/svg11.dtd">
<!-- Generated by graphviz version 12.2.1 (0)
 -->
<!-- Title: config.c Pages: 1 -->
<svg width="765pt" height="136pt"
 viewBox="0.00 0.00 765.38 135.50" xmlns="http://www.w3.org/2000/svg" xmlns:xlink="http://www.w3.org/1999/xlink">
<g id="graph0" class="graph" transform="scale(1 1) rotate(0) translate(4 131.5)">
<title>config.c</title>
<!-- Node1 -->
<g id="Node000001" class="node">
<title>Node1</title>
<g id="a_Node000001"><a xlink:title=" ">
<polygon fill="#999999" stroke="#666666" points="386.5,-127.5 336,-127.5 336,-109 386.5,-109 386.5,-127.5"/>
<text text-anchor="middle" x="361.25" y="-114" font-family="Helvetica,sans-Serif" font-size="10.00">config.c</text>
</a>
</g>
</g>
<!-- Node2 -->
<g id="Node000002" class="node">
<title>Node2</title>
<g id="a_Node000002"><a xlink:href="a01385.html" target="_top" xlink:title=" ">
<polygon fill="white" stroke="#666666" points="50.5,-73 0,-73 0,-54.5 50.5,-54.5 50.5,-73"/>
<text text-anchor="middle" x="25.25" y="-59.5" font-family="Helvetica,sans-Serif" font-size="10.00">config.h</text>
</a>
</g>
</g>
<!-- Node1&#45;&gt;Node2 -->
<g id="edge1_Node000001_Node000002" class="edge">
<title>Node1&#45;&gt;Node2</title>
<g id="a_edge1_Node000001_Node000002"><a xlink:title=" ">
<path fill="none" stroke="#63b8ff" d="M335.66,-114.31C285.18,-108.34 169,-93.76 61.82,-73.35"/>
<polygon fill="#63b8ff" stroke="#63b8ff" points="62.78,-69.97 52.3,-71.51 61.46,-76.84 62.78,-69.97"/>
</a>
</g>
</g>
<!-- Node4 -->
<g id="Node000004" class="node">
<title>Node4</title>
<g id="a_Node000004"><a xlink:href="a01397.html" target="_top" xlink:title=" ">
<polygon fill="white" stroke="#666666" points="123.75,-73 68.75,-73 68.75,-54.5 123.75,-54.5 123.75,-73"/>
<text text-anchor="middle" x="96.25" y="-59.5" font-family="Helvetica,sans-Serif" font-size="10.00">system.h</text>
</a>
</g>
</g>
<!-- Node1&#45;&gt;Node4 -->
<g id="edge3_Node000001_Node000004" class="edge">
<title>Node1&#45;&gt;Node4</title>
<g id="a_edge3_Node000001_Node000004"><a xlink:title=" ">
<path fill="none" stroke="#63b8ff" d="M335.78,-112.62C295.34,-105.22 213.71,-90.01 135.19,-73.57"/>
<polygon fill="#63b8ff" stroke="#63b8ff" points="136.12,-70.19 125.62,-71.55 134.68,-77.04 136.12,-70.19"/>
</a>
</g>
</g>
<!-- Node6 -->
<g id="Node000006" class="node">
<title>Node6</title>
<g id="a_Node000006"><a xlink:title=" ">
<polygon fill="#e0e0e0" stroke="#999999" points="186.88,-73 141.62,-73 141.62,-54.5 186.88,-54.5 186.88,-73"/>
<text text-anchor="middle" x="164.25" y="-59.5" font-family="Helvetica,sans-Serif" font-size="10.00">stdio.h</text>
</a>
</g>
</g>
<!-- Node1&#45;&gt;Node6 -->
<g id="edge6_Node000001_Node000006" class="edge">
<title>Node1&#45;&gt;Node6</title>
<g id="a_edge6_Node000001_Node000006"><a xlink:title=" ">
<path fill="none" stroke="#63b8ff" d="M335.9,-110.49C300.88,-101.16 237.62,-84.3 198.45,-73.86"/>
<polygon fill="#63b8ff" stroke="#63b8ff" points="199.39,-70.49 188.82,-71.3 197.59,-77.26 199.39,-70.49"/>
</a>
</g>
</g>
<!-- Node7 -->
<g id="Node000007" class="node">
<title>Node7</title>
<g id="a_Node000007"><a xlink:title=" ">
<polygon fill="#e0e0e0" stroke="#999999" points="252,-73 204.5,-73 204.5,-54.5 252,-54.5 252,-73"/>
<text text-anchor="middle" x="228.25" y="-59.5" font-family="Helvetica,sans-Serif" font-size="10.00">stdlib.h</text>
</a>
</g>
</g>
<!-- Node1&#45;&gt;Node7 -->
<g id="edge7_Node000001_Node000007" class="edge">
<title>Node1&#45;&gt;Node7</title>
<g id="a_edge7_Node000001_Node000007"><a xlink:title=" ">
<path fill="none" stroke="#63b8ff" d="M339.29,-108.58C317.92,-100.15 285.19,-87.23 260.8,-77.6"/>
<polygon fill="#63b8ff" stroke="#63b8ff" points="262.24,-74.4 251.65,-73.99 259.67,-80.92 262.24,-74.4"/>
</a>
</g>
</g>
<!-- Node8 -->
<g id="Node000008" class="node">
<title>Node8</title>
<g id="a_Node000008"><a xlink:title=" ">
<polygon fill="#e0e0e0" stroke="#999999" points="318.38,-73 270.12,-73 270.12,-54.5 318.38,-54.5 318.38,-73"/>
<text text-anchor="middle" x="294.25" y="-59.5" font-family="Helvetica,sans-Serif" font-size="10.00">string.h</text>
</a>
</g>
</g>
<!-- Node1&#45;&gt;Node8 -->
<g id="edge8_Node000001_Node000008" class="edge">
<title>Node1&#45;&gt;Node8</title>
<g id="a_edge8_Node000001_Node000008"><a xlink:title=" ">
<path fill="none" stroke="#63b8ff" d="M350.19,-108.58C340.33,-100.86 325.68,-89.38 313.85,-80.11"/>
<polygon fill="#63b8ff" stroke="#63b8ff" points="316.33,-77.6 306.3,-74.19 312.01,-83.11 316.33,-77.6"/>
</a>
</g>
</g>
<!-- Node9 -->
<g id="Node000009" class="node">
<title>Node9</title>
<g id="a_Node000009"><a xlink:title=" ">
<polygon fill="#e0e0e0" stroke="#999999" points="386.5,-73 336,-73 336,-54.5 386.5,-54.5 386.5,-73"/>
<text text-anchor="middle" x="361.25" y="-59.5" font-family="Helvetica,sans-Serif" font-size="10.00">unistd.h</text>
</a>
</g>
</g>
<!-- Node1&#45;&gt;Node9 -->
<g id="edge9_Node000001_Node000009" class="edge">
<title>Node1&#45;&gt;Node9</title>
<g id="a_edge9_Node000001_Node000009"><a xlink:title=" ">
<path fill="none" stroke="#63b8ff" d="M361.25,-108.58C361.25,-102.08 361.25,-92.92 361.25,-84.66"/>
<polygon fill="#63b8ff" stroke="#63b8ff" points="364.75,-84.77 361.25,-74.77 357.75,-84.77 364.75,-84.77"/>
</a>
</g>
</g>
<!-- Node10 -->
<g id="Node000010" class="node">
<title>Node10</title>
<g id="a_Node000010"><a xlink:title=" ">
<polygon fill="#e0e0e0" stroke="#999999" points="450.25,-73 404.25,-73 404.25,-54.5 450.25,-54.5 450.25,-73"/>
<text text-anchor="middle" x="427.25" y="-59.5" font-family="Helvetica,sans-Serif" font-size="10.00">errno.h</text>
</a>
</g>
</g>
<!-- Node1&#45;&gt;Node10 -->
<g id="edge10_Node000001_Node000010" class="edge">
<title>Node1&#45;&gt;Node10</title>
<g id="a_edge10_Node000001_Node000010"><a xlink:title=" ">
<path fill="none" stroke="#63b8ff" d="M372.15,-108.58C381.76,-100.94 396,-89.61 407.6,-80.38"/>
<polygon fill="#63b8ff" stroke="#63b8ff" points="409.72,-83.16 415.37,-74.2 405.36,-77.69 409.72,-83.16"/>
</a>
</g>
</g>
<!-- Node11 -->
<g id="Node000011" class="node">
<title>Node11</title>
<g id="a_Node000011"><a xlink:title=" ">
<polygon fill="#e0e0e0" stroke="#999999" points="516,-73 468.5,-73 468.5,-54.5 516,-54.5 516,-73"/>
<text text-anchor="middle" x="492.25" y="-59.5" font-family="Helvetica,sans-Serif" font-size="10.00">limits.h</text>
</a>
</g>
</g>
<!-- Node1&#45;&gt;Node11 -->
<g id="edge11_Node000001_Node000011" class="edge">
<title>Node1&#45;&gt;Node11</title>
<g id="a_edge11_Node000001_Node000011"><a xlink:title=" ">
<path fill="none" stroke="#63b8ff" d="M382.88,-108.58C403.93,-100.15 436.16,-87.23 460.19,-77.6"/>
<polygon fill="#63b8ff" stroke="#63b8ff" points="461.2,-80.96 469.18,-74 458.6,-74.47 461.2,-80.96"/>
</a>
</g>
</g>
<!-- Node12 -->
<g id="Node000012" class="node">
<title>Node12</title>
<g id="a_Node000012"><a xlink:title=" ">
<polygon fill="#e0e0e0" stroke="#999999" points="582,-73 534.5,-73 534.5,-54.5 582,-54.5 582,-73"/>
<text text-anchor="middle" x="558.25" y="-59.5" font-family="Helvetica,sans-Serif" font-size="10.00">stdint.h</text>
</a>
</g>
</g>
<!-- Node1&#45;&gt;Node12 -->
<g id="edge12_Node000001_Node000012" class="edge">
<title>Node1&#45;&gt;Node12</title>
<g id="a_edge12_Node000001_Node000012"><a xlink:title=" ">
<path fill="none" stroke="#63b8ff" d="M386.6,-110.49C421.41,-101.22 484.13,-84.5 523.35,-74.05"/>
<polygon fill="#63b8ff" stroke="#63b8ff" points="524.01,-77.5 532.77,-71.54 522.2,-70.73 524.01,-77.5"/>
</a>
</g>
</g>
<!-- Node13 -->
<g id="Node000013" class="node">
<title>Node13</title>
<g id="a_Node000013"><a xlink:href="a01373.html" target="_top" xlink:title=" ">
<polygon fill="white" stroke="#666666" points="696.75,-73 599.75,-73 599.75,-54.5 696.75,-54.5 696.75,-73"/>
<text text-anchor="middle" x="648.25" y="-59.5" font-family="Helvetica,sans-Serif" font-size="10.00">utils/arax_assert.h</text>
</a>
</g>
</g>
<!-- Node1&#45;&gt;Node13 -->
<g id="edge13_Node000001_Node000013" class="edge">
<title>Node1&#45;&gt;Node13</title>
<g id="a_edge13_Node000001_Node000013"><a xlink:title=" ">
<path fill="none" stroke="#63b8ff" d="M386.97,-112.54C432.24,-104.26 527.23,-86.89 589.34,-75.53"/>
<polygon fill="#63b8ff" stroke="#63b8ff" points="589.84,-78.99 599.04,-73.75 588.58,-72.11 589.84,-78.99"/>
</a>
</g>
</g>
<!-- Node15 -->
<g id="Node000015" class="node">
<title>Node15</title>
<g id="a_Node000015"><a xlink:title=" ">
<polygon fill="#e0e0e0" stroke="#999999" points="757.38,-73 715.12,-73 715.12,-54.5 757.38,-54.5 757.38,-73"/>
<text text-anchor="middle" x="736.25" y="-59.5" font-family="Helvetica,sans-Serif" font-size="10.00">pwd.h</text>
</a>
</g>
</g>
<!-- Node1&#45;&gt;Node15 -->
<g id="edge15_Node000001_Node000015" class="edge">
<title>Node1&#45;&gt;Node15</title>
<g id="a_edge15_Node000001_Node000015"><a xlink:title=" ">
<path fill="none" stroke="#63b8ff" d="M386.99,-115.2C442.9,-110.47 579.8,-97.49 703.54,-73.29"/>
<polygon fill="#63b8ff" stroke="#63b8ff" points="704.1,-76.74 713.22,-71.36 702.73,-69.88 704.1,-76.74"/>
</a>
</g>
</g>
<!-- Node3 -->
<g id="Node000003" class="node">
<title>Node3</title>
<g id="a_Node000003"><a xlink:title=" ">
<polygon fill="#e0e0e0" stroke="#999999" points="50.5,-18.5 0,-18.5 0,0 50.5,0 50.5,-18.5"/>
<text text-anchor="middle" x="25.25" y="-5" font-family="Helvetica,sans-Serif" font-size="10.00">stddef.h</text>
</a>
</g>
</g>
<!-- Node2&#45;&gt;Node3 -->
<g id="edge2_Node000002_Node000003" class="edge">
<title>Node2&#45;&gt;Node3</title>
<g id="a_edge2_Node000002_Node000003"><a xlink:title=" ">
<path fill="none" stroke="#63b8ff" d="M25.25,-54.08C25.25,-47.58 25.25,-38.42 25.25,-30.16"/>
<polygon fill="#63b8ff" stroke="#63b8ff" points="28.75,-30.27 25.25,-20.27 21.75,-30.27 28.75,-30.27"/>
</a>
</g>
</g>
<!-- Node4&#45;&gt;Node3 -->
<g id="edge4_Node000004_Node000003" class="edge">
<title>Node4&#45;&gt;Node3</title>
<g id="a_edge4_Node000004_Node000003"><a xlink:title=" ">
<path fill="none" stroke="#63b8ff" d="M84.53,-54.08C73.98,-46.28 58.25,-34.65 45.65,-25.33"/>
<polygon fill="#63b8ff" stroke="#63b8ff" points="48.09,-22.79 37.97,-19.66 43.93,-28.42 48.09,-22.79"/>
</a>
</g>
</g>
<!-- Node5 -->
<g id="Node000005" class="node">
<title>Node5</title>
<g id="a_Node000005"><a xlink:title=" ">
<polygon fill="#e0e0e0" stroke="#999999" points="134,-18.5 68.5,-18.5 68.5,0 134,0 134,-18.5"/>
<text text-anchor="middle" x="101.25" y="-5" font-family="Helvetica,sans-Serif" font-size="10.00">sys/types.h</text>
</a>
</g>
</g>
<!-- Node4&#45;&gt;Node5 -->
<g id="edge5_Node000004_Node000005" class="edge">
<title>Node4&#45;&gt;Node5</title>
<g id="a_edge5_Node000004_Node000005"><a xlink:title=" ">
<path fill="none" stroke="#63b8ff" d="M97.08,-54.08C97.69,-47.58 98.57,-38.42 99.35,-30.16"/>
<polygon fill="#63b8ff" stroke="#63b8ff" points="102.83,-30.55 100.3,-20.26 95.86,-29.89 102.83,-30.55"/>
</a>
</g>
</g>
<!-- Node14 -->
<g id="Node000014" class="node">
<title>Node14</title>
<g id="a_Node000014"><a xlink:href="a01382.html" target="_top" xlink:title=" ">
<polygon fill="white" stroke="#666666" points="676.12,-18.5 620.38,-18.5 620.38,0 676.12,0 676.12,-18.5"/>
<text text-anchor="middle" x="648.25" y="-5" font-family="Helvetica,sans-Serif" font-size="10.00">compat.h</text>
</a>
</g>
</g>
<!-- Node13&#45;&gt;Node14 -->
<g id="edge14_Node000013_Node000014" class="edge">
<title>Node13&#45;&gt;Node14</title>
<g id="a_edge14_Node000013_Node000014"><a xlink:title=" ">
<path fill="none" stroke="#63b8ff" d="M648.25,-54.08C648.25,-47.58 648.25,-38.42 648.25,-30.16"/>
<polygon fill="#63b8ff" stroke="#63b8ff" points="651.75,-30.27 648.25,-20.27 644.75,-30.27 651.75,-30.27"/>
</a>
</g>
</g>
</g>
</svg>
