<?xml version="1.0" encoding="UTF-8" standalone="no"?>
<!DOCTYPE svg PUBLIC "-//W3C//DTD SVG 1.1//EN"
 "http://www.w3.org/Graphics/SVG/1.1/DTD/svg11.dtd">
<!-- Generated by graphviz version 8.0.5 (0)
 -->
<!-- Title: queue.c Pages: 1 -->
<svg width="481pt" height="245pt"
 viewBox="0.00 0.00 481.01 244.50" xmlns="http://www.w3.org/2000/svg" xmlns:xlink="http://www.w3.org/1999/xlink">
<g id="graph0" class="graph" transform="scale(1 1) rotate(0) translate(4 240.5)">
<title>queue.c</title>
<!-- Node1 -->
<g id="Node000001" class="node">
<title>Node1</title>
<g id="a_Node000001"><a xlink:title=" ">
<polygon fill="#999999" stroke="#666666" points="292.51,-236.5 242.01,-236.5 242.01,-218 292.51,-218 292.51,-236.5"/>
<text text-anchor="middle" x="267.26" y="-223" font-family="Helvetica,sans-Serif" font-size="10.00">queue.c</text>
</a>
</g>
</g>
<!-- Node2 -->
<g id="Node000002" class="node">
<title>Node2</title>
<g id="a_Node000002"><a xlink:href="a01379.html" target="_top" xlink:title=" ">
<polygon fill="white" stroke="#666666" points="176.51,-182 126.01,-182 126.01,-163.5 176.51,-163.5 176.51,-182"/>
<text text-anchor="middle" x="151.26" y="-168.5" font-family="Helvetica,sans-Serif" font-size="10.00">queue.h</text>
</a>
</g>
</g>
<!-- Node1&#45;&gt;Node2 -->
<g id="edge1_Node000001_Node000002" class="edge">
<title>Node1&#45;&gt;Node2</title>
<g id="a_edge1_Node000001_Node000002"><a xlink:title=" ">
<path fill="none" stroke="#63b8ff" d="M248.11,-217.58C229.64,-209.22 201.44,-196.46 180.22,-186.86"/>
<polygon fill="#63b8ff" stroke="#63b8ff" points="182,-183.37 171.45,-182.43 179.11,-189.74 182,-183.37"/>
</a>
</g>
</g>
<!-- Node3 -->
<g id="Node000003" class="node">
<title>Node3</title>
<g id="a_Node000003"><a xlink:title=" ">
<polygon fill="#e0e0e0" stroke="#999999" points="63.51,-127.5 13.01,-127.5 13.01,-109 63.51,-109 63.51,-127.5"/>
<text text-anchor="middle" x="38.26" y="-114" font-family="Helvetica,sans-Serif" font-size="10.00">stddef.h</text>
</a>
</g>
</g>
<!-- Node1&#45;&gt;Node3 -->
<g id="edge9_Node000001_Node000003" class="edge">
<title>Node1&#45;&gt;Node3</title>
<g id="a_edge9_Node000001_Node000003"><a xlink:title=" ">
<path fill="none" stroke="#63b8ff" d="M241.72,-221.83C210.93,-215.81 158.22,-203.28 117.26,-182 93.35,-169.58 69.66,-149.43 54.55,-135.33"/>
<polygon fill="#63b8ff" stroke="#63b8ff" points="57.35,-133.21 47.71,-128.82 52.51,-138.27 57.35,-133.21"/>
</a>
</g>
</g>
<!-- Node4 -->
<g id="Node000004" class="node">
<title>Node4</title>
<g id="a_Node000004"><a xlink:title=" ">
<polygon fill="#e0e0e0" stroke="#999999" points="175.01,-73 127.51,-73 127.51,-54.5 175.01,-54.5 175.01,-73"/>
<text text-anchor="middle" x="151.26" y="-59.5" font-family="Helvetica,sans-Serif" font-size="10.00">stdint.h</text>
</a>
</g>
</g>
<!-- Node1&#45;&gt;Node4 -->
<g id="edge11_Node000001_Node000004" class="edge">
<title>Node1&#45;&gt;Node4</title>
<g id="a_edge11_Node000001_Node000004"><a xlink:title=" ">
<path fill="none" stroke="#63b8ff" d="M241.59,-226.5C184.84,-225.44 50.11,-213.6 4.26,-127.5 -19.62,-82.64 65.91,-69.85 116.52,-66.2"/>
<polygon fill="#63b8ff" stroke="#63b8ff" points="116.58,-69.64 126.34,-65.52 116.14,-62.66 116.58,-69.64"/>
</a>
</g>
</g>
<!-- Node7 -->
<g id="Node000007" class="node">
<title>Node7</title>
<g id="a_Node000007"><a xlink:href="a01361.html" target="_top" xlink:title=" ">
<polygon fill="white" stroke="#666666" points="302.76,-73 205.76,-73 205.76,-54.5 302.76,-54.5 302.76,-73"/>
<text text-anchor="middle" x="254.26" y="-59.5" font-family="Helvetica,sans-Serif" font-size="10.00">utils/arax_assert.h</text>
</a>
</g>
</g>
<!-- Node1&#45;&gt;Node7 -->
<g id="edge13_Node000001_Node000007" class="edge">
<title>Node1&#45;&gt;Node7</title>
<g id="a_edge13_Node000001_Node000007"><a xlink:title=" ">
<path fill="none" stroke="#63b8ff" d="M266.56,-217.57C264.54,-192.48 258.67,-119.46 255.83,-84.22"/>
<polygon fill="#63b8ff" stroke="#63b8ff" points="259.26,-84.16 254.96,-74.48 252.28,-84.72 259.26,-84.16"/>
</a>
</g>
</g>
<!-- Node9 -->
<g id="Node000009" class="node">
<title>Node9</title>
<g id="a_Node000009"><a xlink:title=" ">
<polygon fill="#e0e0e0" stroke="#999999" points="340.89,-182 295.64,-182 295.64,-163.5 340.89,-163.5 340.89,-182"/>
<text text-anchor="middle" x="318.26" y="-168.5" font-family="Helvetica,sans-Serif" font-size="10.00">stdio.h</text>
</a>
</g>
</g>
<!-- Node1&#45;&gt;Node9 -->
<g id="edge10_Node000001_Node000009" class="edge">
<title>Node1&#45;&gt;Node9</title>
<g id="a_edge10_Node000001_Node000009"><a xlink:title=" ">
<path fill="none" stroke="#63b8ff" d="M275.68,-217.58C282.96,-210.09 293.67,-199.06 302.53,-189.94"/>
<polygon fill="#63b8ff" stroke="#63b8ff" points="304.54,-192.87 309,-183.26 299.52,-187.99 304.54,-192.87"/>
</a>
</g>
</g>
<!-- Node10 -->
<g id="Node000010" class="node">
<title>Node10</title>
<g id="a_Node000010"><a xlink:title=" ">
<polygon fill="#e0e0e0" stroke="#999999" points="407.39,-182 359.14,-182 359.14,-163.5 407.39,-163.5 407.39,-182"/>
<text text-anchor="middle" x="383.26" y="-168.5" font-family="Helvetica,sans-Serif" font-size="10.00">string.h</text>
</a>
</g>
</g>
<!-- Node1&#45;&gt;Node10 -->
<g id="edge12_Node000001_Node000010" class="edge">
<title>Node1&#45;&gt;Node10</title>
<g id="a_edge12_Node000001_Node000010"><a xlink:title=" ">
<path fill="none" stroke="#63b8ff" d="M286.42,-217.58C304.89,-209.22 333.08,-196.46 354.3,-186.86"/>
<polygon fill="#63b8ff" stroke="#63b8ff" points="355.41,-189.74 363.08,-182.43 352.52,-183.37 355.41,-189.74"/>
</a>
</g>
</g>
<!-- Node11 -->
<g id="Node000011" class="node">
<title>Node11</title>
<g id="a_Node000011"><a xlink:title=" ">
<polygon fill="#e0e0e0" stroke="#999999" points="473.01,-182 425.51,-182 425.51,-163.5 473.01,-163.5 473.01,-182"/>
<text text-anchor="middle" x="449.26" y="-168.5" font-family="Helvetica,sans-Serif" font-size="10.00">limits.h</text>
</a>
</g>
</g>
<!-- Node1&#45;&gt;Node11 -->
<g id="edge14_Node000001_Node000011" class="edge">
<title>Node1&#45;&gt;Node11</title>
<g id="a_edge14_Node000001_Node000011"><a xlink:title=" ">
<path fill="none" stroke="#63b8ff" d="M292.95,-218.84C324.83,-209.64 379.31,-193.93 414.8,-183.69"/>
<polygon fill="#63b8ff" stroke="#63b8ff" points="415.51,-186.84 424.15,-180.7 413.57,-180.11 415.51,-186.84"/>
</a>
</g>
</g>
<!-- Node2&#45;&gt;Node3 -->
<g id="edge2_Node000002_Node000003" class="edge">
<title>Node2&#45;&gt;Node3</title>
<g id="a_edge2_Node000002_Node000003"><a xlink:title=" ">
<path fill="none" stroke="#63b8ff" d="M132.6,-163.08C114.69,-154.76 87.39,-142.08 66.76,-132.49"/>
<polygon fill="#63b8ff" stroke="#63b8ff" points="68.49,-128.97 57.95,-127.93 65.54,-135.32 68.49,-128.97"/>
</a>
</g>
</g>
<!-- Node2&#45;&gt;Node4 -->
<g id="edge3_Node000002_Node000004" class="edge">
<title>Node2&#45;&gt;Node4</title>
<g id="a_edge3_Node000002_Node000004"><a xlink:title=" ">
<path fill="none" stroke="#63b8ff" d="M151.26,-163.35C151.26,-146.4 151.26,-107.71 151.26,-84.15"/>
<polygon fill="#63b8ff" stroke="#63b8ff" points="154.76,-84.4 151.26,-74.4 147.76,-84.4 154.76,-84.4"/>
</a>
</g>
</g>
<!-- Node5 -->
<g id="Node000005" class="node">
<title>Node5</title>
<g id="a_Node000005"><a xlink:href="a01427.html" target="_top" xlink:title=" ">
<polygon fill="white" stroke="#666666" points="123.39,-127.5 81.14,-127.5 81.14,-109 123.39,-109 123.39,-127.5"/>
<text text-anchor="middle" x="102.26" y="-114" font-family="Helvetica,sans-Serif" font-size="10.00">conf.h</text>
</a>
</g>
</g>
<!-- Node2&#45;&gt;Node5 -->
<g id="edge4_Node000002_Node000005" class="edge">
<title>Node2&#45;&gt;Node5</title>
<g id="a_edge4_Node000002_Node000005"><a xlink:title=" ">
<path fill="none" stroke="#63b8ff" d="M143.17,-163.08C136.25,-155.67 126.09,-144.78 117.63,-135.72"/>
<polygon fill="#63b8ff" stroke="#63b8ff" points="120.58,-133.68 111.2,-128.76 115.47,-138.46 120.58,-133.68"/>
</a>
</g>
</g>
<!-- Node6 -->
<g id="Node000006" class="node">
<title>Node6</title>
<g id="a_Node000006"><a xlink:href="a01382.html" target="_top" xlink:title=" ">
<polygon fill="white" stroke="#666666" points="239.39,-127.5 179.14,-127.5 179.14,-109 239.39,-109 239.39,-127.5"/>
<text text-anchor="middle" x="209.26" y="-114" font-family="Helvetica,sans-Serif" font-size="10.00">spinlock.h</text>
</a>
</g>
</g>
<!-- Node2&#45;&gt;Node6 -->
<g id="edge5_Node000002_Node000006" class="edge">
<title>Node2&#45;&gt;Node6</title>
<g id="a_edge5_Node000002_Node000006"><a xlink:title=" ">
<path fill="none" stroke="#63b8ff" d="M160.84,-163.08C169.29,-155.44 181.8,-144.11 191.99,-134.88"/>
<polygon fill="#63b8ff" stroke="#63b8ff" points="193.8,-138.06 198.86,-128.76 189.1,-132.87 193.8,-138.06"/>
</a>
</g>
</g>
<!-- Node6&#45;&gt;Node4 -->
<g id="edge6_Node000006_Node000004" class="edge">
<title>Node6&#45;&gt;Node4</title>
<g id="a_edge6_Node000006_Node000004"><a xlink:title=" ">
<path fill="none" stroke="#63b8ff" d="M199.68,-108.58C191.24,-100.94 178.72,-89.61 168.53,-80.38"/>
<polygon fill="#63b8ff" stroke="#63b8ff" points="171.42,-78.37 161.66,-74.26 166.73,-83.56 171.42,-78.37"/>
</a>
</g>
</g>
<!-- Node6&#45;&gt;Node7 -->
<g id="edge7_Node000006_Node000007" class="edge">
<title>Node6&#45;&gt;Node7</title>
<g id="a_edge7_Node000006_Node000007"><a xlink:title=" ">
<path fill="none" stroke="#63b8ff" d="M216.69,-108.58C222.98,-101.24 232.18,-90.51 239.9,-81.5"/>
<polygon fill="#63b8ff" stroke="#63b8ff" points="243.12,-84.13 246.97,-74.26 237.8,-79.57 243.12,-84.13"/>
</a>
</g>
</g>
<!-- Node8 -->
<g id="Node000008" class="node">
<title>Node8</title>
<g id="a_Node000008"><a xlink:href="a01370.html" target="_top" xlink:title=" ">
<polygon fill="white" stroke="#666666" points="282.14,-18.5 226.39,-18.5 226.39,0 282.14,0 282.14,-18.5"/>
<text text-anchor="middle" x="254.26" y="-5" font-family="Helvetica,sans-Serif" font-size="10.00">compat.h</text>
</a>
</g>
</g>
<!-- Node7&#45;&gt;Node8 -->
<g id="edge8_Node000007_Node000008" class="edge">
<title>Node7&#45;&gt;Node8</title>
<g id="a_edge8_Node000007_Node000008"><a xlink:title=" ">
<path fill="none" stroke="#63b8ff" d="M254.26,-54.08C254.26,-47.43 254.26,-37.99 254.26,-29.58"/>
<polygon fill="#63b8ff" stroke="#63b8ff" points="257.76,-29.76 254.26,-19.76 250.76,-29.76 257.76,-29.76"/>
</a>
</g>
</g>
</g>
</svg>
