<?xml version="1.0" encoding="UTF-8" standalone="no"?>
<!DOCTYPE svg PUBLIC "-//W3C//DTD SVG 1.1//EN"
 "http://www.w3.org/Graphics/SVG/1.1/DTD/svg11.dtd">
<!-- Generated by graphviz version 8.0.5 (0)
 -->
<!-- Title: arax_data_allocate_remote Pages: 1 -->
<svg width="1478pt" height="493pt"
 viewBox="0.00 0.00 1478.25 493.09" xmlns="http://www.w3.org/2000/svg" xmlns:xlink="http://www.w3.org/1999/xlink">
<g id="graph0" class="graph" transform="scale(1 1) rotate(0) translate(4 489.09)">
<title>arax_data_allocate_remote</title>
<!-- Node1 -->
<g id="Node000001" class="node">
<title>Node1</title>
<g id="a_Node000001"><a xlink:title=" ">
<polygon fill="#999999" stroke="#666666" points="98.5,-352.48 0,-352.48 0,-323.48 98.5,-323.48 98.5,-352.48"/>
<text text-anchor="start" x="8" y="-338.98" font-family="Helvetica,sans-Serif" font-size="10.00">arax_data_allocate</text>
<text text-anchor="middle" x="49.25" y="-328.48" font-family="Helvetica,sans-Serif" font-size="10.00">_remote</text>
</a>
</g>
</g>
<!-- Node2 -->
<g id="Node000002" class="node">
<title>Node2</title>
<g id="a_Node000002"><a xlink:href="a01904.html#a503b6bc6d5be49fd8715f62c7174c28e" target="_top" xlink:title=" ">
<polygon fill="white" stroke="#666666" points="366.38,-32.23 258.88,-32.23 258.88,-13.73 366.38,-13.73 366.38,-32.23"/>
<text text-anchor="middle" x="312.62" y="-18.73" font-family="Helvetica,sans-Serif" font-size="10.00">arax_accel_size_dec</text>
</a>
</g>
</g>
<!-- Node1&#45;&gt;Node2 -->
<g id="edge1_Node000001_Node000002" class="edge">
<title>Node1&#45;&gt;Node2</title>
<g id="a_edge1_Node000001_Node000002"><a xlink:title=" ">
<path fill="none" stroke="#63b8ff" d="M54.19,-323.16C63.6,-289.86 89.98,-207.75 134.5,-152.98 176.9,-100.81 244.88,-58.85 283.11,-37.78"/>
<polygon fill="#63b8ff" stroke="#63b8ff" points="284.48,-40.47 291.61,-32.64 281.15,-34.32 284.48,-40.47"/>
</a>
</g>
</g>
<!-- Node10 -->
<g id="Node000010" class="node">
<title>Node10</title>
<g id="a_Node000010"><a xlink:href="a01931.html#a369e660e3e344bc697d98174059ead3c" target="_top" xlink:title=" ">
<polygon fill="white" stroke="#666666" points="219.5,-421.23 137.5,-421.23 137.5,-402.73 219.5,-402.73 219.5,-421.23"/>
<text text-anchor="middle" x="178.5" y="-407.73" font-family="Helvetica,sans-Serif" font-size="10.00">arax_data_size</text>
</a>
</g>
</g>
<!-- Node1&#45;&gt;Node10 -->
<g id="edge11_Node000001_Node000010" class="edge">
<title>Node1&#45;&gt;Node10</title>
<g id="a_edge11_Node000001_Node000010"><a xlink:title=" ">
<path fill="none" stroke="#63b8ff" d="M71.13,-352.98C87.83,-364.64 112.09,-380.81 134.5,-392.98 137.58,-394.65 140.85,-396.3 144.14,-397.88"/>
<polygon fill="#63b8ff" stroke="#63b8ff" points="142.41,-401.4 152.96,-402.4 145.34,-395.04 142.41,-401.4"/>
</a>
</g>
</g>
<!-- Node11 -->
<g id="Node000011" class="node">
<title>Node11</title>
<g id="a_Node000011"><a xlink:href="a01910.html#a9255b8011e6d7c9b28c7df40065efb28" target="_top" xlink:title=" ">
<polygon fill="white" stroke="#666666" points="830.25,-290.23 728.75,-290.23 728.75,-271.73 830.25,-271.73 830.25,-290.23"/>
<text text-anchor="middle" x="779.5" y="-276.73" font-family="Helvetica,sans-Serif" font-size="10.00">arax_object_ref_inc</text>
</a>
</g>
</g>
<!-- Node1&#45;&gt;Node11 -->
<g id="edge12_Node000001_Node000011" class="edge">
<title>Node1&#45;&gt;Node11</title>
<g id="a_edge12_Node000001_Node000011"><a xlink:title=" ">
<path fill="none" stroke="#63b8ff" d="M98.9,-337.98C151.39,-337.98 237.43,-337.98 311.62,-337.98 311.62,-337.98 311.62,-337.98 463.12,-337.98 562.33,-337.98 676.32,-310.33 736.39,-293.55"/>
<polygon fill="#63b8ff" stroke="#63b8ff" points="736.94,-296.74 745.61,-290.65 735.03,-290.01 736.94,-296.74"/>
</a>
</g>
</g>
<!-- Node12 -->
<g id="Node000012" class="node">
<title>Node12</title>
<g id="a_Node000012"><a xlink:href="a02176.html#ga739047efb2b454e6c1ac54138ef2985d" target="_top" xlink:title=" ">
<polygon fill="white" stroke="#666666" points="217.62,-384.23 139.38,-384.23 139.38,-365.73 217.62,-365.73 217.62,-384.23"/>
<text text-anchor="middle" x="178.5" y="-370.73" font-family="Helvetica,sans-Serif" font-size="10.00">arax_proc_get</text>
</a>
</g>
</g>
<!-- Node1&#45;&gt;Node12 -->
<g id="edge13_Node000001_Node000012" class="edge">
<title>Node1&#45;&gt;Node12</title>
<g id="a_edge13_Node000001_Node000012"><a xlink:title=" ">
<path fill="none" stroke="#63b8ff" d="M98.72,-352.07C110.22,-355.42 122.42,-358.96 133.69,-362.24"/>
<polygon fill="#63b8ff" stroke="#63b8ff" points="132.59,-365.86 143.17,-365.29 134.54,-359.13 132.59,-365.86"/>
</a>
</g>
</g>
<!-- Node16 -->
<g id="Node000016" class="node">
<title>Node16</title>
<g id="a_Node000016"><a xlink:href="a02177.html#ga55195957c1cde1508257782716aa6db3" target="_top" xlink:title=" ">
<polygon fill="white" stroke="#666666" points="219.12,-477.23 137.88,-477.23 137.88,-458.73 219.12,-458.73 219.12,-477.23"/>
<text text-anchor="middle" x="178.5" y="-463.73" font-family="Helvetica,sans-Serif" font-size="10.00">arax_task_free</text>
</a>
</g>
</g>
<!-- Node1&#45;&gt;Node16 -->
<g id="edge18_Node000001_Node000016" class="edge">
<title>Node1&#45;&gt;Node16</title>
<g id="a_edge18_Node000001_Node000016"><a xlink:title=" ">
<path fill="none" stroke="#63b8ff" d="M62.93,-352.76C79.03,-371.32 107.93,-403.87 134.5,-429.98 141.86,-437.21 150.29,-444.8 157.73,-451.28"/>
<polygon fill="#63b8ff" stroke="#63b8ff" points="155.02,-454.43 164.89,-458.3 159.59,-449.12 155.02,-454.43"/>
</a>
</g>
</g>
<!-- Node23 -->
<g id="Node000023" class="node">
<title>Node23</title>
<g id="a_Node000023"><a xlink:href="a02177.html#gac9f0f3fbb14da879d3ff09bd367bbb24" target="_top" xlink:title=" ">
<polygon fill="white" stroke="#666666" points="222.5,-235.23 134.5,-235.23 134.5,-216.73 222.5,-216.73 222.5,-235.23"/>
<text text-anchor="middle" x="178.5" y="-221.73" font-family="Helvetica,sans-Serif" font-size="10.00">arax_task_issue</text>
</a>
</g>
</g>
<!-- Node1&#45;&gt;Node23 -->
<g id="edge27_Node000001_Node000023" class="edge">
<title>Node1&#45;&gt;Node23</title>
<g id="a_edge27_Node000001_Node000023"><a xlink:title=" ">
<path fill="none" stroke="#63b8ff" d="M67.15,-323.11C90.75,-302.33 133.47,-264.73 158.27,-242.91"/>
<polygon fill="#63b8ff" stroke="#63b8ff" points="160.33,-244.87 165.52,-235.64 155.7,-239.62 160.33,-244.87"/>
</a>
</g>
</g>
<!-- Node42 -->
<g id="Node000042" class="node">
<title>Node42</title>
<g id="a_Node000042"><a xlink:href="a02177.html#gacb098c0a8c3908f3fdd32e7ea7d780bb" target="_top" xlink:title=" ">
<polygon fill="white" stroke="#666666" points="219.5,-180.23 137.5,-180.23 137.5,-161.73 219.5,-161.73 219.5,-180.23"/>
<text text-anchor="middle" x="178.5" y="-166.73" font-family="Helvetica,sans-Serif" font-size="10.00">arax_task_wait</text>
</a>
</g>
</g>
<!-- Node1&#45;&gt;Node42 -->
<g id="edge57_Node000001_Node000042" class="edge">
<title>Node1&#45;&gt;Node42</title>
<g id="a_edge57_Node000001_Node000042"><a xlink:title=" ">
<path fill="none" stroke="#63b8ff" d="M58.1,-323C71.72,-297.77 101.43,-245.87 134.5,-207.98 141.02,-200.51 149.05,-193.2 156.41,-187.07"/>
<polygon fill="#63b8ff" stroke="#63b8ff" points="158,-189.48 163.6,-180.49 153.61,-184.03 158,-189.48"/>
</a>
</g>
</g>
<!-- Node3 -->
<g id="Node000003" class="node">
<title>Node3</title>
<g id="a_Node000003"><a xlink:href="a01925.html#a8413a3584787f9b629e54b2ef9439f06" target="_top" xlink:title=" ">
<polygon fill="white" stroke="#666666" points="1139.75,-106.23 1025.5,-106.23 1025.5,-87.73 1139.75,-87.73 1139.75,-106.23"/>
<text text-anchor="middle" x="1082.62" y="-92.73" font-family="Helvetica,sans-Serif" font-size="10.00">arax_throttle_size_dec</text>
</a>
</g>
</g>
<!-- Node2&#45;&gt;Node3 -->
<g id="edge2_Node000002_Node000003" class="edge">
<title>Node2&#45;&gt;Node3</title>
<g id="a_edge2_Node000002_Node000003"><a xlink:title=" ">
<path fill="none" stroke="#63b8ff" d="M366.84,-17.66C427.77,-12.04 530.6,-3.98 619.25,-3.98 619.25,-3.98 619.25,-3.98 780.5,-3.98 873.77,-3.98 903.01,11.94 989.5,-22.98 1020.4,-35.45 1049.17,-61.89 1066.08,-79.54"/>
<polygon fill="#63b8ff" stroke="#63b8ff" points="1063.02,-81.46 1072.39,-86.41 1068.14,-76.7 1063.02,-81.46"/>
</a>
</g>
</g>
<!-- Node4 -->
<g id="Node000004" class="node">
<title>Node4</title>
<g id="a_Node000004"><a xlink:href="a02352.html#aed6af4d83e934e3e654ead541b15f2d9" target="_top" xlink:title=" ">
<polygon fill="white" stroke="#666666" points="1290,-180.23 1181,-180.23 1181,-161.73 1290,-161.73 1290,-180.23"/>
<text text-anchor="middle" x="1235.5" y="-166.73" font-family="Helvetica,sans-Serif" font-size="10.00">async_condition_lock</text>
</a>
</g>
</g>
<!-- Node3&#45;&gt;Node4 -->
<g id="edge3_Node000003_Node000004" class="edge">
<title>Node3&#45;&gt;Node4</title>
<g id="a_edge3_Node000003_Node000004"><a xlink:title=" ">
<path fill="none" stroke="#63b8ff" d="M1120.36,-106.7C1127.06,-109.22 1133.81,-112.29 1139.75,-115.98 1158.97,-127.92 1156.45,-140.17 1175.75,-151.98 1178.91,-153.91 1182.29,-155.67 1185.76,-157.26"/>
<polygon fill="#63b8ff" stroke="#63b8ff" points="1184.15,-160.79 1194.73,-161.33 1186.8,-154.31 1184.15,-160.79"/>
</a>
</g>
</g>
<!-- Node6 -->
<g id="Node000006" class="node">
<title>Node6</title>
<g id="a_Node000006"><a xlink:href="a02352.html#a3bbcb7c4c024e99d5c4ba52b61dfbbf7" target="_top" xlink:title=" ">
<polygon fill="white" stroke="#666666" points="1295.25,-143.23 1175.75,-143.23 1175.75,-124.73 1295.25,-124.73 1295.25,-143.23"/>
<text text-anchor="middle" x="1235.5" y="-129.73" font-family="Helvetica,sans-Serif" font-size="10.00">async_condition_unlock</text>
</a>
</g>
</g>
<!-- Node3&#45;&gt;Node6 -->
<g id="edge5_Node000003_Node000006" class="edge">
<title>Node3&#45;&gt;Node6</title>
<g id="a_edge5_Node000003_Node000006"><a xlink:title=" ">
<path fill="none" stroke="#63b8ff" d="M1123.27,-106.7C1141.99,-111.29 1164.54,-116.82 1184.43,-121.7"/>
<polygon fill="#63b8ff" stroke="#63b8ff" points="1183.32,-125.28 1193.86,-124.26 1184.98,-118.48 1183.32,-125.28"/>
</a>
</g>
</g>
<!-- Node8 -->
<g id="Node000008" class="node">
<title>Node8</title>
<g id="a_Node000008"><a xlink:href="a02352.html#a1bfeaeb9b81855e640d7a67cc9d92b17" target="_top" xlink:title=" ">
<polygon fill="white" stroke="#666666" points="1289.62,-106.23 1181.38,-106.23 1181.38,-87.73 1289.62,-87.73 1289.62,-106.23"/>
<text text-anchor="middle" x="1235.5" y="-92.73" font-family="Helvetica,sans-Serif" font-size="10.00">async_condition_wait</text>
</a>
</g>
</g>
<!-- Node3&#45;&gt;Node8 -->
<g id="edge7_Node000003_Node000008" class="edge">
<title>Node3&#45;&gt;Node8</title>
<g id="a_edge7_Node000003_Node000008"><a xlink:title=" ">
<path fill="none" stroke="#63b8ff" d="M1140.23,-96.98C1150.06,-96.98 1160.34,-96.98 1170.35,-96.98"/>
<polygon fill="#63b8ff" stroke="#63b8ff" points="1170.07,-100.48 1180.07,-96.98 1170.07,-93.48 1170.07,-100.48"/>
</a>
</g>
</g>
<!-- Node5 -->
<g id="Node000005" class="node">
<title>Node5</title>
<g id="a_Node000005"><a xlink:href="a02346.html#aebf9e72bb6cbd8b9e33489d46c25075d" target="_top" xlink:title=" ">
<polygon fill="white" stroke="#666666" points="1459,-180.23 1342.5,-180.23 1342.5,-161.73 1459,-161.73 1459,-180.23"/>
<text text-anchor="middle" x="1400.75" y="-166.73" font-family="Helvetica,sans-Serif" font-size="10.00">async_completion_wait</text>
</a>
</g>
</g>
<!-- Node4&#45;&gt;Node5 -->
<g id="edge4_Node000004_Node000005" class="edge">
<title>Node4&#45;&gt;Node5</title>
<g id="a_edge4_Node000004_Node000005"><a xlink:title=" ">
<path fill="none" stroke="#63b8ff" d="M1290.41,-170.98C1303.52,-170.98 1317.73,-170.98 1331.41,-170.98"/>
<polygon fill="#63b8ff" stroke="#63b8ff" points="1331.25,-174.48 1341.25,-170.98 1331.25,-167.48 1331.25,-174.48"/>
</a>
</g>
</g>
<!-- Node7 -->
<g id="Node000007" class="node">
<title>Node7</title>
<g id="a_Node000007"><a xlink:href="a02346.html#ad1d30ecbf6bff6457b680aa940281072" target="_top" xlink:title=" ">
<polygon fill="white" stroke="#666666" points="1470.25,-143.23 1331.25,-143.23 1331.25,-124.73 1470.25,-124.73 1470.25,-143.23"/>
<text text-anchor="middle" x="1400.75" y="-129.73" font-family="Helvetica,sans-Serif" font-size="10.00">async_completion_complete</text>
</a>
</g>
</g>
<!-- Node6&#45;&gt;Node7 -->
<g id="edge6_Node000006_Node000007" class="edge">
<title>Node6&#45;&gt;Node7</title>
<g id="a_edge6_Node000006_Node000007"><a xlink:title=" ">
<path fill="none" stroke="#63b8ff" d="M1295.44,-133.98C1303.44,-133.98 1311.76,-133.98 1320.05,-133.98"/>
<polygon fill="#63b8ff" stroke="#63b8ff" points="1319.9,-137.48 1329.9,-133.98 1319.9,-130.48 1319.9,-137.48"/>
</a>
</g>
</g>
<!-- Node8&#45;&gt;Node5 -->
<g id="edge9_Node000008_Node000005" class="edge">
<title>Node8&#45;&gt;Node5</title>
<g id="a_edge9_Node000008_Node000005"><a xlink:title=" ">
<path fill="none" stroke="#63b8ff" d="M1275.27,-106.63C1282.18,-109.14 1289.12,-112.23 1295.25,-115.98 1314.55,-127.79 1311.7,-140.58 1331.25,-151.98 1334.7,-153.99 1338.38,-155.8 1342.17,-157.43"/>
<polygon fill="#63b8ff" stroke="#63b8ff" points="1340.79,-161.03 1351.38,-161.3 1343.28,-154.48 1340.79,-161.03"/>
</a>
</g>
</g>
<!-- Node8&#45;&gt;Node7 -->
<g id="edge8_Node000008_Node000007" class="edge">
<title>Node8&#45;&gt;Node7</title>
<g id="a_edge8_Node000008_Node000007"><a xlink:title=" ">
<path fill="none" stroke="#63b8ff" d="M1279.39,-106.7C1299.84,-111.33 1324.51,-116.93 1346.17,-121.84"/>
<polygon fill="#63b8ff" stroke="#63b8ff" points="1345.34,-125.46 1355.86,-124.26 1346.88,-118.63 1345.34,-125.46"/>
</a>
</g>
</g>
<!-- Node9 -->
<g id="Node000009" class="node">
<title>Node9</title>
<g id="a_Node000009"><a xlink:href="a02346.html#a7ab7c7fe9cb93434dde72a4e464a7e69" target="_top" xlink:title=" ">
<polygon fill="white" stroke="#666666" points="1458.62,-106.23 1342.88,-106.23 1342.88,-87.73 1458.62,-87.73 1458.62,-106.23"/>
<text text-anchor="middle" x="1400.75" y="-92.73" font-family="Helvetica,sans-Serif" font-size="10.00">async_semaphore_dec</text>
</a>
</g>
</g>
<!-- Node8&#45;&gt;Node9 -->
<g id="edge10_Node000008_Node000009" class="edge">
<title>Node8&#45;&gt;Node9</title>
<g id="a_edge10_Node000008_Node000009"><a xlink:title=" ">
<path fill="none" stroke="#63b8ff" d="M1289.95,-96.98C1303.23,-96.98 1317.65,-96.98 1331.53,-96.98"/>
<polygon fill="#63b8ff" stroke="#63b8ff" points="1331.52,-100.48 1341.52,-96.98 1331.52,-93.48 1331.52,-100.48"/>
</a>
</g>
</g>
<!-- Node12&#45;&gt;Node11 -->
<g id="edge14_Node000012_Node000011" class="edge">
<title>Node12&#45;&gt;Node11</title>
<g id="a_edge14_Node000012_Node000011"><a xlink:title=" ">
<path fill="none" stroke="#63b8ff" d="M217.94,-377.53C321.43,-383.72 603.47,-395.99 683,-351.98 707.59,-338.37 696.41,-316.7 719,-299.98 721.33,-298.25 723.82,-296.68 726.42,-295.25"/>
<polygon fill="#63b8ff" stroke="#63b8ff" points="727.61,-298.09 735.16,-290.65 724.62,-291.76 727.61,-298.09"/>
</a>
</g>
</g>
<!-- Node13 -->
<g id="Node000013" class="node">
<title>Node13</title>
<g id="a_Node000013"><a xlink:href="a01913.html#a4c22ae41507232dc3efc725428cbfc7b" target="_top" xlink:title=" ">
<polygon fill="white" stroke="#666666" points="364.5,-422.23 260.75,-422.23 260.75,-403.73 364.5,-403.73 364.5,-422.23"/>
<text text-anchor="middle" x="312.62" y="-408.73" font-family="Helvetica,sans-Serif" font-size="10.00">arax_pipe_find_proc</text>
</a>
</g>
</g>
<!-- Node12&#45;&gt;Node13 -->
<g id="edge15_Node000012_Node000013" class="edge">
<title>Node12&#45;&gt;Node13</title>
<g id="a_edge15_Node000012_Node000013"><a xlink:title=" ">
<path fill="none" stroke="#63b8ff" d="M213.18,-384.67C229.8,-389.45 250.05,-395.27 267.85,-400.39"/>
<polygon fill="#63b8ff" stroke="#63b8ff" points="266.43,-403.91 277,-403.31 268.36,-397.18 266.43,-403.91"/>
</a>
</g>
</g>
<!-- Node14 -->
<g id="Node000014" class="node">
<title>Node14</title>
<g id="a_Node000014"><a xlink:href="a01910.html#aa750d1c54fe430c1294b9c8a9d3e1466" target="_top" xlink:title=" ">
<polygon fill="white" stroke="#666666" points="516.25,-459.23 408,-459.23 408,-440.73 516.25,-440.73 516.25,-459.23"/>
<text text-anchor="middle" x="462.12" y="-445.73" font-family="Helvetica,sans-Serif" font-size="10.00">arax_object_list_lock</text>
</a>
</g>
</g>
<!-- Node13&#45;&gt;Node14 -->
<g id="edge16_Node000013_Node000014" class="edge">
<title>Node13&#45;&gt;Node14</title>
<g id="a_edge16_Node000013_Node000014"><a xlink:title=" ">
<path fill="none" stroke="#63b8ff" d="M352.38,-422.7C370.6,-427.27 392.53,-432.77 411.91,-437.63"/>
<polygon fill="#63b8ff" stroke="#63b8ff" points="410.82,-441.22 421.37,-440.26 412.53,-434.43 410.82,-441.22"/>
</a>
</g>
</g>
<!-- Node15 -->
<g id="Node000015" class="node">
<title>Node15</title>
<g id="a_Node000015"><a xlink:href="a01910.html#abb03d3cde2d1354544cd082482c3f185" target="_top" xlink:title=" ">
<polygon fill="white" stroke="#666666" points="521.5,-422.23 402.75,-422.23 402.75,-403.73 521.5,-403.73 521.5,-422.23"/>
<text text-anchor="middle" x="462.12" y="-408.73" font-family="Helvetica,sans-Serif" font-size="10.00">arax_object_list_unlock</text>
</a>
</g>
</g>
<!-- Node13&#45;&gt;Node15 -->
<g id="edge17_Node000013_Node000015" class="edge">
<title>Node13&#45;&gt;Node15</title>
<g id="a_edge17_Node000013_Node000015"><a xlink:title=" ">
<path fill="none" stroke="#63b8ff" d="M364.8,-412.98C373.44,-412.98 382.53,-412.98 391.54,-412.98"/>
<polygon fill="#63b8ff" stroke="#63b8ff" points="391.45,-416.48 401.45,-412.98 391.45,-409.48 391.45,-416.48"/>
</a>
</g>
</g>
<!-- Node17 -->
<g id="Node000017" class="node">
<title>Node17</title>
<g id="a_Node000017"><a xlink:href="a01910.html#afe7e4a63c40fbcaae742b8de8693483f" target="_top" xlink:title=" ">
<polygon fill="white" stroke="#666666" points="831.75,-327.23 727.25,-327.23 727.25,-308.73 831.75,-308.73 831.75,-327.23"/>
<text text-anchor="middle" x="779.5" y="-313.73" font-family="Helvetica,sans-Serif" font-size="10.00">arax_object_ref_dec</text>
</a>
</g>
</g>
<!-- Node16&#45;&gt;Node17 -->
<g id="edge19_Node000016_Node000017" class="edge">
<title>Node16&#45;&gt;Node17</title>
<g id="a_edge19_Node000016_Node000017"><a xlink:title=" ">
<path fill="none" stroke="#63b8ff" d="M219.54,-474.33C284.24,-483.19 415.26,-495.31 521.5,-467.98 619.9,-442.66 718.8,-367.71 759.35,-334.33"/>
<polygon fill="#63b8ff" stroke="#63b8ff" points="761.3,-336.43 766.73,-327.33 756.81,-331.05 761.3,-336.43"/>
</a>
</g>
</g>
<!-- Node18 -->
<g id="Node000018" class="node">
<title>Node18</title>
<g id="a_Node000018"><a xlink:href="a01913.html#a5144f906658718ef853a8d18dda1e724" target="_top" xlink:title=" ">
<polygon fill="white" stroke="#666666" points="982.38,-327.23 883.12,-327.23 883.12,-308.73 982.38,-308.73 982.38,-327.23"/>
<text text-anchor="middle" x="932.75" y="-313.73" font-family="Helvetica,sans-Serif" font-size="10.00">arax_pipe_size_inc</text>
</a>
</g>
</g>
<!-- Node17&#45;&gt;Node18 -->
<g id="edge20_Node000017_Node000018" class="edge">
<title>Node17&#45;&gt;Node18</title>
<g id="a_edge20_Node000017_Node000018"><a xlink:title=" ">
<path fill="none" stroke="#63b8ff" d="M832.13,-317.98C844.9,-317.98 858.69,-317.98 871.82,-317.98"/>
<polygon fill="#63b8ff" stroke="#63b8ff" points="871.65,-321.48 881.65,-317.98 871.65,-314.48 871.65,-321.48"/>
</a>
</g>
</g>
<!-- Node22 -->
<g id="Node000022" class="node">
<title>Node22</title>
<g id="a_Node000022"><a xlink:href="a01946.html#a0c85e5516222ab7e7fc354c614760ec5" target="_top" xlink:title=" ">
<polygon fill="white" stroke="#666666" points="967.75,-290.23 897.75,-290.23 897.75,-271.73 967.75,-271.73 967.75,-290.23"/>
<text text-anchor="middle" x="932.75" y="-276.73" font-family="Helvetica,sans-Serif" font-size="10.00">utils_list_del</text>
</a>
</g>
</g>
<!-- Node17&#45;&gt;Node22 -->
<g id="edge26_Node000017_Node000022" class="edge">
<title>Node17&#45;&gt;Node22</title>
<g id="a_edge26_Node000017_Node000022"><a xlink:title=" ">
<path fill="none" stroke="#63b8ff" d="M820.24,-308.26C840.66,-303.26 865.63,-297.15 886.76,-291.99"/>
<polygon fill="#63b8ff" stroke="#63b8ff" points="887.53,-295.16 896.41,-289.38 885.87,-288.36 887.53,-295.16"/>
</a>
</g>
</g>
<!-- Node19 -->
<g id="Node000019" class="node">
<title>Node19</title>
<g id="a_Node000019"><a xlink:href="a01925.html#a22aaf13eb56eb1832e725ef73236116f" target="_top" xlink:title=" ">
<polygon fill="white" stroke="#666666" points="1138.25,-217.23 1027,-217.23 1027,-198.73 1138.25,-198.73 1138.25,-217.23"/>
<text text-anchor="middle" x="1082.62" y="-203.73" font-family="Helvetica,sans-Serif" font-size="10.00">arax_throttle_size_inc</text>
</a>
</g>
</g>
<!-- Node18&#45;&gt;Node19 -->
<g id="edge21_Node000018_Node000019" class="edge">
<title>Node18&#45;&gt;Node19</title>
<g id="a_edge21_Node000018_Node000019"><a xlink:title=" ">
<path fill="none" stroke="#63b8ff" d="M969.93,-308.32C976.68,-305.78 983.5,-302.69 989.5,-298.98 1021.5,-279.19 1051.04,-246.38 1067.65,-226.03"/>
<polygon fill="#63b8ff" stroke="#63b8ff" points="1070.84,-228.65 1074.34,-218.65 1065.36,-224.29 1070.84,-228.65"/>
</a>
</g>
</g>
<!-- Node19&#45;&gt;Node4 -->
<g id="edge22_Node000019_Node000004" class="edge">
<title>Node19&#45;&gt;Node4</title>
<g id="a_edge22_Node000019_Node000004"><a xlink:title=" ">
<path fill="none" stroke="#63b8ff" d="M1123.27,-198.26C1141.99,-193.67 1164.54,-188.13 1184.43,-183.26"/>
<polygon fill="#63b8ff" stroke="#63b8ff" points="1184.98,-186.48 1193.86,-180.7 1183.32,-179.68 1184.98,-186.48"/>
</a>
</g>
</g>
<!-- Node19&#45;&gt;Node6 -->
<g id="edge25_Node000019_Node000006" class="edge">
<title>Node19&#45;&gt;Node6</title>
<g id="a_edge25_Node000019_Node000006"><a xlink:title=" ">
<path fill="none" stroke="#63b8ff" d="M1120.36,-198.26C1127.06,-195.74 1133.81,-192.67 1139.75,-188.98 1158.97,-177.04 1156.45,-164.79 1175.75,-152.98 1178.91,-151.05 1182.29,-149.29 1185.76,-147.7"/>
<polygon fill="#63b8ff" stroke="#63b8ff" points="1186.8,-150.65 1194.73,-143.63 1184.15,-144.16 1186.8,-150.65"/>
</a>
</g>
</g>
<!-- Node20 -->
<g id="Node000020" class="node">
<title>Node20</title>
<g id="a_Node000020"><a xlink:href="a02352.html#a45a896fb606c2aa66a5a4c2af59ce494" target="_top" xlink:title=" ">
<polygon fill="white" stroke="#666666" points="1293,-217.23 1178,-217.23 1178,-198.73 1293,-198.73 1293,-217.23"/>
<text text-anchor="middle" x="1235.5" y="-203.73" font-family="Helvetica,sans-Serif" font-size="10.00">async_condition_notify</text>
</a>
</g>
</g>
<!-- Node19&#45;&gt;Node20 -->
<g id="edge23_Node000019_Node000020" class="edge">
<title>Node19&#45;&gt;Node20</title>
<g id="a_edge23_Node000019_Node000020"><a xlink:title=" ">
<path fill="none" stroke="#63b8ff" d="M1138.52,-207.98C1147.67,-207.98 1157.25,-207.98 1166.67,-207.98"/>
<polygon fill="#63b8ff" stroke="#63b8ff" points="1166.62,-211.48 1176.62,-207.98 1166.62,-204.48 1166.62,-211.48"/>
</a>
</g>
</g>
<!-- Node21 -->
<g id="Node000021" class="node">
<title>Node21</title>
<g id="a_Node000021"><a xlink:href="a02346.html#a0fa370eee5160963e617d1daf1c07363" target="_top" xlink:title=" ">
<polygon fill="white" stroke="#666666" points="1457.12,-217.23 1344.38,-217.23 1344.38,-198.73 1457.12,-198.73 1457.12,-217.23"/>
<text text-anchor="middle" x="1400.75" y="-203.73" font-family="Helvetica,sans-Serif" font-size="10.00">async_semaphore_inc</text>
</a>
</g>
</g>
<!-- Node20&#45;&gt;Node21 -->
<g id="edge24_Node000020_Node000021" class="edge">
<title>Node20&#45;&gt;Node21</title>
<g id="a_edge24_Node000020_Node000021"><a xlink:title=" ">
<path fill="none" stroke="#63b8ff" d="M1293.14,-207.98C1306.02,-207.98 1319.81,-207.98 1333.07,-207.98"/>
<polygon fill="#63b8ff" stroke="#63b8ff" points="1333.04,-211.48 1343.04,-207.98 1333.04,-204.48 1333.04,-211.48"/>
</a>
</g>
</g>
<!-- Node24 -->
<g id="Node000024" class="node">
<title>Node24</title>
<g id="a_Node000024"><a xlink:href="a01922.html#a27bee94f7a23281c8b2b72ec433f6059" target="_top" xlink:title=" ">
<polygon fill="white" stroke="#666666" points="355.12,-161.23 270.12,-161.23 270.12,-142.73 355.12,-142.73 355.12,-161.23"/>
<text text-anchor="middle" x="312.62" y="-147.73" font-family="Helvetica,sans-Serif" font-size="10.00">arax_task_alloc</text>
</a>
</g>
</g>
<!-- Node23&#45;&gt;Node24 -->
<g id="edge28_Node000023_Node000024" class="edge">
<title>Node23&#45;&gt;Node24</title>
<g id="a_edge28_Node000023_Node000024"><a xlink:title=" ">
<path fill="none" stroke="#63b8ff" d="M193.07,-216.24C208.48,-205.41 234.6,-187.75 258.5,-174.98 264.43,-171.81 270.9,-168.72 277.2,-165.89"/>
<polygon fill="#63b8ff" stroke="#63b8ff" points="278.12,-168.88 285.9,-161.69 275.33,-162.46 278.12,-168.88"/>
</a>
</g>
</g>
<!-- Node36 -->
<g id="Node000036" class="node">
<title>Node36</title>
<g id="a_Node000036"><a xlink:href="a01922.html#aa3cb73b347940187fb3399f51b1a55b7" target="_top" xlink:title=" ">
<polygon fill="white" stroke="#666666" points="366.38,-235.23 258.88,-235.23 258.88,-216.73 366.38,-216.73 366.38,-235.23"/>
<text text-anchor="middle" x="312.62" y="-221.73" font-family="Helvetica,sans-Serif" font-size="10.00">arax_task_host_data</text>
</a>
</g>
</g>
<!-- Node23&#45;&gt;Node36 -->
<g id="edge47_Node000023_Node000036" class="edge">
<title>Node23&#45;&gt;Node36</title>
<g id="a_edge47_Node000023_Node000036"><a xlink:title=" ">
<path fill="none" stroke="#63b8ff" d="M222.76,-225.98C230.72,-225.98 239.17,-225.98 247.59,-225.98"/>
<polygon fill="#63b8ff" stroke="#63b8ff" points="247.57,-229.48 257.57,-225.98 247.57,-222.48 247.57,-229.48"/>
</a>
</g>
</g>
<!-- Node37 -->
<g id="Node000037" class="node">
<title>Node37</title>
<g id="a_Node000037"><a xlink:href="a01922.html#ace08f924cb86d1310099621564536657" target="_top" xlink:title=" ">
<polygon fill="white" stroke="#666666" points="667.25,-198.23 573.25,-198.23 573.25,-179.73 667.25,-179.73 667.25,-198.23"/>
<text text-anchor="middle" x="620.25" y="-184.73" font-family="Helvetica,sans-Serif" font-size="10.00">arax_task_submit</text>
</a>
</g>
</g>
<!-- Node23&#45;&gt;Node37 -->
<g id="edge48_Node000023_Node000037" class="edge">
<title>Node23&#45;&gt;Node37</title>
<g id="a_edge48_Node000023_Node000037"><a xlink:title=" ">
<path fill="none" stroke="#63b8ff" d="M216.23,-216.23C229.47,-213.09 244.57,-209.92 258.5,-207.98 364.93,-193.16 490.49,-189.67 561.9,-188.98"/>
<polygon fill="#63b8ff" stroke="#63b8ff" points="561.91,-192.47 571.88,-188.89 561.85,-185.47 561.91,-192.47"/>
</a>
</g>
</g>
<!-- Node41 -->
<g id="Node000041" class="node">
<title>Node41</title>
<g id="a_Node000041"><a xlink:href="a01898.html#a226d4d420328a42fd671699ae60c4c3a" target="_top" xlink:title=" ">
<polygon fill="white" stroke="#666666" points="358.88,-272.23 266.38,-272.23 266.38,-253.73 358.88,-253.73 358.88,-272.23"/>
<text text-anchor="middle" x="312.62" y="-258.73" font-family="Helvetica,sans-Serif" font-size="10.00">check_semantics</text>
</a>
</g>
</g>
<!-- Node23&#45;&gt;Node41 -->
<g id="edge56_Node000023_Node000041" class="edge">
<title>Node23&#45;&gt;Node41</title>
<g id="a_edge56_Node000023_Node000041"><a xlink:title=" ">
<path fill="none" stroke="#63b8ff" d="M214.21,-235.7C230.3,-240.2 249.61,-245.61 266.78,-250.42"/>
<polygon fill="#63b8ff" stroke="#63b8ff" points="265.57,-254 276.14,-253.32 267.46,-247.26 265.57,-254"/>
</a>
</g>
</g>
<!-- Node25 -->
<g id="Node000025" class="node">
<title>Node25</title>
<g id="a_Node000025"><a xlink:href="a01931.html#a1dc669466d6f52d5be8af2d991512ac2" target="_top" xlink:title=" ">
<polygon fill="white" stroke="#666666" points="514,-272.23 410.25,-272.23 410.25,-253.73 514,-253.73 514,-272.23"/>
<text text-anchor="middle" x="462.12" y="-258.73" font-family="Helvetica,sans-Serif" font-size="10.00">arax_data_input_init</text>
</a>
</g>
</g>
<!-- Node24&#45;&gt;Node25 -->
<g id="edge29_Node000024_Node000025" class="edge">
<title>Node24&#45;&gt;Node25</title>
<g id="a_edge29_Node000024_Node000025"><a xlink:title=" ">
<path fill="none" stroke="#63b8ff" d="M322.57,-161.45C344.2,-184.34 397.94,-240.98 402.75,-243.98 405.73,-245.84 408.92,-247.54 412.2,-249.08"/>
<polygon fill="#63b8ff" stroke="#63b8ff" points="410.67,-252.66 421.25,-253.27 413.37,-246.19 410.67,-252.66"/>
</a>
</g>
</g>
<!-- Node28 -->
<g id="Node000028" class="node">
<title>Node28</title>
<g id="a_Node000028"><a xlink:href="a01931.html#a18d07d808917e0b971d46332e9e64da4" target="_top" xlink:title=" ">
<polygon fill="white" stroke="#666666" points="517,-235.23 407.25,-235.23 407.25,-216.73 517,-216.73 517,-235.23"/>
<text text-anchor="middle" x="462.12" y="-221.73" font-family="Helvetica,sans-Serif" font-size="10.00">arax_data_output_init</text>
</a>
</g>
</g>
<!-- Node24&#45;&gt;Node28 -->
<g id="edge35_Node000024_Node000028" class="edge">
<title>Node24&#45;&gt;Node28</title>
<g id="a_edge35_Node000024_Node000028"><a xlink:title=" ">
<path fill="none" stroke="#63b8ff" d="M332.91,-161.65C358.19,-174.34 402.78,-196.71 432.14,-211.44"/>
<polygon fill="#63b8ff" stroke="#63b8ff" points="430.33,-214.95 440.84,-216.3 433.47,-208.69 430.33,-214.95"/>
</a>
</g>
</g>
<!-- Node29 -->
<g id="Node000029" class="node">
<title>Node29</title>
<g id="a_Node000029"><a xlink:href="a01910.html#a402bbd6fa197c2c48d527325e5e2cf5b" target="_top" xlink:title=" ">
<polygon fill="white" stroke="#666666" points="672.5,-124.23 568,-124.23 568,-105.73 672.5,-105.73 672.5,-124.23"/>
<text text-anchor="middle" x="620.25" y="-110.73" font-family="Helvetica,sans-Serif" font-size="10.00">arax_object_register</text>
</a>
</g>
</g>
<!-- Node24&#45;&gt;Node29 -->
<g id="edge38_Node000024_Node000029" class="edge">
<title>Node24&#45;&gt;Node29</title>
<g id="a_edge38_Node000024_Node000029"><a xlink:title=" ">
<path fill="none" stroke="#63b8ff" d="M355.62,-142.49C370.45,-139.41 387.28,-136.21 402.75,-133.98 454.45,-126.51 513.55,-121.57 556.93,-118.6"/>
<polygon fill="#63b8ff" stroke="#63b8ff" points="557.14,-122.02 566.88,-117.86 556.67,-115.04 557.14,-122.02"/>
</a>
</g>
</g>
<!-- Node35 -->
<g id="Node000035" class="node">
<title>Node35</title>
<g id="a_Node000035"><a xlink:href="a02352.html#ac728117d73179c279de49e01ae905dda" target="_top" xlink:title=" ">
<polygon fill="white" stroke="#666666" points="518.12,-161.23 406.12,-161.23 406.12,-142.73 518.12,-142.73 518.12,-161.23"/>
<text text-anchor="middle" x="462.12" y="-147.73" font-family="Helvetica,sans-Serif" font-size="10.00">async_completion_init</text>
</a>
</g>
</g>
<!-- Node24&#45;&gt;Node35 -->
<g id="edge45_Node000024_Node000035" class="edge">
<title>Node24&#45;&gt;Node35</title>
<g id="a_edge45_Node000024_Node000035"><a xlink:title=" ">
<path fill="none" stroke="#63b8ff" d="M355.5,-151.98C367.8,-151.98 381.56,-151.98 394.98,-151.98"/>
<polygon fill="#63b8ff" stroke="#63b8ff" points="394.64,-155.48 404.64,-151.98 394.64,-148.48 394.64,-155.48"/>
</a>
</g>
</g>
<!-- Node25&#45;&gt;Node11 -->
<g id="edge34_Node000025_Node000011" class="edge">
<title>Node25&#45;&gt;Node11</title>
<g id="a_edge34_Node000025_Node000011"><a xlink:title=" ">
<path fill="none" stroke="#63b8ff" d="M504.7,-272.66C521.05,-276.01 540.06,-279.33 557.5,-280.98 611.38,-286.07 672.97,-285.55 717.43,-284.06"/>
<polygon fill="#63b8ff" stroke="#63b8ff" points="717.48,-287.52 727.34,-283.66 717.22,-280.53 717.48,-287.52"/>
</a>
</g>
</g>
<!-- Node26 -->
<g id="Node000026" class="node">
<title>Node26</title>
<g id="a_Node000026"><a xlink:href="a01931.html#a4b65f90a821aca384f0ca1cff7bd1846" target="_top" xlink:title=" ">
<polygon fill="white" stroke="#666666" points="683,-272.23 557.5,-272.23 557.5,-253.73 683,-253.73 683,-272.23"/>
<text text-anchor="middle" x="620.25" y="-258.73" font-family="Helvetica,sans-Serif" font-size="10.00">arax_data_migrate_accel</text>
</a>
</g>
</g>
<!-- Node25&#45;&gt;Node26 -->
<g id="edge30_Node000025_Node000026" class="edge">
<title>Node25&#45;&gt;Node26</title>
<g id="a_edge30_Node000025_Node000026"><a xlink:title=" ">
<path fill="none" stroke="#63b8ff" d="M514.25,-262.98C524.52,-262.98 535.5,-262.98 546.35,-262.98"/>
<polygon fill="#63b8ff" stroke="#63b8ff" points="546.12,-266.48 556.12,-262.98 546.12,-259.48 546.12,-266.48"/>
</a>
</g>
</g>
<!-- Node26&#45;&gt;Node11 -->
<g id="edge32_Node000026_Node000011" class="edge">
<title>Node26&#45;&gt;Node11</title>
<g id="a_edge32_Node000026_Node000011"><a xlink:title=" ">
<path fill="none" stroke="#63b8ff" d="M683.4,-270.09C694.72,-271.39 706.52,-272.74 717.79,-274.03"/>
<polygon fill="#63b8ff" stroke="#63b8ff" points="717.08,-277.59 727.41,-275.25 717.88,-270.63 717.08,-277.59"/>
</a>
</g>
</g>
<!-- Node26&#45;&gt;Node17 -->
<g id="edge31_Node000026_Node000017" class="edge">
<title>Node26&#45;&gt;Node17</title>
<g id="a_edge31_Node000026_Node000017"><a xlink:title=" ">
<path fill="none" stroke="#63b8ff" d="M646.46,-272.61C666.13,-280.04 694.2,-290.46 719,-298.98 724.85,-300.99 731.04,-303.04 737.14,-305.03"/>
<polygon fill="#63b8ff" stroke="#63b8ff" points="735.63,-308.54 746.23,-308.28 737.78,-301.88 735.63,-308.54"/>
</a>
</g>
</g>
<!-- Node27 -->
<g id="Node000027" class="node">
<title>Node27</title>
<g id="a_Node000027"><a xlink:href="a01910.html#a668fd893484b6e2d67d8b372b508d14f" target="_top" xlink:title=" ">
<polygon fill="white" stroke="#666666" points="840,-253.23 719,-253.23 719,-234.73 840,-234.73 840,-253.23"/>
<text text-anchor="middle" x="779.5" y="-239.73" font-family="Helvetica,sans-Serif" font-size="10.00">arax_object_type_to_str</text>
</a>
</g>
</g>
<!-- Node26&#45;&gt;Node27 -->
<g id="edge33_Node000026_Node000027" class="edge">
<title>Node26&#45;&gt;Node27</title>
<g id="a_edge33_Node000026_Node000027"><a xlink:title=" ">
<path fill="none" stroke="#63b8ff" d="M683.4,-255.47C691.46,-254.5 699.76,-253.49 707.94,-252.5"/>
<polygon fill="#63b8ff" stroke="#63b8ff" points="708.09,-255.89 717.6,-251.22 707.25,-248.94 708.09,-255.89"/>
</a>
</g>
</g>
<!-- Node28&#45;&gt;Node11 -->
<g id="edge37_Node000028_Node000011" class="edge">
<title>Node28&#45;&gt;Node11</title>
<g id="a_edge37_Node000028_Node000011"><a xlink:title=" ">
<path fill="none" stroke="#63b8ff" d="M517.36,-225.36C562.44,-226.1 627.88,-230.1 683,-244.98 700.08,-249.59 702.54,-255.5 719,-261.98 724.16,-264.01 729.64,-265.99 735.1,-267.86"/>
<polygon fill="#63b8ff" stroke="#63b8ff" points="733.9,-271.48 744.49,-271.29 736.1,-264.83 733.9,-271.48"/>
</a>
</g>
</g>
<!-- Node28&#45;&gt;Node26 -->
<g id="edge36_Node000028_Node000026" class="edge">
<title>Node28&#45;&gt;Node26</title>
<g id="a_edge36_Node000028_Node000026"><a xlink:title=" ">
<path fill="none" stroke="#63b8ff" d="M504.15,-235.7C523.61,-240.31 547.07,-245.87 567.73,-250.77"/>
<polygon fill="#63b8ff" stroke="#63b8ff" points="566.7,-254.36 577.23,-253.26 568.31,-247.55 566.7,-254.36"/>
</a>
</g>
</g>
<!-- Node30 -->
<g id="Node000030" class="node">
<title>Node30</title>
<g id="a_Node000030"><a xlink:href="a01913.html#a1cfa2c90268c6e53ce376beb7cce153c" target="_top" xlink:title=" ">
<polygon fill="white" stroke="#666666" points="983.88,-96.23 881.62,-96.23 881.62,-77.73 983.88,-77.73 983.88,-96.23"/>
<text text-anchor="middle" x="932.75" y="-82.73" font-family="Helvetica,sans-Serif" font-size="10.00">arax_pipe_size_dec</text>
</a>
</g>
</g>
<!-- Node29&#45;&gt;Node30 -->
<g id="edge39_Node000029_Node000030" class="edge">
<title>Node29&#45;&gt;Node30</title>
<g id="a_edge39_Node000029_Node000030"><a xlink:title=" ">
<path fill="none" stroke="#63b8ff" d="M666.81,-105.27C683.19,-102.13 701.86,-98.95 719,-96.98 769.86,-91.13 827.93,-88.68 870.54,-87.67"/>
<polygon fill="#63b8ff" stroke="#63b8ff" points="870.38,-91.15 880.3,-87.43 870.23,-84.15 870.38,-91.15"/>
</a>
</g>
</g>
<!-- Node31 -->
<g id="Node000031" class="node">
<title>Node31</title>
<g id="a_Node000031"><a xlink:href="a02343.html#ac9828b5c2758940f6d3c7d4335228de5" target="_top" xlink:title=" ">
<polygon fill="white" stroke="#666666" points="829.12,-124.23 729.88,-124.23 729.88,-105.73 829.12,-105.73 829.12,-124.23"/>
<text text-anchor="middle" x="779.5" y="-110.73" font-family="Helvetica,sans-Serif" font-size="10.00">arch_alloc_allocate</text>
</a>
</g>
</g>
<!-- Node29&#45;&gt;Node31 -->
<g id="edge41_Node000029_Node000031" class="edge">
<title>Node29&#45;&gt;Node31</title>
<g id="a_edge41_Node000029_Node000031"><a xlink:title=" ">
<path fill="none" stroke="#63b8ff" d="M672.74,-114.98C687.44,-114.98 703.59,-114.98 718.74,-114.98"/>
<polygon fill="#63b8ff" stroke="#63b8ff" points="718.57,-118.48 728.57,-114.98 718.57,-111.48 718.57,-118.48"/>
</a>
</g>
</g>
<!-- Node32 -->
<g id="Node000032" class="node">
<title>Node32</title>
<g id="a_Node000032"><a xlink:href="a01946.html#ae06a9e78e6a4f6c9c8afcf0f4862ce29" target="_top" xlink:title=" ">
<polygon fill="white" stroke="#666666" points="816,-50.23 743,-50.23 743,-31.73 816,-31.73 816,-50.23"/>
<text text-anchor="middle" x="779.5" y="-36.73" font-family="Helvetica,sans-Serif" font-size="10.00">utils_list_add</text>
</a>
</g>
</g>
<!-- Node29&#45;&gt;Node32 -->
<g id="edge42_Node000029_Node000032" class="edge">
<title>Node29&#45;&gt;Node32</title>
<g id="a_edge42_Node000029_Node000032"><a xlink:title=" ">
<path fill="none" stroke="#63b8ff" d="M661.49,-105.34C668.88,-102.81 676.35,-99.72 683,-95.98 701.66,-85.48 700.72,-75.13 719,-63.98 724.71,-60.5 731.03,-57.38 737.37,-54.64"/>
<polygon fill="#63b8ff" stroke="#63b8ff" points="738.27,-57.65 746.24,-50.67 735.66,-51.16 738.27,-57.65"/>
</a>
</g>
</g>
<!-- Node34 -->
<g id="Node000034" class="node">
<title>Node34</title>
<g id="a_Node000034"><a xlink:href="a01946.html#a63f2791c9b5c8e2fa15967cfafb7ccbb" target="_top" xlink:title=" ">
<polygon fill="white" stroke="#666666" points="827.62,-161.23 731.38,-161.23 731.38,-142.73 827.62,-142.73 827.62,-161.23"/>
<text text-anchor="middle" x="779.5" y="-147.73" font-family="Helvetica,sans-Serif" font-size="10.00">utils_list_node_init</text>
</a>
</g>
</g>
<!-- Node29&#45;&gt;Node34 -->
<g id="edge44_Node000029_Node000034" class="edge">
<title>Node29&#45;&gt;Node34</title>
<g id="a_edge44_Node000029_Node000034"><a xlink:title=" ">
<path fill="none" stroke="#63b8ff" d="M662.57,-124.7C682.17,-129.31 705.8,-134.87 726.6,-139.77"/>
<polygon fill="#63b8ff" stroke="#63b8ff" points="725.65,-143.37 736.19,-142.26 727.26,-136.56 725.65,-143.37"/>
</a>
</g>
</g>
<!-- Node30&#45;&gt;Node3 -->
<g id="edge40_Node000030_Node000003" class="edge">
<title>Node30&#45;&gt;Node3</title>
<g id="a_edge40_Node000030_Node000003"><a xlink:title=" ">
<path fill="none" stroke="#63b8ff" d="M984.23,-90.39C993.87,-91.04 1004.11,-91.74 1014.19,-92.42"/>
<polygon fill="#63b8ff" stroke="#63b8ff" points="1013.82,-95.97 1024.03,-93.15 1014.29,-88.98 1013.82,-95.97"/>
</a>
</g>
</g>
<!-- Node33 -->
<g id="Node000033" class="node">
<title>Node33</title>
<g id="a_Node000033"><a xlink:href="a01946.html#a5c575f52a42e0e0d2fb41bda2d1268ce" target="_top" xlink:title=" ">
<polygon fill="white" stroke="#666666" points="982.38,-50.23 883.12,-50.23 883.12,-31.73 982.38,-31.73 982.38,-50.23"/>
<text text-anchor="middle" x="932.75" y="-36.73" font-family="Helvetica,sans-Serif" font-size="10.00">utils_list_node_add</text>
</a>
</g>
</g>
<!-- Node32&#45;&gt;Node33 -->
<g id="edge43_Node000032_Node000033" class="edge">
<title>Node32&#45;&gt;Node33</title>
<g id="a_edge43_Node000032_Node000033"><a xlink:title=" ">
<path fill="none" stroke="#63b8ff" d="M816.34,-40.98C832.92,-40.98 853.06,-40.98 871.85,-40.98"/>
<polygon fill="#63b8ff" stroke="#63b8ff" points="871.72,-44.48 881.72,-40.98 871.72,-37.48 871.72,-44.48"/>
</a>
</g>
</g>
<!-- Node35&#45;&gt;Node34 -->
<g id="edge46_Node000035_Node000034" class="edge">
<title>Node35&#45;&gt;Node34</title>
<g id="a_edge46_Node000035_Node000034"><a xlink:title=" ">
<path fill="none" stroke="#63b8ff" d="M518.42,-151.98C575.01,-151.98 662.6,-151.98 720.25,-151.98"/>
<polygon fill="#63b8ff" stroke="#63b8ff" points="720,-155.48 730,-151.98 720,-148.48 720,-155.48"/>
</a>
</g>
</g>
<!-- Node37&#45;&gt;Node11 -->
<g id="edge49_Node000037_Node000011" class="edge">
<title>Node37&#45;&gt;Node11</title>
<g id="a_edge49_Node000037_Node000011"><a xlink:title=" ">
<path fill="none" stroke="#63b8ff" d="M658.04,-198.65C666.75,-201.99 675.63,-206.36 683,-211.98 704.77,-228.59 696.84,-245.89 719,-261.98 721.39,-263.71 723.94,-265.29 726.59,-266.73"/>
<polygon fill="#63b8ff" stroke="#63b8ff" points="724.99,-270.31 735.53,-271.34 727.94,-263.96 724.99,-270.31"/>
</a>
</g>
</g>
<!-- Node38 -->
<g id="Node000038" class="node">
<title>Node38</title>
<g id="a_Node000038"><a xlink:href="a01928.html#a8b82433bc8c7d7f03683ac521a3679fa" target="_top" xlink:title=" ">
<polygon fill="white" stroke="#666666" points="989.5,-180.23 876,-180.23 876,-161.73 989.5,-161.73 989.5,-180.23"/>
<text text-anchor="middle" x="932.75" y="-166.73" font-family="Helvetica,sans-Serif" font-size="10.00">arax_vaccel_add_task</text>
</a>
</g>
</g>
<!-- Node37&#45;&gt;Node38 -->
<g id="edge50_Node000037_Node000038" class="edge">
<title>Node37&#45;&gt;Node38</title>
<g id="a_edge50_Node000037_Node000038"><a xlink:title=" ">
<path fill="none" stroke="#63b8ff" d="M667.73,-186.28C720.05,-183.25 805.49,-178.3 864.95,-174.85"/>
<polygon fill="#63b8ff" stroke="#63b8ff" points="864.96,-178.3 874.74,-174.23 864.55,-171.31 864.96,-178.3"/>
</a>
</g>
</g>
<!-- Node39 -->
<g id="Node000039" class="node">
<title>Node39</title>
<g id="a_Node000039"><a xlink:href="a01904.html#ab6afd8cc035237c811ce6a1b7727acc3" target="_top" xlink:title=" ">
<polygon fill="white" stroke="#666666" points="1137.12,-180.23 1028.12,-180.23 1028.12,-161.73 1137.12,-161.73 1137.12,-180.23"/>
<text text-anchor="middle" x="1082.62" y="-166.73" font-family="Helvetica,sans-Serif" font-size="10.00">arax_accel_add_task</text>
</a>
</g>
</g>
<!-- Node38&#45;&gt;Node39 -->
<g id="edge51_Node000038_Node000039" class="edge">
<title>Node38&#45;&gt;Node39</title>
<g id="a_edge51_Node000038_Node000039"><a xlink:title=" ">
<path fill="none" stroke="#63b8ff" d="M989.66,-170.98C998.71,-170.98 1008.15,-170.98 1017.38,-170.98"/>
<polygon fill="#63b8ff" stroke="#63b8ff" points="1017.09,-174.48 1027.09,-170.98 1017.09,-167.48 1017.09,-174.48"/>
</a>
</g>
</g>
<!-- Node40 -->
<g id="Node000040" class="node">
<title>Node40</title>
<g id="a_Node000040"><a xlink:href="a01949.html#a9fae55b169121c4851bb7c0adf4eac47" target="_top" xlink:title=" ">
<polygon fill="white" stroke="#666666" points="1128.5,-143.23 1036.75,-143.23 1036.75,-124.73 1128.5,-124.73 1128.5,-143.23"/>
<text text-anchor="middle" x="1082.62" y="-129.73" font-family="Helvetica,sans-Serif" font-size="10.00">utils_queue_push</text>
</a>
</g>
</g>
<!-- Node38&#45;&gt;Node40 -->
<g id="edge55_Node000038_Node000040" class="edge">
<title>Node38&#45;&gt;Node40</title>
<g id="a_edge55_Node000038_Node000040"><a xlink:title=" ">
<path fill="none" stroke="#63b8ff" d="M972.6,-161.26C990.87,-156.69 1012.86,-151.19 1032.28,-146.32"/>
<polygon fill="#63b8ff" stroke="#63b8ff" points="1032.92,-149.52 1041.78,-143.7 1031.23,-142.73 1032.92,-149.52"/>
</a>
</g>
</g>
<!-- Node39&#45;&gt;Node4 -->
<g id="edge52_Node000039_Node000004" class="edge">
<title>Node39&#45;&gt;Node4</title>
<g id="a_edge52_Node000039_Node000004"><a xlink:title=" ">
<path fill="none" stroke="#63b8ff" d="M1137.24,-170.98C1147.79,-170.98 1158.96,-170.98 1169.82,-170.98"/>
<polygon fill="#63b8ff" stroke="#63b8ff" points="1169.55,-174.48 1179.55,-170.98 1169.55,-167.48 1169.55,-174.48"/>
</a>
</g>
</g>
<!-- Node39&#45;&gt;Node6 -->
<g id="edge54_Node000039_Node000006" class="edge">
<title>Node39&#45;&gt;Node6</title>
<g id="a_edge54_Node000039_Node000006"><a xlink:title=" ">
<path fill="none" stroke="#63b8ff" d="M1123.27,-161.26C1141.99,-156.67 1164.54,-151.13 1184.43,-146.26"/>
<polygon fill="#63b8ff" stroke="#63b8ff" points="1184.98,-149.48 1193.86,-143.7 1183.32,-142.68 1184.98,-149.48"/>
</a>
</g>
</g>
<!-- Node39&#45;&gt;Node20 -->
<g id="edge53_Node000039_Node000020" class="edge">
<title>Node39&#45;&gt;Node20</title>
<g id="a_edge53_Node000039_Node000020"><a xlink:title=" ">
<path fill="none" stroke="#63b8ff" d="M1123.27,-180.7C1141.99,-185.29 1164.54,-190.82 1184.43,-195.7"/>
<polygon fill="#63b8ff" stroke="#63b8ff" points="1183.32,-199.28 1193.86,-198.26 1184.98,-192.48 1183.32,-199.28"/>
</a>
</g>
</g>
<!-- Node43 -->
<g id="Node000043" class="node">
<title>Node43</title>
<g id="a_Node000043"><a xlink:href="a01922.html#a0d3707df989265f8cf380acdef95eb02" target="_top" xlink:title=" ">
<polygon fill="white" stroke="#666666" points="366.75,-106.23 258.5,-106.23 258.5,-87.73 366.75,-87.73 366.75,-106.23"/>
<text text-anchor="middle" x="312.62" y="-92.73" font-family="Helvetica,sans-Serif" font-size="10.00">arax_task_wait_done</text>
</a>
</g>
</g>
<!-- Node42&#45;&gt;Node43 -->
<g id="edge58_Node000042_Node000043" class="edge">
<title>Node42&#45;&gt;Node43</title>
<g id="a_edge58_Node000042_Node000043"><a xlink:title=" ">
<path fill="none" stroke="#63b8ff" d="M196.77,-161.3C219.23,-148.73 258.67,-126.64 284.97,-111.91"/>
<polygon fill="#63b8ff" stroke="#63b8ff" points="286.33,-114.6 293.35,-106.66 282.91,-108.49 286.33,-114.6"/>
</a>
</g>
</g>
<!-- Node44 -->
<g id="Node000044" class="node">
<title>Node44</title>
<g id="a_Node000044"><a xlink:href="a02352.html#aebf9e72bb6cbd8b9e33489d46c25075d" target="_top" xlink:title=" ">
<polygon fill="white" stroke="#666666" points="520.38,-87.23 403.88,-87.23 403.88,-68.73 520.38,-68.73 520.38,-87.23"/>
<text text-anchor="middle" x="462.12" y="-73.73" font-family="Helvetica,sans-Serif" font-size="10.00">async_completion_wait</text>
</a>
</g>
</g>
<!-- Node43&#45;&gt;Node44 -->
<g id="edge59_Node000043_Node000044" class="edge">
<title>Node43&#45;&gt;Node44</title>
<g id="a_edge59_Node000043_Node000044"><a xlink:title=" ">
<path fill="none" stroke="#63b8ff" d="M366.88,-90.12C375.23,-89.04 383.97,-87.92 392.61,-86.81"/>
<polygon fill="#63b8ff" stroke="#63b8ff" points="392.99,-90.16 402.46,-85.41 392.1,-83.21 392.99,-90.16"/>
</a>
</g>
</g>
<!-- Node45 -->
<g id="Node000045" class="node">
<title>Node45</title>
<g id="a_Node000045"><a xlink:href="a02346.html#aa459f71b73bbc23f0b4bb342d093dde3" target="_top" xlink:title=" ">
<polygon fill="white" stroke="#666666" points="665,-87.23 575.5,-87.23 575.5,-68.73 665,-68.73 665,-87.23"/>
<text text-anchor="middle" x="620.25" y="-73.73" font-family="Helvetica,sans-Serif" font-size="10.00">_add_completion</text>
</a>
</g>
</g>
<!-- Node44&#45;&gt;Node45 -->
<g id="edge60_Node000044_Node000045" class="edge">
<title>Node44&#45;&gt;Node45</title>
<g id="a_edge60_Node000044_Node000045"><a xlink:title=" ">
<path fill="none" stroke="#63b8ff" d="M520.82,-77.98C535.21,-77.98 550.61,-77.98 564.84,-77.98"/>
<polygon fill="#63b8ff" stroke="#63b8ff" points="564.46,-81.48 574.46,-77.98 564.46,-74.48 564.46,-81.48"/>
</a>
</g>
</g>
<!-- Node46 -->
<g id="Node000046" class="node">
<title>Node46</title>
<g id="a_Node000046"><a xlink:href="a02346.html#a49083e8ceb4bfe7793ca1a5a799834d0" target="_top" xlink:title=" ">
<polygon fill="white" stroke="#666666" points="647.75,-50.23 592.75,-50.23 592.75,-31.73 647.75,-31.73 647.75,-50.23"/>
<text text-anchor="middle" x="620.25" y="-36.73" font-family="Helvetica,sans-Serif" font-size="10.00">getVmID</text>
</a>
</g>
</g>
<!-- Node44&#45;&gt;Node46 -->
<g id="edge62_Node000044_Node000046" class="edge">
<title>Node44&#45;&gt;Node46</title>
<g id="a_edge62_Node000044_Node000046"><a xlink:title=" ">
<path fill="none" stroke="#63b8ff" d="M504.15,-68.26C528.32,-62.53 558.67,-55.34 582.14,-49.77"/>
<polygon fill="#63b8ff" stroke="#63b8ff" points="582.79,-52.98 591.72,-47.27 581.18,-46.17 582.79,-52.98"/>
</a>
</g>
</g>
<!-- Node45&#45;&gt;Node32 -->
<g id="edge61_Node000045_Node000032" class="edge">
<title>Node45&#45;&gt;Node32</title>
<g id="a_edge61_Node000045_Node000032"><a xlink:title=" ">
<path fill="none" stroke="#63b8ff" d="M662.57,-68.26C683.91,-63.23 710.04,-57.09 732.08,-51.9"/>
<polygon fill="#63b8ff" stroke="#63b8ff" points="732.61,-55.14 741.54,-49.44 731,-48.32 732.61,-55.14"/>
</a>
</g>
</g>
</g>
</svg>
