<?xml version="1.0" encoding="UTF-8" standalone="no"?>
<!DOCTYPE svg PUBLIC "-//W3C//DTD SVG 1.1//EN"
 "http://www.w3.org/Graphics/SVG/1.1/DTD/svg11.dtd">
<!-- Generated by graphviz version 12.2.1 (0)
 -->
<!-- Title: arax_pipe_find_accel Pages: 1 -->
<svg width="271pt" height="101pt"
 viewBox="0.00 0.00 271.00 100.50" xmlns="http://www.w3.org/2000/svg" xmlns:xlink="http://www.w3.org/1999/xlink">
<g id="graph0" class="graph" transform="scale(1 1) rotate(0) translate(4 96.5)">
<title>arax_pipe_find_accel</title>
<!-- Node1 -->
<g id="Node000001" class="node">
<title>Node1</title>
<g id="a_Node000001"><a xlink:title=" ">
<polygon fill="#999999" stroke="#666666" points="108.25,-55.5 0,-55.5 0,-37 108.25,-37 108.25,-55.5"/>
<text text-anchor="middle" x="54.12" y="-42" font-family="Helvetica,sans-Serif" font-size="10.00">arax_pipe_find_accel</text>
</a>
</g>
</g>
<!-- Node2 -->
<g id="Node000002" class="node">
<title>Node2</title>
<g id="a_Node000002"><a xlink:href="a01916.html#a800ddc33d183998387064192c52d7ca5" target="_top" xlink:title=" ">
<polygon fill="white" stroke="#666666" points="259.62,-92.5 147.62,-92.5 147.62,-74 259.62,-74 259.62,-92.5"/>
<text text-anchor="middle" x="203.62" y="-79" font-family="Helvetica,sans-Serif" font-size="10.00">arax_accel_get_name</text>
</a>
</g>
</g>
<!-- Node1&#45;&gt;Node2 -->
<g id="edge1_Node000001_Node000002" class="edge">
<title>Node1&#45;&gt;Node2</title>
<g id="a_edge1_Node000001_Node000002"><a xlink:title=" ">
<path fill="none" stroke="#63b8ff" d="M93.88,-55.97C111.93,-60.5 133.62,-65.94 152.87,-70.77"/>
<polygon fill="#63b8ff" stroke="#63b8ff" points="151.85,-74.12 162.41,-73.16 153.56,-67.33 151.85,-74.12"/>
</a>
</g>
</g>
<!-- Node3 -->
<g id="Node000003" class="node">
<title>Node3</title>
<g id="a_Node000003"><a xlink:href="a01925.html#aa750d1c54fe430c1294b9c8a9d3e1466" target="_top" xlink:title=" ">
<polygon fill="white" stroke="#666666" points="257.75,-55.5 149.5,-55.5 149.5,-37 257.75,-37 257.75,-55.5"/>
<text text-anchor="middle" x="203.62" y="-42" font-family="Helvetica,sans-Serif" font-size="10.00">arax_object_list_lock</text>
</a>
</g>
</g>
<!-- Node1&#45;&gt;Node3 -->
<g id="edge2_Node000001_Node000003" class="edge">
<title>Node1&#45;&gt;Node3</title>
<g id="a_edge2_Node000001_Node000003"><a xlink:title=" ">
<path fill="none" stroke="#63b8ff" d="M108.38,-46.25C117.98,-46.25 128.1,-46.25 137.99,-46.25"/>
<polygon fill="#63b8ff" stroke="#63b8ff" points="137.94,-49.75 147.94,-46.25 137.94,-42.75 137.94,-49.75"/>
</a>
</g>
</g>
<!-- Node4 -->
<g id="Node000004" class="node">
<title>Node4</title>
<g id="a_Node000004"><a xlink:href="a01925.html#abb03d3cde2d1354544cd082482c3f185" target="_top" xlink:title=" ">
<polygon fill="white" stroke="#666666" points="263,-18.5 144.25,-18.5 144.25,0 263,0 263,-18.5"/>
<text text-anchor="middle" x="203.62" y="-5" font-family="Helvetica,sans-Serif" font-size="10.00">arax_object_list_unlock</text>
</a>
</g>
</g>
<!-- Node1&#45;&gt;Node4 -->
<g id="edge3_Node000001_Node000004" class="edge">
<title>Node1&#45;&gt;Node4</title>
<g id="a_edge3_Node000001_Node000004"><a xlink:title=" ">
<path fill="none" stroke="#63b8ff" d="M93.88,-36.53C111.93,-32 133.62,-26.56 152.87,-21.73"/>
<polygon fill="#63b8ff" stroke="#63b8ff" points="153.56,-25.17 162.41,-19.34 151.85,-18.38 153.56,-25.17"/>
</a>
</g>
</g>
</g>
</svg>
