<?xml version="1.0" encoding="UTF-8" standalone="no"?>
<!DOCTYPE svg PUBLIC "-//W3C//DTD SVG 1.1//EN"
 "http://www.w3.org/Graphics/SVG/1.1/DTD/svg11.dtd">
<!-- Generated by graphviz version 12.2.1 (0)
 -->
<!-- Title: utils_config_get_source Pages: 1 -->
<svg width="1854pt" height="243pt"
 viewBox="0.00 0.00 1853.50 242.61" xmlns="http://www.w3.org/2000/svg" xmlns:xlink="http://www.w3.org/1999/xlink">
<g id="graph0" class="graph" transform="scale(1 1) rotate(0) translate(4 238.61)">
<title>utils_config_get_source</title>
<!-- Node1 -->
<g id="Node000001" class="node">
<title>Node1</title>
<g id="a_Node000001"><a xlink:title=" ">
<polygon fill="#999999" stroke="#666666" points="1845.5,-148.5 1726.75,-148.5 1726.75,-130 1845.5,-130 1845.5,-148.5"/>
<text text-anchor="middle" x="1786.12" y="-135" font-family="Helvetica,sans-Serif" font-size="10.00">utils_config_get_source</text>
</a>
</g>
</g>
<!-- Node2 -->
<g id="Node000002" class="node">
<title>Node2</title>
<g id="a_Node000002"><a xlink:href="a01910.html#a02fd608f651d254148dc74f0ae371dfe" target="_top" xlink:title=" ">
<polygon fill="white" stroke="#666666" points="577.25,-149.5 518.5,-149.5 518.5,-131 577.25,-131 577.25,-149.5"/>
<text text-anchor="middle" x="547.88" y="-136" font-family="Helvetica,sans-Serif" font-size="10.00">_arax_init</text>
</a>
</g>
</g>
<!-- Node1&#45;&gt;Node2 -->
<g id="edge1_Node000001_Node000002" class="edge">
<title>Node1&#45;&gt;Node2</title>
<g id="a_edge1_Node000001_Node000002"><a xlink:title=" ">
<path fill="none" stroke="#63b8ff" d="M1762.43,-155.17C1721.58,-182.23 1632.1,-234.25 1548.12,-234.25 1548.12,-234.25 1548.12,-234.25 825.62,-234.25 729.89,-234.25 699.43,-239.95 613.25,-198.25 589.15,-186.59 567.44,-163.1 556.45,-149.87"/>
<polygon fill="#63b8ff" stroke="#63b8ff" points="1764.15,-158.23 1770.48,-149.73 1760.23,-152.43 1764.15,-158.23"/>
</a>
</g>
</g>
<!-- Node10 -->
<g id="Node000010" class="node">
<title>Node10</title>
<g id="a_Node000010"><a xlink:href="a01952.html#a8b687fb4c464903e23504eea3ddc3873" target="_top" xlink:title=" ">
<polygon fill="white" stroke="#666666" points="1690.75,-111.5 1637.25,-111.5 1637.25,-93 1690.75,-93 1690.75,-111.5"/>
<text text-anchor="middle" x="1664" y="-98" font-family="Helvetica,sans-Serif" font-size="10.00">conf_get</text>
</a>
</g>
</g>
<!-- Node1&#45;&gt;Node10 -->
<g id="edge11_Node000001_Node000010" class="edge">
<title>Node1&#45;&gt;Node10</title>
<g id="a_edge11_Node000001_Node000010"><a xlink:title=" ">
<path fill="none" stroke="#63b8ff" d="M1742.63,-126.16C1725.44,-120.87 1706.14,-114.92 1691.08,-110.28"/>
<polygon fill="#63b8ff" stroke="#63b8ff" points="1741.53,-129.48 1752.12,-129.08 1743.59,-122.79 1741.53,-129.48"/>
</a>
</g>
</g>
<!-- Node24 -->
<g id="Node000024" class="node">
<title>Node24</title>
<g id="a_Node000024"><a xlink:href="a01952.html#ab87e9691e65d65348749f8dc70f24602" target="_top" xlink:title=" ">
<polygon fill="white" stroke="#666666" points="1690.75,-148.5 1637.25,-148.5 1637.25,-130 1690.75,-130 1690.75,-148.5"/>
<text text-anchor="middle" x="1664" y="-135" font-family="Helvetica,sans-Serif" font-size="10.00">conf_set</text>
</a>
</g>
</g>
<!-- Node1&#45;&gt;Node24 -->
<g id="edge32_Node000001_Node000024" class="edge">
<title>Node1&#45;&gt;Node24</title>
<g id="a_edge32_Node000001_Node000024"><a xlink:title=" ">
<path fill="none" stroke="#63b8ff" d="M1715.18,-139.25C1706.67,-139.25 1698.43,-139.25 1691.18,-139.25"/>
<polygon fill="#63b8ff" stroke="#63b8ff" points="1714.96,-142.75 1724.96,-139.25 1714.96,-135.75 1714.96,-142.75"/>
</a>
</g>
</g>
<!-- Node3 -->
<g id="Node000003" class="node">
<title>Node3</title>
<g id="a_Node000003"><a xlink:href="a01910.html#aa6e4832b06bd5757be4502d2de7b3026" target="_top" xlink:title=" ">
<polygon fill="white" stroke="#666666" points="482.5,-175.75 384,-175.75 384,-146.75 482.5,-146.75 482.5,-175.75"/>
<text text-anchor="start" x="392" y="-162.25" font-family="Helvetica,sans-Serif" font-size="10.00">arax_controller_init</text>
<text text-anchor="middle" x="433.25" y="-151.75" font-family="Helvetica,sans-Serif" font-size="10.00">_start</text>
</a>
</g>
</g>
<!-- Node2&#45;&gt;Node3 -->
<g id="edge2_Node000002_Node000003" class="edge">
<title>Node2&#45;&gt;Node3</title>
<g id="a_edge2_Node000002_Node000003"><a xlink:title=" ">
<path fill="none" stroke="#63b8ff" d="M507.01,-147.68C499.11,-149.16 490.74,-150.72 482.6,-152.23"/>
<polygon fill="#63b8ff" stroke="#63b8ff" points="507.49,-151.15 516.68,-145.88 506.2,-144.27 507.49,-151.15"/>
</a>
</g>
</g>
<!-- Node4 -->
<g id="Node000004" class="node">
<title>Node4</title>
<g id="a_Node000004"><a xlink:href="a02186.html#gae1d371a2840849690acce147e7a205da" target="_top" xlink:title=" ">
<polygon fill="white" stroke="#666666" points="460,-128.5 406.5,-128.5 406.5,-110 460,-110 460,-128.5"/>
<text text-anchor="middle" x="433.25" y="-115" font-family="Helvetica,sans-Serif" font-size="10.00">arax_init</text>
</a>
</g>
</g>
<!-- Node2&#45;&gt;Node4 -->
<g id="edge3_Node000002_Node000004" class="edge">
<title>Node2&#45;&gt;Node4</title>
<g id="a_edge3_Node000002_Node000004"><a xlink:title=" ">
<path fill="none" stroke="#63b8ff" d="M507.21,-132.85C491.62,-129.95 474.15,-126.69 460.21,-124.09"/>
<polygon fill="#63b8ff" stroke="#63b8ff" points="506.2,-136.23 516.68,-134.62 507.49,-129.35 506.2,-136.23"/>
</a>
</g>
</g>
<!-- Node5 -->
<g id="Node000005" class="node">
<title>Node5</title>
<g id="a_Node000005"><a xlink:href="a01946.html#a8a99bcb12e2ee55d68a029bfca9b6d51" target="_top" xlink:title=" ">
<polygon fill="white" stroke="#666666" points="235.25,-157.75 141.25,-157.75 141.25,-128.75 235.25,-128.75 235.25,-157.75"/>
<text text-anchor="start" x="149.25" y="-144.25" font-family="Helvetica,sans-Serif" font-size="10.00">arax_plot_register</text>
<text text-anchor="middle" x="188.25" y="-133.75" font-family="Helvetica,sans-Serif" font-size="10.00">_metric</text>
</a>
</g>
</g>
<!-- Node4&#45;&gt;Node5 -->
<g id="edge4_Node000004_Node000005" class="edge">
<title>Node4&#45;&gt;Node5</title>
<g id="a_edge4_Node000004_Node000005"><a xlink:title=" ">
<path fill="none" stroke="#63b8ff" d="M394.92,-122.94C352.02,-127.17 281.6,-134.13 235.32,-138.7"/>
<polygon fill="#63b8ff" stroke="#63b8ff" points="395.13,-126.43 404.74,-121.97 394.44,-119.47 395.13,-126.43"/>
</a>
</g>
</g>
<!-- Node6 -->
<g id="Node000006" class="node">
<title>Node6</title>
<g id="a_Node000006"><a xlink:href="a01934.html#a80ab3bf4a8af9bb101b5a53248609771" target="_top" xlink:title=" ">
<polygon fill="white" stroke="#666666" points="348,-110.5 271.25,-110.5 271.25,-92 348,-92 348,-110.5"/>
<text text-anchor="middle" x="309.62" y="-97" font-family="Helvetica,sans-Serif" font-size="10.00">arax_ptr_valid</text>
</a>
</g>
</g>
<!-- Node4&#45;&gt;Node6 -->
<g id="edge5_Node000004_Node000006" class="edge">
<title>Node4&#45;&gt;Node6</title>
<g id="a_edge5_Node000004_Node000006"><a xlink:title=" ">
<path fill="none" stroke="#63b8ff" d="M394.83,-113.71C380.03,-111.52 363.04,-109.01 348.21,-106.81"/>
<polygon fill="#63b8ff" stroke="#63b8ff" points="394.26,-117.17 404.66,-115.17 395.28,-110.24 394.26,-117.17"/>
</a>
</g>
</g>
<!-- Node6&#45;&gt;Node5 -->
<g id="edge10_Node000006_Node000005" class="edge">
<title>Node6&#45;&gt;Node5</title>
<g id="a_edge10_Node000006_Node000005"><a xlink:title=" ">
<path fill="none" stroke="#63b8ff" d="M270.14,-114.79C257.89,-119.1 244.27,-123.89 231.76,-128.29"/>
<polygon fill="#63b8ff" stroke="#63b8ff" points="271.24,-118.11 279.51,-111.49 268.92,-111.51 271.24,-118.11"/>
</a>
</g>
</g>
<!-- Node7 -->
<g id="Node000007" class="node">
<title>Node7</title>
<g id="a_Node000007"><a xlink:href="a01967.html#a4ee1fea325d2edd421f59ab240dfbe54" target="_top" xlink:title=" ">
<polygon fill="white" stroke="#666666" points="234.12,-110.5 142.38,-110.5 142.38,-92 234.12,-92 234.12,-110.5"/>
<text text-anchor="middle" x="188.25" y="-97" font-family="Helvetica,sans-Serif" font-size="10.00">_arax_assert_obj</text>
</a>
</g>
</g>
<!-- Node6&#45;&gt;Node7 -->
<g id="edge6_Node000006_Node000007" class="edge">
<title>Node6&#45;&gt;Node7</title>
<g id="a_edge6_Node000006_Node000007"><a xlink:title=" ">
<path fill="none" stroke="#63b8ff" d="M259.37,-101.25C251.07,-101.25 242.49,-101.25 234.3,-101.25"/>
<polygon fill="#63b8ff" stroke="#63b8ff" points="259.34,-104.75 269.34,-101.25 259.34,-97.75 259.34,-104.75"/>
</a>
</g>
</g>
<!-- Node8 -->
<g id="Node000008" class="node">
<title>Node8</title>
<g id="a_Node000008"><a xlink:href="a01922.html#afeaab7d93372f0752d59c70d9c5940e7" target="_top" xlink:title=" ">
<polygon fill="white" stroke="#666666" points="226.25,-36.5 150.25,-36.5 150.25,-18 226.25,-18 226.25,-36.5"/>
<text text-anchor="middle" x="188.25" y="-23" font-family="Helvetica,sans-Serif" font-size="10.00">arax_data_ref</text>
</a>
</g>
</g>
<!-- Node6&#45;&gt;Node8 -->
<g id="edge7_Node000006_Node000008" class="edge">
<title>Node6&#45;&gt;Node8</title>
<g id="a_edge7_Node000006_Node000008"><a xlink:title=" ">
<path fill="none" stroke="#63b8ff" d="M286.98,-84.97C272.65,-74.51 253.24,-60.93 235.25,-50.25 227.26,-45.51 218.17,-40.83 210.2,-36.93"/>
<polygon fill="#63b8ff" stroke="#63b8ff" points="284.67,-87.62 294.79,-90.75 288.83,-81.99 284.67,-87.62"/>
</a>
</g>
</g>
<!-- Node9 -->
<g id="Node000009" class="node">
<title>Node9</title>
<g id="a_Node000009"><a xlink:href="a01922.html#ac1f7fb20b3a23b388bea24f1b46a33a8" target="_top" xlink:title=" ">
<polygon fill="white" stroke="#666666" points="105.25,-54.5 0,-54.5 0,-36 105.25,-36 105.25,-54.5"/>
<text text-anchor="middle" x="52.62" y="-41" font-family="Helvetica,sans-Serif" font-size="10.00">arax_data_ref_offset</text>
</a>
</g>
</g>
<!-- Node6&#45;&gt;Node9 -->
<g id="edge9_Node000006_Node000009" class="edge">
<title>Node6&#45;&gt;Node9</title>
<g id="a_edge9_Node000006_Node000009"><a xlink:title=" ">
<path fill="none" stroke="#63b8ff" d="M259.96,-89.06C251.73,-87.07 243.25,-85.07 235.25,-83.25 190.33,-73.04 138.92,-62.38 102.29,-54.96"/>
<polygon fill="#63b8ff" stroke="#63b8ff" points="258.96,-92.42 269.51,-91.39 260.62,-85.62 258.96,-92.42"/>
</a>
</g>
</g>
<!-- Node8&#45;&gt;Node9 -->
<g id="edge8_Node000008_Node000009" class="edge">
<title>Node8&#45;&gt;Node9</title>
<g id="a_edge8_Node000008_Node000009"><a xlink:title=" ">
<path fill="none" stroke="#63b8ff" d="M138.69,-33.79C127.94,-35.24 116.51,-36.78 105.63,-38.25"/>
<polygon fill="#63b8ff" stroke="#63b8ff" points="139.08,-37.27 148.53,-32.47 138.15,-30.33 139.08,-37.27"/>
</a>
</g>
</g>
<!-- Node11 -->
<g id="Node000011" class="node">
<title>Node11</title>
<g id="a_Node000011"><a xlink:href="a01952.html#a0738274ac3fd171eda6bfb42492bc0d7" target="_top" xlink:title=" ">
<polygon fill="white" stroke="#666666" points="1452.5,-75.5 1346.5,-75.5 1346.5,-57 1452.5,-57 1452.5,-75.5"/>
<text text-anchor="middle" x="1399.5" y="-62" font-family="Helvetica,sans-Serif" font-size="10.00">_utils_config_get_str</text>
</a>
</g>
</g>
<!-- Node10&#45;&gt;Node11 -->
<g id="edge12_Node000010_Node000011" class="edge">
<title>Node10&#45;&gt;Node11</title>
<g id="a_edge12_Node000010_Node000011"><a xlink:title=" ">
<path fill="none" stroke="#63b8ff" d="M1625.53,-97.11C1580.29,-90.91 1503.95,-80.44 1452.9,-73.44"/>
<polygon fill="#63b8ff" stroke="#63b8ff" points="1624.99,-100.57 1635.37,-98.46 1625.94,-93.63 1624.99,-100.57"/>
</a>
</g>
</g>
<!-- Node22 -->
<g id="Node000022" class="node">
<title>Node22</title>
<g id="a_Node000022"><a xlink:href="a01952.html#a4b9cd8f5d0c205ac6c1fd30f77cbf539" target="_top" xlink:title=" ">
<polygon fill="white" stroke="#666666" points="1601.25,-130.5 1493,-130.5 1493,-112 1601.25,-112 1601.25,-130.5"/>
<text text-anchor="middle" x="1547.12" y="-117" font-family="Helvetica,sans-Serif" font-size="10.00">utils_config_write_str</text>
</a>
</g>
</g>
<!-- Node10&#45;&gt;Node22 -->
<g id="edge28_Node000010_Node000022" class="edge">
<title>Node10&#45;&gt;Node22</title>
<g id="a_edge28_Node000010_Node000022"><a xlink:title=" ">
<path fill="none" stroke="#63b8ff" d="M1625.65,-108.43C1617.88,-109.71 1609.54,-111.09 1601.32,-112.45"/>
<polygon fill="#63b8ff" stroke="#63b8ff" points="1626.15,-111.89 1635.44,-106.81 1625,-104.99 1626.15,-111.89"/>
</a>
</g>
</g>
<!-- Node12 -->
<g id="Node000012" class="node">
<title>Node12</title>
<g id="a_Node000012"><a xlink:href="a01952.html#a1a28ba7c7791236d03b1fa9f81aa6a71" target="_top" xlink:title=" ">
<polygon fill="white" stroke="#666666" points="1306,-140.5 1198.5,-140.5 1198.5,-122 1306,-122 1306,-140.5"/>
<text text-anchor="middle" x="1252.25" y="-127" font-family="Helvetica,sans-Serif" font-size="10.00">utils_config_get_long</text>
</a>
</g>
</g>
<!-- Node11&#45;&gt;Node12 -->
<g id="edge13_Node000011_Node000012" class="edge">
<title>Node11&#45;&gt;Node12</title>
<g id="a_edge13_Node000011_Node000012"><a xlink:title=" ">
<path fill="none" stroke="#63b8ff" d="M1366.33,-80.65C1338.43,-93.13 1298.85,-110.85 1274.67,-121.66"/>
<polygon fill="#63b8ff" stroke="#63b8ff" points="1367.68,-83.88 1375.37,-76.6 1364.82,-77.49 1367.68,-83.88"/>
</a>
</g>
</g>
<!-- Node18 -->
<g id="Node000018" class="node">
<title>Node18</title>
<g id="a_Node000018"><a xlink:href="a01952.html#a1e8deff7c038efae14d1cc98e4ab109f" target="_top" xlink:title=" ">
<polygon fill="white" stroke="#666666" points="1302.62,-75.5 1201.88,-75.5 1201.88,-57 1302.62,-57 1302.62,-75.5"/>
<text text-anchor="middle" x="1252.25" y="-62" font-family="Helvetica,sans-Serif" font-size="10.00">utils_config_get_str</text>
</a>
</g>
</g>
<!-- Node11&#45;&gt;Node18 -->
<g id="edge22_Node000011_Node000018" class="edge">
<title>Node11&#45;&gt;Node18</title>
<g id="a_edge22_Node000011_Node000018"><a xlink:title=" ">
<path fill="none" stroke="#63b8ff" d="M1334.6,-66.25C1323.91,-66.25 1312.96,-66.25 1302.7,-66.25"/>
<polygon fill="#63b8ff" stroke="#63b8ff" points="1334.55,-69.75 1344.55,-66.25 1334.55,-62.75 1334.55,-69.75"/>
</a>
</g>
</g>
<!-- Node13 -->
<g id="Node000013" class="node">
<title>Node13</title>
<g id="a_Node000013"><a xlink:href="a01952.html#a336fa8eefc3d744aa7248d6786cfee03" target="_top" xlink:title=" ">
<polygon fill="white" stroke="#666666" points="1162.5,-168.5 1062.5,-168.5 1062.5,-150 1162.5,-150 1162.5,-168.5"/>
<text text-anchor="middle" x="1112.5" y="-155" font-family="Helvetica,sans-Serif" font-size="10.00">utils_config_get_int</text>
</a>
</g>
</g>
<!-- Node12&#45;&gt;Node13 -->
<g id="edge14_Node000012_Node000013" class="edge">
<title>Node12&#45;&gt;Node13</title>
<g id="a_edge14_Node000012_Node000013"><a xlink:title=" ">
<path fill="none" stroke="#63b8ff" d="M1192.35,-143.22C1181.95,-145.34 1171.25,-147.51 1161.21,-149.55"/>
<polygon fill="#63b8ff" stroke="#63b8ff" points="1192.87,-146.69 1201.98,-141.27 1191.48,-139.83 1192.87,-146.69"/>
</a>
</g>
</g>
<!-- Node17 -->
<g id="Node000017" class="node">
<title>Node17</title>
<g id="a_Node000017"><a xlink:href="a01952.html#a4a525d89ade920512dc65409bc8e85d8" target="_top" xlink:title=" ">
<polygon fill="white" stroke="#666666" points="880,-131.5 773.25,-131.5 773.25,-113 880,-113 880,-131.5"/>
<text text-anchor="middle" x="826.62" y="-118" font-family="Helvetica,sans-Serif" font-size="10.00">utils_config_get_size</text>
</a>
</g>
</g>
<!-- Node12&#45;&gt;Node17 -->
<g id="edge20_Node000012_Node000017" class="edge">
<title>Node12&#45;&gt;Node17</title>
<g id="a_edge20_Node000012_Node000017"><a xlink:title=" ">
<path fill="none" stroke="#63b8ff" d="M1186.6,-129.88C1102.7,-128.09 957.87,-125.02 880.3,-123.37"/>
<polygon fill="#63b8ff" stroke="#63b8ff" points="1186.44,-133.37 1196.51,-130.09 1186.59,-126.38 1186.44,-133.37"/>
</a>
</g>
</g>
<!-- Node14 -->
<g id="Node000014" class="node">
<title>Node14</title>
<g id="a_Node000014"><a xlink:href="a01952.html#aa7aa94ad075bf97a566f01f899fcd859" target="_top" xlink:title=" ">
<polygon fill="white" stroke="#666666" points="1026.5,-168.5 919,-168.5 919,-150 1026.5,-150 1026.5,-168.5"/>
<text text-anchor="middle" x="972.75" y="-155" font-family="Helvetica,sans-Serif" font-size="10.00">utils_config_get_bool</text>
</a>
</g>
</g>
<!-- Node13&#45;&gt;Node14 -->
<g id="edge15_Node000013_Node000014" class="edge">
<title>Node13&#45;&gt;Node14</title>
<g id="a_edge15_Node000013_Node000014"><a xlink:title=" ">
<path fill="none" stroke="#63b8ff" d="M1050.71,-159.25C1042.79,-159.25 1034.72,-159.25 1026.94,-159.25"/>
<polygon fill="#63b8ff" stroke="#63b8ff" points="1050.64,-162.75 1060.64,-159.25 1050.64,-155.75 1050.64,-162.75"/>
</a>
</g>
</g>
<!-- Node14&#45;&gt;Node2 -->
<g id="edge16_Node000014_Node000002" class="edge">
<title>Node14&#45;&gt;Node2</title>
<g id="a_edge16_Node000014_Node000002"><a xlink:title=" ">
<path fill="none" stroke="#63b8ff" d="M921.29,-171.37C850.96,-186.12 720.05,-205.76 613.25,-177.25 593.32,-171.93 573.16,-158.81 560.84,-149.71"/>
<polygon fill="#63b8ff" stroke="#63b8ff" points="921.95,-174.81 930.98,-169.28 920.47,-167.96 921.95,-174.81"/>
</a>
</g>
</g>
<!-- Node15 -->
<g id="Node000015" class="node">
<title>Node15</title>
<g id="a_Node000015"><a xlink:href="a02364.html#ab2e422aab2fcfa562795beb2843e8019" target="_top" xlink:title=" ">
<polygon fill="white" stroke="#666666" points="883,-168.5 770.25,-168.5 770.25,-150 883,-150 883,-168.5"/>
<text text-anchor="middle" x="826.62" y="-155" font-family="Helvetica,sans-Serif" font-size="10.00">async_meta_init_once</text>
</a>
</g>
</g>
<!-- Node14&#45;&gt;Node15 -->
<g id="edge17_Node000014_Node000015" class="edge">
<title>Node14&#45;&gt;Node15</title>
<g id="a_edge17_Node000014_Node000015"><a xlink:title=" ">
<path fill="none" stroke="#63b8ff" d="M907.61,-159.25C899.53,-159.25 891.31,-159.25 883.37,-159.25"/>
<polygon fill="#63b8ff" stroke="#63b8ff" points="907.39,-162.75 917.39,-159.25 907.39,-155.75 907.39,-162.75"/>
</a>
</g>
</g>
<!-- Node16 -->
<g id="Node000016" class="node">
<title>Node16</title>
<g id="a_Node000016"><a xlink:href="a01928.html#aa6293e9ec7776aa49ecf632fcc4f5e26" target="_top" xlink:title=" ">
<polygon fill="white" stroke="#666666" points="712.12,-168.5 635.38,-168.5 635.38,-150 712.12,-150 712.12,-168.5"/>
<text text-anchor="middle" x="673.75" y="-155" font-family="Helvetica,sans-Serif" font-size="10.00">arax_pipe_init</text>
</a>
</g>
</g>
<!-- Node15&#45;&gt;Node16 -->
<g id="edge18_Node000015_Node000016" class="edge">
<title>Node15&#45;&gt;Node16</title>
<g id="a_edge18_Node000015_Node000016"><a xlink:title=" ">
<path fill="none" stroke="#63b8ff" d="M758.49,-159.25C742.69,-159.25 726.39,-159.25 712.42,-159.25"/>
<polygon fill="#63b8ff" stroke="#63b8ff" points="758.36,-162.75 768.36,-159.25 758.36,-155.75 758.36,-162.75"/>
</a>
</g>
</g>
<!-- Node16&#45;&gt;Node2 -->
<g id="edge19_Node000016_Node000002" class="edge">
<title>Node16&#45;&gt;Node2</title>
<g id="a_edge19_Node000016_Node000002"><a xlink:title=" ">
<path fill="none" stroke="#63b8ff" d="M623.74,-151.73C608.04,-149.32 591.18,-146.74 577.44,-144.63"/>
<polygon fill="#63b8ff" stroke="#63b8ff" points="623,-155.16 633.41,-153.22 624.06,-148.24 623,-155.16"/>
</a>
</g>
</g>
<!-- Node17&#45;&gt;Node2 -->
<g id="edge21_Node000017_Node000002" class="edge">
<title>Node17&#45;&gt;Node2</title>
<g id="a_edge21_Node000017_Node000002"><a xlink:title=" ">
<path fill="none" stroke="#63b8ff" d="M761.67,-126.41C703.67,-130.18 620.85,-135.57 577.63,-138.38"/>
<polygon fill="#63b8ff" stroke="#63b8ff" points="761.66,-129.92 771.41,-125.78 761.2,-122.93 761.66,-129.92"/>
</a>
</g>
</g>
<!-- Node18&#45;&gt;Node2 -->
<g id="edge23_Node000018_Node000002" class="edge">
<title>Node18&#45;&gt;Node2</title>
<g id="a_edge23_Node000018_Node000002"><a xlink:title=" ">
<path fill="none" stroke="#63b8ff" d="M1190.26,-72.49C1134.08,-77.69 1048.39,-84.25 973.75,-84.25 973.75,-84.25 973.75,-84.25 825.62,-84.25 733.22,-84.25 626.85,-114.61 577.18,-130.62"/>
<polygon fill="#63b8ff" stroke="#63b8ff" points="1190.3,-76 1199.93,-71.57 1189.64,-69.03 1190.3,-76"/>
</a>
</g>
</g>
<!-- Node19 -->
<g id="Node000019" class="node">
<title>Node19</title>
<g id="a_Node000019"><a xlink:href="a02186.html#ga4bae55e86ffc384b3c1d2da3580f5c42" target="_top" xlink:title=" ">
<polygon fill="white" stroke="#666666" points="1144.5,-18.5 1080.5,-18.5 1080.5,0 1144.5,0 1144.5,-18.5"/>
<text text-anchor="middle" x="1112.5" y="-5" font-family="Helvetica,sans-Serif" font-size="10.00">arax_clean</text>
</a>
</g>
</g>
<!-- Node18&#45;&gt;Node19 -->
<g id="edge24_Node000018_Node000019" class="edge">
<title>Node18&#45;&gt;Node19</title>
<g id="a_edge24_Node000018_Node000019"><a xlink:title=" ">
<path fill="none" stroke="#63b8ff" d="M1217.41,-52.25C1192.44,-41.91 1159.09,-28.11 1136.98,-18.97"/>
<polygon fill="#63b8ff" stroke="#63b8ff" points="1215.91,-55.41 1226.48,-56 1218.58,-48.94 1215.91,-55.41"/>
</a>
</g>
</g>
<!-- Node21 -->
<g id="Node000021" class="node">
<title>Node21</title>
<g id="a_Node000021"><a xlink:href="a02364.html#adbaa29dfccfdfe6e3fe69a1d001c05b5" target="_top" xlink:title=" ">
<polygon fill="white" stroke="#666666" points="734.25,-56.5 613.25,-56.5 613.25,-38 734.25,-38 734.25,-56.5"/>
<text text-anchor="middle" x="673.75" y="-43" font-family="Helvetica,sans-Serif" font-size="10.00">async_meta_init_always</text>
</a>
</g>
</g>
<!-- Node18&#45;&gt;Node21 -->
<g id="edge26_Node000018_Node000021" class="edge">
<title>Node18&#45;&gt;Node21</title>
<g id="a_edge26_Node000018_Node000021"><a xlink:title=" ">
<path fill="none" stroke="#63b8ff" d="M1190.28,-64.24C1079.18,-60.58 845.08,-52.86 734.72,-49.23"/>
<polygon fill="#63b8ff" stroke="#63b8ff" points="1189.98,-67.73 1200.09,-64.56 1190.21,-60.74 1189.98,-67.73"/>
</a>
</g>
</g>
<!-- Node20 -->
<g id="Node000020" class="node">
<title>Node20</title>
<g id="a_Node000020"><a xlink:href="a02186.html#ga8ac7e88ed7b8a1e2ff8aa435ac6b58ec" target="_top" xlink:title=" ">
<polygon fill="white" stroke="#666666" points="1001,-18.5 944.5,-18.5 944.5,0 1001,0 1001,-18.5"/>
<text text-anchor="middle" x="972.75" y="-5" font-family="Helvetica,sans-Serif" font-size="10.00">arax_exit</text>
</a>
</g>
</g>
<!-- Node19&#45;&gt;Node20 -->
<g id="edge25_Node000019_Node000020" class="edge">
<title>Node19&#45;&gt;Node20</title>
<g id="a_edge25_Node000019_Node000020"><a xlink:title=" ">
<path fill="none" stroke="#63b8ff" d="M1068.82,-9.25C1046.76,-9.25 1020.49,-9.25 1001.16,-9.25"/>
<polygon fill="#63b8ff" stroke="#63b8ff" points="1068.73,-12.75 1078.73,-9.25 1068.73,-5.75 1068.73,-12.75"/>
</a>
</g>
</g>
<!-- Node21&#45;&gt;Node2 -->
<g id="edge27_Node000021_Node000002" class="edge">
<title>Node21&#45;&gt;Node2</title>
<g id="a_edge27_Node000021_Node000002"><a xlink:title=" ">
<path fill="none" stroke="#63b8ff" d="M629,-61.46C623.5,-64.02 618.1,-66.94 613.25,-70.25 588.14,-87.35 565.87,-116.03 555.33,-130.81"/>
<polygon fill="#63b8ff" stroke="#63b8ff" points="630.36,-64.69 638.21,-57.58 627.64,-58.24 630.36,-64.69"/>
</a>
</g>
</g>
<!-- Node22&#45;&gt;Node18 -->
<g id="edge29_Node000022_Node000018" class="edge">
<title>Node22&#45;&gt;Node18</title>
<g id="a_edge29_Node000022_Node000018"><a xlink:title=" ">
<path fill="none" stroke="#63b8ff" d="M1481.52,-109.89C1441.34,-102.74 1388.62,-93.2 1342,-84.25 1328.41,-81.64 1313.68,-78.7 1300.19,-75.96"/>
<polygon fill="#63b8ff" stroke="#63b8ff" points="1480.83,-113.33 1491.28,-111.63 1482.05,-106.43 1480.83,-113.33"/>
</a>
</g>
</g>
<!-- Node23 -->
<g id="Node000023" class="node">
<title>Node23</title>
<g id="a_Node000023"><a xlink:href="a01952.html#a88091e179416d4beec1b5681cfb68742" target="_top" xlink:title=" ">
<polygon fill="white" stroke="#666666" points="1457,-149.5 1342,-149.5 1342,-131 1457,-131 1457,-149.5"/>
<text text-anchor="middle" x="1399.5" y="-136" font-family="Helvetica,sans-Serif" font-size="10.00">utils_config_write_long</text>
</a>
</g>
</g>
<!-- Node22&#45;&gt;Node23 -->
<g id="edge30_Node000022_Node000023" class="edge">
<title>Node22&#45;&gt;Node23</title>
<g id="a_edge30_Node000022_Node000023"><a xlink:title=" ">
<path fill="none" stroke="#63b8ff" d="M1481.48,-129.68C1473.43,-130.74 1465.24,-131.8 1457.32,-132.84"/>
<polygon fill="#63b8ff" stroke="#63b8ff" points="1481.76,-133.18 1491.23,-128.41 1480.86,-126.24 1481.76,-133.18"/>
</a>
</g>
</g>
<!-- Node23&#45;&gt;Node12 -->
<g id="edge31_Node000023_Node000012" class="edge">
<title>Node23&#45;&gt;Node12</title>
<g id="a_edge31_Node000023_Node000012"><a xlink:title=" ">
<path fill="none" stroke="#63b8ff" d="M1330.23,-136.02C1322.19,-135.52 1314.07,-135.02 1306.28,-134.54"/>
<polygon fill="#63b8ff" stroke="#63b8ff" points="1329.8,-139.5 1340,-136.63 1330.24,-132.51 1329.8,-139.5"/>
</a>
</g>
</g>
<!-- Node24&#45;&gt;Node22 -->
<g id="edge33_Node000024_Node000022" class="edge">
<title>Node24&#45;&gt;Node22</title>
<g id="a_edge33_Node000024_Node000022"><a xlink:title=" ">
<path fill="none" stroke="#63b8ff" d="M1625.65,-133.4C1617.88,-132.18 1609.54,-130.87 1601.32,-129.58"/>
<polygon fill="#63b8ff" stroke="#63b8ff" points="1625.02,-136.84 1635.44,-134.93 1626.1,-129.93 1625.02,-136.84"/>
</a>
</g>
</g>
</g>
</svg>
