<?xml version="1.0" encoding="UTF-8" standalone="no"?>
<!DOCTYPE svg PUBLIC "-//W3C//DTD SVG 1.1//EN"
 "http://www.w3.org/Graphics/SVG/1.1/DTD/svg11.dtd">
<!-- Generated by graphviz version 12.2.1 (0)
 -->
<!-- Title: arax_vaccel_init Pages: 1 -->
<svg width="886pt" height="432pt"
 viewBox="0.00 0.00 886.25 431.50" xmlns="http://www.w3.org/2000/svg" xmlns:xlink="http://www.w3.org/1999/xlink">
<g id="graph0" class="graph" transform="scale(1 1) rotate(0) translate(4 427.5)">
<title>arax_vaccel_init</title>
<!-- Node1 -->
<g id="Node000001" class="node">
<title>Node1</title>
<g id="a_Node000001"><a xlink:title=" ">
<polygon fill="#999999" stroke="#666666" points="86.5,-92.5 0,-92.5 0,-74 86.5,-74 86.5,-92.5"/>
<text text-anchor="middle" x="43.25" y="-79" font-family="Helvetica,sans-Serif" font-size="10.00">arax_vaccel_init</text>
</a>
</g>
</g>
<!-- Node2 -->
<g id="Node000002" class="node">
<title>Node2</title>
<g id="a_Node000002"><a xlink:href="a01916.html#af0b933c02a24d69c1efa40179f60288f" target="_top" xlink:title=" ">
<polygon fill="white" stroke="#666666" points="381,-282.5 263,-282.5 263,-264 381,-264 381,-282.5"/>
<text text-anchor="middle" x="322" y="-269" font-family="Helvetica,sans-Serif" font-size="10.00">arax_accel_add_vaccel</text>
</a>
</g>
</g>
<!-- Node1&#45;&gt;Node2 -->
<g id="edge1_Node000001_Node000002" class="edge">
<title>Node1&#45;&gt;Node2</title>
<g id="a_edge1_Node000001_Node000002"><a xlink:title=" ">
<path fill="none" stroke="#63b8ff" d="M56.24,-92.89C71.42,-104.99 98.48,-126.21 122.5,-143.25 183.57,-186.57 257.98,-233.91 296.01,-257.72"/>
<polygon fill="#63b8ff" stroke="#63b8ff" points="293.67,-260.39 304.01,-262.72 297.38,-254.45 293.67,-260.39"/>
</a>
</g>
</g>
<!-- Node18 -->
<g id="Node000018" class="node">
<title>Node18</title>
<g id="a_Node000018"><a xlink:href="a01925.html#a402bbd6fa197c2c48d527325e5e2cf5b" target="_top" xlink:title=" ">
<polygon fill="white" stroke="#666666" points="227,-92.5 122.5,-92.5 122.5,-74 227,-74 227,-92.5"/>
<text text-anchor="middle" x="174.75" y="-79" font-family="Helvetica,sans-Serif" font-size="10.00">arax_object_register</text>
</a>
</g>
</g>
<!-- Node1&#45;&gt;Node18 -->
<g id="edge19_Node000001_Node000018" class="edge">
<title>Node1&#45;&gt;Node18</title>
<g id="a_edge19_Node000001_Node000018"><a xlink:title=" ">
<path fill="none" stroke="#63b8ff" d="M86.65,-83.25C94.37,-83.25 102.58,-83.25 110.75,-83.25"/>
<polygon fill="#63b8ff" stroke="#63b8ff" points="110.7,-86.75 120.7,-83.25 110.7,-79.75 110.7,-86.75"/>
</a>
</g>
</g>
<!-- Node24 -->
<g id="Node000024" class="node">
<title>Node24</title>
<g id="a_Node000024"><a xlink:href="a01955.html#a63f2791c9b5c8e2fa15967cfafb7ccbb" target="_top" xlink:title=" ">
<polygon fill="white" stroke="#666666" points="370.12,-18.5 273.88,-18.5 273.88,0 370.12,0 370.12,-18.5"/>
<text text-anchor="middle" x="322" y="-5" font-family="Helvetica,sans-Serif" font-size="10.00">utils_list_node_init</text>
</a>
</g>
</g>
<!-- Node1&#45;&gt;Node24 -->
<g id="edge38_Node000001_Node000024" class="edge">
<title>Node1&#45;&gt;Node24</title>
<g id="a_edge38_Node000001_Node000024"><a xlink:title=" ">
<path fill="none" stroke="#63b8ff" d="M80.43,-73.58C130.05,-60.31 219.28,-36.45 274.01,-21.81"/>
<polygon fill="#63b8ff" stroke="#63b8ff" points="274.59,-25.28 283.35,-19.32 272.78,-18.52 274.59,-25.28"/>
</a>
</g>
</g>
<!-- Node25 -->
<g id="Node000025" class="node">
<title>Node25</title>
<g id="a_Node000025"><a xlink:href="a01928.html#aa4461ab1d225a0f76f08d2f37a4a7e0e" target="_top" xlink:title=" ">
<polygon fill="white" stroke="#666666" points="379.5,-194.75 264.5,-194.75 264.5,-165.75 379.5,-165.75 379.5,-194.75"/>
<text text-anchor="start" x="272.5" y="-181.25" font-family="Helvetica,sans-Serif" font-size="10.00">arax_pipe_add_orphan</text>
<text text-anchor="middle" x="322" y="-170.75" font-family="Helvetica,sans-Serif" font-size="10.00">_vaccel</text>
</a>
</g>
</g>
<!-- Node1&#45;&gt;Node25 -->
<g id="edge33_Node000001_Node000025" class="edge">
<title>Node1&#45;&gt;Node25</title>
<g id="a_edge33_Node000001_Node000025"><a xlink:title=" ">
<path fill="none" stroke="#63b8ff" d="M72.05,-92.99C117.73,-109.01 209.42,-141.14 267.86,-161.63"/>
<polygon fill="#63b8ff" stroke="#63b8ff" points="266.35,-164.8 276.94,-164.81 268.66,-158.2 266.35,-164.8"/>
</a>
</g>
</g>
<!-- Node26 -->
<g id="Node000026" class="node">
<title>Node26</title>
<g id="a_Node000026"><a xlink:href="a01958.html#a49c353188156b1df4463a5fc7f7bc25e" target="_top" xlink:title=" ">
<polygon fill="white" stroke="#666666" points="216.5,-18.5 133,-18.5 133,0 216.5,0 216.5,-18.5"/>
<text text-anchor="middle" x="174.75" y="-5" font-family="Helvetica,sans-Serif" font-size="10.00">utils_queue_init</text>
</a>
</g>
</g>
<!-- Node1&#45;&gt;Node26 -->
<g id="edge39_Node000001_Node000026" class="edge">
<title>Node1&#45;&gt;Node26</title>
<g id="a_edge39_Node000001_Node000026"><a xlink:title=" ">
<path fill="none" stroke="#63b8ff" d="M57.7,-73.55C72.99,-62.76 98.87,-45.15 122.5,-32.25 128.01,-29.24 133.99,-26.29 139.86,-23.56"/>
<polygon fill="#63b8ff" stroke="#63b8ff" points="141.1,-26.84 148.78,-19.54 138.23,-20.46 141.1,-26.84"/>
</a>
</g>
</g>
<!-- Node3 -->
<g id="Node000003" class="node">
<title>Node3</title>
<g id="a_Node000003"><a xlink:href="a01916.html#aed864d2fab73a39a8c98356f7bca1304" target="_top" xlink:title=" ">
<polygon fill="white" stroke="#666666" points="542.88,-423.5 421.88,-423.5 421.88,-405 542.88,-405 542.88,-423.5"/>
<text text-anchor="middle" x="482.38" y="-410" font-family="Helvetica,sans-Serif" font-size="10.00">arax_accel_inc_revision</text>
</a>
</g>
</g>
<!-- Node2&#45;&gt;Node3 -->
<g id="edge2_Node000002_Node000003" class="edge">
<title>Node2&#45;&gt;Node3</title>
<g id="a_edge2_Node000002_Node000003"><a xlink:title=" ">
<path fill="none" stroke="#63b8ff" d="M327.66,-282.83C339.35,-305.83 372.22,-364.57 417,-395.25 419.53,-396.98 422.21,-398.56 425,-399.99"/>
<polygon fill="#63b8ff" stroke="#63b8ff" points="423.48,-403.14 434.04,-403.98 426.3,-396.74 423.48,-403.14"/>
</a>
</g>
</g>
<!-- Node4 -->
<g id="Node000004" class="node">
<title>Node4</title>
<g id="a_Node000004"><a xlink:href="a01928.html#aa5172b735dddd3f77fbb0265bbcdfc20" target="_top" xlink:title=" ">
<polygon fill="white" stroke="#666666" points="547.75,-349.75 417,-349.75 417,-320.75 547.75,-320.75 547.75,-349.75"/>
<text text-anchor="start" x="425" y="-336.25" font-family="Helvetica,sans-Serif" font-size="10.00">arax_pipe_remove_orphan</text>
<text text-anchor="middle" x="482.38" y="-325.75" font-family="Helvetica,sans-Serif" font-size="10.00">_vaccel</text>
</a>
</g>
</g>
<!-- Node2&#45;&gt;Node4 -->
<g id="edge3_Node000002_Node000004" class="edge">
<title>Node2&#45;&gt;Node4</title>
<g id="a_edge3_Node000002_Node000004"><a xlink:title=" ">
<path fill="none" stroke="#63b8ff" d="M347.75,-282.94C370.43,-291.82 404.65,-305.22 432.79,-316.23"/>
<polygon fill="#63b8ff" stroke="#63b8ff" points="431.24,-319.38 441.83,-319.77 433.79,-312.86 431.24,-319.38"/>
</a>
</g>
</g>
<!-- Node5 -->
<g id="Node000005" class="node">
<title>Node5</title>
<g id="a_Node000005"><a xlink:href="a02364.html#aed6af4d83e934e3e654ead541b15f2d9" target="_top" xlink:title=" ">
<polygon fill="white" stroke="#666666" points="698,-189.5 589,-189.5 589,-171 698,-171 698,-189.5"/>
<text text-anchor="middle" x="643.5" y="-176" font-family="Helvetica,sans-Serif" font-size="10.00">async_condition_lock</text>
</a>
</g>
</g>
<!-- Node2&#45;&gt;Node5 -->
<g id="edge13_Node000002_Node000005" class="edge">
<title>Node2&#45;&gt;Node5</title>
<g id="a_edge13_Node000002_Node000005"><a xlink:title=" ">
<path fill="none" stroke="#63b8ff" d="M367.6,-282.96C414.4,-290.97 489.17,-297.51 547.75,-273.25 568.66,-264.59 567.63,-253.13 583.75,-237.25 597.3,-223.9 612.75,-208.92 624.4,-197.67"/>
<polygon fill="#63b8ff" stroke="#63b8ff" points="626.62,-200.4 631.39,-190.94 621.76,-195.36 626.62,-200.4"/>
</a>
</g>
</g>
<!-- Node7 -->
<g id="Node000007" class="node">
<title>Node7</title>
<g id="a_Node000007"><a xlink:href="a02364.html#a3bbcb7c4c024e99d5c4ba52b61dfbbf7" target="_top" xlink:title=" ">
<polygon fill="white" stroke="#666666" points="703.25,-151.5 583.75,-151.5 583.75,-133 703.25,-133 703.25,-151.5"/>
<text text-anchor="middle" x="643.5" y="-138" font-family="Helvetica,sans-Serif" font-size="10.00">async_condition_unlock</text>
</a>
</g>
</g>
<!-- Node2&#45;&gt;Node7 -->
<g id="edge16_Node000002_Node000007" class="edge">
<title>Node2&#45;&gt;Node7</title>
<g id="a_edge16_Node000002_Node000007"><a xlink:title=" ">
<path fill="none" stroke="#63b8ff" d="M344.08,-263.65C388.15,-243.7 493.45,-196.79 583.75,-162.25 589.54,-160.04 595.69,-157.81 601.75,-155.68"/>
<polygon fill="#63b8ff" stroke="#63b8ff" points="602.71,-159.05 611.03,-152.49 600.43,-152.44 602.71,-159.05"/>
</a>
</g>
</g>
<!-- Node11 -->
<g id="Node000011" class="node">
<title>Node11</title>
<g id="a_Node000011"><a xlink:href="a01943.html#ab2fa3d6e6c761009b464cc0fbedc6a16" target="_top" xlink:title=" ">
<polygon fill="white" stroke="#666666" points="543.62,-386.5 421.12,-386.5 421.12,-368 543.62,-368 543.62,-386.5"/>
<text text-anchor="middle" x="482.38" y="-373" font-family="Helvetica,sans-Serif" font-size="10.00">arax_vaccel_queue_size</text>
</a>
</g>
</g>
<!-- Node2&#45;&gt;Node11 -->
<g id="edge10_Node000002_Node000011" class="edge">
<title>Node2&#45;&gt;Node11</title>
<g id="a_edge10_Node000002_Node000011"><a xlink:title=" ">
<path fill="none" stroke="#63b8ff" d="M330.73,-282.82C345.56,-300.57 379.87,-338.64 417,-359.25 419.81,-360.81 422.76,-362.24 425.79,-363.55"/>
<polygon fill="#63b8ff" stroke="#63b8ff" points="424.31,-366.74 434.9,-367.04 426.81,-360.2 424.31,-366.74"/>
</a>
</g>
</g>
<!-- Node14 -->
<g id="Node000014" class="node">
<title>Node14</title>
<g id="a_Node000014"><a xlink:href="a02364.html#a45a896fb606c2aa66a5a4c2af59ce494" target="_top" xlink:title=" ">
<polygon fill="white" stroke="#666666" points="539.88,-264.5 424.88,-264.5 424.88,-246 539.88,-246 539.88,-264.5"/>
<text text-anchor="middle" x="482.38" y="-251" font-family="Helvetica,sans-Serif" font-size="10.00">async_condition_notify</text>
</a>
</g>
</g>
<!-- Node2&#45;&gt;Node14 -->
<g id="edge14_Node000002_Node000014" class="edge">
<title>Node2&#45;&gt;Node14</title>
<g id="a_edge14_Node000002_Node000014"><a xlink:title=" ">
<path fill="none" stroke="#63b8ff" d="M381.07,-266.65C391.62,-265.45 402.71,-264.19 413.51,-262.96"/>
<polygon fill="#63b8ff" stroke="#63b8ff" points="413.58,-266.48 423.13,-261.87 412.79,-259.52 413.58,-266.48"/>
</a>
</g>
</g>
<!-- Node16 -->
<g id="Node000016" class="node">
<title>Node16</title>
<g id="a_Node000016"><a xlink:href="a01955.html#ae06a9e78e6a4f6c9c8afcf0f4862ce29" target="_top" xlink:title=" ">
<polygon fill="white" stroke="#666666" points="518.88,-59.5 445.88,-59.5 445.88,-41 518.88,-41 518.88,-59.5"/>
<text text-anchor="middle" x="482.38" y="-46" font-family="Helvetica,sans-Serif" font-size="10.00">utils_list_add</text>
</a>
</g>
</g>
<!-- Node2&#45;&gt;Node16 -->
<g id="edge17_Node000002_Node000016" class="edge">
<title>Node2&#45;&gt;Node16</title>
<g id="a_edge17_Node000002_Node000016"><a xlink:title=" ">
<path fill="none" stroke="#63b8ff" d="M333.62,-263.55C346.66,-251.07 368.58,-228.13 381,-204.25 409.66,-149.16 373.67,-113.73 417,-69.25 421.96,-64.16 428.22,-60.41 434.87,-57.66"/>
<polygon fill="#63b8ff" stroke="#63b8ff" points="435.7,-61.07 444.08,-54.59 433.48,-54.43 435.7,-61.07"/>
</a>
</g>
</g>
<!-- Node4&#45;&gt;Node5 -->
<g id="edge4_Node000004_Node000005" class="edge">
<title>Node4&#45;&gt;Node5</title>
<g id="a_edge4_Node000004_Node000005"><a xlink:title=" ">
<path fill="none" stroke="#63b8ff" d="M527.06,-320.39C534.52,-316.56 541.78,-311.89 547.75,-306.25 572.9,-282.51 563.07,-264.98 583.75,-237.25 594.85,-222.36 609.93,-207.82 622.03,-197.15"/>
<polygon fill="#63b8ff" stroke="#63b8ff" points="624.13,-199.96 629.44,-190.79 619.57,-194.65 624.13,-199.96"/>
</a>
</g>
</g>
<!-- Node4&#45;&gt;Node7 -->
<g id="edge6_Node000004_Node000007" class="edge">
<title>Node4&#45;&gt;Node7</title>
<g id="a_edge6_Node000004_Node000007"><a xlink:title=" ">
<path fill="none" stroke="#63b8ff" d="M503.35,-320.43C517.54,-308.96 536.07,-291.93 547.75,-273.25 575.25,-229.28 547.34,-199.19 583.75,-162.25 585.34,-160.64 587.06,-159.16 588.89,-157.79"/>
<polygon fill="#63b8ff" stroke="#63b8ff" points="590.62,-160.84 597.41,-152.7 587.03,-154.83 590.62,-160.84"/>
</a>
</g>
</g>
<!-- Node9 -->
<g id="Node000009" class="node">
<title>Node9</title>
<g id="a_Node000009"><a xlink:href="a01955.html#a0c85e5516222ab7e7fc354c614760ec5" target="_top" xlink:title=" ">
<polygon fill="white" stroke="#666666" points="678.5,-308.5 608.5,-308.5 608.5,-290 678.5,-290 678.5,-308.5"/>
<text text-anchor="middle" x="643.5" y="-295" font-family="Helvetica,sans-Serif" font-size="10.00">utils_list_del</text>
</a>
</g>
</g>
<!-- Node4&#45;&gt;Node9 -->
<g id="edge8_Node000004_Node000009" class="edge">
<title>Node4&#45;&gt;Node9</title>
<g id="a_edge8_Node000004_Node000009"><a xlink:title=" ">
<path fill="none" stroke="#63b8ff" d="M548.1,-320.61C564.55,-316.88 581.89,-312.96 597.15,-309.51"/>
<polygon fill="#63b8ff" stroke="#63b8ff" points="597.91,-312.93 606.89,-307.31 596.36,-306.1 597.91,-312.93"/>
</a>
</g>
</g>
<!-- Node10 -->
<g id="Node000010" class="node">
<title>Node10</title>
<g id="a_Node000010"><a xlink:href="a01955.html#ab0c44e095ebfd8721de878c42abcbbdc" target="_top" xlink:title=" ">
<polygon fill="white" stroke="#666666" points="697.62,-345.5 589.38,-345.5 589.38,-327 697.62,-327 697.62,-345.5"/>
<text text-anchor="middle" x="643.5" y="-332" font-family="Helvetica,sans-Serif" font-size="10.00">utils_list_node_linked</text>
</a>
</g>
</g>
<!-- Node4&#45;&gt;Node10 -->
<g id="edge9_Node000004_Node000010" class="edge">
<title>Node4&#45;&gt;Node10</title>
<g id="a_edge9_Node000004_Node000010"><a xlink:title=" ">
<path fill="none" stroke="#63b8ff" d="M548.1,-335.66C557.87,-335.72 567.95,-335.78 577.72,-335.84"/>
<polygon fill="#63b8ff" stroke="#63b8ff" points="577.48,-339.34 587.5,-335.9 577.52,-332.34 577.48,-339.34"/>
</a>
</g>
</g>
<!-- Node6 -->
<g id="Node000006" class="node">
<title>Node6</title>
<g id="a_Node000006"><a xlink:href="a02358.html#aebf9e72bb6cbd8b9e33489d46c25075d" target="_top" xlink:title=" ">
<polygon fill="white" stroke="#666666" points="867,-188.5 750.5,-188.5 750.5,-170 867,-170 867,-188.5"/>
<text text-anchor="middle" x="808.75" y="-175" font-family="Helvetica,sans-Serif" font-size="10.00">async_completion_wait</text>
</a>
</g>
</g>
<!-- Node5&#45;&gt;Node6 -->
<g id="edge5_Node000005_Node000006" class="edge">
<title>Node5&#45;&gt;Node6</title>
<g id="a_edge5_Node000005_Node000006"><a xlink:title=" ">
<path fill="none" stroke="#63b8ff" d="M698.41,-179.92C711.39,-179.84 725.44,-179.75 739.01,-179.67"/>
<polygon fill="#63b8ff" stroke="#63b8ff" points="738.76,-183.17 748.74,-179.61 738.72,-176.17 738.76,-183.17"/>
</a>
</g>
</g>
<!-- Node8 -->
<g id="Node000008" class="node">
<title>Node8</title>
<g id="a_Node000008"><a xlink:href="a02358.html#ad1d30ecbf6bff6457b680aa940281072" target="_top" xlink:title=" ">
<polygon fill="white" stroke="#666666" points="878.25,-151.5 739.25,-151.5 739.25,-133 878.25,-133 878.25,-151.5"/>
<text text-anchor="middle" x="808.75" y="-138" font-family="Helvetica,sans-Serif" font-size="10.00">async_completion_complete</text>
</a>
</g>
</g>
<!-- Node7&#45;&gt;Node8 -->
<g id="edge7_Node000007_Node000008" class="edge">
<title>Node7&#45;&gt;Node8</title>
<g id="a_edge7_Node000007_Node000008"><a xlink:title=" ">
<path fill="none" stroke="#63b8ff" d="M703.44,-142.25C711.26,-142.25 719.38,-142.25 727.49,-142.25"/>
<polygon fill="#63b8ff" stroke="#63b8ff" points="727.39,-145.75 737.39,-142.25 727.39,-138.75 727.39,-145.75"/>
</a>
</g>
</g>
<!-- Node12 -->
<g id="Node000012" class="node">
<title>Node12</title>
<g id="a_Node000012"><a xlink:href="a01943.html#afe1eb3edd264c847c36e9456b2598452" target="_top" xlink:title=" ">
<polygon fill="white" stroke="#666666" points="693.5,-384.5 593.5,-384.5 593.5,-366 693.5,-366 693.5,-384.5"/>
<text text-anchor="middle" x="643.5" y="-371" font-family="Helvetica,sans-Serif" font-size="10.00">arax_vaccel_queue</text>
</a>
</g>
</g>
<!-- Node11&#45;&gt;Node12 -->
<g id="edge11_Node000011_Node000012" class="edge">
<title>Node11&#45;&gt;Node12</title>
<g id="a_edge11_Node000011_Node000012"><a xlink:title=" ">
<path fill="none" stroke="#63b8ff" d="M543.99,-376.49C556.43,-376.33 569.52,-376.17 581.96,-376.01"/>
<polygon fill="#63b8ff" stroke="#63b8ff" points="581.69,-379.51 591.65,-375.89 581.6,-372.52 581.69,-379.51"/>
</a>
</g>
</g>
<!-- Node13 -->
<g id="Node000013" class="node">
<title>Node13</title>
<g id="a_Node000013"><a xlink:href="a01958.html#a5d84d59bded666fdcf1a8e949cb56a6a" target="_top" xlink:title=" ">
<polygon fill="white" stroke="#666666" points="702.5,-421.5 584.5,-421.5 584.5,-403 702.5,-403 702.5,-421.5"/>
<text text-anchor="middle" x="643.5" y="-408" font-family="Helvetica,sans-Serif" font-size="10.00">utils_queue_used_slots</text>
</a>
</g>
</g>
<!-- Node11&#45;&gt;Node13 -->
<g id="edge12_Node000011_Node000013" class="edge">
<title>Node11&#45;&gt;Node13</title>
<g id="a_edge12_Node000011_Node000013"><a xlink:title=" ">
<path fill="none" stroke="#63b8ff" d="M527.7,-387C546.15,-391.06 567.77,-395.81 587.24,-400.09"/>
<polygon fill="#63b8ff" stroke="#63b8ff" points="586.42,-403.5 596.93,-402.23 587.92,-396.66 586.42,-403.5"/>
</a>
</g>
</g>
<!-- Node15 -->
<g id="Node000015" class="node">
<title>Node15</title>
<g id="a_Node000015"><a xlink:href="a02358.html#a0fa370eee5160963e617d1daf1c07363" target="_top" xlink:title=" ">
<polygon fill="white" stroke="#666666" points="699.88,-264.5 587.12,-264.5 587.12,-246 699.88,-246 699.88,-264.5"/>
<text text-anchor="middle" x="643.5" y="-251" font-family="Helvetica,sans-Serif" font-size="10.00">async_semaphore_inc</text>
</a>
</g>
</g>
<!-- Node14&#45;&gt;Node15 -->
<g id="edge15_Node000014_Node000015" class="edge">
<title>Node14&#45;&gt;Node15</title>
<g id="a_edge15_Node000014_Node000015"><a xlink:title=" ">
<path fill="none" stroke="#63b8ff" d="M540.37,-255.25C551.68,-255.25 563.64,-255.25 575.25,-255.25"/>
<polygon fill="#63b8ff" stroke="#63b8ff" points="575.19,-258.75 585.19,-255.25 575.19,-251.75 575.19,-258.75"/>
</a>
</g>
</g>
<!-- Node17 -->
<g id="Node000017" class="node">
<title>Node17</title>
<g id="a_Node000017"><a xlink:href="a01955.html#a5c575f52a42e0e0d2fb41bda2d1268ce" target="_top" xlink:title=" ">
<polygon fill="white" stroke="#666666" points="693.12,-59.5 593.88,-59.5 593.88,-41 693.12,-41 693.12,-59.5"/>
<text text-anchor="middle" x="643.5" y="-46" font-family="Helvetica,sans-Serif" font-size="10.00">utils_list_node_add</text>
</a>
</g>
</g>
<!-- Node16&#45;&gt;Node17 -->
<g id="edge18_Node000016_Node000017" class="edge">
<title>Node16&#45;&gt;Node17</title>
<g id="a_edge18_Node000016_Node000017"><a xlink:title=" ">
<path fill="none" stroke="#63b8ff" d="M519.09,-50.25C537.73,-50.25 561.04,-50.25 582.37,-50.25"/>
<polygon fill="#63b8ff" stroke="#63b8ff" points="582.12,-53.75 592.12,-50.25 582.12,-46.75 582.12,-53.75"/>
</a>
</g>
</g>
<!-- Node18&#45;&gt;Node16 -->
<g id="edge31_Node000018_Node000016" class="edge">
<title>Node18&#45;&gt;Node16</title>
<g id="a_edge31_Node000018_Node000016"><a xlink:title=" ">
<path fill="none" stroke="#63b8ff" d="M216.83,-73.59C231.34,-70.49 247.83,-67.33 263,-65.25 321.76,-57.21 390.03,-53.4 434.38,-51.65"/>
<polygon fill="#63b8ff" stroke="#63b8ff" points="434.29,-55.15 444.16,-51.28 434.03,-48.16 434.29,-55.15"/>
</a>
</g>
</g>
<!-- Node19 -->
<g id="Node000019" class="node">
<title>Node19</title>
<g id="a_Node000019"><a xlink:href="a01928.html#a6cc54ee40009c61b5f6526f5edff004f" target="_top" xlink:title=" ">
<polygon fill="white" stroke="#666666" points="373.12,-129.5 270.88,-129.5 270.88,-111 373.12,-111 373.12,-129.5"/>
<text text-anchor="middle" x="322" y="-116" font-family="Helvetica,sans-Serif" font-size="10.00">arax_pipe_size_dec</text>
</a>
</g>
</g>
<!-- Node18&#45;&gt;Node19 -->
<g id="edge20_Node000018_Node000019" class="edge">
<title>Node18&#45;&gt;Node19</title>
<g id="a_edge20_Node000018_Node000019"><a xlink:title=" ">
<path fill="none" stroke="#63b8ff" d="M213.91,-92.97C231.61,-97.48 252.85,-102.89 271.74,-107.7"/>
<polygon fill="#63b8ff" stroke="#63b8ff" points="270.82,-111.08 281.37,-110.16 272.55,-104.3 270.82,-111.08"/>
</a>
</g>
</g>
<!-- Node23 -->
<g id="Node000023" class="node">
<title>Node23</title>
<g id="a_Node000023"><a xlink:href="a02355.html#ac9828b5c2758940f6d3c7d4335228de5" target="_top" xlink:title=" ">
<polygon fill="white" stroke="#666666" points="371.62,-92.5 272.38,-92.5 272.38,-74 371.62,-74 371.62,-92.5"/>
<text text-anchor="middle" x="322" y="-79" font-family="Helvetica,sans-Serif" font-size="10.00">arch_alloc_allocate</text>
</a>
</g>
</g>
<!-- Node18&#45;&gt;Node23 -->
<g id="edge30_Node000018_Node000023" class="edge">
<title>Node18&#45;&gt;Node23</title>
<g id="a_edge30_Node000018_Node000023"><a xlink:title=" ">
<path fill="none" stroke="#63b8ff" d="M227.37,-83.25C238.14,-83.25 249.59,-83.25 260.64,-83.25"/>
<polygon fill="#63b8ff" stroke="#63b8ff" points="260.47,-86.75 270.47,-83.25 260.47,-79.75 260.47,-86.75"/>
</a>
</g>
</g>
<!-- Node18&#45;&gt;Node24 -->
<g id="edge32_Node000018_Node000024" class="edge">
<title>Node18&#45;&gt;Node24</title>
<g id="a_edge32_Node000018_Node000024"><a xlink:title=" ">
<path fill="none" stroke="#63b8ff" d="M200.6,-73.52C209.19,-69.79 218.73,-65.23 227,-60.25 244.37,-49.8 245.4,-42.31 263,-32.25 268.78,-28.94 275.14,-25.9 281.45,-23.18"/>
<polygon fill="#63b8ff" stroke="#63b8ff" points="282.58,-26.5 290.53,-19.49 279.95,-20.01 282.58,-26.5"/>
</a>
</g>
</g>
<!-- Node19&#45;&gt;Node19 -->
<g id="edge21_Node000019_Node000019" class="edge">
<title>Node19&#45;&gt;Node19</title>
<g id="a_edge21_Node000019_Node000019"><a xlink:title=" ">
<path fill="none" stroke="#63b8ff" d="M299.3,-129.75C288.26,-138.32 295.83,-147.5 322,-147.5 336.72,-147.5 345.56,-144.59 348.5,-140.53"/>
<polygon fill="#63b8ff" stroke="#63b8ff" points="351.83,-139.44 345.2,-131.17 345.23,-141.77 351.83,-139.44"/>
</a>
</g>
</g>
<!-- Node20 -->
<g id="Node000020" class="node">
<title>Node20</title>
<g id="a_Node000020"><a xlink:href="a01940.html#a63b80783cfb3106ec4169ce082f153c0" target="_top" xlink:title=" ">
<polygon fill="white" stroke="#666666" points="539.5,-96.5 425.25,-96.5 425.25,-78 539.5,-78 539.5,-96.5"/>
<text text-anchor="middle" x="482.38" y="-83" font-family="Helvetica,sans-Serif" font-size="10.00">arax_throttle_size_dec</text>
</a>
</g>
</g>
<!-- Node19&#45;&gt;Node20 -->
<g id="edge22_Node000019_Node000020" class="edge">
<title>Node19&#45;&gt;Node20</title>
<g id="a_edge22_Node000019_Node000020"><a xlink:title=" ">
<path fill="none" stroke="#63b8ff" d="M369.66,-110.53C386.58,-107 405.9,-102.98 423.66,-99.28"/>
<polygon fill="#63b8ff" stroke="#63b8ff" points="424.22,-102.74 433.29,-97.27 422.79,-95.88 424.22,-102.74"/>
</a>
</g>
</g>
<!-- Node20&#45;&gt;Node5 -->
<g id="edge24_Node000020_Node000005" class="edge">
<title>Node20&#45;&gt;Node5</title>
<g id="a_edge24_Node000020_Node000005"><a xlink:title=" ">
<path fill="none" stroke="#63b8ff" d="M494.38,-96.99C512.1,-112.27 548.55,-142 583.75,-160.25 588.17,-162.54 592.92,-164.66 597.72,-166.59"/>
<polygon fill="#63b8ff" stroke="#63b8ff" points="596.22,-169.77 606.81,-169.99 598.66,-163.21 596.22,-169.77"/>
</a>
</g>
</g>
<!-- Node20&#45;&gt;Node7 -->
<g id="edge25_Node000020_Node000007" class="edge">
<title>Node20&#45;&gt;Node7</title>
<g id="a_edge25_Node000020_Node000007"><a xlink:title=" ">
<path fill="none" stroke="#63b8ff" d="M509.71,-96.95C529.91,-104.33 558.52,-114.65 583.75,-123.25 589.46,-125.2 595.49,-127.2 601.44,-129.15"/>
<polygon fill="#63b8ff" stroke="#63b8ff" points="599.92,-132.34 610.51,-132.1 602.08,-125.68 599.92,-132.34"/>
</a>
</g>
</g>
<!-- Node20&#45;&gt;Node20 -->
<g id="edge23_Node000020_Node000020" class="edge">
<title>Node20&#45;&gt;Node20</title>
<g id="a_edge23_Node000020_Node000020"><a xlink:title=" ">
<path fill="none" stroke="#63b8ff" d="M457.66,-96.75C445.63,-105.32 453.87,-114.5 482.38,-114.5 498.85,-114.5 508.56,-111.43 511.49,-107.19"/>
<polygon fill="#63b8ff" stroke="#63b8ff" points="514.79,-106 507.68,-98.14 508.34,-108.71 514.79,-106"/>
</a>
</g>
</g>
<!-- Node21 -->
<g id="Node000021" class="node">
<title>Node21</title>
<g id="a_Node000021"><a xlink:href="a02364.html#a1bfeaeb9b81855e640d7a67cc9d92b17" target="_top" xlink:title=" ">
<polygon fill="white" stroke="#666666" points="697.62,-114.5 589.38,-114.5 589.38,-96 697.62,-96 697.62,-114.5"/>
<text text-anchor="middle" x="643.5" y="-101" font-family="Helvetica,sans-Serif" font-size="10.00">async_condition_wait</text>
</a>
</g>
</g>
<!-- Node20&#45;&gt;Node21 -->
<g id="edge26_Node000020_Node000021" class="edge">
<title>Node20&#45;&gt;Node21</title>
<g id="a_edge26_Node000020_Node000021"><a xlink:title=" ">
<path fill="none" stroke="#63b8ff" d="M539.92,-93.65C552.17,-95.03 565.2,-96.51 577.74,-97.92"/>
<polygon fill="#63b8ff" stroke="#63b8ff" points="577.23,-101.39 587.56,-99.04 578.02,-94.43 577.23,-101.39"/>
</a>
</g>
</g>
<!-- Node21&#45;&gt;Node6 -->
<g id="edge28_Node000021_Node000006" class="edge">
<title>Node21&#45;&gt;Node6</title>
<g id="a_edge28_Node000021_Node000006"><a xlink:title=" ">
<path fill="none" stroke="#63b8ff" d="M683.27,-114.9C690.18,-117.41 697.12,-120.5 703.25,-124.25 722.55,-136.06 719.7,-148.85 739.25,-160.25 742.6,-162.21 746.17,-163.97 749.84,-165.55"/>
<polygon fill="#63b8ff" stroke="#63b8ff" points="748.38,-168.74 758.97,-169.03 750.87,-162.2 748.38,-168.74"/>
</a>
</g>
</g>
<!-- Node21&#45;&gt;Node8 -->
<g id="edge27_Node000021_Node000008" class="edge">
<title>Node21&#45;&gt;Node8</title>
<g id="a_edge27_Node000021_Node000008"><a xlink:title=" ">
<path fill="none" stroke="#63b8ff" d="M687.39,-114.97C707.74,-119.58 732.28,-125.15 753.87,-130.04"/>
<polygon fill="#63b8ff" stroke="#63b8ff" points="752.86,-133.4 763.39,-132.19 754.41,-126.57 752.86,-133.4"/>
</a>
</g>
</g>
<!-- Node22 -->
<g id="Node000022" class="node">
<title>Node22</title>
<g id="a_Node000022"><a xlink:href="a02358.html#a7ab7c7fe9cb93434dde72a4e464a7e69" target="_top" xlink:title=" ">
<polygon fill="white" stroke="#666666" points="866.62,-114.5 750.88,-114.5 750.88,-96 866.62,-96 866.62,-114.5"/>
<text text-anchor="middle" x="808.75" y="-101" font-family="Helvetica,sans-Serif" font-size="10.00">async_semaphore_dec</text>
</a>
</g>
</g>
<!-- Node21&#45;&gt;Node22 -->
<g id="edge29_Node000021_Node000022" class="edge">
<title>Node21&#45;&gt;Node22</title>
<g id="a_edge29_Node000021_Node000022"><a xlink:title=" ">
<path fill="none" stroke="#63b8ff" d="M697.95,-105.25C711.1,-105.25 725.36,-105.25 739.12,-105.25"/>
<polygon fill="#63b8ff" stroke="#63b8ff" points="739.01,-108.75 749.01,-105.25 739.01,-101.75 739.01,-108.75"/>
</a>
</g>
</g>
<!-- Node25&#45;&gt;Node5 -->
<g id="edge34_Node000025_Node000005" class="edge">
<title>Node25&#45;&gt;Node5</title>
<g id="a_edge34_Node000025_Node000005"><a xlink:title=" ">
<path fill="none" stroke="#63b8ff" d="M379.75,-180.25C435.14,-180.25 519.34,-180.25 577.42,-180.25"/>
<polygon fill="#63b8ff" stroke="#63b8ff" points="577.16,-183.75 587.16,-180.25 577.16,-176.75 577.16,-183.75"/>
</a>
</g>
</g>
<!-- Node25&#45;&gt;Node7 -->
<g id="edge36_Node000025_Node000007" class="edge">
<title>Node25&#45;&gt;Node7</title>
<g id="a_edge36_Node000025_Node000007"><a xlink:title=" ">
<path fill="none" stroke="#63b8ff" d="M379.75,-173.5C433.46,-167.11 514.26,-157.5 572.06,-150.63"/>
<polygon fill="#63b8ff" stroke="#63b8ff" points="572.28,-154.13 581.8,-149.47 571.45,-147.18 572.28,-154.13"/>
</a>
</g>
</g>
<!-- Node25&#45;&gt;Node14 -->
<g id="edge35_Node000025_Node000014" class="edge">
<title>Node25&#45;&gt;Node14</title>
<g id="a_edge35_Node000025_Node000014"><a xlink:title=" ">
<path fill="none" stroke="#63b8ff" d="M354.67,-195.25C382.56,-208.46 422.93,-227.57 450.57,-240.66"/>
<polygon fill="#63b8ff" stroke="#63b8ff" points="448.93,-243.76 459.47,-244.88 451.93,-237.43 448.93,-243.76"/>
</a>
</g>
</g>
<!-- Node25&#45;&gt;Node16 -->
<g id="edge37_Node000025_Node000016" class="edge">
<title>Node25&#45;&gt;Node16</title>
<g id="a_edge37_Node000025_Node000016"><a xlink:title=" ">
<path fill="none" stroke="#63b8ff" d="M369.19,-165.28C373.49,-162.71 377.53,-159.72 381,-156.25 410.59,-126.66 385.89,-97.24 417,-69.25 422.17,-64.6 428.44,-61.08 435,-58.42"/>
<polygon fill="#63b8ff" stroke="#63b8ff" points="435.64,-61.9 444.01,-55.4 433.41,-55.26 435.64,-61.9"/>
</a>
</g>
</g>
</g>
</svg>
