<?xml version="1.0" encoding="UTF-8" standalone="no"?>
<!DOCTYPE svg PUBLIC "-//W3C//DTD SVG 1.1//EN"
 "http://www.w3.org/Graphics/SVG/1.1/DTD/svg11.dtd">
<!-- Generated by graphviz version 12.2.1 (0)
 -->
<!-- Title: system.c Pages: 1 -->
<svg width="814pt" height="136pt"
 viewBox="0.00 0.00 813.50 135.50" xmlns="http://www.w3.org/2000/svg" xmlns:xlink="http://www.w3.org/1999/xlink">
<g id="graph0" class="graph" transform="scale(1 1) rotate(0) translate(4 131.5)">
<title>system.c</title>
<!-- Node1 -->
<g id="Node000001" class="node">
<title>Node1</title>
<g id="a_Node000001"><a xlink:title=" ">
<polygon fill="#999999" stroke="#666666" points="470.75,-127.5 415.75,-127.5 415.75,-109 470.75,-109 470.75,-127.5"/>
<text text-anchor="middle" x="443.25" y="-114" font-family="Helvetica,sans-Serif" font-size="10.00">system.c</text>
</a>
</g>
</g>
<!-- Node2 -->
<g id="Node000002" class="node">
<title>Node2</title>
<g id="a_Node000002"><a xlink:href="a01397.html" target="_top" xlink:title=" ">
<polygon fill="white" stroke="#666666" points="90.75,-73 35.75,-73 35.75,-54.5 90.75,-54.5 90.75,-73"/>
<text text-anchor="middle" x="63.25" y="-59.5" font-family="Helvetica,sans-Serif" font-size="10.00">system.h</text>
</a>
</g>
</g>
<!-- Node1&#45;&gt;Node2 -->
<g id="edge1_Node000001_Node000002" class="edge">
<title>Node1&#45;&gt;Node2</title>
<g id="a_edge1_Node000001_Node000002"><a xlink:title=" ">
<path fill="none" stroke="#63b8ff" d="M415.46,-114.6C358.51,-108.98 224.2,-94.71 102.12,-73.37"/>
<polygon fill="#63b8ff" stroke="#63b8ff" points="103.05,-69.98 92.59,-71.68 101.83,-76.87 103.05,-69.98"/>
</a>
</g>
</g>
<!-- Node5 -->
<g id="Node000005" class="node">
<title>Node5</title>
<g id="a_Node000005"><a xlink:title=" ">
<polygon fill="#e0e0e0" stroke="#999999" points="165.88,-73 108.62,-73 108.62,-54.5 165.88,-54.5 165.88,-73"/>
<text text-anchor="middle" x="137.25" y="-59.5" font-family="Helvetica,sans-Serif" font-size="10.00">sys/stat.h</text>
</a>
</g>
</g>
<!-- Node1&#45;&gt;Node5 -->
<g id="edge4_Node000001_Node000005" class="edge">
<title>Node1&#45;&gt;Node5</title>
<g id="a_edge4_Node000001_Node000005"><a xlink:title=" ">
<path fill="none" stroke="#63b8ff" d="M415.39,-113.12C368.46,-106.06 270.41,-90.89 177.3,-73.31"/>
<polygon fill="#63b8ff" stroke="#63b8ff" points="178.23,-69.92 167.75,-71.49 176.92,-76.8 178.23,-69.92"/>
</a>
</g>
</g>
<!-- Node6 -->
<g id="Node000006" class="node">
<title>Node6</title>
<g id="a_Node000006"><a xlink:title=" ">
<polygon fill="#e0e0e0" stroke="#999999" points="232.38,-73 184.12,-73 184.12,-54.5 232.38,-54.5 232.38,-73"/>
<text text-anchor="middle" x="208.25" y="-59.5" font-family="Helvetica,sans-Serif" font-size="10.00">string.h</text>
</a>
</g>
</g>
<!-- Node1&#45;&gt;Node6 -->
<g id="edge5_Node000001_Node000006" class="edge">
<title>Node1&#45;&gt;Node6</title>
<g id="a_edge5_Node000001_Node000006"><a xlink:title=" ">
<path fill="none" stroke="#63b8ff" d="M415.42,-111.42C378.47,-103.63 310.91,-89.18 243.92,-73.57"/>
<polygon fill="#63b8ff" stroke="#63b8ff" points="244.75,-70.17 234.21,-71.3 243.15,-76.99 244.75,-70.17"/>
</a>
</g>
</g>
<!-- Node7 -->
<g id="Node000007" class="node">
<title>Node7</title>
<g id="a_Node000007"><a xlink:title=" ">
<polygon fill="#e0e0e0" stroke="#999999" points="310.38,-73 250.12,-73 250.12,-54.5 310.38,-54.5 310.38,-73"/>
<text text-anchor="middle" x="280.25" y="-59.5" font-family="Helvetica,sans-Serif" font-size="10.00">execinfo.h</text>
</a>
</g>
</g>
<!-- Node1&#45;&gt;Node7 -->
<g id="edge6_Node000001_Node000007" class="edge">
<title>Node1&#45;&gt;Node7</title>
<g id="a_edge6_Node000001_Node000007"><a xlink:title=" ">
<path fill="none" stroke="#63b8ff" d="M416.33,-108.58C389.55,-99.96 348.22,-86.64 318.13,-76.95"/>
<polygon fill="#63b8ff" stroke="#63b8ff" points="319.24,-73.63 308.65,-73.9 317.09,-80.29 319.24,-73.63"/>
</a>
</g>
</g>
<!-- Node8 -->
<g id="Node000008" class="node">
<title>Node8</title>
<g id="a_Node000008"><a xlink:title=" ">
<polygon fill="#e0e0e0" stroke="#999999" points="399.62,-73 328.88,-73 328.88,-54.5 399.62,-54.5 399.62,-73"/>
<text text-anchor="middle" x="364.25" y="-59.5" font-family="Helvetica,sans-Serif" font-size="10.00">sys/syscall.h</text>
</a>
</g>
</g>
<!-- Node1&#45;&gt;Node8 -->
<g id="edge7_Node000001_Node000008" class="edge">
<title>Node1&#45;&gt;Node8</title>
<g id="a_edge7_Node000001_Node000008"><a xlink:title=" ">
<path fill="none" stroke="#63b8ff" d="M430.2,-108.58C418.43,-100.75 400.84,-89.07 386.79,-79.73"/>
<polygon fill="#63b8ff" stroke="#63b8ff" points="388.84,-76.89 378.58,-74.27 384.97,-82.72 388.84,-76.89"/>
</a>
</g>
</g>
<!-- Node9 -->
<g id="Node000009" class="node">
<title>Node9</title>
<g id="a_Node000009"><a xlink:title=" ">
<polygon fill="#e0e0e0" stroke="#999999" points="468.5,-73 418,-73 418,-54.5 468.5,-54.5 468.5,-73"/>
<text text-anchor="middle" x="443.25" y="-59.5" font-family="Helvetica,sans-Serif" font-size="10.00">unistd.h</text>
</a>
</g>
</g>
<!-- Node1&#45;&gt;Node9 -->
<g id="edge8_Node000001_Node000009" class="edge">
<title>Node1&#45;&gt;Node9</title>
<g id="a_edge8_Node000001_Node000009"><a xlink:title=" ">
<path fill="none" stroke="#63b8ff" d="M443.25,-108.58C443.25,-102.08 443.25,-92.92 443.25,-84.66"/>
<polygon fill="#63b8ff" stroke="#63b8ff" points="446.75,-84.77 443.25,-74.77 439.75,-84.77 446.75,-84.77"/>
</a>
</g>
</g>
<!-- Node10 -->
<g id="Node000010" class="node">
<title>Node10</title>
<g id="a_Node000010"><a xlink:title=" ">
<polygon fill="#e0e0e0" stroke="#999999" points="531.88,-73 486.62,-73 486.62,-54.5 531.88,-54.5 531.88,-73"/>
<text text-anchor="middle" x="509.25" y="-59.5" font-family="Helvetica,sans-Serif" font-size="10.00">stdio.h</text>
</a>
</g>
</g>
<!-- Node1&#45;&gt;Node10 -->
<g id="edge9_Node000001_Node000010" class="edge">
<title>Node1&#45;&gt;Node10</title>
<g id="a_edge9_Node000001_Node000010"><a xlink:title=" ">
<path fill="none" stroke="#63b8ff" d="M454.15,-108.58C463.76,-100.94 478,-89.61 489.6,-80.38"/>
<polygon fill="#63b8ff" stroke="#63b8ff" points="491.72,-83.16 497.37,-74.2 487.36,-77.69 491.72,-83.16"/>
</a>
</g>
</g>
<!-- Node11 -->
<g id="Node000011" class="node">
<title>Node11</title>
<g id="a_Node000011"><a xlink:title=" ">
<polygon fill="#e0e0e0" stroke="#999999" points="597,-73 549.5,-73 549.5,-54.5 597,-54.5 597,-73"/>
<text text-anchor="middle" x="573.25" y="-59.5" font-family="Helvetica,sans-Serif" font-size="10.00">stdlib.h</text>
</a>
</g>
</g>
<!-- Node1&#45;&gt;Node11 -->
<g id="edge10_Node000001_Node000011" class="edge">
<title>Node1&#45;&gt;Node11</title>
<g id="a_edge10_Node000001_Node000011"><a xlink:title=" ">
<path fill="none" stroke="#63b8ff" d="M464.72,-108.58C485.51,-100.18 517.3,-87.34 541.11,-77.73"/>
<polygon fill="#63b8ff" stroke="#63b8ff" points="542.39,-80.99 550.35,-74 539.76,-74.5 542.39,-80.99"/>
</a>
</g>
</g>
<!-- Node12 -->
<g id="Node000012" class="node">
<title>Node12</title>
<g id="a_Node000012"><a xlink:title=" ">
<polygon fill="#e0e0e0" stroke="#999999" points="657.38,-73 615.12,-73 615.12,-54.5 657.38,-54.5 657.38,-73"/>
<text text-anchor="middle" x="636.25" y="-59.5" font-family="Helvetica,sans-Serif" font-size="10.00">pwd.h</text>
</a>
</g>
</g>
<!-- Node1&#45;&gt;Node12 -->
<g id="edge11_Node000001_Node000012" class="edge">
<title>Node1&#45;&gt;Node12</title>
<g id="a_edge11_Node000001_Node000012"><a xlink:title=" ">
<path fill="none" stroke="#63b8ff" d="M471.24,-109.68C501.62,-101.46 551.85,-87.85 604.12,-73.58"/>
<polygon fill="#63b8ff" stroke="#63b8ff" points="604.76,-77.03 613.49,-71.02 602.92,-70.28 604.76,-77.03"/>
</a>
</g>
</g>
<!-- Node13 -->
<g id="Node000013" class="node">
<title>Node13</title>
<g id="a_Node000013"><a xlink:title=" ">
<polygon fill="#e0e0e0" stroke="#999999" points="718.75,-73 675.75,-73 675.75,-54.5 718.75,-54.5 718.75,-73"/>
<text text-anchor="middle" x="697.25" y="-59.5" font-family="Helvetica,sans-Serif" font-size="10.00">fcntl.h</text>
</a>
</g>
</g>
<!-- Node1&#45;&gt;Node13 -->
<g id="edge12_Node000001_Node000013" class="edge">
<title>Node1&#45;&gt;Node13</title>
<g id="a_edge12_Node000001_Node000013"><a xlink:title=" ">
<path fill="none" stroke="#63b8ff" d="M471.19,-112.3C511.55,-105.02 588.78,-90.63 664.17,-73.35"/>
<polygon fill="#63b8ff" stroke="#63b8ff" points="664.85,-76.79 673.8,-71.13 663.27,-69.97 664.85,-76.79"/>
</a>
</g>
</g>
<!-- Node14 -->
<g id="Node000014" class="node">
<title>Node14</title>
<g id="a_Node000014"><a xlink:title=" ">
<polygon fill="#e0e0e0" stroke="#999999" points="805.5,-73 737,-73 737,-54.5 805.5,-54.5 805.5,-73"/>
<text text-anchor="middle" x="771.25" y="-59.5" font-family="Helvetica,sans-Serif" font-size="10.00">sys/mman.h</text>
</a>
</g>
</g>
<!-- Node1&#45;&gt;Node14 -->
<g id="edge13_Node000001_Node000014" class="edge">
<title>Node1&#45;&gt;Node14</title>
<g id="a_edge13_Node000001_Node000014"><a xlink:title=" ">
<path fill="none" stroke="#63b8ff" d="M471.22,-113.24C520.49,-106.11 626.26,-90.49 725.42,-73.44"/>
<polygon fill="#63b8ff" stroke="#63b8ff" points="725.79,-76.93 735.04,-71.78 724.59,-70.03 725.79,-76.93"/>
</a>
</g>
</g>
<!-- Node3 -->
<g id="Node000003" class="node">
<title>Node3</title>
<g id="a_Node000003"><a xlink:title=" ">
<polygon fill="#e0e0e0" stroke="#999999" points="50.5,-18.5 0,-18.5 0,0 50.5,0 50.5,-18.5"/>
<text text-anchor="middle" x="25.25" y="-5" font-family="Helvetica,sans-Serif" font-size="10.00">stddef.h</text>
</a>
</g>
</g>
<!-- Node2&#45;&gt;Node3 -->
<g id="edge2_Node000002_Node000003" class="edge">
<title>Node2&#45;&gt;Node3</title>
<g id="a_edge2_Node000002_Node000003"><a xlink:title=" ">
<path fill="none" stroke="#63b8ff" d="M56.98,-54.08C51.83,-46.97 44.38,-36.68 37.99,-27.85"/>
<polygon fill="#63b8ff" stroke="#63b8ff" points="40.99,-26.03 32.3,-19.98 35.32,-30.14 40.99,-26.03"/>
</a>
</g>
</g>
<!-- Node4 -->
<g id="Node000004" class="node">
<title>Node4</title>
<g id="a_Node000004"><a xlink:title=" ">
<polygon fill="#e0e0e0" stroke="#999999" points="134,-18.5 68.5,-18.5 68.5,0 134,0 134,-18.5"/>
<text text-anchor="middle" x="101.25" y="-5" font-family="Helvetica,sans-Serif" font-size="10.00">sys/types.h</text>
</a>
</g>
</g>
<!-- Node2&#45;&gt;Node4 -->
<g id="edge3_Node000002_Node000004" class="edge">
<title>Node2&#45;&gt;Node4</title>
<g id="a_edge3_Node000002_Node000004"><a xlink:title=" ">
<path fill="none" stroke="#63b8ff" d="M69.52,-54.08C74.67,-46.97 82.12,-36.68 88.51,-27.85"/>
<polygon fill="#63b8ff" stroke="#63b8ff" points="91.18,-30.14 94.2,-19.98 85.51,-26.03 91.18,-30.14"/>
</a>
</g>
</g>
</g>
</svg>
