<?xml version="1.0" encoding="UTF-8" standalone="no"?>
<!DOCTYPE svg PUBLIC "-//W3C//DTD SVG 1.1//EN"
 "http://www.w3.org/Graphics/SVG/1.1/DTD/svg11.dtd">
<!-- Generated by graphviz version 12.2.1 (0)
 -->
<!-- Title: _utils_config_get_str Pages: 1 -->
<svg width="1456pt" height="205pt"
 viewBox="0.00 0.00 1456.00 204.91" xmlns="http://www.w3.org/2000/svg" xmlns:xlink="http://www.w3.org/1999/xlink">
<g id="graph0" class="graph" transform="scale(1 1) rotate(0) translate(4 200.91)">
<title>_utils_config_get_str</title>
<!-- Node1 -->
<g id="Node000001" class="node">
<title>Node1</title>
<g id="a_Node000001"><a xlink:title=" ">
<polygon fill="#999999" stroke="#666666" points="1448,-102.5 1342,-102.5 1342,-84 1448,-84 1448,-102.5"/>
<text text-anchor="middle" x="1395" y="-89" font-family="Helvetica,sans-Serif" font-size="10.00">_utils_config_get_str</text>
</a>
</g>
</g>
<!-- Node2 -->
<g id="Node000002" class="node">
<title>Node2</title>
<g id="a_Node000002"><a xlink:href="a01952.html#a1a28ba7c7791236d03b1fa9f81aa6a71" target="_top" xlink:title=" ">
<polygon fill="white" stroke="#666666" points="1306,-130.5 1198.5,-130.5 1198.5,-112 1306,-112 1306,-130.5"/>
<text text-anchor="middle" x="1252.25" y="-117" font-family="Helvetica,sans-Serif" font-size="10.00">utils_config_get_long</text>
</a>
</g>
</g>
<!-- Node1&#45;&gt;Node2 -->
<g id="edge1_Node000001_Node000002" class="edge">
<title>Node1&#45;&gt;Node2</title>
<g id="a_edge1_Node000001_Node000002"><a xlink:title=" ">
<path fill="none" stroke="#63b8ff" d="M1334.15,-105.16C1323.43,-107.29 1312.36,-109.49 1302,-111.55"/>
<polygon fill="#63b8ff" stroke="#63b8ff" points="1334.56,-108.64 1343.68,-103.26 1333.19,-101.78 1334.56,-108.64"/>
</a>
</g>
</g>
<!-- Node16 -->
<g id="Node000016" class="node">
<title>Node16</title>
<g id="a_Node000016"><a xlink:href="a01952.html#a1e8deff7c038efae14d1cc98e4ab109f" target="_top" xlink:title=" ">
<polygon fill="white" stroke="#666666" points="877,-74.5 776.25,-74.5 776.25,-56 877,-56 877,-74.5"/>
<text text-anchor="middle" x="826.62" y="-61" font-family="Helvetica,sans-Serif" font-size="10.00">utils_config_get_str</text>
</a>
</g>
</g>
<!-- Node1&#45;&gt;Node16 -->
<g id="edge19_Node000001_Node000016" class="edge">
<title>Node1&#45;&gt;Node16</title>
<g id="a_edge19_Node000001_Node000016"><a xlink:title=" ">
<path fill="none" stroke="#63b8ff" d="M1330.45,-90.11C1216.62,-84.48 980.26,-72.8 877.33,-67.71"/>
<polygon fill="#63b8ff" stroke="#63b8ff" points="1330.06,-93.59 1340.22,-90.59 1330.41,-86.6 1330.06,-93.59"/>
</a>
</g>
</g>
<!-- Node3 -->
<g id="Node000003" class="node">
<title>Node3</title>
<g id="a_Node000003"><a xlink:href="a01952.html#a336fa8eefc3d744aa7248d6786cfee03" target="_top" xlink:title=" ">
<polygon fill="white" stroke="#666666" points="1162.5,-167.5 1062.5,-167.5 1062.5,-149 1162.5,-149 1162.5,-167.5"/>
<text text-anchor="middle" x="1112.5" y="-154" font-family="Helvetica,sans-Serif" font-size="10.00">utils_config_get_int</text>
</a>
</g>
</g>
<!-- Node2&#45;&gt;Node3 -->
<g id="edge2_Node000002_Node000003" class="edge">
<title>Node2&#45;&gt;Node3</title>
<g id="a_edge2_Node000002_Node000003"><a xlink:title=" ">
<path fill="none" stroke="#63b8ff" d="M1203.98,-133.95C1186.12,-138.74 1166.11,-144.12 1149.45,-148.59"/>
<polygon fill="#63b8ff" stroke="#63b8ff" points="1204.85,-137.34 1213.6,-131.36 1203.03,-130.58 1204.85,-137.34"/>
</a>
</g>
</g>
<!-- Node15 -->
<g id="Node000015" class="node">
<title>Node15</title>
<g id="a_Node000015"><a xlink:href="a01952.html#a4a525d89ade920512dc65409bc8e85d8" target="_top" xlink:title=" ">
<polygon fill="white" stroke="#666666" points="1026.12,-130.5 919.38,-130.5 919.38,-112 1026.12,-112 1026.12,-130.5"/>
<text text-anchor="middle" x="972.75" y="-117" font-family="Helvetica,sans-Serif" font-size="10.00">utils_config_get_size</text>
</a>
</g>
</g>
<!-- Node2&#45;&gt;Node15 -->
<g id="edge17_Node000002_Node000015" class="edge">
<title>Node2&#45;&gt;Node15</title>
<g id="a_edge17_Node000002_Node000015"><a xlink:title=" ">
<path fill="none" stroke="#63b8ff" d="M1186.7,-121.25C1137.93,-121.25 1071.83,-121.25 1026.28,-121.25"/>
<polygon fill="#63b8ff" stroke="#63b8ff" points="1186.56,-124.75 1196.56,-121.25 1186.56,-117.75 1186.56,-124.75"/>
</a>
</g>
</g>
<!-- Node4 -->
<g id="Node000004" class="node">
<title>Node4</title>
<g id="a_Node000004"><a xlink:href="a01952.html#aa7aa94ad075bf97a566f01f899fcd859" target="_top" xlink:title=" ">
<polygon fill="white" stroke="#666666" points="1026.5,-167.5 919,-167.5 919,-149 1026.5,-149 1026.5,-167.5"/>
<text text-anchor="middle" x="972.75" y="-154" font-family="Helvetica,sans-Serif" font-size="10.00">utils_config_get_bool</text>
</a>
</g>
</g>
<!-- Node3&#45;&gt;Node4 -->
<g id="edge3_Node000003_Node000004" class="edge">
<title>Node3&#45;&gt;Node4</title>
<g id="a_edge3_Node000003_Node000004"><a xlink:title=" ">
<path fill="none" stroke="#63b8ff" d="M1050.71,-158.25C1042.79,-158.25 1034.72,-158.25 1026.94,-158.25"/>
<polygon fill="#63b8ff" stroke="#63b8ff" points="1050.64,-161.75 1060.64,-158.25 1050.64,-154.75 1050.64,-161.75"/>
</a>
</g>
</g>
<!-- Node5 -->
<g id="Node000005" class="node">
<title>Node5</title>
<g id="a_Node000005"><a xlink:href="a01910.html#a02fd608f651d254148dc74f0ae371dfe" target="_top" xlink:title=" ">
<polygon fill="white" stroke="#666666" points="577.25,-130.5 518.5,-130.5 518.5,-112 577.25,-112 577.25,-130.5"/>
<text text-anchor="middle" x="547.88" y="-117" font-family="Helvetica,sans-Serif" font-size="10.00">_arax_init</text>
</a>
</g>
</g>
<!-- Node4&#45;&gt;Node5 -->
<g id="edge4_Node000004_Node000005" class="edge">
<title>Node4&#45;&gt;Node5</title>
<g id="a_edge4_Node000004_Node000005"><a xlink:title=" ">
<path fill="none" stroke="#63b8ff" d="M928.96,-170.93C860.04,-189.07 721.24,-216.1 613.25,-176.25 588.7,-167.19 567.17,-144.14 556.33,-130.93"/>
<polygon fill="#63b8ff" stroke="#63b8ff" points="929.61,-174.38 938.34,-168.39 927.78,-167.62 929.61,-174.38"/>
</a>
</g>
</g>
<!-- Node13 -->
<g id="Node000013" class="node">
<title>Node13</title>
<g id="a_Node000013"><a xlink:href="a02364.html#ab2e422aab2fcfa562795beb2843e8019" target="_top" xlink:title=" ">
<polygon fill="white" stroke="#666666" points="883,-167.5 770.25,-167.5 770.25,-149 883,-149 883,-167.5"/>
<text text-anchor="middle" x="826.62" y="-154" font-family="Helvetica,sans-Serif" font-size="10.00">async_meta_init_once</text>
</a>
</g>
</g>
<!-- Node4&#45;&gt;Node13 -->
<g id="edge14_Node000004_Node000013" class="edge">
<title>Node4&#45;&gt;Node13</title>
<g id="a_edge14_Node000004_Node000013"><a xlink:title=" ">
<path fill="none" stroke="#63b8ff" d="M907.61,-158.25C899.53,-158.25 891.31,-158.25 883.37,-158.25"/>
<polygon fill="#63b8ff" stroke="#63b8ff" points="907.39,-161.75 917.39,-158.25 907.39,-154.75 907.39,-161.75"/>
</a>
</g>
</g>
<!-- Node6 -->
<g id="Node000006" class="node">
<title>Node6</title>
<g id="a_Node000006"><a xlink:href="a01910.html#aa6e4832b06bd5757be4502d2de7b3026" target="_top" xlink:title=" ">
<polygon fill="white" stroke="#666666" points="482.5,-156.75 384,-156.75 384,-127.75 482.5,-127.75 482.5,-156.75"/>
<text text-anchor="start" x="392" y="-143.25" font-family="Helvetica,sans-Serif" font-size="10.00">arax_controller_init</text>
<text text-anchor="middle" x="433.25" y="-132.75" font-family="Helvetica,sans-Serif" font-size="10.00">_start</text>
</a>
</g>
</g>
<!-- Node5&#45;&gt;Node6 -->
<g id="edge5_Node000005_Node000006" class="edge">
<title>Node5&#45;&gt;Node6</title>
<g id="a_edge5_Node000005_Node000006"><a xlink:title=" ">
<path fill="none" stroke="#63b8ff" d="M507.01,-128.68C499.11,-130.16 490.74,-131.72 482.6,-133.23"/>
<polygon fill="#63b8ff" stroke="#63b8ff" points="507.49,-132.15 516.68,-126.88 506.2,-125.27 507.49,-132.15"/>
</a>
</g>
</g>
<!-- Node7 -->
<g id="Node000007" class="node">
<title>Node7</title>
<g id="a_Node000007"><a xlink:href="a02186.html#gae1d371a2840849690acce147e7a205da" target="_top" xlink:title=" ">
<polygon fill="white" stroke="#666666" points="460,-109.5 406.5,-109.5 406.5,-91 460,-91 460,-109.5"/>
<text text-anchor="middle" x="433.25" y="-96" font-family="Helvetica,sans-Serif" font-size="10.00">arax_init</text>
</a>
</g>
</g>
<!-- Node5&#45;&gt;Node7 -->
<g id="edge6_Node000005_Node000007" class="edge">
<title>Node5&#45;&gt;Node7</title>
<g id="a_edge6_Node000005_Node000007"><a xlink:title=" ">
<path fill="none" stroke="#63b8ff" d="M507.21,-113.85C491.62,-110.95 474.15,-107.69 460.21,-105.09"/>
<polygon fill="#63b8ff" stroke="#63b8ff" points="506.2,-117.23 516.68,-115.62 507.49,-110.35 506.2,-117.23"/>
</a>
</g>
</g>
<!-- Node8 -->
<g id="Node000008" class="node">
<title>Node8</title>
<g id="a_Node000008"><a xlink:href="a01946.html#a8a99bcb12e2ee55d68a029bfca9b6d51" target="_top" xlink:title=" ">
<polygon fill="white" stroke="#666666" points="235.25,-138.75 141.25,-138.75 141.25,-109.75 235.25,-109.75 235.25,-138.75"/>
<text text-anchor="start" x="149.25" y="-125.25" font-family="Helvetica,sans-Serif" font-size="10.00">arax_plot_register</text>
<text text-anchor="middle" x="188.25" y="-114.75" font-family="Helvetica,sans-Serif" font-size="10.00">_metric</text>
</a>
</g>
</g>
<!-- Node7&#45;&gt;Node8 -->
<g id="edge7_Node000007_Node000008" class="edge">
<title>Node7&#45;&gt;Node8</title>
<g id="a_edge7_Node000007_Node000008"><a xlink:title=" ">
<path fill="none" stroke="#63b8ff" d="M394.92,-103.94C352.02,-108.17 281.6,-115.13 235.32,-119.7"/>
<polygon fill="#63b8ff" stroke="#63b8ff" points="395.13,-107.43 404.74,-102.97 394.44,-100.47 395.13,-107.43"/>
</a>
</g>
</g>
<!-- Node9 -->
<g id="Node000009" class="node">
<title>Node9</title>
<g id="a_Node000009"><a xlink:href="a01934.html#a80ab3bf4a8af9bb101b5a53248609771" target="_top" xlink:title=" ">
<polygon fill="white" stroke="#666666" points="348,-91.5 271.25,-91.5 271.25,-73 348,-73 348,-91.5"/>
<text text-anchor="middle" x="309.62" y="-78" font-family="Helvetica,sans-Serif" font-size="10.00">arax_ptr_valid</text>
</a>
</g>
</g>
<!-- Node7&#45;&gt;Node9 -->
<g id="edge8_Node000007_Node000009" class="edge">
<title>Node7&#45;&gt;Node9</title>
<g id="a_edge8_Node000007_Node000009"><a xlink:title=" ">
<path fill="none" stroke="#63b8ff" d="M394.83,-94.71C380.03,-92.52 363.04,-90.01 348.21,-87.81"/>
<polygon fill="#63b8ff" stroke="#63b8ff" points="394.26,-98.17 404.66,-96.17 395.28,-91.24 394.26,-98.17"/>
</a>
</g>
</g>
<!-- Node9&#45;&gt;Node8 -->
<g id="edge13_Node000009_Node000008" class="edge">
<title>Node9&#45;&gt;Node8</title>
<g id="a_edge13_Node000009_Node000008"><a xlink:title=" ">
<path fill="none" stroke="#63b8ff" d="M270.14,-95.79C257.89,-100.1 244.27,-104.89 231.76,-109.29"/>
<polygon fill="#63b8ff" stroke="#63b8ff" points="271.24,-99.11 279.51,-92.49 268.92,-92.51 271.24,-99.11"/>
</a>
</g>
</g>
<!-- Node10 -->
<g id="Node000010" class="node">
<title>Node10</title>
<g id="a_Node000010"><a xlink:href="a01967.html#a4ee1fea325d2edd421f59ab240dfbe54" target="_top" xlink:title=" ">
<polygon fill="white" stroke="#666666" points="234.12,-91.5 142.38,-91.5 142.38,-73 234.12,-73 234.12,-91.5"/>
<text text-anchor="middle" x="188.25" y="-78" font-family="Helvetica,sans-Serif" font-size="10.00">_arax_assert_obj</text>
</a>
</g>
</g>
<!-- Node9&#45;&gt;Node10 -->
<g id="edge9_Node000009_Node000010" class="edge">
<title>Node9&#45;&gt;Node10</title>
<g id="a_edge9_Node000009_Node000010"><a xlink:title=" ">
<path fill="none" stroke="#63b8ff" d="M259.37,-82.25C251.07,-82.25 242.49,-82.25 234.3,-82.25"/>
<polygon fill="#63b8ff" stroke="#63b8ff" points="259.34,-85.75 269.34,-82.25 259.34,-78.75 259.34,-85.75"/>
</a>
</g>
</g>
<!-- Node11 -->
<g id="Node000011" class="node">
<title>Node11</title>
<g id="a_Node000011"><a xlink:href="a01922.html#afeaab7d93372f0752d59c70d9c5940e7" target="_top" xlink:title=" ">
<polygon fill="white" stroke="#666666" points="226.25,-54.5 150.25,-54.5 150.25,-36 226.25,-36 226.25,-54.5"/>
<text text-anchor="middle" x="188.25" y="-41" font-family="Helvetica,sans-Serif" font-size="10.00">arax_data_ref</text>
</a>
</g>
</g>
<!-- Node9&#45;&gt;Node11 -->
<g id="edge10_Node000009_Node000011" class="edge">
<title>Node9&#45;&gt;Node11</title>
<g id="a_edge10_Node000009_Node000011"><a xlink:title=" ">
<path fill="none" stroke="#63b8ff" d="M266.56,-69.21C251.36,-64.5 234.5,-59.27 220.4,-54.91"/>
<polygon fill="#63b8ff" stroke="#63b8ff" points="265.23,-72.46 275.81,-72.08 267.3,-65.78 265.23,-72.46"/>
</a>
</g>
</g>
<!-- Node12 -->
<g id="Node000012" class="node">
<title>Node12</title>
<g id="a_Node000012"><a xlink:href="a01922.html#ac1f7fb20b3a23b388bea24f1b46a33a8" target="_top" xlink:title=" ">
<polygon fill="white" stroke="#666666" points="105.25,-35.5 0,-35.5 0,-17 105.25,-17 105.25,-35.5"/>
<text text-anchor="middle" x="52.62" y="-22" font-family="Helvetica,sans-Serif" font-size="10.00">arax_data_ref_offset</text>
</a>
</g>
</g>
<!-- Node9&#45;&gt;Node12 -->
<g id="edge12_Node000009_Node000012" class="edge">
<title>Node9&#45;&gt;Node12</title>
<g id="a_edge12_Node000009_Node000012"><a xlink:title=" ">
<path fill="none" stroke="#63b8ff" d="M291.83,-64.62C278.05,-51.51 257.28,-34.66 235.25,-27.25 193.26,-13.13 142.65,-14.21 105.53,-18.05"/>
<polygon fill="#63b8ff" stroke="#63b8ff" points="289.19,-66.93 298.75,-71.49 294.12,-61.96 289.19,-66.93"/>
</a>
</g>
</g>
<!-- Node11&#45;&gt;Node12 -->
<g id="edge11_Node000011_Node000012" class="edge">
<title>Node11&#45;&gt;Node12</title>
<g id="a_edge11_Node000011_Node000012"><a xlink:title=" ">
<path fill="none" stroke="#63b8ff" d="M138.69,-38.35C127.94,-36.82 116.51,-35.19 105.63,-33.64"/>
<polygon fill="#63b8ff" stroke="#63b8ff" points="138.14,-41.8 148.53,-39.74 139.12,-34.87 138.14,-41.8"/>
</a>
</g>
</g>
<!-- Node14 -->
<g id="Node000014" class="node">
<title>Node14</title>
<g id="a_Node000014"><a xlink:href="a01928.html#aa6293e9ec7776aa49ecf632fcc4f5e26" target="_top" xlink:title=" ">
<polygon fill="white" stroke="#666666" points="712.12,-167.5 635.38,-167.5 635.38,-149 712.12,-149 712.12,-167.5"/>
<text text-anchor="middle" x="673.75" y="-154" font-family="Helvetica,sans-Serif" font-size="10.00">arax_pipe_init</text>
</a>
</g>
</g>
<!-- Node13&#45;&gt;Node14 -->
<g id="edge15_Node000013_Node000014" class="edge">
<title>Node13&#45;&gt;Node14</title>
<g id="a_edge15_Node000013_Node000014"><a xlink:title=" ">
<path fill="none" stroke="#63b8ff" d="M758.49,-158.25C742.69,-158.25 726.39,-158.25 712.42,-158.25"/>
<polygon fill="#63b8ff" stroke="#63b8ff" points="758.36,-161.75 768.36,-158.25 758.36,-154.75 758.36,-161.75"/>
</a>
</g>
</g>
<!-- Node14&#45;&gt;Node5 -->
<g id="edge16_Node000014_Node000005" class="edge">
<title>Node14&#45;&gt;Node5</title>
<g id="a_edge16_Node000014_Node000005"><a xlink:title=" ">
<path fill="none" stroke="#63b8ff" d="M629.27,-145.26C612.07,-140.13 592.78,-134.36 577.41,-129.77"/>
<polygon fill="#63b8ff" stroke="#63b8ff" points="628.17,-148.59 638.75,-148.1 630.17,-141.88 628.17,-148.59"/>
</a>
</g>
</g>
<!-- Node15&#45;&gt;Node5 -->
<g id="edge18_Node000015_Node000005" class="edge">
<title>Node15&#45;&gt;Node5</title>
<g id="a_edge18_Node000015_Node000005"><a xlink:title=" ">
<path fill="none" stroke="#63b8ff" d="M907.79,-121.25C814.5,-121.25 644.92,-121.25 577.57,-121.25"/>
<polygon fill="#63b8ff" stroke="#63b8ff" points="907.53,-124.75 917.53,-121.25 907.53,-117.75 907.53,-124.75"/>
</a>
</g>
</g>
<!-- Node16&#45;&gt;Node5 -->
<g id="edge20_Node000016_Node000005" class="edge">
<title>Node16&#45;&gt;Node5</title>
<g id="a_edge20_Node000016_Node000005"><a xlink:title=" ">
<path fill="none" stroke="#63b8ff" d="M764.52,-77.02C722.05,-85.27 664.15,-96.68 613.25,-107.25 601.6,-109.67 588.8,-112.43 577.69,-114.86"/>
<polygon fill="#63b8ff" stroke="#63b8ff" points="765.16,-80.46 774.31,-75.12 763.83,-73.59 765.16,-80.46"/>
</a>
</g>
</g>
<!-- Node17 -->
<g id="Node000017" class="node">
<title>Node17</title>
<g id="a_Node000017"><a xlink:href="a02186.html#ga4bae55e86ffc384b3c1d2da3580f5c42" target="_top" xlink:title=" ">
<polygon fill="white" stroke="#666666" points="705.75,-18.5 641.75,-18.5 641.75,0 705.75,0 705.75,-18.5"/>
<text text-anchor="middle" x="673.75" y="-5" font-family="Helvetica,sans-Serif" font-size="10.00">arax_clean</text>
</a>
</g>
</g>
<!-- Node16&#45;&gt;Node17 -->
<g id="edge21_Node000016_Node000017" class="edge">
<title>Node16&#45;&gt;Node17</title>
<g id="a_edge21_Node000016_Node000017"><a xlink:title=" ">
<path fill="none" stroke="#63b8ff" d="M793.11,-51.39C775.76,-44.17 753.98,-35.38 734.25,-28.25 725.17,-24.97 715.22,-21.67 706.09,-18.77"/>
<polygon fill="#63b8ff" stroke="#63b8ff" points="791.31,-54.43 801.88,-55.06 794.01,-47.97 791.31,-54.43"/>
</a>
</g>
</g>
<!-- Node19 -->
<g id="Node000019" class="node">
<title>Node19</title>
<g id="a_Node000019"><a xlink:href="a02364.html#adbaa29dfccfdfe6e3fe69a1d001c05b5" target="_top" xlink:title=" ">
<polygon fill="white" stroke="#666666" points="734.25,-55.5 613.25,-55.5 613.25,-37 734.25,-37 734.25,-55.5"/>
<text text-anchor="middle" x="673.75" y="-42" font-family="Helvetica,sans-Serif" font-size="10.00">async_meta_init_always</text>
</a>
</g>
</g>
<!-- Node16&#45;&gt;Node19 -->
<g id="edge23_Node000016_Node000019" class="edge">
<title>Node16&#45;&gt;Node19</title>
<g id="a_edge23_Node000016_Node000019"><a xlink:title=" ">
<path fill="none" stroke="#63b8ff" d="M764.41,-57.54C754.54,-56.3 744.33,-55.01 734.49,-53.77"/>
<polygon fill="#63b8ff" stroke="#63b8ff" points="763.94,-61.01 774.3,-58.79 764.82,-54.06 763.94,-61.01"/>
</a>
</g>
</g>
<!-- Node18 -->
<g id="Node000018" class="node">
<title>Node18</title>
<g id="a_Node000018"><a xlink:href="a02186.html#ga8ac7e88ed7b8a1e2ff8aa435ac6b58ec" target="_top" xlink:title=" ">
<polygon fill="white" stroke="#666666" points="576.12,-18.5 519.62,-18.5 519.62,0 576.12,0 576.12,-18.5"/>
<text text-anchor="middle" x="547.88" y="-5" font-family="Helvetica,sans-Serif" font-size="10.00">arax_exit</text>
</a>
</g>
</g>
<!-- Node17&#45;&gt;Node18 -->
<g id="edge22_Node000017_Node000018" class="edge">
<title>Node17&#45;&gt;Node18</title>
<g id="a_edge22_Node000017_Node000018"><a xlink:title=" ">
<path fill="none" stroke="#63b8ff" d="M630.19,-9.25C612.36,-9.25 592.14,-9.25 576.33,-9.25"/>
<polygon fill="#63b8ff" stroke="#63b8ff" points="629.98,-12.75 639.98,-9.25 629.98,-5.75 629.98,-12.75"/>
</a>
</g>
</g>
<!-- Node19&#45;&gt;Node5 -->
<g id="edge24_Node000019_Node000005" class="edge">
<title>Node19&#45;&gt;Node5</title>
<g id="a_edge24_Node000019_Node000005"><a xlink:title=" ">
<path fill="none" stroke="#63b8ff" d="M631.71,-60.17C625.37,-62.87 619.02,-65.91 613.25,-69.25 592.11,-81.47 570.66,-100.39 558.63,-111.73"/>
<polygon fill="#63b8ff" stroke="#63b8ff" points="632.86,-63.48 640.85,-56.53 630.26,-56.98 632.86,-63.48"/>
</a>
</g>
</g>
</g>
</svg>
