<?xml version="1.0" encoding="UTF-8" standalone="no"?>
<!DOCTYPE svg PUBLIC "-//W3C//DTD SVG 1.1//EN"
 "http://www.w3.org/Graphics/SVG/1.1/DTD/svg11.dtd">
<!-- Generated by graphviz version 12.2.1 (0)
 -->
<!-- Title: conf_set Pages: 1 -->
<svg width="1699pt" height="235pt"
 viewBox="0.00 0.00 1698.75 234.60" xmlns="http://www.w3.org/2000/svg" xmlns:xlink="http://www.w3.org/1999/xlink">
<g id="graph0" class="graph" transform="scale(1 1) rotate(0) translate(4 230.6)">
<title>conf_set</title>
<!-- Node1 -->
<g id="Node000001" class="node">
<title>Node1</title>
<g id="a_Node000001"><a xlink:title=" ">
<polygon fill="#999999" stroke="#666666" points="1690.75,-137.6 1637.25,-137.6 1637.25,-119.1 1690.75,-119.1 1690.75,-137.6"/>
<text text-anchor="middle" x="1664" y="-124.1" font-family="Helvetica,sans-Serif" font-size="10.00">conf_set</text>
</a>
</g>
</g>
<!-- Node2 -->
<g id="Node000002" class="node">
<title>Node2</title>
<g id="a_Node000002"><a xlink:href="a01952.html#a4b9cd8f5d0c205ac6c1fd30f77cbf539" target="_top" xlink:title=" ">
<polygon fill="white" stroke="#666666" points="1601.25,-137.6 1493,-137.6 1493,-119.1 1601.25,-119.1 1601.25,-137.6"/>
<text text-anchor="middle" x="1547.12" y="-124.1" font-family="Helvetica,sans-Serif" font-size="10.00">utils_config_write_str</text>
</a>
</g>
</g>
<!-- Node1&#45;&gt;Node2 -->
<g id="edge1_Node000001_Node000002" class="edge">
<title>Node1&#45;&gt;Node2</title>
<g id="a_edge1_Node000001_Node000002"><a xlink:title=" ">
<path fill="none" stroke="#63b8ff" d="M1625.65,-128.35C1617.88,-128.35 1609.54,-128.35 1601.32,-128.35"/>
<polygon fill="#63b8ff" stroke="#63b8ff" points="1625.42,-131.85 1635.42,-128.35 1625.42,-124.85 1625.42,-131.85"/>
</a>
</g>
</g>
<!-- Node3 -->
<g id="Node000003" class="node">
<title>Node3</title>
<g id="a_Node000003"><a xlink:href="a01952.html#a1e8deff7c038efae14d1cc98e4ab109f" target="_top" xlink:title=" ">
<polygon fill="white" stroke="#666666" points="877,-170.6 776.25,-170.6 776.25,-152.1 877,-152.1 877,-170.6"/>
<text text-anchor="middle" x="826.62" y="-157.1" font-family="Helvetica,sans-Serif" font-size="10.00">utils_config_get_str</text>
</a>
</g>
</g>
<!-- Node2&#45;&gt;Node3 -->
<g id="edge2_Node000002_Node000003" class="edge">
<title>Node2&#45;&gt;Node3</title>
<g id="a_edge2_Node000002_Node000003"><a xlink:title=" ">
<path fill="none" stroke="#63b8ff" d="M1481.31,-134.97C1422.02,-140.45 1331.83,-147.35 1253.25,-147.35 1253.25,-147.35 1253.25,-147.35 1111.5,-147.35 1029.34,-147.35 933.97,-153.27 877.33,-157.41"/>
<polygon fill="#63b8ff" stroke="#63b8ff" points="1481.61,-138.46 1491.24,-134.04 1480.96,-131.49 1481.61,-138.46"/>
</a>
</g>
</g>
<!-- Node15 -->
<g id="Node000015" class="node">
<title>Node15</title>
<g id="a_Node000015"><a xlink:href="a01952.html#a88091e179416d4beec1b5681cfb68742" target="_top" xlink:title=" ">
<polygon fill="white" stroke="#666666" points="1457,-119.6 1342,-119.6 1342,-101.1 1457,-101.1 1457,-119.6"/>
<text text-anchor="middle" x="1399.5" y="-106.1" font-family="Helvetica,sans-Serif" font-size="10.00">utils_config_write_long</text>
</a>
</g>
</g>
<!-- Node2&#45;&gt;Node15 -->
<g id="edge17_Node000002_Node000015" class="edge">
<title>Node2&#45;&gt;Node15</title>
<g id="a_edge17_Node000002_Node000015"><a xlink:title=" ">
<path fill="none" stroke="#63b8ff" d="M1481.48,-120.36C1473.43,-119.36 1465.24,-118.35 1457.32,-117.37"/>
<polygon fill="#63b8ff" stroke="#63b8ff" points="1480.87,-123.81 1491.22,-121.56 1481.73,-116.86 1480.87,-123.81"/>
</a>
</g>
</g>
<!-- Node4 -->
<g id="Node000004" class="node">
<title>Node4</title>
<g id="a_Node000004"><a xlink:href="a01910.html#a02fd608f651d254148dc74f0ae371dfe" target="_top" xlink:title=" ">
<polygon fill="white" stroke="#666666" points="577.25,-115.6 518.5,-115.6 518.5,-97.1 577.25,-97.1 577.25,-115.6"/>
<text text-anchor="middle" x="547.88" y="-102.1" font-family="Helvetica,sans-Serif" font-size="10.00">_arax_init</text>
</a>
</g>
</g>
<!-- Node3&#45;&gt;Node4 -->
<g id="edge3_Node000003_Node000004" class="edge">
<title>Node3&#45;&gt;Node4</title>
<g id="a_edge3_Node000003_Node000004"><a xlink:title=" ">
<path fill="none" stroke="#63b8ff" d="M764.57,-172.31C721.03,-177.53 661.83,-179.28 613.25,-161.35 588.7,-152.29 567.17,-129.24 556.33,-116.03"/>
<polygon fill="#63b8ff" stroke="#63b8ff" points="764.89,-175.8 774.35,-171.03 763.98,-168.85 764.89,-175.8"/>
</a>
</g>
</g>
<!-- Node12 -->
<g id="Node000012" class="node">
<title>Node12</title>
<g id="a_Node000012"><a xlink:href="a02186.html#ga4bae55e86ffc384b3c1d2da3580f5c42" target="_top" xlink:title=" ">
<polygon fill="white" stroke="#666666" points="705.75,-226.6 641.75,-226.6 641.75,-208.1 705.75,-208.1 705.75,-226.6"/>
<text text-anchor="middle" x="673.75" y="-213.1" font-family="Helvetica,sans-Serif" font-size="10.00">arax_clean</text>
</a>
</g>
</g>
<!-- Node3&#45;&gt;Node12 -->
<g id="edge13_Node000003_Node000012" class="edge">
<title>Node3&#45;&gt;Node12</title>
<g id="a_edge13_Node000003_Node000012"><a xlink:title=" ">
<path fill="none" stroke="#63b8ff" d="M789.01,-174.94C761.75,-185.06 725.2,-198.63 700.85,-207.66"/>
<polygon fill="#63b8ff" stroke="#63b8ff" points="790.11,-178.26 798.27,-171.5 787.68,-171.7 790.11,-178.26"/>
</a>
</g>
</g>
<!-- Node14 -->
<g id="Node000014" class="node">
<title>Node14</title>
<g id="a_Node000014"><a xlink:href="a02364.html#adbaa29dfccfdfe6e3fe69a1d001c05b5" target="_top" xlink:title=" ">
<polygon fill="white" stroke="#666666" points="734.25,-152.6 613.25,-152.6 613.25,-134.1 734.25,-134.1 734.25,-152.6"/>
<text text-anchor="middle" x="673.75" y="-139.1" font-family="Helvetica,sans-Serif" font-size="10.00">async_meta_init_always</text>
</a>
</g>
</g>
<!-- Node3&#45;&gt;Node14 -->
<g id="edge15_Node000003_Node000014" class="edge">
<title>Node3&#45;&gt;Node14</title>
<g id="a_edge15_Node000003_Node000014"><a xlink:title=" ">
<path fill="none" stroke="#63b8ff" d="M764.41,-154.05C754.54,-152.87 744.33,-151.65 734.49,-150.48"/>
<polygon fill="#63b8ff" stroke="#63b8ff" points="763.96,-157.52 774.3,-155.23 764.79,-150.57 763.96,-157.52"/>
</a>
</g>
</g>
<!-- Node5 -->
<g id="Node000005" class="node">
<title>Node5</title>
<g id="a_Node000005"><a xlink:href="a01910.html#aa6e4832b06bd5757be4502d2de7b3026" target="_top" xlink:title=" ">
<polygon fill="white" stroke="#666666" points="482.5,-141.85 384,-141.85 384,-112.85 482.5,-112.85 482.5,-141.85"/>
<text text-anchor="start" x="392" y="-128.35" font-family="Helvetica,sans-Serif" font-size="10.00">arax_controller_init</text>
<text text-anchor="middle" x="433.25" y="-117.85" font-family="Helvetica,sans-Serif" font-size="10.00">_start</text>
</a>
</g>
</g>
<!-- Node4&#45;&gt;Node5 -->
<g id="edge4_Node000004_Node000005" class="edge">
<title>Node4&#45;&gt;Node5</title>
<g id="a_edge4_Node000004_Node000005"><a xlink:title=" ">
<path fill="none" stroke="#63b8ff" d="M507.01,-113.78C499.11,-115.26 490.74,-116.82 482.6,-118.33"/>
<polygon fill="#63b8ff" stroke="#63b8ff" points="507.49,-117.25 516.68,-111.98 506.2,-110.37 507.49,-117.25"/>
</a>
</g>
</g>
<!-- Node6 -->
<g id="Node000006" class="node">
<title>Node6</title>
<g id="a_Node000006"><a xlink:href="a02186.html#gae1d371a2840849690acce147e7a205da" target="_top" xlink:title=" ">
<polygon fill="white" stroke="#666666" points="460,-94.6 406.5,-94.6 406.5,-76.1 460,-76.1 460,-94.6"/>
<text text-anchor="middle" x="433.25" y="-81.1" font-family="Helvetica,sans-Serif" font-size="10.00">arax_init</text>
</a>
</g>
</g>
<!-- Node4&#45;&gt;Node6 -->
<g id="edge5_Node000004_Node000006" class="edge">
<title>Node4&#45;&gt;Node6</title>
<g id="a_edge5_Node000004_Node000006"><a xlink:title=" ">
<path fill="none" stroke="#63b8ff" d="M507.21,-98.95C491.62,-96.05 474.15,-92.79 460.21,-90.19"/>
<polygon fill="#63b8ff" stroke="#63b8ff" points="506.2,-102.33 516.68,-100.72 507.49,-95.45 506.2,-102.33"/>
</a>
</g>
</g>
<!-- Node7 -->
<g id="Node000007" class="node">
<title>Node7</title>
<g id="a_Node000007"><a xlink:href="a01946.html#a8a99bcb12e2ee55d68a029bfca9b6d51" target="_top" xlink:title=" ">
<polygon fill="white" stroke="#666666" points="235.25,-123.85 141.25,-123.85 141.25,-94.85 235.25,-94.85 235.25,-123.85"/>
<text text-anchor="start" x="149.25" y="-110.35" font-family="Helvetica,sans-Serif" font-size="10.00">arax_plot_register</text>
<text text-anchor="middle" x="188.25" y="-99.85" font-family="Helvetica,sans-Serif" font-size="10.00">_metric</text>
</a>
</g>
</g>
<!-- Node6&#45;&gt;Node7 -->
<g id="edge6_Node000006_Node000007" class="edge">
<title>Node6&#45;&gt;Node7</title>
<g id="a_edge6_Node000006_Node000007"><a xlink:title=" ">
<path fill="none" stroke="#63b8ff" d="M394.92,-89.04C352.02,-93.27 281.6,-100.23 235.32,-104.8"/>
<polygon fill="#63b8ff" stroke="#63b8ff" points="395.13,-92.53 404.74,-88.07 394.44,-85.57 395.13,-92.53"/>
</a>
</g>
</g>
<!-- Node8 -->
<g id="Node000008" class="node">
<title>Node8</title>
<g id="a_Node000008"><a xlink:href="a01934.html#a80ab3bf4a8af9bb101b5a53248609771" target="_top" xlink:title=" ">
<polygon fill="white" stroke="#666666" points="348,-76.6 271.25,-76.6 271.25,-58.1 348,-58.1 348,-76.6"/>
<text text-anchor="middle" x="309.62" y="-63.1" font-family="Helvetica,sans-Serif" font-size="10.00">arax_ptr_valid</text>
</a>
</g>
</g>
<!-- Node6&#45;&gt;Node8 -->
<g id="edge7_Node000006_Node000008" class="edge">
<title>Node6&#45;&gt;Node8</title>
<g id="a_edge7_Node000006_Node000008"><a xlink:title=" ">
<path fill="none" stroke="#63b8ff" d="M394.83,-79.81C380.03,-77.62 363.04,-75.11 348.21,-72.91"/>
<polygon fill="#63b8ff" stroke="#63b8ff" points="394.26,-83.27 404.66,-81.27 395.28,-76.34 394.26,-83.27"/>
</a>
</g>
</g>
<!-- Node8&#45;&gt;Node7 -->
<g id="edge12_Node000008_Node000007" class="edge">
<title>Node8&#45;&gt;Node7</title>
<g id="a_edge12_Node000008_Node000007"><a xlink:title=" ">
<path fill="none" stroke="#63b8ff" d="M270.14,-80.89C257.89,-85.2 244.27,-89.99 231.76,-94.39"/>
<polygon fill="#63b8ff" stroke="#63b8ff" points="271.24,-84.21 279.51,-77.59 268.92,-77.61 271.24,-84.21"/>
</a>
</g>
</g>
<!-- Node9 -->
<g id="Node000009" class="node">
<title>Node9</title>
<g id="a_Node000009"><a xlink:href="a01967.html#a4ee1fea325d2edd421f59ab240dfbe54" target="_top" xlink:title=" ">
<polygon fill="white" stroke="#666666" points="234.12,-76.6 142.38,-76.6 142.38,-58.1 234.12,-58.1 234.12,-76.6"/>
<text text-anchor="middle" x="188.25" y="-63.1" font-family="Helvetica,sans-Serif" font-size="10.00">_arax_assert_obj</text>
</a>
</g>
</g>
<!-- Node8&#45;&gt;Node9 -->
<g id="edge8_Node000008_Node000009" class="edge">
<title>Node8&#45;&gt;Node9</title>
<g id="a_edge8_Node000008_Node000009"><a xlink:title=" ">
<path fill="none" stroke="#63b8ff" d="M259.37,-67.35C251.07,-67.35 242.49,-67.35 234.3,-67.35"/>
<polygon fill="#63b8ff" stroke="#63b8ff" points="259.34,-70.85 269.34,-67.35 259.34,-63.85 259.34,-70.85"/>
</a>
</g>
</g>
<!-- Node10 -->
<g id="Node000010" class="node">
<title>Node10</title>
<g id="a_Node000010"><a xlink:href="a01922.html#afeaab7d93372f0752d59c70d9c5940e7" target="_top" xlink:title=" ">
<polygon fill="white" stroke="#666666" points="226.25,-39.6 150.25,-39.6 150.25,-21.1 226.25,-21.1 226.25,-39.6"/>
<text text-anchor="middle" x="188.25" y="-26.1" font-family="Helvetica,sans-Serif" font-size="10.00">arax_data_ref</text>
</a>
</g>
</g>
<!-- Node8&#45;&gt;Node10 -->
<g id="edge9_Node000008_Node000010" class="edge">
<title>Node8&#45;&gt;Node10</title>
<g id="a_edge9_Node000008_Node000010"><a xlink:title=" ">
<path fill="none" stroke="#63b8ff" d="M266.56,-54.31C251.36,-49.6 234.5,-44.37 220.4,-40.01"/>
<polygon fill="#63b8ff" stroke="#63b8ff" points="265.23,-57.56 275.81,-57.18 267.3,-50.88 265.23,-57.56"/>
</a>
</g>
</g>
<!-- Node11 -->
<g id="Node000011" class="node">
<title>Node11</title>
<g id="a_Node000011"><a xlink:href="a01922.html#ac1f7fb20b3a23b388bea24f1b46a33a8" target="_top" xlink:title=" ">
<polygon fill="white" stroke="#666666" points="105.25,-20.6 0,-20.6 0,-2.1 105.25,-2.1 105.25,-20.6"/>
<text text-anchor="middle" x="52.62" y="-7.1" font-family="Helvetica,sans-Serif" font-size="10.00">arax_data_ref_offset</text>
</a>
</g>
</g>
<!-- Node8&#45;&gt;Node11 -->
<g id="edge11_Node000008_Node000011" class="edge">
<title>Node8&#45;&gt;Node11</title>
<g id="a_edge11_Node000008_Node000011"><a xlink:title=" ">
<path fill="none" stroke="#63b8ff" d="M291.83,-49.72C278.05,-36.61 257.28,-19.76 235.25,-12.35 193.26,1.77 142.65,0.69 105.53,-3.15"/>
<polygon fill="#63b8ff" stroke="#63b8ff" points="289.19,-52.03 298.75,-56.59 294.12,-47.06 289.19,-52.03"/>
</a>
</g>
</g>
<!-- Node10&#45;&gt;Node11 -->
<g id="edge10_Node000010_Node000011" class="edge">
<title>Node10&#45;&gt;Node11</title>
<g id="a_edge10_Node000010_Node000011"><a xlink:title=" ">
<path fill="none" stroke="#63b8ff" d="M138.69,-23.45C127.94,-21.92 116.51,-20.29 105.63,-18.74"/>
<polygon fill="#63b8ff" stroke="#63b8ff" points="138.14,-26.9 148.53,-24.84 139.12,-19.97 138.14,-26.9"/>
</a>
</g>
</g>
<!-- Node13 -->
<g id="Node000013" class="node">
<title>Node13</title>
<g id="a_Node000013"><a xlink:href="a02186.html#ga8ac7e88ed7b8a1e2ff8aa435ac6b58ec" target="_top" xlink:title=" ">
<polygon fill="white" stroke="#666666" points="576.12,-226.6 519.62,-226.6 519.62,-208.1 576.12,-208.1 576.12,-226.6"/>
<text text-anchor="middle" x="547.88" y="-213.1" font-family="Helvetica,sans-Serif" font-size="10.00">arax_exit</text>
</a>
</g>
</g>
<!-- Node12&#45;&gt;Node13 -->
<g id="edge14_Node000012_Node000013" class="edge">
<title>Node12&#45;&gt;Node13</title>
<g id="a_edge14_Node000012_Node000013"><a xlink:title=" ">
<path fill="none" stroke="#63b8ff" d="M630.19,-217.35C612.36,-217.35 592.14,-217.35 576.33,-217.35"/>
<polygon fill="#63b8ff" stroke="#63b8ff" points="629.98,-220.85 639.98,-217.35 629.98,-213.85 629.98,-220.85"/>
</a>
</g>
</g>
<!-- Node14&#45;&gt;Node4 -->
<g id="edge16_Node000014_Node000004" class="edge">
<title>Node14&#45;&gt;Node4</title>
<g id="a_edge16_Node000014_Node000004"><a xlink:title=" ">
<path fill="none" stroke="#63b8ff" d="M629.27,-130.36C612.07,-125.23 592.78,-119.46 577.41,-114.87"/>
<polygon fill="#63b8ff" stroke="#63b8ff" points="628.17,-133.69 638.75,-133.2 630.17,-126.98 628.17,-133.69"/>
</a>
</g>
</g>
<!-- Node16 -->
<g id="Node000016" class="node">
<title>Node16</title>
<g id="a_Node000016"><a xlink:href="a01952.html#a1a28ba7c7791236d03b1fa9f81aa6a71" target="_top" xlink:title=" ">
<polygon fill="white" stroke="#666666" points="1306,-92.6 1198.5,-92.6 1198.5,-74.1 1306,-74.1 1306,-92.6"/>
<text text-anchor="middle" x="1252.25" y="-79.1" font-family="Helvetica,sans-Serif" font-size="10.00">utils_config_get_long</text>
</a>
</g>
</g>
<!-- Node15&#45;&gt;Node16 -->
<g id="edge18_Node000015_Node000016" class="edge">
<title>Node15&#45;&gt;Node16</title>
<g id="a_edge18_Node000015_Node000016"><a xlink:title=" ">
<path fill="none" stroke="#63b8ff" d="M1334.77,-98.5C1325.03,-96.69 1315.07,-94.84 1305.61,-93.08"/>
<polygon fill="#63b8ff" stroke="#63b8ff" points="1334.1,-101.94 1344.57,-100.33 1335.38,-95.06 1334.1,-101.94"/>
</a>
</g>
</g>
<!-- Node17 -->
<g id="Node000017" class="node">
<title>Node17</title>
<g id="a_Node000017"><a xlink:href="a01952.html#a336fa8eefc3d744aa7248d6786cfee03" target="_top" xlink:title=" ">
<polygon fill="white" stroke="#666666" points="1162.5,-92.6 1062.5,-92.6 1062.5,-74.1 1162.5,-74.1 1162.5,-92.6"/>
<text text-anchor="middle" x="1112.5" y="-79.1" font-family="Helvetica,sans-Serif" font-size="10.00">utils_config_get_int</text>
</a>
</g>
</g>
<!-- Node16&#45;&gt;Node17 -->
<g id="edge19_Node000016_Node000017" class="edge">
<title>Node16&#45;&gt;Node17</title>
<g id="a_edge19_Node000016_Node000017"><a xlink:title=" ">
<path fill="none" stroke="#63b8ff" d="M1187.01,-83.35C1178.88,-83.35 1170.67,-83.35 1162.83,-83.35"/>
<polygon fill="#63b8ff" stroke="#63b8ff" points="1186.87,-86.85 1196.87,-83.35 1186.87,-79.85 1186.87,-86.85"/>
</a>
</g>
</g>
<!-- Node21 -->
<g id="Node000021" class="node">
<title>Node21</title>
<g id="a_Node000021"><a xlink:href="a01952.html#a4a525d89ade920512dc65409bc8e85d8" target="_top" xlink:title=" ">
<polygon fill="white" stroke="#666666" points="1026.12,-55.6 919.38,-55.6 919.38,-37.1 1026.12,-37.1 1026.12,-55.6"/>
<text text-anchor="middle" x="972.75" y="-42.1" font-family="Helvetica,sans-Serif" font-size="10.00">utils_config_get_size</text>
</a>
</g>
</g>
<!-- Node16&#45;&gt;Node21 -->
<g id="edge25_Node000016_Node000021" class="edge">
<title>Node16&#45;&gt;Node21</title>
<g id="a_edge25_Node000016_Node000021"><a xlink:title=" ">
<path fill="none" stroke="#63b8ff" d="M1196.96,-71.45C1185.61,-69.21 1173.69,-67.04 1162.5,-65.35 1116.75,-58.43 1064.36,-53.38 1026.41,-50.23"/>
<polygon fill="#63b8ff" stroke="#63b8ff" points="1196.09,-74.84 1206.59,-73.39 1197.48,-67.98 1196.09,-74.84"/>
</a>
</g>
</g>
<!-- Node18 -->
<g id="Node000018" class="node">
<title>Node18</title>
<g id="a_Node000018"><a xlink:href="a01952.html#aa7aa94ad075bf97a566f01f899fcd859" target="_top" xlink:title=" ">
<polygon fill="white" stroke="#666666" points="1026.5,-92.6 919,-92.6 919,-74.1 1026.5,-74.1 1026.5,-92.6"/>
<text text-anchor="middle" x="972.75" y="-79.1" font-family="Helvetica,sans-Serif" font-size="10.00">utils_config_get_bool</text>
</a>
</g>
</g>
<!-- Node17&#45;&gt;Node18 -->
<g id="edge20_Node000017_Node000018" class="edge">
<title>Node17&#45;&gt;Node18</title>
<g id="a_edge20_Node000017_Node000018"><a xlink:title=" ">
<path fill="none" stroke="#63b8ff" d="M1050.71,-83.35C1042.79,-83.35 1034.72,-83.35 1026.94,-83.35"/>
<polygon fill="#63b8ff" stroke="#63b8ff" points="1050.64,-86.85 1060.64,-83.35 1050.64,-79.85 1050.64,-86.85"/>
</a>
</g>
</g>
<!-- Node18&#45;&gt;Node4 -->
<g id="edge21_Node000018_Node000004" class="edge">
<title>Node18&#45;&gt;Node4</title>
<g id="a_edge21_Node000018_Node000004"><a xlink:title=" ">
<path fill="none" stroke="#63b8ff" d="M907.34,-86.85C813.93,-91.93 644.7,-101.14 577.5,-104.79"/>
<polygon fill="#63b8ff" stroke="#63b8ff" points="907.31,-90.36 917.11,-86.32 906.93,-83.37 907.31,-90.36"/>
</a>
</g>
</g>
<!-- Node19 -->
<g id="Node000019" class="node">
<title>Node19</title>
<g id="a_Node000019"><a xlink:href="a02364.html#ab2e422aab2fcfa562795beb2843e8019" target="_top" xlink:title=" ">
<polygon fill="white" stroke="#666666" points="883,-78.6 770.25,-78.6 770.25,-60.1 883,-60.1 883,-78.6"/>
<text text-anchor="middle" x="826.62" y="-65.1" font-family="Helvetica,sans-Serif" font-size="10.00">async_meta_init_once</text>
</a>
</g>
</g>
<!-- Node18&#45;&gt;Node19 -->
<g id="edge22_Node000018_Node000019" class="edge">
<title>Node18&#45;&gt;Node19</title>
<g id="a_edge22_Node000018_Node000019"><a xlink:title=" ">
<path fill="none" stroke="#63b8ff" d="M907.61,-77.12C899.53,-76.33 891.31,-75.54 883.37,-74.77"/>
<polygon fill="#63b8ff" stroke="#63b8ff" points="907.1,-80.59 917.4,-78.07 907.78,-73.62 907.1,-80.59"/>
</a>
</g>
</g>
<!-- Node20 -->
<g id="Node000020" class="node">
<title>Node20</title>
<g id="a_Node000020"><a xlink:href="a01928.html#aa6293e9ec7776aa49ecf632fcc4f5e26" target="_top" xlink:title=" ">
<polygon fill="white" stroke="#666666" points="712.12,-78.6 635.38,-78.6 635.38,-60.1 712.12,-60.1 712.12,-78.6"/>
<text text-anchor="middle" x="673.75" y="-65.1" font-family="Helvetica,sans-Serif" font-size="10.00">arax_pipe_init</text>
</a>
</g>
</g>
<!-- Node19&#45;&gt;Node20 -->
<g id="edge23_Node000019_Node000020" class="edge">
<title>Node19&#45;&gt;Node20</title>
<g id="a_edge23_Node000019_Node000020"><a xlink:title=" ">
<path fill="none" stroke="#63b8ff" d="M758.49,-69.35C742.69,-69.35 726.39,-69.35 712.42,-69.35"/>
<polygon fill="#63b8ff" stroke="#63b8ff" points="758.36,-72.85 768.36,-69.35 758.36,-65.85 758.36,-72.85"/>
</a>
</g>
</g>
<!-- Node20&#45;&gt;Node4 -->
<g id="edge24_Node000020_Node000004" class="edge">
<title>Node20&#45;&gt;Node4</title>
<g id="a_edge24_Node000020_Node000004"><a xlink:title=" ">
<path fill="none" stroke="#63b8ff" d="M629.27,-82.34C612.07,-87.47 592.78,-93.24 577.41,-97.83"/>
<polygon fill="#63b8ff" stroke="#63b8ff" points="630.17,-85.72 638.75,-79.5 628.17,-79.01 630.17,-85.72"/>
</a>
</g>
</g>
<!-- Node21&#45;&gt;Node4 -->
<g id="edge26_Node000021_Node000004" class="edge">
<title>Node21&#45;&gt;Node4</title>
<g id="a_edge26_Node000021_Node000004"><a xlink:title=" ">
<path fill="none" stroke="#63b8ff" d="M910.04,-34.87C836.68,-23.97 711.8,-14.2 613.25,-51.35 588.77,-60.58 567.21,-83.56 556.34,-96.71"/>
<polygon fill="#63b8ff" stroke="#63b8ff" points="909.45,-38.32 919.87,-36.39 910.52,-31.4 909.45,-38.32"/>
</a>
</g>
</g>
</g>
</svg>
