<?xml version="1.0" encoding="UTF-8" standalone="no"?>
<!DOCTYPE svg PUBLIC "-//W3C//DTD SVG 1.1//EN"
 "http://www.w3.org/Graphics/SVG/1.1/DTD/svg11.dtd">
<!-- Generated by graphviz version 8.0.5 (0)
 -->
<!-- Title: ARAX_BUFFER Pages: 1 -->
<svg width="1120pt" height="175pt"
 viewBox="0.00 0.00 1120.00 174.50" xmlns="http://www.w3.org/2000/svg" xmlns:xlink="http://www.w3.org/1999/xlink">
<g id="graph0" class="graph" transform="scale(1 1) rotate(0) translate(4 170.5)">
<title>ARAX_BUFFER</title>
<!-- Node1 -->
<g id="Node000001" class="node">
<title>Node1</title>
<g id="a_Node000001"><a xlink:title=" ">
<polygon fill="#999999" stroke="#666666" points="89.5,-73.5 0,-73.5 0,-55 89.5,-55 89.5,-73.5"/>
<text text-anchor="middle" x="44.75" y="-60" font-family="Helvetica,sans-Serif" font-size="10.00">ARAX_BUFFER</text>
</a>
</g>
</g>
<!-- Node2 -->
<g id="Node000002" class="node">
<title>Node2</title>
<g id="a_Node000002"><a xlink:href="a01931.html#aeefe449d4a278e9fc4b9c5f7e31000a1" target="_top" xlink:title=" ">
<polygon fill="white" stroke="#666666" points="203,-73.5 125.5,-73.5 125.5,-55 203,-55 203,-73.5"/>
<text text-anchor="middle" x="164.25" y="-60" font-family="Helvetica,sans-Serif" font-size="10.00">arax_data_init</text>
</a>
</g>
</g>
<!-- Node1&#45;&gt;Node2 -->
<g id="edge1_Node000001_Node000002" class="edge">
<title>Node1&#45;&gt;Node2</title>
<g id="a_edge1_Node000001_Node000002"><a xlink:title=" ">
<path fill="none" stroke="#63b8ff" d="M89.84,-64.25C97.81,-64.25 106.16,-64.25 114.26,-64.25"/>
<polygon fill="#63b8ff" stroke="#63b8ff" points="114.08,-67.75 124.08,-64.25 114.08,-60.75 114.08,-67.75"/>
</a>
</g>
</g>
<!-- Node3 -->
<g id="Node000003" class="node">
<title>Node3</title>
<g id="a_Node000003"><a xlink:href="a01931.html#a526989df37e605824d846b7ba54b43ea" target="_top" xlink:title=" ">
<polygon fill="white" stroke="#666666" points="352.5,-73.5 239,-73.5 239,-55 352.5,-55 352.5,-73.5"/>
<text text-anchor="middle" x="295.75" y="-60" font-family="Helvetica,sans-Serif" font-size="10.00">arax_data_init_aligned</text>
</a>
</g>
</g>
<!-- Node2&#45;&gt;Node3 -->
<g id="edge2_Node000002_Node000003" class="edge">
<title>Node2&#45;&gt;Node3</title>
<g id="a_edge2_Node000002_Node000003"><a xlink:title=" ">
<path fill="none" stroke="#63b8ff" d="M203.4,-64.25C211.08,-64.25 219.36,-64.25 227.7,-64.25"/>
<polygon fill="#63b8ff" stroke="#63b8ff" points="227.63,-67.75 237.63,-64.25 227.63,-60.75 227.63,-67.75"/>
</a>
</g>
</g>
<!-- Node4 -->
<g id="Node000004" class="node">
<title>Node4</title>
<g id="a_Node000004"><a xlink:href="a01910.html#a402bbd6fa197c2c48d527325e5e2cf5b" target="_top" xlink:title=" ">
<polygon fill="white" stroke="#666666" points="493,-73.5 388.5,-73.5 388.5,-55 493,-55 493,-73.5"/>
<text text-anchor="middle" x="440.75" y="-60" font-family="Helvetica,sans-Serif" font-size="10.00">arax_object_register</text>
</a>
</g>
</g>
<!-- Node3&#45;&gt;Node4 -->
<g id="edge3_Node000003_Node000004" class="edge">
<title>Node3&#45;&gt;Node4</title>
<g id="a_edge3_Node000003_Node000004"><a xlink:title=" ">
<path fill="none" stroke="#63b8ff" d="M352.86,-64.25C360.82,-64.25 369.05,-64.25 377.12,-64.25"/>
<polygon fill="#63b8ff" stroke="#63b8ff" points="377,-67.75 387,-64.25 377,-60.75 377,-67.75"/>
</a>
</g>
</g>
<!-- Node5 -->
<g id="Node000005" class="node">
<title>Node5</title>
<g id="a_Node000005"><a xlink:href="a01913.html#a1cfa2c90268c6e53ce376beb7cce153c" target="_top" xlink:title=" ">
<polygon fill="white" stroke="#666666" points="631.25,-129.5 529,-129.5 529,-111 631.25,-111 631.25,-129.5"/>
<text text-anchor="middle" x="580.12" y="-116" font-family="Helvetica,sans-Serif" font-size="10.00">arax_pipe_size_dec</text>
</a>
</g>
</g>
<!-- Node4&#45;&gt;Node5 -->
<g id="edge4_Node000004_Node000005" class="edge">
<title>Node4&#45;&gt;Node5</title>
<g id="a_edge4_Node000004_Node000005"><a xlink:title=" ">
<path fill="none" stroke="#63b8ff" d="M463.89,-73.92C481.46,-81.53 506.71,-92.3 529,-101.25 533.49,-103.05 538.23,-104.91 542.93,-106.72"/>
<polygon fill="#63b8ff" stroke="#63b8ff" points="541.44,-110.28 552.03,-110.58 543.94,-103.74 541.44,-110.28"/>
</a>
</g>
</g>
<!-- Node13 -->
<g id="Node000013" class="node">
<title>Node13</title>
<g id="a_Node000013"><a xlink:href="a02343.html#ac9828b5c2758940f6d3c7d4335228de5" target="_top" xlink:title=" ">
<polygon fill="white" stroke="#666666" points="629.75,-92.5 530.5,-92.5 530.5,-74 629.75,-74 629.75,-92.5"/>
<text text-anchor="middle" x="580.12" y="-79" font-family="Helvetica,sans-Serif" font-size="10.00">arch_alloc_allocate</text>
</a>
</g>
</g>
<!-- Node4&#45;&gt;Node13 -->
<g id="edge14_Node000004_Node000013" class="edge">
<title>Node4&#45;&gt;Node13</title>
<g id="a_edge14_Node000004_Node000013"><a xlink:title=" ">
<path fill="none" stroke="#63b8ff" d="M493.29,-71.38C501.75,-72.55 510.58,-73.77 519.22,-74.96"/>
<polygon fill="#63b8ff" stroke="#63b8ff" points="518.64,-78.56 529.02,-76.46 519.6,-71.62 518.64,-78.56"/>
</a>
</g>
</g>
<!-- Node14 -->
<g id="Node000014" class="node">
<title>Node14</title>
<g id="a_Node000014"><a xlink:href="a01946.html#ae06a9e78e6a4f6c9c8afcf0f4862ce29" target="_top" xlink:title=" ">
<polygon fill="white" stroke="#666666" points="616.62,-55.5 543.62,-55.5 543.62,-37 616.62,-37 616.62,-55.5"/>
<text text-anchor="middle" x="580.12" y="-42" font-family="Helvetica,sans-Serif" font-size="10.00">utils_list_add</text>
</a>
</g>
</g>
<!-- Node4&#45;&gt;Node14 -->
<g id="edge15_Node000004_Node000014" class="edge">
<title>Node4&#45;&gt;Node14</title>
<g id="a_edge15_Node000004_Node000014"><a xlink:title=" ">
<path fill="none" stroke="#63b8ff" d="M493.29,-57.5C506.13,-55.81 519.82,-54.02 532.41,-52.37"/>
<polygon fill="#63b8ff" stroke="#63b8ff" points="532.68,-55.73 542.14,-50.96 531.77,-48.79 532.68,-55.73"/>
</a>
</g>
</g>
<!-- Node16 -->
<g id="Node000016" class="node">
<title>Node16</title>
<g id="a_Node000016"><a xlink:href="a01946.html#a63f2791c9b5c8e2fa15967cfafb7ccbb" target="_top" xlink:title=" ">
<polygon fill="white" stroke="#666666" points="628.25,-18.5 532,-18.5 532,0 628.25,0 628.25,-18.5"/>
<text text-anchor="middle" x="580.12" y="-5" font-family="Helvetica,sans-Serif" font-size="10.00">utils_list_node_init</text>
</a>
</g>
</g>
<!-- Node4&#45;&gt;Node16 -->
<g id="edge17_Node000004_Node000016" class="edge">
<title>Node4&#45;&gt;Node16</title>
<g id="a_edge17_Node000004_Node000016"><a xlink:title=" ">
<path fill="none" stroke="#63b8ff" d="M464.64,-54.59C482.2,-47.24 507.06,-36.93 529,-28.25 533.5,-26.47 538.25,-24.63 542.95,-22.82"/>
<polygon fill="#63b8ff" stroke="#63b8ff" points="543.96,-25.8 552.05,-18.97 541.46,-19.26 543.96,-25.8"/>
</a>
</g>
</g>
<!-- Node6 -->
<g id="Node000006" class="node">
<title>Node6</title>
<g id="a_Node000006"><a xlink:href="a01925.html#a8413a3584787f9b629e54b2ef9439f06" target="_top" xlink:title=" ">
<polygon fill="white" stroke="#666666" points="781.5,-129.5 667.25,-129.5 667.25,-111 781.5,-111 781.5,-129.5"/>
<text text-anchor="middle" x="724.38" y="-116" font-family="Helvetica,sans-Serif" font-size="10.00">arax_throttle_size_dec</text>
</a>
</g>
</g>
<!-- Node5&#45;&gt;Node6 -->
<g id="edge5_Node000005_Node000006" class="edge">
<title>Node5&#45;&gt;Node6</title>
<g id="a_edge5_Node000005_Node000006"><a xlink:title=" ">
<path fill="none" stroke="#63b8ff" d="M631.68,-120.25C639.67,-120.25 648.05,-120.25 656.35,-120.25"/>
<polygon fill="#63b8ff" stroke="#63b8ff" points="656.18,-123.75 666.18,-120.25 656.18,-116.75 656.18,-123.75"/>
</a>
</g>
</g>
<!-- Node7 -->
<g id="Node000007" class="node">
<title>Node7</title>
<g id="a_Node000007"><a xlink:href="a02352.html#aed6af4d83e934e3e654ead541b15f2d9" target="_top" xlink:title=" ">
<polygon fill="white" stroke="#666666" points="931.75,-166.5 822.75,-166.5 822.75,-148 931.75,-148 931.75,-166.5"/>
<text text-anchor="middle" x="877.25" y="-153" font-family="Helvetica,sans-Serif" font-size="10.00">async_condition_lock</text>
</a>
</g>
</g>
<!-- Node6&#45;&gt;Node7 -->
<g id="edge6_Node000006_Node000007" class="edge">
<title>Node6&#45;&gt;Node7</title>
<g id="a_edge6_Node000006_Node000007"><a xlink:title=" ">
<path fill="none" stroke="#63b8ff" d="M765.02,-129.97C783.74,-134.56 806.29,-140.09 826.18,-144.97"/>
<polygon fill="#63b8ff" stroke="#63b8ff" points="825.07,-148.55 835.61,-147.53 826.73,-141.75 825.07,-148.55"/>
</a>
</g>
</g>
<!-- Node9 -->
<g id="Node000009" class="node">
<title>Node9</title>
<g id="a_Node000009"><a xlink:href="a02352.html#a3bbcb7c4c024e99d5c4ba52b61dfbbf7" target="_top" xlink:title=" ">
<polygon fill="white" stroke="#666666" points="937,-92.5 817.5,-92.5 817.5,-74 937,-74 937,-92.5"/>
<text text-anchor="middle" x="877.25" y="-79" font-family="Helvetica,sans-Serif" font-size="10.00">async_condition_unlock</text>
</a>
</g>
</g>
<!-- Node6&#45;&gt;Node9 -->
<g id="edge8_Node000006_Node000009" class="edge">
<title>Node6&#45;&gt;Node9</title>
<g id="a_edge8_Node000006_Node000009"><a xlink:title=" ">
<path fill="none" stroke="#63b8ff" d="M765.02,-110.53C783.74,-105.94 806.29,-100.41 826.18,-95.53"/>
<polygon fill="#63b8ff" stroke="#63b8ff" points="826.73,-98.75 835.61,-92.97 825.07,-91.95 826.73,-98.75"/>
</a>
</g>
</g>
<!-- Node11 -->
<g id="Node000011" class="node">
<title>Node11</title>
<g id="a_Node000011"><a xlink:href="a02352.html#a1bfeaeb9b81855e640d7a67cc9d92b17" target="_top" xlink:title=" ">
<polygon fill="white" stroke="#666666" points="931.38,-129.5 823.12,-129.5 823.12,-111 931.38,-111 931.38,-129.5"/>
<text text-anchor="middle" x="877.25" y="-116" font-family="Helvetica,sans-Serif" font-size="10.00">async_condition_wait</text>
</a>
</g>
</g>
<!-- Node6&#45;&gt;Node11 -->
<g id="edge10_Node000006_Node000011" class="edge">
<title>Node6&#45;&gt;Node11</title>
<g id="a_edge10_Node000006_Node000011"><a xlink:title=" ">
<path fill="none" stroke="#63b8ff" d="M781.98,-120.25C791.81,-120.25 802.09,-120.25 812.1,-120.25"/>
<polygon fill="#63b8ff" stroke="#63b8ff" points="811.82,-123.75 821.82,-120.25 811.82,-116.75 811.82,-123.75"/>
</a>
</g>
</g>
<!-- Node8 -->
<g id="Node000008" class="node">
<title>Node8</title>
<g id="a_Node000008"><a xlink:href="a02346.html#aebf9e72bb6cbd8b9e33489d46c25075d" target="_top" xlink:title=" ">
<polygon fill="white" stroke="#666666" points="1100.75,-166.5 984.25,-166.5 984.25,-148 1100.75,-148 1100.75,-166.5"/>
<text text-anchor="middle" x="1042.5" y="-153" font-family="Helvetica,sans-Serif" font-size="10.00">async_completion_wait</text>
</a>
</g>
</g>
<!-- Node7&#45;&gt;Node8 -->
<g id="edge7_Node000007_Node000008" class="edge">
<title>Node7&#45;&gt;Node8</title>
<g id="a_edge7_Node000007_Node000008"><a xlink:title=" ">
<path fill="none" stroke="#63b8ff" d="M932.16,-157.25C945.27,-157.25 959.48,-157.25 973.16,-157.25"/>
<polygon fill="#63b8ff" stroke="#63b8ff" points="973,-160.75 983,-157.25 973,-153.75 973,-160.75"/>
</a>
</g>
</g>
<!-- Node10 -->
<g id="Node000010" class="node">
<title>Node10</title>
<g id="a_Node000010"><a xlink:href="a02346.html#ad1d30ecbf6bff6457b680aa940281072" target="_top" xlink:title=" ">
<polygon fill="white" stroke="#666666" points="1112,-92.5 973,-92.5 973,-74 1112,-74 1112,-92.5"/>
<text text-anchor="middle" x="1042.5" y="-79" font-family="Helvetica,sans-Serif" font-size="10.00">async_completion_complete</text>
</a>
</g>
</g>
<!-- Node9&#45;&gt;Node10 -->
<g id="edge9_Node000009_Node000010" class="edge">
<title>Node9&#45;&gt;Node10</title>
<g id="a_edge9_Node000009_Node000010"><a xlink:title=" ">
<path fill="none" stroke="#63b8ff" d="M937.19,-83.25C945.19,-83.25 953.51,-83.25 961.8,-83.25"/>
<polygon fill="#63b8ff" stroke="#63b8ff" points="961.65,-86.75 971.65,-83.25 961.65,-79.75 961.65,-86.75"/>
</a>
</g>
</g>
<!-- Node11&#45;&gt;Node8 -->
<g id="edge12_Node000011_Node000008" class="edge">
<title>Node11&#45;&gt;Node8</title>
<g id="a_edge12_Node000011_Node000008"><a xlink:title=" ">
<path fill="none" stroke="#63b8ff" d="M921.14,-129.97C941.59,-134.61 966.26,-140.2 987.92,-145.11"/>
<polygon fill="#63b8ff" stroke="#63b8ff" points="987.09,-148.73 997.61,-147.53 988.63,-141.91 987.09,-148.73"/>
</a>
</g>
</g>
<!-- Node11&#45;&gt;Node10 -->
<g id="edge11_Node000011_Node000010" class="edge">
<title>Node11&#45;&gt;Node10</title>
<g id="a_edge11_Node000011_Node000010"><a xlink:title=" ">
<path fill="none" stroke="#63b8ff" d="M921.14,-110.53C941.59,-105.89 966.26,-100.3 987.92,-95.39"/>
<polygon fill="#63b8ff" stroke="#63b8ff" points="988.63,-98.59 997.61,-92.97 987.09,-91.77 988.63,-98.59"/>
</a>
</g>
</g>
<!-- Node12 -->
<g id="Node000012" class="node">
<title>Node12</title>
<g id="a_Node000012"><a xlink:href="a02346.html#a7ab7c7fe9cb93434dde72a4e464a7e69" target="_top" xlink:title=" ">
<polygon fill="white" stroke="#666666" points="1100.38,-129.5 984.62,-129.5 984.62,-111 1100.38,-111 1100.38,-129.5"/>
<text text-anchor="middle" x="1042.5" y="-116" font-family="Helvetica,sans-Serif" font-size="10.00">async_semaphore_dec</text>
</a>
</g>
</g>
<!-- Node11&#45;&gt;Node12 -->
<g id="edge13_Node000011_Node000012" class="edge">
<title>Node11&#45;&gt;Node12</title>
<g id="a_edge13_Node000011_Node000012"><a xlink:title=" ">
<path fill="none" stroke="#63b8ff" d="M931.7,-120.25C944.98,-120.25 959.4,-120.25 973.28,-120.25"/>
<polygon fill="#63b8ff" stroke="#63b8ff" points="973.27,-123.75 983.27,-120.25 973.27,-116.75 973.27,-123.75"/>
</a>
</g>
</g>
<!-- Node15 -->
<g id="Node000015" class="node">
<title>Node15</title>
<g id="a_Node000015"><a xlink:href="a01946.html#a5c575f52a42e0e0d2fb41bda2d1268ce" target="_top" xlink:title=" ">
<polygon fill="white" stroke="#666666" points="774,-55.5 674.75,-55.5 674.75,-37 774,-37 774,-55.5"/>
<text text-anchor="middle" x="724.38" y="-42" font-family="Helvetica,sans-Serif" font-size="10.00">utils_list_node_add</text>
</a>
</g>
</g>
<!-- Node14&#45;&gt;Node15 -->
<g id="edge16_Node000014_Node000015" class="edge">
<title>Node14&#45;&gt;Node15</title>
<g id="a_edge16_Node000014_Node000015"><a xlink:title=" ">
<path fill="none" stroke="#63b8ff" d="M617.02,-46.25C631.13,-46.25 647.72,-46.25 663.54,-46.25"/>
<polygon fill="#63b8ff" stroke="#63b8ff" points="663.33,-49.75 673.33,-46.25 663.33,-42.75 663.33,-49.75"/>
</a>
</g>
</g>
</g>
</svg>
