<?xml version="1.0" encoding="UTF-8" standalone="no"?>
<!DOCTYPE svg PUBLIC "-//W3C//DTD SVG 1.1//EN"
 "http://www.w3.org/Graphics/SVG/1.1/DTD/svg11.dtd">
<!-- Generated by graphviz version 12.2.1 (0)
 -->
<!-- Title: arax_accel_release Pages: 1 -->
<svg width="862pt" height="101pt"
 viewBox="0.00 0.00 862.25 100.50" xmlns="http://www.w3.org/2000/svg" xmlns:xlink="http://www.w3.org/1999/xlink">
<g id="graph0" class="graph" transform="scale(1 1) rotate(0) translate(4 96.5)">
<title>arax_accel_release</title>
<!-- Node1 -->
<g id="Node000001" class="node">
<title>Node1</title>
<g id="a_Node000001"><a xlink:title=" ">
<polygon fill="#999999" stroke="#666666" points="100.75,-36.5 0,-36.5 0,-18 100.75,-18 100.75,-36.5"/>
<text text-anchor="middle" x="50.38" y="-23" font-family="Helvetica,sans-Serif" font-size="10.00">arax_accel_release</text>
</a>
</g>
</g>
<!-- Node2 -->
<g id="Node000002" class="node">
<title>Node2</title>
<g id="a_Node000002"><a xlink:href="a01925.html#afe7e4a63c40fbcaae742b8de8693483f" target="_top" xlink:title=" ">
<polygon fill="white" stroke="#666666" points="241.25,-36.5 136.75,-36.5 136.75,-18 241.25,-18 241.25,-36.5"/>
<text text-anchor="middle" x="189" y="-23" font-family="Helvetica,sans-Serif" font-size="10.00">arax_object_ref_dec</text>
</a>
</g>
</g>
<!-- Node1&#45;&gt;Node2 -->
<g id="edge1_Node000001_Node000002" class="edge">
<title>Node1&#45;&gt;Node2</title>
<g id="a_edge1_Node000001_Node000002"><a xlink:title=" ">
<path fill="none" stroke="#63b8ff" d="M101.09,-27.25C108.87,-27.25 116.99,-27.25 125.02,-27.25"/>
<polygon fill="#63b8ff" stroke="#63b8ff" points="124.74,-30.75 134.74,-27.25 124.74,-23.75 124.74,-30.75"/>
</a>
</g>
</g>
<!-- Node3 -->
<g id="Node000003" class="node">
<title>Node3</title>
<g id="a_Node000003"><a xlink:href="a01928.html#a9f30684f01feac766b42d622970ed5a6" target="_top" xlink:title=" ">
<polygon fill="white" stroke="#666666" points="376.5,-55.5 277.25,-55.5 277.25,-37 376.5,-37 376.5,-55.5"/>
<text text-anchor="middle" x="326.88" y="-42" font-family="Helvetica,sans-Serif" font-size="10.00">arax_pipe_size_inc</text>
</a>
</g>
</g>
<!-- Node2&#45;&gt;Node3 -->
<g id="edge2_Node000002_Node000003" class="edge">
<title>Node2&#45;&gt;Node3</title>
<g id="a_edge2_Node000002_Node000003"><a xlink:title=" ">
<path fill="none" stroke="#63b8ff" d="M241.37,-34.43C249.34,-35.55 257.63,-36.71 265.77,-37.85"/>
<polygon fill="#63b8ff" stroke="#63b8ff" points="265.24,-41.31 275.63,-39.22 266.21,-34.37 265.24,-41.31"/>
</a>
</g>
</g>
<!-- Node11 -->
<g id="Node000011" class="node">
<title>Node11</title>
<g id="a_Node000011"><a xlink:href="a01955.html#a0c85e5516222ab7e7fc354c614760ec5" target="_top" xlink:title=" ">
<polygon fill="white" stroke="#666666" points="361.88,-18.5 291.88,-18.5 291.88,0 361.88,0 361.88,-18.5"/>
<text text-anchor="middle" x="326.88" y="-5" font-family="Helvetica,sans-Serif" font-size="10.00">utils_list_del</text>
</a>
</g>
</g>
<!-- Node2&#45;&gt;Node11 -->
<g id="edge12_Node000002_Node000011" class="edge">
<title>Node2&#45;&gt;Node11</title>
<g id="a_edge12_Node000002_Node000011"><a xlink:title=" ">
<path fill="none" stroke="#63b8ff" d="M241.37,-20.44C254.26,-18.74 267.99,-16.92 280.56,-15.25"/>
<polygon fill="#63b8ff" stroke="#63b8ff" points="280.77,-18.76 290.22,-13.97 279.85,-11.82 280.77,-18.76"/>
</a>
</g>
</g>
<!-- Node3&#45;&gt;Node3 -->
<g id="edge3_Node000003_Node000003" class="edge">
<title>Node3&#45;&gt;Node3</title>
<g id="a_edge3_Node000003_Node000003"><a xlink:title=" ">
<path fill="none" stroke="#63b8ff" d="M305.62,-55.75C295.29,-64.32 302.37,-73.5 326.88,-73.5 340.66,-73.5 348.93,-70.59 351.69,-66.53"/>
<polygon fill="#63b8ff" stroke="#63b8ff" points="355.06,-65.58 348.6,-57.18 348.42,-67.78 355.06,-65.58"/>
</a>
</g>
</g>
<!-- Node4 -->
<g id="Node000004" class="node">
<title>Node4</title>
<g id="a_Node000004"><a xlink:href="a01940.html#a7d3a67fa4eeb00cc9508a7ffe451a02f" target="_top" xlink:title=" ">
<polygon fill="white" stroke="#666666" points="523.75,-55.5 412.5,-55.5 412.5,-37 523.75,-37 523.75,-55.5"/>
<text text-anchor="middle" x="468.12" y="-42" font-family="Helvetica,sans-Serif" font-size="10.00">arax_throttle_size_inc</text>
</a>
</g>
</g>
<!-- Node3&#45;&gt;Node4 -->
<g id="edge4_Node000003_Node000004" class="edge">
<title>Node3&#45;&gt;Node4</title>
<g id="a_edge4_Node000003_Node000004"><a xlink:title=" ">
<path fill="none" stroke="#63b8ff" d="M376.97,-46.25C384.74,-46.25 392.88,-46.25 400.97,-46.25"/>
<polygon fill="#63b8ff" stroke="#63b8ff" points="400.79,-49.75 410.79,-46.25 400.79,-42.75 400.79,-49.75"/>
</a>
</g>
</g>
<!-- Node4&#45;&gt;Node4 -->
<g id="edge5_Node000004_Node000004" class="edge">
<title>Node4&#45;&gt;Node4</title>
<g id="a_edge5_Node000004_Node000004"><a xlink:title=" ">
<path fill="none" stroke="#63b8ff" d="M446.35,-55.75C435.76,-64.32 443.02,-73.5 468.12,-73.5 482.25,-73.5 490.72,-70.59 493.55,-66.53"/>
<polygon fill="#63b8ff" stroke="#63b8ff" points="496.9,-65.53 490.38,-57.18 490.27,-67.77 496.9,-65.53"/>
</a>
</g>
</g>
<!-- Node5 -->
<g id="Node000005" class="node">
<title>Node5</title>
<g id="a_Node000005"><a xlink:href="a02364.html#aed6af4d83e934e3e654ead541b15f2d9" target="_top" xlink:title=" ">
<polygon fill="white" stroke="#666666" points="674,-92.5 565,-92.5 565,-74 674,-74 674,-92.5"/>
<text text-anchor="middle" x="619.5" y="-79" font-family="Helvetica,sans-Serif" font-size="10.00">async_condition_lock</text>
</a>
</g>
</g>
<!-- Node4&#45;&gt;Node5 -->
<g id="edge6_Node000004_Node000005" class="edge">
<title>Node4&#45;&gt;Node5</title>
<g id="a_edge6_Node000004_Node000005"><a xlink:title=" ">
<path fill="none" stroke="#63b8ff" d="M508.37,-55.97C526.65,-60.5 548.62,-65.94 568.11,-70.77"/>
<polygon fill="#63b8ff" stroke="#63b8ff" points="567.24,-74.16 577.79,-73.17 568.92,-67.36 567.24,-74.16"/>
</a>
</g>
</g>
<!-- Node7 -->
<g id="Node000007" class="node">
<title>Node7</title>
<g id="a_Node000007"><a xlink:href="a02364.html#a45a896fb606c2aa66a5a4c2af59ce494" target="_top" xlink:title=" ">
<polygon fill="white" stroke="#666666" points="677,-55.5 562,-55.5 562,-37 677,-37 677,-55.5"/>
<text text-anchor="middle" x="619.5" y="-42" font-family="Helvetica,sans-Serif" font-size="10.00">async_condition_notify</text>
</a>
</g>
</g>
<!-- Node4&#45;&gt;Node7 -->
<g id="edge8_Node000004_Node000007" class="edge">
<title>Node4&#45;&gt;Node7</title>
<g id="a_edge8_Node000004_Node000007"><a xlink:title=" ">
<path fill="none" stroke="#63b8ff" d="M523.9,-46.25C532.47,-46.25 541.41,-46.25 550.24,-46.25"/>
<polygon fill="#63b8ff" stroke="#63b8ff" points="550.21,-49.75 560.21,-46.25 550.21,-42.75 550.21,-49.75"/>
</a>
</g>
</g>
<!-- Node9 -->
<g id="Node000009" class="node">
<title>Node9</title>
<g id="a_Node000009"><a xlink:href="a02364.html#a3bbcb7c4c024e99d5c4ba52b61dfbbf7" target="_top" xlink:title=" ">
<polygon fill="white" stroke="#666666" points="679.25,-18.5 559.75,-18.5 559.75,0 679.25,0 679.25,-18.5"/>
<text text-anchor="middle" x="619.5" y="-5" font-family="Helvetica,sans-Serif" font-size="10.00">async_condition_unlock</text>
</a>
</g>
</g>
<!-- Node4&#45;&gt;Node9 -->
<g id="edge10_Node000004_Node000009" class="edge">
<title>Node4&#45;&gt;Node9</title>
<g id="a_edge10_Node000004_Node000009"><a xlink:title=" ">
<path fill="none" stroke="#63b8ff" d="M508.37,-36.53C526.65,-32 548.62,-26.56 568.11,-21.73"/>
<polygon fill="#63b8ff" stroke="#63b8ff" points="568.92,-25.14 577.79,-19.33 567.24,-18.34 568.92,-25.14"/>
</a>
</g>
</g>
<!-- Node6 -->
<g id="Node000006" class="node">
<title>Node6</title>
<g id="a_Node000006"><a xlink:href="a02358.html#aebf9e72bb6cbd8b9e33489d46c25075d" target="_top" xlink:title=" ">
<polygon fill="white" stroke="#666666" points="843,-92.5 726.5,-92.5 726.5,-74 843,-74 843,-92.5"/>
<text text-anchor="middle" x="784.75" y="-79" font-family="Helvetica,sans-Serif" font-size="10.00">async_completion_wait</text>
</a>
</g>
</g>
<!-- Node5&#45;&gt;Node6 -->
<g id="edge7_Node000005_Node000006" class="edge">
<title>Node5&#45;&gt;Node6</title>
<g id="a_edge7_Node000005_Node000006"><a xlink:title=" ">
<path fill="none" stroke="#63b8ff" d="M674.41,-83.25C687.39,-83.25 701.44,-83.25 715.01,-83.25"/>
<polygon fill="#63b8ff" stroke="#63b8ff" points="714.74,-86.75 724.74,-83.25 714.74,-79.75 714.74,-86.75"/>
</a>
</g>
</g>
<!-- Node8 -->
<g id="Node000008" class="node">
<title>Node8</title>
<g id="a_Node000008"><a xlink:href="a02358.html#a0fa370eee5160963e617d1daf1c07363" target="_top" xlink:title=" ">
<polygon fill="white" stroke="#666666" points="841.12,-55.5 728.38,-55.5 728.38,-37 841.12,-37 841.12,-55.5"/>
<text text-anchor="middle" x="784.75" y="-42" font-family="Helvetica,sans-Serif" font-size="10.00">async_semaphore_inc</text>
</a>
</g>
</g>
<!-- Node7&#45;&gt;Node8 -->
<g id="edge9_Node000007_Node000008" class="edge">
<title>Node7&#45;&gt;Node8</title>
<g id="a_edge9_Node000007_Node000008"><a xlink:title=" ">
<path fill="none" stroke="#63b8ff" d="M677.14,-46.25C689.89,-46.25 703.54,-46.25 716.67,-46.25"/>
<polygon fill="#63b8ff" stroke="#63b8ff" points="716.53,-49.75 726.53,-46.25 716.52,-42.75 716.53,-49.75"/>
</a>
</g>
</g>
<!-- Node10 -->
<g id="Node000010" class="node">
<title>Node10</title>
<g id="a_Node000010"><a xlink:href="a02358.html#ad1d30ecbf6bff6457b680aa940281072" target="_top" xlink:title=" ">
<polygon fill="white" stroke="#666666" points="854.25,-18.5 715.25,-18.5 715.25,0 854.25,0 854.25,-18.5"/>
<text text-anchor="middle" x="784.75" y="-5" font-family="Helvetica,sans-Serif" font-size="10.00">async_completion_complete</text>
</a>
</g>
</g>
<!-- Node9&#45;&gt;Node10 -->
<g id="edge11_Node000009_Node000010" class="edge">
<title>Node9&#45;&gt;Node10</title>
<g id="a_edge11_Node000009_Node000010"><a xlink:title=" ">
<path fill="none" stroke="#63b8ff" d="M679.44,-9.25C687.26,-9.25 695.38,-9.25 703.49,-9.25"/>
<polygon fill="#63b8ff" stroke="#63b8ff" points="703.39,-12.75 713.39,-9.25 703.39,-5.75 703.39,-12.75"/>
</a>
</g>
</g>
</g>
</svg>
