<?xml version="1.0" encoding="UTF-8" standalone="no"?>
<!DOCTYPE svg PUBLIC "-//W3C//DTD SVG 1.1//EN"
 "http://www.w3.org/Graphics/SVG/1.1/DTD/svg11.dtd">
<!-- Generated by graphviz version 12.2.1 (0)
 -->
<!-- Title: arax_accel_list Pages: 1 -->
<svg width="998pt" height="199pt"
 viewBox="0.00 0.00 998.25 198.50" xmlns="http://www.w3.org/2000/svg" xmlns:xlink="http://www.w3.org/1999/xlink">
<g id="graph0" class="graph" transform="scale(1 1) rotate(0) translate(4 194.5)">
<title>arax_accel_list</title>
<!-- Node1 -->
<g id="Node000001" class="node">
<title>Node1</title>
<g id="a_Node000001"><a xlink:title=" ">
<polygon fill="#999999" stroke="#666666" points="82,-73.5 0,-73.5 0,-55 82,-55 82,-73.5"/>
<text text-anchor="middle" x="41" y="-60" font-family="Helvetica,sans-Serif" font-size="10.00">arax_accel_list</text>
</a>
</g>
</g>
<!-- Node2 -->
<g id="Node000002" class="node">
<title>Node2</title>
<g id="a_Node000002"><a xlink:href="a01910.html#a4cb362223e9e7a76f4c5695080db2755" target="_top" xlink:title=" ">
<polygon fill="white" stroke="#666666" points="229.25,-139.75 125.5,-139.75 125.5,-110.75 229.25,-110.75 229.25,-139.75"/>
<text text-anchor="start" x="133.5" y="-126.25" font-family="Helvetica,sans-Serif" font-size="10.00">arax_accel_list_free</text>
<text text-anchor="middle" x="177.38" y="-115.75" font-family="Helvetica,sans-Serif" font-size="10.00">_pre_locked</text>
</a>
</g>
</g>
<!-- Node1&#45;&gt;Node2 -->
<g id="edge1_Node000001_Node000002" class="edge">
<title>Node1&#45;&gt;Node2</title>
<g id="a_edge1_Node000001_Node000002"><a xlink:title=" ">
<path fill="none" stroke="#63b8ff" d="M60.9,-73.86C76.18,-81.53 98.32,-92.42 118,-101.25 121.51,-102.82 125.15,-104.41 128.82,-105.99"/>
<polygon fill="#63b8ff" stroke="#63b8ff" points="127.2,-109.11 137.77,-109.77 129.92,-102.66 127.2,-109.11"/>
</a>
</g>
</g>
<!-- Node13 -->
<g id="Node000013" class="node">
<title>Node13</title>
<g id="a_Node000013"><a xlink:href="a01925.html#aa750d1c54fe430c1294b9c8a9d3e1466" target="_top" xlink:title=" ">
<polygon fill="white" stroke="#666666" points="231.5,-92.5 123.25,-92.5 123.25,-74 231.5,-74 231.5,-92.5"/>
<text text-anchor="middle" x="177.38" y="-79" font-family="Helvetica,sans-Serif" font-size="10.00">arax_object_list_lock</text>
</a>
</g>
</g>
<!-- Node1&#45;&gt;Node13 -->
<g id="edge14_Node000001_Node000013" class="edge">
<title>Node1&#45;&gt;Node13</title>
<g id="a_edge14_Node000001_Node000013"><a xlink:title=" ">
<path fill="none" stroke="#63b8ff" d="M82.32,-69.95C91.64,-71.27 101.79,-72.7 111.86,-74.13"/>
<polygon fill="#63b8ff" stroke="#63b8ff" points="111.26,-77.58 121.65,-75.51 112.24,-70.65 111.26,-77.58"/>
</a>
</g>
</g>
<!-- Node14 -->
<g id="Node000014" class="node">
<title>Node14</title>
<g id="a_Node000014"><a xlink:href="a01925.html#abb03d3cde2d1354544cd082482c3f185" target="_top" xlink:title=" ">
<polygon fill="white" stroke="#666666" points="236.75,-55.5 118,-55.5 118,-37 236.75,-37 236.75,-55.5"/>
<text text-anchor="middle" x="177.38" y="-42" font-family="Helvetica,sans-Serif" font-size="10.00">arax_object_list_unlock</text>
</a>
</g>
</g>
<!-- Node1&#45;&gt;Node14 -->
<g id="edge15_Node000001_Node000014" class="edge">
<title>Node1&#45;&gt;Node14</title>
<g id="a_edge15_Node000001_Node000014"><a xlink:title=" ">
<path fill="none" stroke="#63b8ff" d="M82.32,-58.85C89.97,-57.82 98.18,-56.72 106.45,-55.62"/>
<polygon fill="#63b8ff" stroke="#63b8ff" points="106.76,-59.11 116.2,-54.31 105.83,-52.17 106.76,-59.11"/>
</a>
</g>
</g>
<!-- Node15 -->
<g id="Node000015" class="node">
<title>Node15</title>
<g id="a_Node000015"><a xlink:href="a01925.html#a9255b8011e6d7c9b28c7df40065efb28" target="_top" xlink:title=" ">
<polygon fill="white" stroke="#666666" points="228.12,-18.5 126.62,-18.5 126.62,0 228.12,0 228.12,-18.5"/>
<text text-anchor="middle" x="177.38" y="-5" font-family="Helvetica,sans-Serif" font-size="10.00">arax_object_ref_inc</text>
</a>
</g>
</g>
<!-- Node1&#45;&gt;Node15 -->
<g id="edge16_Node000001_Node000015" class="edge">
<title>Node1&#45;&gt;Node15</title>
<g id="a_edge16_Node000001_Node000015"><a xlink:title=" ">
<path fill="none" stroke="#63b8ff" d="M60.76,-54.54C75.96,-46.87 98.06,-36.18 118,-28.25 122.94,-26.29 128.17,-24.37 133.39,-22.55"/>
<polygon fill="#63b8ff" stroke="#63b8ff" points="134.2,-25.97 142.56,-19.46 131.97,-19.33 134.2,-25.97"/>
</a>
</g>
</g>
<!-- Node3 -->
<g id="Node000003" class="node">
<title>Node3</title>
<g id="a_Node000003"><a xlink:href="a01925.html#a0a0b147b7fc892c291afe60cb0fa2c1c" target="_top" xlink:title=" ">
<polygon fill="white" stroke="#666666" points="377.25,-139.75 272.75,-139.75 272.75,-110.75 377.25,-110.75 377.25,-139.75"/>
<text text-anchor="start" x="280.75" y="-126.25" font-family="Helvetica,sans-Serif" font-size="10.00">arax_object_ref_dec</text>
<text text-anchor="middle" x="325" y="-115.75" font-family="Helvetica,sans-Serif" font-size="10.00">_pre_locked</text>
</a>
</g>
</g>
<!-- Node2&#45;&gt;Node3 -->
<g id="edge2_Node000002_Node000003" class="edge">
<title>Node2&#45;&gt;Node3</title>
<g id="a_edge2_Node000002_Node000003"><a xlink:title=" ">
<path fill="none" stroke="#63b8ff" d="M229.72,-125.25C239.94,-125.25 250.78,-125.25 261.34,-125.25"/>
<polygon fill="#63b8ff" stroke="#63b8ff" points="261.12,-128.75 271.12,-125.25 261.12,-121.75 261.12,-128.75"/>
</a>
</g>
</g>
<!-- Node4 -->
<g id="Node000004" class="node">
<title>Node4</title>
<g id="a_Node000004"><a xlink:href="a01928.html#a9f30684f01feac766b42d622970ed5a6" target="_top" xlink:title=" ">
<polygon fill="white" stroke="#666666" points="512.5,-153.5 413.25,-153.5 413.25,-135 512.5,-135 512.5,-153.5"/>
<text text-anchor="middle" x="462.88" y="-140" font-family="Helvetica,sans-Serif" font-size="10.00">arax_pipe_size_inc</text>
</a>
</g>
</g>
<!-- Node3&#45;&gt;Node4 -->
<g id="edge3_Node000003_Node000004" class="edge">
<title>Node3&#45;&gt;Node4</title>
<g id="a_edge3_Node000003_Node000004"><a xlink:title=" ">
<path fill="none" stroke="#63b8ff" d="M377.37,-132.43C385.34,-133.55 393.63,-134.71 401.77,-135.85"/>
<polygon fill="#63b8ff" stroke="#63b8ff" points="401.24,-139.31 411.63,-137.22 402.21,-132.37 401.24,-139.31"/>
</a>
</g>
</g>
<!-- Node12 -->
<g id="Node000012" class="node">
<title>Node12</title>
<g id="a_Node000012"><a xlink:href="a01955.html#a0c85e5516222ab7e7fc354c614760ec5" target="_top" xlink:title=" ">
<polygon fill="white" stroke="#666666" points="497.88,-116.5 427.88,-116.5 427.88,-98 497.88,-98 497.88,-116.5"/>
<text text-anchor="middle" x="462.88" y="-103" font-family="Helvetica,sans-Serif" font-size="10.00">utils_list_del</text>
</a>
</g>
</g>
<!-- Node3&#45;&gt;Node12 -->
<g id="edge13_Node000003_Node000012" class="edge">
<title>Node3&#45;&gt;Node12</title>
<g id="a_edge13_Node000003_Node000012"><a xlink:title=" ">
<path fill="none" stroke="#63b8ff" d="M377.37,-118.44C390.26,-116.74 403.99,-114.92 416.56,-113.25"/>
<polygon fill="#63b8ff" stroke="#63b8ff" points="416.77,-116.76 426.22,-111.97 415.85,-109.82 416.77,-116.76"/>
</a>
</g>
</g>
<!-- Node4&#45;&gt;Node4 -->
<g id="edge4_Node000004_Node000004" class="edge">
<title>Node4&#45;&gt;Node4</title>
<g id="a_edge4_Node000004_Node000004"><a xlink:title=" ">
<path fill="none" stroke="#63b8ff" d="M441.62,-153.75C431.29,-162.32 438.37,-171.5 462.88,-171.5 476.66,-171.5 484.93,-168.59 487.69,-164.53"/>
<polygon fill="#63b8ff" stroke="#63b8ff" points="491.06,-163.58 484.6,-155.18 484.42,-165.78 491.06,-163.58"/>
</a>
</g>
</g>
<!-- Node5 -->
<g id="Node000005" class="node">
<title>Node5</title>
<g id="a_Node000005"><a xlink:href="a01940.html#a7d3a67fa4eeb00cc9508a7ffe451a02f" target="_top" xlink:title=" ">
<polygon fill="white" stroke="#666666" points="659.75,-153.5 548.5,-153.5 548.5,-135 659.75,-135 659.75,-153.5"/>
<text text-anchor="middle" x="604.12" y="-140" font-family="Helvetica,sans-Serif" font-size="10.00">arax_throttle_size_inc</text>
</a>
</g>
</g>
<!-- Node4&#45;&gt;Node5 -->
<g id="edge5_Node000004_Node000005" class="edge">
<title>Node4&#45;&gt;Node5</title>
<g id="a_edge5_Node000004_Node000005"><a xlink:title=" ">
<path fill="none" stroke="#63b8ff" d="M512.97,-144.25C520.74,-144.25 528.88,-144.25 536.97,-144.25"/>
<polygon fill="#63b8ff" stroke="#63b8ff" points="536.79,-147.75 546.79,-144.25 536.79,-140.75 536.79,-147.75"/>
</a>
</g>
</g>
<!-- Node5&#45;&gt;Node5 -->
<g id="edge6_Node000005_Node000005" class="edge">
<title>Node5&#45;&gt;Node5</title>
<g id="a_edge6_Node000005_Node000005"><a xlink:title=" ">
<path fill="none" stroke="#63b8ff" d="M582.35,-153.75C571.76,-162.32 579.02,-171.5 604.12,-171.5 618.25,-171.5 626.72,-168.59 629.55,-164.53"/>
<polygon fill="#63b8ff" stroke="#63b8ff" points="632.9,-163.53 626.38,-155.18 626.27,-165.77 632.9,-163.53"/>
</a>
</g>
</g>
<!-- Node6 -->
<g id="Node000006" class="node">
<title>Node6</title>
<g id="a_Node000006"><a xlink:href="a02364.html#aed6af4d83e934e3e654ead541b15f2d9" target="_top" xlink:title=" ">
<polygon fill="white" stroke="#666666" points="810,-190.5 701,-190.5 701,-172 810,-172 810,-190.5"/>
<text text-anchor="middle" x="755.5" y="-177" font-family="Helvetica,sans-Serif" font-size="10.00">async_condition_lock</text>
</a>
</g>
</g>
<!-- Node5&#45;&gt;Node6 -->
<g id="edge7_Node000005_Node000006" class="edge">
<title>Node5&#45;&gt;Node6</title>
<g id="a_edge7_Node000005_Node000006"><a xlink:title=" ">
<path fill="none" stroke="#63b8ff" d="M644.37,-153.97C662.65,-158.5 684.62,-163.94 704.11,-168.77"/>
<polygon fill="#63b8ff" stroke="#63b8ff" points="703.24,-172.16 713.79,-171.17 704.92,-165.36 703.24,-172.16"/>
</a>
</g>
</g>
<!-- Node8 -->
<g id="Node000008" class="node">
<title>Node8</title>
<g id="a_Node000008"><a xlink:href="a02364.html#a45a896fb606c2aa66a5a4c2af59ce494" target="_top" xlink:title=" ">
<polygon fill="white" stroke="#666666" points="813,-153.5 698,-153.5 698,-135 813,-135 813,-153.5"/>
<text text-anchor="middle" x="755.5" y="-140" font-family="Helvetica,sans-Serif" font-size="10.00">async_condition_notify</text>
</a>
</g>
</g>
<!-- Node5&#45;&gt;Node8 -->
<g id="edge9_Node000005_Node000008" class="edge">
<title>Node5&#45;&gt;Node8</title>
<g id="a_edge9_Node000005_Node000008"><a xlink:title=" ">
<path fill="none" stroke="#63b8ff" d="M659.9,-144.25C668.47,-144.25 677.41,-144.25 686.24,-144.25"/>
<polygon fill="#63b8ff" stroke="#63b8ff" points="686.21,-147.75 696.21,-144.25 686.21,-140.75 686.21,-147.75"/>
</a>
</g>
</g>
<!-- Node10 -->
<g id="Node000010" class="node">
<title>Node10</title>
<g id="a_Node000010"><a xlink:href="a02364.html#a3bbcb7c4c024e99d5c4ba52b61dfbbf7" target="_top" xlink:title=" ">
<polygon fill="white" stroke="#666666" points="815.25,-116.5 695.75,-116.5 695.75,-98 815.25,-98 815.25,-116.5"/>
<text text-anchor="middle" x="755.5" y="-103" font-family="Helvetica,sans-Serif" font-size="10.00">async_condition_unlock</text>
</a>
</g>
</g>
<!-- Node5&#45;&gt;Node10 -->
<g id="edge11_Node000005_Node000010" class="edge">
<title>Node5&#45;&gt;Node10</title>
<g id="a_edge11_Node000005_Node000010"><a xlink:title=" ">
<path fill="none" stroke="#63b8ff" d="M644.37,-134.53C662.65,-130 684.62,-124.56 704.11,-119.73"/>
<polygon fill="#63b8ff" stroke="#63b8ff" points="704.92,-123.14 713.79,-117.33 703.24,-116.34 704.92,-123.14"/>
</a>
</g>
</g>
<!-- Node7 -->
<g id="Node000007" class="node">
<title>Node7</title>
<g id="a_Node000007"><a xlink:href="a02358.html#aebf9e72bb6cbd8b9e33489d46c25075d" target="_top" xlink:title=" ">
<polygon fill="white" stroke="#666666" points="979,-190.5 862.5,-190.5 862.5,-172 979,-172 979,-190.5"/>
<text text-anchor="middle" x="920.75" y="-177" font-family="Helvetica,sans-Serif" font-size="10.00">async_completion_wait</text>
</a>
</g>
</g>
<!-- Node6&#45;&gt;Node7 -->
<g id="edge8_Node000006_Node000007" class="edge">
<title>Node6&#45;&gt;Node7</title>
<g id="a_edge8_Node000006_Node000007"><a xlink:title=" ">
<path fill="none" stroke="#63b8ff" d="M810.41,-181.25C823.39,-181.25 837.44,-181.25 851.01,-181.25"/>
<polygon fill="#63b8ff" stroke="#63b8ff" points="850.74,-184.75 860.74,-181.25 850.74,-177.75 850.74,-184.75"/>
</a>
</g>
</g>
<!-- Node9 -->
<g id="Node000009" class="node">
<title>Node9</title>
<g id="a_Node000009"><a xlink:href="a02358.html#a0fa370eee5160963e617d1daf1c07363" target="_top" xlink:title=" ">
<polygon fill="white" stroke="#666666" points="977.12,-153.5 864.38,-153.5 864.38,-135 977.12,-135 977.12,-153.5"/>
<text text-anchor="middle" x="920.75" y="-140" font-family="Helvetica,sans-Serif" font-size="10.00">async_semaphore_inc</text>
</a>
</g>
</g>
<!-- Node8&#45;&gt;Node9 -->
<g id="edge10_Node000008_Node000009" class="edge">
<title>Node8&#45;&gt;Node9</title>
<g id="a_edge10_Node000008_Node000009"><a xlink:title=" ">
<path fill="none" stroke="#63b8ff" d="M813.14,-144.25C825.89,-144.25 839.54,-144.25 852.67,-144.25"/>
<polygon fill="#63b8ff" stroke="#63b8ff" points="852.53,-147.75 862.53,-144.25 852.52,-140.75 852.53,-147.75"/>
</a>
</g>
</g>
<!-- Node11 -->
<g id="Node000011" class="node">
<title>Node11</title>
<g id="a_Node000011"><a xlink:href="a02358.html#ad1d30ecbf6bff6457b680aa940281072" target="_top" xlink:title=" ">
<polygon fill="white" stroke="#666666" points="990.25,-116.5 851.25,-116.5 851.25,-98 990.25,-98 990.25,-116.5"/>
<text text-anchor="middle" x="920.75" y="-103" font-family="Helvetica,sans-Serif" font-size="10.00">async_completion_complete</text>
</a>
</g>
</g>
<!-- Node10&#45;&gt;Node11 -->
<g id="edge12_Node000010_Node000011" class="edge">
<title>Node10&#45;&gt;Node11</title>
<g id="a_edge12_Node000010_Node000011"><a xlink:title=" ">
<path fill="none" stroke="#63b8ff" d="M815.44,-107.25C823.26,-107.25 831.38,-107.25 839.49,-107.25"/>
<polygon fill="#63b8ff" stroke="#63b8ff" points="839.39,-110.75 849.39,-107.25 839.39,-103.75 839.39,-110.75"/>
</a>
</g>
</g>
</g>
</svg>
