<?xml version="1.0" encoding="UTF-8" standalone="no"?>
<!DOCTYPE svg PUBLIC "-//W3C//DTD SVG 1.1//EN"
 "http://www.w3.org/Graphics/SVG/1.1/DTD/svg11.dtd">
<!-- Generated by graphviz version 12.2.1 (0)
 -->
<!-- Title: arax_task_issue Pages: 1 -->
<svg width="403pt" height="185pt"
 viewBox="0.00 0.00 402.50 184.75" xmlns="http://www.w3.org/2000/svg" xmlns:xlink="http://www.w3.org/1999/xlink">
<g id="graph0" class="graph" transform="scale(1 1) rotate(0) translate(4 180.75)">
<title>arax_task_issue</title>
<!-- Node1 -->
<g id="Node000001" class="node">
<title>Node1</title>
<g id="a_Node000001"><a xlink:title=" ">
<polygon fill="#999999" stroke="#666666" points="394.5,-92.5 306.5,-92.5 306.5,-74 394.5,-74 394.5,-92.5"/>
<text text-anchor="middle" x="350.5" y="-79" font-family="Helvetica,sans-Serif" font-size="10.00">arax_task_issue</text>
</a>
</g>
</g>
<!-- Node2 -->
<g id="Node000002" class="node">
<title>Node2</title>
<g id="a_Node000002"><a xlink:href="a01922.html#af8ede6fc8d207004035f45d945688d2c" target="_top" xlink:title=" ">
<polygon fill="white" stroke="#666666" points="253.62,-176.75 155.12,-176.75 155.12,-147.75 253.62,-147.75 253.62,-176.75"/>
<text text-anchor="start" x="163.12" y="-163.25" font-family="Helvetica,sans-Serif" font-size="10.00">arax_data_allocate</text>
<text text-anchor="middle" x="204.38" y="-152.75" font-family="Helvetica,sans-Serif" font-size="10.00">_remote</text>
</a>
</g>
</g>
<!-- Node1&#45;&gt;Node2 -->
<g id="edge1_Node000001_Node000002" class="edge">
<title>Node1&#45;&gt;Node2</title>
<g id="a_edge1_Node000001_Node000002"><a xlink:title=" ">
<path fill="none" stroke="#63b8ff" d="M329.12,-99.62C313.68,-111.46 291.61,-127.24 270.5,-138.25 264.2,-141.54 257.34,-144.58 250.52,-147.33"/>
<polygon fill="#63b8ff" stroke="#63b8ff" points="330.88,-102.68 336.6,-93.77 326.57,-97.17 330.88,-102.68"/>
</a>
</g>
</g>
<!-- Node3 -->
<g id="Node000003" class="node">
<title>Node3</title>
<g id="a_Node000003"><a xlink:href="a01922.html#a696bc4319d0f6c6baa7d797a8df6b56f" target="_top" xlink:title=" ">
<polygon fill="white" stroke="#666666" points="243.5,-129.5 165.25,-129.5 165.25,-111 243.5,-111 243.5,-129.5"/>
<text text-anchor="middle" x="204.38" y="-116" font-family="Helvetica,sans-Serif" font-size="10.00">arax_data_get</text>
</a>
</g>
</g>
<!-- Node1&#45;&gt;Node3 -->
<g id="edge2_Node000001_Node000003" class="edge">
<title>Node1&#45;&gt;Node3</title>
<g id="a_edge2_Node000001_Node000003"><a xlink:title=" ">
<path fill="none" stroke="#63b8ff" d="M300.62,-95.8C281.88,-100.61 260.8,-106.02 243.24,-110.53"/>
<polygon fill="#63b8ff" stroke="#63b8ff" points="301.35,-99.22 310.17,-93.35 299.61,-92.44 301.35,-99.22"/>
</a>
</g>
</g>
<!-- Node5 -->
<g id="Node000005" class="node">
<title>Node5</title>
<g id="a_Node000005"><a xlink:href="a01922.html#a8995f71dba475975efc37756783cfce9" target="_top" xlink:title=" ">
<polygon fill="white" stroke="#666666" points="243.5,-92.5 165.25,-92.5 165.25,-74 243.5,-74 243.5,-92.5"/>
<text text-anchor="middle" x="204.38" y="-79" font-family="Helvetica,sans-Serif" font-size="10.00">arax_data_set</text>
</a>
</g>
</g>
<!-- Node1&#45;&gt;Node5 -->
<g id="edge4_Node000001_Node000005" class="edge">
<title>Node1&#45;&gt;Node5</title>
<g id="a_edge4_Node000001_Node000005"><a xlink:title=" ">
<path fill="none" stroke="#63b8ff" d="M294.74,-83.25C277.73,-83.25 259.34,-83.25 243.69,-83.25"/>
<polygon fill="#63b8ff" stroke="#63b8ff" points="294.74,-86.75 304.74,-83.25 294.74,-79.75 294.74,-86.75"/>
</a>
</g>
</g>
<!-- Node6 -->
<g id="Node000006" class="node">
<title>Node6</title>
<g id="a_Node000006"><a xlink:href="a01922.html#af735744d0f8bec04394639a841d2ba0f" target="_top" xlink:title=" ">
<polygon fill="white" stroke="#666666" points="270.5,-55.5 138.25,-55.5 138.25,-37 270.5,-37 270.5,-55.5"/>
<text text-anchor="middle" x="204.38" y="-42" font-family="Helvetica,sans-Serif" font-size="10.00">ARAX_OBJ_DTOR_DECL</text>
</a>
</g>
</g>
<!-- Node1&#45;&gt;Node6 -->
<g id="edge6_Node000001_Node000006" class="edge">
<title>Node1&#45;&gt;Node6</title>
<g id="a_edge6_Node000001_Node000006"><a xlink:title=" ">
<path fill="none" stroke="#63b8ff" d="M300.62,-70.7C281.88,-65.89 260.8,-60.48 243.24,-55.97"/>
<polygon fill="#63b8ff" stroke="#63b8ff" points="299.61,-74.06 310.17,-73.15 301.35,-67.28 299.61,-74.06"/>
</a>
</g>
</g>
<!-- Node7 -->
<g id="Node000007" class="node">
<title>Node7</title>
<g id="a_Node000007"><a xlink:href="a02189.html#ga1418f4cd7336bf77cce7b955a1bf7077" target="_top" xlink:title=" ">
<polygon fill="white" stroke="#666666" points="261.12,-18.5 147.62,-18.5 147.62,0 261.12,0 261.12,-18.5"/>
<text text-anchor="middle" x="204.38" y="-5" font-family="Helvetica,sans-Serif" font-size="10.00">arax_task_issue_sync</text>
</a>
</g>
</g>
<!-- Node1&#45;&gt;Node7 -->
<g id="edge7_Node000001_Node000007" class="edge">
<title>Node1&#45;&gt;Node7</title>
<g id="a_edge7_Node000001_Node000007"><a xlink:title=" ">
<path fill="none" stroke="#63b8ff" d="M329.6,-66.65C314.27,-54.57 292.1,-38.58 270.5,-28.25 262.85,-24.59 254.35,-21.49 246.09,-18.92"/>
<polygon fill="#63b8ff" stroke="#63b8ff" points="327.04,-69.09 337.02,-72.64 331.43,-63.64 327.04,-69.09"/>
</a>
</g>
</g>
<!-- Node4 -->
<g id="Node000004" class="node">
<title>Node4</title>
<g id="a_Node000004"><a xlink:href="a01922.html#a7d8356bd5c8b6a8d7dffc6ba94cc22e5" target="_top" xlink:title=" ">
<polygon fill="white" stroke="#666666" points="102.25,-110.5 0,-110.5 0,-92 102.25,-92 102.25,-110.5"/>
<text text-anchor="middle" x="51.12" y="-97" font-family="Helvetica,sans-Serif" font-size="10.00">arax_data_memcpy</text>
</a>
</g>
</g>
<!-- Node3&#45;&gt;Node4 -->
<g id="edge3_Node000003_Node000004" class="edge">
<title>Node3&#45;&gt;Node4</title>
<g id="a_edge3_Node000003_Node000004"><a xlink:title=" ">
<path fill="none" stroke="#63b8ff" d="M153.79,-114.02C137.38,-111.96 119.1,-109.66 102.61,-107.59"/>
<polygon fill="#63b8ff" stroke="#63b8ff" points="152.96,-117.44 163.32,-115.22 153.83,-110.5 152.96,-117.44"/>
</a>
</g>
</g>
<!-- Node5&#45;&gt;Node4 -->
<g id="edge5_Node000005_Node000004" class="edge">
<title>Node5&#45;&gt;Node4</title>
<g id="a_edge5_Node000005_Node000004"><a xlink:title=" ">
<path fill="none" stroke="#63b8ff" d="M153.79,-89.15C137.38,-91.1 119.1,-93.28 102.61,-95.24"/>
<polygon fill="#63b8ff" stroke="#63b8ff" points="153.8,-92.67 163.31,-88.02 152.97,-85.72 153.8,-92.67"/>
</a>
</g>
</g>
</g>
</svg>
