<?xml version="1.0" encoding="UTF-8" standalone="no"?>
<!DOCTYPE svg PUBLIC "-//W3C//DTD SVG 1.1//EN"
 "http://www.w3.org/Graphics/SVG/1.1/DTD/svg11.dtd">
<!-- Generated by graphviz version 12.2.1 (0)
 -->
<!-- Title: arax_accel_acquire_type Pages: 1 -->
<svg width="1047pt" height="432pt"
 viewBox="0.00 0.00 1047.00 431.50" xmlns="http://www.w3.org/2000/svg" xmlns:xlink="http://www.w3.org/1999/xlink">
<g id="graph0" class="graph" transform="scale(1 1) rotate(0) translate(4 427.5)">
<title>arax_accel_acquire_type</title>
<!-- Node1 -->
<g id="Node000001" class="node">
<title>Node1</title>
<g id="a_Node000001"><a xlink:title=" ">
<polygon fill="#999999" stroke="#666666" points="124.75,-92.5 0,-92.5 0,-74 124.75,-74 124.75,-92.5"/>
<text text-anchor="middle" x="62.38" y="-79" font-family="Helvetica,sans-Serif" font-size="10.00">arax_accel_acquire_type</text>
</a>
</g>
</g>
<!-- Node2 -->
<g id="Node000002" class="node">
<title>Node2</title>
<g id="a_Node000002"><a xlink:href="a01943.html#a83ddb422946cf774c687c1ab63dcda15" target="_top" xlink:title=" ">
<polygon fill="white" stroke="#666666" points="247.25,-92.5 160.75,-92.5 160.75,-74 247.25,-74 247.25,-92.5"/>
<text text-anchor="middle" x="204" y="-79" font-family="Helvetica,sans-Serif" font-size="10.00">arax_vaccel_init</text>
</a>
</g>
</g>
<!-- Node1&#45;&gt;Node2 -->
<g id="edge1_Node000001_Node000002" class="edge">
<title>Node1&#45;&gt;Node2</title>
<g id="a_edge1_Node000001_Node000002"><a xlink:title=" ">
<path fill="none" stroke="#63b8ff" d="M125.02,-83.25C133.07,-83.25 141.27,-83.25 149.18,-83.25"/>
<polygon fill="#63b8ff" stroke="#63b8ff" points="148.99,-86.75 158.99,-83.25 148.99,-79.75 148.99,-86.75"/>
</a>
</g>
</g>
<!-- Node3 -->
<g id="Node000003" class="node">
<title>Node3</title>
<g id="a_Node000003"><a xlink:href="a01916.html#af0b933c02a24d69c1efa40179f60288f" target="_top" xlink:title=" ">
<polygon fill="white" stroke="#666666" points="541.75,-282.5 423.75,-282.5 423.75,-264 541.75,-264 541.75,-282.5"/>
<text text-anchor="middle" x="482.75" y="-269" font-family="Helvetica,sans-Serif" font-size="10.00">arax_accel_add_vaccel</text>
</a>
</g>
</g>
<!-- Node2&#45;&gt;Node3 -->
<g id="edge2_Node000002_Node000003" class="edge">
<title>Node2&#45;&gt;Node3</title>
<g id="a_edge2_Node000002_Node000003"><a xlink:title=" ">
<path fill="none" stroke="#63b8ff" d="M216.99,-92.89C232.17,-104.99 259.23,-126.21 283.25,-143.25 344.32,-186.57 418.73,-233.91 456.76,-257.72"/>
<polygon fill="#63b8ff" stroke="#63b8ff" points="454.42,-260.39 464.76,-262.72 458.13,-254.45 454.42,-260.39"/>
</a>
</g>
</g>
<!-- Node19 -->
<g id="Node000019" class="node">
<title>Node19</title>
<g id="a_Node000019"><a xlink:href="a01925.html#a402bbd6fa197c2c48d527325e5e2cf5b" target="_top" xlink:title=" ">
<polygon fill="white" stroke="#666666" points="387.75,-92.5 283.25,-92.5 283.25,-74 387.75,-74 387.75,-92.5"/>
<text text-anchor="middle" x="335.5" y="-79" font-family="Helvetica,sans-Serif" font-size="10.00">arax_object_register</text>
</a>
</g>
</g>
<!-- Node2&#45;&gt;Node19 -->
<g id="edge20_Node000002_Node000019" class="edge">
<title>Node2&#45;&gt;Node19</title>
<g id="a_edge20_Node000002_Node000019"><a xlink:title=" ">
<path fill="none" stroke="#63b8ff" d="M247.4,-83.25C255.12,-83.25 263.33,-83.25 271.5,-83.25"/>
<polygon fill="#63b8ff" stroke="#63b8ff" points="271.45,-86.75 281.45,-83.25 271.45,-79.75 271.45,-86.75"/>
</a>
</g>
</g>
<!-- Node25 -->
<g id="Node000025" class="node">
<title>Node25</title>
<g id="a_Node000025"><a xlink:href="a01955.html#a63f2791c9b5c8e2fa15967cfafb7ccbb" target="_top" xlink:title=" ">
<polygon fill="white" stroke="#666666" points="530.88,-18.5 434.62,-18.5 434.62,0 530.88,0 530.88,-18.5"/>
<text text-anchor="middle" x="482.75" y="-5" font-family="Helvetica,sans-Serif" font-size="10.00">utils_list_node_init</text>
</a>
</g>
</g>
<!-- Node2&#45;&gt;Node25 -->
<g id="edge39_Node000002_Node000025" class="edge">
<title>Node2&#45;&gt;Node25</title>
<g id="a_edge39_Node000002_Node000025"><a xlink:title=" ">
<path fill="none" stroke="#63b8ff" d="M241.18,-73.58C290.8,-60.31 380.03,-36.45 434.76,-21.81"/>
<polygon fill="#63b8ff" stroke="#63b8ff" points="435.34,-25.28 444.1,-19.32 433.53,-18.52 435.34,-25.28"/>
</a>
</g>
</g>
<!-- Node26 -->
<g id="Node000026" class="node">
<title>Node26</title>
<g id="a_Node000026"><a xlink:href="a01928.html#aa4461ab1d225a0f76f08d2f37a4a7e0e" target="_top" xlink:title=" ">
<polygon fill="white" stroke="#666666" points="540.25,-194.75 425.25,-194.75 425.25,-165.75 540.25,-165.75 540.25,-194.75"/>
<text text-anchor="start" x="433.25" y="-181.25" font-family="Helvetica,sans-Serif" font-size="10.00">arax_pipe_add_orphan</text>
<text text-anchor="middle" x="482.75" y="-170.75" font-family="Helvetica,sans-Serif" font-size="10.00">_vaccel</text>
</a>
</g>
</g>
<!-- Node2&#45;&gt;Node26 -->
<g id="edge34_Node000002_Node000026" class="edge">
<title>Node2&#45;&gt;Node26</title>
<g id="a_edge34_Node000002_Node000026"><a xlink:title=" ">
<path fill="none" stroke="#63b8ff" d="M232.8,-92.99C278.48,-109.01 370.17,-141.14 428.61,-161.63"/>
<polygon fill="#63b8ff" stroke="#63b8ff" points="427.1,-164.8 437.69,-164.81 429.41,-158.2 427.1,-164.8"/>
</a>
</g>
</g>
<!-- Node27 -->
<g id="Node000027" class="node">
<title>Node27</title>
<g id="a_Node000027"><a xlink:href="a01958.html#a49c353188156b1df4463a5fc7f7bc25e" target="_top" xlink:title=" ">
<polygon fill="white" stroke="#666666" points="377.25,-18.5 293.75,-18.5 293.75,0 377.25,0 377.25,-18.5"/>
<text text-anchor="middle" x="335.5" y="-5" font-family="Helvetica,sans-Serif" font-size="10.00">utils_queue_init</text>
</a>
</g>
</g>
<!-- Node2&#45;&gt;Node27 -->
<g id="edge40_Node000002_Node000027" class="edge">
<title>Node2&#45;&gt;Node27</title>
<g id="a_edge40_Node000002_Node000027"><a xlink:title=" ">
<path fill="none" stroke="#63b8ff" d="M218.45,-73.55C233.74,-62.76 259.62,-45.15 283.25,-32.25 288.76,-29.24 294.74,-26.29 300.61,-23.56"/>
<polygon fill="#63b8ff" stroke="#63b8ff" points="301.85,-26.84 309.53,-19.54 298.98,-20.46 301.85,-26.84"/>
</a>
</g>
</g>
<!-- Node4 -->
<g id="Node000004" class="node">
<title>Node4</title>
<g id="a_Node000004"><a xlink:href="a01916.html#aed864d2fab73a39a8c98356f7bca1304" target="_top" xlink:title=" ">
<polygon fill="white" stroke="#666666" points="703.62,-423.5 582.62,-423.5 582.62,-405 703.62,-405 703.62,-423.5"/>
<text text-anchor="middle" x="643.12" y="-410" font-family="Helvetica,sans-Serif" font-size="10.00">arax_accel_inc_revision</text>
</a>
</g>
</g>
<!-- Node3&#45;&gt;Node4 -->
<g id="edge3_Node000003_Node000004" class="edge">
<title>Node3&#45;&gt;Node4</title>
<g id="a_edge3_Node000003_Node000004"><a xlink:title=" ">
<path fill="none" stroke="#63b8ff" d="M488.41,-282.83C500.1,-305.83 532.97,-364.57 577.75,-395.25 580.28,-396.98 582.96,-398.56 585.75,-399.99"/>
<polygon fill="#63b8ff" stroke="#63b8ff" points="584.23,-403.14 594.79,-403.98 587.05,-396.74 584.23,-403.14"/>
</a>
</g>
</g>
<!-- Node5 -->
<g id="Node000005" class="node">
<title>Node5</title>
<g id="a_Node000005"><a xlink:href="a01928.html#aa5172b735dddd3f77fbb0265bbcdfc20" target="_top" xlink:title=" ">
<polygon fill="white" stroke="#666666" points="708.5,-349.75 577.75,-349.75 577.75,-320.75 708.5,-320.75 708.5,-349.75"/>
<text text-anchor="start" x="585.75" y="-336.25" font-family="Helvetica,sans-Serif" font-size="10.00">arax_pipe_remove_orphan</text>
<text text-anchor="middle" x="643.12" y="-325.75" font-family="Helvetica,sans-Serif" font-size="10.00">_vaccel</text>
</a>
</g>
</g>
<!-- Node3&#45;&gt;Node5 -->
<g id="edge4_Node000003_Node000005" class="edge">
<title>Node3&#45;&gt;Node5</title>
<g id="a_edge4_Node000003_Node000005"><a xlink:title=" ">
<path fill="none" stroke="#63b8ff" d="M508.5,-282.94C531.18,-291.82 565.4,-305.22 593.54,-316.23"/>
<polygon fill="#63b8ff" stroke="#63b8ff" points="591.99,-319.38 602.58,-319.77 594.54,-312.86 591.99,-319.38"/>
</a>
</g>
</g>
<!-- Node6 -->
<g id="Node000006" class="node">
<title>Node6</title>
<g id="a_Node000006"><a xlink:href="a02364.html#aed6af4d83e934e3e654ead541b15f2d9" target="_top" xlink:title=" ">
<polygon fill="white" stroke="#666666" points="858.75,-189.5 749.75,-189.5 749.75,-171 858.75,-171 858.75,-189.5"/>
<text text-anchor="middle" x="804.25" y="-176" font-family="Helvetica,sans-Serif" font-size="10.00">async_condition_lock</text>
</a>
</g>
</g>
<!-- Node3&#45;&gt;Node6 -->
<g id="edge14_Node000003_Node000006" class="edge">
<title>Node3&#45;&gt;Node6</title>
<g id="a_edge14_Node000003_Node000006"><a xlink:title=" ">
<path fill="none" stroke="#63b8ff" d="M528.35,-282.96C575.15,-290.97 649.92,-297.51 708.5,-273.25 729.41,-264.59 728.38,-253.13 744.5,-237.25 758.05,-223.9 773.5,-208.92 785.15,-197.67"/>
<polygon fill="#63b8ff" stroke="#63b8ff" points="787.37,-200.4 792.14,-190.94 782.51,-195.36 787.37,-200.4"/>
</a>
</g>
</g>
<!-- Node8 -->
<g id="Node000008" class="node">
<title>Node8</title>
<g id="a_Node000008"><a xlink:href="a02364.html#a3bbcb7c4c024e99d5c4ba52b61dfbbf7" target="_top" xlink:title=" ">
<polygon fill="white" stroke="#666666" points="864,-151.5 744.5,-151.5 744.5,-133 864,-133 864,-151.5"/>
<text text-anchor="middle" x="804.25" y="-138" font-family="Helvetica,sans-Serif" font-size="10.00">async_condition_unlock</text>
</a>
</g>
</g>
<!-- Node3&#45;&gt;Node8 -->
<g id="edge17_Node000003_Node000008" class="edge">
<title>Node3&#45;&gt;Node8</title>
<g id="a_edge17_Node000003_Node000008"><a xlink:title=" ">
<path fill="none" stroke="#63b8ff" d="M504.83,-263.65C548.9,-243.7 654.2,-196.79 744.5,-162.25 750.29,-160.04 756.44,-157.81 762.5,-155.68"/>
<polygon fill="#63b8ff" stroke="#63b8ff" points="763.46,-159.05 771.78,-152.49 761.18,-152.44 763.46,-159.05"/>
</a>
</g>
</g>
<!-- Node12 -->
<g id="Node000012" class="node">
<title>Node12</title>
<g id="a_Node000012"><a xlink:href="a01943.html#ab2fa3d6e6c761009b464cc0fbedc6a16" target="_top" xlink:title=" ">
<polygon fill="white" stroke="#666666" points="704.38,-386.5 581.88,-386.5 581.88,-368 704.38,-368 704.38,-386.5"/>
<text text-anchor="middle" x="643.12" y="-373" font-family="Helvetica,sans-Serif" font-size="10.00">arax_vaccel_queue_size</text>
</a>
</g>
</g>
<!-- Node3&#45;&gt;Node12 -->
<g id="edge11_Node000003_Node000012" class="edge">
<title>Node3&#45;&gt;Node12</title>
<g id="a_edge11_Node000003_Node000012"><a xlink:title=" ">
<path fill="none" stroke="#63b8ff" d="M491.48,-282.82C506.31,-300.57 540.62,-338.64 577.75,-359.25 580.56,-360.81 583.51,-362.24 586.54,-363.55"/>
<polygon fill="#63b8ff" stroke="#63b8ff" points="585.06,-366.74 595.65,-367.04 587.56,-360.2 585.06,-366.74"/>
</a>
</g>
</g>
<!-- Node15 -->
<g id="Node000015" class="node">
<title>Node15</title>
<g id="a_Node000015"><a xlink:href="a02364.html#a45a896fb606c2aa66a5a4c2af59ce494" target="_top" xlink:title=" ">
<polygon fill="white" stroke="#666666" points="700.62,-264.5 585.62,-264.5 585.62,-246 700.62,-246 700.62,-264.5"/>
<text text-anchor="middle" x="643.12" y="-251" font-family="Helvetica,sans-Serif" font-size="10.00">async_condition_notify</text>
</a>
</g>
</g>
<!-- Node3&#45;&gt;Node15 -->
<g id="edge15_Node000003_Node000015" class="edge">
<title>Node3&#45;&gt;Node15</title>
<g id="a_edge15_Node000003_Node000015"><a xlink:title=" ">
<path fill="none" stroke="#63b8ff" d="M541.82,-266.65C552.37,-265.45 563.46,-264.19 574.26,-262.96"/>
<polygon fill="#63b8ff" stroke="#63b8ff" points="574.33,-266.48 583.88,-261.87 573.54,-259.52 574.33,-266.48"/>
</a>
</g>
</g>
<!-- Node17 -->
<g id="Node000017" class="node">
<title>Node17</title>
<g id="a_Node000017"><a xlink:href="a01955.html#ae06a9e78e6a4f6c9c8afcf0f4862ce29" target="_top" xlink:title=" ">
<polygon fill="white" stroke="#666666" points="679.62,-59.5 606.62,-59.5 606.62,-41 679.62,-41 679.62,-59.5"/>
<text text-anchor="middle" x="643.12" y="-46" font-family="Helvetica,sans-Serif" font-size="10.00">utils_list_add</text>
</a>
</g>
</g>
<!-- Node3&#45;&gt;Node17 -->
<g id="edge18_Node000003_Node000017" class="edge">
<title>Node3&#45;&gt;Node17</title>
<g id="a_edge18_Node000003_Node000017"><a xlink:title=" ">
<path fill="none" stroke="#63b8ff" d="M494.37,-263.55C507.41,-251.07 529.33,-228.13 541.75,-204.25 570.41,-149.16 534.42,-113.73 577.75,-69.25 582.71,-64.16 588.97,-60.41 595.62,-57.66"/>
<polygon fill="#63b8ff" stroke="#63b8ff" points="596.45,-61.07 604.83,-54.59 594.23,-54.43 596.45,-61.07"/>
</a>
</g>
</g>
<!-- Node5&#45;&gt;Node6 -->
<g id="edge5_Node000005_Node000006" class="edge">
<title>Node5&#45;&gt;Node6</title>
<g id="a_edge5_Node000005_Node000006"><a xlink:title=" ">
<path fill="none" stroke="#63b8ff" d="M687.81,-320.39C695.27,-316.56 702.53,-311.89 708.5,-306.25 733.65,-282.51 723.82,-264.98 744.5,-237.25 755.6,-222.36 770.68,-207.82 782.78,-197.15"/>
<polygon fill="#63b8ff" stroke="#63b8ff" points="784.88,-199.96 790.19,-190.79 780.32,-194.65 784.88,-199.96"/>
</a>
</g>
</g>
<!-- Node5&#45;&gt;Node8 -->
<g id="edge7_Node000005_Node000008" class="edge">
<title>Node5&#45;&gt;Node8</title>
<g id="a_edge7_Node000005_Node000008"><a xlink:title=" ">
<path fill="none" stroke="#63b8ff" d="M664.1,-320.43C678.29,-308.96 696.82,-291.93 708.5,-273.25 736,-229.28 708.09,-199.19 744.5,-162.25 746.09,-160.64 747.81,-159.16 749.64,-157.79"/>
<polygon fill="#63b8ff" stroke="#63b8ff" points="751.37,-160.84 758.16,-152.7 747.78,-154.83 751.37,-160.84"/>
</a>
</g>
</g>
<!-- Node10 -->
<g id="Node000010" class="node">
<title>Node10</title>
<g id="a_Node000010"><a xlink:href="a01955.html#a0c85e5516222ab7e7fc354c614760ec5" target="_top" xlink:title=" ">
<polygon fill="white" stroke="#666666" points="839.25,-308.5 769.25,-308.5 769.25,-290 839.25,-290 839.25,-308.5"/>
<text text-anchor="middle" x="804.25" y="-295" font-family="Helvetica,sans-Serif" font-size="10.00">utils_list_del</text>
</a>
</g>
</g>
<!-- Node5&#45;&gt;Node10 -->
<g id="edge9_Node000005_Node000010" class="edge">
<title>Node5&#45;&gt;Node10</title>
<g id="a_edge9_Node000005_Node000010"><a xlink:title=" ">
<path fill="none" stroke="#63b8ff" d="M708.85,-320.61C725.3,-316.88 742.64,-312.96 757.9,-309.51"/>
<polygon fill="#63b8ff" stroke="#63b8ff" points="758.66,-312.93 767.64,-307.31 757.11,-306.1 758.66,-312.93"/>
</a>
</g>
</g>
<!-- Node11 -->
<g id="Node000011" class="node">
<title>Node11</title>
<g id="a_Node000011"><a xlink:href="a01955.html#ab0c44e095ebfd8721de878c42abcbbdc" target="_top" xlink:title=" ">
<polygon fill="white" stroke="#666666" points="858.38,-345.5 750.12,-345.5 750.12,-327 858.38,-327 858.38,-345.5"/>
<text text-anchor="middle" x="804.25" y="-332" font-family="Helvetica,sans-Serif" font-size="10.00">utils_list_node_linked</text>
</a>
</g>
</g>
<!-- Node5&#45;&gt;Node11 -->
<g id="edge10_Node000005_Node000011" class="edge">
<title>Node5&#45;&gt;Node11</title>
<g id="a_edge10_Node000005_Node000011"><a xlink:title=" ">
<path fill="none" stroke="#63b8ff" d="M708.85,-335.66C718.62,-335.72 728.7,-335.78 738.47,-335.84"/>
<polygon fill="#63b8ff" stroke="#63b8ff" points="738.23,-339.34 748.25,-335.9 738.27,-332.34 738.23,-339.34"/>
</a>
</g>
</g>
<!-- Node7 -->
<g id="Node000007" class="node">
<title>Node7</title>
<g id="a_Node000007"><a xlink:href="a02358.html#aebf9e72bb6cbd8b9e33489d46c25075d" target="_top" xlink:title=" ">
<polygon fill="white" stroke="#666666" points="1027.75,-188.5 911.25,-188.5 911.25,-170 1027.75,-170 1027.75,-188.5"/>
<text text-anchor="middle" x="969.5" y="-175" font-family="Helvetica,sans-Serif" font-size="10.00">async_completion_wait</text>
</a>
</g>
</g>
<!-- Node6&#45;&gt;Node7 -->
<g id="edge6_Node000006_Node000007" class="edge">
<title>Node6&#45;&gt;Node7</title>
<g id="a_edge6_Node000006_Node000007"><a xlink:title=" ">
<path fill="none" stroke="#63b8ff" d="M859.16,-179.92C872.14,-179.84 886.19,-179.75 899.76,-179.67"/>
<polygon fill="#63b8ff" stroke="#63b8ff" points="899.51,-183.17 909.49,-179.61 899.47,-176.17 899.51,-183.17"/>
</a>
</g>
</g>
<!-- Node9 -->
<g id="Node000009" class="node">
<title>Node9</title>
<g id="a_Node000009"><a xlink:href="a02358.html#ad1d30ecbf6bff6457b680aa940281072" target="_top" xlink:title=" ">
<polygon fill="white" stroke="#666666" points="1039,-151.5 900,-151.5 900,-133 1039,-133 1039,-151.5"/>
<text text-anchor="middle" x="969.5" y="-138" font-family="Helvetica,sans-Serif" font-size="10.00">async_completion_complete</text>
</a>
</g>
</g>
<!-- Node8&#45;&gt;Node9 -->
<g id="edge8_Node000008_Node000009" class="edge">
<title>Node8&#45;&gt;Node9</title>
<g id="a_edge8_Node000008_Node000009"><a xlink:title=" ">
<path fill="none" stroke="#63b8ff" d="M864.19,-142.25C872.01,-142.25 880.13,-142.25 888.24,-142.25"/>
<polygon fill="#63b8ff" stroke="#63b8ff" points="888.14,-145.75 898.14,-142.25 888.14,-138.75 888.14,-145.75"/>
</a>
</g>
</g>
<!-- Node13 -->
<g id="Node000013" class="node">
<title>Node13</title>
<g id="a_Node000013"><a xlink:href="a01943.html#afe1eb3edd264c847c36e9456b2598452" target="_top" xlink:title=" ">
<polygon fill="white" stroke="#666666" points="854.25,-384.5 754.25,-384.5 754.25,-366 854.25,-366 854.25,-384.5"/>
<text text-anchor="middle" x="804.25" y="-371" font-family="Helvetica,sans-Serif" font-size="10.00">arax_vaccel_queue</text>
</a>
</g>
</g>
<!-- Node12&#45;&gt;Node13 -->
<g id="edge12_Node000012_Node000013" class="edge">
<title>Node12&#45;&gt;Node13</title>
<g id="a_edge12_Node000012_Node000013"><a xlink:title=" ">
<path fill="none" stroke="#63b8ff" d="M704.74,-376.49C717.18,-376.33 730.27,-376.17 742.71,-376.01"/>
<polygon fill="#63b8ff" stroke="#63b8ff" points="742.44,-379.51 752.4,-375.89 742.35,-372.52 742.44,-379.51"/>
</a>
</g>
</g>
<!-- Node14 -->
<g id="Node000014" class="node">
<title>Node14</title>
<g id="a_Node000014"><a xlink:href="a01958.html#a5d84d59bded666fdcf1a8e949cb56a6a" target="_top" xlink:title=" ">
<polygon fill="white" stroke="#666666" points="863.25,-421.5 745.25,-421.5 745.25,-403 863.25,-403 863.25,-421.5"/>
<text text-anchor="middle" x="804.25" y="-408" font-family="Helvetica,sans-Serif" font-size="10.00">utils_queue_used_slots</text>
</a>
</g>
</g>
<!-- Node12&#45;&gt;Node14 -->
<g id="edge13_Node000012_Node000014" class="edge">
<title>Node12&#45;&gt;Node14</title>
<g id="a_edge13_Node000012_Node000014"><a xlink:title=" ">
<path fill="none" stroke="#63b8ff" d="M688.45,-387C706.9,-391.06 728.52,-395.81 747.99,-400.09"/>
<polygon fill="#63b8ff" stroke="#63b8ff" points="747.17,-403.5 757.68,-402.23 748.67,-396.66 747.17,-403.5"/>
</a>
</g>
</g>
<!-- Node16 -->
<g id="Node000016" class="node">
<title>Node16</title>
<g id="a_Node000016"><a xlink:href="a02358.html#a0fa370eee5160963e617d1daf1c07363" target="_top" xlink:title=" ">
<polygon fill="white" stroke="#666666" points="860.62,-264.5 747.88,-264.5 747.88,-246 860.62,-246 860.62,-264.5"/>
<text text-anchor="middle" x="804.25" y="-251" font-family="Helvetica,sans-Serif" font-size="10.00">async_semaphore_inc</text>
</a>
</g>
</g>
<!-- Node15&#45;&gt;Node16 -->
<g id="edge16_Node000015_Node000016" class="edge">
<title>Node15&#45;&gt;Node16</title>
<g id="a_edge16_Node000015_Node000016"><a xlink:title=" ">
<path fill="none" stroke="#63b8ff" d="M701.12,-255.25C712.43,-255.25 724.39,-255.25 736,-255.25"/>
<polygon fill="#63b8ff" stroke="#63b8ff" points="735.94,-258.75 745.94,-255.25 735.94,-251.75 735.94,-258.75"/>
</a>
</g>
</g>
<!-- Node18 -->
<g id="Node000018" class="node">
<title>Node18</title>
<g id="a_Node000018"><a xlink:href="a01955.html#a5c575f52a42e0e0d2fb41bda2d1268ce" target="_top" xlink:title=" ">
<polygon fill="white" stroke="#666666" points="853.88,-59.5 754.62,-59.5 754.62,-41 853.88,-41 853.88,-59.5"/>
<text text-anchor="middle" x="804.25" y="-46" font-family="Helvetica,sans-Serif" font-size="10.00">utils_list_node_add</text>
</a>
</g>
</g>
<!-- Node17&#45;&gt;Node18 -->
<g id="edge19_Node000017_Node000018" class="edge">
<title>Node17&#45;&gt;Node18</title>
<g id="a_edge19_Node000017_Node000018"><a xlink:title=" ">
<path fill="none" stroke="#63b8ff" d="M679.84,-50.25C698.48,-50.25 721.79,-50.25 743.12,-50.25"/>
<polygon fill="#63b8ff" stroke="#63b8ff" points="742.87,-53.75 752.87,-50.25 742.87,-46.75 742.87,-53.75"/>
</a>
</g>
</g>
<!-- Node19&#45;&gt;Node17 -->
<g id="edge32_Node000019_Node000017" class="edge">
<title>Node19&#45;&gt;Node17</title>
<g id="a_edge32_Node000019_Node000017"><a xlink:title=" ">
<path fill="none" stroke="#63b8ff" d="M377.58,-73.59C392.09,-70.49 408.58,-67.33 423.75,-65.25 482.51,-57.21 550.78,-53.4 595.13,-51.65"/>
<polygon fill="#63b8ff" stroke="#63b8ff" points="595.04,-55.15 604.91,-51.28 594.78,-48.16 595.04,-55.15"/>
</a>
</g>
</g>
<!-- Node20 -->
<g id="Node000020" class="node">
<title>Node20</title>
<g id="a_Node000020"><a xlink:href="a01928.html#a6cc54ee40009c61b5f6526f5edff004f" target="_top" xlink:title=" ">
<polygon fill="white" stroke="#666666" points="533.88,-129.5 431.62,-129.5 431.62,-111 533.88,-111 533.88,-129.5"/>
<text text-anchor="middle" x="482.75" y="-116" font-family="Helvetica,sans-Serif" font-size="10.00">arax_pipe_size_dec</text>
</a>
</g>
</g>
<!-- Node19&#45;&gt;Node20 -->
<g id="edge21_Node000019_Node000020" class="edge">
<title>Node19&#45;&gt;Node20</title>
<g id="a_edge21_Node000019_Node000020"><a xlink:title=" ">
<path fill="none" stroke="#63b8ff" d="M374.66,-92.97C392.36,-97.48 413.6,-102.89 432.49,-107.7"/>
<polygon fill="#63b8ff" stroke="#63b8ff" points="431.57,-111.08 442.12,-110.16 433.3,-104.3 431.57,-111.08"/>
</a>
</g>
</g>
<!-- Node24 -->
<g id="Node000024" class="node">
<title>Node24</title>
<g id="a_Node000024"><a xlink:href="a02355.html#ac9828b5c2758940f6d3c7d4335228de5" target="_top" xlink:title=" ">
<polygon fill="white" stroke="#666666" points="532.38,-92.5 433.12,-92.5 433.12,-74 532.38,-74 532.38,-92.5"/>
<text text-anchor="middle" x="482.75" y="-79" font-family="Helvetica,sans-Serif" font-size="10.00">arch_alloc_allocate</text>
</a>
</g>
</g>
<!-- Node19&#45;&gt;Node24 -->
<g id="edge31_Node000019_Node000024" class="edge">
<title>Node19&#45;&gt;Node24</title>
<g id="a_edge31_Node000019_Node000024"><a xlink:title=" ">
<path fill="none" stroke="#63b8ff" d="M388.12,-83.25C398.89,-83.25 410.34,-83.25 421.39,-83.25"/>
<polygon fill="#63b8ff" stroke="#63b8ff" points="421.22,-86.75 431.22,-83.25 421.22,-79.75 421.22,-86.75"/>
</a>
</g>
</g>
<!-- Node19&#45;&gt;Node25 -->
<g id="edge33_Node000019_Node000025" class="edge">
<title>Node19&#45;&gt;Node25</title>
<g id="a_edge33_Node000019_Node000025"><a xlink:title=" ">
<path fill="none" stroke="#63b8ff" d="M361.35,-73.52C369.94,-69.79 379.48,-65.23 387.75,-60.25 405.12,-49.8 406.15,-42.31 423.75,-32.25 429.53,-28.94 435.89,-25.9 442.2,-23.18"/>
<polygon fill="#63b8ff" stroke="#63b8ff" points="443.33,-26.5 451.28,-19.49 440.7,-20.01 443.33,-26.5"/>
</a>
</g>
</g>
<!-- Node20&#45;&gt;Node20 -->
<g id="edge22_Node000020_Node000020" class="edge">
<title>Node20&#45;&gt;Node20</title>
<g id="a_edge22_Node000020_Node000020"><a xlink:title=" ">
<path fill="none" stroke="#63b8ff" d="M460.05,-129.75C449.01,-138.32 456.58,-147.5 482.75,-147.5 497.47,-147.5 506.31,-144.59 509.25,-140.53"/>
<polygon fill="#63b8ff" stroke="#63b8ff" points="512.58,-139.44 505.95,-131.17 505.98,-141.77 512.58,-139.44"/>
</a>
</g>
</g>
<!-- Node21 -->
<g id="Node000021" class="node">
<title>Node21</title>
<g id="a_Node000021"><a xlink:href="a01940.html#a63b80783cfb3106ec4169ce082f153c0" target="_top" xlink:title=" ">
<polygon fill="white" stroke="#666666" points="700.25,-96.5 586,-96.5 586,-78 700.25,-78 700.25,-96.5"/>
<text text-anchor="middle" x="643.12" y="-83" font-family="Helvetica,sans-Serif" font-size="10.00">arax_throttle_size_dec</text>
</a>
</g>
</g>
<!-- Node20&#45;&gt;Node21 -->
<g id="edge23_Node000020_Node000021" class="edge">
<title>Node20&#45;&gt;Node21</title>
<g id="a_edge23_Node000020_Node000021"><a xlink:title=" ">
<path fill="none" stroke="#63b8ff" d="M530.41,-110.53C547.33,-107 566.65,-102.98 584.41,-99.28"/>
<polygon fill="#63b8ff" stroke="#63b8ff" points="584.97,-102.74 594.04,-97.27 583.54,-95.88 584.97,-102.74"/>
</a>
</g>
</g>
<!-- Node21&#45;&gt;Node6 -->
<g id="edge25_Node000021_Node000006" class="edge">
<title>Node21&#45;&gt;Node6</title>
<g id="a_edge25_Node000021_Node000006"><a xlink:title=" ">
<path fill="none" stroke="#63b8ff" d="M655.13,-96.99C672.85,-112.27 709.3,-142 744.5,-160.25 748.92,-162.54 753.67,-164.66 758.47,-166.59"/>
<polygon fill="#63b8ff" stroke="#63b8ff" points="756.97,-169.77 767.56,-169.99 759.41,-163.21 756.97,-169.77"/>
</a>
</g>
</g>
<!-- Node21&#45;&gt;Node8 -->
<g id="edge26_Node000021_Node000008" class="edge">
<title>Node21&#45;&gt;Node8</title>
<g id="a_edge26_Node000021_Node000008"><a xlink:title=" ">
<path fill="none" stroke="#63b8ff" d="M670.46,-96.95C690.66,-104.33 719.27,-114.65 744.5,-123.25 750.21,-125.2 756.24,-127.2 762.19,-129.15"/>
<polygon fill="#63b8ff" stroke="#63b8ff" points="760.67,-132.34 771.26,-132.1 762.83,-125.68 760.67,-132.34"/>
</a>
</g>
</g>
<!-- Node21&#45;&gt;Node21 -->
<g id="edge24_Node000021_Node000021" class="edge">
<title>Node21&#45;&gt;Node21</title>
<g id="a_edge24_Node000021_Node000021"><a xlink:title=" ">
<path fill="none" stroke="#63b8ff" d="M618.41,-96.75C606.38,-105.32 614.62,-114.5 643.12,-114.5 659.6,-114.5 669.31,-111.43 672.24,-107.19"/>
<polygon fill="#63b8ff" stroke="#63b8ff" points="675.54,-106 668.43,-98.14 669.09,-108.71 675.54,-106"/>
</a>
</g>
</g>
<!-- Node22 -->
<g id="Node000022" class="node">
<title>Node22</title>
<g id="a_Node000022"><a xlink:href="a02364.html#a1bfeaeb9b81855e640d7a67cc9d92b17" target="_top" xlink:title=" ">
<polygon fill="white" stroke="#666666" points="858.38,-114.5 750.12,-114.5 750.12,-96 858.38,-96 858.38,-114.5"/>
<text text-anchor="middle" x="804.25" y="-101" font-family="Helvetica,sans-Serif" font-size="10.00">async_condition_wait</text>
</a>
</g>
</g>
<!-- Node21&#45;&gt;Node22 -->
<g id="edge27_Node000021_Node000022" class="edge">
<title>Node21&#45;&gt;Node22</title>
<g id="a_edge27_Node000021_Node000022"><a xlink:title=" ">
<path fill="none" stroke="#63b8ff" d="M700.67,-93.65C712.92,-95.03 725.95,-96.51 738.49,-97.92"/>
<polygon fill="#63b8ff" stroke="#63b8ff" points="737.98,-101.39 748.31,-99.04 738.77,-94.43 737.98,-101.39"/>
</a>
</g>
</g>
<!-- Node22&#45;&gt;Node7 -->
<g id="edge29_Node000022_Node000007" class="edge">
<title>Node22&#45;&gt;Node7</title>
<g id="a_edge29_Node000022_Node000007"><a xlink:title=" ">
<path fill="none" stroke="#63b8ff" d="M844.02,-114.9C850.93,-117.41 857.87,-120.5 864,-124.25 883.3,-136.06 880.45,-148.85 900,-160.25 903.35,-162.21 906.92,-163.97 910.59,-165.55"/>
<polygon fill="#63b8ff" stroke="#63b8ff" points="909.13,-168.74 919.72,-169.03 911.62,-162.2 909.13,-168.74"/>
</a>
</g>
</g>
<!-- Node22&#45;&gt;Node9 -->
<g id="edge28_Node000022_Node000009" class="edge">
<title>Node22&#45;&gt;Node9</title>
<g id="a_edge28_Node000022_Node000009"><a xlink:title=" ">
<path fill="none" stroke="#63b8ff" d="M848.14,-114.97C868.49,-119.58 893.03,-125.15 914.62,-130.04"/>
<polygon fill="#63b8ff" stroke="#63b8ff" points="913.61,-133.4 924.14,-132.19 915.16,-126.57 913.61,-133.4"/>
</a>
</g>
</g>
<!-- Node23 -->
<g id="Node000023" class="node">
<title>Node23</title>
<g id="a_Node000023"><a xlink:href="a02358.html#a7ab7c7fe9cb93434dde72a4e464a7e69" target="_top" xlink:title=" ">
<polygon fill="white" stroke="#666666" points="1027.38,-114.5 911.62,-114.5 911.62,-96 1027.38,-96 1027.38,-114.5"/>
<text text-anchor="middle" x="969.5" y="-101" font-family="Helvetica,sans-Serif" font-size="10.00">async_semaphore_dec</text>
</a>
</g>
</g>
<!-- Node22&#45;&gt;Node23 -->
<g id="edge30_Node000022_Node000023" class="edge">
<title>Node22&#45;&gt;Node23</title>
<g id="a_edge30_Node000022_Node000023"><a xlink:title=" ">
<path fill="none" stroke="#63b8ff" d="M858.7,-105.25C871.85,-105.25 886.11,-105.25 899.87,-105.25"/>
<polygon fill="#63b8ff" stroke="#63b8ff" points="899.76,-108.75 909.76,-105.25 899.76,-101.75 899.76,-108.75"/>
</a>
</g>
</g>
<!-- Node26&#45;&gt;Node6 -->
<g id="edge35_Node000026_Node000006" class="edge">
<title>Node26&#45;&gt;Node6</title>
<g id="a_edge35_Node000026_Node000006"><a xlink:title=" ">
<path fill="none" stroke="#63b8ff" d="M540.5,-180.25C595.89,-180.25 680.09,-180.25 738.17,-180.25"/>
<polygon fill="#63b8ff" stroke="#63b8ff" points="737.91,-183.75 747.91,-180.25 737.91,-176.75 737.91,-183.75"/>
</a>
</g>
</g>
<!-- Node26&#45;&gt;Node8 -->
<g id="edge37_Node000026_Node000008" class="edge">
<title>Node26&#45;&gt;Node8</title>
<g id="a_edge37_Node000026_Node000008"><a xlink:title=" ">
<path fill="none" stroke="#63b8ff" d="M540.5,-173.5C594.21,-167.11 675.01,-157.5 732.81,-150.63"/>
<polygon fill="#63b8ff" stroke="#63b8ff" points="733.03,-154.13 742.55,-149.47 732.2,-147.18 733.03,-154.13"/>
</a>
</g>
</g>
<!-- Node26&#45;&gt;Node15 -->
<g id="edge36_Node000026_Node000015" class="edge">
<title>Node26&#45;&gt;Node15</title>
<g id="a_edge36_Node000026_Node000015"><a xlink:title=" ">
<path fill="none" stroke="#63b8ff" d="M515.42,-195.25C543.31,-208.46 583.68,-227.57 611.32,-240.66"/>
<polygon fill="#63b8ff" stroke="#63b8ff" points="609.68,-243.76 620.22,-244.88 612.68,-237.43 609.68,-243.76"/>
</a>
</g>
</g>
<!-- Node26&#45;&gt;Node17 -->
<g id="edge38_Node000026_Node000017" class="edge">
<title>Node26&#45;&gt;Node17</title>
<g id="a_edge38_Node000026_Node000017"><a xlink:title=" ">
<path fill="none" stroke="#63b8ff" d="M529.94,-165.28C534.24,-162.71 538.28,-159.72 541.75,-156.25 571.34,-126.66 546.64,-97.24 577.75,-69.25 582.92,-64.6 589.19,-61.08 595.75,-58.42"/>
<polygon fill="#63b8ff" stroke="#63b8ff" points="596.39,-61.9 604.76,-55.4 594.16,-55.26 596.39,-61.9"/>
</a>
</g>
</g>
</g>
</svg>
