<?xml version="1.0" encoding="UTF-8" standalone="no"?>
<!DOCTYPE svg PUBLIC "-//W3C//DTD SVG 1.1//EN"
 "http://www.w3.org/Graphics/SVG/1.1/DTD/svg11.dtd">
<!-- Generated by graphviz version 11.0.0 (0)
 -->
<!-- Title: arax_accel_acquire_type Pages: 1 -->
<svg width="1047pt" height="414pt"
 viewBox="0.00 0.00 1047.00 413.50" xmlns="http://www.w3.org/2000/svg" xmlns:xlink="http://www.w3.org/1999/xlink">
<g id="graph0" class="graph" transform="scale(1 1) rotate(0) translate(4 409.5)">
<title>arax_accel_acquire_type</title>
<!-- Node1 -->
<g id="Node000001" class="node">
<title>Node1</title>
<g id="a_Node000001"><a xlink:title=" ">
<polygon fill="#999999" stroke="#666666" points="124.75,-92.5 0,-92.5 0,-74 124.75,-74 124.75,-92.5"/>
<text text-anchor="middle" x="62.38" y="-79" font-family="Helvetica,sans-Serif" font-size="10.00">arax_accel_acquire_type</text>
</a>
</g>
</g>
<!-- Node2 -->
<g id="Node000002" class="node">
<title>Node2</title>
<g id="a_Node000002"><a xlink:href="a01946.html#a83ddb422946cf774c687c1ab63dcda15" target="_top" xlink:title=" ">
<polygon fill="white" stroke="#666666" points="247.25,-92.5 160.75,-92.5 160.75,-74 247.25,-74 247.25,-92.5"/>
<text text-anchor="middle" x="204" y="-79" font-family="Helvetica,sans-Serif" font-size="10.00">arax_vaccel_init</text>
</a>
</g>
</g>
<!-- Node1&#45;&gt;Node2 -->
<g id="edge1_Node000001_Node000002" class="edge">
<title>Node1&#45;&gt;Node2</title>
<g id="a_edge1_Node000001_Node000002"><a xlink:title=" ">
<path fill="none" stroke="#63b8ff" d="M125.02,-83.25C133.07,-83.25 141.27,-83.25 149.18,-83.25"/>
<polygon fill="#63b8ff" stroke="#63b8ff" points="148.99,-86.75 158.99,-83.25 148.99,-79.75 148.99,-86.75"/>
</a>
</g>
</g>
<!-- Node3 -->
<g id="Node000003" class="node">
<title>Node3</title>
<g id="a_Node000003"><a xlink:href="a01919.html#af0b933c02a24d69c1efa40179f60288f" target="_top" xlink:title=" ">
<polygon fill="white" stroke="#666666" points="541.75,-264.5 423.75,-264.5 423.75,-246 541.75,-246 541.75,-264.5"/>
<text text-anchor="middle" x="482.75" y="-251" font-family="Helvetica,sans-Serif" font-size="10.00">arax_accel_add_vaccel</text>
</a>
</g>
</g>
<!-- Node2&#45;&gt;Node3 -->
<g id="edge2_Node000002_Node000003" class="edge">
<title>Node2&#45;&gt;Node3</title>
<g id="a_edge2_Node000002_Node000003"><a xlink:title=" ">
<path fill="none" stroke="#63b8ff" d="M219.63,-92.97C235.28,-103.33 260.89,-120.15 283.25,-134.25 344.57,-172.91 417.56,-216.89 455.66,-239.69"/>
<polygon fill="#63b8ff" stroke="#63b8ff" points="453.76,-242.63 464.14,-244.76 457.35,-236.62 453.76,-242.63"/>
</a>
</g>
</g>
<!-- Node19 -->
<g id="Node000019" class="node">
<title>Node19</title>
<g id="a_Node000019"><a xlink:href="a01928.html#a402bbd6fa197c2c48d527325e5e2cf5b" target="_top" xlink:title=" ">
<polygon fill="white" stroke="#666666" points="387.75,-92.5 283.25,-92.5 283.25,-74 387.75,-74 387.75,-92.5"/>
<text text-anchor="middle" x="335.5" y="-79" font-family="Helvetica,sans-Serif" font-size="10.00">arax_object_register</text>
</a>
</g>
</g>
<!-- Node2&#45;&gt;Node19 -->
<g id="edge20_Node000002_Node000019" class="edge">
<title>Node2&#45;&gt;Node19</title>
<g id="a_edge20_Node000002_Node000019"><a xlink:title=" ">
<path fill="none" stroke="#63b8ff" d="M247.4,-83.25C255.12,-83.25 263.33,-83.25 271.5,-83.25"/>
<polygon fill="#63b8ff" stroke="#63b8ff" points="271.45,-86.75 281.45,-83.25 271.45,-79.75 271.45,-86.75"/>
</a>
</g>
</g>
<!-- Node25 -->
<g id="Node000025" class="node">
<title>Node25</title>
<g id="a_Node000025"><a xlink:href="a01958.html#a63f2791c9b5c8e2fa15967cfafb7ccbb" target="_top" xlink:title=" ">
<polygon fill="white" stroke="#666666" points="530.88,-18.5 434.62,-18.5 434.62,0 530.88,0 530.88,-18.5"/>
<text text-anchor="middle" x="482.75" y="-5" font-family="Helvetica,sans-Serif" font-size="10.00">utils_list_node_init</text>
</a>
</g>
</g>
<!-- Node2&#45;&gt;Node25 -->
<g id="edge37_Node000002_Node000025" class="edge">
<title>Node2&#45;&gt;Node25</title>
<g id="a_edge37_Node000002_Node000025"><a xlink:title=" ">
<path fill="none" stroke="#63b8ff" d="M241.18,-73.58C290.8,-60.31 380.03,-36.45 434.76,-21.81"/>
<polygon fill="#63b8ff" stroke="#63b8ff" points="435.34,-25.28 444.1,-19.32 433.53,-18.52 435.34,-25.28"/>
</a>
</g>
</g>
<!-- Node26 -->
<g id="Node000026" class="node">
<title>Node26</title>
<g id="a_Node000026"><a xlink:href="a01931.html#aa4461ab1d225a0f76f08d2f37a4a7e0e" target="_top" xlink:title=" ">
<polygon fill="white" stroke="#666666" points="540.25,-176.75 425.25,-176.75 425.25,-147.75 540.25,-147.75 540.25,-176.75"/>
<text text-anchor="start" x="433.25" y="-163.25" font-family="Helvetica,sans-Serif" font-size="10.00">arax_pipe_add_orphan</text>
<text text-anchor="middle" x="482.75" y="-152.75" font-family="Helvetica,sans-Serif" font-size="10.00">_vaccel</text>
</a>
</g>
</g>
<!-- Node2&#45;&gt;Node26 -->
<g id="edge32_Node000002_Node000026" class="edge">
<title>Node2&#45;&gt;Node26</title>
<g id="a_edge32_Node000002_Node000026"><a xlink:title=" ">
<path fill="none" stroke="#63b8ff" d="M238.93,-92.94C283.52,-105.66 362.69,-128.26 418.49,-144.19"/>
<polygon fill="#63b8ff" stroke="#63b8ff" points="417.29,-147.49 427.86,-146.87 419.21,-140.76 417.29,-147.49"/>
</a>
</g>
</g>
<!-- Node27 -->
<g id="Node000027" class="node">
<title>Node27</title>
<g id="a_Node000027"><a xlink:href="a01961.html#a49c353188156b1df4463a5fc7f7bc25e" target="_top" xlink:title=" ">
<polygon fill="white" stroke="#666666" points="377.25,-18.5 293.75,-18.5 293.75,0 377.25,0 377.25,-18.5"/>
<text text-anchor="middle" x="335.5" y="-5" font-family="Helvetica,sans-Serif" font-size="10.00">utils_queue_init</text>
</a>
</g>
</g>
<!-- Node2&#45;&gt;Node27 -->
<g id="edge38_Node000002_Node000027" class="edge">
<title>Node2&#45;&gt;Node27</title>
<g id="a_edge38_Node000002_Node000027"><a xlink:title=" ">
<path fill="none" stroke="#63b8ff" d="M218.45,-73.55C233.74,-62.76 259.62,-45.15 283.25,-32.25 288.76,-29.24 294.74,-26.29 300.61,-23.56"/>
<polygon fill="#63b8ff" stroke="#63b8ff" points="301.85,-26.84 309.53,-19.54 298.98,-20.46 301.85,-26.84"/>
</a>
</g>
</g>
<!-- Node4 -->
<g id="Node000004" class="node">
<title>Node4</title>
<g id="a_Node000004"><a xlink:href="a01919.html#aed864d2fab73a39a8c98356f7bca1304" target="_top" xlink:title=" ">
<polygon fill="white" stroke="#666666" points="703.62,-405.5 582.62,-405.5 582.62,-387 703.62,-387 703.62,-405.5"/>
<text text-anchor="middle" x="643.12" y="-392" font-family="Helvetica,sans-Serif" font-size="10.00">arax_accel_inc_revision</text>
</a>
</g>
</g>
<!-- Node3&#45;&gt;Node4 -->
<g id="edge3_Node000003_Node000004" class="edge">
<title>Node3&#45;&gt;Node4</title>
<g id="a_edge3_Node000003_Node000004"><a xlink:title=" ">
<path fill="none" stroke="#63b8ff" d="M488.41,-264.83C500.1,-287.83 532.97,-346.57 577.75,-377.25 580.28,-378.98 582.96,-380.56 585.75,-381.99"/>
<polygon fill="#63b8ff" stroke="#63b8ff" points="584.23,-385.14 594.79,-385.98 587.05,-378.74 584.23,-385.14"/>
</a>
</g>
</g>
<!-- Node5 -->
<g id="Node000005" class="node">
<title>Node5</title>
<g id="a_Node000005"><a xlink:href="a01931.html#aa5172b735dddd3f77fbb0265bbcdfc20" target="_top" xlink:title=" ">
<polygon fill="white" stroke="#666666" points="708.5,-331.75 577.75,-331.75 577.75,-302.75 708.5,-302.75 708.5,-331.75"/>
<text text-anchor="start" x="585.75" y="-318.25" font-family="Helvetica,sans-Serif" font-size="10.00">arax_pipe_remove_orphan</text>
<text text-anchor="middle" x="643.12" y="-307.75" font-family="Helvetica,sans-Serif" font-size="10.00">_vaccel</text>
</a>
</g>
</g>
<!-- Node3&#45;&gt;Node5 -->
<g id="edge4_Node000003_Node000005" class="edge">
<title>Node3&#45;&gt;Node5</title>
<g id="a_edge4_Node000003_Node000005"><a xlink:title=" ">
<path fill="none" stroke="#63b8ff" d="M508.5,-264.94C531.18,-273.82 565.4,-287.22 593.54,-298.23"/>
<polygon fill="#63b8ff" stroke="#63b8ff" points="591.99,-301.38 602.58,-301.77 594.54,-294.86 591.99,-301.38"/>
</a>
</g>
</g>
<!-- Node6 -->
<g id="Node000006" class="node">
<title>Node6</title>
<g id="a_Node000006"><a xlink:href="a02367.html#aed6af4d83e934e3e654ead541b15f2d9" target="_top" xlink:title=" ">
<polygon fill="white" stroke="#666666" points="858.75,-171.5 749.75,-171.5 749.75,-153 858.75,-153 858.75,-171.5"/>
<text text-anchor="middle" x="804.25" y="-158" font-family="Helvetica,sans-Serif" font-size="10.00">async_condition_lock</text>
</a>
</g>
</g>
<!-- Node3&#45;&gt;Node6 -->
<g id="edge14_Node000003_Node000006" class="edge">
<title>Node3&#45;&gt;Node6</title>
<g id="a_edge14_Node000003_Node000006"><a xlink:title=" ">
<path fill="none" stroke="#63b8ff" d="M528.35,-264.96C575.15,-272.97 649.92,-279.51 708.5,-255.25 729.41,-246.59 728.38,-235.13 744.5,-219.25 758.05,-205.9 773.5,-190.92 785.15,-179.67"/>
<polygon fill="#63b8ff" stroke="#63b8ff" points="787.37,-182.4 792.14,-172.94 782.51,-177.36 787.37,-182.4"/>
</a>
</g>
</g>
<!-- Node8 -->
<g id="Node000008" class="node">
<title>Node8</title>
<g id="a_Node000008"><a xlink:href="a02367.html#a3bbcb7c4c024e99d5c4ba52b61dfbbf7" target="_top" xlink:title=" ">
<polygon fill="white" stroke="#666666" points="864,-134.5 744.5,-134.5 744.5,-116 864,-116 864,-134.5"/>
<text text-anchor="middle" x="804.25" y="-121" font-family="Helvetica,sans-Serif" font-size="10.00">async_condition_unlock</text>
</a>
</g>
</g>
<!-- Node3&#45;&gt;Node8 -->
<g id="edge17_Node000003_Node000008" class="edge">
<title>Node3&#45;&gt;Node8</title>
<g id="a_edge17_Node000003_Node000008"><a xlink:title=" ">
<path fill="none" stroke="#63b8ff" d="M505.84,-245.55C559.82,-221.87 697.49,-161.82 744.5,-144.25 749.63,-142.33 755.05,-140.43 760.44,-138.6"/>
<polygon fill="#63b8ff" stroke="#63b8ff" points="761.53,-141.93 769.92,-135.46 759.33,-135.28 761.53,-141.93"/>
</a>
</g>
</g>
<!-- Node12 -->
<g id="Node000012" class="node">
<title>Node12</title>
<g id="a_Node000012"><a xlink:href="a01946.html#ab2fa3d6e6c761009b464cc0fbedc6a16" target="_top" xlink:title=" ">
<polygon fill="white" stroke="#666666" points="704.38,-368.5 581.88,-368.5 581.88,-350 704.38,-350 704.38,-368.5"/>
<text text-anchor="middle" x="643.12" y="-355" font-family="Helvetica,sans-Serif" font-size="10.00">arax_vaccel_queue_size</text>
</a>
</g>
</g>
<!-- Node3&#45;&gt;Node12 -->
<g id="edge11_Node000003_Node000012" class="edge">
<title>Node3&#45;&gt;Node12</title>
<g id="a_edge11_Node000003_Node000012"><a xlink:title=" ">
<path fill="none" stroke="#63b8ff" d="M491.48,-264.82C506.31,-282.57 540.62,-320.64 577.75,-341.25 580.56,-342.81 583.51,-344.24 586.54,-345.55"/>
<polygon fill="#63b8ff" stroke="#63b8ff" points="585.06,-348.74 595.65,-349.04 587.56,-342.2 585.06,-348.74"/>
</a>
</g>
</g>
<!-- Node15 -->
<g id="Node000015" class="node">
<title>Node15</title>
<g id="a_Node000015"><a xlink:href="a02367.html#a45a896fb606c2aa66a5a4c2af59ce494" target="_top" xlink:title=" ">
<polygon fill="white" stroke="#666666" points="700.62,-246.5 585.62,-246.5 585.62,-228 700.62,-228 700.62,-246.5"/>
<text text-anchor="middle" x="643.12" y="-233" font-family="Helvetica,sans-Serif" font-size="10.00">async_condition_notify</text>
</a>
</g>
</g>
<!-- Node3&#45;&gt;Node15 -->
<g id="edge15_Node000003_Node000015" class="edge">
<title>Node3&#45;&gt;Node15</title>
<g id="a_edge15_Node000003_Node000015"><a xlink:title=" ">
<path fill="none" stroke="#63b8ff" d="M541.82,-248.65C552.37,-247.45 563.46,-246.19 574.26,-244.96"/>
<polygon fill="#63b8ff" stroke="#63b8ff" points="574.33,-248.48 583.88,-243.87 573.54,-241.52 574.33,-248.48"/>
</a>
</g>
</g>
<!-- Node17 -->
<g id="Node000017" class="node">
<title>Node17</title>
<g id="a_Node000017"><a xlink:href="a01958.html#ae06a9e78e6a4f6c9c8afcf0f4862ce29" target="_top" xlink:title=" ">
<polygon fill="white" stroke="#666666" points="679.62,-59.5 606.62,-59.5 606.62,-41 679.62,-41 679.62,-59.5"/>
<text text-anchor="middle" x="643.12" y="-46" font-family="Helvetica,sans-Serif" font-size="10.00">utils_list_add</text>
</a>
</g>
</g>
<!-- Node3&#45;&gt;Node17 -->
<g id="edge18_Node000003_Node000017" class="edge">
<title>Node3&#45;&gt;Node17</title>
<g id="a_edge18_Node000003_Node000017"><a xlink:title=" ">
<path fill="none" stroke="#63b8ff" d="M493.78,-245.91C506.61,-233.45 528.73,-210.16 541.75,-186.25 567.77,-138.47 539.06,-107.5 577.75,-69.25 582.81,-64.25 589.11,-60.55 595.78,-57.83"/>
<polygon fill="#63b8ff" stroke="#63b8ff" points="596.62,-61.24 605,-54.76 594.41,-54.59 596.62,-61.24"/>
</a>
</g>
</g>
<!-- Node5&#45;&gt;Node6 -->
<g id="edge5_Node000005_Node000006" class="edge">
<title>Node5&#45;&gt;Node6</title>
<g id="a_edge5_Node000005_Node000006"><a xlink:title=" ">
<path fill="none" stroke="#63b8ff" d="M687.81,-302.39C695.27,-298.56 702.53,-293.89 708.5,-288.25 733.65,-264.51 723.82,-246.98 744.5,-219.25 755.6,-204.36 770.68,-189.82 782.78,-179.15"/>
<polygon fill="#63b8ff" stroke="#63b8ff" points="784.88,-181.96 790.19,-172.79 780.32,-176.65 784.88,-181.96"/>
</a>
</g>
</g>
<!-- Node5&#45;&gt;Node8 -->
<g id="edge7_Node000005_Node000008" class="edge">
<title>Node5&#45;&gt;Node8</title>
<g id="a_edge7_Node000005_Node000008"><a xlink:title=" ">
<path fill="none" stroke="#63b8ff" d="M664.1,-302.43C678.29,-290.96 696.82,-273.93 708.5,-255.25 736,-211.28 707.81,-180.91 744.5,-144.25 745.68,-143.07 746.94,-141.96 748.26,-140.91"/>
<polygon fill="#63b8ff" stroke="#63b8ff" points="749.81,-144.08 756.43,-135.8 746.1,-138.14 749.81,-144.08"/>
</a>
</g>
</g>
<!-- Node10 -->
<g id="Node000010" class="node">
<title>Node10</title>
<g id="a_Node000010"><a xlink:href="a01958.html#a0c85e5516222ab7e7fc354c614760ec5" target="_top" xlink:title=" ">
<polygon fill="white" stroke="#666666" points="839.25,-290.5 769.25,-290.5 769.25,-272 839.25,-272 839.25,-290.5"/>
<text text-anchor="middle" x="804.25" y="-277" font-family="Helvetica,sans-Serif" font-size="10.00">utils_list_del</text>
</a>
</g>
</g>
<!-- Node5&#45;&gt;Node10 -->
<g id="edge9_Node000005_Node000010" class="edge">
<title>Node5&#45;&gt;Node10</title>
<g id="a_edge9_Node000005_Node000010"><a xlink:title=" ">
<path fill="none" stroke="#63b8ff" d="M708.85,-302.61C725.3,-298.88 742.64,-294.96 757.9,-291.51"/>
<polygon fill="#63b8ff" stroke="#63b8ff" points="758.66,-294.93 767.64,-289.31 757.11,-288.1 758.66,-294.93"/>
</a>
</g>
</g>
<!-- Node11 -->
<g id="Node000011" class="node">
<title>Node11</title>
<g id="a_Node000011"><a xlink:href="a01958.html#ab0c44e095ebfd8721de878c42abcbbdc" target="_top" xlink:title=" ">
<polygon fill="white" stroke="#666666" points="858.38,-327.5 750.12,-327.5 750.12,-309 858.38,-309 858.38,-327.5"/>
<text text-anchor="middle" x="804.25" y="-314" font-family="Helvetica,sans-Serif" font-size="10.00">utils_list_node_linked</text>
</a>
</g>
</g>
<!-- Node5&#45;&gt;Node11 -->
<g id="edge10_Node000005_Node000011" class="edge">
<title>Node5&#45;&gt;Node11</title>
<g id="a_edge10_Node000005_Node000011"><a xlink:title=" ">
<path fill="none" stroke="#63b8ff" d="M708.85,-317.66C718.62,-317.72 728.7,-317.78 738.47,-317.84"/>
<polygon fill="#63b8ff" stroke="#63b8ff" points="738.23,-321.34 748.25,-317.9 738.27,-314.34 738.23,-321.34"/>
</a>
</g>
</g>
<!-- Node7 -->
<g id="Node000007" class="node">
<title>Node7</title>
<g id="a_Node000007"><a xlink:href="a02361.html#aebf9e72bb6cbd8b9e33489d46c25075d" target="_top" xlink:title=" ">
<polygon fill="white" stroke="#666666" points="1027.75,-171.5 911.25,-171.5 911.25,-153 1027.75,-153 1027.75,-171.5"/>
<text text-anchor="middle" x="969.5" y="-158" font-family="Helvetica,sans-Serif" font-size="10.00">async_completion_wait</text>
</a>
</g>
</g>
<!-- Node6&#45;&gt;Node7 -->
<g id="edge6_Node000006_Node000007" class="edge">
<title>Node6&#45;&gt;Node7</title>
<g id="a_edge6_Node000006_Node000007"><a xlink:title=" ">
<path fill="none" stroke="#63b8ff" d="M859.16,-162.25C872.14,-162.25 886.19,-162.25 899.76,-162.25"/>
<polygon fill="#63b8ff" stroke="#63b8ff" points="899.49,-165.75 909.49,-162.25 899.49,-158.75 899.49,-165.75"/>
</a>
</g>
</g>
<!-- Node9 -->
<g id="Node000009" class="node">
<title>Node9</title>
<g id="a_Node000009"><a xlink:href="a02361.html#ad1d30ecbf6bff6457b680aa940281072" target="_top" xlink:title=" ">
<polygon fill="white" stroke="#666666" points="1039,-134.5 900,-134.5 900,-116 1039,-116 1039,-134.5"/>
<text text-anchor="middle" x="969.5" y="-121" font-family="Helvetica,sans-Serif" font-size="10.00">async_completion_complete</text>
</a>
</g>
</g>
<!-- Node8&#45;&gt;Node9 -->
<g id="edge8_Node000008_Node000009" class="edge">
<title>Node8&#45;&gt;Node9</title>
<g id="a_edge8_Node000008_Node000009"><a xlink:title=" ">
<path fill="none" stroke="#63b8ff" d="M864.19,-125.25C872.01,-125.25 880.13,-125.25 888.24,-125.25"/>
<polygon fill="#63b8ff" stroke="#63b8ff" points="888.14,-128.75 898.14,-125.25 888.14,-121.75 888.14,-128.75"/>
</a>
</g>
</g>
<!-- Node13 -->
<g id="Node000013" class="node">
<title>Node13</title>
<g id="a_Node000013"><a xlink:href="a01946.html#afe1eb3edd264c847c36e9456b2598452" target="_top" xlink:title=" ">
<polygon fill="white" stroke="#666666" points="854.25,-366.5 754.25,-366.5 754.25,-348 854.25,-348 854.25,-366.5"/>
<text text-anchor="middle" x="804.25" y="-353" font-family="Helvetica,sans-Serif" font-size="10.00">arax_vaccel_queue</text>
</a>
</g>
</g>
<!-- Node12&#45;&gt;Node13 -->
<g id="edge12_Node000012_Node000013" class="edge">
<title>Node12&#45;&gt;Node13</title>
<g id="a_edge12_Node000012_Node000013"><a xlink:title=" ">
<path fill="none" stroke="#63b8ff" d="M704.74,-358.49C717.18,-358.33 730.27,-358.17 742.71,-358.01"/>
<polygon fill="#63b8ff" stroke="#63b8ff" points="742.44,-361.51 752.4,-357.89 742.35,-354.52 742.44,-361.51"/>
</a>
</g>
</g>
<!-- Node14 -->
<g id="Node000014" class="node">
<title>Node14</title>
<g id="a_Node000014"><a xlink:href="a01961.html#a5d84d59bded666fdcf1a8e949cb56a6a" target="_top" xlink:title=" ">
<polygon fill="white" stroke="#666666" points="863.25,-403.5 745.25,-403.5 745.25,-385 863.25,-385 863.25,-403.5"/>
<text text-anchor="middle" x="804.25" y="-390" font-family="Helvetica,sans-Serif" font-size="10.00">utils_queue_used_slots</text>
</a>
</g>
</g>
<!-- Node12&#45;&gt;Node14 -->
<g id="edge13_Node000012_Node000014" class="edge">
<title>Node12&#45;&gt;Node14</title>
<g id="a_edge13_Node000012_Node000014"><a xlink:title=" ">
<path fill="none" stroke="#63b8ff" d="M688.45,-369C706.9,-373.06 728.52,-377.81 747.99,-382.09"/>
<polygon fill="#63b8ff" stroke="#63b8ff" points="747.17,-385.5 757.68,-384.23 748.67,-378.66 747.17,-385.5"/>
</a>
</g>
</g>
<!-- Node16 -->
<g id="Node000016" class="node">
<title>Node16</title>
<g id="a_Node000016"><a xlink:href="a02361.html#a0fa370eee5160963e617d1daf1c07363" target="_top" xlink:title=" ">
<polygon fill="white" stroke="#666666" points="860.62,-246.5 747.88,-246.5 747.88,-228 860.62,-228 860.62,-246.5"/>
<text text-anchor="middle" x="804.25" y="-233" font-family="Helvetica,sans-Serif" font-size="10.00">async_semaphore_inc</text>
</a>
</g>
</g>
<!-- Node15&#45;&gt;Node16 -->
<g id="edge16_Node000015_Node000016" class="edge">
<title>Node15&#45;&gt;Node16</title>
<g id="a_edge16_Node000015_Node000016"><a xlink:title=" ">
<path fill="none" stroke="#63b8ff" d="M701.12,-237.25C712.43,-237.25 724.39,-237.25 736,-237.25"/>
<polygon fill="#63b8ff" stroke="#63b8ff" points="735.94,-240.75 745.94,-237.25 735.94,-233.75 735.94,-240.75"/>
</a>
</g>
</g>
<!-- Node18 -->
<g id="Node000018" class="node">
<title>Node18</title>
<g id="a_Node000018"><a xlink:href="a01958.html#a5c575f52a42e0e0d2fb41bda2d1268ce" target="_top" xlink:title=" ">
<polygon fill="white" stroke="#666666" points="853.88,-59.5 754.62,-59.5 754.62,-41 853.88,-41 853.88,-59.5"/>
<text text-anchor="middle" x="804.25" y="-46" font-family="Helvetica,sans-Serif" font-size="10.00">utils_list_node_add</text>
</a>
</g>
</g>
<!-- Node17&#45;&gt;Node18 -->
<g id="edge19_Node000017_Node000018" class="edge">
<title>Node17&#45;&gt;Node18</title>
<g id="a_edge19_Node000017_Node000018"><a xlink:title=" ">
<path fill="none" stroke="#63b8ff" d="M679.84,-50.25C698.48,-50.25 721.79,-50.25 743.12,-50.25"/>
<polygon fill="#63b8ff" stroke="#63b8ff" points="742.87,-53.75 752.87,-50.25 742.87,-46.75 742.87,-53.75"/>
</a>
</g>
</g>
<!-- Node19&#45;&gt;Node17 -->
<g id="edge30_Node000019_Node000017" class="edge">
<title>Node19&#45;&gt;Node17</title>
<g id="a_edge30_Node000019_Node000017"><a xlink:title=" ">
<path fill="none" stroke="#63b8ff" d="M377.58,-73.59C392.09,-70.49 408.58,-67.33 423.75,-65.25 482.51,-57.21 550.78,-53.4 595.13,-51.65"/>
<polygon fill="#63b8ff" stroke="#63b8ff" points="595.04,-55.15 604.91,-51.28 594.78,-48.16 595.04,-55.15"/>
</a>
</g>
</g>
<!-- Node20 -->
<g id="Node000020" class="node">
<title>Node20</title>
<g id="a_Node000020"><a xlink:href="a01931.html#a6cc54ee40009c61b5f6526f5edff004f" target="_top" xlink:title=" ">
<polygon fill="white" stroke="#666666" points="533.88,-129.5 431.62,-129.5 431.62,-111 533.88,-111 533.88,-129.5"/>
<text text-anchor="middle" x="482.75" y="-116" font-family="Helvetica,sans-Serif" font-size="10.00">arax_pipe_size_dec</text>
</a>
</g>
</g>
<!-- Node19&#45;&gt;Node20 -->
<g id="edge21_Node000019_Node000020" class="edge">
<title>Node19&#45;&gt;Node20</title>
<g id="a_edge21_Node000019_Node000020"><a xlink:title=" ">
<path fill="none" stroke="#63b8ff" d="M374.66,-92.97C392.36,-97.48 413.6,-102.89 432.49,-107.7"/>
<polygon fill="#63b8ff" stroke="#63b8ff" points="431.57,-111.08 442.12,-110.16 433.3,-104.3 431.57,-111.08"/>
</a>
</g>
</g>
<!-- Node24 -->
<g id="Node000024" class="node">
<title>Node24</title>
<g id="a_Node000024"><a xlink:href="a02358.html#ac9828b5c2758940f6d3c7d4335228de5" target="_top" xlink:title=" ">
<polygon fill="white" stroke="#666666" points="532.38,-92.5 433.12,-92.5 433.12,-74 532.38,-74 532.38,-92.5"/>
<text text-anchor="middle" x="482.75" y="-79" font-family="Helvetica,sans-Serif" font-size="10.00">arch_alloc_allocate</text>
</a>
</g>
</g>
<!-- Node19&#45;&gt;Node24 -->
<g id="edge29_Node000019_Node000024" class="edge">
<title>Node19&#45;&gt;Node24</title>
<g id="a_edge29_Node000019_Node000024"><a xlink:title=" ">
<path fill="none" stroke="#63b8ff" d="M388.12,-83.25C398.89,-83.25 410.34,-83.25 421.39,-83.25"/>
<polygon fill="#63b8ff" stroke="#63b8ff" points="421.22,-86.75 431.22,-83.25 421.22,-79.75 421.22,-86.75"/>
</a>
</g>
</g>
<!-- Node19&#45;&gt;Node25 -->
<g id="edge31_Node000019_Node000025" class="edge">
<title>Node19&#45;&gt;Node25</title>
<g id="a_edge31_Node000019_Node000025"><a xlink:title=" ">
<path fill="none" stroke="#63b8ff" d="M361.35,-73.52C369.94,-69.79 379.48,-65.23 387.75,-60.25 405.12,-49.8 406.15,-42.31 423.75,-32.25 429.53,-28.94 435.89,-25.9 442.2,-23.18"/>
<polygon fill="#63b8ff" stroke="#63b8ff" points="443.33,-26.5 451.28,-19.49 440.7,-20.01 443.33,-26.5"/>
</a>
</g>
</g>
<!-- Node21 -->
<g id="Node000021" class="node">
<title>Node21</title>
<g id="a_Node000021"><a xlink:href="a01943.html#a63b80783cfb3106ec4169ce082f153c0" target="_top" xlink:title=" ">
<polygon fill="white" stroke="#666666" points="700.25,-96.5 586,-96.5 586,-78 700.25,-78 700.25,-96.5"/>
<text text-anchor="middle" x="643.12" y="-83" font-family="Helvetica,sans-Serif" font-size="10.00">arax_throttle_size_dec</text>
</a>
</g>
</g>
<!-- Node20&#45;&gt;Node21 -->
<g id="edge22_Node000020_Node000021" class="edge">
<title>Node20&#45;&gt;Node21</title>
<g id="a_edge22_Node000020_Node000021"><a xlink:title=" ">
<path fill="none" stroke="#63b8ff" d="M530.41,-110.53C547.33,-107 566.65,-102.98 584.41,-99.28"/>
<polygon fill="#63b8ff" stroke="#63b8ff" points="584.97,-102.74 594.04,-97.27 583.54,-95.88 584.97,-102.74"/>
</a>
</g>
</g>
<!-- Node21&#45;&gt;Node6 -->
<g id="edge23_Node000021_Node000006" class="edge">
<title>Node21&#45;&gt;Node6</title>
<g id="a_edge23_Node000021_Node000006"><a xlink:title=" ">
<path fill="none" stroke="#63b8ff" d="M659.29,-96.95C678.54,-108.98 713.03,-129.54 744.5,-143.25 749.05,-145.23 753.87,-147.11 758.71,-148.87"/>
<polygon fill="#63b8ff" stroke="#63b8ff" points="757.25,-152.07 767.84,-152.02 759.53,-145.45 757.25,-152.07"/>
</a>
</g>
</g>
<!-- Node21&#45;&gt;Node8 -->
<g id="edge24_Node000021_Node000008" class="edge">
<title>Node21&#45;&gt;Node8</title>
<g id="a_edge24_Node000021_Node000008"><a xlink:title=" ">
<path fill="none" stroke="#63b8ff" d="M684.69,-96.94C705,-101.79 729.81,-107.71 751.48,-112.89"/>
<polygon fill="#63b8ff" stroke="#63b8ff" points="750.47,-116.24 761.01,-115.16 752.1,-109.44 750.47,-116.24"/>
</a>
</g>
</g>
<!-- Node22 -->
<g id="Node000022" class="node">
<title>Node22</title>
<g id="a_Node000022"><a xlink:href="a02367.html#a1bfeaeb9b81855e640d7a67cc9d92b17" target="_top" xlink:title=" ">
<polygon fill="white" stroke="#666666" points="858.38,-97.5 750.12,-97.5 750.12,-79 858.38,-79 858.38,-97.5"/>
<text text-anchor="middle" x="804.25" y="-84" font-family="Helvetica,sans-Serif" font-size="10.00">async_condition_wait</text>
</a>
</g>
</g>
<!-- Node21&#45;&gt;Node22 -->
<g id="edge25_Node000021_Node000022" class="edge">
<title>Node21&#45;&gt;Node22</title>
<g id="a_edge25_Node000021_Node000022"><a xlink:title=" ">
<path fill="none" stroke="#63b8ff" d="M700.67,-87.61C712.92,-87.68 725.95,-87.76 738.49,-87.84"/>
<polygon fill="#63b8ff" stroke="#63b8ff" points="738.28,-91.34 748.3,-87.9 738.32,-84.34 738.28,-91.34"/>
</a>
</g>
</g>
<!-- Node22&#45;&gt;Node7 -->
<g id="edge27_Node000022_Node000007" class="edge">
<title>Node22&#45;&gt;Node7</title>
<g id="a_edge27_Node000022_Node000007"><a xlink:title=" ">
<path fill="none" stroke="#63b8ff" d="M844.02,-97.9C850.93,-100.41 857.87,-103.5 864,-107.25 883.3,-119.06 880.45,-131.85 900,-143.25 903.35,-145.21 906.92,-146.97 910.59,-148.55"/>
<polygon fill="#63b8ff" stroke="#63b8ff" points="909.13,-151.74 919.72,-152.03 911.62,-145.2 909.13,-151.74"/>
</a>
</g>
</g>
<!-- Node22&#45;&gt;Node9 -->
<g id="edge26_Node000022_Node000009" class="edge">
<title>Node22&#45;&gt;Node9</title>
<g id="a_edge26_Node000022_Node000009"><a xlink:title=" ">
<path fill="none" stroke="#63b8ff" d="M848.14,-97.97C868.49,-102.58 893.03,-108.15 914.62,-113.04"/>
<polygon fill="#63b8ff" stroke="#63b8ff" points="913.61,-116.4 924.14,-115.19 915.16,-109.57 913.61,-116.4"/>
</a>
</g>
</g>
<!-- Node23 -->
<g id="Node000023" class="node">
<title>Node23</title>
<g id="a_Node000023"><a xlink:href="a02361.html#a7ab7c7fe9cb93434dde72a4e464a7e69" target="_top" xlink:title=" ">
<polygon fill="white" stroke="#666666" points="1027.38,-97.5 911.62,-97.5 911.62,-79 1027.38,-79 1027.38,-97.5"/>
<text text-anchor="middle" x="969.5" y="-84" font-family="Helvetica,sans-Serif" font-size="10.00">async_semaphore_dec</text>
</a>
</g>
</g>
<!-- Node22&#45;&gt;Node23 -->
<g id="edge28_Node000022_Node000023" class="edge">
<title>Node22&#45;&gt;Node23</title>
<g id="a_edge28_Node000022_Node000023"><a xlink:title=" ">
<path fill="none" stroke="#63b8ff" d="M858.7,-88.25C871.85,-88.25 886.11,-88.25 899.87,-88.25"/>
<polygon fill="#63b8ff" stroke="#63b8ff" points="899.76,-91.75 909.76,-88.25 899.76,-84.75 899.76,-91.75"/>
</a>
</g>
</g>
<!-- Node26&#45;&gt;Node6 -->
<g id="edge33_Node000026_Node000006" class="edge">
<title>Node26&#45;&gt;Node6</title>
<g id="a_edge33_Node000026_Node000006"><a xlink:title=" ">
<path fill="none" stroke="#63b8ff" d="M540.5,-162.25C595.89,-162.25 680.09,-162.25 738.17,-162.25"/>
<polygon fill="#63b8ff" stroke="#63b8ff" points="737.91,-165.75 747.91,-162.25 737.91,-158.75 737.91,-165.75"/>
</a>
</g>
</g>
<!-- Node26&#45;&gt;Node8 -->
<g id="edge35_Node000026_Node000008" class="edge">
<title>Node26&#45;&gt;Node8</title>
<g id="a_edge35_Node000026_Node000008"><a xlink:title=" ">
<path fill="none" stroke="#63b8ff" d="M540.5,-155.68C594.21,-149.46 675.01,-140.1 732.81,-133.41"/>
<polygon fill="#63b8ff" stroke="#63b8ff" points="733.02,-136.91 742.55,-132.28 732.21,-129.95 733.02,-136.91"/>
</a>
</g>
</g>
<!-- Node26&#45;&gt;Node15 -->
<g id="edge34_Node000026_Node000015" class="edge">
<title>Node26&#45;&gt;Node15</title>
<g id="a_edge34_Node000026_Node000015"><a xlink:title=" ">
<path fill="none" stroke="#63b8ff" d="M515.42,-177.25C543.31,-190.46 583.68,-209.57 611.32,-222.66"/>
<polygon fill="#63b8ff" stroke="#63b8ff" points="609.68,-225.76 620.22,-226.88 612.68,-219.43 609.68,-225.76"/>
</a>
</g>
</g>
<!-- Node26&#45;&gt;Node17 -->
<g id="edge36_Node000026_Node000017" class="edge">
<title>Node26&#45;&gt;Node17</title>
<g id="a_edge36_Node000026_Node000017"><a xlink:title=" ">
<path fill="none" stroke="#63b8ff" d="M529.05,-147.29C533.63,-144.7 537.97,-141.71 541.75,-138.25 567.27,-114.9 551.04,-91.23 577.75,-69.25 582.94,-64.98 589.05,-61.67 595.42,-59.11"/>
<polygon fill="#63b8ff" stroke="#63b8ff" points="596.45,-62.45 604.81,-55.94 594.21,-55.82 596.45,-62.45"/>
</a>
</g>
</g>
</g>
</svg>
