<?xml version="1.0" encoding="UTF-8" standalone="no"?>
<!DOCTYPE svg PUBLIC "-//W3C//DTD SVG 1.1//EN"
 "http://www.w3.org/Graphics/SVG/1.1/DTD/svg11.dtd">
<!-- Generated by graphviz version 12.2.1 (0)
 -->
<!-- Title: arax_proc_put Pages: 1 -->
<svg width="840pt" height="101pt"
 viewBox="0.00 0.00 839.75 100.50" xmlns="http://www.w3.org/2000/svg" xmlns:xlink="http://www.w3.org/1999/xlink">
<g id="graph0" class="graph" transform="scale(1 1) rotate(0) translate(4 96.5)">
<title>arax_proc_put</title>
<!-- Node1 -->
<g id="Node000001" class="node">
<title>Node1</title>
<g id="a_Node000001"><a xlink:title=" ">
<polygon fill="#999999" stroke="#666666" points="78.25,-36.5 0,-36.5 0,-18 78.25,-18 78.25,-36.5"/>
<text text-anchor="middle" x="39.12" y="-23" font-family="Helvetica,sans-Serif" font-size="10.00">arax_proc_put</text>
</a>
</g>
</g>
<!-- Node2 -->
<g id="Node000002" class="node">
<title>Node2</title>
<g id="a_Node000002"><a xlink:href="a01925.html#afe7e4a63c40fbcaae742b8de8693483f" target="_top" xlink:title=" ">
<polygon fill="white" stroke="#666666" points="218.75,-36.5 114.25,-36.5 114.25,-18 218.75,-18 218.75,-36.5"/>
<text text-anchor="middle" x="166.5" y="-23" font-family="Helvetica,sans-Serif" font-size="10.00">arax_object_ref_dec</text>
</a>
</g>
</g>
<!-- Node1&#45;&gt;Node2 -->
<g id="edge1_Node000001_Node000002" class="edge">
<title>Node1&#45;&gt;Node2</title>
<g id="a_edge1_Node000001_Node000002"><a xlink:title=" ">
<path fill="none" stroke="#63b8ff" d="M78.42,-27.25C86.15,-27.25 94.45,-27.25 102.76,-27.25"/>
<polygon fill="#63b8ff" stroke="#63b8ff" points="102.53,-30.75 112.53,-27.25 102.53,-23.75 102.53,-30.75"/>
</a>
</g>
</g>
<!-- Node3 -->
<g id="Node000003" class="node">
<title>Node3</title>
<g id="a_Node000003"><a xlink:href="a01928.html#a9f30684f01feac766b42d622970ed5a6" target="_top" xlink:title=" ">
<polygon fill="white" stroke="#666666" points="354,-55.5 254.75,-55.5 254.75,-37 354,-37 354,-55.5"/>
<text text-anchor="middle" x="304.38" y="-42" font-family="Helvetica,sans-Serif" font-size="10.00">arax_pipe_size_inc</text>
</a>
</g>
</g>
<!-- Node2&#45;&gt;Node3 -->
<g id="edge2_Node000002_Node000003" class="edge">
<title>Node2&#45;&gt;Node3</title>
<g id="a_edge2_Node000002_Node000003"><a xlink:title=" ">
<path fill="none" stroke="#63b8ff" d="M218.87,-34.43C226.84,-35.55 235.13,-36.71 243.27,-37.85"/>
<polygon fill="#63b8ff" stroke="#63b8ff" points="242.74,-41.31 253.13,-39.22 243.71,-34.37 242.74,-41.31"/>
</a>
</g>
</g>
<!-- Node11 -->
<g id="Node000011" class="node">
<title>Node11</title>
<g id="a_Node000011"><a xlink:href="a01955.html#a0c85e5516222ab7e7fc354c614760ec5" target="_top" xlink:title=" ">
<polygon fill="white" stroke="#666666" points="339.38,-18.5 269.38,-18.5 269.38,0 339.38,0 339.38,-18.5"/>
<text text-anchor="middle" x="304.38" y="-5" font-family="Helvetica,sans-Serif" font-size="10.00">utils_list_del</text>
</a>
</g>
</g>
<!-- Node2&#45;&gt;Node11 -->
<g id="edge12_Node000002_Node000011" class="edge">
<title>Node2&#45;&gt;Node11</title>
<g id="a_edge12_Node000002_Node000011"><a xlink:title=" ">
<path fill="none" stroke="#63b8ff" d="M218.87,-20.44C231.76,-18.74 245.49,-16.92 258.06,-15.25"/>
<polygon fill="#63b8ff" stroke="#63b8ff" points="258.27,-18.76 267.72,-13.97 257.35,-11.82 258.27,-18.76"/>
</a>
</g>
</g>
<!-- Node3&#45;&gt;Node3 -->
<g id="edge3_Node000003_Node000003" class="edge">
<title>Node3&#45;&gt;Node3</title>
<g id="a_edge3_Node000003_Node000003"><a xlink:title=" ">
<path fill="none" stroke="#63b8ff" d="M283.12,-55.75C272.79,-64.32 279.87,-73.5 304.38,-73.5 318.16,-73.5 326.43,-70.59 329.19,-66.53"/>
<polygon fill="#63b8ff" stroke="#63b8ff" points="332.56,-65.58 326.1,-57.18 325.92,-67.78 332.56,-65.58"/>
</a>
</g>
</g>
<!-- Node4 -->
<g id="Node000004" class="node">
<title>Node4</title>
<g id="a_Node000004"><a xlink:href="a01940.html#a7d3a67fa4eeb00cc9508a7ffe451a02f" target="_top" xlink:title=" ">
<polygon fill="white" stroke="#666666" points="501.25,-55.5 390,-55.5 390,-37 501.25,-37 501.25,-55.5"/>
<text text-anchor="middle" x="445.62" y="-42" font-family="Helvetica,sans-Serif" font-size="10.00">arax_throttle_size_inc</text>
</a>
</g>
</g>
<!-- Node3&#45;&gt;Node4 -->
<g id="edge4_Node000003_Node000004" class="edge">
<title>Node3&#45;&gt;Node4</title>
<g id="a_edge4_Node000003_Node000004"><a xlink:title=" ">
<path fill="none" stroke="#63b8ff" d="M354.47,-46.25C362.24,-46.25 370.38,-46.25 378.47,-46.25"/>
<polygon fill="#63b8ff" stroke="#63b8ff" points="378.29,-49.75 388.29,-46.25 378.29,-42.75 378.29,-49.75"/>
</a>
</g>
</g>
<!-- Node4&#45;&gt;Node4 -->
<g id="edge5_Node000004_Node000004" class="edge">
<title>Node4&#45;&gt;Node4</title>
<g id="a_edge5_Node000004_Node000004"><a xlink:title=" ">
<path fill="none" stroke="#63b8ff" d="M423.85,-55.75C413.26,-64.32 420.52,-73.5 445.62,-73.5 459.75,-73.5 468.22,-70.59 471.05,-66.53"/>
<polygon fill="#63b8ff" stroke="#63b8ff" points="474.4,-65.53 467.88,-57.18 467.77,-67.77 474.4,-65.53"/>
</a>
</g>
</g>
<!-- Node5 -->
<g id="Node000005" class="node">
<title>Node5</title>
<g id="a_Node000005"><a xlink:href="a02364.html#aed6af4d83e934e3e654ead541b15f2d9" target="_top" xlink:title=" ">
<polygon fill="white" stroke="#666666" points="651.5,-92.5 542.5,-92.5 542.5,-74 651.5,-74 651.5,-92.5"/>
<text text-anchor="middle" x="597" y="-79" font-family="Helvetica,sans-Serif" font-size="10.00">async_condition_lock</text>
</a>
</g>
</g>
<!-- Node4&#45;&gt;Node5 -->
<g id="edge6_Node000004_Node000005" class="edge">
<title>Node4&#45;&gt;Node5</title>
<g id="a_edge6_Node000004_Node000005"><a xlink:title=" ">
<path fill="none" stroke="#63b8ff" d="M485.87,-55.97C504.15,-60.5 526.12,-65.94 545.61,-70.77"/>
<polygon fill="#63b8ff" stroke="#63b8ff" points="544.74,-74.16 555.29,-73.17 546.42,-67.36 544.74,-74.16"/>
</a>
</g>
</g>
<!-- Node7 -->
<g id="Node000007" class="node">
<title>Node7</title>
<g id="a_Node000007"><a xlink:href="a02364.html#a45a896fb606c2aa66a5a4c2af59ce494" target="_top" xlink:title=" ">
<polygon fill="white" stroke="#666666" points="654.5,-55.5 539.5,-55.5 539.5,-37 654.5,-37 654.5,-55.5"/>
<text text-anchor="middle" x="597" y="-42" font-family="Helvetica,sans-Serif" font-size="10.00">async_condition_notify</text>
</a>
</g>
</g>
<!-- Node4&#45;&gt;Node7 -->
<g id="edge8_Node000004_Node000007" class="edge">
<title>Node4&#45;&gt;Node7</title>
<g id="a_edge8_Node000004_Node000007"><a xlink:title=" ">
<path fill="none" stroke="#63b8ff" d="M501.4,-46.25C509.97,-46.25 518.91,-46.25 527.74,-46.25"/>
<polygon fill="#63b8ff" stroke="#63b8ff" points="527.71,-49.75 537.71,-46.25 527.71,-42.75 527.71,-49.75"/>
</a>
</g>
</g>
<!-- Node9 -->
<g id="Node000009" class="node">
<title>Node9</title>
<g id="a_Node000009"><a xlink:href="a02364.html#a3bbcb7c4c024e99d5c4ba52b61dfbbf7" target="_top" xlink:title=" ">
<polygon fill="white" stroke="#666666" points="656.75,-18.5 537.25,-18.5 537.25,0 656.75,0 656.75,-18.5"/>
<text text-anchor="middle" x="597" y="-5" font-family="Helvetica,sans-Serif" font-size="10.00">async_condition_unlock</text>
</a>
</g>
</g>
<!-- Node4&#45;&gt;Node9 -->
<g id="edge10_Node000004_Node000009" class="edge">
<title>Node4&#45;&gt;Node9</title>
<g id="a_edge10_Node000004_Node000009"><a xlink:title=" ">
<path fill="none" stroke="#63b8ff" d="M485.87,-36.53C504.15,-32 526.12,-26.56 545.61,-21.73"/>
<polygon fill="#63b8ff" stroke="#63b8ff" points="546.42,-25.14 555.29,-19.33 544.74,-18.34 546.42,-25.14"/>
</a>
</g>
</g>
<!-- Node6 -->
<g id="Node000006" class="node">
<title>Node6</title>
<g id="a_Node000006"><a xlink:href="a02358.html#aebf9e72bb6cbd8b9e33489d46c25075d" target="_top" xlink:title=" ">
<polygon fill="white" stroke="#666666" points="820.5,-92.5 704,-92.5 704,-74 820.5,-74 820.5,-92.5"/>
<text text-anchor="middle" x="762.25" y="-79" font-family="Helvetica,sans-Serif" font-size="10.00">async_completion_wait</text>
</a>
</g>
</g>
<!-- Node5&#45;&gt;Node6 -->
<g id="edge7_Node000005_Node000006" class="edge">
<title>Node5&#45;&gt;Node6</title>
<g id="a_edge7_Node000005_Node000006"><a xlink:title=" ">
<path fill="none" stroke="#63b8ff" d="M651.91,-83.25C664.89,-83.25 678.94,-83.25 692.51,-83.25"/>
<polygon fill="#63b8ff" stroke="#63b8ff" points="692.24,-86.75 702.24,-83.25 692.24,-79.75 692.24,-86.75"/>
</a>
</g>
</g>
<!-- Node8 -->
<g id="Node000008" class="node">
<title>Node8</title>
<g id="a_Node000008"><a xlink:href="a02358.html#a0fa370eee5160963e617d1daf1c07363" target="_top" xlink:title=" ">
<polygon fill="white" stroke="#666666" points="818.62,-55.5 705.88,-55.5 705.88,-37 818.62,-37 818.62,-55.5"/>
<text text-anchor="middle" x="762.25" y="-42" font-family="Helvetica,sans-Serif" font-size="10.00">async_semaphore_inc</text>
</a>
</g>
</g>
<!-- Node7&#45;&gt;Node8 -->
<g id="edge9_Node000007_Node000008" class="edge">
<title>Node7&#45;&gt;Node8</title>
<g id="a_edge9_Node000007_Node000008"><a xlink:title=" ">
<path fill="none" stroke="#63b8ff" d="M654.64,-46.25C667.39,-46.25 681.04,-46.25 694.17,-46.25"/>
<polygon fill="#63b8ff" stroke="#63b8ff" points="694.03,-49.75 704.03,-46.25 694.02,-42.75 694.03,-49.75"/>
</a>
</g>
</g>
<!-- Node10 -->
<g id="Node000010" class="node">
<title>Node10</title>
<g id="a_Node000010"><a xlink:href="a02358.html#ad1d30ecbf6bff6457b680aa940281072" target="_top" xlink:title=" ">
<polygon fill="white" stroke="#666666" points="831.75,-18.5 692.75,-18.5 692.75,0 831.75,0 831.75,-18.5"/>
<text text-anchor="middle" x="762.25" y="-5" font-family="Helvetica,sans-Serif" font-size="10.00">async_completion_complete</text>
</a>
</g>
</g>
<!-- Node9&#45;&gt;Node10 -->
<g id="edge11_Node000009_Node000010" class="edge">
<title>Node9&#45;&gt;Node10</title>
<g id="a_edge11_Node000009_Node000010"><a xlink:title=" ">
<path fill="none" stroke="#63b8ff" d="M656.94,-9.25C664.76,-9.25 672.88,-9.25 680.99,-9.25"/>
<polygon fill="#63b8ff" stroke="#63b8ff" points="680.89,-12.75 690.89,-9.25 680.89,-5.75 680.89,-12.75"/>
</a>
</g>
</g>
</g>
</svg>
