<?xml version="1.0" encoding="UTF-8" standalone="no"?>
<!DOCTYPE svg PUBLIC "-//W3C//DTD SVG 1.1//EN"
 "http://www.w3.org/Graphics/SVG/1.1/DTD/svg11.dtd">
<!-- Generated by graphviz version 8.0.5 (0)
 -->
<!-- Title: arax_proc_put Pages: 1 -->
<svg width="840pt" height="101pt"
 viewBox="0.00 0.00 839.75 100.50" xmlns="http://www.w3.org/2000/svg" xmlns:xlink="http://www.w3.org/1999/xlink">
<g id="graph0" class="graph" transform="scale(1 1) rotate(0) translate(4 96.5)">
<title>arax_proc_put</title>
<!-- Node1 -->
<g id="Node000001" class="node">
<title>Node1</title>
<g id="a_Node000001"><a xlink:title=" ">
<polygon fill="#999999" stroke="#666666" points="78.25,-36.5 0,-36.5 0,-18 78.25,-18 78.25,-36.5"/>
<text text-anchor="middle" x="39.12" y="-23" font-family="Helvetica,sans-Serif" font-size="10.00">arax_proc_put</text>
</a>
</g>
</g>
<!-- Node2 -->
<g id="Node000002" class="node">
<title>Node2</title>
<g id="a_Node000002"><a xlink:href="a01910.html#afe7e4a63c40fbcaae742b8de8693483f" target="_top" xlink:title=" ">
<polygon fill="white" stroke="#666666" points="218.75,-36.5 114.25,-36.5 114.25,-18 218.75,-18 218.75,-36.5"/>
<text text-anchor="middle" x="166.5" y="-23" font-family="Helvetica,sans-Serif" font-size="10.00">arax_object_ref_dec</text>
</a>
</g>
</g>
<!-- Node1&#45;&gt;Node2 -->
<g id="edge1_Node000001_Node000002" class="edge">
<title>Node1&#45;&gt;Node2</title>
<g id="a_edge1_Node000001_Node000002"><a xlink:title=" ">
<path fill="none" stroke="#63b8ff" d="M78.42,-27.25C86.23,-27.25 94.64,-27.25 103.05,-27.25"/>
<polygon fill="#63b8ff" stroke="#63b8ff" points="103.04,-30.75 113.04,-27.25 103.04,-23.75 103.04,-30.75"/>
</a>
</g>
</g>
<!-- Node3 -->
<g id="Node000003" class="node">
<title>Node3</title>
<g id="a_Node000003"><a xlink:href="a01913.html#a5144f906658718ef853a8d18dda1e724" target="_top" xlink:title=" ">
<polygon fill="white" stroke="#666666" points="354,-55.5 254.75,-55.5 254.75,-37 354,-37 354,-55.5"/>
<text text-anchor="middle" x="304.38" y="-42" font-family="Helvetica,sans-Serif" font-size="10.00">arax_pipe_size_inc</text>
</a>
</g>
</g>
<!-- Node2&#45;&gt;Node3 -->
<g id="edge2_Node000002_Node000003" class="edge">
<title>Node2&#45;&gt;Node3</title>
<g id="a_edge2_Node000002_Node000003"><a xlink:title=" ">
<path fill="none" stroke="#63b8ff" d="M218.87,-34.43C227.02,-35.57 235.51,-36.76 243.83,-37.92"/>
<polygon fill="#63b8ff" stroke="#63b8ff" points="243.24,-41.51 253.63,-39.43 244.21,-34.58 243.24,-41.51"/>
</a>
</g>
</g>
<!-- Node11 -->
<g id="Node000011" class="node">
<title>Node11</title>
<g id="a_Node000011"><a xlink:href="a01946.html#a0c85e5516222ab7e7fc354c614760ec5" target="_top" xlink:title=" ">
<polygon fill="white" stroke="#666666" points="339.38,-18.5 269.38,-18.5 269.38,0 339.38,0 339.38,-18.5"/>
<text text-anchor="middle" x="304.38" y="-5" font-family="Helvetica,sans-Serif" font-size="10.00">utils_list_del</text>
</a>
</g>
</g>
<!-- Node2&#45;&gt;Node11 -->
<g id="edge10_Node000002_Node000011" class="edge">
<title>Node2&#45;&gt;Node11</title>
<g id="a_edge10_Node000002_Node000011"><a xlink:title=" ">
<path fill="none" stroke="#63b8ff" d="M218.87,-20.44C231.89,-18.72 245.77,-16.88 258.45,-15.2"/>
<polygon fill="#63b8ff" stroke="#63b8ff" points="258.77,-18.56 268.22,-13.77 257.85,-11.62 258.77,-18.56"/>
</a>
</g>
</g>
<!-- Node4 -->
<g id="Node000004" class="node">
<title>Node4</title>
<g id="a_Node000004"><a xlink:href="a01925.html#a22aaf13eb56eb1832e725ef73236116f" target="_top" xlink:title=" ">
<polygon fill="white" stroke="#666666" points="501.25,-55.5 390,-55.5 390,-37 501.25,-37 501.25,-55.5"/>
<text text-anchor="middle" x="445.62" y="-42" font-family="Helvetica,sans-Serif" font-size="10.00">arax_throttle_size_inc</text>
</a>
</g>
</g>
<!-- Node3&#45;&gt;Node4 -->
<g id="edge3_Node000003_Node000004" class="edge">
<title>Node3&#45;&gt;Node4</title>
<g id="a_edge3_Node000003_Node000004"><a xlink:title=" ">
<path fill="none" stroke="#63b8ff" d="M354.47,-46.25C362.42,-46.25 370.76,-46.25 379.02,-46.25"/>
<polygon fill="#63b8ff" stroke="#63b8ff" points="378.81,-49.75 388.81,-46.25 378.81,-42.75 378.81,-49.75"/>
</a>
</g>
</g>
<!-- Node5 -->
<g id="Node000005" class="node">
<title>Node5</title>
<g id="a_Node000005"><a xlink:href="a02352.html#aed6af4d83e934e3e654ead541b15f2d9" target="_top" xlink:title=" ">
<polygon fill="white" stroke="#666666" points="651.5,-92.5 542.5,-92.5 542.5,-74 651.5,-74 651.5,-92.5"/>
<text text-anchor="middle" x="597" y="-79" font-family="Helvetica,sans-Serif" font-size="10.00">async_condition_lock</text>
</a>
</g>
</g>
<!-- Node4&#45;&gt;Node5 -->
<g id="edge4_Node000004_Node000005" class="edge">
<title>Node4&#45;&gt;Node5</title>
<g id="a_edge4_Node000004_Node000005"><a xlink:title=" ">
<path fill="none" stroke="#63b8ff" d="M485.87,-55.97C504.32,-60.54 526.53,-66.04 546.16,-70.9"/>
<polygon fill="#63b8ff" stroke="#63b8ff" points="545.21,-74.52 555.76,-73.53 546.89,-67.73 545.21,-74.52"/>
</a>
</g>
</g>
<!-- Node7 -->
<g id="Node000007" class="node">
<title>Node7</title>
<g id="a_Node000007"><a xlink:href="a02352.html#a45a896fb606c2aa66a5a4c2af59ce494" target="_top" xlink:title=" ">
<polygon fill="white" stroke="#666666" points="654.5,-55.5 539.5,-55.5 539.5,-37 654.5,-37 654.5,-55.5"/>
<text text-anchor="middle" x="597" y="-42" font-family="Helvetica,sans-Serif" font-size="10.00">async_condition_notify</text>
</a>
</g>
</g>
<!-- Node4&#45;&gt;Node7 -->
<g id="edge6_Node000004_Node000007" class="edge">
<title>Node4&#45;&gt;Node7</title>
<g id="a_edge6_Node000004_Node000007"><a xlink:title=" ">
<path fill="none" stroke="#63b8ff" d="M501.4,-46.25C510.16,-46.25 519.31,-46.25 528.33,-46.25"/>
<polygon fill="#63b8ff" stroke="#63b8ff" points="528.23,-49.75 538.23,-46.25 528.23,-42.75 528.23,-49.75"/>
</a>
</g>
</g>
<!-- Node9 -->
<g id="Node000009" class="node">
<title>Node9</title>
<g id="a_Node000009"><a xlink:href="a02352.html#a3bbcb7c4c024e99d5c4ba52b61dfbbf7" target="_top" xlink:title=" ">
<polygon fill="white" stroke="#666666" points="656.75,-18.5 537.25,-18.5 537.25,0 656.75,0 656.75,-18.5"/>
<text text-anchor="middle" x="597" y="-5" font-family="Helvetica,sans-Serif" font-size="10.00">async_condition_unlock</text>
</a>
</g>
</g>
<!-- Node4&#45;&gt;Node9 -->
<g id="edge8_Node000004_Node000009" class="edge">
<title>Node4&#45;&gt;Node9</title>
<g id="a_edge8_Node000004_Node000009"><a xlink:title=" ">
<path fill="none" stroke="#63b8ff" d="M485.87,-36.53C504.32,-31.96 526.53,-26.46 546.16,-21.6"/>
<polygon fill="#63b8ff" stroke="#63b8ff" points="546.89,-24.77 555.76,-18.97 545.21,-17.98 546.89,-24.77"/>
</a>
</g>
</g>
<!-- Node6 -->
<g id="Node000006" class="node">
<title>Node6</title>
<g id="a_Node000006"><a xlink:href="a02346.html#aebf9e72bb6cbd8b9e33489d46c25075d" target="_top" xlink:title=" ">
<polygon fill="white" stroke="#666666" points="820.5,-92.5 704,-92.5 704,-74 820.5,-74 820.5,-92.5"/>
<text text-anchor="middle" x="762.25" y="-79" font-family="Helvetica,sans-Serif" font-size="10.00">async_completion_wait</text>
</a>
</g>
</g>
<!-- Node5&#45;&gt;Node6 -->
<g id="edge5_Node000005_Node000006" class="edge">
<title>Node5&#45;&gt;Node6</title>
<g id="a_edge5_Node000005_Node000006"><a xlink:title=" ">
<path fill="none" stroke="#63b8ff" d="M651.91,-83.25C665.02,-83.25 679.23,-83.25 692.91,-83.25"/>
<polygon fill="#63b8ff" stroke="#63b8ff" points="692.75,-86.75 702.75,-83.25 692.75,-79.75 692.75,-86.75"/>
</a>
</g>
</g>
<!-- Node8 -->
<g id="Node000008" class="node">
<title>Node8</title>
<g id="a_Node000008"><a xlink:href="a02346.html#a0fa370eee5160963e617d1daf1c07363" target="_top" xlink:title=" ">
<polygon fill="white" stroke="#666666" points="818.62,-55.5 705.88,-55.5 705.88,-37 818.62,-37 818.62,-55.5"/>
<text text-anchor="middle" x="762.25" y="-42" font-family="Helvetica,sans-Serif" font-size="10.00">async_semaphore_inc</text>
</a>
</g>
</g>
<!-- Node7&#45;&gt;Node8 -->
<g id="edge7_Node000007_Node000008" class="edge">
<title>Node7&#45;&gt;Node8</title>
<g id="a_edge7_Node000007_Node000008"><a xlink:title=" ">
<path fill="none" stroke="#63b8ff" d="M654.64,-46.25C667.52,-46.25 681.31,-46.25 694.57,-46.25"/>
<polygon fill="#63b8ff" stroke="#63b8ff" points="694.54,-49.75 704.54,-46.25 694.54,-42.75 694.54,-49.75"/>
</a>
</g>
</g>
<!-- Node10 -->
<g id="Node000010" class="node">
<title>Node10</title>
<g id="a_Node000010"><a xlink:href="a02346.html#ad1d30ecbf6bff6457b680aa940281072" target="_top" xlink:title=" ">
<polygon fill="white" stroke="#666666" points="831.75,-18.5 692.75,-18.5 692.75,0 831.75,0 831.75,-18.5"/>
<text text-anchor="middle" x="762.25" y="-5" font-family="Helvetica,sans-Serif" font-size="10.00">async_completion_complete</text>
</a>
</g>
</g>
<!-- Node9&#45;&gt;Node10 -->
<g id="edge9_Node000009_Node000010" class="edge">
<title>Node9&#45;&gt;Node10</title>
<g id="a_edge9_Node000009_Node000010"><a xlink:title=" ">
<path fill="none" stroke="#63b8ff" d="M656.94,-9.25C664.94,-9.25 673.26,-9.25 681.55,-9.25"/>
<polygon fill="#63b8ff" stroke="#63b8ff" points="681.4,-12.75 691.4,-9.25 681.4,-5.75 681.4,-12.75"/>
</a>
</g>
</g>
</g>
</svg>
