<?xml version="1.0" encoding="UTF-8" standalone="no"?>
<!DOCTYPE svg PUBLIC "-//W3C//DTD SVG 1.1//EN"
 "http://www.w3.org/Graphics/SVG/1.1/DTD/svg11.dtd">
<!-- Generated by graphviz version 12.2.1 (0)
 -->
<!-- Title: arax_task_wait Pages: 1 -->
<svg width="757pt" height="64pt"
 viewBox="0.00 0.00 756.50 63.50" xmlns="http://www.w3.org/2000/svg" xmlns:xlink="http://www.w3.org/1999/xlink">
<g id="graph0" class="graph" transform="scale(1 1) rotate(0) translate(4 59.5)">
<title>arax_task_wait</title>
<!-- Node1 -->
<g id="Node000001" class="node">
<title>Node1</title>
<g id="a_Node000001"><a xlink:title=" ">
<polygon fill="#999999" stroke="#666666" points="82,-36.5 0,-36.5 0,-18 82,-18 82,-36.5"/>
<text text-anchor="middle" x="41" y="-23" font-family="Helvetica,sans-Serif" font-size="10.00">arax_task_wait</text>
</a>
</g>
</g>
<!-- Node2 -->
<g id="Node000002" class="node">
<title>Node2</title>
<g id="a_Node000002"><a xlink:href="a01937.html#a0d3707df989265f8cf380acdef95eb02" target="_top" xlink:title=" ">
<polygon fill="white" stroke="#666666" points="226.25,-36.5 118,-36.5 118,-18 226.25,-18 226.25,-36.5"/>
<text text-anchor="middle" x="172.12" y="-23" font-family="Helvetica,sans-Serif" font-size="10.00">arax_task_wait_done</text>
</a>
</g>
</g>
<!-- Node1&#45;&gt;Node2 -->
<g id="edge1_Node000001_Node000002" class="edge">
<title>Node1&#45;&gt;Node2</title>
<g id="a_edge1_Node000001_Node000002"><a xlink:title=" ">
<path fill="none" stroke="#63b8ff" d="M82.15,-27.25C89.88,-27.25 98.17,-27.25 106.46,-27.25"/>
<polygon fill="#63b8ff" stroke="#63b8ff" points="106.19,-30.75 116.19,-27.25 106.19,-23.75 106.19,-30.75"/>
</a>
</g>
</g>
<!-- Node3 -->
<g id="Node000003" class="node">
<title>Node3</title>
<g id="a_Node000003"><a xlink:href="a02364.html#aebf9e72bb6cbd8b9e33489d46c25075d" target="_top" xlink:title=" ">
<polygon fill="white" stroke="#666666" points="378.75,-36.5 262.25,-36.5 262.25,-18 378.75,-18 378.75,-36.5"/>
<text text-anchor="middle" x="320.5" y="-23" font-family="Helvetica,sans-Serif" font-size="10.00">async_completion_wait</text>
</a>
</g>
</g>
<!-- Node2&#45;&gt;Node3 -->
<g id="edge2_Node000002_Node000003" class="edge">
<title>Node2&#45;&gt;Node3</title>
<g id="a_edge2_Node000002_Node000003"><a xlink:title=" ">
<path fill="none" stroke="#63b8ff" d="M226.38,-27.25C234.27,-27.25 242.5,-27.25 250.65,-27.25"/>
<polygon fill="#63b8ff" stroke="#63b8ff" points="250.57,-30.75 260.57,-27.25 250.57,-23.75 250.57,-30.75"/>
</a>
</g>
</g>
<!-- Node4 -->
<g id="Node000004" class="node">
<title>Node4</title>
<g id="a_Node000004"><a xlink:href="a02358.html#aa459f71b73bbc23f0b4bb342d093dde3" target="_top" xlink:title=" ">
<polygon fill="white" stroke="#666666" points="504.25,-55.5 414.75,-55.5 414.75,-37 504.25,-37 504.25,-55.5"/>
<text text-anchor="middle" x="459.5" y="-42" font-family="Helvetica,sans-Serif" font-size="10.00">_add_completion</text>
</a>
</g>
</g>
<!-- Node3&#45;&gt;Node4 -->
<g id="edge3_Node000003_Node000004" class="edge">
<title>Node3&#45;&gt;Node4</title>
<g id="a_edge3_Node000003_Node000004"><a xlink:title=" ">
<path fill="none" stroke="#63b8ff" d="M379.2,-35.25C387.16,-36.36 395.32,-37.49 403.24,-38.59"/>
<polygon fill="#63b8ff" stroke="#63b8ff" points="402.72,-42.05 413.1,-39.95 403.68,-35.11 402.72,-42.05"/>
</a>
</g>
</g>
<!-- Node7 -->
<g id="Node000007" class="node">
<title>Node7</title>
<g id="a_Node000007"><a xlink:href="a02358.html#a49083e8ceb4bfe7793ca1a5a799834d0" target="_top" xlink:title=" ">
<polygon fill="white" stroke="#666666" points="487,-18.5 432,-18.5 432,0 487,0 487,-18.5"/>
<text text-anchor="middle" x="459.5" y="-5" font-family="Helvetica,sans-Serif" font-size="10.00">getVmID</text>
</a>
</g>
</g>
<!-- Node3&#45;&gt;Node7 -->
<g id="edge6_Node000003_Node000007" class="edge">
<title>Node3&#45;&gt;Node7</title>
<g id="a_edge6_Node000003_Node000007"><a xlink:title=" ">
<path fill="none" stroke="#63b8ff" d="M379.2,-19.67C393.2,-17.83 407.81,-15.91 420.63,-14.23"/>
<polygon fill="#63b8ff" stroke="#63b8ff" points="420.86,-17.73 430.32,-12.95 419.95,-10.79 420.86,-17.73"/>
</a>
</g>
</g>
<!-- Node5 -->
<g id="Node000005" class="node">
<title>Node5</title>
<g id="a_Node000005"><a xlink:href="a01955.html#ae06a9e78e6a4f6c9c8afcf0f4862ce29" target="_top" xlink:title=" ">
<polygon fill="white" stroke="#666666" points="613.25,-55.5 540.25,-55.5 540.25,-37 613.25,-37 613.25,-55.5"/>
<text text-anchor="middle" x="576.75" y="-42" font-family="Helvetica,sans-Serif" font-size="10.00">utils_list_add</text>
</a>
</g>
</g>
<!-- Node4&#45;&gt;Node5 -->
<g id="edge4_Node000004_Node000005" class="edge">
<title>Node4&#45;&gt;Node5</title>
<g id="a_edge4_Node000004_Node000005"><a xlink:title=" ">
<path fill="none" stroke="#63b8ff" d="M504.73,-46.25C512.58,-46.25 520.78,-46.25 528.7,-46.25"/>
<polygon fill="#63b8ff" stroke="#63b8ff" points="528.52,-49.75 538.52,-46.25 528.52,-42.75 528.52,-49.75"/>
</a>
</g>
</g>
<!-- Node6 -->
<g id="Node000006" class="node">
<title>Node6</title>
<g id="a_Node000006"><a xlink:href="a01955.html#a5c575f52a42e0e0d2fb41bda2d1268ce" target="_top" xlink:title=" ">
<polygon fill="white" stroke="#666666" points="748.5,-55.5 649.25,-55.5 649.25,-37 748.5,-37 748.5,-55.5"/>
<text text-anchor="middle" x="698.88" y="-42" font-family="Helvetica,sans-Serif" font-size="10.00">utils_list_node_add</text>
</a>
</g>
</g>
<!-- Node5&#45;&gt;Node6 -->
<g id="edge5_Node000005_Node000006" class="edge">
<title>Node5&#45;&gt;Node6</title>
<g id="a_edge5_Node000005_Node000006"><a xlink:title=" ">
<path fill="none" stroke="#63b8ff" d="M613.47,-46.25C621.17,-46.25 629.51,-46.25 637.86,-46.25"/>
<polygon fill="#63b8ff" stroke="#63b8ff" points="637.66,-49.75 647.66,-46.25 637.66,-42.75 637.66,-49.75"/>
</a>
</g>
</g>
</g>
</svg>
