<?xml version="1.0" encoding="UTF-8" standalone="no"?>
<!DOCTYPE svg PUBLIC "-//W3C//DTD SVG 1.1//EN"
 "http://www.w3.org/Graphics/SVG/1.1/DTD/svg11.dtd">
<!-- Generated by graphviz version 8.0.5 (0)
 -->
<!-- Title: arax_accel_list_free Pages: 1 -->
<svg width="865pt" height="101pt"
 viewBox="0.00 0.00 865.25 100.50" xmlns="http://www.w3.org/2000/svg" xmlns:xlink="http://www.w3.org/1999/xlink">
<g id="graph0" class="graph" transform="scale(1 1) rotate(0) translate(4 96.5)">
<title>arax_accel_list_free</title>
<!-- Node1 -->
<g id="Node000001" class="node">
<title>Node1</title>
<g id="a_Node000001"><a xlink:title=" ">
<polygon fill="#999999" stroke="#666666" points="103.75,-36.5 0,-36.5 0,-18 103.75,-18 103.75,-36.5"/>
<text text-anchor="middle" x="51.88" y="-23" font-family="Helvetica,sans-Serif" font-size="10.00">arax_accel_list_free</text>
</a>
</g>
</g>
<!-- Node2 -->
<g id="Node000002" class="node">
<title>Node2</title>
<g id="a_Node000002"><a xlink:href="a01910.html#afe7e4a63c40fbcaae742b8de8693483f" target="_top" xlink:title=" ">
<polygon fill="white" stroke="#666666" points="244.25,-36.5 139.75,-36.5 139.75,-18 244.25,-18 244.25,-36.5"/>
<text text-anchor="middle" x="192" y="-23" font-family="Helvetica,sans-Serif" font-size="10.00">arax_object_ref_dec</text>
</a>
</g>
</g>
<!-- Node1&#45;&gt;Node2 -->
<g id="edge1_Node000001_Node000002" class="edge">
<title>Node1&#45;&gt;Node2</title>
<g id="a_edge1_Node000001_Node000002"><a xlink:title=" ">
<path fill="none" stroke="#63b8ff" d="M103.92,-27.25C112.04,-27.25 120.52,-27.25 128.86,-27.25"/>
<polygon fill="#63b8ff" stroke="#63b8ff" points="128.71,-30.75 138.71,-27.25 128.71,-23.75 128.71,-30.75"/>
</a>
</g>
</g>
<!-- Node3 -->
<g id="Node000003" class="node">
<title>Node3</title>
<g id="a_Node000003"><a xlink:href="a01913.html#a5144f906658718ef853a8d18dda1e724" target="_top" xlink:title=" ">
<polygon fill="white" stroke="#666666" points="379.5,-55.5 280.25,-55.5 280.25,-37 379.5,-37 379.5,-55.5"/>
<text text-anchor="middle" x="329.88" y="-42" font-family="Helvetica,sans-Serif" font-size="10.00">arax_pipe_size_inc</text>
</a>
</g>
</g>
<!-- Node2&#45;&gt;Node3 -->
<g id="edge2_Node000002_Node000003" class="edge">
<title>Node2&#45;&gt;Node3</title>
<g id="a_edge2_Node000002_Node000003"><a xlink:title=" ">
<path fill="none" stroke="#63b8ff" d="M244.37,-34.43C252.52,-35.57 261.01,-36.76 269.33,-37.92"/>
<polygon fill="#63b8ff" stroke="#63b8ff" points="268.74,-41.51 279.13,-39.43 269.71,-34.58 268.74,-41.51"/>
</a>
</g>
</g>
<!-- Node11 -->
<g id="Node000011" class="node">
<title>Node11</title>
<g id="a_Node000011"><a xlink:href="a01946.html#a0c85e5516222ab7e7fc354c614760ec5" target="_top" xlink:title=" ">
<polygon fill="white" stroke="#666666" points="364.88,-18.5 294.88,-18.5 294.88,0 364.88,0 364.88,-18.5"/>
<text text-anchor="middle" x="329.88" y="-5" font-family="Helvetica,sans-Serif" font-size="10.00">utils_list_del</text>
</a>
</g>
</g>
<!-- Node2&#45;&gt;Node11 -->
<g id="edge10_Node000002_Node000011" class="edge">
<title>Node2&#45;&gt;Node11</title>
<g id="a_edge10_Node000002_Node000011"><a xlink:title=" ">
<path fill="none" stroke="#63b8ff" d="M244.37,-20.44C257.39,-18.72 271.27,-16.88 283.95,-15.2"/>
<polygon fill="#63b8ff" stroke="#63b8ff" points="284.27,-18.56 293.72,-13.77 283.35,-11.62 284.27,-18.56"/>
</a>
</g>
</g>
<!-- Node4 -->
<g id="Node000004" class="node">
<title>Node4</title>
<g id="a_Node000004"><a xlink:href="a01925.html#a22aaf13eb56eb1832e725ef73236116f" target="_top" xlink:title=" ">
<polygon fill="white" stroke="#666666" points="526.75,-55.5 415.5,-55.5 415.5,-37 526.75,-37 526.75,-55.5"/>
<text text-anchor="middle" x="471.12" y="-42" font-family="Helvetica,sans-Serif" font-size="10.00">arax_throttle_size_inc</text>
</a>
</g>
</g>
<!-- Node3&#45;&gt;Node4 -->
<g id="edge3_Node000003_Node000004" class="edge">
<title>Node3&#45;&gt;Node4</title>
<g id="a_edge3_Node000003_Node000004"><a xlink:title=" ">
<path fill="none" stroke="#63b8ff" d="M379.97,-46.25C387.92,-46.25 396.26,-46.25 404.52,-46.25"/>
<polygon fill="#63b8ff" stroke="#63b8ff" points="404.31,-49.75 414.31,-46.25 404.31,-42.75 404.31,-49.75"/>
</a>
</g>
</g>
<!-- Node5 -->
<g id="Node000005" class="node">
<title>Node5</title>
<g id="a_Node000005"><a xlink:href="a02352.html#aed6af4d83e934e3e654ead541b15f2d9" target="_top" xlink:title=" ">
<polygon fill="white" stroke="#666666" points="677,-92.5 568,-92.5 568,-74 677,-74 677,-92.5"/>
<text text-anchor="middle" x="622.5" y="-79" font-family="Helvetica,sans-Serif" font-size="10.00">async_condition_lock</text>
</a>
</g>
</g>
<!-- Node4&#45;&gt;Node5 -->
<g id="edge4_Node000004_Node000005" class="edge">
<title>Node4&#45;&gt;Node5</title>
<g id="a_edge4_Node000004_Node000005"><a xlink:title=" ">
<path fill="none" stroke="#63b8ff" d="M511.37,-55.97C529.82,-60.54 552.03,-66.04 571.66,-70.9"/>
<polygon fill="#63b8ff" stroke="#63b8ff" points="570.71,-74.52 581.26,-73.53 572.39,-67.73 570.71,-74.52"/>
</a>
</g>
</g>
<!-- Node7 -->
<g id="Node000007" class="node">
<title>Node7</title>
<g id="a_Node000007"><a xlink:href="a02352.html#a45a896fb606c2aa66a5a4c2af59ce494" target="_top" xlink:title=" ">
<polygon fill="white" stroke="#666666" points="680,-55.5 565,-55.5 565,-37 680,-37 680,-55.5"/>
<text text-anchor="middle" x="622.5" y="-42" font-family="Helvetica,sans-Serif" font-size="10.00">async_condition_notify</text>
</a>
</g>
</g>
<!-- Node4&#45;&gt;Node7 -->
<g id="edge6_Node000004_Node000007" class="edge">
<title>Node4&#45;&gt;Node7</title>
<g id="a_edge6_Node000004_Node000007"><a xlink:title=" ">
<path fill="none" stroke="#63b8ff" d="M526.9,-46.25C535.66,-46.25 544.81,-46.25 553.83,-46.25"/>
<polygon fill="#63b8ff" stroke="#63b8ff" points="553.73,-49.75 563.73,-46.25 553.73,-42.75 553.73,-49.75"/>
</a>
</g>
</g>
<!-- Node9 -->
<g id="Node000009" class="node">
<title>Node9</title>
<g id="a_Node000009"><a xlink:href="a02352.html#a3bbcb7c4c024e99d5c4ba52b61dfbbf7" target="_top" xlink:title=" ">
<polygon fill="white" stroke="#666666" points="682.25,-18.5 562.75,-18.5 562.75,0 682.25,0 682.25,-18.5"/>
<text text-anchor="middle" x="622.5" y="-5" font-family="Helvetica,sans-Serif" font-size="10.00">async_condition_unlock</text>
</a>
</g>
</g>
<!-- Node4&#45;&gt;Node9 -->
<g id="edge8_Node000004_Node000009" class="edge">
<title>Node4&#45;&gt;Node9</title>
<g id="a_edge8_Node000004_Node000009"><a xlink:title=" ">
<path fill="none" stroke="#63b8ff" d="M511.37,-36.53C529.82,-31.96 552.03,-26.46 571.66,-21.6"/>
<polygon fill="#63b8ff" stroke="#63b8ff" points="572.39,-24.77 581.26,-18.97 570.71,-17.98 572.39,-24.77"/>
</a>
</g>
</g>
<!-- Node6 -->
<g id="Node000006" class="node">
<title>Node6</title>
<g id="a_Node000006"><a xlink:href="a02346.html#aebf9e72bb6cbd8b9e33489d46c25075d" target="_top" xlink:title=" ">
<polygon fill="white" stroke="#666666" points="846,-92.5 729.5,-92.5 729.5,-74 846,-74 846,-92.5"/>
<text text-anchor="middle" x="787.75" y="-79" font-family="Helvetica,sans-Serif" font-size="10.00">async_completion_wait</text>
</a>
</g>
</g>
<!-- Node5&#45;&gt;Node6 -->
<g id="edge5_Node000005_Node000006" class="edge">
<title>Node5&#45;&gt;Node6</title>
<g id="a_edge5_Node000005_Node000006"><a xlink:title=" ">
<path fill="none" stroke="#63b8ff" d="M677.41,-83.25C690.52,-83.25 704.73,-83.25 718.41,-83.25"/>
<polygon fill="#63b8ff" stroke="#63b8ff" points="718.25,-86.75 728.25,-83.25 718.25,-79.75 718.25,-86.75"/>
</a>
</g>
</g>
<!-- Node8 -->
<g id="Node000008" class="node">
<title>Node8</title>
<g id="a_Node000008"><a xlink:href="a02346.html#a0fa370eee5160963e617d1daf1c07363" target="_top" xlink:title=" ">
<polygon fill="white" stroke="#666666" points="844.12,-55.5 731.38,-55.5 731.38,-37 844.12,-37 844.12,-55.5"/>
<text text-anchor="middle" x="787.75" y="-42" font-family="Helvetica,sans-Serif" font-size="10.00">async_semaphore_inc</text>
</a>
</g>
</g>
<!-- Node7&#45;&gt;Node8 -->
<g id="edge7_Node000007_Node000008" class="edge">
<title>Node7&#45;&gt;Node8</title>
<g id="a_edge7_Node000007_Node000008"><a xlink:title=" ">
<path fill="none" stroke="#63b8ff" d="M680.14,-46.25C693.02,-46.25 706.81,-46.25 720.07,-46.25"/>
<polygon fill="#63b8ff" stroke="#63b8ff" points="720.04,-49.75 730.04,-46.25 720.04,-42.75 720.04,-49.75"/>
</a>
</g>
</g>
<!-- Node10 -->
<g id="Node000010" class="node">
<title>Node10</title>
<g id="a_Node000010"><a xlink:href="a02346.html#ad1d30ecbf6bff6457b680aa940281072" target="_top" xlink:title=" ">
<polygon fill="white" stroke="#666666" points="857.25,-18.5 718.25,-18.5 718.25,0 857.25,0 857.25,-18.5"/>
<text text-anchor="middle" x="787.75" y="-5" font-family="Helvetica,sans-Serif" font-size="10.00">async_completion_complete</text>
</a>
</g>
</g>
<!-- Node9&#45;&gt;Node10 -->
<g id="edge9_Node000009_Node000010" class="edge">
<title>Node9&#45;&gt;Node10</title>
<g id="a_edge9_Node000009_Node000010"><a xlink:title=" ">
<path fill="none" stroke="#63b8ff" d="M682.44,-9.25C690.44,-9.25 698.76,-9.25 707.05,-9.25"/>
<polygon fill="#63b8ff" stroke="#63b8ff" points="706.9,-12.75 716.9,-9.25 706.9,-5.75 706.9,-12.75"/>
</a>
</g>
</g>
</g>
</svg>
