<?xml version="1.0" encoding="UTF-8" standalone="no"?>
<!DOCTYPE svg PUBLIC "-//W3C//DTD SVG 1.1//EN"
 "http://www.w3.org/Graphics/SVG/1.1/DTD/svg11.dtd">
<!-- Generated by graphviz version 12.2.1 (0)
 -->
<!-- Title: arax_proc_get Pages: 1 -->
<svg width="381pt" height="82pt"
 viewBox="0.00 0.00 380.75 81.50" xmlns="http://www.w3.org/2000/svg" xmlns:xlink="http://www.w3.org/1999/xlink">
<g id="graph0" class="graph" transform="scale(1 1) rotate(0) translate(4 77.5)">
<title>arax_proc_get</title>
<!-- Node1 -->
<g id="Node000001" class="node">
<title>Node1</title>
<g id="a_Node000001"><a xlink:title=" ">
<polygon fill="#999999" stroke="#666666" points="78.25,-54.5 0,-54.5 0,-36 78.25,-36 78.25,-54.5"/>
<text text-anchor="middle" x="39.12" y="-41" font-family="Helvetica,sans-Serif" font-size="10.00">arax_proc_get</text>
</a>
</g>
</g>
<!-- Node2 -->
<g id="Node000002" class="node">
<title>Node2</title>
<g id="a_Node000002"><a xlink:href="a01925.html#a9255b8011e6d7c9b28c7df40065efb28" target="_top" xlink:title=" ">
<polygon fill="white" stroke="#666666" points="216.88,-73.5 115.38,-73.5 115.38,-55 216.88,-55 216.88,-73.5"/>
<text text-anchor="middle" x="166.12" y="-60" font-family="Helvetica,sans-Serif" font-size="10.00">arax_object_ref_inc</text>
</a>
</g>
</g>
<!-- Node1&#45;&gt;Node2 -->
<g id="edge1_Node000001_Node000002" class="edge">
<title>Node1&#45;&gt;Node2</title>
<g id="a_edge1_Node000001_Node000002"><a xlink:title=" ">
<path fill="none" stroke="#63b8ff" d="M78.65,-51.11C86.63,-52.32 95.22,-53.63 103.79,-54.93"/>
<polygon fill="#63b8ff" stroke="#63b8ff" points="103.07,-58.36 113.48,-56.4 104.12,-51.44 103.07,-58.36"/>
</a>
</g>
</g>
<!-- Node3 -->
<g id="Node000003" class="node">
<title>Node3</title>
<g id="a_Node000003"><a xlink:href="a01928.html#a4c22ae41507232dc3efc725428cbfc7b" target="_top" xlink:title=" ">
<polygon fill="white" stroke="#666666" points="218,-36.5 114.25,-36.5 114.25,-18 218,-18 218,-36.5"/>
<text text-anchor="middle" x="166.12" y="-23" font-family="Helvetica,sans-Serif" font-size="10.00">arax_pipe_find_proc</text>
</a>
</g>
</g>
<!-- Node1&#45;&gt;Node3 -->
<g id="edge2_Node000001_Node000003" class="edge">
<title>Node1&#45;&gt;Node3</title>
<g id="a_edge2_Node000001_Node000003"><a xlink:title=" ">
<path fill="none" stroke="#63b8ff" d="M78.65,-39.7C86.34,-38.59 94.61,-37.4 102.87,-36.22"/>
<polygon fill="#63b8ff" stroke="#63b8ff" points="103.17,-39.71 112.57,-34.82 102.18,-32.78 103.17,-39.71"/>
</a>
</g>
</g>
<!-- Node4 -->
<g id="Node000004" class="node">
<title>Node4</title>
<g id="a_Node000004"><a xlink:href="a01925.html#aa750d1c54fe430c1294b9c8a9d3e1466" target="_top" xlink:title=" ">
<polygon fill="white" stroke="#666666" points="367.5,-55.5 259.25,-55.5 259.25,-37 367.5,-37 367.5,-55.5"/>
<text text-anchor="middle" x="313.38" y="-42" font-family="Helvetica,sans-Serif" font-size="10.00">arax_object_list_lock</text>
</a>
</g>
</g>
<!-- Node3&#45;&gt;Node4 -->
<g id="edge3_Node000003_Node000004" class="edge">
<title>Node3&#45;&gt;Node4</title>
<g id="a_edge3_Node000003_Node000004"><a xlink:title=" ">
<path fill="none" stroke="#63b8ff" d="M218.33,-33.95C227.95,-35.21 238.11,-36.54 248.06,-37.84"/>
<polygon fill="#63b8ff" stroke="#63b8ff" points="247.3,-41.27 257.67,-39.09 248.21,-34.33 247.3,-41.27"/>
</a>
</g>
</g>
<!-- Node5 -->
<g id="Node000005" class="node">
<title>Node5</title>
<g id="a_Node000005"><a xlink:href="a01925.html#abb03d3cde2d1354544cd082482c3f185" target="_top" xlink:title=" ">
<polygon fill="white" stroke="#666666" points="372.75,-18.5 254,-18.5 254,0 372.75,0 372.75,-18.5"/>
<text text-anchor="middle" x="313.38" y="-5" font-family="Helvetica,sans-Serif" font-size="10.00">arax_object_list_unlock</text>
</a>
</g>
</g>
<!-- Node3&#45;&gt;Node5 -->
<g id="edge4_Node000003_Node000005" class="edge">
<title>Node3&#45;&gt;Node5</title>
<g id="a_edge4_Node000003_Node000005"><a xlink:title=" ">
<path fill="none" stroke="#63b8ff" d="M218.33,-20.9C226.11,-19.94 234.24,-18.93 242.33,-17.93"/>
<polygon fill="#63b8ff" stroke="#63b8ff" points="242.7,-21.41 252.19,-16.71 241.84,-14.46 242.7,-21.41"/>
</a>
</g>
</g>
</g>
</svg>
