<?xml version="1.0" encoding="UTF-8" standalone="no"?>
<!DOCTYPE svg PUBLIC "-//W3C//DTD SVG 1.1//EN"
 "http://www.w3.org/Graphics/SVG/1.1/DTD/svg11.dtd">
<!-- Generated by graphviz version 12.2.1 (0)
 -->
<!-- Title: arax_accel_acquire_phys Pages: 1 -->
<svg width="1049pt" height="432pt"
 viewBox="0.00 0.00 1048.50 431.50" xmlns="http://www.w3.org/2000/svg" xmlns:xlink="http://www.w3.org/1999/xlink">
<g id="graph0" class="graph" transform="scale(1 1) rotate(0) translate(4 427.5)">
<title>arax_accel_acquire_phys</title>
<!-- Node1 -->
<g id="Node000001" class="node">
<title>Node1</title>
<g id="a_Node000001"><a xlink:title=" ">
<polygon fill="#999999" stroke="#666666" points="126.25,-92.5 0,-92.5 0,-74 126.25,-74 126.25,-92.5"/>
<text text-anchor="middle" x="63.12" y="-79" font-family="Helvetica,sans-Serif" font-size="10.00">arax_accel_acquire_phys</text>
</a>
</g>
</g>
<!-- Node2 -->
<g id="Node000002" class="node">
<title>Node2</title>
<g id="a_Node000002"><a xlink:href="a01943.html#a83ddb422946cf774c687c1ab63dcda15" target="_top" xlink:title=" ">
<polygon fill="white" stroke="#666666" points="248.75,-92.5 162.25,-92.5 162.25,-74 248.75,-74 248.75,-92.5"/>
<text text-anchor="middle" x="205.5" y="-79" font-family="Helvetica,sans-Serif" font-size="10.00">arax_vaccel_init</text>
</a>
</g>
</g>
<!-- Node1&#45;&gt;Node2 -->
<g id="edge1_Node000001_Node000002" class="edge">
<title>Node1&#45;&gt;Node2</title>
<g id="a_edge1_Node000001_Node000002"><a xlink:title=" ">
<path fill="none" stroke="#63b8ff" d="M126.51,-83.25C134.58,-83.25 142.79,-83.25 150.7,-83.25"/>
<polygon fill="#63b8ff" stroke="#63b8ff" points="150.52,-86.75 160.52,-83.25 150.52,-79.75 150.52,-86.75"/>
</a>
</g>
</g>
<!-- Node3 -->
<g id="Node000003" class="node">
<title>Node3</title>
<g id="a_Node000003"><a xlink:href="a01916.html#af0b933c02a24d69c1efa40179f60288f" target="_top" xlink:title=" ">
<polygon fill="white" stroke="#666666" points="543.25,-282.5 425.25,-282.5 425.25,-264 543.25,-264 543.25,-282.5"/>
<text text-anchor="middle" x="484.25" y="-269" font-family="Helvetica,sans-Serif" font-size="10.00">arax_accel_add_vaccel</text>
</a>
</g>
</g>
<!-- Node2&#45;&gt;Node3 -->
<g id="edge2_Node000002_Node000003" class="edge">
<title>Node2&#45;&gt;Node3</title>
<g id="a_edge2_Node000002_Node000003"><a xlink:title=" ">
<path fill="none" stroke="#63b8ff" d="M218.49,-92.89C233.67,-104.99 260.73,-126.21 284.75,-143.25 345.82,-186.57 420.23,-233.91 458.26,-257.72"/>
<polygon fill="#63b8ff" stroke="#63b8ff" points="455.92,-260.39 466.26,-262.72 459.63,-254.45 455.92,-260.39"/>
</a>
</g>
</g>
<!-- Node19 -->
<g id="Node000019" class="node">
<title>Node19</title>
<g id="a_Node000019"><a xlink:href="a01925.html#a402bbd6fa197c2c48d527325e5e2cf5b" target="_top" xlink:title=" ">
<polygon fill="white" stroke="#666666" points="389.25,-92.5 284.75,-92.5 284.75,-74 389.25,-74 389.25,-92.5"/>
<text text-anchor="middle" x="337" y="-79" font-family="Helvetica,sans-Serif" font-size="10.00">arax_object_register</text>
</a>
</g>
</g>
<!-- Node2&#45;&gt;Node19 -->
<g id="edge20_Node000002_Node000019" class="edge">
<title>Node2&#45;&gt;Node19</title>
<g id="a_edge20_Node000002_Node000019"><a xlink:title=" ">
<path fill="none" stroke="#63b8ff" d="M248.9,-83.25C256.62,-83.25 264.83,-83.25 273,-83.25"/>
<polygon fill="#63b8ff" stroke="#63b8ff" points="272.95,-86.75 282.95,-83.25 272.95,-79.75 272.95,-86.75"/>
</a>
</g>
</g>
<!-- Node25 -->
<g id="Node000025" class="node">
<title>Node25</title>
<g id="a_Node000025"><a xlink:href="a01955.html#a63f2791c9b5c8e2fa15967cfafb7ccbb" target="_top" xlink:title=" ">
<polygon fill="white" stroke="#666666" points="532.38,-18.5 436.12,-18.5 436.12,0 532.38,0 532.38,-18.5"/>
<text text-anchor="middle" x="484.25" y="-5" font-family="Helvetica,sans-Serif" font-size="10.00">utils_list_node_init</text>
</a>
</g>
</g>
<!-- Node2&#45;&gt;Node25 -->
<g id="edge39_Node000002_Node000025" class="edge">
<title>Node2&#45;&gt;Node25</title>
<g id="a_edge39_Node000002_Node000025"><a xlink:title=" ">
<path fill="none" stroke="#63b8ff" d="M242.68,-73.58C292.3,-60.31 381.53,-36.45 436.26,-21.81"/>
<polygon fill="#63b8ff" stroke="#63b8ff" points="436.84,-25.28 445.6,-19.32 435.03,-18.52 436.84,-25.28"/>
</a>
</g>
</g>
<!-- Node26 -->
<g id="Node000026" class="node">
<title>Node26</title>
<g id="a_Node000026"><a xlink:href="a01928.html#aa4461ab1d225a0f76f08d2f37a4a7e0e" target="_top" xlink:title=" ">
<polygon fill="white" stroke="#666666" points="541.75,-194.75 426.75,-194.75 426.75,-165.75 541.75,-165.75 541.75,-194.75"/>
<text text-anchor="start" x="434.75" y="-181.25" font-family="Helvetica,sans-Serif" font-size="10.00">arax_pipe_add_orphan</text>
<text text-anchor="middle" x="484.25" y="-170.75" font-family="Helvetica,sans-Serif" font-size="10.00">_vaccel</text>
</a>
</g>
</g>
<!-- Node2&#45;&gt;Node26 -->
<g id="edge34_Node000002_Node000026" class="edge">
<title>Node2&#45;&gt;Node26</title>
<g id="a_edge34_Node000002_Node000026"><a xlink:title=" ">
<path fill="none" stroke="#63b8ff" d="M234.3,-92.99C279.98,-109.01 371.67,-141.14 430.11,-161.63"/>
<polygon fill="#63b8ff" stroke="#63b8ff" points="428.6,-164.8 439.19,-164.81 430.91,-158.2 428.6,-164.8"/>
</a>
</g>
</g>
<!-- Node27 -->
<g id="Node000027" class="node">
<title>Node27</title>
<g id="a_Node000027"><a xlink:href="a01958.html#a49c353188156b1df4463a5fc7f7bc25e" target="_top" xlink:title=" ">
<polygon fill="white" stroke="#666666" points="378.75,-18.5 295.25,-18.5 295.25,0 378.75,0 378.75,-18.5"/>
<text text-anchor="middle" x="337" y="-5" font-family="Helvetica,sans-Serif" font-size="10.00">utils_queue_init</text>
</a>
</g>
</g>
<!-- Node2&#45;&gt;Node27 -->
<g id="edge40_Node000002_Node000027" class="edge">
<title>Node2&#45;&gt;Node27</title>
<g id="a_edge40_Node000002_Node000027"><a xlink:title=" ">
<path fill="none" stroke="#63b8ff" d="M219.95,-73.55C235.24,-62.76 261.12,-45.15 284.75,-32.25 290.26,-29.24 296.24,-26.29 302.11,-23.56"/>
<polygon fill="#63b8ff" stroke="#63b8ff" points="303.35,-26.84 311.03,-19.54 300.48,-20.46 303.35,-26.84"/>
</a>
</g>
</g>
<!-- Node4 -->
<g id="Node000004" class="node">
<title>Node4</title>
<g id="a_Node000004"><a xlink:href="a01916.html#aed864d2fab73a39a8c98356f7bca1304" target="_top" xlink:title=" ">
<polygon fill="white" stroke="#666666" points="705.12,-423.5 584.12,-423.5 584.12,-405 705.12,-405 705.12,-423.5"/>
<text text-anchor="middle" x="644.62" y="-410" font-family="Helvetica,sans-Serif" font-size="10.00">arax_accel_inc_revision</text>
</a>
</g>
</g>
<!-- Node3&#45;&gt;Node4 -->
<g id="edge3_Node000003_Node000004" class="edge">
<title>Node3&#45;&gt;Node4</title>
<g id="a_edge3_Node000003_Node000004"><a xlink:title=" ">
<path fill="none" stroke="#63b8ff" d="M489.91,-282.83C501.6,-305.83 534.47,-364.57 579.25,-395.25 581.78,-396.98 584.46,-398.56 587.25,-399.99"/>
<polygon fill="#63b8ff" stroke="#63b8ff" points="585.73,-403.14 596.29,-403.98 588.55,-396.74 585.73,-403.14"/>
</a>
</g>
</g>
<!-- Node5 -->
<g id="Node000005" class="node">
<title>Node5</title>
<g id="a_Node000005"><a xlink:href="a01928.html#aa5172b735dddd3f77fbb0265bbcdfc20" target="_top" xlink:title=" ">
<polygon fill="white" stroke="#666666" points="710,-349.75 579.25,-349.75 579.25,-320.75 710,-320.75 710,-349.75"/>
<text text-anchor="start" x="587.25" y="-336.25" font-family="Helvetica,sans-Serif" font-size="10.00">arax_pipe_remove_orphan</text>
<text text-anchor="middle" x="644.62" y="-325.75" font-family="Helvetica,sans-Serif" font-size="10.00">_vaccel</text>
</a>
</g>
</g>
<!-- Node3&#45;&gt;Node5 -->
<g id="edge4_Node000003_Node000005" class="edge">
<title>Node3&#45;&gt;Node5</title>
<g id="a_edge4_Node000003_Node000005"><a xlink:title=" ">
<path fill="none" stroke="#63b8ff" d="M510,-282.94C532.68,-291.82 566.9,-305.22 595.04,-316.23"/>
<polygon fill="#63b8ff" stroke="#63b8ff" points="593.49,-319.38 604.08,-319.77 596.04,-312.86 593.49,-319.38"/>
</a>
</g>
</g>
<!-- Node6 -->
<g id="Node000006" class="node">
<title>Node6</title>
<g id="a_Node000006"><a xlink:href="a02364.html#aed6af4d83e934e3e654ead541b15f2d9" target="_top" xlink:title=" ">
<polygon fill="white" stroke="#666666" points="860.25,-189.5 751.25,-189.5 751.25,-171 860.25,-171 860.25,-189.5"/>
<text text-anchor="middle" x="805.75" y="-176" font-family="Helvetica,sans-Serif" font-size="10.00">async_condition_lock</text>
</a>
</g>
</g>
<!-- Node3&#45;&gt;Node6 -->
<g id="edge14_Node000003_Node000006" class="edge">
<title>Node3&#45;&gt;Node6</title>
<g id="a_edge14_Node000003_Node000006"><a xlink:title=" ">
<path fill="none" stroke="#63b8ff" d="M529.85,-282.96C576.65,-290.97 651.42,-297.51 710,-273.25 730.91,-264.59 729.88,-253.13 746,-237.25 759.55,-223.9 775,-208.92 786.65,-197.67"/>
<polygon fill="#63b8ff" stroke="#63b8ff" points="788.87,-200.4 793.64,-190.94 784.01,-195.36 788.87,-200.4"/>
</a>
</g>
</g>
<!-- Node8 -->
<g id="Node000008" class="node">
<title>Node8</title>
<g id="a_Node000008"><a xlink:href="a02364.html#a3bbcb7c4c024e99d5c4ba52b61dfbbf7" target="_top" xlink:title=" ">
<polygon fill="white" stroke="#666666" points="865.5,-151.5 746,-151.5 746,-133 865.5,-133 865.5,-151.5"/>
<text text-anchor="middle" x="805.75" y="-138" font-family="Helvetica,sans-Serif" font-size="10.00">async_condition_unlock</text>
</a>
</g>
</g>
<!-- Node3&#45;&gt;Node8 -->
<g id="edge17_Node000003_Node000008" class="edge">
<title>Node3&#45;&gt;Node8</title>
<g id="a_edge17_Node000003_Node000008"><a xlink:title=" ">
<path fill="none" stroke="#63b8ff" d="M506.33,-263.65C550.4,-243.7 655.7,-196.79 746,-162.25 751.79,-160.04 757.94,-157.81 764,-155.68"/>
<polygon fill="#63b8ff" stroke="#63b8ff" points="764.96,-159.05 773.28,-152.49 762.68,-152.44 764.96,-159.05"/>
</a>
</g>
</g>
<!-- Node12 -->
<g id="Node000012" class="node">
<title>Node12</title>
<g id="a_Node000012"><a xlink:href="a01943.html#ab2fa3d6e6c761009b464cc0fbedc6a16" target="_top" xlink:title=" ">
<polygon fill="white" stroke="#666666" points="705.88,-386.5 583.38,-386.5 583.38,-368 705.88,-368 705.88,-386.5"/>
<text text-anchor="middle" x="644.62" y="-373" font-family="Helvetica,sans-Serif" font-size="10.00">arax_vaccel_queue_size</text>
</a>
</g>
</g>
<!-- Node3&#45;&gt;Node12 -->
<g id="edge11_Node000003_Node000012" class="edge">
<title>Node3&#45;&gt;Node12</title>
<g id="a_edge11_Node000003_Node000012"><a xlink:title=" ">
<path fill="none" stroke="#63b8ff" d="M492.98,-282.82C507.81,-300.57 542.12,-338.64 579.25,-359.25 582.06,-360.81 585.01,-362.24 588.04,-363.55"/>
<polygon fill="#63b8ff" stroke="#63b8ff" points="586.56,-366.74 597.15,-367.04 589.06,-360.2 586.56,-366.74"/>
</a>
</g>
</g>
<!-- Node15 -->
<g id="Node000015" class="node">
<title>Node15</title>
<g id="a_Node000015"><a xlink:href="a02364.html#a45a896fb606c2aa66a5a4c2af59ce494" target="_top" xlink:title=" ">
<polygon fill="white" stroke="#666666" points="702.12,-264.5 587.12,-264.5 587.12,-246 702.12,-246 702.12,-264.5"/>
<text text-anchor="middle" x="644.62" y="-251" font-family="Helvetica,sans-Serif" font-size="10.00">async_condition_notify</text>
</a>
</g>
</g>
<!-- Node3&#45;&gt;Node15 -->
<g id="edge15_Node000003_Node000015" class="edge">
<title>Node3&#45;&gt;Node15</title>
<g id="a_edge15_Node000003_Node000015"><a xlink:title=" ">
<path fill="none" stroke="#63b8ff" d="M543.32,-266.65C553.87,-265.45 564.96,-264.19 575.76,-262.96"/>
<polygon fill="#63b8ff" stroke="#63b8ff" points="575.83,-266.48 585.38,-261.87 575.04,-259.52 575.83,-266.48"/>
</a>
</g>
</g>
<!-- Node17 -->
<g id="Node000017" class="node">
<title>Node17</title>
<g id="a_Node000017"><a xlink:href="a01955.html#ae06a9e78e6a4f6c9c8afcf0f4862ce29" target="_top" xlink:title=" ">
<polygon fill="white" stroke="#666666" points="681.12,-59.5 608.12,-59.5 608.12,-41 681.12,-41 681.12,-59.5"/>
<text text-anchor="middle" x="644.62" y="-46" font-family="Helvetica,sans-Serif" font-size="10.00">utils_list_add</text>
</a>
</g>
</g>
<!-- Node3&#45;&gt;Node17 -->
<g id="edge18_Node000003_Node000017" class="edge">
<title>Node3&#45;&gt;Node17</title>
<g id="a_edge18_Node000003_Node000017"><a xlink:title=" ">
<path fill="none" stroke="#63b8ff" d="M495.87,-263.55C508.91,-251.07 530.83,-228.13 543.25,-204.25 571.91,-149.16 535.92,-113.73 579.25,-69.25 584.21,-64.16 590.47,-60.41 597.12,-57.66"/>
<polygon fill="#63b8ff" stroke="#63b8ff" points="597.95,-61.07 606.33,-54.59 595.73,-54.43 597.95,-61.07"/>
</a>
</g>
</g>
<!-- Node5&#45;&gt;Node6 -->
<g id="edge5_Node000005_Node000006" class="edge">
<title>Node5&#45;&gt;Node6</title>
<g id="a_edge5_Node000005_Node000006"><a xlink:title=" ">
<path fill="none" stroke="#63b8ff" d="M689.31,-320.39C696.77,-316.56 704.03,-311.89 710,-306.25 735.15,-282.51 725.32,-264.98 746,-237.25 757.1,-222.36 772.18,-207.82 784.28,-197.15"/>
<polygon fill="#63b8ff" stroke="#63b8ff" points="786.38,-199.96 791.69,-190.79 781.82,-194.65 786.38,-199.96"/>
</a>
</g>
</g>
<!-- Node5&#45;&gt;Node8 -->
<g id="edge7_Node000005_Node000008" class="edge">
<title>Node5&#45;&gt;Node8</title>
<g id="a_edge7_Node000005_Node000008"><a xlink:title=" ">
<path fill="none" stroke="#63b8ff" d="M665.6,-320.43C679.79,-308.96 698.32,-291.93 710,-273.25 737.5,-229.28 709.59,-199.19 746,-162.25 747.59,-160.64 749.31,-159.16 751.14,-157.79"/>
<polygon fill="#63b8ff" stroke="#63b8ff" points="752.87,-160.84 759.66,-152.7 749.28,-154.83 752.87,-160.84"/>
</a>
</g>
</g>
<!-- Node10 -->
<g id="Node000010" class="node">
<title>Node10</title>
<g id="a_Node000010"><a xlink:href="a01955.html#a0c85e5516222ab7e7fc354c614760ec5" target="_top" xlink:title=" ">
<polygon fill="white" stroke="#666666" points="840.75,-308.5 770.75,-308.5 770.75,-290 840.75,-290 840.75,-308.5"/>
<text text-anchor="middle" x="805.75" y="-295" font-family="Helvetica,sans-Serif" font-size="10.00">utils_list_del</text>
</a>
</g>
</g>
<!-- Node5&#45;&gt;Node10 -->
<g id="edge9_Node000005_Node000010" class="edge">
<title>Node5&#45;&gt;Node10</title>
<g id="a_edge9_Node000005_Node000010"><a xlink:title=" ">
<path fill="none" stroke="#63b8ff" d="M710.35,-320.61C726.8,-316.88 744.14,-312.96 759.4,-309.51"/>
<polygon fill="#63b8ff" stroke="#63b8ff" points="760.16,-312.93 769.14,-307.31 758.61,-306.1 760.16,-312.93"/>
</a>
</g>
</g>
<!-- Node11 -->
<g id="Node000011" class="node">
<title>Node11</title>
<g id="a_Node000011"><a xlink:href="a01955.html#ab0c44e095ebfd8721de878c42abcbbdc" target="_top" xlink:title=" ">
<polygon fill="white" stroke="#666666" points="859.88,-345.5 751.62,-345.5 751.62,-327 859.88,-327 859.88,-345.5"/>
<text text-anchor="middle" x="805.75" y="-332" font-family="Helvetica,sans-Serif" font-size="10.00">utils_list_node_linked</text>
</a>
</g>
</g>
<!-- Node5&#45;&gt;Node11 -->
<g id="edge10_Node000005_Node000011" class="edge">
<title>Node5&#45;&gt;Node11</title>
<g id="a_edge10_Node000005_Node000011"><a xlink:title=" ">
<path fill="none" stroke="#63b8ff" d="M710.35,-335.66C720.12,-335.72 730.2,-335.78 739.97,-335.84"/>
<polygon fill="#63b8ff" stroke="#63b8ff" points="739.73,-339.34 749.75,-335.9 739.77,-332.34 739.73,-339.34"/>
</a>
</g>
</g>
<!-- Node7 -->
<g id="Node000007" class="node">
<title>Node7</title>
<g id="a_Node000007"><a xlink:href="a02358.html#aebf9e72bb6cbd8b9e33489d46c25075d" target="_top" xlink:title=" ">
<polygon fill="white" stroke="#666666" points="1029.25,-188.5 912.75,-188.5 912.75,-170 1029.25,-170 1029.25,-188.5"/>
<text text-anchor="middle" x="971" y="-175" font-family="Helvetica,sans-Serif" font-size="10.00">async_completion_wait</text>
</a>
</g>
</g>
<!-- Node6&#45;&gt;Node7 -->
<g id="edge6_Node000006_Node000007" class="edge">
<title>Node6&#45;&gt;Node7</title>
<g id="a_edge6_Node000006_Node000007"><a xlink:title=" ">
<path fill="none" stroke="#63b8ff" d="M860.66,-179.92C873.64,-179.84 887.69,-179.75 901.26,-179.67"/>
<polygon fill="#63b8ff" stroke="#63b8ff" points="901.01,-183.17 910.99,-179.61 900.97,-176.17 901.01,-183.17"/>
</a>
</g>
</g>
<!-- Node9 -->
<g id="Node000009" class="node">
<title>Node9</title>
<g id="a_Node000009"><a xlink:href="a02358.html#ad1d30ecbf6bff6457b680aa940281072" target="_top" xlink:title=" ">
<polygon fill="white" stroke="#666666" points="1040.5,-151.5 901.5,-151.5 901.5,-133 1040.5,-133 1040.5,-151.5"/>
<text text-anchor="middle" x="971" y="-138" font-family="Helvetica,sans-Serif" font-size="10.00">async_completion_complete</text>
</a>
</g>
</g>
<!-- Node8&#45;&gt;Node9 -->
<g id="edge8_Node000008_Node000009" class="edge">
<title>Node8&#45;&gt;Node9</title>
<g id="a_edge8_Node000008_Node000009"><a xlink:title=" ">
<path fill="none" stroke="#63b8ff" d="M865.69,-142.25C873.51,-142.25 881.63,-142.25 889.74,-142.25"/>
<polygon fill="#63b8ff" stroke="#63b8ff" points="889.64,-145.75 899.64,-142.25 889.64,-138.75 889.64,-145.75"/>
</a>
</g>
</g>
<!-- Node13 -->
<g id="Node000013" class="node">
<title>Node13</title>
<g id="a_Node000013"><a xlink:href="a01943.html#afe1eb3edd264c847c36e9456b2598452" target="_top" xlink:title=" ">
<polygon fill="white" stroke="#666666" points="855.75,-384.5 755.75,-384.5 755.75,-366 855.75,-366 855.75,-384.5"/>
<text text-anchor="middle" x="805.75" y="-371" font-family="Helvetica,sans-Serif" font-size="10.00">arax_vaccel_queue</text>
</a>
</g>
</g>
<!-- Node12&#45;&gt;Node13 -->
<g id="edge12_Node000012_Node000013" class="edge">
<title>Node12&#45;&gt;Node13</title>
<g id="a_edge12_Node000012_Node000013"><a xlink:title=" ">
<path fill="none" stroke="#63b8ff" d="M706.24,-376.49C718.68,-376.33 731.77,-376.17 744.21,-376.01"/>
<polygon fill="#63b8ff" stroke="#63b8ff" points="743.94,-379.51 753.9,-375.89 743.85,-372.52 743.94,-379.51"/>
</a>
</g>
</g>
<!-- Node14 -->
<g id="Node000014" class="node">
<title>Node14</title>
<g id="a_Node000014"><a xlink:href="a01958.html#a5d84d59bded666fdcf1a8e949cb56a6a" target="_top" xlink:title=" ">
<polygon fill="white" stroke="#666666" points="864.75,-421.5 746.75,-421.5 746.75,-403 864.75,-403 864.75,-421.5"/>
<text text-anchor="middle" x="805.75" y="-408" font-family="Helvetica,sans-Serif" font-size="10.00">utils_queue_used_slots</text>
</a>
</g>
</g>
<!-- Node12&#45;&gt;Node14 -->
<g id="edge13_Node000012_Node000014" class="edge">
<title>Node12&#45;&gt;Node14</title>
<g id="a_edge13_Node000012_Node000014"><a xlink:title=" ">
<path fill="none" stroke="#63b8ff" d="M689.95,-387C708.4,-391.06 730.02,-395.81 749.49,-400.09"/>
<polygon fill="#63b8ff" stroke="#63b8ff" points="748.67,-403.5 759.18,-402.23 750.17,-396.66 748.67,-403.5"/>
</a>
</g>
</g>
<!-- Node16 -->
<g id="Node000016" class="node">
<title>Node16</title>
<g id="a_Node000016"><a xlink:href="a02358.html#a0fa370eee5160963e617d1daf1c07363" target="_top" xlink:title=" ">
<polygon fill="white" stroke="#666666" points="862.12,-264.5 749.38,-264.5 749.38,-246 862.12,-246 862.12,-264.5"/>
<text text-anchor="middle" x="805.75" y="-251" font-family="Helvetica,sans-Serif" font-size="10.00">async_semaphore_inc</text>
</a>
</g>
</g>
<!-- Node15&#45;&gt;Node16 -->
<g id="edge16_Node000015_Node000016" class="edge">
<title>Node15&#45;&gt;Node16</title>
<g id="a_edge16_Node000015_Node000016"><a xlink:title=" ">
<path fill="none" stroke="#63b8ff" d="M702.62,-255.25C713.93,-255.25 725.89,-255.25 737.5,-255.25"/>
<polygon fill="#63b8ff" stroke="#63b8ff" points="737.44,-258.75 747.44,-255.25 737.44,-251.75 737.44,-258.75"/>
</a>
</g>
</g>
<!-- Node18 -->
<g id="Node000018" class="node">
<title>Node18</title>
<g id="a_Node000018"><a xlink:href="a01955.html#a5c575f52a42e0e0d2fb41bda2d1268ce" target="_top" xlink:title=" ">
<polygon fill="white" stroke="#666666" points="855.38,-59.5 756.12,-59.5 756.12,-41 855.38,-41 855.38,-59.5"/>
<text text-anchor="middle" x="805.75" y="-46" font-family="Helvetica,sans-Serif" font-size="10.00">utils_list_node_add</text>
</a>
</g>
</g>
<!-- Node17&#45;&gt;Node18 -->
<g id="edge19_Node000017_Node000018" class="edge">
<title>Node17&#45;&gt;Node18</title>
<g id="a_edge19_Node000017_Node000018"><a xlink:title=" ">
<path fill="none" stroke="#63b8ff" d="M681.34,-50.25C699.98,-50.25 723.29,-50.25 744.62,-50.25"/>
<polygon fill="#63b8ff" stroke="#63b8ff" points="744.37,-53.75 754.37,-50.25 744.37,-46.75 744.37,-53.75"/>
</a>
</g>
</g>
<!-- Node19&#45;&gt;Node17 -->
<g id="edge32_Node000019_Node000017" class="edge">
<title>Node19&#45;&gt;Node17</title>
<g id="a_edge32_Node000019_Node000017"><a xlink:title=" ">
<path fill="none" stroke="#63b8ff" d="M379.08,-73.59C393.59,-70.49 410.08,-67.33 425.25,-65.25 484.01,-57.21 552.28,-53.4 596.63,-51.65"/>
<polygon fill="#63b8ff" stroke="#63b8ff" points="596.54,-55.15 606.41,-51.28 596.28,-48.16 596.54,-55.15"/>
</a>
</g>
</g>
<!-- Node20 -->
<g id="Node000020" class="node">
<title>Node20</title>
<g id="a_Node000020"><a xlink:href="a01928.html#a6cc54ee40009c61b5f6526f5edff004f" target="_top" xlink:title=" ">
<polygon fill="white" stroke="#666666" points="535.38,-129.5 433.12,-129.5 433.12,-111 535.38,-111 535.38,-129.5"/>
<text text-anchor="middle" x="484.25" y="-116" font-family="Helvetica,sans-Serif" font-size="10.00">arax_pipe_size_dec</text>
</a>
</g>
</g>
<!-- Node19&#45;&gt;Node20 -->
<g id="edge21_Node000019_Node000020" class="edge">
<title>Node19&#45;&gt;Node20</title>
<g id="a_edge21_Node000019_Node000020"><a xlink:title=" ">
<path fill="none" stroke="#63b8ff" d="M376.16,-92.97C393.86,-97.48 415.1,-102.89 433.99,-107.7"/>
<polygon fill="#63b8ff" stroke="#63b8ff" points="433.07,-111.08 443.62,-110.16 434.8,-104.3 433.07,-111.08"/>
</a>
</g>
</g>
<!-- Node24 -->
<g id="Node000024" class="node">
<title>Node24</title>
<g id="a_Node000024"><a xlink:href="a02355.html#ac9828b5c2758940f6d3c7d4335228de5" target="_top" xlink:title=" ">
<polygon fill="white" stroke="#666666" points="533.88,-92.5 434.62,-92.5 434.62,-74 533.88,-74 533.88,-92.5"/>
<text text-anchor="middle" x="484.25" y="-79" font-family="Helvetica,sans-Serif" font-size="10.00">arch_alloc_allocate</text>
</a>
</g>
</g>
<!-- Node19&#45;&gt;Node24 -->
<g id="edge31_Node000019_Node000024" class="edge">
<title>Node19&#45;&gt;Node24</title>
<g id="a_edge31_Node000019_Node000024"><a xlink:title=" ">
<path fill="none" stroke="#63b8ff" d="M389.62,-83.25C400.39,-83.25 411.84,-83.25 422.89,-83.25"/>
<polygon fill="#63b8ff" stroke="#63b8ff" points="422.72,-86.75 432.72,-83.25 422.72,-79.75 422.72,-86.75"/>
</a>
</g>
</g>
<!-- Node19&#45;&gt;Node25 -->
<g id="edge33_Node000019_Node000025" class="edge">
<title>Node19&#45;&gt;Node25</title>
<g id="a_edge33_Node000019_Node000025"><a xlink:title=" ">
<path fill="none" stroke="#63b8ff" d="M362.85,-73.52C371.44,-69.79 380.98,-65.23 389.25,-60.25 406.62,-49.8 407.65,-42.31 425.25,-32.25 431.03,-28.94 437.39,-25.9 443.7,-23.18"/>
<polygon fill="#63b8ff" stroke="#63b8ff" points="444.83,-26.5 452.78,-19.49 442.2,-20.01 444.83,-26.5"/>
</a>
</g>
</g>
<!-- Node20&#45;&gt;Node20 -->
<g id="edge22_Node000020_Node000020" class="edge">
<title>Node20&#45;&gt;Node20</title>
<g id="a_edge22_Node000020_Node000020"><a xlink:title=" ">
<path fill="none" stroke="#63b8ff" d="M461.55,-129.75C450.51,-138.32 458.08,-147.5 484.25,-147.5 498.97,-147.5 507.81,-144.59 510.75,-140.53"/>
<polygon fill="#63b8ff" stroke="#63b8ff" points="514.08,-139.44 507.45,-131.17 507.48,-141.77 514.08,-139.44"/>
</a>
</g>
</g>
<!-- Node21 -->
<g id="Node000021" class="node">
<title>Node21</title>
<g id="a_Node000021"><a xlink:href="a01940.html#a63b80783cfb3106ec4169ce082f153c0" target="_top" xlink:title=" ">
<polygon fill="white" stroke="#666666" points="701.75,-96.5 587.5,-96.5 587.5,-78 701.75,-78 701.75,-96.5"/>
<text text-anchor="middle" x="644.62" y="-83" font-family="Helvetica,sans-Serif" font-size="10.00">arax_throttle_size_dec</text>
</a>
</g>
</g>
<!-- Node20&#45;&gt;Node21 -->
<g id="edge23_Node000020_Node000021" class="edge">
<title>Node20&#45;&gt;Node21</title>
<g id="a_edge23_Node000020_Node000021"><a xlink:title=" ">
<path fill="none" stroke="#63b8ff" d="M531.91,-110.53C548.83,-107 568.15,-102.98 585.91,-99.28"/>
<polygon fill="#63b8ff" stroke="#63b8ff" points="586.47,-102.74 595.54,-97.27 585.04,-95.88 586.47,-102.74"/>
</a>
</g>
</g>
<!-- Node21&#45;&gt;Node6 -->
<g id="edge25_Node000021_Node000006" class="edge">
<title>Node21&#45;&gt;Node6</title>
<g id="a_edge25_Node000021_Node000006"><a xlink:title=" ">
<path fill="none" stroke="#63b8ff" d="M656.63,-96.99C674.35,-112.27 710.8,-142 746,-160.25 750.42,-162.54 755.17,-164.66 759.97,-166.59"/>
<polygon fill="#63b8ff" stroke="#63b8ff" points="758.47,-169.77 769.06,-169.99 760.91,-163.21 758.47,-169.77"/>
</a>
</g>
</g>
<!-- Node21&#45;&gt;Node8 -->
<g id="edge26_Node000021_Node000008" class="edge">
<title>Node21&#45;&gt;Node8</title>
<g id="a_edge26_Node000021_Node000008"><a xlink:title=" ">
<path fill="none" stroke="#63b8ff" d="M671.96,-96.95C692.16,-104.33 720.77,-114.65 746,-123.25 751.71,-125.2 757.74,-127.2 763.69,-129.15"/>
<polygon fill="#63b8ff" stroke="#63b8ff" points="762.17,-132.34 772.76,-132.1 764.33,-125.68 762.17,-132.34"/>
</a>
</g>
</g>
<!-- Node21&#45;&gt;Node21 -->
<g id="edge24_Node000021_Node000021" class="edge">
<title>Node21&#45;&gt;Node21</title>
<g id="a_edge24_Node000021_Node000021"><a xlink:title=" ">
<path fill="none" stroke="#63b8ff" d="M619.91,-96.75C607.88,-105.32 616.12,-114.5 644.62,-114.5 661.1,-114.5 670.81,-111.43 673.74,-107.19"/>
<polygon fill="#63b8ff" stroke="#63b8ff" points="677.04,-106 669.93,-98.14 670.59,-108.71 677.04,-106"/>
</a>
</g>
</g>
<!-- Node22 -->
<g id="Node000022" class="node">
<title>Node22</title>
<g id="a_Node000022"><a xlink:href="a02364.html#a1bfeaeb9b81855e640d7a67cc9d92b17" target="_top" xlink:title=" ">
<polygon fill="white" stroke="#666666" points="859.88,-114.5 751.62,-114.5 751.62,-96 859.88,-96 859.88,-114.5"/>
<text text-anchor="middle" x="805.75" y="-101" font-family="Helvetica,sans-Serif" font-size="10.00">async_condition_wait</text>
</a>
</g>
</g>
<!-- Node21&#45;&gt;Node22 -->
<g id="edge27_Node000021_Node000022" class="edge">
<title>Node21&#45;&gt;Node22</title>
<g id="a_edge27_Node000021_Node000022"><a xlink:title=" ">
<path fill="none" stroke="#63b8ff" d="M702.17,-93.65C714.42,-95.03 727.45,-96.51 739.99,-97.92"/>
<polygon fill="#63b8ff" stroke="#63b8ff" points="739.48,-101.39 749.81,-99.04 740.27,-94.43 739.48,-101.39"/>
</a>
</g>
</g>
<!-- Node22&#45;&gt;Node7 -->
<g id="edge29_Node000022_Node000007" class="edge">
<title>Node22&#45;&gt;Node7</title>
<g id="a_edge29_Node000022_Node000007"><a xlink:title=" ">
<path fill="none" stroke="#63b8ff" d="M845.52,-114.9C852.43,-117.41 859.37,-120.5 865.5,-124.25 884.8,-136.06 881.95,-148.85 901.5,-160.25 904.85,-162.21 908.42,-163.97 912.09,-165.55"/>
<polygon fill="#63b8ff" stroke="#63b8ff" points="910.63,-168.74 921.22,-169.03 913.12,-162.2 910.63,-168.74"/>
</a>
</g>
</g>
<!-- Node22&#45;&gt;Node9 -->
<g id="edge28_Node000022_Node000009" class="edge">
<title>Node22&#45;&gt;Node9</title>
<g id="a_edge28_Node000022_Node000009"><a xlink:title=" ">
<path fill="none" stroke="#63b8ff" d="M849.64,-114.97C869.99,-119.58 894.53,-125.15 916.12,-130.04"/>
<polygon fill="#63b8ff" stroke="#63b8ff" points="915.11,-133.4 925.64,-132.19 916.66,-126.57 915.11,-133.4"/>
</a>
</g>
</g>
<!-- Node23 -->
<g id="Node000023" class="node">
<title>Node23</title>
<g id="a_Node000023"><a xlink:href="a02358.html#a7ab7c7fe9cb93434dde72a4e464a7e69" target="_top" xlink:title=" ">
<polygon fill="white" stroke="#666666" points="1028.88,-114.5 913.12,-114.5 913.12,-96 1028.88,-96 1028.88,-114.5"/>
<text text-anchor="middle" x="971" y="-101" font-family="Helvetica,sans-Serif" font-size="10.00">async_semaphore_dec</text>
</a>
</g>
</g>
<!-- Node22&#45;&gt;Node23 -->
<g id="edge30_Node000022_Node000023" class="edge">
<title>Node22&#45;&gt;Node23</title>
<g id="a_edge30_Node000022_Node000023"><a xlink:title=" ">
<path fill="none" stroke="#63b8ff" d="M860.2,-105.25C873.35,-105.25 887.61,-105.25 901.37,-105.25"/>
<polygon fill="#63b8ff" stroke="#63b8ff" points="901.26,-108.75 911.26,-105.25 901.26,-101.75 901.26,-108.75"/>
</a>
</g>
</g>
<!-- Node26&#45;&gt;Node6 -->
<g id="edge35_Node000026_Node000006" class="edge">
<title>Node26&#45;&gt;Node6</title>
<g id="a_edge35_Node000026_Node000006"><a xlink:title=" ">
<path fill="none" stroke="#63b8ff" d="M542,-180.25C597.39,-180.25 681.59,-180.25 739.67,-180.25"/>
<polygon fill="#63b8ff" stroke="#63b8ff" points="739.41,-183.75 749.41,-180.25 739.41,-176.75 739.41,-183.75"/>
</a>
</g>
</g>
<!-- Node26&#45;&gt;Node8 -->
<g id="edge37_Node000026_Node000008" class="edge">
<title>Node26&#45;&gt;Node8</title>
<g id="a_edge37_Node000026_Node000008"><a xlink:title=" ">
<path fill="none" stroke="#63b8ff" d="M542,-173.5C595.71,-167.11 676.51,-157.5 734.31,-150.63"/>
<polygon fill="#63b8ff" stroke="#63b8ff" points="734.53,-154.13 744.05,-149.47 733.7,-147.18 734.53,-154.13"/>
</a>
</g>
</g>
<!-- Node26&#45;&gt;Node15 -->
<g id="edge36_Node000026_Node000015" class="edge">
<title>Node26&#45;&gt;Node15</title>
<g id="a_edge36_Node000026_Node000015"><a xlink:title=" ">
<path fill="none" stroke="#63b8ff" d="M516.92,-195.25C544.81,-208.46 585.18,-227.57 612.82,-240.66"/>
<polygon fill="#63b8ff" stroke="#63b8ff" points="611.18,-243.76 621.72,-244.88 614.18,-237.43 611.18,-243.76"/>
</a>
</g>
</g>
<!-- Node26&#45;&gt;Node17 -->
<g id="edge38_Node000026_Node000017" class="edge">
<title>Node26&#45;&gt;Node17</title>
<g id="a_edge38_Node000026_Node000017"><a xlink:title=" ">
<path fill="none" stroke="#63b8ff" d="M531.44,-165.28C535.74,-162.71 539.78,-159.72 543.25,-156.25 572.84,-126.66 548.14,-97.24 579.25,-69.25 584.42,-64.6 590.69,-61.08 597.25,-58.42"/>
<polygon fill="#63b8ff" stroke="#63b8ff" points="597.89,-61.9 606.26,-55.4 595.66,-55.26 597.89,-61.9"/>
</a>
</g>
</g>
</g>
</svg>
