<?xml version="1.0" encoding="UTF-8" standalone="no"?>
<!DOCTYPE svg PUBLIC "-//W3C//DTD SVG 1.1//EN"
 "http://www.w3.org/Graphics/SVG/1.1/DTD/svg11.dtd">
<!-- Generated by graphviz version 8.0.5 (0)
 -->
<!-- Title: arax_exit Pages: 1 -->
<svg width="944pt" height="286pt"
 viewBox="0.00 0.00 944.25 285.50" xmlns="http://www.w3.org/2000/svg" xmlns:xlink="http://www.w3.org/1999/xlink">
<g id="graph0" class="graph" transform="scale(1 1) rotate(0) translate(4 281.5)">
<title>arax_exit</title>
<!-- Node1 -->
<g id="Node000001" class="node">
<title>Node1</title>
<g id="a_Node000001"><a xlink:title=" ">
<polygon fill="#999999" stroke="#666666" points="56.5,-110.5 0,-110.5 0,-92 56.5,-92 56.5,-110.5"/>
<text text-anchor="middle" x="28.25" y="-97" font-family="Helvetica,sans-Serif" font-size="10.00">arax_exit</text>
</a>
</g>
</g>
<!-- Node2 -->
<g id="Node000002" class="node">
<title>Node2</title>
<g id="a_Node000002"><a xlink:href="a02174.html#ga4bae55e86ffc384b3c1d2da3580f5c42" target="_top" xlink:title=" ">
<polygon fill="white" stroke="#666666" points="195.88,-230.5 131.88,-230.5 131.88,-212 195.88,-212 195.88,-230.5"/>
<text text-anchor="middle" x="163.88" y="-217" font-family="Helvetica,sans-Serif" font-size="10.00">arax_clean</text>
</a>
</g>
</g>
<!-- Node1&#45;&gt;Node2 -->
<g id="edge1_Node000001_Node000002" class="edge">
<title>Node1&#45;&gt;Node2</title>
<g id="a_edge1_Node000001_Node000002"><a xlink:title=" ">
<path fill="none" stroke="#63b8ff" d="M34.04,-110.98C43.18,-128.69 64.72,-166.45 92.5,-189.25 101.46,-196.61 112.39,-202.64 122.94,-207.41"/>
<polygon fill="#63b8ff" stroke="#63b8ff" points="121.28,-210.93 131.86,-211.59 124,-204.48 121.28,-210.93"/>
</a>
</g>
</g>
<!-- Node5 -->
<g id="Node000005" class="node">
<title>Node5</title>
<g id="a_Node000005"><a xlink:href="a01952.html#a84f3886cdcb91a28bf13b07aae8b2285" target="_top" xlink:title=" ">
<polygon fill="white" stroke="#666666" points="404.25,-203.5 293,-203.5 293,-185 404.25,-185 404.25,-203.5"/>
<text text-anchor="middle" x="348.62" y="-190" font-family="Helvetica,sans-Serif" font-size="10.00">utils_config_free_path</text>
</a>
</g>
</g>
<!-- Node1&#45;&gt;Node5 -->
<g id="edge27_Node000001_Node000005" class="edge">
<title>Node1&#45;&gt;Node5</title>
<g id="a_edge27_Node000001_Node000005"><a xlink:title=" ">
<path fill="none" stroke="#63b8ff" d="M42.68,-110.79C55.07,-119.18 74.25,-131.12 92.5,-138.25 154.5,-162.49 229.29,-177.35 281.82,-185.61"/>
<polygon fill="#63b8ff" stroke="#63b8ff" points="281.26,-189.22 291.67,-187.27 282.32,-182.3 281.26,-189.22"/>
</a>
</g>
</g>
<!-- Node14 -->
<g id="Node000014" class="node">
<title>Node14</title>
<g id="a_Node000014"><a xlink:href="a01913.html#a79b763e71a5ae1e57f78c008e7c1135c" target="_top" xlink:title=" ">
<polygon fill="white" stroke="#666666" points="203.75,-129.5 124,-129.5 124,-111 203.75,-111 203.75,-129.5"/>
<text text-anchor="middle" x="163.88" y="-116" font-family="Helvetica,sans-Serif" font-size="10.00">arax_pipe_exit</text>
</a>
</g>
</g>
<!-- Node1&#45;&gt;Node14 -->
<g id="edge16_Node000001_Node000014" class="edge">
<title>Node1&#45;&gt;Node14</title>
<g id="a_edge16_Node000001_Node000014"><a xlink:title=" ">
<path fill="none" stroke="#63b8ff" d="M56.94,-105.19C73.04,-107.48 93.83,-110.43 112.72,-113.12"/>
<polygon fill="#63b8ff" stroke="#63b8ff" points="112.17,-116.72 122.57,-114.66 113.16,-109.79 112.17,-116.72"/>
</a>
</g>
</g>
<!-- Node21 -->
<g id="Node000021" class="node">
<title>Node21</title>
<g id="a_Node000021"><a xlink:href="a01913.html#a94ce6437cad359c8523f57fe50be020d" target="_top" xlink:title=" ">
<polygon fill="white" stroke="#666666" points="235.25,-92.5 92.5,-92.5 92.5,-74 235.25,-74 235.25,-92.5"/>
<text text-anchor="middle" x="163.88" y="-79" font-family="Helvetica,sans-Serif" font-size="10.00">arax_pipe_get_available_size</text>
</a>
</g>
</g>
<!-- Node1&#45;&gt;Node21 -->
<g id="edge23_Node000001_Node000021" class="edge">
<title>Node1&#45;&gt;Node21</title>
<g id="a_edge23_Node000001_Node000021"><a xlink:title=" ">
<path fill="none" stroke="#63b8ff" d="M56.94,-97.52C64.33,-96.52 72.71,-95.4 81.43,-94.22"/>
<polygon fill="#63b8ff" stroke="#63b8ff" points="81.77,-97.57 91.21,-92.77 80.83,-90.64 81.77,-97.57"/>
</a>
</g>
</g>
<!-- Node23 -->
<g id="Node000023" class="node">
<title>Node23</title>
<g id="a_Node000023"><a xlink:href="a01913.html#a8b36751c1bdab169e4735143d3712a09" target="_top" xlink:title=" ">
<polygon fill="white" stroke="#666666" points="224.38,-55.5 103.38,-55.5 103.38,-37 224.38,-37 224.38,-55.5"/>
<text text-anchor="middle" x="163.88" y="-42" font-family="Helvetica,sans-Serif" font-size="10.00">arax_pipe_mark_unmap</text>
</a>
</g>
</g>
<!-- Node1&#45;&gt;Node23 -->
<g id="edge25_Node000001_Node000023" class="edge">
<title>Node1&#45;&gt;Node23</title>
<g id="a_edge25_Node000001_Node000023"><a xlink:title=" ">
<path fill="none" stroke="#63b8ff" d="M43.79,-91.56C56.27,-83.58 74.97,-72.47 92.5,-65.25 97.91,-63.02 103.67,-60.98 109.46,-59.13"/>
<polygon fill="#63b8ff" stroke="#63b8ff" points="110.3,-62.23 118.87,-56 108.29,-55.52 110.3,-62.23"/>
</a>
</g>
</g>
<!-- Node24 -->
<g id="Node000024" class="node">
<title>Node24</title>
<g id="a_Node000024"><a xlink:href="a01955.html#a38809d11e47f180968c23903fed321ef" target="_top" xlink:title=" ">
<polygon fill="white" stroke="#666666" points="213.5,-18.5 114.25,-18.5 114.25,0 213.5,0 213.5,-18.5"/>
<text text-anchor="middle" x="163.88" y="-5" font-family="Helvetica,sans-Serif" font-size="10.00">system_process_id</text>
</a>
</g>
</g>
<!-- Node1&#45;&gt;Node24 -->
<g id="edge26_Node000001_Node000024" class="edge">
<title>Node1&#45;&gt;Node24</title>
<g id="a_edge26_Node000001_Node000024"><a xlink:title=" ">
<path fill="none" stroke="#63b8ff" d="M34.92,-91.58C44.66,-75.85 66.08,-44.82 92.5,-28.25 96.08,-26.01 99.92,-24.03 103.89,-22.28"/>
<polygon fill="#63b8ff" stroke="#63b8ff" points="104.9,-25.25 112.97,-18.39 102.38,-18.72 104.9,-25.25"/>
</a>
</g>
</g>
<!-- Node3 -->
<g id="Node000003" class="node">
<title>Node3</title>
<g id="a_Node000003"><a xlink:href="a01952.html#aff9af0356940583dfe3045e693cc8a45" target="_top" xlink:title=" ">
<polygon fill="white" stroke="#666666" points="406.12,-277.5 291.12,-277.5 291.12,-259 406.12,-259 406.12,-277.5"/>
<text text-anchor="middle" x="348.62" y="-264" font-family="Helvetica,sans-Serif" font-size="10.00">utils_config_alloc_path</text>
</a>
</g>
</g>
<!-- Node2&#45;&gt;Node3 -->
<g id="edge2_Node000002_Node000003" class="edge">
<title>Node2&#45;&gt;Node3</title>
<g id="a_edge2_Node000002_Node000003"><a xlink:title=" ">
<path fill="none" stroke="#63b8ff" d="M196.03,-229.57C217.22,-235.2 245.9,-242.76 271.25,-249.25 279.81,-251.44 288.93,-253.74 297.76,-255.95"/>
<polygon fill="#63b8ff" stroke="#63b8ff" points="296.8,-259.57 307.35,-258.59 298.5,-252.77 296.8,-259.57"/>
</a>
</g>
</g>
<!-- Node2&#45;&gt;Node5 -->
<g id="edge4_Node000002_Node000005" class="edge">
<title>Node2&#45;&gt;Node5</title>
<g id="a_edge4_Node000002_Node000005"><a xlink:title=" ">
<path fill="none" stroke="#63b8ff" d="M196.29,-216.61C219.83,-213.13 252.88,-208.25 282.09,-203.93"/>
<polygon fill="#63b8ff" stroke="#63b8ff" points="282.27,-207.3 291.65,-202.37 281.25,-200.37 282.27,-207.3"/>
</a>
</g>
</g>
<!-- Node6 -->
<g id="Node000006" class="node">
<title>Node6</title>
<g id="a_Node000006"><a xlink:href="a01952.html#a1e8deff7c038efae14d1cc98e4ab109f" target="_top" xlink:title=" ">
<polygon fill="white" stroke="#666666" points="399,-240.5 298.25,-240.5 298.25,-222 399,-222 399,-240.5"/>
<text text-anchor="middle" x="348.62" y="-227" font-family="Helvetica,sans-Serif" font-size="10.00">utils_config_get_str</text>
</a>
</g>
</g>
<!-- Node2&#45;&gt;Node6 -->
<g id="edge5_Node000002_Node000006" class="edge">
<title>Node2&#45;&gt;Node6</title>
<g id="a_edge5_Node000002_Node000006"><a xlink:title=" ">
<path fill="none" stroke="#63b8ff" d="M196.29,-222.97C221.19,-224.33 256.74,-226.28 287.12,-227.94"/>
<polygon fill="#63b8ff" stroke="#63b8ff" points="286.88,-231.49 297.05,-228.54 287.26,-224.5 286.88,-231.49"/>
</a>
</g>
</g>
<!-- Node4 -->
<g id="Node000004" class="node">
<title>Node4</title>
<g id="a_Node000004"><a xlink:href="a01955.html#a0844807fe9679a9a5fbf1bfc9dd78dc6" target="_top" xlink:title=" ">
<polygon fill="white" stroke="#666666" points="566.12,-277.5 466.12,-277.5 466.12,-259 566.12,-259 566.12,-277.5"/>
<text text-anchor="middle" x="516.12" y="-264" font-family="Helvetica,sans-Serif" font-size="10.00">system_home_path</text>
</a>
</g>
</g>
<!-- Node3&#45;&gt;Node4 -->
<g id="edge3_Node000003_Node000004" class="edge">
<title>Node3&#45;&gt;Node4</title>
<g id="a_edge3_Node000003_Node000004"><a xlink:title=" ">
<path fill="none" stroke="#63b8ff" d="M406.58,-268.25C422.23,-268.25 439.25,-268.25 455.07,-268.25"/>
<polygon fill="#63b8ff" stroke="#63b8ff" points="454.8,-271.75 464.8,-268.25 454.8,-264.75 454.8,-271.75"/>
</a>
</g>
</g>
<!-- Node7 -->
<g id="Node000007" class="node">
<title>Node7</title>
<g id="a_Node000007"><a xlink:href="a01952.html#a0738274ac3fd171eda6bfb42492bc0d7" target="_top" xlink:title=" ">
<polygon fill="white" stroke="#666666" points="569.12,-240.5 463.12,-240.5 463.12,-222 569.12,-222 569.12,-240.5"/>
<text text-anchor="middle" x="516.12" y="-227" font-family="Helvetica,sans-Serif" font-size="10.00">_utils_config_get_str</text>
</a>
</g>
</g>
<!-- Node6&#45;&gt;Node7 -->
<g id="edge6_Node000006_Node000007" class="edge">
<title>Node6&#45;&gt;Node7</title>
<g id="a_edge6_Node000006_Node000007"><a xlink:title=" ">
<path fill="none" stroke="#63b8ff" d="M399.28,-231.25C415.84,-231.25 434.51,-231.25 451.96,-231.25"/>
<polygon fill="#63b8ff" stroke="#63b8ff" points="451.63,-234.75 461.63,-231.25 451.63,-227.75 451.63,-234.75"/>
</a>
</g>
</g>
<!-- Node12 -->
<g id="Node000012" class="node">
<title>Node12</title>
<g id="a_Node000012"><a xlink:href="a01952.html#a4b9cd8f5d0c205ac6c1fd30f77cbf539" target="_top" xlink:title=" ">
<polygon fill="white" stroke="#666666" points="570.25,-203.5 462,-203.5 462,-185 570.25,-185 570.25,-203.5"/>
<text text-anchor="middle" x="516.12" y="-190" font-family="Helvetica,sans-Serif" font-size="10.00">utils_config_write_str</text>
</a>
</g>
</g>
<!-- Node6&#45;&gt;Node12 -->
<g id="edge12_Node000006_Node000012" class="edge">
<title>Node6&#45;&gt;Node12</title>
<g id="a_edge12_Node000006_Node000012"><a xlink:title=" ">
<path fill="none" stroke="#63b8ff" d="M393.11,-221.53C413.93,-216.87 439.07,-211.25 461.11,-206.33"/>
<polygon fill="#63b8ff" stroke="#63b8ff" points="461.65,-209.57 470.65,-203.97 460.12,-202.74 461.65,-209.57"/>
</a>
</g>
</g>
<!-- Node8 -->
<g id="Node000008" class="node">
<title>Node8</title>
<g id="a_Node000008"><a xlink:href="a01952.html#a8b687fb4c464903e23504eea3ddc3873" target="_top" xlink:title=" ">
<polygon fill="white" stroke="#666666" points="659.75,-240.5 606.25,-240.5 606.25,-222 659.75,-222 659.75,-240.5"/>
<text text-anchor="middle" x="633" y="-227" font-family="Helvetica,sans-Serif" font-size="10.00">conf_get</text>
</a>
</g>
</g>
<!-- Node7&#45;&gt;Node8 -->
<g id="edge7_Node000007_Node000008" class="edge">
<title>Node7&#45;&gt;Node8</title>
<g id="a_edge7_Node000007_Node000008"><a xlink:title=" ">
<path fill="none" stroke="#63b8ff" d="M569.52,-231.25C578.13,-231.25 586.89,-231.25 595.02,-231.25"/>
<polygon fill="#63b8ff" stroke="#63b8ff" points="595.01,-234.75 605.01,-231.25 595.01,-227.75 595.01,-234.75"/>
</a>
</g>
</g>
<!-- Node9 -->
<g id="Node000009" class="node">
<title>Node9</title>
<g id="a_Node000009"><a xlink:href="a01955.html#acde493d3889d6f207d1e122cf4bb1b8c" target="_top" xlink:title=" ">
<polygon fill="white" stroke="#666666" points="936.25,-240.5 850.5,-240.5 850.5,-222 936.25,-222 936.25,-240.5"/>
<text text-anchor="middle" x="893.38" y="-227" font-family="Helvetica,sans-Serif" font-size="10.00">system_env_var</text>
</a>
</g>
</g>
<!-- Node8&#45;&gt;Node9 -->
<g id="edge8_Node000008_Node000009" class="edge">
<title>Node8&#45;&gt;Node9</title>
<g id="a_edge8_Node000008_Node000009"><a xlink:title=" ">
<path fill="none" stroke="#63b8ff" d="M660.08,-240.63C670.96,-244.08 683.81,-247.55 695.75,-249.25 748,-256.71 762.06,-255.23 814.5,-249.25 825.36,-248.01 836.9,-245.83 847.69,-243.41"/>
<polygon fill="#63b8ff" stroke="#63b8ff" points="848.24,-246.64 857.17,-240.93 846.63,-239.82 848.24,-246.64"/>
</a>
</g>
</g>
<!-- Node10 -->
<g id="Node000010" class="node">
<title>Node10</title>
<g id="a_Node000010"><a xlink:href="a01955.html#a86c3bfbf6daaf8172e131aa23dc7393c" target="_top" xlink:title=" ">
<polygon fill="white" stroke="#666666" points="798.75,-240.5 711.5,-240.5 711.5,-222 798.75,-222 798.75,-240.5"/>
<text text-anchor="middle" x="755.12" y="-227" font-family="Helvetica,sans-Serif" font-size="10.00">system_file_size</text>
</a>
</g>
</g>
<!-- Node8&#45;&gt;Node10 -->
<g id="edge9_Node000008_Node000010" class="edge">
<title>Node8&#45;&gt;Node10</title>
<g id="a_edge9_Node000008_Node000010"><a xlink:title=" ">
<path fill="none" stroke="#63b8ff" d="M660.07,-231.25C671.94,-231.25 686.46,-231.25 700.51,-231.25"/>
<polygon fill="#63b8ff" stroke="#63b8ff" points="700.11,-234.75 710.11,-231.25 700.11,-227.75 700.11,-234.75"/>
</a>
</g>
</g>
<!-- Node11 -->
<g id="Node000011" class="node">
<title>Node11</title>
<g id="a_Node000011"><a xlink:href="a01952.html#a17713c8e9b90065e23b0ec1a225f79ab" target="_top" xlink:title=" ">
<polygon fill="white" stroke="#666666" points="814.5,-203.5 695.75,-203.5 695.75,-185 814.5,-185 814.5,-203.5"/>
<text text-anchor="middle" x="755.12" y="-190" font-family="Helvetica,sans-Serif" font-size="10.00">utils_config_get_source</text>
</a>
</g>
</g>
<!-- Node8&#45;&gt;Node11 -->
<g id="edge10_Node000008_Node000011" class="edge">
<title>Node8&#45;&gt;Node11</title>
<g id="a_edge10_Node000008_Node000011"><a xlink:title=" ">
<path fill="none" stroke="#63b8ff" d="M660.07,-223.22C675.27,-218.54 694.8,-212.52 712.12,-207.19"/>
<polygon fill="#63b8ff" stroke="#63b8ff" points="713.03,-210.26 721.56,-203.97 710.97,-203.57 713.03,-210.26"/>
</a>
</g>
</g>
<!-- Node11&#45;&gt;Node9 -->
<g id="edge11_Node000011_Node000009" class="edge">
<title>Node11&#45;&gt;Node9</title>
<g id="a_edge11_Node000011_Node000009"><a xlink:title=" ">
<path fill="none" stroke="#63b8ff" d="M791.92,-203.97C808.59,-208.5 828.61,-213.93 846.38,-218.76"/>
<polygon fill="#63b8ff" stroke="#63b8ff" points="845.25,-222.35 855.82,-221.59 847.08,-215.6 845.25,-222.35"/>
</a>
</g>
</g>
<!-- Node12&#45;&gt;Node8 -->
<g id="edge13_Node000012_Node000008" class="edge">
<title>Node12&#45;&gt;Node8</title>
<g id="a_edge13_Node000012_Node000008"><a xlink:title=" ">
<path fill="none" stroke="#63b8ff" d="M547.31,-203.97C562.11,-208.74 580.05,-214.52 595.6,-219.53"/>
<polygon fill="#63b8ff" stroke="#63b8ff" points="594.33,-223.12 604.92,-222.85 596.47,-216.45 594.33,-223.12"/>
</a>
</g>
</g>
<!-- Node13 -->
<g id="Node000013" class="node">
<title>Node13</title>
<g id="a_Node000013"><a xlink:href="a01952.html#ab87e9691e65d65348749f8dc70f24602" target="_top" xlink:title=" ">
<polygon fill="white" stroke="#666666" points="659.75,-203.5 606.25,-203.5 606.25,-185 659.75,-185 659.75,-203.5"/>
<text text-anchor="middle" x="633" y="-190" font-family="Helvetica,sans-Serif" font-size="10.00">conf_set</text>
</a>
</g>
</g>
<!-- Node12&#45;&gt;Node13 -->
<g id="edge14_Node000012_Node000013" class="edge">
<title>Node12&#45;&gt;Node13</title>
<g id="a_edge14_Node000012_Node000013"><a xlink:title=" ">
<path fill="none" stroke="#63b8ff" d="M570.53,-194.25C578.79,-194.25 587.17,-194.25 594.97,-194.25"/>
<polygon fill="#63b8ff" stroke="#63b8ff" points="594.91,-197.75 604.91,-194.25 594.91,-190.75 594.91,-197.75"/>
</a>
</g>
</g>
<!-- Node13&#45;&gt;Node11 -->
<g id="edge15_Node000013_Node000011" class="edge">
<title>Node13&#45;&gt;Node11</title>
<g id="a_edge15_Node000013_Node000011"><a xlink:title=" ">
<path fill="none" stroke="#63b8ff" d="M660.07,-194.25C667.52,-194.25 676.02,-194.25 684.79,-194.25"/>
<polygon fill="#63b8ff" stroke="#63b8ff" points="684.57,-197.75 694.57,-194.25 684.57,-190.75 684.57,-197.75"/>
</a>
</g>
</g>
<!-- Node15 -->
<g id="Node000015" class="node">
<title>Node15</title>
<g id="a_Node000015"><a xlink:href="a01910.html#a305682d9ee7b1c993dbf64d4f3de2d9f" target="_top" xlink:title=" ">
<polygon fill="white" stroke="#666666" points="404.62,-166.5 292.62,-166.5 292.62,-148 404.62,-148 404.62,-166.5"/>
<text text-anchor="middle" x="348.62" y="-153" font-family="Helvetica,sans-Serif" font-size="10.00">arax_object_repo_exit</text>
</a>
</g>
</g>
<!-- Node14&#45;&gt;Node15 -->
<g id="edge17_Node000014_Node000015" class="edge">
<title>Node14&#45;&gt;Node15</title>
<g id="a_edge17_Node000014_Node000015"><a xlink:title=" ">
<path fill="none" stroke="#63b8ff" d="M204.08,-128.19C228.8,-133.19 261.18,-139.75 288.93,-145.37"/>
<polygon fill="#63b8ff" stroke="#63b8ff" points="288.22,-149 298.71,-147.55 289.6,-142.13 288.22,-149"/>
</a>
</g>
</g>
<!-- Node16 -->
<g id="Node000016" class="node">
<title>Node16</title>
<g id="a_Node000016"><a xlink:href="a01913.html#aedd2ffbe2275e3b8c2fc97a003ee7380" target="_top" xlink:title=" ">
<polygon fill="white" stroke="#666666" points="406.88,-129.5 290.38,-129.5 290.38,-111 406.88,-111 406.88,-129.5"/>
<text text-anchor="middle" x="348.62" y="-116" font-family="Helvetica,sans-Serif" font-size="10.00">arax_pipe_del_process</text>
</a>
</g>
</g>
<!-- Node14&#45;&gt;Node16 -->
<g id="edge18_Node000014_Node000016" class="edge">
<title>Node14&#45;&gt;Node16</title>
<g id="a_edge18_Node000014_Node000016"><a xlink:title=" ">
<path fill="none" stroke="#63b8ff" d="M204.08,-120.25C226.01,-120.25 253.98,-120.25 279.38,-120.25"/>
<polygon fill="#63b8ff" stroke="#63b8ff" points="279.09,-123.75 289.09,-120.25 279.09,-116.75 279.09,-123.75"/>
</a>
</g>
</g>
<!-- Node17 -->
<g id="Node000017" class="node">
<title>Node17</title>
<g id="a_Node000017"><a xlink:href="a02343.html#a726fb6388e92c5d82c9d5750fee1a7fb" target="_top" xlink:title=" ">
<polygon fill="white" stroke="#666666" points="389.25,-92.5 308,-92.5 308,-74 389.25,-74 389.25,-92.5"/>
<text text-anchor="middle" x="348.62" y="-79" font-family="Helvetica,sans-Serif" font-size="10.00">arch_alloc_exit</text>
</a>
</g>
</g>
<!-- Node14&#45;&gt;Node17 -->
<g id="edge19_Node000014_Node000017" class="edge">
<title>Node14&#45;&gt;Node17</title>
<g id="a_edge19_Node000014_Node000017"><a xlink:title=" ">
<path fill="none" stroke="#63b8ff" d="M204.08,-112.31C231.26,-106.81 267.71,-99.43 297.07,-93.49"/>
<polygon fill="#63b8ff" stroke="#63b8ff" points="297.43,-96.78 306.54,-91.37 296.04,-89.92 297.43,-96.78"/>
</a>
</g>
</g>
<!-- Node18 -->
<g id="Node000018" class="node">
<title>Node18</title>
<g id="a_Node000018"><a xlink:href="a02352.html#afe9571a12debd9d75a0f8fb93420e268" target="_top" xlink:title=" ">
<polygon fill="white" stroke="#666666" points="393.38,-55.5 303.88,-55.5 303.88,-37 393.38,-37 393.38,-55.5"/>
<text text-anchor="middle" x="348.62" y="-42" font-family="Helvetica,sans-Serif" font-size="10.00">async_meta_exit</text>
</a>
</g>
</g>
<!-- Node14&#45;&gt;Node18 -->
<g id="edge20_Node000014_Node000018" class="edge">
<title>Node14&#45;&gt;Node18</title>
<g id="a_edge20_Node000014_Node000018"><a xlink:title=" ">
<path fill="none" stroke="#63b8ff" d="M203.93,-113.55C214.54,-110.72 225.72,-106.76 235.25,-101.25 254.84,-89.92 251.55,-76.39 271.25,-65.25 278.04,-61.41 285.59,-58.34 293.24,-55.89"/>
<polygon fill="#63b8ff" stroke="#63b8ff" points="294,-59.02 302.65,-52.91 292.08,-52.29 294,-59.02"/>
</a>
</g>
</g>
<!-- Node19 -->
<g id="Node000019" class="node">
<title>Node19</title>
<g id="a_Node000019"><a xlink:href="a02346.html#a49083e8ceb4bfe7793ca1a5a799834d0" target="_top" xlink:title=" ">
<polygon fill="white" stroke="#666666" points="543.62,-73.5 488.62,-73.5 488.62,-55 543.62,-55 543.62,-73.5"/>
<text text-anchor="middle" x="516.12" y="-60" font-family="Helvetica,sans-Serif" font-size="10.00">getVmID</text>
</a>
</g>
</g>
<!-- Node18&#45;&gt;Node19 -->
<g id="edge21_Node000018_Node000019" class="edge">
<title>Node18&#45;&gt;Node19</title>
<g id="a_edge21_Node000018_Node000019"><a xlink:title=" ">
<path fill="none" stroke="#63b8ff" d="M393.54,-51.03C419.62,-53.86 452.35,-57.42 477.28,-60.13"/>
<polygon fill="#63b8ff" stroke="#63b8ff" points="476.81,-63.71 487.13,-61.31 477.57,-56.75 476.81,-63.71"/>
</a>
</g>
</g>
<!-- Node20 -->
<g id="Node000020" class="node">
<title>Node20</title>
<g id="a_Node000020"><a xlink:href="a02346.html#ab5d38a2680290bd159549efaa41b925b" target="_top" xlink:title=" ">
<polygon fill="white" stroke="#666666" points="547.75,-36.5 484.5,-36.5 484.5,-18 547.75,-18 547.75,-36.5"/>
<text text-anchor="middle" x="516.12" y="-23" font-family="Helvetica,sans-Serif" font-size="10.00">wakeupVm</text>
</a>
</g>
</g>
<!-- Node18&#45;&gt;Node20 -->
<g id="edge22_Node000018_Node000020" class="edge">
<title>Node18&#45;&gt;Node20</title>
<g id="a_edge22_Node000018_Node000020"><a xlink:title=" ">
<path fill="none" stroke="#63b8ff" d="M393.54,-41.21C418.29,-38.37 449.03,-34.84 473.41,-32.04"/>
<polygon fill="#63b8ff" stroke="#63b8ff" points="473.58,-35.43 483.12,-30.81 472.78,-28.47 473.58,-35.43"/>
</a>
</g>
</g>
<!-- Node22 -->
<g id="Node000022" class="node">
<title>Node22</title>
<g id="a_Node000022"><a xlink:href="a01925.html#a078da9ec8e2f9a4470f10ee3059bd593" target="_top" xlink:title=" ">
<polygon fill="white" stroke="#666666" points="426,-18.5 271.25,-18.5 271.25,0 426,0 426,-18.5"/>
<text text-anchor="middle" x="348.62" y="-5" font-family="Helvetica,sans-Serif" font-size="10.00">arax_throttle_get_available_size</text>
</a>
</g>
</g>
<!-- Node21&#45;&gt;Node22 -->
<g id="edge24_Node000021_Node000022" class="edge">
<title>Node21&#45;&gt;Node22</title>
<g id="a_edge24_Node000021_Node000022"><a xlink:title=" ">
<path fill="none" stroke="#63b8ff" d="M213.91,-73.58C221.32,-71.12 228.68,-68.05 235.25,-64.25 254.84,-52.92 251.55,-39.39 271.25,-28.25 274.96,-26.15 278.89,-24.29 282.95,-22.62"/>
<polygon fill="#63b8ff" stroke="#63b8ff" points="284.01,-25.6 292.21,-18.89 281.62,-19.02 284.01,-25.6"/>
</a>
</g>
</g>
</g>
</svg>
