<?xml version="1.0" encoding="UTF-8" standalone="no"?>
<!DOCTYPE svg PUBLIC "-//W3C//DTD SVG 1.1//EN"
 "http://www.w3.org/Graphics/SVG/1.1/DTD/svg11.dtd">
<!-- Generated by graphviz version 8.0.5 (0)
 -->
<!-- Title: arax_task_free Pages: 1 -->
<svg width="377pt" height="111pt"
 viewBox="0.00 0.00 377.00 110.75" xmlns="http://www.w3.org/2000/svg" xmlns:xlink="http://www.w3.org/1999/xlink">
<g id="graph0" class="graph" transform="scale(1 1) rotate(0) translate(4 106.75)">
<title>arax_task_free</title>
<!-- Node1 -->
<g id="Node000001" class="node">
<title>Node1</title>
<g id="a_Node000001"><a xlink:title=" ">
<polygon fill="#999999" stroke="#666666" points="369,-55.5 287.75,-55.5 287.75,-37 369,-37 369,-55.5"/>
<text text-anchor="middle" x="328.38" y="-42" font-family="Helvetica,sans-Serif" font-size="10.00">arax_task_free</text>
</a>
</g>
</g>
<!-- Node2 -->
<g id="Node000002" class="node">
<title>Node2</title>
<g id="a_Node000002"><a xlink:href="a01931.html#af8ede6fc8d207004035f45d945688d2c" target="_top" xlink:title=" ">
<polygon fill="white" stroke="#666666" points="244.25,-102.75 145.75,-102.75 145.75,-73.75 244.25,-73.75 244.25,-102.75"/>
<text text-anchor="start" x="153.75" y="-89.25" font-family="Helvetica,sans-Serif" font-size="10.00">arax_data_allocate</text>
<text text-anchor="middle" x="195" y="-78.75" font-family="Helvetica,sans-Serif" font-size="10.00">_remote</text>
</a>
</g>
</g>
<!-- Node1&#45;&gt;Node2 -->
<g id="edge1_Node000001_Node000002" class="edge">
<title>Node1&#45;&gt;Node2</title>
<g id="a_edge1_Node000001_Node000002"><a xlink:title=" ">
<path fill="none" stroke="#63b8ff" d="M286.67,-59.26C272.77,-63.71 257.12,-68.71 242.78,-73.29"/>
<polygon fill="#63b8ff" stroke="#63b8ff" points="287.45,-62.37 295.9,-55.99 285.31,-55.7 287.45,-62.37"/>
</a>
</g>
</g>
<!-- Node3 -->
<g id="Node000003" class="node">
<title>Node3</title>
<g id="a_Node000003"><a xlink:href="a01931.html#a696bc4319d0f6c6baa7d797a8df6b56f" target="_top" xlink:title=" ">
<polygon fill="white" stroke="#666666" points="234.12,-55.5 155.88,-55.5 155.88,-37 234.12,-37 234.12,-55.5"/>
<text text-anchor="middle" x="195" y="-42" font-family="Helvetica,sans-Serif" font-size="10.00">arax_data_get</text>
</a>
</g>
</g>
<!-- Node1&#45;&gt;Node3 -->
<g id="edge2_Node000001_Node000003" class="edge">
<title>Node1&#45;&gt;Node3</title>
<g id="a_edge2_Node000001_Node000003"><a xlink:title=" ">
<path fill="none" stroke="#63b8ff" d="M277,-46.25C262.82,-46.25 247.63,-46.25 234.29,-46.25"/>
<polygon fill="#63b8ff" stroke="#63b8ff" points="276.6,-49.75 286.6,-46.25 276.6,-42.75 276.6,-49.75"/>
</a>
</g>
</g>
<!-- Node5 -->
<g id="Node000005" class="node">
<title>Node5</title>
<g id="a_Node000005"><a xlink:href="a02177.html#ga1418f4cd7336bf77cce7b955a1bf7077" target="_top" xlink:title=" ">
<polygon fill="white" stroke="#666666" points="251.75,-18.5 138.25,-18.5 138.25,0 251.75,0 251.75,-18.5"/>
<text text-anchor="middle" x="195" y="-5" font-family="Helvetica,sans-Serif" font-size="10.00">arax_task_issue_sync</text>
</a>
</g>
</g>
<!-- Node1&#45;&gt;Node5 -->
<g id="edge4_Node000001_Node000005" class="edge">
<title>Node1&#45;&gt;Node5</title>
<g id="a_edge4_Node000001_Node000005"><a xlink:title=" ">
<path fill="none" stroke="#63b8ff" d="M282.53,-33.62C265.44,-28.81 246.25,-23.4 230.29,-18.91"/>
<polygon fill="#63b8ff" stroke="#63b8ff" points="281.28,-37.19 291.86,-36.53 283.18,-30.45 281.28,-37.19"/>
</a>
</g>
</g>
<!-- Node4 -->
<g id="Node000004" class="node">
<title>Node4</title>
<g id="a_Node000004"><a xlink:href="a01931.html#a7d8356bd5c8b6a8d7dffc6ba94cc22e5" target="_top" xlink:title=" ">
<polygon fill="white" stroke="#666666" points="102.25,-55.5 0,-55.5 0,-37 102.25,-37 102.25,-55.5"/>
<text text-anchor="middle" x="51.12" y="-42" font-family="Helvetica,sans-Serif" font-size="10.00">arax_data_memcpy</text>
</a>
</g>
</g>
<!-- Node3&#45;&gt;Node4 -->
<g id="edge3_Node000003_Node000004" class="edge">
<title>Node3&#45;&gt;Node4</title>
<g id="a_edge3_Node000003_Node000004"><a xlink:title=" ">
<path fill="none" stroke="#63b8ff" d="M144.92,-46.25C131.23,-46.25 116.33,-46.25 102.55,-46.25"/>
<polygon fill="#63b8ff" stroke="#63b8ff" points="144.61,-49.75 154.61,-46.25 144.61,-42.75 144.61,-49.75"/>
</a>
</g>
</g>
</g>
</svg>
