<?xml version="1.0" encoding="UTF-8" standalone="no"?>
<!DOCTYPE svg PUBLIC "-//W3C//DTD SVG 1.1//EN"
 "http://www.w3.org/Graphics/SVG/1.1/DTD/svg11.dtd">
<!-- Generated by graphviz version 11.0.0 (0)
 -->
<!-- Title: arax_task_issue Pages: 1 -->
<svg width="1336pt" height="342pt"
 viewBox="0.00 0.00 1336.25 341.50" xmlns="http://www.w3.org/2000/svg" xmlns:xlink="http://www.w3.org/1999/xlink">
<g id="graph0" class="graph" transform="scale(1 1) rotate(0) translate(4 337.5)">
<title>arax_task_issue</title>
<!-- Node1 -->
<g id="Node000001" class="node">
<title>Node1</title>
<g id="a_Node000001"><a xlink:title=" ">
<polygon fill="#999999" stroke="#666666" points="88,-73.5 0,-73.5 0,-55 88,-55 88,-73.5"/>
<text text-anchor="middle" x="44" y="-60" font-family="Helvetica,sans-Serif" font-size="10.00">arax_task_issue</text>
</a>
</g>
</g>
<!-- Node2 -->
<g id="Node000002" class="node">
<title>Node2</title>
<g id="a_Node000002"><a xlink:href="a01940.html#a27bee94f7a23281c8b2b72ec433f6059" target="_top" xlink:title=" ">
<polygon fill="white" stroke="#666666" points="220.25,-185.5 135.25,-185.5 135.25,-167 220.25,-167 220.25,-185.5"/>
<text text-anchor="middle" x="177.75" y="-172" font-family="Helvetica,sans-Serif" font-size="10.00">arax_task_alloc</text>
</a>
</g>
</g>
<!-- Node1&#45;&gt;Node2 -->
<g id="edge1_Node000001_Node000002" class="edge">
<title>Node1&#45;&gt;Node2</title>
<g id="a_edge1_Node000001_Node000002"><a xlink:title=" ">
<path fill="none" stroke="#63b8ff" d="M56.23,-73.8C78.6,-92.81 128.94,-135.61 156.97,-159.43"/>
<polygon fill="#63b8ff" stroke="#63b8ff" points="154.51,-161.93 164.39,-165.74 159.04,-156.6 154.51,-161.93"/>
</a>
</g>
</g>
<!-- Node28 -->
<g id="Node000028" class="node">
<title>Node28</title>
<g id="a_Node000028"><a xlink:href="a01940.html#aa3cb73b347940187fb3399f51b1a55b7" target="_top" xlink:title=" ">
<polygon fill="white" stroke="#666666" points="231.5,-55.5 124,-55.5 124,-37 231.5,-37 231.5,-55.5"/>
<text text-anchor="middle" x="177.75" y="-42" font-family="Helvetica,sans-Serif" font-size="10.00">arax_task_host_data</text>
</a>
</g>
</g>
<!-- Node1&#45;&gt;Node28 -->
<g id="edge35_Node000001_Node000028" class="edge">
<title>Node1&#45;&gt;Node28</title>
<g id="a_edge35_Node000001_Node000028"><a xlink:title=" ">
<path fill="none" stroke="#63b8ff" d="M88.14,-58.36C95.98,-57.28 104.31,-56.15 112.61,-55.01"/>
<polygon fill="#63b8ff" stroke="#63b8ff" points="112.92,-58.5 122.35,-53.68 111.97,-51.57 112.92,-58.5"/>
</a>
</g>
</g>
<!-- Node29 -->
<g id="Node000029" class="node">
<title>Node29</title>
<g id="a_Node000029"><a xlink:href="a01940.html#ace08f924cb86d1310099621564536657" target="_top" xlink:title=" ">
<polygon fill="white" stroke="#666666" points="525.25,-73.5 431.25,-73.5 431.25,-55 525.25,-55 525.25,-73.5"/>
<text text-anchor="middle" x="478.25" y="-60" font-family="Helvetica,sans-Serif" font-size="10.00">arax_task_submit</text>
</a>
</g>
</g>
<!-- Node1&#45;&gt;Node29 -->
<g id="edge36_Node000001_Node000029" class="edge">
<title>Node1&#45;&gt;Node29</title>
<g id="a_edge36_Node000001_Node000029"><a xlink:title=" ">
<path fill="none" stroke="#63b8ff" d="M88.42,-64.25C166.79,-64.25 331.86,-64.25 419.59,-64.25"/>
<polygon fill="#63b8ff" stroke="#63b8ff" points="419.41,-67.75 429.41,-64.25 419.41,-60.75 419.41,-67.75"/>
</a>
</g>
</g>
<!-- Node33 -->
<g id="Node000033" class="node">
<title>Node33</title>
<g id="a_Node000033"><a xlink:href="a01913.html#a226d4d420328a42fd671699ae60c4c3a" target="_top" xlink:title=" ">
<polygon fill="white" stroke="#666666" points="224,-18.5 131.5,-18.5 131.5,0 224,0 224,-18.5"/>
<text text-anchor="middle" x="177.75" y="-5" font-family="Helvetica,sans-Serif" font-size="10.00">check_semantics</text>
</a>
</g>
</g>
<!-- Node1&#45;&gt;Node33 -->
<g id="edge44_Node000001_Node000033" class="edge">
<title>Node1&#45;&gt;Node33</title>
<g id="a_edge44_Node000001_Node000033"><a xlink:title=" ">
<path fill="none" stroke="#63b8ff" d="M64.93,-54.62C80.79,-47.09 103.62,-36.55 124,-28.25 128.41,-26.45 133.06,-24.65 137.7,-22.91"/>
<polygon fill="#63b8ff" stroke="#63b8ff" points="138.79,-26.24 146.97,-19.5 136.38,-19.67 138.79,-26.24"/>
</a>
</g>
</g>
<!-- Node3 -->
<g id="Node000003" class="node">
<title>Node3</title>
<g id="a_Node000003"><a xlink:href="a01925.html#a1dc669466d6f52d5be8af2d991512ac2" target="_top" xlink:title=" ">
<polygon fill="white" stroke="#666666" points="375.38,-148.5 271.62,-148.5 271.62,-130 375.38,-130 375.38,-148.5"/>
<text text-anchor="middle" x="323.5" y="-135" font-family="Helvetica,sans-Serif" font-size="10.00">arax_data_input_init</text>
</a>
</g>
</g>
<!-- Node2&#45;&gt;Node3 -->
<g id="edge2_Node000002_Node000003" class="edge">
<title>Node2&#45;&gt;Node3</title>
<g id="a_edge2_Node000002_Node000003"><a xlink:title=" ">
<path fill="none" stroke="#63b8ff" d="M216.52,-166.53C234.1,-162 255.22,-156.57 273.97,-151.74"/>
<polygon fill="#63b8ff" stroke="#63b8ff" points="274.71,-155.17 283.52,-149.28 272.96,-148.39 274.71,-155.17"/>
</a>
</g>
</g>
<!-- Node17 -->
<g id="Node000017" class="node">
<title>Node17</title>
<g id="a_Node000017"><a xlink:href="a01925.html#a18d07d808917e0b971d46332e9e64da4" target="_top" xlink:title=" ">
<polygon fill="white" stroke="#666666" points="378.38,-185.5 268.62,-185.5 268.62,-167 378.38,-167 378.38,-185.5"/>
<text text-anchor="middle" x="323.5" y="-172" font-family="Helvetica,sans-Serif" font-size="10.00">arax_data_output_init</text>
</a>
</g>
</g>
<!-- Node2&#45;&gt;Node17 -->
<g id="edge17_Node000002_Node000017" class="edge">
<title>Node2&#45;&gt;Node17</title>
<g id="a_edge17_Node000002_Node000017"><a xlink:title=" ">
<path fill="none" stroke="#63b8ff" d="M220.71,-176.25C232.07,-176.25 244.64,-176.25 256.96,-176.25"/>
<polygon fill="#63b8ff" stroke="#63b8ff" points="256.65,-179.75 266.65,-176.25 256.65,-172.75 256.65,-179.75"/>
</a>
</g>
</g>
<!-- Node18 -->
<g id="Node000018" class="node">
<title>Node18</title>
<g id="a_Node000018"><a xlink:href="a01928.html#a402bbd6fa197c2c48d527325e5e2cf5b" target="_top" xlink:title=" ">
<polygon fill="white" stroke="#666666" points="375.75,-259.5 271.25,-259.5 271.25,-241 375.75,-241 375.75,-259.5"/>
<text text-anchor="middle" x="323.5" y="-246" font-family="Helvetica,sans-Serif" font-size="10.00">arax_object_register</text>
</a>
</g>
</g>
<!-- Node2&#45;&gt;Node18 -->
<g id="edge20_Node000002_Node000018" class="edge">
<title>Node2&#45;&gt;Node18</title>
<g id="a_edge20_Node000002_Node000018"><a xlink:title=" ">
<path fill="none" stroke="#63b8ff" d="M192.05,-185.81C208.96,-197.64 239.34,-217.87 267.5,-231.25 271.49,-233.15 275.73,-234.95 280,-236.64"/>
<polygon fill="#63b8ff" stroke="#63b8ff" points="278.59,-239.85 289.19,-240.05 281.03,-233.29 278.59,-239.85"/>
</a>
</g>
</g>
<!-- Node27 -->
<g id="Node000027" class="node">
<title>Node27</title>
<g id="a_Node000027"><a xlink:href="a02367.html#ac728117d73179c279de49e01ae905dda" target="_top" xlink:title=" ">
<polygon fill="white" stroke="#666666" points="379.5,-222.5 267.5,-222.5 267.5,-204 379.5,-204 379.5,-222.5"/>
<text text-anchor="middle" x="323.5" y="-209" font-family="Helvetica,sans-Serif" font-size="10.00">async_completion_init</text>
</a>
</g>
</g>
<!-- Node2&#45;&gt;Node27 -->
<g id="edge33_Node000002_Node000027" class="edge">
<title>Node2&#45;&gt;Node27</title>
<g id="a_edge33_Node000002_Node000027"><a xlink:title=" ">
<path fill="none" stroke="#63b8ff" d="M216.52,-185.97C234.1,-190.5 255.22,-195.93 273.97,-200.76"/>
<polygon fill="#63b8ff" stroke="#63b8ff" points="272.96,-204.11 283.52,-203.22 274.71,-197.33 272.96,-204.11"/>
</a>
</g>
</g>
<!-- Node4 -->
<g id="Node000004" class="node">
<title>Node4</title>
<g id="a_Node000004"><a xlink:href="a01925.html#a4b65f90a821aca384f0ca1cff7bd1846" target="_top" xlink:title=" ">
<polygon fill="white" stroke="#666666" points="541,-185.5 415.5,-185.5 415.5,-167 541,-167 541,-185.5"/>
<text text-anchor="middle" x="478.25" y="-172" font-family="Helvetica,sans-Serif" font-size="10.00">arax_data_migrate_accel</text>
</a>
</g>
</g>
<!-- Node3&#45;&gt;Node4 -->
<g id="edge3_Node000003_Node000004" class="edge">
<title>Node3&#45;&gt;Node4</title>
<g id="a_edge3_Node000003_Node000004"><a xlink:title=" ">
<path fill="none" stroke="#63b8ff" d="M364.63,-148.97C383.42,-153.52 406,-158.99 426,-163.84"/>
<polygon fill="#63b8ff" stroke="#63b8ff" points="425.11,-167.22 435.65,-166.17 426.75,-160.42 425.11,-167.22"/>
</a>
</g>
</g>
<!-- Node15 -->
<g id="Node000015" class="node">
<title>Node15</title>
<g id="a_Node000015"><a xlink:href="a01928.html#a9255b8011e6d7c9b28c7df40065efb28" target="_top" xlink:title=" ">
<polygon fill="white" stroke="#666666" points="688.25,-115.5 586.75,-115.5 586.75,-97 688.25,-97 688.25,-115.5"/>
<text text-anchor="middle" x="637.5" y="-102" font-family="Helvetica,sans-Serif" font-size="10.00">arax_object_ref_inc</text>
</a>
</g>
</g>
<!-- Node3&#45;&gt;Node15 -->
<g id="edge16_Node000003_Node000015" class="edge">
<title>Node3&#45;&gt;Node15</title>
<g id="a_edge16_Node000003_Node000015"><a xlink:title=" ">
<path fill="none" stroke="#63b8ff" d="M375.43,-130.8C388.47,-128.81 402.49,-126.81 415.5,-125.25 469.2,-118.82 530.5,-113.72 574.89,-110.44"/>
<polygon fill="#63b8ff" stroke="#63b8ff" points="575.14,-113.93 584.86,-109.71 574.63,-106.95 575.14,-113.93"/>
</a>
</g>
</g>
<!-- Node5 -->
<g id="Node000005" class="node">
<title>Node5</title>
<g id="a_Node000005"><a xlink:href="a01928.html#afe7e4a63c40fbcaae742b8de8693483f" target="_top" xlink:title=" ">
<polygon fill="white" stroke="#666666" points="689.75,-152.5 585.25,-152.5 585.25,-134 689.75,-134 689.75,-152.5"/>
<text text-anchor="middle" x="637.5" y="-139" font-family="Helvetica,sans-Serif" font-size="10.00">arax_object_ref_dec</text>
</a>
</g>
</g>
<!-- Node4&#45;&gt;Node5 -->
<g id="edge4_Node000004_Node000005" class="edge">
<title>Node4&#45;&gt;Node5</title>
<g id="a_edge4_Node000004_Node000005"><a xlink:title=" ">
<path fill="none" stroke="#63b8ff" d="M525.58,-166.53C542.38,-163 561.56,-158.98 579.2,-155.28"/>
<polygon fill="#63b8ff" stroke="#63b8ff" points="579.68,-158.75 588.75,-153.27 578.24,-151.9 579.68,-158.75"/>
</a>
</g>
</g>
<!-- Node4&#45;&gt;Node15 -->
<g id="edge14_Node000004_Node000015" class="edge">
<title>Node4&#45;&gt;Node15</title>
<g id="a_edge14_Node000004_Node000015"><a xlink:title=" ">
<path fill="none" stroke="#63b8ff" d="M510.85,-166.57C520.79,-162.98 531.61,-158.49 541,-153.25 558.7,-143.38 559.07,-134.7 577,-125.25 580.67,-123.32 584.57,-121.54 588.55,-119.91"/>
<polygon fill="#63b8ff" stroke="#63b8ff" points="589.61,-123.25 597.76,-116.47 587.17,-116.69 589.61,-123.25"/>
</a>
</g>
</g>
<!-- Node16 -->
<g id="Node000016" class="node">
<title>Node16</title>
<g id="a_Node000016"><a xlink:href="a01928.html#a668fd893484b6e2d67d8b372b508d14f" target="_top" xlink:title=" ">
<polygon fill="white" stroke="#666666" points="698,-189.5 577,-189.5 577,-171 698,-171 698,-189.5"/>
<text text-anchor="middle" x="637.5" y="-176" font-family="Helvetica,sans-Serif" font-size="10.00">arax_object_type_to_str</text>
</a>
</g>
</g>
<!-- Node4&#45;&gt;Node16 -->
<g id="edge15_Node000004_Node000016" class="edge">
<title>Node4&#45;&gt;Node16</title>
<g id="a_edge15_Node000004_Node000016"><a xlink:title=" ">
<path fill="none" stroke="#63b8ff" d="M541.4,-177.83C549.19,-178.03 557.2,-178.23 565.11,-178.43"/>
<polygon fill="#63b8ff" stroke="#63b8ff" points="565,-181.93 575.09,-178.69 565.18,-174.93 565,-181.93"/>
</a>
</g>
</g>
<!-- Node6 -->
<g id="Node000006" class="node">
<title>Node6</title>
<g id="a_Node000006"><a xlink:href="a01931.html#a9f30684f01feac766b42d622970ed5a6" target="_top" xlink:title=" ">
<polygon fill="white" stroke="#666666" points="840.38,-171.5 741.12,-171.5 741.12,-153 840.38,-153 840.38,-171.5"/>
<text text-anchor="middle" x="790.75" y="-158" font-family="Helvetica,sans-Serif" font-size="10.00">arax_pipe_size_inc</text>
</a>
</g>
</g>
<!-- Node5&#45;&gt;Node6 -->
<g id="edge5_Node000005_Node000006" class="edge">
<title>Node5&#45;&gt;Node6</title>
<g id="a_edge5_Node000005_Node000006"><a xlink:title=" ">
<path fill="none" stroke="#63b8ff" d="M690.13,-149.74C702.77,-151.32 716.41,-153.04 729.42,-154.67"/>
<polygon fill="#63b8ff" stroke="#63b8ff" points="728.79,-158.12 739.15,-155.89 729.66,-151.17 728.79,-158.12"/>
</a>
</g>
</g>
<!-- Node14 -->
<g id="Node000014" class="node">
<title>Node14</title>
<g id="a_Node000014"><a xlink:href="a01958.html#a0c85e5516222ab7e7fc354c614760ec5" target="_top" xlink:title=" ">
<polygon fill="white" stroke="#666666" points="825.75,-134.5 755.75,-134.5 755.75,-116 825.75,-116 825.75,-134.5"/>
<text text-anchor="middle" x="790.75" y="-121" font-family="Helvetica,sans-Serif" font-size="10.00">utils_list_del</text>
</a>
</g>
</g>
<!-- Node5&#45;&gt;Node14 -->
<g id="edge13_Node000005_Node000014" class="edge">
<title>Node5&#45;&gt;Node14</title>
<g id="a_edge13_Node000005_Node000014"><a xlink:title=" ">
<path fill="none" stroke="#63b8ff" d="M690.13,-137.11C707.65,-135.02 727.09,-132.71 744.11,-130.68"/>
<polygon fill="#63b8ff" stroke="#63b8ff" points="744.44,-134.17 753.95,-129.51 743.61,-127.22 744.44,-134.17"/>
</a>
</g>
</g>
<!-- Node7 -->
<g id="Node000007" class="node">
<title>Node7</title>
<g id="a_Node000007"><a xlink:href="a01943.html#a7d3a67fa4eeb00cc9508a7ffe451a02f" target="_top" xlink:title=" ">
<polygon fill="white" stroke="#666666" points="996.25,-171.5 885,-171.5 885,-153 996.25,-153 996.25,-171.5"/>
<text text-anchor="middle" x="940.62" y="-158" font-family="Helvetica,sans-Serif" font-size="10.00">arax_throttle_size_inc</text>
</a>
</g>
</g>
<!-- Node6&#45;&gt;Node7 -->
<g id="edge6_Node000006_Node000007" class="edge">
<title>Node6&#45;&gt;Node7</title>
<g id="a_edge6_Node000006_Node000007"><a xlink:title=" ">
<path fill="none" stroke="#63b8ff" d="M840.58,-162.25C851.07,-162.25 862.32,-162.25 873.35,-162.25"/>
<polygon fill="#63b8ff" stroke="#63b8ff" points="873.2,-165.75 883.2,-162.25 873.2,-158.75 873.2,-165.75"/>
</a>
</g>
</g>
<!-- Node8 -->
<g id="Node000008" class="node">
<title>Node8</title>
<g id="a_Node000008"><a xlink:href="a02367.html#aed6af4d83e934e3e654ead541b15f2d9" target="_top" xlink:title=" ">
<polygon fill="white" stroke="#666666" points="1148,-208.5 1039,-208.5 1039,-190 1148,-190 1148,-208.5"/>
<text text-anchor="middle" x="1093.5" y="-195" font-family="Helvetica,sans-Serif" font-size="10.00">async_condition_lock</text>
</a>
</g>
</g>
<!-- Node7&#45;&gt;Node8 -->
<g id="edge7_Node000007_Node000008" class="edge">
<title>Node7&#45;&gt;Node8</title>
<g id="a_edge7_Node000007_Node000008"><a xlink:title=" ">
<path fill="none" stroke="#63b8ff" d="M981.27,-171.97C999.82,-176.52 1022.13,-181.99 1041.88,-186.84"/>
<polygon fill="#63b8ff" stroke="#63b8ff" points="1040.85,-190.19 1051.39,-189.17 1042.51,-183.39 1040.85,-190.19"/>
</a>
</g>
</g>
<!-- Node10 -->
<g id="Node000010" class="node">
<title>Node10</title>
<g id="a_Node000010"><a xlink:href="a02367.html#a45a896fb606c2aa66a5a4c2af59ce494" target="_top" xlink:title=" ">
<polygon fill="white" stroke="#666666" points="1151,-134.5 1036,-134.5 1036,-116 1151,-116 1151,-134.5"/>
<text text-anchor="middle" x="1093.5" y="-121" font-family="Helvetica,sans-Serif" font-size="10.00">async_condition_notify</text>
</a>
</g>
</g>
<!-- Node7&#45;&gt;Node10 -->
<g id="edge9_Node000007_Node000010" class="edge">
<title>Node7&#45;&gt;Node10</title>
<g id="a_edge9_Node000007_Node000010"><a xlink:title=" ">
<path fill="none" stroke="#63b8ff" d="M981.27,-152.53C999.82,-147.98 1022.13,-142.51 1041.88,-137.66"/>
<polygon fill="#63b8ff" stroke="#63b8ff" points="1042.51,-141.11 1051.39,-135.33 1040.85,-134.31 1042.51,-141.11"/>
</a>
</g>
</g>
<!-- Node12 -->
<g id="Node000012" class="node">
<title>Node12</title>
<g id="a_Node000012"><a xlink:href="a02367.html#a3bbcb7c4c024e99d5c4ba52b61dfbbf7" target="_top" xlink:title=" ">
<polygon fill="white" stroke="#666666" points="1153.25,-171.5 1033.75,-171.5 1033.75,-153 1153.25,-153 1153.25,-171.5"/>
<text text-anchor="middle" x="1093.5" y="-158" font-family="Helvetica,sans-Serif" font-size="10.00">async_condition_unlock</text>
</a>
</g>
</g>
<!-- Node7&#45;&gt;Node12 -->
<g id="edge11_Node000007_Node000012" class="edge">
<title>Node7&#45;&gt;Node12</title>
<g id="a_edge11_Node000007_Node000012"><a xlink:title=" ">
<path fill="none" stroke="#63b8ff" d="M996.52,-162.25C1004.75,-162.25 1013.32,-162.25 1021.82,-162.25"/>
<polygon fill="#63b8ff" stroke="#63b8ff" points="1021.8,-165.75 1031.8,-162.25 1021.8,-158.75 1021.8,-165.75"/>
</a>
</g>
</g>
<!-- Node9 -->
<g id="Node000009" class="node">
<title>Node9</title>
<g id="a_Node000009"><a xlink:href="a02361.html#aebf9e72bb6cbd8b9e33489d46c25075d" target="_top" xlink:title=" ">
<polygon fill="white" stroke="#666666" points="1317,-208.5 1200.5,-208.5 1200.5,-190 1317,-190 1317,-208.5"/>
<text text-anchor="middle" x="1258.75" y="-195" font-family="Helvetica,sans-Serif" font-size="10.00">async_completion_wait</text>
</a>
</g>
</g>
<!-- Node8&#45;&gt;Node9 -->
<g id="edge8_Node000008_Node000009" class="edge">
<title>Node8&#45;&gt;Node9</title>
<g id="a_edge8_Node000008_Node000009"><a xlink:title=" ">
<path fill="none" stroke="#63b8ff" d="M1148.41,-199.25C1161.39,-199.25 1175.44,-199.25 1189.01,-199.25"/>
<polygon fill="#63b8ff" stroke="#63b8ff" points="1188.74,-202.75 1198.74,-199.25 1188.74,-195.75 1188.74,-202.75"/>
</a>
</g>
</g>
<!-- Node11 -->
<g id="Node000011" class="node">
<title>Node11</title>
<g id="a_Node000011"><a xlink:href="a02361.html#a0fa370eee5160963e617d1daf1c07363" target="_top" xlink:title=" ">
<polygon fill="white" stroke="#666666" points="1315.12,-134.5 1202.38,-134.5 1202.38,-116 1315.12,-116 1315.12,-134.5"/>
<text text-anchor="middle" x="1258.75" y="-121" font-family="Helvetica,sans-Serif" font-size="10.00">async_semaphore_inc</text>
</a>
</g>
</g>
<!-- Node10&#45;&gt;Node11 -->
<g id="edge10_Node000010_Node000011" class="edge">
<title>Node10&#45;&gt;Node11</title>
<g id="a_edge10_Node000010_Node000011"><a xlink:title=" ">
<path fill="none" stroke="#63b8ff" d="M1151.14,-125.25C1163.89,-125.25 1177.54,-125.25 1190.67,-125.25"/>
<polygon fill="#63b8ff" stroke="#63b8ff" points="1190.53,-128.75 1200.53,-125.25 1190.52,-121.75 1190.53,-128.75"/>
</a>
</g>
</g>
<!-- Node13 -->
<g id="Node000013" class="node">
<title>Node13</title>
<g id="a_Node000013"><a xlink:href="a02361.html#ad1d30ecbf6bff6457b680aa940281072" target="_top" xlink:title=" ">
<polygon fill="white" stroke="#666666" points="1328.25,-171.5 1189.25,-171.5 1189.25,-153 1328.25,-153 1328.25,-171.5"/>
<text text-anchor="middle" x="1258.75" y="-158" font-family="Helvetica,sans-Serif" font-size="10.00">async_completion_complete</text>
</a>
</g>
</g>
<!-- Node12&#45;&gt;Node13 -->
<g id="edge12_Node000012_Node000013" class="edge">
<title>Node12&#45;&gt;Node13</title>
<g id="a_edge12_Node000012_Node000013"><a xlink:title=" ">
<path fill="none" stroke="#63b8ff" d="M1153.44,-162.25C1161.26,-162.25 1169.38,-162.25 1177.49,-162.25"/>
<polygon fill="#63b8ff" stroke="#63b8ff" points="1177.39,-165.75 1187.39,-162.25 1177.39,-158.75 1177.39,-165.75"/>
</a>
</g>
</g>
<!-- Node17&#45;&gt;Node4 -->
<g id="edge18_Node000017_Node000004" class="edge">
<title>Node17&#45;&gt;Node4</title>
<g id="a_edge18_Node000017_Node000004"><a xlink:title=" ">
<path fill="none" stroke="#63b8ff" d="M378.78,-176.25C386.86,-176.25 395.3,-176.25 403.69,-176.25"/>
<polygon fill="#63b8ff" stroke="#63b8ff" points="403.55,-179.75 413.55,-176.25 403.55,-172.75 403.55,-179.75"/>
</a>
</g>
</g>
<!-- Node17&#45;&gt;Node15 -->
<g id="edge19_Node000017_Node000015" class="edge">
<title>Node17&#45;&gt;Node15</title>
<g id="a_edge19_Node000017_Node000015"><a xlink:title=" ">
<path fill="none" stroke="#63b8ff" d="M367.88,-166.52C423.92,-153.94 521.47,-132.06 582.32,-118.41"/>
<polygon fill="#63b8ff" stroke="#63b8ff" points="582.77,-121.89 591.76,-116.29 581.24,-115.06 582.77,-121.89"/>
</a>
</g>
</g>
<!-- Node19 -->
<g id="Node000019" class="node">
<title>Node19</title>
<g id="a_Node000019"><a xlink:href="a01931.html#a6cc54ee40009c61b5f6526f5edff004f" target="_top" xlink:title=" ">
<polygon fill="white" stroke="#666666" points="688.62,-250.5 586.38,-250.5 586.38,-232 688.62,-232 688.62,-250.5"/>
<text text-anchor="middle" x="637.5" y="-237" font-family="Helvetica,sans-Serif" font-size="10.00">arax_pipe_size_dec</text>
</a>
</g>
</g>
<!-- Node18&#45;&gt;Node19 -->
<g id="edge21_Node000018_Node000019" class="edge">
<title>Node18&#45;&gt;Node19</title>
<g id="a_edge21_Node000018_Node000019"><a xlink:title=" ">
<path fill="none" stroke="#63b8ff" d="M376.02,-248.76C430.54,-247.19 516.57,-244.71 574.7,-243.03"/>
<polygon fill="#63b8ff" stroke="#63b8ff" points="574.53,-246.54 584.43,-242.75 574.33,-239.54 574.53,-246.54"/>
</a>
</g>
</g>
<!-- Node23 -->
<g id="Node000023" class="node">
<title>Node23</title>
<g id="a_Node000023"><a xlink:href="a02358.html#ac9828b5c2758940f6d3c7d4335228de5" target="_top" xlink:title=" ">
<polygon fill="white" stroke="#666666" points="527.88,-333.5 428.62,-333.5 428.62,-315 527.88,-315 527.88,-333.5"/>
<text text-anchor="middle" x="478.25" y="-320" font-family="Helvetica,sans-Serif" font-size="10.00">arch_alloc_allocate</text>
</a>
</g>
</g>
<!-- Node18&#45;&gt;Node23 -->
<g id="edge29_Node000018_Node000023" class="edge">
<title>Node18&#45;&gt;Node23</title>
<g id="a_edge29_Node000018_Node000023"><a xlink:title=" ">
<path fill="none" stroke="#63b8ff" d="M338.1,-259.94C355.4,-271.91 386.52,-292.27 415.5,-305.25 420.06,-307.29 424.9,-309.2 429.78,-310.95"/>
<polygon fill="#63b8ff" stroke="#63b8ff" points="428.43,-314.19 439.03,-314.07 430.67,-307.56 428.43,-314.19"/>
</a>
</g>
</g>
<!-- Node24 -->
<g id="Node000024" class="node">
<title>Node24</title>
<g id="a_Node000024"><a xlink:href="a01958.html#ae06a9e78e6a4f6c9c8afcf0f4862ce29" target="_top" xlink:title=" ">
<polygon fill="white" stroke="#666666" points="514.75,-296.5 441.75,-296.5 441.75,-278 514.75,-278 514.75,-296.5"/>
<text text-anchor="middle" x="478.25" y="-283" font-family="Helvetica,sans-Serif" font-size="10.00">utils_list_add</text>
</a>
</g>
</g>
<!-- Node18&#45;&gt;Node24 -->
<g id="edge30_Node000018_Node000024" class="edge">
<title>Node18&#45;&gt;Node24</title>
<g id="a_edge30_Node000018_Node000024"><a xlink:title=" ">
<path fill="none" stroke="#63b8ff" d="M364.63,-259.97C384.79,-264.85 409.33,-270.8 430.35,-275.89"/>
<polygon fill="#63b8ff" stroke="#63b8ff" points="429.28,-279.23 439.82,-278.18 430.93,-272.43 429.28,-279.23"/>
</a>
</g>
</g>
<!-- Node26 -->
<g id="Node000026" class="node">
<title>Node26</title>
<g id="a_Node000026"><a xlink:href="a01958.html#a63f2791c9b5c8e2fa15967cfafb7ccbb" target="_top" xlink:title=" ">
<polygon fill="white" stroke="#666666" points="526.38,-222.5 430.12,-222.5 430.12,-204 526.38,-204 526.38,-222.5"/>
<text text-anchor="middle" x="478.25" y="-209" font-family="Helvetica,sans-Serif" font-size="10.00">utils_list_node_init</text>
</a>
</g>
</g>
<!-- Node18&#45;&gt;Node26 -->
<g id="edge32_Node000018_Node000026" class="edge">
<title>Node18&#45;&gt;Node26</title>
<g id="a_edge32_Node000018_Node000026"><a xlink:title=" ">
<path fill="none" stroke="#63b8ff" d="M364.63,-240.53C383.42,-235.98 406,-230.51 426,-225.66"/>
<polygon fill="#63b8ff" stroke="#63b8ff" points="426.75,-229.08 435.65,-223.33 425.11,-222.28 426.75,-229.08"/>
</a>
</g>
</g>
<!-- Node20 -->
<g id="Node000020" class="node">
<title>Node20</title>
<g id="a_Node000020"><a xlink:href="a01943.html#a63b80783cfb3106ec4169ce082f153c0" target="_top" xlink:title=" ">
<polygon fill="white" stroke="#666666" points="997.75,-227.5 883.5,-227.5 883.5,-209 997.75,-209 997.75,-227.5"/>
<text text-anchor="middle" x="940.62" y="-214" font-family="Helvetica,sans-Serif" font-size="10.00">arax_throttle_size_dec</text>
</a>
</g>
</g>
<!-- Node19&#45;&gt;Node20 -->
<g id="edge22_Node000019_Node000020" class="edge">
<title>Node19&#45;&gt;Node20</title>
<g id="a_edge22_Node000019_Node000020"><a xlink:title=" ">
<path fill="none" stroke="#63b8ff" d="M688.9,-237.4C739.1,-233.57 816.49,-227.65 872.01,-223.41"/>
<polygon fill="#63b8ff" stroke="#63b8ff" points="871.95,-226.93 881.65,-222.68 871.41,-219.95 871.95,-226.93"/>
</a>
</g>
</g>
<!-- Node20&#45;&gt;Node8 -->
<g id="edge23_Node000020_Node000008" class="edge">
<title>Node20&#45;&gt;Node8</title>
<g id="a_edge23_Node000020_Node000008"><a xlink:title=" ">
<path fill="none" stroke="#63b8ff" d="M998.23,-211.12C1007.73,-209.93 1017.65,-208.68 1027.34,-207.46"/>
<polygon fill="#63b8ff" stroke="#63b8ff" points="1027.59,-210.95 1037.07,-206.23 1026.71,-204.01 1027.59,-210.95"/>
</a>
</g>
</g>
<!-- Node20&#45;&gt;Node12 -->
<g id="edge24_Node000020_Node000012" class="edge">
<title>Node20&#45;&gt;Node12</title>
<g id="a_edge24_Node000020_Node000012"><a xlink:title=" ">
<path fill="none" stroke="#63b8ff" d="M964.55,-208.53C983.09,-200.79 1009.93,-189.87 1033.75,-181.25 1039.16,-179.29 1044.87,-177.32 1050.54,-175.43"/>
<polygon fill="#63b8ff" stroke="#63b8ff" points="1051.42,-178.83 1059.83,-172.38 1049.23,-172.17 1051.42,-178.83"/>
</a>
</g>
</g>
<!-- Node21 -->
<g id="Node000021" class="node">
<title>Node21</title>
<g id="a_Node000021"><a xlink:href="a02367.html#a1bfeaeb9b81855e640d7a67cc9d92b17" target="_top" xlink:title=" ">
<polygon fill="white" stroke="#666666" points="1147.62,-245.5 1039.38,-245.5 1039.38,-227 1147.62,-227 1147.62,-245.5"/>
<text text-anchor="middle" x="1093.5" y="-232" font-family="Helvetica,sans-Serif" font-size="10.00">async_condition_wait</text>
</a>
</g>
</g>
<!-- Node20&#45;&gt;Node21 -->
<g id="edge25_Node000020_Node000021" class="edge">
<title>Node20&#45;&gt;Node21</title>
<g id="a_edge25_Node000020_Node000021"><a xlink:title=" ">
<path fill="none" stroke="#63b8ff" d="M998.23,-225C1007.85,-226.15 1017.9,-227.35 1027.71,-228.52"/>
<polygon fill="#63b8ff" stroke="#63b8ff" points="1027.22,-231.99 1037.57,-229.7 1028.05,-225.04 1027.22,-231.99"/>
</a>
</g>
</g>
<!-- Node21&#45;&gt;Node9 -->
<g id="edge27_Node000021_Node000009" class="edge">
<title>Node21&#45;&gt;Node9</title>
<g id="a_edge27_Node000021_Node000009"><a xlink:title=" ">
<path fill="none" stroke="#63b8ff" d="M1137.39,-226.53C1157.74,-221.92 1182.28,-216.35 1203.87,-211.46"/>
<polygon fill="#63b8ff" stroke="#63b8ff" points="1204.41,-214.93 1213.39,-209.31 1202.86,-208.1 1204.41,-214.93"/>
</a>
</g>
</g>
<!-- Node21&#45;&gt;Node13 -->
<g id="edge26_Node000021_Node000013" class="edge">
<title>Node21&#45;&gt;Node13</title>
<g id="a_edge26_Node000021_Node000013"><a xlink:title=" ">
<path fill="none" stroke="#63b8ff" d="M1133.27,-226.6C1140.18,-224.09 1147.12,-221 1153.25,-217.25 1172.55,-205.44 1169.7,-192.65 1189.25,-181.25 1192.6,-179.29 1196.17,-177.53 1199.84,-175.95"/>
<polygon fill="#63b8ff" stroke="#63b8ff" points="1200.87,-179.3 1208.97,-172.47 1198.38,-172.76 1200.87,-179.3"/>
</a>
</g>
</g>
<!-- Node22 -->
<g id="Node000022" class="node">
<title>Node22</title>
<g id="a_Node000022"><a xlink:href="a02361.html#a7ab7c7fe9cb93434dde72a4e464a7e69" target="_top" xlink:title=" ">
<polygon fill="white" stroke="#666666" points="1316.62,-245.5 1200.88,-245.5 1200.88,-227 1316.62,-227 1316.62,-245.5"/>
<text text-anchor="middle" x="1258.75" y="-232" font-family="Helvetica,sans-Serif" font-size="10.00">async_semaphore_dec</text>
</a>
</g>
</g>
<!-- Node21&#45;&gt;Node22 -->
<g id="edge28_Node000021_Node000022" class="edge">
<title>Node21&#45;&gt;Node22</title>
<g id="a_edge28_Node000021_Node000022"><a xlink:title=" ">
<path fill="none" stroke="#63b8ff" d="M1147.95,-236.25C1161.1,-236.25 1175.36,-236.25 1189.12,-236.25"/>
<polygon fill="#63b8ff" stroke="#63b8ff" points="1189.01,-239.75 1199.01,-236.25 1189.01,-232.75 1189.01,-239.75"/>
</a>
</g>
</g>
<!-- Node25 -->
<g id="Node000025" class="node">
<title>Node25</title>
<g id="a_Node000025"><a xlink:href="a01958.html#a5c575f52a42e0e0d2fb41bda2d1268ce" target="_top" xlink:title=" ">
<polygon fill="white" stroke="#666666" points="687.12,-296.5 587.88,-296.5 587.88,-278 687.12,-278 687.12,-296.5"/>
<text text-anchor="middle" x="637.5" y="-283" font-family="Helvetica,sans-Serif" font-size="10.00">utils_list_node_add</text>
</a>
</g>
</g>
<!-- Node24&#45;&gt;Node25 -->
<g id="edge31_Node000024_Node000025" class="edge">
<title>Node24&#45;&gt;Node25</title>
<g id="a_edge31_Node000024_Node000025"><a xlink:title=" ">
<path fill="none" stroke="#63b8ff" d="M514.93,-287.25C533.05,-287.25 555.56,-287.25 576.27,-287.25"/>
<polygon fill="#63b8ff" stroke="#63b8ff" points="576.03,-290.75 586.03,-287.25 576.03,-283.75 576.03,-290.75"/>
</a>
</g>
</g>
<!-- Node27&#45;&gt;Node26 -->
<g id="edge34_Node000027_Node000026" class="edge">
<title>Node27&#45;&gt;Node26</title>
<g id="a_edge34_Node000027_Node000026"><a xlink:title=" ">
<path fill="none" stroke="#63b8ff" d="M379.65,-213.25C392.21,-213.25 405.6,-213.25 418.32,-213.25"/>
<polygon fill="#63b8ff" stroke="#63b8ff" points="418.24,-216.75 428.24,-213.25 418.24,-209.75 418.24,-216.75"/>
</a>
</g>
</g>
<!-- Node29&#45;&gt;Node15 -->
<g id="edge37_Node000029_Node000015" class="edge">
<title>Node29&#45;&gt;Node15</title>
<g id="a_edge37_Node000029_Node000015"><a xlink:title=" ">
<path fill="none" stroke="#63b8ff" d="M515.72,-73.99C537.65,-79.85 565.8,-87.37 589.4,-93.67"/>
<polygon fill="#63b8ff" stroke="#63b8ff" points="588.2,-96.97 598.76,-96.17 590.01,-90.21 588.2,-96.97"/>
</a>
</g>
</g>
<!-- Node30 -->
<g id="Node000030" class="node">
<title>Node30</title>
<g id="a_Node000030"><a xlink:href="a01946.html#a8b82433bc8c7d7f03683ac521a3679fa" target="_top" xlink:title=" ">
<polygon fill="white" stroke="#666666" points="847.5,-88.5 734,-88.5 734,-70 847.5,-70 847.5,-88.5"/>
<text text-anchor="middle" x="790.75" y="-75" font-family="Helvetica,sans-Serif" font-size="10.00">arax_vaccel_add_task</text>
</a>
</g>
</g>
<!-- Node29&#45;&gt;Node30 -->
<g id="edge38_Node000029_Node000030" class="edge">
<title>Node29&#45;&gt;Node30</title>
<g id="a_edge38_Node000029_Node000030"><a xlink:title=" ">
<path fill="none" stroke="#63b8ff" d="M525.73,-66.5C577.95,-69.02 663.14,-73.13 722.58,-76.01"/>
<polygon fill="#63b8ff" stroke="#63b8ff" points="722.07,-79.48 732.22,-76.47 722.41,-72.49 722.07,-79.48"/>
</a>
</g>
</g>
<!-- Node31 -->
<g id="Node000031" class="node">
<title>Node31</title>
<g id="a_Node000031"><a xlink:href="a01919.html#ab6afd8cc035237c811ce6a1b7727acc3" target="_top" xlink:title=" ">
<polygon fill="white" stroke="#666666" points="995.12,-134.5 886.12,-134.5 886.12,-116 995.12,-116 995.12,-134.5"/>
<text text-anchor="middle" x="940.62" y="-121" font-family="Helvetica,sans-Serif" font-size="10.00">arax_accel_add_task</text>
</a>
</g>
</g>
<!-- Node30&#45;&gt;Node31 -->
<g id="edge39_Node000030_Node000031" class="edge">
<title>Node30&#45;&gt;Node31</title>
<g id="a_edge39_Node000030_Node000031"><a xlink:title=" ">
<path fill="none" stroke="#63b8ff" d="M822.75,-88.89C844.46,-95.65 873.74,-104.75 897.56,-112.16"/>
<polygon fill="#63b8ff" stroke="#63b8ff" points="896.38,-115.46 906.97,-115.09 898.46,-108.78 896.38,-115.46"/>
</a>
</g>
</g>
<!-- Node32 -->
<g id="Node000032" class="node">
<title>Node32</title>
<g id="a_Node000032"><a xlink:href="a01961.html#a9fae55b169121c4851bb7c0adf4eac47" target="_top" xlink:title=" ">
<polygon fill="white" stroke="#666666" points="986.5,-88.5 894.75,-88.5 894.75,-70 986.5,-70 986.5,-88.5"/>
<text text-anchor="middle" x="940.62" y="-75" font-family="Helvetica,sans-Serif" font-size="10.00">utils_queue_push</text>
</a>
</g>
</g>
<!-- Node30&#45;&gt;Node32 -->
<g id="edge43_Node000030_Node000032" class="edge">
<title>Node30&#45;&gt;Node32</title>
<g id="a_edge43_Node000030_Node000032"><a xlink:title=" ">
<path fill="none" stroke="#63b8ff" d="M847.66,-79.25C859.31,-79.25 871.6,-79.25 883.27,-79.25"/>
<polygon fill="#63b8ff" stroke="#63b8ff" points="883.18,-82.75 893.18,-79.25 883.18,-75.75 883.18,-82.75"/>
</a>
</g>
</g>
<!-- Node31&#45;&gt;Node8 -->
<g id="edge40_Node000031_Node000008" class="edge">
<title>Node31&#45;&gt;Node8</title>
<g id="a_edge40_Node000031_Node000008"><a xlink:title=" ">
<path fill="none" stroke="#63b8ff" d="M978.36,-134.97C985.06,-137.49 991.81,-140.56 997.75,-144.25 1016.97,-156.19 1014.45,-168.44 1033.75,-180.25 1036.72,-182.07 1039.88,-183.73 1043.13,-185.24"/>
<polygon fill="#63b8ff" stroke="#63b8ff" points="1041.75,-188.46 1052.33,-189.03 1044.42,-181.99 1041.75,-188.46"/>
</a>
</g>
</g>
<!-- Node31&#45;&gt;Node10 -->
<g id="edge41_Node000031_Node000010" class="edge">
<title>Node31&#45;&gt;Node10</title>
<g id="a_edge41_Node000031_Node000010"><a xlink:title=" ">
<path fill="none" stroke="#63b8ff" d="M995.24,-125.25C1004.68,-125.25 1014.61,-125.25 1024.38,-125.25"/>
<polygon fill="#63b8ff" stroke="#63b8ff" points="1024.22,-128.75 1034.22,-125.25 1024.22,-121.75 1024.22,-128.75"/>
</a>
</g>
</g>
<!-- Node31&#45;&gt;Node12 -->
<g id="edge42_Node000031_Node000012" class="edge">
<title>Node31&#45;&gt;Node12</title>
<g id="a_edge42_Node000031_Node000012"><a xlink:title=" ">
<path fill="none" stroke="#63b8ff" d="M981.27,-134.97C999.82,-139.52 1022.13,-144.99 1041.88,-149.84"/>
<polygon fill="#63b8ff" stroke="#63b8ff" points="1040.85,-153.19 1051.39,-152.17 1042.51,-146.39 1040.85,-153.19"/>
</a>
</g>
</g>
</g>
</svg>
