<?xml version="1.0" encoding="UTF-8" standalone="no"?>
<!DOCTYPE svg PUBLIC "-//W3C//DTD SVG 1.1//EN"
 "http://www.w3.org/Graphics/SVG/1.1/DTD/svg11.dtd">
<!-- Generated by graphviz version 11.0.0 (0)
 -->
<!-- Title: arax_task_issue_sync Pages: 1 -->
<svg width="1491pt" height="325pt"
 viewBox="0.00 0.00 1491.00 325.25" xmlns="http://www.w3.org/2000/svg" xmlns:xlink="http://www.w3.org/1999/xlink">
<g id="graph0" class="graph" transform="scale(1 1) rotate(0) translate(4 321.25)">
<title>arax_task_issue_sync</title>
<!-- Node1 -->
<g id="Node000001" class="node">
<title>Node1</title>
<g id="a_Node000001"><a xlink:title=" ">
<polygon fill="#999999" stroke="#666666" points="113.5,-168.25 0,-168.25 0,-149.75 113.5,-149.75 113.5,-168.25"/>
<text text-anchor="middle" x="56.75" y="-154.75" font-family="Helvetica,sans-Serif" font-size="10.00">arax_task_issue_sync</text>
</a>
</g>
</g>
<!-- Node2 -->
<g id="Node000002" class="node">
<title>Node2</title>
<g id="a_Node000002"><a xlink:href="a02192.html#ga55195957c1cde1508257782716aa6db3" target="_top" xlink:title=" ">
<polygon fill="white" stroke="#666666" points="234.12,-168.25 152.88,-168.25 152.88,-149.75 234.12,-149.75 234.12,-168.25"/>
<text text-anchor="middle" x="193.5" y="-154.75" font-family="Helvetica,sans-Serif" font-size="10.00">arax_task_free</text>
</a>
</g>
</g>
<!-- Node1&#45;&gt;Node2 -->
<g id="edge1_Node000001_Node000002" class="edge">
<title>Node1&#45;&gt;Node2</title>
<g id="a_edge1_Node000001_Node000002"><a xlink:title=" ">
<path fill="none" stroke="#63b8ff" d="M113.73,-159C122.78,-159 132.11,-159 141.04,-159"/>
<polygon fill="#63b8ff" stroke="#63b8ff" points="140.99,-162.5 150.99,-159 140.99,-155.5 140.99,-162.5"/>
</a>
</g>
</g>
<!-- Node13 -->
<g id="Node000013" class="node">
<title>Node13</title>
<g id="a_Node000013"><a xlink:href="a02192.html#gac9f0f3fbb14da879d3ff09bd367bbb24" target="_top" xlink:title=" ">
<polygon fill="white" stroke="#666666" points="237.5,-94.25 149.5,-94.25 149.5,-75.75 237.5,-75.75 237.5,-94.25"/>
<text text-anchor="middle" x="193.5" y="-80.75" font-family="Helvetica,sans-Serif" font-size="10.00">arax_task_issue</text>
</a>
</g>
</g>
<!-- Node1&#45;&gt;Node13 -->
<g id="edge12_Node000001_Node000013" class="edge">
<title>Node1&#45;&gt;Node13</title>
<g id="a_edge12_Node000001_Node000013"><a xlink:title=" ">
<path fill="none" stroke="#63b8ff" d="M75.37,-149.33C98.16,-136.81 138.14,-114.86 164.96,-100.13"/>
<polygon fill="#63b8ff" stroke="#63b8ff" points="166.47,-103.29 173.55,-95.41 163.1,-97.15 166.47,-103.29"/>
</a>
</g>
</g>
<!-- Node36 -->
<g id="Node000036" class="node">
<title>Node36</title>
<g id="a_Node000036"><a xlink:href="a02192.html#gacb098c0a8c3908f3fdd32e7ea7d780bb" target="_top" xlink:title=" ">
<polygon fill="white" stroke="#666666" points="234.5,-224.25 152.5,-224.25 152.5,-205.75 234.5,-205.75 234.5,-224.25"/>
<text text-anchor="middle" x="193.5" y="-210.75" font-family="Helvetica,sans-Serif" font-size="10.00">arax_task_wait</text>
</a>
</g>
</g>
<!-- Node1&#45;&gt;Node36 -->
<g id="edge48_Node000001_Node000036" class="edge">
<title>Node1&#45;&gt;Node36</title>
<g id="a_edge48_Node000001_Node000036"><a xlink:title=" ">
<path fill="none" stroke="#63b8ff" d="M80.91,-168.63C102.32,-177.53 134.38,-190.85 158.65,-200.94"/>
<polygon fill="#63b8ff" stroke="#63b8ff" points="157.21,-204.13 167.79,-204.73 159.9,-197.66 157.21,-204.13"/>
</a>
</g>
</g>
<!-- Node3 -->
<g id="Node000003" class="node">
<title>Node3</title>
<g id="a_Node000003"><a xlink:href="a01928.html#afe7e4a63c40fbcaae742b8de8693483f" target="_top" xlink:title=" ">
<polygon fill="white" stroke="#666666" points="844.5,-168.25 740,-168.25 740,-149.75 844.5,-149.75 844.5,-168.25"/>
<text text-anchor="middle" x="792.25" y="-154.75" font-family="Helvetica,sans-Serif" font-size="10.00">arax_object_ref_dec</text>
</a>
</g>
</g>
<!-- Node2&#45;&gt;Node3 -->
<g id="edge2_Node000002_Node000003" class="edge">
<title>Node2&#45;&gt;Node3</title>
<g id="a_edge2_Node000002_Node000003"><a xlink:title=" ">
<path fill="none" stroke="#63b8ff" d="M234.58,-159C336.35,-159 605.36,-159 728.32,-159"/>
<polygon fill="#63b8ff" stroke="#63b8ff" points="728.24,-162.5 738.24,-159 728.24,-155.5 728.24,-162.5"/>
</a>
</g>
</g>
<!-- Node4 -->
<g id="Node000004" class="node">
<title>Node4</title>
<g id="a_Node000004"><a xlink:href="a01931.html#a9f30684f01feac766b42d622970ed5a6" target="_top" xlink:title=" ">
<polygon fill="white" stroke="#666666" points="995.12,-140.25 895.88,-140.25 895.88,-121.75 995.12,-121.75 995.12,-140.25"/>
<text text-anchor="middle" x="945.5" y="-126.75" font-family="Helvetica,sans-Serif" font-size="10.00">arax_pipe_size_inc</text>
</a>
</g>
</g>
<!-- Node3&#45;&gt;Node4 -->
<g id="edge3_Node000003_Node000004" class="edge">
<title>Node3&#45;&gt;Node4</title>
<g id="a_edge3_Node000003_Node000004"><a xlink:title=" ">
<path fill="none" stroke="#63b8ff" d="M844.88,-149.45C857.52,-147.11 871.16,-144.58 884.17,-142.17"/>
<polygon fill="#63b8ff" stroke="#63b8ff" points="884.72,-145.63 893.91,-140.37 883.44,-138.75 884.72,-145.63"/>
</a>
</g>
</g>
<!-- Node12 -->
<g id="Node000012" class="node">
<title>Node12</title>
<g id="a_Node000012"><a xlink:href="a01958.html#a0c85e5516222ab7e7fc354c614760ec5" target="_top" xlink:title=" ">
<polygon fill="white" stroke="#666666" points="980.5,-177.25 910.5,-177.25 910.5,-158.75 980.5,-158.75 980.5,-177.25"/>
<text text-anchor="middle" x="945.5" y="-163.75" font-family="Helvetica,sans-Serif" font-size="10.00">utils_list_del</text>
</a>
</g>
</g>
<!-- Node3&#45;&gt;Node12 -->
<g id="edge11_Node000003_Node000012" class="edge">
<title>Node3&#45;&gt;Node12</title>
<g id="a_edge11_Node000003_Node000012"><a xlink:title=" ">
<path fill="none" stroke="#63b8ff" d="M844.88,-162.08C862.4,-163.12 881.84,-164.28 898.86,-165.29"/>
<polygon fill="#63b8ff" stroke="#63b8ff" points="898.5,-168.77 908.69,-165.87 898.92,-161.79 898.5,-168.77"/>
</a>
</g>
</g>
<!-- Node5 -->
<g id="Node000005" class="node">
<title>Node5</title>
<g id="a_Node000005"><a xlink:href="a01943.html#a7d3a67fa4eeb00cc9508a7ffe451a02f" target="_top" xlink:title=" ">
<polygon fill="white" stroke="#666666" points="1151,-140.25 1039.75,-140.25 1039.75,-121.75 1151,-121.75 1151,-140.25"/>
<text text-anchor="middle" x="1095.38" y="-126.75" font-family="Helvetica,sans-Serif" font-size="10.00">arax_throttle_size_inc</text>
</a>
</g>
</g>
<!-- Node4&#45;&gt;Node5 -->
<g id="edge4_Node000004_Node000005" class="edge">
<title>Node4&#45;&gt;Node5</title>
<g id="a_edge4_Node000004_Node000005"><a xlink:title=" ">
<path fill="none" stroke="#63b8ff" d="M995.33,-131C1005.82,-131 1017.07,-131 1028.1,-131"/>
<polygon fill="#63b8ff" stroke="#63b8ff" points="1027.95,-134.5 1037.95,-131 1027.95,-127.5 1027.95,-134.5"/>
</a>
</g>
</g>
<!-- Node6 -->
<g id="Node000006" class="node">
<title>Node6</title>
<g id="a_Node000006"><a xlink:href="a02367.html#aed6af4d83e934e3e654ead541b15f2d9" target="_top" xlink:title=" ">
<polygon fill="white" stroke="#666666" points="1302.75,-177.25 1193.75,-177.25 1193.75,-158.75 1302.75,-158.75 1302.75,-177.25"/>
<text text-anchor="middle" x="1248.25" y="-163.75" font-family="Helvetica,sans-Serif" font-size="10.00">async_condition_lock</text>
</a>
</g>
</g>
<!-- Node5&#45;&gt;Node6 -->
<g id="edge5_Node000005_Node000006" class="edge">
<title>Node5&#45;&gt;Node6</title>
<g id="a_edge5_Node000005_Node000006"><a xlink:title=" ">
<path fill="none" stroke="#63b8ff" d="M1136.02,-140.73C1154.57,-145.27 1176.88,-150.75 1196.63,-155.59"/>
<polygon fill="#63b8ff" stroke="#63b8ff" points="1195.6,-158.94 1206.14,-157.92 1197.26,-152.14 1195.6,-158.94"/>
</a>
</g>
</g>
<!-- Node8 -->
<g id="Node000008" class="node">
<title>Node8</title>
<g id="a_Node000008"><a xlink:href="a02367.html#a45a896fb606c2aa66a5a4c2af59ce494" target="_top" xlink:title=" ">
<polygon fill="white" stroke="#666666" points="1305.75,-103.25 1190.75,-103.25 1190.75,-84.75 1305.75,-84.75 1305.75,-103.25"/>
<text text-anchor="middle" x="1248.25" y="-89.75" font-family="Helvetica,sans-Serif" font-size="10.00">async_condition_notify</text>
</a>
</g>
</g>
<!-- Node5&#45;&gt;Node8 -->
<g id="edge7_Node000005_Node000008" class="edge">
<title>Node5&#45;&gt;Node8</title>
<g id="a_edge7_Node000005_Node000008"><a xlink:title=" ">
<path fill="none" stroke="#63b8ff" d="M1136.02,-121.28C1154.57,-116.73 1176.88,-111.26 1196.63,-106.42"/>
<polygon fill="#63b8ff" stroke="#63b8ff" points="1197.26,-109.87 1206.14,-104.08 1195.6,-103.07 1197.26,-109.87"/>
</a>
</g>
</g>
<!-- Node10 -->
<g id="Node000010" class="node">
<title>Node10</title>
<g id="a_Node000010"><a xlink:href="a02367.html#a3bbcb7c4c024e99d5c4ba52b61dfbbf7" target="_top" xlink:title=" ">
<polygon fill="white" stroke="#666666" points="1308,-140.25 1188.5,-140.25 1188.5,-121.75 1308,-121.75 1308,-140.25"/>
<text text-anchor="middle" x="1248.25" y="-126.75" font-family="Helvetica,sans-Serif" font-size="10.00">async_condition_unlock</text>
</a>
</g>
</g>
<!-- Node5&#45;&gt;Node10 -->
<g id="edge9_Node000005_Node000010" class="edge">
<title>Node5&#45;&gt;Node10</title>
<g id="a_edge9_Node000005_Node000010"><a xlink:title=" ">
<path fill="none" stroke="#63b8ff" d="M1151.27,-131C1159.5,-131 1168.07,-131 1176.57,-131"/>
<polygon fill="#63b8ff" stroke="#63b8ff" points="1176.55,-134.5 1186.55,-131 1176.55,-127.5 1176.55,-134.5"/>
</a>
</g>
</g>
<!-- Node7 -->
<g id="Node000007" class="node">
<title>Node7</title>
<g id="a_Node000007"><a xlink:href="a02361.html#aebf9e72bb6cbd8b9e33489d46c25075d" target="_top" xlink:title=" ">
<polygon fill="white" stroke="#666666" points="1471.75,-177.25 1355.25,-177.25 1355.25,-158.75 1471.75,-158.75 1471.75,-177.25"/>
<text text-anchor="middle" x="1413.5" y="-163.75" font-family="Helvetica,sans-Serif" font-size="10.00">async_completion_wait</text>
</a>
</g>
</g>
<!-- Node6&#45;&gt;Node7 -->
<g id="edge6_Node000006_Node000007" class="edge">
<title>Node6&#45;&gt;Node7</title>
<g id="a_edge6_Node000006_Node000007"><a xlink:title=" ">
<path fill="none" stroke="#63b8ff" d="M1303.16,-168C1316.14,-168 1330.19,-168 1343.76,-168"/>
<polygon fill="#63b8ff" stroke="#63b8ff" points="1343.49,-171.5 1353.49,-168 1343.49,-164.5 1343.49,-171.5"/>
</a>
</g>
</g>
<!-- Node9 -->
<g id="Node000009" class="node">
<title>Node9</title>
<g id="a_Node000009"><a xlink:href="a02361.html#a0fa370eee5160963e617d1daf1c07363" target="_top" xlink:title=" ">
<polygon fill="white" stroke="#666666" points="1469.88,-103.25 1357.12,-103.25 1357.12,-84.75 1469.88,-84.75 1469.88,-103.25"/>
<text text-anchor="middle" x="1413.5" y="-89.75" font-family="Helvetica,sans-Serif" font-size="10.00">async_semaphore_inc</text>
</a>
</g>
</g>
<!-- Node8&#45;&gt;Node9 -->
<g id="edge8_Node000008_Node000009" class="edge">
<title>Node8&#45;&gt;Node9</title>
<g id="a_edge8_Node000008_Node000009"><a xlink:title=" ">
<path fill="none" stroke="#63b8ff" d="M1305.89,-94C1318.64,-94 1332.29,-94 1345.42,-94"/>
<polygon fill="#63b8ff" stroke="#63b8ff" points="1345.28,-97.5 1355.28,-94 1345.27,-90.5 1345.28,-97.5"/>
</a>
</g>
</g>
<!-- Node11 -->
<g id="Node000011" class="node">
<title>Node11</title>
<g id="a_Node000011"><a xlink:href="a02361.html#ad1d30ecbf6bff6457b680aa940281072" target="_top" xlink:title=" ">
<polygon fill="white" stroke="#666666" points="1483,-140.25 1344,-140.25 1344,-121.75 1483,-121.75 1483,-140.25"/>
<text text-anchor="middle" x="1413.5" y="-126.75" font-family="Helvetica,sans-Serif" font-size="10.00">async_completion_complete</text>
</a>
</g>
</g>
<!-- Node10&#45;&gt;Node11 -->
<g id="edge10_Node000010_Node000011" class="edge">
<title>Node10&#45;&gt;Node11</title>
<g id="a_edge10_Node000010_Node000011"><a xlink:title=" ">
<path fill="none" stroke="#63b8ff" d="M1308.19,-131C1316.01,-131 1324.13,-131 1332.24,-131"/>
<polygon fill="#63b8ff" stroke="#63b8ff" points="1332.14,-134.5 1342.14,-131 1332.14,-127.5 1332.14,-134.5"/>
</a>
</g>
</g>
<!-- Node14 -->
<g id="Node000014" class="node">
<title>Node14</title>
<g id="a_Node000014"><a xlink:href="a01940.html#a27bee94f7a23281c8b2b72ec433f6059" target="_top" xlink:title=" ">
<polygon fill="white" stroke="#666666" points="370.12,-131.25 285.12,-131.25 285.12,-112.75 370.12,-112.75 370.12,-131.25"/>
<text text-anchor="middle" x="327.62" y="-117.75" font-family="Helvetica,sans-Serif" font-size="10.00">arax_task_alloc</text>
</a>
</g>
</g>
<!-- Node13&#45;&gt;Node14 -->
<g id="edge13_Node000013_Node000014" class="edge">
<title>Node13&#45;&gt;Node14</title>
<g id="a_edge13_Node000013_Node000014"><a xlink:title=" ">
<path fill="none" stroke="#63b8ff" d="M229.21,-94.73C245.14,-99.19 264.24,-104.53 281.29,-109.31"/>
<polygon fill="#63b8ff" stroke="#63b8ff" points="280.11,-112.61 290.69,-111.94 282,-105.87 280.11,-112.61"/>
</a>
</g>
</g>
<!-- Node30 -->
<g id="Node000030" class="node">
<title>Node30</title>
<g id="a_Node000030"><a xlink:href="a01940.html#aa3cb73b347940187fb3399f51b1a55b7" target="_top" xlink:title=" ">
<polygon fill="white" stroke="#666666" points="381.38,-94.25 273.88,-94.25 273.88,-75.75 381.38,-75.75 381.38,-94.25"/>
<text text-anchor="middle" x="327.62" y="-80.75" font-family="Helvetica,sans-Serif" font-size="10.00">arax_task_host_data</text>
</a>
</g>
</g>
<!-- Node13&#45;&gt;Node30 -->
<g id="edge38_Node000013_Node000030" class="edge">
<title>Node13&#45;&gt;Node30</title>
<g id="a_edge38_Node000013_Node000030"><a xlink:title=" ">
<path fill="none" stroke="#63b8ff" d="M237.76,-85C245.63,-85 253.98,-85 262.3,-85"/>
<polygon fill="#63b8ff" stroke="#63b8ff" points="262.06,-88.5 272.06,-85 262.06,-81.5 262.06,-88.5"/>
</a>
</g>
</g>
<!-- Node31 -->
<g id="Node000031" class="node">
<title>Node31</title>
<g id="a_Node000031"><a xlink:href="a01940.html#ace08f924cb86d1310099621564536657" target="_top" xlink:title=" ">
<polygon fill="white" stroke="#666666" points="680,-19.25 586,-19.25 586,-0.75 680,-0.75 680,-19.25"/>
<text text-anchor="middle" x="633" y="-5.75" font-family="Helvetica,sans-Serif" font-size="10.00">arax_task_submit</text>
</a>
</g>
</g>
<!-- Node13&#45;&gt;Node31 -->
<g id="edge39_Node000013_Node000031" class="edge">
<title>Node13&#45;&gt;Node31</title>
<g id="a_edge39_Node000013_Node000031"><a xlink:title=" ">
<path fill="none" stroke="#63b8ff" d="M204.2,-75.5C218.17,-62.5 245.38,-39.7 273.5,-30 375.03,5 502.27,1.94 574.63,-3.79"/>
<polygon fill="#63b8ff" stroke="#63b8ff" points="574,-7.25 584.26,-4.6 574.58,-0.28 574,-7.25"/>
</a>
</g>
</g>
<!-- Node35 -->
<g id="Node000035" class="node">
<title>Node35</title>
<g id="a_Node000035"><a xlink:href="a01913.html#a226d4d420328a42fd671699ae60c4c3a" target="_top" xlink:title=" ">
<polygon fill="white" stroke="#666666" points="373.88,-57.25 281.38,-57.25 281.38,-38.75 373.88,-38.75 373.88,-57.25"/>
<text text-anchor="middle" x="327.62" y="-43.75" font-family="Helvetica,sans-Serif" font-size="10.00">check_semantics</text>
</a>
</g>
</g>
<!-- Node13&#45;&gt;Node35 -->
<g id="edge47_Node000013_Node000035" class="edge">
<title>Node13&#45;&gt;Node35</title>
<g id="a_edge47_Node000013_Node000035"><a xlink:title=" ">
<path fill="none" stroke="#63b8ff" d="M229.21,-75.28C245.14,-70.82 264.24,-65.47 281.29,-60.7"/>
<polygon fill="#63b8ff" stroke="#63b8ff" points="282,-64.14 290.69,-58.07 280.11,-57.39 282,-64.14"/>
</a>
</g>
</g>
<!-- Node15 -->
<g id="Node000015" class="node">
<title>Node15</title>
<g id="a_Node000015"><a xlink:href="a01925.html#a1dc669466d6f52d5be8af2d991512ac2" target="_top" xlink:title=" ">
<polygon fill="white" stroke="#666666" points="527.88,-94.25 424.12,-94.25 424.12,-75.75 527.88,-75.75 527.88,-94.25"/>
<text text-anchor="middle" x="476" y="-80.75" font-family="Helvetica,sans-Serif" font-size="10.00">arax_data_input_init</text>
</a>
</g>
</g>
<!-- Node14&#45;&gt;Node15 -->
<g id="edge14_Node000014_Node000015" class="edge">
<title>Node14&#45;&gt;Node15</title>
<g id="a_edge14_Node000014_Node000015"><a xlink:title=" ">
<path fill="none" stroke="#63b8ff" d="M367.08,-112.28C385,-107.75 406.53,-102.31 425.63,-97.48"/>
<polygon fill="#63b8ff" stroke="#63b8ff" points="426.24,-100.94 435.08,-95.1 424.52,-94.15 426.24,-100.94"/>
</a>
</g>
</g>
<!-- Node19 -->
<g id="Node000019" class="node">
<title>Node19</title>
<g id="a_Node000019"><a xlink:href="a01925.html#a18d07d808917e0b971d46332e9e64da4" target="_top" xlink:title=" ">
<polygon fill="white" stroke="#666666" points="530.88,-57.25 421.12,-57.25 421.12,-38.75 530.88,-38.75 530.88,-57.25"/>
<text text-anchor="middle" x="476" y="-43.75" font-family="Helvetica,sans-Serif" font-size="10.00">arax_data_output_init</text>
</a>
</g>
</g>
<!-- Node14&#45;&gt;Node19 -->
<g id="edge20_Node000014_Node000019" class="edge">
<title>Node14&#45;&gt;Node19</title>
<g id="a_edge20_Node000014_Node000019"><a xlink:title=" ">
<path fill="none" stroke="#63b8ff" d="M362.83,-112.3C369.36,-109.75 375.96,-106.67 381.75,-103 400.87,-90.9 398.49,-78.89 417.75,-67 420.69,-65.19 423.81,-63.53 427.04,-62.02"/>
<polygon fill="#63b8ff" stroke="#63b8ff" points="428.25,-65.3 436.13,-58.23 425.55,-58.84 428.25,-65.3"/>
</a>
</g>
</g>
<!-- Node20 -->
<g id="Node000020" class="node">
<title>Node20</title>
<g id="a_Node000020"><a xlink:href="a01928.html#a402bbd6fa197c2c48d527325e5e2cf5b" target="_top" xlink:title=" ">
<polygon fill="white" stroke="#666666" points="685.25,-243.25 580.75,-243.25 580.75,-224.75 685.25,-224.75 685.25,-243.25"/>
<text text-anchor="middle" x="633" y="-229.75" font-family="Helvetica,sans-Serif" font-size="10.00">arax_object_register</text>
</a>
</g>
</g>
<!-- Node14&#45;&gt;Node20 -->
<g id="edge23_Node000014_Node000020" class="edge">
<title>Node14&#45;&gt;Node20</title>
<g id="a_edge23_Node000014_Node000020"><a xlink:title=" ">
<path fill="none" stroke="#63b8ff" d="M355.02,-131.75C409.28,-151.78 533.46,-197.62 595.42,-220.5"/>
<polygon fill="#63b8ff" stroke="#63b8ff" points="593.87,-223.66 604.47,-223.84 596.3,-217.09 593.87,-223.66"/>
</a>
</g>
</g>
<!-- Node29 -->
<g id="Node000029" class="node">
<title>Node29</title>
<g id="a_Node000029"><a xlink:href="a02367.html#ac728117d73179c279de49e01ae905dda" target="_top" xlink:title=" ">
<polygon fill="white" stroke="#666666" points="532,-131.25 420,-131.25 420,-112.75 532,-112.75 532,-131.25"/>
<text text-anchor="middle" x="476" y="-117.75" font-family="Helvetica,sans-Serif" font-size="10.00">async_completion_init</text>
</a>
</g>
</g>
<!-- Node14&#45;&gt;Node29 -->
<g id="edge36_Node000014_Node000029" class="edge">
<title>Node14&#45;&gt;Node29</title>
<g id="a_edge36_Node000014_Node000029"><a xlink:title=" ">
<path fill="none" stroke="#63b8ff" d="M370.57,-122C382.4,-122 395.56,-122 408.45,-122"/>
<polygon fill="#63b8ff" stroke="#63b8ff" points="408.15,-125.5 418.15,-122 408.15,-118.5 408.15,-125.5"/>
</a>
</g>
</g>
<!-- Node16 -->
<g id="Node000016" class="node">
<title>Node16</title>
<g id="a_Node000016"><a xlink:href="a01925.html#a4b65f90a821aca384f0ca1cff7bd1846" target="_top" xlink:title=" ">
<polygon fill="white" stroke="#666666" points="695.75,-131.25 570.25,-131.25 570.25,-112.75 695.75,-112.75 695.75,-131.25"/>
<text text-anchor="middle" x="633" y="-117.75" font-family="Helvetica,sans-Serif" font-size="10.00">arax_data_migrate_accel</text>
</a>
</g>
</g>
<!-- Node15&#45;&gt;Node16 -->
<g id="edge15_Node000015_Node000016" class="edge">
<title>Node15&#45;&gt;Node16</title>
<g id="a_edge15_Node000015_Node000016"><a xlink:title=" ">
<path fill="none" stroke="#63b8ff" d="M517.72,-94.73C536.87,-99.3 559.92,-104.8 580.28,-109.66"/>
<polygon fill="#63b8ff" stroke="#63b8ff" points="579.27,-113.01 589.81,-111.93 580.89,-106.21 579.27,-113.01"/>
</a>
</g>
</g>
<!-- Node17 -->
<g id="Node000017" class="node">
<title>Node17</title>
<g id="a_Node000017"><a xlink:href="a01928.html#a9255b8011e6d7c9b28c7df40065efb28" target="_top" xlink:title=" ">
<polygon fill="white" stroke="#666666" points="843,-85.25 741.5,-85.25 741.5,-66.75 843,-66.75 843,-85.25"/>
<text text-anchor="middle" x="792.25" y="-71.75" font-family="Helvetica,sans-Serif" font-size="10.00">arax_object_ref_inc</text>
</a>
</g>
</g>
<!-- Node15&#45;&gt;Node17 -->
<g id="edge19_Node000015_Node000017" class="edge">
<title>Node15&#45;&gt;Node17</title>
<g id="a_edge19_Node000015_Node000017"><a xlink:title=" ">
<path fill="none" stroke="#63b8ff" d="M528.19,-83.54C583.3,-81.96 670.96,-79.45 729.76,-77.76"/>
<polygon fill="#63b8ff" stroke="#63b8ff" points="729.71,-81.27 739.61,-77.48 729.51,-74.27 729.71,-81.27"/>
</a>
</g>
</g>
<!-- Node16&#45;&gt;Node3 -->
<g id="edge16_Node000016_Node000003" class="edge">
<title>Node16&#45;&gt;Node3</title>
<g id="a_edge16_Node000016_Node000003"><a xlink:title=" ">
<path fill="none" stroke="#63b8ff" d="M675.32,-131.73C694.74,-136.3 718.12,-141.8 738.78,-146.66"/>
<polygon fill="#63b8ff" stroke="#63b8ff" points="737.93,-150.05 748.46,-148.94 739.53,-143.24 737.93,-150.05"/>
</a>
</g>
</g>
<!-- Node16&#45;&gt;Node17 -->
<g id="edge17_Node000016_Node000017" class="edge">
<title>Node16&#45;&gt;Node17</title>
<g id="a_edge17_Node000016_Node000017"><a xlink:title=" ">
<path fill="none" stroke="#63b8ff" d="M666.96,-112.36C690.26,-105.54 721.75,-96.33 747.2,-88.89"/>
<polygon fill="#63b8ff" stroke="#63b8ff" points="747.99,-92.31 756.61,-86.14 746.03,-85.59 747.99,-92.31"/>
</a>
</g>
</g>
<!-- Node18 -->
<g id="Node000018" class="node">
<title>Node18</title>
<g id="a_Node000018"><a xlink:href="a01928.html#a668fd893484b6e2d67d8b372b508d14f" target="_top" xlink:title=" ">
<polygon fill="white" stroke="#666666" points="852.75,-131.25 731.75,-131.25 731.75,-112.75 852.75,-112.75 852.75,-131.25"/>
<text text-anchor="middle" x="792.25" y="-117.75" font-family="Helvetica,sans-Serif" font-size="10.00">arax_object_type_to_str</text>
</a>
</g>
</g>
<!-- Node16&#45;&gt;Node18 -->
<g id="edge18_Node000016_Node000018" class="edge">
<title>Node16&#45;&gt;Node18</title>
<g id="a_edge18_Node000016_Node000018"><a xlink:title=" ">
<path fill="none" stroke="#63b8ff" d="M696.15,-122C703.94,-122 711.95,-122 719.86,-122"/>
<polygon fill="#63b8ff" stroke="#63b8ff" points="719.83,-125.5 729.83,-122 719.83,-118.5 719.83,-125.5"/>
</a>
</g>
</g>
<!-- Node19&#45;&gt;Node16 -->
<g id="edge21_Node000019_Node000016" class="edge">
<title>Node19&#45;&gt;Node16</title>
<g id="a_edge21_Node000019_Node000016"><a xlink:title=" ">
<path fill="none" stroke="#63b8ff" d="M509.81,-57.69C517.91,-60.41 526.49,-63.57 534.25,-67 560.06,-78.42 587.98,-94.54 607.35,-106.38"/>
<polygon fill="#63b8ff" stroke="#63b8ff" points="605.27,-109.21 615.61,-111.5 608.95,-103.26 605.27,-109.21"/>
</a>
</g>
</g>
<!-- Node19&#45;&gt;Node17 -->
<g id="edge22_Node000019_Node000017" class="edge">
<title>Node19&#45;&gt;Node17</title>
<g id="a_edge22_Node000019_Node000017"><a xlink:title=" ">
<path fill="none" stroke="#63b8ff" d="M531.02,-52.82C586.3,-57.74 672.06,-65.38 729.87,-70.53"/>
<polygon fill="#63b8ff" stroke="#63b8ff" points="729.26,-73.99 739.54,-71.4 729.89,-67.02 729.26,-73.99"/>
</a>
</g>
</g>
<!-- Node21 -->
<g id="Node000021" class="node">
<title>Node21</title>
<g id="a_Node000021"><a xlink:href="a01931.html#a6cc54ee40009c61b5f6526f5edff004f" target="_top" xlink:title=" ">
<polygon fill="white" stroke="#666666" points="996.62,-224.25 894.38,-224.25 894.38,-205.75 996.62,-205.75 996.62,-224.25"/>
<text text-anchor="middle" x="945.5" y="-210.75" font-family="Helvetica,sans-Serif" font-size="10.00">arax_pipe_size_dec</text>
</a>
</g>
</g>
<!-- Node20&#45;&gt;Node21 -->
<g id="edge24_Node000020_Node000021" class="edge">
<title>Node20&#45;&gt;Node21</title>
<g id="a_edge24_Node000020_Node000021"><a xlink:title=" ">
<path fill="none" stroke="#63b8ff" d="M685.62,-230.84C739.86,-227.53 825.16,-222.31 882.88,-218.77"/>
<polygon fill="#63b8ff" stroke="#63b8ff" points="882.77,-222.29 892.53,-218.18 882.34,-215.3 882.77,-222.29"/>
</a>
</g>
</g>
<!-- Node25 -->
<g id="Node000025" class="node">
<title>Node25</title>
<g id="a_Node000025"><a xlink:href="a02358.html#ac9828b5c2758940f6d3c7d4335228de5" target="_top" xlink:title=" ">
<polygon fill="white" stroke="#666666" points="841.88,-280.25 742.62,-280.25 742.62,-261.75 841.88,-261.75 841.88,-280.25"/>
<text text-anchor="middle" x="792.25" y="-266.75" font-family="Helvetica,sans-Serif" font-size="10.00">arch_alloc_allocate</text>
</a>
</g>
</g>
<!-- Node20&#45;&gt;Node25 -->
<g id="edge32_Node000020_Node000025" class="edge">
<title>Node20&#45;&gt;Node25</title>
<g id="a_edge32_Node000020_Node000025"><a xlink:title=" ">
<path fill="none" stroke="#63b8ff" d="M675.32,-243.73C694.74,-248.3 718.12,-253.8 738.78,-258.66"/>
<polygon fill="#63b8ff" stroke="#63b8ff" points="737.93,-262.05 748.46,-260.94 739.53,-255.24 737.93,-262.05"/>
</a>
</g>
</g>
<!-- Node26 -->
<g id="Node000026" class="node">
<title>Node26</title>
<g id="a_Node000026"><a xlink:href="a01958.html#ae06a9e78e6a4f6c9c8afcf0f4862ce29" target="_top" xlink:title=" ">
<polygon fill="white" stroke="#666666" points="828.75,-317.25 755.75,-317.25 755.75,-298.75 828.75,-298.75 828.75,-317.25"/>
<text text-anchor="middle" x="792.25" y="-303.75" font-family="Helvetica,sans-Serif" font-size="10.00">utils_list_add</text>
</a>
</g>
</g>
<!-- Node20&#45;&gt;Node26 -->
<g id="edge33_Node000020_Node000026" class="edge">
<title>Node20&#45;&gt;Node26</title>
<g id="a_edge33_Node000020_Node000026"><a xlink:title=" ">
<path fill="none" stroke="#63b8ff" d="M675.4,-243.67C682.45,-246.17 689.5,-249.24 695.75,-253 715.14,-264.68 712.43,-277.23 731.75,-289 735.81,-291.48 740.23,-293.66 744.76,-295.59"/>
<polygon fill="#63b8ff" stroke="#63b8ff" points="743.42,-298.82 754.01,-299.07 745.89,-292.27 743.42,-298.82"/>
</a>
</g>
</g>
<!-- Node28 -->
<g id="Node000028" class="node">
<title>Node28</title>
<g id="a_Node000028"><a xlink:href="a01958.html#a63f2791c9b5c8e2fa15967cfafb7ccbb" target="_top" xlink:title=" ">
<polygon fill="white" stroke="#666666" points="840.38,-206.25 744.12,-206.25 744.12,-187.75 840.38,-187.75 840.38,-206.25"/>
<text text-anchor="middle" x="792.25" y="-192.75" font-family="Helvetica,sans-Serif" font-size="10.00">utils_list_node_init</text>
</a>
</g>
</g>
<!-- Node20&#45;&gt;Node28 -->
<g id="edge35_Node000020_Node000028" class="edge">
<title>Node20&#45;&gt;Node28</title>
<g id="a_edge35_Node000020_Node000028"><a xlink:title=" ">
<path fill="none" stroke="#63b8ff" d="M675.32,-224.28C694.74,-219.71 718.12,-214.21 738.78,-209.35"/>
<polygon fill="#63b8ff" stroke="#63b8ff" points="739.53,-212.77 748.46,-207.07 737.93,-205.95 739.53,-212.77"/>
</a>
</g>
</g>
<!-- Node22 -->
<g id="Node000022" class="node">
<title>Node22</title>
<g id="a_Node000022"><a xlink:href="a01943.html#a63b80783cfb3106ec4169ce082f153c0" target="_top" xlink:title=" ">
<polygon fill="white" stroke="#666666" points="1152.5,-196.25 1038.25,-196.25 1038.25,-177.75 1152.5,-177.75 1152.5,-196.25"/>
<text text-anchor="middle" x="1095.38" y="-182.75" font-family="Helvetica,sans-Serif" font-size="10.00">arax_throttle_size_dec</text>
</a>
</g>
</g>
<!-- Node21&#45;&gt;Node22 -->
<g id="edge25_Node000021_Node000022" class="edge">
<title>Node21&#45;&gt;Node22</title>
<g id="a_edge25_Node000021_Node000022"><a xlink:title=" ">
<path fill="none" stroke="#63b8ff" d="M996.98,-205.45C1008.26,-203.31 1020.36,-201.02 1032.06,-198.8"/>
<polygon fill="#63b8ff" stroke="#63b8ff" points="1032.46,-202.29 1041.63,-196.99 1031.16,-195.41 1032.46,-202.29"/>
</a>
</g>
</g>
<!-- Node22&#45;&gt;Node6 -->
<g id="edge26_Node000022_Node000006" class="edge">
<title>Node22&#45;&gt;Node6</title>
<g id="a_edge26_Node000022_Node000006"><a xlink:title=" ">
<path fill="none" stroke="#63b8ff" d="M1152.98,-179.87C1162.48,-178.68 1172.4,-177.43 1182.09,-176.21"/>
<polygon fill="#63b8ff" stroke="#63b8ff" points="1182.34,-179.71 1191.82,-174.98 1181.46,-172.76 1182.34,-179.71"/>
</a>
</g>
</g>
<!-- Node22&#45;&gt;Node10 -->
<g id="edge27_Node000022_Node000010" class="edge">
<title>Node22&#45;&gt;Node10</title>
<g id="a_edge27_Node000022_Node000010"><a xlink:title=" ">
<path fill="none" stroke="#63b8ff" d="M1119.3,-177.28C1137.84,-169.55 1164.68,-158.63 1188.5,-150 1193.91,-148.05 1199.62,-146.08 1205.29,-144.18"/>
<polygon fill="#63b8ff" stroke="#63b8ff" points="1206.17,-147.58 1214.58,-141.14 1203.98,-140.93 1206.17,-147.58"/>
</a>
</g>
</g>
<!-- Node23 -->
<g id="Node000023" class="node">
<title>Node23</title>
<g id="a_Node000023"><a xlink:href="a02367.html#a1bfeaeb9b81855e640d7a67cc9d92b17" target="_top" xlink:title=" ">
<polygon fill="white" stroke="#666666" points="1302.38,-214.25 1194.12,-214.25 1194.12,-195.75 1302.38,-195.75 1302.38,-214.25"/>
<text text-anchor="middle" x="1248.25" y="-200.75" font-family="Helvetica,sans-Serif" font-size="10.00">async_condition_wait</text>
</a>
</g>
</g>
<!-- Node22&#45;&gt;Node23 -->
<g id="edge28_Node000022_Node000023" class="edge">
<title>Node22&#45;&gt;Node23</title>
<g id="a_edge28_Node000022_Node000023"><a xlink:title=" ">
<path fill="none" stroke="#63b8ff" d="M1152.98,-193.76C1162.6,-194.9 1172.65,-196.1 1182.46,-197.27"/>
<polygon fill="#63b8ff" stroke="#63b8ff" points="1181.97,-200.74 1192.32,-198.45 1182.8,-193.79 1181.97,-200.74"/>
</a>
</g>
</g>
<!-- Node23&#45;&gt;Node7 -->
<g id="edge30_Node000023_Node000007" class="edge">
<title>Node23&#45;&gt;Node7</title>
<g id="a_edge30_Node000023_Node000007"><a xlink:title=" ">
<path fill="none" stroke="#63b8ff" d="M1292.14,-195.28C1312.49,-190.67 1337.03,-185.11 1358.62,-180.21"/>
<polygon fill="#63b8ff" stroke="#63b8ff" points="1359.16,-183.68 1368.14,-178.06 1357.61,-176.86 1359.16,-183.68"/>
</a>
</g>
</g>
<!-- Node23&#45;&gt;Node11 -->
<g id="edge29_Node000023_Node000011" class="edge">
<title>Node23&#45;&gt;Node11</title>
<g id="a_edge29_Node000023_Node000011"><a xlink:title=" ">
<path fill="none" stroke="#63b8ff" d="M1288.02,-195.36C1294.93,-192.84 1301.87,-189.75 1308,-186 1327.3,-174.19 1324.45,-161.4 1344,-150 1347.35,-148.05 1350.92,-146.29 1354.59,-144.7"/>
<polygon fill="#63b8ff" stroke="#63b8ff" points="1355.62,-148.05 1363.72,-141.22 1353.13,-141.51 1355.62,-148.05"/>
</a>
</g>
</g>
<!-- Node24 -->
<g id="Node000024" class="node">
<title>Node24</title>
<g id="a_Node000024"><a xlink:href="a02361.html#a7ab7c7fe9cb93434dde72a4e464a7e69" target="_top" xlink:title=" ">
<polygon fill="white" stroke="#666666" points="1471.38,-214.25 1355.62,-214.25 1355.62,-195.75 1471.38,-195.75 1471.38,-214.25"/>
<text text-anchor="middle" x="1413.5" y="-200.75" font-family="Helvetica,sans-Serif" font-size="10.00">async_semaphore_dec</text>
</a>
</g>
</g>
<!-- Node23&#45;&gt;Node24 -->
<g id="edge31_Node000023_Node000024" class="edge">
<title>Node23&#45;&gt;Node24</title>
<g id="a_edge31_Node000023_Node000024"><a xlink:title=" ">
<path fill="none" stroke="#63b8ff" d="M1302.7,-205C1315.85,-205 1330.11,-205 1343.87,-205"/>
<polygon fill="#63b8ff" stroke="#63b8ff" points="1343.76,-208.5 1353.76,-205 1343.76,-201.5 1343.76,-208.5"/>
</a>
</g>
</g>
<!-- Node27 -->
<g id="Node000027" class="node">
<title>Node27</title>
<g id="a_Node000027"><a xlink:href="a01958.html#a5c575f52a42e0e0d2fb41bda2d1268ce" target="_top" xlink:title=" ">
<polygon fill="white" stroke="#666666" points="995.12,-317.25 895.88,-317.25 895.88,-298.75 995.12,-298.75 995.12,-317.25"/>
<text text-anchor="middle" x="945.5" y="-303.75" font-family="Helvetica,sans-Serif" font-size="10.00">utils_list_node_add</text>
</a>
</g>
</g>
<!-- Node26&#45;&gt;Node27 -->
<g id="edge34_Node000026_Node000027" class="edge">
<title>Node26&#45;&gt;Node27</title>
<g id="a_edge34_Node000026_Node000027"><a xlink:title=" ">
<path fill="none" stroke="#63b8ff" d="M829.09,-308C845.52,-308 865.44,-308 884.07,-308"/>
<polygon fill="#63b8ff" stroke="#63b8ff" points="883.95,-311.5 893.95,-308 883.95,-304.5 883.95,-311.5"/>
</a>
</g>
</g>
<!-- Node29&#45;&gt;Node28 -->
<g id="edge37_Node000029_Node000028" class="edge">
<title>Node29&#45;&gt;Node28</title>
<g id="a_edge37_Node000029_Node000028"><a xlink:title=" ">
<path fill="none" stroke="#63b8ff" d="M517.76,-131.73C574.51,-145.28 677.34,-169.82 739.46,-184.64"/>
<polygon fill="#63b8ff" stroke="#63b8ff" points="738.55,-188.02 749.09,-186.94 740.18,-181.22 738.55,-188.02"/>
</a>
</g>
</g>
<!-- Node31&#45;&gt;Node17 -->
<g id="edge40_Node000031_Node000017" class="edge">
<title>Node31&#45;&gt;Node17</title>
<g id="a_edge40_Node000031_Node000017"><a xlink:title=" ">
<path fill="none" stroke="#63b8ff" d="M661.2,-19.69C672.02,-23.66 684.53,-28.4 695.75,-33 717.68,-42.01 742.05,-53 760.68,-61.62"/>
<polygon fill="#63b8ff" stroke="#63b8ff" points="759.01,-64.7 769.56,-65.74 761.96,-58.35 759.01,-64.7"/>
</a>
</g>
</g>
<!-- Node32 -->
<g id="Node000032" class="node">
<title>Node32</title>
<g id="a_Node000032"><a xlink:href="a01946.html#a8b82433bc8c7d7f03683ac521a3679fa" target="_top" xlink:title=" ">
<polygon fill="white" stroke="#666666" points="1002.25,-66.25 888.75,-66.25 888.75,-47.75 1002.25,-47.75 1002.25,-66.25"/>
<text text-anchor="middle" x="945.5" y="-52.75" font-family="Helvetica,sans-Serif" font-size="10.00">arax_vaccel_add_task</text>
</a>
</g>
</g>
<!-- Node31&#45;&gt;Node32 -->
<g id="edge41_Node000031_Node000032" class="edge">
<title>Node31&#45;&gt;Node32</title>
<g id="a_edge41_Node000031_Node000032"><a xlink:title=" ">
<path fill="none" stroke="#63b8ff" d="M680.48,-17.04C732.7,-24.94 817.89,-37.84 877.33,-46.84"/>
<polygon fill="#63b8ff" stroke="#63b8ff" points="876.58,-50.26 886.99,-48.3 877.63,-43.34 876.58,-50.26"/>
</a>
</g>
</g>
<!-- Node33 -->
<g id="Node000033" class="node">
<title>Node33</title>
<g id="a_Node000033"><a xlink:href="a01919.html#ab6afd8cc035237c811ce6a1b7727acc3" target="_top" xlink:title=" ">
<polygon fill="white" stroke="#666666" points="1149.88,-103.25 1040.88,-103.25 1040.88,-84.75 1149.88,-84.75 1149.88,-103.25"/>
<text text-anchor="middle" x="1095.38" y="-89.75" font-family="Helvetica,sans-Serif" font-size="10.00">arax_accel_add_task</text>
</a>
</g>
</g>
<!-- Node32&#45;&gt;Node33 -->
<g id="edge42_Node000032_Node000033" class="edge">
<title>Node32&#45;&gt;Node33</title>
<g id="a_edge42_Node000032_Node000033"><a xlink:title=" ">
<path fill="none" stroke="#63b8ff" d="M985.35,-66.73C1003.45,-71.25 1025.2,-76.7 1044.49,-81.52"/>
<polygon fill="#63b8ff" stroke="#63b8ff" points="1043.51,-84.88 1054.06,-83.92 1045.21,-78.09 1043.51,-84.88"/>
</a>
</g>
</g>
<!-- Node34 -->
<g id="Node000034" class="node">
<title>Node34</title>
<g id="a_Node000034"><a xlink:href="a01961.html#a9fae55b169121c4851bb7c0adf4eac47" target="_top" xlink:title=" ">
<polygon fill="white" stroke="#666666" points="1141.25,-66.25 1049.5,-66.25 1049.5,-47.75 1141.25,-47.75 1141.25,-66.25"/>
<text text-anchor="middle" x="1095.38" y="-52.75" font-family="Helvetica,sans-Serif" font-size="10.00">utils_queue_push</text>
</a>
</g>
</g>
<!-- Node32&#45;&gt;Node34 -->
<g id="edge46_Node000032_Node000034" class="edge">
<title>Node32&#45;&gt;Node34</title>
<g id="a_edge46_Node000032_Node000034"><a xlink:title=" ">
<path fill="none" stroke="#63b8ff" d="M1002.41,-57C1014.06,-57 1026.35,-57 1038.02,-57"/>
<polygon fill="#63b8ff" stroke="#63b8ff" points="1037.93,-60.5 1047.93,-57 1037.93,-53.5 1037.93,-60.5"/>
</a>
</g>
</g>
<!-- Node33&#45;&gt;Node6 -->
<g id="edge43_Node000033_Node000006" class="edge">
<title>Node33&#45;&gt;Node6</title>
<g id="a_edge43_Node000033_Node000006"><a xlink:title=" ">
<path fill="none" stroke="#63b8ff" d="M1133.11,-103.72C1139.81,-106.24 1146.56,-109.31 1152.5,-113 1171.72,-124.94 1169.2,-137.19 1188.5,-149 1191.47,-150.82 1194.63,-152.48 1197.88,-154"/>
<polygon fill="#63b8ff" stroke="#63b8ff" points="1196.5,-157.21 1207.08,-157.78 1199.17,-150.74 1196.5,-157.21"/>
</a>
</g>
</g>
<!-- Node33&#45;&gt;Node8 -->
<g id="edge44_Node000033_Node000008" class="edge">
<title>Node33&#45;&gt;Node8</title>
<g id="a_edge44_Node000033_Node000008"><a xlink:title=" ">
<path fill="none" stroke="#63b8ff" d="M1149.99,-94C1159.43,-94 1169.36,-94 1179.13,-94"/>
<polygon fill="#63b8ff" stroke="#63b8ff" points="1178.97,-97.5 1188.97,-94 1178.97,-90.5 1178.97,-97.5"/>
</a>
</g>
</g>
<!-- Node33&#45;&gt;Node10 -->
<g id="edge45_Node000033_Node000010" class="edge">
<title>Node33&#45;&gt;Node10</title>
<g id="a_edge45_Node000033_Node000010"><a xlink:title=" ">
<path fill="none" stroke="#63b8ff" d="M1136.02,-103.73C1154.57,-108.27 1176.88,-113.75 1196.63,-118.59"/>
<polygon fill="#63b8ff" stroke="#63b8ff" points="1195.6,-121.94 1206.14,-120.92 1197.26,-115.14 1195.6,-121.94"/>
</a>
</g>
</g>
<!-- Node37 -->
<g id="Node000037" class="node">
<title>Node37</title>
<g id="a_Node000037"><a xlink:href="a01940.html#a0d3707df989265f8cf380acdef95eb02" target="_top" xlink:title=" ">
<polygon fill="white" stroke="#666666" points="381.75,-261.25 273.5,-261.25 273.5,-242.75 381.75,-242.75 381.75,-261.25"/>
<text text-anchor="middle" x="327.62" y="-247.75" font-family="Helvetica,sans-Serif" font-size="10.00">arax_task_wait_done</text>
</a>
</g>
</g>
<!-- Node36&#45;&gt;Node37 -->
<g id="edge49_Node000036_Node000037" class="edge">
<title>Node36&#45;&gt;Node37</title>
<g id="a_edge49_Node000036_Node000037"><a xlink:title=" ">
<path fill="none" stroke="#63b8ff" d="M229.21,-224.73C245.14,-229.19 264.24,-234.53 281.29,-239.31"/>
<polygon fill="#63b8ff" stroke="#63b8ff" points="280.11,-242.61 290.69,-241.94 282,-235.87 280.11,-242.61"/>
</a>
</g>
</g>
<!-- Node38 -->
<g id="Node000038" class="node">
<title>Node38</title>
<g id="a_Node000038"><a xlink:href="a02367.html#aebf9e72bb6cbd8b9e33489d46c25075d" target="_top" xlink:title=" ">
<polygon fill="white" stroke="#666666" points="534.25,-280.25 417.75,-280.25 417.75,-261.75 534.25,-261.75 534.25,-280.25"/>
<text text-anchor="middle" x="476" y="-266.75" font-family="Helvetica,sans-Serif" font-size="10.00">async_completion_wait</text>
</a>
</g>
</g>
<!-- Node37&#45;&gt;Node38 -->
<g id="edge50_Node000037_Node000038" class="edge">
<title>Node37&#45;&gt;Node38</title>
<g id="a_edge50_Node000037_Node000038"><a xlink:title=" ">
<path fill="none" stroke="#63b8ff" d="M381.88,-258.92C389.86,-259.95 398.19,-261.03 406.43,-262.1"/>
<polygon fill="#63b8ff" stroke="#63b8ff" points="405.72,-265.54 416.08,-263.36 406.62,-258.6 405.72,-265.54"/>
</a>
</g>
</g>
<!-- Node39 -->
<g id="Node000039" class="node">
<title>Node39</title>
<g id="a_Node000039"><a xlink:href="a02361.html#aa459f71b73bbc23f0b4bb342d093dde3" target="_top" xlink:title=" ">
<polygon fill="white" stroke="#666666" points="677.75,-317.25 588.25,-317.25 588.25,-298.75 677.75,-298.75 677.75,-317.25"/>
<text text-anchor="middle" x="633" y="-303.75" font-family="Helvetica,sans-Serif" font-size="10.00">_add_completion</text>
</a>
</g>
</g>
<!-- Node38&#45;&gt;Node39 -->
<g id="edge51_Node000038_Node000039" class="edge">
<title>Node38&#45;&gt;Node39</title>
<g id="a_edge51_Node000038_Node000039"><a xlink:title=" ">
<path fill="none" stroke="#63b8ff" d="M517.72,-280.73C536.87,-285.3 559.92,-290.8 580.28,-295.66"/>
<polygon fill="#63b8ff" stroke="#63b8ff" points="579.27,-299.01 589.81,-297.93 580.89,-292.21 579.27,-299.01"/>
</a>
</g>
</g>
<!-- Node40 -->
<g id="Node000040" class="node">
<title>Node40</title>
<g id="a_Node000040"><a xlink:href="a02361.html#a49083e8ceb4bfe7793ca1a5a799834d0" target="_top" xlink:title=" ">
<polygon fill="white" stroke="#666666" points="660.5,-280.25 605.5,-280.25 605.5,-261.75 660.5,-261.75 660.5,-280.25"/>
<text text-anchor="middle" x="633" y="-266.75" font-family="Helvetica,sans-Serif" font-size="10.00">getVmID</text>
</a>
</g>
</g>
<!-- Node38&#45;&gt;Node40 -->
<g id="edge53_Node000038_Node000040" class="edge">
<title>Node38&#45;&gt;Node40</title>
<g id="a_edge53_Node000038_Node000040"><a xlink:title=" ">
<path fill="none" stroke="#63b8ff" d="M534.72,-271C554.39,-271 575.89,-271 593.66,-271"/>
<polygon fill="#63b8ff" stroke="#63b8ff" points="593.51,-274.5 603.51,-271 593.51,-267.5 593.51,-274.5"/>
</a>
</g>
</g>
<!-- Node39&#45;&gt;Node26 -->
<g id="edge52_Node000039_Node000026" class="edge">
<title>Node39&#45;&gt;Node26</title>
<g id="a_edge52_Node000039_Node000026"><a xlink:title=" ">
<path fill="none" stroke="#63b8ff" d="M678.22,-308C698.67,-308 722.98,-308 743.81,-308"/>
<polygon fill="#63b8ff" stroke="#63b8ff" points="743.78,-311.5 753.78,-308 743.78,-304.5 743.78,-311.5"/>
</a>
</g>
</g>
</g>
</svg>
