<?xml version="1.0" encoding="UTF-8" standalone="no"?>
<!DOCTYPE svg PUBLIC "-//W3C//DTD SVG 1.1//EN"
 "http://www.w3.org/Graphics/SVG/1.1/DTD/svg11.dtd">
<!-- Generated by graphviz version 8.0.5 (0)
 -->
<!-- Title: arax_accel_acquire_phys Pages: 1 -->
<svg width="1049pt" height="414pt"
 viewBox="0.00 0.00 1048.50 413.50" xmlns="http://www.w3.org/2000/svg" xmlns:xlink="http://www.w3.org/1999/xlink">
<g id="graph0" class="graph" transform="scale(1 1) rotate(0) translate(4 409.5)">
<title>arax_accel_acquire_phys</title>
<!-- Node1 -->
<g id="Node000001" class="node">
<title>Node1</title>
<g id="a_Node000001"><a xlink:title=" ">
<polygon fill="#999999" stroke="#666666" points="126.25,-92.5 0,-92.5 0,-74 126.25,-74 126.25,-92.5"/>
<text text-anchor="middle" x="63.12" y="-79" font-family="Helvetica,sans-Serif" font-size="10.00">arax_accel_acquire_phys</text>
</a>
</g>
</g>
<!-- Node2 -->
<g id="Node000002" class="node">
<title>Node2</title>
<g id="a_Node000002"><a xlink:href="a01928.html#a83ddb422946cf774c687c1ab63dcda15" target="_top" xlink:title=" ">
<polygon fill="white" stroke="#666666" points="248.75,-92.5 162.25,-92.5 162.25,-74 248.75,-74 248.75,-92.5"/>
<text text-anchor="middle" x="205.5" y="-79" font-family="Helvetica,sans-Serif" font-size="10.00">arax_vaccel_init</text>
</a>
</g>
</g>
<!-- Node1&#45;&gt;Node2 -->
<g id="edge1_Node000001_Node000002" class="edge">
<title>Node1&#45;&gt;Node2</title>
<g id="a_edge1_Node000001_Node000002"><a xlink:title=" ">
<path fill="none" stroke="#63b8ff" d="M126.51,-83.25C134.77,-83.25 143.17,-83.25 151.25,-83.25"/>
<polygon fill="#63b8ff" stroke="#63b8ff" points="151.03,-86.75 161.03,-83.25 151.03,-79.75 151.03,-86.75"/>
</a>
</g>
</g>
<!-- Node3 -->
<g id="Node000003" class="node">
<title>Node3</title>
<g id="a_Node000003"><a xlink:href="a01904.html#af0b933c02a24d69c1efa40179f60288f" target="_top" xlink:title=" ">
<polygon fill="white" stroke="#666666" points="543.25,-264.5 425.25,-264.5 425.25,-246 543.25,-246 543.25,-264.5"/>
<text text-anchor="middle" x="484.25" y="-251" font-family="Helvetica,sans-Serif" font-size="10.00">arax_accel_add_vaccel</text>
</a>
</g>
</g>
<!-- Node2&#45;&gt;Node3 -->
<g id="edge2_Node000002_Node000003" class="edge">
<title>Node2&#45;&gt;Node3</title>
<g id="a_edge2_Node000002_Node000003"><a xlink:title=" ">
<path fill="none" stroke="#63b8ff" d="M220.52,-92.83C236.08,-103.4 262.02,-120.84 284.75,-135.25 345.94,-174.05 419.17,-217.59 457.29,-240.04"/>
<polygon fill="#63b8ff" stroke="#63b8ff" points="455.24,-243.48 465.63,-245.53 458.79,-237.44 455.24,-243.48"/>
</a>
</g>
</g>
<!-- Node19 -->
<g id="Node000019" class="node">
<title>Node19</title>
<g id="a_Node000019"><a xlink:href="a01910.html#a402bbd6fa197c2c48d527325e5e2cf5b" target="_top" xlink:title=" ">
<polygon fill="white" stroke="#666666" points="389.25,-92.5 284.75,-92.5 284.75,-74 389.25,-74 389.25,-92.5"/>
<text text-anchor="middle" x="337" y="-79" font-family="Helvetica,sans-Serif" font-size="10.00">arax_object_register</text>
</a>
</g>
</g>
<!-- Node2&#45;&gt;Node19 -->
<g id="edge20_Node000002_Node000019" class="edge">
<title>Node2&#45;&gt;Node19</title>
<g id="a_edge20_Node000002_Node000019"><a xlink:title=" ">
<path fill="none" stroke="#63b8ff" d="M248.9,-83.25C256.8,-83.25 265.21,-83.25 273.56,-83.25"/>
<polygon fill="#63b8ff" stroke="#63b8ff" points="273.46,-86.75 283.46,-83.25 273.46,-79.75 273.46,-86.75"/>
</a>
</g>
</g>
<!-- Node25 -->
<g id="Node000025" class="node">
<title>Node25</title>
<g id="a_Node000025"><a xlink:href="a01946.html#a63f2791c9b5c8e2fa15967cfafb7ccbb" target="_top" xlink:title=" ">
<polygon fill="white" stroke="#666666" points="532.38,-18.5 436.12,-18.5 436.12,0 532.38,0 532.38,-18.5"/>
<text text-anchor="middle" x="484.25" y="-5" font-family="Helvetica,sans-Serif" font-size="10.00">utils_list_node_init</text>
</a>
</g>
</g>
<!-- Node2&#45;&gt;Node25 -->
<g id="edge37_Node000002_Node000025" class="edge">
<title>Node2&#45;&gt;Node25</title>
<g id="a_edge37_Node000002_Node000025"><a xlink:title=" ">
<path fill="none" stroke="#63b8ff" d="M242.68,-73.58C292.4,-60.28 381.91,-36.35 436.61,-21.72"/>
<polygon fill="#63b8ff" stroke="#63b8ff" points="437.3,-24.89 446.06,-18.93 435.5,-18.13 437.3,-24.89"/>
</a>
</g>
</g>
<!-- Node26 -->
<g id="Node000026" class="node">
<title>Node26</title>
<g id="a_Node000026"><a xlink:href="a01913.html#aa4461ab1d225a0f76f08d2f37a4a7e0e" target="_top" xlink:title=" ">
<polygon fill="white" stroke="#666666" points="541.75,-176.75 426.75,-176.75 426.75,-147.75 541.75,-147.75 541.75,-176.75"/>
<text text-anchor="start" x="434.75" y="-163.25" font-family="Helvetica,sans-Serif" font-size="10.00">arax_pipe_add_orphan</text>
<text text-anchor="middle" x="484.25" y="-152.75" font-family="Helvetica,sans-Serif" font-size="10.00">_vaccel</text>
</a>
</g>
</g>
<!-- Node2&#45;&gt;Node26 -->
<g id="edge32_Node000002_Node000026" class="edge">
<title>Node2&#45;&gt;Node26</title>
<g id="a_edge32_Node000002_Node000026"><a xlink:title=" ">
<path fill="none" stroke="#63b8ff" d="M240.43,-92.94C285.11,-105.69 364.52,-128.36 420.34,-144.29"/>
<polygon fill="#63b8ff" stroke="#63b8ff" points="419.24,-147.9 429.82,-147.28 421.16,-141.17 419.24,-147.9"/>
</a>
</g>
</g>
<!-- Node27 -->
<g id="Node000027" class="node">
<title>Node27</title>
<g id="a_Node000027"><a xlink:href="a01949.html#a49c353188156b1df4463a5fc7f7bc25e" target="_top" xlink:title=" ">
<polygon fill="white" stroke="#666666" points="378.75,-18.5 295.25,-18.5 295.25,0 378.75,0 378.75,-18.5"/>
<text text-anchor="middle" x="337" y="-5" font-family="Helvetica,sans-Serif" font-size="10.00">utils_queue_init</text>
</a>
</g>
</g>
<!-- Node2&#45;&gt;Node27 -->
<g id="edge38_Node000002_Node000027" class="edge">
<title>Node2&#45;&gt;Node27</title>
<g id="a_edge38_Node000002_Node000027"><a xlink:title=" ">
<path fill="none" stroke="#63b8ff" d="M219.95,-73.55C235.24,-62.76 261.12,-45.15 284.75,-32.25 290.4,-29.17 296.54,-26.14 302.54,-23.36"/>
<polygon fill="#63b8ff" stroke="#63b8ff" points="303.73,-26.21 311.41,-18.92 300.86,-19.83 303.73,-26.21"/>
</a>
</g>
</g>
<!-- Node4 -->
<g id="Node000004" class="node">
<title>Node4</title>
<g id="a_Node000004"><a xlink:href="a01904.html#aed864d2fab73a39a8c98356f7bca1304" target="_top" xlink:title=" ">
<polygon fill="white" stroke="#666666" points="705.12,-405.5 584.12,-405.5 584.12,-387 705.12,-387 705.12,-405.5"/>
<text text-anchor="middle" x="644.62" y="-392" font-family="Helvetica,sans-Serif" font-size="10.00">arax_accel_inc_revision</text>
</a>
</g>
</g>
<!-- Node3&#45;&gt;Node4 -->
<g id="edge3_Node000003_Node000004" class="edge">
<title>Node3&#45;&gt;Node4</title>
<g id="a_edge3_Node000003_Node000004"><a xlink:title=" ">
<path fill="none" stroke="#63b8ff" d="M489.91,-264.83C501.6,-287.83 534.47,-346.57 579.25,-377.25 581.95,-379.1 584.83,-380.77 587.83,-382.29"/>
<polygon fill="#63b8ff" stroke="#63b8ff" points="586.11,-385.79 596.67,-386.59 588.91,-379.38 586.11,-385.79"/>
</a>
</g>
</g>
<!-- Node5 -->
<g id="Node000005" class="node">
<title>Node5</title>
<g id="a_Node000005"><a xlink:href="a01913.html#aa5172b735dddd3f77fbb0265bbcdfc20" target="_top" xlink:title=" ">
<polygon fill="white" stroke="#666666" points="710,-331.75 579.25,-331.75 579.25,-302.75 710,-302.75 710,-331.75"/>
<text text-anchor="start" x="587.25" y="-318.25" font-family="Helvetica,sans-Serif" font-size="10.00">arax_pipe_remove_orphan</text>
<text text-anchor="middle" x="644.62" y="-307.75" font-family="Helvetica,sans-Serif" font-size="10.00">_vaccel</text>
</a>
</g>
</g>
<!-- Node3&#45;&gt;Node5 -->
<g id="edge4_Node000003_Node000005" class="edge">
<title>Node3&#45;&gt;Node5</title>
<g id="a_edge4_Node000003_Node000005"><a xlink:title=" ">
<path fill="none" stroke="#63b8ff" d="M510,-264.94C532.78,-273.86 567.21,-287.33 595.41,-298.38"/>
<polygon fill="#63b8ff" stroke="#63b8ff" points="593.9,-301.93 604.49,-302.32 596.45,-295.42 593.9,-301.93"/>
</a>
</g>
</g>
<!-- Node6 -->
<g id="Node000006" class="node">
<title>Node6</title>
<g id="a_Node000006"><a xlink:href="a02352.html#aed6af4d83e934e3e654ead541b15f2d9" target="_top" xlink:title=" ">
<polygon fill="white" stroke="#666666" points="860.25,-171.5 751.25,-171.5 751.25,-153 860.25,-153 860.25,-171.5"/>
<text text-anchor="middle" x="805.75" y="-158" font-family="Helvetica,sans-Serif" font-size="10.00">async_condition_lock</text>
</a>
</g>
</g>
<!-- Node3&#45;&gt;Node6 -->
<g id="edge14_Node000003_Node000006" class="edge">
<title>Node3&#45;&gt;Node6</title>
<g id="a_edge14_Node000003_Node000006"><a xlink:title=" ">
<path fill="none" stroke="#63b8ff" d="M529.85,-264.96C576.65,-272.97 651.42,-279.51 710,-255.25 730.91,-246.59 729.88,-235.13 746,-219.25 759.69,-205.77 775.3,-190.63 786.99,-179.34"/>
<polygon fill="#63b8ff" stroke="#63b8ff" points="788.96,-182.35 793.73,-172.89 784.1,-177.31 788.96,-182.35"/>
</a>
</g>
</g>
<!-- Node8 -->
<g id="Node000008" class="node">
<title>Node8</title>
<g id="a_Node000008"><a xlink:href="a02352.html#a3bbcb7c4c024e99d5c4ba52b61dfbbf7" target="_top" xlink:title=" ">
<polygon fill="white" stroke="#666666" points="865.5,-134.5 746,-134.5 746,-116 865.5,-116 865.5,-134.5"/>
<text text-anchor="middle" x="805.75" y="-121" font-family="Helvetica,sans-Serif" font-size="10.00">async_condition_unlock</text>
</a>
</g>
</g>
<!-- Node3&#45;&gt;Node8 -->
<g id="edge17_Node000003_Node000008" class="edge">
<title>Node3&#45;&gt;Node8</title>
<g id="a_edge17_Node000003_Node000008"><a xlink:title=" ">
<path fill="none" stroke="#63b8ff" d="M507.61,-245.67C568.58,-219.55 733.99,-148.74 746,-144.25 751.4,-142.23 757.12,-140.23 762.79,-138.31"/>
<polygon fill="#63b8ff" stroke="#63b8ff" points="763.46,-141.45 771.86,-134.99 761.27,-134.8 763.46,-141.45"/>
</a>
</g>
</g>
<!-- Node12 -->
<g id="Node000012" class="node">
<title>Node12</title>
<g id="a_Node000012"><a xlink:href="a01928.html#ab2fa3d6e6c761009b464cc0fbedc6a16" target="_top" xlink:title=" ">
<polygon fill="white" stroke="#666666" points="705.88,-368.5 583.38,-368.5 583.38,-350 705.88,-350 705.88,-368.5"/>
<text text-anchor="middle" x="644.62" y="-355" font-family="Helvetica,sans-Serif" font-size="10.00">arax_vaccel_queue_size</text>
</a>
</g>
</g>
<!-- Node3&#45;&gt;Node12 -->
<g id="edge11_Node000003_Node000012" class="edge">
<title>Node3&#45;&gt;Node12</title>
<g id="a_edge11_Node000003_Node000012"><a xlink:title=" ">
<path fill="none" stroke="#63b8ff" d="M492.98,-264.82C507.81,-282.57 542.12,-320.64 579.25,-341.25 582.15,-342.86 585.2,-344.33 588.34,-345.68"/>
<polygon fill="#63b8ff" stroke="#63b8ff" points="586.98,-349.29 597.57,-349.58 589.47,-342.75 586.98,-349.29"/>
</a>
</g>
</g>
<!-- Node15 -->
<g id="Node000015" class="node">
<title>Node15</title>
<g id="a_Node000015"><a xlink:href="a02352.html#a45a896fb606c2aa66a5a4c2af59ce494" target="_top" xlink:title=" ">
<polygon fill="white" stroke="#666666" points="702.12,-246.5 587.12,-246.5 587.12,-228 702.12,-228 702.12,-246.5"/>
<text text-anchor="middle" x="644.62" y="-233" font-family="Helvetica,sans-Serif" font-size="10.00">async_condition_notify</text>
</a>
</g>
</g>
<!-- Node3&#45;&gt;Node15 -->
<g id="edge15_Node000003_Node000015" class="edge">
<title>Node3&#45;&gt;Node15</title>
<g id="a_edge15_Node000003_Node000015"><a xlink:title=" ">
<path fill="none" stroke="#63b8ff" d="M543.32,-248.65C553.98,-247.44 565.19,-246.16 576.1,-244.92"/>
<polygon fill="#63b8ff" stroke="#63b8ff" points="576.34,-248.31 585.88,-243.7 575.55,-241.35 576.34,-248.31"/>
</a>
</g>
</g>
<!-- Node17 -->
<g id="Node000017" class="node">
<title>Node17</title>
<g id="a_Node000017"><a xlink:href="a01946.html#ae06a9e78e6a4f6c9c8afcf0f4862ce29" target="_top" xlink:title=" ">
<polygon fill="white" stroke="#666666" points="681.12,-59.5 608.12,-59.5 608.12,-41 681.12,-41 681.12,-59.5"/>
<text text-anchor="middle" x="644.62" y="-46" font-family="Helvetica,sans-Serif" font-size="10.00">utils_list_add</text>
</a>
</g>
</g>
<!-- Node3&#45;&gt;Node17 -->
<g id="edge18_Node000003_Node000017" class="edge">
<title>Node3&#45;&gt;Node17</title>
<g id="a_edge18_Node000003_Node000017"><a xlink:title=" ">
<path fill="none" stroke="#63b8ff" d="M495.26,-245.74C508.08,-233.06 530.17,-209.4 543.25,-185.25 568.96,-137.78 540.81,-107.15 579.25,-69.25 584.43,-64.14 590.92,-60.39 597.77,-57.64"/>
<polygon fill="#63b8ff" stroke="#63b8ff" points="598.54,-60.74 606.95,-54.29 596.36,-54.09 598.54,-60.74"/>
</a>
</g>
</g>
<!-- Node5&#45;&gt;Node6 -->
<g id="edge5_Node000005_Node000006" class="edge">
<title>Node5&#45;&gt;Node6</title>
<g id="a_edge5_Node000005_Node000006"><a xlink:title=" ">
<path fill="none" stroke="#63b8ff" d="M689.31,-302.39C696.77,-298.56 704.03,-293.89 710,-288.25 735.15,-264.51 725.32,-246.98 746,-219.25 757.21,-204.21 772.48,-189.53 784.64,-178.84"/>
<polygon fill="#63b8ff" stroke="#63b8ff" points="786.52,-180.97 791.84,-171.8 781.97,-175.66 786.52,-180.97"/>
</a>
</g>
</g>
<!-- Node5&#45;&gt;Node8 -->
<g id="edge7_Node000005_Node000008" class="edge">
<title>Node5&#45;&gt;Node8</title>
<g id="a_edge7_Node000005_Node000008"><a xlink:title=" ">
<path fill="none" stroke="#63b8ff" d="M665.6,-302.43C679.79,-290.96 698.32,-273.93 710,-255.25 737.5,-211.28 709.31,-180.91 746,-144.25 747.3,-142.95 748.7,-141.73 750.16,-140.6"/>
<polygon fill="#63b8ff" stroke="#63b8ff" points="751.55,-143.24 758.21,-135 747.87,-137.29 751.55,-143.24"/>
</a>
</g>
</g>
<!-- Node10 -->
<g id="Node000010" class="node">
<title>Node10</title>
<g id="a_Node000010"><a xlink:href="a01946.html#a0c85e5516222ab7e7fc354c614760ec5" target="_top" xlink:title=" ">
<polygon fill="white" stroke="#666666" points="840.75,-290.5 770.75,-290.5 770.75,-272 840.75,-272 840.75,-290.5"/>
<text text-anchor="middle" x="805.75" y="-277" font-family="Helvetica,sans-Serif" font-size="10.00">utils_list_del</text>
</a>
</g>
</g>
<!-- Node5&#45;&gt;Node10 -->
<g id="edge9_Node000005_Node000010" class="edge">
<title>Node5&#45;&gt;Node10</title>
<g id="a_edge9_Node000005_Node000010"><a xlink:title=" ">
<path fill="none" stroke="#63b8ff" d="M710.35,-302.61C727.13,-298.81 744.82,-294.81 760.29,-291.31"/>
<polygon fill="#63b8ff" stroke="#63b8ff" points="760.63,-294.59 769.61,-288.97 759.09,-287.77 760.63,-294.59"/>
</a>
</g>
</g>
<!-- Node11 -->
<g id="Node000011" class="node">
<title>Node11</title>
<g id="a_Node000011"><a xlink:href="a01946.html#ab0c44e095ebfd8721de878c42abcbbdc" target="_top" xlink:title=" ">
<polygon fill="white" stroke="#666666" points="859.88,-327.5 751.62,-327.5 751.62,-309 859.88,-309 859.88,-327.5"/>
<text text-anchor="middle" x="805.75" y="-314" font-family="Helvetica,sans-Serif" font-size="10.00">utils_list_node_linked</text>
</a>
</g>
</g>
<!-- Node5&#45;&gt;Node11 -->
<g id="edge10_Node000005_Node000011" class="edge">
<title>Node5&#45;&gt;Node11</title>
<g id="a_edge10_Node000005_Node000011"><a xlink:title=" ">
<path fill="none" stroke="#63b8ff" d="M710.35,-317.66C720.22,-317.72 730.42,-317.78 740.29,-317.84"/>
<polygon fill="#63b8ff" stroke="#63b8ff" points="740.24,-321.35 750.27,-317.91 740.29,-314.35 740.24,-321.35"/>
</a>
</g>
</g>
<!-- Node7 -->
<g id="Node000007" class="node">
<title>Node7</title>
<g id="a_Node000007"><a xlink:href="a02346.html#aebf9e72bb6cbd8b9e33489d46c25075d" target="_top" xlink:title=" ">
<polygon fill="white" stroke="#666666" points="1029.25,-171.5 912.75,-171.5 912.75,-153 1029.25,-153 1029.25,-171.5"/>
<text text-anchor="middle" x="971" y="-158" font-family="Helvetica,sans-Serif" font-size="10.00">async_completion_wait</text>
</a>
</g>
</g>
<!-- Node6&#45;&gt;Node7 -->
<g id="edge6_Node000006_Node000007" class="edge">
<title>Node6&#45;&gt;Node7</title>
<g id="a_edge6_Node000006_Node000007"><a xlink:title=" ">
<path fill="none" stroke="#63b8ff" d="M860.66,-162.25C873.77,-162.25 887.98,-162.25 901.66,-162.25"/>
<polygon fill="#63b8ff" stroke="#63b8ff" points="901.5,-165.75 911.5,-162.25 901.5,-158.75 901.5,-165.75"/>
</a>
</g>
</g>
<!-- Node9 -->
<g id="Node000009" class="node">
<title>Node9</title>
<g id="a_Node000009"><a xlink:href="a02346.html#ad1d30ecbf6bff6457b680aa940281072" target="_top" xlink:title=" ">
<polygon fill="white" stroke="#666666" points="1040.5,-134.5 901.5,-134.5 901.5,-116 1040.5,-116 1040.5,-134.5"/>
<text text-anchor="middle" x="971" y="-121" font-family="Helvetica,sans-Serif" font-size="10.00">async_completion_complete</text>
</a>
</g>
</g>
<!-- Node8&#45;&gt;Node9 -->
<g id="edge8_Node000008_Node000009" class="edge">
<title>Node8&#45;&gt;Node9</title>
<g id="a_edge8_Node000008_Node000009"><a xlink:title=" ">
<path fill="none" stroke="#63b8ff" d="M865.69,-125.25C873.69,-125.25 882.01,-125.25 890.3,-125.25"/>
<polygon fill="#63b8ff" stroke="#63b8ff" points="890.15,-128.75 900.15,-125.25 890.15,-121.75 890.15,-128.75"/>
</a>
</g>
</g>
<!-- Node13 -->
<g id="Node000013" class="node">
<title>Node13</title>
<g id="a_Node000013"><a xlink:href="a01928.html#afe1eb3edd264c847c36e9456b2598452" target="_top" xlink:title=" ">
<polygon fill="white" stroke="#666666" points="855.75,-366.5 755.75,-366.5 755.75,-348 855.75,-348 855.75,-366.5"/>
<text text-anchor="middle" x="805.75" y="-353" font-family="Helvetica,sans-Serif" font-size="10.00">arax_vaccel_queue</text>
</a>
</g>
</g>
<!-- Node12&#45;&gt;Node13 -->
<g id="edge12_Node000012_Node000013" class="edge">
<title>Node12&#45;&gt;Node13</title>
<g id="a_edge12_Node000012_Node000013"><a xlink:title=" ">
<path fill="none" stroke="#63b8ff" d="M706.24,-358.49C718.8,-358.33 732.04,-358.16 744.59,-358.01"/>
<polygon fill="#63b8ff" stroke="#63b8ff" points="744.46,-361.5 754.41,-357.87 744.37,-354.5 744.46,-361.5"/>
</a>
</g>
</g>
<!-- Node14 -->
<g id="Node000014" class="node">
<title>Node14</title>
<g id="a_Node000014"><a xlink:href="a01949.html#a5d84d59bded666fdcf1a8e949cb56a6a" target="_top" xlink:title=" ">
<polygon fill="white" stroke="#666666" points="864.75,-403.5 746.75,-403.5 746.75,-385 864.75,-385 864.75,-403.5"/>
<text text-anchor="middle" x="805.75" y="-390" font-family="Helvetica,sans-Serif" font-size="10.00">utils_queue_used_slots</text>
</a>
</g>
</g>
<!-- Node12&#45;&gt;Node14 -->
<g id="edge13_Node000012_Node000014" class="edge">
<title>Node12&#45;&gt;Node14</title>
<g id="a_edge13_Node000012_Node000014"><a xlink:title=" ">
<path fill="none" stroke="#63b8ff" d="M689.95,-369C708.57,-373.1 730.42,-377.9 750.03,-382.21"/>
<polygon fill="#63b8ff" stroke="#63b8ff" points="749.14,-385.82 759.66,-384.55 750.65,-378.99 749.14,-385.82"/>
</a>
</g>
</g>
<!-- Node16 -->
<g id="Node000016" class="node">
<title>Node16</title>
<g id="a_Node000016"><a xlink:href="a02346.html#a0fa370eee5160963e617d1daf1c07363" target="_top" xlink:title=" ">
<polygon fill="white" stroke="#666666" points="862.12,-246.5 749.38,-246.5 749.38,-228 862.12,-228 862.12,-246.5"/>
<text text-anchor="middle" x="805.75" y="-233" font-family="Helvetica,sans-Serif" font-size="10.00">async_semaphore_inc</text>
</a>
</g>
</g>
<!-- Node15&#45;&gt;Node16 -->
<g id="edge16_Node000015_Node000016" class="edge">
<title>Node15&#45;&gt;Node16</title>
<g id="a_edge16_Node000015_Node000016"><a xlink:title=" ">
<path fill="none" stroke="#63b8ff" d="M702.62,-237.25C714.16,-237.25 726.39,-237.25 738.22,-237.25"/>
<polygon fill="#63b8ff" stroke="#63b8ff" points="737.95,-240.75 747.95,-237.25 737.95,-233.75 737.95,-240.75"/>
</a>
</g>
</g>
<!-- Node18 -->
<g id="Node000018" class="node">
<title>Node18</title>
<g id="a_Node000018"><a xlink:href="a01946.html#a5c575f52a42e0e0d2fb41bda2d1268ce" target="_top" xlink:title=" ">
<polygon fill="white" stroke="#666666" points="855.38,-59.5 756.12,-59.5 756.12,-41 855.38,-41 855.38,-59.5"/>
<text text-anchor="middle" x="805.75" y="-46" font-family="Helvetica,sans-Serif" font-size="10.00">utils_list_node_add</text>
</a>
</g>
</g>
<!-- Node17&#45;&gt;Node18 -->
<g id="edge19_Node000017_Node000018" class="edge">
<title>Node17&#45;&gt;Node18</title>
<g id="a_edge19_Node000017_Node000018"><a xlink:title=" ">
<path fill="none" stroke="#63b8ff" d="M681.34,-50.25C700.06,-50.25 723.5,-50.25 744.91,-50.25"/>
<polygon fill="#63b8ff" stroke="#63b8ff" points="744.89,-53.75 754.89,-50.25 744.89,-46.75 744.89,-53.75"/>
</a>
</g>
</g>
<!-- Node19&#45;&gt;Node17 -->
<g id="edge30_Node000019_Node000017" class="edge">
<title>Node19&#45;&gt;Node17</title>
<g id="a_edge30_Node000019_Node000017"><a xlink:title=" ">
<path fill="none" stroke="#63b8ff" d="M379.08,-73.59C393.59,-70.49 410.08,-67.33 425.25,-65.25 484.26,-57.17 552.86,-53.36 597.19,-51.62"/>
<polygon fill="#63b8ff" stroke="#63b8ff" points="597.06,-55.09 606.92,-51.23 596.8,-48.1 597.06,-55.09"/>
</a>
</g>
</g>
<!-- Node20 -->
<g id="Node000020" class="node">
<title>Node20</title>
<g id="a_Node000020"><a xlink:href="a01913.html#a1cfa2c90268c6e53ce376beb7cce153c" target="_top" xlink:title=" ">
<polygon fill="white" stroke="#666666" points="535.38,-129.5 433.12,-129.5 433.12,-111 535.38,-111 535.38,-129.5"/>
<text text-anchor="middle" x="484.25" y="-116" font-family="Helvetica,sans-Serif" font-size="10.00">arax_pipe_size_dec</text>
</a>
</g>
</g>
<!-- Node19&#45;&gt;Node20 -->
<g id="edge21_Node000019_Node000020" class="edge">
<title>Node19&#45;&gt;Node20</title>
<g id="a_edge21_Node000019_Node000020"><a xlink:title=" ">
<path fill="none" stroke="#63b8ff" d="M376.16,-92.97C394.02,-97.52 415.5,-102.99 434.52,-107.84"/>
<polygon fill="#63b8ff" stroke="#63b8ff" points="433.54,-111.45 444.09,-110.53 435.26,-104.67 433.54,-111.45"/>
</a>
</g>
</g>
<!-- Node24 -->
<g id="Node000024" class="node">
<title>Node24</title>
<g id="a_Node000024"><a xlink:href="a02343.html#ac9828b5c2758940f6d3c7d4335228de5" target="_top" xlink:title=" ">
<polygon fill="white" stroke="#666666" points="533.88,-92.5 434.62,-92.5 434.62,-74 533.88,-74 533.88,-92.5"/>
<text text-anchor="middle" x="484.25" y="-79" font-family="Helvetica,sans-Serif" font-size="10.00">arch_alloc_allocate</text>
</a>
</g>
</g>
<!-- Node19&#45;&gt;Node24 -->
<g id="edge29_Node000019_Node000024" class="edge">
<title>Node19&#45;&gt;Node24</title>
<g id="a_edge29_Node000019_Node000024"><a xlink:title=" ">
<path fill="none" stroke="#63b8ff" d="M389.62,-83.25C400.5,-83.25 412.08,-83.25 423.24,-83.25"/>
<polygon fill="#63b8ff" stroke="#63b8ff" points="423.23,-86.75 433.23,-83.25 423.23,-79.75 423.23,-86.75"/>
</a>
</g>
</g>
<!-- Node19&#45;&gt;Node25 -->
<g id="edge31_Node000019_Node000025" class="edge">
<title>Node19&#45;&gt;Node25</title>
<g id="a_edge31_Node000019_Node000025"><a xlink:title=" ">
<path fill="none" stroke="#63b8ff" d="M362.85,-73.52C371.44,-69.79 380.98,-65.23 389.25,-60.25 406.62,-49.8 407.65,-42.31 425.25,-32.25 431.17,-28.86 437.7,-25.75 444.16,-22.98"/>
<polygon fill="#63b8ff" stroke="#63b8ff" points="445.23,-25.92 453.18,-18.93 442.6,-19.43 445.23,-25.92"/>
</a>
</g>
</g>
<!-- Node21 -->
<g id="Node000021" class="node">
<title>Node21</title>
<g id="a_Node000021"><a xlink:href="a01925.html#a8413a3584787f9b629e54b2ef9439f06" target="_top" xlink:title=" ">
<polygon fill="white" stroke="#666666" points="701.75,-96.5 587.5,-96.5 587.5,-78 701.75,-78 701.75,-96.5"/>
<text text-anchor="middle" x="644.62" y="-83" font-family="Helvetica,sans-Serif" font-size="10.00">arax_throttle_size_dec</text>
</a>
</g>
</g>
<!-- Node20&#45;&gt;Node21 -->
<g id="edge22_Node000020_Node000021" class="edge">
<title>Node20&#45;&gt;Node21</title>
<g id="a_edge22_Node000020_Node000021"><a xlink:title=" ">
<path fill="none" stroke="#63b8ff" d="M531.91,-110.53C548.99,-106.97 568.52,-102.9 586.42,-99.17"/>
<polygon fill="#63b8ff" stroke="#63b8ff" points="586.95,-102.43 596.02,-96.96 585.52,-95.57 586.95,-102.43"/>
</a>
</g>
</g>
<!-- Node21&#45;&gt;Node6 -->
<g id="edge23_Node000021_Node000006" class="edge">
<title>Node21&#45;&gt;Node6</title>
<g id="a_edge23_Node000021_Node000006"><a xlink:title=" ">
<path fill="none" stroke="#63b8ff" d="M660.79,-96.95C680.04,-108.98 714.53,-129.54 746,-143.25 750.67,-145.28 755.63,-147.22 760.61,-149.02"/>
<polygon fill="#63b8ff" stroke="#63b8ff" points="759.18,-152.57 769.77,-152.51 761.46,-145.95 759.18,-152.57"/>
</a>
</g>
</g>
<!-- Node21&#45;&gt;Node8 -->
<g id="edge24_Node000021_Node000008" class="edge">
<title>Node21&#45;&gt;Node8</title>
<g id="a_edge24_Node000021_Node000008"><a xlink:title=" ">
<path fill="none" stroke="#63b8ff" d="M686.19,-96.94C706.69,-101.83 731.77,-107.82 753.57,-113.03"/>
<polygon fill="#63b8ff" stroke="#63b8ff" points="752.44,-116.6 762.98,-115.51 754.07,-109.79 752.44,-116.6"/>
</a>
</g>
</g>
<!-- Node22 -->
<g id="Node000022" class="node">
<title>Node22</title>
<g id="a_Node000022"><a xlink:href="a02352.html#a1bfeaeb9b81855e640d7a67cc9d92b17" target="_top" xlink:title=" ">
<polygon fill="white" stroke="#666666" points="859.88,-97.5 751.62,-97.5 751.62,-79 859.88,-79 859.88,-97.5"/>
<text text-anchor="middle" x="805.75" y="-84" font-family="Helvetica,sans-Serif" font-size="10.00">async_condition_wait</text>
</a>
</g>
</g>
<!-- Node21&#45;&gt;Node22 -->
<g id="edge25_Node000021_Node000022" class="edge">
<title>Node21&#45;&gt;Node22</title>
<g id="a_edge25_Node000021_Node000022"><a xlink:title=" ">
<path fill="none" stroke="#63b8ff" d="M702.17,-87.61C714.54,-87.68 727.72,-87.77 740.37,-87.85"/>
<polygon fill="#63b8ff" stroke="#63b8ff" points="740.29,-91.35 750.31,-87.91 740.33,-84.35 740.29,-91.35"/>
</a>
</g>
</g>
<!-- Node22&#45;&gt;Node7 -->
<g id="edge27_Node000022_Node000007" class="edge">
<title>Node22&#45;&gt;Node7</title>
<g id="a_edge27_Node000022_Node000007"><a xlink:title=" ">
<path fill="none" stroke="#63b8ff" d="M845.52,-97.9C852.43,-100.41 859.37,-103.5 865.5,-107.25 884.8,-119.06 881.95,-131.85 901.5,-143.25 904.95,-145.26 908.63,-147.07 912.42,-148.7"/>
<polygon fill="#63b8ff" stroke="#63b8ff" points="911.04,-152.3 921.63,-152.57 913.53,-145.75 911.04,-152.3"/>
</a>
</g>
</g>
<!-- Node22&#45;&gt;Node9 -->
<g id="edge26_Node000022_Node000009" class="edge">
<title>Node22&#45;&gt;Node9</title>
<g id="a_edge26_Node000022_Node000009"><a xlink:title=" ">
<path fill="none" stroke="#63b8ff" d="M849.64,-97.97C870.09,-102.61 894.76,-108.2 916.42,-113.11"/>
<polygon fill="#63b8ff" stroke="#63b8ff" points="915.59,-116.73 926.11,-115.53 917.13,-109.91 915.59,-116.73"/>
</a>
</g>
</g>
<!-- Node23 -->
<g id="Node000023" class="node">
<title>Node23</title>
<g id="a_Node000023"><a xlink:href="a02346.html#a7ab7c7fe9cb93434dde72a4e464a7e69" target="_top" xlink:title=" ">
<polygon fill="white" stroke="#666666" points="1028.88,-97.5 913.12,-97.5 913.12,-79 1028.88,-79 1028.88,-97.5"/>
<text text-anchor="middle" x="971" y="-84" font-family="Helvetica,sans-Serif" font-size="10.00">async_semaphore_dec</text>
</a>
</g>
</g>
<!-- Node22&#45;&gt;Node23 -->
<g id="edge28_Node000022_Node000023" class="edge">
<title>Node22&#45;&gt;Node23</title>
<g id="a_edge28_Node000022_Node000023"><a xlink:title=" ">
<path fill="none" stroke="#63b8ff" d="M860.2,-88.25C873.48,-88.25 887.9,-88.25 901.78,-88.25"/>
<polygon fill="#63b8ff" stroke="#63b8ff" points="901.77,-91.75 911.77,-88.25 901.77,-84.75 901.77,-91.75"/>
</a>
</g>
</g>
<!-- Node26&#45;&gt;Node6 -->
<g id="edge33_Node000026_Node000006" class="edge">
<title>Node26&#45;&gt;Node6</title>
<g id="a_edge33_Node000026_Node000006"><a xlink:title=" ">
<path fill="none" stroke="#63b8ff" d="M542,-162.25C597.51,-162.25 681.94,-162.25 740.03,-162.25"/>
<polygon fill="#63b8ff" stroke="#63b8ff" points="739.92,-165.75 749.92,-162.25 739.92,-158.75 739.92,-165.75"/>
</a>
</g>
</g>
<!-- Node26&#45;&gt;Node8 -->
<g id="edge35_Node000026_Node000008" class="edge">
<title>Node26&#45;&gt;Node8</title>
<g id="a_edge35_Node000026_Node000008"><a xlink:title=" ">
<path fill="none" stroke="#63b8ff" d="M542,-155.68C595.83,-149.44 676.84,-140.06 734.67,-133.37"/>
<polygon fill="#63b8ff" stroke="#63b8ff" points="735.02,-136.73 744.55,-132.11 734.21,-129.78 735.02,-136.73"/>
</a>
</g>
</g>
<!-- Node26&#45;&gt;Node15 -->
<g id="edge34_Node000026_Node000015" class="edge">
<title>Node26&#45;&gt;Node15</title>
<g id="a_edge34_Node000026_Node000015"><a xlink:title=" ">
<path fill="none" stroke="#63b8ff" d="M516.92,-177.25C544.93,-190.51 585.54,-209.74 613.18,-222.83"/>
<polygon fill="#63b8ff" stroke="#63b8ff" points="611.55,-226.41 622.09,-227.52 614.55,-220.08 611.55,-226.41"/>
</a>
</g>
</g>
<!-- Node26&#45;&gt;Node17 -->
<g id="edge36_Node000026_Node000017" class="edge">
<title>Node26&#45;&gt;Node17</title>
<g id="a_edge36_Node000026_Node000017"><a xlink:title=" ">
<path fill="none" stroke="#63b8ff" d="M530.55,-147.29C535.13,-144.7 539.47,-141.71 543.25,-138.25 568.77,-114.9 552.54,-91.23 579.25,-69.25 584.56,-64.88 590.85,-61.51 597.38,-58.92"/>
<polygon fill="#63b8ff" stroke="#63b8ff" points="598.37,-61.95 606.74,-55.45 596.15,-55.31 598.37,-61.95"/>
</a>
</g>
</g>
</g>
</svg>
