<?xml version="1.0" encoding="UTF-8" standalone="no"?>
<!DOCTYPE svg PUBLIC "-//W3C//DTD SVG 1.1//EN"
 "http://www.w3.org/Graphics/SVG/1.1/DTD/svg11.dtd">
<!-- Generated by graphviz version 8.0.5 (0)
 -->
<!-- Title: arax_init Pages: 1 -->
<svg width="446pt" height="132pt"
 viewBox="0.00 0.00 445.50 131.85" xmlns="http://www.w3.org/2000/svg" xmlns:xlink="http://www.w3.org/1999/xlink">
<g id="graph0" class="graph" transform="scale(1 1) rotate(0) translate(4 127.85)">
<title>arax_init</title>
<!-- Node1 -->
<g id="Node000001" class="node">
<title>Node1</title>
<g id="a_Node000001"><a xlink:title=" ">
<polygon fill="#999999" stroke="#666666" points="437.5,-94.6 384,-94.6 384,-76.1 437.5,-76.1 437.5,-94.6"/>
<text text-anchor="middle" x="410.75" y="-81.1" font-family="Helvetica,sans-Serif" font-size="10.00">arax_init</text>
</a>
</g>
</g>
<!-- Node2 -->
<g id="Node000002" class="node">
<title>Node2</title>
<g id="a_Node000002"><a xlink:href="a01940.html#a8a99bcb12e2ee55d68a029bfca9b6d51" target="_top" xlink:title=" ">
<polygon fill="white" stroke="#666666" points="235.25,-123.85 141.25,-123.85 141.25,-94.85 235.25,-94.85 235.25,-123.85"/>
<text text-anchor="start" x="149.25" y="-110.35" font-family="Helvetica,sans-Serif" font-size="10.00">arax_plot_register</text>
<text text-anchor="middle" x="188.25" y="-99.85" font-family="Helvetica,sans-Serif" font-size="10.00">_metric</text>
</a>
</g>
</g>
<!-- Node1&#45;&gt;Node2 -->
<g id="edge1_Node000001_Node000002" class="edge">
<title>Node1&#45;&gt;Node2</title>
<g id="a_edge1_Node000001_Node000002"><a xlink:title=" ">
<path fill="none" stroke="#63b8ff" d="M373.06,-89.34C335.26,-93.46 276.26,-99.88 235.34,-104.33"/>
<polygon fill="#63b8ff" stroke="#63b8ff" points="373.03,-92.76 382.59,-88.2 372.27,-85.8 373.03,-92.76"/>
</a>
</g>
</g>
<!-- Node3 -->
<g id="Node000003" class="node">
<title>Node3</title>
<g id="a_Node000003"><a xlink:href="a01919.html#a80ab3bf4a8af9bb101b5a53248609771" target="_top" xlink:title=" ">
<polygon fill="white" stroke="#666666" points="348,-76.6 271.25,-76.6 271.25,-58.1 348,-58.1 348,-76.6"/>
<text text-anchor="middle" x="309.62" y="-63.1" font-family="Helvetica,sans-Serif" font-size="10.00">arax_ptr_valid</text>
</a>
</g>
</g>
<!-- Node1&#45;&gt;Node3 -->
<g id="edge2_Node000001_Node000003" class="edge">
<title>Node1&#45;&gt;Node3</title>
<g id="a_edge2_Node000001_Node000003"><a xlink:title=" ">
<path fill="none" stroke="#63b8ff" d="M373.12,-78.7C365.07,-77.24 356.52,-75.68 348.43,-74.21"/>
<polygon fill="#63b8ff" stroke="#63b8ff" points="372.24,-82.28 382.71,-80.62 373.49,-75.39 372.24,-82.28"/>
</a>
</g>
</g>
<!-- Node3&#45;&gt;Node2 -->
<g id="edge7_Node000003_Node000002" class="edge">
<title>Node3&#45;&gt;Node2</title>
<g id="a_edge7_Node000003_Node000002"><a xlink:title=" ">
<path fill="none" stroke="#63b8ff" d="M270.89,-80.63C258.45,-85 244.53,-89.9 231.76,-94.39"/>
<polygon fill="#63b8ff" stroke="#63b8ff" points="271.67,-83.71 279.94,-77.09 269.34,-77.11 271.67,-83.71"/>
</a>
</g>
</g>
<!-- Node4 -->
<g id="Node000004" class="node">
<title>Node4</title>
<g id="a_Node000004"><a xlink:href="a01937.html#a4ee1fea325d2edd421f59ab240dfbe54" target="_top" xlink:title=" ">
<polygon fill="white" stroke="#666666" points="234.12,-76.6 142.38,-76.6 142.38,-58.1 234.12,-58.1 234.12,-76.6"/>
<text text-anchor="middle" x="188.25" y="-63.1" font-family="Helvetica,sans-Serif" font-size="10.00">_arax_assert_obj</text>
</a>
</g>
</g>
<!-- Node3&#45;&gt;Node4 -->
<g id="edge3_Node000003_Node000004" class="edge">
<title>Node3&#45;&gt;Node4</title>
<g id="a_edge3_Node000003_Node000004"><a xlink:title=" ">
<path fill="none" stroke="#63b8ff" d="M259.94,-67.35C251.46,-67.35 242.67,-67.35 234.3,-67.35"/>
<polygon fill="#63b8ff" stroke="#63b8ff" points="259.85,-70.85 269.85,-67.35 259.85,-63.85 259.85,-70.85"/>
</a>
</g>
</g>
<!-- Node5 -->
<g id="Node000005" class="node">
<title>Node5</title>
<g id="a_Node000005"><a xlink:href="a01931.html#afeaab7d93372f0752d59c70d9c5940e7" target="_top" xlink:title=" ">
<polygon fill="white" stroke="#666666" points="226.25,-39.6 150.25,-39.6 150.25,-21.1 226.25,-21.1 226.25,-39.6"/>
<text text-anchor="middle" x="188.25" y="-26.1" font-family="Helvetica,sans-Serif" font-size="10.00">arax_data_ref</text>
</a>
</g>
</g>
<!-- Node3&#45;&gt;Node5 -->
<g id="edge4_Node000003_Node000005" class="edge">
<title>Node3&#45;&gt;Node5</title>
<g id="a_edge4_Node000003_Node000005"><a xlink:title=" ">
<path fill="none" stroke="#63b8ff" d="M267,-54.45C251.69,-49.7 234.63,-44.42 220.4,-40.01"/>
<polygon fill="#63b8ff" stroke="#63b8ff" points="265.67,-58.01 276.26,-57.63 267.75,-51.32 265.67,-58.01"/>
</a>
</g>
</g>
<!-- Node6 -->
<g id="Node000006" class="node">
<title>Node6</title>
<g id="a_Node000006"><a xlink:href="a01931.html#ac1f7fb20b3a23b388bea24f1b46a33a8" target="_top" xlink:title=" ">
<polygon fill="white" stroke="#666666" points="105.25,-20.6 0,-20.6 0,-2.1 105.25,-2.1 105.25,-20.6"/>
<text text-anchor="middle" x="52.62" y="-7.1" font-family="Helvetica,sans-Serif" font-size="10.00">arax_data_ref_offset</text>
</a>
</g>
</g>
<!-- Node3&#45;&gt;Node6 -->
<g id="edge6_Node000003_Node000006" class="edge">
<title>Node3&#45;&gt;Node6</title>
<g id="a_edge6_Node000003_Node000006"><a xlink:title=" ">
<path fill="none" stroke="#63b8ff" d="M292.22,-50.09C278.45,-36.93 257.49,-19.83 235.25,-12.35 193.26,1.77 142.65,0.69 105.53,-3.15"/>
<polygon fill="#63b8ff" stroke="#63b8ff" points="289.27,-52.08 298.82,-56.66 294.21,-47.12 289.27,-52.08"/>
</a>
</g>
</g>
<!-- Node5&#45;&gt;Node6 -->
<g id="edge5_Node000005_Node000006" class="edge">
<title>Node5&#45;&gt;Node6</title>
<g id="a_edge5_Node000005_Node000006"><a xlink:title=" ">
<path fill="none" stroke="#63b8ff" d="M139.37,-23.54C128.43,-21.99 116.74,-20.32 105.63,-18.74"/>
<polygon fill="#63b8ff" stroke="#63b8ff" points="138.63,-27.11 149.03,-25.06 139.62,-20.18 138.63,-27.11"/>
</a>
</g>
</g>
</g>
</svg>
