<?xml version="1.0" encoding="UTF-8" standalone="no"?>
<!DOCTYPE svg PUBLIC "-//W3C//DTD SVG 1.1//EN"
 "http://www.w3.org/Graphics/SVG/1.1/DTD/svg11.dtd">
<!-- Generated by graphviz version 12.2.1 (0)
 -->
<!-- Title: arax_accel_list_free Pages: 1 -->
<svg width="865pt" height="101pt"
 viewBox="0.00 0.00 865.25 100.50" xmlns="http://www.w3.org/2000/svg" xmlns:xlink="http://www.w3.org/1999/xlink">
<g id="graph0" class="graph" transform="scale(1 1) rotate(0) translate(4 96.5)">
<title>arax_accel_list_free</title>
<!-- Node1 -->
<g id="Node000001" class="node">
<title>Node1</title>
<g id="a_Node000001"><a xlink:title=" ">
<polygon fill="#999999" stroke="#666666" points="103.75,-36.5 0,-36.5 0,-18 103.75,-18 103.75,-36.5"/>
<text text-anchor="middle" x="51.88" y="-23" font-family="Helvetica,sans-Serif" font-size="10.00">arax_accel_list_free</text>
</a>
</g>
</g>
<!-- Node2 -->
<g id="Node000002" class="node">
<title>Node2</title>
<g id="a_Node000002"><a xlink:href="a01925.html#afe7e4a63c40fbcaae742b8de8693483f" target="_top" xlink:title=" ">
<polygon fill="white" stroke="#666666" points="244.25,-36.5 139.75,-36.5 139.75,-18 244.25,-18 244.25,-36.5"/>
<text text-anchor="middle" x="192" y="-23" font-family="Helvetica,sans-Serif" font-size="10.00">arax_object_ref_dec</text>
</a>
</g>
</g>
<!-- Node1&#45;&gt;Node2 -->
<g id="edge1_Node000001_Node000002" class="edge">
<title>Node1&#45;&gt;Node2</title>
<g id="a_edge1_Node000001_Node000002"><a xlink:title=" ">
<path fill="none" stroke="#63b8ff" d="M103.92,-27.25C111.85,-27.25 120.14,-27.25 128.3,-27.25"/>
<polygon fill="#63b8ff" stroke="#63b8ff" points="128.19,-30.75 138.19,-27.25 128.19,-23.75 128.19,-30.75"/>
</a>
</g>
</g>
<!-- Node3 -->
<g id="Node000003" class="node">
<title>Node3</title>
<g id="a_Node000003"><a xlink:href="a01928.html#a9f30684f01feac766b42d622970ed5a6" target="_top" xlink:title=" ">
<polygon fill="white" stroke="#666666" points="379.5,-55.5 280.25,-55.5 280.25,-37 379.5,-37 379.5,-55.5"/>
<text text-anchor="middle" x="329.88" y="-42" font-family="Helvetica,sans-Serif" font-size="10.00">arax_pipe_size_inc</text>
</a>
</g>
</g>
<!-- Node2&#45;&gt;Node3 -->
<g id="edge2_Node000002_Node000003" class="edge">
<title>Node2&#45;&gt;Node3</title>
<g id="a_edge2_Node000002_Node000003"><a xlink:title=" ">
<path fill="none" stroke="#63b8ff" d="M244.37,-34.43C252.34,-35.55 260.63,-36.71 268.77,-37.85"/>
<polygon fill="#63b8ff" stroke="#63b8ff" points="268.24,-41.31 278.63,-39.22 269.21,-34.37 268.24,-41.31"/>
</a>
</g>
</g>
<!-- Node11 -->
<g id="Node000011" class="node">
<title>Node11</title>
<g id="a_Node000011"><a xlink:href="a01955.html#a0c85e5516222ab7e7fc354c614760ec5" target="_top" xlink:title=" ">
<polygon fill="white" stroke="#666666" points="364.88,-18.5 294.88,-18.5 294.88,0 364.88,0 364.88,-18.5"/>
<text text-anchor="middle" x="329.88" y="-5" font-family="Helvetica,sans-Serif" font-size="10.00">utils_list_del</text>
</a>
</g>
</g>
<!-- Node2&#45;&gt;Node11 -->
<g id="edge12_Node000002_Node000011" class="edge">
<title>Node2&#45;&gt;Node11</title>
<g id="a_edge12_Node000002_Node000011"><a xlink:title=" ">
<path fill="none" stroke="#63b8ff" d="M244.37,-20.44C257.26,-18.74 270.99,-16.92 283.56,-15.25"/>
<polygon fill="#63b8ff" stroke="#63b8ff" points="283.77,-18.76 293.22,-13.97 282.85,-11.82 283.77,-18.76"/>
</a>
</g>
</g>
<!-- Node3&#45;&gt;Node3 -->
<g id="edge3_Node000003_Node000003" class="edge">
<title>Node3&#45;&gt;Node3</title>
<g id="a_edge3_Node000003_Node000003"><a xlink:title=" ">
<path fill="none" stroke="#63b8ff" d="M308.62,-55.75C298.29,-64.32 305.37,-73.5 329.88,-73.5 343.66,-73.5 351.93,-70.59 354.69,-66.53"/>
<polygon fill="#63b8ff" stroke="#63b8ff" points="358.06,-65.58 351.6,-57.18 351.42,-67.78 358.06,-65.58"/>
</a>
</g>
</g>
<!-- Node4 -->
<g id="Node000004" class="node">
<title>Node4</title>
<g id="a_Node000004"><a xlink:href="a01940.html#a7d3a67fa4eeb00cc9508a7ffe451a02f" target="_top" xlink:title=" ">
<polygon fill="white" stroke="#666666" points="526.75,-55.5 415.5,-55.5 415.5,-37 526.75,-37 526.75,-55.5"/>
<text text-anchor="middle" x="471.12" y="-42" font-family="Helvetica,sans-Serif" font-size="10.00">arax_throttle_size_inc</text>
</a>
</g>
</g>
<!-- Node3&#45;&gt;Node4 -->
<g id="edge4_Node000003_Node000004" class="edge">
<title>Node3&#45;&gt;Node4</title>
<g id="a_edge4_Node000003_Node000004"><a xlink:title=" ">
<path fill="none" stroke="#63b8ff" d="M379.97,-46.25C387.74,-46.25 395.88,-46.25 403.97,-46.25"/>
<polygon fill="#63b8ff" stroke="#63b8ff" points="403.79,-49.75 413.79,-46.25 403.79,-42.75 403.79,-49.75"/>
</a>
</g>
</g>
<!-- Node4&#45;&gt;Node4 -->
<g id="edge5_Node000004_Node000004" class="edge">
<title>Node4&#45;&gt;Node4</title>
<g id="a_edge5_Node000004_Node000004"><a xlink:title=" ">
<path fill="none" stroke="#63b8ff" d="M449.35,-55.75C438.76,-64.32 446.02,-73.5 471.12,-73.5 485.25,-73.5 493.72,-70.59 496.55,-66.53"/>
<polygon fill="#63b8ff" stroke="#63b8ff" points="499.9,-65.53 493.38,-57.18 493.27,-67.77 499.9,-65.53"/>
</a>
</g>
</g>
<!-- Node5 -->
<g id="Node000005" class="node">
<title>Node5</title>
<g id="a_Node000005"><a xlink:href="a02364.html#aed6af4d83e934e3e654ead541b15f2d9" target="_top" xlink:title=" ">
<polygon fill="white" stroke="#666666" points="677,-92.5 568,-92.5 568,-74 677,-74 677,-92.5"/>
<text text-anchor="middle" x="622.5" y="-79" font-family="Helvetica,sans-Serif" font-size="10.00">async_condition_lock</text>
</a>
</g>
</g>
<!-- Node4&#45;&gt;Node5 -->
<g id="edge6_Node000004_Node000005" class="edge">
<title>Node4&#45;&gt;Node5</title>
<g id="a_edge6_Node000004_Node000005"><a xlink:title=" ">
<path fill="none" stroke="#63b8ff" d="M511.37,-55.97C529.65,-60.5 551.62,-65.94 571.11,-70.77"/>
<polygon fill="#63b8ff" stroke="#63b8ff" points="570.24,-74.16 580.79,-73.17 571.92,-67.36 570.24,-74.16"/>
</a>
</g>
</g>
<!-- Node7 -->
<g id="Node000007" class="node">
<title>Node7</title>
<g id="a_Node000007"><a xlink:href="a02364.html#a45a896fb606c2aa66a5a4c2af59ce494" target="_top" xlink:title=" ">
<polygon fill="white" stroke="#666666" points="680,-55.5 565,-55.5 565,-37 680,-37 680,-55.5"/>
<text text-anchor="middle" x="622.5" y="-42" font-family="Helvetica,sans-Serif" font-size="10.00">async_condition_notify</text>
</a>
</g>
</g>
<!-- Node4&#45;&gt;Node7 -->
<g id="edge8_Node000004_Node000007" class="edge">
<title>Node4&#45;&gt;Node7</title>
<g id="a_edge8_Node000004_Node000007"><a xlink:title=" ">
<path fill="none" stroke="#63b8ff" d="M526.9,-46.25C535.47,-46.25 544.41,-46.25 553.24,-46.25"/>
<polygon fill="#63b8ff" stroke="#63b8ff" points="553.21,-49.75 563.21,-46.25 553.21,-42.75 553.21,-49.75"/>
</a>
</g>
</g>
<!-- Node9 -->
<g id="Node000009" class="node">
<title>Node9</title>
<g id="a_Node000009"><a xlink:href="a02364.html#a3bbcb7c4c024e99d5c4ba52b61dfbbf7" target="_top" xlink:title=" ">
<polygon fill="white" stroke="#666666" points="682.25,-18.5 562.75,-18.5 562.75,0 682.25,0 682.25,-18.5"/>
<text text-anchor="middle" x="622.5" y="-5" font-family="Helvetica,sans-Serif" font-size="10.00">async_condition_unlock</text>
</a>
</g>
</g>
<!-- Node4&#45;&gt;Node9 -->
<g id="edge10_Node000004_Node000009" class="edge">
<title>Node4&#45;&gt;Node9</title>
<g id="a_edge10_Node000004_Node000009"><a xlink:title=" ">
<path fill="none" stroke="#63b8ff" d="M511.37,-36.53C529.65,-32 551.62,-26.56 571.11,-21.73"/>
<polygon fill="#63b8ff" stroke="#63b8ff" points="571.92,-25.14 580.79,-19.33 570.24,-18.34 571.92,-25.14"/>
</a>
</g>
</g>
<!-- Node6 -->
<g id="Node000006" class="node">
<title>Node6</title>
<g id="a_Node000006"><a xlink:href="a02358.html#aebf9e72bb6cbd8b9e33489d46c25075d" target="_top" xlink:title=" ">
<polygon fill="white" stroke="#666666" points="846,-92.5 729.5,-92.5 729.5,-74 846,-74 846,-92.5"/>
<text text-anchor="middle" x="787.75" y="-79" font-family="Helvetica,sans-Serif" font-size="10.00">async_completion_wait</text>
</a>
</g>
</g>
<!-- Node5&#45;&gt;Node6 -->
<g id="edge7_Node000005_Node000006" class="edge">
<title>Node5&#45;&gt;Node6</title>
<g id="a_edge7_Node000005_Node000006"><a xlink:title=" ">
<path fill="none" stroke="#63b8ff" d="M677.41,-83.25C690.39,-83.25 704.44,-83.25 718.01,-83.25"/>
<polygon fill="#63b8ff" stroke="#63b8ff" points="717.74,-86.75 727.74,-83.25 717.74,-79.75 717.74,-86.75"/>
</a>
</g>
</g>
<!-- Node8 -->
<g id="Node000008" class="node">
<title>Node8</title>
<g id="a_Node000008"><a xlink:href="a02358.html#a0fa370eee5160963e617d1daf1c07363" target="_top" xlink:title=" ">
<polygon fill="white" stroke="#666666" points="844.12,-55.5 731.38,-55.5 731.38,-37 844.12,-37 844.12,-55.5"/>
<text text-anchor="middle" x="787.75" y="-42" font-family="Helvetica,sans-Serif" font-size="10.00">async_semaphore_inc</text>
</a>
</g>
</g>
<!-- Node7&#45;&gt;Node8 -->
<g id="edge9_Node000007_Node000008" class="edge">
<title>Node7&#45;&gt;Node8</title>
<g id="a_edge9_Node000007_Node000008"><a xlink:title=" ">
<path fill="none" stroke="#63b8ff" d="M680.14,-46.25C692.89,-46.25 706.54,-46.25 719.67,-46.25"/>
<polygon fill="#63b8ff" stroke="#63b8ff" points="719.53,-49.75 729.53,-46.25 719.52,-42.75 719.53,-49.75"/>
</a>
</g>
</g>
<!-- Node10 -->
<g id="Node000010" class="node">
<title>Node10</title>
<g id="a_Node000010"><a xlink:href="a02358.html#ad1d30ecbf6bff6457b680aa940281072" target="_top" xlink:title=" ">
<polygon fill="white" stroke="#666666" points="857.25,-18.5 718.25,-18.5 718.25,0 857.25,0 857.25,-18.5"/>
<text text-anchor="middle" x="787.75" y="-5" font-family="Helvetica,sans-Serif" font-size="10.00">async_completion_complete</text>
</a>
</g>
</g>
<!-- Node9&#45;&gt;Node10 -->
<g id="edge11_Node000009_Node000010" class="edge">
<title>Node9&#45;&gt;Node10</title>
<g id="a_edge11_Node000009_Node000010"><a xlink:title=" ">
<path fill="none" stroke="#63b8ff" d="M682.44,-9.25C690.26,-9.25 698.38,-9.25 706.49,-9.25"/>
<polygon fill="#63b8ff" stroke="#63b8ff" points="706.39,-12.75 716.39,-9.25 706.39,-5.75 706.39,-12.75"/>
</a>
</g>
</g>
</g>
</svg>
