<?xml version="1.0" encoding="UTF-8" standalone="no"?>
<!DOCTYPE svg PUBLIC "-//W3C//DTD SVG 1.1//EN"
 "http://www.w3.org/Graphics/SVG/1.1/DTD/svg11.dtd">
<!-- Generated by graphviz version 12.2.1 (0)
 -->
<!-- Title: arax_clean Pages: 1 -->
<svg width="733pt" height="119pt"
 viewBox="0.00 0.00 733.25 118.50" xmlns="http://www.w3.org/2000/svg" xmlns:xlink="http://www.w3.org/1999/xlink">
<g id="graph0" class="graph" transform="scale(1 1) rotate(0) translate(4 114.5)">
<title>arax_clean</title>
<!-- Node1 -->
<g id="Node000001" class="node">
<title>Node1</title>
<g id="a_Node000001"><a xlink:title=" ">
<polygon fill="#999999" stroke="#666666" points="64,-73.5 0,-73.5 0,-55 64,-55 64,-73.5"/>
<text text-anchor="middle" x="32" y="-60" font-family="Helvetica,sans-Serif" font-size="10.00">arax_clean</text>
</a>
</g>
</g>
<!-- Node2 -->
<g id="Node000002" class="node">
<title>Node2</title>
<g id="a_Node000002"><a xlink:href="a01952.html#aff9af0356940583dfe3045e693cc8a45" target="_top" xlink:title=" ">
<polygon fill="white" stroke="#666666" points="215,-110.5 100,-110.5 100,-92 215,-92 215,-110.5"/>
<text text-anchor="middle" x="157.5" y="-97" font-family="Helvetica,sans-Serif" font-size="10.00">utils_config_alloc_path</text>
</a>
</g>
</g>
<!-- Node1&#45;&gt;Node2 -->
<g id="edge1_Node000001_Node000002" class="edge">
<title>Node1&#45;&gt;Node2</title>
<g id="a_edge1_Node000001_Node000002"><a xlink:title=" ">
<path fill="none" stroke="#63b8ff" d="M64.48,-73.68C79.35,-78.14 97.32,-83.52 113.42,-88.34"/>
<polygon fill="#63b8ff" stroke="#63b8ff" points="112.18,-91.63 122.76,-91.14 114.19,-84.92 112.18,-91.63"/>
</a>
</g>
</g>
<!-- Node4 -->
<g id="Node000004" class="node">
<title>Node4</title>
<g id="a_Node000004"><a xlink:href="a01952.html#a84f3886cdcb91a28bf13b07aae8b2285" target="_top" xlink:title=" ">
<polygon fill="white" stroke="#666666" points="213.12,-73.5 101.88,-73.5 101.88,-55 213.12,-55 213.12,-73.5"/>
<text text-anchor="middle" x="157.5" y="-60" font-family="Helvetica,sans-Serif" font-size="10.00">utils_config_free_path</text>
</a>
</g>
</g>
<!-- Node1&#45;&gt;Node4 -->
<g id="edge3_Node000001_Node000004" class="edge">
<title>Node1&#45;&gt;Node4</title>
<g id="a_edge3_Node000001_Node000004"><a xlink:title=" ">
<path fill="none" stroke="#63b8ff" d="M64.48,-64.25C72.42,-64.25 81.25,-64.25 90.2,-64.25"/>
<polygon fill="#63b8ff" stroke="#63b8ff" points="90.04,-67.75 100.04,-64.25 90.04,-60.75 90.04,-67.75"/>
</a>
</g>
</g>
<!-- Node5 -->
<g id="Node000005" class="node">
<title>Node5</title>
<g id="a_Node000005"><a xlink:href="a01952.html#a1e8deff7c038efae14d1cc98e4ab109f" target="_top" xlink:title=" ">
<polygon fill="white" stroke="#666666" points="207.88,-36.5 107.12,-36.5 107.12,-18 207.88,-18 207.88,-36.5"/>
<text text-anchor="middle" x="157.5" y="-23" font-family="Helvetica,sans-Serif" font-size="10.00">utils_config_get_str</text>
</a>
</g>
</g>
<!-- Node1&#45;&gt;Node5 -->
<g id="edge4_Node000001_Node000005" class="edge">
<title>Node1&#45;&gt;Node5</title>
<g id="a_edge4_Node000001_Node000005"><a xlink:title=" ">
<path fill="none" stroke="#63b8ff" d="M64.48,-54.82C79.35,-50.36 97.32,-44.98 113.42,-40.16"/>
<polygon fill="#63b8ff" stroke="#63b8ff" points="114.19,-43.58 122.76,-37.36 112.18,-36.87 114.19,-43.58"/>
</a>
</g>
</g>
<!-- Node3 -->
<g id="Node000003" class="node">
<title>Node3</title>
<g id="a_Node000003"><a xlink:href="a01961.html#a0844807fe9679a9a5fbf1bfc9dd78dc6" target="_top" xlink:title=" ">
<polygon fill="white" stroke="#666666" points="355.12,-110.5 255.12,-110.5 255.12,-92 355.12,-92 355.12,-110.5"/>
<text text-anchor="middle" x="305.12" y="-97" font-family="Helvetica,sans-Serif" font-size="10.00">system_home_path</text>
</a>
</g>
</g>
<!-- Node2&#45;&gt;Node3 -->
<g id="edge2_Node000002_Node000003" class="edge">
<title>Node2&#45;&gt;Node3</title>
<g id="a_edge2_Node000002_Node000003"><a xlink:title=" ">
<path fill="none" stroke="#63b8ff" d="M215.22,-101.25C224.53,-101.25 234.21,-101.25 243.61,-101.25"/>
<polygon fill="#63b8ff" stroke="#63b8ff" points="243.38,-104.75 253.38,-101.25 243.38,-97.75 243.38,-104.75"/>
</a>
</g>
</g>
<!-- Node6 -->
<g id="Node000006" class="node">
<title>Node6</title>
<g id="a_Node000006"><a xlink:href="a01952.html#a0738274ac3fd171eda6bfb42492bc0d7" target="_top" xlink:title=" ">
<polygon fill="white" stroke="#666666" points="358.12,-55.5 252.12,-55.5 252.12,-37 358.12,-37 358.12,-55.5"/>
<text text-anchor="middle" x="305.12" y="-42" font-family="Helvetica,sans-Serif" font-size="10.00">_utils_config_get_str</text>
</a>
</g>
</g>
<!-- Node5&#45;&gt;Node6 -->
<g id="edge5_Node000005_Node000006" class="edge">
<title>Node5&#45;&gt;Node6</title>
<g id="a_edge5_Node000005_Node000006"><a xlink:title=" ">
<path fill="none" stroke="#63b8ff" d="M208.21,-33.74C218.6,-35.09 229.7,-36.54 240.52,-37.95"/>
<polygon fill="#63b8ff" stroke="#63b8ff" points="239.79,-41.39 250.16,-39.21 240.69,-34.44 239.79,-41.39"/>
</a>
</g>
</g>
<!-- Node11 -->
<g id="Node000011" class="node">
<title>Node11</title>
<g id="a_Node000011"><a xlink:href="a01952.html#a4b9cd8f5d0c205ac6c1fd30f77cbf539" target="_top" xlink:title=" ">
<polygon fill="white" stroke="#666666" points="359.25,-18.5 251,-18.5 251,0 359.25,0 359.25,-18.5"/>
<text text-anchor="middle" x="305.12" y="-5" font-family="Helvetica,sans-Serif" font-size="10.00">utils_config_write_str</text>
</a>
</g>
</g>
<!-- Node5&#45;&gt;Node11 -->
<g id="edge11_Node000005_Node000011" class="edge">
<title>Node5&#45;&gt;Node11</title>
<g id="a_edge11_Node000005_Node000011"><a xlink:title=" ">
<path fill="none" stroke="#63b8ff" d="M208.21,-21.11C218.25,-19.86 228.95,-18.54 239.42,-17.25"/>
<polygon fill="#63b8ff" stroke="#63b8ff" points="239.66,-20.74 249.16,-16.04 238.8,-13.8 239.66,-20.74"/>
</a>
</g>
</g>
<!-- Node7 -->
<g id="Node000007" class="node">
<title>Node7</title>
<g id="a_Node000007"><a xlink:href="a01952.html#a8b687fb4c464903e23504eea3ddc3873" target="_top" xlink:title=" ">
<polygon fill="white" stroke="#666666" points="448.75,-55.5 395.25,-55.5 395.25,-37 448.75,-37 448.75,-55.5"/>
<text text-anchor="middle" x="422" y="-42" font-family="Helvetica,sans-Serif" font-size="10.00">conf_get</text>
</a>
</g>
</g>
<!-- Node6&#45;&gt;Node7 -->
<g id="edge6_Node000006_Node000007" class="edge">
<title>Node6&#45;&gt;Node7</title>
<g id="a_edge6_Node000006_Node000007"><a xlink:title=" ">
<path fill="none" stroke="#63b8ff" d="M358.52,-46.25C367.03,-46.25 375.69,-46.25 383.74,-46.25"/>
<polygon fill="#63b8ff" stroke="#63b8ff" points="383.5,-49.75 393.5,-46.25 383.5,-42.75 383.5,-49.75"/>
</a>
</g>
</g>
<!-- Node8 -->
<g id="Node000008" class="node">
<title>Node8</title>
<g id="a_Node000008"><a xlink:href="a01961.html#acde493d3889d6f207d1e122cf4bb1b8c" target="_top" xlink:title=" ">
<polygon fill="white" stroke="#666666" points="725.25,-55.5 639.5,-55.5 639.5,-37 725.25,-37 725.25,-55.5"/>
<text text-anchor="middle" x="682.38" y="-42" font-family="Helvetica,sans-Serif" font-size="10.00">system_env_var</text>
</a>
</g>
</g>
<!-- Node7&#45;&gt;Node8 -->
<g id="edge7_Node000007_Node000008" class="edge">
<title>Node7&#45;&gt;Node8</title>
<g id="a_edge7_Node000007_Node000008"><a xlink:title=" ">
<path fill="none" stroke="#63b8ff" d="M449.08,-55.63C459.96,-59.08 472.81,-62.55 484.75,-64.25 537,-71.71 551.06,-70.23 603.5,-64.25 614.13,-63.04 625.42,-60.92 636.01,-58.56"/>
<polygon fill="#63b8ff" stroke="#63b8ff" points="636.76,-61.98 645.69,-56.27 635.16,-55.16 636.76,-61.98"/>
</a>
</g>
</g>
<!-- Node9 -->
<g id="Node000009" class="node">
<title>Node9</title>
<g id="a_Node000009"><a xlink:href="a01961.html#a86c3bfbf6daaf8172e131aa23dc7393c" target="_top" xlink:title=" ">
<polygon fill="white" stroke="#666666" points="587.75,-55.5 500.5,-55.5 500.5,-37 587.75,-37 587.75,-55.5"/>
<text text-anchor="middle" x="544.12" y="-42" font-family="Helvetica,sans-Serif" font-size="10.00">system_file_size</text>
</a>
</g>
</g>
<!-- Node7&#45;&gt;Node9 -->
<g id="edge8_Node000007_Node000009" class="edge">
<title>Node7&#45;&gt;Node9</title>
<g id="a_edge8_Node000007_Node000009"><a xlink:title=" ">
<path fill="none" stroke="#63b8ff" d="M449.07,-46.25C460.71,-46.25 474.9,-46.25 488.68,-46.25"/>
<polygon fill="#63b8ff" stroke="#63b8ff" points="488.59,-49.75 498.59,-46.25 488.59,-42.75 488.59,-49.75"/>
</a>
</g>
</g>
<!-- Node10 -->
<g id="Node000010" class="node">
<title>Node10</title>
<g id="a_Node000010"><a xlink:href="a01952.html#a17713c8e9b90065e23b0ec1a225f79ab" target="_top" xlink:title=" ">
<polygon fill="white" stroke="#666666" points="603.5,-18.5 484.75,-18.5 484.75,0 603.5,0 603.5,-18.5"/>
<text text-anchor="middle" x="544.12" y="-5" font-family="Helvetica,sans-Serif" font-size="10.00">utils_config_get_source</text>
</a>
</g>
</g>
<!-- Node7&#45;&gt;Node10 -->
<g id="edge9_Node000007_Node000010" class="edge">
<title>Node7&#45;&gt;Node10</title>
<g id="a_edge9_Node000007_Node000010"><a xlink:title=" ">
<path fill="none" stroke="#63b8ff" d="M449.07,-38.22C464.12,-33.58 483.43,-27.64 500.63,-22.34"/>
<polygon fill="#63b8ff" stroke="#63b8ff" points="501.59,-25.71 510.11,-19.42 499.53,-19.02 501.59,-25.71"/>
</a>
</g>
</g>
<!-- Node10&#45;&gt;Node8 -->
<g id="edge10_Node000010_Node000008" class="edge">
<title>Node10&#45;&gt;Node8</title>
<g id="a_edge10_Node000010_Node000008"><a xlink:title=" ">
<path fill="none" stroke="#63b8ff" d="M580.92,-18.97C597.43,-23.45 617.23,-28.83 634.88,-33.62"/>
<polygon fill="#63b8ff" stroke="#63b8ff" points="633.79,-36.95 644.36,-36.2 635.62,-30.2 633.79,-36.95"/>
</a>
</g>
</g>
<!-- Node11&#45;&gt;Node7 -->
<g id="edge12_Node000011_Node000007" class="edge">
<title>Node11&#45;&gt;Node7</title>
<g id="a_edge12_Node000011_Node000007"><a xlink:title=" ">
<path fill="none" stroke="#63b8ff" d="M336.31,-18.97C350.96,-23.69 368.7,-29.41 384.15,-34.38"/>
<polygon fill="#63b8ff" stroke="#63b8ff" points="382.89,-37.65 393.48,-37.39 385.03,-30.99 382.89,-37.65"/>
</a>
</g>
</g>
<!-- Node12 -->
<g id="Node000012" class="node">
<title>Node12</title>
<g id="a_Node000012"><a xlink:href="a01952.html#ab87e9691e65d65348749f8dc70f24602" target="_top" xlink:title=" ">
<polygon fill="white" stroke="#666666" points="448.75,-18.5 395.25,-18.5 395.25,0 448.75,0 448.75,-18.5"/>
<text text-anchor="middle" x="422" y="-5" font-family="Helvetica,sans-Serif" font-size="10.00">conf_set</text>
</a>
</g>
</g>
<!-- Node11&#45;&gt;Node12 -->
<g id="edge13_Node000011_Node000012" class="edge">
<title>Node11&#45;&gt;Node12</title>
<g id="a_edge13_Node000011_Node000012"><a xlink:title=" ">
<path fill="none" stroke="#63b8ff" d="M359.53,-9.25C367.6,-9.25 375.78,-9.25 383.43,-9.25"/>
<polygon fill="#63b8ff" stroke="#63b8ff" points="383.4,-12.75 393.4,-9.25 383.4,-5.75 383.4,-12.75"/>
</a>
</g>
</g>
<!-- Node12&#45;&gt;Node10 -->
<g id="edge14_Node000012_Node000010" class="edge">
<title>Node12&#45;&gt;Node10</title>
<g id="a_edge14_Node000012_Node000010"><a xlink:title=" ">
<path fill="none" stroke="#63b8ff" d="M449.07,-9.25C456.36,-9.25 464.65,-9.25 473.21,-9.25"/>
<polygon fill="#63b8ff" stroke="#63b8ff" points="473.06,-12.75 483.06,-9.25 473.06,-5.75 473.06,-12.75"/>
</a>
</g>
</g>
</g>
</svg>
