<?xml version="1.0" encoding="UTF-8" standalone="no"?>
<!DOCTYPE svg PUBLIC "-//W3C//DTD SVG 1.1//EN"
 "http://www.w3.org/Graphics/SVG/1.1/DTD/svg11.dtd">
<!-- Generated by graphviz version 8.0.5 (0)
 -->
<!-- Title: arax_task_issue Pages: 1 -->
<svg width="1336pt" height="342pt"
 viewBox="0.00 0.00 1336.25 341.50" xmlns="http://www.w3.org/2000/svg" xmlns:xlink="http://www.w3.org/1999/xlink">
<g id="graph0" class="graph" transform="scale(1 1) rotate(0) translate(4 337.5)">
<title>arax_task_issue</title>
<!-- Node1 -->
<g id="Node000001" class="node">
<title>Node1</title>
<g id="a_Node000001"><a xlink:title=" ">
<polygon fill="#999999" stroke="#666666" points="88,-73.5 0,-73.5 0,-55 88,-55 88,-73.5"/>
<text text-anchor="middle" x="44" y="-60" font-family="Helvetica,sans-Serif" font-size="10.00">arax_task_issue</text>
</a>
</g>
</g>
<!-- Node2 -->
<g id="Node000002" class="node">
<title>Node2</title>
<g id="a_Node000002"><a xlink:href="a01922.html#a27bee94f7a23281c8b2b72ec433f6059" target="_top" xlink:title=" ">
<polygon fill="white" stroke="#666666" points="220.25,-185.5 135.25,-185.5 135.25,-167 220.25,-167 220.25,-185.5"/>
<text text-anchor="middle" x="177.75" y="-172" font-family="Helvetica,sans-Serif" font-size="10.00">arax_task_alloc</text>
</a>
</g>
</g>
<!-- Node1&#45;&gt;Node2 -->
<g id="edge1_Node000001_Node000002" class="edge">
<title>Node1&#45;&gt;Node2</title>
<g id="a_edge1_Node000001_Node000002"><a xlink:title=" ">
<path fill="none" stroke="#63b8ff" d="M56.23,-73.8C78.69,-92.89 129.38,-135.98 157.33,-159.74"/>
<polygon fill="#63b8ff" stroke="#63b8ff" points="154.66,-162.91 164.55,-166.73 159.19,-157.58 154.66,-162.91"/>
</a>
</g>
</g>
<!-- Node28 -->
<g id="Node000028" class="node">
<title>Node28</title>
<g id="a_Node000028"><a xlink:href="a01922.html#aa3cb73b347940187fb3399f51b1a55b7" target="_top" xlink:title=" ">
<polygon fill="white" stroke="#666666" points="231.5,-55.5 124,-55.5 124,-37 231.5,-37 231.5,-55.5"/>
<text text-anchor="middle" x="177.75" y="-42" font-family="Helvetica,sans-Serif" font-size="10.00">arax_task_host_data</text>
</a>
</g>
</g>
<!-- Node1&#45;&gt;Node28 -->
<g id="edge35_Node000001_Node000028" class="edge">
<title>Node1&#45;&gt;Node28</title>
<g id="a_edge35_Node000001_Node000028"><a xlink:title=" ">
<path fill="none" stroke="#63b8ff" d="M88.14,-58.36C96.16,-57.26 104.69,-56.09 113.18,-54.94"/>
<polygon fill="#63b8ff" stroke="#63b8ff" points="113.42,-58.3 122.85,-53.48 112.47,-51.36 113.42,-58.3"/>
</a>
</g>
</g>
<!-- Node29 -->
<g id="Node000029" class="node">
<title>Node29</title>
<g id="a_Node000029"><a xlink:href="a01922.html#ace08f924cb86d1310099621564536657" target="_top" xlink:title=" ">
<polygon fill="white" stroke="#666666" points="525.25,-73.5 431.25,-73.5 431.25,-55 525.25,-55 525.25,-73.5"/>
<text text-anchor="middle" x="478.25" y="-60" font-family="Helvetica,sans-Serif" font-size="10.00">arax_task_submit</text>
</a>
</g>
</g>
<!-- Node1&#45;&gt;Node29 -->
<g id="edge36_Node000001_Node000029" class="edge">
<title>Node1&#45;&gt;Node29</title>
<g id="a_edge36_Node000001_Node000029"><a xlink:title=" ">
<path fill="none" stroke="#63b8ff" d="M88.42,-64.25C166.95,-64.25 332.53,-64.25 420.13,-64.25"/>
<polygon fill="#63b8ff" stroke="#63b8ff" points="419.93,-67.75 429.93,-64.25 419.93,-60.75 419.93,-67.75"/>
</a>
</g>
</g>
<!-- Node33 -->
<g id="Node000033" class="node">
<title>Node33</title>
<g id="a_Node000033"><a xlink:href="a01898.html#a226d4d420328a42fd671699ae60c4c3a" target="_top" xlink:title=" ">
<polygon fill="white" stroke="#666666" points="224,-18.5 131.5,-18.5 131.5,0 224,0 224,-18.5"/>
<text text-anchor="middle" x="177.75" y="-5" font-family="Helvetica,sans-Serif" font-size="10.00">check_semantics</text>
</a>
</g>
</g>
<!-- Node1&#45;&gt;Node33 -->
<g id="edge44_Node000001_Node000033" class="edge">
<title>Node1&#45;&gt;Node33</title>
<g id="a_edge44_Node000001_Node000033"><a xlink:title=" ">
<path fill="none" stroke="#63b8ff" d="M64.93,-54.62C80.79,-47.09 103.62,-36.55 124,-28.25 128.53,-26.4 133.32,-24.55 138.09,-22.76"/>
<polygon fill="#63b8ff" stroke="#63b8ff" points="139.21,-25.71 147.39,-18.98 136.8,-19.14 139.21,-25.71"/>
</a>
</g>
</g>
<!-- Node3 -->
<g id="Node000003" class="node">
<title>Node3</title>
<g id="a_Node000003"><a xlink:href="a01931.html#a1dc669466d6f52d5be8af2d991512ac2" target="_top" xlink:title=" ">
<polygon fill="white" stroke="#666666" points="375.38,-148.5 271.62,-148.5 271.62,-130 375.38,-130 375.38,-148.5"/>
<text text-anchor="middle" x="323.5" y="-135" font-family="Helvetica,sans-Serif" font-size="10.00">arax_data_input_init</text>
</a>
</g>
</g>
<!-- Node2&#45;&gt;Node3 -->
<g id="edge2_Node000002_Node000003" class="edge">
<title>Node2&#45;&gt;Node3</title>
<g id="a_edge2_Node000002_Node000003"><a xlink:title=" ">
<path fill="none" stroke="#63b8ff" d="M216.52,-166.53C234.26,-161.96 255.62,-156.46 274.5,-151.61"/>
<polygon fill="#63b8ff" stroke="#63b8ff" points="275.17,-154.79 283.98,-148.91 273.43,-148.01 275.17,-154.79"/>
</a>
</g>
</g>
<!-- Node17 -->
<g id="Node000017" class="node">
<title>Node17</title>
<g id="a_Node000017"><a xlink:href="a01931.html#a18d07d808917e0b971d46332e9e64da4" target="_top" xlink:title=" ">
<polygon fill="white" stroke="#666666" points="378.38,-185.5 268.62,-185.5 268.62,-167 378.38,-167 378.38,-185.5"/>
<text text-anchor="middle" x="323.5" y="-172" font-family="Helvetica,sans-Serif" font-size="10.00">arax_data_output_init</text>
</a>
</g>
</g>
<!-- Node2&#45;&gt;Node17 -->
<g id="edge17_Node000002_Node000017" class="edge">
<title>Node2&#45;&gt;Node17</title>
<g id="a_edge17_Node000002_Node000017"><a xlink:title=" ">
<path fill="none" stroke="#63b8ff" d="M220.71,-176.25C232.19,-176.25 244.9,-176.25 257.34,-176.25"/>
<polygon fill="#63b8ff" stroke="#63b8ff" points="257.16,-179.75 267.16,-176.25 257.16,-172.75 257.16,-179.75"/>
</a>
</g>
</g>
<!-- Node18 -->
<g id="Node000018" class="node">
<title>Node18</title>
<g id="a_Node000018"><a xlink:href="a01910.html#a402bbd6fa197c2c48d527325e5e2cf5b" target="_top" xlink:title=" ">
<polygon fill="white" stroke="#666666" points="375.75,-259.5 271.25,-259.5 271.25,-241 375.75,-241 375.75,-259.5"/>
<text text-anchor="middle" x="323.5" y="-246" font-family="Helvetica,sans-Serif" font-size="10.00">arax_object_register</text>
</a>
</g>
</g>
<!-- Node2&#45;&gt;Node18 -->
<g id="edge20_Node000002_Node000018" class="edge">
<title>Node2&#45;&gt;Node18</title>
<g id="a_edge20_Node000002_Node000018"><a xlink:title=" ">
<path fill="none" stroke="#63b8ff" d="M192.05,-185.81C208.96,-197.64 239.34,-217.87 267.5,-231.25 271.61,-233.2 275.97,-235.05 280.37,-236.78"/>
<polygon fill="#63b8ff" stroke="#63b8ff" points="279.01,-240.38 289.61,-240.58 281.45,-233.82 279.01,-240.38"/>
</a>
</g>
</g>
<!-- Node27 -->
<g id="Node000027" class="node">
<title>Node27</title>
<g id="a_Node000027"><a xlink:href="a02352.html#ac728117d73179c279de49e01ae905dda" target="_top" xlink:title=" ">
<polygon fill="white" stroke="#666666" points="379.5,-222.5 267.5,-222.5 267.5,-204 379.5,-204 379.5,-222.5"/>
<text text-anchor="middle" x="323.5" y="-209" font-family="Helvetica,sans-Serif" font-size="10.00">async_completion_init</text>
</a>
</g>
</g>
<!-- Node2&#45;&gt;Node27 -->
<g id="edge33_Node000002_Node000027" class="edge">
<title>Node2&#45;&gt;Node27</title>
<g id="a_edge33_Node000002_Node000027"><a xlink:title=" ">
<path fill="none" stroke="#63b8ff" d="M216.52,-185.97C234.26,-190.54 255.62,-196.04 274.5,-200.89"/>
<polygon fill="#63b8ff" stroke="#63b8ff" points="273.43,-204.49 283.98,-203.59 275.17,-197.71 273.43,-204.49"/>
</a>
</g>
</g>
<!-- Node4 -->
<g id="Node000004" class="node">
<title>Node4</title>
<g id="a_Node000004"><a xlink:href="a01931.html#a4b65f90a821aca384f0ca1cff7bd1846" target="_top" xlink:title=" ">
<polygon fill="white" stroke="#666666" points="541,-185.5 415.5,-185.5 415.5,-167 541,-167 541,-185.5"/>
<text text-anchor="middle" x="478.25" y="-172" font-family="Helvetica,sans-Serif" font-size="10.00">arax_data_migrate_accel</text>
</a>
</g>
</g>
<!-- Node3&#45;&gt;Node4 -->
<g id="edge3_Node000003_Node000004" class="edge">
<title>Node3&#45;&gt;Node4</title>
<g id="a_edge3_Node000003_Node000004"><a xlink:title=" ">
<path fill="none" stroke="#63b8ff" d="M364.63,-148.97C383.59,-153.56 406.42,-159.09 426.56,-163.97"/>
<polygon fill="#63b8ff" stroke="#63b8ff" points="425.58,-167.58 436.12,-166.53 427.22,-160.77 425.58,-167.58"/>
</a>
</g>
</g>
<!-- Node15 -->
<g id="Node000015" class="node">
<title>Node15</title>
<g id="a_Node000015"><a xlink:href="a01910.html#a9255b8011e6d7c9b28c7df40065efb28" target="_top" xlink:title=" ">
<polygon fill="white" stroke="#666666" points="688.25,-113.5 586.75,-113.5 586.75,-95 688.25,-95 688.25,-113.5"/>
<text text-anchor="middle" x="637.5" y="-100" font-family="Helvetica,sans-Serif" font-size="10.00">arax_object_ref_inc</text>
</a>
</g>
</g>
<!-- Node3&#45;&gt;Node15 -->
<g id="edge16_Node000003_Node000015" class="edge">
<title>Node3&#45;&gt;Node15</title>
<g id="a_edge16_Node000003_Node000015"><a xlink:title=" ">
<path fill="none" stroke="#63b8ff" d="M375.44,-130.88C388.48,-128.88 402.49,-126.87 415.5,-125.25 469.45,-118.54 531.03,-112.85 575.47,-109.09"/>
<polygon fill="#63b8ff" stroke="#63b8ff" points="575.71,-112.5 585.38,-108.18 575.12,-105.53 575.71,-112.5"/>
</a>
</g>
</g>
<!-- Node5 -->
<g id="Node000005" class="node">
<title>Node5</title>
<g id="a_Node000005"><a xlink:href="a01910.html#afe7e4a63c40fbcaae742b8de8693483f" target="_top" xlink:title=" ">
<polygon fill="white" stroke="#666666" points="689.75,-153.5 585.25,-153.5 585.25,-135 689.75,-135 689.75,-153.5"/>
<text text-anchor="middle" x="637.5" y="-140" font-family="Helvetica,sans-Serif" font-size="10.00">arax_object_ref_dec</text>
</a>
</g>
</g>
<!-- Node4&#45;&gt;Node5 -->
<g id="edge4_Node000004_Node000005" class="edge">
<title>Node4&#45;&gt;Node5</title>
<g id="a_edge4_Node000004_Node000005"><a xlink:title=" ">
<path fill="none" stroke="#63b8ff" d="M526.86,-166.56C543.1,-163.26 561.45,-159.52 578.42,-156.07"/>
<polygon fill="#63b8ff" stroke="#63b8ff" points="578.68,-159.38 587.78,-153.96 577.29,-152.52 578.68,-159.38"/>
</a>
</g>
</g>
<!-- Node4&#45;&gt;Node15 -->
<g id="edge14_Node000004_Node000015" class="edge">
<title>Node4&#45;&gt;Node15</title>
<g id="a_edge14_Node000004_Node000015"><a xlink:title=" ">
<path fill="none" stroke="#63b8ff" d="M510.48,-166.58C520.5,-162.97 531.46,-158.46 541,-153.25 558.55,-143.66 559.44,-135.82 577,-126.25 582.64,-123.18 588.79,-120.36 594.94,-117.85"/>
<polygon fill="#63b8ff" stroke="#63b8ff" points="596.1,-120.77 604.18,-113.91 593.59,-114.24 596.1,-120.77"/>
</a>
</g>
</g>
<!-- Node16 -->
<g id="Node000016" class="node">
<title>Node16</title>
<g id="a_Node000016"><a xlink:href="a01910.html#a668fd893484b6e2d67d8b372b508d14f" target="_top" xlink:title=" ">
<polygon fill="white" stroke="#666666" points="698,-190.5 577,-190.5 577,-172 698,-172 698,-190.5"/>
<text text-anchor="middle" x="637.5" y="-177" font-family="Helvetica,sans-Serif" font-size="10.00">arax_object_type_to_str</text>
</a>
</g>
</g>
<!-- Node4&#45;&gt;Node16 -->
<g id="edge15_Node000004_Node000016" class="edge">
<title>Node4&#45;&gt;Node16</title>
<g id="a_edge15_Node000004_Node000016"><a xlink:title=" ">
<path fill="none" stroke="#63b8ff" d="M541.4,-178.23C549.37,-178.48 557.57,-178.74 565.66,-179"/>
<polygon fill="#63b8ff" stroke="#63b8ff" points="565.49,-182.53 575.6,-179.35 565.71,-175.53 565.49,-182.53"/>
</a>
</g>
</g>
<!-- Node6 -->
<g id="Node000006" class="node">
<title>Node6</title>
<g id="a_Node000006"><a xlink:href="a01913.html#a5144f906658718ef853a8d18dda1e724" target="_top" xlink:title=" ">
<polygon fill="white" stroke="#666666" points="840.38,-171.5 741.12,-171.5 741.12,-153 840.38,-153 840.38,-171.5"/>
<text text-anchor="middle" x="790.75" y="-158" font-family="Helvetica,sans-Serif" font-size="10.00">arax_pipe_size_inc</text>
</a>
</g>
</g>
<!-- Node5&#45;&gt;Node6 -->
<g id="edge5_Node000005_Node000006" class="edge">
<title>Node5&#45;&gt;Node6</title>
<g id="a_edge5_Node000005_Node000006"><a xlink:title=" ">
<path fill="none" stroke="#63b8ff" d="M690.13,-150.39C702.9,-151.91 716.69,-153.55 729.82,-155.12"/>
<polygon fill="#63b8ff" stroke="#63b8ff" points="729.31,-158.7 739.65,-156.41 730.13,-151.75 729.31,-158.7"/>
</a>
</g>
</g>
<!-- Node14 -->
<g id="Node000014" class="node">
<title>Node14</title>
<g id="a_Node000014"><a xlink:href="a01946.html#a0c85e5516222ab7e7fc354c614760ec5" target="_top" xlink:title=" ">
<polygon fill="white" stroke="#666666" points="825.75,-134.5 755.75,-134.5 755.75,-116 825.75,-116 825.75,-134.5"/>
<text text-anchor="middle" x="790.75" y="-121" font-family="Helvetica,sans-Serif" font-size="10.00">utils_list_del</text>
</a>
</g>
</g>
<!-- Node5&#45;&gt;Node14 -->
<g id="edge13_Node000005_Node000014" class="edge">
<title>Node5&#45;&gt;Node14</title>
<g id="a_edge13_Node000005_Node000014"><a xlink:title=" ">
<path fill="none" stroke="#63b8ff" d="M690.13,-137.76C707.82,-135.54 727.46,-133.07 744.6,-130.92"/>
<polygon fill="#63b8ff" stroke="#63b8ff" points="744.97,-134.28 754.46,-129.56 744.1,-127.33 744.97,-134.28"/>
</a>
</g>
</g>
<!-- Node7 -->
<g id="Node000007" class="node">
<title>Node7</title>
<g id="a_Node000007"><a xlink:href="a01925.html#a22aaf13eb56eb1832e725ef73236116f" target="_top" xlink:title=" ">
<polygon fill="white" stroke="#666666" points="996.25,-171.5 885,-171.5 885,-153 996.25,-153 996.25,-171.5"/>
<text text-anchor="middle" x="940.62" y="-158" font-family="Helvetica,sans-Serif" font-size="10.00">arax_throttle_size_inc</text>
</a>
</g>
</g>
<!-- Node6&#45;&gt;Node7 -->
<g id="edge6_Node000006_Node000007" class="edge">
<title>Node6&#45;&gt;Node7</title>
<g id="a_edge6_Node000006_Node000007"><a xlink:title=" ">
<path fill="none" stroke="#63b8ff" d="M840.58,-162.25C851.29,-162.25 862.8,-162.25 874.04,-162.25"/>
<polygon fill="#63b8ff" stroke="#63b8ff" points="873.71,-165.75 883.71,-162.25 873.71,-158.75 873.71,-165.75"/>
</a>
</g>
</g>
<!-- Node8 -->
<g id="Node000008" class="node">
<title>Node8</title>
<g id="a_Node000008"><a xlink:href="a02352.html#aed6af4d83e934e3e654ead541b15f2d9" target="_top" xlink:title=" ">
<polygon fill="white" stroke="#666666" points="1148,-208.5 1039,-208.5 1039,-190 1148,-190 1148,-208.5"/>
<text text-anchor="middle" x="1093.5" y="-195" font-family="Helvetica,sans-Serif" font-size="10.00">async_condition_lock</text>
</a>
</g>
</g>
<!-- Node7&#45;&gt;Node8 -->
<g id="edge7_Node000007_Node000008" class="edge">
<title>Node7&#45;&gt;Node8</title>
<g id="a_edge7_Node000007_Node000008"><a xlink:title=" ">
<path fill="none" stroke="#63b8ff" d="M981.27,-171.97C999.99,-176.56 1022.54,-182.09 1042.43,-186.97"/>
<polygon fill="#63b8ff" stroke="#63b8ff" points="1041.32,-190.55 1051.86,-189.53 1042.98,-183.75 1041.32,-190.55"/>
</a>
</g>
</g>
<!-- Node10 -->
<g id="Node000010" class="node">
<title>Node10</title>
<g id="a_Node000010"><a xlink:href="a02352.html#a45a896fb606c2aa66a5a4c2af59ce494" target="_top" xlink:title=" ">
<polygon fill="white" stroke="#666666" points="1151,-134.5 1036,-134.5 1036,-116 1151,-116 1151,-134.5"/>
<text text-anchor="middle" x="1093.5" y="-121" font-family="Helvetica,sans-Serif" font-size="10.00">async_condition_notify</text>
</a>
</g>
</g>
<!-- Node7&#45;&gt;Node10 -->
<g id="edge9_Node000007_Node000010" class="edge">
<title>Node7&#45;&gt;Node10</title>
<g id="a_edge9_Node000007_Node000010"><a xlink:title=" ">
<path fill="none" stroke="#63b8ff" d="M981.27,-152.53C999.99,-147.94 1022.54,-142.41 1042.43,-137.53"/>
<polygon fill="#63b8ff" stroke="#63b8ff" points="1042.98,-140.75 1051.86,-134.97 1041.32,-133.95 1042.98,-140.75"/>
</a>
</g>
</g>
<!-- Node12 -->
<g id="Node000012" class="node">
<title>Node12</title>
<g id="a_Node000012"><a xlink:href="a02352.html#a3bbcb7c4c024e99d5c4ba52b61dfbbf7" target="_top" xlink:title=" ">
<polygon fill="white" stroke="#666666" points="1153.25,-171.5 1033.75,-171.5 1033.75,-153 1153.25,-153 1153.25,-171.5"/>
<text text-anchor="middle" x="1093.5" y="-158" font-family="Helvetica,sans-Serif" font-size="10.00">async_condition_unlock</text>
</a>
</g>
</g>
<!-- Node7&#45;&gt;Node12 -->
<g id="edge11_Node000007_Node000012" class="edge">
<title>Node7&#45;&gt;Node12</title>
<g id="a_edge11_Node000007_Node000012"><a xlink:title=" ">
<path fill="none" stroke="#63b8ff" d="M996.52,-162.25C1004.93,-162.25 1013.71,-162.25 1022.4,-162.25"/>
<polygon fill="#63b8ff" stroke="#63b8ff" points="1022.32,-165.75 1032.32,-162.25 1022.32,-158.75 1022.32,-165.75"/>
</a>
</g>
</g>
<!-- Node9 -->
<g id="Node000009" class="node">
<title>Node9</title>
<g id="a_Node000009"><a xlink:href="a02346.html#aebf9e72bb6cbd8b9e33489d46c25075d" target="_top" xlink:title=" ">
<polygon fill="white" stroke="#666666" points="1317,-208.5 1200.5,-208.5 1200.5,-190 1317,-190 1317,-208.5"/>
<text text-anchor="middle" x="1258.75" y="-195" font-family="Helvetica,sans-Serif" font-size="10.00">async_completion_wait</text>
</a>
</g>
</g>
<!-- Node8&#45;&gt;Node9 -->
<g id="edge8_Node000008_Node000009" class="edge">
<title>Node8&#45;&gt;Node9</title>
<g id="a_edge8_Node000008_Node000009"><a xlink:title=" ">
<path fill="none" stroke="#63b8ff" d="M1148.41,-199.25C1161.52,-199.25 1175.73,-199.25 1189.41,-199.25"/>
<polygon fill="#63b8ff" stroke="#63b8ff" points="1189.25,-202.75 1199.25,-199.25 1189.25,-195.75 1189.25,-202.75"/>
</a>
</g>
</g>
<!-- Node11 -->
<g id="Node000011" class="node">
<title>Node11</title>
<g id="a_Node000011"><a xlink:href="a02346.html#a0fa370eee5160963e617d1daf1c07363" target="_top" xlink:title=" ">
<polygon fill="white" stroke="#666666" points="1315.12,-134.5 1202.38,-134.5 1202.38,-116 1315.12,-116 1315.12,-134.5"/>
<text text-anchor="middle" x="1258.75" y="-121" font-family="Helvetica,sans-Serif" font-size="10.00">async_semaphore_inc</text>
</a>
</g>
</g>
<!-- Node10&#45;&gt;Node11 -->
<g id="edge10_Node000010_Node000011" class="edge">
<title>Node10&#45;&gt;Node11</title>
<g id="a_edge10_Node000010_Node000011"><a xlink:title=" ">
<path fill="none" stroke="#63b8ff" d="M1151.14,-125.25C1164.02,-125.25 1177.81,-125.25 1191.07,-125.25"/>
<polygon fill="#63b8ff" stroke="#63b8ff" points="1191.04,-128.75 1201.04,-125.25 1191.04,-121.75 1191.04,-128.75"/>
</a>
</g>
</g>
<!-- Node13 -->
<g id="Node000013" class="node">
<title>Node13</title>
<g id="a_Node000013"><a xlink:href="a02346.html#ad1d30ecbf6bff6457b680aa940281072" target="_top" xlink:title=" ">
<polygon fill="white" stroke="#666666" points="1328.25,-171.5 1189.25,-171.5 1189.25,-153 1328.25,-153 1328.25,-171.5"/>
<text text-anchor="middle" x="1258.75" y="-158" font-family="Helvetica,sans-Serif" font-size="10.00">async_completion_complete</text>
</a>
</g>
</g>
<!-- Node12&#45;&gt;Node13 -->
<g id="edge12_Node000012_Node000013" class="edge">
<title>Node12&#45;&gt;Node13</title>
<g id="a_edge12_Node000012_Node000013"><a xlink:title=" ">
<path fill="none" stroke="#63b8ff" d="M1153.44,-162.25C1161.44,-162.25 1169.76,-162.25 1178.05,-162.25"/>
<polygon fill="#63b8ff" stroke="#63b8ff" points="1177.9,-165.75 1187.9,-162.25 1177.9,-158.75 1177.9,-165.75"/>
</a>
</g>
</g>
<!-- Node17&#45;&gt;Node4 -->
<g id="edge18_Node000017_Node000004" class="edge">
<title>Node17&#45;&gt;Node4</title>
<g id="a_edge18_Node000017_Node000004"><a xlink:title=" ">
<path fill="none" stroke="#63b8ff" d="M378.78,-176.25C387.04,-176.25 395.68,-176.25 404.26,-176.25"/>
<polygon fill="#63b8ff" stroke="#63b8ff" points="404.07,-179.75 414.07,-176.25 404.07,-172.75 404.07,-179.75"/>
</a>
</g>
</g>
<!-- Node17&#45;&gt;Node15 -->
<g id="edge19_Node000017_Node000015" class="edge">
<title>Node17&#45;&gt;Node15</title>
<g id="a_edge19_Node000017_Node000015"><a xlink:title=" ">
<path fill="none" stroke="#63b8ff" d="M366.58,-166.54C422.91,-153.54 522.82,-130.48 584.01,-116.36"/>
<polygon fill="#63b8ff" stroke="#63b8ff" points="584.63,-119.58 593.59,-113.92 583.06,-112.76 584.63,-119.58"/>
</a>
</g>
</g>
<!-- Node19 -->
<g id="Node000019" class="node">
<title>Node19</title>
<g id="a_Node000019"><a xlink:href="a01913.html#a1cfa2c90268c6e53ce376beb7cce153c" target="_top" xlink:title=" ">
<polygon fill="white" stroke="#666666" points="688.62,-250.5 586.38,-250.5 586.38,-232 688.62,-232 688.62,-250.5"/>
<text text-anchor="middle" x="637.5" y="-237" font-family="Helvetica,sans-Serif" font-size="10.00">arax_pipe_size_dec</text>
</a>
</g>
</g>
<!-- Node18&#45;&gt;Node19 -->
<g id="edge21_Node000018_Node000019" class="edge">
<title>Node18&#45;&gt;Node19</title>
<g id="a_edge21_Node000018_Node000019"><a xlink:title=" ">
<path fill="none" stroke="#63b8ff" d="M376.02,-248.76C430.65,-247.19 516.93,-244.7 575.06,-243.02"/>
<polygon fill="#63b8ff" stroke="#63b8ff" points="575.04,-246.5 584.94,-242.71 574.84,-239.5 575.04,-246.5"/>
</a>
</g>
</g>
<!-- Node23 -->
<g id="Node000023" class="node">
<title>Node23</title>
<g id="a_Node000023"><a xlink:href="a02343.html#ac9828b5c2758940f6d3c7d4335228de5" target="_top" xlink:title=" ">
<polygon fill="white" stroke="#666666" points="527.88,-333.5 428.62,-333.5 428.62,-315 527.88,-315 527.88,-333.5"/>
<text text-anchor="middle" x="478.25" y="-320" font-family="Helvetica,sans-Serif" font-size="10.00">arch_alloc_allocate</text>
</a>
</g>
</g>
<!-- Node18&#45;&gt;Node23 -->
<g id="edge29_Node000018_Node000023" class="edge">
<title>Node18&#45;&gt;Node23</title>
<g id="a_edge29_Node000018_Node000023"><a xlink:title=" ">
<path fill="none" stroke="#63b8ff" d="M338.1,-259.94C355.4,-271.91 386.52,-292.27 415.5,-305.25 420.18,-307.35 425.16,-309.3 430.18,-311.09"/>
<polygon fill="#63b8ff" stroke="#63b8ff" points="428.87,-314.68 439.46,-314.55 431.1,-308.05 428.87,-314.68"/>
</a>
</g>
</g>
<!-- Node24 -->
<g id="Node000024" class="node">
<title>Node24</title>
<g id="a_Node000024"><a xlink:href="a01946.html#ae06a9e78e6a4f6c9c8afcf0f4862ce29" target="_top" xlink:title=" ">
<polygon fill="white" stroke="#666666" points="514.75,-296.5 441.75,-296.5 441.75,-278 514.75,-278 514.75,-296.5"/>
<text text-anchor="middle" x="478.25" y="-283" font-family="Helvetica,sans-Serif" font-size="10.00">utils_list_add</text>
</a>
</g>
</g>
<!-- Node18&#45;&gt;Node24 -->
<g id="edge30_Node000018_Node000024" class="edge">
<title>Node18&#45;&gt;Node24</title>
<g id="a_edge30_Node000018_Node000024"><a xlink:title=" ">
<path fill="none" stroke="#63b8ff" d="M364.63,-259.97C384.88,-264.88 409.55,-270.85 430.64,-275.96"/>
<polygon fill="#63b8ff" stroke="#63b8ff" points="429.75,-279.59 440.3,-278.54 431.4,-272.78 429.75,-279.59"/>
</a>
</g>
</g>
<!-- Node26 -->
<g id="Node000026" class="node">
<title>Node26</title>
<g id="a_Node000026"><a xlink:href="a01946.html#a63f2791c9b5c8e2fa15967cfafb7ccbb" target="_top" xlink:title=" ">
<polygon fill="white" stroke="#666666" points="526.38,-222.5 430.12,-222.5 430.12,-204 526.38,-204 526.38,-222.5"/>
<text text-anchor="middle" x="478.25" y="-209" font-family="Helvetica,sans-Serif" font-size="10.00">utils_list_node_init</text>
</a>
</g>
</g>
<!-- Node18&#45;&gt;Node26 -->
<g id="edge32_Node000018_Node000026" class="edge">
<title>Node18&#45;&gt;Node26</title>
<g id="a_edge32_Node000018_Node000026"><a xlink:title=" ">
<path fill="none" stroke="#63b8ff" d="M364.63,-240.53C383.59,-235.94 406.42,-230.41 426.56,-225.53"/>
<polygon fill="#63b8ff" stroke="#63b8ff" points="427.22,-228.73 436.12,-222.97 425.58,-221.92 427.22,-228.73"/>
</a>
</g>
</g>
<!-- Node20 -->
<g id="Node000020" class="node">
<title>Node20</title>
<g id="a_Node000020"><a xlink:href="a01925.html#a8413a3584787f9b629e54b2ef9439f06" target="_top" xlink:title=" ">
<polygon fill="white" stroke="#666666" points="997.75,-208.5 883.5,-208.5 883.5,-190 997.75,-190 997.75,-208.5"/>
<text text-anchor="middle" x="940.62" y="-195" font-family="Helvetica,sans-Serif" font-size="10.00">arax_throttle_size_dec</text>
</a>
</g>
</g>
<!-- Node19&#45;&gt;Node20 -->
<g id="edge22_Node000019_Node000020" class="edge">
<title>Node19&#45;&gt;Node20</title>
<g id="a_edge22_Node000019_Node000020"><a xlink:title=" ">
<path fill="none" stroke="#63b8ff" d="M688.9,-234.22C739.21,-227.2 816.82,-216.38 872.36,-208.63"/>
<polygon fill="#63b8ff" stroke="#63b8ff" points="872.74,-211.97 882.16,-207.13 871.77,-205.04 872.74,-211.97"/>
</a>
</g>
</g>
<!-- Node20&#45;&gt;Node8 -->
<g id="edge23_Node000020_Node000008" class="edge">
<title>Node20&#45;&gt;Node8</title>
<g id="a_edge23_Node000020_Node000008"><a xlink:title=" ">
<path fill="none" stroke="#63b8ff" d="M998.23,-199.25C1007.83,-199.25 1017.87,-199.25 1027.66,-199.25"/>
<polygon fill="#63b8ff" stroke="#63b8ff" points="1027.57,-202.75 1037.57,-199.25 1027.57,-195.75 1027.57,-202.75"/>
</a>
</g>
</g>
<!-- Node20&#45;&gt;Node12 -->
<g id="edge24_Node000020_Node000012" class="edge">
<title>Node20&#45;&gt;Node12</title>
<g id="a_edge24_Node000020_Node000012"><a xlink:title=" ">
<path fill="none" stroke="#63b8ff" d="M981.27,-189.53C999.99,-184.94 1022.54,-179.41 1042.43,-174.53"/>
<polygon fill="#63b8ff" stroke="#63b8ff" points="1042.98,-177.75 1051.86,-171.97 1041.32,-170.95 1042.98,-177.75"/>
</a>
</g>
</g>
<!-- Node21 -->
<g id="Node000021" class="node">
<title>Node21</title>
<g id="a_Node000021"><a xlink:href="a02352.html#a1bfeaeb9b81855e640d7a67cc9d92b17" target="_top" xlink:title=" ">
<polygon fill="white" stroke="#666666" points="1147.62,-245.5 1039.38,-245.5 1039.38,-227 1147.62,-227 1147.62,-245.5"/>
<text text-anchor="middle" x="1093.5" y="-232" font-family="Helvetica,sans-Serif" font-size="10.00">async_condition_wait</text>
</a>
</g>
</g>
<!-- Node20&#45;&gt;Node21 -->
<g id="edge25_Node000020_Node000021" class="edge">
<title>Node20&#45;&gt;Node21</title>
<g id="a_edge25_Node000020_Node000021"><a xlink:title=" ">
<path fill="none" stroke="#63b8ff" d="M981.27,-208.97C999.99,-213.56 1022.54,-219.09 1042.43,-223.97"/>
<polygon fill="#63b8ff" stroke="#63b8ff" points="1041.32,-227.55 1051.86,-226.53 1042.98,-220.75 1041.32,-227.55"/>
</a>
</g>
</g>
<!-- Node21&#45;&gt;Node9 -->
<g id="edge27_Node000021_Node000009" class="edge">
<title>Node21&#45;&gt;Node9</title>
<g id="a_edge27_Node000021_Node000009"><a xlink:title=" ">
<path fill="none" stroke="#63b8ff" d="M1137.39,-226.53C1157.84,-221.89 1182.51,-216.3 1204.17,-211.39"/>
<polygon fill="#63b8ff" stroke="#63b8ff" points="1204.88,-214.59 1213.86,-208.97 1203.34,-207.77 1204.88,-214.59"/>
</a>
</g>
</g>
<!-- Node21&#45;&gt;Node13 -->
<g id="edge26_Node000021_Node000013" class="edge">
<title>Node21&#45;&gt;Node13</title>
<g id="a_edge26_Node000021_Node000013"><a xlink:title=" ">
<path fill="none" stroke="#63b8ff" d="M1133.27,-226.6C1140.18,-224.09 1147.12,-221 1153.25,-217.25 1172.55,-205.44 1169.7,-192.65 1189.25,-181.25 1192.7,-179.24 1196.38,-177.43 1200.17,-175.8"/>
<polygon fill="#63b8ff" stroke="#63b8ff" points="1201.28,-178.75 1209.38,-171.93 1198.79,-172.2 1201.28,-178.75"/>
</a>
</g>
</g>
<!-- Node22 -->
<g id="Node000022" class="node">
<title>Node22</title>
<g id="a_Node000022"><a xlink:href="a02346.html#a7ab7c7fe9cb93434dde72a4e464a7e69" target="_top" xlink:title=" ">
<polygon fill="white" stroke="#666666" points="1316.62,-245.5 1200.88,-245.5 1200.88,-227 1316.62,-227 1316.62,-245.5"/>
<text text-anchor="middle" x="1258.75" y="-232" font-family="Helvetica,sans-Serif" font-size="10.00">async_semaphore_dec</text>
</a>
</g>
</g>
<!-- Node21&#45;&gt;Node22 -->
<g id="edge28_Node000021_Node000022" class="edge">
<title>Node21&#45;&gt;Node22</title>
<g id="a_edge28_Node000021_Node000022"><a xlink:title=" ">
<path fill="none" stroke="#63b8ff" d="M1147.95,-236.25C1161.23,-236.25 1175.65,-236.25 1189.53,-236.25"/>
<polygon fill="#63b8ff" stroke="#63b8ff" points="1189.52,-239.75 1199.52,-236.25 1189.52,-232.75 1189.52,-239.75"/>
</a>
</g>
</g>
<!-- Node25 -->
<g id="Node000025" class="node">
<title>Node25</title>
<g id="a_Node000025"><a xlink:href="a01946.html#a5c575f52a42e0e0d2fb41bda2d1268ce" target="_top" xlink:title=" ">
<polygon fill="white" stroke="#666666" points="687.12,-296.5 587.88,-296.5 587.88,-278 687.12,-278 687.12,-296.5"/>
<text text-anchor="middle" x="637.5" y="-283" font-family="Helvetica,sans-Serif" font-size="10.00">utils_list_node_add</text>
</a>
</g>
</g>
<!-- Node24&#45;&gt;Node25 -->
<g id="edge31_Node000024_Node000025" class="edge">
<title>Node24&#45;&gt;Node25</title>
<g id="a_edge31_Node000024_Node000025"><a xlink:title=" ">
<path fill="none" stroke="#63b8ff" d="M514.93,-287.25C533.14,-287.25 555.77,-287.25 576.56,-287.25"/>
<polygon fill="#63b8ff" stroke="#63b8ff" points="576.55,-290.75 586.55,-287.25 576.55,-283.75 576.55,-290.75"/>
</a>
</g>
</g>
<!-- Node27&#45;&gt;Node26 -->
<g id="edge34_Node000027_Node000026" class="edge">
<title>Node27&#45;&gt;Node26</title>
<g id="a_edge34_Node000027_Node000026"><a xlink:title=" ">
<path fill="none" stroke="#63b8ff" d="M379.65,-213.25C392.46,-213.25 406.15,-213.25 419.09,-213.25"/>
<polygon fill="#63b8ff" stroke="#63b8ff" points="418.76,-216.75 428.76,-213.25 418.76,-209.75 418.76,-216.75"/>
</a>
</g>
</g>
<!-- Node29&#45;&gt;Node15 -->
<g id="edge37_Node000029_Node000015" class="edge">
<title>Node29&#45;&gt;Node15</title>
<g id="a_edge37_Node000029_Node000015"><a xlink:title=" ">
<path fill="none" stroke="#63b8ff" d="M517.32,-73.93C538.5,-79.32 565.1,-86.09 587.79,-91.86"/>
<polygon fill="#63b8ff" stroke="#63b8ff" points="586.69,-95.44 597.24,-94.52 588.41,-88.66 586.69,-95.44"/>
</a>
</g>
</g>
<!-- Node30 -->
<g id="Node000030" class="node">
<title>Node30</title>
<g id="a_Node000030"><a xlink:href="a01928.html#a8b82433bc8c7d7f03683ac521a3679fa" target="_top" xlink:title=" ">
<polygon fill="white" stroke="#666666" points="847.5,-97.5 734,-97.5 734,-79 847.5,-79 847.5,-97.5"/>
<text text-anchor="middle" x="790.75" y="-84" font-family="Helvetica,sans-Serif" font-size="10.00">arax_vaccel_add_task</text>
</a>
</g>
</g>
<!-- Node29&#45;&gt;Node30 -->
<g id="edge38_Node000029_Node000030" class="edge">
<title>Node29&#45;&gt;Node30</title>
<g id="a_edge38_Node000029_Node000030"><a xlink:title=" ">
<path fill="none" stroke="#63b8ff" d="M525.73,-67.84C578.05,-71.89 663.49,-78.49 722.95,-83.09"/>
<polygon fill="#63b8ff" stroke="#63b8ff" points="722.5,-86.64 732.74,-83.92 723.04,-79.66 722.5,-86.64"/>
</a>
</g>
</g>
<!-- Node31 -->
<g id="Node000031" class="node">
<title>Node31</title>
<g id="a_Node000031"><a xlink:href="a01904.html#ab6afd8cc035237c811ce6a1b7727acc3" target="_top" xlink:title=" ">
<polygon fill="white" stroke="#666666" points="995.12,-134.5 886.12,-134.5 886.12,-116 995.12,-116 995.12,-134.5"/>
<text text-anchor="middle" x="940.62" y="-121" font-family="Helvetica,sans-Serif" font-size="10.00">arax_accel_add_task</text>
</a>
</g>
</g>
<!-- Node30&#45;&gt;Node31 -->
<g id="edge39_Node000030_Node000031" class="edge">
<title>Node30&#45;&gt;Node31</title>
<g id="a_edge39_Node000030_Node000031"><a xlink:title=" ">
<path fill="none" stroke="#63b8ff" d="M830.6,-97.97C848.87,-102.54 870.86,-108.04 890.28,-112.9"/>
<polygon fill="#63b8ff" stroke="#63b8ff" points="889.23,-116.5 899.78,-115.53 890.92,-109.71 889.23,-116.5"/>
</a>
</g>
</g>
<!-- Node32 -->
<g id="Node000032" class="node">
<title>Node32</title>
<g id="a_Node000032"><a xlink:href="a01949.html#a9fae55b169121c4851bb7c0adf4eac47" target="_top" xlink:title=" ">
<polygon fill="white" stroke="#666666" points="986.5,-97.5 894.75,-97.5 894.75,-79 986.5,-79 986.5,-97.5"/>
<text text-anchor="middle" x="940.62" y="-84" font-family="Helvetica,sans-Serif" font-size="10.00">utils_queue_push</text>
</a>
</g>
</g>
<!-- Node30&#45;&gt;Node32 -->
<g id="edge43_Node000030_Node000032" class="edge">
<title>Node30&#45;&gt;Node32</title>
<g id="a_edge43_Node000030_Node000032"><a xlink:title=" ">
<path fill="none" stroke="#63b8ff" d="M847.66,-88.25C859.55,-88.25 872.11,-88.25 884,-88.25"/>
<polygon fill="#63b8ff" stroke="#63b8ff" points="883.69,-91.75 893.69,-88.25 883.69,-84.75 883.69,-91.75"/>
</a>
</g>
</g>
<!-- Node31&#45;&gt;Node8 -->
<g id="edge40_Node000031_Node000008" class="edge">
<title>Node31&#45;&gt;Node8</title>
<g id="a_edge40_Node000031_Node000008"><a xlink:title=" ">
<path fill="none" stroke="#63b8ff" d="M978.36,-134.97C985.06,-137.49 991.81,-140.56 997.75,-144.25 1016.97,-156.19 1014.45,-168.44 1033.75,-180.25 1036.91,-182.18 1040.29,-183.94 1043.76,-185.53"/>
<polygon fill="#63b8ff" stroke="#63b8ff" points="1042.15,-189.07 1052.73,-189.6 1044.8,-182.58 1042.15,-189.07"/>
</a>
</g>
</g>
<!-- Node31&#45;&gt;Node10 -->
<g id="edge41_Node000031_Node000010" class="edge">
<title>Node31&#45;&gt;Node10</title>
<g id="a_edge41_Node000031_Node000010"><a xlink:title=" ">
<path fill="none" stroke="#63b8ff" d="M995.24,-125.25C1004.88,-125.25 1015.05,-125.25 1025.02,-125.25"/>
<polygon fill="#63b8ff" stroke="#63b8ff" points="1024.73,-128.75 1034.73,-125.25 1024.73,-121.75 1024.73,-128.75"/>
</a>
</g>
</g>
<!-- Node31&#45;&gt;Node12 -->
<g id="edge42_Node000031_Node000012" class="edge">
<title>Node31&#45;&gt;Node12</title>
<g id="a_edge42_Node000031_Node000012"><a xlink:title=" ">
<path fill="none" stroke="#63b8ff" d="M981.27,-134.97C999.99,-139.56 1022.54,-145.09 1042.43,-149.97"/>
<polygon fill="#63b8ff" stroke="#63b8ff" points="1041.32,-153.55 1051.86,-152.53 1042.98,-146.75 1041.32,-153.55"/>
</a>
</g>
</g>
</g>
</svg>
