<?xml version="1.0" encoding="UTF-8" standalone="no"?>
<!DOCTYPE svg PUBLIC "-//W3C//DTD SVG 1.1//EN"
 "http://www.w3.org/Graphics/SVG/1.1/DTD/svg11.dtd">
<!-- Generated by graphviz version 8.0.5 (0)
 -->
<!-- Title: arax_proc_put Pages: 1 -->
<svg width="339pt" height="64pt"
 viewBox="0.00 0.00 338.75 63.50" xmlns="http://www.w3.org/2000/svg" xmlns:xlink="http://www.w3.org/1999/xlink">
<g id="graph0" class="graph" transform="scale(1 1) rotate(0) translate(4 59.5)">
<title>arax_proc_put</title>
<!-- Node1 -->
<g id="Node000001" class="node">
<title>Node1</title>
<g id="a_Node000001"><a xlink:title=" ">
<polygon fill="#999999" stroke="#666666" points="330.75,-36.5 252.5,-36.5 252.5,-18 330.75,-18 330.75,-36.5"/>
<text text-anchor="middle" x="291.62" y="-23" font-family="Helvetica,sans-Serif" font-size="10.00">arax_proc_put</text>
</a>
</g>
</g>
<!-- Node2 -->
<g id="Node000002" class="node">
<title>Node2</title>
<g id="a_Node000002"><a xlink:href="a01931.html#a696bc4319d0f6c6baa7d797a8df6b56f" target="_top" xlink:title=" ">
<polygon fill="white" stroke="#666666" points="216.5,-55.5 138.25,-55.5 138.25,-37 216.5,-37 216.5,-55.5"/>
<text text-anchor="middle" x="177.38" y="-42" font-family="Helvetica,sans-Serif" font-size="10.00">arax_data_get</text>
</a>
</g>
</g>
<!-- Node1&#45;&gt;Node2 -->
<g id="edge1_Node000001_Node000002" class="edge">
<title>Node1&#45;&gt;Node2</title>
<g id="a_edge1_Node000001_Node000002"><a xlink:title=" ">
<path fill="none" stroke="#63b8ff" d="M241.61,-35.55C233.34,-36.95 224.86,-38.38 216.9,-39.73"/>
<polygon fill="#63b8ff" stroke="#63b8ff" points="242.03,-38.86 251.31,-33.74 240.86,-31.95 242.03,-38.86"/>
</a>
</g>
</g>
<!-- Node4 -->
<g id="Node000004" class="node">
<title>Node4</title>
<g id="a_Node000004"><a xlink:href="a01931.html#a8995f71dba475975efc37756783cfce9" target="_top" xlink:title=" ">
<polygon fill="white" stroke="#666666" points="216.5,-18.5 138.25,-18.5 138.25,0 216.5,0 216.5,-18.5"/>
<text text-anchor="middle" x="177.38" y="-5" font-family="Helvetica,sans-Serif" font-size="10.00">arax_data_set</text>
</a>
</g>
</g>
<!-- Node1&#45;&gt;Node4 -->
<g id="edge3_Node000001_Node000004" class="edge">
<title>Node1&#45;&gt;Node4</title>
<g id="a_edge3_Node000001_Node000004"><a xlink:title=" ">
<path fill="none" stroke="#63b8ff" d="M241.61,-19.39C233.34,-18.06 224.86,-16.7 216.9,-15.43"/>
<polygon fill="#63b8ff" stroke="#63b8ff" points="240.88,-22.98 251.31,-21.11 241.99,-16.07 240.88,-22.98"/>
</a>
</g>
</g>
<!-- Node3 -->
<g id="Node000003" class="node">
<title>Node3</title>
<g id="a_Node000003"><a xlink:href="a01931.html#a7d8356bd5c8b6a8d7dffc6ba94cc22e5" target="_top" xlink:title=" ">
<polygon fill="white" stroke="#666666" points="102.25,-36.5 0,-36.5 0,-18 102.25,-18 102.25,-36.5"/>
<text text-anchor="middle" x="51.12" y="-23" font-family="Helvetica,sans-Serif" font-size="10.00">arax_data_memcpy</text>
</a>
</g>
</g>
<!-- Node2&#45;&gt;Node3 -->
<g id="edge2_Node000002_Node000003" class="edge">
<title>Node2&#45;&gt;Node3</title>
<g id="a_edge2_Node000002_Node000003"><a xlink:title=" ">
<path fill="none" stroke="#63b8ff" d="M127.22,-38.73C119.06,-37.49 110.6,-36.19 102.42,-34.94"/>
<polygon fill="#63b8ff" stroke="#63b8ff" points="126.67,-42.34 137.08,-40.39 127.73,-35.42 126.67,-42.34"/>
</a>
</g>
</g>
<!-- Node4&#45;&gt;Node3 -->
<g id="edge4_Node000004_Node000003" class="edge">
<title>Node4&#45;&gt;Node3</title>
<g id="a_edge4_Node000004_Node000003"><a xlink:title=" ">
<path fill="none" stroke="#63b8ff" d="M127.22,-16.37C119.06,-17.55 110.6,-18.78 102.42,-19.96"/>
<polygon fill="#63b8ff" stroke="#63b8ff" points="127.69,-19.7 137.08,-14.8 126.68,-12.77 127.69,-19.7"/>
</a>
</g>
</g>
</g>
</svg>
