<?xml version="1.0" encoding="UTF-8" standalone="no"?>
<!DOCTYPE svg PUBLIC "-//W3C//DTD SVG 1.1//EN"
 "http://www.w3.org/Graphics/SVG/1.1/DTD/svg11.dtd">
<!-- Generated by graphviz version 11.0.0 (0)
 -->
<!-- Title: arax_accel_acquire_phys Pages: 1 -->
<svg width="1049pt" height="414pt"
 viewBox="0.00 0.00 1048.50 413.50" xmlns="http://www.w3.org/2000/svg" xmlns:xlink="http://www.w3.org/1999/xlink">
<g id="graph0" class="graph" transform="scale(1 1) rotate(0) translate(4 409.5)">
<title>arax_accel_acquire_phys</title>
<!-- Node1 -->
<g id="Node000001" class="node">
<title>Node1</title>
<g id="a_Node000001"><a xlink:title=" ">
<polygon fill="#999999" stroke="#666666" points="126.25,-92.5 0,-92.5 0,-74 126.25,-74 126.25,-92.5"/>
<text text-anchor="middle" x="63.12" y="-79" font-family="Helvetica,sans-Serif" font-size="10.00">arax_accel_acquire_phys</text>
</a>
</g>
</g>
<!-- Node2 -->
<g id="Node000002" class="node">
<title>Node2</title>
<g id="a_Node000002"><a xlink:href="a01946.html#a83ddb422946cf774c687c1ab63dcda15" target="_top" xlink:title=" ">
<polygon fill="white" stroke="#666666" points="248.75,-92.5 162.25,-92.5 162.25,-74 248.75,-74 248.75,-92.5"/>
<text text-anchor="middle" x="205.5" y="-79" font-family="Helvetica,sans-Serif" font-size="10.00">arax_vaccel_init</text>
</a>
</g>
</g>
<!-- Node1&#45;&gt;Node2 -->
<g id="edge1_Node000001_Node000002" class="edge">
<title>Node1&#45;&gt;Node2</title>
<g id="a_edge1_Node000001_Node000002"><a xlink:title=" ">
<path fill="none" stroke="#63b8ff" d="M126.51,-83.25C134.58,-83.25 142.79,-83.25 150.7,-83.25"/>
<polygon fill="#63b8ff" stroke="#63b8ff" points="150.52,-86.75 160.52,-83.25 150.52,-79.75 150.52,-86.75"/>
</a>
</g>
</g>
<!-- Node3 -->
<g id="Node000003" class="node">
<title>Node3</title>
<g id="a_Node000003"><a xlink:href="a01919.html#af0b933c02a24d69c1efa40179f60288f" target="_top" xlink:title=" ">
<polygon fill="white" stroke="#666666" points="543.25,-264.5 425.25,-264.5 425.25,-246 543.25,-246 543.25,-264.5"/>
<text text-anchor="middle" x="484.25" y="-251" font-family="Helvetica,sans-Serif" font-size="10.00">arax_accel_add_vaccel</text>
</a>
</g>
</g>
<!-- Node2&#45;&gt;Node3 -->
<g id="edge2_Node000002_Node000003" class="edge">
<title>Node2&#45;&gt;Node3</title>
<g id="a_edge2_Node000002_Node000003"><a xlink:title=" ">
<path fill="none" stroke="#63b8ff" d="M221.13,-92.97C236.78,-103.33 262.39,-120.15 284.75,-134.25 346.07,-172.91 419.06,-216.89 457.16,-239.69"/>
<polygon fill="#63b8ff" stroke="#63b8ff" points="455.26,-242.63 465.64,-244.76 458.85,-236.62 455.26,-242.63"/>
</a>
</g>
</g>
<!-- Node19 -->
<g id="Node000019" class="node">
<title>Node19</title>
<g id="a_Node000019"><a xlink:href="a01928.html#a402bbd6fa197c2c48d527325e5e2cf5b" target="_top" xlink:title=" ">
<polygon fill="white" stroke="#666666" points="389.25,-92.5 284.75,-92.5 284.75,-74 389.25,-74 389.25,-92.5"/>
<text text-anchor="middle" x="337" y="-79" font-family="Helvetica,sans-Serif" font-size="10.00">arax_object_register</text>
</a>
</g>
</g>
<!-- Node2&#45;&gt;Node19 -->
<g id="edge20_Node000002_Node000019" class="edge">
<title>Node2&#45;&gt;Node19</title>
<g id="a_edge20_Node000002_Node000019"><a xlink:title=" ">
<path fill="none" stroke="#63b8ff" d="M248.9,-83.25C256.62,-83.25 264.83,-83.25 273,-83.25"/>
<polygon fill="#63b8ff" stroke="#63b8ff" points="272.95,-86.75 282.95,-83.25 272.95,-79.75 272.95,-86.75"/>
</a>
</g>
</g>
<!-- Node25 -->
<g id="Node000025" class="node">
<title>Node25</title>
<g id="a_Node000025"><a xlink:href="a01958.html#a63f2791c9b5c8e2fa15967cfafb7ccbb" target="_top" xlink:title=" ">
<polygon fill="white" stroke="#666666" points="532.38,-18.5 436.12,-18.5 436.12,0 532.38,0 532.38,-18.5"/>
<text text-anchor="middle" x="484.25" y="-5" font-family="Helvetica,sans-Serif" font-size="10.00">utils_list_node_init</text>
</a>
</g>
</g>
<!-- Node2&#45;&gt;Node25 -->
<g id="edge37_Node000002_Node000025" class="edge">
<title>Node2&#45;&gt;Node25</title>
<g id="a_edge37_Node000002_Node000025"><a xlink:title=" ">
<path fill="none" stroke="#63b8ff" d="M242.68,-73.58C292.3,-60.31 381.53,-36.45 436.26,-21.81"/>
<polygon fill="#63b8ff" stroke="#63b8ff" points="436.84,-25.28 445.6,-19.32 435.03,-18.52 436.84,-25.28"/>
</a>
</g>
</g>
<!-- Node26 -->
<g id="Node000026" class="node">
<title>Node26</title>
<g id="a_Node000026"><a xlink:href="a01931.html#aa4461ab1d225a0f76f08d2f37a4a7e0e" target="_top" xlink:title=" ">
<polygon fill="white" stroke="#666666" points="541.75,-176.75 426.75,-176.75 426.75,-147.75 541.75,-147.75 541.75,-176.75"/>
<text text-anchor="start" x="434.75" y="-163.25" font-family="Helvetica,sans-Serif" font-size="10.00">arax_pipe_add_orphan</text>
<text text-anchor="middle" x="484.25" y="-152.75" font-family="Helvetica,sans-Serif" font-size="10.00">_vaccel</text>
</a>
</g>
</g>
<!-- Node2&#45;&gt;Node26 -->
<g id="edge32_Node000002_Node000026" class="edge">
<title>Node2&#45;&gt;Node26</title>
<g id="a_edge32_Node000002_Node000026"><a xlink:title=" ">
<path fill="none" stroke="#63b8ff" d="M240.43,-92.94C285.02,-105.66 364.19,-128.26 419.99,-144.19"/>
<polygon fill="#63b8ff" stroke="#63b8ff" points="418.79,-147.49 429.36,-146.87 420.71,-140.76 418.79,-147.49"/>
</a>
</g>
</g>
<!-- Node27 -->
<g id="Node000027" class="node">
<title>Node27</title>
<g id="a_Node000027"><a xlink:href="a01961.html#a49c353188156b1df4463a5fc7f7bc25e" target="_top" xlink:title=" ">
<polygon fill="white" stroke="#666666" points="378.75,-18.5 295.25,-18.5 295.25,0 378.75,0 378.75,-18.5"/>
<text text-anchor="middle" x="337" y="-5" font-family="Helvetica,sans-Serif" font-size="10.00">utils_queue_init</text>
</a>
</g>
</g>
<!-- Node2&#45;&gt;Node27 -->
<g id="edge38_Node000002_Node000027" class="edge">
<title>Node2&#45;&gt;Node27</title>
<g id="a_edge38_Node000002_Node000027"><a xlink:title=" ">
<path fill="none" stroke="#63b8ff" d="M219.95,-73.55C235.24,-62.76 261.12,-45.15 284.75,-32.25 290.26,-29.24 296.24,-26.29 302.11,-23.56"/>
<polygon fill="#63b8ff" stroke="#63b8ff" points="303.35,-26.84 311.03,-19.54 300.48,-20.46 303.35,-26.84"/>
</a>
</g>
</g>
<!-- Node4 -->
<g id="Node000004" class="node">
<title>Node4</title>
<g id="a_Node000004"><a xlink:href="a01919.html#aed864d2fab73a39a8c98356f7bca1304" target="_top" xlink:title=" ">
<polygon fill="white" stroke="#666666" points="705.12,-405.5 584.12,-405.5 584.12,-387 705.12,-387 705.12,-405.5"/>
<text text-anchor="middle" x="644.62" y="-392" font-family="Helvetica,sans-Serif" font-size="10.00">arax_accel_inc_revision</text>
</a>
</g>
</g>
<!-- Node3&#45;&gt;Node4 -->
<g id="edge3_Node000003_Node000004" class="edge">
<title>Node3&#45;&gt;Node4</title>
<g id="a_edge3_Node000003_Node000004"><a xlink:title=" ">
<path fill="none" stroke="#63b8ff" d="M489.91,-264.83C501.6,-287.83 534.47,-346.57 579.25,-377.25 581.78,-378.98 584.46,-380.56 587.25,-381.99"/>
<polygon fill="#63b8ff" stroke="#63b8ff" points="585.73,-385.14 596.29,-385.98 588.55,-378.74 585.73,-385.14"/>
</a>
</g>
</g>
<!-- Node5 -->
<g id="Node000005" class="node">
<title>Node5</title>
<g id="a_Node000005"><a xlink:href="a01931.html#aa5172b735dddd3f77fbb0265bbcdfc20" target="_top" xlink:title=" ">
<polygon fill="white" stroke="#666666" points="710,-331.75 579.25,-331.75 579.25,-302.75 710,-302.75 710,-331.75"/>
<text text-anchor="start" x="587.25" y="-318.25" font-family="Helvetica,sans-Serif" font-size="10.00">arax_pipe_remove_orphan</text>
<text text-anchor="middle" x="644.62" y="-307.75" font-family="Helvetica,sans-Serif" font-size="10.00">_vaccel</text>
</a>
</g>
</g>
<!-- Node3&#45;&gt;Node5 -->
<g id="edge4_Node000003_Node000005" class="edge">
<title>Node3&#45;&gt;Node5</title>
<g id="a_edge4_Node000003_Node000005"><a xlink:title=" ">
<path fill="none" stroke="#63b8ff" d="M510,-264.94C532.68,-273.82 566.9,-287.22 595.04,-298.23"/>
<polygon fill="#63b8ff" stroke="#63b8ff" points="593.49,-301.38 604.08,-301.77 596.04,-294.86 593.49,-301.38"/>
</a>
</g>
</g>
<!-- Node6 -->
<g id="Node000006" class="node">
<title>Node6</title>
<g id="a_Node000006"><a xlink:href="a02367.html#aed6af4d83e934e3e654ead541b15f2d9" target="_top" xlink:title=" ">
<polygon fill="white" stroke="#666666" points="860.25,-171.5 751.25,-171.5 751.25,-153 860.25,-153 860.25,-171.5"/>
<text text-anchor="middle" x="805.75" y="-158" font-family="Helvetica,sans-Serif" font-size="10.00">async_condition_lock</text>
</a>
</g>
</g>
<!-- Node3&#45;&gt;Node6 -->
<g id="edge14_Node000003_Node000006" class="edge">
<title>Node3&#45;&gt;Node6</title>
<g id="a_edge14_Node000003_Node000006"><a xlink:title=" ">
<path fill="none" stroke="#63b8ff" d="M529.85,-264.96C576.65,-272.97 651.42,-279.51 710,-255.25 730.91,-246.59 729.88,-235.13 746,-219.25 759.55,-205.9 775,-190.92 786.65,-179.67"/>
<polygon fill="#63b8ff" stroke="#63b8ff" points="788.87,-182.4 793.64,-172.94 784.01,-177.36 788.87,-182.4"/>
</a>
</g>
</g>
<!-- Node8 -->
<g id="Node000008" class="node">
<title>Node8</title>
<g id="a_Node000008"><a xlink:href="a02367.html#a3bbcb7c4c024e99d5c4ba52b61dfbbf7" target="_top" xlink:title=" ">
<polygon fill="white" stroke="#666666" points="865.5,-134.5 746,-134.5 746,-116 865.5,-116 865.5,-134.5"/>
<text text-anchor="middle" x="805.75" y="-121" font-family="Helvetica,sans-Serif" font-size="10.00">async_condition_unlock</text>
</a>
</g>
</g>
<!-- Node3&#45;&gt;Node8 -->
<g id="edge17_Node000003_Node000008" class="edge">
<title>Node3&#45;&gt;Node8</title>
<g id="a_edge17_Node000003_Node000008"><a xlink:title=" ">
<path fill="none" stroke="#63b8ff" d="M507.34,-245.55C561.32,-221.87 698.99,-161.82 746,-144.25 751.13,-142.33 756.55,-140.43 761.94,-138.6"/>
<polygon fill="#63b8ff" stroke="#63b8ff" points="763.03,-141.93 771.42,-135.46 760.83,-135.28 763.03,-141.93"/>
</a>
</g>
</g>
<!-- Node12 -->
<g id="Node000012" class="node">
<title>Node12</title>
<g id="a_Node000012"><a xlink:href="a01946.html#ab2fa3d6e6c761009b464cc0fbedc6a16" target="_top" xlink:title=" ">
<polygon fill="white" stroke="#666666" points="705.88,-368.5 583.38,-368.5 583.38,-350 705.88,-350 705.88,-368.5"/>
<text text-anchor="middle" x="644.62" y="-355" font-family="Helvetica,sans-Serif" font-size="10.00">arax_vaccel_queue_size</text>
</a>
</g>
</g>
<!-- Node3&#45;&gt;Node12 -->
<g id="edge11_Node000003_Node000012" class="edge">
<title>Node3&#45;&gt;Node12</title>
<g id="a_edge11_Node000003_Node000012"><a xlink:title=" ">
<path fill="none" stroke="#63b8ff" d="M492.98,-264.82C507.81,-282.57 542.12,-320.64 579.25,-341.25 582.06,-342.81 585.01,-344.24 588.04,-345.55"/>
<polygon fill="#63b8ff" stroke="#63b8ff" points="586.56,-348.74 597.15,-349.04 589.06,-342.2 586.56,-348.74"/>
</a>
</g>
</g>
<!-- Node15 -->
<g id="Node000015" class="node">
<title>Node15</title>
<g id="a_Node000015"><a xlink:href="a02367.html#a45a896fb606c2aa66a5a4c2af59ce494" target="_top" xlink:title=" ">
<polygon fill="white" stroke="#666666" points="702.12,-246.5 587.12,-246.5 587.12,-228 702.12,-228 702.12,-246.5"/>
<text text-anchor="middle" x="644.62" y="-233" font-family="Helvetica,sans-Serif" font-size="10.00">async_condition_notify</text>
</a>
</g>
</g>
<!-- Node3&#45;&gt;Node15 -->
<g id="edge15_Node000003_Node000015" class="edge">
<title>Node3&#45;&gt;Node15</title>
<g id="a_edge15_Node000003_Node000015"><a xlink:title=" ">
<path fill="none" stroke="#63b8ff" d="M543.32,-248.65C553.87,-247.45 564.96,-246.19 575.76,-244.96"/>
<polygon fill="#63b8ff" stroke="#63b8ff" points="575.83,-248.48 585.38,-243.87 575.04,-241.52 575.83,-248.48"/>
</a>
</g>
</g>
<!-- Node17 -->
<g id="Node000017" class="node">
<title>Node17</title>
<g id="a_Node000017"><a xlink:href="a01958.html#ae06a9e78e6a4f6c9c8afcf0f4862ce29" target="_top" xlink:title=" ">
<polygon fill="white" stroke="#666666" points="681.12,-59.5 608.12,-59.5 608.12,-41 681.12,-41 681.12,-59.5"/>
<text text-anchor="middle" x="644.62" y="-46" font-family="Helvetica,sans-Serif" font-size="10.00">utils_list_add</text>
</a>
</g>
</g>
<!-- Node3&#45;&gt;Node17 -->
<g id="edge18_Node000003_Node000017" class="edge">
<title>Node3&#45;&gt;Node17</title>
<g id="a_edge18_Node000003_Node000017"><a xlink:title=" ">
<path fill="none" stroke="#63b8ff" d="M495.28,-245.91C508.11,-233.45 530.23,-210.16 543.25,-186.25 569.27,-138.47 540.56,-107.5 579.25,-69.25 584.31,-64.25 590.61,-60.55 597.28,-57.83"/>
<polygon fill="#63b8ff" stroke="#63b8ff" points="598.12,-61.24 606.5,-54.76 595.91,-54.59 598.12,-61.24"/>
</a>
</g>
</g>
<!-- Node5&#45;&gt;Node6 -->
<g id="edge5_Node000005_Node000006" class="edge">
<title>Node5&#45;&gt;Node6</title>
<g id="a_edge5_Node000005_Node000006"><a xlink:title=" ">
<path fill="none" stroke="#63b8ff" d="M689.31,-302.39C696.77,-298.56 704.03,-293.89 710,-288.25 735.15,-264.51 725.32,-246.98 746,-219.25 757.1,-204.36 772.18,-189.82 784.28,-179.15"/>
<polygon fill="#63b8ff" stroke="#63b8ff" points="786.38,-181.96 791.69,-172.79 781.82,-176.65 786.38,-181.96"/>
</a>
</g>
</g>
<!-- Node5&#45;&gt;Node8 -->
<g id="edge7_Node000005_Node000008" class="edge">
<title>Node5&#45;&gt;Node8</title>
<g id="a_edge7_Node000005_Node000008"><a xlink:title=" ">
<path fill="none" stroke="#63b8ff" d="M665.6,-302.43C679.79,-290.96 698.32,-273.93 710,-255.25 737.5,-211.28 709.31,-180.91 746,-144.25 747.18,-143.07 748.44,-141.96 749.76,-140.91"/>
<polygon fill="#63b8ff" stroke="#63b8ff" points="751.31,-144.08 757.93,-135.8 747.6,-138.14 751.31,-144.08"/>
</a>
</g>
</g>
<!-- Node10 -->
<g id="Node000010" class="node">
<title>Node10</title>
<g id="a_Node000010"><a xlink:href="a01958.html#a0c85e5516222ab7e7fc354c614760ec5" target="_top" xlink:title=" ">
<polygon fill="white" stroke="#666666" points="840.75,-290.5 770.75,-290.5 770.75,-272 840.75,-272 840.75,-290.5"/>
<text text-anchor="middle" x="805.75" y="-277" font-family="Helvetica,sans-Serif" font-size="10.00">utils_list_del</text>
</a>
</g>
</g>
<!-- Node5&#45;&gt;Node10 -->
<g id="edge9_Node000005_Node000010" class="edge">
<title>Node5&#45;&gt;Node10</title>
<g id="a_edge9_Node000005_Node000010"><a xlink:title=" ">
<path fill="none" stroke="#63b8ff" d="M710.35,-302.61C726.8,-298.88 744.14,-294.96 759.4,-291.51"/>
<polygon fill="#63b8ff" stroke="#63b8ff" points="760.16,-294.93 769.14,-289.31 758.61,-288.1 760.16,-294.93"/>
</a>
</g>
</g>
<!-- Node11 -->
<g id="Node000011" class="node">
<title>Node11</title>
<g id="a_Node000011"><a xlink:href="a01958.html#ab0c44e095ebfd8721de878c42abcbbdc" target="_top" xlink:title=" ">
<polygon fill="white" stroke="#666666" points="859.88,-327.5 751.62,-327.5 751.62,-309 859.88,-309 859.88,-327.5"/>
<text text-anchor="middle" x="805.75" y="-314" font-family="Helvetica,sans-Serif" font-size="10.00">utils_list_node_linked</text>
</a>
</g>
</g>
<!-- Node5&#45;&gt;Node11 -->
<g id="edge10_Node000005_Node000011" class="edge">
<title>Node5&#45;&gt;Node11</title>
<g id="a_edge10_Node000005_Node000011"><a xlink:title=" ">
<path fill="none" stroke="#63b8ff" d="M710.35,-317.66C720.12,-317.72 730.2,-317.78 739.97,-317.84"/>
<polygon fill="#63b8ff" stroke="#63b8ff" points="739.73,-321.34 749.75,-317.9 739.77,-314.34 739.73,-321.34"/>
</a>
</g>
</g>
<!-- Node7 -->
<g id="Node000007" class="node">
<title>Node7</title>
<g id="a_Node000007"><a xlink:href="a02361.html#aebf9e72bb6cbd8b9e33489d46c25075d" target="_top" xlink:title=" ">
<polygon fill="white" stroke="#666666" points="1029.25,-171.5 912.75,-171.5 912.75,-153 1029.25,-153 1029.25,-171.5"/>
<text text-anchor="middle" x="971" y="-158" font-family="Helvetica,sans-Serif" font-size="10.00">async_completion_wait</text>
</a>
</g>
</g>
<!-- Node6&#45;&gt;Node7 -->
<g id="edge6_Node000006_Node000007" class="edge">
<title>Node6&#45;&gt;Node7</title>
<g id="a_edge6_Node000006_Node000007"><a xlink:title=" ">
<path fill="none" stroke="#63b8ff" d="M860.66,-162.25C873.64,-162.25 887.69,-162.25 901.26,-162.25"/>
<polygon fill="#63b8ff" stroke="#63b8ff" points="900.99,-165.75 910.99,-162.25 900.99,-158.75 900.99,-165.75"/>
</a>
</g>
</g>
<!-- Node9 -->
<g id="Node000009" class="node">
<title>Node9</title>
<g id="a_Node000009"><a xlink:href="a02361.html#ad1d30ecbf6bff6457b680aa940281072" target="_top" xlink:title=" ">
<polygon fill="white" stroke="#666666" points="1040.5,-134.5 901.5,-134.5 901.5,-116 1040.5,-116 1040.5,-134.5"/>
<text text-anchor="middle" x="971" y="-121" font-family="Helvetica,sans-Serif" font-size="10.00">async_completion_complete</text>
</a>
</g>
</g>
<!-- Node8&#45;&gt;Node9 -->
<g id="edge8_Node000008_Node000009" class="edge">
<title>Node8&#45;&gt;Node9</title>
<g id="a_edge8_Node000008_Node000009"><a xlink:title=" ">
<path fill="none" stroke="#63b8ff" d="M865.69,-125.25C873.51,-125.25 881.63,-125.25 889.74,-125.25"/>
<polygon fill="#63b8ff" stroke="#63b8ff" points="889.64,-128.75 899.64,-125.25 889.64,-121.75 889.64,-128.75"/>
</a>
</g>
</g>
<!-- Node13 -->
<g id="Node000013" class="node">
<title>Node13</title>
<g id="a_Node000013"><a xlink:href="a01946.html#afe1eb3edd264c847c36e9456b2598452" target="_top" xlink:title=" ">
<polygon fill="white" stroke="#666666" points="855.75,-366.5 755.75,-366.5 755.75,-348 855.75,-348 855.75,-366.5"/>
<text text-anchor="middle" x="805.75" y="-353" font-family="Helvetica,sans-Serif" font-size="10.00">arax_vaccel_queue</text>
</a>
</g>
</g>
<!-- Node12&#45;&gt;Node13 -->
<g id="edge12_Node000012_Node000013" class="edge">
<title>Node12&#45;&gt;Node13</title>
<g id="a_edge12_Node000012_Node000013"><a xlink:title=" ">
<path fill="none" stroke="#63b8ff" d="M706.24,-358.49C718.68,-358.33 731.77,-358.17 744.21,-358.01"/>
<polygon fill="#63b8ff" stroke="#63b8ff" points="743.94,-361.51 753.9,-357.89 743.85,-354.52 743.94,-361.51"/>
</a>
</g>
</g>
<!-- Node14 -->
<g id="Node000014" class="node">
<title>Node14</title>
<g id="a_Node000014"><a xlink:href="a01961.html#a5d84d59bded666fdcf1a8e949cb56a6a" target="_top" xlink:title=" ">
<polygon fill="white" stroke="#666666" points="864.75,-403.5 746.75,-403.5 746.75,-385 864.75,-385 864.75,-403.5"/>
<text text-anchor="middle" x="805.75" y="-390" font-family="Helvetica,sans-Serif" font-size="10.00">utils_queue_used_slots</text>
</a>
</g>
</g>
<!-- Node12&#45;&gt;Node14 -->
<g id="edge13_Node000012_Node000014" class="edge">
<title>Node12&#45;&gt;Node14</title>
<g id="a_edge13_Node000012_Node000014"><a xlink:title=" ">
<path fill="none" stroke="#63b8ff" d="M689.95,-369C708.4,-373.06 730.02,-377.81 749.49,-382.09"/>
<polygon fill="#63b8ff" stroke="#63b8ff" points="748.67,-385.5 759.18,-384.23 750.17,-378.66 748.67,-385.5"/>
</a>
</g>
</g>
<!-- Node16 -->
<g id="Node000016" class="node">
<title>Node16</title>
<g id="a_Node000016"><a xlink:href="a02361.html#a0fa370eee5160963e617d1daf1c07363" target="_top" xlink:title=" ">
<polygon fill="white" stroke="#666666" points="862.12,-246.5 749.38,-246.5 749.38,-228 862.12,-228 862.12,-246.5"/>
<text text-anchor="middle" x="805.75" y="-233" font-family="Helvetica,sans-Serif" font-size="10.00">async_semaphore_inc</text>
</a>
</g>
</g>
<!-- Node15&#45;&gt;Node16 -->
<g id="edge16_Node000015_Node000016" class="edge">
<title>Node15&#45;&gt;Node16</title>
<g id="a_edge16_Node000015_Node000016"><a xlink:title=" ">
<path fill="none" stroke="#63b8ff" d="M702.62,-237.25C713.93,-237.25 725.89,-237.25 737.5,-237.25"/>
<polygon fill="#63b8ff" stroke="#63b8ff" points="737.44,-240.75 747.44,-237.25 737.44,-233.75 737.44,-240.75"/>
</a>
</g>
</g>
<!-- Node18 -->
<g id="Node000018" class="node">
<title>Node18</title>
<g id="a_Node000018"><a xlink:href="a01958.html#a5c575f52a42e0e0d2fb41bda2d1268ce" target="_top" xlink:title=" ">
<polygon fill="white" stroke="#666666" points="855.38,-59.5 756.12,-59.5 756.12,-41 855.38,-41 855.38,-59.5"/>
<text text-anchor="middle" x="805.75" y="-46" font-family="Helvetica,sans-Serif" font-size="10.00">utils_list_node_add</text>
</a>
</g>
</g>
<!-- Node17&#45;&gt;Node18 -->
<g id="edge19_Node000017_Node000018" class="edge">
<title>Node17&#45;&gt;Node18</title>
<g id="a_edge19_Node000017_Node000018"><a xlink:title=" ">
<path fill="none" stroke="#63b8ff" d="M681.34,-50.25C699.98,-50.25 723.29,-50.25 744.62,-50.25"/>
<polygon fill="#63b8ff" stroke="#63b8ff" points="744.37,-53.75 754.37,-50.25 744.37,-46.75 744.37,-53.75"/>
</a>
</g>
</g>
<!-- Node19&#45;&gt;Node17 -->
<g id="edge30_Node000019_Node000017" class="edge">
<title>Node19&#45;&gt;Node17</title>
<g id="a_edge30_Node000019_Node000017"><a xlink:title=" ">
<path fill="none" stroke="#63b8ff" d="M379.08,-73.59C393.59,-70.49 410.08,-67.33 425.25,-65.25 484.01,-57.21 552.28,-53.4 596.63,-51.65"/>
<polygon fill="#63b8ff" stroke="#63b8ff" points="596.54,-55.15 606.41,-51.28 596.28,-48.16 596.54,-55.15"/>
</a>
</g>
</g>
<!-- Node20 -->
<g id="Node000020" class="node">
<title>Node20</title>
<g id="a_Node000020"><a xlink:href="a01931.html#a6cc54ee40009c61b5f6526f5edff004f" target="_top" xlink:title=" ">
<polygon fill="white" stroke="#666666" points="535.38,-129.5 433.12,-129.5 433.12,-111 535.38,-111 535.38,-129.5"/>
<text text-anchor="middle" x="484.25" y="-116" font-family="Helvetica,sans-Serif" font-size="10.00">arax_pipe_size_dec</text>
</a>
</g>
</g>
<!-- Node19&#45;&gt;Node20 -->
<g id="edge21_Node000019_Node000020" class="edge">
<title>Node19&#45;&gt;Node20</title>
<g id="a_edge21_Node000019_Node000020"><a xlink:title=" ">
<path fill="none" stroke="#63b8ff" d="M376.16,-92.97C393.86,-97.48 415.1,-102.89 433.99,-107.7"/>
<polygon fill="#63b8ff" stroke="#63b8ff" points="433.07,-111.08 443.62,-110.16 434.8,-104.3 433.07,-111.08"/>
</a>
</g>
</g>
<!-- Node24 -->
<g id="Node000024" class="node">
<title>Node24</title>
<g id="a_Node000024"><a xlink:href="a02358.html#ac9828b5c2758940f6d3c7d4335228de5" target="_top" xlink:title=" ">
<polygon fill="white" stroke="#666666" points="533.88,-92.5 434.62,-92.5 434.62,-74 533.88,-74 533.88,-92.5"/>
<text text-anchor="middle" x="484.25" y="-79" font-family="Helvetica,sans-Serif" font-size="10.00">arch_alloc_allocate</text>
</a>
</g>
</g>
<!-- Node19&#45;&gt;Node24 -->
<g id="edge29_Node000019_Node000024" class="edge">
<title>Node19&#45;&gt;Node24</title>
<g id="a_edge29_Node000019_Node000024"><a xlink:title=" ">
<path fill="none" stroke="#63b8ff" d="M389.62,-83.25C400.39,-83.25 411.84,-83.25 422.89,-83.25"/>
<polygon fill="#63b8ff" stroke="#63b8ff" points="422.72,-86.75 432.72,-83.25 422.72,-79.75 422.72,-86.75"/>
</a>
</g>
</g>
<!-- Node19&#45;&gt;Node25 -->
<g id="edge31_Node000019_Node000025" class="edge">
<title>Node19&#45;&gt;Node25</title>
<g id="a_edge31_Node000019_Node000025"><a xlink:title=" ">
<path fill="none" stroke="#63b8ff" d="M362.85,-73.52C371.44,-69.79 380.98,-65.23 389.25,-60.25 406.62,-49.8 407.65,-42.31 425.25,-32.25 431.03,-28.94 437.39,-25.9 443.7,-23.18"/>
<polygon fill="#63b8ff" stroke="#63b8ff" points="444.83,-26.5 452.78,-19.49 442.2,-20.01 444.83,-26.5"/>
</a>
</g>
</g>
<!-- Node21 -->
<g id="Node000021" class="node">
<title>Node21</title>
<g id="a_Node000021"><a xlink:href="a01943.html#a63b80783cfb3106ec4169ce082f153c0" target="_top" xlink:title=" ">
<polygon fill="white" stroke="#666666" points="701.75,-96.5 587.5,-96.5 587.5,-78 701.75,-78 701.75,-96.5"/>
<text text-anchor="middle" x="644.62" y="-83" font-family="Helvetica,sans-Serif" font-size="10.00">arax_throttle_size_dec</text>
</a>
</g>
</g>
<!-- Node20&#45;&gt;Node21 -->
<g id="edge22_Node000020_Node000021" class="edge">
<title>Node20&#45;&gt;Node21</title>
<g id="a_edge22_Node000020_Node000021"><a xlink:title=" ">
<path fill="none" stroke="#63b8ff" d="M531.91,-110.53C548.83,-107 568.15,-102.98 585.91,-99.28"/>
<polygon fill="#63b8ff" stroke="#63b8ff" points="586.47,-102.74 595.54,-97.27 585.04,-95.88 586.47,-102.74"/>
</a>
</g>
</g>
<!-- Node21&#45;&gt;Node6 -->
<g id="edge23_Node000021_Node000006" class="edge">
<title>Node21&#45;&gt;Node6</title>
<g id="a_edge23_Node000021_Node000006"><a xlink:title=" ">
<path fill="none" stroke="#63b8ff" d="M660.79,-96.95C680.04,-108.98 714.53,-129.54 746,-143.25 750.55,-145.23 755.37,-147.11 760.21,-148.87"/>
<polygon fill="#63b8ff" stroke="#63b8ff" points="758.75,-152.07 769.34,-152.02 761.03,-145.45 758.75,-152.07"/>
</a>
</g>
</g>
<!-- Node21&#45;&gt;Node8 -->
<g id="edge24_Node000021_Node000008" class="edge">
<title>Node21&#45;&gt;Node8</title>
<g id="a_edge24_Node000021_Node000008"><a xlink:title=" ">
<path fill="none" stroke="#63b8ff" d="M686.19,-96.94C706.5,-101.79 731.31,-107.71 752.98,-112.89"/>
<polygon fill="#63b8ff" stroke="#63b8ff" points="751.97,-116.24 762.51,-115.16 753.6,-109.44 751.97,-116.24"/>
</a>
</g>
</g>
<!-- Node22 -->
<g id="Node000022" class="node">
<title>Node22</title>
<g id="a_Node000022"><a xlink:href="a02367.html#a1bfeaeb9b81855e640d7a67cc9d92b17" target="_top" xlink:title=" ">
<polygon fill="white" stroke="#666666" points="859.88,-97.5 751.62,-97.5 751.62,-79 859.88,-79 859.88,-97.5"/>
<text text-anchor="middle" x="805.75" y="-84" font-family="Helvetica,sans-Serif" font-size="10.00">async_condition_wait</text>
</a>
</g>
</g>
<!-- Node21&#45;&gt;Node22 -->
<g id="edge25_Node000021_Node000022" class="edge">
<title>Node21&#45;&gt;Node22</title>
<g id="a_edge25_Node000021_Node000022"><a xlink:title=" ">
<path fill="none" stroke="#63b8ff" d="M702.17,-87.61C714.42,-87.68 727.45,-87.76 739.99,-87.84"/>
<polygon fill="#63b8ff" stroke="#63b8ff" points="739.78,-91.34 749.8,-87.9 739.82,-84.34 739.78,-91.34"/>
</a>
</g>
</g>
<!-- Node22&#45;&gt;Node7 -->
<g id="edge27_Node000022_Node000007" class="edge">
<title>Node22&#45;&gt;Node7</title>
<g id="a_edge27_Node000022_Node000007"><a xlink:title=" ">
<path fill="none" stroke="#63b8ff" d="M845.52,-97.9C852.43,-100.41 859.37,-103.5 865.5,-107.25 884.8,-119.06 881.95,-131.85 901.5,-143.25 904.85,-145.21 908.42,-146.97 912.09,-148.55"/>
<polygon fill="#63b8ff" stroke="#63b8ff" points="910.63,-151.74 921.22,-152.03 913.12,-145.2 910.63,-151.74"/>
</a>
</g>
</g>
<!-- Node22&#45;&gt;Node9 -->
<g id="edge26_Node000022_Node000009" class="edge">
<title>Node22&#45;&gt;Node9</title>
<g id="a_edge26_Node000022_Node000009"><a xlink:title=" ">
<path fill="none" stroke="#63b8ff" d="M849.64,-97.97C869.99,-102.58 894.53,-108.15 916.12,-113.04"/>
<polygon fill="#63b8ff" stroke="#63b8ff" points="915.11,-116.4 925.64,-115.19 916.66,-109.57 915.11,-116.4"/>
</a>
</g>
</g>
<!-- Node23 -->
<g id="Node000023" class="node">
<title>Node23</title>
<g id="a_Node000023"><a xlink:href="a02361.html#a7ab7c7fe9cb93434dde72a4e464a7e69" target="_top" xlink:title=" ">
<polygon fill="white" stroke="#666666" points="1028.88,-97.5 913.12,-97.5 913.12,-79 1028.88,-79 1028.88,-97.5"/>
<text text-anchor="middle" x="971" y="-84" font-family="Helvetica,sans-Serif" font-size="10.00">async_semaphore_dec</text>
</a>
</g>
</g>
<!-- Node22&#45;&gt;Node23 -->
<g id="edge28_Node000022_Node000023" class="edge">
<title>Node22&#45;&gt;Node23</title>
<g id="a_edge28_Node000022_Node000023"><a xlink:title=" ">
<path fill="none" stroke="#63b8ff" d="M860.2,-88.25C873.35,-88.25 887.61,-88.25 901.37,-88.25"/>
<polygon fill="#63b8ff" stroke="#63b8ff" points="901.26,-91.75 911.26,-88.25 901.26,-84.75 901.26,-91.75"/>
</a>
</g>
</g>
<!-- Node26&#45;&gt;Node6 -->
<g id="edge33_Node000026_Node000006" class="edge">
<title>Node26&#45;&gt;Node6</title>
<g id="a_edge33_Node000026_Node000006"><a xlink:title=" ">
<path fill="none" stroke="#63b8ff" d="M542,-162.25C597.39,-162.25 681.59,-162.25 739.67,-162.25"/>
<polygon fill="#63b8ff" stroke="#63b8ff" points="739.41,-165.75 749.41,-162.25 739.41,-158.75 739.41,-165.75"/>
</a>
</g>
</g>
<!-- Node26&#45;&gt;Node8 -->
<g id="edge35_Node000026_Node000008" class="edge">
<title>Node26&#45;&gt;Node8</title>
<g id="a_edge35_Node000026_Node000008"><a xlink:title=" ">
<path fill="none" stroke="#63b8ff" d="M542,-155.68C595.71,-149.46 676.51,-140.1 734.31,-133.41"/>
<polygon fill="#63b8ff" stroke="#63b8ff" points="734.52,-136.91 744.05,-132.28 733.71,-129.95 734.52,-136.91"/>
</a>
</g>
</g>
<!-- Node26&#45;&gt;Node15 -->
<g id="edge34_Node000026_Node000015" class="edge">
<title>Node26&#45;&gt;Node15</title>
<g id="a_edge34_Node000026_Node000015"><a xlink:title=" ">
<path fill="none" stroke="#63b8ff" d="M516.92,-177.25C544.81,-190.46 585.18,-209.57 612.82,-222.66"/>
<polygon fill="#63b8ff" stroke="#63b8ff" points="611.18,-225.76 621.72,-226.88 614.18,-219.43 611.18,-225.76"/>
</a>
</g>
</g>
<!-- Node26&#45;&gt;Node17 -->
<g id="edge36_Node000026_Node000017" class="edge">
<title>Node26&#45;&gt;Node17</title>
<g id="a_edge36_Node000026_Node000017"><a xlink:title=" ">
<path fill="none" stroke="#63b8ff" d="M530.55,-147.29C535.13,-144.7 539.47,-141.71 543.25,-138.25 568.77,-114.9 552.54,-91.23 579.25,-69.25 584.44,-64.98 590.55,-61.67 596.92,-59.11"/>
<polygon fill="#63b8ff" stroke="#63b8ff" points="597.95,-62.45 606.31,-55.94 595.71,-55.82 597.95,-62.45"/>
</a>
</g>
</g>
</g>
</svg>
