<?xml version="1.0" encoding="UTF-8" standalone="no"?>
<!DOCTYPE svg PUBLIC "-//W3C//DTD SVG 1.1//EN"
 "http://www.w3.org/Graphics/SVG/1.1/DTD/svg11.dtd">
<!-- Generated by graphviz version 8.0.5 (0)
 -->
<!-- Title: arax_accel_list Pages: 1 -->
<svg width="998pt" height="199pt"
 viewBox="0.00 0.00 998.25 198.50" xmlns="http://www.w3.org/2000/svg" xmlns:xlink="http://www.w3.org/1999/xlink">
<g id="graph0" class="graph" transform="scale(1 1) rotate(0) translate(4 194.5)">
<title>arax_accel_list</title>
<!-- Node1 -->
<g id="Node000001" class="node">
<title>Node1</title>
<g id="a_Node000001"><a xlink:title=" ">
<polygon fill="#999999" stroke="#666666" points="82,-73.5 0,-73.5 0,-55 82,-55 82,-73.5"/>
<text text-anchor="middle" x="41" y="-60" font-family="Helvetica,sans-Serif" font-size="10.00">arax_accel_list</text>
</a>
</g>
</g>
<!-- Node2 -->
<g id="Node000002" class="node">
<title>Node2</title>
<g id="a_Node000002"><a xlink:href="a01898.html#a4cb362223e9e7a76f4c5695080db2755" target="_top" xlink:title=" ">
<polygon fill="white" stroke="#666666" points="229.25,-139.75 125.5,-139.75 125.5,-110.75 229.25,-110.75 229.25,-139.75"/>
<text text-anchor="start" x="133.5" y="-126.25" font-family="Helvetica,sans-Serif" font-size="10.00">arax_accel_list_free</text>
<text text-anchor="middle" x="177.38" y="-115.75" font-family="Helvetica,sans-Serif" font-size="10.00">_pre_locked</text>
</a>
</g>
</g>
<!-- Node1&#45;&gt;Node2 -->
<g id="edge1_Node000001_Node000002" class="edge">
<title>Node1&#45;&gt;Node2</title>
<g id="a_edge1_Node000001_Node000002"><a xlink:title=" ">
<path fill="none" stroke="#63b8ff" d="M60.9,-73.86C76.18,-81.53 98.32,-92.42 118,-101.25 121.61,-102.87 125.37,-104.51 129.15,-106.13"/>
<polygon fill="#63b8ff" stroke="#63b8ff" points="127.59,-109.7 138.17,-110.36 130.32,-103.25 127.59,-109.7"/>
</a>
</g>
</g>
<!-- Node13 -->
<g id="Node000013" class="node">
<title>Node13</title>
<g id="a_Node000013"><a xlink:href="a01910.html#aa750d1c54fe430c1294b9c8a9d3e1466" target="_top" xlink:title=" ">
<polygon fill="white" stroke="#666666" points="231.5,-92.5 123.25,-92.5 123.25,-74 231.5,-74 231.5,-92.5"/>
<text text-anchor="middle" x="177.38" y="-79" font-family="Helvetica,sans-Serif" font-size="10.00">arax_object_list_lock</text>
</a>
</g>
</g>
<!-- Node1&#45;&gt;Node13 -->
<g id="edge12_Node000001_Node000013" class="edge">
<title>Node1&#45;&gt;Node13</title>
<g id="a_edge12_Node000001_Node000013"><a xlink:title=" ">
<path fill="none" stroke="#63b8ff" d="M82.32,-69.95C91.84,-71.3 102.23,-72.77 112.51,-74.22"/>
<polygon fill="#63b8ff" stroke="#63b8ff" points="111.76,-77.79 122.15,-75.72 112.74,-70.86 111.76,-77.79"/>
</a>
</g>
</g>
<!-- Node14 -->
<g id="Node000014" class="node">
<title>Node14</title>
<g id="a_Node000014"><a xlink:href="a01910.html#abb03d3cde2d1354544cd082482c3f185" target="_top" xlink:title=" ">
<polygon fill="white" stroke="#666666" points="236.75,-55.5 118,-55.5 118,-37 236.75,-37 236.75,-55.5"/>
<text text-anchor="middle" x="177.38" y="-42" font-family="Helvetica,sans-Serif" font-size="10.00">arax_object_list_unlock</text>
</a>
</g>
</g>
<!-- Node1&#45;&gt;Node14 -->
<g id="edge13_Node000001_Node000014" class="edge">
<title>Node1&#45;&gt;Node14</title>
<g id="a_edge13_Node000001_Node000014"><a xlink:title=" ">
<path fill="none" stroke="#63b8ff" d="M82.32,-58.85C90.14,-57.8 98.55,-56.67 107.01,-55.54"/>
<polygon fill="#63b8ff" stroke="#63b8ff" points="107.26,-58.91 116.7,-54.11 106.33,-51.97 107.26,-58.91"/>
</a>
</g>
</g>
<!-- Node15 -->
<g id="Node000015" class="node">
<title>Node15</title>
<g id="a_Node000015"><a xlink:href="a01910.html#a9255b8011e6d7c9b28c7df40065efb28" target="_top" xlink:title=" ">
<polygon fill="white" stroke="#666666" points="228.12,-18.5 126.62,-18.5 126.62,0 228.12,0 228.12,-18.5"/>
<text text-anchor="middle" x="177.38" y="-5" font-family="Helvetica,sans-Serif" font-size="10.00">arax_object_ref_inc</text>
</a>
</g>
</g>
<!-- Node1&#45;&gt;Node15 -->
<g id="edge14_Node000001_Node000015" class="edge">
<title>Node1&#45;&gt;Node15</title>
<g id="a_edge14_Node000001_Node000015"><a xlink:title=" ">
<path fill="none" stroke="#63b8ff" d="M60.76,-54.54C75.96,-46.87 98.06,-36.18 118,-28.25 123.07,-26.23 128.45,-24.26 133.8,-22.4"/>
<polygon fill="#63b8ff" stroke="#63b8ff" points="134.63,-25.48 143,-18.98 132.4,-18.85 134.63,-25.48"/>
</a>
</g>
</g>
<!-- Node3 -->
<g id="Node000003" class="node">
<title>Node3</title>
<g id="a_Node000003"><a xlink:href="a01910.html#a0a0b147b7fc892c291afe60cb0fa2c1c" target="_top" xlink:title=" ">
<polygon fill="white" stroke="#666666" points="377.25,-139.75 272.75,-139.75 272.75,-110.75 377.25,-110.75 377.25,-139.75"/>
<text text-anchor="start" x="280.75" y="-126.25" font-family="Helvetica,sans-Serif" font-size="10.00">arax_object_ref_dec</text>
<text text-anchor="middle" x="325" y="-115.75" font-family="Helvetica,sans-Serif" font-size="10.00">_pre_locked</text>
</a>
</g>
</g>
<!-- Node2&#45;&gt;Node3 -->
<g id="edge2_Node000002_Node000003" class="edge">
<title>Node2&#45;&gt;Node3</title>
<g id="a_edge2_Node000002_Node000003"><a xlink:title=" ">
<path fill="none" stroke="#63b8ff" d="M229.72,-125.25C240.05,-125.25 251.01,-125.25 261.67,-125.25"/>
<polygon fill="#63b8ff" stroke="#63b8ff" points="261.63,-128.75 271.63,-125.25 261.63,-121.75 261.63,-128.75"/>
</a>
</g>
</g>
<!-- Node4 -->
<g id="Node000004" class="node">
<title>Node4</title>
<g id="a_Node000004"><a xlink:href="a01913.html#a5144f906658718ef853a8d18dda1e724" target="_top" xlink:title=" ">
<polygon fill="white" stroke="#666666" points="512.5,-153.5 413.25,-153.5 413.25,-135 512.5,-135 512.5,-153.5"/>
<text text-anchor="middle" x="462.88" y="-140" font-family="Helvetica,sans-Serif" font-size="10.00">arax_pipe_size_inc</text>
</a>
</g>
</g>
<!-- Node3&#45;&gt;Node4 -->
<g id="edge3_Node000003_Node000004" class="edge">
<title>Node3&#45;&gt;Node4</title>
<g id="a_edge3_Node000003_Node000004"><a xlink:title=" ">
<path fill="none" stroke="#63b8ff" d="M377.37,-132.43C385.52,-133.57 394.01,-134.76 402.33,-135.92"/>
<polygon fill="#63b8ff" stroke="#63b8ff" points="401.74,-139.51 412.13,-137.43 402.71,-132.58 401.74,-139.51"/>
</a>
</g>
</g>
<!-- Node12 -->
<g id="Node000012" class="node">
<title>Node12</title>
<g id="a_Node000012"><a xlink:href="a01946.html#a0c85e5516222ab7e7fc354c614760ec5" target="_top" xlink:title=" ">
<polygon fill="white" stroke="#666666" points="497.88,-116.5 427.88,-116.5 427.88,-98 497.88,-98 497.88,-116.5"/>
<text text-anchor="middle" x="462.88" y="-103" font-family="Helvetica,sans-Serif" font-size="10.00">utils_list_del</text>
</a>
</g>
</g>
<!-- Node3&#45;&gt;Node12 -->
<g id="edge11_Node000003_Node000012" class="edge">
<title>Node3&#45;&gt;Node12</title>
<g id="a_edge11_Node000003_Node000012"><a xlink:title=" ">
<path fill="none" stroke="#63b8ff" d="M377.37,-118.44C390.39,-116.72 404.27,-114.88 416.95,-113.2"/>
<polygon fill="#63b8ff" stroke="#63b8ff" points="417.27,-116.56 426.72,-111.77 416.35,-109.62 417.27,-116.56"/>
</a>
</g>
</g>
<!-- Node5 -->
<g id="Node000005" class="node">
<title>Node5</title>
<g id="a_Node000005"><a xlink:href="a01925.html#a22aaf13eb56eb1832e725ef73236116f" target="_top" xlink:title=" ">
<polygon fill="white" stroke="#666666" points="659.75,-153.5 548.5,-153.5 548.5,-135 659.75,-135 659.75,-153.5"/>
<text text-anchor="middle" x="604.12" y="-140" font-family="Helvetica,sans-Serif" font-size="10.00">arax_throttle_size_inc</text>
</a>
</g>
</g>
<!-- Node4&#45;&gt;Node5 -->
<g id="edge4_Node000004_Node000005" class="edge">
<title>Node4&#45;&gt;Node5</title>
<g id="a_edge4_Node000004_Node000005"><a xlink:title=" ">
<path fill="none" stroke="#63b8ff" d="M512.97,-144.25C520.92,-144.25 529.26,-144.25 537.52,-144.25"/>
<polygon fill="#63b8ff" stroke="#63b8ff" points="537.31,-147.75 547.31,-144.25 537.31,-140.75 537.31,-147.75"/>
</a>
</g>
</g>
<!-- Node6 -->
<g id="Node000006" class="node">
<title>Node6</title>
<g id="a_Node000006"><a xlink:href="a02352.html#aed6af4d83e934e3e654ead541b15f2d9" target="_top" xlink:title=" ">
<polygon fill="white" stroke="#666666" points="810,-190.5 701,-190.5 701,-172 810,-172 810,-190.5"/>
<text text-anchor="middle" x="755.5" y="-177" font-family="Helvetica,sans-Serif" font-size="10.00">async_condition_lock</text>
</a>
</g>
</g>
<!-- Node5&#45;&gt;Node6 -->
<g id="edge5_Node000005_Node000006" class="edge">
<title>Node5&#45;&gt;Node6</title>
<g id="a_edge5_Node000005_Node000006"><a xlink:title=" ">
<path fill="none" stroke="#63b8ff" d="M644.37,-153.97C662.82,-158.54 685.03,-164.04 704.66,-168.9"/>
<polygon fill="#63b8ff" stroke="#63b8ff" points="703.71,-172.52 714.26,-171.53 705.39,-165.73 703.71,-172.52"/>
</a>
</g>
</g>
<!-- Node8 -->
<g id="Node000008" class="node">
<title>Node8</title>
<g id="a_Node000008"><a xlink:href="a02352.html#a45a896fb606c2aa66a5a4c2af59ce494" target="_top" xlink:title=" ">
<polygon fill="white" stroke="#666666" points="813,-153.5 698,-153.5 698,-135 813,-135 813,-153.5"/>
<text text-anchor="middle" x="755.5" y="-140" font-family="Helvetica,sans-Serif" font-size="10.00">async_condition_notify</text>
</a>
</g>
</g>
<!-- Node5&#45;&gt;Node8 -->
<g id="edge7_Node000005_Node000008" class="edge">
<title>Node5&#45;&gt;Node8</title>
<g id="a_edge7_Node000005_Node000008"><a xlink:title=" ">
<path fill="none" stroke="#63b8ff" d="M659.9,-144.25C668.66,-144.25 677.81,-144.25 686.83,-144.25"/>
<polygon fill="#63b8ff" stroke="#63b8ff" points="686.73,-147.75 696.73,-144.25 686.73,-140.75 686.73,-147.75"/>
</a>
</g>
</g>
<!-- Node10 -->
<g id="Node000010" class="node">
<title>Node10</title>
<g id="a_Node000010"><a xlink:href="a02352.html#a3bbcb7c4c024e99d5c4ba52b61dfbbf7" target="_top" xlink:title=" ">
<polygon fill="white" stroke="#666666" points="815.25,-116.5 695.75,-116.5 695.75,-98 815.25,-98 815.25,-116.5"/>
<text text-anchor="middle" x="755.5" y="-103" font-family="Helvetica,sans-Serif" font-size="10.00">async_condition_unlock</text>
</a>
</g>
</g>
<!-- Node5&#45;&gt;Node10 -->
<g id="edge9_Node000005_Node000010" class="edge">
<title>Node5&#45;&gt;Node10</title>
<g id="a_edge9_Node000005_Node000010"><a xlink:title=" ">
<path fill="none" stroke="#63b8ff" d="M644.37,-134.53C662.82,-129.96 685.03,-124.46 704.66,-119.6"/>
<polygon fill="#63b8ff" stroke="#63b8ff" points="705.39,-122.77 714.26,-116.97 703.71,-115.98 705.39,-122.77"/>
</a>
</g>
</g>
<!-- Node7 -->
<g id="Node000007" class="node">
<title>Node7</title>
<g id="a_Node000007"><a xlink:href="a02346.html#aebf9e72bb6cbd8b9e33489d46c25075d" target="_top" xlink:title=" ">
<polygon fill="white" stroke="#666666" points="979,-190.5 862.5,-190.5 862.5,-172 979,-172 979,-190.5"/>
<text text-anchor="middle" x="920.75" y="-177" font-family="Helvetica,sans-Serif" font-size="10.00">async_completion_wait</text>
</a>
</g>
</g>
<!-- Node6&#45;&gt;Node7 -->
<g id="edge6_Node000006_Node000007" class="edge">
<title>Node6&#45;&gt;Node7</title>
<g id="a_edge6_Node000006_Node000007"><a xlink:title=" ">
<path fill="none" stroke="#63b8ff" d="M810.41,-181.25C823.52,-181.25 837.73,-181.25 851.41,-181.25"/>
<polygon fill="#63b8ff" stroke="#63b8ff" points="851.25,-184.75 861.25,-181.25 851.25,-177.75 851.25,-184.75"/>
</a>
</g>
</g>
<!-- Node9 -->
<g id="Node000009" class="node">
<title>Node9</title>
<g id="a_Node000009"><a xlink:href="a02346.html#a0fa370eee5160963e617d1daf1c07363" target="_top" xlink:title=" ">
<polygon fill="white" stroke="#666666" points="977.12,-153.5 864.38,-153.5 864.38,-135 977.12,-135 977.12,-153.5"/>
<text text-anchor="middle" x="920.75" y="-140" font-family="Helvetica,sans-Serif" font-size="10.00">async_semaphore_inc</text>
</a>
</g>
</g>
<!-- Node8&#45;&gt;Node9 -->
<g id="edge8_Node000008_Node000009" class="edge">
<title>Node8&#45;&gt;Node9</title>
<g id="a_edge8_Node000008_Node000009"><a xlink:title=" ">
<path fill="none" stroke="#63b8ff" d="M813.14,-144.25C826.02,-144.25 839.81,-144.25 853.07,-144.25"/>
<polygon fill="#63b8ff" stroke="#63b8ff" points="853.04,-147.75 863.04,-144.25 853.04,-140.75 853.04,-147.75"/>
</a>
</g>
</g>
<!-- Node11 -->
<g id="Node000011" class="node">
<title>Node11</title>
<g id="a_Node000011"><a xlink:href="a02346.html#ad1d30ecbf6bff6457b680aa940281072" target="_top" xlink:title=" ">
<polygon fill="white" stroke="#666666" points="990.25,-116.5 851.25,-116.5 851.25,-98 990.25,-98 990.25,-116.5"/>
<text text-anchor="middle" x="920.75" y="-103" font-family="Helvetica,sans-Serif" font-size="10.00">async_completion_complete</text>
</a>
</g>
</g>
<!-- Node10&#45;&gt;Node11 -->
<g id="edge10_Node000010_Node000011" class="edge">
<title>Node10&#45;&gt;Node11</title>
<g id="a_edge10_Node000010_Node000011"><a xlink:title=" ">
<path fill="none" stroke="#63b8ff" d="M815.44,-107.25C823.44,-107.25 831.76,-107.25 840.05,-107.25"/>
<polygon fill="#63b8ff" stroke="#63b8ff" points="839.9,-110.75 849.9,-107.25 839.9,-103.75 839.9,-110.75"/>
</a>
</g>
</g>
</g>
</svg>
