<?xml version="1.0" encoding="UTF-8" standalone="no"?>
<!DOCTYPE svg PUBLIC "-//W3C//DTD SVG 1.1//EN"
 "http://www.w3.org/Graphics/SVG/1.1/DTD/svg11.dtd">
<!-- Generated by graphviz version 12.2.1 (0)
 -->
<!-- Title: arax_accel_set_physical Pages: 1 -->
<svg width="783pt" height="295pt"
 viewBox="0.00 0.00 782.50 294.50" xmlns="http://www.w3.org/2000/svg" xmlns:xlink="http://www.w3.org/1999/xlink">
<g id="graph0" class="graph" transform="scale(1 1) rotate(0) translate(4 290.5)">
<title>arax_accel_set_physical</title>
<!-- Node1 -->
<g id="Node000001" class="node">
<title>Node1</title>
<g id="a_Node000001"><a xlink:title=" ">
<polygon fill="#999999" stroke="#666666" points="123.25,-163.5 0,-163.5 0,-145 123.25,-145 123.25,-163.5"/>
<text text-anchor="middle" x="61.62" y="-150" font-family="Helvetica,sans-Serif" font-size="10.00">arax_accel_set_physical</text>
</a>
</g>
</g>
<!-- Node2 -->
<g id="Node000002" class="node">
<title>Node2</title>
<g id="a_Node000002"><a xlink:href="a01916.html#af0b933c02a24d69c1efa40179f60288f" target="_top" xlink:title=" ">
<polygon fill="white" stroke="#666666" points="277.25,-163.5 159.25,-163.5 159.25,-145 277.25,-145 277.25,-163.5"/>
<text text-anchor="middle" x="218.25" y="-150" font-family="Helvetica,sans-Serif" font-size="10.00">arax_accel_add_vaccel</text>
</a>
</g>
</g>
<!-- Node1&#45;&gt;Node2 -->
<g id="edge1_Node000001_Node000002" class="edge">
<title>Node1&#45;&gt;Node2</title>
<g id="a_edge1_Node000001_Node000002"><a xlink:title=" ">
<path fill="none" stroke="#63b8ff" d="M123.74,-154.25C131.51,-154.25 139.51,-154.25 147.4,-154.25"/>
<polygon fill="#63b8ff" stroke="#63b8ff" points="147.34,-157.75 157.34,-154.25 147.34,-150.75 147.34,-157.75"/>
</a>
</g>
</g>
<!-- Node3 -->
<g id="Node000003" class="node">
<title>Node3</title>
<g id="a_Node000003"><a xlink:href="a01916.html#aed864d2fab73a39a8c98356f7bca1304" target="_top" xlink:title=" ">
<polygon fill="white" stroke="#666666" points="439.12,-286.5 318.12,-286.5 318.12,-268 439.12,-268 439.12,-286.5"/>
<text text-anchor="middle" x="378.62" y="-273" font-family="Helvetica,sans-Serif" font-size="10.00">arax_accel_inc_revision</text>
</a>
</g>
</g>
<!-- Node2&#45;&gt;Node3 -->
<g id="edge2_Node000002_Node000003" class="edge">
<title>Node2&#45;&gt;Node3</title>
<g id="a_edge2_Node000002_Node000003"><a xlink:title=" ">
<path fill="none" stroke="#63b8ff" d="M225.88,-163.94C239.83,-183.64 274.18,-228.67 313.25,-254.25 318.66,-257.79 324.68,-260.86 330.8,-263.51"/>
<polygon fill="#63b8ff" stroke="#63b8ff" points="329.13,-266.62 339.72,-267.02 331.69,-260.1 329.13,-266.62"/>
</a>
</g>
</g>
<!-- Node4 -->
<g id="Node000004" class="node">
<title>Node4</title>
<g id="a_Node000004"><a xlink:href="a01928.html#aa5172b735dddd3f77fbb0265bbcdfc20" target="_top" xlink:title=" ">
<polygon fill="white" stroke="#666666" points="444,-211.75 313.25,-211.75 313.25,-182.75 444,-182.75 444,-211.75"/>
<text text-anchor="start" x="321.25" y="-198.25" font-family="Helvetica,sans-Serif" font-size="10.00">arax_pipe_remove_orphan</text>
<text text-anchor="middle" x="378.62" y="-187.75" font-family="Helvetica,sans-Serif" font-size="10.00">_vaccel</text>
</a>
</g>
</g>
<!-- Node2&#45;&gt;Node4 -->
<g id="edge3_Node000002_Node000004" class="edge">
<title>Node2&#45;&gt;Node4</title>
<g id="a_edge3_Node000002_Node000004"><a xlink:title=" ">
<path fill="none" stroke="#63b8ff" d="M254.79,-163.9C271.57,-168.45 292.14,-174.04 311.62,-179.33"/>
<polygon fill="#63b8ff" stroke="#63b8ff" points="310.58,-182.67 321.15,-181.92 312.41,-175.92 310.58,-182.67"/>
</a>
</g>
</g>
<!-- Node5 -->
<g id="Node000005" class="node">
<title>Node5</title>
<g id="a_Node000005"><a xlink:href="a02364.html#aed6af4d83e934e3e654ead541b15f2d9" target="_top" xlink:title=" ">
<polygon fill="white" stroke="#666666" points="594.25,-277.5 485.25,-277.5 485.25,-259 594.25,-259 594.25,-277.5"/>
<text text-anchor="middle" x="539.75" y="-264" font-family="Helvetica,sans-Serif" font-size="10.00">async_condition_lock</text>
</a>
</g>
</g>
<!-- Node2&#45;&gt;Node5 -->
<g id="edge13_Node000002_Node000005" class="edge">
<title>Node2&#45;&gt;Node5</title>
<g id="a_edge13_Node000002_Node000005"><a xlink:title=" ">
<path fill="none" stroke="#63b8ff" d="M229.62,-163.9C246.05,-178.63 279.65,-206.55 313.25,-221.25 364.59,-243.71 427.29,-255.66 473.53,-261.88"/>
<polygon fill="#63b8ff" stroke="#63b8ff" points="473.05,-265.35 483.41,-263.15 473.94,-258.41 473.05,-265.35"/>
</a>
</g>
</g>
<!-- Node7 -->
<g id="Node000007" class="node">
<title>Node7</title>
<g id="a_Node000007"><a xlink:href="a02364.html#a3bbcb7c4c024e99d5c4ba52b61dfbbf7" target="_top" xlink:title=" ">
<polygon fill="white" stroke="#666666" points="599.5,-166.5 480,-166.5 480,-148 599.5,-148 599.5,-166.5"/>
<text text-anchor="middle" x="539.75" y="-153" font-family="Helvetica,sans-Serif" font-size="10.00">async_condition_unlock</text>
</a>
</g>
</g>
<!-- Node2&#45;&gt;Node7 -->
<g id="edge16_Node000002_Node000007" class="edge">
<title>Node2&#45;&gt;Node7</title>
<g id="a_edge16_Node000002_Node000007"><a xlink:title=" ">
<path fill="none" stroke="#63b8ff" d="M277.48,-154.8C331.11,-155.3 410.81,-156.05 468.07,-156.59"/>
<polygon fill="#63b8ff" stroke="#63b8ff" points="468.02,-160.09 478.05,-156.68 468.09,-153.09 468.02,-160.09"/>
</a>
</g>
</g>
<!-- Node11 -->
<g id="Node000011" class="node">
<title>Node11</title>
<g id="a_Node000011"><a xlink:href="a01943.html#ab2fa3d6e6c761009b464cc0fbedc6a16" target="_top" xlink:title=" ">
<polygon fill="white" stroke="#666666" points="439.88,-126.5 317.38,-126.5 317.38,-108 439.88,-108 439.88,-126.5"/>
<text text-anchor="middle" x="378.62" y="-113" font-family="Helvetica,sans-Serif" font-size="10.00">arax_vaccel_queue_size</text>
</a>
</g>
</g>
<!-- Node2&#45;&gt;Node11 -->
<g id="edge10_Node000002_Node000011" class="edge">
<title>Node2&#45;&gt;Node11</title>
<g id="a_edge10_Node000002_Node000011"><a xlink:title=" ">
<path fill="none" stroke="#63b8ff" d="M260.86,-144.53C280.52,-139.94 304.19,-134.41 325.07,-129.53"/>
<polygon fill="#63b8ff" stroke="#63b8ff" points="325.6,-133 334.54,-127.31 324.01,-126.18 325.6,-133"/>
</a>
</g>
</g>
<!-- Node14 -->
<g id="Node000014" class="node">
<title>Node14</title>
<g id="a_Node000014"><a xlink:href="a02364.html#a45a896fb606c2aa66a5a4c2af59ce494" target="_top" xlink:title=" ">
<polygon fill="white" stroke="#666666" points="436.12,-70.5 321.12,-70.5 321.12,-52 436.12,-52 436.12,-70.5"/>
<text text-anchor="middle" x="378.62" y="-57" font-family="Helvetica,sans-Serif" font-size="10.00">async_condition_notify</text>
</a>
</g>
</g>
<!-- Node2&#45;&gt;Node14 -->
<g id="edge14_Node000002_Node000014" class="edge">
<title>Node2&#45;&gt;Node14</title>
<g id="a_edge14_Node000002_Node000014"><a xlink:title=" ">
<path fill="none" stroke="#63b8ff" d="M235.6,-144.65C262.99,-128.57 318.35,-96.06 351.28,-76.72"/>
<polygon fill="#63b8ff" stroke="#63b8ff" points="352.97,-79.79 359.82,-71.71 349.42,-73.75 352.97,-79.79"/>
</a>
</g>
</g>
<!-- Node16 -->
<g id="Node000016" class="node">
<title>Node16</title>
<g id="a_Node000016"><a xlink:href="a01955.html#ae06a9e78e6a4f6c9c8afcf0f4862ce29" target="_top" xlink:title=" ">
<polygon fill="white" stroke="#666666" points="415.12,-33.5 342.12,-33.5 342.12,-15 415.12,-15 415.12,-33.5"/>
<text text-anchor="middle" x="378.62" y="-20" font-family="Helvetica,sans-Serif" font-size="10.00">utils_list_add</text>
</a>
</g>
</g>
<!-- Node2&#45;&gt;Node16 -->
<g id="edge17_Node000002_Node000016" class="edge">
<title>Node2&#45;&gt;Node16</title>
<g id="a_edge17_Node000002_Node000016"><a xlink:title=" ">
<path fill="none" stroke="#63b8ff" d="M224.7,-144.6C237.37,-123.06 270.94,-70.83 313.25,-43.25 318.75,-39.66 324.96,-36.73 331.28,-34.35"/>
<polygon fill="#63b8ff" stroke="#63b8ff" points="332.11,-37.76 340.5,-31.3 329.91,-31.12 332.11,-37.76"/>
</a>
</g>
</g>
<!-- Node4&#45;&gt;Node5 -->
<g id="edge4_Node000004_Node000005" class="edge">
<title>Node4&#45;&gt;Node5</title>
<g id="a_edge4_Node000004_Node000005"><a xlink:title=" ">
<path fill="none" stroke="#63b8ff" d="M415.16,-212.15C424.66,-216.43 434.84,-221.29 444,-226.25 460.7,-235.28 462.83,-241.15 480,-249.25 484.2,-251.23 488.66,-253.08 493.17,-254.8"/>
<polygon fill="#63b8ff" stroke="#63b8ff" points="491.68,-257.98 502.27,-258.03 494.02,-251.39 491.68,-257.98"/>
</a>
</g>
</g>
<!-- Node4&#45;&gt;Node7 -->
<g id="edge6_Node000004_Node000007" class="edge">
<title>Node4&#45;&gt;Node7</title>
<g id="a_edge6_Node000004_Node000007"><a xlink:title=" ">
<path fill="none" stroke="#63b8ff" d="M438.88,-182.36C455.53,-178.17 473.46,-173.66 489.47,-169.64"/>
<polygon fill="#63b8ff" stroke="#63b8ff" points="489.89,-173.14 498.74,-167.31 488.19,-166.35 489.89,-173.14"/>
</a>
</g>
</g>
<!-- Node9 -->
<g id="Node000009" class="node">
<title>Node9</title>
<g id="a_Node000009"><a xlink:href="a01955.html#a0c85e5516222ab7e7fc354c614760ec5" target="_top" xlink:title=" ">
<polygon fill="white" stroke="#666666" points="574.75,-240.5 504.75,-240.5 504.75,-222 574.75,-222 574.75,-240.5"/>
<text text-anchor="middle" x="539.75" y="-227" font-family="Helvetica,sans-Serif" font-size="10.00">utils_list_del</text>
</a>
</g>
</g>
<!-- Node4&#45;&gt;Node9 -->
<g id="edge8_Node000004_Node000009" class="edge">
<title>Node4&#45;&gt;Node9</title>
<g id="a_edge8_Node000004_Node000009"><a xlink:title=" ">
<path fill="none" stroke="#63b8ff" d="M444.35,-211.08C460.8,-214.6 478.14,-218.3 493.4,-221.56"/>
<polygon fill="#63b8ff" stroke="#63b8ff" points="492.62,-224.97 503.13,-223.64 494.09,-218.13 492.62,-224.97"/>
</a>
</g>
</g>
<!-- Node10 -->
<g id="Node000010" class="node">
<title>Node10</title>
<g id="a_Node000010"><a xlink:href="a01955.html#ab0c44e095ebfd8721de878c42abcbbdc" target="_top" xlink:title=" ">
<polygon fill="white" stroke="#666666" points="593.88,-203.5 485.62,-203.5 485.62,-185 593.88,-185 593.88,-203.5"/>
<text text-anchor="middle" x="539.75" y="-190" font-family="Helvetica,sans-Serif" font-size="10.00">utils_list_node_linked</text>
</a>
</g>
</g>
<!-- Node4&#45;&gt;Node10 -->
<g id="edge9_Node000004_Node000010" class="edge">
<title>Node4&#45;&gt;Node10</title>
<g id="a_edge9_Node000004_Node000010"><a xlink:title=" ">
<path fill="none" stroke="#63b8ff" d="M444.35,-196.03C454.12,-195.85 464.2,-195.66 473.97,-195.47"/>
<polygon fill="#63b8ff" stroke="#63b8ff" points="473.82,-198.97 483.75,-195.29 473.69,-191.98 473.82,-198.97"/>
</a>
</g>
</g>
<!-- Node6 -->
<g id="Node000006" class="node">
<title>Node6</title>
<g id="a_Node000006"><a xlink:href="a02358.html#aebf9e72bb6cbd8b9e33489d46c25075d" target="_top" xlink:title=" ">
<polygon fill="white" stroke="#666666" points="763.25,-277.5 646.75,-277.5 646.75,-259 763.25,-259 763.25,-277.5"/>
<text text-anchor="middle" x="705" y="-264" font-family="Helvetica,sans-Serif" font-size="10.00">async_completion_wait</text>
</a>
</g>
</g>
<!-- Node5&#45;&gt;Node6 -->
<g id="edge5_Node000005_Node000006" class="edge">
<title>Node5&#45;&gt;Node6</title>
<g id="a_edge5_Node000005_Node000006"><a xlink:title=" ">
<path fill="none" stroke="#63b8ff" d="M594.66,-268.25C607.64,-268.25 621.69,-268.25 635.26,-268.25"/>
<polygon fill="#63b8ff" stroke="#63b8ff" points="634.99,-271.75 644.99,-268.25 634.99,-264.75 634.99,-271.75"/>
</a>
</g>
</g>
<!-- Node8 -->
<g id="Node000008" class="node">
<title>Node8</title>
<g id="a_Node000008"><a xlink:href="a02358.html#ad1d30ecbf6bff6457b680aa940281072" target="_top" xlink:title=" ">
<polygon fill="white" stroke="#666666" points="774.5,-166.5 635.5,-166.5 635.5,-148 774.5,-148 774.5,-166.5"/>
<text text-anchor="middle" x="705" y="-153" font-family="Helvetica,sans-Serif" font-size="10.00">async_completion_complete</text>
</a>
</g>
</g>
<!-- Node7&#45;&gt;Node8 -->
<g id="edge7_Node000007_Node000008" class="edge">
<title>Node7&#45;&gt;Node8</title>
<g id="a_edge7_Node000007_Node000008"><a xlink:title=" ">
<path fill="none" stroke="#63b8ff" d="M599.69,-157.25C607.51,-157.25 615.63,-157.25 623.74,-157.25"/>
<polygon fill="#63b8ff" stroke="#63b8ff" points="623.64,-160.75 633.64,-157.25 623.64,-153.75 623.64,-160.75"/>
</a>
</g>
</g>
<!-- Node12 -->
<g id="Node000012" class="node">
<title>Node12</title>
<g id="a_Node000012"><a xlink:href="a01943.html#afe1eb3edd264c847c36e9456b2598452" target="_top" xlink:title=" ">
<polygon fill="white" stroke="#666666" points="589.75,-129.5 489.75,-129.5 489.75,-111 589.75,-111 589.75,-129.5"/>
<text text-anchor="middle" x="539.75" y="-116" font-family="Helvetica,sans-Serif" font-size="10.00">arax_vaccel_queue</text>
</a>
</g>
</g>
<!-- Node11&#45;&gt;Node12 -->
<g id="edge11_Node000011_Node000012" class="edge">
<title>Node11&#45;&gt;Node12</title>
<g id="a_edge11_Node000011_Node000012"><a xlink:title=" ">
<path fill="none" stroke="#63b8ff" d="M440.24,-118.39C452.68,-118.63 465.77,-118.87 478.21,-119.11"/>
<polygon fill="#63b8ff" stroke="#63b8ff" points="477.83,-122.6 487.9,-119.29 477.97,-115.6 477.83,-122.6"/>
</a>
</g>
</g>
<!-- Node13 -->
<g id="Node000013" class="node">
<title>Node13</title>
<g id="a_Node000013"><a xlink:href="a01958.html#a5d84d59bded666fdcf1a8e949cb56a6a" target="_top" xlink:title=" ">
<polygon fill="white" stroke="#666666" points="598.75,-92.5 480.75,-92.5 480.75,-74 598.75,-74 598.75,-92.5"/>
<text text-anchor="middle" x="539.75" y="-79" font-family="Helvetica,sans-Serif" font-size="10.00">utils_queue_used_slots</text>
</a>
</g>
</g>
<!-- Node11&#45;&gt;Node13 -->
<g id="edge12_Node000011_Node000013" class="edge">
<title>Node11&#45;&gt;Node13</title>
<g id="a_edge12_Node000011_Node000013"><a xlink:title=" ">
<path fill="none" stroke="#63b8ff" d="M425.22,-107.51C442.95,-103.72 463.45,-99.34 482.11,-95.35"/>
<polygon fill="#63b8ff" stroke="#63b8ff" points="482.62,-98.82 491.66,-93.31 481.15,-91.98 482.62,-98.82"/>
</a>
</g>
</g>
<!-- Node15 -->
<g id="Node000015" class="node">
<title>Node15</title>
<g id="a_Node000015"><a xlink:href="a02358.html#a0fa370eee5160963e617d1daf1c07363" target="_top" xlink:title=" ">
<polygon fill="white" stroke="#666666" points="596.12,-55.5 483.38,-55.5 483.38,-37 596.12,-37 596.12,-55.5"/>
<text text-anchor="middle" x="539.75" y="-42" font-family="Helvetica,sans-Serif" font-size="10.00">async_semaphore_inc</text>
</a>
</g>
</g>
<!-- Node14&#45;&gt;Node15 -->
<g id="edge15_Node000014_Node000015" class="edge">
<title>Node14&#45;&gt;Node15</title>
<g id="a_edge15_Node000014_Node000015"><a xlink:title=" ">
<path fill="none" stroke="#63b8ff" d="M436.62,-55.88C447.93,-54.81 459.89,-53.68 471.5,-52.59"/>
<polygon fill="#63b8ff" stroke="#63b8ff" points="471.82,-56.08 481.44,-51.65 471.16,-49.11 471.82,-56.08"/>
</a>
</g>
</g>
<!-- Node17 -->
<g id="Node000017" class="node">
<title>Node17</title>
<g id="a_Node000017"><a xlink:href="a01955.html#a5c575f52a42e0e0d2fb41bda2d1268ce" target="_top" xlink:title=" ">
<polygon fill="white" stroke="#666666" points="589.38,-18.5 490.12,-18.5 490.12,0 589.38,0 589.38,-18.5"/>
<text text-anchor="middle" x="539.75" y="-5" font-family="Helvetica,sans-Serif" font-size="10.00">utils_list_node_add</text>
</a>
</g>
</g>
<!-- Node16&#45;&gt;Node17 -->
<g id="edge18_Node000016_Node000017" class="edge">
<title>Node16&#45;&gt;Node17</title>
<g id="a_edge18_Node000016_Node000017"><a xlink:title=" ">
<path fill="none" stroke="#63b8ff" d="M415.34,-20.88C433.98,-19.13 457.29,-16.93 478.62,-14.92"/>
<polygon fill="#63b8ff" stroke="#63b8ff" points="478.75,-18.42 488.38,-14 478.09,-11.45 478.75,-18.42"/>
</a>
</g>
</g>
</g>
</svg>
