<?xml version="1.0" encoding="UTF-8" standalone="no"?>
<!DOCTYPE svg PUBLIC "-//W3C//DTD SVG 1.1//EN"
 "http://www.w3.org/Graphics/SVG/1.1/DTD/svg11.dtd">
<!-- Generated by graphviz version 12.2.1 (0)
 -->
<!-- Title: arax_proc_put Pages: 1 -->
<svg width="339pt" height="64pt"
 viewBox="0.00 0.00 338.75 63.50" xmlns="http://www.w3.org/2000/svg" xmlns:xlink="http://www.w3.org/1999/xlink">
<g id="graph0" class="graph" transform="scale(1 1) rotate(0) translate(4 59.5)">
<title>arax_proc_put</title>
<!-- Node1 -->
<g id="Node000001" class="node">
<title>Node1</title>
<g id="a_Node000001"><a xlink:title=" ">
<polygon fill="#999999" stroke="#666666" points="330.75,-36.5 252.5,-36.5 252.5,-18 330.75,-18 330.75,-36.5"/>
<text text-anchor="middle" x="291.62" y="-23" font-family="Helvetica,sans-Serif" font-size="10.00">arax_proc_put</text>
</a>
</g>
</g>
<!-- Node2 -->
<g id="Node000002" class="node">
<title>Node2</title>
<g id="a_Node000002"><a xlink:href="a01922.html#a696bc4319d0f6c6baa7d797a8df6b56f" target="_top" xlink:title=" ">
<polygon fill="white" stroke="#666666" points="216.5,-55.5 138.25,-55.5 138.25,-37 216.5,-37 216.5,-55.5"/>
<text text-anchor="middle" x="177.38" y="-42" font-family="Helvetica,sans-Serif" font-size="10.00">arax_data_get</text>
</a>
</g>
</g>
<!-- Node1&#45;&gt;Node2 -->
<g id="edge1_Node000001_Node000002" class="edge">
<title>Node1&#45;&gt;Node2</title>
<g id="a_edge1_Node000001_Node000002"><a xlink:title=" ">
<path fill="none" stroke="#63b8ff" d="M241.06,-35.64C232.96,-37.01 224.68,-38.41 216.9,-39.73"/>
<polygon fill="#63b8ff" stroke="#63b8ff" points="241.54,-39.11 250.82,-33.99 240.37,-32.21 241.54,-39.11"/>
</a>
</g>
</g>
<!-- Node4 -->
<g id="Node000004" class="node">
<title>Node4</title>
<g id="a_Node000004"><a xlink:href="a01922.html#a8995f71dba475975efc37756783cfce9" target="_top" xlink:title=" ">
<polygon fill="white" stroke="#666666" points="216.5,-18.5 138.25,-18.5 138.25,0 216.5,0 216.5,-18.5"/>
<text text-anchor="middle" x="177.38" y="-5" font-family="Helvetica,sans-Serif" font-size="10.00">arax_data_set</text>
</a>
</g>
</g>
<!-- Node1&#45;&gt;Node4 -->
<g id="edge3_Node000001_Node000004" class="edge">
<title>Node1&#45;&gt;Node4</title>
<g id="a_edge3_Node000001_Node000004"><a xlink:title=" ">
<path fill="none" stroke="#63b8ff" d="M241.06,-19.3C232.96,-18 224.68,-16.68 216.9,-15.43"/>
<polygon fill="#63b8ff" stroke="#63b8ff" points="240.39,-22.74 250.81,-20.87 241.49,-15.83 240.39,-22.74"/>
</a>
</g>
</g>
<!-- Node3 -->
<g id="Node000003" class="node">
<title>Node3</title>
<g id="a_Node000003"><a xlink:href="a01922.html#a7d8356bd5c8b6a8d7dffc6ba94cc22e5" target="_top" xlink:title=" ">
<polygon fill="white" stroke="#666666" points="102.25,-36.5 0,-36.5 0,-18 102.25,-18 102.25,-36.5"/>
<text text-anchor="middle" x="51.12" y="-23" font-family="Helvetica,sans-Serif" font-size="10.00">arax_data_memcpy</text>
</a>
</g>
</g>
<!-- Node2&#45;&gt;Node3 -->
<g id="edge2_Node000002_Node000003" class="edge">
<title>Node2&#45;&gt;Node3</title>
<g id="a_edge2_Node000002_Node000003"><a xlink:title=" ">
<path fill="none" stroke="#63b8ff" d="M126.94,-38.69C118.87,-37.46 110.51,-36.18 102.42,-34.94"/>
<polygon fill="#63b8ff" stroke="#63b8ff" points="126.17,-42.11 136.59,-40.17 127.23,-35.19 126.17,-42.11"/>
</a>
</g>
</g>
<!-- Node4&#45;&gt;Node3 -->
<g id="edge4_Node000004_Node000003" class="edge">
<title>Node4&#45;&gt;Node3</title>
<g id="a_edge4_Node000004_Node000003"><a xlink:title=" ">
<path fill="none" stroke="#63b8ff" d="M126.94,-16.41C118.87,-17.58 110.51,-18.79 102.42,-19.96"/>
<polygon fill="#63b8ff" stroke="#63b8ff" points="127.19,-19.91 136.58,-15.01 126.19,-12.98 127.19,-19.91"/>
</a>
</g>
</g>
</g>
</svg>
