<?xml version="1.0" encoding="UTF-8" standalone="no"?>
<!DOCTYPE svg PUBLIC "-//W3C//DTD SVG 1.1//EN"
 "http://www.w3.org/Graphics/SVG/1.1/DTD/svg11.dtd">
<!-- Generated by graphviz version 8.0.5 (0)
 -->
<!-- Title: arax_task_issue_sync Pages: 1 -->
<svg width="1491pt" height="325pt"
 viewBox="0.00 0.00 1491.00 325.25" xmlns="http://www.w3.org/2000/svg" xmlns:xlink="http://www.w3.org/1999/xlink">
<g id="graph0" class="graph" transform="scale(1 1) rotate(0) translate(4 321.25)">
<title>arax_task_issue_sync</title>
<!-- Node1 -->
<g id="Node000001" class="node">
<title>Node1</title>
<g id="a_Node000001"><a xlink:title=" ">
<polygon fill="#999999" stroke="#666666" points="113.5,-168.25 0,-168.25 0,-149.75 113.5,-149.75 113.5,-168.25"/>
<text text-anchor="middle" x="56.75" y="-154.75" font-family="Helvetica,sans-Serif" font-size="10.00">arax_task_issue_sync</text>
</a>
</g>
</g>
<!-- Node2 -->
<g id="Node000002" class="node">
<title>Node2</title>
<g id="a_Node000002"><a xlink:href="a02177.html#ga55195957c1cde1508257782716aa6db3" target="_top" xlink:title=" ">
<polygon fill="white" stroke="#666666" points="234.12,-168.25 152.88,-168.25 152.88,-149.75 234.12,-149.75 234.12,-168.25"/>
<text text-anchor="middle" x="193.5" y="-154.75" font-family="Helvetica,sans-Serif" font-size="10.00">arax_task_free</text>
</a>
</g>
</g>
<!-- Node1&#45;&gt;Node2 -->
<g id="edge1_Node000001_Node000002" class="edge">
<title>Node1&#45;&gt;Node2</title>
<g id="a_edge1_Node000001_Node000002"><a xlink:title=" ">
<path fill="none" stroke="#63b8ff" d="M113.73,-159C122.98,-159 132.53,-159 141.65,-159"/>
<polygon fill="#63b8ff" stroke="#63b8ff" points="141.51,-162.5 151.51,-159 141.51,-155.5 141.51,-162.5"/>
</a>
</g>
</g>
<!-- Node13 -->
<g id="Node000013" class="node">
<title>Node13</title>
<g id="a_Node000013"><a xlink:href="a02177.html#gac9f0f3fbb14da879d3ff09bd367bbb24" target="_top" xlink:title=" ">
<polygon fill="white" stroke="#666666" points="237.5,-94.25 149.5,-94.25 149.5,-75.75 237.5,-75.75 237.5,-94.25"/>
<text text-anchor="middle" x="193.5" y="-80.75" font-family="Helvetica,sans-Serif" font-size="10.00">arax_task_issue</text>
</a>
</g>
</g>
<!-- Node1&#45;&gt;Node13 -->
<g id="edge12_Node000001_Node000013" class="edge">
<title>Node1&#45;&gt;Node13</title>
<g id="a_edge12_Node000001_Node000013"><a xlink:title=" ">
<path fill="none" stroke="#63b8ff" d="M75.37,-149.33C98.27,-136.75 138.49,-114.66 165.32,-99.93"/>
<polygon fill="#63b8ff" stroke="#63b8ff" points="166.8,-102.56 173.88,-94.68 163.43,-96.43 166.8,-102.56"/>
</a>
</g>
</g>
<!-- Node36 -->
<g id="Node000036" class="node">
<title>Node36</title>
<g id="a_Node000036"><a xlink:href="a02177.html#gacb098c0a8c3908f3fdd32e7ea7d780bb" target="_top" xlink:title=" ">
<polygon fill="white" stroke="#666666" points="234.5,-224.25 152.5,-224.25 152.5,-205.75 234.5,-205.75 234.5,-224.25"/>
<text text-anchor="middle" x="193.5" y="-210.75" font-family="Helvetica,sans-Serif" font-size="10.00">arax_task_wait</text>
</a>
</g>
</g>
<!-- Node1&#45;&gt;Node36 -->
<g id="edge48_Node000001_Node000036" class="edge">
<title>Node1&#45;&gt;Node36</title>
<g id="a_edge48_Node000001_Node000036"><a xlink:title=" ">
<path fill="none" stroke="#63b8ff" d="M80.91,-168.63C102.51,-177.61 134.96,-191.09 159.3,-201.21"/>
<polygon fill="#63b8ff" stroke="#63b8ff" points="157.61,-204.71 168.19,-205.32 160.3,-198.25 157.61,-204.71"/>
</a>
</g>
</g>
<!-- Node3 -->
<g id="Node000003" class="node">
<title>Node3</title>
<g id="a_Node000003"><a xlink:href="a01910.html#afe7e4a63c40fbcaae742b8de8693483f" target="_top" xlink:title=" ">
<polygon fill="white" stroke="#666666" points="844.5,-168.25 740,-168.25 740,-149.75 844.5,-149.75 844.5,-168.25"/>
<text text-anchor="middle" x="792.25" y="-154.75" font-family="Helvetica,sans-Serif" font-size="10.00">arax_object_ref_dec</text>
</a>
</g>
</g>
<!-- Node2&#45;&gt;Node3 -->
<g id="edge2_Node000002_Node000003" class="edge">
<title>Node2&#45;&gt;Node3</title>
<g id="a_edge2_Node000002_Node000003"><a xlink:title=" ">
<path fill="none" stroke="#63b8ff" d="M234.58,-159C336.56,-159 606.45,-159 729.06,-159"/>
<polygon fill="#63b8ff" stroke="#63b8ff" points="728.75,-162.5 738.75,-159 728.75,-155.5 728.75,-162.5"/>
</a>
</g>
</g>
<!-- Node4 -->
<g id="Node000004" class="node">
<title>Node4</title>
<g id="a_Node000004"><a xlink:href="a01913.html#a5144f906658718ef853a8d18dda1e724" target="_top" xlink:title=" ">
<polygon fill="white" stroke="#666666" points="995.12,-140.25 895.88,-140.25 895.88,-121.75 995.12,-121.75 995.12,-140.25"/>
<text text-anchor="middle" x="945.5" y="-126.75" font-family="Helvetica,sans-Serif" font-size="10.00">arax_pipe_size_inc</text>
</a>
</g>
</g>
<!-- Node3&#45;&gt;Node4 -->
<g id="edge3_Node000003_Node000004" class="edge">
<title>Node3&#45;&gt;Node4</title>
<g id="a_edge3_Node000003_Node000004"><a xlink:title=" ">
<path fill="none" stroke="#63b8ff" d="M844.88,-149.45C857.78,-147.06 871.71,-144.48 884.96,-142.03"/>
<polygon fill="#63b8ff" stroke="#63b8ff" points="885.21,-145.35 894.4,-140.09 883.93,-138.47 885.21,-145.35"/>
</a>
</g>
</g>
<!-- Node12 -->
<g id="Node000012" class="node">
<title>Node12</title>
<g id="a_Node000012"><a xlink:href="a01946.html#a0c85e5516222ab7e7fc354c614760ec5" target="_top" xlink:title=" ">
<polygon fill="white" stroke="#666666" points="980.5,-177.25 910.5,-177.25 910.5,-158.75 980.5,-158.75 980.5,-177.25"/>
<text text-anchor="middle" x="945.5" y="-163.75" font-family="Helvetica,sans-Serif" font-size="10.00">utils_list_del</text>
</a>
</g>
</g>
<!-- Node3&#45;&gt;Node12 -->
<g id="edge11_Node000003_Node000012" class="edge">
<title>Node3&#45;&gt;Node12</title>
<g id="a_edge11_Node000003_Node000012"><a xlink:title=" ">
<path fill="none" stroke="#63b8ff" d="M844.88,-162.08C862.57,-163.13 882.21,-164.3 899.35,-165.32"/>
<polygon fill="#63b8ff" stroke="#63b8ff" points="899.02,-168.86 909.21,-165.96 899.43,-161.87 899.02,-168.86"/>
</a>
</g>
</g>
<!-- Node5 -->
<g id="Node000005" class="node">
<title>Node5</title>
<g id="a_Node000005"><a xlink:href="a01925.html#a22aaf13eb56eb1832e725ef73236116f" target="_top" xlink:title=" ">
<polygon fill="white" stroke="#666666" points="1151,-140.25 1039.75,-140.25 1039.75,-121.75 1151,-121.75 1151,-140.25"/>
<text text-anchor="middle" x="1095.38" y="-126.75" font-family="Helvetica,sans-Serif" font-size="10.00">arax_throttle_size_inc</text>
</a>
</g>
</g>
<!-- Node4&#45;&gt;Node5 -->
<g id="edge4_Node000004_Node000005" class="edge">
<title>Node4&#45;&gt;Node5</title>
<g id="a_edge4_Node000004_Node000005"><a xlink:title=" ">
<path fill="none" stroke="#63b8ff" d="M995.33,-131C1006.04,-131 1017.55,-131 1028.79,-131"/>
<polygon fill="#63b8ff" stroke="#63b8ff" points="1028.46,-134.5 1038.46,-131 1028.46,-127.5 1028.46,-134.5"/>
</a>
</g>
</g>
<!-- Node6 -->
<g id="Node000006" class="node">
<title>Node6</title>
<g id="a_Node000006"><a xlink:href="a02352.html#aed6af4d83e934e3e654ead541b15f2d9" target="_top" xlink:title=" ">
<polygon fill="white" stroke="#666666" points="1302.75,-177.25 1193.75,-177.25 1193.75,-158.75 1302.75,-158.75 1302.75,-177.25"/>
<text text-anchor="middle" x="1248.25" y="-163.75" font-family="Helvetica,sans-Serif" font-size="10.00">async_condition_lock</text>
</a>
</g>
</g>
<!-- Node5&#45;&gt;Node6 -->
<g id="edge5_Node000005_Node000006" class="edge">
<title>Node5&#45;&gt;Node6</title>
<g id="a_edge5_Node000005_Node000006"><a xlink:title=" ">
<path fill="none" stroke="#63b8ff" d="M1136.02,-140.72C1154.74,-145.32 1177.29,-150.85 1197.18,-155.73"/>
<polygon fill="#63b8ff" stroke="#63b8ff" points="1196.07,-159.3 1206.61,-158.28 1197.73,-152.5 1196.07,-159.3"/>
</a>
</g>
</g>
<!-- Node8 -->
<g id="Node000008" class="node">
<title>Node8</title>
<g id="a_Node000008"><a xlink:href="a02352.html#a45a896fb606c2aa66a5a4c2af59ce494" target="_top" xlink:title=" ">
<polygon fill="white" stroke="#666666" points="1305.75,-103.25 1190.75,-103.25 1190.75,-84.75 1305.75,-84.75 1305.75,-103.25"/>
<text text-anchor="middle" x="1248.25" y="-89.75" font-family="Helvetica,sans-Serif" font-size="10.00">async_condition_notify</text>
</a>
</g>
</g>
<!-- Node5&#45;&gt;Node8 -->
<g id="edge7_Node000005_Node000008" class="edge">
<title>Node5&#45;&gt;Node8</title>
<g id="a_edge7_Node000005_Node000008"><a xlink:title=" ">
<path fill="none" stroke="#63b8ff" d="M1136.02,-121.28C1154.74,-116.69 1177.29,-111.16 1197.18,-106.28"/>
<polygon fill="#63b8ff" stroke="#63b8ff" points="1197.73,-109.51 1206.61,-103.72 1196.07,-102.71 1197.73,-109.51"/>
</a>
</g>
</g>
<!-- Node10 -->
<g id="Node000010" class="node">
<title>Node10</title>
<g id="a_Node000010"><a xlink:href="a02352.html#a3bbcb7c4c024e99d5c4ba52b61dfbbf7" target="_top" xlink:title=" ">
<polygon fill="white" stroke="#666666" points="1308,-140.25 1188.5,-140.25 1188.5,-121.75 1308,-121.75 1308,-140.25"/>
<text text-anchor="middle" x="1248.25" y="-126.75" font-family="Helvetica,sans-Serif" font-size="10.00">async_condition_unlock</text>
</a>
</g>
</g>
<!-- Node5&#45;&gt;Node10 -->
<g id="edge9_Node000005_Node000010" class="edge">
<title>Node5&#45;&gt;Node10</title>
<g id="a_edge9_Node000005_Node000010"><a xlink:title=" ">
<path fill="none" stroke="#63b8ff" d="M1151.27,-131C1159.68,-131 1168.46,-131 1177.15,-131"/>
<polygon fill="#63b8ff" stroke="#63b8ff" points="1177.07,-134.5 1187.07,-131 1177.07,-127.5 1177.07,-134.5"/>
</a>
</g>
</g>
<!-- Node7 -->
<g id="Node000007" class="node">
<title>Node7</title>
<g id="a_Node000007"><a xlink:href="a02346.html#aebf9e72bb6cbd8b9e33489d46c25075d" target="_top" xlink:title=" ">
<polygon fill="white" stroke="#666666" points="1471.75,-177.25 1355.25,-177.25 1355.25,-158.75 1471.75,-158.75 1471.75,-177.25"/>
<text text-anchor="middle" x="1413.5" y="-163.75" font-family="Helvetica,sans-Serif" font-size="10.00">async_completion_wait</text>
</a>
</g>
</g>
<!-- Node6&#45;&gt;Node7 -->
<g id="edge6_Node000006_Node000007" class="edge">
<title>Node6&#45;&gt;Node7</title>
<g id="a_edge6_Node000006_Node000007"><a xlink:title=" ">
<path fill="none" stroke="#63b8ff" d="M1303.16,-168C1316.27,-168 1330.48,-168 1344.16,-168"/>
<polygon fill="#63b8ff" stroke="#63b8ff" points="1344,-171.5 1354,-168 1344,-164.5 1344,-171.5"/>
</a>
</g>
</g>
<!-- Node9 -->
<g id="Node000009" class="node">
<title>Node9</title>
<g id="a_Node000009"><a xlink:href="a02346.html#a0fa370eee5160963e617d1daf1c07363" target="_top" xlink:title=" ">
<polygon fill="white" stroke="#666666" points="1469.88,-103.25 1357.12,-103.25 1357.12,-84.75 1469.88,-84.75 1469.88,-103.25"/>
<text text-anchor="middle" x="1413.5" y="-89.75" font-family="Helvetica,sans-Serif" font-size="10.00">async_semaphore_inc</text>
</a>
</g>
</g>
<!-- Node8&#45;&gt;Node9 -->
<g id="edge8_Node000008_Node000009" class="edge">
<title>Node8&#45;&gt;Node9</title>
<g id="a_edge8_Node000008_Node000009"><a xlink:title=" ">
<path fill="none" stroke="#63b8ff" d="M1305.89,-94C1318.77,-94 1332.56,-94 1345.82,-94"/>
<polygon fill="#63b8ff" stroke="#63b8ff" points="1345.79,-97.5 1355.79,-94 1345.79,-90.5 1345.79,-97.5"/>
</a>
</g>
</g>
<!-- Node11 -->
<g id="Node000011" class="node">
<title>Node11</title>
<g id="a_Node000011"><a xlink:href="a02346.html#ad1d30ecbf6bff6457b680aa940281072" target="_top" xlink:title=" ">
<polygon fill="white" stroke="#666666" points="1483,-140.25 1344,-140.25 1344,-121.75 1483,-121.75 1483,-140.25"/>
<text text-anchor="middle" x="1413.5" y="-126.75" font-family="Helvetica,sans-Serif" font-size="10.00">async_completion_complete</text>
</a>
</g>
</g>
<!-- Node10&#45;&gt;Node11 -->
<g id="edge10_Node000010_Node000011" class="edge">
<title>Node10&#45;&gt;Node11</title>
<g id="a_edge10_Node000010_Node000011"><a xlink:title=" ">
<path fill="none" stroke="#63b8ff" d="M1308.19,-131C1316.19,-131 1324.51,-131 1332.8,-131"/>
<polygon fill="#63b8ff" stroke="#63b8ff" points="1332.65,-134.5 1342.65,-131 1332.65,-127.5 1332.65,-134.5"/>
</a>
</g>
</g>
<!-- Node14 -->
<g id="Node000014" class="node">
<title>Node14</title>
<g id="a_Node000014"><a xlink:href="a01922.html#a27bee94f7a23281c8b2b72ec433f6059" target="_top" xlink:title=" ">
<polygon fill="white" stroke="#666666" points="370.12,-131.25 285.12,-131.25 285.12,-112.75 370.12,-112.75 370.12,-131.25"/>
<text text-anchor="middle" x="327.62" y="-117.75" font-family="Helvetica,sans-Serif" font-size="10.00">arax_task_alloc</text>
</a>
</g>
</g>
<!-- Node13&#45;&gt;Node14 -->
<g id="edge13_Node000013_Node000014" class="edge">
<title>Node13&#45;&gt;Node14</title>
<g id="a_edge13_Node000013_Node000014"><a xlink:title=" ">
<path fill="none" stroke="#63b8ff" d="M229.21,-94.72C245.3,-99.23 264.61,-104.64 281.78,-109.44"/>
<polygon fill="#63b8ff" stroke="#63b8ff" points="280.57,-113.02 291.14,-112.35 282.46,-106.28 280.57,-113.02"/>
</a>
</g>
</g>
<!-- Node30 -->
<g id="Node000030" class="node">
<title>Node30</title>
<g id="a_Node000030"><a xlink:href="a01922.html#aa3cb73b347940187fb3399f51b1a55b7" target="_top" xlink:title=" ">
<polygon fill="white" stroke="#666666" points="381.38,-94.25 273.88,-94.25 273.88,-75.75 381.38,-75.75 381.38,-94.25"/>
<text text-anchor="middle" x="327.62" y="-80.75" font-family="Helvetica,sans-Serif" font-size="10.00">arax_task_host_data</text>
</a>
</g>
</g>
<!-- Node13&#45;&gt;Node30 -->
<g id="edge38_Node000013_Node000030" class="edge">
<title>Node13&#45;&gt;Node30</title>
<g id="a_edge38_Node000013_Node000030"><a xlink:title=" ">
<path fill="none" stroke="#63b8ff" d="M237.76,-85C245.72,-85 254.17,-85 262.59,-85"/>
<polygon fill="#63b8ff" stroke="#63b8ff" points="262.57,-88.5 272.57,-85 262.57,-81.5 262.57,-88.5"/>
</a>
</g>
</g>
<!-- Node31 -->
<g id="Node000031" class="node">
<title>Node31</title>
<g id="a_Node000031"><a xlink:href="a01922.html#ace08f924cb86d1310099621564536657" target="_top" xlink:title=" ">
<polygon fill="white" stroke="#666666" points="680,-19.25 586,-19.25 586,-0.75 680,-0.75 680,-19.25"/>
<text text-anchor="middle" x="633" y="-5.75" font-family="Helvetica,sans-Serif" font-size="10.00">arax_task_submit</text>
</a>
</g>
</g>
<!-- Node13&#45;&gt;Node31 -->
<g id="edge39_Node000013_Node000031" class="edge">
<title>Node13&#45;&gt;Node31</title>
<g id="a_edge39_Node000013_Node000031"><a xlink:title=" ">
<path fill="none" stroke="#63b8ff" d="M204.2,-75.5C218.17,-62.5 245.38,-39.7 273.5,-30 375.24,5.07 502.8,1.93 575.08,-3.83"/>
<polygon fill="#63b8ff" stroke="#63b8ff" points="574.5,-7.38 584.76,-4.73 575.09,-0.4 574.5,-7.38"/>
</a>
</g>
</g>
<!-- Node35 -->
<g id="Node000035" class="node">
<title>Node35</title>
<g id="a_Node000035"><a xlink:href="a01898.html#a226d4d420328a42fd671699ae60c4c3a" target="_top" xlink:title=" ">
<polygon fill="white" stroke="#666666" points="373.88,-57.25 281.38,-57.25 281.38,-38.75 373.88,-38.75 373.88,-57.25"/>
<text text-anchor="middle" x="327.62" y="-43.75" font-family="Helvetica,sans-Serif" font-size="10.00">check_semantics</text>
</a>
</g>
</g>
<!-- Node13&#45;&gt;Node35 -->
<g id="edge47_Node000013_Node000035" class="edge">
<title>Node13&#45;&gt;Node35</title>
<g id="a_edge47_Node000013_Node000035"><a xlink:title=" ">
<path fill="none" stroke="#63b8ff" d="M229.21,-75.28C245.3,-70.78 264.61,-65.37 281.78,-60.56"/>
<polygon fill="#63b8ff" stroke="#63b8ff" points="282.46,-63.73 291.14,-57.66 280.57,-56.99 282.46,-63.73"/>
</a>
</g>
</g>
<!-- Node15 -->
<g id="Node000015" class="node">
<title>Node15</title>
<g id="a_Node000015"><a xlink:href="a01931.html#a1dc669466d6f52d5be8af2d991512ac2" target="_top" xlink:title=" ">
<polygon fill="white" stroke="#666666" points="527.88,-94.25 424.12,-94.25 424.12,-75.75 527.88,-75.75 527.88,-94.25"/>
<text text-anchor="middle" x="476" y="-80.75" font-family="Helvetica,sans-Serif" font-size="10.00">arax_data_input_init</text>
</a>
</g>
</g>
<!-- Node14&#45;&gt;Node15 -->
<g id="edge14_Node000014_Node000015" class="edge">
<title>Node14&#45;&gt;Node15</title>
<g id="a_edge14_Node000014_Node000015"><a xlink:title=" ">
<path fill="none" stroke="#63b8ff" d="M367.08,-112.28C385.08,-107.73 406.73,-102.26 425.89,-97.42"/>
<polygon fill="#63b8ff" stroke="#63b8ff" points="426.71,-100.57 435.54,-94.72 424.99,-93.78 426.71,-100.57"/>
</a>
</g>
</g>
<!-- Node19 -->
<g id="Node000019" class="node">
<title>Node19</title>
<g id="a_Node000019"><a xlink:href="a01931.html#a18d07d808917e0b971d46332e9e64da4" target="_top" xlink:title=" ">
<polygon fill="white" stroke="#666666" points="530.88,-57.25 421.12,-57.25 421.12,-38.75 530.88,-38.75 530.88,-57.25"/>
<text text-anchor="middle" x="476" y="-43.75" font-family="Helvetica,sans-Serif" font-size="10.00">arax_data_output_init</text>
</a>
</g>
</g>
<!-- Node14&#45;&gt;Node19 -->
<g id="edge20_Node000014_Node000019" class="edge">
<title>Node14&#45;&gt;Node19</title>
<g id="a_edge20_Node000014_Node000019"><a xlink:title=" ">
<path fill="none" stroke="#63b8ff" d="M362.83,-112.3C369.36,-109.75 375.96,-106.67 381.75,-103 400.87,-90.9 398.49,-78.89 417.75,-67 420.87,-65.08 424.22,-63.32 427.66,-61.72"/>
<polygon fill="#63b8ff" stroke="#63b8ff" points="428.62,-64.7 436.53,-57.64 425.95,-58.23 428.62,-64.7"/>
</a>
</g>
</g>
<!-- Node20 -->
<g id="Node000020" class="node">
<title>Node20</title>
<g id="a_Node000020"><a xlink:href="a01910.html#a402bbd6fa197c2c48d527325e5e2cf5b" target="_top" xlink:title=" ">
<polygon fill="white" stroke="#666666" points="685.25,-243.25 580.75,-243.25 580.75,-224.75 685.25,-224.75 685.25,-243.25"/>
<text text-anchor="middle" x="633" y="-229.75" font-family="Helvetica,sans-Serif" font-size="10.00">arax_object_register</text>
</a>
</g>
</g>
<!-- Node14&#45;&gt;Node20 -->
<g id="edge23_Node000014_Node000020" class="edge">
<title>Node14&#45;&gt;Node20</title>
<g id="a_edge23_Node000014_Node000020"><a xlink:title=" ">
<path fill="none" stroke="#63b8ff" d="M355.02,-131.75C409.39,-151.82 533.97,-197.81 595.81,-220.64"/>
<polygon fill="#63b8ff" stroke="#63b8ff" points="594.29,-224.18 604.89,-224.36 596.72,-217.62 594.29,-224.18"/>
</a>
</g>
</g>
<!-- Node29 -->
<g id="Node000029" class="node">
<title>Node29</title>
<g id="a_Node000029"><a xlink:href="a02352.html#ac728117d73179c279de49e01ae905dda" target="_top" xlink:title=" ">
<polygon fill="white" stroke="#666666" points="532,-131.25 420,-131.25 420,-112.75 532,-112.75 532,-131.25"/>
<text text-anchor="middle" x="476" y="-117.75" font-family="Helvetica,sans-Serif" font-size="10.00">async_completion_init</text>
</a>
</g>
</g>
<!-- Node14&#45;&gt;Node29 -->
<g id="edge36_Node000014_Node000029" class="edge">
<title>Node14&#45;&gt;Node29</title>
<g id="a_edge36_Node000014_Node000029"><a xlink:title=" ">
<path fill="none" stroke="#63b8ff" d="M370.57,-122C382.52,-122 395.83,-122 408.84,-122"/>
<polygon fill="#63b8ff" stroke="#63b8ff" points="408.67,-125.5 418.67,-122 408.67,-118.5 408.67,-125.5"/>
</a>
</g>
</g>
<!-- Node16 -->
<g id="Node000016" class="node">
<title>Node16</title>
<g id="a_Node000016"><a xlink:href="a01931.html#a4b65f90a821aca384f0ca1cff7bd1846" target="_top" xlink:title=" ">
<polygon fill="white" stroke="#666666" points="695.75,-131.25 570.25,-131.25 570.25,-112.75 695.75,-112.75 695.75,-131.25"/>
<text text-anchor="middle" x="633" y="-117.75" font-family="Helvetica,sans-Serif" font-size="10.00">arax_data_migrate_accel</text>
</a>
</g>
</g>
<!-- Node15&#45;&gt;Node16 -->
<g id="edge15_Node000015_Node000016" class="edge">
<title>Node15&#45;&gt;Node16</title>
<g id="a_edge15_Node000015_Node000016"><a xlink:title=" ">
<path fill="none" stroke="#63b8ff" d="M517.72,-94.72C537.05,-99.34 560.34,-104.9 580.85,-109.79"/>
<polygon fill="#63b8ff" stroke="#63b8ff" points="579.74,-113.37 590.28,-112.28 581.36,-106.56 579.74,-113.37"/>
</a>
</g>
</g>
<!-- Node17 -->
<g id="Node000017" class="node">
<title>Node17</title>
<g id="a_Node000017"><a xlink:href="a01910.html#a9255b8011e6d7c9b28c7df40065efb28" target="_top" xlink:title=" ">
<polygon fill="white" stroke="#666666" points="843,-85.25 741.5,-85.25 741.5,-66.75 843,-66.75 843,-85.25"/>
<text text-anchor="middle" x="792.25" y="-71.75" font-family="Helvetica,sans-Serif" font-size="10.00">arax_object_ref_inc</text>
</a>
</g>
</g>
<!-- Node15&#45;&gt;Node17 -->
<g id="edge19_Node000015_Node000017" class="edge">
<title>Node15&#45;&gt;Node17</title>
<g id="a_edge19_Node000015_Node000017"><a xlink:title=" ">
<path fill="none" stroke="#63b8ff" d="M528.19,-83.54C583.41,-81.96 671.32,-79.44 730.13,-77.75"/>
<polygon fill="#63b8ff" stroke="#63b8ff" points="730.23,-81.22 740.12,-77.44 730.03,-74.23 730.23,-81.22"/>
</a>
</g>
</g>
<!-- Node16&#45;&gt;Node3 -->
<g id="edge16_Node000016_Node000003" class="edge">
<title>Node16&#45;&gt;Node3</title>
<g id="a_edge16_Node000016_Node000003"><a xlink:title=" ">
<path fill="none" stroke="#63b8ff" d="M675.32,-131.72C694.92,-136.34 718.55,-141.9 739.35,-146.79"/>
<polygon fill="#63b8ff" stroke="#63b8ff" points="738.4,-150.4 748.94,-149.28 740.01,-143.59 738.4,-150.4"/>
</a>
</g>
</g>
<!-- Node16&#45;&gt;Node17 -->
<g id="edge17_Node000016_Node000017" class="edge">
<title>Node16&#45;&gt;Node17</title>
<g id="a_edge17_Node000016_Node000017"><a xlink:title=" ">
<path fill="none" stroke="#63b8ff" d="M666.96,-112.36C690.37,-105.51 722.03,-96.25 747.54,-88.79"/>
<polygon fill="#63b8ff" stroke="#63b8ff" points="748.44,-91.88 757.06,-85.71 746.48,-85.16 748.44,-91.88"/>
</a>
</g>
</g>
<!-- Node18 -->
<g id="Node000018" class="node">
<title>Node18</title>
<g id="a_Node000018"><a xlink:href="a01910.html#a668fd893484b6e2d67d8b372b508d14f" target="_top" xlink:title=" ">
<polygon fill="white" stroke="#666666" points="852.75,-131.25 731.75,-131.25 731.75,-112.75 852.75,-112.75 852.75,-131.25"/>
<text text-anchor="middle" x="792.25" y="-117.75" font-family="Helvetica,sans-Serif" font-size="10.00">arax_object_type_to_str</text>
</a>
</g>
</g>
<!-- Node16&#45;&gt;Node18 -->
<g id="edge18_Node000016_Node000018" class="edge">
<title>Node16&#45;&gt;Node18</title>
<g id="a_edge18_Node000016_Node000018"><a xlink:title=" ">
<path fill="none" stroke="#63b8ff" d="M696.15,-122C704.12,-122 712.32,-122 720.41,-122"/>
<polygon fill="#63b8ff" stroke="#63b8ff" points="720.35,-125.5 730.35,-122 720.35,-118.5 720.35,-125.5"/>
</a>
</g>
</g>
<!-- Node19&#45;&gt;Node16 -->
<g id="edge21_Node000019_Node000016" class="edge">
<title>Node19&#45;&gt;Node16</title>
<g id="a_edge21_Node000019_Node000016"><a xlink:title=" ">
<path fill="none" stroke="#63b8ff" d="M509.81,-57.69C517.91,-60.41 526.49,-63.57 534.25,-67 560.18,-78.47 588.24,-94.69 607.61,-106.54"/>
<polygon fill="#63b8ff" stroke="#63b8ff" points="605.55,-110 615.9,-112.29 609.24,-104.05 605.55,-110"/>
</a>
</g>
</g>
<!-- Node19&#45;&gt;Node17 -->
<g id="edge22_Node000019_Node000017" class="edge">
<title>Node19&#45;&gt;Node17</title>
<g id="a_edge22_Node000019_Node000017"><a xlink:title=" ">
<path fill="none" stroke="#63b8ff" d="M531.02,-52.82C586.41,-57.75 672.42,-65.42 730.23,-70.57"/>
<polygon fill="#63b8ff" stroke="#63b8ff" points="729.77,-74.13 740.04,-71.53 730.39,-67.16 729.77,-74.13"/>
</a>
</g>
</g>
<!-- Node21 -->
<g id="Node000021" class="node">
<title>Node21</title>
<g id="a_Node000021"><a xlink:href="a01913.html#a1cfa2c90268c6e53ce376beb7cce153c" target="_top" xlink:title=" ">
<polygon fill="white" stroke="#666666" points="996.62,-224.25 894.38,-224.25 894.38,-205.75 996.62,-205.75 996.62,-224.25"/>
<text text-anchor="middle" x="945.5" y="-210.75" font-family="Helvetica,sans-Serif" font-size="10.00">arax_pipe_size_dec</text>
</a>
</g>
</g>
<!-- Node20&#45;&gt;Node21 -->
<g id="edge24_Node000020_Node000021" class="edge">
<title>Node20&#45;&gt;Node21</title>
<g id="a_edge24_Node000020_Node000021"><a xlink:title=" ">
<path fill="none" stroke="#63b8ff" d="M685.62,-230.84C739.97,-227.52 825.51,-222.28 883.24,-218.75"/>
<polygon fill="#63b8ff" stroke="#63b8ff" points="883.28,-222.2 893.04,-218.09 882.85,-215.21 883.28,-222.2"/>
</a>
</g>
</g>
<!-- Node25 -->
<g id="Node000025" class="node">
<title>Node25</title>
<g id="a_Node000025"><a xlink:href="a02343.html#ac9828b5c2758940f6d3c7d4335228de5" target="_top" xlink:title=" ">
<polygon fill="white" stroke="#666666" points="841.88,-280.25 742.62,-280.25 742.62,-261.75 841.88,-261.75 841.88,-280.25"/>
<text text-anchor="middle" x="792.25" y="-266.75" font-family="Helvetica,sans-Serif" font-size="10.00">arch_alloc_allocate</text>
</a>
</g>
</g>
<!-- Node20&#45;&gt;Node25 -->
<g id="edge32_Node000020_Node000025" class="edge">
<title>Node20&#45;&gt;Node25</title>
<g id="a_edge32_Node000020_Node000025"><a xlink:title=" ">
<path fill="none" stroke="#63b8ff" d="M675.32,-243.72C694.92,-248.34 718.55,-253.9 739.35,-258.79"/>
<polygon fill="#63b8ff" stroke="#63b8ff" points="738.4,-262.4 748.94,-261.28 740.01,-255.59 738.4,-262.4"/>
</a>
</g>
</g>
<!-- Node26 -->
<g id="Node000026" class="node">
<title>Node26</title>
<g id="a_Node000026"><a xlink:href="a01946.html#ae06a9e78e6a4f6c9c8afcf0f4862ce29" target="_top" xlink:title=" ">
<polygon fill="white" stroke="#666666" points="828.75,-317.25 755.75,-317.25 755.75,-298.75 828.75,-298.75 828.75,-317.25"/>
<text text-anchor="middle" x="792.25" y="-303.75" font-family="Helvetica,sans-Serif" font-size="10.00">utils_list_add</text>
</a>
</g>
</g>
<!-- Node20&#45;&gt;Node26 -->
<g id="edge33_Node000020_Node000026" class="edge">
<title>Node20&#45;&gt;Node26</title>
<g id="a_edge33_Node000020_Node000026"><a xlink:title=" ">
<path fill="none" stroke="#63b8ff" d="M675.4,-243.67C682.45,-246.17 689.5,-249.24 695.75,-253 715.14,-264.67 712.43,-277.23 731.75,-289 735.93,-291.55 740.48,-293.79 745.14,-295.75"/>
<polygon fill="#63b8ff" stroke="#63b8ff" points="743.84,-299.37 754.43,-299.6 746.3,-292.82 743.84,-299.37"/>
</a>
</g>
</g>
<!-- Node28 -->
<g id="Node000028" class="node">
<title>Node28</title>
<g id="a_Node000028"><a xlink:href="a01946.html#a63f2791c9b5c8e2fa15967cfafb7ccbb" target="_top" xlink:title=" ">
<polygon fill="white" stroke="#666666" points="840.38,-206.25 744.12,-206.25 744.12,-187.75 840.38,-187.75 840.38,-206.25"/>
<text text-anchor="middle" x="792.25" y="-192.75" font-family="Helvetica,sans-Serif" font-size="10.00">utils_list_node_init</text>
</a>
</g>
</g>
<!-- Node20&#45;&gt;Node28 -->
<g id="edge35_Node000020_Node000028" class="edge">
<title>Node20&#45;&gt;Node28</title>
<g id="a_edge35_Node000020_Node000028"><a xlink:title=" ">
<path fill="none" stroke="#63b8ff" d="M675.32,-224.28C694.92,-219.67 718.55,-214.11 739.35,-209.21"/>
<polygon fill="#63b8ff" stroke="#63b8ff" points="740.01,-212.42 748.94,-206.72 738.4,-205.61 740.01,-212.42"/>
</a>
</g>
</g>
<!-- Node22 -->
<g id="Node000022" class="node">
<title>Node22</title>
<g id="a_Node000022"><a xlink:href="a01925.html#a8413a3584787f9b629e54b2ef9439f06" target="_top" xlink:title=" ">
<polygon fill="white" stroke="#666666" points="1152.5,-196.25 1038.25,-196.25 1038.25,-177.75 1152.5,-177.75 1152.5,-196.25"/>
<text text-anchor="middle" x="1095.38" y="-182.75" font-family="Helvetica,sans-Serif" font-size="10.00">arax_throttle_size_dec</text>
</a>
</g>
</g>
<!-- Node21&#45;&gt;Node22 -->
<g id="edge25_Node000021_Node000022" class="edge">
<title>Node21&#45;&gt;Node22</title>
<g id="a_edge25_Node000021_Node000022"><a xlink:title=" ">
<path fill="none" stroke="#63b8ff" d="M996.98,-205.45C1008.38,-203.29 1020.61,-200.97 1032.43,-198.73"/>
<polygon fill="#63b8ff" stroke="#63b8ff" points="1032.95,-202.01 1042.12,-196.71 1031.64,-195.13 1032.95,-202.01"/>
</a>
</g>
</g>
<!-- Node22&#45;&gt;Node6 -->
<g id="edge26_Node000022_Node000006" class="edge">
<title>Node22&#45;&gt;Node6</title>
<g id="a_edge26_Node000022_Node000006"><a xlink:title=" ">
<path fill="none" stroke="#63b8ff" d="M1152.98,-179.87C1162.69,-178.65 1172.83,-177.38 1182.72,-176.13"/>
<polygon fill="#63b8ff" stroke="#63b8ff" points="1182.84,-179.52 1192.32,-174.79 1181.96,-172.57 1182.84,-179.52"/>
</a>
</g>
</g>
<!-- Node22&#45;&gt;Node10 -->
<g id="edge27_Node000022_Node000010" class="edge">
<title>Node22&#45;&gt;Node10</title>
<g id="a_edge27_Node000022_Node000010"><a xlink:title=" ">
<path fill="none" stroke="#63b8ff" d="M1119.3,-177.28C1137.84,-169.55 1164.68,-158.63 1188.5,-150 1194.04,-148 1199.92,-145.97 1205.72,-144.04"/>
<polygon fill="#63b8ff" stroke="#63b8ff" points="1206.6,-147.1 1215.01,-140.66 1204.42,-140.45 1206.6,-147.1"/>
</a>
</g>
</g>
<!-- Node23 -->
<g id="Node000023" class="node">
<title>Node23</title>
<g id="a_Node000023"><a xlink:href="a02352.html#a1bfeaeb9b81855e640d7a67cc9d92b17" target="_top" xlink:title=" ">
<polygon fill="white" stroke="#666666" points="1302.38,-214.25 1194.12,-214.25 1194.12,-195.75 1302.38,-195.75 1302.38,-214.25"/>
<text text-anchor="middle" x="1248.25" y="-200.75" font-family="Helvetica,sans-Serif" font-size="10.00">async_condition_wait</text>
</a>
</g>
</g>
<!-- Node22&#45;&gt;Node23 -->
<g id="edge28_Node000022_Node000023" class="edge">
<title>Node22&#45;&gt;Node23</title>
<g id="a_edge28_Node000022_Node000023"><a xlink:title=" ">
<path fill="none" stroke="#63b8ff" d="M1152.98,-193.76C1162.81,-194.93 1173.09,-196.16 1183.1,-197.35"/>
<polygon fill="#63b8ff" stroke="#63b8ff" points="1182.47,-200.92 1192.82,-198.63 1183.3,-193.97 1182.47,-200.92"/>
</a>
</g>
</g>
<!-- Node23&#45;&gt;Node7 -->
<g id="edge30_Node000023_Node000007" class="edge">
<title>Node23&#45;&gt;Node7</title>
<g id="a_edge30_Node000023_Node000007"><a xlink:title=" ">
<path fill="none" stroke="#63b8ff" d="M1292.14,-195.28C1312.59,-190.65 1337.26,-185.06 1358.92,-180.15"/>
<polygon fill="#63b8ff" stroke="#63b8ff" points="1359.63,-183.35 1368.61,-177.72 1358.09,-176.52 1359.63,-183.35"/>
</a>
</g>
</g>
<!-- Node23&#45;&gt;Node11 -->
<g id="edge29_Node000023_Node000011" class="edge">
<title>Node23&#45;&gt;Node11</title>
<g id="a_edge29_Node000023_Node000011"><a xlink:title=" ">
<path fill="none" stroke="#63b8ff" d="M1288.02,-195.36C1294.93,-192.84 1301.87,-189.75 1308,-186 1327.3,-174.19 1324.45,-161.4 1344,-150 1347.45,-147.99 1351.13,-146.18 1354.92,-144.56"/>
<polygon fill="#63b8ff" stroke="#63b8ff" points="1356.03,-147.5 1364.13,-140.68 1353.54,-140.96 1356.03,-147.5"/>
</a>
</g>
</g>
<!-- Node24 -->
<g id="Node000024" class="node">
<title>Node24</title>
<g id="a_Node000024"><a xlink:href="a02346.html#a7ab7c7fe9cb93434dde72a4e464a7e69" target="_top" xlink:title=" ">
<polygon fill="white" stroke="#666666" points="1471.38,-214.25 1355.62,-214.25 1355.62,-195.75 1471.38,-195.75 1471.38,-214.25"/>
<text text-anchor="middle" x="1413.5" y="-200.75" font-family="Helvetica,sans-Serif" font-size="10.00">async_semaphore_dec</text>
</a>
</g>
</g>
<!-- Node23&#45;&gt;Node24 -->
<g id="edge31_Node000023_Node000024" class="edge">
<title>Node23&#45;&gt;Node24</title>
<g id="a_edge31_Node000023_Node000024"><a xlink:title=" ">
<path fill="none" stroke="#63b8ff" d="M1302.7,-205C1315.98,-205 1330.4,-205 1344.28,-205"/>
<polygon fill="#63b8ff" stroke="#63b8ff" points="1344.27,-208.5 1354.27,-205 1344.27,-201.5 1344.27,-208.5"/>
</a>
</g>
</g>
<!-- Node27 -->
<g id="Node000027" class="node">
<title>Node27</title>
<g id="a_Node000027"><a xlink:href="a01946.html#a5c575f52a42e0e0d2fb41bda2d1268ce" target="_top" xlink:title=" ">
<polygon fill="white" stroke="#666666" points="995.12,-317.25 895.88,-317.25 895.88,-298.75 995.12,-298.75 995.12,-317.25"/>
<text text-anchor="middle" x="945.5" y="-303.75" font-family="Helvetica,sans-Serif" font-size="10.00">utils_list_node_add</text>
</a>
</g>
</g>
<!-- Node26&#45;&gt;Node27 -->
<g id="edge34_Node000026_Node000027" class="edge">
<title>Node26&#45;&gt;Node27</title>
<g id="a_edge34_Node000026_Node000027"><a xlink:title=" ">
<path fill="none" stroke="#63b8ff" d="M829.09,-308C845.67,-308 865.81,-308 884.6,-308"/>
<polygon fill="#63b8ff" stroke="#63b8ff" points="884.47,-311.5 894.47,-308 884.47,-304.5 884.47,-311.5"/>
</a>
</g>
</g>
<!-- Node29&#45;&gt;Node28 -->
<g id="edge37_Node000029_Node000028" class="edge">
<title>Node29&#45;&gt;Node28</title>
<g id="a_edge37_Node000029_Node000028"><a xlink:title=" ">
<path fill="none" stroke="#63b8ff" d="M517.76,-131.73C574.75,-145.33 678.19,-170.02 740.23,-184.83"/>
<polygon fill="#63b8ff" stroke="#63b8ff" points="739.02,-188.38 749.56,-187.29 740.65,-181.57 739.02,-188.38"/>
</a>
</g>
</g>
<!-- Node31&#45;&gt;Node17 -->
<g id="edge40_Node000031_Node000017" class="edge">
<title>Node31&#45;&gt;Node17</title>
<g id="a_edge40_Node000031_Node000017"><a xlink:title=" ">
<path fill="none" stroke="#63b8ff" d="M661.2,-19.69C672.02,-23.66 684.53,-28.4 695.75,-33 717.89,-42.1 742.51,-53.21 761.2,-61.86"/>
<polygon fill="#63b8ff" stroke="#63b8ff" points="759.39,-65.34 769.93,-66.38 762.34,-58.99 759.39,-65.34"/>
</a>
</g>
</g>
<!-- Node32 -->
<g id="Node000032" class="node">
<title>Node32</title>
<g id="a_Node000032"><a xlink:href="a01928.html#a8b82433bc8c7d7f03683ac521a3679fa" target="_top" xlink:title=" ">
<polygon fill="white" stroke="#666666" points="1002.25,-66.25 888.75,-66.25 888.75,-47.75 1002.25,-47.75 1002.25,-66.25"/>
<text text-anchor="middle" x="945.5" y="-52.75" font-family="Helvetica,sans-Serif" font-size="10.00">arax_vaccel_add_task</text>
</a>
</g>
</g>
<!-- Node31&#45;&gt;Node32 -->
<g id="edge41_Node000031_Node000032" class="edge">
<title>Node31&#45;&gt;Node32</title>
<g id="a_edge41_Node000031_Node000032"><a xlink:title=" ">
<path fill="none" stroke="#63b8ff" d="M680.48,-17.04C732.8,-24.96 818.24,-37.89 877.7,-46.89"/>
<polygon fill="#63b8ff" stroke="#63b8ff" points="877.08,-50.49 887.49,-48.52 878.12,-43.57 877.08,-50.49"/>
</a>
</g>
</g>
<!-- Node33 -->
<g id="Node000033" class="node">
<title>Node33</title>
<g id="a_Node000033"><a xlink:href="a01904.html#ab6afd8cc035237c811ce6a1b7727acc3" target="_top" xlink:title=" ">
<polygon fill="white" stroke="#666666" points="1149.88,-103.25 1040.88,-103.25 1040.88,-84.75 1149.88,-84.75 1149.88,-103.25"/>
<text text-anchor="middle" x="1095.38" y="-89.75" font-family="Helvetica,sans-Serif" font-size="10.00">arax_accel_add_task</text>
</a>
</g>
</g>
<!-- Node32&#45;&gt;Node33 -->
<g id="edge42_Node000032_Node000033" class="edge">
<title>Node32&#45;&gt;Node33</title>
<g id="a_edge42_Node000032_Node000033"><a xlink:title=" ">
<path fill="none" stroke="#63b8ff" d="M985.35,-66.72C1003.62,-71.3 1025.61,-76.8 1045.03,-81.66"/>
<polygon fill="#63b8ff" stroke="#63b8ff" points="1043.98,-85.25 1054.53,-84.28 1045.67,-78.46 1043.98,-85.25"/>
</a>
</g>
</g>
<!-- Node34 -->
<g id="Node000034" class="node">
<title>Node34</title>
<g id="a_Node000034"><a xlink:href="a01949.html#a9fae55b169121c4851bb7c0adf4eac47" target="_top" xlink:title=" ">
<polygon fill="white" stroke="#666666" points="1141.25,-66.25 1049.5,-66.25 1049.5,-47.75 1141.25,-47.75 1141.25,-66.25"/>
<text text-anchor="middle" x="1095.38" y="-52.75" font-family="Helvetica,sans-Serif" font-size="10.00">utils_queue_push</text>
</a>
</g>
</g>
<!-- Node32&#45;&gt;Node34 -->
<g id="edge46_Node000032_Node000034" class="edge">
<title>Node32&#45;&gt;Node34</title>
<g id="a_edge46_Node000032_Node000034"><a xlink:title=" ">
<path fill="none" stroke="#63b8ff" d="M1002.41,-57C1014.3,-57 1026.86,-57 1038.75,-57"/>
<polygon fill="#63b8ff" stroke="#63b8ff" points="1038.44,-60.5 1048.44,-57 1038.44,-53.5 1038.44,-60.5"/>
</a>
</g>
</g>
<!-- Node33&#45;&gt;Node6 -->
<g id="edge43_Node000033_Node000006" class="edge">
<title>Node33&#45;&gt;Node6</title>
<g id="a_edge43_Node000033_Node000006"><a xlink:title=" ">
<path fill="none" stroke="#63b8ff" d="M1133.11,-103.72C1139.81,-106.24 1146.56,-109.31 1152.5,-113 1171.72,-124.94 1169.2,-137.19 1188.5,-149 1191.66,-150.94 1195.04,-152.69 1198.51,-154.29"/>
<polygon fill="#63b8ff" stroke="#63b8ff" points="1196.9,-157.82 1207.48,-158.36 1199.55,-151.34 1196.9,-157.82"/>
</a>
</g>
</g>
<!-- Node33&#45;&gt;Node8 -->
<g id="edge44_Node000033_Node000008" class="edge">
<title>Node33&#45;&gt;Node8</title>
<g id="a_edge44_Node000033_Node000008"><a xlink:title=" ">
<path fill="none" stroke="#63b8ff" d="M1149.99,-94C1159.63,-94 1169.8,-94 1179.77,-94"/>
<polygon fill="#63b8ff" stroke="#63b8ff" points="1179.48,-97.5 1189.48,-94 1179.48,-90.5 1179.48,-97.5"/>
</a>
</g>
</g>
<!-- Node33&#45;&gt;Node10 -->
<g id="edge45_Node000033_Node000010" class="edge">
<title>Node33&#45;&gt;Node10</title>
<g id="a_edge45_Node000033_Node000010"><a xlink:title=" ">
<path fill="none" stroke="#63b8ff" d="M1136.02,-103.72C1154.74,-108.32 1177.29,-113.85 1197.18,-118.73"/>
<polygon fill="#63b8ff" stroke="#63b8ff" points="1196.07,-122.3 1206.61,-121.28 1197.73,-115.5 1196.07,-122.3"/>
</a>
</g>
</g>
<!-- Node37 -->
<g id="Node000037" class="node">
<title>Node37</title>
<g id="a_Node000037"><a xlink:href="a01922.html#a0d3707df989265f8cf380acdef95eb02" target="_top" xlink:title=" ">
<polygon fill="white" stroke="#666666" points="381.75,-261.25 273.5,-261.25 273.5,-242.75 381.75,-242.75 381.75,-261.25"/>
<text text-anchor="middle" x="327.62" y="-247.75" font-family="Helvetica,sans-Serif" font-size="10.00">arax_task_wait_done</text>
</a>
</g>
</g>
<!-- Node36&#45;&gt;Node37 -->
<g id="edge49_Node000036_Node000037" class="edge">
<title>Node36&#45;&gt;Node37</title>
<g id="a_edge49_Node000036_Node000037"><a xlink:title=" ">
<path fill="none" stroke="#63b8ff" d="M229.21,-224.72C245.3,-229.23 264.61,-234.64 281.78,-239.44"/>
<polygon fill="#63b8ff" stroke="#63b8ff" points="280.57,-243.02 291.14,-242.35 282.46,-236.28 280.57,-243.02"/>
</a>
</g>
</g>
<!-- Node38 -->
<g id="Node000038" class="node">
<title>Node38</title>
<g id="a_Node000038"><a xlink:href="a02352.html#aebf9e72bb6cbd8b9e33489d46c25075d" target="_top" xlink:title=" ">
<polygon fill="white" stroke="#666666" points="534.25,-280.25 417.75,-280.25 417.75,-261.75 534.25,-261.75 534.25,-280.25"/>
<text text-anchor="middle" x="476" y="-266.75" font-family="Helvetica,sans-Serif" font-size="10.00">async_completion_wait</text>
</a>
</g>
</g>
<!-- Node37&#45;&gt;Node38 -->
<g id="edge50_Node000037_Node000038" class="edge">
<title>Node37&#45;&gt;Node38</title>
<g id="a_edge50_Node000037_Node000038"><a xlink:title=" ">
<path fill="none" stroke="#63b8ff" d="M381.88,-258.92C389.95,-259.96 398.38,-261.06 406.71,-262.14"/>
<polygon fill="#63b8ff" stroke="#63b8ff" points="406.22,-265.73 416.58,-263.55 407.12,-258.79 406.22,-265.73"/>
</a>
</g>
</g>
<!-- Node39 -->
<g id="Node000039" class="node">
<title>Node39</title>
<g id="a_Node000039"><a xlink:href="a02346.html#aa459f71b73bbc23f0b4bb342d093dde3" target="_top" xlink:title=" ">
<polygon fill="white" stroke="#666666" points="677.75,-317.25 588.25,-317.25 588.25,-298.75 677.75,-298.75 677.75,-317.25"/>
<text text-anchor="middle" x="633" y="-303.75" font-family="Helvetica,sans-Serif" font-size="10.00">_add_completion</text>
</a>
</g>
</g>
<!-- Node38&#45;&gt;Node39 -->
<g id="edge51_Node000038_Node000039" class="edge">
<title>Node38&#45;&gt;Node39</title>
<g id="a_edge51_Node000038_Node000039"><a xlink:title=" ">
<path fill="none" stroke="#63b8ff" d="M517.72,-280.72C537.05,-285.34 560.34,-290.9 580.85,-295.79"/>
<polygon fill="#63b8ff" stroke="#63b8ff" points="579.74,-299.37 590.28,-298.28 581.36,-292.56 579.74,-299.37"/>
</a>
</g>
</g>
<!-- Node40 -->
<g id="Node000040" class="node">
<title>Node40</title>
<g id="a_Node000040"><a xlink:href="a02346.html#a49083e8ceb4bfe7793ca1a5a799834d0" target="_top" xlink:title=" ">
<polygon fill="white" stroke="#666666" points="660.5,-280.25 605.5,-280.25 605.5,-261.75 660.5,-261.75 660.5,-280.25"/>
<text text-anchor="middle" x="633" y="-266.75" font-family="Helvetica,sans-Serif" font-size="10.00">getVmID</text>
</a>
</g>
</g>
<!-- Node38&#45;&gt;Node40 -->
<g id="edge53_Node000038_Node000040" class="edge">
<title>Node38&#45;&gt;Node40</title>
<g id="a_edge53_Node000038_Node000040"><a xlink:title=" ">
<path fill="none" stroke="#63b8ff" d="M534.72,-271C554.58,-271 576.3,-271 594.17,-271"/>
<polygon fill="#63b8ff" stroke="#63b8ff" points="594.02,-274.5 604.02,-271 594.02,-267.5 594.02,-274.5"/>
</a>
</g>
</g>
<!-- Node39&#45;&gt;Node26 -->
<g id="edge52_Node000039_Node000026" class="edge">
<title>Node39&#45;&gt;Node26</title>
<g id="a_edge52_Node000039_Node000026"><a xlink:title=" ">
<path fill="none" stroke="#63b8ff" d="M678.22,-308C698.86,-308 723.43,-308 744.39,-308"/>
<polygon fill="#63b8ff" stroke="#63b8ff" points="744.29,-311.5 754.29,-308 744.29,-304.5 744.29,-311.5"/>
</a>
</g>
</g>
</g>
</svg>
