<?xml version="1.0" encoding="UTF-8" standalone="no"?>
<!DOCTYPE svg PUBLIC "-//W3C//DTD SVG 1.1//EN"
 "http://www.w3.org/Graphics/SVG/1.1/DTD/svg11.dtd">
<!-- Generated by graphviz version 12.2.1 (0)
 -->
<!-- Title: arax_proc_get Pages: 1 -->
<svg width="393pt" height="148pt"
 viewBox="0.00 0.00 392.75 147.75" xmlns="http://www.w3.org/2000/svg" xmlns:xlink="http://www.w3.org/1999/xlink">
<g id="graph0" class="graph" transform="scale(1 1) rotate(0) translate(4 143.75)">
<title>arax_proc_get</title>
<!-- Node1 -->
<g id="Node000001" class="node">
<title>Node1</title>
<g id="a_Node000001"><a xlink:title=" ">
<polygon fill="#999999" stroke="#666666" points="384.75,-73.5 306.5,-73.5 306.5,-55 384.75,-55 384.75,-73.5"/>
<text text-anchor="middle" x="345.62" y="-60" font-family="Helvetica,sans-Serif" font-size="10.00">arax_proc_get</text>
</a>
</g>
</g>
<!-- Node2 -->
<g id="Node000002" class="node">
<title>Node2</title>
<g id="a_Node000002"><a xlink:href="a01922.html#af8ede6fc8d207004035f45d945688d2c" target="_top" xlink:title=" ">
<polygon fill="white" stroke="#666666" points="253.62,-139.75 155.12,-139.75 155.12,-110.75 253.62,-110.75 253.62,-139.75"/>
<text text-anchor="start" x="163.12" y="-126.25" font-family="Helvetica,sans-Serif" font-size="10.00">arax_data_allocate</text>
<text text-anchor="middle" x="204.38" y="-115.75" font-family="Helvetica,sans-Serif" font-size="10.00">_remote</text>
</a>
</g>
</g>
<!-- Node1&#45;&gt;Node2 -->
<g id="edge1_Node000001_Node000002" class="edge">
<title>Node1&#45;&gt;Node2</title>
<g id="a_edge1_Node000001_Node000002"><a xlink:title=" ">
<path fill="none" stroke="#63b8ff" d="M316.79,-79.05C303.03,-86.14 286.07,-94.52 270.5,-101.25 263.31,-104.36 255.57,-107.43 248.03,-110.3"/>
<polygon fill="#63b8ff" stroke="#63b8ff" points="318.01,-82.36 325.27,-74.64 314.78,-76.15 318.01,-82.36"/>
</a>
</g>
</g>
<!-- Node3 -->
<g id="Node000003" class="node">
<title>Node3</title>
<g id="a_Node000003"><a xlink:href="a01922.html#a696bc4319d0f6c6baa7d797a8df6b56f" target="_top" xlink:title=" ">
<polygon fill="white" stroke="#666666" points="243.5,-92.5 165.25,-92.5 165.25,-74 243.5,-74 243.5,-92.5"/>
<text text-anchor="middle" x="204.38" y="-79" font-family="Helvetica,sans-Serif" font-size="10.00">arax_data_get</text>
</a>
</g>
</g>
<!-- Node1&#45;&gt;Node3 -->
<g id="edge2_Node000001_Node000003" class="edge">
<title>Node1&#45;&gt;Node3</title>
<g id="a_edge2_Node000001_Node000003"><a xlink:title=" ">
<path fill="none" stroke="#63b8ff" d="M294.87,-71.04C278.02,-73.34 259.48,-75.87 243.67,-78.02"/>
<polygon fill="#63b8ff" stroke="#63b8ff" points="295.27,-74.52 304.71,-69.7 294.32,-67.58 295.27,-74.52"/>
</a>
</g>
</g>
<!-- Node5 -->
<g id="Node000005" class="node">
<title>Node5</title>
<g id="a_Node000005"><a xlink:href="a01922.html#a8995f71dba475975efc37756783cfce9" target="_top" xlink:title=" ">
<polygon fill="white" stroke="#666666" points="243.5,-55.5 165.25,-55.5 165.25,-37 243.5,-37 243.5,-55.5"/>
<text text-anchor="middle" x="204.38" y="-42" font-family="Helvetica,sans-Serif" font-size="10.00">arax_data_set</text>
</a>
</g>
</g>
<!-- Node1&#45;&gt;Node5 -->
<g id="edge4_Node000001_Node000005" class="edge">
<title>Node1&#45;&gt;Node5</title>
<g id="a_edge4_Node000001_Node000005"><a xlink:title=" ">
<path fill="none" stroke="#63b8ff" d="M294.87,-57.82C278.02,-55.64 259.48,-53.24 243.67,-51.2"/>
<polygon fill="#63b8ff" stroke="#63b8ff" points="294.34,-61.28 304.7,-59.09 295.24,-54.34 294.34,-61.28"/>
</a>
</g>
</g>
<!-- Node6 -->
<g id="Node000006" class="node">
<title>Node6</title>
<g id="a_Node000006"><a xlink:href="a01922.html#af735744d0f8bec04394639a841d2ba0f" target="_top" xlink:title=" ">
<polygon fill="white" stroke="#666666" points="270.5,-18.5 138.25,-18.5 138.25,0 270.5,0 270.5,-18.5"/>
<text text-anchor="middle" x="204.38" y="-5" font-family="Helvetica,sans-Serif" font-size="10.00">ARAX_OBJ_DTOR_DECL</text>
</a>
</g>
</g>
<!-- Node1&#45;&gt;Node6 -->
<g id="edge6_Node000001_Node000006" class="edge">
<title>Node1&#45;&gt;Node6</title>
<g id="a_edge6_Node000001_Node000006"><a xlink:title=" ">
<path fill="none" stroke="#63b8ff" d="M316.53,-49.22C302.88,-42.28 286.09,-34.26 270.5,-28.25 261.6,-24.82 251.81,-21.66 242.59,-18.94"/>
<polygon fill="#63b8ff" stroke="#63b8ff" points="314.89,-52.31 325.38,-53.81 318.11,-46.1 314.89,-52.31"/>
</a>
</g>
</g>
<!-- Node4 -->
<g id="Node000004" class="node">
<title>Node4</title>
<g id="a_Node000004"><a xlink:href="a01922.html#a7d8356bd5c8b6a8d7dffc6ba94cc22e5" target="_top" xlink:title=" ">
<polygon fill="white" stroke="#666666" points="102.25,-73.5 0,-73.5 0,-55 102.25,-55 102.25,-73.5"/>
<text text-anchor="middle" x="51.12" y="-60" font-family="Helvetica,sans-Serif" font-size="10.00">arax_data_memcpy</text>
</a>
</g>
</g>
<!-- Node3&#45;&gt;Node4 -->
<g id="edge3_Node000003_Node000004" class="edge">
<title>Node3&#45;&gt;Node4</title>
<g id="a_edge3_Node000003_Node000004"><a xlink:title=" ">
<path fill="none" stroke="#63b8ff" d="M153.79,-77.02C137.38,-74.96 119.1,-72.66 102.61,-70.59"/>
<polygon fill="#63b8ff" stroke="#63b8ff" points="152.96,-80.44 163.32,-78.22 153.83,-73.5 152.96,-80.44"/>
</a>
</g>
</g>
<!-- Node5&#45;&gt;Node4 -->
<g id="edge5_Node000005_Node000004" class="edge">
<title>Node5&#45;&gt;Node4</title>
<g id="a_edge5_Node000005_Node000004"><a xlink:title=" ">
<path fill="none" stroke="#63b8ff" d="M153.79,-52.15C137.38,-54.1 119.1,-56.28 102.61,-58.24"/>
<polygon fill="#63b8ff" stroke="#63b8ff" points="153.8,-55.67 163.31,-51.02 152.97,-48.72 153.8,-55.67"/>
</a>
</g>
</g>
</g>
</svg>
