<?xml version="1.0" encoding="UTF-8" standalone="no"?>
<!DOCTYPE svg PUBLIC "-//W3C//DTD SVG 1.1//EN"
 "http://www.w3.org/Graphics/SVG/1.1/DTD/svg11.dtd">
<!-- Generated by graphviz version 8.0.5 (0)
 -->
<!-- Title: arax_data_s Pages: 1 -->
<svg width="1215pt" height="569pt"
 viewBox="0.00 0.00 1214.50 568.82" xmlns="http://www.w3.org/2000/svg" xmlns:xlink="http://www.w3.org/1999/xlink">
<g id="graph0" class="graph" transform="scale(1 1) rotate(0) translate(4 564.82)">
<title>arax_data_s</title>
<!-- Node1 -->
<g id="Node000001" class="node">
<title>Node1</title>
<g id="a_Node000001"><a xlink:title=" ">
<polygon fill="#999999" stroke="#666666" points="1202,-486.57 1132,-486.57 1132,-468.07 1202,-468.07 1202,-486.57"/>
<text text-anchor="middle" x="1167" y="-473.07" font-family="Helvetica,sans-Serif" font-size="10.00">arax_data_s</text>
</a>
</g>
</g>
<!-- Node2 -->
<g id="Node000002" class="node">
<title>Node2</title>
<g id="a_Node000002"><a xlink:href="a02274.html" target="_top" xlink:title=" ">
<polygon fill="white" stroke="#666666" points="886.5,-465.57 809,-465.57 809,-447.07 886.5,-447.07 886.5,-465.57"/>
<text text-anchor="middle" x="847.75" y="-452.07" font-family="Helvetica,sans-Serif" font-size="10.00">arax_object_s</text>
</a>
</g>
</g>
<!-- Node2&#45;&gt;Node1 -->
<g id="edge1_Node000001_Node000002" class="edge">
<title>Node2&#45;&gt;Node1</title>
<g id="a_edge1_Node000001_Node000002"><a xlink:title=" ">
<path fill="none" stroke="#9a32cd" stroke-dasharray="5,2" d="M871.53,-471.79C882.93,-478.61 897.25,-485.86 911.25,-489.32 988.18,-508.39 1082.08,-494.92 1131.6,-485.1"/>
<polygon fill="#9a32cd" stroke="#9a32cd" points="873.68,-468.38 863.35,-466.02 869.95,-474.31 873.68,-468.38"/>
</a>
</g>
<text text-anchor="middle" x="1014.5" y="-499.32" font-family="Helvetica,sans-Serif" font-size="10.00" fill="grey"> obj</text>
</g>
<!-- Node16 -->
<g id="Node000016" class="node">
<title>Node16</title>
<g id="a_Node000016"><a xlink:href="a02246.html" target="_top" xlink:title=" ">
<polygon fill="white" stroke="#666666" points="1051.75,-402.57 977.25,-402.57 977.25,-384.07 1051.75,-384.07 1051.75,-402.57"/>
<text text-anchor="middle" x="1014.5" y="-389.07" font-family="Helvetica,sans-Serif" font-size="10.00">arax_accel_s</text>
</a>
</g>
</g>
<!-- Node2&#45;&gt;Node16 -->
<g id="edge28_Node000016_Node000002" class="edge">
<title>Node2&#45;&gt;Node16</title>
<g id="a_edge28_Node000016_Node000002"><a xlink:title=" ">
<path fill="none" stroke="#9a32cd" stroke-dasharray="5,2" d="M897.39,-444.91C916.97,-439.63 939.54,-432.67 959.25,-424.32 973.23,-418.4 988.15,-409.69 998.79,-403"/>
<polygon fill="#9a32cd" stroke="#9a32cd" points="896.64,-441.75 887.85,-447.67 898.41,-448.52 896.64,-441.75"/>
</a>
</g>
<text text-anchor="middle" x="935.25" y="-441.32" font-family="Helvetica,sans-Serif" font-size="10.00" fill="grey"> obj</text>
</g>
<!-- Node18 -->
<g id="Node000018" class="node">
<title>Node18</title>
<g id="a_Node000018"><a xlink:href="a02290.html" target="_top" xlink:title=" ">
<polygon fill="white" stroke="#666666" points="1206.5,-413.57 1127.5,-413.57 1127.5,-395.07 1206.5,-395.07 1206.5,-413.57"/>
<text text-anchor="middle" x="1167" y="-400.07" font-family="Helvetica,sans-Serif" font-size="10.00">arax_vaccel_s</text>
</a>
</g>
</g>
<!-- Node2&#45;&gt;Node18 -->
<g id="edge34_Node000018_Node000002" class="edge">
<title>Node2&#45;&gt;Node18</title>
<g id="a_edge34_Node000018_Node000002"><a xlink:title=" ">
<path fill="none" stroke="#9a32cd" stroke-dasharray="5,2" d="M897.52,-464.51C951.3,-471.44 1039.48,-476.54 1109.5,-450.32 1129.64,-442.78 1147.95,-424.97 1157.97,-413.86"/>
<polygon fill="#9a32cd" stroke="#9a32cd" points="898.3,-460.94 887.92,-463.06 897.35,-467.88 898.3,-460.94"/>
</a>
</g>
<text text-anchor="middle" x="1014.5" y="-470.32" font-family="Helvetica,sans-Serif" font-size="10.00" fill="grey"> obj</text>
</g>
<!-- Node3 -->
<g id="Node000003" class="node">
<title>Node3</title>
<g id="a_Node000003"><a xlink:href="a02266.html" target="_top" xlink:title=" ">
<polygon fill="white" stroke="#666666" points="739.25,-304.57 637.75,-304.57 637.75,-286.07 739.25,-286.07 739.25,-304.57"/>
<text text-anchor="middle" x="688.5" y="-291.07" font-family="Helvetica,sans-Serif" font-size="10.00">arax_object_repo_s</text>
</a>
</g>
</g>
<!-- Node3&#45;&gt;Node2 -->
<g id="edge2_Node000002_Node000003" class="edge">
<title>Node3&#45;&gt;Node2</title>
<g id="a_edge2_Node000002_Node000003"><a xlink:title=" ">
<path fill="none" stroke="#9a32cd" stroke-dasharray="5,2" d="M704.02,-313.24C722.71,-336.37 756.14,-377.91 784.25,-413.82 792.36,-424.19 791.86,-429.25 802.25,-437.32 807.03,-441.03 812.64,-444.16 818.23,-446.74"/>
<polygon fill="#9a32cd" stroke="#9a32cd" points="706.19,-311.37 697.18,-305.79 700.75,-315.77 706.19,-311.37"/>
</a>
</g>
<text text-anchor="middle" x="770.75" y="-414.32" font-family="Helvetica,sans-Serif" font-size="10.00" fill="grey"> repo</text>
</g>
<!-- Node4 -->
<g id="Node000004" class="node">
<title>Node4</title>
<g id="a_Node000004"><a xlink:href="a02326.html" target="_top" xlink:title=" ">
<polygon fill="white" stroke="#666666" points="1043.88,-175.57 985.12,-175.57 985.12,-157.07 1043.88,-157.07 1043.88,-175.57"/>
<text text-anchor="middle" x="1014.5" y="-162.07" font-family="Helvetica,sans-Serif" font-size="10.00">arax_pipe</text>
</a>
</g>
</g>
<!-- Node3&#45;&gt;Node4 -->
<g id="edge4_Node000004_Node000003" class="edge">
<title>Node3&#45;&gt;Node4</title>
<g id="a_edge4_Node000004_Node000003"><a xlink:title=" ">
<path fill="none" stroke="#9a32cd" stroke-dasharray="5,2" d="M711.2,-279.4C733.2,-263.89 768.68,-240.55 802.25,-225.82 806.52,-223.95 928.08,-190.07 984.83,-174.29"/>
<polygon fill="#9a32cd" stroke="#9a32cd" points="709.47,-277.05 703.38,-285.72 713.54,-282.74 709.47,-277.05"/>
</a>
</g>
<text text-anchor="middle" x="847.75" y="-226.32" font-family="Helvetica,sans-Serif" font-size="10.00" fill="grey"> objs</text>
</g>
<!-- Node4&#45;&gt;Node3 -->
<g id="edge3_Node000003_Node000004" class="edge">
<title>Node4&#45;&gt;Node3</title>
<g id="a_edge3_Node000003_Node000004"><a xlink:title=" ">
<path fill="none" stroke="#9a32cd" stroke-dasharray="5,2" d="M1006.31,-186.06C998,-206.14 982.42,-236.73 959.25,-254.32 895.49,-302.73 798.35,-305.09 739.7,-301.11"/>
<polygon fill="#9a32cd" stroke="#9a32cd" points="1009.91,-187.47 1010.27,-176.88 1003.38,-184.93 1009.91,-187.47"/>
</a>
</g>
<text text-anchor="middle" x="847.75" y="-302.32" font-family="Helvetica,sans-Serif" font-size="10.00" fill="grey"> pipe</text>
</g>
<!-- Node5 -->
<g id="Node000005" class="node">
<title>Node5</title>
<g id="a_Node000005"><a xlink:href="a02230.html" target="_top" xlink:title=" ">
<polygon fill="white" stroke="#666666" points="377.25,-168.57 298.25,-168.57 298.25,-150.07 377.25,-150.07 377.25,-168.57"/>
<text text-anchor="middle" x="337.75" y="-155.07" font-family="Helvetica,sans-Serif" font-size="10.00">async_meta_s</text>
</a>
</g>
</g>
<!-- Node5&#45;&gt;Node4 -->
<g id="edge5_Node000004_Node000005" class="edge">
<title>Node5&#45;&gt;Node4</title>
<g id="a_edge5_Node000004_Node000005"><a xlink:title=" ">
<path fill="none" stroke="#9a32cd" stroke-dasharray="5,2" d="M359.78,-143.34C379.15,-129.33 409.16,-109.38 438,-97.32 522.19,-62.13 547.12,-60.45 637.75,-49.82 779.79,-33.17 853.65,33.13 959.25,-63.32 987.44,-89.07 954.16,-116.92 977.25,-147.32 980.09,-151.06 983.87,-154.13 987.92,-156.63"/>
<polygon fill="#9a32cd" stroke="#9a32cd" points="358.15,-140.93 352.18,-149.68 362.31,-146.56 358.15,-140.93"/>
</a>
</g>
<text text-anchor="middle" x="688.5" y="-51.32" font-family="Helvetica,sans-Serif" font-size="10.00" fill="grey"> async</text>
</g>
<!-- Node11 -->
<g id="Node000011" class="node">
<title>Node11</title>
<g id="a_Node000011"><a xlink:href="a02242.html" target="_top" xlink:title=" ">
<polygon fill="white" stroke="#666666" points="736.62,-171.57 640.38,-171.57 640.38,-153.07 736.62,-153.07 736.62,-171.57"/>
<text text-anchor="middle" x="688.5" y="-158.07" font-family="Helvetica,sans-Serif" font-size="10.00">async_condition_s</text>
</a>
</g>
</g>
<!-- Node5&#45;&gt;Node11 -->
<g id="edge13_Node000011_Node000005" class="edge">
<title>Node5&#45;&gt;Node11</title>
<g id="a_edge13_Node000011_Node000005"><a xlink:title=" ">
<path fill="none" stroke="#9a32cd" stroke-dasharray="5,2" d="M388.44,-159.75C455.44,-160.33 573.96,-161.35 639.89,-161.91"/>
<polygon fill="#9a32cd" stroke="#9a32cd" points="388.77,-156.25 378.74,-159.66 388.71,-163.25 388.77,-156.25"/>
</a>
</g>
<text text-anchor="middle" x="490.62" y="-161.32" font-family="Helvetica,sans-Serif" font-size="10.00" fill="grey"> meta</text>
</g>
<!-- Node12 -->
<g id="Node000012" class="node">
<title>Node12</title>
<g id="a_Node000012"><a xlink:href="a02234.html" target="_top" xlink:title=" ">
<polygon fill="white" stroke="#666666" points="542.88,-124.57 438.38,-124.57 438.38,-106.07 542.88,-106.07 542.88,-124.57"/>
<text text-anchor="middle" x="490.62" y="-111.07" font-family="Helvetica,sans-Serif" font-size="10.00">async_completion_s</text>
</a>
</g>
</g>
<!-- Node5&#45;&gt;Node12 -->
<g id="edge15_Node000012_Node000005" class="edge">
<title>Node5&#45;&gt;Node12</title>
<g id="a_edge15_Node000012_Node000005"><a xlink:title=" ">
<path fill="none" stroke="#9a32cd" stroke-dasharray="5,2" d="M369.56,-145.33C377.8,-141.92 386.77,-138.49 395.25,-135.82 409.01,-131.51 424.17,-127.78 438.25,-124.73"/>
<polygon fill="#9a32cd" stroke="#9a32cd" points="368.43,-142.44 360.61,-149.59 371.18,-148.87 368.43,-142.44"/>
</a>
</g>
<text text-anchor="middle" x="407.62" y="-137.32" font-family="Helvetica,sans-Serif" font-size="10.00" fill="grey"> meta</text>
</g>
<!-- Node13 -->
<g id="Node000013" class="node">
<title>Node13</title>
<g id="a_Node000013"><a xlink:href="a02238.html" target="_top" xlink:title=" ">
<polygon fill="white" stroke="#666666" points="543.25,-207.57 438,-207.57 438,-189.07 543.25,-189.07 543.25,-207.57"/>
<text text-anchor="middle" x="490.62" y="-194.07" font-family="Helvetica,sans-Serif" font-size="10.00">async_semaphore_s</text>
</a>
</g>
</g>
<!-- Node5&#45;&gt;Node13 -->
<g id="edge18_Node000013_Node000005" class="edge">
<title>Node5&#45;&gt;Node13</title>
<g id="a_edge18_Node000013_Node000005"><a xlink:title=" ">
<path fill="none" stroke="#9a32cd" stroke-dasharray="5,2" d="M386.82,-171.75C407.96,-177.21 432.41,-183.53 452.16,-188.64"/>
<polygon fill="#9a32cd" stroke="#9a32cd" points="387.99,-168.18 377.43,-169.07 386.24,-174.96 387.99,-168.18"/>
</a>
</g>
<text text-anchor="middle" x="407.62" y="-180.32" font-family="Helvetica,sans-Serif" font-size="10.00" fill="grey"> meta</text>
</g>
<!-- Node6 -->
<g id="Node000006" class="node">
<title>Node6</title>
<g id="a_Node000006"><a xlink:href="a02314.html" target="_top" xlink:title=" ">
<polygon fill="white" stroke="#666666" points="204.88,-328.57 142.38,-328.57 142.38,-310.07 204.88,-310.07 204.88,-328.57"/>
<text text-anchor="middle" x="173.62" y="-315.07" font-family="Helvetica,sans-Serif" font-size="10.00">utils_list_s</text>
</a>
</g>
</g>
<!-- Node6&#45;&gt;Node3 -->
<g id="edge25_Node000003_Node000006" class="edge">
<title>Node6&#45;&gt;Node3</title>
<g id="a_edge25_Node000003_Node000006"><a xlink:title=" ">
<path fill="none" stroke="#9a32cd" stroke-dasharray="5,2" d="M215.88,-317.39C309.25,-313.02 536.51,-302.39 637.59,-297.66"/>
<polygon fill="#9a32cd" stroke="#9a32cd" points="216,-313.93 206.17,-317.9 216.32,-320.92 216,-313.93"/>
</a>
</g>
<text text-anchor="middle" x="407.62" y="-309.32" font-family="Helvetica,sans-Serif" font-size="10.00" fill="grey"> list</text>
</g>
<!-- Node6&#45;&gt;Node4 -->
<g id="edge21_Node000004_Node000006" class="edge">
<title>Node6&#45;&gt;Node4</title>
<g id="a_edge21_Node000004_Node000006"><a xlink:title=" ">
<path fill="none" stroke="#9a32cd" stroke-dasharray="5,2" d="M215.67,-329.21C248.29,-336.19 295.17,-344.32 336.75,-344.32 336.75,-344.32 336.75,-344.32 848.75,-344.32 905.5,-344.32 920.77,-322.04 959.25,-280.32 988.82,-248.26 1005.2,-197.16 1011.03,-175.99"/>
<polygon fill="#9a32cd" stroke="#9a32cd" points="216.71,-325.63 206.19,-326.89 215.2,-332.46 216.71,-325.63"/>
</a>
</g>
<text text-anchor="middle" x="590.5" y="-345.32" font-family="Helvetica,sans-Serif" font-size="10.00" fill="grey"> orphan_vacs</text>
</g>
<!-- Node6&#45;&gt;Node5 -->
<g id="edge6_Node000005_Node000006" class="edge">
<title>Node6&#45;&gt;Node5</title>
<g id="a_edge6_Node000005_Node000006"><a xlink:title=" ">
<path fill="none" stroke="#9a32cd" stroke-dasharray="5,2" d="M179.11,-299.36C185.65,-274.43 200.09,-231.9 227,-205.82 238.96,-194.23 279.29,-178.83 307.57,-168.99"/>
<polygon fill="#9a32cd" stroke="#9a32cd" points="175.54,-298.2 176.57,-308.74 182.34,-299.86 175.54,-298.2"/>
</a>
</g>
<text text-anchor="middle" x="253.62" y="-206.32" font-family="Helvetica,sans-Serif" font-size="10.00" fill="grey"> outstanding</text>
</g>
<!-- Node6&#45;&gt;Node13 -->
<g id="edge19_Node000013_Node000006" class="edge">
<title>Node6&#45;&gt;Node13</title>
<g id="a_edge19_Node000013_Node000006"><a xlink:title=" ">
<path fill="none" stroke="#9a32cd" stroke-dasharray="5,2" d="M196.96,-303.6C206.01,-297.67 216.73,-291.19 227,-286.32 303.69,-249.96 399.47,-221.91 451.56,-207.99"/>
<polygon fill="#9a32cd" stroke="#9a32cd" points="195.23,-301.22 188.9,-309.71 199.15,-307.02 195.23,-301.22"/>
</a>
</g>
<text text-anchor="middle" x="337.75" y="-256.32" font-family="Helvetica,sans-Serif" font-size="10.00" fill="grey"> pending_list</text>
</g>
<!-- Node6&#45;&gt;Node16 -->
<g id="edge30_Node000016_Node000006" class="edge">
<title>Node6&#45;&gt;Node16</title>
<g id="a_edge30_Node000016_Node000006"><a xlink:title=" ">
<path fill="none" stroke="#9a32cd" stroke-dasharray="5,2" d="M192.85,-335.93C202.39,-343.8 214.65,-352.69 227,-358.32 272.43,-379.03 286.82,-382.32 336.75,-382.32 336.75,-382.32 336.75,-382.32 848.75,-382.32 892.9,-382.32 943.55,-386.31 976.9,-389.48"/>
<polygon fill="#9a32cd" stroke="#9a32cd" points="195.47,-332.7 185.61,-328.83 190.9,-338.01 195.47,-332.7"/>
</a>
</g>
<text text-anchor="middle" x="590.5" y="-383.32" font-family="Helvetica,sans-Serif" font-size="10.00" fill="grey"> vaccels</text>
</g>
<!-- Node7 -->
<g id="Node000007" class="node">
<title>Node7</title>
<g id="a_Node000007"><a xlink:href="a02310.html" target="_top" xlink:title=" ">
<polygon fill="white" stroke="#666666" points="78.25,-442.57 0,-442.57 0,-424.07 78.25,-424.07 78.25,-442.57"/>
<text text-anchor="middle" x="39.12" y="-429.07" font-family="Helvetica,sans-Serif" font-size="10.00">utils_list_node</text>
</a>
</g>
</g>
<!-- Node7&#45;&gt;Node2 -->
<g id="edge26_Node000002_Node000007" class="edge">
<title>Node7&#45;&gt;Node2</title>
<g id="a_edge26_Node000002_Node000007"><a xlink:title=" ">
<path fill="none" stroke="#9a32cd" stroke-dasharray="5,2" d="M89.33,-436.07C114.28,-437.23 145.05,-438.32 172.62,-438.32 172.62,-438.32 172.62,-438.32 689.5,-438.32 730.44,-438.32 777,-444.42 808.76,-449.52"/>
<polygon fill="#9a32cd" stroke="#9a32cd" points="89.83,-432.54 79.67,-435.55 89.49,-439.53 89.83,-432.54"/>
</a>
</g>
<text text-anchor="middle" x="407.62" y="-439.32" font-family="Helvetica,sans-Serif" font-size="10.00" fill="grey"> list</text>
</g>
<!-- Node7&#45;&gt;Node6 -->
<g id="edge7_Node000006_Node000007" class="edge">
<title>Node7&#45;&gt;Node6</title>
<g id="a_edge7_Node000006_Node000007"><a xlink:title=" ">
<path fill="none" stroke="#9a32cd" stroke-dasharray="5,2" d="M59.69,-416.49C87.82,-392.29 138.79,-348.43 161.36,-329.02"/>
<polygon fill="#9a32cd" stroke="#9a32cd" points="57.72,-414.43 52.42,-423.6 62.29,-419.74 57.72,-414.43"/>
</a>
</g>
<text text-anchor="middle" x="108.25" y="-383.32" font-family="Helvetica,sans-Serif" font-size="10.00" fill="grey"> head</text>
</g>
<!-- Node7&#45;&gt;Node7 -->
<g id="edge8_Node000007_Node000007" class="edge">
<title>Node7&#45;&gt;Node7</title>
<g id="a_edge8_Node000007_Node000007"><a xlink:title=" ">
<path fill="none" stroke="#9a32cd" stroke-dasharray="5,2" d="M26.68,-453.6C28.07,-457.67 32.21,-460.57 39.12,-460.57 51.41,-460.57 54.96,-451.39 49.78,-442.82"/>
<polygon fill="#9a32cd" stroke="#9a32cd" points="30.29,-454.26 28.47,-443.82 23.38,-453.11 30.29,-454.26"/>
</a>
</g>
<text text-anchor="middle" x="39.12" y="-472.07" font-family="Helvetica,sans-Serif" font-size="10.00" fill="grey"> next</text>
<text text-anchor="middle" x="39.12" y="-461.57" font-family="Helvetica,sans-Serif" font-size="10.00" fill="grey">prev</text>
</g>
<!-- Node7&#45;&gt;Node12 -->
<g id="edge16_Node000012_Node000007" class="edge">
<title>Node7&#45;&gt;Node12</title>
<g id="a_edge16_Node000012_Node000007"><a xlink:title=" ">
<path fill="none" stroke="#9a32cd" stroke-dasharray="5,2" d="M42.8,-413.17C52.14,-346.33 85.57,-133.92 138.25,-94.32 240.35,-17.59 409.94,-80.14 468.77,-105.7"/>
<polygon fill="#9a32cd" stroke="#9a32cd" points="39.23,-412.5 41.34,-422.89 46.16,-413.45 39.23,-412.5"/>
</a>
</g>
<text text-anchor="middle" x="253.62" y="-61.32" font-family="Helvetica,sans-Serif" font-size="10.00" fill="grey"> outstanding</text>
</g>
<!-- Node7&#45;&gt;Node18 -->
<g id="edge35_Node000018_Node000007" class="edge">
<title>Node7&#45;&gt;Node18</title>
<g id="a_edge35_Node000018_Node000007"><a xlink:title=" ">
<path fill="none" stroke="#9a32cd" stroke-dasharray="5,2" d="M50.26,-452.44C69.39,-485.61 114.2,-550.32 172.62,-550.32 172.62,-550.32 172.62,-550.32 936.25,-550.32 1021.25,-550.32 1047.49,-527.46 1109.5,-469.32 1128.92,-451.12 1148.65,-426.81 1158.87,-413.68"/>
<polygon fill="#9a32cd" stroke="#9a32cd" points="52.88,-450.94 44.97,-443.9 46.76,-454.34 52.88,-450.94"/>
</a>
</g>
<text text-anchor="middle" x="590.5" y="-551.32" font-family="Helvetica,sans-Serif" font-size="10.00" fill="grey"> vaccels</text>
</g>
<!-- Node8 -->
<g id="Node000008" class="node">
<title>Node8</title>
<g id="a_Node000008"><a xlink:href="a02226.html" target="_top" xlink:title=" ">
<polygon fill="white" stroke="#666666" points="201.5,-168.57 145.75,-168.57 145.75,-150.07 201.5,-150.07 201.5,-168.57"/>
<text text-anchor="middle" x="173.62" y="-155.07" font-family="Helvetica,sans-Serif" font-size="10.00">ivshmem</text>
</a>
</g>
</g>
<!-- Node8&#45;&gt;Node5 -->
<g id="edge9_Node000005_Node000008" class="edge">
<title>Node8&#45;&gt;Node5</title>
<g id="a_edge9_Node000005_Node000008"><a xlink:title=" ">
<path fill="none" stroke="#9a32cd" stroke-dasharray="5,2" d="M212.58,-159.32C238.27,-159.32 272.11,-159.32 297.98,-159.32"/>
<polygon fill="#9a32cd" stroke="#9a32cd" points="212.76,-155.82 202.76,-159.32 212.76,-162.82 212.76,-155.82"/>
</a>
</g>
<text text-anchor="middle" x="253.62" y="-160.32" font-family="Helvetica,sans-Serif" font-size="10.00" fill="grey"> regs</text>
</g>
<!-- Node9 -->
<g id="Node000009" class="node">
<title>Node9</title>
<g id="a_Node000009"><a xlink:href="a02182.html" target="_top" xlink:title=" ">
<polygon fill="white" stroke="#666666" points="209,-121.57 138.25,-121.57 138.25,-103.07 209,-103.07 209,-121.57"/>
<text text-anchor="middle" x="173.62" y="-108.07" font-family="Helvetica,sans-Serif" font-size="10.00">arch_alloc_s</text>
</a>
</g>
</g>
<!-- Node9&#45;&gt;Node4 -->
<g id="edge24_Node000004_Node000009" class="edge">
<title>Node9&#45;&gt;Node4</title>
<g id="a_edge24_Node000004_Node000009"><a xlink:title=" ">
<path fill="none" stroke="#9a32cd" stroke-dasharray="5,2" d="M213,-99.23C320.35,-64.23 632.93,26.54 893.25,-8.32 923.39,-12.36 939.06,-3.59 959.25,-26.32 995.35,-66.98 945.75,-103.01 977.25,-147.32 979.97,-151.15 983.69,-154.26 987.73,-156.78"/>
<polygon fill="#9a32cd" stroke="#9a32cd" points="212.08,-96.18 203.67,-102.63 214.27,-102.83 212.08,-96.18"/>
</a>
</g>
<text text-anchor="middle" x="590.5" y="-17.32" font-family="Helvetica,sans-Serif" font-size="10.00" fill="grey"> allocator</text>
</g>
<!-- Node9&#45;&gt;Node5 -->
<g id="edge10_Node000005_Node000009" class="edge">
<title>Node9&#45;&gt;Node5</title>
<g id="a_edge10_Node000005_Node000009"><a xlink:title=" ">
<path fill="none" stroke="#9a32cd" stroke-dasharray="5,2" d="M218.44,-125.03C245.11,-132.76 278.65,-142.48 303.2,-149.6"/>
<polygon fill="#9a32cd" stroke="#9a32cd" points="219.8,-121.49 209.22,-122.06 217.85,-128.21 219.8,-121.49"/>
</a>
</g>
<text text-anchor="middle" x="253.62" y="-144.32" font-family="Helvetica,sans-Serif" font-size="10.00" fill="grey"> alloc</text>
</g>
<!-- Node10 -->
<g id="Node000010" class="node">
<title>Node10</title>
<g id="a_Node000010"><a xlink:href="a02286.html" target="_top" xlink:title=" ">
<polygon fill="white" stroke="#666666" points="888.38,-175.57 807.12,-175.57 807.12,-157.07 888.38,-157.07 888.38,-175.57"/>
<text text-anchor="middle" x="847.75" y="-162.07" font-family="Helvetica,sans-Serif" font-size="10.00">arax_throttle_s</text>
</a>
</g>
</g>
<!-- Node10&#45;&gt;Node4 -->
<g id="edge11_Node000004_Node000010" class="edge">
<title>Node10&#45;&gt;Node4</title>
<g id="a_edge11_Node000004_Node000010"><a xlink:title=" ">
<path fill="none" stroke="#9a32cd" stroke-dasharray="5,2" d="M899.46,-166.32C927.51,-166.32 961.33,-166.32 984.83,-166.32"/>
<polygon fill="#9a32cd" stroke="#9a32cd" points="899.63,-162.82 889.63,-166.32 899.63,-169.82 899.63,-162.82"/>
</a>
</g>
<text text-anchor="middle" x="935.25" y="-167.32" font-family="Helvetica,sans-Serif" font-size="10.00" fill="grey"> throttle</text>
</g>
<!-- Node10&#45;&gt;Node16 -->
<g id="edge31_Node000016_Node000010" class="edge">
<title>Node10&#45;&gt;Node16</title>
<g id="a_edge31_Node000016_Node000010"><a xlink:title=" ">
<path fill="none" stroke="#9a32cd" stroke-dasharray="5,2" d="M881.97,-180.55C906.75,-192.81 939.6,-212.8 959.25,-239.82 993.66,-287.15 1007.89,-358.3 1012.08,-383.81"/>
<polygon fill="#9a32cd" stroke="#9a32cd" points="883.77,-177.06 873.24,-175.93 880.77,-183.38 883.77,-177.06"/>
</a>
</g>
<text text-anchor="middle" x="935.25" y="-240.32" font-family="Helvetica,sans-Serif" font-size="10.00" fill="grey"> throttle</text>
</g>
<!-- Node11&#45;&gt;Node4 -->
<g id="edge20_Node000004_Node000011" class="edge">
<title>Node11&#45;&gt;Node4</title>
<g id="a_edge20_Node000004_Node000011"><a xlink:title=" ">
<path fill="none" stroke="#9a32cd" stroke-dasharray="5,2" d="M723.38,-148.87C745.45,-140.85 775.08,-131.44 802.25,-127.32 842.24,-121.26 853.3,-121.01 893.25,-127.32 928.37,-132.88 967.19,-147.02 990.97,-156.66"/>
<polygon fill="#9a32cd" stroke="#9a32cd" points="722.35,-145.89 714.2,-152.67 724.79,-152.45 722.35,-145.89"/>
</a>
</g>
<text text-anchor="middle" x="847.75" y="-138.82" font-family="Helvetica,sans-Serif" font-size="10.00" fill="grey"> cntrl_ready_cond</text>
<text text-anchor="middle" x="847.75" y="-128.32" font-family="Helvetica,sans-Serif" font-size="10.00" fill="grey">orphan_cond</text>
</g>
<!-- Node11&#45;&gt;Node10 -->
<g id="edge12_Node000010_Node000011" class="edge">
<title>Node11&#45;&gt;Node10</title>
<g id="a_edge12_Node000010_Node000011"><a xlink:title=" ">
<path fill="none" stroke="#9a32cd" stroke-dasharray="5,2" d="M748.06,-163.81C767.6,-164.31 788.92,-164.85 806.72,-165.31"/>
<polygon fill="#9a32cd" stroke="#9a32cd" points="748.19,-160.29 738.11,-163.54 748.01,-167.29 748.19,-160.29"/>
</a>
</g>
<text text-anchor="middle" x="770.75" y="-165.32" font-family="Helvetica,sans-Serif" font-size="10.00" fill="grey"> ready</text>
</g>
<!-- Node11&#45;&gt;Node16 -->
<g id="edge29_Node000016_Node000011" class="edge">
<title>Node11&#45;&gt;Node16</title>
<g id="a_edge29_Node000016_Node000011"><a xlink:title=" ">
<path fill="none" stroke="#9a32cd" stroke-dasharray="5,2" d="M711.05,-178.34C733.17,-194.33 768.98,-218.96 802.25,-236.32 840.88,-256.49 856.89,-248.8 893.25,-272.82 943.06,-305.74 989.13,-361.74 1006.35,-383.9"/>
<polygon fill="#9a32cd" stroke="#9a32cd" points="713.32,-174.93 703.18,-171.86 709.19,-180.59 713.32,-174.93"/>
</a>
</g>
<text text-anchor="middle" x="847.75" y="-273.32" font-family="Helvetica,sans-Serif" font-size="10.00" fill="grey"> lock</text>
</g>
<!-- Node12&#45;&gt;Node11 -->
<g id="edge14_Node000011_Node000012" class="edge">
<title>Node12&#45;&gt;Node11</title>
<g id="a_edge14_Node000011_Node000012"><a xlink:title=" ">
<path fill="none" stroke="#9a32cd" stroke-dasharray="5,2" d="M554.05,-122.58C575.13,-125.75 598.65,-130.08 619.75,-135.82 635.71,-140.17 653.08,-147.01 666.23,-152.65"/>
<polygon fill="#9a32cd" stroke="#9a32cd" points="554.68,-118.99 544.28,-121.02 553.68,-125.91 554.68,-118.99"/>
</a>
</g>
<text text-anchor="middle" x="590.5" y="-137.32" font-family="Helvetica,sans-Serif" font-size="10.00" fill="grey"> mutex</text>
</g>
<!-- Node13&#45;&gt;Node11 -->
<g id="edge17_Node000011_Node000013" class="edge">
<title>Node13&#45;&gt;Node11</title>
<g id="a_edge17_Node000011_Node000013"><a xlink:title=" ">
<path fill="none" stroke="#9a32cd" stroke-dasharray="5,2" d="M554.4,-186.79C582.16,-181.69 614.26,-175.79 639.98,-171.06"/>
<polygon fill="#9a32cd" stroke="#9a32cd" points="553.8,-183.52 544.6,-188.77 555.07,-190.41 553.8,-183.52"/>
</a>
</g>
<text text-anchor="middle" x="590.5" y="-185.32" font-family="Helvetica,sans-Serif" font-size="10.00" fill="grey"> semaphore</text>
</g>
<!-- Node14 -->
<g id="Node000014" class="node">
<title>Node14</title>
<g id="a_Node000014"><a xlink:href="a02302.html" target="_top" xlink:title=" ">
<polygon fill="white" stroke="#666666" points="877.88,-82.57 817.62,-82.57 817.62,-64.07 877.88,-64.07 877.88,-82.57"/>
<text text-anchor="middle" x="847.75" y="-69.07" font-family="Helvetica,sans-Serif" font-size="10.00">utils_kv_s</text>
</a>
</g>
</g>
<!-- Node14&#45;&gt;Node4 -->
<g id="edge22_Node000004_Node000014" class="edge">
<title>Node14&#45;&gt;Node4</title>
<g id="a_edge22_Node000004_Node000014"><a xlink:title=" ">
<path fill="none" stroke="#9a32cd" stroke-dasharray="5,2" d="M888.83,-66.57C911.9,-65 940.03,-67.35 959.25,-83.32 981.97,-102.21 958.65,-124.37 977.25,-147.32 980.29,-151.08 984.28,-154.18 988.49,-156.71"/>
<polygon fill="#9a32cd" stroke="#9a32cd" points="888.6,-63.17 878.98,-67.61 889.27,-70.14 888.6,-63.17"/>
</a>
</g>
<text text-anchor="middle" x="935.25" y="-94.82" font-family="Helvetica,sans-Serif" font-size="10.00" fill="grey"> ass_kv</text>
<text text-anchor="middle" x="935.25" y="-84.32" font-family="Helvetica,sans-Serif" font-size="10.00" fill="grey">metrics_kv</text>
</g>
<!-- Node15 -->
<g id="Node000015" class="node">
<title>Node15</title>
<g id="a_Node000015"><a xlink:href="a02306.html" target="_top" xlink:title=" ">
<polygon fill="white" stroke="#666666" points="705.12,-87.57 671.88,-87.57 671.88,-69.07 705.12,-69.07 705.12,-87.57"/>
<text text-anchor="middle" x="688.5" y="-74.07" font-family="Helvetica,sans-Serif" font-size="10.00">Pair</text>
</a>
</g>
</g>
<!-- Node15&#45;&gt;Node14 -->
<g id="edge23_Node000014_Node000015" class="edge">
<title>Node15&#45;&gt;Node14</title>
<g id="a_edge23_Node000014_Node000015"><a xlink:title=" ">
<path fill="none" stroke="#9a32cd" stroke-dasharray="5,2" d="M716.39,-77.47C744.4,-76.58 788.16,-75.19 817.14,-74.27"/>
<polygon fill="#9a32cd" stroke="#9a32cd" points="716.33,-74 706.44,-77.82 716.55,-81 716.33,-74"/>
</a>
</g>
<text text-anchor="middle" x="770.75" y="-77.32" font-family="Helvetica,sans-Serif" font-size="10.00" fill="grey"> kv</text>
</g>
<!-- Node16&#45;&gt;Node1 -->
<g id="edge27_Node000001_Node000016" class="edge">
<title>Node16&#45;&gt;Node1</title>
<g id="a_edge27_Node000001_Node000016"><a xlink:title=" ">
<path fill="none" stroke="#9a32cd" stroke-dasharray="5,2" d="M1042.05,-408.14C1072.89,-425.36 1122.86,-453.25 1148.94,-467.8"/>
<polygon fill="#9a32cd" stroke="#9a32cd" points="1044.2,-404.78 1033.76,-402.96 1040.79,-410.89 1044.2,-404.78"/>
</a>
</g>
<text text-anchor="middle" x="1089.62" y="-445.32" font-family="Helvetica,sans-Serif" font-size="10.00" fill="grey"> phys</text>
</g>
<!-- Node16&#45;&gt;Node18 -->
<g id="edge36_Node000018_Node000016" class="edge">
<title>Node16&#45;&gt;Node18</title>
<g id="a_edge36_Node000018_Node000016"><a xlink:title=" ">
<path fill="none" stroke="#9a32cd" stroke-dasharray="5,2" d="M1062.48,-382.69C1077.56,-380.71 1094.29,-380.03 1109.5,-382.82 1121.99,-385.12 1135.3,-390.05 1145.85,-394.61"/>
<polygon fill="#9a32cd" stroke="#9a32cd" points="1062.18,-379.35 1052.83,-384.33 1063.25,-386.26 1062.18,-379.35"/>
</a>
</g>
<text text-anchor="middle" x="1089.62" y="-383.32" font-family="Helvetica,sans-Serif" font-size="10.00" fill="grey"> phys</text>
</g>
<!-- Node17 -->
<g id="Node000017" class="node">
<title>Node17</title>
<g id="a_Node000017"><a xlink:href="a02330.html" target="_top" xlink:title=" ">
<polygon fill="white" stroke="#666666" points="893.25,-428.57 802.25,-428.57 802.25,-410.07 893.25,-410.07 893.25,-428.57"/>
<text text-anchor="middle" x="847.75" y="-415.07" font-family="Helvetica,sans-Serif" font-size="10.00">arax_accel_stats</text>
</a>
</g>
</g>
<!-- Node17&#45;&gt;Node16 -->
<g id="edge32_Node000016_Node000017" class="edge">
<title>Node17&#45;&gt;Node16</title>
<g id="a_edge32_Node000016_Node000017"><a xlink:title=" ">
<path fill="none" stroke="#9a32cd" stroke-dasharray="5,2" d="M904.09,-410.59C928.09,-406.8 955.54,-402.47 976.94,-399.09"/>
<polygon fill="#9a32cd" stroke="#9a32cd" points="903.67,-407.27 894.33,-412.29 904.76,-414.19 903.67,-407.27"/>
</a>
</g>
<text text-anchor="middle" x="935.25" y="-410.32" font-family="Helvetica,sans-Serif" font-size="10.00" fill="grey"> stats</text>
</g>
<!-- Node18&#45;&gt;Node16 -->
<g id="edge33_Node000016_Node000018" class="edge">
<title>Node18&#45;&gt;Node16</title>
<g id="a_edge33_Node000016_Node000018"><a xlink:title=" ">
<path fill="none" stroke="#9a32cd" stroke-dasharray="5,2" d="M1116.04,-400.67C1095.09,-399.14 1071.18,-397.39 1051.93,-395.99"/>
<polygon fill="#9a32cd" stroke="#9a32cd" points="1115.78,-404.24 1126.01,-401.47 1116.29,-397.25 1115.78,-404.24"/>
</a>
</g>
<text text-anchor="middle" x="1089.62" y="-400.32" font-family="Helvetica,sans-Serif" font-size="10.00" fill="grey"> free_vaq</text>
</g>
<!-- Node19 -->
<g id="Node000019" class="node">
<title>Node19</title>
<g id="a_Node000019"><a xlink:href="a02318.html" target="_top" xlink:title=" ">
<polygon fill="white" stroke="#666666" points="1035.62,-138.57 993.38,-138.57 993.38,-120.07 1035.62,-120.07 1035.62,-138.57"/>
<text text-anchor="middle" x="1014.5" y="-125.07" font-family="Helvetica,sans-Serif" font-size="10.00">queue</text>
</a>
</g>
</g>
<!-- Node19&#45;&gt;Node18 -->
<g id="edge37_Node000018_Node000019" class="edge">
<title>Node19&#45;&gt;Node18</title>
<g id="a_edge37_Node000018_Node000019"><a xlink:title=" ">
<path fill="none" stroke="#9a32cd" stroke-dasharray="5,2" d="M1045.33,-142.73C1047.65,-144.42 1049.83,-146.28 1051.75,-148.32 1124.71,-226.03 1156.45,-358.13 1164.1,-394.7"/>
<polygon fill="#9a32cd" stroke="#9a32cd" points="1047.31,-139.23 1036.94,-137.05 1043.68,-145.22 1047.31,-139.23"/>
</a>
</g>
<text text-anchor="middle" x="1089.62" y="-230.32" font-family="Helvetica,sans-Serif" font-size="10.00" fill="grey"> queue</text>
</g>
</g>
</svg>
