<?xml version="1.0" encoding="UTF-8" standalone="no"?>
<!DOCTYPE svg PUBLIC "-//W3C//DTD SVG 1.1//EN"
 "http://www.w3.org/Graphics/SVG/1.1/DTD/svg11.dtd">
<!-- Generated by graphviz version 12.2.1 (0)
 -->
<!-- Title: async_completion_s Pages: 1 -->
<svg width="302pt" height="224pt"
 viewBox="0.00 0.00 301.62 224.00" xmlns="http://www.w3.org/2000/svg" xmlns:xlink="http://www.w3.org/1999/xlink">
<g id="graph0" class="graph" transform="scale(1 1) rotate(0) translate(4 220)">
<title>async_completion_s</title>
<!-- Node1 -->
<g id="Node000001" class="node">
<title>Node1</title>
<g id="a_Node000001"><a xlink:title=" ">
<polygon fill="#999999" stroke="#666666" points="104.5,-18.5 0,-18.5 0,0 104.5,0 104.5,-18.5"/>
<text text-anchor="middle" x="52.25" y="-5" font-family="Helvetica,sans-Serif" font-size="10.00">async_completion_s</text>
</a>
</g>
</g>
<!-- Node2 -->
<g id="Node000002" class="node">
<title>Node2</title>
<g id="a_Node000002"><a xlink:href="a02242.html" target="_top" xlink:title=" ">
<polygon fill="white" stroke="#666666" points="178.75,-83.5 99.75,-83.5 99.75,-65 178.75,-65 178.75,-83.5"/>
<text text-anchor="middle" x="139.25" y="-70" font-family="Helvetica,sans-Serif" font-size="10.00">async_meta_s</text>
</a>
</g>
</g>
<!-- Node2&#45;&gt;Node1 -->
<g id="edge1_Node000001_Node000002" class="edge">
<title>Node2&#45;&gt;Node1</title>
<g id="a_edge1_Node000001_Node000002"><a xlink:title=" ">
<path fill="none" stroke="#9a32cd" stroke-dasharray="5,2" d="M118.37,-58.13C101.37,-45.82 78,-28.89 64.08,-18.81"/>
<polygon fill="#9a32cd" stroke="#9a32cd" points="116.14,-60.84 126.29,-63.87 120.24,-55.17 116.14,-60.84"/>
</a>
</g>
<text text-anchor="middle" x="113.33" y="-37.5" font-family="Helvetica,sans-Serif" font-size="10.00" fill="grey"> meta</text>
</g>
<!-- Node3 -->
<g id="Node000003" class="node">
<title>Node3</title>
<g id="a_Node000003"><a xlink:href="a02326.html" target="_top" xlink:title=" ">
<polygon fill="white" stroke="#666666" points="123.5,-148.5 61,-148.5 61,-130 123.5,-130 123.5,-148.5"/>
<text text-anchor="middle" x="92.25" y="-135" font-family="Helvetica,sans-Serif" font-size="10.00">utils_list_s</text>
</a>
</g>
</g>
<!-- Node3&#45;&gt;Node2 -->
<g id="edge2_Node000002_Node000003" class="edge">
<title>Node3&#45;&gt;Node2</title>
<g id="a_edge2_Node000002_Node000003"><a xlink:title=" ">
<path fill="none" stroke="#9a32cd" stroke-dasharray="5,2" d="M92.28,-118.57C93.07,-112.7 94.72,-106.5 98,-101.5 102.93,-93.97 110.85,-88.18 118.44,-83.97"/>
<polygon fill="#9a32cd" stroke="#9a32cd" points="88.81,-117.98 91.75,-128.16 95.8,-118.36 88.81,-117.98"/>
</a>
</g>
<text text-anchor="middle" x="124.62" y="-102.5" font-family="Helvetica,sans-Serif" font-size="10.00" fill="grey"> outstanding</text>
</g>
<!-- Node4 -->
<g id="Node000004" class="node">
<title>Node4</title>
<g id="a_Node000004"><a xlink:href="a02322.html" target="_top" xlink:title=" ">
<polygon fill="white" stroke="#666666" points="80.38,-214.75 2.12,-214.75 2.12,-196.25 80.38,-196.25 80.38,-214.75"/>
<text text-anchor="middle" x="41.25" y="-201.25" font-family="Helvetica,sans-Serif" font-size="10.00">utils_list_node</text>
</a>
</g>
</g>
<!-- Node4&#45;&gt;Node1 -->
<g id="edge7_Node000001_Node000004" class="edge">
<title>Node4&#45;&gt;Node1</title>
<g id="a_edge7_Node000001_Node000004"><a xlink:title=" ">
<path fill="none" stroke="#9a32cd" stroke-dasharray="5,2" d="M38.59,-184.55C36.21,-163.78 33.45,-130.31 36,-101.5 38.7,-70.88 46.42,-35.16 50.16,-18.99"/>
<polygon fill="#9a32cd" stroke="#9a32cd" points="35.12,-184.95 39.82,-194.44 42.06,-184.08 35.12,-184.95"/>
</a>
</g>
<text text-anchor="middle" x="62.62" y="-102.5" font-family="Helvetica,sans-Serif" font-size="10.00" fill="grey"> outstanding</text>
</g>
<!-- Node4&#45;&gt;Node3 -->
<g id="edge3_Node000003_Node000004" class="edge">
<title>Node4&#45;&gt;Node3</title>
<g id="a_edge3_Node000003_Node000004"><a xlink:title=" ">
<path fill="none" stroke="#9a32cd" stroke-dasharray="5,2" d="M55.24,-186.87C65.08,-174.48 77.8,-158.45 85.48,-148.78"/>
<polygon fill="#9a32cd" stroke="#9a32cd" points="52.54,-184.64 49.07,-194.65 58.03,-188.99 52.54,-184.64"/>
</a>
</g>
<text text-anchor="middle" x="83.32" y="-167.5" font-family="Helvetica,sans-Serif" font-size="10.00" fill="grey"> head</text>
</g>
<!-- Node4&#45;&gt;Node4 -->
<g id="edge4_Node000004_Node000004" class="edge">
<title>Node4&#45;&gt;Node4</title>
<g id="a_edge4_Node000004_Node000004"><a xlink:title=" ">
<path fill="none" stroke="#9a32cd" stroke-dasharray="5,2" d="M92.1,-210.25C95.99,-209.2 98.38,-207.61 98.38,-205.5 98.38,-201.74 90.82,-199.66 80.76,-199.25"/>
<polygon fill="#9a32cd" stroke="#9a32cd" points="91.72,-206.77 82.26,-211.55 92.64,-213.71 91.72,-206.77"/>
</a>
</g>
<text text-anchor="middle" x="109.25" y="-206.5" font-family="Helvetica,sans-Serif" font-size="10.00" fill="grey"> next</text>
<text text-anchor="middle" x="109.25" y="-196" font-family="Helvetica,sans-Serif" font-size="10.00" fill="grey">prev</text>
</g>
<!-- Node5 -->
<g id="Node000005" class="node">
<title>Node5</title>
<g id="a_Node000005"><a xlink:href="a02238.html" target="_top" xlink:title=" ">
<polygon fill="white" stroke="#666666" points="205.12,-148.5 149.38,-148.5 149.38,-130 205.12,-130 205.12,-148.5"/>
<text text-anchor="middle" x="177.25" y="-135" font-family="Helvetica,sans-Serif" font-size="10.00">ivshmem</text>
</a>
</g>
</g>
<!-- Node5&#45;&gt;Node2 -->
<g id="edge5_Node000002_Node000005" class="edge">
<title>Node5&#45;&gt;Node2</title>
<g id="a_edge5_Node000002_Node000005"><a xlink:title=" ">
<path fill="none" stroke="#9a32cd" stroke-dasharray="5,2" d="M166.42,-120.1C162.87,-114.17 158.9,-107.55 155.25,-101.5 151.72,-95.65 147.72,-89.09 144.6,-83.99"/>
<polygon fill="#9a32cd" stroke="#9a32cd" points="163.29,-121.68 171.42,-128.47 169.3,-118.09 163.29,-121.68"/>
</a>
</g>
<text text-anchor="middle" x="172.19" y="-102.5" font-family="Helvetica,sans-Serif" font-size="10.00" fill="grey"> regs</text>
</g>
<!-- Node6 -->
<g id="Node000006" class="node">
<title>Node6</title>
<g id="a_Node000006"><a xlink:href="a02194.html" target="_top" xlink:title=" ">
<polygon fill="white" stroke="#666666" points="293.62,-148.5 222.88,-148.5 222.88,-130 293.62,-130 293.62,-148.5"/>
<text text-anchor="middle" x="258.25" y="-135" font-family="Helvetica,sans-Serif" font-size="10.00">arch_alloc_s</text>
</a>
</g>
</g>
<!-- Node6&#45;&gt;Node2 -->
<g id="edge6_Node000002_Node000006" class="edge">
<title>Node6&#45;&gt;Node2</title>
<g id="a_edge6_Node000002_Node000006"><a xlink:title=" ">
<path fill="none" stroke="#9a32cd" stroke-dasharray="5,2" d="M232.26,-124.49C208.85,-112.1 175.18,-94.27 155.42,-83.81"/>
<polygon fill="#9a32cd" stroke="#9a32cd" points="230.39,-127.46 240.86,-129.05 233.66,-121.27 230.39,-127.46"/>
</a>
</g>
<text text-anchor="middle" x="217.5" y="-102.5" font-family="Helvetica,sans-Serif" font-size="10.00" fill="grey"> alloc</text>
</g>
</g>
</svg>
