<?xml version="1.0" encoding="UTF-8" standalone="no"?>
<!DOCTYPE svg PUBLIC "-//W3C//DTD SVG 1.1//EN"
 "http://www.w3.org/Graphics/SVG/1.1/DTD/svg11.dtd">
<!-- Generated by graphviz version 12.2.1 (0)
 -->
<!-- Title: malloc_state Pages: 1 -->
<svg width="421pt" height="136pt"
 viewBox="0.00 0.00 421.38 136.00" xmlns="http://www.w3.org/2000/svg" xmlns:xlink="http://www.w3.org/1999/xlink">
<g id="graph0" class="graph" transform="scale(1 1) rotate(0) translate(4 132)">
<title>malloc_state</title>
<!-- Node1 -->
<g id="Node000001" class="node">
<title>Node1</title>
<g id="a_Node000001"><a xlink:title=" ">
<polygon fill="#999999" stroke="#666666" points="209.75,-18.5 138.25,-18.5 138.25,0 209.75,0 209.75,-18.5"/>
<text text-anchor="middle" x="174" y="-5" font-family="Helvetica,sans-Serif" font-size="10.00">malloc_state</text>
</a>
</g>
</g>
<!-- Node2 -->
<g id="Node000002" class="node">
<title>Node2</title>
<g id="a_Node000002"><a xlink:href="a02210.html" target="_top" xlink:title=" ">
<polygon fill="white" stroke="#666666" points="76,-116.25 0,-116.25 0,-97.75 76,-97.75 76,-116.25"/>
<text text-anchor="middle" x="38" y="-102.75" font-family="Helvetica,sans-Serif" font-size="10.00">malloc_chunk</text>
</a>
</g>
</g>
<!-- Node2&#45;&gt;Node1 -->
<g id="edge1_Node000001_Node000002" class="edge">
<title>Node2&#45;&gt;Node1</title>
<g id="a_edge1_Node000001_Node000002"><a xlink:title=" ">
<path fill="none" stroke="#9a32cd" stroke-dasharray="5,2" d="M57.21,-90.14C75.22,-75.54 103.14,-53.63 128.75,-36.5 138.11,-30.24 149.02,-23.88 157.78,-19"/>
<polygon fill="#9a32cd" stroke="#9a32cd" points="55,-87.42 49.47,-96.46 59.43,-92.84 55,-87.42"/>
</a>
</g>
<text text-anchor="middle" x="149.38" y="-58.5" font-family="Helvetica,sans-Serif" font-size="10.00" fill="grey"> dv</text>
<text text-anchor="middle" x="149.38" y="-48" font-family="Helvetica,sans-Serif" font-size="10.00" fill="grey">smallbins</text>
<text text-anchor="middle" x="149.38" y="-37.5" font-family="Helvetica,sans-Serif" font-size="10.00" fill="grey">top</text>
</g>
<!-- Node2&#45;&gt;Node2 -->
<g id="edge2_Node000002_Node000002" class="edge">
<title>Node2&#45;&gt;Node2</title>
<g id="a_edge2_Node000002_Node000002"><a xlink:title=" ">
<path fill="none" stroke="#9a32cd" stroke-dasharray="5,2" d="M76.08,-117.18C86.27,-116.62 94,-113.23 94,-107 94,-98.61 79.96,-95.36 64.79,-97.26"/>
<polygon fill="#9a32cd" stroke="#9a32cd" points="76.43,-113.69 66.3,-116.8 76.16,-120.69 76.43,-113.69"/>
</a>
</g>
<text text-anchor="middle" x="100.75" y="-108" font-family="Helvetica,sans-Serif" font-size="10.00" fill="grey"> bk</text>
<text text-anchor="middle" x="100.75" y="-97.5" font-family="Helvetica,sans-Serif" font-size="10.00" fill="grey">fd</text>
</g>
<!-- Node3 -->
<g id="Node000003" class="node">
<title>Node3</title>
<g id="a_Node000003"><a xlink:href="a02214.html" target="_top" xlink:title=" ">
<polygon fill="white" stroke="#666666" points="222.88,-116.25 125.12,-116.25 125.12,-97.75 222.88,-97.75 222.88,-116.25"/>
<text text-anchor="middle" x="174" y="-102.75" font-family="Helvetica,sans-Serif" font-size="10.00">malloc_tree_chunk</text>
</a>
</g>
</g>
<!-- Node3&#45;&gt;Node1 -->
<g id="edge3_Node000001_Node000003" class="edge">
<title>Node3&#45;&gt;Node1</title>
<g id="a_edge3_Node000001_Node000003"><a xlink:title=" ">
<path fill="none" stroke="#9a32cd" stroke-dasharray="5,2" d="M174,-86.26C174,-65.55 174,-33.96 174,-18.87"/>
<polygon fill="#9a32cd" stroke="#9a32cd" points="170.5,-85.99 174,-95.99 177.5,-85.99 170.5,-85.99"/>
</a>
</g>
<text text-anchor="middle" x="192.75" y="-48" font-family="Helvetica,sans-Serif" font-size="10.00" fill="grey"> treebins</text>
</g>
<!-- Node3&#45;&gt;Node3 -->
<g id="edge4_Node000003_Node000003" class="edge">
<title>Node3&#45;&gt;Node3</title>
<g id="a_edge4_Node000003_Node000003"><a xlink:title=" ">
<path fill="none" stroke="#9a32cd" stroke-dasharray="5,2" d="M217.13,-117.26C230.43,-117.04 240.88,-113.62 240.88,-107 240.88,-98.61 224.11,-95.36 206,-97.26"/>
<polygon fill="#9a32cd" stroke="#9a32cd" points="217.66,-113.78 207.51,-116.81 217.33,-120.77 217.66,-113.78"/>
</a>
</g>
<text text-anchor="middle" x="254.38" y="-118.5" font-family="Helvetica,sans-Serif" font-size="10.00" fill="grey"> bk</text>
<text text-anchor="middle" x="254.38" y="-108" font-family="Helvetica,sans-Serif" font-size="10.00" fill="grey">child</text>
<text text-anchor="middle" x="254.38" y="-97.5" font-family="Helvetica,sans-Serif" font-size="10.00" fill="grey">fd</text>
<text text-anchor="middle" x="254.38" y="-87" font-family="Helvetica,sans-Serif" font-size="10.00" fill="grey">parent</text>
</g>
<!-- Node4 -->
<g id="Node000004" class="node">
<title>Node4</title>
<g id="a_Node000004"><a xlink:href="a02218.html" target="_top" xlink:title=" ">
<polygon fill="white" stroke="#666666" points="373.62,-116.25 286.38,-116.25 286.38,-97.75 373.62,-97.75 373.62,-116.25"/>
<text text-anchor="middle" x="330" y="-102.75" font-family="Helvetica,sans-Serif" font-size="10.00">malloc_segment</text>
</a>
</g>
</g>
<!-- Node4&#45;&gt;Node1 -->
<g id="edge5_Node000001_Node000004" class="edge">
<title>Node4&#45;&gt;Node1</title>
<g id="a_edge5_Node000001_Node000004"><a xlink:title=" ">
<path fill="none" stroke="#9a32cd" stroke-dasharray="5,2" d="M306.14,-91.35C273.15,-71.11 214.66,-35.21 187.97,-18.83"/>
<polygon fill="#9a32cd" stroke="#9a32cd" points="304.24,-94.29 314.59,-96.54 307.9,-88.33 304.24,-94.29"/>
</a>
</g>
<text text-anchor="middle" x="275.35" y="-48" font-family="Helvetica,sans-Serif" font-size="10.00" fill="grey"> seg</text>
</g>
<!-- Node4&#45;&gt;Node4 -->
<g id="edge6_Node000004_Node000004" class="edge">
<title>Node4&#45;&gt;Node4</title>
<g id="a_edge6_Node000004_Node000004"><a xlink:title=" ">
<path fill="none" stroke="#9a32cd" stroke-dasharray="5,2" d="M370.83,-117.23C382.57,-116.84 391.62,-113.43 391.62,-107 391.62,-98.61 376.17,-95.36 359.48,-97.26"/>
<polygon fill="#9a32cd" stroke="#9a32cd" points="371.14,-113.74 361,-116.8 370.84,-120.73 371.14,-113.74"/>
</a>
</g>
<text text-anchor="middle" x="402.5" y="-102.75" font-family="Helvetica,sans-Serif" font-size="10.00" fill="grey"> next</text>
</g>
</g>
</svg>
