<?xml version="1.0" encoding="UTF-8" standalone="no"?>
<!DOCTYPE svg PUBLIC "-//W3C//DTD SVG 1.1//EN"
 "http://www.w3.org/Graphics/SVG/1.1/DTD/svg11.dtd">
<!-- Generated by graphviz version 8.0.5 (0)
 -->
<!-- Title: async_condition_s Pages: 1 -->
<svg width="316pt" height="289pt"
 viewBox="0.00 0.00 315.88 289.00" xmlns="http://www.w3.org/2000/svg" xmlns:xlink="http://www.w3.org/1999/xlink">
<g id="graph0" class="graph" transform="scale(1 1) rotate(0) translate(4 285)">
<title>async_condition_s</title>
<!-- Node1 -->
<g id="Node000001" class="node">
<title>Node1</title>
<g id="a_Node000001"><a xlink:title=" ">
<polygon fill="#999999" stroke="#666666" points="200.25,-18.5 104,-18.5 104,0 200.25,0 200.25,-18.5"/>
<text text-anchor="middle" x="152.12" y="-5" font-family="Helvetica,sans-Serif" font-size="10.00">async_condition_s</text>
</a>
</g>
</g>
<!-- Node2 -->
<g id="Node000002" class="node">
<title>Node2</title>
<g id="a_Node000002"><a xlink:href="a02230.html" target="_top" xlink:title=" ">
<polygon fill="white" stroke="#666666" points="191.62,-148.5 112.62,-148.5 112.62,-130 191.62,-130 191.62,-148.5"/>
<text text-anchor="middle" x="152.12" y="-135" font-family="Helvetica,sans-Serif" font-size="10.00">async_meta_s</text>
</a>
</g>
</g>
<!-- Node2&#45;&gt;Node1 -->
<g id="edge1_Node000001_Node000002" class="edge">
<title>Node2&#45;&gt;Node1</title>
<g id="a_edge1_Node000001_Node000002"><a xlink:title=" ">
<path fill="none" stroke="#9a32cd" stroke-dasharray="5,2" d="M152.12,-119.02C152.12,-90.77 152.12,-39.21 152.12,-18.85"/>
<polygon fill="#9a32cd" stroke="#9a32cd" points="148.63,-118.85 152.12,-128.85 155.63,-118.85 148.63,-118.85"/>
</a>
</g>
<text text-anchor="middle" x="164.5" y="-70" font-family="Helvetica,sans-Serif" font-size="10.00" fill="grey"> meta</text>
</g>
<!-- Node7 -->
<g id="Node000007" class="node">
<title>Node7</title>
<g id="a_Node000007"><a xlink:href="a02234.html" target="_top" xlink:title=" ">
<polygon fill="white" stroke="#666666" points="116.38,-83.5 11.88,-83.5 11.88,-65 116.38,-65 116.38,-83.5"/>
<text text-anchor="middle" x="64.12" y="-70" font-family="Helvetica,sans-Serif" font-size="10.00">async_completion_s</text>
</a>
</g>
</g>
<!-- Node2&#45;&gt;Node7 -->
<g id="edge8_Node000007_Node000002" class="edge">
<title>Node2&#45;&gt;Node7</title>
<g id="a_edge8_Node000007_Node000002"><a xlink:title=" ">
<path fill="none" stroke="#9a32cd" stroke-dasharray="5,2" d="M130.28,-123.71C124.73,-119.94 118.8,-115.86 113.38,-112 100.16,-102.6 85.28,-91.41 75.36,-83.86"/>
<polygon fill="#9a32cd" stroke="#9a32cd" points="127.86,-126.97 138.11,-129.65 131.76,-121.16 127.86,-126.97"/>
</a>
</g>
<text text-anchor="middle" x="125.5" y="-102.5" font-family="Helvetica,sans-Serif" font-size="10.00" fill="grey"> meta</text>
</g>
<!-- Node8 -->
<g id="Node000008" class="node">
<title>Node8</title>
<g id="a_Node000008"><a xlink:href="a02238.html" target="_top" xlink:title=" ">
<polygon fill="white" stroke="#666666" points="299.75,-83.5 194.5,-83.5 194.5,-65 299.75,-65 299.75,-83.5"/>
<text text-anchor="middle" x="247.12" y="-70" font-family="Helvetica,sans-Serif" font-size="10.00">async_semaphore_s</text>
</a>
</g>
</g>
<!-- Node2&#45;&gt;Node8 -->
<g id="edge11_Node000008_Node000002" class="edge">
<title>Node2&#45;&gt;Node8</title>
<g id="a_edge11_Node000008_Node000002"><a xlink:title=" ">
<path fill="none" stroke="#9a32cd" stroke-dasharray="5,2" d="M173.89,-123.81C192.53,-111.46 218.73,-94.08 234.21,-83.81"/>
<polygon fill="#9a32cd" stroke="#9a32cd" points="172.34,-121.31 165.94,-129.75 176.21,-127.14 172.34,-121.31"/>
</a>
</g>
<text text-anchor="middle" x="217.5" y="-102.5" font-family="Helvetica,sans-Serif" font-size="10.00" fill="grey"> meta</text>
</g>
<!-- Node3 -->
<g id="Node000003" class="node">
<title>Node3</title>
<g id="a_Node000003"><a xlink:href="a02314.html" target="_top" xlink:title=" ">
<polygon fill="white" stroke="#666666" points="276.38,-213.5 213.88,-213.5 213.88,-195 276.38,-195 276.38,-213.5"/>
<text text-anchor="middle" x="245.12" y="-200" font-family="Helvetica,sans-Serif" font-size="10.00">utils_list_s</text>
</a>
</g>
</g>
<!-- Node3&#45;&gt;Node2 -->
<g id="edge2_Node000002_Node000003" class="edge">
<title>Node3&#45;&gt;Node2</title>
<g id="a_edge2_Node000002_Node000003"><a xlink:title=" ">
<path fill="none" stroke="#9a32cd" stroke-dasharray="5,2" d="M219.1,-189.38C212.39,-185.56 205.26,-181.29 198.88,-177 185.67,-168.14 171.44,-156.64 162.19,-148.88"/>
<polygon fill="#9a32cd" stroke="#9a32cd" points="217.06,-192.81 227.5,-194.6 220.45,-186.69 217.06,-192.81"/>
</a>
</g>
<text text-anchor="middle" x="224.75" y="-167.5" font-family="Helvetica,sans-Serif" font-size="10.00" fill="grey"> outstanding</text>
</g>
<!-- Node3&#45;&gt;Node8 -->
<g id="edge12_Node000008_Node000003" class="edge">
<title>Node3&#45;&gt;Node8</title>
<g id="a_edge12_Node000008_Node000003"><a xlink:title=" ">
<path fill="none" stroke="#9a32cd" stroke-dasharray="5,2" d="M250.83,-184.16C251.36,-181.76 251.82,-179.34 252.12,-177 256.63,-142.63 251.31,-101.24 248.56,-83.73"/>
<polygon fill="#9a32cd" stroke="#9a32cd" points="247.24,-183.05 248.04,-193.61 254,-184.86 247.24,-183.05"/>
</a>
</g>
<text text-anchor="middle" x="280.5" y="-135" font-family="Helvetica,sans-Serif" font-size="10.00" fill="grey"> pending_list</text>
</g>
<!-- Node4 -->
<g id="Node000004" class="node">
<title>Node4</title>
<g id="a_Node000004"><a xlink:href="a02310.html" target="_top" xlink:title=" ">
<polygon fill="white" stroke="#666666" points="78.25,-279.75 0,-279.75 0,-261.25 78.25,-261.25 78.25,-279.75"/>
<text text-anchor="middle" x="39.12" y="-266.25" font-family="Helvetica,sans-Serif" font-size="10.00">utils_list_node</text>
</a>
</g>
</g>
<!-- Node4&#45;&gt;Node3 -->
<g id="edge3_Node000003_Node000004" class="edge">
<title>Node4&#45;&gt;Node3</title>
<g id="a_edge3_Node000003_Node000004"><a xlink:title=" ">
<path fill="none" stroke="#9a32cd" stroke-dasharray="5,2" d="M77.2,-257.63C117.73,-244.98 180.93,-225.27 217.13,-213.98"/>
<polygon fill="#9a32cd" stroke="#9a32cd" points="76.41,-254.52 67.91,-260.83 78.5,-261.2 76.41,-254.52"/>
</a>
</g>
<text text-anchor="middle" x="172.12" y="-232.5" font-family="Helvetica,sans-Serif" font-size="10.00" fill="grey"> head</text>
</g>
<!-- Node4&#45;&gt;Node4 -->
<g id="edge4_Node000004_Node000004" class="edge">
<title>Node4&#45;&gt;Node4</title>
<g id="a_edge4_Node000004_Node000004"><a xlink:title=" ">
<path fill="none" stroke="#9a32cd" stroke-dasharray="5,2" d="M89.32,-275.42C93.59,-274.37 96.25,-272.73 96.25,-270.5 96.25,-266.74 88.7,-264.66 78.64,-264.25"/>
<polygon fill="#9a32cd" stroke="#9a32cd" points="89.13,-272.04 79.64,-276.75 89.99,-278.99 89.13,-272.04"/>
</a>
</g>
<text text-anchor="middle" x="107.12" y="-271.5" font-family="Helvetica,sans-Serif" font-size="10.00" fill="grey"> next</text>
<text text-anchor="middle" x="107.12" y="-261" font-family="Helvetica,sans-Serif" font-size="10.00" fill="grey">prev</text>
</g>
<!-- Node4&#45;&gt;Node7 -->
<g id="edge9_Node000007_Node000004" class="edge">
<title>Node4&#45;&gt;Node7</title>
<g id="a_edge9_Node000007_Node000004"><a xlink:title=" ">
<path fill="none" stroke="#9a32cd" stroke-dasharray="5,2" d="M39.16,-249.76C39.37,-234.71 40.06,-213.49 42.12,-195 46.81,-152.98 57.6,-103.53 62.1,-83.9"/>
<polygon fill="#9a32cd" stroke="#9a32cd" points="35.65,-249.73 39.08,-259.75 42.65,-249.78 35.65,-249.73"/>
</a>
</g>
<text text-anchor="middle" x="72.75" y="-167.5" font-family="Helvetica,sans-Serif" font-size="10.00" fill="grey"> outstanding</text>
</g>
<!-- Node5 -->
<g id="Node000005" class="node">
<title>Node5</title>
<g id="a_Node000005"><a xlink:href="a02226.html" target="_top" xlink:title=" ">
<polygon fill="white" stroke="#666666" points="107,-213.5 51.25,-213.5 51.25,-195 107,-195 107,-213.5"/>
<text text-anchor="middle" x="79.12" y="-200" font-family="Helvetica,sans-Serif" font-size="10.00">ivshmem</text>
</a>
</g>
</g>
<!-- Node5&#45;&gt;Node2 -->
<g id="edge5_Node000002_Node000005" class="edge">
<title>Node5&#45;&gt;Node2</title>
<g id="a_edge5_Node000002_Node000005"><a xlink:title=" ">
<path fill="none" stroke="#9a32cd" stroke-dasharray="5,2" d="M97.1,-187.74C111.41,-175.38 130.9,-158.56 142.44,-148.61"/>
<polygon fill="#9a32cd" stroke="#9a32cd" points="95.25,-185.57 89.97,-194.75 99.83,-190.87 95.25,-185.57"/>
</a>
</g>
<text text-anchor="middle" x="130" y="-167.5" font-family="Helvetica,sans-Serif" font-size="10.00" fill="grey"> regs</text>
</g>
<!-- Node6 -->
<g id="Node000006" class="node">
<title>Node6</title>
<g id="a_Node000006"><a xlink:href="a02182.html" target="_top" xlink:title=" ">
<polygon fill="white" stroke="#666666" points="195.5,-213.5 124.75,-213.5 124.75,-195 195.5,-195 195.5,-213.5"/>
<text text-anchor="middle" x="160.12" y="-200" font-family="Helvetica,sans-Serif" font-size="10.00">arch_alloc_s</text>
</a>
</g>
</g>
<!-- Node6&#45;&gt;Node2 -->
<g id="edge6_Node000002_Node000006" class="edge">
<title>Node6&#45;&gt;Node2</title>
<g id="a_edge6_Node000002_Node000006"><a xlink:title=" ">
<path fill="none" stroke="#9a32cd" stroke-dasharray="5,2" d="M154.26,-184.16C153.7,-181.77 153.22,-179.34 152.88,-177 151.47,-167.4 151.47,-156.25 151.7,-148.77"/>
<polygon fill="#9a32cd" stroke="#9a32cd" points="151.11,-184.91 157.16,-193.62 157.86,-183.04 151.11,-184.91"/>
</a>
</g>
<text text-anchor="middle" x="163.75" y="-167.5" font-family="Helvetica,sans-Serif" font-size="10.00" fill="grey"> alloc</text>
</g>
<!-- Node7&#45;&gt;Node1 -->
<g id="edge7_Node000001_Node000007" class="edge">
<title>Node7&#45;&gt;Node1</title>
<g id="a_edge7_Node000001_Node000007"><a xlink:title=" ">
<path fill="none" stroke="#9a32cd" stroke-dasharray="5,2" d="M81.62,-57.55C89.49,-50.77 99.04,-42.94 108.12,-36.5 117.12,-30.12 127.73,-23.76 136.27,-18.9"/>
<polygon fill="#9a32cd" stroke="#9a32cd" points="79.77,-55.39 74.56,-64.62 84.39,-60.66 79.77,-55.39"/>
</a>
</g>
<text text-anchor="middle" x="123.12" y="-37.5" font-family="Helvetica,sans-Serif" font-size="10.00" fill="grey"> mutex</text>
</g>
<!-- Node8&#45;&gt;Node1 -->
<g id="edge10_Node000001_Node000008" class="edge">
<title>Node8&#45;&gt;Node1</title>
<g id="a_edge10_Node000001_Node000008"><a xlink:title=" ">
<path fill="none" stroke="#9a32cd" stroke-dasharray="5,2" d="M225.36,-58.81C206.72,-46.46 180.52,-29.08 165.04,-18.81"/>
<polygon fill="#9a32cd" stroke="#9a32cd" points="223.04,-62.14 233.31,-64.75 226.91,-56.31 223.04,-62.14"/>
</a>
</g>
<text text-anchor="middle" x="230.62" y="-37.5" font-family="Helvetica,sans-Serif" font-size="10.00" fill="grey"> semaphore</text>
</g>
</g>
</svg>
