<?xml version="1.0" encoding="UTF-8" standalone="no"?>
<!DOCTYPE svg PUBLIC "-//W3C//DTD SVG 1.1//EN"
 "http://www.w3.org/Graphics/SVG/1.1/DTD/svg11.dtd">
<!-- Generated by graphviz version 8.0.5 (0)
 -->
<!-- Title: arax_vaccel_s Pages: 1 -->
<svg width="892pt" height="432pt"
 viewBox="0.00 0.00 892.12 432.00" xmlns="http://www.w3.org/2000/svg" xmlns:xlink="http://www.w3.org/1999/xlink">
<g id="graph0" class="graph" transform="scale(1 1) rotate(0) translate(4 428)">
<title>arax_vaccel_s</title>
<!-- Node1 -->
<g id="Node000001" class="node">
<title>Node1</title>
<g id="a_Node000001"><a xlink:title=" ">
<polygon fill="#999999" stroke="#666666" points="88.5,-95.25 9.5,-95.25 9.5,-76.75 88.5,-76.75 88.5,-95.25"/>
<text text-anchor="middle" x="49" y="-81.75" font-family="Helvetica,sans-Serif" font-size="10.00">arax_vaccel_s</text>
</a>
</g>
</g>
<!-- Node16 -->
<g id="Node000016" class="node">
<title>Node16</title>
<g id="a_Node000016"><a xlink:href="a02246.html" target="_top" xlink:title=" ">
<polygon fill="white" stroke="#666666" points="213.25,-18.5 138.75,-18.5 138.75,0 213.25,0 213.25,-18.5"/>
<text text-anchor="middle" x="176" y="-5" font-family="Helvetica,sans-Serif" font-size="10.00">arax_accel_s</text>
</a>
</g>
</g>
<!-- Node1&#45;&gt;Node16 -->
<g id="edge34_Node000016_Node000001" class="edge">
<title>Node1&#45;&gt;Node16</title>
<g id="a_edge34_Node000016_Node000001"><a xlink:title=" ">
<path fill="none" stroke="#9a32cd" stroke-dasharray="5,2" d="M33.66,-67.63C26.78,-57.71 21.73,-45.48 29.25,-36.5 42.91,-20.18 99.61,-13.99 138.4,-11.66"/>
<polygon fill="#9a32cd" stroke="#9a32cd" points="31.52,-69.58 40.45,-75.27 37.02,-65.25 31.52,-69.58"/>
</a>
</g>
<text text-anchor="middle" x="48.88" y="-42.75" font-family="Helvetica,sans-Serif" font-size="10.00" fill="grey"> free_vaq</text>
</g>
<!-- Node2 -->
<g id="Node000002" class="node">
<title>Node2</title>
<g id="a_Node000002"><a xlink:href="a02274.html" target="_top" xlink:title=" ">
<polygon fill="white" stroke="#666666" points="165.75,-161.5 88.25,-161.5 88.25,-143 165.75,-143 165.75,-161.5"/>
<text text-anchor="middle" x="127" y="-148" font-family="Helvetica,sans-Serif" font-size="10.00">arax_object_s</text>
</a>
</g>
</g>
<!-- Node2&#45;&gt;Node1 -->
<g id="edge1_Node000001_Node000002" class="edge">
<title>Node2&#45;&gt;Node1</title>
<g id="a_edge1_Node000001_Node000002"><a xlink:title=" ">
<path fill="none" stroke="#9a32cd" stroke-dasharray="5,2" d="M108.28,-135.83C93.04,-123.28 72.08,-106.01 59.6,-95.73"/>
<polygon fill="#9a32cd" stroke="#9a32cd" points="105.54,-138.93 115.48,-142.58 109.99,-133.53 105.54,-138.93"/>
</a>
</g>
<text text-anchor="middle" x="101.88" y="-115.5" font-family="Helvetica,sans-Serif" font-size="10.00" fill="grey"> obj</text>
</g>
<!-- Node2&#45;&gt;Node16 -->
<g id="edge29_Node000016_Node000002" class="edge">
<title>Node2&#45;&gt;Node16</title>
<g id="a_edge29_Node000016_Node000002"><a xlink:title=" ">
<path fill="none" stroke="#9a32cd" stroke-dasharray="5,2" d="M131.04,-132.44C134.53,-116.99 139.99,-94.61 146.25,-75.5 152.07,-57.73 154.09,-53.44 162,-36.5 164.8,-30.51 168.3,-23.95 171.1,-18.88"/>
<polygon fill="#9a32cd" stroke="#9a32cd" points="127.5,-131.22 128.77,-141.74 134.34,-132.72 127.5,-131.22"/>
</a>
</g>
<text text-anchor="middle" x="153.88" y="-81.75" font-family="Helvetica,sans-Serif" font-size="10.00" fill="grey"> obj</text>
</g>
<!-- Node3 -->
<g id="Node000003" class="node">
<title>Node3</title>
<g id="a_Node000003"><a xlink:href="a02266.html" target="_top" xlink:title=" ">
<polygon fill="white" stroke="#666666" points="335.75,-226.5 234.25,-226.5 234.25,-208 335.75,-208 335.75,-226.5"/>
<text text-anchor="middle" x="285" y="-213" font-family="Helvetica,sans-Serif" font-size="10.00">arax_object_repo_s</text>
</a>
</g>
</g>
<!-- Node3&#45;&gt;Node2 -->
<g id="edge2_Node000002_Node000003" class="edge">
<title>Node3&#45;&gt;Node2</title>
<g id="a_edge2_Node000002_Node000003"><a xlink:title=" ">
<path fill="none" stroke="#9a32cd" stroke-dasharray="5,2" d="M267.18,-200.8C257.84,-193.41 245.89,-184.99 234,-179.5 212.55,-169.6 186.9,-163.14 166.08,-159.11"/>
<polygon fill="#9a32cd" stroke="#9a32cd" points="264.61,-204.05 274.55,-207.71 269.07,-198.65 264.61,-204.05"/>
</a>
</g>
<text text-anchor="middle" x="261.88" y="-180.5" font-family="Helvetica,sans-Serif" font-size="10.00" fill="grey"> repo</text>
</g>
<!-- Node4 -->
<g id="Node000004" class="node">
<title>Node4</title>
<g id="a_Node000004"><a xlink:href="a02326.html" target="_top" xlink:title=" ">
<polygon fill="white" stroke="#666666" points="646.38,-18.5 587.62,-18.5 587.62,0 646.38,0 646.38,-18.5"/>
<text text-anchor="middle" x="617" y="-5" font-family="Helvetica,sans-Serif" font-size="10.00">arax_pipe</text>
</a>
</g>
</g>
<!-- Node3&#45;&gt;Node4 -->
<g id="edge4_Node000004_Node000003" class="edge">
<title>Node3&#45;&gt;Node4</title>
<g id="a_edge4_Node000004_Node000003"><a xlink:title=" ">
<path fill="none" stroke="#9a32cd" stroke-dasharray="5,2" d="M287.05,-196.89C291.24,-166.81 303.53,-108.85 338,-75.5 357.4,-56.74 426.81,-42.99 453,-36.5 499.32,-25.03 554.29,-17.42 587.37,-13.47"/>
<polygon fill="#9a32cd" stroke="#9a32cd" points="283.48,-196.25 285.74,-206.6 290.42,-197.09 283.48,-196.25"/>
</a>
</g>
<text text-anchor="middle" x="320.5" y="-115.5" font-family="Helvetica,sans-Serif" font-size="10.00" fill="grey"> objs</text>
</g>
<!-- Node4&#45;&gt;Node3 -->
<g id="edge3_Node000003_Node000004" class="edge">
<title>Node4&#45;&gt;Node3</title>
<g id="a_edge3_Node000003_Node000004"><a xlink:title=" ">
<path fill="none" stroke="#9a32cd" stroke-dasharray="5,2" d="M576.64,-15.1C552.55,-18.94 521.72,-25.54 496,-36.5 405.93,-74.88 415.56,-130.25 338,-190 328.73,-197.14 317.2,-203.13 307.27,-207.57"/>
<polygon fill="#9a32cd" stroke="#9a32cd" points="576.83,-18.46 586.2,-13.52 575.79,-11.54 576.83,-18.46"/>
</a>
</g>
<text text-anchor="middle" x="415.5" y="-115.5" font-family="Helvetica,sans-Serif" font-size="10.00" fill="grey"> pipe</text>
</g>
<!-- Node5 -->
<g id="Node000005" class="node">
<title>Node5</title>
<g id="a_Node000005"><a xlink:href="a02230.html" target="_top" xlink:title=" ">
<polygon fill="white" stroke="#666666" points="629.5,-291.5 550.5,-291.5 550.5,-273 629.5,-273 629.5,-291.5"/>
<text text-anchor="middle" x="590" y="-278" font-family="Helvetica,sans-Serif" font-size="10.00">async_meta_s</text>
</a>
</g>
</g>
<!-- Node5&#45;&gt;Node4 -->
<g id="edge5_Node000004_Node000005" class="edge">
<title>Node5&#45;&gt;Node4</title>
<g id="a_edge5_Node000004_Node000005"><a xlink:title=" ">
<path fill="none" stroke="#9a32cd" stroke-dasharray="5,2" d="M614.18,-266.43C637.73,-249.94 670,-220.92 670,-185.75 670,-185.75 670,-185.75 670,-85 670,-56.68 644.38,-31.61 628.76,-18.95"/>
<polygon fill="#9a32cd" stroke="#9a32cd" points="612.43,-264.06 606.05,-272.52 616.31,-269.88 612.43,-264.06"/>
</a>
</g>
<text text-anchor="middle" x="684.25" y="-148" font-family="Helvetica,sans-Serif" font-size="10.00" fill="grey"> async</text>
</g>
<!-- Node11 -->
<g id="Node000011" class="node">
<title>Node11</title>
<g id="a_Node000011"><a xlink:href="a02242.html" target="_top" xlink:title=" ">
<polygon fill="white" stroke="#666666" points="541.12,-161.5 444.88,-161.5 444.88,-143 541.12,-143 541.12,-161.5"/>
<text text-anchor="middle" x="493" y="-148" font-family="Helvetica,sans-Serif" font-size="10.00">async_condition_s</text>
</a>
</g>
</g>
<!-- Node5&#45;&gt;Node11 -->
<g id="edge13_Node000011_Node000005" class="edge">
<title>Node5&#45;&gt;Node11</title>
<g id="a_edge13_Node000011_Node000005"><a xlink:title=" ">
<path fill="none" stroke="#9a32cd" stroke-dasharray="5,2" d="M556.49,-268.13C538.11,-259.18 516.62,-245.48 504.25,-226.5 491.05,-206.23 491.17,-176.23 492.16,-161.72"/>
<polygon fill="#9a32cd" stroke="#9a32cd" points="554.75,-271.64 565.3,-272.62 557.66,-265.28 554.75,-271.64"/>
</a>
</g>
<text text-anchor="middle" x="516.38" y="-213" font-family="Helvetica,sans-Serif" font-size="10.00" fill="grey"> meta</text>
</g>
<!-- Node12 -->
<g id="Node000012" class="node">
<title>Node12</title>
<g id="a_Node000012"><a xlink:href="a02234.html" target="_top" xlink:title=" ">
<polygon fill="white" stroke="#666666" points="642.25,-226.5 537.75,-226.5 537.75,-208 642.25,-208 642.25,-226.5"/>
<text text-anchor="middle" x="590" y="-213" font-family="Helvetica,sans-Serif" font-size="10.00">async_completion_s</text>
</a>
</g>
</g>
<!-- Node5&#45;&gt;Node12 -->
<g id="edge15_Node000012_Node000005" class="edge">
<title>Node5&#45;&gt;Node12</title>
<g id="a_edge15_Node000012_Node000005"><a xlink:title=" ">
<path fill="none" stroke="#9a32cd" stroke-dasharray="5,2" d="M590,-261.76C590,-249.97 590,-235.53 590,-226.61"/>
<polygon fill="#9a32cd" stroke="#9a32cd" points="586.5,-261.75 590,-271.75 593.5,-261.75 586.5,-261.75"/>
</a>
</g>
<text text-anchor="middle" x="602.38" y="-245.5" font-family="Helvetica,sans-Serif" font-size="10.00" fill="grey"> meta</text>
</g>
<!-- Node13 -->
<g id="Node000013" class="node">
<title>Node13</title>
<g id="a_Node000013"><a xlink:href="a02238.html" target="_top" xlink:title=" ">
<polygon fill="white" stroke="#666666" points="458.62,-226.5 353.38,-226.5 353.38,-208 458.62,-208 458.62,-226.5"/>
<text text-anchor="middle" x="406" y="-213" font-family="Helvetica,sans-Serif" font-size="10.00">async_semaphore_s</text>
</a>
</g>
</g>
<!-- Node5&#45;&gt;Node13 -->
<g id="edge18_Node000013_Node000005" class="edge">
<title>Node5&#45;&gt;Node13</title>
<g id="a_edge18_Node000013_Node000005"><a xlink:title=" ">
<path fill="none" stroke="#9a32cd" stroke-dasharray="5,2" d="M539.37,-276.61C513.67,-272.95 482.43,-266.46 456.25,-255 440.41,-248.07 424.74,-235.44 415.22,-226.95"/>
<polygon fill="#9a32cd" stroke="#9a32cd" points="538.64,-280.17 549.01,-278.01 539.56,-273.23 538.64,-280.17"/>
</a>
</g>
<text text-anchor="middle" x="468.38" y="-245.5" font-family="Helvetica,sans-Serif" font-size="10.00" fill="grey"> meta</text>
</g>
<!-- Node6 -->
<g id="Node000006" class="node">
<title>Node6</title>
<g id="a_Node000006"><a xlink:href="a02314.html" target="_top" xlink:title=" ">
<polygon fill="white" stroke="#666666" points="360.25,-356.5 297.75,-356.5 297.75,-338 360.25,-338 360.25,-356.5"/>
<text text-anchor="middle" x="329" y="-343" font-family="Helvetica,sans-Serif" font-size="10.00">utils_list_s</text>
</a>
</g>
</g>
<!-- Node6&#45;&gt;Node3 -->
<g id="edge25_Node000003_Node000006" class="edge">
<title>Node6&#45;&gt;Node3</title>
<g id="a_edge25_Node000003_Node000006"><a xlink:title=" ">
<path fill="none" stroke="#9a32cd" stroke-dasharray="5,2" d="M322.65,-327.77C313,-299.7 295.02,-247.39 287.96,-226.85"/>
<polygon fill="#9a32cd" stroke="#9a32cd" points="319.55,-328.53 326.11,-336.85 326.17,-326.26 319.55,-328.53"/>
</a>
</g>
<text text-anchor="middle" x="316.88" y="-278" font-family="Helvetica,sans-Serif" font-size="10.00" fill="grey"> list</text>
</g>
<!-- Node6&#45;&gt;Node4 -->
<g id="edge21_Node000004_Node000006" class="edge">
<title>Node6&#45;&gt;Node4</title>
<g id="a_edge21_Node000004_Node000006"><a xlink:title=" ">
<path fill="none" stroke="#9a32cd" stroke-dasharray="5,2" d="M371.47,-343.62C446.38,-338.2 597.97,-323.52 639,-291.5 695.66,-247.29 712.83,-214.19 703,-143 696.2,-93.78 702.33,-73.35 669,-36.5 662.01,-28.77 652.23,-23.02 643.03,-18.89"/>
<polygon fill="#9a32cd" stroke="#9a32cd" points="371.3,-340.19 361.56,-344.38 371.78,-347.18 371.3,-340.19"/>
</a>
</g>
<text text-anchor="middle" x="734.25" y="-180.5" font-family="Helvetica,sans-Serif" font-size="10.00" fill="grey"> orphan_vacs</text>
</g>
<!-- Node6&#45;&gt;Node5 -->
<g id="edge6_Node000005_Node000006" class="edge">
<title>Node6&#45;&gt;Node5</title>
<g id="a_edge6_Node000005_Node000006"><a xlink:title=" ">
<path fill="none" stroke="#9a32cd" stroke-dasharray="5,2" d="M371.34,-336.03C422.05,-323.79 506.11,-303.5 553.88,-291.97"/>
<polygon fill="#9a32cd" stroke="#9a32cd" points="370.64,-332.84 361.74,-338.59 372.28,-339.64 370.64,-332.84"/>
</a>
</g>
<text text-anchor="middle" x="501.62" y="-310.5" font-family="Helvetica,sans-Serif" font-size="10.00" fill="grey"> outstanding</text>
</g>
<!-- Node6&#45;&gt;Node13 -->
<g id="edge19_Node000013_Node000006" class="edge">
<title>Node6&#45;&gt;Node13</title>
<g id="a_edge19_Node000013_Node000006"><a xlink:title=" ">
<path fill="none" stroke="#9a32cd" stroke-dasharray="5,2" d="M339.67,-328.52C356.44,-300.63 388.36,-247.57 400.83,-226.85"/>
<polygon fill="#9a32cd" stroke="#9a32cd" points="336.21,-326.48 334.05,-336.85 342.21,-330.09 336.21,-326.48"/>
</a>
</g>
<text text-anchor="middle" x="399.38" y="-278" font-family="Helvetica,sans-Serif" font-size="10.00" fill="grey"> pending_list</text>
</g>
<!-- Node6&#45;&gt;Node16 -->
<g id="edge31_Node000016_Node000006" class="edge">
<title>Node6&#45;&gt;Node16</title>
<g id="a_edge31_Node000016_Node000006"><a xlink:title=" ">
<path fill="none" stroke="#9a32cd" stroke-dasharray="5,2" d="M286.59,-343.81C247.01,-338.97 194,-324.74 194,-283.25 194,-283.25 194,-283.25 194,-183.75 194,-120.16 181.89,-44.15 177.53,-18.88"/>
<polygon fill="#9a32cd" stroke="#9a32cd" points="286.04,-347.38 296.35,-344.94 286.77,-340.42 286.04,-347.38"/>
</a>
</g>
<text text-anchor="middle" x="212" y="-180.5" font-family="Helvetica,sans-Serif" font-size="10.00" fill="grey"> vaccels</text>
</g>
<!-- Node7 -->
<g id="Node000007" class="node">
<title>Node7</title>
<g id="a_Node000007"><a xlink:href="a02310.html" target="_top" xlink:title=" ">
<polygon fill="white" stroke="#666666" points="290.12,-422.75 211.88,-422.75 211.88,-404.25 290.12,-404.25 290.12,-422.75"/>
<text text-anchor="middle" x="251" y="-409.25" font-family="Helvetica,sans-Serif" font-size="10.00">utils_list_node</text>
</a>
</g>
</g>
<!-- Node7&#45;&gt;Node1 -->
<g id="edge27_Node000001_Node000007" class="edge">
<title>Node7&#45;&gt;Node1</title>
<g id="a_edge27_Node000001_Node000007"><a xlink:title=" ">
<path fill="none" stroke="#9a32cd" stroke-dasharray="5,2" d="M200.67,-409.79C127.4,-404.45 0,-389.27 0,-348.25 0,-348.25 0,-348.25 0,-151.25 0,-127.26 21.86,-106.65 36.38,-95.61"/>
<polygon fill="#9a32cd" stroke="#9a32cd" points="200.29,-413.34 210.51,-410.54 200.77,-406.36 200.29,-413.34"/>
</a>
</g>
<text text-anchor="middle" x="18" y="-245.5" font-family="Helvetica,sans-Serif" font-size="10.00" fill="grey"> vaccels</text>
</g>
<!-- Node7&#45;&gt;Node2 -->
<g id="edge26_Node000002_Node000007" class="edge">
<title>Node7&#45;&gt;Node2</title>
<g id="a_edge26_Node000002_Node000007"><a xlink:title=" ">
<path fill="none" stroke="#9a32cd" stroke-dasharray="5,2" d="M200.95,-403.94C170.72,-395.57 138,-379.34 138,-348.25 138,-348.25 138,-348.25 138,-216.25 138,-196.49 132.68,-173.75 129.44,-161.73"/>
<polygon fill="#9a32cd" stroke="#9a32cd" points="199.93,-407.54 210.48,-406.58 201.63,-400.75 199.93,-407.54"/>
</a>
</g>
<text text-anchor="middle" x="145.88" y="-278" font-family="Helvetica,sans-Serif" font-size="10.00" fill="grey"> list</text>
</g>
<!-- Node7&#45;&gt;Node6 -->
<g id="edge7_Node000006_Node000007" class="edge">
<title>Node7&#45;&gt;Node6</title>
<g id="a_edge7_Node000006_Node000007"><a xlink:title=" ">
<path fill="none" stroke="#9a32cd" stroke-dasharray="5,2" d="M269.72,-397.08C284.96,-384.53 305.92,-367.26 318.4,-356.98"/>
<polygon fill="#9a32cd" stroke="#9a32cd" points="268.01,-394.78 262.52,-403.83 272.46,-400.18 268.01,-394.78"/>
</a>
</g>
<text text-anchor="middle" x="308" y="-375.5" font-family="Helvetica,sans-Serif" font-size="10.00" fill="grey"> head</text>
</g>
<!-- Node7&#45;&gt;Node7 -->
<g id="edge8_Node000007_Node000007" class="edge">
<title>Node7&#45;&gt;Node7</title>
<g id="a_edge8_Node000007_Node000007"><a xlink:title=" ">
<path fill="none" stroke="#9a32cd" stroke-dasharray="5,2" d="M301.19,-418.42C305.46,-417.37 308.12,-415.73 308.12,-413.5 308.12,-409.74 300.57,-407.66 290.51,-407.25"/>
<polygon fill="#9a32cd" stroke="#9a32cd" points="301,-415.04 291.51,-419.75 301.87,-421.99 301,-415.04"/>
</a>
</g>
<text text-anchor="middle" x="319" y="-414.5" font-family="Helvetica,sans-Serif" font-size="10.00" fill="grey"> next</text>
<text text-anchor="middle" x="319" y="-404" font-family="Helvetica,sans-Serif" font-size="10.00" fill="grey">prev</text>
</g>
<!-- Node7&#45;&gt;Node12 -->
<g id="edge16_Node000012_Node000007" class="edge">
<title>Node7&#45;&gt;Node12</title>
<g id="a_edge16_Node000012_Node000007"><a xlink:title=" ">
<path fill="none" stroke="#9a32cd" stroke-dasharray="5,2" d="M301.27,-410.57C421.8,-405.44 719.48,-389.52 749,-356.5 798.12,-301.55 671.41,-247.45 615.23,-226.91"/>
<polygon fill="#9a32cd" stroke="#9a32cd" points="301.36,-407.11 291.51,-411.02 301.65,-414.1 301.36,-407.11"/>
</a>
</g>
<text text-anchor="middle" x="784.62" y="-310.5" font-family="Helvetica,sans-Serif" font-size="10.00" fill="grey"> outstanding</text>
</g>
<!-- Node8 -->
<g id="Node000008" class="node">
<title>Node8</title>
<g id="a_Node000008"><a xlink:href="a02226.html" target="_top" xlink:title=" ">
<polygon fill="white" stroke="#666666" points="651.88,-356.5 596.12,-356.5 596.12,-338 651.88,-338 651.88,-356.5"/>
<text text-anchor="middle" x="624" y="-343" font-family="Helvetica,sans-Serif" font-size="10.00">ivshmem</text>
</a>
</g>
</g>
<!-- Node8&#45;&gt;Node5 -->
<g id="edge9_Node000005_Node000008" class="edge">
<title>Node8&#45;&gt;Node5</title>
<g id="a_edge9_Node000005_Node000008"><a xlink:title=" ">
<path fill="none" stroke="#9a32cd" stroke-dasharray="5,2" d="M614.28,-328.24C607.78,-316.19 599.53,-300.91 594.51,-291.61"/>
<polygon fill="#9a32cd" stroke="#9a32cd" points="611.59,-329.62 619.41,-336.75 617.75,-326.29 611.59,-329.62"/>
</a>
</g>
<text text-anchor="middle" x="619.88" y="-310.5" font-family="Helvetica,sans-Serif" font-size="10.00" fill="grey"> regs</text>
</g>
<!-- Node9 -->
<g id="Node000009" class="node">
<title>Node9</title>
<g id="a_Node000009"><a xlink:href="a02182.html" target="_top" xlink:title=" ">
<polygon fill="white" stroke="#666666" points="740.38,-356.5 669.62,-356.5 669.62,-338 740.38,-338 740.38,-356.5"/>
<text text-anchor="middle" x="705" y="-343" font-family="Helvetica,sans-Serif" font-size="10.00">arch_alloc_s</text>
</a>
</g>
</g>
<!-- Node9&#45;&gt;Node4 -->
<g id="edge24_Node000004_Node000009" class="edge">
<title>Node9&#45;&gt;Node4</title>
<g id="a_edge24_Node000004_Node000009"><a xlink:title=" ">
<path fill="none" stroke="#9a32cd" stroke-dasharray="5,2" d="M715.99,-328.18C732.46,-299.92 762.82,-243 774,-190 785.96,-133.32 863.09,-156.39 741,-36.5 727.89,-23.63 679.12,-16.38 646.79,-12.89"/>
<polygon fill="#9a32cd" stroke="#9a32cd" points="712.53,-326.15 710.43,-336.54 718.54,-329.73 712.53,-326.15"/>
</a>
</g>
<text text-anchor="middle" x="796.88" y="-180.5" font-family="Helvetica,sans-Serif" font-size="10.00" fill="grey"> allocator</text>
</g>
<!-- Node9&#45;&gt;Node5 -->
<g id="edge10_Node000005_Node000009" class="edge">
<title>Node9&#45;&gt;Node5</title>
<g id="a_edge10_Node000005_Node000009"><a xlink:title=" ">
<path fill="none" stroke="#9a32cd" stroke-dasharray="5,2" d="M679.88,-332.49C657.26,-320.1 624.72,-302.27 605.63,-291.81"/>
<polygon fill="#9a32cd" stroke="#9a32cd" points="678.04,-336.02 688.49,-337.75 681.4,-329.88 678.04,-336.02"/>
</a>
</g>
<text text-anchor="middle" x="665.62" y="-310.5" font-family="Helvetica,sans-Serif" font-size="10.00" fill="grey"> alloc</text>
</g>
<!-- Node10 -->
<g id="Node000010" class="node">
<title>Node10</title>
<g id="a_Node000010"><a xlink:href="a02286.html" target="_top" xlink:title=" ">
<polygon fill="white" stroke="#666666" points="528.62,-95.25 447.38,-95.25 447.38,-76.75 528.62,-76.75 528.62,-95.25"/>
<text text-anchor="middle" x="488" y="-81.75" font-family="Helvetica,sans-Serif" font-size="10.00">arax_throttle_s</text>
</a>
</g>
</g>
<!-- Node10&#45;&gt;Node4 -->
<g id="edge11_Node000004_Node000010" class="edge">
<title>Node10&#45;&gt;Node4</title>
<g id="a_edge11_Node000004_Node000010"><a xlink:title=" ">
<path fill="none" stroke="#9a32cd" stroke-dasharray="5,2" d="M495.39,-66.36C500.35,-56.13 507.84,-44.04 518,-36.5 538.14,-21.57 566.13,-15.12 587.21,-12.34"/>
<polygon fill="#9a32cd" stroke="#9a32cd" points="491.79,-64.85 491,-75.42 498.21,-67.65 491.79,-64.85"/>
</a>
</g>
<text text-anchor="middle" x="534.5" y="-42.75" font-family="Helvetica,sans-Serif" font-size="10.00" fill="grey"> throttle</text>
</g>
<!-- Node10&#45;&gt;Node16 -->
<g id="edge32_Node000016_Node000010" class="edge">
<title>Node10&#45;&gt;Node16</title>
<g id="a_edge32_Node000016_Node000010"><a xlink:title=" ">
<path fill="none" stroke="#9a32cd" stroke-dasharray="5,2" d="M449.04,-73.23C413.73,-62.79 360.16,-47.53 313,-36.5 279.63,-28.69 241.3,-21.5 213.68,-16.62"/>
<polygon fill="#9a32cd" stroke="#9a32cd" points="447.8,-76.81 458.38,-76.3 449.8,-70.1 447.8,-76.81"/>
</a>
</g>
<text text-anchor="middle" x="406.5" y="-42.75" font-family="Helvetica,sans-Serif" font-size="10.00" fill="grey"> throttle</text>
</g>
<!-- Node11&#45;&gt;Node4 -->
<g id="edge20_Node000004_Node000011" class="edge">
<title>Node11&#45;&gt;Node4</title>
<g id="a_edge20_Node000004_Node000011"><a xlink:title=" ">
<path fill="none" stroke="#9a32cd" stroke-dasharray="5,2" d="M510.66,-135.31C514.16,-131.98 517.76,-128.43 521,-125 556.68,-87.24 595.2,-38.44 610.35,-18.9"/>
<polygon fill="#9a32cd" stroke="#9a32cd" points="508.82,-132.17 503.87,-141.54 513.58,-137.3 508.82,-132.17"/>
</a>
</g>
<text text-anchor="middle" x="601.62" y="-87" font-family="Helvetica,sans-Serif" font-size="10.00" fill="grey"> cntrl_ready_cond</text>
<text text-anchor="middle" x="601.62" y="-76.5" font-family="Helvetica,sans-Serif" font-size="10.00" fill="grey">orphan_cond</text>
</g>
<!-- Node11&#45;&gt;Node10 -->
<g id="edge12_Node000010_Node000011" class="edge">
<title>Node11&#45;&gt;Node10</title>
<g id="a_edge12_Node000010_Node000011"><a xlink:title=" ">
<path fill="none" stroke="#9a32cd" stroke-dasharray="5,2" d="M491.48,-131.75C490.54,-119.66 489.38,-104.72 488.66,-95.53"/>
<polygon fill="#9a32cd" stroke="#9a32cd" points="488.06,-131.89 492.33,-141.58 495.04,-131.34 488.06,-131.89"/>
</a>
</g>
<text text-anchor="middle" x="503.5" y="-115.5" font-family="Helvetica,sans-Serif" font-size="10.00" fill="grey"> ready</text>
</g>
<!-- Node11&#45;&gt;Node16 -->
<g id="edge30_Node000016_Node000011" class="edge">
<title>Node11&#45;&gt;Node16</title>
<g id="a_edge30_Node000016_Node000011"><a xlink:title=" ">
<path fill="none" stroke="#9a32cd" stroke-dasharray="5,2" d="M436.89,-139.88C422,-136 406.13,-131.07 392,-125 323.67,-95.64 316.99,-68.79 250,-36.5 235.63,-29.58 218.94,-23.5 205.05,-18.94"/>
<polygon fill="#9a32cd" stroke="#9a32cd" points="435.98,-143.51 446.53,-142.52 437.67,-136.72 435.98,-143.51"/>
</a>
</g>
<text text-anchor="middle" x="349.5" y="-81.75" font-family="Helvetica,sans-Serif" font-size="10.00" fill="grey"> lock</text>
</g>
<!-- Node12&#45;&gt;Node11 -->
<g id="edge14_Node000011_Node000012" class="edge">
<title>Node12&#45;&gt;Node11</title>
<g id="a_edge14_Node000011_Node000012"><a xlink:title=" ">
<path fill="none" stroke="#9a32cd" stroke-dasharray="5,2" d="M567.77,-201.81C548.75,-189.46 522,-172.08 506.18,-161.81"/>
<polygon fill="#9a32cd" stroke="#9a32cd" points="565.63,-205.24 575.92,-207.75 569.44,-199.37 565.63,-205.24"/>
</a>
</g>
<text text-anchor="middle" x="562" y="-180.5" font-family="Helvetica,sans-Serif" font-size="10.00" fill="grey"> mutex</text>
</g>
<!-- Node13&#45;&gt;Node11 -->
<g id="edge17_Node000011_Node000013" class="edge">
<title>Node13&#45;&gt;Node11</title>
<g id="a_edge17_Node000011_Node000013"><a xlink:title=" ">
<path fill="none" stroke="#9a32cd" stroke-dasharray="5,2" d="M414.93,-198.07C418.83,-191.54 423.92,-184.55 430,-179.5 439.29,-171.77 451.18,-166.04 462.12,-161.93"/>
<polygon fill="#9a32cd" stroke="#9a32cd" points="411.45,-196.14 409.79,-206.6 417.61,-199.46 411.45,-196.14"/>
</a>
</g>
<text text-anchor="middle" x="455.5" y="-180.5" font-family="Helvetica,sans-Serif" font-size="10.00" fill="grey"> semaphore</text>
</g>
<!-- Node14 -->
<g id="Node000014" class="node">
<title>Node14</title>
<g id="a_Node000014"><a xlink:href="a02302.html" target="_top" xlink:title=" ">
<polygon fill="white" stroke="#666666" points="884.12,-95.25 823.88,-95.25 823.88,-76.75 884.12,-76.75 884.12,-95.25"/>
<text text-anchor="middle" x="854" y="-81.75" font-family="Helvetica,sans-Serif" font-size="10.00">utils_kv_s</text>
</a>
</g>
</g>
<!-- Node14&#45;&gt;Node4 -->
<g id="edge22_Node000004_Node000014" class="edge">
<title>Node14&#45;&gt;Node4</title>
<g id="a_edge22_Node000004_Node000014"><a xlink:title=" ">
<path fill="none" stroke="#9a32cd" stroke-dasharray="5,2" d="M842.86,-67.47C835.03,-56.7 823.56,-43.64 810,-36.5 782.25,-21.89 693.38,-14.67 646.54,-11.8"/>
<polygon fill="#9a32cd" stroke="#9a32cd" points="840.47,-69.18 848.98,-75.48 846.26,-65.24 840.47,-69.18"/>
</a>
</g>
<text text-anchor="middle" x="858" y="-48" font-family="Helvetica,sans-Serif" font-size="10.00" fill="grey"> ass_kv</text>
<text text-anchor="middle" x="858" y="-37.5" font-family="Helvetica,sans-Serif" font-size="10.00" fill="grey">metrics_kv</text>
</g>
<!-- Node15 -->
<g id="Node000015" class="node">
<title>Node15</title>
<g id="a_Node000015"><a xlink:href="a02306.html" target="_top" xlink:title=" ">
<polygon fill="white" stroke="#666666" points="870.62,-161.5 837.38,-161.5 837.38,-143 870.62,-143 870.62,-161.5"/>
<text text-anchor="middle" x="854" y="-148" font-family="Helvetica,sans-Serif" font-size="10.00">Pair</text>
</a>
</g>
</g>
<!-- Node15&#45;&gt;Node14 -->
<g id="edge23_Node000014_Node000015" class="edge">
<title>Node15&#45;&gt;Node14</title>
<g id="a_edge23_Node000014_Node000015"><a xlink:title=" ">
<path fill="none" stroke="#9a32cd" stroke-dasharray="5,2" d="M854,-131.75C854,-119.66 854,-104.72 854,-95.53"/>
<polygon fill="#9a32cd" stroke="#9a32cd" points="850.5,-131.58 854,-141.58 857.5,-131.58 850.5,-131.58"/>
</a>
</g>
<text text-anchor="middle" x="860.75" y="-115.5" font-family="Helvetica,sans-Serif" font-size="10.00" fill="grey"> kv</text>
</g>
<!-- Node16&#45;&gt;Node1 -->
<g id="edge28_Node000001_Node000016" class="edge">
<title>Node16&#45;&gt;Node1</title>
<g id="a_edge28_Node000001_Node000016"><a xlink:title=" ">
<path fill="none" stroke="#9a32cd" stroke-dasharray="5,2" d="M127.98,-21.37C116.58,-25.18 104.82,-30.13 94.75,-36.5 85.85,-42.13 66.48,-64.27 56.03,-76.6"/>
<polygon fill="#9a32cd" stroke="#9a32cd" points="128.75,-24.49 137.28,-18.2 126.69,-17.8 128.75,-24.49"/>
</a>
</g>
<text text-anchor="middle" x="105.62" y="-42.75" font-family="Helvetica,sans-Serif" font-size="10.00" fill="grey"> phys</text>
</g>
<!-- Node17 -->
<g id="Node000017" class="node">
<title>Node17</title>
<g id="a_Node000017"><a xlink:href="a02330.html" target="_top" xlink:title=" ">
<polygon fill="white" stroke="#666666" points="295.5,-95.25 204.5,-95.25 204.5,-76.75 295.5,-76.75 295.5,-95.25"/>
<text text-anchor="middle" x="250" y="-81.75" font-family="Helvetica,sans-Serif" font-size="10.00">arax_accel_stats</text>
</a>
</g>
</g>
<!-- Node17&#45;&gt;Node16 -->
<g id="edge33_Node000016_Node000017" class="edge">
<title>Node17&#45;&gt;Node16</title>
<g id="a_edge33_Node000016_Node000017"><a xlink:title=" ">
<path fill="none" stroke="#9a32cd" stroke-dasharray="5,2" d="M233.88,-68.71C218.64,-53.32 196.38,-30.83 184.39,-18.72"/>
<polygon fill="#9a32cd" stroke="#9a32cd" points="230.99,-70.78 240.51,-75.43 235.96,-65.86 230.99,-70.78"/>
</a>
</g>
<text text-anchor="middle" x="233.38" y="-42.75" font-family="Helvetica,sans-Serif" font-size="10.00" fill="grey"> stats</text>
</g>
<!-- Node18 -->
<g id="Node000018" class="node">
<title>Node18</title>
<g id="a_Node000018"><a xlink:href="a02318.html" target="_top" xlink:title=" ">
<polygon fill="white" stroke="#666666" points="70.12,-161.5 27.88,-161.5 27.88,-143 70.12,-143 70.12,-161.5"/>
<text text-anchor="middle" x="49" y="-148" font-family="Helvetica,sans-Serif" font-size="10.00">queue</text>
</a>
</g>
</g>
<!-- Node18&#45;&gt;Node1 -->
<g id="edge35_Node000001_Node000018" class="edge">
<title>Node18&#45;&gt;Node1</title>
<g id="a_edge35_Node000001_Node000018"><a xlink:title=" ">
<path fill="none" stroke="#9a32cd" stroke-dasharray="5,2" d="M49,-131.75C49,-119.66 49,-104.72 49,-95.53"/>
<polygon fill="#9a32cd" stroke="#9a32cd" points="45.5,-131.58 49,-141.58 52.5,-131.58 45.5,-131.58"/>
</a>
</g>
<text text-anchor="middle" x="63.62" y="-115.5" font-family="Helvetica,sans-Serif" font-size="10.00" fill="grey"> queue</text>
</g>
</g>
</svg>
