<?xml version="1.0" encoding="UTF-8" standalone="no"?>
<!DOCTYPE svg PUBLIC "-//W3C//DTD SVG 1.1//EN"
 "http://www.w3.org/Graphics/SVG/1.1/DTD/svg11.dtd">
<!-- Generated by graphviz version 11.0.0 (0)
 -->
<!-- Title: arax_data_s Pages: 1 -->
<svg width="1215pt" height="570pt"
 viewBox="0.00 0.00 1214.50 570.03" xmlns="http://www.w3.org/2000/svg" xmlns:xlink="http://www.w3.org/1999/xlink">
<g id="graph0" class="graph" transform="scale(1 1) rotate(0) translate(4 566.03)">
<title>arax_data_s</title>
<!-- Node1 -->
<g id="Node000001" class="node">
<title>Node1</title>
<g id="a_Node000001"><a xlink:title=" ">
<polygon fill="#999999" stroke="#666666" points="1202,-487.78 1132,-487.78 1132,-469.28 1202,-469.28 1202,-487.78"/>
<text text-anchor="middle" x="1167" y="-474.28" font-family="Helvetica,sans-Serif" font-size="10.00">arax_data_s</text>
</a>
</g>
</g>
<!-- Node2 -->
<g id="Node000002" class="node">
<title>Node2</title>
<g id="a_Node000002"><a xlink:href="a02289.html" target="_top" xlink:title=" ">
<polygon fill="white" stroke="#666666" points="886.5,-466.78 809,-466.78 809,-448.28 886.5,-448.28 886.5,-466.78"/>
<text text-anchor="middle" x="847.75" y="-453.28" font-family="Helvetica,sans-Serif" font-size="10.00">arax_object_s</text>
</a>
</g>
</g>
<!-- Node2&#45;&gt;Node1 -->
<g id="edge1_Node000001_Node000002" class="edge">
<title>Node2&#45;&gt;Node1</title>
<g id="a_edge1_Node000001_Node000002"><a xlink:title=" ">
<path fill="none" stroke="#9a32cd" stroke-dasharray="5,2" d="M871.88,-473.2C883.22,-479.96 897.39,-487.09 911.25,-490.53 988.18,-509.59 1082.08,-496.13 1131.6,-486.3"/>
<polygon fill="#9a32cd" stroke="#9a32cd" points="873.96,-470.38 863.63,-468.02 870.24,-476.31 873.96,-470.38"/>
</a>
</g>
<text text-anchor="middle" x="1014.5" y="-500.53" font-family="Helvetica,sans-Serif" font-size="10.00" fill="grey"> obj</text>
</g>
<!-- Node16 -->
<g id="Node000016" class="node">
<title>Node16</title>
<g id="a_Node000016"><a xlink:href="a02261.html" target="_top" xlink:title=" ">
<polygon fill="white" stroke="#666666" points="1051.75,-403.78 977.25,-403.78 977.25,-385.28 1051.75,-385.28 1051.75,-403.78"/>
<text text-anchor="middle" x="1014.5" y="-390.28" font-family="Helvetica,sans-Serif" font-size="10.00">arax_accel_s</text>
</a>
</g>
</g>
<!-- Node2&#45;&gt;Node16 -->
<g id="edge28_Node000016_Node000002" class="edge">
<title>Node2&#45;&gt;Node16</title>
<g id="a_edge28_Node000016_Node000002"><a xlink:title=" ">
<path fill="none" stroke="#9a32cd" stroke-dasharray="5,2" d="M897.93,-445.97C917.39,-440.71 939.72,-433.79 959.25,-425.53 973.23,-419.6 988.15,-410.89 998.79,-404.2"/>
<polygon fill="#9a32cd" stroke="#9a32cd" points="897.1,-442.57 888.32,-448.49 898.88,-449.34 897.1,-442.57"/>
</a>
</g>
<text text-anchor="middle" x="935.25" y="-442.53" font-family="Helvetica,sans-Serif" font-size="10.00" fill="grey"> obj</text>
</g>
<!-- Node18 -->
<g id="Node000018" class="node">
<title>Node18</title>
<g id="a_Node000018"><a xlink:href="a02305.html" target="_top" xlink:title=" ">
<polygon fill="white" stroke="#666666" points="1206.5,-414.78 1127.5,-414.78 1127.5,-396.28 1206.5,-396.28 1206.5,-414.78"/>
<text text-anchor="middle" x="1167" y="-401.28" font-family="Helvetica,sans-Serif" font-size="10.00">arax_vaccel_s</text>
</a>
</g>
</g>
<!-- Node2&#45;&gt;Node18 -->
<g id="edge34_Node000018_Node000002" class="edge">
<title>Node2&#45;&gt;Node18</title>
<g id="a_edge34_Node000018_Node000002"><a xlink:title=" ">
<path fill="none" stroke="#9a32cd" stroke-dasharray="5,2" d="M898.2,-465.79C952.04,-472.68 1039.77,-477.64 1109.5,-451.53 1129.64,-443.98 1147.95,-426.17 1157.97,-415.06"/>
<polygon fill="#9a32cd" stroke="#9a32cd" points="898.8,-462.34 888.42,-464.46 897.85,-469.28 898.8,-462.34"/>
</a>
</g>
<text text-anchor="middle" x="1014.5" y="-471.53" font-family="Helvetica,sans-Serif" font-size="10.00" fill="grey"> obj</text>
</g>
<!-- Node3 -->
<g id="Node000003" class="node">
<title>Node3</title>
<g id="a_Node000003"><a xlink:href="a02281.html" target="_top" xlink:title=" ">
<polygon fill="white" stroke="#666666" points="739.25,-300.78 637.75,-300.78 637.75,-282.28 739.25,-282.28 739.25,-300.78"/>
<text text-anchor="middle" x="688.5" y="-287.28" font-family="Helvetica,sans-Serif" font-size="10.00">arax_object_repo_s</text>
</a>
</g>
</g>
<!-- Node3&#45;&gt;Node2 -->
<g id="edge2_Node000002_Node000003" class="edge">
<title>Node3&#45;&gt;Node2</title>
<g id="a_edge2_Node000002_Node000003"><a xlink:title=" ">
<path fill="none" stroke="#9a32cd" stroke-dasharray="5,2" d="M703.87,-310.25C722.44,-334.44 755.77,-377.87 784.25,-415.03 792.25,-425.47 791.86,-430.46 802.25,-438.53 807.03,-442.24 812.64,-445.36 818.23,-447.94"/>
<polygon fill="#9a32cd" stroke="#9a32cd" points="706.66,-308.13 697.8,-302.33 701.11,-312.4 706.66,-308.13"/>
</a>
</g>
<text text-anchor="middle" x="770.75" y="-415.53" font-family="Helvetica,sans-Serif" font-size="10.00" fill="grey"> repo</text>
</g>
<!-- Node4 -->
<g id="Node000004" class="node">
<title>Node4</title>
<g id="a_Node000004"><a xlink:href="a02341.html" target="_top" xlink:title=" ">
<polygon fill="white" stroke="#666666" points="1043.88,-176.78 985.12,-176.78 985.12,-158.28 1043.88,-158.28 1043.88,-176.78"/>
<text text-anchor="middle" x="1014.5" y="-163.28" font-family="Helvetica,sans-Serif" font-size="10.00">arax_pipe</text>
</a>
</g>
</g>
<!-- Node3&#45;&gt;Node4 -->
<g id="edge4_Node000004_Node000003" class="edge">
<title>Node3&#45;&gt;Node4</title>
<g id="a_edge4_Node000004_Node000003"><a xlink:title=" ">
<path fill="none" stroke="#9a32cd" stroke-dasharray="5,2" d="M713.08,-275.75C735.31,-261.44 769.93,-240.58 802.25,-227.03 806.55,-225.22 928.1,-191.3 984.84,-175.5"/>
<polygon fill="#9a32cd" stroke="#9a32cd" points="711.24,-272.77 704.78,-281.17 715.07,-278.63 711.24,-272.77"/>
</a>
</g>
<text text-anchor="middle" x="847.75" y="-227.53" font-family="Helvetica,sans-Serif" font-size="10.00" fill="grey"> objs</text>
</g>
<!-- Node4&#45;&gt;Node3 -->
<g id="edge3_Node000003_Node000004" class="edge">
<title>Node4&#45;&gt;Node3</title>
<g id="a_edge3_Node000003_Node000004"><a xlink:title=" ">
<path fill="none" stroke="#9a32cd" stroke-dasharray="5,2" d="M1006.19,-187.54C997.85,-207.63 982.31,-238.02 959.25,-255.53 895.56,-303.88 798.18,-304.03 739.49,-298.58"/>
<polygon fill="#9a32cd" stroke="#9a32cd" points="1009.35,-189.08 1009.72,-178.5 1002.83,-186.54 1009.35,-189.08"/>
</a>
</g>
<text text-anchor="middle" x="847.75" y="-301.53" font-family="Helvetica,sans-Serif" font-size="10.00" fill="grey"> pipe</text>
</g>
<!-- Node5 -->
<g id="Node000005" class="node">
<title>Node5</title>
<g id="a_Node000005"><a xlink:href="a02245.html" target="_top" xlink:title=" ">
<polygon fill="white" stroke="#666666" points="377.25,-170.78 298.25,-170.78 298.25,-152.28 377.25,-152.28 377.25,-170.78"/>
<text text-anchor="middle" x="337.75" y="-157.28" font-family="Helvetica,sans-Serif" font-size="10.00">async_meta_s</text>
</a>
</g>
</g>
<!-- Node5&#45;&gt;Node4 -->
<g id="edge5_Node000004_Node000005" class="edge">
<title>Node5&#45;&gt;Node4</title>
<g id="a_edge5_Node000004_Node000005"><a xlink:title=" ">
<path fill="none" stroke="#9a32cd" stroke-dasharray="5,2" d="M361.51,-145.53C381.03,-132.43 410.32,-114.2 438,-102.53 522.69,-66.82 546.63,-61.02 637.75,-49.03 779.58,-30.36 853.62,31.95 959.25,-64.53 987.44,-90.27 954.16,-118.12 977.25,-148.53 980.09,-152.26 983.87,-155.33 987.92,-157.83"/>
<polygon fill="#9a32cd" stroke="#9a32cd" points="359.78,-142.47 353.5,-151 363.73,-148.25 359.78,-142.47"/>
</a>
</g>
<text text-anchor="middle" x="688.5" y="-50.53" font-family="Helvetica,sans-Serif" font-size="10.00" fill="grey"> async</text>
</g>
<!-- Node11 -->
<g id="Node000011" class="node">
<title>Node11</title>
<g id="a_Node000011"><a xlink:href="a02257.html" target="_top" xlink:title=" ">
<polygon fill="white" stroke="#666666" points="736.62,-176.78 640.38,-176.78 640.38,-158.28 736.62,-158.28 736.62,-176.78"/>
<text text-anchor="middle" x="688.5" y="-163.28" font-family="Helvetica,sans-Serif" font-size="10.00">async_condition_s</text>
</a>
</g>
</g>
<!-- Node5&#45;&gt;Node11 -->
<g id="edge13_Node000011_Node000005" class="edge">
<title>Node5&#45;&gt;Node11</title>
<g id="a_edge13_Node000011_Node000005"><a xlink:title=" ">
<path fill="none" stroke="#9a32cd" stroke-dasharray="5,2" d="M388.85,-162.39C455.93,-163.54 574.09,-165.57 639.89,-166.71"/>
<polygon fill="#9a32cd" stroke="#9a32cd" points="389.31,-158.89 379.25,-162.22 389.19,-165.89 389.31,-158.89"/>
</a>
</g>
<text text-anchor="middle" x="490.62" y="-165.53" font-family="Helvetica,sans-Serif" font-size="10.00" fill="grey"> meta</text>
</g>
<!-- Node12 -->
<g id="Node000012" class="node">
<title>Node12</title>
<g id="a_Node000012"><a xlink:href="a02249.html" target="_top" xlink:title=" ">
<polygon fill="white" stroke="#666666" points="542.88,-129.78 438.38,-129.78 438.38,-111.28 542.88,-111.28 542.88,-129.78"/>
<text text-anchor="middle" x="490.62" y="-116.28" font-family="Helvetica,sans-Serif" font-size="10.00">async_completion_s</text>
</a>
</g>
</g>
<!-- Node5&#45;&gt;Node12 -->
<g id="edge15_Node000012_Node000005" class="edge">
<title>Node5&#45;&gt;Node12</title>
<g id="a_edge15_Node000012_Node000005"><a xlink:title=" ">
<path fill="none" stroke="#9a32cd" stroke-dasharray="5,2" d="M373.91,-147.95C380.92,-145.47 388.28,-143.04 395.25,-141.03 409.26,-136.98 424.65,-133.32 438.86,-130.24"/>
<polygon fill="#9a32cd" stroke="#9a32cd" points="372.89,-144.59 364.69,-151.3 375.28,-151.17 372.89,-144.59"/>
</a>
</g>
<text text-anchor="middle" x="407.62" y="-141.53" font-family="Helvetica,sans-Serif" font-size="10.00" fill="grey"> meta</text>
</g>
<!-- Node13 -->
<g id="Node000013" class="node">
<title>Node13</title>
<g id="a_Node000013"><a xlink:href="a02253.html" target="_top" xlink:title=" ">
<polygon fill="white" stroke="#666666" points="543.25,-212.78 438,-212.78 438,-194.28 543.25,-194.28 543.25,-212.78"/>
<text text-anchor="middle" x="490.62" y="-199.28" font-family="Helvetica,sans-Serif" font-size="10.00">async_semaphore_s</text>
</a>
</g>
</g>
<!-- Node5&#45;&gt;Node13 -->
<g id="edge18_Node000013_Node000005" class="edge">
<title>Node5&#45;&gt;Node13</title>
<g id="a_edge18_Node000013_Node000005"><a xlink:title=" ">
<path fill="none" stroke="#9a32cd" stroke-dasharray="5,2" d="M378.53,-174.52C384.13,-176.26 389.82,-177.97 395.25,-179.53 412.97,-184.6 432.71,-189.7 449.53,-193.89"/>
<polygon fill="#9a32cd" stroke="#9a32cd" points="380.01,-171.32 369.42,-171.65 377.9,-178 380.01,-171.32"/>
</a>
</g>
<text text-anchor="middle" x="407.62" y="-186.53" font-family="Helvetica,sans-Serif" font-size="10.00" fill="grey"> meta</text>
</g>
<!-- Node6 -->
<g id="Node000006" class="node">
<title>Node6</title>
<g id="a_Node000006"><a xlink:href="a02329.html" target="_top" xlink:title=" ">
<polygon fill="white" stroke="#666666" points="204.88,-328.78 142.38,-328.78 142.38,-310.28 204.88,-310.28 204.88,-328.78"/>
<text text-anchor="middle" x="173.62" y="-315.28" font-family="Helvetica,sans-Serif" font-size="10.00">utils_list_s</text>
</a>
</g>
</g>
<!-- Node6&#45;&gt;Node3 -->
<g id="edge25_Node000003_Node000006" class="edge">
<title>Node6&#45;&gt;Node3</title>
<g id="a_edge25_Node000003_Node000006"><a xlink:title=" ">
<path fill="none" stroke="#9a32cd" stroke-dasharray="5,2" d="M216.45,-317.24C310.18,-312.13 536.71,-299.76 637.59,-294.25"/>
<polygon fill="#9a32cd" stroke="#9a32cd" points="216.48,-313.74 206.68,-317.78 216.86,-320.72 216.48,-313.74"/>
</a>
</g>
<text text-anchor="middle" x="407.62" y="-307.53" font-family="Helvetica,sans-Serif" font-size="10.00" fill="grey"> list</text>
</g>
<!-- Node6&#45;&gt;Node4 -->
<g id="edge21_Node000004_Node000006" class="edge">
<title>Node6&#45;&gt;Node4</title>
<g id="a_edge21_Node000004_Node000006"><a xlink:title=" ">
<path fill="none" stroke="#9a32cd" stroke-dasharray="5,2" d="M216.08,-329.9C248.66,-337.14 295.31,-345.53 336.75,-345.53 336.75,-345.53 336.75,-345.53 848.75,-345.53 905.5,-345.53 920.77,-323.24 959.25,-281.53 988.82,-249.46 1005.2,-198.36 1011.03,-177.19"/>
<polygon fill="#9a32cd" stroke="#9a32cd" points="217.17,-326.56 206.65,-327.73 215.61,-333.38 217.17,-326.56"/>
</a>
</g>
<text text-anchor="middle" x="590.5" y="-346.53" font-family="Helvetica,sans-Serif" font-size="10.00" fill="grey"> orphan_vacs</text>
</g>
<!-- Node6&#45;&gt;Node5 -->
<g id="edge6_Node000005_Node000006" class="edge">
<title>Node6&#45;&gt;Node5</title>
<g id="a_edge6_Node000005_Node000006"><a xlink:title=" ">
<path fill="none" stroke="#9a32cd" stroke-dasharray="5,2" d="M182.91,-299.53C191.69,-280.08 207.06,-250.54 227,-230.03 252.83,-203.45 290.96,-182.67 314.8,-171.26"/>
<polygon fill="#9a32cd" stroke="#9a32cd" points="179.77,-297.96 179.01,-308.53 186.19,-300.74 179.77,-297.96"/>
</a>
</g>
<text text-anchor="middle" x="253.62" y="-230.53" font-family="Helvetica,sans-Serif" font-size="10.00" fill="grey"> outstanding</text>
</g>
<!-- Node6&#45;&gt;Node13 -->
<g id="edge19_Node000013_Node000006" class="edge">
<title>Node6&#45;&gt;Node13</title>
<g id="a_edge19_Node000013_Node000006"><a xlink:title=" ">
<path fill="none" stroke="#9a32cd" stroke-dasharray="5,2" d="M197.94,-303.64C206.78,-298.05 217.11,-292.05 227,-287.53 302.75,-252.88 396.85,-226.52 449.37,-213.19"/>
<polygon fill="#9a32cd" stroke="#9a32cd" points="196.08,-300.67 189.62,-309.06 199.9,-306.53 196.08,-300.67"/>
</a>
</g>
<text text-anchor="middle" x="337.75" y="-258.53" font-family="Helvetica,sans-Serif" font-size="10.00" fill="grey"> pending_list</text>
</g>
<!-- Node6&#45;&gt;Node16 -->
<g id="edge30_Node000016_Node000006" class="edge">
<title>Node6&#45;&gt;Node16</title>
<g id="a_edge30_Node000016_Node000006"><a xlink:title=" ">
<path fill="none" stroke="#9a32cd" stroke-dasharray="5,2" d="M192.72,-336.51C202.25,-344.61 214.54,-353.76 227,-359.53 272.31,-380.51 286.82,-383.53 336.75,-383.53 336.75,-383.53 336.75,-383.53 848.75,-383.53 892.9,-383.53 943.55,-387.51 976.9,-390.68"/>
<polygon fill="#9a32cd" stroke="#9a32cd" points="195.12,-333.97 185.32,-329.94 190.47,-339.2 195.12,-333.97"/>
</a>
</g>
<text text-anchor="middle" x="590.5" y="-384.53" font-family="Helvetica,sans-Serif" font-size="10.00" fill="grey"> vaccels</text>
</g>
<!-- Node7 -->
<g id="Node000007" class="node">
<title>Node7</title>
<g id="a_Node000007"><a xlink:href="a02325.html" target="_top" xlink:title=" ">
<polygon fill="white" stroke="#666666" points="78.25,-435.78 0,-435.78 0,-417.28 78.25,-417.28 78.25,-435.78"/>
<text text-anchor="middle" x="39.12" y="-422.28" font-family="Helvetica,sans-Serif" font-size="10.00">utils_list_node</text>
</a>
</g>
</g>
<!-- Node7&#45;&gt;Node2 -->
<g id="edge26_Node000002_Node000007" class="edge">
<title>Node7&#45;&gt;Node2</title>
<g id="a_edge26_Node000002_Node000007"><a xlink:title=" ">
<path fill="none" stroke="#9a32cd" stroke-dasharray="5,2" d="M89.91,-433.73C114.71,-436.73 145.19,-439.53 172.62,-439.53 172.62,-439.53 172.62,-439.53 689.5,-439.53 730.44,-439.53 777,-445.62 808.76,-450.72"/>
<polygon fill="#9a32cd" stroke="#9a32cd" points="90.44,-430.27 80.09,-432.49 89.57,-437.22 90.44,-430.27"/>
</a>
</g>
<text text-anchor="middle" x="407.62" y="-440.53" font-family="Helvetica,sans-Serif" font-size="10.00" fill="grey"> list</text>
</g>
<!-- Node7&#45;&gt;Node6 -->
<g id="edge7_Node000006_Node000007" class="edge">
<title>Node7&#45;&gt;Node6</title>
<g id="a_edge7_Node000006_Node000007"><a xlink:title=" ">
<path fill="none" stroke="#9a32cd" stroke-dasharray="5,2" d="M60.49,-410.08C88.51,-387.46 138.04,-347.46 160.7,-329.15"/>
<polygon fill="#9a32cd" stroke="#9a32cd" points="58.64,-407.07 53.06,-416.08 63.04,-412.52 58.64,-407.07"/>
</a>
</g>
<text text-anchor="middle" x="108.25" y="-379.53" font-family="Helvetica,sans-Serif" font-size="10.00" fill="grey"> head</text>
</g>
<!-- Node7&#45;&gt;Node7 -->
<g id="edge8_Node000007_Node000007" class="edge">
<title>Node7&#45;&gt;Node7</title>
<g id="a_edge8_Node000007_Node000007"><a xlink:title=" ">
<path fill="none" stroke="#9a32cd" stroke-dasharray="5,2" d="M26.81,-447.14C28.3,-451.03 32.41,-453.78 39.12,-453.78 51.41,-453.78 54.96,-444.59 49.78,-436.02"/>
<polygon fill="#9a32cd" stroke="#9a32cd" points="30.23,-447.93 28.25,-437.52 23.3,-446.89 30.23,-447.93"/>
</a>
</g>
<text text-anchor="middle" x="39.12" y="-465.28" font-family="Helvetica,sans-Serif" font-size="10.00" fill="grey"> next</text>
<text text-anchor="middle" x="39.12" y="-454.78" font-family="Helvetica,sans-Serif" font-size="10.00" fill="grey">prev</text>
</g>
<!-- Node7&#45;&gt;Node12 -->
<g id="edge16_Node000012_Node000007" class="edge">
<title>Node7&#45;&gt;Node12</title>
<g id="a_edge16_Node000012_Node000007"><a xlink:title=" ">
<path fill="none" stroke="#9a32cd" stroke-dasharray="5,2" d="M43.24,-405.78C53.47,-340.67 88.3,-142.49 138.25,-105.53 239.85,-30.34 406.88,-86.55 467.1,-110.82"/>
<polygon fill="#9a32cd" stroke="#9a32cd" points="39.81,-405.03 41.75,-415.45 46.73,-406.09 39.81,-405.03"/>
</a>
</g>
<text text-anchor="middle" x="253.62" y="-71.53" font-family="Helvetica,sans-Serif" font-size="10.00" fill="grey"> outstanding</text>
</g>
<!-- Node7&#45;&gt;Node18 -->
<g id="edge35_Node000018_Node000007" class="edge">
<title>Node7&#45;&gt;Node18</title>
<g id="a_edge35_Node000018_Node000007"><a xlink:title=" ">
<path fill="none" stroke="#9a32cd" stroke-dasharray="5,2" d="M49.39,-445.95C67.64,-481.07 111.84,-551.53 172.62,-551.53 172.62,-551.53 172.62,-551.53 936.25,-551.53 1021.25,-551.53 1047.49,-528.66 1109.5,-470.53 1128.92,-452.32 1148.65,-428.01 1158.87,-414.88"/>
<polygon fill="#9a32cd" stroke="#9a32cd" points="52.66,-444.66 45.06,-437.27 46.39,-447.79 52.66,-444.66"/>
</a>
</g>
<text text-anchor="middle" x="590.5" y="-552.53" font-family="Helvetica,sans-Serif" font-size="10.00" fill="grey"> vaccels</text>
</g>
<!-- Node8 -->
<g id="Node000008" class="node">
<title>Node8</title>
<g id="a_Node000008"><a xlink:href="a02241.html" target="_top" xlink:title=" ">
<polygon fill="white" stroke="#666666" points="201.5,-170.78 145.75,-170.78 145.75,-152.28 201.5,-152.28 201.5,-170.78"/>
<text text-anchor="middle" x="173.62" y="-157.28" font-family="Helvetica,sans-Serif" font-size="10.00">ivshmem</text>
</a>
</g>
</g>
<!-- Node8&#45;&gt;Node5 -->
<g id="edge9_Node000005_Node000008" class="edge">
<title>Node8&#45;&gt;Node5</title>
<g id="a_edge9_Node000005_Node000008"><a xlink:title=" ">
<path fill="none" stroke="#9a32cd" stroke-dasharray="5,2" d="M213.27,-161.53C238.88,-161.53 272.35,-161.53 297.98,-161.53"/>
<polygon fill="#9a32cd" stroke="#9a32cd" points="213.27,-158.03 203.27,-161.53 213.27,-165.03 213.27,-158.03"/>
</a>
</g>
<text text-anchor="middle" x="253.62" y="-162.53" font-family="Helvetica,sans-Serif" font-size="10.00" fill="grey"> regs</text>
</g>
<!-- Node9 -->
<g id="Node000009" class="node">
<title>Node9</title>
<g id="a_Node000009"><a xlink:href="a02197.html" target="_top" xlink:title=" ">
<polygon fill="white" stroke="#666666" points="209,-132.78 138.25,-132.78 138.25,-114.28 209,-114.28 209,-132.78"/>
<text text-anchor="middle" x="173.62" y="-119.28" font-family="Helvetica,sans-Serif" font-size="10.00">arch_alloc_s</text>
</a>
</g>
</g>
<!-- Node9&#45;&gt;Node4 -->
<g id="edge24_Node000004_Node000009" class="edge">
<title>Node9&#45;&gt;Node4</title>
<g id="a_edge24_Node000004_Node000009"><a xlink:title=" ">
<path fill="none" stroke="#9a32cd" stroke-dasharray="5,2" d="M211.03,-109.92C316.42,-72.22 631,28.47 893.25,-8.53 923.48,-12.79 939.14,-4.56 959.25,-27.53 995.06,-68.43 945.75,-104.21 977.25,-148.53 979.97,-152.35 983.69,-155.46 987.73,-157.98"/>
<polygon fill="#9a32cd" stroke="#9a32cd" points="209.99,-106.58 201.78,-113.27 212.37,-113.16 209.99,-106.58"/>
</a>
</g>
<text text-anchor="middle" x="590.5" y="-19.53" font-family="Helvetica,sans-Serif" font-size="10.00" fill="grey"> allocator</text>
</g>
<!-- Node9&#45;&gt;Node5 -->
<g id="edge10_Node000005_Node000009" class="edge">
<title>Node9&#45;&gt;Node5</title>
<g id="a_edge10_Node000005_Node000009"><a xlink:title=" ">
<path fill="none" stroke="#9a32cd" stroke-dasharray="5,2" d="M220.54,-133.4C239.11,-137.49 260.73,-142.35 280.25,-147.03 286.55,-148.53 293.24,-150.2 299.71,-151.84"/>
<polygon fill="#9a32cd" stroke="#9a32cd" points="221.41,-130.01 210.9,-131.29 219.92,-136.85 221.41,-130.01"/>
</a>
</g>
<text text-anchor="middle" x="253.62" y="-147.53" font-family="Helvetica,sans-Serif" font-size="10.00" fill="grey"> alloc</text>
</g>
<!-- Node10 -->
<g id="Node000010" class="node">
<title>Node10</title>
<g id="a_Node000010"><a xlink:href="a02301.html" target="_top" xlink:title=" ">
<polygon fill="white" stroke="#666666" points="888.38,-176.78 807.12,-176.78 807.12,-158.28 888.38,-158.28 888.38,-176.78"/>
<text text-anchor="middle" x="847.75" y="-163.28" font-family="Helvetica,sans-Serif" font-size="10.00">arax_throttle_s</text>
</a>
</g>
</g>
<!-- Node10&#45;&gt;Node4 -->
<g id="edge11_Node000004_Node000010" class="edge">
<title>Node10&#45;&gt;Node4</title>
<g id="a_edge11_Node000004_Node000010"><a xlink:title=" ">
<path fill="none" stroke="#9a32cd" stroke-dasharray="5,2" d="M899.83,-167.53C927.8,-167.53 961.44,-167.53 984.83,-167.53"/>
<polygon fill="#9a32cd" stroke="#9a32cd" points="900.14,-164.03 890.14,-167.53 900.14,-171.03 900.14,-164.03"/>
</a>
</g>
<text text-anchor="middle" x="935.25" y="-168.53" font-family="Helvetica,sans-Serif" font-size="10.00" fill="grey"> throttle</text>
</g>
<!-- Node10&#45;&gt;Node16 -->
<g id="edge31_Node000016_Node000010" class="edge">
<title>Node10&#45;&gt;Node16</title>
<g id="a_edge31_Node000016_Node000010"><a xlink:title=" ">
<path fill="none" stroke="#9a32cd" stroke-dasharray="5,2" d="M882.63,-182.08C907.34,-194.36 939.77,-214.24 959.25,-241.03 993.66,-288.35 1007.89,-359.5 1012.08,-385.01"/>
<polygon fill="#9a32cd" stroke="#9a32cd" points="884.14,-178.92 873.6,-177.78 881.12,-185.24 884.14,-178.92"/>
</a>
</g>
<text text-anchor="middle" x="935.25" y="-241.53" font-family="Helvetica,sans-Serif" font-size="10.00" fill="grey"> throttle</text>
</g>
<!-- Node11&#45;&gt;Node4 -->
<g id="edge20_Node000004_Node000011" class="edge">
<title>Node11&#45;&gt;Node4</title>
<g id="a_edge20_Node000004_Node000011"><a xlink:title=" ">
<path fill="none" stroke="#9a32cd" stroke-dasharray="5,2" d="M721.03,-153.44C743.24,-144.32 773.94,-133.28 802.25,-128.53 842.14,-121.82 853.3,-122.21 893.25,-128.53 928.37,-134.08 967.19,-148.22 990.97,-157.86"/>
<polygon fill="#9a32cd" stroke="#9a32cd" points="719.8,-150.16 711.95,-157.27 722.53,-156.61 719.8,-150.16"/>
</a>
</g>
<text text-anchor="middle" x="847.75" y="-140.03" font-family="Helvetica,sans-Serif" font-size="10.00" fill="grey"> cntrl_ready_cond</text>
<text text-anchor="middle" x="847.75" y="-129.53" font-family="Helvetica,sans-Serif" font-size="10.00" fill="grey">orphan_cond</text>
</g>
<!-- Node11&#45;&gt;Node10 -->
<g id="edge12_Node000010_Node000011" class="edge">
<title>Node11&#45;&gt;Node10</title>
<g id="a_edge12_Node000010_Node000011"><a xlink:title=" ">
<path fill="none" stroke="#9a32cd" stroke-dasharray="5,2" d="M748.6,-167.53C768,-167.53 789.09,-167.53 806.72,-167.53"/>
<polygon fill="#9a32cd" stroke="#9a32cd" points="748.62,-164.03 738.62,-167.53 748.62,-171.03 748.62,-164.03"/>
</a>
</g>
<text text-anchor="middle" x="770.75" y="-168.53" font-family="Helvetica,sans-Serif" font-size="10.00" fill="grey"> ready</text>
</g>
<!-- Node11&#45;&gt;Node16 -->
<g id="edge29_Node000016_Node000011" class="edge">
<title>Node11&#45;&gt;Node16</title>
<g id="a_edge29_Node000016_Node000011"><a xlink:title=" ">
<path fill="none" stroke="#9a32cd" stroke-dasharray="5,2" d="M712.55,-183.59C734.84,-198.69 769.91,-221.35 802.25,-237.53 841.08,-256.95 856.97,-249.19 893.25,-273.03 943.35,-305.94 989.26,-362.56 1006.39,-384.98"/>
<polygon fill="#9a32cd" stroke="#9a32cd" points="714.74,-180.84 704.51,-178.08 710.78,-186.62 714.74,-180.84"/>
</a>
</g>
<text text-anchor="middle" x="847.75" y="-273.53" font-family="Helvetica,sans-Serif" font-size="10.00" fill="grey"> lock</text>
</g>
<!-- Node12&#45;&gt;Node11 -->
<g id="edge14_Node000011_Node000012" class="edge">
<title>Node12&#45;&gt;Node11</title>
<g id="a_edge14_Node000011_Node000012"><a xlink:title=" ">
<path fill="none" stroke="#9a32cd" stroke-dasharray="5,2" d="M554.64,-127.86C575.56,-131.03 598.84,-135.33 619.75,-141.03 635.71,-145.37 653.08,-152.21 666.23,-157.85"/>
<polygon fill="#9a32cd" stroke="#9a32cd" points="555.18,-124.41 544.78,-126.44 554.18,-131.34 555.18,-124.41"/>
</a>
</g>
<text text-anchor="middle" x="590.5" y="-141.53" font-family="Helvetica,sans-Serif" font-size="10.00" fill="grey"> mutex</text>
</g>
<!-- Node13&#45;&gt;Node11 -->
<g id="edge17_Node000011_Node000013" class="edge">
<title>Node13&#45;&gt;Node11</title>
<g id="a_edge17_Node000011_Node000013"><a xlink:title=" ">
<path fill="none" stroke="#9a32cd" stroke-dasharray="5,2" d="M554.77,-191.92C582.44,-186.83 614.37,-180.97 639.98,-176.26"/>
<polygon fill="#9a32cd" stroke="#9a32cd" points="554.29,-188.45 545.09,-193.7 555.56,-195.33 554.29,-188.45"/>
</a>
</g>
<text text-anchor="middle" x="590.5" y="-190.53" font-family="Helvetica,sans-Serif" font-size="10.00" fill="grey"> semaphore</text>
</g>
<!-- Node14 -->
<g id="Node000014" class="node">
<title>Node14</title>
<g id="a_Node000014"><a xlink:href="a02317.html" target="_top" xlink:title=" ">
<polygon fill="white" stroke="#666666" points="877.88,-83.78 817.62,-83.78 817.62,-65.28 877.88,-65.28 877.88,-83.78"/>
<text text-anchor="middle" x="847.75" y="-70.28" font-family="Helvetica,sans-Serif" font-size="10.00">utils_kv_s</text>
</a>
</g>
</g>
<!-- Node14&#45;&gt;Node4 -->
<g id="edge22_Node000004_Node000014" class="edge">
<title>Node14&#45;&gt;Node4</title>
<g id="a_edge22_Node000004_Node000014"><a xlink:title=" ">
<path fill="none" stroke="#9a32cd" stroke-dasharray="5,2" d="M889.15,-67.75C912.16,-66.22 940.11,-68.62 959.25,-84.53 981.97,-103.41 958.65,-125.57 977.25,-148.53 980.29,-152.28 984.28,-155.38 988.49,-157.91"/>
<polygon fill="#9a32cd" stroke="#9a32cd" points="889.11,-64.23 879.49,-68.67 889.77,-71.2 889.11,-64.23"/>
</a>
</g>
<text text-anchor="middle" x="935.25" y="-96.03" font-family="Helvetica,sans-Serif" font-size="10.00" fill="grey"> ass_kv</text>
<text text-anchor="middle" x="935.25" y="-85.53" font-family="Helvetica,sans-Serif" font-size="10.00" fill="grey">metrics_kv</text>
</g>
<!-- Node15 -->
<g id="Node000015" class="node">
<title>Node15</title>
<g id="a_Node000015"><a xlink:href="a02321.html" target="_top" xlink:title=" ">
<polygon fill="white" stroke="#666666" points="705.12,-86.78 671.88,-86.78 671.88,-68.28 705.12,-68.28 705.12,-86.78"/>
<text text-anchor="middle" x="688.5" y="-73.28" font-family="Helvetica,sans-Serif" font-size="10.00">Pair</text>
</a>
</g>
</g>
<!-- Node15&#45;&gt;Node14 -->
<g id="edge23_Node000014_Node000015" class="edge">
<title>Node15&#45;&gt;Node14</title>
<g id="a_edge23_Node000014_Node000015"><a xlink:title=" ">
<path fill="none" stroke="#9a32cd" stroke-dasharray="5,2" d="M716.77,-77.01C744.79,-76.47 788.29,-75.64 817.14,-75.09"/>
<polygon fill="#9a32cd" stroke="#9a32cd" points="716.89,-73.5 706.96,-77.19 717.02,-80.5 716.89,-73.5"/>
</a>
</g>
<text text-anchor="middle" x="770.75" y="-77.53" font-family="Helvetica,sans-Serif" font-size="10.00" fill="grey"> kv</text>
</g>
<!-- Node16&#45;&gt;Node1 -->
<g id="edge27_Node000001_Node000016" class="edge">
<title>Node16&#45;&gt;Node1</title>
<g id="a_edge27_Node000001_Node000016"><a xlink:title=" ">
<path fill="none" stroke="#9a32cd" stroke-dasharray="5,2" d="M1042.45,-409.57C1073.32,-426.8 1122.98,-454.51 1148.94,-469"/>
<polygon fill="#9a32cd" stroke="#9a32cd" points="1044.52,-406.72 1034.09,-404.9 1041.11,-412.83 1044.52,-406.72"/>
</a>
</g>
<text text-anchor="middle" x="1089.62" y="-446.53" font-family="Helvetica,sans-Serif" font-size="10.00" fill="grey"> phys</text>
</g>
<!-- Node16&#45;&gt;Node18 -->
<g id="edge36_Node000018_Node000016" class="edge">
<title>Node16&#45;&gt;Node18</title>
<g id="a_edge36_Node000018_Node000016"><a xlink:title=" ">
<path fill="none" stroke="#9a32cd" stroke-dasharray="5,2" d="M1062.92,-383.83C1077.88,-381.9 1094.44,-381.26 1109.5,-384.03 1121.99,-386.32 1135.3,-391.25 1145.85,-395.81"/>
<polygon fill="#9a32cd" stroke="#9a32cd" points="1062.68,-380.33 1053.33,-385.3 1063.74,-387.25 1062.68,-380.33"/>
</a>
</g>
<text text-anchor="middle" x="1089.62" y="-384.53" font-family="Helvetica,sans-Serif" font-size="10.00" fill="grey"> phys</text>
</g>
<!-- Node17 -->
<g id="Node000017" class="node">
<title>Node17</title>
<g id="a_Node000017"><a xlink:href="a02345.html" target="_top" xlink:title=" ">
<polygon fill="white" stroke="#666666" points="893.25,-429.78 802.25,-429.78 802.25,-411.28 893.25,-411.28 893.25,-429.78"/>
<text text-anchor="middle" x="847.75" y="-416.28" font-family="Helvetica,sans-Serif" font-size="10.00">arax_accel_stats</text>
</a>
</g>
</g>
<!-- Node17&#45;&gt;Node16 -->
<g id="edge32_Node000016_Node000017" class="edge">
<title>Node17&#45;&gt;Node16</title>
<g id="a_edge32_Node000016_Node000017"><a xlink:title=" ">
<path fill="none" stroke="#9a32cd" stroke-dasharray="5,2" d="M904.41,-411.74C928.34,-407.97 955.64,-403.66 976.94,-400.3"/>
<polygon fill="#9a32cd" stroke="#9a32cd" points="904.16,-408.24 894.83,-413.25 905.25,-415.15 904.16,-408.24"/>
</a>
</g>
<text text-anchor="middle" x="935.25" y="-411.53" font-family="Helvetica,sans-Serif" font-size="10.00" fill="grey"> stats</text>
</g>
<!-- Node18&#45;&gt;Node16 -->
<g id="edge33_Node000016_Node000018" class="edge">
<title>Node18&#45;&gt;Node16</title>
<g id="a_edge33_Node000016_Node000018"><a xlink:title=" ">
<path fill="none" stroke="#9a32cd" stroke-dasharray="5,2" d="M1115.75,-401.85C1094.87,-400.33 1071.09,-398.59 1051.93,-397.19"/>
<polygon fill="#9a32cd" stroke="#9a32cd" points="1115.27,-405.33 1125.5,-402.57 1115.78,-398.35 1115.27,-405.33"/>
</a>
</g>
<text text-anchor="middle" x="1089.62" y="-401.53" font-family="Helvetica,sans-Serif" font-size="10.00" fill="grey"> free_vaq</text>
</g>
<!-- Node19 -->
<g id="Node000019" class="node">
<title>Node19</title>
<g id="a_Node000019"><a xlink:href="a02333.html" target="_top" xlink:title=" ">
<polygon fill="white" stroke="#666666" points="1035.62,-139.78 993.38,-139.78 993.38,-121.28 1035.62,-121.28 1035.62,-139.78"/>
<text text-anchor="middle" x="1014.5" y="-126.28" font-family="Helvetica,sans-Serif" font-size="10.00">queue</text>
</a>
</g>
</g>
<!-- Node19&#45;&gt;Node18 -->
<g id="edge37_Node000018_Node000019" class="edge">
<title>Node19&#45;&gt;Node18</title>
<g id="a_edge37_Node000018_Node000019"><a xlink:title=" ">
<path fill="none" stroke="#9a32cd" stroke-dasharray="5,2" d="M1045.33,-143.93C1047.65,-145.62 1049.83,-147.49 1051.75,-149.53 1124.71,-227.23 1156.45,-359.33 1164.1,-395.9"/>
<polygon fill="#9a32cd" stroke="#9a32cd" points="1047.6,-141.22 1037.23,-139.03 1043.98,-147.21 1047.6,-141.22"/>
</a>
</g>
<text text-anchor="middle" x="1089.62" y="-231.53" font-family="Helvetica,sans-Serif" font-size="10.00" fill="grey"> queue</text>
</g>
</g>
</svg>
