<?xml version="1.0" encoding="UTF-8" standalone="no"?>
<!DOCTYPE svg PUBLIC "-//W3C//DTD SVG 1.1//EN"
 "http://www.w3.org/Graphics/SVG/1.1/DTD/svg11.dtd">
<!-- Generated by graphviz version 8.0.5 (0)
 -->
<!-- Title: async_completion_s Pages: 1 -->
<svg width="302pt" height="224pt"
 viewBox="0.00 0.00 301.62 224.00" xmlns="http://www.w3.org/2000/svg" xmlns:xlink="http://www.w3.org/1999/xlink">
<g id="graph0" class="graph" transform="scale(1 1) rotate(0) translate(4 220)">
<title>async_completion_s</title>
<!-- Node1 -->
<g id="Node000001" class="node">
<title>Node1</title>
<g id="a_Node000001"><a xlink:title=" ">
<polygon fill="#999999" stroke="#666666" points="104.5,-18.5 0,-18.5 0,0 104.5,0 104.5,-18.5"/>
<text text-anchor="middle" x="52.25" y="-5" font-family="Helvetica,sans-Serif" font-size="10.00">async_completion_s</text>
</a>
</g>
</g>
<!-- Node2 -->
<g id="Node000002" class="node">
<title>Node2</title>
<g id="a_Node000002"><a xlink:href="a02230.html" target="_top" xlink:title=" ">
<polygon fill="white" stroke="#666666" points="178.75,-83.5 99.75,-83.5 99.75,-65 178.75,-65 178.75,-83.5"/>
<text text-anchor="middle" x="139.25" y="-70" font-family="Helvetica,sans-Serif" font-size="10.00">async_meta_s</text>
</a>
</g>
</g>
<!-- Node2&#45;&gt;Node1 -->
<g id="edge1_Node000001_Node000002" class="edge">
<title>Node2&#45;&gt;Node1</title>
<g id="a_edge1_Node000001_Node000002"><a xlink:title=" ">
<path fill="none" stroke="#9a32cd" stroke-dasharray="5,2" d="M118.84,-58.47C101.81,-46.14 78.13,-28.99 64.08,-18.81"/>
<polygon fill="#9a32cd" stroke="#9a32cd" points="116.36,-61.72 126.52,-64.75 120.47,-56.05 116.36,-61.72"/>
</a>
</g>
<text text-anchor="middle" x="113.62" y="-37.5" font-family="Helvetica,sans-Serif" font-size="10.00" fill="grey"> meta</text>
</g>
<!-- Node3 -->
<g id="Node000003" class="node">
<title>Node3</title>
<g id="a_Node000003"><a xlink:href="a02314.html" target="_top" xlink:title=" ">
<polygon fill="white" stroke="#666666" points="123.5,-148.5 61,-148.5 61,-130 123.5,-130 123.5,-148.5"/>
<text text-anchor="middle" x="92.25" y="-135" font-family="Helvetica,sans-Serif" font-size="10.00">utils_list_s</text>
</a>
</g>
</g>
<!-- Node3&#45;&gt;Node2 -->
<g id="edge2_Node000002_Node000003" class="edge">
<title>Node3&#45;&gt;Node2</title>
<g id="a_edge2_Node000002_Node000003"><a xlink:title=" ">
<path fill="none" stroke="#9a32cd" stroke-dasharray="5,2" d="M92.22,-119.03C92.98,-113.03 94.64,-106.64 98,-101.5 102.93,-93.97 110.85,-88.18 118.44,-83.97"/>
<polygon fill="#9a32cd" stroke="#9a32cd" points="88.69,-118.5 91.67,-128.67 95.69,-118.86 88.69,-118.5"/>
</a>
</g>
<text text-anchor="middle" x="124.88" y="-102.5" font-family="Helvetica,sans-Serif" font-size="10.00" fill="grey"> outstanding</text>
</g>
<!-- Node4 -->
<g id="Node000004" class="node">
<title>Node4</title>
<g id="a_Node000004"><a xlink:href="a02310.html" target="_top" xlink:title=" ">
<polygon fill="white" stroke="#666666" points="80.38,-214.75 2.12,-214.75 2.12,-196.25 80.38,-196.25 80.38,-214.75"/>
<text text-anchor="middle" x="41.25" y="-201.25" font-family="Helvetica,sans-Serif" font-size="10.00">utils_list_node</text>
</a>
</g>
</g>
<!-- Node4&#45;&gt;Node1 -->
<g id="edge7_Node000001_Node000004" class="edge">
<title>Node4&#45;&gt;Node1</title>
<g id="a_edge7_Node000001_Node000004"><a xlink:title=" ">
<path fill="none" stroke="#9a32cd" stroke-dasharray="5,2" d="M39.02,-185.14C36.97,-164.41 34.59,-130.59 37,-101.5 39.54,-70.93 46.78,-35.18 50.29,-19"/>
<polygon fill="#9a32cd" stroke="#9a32cd" points="35.63,-185.37 40.18,-194.94 42.59,-184.62 35.63,-185.37"/>
</a>
</g>
<text text-anchor="middle" x="63.88" y="-102.5" font-family="Helvetica,sans-Serif" font-size="10.00" fill="grey"> outstanding</text>
</g>
<!-- Node4&#45;&gt;Node3 -->
<g id="edge3_Node000003_Node000004" class="edge">
<title>Node4&#45;&gt;Node3</title>
<g id="a_edge3_Node000003_Node000004"><a xlink:title=" ">
<path fill="none" stroke="#9a32cd" stroke-dasharray="5,2" d="M54.95,-187.24C64.83,-174.8 77.73,-158.54 85.48,-148.78"/>
<polygon fill="#9a32cd" stroke="#9a32cd" points="51.6,-184.83 48.13,-194.83 57.09,-189.18 51.6,-184.83"/>
</a>
</g>
<text text-anchor="middle" x="84.25" y="-167.5" font-family="Helvetica,sans-Serif" font-size="10.00" fill="grey"> head</text>
</g>
<!-- Node4&#45;&gt;Node4 -->
<g id="edge4_Node000004_Node000004" class="edge">
<title>Node4&#45;&gt;Node4</title>
<g id="a_edge4_Node000004_Node000004"><a xlink:title=" ">
<path fill="none" stroke="#9a32cd" stroke-dasharray="5,2" d="M91.44,-210.42C95.71,-209.37 98.38,-207.73 98.38,-205.5 98.38,-201.74 90.82,-199.66 80.76,-199.25"/>
<polygon fill="#9a32cd" stroke="#9a32cd" points="91.25,-207.04 81.76,-211.75 92.12,-213.99 91.25,-207.04"/>
</a>
</g>
<text text-anchor="middle" x="109.25" y="-206.5" font-family="Helvetica,sans-Serif" font-size="10.00" fill="grey"> next</text>
<text text-anchor="middle" x="109.25" y="-196" font-family="Helvetica,sans-Serif" font-size="10.00" fill="grey">prev</text>
</g>
<!-- Node5 -->
<g id="Node000005" class="node">
<title>Node5</title>
<g id="a_Node000005"><a xlink:href="a02226.html" target="_top" xlink:title=" ">
<polygon fill="white" stroke="#666666" points="205.12,-148.5 149.38,-148.5 149.38,-130 205.12,-130 205.12,-148.5"/>
<text text-anchor="middle" x="177.25" y="-135" font-family="Helvetica,sans-Serif" font-size="10.00">ivshmem</text>
</a>
</g>
</g>
<!-- Node5&#45;&gt;Node2 -->
<g id="edge5_Node000002_Node000005" class="edge">
<title>Node5&#45;&gt;Node2</title>
<g id="a_edge5_Node000002_Node000005"><a xlink:title=" ">
<path fill="none" stroke="#9a32cd" stroke-dasharray="5,2" d="M166.69,-120.55C163.07,-114.5 158.99,-107.7 155.25,-101.5 151.72,-95.65 147.72,-89.09 144.6,-83.99"/>
<polygon fill="#9a32cd" stroke="#9a32cd" points="164.07,-121.98 172.2,-128.77 170.08,-118.39 164.07,-121.98"/>
</a>
</g>
<text text-anchor="middle" x="172.12" y="-102.5" font-family="Helvetica,sans-Serif" font-size="10.00" fill="grey"> regs</text>
</g>
<!-- Node6 -->
<g id="Node000006" class="node">
<title>Node6</title>
<g id="a_Node000006"><a xlink:href="a02182.html" target="_top" xlink:title=" ">
<polygon fill="white" stroke="#666666" points="293.62,-148.5 222.88,-148.5 222.88,-130 293.62,-130 293.62,-148.5"/>
<text text-anchor="middle" x="258.25" y="-135" font-family="Helvetica,sans-Serif" font-size="10.00">arch_alloc_s</text>
</a>
</g>
</g>
<!-- Node6&#45;&gt;Node2 -->
<g id="edge6_Node000002_Node000006" class="edge">
<title>Node6&#45;&gt;Node2</title>
<g id="a_edge6_Node000002_Node000006"><a xlink:title=" ">
<path fill="none" stroke="#9a32cd" stroke-dasharray="5,2" d="M232.57,-124.66C209.15,-112.26 175.27,-94.32 155.42,-83.81"/>
<polygon fill="#9a32cd" stroke="#9a32cd" points="230.73,-128.17 241.2,-129.75 234,-121.98 230.73,-128.17"/>
</a>
</g>
<text text-anchor="middle" x="216.88" y="-102.5" font-family="Helvetica,sans-Serif" font-size="10.00" fill="grey"> alloc</text>
</g>
</g>
</svg>
