<?xml version="1.0" encoding="UTF-8" standalone="no"?>
<!DOCTYPE svg PUBLIC "-//W3C//DTD SVG 1.1//EN"
 "http://www.w3.org/Graphics/SVG/1.1/DTD/svg11.dtd">
<!-- Generated by graphviz version 12.2.1 (0)
 -->
<!-- Title: arax_object_repo_s Pages: 1 -->
<svg width="629pt" height="432pt"
 viewBox="0.00 0.00 629.12 432.00" xmlns="http://www.w3.org/2000/svg" xmlns:xlink="http://www.w3.org/1999/xlink">
<g id="graph0" class="graph" transform="scale(1 1) rotate(0) translate(4 428)">
<title>arax_object_repo_s</title>
<!-- Node1 -->
<g id="Node000001" class="node">
<title>Node1</title>
<g id="a_Node000001"><a xlink:title=" ">
<polygon fill="#999999" stroke="#666666" points="129.75,-291.5 28.25,-291.5 28.25,-273 129.75,-273 129.75,-291.5"/>
<text text-anchor="middle" x="79" y="-278" font-family="Helvetica,sans-Serif" font-size="10.00">arax_object_repo_s</text>
</a>
</g>
</g>
<!-- Node2 -->
<g id="Node000002" class="node">
<title>Node2</title>
<g id="a_Node000002"><a xlink:href="a02338.html" target="_top" xlink:title=" ">
<polygon fill="white" stroke="#666666" points="251.38,-18.5 192.62,-18.5 192.62,0 251.38,0 251.38,-18.5"/>
<text text-anchor="middle" x="222" y="-5" font-family="Helvetica,sans-Serif" font-size="10.00">arax_pipe</text>
</a>
</g>
</g>
<!-- Node1&#45;&gt;Node2 -->
<g id="edge2_Node000002_Node000001" class="edge">
<title>Node1&#45;&gt;Node2</title>
<g id="a_edge2_Node000002_Node000001"><a xlink:title=" ">
<path fill="none" stroke="#9a32cd" stroke-dasharray="5,2" d="M76.62,-261.45C75.33,-249.06 74,-232.74 74,-218.25 74,-218.25 74,-218.25 74,-85 74,-32.47 149.22,-16.85 192.41,-12.21"/>
<polygon fill="#9a32cd" stroke="#9a32cd" points="73.12,-261.66 77.72,-271.2 80.08,-260.87 73.12,-261.66"/>
</a>
</g>
<text text-anchor="middle" x="84.5" y="-148" font-family="Helvetica,sans-Serif" font-size="10.00" fill="grey"> objs</text>
</g>
<!-- Node2&#45;&gt;Node1 -->
<g id="edge1_Node000001_Node000002" class="edge">
<title>Node2&#45;&gt;Node1</title>
<g id="a_edge1_Node000001_Node000002"><a xlink:title=" ">
<path fill="none" stroke="#9a32cd" stroke-dasharray="5,2" d="M185.64,-23.44C160.3,-35.24 131,-55.3 131,-85 131,-218.25 131,-218.25 131,-218.25 131,-242.22 108.34,-262 92.94,-272.67"/>
<polygon fill="#9a32cd" stroke="#9a32cd" points="186.99,-26.67 194.78,-19.49 184.21,-20.25 186.99,-26.67"/>
</a>
</g>
<text text-anchor="middle" x="141.5" y="-148" font-family="Helvetica,sans-Serif" font-size="10.00" fill="grey"> pipe</text>
</g>
<!-- Node3 -->
<g id="Node000003" class="node">
<title>Node3</title>
<g id="a_Node000003"><a xlink:href="a02242.html" target="_top" xlink:title=" ">
<polygon fill="white" stroke="#666666" points="339.5,-291.5 260.5,-291.5 260.5,-273 339.5,-273 339.5,-291.5"/>
<text text-anchor="middle" x="300" y="-278" font-family="Helvetica,sans-Serif" font-size="10.00">async_meta_s</text>
</a>
</g>
</g>
<!-- Node3&#45;&gt;Node2 -->
<g id="edge3_Node000002_Node000003" class="edge">
<title>Node3&#45;&gt;Node2</title>
<g id="a_edge3_Node000002_Node000003"><a xlink:title=" ">
<path fill="none" stroke="#9a32cd" stroke-dasharray="5,2" d="M264.39,-268.2C231.59,-253.62 188,-226.56 188,-185.75 188,-185.75 188,-185.75 188,-85 188,-59.05 205.18,-32.22 215.12,-18.87"/>
<polygon fill="#9a32cd" stroke="#9a32cd" points="262.62,-271.26 273.19,-271.91 265.33,-264.8 262.62,-271.26"/>
</a>
</g>
<text text-anchor="middle" x="202.25" y="-148" font-family="Helvetica,sans-Serif" font-size="10.00" fill="grey"> async</text>
</g>
<!-- Node9 -->
<g id="Node000009" class="node">
<title>Node9</title>
<g id="a_Node000009"><a xlink:href="a02254.html" target="_top" xlink:title=" ">
<polygon fill="white" stroke="#666666" points="382.12,-161.5 285.88,-161.5 285.88,-143 382.12,-143 382.12,-161.5"/>
<text text-anchor="middle" x="334" y="-148" font-family="Helvetica,sans-Serif" font-size="10.00">async_condition_s</text>
</a>
</g>
</g>
<!-- Node3&#45;&gt;Node9 -->
<g id="edge11_Node000009_Node000003" class="edge">
<title>Node3&#45;&gt;Node9</title>
<g id="a_edge11_Node000009_Node000003"><a xlink:title=" ">
<path fill="none" stroke="#9a32cd" stroke-dasharray="5,2" d="M312.47,-263.19C323.75,-245.49 339.29,-217.27 344,-190 345.69,-180.23 341.97,-169.29 338.59,-161.91"/>
<polygon fill="#9a32cd" stroke="#9a32cd" points="309.58,-261.22 306.97,-271.49 315.41,-265.09 309.58,-261.22"/>
</a>
</g>
<text text-anchor="middle" x="351.45" y="-213" font-family="Helvetica,sans-Serif" font-size="10.00" fill="grey"> meta</text>
</g>
<!-- Node10 -->
<g id="Node000010" class="node">
<title>Node10</title>
<g id="a_Node000010"><a xlink:href="a02246.html" target="_top" xlink:title=" ">
<polygon fill="white" stroke="#666666" points="505.25,-226.5 400.75,-226.5 400.75,-208 505.25,-208 505.25,-226.5"/>
<text text-anchor="middle" x="453" y="-213" font-family="Helvetica,sans-Serif" font-size="10.00">async_completion_s</text>
</a>
</g>
</g>
<!-- Node3&#45;&gt;Node10 -->
<g id="edge13_Node000010_Node000003" class="edge">
<title>Node3&#45;&gt;Node10</title>
<g id="a_edge13_Node000010_Node000003"><a xlink:title=" ">
<path fill="none" stroke="#9a32cd" stroke-dasharray="5,2" d="M335.83,-268.8C347.44,-264.6 360.33,-259.77 372,-255 393.87,-246.07 418.53,-234.68 434.84,-226.97"/>
<polygon fill="#9a32cd" stroke="#9a32cd" points="334.84,-265.43 326.6,-272.09 337.19,-272.03 334.84,-265.43"/>
</a>
</g>
<text text-anchor="middle" x="406.85" y="-245.5" font-family="Helvetica,sans-Serif" font-size="10.00" fill="grey"> meta</text>
</g>
<!-- Node11 -->
<g id="Node000011" class="node">
<title>Node11</title>
<g id="a_Node000011"><a xlink:href="a02250.html" target="_top" xlink:title=" ">
<polygon fill="white" stroke="#666666" points="321.62,-226.5 216.38,-226.5 216.38,-208 321.62,-208 321.62,-226.5"/>
<text text-anchor="middle" x="269" y="-213" font-family="Helvetica,sans-Serif" font-size="10.00">async_semaphore_s</text>
</a>
</g>
</g>
<!-- Node3&#45;&gt;Node11 -->
<g id="edge16_Node000011_Node000003" class="edge">
<title>Node3&#45;&gt;Node11</title>
<g id="a_edge16_Node000011_Node000003"><a xlink:title=" ">
<path fill="none" stroke="#9a32cd" stroke-dasharray="5,2" d="M290.78,-262.5C284.91,-250.58 277.6,-235.72 273.11,-226.61"/>
<polygon fill="#9a32cd" stroke="#9a32cd" points="287.6,-263.97 295.15,-271.4 293.88,-260.88 287.6,-263.97"/>
</a>
</g>
<text text-anchor="middle" x="298.73" y="-245.5" font-family="Helvetica,sans-Serif" font-size="10.00" fill="grey"> meta</text>
</g>
<!-- Node4 -->
<g id="Node000004" class="node">
<title>Node4</title>
<g id="a_Node000004"><a xlink:href="a02326.html" target="_top" xlink:title=" ">
<polygon fill="white" stroke="#666666" points="197.25,-356.5 134.75,-356.5 134.75,-338 197.25,-338 197.25,-356.5"/>
<text text-anchor="middle" x="166" y="-343" font-family="Helvetica,sans-Serif" font-size="10.00">utils_list_s</text>
</a>
</g>
</g>
<!-- Node4&#45;&gt;Node1 -->
<g id="edge23_Node000001_Node000004" class="edge">
<title>Node4&#45;&gt;Node1</title>
<g id="a_edge23_Node000001_Node000004"><a xlink:title=" ">
<path fill="none" stroke="#9a32cd" stroke-dasharray="5,2" d="M145.12,-331.13C128.12,-318.82 104.75,-301.89 90.83,-291.81"/>
<polygon fill="#9a32cd" stroke="#9a32cd" points="142.89,-333.84 153.04,-336.87 146.99,-328.17 142.89,-333.84"/>
</a>
</g>
<text text-anchor="middle" x="135.58" y="-310.5" font-family="Helvetica,sans-Serif" font-size="10.00" fill="grey"> list</text>
</g>
<!-- Node4&#45;&gt;Node2 -->
<g id="edge19_Node000002_Node000004" class="edge">
<title>Node4&#45;&gt;Node2</title>
<g id="a_edge19_Node000002_Node000004"><a xlink:title=" ">
<path fill="none" stroke="#9a32cd" stroke-dasharray="5,2" d="M123.39,-338.77C74.21,-328.9 0,-309.63 0,-283.25 0,-283.25 0,-283.25 0,-85 0,-44.84 132.13,-22.16 192.52,-13.88"/>
<polygon fill="#9a32cd" stroke="#9a32cd" points="122.42,-342.15 132.9,-340.62 123.75,-335.28 122.42,-342.15"/>
</a>
</g>
<text text-anchor="middle" x="29.25" y="-180.5" font-family="Helvetica,sans-Serif" font-size="10.00" fill="grey"> orphan_vacs</text>
</g>
<!-- Node4&#45;&gt;Node3 -->
<g id="edge4_Node000003_Node000004" class="edge">
<title>Node4&#45;&gt;Node3</title>
<g id="a_edge4_Node000003_Node000004"><a xlink:title=" ">
<path fill="none" stroke="#9a32cd" stroke-dasharray="5,2" d="M194.26,-332.58C208.73,-325.61 226.65,-317.04 242.75,-309.5 255.42,-303.56 269.74,-297 280.88,-291.92"/>
<polygon fill="#9a32cd" stroke="#9a32cd" points="192.8,-329.4 185.31,-336.89 195.84,-335.7 192.8,-329.4"/>
</a>
</g>
<text text-anchor="middle" x="269.38" y="-310.5" font-family="Helvetica,sans-Serif" font-size="10.00" fill="grey"> outstanding</text>
</g>
<!-- Node4&#45;&gt;Node11 -->
<g id="edge17_Node000011_Node000004" class="edge">
<title>Node4&#45;&gt;Node11</title>
<g id="a_edge17_Node000011_Node000004"><a xlink:title=" ">
<path fill="none" stroke="#9a32cd" stroke-dasharray="5,2" d="M170.92,-326.85C175.59,-311.17 183.76,-289.14 196.25,-273 211.83,-252.87 236.58,-236.41 252.82,-226.96"/>
<polygon fill="#9a32cd" stroke="#9a32cd" points="167.58,-325.79 168.32,-336.36 174.33,-327.64 167.58,-325.79"/>
</a>
</g>
<text text-anchor="middle" x="223.62" y="-278" font-family="Helvetica,sans-Serif" font-size="10.00" fill="grey"> pending_list</text>
</g>
<!-- Node5 -->
<g id="Node000005" class="node">
<title>Node5</title>
<g id="a_Node000005"><a xlink:href="a02322.html" target="_top" xlink:title=" ">
<polygon fill="white" stroke="#666666" points="407.12,-422.75 328.88,-422.75 328.88,-404.25 407.12,-404.25 407.12,-422.75"/>
<text text-anchor="middle" x="368" y="-409.25" font-family="Helvetica,sans-Serif" font-size="10.00">utils_list_node</text>
</a>
</g>
</g>
<!-- Node5&#45;&gt;Node4 -->
<g id="edge5_Node000004_Node000005" class="edge">
<title>Node5&#45;&gt;Node4</title>
<g id="a_edge5_Node000004_Node000005"><a xlink:title=" ">
<path fill="none" stroke="#9a32cd" stroke-dasharray="5,2" d="M329.9,-400.38C290.13,-387.73 228.73,-368.2 193.46,-356.98"/>
<polygon fill="#9a32cd" stroke="#9a32cd" points="328.72,-403.68 339.32,-403.38 330.85,-397.01 328.72,-403.68"/>
</a>
</g>
<text text-anchor="middle" x="291.09" y="-375.5" font-family="Helvetica,sans-Serif" font-size="10.00" fill="grey"> head</text>
</g>
<!-- Node5&#45;&gt;Node5 -->
<g id="edge6_Node000005_Node000005" class="edge">
<title>Node5&#45;&gt;Node5</title>
<g id="a_edge6_Node000005_Node000005"><a xlink:title=" ">
<path fill="none" stroke="#9a32cd" stroke-dasharray="5,2" d="M418.85,-418.25C422.74,-417.2 425.12,-415.61 425.12,-413.5 425.12,-409.74 417.57,-407.66 407.51,-407.25"/>
<polygon fill="#9a32cd" stroke="#9a32cd" points="418.47,-414.77 409.01,-419.55 419.39,-421.71 418.47,-414.77"/>
</a>
</g>
<text text-anchor="middle" x="436" y="-414.5" font-family="Helvetica,sans-Serif" font-size="10.00" fill="grey"> next</text>
<text text-anchor="middle" x="436" y="-404" font-family="Helvetica,sans-Serif" font-size="10.00" fill="grey">prev</text>
</g>
<!-- Node5&#45;&gt;Node10 -->
<g id="edge14_Node000010_Node000005" class="edge">
<title>Node5&#45;&gt;Node10</title>
<g id="a_edge14_Node000010_Node000005"><a xlink:title=" ">
<path fill="none" stroke="#9a32cd" stroke-dasharray="5,2" d="M418.54,-411.66C460.03,-407.98 516.56,-395.49 546,-356.5 581.73,-309.17 500.6,-248.99 466.86,-226.89"/>
<polygon fill="#9a32cd" stroke="#9a32cd" points="418.51,-408.15 408.79,-412.36 419.01,-415.13 418.51,-408.15"/>
</a>
</g>
<text text-anchor="middle" x="580.09" y="-310.5" font-family="Helvetica,sans-Serif" font-size="10.00" fill="grey"> outstanding</text>
</g>
<!-- Node6 -->
<g id="Node000006" class="node">
<title>Node6</title>
<g id="a_Node000006"><a xlink:href="a02238.html" target="_top" xlink:title=" ">
<polygon fill="white" stroke="#666666" points="327.88,-356.5 272.12,-356.5 272.12,-338 327.88,-338 327.88,-356.5"/>
<text text-anchor="middle" x="300" y="-343" font-family="Helvetica,sans-Serif" font-size="10.00">ivshmem</text>
</a>
</g>
</g>
<!-- Node6&#45;&gt;Node3 -->
<g id="edge7_Node000003_Node000006" class="edge">
<title>Node6&#45;&gt;Node3</title>
<g id="a_edge7_Node000003_Node000006"><a xlink:title=" ">
<path fill="none" stroke="#9a32cd" stroke-dasharray="5,2" d="M300,-326.39C300,-314.66 300,-300.44 300,-291.61"/>
<polygon fill="#9a32cd" stroke="#9a32cd" points="296.5,-326.24 300,-336.24 303.5,-326.24 296.5,-326.24"/>
</a>
</g>
<text text-anchor="middle" x="310.88" y="-310.5" font-family="Helvetica,sans-Serif" font-size="10.00" fill="grey"> regs</text>
</g>
<!-- Node7 -->
<g id="Node000007" class="node">
<title>Node7</title>
<g id="a_Node000007"><a xlink:href="a02194.html" target="_top" xlink:title=" ">
<polygon fill="white" stroke="#666666" points="537.38,-356.5 466.62,-356.5 466.62,-338 537.38,-338 537.38,-356.5"/>
<text text-anchor="middle" x="502" y="-343" font-family="Helvetica,sans-Serif" font-size="10.00">arch_alloc_s</text>
</a>
</g>
</g>
<!-- Node7&#45;&gt;Node2 -->
<g id="edge22_Node000002_Node000007" class="edge">
<title>Node7&#45;&gt;Node2</title>
<g id="a_edge22_Node000002_Node000007"><a xlink:title=" ">
<path fill="none" stroke="#9a32cd" stroke-dasharray="5,2" d="M516.31,-328.25C524.43,-316.22 533,-299.65 533,-283.25 533,-283.25 533,-283.25 533,-85 533,-27.53 329.66,-14.12 251.82,-11.1"/>
<polygon fill="#9a32cd" stroke="#9a32cd" points="513.49,-326.17 510.4,-336.31 519.13,-330.31 513.49,-326.17"/>
</a>
</g>
<text text-anchor="middle" x="552.88" y="-180.5" font-family="Helvetica,sans-Serif" font-size="10.00" fill="grey"> allocator</text>
</g>
<!-- Node7&#45;&gt;Node3 -->
<g id="edge8_Node000003_Node000007" class="edge">
<title>Node7&#45;&gt;Node3</title>
<g id="a_edge8_Node000003_Node000007"><a xlink:title=" ">
<path fill="none" stroke="#9a32cd" stroke-dasharray="5,2" d="M463.52,-334.25C423.93,-321.9 363.22,-302.97 327.98,-291.98"/>
<polygon fill="#9a32cd" stroke="#9a32cd" points="462.3,-337.54 472.89,-337.17 464.39,-330.85 462.3,-337.54"/>
</a>
</g>
<text text-anchor="middle" x="424.72" y="-310.5" font-family="Helvetica,sans-Serif" font-size="10.00" fill="grey"> alloc</text>
</g>
<!-- Node8 -->
<g id="Node000008" class="node">
<title>Node8</title>
<g id="a_Node000008"><a xlink:href="a02298.html" target="_top" xlink:title=" ">
<polygon fill="white" stroke="#666666" points="297.62,-95.25 216.38,-95.25 216.38,-76.75 297.62,-76.75 297.62,-95.25"/>
<text text-anchor="middle" x="257" y="-81.75" font-family="Helvetica,sans-Serif" font-size="10.00">arax_throttle_s</text>
</a>
</g>
</g>
<!-- Node8&#45;&gt;Node2 -->
<g id="edge9_Node000002_Node000008" class="edge">
<title>Node8&#45;&gt;Node2</title>
<g id="a_edge9_Node000002_Node000008"><a xlink:title=" ">
<path fill="none" stroke="#9a32cd" stroke-dasharray="5,2" d="M248.14,-66.09C241.01,-50.85 231.32,-30.16 225.97,-18.72"/>
<polygon fill="#9a32cd" stroke="#9a32cd" points="244.93,-67.48 252.34,-75.05 251.27,-64.51 244.93,-67.48"/>
</a>
</g>
<text text-anchor="middle" x="260.16" y="-42.75" font-family="Helvetica,sans-Serif" font-size="10.00" fill="grey"> throttle</text>
</g>
<!-- Node9&#45;&gt;Node2 -->
<g id="edge18_Node000002_Node000009" class="edge">
<title>Node9&#45;&gt;Node2</title>
<g id="a_edge18_Node000002_Node000009"><a xlink:title=" ">
<path fill="none" stroke="#9a32cd" stroke-dasharray="5,2" d="M330.21,-131.28C324.27,-105.54 310.27,-61.19 281,-36.5 272,-28.91 260.46,-23.13 249.97,-18.95"/>
<polygon fill="#9a32cd" stroke="#9a32cd" points="326.78,-131.99 332.25,-141.06 333.63,-130.56 326.78,-131.99"/>
</a>
</g>
<text text-anchor="middle" x="358.15" y="-87" font-family="Helvetica,sans-Serif" font-size="10.00" fill="grey"> cntrl_ready_cond</text>
<text text-anchor="middle" x="358.15" y="-76.5" font-family="Helvetica,sans-Serif" font-size="10.00" fill="grey">orphan_cond</text>
</g>
<!-- Node9&#45;&gt;Node8 -->
<g id="edge10_Node000008_Node000009" class="edge">
<title>Node9&#45;&gt;Node8</title>
<g id="a_edge10_Node000008_Node000009"><a xlink:title=" ">
<path fill="none" stroke="#9a32cd" stroke-dasharray="5,2" d="M309.09,-136.67C303.61,-133.1 297.97,-129.11 293,-125 282.07,-115.97 271.1,-103.83 264.19,-95.73"/>
<polygon fill="#9a32cd" stroke="#9a32cd" points="306.97,-139.48 317.31,-141.8 310.68,-133.54 306.97,-139.48"/>
</a>
</g>
<text text-anchor="middle" x="306.5" y="-115.5" font-family="Helvetica,sans-Serif" font-size="10.00" fill="grey"> ready</text>
</g>
<!-- Node10&#45;&gt;Node9 -->
<g id="edge12_Node000009_Node000010" class="edge">
<title>Node10&#45;&gt;Node9</title>
<g id="a_edge12_Node000009_Node000010"><a xlink:title=" ">
<path fill="none" stroke="#9a32cd" stroke-dasharray="5,2" d="M427.01,-202.49C403.6,-190.1 369.93,-172.27 350.17,-161.81"/>
<polygon fill="#9a32cd" stroke="#9a32cd" points="425.14,-205.46 435.61,-207.05 428.41,-199.27 425.14,-205.46"/>
</a>
</g>
<text text-anchor="middle" x="415.62" y="-180.5" font-family="Helvetica,sans-Serif" font-size="10.00" fill="grey"> mutex</text>
</g>
<!-- Node11&#45;&gt;Node9 -->
<g id="edge15_Node000009_Node000011" class="edge">
<title>Node11&#45;&gt;Node9</title>
<g id="a_edge15_Node000009_Node000011"><a xlink:title=" ">
<path fill="none" stroke="#9a32cd" stroke-dasharray="5,2" d="M278.85,-197.91C282.75,-191.64 287.59,-184.86 293,-179.5 300.08,-172.48 309.35,-166.35 317.28,-161.79"/>
<polygon fill="#9a32cd" stroke="#9a32cd" points="275.96,-195.91 274.01,-206.33 282.03,-199.4 275.96,-195.91"/>
</a>
</g>
<text text-anchor="middle" x="318.5" y="-180.5" font-family="Helvetica,sans-Serif" font-size="10.00" fill="grey"> semaphore</text>
</g>
<!-- Node12 -->
<g id="Node000012" class="node">
<title>Node12</title>
<g id="a_Node000012"><a xlink:href="a02314.html" target="_top" xlink:title=" ">
<polygon fill="white" stroke="#666666" points="621.12,-95.25 560.88,-95.25 560.88,-76.75 621.12,-76.75 621.12,-95.25"/>
<text text-anchor="middle" x="591" y="-81.75" font-family="Helvetica,sans-Serif" font-size="10.00">utils_kv_s</text>
</a>
</g>
</g>
<!-- Node12&#45;&gt;Node2 -->
<g id="edge20_Node000002_Node000012" class="edge">
<title>Node12&#45;&gt;Node2</title>
<g id="a_edge20_Node000002_Node000012"><a xlink:title=" ">
<path fill="none" stroke="#9a32cd" stroke-dasharray="5,2" d="M579.75,-66.88C571.98,-56.08 560.61,-43.2 547,-36.5 495.51,-11.16 321.72,-9.49 251.65,-9.9"/>
<polygon fill="#9a32cd" stroke="#9a32cd" points="576.75,-68.7 585.21,-75.08 582.58,-64.82 576.75,-68.7"/>
</a>
</g>
<text text-anchor="middle" x="595.55" y="-48" font-family="Helvetica,sans-Serif" font-size="10.00" fill="grey"> ass_kv</text>
<text text-anchor="middle" x="595.55" y="-37.5" font-family="Helvetica,sans-Serif" font-size="10.00" fill="grey">metrics_kv</text>
</g>
<!-- Node13 -->
<g id="Node000013" class="node">
<title>Node13</title>
<g id="a_Node000013"><a xlink:href="a02318.html" target="_top" xlink:title=" ">
<polygon fill="white" stroke="#666666" points="607.62,-161.5 574.38,-161.5 574.38,-143 607.62,-143 607.62,-161.5"/>
<text text-anchor="middle" x="591" y="-148" font-family="Helvetica,sans-Serif" font-size="10.00">Pair</text>
</a>
</g>
</g>
<!-- Node13&#45;&gt;Node12 -->
<g id="edge21_Node000012_Node000013" class="edge">
<title>Node13&#45;&gt;Node12</title>
<g id="a_edge21_Node000012_Node000013"><a xlink:title=" ">
<path fill="none" stroke="#9a32cd" stroke-dasharray="5,2" d="M591,-131.37C591,-119.35 591,-104.62 591,-95.53"/>
<polygon fill="#9a32cd" stroke="#9a32cd" points="587.5,-131.07 591,-141.07 594.5,-131.07 587.5,-131.07"/>
</a>
</g>
<text text-anchor="middle" x="597.75" y="-115.5" font-family="Helvetica,sans-Serif" font-size="10.00" fill="grey"> kv</text>
</g>
</g>
</svg>
