<?xml version="1.0" encoding="UTF-8" standalone="no"?>
<!DOCTYPE svg PUBLIC "-//W3C//DTD SVG 1.1//EN"
 "http://www.w3.org/Graphics/SVG/1.1/DTD/svg11.dtd">
<!-- Generated by graphviz version 12.2.1 (0)
 -->
<!-- Title: arax_proc_s Pages: 1 -->
<svg width="716pt" height="432pt"
 viewBox="0.00 0.00 715.88 432.00" xmlns="http://www.w3.org/2000/svg" xmlns:xlink="http://www.w3.org/1999/xlink">
<g id="graph0" class="graph" transform="scale(1 1) rotate(0) translate(4 428)">
<title>arax_proc_s</title>
<!-- Node1 -->
<g id="Node000001" class="node">
<title>Node1</title>
<g id="a_Node000001"><a xlink:title=" ">
<polygon fill="#999999" stroke="#666666" points="72.75,-161.5 2.75,-161.5 2.75,-143 72.75,-143 72.75,-161.5"/>
<text text-anchor="middle" x="37.75" y="-148" font-family="Helvetica,sans-Serif" font-size="10.00">arax_proc_s</text>
</a>
</g>
</g>
<!-- Node2 -->
<g id="Node000002" class="node">
<title>Node2</title>
<g id="a_Node000002"><a xlink:href="a02286.html" target="_top" xlink:title=" ">
<polygon fill="white" stroke="#666666" points="77.5,-226.5 0,-226.5 0,-208 77.5,-208 77.5,-226.5"/>
<text text-anchor="middle" x="38.75" y="-213" font-family="Helvetica,sans-Serif" font-size="10.00">arax_object_s</text>
</a>
</g>
</g>
<!-- Node2&#45;&gt;Node1 -->
<g id="edge1_Node000001_Node000002" class="edge">
<title>Node2&#45;&gt;Node1</title>
<g id="a_edge1_Node000001_Node000002"><a xlink:title=" ">
<path fill="none" stroke="#9a32cd" stroke-dasharray="5,2" d="M38.43,-196.39C38.25,-184.66 38.02,-170.44 37.88,-161.61"/>
<polygon fill="#9a32cd" stroke="#9a32cd" points="34.93,-196.3 38.59,-206.24 41.93,-196.19 34.93,-196.3"/>
</a>
</g>
<text text-anchor="middle" x="46.18" y="-180.5" font-family="Helvetica,sans-Serif" font-size="10.00" fill="grey"> obj</text>
</g>
<!-- Node3 -->
<g id="Node000003" class="node">
<title>Node3</title>
<g id="a_Node000003"><a xlink:href="a02278.html" target="_top" xlink:title=" ">
<polygon fill="white" stroke="#666666" points="172.5,-291.5 71,-291.5 71,-273 172.5,-273 172.5,-291.5"/>
<text text-anchor="middle" x="121.75" y="-278" font-family="Helvetica,sans-Serif" font-size="10.00">arax_object_repo_s</text>
</a>
</g>
</g>
<!-- Node3&#45;&gt;Node2 -->
<g id="edge2_Node000002_Node000003" class="edge">
<title>Node3&#45;&gt;Node2</title>
<g id="a_edge2_Node000002_Node000003"><a xlink:title=" ">
<path fill="none" stroke="#9a32cd" stroke-dasharray="5,2" d="M92.28,-267.39C85.68,-263.75 78.89,-259.55 73,-255 62.23,-246.69 51.87,-234.86 45.41,-226.89"/>
<polygon fill="#9a32cd" stroke="#9a32cd" points="90.52,-270.42 101.01,-271.93 93.76,-264.21 90.52,-270.42"/>
</a>
</g>
<text text-anchor="middle" x="83.88" y="-245.5" font-family="Helvetica,sans-Serif" font-size="10.00" fill="grey"> repo</text>
</g>
<!-- Node4 -->
<g id="Node000004" class="node">
<title>Node4</title>
<g id="a_Node000004"><a xlink:href="a02338.html" target="_top" xlink:title=" ">
<polygon fill="white" stroke="#666666" points="330.12,-18.5 271.38,-18.5 271.38,0 330.12,0 330.12,-18.5"/>
<text text-anchor="middle" x="300.75" y="-5" font-family="Helvetica,sans-Serif" font-size="10.00">arax_pipe</text>
</a>
</g>
</g>
<!-- Node3&#45;&gt;Node4 -->
<g id="edge4_Node000004_Node000003" class="edge">
<title>Node3&#45;&gt;Node4</title>
<g id="a_edge4_Node000004_Node000003"><a xlink:title=" ">
<path fill="none" stroke="#9a32cd" stroke-dasharray="5,2" d="M115.67,-262.02C112.29,-249.65 108.75,-233.16 108.75,-218.25 108.75,-218.25 108.75,-218.25 108.75,-85 108.75,-50.01 138.97,-51.13 170.75,-36.5 203.06,-21.62 243.72,-15.14 270.89,-12.34"/>
<polygon fill="#9a32cd" stroke="#9a32cd" points="112.24,-262.76 118.43,-271.35 118.95,-260.77 112.24,-262.76"/>
</a>
</g>
<text text-anchor="middle" x="119.25" y="-148" font-family="Helvetica,sans-Serif" font-size="10.00" fill="grey"> objs</text>
</g>
<!-- Node4&#45;&gt;Node3 -->
<g id="edge3_Node000003_Node000004" class="edge">
<title>Node4&#45;&gt;Node3</title>
<g id="a_edge3_Node000003_Node000004"><a xlink:title=" ">
<path fill="none" stroke="#9a32cd" stroke-dasharray="5,2" d="M259.85,-15.46C220.12,-23.09 165.75,-41.48 165.75,-85 165.75,-218.25 165.75,-218.25 165.75,-218.25 165.75,-241.2 145.89,-261.75 132.85,-272.76"/>
<polygon fill="#9a32cd" stroke="#9a32cd" points="260.38,-18.92 269.63,-13.77 259.18,-12.03 260.38,-18.92"/>
</a>
</g>
<text text-anchor="middle" x="176.25" y="-148" font-family="Helvetica,sans-Serif" font-size="10.00" fill="grey"> pipe</text>
</g>
<!-- Node5 -->
<g id="Node000005" class="node">
<title>Node5</title>
<g id="a_Node000005"><a xlink:href="a02242.html" target="_top" xlink:title=" ">
<polygon fill="white" stroke="#666666" points="424.25,-291.5 345.25,-291.5 345.25,-273 424.25,-273 424.25,-291.5"/>
<text text-anchor="middle" x="384.75" y="-278" font-family="Helvetica,sans-Serif" font-size="10.00">async_meta_s</text>
</a>
</g>
</g>
<!-- Node5&#45;&gt;Node4 -->
<g id="edge5_Node000004_Node000005" class="edge">
<title>Node5&#45;&gt;Node4</title>
<g id="a_edge5_Node000004_Node000005"><a xlink:title=" ">
<path fill="none" stroke="#9a32cd" stroke-dasharray="5,2" d="M345.71,-268.3C326.42,-259.69 304.93,-246.27 293.75,-226.5 253.63,-155.54 286.56,-49.5 297.52,-18.84"/>
<polygon fill="#9a32cd" stroke="#9a32cd" points="344.14,-271.44 354.72,-272.01 346.81,-264.96 344.14,-271.44"/>
</a>
</g>
<text text-anchor="middle" x="289.31" y="-148" font-family="Helvetica,sans-Serif" font-size="10.00" fill="grey"> async</text>
</g>
<!-- Node11 -->
<g id="Node000011" class="node">
<title>Node11</title>
<g id="a_Node000011"><a xlink:href="a02254.html" target="_top" xlink:title=" ">
<polygon fill="white" stroke="#666666" points="492.88,-161.5 396.62,-161.5 396.62,-143 492.88,-143 492.88,-161.5"/>
<text text-anchor="middle" x="444.75" y="-148" font-family="Helvetica,sans-Serif" font-size="10.00">async_condition_s</text>
</a>
</g>
</g>
<!-- Node5&#45;&gt;Node11 -->
<g id="edge13_Node000011_Node000005" class="edge">
<title>Node5&#45;&gt;Node11</title>
<g id="a_edge13_Node000011_Node000005"><a xlink:title=" ">
<path fill="none" stroke="#9a32cd" stroke-dasharray="5,2" d="M395.96,-262.91C397.57,-260.26 399.21,-257.56 400.75,-255 408.37,-242.37 411.39,-239.81 417.75,-226.5 428.61,-203.75 437.94,-175.39 442.23,-161.58"/>
<polygon fill="#9a32cd" stroke="#9a32cd" points="393.11,-260.86 390.89,-271.22 399.09,-264.5 393.11,-260.86"/>
</a>
</g>
<text text-anchor="middle" x="437.77" y="-213" font-family="Helvetica,sans-Serif" font-size="10.00" fill="grey"> meta</text>
</g>
<!-- Node12 -->
<g id="Node000012" class="node">
<title>Node12</title>
<g id="a_Node000012"><a xlink:href="a02246.html" target="_top" xlink:title=" ">
<polygon fill="white" stroke="#666666" points="592,-226.5 487.5,-226.5 487.5,-208 592,-208 592,-226.5"/>
<text text-anchor="middle" x="539.75" y="-213" font-family="Helvetica,sans-Serif" font-size="10.00">async_completion_s</text>
</a>
</g>
</g>
<!-- Node5&#45;&gt;Node12 -->
<g id="edge15_Node000012_Node000005" class="edge">
<title>Node5&#45;&gt;Node12</title>
<g id="a_edge15_Node000012_Node000005"><a xlink:title=" ">
<path fill="none" stroke="#9a32cd" stroke-dasharray="5,2" d="M421.51,-268.9C433.47,-264.7 446.75,-259.84 458.75,-255 480.8,-246.1 505.64,-234.61 521.92,-226.87"/>
<polygon fill="#9a32cd" stroke="#9a32cd" points="420.71,-265.48 412.41,-272.06 423.01,-272.09 420.71,-265.48"/>
</a>
</g>
<text text-anchor="middle" x="495.88" y="-245.5" font-family="Helvetica,sans-Serif" font-size="10.00" fill="grey"> meta</text>
</g>
<!-- Node13 -->
<g id="Node000013" class="node">
<title>Node13</title>
<g id="a_Node000013"><a xlink:href="a02250.html" target="_top" xlink:title=" ">
<polygon fill="white" stroke="#666666" points="408.38,-226.5 303.12,-226.5 303.12,-208 408.38,-208 408.38,-226.5"/>
<text text-anchor="middle" x="355.75" y="-213" font-family="Helvetica,sans-Serif" font-size="10.00">async_semaphore_s</text>
</a>
</g>
</g>
<!-- Node5&#45;&gt;Node13 -->
<g id="edge18_Node000013_Node000005" class="edge">
<title>Node5&#45;&gt;Node13</title>
<g id="a_edge18_Node000013_Node000005"><a xlink:title=" ">
<path fill="none" stroke="#9a32cd" stroke-dasharray="5,2" d="M376.12,-262.5C370.63,-250.58 363.79,-235.72 359.6,-226.61"/>
<polygon fill="#9a32cd" stroke="#9a32cd" points="372.85,-263.76 380.21,-271.38 379.2,-260.83 372.85,-263.76"/>
</a>
</g>
<text text-anchor="middle" x="384.36" y="-245.5" font-family="Helvetica,sans-Serif" font-size="10.00" fill="grey"> meta</text>
</g>
<!-- Node6 -->
<g id="Node000006" class="node">
<title>Node6</title>
<g id="a_Node000006"><a xlink:href="a02326.html" target="_top" xlink:title=" ">
<polygon fill="white" stroke="#666666" points="258,-356.5 195.5,-356.5 195.5,-338 258,-338 258,-356.5"/>
<text text-anchor="middle" x="226.75" y="-343" font-family="Helvetica,sans-Serif" font-size="10.00">utils_list_s</text>
</a>
</g>
</g>
<!-- Node6&#45;&gt;Node3 -->
<g id="edge25_Node000003_Node000006" class="edge">
<title>Node6&#45;&gt;Node3</title>
<g id="a_edge25_Node000003_Node000006"><a xlink:title=" ">
<path fill="none" stroke="#9a32cd" stroke-dasharray="5,2" d="M197.65,-332.75C189.84,-328.87 181.49,-324.46 174,-320 159.33,-311.26 143.4,-299.73 133.04,-291.94"/>
<polygon fill="#9a32cd" stroke="#9a32cd" points="195.94,-335.81 206.47,-337.03 199,-329.51 195.94,-335.81"/>
</a>
</g>
<text text-anchor="middle" x="181.88" y="-310.5" font-family="Helvetica,sans-Serif" font-size="10.00" fill="grey"> list</text>
</g>
<!-- Node6&#45;&gt;Node4 -->
<g id="edge21_Node000004_Node000006" class="edge">
<title>Node6&#45;&gt;Node4</title>
<g id="a_edge21_Node000004_Node000006"><a xlink:title=" ">
<path fill="none" stroke="#9a32cd" stroke-dasharray="5,2" d="M221.86,-326.76C214.77,-295.36 203.68,-231.8 215.25,-179.5 230.38,-111.06 246.26,-96.94 281.75,-36.5 285.4,-30.29 290.15,-23.73 293.98,-18.72"/>
<polygon fill="#9a32cd" stroke="#9a32cd" points="218.42,-327.41 224.14,-336.32 225.23,-325.78 218.42,-327.41"/>
</a>
</g>
<text text-anchor="middle" x="244.5" y="-180.5" font-family="Helvetica,sans-Serif" font-size="10.00" fill="grey"> orphan_vacs</text>
</g>
<!-- Node6&#45;&gt;Node5 -->
<g id="edge6_Node000005_Node000006" class="edge">
<title>Node6&#45;&gt;Node5</title>
<g id="a_edge6_Node000005_Node000006"><a xlink:title=" ">
<path fill="none" stroke="#9a32cd" stroke-dasharray="5,2" d="M259.06,-333.37C290.04,-321.01 335.95,-302.71 362.87,-291.98"/>
<polygon fill="#9a32cd" stroke="#9a32cd" points="257.79,-330.11 249.79,-337.06 260.38,-336.61 257.79,-330.11"/>
</a>
</g>
<text text-anchor="middle" x="341.83" y="-310.5" font-family="Helvetica,sans-Serif" font-size="10.00" fill="grey"> outstanding</text>
</g>
<!-- Node6&#45;&gt;Node13 -->
<g id="edge19_Node000013_Node000006" class="edge">
<title>Node6&#45;&gt;Node13</title>
<g id="a_edge19_Node000013_Node000006"><a xlink:title=" ">
<path fill="none" stroke="#9a32cd" stroke-dasharray="5,2" d="M237.74,-328.43C247.86,-312.83 263.86,-290.05 281,-273 299.82,-254.28 325.43,-236.95 341.26,-226.99"/>
<polygon fill="#9a32cd" stroke="#9a32cd" points="234.93,-326.33 232.54,-336.65 240.85,-330.07 234.93,-326.33"/>
</a>
</g>
<text text-anchor="middle" x="308.38" y="-278" font-family="Helvetica,sans-Serif" font-size="10.00" fill="grey"> pending_list</text>
</g>
<!-- Node7 -->
<g id="Node000007" class="node">
<title>Node7</title>
<g id="a_Node000007"><a xlink:href="a02322.html" target="_top" xlink:title=" ">
<polygon fill="white" stroke="#666666" points="265.88,-422.75 187.62,-422.75 187.62,-404.25 265.88,-404.25 265.88,-422.75"/>
<text text-anchor="middle" x="226.75" y="-409.25" font-family="Helvetica,sans-Serif" font-size="10.00">utils_list_node</text>
</a>
</g>
</g>
<!-- Node7&#45;&gt;Node2 -->
<g id="edge26_Node000002_Node000007" class="edge">
<title>Node7&#45;&gt;Node2</title>
<g id="a_edge26_Node000002_Node000007"><a xlink:title=" ">
<path fill="none" stroke="#9a32cd" stroke-dasharray="5,2" d="M198.07,-398.78C161.23,-379.73 97.78,-341.85 61.75,-291.5 47.17,-271.12 41.6,-241.17 39.67,-226.7"/>
<polygon fill="#9a32cd" stroke="#9a32cd" points="196.29,-401.8 206.79,-403.18 199.44,-395.55 196.29,-401.8"/>
</a>
</g>
<text text-anchor="middle" x="93.04" y="-310.5" font-family="Helvetica,sans-Serif" font-size="10.00" fill="grey"> list</text>
</g>
<!-- Node7&#45;&gt;Node6 -->
<g id="edge7_Node000006_Node000007" class="edge">
<title>Node7&#45;&gt;Node6</title>
<g id="a_edge7_Node000006_Node000007"><a xlink:title=" ">
<path fill="none" stroke="#9a32cd" stroke-dasharray="5,2" d="M226.75,-392.62C226.75,-380.6 226.75,-365.87 226.75,-356.78"/>
<polygon fill="#9a32cd" stroke="#9a32cd" points="223.25,-392.32 226.75,-402.32 230.25,-392.32 223.25,-392.32"/>
</a>
</g>
<text text-anchor="middle" x="238.75" y="-375.5" font-family="Helvetica,sans-Serif" font-size="10.00" fill="grey"> head</text>
</g>
<!-- Node7&#45;&gt;Node7 -->
<g id="edge8_Node000007_Node000007" class="edge">
<title>Node7&#45;&gt;Node7</title>
<g id="a_edge8_Node000007_Node000007"><a xlink:title=" ">
<path fill="none" stroke="#9a32cd" stroke-dasharray="5,2" d="M277.6,-418.25C281.49,-417.2 283.88,-415.61 283.88,-413.5 283.88,-409.74 276.32,-407.66 266.26,-407.25"/>
<polygon fill="#9a32cd" stroke="#9a32cd" points="277.22,-414.77 267.76,-419.55 278.14,-421.71 277.22,-414.77"/>
</a>
</g>
<text text-anchor="middle" x="294.75" y="-414.5" font-family="Helvetica,sans-Serif" font-size="10.00" fill="grey"> next</text>
<text text-anchor="middle" x="294.75" y="-404" font-family="Helvetica,sans-Serif" font-size="10.00" fill="grey">prev</text>
</g>
<!-- Node7&#45;&gt;Node12 -->
<g id="edge16_Node000012_Node000007" class="edge">
<title>Node7&#45;&gt;Node12</title>
<g id="a_edge16_Node000012_Node000007"><a xlink:title=" ">
<path fill="none" stroke="#9a32cd" stroke-dasharray="5,2" d="M277.66,-413.28C376.01,-413.59 586.55,-408.06 632.75,-356.5 672.51,-312.12 588.06,-249.64 553.56,-226.93"/>
<polygon fill="#9a32cd" stroke="#9a32cd" points="277.77,-409.78 267.75,-413.22 277.73,-416.78 277.77,-409.78"/>
</a>
</g>
<text text-anchor="middle" x="668.33" y="-310.5" font-family="Helvetica,sans-Serif" font-size="10.00" fill="grey"> outstanding</text>
</g>
<!-- Node8 -->
<g id="Node000008" class="node">
<title>Node8</title>
<g id="a_Node000008"><a xlink:href="a02238.html" target="_top" xlink:title=" ">
<polygon fill="white" stroke="#666666" points="412.62,-356.5 356.88,-356.5 356.88,-338 412.62,-338 412.62,-356.5"/>
<text text-anchor="middle" x="384.75" y="-343" font-family="Helvetica,sans-Serif" font-size="10.00">ivshmem</text>
</a>
</g>
</g>
<!-- Node8&#45;&gt;Node5 -->
<g id="edge9_Node000005_Node000008" class="edge">
<title>Node8&#45;&gt;Node5</title>
<g id="a_edge9_Node000005_Node000008"><a xlink:title=" ">
<path fill="none" stroke="#9a32cd" stroke-dasharray="5,2" d="M384.75,-326.39C384.75,-314.66 384.75,-300.44 384.75,-291.61"/>
<polygon fill="#9a32cd" stroke="#9a32cd" points="381.25,-326.24 384.75,-336.24 388.25,-326.24 381.25,-326.24"/>
</a>
</g>
<text text-anchor="middle" x="395.62" y="-310.5" font-family="Helvetica,sans-Serif" font-size="10.00" fill="grey"> regs</text>
</g>
<!-- Node9 -->
<g id="Node000009" class="node">
<title>Node9</title>
<g id="a_Node000009"><a xlink:href="a02194.html" target="_top" xlink:title=" ">
<polygon fill="white" stroke="#666666" points="624.12,-356.5 553.38,-356.5 553.38,-338 624.12,-338 624.12,-356.5"/>
<text text-anchor="middle" x="588.75" y="-343" font-family="Helvetica,sans-Serif" font-size="10.00">arch_alloc_s</text>
</a>
</g>
</g>
<!-- Node9&#45;&gt;Node4 -->
<g id="edge24_Node000004_Node000009" class="edge">
<title>Node9&#45;&gt;Node4</title>
<g id="a_edge24_Node000004_Node000009"><a xlink:title=" ">
<path fill="none" stroke="#9a32cd" stroke-dasharray="5,2" d="M603.06,-328.25C611.18,-316.22 619.75,-299.65 619.75,-283.25 619.75,-283.25 619.75,-283.25 619.75,-85 619.75,-25.91 409.67,-13.5 330.47,-10.92"/>
<polygon fill="#9a32cd" stroke="#9a32cd" points="600.24,-326.17 597.15,-336.31 605.88,-330.31 600.24,-326.17"/>
</a>
</g>
<text text-anchor="middle" x="639.62" y="-180.5" font-family="Helvetica,sans-Serif" font-size="10.00" fill="grey"> allocator</text>
</g>
<!-- Node9&#45;&gt;Node5 -->
<g id="edge10_Node000005_Node000009" class="edge">
<title>Node9&#45;&gt;Node5</title>
<g id="a_edge10_Node000005_Node000009"><a xlink:title=" ">
<path fill="none" stroke="#9a32cd" stroke-dasharray="5,2" d="M549.89,-334.25C509.91,-321.9 448.59,-302.97 413,-291.98"/>
<polygon fill="#9a32cd" stroke="#9a32cd" points="548.78,-337.57 559.37,-337.18 550.84,-330.88 548.78,-337.57"/>
</a>
</g>
<text text-anchor="middle" x="510.59" y="-310.5" font-family="Helvetica,sans-Serif" font-size="10.00" fill="grey"> alloc</text>
</g>
<!-- Node10 -->
<g id="Node000010" class="node">
<title>Node10</title>
<g id="a_Node000010"><a xlink:href="a02298.html" target="_top" xlink:title=" ">
<polygon fill="white" stroke="#666666" points="500.38,-95.25 419.12,-95.25 419.12,-76.75 500.38,-76.75 500.38,-95.25"/>
<text text-anchor="middle" x="459.75" y="-81.75" font-family="Helvetica,sans-Serif" font-size="10.00">arax_throttle_s</text>
</a>
</g>
</g>
<!-- Node10&#45;&gt;Node4 -->
<g id="edge11_Node000004_Node000010" class="edge">
<title>Node10&#45;&gt;Node4</title>
<g id="a_edge11_Node000004_Node000010"><a xlink:title=" ">
<path fill="none" stroke="#9a32cd" stroke-dasharray="5,2" d="M430.99,-71.48C398.52,-56.21 346.64,-31.82 319.18,-18.92"/>
<polygon fill="#9a32cd" stroke="#9a32cd" points="429.29,-74.55 439.83,-75.63 432.27,-68.21 429.29,-74.55"/>
</a>
</g>
<text text-anchor="middle" x="415.67" y="-42.75" font-family="Helvetica,sans-Serif" font-size="10.00" fill="grey"> throttle</text>
</g>
<!-- Node11&#45;&gt;Node4 -->
<g id="edge20_Node000004_Node000011" class="edge">
<title>Node11&#45;&gt;Node4</title>
<g id="a_edge20_Node000004_Node000011"><a xlink:title=" ">
<path fill="none" stroke="#9a32cd" stroke-dasharray="5,2" d="M401.26,-138.83C378.12,-130.26 350.76,-116.71 332.5,-96.5 311.75,-73.53 304.21,-35.84 301.78,-18.94"/>
<polygon fill="#9a32cd" stroke="#9a32cd" points="399.86,-142.05 410.46,-142.04 402.17,-135.44 399.86,-142.05"/>
</a>
</g>
<text text-anchor="middle" x="371.12" y="-87" font-family="Helvetica,sans-Serif" font-size="10.00" fill="grey"> cntrl_ready_cond</text>
<text text-anchor="middle" x="371.12" y="-76.5" font-family="Helvetica,sans-Serif" font-size="10.00" fill="grey">orphan_cond</text>
</g>
<!-- Node11&#45;&gt;Node10 -->
<g id="edge12_Node000010_Node000011" class="edge">
<title>Node11&#45;&gt;Node10</title>
<g id="a_edge12_Node000010_Node000011"><a xlink:title=" ">
<path fill="none" stroke="#9a32cd" stroke-dasharray="5,2" d="M449.39,-131.37C452.2,-119.35 455.64,-104.62 457.76,-95.53"/>
<polygon fill="#9a32cd" stroke="#9a32cd" points="445.98,-130.58 447.12,-141.11 452.8,-132.17 445.98,-130.58"/>
</a>
</g>
<text text-anchor="middle" x="466.65" y="-115.5" font-family="Helvetica,sans-Serif" font-size="10.00" fill="grey"> ready</text>
</g>
<!-- Node12&#45;&gt;Node11 -->
<g id="edge14_Node000011_Node000012" class="edge">
<title>Node12&#45;&gt;Node11</title>
<g id="a_edge14_Node000011_Node000012"><a xlink:title=" ">
<path fill="none" stroke="#9a32cd" stroke-dasharray="5,2" d="M517.47,-201.47C498.87,-189.14 473.01,-171.99 457.66,-161.81"/>
<polygon fill="#9a32cd" stroke="#9a32cd" points="515.41,-204.31 525.68,-206.92 519.28,-198.47 515.41,-204.31"/>
</a>
</g>
<text text-anchor="middle" x="512.94" y="-180.5" font-family="Helvetica,sans-Serif" font-size="10.00" fill="grey"> mutex</text>
</g>
<!-- Node13&#45;&gt;Node11 -->
<g id="edge17_Node000011_Node000013" class="edge">
<title>Node13&#45;&gt;Node11</title>
<g id="a_edge17_Node000011_Node000013"><a xlink:title=" ">
<path fill="none" stroke="#9a32cd" stroke-dasharray="5,2" d="M364.93,-197.56C368.79,-191.17 373.79,-184.4 379.75,-179.5 389.25,-171.69 401.37,-165.96 412.56,-161.88"/>
<polygon fill="#9a32cd" stroke="#9a32cd" points="361.91,-195.78 360.24,-206.25 368.07,-199.11 361.91,-195.78"/>
</a>
</g>
<text text-anchor="middle" x="405.25" y="-180.5" font-family="Helvetica,sans-Serif" font-size="10.00" fill="grey"> semaphore</text>
</g>
<!-- Node14 -->
<g id="Node000014" class="node">
<title>Node14</title>
<g id="a_Node000014"><a xlink:href="a02314.html" target="_top" xlink:title=" ">
<polygon fill="white" stroke="#666666" points="707.88,-95.25 647.62,-95.25 647.62,-76.75 707.88,-76.75 707.88,-95.25"/>
<text text-anchor="middle" x="677.75" y="-81.75" font-family="Helvetica,sans-Serif" font-size="10.00">utils_kv_s</text>
</a>
</g>
</g>
<!-- Node14&#45;&gt;Node4 -->
<g id="edge22_Node000004_Node000014" class="edge">
<title>Node14&#45;&gt;Node4</title>
<g id="a_edge22_Node000004_Node000014"><a xlink:title=" ">
<path fill="none" stroke="#9a32cd" stroke-dasharray="5,2" d="M666.5,-66.88C658.73,-56.07 647.36,-43.18 633.75,-36.5 580.85,-10.53 402.04,-9.25 330.6,-9.83"/>
<polygon fill="#9a32cd" stroke="#9a32cd" points="663.51,-68.69 671.97,-75.07 669.34,-64.81 663.51,-68.69"/>
</a>
</g>
<text text-anchor="middle" x="682.31" y="-48" font-family="Helvetica,sans-Serif" font-size="10.00" fill="grey"> ass_kv</text>
<text text-anchor="middle" x="682.31" y="-37.5" font-family="Helvetica,sans-Serif" font-size="10.00" fill="grey">metrics_kv</text>
</g>
<!-- Node15 -->
<g id="Node000015" class="node">
<title>Node15</title>
<g id="a_Node000015"><a xlink:href="a02318.html" target="_top" xlink:title=" ">
<polygon fill="white" stroke="#666666" points="694.38,-161.5 661.12,-161.5 661.12,-143 694.38,-143 694.38,-161.5"/>
<text text-anchor="middle" x="677.75" y="-148" font-family="Helvetica,sans-Serif" font-size="10.00">Pair</text>
</a>
</g>
</g>
<!-- Node15&#45;&gt;Node14 -->
<g id="edge23_Node000014_Node000015" class="edge">
<title>Node15&#45;&gt;Node14</title>
<g id="a_edge23_Node000014_Node000015"><a xlink:title=" ">
<path fill="none" stroke="#9a32cd" stroke-dasharray="5,2" d="M677.75,-131.37C677.75,-119.35 677.75,-104.62 677.75,-95.53"/>
<polygon fill="#9a32cd" stroke="#9a32cd" points="674.25,-131.07 677.75,-141.07 681.25,-131.07 674.25,-131.07"/>
</a>
</g>
<text text-anchor="middle" x="684.5" y="-115.5" font-family="Helvetica,sans-Serif" font-size="10.00" fill="grey"> kv</text>
</g>
</g>
</svg>
