<?xml version="1.0" encoding="UTF-8" standalone="no"?>
<!DOCTYPE svg PUBLIC "-//W3C//DTD SVG 1.1//EN"
 "http://www.w3.org/Graphics/SVG/1.1/DTD/svg11.dtd">
<!-- Generated by graphviz version 12.2.1 (0)
 -->
<!-- Title: arax_task_msg Pages: 1 -->
<svg width="759pt" height="508pt"
 viewBox="0.00 0.00 758.96 507.50" xmlns="http://www.w3.org/2000/svg" xmlns:xlink="http://www.w3.org/1999/xlink">
<g id="graph0" class="graph" transform="scale(1 1) rotate(0) translate(4 503.5)">
<title>arax_task_msg</title>
<!-- Node1 -->
<g id="Node000001" class="node">
<title>Node1</title>
<g id="a_Node000001"><a xlink:title=" ">
<polygon fill="#999999" stroke="#666666" points="540.75,-18.5 457.25,-18.5 457.25,0 540.75,0 540.75,-18.5"/>
<text text-anchor="middle" x="499" y="-5" font-family="Helvetica,sans-Serif" font-size="10.00">arax_task_msg</text>
</a>
</g>
</g>
<!-- Node2 -->
<g id="Node000002" class="node">
<title>Node2</title>
<g id="a_Node000002"><a xlink:href="a02286.html" target="_top" xlink:title=" ">
<polygon fill="white" stroke="#666666" points="81.75,-83.5 4.25,-83.5 4.25,-65 81.75,-65 81.75,-83.5"/>
<text text-anchor="middle" x="43" y="-70" font-family="Helvetica,sans-Serif" font-size="10.00">arax_object_s</text>
</a>
</g>
</g>
<!-- Node2&#45;&gt;Node1 -->
<g id="edge1_Node000001_Node000002" class="edge">
<title>Node2&#45;&gt;Node1</title>
<g id="a_edge1_Node000001_Node000002"><a xlink:title=" ">
<path fill="none" stroke="#9a32cd" stroke-dasharray="5,2" d="M93.2,-66.31C183.72,-53.81 372.72,-27.7 456.94,-16.06"/>
<polygon fill="#9a32cd" stroke="#9a32cd" points="92.8,-62.84 83.38,-67.67 93.76,-69.77 92.8,-62.84"/>
</a>
</g>
<text text-anchor="middle" x="306.18" y="-37.5" font-family="Helvetica,sans-Serif" font-size="10.00" fill="grey"> obj</text>
</g>
<!-- Node3 -->
<g id="Node000003" class="node">
<title>Node3</title>
<g id="a_Node000003"><a xlink:href="a02278.html" target="_top" xlink:title=" ">
<polygon fill="white" stroke="#666666" points="129.75,-170.75 28.25,-170.75 28.25,-152.25 129.75,-152.25 129.75,-170.75"/>
<text text-anchor="middle" x="79" y="-157.25" font-family="Helvetica,sans-Serif" font-size="10.00">arax_object_repo_s</text>
</a>
</g>
</g>
<!-- Node3&#45;&gt;Node2 -->
<g id="edge2_Node000002_Node000003" class="edge">
<title>Node3&#45;&gt;Node2</title>
<g id="a_edge2_Node000002_Node000003"><a xlink:title=" ">
<path fill="none" stroke="#9a32cd" stroke-dasharray="5,2" d="M53.4,-144.76C49.72,-141.35 46.45,-137.42 44.25,-133 36.3,-117.02 38.8,-95.34 41.06,-83.62"/>
<polygon fill="#9a32cd" stroke="#9a32cd" points="51.15,-147.44 61.2,-150.82 55.45,-141.92 51.15,-147.44"/>
</a>
</g>
<text text-anchor="middle" x="55.12" y="-113" font-family="Helvetica,sans-Serif" font-size="10.00" fill="grey"> repo</text>
</g>
<!-- Node4 -->
<g id="Node000004" class="node">
<title>Node4</title>
<g id="a_Node000004"><a xlink:href="a02338.html" target="_top" xlink:title=" ">
<polygon fill="white" stroke="#666666" points="303.38,-83.5 244.62,-83.5 244.62,-65 303.38,-65 303.38,-83.5"/>
<text text-anchor="middle" x="274" y="-70" font-family="Helvetica,sans-Serif" font-size="10.00">arax_pipe</text>
</a>
</g>
</g>
<!-- Node3&#45;&gt;Node4 -->
<g id="edge4_Node000004_Node000003" class="edge">
<title>Node3&#45;&gt;Node4</title>
<g id="a_edge4_Node000004_Node000003"><a xlink:title=" ">
<path fill="none" stroke="#9a32cd" stroke-dasharray="5,2" d="M97.33,-144.28C101.5,-140.58 105.91,-136.66 110,-133 125.61,-119.06 126.31,-110.92 145,-101.5 176.64,-85.56 217.25,-79.3 244.38,-76.84"/>
<polygon fill="#9a32cd" stroke="#9a32cd" points="95.08,-141.59 89.92,-150.84 99.73,-146.83 95.08,-141.59"/>
</a>
</g>
<text text-anchor="middle" x="155.5" y="-113" font-family="Helvetica,sans-Serif" font-size="10.00" fill="grey"> objs</text>
</g>
<!-- Node4&#45;&gt;Node1 -->
<g id="edge27_Node000001_Node000004" class="edge">
<title>Node4&#45;&gt;Node1</title>
<g id="a_edge27_Node000001_Node000004"><a xlink:title=" ">
<path fill="none" stroke="#9a32cd" stroke-dasharray="5,2" d="M314.28,-61.97C358.26,-49.66 427.74,-30.2 467.77,-18.99"/>
<polygon fill="#9a32cd" stroke="#9a32cd" points="313.56,-58.54 304.87,-64.61 315.45,-65.28 313.56,-58.54"/>
</a>
</g>
<text text-anchor="middle" x="410.47" y="-37.5" font-family="Helvetica,sans-Serif" font-size="10.00" fill="grey"> pipe</text>
</g>
<!-- Node4&#45;&gt;Node3 -->
<g id="edge3_Node000003_Node000004" class="edge">
<title>Node4&#45;&gt;Node3</title>
<g id="a_edge3_Node000003_Node000004"><a xlink:title=" ">
<path fill="none" stroke="#9a32cd" stroke-dasharray="5,2" d="M232.85,-75.61C184.66,-76.95 108.86,-82.16 89,-101.5 75.45,-114.69 76.11,-138.95 77.63,-151.87"/>
<polygon fill="#9a32cd" stroke="#9a32cd" points="232.73,-79.12 242.65,-75.39 232.57,-72.12 232.73,-79.12"/>
</a>
</g>
<text text-anchor="middle" x="99.5" y="-113" font-family="Helvetica,sans-Serif" font-size="10.00" fill="grey"> pipe</text>
</g>
<!-- Node5 -->
<g id="Node000005" class="node">
<title>Node5</title>
<g id="a_Node000005"><a xlink:href="a02242.html" target="_top" xlink:title=" ">
<polygon fill="white" stroke="#666666" points="444.5,-367 365.5,-367 365.5,-348.5 444.5,-348.5 444.5,-367"/>
<text text-anchor="middle" x="405" y="-353.5" font-family="Helvetica,sans-Serif" font-size="10.00">async_meta_s</text>
</a>
</g>
</g>
<!-- Node5&#45;&gt;Node4 -->
<g id="edge5_Node000004_Node000005" class="edge">
<title>Node5&#45;&gt;Node4</title>
<g id="a_edge5_Node000004_Node000005"><a xlink:title=" ">
<path fill="none" stroke="#9a32cd" stroke-dasharray="5,2" d="M382.01,-341.61C368.8,-331.79 352.91,-317.88 343,-302 294.11,-223.59 322.17,-187.35 288,-101.5 285.55,-95.36 282.05,-88.8 279.17,-83.77"/>
<polygon fill="#9a32cd" stroke="#9a32cd" points="379.62,-344.21 389.81,-347.13 383.67,-338.5 379.62,-344.21"/>
</a>
</g>
<text text-anchor="middle" x="329.25" y="-223.5" font-family="Helvetica,sans-Serif" font-size="10.00" fill="grey"> async</text>
</g>
<!-- Node11 -->
<g id="Node000011" class="node">
<title>Node11</title>
<g id="a_Node000011"><a xlink:href="a02254.html" target="_top" xlink:title=" ">
<polygon fill="white" stroke="#666666" points="542.12,-237 445.88,-237 445.88,-218.5 542.12,-218.5 542.12,-237"/>
<text text-anchor="middle" x="494" y="-223.5" font-family="Helvetica,sans-Serif" font-size="10.00">async_condition_s</text>
</a>
</g>
</g>
<!-- Node5&#45;&gt;Node11 -->
<g id="edge13_Node000011_Node000005" class="edge">
<title>Node5&#45;&gt;Node11</title>
<g id="a_edge13_Node000011_Node000005"><a xlink:title=" ">
<path fill="none" stroke="#9a32cd" stroke-dasharray="5,2" d="M427.4,-341.37C440.46,-331.43 456.4,-317.49 467,-302 481.39,-280.97 489.21,-251.33 492.34,-237.06"/>
<polygon fill="#9a32cd" stroke="#9a32cd" points="425.35,-338.53 419.34,-347.26 429.48,-344.19 425.35,-338.53"/>
</a>
</g>
<text text-anchor="middle" x="489.21" y="-288.5" font-family="Helvetica,sans-Serif" font-size="10.00" fill="grey"> meta</text>
</g>
<!-- Node12 -->
<g id="Node000012" class="node">
<title>Node12</title>
<g id="a_Node000012"><a xlink:href="a02246.html" target="_top" xlink:title=" ">
<polygon fill="white" stroke="#666666" points="641.25,-302 536.75,-302 536.75,-283.5 641.25,-283.5 641.25,-302"/>
<text text-anchor="middle" x="589" y="-288.5" font-family="Helvetica,sans-Serif" font-size="10.00">async_completion_s</text>
</a>
</g>
</g>
<!-- Node5&#45;&gt;Node12 -->
<g id="edge15_Node000012_Node000005" class="edge">
<title>Node5&#45;&gt;Node12</title>
<g id="a_edge15_Node000012_Node000005"><a xlink:title=" ">
<path fill="none" stroke="#9a32cd" stroke-dasharray="5,2" d="M455.4,-345.79C472.31,-341.61 491.15,-336.42 508,-330.5 530.87,-322.47 556.16,-310.46 572.29,-302.38"/>
<polygon fill="#9a32cd" stroke="#9a32cd" points="454.99,-342.29 446.08,-348.03 456.63,-349.09 454.99,-342.29"/>
</a>
</g>
<text text-anchor="middle" x="545.39" y="-321" font-family="Helvetica,sans-Serif" font-size="10.00" fill="grey"> meta</text>
</g>
<!-- Node13 -->
<g id="Node000013" class="node">
<title>Node13</title>
<g id="a_Node000013"><a xlink:href="a02250.html" target="_top" xlink:title=" ">
<polygon fill="white" stroke="#666666" points="457.62,-302 352.38,-302 352.38,-283.5 457.62,-283.5 457.62,-302"/>
<text text-anchor="middle" x="405" y="-288.5" font-family="Helvetica,sans-Serif" font-size="10.00">async_semaphore_s</text>
</a>
</g>
</g>
<!-- Node5&#45;&gt;Node13 -->
<g id="edge18_Node000013_Node000005" class="edge">
<title>Node5&#45;&gt;Node13</title>
<g id="a_edge18_Node000013_Node000005"><a xlink:title=" ">
<path fill="none" stroke="#9a32cd" stroke-dasharray="5,2" d="M405,-336.89C405,-325.16 405,-310.94 405,-302.11"/>
<polygon fill="#9a32cd" stroke="#9a32cd" points="401.5,-336.74 405,-346.74 408.5,-336.74 401.5,-336.74"/>
</a>
</g>
<text text-anchor="middle" x="417.38" y="-321" font-family="Helvetica,sans-Serif" font-size="10.00" fill="grey"> meta</text>
</g>
<!-- Node6 -->
<g id="Node000006" class="node">
<title>Node6</title>
<g id="a_Node000006"><a xlink:href="a02326.html" target="_top" xlink:title=" ">
<polygon fill="white" stroke="#666666" points="237.25,-432 174.75,-432 174.75,-413.5 237.25,-413.5 237.25,-432"/>
<text text-anchor="middle" x="206" y="-418.5" font-family="Helvetica,sans-Serif" font-size="10.00">utils_list_s</text>
</a>
</g>
</g>
<!-- Node6&#45;&gt;Node3 -->
<g id="edge25_Node000003_Node000006" class="edge">
<title>Node6&#45;&gt;Node3</title>
<g id="a_edge25_Node000003_Node000006"><a xlink:title=" ">
<path fill="none" stroke="#9a32cd" stroke-dasharray="5,2" d="M163.37,-412.48C136.17,-403.77 106,-387.61 106,-358.75 106,-358.75 106,-358.75 106,-226.75 106,-205.46 93.24,-183.07 85.26,-171.16"/>
<polygon fill="#9a32cd" stroke="#9a32cd" points="162.33,-415.82 172.91,-415.24 164.28,-409.1 162.33,-415.82"/>
</a>
</g>
<text text-anchor="middle" x="113.88" y="-288.5" font-family="Helvetica,sans-Serif" font-size="10.00" fill="grey"> list</text>
</g>
<!-- Node6&#45;&gt;Node4 -->
<g id="edge21_Node000004_Node000006" class="edge">
<title>Node6&#45;&gt;Node4</title>
<g id="a_edge21_Node000004_Node000006"><a xlink:title=" ">
<path fill="none" stroke="#9a32cd" stroke-dasharray="5,2" d="M200.36,-402.13C192.19,-370.54 179.52,-306.73 193.5,-255 195.92,-246.06 199.82,-245.26 204,-237 232.86,-179.93 261.25,-108.24 270.71,-83.83"/>
<polygon fill="#9a32cd" stroke="#9a32cd" points="196.98,-403.05 202.99,-411.77 203.73,-401.2 196.98,-403.05"/>
</a>
</g>
<text text-anchor="middle" x="222.75" y="-256" font-family="Helvetica,sans-Serif" font-size="10.00" fill="grey"> orphan_vacs</text>
</g>
<!-- Node6&#45;&gt;Node5 -->
<g id="edge6_Node000005_Node000006" class="edge">
<title>Node6&#45;&gt;Node5</title>
<g id="a_edge6_Node000005_Node000006"><a xlink:title=" ">
<path fill="none" stroke="#9a32cd" stroke-dasharray="5,2" d="M237.17,-408.72C255.73,-401.23 279.87,-391.96 301.75,-385 322.9,-378.28 346.91,-372.09 366.45,-367.41"/>
<polygon fill="#9a32cd" stroke="#9a32cd" points="236.01,-405.41 228.07,-412.43 238.65,-411.89 236.01,-405.41"/>
</a>
</g>
<text text-anchor="middle" x="328.38" y="-386" font-family="Helvetica,sans-Serif" font-size="10.00" fill="grey"> outstanding</text>
</g>
<!-- Node6&#45;&gt;Node13 -->
<g id="edge19_Node000013_Node000006" class="edge">
<title>Node6&#45;&gt;Node13</title>
<g id="a_edge19_Node000013_Node000006"><a xlink:title=" ">
<path fill="none" stroke="#9a32cd" stroke-dasharray="5,2" d="M225.1,-405.75C244.05,-390.23 274.25,-366.45 302.25,-348.5 330.67,-330.28 365.73,-312.53 386.68,-302.4"/>
<polygon fill="#9a32cd" stroke="#9a32cd" points="222.92,-403.01 217.44,-412.08 227.38,-408.4 222.92,-403.01"/>
</a>
</g>
<text text-anchor="middle" x="329.62" y="-353.5" font-family="Helvetica,sans-Serif" font-size="10.00" fill="grey"> pending_list</text>
</g>
<!-- Node7 -->
<g id="Node000007" class="node">
<title>Node7</title>
<g id="a_Node000007"><a xlink:href="a02322.html" target="_top" xlink:title=" ">
<polygon fill="white" stroke="#666666" points="245.12,-498.25 166.88,-498.25 166.88,-479.75 245.12,-479.75 245.12,-498.25"/>
<text text-anchor="middle" x="206" y="-484.75" font-family="Helvetica,sans-Serif" font-size="10.00">utils_list_node</text>
</a>
</g>
</g>
<!-- Node7&#45;&gt;Node2 -->
<g id="edge26_Node000002_Node000007" class="edge">
<title>Node7&#45;&gt;Node2</title>
<g id="a_edge26_Node000002_Node000007"><a xlink:title=" ">
<path fill="none" stroke="#9a32cd" stroke-dasharray="5,2" d="M155.43,-482.38C94.43,-474.17 0,-456.22 0,-423.75 0,-423.75 0,-423.75 0,-160.5 0,-129.67 22.7,-98.64 35.11,-83.97"/>
<polygon fill="#9a32cd" stroke="#9a32cd" points="154.9,-485.85 165.27,-483.66 155.8,-478.9 154.9,-485.85"/>
</a>
</g>
<text text-anchor="middle" x="7.88" y="-288.5" font-family="Helvetica,sans-Serif" font-size="10.00" fill="grey"> list</text>
</g>
<!-- Node7&#45;&gt;Node6 -->
<g id="edge7_Node000006_Node000007" class="edge">
<title>Node7&#45;&gt;Node6</title>
<g id="a_edge7_Node000006_Node000007"><a xlink:title=" ">
<path fill="none" stroke="#9a32cd" stroke-dasharray="5,2" d="M206,-468.12C206,-456.1 206,-441.37 206,-432.28"/>
<polygon fill="#9a32cd" stroke="#9a32cd" points="202.5,-467.82 206,-477.82 209.5,-467.82 202.5,-467.82"/>
</a>
</g>
<text text-anchor="middle" x="218" y="-451" font-family="Helvetica,sans-Serif" font-size="10.00" fill="grey"> head</text>
</g>
<!-- Node7&#45;&gt;Node7 -->
<g id="edge8_Node000007_Node000007" class="edge">
<title>Node7&#45;&gt;Node7</title>
<g id="a_edge8_Node000007_Node000007"><a xlink:title=" ">
<path fill="none" stroke="#9a32cd" stroke-dasharray="5,2" d="M256.85,-493.75C260.74,-492.7 263.12,-491.11 263.12,-489 263.12,-485.24 255.57,-483.16 245.51,-482.75"/>
<polygon fill="#9a32cd" stroke="#9a32cd" points="256.47,-490.27 247.01,-495.05 257.39,-497.21 256.47,-490.27"/>
</a>
</g>
<text text-anchor="middle" x="274" y="-490" font-family="Helvetica,sans-Serif" font-size="10.00" fill="grey"> next</text>
<text text-anchor="middle" x="274" y="-479.5" font-family="Helvetica,sans-Serif" font-size="10.00" fill="grey">prev</text>
</g>
<!-- Node7&#45;&gt;Node12 -->
<g id="edge16_Node000012_Node000007" class="edge">
<title>Node7&#45;&gt;Node12</title>
<g id="a_edge16_Node000012_Node000007"><a xlink:title=" ">
<path fill="none" stroke="#9a32cd" stroke-dasharray="5,2" d="M256.87,-482.88C306.33,-476.34 382.49,-462.04 442,-432 504.36,-400.52 514.33,-381.55 562,-330.5 570.32,-321.59 578.4,-310.1 583.52,-302.36"/>
<polygon fill="#9a32cd" stroke="#9a32cd" points="256.5,-479.4 247.02,-484.12 257.38,-486.35 256.5,-479.4"/>
</a>
</g>
<text text-anchor="middle" x="537.85" y="-386" font-family="Helvetica,sans-Serif" font-size="10.00" fill="grey"> outstanding</text>
</g>
<!-- Node8 -->
<g id="Node000008" class="node">
<title>Node8</title>
<g id="a_Node000008"><a xlink:href="a02238.html" target="_top" xlink:title=" ">
<polygon fill="white" stroke="#666666" points="432.88,-432 377.12,-432 377.12,-413.5 432.88,-413.5 432.88,-432"/>
<text text-anchor="middle" x="405" y="-418.5" font-family="Helvetica,sans-Serif" font-size="10.00">ivshmem</text>
</a>
</g>
</g>
<!-- Node8&#45;&gt;Node5 -->
<g id="edge9_Node000005_Node000008" class="edge">
<title>Node8&#45;&gt;Node5</title>
<g id="a_edge9_Node000005_Node000008"><a xlink:title=" ">
<path fill="none" stroke="#9a32cd" stroke-dasharray="5,2" d="M405,-401.89C405,-390.16 405,-375.94 405,-367.11"/>
<polygon fill="#9a32cd" stroke="#9a32cd" points="401.5,-401.74 405,-411.74 408.5,-401.74 401.5,-401.74"/>
</a>
</g>
<text text-anchor="middle" x="415.88" y="-386" font-family="Helvetica,sans-Serif" font-size="10.00" fill="grey"> regs</text>
</g>
<!-- Node9 -->
<g id="Node000009" class="node">
<title>Node9</title>
<g id="a_Node000009"><a xlink:href="a02194.html" target="_top" xlink:title=" ">
<polygon fill="white" stroke="#666666" points="358.38,-432 287.62,-432 287.62,-413.5 358.38,-413.5 358.38,-432"/>
<text text-anchor="middle" x="323" y="-418.5" font-family="Helvetica,sans-Serif" font-size="10.00">arch_alloc_s</text>
</a>
</g>
</g>
<!-- Node9&#45;&gt;Node4 -->
<g id="edge24_Node000004_Node000009" class="edge">
<title>Node9&#45;&gt;Node4</title>
<g id="a_edge24_Node000004_Node000009"><a xlink:title=" ">
<path fill="none" stroke="#9a32cd" stroke-dasharray="5,2" d="M320.93,-402.34C318.87,-387.26 314.98,-366.03 308,-348.5 297.41,-321.89 274,-322.39 274,-293.75 274,-293.75 274,-293.75 274,-160.5 274,-132.38 274,-99.04 274,-83.72"/>
<polygon fill="#9a32cd" stroke="#9a32cd" points="317.4,-402.33 322.07,-411.84 324.35,-401.5 317.4,-402.33"/>
</a>
</g>
<text text-anchor="middle" x="293.88" y="-256" font-family="Helvetica,sans-Serif" font-size="10.00" fill="grey"> allocator</text>
</g>
<!-- Node9&#45;&gt;Node5 -->
<g id="edge10_Node000005_Node000009" class="edge">
<title>Node9&#45;&gt;Node5</title>
<g id="a_edge10_Node000005_Node000009"><a xlink:title=" ">
<path fill="none" stroke="#9a32cd" stroke-dasharray="5,2" d="M343.13,-406.28C359.11,-394.01 380.86,-377.3 393.85,-367.31"/>
<polygon fill="#9a32cd" stroke="#9a32cd" points="341.06,-403.46 335.26,-412.33 345.32,-409.01 341.06,-403.46"/>
</a>
</g>
<text text-anchor="middle" x="380.53" y="-386" font-family="Helvetica,sans-Serif" font-size="10.00" fill="grey"> alloc</text>
</g>
<!-- Node10 -->
<g id="Node000010" class="node">
<title>Node10</title>
<g id="a_Node000010"><a xlink:href="a02298.html" target="_top" xlink:title=" ">
<polygon fill="white" stroke="#666666" points="542.62,-170.75 461.38,-170.75 461.38,-152.25 542.62,-152.25 542.62,-170.75"/>
<text text-anchor="middle" x="502" y="-157.25" font-family="Helvetica,sans-Serif" font-size="10.00">arax_throttle_s</text>
</a>
</g>
</g>
<!-- Node10&#45;&gt;Node4 -->
<g id="edge11_Node000004_Node000010" class="edge">
<title>Node10&#45;&gt;Node4</title>
<g id="a_edge11_Node000004_Node000010"><a xlink:title=" ">
<path fill="none" stroke="#9a32cd" stroke-dasharray="5,2" d="M476.87,-146.43C452.66,-133.35 414.7,-114.03 380,-101.5 354.86,-92.42 325.26,-85.38 303.73,-80.88"/>
<polygon fill="#9a32cd" stroke="#9a32cd" points="474.88,-149.33 485.33,-151.06 478.24,-143.19 474.88,-149.33"/>
</a>
</g>
<text text-anchor="middle" x="467" y="-113" font-family="Helvetica,sans-Serif" font-size="10.00" fill="grey"> throttle</text>
</g>
<!-- Node11&#45;&gt;Node4 -->
<g id="edge20_Node000004_Node000011" class="edge">
<title>Node11&#45;&gt;Node4</title>
<g id="a_edge20_Node000004_Node000011"><a xlink:title=" ">
<path fill="none" stroke="#9a32cd" stroke-dasharray="5,2" d="M451.24,-214.35C426.69,-205.58 396.52,-191.82 374.75,-172 347.99,-147.64 360.98,-125.62 334,-101.5 325.35,-93.77 314.07,-88.03 303.63,-83.93"/>
<polygon fill="#9a32cd" stroke="#9a32cd" points="450.04,-217.64 460.64,-217.54 452.3,-211.01 450.04,-217.64"/>
</a>
</g>
<text text-anchor="middle" x="413.38" y="-162.5" font-family="Helvetica,sans-Serif" font-size="10.00" fill="grey"> cntrl_ready_cond</text>
<text text-anchor="middle" x="413.38" y="-152" font-family="Helvetica,sans-Serif" font-size="10.00" fill="grey">orphan_cond</text>
</g>
<!-- Node11&#45;&gt;Node10 -->
<g id="edge12_Node000010_Node000011" class="edge">
<title>Node11&#45;&gt;Node10</title>
<g id="a_edge12_Node000010_Node000011"><a xlink:title=" ">
<path fill="none" stroke="#9a32cd" stroke-dasharray="5,2" d="M496.47,-206.87C497.97,-194.85 499.81,-180.12 500.94,-171.03"/>
<polygon fill="#9a32cd" stroke="#9a32cd" points="493.03,-206.23 495.27,-216.58 499.97,-207.09 493.03,-206.23"/>
</a>
</g>
<text text-anchor="middle" x="511.98" y="-191" font-family="Helvetica,sans-Serif" font-size="10.00" fill="grey"> ready</text>
</g>
<!-- Node12&#45;&gt;Node1 -->
<g id="edge30_Node000001_Node000012" class="edge">
<title>Node12&#45;&gt;Node1</title>
<g id="a_edge30_Node000001_Node000012"><a xlink:title=" ">
<path fill="none" stroke="#9a32cd" stroke-dasharray="5,2" d="M584.24,-272.05C581.66,-259.69 579,-243.38 579,-228.75 579,-228.75 579,-228.75 579,-73.25 579,-45.67 549.29,-28.31 526.08,-18.95"/>
<polygon fill="#9a32cd" stroke="#9a32cd" points="580.82,-272.8 586.45,-281.78 587.65,-271.26 580.82,-272.8"/>
</a>
</g>
<text text-anchor="middle" x="591" y="-157.25" font-family="Helvetica,sans-Serif" font-size="10.00" fill="grey"> done</text>
</g>
<!-- Node12&#45;&gt;Node11 -->
<g id="edge14_Node000011_Node000012" class="edge">
<title>Node12&#45;&gt;Node11</title>
<g id="a_edge14_Node000011_Node000012"><a xlink:title=" ">
<path fill="none" stroke="#9a32cd" stroke-dasharray="5,2" d="M557.4,-278.21C549.83,-274.48 541.94,-270.16 535,-265.5 522.62,-257.18 510.11,-245.36 502.21,-237.38"/>
<polygon fill="#9a32cd" stroke="#9a32cd" points="555.83,-281.34 566.37,-282.43 558.81,-275.01 555.83,-281.34"/>
</a>
</g>
<text text-anchor="middle" x="550" y="-256" font-family="Helvetica,sans-Serif" font-size="10.00" fill="grey"> mutex</text>
</g>
<!-- Node13&#45;&gt;Node11 -->
<g id="edge17_Node000011_Node000013" class="edge">
<title>Node13&#45;&gt;Node11</title>
<g id="a_edge17_Node000011_Node000013"><a xlink:title=" ">
<path fill="none" stroke="#9a32cd" stroke-dasharray="5,2" d="M414.18,-273.06C418.04,-266.67 423.04,-259.9 429,-255 438.5,-247.19 450.62,-241.46 461.81,-237.38"/>
<polygon fill="#9a32cd" stroke="#9a32cd" points="411.16,-271.28 409.49,-281.75 417.32,-274.61 411.16,-271.28"/>
</a>
</g>
<text text-anchor="middle" x="454.5" y="-256" font-family="Helvetica,sans-Serif" font-size="10.00" fill="grey"> semaphore</text>
</g>
<!-- Node14 -->
<g id="Node000014" class="node">
<title>Node14</title>
<g id="a_Node000014"><a xlink:href="a02314.html" target="_top" xlink:title=" ">
<polygon fill="white" stroke="#666666" points="208.12,-170.75 147.88,-170.75 147.88,-152.25 208.12,-152.25 208.12,-170.75"/>
<text text-anchor="middle" x="178" y="-157.25" font-family="Helvetica,sans-Serif" font-size="10.00">utils_kv_s</text>
</a>
</g>
</g>
<!-- Node14&#45;&gt;Node4 -->
<g id="edge22_Node000004_Node000014" class="edge">
<title>Node14&#45;&gt;Node4</title>
<g id="a_edge22_Node000004_Node000014"><a xlink:title=" ">
<path fill="none" stroke="#9a32cd" stroke-dasharray="5,2" d="M171.91,-140.78C169.33,-128.29 168.59,-112.48 177,-101.5 185.22,-90.76 219.04,-83.4 244.46,-79.27"/>
<polygon fill="#9a32cd" stroke="#9a32cd" points="168.51,-141.62 174.44,-150.4 175.28,-139.83 168.51,-141.62"/>
</a>
</g>
<text text-anchor="middle" x="201" y="-118.25" font-family="Helvetica,sans-Serif" font-size="10.00" fill="grey"> ass_kv</text>
<text text-anchor="middle" x="201" y="-107.75" font-family="Helvetica,sans-Serif" font-size="10.00" fill="grey">metrics_kv</text>
</g>
<!-- Node15 -->
<g id="Node000015" class="node">
<title>Node15</title>
<g id="a_Node000015"><a xlink:href="a02318.html" target="_top" xlink:title=" ">
<polygon fill="white" stroke="#666666" points="194.62,-237 161.38,-237 161.38,-218.5 194.62,-218.5 194.62,-237"/>
<text text-anchor="middle" x="178" y="-223.5" font-family="Helvetica,sans-Serif" font-size="10.00">Pair</text>
</a>
</g>
</g>
<!-- Node15&#45;&gt;Node14 -->
<g id="edge23_Node000014_Node000015" class="edge">
<title>Node15&#45;&gt;Node14</title>
<g id="a_edge23_Node000014_Node000015"><a xlink:title=" ">
<path fill="none" stroke="#9a32cd" stroke-dasharray="5,2" d="M178,-206.87C178,-194.85 178,-180.12 178,-171.03"/>
<polygon fill="#9a32cd" stroke="#9a32cd" points="174.5,-206.57 178,-216.57 181.5,-206.57 174.5,-206.57"/>
</a>
</g>
<text text-anchor="middle" x="184.75" y="-191" font-family="Helvetica,sans-Serif" font-size="10.00" fill="grey"> kv</text>
</g>
<!-- Node16 -->
<g id="Node000016" class="node">
<title>Node16</title>
<g id="a_Node000016"><a xlink:href="a02350.html" target="_top" xlink:title=" ">
<polygon fill="white" stroke="#666666" points="696.25,-83.5 609.75,-83.5 609.75,-65 696.25,-65 696.25,-83.5"/>
<text text-anchor="middle" x="653" y="-70" font-family="Helvetica,sans-Serif" font-size="10.00">arax_task_stats</text>
</a>
</g>
</g>
<!-- Node16&#45;&gt;Node1 -->
<g id="edge28_Node000001_Node000016" class="edge">
<title>Node16&#45;&gt;Node1</title>
<g id="a_edge28_Node000001_Node000016"><a xlink:title=" ">
<path fill="none" stroke="#9a32cd" stroke-dasharray="5,2" d="M631.84,-58.29C620.69,-50.93 606.55,-42.4 593,-36.5 576.07,-29.12 556.51,-23.27 539.64,-18.98"/>
<polygon fill="#9a32cd" stroke="#9a32cd" points="629.64,-61.03 639.88,-63.76 633.58,-55.24 629.64,-61.03"/>
</a>
</g>
<text text-anchor="middle" x="624.32" y="-37.5" font-family="Helvetica,sans-Serif" font-size="10.00" fill="grey"> stats</text>
</g>
<!-- Node17 -->
<g id="Node000017" class="node">
<title>Node17</title>
<g id="a_Node000017"><a xlink:href="a02346.html" target="_top" xlink:title=" ">
<polygon fill="white" stroke="#666666" points="692.75,-170.75 621.25,-170.75 621.25,-152.25 692.75,-152.25 692.75,-170.75"/>
<text text-anchor="middle" x="657" y="-157.25" font-family="Helvetica,sans-Serif" font-size="10.00">utils_timer_s</text>
</a>
</g>
</g>
<!-- Node17&#45;&gt;Node16 -->
<g id="edge29_Node000016_Node000017" class="edge">
<title>Node17&#45;&gt;Node16</title>
<g id="a_edge29_Node000016_Node000017"><a xlink:title=" ">
<path fill="none" stroke="#9a32cd" stroke-dasharray="5,2" d="M656.06,-140.52C655.22,-122.48 654.01,-96.83 653.4,-83.7"/>
<polygon fill="#9a32cd" stroke="#9a32cd" points="652.57,-140.68 656.53,-150.5 659.56,-140.35 652.57,-140.68"/>
</a>
</g>
<text text-anchor="middle" x="703.33" y="-123.5" font-family="Helvetica,sans-Serif" font-size="10.00" fill="grey"> task_duration</text>
<text text-anchor="start" x="655.71" y="-113" font-family="Helvetica,sans-Serif" font-size="10.00" fill="grey">task_duration_without</text>
<text text-anchor="middle" x="703.33" y="-102.5" font-family="Helvetica,sans-Serif" font-size="10.00" fill="grey">_issue</text>
</g>
</g>
</svg>
