<?xml version="1.0" encoding="UTF-8" standalone="no"?>
<!DOCTYPE svg PUBLIC "-//W3C//DTD SVG 1.1//EN"
 "http://www.w3.org/Graphics/SVG/1.1/DTD/svg11.dtd">
<!-- Generated by graphviz version 8.0.5 (0)
 -->
<!-- Title: arax_proc_s Pages: 1 -->
<svg width="716pt" height="432pt"
 viewBox="0.00 0.00 715.88 432.00" xmlns="http://www.w3.org/2000/svg" xmlns:xlink="http://www.w3.org/1999/xlink">
<g id="graph0" class="graph" transform="scale(1 1) rotate(0) translate(4 428)">
<title>arax_proc_s</title>
<!-- Node1 -->
<g id="Node000001" class="node">
<title>Node1</title>
<g id="a_Node000001"><a xlink:title=" ">
<polygon fill="#999999" stroke="#666666" points="72.75,-161.5 2.75,-161.5 2.75,-143 72.75,-143 72.75,-161.5"/>
<text text-anchor="middle" x="37.75" y="-148" font-family="Helvetica,sans-Serif" font-size="10.00">arax_proc_s</text>
</a>
</g>
</g>
<!-- Node2 -->
<g id="Node000002" class="node">
<title>Node2</title>
<g id="a_Node000002"><a xlink:href="a02274.html" target="_top" xlink:title=" ">
<polygon fill="white" stroke="#666666" points="77.5,-226.5 0,-226.5 0,-208 77.5,-208 77.5,-226.5"/>
<text text-anchor="middle" x="38.75" y="-213" font-family="Helvetica,sans-Serif" font-size="10.00">arax_object_s</text>
</a>
</g>
</g>
<!-- Node2&#45;&gt;Node1 -->
<g id="edge1_Node000001_Node000002" class="edge">
<title>Node2&#45;&gt;Node1</title>
<g id="a_edge1_Node000001_Node000002"><a xlink:title=" ">
<path fill="none" stroke="#9a32cd" stroke-dasharray="5,2" d="M38.44,-196.76C38.25,-184.97 38.02,-170.53 37.88,-161.61"/>
<polygon fill="#9a32cd" stroke="#9a32cd" points="34.96,-196.81 38.62,-206.75 41.96,-196.7 34.96,-196.81"/>
</a>
</g>
<text text-anchor="middle" x="46.62" y="-180.5" font-family="Helvetica,sans-Serif" font-size="10.00" fill="grey"> obj</text>
</g>
<!-- Node3 -->
<g id="Node000003" class="node">
<title>Node3</title>
<g id="a_Node000003"><a xlink:href="a02266.html" target="_top" xlink:title=" ">
<polygon fill="white" stroke="#666666" points="172.5,-291.5 71,-291.5 71,-273 172.5,-273 172.5,-291.5"/>
<text text-anchor="middle" x="121.75" y="-278" font-family="Helvetica,sans-Serif" font-size="10.00">arax_object_repo_s</text>
</a>
</g>
</g>
<!-- Node3&#45;&gt;Node2 -->
<g id="edge2_Node000002_Node000003" class="edge">
<title>Node3&#45;&gt;Node2</title>
<g id="a_edge2_Node000002_Node000003"><a xlink:title=" ">
<path fill="none" stroke="#9a32cd" stroke-dasharray="5,2" d="M92.76,-267.65C86.01,-263.95 79.03,-259.66 73,-255 62.23,-246.69 51.87,-234.86 45.41,-226.89"/>
<polygon fill="#9a32cd" stroke="#9a32cd" points="90.86,-271.13 101.35,-272.63 94.09,-264.92 90.86,-271.13"/>
</a>
</g>
<text text-anchor="middle" x="84.62" y="-245.5" font-family="Helvetica,sans-Serif" font-size="10.00" fill="grey"> repo</text>
</g>
<!-- Node4 -->
<g id="Node000004" class="node">
<title>Node4</title>
<g id="a_Node000004"><a xlink:href="a02326.html" target="_top" xlink:title=" ">
<polygon fill="white" stroke="#666666" points="330.12,-18.5 271.38,-18.5 271.38,0 330.12,0 330.12,-18.5"/>
<text text-anchor="middle" x="300.75" y="-5" font-family="Helvetica,sans-Serif" font-size="10.00">arax_pipe</text>
</a>
</g>
</g>
<!-- Node3&#45;&gt;Node4 -->
<g id="edge4_Node000004_Node000003" class="edge">
<title>Node3&#45;&gt;Node4</title>
<g id="a_edge4_Node000004_Node000003"><a xlink:title=" ">
<path fill="none" stroke="#9a32cd" stroke-dasharray="5,2" d="M115.77,-262.41C112.36,-249.99 108.75,-233.31 108.75,-218.25 108.75,-218.25 108.75,-218.25 108.75,-85 108.75,-49.66 139.61,-51.18 171.75,-36.5 203.77,-21.88 243.94,-15.35 270.88,-12.47"/>
<polygon fill="#9a32cd" stroke="#9a32cd" points="112.66,-263.22 118.86,-271.8 119.37,-261.22 112.66,-263.22"/>
</a>
</g>
<text text-anchor="middle" x="119.25" y="-148" font-family="Helvetica,sans-Serif" font-size="10.00" fill="grey"> objs</text>
</g>
<!-- Node4&#45;&gt;Node3 -->
<g id="edge3_Node000003_Node000004" class="edge">
<title>Node4&#45;&gt;Node3</title>
<g id="a_edge3_Node000003_Node000004"><a xlink:title=" ">
<path fill="none" stroke="#9a32cd" stroke-dasharray="5,2" d="M260.36,-15.37C220.59,-22.93 165.75,-41.29 165.75,-85 165.75,-218.25 165.75,-218.25 165.75,-218.25 165.75,-241.2 145.89,-261.75 132.85,-272.76"/>
<polygon fill="#9a32cd" stroke="#9a32cd" points="260.87,-18.66 270.12,-13.51 259.67,-11.76 260.87,-18.66"/>
</a>
</g>
<text text-anchor="middle" x="176.25" y="-148" font-family="Helvetica,sans-Serif" font-size="10.00" fill="grey"> pipe</text>
</g>
<!-- Node5 -->
<g id="Node000005" class="node">
<title>Node5</title>
<g id="a_Node000005"><a xlink:href="a02230.html" target="_top" xlink:title=" ">
<polygon fill="white" stroke="#666666" points="424.25,-291.5 345.25,-291.5 345.25,-273 424.25,-273 424.25,-291.5"/>
<text text-anchor="middle" x="384.75" y="-278" font-family="Helvetica,sans-Serif" font-size="10.00">async_meta_s</text>
</a>
</g>
</g>
<!-- Node5&#45;&gt;Node4 -->
<g id="edge5_Node000004_Node000005" class="edge">
<title>Node5&#45;&gt;Node4</title>
<g id="a_edge5_Node000004_Node000005"><a xlink:title=" ">
<path fill="none" stroke="#9a32cd" stroke-dasharray="5,2" d="M345.98,-268.42C326.62,-259.82 304.98,-246.36 293.75,-226.5 253.63,-155.54 286.56,-49.5 297.52,-18.84"/>
<polygon fill="#9a32cd" stroke="#9a32cd" points="344.54,-272.02 355.12,-272.59 347.21,-265.55 344.54,-272.02"/>
</a>
</g>
<text text-anchor="middle" x="290" y="-148" font-family="Helvetica,sans-Serif" font-size="10.00" fill="grey"> async</text>
</g>
<!-- Node11 -->
<g id="Node000011" class="node">
<title>Node11</title>
<g id="a_Node000011"><a xlink:href="a02242.html" target="_top" xlink:title=" ">
<polygon fill="white" stroke="#666666" points="492.88,-161.5 396.62,-161.5 396.62,-143 492.88,-143 492.88,-161.5"/>
<text text-anchor="middle" x="444.75" y="-148" font-family="Helvetica,sans-Serif" font-size="10.00">async_condition_s</text>
</a>
</g>
</g>
<!-- Node5&#45;&gt;Node11 -->
<g id="edge13_Node000011_Node000005" class="edge">
<title>Node5&#45;&gt;Node11</title>
<g id="a_edge13_Node000011_Node000005"><a xlink:title=" ">
<path fill="none" stroke="#9a32cd" stroke-dasharray="5,2" d="M396.43,-263.55C398.24,-260.71 400.07,-257.79 401.75,-255 409.26,-242.56 411.66,-239.69 417.75,-226.5 428.2,-203.86 437.58,-175.92 442.02,-162"/>
<polygon fill="#9a32cd" stroke="#9a32cd" points="393.07,-261.29 390.56,-271.59 398.94,-265.11 393.07,-261.29"/>
</a>
</g>
<text text-anchor="middle" x="438.12" y="-213" font-family="Helvetica,sans-Serif" font-size="10.00" fill="grey"> meta</text>
</g>
<!-- Node12 -->
<g id="Node000012" class="node">
<title>Node12</title>
<g id="a_Node000012"><a xlink:href="a02234.html" target="_top" xlink:title=" ">
<polygon fill="white" stroke="#666666" points="592,-226.5 487.5,-226.5 487.5,-208 592,-208 592,-226.5"/>
<text text-anchor="middle" x="539.75" y="-213" font-family="Helvetica,sans-Serif" font-size="10.00">async_completion_s</text>
</a>
</g>
</g>
<!-- Node5&#45;&gt;Node12 -->
<g id="edge15_Node000012_Node000005" class="edge">
<title>Node5&#45;&gt;Node12</title>
<g id="a_edge15_Node000012_Node000005"><a xlink:title=" ">
<path fill="none" stroke="#9a32cd" stroke-dasharray="5,2" d="M421.15,-269.03C433.2,-264.8 446.63,-259.89 458.75,-255 480.8,-246.1 505.64,-234.61 521.92,-226.87"/>
<polygon fill="#9a32cd" stroke="#9a32cd" points="420.28,-265.97 411.98,-272.55 422.58,-272.59 420.28,-265.97"/>
</a>
</g>
<text text-anchor="middle" x="496.12" y="-245.5" font-family="Helvetica,sans-Serif" font-size="10.00" fill="grey"> meta</text>
</g>
<!-- Node13 -->
<g id="Node000013" class="node">
<title>Node13</title>
<g id="a_Node000013"><a xlink:href="a02238.html" target="_top" xlink:title=" ">
<polygon fill="white" stroke="#666666" points="408.38,-226.5 303.12,-226.5 303.12,-208 408.38,-208 408.38,-226.5"/>
<text text-anchor="middle" x="355.75" y="-213" font-family="Helvetica,sans-Serif" font-size="10.00">async_semaphore_s</text>
</a>
</g>
</g>
<!-- Node5&#45;&gt;Node13 -->
<g id="edge18_Node000013_Node000005" class="edge">
<title>Node5&#45;&gt;Node13</title>
<g id="a_edge18_Node000013_Node000005"><a xlink:title=" ">
<path fill="none" stroke="#9a32cd" stroke-dasharray="5,2" d="M376.29,-262.87C370.77,-250.88 363.83,-235.81 359.6,-226.61"/>
<polygon fill="#9a32cd" stroke="#9a32cd" points="373.48,-264.13 380.84,-271.75 379.84,-261.21 373.48,-264.13"/>
</a>
</g>
<text text-anchor="middle" x="385.12" y="-245.5" font-family="Helvetica,sans-Serif" font-size="10.00" fill="grey"> meta</text>
</g>
<!-- Node6 -->
<g id="Node000006" class="node">
<title>Node6</title>
<g id="a_Node000006"><a xlink:href="a02314.html" target="_top" xlink:title=" ">
<polygon fill="white" stroke="#666666" points="258,-356.5 195.5,-356.5 195.5,-338 258,-338 258,-356.5"/>
<text text-anchor="middle" x="226.75" y="-343" font-family="Helvetica,sans-Serif" font-size="10.00">utils_list_s</text>
</a>
</g>
</g>
<!-- Node6&#45;&gt;Node3 -->
<g id="edge25_Node000003_Node000006" class="edge">
<title>Node6&#45;&gt;Node3</title>
<g id="a_edge25_Node000003_Node000006"><a xlink:title=" ">
<path fill="none" stroke="#9a32cd" stroke-dasharray="5,2" d="M198.18,-333.02C190.22,-329.07 181.66,-324.57 174,-320 159.33,-311.26 143.4,-299.73 133.04,-291.94"/>
<polygon fill="#9a32cd" stroke="#9a32cd" points="196.3,-336.48 206.83,-337.69 199.36,-330.18 196.3,-336.48"/>
</a>
</g>
<text text-anchor="middle" x="182.62" y="-310.5" font-family="Helvetica,sans-Serif" font-size="10.00" fill="grey"> list</text>
</g>
<!-- Node6&#45;&gt;Node4 -->
<g id="edge21_Node000004_Node000006" class="edge">
<title>Node6&#45;&gt;Node4</title>
<g id="a_edge21_Node000004_Node000006"><a xlink:title=" ">
<path fill="none" stroke="#9a32cd" stroke-dasharray="5,2" d="M221.92,-327.17C214.79,-295.91 203.48,-231.99 215.25,-179.5 230.23,-112.68 277.31,-42.71 294.44,-18.82"/>
<polygon fill="#9a32cd" stroke="#9a32cd" points="218.74,-327.89 224.48,-336.79 225.54,-326.25 218.74,-327.89"/>
</a>
</g>
<text text-anchor="middle" x="245" y="-180.5" font-family="Helvetica,sans-Serif" font-size="10.00" fill="grey"> orphan_vacs</text>
</g>
<!-- Node6&#45;&gt;Node5 -->
<g id="edge6_Node000005_Node000006" class="edge">
<title>Node6&#45;&gt;Node5</title>
<g id="a_edge6_Node000005_Node000006"><a xlink:title=" ">
<path fill="none" stroke="#9a32cd" stroke-dasharray="5,2" d="M258.25,-333.69C289.23,-321.34 335.72,-302.8 362.87,-291.98"/>
<polygon fill="#9a32cd" stroke="#9a32cd" points="257.38,-330.67 249.39,-337.62 259.97,-337.17 257.38,-330.67"/>
</a>
</g>
<text text-anchor="middle" x="342.38" y="-310.5" font-family="Helvetica,sans-Serif" font-size="10.00" fill="grey"> outstanding</text>
</g>
<!-- Node6&#45;&gt;Node13 -->
<g id="edge19_Node000013_Node000006" class="edge">
<title>Node6&#45;&gt;Node13</title>
<g id="a_edge19_Node000013_Node000006"><a xlink:title=" ">
<path fill="none" stroke="#9a32cd" stroke-dasharray="5,2" d="M237.45,-328.88C247.55,-313.27 263.7,-290.21 281,-273 299.82,-254.28 325.43,-236.95 341.26,-226.99"/>
<polygon fill="#9a32cd" stroke="#9a32cd" points="234.12,-326.61 231.73,-336.93 240.04,-330.35 234.12,-326.61"/>
</a>
</g>
<text text-anchor="middle" x="309.12" y="-278" font-family="Helvetica,sans-Serif" font-size="10.00" fill="grey"> pending_list</text>
</g>
<!-- Node7 -->
<g id="Node000007" class="node">
<title>Node7</title>
<g id="a_Node000007"><a xlink:href="a02310.html" target="_top" xlink:title=" ">
<polygon fill="white" stroke="#666666" points="265.88,-422.75 187.62,-422.75 187.62,-404.25 265.88,-404.25 265.88,-422.75"/>
<text text-anchor="middle" x="226.75" y="-409.25" font-family="Helvetica,sans-Serif" font-size="10.00">utils_list_node</text>
</a>
</g>
</g>
<!-- Node7&#45;&gt;Node2 -->
<g id="edge26_Node000002_Node000007" class="edge">
<title>Node7&#45;&gt;Node2</title>
<g id="a_edge26_Node000002_Node000007"><a xlink:title=" ">
<path fill="none" stroke="#9a32cd" stroke-dasharray="5,2" d="M198.54,-399.02C161.78,-380.05 97.94,-342.07 61.75,-291.5 47.17,-271.12 41.6,-241.17 39.67,-226.7"/>
<polygon fill="#9a32cd" stroke="#9a32cd" points="196.64,-402.49 207.14,-403.86 199.79,-396.24 196.64,-402.49"/>
</a>
</g>
<text text-anchor="middle" x="93.62" y="-310.5" font-family="Helvetica,sans-Serif" font-size="10.00" fill="grey"> list</text>
</g>
<!-- Node7&#45;&gt;Node6 -->
<g id="edge7_Node000006_Node000007" class="edge">
<title>Node7&#45;&gt;Node6</title>
<g id="a_edge7_Node000006_Node000007"><a xlink:title=" ">
<path fill="none" stroke="#9a32cd" stroke-dasharray="5,2" d="M226.75,-393C226.75,-380.91 226.75,-365.97 226.75,-356.78"/>
<polygon fill="#9a32cd" stroke="#9a32cd" points="223.25,-392.83 226.75,-402.83 230.25,-392.83 223.25,-392.83"/>
</a>
</g>
<text text-anchor="middle" x="238.75" y="-375.5" font-family="Helvetica,sans-Serif" font-size="10.00" fill="grey"> head</text>
</g>
<!-- Node7&#45;&gt;Node7 -->
<g id="edge8_Node000007_Node000007" class="edge">
<title>Node7&#45;&gt;Node7</title>
<g id="a_edge8_Node000007_Node000007"><a xlink:title=" ">
<path fill="none" stroke="#9a32cd" stroke-dasharray="5,2" d="M276.94,-418.42C281.21,-417.37 283.88,-415.73 283.88,-413.5 283.88,-409.74 276.32,-407.66 266.26,-407.25"/>
<polygon fill="#9a32cd" stroke="#9a32cd" points="276.75,-415.04 267.26,-419.75 277.62,-421.99 276.75,-415.04"/>
</a>
</g>
<text text-anchor="middle" x="294.75" y="-414.5" font-family="Helvetica,sans-Serif" font-size="10.00" fill="grey"> next</text>
<text text-anchor="middle" x="294.75" y="-404" font-family="Helvetica,sans-Serif" font-size="10.00" fill="grey">prev</text>
</g>
<!-- Node7&#45;&gt;Node12 -->
<g id="edge16_Node000012_Node000007" class="edge">
<title>Node7&#45;&gt;Node12</title>
<g id="a_edge16_Node000012_Node000007"><a xlink:title=" ">
<path fill="none" stroke="#9a32cd" stroke-dasharray="5,2" d="M277.06,-413.28C375.15,-413.62 586.46,-408.17 632.75,-356.5 672.51,-312.12 588.06,-249.64 553.56,-226.93"/>
<polygon fill="#9a32cd" stroke="#9a32cd" points="277.26,-409.77 267.24,-413.22 277.22,-416.77 277.26,-409.77"/>
</a>
</g>
<text text-anchor="middle" x="668.38" y="-310.5" font-family="Helvetica,sans-Serif" font-size="10.00" fill="grey"> outstanding</text>
</g>
<!-- Node8 -->
<g id="Node000008" class="node">
<title>Node8</title>
<g id="a_Node000008"><a xlink:href="a02226.html" target="_top" xlink:title=" ">
<polygon fill="white" stroke="#666666" points="412.62,-356.5 356.88,-356.5 356.88,-338 412.62,-338 412.62,-356.5"/>
<text text-anchor="middle" x="384.75" y="-343" font-family="Helvetica,sans-Serif" font-size="10.00">ivshmem</text>
</a>
</g>
</g>
<!-- Node8&#45;&gt;Node5 -->
<g id="edge9_Node000005_Node000008" class="edge">
<title>Node8&#45;&gt;Node5</title>
<g id="a_edge9_Node000005_Node000008"><a xlink:title=" ">
<path fill="none" stroke="#9a32cd" stroke-dasharray="5,2" d="M384.75,-326.76C384.75,-314.97 384.75,-300.53 384.75,-291.61"/>
<polygon fill="#9a32cd" stroke="#9a32cd" points="381.25,-326.75 384.75,-336.75 388.25,-326.75 381.25,-326.75"/>
</a>
</g>
<text text-anchor="middle" x="395.62" y="-310.5" font-family="Helvetica,sans-Serif" font-size="10.00" fill="grey"> regs</text>
</g>
<!-- Node9 -->
<g id="Node000009" class="node">
<title>Node9</title>
<g id="a_Node000009"><a xlink:href="a02182.html" target="_top" xlink:title=" ">
<polygon fill="white" stroke="#666666" points="624.12,-356.5 553.38,-356.5 553.38,-338 624.12,-338 624.12,-356.5"/>
<text text-anchor="middle" x="588.75" y="-343" font-family="Helvetica,sans-Serif" font-size="10.00">arch_alloc_s</text>
</a>
</g>
</g>
<!-- Node9&#45;&gt;Node4 -->
<g id="edge24_Node000004_Node000009" class="edge">
<title>Node9&#45;&gt;Node4</title>
<g id="a_edge24_Node000004_Node000009"><a xlink:title=" ">
<path fill="none" stroke="#9a32cd" stroke-dasharray="5,2" d="M602.56,-328.97C610.83,-316.89 619.75,-299.99 619.75,-283.25 619.75,-283.25 619.75,-283.25 619.75,-85 619.75,-25.91 409.67,-13.5 330.47,-10.92"/>
<polygon fill="#9a32cd" stroke="#9a32cd" points="599.37,-326.4 596.25,-336.53 605.01,-330.56 599.37,-326.4"/>
</a>
</g>
<text text-anchor="middle" x="639.62" y="-180.5" font-family="Helvetica,sans-Serif" font-size="10.00" fill="grey"> allocator</text>
</g>
<!-- Node9&#45;&gt;Node5 -->
<g id="edge10_Node000005_Node000009" class="edge">
<title>Node9&#45;&gt;Node5</title>
<g id="a_edge10_Node000005_Node000009"><a xlink:title=" ">
<path fill="none" stroke="#9a32cd" stroke-dasharray="5,2" d="M550.4,-334.41C510.43,-322.06 448.74,-303.01 413,-291.98"/>
<polygon fill="#9a32cd" stroke="#9a32cd" points="549.22,-338.02 559.81,-337.62 551.29,-331.33 549.22,-338.02"/>
</a>
</g>
<text text-anchor="middle" x="511.38" y="-310.5" font-family="Helvetica,sans-Serif" font-size="10.00" fill="grey"> alloc</text>
</g>
<!-- Node10 -->
<g id="Node000010" class="node">
<title>Node10</title>
<g id="a_Node000010"><a xlink:href="a02286.html" target="_top" xlink:title=" ">
<polygon fill="white" stroke="#666666" points="500.38,-95.25 419.12,-95.25 419.12,-76.75 500.38,-76.75 500.38,-95.25"/>
<text text-anchor="middle" x="459.75" y="-81.75" font-family="Helvetica,sans-Serif" font-size="10.00">arax_throttle_s</text>
</a>
</g>
</g>
<!-- Node10&#45;&gt;Node4 -->
<g id="edge11_Node000004_Node000010" class="edge">
<title>Node10&#45;&gt;Node4</title>
<g id="a_edge11_Node000004_Node000010"><a xlink:title=" ">
<path fill="none" stroke="#9a32cd" stroke-dasharray="5,2" d="M431.42,-71.68C398.97,-56.43 346.76,-31.88 319.18,-18.92"/>
<polygon fill="#9a32cd" stroke="#9a32cd" points="429.66,-75.19 440.2,-76.28 432.64,-68.86 429.66,-75.19"/>
</a>
</g>
<text text-anchor="middle" x="416.25" y="-42.75" font-family="Helvetica,sans-Serif" font-size="10.00" fill="grey"> throttle</text>
</g>
<!-- Node11&#45;&gt;Node4 -->
<g id="edge20_Node000004_Node000011" class="edge">
<title>Node11&#45;&gt;Node4</title>
<g id="a_edge20_Node000004_Node000011"><a xlink:title=" ">
<path fill="none" stroke="#9a32cd" stroke-dasharray="5,2" d="M401.58,-138.95C378.37,-130.39 350.84,-116.8 332.5,-96.5 311.75,-73.53 304.21,-35.84 301.78,-18.94"/>
<polygon fill="#9a32cd" stroke="#9a32cd" points="400.29,-142.56 410.89,-142.54 402.59,-135.94 400.29,-142.56"/>
</a>
</g>
<text text-anchor="middle" x="371.38" y="-87" font-family="Helvetica,sans-Serif" font-size="10.00" fill="grey"> cntrl_ready_cond</text>
<text text-anchor="middle" x="371.38" y="-76.5" font-family="Helvetica,sans-Serif" font-size="10.00" fill="grey">orphan_cond</text>
</g>
<!-- Node11&#45;&gt;Node10 -->
<g id="edge12_Node000010_Node000011" class="edge">
<title>Node11&#45;&gt;Node10</title>
<g id="a_edge12_Node000010_Node000011"><a xlink:title=" ">
<path fill="none" stroke="#9a32cd" stroke-dasharray="5,2" d="M449.21,-132.13C452.05,-119.97 455.59,-104.81 457.76,-95.53"/>
<polygon fill="#9a32cd" stroke="#9a32cd" points="445.64,-131.05 446.77,-141.58 452.45,-132.64 445.64,-131.05"/>
</a>
</g>
<text text-anchor="middle" x="467.25" y="-115.5" font-family="Helvetica,sans-Serif" font-size="10.00" fill="grey"> ready</text>
</g>
<!-- Node12&#45;&gt;Node11 -->
<g id="edge14_Node000011_Node000012" class="edge">
<title>Node12&#45;&gt;Node11</title>
<g id="a_edge14_Node000011_Node000012"><a xlink:title=" ">
<path fill="none" stroke="#9a32cd" stroke-dasharray="5,2" d="M517.98,-201.81C499.35,-189.46 473.15,-172.08 457.66,-161.81"/>
<polygon fill="#9a32cd" stroke="#9a32cd" points="515.67,-205.14 525.94,-207.75 519.54,-199.31 515.67,-205.14"/>
</a>
</g>
<text text-anchor="middle" x="513.75" y="-180.5" font-family="Helvetica,sans-Serif" font-size="10.00" fill="grey"> mutex</text>
</g>
<!-- Node13&#45;&gt;Node11 -->
<g id="edge17_Node000011_Node000013" class="edge">
<title>Node13&#45;&gt;Node11</title>
<g id="a_edge17_Node000011_Node000013"><a xlink:title=" ">
<path fill="none" stroke="#9a32cd" stroke-dasharray="5,2" d="M364.65,-198.03C368.55,-191.5 373.65,-184.52 379.75,-179.5 389.25,-171.69 401.37,-165.96 412.56,-161.88"/>
<polygon fill="#9a32cd" stroke="#9a32cd" points="361.17,-196.11 359.52,-206.58 367.33,-199.42 361.17,-196.11"/>
</a>
</g>
<text text-anchor="middle" x="405.25" y="-180.5" font-family="Helvetica,sans-Serif" font-size="10.00" fill="grey"> semaphore</text>
</g>
<!-- Node14 -->
<g id="Node000014" class="node">
<title>Node14</title>
<g id="a_Node000014"><a xlink:href="a02302.html" target="_top" xlink:title=" ">
<polygon fill="white" stroke="#666666" points="707.88,-95.25 647.62,-95.25 647.62,-76.75 707.88,-76.75 707.88,-95.25"/>
<text text-anchor="middle" x="677.75" y="-81.75" font-family="Helvetica,sans-Serif" font-size="10.00">utils_kv_s</text>
</a>
</g>
</g>
<!-- Node14&#45;&gt;Node4 -->
<g id="edge22_Node000004_Node000014" class="edge">
<title>Node14&#45;&gt;Node4</title>
<g id="a_edge22_Node000004_Node000014"><a xlink:title=" ">
<path fill="none" stroke="#9a32cd" stroke-dasharray="5,2" d="M666.74,-67.21C658.97,-56.33 647.5,-43.25 633.75,-36.5 580.85,-10.53 402.04,-9.25 330.6,-9.83"/>
<polygon fill="#9a32cd" stroke="#9a32cd" points="664.36,-68.94 672.81,-75.33 670.19,-65.07 664.36,-68.94"/>
</a>
</g>
<text text-anchor="middle" x="682.75" y="-48" font-family="Helvetica,sans-Serif" font-size="10.00" fill="grey"> ass_kv</text>
<text text-anchor="middle" x="682.75" y="-37.5" font-family="Helvetica,sans-Serif" font-size="10.00" fill="grey">metrics_kv</text>
</g>
<!-- Node15 -->
<g id="Node000015" class="node">
<title>Node15</title>
<g id="a_Node000015"><a xlink:href="a02306.html" target="_top" xlink:title=" ">
<polygon fill="white" stroke="#666666" points="694.38,-161.5 661.12,-161.5 661.12,-143 694.38,-143 694.38,-161.5"/>
<text text-anchor="middle" x="677.75" y="-148" font-family="Helvetica,sans-Serif" font-size="10.00">Pair</text>
</a>
</g>
</g>
<!-- Node15&#45;&gt;Node14 -->
<g id="edge23_Node000014_Node000015" class="edge">
<title>Node15&#45;&gt;Node14</title>
<g id="a_edge23_Node000014_Node000015"><a xlink:title=" ">
<path fill="none" stroke="#9a32cd" stroke-dasharray="5,2" d="M677.75,-131.75C677.75,-119.66 677.75,-104.72 677.75,-95.53"/>
<polygon fill="#9a32cd" stroke="#9a32cd" points="674.25,-131.58 677.75,-141.58 681.25,-131.58 674.25,-131.58"/>
</a>
</g>
<text text-anchor="middle" x="684.5" y="-115.5" font-family="Helvetica,sans-Serif" font-size="10.00" fill="grey"> kv</text>
</g>
</g>
</svg>
