<?xml version="1.0" encoding="UTF-8" standalone="no"?>
<!DOCTYPE svg PUBLIC "-//W3C//DTD SVG 1.1//EN"
 "http://www.w3.org/Graphics/SVG/1.1/DTD/svg11.dtd">
<!-- Generated by graphviz version 12.2.1 (0)
 -->
<!-- Title: async_condition_s Pages: 1 -->
<svg width="317pt" height="289pt"
 viewBox="0.00 0.00 316.62 289.00" xmlns="http://www.w3.org/2000/svg" xmlns:xlink="http://www.w3.org/1999/xlink">
<g id="graph0" class="graph" transform="scale(1 1) rotate(0) translate(4 285)">
<title>async_condition_s</title>
<!-- Node1 -->
<g id="Node000001" class="node">
<title>Node1</title>
<g id="a_Node000001"><a xlink:title=" ">
<polygon fill="#999999" stroke="#666666" points="200.25,-18.5 104,-18.5 104,0 200.25,0 200.25,-18.5"/>
<text text-anchor="middle" x="152.12" y="-5" font-family="Helvetica,sans-Serif" font-size="10.00">async_condition_s</text>
</a>
</g>
</g>
<!-- Node2 -->
<g id="Node000002" class="node">
<title>Node2</title>
<g id="a_Node000002"><a xlink:href="a02242.html" target="_top" xlink:title=" ">
<polygon fill="white" stroke="#666666" points="191.62,-148.5 112.62,-148.5 112.62,-130 191.62,-130 191.62,-148.5"/>
<text text-anchor="middle" x="152.12" y="-135" font-family="Helvetica,sans-Serif" font-size="10.00">async_meta_s</text>
</a>
</g>
</g>
<!-- Node2&#45;&gt;Node1 -->
<g id="edge1_Node000001_Node000002" class="edge">
<title>Node2&#45;&gt;Node1</title>
<g id="a_edge1_Node000001_Node000002"><a xlink:title=" ">
<path fill="none" stroke="#9a32cd" stroke-dasharray="5,2" d="M152.12,-118.64C152.12,-90.31 152.12,-39.12 152.12,-18.85"/>
<polygon fill="#9a32cd" stroke="#9a32cd" points="148.63,-118.34 152.13,-128.34 155.63,-118.34 148.63,-118.34"/>
</a>
</g>
<text text-anchor="middle" x="164.5" y="-70" font-family="Helvetica,sans-Serif" font-size="10.00" fill="grey"> meta</text>
</g>
<!-- Node7 -->
<g id="Node000007" class="node">
<title>Node7</title>
<g id="a_Node000007"><a xlink:href="a02246.html" target="_top" xlink:title=" ">
<polygon fill="white" stroke="#666666" points="116.38,-83.5 11.88,-83.5 11.88,-65 116.38,-65 116.38,-83.5"/>
<text text-anchor="middle" x="64.12" y="-70" font-family="Helvetica,sans-Serif" font-size="10.00">async_completion_s</text>
</a>
</g>
</g>
<!-- Node2&#45;&gt;Node7 -->
<g id="edge8_Node000007_Node000002" class="edge">
<title>Node2&#45;&gt;Node7</title>
<g id="a_edge8_Node000007_Node000002"><a xlink:title=" ">
<path fill="none" stroke="#9a32cd" stroke-dasharray="5,2" d="M129.87,-123.43C124.44,-119.74 118.67,-115.77 113.38,-112 100.16,-102.6 85.28,-91.41 75.36,-83.86"/>
<polygon fill="#9a32cd" stroke="#9a32cd" points="127.6,-126.12 137.85,-128.8 131.51,-120.31 127.6,-126.12"/>
</a>
</g>
<text text-anchor="middle" x="125.75" y="-102.5" font-family="Helvetica,sans-Serif" font-size="10.00" fill="grey"> meta</text>
</g>
<!-- Node8 -->
<g id="Node000008" class="node">
<title>Node8</title>
<g id="a_Node000008"><a xlink:href="a02250.html" target="_top" xlink:title=" ">
<polygon fill="white" stroke="#666666" points="299.75,-83.5 194.5,-83.5 194.5,-65 299.75,-65 299.75,-83.5"/>
<text text-anchor="middle" x="247.12" y="-70" font-family="Helvetica,sans-Serif" font-size="10.00">async_semaphore_s</text>
</a>
</g>
</g>
<!-- Node2&#45;&gt;Node8 -->
<g id="edge11_Node000008_Node000002" class="edge">
<title>Node2&#45;&gt;Node8</title>
<g id="a_edge11_Node000008_Node000002"><a xlink:title=" ">
<path fill="none" stroke="#9a32cd" stroke-dasharray="5,2" d="M174.41,-123.47C193.01,-111.14 218.87,-93.99 234.21,-83.81"/>
<polygon fill="#9a32cd" stroke="#9a32cd" points="172.6,-120.47 166.2,-128.92 176.47,-126.31 172.6,-120.47"/>
</a>
</g>
<text text-anchor="middle" x="217.69" y="-102.5" font-family="Helvetica,sans-Serif" font-size="10.00" fill="grey"> meta</text>
</g>
<!-- Node3 -->
<g id="Node000003" class="node">
<title>Node3</title>
<g id="a_Node000003"><a xlink:href="a02326.html" target="_top" xlink:title=" ">
<polygon fill="white" stroke="#666666" points="276.38,-213.5 213.88,-213.5 213.88,-195 276.38,-195 276.38,-213.5"/>
<text text-anchor="middle" x="245.12" y="-200" font-family="Helvetica,sans-Serif" font-size="10.00">utils_list_s</text>
</a>
</g>
</g>
<!-- Node3&#45;&gt;Node2 -->
<g id="edge2_Node000002_Node000003" class="edge">
<title>Node3&#45;&gt;Node2</title>
<g id="a_edge2_Node000002_Node000003"><a xlink:title=" ">
<path fill="none" stroke="#9a32cd" stroke-dasharray="5,2" d="M218.63,-189.12C212.06,-185.37 205.11,-181.19 198.88,-177 185.67,-168.14 171.44,-156.64 162.19,-148.88"/>
<polygon fill="#9a32cd" stroke="#9a32cd" points="216.73,-192.07 227.17,-193.86 220.13,-185.95 216.73,-192.07"/>
</a>
</g>
<text text-anchor="middle" x="225.5" y="-167.5" font-family="Helvetica,sans-Serif" font-size="10.00" fill="grey"> outstanding</text>
</g>
<!-- Node3&#45;&gt;Node8 -->
<g id="edge12_Node000008_Node000003" class="edge">
<title>Node3&#45;&gt;Node8</title>
<g id="a_edge12_Node000008_Node000003"><a xlink:title=" ">
<path fill="none" stroke="#9a32cd" stroke-dasharray="5,2" d="M250.96,-183.58C251.44,-181.38 251.84,-179.15 252.12,-177 256.63,-142.63 251.31,-101.24 248.56,-83.73"/>
<polygon fill="#9a32cd" stroke="#9a32cd" points="247.6,-182.59 248.42,-193.15 254.37,-184.38 247.6,-182.59"/>
</a>
</g>
<text text-anchor="middle" x="281.24" y="-135" font-family="Helvetica,sans-Serif" font-size="10.00" fill="grey"> pending_list</text>
</g>
<!-- Node4 -->
<g id="Node000004" class="node">
<title>Node4</title>
<g id="a_Node000004"><a xlink:href="a02322.html" target="_top" xlink:title=" ">
<polygon fill="white" stroke="#666666" points="78.25,-279.75 0,-279.75 0,-261.25 78.25,-261.25 78.25,-279.75"/>
<text text-anchor="middle" x="39.12" y="-266.25" font-family="Helvetica,sans-Serif" font-size="10.00">utils_list_node</text>
</a>
</g>
</g>
<!-- Node4&#45;&gt;Node3 -->
<g id="edge3_Node000003_Node000004" class="edge">
<title>Node4&#45;&gt;Node3</title>
<g id="a_edge3_Node000003_Node000004"><a xlink:title=" ">
<path fill="none" stroke="#9a32cd" stroke-dasharray="5,2" d="M77.71,-257.46C118.27,-244.82 181.08,-225.23 217.13,-213.98"/>
<polygon fill="#9a32cd" stroke="#9a32cd" points="76.86,-254.07 68.35,-260.38 78.94,-260.75 76.86,-254.07"/>
</a>
</g>
<text text-anchor="middle" x="172.58" y="-232.5" font-family="Helvetica,sans-Serif" font-size="10.00" fill="grey"> head</text>
</g>
<!-- Node4&#45;&gt;Node4 -->
<g id="edge4_Node000004_Node000004" class="edge">
<title>Node4&#45;&gt;Node4</title>
<g id="a_edge4_Node000004_Node000004"><a xlink:title=" ">
<path fill="none" stroke="#9a32cd" stroke-dasharray="5,2" d="M89.98,-275.25C93.86,-274.2 96.25,-272.61 96.25,-270.5 96.25,-266.74 88.7,-264.66 78.64,-264.25"/>
<polygon fill="#9a32cd" stroke="#9a32cd" points="89.59,-271.77 80.14,-276.55 90.51,-278.71 89.59,-271.77"/>
</a>
</g>
<text text-anchor="middle" x="107.12" y="-271.5" font-family="Helvetica,sans-Serif" font-size="10.00" fill="grey"> next</text>
<text text-anchor="middle" x="107.12" y="-261" font-family="Helvetica,sans-Serif" font-size="10.00" fill="grey">prev</text>
</g>
<!-- Node4&#45;&gt;Node7 -->
<g id="edge9_Node000007_Node000004" class="edge">
<title>Node4&#45;&gt;Node7</title>
<g id="a_edge9_Node000007_Node000004"><a xlink:title=" ">
<path fill="none" stroke="#9a32cd" stroke-dasharray="5,2" d="M39.17,-249.3C39.39,-234.28 40.08,-213.31 42.12,-195 46.81,-152.98 57.6,-103.53 62.1,-83.9"/>
<polygon fill="#9a32cd" stroke="#9a32cd" points="35.67,-249.21 39.09,-259.24 42.67,-249.27 35.67,-249.21"/>
</a>
</g>
<text text-anchor="middle" x="72.53" y="-167.5" font-family="Helvetica,sans-Serif" font-size="10.00" fill="grey"> outstanding</text>
</g>
<!-- Node5 -->
<g id="Node000005" class="node">
<title>Node5</title>
<g id="a_Node000005"><a xlink:href="a02238.html" target="_top" xlink:title=" ">
<polygon fill="white" stroke="#666666" points="107,-213.5 51.25,-213.5 51.25,-195 107,-195 107,-213.5"/>
<text text-anchor="middle" x="79.12" y="-200" font-family="Helvetica,sans-Serif" font-size="10.00">ivshmem</text>
</a>
</g>
</g>
<!-- Node5&#45;&gt;Node2 -->
<g id="edge5_Node000002_Node000005" class="edge">
<title>Node5&#45;&gt;Node2</title>
<g id="a_edge5_Node000002_Node000005"><a xlink:title=" ">
<path fill="none" stroke="#9a32cd" stroke-dasharray="5,2" d="M97.5,-187.39C111.78,-175.07 131.01,-158.47 142.44,-148.61"/>
<polygon fill="#9a32cd" stroke="#9a32cd" points="95.4,-184.58 90.12,-193.76 99.97,-189.88 95.4,-184.58"/>
</a>
</g>
<text text-anchor="middle" x="130.87" y="-167.5" font-family="Helvetica,sans-Serif" font-size="10.00" fill="grey"> regs</text>
</g>
<!-- Node6 -->
<g id="Node000006" class="node">
<title>Node6</title>
<g id="a_Node000006"><a xlink:href="a02194.html" target="_top" xlink:title=" ">
<polygon fill="white" stroke="#666666" points="195.5,-213.5 124.75,-213.5 124.75,-195 195.5,-195 195.5,-213.5"/>
<text text-anchor="middle" x="160.12" y="-200" font-family="Helvetica,sans-Serif" font-size="10.00">arch_alloc_s</text>
</a>
</g>
</g>
<!-- Node6&#45;&gt;Node2 -->
<g id="edge6_Node000002_Node000006" class="edge">
<title>Node6&#45;&gt;Node2</title>
<g id="a_edge6_Node000002_Node000006"><a xlink:title=" ">
<path fill="none" stroke="#9a32cd" stroke-dasharray="5,2" d="M154.13,-183.58C153.62,-181.38 153.19,-179.15 152.88,-177 151.47,-167.4 151.47,-156.25 151.7,-148.77"/>
<polygon fill="#9a32cd" stroke="#9a32cd" points="150.73,-184.44 156.75,-193.16 157.48,-182.59 150.73,-184.44"/>
</a>
</g>
<text text-anchor="middle" x="164.5" y="-167.5" font-family="Helvetica,sans-Serif" font-size="10.00" fill="grey"> alloc</text>
</g>
<!-- Node7&#45;&gt;Node1 -->
<g id="edge7_Node000001_Node000007" class="edge">
<title>Node7&#45;&gt;Node1</title>
<g id="a_edge7_Node000001_Node000007"><a xlink:title=" ">
<path fill="none" stroke="#9a32cd" stroke-dasharray="5,2" d="M82.13,-57.11C89.9,-50.44 99.24,-42.8 108.12,-36.5 117.12,-30.12 127.73,-23.76 136.27,-18.9"/>
<polygon fill="#9a32cd" stroke="#9a32cd" points="79.91,-54.4 74.7,-63.62 84.53,-59.66 79.91,-54.4"/>
</a>
</g>
<text text-anchor="middle" x="123.12" y="-37.5" font-family="Helvetica,sans-Serif" font-size="10.00" fill="grey"> mutex</text>
</g>
<!-- Node8&#45;&gt;Node1 -->
<g id="edge10_Node000001_Node000008" class="edge">
<title>Node8&#45;&gt;Node1</title>
<g id="a_edge10_Node000001_Node000008"><a xlink:title=" ">
<path fill="none" stroke="#9a32cd" stroke-dasharray="5,2" d="M224.84,-58.47C206.24,-46.14 180.38,-28.99 165.04,-18.81"/>
<polygon fill="#9a32cd" stroke="#9a32cd" points="222.78,-61.31 233.05,-63.92 226.65,-55.47 222.78,-61.31"/>
</a>
</g>
<text text-anchor="middle" x="230.81" y="-37.5" font-family="Helvetica,sans-Serif" font-size="10.00" fill="grey"> semaphore</text>
</g>
</g>
</svg>
