<?xml version="1.0" encoding="UTF-8" standalone="no"?>
<!DOCTYPE svg PUBLIC "-//W3C//DTD SVG 1.1//EN"
 "http://www.w3.org/Graphics/SVG/1.1/DTD/svg11.dtd">
<!-- Generated by graphviz version 12.2.1 (0)
 -->
<!-- Title: async_meta_s Pages: 1 -->
<svg width="241pt" height="159pt"
 viewBox="0.00 0.00 240.50 159.00" xmlns="http://www.w3.org/2000/svg" xmlns:xlink="http://www.w3.org/1999/xlink">
<g id="graph0" class="graph" transform="scale(1 1) rotate(0) translate(4 155)">
<title>async_meta_s</title>
<!-- Node1 -->
<g id="Node000001" class="node">
<title>Node1</title>
<g id="a_Node000001"><a xlink:title=" ">
<polygon fill="#999999" stroke="#666666" points="155.62,-18.5 76.62,-18.5 76.62,0 155.62,0 155.62,-18.5"/>
<text text-anchor="middle" x="116.12" y="-5" font-family="Helvetica,sans-Serif" font-size="10.00">async_meta_s</text>
</a>
</g>
</g>
<!-- Node2 -->
<g id="Node000002" class="node">
<title>Node2</title>
<g id="a_Node000002"><a xlink:href="a02326.html" target="_top" xlink:title=" ">
<polygon fill="white" stroke="#666666" points="70.38,-83.5 7.88,-83.5 7.88,-65 70.38,-65 70.38,-83.5"/>
<text text-anchor="middle" x="39.12" y="-70" font-family="Helvetica,sans-Serif" font-size="10.00">utils_list_s</text>
</a>
</g>
</g>
<!-- Node2&#45;&gt;Node1 -->
<g id="edge1_Node000001_Node000002" class="edge">
<title>Node2&#45;&gt;Node1</title>
<g id="a_edge1_Node000001_Node000002"><a xlink:title=" ">
<path fill="none" stroke="#9a32cd" stroke-dasharray="5,2" d="M46.42,-54.23C49.53,-47.98 53.66,-41.4 58.88,-36.5 67.09,-28.79 77.96,-23.04 88.02,-18.91"/>
<polygon fill="#9a32cd" stroke="#9a32cd" points="43.27,-52.7 42.52,-63.27 49.7,-55.47 43.27,-52.7"/>
</a>
</g>
<text text-anchor="middle" x="85.5" y="-37.5" font-family="Helvetica,sans-Serif" font-size="10.00" fill="grey"> outstanding</text>
</g>
<!-- Node3 -->
<g id="Node000003" class="node">
<title>Node3</title>
<g id="a_Node000003"><a xlink:href="a02322.html" target="_top" xlink:title=" ">
<polygon fill="white" stroke="#666666" points="78.25,-149.75 0,-149.75 0,-131.25 78.25,-131.25 78.25,-149.75"/>
<text text-anchor="middle" x="39.12" y="-136.25" font-family="Helvetica,sans-Serif" font-size="10.00">utils_list_node</text>
</a>
</g>
</g>
<!-- Node3&#45;&gt;Node2 -->
<g id="edge2_Node000002_Node000003" class="edge">
<title>Node3&#45;&gt;Node2</title>
<g id="a_edge2_Node000002_Node000003"><a xlink:title=" ">
<path fill="none" stroke="#9a32cd" stroke-dasharray="5,2" d="M39.12,-119.62C39.12,-107.6 39.12,-92.87 39.12,-83.78"/>
<polygon fill="#9a32cd" stroke="#9a32cd" points="35.63,-119.32 39.13,-129.32 42.63,-119.32 35.63,-119.32"/>
</a>
</g>
<text text-anchor="middle" x="51.12" y="-102.5" font-family="Helvetica,sans-Serif" font-size="10.00" fill="grey"> head</text>
</g>
<!-- Node3&#45;&gt;Node3 -->
<g id="edge3_Node000003_Node000003" class="edge">
<title>Node3&#45;&gt;Node3</title>
<g id="a_edge3_Node000003_Node000003"><a xlink:title=" ">
<path fill="none" stroke="#9a32cd" stroke-dasharray="5,2" d="M89.98,-145.25C93.86,-144.2 96.25,-142.61 96.25,-140.5 96.25,-136.74 88.7,-134.66 78.64,-134.25"/>
<polygon fill="#9a32cd" stroke="#9a32cd" points="89.59,-141.77 80.14,-146.55 90.51,-148.71 89.59,-141.77"/>
</a>
</g>
<text text-anchor="middle" x="107.12" y="-141.5" font-family="Helvetica,sans-Serif" font-size="10.00" fill="grey"> next</text>
<text text-anchor="middle" x="107.12" y="-131" font-family="Helvetica,sans-Serif" font-size="10.00" fill="grey">prev</text>
</g>
<!-- Node4 -->
<g id="Node000004" class="node">
<title>Node4</title>
<g id="a_Node000004"><a xlink:href="a02238.html" target="_top" xlink:title=" ">
<polygon fill="white" stroke="#666666" points="144,-83.5 88.25,-83.5 88.25,-65 144,-65 144,-83.5"/>
<text text-anchor="middle" x="116.12" y="-70" font-family="Helvetica,sans-Serif" font-size="10.00">ivshmem</text>
</a>
</g>
</g>
<!-- Node4&#45;&gt;Node1 -->
<g id="edge4_Node000001_Node000004" class="edge">
<title>Node4&#45;&gt;Node1</title>
<g id="a_edge4_Node000001_Node000004"><a xlink:title=" ">
<path fill="none" stroke="#9a32cd" stroke-dasharray="5,2" d="M116.12,-53.39C116.12,-41.66 116.12,-27.44 116.12,-18.61"/>
<polygon fill="#9a32cd" stroke="#9a32cd" points="112.63,-53.24 116.13,-63.24 119.63,-53.24 112.63,-53.24"/>
</a>
</g>
<text text-anchor="middle" x="127" y="-37.5" font-family="Helvetica,sans-Serif" font-size="10.00" fill="grey"> regs</text>
</g>
<!-- Node5 -->
<g id="Node000005" class="node">
<title>Node5</title>
<g id="a_Node000005"><a xlink:href="a02194.html" target="_top" xlink:title=" ">
<polygon fill="white" stroke="#666666" points="232.5,-83.5 161.75,-83.5 161.75,-65 232.5,-65 232.5,-83.5"/>
<text text-anchor="middle" x="197.12" y="-70" font-family="Helvetica,sans-Serif" font-size="10.00">arch_alloc_s</text>
</a>
</g>
</g>
<!-- Node5&#45;&gt;Node1 -->
<g id="edge5_Node000001_Node000005" class="edge">
<title>Node5&#45;&gt;Node1</title>
<g id="a_edge5_Node000001_Node000005"><a xlink:title=" ">
<path fill="none" stroke="#9a32cd" stroke-dasharray="5,2" d="M177.24,-57.78C161.45,-45.51 139.98,-28.8 127.13,-18.81"/>
<polygon fill="#9a32cd" stroke="#9a32cd" points="174.96,-60.45 185.01,-63.82 179.26,-54.92 174.96,-60.45"/>
</a>
</g>
<text text-anchor="middle" x="173.1" y="-37.5" font-family="Helvetica,sans-Serif" font-size="10.00" fill="grey"> alloc</text>
</g>
</g>
</svg>
