<?xml version="1.0" encoding="UTF-8" standalone="no"?>
<!DOCTYPE svg PUBLIC "-//W3C//DTD SVG 1.1//EN"
 "http://www.w3.org/Graphics/SVG/1.1/DTD/svg11.dtd">
<!-- Generated by graphviz version 11.0.0 (0)
 -->
<!-- Title: arax_accel_s Pages: 1 -->
<svg width="1215pt" height="520pt"
 viewBox="0.00 0.00 1214.50 519.70" xmlns="http://www.w3.org/2000/svg" xmlns:xlink="http://www.w3.org/1999/xlink">
<g id="graph0" class="graph" transform="scale(1 1) rotate(0) translate(4 515.7)">
<title>arax_accel_s</title>
<!-- Node1 -->
<g id="Node000001" class="node">
<title>Node1</title>
<g id="a_Node000001"><a xlink:title=" ">
<polygon fill="#999999" stroke="#666666" points="1051.75,-391.45 977.25,-391.45 977.25,-372.95 1051.75,-372.95 1051.75,-391.45"/>
<text text-anchor="middle" x="1014.5" y="-377.95" font-family="Helvetica,sans-Serif" font-size="10.00">arax_accel_s</text>
</a>
</g>
</g>
<!-- Node17 -->
<g id="Node000017" class="node">
<title>Node17</title>
<g id="a_Node000017"><a xlink:href="a02305.html" target="_top" xlink:title=" ">
<polygon fill="white" stroke="#666666" points="1206.5,-357.45 1127.5,-357.45 1127.5,-338.95 1206.5,-338.95 1206.5,-357.45"/>
<text text-anchor="middle" x="1167" y="-343.95" font-family="Helvetica,sans-Serif" font-size="10.00">arax_vaccel_s</text>
</a>
</g>
</g>
<!-- Node1&#45;&gt;Node17 -->
<g id="edge34_Node000017_Node000001" class="edge">
<title>Node1&#45;&gt;Node17</title>
<g id="a_edge34_Node000017_Node000001"><a xlink:title=" ">
<path fill="none" stroke="#9a32cd" stroke-dasharray="5,2" d="M1035.33,-365.74C1045.06,-358.72 1057.34,-351.31 1069.75,-347.7 1088.2,-342.33 1109.5,-341.89 1127.36,-343.03"/>
<polygon fill="#9a32cd" stroke="#9a32cd" points="1033.21,-362.96 1027.41,-371.83 1037.47,-368.51 1033.21,-362.96"/>
</a>
</g>
<text text-anchor="middle" x="1089.62" y="-348.2" font-family="Helvetica,sans-Serif" font-size="10.00" fill="grey"> phys</text>
</g>
<!-- Node2 -->
<g id="Node000002" class="node">
<title>Node2</title>
<g id="a_Node000002"><a xlink:href="a02289.html" target="_top" xlink:title=" ">
<polygon fill="white" stroke="#666666" points="886.5,-398.45 809,-398.45 809,-379.95 886.5,-379.95 886.5,-398.45"/>
<text text-anchor="middle" x="847.75" y="-384.95" font-family="Helvetica,sans-Serif" font-size="10.00">arax_object_s</text>
</a>
</g>
</g>
<!-- Node2&#45;&gt;Node1 -->
<g id="edge1_Node000001_Node000002" class="edge">
<title>Node2&#45;&gt;Node1</title>
<g id="a_edge1_Node000001_Node000002"><a xlink:title=" ">
<path fill="none" stroke="#9a32cd" stroke-dasharray="5,2" d="M898.19,-387.1C923.49,-386.03 953.74,-384.74 976.91,-383.76"/>
<polygon fill="#9a32cd" stroke="#9a32cd" points="898.32,-383.59 888.47,-387.51 898.61,-390.59 898.32,-383.59"/>
</a>
</g>
<text text-anchor="middle" x="935.25" y="-387.2" font-family="Helvetica,sans-Serif" font-size="10.00" fill="grey"> obj</text>
</g>
<!-- Node2&#45;&gt;Node17 -->
<g id="edge32_Node000017_Node000002" class="edge">
<title>Node2&#45;&gt;Node17</title>
<g id="a_edge32_Node000017_Node000002"><a xlink:title=" ">
<path fill="none" stroke="#9a32cd" stroke-dasharray="5,2" d="M884.77,-373.75C887.88,-371.52 890.78,-369.01 893.25,-366.2 908.6,-348.8 892.23,-330.48 911.25,-317.2 985.96,-265.05 1103.87,-316 1148.29,-338.61"/>
<polygon fill="#9a32cd" stroke="#9a32cd" points="883.05,-370.71 876.31,-378.88 886.67,-376.69 883.05,-370.71"/>
</a>
</g>
<text text-anchor="middle" x="1014.5" y="-302.2" font-family="Helvetica,sans-Serif" font-size="10.00" fill="grey"> obj</text>
</g>
<!-- Node3 -->
<g id="Node000003" class="node">
<title>Node3</title>
<g id="a_Node000003"><a xlink:href="a02281.html" target="_top" xlink:title=" ">
<polygon fill="white" stroke="#666666" points="739.25,-296.45 637.75,-296.45 637.75,-277.95 739.25,-277.95 739.25,-296.45"/>
<text text-anchor="middle" x="688.5" y="-282.95" font-family="Helvetica,sans-Serif" font-size="10.00">arax_object_repo_s</text>
</a>
</g>
</g>
<!-- Node3&#45;&gt;Node2 -->
<g id="edge2_Node000002_Node000003" class="edge">
<title>Node3&#45;&gt;Node2</title>
<g id="a_edge2_Node000002_Node000003"><a xlink:title=" ">
<path fill="none" stroke="#9a32cd" stroke-dasharray="5,2" d="M710.89,-303.49C733.15,-320.12 769.29,-346.26 802.25,-366.2 809.99,-370.88 818.78,-375.56 826.5,-379.46"/>
<polygon fill="#9a32cd" stroke="#9a32cd" points="713.28,-300.91 703.19,-297.69 709.07,-306.5 713.28,-300.91"/>
</a>
</g>
<text text-anchor="middle" x="770.75" y="-355.2" font-family="Helvetica,sans-Serif" font-size="10.00" fill="grey"> repo</text>
</g>
<!-- Node4 -->
<g id="Node000004" class="node">
<title>Node4</title>
<g id="a_Node000004"><a xlink:href="a02341.html" target="_top" xlink:title=" ">
<polygon fill="white" stroke="#666666" points="1043.88,-183.45 985.12,-183.45 985.12,-164.95 1043.88,-164.95 1043.88,-183.45"/>
<text text-anchor="middle" x="1014.5" y="-169.95" font-family="Helvetica,sans-Serif" font-size="10.00">arax_pipe</text>
</a>
</g>
</g>
<!-- Node3&#45;&gt;Node4 -->
<g id="edge4_Node000004_Node000003" class="edge">
<title>Node3&#45;&gt;Node4</title>
<g id="a_edge4_Node000004_Node000003"><a xlink:title=" ">
<path fill="none" stroke="#9a32cd" stroke-dasharray="5,2" d="M751.06,-282.31C807.93,-275.71 893.31,-260.39 959.25,-225.2 978.87,-214.73 996.61,-195.31 1006.15,-183.69"/>
<polygon fill="#9a32cd" stroke="#9a32cd" points="750.79,-278.82 741.23,-283.39 751.56,-285.78 750.79,-278.82"/>
</a>
</g>
<text text-anchor="middle" x="847.75" y="-275.2" font-family="Helvetica,sans-Serif" font-size="10.00" fill="grey"> objs</text>
</g>
<!-- Node4&#45;&gt;Node3 -->
<g id="edge3_Node000003_Node000004" class="edge">
<title>Node4&#45;&gt;Node3</title>
<g id="a_edge3_Node000003_Node000004"><a xlink:title=" ">
<path fill="none" stroke="#9a32cd" stroke-dasharray="5,2" d="M1007.22,-194.51C999.52,-215.67 984.33,-247.97 959.25,-264.2 892.96,-307.11 797.51,-303.61 739.71,-296.13"/>
<polygon fill="#9a32cd" stroke="#9a32cd" points="1010.46,-195.83 1010.33,-185.24 1003.83,-193.6 1010.46,-195.83"/>
</a>
</g>
<text text-anchor="middle" x="847.75" y="-301.2" font-family="Helvetica,sans-Serif" font-size="10.00" fill="grey"> pipe</text>
</g>
<!-- Node5 -->
<g id="Node000005" class="node">
<title>Node5</title>
<g id="a_Node000005"><a xlink:href="a02245.html" target="_top" xlink:title=" ">
<polygon fill="white" stroke="#666666" points="377.25,-142.45 298.25,-142.45 298.25,-123.95 377.25,-123.95 377.25,-142.45"/>
<text text-anchor="middle" x="337.75" y="-128.95" font-family="Helvetica,sans-Serif" font-size="10.00">async_meta_s</text>
</a>
</g>
</g>
<!-- Node5&#45;&gt;Node4 -->
<g id="edge5_Node000004_Node000005" class="edge">
<title>Node5&#45;&gt;Node4</title>
<g id="a_edge5_Node000004_Node000005"><a xlink:title=" ">
<path fill="none" stroke="#9a32cd" stroke-dasharray="5,2" d="M388.77,-129.96C464.57,-125.43 613.06,-118.04 739.25,-120.7 807.74,-122.15 824.93,-122.14 893.25,-127.2 922.67,-129.38 933.14,-120.48 959.25,-134.2 970.13,-139.92 967.63,-147.54 977.25,-155.2 981.7,-158.74 986.9,-161.93 991.96,-164.63"/>
<polygon fill="#9a32cd" stroke="#9a32cd" points="388.97,-126.44 379.2,-130.54 389.39,-133.43 388.97,-126.44"/>
</a>
</g>
<text text-anchor="middle" x="688.5" y="-121.2" font-family="Helvetica,sans-Serif" font-size="10.00" fill="grey"> async</text>
</g>
<!-- Node11 -->
<g id="Node000011" class="node">
<title>Node11</title>
<g id="a_Node000011"><a xlink:href="a02257.html" target="_top" xlink:title=" ">
<polygon fill="white" stroke="#666666" points="736.62,-158.45 640.38,-158.45 640.38,-139.95 736.62,-139.95 736.62,-158.45"/>
<text text-anchor="middle" x="688.5" y="-144.95" font-family="Helvetica,sans-Serif" font-size="10.00">async_condition_s</text>
</a>
</g>
</g>
<!-- Node5&#45;&gt;Node11 -->
<g id="edge13_Node000011_Node000005" class="edge">
<title>Node5&#45;&gt;Node11</title>
<g id="a_edge13_Node000011_Node000005"><a xlink:title=" ">
<path fill="none" stroke="#9a32cd" stroke-dasharray="5,2" d="M388.85,-135.5C455.93,-138.58 574.09,-144 639.89,-147.02"/>
<polygon fill="#9a32cd" stroke="#9a32cd" points="389.4,-132.02 379.25,-135.06 389.08,-139.02 389.4,-132.02"/>
</a>
</g>
<text text-anchor="middle" x="490.62" y="-143.2" font-family="Helvetica,sans-Serif" font-size="10.00" fill="grey"> meta</text>
</g>
<!-- Node12 -->
<g id="Node000012" class="node">
<title>Node12</title>
<g id="a_Node000012"><a xlink:href="a02249.html" target="_top" xlink:title=" ">
<polygon fill="white" stroke="#666666" points="542.88,-60.45 438.38,-60.45 438.38,-41.95 542.88,-41.95 542.88,-60.45"/>
<text text-anchor="middle" x="490.62" y="-46.95" font-family="Helvetica,sans-Serif" font-size="10.00">async_completion_s</text>
</a>
</g>
</g>
<!-- Node5&#45;&gt;Node12 -->
<g id="edge15_Node000012_Node000005" class="edge">
<title>Node5&#45;&gt;Node12</title>
<g id="a_edge15_Node000012_Node000005"><a xlink:title=" ">
<path fill="none" stroke="#9a32cd" stroke-dasharray="5,2" d="M352.09,-114.65C362.43,-101.59 377.9,-84.71 395.25,-74.7 408.27,-67.19 423.64,-62.06 438.16,-58.57"/>
<polygon fill="#9a32cd" stroke="#9a32cd" points="349.38,-112.42 346.14,-122.51 354.96,-116.65 349.38,-112.42"/>
</a>
</g>
<text text-anchor="middle" x="407.62" y="-75.2" font-family="Helvetica,sans-Serif" font-size="10.00" fill="grey"> meta</text>
</g>
<!-- Node13 -->
<g id="Node000013" class="node">
<title>Node13</title>
<g id="a_Node000013"><a xlink:href="a02253.html" target="_top" xlink:title=" ">
<polygon fill="white" stroke="#666666" points="543.25,-181.45 438,-181.45 438,-162.95 543.25,-162.95 543.25,-181.45"/>
<text text-anchor="middle" x="490.62" y="-167.95" font-family="Helvetica,sans-Serif" font-size="10.00">async_semaphore_s</text>
</a>
</g>
</g>
<!-- Node5&#45;&gt;Node13 -->
<g id="edge18_Node000013_Node000005" class="edge">
<title>Node5&#45;&gt;Node13</title>
<g id="a_edge18_Node000013_Node000005"><a xlink:title=" ">
<path fill="none" stroke="#9a32cd" stroke-dasharray="5,2" d="M387.4,-145.78C408.4,-151.21 432.59,-157.46 452.16,-162.52"/>
<polygon fill="#9a32cd" stroke="#9a32cd" points="388.46,-142.44 377.9,-143.32 386.7,-149.21 388.46,-142.44"/>
</a>
</g>
<text text-anchor="middle" x="407.62" y="-154.2" font-family="Helvetica,sans-Serif" font-size="10.00" fill="grey"> meta</text>
</g>
<!-- Node6 -->
<g id="Node000006" class="node">
<title>Node6</title>
<g id="a_Node000006"><a xlink:href="a02329.html" target="_top" xlink:title=" ">
<polygon fill="white" stroke="#666666" points="204.88,-264.45 142.38,-264.45 142.38,-245.95 204.88,-245.95 204.88,-264.45"/>
<text text-anchor="middle" x="173.62" y="-250.95" font-family="Helvetica,sans-Serif" font-size="10.00">utils_list_s</text>
</a>
</g>
</g>
<!-- Node6&#45;&gt;Node1 -->
<g id="edge28_Node000001_Node000006" class="edge">
<title>Node6&#45;&gt;Node1</title>
<g id="a_edge28_Node000001_Node000006"><a xlink:title=" ">
<path fill="none" stroke="#9a32cd" stroke-dasharray="5,2" d="M208.1,-269.16C300.59,-306.85 568.24,-410.16 802.25,-444.2 871.7,-454.31 896.75,-459.13 959.25,-427.2 977.12,-418.07 994.36,-402.17 1004.44,-391.92"/>
<polygon fill="#9a32cd" stroke="#9a32cd" points="209.69,-266.02 199.11,-265.47 207.03,-272.5 209.69,-266.02"/>
</a>
</g>
<text text-anchor="middle" x="590.5" y="-407.2" font-family="Helvetica,sans-Serif" font-size="10.00" fill="grey"> vaccels</text>
</g>
<!-- Node6&#45;&gt;Node3 -->
<g id="edge25_Node000003_Node000006" class="edge">
<title>Node6&#45;&gt;Node3</title>
<g id="a_edge25_Node000003_Node000006"><a xlink:title=" ">
<path fill="none" stroke="#9a32cd" stroke-dasharray="5,2" d="M216.45,-257.81C310.18,-263.66 536.71,-277.79 637.59,-284.09"/>
<polygon fill="#9a32cd" stroke="#9a32cd" points="216.88,-254.33 206.68,-257.2 216.44,-261.32 216.88,-254.33"/>
</a>
</g>
<text text-anchor="middle" x="407.62" y="-271.2" font-family="Helvetica,sans-Serif" font-size="10.00" fill="grey"> list</text>
</g>
<!-- Node6&#45;&gt;Node4 -->
<g id="edge21_Node000004_Node000006" class="edge">
<title>Node6&#45;&gt;Node4</title>
<g id="a_edge21_Node000004_Node000006"><a xlink:title=" ">
<path fill="none" stroke="#9a32cd" stroke-dasharray="5,2" d="M216.14,-246.03C248.76,-239.62 295.43,-232.2 336.75,-232.2 336.75,-232.2 336.75,-232.2 689.5,-232.2 800.07,-232.2 928.6,-199.07 984.77,-182.89"/>
<polygon fill="#9a32cd" stroke="#9a32cd" points="215.81,-242.52 206.7,-247.94 217.2,-249.38 215.81,-242.52"/>
</a>
</g>
<text text-anchor="middle" x="590.5" y="-233.2" font-family="Helvetica,sans-Serif" font-size="10.00" fill="grey"> orphan_vacs</text>
</g>
<!-- Node6&#45;&gt;Node5 -->
<g id="edge6_Node000005_Node000006" class="edge">
<title>Node6&#45;&gt;Node5</title>
<g id="a_edge6_Node000005_Node000006"><a xlink:title=" ">
<path fill="none" stroke="#9a32cd" stroke-dasharray="5,2" d="M181.94,-235.1C190.07,-215.47 205.01,-186.11 227,-168.7 238.19,-159.85 270.93,-149.85 297.76,-142.73"/>
<polygon fill="#9a32cd" stroke="#9a32cd" points="178.77,-233.61 178.4,-244.2 185.29,-236.15 178.77,-233.61"/>
</a>
</g>
<text text-anchor="middle" x="253.62" y="-169.2" font-family="Helvetica,sans-Serif" font-size="10.00" fill="grey"> outstanding</text>
</g>
<!-- Node6&#45;&gt;Node13 -->
<g id="edge19_Node000013_Node000006" class="edge">
<title>Node6&#45;&gt;Node13</title>
<g id="a_edge19_Node000013_Node000006"><a xlink:title=" ">
<path fill="none" stroke="#9a32cd" stroke-dasharray="5,2" d="M193.84,-238.52C203.25,-231.19 215.1,-223.15 227,-218.2 296.34,-189.36 383.28,-178.6 437.66,-174.59"/>
<polygon fill="#9a32cd" stroke="#9a32cd" points="191.72,-235.73 186.19,-244.77 196.15,-241.15 191.72,-235.73"/>
</a>
</g>
<text text-anchor="middle" x="337.75" y="-195.2" font-family="Helvetica,sans-Serif" font-size="10.00" fill="grey"> pending_list</text>
</g>
<!-- Node7 -->
<g id="Node000007" class="node">
<title>Node7</title>
<g id="a_Node000007"><a xlink:href="a02325.html" target="_top" xlink:title=" ">
<polygon fill="white" stroke="#666666" points="78.25,-408.45 0,-408.45 0,-389.95 78.25,-389.95 78.25,-408.45"/>
<text text-anchor="middle" x="39.12" y="-394.95" font-family="Helvetica,sans-Serif" font-size="10.00">utils_list_node</text>
</a>
</g>
</g>
<!-- Node7&#45;&gt;Node2 -->
<g id="edge26_Node000002_Node000007" class="edge">
<title>Node7&#45;&gt;Node2</title>
<g id="a_edge26_Node000002_Node000007"><a xlink:title=" ">
<path fill="none" stroke="#9a32cd" stroke-dasharray="5,2" d="M82.28,-411.8C108.11,-418.43 141.99,-425.2 172.62,-425.2 172.62,-425.2 172.62,-425.2 689.5,-425.2 736.69,-425.2 789.89,-409.61 820.74,-398.94"/>
<polygon fill="#9a32cd" stroke="#9a32cd" points="83.4,-408.47 72.84,-409.27 81.6,-415.24 83.4,-408.47"/>
</a>
</g>
<text text-anchor="middle" x="407.62" y="-426.2" font-family="Helvetica,sans-Serif" font-size="10.00" fill="grey"> list</text>
</g>
<!-- Node7&#45;&gt;Node6 -->
<g id="edge7_Node000006_Node000007" class="edge">
<title>Node7&#45;&gt;Node6</title>
<g id="a_edge7_Node000006_Node000007"><a xlink:title=" ">
<path fill="none" stroke="#9a32cd" stroke-dasharray="5,2" d="M56.61,-381.28C84.91,-350.53 141.8,-288.7 163.73,-264.87"/>
<polygon fill="#9a32cd" stroke="#9a32cd" points="54.04,-378.91 49.84,-388.64 59.19,-383.65 54.04,-378.91"/>
</a>
</g>
<text text-anchor="middle" x="108.25" y="-336.2" font-family="Helvetica,sans-Serif" font-size="10.00" fill="grey"> head</text>
</g>
<!-- Node7&#45;&gt;Node7 -->
<g id="edge8_Node000007_Node000007" class="edge">
<title>Node7&#45;&gt;Node7</title>
<g id="a_edge8_Node000007_Node000007"><a xlink:title=" ">
<path fill="none" stroke="#9a32cd" stroke-dasharray="5,2" d="M26.81,-419.82C28.3,-423.71 32.41,-426.45 39.12,-426.45 51.41,-426.45 54.96,-417.27 49.78,-408.7"/>
<polygon fill="#9a32cd" stroke="#9a32cd" points="30.23,-420.6 28.25,-410.19 23.3,-419.57 30.23,-420.6"/>
</a>
</g>
<text text-anchor="middle" x="39.12" y="-437.95" font-family="Helvetica,sans-Serif" font-size="10.00" fill="grey"> next</text>
<text text-anchor="middle" x="39.12" y="-427.45" font-family="Helvetica,sans-Serif" font-size="10.00" fill="grey">prev</text>
</g>
<!-- Node7&#45;&gt;Node12 -->
<g id="edge16_Node000012_Node000007" class="edge">
<title>Node7&#45;&gt;Node12</title>
<g id="a_edge16_Node000012_Node000007"><a xlink:title=" ">
<path fill="none" stroke="#9a32cd" stroke-dasharray="5,2" d="M43.16,-378.43C53.27,-312.3 88.04,-108.69 138.25,-69.2 232.35,4.81 388.33,-23.96 456.28,-41.51"/>
<polygon fill="#9a32cd" stroke="#9a32cd" points="39.71,-377.83 41.69,-388.24 46.63,-378.87 39.71,-377.83"/>
</a>
</g>
<text text-anchor="middle" x="253.62" y="-30.2" font-family="Helvetica,sans-Serif" font-size="10.00" fill="grey"> outstanding</text>
</g>
<!-- Node7&#45;&gt;Node17 -->
<g id="edge33_Node000017_Node000007" class="edge">
<title>Node7&#45;&gt;Node17</title>
<g id="a_edge33_Node000017_Node000007"><a xlink:title=" ">
<path fill="none" stroke="#9a32cd" stroke-dasharray="5,2" d="M52.3,-417.88C73.12,-447.32 118.61,-501.2 172.62,-501.2 172.62,-501.2 172.62,-501.2 1015.5,-501.2 1096.35,-501.2 1148.27,-391.27 1162.22,-357.77"/>
<polygon fill="#9a32cd" stroke="#9a32cd" points="55.36,-416.16 46.84,-409.87 49.57,-420.1 55.36,-416.16"/>
</a>
</g>
<text text-anchor="middle" x="590.5" y="-502.2" font-family="Helvetica,sans-Serif" font-size="10.00" fill="grey"> vaccels</text>
</g>
<!-- Node8 -->
<g id="Node000008" class="node">
<title>Node8</title>
<g id="a_Node000008"><a xlink:href="a02241.html" target="_top" xlink:title=" ">
<polygon fill="white" stroke="#666666" points="201.5,-142.45 145.75,-142.45 145.75,-123.95 201.5,-123.95 201.5,-142.45"/>
<text text-anchor="middle" x="173.62" y="-128.95" font-family="Helvetica,sans-Serif" font-size="10.00">ivshmem</text>
</a>
</g>
</g>
<!-- Node8&#45;&gt;Node5 -->
<g id="edge9_Node000005_Node000008" class="edge">
<title>Node8&#45;&gt;Node5</title>
<g id="a_edge9_Node000005_Node000008"><a xlink:title=" ">
<path fill="none" stroke="#9a32cd" stroke-dasharray="5,2" d="M213.27,-133.2C238.88,-133.2 272.35,-133.2 297.98,-133.2"/>
<polygon fill="#9a32cd" stroke="#9a32cd" points="213.27,-129.7 203.27,-133.2 213.27,-136.7 213.27,-129.7"/>
</a>
</g>
<text text-anchor="middle" x="253.62" y="-134.2" font-family="Helvetica,sans-Serif" font-size="10.00" fill="grey"> regs</text>
</g>
<!-- Node9 -->
<g id="Node000009" class="node">
<title>Node9</title>
<g id="a_Node000009"><a xlink:href="a02197.html" target="_top" xlink:title=" ">
<polygon fill="white" stroke="#666666" points="209,-96.45 138.25,-96.45 138.25,-77.95 209,-77.95 209,-96.45"/>
<text text-anchor="middle" x="173.62" y="-82.95" font-family="Helvetica,sans-Serif" font-size="10.00">arch_alloc_s</text>
</a>
</g>
</g>
<!-- Node9&#45;&gt;Node4 -->
<g id="edge24_Node000004_Node000009" class="edge">
<title>Node9&#45;&gt;Node4</title>
<g id="a_edge24_Node000004_Node000009"><a xlink:title=" ">
<path fill="none" stroke="#9a32cd" stroke-dasharray="5,2" d="M208.28,-73.41C267.53,-49.34 386.18,-2.2 406.62,-2.2 406.62,-2.2 406.62,-2.2 848.75,-2.2 899.1,-2.2 925.15,9.85 959.25,-27.2 998.16,-69.47 944.16,-108.24 977.25,-155.2 979.95,-159.04 983.67,-162.16 987.7,-164.67"/>
<polygon fill="#9a32cd" stroke="#9a32cd" points="207.29,-70.03 199.34,-77.05 209.93,-76.52 207.29,-70.03"/>
</a>
</g>
<text text-anchor="middle" x="590.5" y="-3.2" font-family="Helvetica,sans-Serif" font-size="10.00" fill="grey"> allocator</text>
</g>
<!-- Node9&#45;&gt;Node5 -->
<g id="edge10_Node000005_Node000009" class="edge">
<title>Node9&#45;&gt;Node5</title>
<g id="a_edge10_Node000005_Node000009"><a xlink:title=" ">
<path fill="none" stroke="#9a32cd" stroke-dasharray="5,2" d="M219.43,-99.92C245.69,-107.37 278.34,-116.63 302.53,-123.49"/>
<polygon fill="#9a32cd" stroke="#9a32cd" points="220.64,-96.62 210.07,-97.26 218.73,-103.36 220.64,-96.62"/>
</a>
</g>
<text text-anchor="middle" x="253.62" y="-117.2" font-family="Helvetica,sans-Serif" font-size="10.00" fill="grey"> alloc</text>
</g>
<!-- Node10 -->
<g id="Node000010" class="node">
<title>Node10</title>
<g id="a_Node000010"><a xlink:href="a02301.html" target="_top" xlink:title=" ">
<polygon fill="white" stroke="#666666" points="888.38,-183.45 807.12,-183.45 807.12,-164.95 888.38,-164.95 888.38,-183.45"/>
<text text-anchor="middle" x="847.75" y="-169.95" font-family="Helvetica,sans-Serif" font-size="10.00">arax_throttle_s</text>
</a>
</g>
</g>
<!-- Node10&#45;&gt;Node1 -->
<g id="edge29_Node000001_Node000010" class="edge">
<title>Node10&#45;&gt;Node1</title>
<g id="a_edge29_Node000001_Node000010"><a xlink:title=" ">
<path fill="none" stroke="#9a32cd" stroke-dasharray="5,2" d="M863.21,-192.46C897.04,-235.17 980.42,-340.44 1005.95,-372.67"/>
<polygon fill="#9a32cd" stroke="#9a32cd" points="866.15,-190.53 857.2,-184.87 860.66,-194.88 866.15,-190.53"/>
</a>
</g>
<text text-anchor="middle" x="935.25" y="-309.2" font-family="Helvetica,sans-Serif" font-size="10.00" fill="grey"> throttle</text>
</g>
<!-- Node10&#45;&gt;Node4 -->
<g id="edge11_Node000004_Node000010" class="edge">
<title>Node10&#45;&gt;Node4</title>
<g id="a_edge11_Node000004_Node000010"><a xlink:title=" ">
<path fill="none" stroke="#9a32cd" stroke-dasharray="5,2" d="M899.83,-174.2C927.8,-174.2 961.44,-174.2 984.83,-174.2"/>
<polygon fill="#9a32cd" stroke="#9a32cd" points="900.14,-170.7 890.14,-174.2 900.14,-177.7 900.14,-170.7"/>
</a>
</g>
<text text-anchor="middle" x="935.25" y="-175.2" font-family="Helvetica,sans-Serif" font-size="10.00" fill="grey"> throttle</text>
</g>
<!-- Node11&#45;&gt;Node1 -->
<g id="edge27_Node000001_Node000011" class="edge">
<title>Node11&#45;&gt;Node1</title>
<g id="a_edge27_Node000001_Node000011"><a xlink:title=" ">
<path fill="none" stroke="#9a32cd" stroke-dasharray="5,2" d="M697.64,-168.96C712.94,-203.69 749.3,-275.73 802.25,-315.2 855.15,-354.64 931.98,-371.31 976.94,-378.01"/>
<polygon fill="#9a32cd" stroke="#9a32cd" points="701.01,-167.93 693.86,-160.11 694.57,-170.68 701.01,-167.93"/>
</a>
</g>
<text text-anchor="middle" x="847.75" y="-359.2" font-family="Helvetica,sans-Serif" font-size="10.00" fill="grey"> lock</text>
</g>
<!-- Node11&#45;&gt;Node4 -->
<g id="edge20_Node000004_Node000011" class="edge">
<title>Node11&#45;&gt;Node4</title>
<g id="a_edge20_Node000004_Node000011"><a xlink:title=" ">
<path fill="none" stroke="#9a32cd" stroke-dasharray="5,2" d="M748.49,-138.17C789.34,-132.24 844.86,-127.55 893.25,-135.2 928.37,-140.75 967.19,-154.9 990.97,-164.53"/>
<polygon fill="#9a32cd" stroke="#9a32cd" points="747.96,-134.71 738.61,-139.69 749.02,-141.63 747.96,-134.71"/>
</a>
</g>
<text text-anchor="middle" x="847.75" y="-146.7" font-family="Helvetica,sans-Serif" font-size="10.00" fill="grey"> cntrl_ready_cond</text>
<text text-anchor="middle" x="847.75" y="-136.2" font-family="Helvetica,sans-Serif" font-size="10.00" fill="grey">orphan_cond</text>
</g>
<!-- Node11&#45;&gt;Node10 -->
<g id="edge12_Node000010_Node000011" class="edge">
<title>Node11&#45;&gt;Node10</title>
<g id="a_edge12_Node000010_Node000011"><a xlink:title=" ">
<path fill="none" stroke="#9a32cd" stroke-dasharray="5,2" d="M748.33,-158.56C767.8,-161.65 789,-165.02 806.72,-167.84"/>
<polygon fill="#9a32cd" stroke="#9a32cd" points="749.03,-155.12 738.6,-157.01 747.93,-162.04 749.03,-155.12"/>
</a>
</g>
<text text-anchor="middle" x="770.75" y="-164.2" font-family="Helvetica,sans-Serif" font-size="10.00" fill="grey"> ready</text>
</g>
<!-- Node12&#45;&gt;Node11 -->
<g id="edge14_Node000011_Node000012" class="edge">
<title>Node12&#45;&gt;Node11</title>
<g id="a_edge14_Node000011_Node000012"><a xlink:title=" ">
<path fill="none" stroke="#9a32cd" stroke-dasharray="5,2" d="M525.11,-65.4C551.22,-76.73 588.21,-93.36 619.75,-109.7 638,-119.16 658.3,-131.2 671.87,-139.49"/>
<polygon fill="#9a32cd" stroke="#9a32cd" points="526.59,-62.23 516.02,-61.48 523.82,-68.66 526.59,-62.23"/>
</a>
</g>
<text text-anchor="middle" x="590.5" y="-110.2" font-family="Helvetica,sans-Serif" font-size="10.00" fill="grey"> mutex</text>
</g>
<!-- Node13&#45;&gt;Node11 -->
<g id="edge17_Node000011_Node000013" class="edge">
<title>Node13&#45;&gt;Node11</title>
<g id="a_edge17_Node000011_Node000013"><a xlink:title=" ">
<path fill="none" stroke="#9a32cd" stroke-dasharray="5,2" d="M554.77,-164.79C582.44,-161.54 614.37,-157.79 639.98,-154.78"/>
<polygon fill="#9a32cd" stroke="#9a32cd" points="554.63,-161.28 545.1,-165.92 555.44,-168.23 554.63,-161.28"/>
</a>
</g>
<text text-anchor="middle" x="590.5" y="-164.2" font-family="Helvetica,sans-Serif" font-size="10.00" fill="grey"> semaphore</text>
</g>
<!-- Node14 -->
<g id="Node000014" class="node">
<title>Node14</title>
<g id="a_Node000014"><a xlink:href="a02317.html" target="_top" xlink:title=" ">
<polygon fill="white" stroke="#666666" points="877.88,-52.45 817.62,-52.45 817.62,-33.95 877.88,-33.95 877.88,-52.45"/>
<text text-anchor="middle" x="847.75" y="-38.95" font-family="Helvetica,sans-Serif" font-size="10.00">utils_kv_s</text>
</a>
</g>
</g>
<!-- Node14&#45;&gt;Node4 -->
<g id="edge22_Node000004_Node000014" class="edge">
<title>Node14&#45;&gt;Node4</title>
<g id="a_edge22_Node000004_Node000014"><a xlink:title=" ">
<path fill="none" stroke="#9a32cd" stroke-dasharray="5,2" d="M889.44,-32.25C912.55,-28.62 940.51,-28.98 959.25,-45.2 996.71,-77.62 948.26,-115.03 977.25,-155.2 979.99,-159.01 983.73,-162.11 987.77,-164.62"/>
<polygon fill="#9a32cd" stroke="#9a32cd" points="888.88,-28.79 879.7,-34.09 890.17,-35.67 888.88,-28.79"/>
</a>
</g>
<text text-anchor="middle" x="935.25" y="-56.7" font-family="Helvetica,sans-Serif" font-size="10.00" fill="grey"> ass_kv</text>
<text text-anchor="middle" x="935.25" y="-46.2" font-family="Helvetica,sans-Serif" font-size="10.00" fill="grey">metrics_kv</text>
</g>
<!-- Node15 -->
<g id="Node000015" class="node">
<title>Node15</title>
<g id="a_Node000015"><a xlink:href="a02321.html" target="_top" xlink:title=" ">
<polygon fill="white" stroke="#666666" points="705.12,-52.45 671.88,-52.45 671.88,-33.95 705.12,-33.95 705.12,-52.45"/>
<text text-anchor="middle" x="688.5" y="-38.95" font-family="Helvetica,sans-Serif" font-size="10.00">Pair</text>
</a>
</g>
</g>
<!-- Node15&#45;&gt;Node14 -->
<g id="edge23_Node000014_Node000015" class="edge">
<title>Node15&#45;&gt;Node14</title>
<g id="a_edge23_Node000014_Node000015"><a xlink:title=" ">
<path fill="none" stroke="#9a32cd" stroke-dasharray="5,2" d="M716.77,-43.2C744.79,-43.2 788.29,-43.2 817.14,-43.2"/>
<polygon fill="#9a32cd" stroke="#9a32cd" points="716.96,-39.7 706.96,-43.2 716.96,-46.7 716.96,-39.7"/>
</a>
</g>
<text text-anchor="middle" x="770.75" y="-44.2" font-family="Helvetica,sans-Serif" font-size="10.00" fill="grey"> kv</text>
</g>
<!-- Node16 -->
<g id="Node000016" class="node">
<title>Node16</title>
<g id="a_Node000016"><a xlink:href="a02345.html" target="_top" xlink:title=" ">
<polygon fill="white" stroke="#666666" points="893.25,-435.45 802.25,-435.45 802.25,-416.95 893.25,-416.95 893.25,-435.45"/>
<text text-anchor="middle" x="847.75" y="-421.95" font-family="Helvetica,sans-Serif" font-size="10.00">arax_accel_stats</text>
</a>
</g>
</g>
<!-- Node16&#45;&gt;Node1 -->
<g id="edge30_Node000001_Node000016" class="edge">
<title>Node16&#45;&gt;Node1</title>
<g id="a_edge30_Node000001_Node000016"><a xlink:title=" ">
<path fill="none" stroke="#9a32cd" stroke-dasharray="5,2" d="M904.89,-414.81C922.41,-410.9 941.73,-406.24 959.25,-401.2 968.65,-398.5 978.8,-395.09 987.76,-391.9"/>
<polygon fill="#9a32cd" stroke="#9a32cd" points="904.17,-411.38 895.15,-416.94 905.67,-418.22 904.17,-411.38"/>
</a>
</g>
<text text-anchor="middle" x="935.25" y="-413.2" font-family="Helvetica,sans-Serif" font-size="10.00" fill="grey"> stats</text>
</g>
<!-- Node17&#45;&gt;Node1 -->
<g id="edge31_Node000001_Node000017" class="edge">
<title>Node17&#45;&gt;Node1</title>
<g id="a_edge31_Node000001_Node000017"><a xlink:title=" ">
<path fill="none" stroke="#9a32cd" stroke-dasharray="5,2" d="M1116.04,-359.49C1095.09,-364.22 1071.18,-369.62 1051.93,-373.97"/>
<polygon fill="#9a32cd" stroke="#9a32cd" points="1116.55,-362.96 1125.53,-357.34 1115.01,-356.13 1116.55,-362.96"/>
</a>
</g>
<text text-anchor="middle" x="1089.62" y="-370.2" font-family="Helvetica,sans-Serif" font-size="10.00" fill="grey"> free_vaq</text>
</g>
<!-- Node18 -->
<g id="Node000018" class="node">
<title>Node18</title>
<g id="a_Node000018"><a xlink:href="a02333.html" target="_top" xlink:title=" ">
<polygon fill="white" stroke="#666666" points="1035.62,-146.45 993.38,-146.45 993.38,-127.95 1035.62,-127.95 1035.62,-146.45"/>
<text text-anchor="middle" x="1014.5" y="-132.95" font-family="Helvetica,sans-Serif" font-size="10.00">queue</text>
</a>
</g>
</g>
<!-- Node18&#45;&gt;Node17 -->
<g id="edge35_Node000017_Node000018" class="edge">
<title>Node18&#45;&gt;Node17</title>
<g id="a_edge35_Node000017_Node000018"><a xlink:title=" ">
<path fill="none" stroke="#9a32cd" stroke-dasharray="5,2" d="M1045.73,-151.31C1047.87,-152.83 1049.91,-154.46 1051.75,-156.2 1111.73,-213.02 1150.99,-308.21 1162.49,-338.58"/>
<polygon fill="#9a32cd" stroke="#9a32cd" points="1047.65,-148.38 1037.28,-146.23 1044.05,-154.38 1047.65,-148.38"/>
</a>
</g>
<text text-anchor="middle" x="1089.62" y="-228.2" font-family="Helvetica,sans-Serif" font-size="10.00" fill="grey"> queue</text>
</g>
</g>
</svg>
