<?xml version="1.0" encoding="UTF-8" standalone="no"?>
<!DOCTYPE svg PUBLIC "-//W3C//DTD SVG 1.1//EN"
 "http://www.w3.org/Graphics/SVG/1.1/DTD/svg11.dtd">
<!-- Generated by graphviz version 8.0.5 (0)
 -->
<!-- Title: arax_object_repo_s Pages: 1 -->
<svg width="629pt" height="432pt"
 viewBox="0.00 0.00 629.12 432.00" xmlns="http://www.w3.org/2000/svg" xmlns:xlink="http://www.w3.org/1999/xlink">
<g id="graph0" class="graph" transform="scale(1 1) rotate(0) translate(4 428)">
<title>arax_object_repo_s</title>
<!-- Node1 -->
<g id="Node000001" class="node">
<title>Node1</title>
<g id="a_Node000001"><a xlink:title=" ">
<polygon fill="#999999" stroke="#666666" points="129.75,-291.5 28.25,-291.5 28.25,-273 129.75,-273 129.75,-291.5"/>
<text text-anchor="middle" x="79" y="-278" font-family="Helvetica,sans-Serif" font-size="10.00">arax_object_repo_s</text>
</a>
</g>
</g>
<!-- Node2 -->
<g id="Node000002" class="node">
<title>Node2</title>
<g id="a_Node000002"><a xlink:href="a02326.html" target="_top" xlink:title=" ">
<polygon fill="white" stroke="#666666" points="251.38,-18.5 192.62,-18.5 192.62,0 251.38,0 251.38,-18.5"/>
<text text-anchor="middle" x="222" y="-5" font-family="Helvetica,sans-Serif" font-size="10.00">arax_pipe</text>
</a>
</g>
</g>
<!-- Node1&#45;&gt;Node2 -->
<g id="edge2_Node000002_Node000001" class="edge">
<title>Node1&#45;&gt;Node2</title>
<g id="a_edge2_Node000002_Node000001"><a xlink:title=" ">
<path fill="none" stroke="#9a32cd" stroke-dasharray="5,2" d="M76.66,-261.84C75.36,-249.4 74,-232.9 74,-218.25 74,-218.25 74,-218.25 74,-85 74,-32.47 149.22,-16.85 192.41,-12.21"/>
<polygon fill="#9a32cd" stroke="#9a32cd" points="73.29,-262.16 77.89,-271.71 80.24,-261.38 73.29,-262.16"/>
</a>
</g>
<text text-anchor="middle" x="84.5" y="-148" font-family="Helvetica,sans-Serif" font-size="10.00" fill="grey"> objs</text>
</g>
<!-- Node2&#45;&gt;Node1 -->
<g id="edge1_Node000001_Node000002" class="edge">
<title>Node2&#45;&gt;Node1</title>
<g id="a_edge1_Node000001_Node000002"><a xlink:title=" ">
<path fill="none" stroke="#9a32cd" stroke-dasharray="5,2" d="M186.32,-23.13C160.82,-34.88 131,-55.04 131,-85 131,-218.25 131,-218.25 131,-218.25 131,-242.22 108.34,-262 92.94,-272.67"/>
<polygon fill="#9a32cd" stroke="#9a32cd" points="187.37,-26.06 195.17,-18.89 184.6,-19.63 187.37,-26.06"/>
</a>
</g>
<text text-anchor="middle" x="141.5" y="-148" font-family="Helvetica,sans-Serif" font-size="10.00" fill="grey"> pipe</text>
</g>
<!-- Node3 -->
<g id="Node000003" class="node">
<title>Node3</title>
<g id="a_Node000003"><a xlink:href="a02230.html" target="_top" xlink:title=" ">
<polygon fill="white" stroke="#666666" points="339.5,-291.5 260.5,-291.5 260.5,-273 339.5,-273 339.5,-291.5"/>
<text text-anchor="middle" x="300" y="-278" font-family="Helvetica,sans-Serif" font-size="10.00">async_meta_s</text>
</a>
</g>
</g>
<!-- Node3&#45;&gt;Node2 -->
<g id="edge3_Node000002_Node000003" class="edge">
<title>Node3&#45;&gt;Node2</title>
<g id="a_edge3_Node000002_Node000003"><a xlink:title=" ">
<path fill="none" stroke="#9a32cd" stroke-dasharray="5,2" d="M264.81,-268.39C231.97,-253.86 188,-226.74 188,-185.75 188,-185.75 188,-185.75 188,-85 188,-59.05 205.18,-32.22 215.12,-18.87"/>
<polygon fill="#9a32cd" stroke="#9a32cd" points="263.01,-271.85 273.59,-272.5 265.72,-265.4 263.01,-271.85"/>
</a>
</g>
<text text-anchor="middle" x="202.25" y="-148" font-family="Helvetica,sans-Serif" font-size="10.00" fill="grey"> async</text>
</g>
<!-- Node9 -->
<g id="Node000009" class="node">
<title>Node9</title>
<g id="a_Node000009"><a xlink:href="a02242.html" target="_top" xlink:title=" ">
<polygon fill="white" stroke="#666666" points="382.12,-161.5 285.88,-161.5 285.88,-143 382.12,-143 382.12,-161.5"/>
<text text-anchor="middle" x="334" y="-148" font-family="Helvetica,sans-Serif" font-size="10.00">async_condition_s</text>
</a>
</g>
</g>
<!-- Node3&#45;&gt;Node9 -->
<g id="edge11_Node000009_Node000003" class="edge">
<title>Node3&#45;&gt;Node9</title>
<g id="a_edge11_Node000009_Node000003"><a xlink:title=" ">
<path fill="none" stroke="#9a32cd" stroke-dasharray="5,2" d="M312.15,-263.69C323.45,-246.02 339.24,-217.53 344,-190 345.69,-180.23 341.97,-169.29 338.59,-161.91"/>
<polygon fill="#9a32cd" stroke="#9a32cd" points="308.75,-261.48 306.13,-271.75 314.58,-265.35 308.75,-261.48"/>
</a>
</g>
<text text-anchor="middle" x="352.38" y="-213" font-family="Helvetica,sans-Serif" font-size="10.00" fill="grey"> meta</text>
</g>
<!-- Node10 -->
<g id="Node000010" class="node">
<title>Node10</title>
<g id="a_Node000010"><a xlink:href="a02234.html" target="_top" xlink:title=" ">
<polygon fill="white" stroke="#666666" points="505.25,-226.5 400.75,-226.5 400.75,-208 505.25,-208 505.25,-226.5"/>
<text text-anchor="middle" x="453" y="-213" font-family="Helvetica,sans-Serif" font-size="10.00">async_completion_s</text>
</a>
</g>
</g>
<!-- Node3&#45;&gt;Node10 -->
<g id="edge13_Node000010_Node000003" class="edge">
<title>Node3&#45;&gt;Node10</title>
<g id="a_edge13_Node000010_Node000003"><a xlink:title=" ">
<path fill="none" stroke="#9a32cd" stroke-dasharray="5,2" d="M335.47,-268.93C347.18,-264.7 360.21,-259.81 372,-255 393.87,-246.07 418.53,-234.68 434.84,-226.97"/>
<polygon fill="#9a32cd" stroke="#9a32cd" points="334.41,-265.94 326.17,-272.6 336.77,-272.54 334.41,-265.94"/>
</a>
</g>
<text text-anchor="middle" x="407.38" y="-245.5" font-family="Helvetica,sans-Serif" font-size="10.00" fill="grey"> meta</text>
</g>
<!-- Node11 -->
<g id="Node000011" class="node">
<title>Node11</title>
<g id="a_Node000011"><a xlink:href="a02238.html" target="_top" xlink:title=" ">
<polygon fill="white" stroke="#666666" points="321.62,-226.5 216.38,-226.5 216.38,-208 321.62,-208 321.62,-226.5"/>
<text text-anchor="middle" x="269" y="-213" font-family="Helvetica,sans-Serif" font-size="10.00">async_semaphore_s</text>
</a>
</g>
</g>
<!-- Node3&#45;&gt;Node11 -->
<g id="edge16_Node000011_Node000003" class="edge">
<title>Node3&#45;&gt;Node11</title>
<g id="a_edge16_Node000011_Node000003"><a xlink:title=" ">
<path fill="none" stroke="#9a32cd" stroke-dasharray="5,2" d="M291.14,-263.24C285.21,-251.19 277.69,-235.91 273.11,-226.61"/>
<polygon fill="#9a32cd" stroke="#9a32cd" points="288.26,-264.33 295.82,-271.75 294.54,-261.24 288.26,-264.33"/>
</a>
</g>
<text text-anchor="middle" x="299.38" y="-245.5" font-family="Helvetica,sans-Serif" font-size="10.00" fill="grey"> meta</text>
</g>
<!-- Node4 -->
<g id="Node000004" class="node">
<title>Node4</title>
<g id="a_Node000004"><a xlink:href="a02314.html" target="_top" xlink:title=" ">
<polygon fill="white" stroke="#666666" points="197.25,-356.5 134.75,-356.5 134.75,-338 197.25,-338 197.25,-356.5"/>
<text text-anchor="middle" x="166" y="-343" font-family="Helvetica,sans-Serif" font-size="10.00">utils_list_s</text>
</a>
</g>
</g>
<!-- Node4&#45;&gt;Node1 -->
<g id="edge23_Node000001_Node000004" class="edge">
<title>Node4&#45;&gt;Node1</title>
<g id="a_edge23_Node000001_Node000004"><a xlink:title=" ">
<path fill="none" stroke="#9a32cd" stroke-dasharray="5,2" d="M145.59,-331.47C128.56,-319.14 104.88,-301.99 90.83,-291.81"/>
<polygon fill="#9a32cd" stroke="#9a32cd" points="143.11,-334.72 153.27,-337.75 147.22,-329.05 143.11,-334.72"/>
</a>
</g>
<text text-anchor="middle" x="135.88" y="-310.5" font-family="Helvetica,sans-Serif" font-size="10.00" fill="grey"> list</text>
</g>
<!-- Node4&#45;&gt;Node2 -->
<g id="edge19_Node000002_Node000004" class="edge">
<title>Node4&#45;&gt;Node2</title>
<g id="a_edge19_Node000002_Node000004"><a xlink:title=" ">
<path fill="none" stroke="#9a32cd" stroke-dasharray="5,2" d="M123.71,-338.83C74.52,-328.98 0,-309.69 0,-283.25 0,-283.25 0,-283.25 0,-85 0,-44.84 132.13,-22.16 192.52,-13.88"/>
<polygon fill="#9a32cd" stroke="#9a32cd" points="122.9,-342.44 133.39,-340.91 124.24,-335.57 122.9,-342.44"/>
</a>
</g>
<text text-anchor="middle" x="29.25" y="-180.5" font-family="Helvetica,sans-Serif" font-size="10.00" fill="grey"> orphan_vacs</text>
</g>
<!-- Node4&#45;&gt;Node3 -->
<g id="edge4_Node000003_Node000004" class="edge">
<title>Node4&#45;&gt;Node3</title>
<g id="a_edge4_Node000003_Node000004"><a xlink:title=" ">
<path fill="none" stroke="#9a32cd" stroke-dasharray="5,2" d="M193.83,-332.79C208.38,-325.78 226.5,-317.12 242.75,-309.5 255.42,-303.56 269.74,-297 280.88,-291.92"/>
<polygon fill="#9a32cd" stroke="#9a32cd" points="192.44,-330.06 184.95,-337.55 195.48,-336.36 192.44,-330.06"/>
</a>
</g>
<text text-anchor="middle" x="269.62" y="-310.5" font-family="Helvetica,sans-Serif" font-size="10.00" fill="grey"> outstanding</text>
</g>
<!-- Node4&#45;&gt;Node11 -->
<g id="edge17_Node000011_Node000004" class="edge">
<title>Node4&#45;&gt;Node11</title>
<g id="a_edge17_Node000011_Node000004"><a xlink:title=" ">
<path fill="none" stroke="#9a32cd" stroke-dasharray="5,2" d="M170.78,-327.31C175.42,-311.61 183.63,-289.3 196.25,-273 211.83,-252.87 236.58,-236.41 252.82,-226.96"/>
<polygon fill="#9a32cd" stroke="#9a32cd" points="167.17,-326.25 167.92,-336.82 173.93,-328.09 167.17,-326.25"/>
</a>
</g>
<text text-anchor="middle" x="224.38" y="-278" font-family="Helvetica,sans-Serif" font-size="10.00" fill="grey"> pending_list</text>
</g>
<!-- Node5 -->
<g id="Node000005" class="node">
<title>Node5</title>
<g id="a_Node000005"><a xlink:href="a02310.html" target="_top" xlink:title=" ">
<polygon fill="white" stroke="#666666" points="407.12,-422.75 328.88,-422.75 328.88,-404.25 407.12,-404.25 407.12,-422.75"/>
<text text-anchor="middle" x="368" y="-409.25" font-family="Helvetica,sans-Serif" font-size="10.00">utils_list_node</text>
</a>
</g>
</g>
<!-- Node5&#45;&gt;Node4 -->
<g id="edge5_Node000004_Node000005" class="edge">
<title>Node5&#45;&gt;Node4</title>
<g id="a_edge5_Node000004_Node000005"><a xlink:title=" ">
<path fill="none" stroke="#9a32cd" stroke-dasharray="5,2" d="M330.41,-400.55C290.65,-387.9 228.88,-368.25 193.46,-356.98"/>
<polygon fill="#9a32cd" stroke="#9a32cd" points="329.17,-404.14 339.76,-403.83 331.29,-397.47 329.17,-404.14"/>
</a>
</g>
<text text-anchor="middle" x="292" y="-375.5" font-family="Helvetica,sans-Serif" font-size="10.00" fill="grey"> head</text>
</g>
<!-- Node5&#45;&gt;Node5 -->
<g id="edge6_Node000005_Node000005" class="edge">
<title>Node5&#45;&gt;Node5</title>
<g id="a_edge6_Node000005_Node000005"><a xlink:title=" ">
<path fill="none" stroke="#9a32cd" stroke-dasharray="5,2" d="M418.19,-418.42C422.46,-417.37 425.12,-415.73 425.12,-413.5 425.12,-409.74 417.57,-407.66 407.51,-407.25"/>
<polygon fill="#9a32cd" stroke="#9a32cd" points="418,-415.04 408.51,-419.75 418.87,-421.99 418,-415.04"/>
</a>
</g>
<text text-anchor="middle" x="436" y="-414.5" font-family="Helvetica,sans-Serif" font-size="10.00" fill="grey"> next</text>
<text text-anchor="middle" x="436" y="-404" font-family="Helvetica,sans-Serif" font-size="10.00" fill="grey">prev</text>
</g>
<!-- Node5&#45;&gt;Node10 -->
<g id="edge14_Node000010_Node000005" class="edge">
<title>Node5&#45;&gt;Node10</title>
<g id="a_edge14_Node000010_Node000005"><a xlink:title=" ">
<path fill="none" stroke="#9a32cd" stroke-dasharray="5,2" d="M418.01,-411.7C459.54,-408.09 516.43,-395.66 546,-356.5 581.73,-309.17 500.6,-248.99 466.86,-226.89"/>
<polygon fill="#9a32cd" stroke="#9a32cd" points="418,-408.27 408.28,-412.47 418.5,-415.25 418,-408.27"/>
</a>
</g>
<text text-anchor="middle" x="580.62" y="-310.5" font-family="Helvetica,sans-Serif" font-size="10.00" fill="grey"> outstanding</text>
</g>
<!-- Node6 -->
<g id="Node000006" class="node">
<title>Node6</title>
<g id="a_Node000006"><a xlink:href="a02226.html" target="_top" xlink:title=" ">
<polygon fill="white" stroke="#666666" points="327.88,-356.5 272.12,-356.5 272.12,-338 327.88,-338 327.88,-356.5"/>
<text text-anchor="middle" x="300" y="-343" font-family="Helvetica,sans-Serif" font-size="10.00">ivshmem</text>
</a>
</g>
</g>
<!-- Node6&#45;&gt;Node3 -->
<g id="edge7_Node000003_Node000006" class="edge">
<title>Node6&#45;&gt;Node3</title>
<g id="a_edge7_Node000003_Node000006"><a xlink:title=" ">
<path fill="none" stroke="#9a32cd" stroke-dasharray="5,2" d="M300,-326.76C300,-314.97 300,-300.53 300,-291.61"/>
<polygon fill="#9a32cd" stroke="#9a32cd" points="296.5,-326.75 300,-336.75 303.5,-326.75 296.5,-326.75"/>
</a>
</g>
<text text-anchor="middle" x="310.88" y="-310.5" font-family="Helvetica,sans-Serif" font-size="10.00" fill="grey"> regs</text>
</g>
<!-- Node7 -->
<g id="Node000007" class="node">
<title>Node7</title>
<g id="a_Node000007"><a xlink:href="a02182.html" target="_top" xlink:title=" ">
<polygon fill="white" stroke="#666666" points="537.38,-356.5 466.62,-356.5 466.62,-338 537.38,-338 537.38,-356.5"/>
<text text-anchor="middle" x="502" y="-343" font-family="Helvetica,sans-Serif" font-size="10.00">arch_alloc_s</text>
</a>
</g>
</g>
<!-- Node7&#45;&gt;Node2 -->
<g id="edge22_Node000002_Node000007" class="edge">
<title>Node7&#45;&gt;Node2</title>
<g id="a_edge22_Node000002_Node000007"><a xlink:title=" ">
<path fill="none" stroke="#9a32cd" stroke-dasharray="5,2" d="M515.81,-328.97C524.08,-316.89 533,-299.99 533,-283.25 533,-283.25 533,-283.25 533,-85 533,-27.53 329.66,-14.12 251.82,-11.1"/>
<polygon fill="#9a32cd" stroke="#9a32cd" points="512.62,-326.4 509.5,-336.53 518.26,-330.56 512.62,-326.4"/>
</a>
</g>
<text text-anchor="middle" x="552.88" y="-180.5" font-family="Helvetica,sans-Serif" font-size="10.00" fill="grey"> allocator</text>
</g>
<!-- Node7&#45;&gt;Node3 -->
<g id="edge8_Node000003_Node000007" class="edge">
<title>Node7&#45;&gt;Node3</title>
<g id="a_edge8_Node000003_Node000007"><a xlink:title=" ">
<path fill="none" stroke="#9a32cd" stroke-dasharray="5,2" d="M464.03,-334.41C424.45,-322.06 363.37,-303.01 327.98,-291.98"/>
<polygon fill="#9a32cd" stroke="#9a32cd" points="462.75,-337.99 473.34,-337.62 464.83,-331.3 462.75,-337.99"/>
</a>
</g>
<text text-anchor="middle" x="425.62" y="-310.5" font-family="Helvetica,sans-Serif" font-size="10.00" fill="grey"> alloc</text>
</g>
<!-- Node8 -->
<g id="Node000008" class="node">
<title>Node8</title>
<g id="a_Node000008"><a xlink:href="a02286.html" target="_top" xlink:title=" ">
<polygon fill="white" stroke="#666666" points="297.62,-95.25 216.38,-95.25 216.38,-76.75 297.62,-76.75 297.62,-95.25"/>
<text text-anchor="middle" x="257" y="-81.75" font-family="Helvetica,sans-Serif" font-size="10.00">arax_throttle_s</text>
</a>
</g>
</g>
<!-- Node8&#45;&gt;Node2 -->
<g id="edge9_Node000002_Node000008" class="edge">
<title>Node8&#45;&gt;Node2</title>
<g id="a_edge9_Node000002_Node000008"><a xlink:title=" ">
<path fill="none" stroke="#9a32cd" stroke-dasharray="5,2" d="M248.35,-66.53C241.2,-51.26 231.38,-30.27 225.97,-18.72"/>
<polygon fill="#9a32cd" stroke="#9a32cd" points="245.57,-67.85 252.99,-75.43 251.91,-64.88 245.57,-67.85"/>
</a>
</g>
<text text-anchor="middle" x="260.5" y="-42.75" font-family="Helvetica,sans-Serif" font-size="10.00" fill="grey"> throttle</text>
</g>
<!-- Node9&#45;&gt;Node2 -->
<g id="edge18_Node000002_Node000009" class="edge">
<title>Node9&#45;&gt;Node2</title>
<g id="a_edge18_Node000002_Node000009"><a xlink:title=" ">
<path fill="none" stroke="#9a32cd" stroke-dasharray="5,2" d="M330.37,-131.98C324.52,-106.36 310.54,-61.42 281,-36.5 272,-28.91 260.46,-23.13 249.97,-18.95"/>
<polygon fill="#9a32cd" stroke="#9a32cd" points="327.1,-132.46 332.56,-141.54 333.95,-131.04 327.1,-132.46"/>
</a>
</g>
<text text-anchor="middle" x="358.62" y="-87" font-family="Helvetica,sans-Serif" font-size="10.00" fill="grey"> cntrl_ready_cond</text>
<text text-anchor="middle" x="358.62" y="-76.5" font-family="Helvetica,sans-Serif" font-size="10.00" fill="grey">orphan_cond</text>
</g>
<!-- Node9&#45;&gt;Node8 -->
<g id="edge10_Node000008_Node000009" class="edge">
<title>Node9&#45;&gt;Node8</title>
<g id="a_edge10_Node000008_Node000009"><a xlink:title=" ">
<path fill="none" stroke="#9a32cd" stroke-dasharray="5,2" d="M309.5,-136.94C303.89,-133.3 298.09,-129.21 293,-125 282.07,-115.97 271.1,-103.83 264.19,-95.73"/>
<polygon fill="#9a32cd" stroke="#9a32cd" points="307.25,-140.29 317.59,-142.6 310.95,-134.35 307.25,-140.29"/>
</a>
</g>
<text text-anchor="middle" x="306.5" y="-115.5" font-family="Helvetica,sans-Serif" font-size="10.00" fill="grey"> ready</text>
</g>
<!-- Node10&#45;&gt;Node9 -->
<g id="edge12_Node000009_Node000010" class="edge">
<title>Node10&#45;&gt;Node9</title>
<g id="a_edge12_Node000009_Node000010"><a xlink:title=" ">
<path fill="none" stroke="#9a32cd" stroke-dasharray="5,2" d="M427.32,-202.66C403.9,-190.26 370.02,-172.32 350.17,-161.81"/>
<polygon fill="#9a32cd" stroke="#9a32cd" points="425.48,-206.17 435.95,-207.75 428.75,-199.98 425.48,-206.17"/>
</a>
</g>
<text text-anchor="middle" x="416" y="-180.5" font-family="Helvetica,sans-Serif" font-size="10.00" fill="grey"> mutex</text>
</g>
<!-- Node11&#45;&gt;Node9 -->
<g id="edge15_Node000009_Node000011" class="edge">
<title>Node11&#45;&gt;Node9</title>
<g id="a_edge15_Node000009_Node000011"><a xlink:title=" ">
<path fill="none" stroke="#9a32cd" stroke-dasharray="5,2" d="M278.57,-198.36C282.51,-191.97 287.46,-184.99 293,-179.5 300.08,-172.48 309.35,-166.35 317.28,-161.79"/>
<polygon fill="#9a32cd" stroke="#9a32cd" points="275.19,-196.22 273.26,-206.64 281.27,-199.7 275.19,-196.22"/>
</a>
</g>
<text text-anchor="middle" x="318.5" y="-180.5" font-family="Helvetica,sans-Serif" font-size="10.00" fill="grey"> semaphore</text>
</g>
<!-- Node12 -->
<g id="Node000012" class="node">
<title>Node12</title>
<g id="a_Node000012"><a xlink:href="a02302.html" target="_top" xlink:title=" ">
<polygon fill="white" stroke="#666666" points="621.12,-95.25 560.88,-95.25 560.88,-76.75 621.12,-76.75 621.12,-95.25"/>
<text text-anchor="middle" x="591" y="-81.75" font-family="Helvetica,sans-Serif" font-size="10.00">utils_kv_s</text>
</a>
</g>
</g>
<!-- Node12&#45;&gt;Node2 -->
<g id="edge20_Node000002_Node000012" class="edge">
<title>Node12&#45;&gt;Node2</title>
<g id="a_edge20_Node000002_Node000012"><a xlink:title=" ">
<path fill="none" stroke="#9a32cd" stroke-dasharray="5,2" d="M579.99,-67.22C572.21,-56.34 560.75,-43.26 547,-36.5 495.51,-11.16 321.72,-9.49 251.65,-9.9"/>
<polygon fill="#9a32cd" stroke="#9a32cd" points="577.6,-68.95 586.05,-75.34 583.43,-65.07 577.6,-68.95"/>
</a>
</g>
<text text-anchor="middle" x="596" y="-48" font-family="Helvetica,sans-Serif" font-size="10.00" fill="grey"> ass_kv</text>
<text text-anchor="middle" x="596" y="-37.5" font-family="Helvetica,sans-Serif" font-size="10.00" fill="grey">metrics_kv</text>
</g>
<!-- Node13 -->
<g id="Node000013" class="node">
<title>Node13</title>
<g id="a_Node000013"><a xlink:href="a02306.html" target="_top" xlink:title=" ">
<polygon fill="white" stroke="#666666" points="607.62,-161.5 574.38,-161.5 574.38,-143 607.62,-143 607.62,-161.5"/>
<text text-anchor="middle" x="591" y="-148" font-family="Helvetica,sans-Serif" font-size="10.00">Pair</text>
</a>
</g>
</g>
<!-- Node13&#45;&gt;Node12 -->
<g id="edge21_Node000012_Node000013" class="edge">
<title>Node13&#45;&gt;Node12</title>
<g id="a_edge21_Node000012_Node000013"><a xlink:title=" ">
<path fill="none" stroke="#9a32cd" stroke-dasharray="5,2" d="M591,-131.75C591,-119.66 591,-104.72 591,-95.53"/>
<polygon fill="#9a32cd" stroke="#9a32cd" points="587.5,-131.58 591,-141.58 594.5,-131.58 587.5,-131.58"/>
</a>
</g>
<text text-anchor="middle" x="597.75" y="-115.5" font-family="Helvetica,sans-Serif" font-size="10.00" fill="grey"> kv</text>
</g>
</g>
</svg>
