<?xml version="1.0" encoding="UTF-8" standalone="no"?>
<!DOCTYPE svg PUBLIC "-//W3C//DTD SVG 1.1//EN"
 "http://www.w3.org/Graphics/SVG/1.1/DTD/svg11.dtd">
<!-- Generated by graphviz version 8.0.5 (0)
 -->
<!-- Title: arax_accel_s Pages: 1 -->
<svg width="1215pt" height="520pt"
 viewBox="0.00 0.00 1214.50 519.70" xmlns="http://www.w3.org/2000/svg" xmlns:xlink="http://www.w3.org/1999/xlink">
<g id="graph0" class="graph" transform="scale(1 1) rotate(0) translate(4 515.7)">
<title>arax_accel_s</title>
<!-- Node1 -->
<g id="Node000001" class="node">
<title>Node1</title>
<g id="a_Node000001"><a xlink:title=" ">
<polygon fill="#999999" stroke="#666666" points="1051.75,-391.45 977.25,-391.45 977.25,-372.95 1051.75,-372.95 1051.75,-391.45"/>
<text text-anchor="middle" x="1014.5" y="-377.95" font-family="Helvetica,sans-Serif" font-size="10.00">arax_accel_s</text>
</a>
</g>
</g>
<!-- Node17 -->
<g id="Node000017" class="node">
<title>Node17</title>
<g id="a_Node000017"><a xlink:href="a02290.html" target="_top" xlink:title=" ">
<polygon fill="white" stroke="#666666" points="1206.5,-357.45 1127.5,-357.45 1127.5,-338.95 1206.5,-338.95 1206.5,-357.45"/>
<text text-anchor="middle" x="1167" y="-343.95" font-family="Helvetica,sans-Serif" font-size="10.00">arax_vaccel_s</text>
</a>
</g>
</g>
<!-- Node1&#45;&gt;Node17 -->
<g id="edge34_Node000017_Node000001" class="edge">
<title>Node1&#45;&gt;Node17</title>
<g id="a_edge34_Node000017_Node000001"><a xlink:title=" ">
<path fill="none" stroke="#9a32cd" stroke-dasharray="5,2" d="M1034.72,-366.18C1044.54,-359.03 1057.08,-351.39 1069.75,-347.7 1088.2,-342.33 1109.5,-341.89 1127.36,-343.03"/>
<polygon fill="#9a32cd" stroke="#9a32cd" points="1032.99,-363.87 1027.21,-372.75 1037.27,-369.41 1032.99,-363.87"/>
</a>
</g>
<text text-anchor="middle" x="1089.62" y="-348.2" font-family="Helvetica,sans-Serif" font-size="10.00" fill="grey"> phys</text>
</g>
<!-- Node2 -->
<g id="Node000002" class="node">
<title>Node2</title>
<g id="a_Node000002"><a xlink:href="a02274.html" target="_top" xlink:title=" ">
<polygon fill="white" stroke="#666666" points="886.5,-398.45 809,-398.45 809,-379.95 886.5,-379.95 886.5,-398.45"/>
<text text-anchor="middle" x="847.75" y="-384.95" font-family="Helvetica,sans-Serif" font-size="10.00">arax_object_s</text>
</a>
</g>
</g>
<!-- Node2&#45;&gt;Node1 -->
<g id="edge1_Node000001_Node000002" class="edge">
<title>Node2&#45;&gt;Node1</title>
<g id="a_edge1_Node000001_Node000002"><a xlink:title=" ">
<path fill="none" stroke="#9a32cd" stroke-dasharray="5,2" d="M897.85,-387.12C923.21,-386.04 953.64,-384.75 976.91,-383.76"/>
<polygon fill="#9a32cd" stroke="#9a32cd" points="897.8,-383.66 887.96,-387.58 898.1,-390.65 897.8,-383.66"/>
</a>
</g>
<text text-anchor="middle" x="935.25" y="-387.2" font-family="Helvetica,sans-Serif" font-size="10.00" fill="grey"> obj</text>
</g>
<!-- Node2&#45;&gt;Node17 -->
<g id="edge32_Node000017_Node000002" class="edge">
<title>Node2&#45;&gt;Node17</title>
<g id="a_edge32_Node000017_Node000002"><a xlink:title=" ">
<path fill="none" stroke="#9a32cd" stroke-dasharray="5,2" d="M884.18,-374.17C887.51,-371.83 890.62,-369.18 893.25,-366.2 908.6,-348.8 892.23,-330.48 911.25,-317.2 985.96,-265.05 1103.87,-316 1148.29,-338.61"/>
<polygon fill="#9a32cd" stroke="#9a32cd" points="882.79,-371.52 876.01,-379.66 886.39,-377.53 882.79,-371.52"/>
</a>
</g>
<text text-anchor="middle" x="1014.5" y="-302.2" font-family="Helvetica,sans-Serif" font-size="10.00" fill="grey"> obj</text>
</g>
<!-- Node3 -->
<g id="Node000003" class="node">
<title>Node3</title>
<g id="a_Node000003"><a xlink:href="a02266.html" target="_top" xlink:title=" ">
<polygon fill="white" stroke="#666666" points="739.25,-305.45 637.75,-305.45 637.75,-286.95 739.25,-286.95 739.25,-305.45"/>
<text text-anchor="middle" x="688.5" y="-291.95" font-family="Helvetica,sans-Serif" font-size="10.00">arax_object_repo_s</text>
</a>
</g>
</g>
<!-- Node3&#45;&gt;Node2 -->
<g id="edge2_Node000002_Node000003" class="edge">
<title>Node3&#45;&gt;Node2</title>
<g id="a_edge2_Node000002_Node000003"><a xlink:title=" ">
<path fill="none" stroke="#9a32cd" stroke-dasharray="5,2" d="M713.4,-311.8C736,-326.37 771.01,-348.47 802.25,-366.2 810.27,-370.75 819.27,-375.48 827.08,-379.45"/>
<polygon fill="#9a32cd" stroke="#9a32cd" points="715.53,-308.36 705.23,-305.87 711.72,-314.24 715.53,-308.36"/>
</a>
</g>
<text text-anchor="middle" x="770.75" y="-356.2" font-family="Helvetica,sans-Serif" font-size="10.00" fill="grey"> repo</text>
</g>
<!-- Node4 -->
<g id="Node000004" class="node">
<title>Node4</title>
<g id="a_Node000004"><a xlink:href="a02326.html" target="_top" xlink:title=" ">
<polygon fill="white" stroke="#666666" points="1043.88,-183.45 985.12,-183.45 985.12,-164.95 1043.88,-164.95 1043.88,-183.45"/>
<text text-anchor="middle" x="1014.5" y="-169.95" font-family="Helvetica,sans-Serif" font-size="10.00">arax_pipe</text>
</a>
</g>
</g>
<!-- Node3&#45;&gt;Node4 -->
<g id="edge4_Node000004_Node000003" class="edge">
<title>Node3&#45;&gt;Node4</title>
<g id="a_edge4_Node000004_Node000003"><a xlink:title=" ">
<path fill="none" stroke="#9a32cd" stroke-dasharray="5,2" d="M748.29,-284.28C816.22,-269.89 923.26,-245.14 959.25,-225.2 978.7,-214.43 996.5,-195.11 1006.09,-183.59"/>
<polygon fill="#9a32cd" stroke="#9a32cd" points="747.81,-281.01 738.74,-286.5 749.25,-287.86 747.81,-281.01"/>
</a>
</g>
<text text-anchor="middle" x="847.75" y="-272.2" font-family="Helvetica,sans-Serif" font-size="10.00" fill="grey"> objs</text>
</g>
<!-- Node4&#45;&gt;Node3 -->
<g id="edge3_Node000003_Node000004" class="edge">
<title>Node4&#45;&gt;Node3</title>
<g id="a_edge3_Node000003_Node000004"><a xlink:title=" ">
<path fill="none" stroke="#9a32cd" stroke-dasharray="5,2" d="M1007.32,-194.21C999.67,-215.37 984.45,-247.89 959.25,-264.2 892.74,-307.26 797.35,-307.58 739.63,-302.72"/>
<polygon fill="#9a32cd" stroke="#9a32cd" points="1010.95,-195.4 1010.81,-184.8 1004.32,-193.17 1010.95,-195.4"/>
</a>
</g>
<text text-anchor="middle" x="847.75" y="-305.2" font-family="Helvetica,sans-Serif" font-size="10.00" fill="grey"> pipe</text>
</g>
<!-- Node5 -->
<g id="Node000005" class="node">
<title>Node5</title>
<g id="a_Node000005"><a xlink:href="a02230.html" target="_top" xlink:title=" ">
<polygon fill="white" stroke="#666666" points="377.25,-142.45 298.25,-142.45 298.25,-123.95 377.25,-123.95 377.25,-142.45"/>
<text text-anchor="middle" x="337.75" y="-128.95" font-family="Helvetica,sans-Serif" font-size="10.00">async_meta_s</text>
</a>
</g>
</g>
<!-- Node5&#45;&gt;Node4 -->
<g id="edge5_Node000004_Node000005" class="edge">
<title>Node5&#45;&gt;Node4</title>
<g id="a_edge5_Node000004_Node000005"><a xlink:title=" ">
<path fill="none" stroke="#9a32cd" stroke-dasharray="5,2" d="M388.42,-130C485.54,-124.35 707.39,-114.44 893.25,-128.2 922.67,-130.38 932.98,-121.8 959.25,-135.2 969.9,-140.64 967.81,-147.87 977.25,-155.2 981.74,-158.69 986.96,-161.85 992.02,-164.55"/>
<polygon fill="#9a32cd" stroke="#9a32cd" points="388.25,-126.56 378.48,-130.65 388.67,-133.55 388.25,-126.56"/>
</a>
</g>
<text text-anchor="middle" x="688.5" y="-123.2" font-family="Helvetica,sans-Serif" font-size="10.00" fill="grey"> async</text>
</g>
<!-- Node11 -->
<g id="Node000011" class="node">
<title>Node11</title>
<g id="a_Node000011"><a xlink:href="a02242.html" target="_top" xlink:title=" ">
<polygon fill="white" stroke="#666666" points="736.62,-159.45 640.38,-159.45 640.38,-140.95 736.62,-140.95 736.62,-159.45"/>
<text text-anchor="middle" x="688.5" y="-145.95" font-family="Helvetica,sans-Serif" font-size="10.00">async_condition_s</text>
</a>
</g>
</g>
<!-- Node5&#45;&gt;Node11 -->
<g id="edge13_Node000011_Node000005" class="edge">
<title>Node5&#45;&gt;Node11</title>
<g id="a_edge13_Node000011_Node000005"><a xlink:title=" ">
<path fill="none" stroke="#9a32cd" stroke-dasharray="5,2" d="M388.44,-135.62C455.44,-138.89 573.96,-144.67 639.89,-147.88"/>
<polygon fill="#9a32cd" stroke="#9a32cd" points="388.9,-132.09 378.74,-135.1 388.56,-139.09 388.9,-132.09"/>
</a>
</g>
<text text-anchor="middle" x="490.62" y="-144.2" font-family="Helvetica,sans-Serif" font-size="10.00" fill="grey"> meta</text>
</g>
<!-- Node12 -->
<g id="Node000012" class="node">
<title>Node12</title>
<g id="a_Node000012"><a xlink:href="a02234.html" target="_top" xlink:title=" ">
<polygon fill="white" stroke="#666666" points="542.88,-60.45 438.38,-60.45 438.38,-41.95 542.88,-41.95 542.88,-60.45"/>
<text text-anchor="middle" x="490.62" y="-46.95" font-family="Helvetica,sans-Serif" font-size="10.00">async_completion_s</text>
</a>
</g>
</g>
<!-- Node5&#45;&gt;Node12 -->
<g id="edge15_Node000012_Node000005" class="edge">
<title>Node5&#45;&gt;Node12</title>
<g id="a_edge15_Node000012_Node000005"><a xlink:title=" ">
<path fill="none" stroke="#9a32cd" stroke-dasharray="5,2" d="M351.78,-115.03C362.13,-101.92 377.73,-84.81 395.25,-74.7 408.27,-67.19 423.64,-62.06 438.16,-58.57"/>
<polygon fill="#9a32cd" stroke="#9a32cd" points="348.46,-112.63 345.23,-122.72 354.05,-116.85 348.46,-112.63"/>
</a>
</g>
<text text-anchor="middle" x="407.62" y="-76.2" font-family="Helvetica,sans-Serif" font-size="10.00" fill="grey"> meta</text>
</g>
<!-- Node13 -->
<g id="Node000013" class="node">
<title>Node13</title>
<g id="a_Node000013"><a xlink:href="a02238.html" target="_top" xlink:title=" ">
<polygon fill="white" stroke="#666666" points="543.25,-181.45 438,-181.45 438,-162.95 543.25,-162.95 543.25,-181.45"/>
<text text-anchor="middle" x="490.62" y="-167.95" font-family="Helvetica,sans-Serif" font-size="10.00">async_semaphore_s</text>
</a>
</g>
</g>
<!-- Node5&#45;&gt;Node13 -->
<g id="edge18_Node000013_Node000005" class="edge">
<title>Node5&#45;&gt;Node13</title>
<g id="a_edge18_Node000013_Node000005"><a xlink:title=" ">
<path fill="none" stroke="#9a32cd" stroke-dasharray="5,2" d="M386.82,-145.63C407.96,-151.09 432.41,-157.41 452.16,-162.52"/>
<polygon fill="#9a32cd" stroke="#9a32cd" points="387.99,-142.06 377.43,-142.94 386.24,-148.83 387.99,-142.06"/>
</a>
</g>
<text text-anchor="middle" x="407.62" y="-155.2" font-family="Helvetica,sans-Serif" font-size="10.00" fill="grey"> meta</text>
</g>
<!-- Node6 -->
<g id="Node000006" class="node">
<title>Node6</title>
<g id="a_Node000006"><a xlink:href="a02314.html" target="_top" xlink:title=" ">
<polygon fill="white" stroke="#666666" points="204.88,-264.45 142.38,-264.45 142.38,-245.95 204.88,-245.95 204.88,-264.45"/>
<text text-anchor="middle" x="173.62" y="-250.95" font-family="Helvetica,sans-Serif" font-size="10.00">utils_list_s</text>
</a>
</g>
</g>
<!-- Node6&#45;&gt;Node1 -->
<g id="edge28_Node000001_Node000006" class="edge">
<title>Node6&#45;&gt;Node1</title>
<g id="a_edge28_Node000001_Node000006"><a xlink:title=" ">
<path fill="none" stroke="#9a32cd" stroke-dasharray="5,2" d="M207.82,-269.08C300.03,-306.78 567.95,-410.5 802.25,-444.2 871.72,-454.2 896.75,-459.13 959.25,-427.2 977.12,-418.07 994.36,-402.17 1004.44,-391.92"/>
<polygon fill="#9a32cd" stroke="#9a32cd" points="209.28,-265.49 198.7,-264.92 206.62,-271.96 209.28,-265.49"/>
</a>
</g>
<text text-anchor="middle" x="590.5" y="-407.2" font-family="Helvetica,sans-Serif" font-size="10.00" fill="grey"> vaccels</text>
</g>
<!-- Node6&#45;&gt;Node3 -->
<g id="edge25_Node000003_Node000006" class="edge">
<title>Node6&#45;&gt;Node3</title>
<g id="a_edge25_Node000003_Node000006"><a xlink:title=" ">
<path fill="none" stroke="#9a32cd" stroke-dasharray="5,2" d="M215.88,-258.5C309.25,-265.96 536.51,-284.13 637.59,-292.21"/>
<polygon fill="#9a32cd" stroke="#9a32cd" points="216.42,-254.95 206.17,-257.64 215.86,-261.93 216.42,-254.95"/>
</a>
</g>
<text text-anchor="middle" x="407.62" y="-275.2" font-family="Helvetica,sans-Serif" font-size="10.00" fill="grey"> list</text>
</g>
<!-- Node6&#45;&gt;Node4 -->
<g id="edge21_Node000004_Node000006" class="edge">
<title>Node6&#45;&gt;Node4</title>
<g id="a_edge21_Node000004_Node000006"><a xlink:title=" ">
<path fill="none" stroke="#9a32cd" stroke-dasharray="5,2" d="M215.71,-246.11C248.35,-239.68 295.25,-232.2 336.75,-232.2 336.75,-232.2 336.75,-232.2 689.5,-232.2 800.07,-232.2 928.6,-199.07 984.77,-182.89"/>
<polygon fill="#9a32cd" stroke="#9a32cd" points="215.33,-242.82 206.22,-248.24 216.72,-249.68 215.33,-242.82"/>
</a>
</g>
<text text-anchor="middle" x="590.5" y="-233.2" font-family="Helvetica,sans-Serif" font-size="10.00" fill="grey"> orphan_vacs</text>
</g>
<!-- Node6&#45;&gt;Node5 -->
<g id="edge6_Node000005_Node000006" class="edge">
<title>Node6&#45;&gt;Node5</title>
<g id="a_edge6_Node000005_Node000006"><a xlink:title=" ">
<path fill="none" stroke="#9a32cd" stroke-dasharray="5,2" d="M181.83,-235.37C189.93,-215.75 204.91,-186.19 227,-168.7 238.19,-159.85 270.93,-149.85 297.76,-142.73"/>
<polygon fill="#9a32cd" stroke="#9a32cd" points="178.21,-234.02 177.85,-244.61 184.74,-236.55 178.21,-234.02"/>
</a>
</g>
<text text-anchor="middle" x="253.62" y="-170.2" font-family="Helvetica,sans-Serif" font-size="10.00" fill="grey"> outstanding</text>
</g>
<!-- Node6&#45;&gt;Node13 -->
<g id="edge19_Node000013_Node000006" class="edge">
<title>Node6&#45;&gt;Node13</title>
<g id="a_edge19_Node000013_Node000006"><a xlink:title=" ">
<path fill="none" stroke="#9a32cd" stroke-dasharray="5,2" d="M193.25,-238.98C202.75,-231.53 214.85,-223.26 227,-218.2 296.34,-189.36 383.28,-178.6 437.66,-174.59"/>
<polygon fill="#9a32cd" stroke="#9a32cd" points="191.53,-236.68 186.02,-245.73 195.97,-242.09 191.53,-236.68"/>
</a>
</g>
<text text-anchor="middle" x="337.75" y="-196.2" font-family="Helvetica,sans-Serif" font-size="10.00" fill="grey"> pending_list</text>
</g>
<!-- Node7 -->
<g id="Node000007" class="node">
<title>Node7</title>
<g id="a_Node000007"><a xlink:href="a02310.html" target="_top" xlink:title=" ">
<polygon fill="white" stroke="#666666" points="78.25,-408.45 0,-408.45 0,-389.95 78.25,-389.95 78.25,-408.45"/>
<text text-anchor="middle" x="39.12" y="-394.95" font-family="Helvetica,sans-Serif" font-size="10.00">utils_list_node</text>
</a>
</g>
</g>
<!-- Node7&#45;&gt;Node2 -->
<g id="edge26_Node000002_Node000007" class="edge">
<title>Node7&#45;&gt;Node2</title>
<g id="a_edge26_Node000002_Node000007"><a xlink:title=" ">
<path fill="none" stroke="#9a32cd" stroke-dasharray="5,2" d="M81.93,-411.71C107.81,-418.37 141.86,-425.2 172.62,-425.2 172.62,-425.2 172.62,-425.2 689.5,-425.2 736.69,-425.2 789.89,-409.61 820.74,-398.94"/>
<polygon fill="#9a32cd" stroke="#9a32cd" points="82.94,-408.09 72.38,-408.88 81.13,-414.85 82.94,-408.09"/>
</a>
</g>
<text text-anchor="middle" x="407.62" y="-426.2" font-family="Helvetica,sans-Serif" font-size="10.00" fill="grey"> list</text>
</g>
<!-- Node7&#45;&gt;Node6 -->
<g id="edge7_Node000006_Node000007" class="edge">
<title>Node7&#45;&gt;Node6</title>
<g id="a_edge7_Node000006_Node000007"><a xlink:title=" ">
<path fill="none" stroke="#9a32cd" stroke-dasharray="5,2" d="M56.25,-381.68C84.42,-351.06 141.71,-288.81 163.73,-264.87"/>
<polygon fill="#9a32cd" stroke="#9a32cd" points="54.01,-379.03 49.82,-388.75 59.17,-383.77 54.01,-379.03"/>
</a>
</g>
<text text-anchor="middle" x="108.25" y="-336.2" font-family="Helvetica,sans-Serif" font-size="10.00" fill="grey"> head</text>
</g>
<!-- Node7&#45;&gt;Node7 -->
<g id="edge8_Node000007_Node000007" class="edge">
<title>Node7&#45;&gt;Node7</title>
<g id="a_edge8_Node000007_Node000007"><a xlink:title=" ">
<path fill="none" stroke="#9a32cd" stroke-dasharray="5,2" d="M26.68,-419.48C28.07,-423.55 32.21,-426.45 39.12,-426.45 51.41,-426.45 54.96,-417.27 49.78,-408.7"/>
<polygon fill="#9a32cd" stroke="#9a32cd" points="30.29,-420.14 28.47,-409.7 23.38,-418.99 30.29,-420.14"/>
</a>
</g>
<text text-anchor="middle" x="39.12" y="-437.95" font-family="Helvetica,sans-Serif" font-size="10.00" fill="grey"> next</text>
<text text-anchor="middle" x="39.12" y="-427.45" font-family="Helvetica,sans-Serif" font-size="10.00" fill="grey">prev</text>
</g>
<!-- Node7&#45;&gt;Node12 -->
<g id="edge16_Node000012_Node000007" class="edge">
<title>Node7&#45;&gt;Node12</title>
<g id="a_edge16_Node000012_Node000007"><a xlink:title=" ">
<path fill="none" stroke="#9a32cd" stroke-dasharray="5,2" d="M43.03,-379.25C52.98,-314 87.83,-108.86 138.25,-69.2 232.35,4.81 388.33,-23.96 456.28,-41.51"/>
<polygon fill="#9a32cd" stroke="#9a32cd" points="39.48,-378.33 41.47,-388.73 46.41,-379.36 39.48,-378.33"/>
</a>
</g>
<text text-anchor="middle" x="253.62" y="-30.2" font-family="Helvetica,sans-Serif" font-size="10.00" fill="grey"> outstanding</text>
</g>
<!-- Node7&#45;&gt;Node17 -->
<g id="edge33_Node000017_Node000007" class="edge">
<title>Node7&#45;&gt;Node17</title>
<g id="a_edge33_Node000017_Node000007"><a xlink:title=" ">
<path fill="none" stroke="#9a32cd" stroke-dasharray="5,2" d="M52.02,-417.5C72.72,-446.85 118.38,-501.2 172.62,-501.2 172.62,-501.2 172.62,-501.2 1015.5,-501.2 1096.35,-501.2 1148.27,-391.27 1162.22,-357.77"/>
<polygon fill="#9a32cd" stroke="#9a32cd" points="54.5,-415.92 45.98,-409.62 48.71,-419.85 54.5,-415.92"/>
</a>
</g>
<text text-anchor="middle" x="590.5" y="-502.2" font-family="Helvetica,sans-Serif" font-size="10.00" fill="grey"> vaccels</text>
</g>
<!-- Node8 -->
<g id="Node000008" class="node">
<title>Node8</title>
<g id="a_Node000008"><a xlink:href="a02226.html" target="_top" xlink:title=" ">
<polygon fill="white" stroke="#666666" points="201.5,-142.45 145.75,-142.45 145.75,-123.95 201.5,-123.95 201.5,-142.45"/>
<text text-anchor="middle" x="173.62" y="-128.95" font-family="Helvetica,sans-Serif" font-size="10.00">ivshmem</text>
</a>
</g>
</g>
<!-- Node8&#45;&gt;Node5 -->
<g id="edge9_Node000005_Node000008" class="edge">
<title>Node8&#45;&gt;Node5</title>
<g id="a_edge9_Node000005_Node000008"><a xlink:title=" ">
<path fill="none" stroke="#9a32cd" stroke-dasharray="5,2" d="M212.58,-133.2C238.27,-133.2 272.11,-133.2 297.98,-133.2"/>
<polygon fill="#9a32cd" stroke="#9a32cd" points="212.76,-129.7 202.76,-133.2 212.76,-136.7 212.76,-129.7"/>
</a>
</g>
<text text-anchor="middle" x="253.62" y="-134.2" font-family="Helvetica,sans-Serif" font-size="10.00" fill="grey"> regs</text>
</g>
<!-- Node9 -->
<g id="Node000009" class="node">
<title>Node9</title>
<g id="a_Node000009"><a xlink:href="a02182.html" target="_top" xlink:title=" ">
<polygon fill="white" stroke="#666666" points="209,-96.45 138.25,-96.45 138.25,-77.95 209,-77.95 209,-96.45"/>
<text text-anchor="middle" x="173.62" y="-82.95" font-family="Helvetica,sans-Serif" font-size="10.00">arch_alloc_s</text>
</a>
</g>
</g>
<!-- Node9&#45;&gt;Node4 -->
<g id="edge24_Node000004_Node000009" class="edge">
<title>Node9&#45;&gt;Node4</title>
<g id="a_edge24_Node000004_Node000009"><a xlink:title=" ">
<path fill="none" stroke="#9a32cd" stroke-dasharray="5,2" d="M207.91,-73.56C267.04,-49.53 386.14,-2.2 406.62,-2.2 406.62,-2.2 406.62,-2.2 848.75,-2.2 899.1,-2.2 925.15,9.85 959.25,-27.2 998.16,-69.47 944.16,-108.24 977.25,-155.2 979.95,-159.04 983.67,-162.16 987.7,-164.67"/>
<polygon fill="#9a32cd" stroke="#9a32cd" points="206.88,-70.6 198.94,-77.62 209.52,-77.09 206.88,-70.6"/>
</a>
</g>
<text text-anchor="middle" x="590.5" y="-3.2" font-family="Helvetica,sans-Serif" font-size="10.00" fill="grey"> allocator</text>
</g>
<!-- Node9&#45;&gt;Node5 -->
<g id="edge10_Node000005_Node000009" class="edge">
<title>Node9&#45;&gt;Node5</title>
<g id="a_edge10_Node000005_Node000009"><a xlink:title=" ">
<path fill="none" stroke="#9a32cd" stroke-dasharray="5,2" d="M219.08,-99.82C245.4,-107.28 278.24,-116.6 302.53,-123.49"/>
<polygon fill="#9a32cd" stroke="#9a32cd" points="220.19,-96.21 209.61,-96.85 218.28,-102.94 220.19,-96.21"/>
</a>
</g>
<text text-anchor="middle" x="253.62" y="-118.2" font-family="Helvetica,sans-Serif" font-size="10.00" fill="grey"> alloc</text>
</g>
<!-- Node10 -->
<g id="Node000010" class="node">
<title>Node10</title>
<g id="a_Node000010"><a xlink:href="a02286.html" target="_top" xlink:title=" ">
<polygon fill="white" stroke="#666666" points="888.38,-183.45 807.12,-183.45 807.12,-164.95 888.38,-164.95 888.38,-183.45"/>
<text text-anchor="middle" x="847.75" y="-169.95" font-family="Helvetica,sans-Serif" font-size="10.00">arax_throttle_s</text>
</a>
</g>
</g>
<!-- Node10&#45;&gt;Node1 -->
<g id="edge29_Node000001_Node000010" class="edge">
<title>Node10&#45;&gt;Node1</title>
<g id="a_edge29_Node000001_Node000010"><a xlink:title=" ">
<path fill="none" stroke="#9a32cd" stroke-dasharray="5,2" d="M863,-192.19C896.69,-234.73 980.37,-340.37 1005.95,-372.67"/>
<polygon fill="#9a32cd" stroke="#9a32cd" points="865.21,-190.35 856.26,-184.68 859.72,-194.69 865.21,-190.35"/>
</a>
</g>
<text text-anchor="middle" x="935.25" y="-309.2" font-family="Helvetica,sans-Serif" font-size="10.00" fill="grey"> throttle</text>
</g>
<!-- Node10&#45;&gt;Node4 -->
<g id="edge11_Node000004_Node000010" class="edge">
<title>Node10&#45;&gt;Node4</title>
<g id="a_edge11_Node000004_Node000010"><a xlink:title=" ">
<path fill="none" stroke="#9a32cd" stroke-dasharray="5,2" d="M899.46,-174.2C927.51,-174.2 961.33,-174.2 984.83,-174.2"/>
<polygon fill="#9a32cd" stroke="#9a32cd" points="899.63,-170.7 889.63,-174.2 899.63,-177.7 899.63,-170.7"/>
</a>
</g>
<text text-anchor="middle" x="935.25" y="-175.2" font-family="Helvetica,sans-Serif" font-size="10.00" fill="grey"> throttle</text>
</g>
<!-- Node11&#45;&gt;Node1 -->
<g id="edge27_Node000001_Node000011" class="edge">
<title>Node11&#45;&gt;Node1</title>
<g id="a_edge27_Node000001_Node000011"><a xlink:title=" ">
<path fill="none" stroke="#9a32cd" stroke-dasharray="5,2" d="M697.28,-169.95C712.2,-205.27 748.23,-279.31 802.25,-319.2 830.11,-339.78 924.18,-362.75 976.9,-374.45"/>
<polygon fill="#9a32cd" stroke="#9a32cd" points="700.2,-168.86 693.18,-160.93 693.73,-171.51 700.2,-168.86"/>
</a>
</g>
<text text-anchor="middle" x="847.75" y="-353.2" font-family="Helvetica,sans-Serif" font-size="10.00" fill="grey"> lock</text>
</g>
<!-- Node11&#45;&gt;Node4 -->
<g id="edge20_Node000004_Node000011" class="edge">
<title>Node11&#45;&gt;Node4</title>
<g id="a_edge20_Node000004_Node000011"><a xlink:title=" ">
<path fill="none" stroke="#9a32cd" stroke-dasharray="5,2" d="M747.96,-138.81C788.85,-132.57 844.63,-127.52 893.25,-135.2 928.37,-140.75 967.19,-154.9 990.97,-164.53"/>
<polygon fill="#9a32cd" stroke="#9a32cd" points="747.42,-135.51 738.1,-140.55 748.53,-142.42 747.42,-135.51"/>
</a>
</g>
<text text-anchor="middle" x="847.75" y="-146.7" font-family="Helvetica,sans-Serif" font-size="10.00" fill="grey"> cntrl_ready_cond</text>
<text text-anchor="middle" x="847.75" y="-136.2" font-family="Helvetica,sans-Serif" font-size="10.00" fill="grey">orphan_cond</text>
</g>
<!-- Node11&#45;&gt;Node10 -->
<g id="edge12_Node000010_Node000011" class="edge">
<title>Node11&#45;&gt;Node10</title>
<g id="a_edge12_Node000010_Node000011"><a xlink:title=" ">
<path fill="none" stroke="#9a32cd" stroke-dasharray="5,2" d="M747.79,-159.1C767.4,-162.09 788.84,-165.36 806.72,-168.09"/>
<polygon fill="#9a32cd" stroke="#9a32cd" points="748.52,-155.52 738.11,-157.47 747.46,-162.44 748.52,-155.52"/>
</a>
</g>
<text text-anchor="middle" x="770.75" y="-166.2" font-family="Helvetica,sans-Serif" font-size="10.00" fill="grey"> ready</text>
</g>
<!-- Node12&#45;&gt;Node11 -->
<g id="edge14_Node000011_Node000012" class="edge">
<title>Node12&#45;&gt;Node11</title>
<g id="a_edge14_Node000011_Node000012"><a xlink:title=" ">
<path fill="none" stroke="#9a32cd" stroke-dasharray="5,2" d="M524.46,-65C550.63,-76.29 588.02,-93.04 619.75,-109.7 638.31,-119.45 658.89,-132.01 672.44,-140.54"/>
<polygon fill="#9a32cd" stroke="#9a32cd" points="526.24,-61.53 515.67,-60.81 523.49,-67.96 526.24,-61.53"/>
</a>
</g>
<text text-anchor="middle" x="590.5" y="-111.2" font-family="Helvetica,sans-Serif" font-size="10.00" fill="grey"> mutex</text>
</g>
<!-- Node13&#45;&gt;Node11 -->
<g id="edge17_Node000011_Node000013" class="edge">
<title>Node13&#45;&gt;Node11</title>
<g id="a_edge17_Node000011_Node000013"><a xlink:title=" ">
<path fill="none" stroke="#9a32cd" stroke-dasharray="5,2" d="M554.4,-165.15C582.16,-162.03 614.26,-158.43 639.98,-155.54"/>
<polygon fill="#9a32cd" stroke="#9a32cd" points="554.15,-161.77 544.6,-166.36 554.93,-168.73 554.15,-161.77"/>
</a>
</g>
<text text-anchor="middle" x="590.5" y="-165.2" font-family="Helvetica,sans-Serif" font-size="10.00" fill="grey"> semaphore</text>
</g>
<!-- Node14 -->
<g id="Node000014" class="node">
<title>Node14</title>
<g id="a_Node000014"><a xlink:href="a02302.html" target="_top" xlink:title=" ">
<polygon fill="white" stroke="#666666" points="877.88,-52.45 817.62,-52.45 817.62,-33.95 877.88,-33.95 877.88,-52.45"/>
<text text-anchor="middle" x="847.75" y="-38.95" font-family="Helvetica,sans-Serif" font-size="10.00">utils_kv_s</text>
</a>
</g>
</g>
<!-- Node14&#45;&gt;Node4 -->
<g id="edge22_Node000004_Node000014" class="edge">
<title>Node14&#45;&gt;Node4</title>
<g id="a_edge22_Node000004_Node000014"><a xlink:title=" ">
<path fill="none" stroke="#9a32cd" stroke-dasharray="5,2" d="M888.81,-32.35C912.03,-28.62 940.34,-28.84 959.25,-45.2 996.71,-77.62 948.26,-115.03 977.25,-155.2 979.99,-159.01 983.73,-162.11 987.77,-164.62"/>
<polygon fill="#9a32cd" stroke="#9a32cd" points="888.38,-29.06 879.21,-34.37 889.69,-35.93 888.38,-29.06"/>
</a>
</g>
<text text-anchor="middle" x="935.25" y="-56.7" font-family="Helvetica,sans-Serif" font-size="10.00" fill="grey"> ass_kv</text>
<text text-anchor="middle" x="935.25" y="-46.2" font-family="Helvetica,sans-Serif" font-size="10.00" fill="grey">metrics_kv</text>
</g>
<!-- Node15 -->
<g id="Node000015" class="node">
<title>Node15</title>
<g id="a_Node000015"><a xlink:href="a02306.html" target="_top" xlink:title=" ">
<polygon fill="white" stroke="#666666" points="705.12,-52.45 671.88,-52.45 671.88,-33.95 705.12,-33.95 705.12,-52.45"/>
<text text-anchor="middle" x="688.5" y="-38.95" font-family="Helvetica,sans-Serif" font-size="10.00">Pair</text>
</a>
</g>
</g>
<!-- Node15&#45;&gt;Node14 -->
<g id="edge23_Node000014_Node000015" class="edge">
<title>Node15&#45;&gt;Node14</title>
<g id="a_edge23_Node000014_Node000015"><a xlink:title=" ">
<path fill="none" stroke="#9a32cd" stroke-dasharray="5,2" d="M716.39,-43.2C744.4,-43.2 788.16,-43.2 817.14,-43.2"/>
<polygon fill="#9a32cd" stroke="#9a32cd" points="716.44,-39.7 706.44,-43.2 716.44,-46.7 716.44,-39.7"/>
</a>
</g>
<text text-anchor="middle" x="770.75" y="-44.2" font-family="Helvetica,sans-Serif" font-size="10.00" fill="grey"> kv</text>
</g>
<!-- Node16 -->
<g id="Node000016" class="node">
<title>Node16</title>
<g id="a_Node000016"><a xlink:href="a02330.html" target="_top" xlink:title=" ">
<polygon fill="white" stroke="#666666" points="893.25,-435.45 802.25,-435.45 802.25,-416.95 893.25,-416.95 893.25,-435.45"/>
<text text-anchor="middle" x="847.75" y="-421.95" font-family="Helvetica,sans-Serif" font-size="10.00">arax_accel_stats</text>
</a>
</g>
</g>
<!-- Node16&#45;&gt;Node1 -->
<g id="edge30_Node000001_Node000016" class="edge">
<title>Node16&#45;&gt;Node1</title>
<g id="a_edge30_Node000001_Node000016"><a xlink:title=" ">
<path fill="none" stroke="#9a32cd" stroke-dasharray="5,2" d="M904.39,-414.92C922.04,-410.99 941.56,-406.28 959.25,-401.2 968.65,-398.5 978.8,-395.09 987.76,-391.9"/>
<polygon fill="#9a32cd" stroke="#9a32cd" points="903.69,-411.7 894.67,-417.26 905.19,-418.54 903.69,-411.7"/>
</a>
</g>
<text text-anchor="middle" x="935.25" y="-413.2" font-family="Helvetica,sans-Serif" font-size="10.00" fill="grey"> stats</text>
</g>
<!-- Node17&#45;&gt;Node1 -->
<g id="edge31_Node000001_Node000017" class="edge">
<title>Node17&#45;&gt;Node1</title>
<g id="a_edge31_Node000001_Node000017"><a xlink:title=" ">
<path fill="none" stroke="#9a32cd" stroke-dasharray="5,2" d="M1116.33,-359.42C1095.31,-364.17 1071.27,-369.6 1051.93,-373.97"/>
<polygon fill="#9a32cd" stroke="#9a32cd" points="1117.02,-362.63 1126.01,-357.01 1115.48,-355.8 1117.02,-362.63"/>
</a>
</g>
<text text-anchor="middle" x="1089.62" y="-370.2" font-family="Helvetica,sans-Serif" font-size="10.00" fill="grey"> free_vaq</text>
</g>
<!-- Node18 -->
<g id="Node000018" class="node">
<title>Node18</title>
<g id="a_Node000018"><a xlink:href="a02318.html" target="_top" xlink:title=" ">
<polygon fill="white" stroke="#666666" points="1035.62,-146.45 993.38,-146.45 993.38,-127.95 1035.62,-127.95 1035.62,-146.45"/>
<text text-anchor="middle" x="1014.5" y="-132.95" font-family="Helvetica,sans-Serif" font-size="10.00">queue</text>
</a>
</g>
</g>
<!-- Node18&#45;&gt;Node17 -->
<g id="edge35_Node000017_Node000018" class="edge">
<title>Node18&#45;&gt;Node17</title>
<g id="a_edge35_Node000017_Node000018"><a xlink:title=" ">
<path fill="none" stroke="#9a32cd" stroke-dasharray="5,2" d="M1045.24,-150.97C1047.56,-152.58 1049.76,-154.32 1051.75,-156.2 1111.73,-213.02 1150.99,-308.21 1162.49,-338.58"/>
<polygon fill="#9a32cd" stroke="#9a32cd" points="1047.36,-147.56 1036.98,-145.45 1043.78,-153.58 1047.36,-147.56"/>
</a>
</g>
<text text-anchor="middle" x="1089.62" y="-228.2" font-family="Helvetica,sans-Serif" font-size="10.00" fill="grey"> queue</text>
</g>
</g>
</svg>
