<?xml version="1.0" encoding="UTF-8" standalone="no"?>
<!DOCTYPE svg PUBLIC "-//W3C//DTD SVG 1.1//EN"
 "http://www.w3.org/Graphics/SVG/1.1/DTD/svg11.dtd">
<!-- Generated by graphviz version 12.2.1 (0)
 -->
<!-- Title: async_semaphore_s Pages: 1 -->
<svg width="271pt" height="224pt"
 viewBox="0.00 0.00 271.00 224.00" xmlns="http://www.w3.org/2000/svg" xmlns:xlink="http://www.w3.org/1999/xlink">
<g id="graph0" class="graph" transform="scale(1 1) rotate(0) translate(4 220)">
<title>async_semaphore_s</title>
<!-- Node1 -->
<g id="Node000001" class="node">
<title>Node1</title>
<g id="a_Node000001"><a xlink:title=" ">
<polygon fill="#999999" stroke="#666666" points="105.25,-18.5 0,-18.5 0,0 105.25,0 105.25,-18.5"/>
<text text-anchor="middle" x="52.62" y="-5" font-family="Helvetica,sans-Serif" font-size="10.00">async_semaphore_s</text>
</a>
</g>
</g>
<!-- Node2 -->
<g id="Node000002" class="node">
<title>Node2</title>
<g id="a_Node000002"><a xlink:href="a02242.html" target="_top" xlink:title=" ">
<polygon fill="white" stroke="#666666" points="188.12,-83.5 109.12,-83.5 109.12,-65 188.12,-65 188.12,-83.5"/>
<text text-anchor="middle" x="148.62" y="-70" font-family="Helvetica,sans-Serif" font-size="10.00">async_meta_s</text>
</a>
</g>
</g>
<!-- Node2&#45;&gt;Node1 -->
<g id="edge1_Node000001_Node000002" class="edge">
<title>Node2&#45;&gt;Node1</title>
<g id="a_edge1_Node000001_Node000002"><a xlink:title=" ">
<path fill="none" stroke="#9a32cd" stroke-dasharray="5,2" d="M126.11,-58.47C107.31,-46.14 81.18,-28.99 65.67,-18.81"/>
<polygon fill="#9a32cd" stroke="#9a32cd" points="124.13,-61.36 134.41,-63.92 127.97,-55.51 124.13,-61.36"/>
</a>
</g>
<text text-anchor="middle" x="118.75" y="-37.5" font-family="Helvetica,sans-Serif" font-size="10.00" fill="grey"> meta</text>
</g>
<!-- Node3 -->
<g id="Node000003" class="node">
<title>Node3</title>
<g id="a_Node000003"><a xlink:href="a02326.html" target="_top" xlink:title=" ">
<polygon fill="white" stroke="#666666" points="84.88,-148.5 22.38,-148.5 22.38,-130 84.88,-130 84.88,-148.5"/>
<text text-anchor="middle" x="53.62" y="-135" font-family="Helvetica,sans-Serif" font-size="10.00">utils_list_s</text>
</a>
</g>
</g>
<!-- Node3&#45;&gt;Node1 -->
<g id="edge7_Node000001_Node000003" class="edge">
<title>Node3&#45;&gt;Node1</title>
<g id="a_edge7_Node000001_Node000003"><a xlink:title=" ">
<path fill="none" stroke="#9a32cd" stroke-dasharray="5,2" d="M50.17,-118.63C48.5,-108.22 46.7,-95.21 45.88,-83.5 44.22,-60.06 48.43,-32.47 50.93,-18.81"/>
<polygon fill="#9a32cd" stroke="#9a32cd" points="46.68,-118.98 51.79,-128.26 53.58,-117.82 46.68,-118.98"/>
</a>
</g>
<text text-anchor="middle" x="73.25" y="-70" font-family="Helvetica,sans-Serif" font-size="10.00" fill="grey"> pending_list</text>
</g>
<!-- Node3&#45;&gt;Node2 -->
<g id="edge2_Node000002_Node000003" class="edge">
<title>Node3&#45;&gt;Node2</title>
<g id="a_edge2_Node000002_Node000003"><a xlink:title=" ">
<path fill="none" stroke="#9a32cd" stroke-dasharray="5,2" d="M68.12,-121.27C74.47,-114.53 82.31,-107.07 90.38,-101.5 100.78,-94.31 113.47,-88.32 124.34,-83.89"/>
<polygon fill="#9a32cd" stroke="#9a32cd" points="65.58,-118.87 61.51,-128.65 70.79,-123.54 65.58,-118.87"/>
</a>
</g>
<text text-anchor="middle" x="117" y="-102.5" font-family="Helvetica,sans-Serif" font-size="10.00" fill="grey"> outstanding</text>
</g>
<!-- Node4 -->
<g id="Node000004" class="node">
<title>Node4</title>
<g id="a_Node000004"><a xlink:href="a02322.html" target="_top" xlink:title=" ">
<polygon fill="white" stroke="#666666" points="92.75,-214.75 14.5,-214.75 14.5,-196.25 92.75,-196.25 92.75,-214.75"/>
<text text-anchor="middle" x="53.62" y="-201.25" font-family="Helvetica,sans-Serif" font-size="10.00">utils_list_node</text>
</a>
</g>
</g>
<!-- Node4&#45;&gt;Node3 -->
<g id="edge3_Node000003_Node000004" class="edge">
<title>Node4&#45;&gt;Node3</title>
<g id="a_edge3_Node000003_Node000004"><a xlink:title=" ">
<path fill="none" stroke="#9a32cd" stroke-dasharray="5,2" d="M53.62,-184.62C53.62,-172.6 53.62,-157.87 53.62,-148.78"/>
<polygon fill="#9a32cd" stroke="#9a32cd" points="50.13,-184.32 53.63,-194.32 57.13,-184.32 50.13,-184.32"/>
</a>
</g>
<text text-anchor="middle" x="65.62" y="-167.5" font-family="Helvetica,sans-Serif" font-size="10.00" fill="grey"> head</text>
</g>
<!-- Node4&#45;&gt;Node4 -->
<g id="edge4_Node000004_Node000004" class="edge">
<title>Node4&#45;&gt;Node4</title>
<g id="a_edge4_Node000004_Node000004"><a xlink:title=" ">
<path fill="none" stroke="#9a32cd" stroke-dasharray="5,2" d="M104.48,-210.25C108.36,-209.2 110.75,-207.61 110.75,-205.5 110.75,-201.74 103.2,-199.66 93.14,-199.25"/>
<polygon fill="#9a32cd" stroke="#9a32cd" points="104.09,-206.77 94.64,-211.55 105.01,-213.71 104.09,-206.77"/>
</a>
</g>
<text text-anchor="middle" x="121.62" y="-206.5" font-family="Helvetica,sans-Serif" font-size="10.00" fill="grey"> next</text>
<text text-anchor="middle" x="121.62" y="-196" font-family="Helvetica,sans-Serif" font-size="10.00" fill="grey">prev</text>
</g>
<!-- Node5 -->
<g id="Node000005" class="node">
<title>Node5</title>
<g id="a_Node000005"><a xlink:href="a02238.html" target="_top" xlink:title=" ">
<polygon fill="white" stroke="#666666" points="174.5,-148.5 118.75,-148.5 118.75,-130 174.5,-130 174.5,-148.5"/>
<text text-anchor="middle" x="146.62" y="-135" font-family="Helvetica,sans-Serif" font-size="10.00">ivshmem</text>
</a>
</g>
</g>
<!-- Node5&#45;&gt;Node2 -->
<g id="edge5_Node000002_Node000005" class="edge">
<title>Node5&#45;&gt;Node2</title>
<g id="a_edge5_Node000002_Node000005"><a xlink:title=" ">
<path fill="none" stroke="#9a32cd" stroke-dasharray="5,2" d="M147.26,-118.39C147.63,-106.66 148.08,-92.44 148.36,-83.61"/>
<polygon fill="#9a32cd" stroke="#9a32cd" points="143.76,-118.13 146.94,-128.24 150.76,-118.36 143.76,-118.13"/>
</a>
</g>
<text text-anchor="middle" x="158.62" y="-102.5" font-family="Helvetica,sans-Serif" font-size="10.00" fill="grey"> regs</text>
</g>
<!-- Node6 -->
<g id="Node000006" class="node">
<title>Node6</title>
<g id="a_Node000006"><a xlink:href="a02194.html" target="_top" xlink:title=" ">
<polygon fill="white" stroke="#666666" points="263,-148.5 192.25,-148.5 192.25,-130 263,-130 263,-148.5"/>
<text text-anchor="middle" x="227.62" y="-135" font-family="Helvetica,sans-Serif" font-size="10.00">arch_alloc_s</text>
</a>
</g>
</g>
<!-- Node6&#45;&gt;Node2 -->
<g id="edge6_Node000002_Node000006" class="edge">
<title>Node6&#45;&gt;Node2</title>
<g id="a_edge6_Node000002_Node000006"><a xlink:title=" ">
<path fill="none" stroke="#9a32cd" stroke-dasharray="5,2" d="M208.23,-122.78C192.83,-110.51 171.89,-93.8 159.36,-83.81"/>
<polygon fill="#9a32cd" stroke="#9a32cd" points="205.79,-125.31 215.79,-128.81 210.15,-119.84 205.79,-125.31"/>
</a>
</g>
<text text-anchor="middle" x="204.48" y="-102.5" font-family="Helvetica,sans-Serif" font-size="10.00" fill="grey"> alloc</text>
</g>
</g>
</svg>
