<?xml version="1.0" encoding="UTF-8" standalone="no"?>
<!DOCTYPE svg PUBLIC "-//W3C//DTD SVG 1.1//EN"
 "http://www.w3.org/Graphics/SVG/1.1/DTD/svg11.dtd">
<!-- Generated by graphviz version 12.2.1 (0)
 -->
<!-- Title: arch_alloc_inner_s Pages: 1 -->
<svg width="166pt" height="92pt"
 viewBox="0.00 0.00 165.62 91.50" xmlns="http://www.w3.org/2000/svg" xmlns:xlink="http://www.w3.org/1999/xlink">
<g id="graph0" class="graph" transform="scale(1 1) rotate(0) translate(4 87.5)">
<title>arch_alloc_inner_s</title>
<!-- Node1 -->
<g id="Node000001" class="node">
<title>Node1</title>
<g id="a_Node000001"><a xlink:title=" ">
<polygon fill="#999999" stroke="#666666" points="127.88,-18.5 30.88,-18.5 30.88,0 127.88,0 127.88,-18.5"/>
<text text-anchor="middle" x="79.38" y="-5" font-family="Helvetica,sans-Serif" font-size="10.00">arch_alloc_inner_s</text>
</a>
</g>
</g>
<!-- Node2 -->
<g id="Node000002" class="node">
<title>Node2</title>
<g id="a_Node000002"><a xlink:href="a02194.html" target="_top" xlink:title=" ">
<polygon fill="white" stroke="#666666" points="70.75,-83.5 0,-83.5 0,-65 70.75,-65 70.75,-83.5"/>
<text text-anchor="middle" x="35.38" y="-70" font-family="Helvetica,sans-Serif" font-size="10.00">arch_alloc_s</text>
</a>
</g>
</g>
<!-- Node2&#45;&gt;Node1 -->
<g id="edge1_Node000001_Node000002" class="edge">
<title>Node2&#45;&gt;Node1</title>
<g id="a_edge1_Node000001_Node000002"><a xlink:title=" ">
<path fill="none" stroke="#9a32cd" stroke-dasharray="5,2" d="M47.7,-55.6C56.15,-43.5 66.98,-28 73.53,-18.61"/>
<polygon fill="#9a32cd" stroke="#9a32cd" points="45.03,-53.31 42.18,-63.51 50.77,-57.32 45.03,-53.31"/>
</a>
</g>
<text text-anchor="middle" x="72.01" y="-37.5" font-family="Helvetica,sans-Serif" font-size="10.00" fill="grey"> base</text>
</g>
<!-- Node3 -->
<g id="Node000003" class="node">
<title>Node3</title>
<g id="a_Node000003"><a xlink:href="a02306.html" target="_top" xlink:title=" ">
<polygon fill="white" stroke="#666666" points="157.62,-83.5 89.12,-83.5 89.12,-65 157.62,-65 157.62,-83.5"/>
<text text-anchor="middle" x="123.38" y="-70" font-family="Helvetica,sans-Serif" font-size="10.00">utils_bitmap</text>
</a>
</g>
</g>
<!-- Node3&#45;&gt;Node1 -->
<g id="edge2_Node000001_Node000003" class="edge">
<title>Node3&#45;&gt;Node1</title>
<g id="a_edge2_Node000001_Node000003"><a xlink:title=" ">
<path fill="none" stroke="#9a32cd" stroke-dasharray="5,2" d="M111.05,-55.6C102.6,-43.5 91.77,-28 85.22,-18.61"/>
<polygon fill="#9a32cd" stroke="#9a32cd" points="107.98,-57.32 116.57,-63.51 113.72,-53.31 107.98,-57.32"/>
</a>
</g>
<text text-anchor="middle" x="114.88" y="-37.5" font-family="Helvetica,sans-Serif" font-size="10.00" fill="grey"> bmp</text>
</g>
</g>
</svg>
