<?xml version="1.0" encoding="UTF-8" standalone="no"?>
<!DOCTYPE svg PUBLIC "-//W3C//DTD SVG 1.1//EN"
 "http://www.w3.org/Graphics/SVG/1.1/DTD/svg11.dtd">
<!-- Generated by graphviz version 12.2.1 (0)
 -->
<!-- Title: arax_data_s Pages: 1 -->
<svg width="1215pt" height="570pt"
 viewBox="0.00 0.00 1214.50 570.28" xmlns="http://www.w3.org/2000/svg" xmlns:xlink="http://www.w3.org/1999/xlink">
<g id="graph0" class="graph" transform="scale(1 1) rotate(0) translate(4 566.28)">
<title>arax_data_s</title>
<!-- Node1 -->
<g id="Node000001" class="node">
<title>Node1</title>
<g id="a_Node000001"><a xlink:title=" ">
<polygon fill="#999999" stroke="#666666" points="1202,-488.03 1132,-488.03 1132,-469.53 1202,-469.53 1202,-488.03"/>
<text text-anchor="middle" x="1167" y="-474.53" font-family="Helvetica,sans-Serif" font-size="10.00">arax_data_s</text>
</a>
</g>
</g>
<!-- Node2 -->
<g id="Node000002" class="node">
<title>Node2</title>
<g id="a_Node000002"><a xlink:href="a02286.html" target="_top" xlink:title=" ">
<polygon fill="white" stroke="#666666" points="886.5,-467.03 809,-467.03 809,-448.53 886.5,-448.53 886.5,-467.03"/>
<text text-anchor="middle" x="847.75" y="-453.53" font-family="Helvetica,sans-Serif" font-size="10.00">arax_object_s</text>
</a>
</g>
</g>
<!-- Node2&#45;&gt;Node1 -->
<g id="edge1_Node000001_Node000002" class="edge">
<title>Node2&#45;&gt;Node1</title>
<g id="a_edge1_Node000001_Node000002"><a xlink:title=" ">
<path fill="none" stroke="#9a32cd" stroke-dasharray="5,2" d="M871.88,-473.46C883.22,-480.21 897.39,-487.35 911.25,-490.78 988.18,-509.84 1082.08,-496.38 1131.6,-486.56"/>
<polygon fill="#9a32cd" stroke="#9a32cd" points="873.96,-470.63 863.63,-468.28 870.24,-476.56 873.96,-470.63"/>
</a>
</g>
<text text-anchor="middle" x="1014.5" y="-501.41" font-family="Helvetica,sans-Serif" font-size="10.00" fill="grey"> obj</text>
</g>
<!-- Node16 -->
<g id="Node000016" class="node">
<title>Node16</title>
<g id="a_Node000016"><a xlink:href="a02258.html" target="_top" xlink:title=" ">
<polygon fill="white" stroke="#666666" points="1051.75,-404.03 977.25,-404.03 977.25,-385.53 1051.75,-385.53 1051.75,-404.03"/>
<text text-anchor="middle" x="1014.5" y="-390.53" font-family="Helvetica,sans-Serif" font-size="10.00">arax_accel_s</text>
</a>
</g>
</g>
<!-- Node2&#45;&gt;Node16 -->
<g id="edge28_Node000016_Node000002" class="edge">
<title>Node2&#45;&gt;Node16</title>
<g id="a_edge28_Node000016_Node000002"><a xlink:title=" ">
<path fill="none" stroke="#9a32cd" stroke-dasharray="5,2" d="M897.93,-446.22C917.39,-440.96 939.72,-434.05 959.25,-425.78 973.23,-419.86 988.15,-411.14 998.79,-404.46"/>
<polygon fill="#9a32cd" stroke="#9a32cd" points="897.1,-442.82 888.32,-448.74 898.88,-449.59 897.1,-442.82"/>
</a>
</g>
<text text-anchor="middle" x="935.25" y="-443.36" font-family="Helvetica,sans-Serif" font-size="10.00" fill="grey"> obj</text>
</g>
<!-- Node18 -->
<g id="Node000018" class="node">
<title>Node18</title>
<g id="a_Node000018"><a xlink:href="a02302.html" target="_top" xlink:title=" ">
<polygon fill="white" stroke="#666666" points="1206.5,-415.03 1127.5,-415.03 1127.5,-396.53 1206.5,-396.53 1206.5,-415.03"/>
<text text-anchor="middle" x="1167" y="-401.53" font-family="Helvetica,sans-Serif" font-size="10.00">arax_vaccel_s</text>
</a>
</g>
</g>
<!-- Node2&#45;&gt;Node18 -->
<g id="edge34_Node000018_Node000002" class="edge">
<title>Node2&#45;&gt;Node18</title>
<g id="a_edge34_Node000018_Node000002"><a xlink:title=" ">
<path fill="none" stroke="#9a32cd" stroke-dasharray="5,2" d="M898.2,-466.05C952.04,-472.93 1039.77,-477.89 1109.5,-451.78 1129.64,-444.24 1147.95,-426.43 1157.97,-415.31"/>
<polygon fill="#9a32cd" stroke="#9a32cd" points="898.8,-462.6 888.42,-464.72 897.85,-469.53 898.8,-462.6"/>
</a>
</g>
<text text-anchor="middle" x="1014.5" y="-472.54" font-family="Helvetica,sans-Serif" font-size="10.00" fill="grey"> obj</text>
</g>
<!-- Node3 -->
<g id="Node000003" class="node">
<title>Node3</title>
<g id="a_Node000003"><a xlink:href="a02278.html" target="_top" xlink:title=" ">
<polygon fill="white" stroke="#666666" points="739.25,-301.03 637.75,-301.03 637.75,-282.53 739.25,-282.53 739.25,-301.03"/>
<text text-anchor="middle" x="688.5" y="-287.53" font-family="Helvetica,sans-Serif" font-size="10.00">arax_object_repo_s</text>
</a>
</g>
</g>
<!-- Node3&#45;&gt;Node2 -->
<g id="edge2_Node000002_Node000003" class="edge">
<title>Node3&#45;&gt;Node2</title>
<g id="a_edge2_Node000002_Node000003"><a xlink:title=" ">
<path fill="none" stroke="#9a32cd" stroke-dasharray="5,2" d="M703.87,-310.5C722.44,-334.7 755.77,-378.12 784.25,-415.28 792.25,-425.72 791.86,-430.71 802.25,-438.78 807.03,-442.49 812.64,-445.62 818.23,-448.19"/>
<polygon fill="#9a32cd" stroke="#9a32cd" points="706.66,-308.39 697.8,-302.59 701.11,-312.65 706.66,-308.39"/>
</a>
</g>
<text text-anchor="middle" x="770.75" y="-416.28" font-family="Helvetica,sans-Serif" font-size="10.00" fill="grey"> repo</text>
</g>
<!-- Node4 -->
<g id="Node000004" class="node">
<title>Node4</title>
<g id="a_Node000004"><a xlink:href="a02338.html" target="_top" xlink:title=" ">
<polygon fill="white" stroke="#666666" points="1043.88,-177.03 985.12,-177.03 985.12,-158.53 1043.88,-158.53 1043.88,-177.03"/>
<text text-anchor="middle" x="1014.5" y="-163.53" font-family="Helvetica,sans-Serif" font-size="10.00">arax_pipe</text>
</a>
</g>
</g>
<!-- Node3&#45;&gt;Node4 -->
<g id="edge4_Node000004_Node000003" class="edge">
<title>Node3&#45;&gt;Node4</title>
<g id="a_edge4_Node000004_Node000003"><a xlink:title=" ">
<path fill="none" stroke="#9a32cd" stroke-dasharray="5,2" d="M713.08,-276C735.31,-261.7 769.93,-240.83 802.25,-227.28 806.55,-225.47 928.1,-191.56 984.84,-175.76"/>
<polygon fill="#9a32cd" stroke="#9a32cd" points="711.24,-273.03 704.78,-281.42 715.07,-278.89 711.24,-273.03"/>
</a>
</g>
<text text-anchor="middle" x="847.75" y="-228.28" font-family="Helvetica,sans-Serif" font-size="10.00" fill="grey"> objs</text>
</g>
<!-- Node4&#45;&gt;Node3 -->
<g id="edge3_Node000003_Node000004" class="edge">
<title>Node4&#45;&gt;Node3</title>
<g id="a_edge3_Node000003_Node000004"><a xlink:title=" ">
<path fill="none" stroke="#9a32cd" stroke-dasharray="5,2" d="M1006.19,-187.8C997.85,-207.88 982.31,-238.27 959.25,-255.78 895.56,-304.13 798.18,-304.28 739.49,-298.84"/>
<polygon fill="#9a32cd" stroke="#9a32cd" points="1009.35,-189.34 1009.72,-178.75 1002.83,-186.79 1009.35,-189.34"/>
</a>
</g>
<text text-anchor="middle" x="847.75" y="-302.01" font-family="Helvetica,sans-Serif" font-size="10.00" fill="grey"> pipe</text>
</g>
<!-- Node5 -->
<g id="Node000005" class="node">
<title>Node5</title>
<g id="a_Node000005"><a xlink:href="a02242.html" target="_top" xlink:title=" ">
<polygon fill="white" stroke="#666666" points="377.25,-171.03 298.25,-171.03 298.25,-152.53 377.25,-152.53 377.25,-171.03"/>
<text text-anchor="middle" x="337.75" y="-157.53" font-family="Helvetica,sans-Serif" font-size="10.00">async_meta_s</text>
</a>
</g>
</g>
<!-- Node5&#45;&gt;Node4 -->
<g id="edge5_Node000004_Node000005" class="edge">
<title>Node5&#45;&gt;Node4</title>
<g id="a_edge5_Node000004_Node000005"><a xlink:title=" ">
<path fill="none" stroke="#9a32cd" stroke-dasharray="5,2" d="M361.51,-145.79C381.03,-132.68 410.32,-114.45 438,-102.78 522.69,-67.07 546.63,-61.27 637.75,-49.28 779.56,-30.62 853.04,32.02 959.25,-63.78 987.92,-89.64 953.93,-118 977.25,-148.78 980.08,-152.52 983.86,-155.59 987.92,-158.09"/>
<polygon fill="#9a32cd" stroke="#9a32cd" points="359.78,-142.73 353.5,-151.26 363.73,-148.51 359.78,-142.73"/>
</a>
</g>
<text text-anchor="middle" x="688.5" y="-50.28" font-family="Helvetica,sans-Serif" font-size="10.00" fill="grey"> async</text>
</g>
<!-- Node11 -->
<g id="Node000011" class="node">
<title>Node11</title>
<g id="a_Node000011"><a xlink:href="a02254.html" target="_top" xlink:title=" ">
<polygon fill="white" stroke="#666666" points="736.62,-177.03 640.38,-177.03 640.38,-158.53 736.62,-158.53 736.62,-177.03"/>
<text text-anchor="middle" x="688.5" y="-163.53" font-family="Helvetica,sans-Serif" font-size="10.00">async_condition_s</text>
</a>
</g>
</g>
<!-- Node5&#45;&gt;Node11 -->
<g id="edge13_Node000011_Node000005" class="edge">
<title>Node5&#45;&gt;Node11</title>
<g id="a_edge13_Node000011_Node000005"><a xlink:title=" ">
<path fill="none" stroke="#9a32cd" stroke-dasharray="5,2" d="M388.85,-162.64C455.93,-163.8 574.09,-165.83 639.89,-166.96"/>
<polygon fill="#9a32cd" stroke="#9a32cd" points="389.31,-159.15 379.25,-162.48 389.19,-166.15 389.31,-159.15"/>
</a>
</g>
<text text-anchor="middle" x="490.62" y="-166.28" font-family="Helvetica,sans-Serif" font-size="10.00" fill="grey"> meta</text>
</g>
<!-- Node12 -->
<g id="Node000012" class="node">
<title>Node12</title>
<g id="a_Node000012"><a xlink:href="a02246.html" target="_top" xlink:title=" ">
<polygon fill="white" stroke="#666666" points="542.88,-130.03 438.38,-130.03 438.38,-111.53 542.88,-111.53 542.88,-130.03"/>
<text text-anchor="middle" x="490.62" y="-116.53" font-family="Helvetica,sans-Serif" font-size="10.00">async_completion_s</text>
</a>
</g>
</g>
<!-- Node5&#45;&gt;Node12 -->
<g id="edge15_Node000012_Node000005" class="edge">
<title>Node5&#45;&gt;Node12</title>
<g id="a_edge15_Node000012_Node000005"><a xlink:title=" ">
<path fill="none" stroke="#9a32cd" stroke-dasharray="5,2" d="M373.91,-148.2C380.92,-145.73 388.28,-143.29 395.25,-141.28 409.26,-137.24 424.65,-133.57 438.86,-130.5"/>
<polygon fill="#9a32cd" stroke="#9a32cd" points="372.89,-144.85 364.69,-151.55 375.28,-151.42 372.89,-144.85"/>
</a>
</g>
<text text-anchor="middle" x="407.62" y="-142.28" font-family="Helvetica,sans-Serif" font-size="10.00" fill="grey"> meta</text>
</g>
<!-- Node13 -->
<g id="Node000013" class="node">
<title>Node13</title>
<g id="a_Node000013"><a xlink:href="a02250.html" target="_top" xlink:title=" ">
<polygon fill="white" stroke="#666666" points="543.25,-213.03 438,-213.03 438,-194.53 543.25,-194.53 543.25,-213.03"/>
<text text-anchor="middle" x="490.62" y="-199.53" font-family="Helvetica,sans-Serif" font-size="10.00">async_semaphore_s</text>
</a>
</g>
</g>
<!-- Node5&#45;&gt;Node13 -->
<g id="edge18_Node000013_Node000005" class="edge">
<title>Node5&#45;&gt;Node13</title>
<g id="a_edge18_Node000013_Node000005"><a xlink:title=" ">
<path fill="none" stroke="#9a32cd" stroke-dasharray="5,2" d="M378.53,-174.78C384.13,-176.51 389.82,-178.23 395.25,-179.78 412.97,-184.85 432.71,-189.95 449.53,-194.14"/>
<polygon fill="#9a32cd" stroke="#9a32cd" points="380.01,-171.58 369.42,-171.91 377.9,-178.25 380.01,-171.58"/>
</a>
</g>
<text text-anchor="middle" x="407.62" y="-187.16" font-family="Helvetica,sans-Serif" font-size="10.00" fill="grey"> meta</text>
</g>
<!-- Node6 -->
<g id="Node000006" class="node">
<title>Node6</title>
<g id="a_Node000006"><a xlink:href="a02326.html" target="_top" xlink:title=" ">
<polygon fill="white" stroke="#666666" points="204.88,-329.03 142.38,-329.03 142.38,-310.53 204.88,-310.53 204.88,-329.03"/>
<text text-anchor="middle" x="173.62" y="-315.53" font-family="Helvetica,sans-Serif" font-size="10.00">utils_list_s</text>
</a>
</g>
</g>
<!-- Node6&#45;&gt;Node3 -->
<g id="edge25_Node000003_Node000006" class="edge">
<title>Node6&#45;&gt;Node3</title>
<g id="a_edge25_Node000003_Node000006"><a xlink:title=" ">
<path fill="none" stroke="#9a32cd" stroke-dasharray="5,2" d="M216.45,-317.5C310.18,-312.38 536.71,-300.01 637.59,-294.5"/>
<polygon fill="#9a32cd" stroke="#9a32cd" points="216.48,-313.99 206.68,-318.03 216.86,-320.98 216.48,-313.99"/>
</a>
</g>
<text text-anchor="middle" x="407.62" y="-308.71" font-family="Helvetica,sans-Serif" font-size="10.00" fill="grey"> list</text>
</g>
<!-- Node6&#45;&gt;Node4 -->
<g id="edge21_Node000004_Node000006" class="edge">
<title>Node6&#45;&gt;Node4</title>
<g id="a_edge21_Node000004_Node000006"><a xlink:title=" ">
<path fill="none" stroke="#9a32cd" stroke-dasharray="5,2" d="M216.08,-330.15C248.66,-337.4 295.31,-345.78 336.75,-345.78 336.75,-345.78 336.75,-345.78 848.75,-345.78 905.28,-345.78 920.85,-324.27 959.25,-282.78 989.24,-250.38 1005.48,-198.41 1011.15,-177.23"/>
<polygon fill="#9a32cd" stroke="#9a32cd" points="217.17,-326.81 206.65,-327.99 215.61,-333.64 217.17,-326.81"/>
</a>
</g>
<text text-anchor="middle" x="590.5" y="-346.78" font-family="Helvetica,sans-Serif" font-size="10.00" fill="grey"> orphan_vacs</text>
</g>
<!-- Node6&#45;&gt;Node5 -->
<g id="edge6_Node000005_Node000006" class="edge">
<title>Node6&#45;&gt;Node5</title>
<g id="a_edge6_Node000005_Node000006"><a xlink:title=" ">
<path fill="none" stroke="#9a32cd" stroke-dasharray="5,2" d="M182.91,-299.78C191.69,-280.33 207.06,-250.8 227,-230.28 252.83,-203.7 290.96,-182.93 314.8,-171.52"/>
<polygon fill="#9a32cd" stroke="#9a32cd" points="179.77,-298.21 179.01,-308.78 186.19,-301 179.77,-298.21"/>
</a>
</g>
<text text-anchor="middle" x="253.62" y="-231.28" font-family="Helvetica,sans-Serif" font-size="10.00" fill="grey"> outstanding</text>
</g>
<!-- Node6&#45;&gt;Node13 -->
<g id="edge19_Node000013_Node000006" class="edge">
<title>Node6&#45;&gt;Node13</title>
<g id="a_edge19_Node000013_Node000006"><a xlink:title=" ">
<path fill="none" stroke="#9a32cd" stroke-dasharray="5,2" d="M197.94,-303.89C206.78,-298.31 217.11,-292.3 227,-287.78 302.75,-253.13 396.85,-226.78 449.37,-213.45"/>
<polygon fill="#9a32cd" stroke="#9a32cd" points="196.08,-300.92 189.62,-309.31 199.9,-306.79 196.08,-300.92"/>
</a>
</g>
<text text-anchor="middle" x="337.75" y="-259.04" font-family="Helvetica,sans-Serif" font-size="10.00" fill="grey"> pending_list</text>
</g>
<!-- Node6&#45;&gt;Node16 -->
<g id="edge30_Node000016_Node000006" class="edge">
<title>Node6&#45;&gt;Node16</title>
<g id="a_edge30_Node000016_Node000006"><a xlink:title=" ">
<path fill="none" stroke="#9a32cd" stroke-dasharray="5,2" d="M192.72,-336.77C202.25,-344.86 214.54,-354.01 227,-359.78 272.31,-380.77 286.82,-383.78 336.75,-383.78 336.75,-383.78 336.75,-383.78 848.75,-383.78 892.9,-383.78 943.55,-387.76 976.9,-390.93"/>
<polygon fill="#9a32cd" stroke="#9a32cd" points="195.12,-334.22 185.32,-330.2 190.47,-339.45 195.12,-334.22"/>
</a>
</g>
<text text-anchor="middle" x="590.5" y="-384.78" font-family="Helvetica,sans-Serif" font-size="10.00" fill="grey"> vaccels</text>
</g>
<!-- Node7 -->
<g id="Node000007" class="node">
<title>Node7</title>
<g id="a_Node000007"><a xlink:href="a02322.html" target="_top" xlink:title=" ">
<polygon fill="white" stroke="#666666" points="78.25,-436.03 0,-436.03 0,-417.53 78.25,-417.53 78.25,-436.03"/>
<text text-anchor="middle" x="39.12" y="-422.53" font-family="Helvetica,sans-Serif" font-size="10.00">utils_list_node</text>
</a>
</g>
</g>
<!-- Node7&#45;&gt;Node2 -->
<g id="edge26_Node000002_Node000007" class="edge">
<title>Node7&#45;&gt;Node2</title>
<g id="a_edge26_Node000002_Node000007"><a xlink:title=" ">
<path fill="none" stroke="#9a32cd" stroke-dasharray="5,2" d="M89.91,-433.99C114.71,-436.99 145.19,-439.78 172.62,-439.78 172.62,-439.78 172.62,-439.78 689.5,-439.78 730.44,-439.78 777,-445.88 808.76,-450.98"/>
<polygon fill="#9a32cd" stroke="#9a32cd" points="90.44,-430.53 80.09,-432.75 89.57,-437.47 90.44,-430.53"/>
</a>
</g>
<text text-anchor="middle" x="407.62" y="-440.78" font-family="Helvetica,sans-Serif" font-size="10.00" fill="grey"> list</text>
</g>
<!-- Node7&#45;&gt;Node6 -->
<g id="edge7_Node000006_Node000007" class="edge">
<title>Node7&#45;&gt;Node6</title>
<g id="a_edge7_Node000006_Node000007"><a xlink:title=" ">
<path fill="none" stroke="#9a32cd" stroke-dasharray="5,2" d="M60.49,-410.33C88.51,-387.71 138.04,-347.71 160.7,-329.41"/>
<polygon fill="#9a32cd" stroke="#9a32cd" points="58.64,-407.33 53.06,-416.33 63.04,-412.77 58.64,-407.33"/>
</a>
</g>
<text text-anchor="middle" x="108.25" y="-380.69" font-family="Helvetica,sans-Serif" font-size="10.00" fill="grey"> head</text>
</g>
<!-- Node7&#45;&gt;Node7 -->
<g id="edge8_Node000007_Node000007" class="edge">
<title>Node7&#45;&gt;Node7</title>
<g id="a_edge8_Node000007_Node000007"><a xlink:title=" ">
<path fill="none" stroke="#9a32cd" stroke-dasharray="5,2" d="M26.81,-447.39C28.3,-451.28 32.41,-454.03 39.12,-454.03 51.41,-454.03 54.96,-444.85 49.78,-436.28"/>
<polygon fill="#9a32cd" stroke="#9a32cd" points="30.23,-448.18 28.25,-437.77 23.3,-447.14 30.23,-448.18"/>
</a>
</g>
<text text-anchor="middle" x="39.12" y="-465.53" font-family="Helvetica,sans-Serif" font-size="10.00" fill="grey"> next</text>
<text text-anchor="middle" x="39.12" y="-455.03" font-family="Helvetica,sans-Serif" font-size="10.00" fill="grey">prev</text>
</g>
<!-- Node7&#45;&gt;Node12 -->
<g id="edge16_Node000012_Node000007" class="edge">
<title>Node7&#45;&gt;Node12</title>
<g id="a_edge16_Node000012_Node000007"><a xlink:title=" ">
<path fill="none" stroke="#9a32cd" stroke-dasharray="5,2" d="M43.24,-406.04C53.47,-340.92 88.3,-142.75 138.25,-105.78 239.85,-30.6 406.88,-86.81 467.1,-111.08"/>
<polygon fill="#9a32cd" stroke="#9a32cd" points="39.81,-405.28 41.75,-415.7 46.73,-406.35 39.81,-405.28"/>
</a>
</g>
<text text-anchor="middle" x="253.62" y="-71.58" font-family="Helvetica,sans-Serif" font-size="10.00" fill="grey"> outstanding</text>
</g>
<!-- Node7&#45;&gt;Node18 -->
<g id="edge35_Node000018_Node000007" class="edge">
<title>Node7&#45;&gt;Node18</title>
<g id="a_edge35_Node000018_Node000007"><a xlink:title=" ">
<path fill="none" stroke="#9a32cd" stroke-dasharray="5,2" d="M49.39,-446.2C67.64,-481.32 111.84,-551.78 172.62,-551.78 172.62,-551.78 172.62,-551.78 936.25,-551.78 1021.25,-551.78 1047.49,-528.92 1109.5,-470.78 1128.92,-452.58 1148.65,-428.26 1158.87,-415.14"/>
<polygon fill="#9a32cd" stroke="#9a32cd" points="52.66,-444.91 45.06,-437.53 46.39,-448.04 52.66,-444.91"/>
</a>
</g>
<text text-anchor="middle" x="590.5" y="-552.78" font-family="Helvetica,sans-Serif" font-size="10.00" fill="grey"> vaccels</text>
</g>
<!-- Node8 -->
<g id="Node000008" class="node">
<title>Node8</title>
<g id="a_Node000008"><a xlink:href="a02238.html" target="_top" xlink:title=" ">
<polygon fill="white" stroke="#666666" points="201.5,-171.03 145.75,-171.03 145.75,-152.53 201.5,-152.53 201.5,-171.03"/>
<text text-anchor="middle" x="173.62" y="-157.53" font-family="Helvetica,sans-Serif" font-size="10.00">ivshmem</text>
</a>
</g>
</g>
<!-- Node8&#45;&gt;Node5 -->
<g id="edge9_Node000005_Node000008" class="edge">
<title>Node8&#45;&gt;Node5</title>
<g id="a_edge9_Node000005_Node000008"><a xlink:title=" ">
<path fill="none" stroke="#9a32cd" stroke-dasharray="5,2" d="M213.27,-161.78C238.88,-161.78 272.35,-161.78 297.98,-161.78"/>
<polygon fill="#9a32cd" stroke="#9a32cd" points="213.27,-158.28 203.27,-161.78 213.27,-165.28 213.27,-158.28"/>
</a>
</g>
<text text-anchor="middle" x="253.62" y="-162.78" font-family="Helvetica,sans-Serif" font-size="10.00" fill="grey"> regs</text>
</g>
<!-- Node9 -->
<g id="Node000009" class="node">
<title>Node9</title>
<g id="a_Node000009"><a xlink:href="a02194.html" target="_top" xlink:title=" ">
<polygon fill="white" stroke="#666666" points="209,-133.03 138.25,-133.03 138.25,-114.53 209,-114.53 209,-133.03"/>
<text text-anchor="middle" x="173.62" y="-119.53" font-family="Helvetica,sans-Serif" font-size="10.00">arch_alloc_s</text>
</a>
</g>
</g>
<!-- Node9&#45;&gt;Node4 -->
<g id="edge24_Node000004_Node000009" class="edge">
<title>Node9&#45;&gt;Node4</title>
<g id="a_edge24_Node000004_Node000009"><a xlink:title=" ">
<path fill="none" stroke="#9a32cd" stroke-dasharray="5,2" d="M211,-110.27C316.31,-72.81 630.69,27.38 893.25,-7.78 923.39,-11.82 939.09,-3.02 959.25,-25.78 995.88,-67.14 945.3,-103.71 977.25,-148.78 979.96,-152.61 983.69,-155.72 987.72,-158.24"/>
<polygon fill="#9a32cd" stroke="#9a32cd" points="209.98,-106.92 201.76,-113.59 212.35,-113.5 209.98,-106.92"/>
</a>
</g>
<text text-anchor="middle" x="590.5" y="-19.77" font-family="Helvetica,sans-Serif" font-size="10.00" fill="grey"> allocator</text>
</g>
<!-- Node9&#45;&gt;Node5 -->
<g id="edge10_Node000005_Node000009" class="edge">
<title>Node9&#45;&gt;Node5</title>
<g id="a_edge10_Node000005_Node000009"><a xlink:title=" ">
<path fill="none" stroke="#9a32cd" stroke-dasharray="5,2" d="M220.54,-133.66C239.11,-137.74 260.73,-142.61 280.25,-147.28 286.55,-148.79 293.24,-150.45 299.71,-152.09"/>
<polygon fill="#9a32cd" stroke="#9a32cd" points="221.41,-130.27 210.9,-131.55 219.92,-137.1 221.41,-130.27"/>
</a>
</g>
<text text-anchor="middle" x="253.62" y="-148.28" font-family="Helvetica,sans-Serif" font-size="10.00" fill="grey"> alloc</text>
</g>
<!-- Node10 -->
<g id="Node000010" class="node">
<title>Node10</title>
<g id="a_Node000010"><a xlink:href="a02298.html" target="_top" xlink:title=" ">
<polygon fill="white" stroke="#666666" points="888.38,-177.03 807.12,-177.03 807.12,-158.53 888.38,-158.53 888.38,-177.03"/>
<text text-anchor="middle" x="847.75" y="-163.53" font-family="Helvetica,sans-Serif" font-size="10.00">arax_throttle_s</text>
</a>
</g>
</g>
<!-- Node10&#45;&gt;Node4 -->
<g id="edge11_Node000004_Node000010" class="edge">
<title>Node10&#45;&gt;Node4</title>
<g id="a_edge11_Node000004_Node000010"><a xlink:title=" ">
<path fill="none" stroke="#9a32cd" stroke-dasharray="5,2" d="M899.83,-167.78C927.8,-167.78 961.44,-167.78 984.83,-167.78"/>
<polygon fill="#9a32cd" stroke="#9a32cd" points="900.14,-164.28 890.14,-167.78 900.14,-171.28 900.14,-164.28"/>
</a>
</g>
<text text-anchor="middle" x="935.25" y="-168.78" font-family="Helvetica,sans-Serif" font-size="10.00" fill="grey"> throttle</text>
</g>
<!-- Node10&#45;&gt;Node16 -->
<g id="edge31_Node000016_Node000010" class="edge">
<title>Node10&#45;&gt;Node16</title>
<g id="a_edge31_Node000016_Node000010"><a xlink:title=" ">
<path fill="none" stroke="#9a32cd" stroke-dasharray="5,2" d="M882.63,-182.34C907.34,-194.62 939.77,-214.5 959.25,-241.28 993.66,-288.6 1007.89,-359.76 1012.08,-385.26"/>
<polygon fill="#9a32cd" stroke="#9a32cd" points="884.14,-179.18 873.6,-178.03 881.12,-185.5 884.14,-179.18"/>
</a>
</g>
<text text-anchor="middle" x="935.25" y="-242.28" font-family="Helvetica,sans-Serif" font-size="10.00" fill="grey"> throttle</text>
</g>
<!-- Node11&#45;&gt;Node4 -->
<g id="edge20_Node000004_Node000011" class="edge">
<title>Node11&#45;&gt;Node4</title>
<g id="a_edge20_Node000004_Node000011"><a xlink:title=" ">
<path fill="none" stroke="#9a32cd" stroke-dasharray="5,2" d="M721.03,-153.7C743.24,-144.57 773.94,-133.54 802.25,-128.78 842.14,-122.08 853.3,-122.46 893.25,-128.78 928.37,-134.33 967.19,-148.48 990.97,-158.11"/>
<polygon fill="#9a32cd" stroke="#9a32cd" points="719.8,-150.42 711.95,-157.53 722.53,-156.86 719.8,-150.42"/>
</a>
</g>
<text text-anchor="middle" x="847.75" y="-140.28" font-family="Helvetica,sans-Serif" font-size="10.00" fill="grey"> cntrl_ready_cond</text>
<text text-anchor="middle" x="847.75" y="-129.78" font-family="Helvetica,sans-Serif" font-size="10.00" fill="grey">orphan_cond</text>
</g>
<!-- Node11&#45;&gt;Node10 -->
<g id="edge12_Node000010_Node000011" class="edge">
<title>Node11&#45;&gt;Node10</title>
<g id="a_edge12_Node000010_Node000011"><a xlink:title=" ">
<path fill="none" stroke="#9a32cd" stroke-dasharray="5,2" d="M748.6,-167.78C768,-167.78 789.09,-167.78 806.72,-167.78"/>
<polygon fill="#9a32cd" stroke="#9a32cd" points="748.62,-164.28 738.62,-167.78 748.62,-171.28 748.62,-164.28"/>
</a>
</g>
<text text-anchor="middle" x="770.75" y="-168.78" font-family="Helvetica,sans-Serif" font-size="10.00" fill="grey"> ready</text>
</g>
<!-- Node11&#45;&gt;Node16 -->
<g id="edge29_Node000016_Node000011" class="edge">
<title>Node11&#45;&gt;Node16</title>
<g id="a_edge29_Node000016_Node000011"><a xlink:title=" ">
<path fill="none" stroke="#9a32cd" stroke-dasharray="5,2" d="M712.58,-183.77C734.9,-198.83 769.98,-221.45 802.25,-237.78 841.13,-257.46 856.89,-250.26 893.25,-274.28 943.06,-307.19 989.13,-363.19 1006.35,-385.35"/>
<polygon fill="#9a32cd" stroke="#9a32cd" points="714.77,-181.03 704.53,-178.29 710.82,-186.81 714.77,-181.03"/>
</a>
</g>
<text text-anchor="middle" x="847.75" y="-275.28" font-family="Helvetica,sans-Serif" font-size="10.00" fill="grey"> lock</text>
</g>
<!-- Node12&#45;&gt;Node11 -->
<g id="edge14_Node000011_Node000012" class="edge">
<title>Node12&#45;&gt;Node11</title>
<g id="a_edge14_Node000011_Node000012"><a xlink:title=" ">
<path fill="none" stroke="#9a32cd" stroke-dasharray="5,2" d="M554.64,-128.12C575.56,-131.28 598.84,-135.59 619.75,-141.28 635.71,-145.63 653.08,-152.46 666.23,-158.1"/>
<polygon fill="#9a32cd" stroke="#9a32cd" points="555.18,-124.66 544.78,-126.7 554.18,-131.59 555.18,-124.66"/>
</a>
</g>
<text text-anchor="middle" x="590.5" y="-142.28" font-family="Helvetica,sans-Serif" font-size="10.00" fill="grey"> mutex</text>
</g>
<!-- Node13&#45;&gt;Node11 -->
<g id="edge17_Node000011_Node000013" class="edge">
<title>Node13&#45;&gt;Node11</title>
<g id="a_edge17_Node000011_Node000013"><a xlink:title=" ">
<path fill="none" stroke="#9a32cd" stroke-dasharray="5,2" d="M554.77,-192.17C582.44,-187.09 614.37,-181.22 639.98,-176.51"/>
<polygon fill="#9a32cd" stroke="#9a32cd" points="554.29,-188.7 545.09,-193.95 555.56,-195.59 554.29,-188.7"/>
</a>
</g>
<text text-anchor="middle" x="590.5" y="-191.06" font-family="Helvetica,sans-Serif" font-size="10.00" fill="grey"> semaphore</text>
</g>
<!-- Node14 -->
<g id="Node000014" class="node">
<title>Node14</title>
<g id="a_Node000014"><a xlink:href="a02314.html" target="_top" xlink:title=" ">
<polygon fill="white" stroke="#666666" points="877.88,-84.03 817.62,-84.03 817.62,-65.53 877.88,-65.53 877.88,-84.03"/>
<text text-anchor="middle" x="847.75" y="-70.53" font-family="Helvetica,sans-Serif" font-size="10.00">utils_kv_s</text>
</a>
</g>
</g>
<!-- Node14&#45;&gt;Node4 -->
<g id="edge22_Node000004_Node000014" class="edge">
<title>Node14&#45;&gt;Node4</title>
<g id="a_edge22_Node000004_Node000014"><a xlink:title=" ">
<path fill="none" stroke="#9a32cd" stroke-dasharray="5,2" d="M889.15,-68C912.16,-66.48 940.11,-68.88 959.25,-84.78 981.97,-103.67 958.65,-125.82 977.25,-148.78 980.29,-152.53 984.28,-155.63 988.49,-158.16"/>
<polygon fill="#9a32cd" stroke="#9a32cd" points="889.11,-64.49 879.49,-68.92 889.77,-71.46 889.11,-64.49"/>
</a>
</g>
<text text-anchor="middle" x="935.25" y="-96.28" font-family="Helvetica,sans-Serif" font-size="10.00" fill="grey"> ass_kv</text>
<text text-anchor="middle" x="935.25" y="-85.78" font-family="Helvetica,sans-Serif" font-size="10.00" fill="grey">metrics_kv</text>
</g>
<!-- Node15 -->
<g id="Node000015" class="node">
<title>Node15</title>
<g id="a_Node000015"><a xlink:href="a02318.html" target="_top" xlink:title=" ">
<polygon fill="white" stroke="#666666" points="705.12,-87.03 671.88,-87.03 671.88,-68.53 705.12,-68.53 705.12,-87.03"/>
<text text-anchor="middle" x="688.5" y="-73.53" font-family="Helvetica,sans-Serif" font-size="10.00">Pair</text>
</a>
</g>
</g>
<!-- Node15&#45;&gt;Node14 -->
<g id="edge23_Node000014_Node000015" class="edge">
<title>Node15&#45;&gt;Node14</title>
<g id="a_edge23_Node000014_Node000015"><a xlink:title=" ">
<path fill="none" stroke="#9a32cd" stroke-dasharray="5,2" d="M716.77,-77.26C744.79,-76.73 788.29,-75.9 817.14,-75.34"/>
<polygon fill="#9a32cd" stroke="#9a32cd" points="716.89,-73.76 706.96,-77.45 717.02,-80.76 716.89,-73.76"/>
</a>
</g>
<text text-anchor="middle" x="770.75" y="-77.46" font-family="Helvetica,sans-Serif" font-size="10.00" fill="grey"> kv</text>
</g>
<!-- Node16&#45;&gt;Node1 -->
<g id="edge27_Node000001_Node000016" class="edge">
<title>Node16&#45;&gt;Node1</title>
<g id="a_edge27_Node000001_Node000016"><a xlink:title=" ">
<path fill="none" stroke="#9a32cd" stroke-dasharray="5,2" d="M1042.45,-409.82C1073.32,-427.05 1122.98,-454.77 1148.94,-469.26"/>
<polygon fill="#9a32cd" stroke="#9a32cd" points="1044.52,-406.97 1034.09,-405.15 1041.11,-413.08 1044.52,-406.97"/>
</a>
</g>
<text text-anchor="middle" x="1089.62" y="-447.77" font-family="Helvetica,sans-Serif" font-size="10.00" fill="grey"> phys</text>
</g>
<!-- Node16&#45;&gt;Node18 -->
<g id="edge36_Node000018_Node000016" class="edge">
<title>Node16&#45;&gt;Node18</title>
<g id="a_edge36_Node000018_Node000016"><a xlink:title=" ">
<path fill="none" stroke="#9a32cd" stroke-dasharray="5,2" d="M1062.92,-384.09C1077.88,-382.15 1094.44,-381.51 1109.5,-384.28 1121.99,-386.58 1135.3,-391.5 1145.85,-396.06"/>
<polygon fill="#9a32cd" stroke="#9a32cd" points="1062.68,-380.58 1053.33,-385.55 1063.74,-387.5 1062.68,-380.58"/>
</a>
</g>
<text text-anchor="middle" x="1089.62" y="-385.28" font-family="Helvetica,sans-Serif" font-size="10.00" fill="grey"> phys</text>
</g>
<!-- Node17 -->
<g id="Node000017" class="node">
<title>Node17</title>
<g id="a_Node000017"><a xlink:href="a02342.html" target="_top" xlink:title=" ">
<polygon fill="white" stroke="#666666" points="893.25,-430.03 802.25,-430.03 802.25,-411.53 893.25,-411.53 893.25,-430.03"/>
<text text-anchor="middle" x="847.75" y="-416.53" font-family="Helvetica,sans-Serif" font-size="10.00">arax_accel_stats</text>
</a>
</g>
</g>
<!-- Node17&#45;&gt;Node16 -->
<g id="edge32_Node000016_Node000017" class="edge">
<title>Node17&#45;&gt;Node16</title>
<g id="a_edge32_Node000016_Node000017"><a xlink:title=" ">
<path fill="none" stroke="#9a32cd" stroke-dasharray="5,2" d="M904.41,-412C928.34,-408.22 955.64,-403.91 976.94,-400.55"/>
<polygon fill="#9a32cd" stroke="#9a32cd" points="904.16,-408.49 894.83,-413.51 905.25,-415.41 904.16,-408.49"/>
</a>
</g>
<text text-anchor="middle" x="935.25" y="-411.87" font-family="Helvetica,sans-Serif" font-size="10.00" fill="grey"> stats</text>
</g>
<!-- Node18&#45;&gt;Node16 -->
<g id="edge33_Node000016_Node000018" class="edge">
<title>Node18&#45;&gt;Node16</title>
<g id="a_edge33_Node000016_Node000018"><a xlink:title=" ">
<path fill="none" stroke="#9a32cd" stroke-dasharray="5,2" d="M1115.75,-402.11C1094.87,-400.58 1071.09,-398.84 1051.93,-397.44"/>
<polygon fill="#9a32cd" stroke="#9a32cd" points="1115.27,-405.58 1125.5,-402.82 1115.78,-398.6 1115.27,-405.58"/>
</a>
</g>
<text text-anchor="middle" x="1089.62" y="-402.59" font-family="Helvetica,sans-Serif" font-size="10.00" fill="grey"> free_vaq</text>
</g>
<!-- Node19 -->
<g id="Node000019" class="node">
<title>Node19</title>
<g id="a_Node000019"><a xlink:href="a02330.html" target="_top" xlink:title=" ">
<polygon fill="white" stroke="#666666" points="1035.62,-140.03 993.38,-140.03 993.38,-121.53 1035.62,-121.53 1035.62,-140.03"/>
<text text-anchor="middle" x="1014.5" y="-126.53" font-family="Helvetica,sans-Serif" font-size="10.00">queue</text>
</a>
</g>
</g>
<!-- Node19&#45;&gt;Node18 -->
<g id="edge37_Node000018_Node000019" class="edge">
<title>Node19&#45;&gt;Node18</title>
<g id="a_edge37_Node000018_Node000019"><a xlink:title=" ">
<path fill="none" stroke="#9a32cd" stroke-dasharray="5,2" d="M1045.33,-144.19C1047.65,-145.88 1049.83,-147.74 1051.75,-149.78 1124.71,-227.48 1156.45,-359.59 1164.1,-396.15"/>
<polygon fill="#9a32cd" stroke="#9a32cd" points="1047.6,-141.47 1037.23,-139.29 1043.98,-147.46 1047.6,-141.47"/>
</a>
</g>
<text text-anchor="middle" x="1089.62" y="-232.5" font-family="Helvetica,sans-Serif" font-size="10.00" fill="grey"> queue</text>
</g>
</g>
</svg>
