<?xml version="1.0" encoding="UTF-8" standalone="no"?>
<!DOCTYPE svg PUBLIC "-//W3C//DTD SVG 1.1//EN"
 "http://www.w3.org/Graphics/SVG/1.1/DTD/svg11.dtd">
<!-- Generated by graphviz version 8.0.5 (0)
 -->
<!-- Title: async_semaphore_s Pages: 1 -->
<svg width="271pt" height="224pt"
 viewBox="0.00 0.00 271.00 224.00" xmlns="http://www.w3.org/2000/svg" xmlns:xlink="http://www.w3.org/1999/xlink">
<g id="graph0" class="graph" transform="scale(1 1) rotate(0) translate(4 220)">
<title>async_semaphore_s</title>
<!-- Node1 -->
<g id="Node000001" class="node">
<title>Node1</title>
<g id="a_Node000001"><a xlink:title=" ">
<polygon fill="#999999" stroke="#666666" points="105.25,-18.5 0,-18.5 0,0 105.25,0 105.25,-18.5"/>
<text text-anchor="middle" x="52.62" y="-5" font-family="Helvetica,sans-Serif" font-size="10.00">async_semaphore_s</text>
</a>
</g>
</g>
<!-- Node2 -->
<g id="Node000002" class="node">
<title>Node2</title>
<g id="a_Node000002"><a xlink:href="a02230.html" target="_top" xlink:title=" ">
<polygon fill="white" stroke="#666666" points="188.12,-83.5 109.12,-83.5 109.12,-65 188.12,-65 188.12,-83.5"/>
<text text-anchor="middle" x="148.62" y="-70" font-family="Helvetica,sans-Serif" font-size="10.00">async_meta_s</text>
</a>
</g>
</g>
<!-- Node2&#45;&gt;Node1 -->
<g id="edge1_Node000001_Node000002" class="edge">
<title>Node2&#45;&gt;Node1</title>
<g id="a_edge1_Node000001_Node000002"><a xlink:title=" ">
<path fill="none" stroke="#9a32cd" stroke-dasharray="5,2" d="M126.63,-58.81C107.8,-46.46 81.32,-29.08 65.67,-18.81"/>
<polygon fill="#9a32cd" stroke="#9a32cd" points="124.4,-62.19 134.68,-64.75 128.24,-56.34 124.4,-62.19"/>
</a>
</g>
<text text-anchor="middle" x="119" y="-37.5" font-family="Helvetica,sans-Serif" font-size="10.00" fill="grey"> meta</text>
</g>
<!-- Node3 -->
<g id="Node000003" class="node">
<title>Node3</title>
<g id="a_Node000003"><a xlink:href="a02314.html" target="_top" xlink:title=" ">
<polygon fill="white" stroke="#666666" points="84.88,-148.5 22.38,-148.5 22.38,-130 84.88,-130 84.88,-148.5"/>
<text text-anchor="middle" x="53.62" y="-135" font-family="Helvetica,sans-Serif" font-size="10.00">utils_list_s</text>
</a>
</g>
</g>
<!-- Node3&#45;&gt;Node1 -->
<g id="edge7_Node000001_Node000003" class="edge">
<title>Node3&#45;&gt;Node1</title>
<g id="a_edge7_Node000001_Node000003"><a xlink:title=" ">
<path fill="none" stroke="#9a32cd" stroke-dasharray="5,2" d="M49.78,-118.99C47.89,-108.54 45.82,-95.36 44.88,-83.5 43.01,-60.04 47.83,-32.46 50.69,-18.81"/>
<polygon fill="#9a32cd" stroke="#9a32cd" points="46.53,-119.6 51.84,-128.77 53.4,-118.29 46.53,-119.6"/>
</a>
</g>
<text text-anchor="middle" x="73" y="-70" font-family="Helvetica,sans-Serif" font-size="10.00" fill="grey"> pending_list</text>
</g>
<!-- Node3&#45;&gt;Node2 -->
<g id="edge2_Node000002_Node000003" class="edge">
<title>Node3&#45;&gt;Node2</title>
<g id="a_edge2_Node000002_Node000003"><a xlink:title=" ">
<path fill="none" stroke="#9a32cd" stroke-dasharray="5,2" d="M67.69,-121.73C74.12,-114.87 82.13,-107.2 90.38,-101.5 100.78,-94.31 113.47,-88.32 124.34,-83.89"/>
<polygon fill="#9a32cd" stroke="#9a32cd" points="65.55,-118.99 61.5,-128.78 70.77,-123.65 65.55,-118.99"/>
</a>
</g>
<text text-anchor="middle" x="117.25" y="-102.5" font-family="Helvetica,sans-Serif" font-size="10.00" fill="grey"> outstanding</text>
</g>
<!-- Node4 -->
<g id="Node000004" class="node">
<title>Node4</title>
<g id="a_Node000004"><a xlink:href="a02310.html" target="_top" xlink:title=" ">
<polygon fill="white" stroke="#666666" points="92.75,-214.75 14.5,-214.75 14.5,-196.25 92.75,-196.25 92.75,-214.75"/>
<text text-anchor="middle" x="53.62" y="-201.25" font-family="Helvetica,sans-Serif" font-size="10.00">utils_list_node</text>
</a>
</g>
</g>
<!-- Node4&#45;&gt;Node3 -->
<g id="edge3_Node000003_Node000004" class="edge">
<title>Node4&#45;&gt;Node3</title>
<g id="a_edge3_Node000003_Node000004"><a xlink:title=" ">
<path fill="none" stroke="#9a32cd" stroke-dasharray="5,2" d="M53.62,-185C53.62,-172.91 53.62,-157.97 53.62,-148.78"/>
<polygon fill="#9a32cd" stroke="#9a32cd" points="50.13,-184.83 53.62,-194.83 57.13,-184.83 50.13,-184.83"/>
</a>
</g>
<text text-anchor="middle" x="65.62" y="-167.5" font-family="Helvetica,sans-Serif" font-size="10.00" fill="grey"> head</text>
</g>
<!-- Node4&#45;&gt;Node4 -->
<g id="edge4_Node000004_Node000004" class="edge">
<title>Node4&#45;&gt;Node4</title>
<g id="a_edge4_Node000004_Node000004"><a xlink:title=" ">
<path fill="none" stroke="#9a32cd" stroke-dasharray="5,2" d="M103.82,-210.42C108.09,-209.37 110.75,-207.73 110.75,-205.5 110.75,-201.74 103.2,-199.66 93.14,-199.25"/>
<polygon fill="#9a32cd" stroke="#9a32cd" points="103.63,-207.04 94.14,-211.75 104.49,-213.99 103.63,-207.04"/>
</a>
</g>
<text text-anchor="middle" x="121.62" y="-206.5" font-family="Helvetica,sans-Serif" font-size="10.00" fill="grey"> next</text>
<text text-anchor="middle" x="121.62" y="-196" font-family="Helvetica,sans-Serif" font-size="10.00" fill="grey">prev</text>
</g>
<!-- Node5 -->
<g id="Node000005" class="node">
<title>Node5</title>
<g id="a_Node000005"><a xlink:href="a02226.html" target="_top" xlink:title=" ">
<polygon fill="white" stroke="#666666" points="174.5,-148.5 118.75,-148.5 118.75,-130 174.5,-130 174.5,-148.5"/>
<text text-anchor="middle" x="146.62" y="-135" font-family="Helvetica,sans-Serif" font-size="10.00">ivshmem</text>
</a>
</g>
</g>
<!-- Node5&#45;&gt;Node2 -->
<g id="edge5_Node000002_Node000005" class="edge">
<title>Node5&#45;&gt;Node2</title>
<g id="a_edge5_Node000002_Node000005"><a xlink:title=" ">
<path fill="none" stroke="#9a32cd" stroke-dasharray="5,2" d="M147.24,-118.76C147.62,-106.97 148.08,-92.53 148.36,-83.61"/>
<polygon fill="#9a32cd" stroke="#9a32cd" points="143.71,-118.65 146.89,-128.75 150.71,-118.87 143.71,-118.65"/>
</a>
</g>
<text text-anchor="middle" x="159.5" y="-102.5" font-family="Helvetica,sans-Serif" font-size="10.00" fill="grey"> regs</text>
</g>
<!-- Node6 -->
<g id="Node000006" class="node">
<title>Node6</title>
<g id="a_Node000006"><a xlink:href="a02182.html" target="_top" xlink:title=" ">
<polygon fill="white" stroke="#666666" points="263,-148.5 192.25,-148.5 192.25,-130 263,-130 263,-148.5"/>
<text text-anchor="middle" x="227.62" y="-135" font-family="Helvetica,sans-Serif" font-size="10.00">arch_alloc_s</text>
</a>
</g>
</g>
<!-- Node6&#45;&gt;Node2 -->
<g id="edge6_Node000002_Node000006" class="edge">
<title>Node6&#45;&gt;Node2</title>
<g id="a_edge6_Node000002_Node000006"><a xlink:title=" ">
<path fill="none" stroke="#9a32cd" stroke-dasharray="5,2" d="M208.66,-123.13C193.23,-110.82 172,-93.89 159.36,-83.81"/>
<polygon fill="#9a32cd" stroke="#9a32cd" points="205.97,-126.26 215.97,-129.75 210.33,-120.78 205.97,-126.26"/>
</a>
</g>
<text text-anchor="middle" x="204.25" y="-102.5" font-family="Helvetica,sans-Serif" font-size="10.00" fill="grey"> alloc</text>
</g>
</g>
</svg>
