<?xml version="1.0" encoding="UTF-8" standalone="no"?>
<!DOCTYPE svg PUBLIC "-//W3C//DTD SVG 1.1//EN"
 "http://www.w3.org/Graphics/SVG/1.1/DTD/svg11.dtd">
<!-- Generated by graphviz version 12.2.1 (0)
 -->
<!-- Title: alloc.c Pages: 1 -->
<svg width="303pt" height="299pt"
 viewBox="0.00 0.00 303.00 299.00" xmlns="http://www.w3.org/2000/svg" xmlns:xlink="http://www.w3.org/1999/xlink">
<g id="graph0" class="graph" transform="scale(1 1) rotate(0) translate(4 295)">
<title>alloc.c</title>
<!-- Node1 -->
<g id="Node000001" class="node">
<title>Node1</title>
<g id="a_Node000001"><a xlink:title=" ">
<polygon fill="#999999" stroke="#666666" points="200.88,-291 156.38,-291 156.38,-272.5 200.88,-272.5 200.88,-291"/>
<text text-anchor="middle" x="178.62" y="-277.5" font-family="Helvetica,sans-Serif" font-size="10.00">alloc.c</text>
</a>
</g>
</g>
<!-- Node2 -->
<g id="Node000002" class="node">
<title>Node2</title>
<g id="a_Node000002"><a xlink:title=" ">
<polygon fill="#e0e0e0" stroke="#999999" points="88.75,-236.5 22.5,-236.5 22.5,-218 88.75,-218 88.75,-236.5"/>
<text text-anchor="middle" x="55.62" y="-223" font-family="Helvetica,sans-Serif" font-size="10.00">arch/alloc.h</text>
</a>
</g>
</g>
<!-- Node1&#45;&gt;Node2 -->
<g id="edge1_Node000001_Node000002" class="edge">
<title>Node1&#45;&gt;Node2</title>
<g id="a_edge1_Node000001_Node000002"><a xlink:title=" ">
<path fill="none" stroke="#63b8ff" d="M158.31,-272.08C138.73,-263.72 108.83,-250.96 86.34,-241.36"/>
<polygon fill="#63b8ff" stroke="#63b8ff" points="87.93,-238.23 77.36,-237.53 85.18,-244.67 87.93,-238.23"/>
</a>
</g>
</g>
<!-- Node3 -->
<g id="Node000003" class="node">
<title>Node3</title>
<g id="a_Node000003"><a xlink:href="a01400.html" target="_top" xlink:title=" ">
<polygon fill="white" stroke="#666666" points="174.12,-236.5 107.12,-236.5 107.12,-218 174.12,-218 174.12,-236.5"/>
<text text-anchor="middle" x="140.62" y="-223" font-family="Helvetica,sans-Serif" font-size="10.00">utils/timer.h</text>
</a>
</g>
</g>
<!-- Node1&#45;&gt;Node3 -->
<g id="edge2_Node000001_Node000003" class="edge">
<title>Node1&#45;&gt;Node3</title>
<g id="a_edge2_Node000001_Node000003"><a xlink:title=" ">
<path fill="none" stroke="#63b8ff" d="M172.35,-272.08C167.2,-264.97 159.75,-254.68 153.36,-245.85"/>
<polygon fill="#63b8ff" stroke="#63b8ff" points="156.37,-244.03 147.67,-237.98 150.7,-248.14 156.37,-244.03"/>
</a>
</g>
</g>
<!-- Node12 -->
<g id="Node000012" class="node">
<title>Node12</title>
<g id="a_Node000012"><a xlink:title=" ">
<polygon fill="#e0e0e0" stroke="#999999" points="240.75,-236.5 192.5,-236.5 192.5,-218 240.75,-218 240.75,-236.5"/>
<text text-anchor="middle" x="216.62" y="-223" font-family="Helvetica,sans-Serif" font-size="10.00">string.h</text>
</a>
</g>
</g>
<!-- Node1&#45;&gt;Node12 -->
<g id="edge12_Node000001_Node000012" class="edge">
<title>Node1&#45;&gt;Node12</title>
<g id="a_edge12_Node000001_Node000012"><a xlink:title=" ">
<path fill="none" stroke="#63b8ff" d="M184.9,-272.08C190.05,-264.97 197.5,-254.68 203.89,-245.85"/>
<polygon fill="#63b8ff" stroke="#63b8ff" points="206.55,-248.14 209.58,-237.98 200.88,-244.03 206.55,-248.14"/>
</a>
</g>
</g>
<!-- Node13 -->
<g id="Node000013" class="node">
<title>Node13</title>
<g id="a_Node000013"><a xlink:href="a01904.html" target="_top" xlink:title=" ">
<polygon fill="white" stroke="#666666" points="295,-182 242.25,-182 242.25,-163.5 295,-163.5 295,-182"/>
<text text-anchor="middle" x="268.62" y="-168.5" font-family="Helvetica,sans-Serif" font-size="10.00">malloc.h</text>
</a>
</g>
</g>
<!-- Node1&#45;&gt;Node13 -->
<g id="edge13_Node000001_Node000013" class="edge">
<title>Node1&#45;&gt;Node13</title>
<g id="a_edge13_Node000001_Node000013"><a xlink:title=" ">
<path fill="none" stroke="#63b8ff" d="M200.53,-272.13C216.32,-264.86 236.99,-252.99 249.62,-236.5 259.17,-224.04 263.95,-206.79 266.32,-193.53"/>
<polygon fill="#63b8ff" stroke="#63b8ff" points="269.76,-194.22 267.72,-183.82 262.83,-193.22 269.76,-194.22"/>
</a>
</g>
</g>
<!-- Node4 -->
<g id="Node000004" class="node">
<title>Node4</title>
<g id="a_Node000004"><a xlink:href="a01355.html" target="_top" xlink:title=" ">
<polygon fill="white" stroke="#666666" points="126.12,-182 83.12,-182 83.12,-163.5 126.12,-163.5 126.12,-182"/>
<text text-anchor="middle" x="104.62" y="-168.5" font-family="Helvetica,sans-Serif" font-size="10.00">arax.h</text>
</a>
</g>
</g>
<!-- Node3&#45;&gt;Node4 -->
<g id="edge3_Node000003_Node000004" class="edge">
<title>Node3&#45;&gt;Node4</title>
<g id="a_edge3_Node000003_Node000004"><a xlink:title=" ">
<path fill="none" stroke="#63b8ff" d="M134.68,-217.58C129.86,-210.55 122.9,-200.4 116.89,-191.64"/>
<polygon fill="#63b8ff" stroke="#63b8ff" points="119.86,-189.77 111.32,-183.51 114.08,-193.73 119.86,-189.77"/>
</a>
</g>
</g>
<!-- Node11 -->
<g id="Node000011" class="node">
<title>Node11</title>
<g id="a_Node000011"><a xlink:title=" ">
<polygon fill="#e0e0e0" stroke="#999999" points="194.88,-182 144.38,-182 144.38,-163.5 194.88,-163.5 194.88,-182"/>
<text text-anchor="middle" x="169.62" y="-168.5" font-family="Helvetica,sans-Serif" font-size="10.00">unistd.h</text>
</a>
</g>
</g>
<!-- Node3&#45;&gt;Node11 -->
<g id="edge11_Node000003_Node000011" class="edge">
<title>Node3&#45;&gt;Node11</title>
<g id="a_edge11_Node000003_Node000011"><a xlink:title=" ">
<path fill="none" stroke="#63b8ff" d="M145.41,-217.58C149.21,-210.7 154.66,-200.84 159.43,-192.21"/>
<polygon fill="#63b8ff" stroke="#63b8ff" points="162.42,-194.03 164.19,-183.58 156.29,-190.64 162.42,-194.03"/>
</a>
</g>
</g>
<!-- Node5 -->
<g id="Node000005" class="node">
<title>Node5</title>
<g id="a_Node000005"><a xlink:title=" ">
<polygon fill="#e0e0e0" stroke="#999999" points="45.25,-127.5 0,-127.5 0,-109 45.25,-109 45.25,-127.5"/>
<text text-anchor="middle" x="22.62" y="-114" font-family="Helvetica,sans-Serif" font-size="10.00">stdio.h</text>
</a>
</g>
</g>
<!-- Node4&#45;&gt;Node5 -->
<g id="edge4_Node000004_Node000005" class="edge">
<title>Node4&#45;&gt;Node5</title>
<g id="a_edge4_Node000004_Node000005"><a xlink:title=" ">
<path fill="none" stroke="#63b8ff" d="M91.08,-163.08C78.74,-155.18 60.25,-143.34 45.6,-133.96"/>
<polygon fill="#63b8ff" stroke="#63b8ff" points="47.77,-131.19 37.46,-128.75 44,-137.09 47.77,-131.19"/>
</a>
</g>
</g>
<!-- Node6 -->
<g id="Node000006" class="node">
<title>Node6</title>
<g id="a_Node000006"><a xlink:title=" ">
<polygon fill="#e0e0e0" stroke="#999999" points="293.88,-127.5 243.38,-127.5 243.38,-109 293.88,-109 293.88,-127.5"/>
<text text-anchor="middle" x="268.62" y="-114" font-family="Helvetica,sans-Serif" font-size="10.00">stddef.h</text>
</a>
</g>
</g>
<!-- Node4&#45;&gt;Node6 -->
<g id="edge5_Node000004_Node000006" class="edge">
<title>Node4&#45;&gt;Node6</title>
<g id="a_edge5_Node000004_Node000006"><a xlink:title=" ">
<path fill="none" stroke="#63b8ff" d="M126.4,-164.78C153.37,-156.15 199.71,-141.31 232.14,-130.93"/>
<polygon fill="#63b8ff" stroke="#63b8ff" points="233.08,-134.3 241.53,-127.92 230.94,-127.64 233.08,-134.3"/>
</a>
</g>
</g>
<!-- Node7 -->
<g id="Node000007" class="node">
<title>Node7</title>
<g id="a_Node000007"><a xlink:href="a01361.html" target="_top" xlink:title=" ">
<polygon fill="white" stroke="#666666" points="155.12,-73 82.12,-73 82.12,-54.5 155.12,-54.5 155.12,-73"/>
<text text-anchor="middle" x="118.62" y="-59.5" font-family="Helvetica,sans-Serif" font-size="10.00">arax_types.h</text>
</a>
</g>
</g>
<!-- Node4&#45;&gt;Node7 -->
<g id="edge6_Node000004_Node000007" class="edge">
<title>Node4&#45;&gt;Node7</title>
<g id="a_edge6_Node000004_Node000007"><a xlink:title=" ">
<path fill="none" stroke="#63b8ff" d="M100.52,-163.13C95.27,-150.95 87.44,-128.05 92.62,-109 95.17,-99.66 100.23,-90.28 105.22,-82.57"/>
<polygon fill="#63b8ff" stroke="#63b8ff" points="108,-84.71 110.87,-74.51 102.27,-80.69 108,-84.71"/>
</a>
</g>
</g>
<!-- Node10 -->
<g id="Node000010" class="node">
<title>Node10</title>
<g id="a_Node000010"><a xlink:href="a01406.html" target="_top" xlink:title=" ">
<polygon fill="white" stroke="#666666" points="225.25,-127.5 102,-127.5 102,-109 225.25,-109 225.25,-127.5"/>
<text text-anchor="middle" x="163.62" y="-114" font-family="Helvetica,sans-Serif" font-size="10.00">core/arax_accel_types.h</text>
</a>
</g>
</g>
<!-- Node4&#45;&gt;Node10 -->
<g id="edge9_Node000004_Node000010" class="edge">
<title>Node4&#45;&gt;Node10</title>
<g id="a_edge9_Node000004_Node000010"><a xlink:title=" ">
<path fill="none" stroke="#63b8ff" d="M114.37,-163.08C122.87,-155.51 135.43,-144.33 145.74,-135.16"/>
<polygon fill="#63b8ff" stroke="#63b8ff" points="147.79,-138.03 152.93,-128.76 143.14,-132.8 147.79,-138.03"/>
</a>
</g>
</g>
<!-- Node8 -->
<g id="Node000008" class="node">
<title>Node8</title>
<g id="a_Node000008"><a xlink:title=" ">
<polygon fill="#e0e0e0" stroke="#999999" points="113.75,-18.5 53.5,-18.5 53.5,0 113.75,0 113.75,-18.5"/>
<text text-anchor="middle" x="83.62" y="-5" font-family="Helvetica,sans-Serif" font-size="10.00">sys/time.h</text>
</a>
</g>
</g>
<!-- Node7&#45;&gt;Node8 -->
<g id="edge7_Node000007_Node000008" class="edge">
<title>Node7&#45;&gt;Node8</title>
<g id="a_edge7_Node000007_Node000008"><a xlink:title=" ">
<path fill="none" stroke="#63b8ff" d="M112.85,-54.08C108.16,-47.05 101.39,-36.9 95.55,-28.14"/>
<polygon fill="#63b8ff" stroke="#63b8ff" points="98.6,-26.4 90.14,-20.02 92.77,-30.28 98.6,-26.4"/>
</a>
</g>
</g>
<!-- Node9 -->
<g id="Node000009" class="node">
<title>Node9</title>
<g id="a_Node000009"><a xlink:title=" ">
<polygon fill="#e0e0e0" stroke="#999999" points="175.12,-18.5 132.12,-18.5 132.12,0 175.12,0 175.12,-18.5"/>
<text text-anchor="middle" x="153.62" y="-5" font-family="Helvetica,sans-Serif" font-size="10.00">time.h</text>
</a>
</g>
</g>
<!-- Node7&#45;&gt;Node9 -->
<g id="edge8_Node000007_Node000009" class="edge">
<title>Node7&#45;&gt;Node9</title>
<g id="a_edge8_Node000007_Node000009"><a xlink:title=" ">
<path fill="none" stroke="#63b8ff" d="M124.4,-54.08C129.09,-47.05 135.86,-36.9 141.7,-28.14"/>
<polygon fill="#63b8ff" stroke="#63b8ff" points="144.48,-30.28 147.11,-20.02 138.65,-26.4 144.48,-30.28"/>
</a>
</g>
</g>
<!-- Node10&#45;&gt;Node7 -->
<g id="edge10_Node000010_Node000007" class="edge">
<title>Node10&#45;&gt;Node7</title>
<g id="a_edge10_Node000010_Node000007"><a xlink:title=" ">
<path fill="none" stroke="#63b8ff" d="M156.19,-108.58C149.97,-101.32 140.9,-90.73 133.22,-81.78"/>
<polygon fill="#63b8ff" stroke="#63b8ff" points="136.07,-79.72 126.9,-74.41 130.75,-84.28 136.07,-79.72"/>
</a>
</g>
</g>
<!-- Node13&#45;&gt;Node6 -->
<g id="edge14_Node000013_Node000006" class="edge">
<title>Node13&#45;&gt;Node6</title>
<g id="a_edge14_Node000013_Node000006"><a xlink:title=" ">
<path fill="none" stroke="#63b8ff" d="M268.62,-163.08C268.62,-156.58 268.62,-147.42 268.62,-139.16"/>
<polygon fill="#63b8ff" stroke="#63b8ff" points="272.13,-139.27 268.63,-129.27 265.13,-139.27 272.13,-139.27"/>
</a>
</g>
</g>
</g>
</svg>
