<?xml version="1.0" encoding="UTF-8" standalone="no"?>
<!DOCTYPE svg PUBLIC "-//W3C//DTD SVG 1.1//EN"
 "http://www.w3.org/Graphics/SVG/1.1/DTD/svg11.dtd">
<!-- Generated by graphviz version 8.0.5 (0)
 -->
<!-- Title: async_semaphore_init Pages: 1 -->
<svg width="359pt" height="27pt"
 viewBox="0.00 0.00 359.00 26.50" xmlns="http://www.w3.org/2000/svg" xmlns:xlink="http://www.w3.org/1999/xlink">
<g id="graph0" class="graph" transform="scale(1 1) rotate(0) translate(4 22.5)">
<title>async_semaphore_init</title>
<!-- Node1 -->
<g id="Node000001" class="node">
<title>Node1</title>
<g id="a_Node000001"><a xlink:title=" ">
<polygon fill="#999999" stroke="#666666" points="112.75,-18.5 0,-18.5 0,0 112.75,0 112.75,-18.5"/>
<text text-anchor="middle" x="56.38" y="-5" font-family="Helvetica,sans-Serif" font-size="10.00">async_semaphore_init</text>
</a>
</g>
</g>
<!-- Node2 -->
<g id="Node000002" class="node">
<title>Node2</title>
<g id="a_Node000002"><a xlink:href="a01946.html#ab36e49d2e694b1da49504a689ed48e4a" target="_top" xlink:title=" ">
<polygon fill="white" stroke="#666666" points="218.75,-18.5 148.75,-18.5 148.75,0 218.75,0 218.75,-18.5"/>
<text text-anchor="middle" x="183.75" y="-5" font-family="Helvetica,sans-Serif" font-size="10.00">utils_list_init</text>
</a>
</g>
</g>
<!-- Node1&#45;&gt;Node2 -->
<g id="edge1_Node000001_Node000002" class="edge">
<title>Node1&#45;&gt;Node2</title>
<g id="a_edge1_Node000001_Node000002"><a xlink:title=" ">
<path fill="none" stroke="#63b8ff" d="M113.1,-9.25C121.28,-9.25 129.61,-9.25 137.55,-9.25"/>
<polygon fill="#63b8ff" stroke="#63b8ff" points="137.43,-12.75 147.43,-9.25 137.43,-5.75 137.43,-12.75"/>
</a>
</g>
</g>
<!-- Node3 -->
<g id="Node000003" class="node">
<title>Node3</title>
<g id="a_Node000003"><a xlink:href="a01946.html#a63f2791c9b5c8e2fa15967cfafb7ccbb" target="_top" xlink:title=" ">
<polygon fill="white" stroke="#666666" points="351,-18.5 254.75,-18.5 254.75,0 351,0 351,-18.5"/>
<text text-anchor="middle" x="302.88" y="-5" font-family="Helvetica,sans-Serif" font-size="10.00">utils_list_node_init</text>
</a>
</g>
</g>
<!-- Node2&#45;&gt;Node3 -->
<g id="edge2_Node000002_Node000003" class="edge">
<title>Node2&#45;&gt;Node3</title>
<g id="a_edge2_Node000002_Node000003"><a xlink:title=" ">
<path fill="none" stroke="#63b8ff" d="M218.94,-9.25C226.64,-9.25 235.03,-9.25 243.41,-9.25"/>
<polygon fill="#63b8ff" stroke="#63b8ff" points="243.37,-12.75 253.37,-9.25 243.37,-5.75 243.37,-12.75"/>
</a>
</g>
</g>
</g>
</svg>
