<?xml version="1.0" encoding="UTF-8" standalone="no"?>
<!DOCTYPE svg PUBLIC "-//W3C//DTD SVG 1.1//EN"
 "http://www.w3.org/Graphics/SVG/1.1/DTD/svg11.dtd">
<!-- Generated by graphviz version 8.0.5 (0)
 -->
<!-- Title: async.h Pages: 1 -->
<svg width="407pt" height="245pt"
 viewBox="0.00 0.00 407.12 244.50" xmlns="http://www.w3.org/2000/svg" xmlns:xlink="http://www.w3.org/1999/xlink">
<g id="graph0" class="graph" transform="scale(1 1) rotate(0) translate(4 240.5)">
<title>async.h</title>
<!-- Node1 -->
<g id="Node000001" class="node">
<title>Node1</title>
<g id="a_Node000001"><a xlink:title=" ">
<polygon fill="#999999" stroke="#666666" points="261.12,-236.5 211.38,-236.5 211.38,-218 261.12,-218 261.12,-236.5"/>
<text text-anchor="middle" x="236.25" y="-223" font-family="Helvetica,sans-Serif" font-size="10.00">async.h</text>
</a>
</g>
</g>
<!-- Node2 -->
<g id="Node000002" class="node">
<title>Node2</title>
<g id="a_Node000002"><a xlink:href="a01403.html" target="_top" xlink:title=" ">
<polygon fill="white" stroke="#666666" points="149.38,-182 53.12,-182 53.12,-163.5 149.38,-163.5 149.38,-182"/>
<text text-anchor="middle" x="101.25" y="-168.5" font-family="Helvetica,sans-Serif" font-size="10.00">core/arax_object.h</text>
</a>
</g>
</g>
<!-- Node1&#45;&gt;Node2 -->
<g id="edge1_Node000001_Node000002" class="edge">
<title>Node1&#45;&gt;Node2</title>
<g id="a_edge1_Node000001_Node000002"><a xlink:title=" ">
<path fill="none" stroke="#63b8ff" d="M213.96,-217.58C192.07,-209.07 158.45,-195.99 133.62,-186.34"/>
<polygon fill="#63b8ff" stroke="#63b8ff" points="135.16,-182.79 124.58,-182.43 132.63,-189.32 135.16,-182.79"/>
</a>
</g>
</g>
<!-- Node10 -->
<g id="Node000010" class="node">
<title>Node10</title>
<g id="a_Node000010"><a xlink:title=" ">
<polygon fill="#e0e0e0" stroke="#999999" points="223.5,-182 167,-182 167,-163.5 223.5,-163.5 223.5,-182"/>
<text text-anchor="middle" x="195.25" y="-168.5" font-family="Helvetica,sans-Serif" font-size="10.00">pthread.h</text>
</a>
</g>
</g>
<!-- Node1&#45;&gt;Node10 -->
<g id="edge10_Node000001_Node000010" class="edge">
<title>Node1&#45;&gt;Node10</title>
<g id="a_edge10_Node000001_Node000010"><a xlink:title=" ">
<path fill="none" stroke="#63b8ff" d="M229.48,-217.58C223.81,-210.32 215.54,-199.73 208.55,-190.78"/>
<polygon fill="#63b8ff" stroke="#63b8ff" points="210.81,-188.99 201.89,-183.26 205.29,-193.29 210.81,-188.99"/>
</a>
</g>
</g>
<!-- Node11 -->
<g id="Node000011" class="node">
<title>Node11</title>
<g id="a_Node000011"><a xlink:title=" ">
<polygon fill="#e0e0e0" stroke="#999999" points="313.38,-182 241.12,-182 241.12,-163.5 313.38,-163.5 313.38,-182"/>
<text text-anchor="middle" x="277.25" y="-168.5" font-family="Helvetica,sans-Serif" font-size="10.00">semaphore.h</text>
</a>
</g>
</g>
<!-- Node1&#45;&gt;Node11 -->
<g id="edge11_Node000001_Node000011" class="edge">
<title>Node1&#45;&gt;Node11</title>
<g id="a_edge11_Node000001_Node000011"><a xlink:title=" ">
<path fill="none" stroke="#63b8ff" d="M243.02,-217.58C248.69,-210.32 256.96,-199.73 263.95,-190.78"/>
<polygon fill="#63b8ff" stroke="#63b8ff" points="267.21,-193.29 270.61,-183.26 261.69,-188.99 267.21,-193.29"/>
</a>
</g>
</g>
<!-- Node12 -->
<g id="Node000012" class="node">
<title>Node12</title>
<g id="a_Node000012"><a xlink:href="a01424.html" target="_top" xlink:title=" ">
<polygon fill="white" stroke="#666666" points="399.12,-182 331.38,-182 331.38,-163.5 399.12,-163.5 399.12,-182"/>
<text text-anchor="middle" x="365.25" y="-168.5" font-family="Helvetica,sans-Serif" font-size="10.00">async_api.h</text>
</a>
</g>
</g>
<!-- Node1&#45;&gt;Node12 -->
<g id="edge12_Node000001_Node000012" class="edge">
<title>Node1&#45;&gt;Node12</title>
<g id="a_edge12_Node000001_Node000012"><a xlink:title=" ">
<path fill="none" stroke="#63b8ff" d="M257.55,-217.58C278.37,-209.11 310.31,-196.11 334,-186.47"/>
<polygon fill="#63b8ff" stroke="#63b8ff" points="334.97,-189.44 342.92,-182.43 332.33,-182.96 334.97,-189.44"/>
</a>
</g>
</g>
<!-- Node3 -->
<g id="Node000003" class="node">
<title>Node3</title>
<g id="a_Node000003"><a xlink:href="a01376.html" target="_top" xlink:title=" ">
<polygon fill="white" stroke="#666666" points="86.88,-127.5 29.62,-127.5 29.62,-109 86.88,-109 86.88,-127.5"/>
<text text-anchor="middle" x="58.25" y="-114" font-family="Helvetica,sans-Serif" font-size="10.00">utils/list.h</text>
</a>
</g>
</g>
<!-- Node2&#45;&gt;Node3 -->
<g id="edge2_Node000002_Node000003" class="edge">
<title>Node2&#45;&gt;Node3</title>
<g id="a_edge2_Node000002_Node000003"><a xlink:title=" ">
<path fill="none" stroke="#63b8ff" d="M94.15,-163.08C88.14,-155.74 79.35,-145.01 71.97,-136"/>
<polygon fill="#63b8ff" stroke="#63b8ff" points="74.26,-134.28 65.22,-128.76 68.85,-138.71 74.26,-134.28"/>
</a>
</g>
</g>
<!-- Node6 -->
<g id="Node000006" class="node">
<title>Node6</title>
<g id="a_Node000006"><a xlink:href="a01382.html" target="_top" xlink:title=" ">
<polygon fill="white" stroke="#666666" points="185.88,-127.5 104.62,-127.5 104.62,-109 185.88,-109 185.88,-127.5"/>
<text text-anchor="middle" x="145.25" y="-114" font-family="Helvetica,sans-Serif" font-size="10.00">utils/spinlock.h</text>
</a>
</g>
</g>
<!-- Node2&#45;&gt;Node6 -->
<g id="edge5_Node000002_Node000006" class="edge">
<title>Node2&#45;&gt;Node6</title>
<g id="a_edge5_Node000002_Node000006"><a xlink:title=" ">
<path fill="none" stroke="#63b8ff" d="M108.52,-163.08C114.67,-155.74 123.66,-145.01 131.21,-136"/>
<polygon fill="#63b8ff" stroke="#63b8ff" points="134.38,-138.67 138.12,-128.76 129.01,-134.17 134.38,-138.67"/>
</a>
</g>
</g>
<!-- Node9 -->
<g id="Node000009" class="node">
<title>Node9</title>
<g id="a_Node000009"><a xlink:title=" ">
<polygon fill="#e0e0e0" stroke="#999999" points="334.38,-127.5 268.12,-127.5 268.12,-109 334.38,-109 334.38,-127.5"/>
<text text-anchor="middle" x="301.25" y="-114" font-family="Helvetica,sans-Serif" font-size="10.00">arch/alloc.h</text>
</a>
</g>
</g>
<!-- Node2&#45;&gt;Node9 -->
<g id="edge9_Node000002_Node000009" class="edge">
<title>Node2&#45;&gt;Node9</title>
<g id="a_edge9_Node000002_Node000009"><a xlink:title=" ">
<path fill="none" stroke="#63b8ff" d="M134.28,-163.08C168,-154.23 220.54,-140.44 257.67,-130.69"/>
<polygon fill="#63b8ff" stroke="#63b8ff" points="258.39,-133.86 267.18,-127.93 256.61,-127.09 258.39,-133.86"/>
</a>
</g>
</g>
<!-- Node4 -->
<g id="Node000004" class="node">
<title>Node4</title>
<g id="a_Node000004"><a xlink:title=" ">
<polygon fill="#e0e0e0" stroke="#999999" points="50.5,-73 0,-73 0,-54.5 50.5,-54.5 50.5,-73"/>
<text text-anchor="middle" x="25.25" y="-59.5" font-family="Helvetica,sans-Serif" font-size="10.00">stddef.h</text>
</a>
</g>
</g>
<!-- Node3&#45;&gt;Node4 -->
<g id="edge3_Node000003_Node000004" class="edge">
<title>Node3&#45;&gt;Node4</title>
<g id="a_edge3_Node000003_Node000004"><a xlink:title=" ">
<path fill="none" stroke="#63b8ff" d="M52.8,-108.58C48.33,-101.47 41.86,-91.18 36.31,-82.35"/>
<polygon fill="#63b8ff" stroke="#63b8ff" points="38.88,-80.86 30.6,-74.26 32.96,-84.59 38.88,-80.86"/>
</a>
</g>
</g>
<!-- Node5 -->
<g id="Node000005" class="node">
<title>Node5</title>
<g id="a_Node000005"><a xlink:title=" ">
<polygon fill="#e0e0e0" stroke="#999999" points="116,-73 68.5,-73 68.5,-54.5 116,-54.5 116,-73"/>
<text text-anchor="middle" x="92.25" y="-59.5" font-family="Helvetica,sans-Serif" font-size="10.00">stdint.h</text>
</a>
</g>
</g>
<!-- Node3&#45;&gt;Node5 -->
<g id="edge4_Node000003_Node000005" class="edge">
<title>Node3&#45;&gt;Node5</title>
<g id="a_edge4_Node000003_Node000005"><a xlink:title=" ">
<path fill="none" stroke="#63b8ff" d="M63.86,-108.58C68.47,-101.47 75.14,-91.18 80.85,-82.35"/>
<polygon fill="#63b8ff" stroke="#63b8ff" points="84.24,-84.55 86.74,-74.26 78.37,-80.75 84.24,-84.55"/>
</a>
</g>
</g>
<!-- Node6&#45;&gt;Node5 -->
<g id="edge6_Node000006_Node000005" class="edge">
<title>Node6&#45;&gt;Node5</title>
<g id="a_edge6_Node000006_Node000005"><a xlink:title=" ">
<path fill="none" stroke="#63b8ff" d="M136.5,-108.58C128.93,-101.09 117.8,-90.06 108.59,-80.94"/>
<polygon fill="#63b8ff" stroke="#63b8ff" points="111.41,-78.81 101.84,-74.26 106.48,-83.78 111.41,-78.81"/>
</a>
</g>
</g>
<!-- Node7 -->
<g id="Node000007" class="node">
<title>Node7</title>
<g id="a_Node000007"><a xlink:href="a01361.html" target="_top" xlink:title=" ">
<polygon fill="white" stroke="#666666" points="230.75,-73 133.75,-73 133.75,-54.5 230.75,-54.5 230.75,-73"/>
<text text-anchor="middle" x="182.25" y="-59.5" font-family="Helvetica,sans-Serif" font-size="10.00">utils/arax_assert.h</text>
</a>
</g>
</g>
<!-- Node6&#45;&gt;Node7 -->
<g id="edge7_Node000006_Node000007" class="edge">
<title>Node6&#45;&gt;Node7</title>
<g id="a_edge7_Node000006_Node000007"><a xlink:title=" ">
<path fill="none" stroke="#63b8ff" d="M151.36,-108.58C156.42,-101.39 163.78,-90.95 170.05,-82.07"/>
<polygon fill="#63b8ff" stroke="#63b8ff" points="173.35,-84.45 176.25,-74.26 167.63,-80.42 173.35,-84.45"/>
</a>
</g>
</g>
<!-- Node8 -->
<g id="Node000008" class="node">
<title>Node8</title>
<g id="a_Node000008"><a xlink:href="a01370.html" target="_top" xlink:title=" ">
<polygon fill="white" stroke="#666666" points="210.12,-18.5 154.38,-18.5 154.38,0 210.12,0 210.12,-18.5"/>
<text text-anchor="middle" x="182.25" y="-5" font-family="Helvetica,sans-Serif" font-size="10.00">compat.h</text>
</a>
</g>
</g>
<!-- Node7&#45;&gt;Node8 -->
<g id="edge8_Node000007_Node000008" class="edge">
<title>Node7&#45;&gt;Node8</title>
<g id="a_edge8_Node000007_Node000008"><a xlink:title=" ">
<path fill="none" stroke="#63b8ff" d="M182.25,-54.08C182.25,-47.43 182.25,-37.99 182.25,-29.58"/>
<polygon fill="#63b8ff" stroke="#63b8ff" points="185.75,-29.76 182.25,-19.76 178.75,-29.76 185.75,-29.76"/>
</a>
</g>
</g>
<!-- Node12&#45;&gt;Node9 -->
<g id="edge13_Node000012_Node000009" class="edge">
<title>Node12&#45;&gt;Node9</title>
<g id="a_edge13_Node000012_Node000009"><a xlink:title=" ">
<path fill="none" stroke="#63b8ff" d="M354.68,-163.08C345.27,-155.36 331.28,-143.88 319.97,-134.61"/>
<polygon fill="#63b8ff" stroke="#63b8ff" points="322.57,-131.39 312.62,-127.76 318.13,-136.81 322.57,-131.39"/>
</a>
</g>
</g>
</g>
</svg>
