<?xml version="1.0" encoding="UTF-8" standalone="no"?>
<!DOCTYPE svg PUBLIC "-//W3C//DTD SVG 1.1//EN"
 "http://www.w3.org/Graphics/SVG/1.1/DTD/svg11.dtd">
<!-- Generated by graphviz version 11.0.0 (0)
 -->
<!-- Title: async_condition_wait Pages: 1 -->
<svg width="1179pt" height="431pt"
 viewBox="0.00 0.00 1179.25 430.75" xmlns="http://www.w3.org/2000/svg" xmlns:xlink="http://www.w3.org/1999/xlink">
<g id="graph0" class="graph" transform="scale(1 1) rotate(0) translate(4 426.75)">
<title>async_condition_wait</title>
<!-- Node1 -->
<g id="Node000001" class="node">
<title>Node1</title>
<g id="a_Node000001"><a xlink:title=" ">
<polygon fill="#999999" stroke="#666666" points="1171.25,-318.5 1063,-318.5 1063,-300 1171.25,-300 1171.25,-318.5"/>
<text text-anchor="middle" x="1117.12" y="-305" font-family="Helvetica,sans-Serif" font-size="10.00">async_condition_wait</text>
</a>
</g>
</g>
<!-- Node2 -->
<g id="Node000002" class="node">
<title>Node2</title>
<g id="a_Node000002"><a xlink:href="a01913.html#a02fd608f651d254148dc74f0ae371dfe" target="_top" xlink:title=" ">
<polygon fill="white" stroke="#666666" points="992.88,-376.5 934.12,-376.5 934.12,-358 992.88,-358 992.88,-376.5"/>
<text text-anchor="middle" x="963.5" y="-363" font-family="Helvetica,sans-Serif" font-size="10.00">_arax_init</text>
</a>
</g>
</g>
<!-- Node1&#45;&gt;Node2 -->
<g id="edge1_Node000001_Node000002" class="edge">
<title>Node1&#45;&gt;Node2</title>
<g id="a_edge1_Node000001_Node000002"><a xlink:title=" ">
<path fill="none" stroke="#63b8ff" d="M1085.43,-323.75C1068.41,-331.51 1046.75,-340.95 1027,-348.25 1016.15,-352.26 1004.02,-356.09 993.36,-359.25"/>
<polygon fill="#63b8ff" stroke="#63b8ff" points="1086.89,-326.93 1094.5,-319.56 1083.95,-320.57 1086.89,-326.93"/>
</a>
</g>
</g>
<!-- Node10 -->
<g id="Node000010" class="node">
<title>Node10</title>
<g id="a_Node000010"><a xlink:href="a01919.html#a415e79d6e82e45f24bcd1742c146a0da" target="_top" xlink:title=" ">
<polygon fill="white" stroke="#666666" points="1027,-339.5 900,-339.5 900,-321 1027,-321 1027,-339.5"/>
<text text-anchor="middle" x="963.5" y="-326" font-family="Helvetica,sans-Serif" font-size="10.00">arax_accel_wait_for_task</text>
</a>
</g>
</g>
<!-- Node1&#45;&gt;Node10 -->
<g id="edge11_Node000001_Node000010" class="edge">
<title>Node1&#45;&gt;Node10</title>
<g id="a_edge11_Node000001_Node000010"><a xlink:title=" ">
<path fill="none" stroke="#63b8ff" d="M1051.5,-318.2C1043.49,-319.31 1035.31,-320.44 1027.33,-321.55"/>
<polygon fill="#63b8ff" stroke="#63b8ff" points="1051.74,-321.7 1061.17,-316.86 1050.78,-314.77 1051.74,-321.7"/>
</a>
</g>
</g>
<!-- Node11 -->
<g id="Node000011" class="node">
<title>Node11</title>
<g id="a_Node000011"><a xlink:href="a01931.html#a8ff14a859f9b7a34676c2fcdb762386b" target="_top" xlink:title=" ">
<polygon fill="white" stroke="#666666" points="1019.88,-302.75 907.12,-302.75 907.12,-273.75 1019.88,-273.75 1019.88,-302.75"/>
<text text-anchor="start" x="915.12" y="-289.25" font-family="Helvetica,sans-Serif" font-size="10.00">arax_pipe_get_orphan</text>
<text text-anchor="middle" x="963.5" y="-278.75" font-family="Helvetica,sans-Serif" font-size="10.00">_vaccel</text>
</a>
</g>
</g>
<!-- Node1&#45;&gt;Node11 -->
<g id="edge12_Node000001_Node000011" class="edge">
<title>Node1&#45;&gt;Node11</title>
<g id="a_edge12_Node000001_Node000011"><a xlink:title=" ">
<path fill="none" stroke="#63b8ff" d="M1051.54,-300.3C1041.15,-298.87 1030.46,-297.39 1020.3,-295.98"/>
<polygon fill="#63b8ff" stroke="#63b8ff" points="1050.78,-303.73 1061.17,-301.64 1051.74,-296.8 1050.78,-303.73"/>
</a>
</g>
</g>
<!-- Node12 -->
<g id="Node000012" class="node">
<title>Node12</title>
<g id="a_Node000012"><a xlink:href="a01943.html#a63b80783cfb3106ec4169ce082f153c0" target="_top" xlink:title=" ">
<polygon fill="white" stroke="#666666" points="1020.62,-255.5 906.38,-255.5 906.38,-237 1020.62,-237 1020.62,-255.5"/>
<text text-anchor="middle" x="963.5" y="-242" font-family="Helvetica,sans-Serif" font-size="10.00">arax_throttle_size_dec</text>
</a>
</g>
</g>
<!-- Node1&#45;&gt;Node12 -->
<g id="edge13_Node000001_Node000012" class="edge">
<title>Node1&#45;&gt;Node12</title>
<g id="a_edge13_Node000001_Node000012"><a xlink:title=" ">
<path fill="none" stroke="#63b8ff" d="M1088.75,-294.28C1071.39,-285.16 1048.26,-273.66 1027,-265.25 1018.35,-261.83 1008.83,-258.65 999.89,-255.91"/>
<polygon fill="#63b8ff" stroke="#63b8ff" points="1086.95,-297.29 1097.42,-298.9 1090.24,-291.11 1086.95,-297.29"/>
</a>
</g>
</g>
<!-- Node3 -->
<g id="Node000003" class="node">
<title>Node3</title>
<g id="a_Node000003"><a xlink:href="a01913.html#aa6e4832b06bd5757be4502d2de7b3026" target="_top" xlink:title=" ">
<polygon fill="white" stroke="#666666" points="862.12,-422.75 763.62,-422.75 763.62,-393.75 862.12,-393.75 862.12,-422.75"/>
<text text-anchor="start" x="771.62" y="-409.25" font-family="Helvetica,sans-Serif" font-size="10.00">arax_controller_init</text>
<text text-anchor="middle" x="812.88" y="-398.75" font-family="Helvetica,sans-Serif" font-size="10.00">_start</text>
</a>
</g>
</g>
<!-- Node2&#45;&gt;Node3 -->
<g id="edge2_Node000002_Node000003" class="edge">
<title>Node2&#45;&gt;Node3</title>
<g id="a_edge2_Node000002_Node000003"><a xlink:title=" ">
<path fill="none" stroke="#63b8ff" d="M922.81,-378.2C904.22,-383.33 881.91,-389.48 862.33,-394.88"/>
<polygon fill="#63b8ff" stroke="#63b8ff" points="923.68,-381.59 932.38,-375.56 921.81,-374.84 923.68,-381.59"/>
</a>
</g>
</g>
<!-- Node4 -->
<g id="Node000004" class="node">
<title>Node4</title>
<g id="a_Node000004"><a xlink:href="a02189.html#gae1d371a2840849690acce147e7a205da" target="_top" xlink:title=" ">
<polygon fill="white" stroke="#666666" points="839.62,-375.5 786.12,-375.5 786.12,-357 839.62,-357 839.62,-375.5"/>
<text text-anchor="middle" x="812.88" y="-362" font-family="Helvetica,sans-Serif" font-size="10.00">arax_init</text>
</a>
</g>
</g>
<!-- Node2&#45;&gt;Node4 -->
<g id="edge3_Node000002_Node000004" class="edge">
<title>Node2&#45;&gt;Node4</title>
<g id="a_edge3_Node000002_Node000004"><a xlink:title=" ">
<path fill="none" stroke="#63b8ff" d="M922.38,-366.98C896.19,-366.8 862.74,-366.58 839.95,-366.43"/>
<polygon fill="#63b8ff" stroke="#63b8ff" points="922.31,-370.48 932.33,-367.05 922.35,-363.48 922.31,-370.48"/>
</a>
</g>
</g>
<!-- Node5 -->
<g id="Node000005" class="node">
<title>Node5</title>
<g id="a_Node000005"><a xlink:href="a01949.html#a8a99bcb12e2ee55d68a029bfca9b6d51" target="_top" xlink:title=" ">
<polygon fill="white" stroke="#666666" points="572.5,-421.75 478.5,-421.75 478.5,-392.75 572.5,-392.75 572.5,-421.75"/>
<text text-anchor="start" x="486.5" y="-408.25" font-family="Helvetica,sans-Serif" font-size="10.00">arax_plot_register</text>
<text text-anchor="middle" x="525.5" y="-397.75" font-family="Helvetica,sans-Serif" font-size="10.00">_metric</text>
</a>
</g>
</g>
<!-- Node4&#45;&gt;Node5 -->
<g id="edge4_Node000004_Node000005" class="edge">
<title>Node4&#45;&gt;Node5</title>
<g id="a_edge4_Node000004_Node000005"><a xlink:title=" ">
<path fill="none" stroke="#63b8ff" d="M774.92,-374.18C759.74,-377.27 741.94,-380.68 725.75,-383.25 673.62,-391.52 613.41,-398.41 572.94,-402.65"/>
<polygon fill="#63b8ff" stroke="#63b8ff" points="775.4,-377.65 784.48,-372.2 773.98,-370.8 775.4,-377.65"/>
</a>
</g>
</g>
<!-- Node6 -->
<g id="Node000006" class="node">
<title>Node6</title>
<g id="a_Node000006"><a xlink:href="a01937.html#a80ab3bf4a8af9bb101b5a53248609771" target="_top" xlink:title=" ">
<polygon fill="white" stroke="#666666" points="710.38,-374.5 633.62,-374.5 633.62,-356 710.38,-356 710.38,-374.5"/>
<text text-anchor="middle" x="672" y="-361" font-family="Helvetica,sans-Serif" font-size="10.00">arax_ptr_valid</text>
</a>
</g>
</g>
<!-- Node4&#45;&gt;Node6 -->
<g id="edge5_Node000004_Node000006" class="edge">
<title>Node4&#45;&gt;Node6</title>
<g id="a_edge5_Node000004_Node000006"><a xlink:title=" ">
<path fill="none" stroke="#63b8ff" d="M774.42,-365.98C754.7,-365.84 730.58,-365.66 710.8,-365.52"/>
<polygon fill="#63b8ff" stroke="#63b8ff" points="774.22,-369.48 784.24,-366.05 774.27,-362.48 774.22,-369.48"/>
</a>
</g>
</g>
<!-- Node6&#45;&gt;Node5 -->
<g id="edge10_Node000006_Node000005" class="edge">
<title>Node6&#45;&gt;Node5</title>
<g id="a_edge10_Node000006_Node000005"><a xlink:title=" ">
<path fill="none" stroke="#63b8ff" d="M626.7,-378.13C609.67,-383.08 590.19,-388.74 572.97,-393.74"/>
<polygon fill="#63b8ff" stroke="#63b8ff" points="627.41,-381.57 636.03,-375.41 625.45,-374.84 627.41,-381.57"/>
</a>
</g>
</g>
<!-- Node7 -->
<g id="Node000007" class="node">
<title>Node7</title>
<g id="a_Node000007"><a xlink:href="a01970.html#a4ee1fea325d2edd421f59ab240dfbe54" target="_top" xlink:title=" ">
<polygon fill="white" stroke="#666666" points="571.38,-374.5 479.62,-374.5 479.62,-356 571.38,-356 571.38,-374.5"/>
<text text-anchor="middle" x="525.5" y="-361" font-family="Helvetica,sans-Serif" font-size="10.00">_arax_assert_obj</text>
</a>
</g>
</g>
<!-- Node6&#45;&gt;Node7 -->
<g id="edge6_Node000006_Node000007" class="edge">
<title>Node6&#45;&gt;Node7</title>
<g id="a_edge6_Node000006_Node000007"><a xlink:title=" ">
<path fill="none" stroke="#63b8ff" d="M621.92,-365.25C605.63,-365.25 587.59,-365.25 571.62,-365.25"/>
<polygon fill="#63b8ff" stroke="#63b8ff" points="621.9,-368.75 631.9,-365.25 621.9,-361.75 621.9,-368.75"/>
</a>
</g>
</g>
<!-- Node8 -->
<g id="Node000008" class="node">
<title>Node8</title>
<g id="a_Node000008"><a xlink:href="a01925.html#afeaab7d93372f0752d59c70d9c5940e7" target="_top" xlink:title=" ">
<polygon fill="white" stroke="#666666" points="563.5,-300.5 487.5,-300.5 487.5,-282 563.5,-282 563.5,-300.5"/>
<text text-anchor="middle" x="525.5" y="-287" font-family="Helvetica,sans-Serif" font-size="10.00">arax_data_ref</text>
</a>
</g>
</g>
<!-- Node6&#45;&gt;Node8 -->
<g id="edge7_Node000006_Node000008" class="edge">
<title>Node6&#45;&gt;Node8</title>
<g id="a_edge7_Node000006_Node000008"><a xlink:title=" ">
<path fill="none" stroke="#63b8ff" d="M646.14,-349.8C628.6,-339.19 604.39,-325.12 582.25,-314.25 572.57,-309.5 561.65,-304.85 552.06,-300.98"/>
<polygon fill="#63b8ff" stroke="#63b8ff" points="643.97,-352.58 654.33,-354.8 647.62,-346.6 643.97,-352.58"/>
</a>
</g>
</g>
<!-- Node9 -->
<g id="Node000009" class="node">
<title>Node9</title>
<g id="a_Node000009"><a xlink:href="a01925.html#ac1f7fb20b3a23b388bea24f1b46a33a8" target="_top" xlink:title=" ">
<polygon fill="white" stroke="#666666" points="422.25,-319.5 317,-319.5 317,-301 422.25,-301 422.25,-319.5"/>
<text text-anchor="middle" x="369.62" y="-306" font-family="Helvetica,sans-Serif" font-size="10.00">arax_data_ref_offset</text>
</a>
</g>
</g>
<!-- Node6&#45;&gt;Node9 -->
<g id="edge9_Node000006_Node000009" class="edge">
<title>Node6&#45;&gt;Node9</title>
<g id="a_edge9_Node000006_Node000009"><a xlink:title=" ">
<path fill="none" stroke="#63b8ff" d="M622.36,-355.14C609.34,-352.5 595.27,-349.71 582.25,-347.25 527.82,-336.97 465.33,-326.17 422.44,-318.91"/>
<polygon fill="#63b8ff" stroke="#63b8ff" points="621.49,-358.53 631.99,-357.1 622.89,-351.67 621.49,-358.53"/>
</a>
</g>
</g>
<!-- Node8&#45;&gt;Node9 -->
<g id="edge8_Node000008_Node000009" class="edge">
<title>Node8&#45;&gt;Node9</title>
<g id="a_edge8_Node000008_Node000009"><a xlink:title=" ">
<path fill="none" stroke="#63b8ff" d="M475.91,-297.25C458.95,-299.34 439.87,-301.7 422.65,-303.83"/>
<polygon fill="#63b8ff" stroke="#63b8ff" points="476.25,-300.73 485.75,-296.03 475.4,-293.79 476.25,-300.73"/>
</a>
</g>
</g>
<!-- Node13 -->
<g id="Node000013" class="node">
<title>Node13</title>
<g id="a_Node000013"><a xlink:href="a01919.html#a9c8e53aad4b86498a6b709c35c156fc3" target="_top" xlink:title=" ">
<polygon fill="white" stroke="#666666" points="725.75,-256.5 618.25,-256.5 618.25,-238 725.75,-238 725.75,-256.5"/>
<text text-anchor="middle" x="672" y="-243" font-family="Helvetica,sans-Serif" font-size="10.00">arax_accel_size_dec</text>
</a>
</g>
</g>
<!-- Node12&#45;&gt;Node13 -->
<g id="edge14_Node000012_Node000013" class="edge">
<title>Node12&#45;&gt;Node13</title>
<g id="a_edge14_Node000012_Node000013"><a xlink:title=" ">
<path fill="none" stroke="#63b8ff" d="M894.64,-246.48C843.15,-246.66 773.36,-246.9 725.95,-247.07"/>
<polygon fill="#63b8ff" stroke="#63b8ff" points="894.49,-249.99 904.48,-246.45 894.47,-242.99 894.49,-249.99"/>
</a>
</g>
</g>
<!-- Node15 -->
<g id="Node000015" class="node">
<title>Node15</title>
<g id="a_Node000015"><a xlink:href="a01931.html#a6cc54ee40009c61b5f6526f5edff004f" target="_top" xlink:title=" ">
<polygon fill="white" stroke="#666666" points="864,-200.5 761.75,-200.5 761.75,-182 864,-182 864,-200.5"/>
<text text-anchor="middle" x="812.88" y="-187" font-family="Helvetica,sans-Serif" font-size="10.00">arax_pipe_size_dec</text>
</a>
</g>
</g>
<!-- Node12&#45;&gt;Node15 -->
<g id="edge16_Node000012_Node000015" class="edge">
<title>Node12&#45;&gt;Node15</title>
<g id="a_edge16_Node000012_Node000015"><a xlink:title=" ">
<path fill="none" stroke="#63b8ff" d="M925.79,-232.67C899.11,-222.79 863.63,-209.66 839.84,-200.86"/>
<polygon fill="#63b8ff" stroke="#63b8ff" points="924.26,-235.83 934.85,-236.02 926.69,-229.27 924.26,-235.83"/>
</a>
</g>
</g>
<!-- Node14 -->
<g id="Node000014" class="node">
<title>Node14</title>
<g id="a_Node000014"><a xlink:href="a01925.html#af8ede6fc8d207004035f45d945688d2c" target="_top" xlink:title=" ">
<polygon fill="white" stroke="#666666" points="253.62,-268.75 155.12,-268.75 155.12,-239.75 253.62,-239.75 253.62,-268.75"/>
<text text-anchor="start" x="163.12" y="-255.25" font-family="Helvetica,sans-Serif" font-size="10.00">arax_data_allocate</text>
<text text-anchor="middle" x="204.38" y="-244.75" font-family="Helvetica,sans-Serif" font-size="10.00">_remote</text>
</a>
</g>
</g>
<!-- Node13&#45;&gt;Node14 -->
<g id="edge15_Node000013_Node000014" class="edge">
<title>Node13&#45;&gt;Node14</title>
<g id="a_edge15_Node000013_Node000014"><a xlink:title=" ">
<path fill="none" stroke="#63b8ff" d="M606.66,-248.22C512.34,-249.64 338.57,-252.25 254.07,-253.52"/>
<polygon fill="#63b8ff" stroke="#63b8ff" points="606.58,-251.72 616.53,-248.07 606.48,-244.72 606.58,-251.72"/>
</a>
</g>
</g>
<!-- Node16 -->
<g id="Node000016" class="node">
<title>Node16</title>
<g id="a_Node000016"><a xlink:href="a01928.html#a402bbd6fa197c2c48d527325e5e2cf5b" target="_top" xlink:title=" ">
<polygon fill="white" stroke="#666666" points="724.25,-148.5 619.75,-148.5 619.75,-130 724.25,-130 724.25,-148.5"/>
<text text-anchor="middle" x="672" y="-135" font-family="Helvetica,sans-Serif" font-size="10.00">arax_object_register</text>
</a>
</g>
</g>
<!-- Node15&#45;&gt;Node16 -->
<g id="edge17_Node000015_Node000016" class="edge">
<title>Node15&#45;&gt;Node16</title>
<g id="a_edge17_Node000015_Node000016"><a xlink:title=" ">
<path fill="none" stroke="#63b8ff" d="M775.53,-177.64C751.38,-168.6 720.25,-156.94 698.66,-148.86"/>
<polygon fill="#63b8ff" stroke="#63b8ff" points="774.07,-180.83 784.66,-181.06 776.52,-174.28 774.07,-180.83"/>
</a>
</g>
</g>
<!-- Node17 -->
<g id="Node000017" class="node">
<title>Node17</title>
<g id="a_Node000017"><a xlink:href="a01919.html#a0706a66a62ca8710342ac1c097b703ed" target="_top" xlink:title=" ">
<polygon fill="white" stroke="#666666" points="410.62,-166.5 328.62,-166.5 328.62,-148 410.62,-148 410.62,-166.5"/>
<text text-anchor="middle" x="369.62" y="-153" font-family="Helvetica,sans-Serif" font-size="10.00">arax_accel_init</text>
</a>
</g>
</g>
<!-- Node16&#45;&gt;Node17 -->
<g id="edge18_Node000016_Node000017" class="edge">
<title>Node16&#45;&gt;Node17</title>
<g id="a_edge18_Node000016_Node000017"><a xlink:title=" ">
<path fill="none" stroke="#63b8ff" d="M607.89,-143.03C548.55,-146.59 461.53,-151.8 411.02,-154.83"/>
<polygon fill="#63b8ff" stroke="#63b8ff" points="608.08,-146.53 617.85,-142.43 607.66,-139.54 608.08,-146.53"/>
</a>
</g>
</g>
<!-- Node18 -->
<g id="Node000018" class="node">
<title>Node18</title>
<g id="a_Node000018"><a xlink:href="a01925.html#a526989df37e605824d846b7ba54b43ea" target="_top" xlink:title=" ">
<polygon fill="white" stroke="#666666" points="582.25,-83.5 468.75,-83.5 468.75,-65 582.25,-65 582.25,-83.5"/>
<text text-anchor="middle" x="525.5" y="-70" font-family="Helvetica,sans-Serif" font-size="10.00">arax_data_init_aligned</text>
</a>
</g>
</g>
<!-- Node16&#45;&gt;Node18 -->
<g id="edge19_Node000016_Node000018" class="edge">
<title>Node16&#45;&gt;Node18</title>
<g id="a_edge19_Node000016_Node000018"><a xlink:title=" ">
<path fill="none" stroke="#63b8ff" d="M638.99,-124.85C611.24,-112.37 571.86,-94.65 547.81,-83.84"/>
<polygon fill="#63b8ff" stroke="#63b8ff" points="637.43,-127.99 647.99,-128.9 640.3,-121.6 637.43,-127.99"/>
</a>
</g>
</g>
<!-- Node21 -->
<g id="Node000021" class="node">
<title>Node21</title>
<g id="a_Node000021"><a xlink:href="a01934.html#a86ac572ea8f5f613129192c47d598818" target="_top" xlink:title=" ">
<polygon fill="white" stroke="#666666" points="564.25,-28.5 486.75,-28.5 486.75,-10 564.25,-10 564.25,-28.5"/>
<text text-anchor="middle" x="525.5" y="-15" font-family="Helvetica,sans-Serif" font-size="10.00">arax_proc_init</text>
</a>
</g>
</g>
<!-- Node16&#45;&gt;Node21 -->
<g id="edge22_Node000016_Node000021" class="edge">
<title>Node16&#45;&gt;Node21</title>
<g id="a_edge22_Node000016_Node000021"><a xlink:title=" ">
<path fill="none" stroke="#63b8ff" d="M653.84,-121.57C636.51,-104.11 608.6,-77.08 582.25,-56.25 569.49,-46.16 554.01,-36.04 542.61,-28.94"/>
<polygon fill="#63b8ff" stroke="#63b8ff" points="651.31,-123.99 660.82,-128.66 656.3,-119.08 651.31,-123.99"/>
</a>
</g>
</g>
<!-- Node23 -->
<g id="Node000023" class="node">
<title>Node23</title>
<g id="a_Node000023"><a xlink:href="a01940.html#a27bee94f7a23281c8b2b72ec433f6059" target="_top" xlink:title=" ">
<polygon fill="white" stroke="#666666" points="568,-203.5 483,-203.5 483,-185 568,-185 568,-203.5"/>
<text text-anchor="middle" x="525.5" y="-190" font-family="Helvetica,sans-Serif" font-size="10.00">arax_task_alloc</text>
</a>
</g>
</g>
<!-- Node16&#45;&gt;Node23 -->
<g id="edge24_Node000016_Node000023" class="edge">
<title>Node16&#45;&gt;Node23</title>
<g id="a_edge24_Node000016_Node000023"><a xlink:title=" ">
<path fill="none" stroke="#63b8ff" d="M634.97,-152.97C609.06,-162.83 574.77,-175.88 551.75,-184.64"/>
<polygon fill="#63b8ff" stroke="#63b8ff" points="635.98,-156.32 644.08,-149.49 633.49,-149.78 635.98,-156.32"/>
</a>
</g>
</g>
<!-- Node30 -->
<g id="Node000030" class="node">
<title>Node30</title>
<g id="a_Node000030"><a xlink:href="a01946.html#a83ddb422946cf774c687c1ab63dcda15" target="_top" xlink:title=" ">
<polygon fill="white" stroke="#666666" points="568.75,-129.5 482.25,-129.5 482.25,-111 568.75,-111 568.75,-129.5"/>
<text text-anchor="middle" x="525.5" y="-116" font-family="Helvetica,sans-Serif" font-size="10.00">arax_vaccel_init</text>
</a>
</g>
</g>
<!-- Node16&#45;&gt;Node30 -->
<g id="edge33_Node000016_Node000030" class="edge">
<title>Node16&#45;&gt;Node30</title>
<g id="a_edge33_Node000016_Node000030"><a xlink:title=" ">
<path fill="none" stroke="#63b8ff" d="M608.6,-131.05C595.27,-129.29 581.48,-127.48 569.1,-125.85"/>
<polygon fill="#63b8ff" stroke="#63b8ff" points="607.78,-134.47 618.15,-132.3 608.69,-127.53 607.78,-134.47"/>
</a>
</g>
</g>
<!-- Node19 -->
<g id="Node000019" class="node">
<title>Node19</title>
<g id="a_Node000019"><a xlink:href="a01925.html#aeefe449d4a278e9fc4b9c5f7e31000a1" target="_top" xlink:title=" ">
<polygon fill="white" stroke="#666666" points="408.38,-55.5 330.88,-55.5 330.88,-37 408.38,-37 408.38,-55.5"/>
<text text-anchor="middle" x="369.62" y="-42" font-family="Helvetica,sans-Serif" font-size="10.00">arax_data_init</text>
</a>
</g>
</g>
<!-- Node18&#45;&gt;Node19 -->
<g id="edge20_Node000018_Node000019" class="edge">
<title>Node18&#45;&gt;Node19</title>
<g id="a_edge20_Node000018_Node000019"><a xlink:title=" ">
<path fill="none" stroke="#63b8ff" d="M460.27,-62.56C442.62,-59.35 424.04,-55.97 408.41,-53.13"/>
<polygon fill="#63b8ff" stroke="#63b8ff" points="459.16,-65.92 469.62,-64.26 460.41,-59.03 459.16,-65.92"/>
</a>
</g>
</g>
<!-- Node20 -->
<g id="Node000020" class="node">
<title>Node20</title>
<g id="a_Node000020"><a xlink:href="a02193.html#ga9260ad2dd766aec3274c518e2e312b1f" target="_top" xlink:title=" ">
<polygon fill="white" stroke="#666666" points="249.12,-55.5 159.62,-55.5 159.62,-37 249.12,-37 249.12,-55.5"/>
<text text-anchor="middle" x="204.38" y="-42" font-family="Helvetica,sans-Serif" font-size="10.00">ARAX_BUFFER</text>
</a>
</g>
</g>
<!-- Node19&#45;&gt;Node20 -->
<g id="edge21_Node000019_Node000020" class="edge">
<title>Node19&#45;&gt;Node20</title>
<g id="a_edge21_Node000019_Node000020"><a xlink:title=" ">
<path fill="none" stroke="#63b8ff" d="M319.5,-46.25C297.2,-46.25 271.04,-46.25 249.39,-46.25"/>
<polygon fill="#63b8ff" stroke="#63b8ff" points="319.25,-49.75 329.25,-46.25 319.25,-42.75 319.25,-49.75"/>
</a>
</g>
</g>
<!-- Node22 -->
<g id="Node000022" class="node">
<title>Node22</title>
<g id="a_Node000022"><a xlink:href="a02191.html#gafad2dafb4a231390f02b7c866295b7d9" target="_top" xlink:title=" ">
<polygon fill="white" stroke="#666666" points="418.12,-18.5 321.12,-18.5 321.12,0 418.12,0 418.12,-18.5"/>
<text text-anchor="middle" x="369.62" y="-5" font-family="Helvetica,sans-Serif" font-size="10.00">arax_proc_register</text>
</a>
</g>
</g>
<!-- Node21&#45;&gt;Node22 -->
<g id="edge23_Node000021_Node000022" class="edge">
<title>Node21&#45;&gt;Node22</title>
<g id="a_edge23_Node000021_Node000022"><a xlink:title=" ">
<path fill="none" stroke="#63b8ff" d="M475.2,-16.05C457.02,-14.86 436.47,-13.53 418.42,-12.36"/>
<polygon fill="#63b8ff" stroke="#63b8ff" points="474.75,-19.52 484.95,-16.68 475.2,-12.54 474.75,-19.52"/>
</a>
</g>
</g>
<!-- Node24 -->
<g id="Node000024" class="node">
<title>Node24</title>
<g id="a_Node000024"><a xlink:href="a02192.html#gac9f0f3fbb14da879d3ff09bd367bbb24" target="_top" xlink:title=" ">
<polygon fill="white" stroke="#666666" points="413.62,-203.5 325.62,-203.5 325.62,-185 413.62,-185 413.62,-203.5"/>
<text text-anchor="middle" x="369.62" y="-190" font-family="Helvetica,sans-Serif" font-size="10.00">arax_task_issue</text>
</a>
</g>
</g>
<!-- Node23&#45;&gt;Node24 -->
<g id="edge25_Node000023_Node000024" class="edge">
<title>Node23&#45;&gt;Node24</title>
<g id="a_edge25_Node000023_Node000024"><a xlink:title=" ">
<path fill="none" stroke="#63b8ff" d="M471.48,-194.25C452.69,-194.25 431.79,-194.25 413.91,-194.25"/>
<polygon fill="#63b8ff" stroke="#63b8ff" points="471.35,-197.75 481.35,-194.25 471.35,-190.75 471.35,-197.75"/>
</a>
</g>
</g>
<!-- Node24&#45;&gt;Node14 -->
<g id="edge26_Node000024_Node000014" class="edge">
<title>Node24&#45;&gt;Node14</title>
<g id="a_edge26_Node000024_Node000014"><a xlink:title=" ">
<path fill="none" stroke="#63b8ff" d="M331.66,-207.83C306.13,-217.22 272.16,-229.7 245.89,-239.36"/>
<polygon fill="#63b8ff" stroke="#63b8ff" points="332.8,-211.15 340.98,-204.41 330.38,-204.58 332.8,-211.15"/>
</a>
</g>
</g>
<!-- Node25 -->
<g id="Node000025" class="node">
<title>Node25</title>
<g id="a_Node000025"><a xlink:href="a01925.html#a696bc4319d0f6c6baa7d797a8df6b56f" target="_top" xlink:title=" ">
<polygon fill="white" stroke="#666666" points="243.5,-221.5 165.25,-221.5 165.25,-203 243.5,-203 243.5,-221.5"/>
<text text-anchor="middle" x="204.38" y="-208" font-family="Helvetica,sans-Serif" font-size="10.00">arax_data_get</text>
</a>
</g>
</g>
<!-- Node24&#45;&gt;Node25 -->
<g id="edge27_Node000024_Node000025" class="edge">
<title>Node24&#45;&gt;Node25</title>
<g id="a_edge27_Node000024_Node000025"><a xlink:title=" ">
<path fill="none" stroke="#63b8ff" d="M313.97,-200.28C290.99,-202.81 264.79,-205.7 243.88,-208"/>
<polygon fill="#63b8ff" stroke="#63b8ff" points="314.25,-203.77 323.8,-199.19 313.48,-196.81 314.25,-203.77"/>
</a>
</g>
</g>
<!-- Node27 -->
<g id="Node000027" class="node">
<title>Node27</title>
<g id="a_Node000027"><a xlink:href="a01925.html#a8995f71dba475975efc37756783cfce9" target="_top" xlink:title=" ">
<polygon fill="white" stroke="#666666" points="243.5,-184.5 165.25,-184.5 165.25,-166 243.5,-166 243.5,-184.5"/>
<text text-anchor="middle" x="204.38" y="-171" font-family="Helvetica,sans-Serif" font-size="10.00">arax_data_set</text>
</a>
</g>
</g>
<!-- Node24&#45;&gt;Node27 -->
<g id="edge29_Node000024_Node000027" class="edge">
<title>Node24&#45;&gt;Node27</title>
<g id="a_edge29_Node000024_Node000027"><a xlink:title=" ">
<path fill="none" stroke="#63b8ff" d="M313.97,-187.89C290.99,-185.21 264.79,-182.16 243.88,-179.73"/>
<polygon fill="#63b8ff" stroke="#63b8ff" points="313.46,-191.35 323.8,-189.03 314.27,-184.4 313.46,-191.35"/>
</a>
</g>
</g>
<!-- Node28 -->
<g id="Node000028" class="node">
<title>Node28</title>
<g id="a_Node000028"><a xlink:href="a01925.html#af735744d0f8bec04394639a841d2ba0f" target="_top" xlink:title=" ">
<polygon fill="white" stroke="#666666" points="270.5,-147.5 138.25,-147.5 138.25,-129 270.5,-129 270.5,-147.5"/>
<text text-anchor="middle" x="204.38" y="-134" font-family="Helvetica,sans-Serif" font-size="10.00">ARAX_OBJ_DTOR_DECL</text>
</a>
</g>
</g>
<!-- Node24&#45;&gt;Node28 -->
<g id="edge31_Node000024_Node000028" class="edge">
<title>Node24&#45;&gt;Node28</title>
<g id="a_edge31_Node000024_Node000028"><a xlink:title=" ">
<path fill="none" stroke="#63b8ff" d="M322.22,-180.99C316.87,-179.19 311.54,-177.26 306.5,-175.25 289.89,-168.61 287.15,-163.78 270.5,-157.25 261.73,-153.81 252.08,-150.66 242.96,-147.97"/>
<polygon fill="#63b8ff" stroke="#63b8ff" points="321.08,-184.3 331.68,-184.04 323.23,-177.64 321.08,-184.3"/>
</a>
</g>
</g>
<!-- Node29 -->
<g id="Node000029" class="node">
<title>Node29</title>
<g id="a_Node000029"><a xlink:href="a02192.html#ga1418f4cd7336bf77cce7b955a1bf7077" target="_top" xlink:title=" ">
<polygon fill="white" stroke="#666666" points="261.12,-110.5 147.62,-110.5 147.62,-92 261.12,-92 261.12,-110.5"/>
<text text-anchor="middle" x="204.38" y="-97" font-family="Helvetica,sans-Serif" font-size="10.00">arax_task_issue_sync</text>
</a>
</g>
</g>
<!-- Node24&#45;&gt;Node29 -->
<g id="edge32_Node000024_Node000029" class="edge">
<title>Node24&#45;&gt;Node29</title>
<g id="a_edge32_Node000024_Node000029"><a xlink:title=" ">
<path fill="none" stroke="#63b8ff" d="M314.9,-180.57C311.95,-178.98 309.12,-177.22 306.5,-175.25 283.14,-157.71 293.98,-137.64 270.5,-120.25 265.39,-116.46 259.54,-113.43 253.48,-111"/>
<polygon fill="#63b8ff" stroke="#63b8ff" points="313.37,-183.72 323.92,-184.66 316.26,-177.34 313.37,-183.72"/>
</a>
</g>
</g>
<!-- Node26 -->
<g id="Node000026" class="node">
<title>Node26</title>
<g id="a_Node000026"><a xlink:href="a01925.html#a7d8356bd5c8b6a8d7dffc6ba94cc22e5" target="_top" xlink:title=" ">
<polygon fill="white" stroke="#666666" points="102.25,-202.5 0,-202.5 0,-184 102.25,-184 102.25,-202.5"/>
<text text-anchor="middle" x="51.12" y="-189" font-family="Helvetica,sans-Serif" font-size="10.00">arax_data_memcpy</text>
</a>
</g>
</g>
<!-- Node25&#45;&gt;Node26 -->
<g id="edge28_Node000025_Node000026" class="edge">
<title>Node25&#45;&gt;Node26</title>
<g id="a_edge28_Node000025_Node000026"><a xlink:title=" ">
<path fill="none" stroke="#63b8ff" d="M153.79,-206.02C137.38,-203.96 119.1,-201.66 102.61,-199.59"/>
<polygon fill="#63b8ff" stroke="#63b8ff" points="152.96,-209.44 163.32,-207.22 153.83,-202.5 152.96,-209.44"/>
</a>
</g>
</g>
<!-- Node27&#45;&gt;Node26 -->
<g id="edge30_Node000027_Node000026" class="edge">
<title>Node27&#45;&gt;Node26</title>
<g id="a_edge30_Node000027_Node000026"><a xlink:title=" ">
<path fill="none" stroke="#63b8ff" d="M153.79,-181.15C137.38,-183.1 119.1,-185.28 102.61,-187.24"/>
<polygon fill="#63b8ff" stroke="#63b8ff" points="153.8,-184.67 163.31,-180.02 152.97,-177.72 153.8,-184.67"/>
</a>
</g>
</g>
<!-- Node30&#45;&gt;Node17 -->
<g id="edge36_Node000030_Node000017" class="edge">
<title>Node30&#45;&gt;Node17</title>
<g id="a_edge36_Node000030_Node000017"><a xlink:title=" ">
<path fill="none" stroke="#63b8ff" d="M473.15,-132.6C452.94,-137.46 430.06,-142.96 411.05,-147.53"/>
<polygon fill="#63b8ff" stroke="#63b8ff" points="473.69,-136.07 482.6,-130.33 472.06,-129.26 473.69,-136.07"/>
</a>
</g>
</g>
<!-- Node31 -->
<g id="Node000031" class="node">
<title>Node31</title>
<g id="a_Node000031"><a xlink:href="a02190.html#gaf8a10ab4e51e59c464ab3ab473e4a0f7" target="_top" xlink:title=" ">
<polygon fill="white" stroke="#666666" points="432.75,-129.5 306.5,-129.5 306.5,-111 432.75,-111 432.75,-129.5"/>
<text text-anchor="middle" x="369.62" y="-116" font-family="Helvetica,sans-Serif" font-size="10.00">arax_accel_acquire_phys</text>
</a>
</g>
</g>
<!-- Node30&#45;&gt;Node31 -->
<g id="edge34_Node000030_Node000031" class="edge">
<title>Node30&#45;&gt;Node31</title>
<g id="a_edge34_Node000030_Node000031"><a xlink:title=" ">
<path fill="none" stroke="#63b8ff" d="M470.71,-120.25C458.57,-120.25 445.58,-120.25 433.11,-120.25"/>
<polygon fill="#63b8ff" stroke="#63b8ff" points="470.53,-123.75 480.53,-120.25 470.53,-116.75 470.53,-123.75"/>
</a>
</g>
</g>
<!-- Node32 -->
<g id="Node000032" class="node">
<title>Node32</title>
<g id="a_Node000032"><a xlink:href="a02190.html#ga008252bb9afc2990fa2c5f4b980c9f27" target="_top" xlink:title=" ">
<polygon fill="white" stroke="#666666" points="432,-92.5 307.25,-92.5 307.25,-74 432,-74 432,-92.5"/>
<text text-anchor="middle" x="369.62" y="-79" font-family="Helvetica,sans-Serif" font-size="10.00">arax_accel_acquire_type</text>
</a>
</g>
</g>
<!-- Node30&#45;&gt;Node32 -->
<g id="edge35_Node000030_Node000032" class="edge">
<title>Node30&#45;&gt;Node32</title>
<g id="a_edge35_Node000030_Node000032"><a xlink:title=" ">
<path fill="none" stroke="#63b8ff" d="M473.15,-107.9C452.94,-103.04 430.06,-97.54 411.05,-92.97"/>
<polygon fill="#63b8ff" stroke="#63b8ff" points="472.06,-111.24 482.6,-110.17 473.69,-104.43 472.06,-111.24"/>
</a>
</g>
</g>
</g>
</svg>
