<?xml version="1.0" encoding="UTF-8" standalone="no"?>
<!DOCTYPE svg PUBLIC "-//W3C//DTD SVG 1.1//EN"
 "http://www.w3.org/Graphics/SVG/1.1/DTD/svg11.dtd">
<!-- Generated by graphviz version 12.2.1 (0)
 -->
<!-- Title: utils_list_s Pages: 1 -->
<svg width="126pt" height="94pt"
 viewBox="0.00 0.00 126.00 94.00" xmlns="http://www.w3.org/2000/svg" xmlns:xlink="http://www.w3.org/1999/xlink">
<g id="graph0" class="graph" transform="scale(1 1) rotate(0) translate(4 90)">
<title>utils_list_s</title>
<!-- Node1 -->
<g id="Node000001" class="node">
<title>Node1</title>
<g id="a_Node000001"><a xlink:title=" ">
<polygon fill="#999999" stroke="#666666" points="70.38,-18.5 7.88,-18.5 7.88,0 70.38,0 70.38,-18.5"/>
<text text-anchor="middle" x="39.12" y="-5" font-family="Helvetica,sans-Serif" font-size="10.00">utils_list_s</text>
</a>
</g>
</g>
<!-- Node2 -->
<g id="Node000002" class="node">
<title>Node2</title>
<g id="a_Node000002"><a xlink:href="a02322.html" target="_top" xlink:title=" ">
<polygon fill="white" stroke="#666666" points="78.25,-84.75 0,-84.75 0,-66.25 78.25,-66.25 78.25,-84.75"/>
<text text-anchor="middle" x="39.12" y="-71.25" font-family="Helvetica,sans-Serif" font-size="10.00">utils_list_node</text>
</a>
</g>
</g>
<!-- Node2&#45;&gt;Node1 -->
<g id="edge1_Node000001_Node000002" class="edge">
<title>Node2&#45;&gt;Node1</title>
<g id="a_edge1_Node000001_Node000002"><a xlink:title=" ">
<path fill="none" stroke="#9a32cd" stroke-dasharray="5,2" d="M39.12,-54.62C39.12,-42.6 39.12,-27.87 39.12,-18.78"/>
<polygon fill="#9a32cd" stroke="#9a32cd" points="35.63,-54.32 39.13,-64.32 42.63,-54.32 35.63,-54.32"/>
</a>
</g>
<text text-anchor="middle" x="51.12" y="-37.5" font-family="Helvetica,sans-Serif" font-size="10.00" fill="grey"> head</text>
</g>
<!-- Node2&#45;&gt;Node2 -->
<g id="edge2_Node000002_Node000002" class="edge">
<title>Node2&#45;&gt;Node2</title>
<g id="a_edge2_Node000002_Node000002"><a xlink:title=" ">
<path fill="none" stroke="#9a32cd" stroke-dasharray="5,2" d="M89.98,-80.25C93.86,-79.2 96.25,-77.61 96.25,-75.5 96.25,-71.74 88.7,-69.66 78.64,-69.25"/>
<polygon fill="#9a32cd" stroke="#9a32cd" points="89.59,-76.77 80.14,-81.55 90.51,-83.71 89.59,-76.77"/>
</a>
</g>
<text text-anchor="middle" x="107.12" y="-76.5" font-family="Helvetica,sans-Serif" font-size="10.00" fill="grey"> next</text>
<text text-anchor="middle" x="107.12" y="-66" font-family="Helvetica,sans-Serif" font-size="10.00" fill="grey">prev</text>
</g>
</g>
</svg>
