<?xml version="1.0" encoding="UTF-8" standalone="no"?>
<!DOCTYPE svg PUBLIC "-//W3C//DTD SVG 1.1//EN"
 "http://www.w3.org/Graphics/SVG/1.1/DTD/svg11.dtd">
<!-- Generated by graphviz version 8.0.5 (0)
 -->
<!-- Title: arax_mmap Pages: 1 -->
<svg width="592pt" height="82pt"
 viewBox="0.00 0.00 592.00 81.50" xmlns="http://www.w3.org/2000/svg" xmlns:xlink="http://www.w3.org/1999/xlink">
<g id="graph0" class="graph" transform="scale(1 1) rotate(0) translate(4 77.5)">
<title>arax_mmap</title>
<!-- Node1 -->
<g id="Node000001" class="node">
<title>Node1</title>
<g id="a_Node000001"><a xlink:title=" ">
<polygon fill="#999999" stroke="#666666" points="67.75,-36.5 0,-36.5 0,-18 67.75,-18 67.75,-36.5"/>
<text text-anchor="middle" x="33.88" y="-23" font-family="Helvetica,sans-Serif" font-size="10.00">arax_mmap</text>
</a>
</g>
</g>
<!-- Node2 -->
<g id="Node000002" class="node">
<title>Node2</title>
<g id="a_Node000002"><a xlink:href="a01943.html#a306b62b1bc50d56e80ba7b7adb02f961" target="_top" xlink:title=" ">
<polygon fill="white" stroke="#666666" points="218.75,-36.5 103.75,-36.5 103.75,-18 218.75,-18 218.75,-36.5"/>
<text text-anchor="middle" x="161.25" y="-23" font-family="Helvetica,sans-Serif" font-size="10.00">utils_bitmap_alloc_bits</text>
</a>
</g>
</g>
<!-- Node1&#45;&gt;Node2 -->
<g id="edge1_Node000001_Node000002" class="edge">
<title>Node1&#45;&gt;Node2</title>
<g id="a_edge1_Node000001_Node000002"><a xlink:title=" ">
<path fill="none" stroke="#63b8ff" d="M68.14,-27.25C75.8,-27.25 84.2,-27.25 92.73,-27.25"/>
<polygon fill="#63b8ff" stroke="#63b8ff" points="92.55,-30.75 102.55,-27.25 92.55,-23.75 92.55,-30.75"/>
</a>
</g>
</g>
<!-- Node3 -->
<g id="Node000003" class="node">
<title>Node3</title>
<g id="a_Node000003"><a xlink:href="a01943.html#ae5a4ee90ef57eb7d12191236c3a105f2" target="_top" xlink:title=" ">
<polygon fill="white" stroke="#666666" points="328.5,-55.5 271.25,-55.5 271.25,-37 328.5,-37 328.5,-55.5"/>
<text text-anchor="middle" x="299.88" y="-42" font-family="Helvetica,sans-Serif" font-size="10.00">find_start</text>
</a>
</g>
</g>
<!-- Node2&#45;&gt;Node3 -->
<g id="edge2_Node000002_Node000003" class="edge">
<title>Node2&#45;&gt;Node3</title>
<g id="a_edge2_Node000002_Node000003"><a xlink:title=" ">
<path fill="none" stroke="#63b8ff" d="M219,-35.14C232.84,-37.07 247.33,-39.08 260.11,-40.86"/>
<polygon fill="#63b8ff" stroke="#63b8ff" points="259.45,-44.44 269.84,-42.35 260.42,-37.51 259.45,-44.44"/>
</a>
</g>
</g>
<!-- Node7 -->
<g id="Node000007" class="node">
<title>Node7</title>
<g id="a_Node000007"><a xlink:href="a01943.html#a84bb16b03a95a60c4748c189dafa8a54" target="_top" xlink:title=" ">
<polygon fill="white" stroke="#666666" points="345,-18.5 254.75,-18.5 254.75,0 345,0 345,-18.5"/>
<text text-anchor="middle" x="299.88" y="-5" font-family="Helvetica,sans-Serif" font-size="10.00">utils_bitmap_free</text>
</a>
</g>
</g>
<!-- Node2&#45;&gt;Node7 -->
<g id="edge7_Node000002_Node000007" class="edge">
<title>Node2&#45;&gt;Node7</title>
<g id="a_edge7_Node000002_Node000007"><a xlink:title=" ">
<path fill="none" stroke="#63b8ff" d="M219,-19.77C227.17,-18.7 235.56,-17.59 243.7,-16.52"/>
<polygon fill="#63b8ff" stroke="#63b8ff" points="244.13,-19.86 253.58,-15.09 243.21,-12.92 244.13,-19.86"/>
</a>
</g>
</g>
<!-- Node4 -->
<g id="Node000004" class="node">
<title>Node4</title>
<g id="a_Node000004"><a xlink:href="a01943.html#a73d0d5ad8a6878dde35fe7b827b33b05" target="_top" xlink:title=" ">
<polygon fill="white" stroke="#666666" points="461.5,-73.5 386.25,-73.5 386.25,-55 461.5,-55 461.5,-73.5"/>
<text text-anchor="middle" x="423.88" y="-60" font-family="Helvetica,sans-Serif" font-size="10.00">find_start_big</text>
</a>
</g>
</g>
<!-- Node3&#45;&gt;Node4 -->
<g id="edge3_Node000003_Node000004" class="edge">
<title>Node3&#45;&gt;Node4</title>
<g id="a_edge3_Node000003_Node000004"><a xlink:title=" ">
<path fill="none" stroke="#63b8ff" d="M328.86,-50.38C342.58,-52.4 359.49,-54.9 375.16,-57.21"/>
<polygon fill="#63b8ff" stroke="#63b8ff" points="374.36,-60.78 384.76,-58.77 375.38,-53.85 374.36,-60.78"/>
</a>
</g>
</g>
<!-- Node6 -->
<g id="Node000006" class="node">
<title>Node6</title>
<g id="a_Node000006"><a xlink:href="a01943.html#afac539947a2f5fe419a493103a45e4be" target="_top" xlink:title=" ">
<polygon fill="white" stroke="#666666" points="466.75,-36.5 381,-36.5 381,-18 466.75,-18 466.75,-36.5"/>
<text text-anchor="middle" x="423.88" y="-23" font-family="Helvetica,sans-Serif" font-size="10.00">find_start_small</text>
</a>
</g>
</g>
<!-- Node3&#45;&gt;Node6 -->
<g id="edge5_Node000003_Node000006" class="edge">
<title>Node3&#45;&gt;Node6</title>
<g id="a_edge5_Node000003_Node000006"><a xlink:title=" ">
<path fill="none" stroke="#63b8ff" d="M328.86,-41.89C341.09,-39.99 355.84,-37.69 369.99,-35.49"/>
<polygon fill="#63b8ff" stroke="#63b8ff" points="370.31,-38.82 379.65,-33.83 369.23,-31.91 370.31,-38.82"/>
</a>
</g>
</g>
<!-- Node5 -->
<g id="Node000005" class="node">
<title>Node5</title>
<g id="a_Node000005"><a xlink:href="a01943.html#af8a432f287b9f55f026e2d120e677998" target="_top" xlink:title=" ">
<polygon fill="white" stroke="#666666" points="584,-54.5 502.75,-54.5 502.75,-36 584,-36 584,-54.5"/>
<text text-anchor="middle" x="543.38" y="-41" font-family="Helvetica,sans-Serif" font-size="10.00">find_end_small</text>
</a>
</g>
</g>
<!-- Node4&#45;&gt;Node5 -->
<g id="edge4_Node000004_Node000005" class="edge">
<title>Node4&#45;&gt;Node5</title>
<g id="a_edge4_Node000004_Node000005"><a xlink:title=" ">
<path fill="none" stroke="#63b8ff" d="M461.73,-58.29C471.22,-56.76 481.6,-55.08 491.66,-53.45"/>
<polygon fill="#63b8ff" stroke="#63b8ff" points="492.08,-56.77 501.39,-51.72 490.96,-49.86 492.08,-56.77"/>
</a>
</g>
</g>
<!-- Node6&#45;&gt;Node5 -->
<g id="edge6_Node000006_Node000005" class="edge">
<title>Node6&#45;&gt;Node5</title>
<g id="a_edge6_Node000006_Node000005"><a xlink:title=" ">
<path fill="none" stroke="#63b8ff" d="M466.96,-33.7C475.02,-34.93 483.54,-36.24 491.83,-37.51"/>
<polygon fill="#63b8ff" stroke="#63b8ff" points="491.13,-41.09 501.54,-39.15 492.19,-34.17 491.13,-41.09"/>
</a>
</g>
</g>
</g>
</svg>
