<?xml version="1.0" encoding="UTF-8" standalone="no"?>
<!DOCTYPE svg PUBLIC "-//W3C//DTD SVG 1.1//EN"
 "http://www.w3.org/Graphics/SVG/1.1/DTD/svg11.dtd">
<!-- Generated by graphviz version 12.2.1 (0)
 -->
<!-- Title: arch_alloc_allocate Pages: 1 -->
<svg width="1466pt" height="447pt"
 viewBox="0.00 0.00 1466.25 446.50" xmlns="http://www.w3.org/2000/svg" xmlns:xlink="http://www.w3.org/1999/xlink">
<g id="graph0" class="graph" transform="scale(1 1) rotate(0) translate(4 442.5)">
<title>arch_alloc_allocate</title>
<!-- Node1 -->
<g id="Node000001" class="node">
<title>Node1</title>
<g id="a_Node000001"><a xlink:title=" ">
<polygon fill="#999999" stroke="#666666" points="1458.25,-103.5 1359,-103.5 1359,-85 1458.25,-85 1458.25,-103.5"/>
<text text-anchor="middle" x="1408.62" y="-90" font-family="Helvetica,sans-Serif" font-size="10.00">arch_alloc_allocate</text>
</a>
</g>
</g>
<!-- Node2 -->
<g id="Node000002" class="node">
<title>Node2</title>
<g id="a_Node000002"><a xlink:href="a01925.html#a402bbd6fa197c2c48d527325e5e2cf5b" target="_top" xlink:title=" ">
<polygon fill="white" stroke="#666666" points="724.25,-295.5 619.75,-295.5 619.75,-277 724.25,-277 724.25,-295.5"/>
<text text-anchor="middle" x="672" y="-282" font-family="Helvetica,sans-Serif" font-size="10.00">arax_object_register</text>
</a>
</g>
</g>
<!-- Node1&#45;&gt;Node2 -->
<g id="edge1_Node000001_Node000002" class="edge">
<title>Node1&#45;&gt;Node2</title>
<g id="a_edge1_Node000001_Node000002"><a xlink:title=" ">
<path fill="none" stroke="#63b8ff" d="M1393.47,-112.81C1354.97,-160.97 1242.84,-286.25 1118.12,-286.25 1118.12,-286.25 1118.12,-286.25 962.5,-286.25 879.19,-286.25 782.4,-286.25 724.51,-286.25"/>
<polygon fill="#63b8ff" stroke="#63b8ff" points="1396.2,-114.99 1399.61,-104.96 1390.69,-110.68 1396.2,-114.99"/>
</a>
</g>
</g>
<!-- Node20 -->
<g id="Node000020" class="node">
<title>Node20</title>
<g id="a_Node000020"><a xlink:href="a01925.html#a6c73bee66b4cb5a64d949b6fbbd64498" target="_top" xlink:title=" ">
<polygon fill="white" stroke="#666666" points="1317.38,-18.5 1212.88,-18.5 1212.88,0 1317.38,0 1317.38,-18.5"/>
<text text-anchor="middle" x="1265.12" y="-5" font-family="Helvetica,sans-Serif" font-size="10.00">arax_object_rename</text>
</a>
</g>
</g>
<!-- Node1&#45;&gt;Node20 -->
<g id="edge21_Node000001_Node000020" class="edge">
<title>Node1&#45;&gt;Node20</title>
<g id="a_edge21_Node000001_Node000020"><a xlink:title=" ">
<path fill="none" stroke="#63b8ff" d="M1387.71,-77.45C1371.14,-64.03 1346.54,-45.37 1323,-32.25 1313.88,-27.17 1303.41,-22.61 1293.96,-18.91"/>
<polygon fill="#63b8ff" stroke="#63b8ff" points="1385.35,-80.05 1395.3,-83.7 1389.8,-74.64 1385.35,-80.05"/>
</a>
</g>
</g>
<!-- Node21 -->
<g id="Node000021" class="node">
<title>Node21</title>
<g id="a_Node000021"><a xlink:href="a01946.html#a8a99bcb12e2ee55d68a029bfca9b6d51" target="_top" xlink:title=" ">
<polygon fill="white" stroke="#666666" points="572.5,-57.75 478.5,-57.75 478.5,-28.75 572.5,-28.75 572.5,-57.75"/>
<text text-anchor="start" x="486.5" y="-44.25" font-family="Helvetica,sans-Serif" font-size="10.00">arax_plot_register</text>
<text text-anchor="middle" x="525.5" y="-33.75" font-family="Helvetica,sans-Serif" font-size="10.00">_metric</text>
</a>
</g>
</g>
<!-- Node1&#45;&gt;Node21 -->
<g id="edge22_Node000001_Node000021" class="edge">
<title>Node1&#45;&gt;Node21</title>
<g id="a_edge22_Node000001_Node000021"><a xlink:title=" ">
<path fill="none" stroke="#63b8ff" d="M1361.16,-81.71C1304.29,-67.48 1204.87,-46.25 1118.12,-46.25 1118.12,-46.25 1118.12,-46.25 811.88,-46.25 727.65,-46.25 629.44,-44.93 572.96,-44.04"/>
<polygon fill="#63b8ff" stroke="#63b8ff" points="1360.26,-85.09 1370.82,-84.16 1361.99,-78.31 1360.26,-85.09"/>
</a>
</g>
</g>
<!-- Node22 -->
<g id="Node000022" class="node">
<title>Node22</title>
<g id="a_Node000022"><a xlink:href="a02364.html#a7ab7c7fe9cb93434dde72a4e464a7e69" target="_top" xlink:title=" ">
<polygon fill="white" stroke="#666666" points="1323,-132.5 1207.25,-132.5 1207.25,-114 1323,-114 1323,-132.5"/>
<text text-anchor="middle" x="1265.12" y="-119" font-family="Helvetica,sans-Serif" font-size="10.00">async_semaphore_dec</text>
</a>
</g>
</g>
<!-- Node1&#45;&gt;Node22 -->
<g id="edge23_Node000001_Node000022" class="edge">
<title>Node1&#45;&gt;Node22</title>
<g id="a_edge23_Node000001_Node000022"><a xlink:title=" ">
<path fill="none" stroke="#63b8ff" d="M1348.91,-106.28C1337.03,-108.72 1324.69,-111.25 1313.27,-113.59"/>
<polygon fill="#63b8ff" stroke="#63b8ff" points="1349.54,-109.73 1358.63,-104.29 1348.13,-102.87 1349.54,-109.73"/>
</a>
</g>
</g>
<!-- Node3 -->
<g id="Node000003" class="node">
<title>Node3</title>
<g id="a_Node000003"><a xlink:href="a01916.html#a0706a66a62ca8710342ac1c097b703ed" target="_top" xlink:title=" ">
<polygon fill="white" stroke="#666666" points="410.62,-438.5 328.62,-438.5 328.62,-420 410.62,-420 410.62,-438.5"/>
<text text-anchor="middle" x="369.62" y="-425" font-family="Helvetica,sans-Serif" font-size="10.00">arax_accel_init</text>
</a>
</g>
</g>
<!-- Node2&#45;&gt;Node3 -->
<g id="edge2_Node000002_Node000003" class="edge">
<title>Node2&#45;&gt;Node3</title>
<g id="a_edge2_Node000002_Node000003"><a xlink:title=" ">
<path fill="none" stroke="#63b8ff" d="M659.09,-305.16C644.01,-327.45 615.9,-363.9 582.25,-383.25 528.31,-414.27 455.66,-424.41 411.04,-427.7"/>
<polygon fill="#63b8ff" stroke="#63b8ff" points="661.86,-307.31 664.41,-297.03 656.01,-303.48 661.86,-307.31"/>
</a>
</g>
</g>
<!-- Node4 -->
<g id="Node000004" class="node">
<title>Node4</title>
<g id="a_Node000004"><a xlink:href="a01922.html#a526989df37e605824d846b7ba54b43ea" target="_top" xlink:title=" ">
<polygon fill="white" stroke="#666666" points="582.25,-327.5 468.75,-327.5 468.75,-309 582.25,-309 582.25,-327.5"/>
<text text-anchor="middle" x="525.5" y="-314" font-family="Helvetica,sans-Serif" font-size="10.00">arax_data_init_aligned</text>
</a>
</g>
</g>
<!-- Node2&#45;&gt;Node4 -->
<g id="edge3_Node000002_Node000004" class="edge">
<title>Node2&#45;&gt;Node4</title>
<g id="a_edge3_Node000002_Node000004"><a xlink:title=" ">
<path fill="none" stroke="#63b8ff" d="M616.36,-298.35C601.07,-301.74 584.66,-305.37 570.1,-308.6"/>
<polygon fill="#63b8ff" stroke="#63b8ff" points="616.77,-301.84 625.78,-296.27 615.26,-295.01 616.77,-301.84"/>
</a>
</g>
</g>
<!-- Node7 -->
<g id="Node000007" class="node">
<title>Node7</title>
<g id="a_Node000007"><a xlink:href="a01931.html#a86ac572ea8f5f613129192c47d598818" target="_top" xlink:title=" ">
<polygon fill="white" stroke="#666666" points="564.25,-290.5 486.75,-290.5 486.75,-272 564.25,-272 564.25,-290.5"/>
<text text-anchor="middle" x="525.5" y="-277" font-family="Helvetica,sans-Serif" font-size="10.00">arax_proc_init</text>
</a>
</g>
</g>
<!-- Node2&#45;&gt;Node7 -->
<g id="edge6_Node000002_Node000007" class="edge">
<title>Node2&#45;&gt;Node7</title>
<g id="a_edge6_Node000002_Node000007"><a xlink:title=" ">
<path fill="none" stroke="#63b8ff" d="M608.38,-284.08C593.44,-283.57 577.95,-283.03 564.51,-282.57"/>
<polygon fill="#63b8ff" stroke="#63b8ff" points="608.02,-287.57 618.14,-284.42 608.26,-280.58 608.02,-287.57"/>
</a>
</g>
</g>
<!-- Node9 -->
<g id="Node000009" class="node">
<title>Node9</title>
<g id="a_Node000009"><a xlink:href="a01937.html#a27bee94f7a23281c8b2b72ec433f6059" target="_top" xlink:title=" ">
<polygon fill="white" stroke="#666666" points="568,-253.5 483,-253.5 483,-235 568,-235 568,-253.5"/>
<text text-anchor="middle" x="525.5" y="-240" font-family="Helvetica,sans-Serif" font-size="10.00">arax_task_alloc</text>
</a>
</g>
</g>
<!-- Node2&#45;&gt;Node9 -->
<g id="edge8_Node000002_Node000009" class="edge">
<title>Node2&#45;&gt;Node9</title>
<g id="a_edge8_Node000002_Node000009"><a xlink:title=" ">
<path fill="none" stroke="#63b8ff" d="M626.63,-273.35C605.11,-267.1 579.68,-259.71 559.83,-253.94"/>
<polygon fill="#63b8ff" stroke="#63b8ff" points="625.45,-276.66 636.03,-276.09 627.41,-269.93 625.45,-276.66"/>
</a>
</g>
</g>
<!-- Node17 -->
<g id="Node000017" class="node">
<title>Node17</title>
<g id="a_Node000017"><a xlink:href="a01943.html#a83ddb422946cf774c687c1ab63dcda15" target="_top" xlink:title=" ">
<polygon fill="white" stroke="#666666" points="568.75,-374.5 482.25,-374.5 482.25,-356 568.75,-356 568.75,-374.5"/>
<text text-anchor="middle" x="525.5" y="-361" font-family="Helvetica,sans-Serif" font-size="10.00">arax_vaccel_init</text>
</a>
</g>
</g>
<!-- Node2&#45;&gt;Node17 -->
<g id="edge17_Node000002_Node000017" class="edge">
<title>Node2&#45;&gt;Node17</title>
<g id="a_edge17_Node000002_Node000017"><a xlink:title=" ">
<path fill="none" stroke="#63b8ff" d="M644.82,-301.3C627.21,-311.35 603.44,-324.77 582.25,-336.25 570.07,-342.85 556.25,-350.04 545.42,-355.61"/>
<polygon fill="#63b8ff" stroke="#63b8ff" points="646.15,-304.57 653.09,-296.57 642.68,-298.5 646.15,-304.57"/>
</a>
</g>
</g>
<!-- Node5 -->
<g id="Node000005" class="node">
<title>Node5</title>
<g id="a_Node000005"><a xlink:href="a01922.html#aeefe449d4a278e9fc4b9c5f7e31000a1" target="_top" xlink:title=" ">
<polygon fill="white" stroke="#666666" points="408.38,-327.5 330.88,-327.5 330.88,-309 408.38,-309 408.38,-327.5"/>
<text text-anchor="middle" x="369.62" y="-314" font-family="Helvetica,sans-Serif" font-size="10.00">arax_data_init</text>
</a>
</g>
</g>
<!-- Node4&#45;&gt;Node5 -->
<g id="edge4_Node000004_Node000005" class="edge">
<title>Node4&#45;&gt;Node5</title>
<g id="a_edge4_Node000004_Node000005"><a xlink:title=" ">
<path fill="none" stroke="#63b8ff" d="M457.12,-318.25C440.48,-318.25 423.22,-318.25 408.54,-318.25"/>
<polygon fill="#63b8ff" stroke="#63b8ff" points="457,-321.75 467,-318.25 457,-314.75 457,-321.75"/>
</a>
</g>
</g>
<!-- Node6 -->
<g id="Node000006" class="node">
<title>Node6</title>
<g id="a_Node000006"><a xlink:href="a02190.html#ga9260ad2dd766aec3274c518e2e312b1f" target="_top" xlink:title=" ">
<polygon fill="white" stroke="#666666" points="249.12,-364.5 159.62,-364.5 159.62,-346 249.12,-346 249.12,-364.5"/>
<text text-anchor="middle" x="204.38" y="-351" font-family="Helvetica,sans-Serif" font-size="10.00">ARAX_BUFFER</text>
</a>
</g>
</g>
<!-- Node5&#45;&gt;Node6 -->
<g id="edge5_Node000005_Node000006" class="edge">
<title>Node5&#45;&gt;Node6</title>
<g id="a_edge5_Node000005_Node000006"><a xlink:title=" ">
<path fill="none" stroke="#63b8ff" d="M319.63,-329.35C296.9,-334.51 270.13,-340.57 248.21,-345.54"/>
<polygon fill="#63b8ff" stroke="#63b8ff" points="320.31,-332.79 329.29,-327.17 318.76,-325.96 320.31,-332.79"/>
</a>
</g>
</g>
<!-- Node8 -->
<g id="Node000008" class="node">
<title>Node8</title>
<g id="a_Node000008"><a xlink:href="a02188.html#gafad2dafb4a231390f02b7c866295b7d9" target="_top" xlink:title=" ">
<polygon fill="white" stroke="#666666" points="418.12,-290.5 321.12,-290.5 321.12,-272 418.12,-272 418.12,-290.5"/>
<text text-anchor="middle" x="369.62" y="-277" font-family="Helvetica,sans-Serif" font-size="10.00">arax_proc_register</text>
</a>
</g>
</g>
<!-- Node7&#45;&gt;Node8 -->
<g id="edge7_Node000007_Node000008" class="edge">
<title>Node7&#45;&gt;Node8</title>
<g id="a_edge7_Node000007_Node000008"><a xlink:title=" ">
<path fill="none" stroke="#63b8ff" d="M475.2,-281.25C457.02,-281.25 436.47,-281.25 418.42,-281.25"/>
<polygon fill="#63b8ff" stroke="#63b8ff" points="474.95,-284.75 484.95,-281.25 474.95,-277.75 474.95,-284.75"/>
</a>
</g>
</g>
<!-- Node10 -->
<g id="Node000010" class="node">
<title>Node10</title>
<g id="a_Node000010"><a xlink:href="a02189.html#gac9f0f3fbb14da879d3ff09bd367bbb24" target="_top" xlink:title=" ">
<polygon fill="white" stroke="#666666" points="413.62,-253.5 325.62,-253.5 325.62,-235 413.62,-235 413.62,-253.5"/>
<text text-anchor="middle" x="369.62" y="-240" font-family="Helvetica,sans-Serif" font-size="10.00">arax_task_issue</text>
</a>
</g>
</g>
<!-- Node9&#45;&gt;Node10 -->
<g id="edge9_Node000009_Node000010" class="edge">
<title>Node9&#45;&gt;Node10</title>
<g id="a_edge9_Node000009_Node000010"><a xlink:title=" ">
<path fill="none" stroke="#63b8ff" d="M471.48,-244.25C452.69,-244.25 431.79,-244.25 413.91,-244.25"/>
<polygon fill="#63b8ff" stroke="#63b8ff" points="471.35,-247.75 481.35,-244.25 471.35,-240.75 471.35,-247.75"/>
</a>
</g>
</g>
<!-- Node11 -->
<g id="Node000011" class="node">
<title>Node11</title>
<g id="a_Node000011"><a xlink:href="a01922.html#af8ede6fc8d207004035f45d945688d2c" target="_top" xlink:title=" ">
<polygon fill="white" stroke="#666666" points="253.62,-179.75 155.12,-179.75 155.12,-150.75 253.62,-150.75 253.62,-179.75"/>
<text text-anchor="start" x="163.12" y="-166.25" font-family="Helvetica,sans-Serif" font-size="10.00">arax_data_allocate</text>
<text text-anchor="middle" x="204.38" y="-155.75" font-family="Helvetica,sans-Serif" font-size="10.00">_remote</text>
</a>
</g>
</g>
<!-- Node10&#45;&gt;Node11 -->
<g id="edge10_Node000010_Node000011" class="edge">
<title>Node10&#45;&gt;Node11</title>
<g id="a_edge10_Node000010_Node000011"><a xlink:title=" ">
<path fill="none" stroke="#63b8ff" d="M339.74,-229.37C329.2,-223.82 317.24,-217.38 306.5,-211.25 290.21,-201.96 287.38,-197.42 270.5,-189.25 263.88,-186.05 256.72,-183.01 249.65,-180.24"/>
<polygon fill="#63b8ff" stroke="#63b8ff" points="337.88,-232.35 348.36,-233.88 341.12,-226.14 337.88,-232.35"/>
</a>
</g>
</g>
<!-- Node12 -->
<g id="Node000012" class="node">
<title>Node12</title>
<g id="a_Node000012"><a xlink:href="a01922.html#a696bc4319d0f6c6baa7d797a8df6b56f" target="_top" xlink:title=" ">
<polygon fill="white" stroke="#666666" points="243.5,-253.5 165.25,-253.5 165.25,-235 243.5,-235 243.5,-253.5"/>
<text text-anchor="middle" x="204.38" y="-240" font-family="Helvetica,sans-Serif" font-size="10.00">arax_data_get</text>
</a>
</g>
</g>
<!-- Node10&#45;&gt;Node12 -->
<g id="edge11_Node000010_Node000012" class="edge">
<title>Node10&#45;&gt;Node12</title>
<g id="a_edge11_Node000010_Node000012"><a xlink:title=" ">
<path fill="none" stroke="#63b8ff" d="M313.97,-244.25C290.99,-244.25 264.79,-244.25 243.88,-244.25"/>
<polygon fill="#63b8ff" stroke="#63b8ff" points="313.79,-247.75 323.79,-244.25 313.79,-240.75 313.79,-247.75"/>
</a>
</g>
</g>
<!-- Node14 -->
<g id="Node000014" class="node">
<title>Node14</title>
<g id="a_Node000014"><a xlink:href="a01922.html#a8995f71dba475975efc37756783cfce9" target="_top" xlink:title=" ">
<polygon fill="white" stroke="#666666" points="243.5,-216.5 165.25,-216.5 165.25,-198 243.5,-198 243.5,-216.5"/>
<text text-anchor="middle" x="204.38" y="-203" font-family="Helvetica,sans-Serif" font-size="10.00">arax_data_set</text>
</a>
</g>
</g>
<!-- Node10&#45;&gt;Node14 -->
<g id="edge13_Node000010_Node000014" class="edge">
<title>Node10&#45;&gt;Node14</title>
<g id="a_edge13_Node000010_Node000014"><a xlink:title=" ">
<path fill="none" stroke="#63b8ff" d="M314.66,-232.02C291.49,-226.77 264.93,-220.75 243.8,-215.96"/>
<polygon fill="#63b8ff" stroke="#63b8ff" points="313.73,-235.4 324.26,-234.19 315.28,-228.57 313.73,-235.4"/>
</a>
</g>
</g>
<!-- Node15 -->
<g id="Node000015" class="node">
<title>Node15</title>
<g id="a_Node000015"><a xlink:href="a01922.html#af735744d0f8bec04394639a841d2ba0f" target="_top" xlink:title=" ">
<polygon fill="white" stroke="#666666" points="270.5,-327.5 138.25,-327.5 138.25,-309 270.5,-309 270.5,-327.5"/>
<text text-anchor="middle" x="204.38" y="-314" font-family="Helvetica,sans-Serif" font-size="10.00">ARAX_OBJ_DTOR_DECL</text>
</a>
</g>
</g>
<!-- Node10&#45;&gt;Node15 -->
<g id="edge15_Node000010_Node000015" class="edge">
<title>Node10&#45;&gt;Node15</title>
<g id="a_edge15_Node000010_Node000015"><a xlink:title=" ">
<path fill="none" stroke="#63b8ff" d="M316.43,-258.09C312.99,-259.65 309.64,-261.36 306.5,-263.25 287.11,-274.9 289.97,-287.72 270.5,-299.25 264.12,-303.03 256.93,-306.1 249.72,-308.58"/>
<polygon fill="#63b8ff" stroke="#63b8ff" points="317.58,-261.4 325.57,-254.45 314.98,-254.9 317.58,-261.4"/>
</a>
</g>
</g>
<!-- Node16 -->
<g id="Node000016" class="node">
<title>Node16</title>
<g id="a_Node000016"><a xlink:href="a02189.html#ga1418f4cd7336bf77cce7b955a1bf7077" target="_top" xlink:title=" ">
<polygon fill="white" stroke="#666666" points="261.12,-290.5 147.62,-290.5 147.62,-272 261.12,-272 261.12,-290.5"/>
<text text-anchor="middle" x="204.38" y="-277" font-family="Helvetica,sans-Serif" font-size="10.00">arax_task_issue_sync</text>
</a>
</g>
</g>
<!-- Node10&#45;&gt;Node16 -->
<g id="edge16_Node000010_Node000016" class="edge">
<title>Node10&#45;&gt;Node16</title>
<g id="a_edge16_Node000010_Node000016"><a xlink:title=" ">
<path fill="none" stroke="#63b8ff" d="M314.75,-256.46C293.15,-261.36 268.62,-266.92 248.26,-271.53"/>
<polygon fill="#63b8ff" stroke="#63b8ff" points="315.28,-259.93 324.26,-254.31 313.73,-253.1 315.28,-259.93"/>
</a>
</g>
</g>
<!-- Node13 -->
<g id="Node000013" class="node">
<title>Node13</title>
<g id="a_Node000013"><a xlink:href="a01922.html#a7d8356bd5c8b6a8d7dffc6ba94cc22e5" target="_top" xlink:title=" ">
<polygon fill="white" stroke="#666666" points="102.25,-234.5 0,-234.5 0,-216 102.25,-216 102.25,-234.5"/>
<text text-anchor="middle" x="51.12" y="-221" font-family="Helvetica,sans-Serif" font-size="10.00">arax_data_memcpy</text>
</a>
</g>
</g>
<!-- Node12&#45;&gt;Node13 -->
<g id="edge12_Node000012_Node000013" class="edge">
<title>Node12&#45;&gt;Node13</title>
<g id="a_edge12_Node000012_Node000013"><a xlink:title=" ">
<path fill="none" stroke="#63b8ff" d="M153.79,-238.02C137.38,-235.96 119.1,-233.66 102.61,-231.59"/>
<polygon fill="#63b8ff" stroke="#63b8ff" points="152.96,-241.44 163.32,-239.22 153.83,-234.5 152.96,-241.44"/>
</a>
</g>
</g>
<!-- Node14&#45;&gt;Node13 -->
<g id="edge14_Node000014_Node000013" class="edge">
<title>Node14&#45;&gt;Node13</title>
<g id="a_edge14_Node000014_Node000013"><a xlink:title=" ">
<path fill="none" stroke="#63b8ff" d="M153.79,-213.15C137.38,-215.1 119.1,-217.28 102.61,-219.24"/>
<polygon fill="#63b8ff" stroke="#63b8ff" points="153.8,-216.67 163.31,-212.02 152.97,-209.72 153.8,-216.67"/>
</a>
</g>
</g>
<!-- Node17&#45;&gt;Node3 -->
<g id="edge20_Node000017_Node000003" class="edge">
<title>Node17&#45;&gt;Node3</title>
<g id="a_edge20_Node000017_Node000003"><a xlink:title=" ">
<path fill="none" stroke="#63b8ff" d="M496.89,-380.22C478.95,-389.6 454.85,-401.51 432.75,-410.25 424.15,-413.65 414.68,-416.82 405.79,-419.56"/>
<polygon fill="#63b8ff" stroke="#63b8ff" points="498.41,-383.38 505.61,-375.61 495.13,-377.2 498.41,-383.38"/>
</a>
</g>
</g>
<!-- Node18 -->
<g id="Node000018" class="node">
<title>Node18</title>
<g id="a_Node000018"><a xlink:href="a02187.html#gaf8a10ab4e51e59c464ab3ab473e4a0f7" target="_top" xlink:title=" ">
<polygon fill="white" stroke="#666666" points="432.75,-401.5 306.5,-401.5 306.5,-383 432.75,-383 432.75,-401.5"/>
<text text-anchor="middle" x="369.62" y="-388" font-family="Helvetica,sans-Serif" font-size="10.00">arax_accel_acquire_phys</text>
</a>
</g>
</g>
<!-- Node17&#45;&gt;Node18 -->
<g id="edge18_Node000017_Node000018" class="edge">
<title>Node17&#45;&gt;Node18</title>
<g id="a_edge18_Node000017_Node000018"><a xlink:title=" ">
<path fill="none" stroke="#63b8ff" d="M470.72,-374.69C456.22,-377.23 440.51,-379.99 425.92,-382.55"/>
<polygon fill="#63b8ff" stroke="#63b8ff" points="471.31,-378.14 480.55,-372.96 470.1,-371.24 471.31,-378.14"/>
</a>
</g>
</g>
<!-- Node19 -->
<g id="Node000019" class="node">
<title>Node19</title>
<g id="a_Node000019"><a xlink:href="a02187.html#ga008252bb9afc2990fa2c5f4b980c9f27" target="_top" xlink:title=" ">
<polygon fill="white" stroke="#666666" points="432,-364.5 307.25,-364.5 307.25,-346 432,-346 432,-364.5"/>
<text text-anchor="middle" x="369.62" y="-351" font-family="Helvetica,sans-Serif" font-size="10.00">arax_accel_acquire_type</text>
</a>
</g>
</g>
<!-- Node17&#45;&gt;Node19 -->
<g id="edge19_Node000017_Node000019" class="edge">
<title>Node17&#45;&gt;Node19</title>
<g id="a_edge19_Node000017_Node000019"><a xlink:title=" ">
<path fill="none" stroke="#63b8ff" d="M470.89,-361.77C458.41,-360.95 445.03,-360.09 432.24,-359.25"/>
<polygon fill="#63b8ff" stroke="#63b8ff" points="470.33,-365.24 480.54,-362.39 470.78,-358.25 470.33,-365.24"/>
</a>
</g>
</g>
<!-- Node23 -->
<g id="Node000023" class="node">
<title>Node23</title>
<g id="a_Node000023"><a xlink:href="a02364.html#a1bfeaeb9b81855e640d7a67cc9d92b17" target="_top" xlink:title=" ">
<polygon fill="white" stroke="#666666" points="1171.25,-156.5 1063,-156.5 1063,-138 1171.25,-138 1171.25,-156.5"/>
<text text-anchor="middle" x="1117.12" y="-143" font-family="Helvetica,sans-Serif" font-size="10.00">async_condition_wait</text>
</a>
</g>
</g>
<!-- Node22&#45;&gt;Node23 -->
<g id="edge24_Node000022_Node000023" class="edge">
<title>Node22&#45;&gt;Node23</title>
<g id="a_edge24_Node000022_Node000023"><a xlink:title=" ">
<path fill="none" stroke="#63b8ff" d="M1195.5,-134.53C1187.42,-135.86 1179.26,-137.2 1171.43,-138.49"/>
<polygon fill="#63b8ff" stroke="#63b8ff" points="1196.05,-137.99 1205.35,-132.91 1194.91,-131.08 1196.05,-137.99"/>
</a>
</g>
</g>
<!-- Node24 -->
<g id="Node000024" class="node">
<title>Node24</title>
<g id="a_Node000024"><a xlink:href="a01910.html#a02fd608f651d254148dc74f0ae371dfe" target="_top" xlink:title=" ">
<polygon fill="white" stroke="#666666" points="992.88,-119.5 934.12,-119.5 934.12,-101 992.88,-101 992.88,-119.5"/>
<text text-anchor="middle" x="963.5" y="-106" font-family="Helvetica,sans-Serif" font-size="10.00">_arax_init</text>
</a>
</g>
</g>
<!-- Node23&#45;&gt;Node24 -->
<g id="edge25_Node000023_Node000024" class="edge">
<title>Node23&#45;&gt;Node24</title>
<g id="a_edge25_Node000023_Node000024"><a xlink:title=" ">
<path fill="none" stroke="#63b8ff" d="M1065.19,-134.82C1041.15,-128.95 1013.35,-122.17 993.06,-117.22"/>
<polygon fill="#63b8ff" stroke="#63b8ff" points="1064.27,-138.2 1074.82,-137.17 1065.93,-131.4 1064.27,-138.2"/>
</a>
</g>
</g>
<!-- Node31 -->
<g id="Node000031" class="node">
<title>Node31</title>
<g id="a_Node000031"><a xlink:href="a01916.html#a415e79d6e82e45f24bcd1742c146a0da" target="_top" xlink:title=" ">
<polygon fill="white" stroke="#666666" points="1027,-258.5 900,-258.5 900,-240 1027,-240 1027,-258.5"/>
<text text-anchor="middle" x="963.5" y="-245" font-family="Helvetica,sans-Serif" font-size="10.00">arax_accel_wait_for_task</text>
</a>
</g>
</g>
<!-- Node23&#45;&gt;Node31 -->
<g id="edge35_Node000023_Node000031" class="edge">
<title>Node23&#45;&gt;Node31</title>
<g id="a_edge35_Node000023_Node000031"><a xlink:title=" ">
<path fill="none" stroke="#63b8ff" d="M1101.42,-165.52C1085.14,-184.58 1057.18,-214.04 1027,-231.25 1021.21,-234.55 1014.77,-237.28 1008.29,-239.54"/>
<polygon fill="#63b8ff" stroke="#63b8ff" points="1103.96,-167.95 1107.66,-158.02 1098.58,-163.47 1103.96,-167.95"/>
</a>
</g>
</g>
<!-- Node32 -->
<g id="Node000032" class="node">
<title>Node32</title>
<g id="a_Node000032"><a xlink:href="a01928.html#a8ff14a859f9b7a34676c2fcdb762386b" target="_top" xlink:title=" ">
<polygon fill="white" stroke="#666666" points="1019.88,-221.75 907.12,-221.75 907.12,-192.75 1019.88,-192.75 1019.88,-221.75"/>
<text text-anchor="start" x="915.12" y="-208.25" font-family="Helvetica,sans-Serif" font-size="10.00">arax_pipe_get_orphan</text>
<text text-anchor="middle" x="963.5" y="-197.75" font-family="Helvetica,sans-Serif" font-size="10.00">_vaccel</text>
</a>
</g>
</g>
<!-- Node23&#45;&gt;Node32 -->
<g id="edge36_Node000023_Node000032" class="edge">
<title>Node23&#45;&gt;Node32</title>
<g id="a_edge36_Node000023_Node000032"><a xlink:title=" ">
<path fill="none" stroke="#63b8ff" d="M1082.03,-161.18C1065.45,-167.92 1045.21,-176.08 1027,-183.25 1019.43,-186.23 1011.33,-189.38 1003.55,-192.37"/>
<polygon fill="#63b8ff" stroke="#63b8ff" points="1082.99,-164.57 1090.94,-157.56 1080.35,-158.09 1082.99,-164.57"/>
</a>
</g>
</g>
<!-- Node33 -->
<g id="Node000033" class="node">
<title>Node33</title>
<g id="a_Node000033"><a xlink:href="a01940.html#a63b80783cfb3106ec4169ce082f153c0" target="_top" xlink:title=" ">
<polygon fill="white" stroke="#666666" points="1020.62,-156.5 906.38,-156.5 906.38,-138 1020.62,-138 1020.62,-156.5"/>
<text text-anchor="middle" x="963.5" y="-143" font-family="Helvetica,sans-Serif" font-size="10.00">arax_throttle_size_dec</text>
</a>
</g>
</g>
<!-- Node23&#45;&gt;Node33 -->
<g id="edge37_Node000023_Node000033" class="edge">
<title>Node23&#45;&gt;Node33</title>
<g id="a_edge37_Node000023_Node000033"><a xlink:title=" ">
<path fill="none" stroke="#63b8ff" d="M1051.42,-147.25C1041.33,-147.25 1030.97,-147.25 1021.07,-147.25"/>
<polygon fill="#63b8ff" stroke="#63b8ff" points="1051.15,-150.75 1061.15,-147.25 1051.15,-143.75 1051.15,-150.75"/>
</a>
</g>
</g>
<!-- Node25 -->
<g id="Node000025" class="node">
<title>Node25</title>
<g id="a_Node000025"><a xlink:href="a01910.html#aa6e4832b06bd5757be4502d2de7b3026" target="_top" xlink:title=" ">
<polygon fill="white" stroke="#666666" points="862.12,-157.75 763.62,-157.75 763.62,-128.75 862.12,-128.75 862.12,-157.75"/>
<text text-anchor="start" x="771.62" y="-144.25" font-family="Helvetica,sans-Serif" font-size="10.00">arax_controller_init</text>
<text text-anchor="middle" x="812.88" y="-133.75" font-family="Helvetica,sans-Serif" font-size="10.00">_start</text>
</a>
</g>
</g>
<!-- Node24&#45;&gt;Node25 -->
<g id="edge26_Node000024_Node000025" class="edge">
<title>Node24&#45;&gt;Node25</title>
<g id="a_edge26_Node000024_Node000025"><a xlink:title=" ">
<path fill="none" stroke="#63b8ff" d="M922.81,-119.06C904.22,-123.19 881.91,-128.14 862.33,-132.49"/>
<polygon fill="#63b8ff" stroke="#63b8ff" points="923.36,-122.53 932.37,-116.94 921.85,-115.69 923.36,-122.53"/>
</a>
</g>
</g>
<!-- Node26 -->
<g id="Node000026" class="node">
<title>Node26</title>
<g id="a_Node000026"><a xlink:href="a02186.html#gae1d371a2840849690acce147e7a205da" target="_top" xlink:title=" ">
<polygon fill="white" stroke="#666666" points="839.62,-110.5 786.12,-110.5 786.12,-92 839.62,-92 839.62,-110.5"/>
<text text-anchor="middle" x="812.88" y="-97" font-family="Helvetica,sans-Serif" font-size="10.00">arax_init</text>
</a>
</g>
</g>
<!-- Node24&#45;&gt;Node26 -->
<g id="edge27_Node000024_Node000026" class="edge">
<title>Node24&#45;&gt;Node26</title>
<g id="a_edge27_Node000024_Node000026"><a xlink:title=" ">
<path fill="none" stroke="#63b8ff" d="M922.38,-107.82C896.19,-106.23 862.74,-104.21 839.95,-102.83"/>
<polygon fill="#63b8ff" stroke="#63b8ff" points="922.14,-111.31 932.33,-108.42 922.56,-104.33 922.14,-111.31"/>
</a>
</g>
</g>
<!-- Node26&#45;&gt;Node21 -->
<g id="edge28_Node000026_Node000021" class="edge">
<title>Node26&#45;&gt;Node21</title>
<g id="a_edge28_Node000026_Node000021"><a xlink:title=" ">
<path fill="none" stroke="#63b8ff" d="M774.82,-93.72C723.1,-83.21 629.3,-64.14 572.97,-52.69"/>
<polygon fill="#63b8ff" stroke="#63b8ff" points="773.81,-97.09 784.31,-95.65 775.21,-90.23 773.81,-97.09"/>
</a>
</g>
</g>
<!-- Node27 -->
<g id="Node000027" class="node">
<title>Node27</title>
<g id="a_Node000027"><a xlink:href="a01934.html#a80ab3bf4a8af9bb101b5a53248609771" target="_top" xlink:title=" ">
<polygon fill="white" stroke="#666666" points="710.38,-130.5 633.62,-130.5 633.62,-112 710.38,-112 710.38,-130.5"/>
<text text-anchor="middle" x="672" y="-117" font-family="Helvetica,sans-Serif" font-size="10.00">arax_ptr_valid</text>
</a>
</g>
</g>
<!-- Node26&#45;&gt;Node27 -->
<g id="edge29_Node000026_Node000027" class="edge">
<title>Node26&#45;&gt;Node27</title>
<g id="a_edge29_Node000026_Node000027"><a xlink:title=" ">
<path fill="none" stroke="#63b8ff" d="M774.42,-106.64C754.7,-109.48 730.58,-112.96 710.8,-115.81"/>
<polygon fill="#63b8ff" stroke="#63b8ff" points="774.86,-110.12 784.26,-105.23 773.86,-103.19 774.86,-110.12"/>
</a>
</g>
</g>
<!-- Node27&#45;&gt;Node21 -->
<g id="edge34_Node000027_Node000021" class="edge">
<title>Node27&#45;&gt;Node21</title>
<g id="a_edge34_Node000027_Node000021"><a xlink:title=" ">
<path fill="none" stroke="#63b8ff" d="M635.44,-107C629.59,-104.3 623.67,-101.34 618.25,-98.25 601.11,-88.47 599.05,-82.61 582.25,-72.25 574.26,-67.33 565.35,-62.44 557.04,-58.12"/>
<polygon fill="#63b8ff" stroke="#63b8ff" points="633.83,-110.11 644.39,-110.94 636.65,-103.7 633.83,-110.11"/>
</a>
</g>
</g>
<!-- Node28 -->
<g id="Node000028" class="node">
<title>Node28</title>
<g id="a_Node000028"><a xlink:href="a01967.html#a4ee1fea325d2edd421f59ab240dfbe54" target="_top" xlink:title=" ">
<polygon fill="white" stroke="#666666" points="571.38,-132.5 479.62,-132.5 479.62,-114 571.38,-114 571.38,-132.5"/>
<text text-anchor="middle" x="525.5" y="-119" font-family="Helvetica,sans-Serif" font-size="10.00">_arax_assert_obj</text>
</a>
</g>
</g>
<!-- Node27&#45;&gt;Node28 -->
<g id="edge30_Node000027_Node000028" class="edge">
<title>Node27&#45;&gt;Node28</title>
<g id="a_edge30_Node000027_Node000028"><a xlink:title=" ">
<path fill="none" stroke="#63b8ff" d="M621.92,-121.93C605.63,-122.15 587.59,-122.4 571.62,-122.63"/>
<polygon fill="#63b8ff" stroke="#63b8ff" points="621.95,-125.43 631.9,-121.79 621.85,-118.43 621.95,-125.43"/>
</a>
</g>
</g>
<!-- Node29 -->
<g id="Node000029" class="node">
<title>Node29</title>
<g id="a_Node000029"><a xlink:href="a01922.html#afeaab7d93372f0752d59c70d9c5940e7" target="_top" xlink:title=" ">
<polygon fill="white" stroke="#666666" points="563.5,-169.5 487.5,-169.5 487.5,-151 563.5,-151 563.5,-169.5"/>
<text text-anchor="middle" x="525.5" y="-156" font-family="Helvetica,sans-Serif" font-size="10.00">arax_data_ref</text>
</a>
</g>
</g>
<!-- Node27&#45;&gt;Node29 -->
<g id="edge31_Node000027_Node000029" class="edge">
<title>Node27&#45;&gt;Node29</title>
<g id="a_edge31_Node000027_Node000029"><a xlink:title=" ">
<path fill="none" stroke="#63b8ff" d="M623.8,-133.99C603.74,-139.4 580.73,-145.61 562.13,-150.63"/>
<polygon fill="#63b8ff" stroke="#63b8ff" points="624.71,-137.37 633.45,-131.39 622.88,-130.61 624.71,-137.37"/>
</a>
</g>
</g>
<!-- Node30 -->
<g id="Node000030" class="node">
<title>Node30</title>
<g id="a_Node000030"><a xlink:href="a01922.html#ac1f7fb20b3a23b388bea24f1b46a33a8" target="_top" xlink:title=" ">
<polygon fill="white" stroke="#666666" points="422.25,-132.5 317,-132.5 317,-114 422.25,-114 422.25,-132.5"/>
<text text-anchor="middle" x="369.62" y="-119" font-family="Helvetica,sans-Serif" font-size="10.00">arax_data_ref_offset</text>
</a>
</g>
</g>
<!-- Node27&#45;&gt;Node30 -->
<g id="edge33_Node000027_Node000030" class="edge">
<title>Node27&#45;&gt;Node30</title>
<g id="a_edge33_Node000027_Node000030"><a xlink:title=" ">
<path fill="none" stroke="#63b8ff" d="M622.17,-110.83C609.25,-108.52 595.28,-106.41 582.25,-105.25 532.01,-100.76 518.99,-100.68 468.75,-105.25 450.64,-106.9 430.88,-110.22 413.87,-113.57"/>
<polygon fill="#63b8ff" stroke="#63b8ff" points="621.24,-114.22 631.71,-112.62 622.52,-107.34 621.24,-114.22"/>
</a>
</g>
</g>
<!-- Node29&#45;&gt;Node30 -->
<g id="edge32_Node000029_Node000030" class="edge">
<title>Node29&#45;&gt;Node30</title>
<g id="a_edge32_Node000029_Node000030"><a xlink:title=" ">
<path fill="none" stroke="#63b8ff" d="M476.31,-148.66C455.34,-143.62 431.04,-137.78 411.04,-132.97"/>
<polygon fill="#63b8ff" stroke="#63b8ff" points="475.24,-152 485.78,-150.94 476.87,-145.2 475.24,-152"/>
</a>
</g>
</g>
<!-- Node33&#45;&gt;Node33 -->
<g id="edge44_Node000033_Node000033" class="edge">
<title>Node33&#45;&gt;Node33</title>
<g id="a_edge44_Node000033_Node000033"><a xlink:title=" ">
<path fill="none" stroke="#63b8ff" d="M990.61,-167.53C987.6,-171.59 978.56,-174.5 963.5,-174.5 936.73,-174.5 928.99,-165.32 940.28,-156.75"/>
<polygon fill="#63b8ff" stroke="#63b8ff" points="993.92,-166.39 987.23,-158.17 987.34,-168.76 993.92,-166.39"/>
</a>
</g>
</g>
<!-- Node34 -->
<g id="Node000034" class="node">
<title>Node34</title>
<g id="a_Node000034"><a xlink:href="a01916.html#a9c8e53aad4b86498a6b709c35c156fc3" target="_top" xlink:title=" ">
<polygon fill="white" stroke="#666666" points="725.75,-203.5 618.25,-203.5 618.25,-185 725.75,-185 725.75,-203.5"/>
<text text-anchor="middle" x="672" y="-190" font-family="Helvetica,sans-Serif" font-size="10.00">arax_accel_size_dec</text>
</a>
</g>
</g>
<!-- Node33&#45;&gt;Node34 -->
<g id="edge38_Node000033_Node000034" class="edge">
<title>Node33&#45;&gt;Node34</title>
<g id="a_edge38_Node000033_Node000034"><a xlink:title=" ">
<path fill="none" stroke="#63b8ff" d="M906.6,-159.2C892.71,-162.01 877.84,-164.87 864,-167.25 817.63,-175.23 764.63,-182.58 726.24,-187.59"/>
<polygon fill="#63b8ff" stroke="#63b8ff" points="906.91,-162.71 916.01,-157.28 905.51,-155.86 906.91,-162.71"/>
</a>
</g>
</g>
<!-- Node35 -->
<g id="Node000035" class="node">
<title>Node35</title>
<g id="a_Node000035"><a xlink:href="a01928.html#a6cc54ee40009c61b5f6526f5edff004f" target="_top" xlink:title=" ">
<polygon fill="white" stroke="#666666" points="864,-239.5 761.75,-239.5 761.75,-221 864,-221 864,-239.5"/>
<text text-anchor="middle" x="812.88" y="-226" font-family="Helvetica,sans-Serif" font-size="10.00">arax_pipe_size_dec</text>
</a>
</g>
</g>
<!-- Node33&#45;&gt;Node35 -->
<g id="edge41_Node000033_Node000035" class="edge">
<title>Node33&#45;&gt;Node35</title>
<g id="a_edge41_Node000033_Node000035"><a xlink:title=" ">
<path fill="none" stroke="#63b8ff" d="M936.6,-162.56C908.66,-179.07 867.65,-203.27 864,-205.25 854.26,-210.54 843.25,-216.08 834.04,-220.59"/>
<polygon fill="#63b8ff" stroke="#63b8ff" points="938.08,-165.75 944.91,-157.65 934.52,-159.73 938.08,-165.75"/>
</a>
</g>
</g>
<!-- Node34&#45;&gt;Node11 -->
<g id="edge40_Node000034_Node000011" class="edge">
<title>Node34&#45;&gt;Node11</title>
<g id="a_edge40_Node000034_Node000011"><a xlink:title=" ">
<path fill="none" stroke="#63b8ff" d="M606.66,-190.24C512.34,-184.37 338.57,-173.55 254.07,-168.28"/>
<polygon fill="#63b8ff" stroke="#63b8ff" points="606.33,-193.73 616.53,-190.86 606.77,-186.74 606.33,-193.73"/>
</a>
</g>
</g>
<!-- Node34&#45;&gt;Node34 -->
<g id="edge39_Node000034_Node000034" class="edge">
<title>Node34&#45;&gt;Node34</title>
<g id="a_edge39_Node000034_Node000034"><a xlink:title=" ">
<path fill="none" stroke="#63b8ff" d="M697.36,-214.53C694.54,-218.59 686.08,-221.5 672,-221.5 646.96,-221.5 639.72,-212.32 650.29,-203.75"/>
<polygon fill="#63b8ff" stroke="#63b8ff" points="700.71,-213.53 694.2,-205.18 694.08,-215.77 700.71,-213.53"/>
</a>
</g>
</g>
<!-- Node35&#45;&gt;Node2 -->
<g id="edge42_Node000035_Node000002" class="edge">
<title>Node35&#45;&gt;Node2</title>
<g id="a_edge42_Node000035_Node000002"><a xlink:title=" ">
<path fill="none" stroke="#63b8ff" d="M777.5,-244.11C752.48,-254.2 719.24,-267.61 697.03,-276.56"/>
<polygon fill="#63b8ff" stroke="#63b8ff" points="778.63,-247.43 786.6,-240.44 776.01,-240.94 778.63,-247.43"/>
</a>
</g>
</g>
<!-- Node35&#45;&gt;Node35 -->
<g id="edge43_Node000035_Node000035" class="edge">
<title>Node35&#45;&gt;Node35</title>
<g id="a_edge43_Node000035_Node000035"><a xlink:title=" ">
<path fill="none" stroke="#63b8ff" d="M838.23,-250.53C835.41,-254.59 826.96,-257.5 812.88,-257.5 787.84,-257.5 780.6,-248.32 791.16,-239.75"/>
<polygon fill="#63b8ff" stroke="#63b8ff" points="841.59,-249.53 835.07,-241.18 834.96,-251.77 841.59,-249.53"/>
</a>
</g>
</g>
</g>
</svg>
