<?xml version="1.0" encoding="UTF-8" standalone="no"?>
<!DOCTYPE svg PUBLIC "-//W3C//DTD SVG 1.1//EN"
 "http://www.w3.org/Graphics/SVG/1.1/DTD/svg11.dtd">
<!-- Generated by graphviz version 12.2.1 (0)
 -->
<!-- Title: async_completion_init Pages: 1 -->
<svg width="1481pt" height="463pt"
 viewBox="0.00 0.00 1481.25 462.75" xmlns="http://www.w3.org/2000/svg" xmlns:xlink="http://www.w3.org/1999/xlink">
<g id="graph0" class="graph" transform="scale(1 1) rotate(0) translate(4 458.75)">
<title>async_completion_init</title>
<!-- Node1 -->
<g id="Node000001" class="node">
<title>Node1</title>
<g id="a_Node000001"><a xlink:title=" ">
<polygon fill="#999999" stroke="#666666" points="1473.25,-266.5 1361.25,-266.5 1361.25,-248 1473.25,-248 1473.25,-266.5"/>
<text text-anchor="middle" x="1417.25" y="-253" font-family="Helvetica,sans-Serif" font-size="10.00">async_completion_init</text>
</a>
</g>
</g>
<!-- Node2 -->
<g id="Node000002" class="node">
<title>Node2</title>
<g id="a_Node000002"><a xlink:href="a02364.html#ac7fbf1f43289d3e0e862b315f00e35e2" target="_top" xlink:title=" ">
<polygon fill="white" stroke="#666666" points="1319.25,-304.5 1215.5,-304.5 1215.5,-286 1319.25,-286 1319.25,-304.5"/>
<text text-anchor="middle" x="1267.38" y="-291" font-family="Helvetica,sans-Serif" font-size="10.00">async_condition_init</text>
</a>
</g>
</g>
<!-- Node1&#45;&gt;Node2 -->
<g id="edge1_Node000001_Node000002" class="edge">
<title>Node1&#45;&gt;Node2</title>
<g id="a_edge1_Node000001_Node000002"><a xlink:title=" ">
<path fill="none" stroke="#63b8ff" d="M1367.51,-269.78C1347.59,-274.89 1324.9,-280.72 1306.26,-285.51"/>
<polygon fill="#63b8ff" stroke="#63b8ff" points="1368.27,-273.19 1377.09,-267.31 1366.53,-266.41 1368.27,-273.19"/>
</a>
</g>
</g>
<!-- Node14 -->
<g id="Node000014" class="node">
<title>Node14</title>
<g id="a_Node000014"><a xlink:href="a02364.html#a7ab7c7fe9cb93434dde72a4e464a7e69" target="_top" xlink:title=" ">
<polygon fill="white" stroke="#666666" points="1325.25,-248.5 1209.5,-248.5 1209.5,-230 1325.25,-230 1325.25,-248.5"/>
<text text-anchor="middle" x="1267.38" y="-235" font-family="Helvetica,sans-Serif" font-size="10.00">async_semaphore_dec</text>
</a>
</g>
</g>
<!-- Node1&#45;&gt;Node14 -->
<g id="edge17_Node000001_Node000014" class="edge">
<title>Node1&#45;&gt;Node14</title>
<g id="a_edge17_Node000001_Node000014"><a xlink:title=" ">
<path fill="none" stroke="#63b8ff" d="M1349.59,-249.14C1341.6,-248.16 1333.49,-247.18 1325.65,-246.22"/>
<polygon fill="#63b8ff" stroke="#63b8ff" points="1348.91,-252.58 1359.26,-250.31 1349.76,-245.63 1348.91,-252.58"/>
</a>
</g>
</g>
<!-- Node3 -->
<g id="Node000003" class="node">
<title>Node3</title>
<g id="a_Node000003"><a xlink:href="a01916.html#a0706a66a62ca8710342ac1c097b703ed" target="_top" xlink:title=" ">
<polygon fill="white" stroke="#666666" points="410.62,-207.5 328.62,-207.5 328.62,-189 410.62,-189 410.62,-207.5"/>
<text text-anchor="middle" x="369.62" y="-194" font-family="Helvetica,sans-Serif" font-size="10.00">arax_accel_init</text>
</a>
</g>
</g>
<!-- Node2&#45;&gt;Node3 -->
<g id="edge2_Node000002_Node000003" class="edge">
<title>Node2&#45;&gt;Node3</title>
<g id="a_edge2_Node000002_Node000003"><a xlink:title=" ">
<path fill="none" stroke="#63b8ff" d="M1203.94,-288.49C1031.71,-269.84 553.22,-218.02 410.99,-202.62"/>
<polygon fill="#63b8ff" stroke="#63b8ff" points="1203.5,-291.96 1213.82,-289.56 1204.25,-285 1203.5,-291.96"/>
</a>
</g>
</g>
<!-- Node4 -->
<g id="Node000004" class="node">
<title>Node4</title>
<g id="a_Node000004"><a xlink:href="a01928.html#aa6293e9ec7776aa49ecf632fcc4f5e26" target="_top" xlink:title=" ">
<polygon fill="white" stroke="#666666" points="1004.12,-327.5 927.38,-327.5 927.38,-309 1004.12,-309 1004.12,-327.5"/>
<text text-anchor="middle" x="965.75" y="-314" font-family="Helvetica,sans-Serif" font-size="10.00">arax_pipe_init</text>
</a>
</g>
</g>
<!-- Node2&#45;&gt;Node4 -->
<g id="edge3_Node000002_Node000004" class="edge">
<title>Node2&#45;&gt;Node4</title>
<g id="a_edge3_Node000002_Node000004"><a xlink:title=" ">
<path fill="none" stroke="#63b8ff" d="M1203.94,-300.04C1143.71,-304.67 1054.51,-311.51 1004.42,-315.36"/>
<polygon fill="#63b8ff" stroke="#63b8ff" points="1204,-303.55 1213.7,-299.29 1203.46,-296.57 1204,-303.55"/>
</a>
</g>
</g>
<!-- Node13 -->
<g id="Node000013" class="node">
<title>Node13</title>
<g id="a_Node000013"><a xlink:href="a01940.html#acf84ea82594c4dbe91cf602ee078e04d" target="_top" xlink:title=" ">
<polygon fill="white" stroke="#666666" points="1163.75,-360.5 1075,-360.5 1075,-342 1163.75,-342 1163.75,-360.5"/>
<text text-anchor="middle" x="1119.38" y="-347" font-family="Helvetica,sans-Serif" font-size="10.00">arax_throttle_init</text>
</a>
</g>
</g>
<!-- Node2&#45;&gt;Node13 -->
<g id="edge14_Node000002_Node000013" class="edge">
<title>Node2&#45;&gt;Node13</title>
<g id="a_edge14_Node000002_Node000013"><a xlink:title=" ">
<path fill="none" stroke="#63b8ff" d="M1230.59,-308.98C1204.25,-319.08 1169.09,-332.57 1145.63,-341.56"/>
<polygon fill="#63b8ff" stroke="#63b8ff" points="1231.78,-312.27 1239.86,-305.42 1229.27,-305.73 1231.78,-312.27"/>
</a>
</g>
</g>
<!-- Node5 -->
<g id="Node000005" class="node">
<title>Node5</title>
<g id="a_Node000005"><a xlink:href="a01910.html#a02fd608f651d254148dc74f0ae371dfe" target="_top" xlink:title=" ">
<polygon fill="white" stroke="#666666" points="841.88,-327.5 783.12,-327.5 783.12,-309 841.88,-309 841.88,-327.5"/>
<text text-anchor="middle" x="812.5" y="-314" font-family="Helvetica,sans-Serif" font-size="10.00">_arax_init</text>
</a>
</g>
</g>
<!-- Node4&#45;&gt;Node5 -->
<g id="edge4_Node000004_Node000005" class="edge">
<title>Node4&#45;&gt;Node5</title>
<g id="a_edge4_Node000004_Node000005"><a xlink:title=" ">
<path fill="none" stroke="#63b8ff" d="M915.46,-318.25C891.24,-318.25 862.9,-318.25 842.25,-318.25"/>
<polygon fill="#63b8ff" stroke="#63b8ff" points="915.46,-321.75 925.46,-318.25 915.46,-314.75 915.46,-321.75"/>
</a>
</g>
</g>
<!-- Node6 -->
<g id="Node000006" class="node">
<title>Node6</title>
<g id="a_Node000006"><a xlink:href="a01910.html#aa6e4832b06bd5757be4502d2de7b3026" target="_top" xlink:title=" ">
<polygon fill="white" stroke="#666666" points="719.75,-332.75 621.25,-332.75 621.25,-303.75 719.75,-303.75 719.75,-332.75"/>
<text text-anchor="start" x="629.25" y="-319.25" font-family="Helvetica,sans-Serif" font-size="10.00">arax_controller_init</text>
<text text-anchor="middle" x="670.5" y="-308.75" font-family="Helvetica,sans-Serif" font-size="10.00">_start</text>
</a>
</g>
</g>
<!-- Node5&#45;&gt;Node6 -->
<g id="edge5_Node000005_Node000006" class="edge">
<title>Node5&#45;&gt;Node6</title>
<g id="a_edge5_Node000005_Node000006"><a xlink:title=" ">
<path fill="none" stroke="#63b8ff" d="M771.65,-318.25C755.56,-318.25 736.85,-318.25 719.98,-318.25"/>
<polygon fill="#63b8ff" stroke="#63b8ff" points="771.32,-321.75 781.32,-318.25 771.32,-314.75 771.32,-321.75"/>
</a>
</g>
</g>
<!-- Node7 -->
<g id="Node000007" class="node">
<title>Node7</title>
<g id="a_Node000007"><a xlink:href="a02186.html#gae1d371a2840849690acce147e7a205da" target="_top" xlink:title=" ">
<polygon fill="white" stroke="#666666" points="697.25,-407.5 643.75,-407.5 643.75,-389 697.25,-389 697.25,-407.5"/>
<text text-anchor="middle" x="670.5" y="-394" font-family="Helvetica,sans-Serif" font-size="10.00">arax_init</text>
</a>
</g>
</g>
<!-- Node5&#45;&gt;Node7 -->
<g id="edge6_Node000005_Node000007" class="edge">
<title>Node5&#45;&gt;Node7</title>
<g id="a_edge6_Node000005_Node000007"><a xlink:title=" ">
<path fill="none" stroke="#63b8ff" d="M784.94,-333.43C756.56,-349.64 712.45,-374.85 688.45,-388.57"/>
<polygon fill="#63b8ff" stroke="#63b8ff" points="786.35,-336.65 793.3,-328.65 782.88,-330.57 786.35,-336.65"/>
</a>
</g>
</g>
<!-- Node8 -->
<g id="Node000008" class="node">
<title>Node8</title>
<g id="a_Node000008"><a xlink:href="a01946.html#a8a99bcb12e2ee55d68a029bfca9b6d51" target="_top" xlink:title=" ">
<polygon fill="white" stroke="#666666" points="416.62,-454.75 322.62,-454.75 322.62,-425.75 416.62,-425.75 416.62,-454.75"/>
<text text-anchor="start" x="330.62" y="-441.25" font-family="Helvetica,sans-Serif" font-size="10.00">arax_plot_register</text>
<text text-anchor="middle" x="369.62" y="-430.75" font-family="Helvetica,sans-Serif" font-size="10.00">_metric</text>
</a>
</g>
</g>
<!-- Node7&#45;&gt;Node8 -->
<g id="edge7_Node000007_Node000008" class="edge">
<title>Node7&#45;&gt;Node8</title>
<g id="a_edge7_Node000007_Node000008"><a xlink:title=" ">
<path fill="none" stroke="#63b8ff" d="M632.09,-406.74C616.71,-410.03 598.68,-413.63 582.25,-416.25 525.65,-425.28 460.01,-432.17 417.03,-436.21"/>
<polygon fill="#63b8ff" stroke="#63b8ff" points="632.76,-410.18 641.79,-404.63 631.27,-403.34 632.76,-410.18"/>
</a>
</g>
</g>
<!-- Node9 -->
<g id="Node000009" class="node">
<title>Node9</title>
<g id="a_Node000009"><a xlink:href="a01934.html#a80ab3bf4a8af9bb101b5a53248609771" target="_top" xlink:title=" ">
<polygon fill="white" stroke="#666666" points="563.88,-407.5 487.12,-407.5 487.12,-389 563.88,-389 563.88,-407.5"/>
<text text-anchor="middle" x="525.5" y="-394" font-family="Helvetica,sans-Serif" font-size="10.00">arax_ptr_valid</text>
</a>
</g>
</g>
<!-- Node7&#45;&gt;Node9 -->
<g id="edge8_Node000007_Node000009" class="edge">
<title>Node7&#45;&gt;Node9</title>
<g id="a_edge8_Node000007_Node000009"><a xlink:title=" ">
<path fill="none" stroke="#63b8ff" d="M631.93,-398.25C611.02,-398.25 585.07,-398.25 564.14,-398.25"/>
<polygon fill="#63b8ff" stroke="#63b8ff" points="631.76,-401.75 641.76,-398.25 631.76,-394.75 631.76,-401.75"/>
</a>
</g>
</g>
<!-- Node9&#45;&gt;Node8 -->
<g id="edge13_Node000009_Node000008" class="edge">
<title>Node9&#45;&gt;Node8</title>
<g id="a_edge13_Node000009_Node000008"><a xlink:title=" ">
<path fill="none" stroke="#63b8ff" d="M477.84,-410.99C458.53,-416.26 436.19,-422.35 416.92,-427.61"/>
<polygon fill="#63b8ff" stroke="#63b8ff" points="478.63,-414.4 487.35,-408.39 476.78,-407.65 478.63,-414.4"/>
</a>
</g>
</g>
<!-- Node10 -->
<g id="Node000010" class="node">
<title>Node10</title>
<g id="a_Node000010"><a xlink:href="a01967.html#a4ee1fea325d2edd421f59ab240dfbe54" target="_top" xlink:title=" ">
<polygon fill="white" stroke="#666666" points="415.5,-333.5 323.75,-333.5 323.75,-315 415.5,-315 415.5,-333.5"/>
<text text-anchor="middle" x="369.62" y="-320" font-family="Helvetica,sans-Serif" font-size="10.00">_arax_assert_obj</text>
</a>
</g>
</g>
<!-- Node9&#45;&gt;Node10 -->
<g id="edge9_Node000009_Node000010" class="edge">
<title>Node9&#45;&gt;Node10</title>
<g id="a_edge9_Node000009_Node000010"><a xlink:title=" ">
<path fill="none" stroke="#63b8ff" d="M486.69,-384.28C480.56,-381.55 474.38,-378.52 468.75,-375.25 451.22,-365.07 450.46,-357.11 432.75,-347.25 423.3,-341.99 412.42,-337.5 402.42,-333.91"/>
<polygon fill="#63b8ff" stroke="#63b8ff" points="484.89,-387.32 495.46,-387.97 487.6,-380.87 484.89,-387.32"/>
</a>
</g>
</g>
<!-- Node11 -->
<g id="Node000011" class="node">
<title>Node11</title>
<g id="a_Node000011"><a xlink:href="a01922.html#afeaab7d93372f0752d59c70d9c5940e7" target="_top" xlink:title=" ">
<polygon fill="white" stroke="#666666" points="407.62,-407.5 331.62,-407.5 331.62,-389 407.62,-389 407.62,-407.5"/>
<text text-anchor="middle" x="369.62" y="-394" font-family="Helvetica,sans-Serif" font-size="10.00">arax_data_ref</text>
</a>
</g>
</g>
<!-- Node9&#45;&gt;Node11 -->
<g id="edge10_Node000009_Node000011" class="edge">
<title>Node9&#45;&gt;Node11</title>
<g id="a_edge10_Node000009_Node000011"><a xlink:title=" ">
<path fill="none" stroke="#63b8ff" d="M475.44,-398.25C453.55,-398.25 428.18,-398.25 407.88,-398.25"/>
<polygon fill="#63b8ff" stroke="#63b8ff" points="475.34,-401.75 485.34,-398.25 475.34,-394.75 475.34,-401.75"/>
</a>
</g>
</g>
<!-- Node12 -->
<g id="Node000012" class="node">
<title>Node12</title>
<g id="a_Node000012"><a xlink:href="a01922.html#ac1f7fb20b3a23b388bea24f1b46a33a8" target="_top" xlink:title=" ">
<polygon fill="white" stroke="#666666" points="257,-388.5 151.75,-388.5 151.75,-370 257,-370 257,-388.5"/>
<text text-anchor="middle" x="204.38" y="-375" font-family="Helvetica,sans-Serif" font-size="10.00">arax_data_ref_offset</text>
</a>
</g>
</g>
<!-- Node9&#45;&gt;Node12 -->
<g id="edge12_Node000009_Node000012" class="edge">
<title>Node9&#45;&gt;Node12</title>
<g id="a_edge12_Node000009_Node000012"><a xlink:title=" ">
<path fill="none" stroke="#63b8ff" d="M475.58,-386.87C461.8,-384.16 446.76,-381.64 432.75,-380.25 372.85,-374.3 303.62,-375.08 257.45,-376.69"/>
<polygon fill="#63b8ff" stroke="#63b8ff" points="474.81,-390.29 485.31,-388.88 476.22,-383.43 474.81,-390.29"/>
</a>
</g>
</g>
<!-- Node11&#45;&gt;Node12 -->
<g id="edge11_Node000011_Node000012" class="edge">
<title>Node11&#45;&gt;Node12</title>
<g id="a_edge11_Node000011_Node000012"><a xlink:title=" ">
<path fill="none" stroke="#63b8ff" d="M319.98,-392.59C300.29,-390.3 277.53,-387.65 257.5,-385.32"/>
<polygon fill="#63b8ff" stroke="#63b8ff" points="319.33,-396.04 329.67,-393.72 320.14,-389.08 319.33,-396.04"/>
</a>
</g>
</g>
<!-- Node13&#45;&gt;Node3 -->
<g id="edge15_Node000013_Node000003" class="edge">
<title>Node13&#45;&gt;Node3</title>
<g id="a_edge15_Node000013_Node000003"><a xlink:title=" ">
<path fill="none" stroke="#63b8ff" d="M1063.44,-354.14C1002.41,-357.09 900.94,-361.25 813.5,-361.25 813.5,-361.25 813.5,-361.25 669.5,-361.25 574.71,-361.25 549.75,-338.47 468.75,-289.25 430.43,-265.96 394.12,-226.07 378.57,-207.84"/>
<polygon fill="#63b8ff" stroke="#63b8ff" points="1063.39,-357.64 1073.21,-353.66 1063.05,-350.65 1063.39,-357.64"/>
</a>
</g>
</g>
<!-- Node13&#45;&gt;Node4 -->
<g id="edge16_Node000013_Node000004" class="edge">
<title>Node13&#45;&gt;Node4</title>
<g id="a_edge16_Node000013_Node000004"><a xlink:title=" ">
<path fill="none" stroke="#63b8ff" d="M1063.31,-339.27C1043.82,-335.02 1022.34,-330.35 1004.59,-326.49"/>
<polygon fill="#63b8ff" stroke="#63b8ff" points="1062.52,-342.68 1073.04,-341.38 1064.01,-335.84 1062.52,-342.68"/>
</a>
</g>
</g>
<!-- Node15 -->
<g id="Node000015" class="node">
<title>Node15</title>
<g id="a_Node000015"><a xlink:href="a02364.html#a1bfeaeb9b81855e640d7a67cc9d92b17" target="_top" xlink:title=" ">
<polygon fill="white" stroke="#666666" points="1173.5,-210.5 1065.25,-210.5 1065.25,-192 1173.5,-192 1173.5,-210.5"/>
<text text-anchor="middle" x="1119.38" y="-197" font-family="Helvetica,sans-Serif" font-size="10.00">async_condition_wait</text>
</a>
</g>
</g>
<!-- Node14&#45;&gt;Node15 -->
<g id="edge18_Node000014_Node000015" class="edge">
<title>Node14&#45;&gt;Node15</title>
<g id="a_edge18_Node000014_Node000015"><a xlink:title=" ">
<path fill="none" stroke="#63b8ff" d="M1218.25,-226.72C1198.58,-221.61 1176.18,-215.78 1157.78,-210.99"/>
<polygon fill="#63b8ff" stroke="#63b8ff" points="1217.13,-230.05 1227.69,-229.18 1218.89,-223.28 1217.13,-230.05"/>
</a>
</g>
</g>
<!-- Node15&#45;&gt;Node5 -->
<g id="edge19_Node000015_Node000005" class="edge">
<title>Node15&#45;&gt;Node5</title>
<g id="a_edge19_Node000015_Node000005"><a xlink:title=" ">
<path fill="none" stroke="#63b8ff" d="M1082.66,-214.96C1020.25,-238.91 892.87,-287.79 838.74,-308.56"/>
<polygon fill="#63b8ff" stroke="#63b8ff" points="1083.67,-218.32 1091.75,-211.47 1081.16,-211.78 1083.67,-218.32"/>
</a>
</g>
</g>
<!-- Node16 -->
<g id="Node000016" class="node">
<title>Node16</title>
<g id="a_Node000016"><a xlink:href="a01916.html#a415e79d6e82e45f24bcd1742c146a0da" target="_top" xlink:title=" ">
<polygon fill="white" stroke="#666666" points="1029.25,-210.5 902.25,-210.5 902.25,-192 1029.25,-192 1029.25,-210.5"/>
<text text-anchor="middle" x="965.75" y="-197" font-family="Helvetica,sans-Serif" font-size="10.00">arax_accel_wait_for_task</text>
</a>
</g>
</g>
<!-- Node15&#45;&gt;Node16 -->
<g id="edge20_Node000015_Node000016" class="edge">
<title>Node15&#45;&gt;Node16</title>
<g id="a_edge20_Node000015_Node000016"><a xlink:title=" ">
<path fill="none" stroke="#63b8ff" d="M1053.47,-201.25C1045.55,-201.25 1037.47,-201.25 1029.58,-201.25"/>
<polygon fill="#63b8ff" stroke="#63b8ff" points="1053.4,-204.75 1063.4,-201.25 1053.4,-197.75 1053.4,-204.75"/>
</a>
</g>
</g>
<!-- Node17 -->
<g id="Node000017" class="node">
<title>Node17</title>
<g id="a_Node000017"><a xlink:href="a01928.html#a8ff14a859f9b7a34676c2fcdb762386b" target="_top" xlink:title=" ">
<polygon fill="white" stroke="#666666" points="1022.12,-173.75 909.38,-173.75 909.38,-144.75 1022.12,-144.75 1022.12,-173.75"/>
<text text-anchor="start" x="917.38" y="-160.25" font-family="Helvetica,sans-Serif" font-size="10.00">arax_pipe_get_orphan</text>
<text text-anchor="middle" x="965.75" y="-149.75" font-family="Helvetica,sans-Serif" font-size="10.00">_vaccel</text>
</a>
</g>
</g>
<!-- Node15&#45;&gt;Node17 -->
<g id="edge21_Node000015_Node000017" class="edge">
<title>Node15&#45;&gt;Node17</title>
<g id="a_edge21_Node000015_Node000017"><a xlink:title=" ">
<path fill="none" stroke="#63b8ff" d="M1072.34,-188.5C1056.06,-183.99 1037.61,-178.88 1020.74,-174.21"/>
<polygon fill="#63b8ff" stroke="#63b8ff" points="1071.18,-191.81 1081.75,-191.1 1073.05,-185.06 1071.18,-191.81"/>
</a>
</g>
</g>
<!-- Node18 -->
<g id="Node000018" class="node">
<title>Node18</title>
<g id="a_Node000018"><a xlink:href="a01940.html#a63b80783cfb3106ec4169ce082f153c0" target="_top" xlink:title=" ">
<polygon fill="white" stroke="#666666" points="1022.88,-108.5 908.62,-108.5 908.62,-90 1022.88,-90 1022.88,-108.5"/>
<text text-anchor="middle" x="965.75" y="-95" font-family="Helvetica,sans-Serif" font-size="10.00">arax_throttle_size_dec</text>
</a>
</g>
</g>
<!-- Node15&#45;&gt;Node18 -->
<g id="edge22_Node000015_Node000018" class="edge">
<title>Node15&#45;&gt;Node18</title>
<g id="a_edge22_Node000015_Node000018"><a xlink:title=" ">
<path fill="none" stroke="#63b8ff" d="M1097.38,-184.63C1079.62,-170.84 1053.3,-151.01 1029.25,-135.25 1014.69,-125.71 997.52,-115.92 984.86,-108.96"/>
<polygon fill="#63b8ff" stroke="#63b8ff" points="1095.07,-187.27 1105.1,-190.68 1099.38,-181.76 1095.07,-187.27"/>
</a>
</g>
</g>
<!-- Node18&#45;&gt;Node18 -->
<g id="edge48_Node000018_Node000018" class="edge">
<title>Node18&#45;&gt;Node18</title>
<g id="a_edge48_Node000018_Node000018"><a xlink:title=" ">
<path fill="none" stroke="#63b8ff" d="M993.33,-119.53C990.27,-123.59 981.07,-126.5 965.75,-126.5 938.51,-126.5 930.64,-117.32 942.13,-108.75"/>
<polygon fill="#63b8ff" stroke="#63b8ff" points="996.63,-118.35 989.89,-110.17 990.06,-120.76 996.63,-118.35"/>
</a>
</g>
</g>
<!-- Node19 -->
<g id="Node000019" class="node">
<title>Node19</title>
<g id="a_Node000019"><a xlink:href="a01916.html#a9c8e53aad4b86498a6b709c35c156fc3" target="_top" xlink:title=" ">
<polygon fill="white" stroke="#666666" points="866.25,-203.5 758.75,-203.5 758.75,-185 866.25,-185 866.25,-203.5"/>
<text text-anchor="middle" x="812.5" y="-190" font-family="Helvetica,sans-Serif" font-size="10.00">arax_accel_size_dec</text>
</a>
</g>
</g>
<!-- Node18&#45;&gt;Node19 -->
<g id="edge23_Node000018_Node000019" class="edge">
<title>Node18&#45;&gt;Node19</title>
<g id="a_edge23_Node000018_Node000019"><a xlink:title=" ">
<path fill="none" stroke="#63b8ff" d="M937.41,-114.49C926.39,-120.77 913.62,-128.2 902.25,-135.25 875.35,-151.91 844.79,-172.64 827.46,-184.57"/>
<polygon fill="#63b8ff" stroke="#63b8ff" points="939.03,-117.6 946.01,-109.63 935.58,-111.51 939.03,-117.6"/>
</a>
</g>
</g>
<!-- Node21 -->
<g id="Node000021" class="node">
<title>Node21</title>
<g id="a_Node000021"><a xlink:href="a01928.html#a6cc54ee40009c61b5f6526f5edff004f" target="_top" xlink:title=" ">
<polygon fill="white" stroke="#666666" points="863.62,-121.5 761.38,-121.5 761.38,-103 863.62,-103 863.62,-121.5"/>
<text text-anchor="middle" x="812.5" y="-108" font-family="Helvetica,sans-Serif" font-size="10.00">arax_pipe_size_dec</text>
</a>
</g>
</g>
<!-- Node18&#45;&gt;Node21 -->
<g id="edge26_Node000018_Node000021" class="edge">
<title>Node18&#45;&gt;Node21</title>
<g id="a_edge26_Node000018_Node000021"><a xlink:title=" ">
<path fill="none" stroke="#63b8ff" d="M896.96,-105.08C885.84,-106.03 874.49,-107.01 863.88,-107.92"/>
<polygon fill="#63b8ff" stroke="#63b8ff" points="897.26,-108.56 906.92,-104.22 896.66,-101.59 897.26,-108.56"/>
</a>
</g>
</g>
<!-- Node19&#45;&gt;Node19 -->
<g id="edge24_Node000019_Node000019" class="edge">
<title>Node19&#45;&gt;Node19</title>
<g id="a_edge24_Node000019_Node000019"><a xlink:title=" ">
<path fill="none" stroke="#63b8ff" d="M838.06,-214.53C835.22,-218.59 826.7,-221.5 812.5,-221.5 787.26,-221.5 779.97,-212.32 790.61,-203.75"/>
<polygon fill="#63b8ff" stroke="#63b8ff" points="841.41,-213.52 834.87,-205.18 834.78,-215.77 841.41,-213.52"/>
</a>
</g>
</g>
<!-- Node20 -->
<g id="Node000020" class="node">
<title>Node20</title>
<g id="a_Node000020"><a xlink:href="a01922.html#af8ede6fc8d207004035f45d945688d2c" target="_top" xlink:title=" ">
<polygon fill="white" stroke="#666666" points="253.62,-250.75 155.12,-250.75 155.12,-221.75 253.62,-221.75 253.62,-250.75"/>
<text text-anchor="start" x="163.12" y="-237.25" font-family="Helvetica,sans-Serif" font-size="10.00">arax_data_allocate</text>
<text text-anchor="middle" x="204.38" y="-226.75" font-family="Helvetica,sans-Serif" font-size="10.00">_remote</text>
</a>
</g>
</g>
<!-- Node19&#45;&gt;Node20 -->
<g id="edge25_Node000019_Node000020" class="edge">
<title>Node19&#45;&gt;Node20</title>
<g id="a_edge25_Node000019_Node000020"><a xlink:title=" ">
<path fill="none" stroke="#63b8ff" d="M747.15,-198.71C625.17,-207.16 362.82,-225.34 254.1,-232.87"/>
<polygon fill="#63b8ff" stroke="#63b8ff" points="747.26,-202.21 757,-198.03 746.78,-195.23 747.26,-202.21"/>
</a>
</g>
</g>
<!-- Node21&#45;&gt;Node21 -->
<g id="edge47_Node000021_Node000021" class="edge">
<title>Node21&#45;&gt;Node21</title>
<g id="a_edge47_Node000021_Node000021"><a xlink:title=" ">
<path fill="none" stroke="#63b8ff" d="M838.06,-132.53C835.22,-136.59 826.7,-139.5 812.5,-139.5 787.26,-139.5 779.97,-130.32 790.61,-121.75"/>
<polygon fill="#63b8ff" stroke="#63b8ff" points="841.41,-131.52 834.87,-123.18 834.78,-133.77 841.41,-131.52"/>
</a>
</g>
</g>
<!-- Node22 -->
<g id="Node000022" class="node">
<title>Node22</title>
<g id="a_Node000022"><a xlink:href="a01925.html#a402bbd6fa197c2c48d527325e5e2cf5b" target="_top" xlink:title=" ">
<polygon fill="white" stroke="#666666" points="722.75,-128.5 618.25,-128.5 618.25,-110 722.75,-110 722.75,-128.5"/>
<text text-anchor="middle" x="670.5" y="-115" font-family="Helvetica,sans-Serif" font-size="10.00">arax_object_register</text>
</a>
</g>
</g>
<!-- Node21&#45;&gt;Node22 -->
<g id="edge27_Node000021_Node000022" class="edge">
<title>Node21&#45;&gt;Node22</title>
<g id="a_edge27_Node000021_Node000022"><a xlink:title=" ">
<path fill="none" stroke="#63b8ff" d="M749.75,-115.34C740.78,-115.79 731.64,-116.24 722.91,-116.68"/>
<polygon fill="#63b8ff" stroke="#63b8ff" points="749.63,-118.85 759.45,-114.85 749.28,-111.86 749.63,-118.85"/>
</a>
</g>
</g>
<!-- Node22&#45;&gt;Node3 -->
<g id="edge28_Node000022_Node000003" class="edge">
<title>Node22&#45;&gt;Node3</title>
<g id="a_edge28_Node000022_Node000003"><a xlink:title=" ">
<path fill="none" stroke="#63b8ff" d="M649.41,-136.02C632.59,-149.06 607.36,-166.38 582.25,-175.25 525.1,-195.43 454.32,-199.19 410.83,-199.29"/>
<polygon fill="#63b8ff" stroke="#63b8ff" points="651.48,-138.85 657.1,-129.87 647.1,-133.38 651.48,-138.85"/>
</a>
</g>
</g>
<!-- Node23 -->
<g id="Node000023" class="node">
<title>Node23</title>
<g id="a_Node000023"><a xlink:href="a01922.html#a526989df37e605824d846b7ba54b43ea" target="_top" xlink:title=" ">
<polygon fill="white" stroke="#666666" points="582.25,-129.5 468.75,-129.5 468.75,-111 582.25,-111 582.25,-129.5"/>
<text text-anchor="middle" x="525.5" y="-116" font-family="Helvetica,sans-Serif" font-size="10.00">arax_data_init_aligned</text>
</a>
</g>
</g>
<!-- Node22&#45;&gt;Node23 -->
<g id="edge29_Node000022_Node000023" class="edge">
<title>Node22&#45;&gt;Node23</title>
<g id="a_edge29_Node000022_Node000023"><a xlink:title=" ">
<path fill="none" stroke="#63b8ff" d="M606.62,-119.69C598.55,-119.75 590.34,-119.8 582.4,-119.86"/>
<polygon fill="#63b8ff" stroke="#63b8ff" points="606.38,-123.19 616.36,-119.62 606.34,-116.19 606.38,-123.19"/>
</a>
</g>
</g>
<!-- Node26 -->
<g id="Node000026" class="node">
<title>Node26</title>
<g id="a_Node000026"><a xlink:href="a01931.html#a86ac572ea8f5f613129192c47d598818" target="_top" xlink:title=" ">
<polygon fill="white" stroke="#666666" points="564.25,-37.5 486.75,-37.5 486.75,-19 564.25,-19 564.25,-37.5"/>
<text text-anchor="middle" x="525.5" y="-24" font-family="Helvetica,sans-Serif" font-size="10.00">arax_proc_init</text>
</a>
</g>
</g>
<!-- Node22&#45;&gt;Node26 -->
<g id="edge32_Node000022_Node000026" class="edge">
<title>Node22&#45;&gt;Node26</title>
<g id="a_edge32_Node000022_Node000026"><a xlink:title=" ">
<path fill="none" stroke="#63b8ff" d="M644.56,-103.38C614.87,-84.49 566.24,-53.54 541.69,-37.92"/>
<polygon fill="#63b8ff" stroke="#63b8ff" points="642.6,-106.28 652.92,-108.7 646.36,-100.38 642.6,-106.28"/>
</a>
</g>
</g>
<!-- Node28 -->
<g id="Node000028" class="node">
<title>Node28</title>
<g id="a_Node000028"><a xlink:href="a01937.html#a27bee94f7a23281c8b2b72ec433f6059" target="_top" xlink:title=" ">
<polygon fill="white" stroke="#666666" points="568,-166.5 483,-166.5 483,-148 568,-148 568,-166.5"/>
<text text-anchor="middle" x="525.5" y="-153" font-family="Helvetica,sans-Serif" font-size="10.00">arax_task_alloc</text>
</a>
</g>
</g>
<!-- Node22&#45;&gt;Node28 -->
<g id="edge34_Node000022_Node000028" class="edge">
<title>Node22&#45;&gt;Node28</title>
<g id="a_edge34_Node000022_Node000028"><a xlink:title=" ">
<path fill="none" stroke="#63b8ff" d="M622.05,-131.86C602.78,-136.98 580.86,-142.8 562.89,-147.58"/>
<polygon fill="#63b8ff" stroke="#63b8ff" points="622.82,-135.28 631.58,-129.33 621.02,-128.51 622.82,-135.28"/>
</a>
</g>
</g>
<!-- Node35 -->
<g id="Node000035" class="node">
<title>Node35</title>
<g id="a_Node000035"><a xlink:href="a01943.html#a83ddb422946cf774c687c1ab63dcda15" target="_top" xlink:title=" ">
<polygon fill="white" stroke="#666666" points="568.75,-92.5 482.25,-92.5 482.25,-74 568.75,-74 568.75,-92.5"/>
<text text-anchor="middle" x="525.5" y="-79" font-family="Helvetica,sans-Serif" font-size="10.00">arax_vaccel_init</text>
</a>
</g>
</g>
<!-- Node22&#45;&gt;Node35 -->
<g id="edge43_Node000022_Node000035" class="edge">
<title>Node22&#45;&gt;Node35</title>
<g id="a_edge43_Node000022_Node000035"><a xlink:title=" ">
<path fill="none" stroke="#63b8ff" d="M619.7,-106.71C601.85,-102.22 582,-97.22 565.23,-93"/>
<polygon fill="#63b8ff" stroke="#63b8ff" points="618.78,-110.09 629.33,-109.14 620.49,-103.3 618.78,-110.09"/>
</a>
</g>
</g>
<!-- Node24 -->
<g id="Node000024" class="node">
<title>Node24</title>
<g id="a_Node000024"><a xlink:href="a01922.html#aeefe449d4a278e9fc4b9c5f7e31000a1" target="_top" xlink:title=" ">
<polygon fill="white" stroke="#666666" points="408.38,-129.5 330.88,-129.5 330.88,-111 408.38,-111 408.38,-129.5"/>
<text text-anchor="middle" x="369.62" y="-116" font-family="Helvetica,sans-Serif" font-size="10.00">arax_data_init</text>
</a>
</g>
</g>
<!-- Node23&#45;&gt;Node24 -->
<g id="edge30_Node000023_Node000024" class="edge">
<title>Node23&#45;&gt;Node24</title>
<g id="a_edge30_Node000023_Node000024"><a xlink:title=" ">
<path fill="none" stroke="#63b8ff" d="M457.12,-120.25C440.48,-120.25 423.22,-120.25 408.54,-120.25"/>
<polygon fill="#63b8ff" stroke="#63b8ff" points="457,-123.75 467,-120.25 457,-116.75 457,-123.75"/>
</a>
</g>
</g>
<!-- Node25 -->
<g id="Node000025" class="node">
<title>Node25</title>
<g id="a_Node000025"><a xlink:href="a02190.html#ga9260ad2dd766aec3274c518e2e312b1f" target="_top" xlink:title=" ">
<polygon fill="white" stroke="#666666" points="249.12,-55.5 159.62,-55.5 159.62,-37 249.12,-37 249.12,-55.5"/>
<text text-anchor="middle" x="204.38" y="-42" font-family="Helvetica,sans-Serif" font-size="10.00">ARAX_BUFFER</text>
</a>
</g>
</g>
<!-- Node24&#45;&gt;Node25 -->
<g id="edge31_Node000024_Node000025" class="edge">
<title>Node24&#45;&gt;Node25</title>
<g id="a_edge31_Node000024_Node000025"><a xlink:title=" ">
<path fill="none" stroke="#63b8ff" d="M320.11,-107.99C315.37,-106.04 310.75,-103.8 306.5,-101.25 287.11,-89.6 289.97,-76.78 270.5,-65.25 264.01,-61.41 256.7,-58.3 249.38,-55.8"/>
<polygon fill="#63b8ff" stroke="#63b8ff" points="318.56,-111.15 329.15,-111.31 320.97,-104.58 318.56,-111.15"/>
</a>
</g>
</g>
<!-- Node27 -->
<g id="Node000027" class="node">
<title>Node27</title>
<g id="a_Node000027"><a xlink:href="a02188.html#gafad2dafb4a231390f02b7c866295b7d9" target="_top" xlink:title=" ">
<polygon fill="white" stroke="#666666" points="418.12,-18.5 321.12,-18.5 321.12,0 418.12,0 418.12,-18.5"/>
<text text-anchor="middle" x="369.62" y="-5" font-family="Helvetica,sans-Serif" font-size="10.00">arax_proc_register</text>
</a>
</g>
</g>
<!-- Node26&#45;&gt;Node27 -->
<g id="edge33_Node000026_Node000027" class="edge">
<title>Node26&#45;&gt;Node27</title>
<g id="a_edge33_Node000026_Node000027"><a xlink:title=" ">
<path fill="none" stroke="#63b8ff" d="M475.2,-22.16C457.02,-19.92 436.47,-17.38 418.42,-15.15"/>
<polygon fill="#63b8ff" stroke="#63b8ff" points="474.61,-25.62 484.96,-23.37 475.47,-18.67 474.61,-25.62"/>
</a>
</g>
</g>
<!-- Node29 -->
<g id="Node000029" class="node">
<title>Node29</title>
<g id="a_Node000029"><a xlink:href="a02189.html#gac9f0f3fbb14da879d3ff09bd367bbb24" target="_top" xlink:title=" ">
<polygon fill="white" stroke="#666666" points="413.62,-166.5 325.62,-166.5 325.62,-148 413.62,-148 413.62,-166.5"/>
<text text-anchor="middle" x="369.62" y="-153" font-family="Helvetica,sans-Serif" font-size="10.00">arax_task_issue</text>
</a>
</g>
</g>
<!-- Node28&#45;&gt;Node29 -->
<g id="edge35_Node000028_Node000029" class="edge">
<title>Node28&#45;&gt;Node29</title>
<g id="a_edge35_Node000028_Node000029"><a xlink:title=" ">
<path fill="none" stroke="#63b8ff" d="M471.48,-157.25C452.69,-157.25 431.79,-157.25 413.91,-157.25"/>
<polygon fill="#63b8ff" stroke="#63b8ff" points="471.35,-160.75 481.35,-157.25 471.35,-153.75 471.35,-160.75"/>
</a>
</g>
</g>
<!-- Node29&#45;&gt;Node20 -->
<g id="edge36_Node000029_Node000020" class="edge">
<title>Node29&#45;&gt;Node20</title>
<g id="a_edge36_Node000029_Node000020"><a xlink:title=" ">
<path fill="none" stroke="#63b8ff" d="M324.98,-171.04C318.6,-173.73 312.25,-176.8 306.5,-180.25 288.15,-191.27 288.86,-201.25 270.5,-212.25 264.92,-215.59 258.79,-218.6 252.6,-221.25"/>
<polygon fill="#63b8ff" stroke="#63b8ff" points="326.19,-174.33 334.24,-167.43 323.65,-167.8 326.19,-174.33"/>
</a>
</g>
</g>
<!-- Node30 -->
<g id="Node000030" class="node">
<title>Node30</title>
<g id="a_Node000030"><a xlink:href="a01922.html#a696bc4319d0f6c6baa7d797a8df6b56f" target="_top" xlink:title=" ">
<polygon fill="white" stroke="#666666" points="243.5,-92.5 165.25,-92.5 165.25,-74 243.5,-74 243.5,-92.5"/>
<text text-anchor="middle" x="204.38" y="-79" font-family="Helvetica,sans-Serif" font-size="10.00">arax_data_get</text>
</a>
</g>
</g>
<!-- Node29&#45;&gt;Node30 -->
<g id="edge37_Node000029_Node000030" class="edge">
<title>Node29&#45;&gt;Node30</title>
<g id="a_edge37_Node000029_Node000030"><a xlink:title=" ">
<path fill="none" stroke="#63b8ff" d="M316.43,-143.41C312.99,-141.85 309.64,-140.14 306.5,-138.25 287.11,-126.6 289.97,-113.78 270.5,-102.25 262.39,-97.45 252.99,-93.79 243.9,-91.04"/>
<polygon fill="#63b8ff" stroke="#63b8ff" points="314.98,-146.6 325.57,-147.05 317.58,-140.1 314.98,-146.6"/>
</a>
</g>
</g>
<!-- Node32 -->
<g id="Node000032" class="node">
<title>Node32</title>
<g id="a_Node000032"><a xlink:href="a01922.html#a8995f71dba475975efc37756783cfce9" target="_top" xlink:title=" ">
<polygon fill="white" stroke="#666666" points="243.5,-129.5 165.25,-129.5 165.25,-111 243.5,-111 243.5,-129.5"/>
<text text-anchor="middle" x="204.38" y="-116" font-family="Helvetica,sans-Serif" font-size="10.00">arax_data_set</text>
</a>
</g>
</g>
<!-- Node29&#45;&gt;Node32 -->
<g id="edge39_Node000029_Node000032" class="edge">
<title>Node29&#45;&gt;Node32</title>
<g id="a_edge39_Node000029_Node000032"><a xlink:title=" ">
<path fill="none" stroke="#63b8ff" d="M314.66,-145.02C291.49,-139.77 264.93,-133.75 243.8,-128.96"/>
<polygon fill="#63b8ff" stroke="#63b8ff" points="313.73,-148.4 324.26,-147.19 315.28,-141.57 313.73,-148.4"/>
</a>
</g>
</g>
<!-- Node33 -->
<g id="Node000033" class="node">
<title>Node33</title>
<g id="a_Node000033"><a xlink:href="a01922.html#af735744d0f8bec04394639a841d2ba0f" target="_top" xlink:title=" ">
<polygon fill="white" stroke="#666666" points="270.5,-203.5 138.25,-203.5 138.25,-185 270.5,-185 270.5,-203.5"/>
<text text-anchor="middle" x="204.38" y="-190" font-family="Helvetica,sans-Serif" font-size="10.00">ARAX_OBJ_DTOR_DECL</text>
</a>
</g>
</g>
<!-- Node29&#45;&gt;Node33 -->
<g id="edge41_Node000029_Node000033" class="edge">
<title>Node29&#45;&gt;Node33</title>
<g id="a_edge41_Node000029_Node000033"><a xlink:title=" ">
<path fill="none" stroke="#63b8ff" d="M314.75,-169.46C293.15,-174.36 268.62,-179.92 248.26,-184.53"/>
<polygon fill="#63b8ff" stroke="#63b8ff" points="315.28,-172.93 324.26,-167.31 313.73,-166.1 315.28,-172.93"/>
</a>
</g>
</g>
<!-- Node34 -->
<g id="Node000034" class="node">
<title>Node34</title>
<g id="a_Node000034"><a xlink:href="a02189.html#ga1418f4cd7336bf77cce7b955a1bf7077" target="_top" xlink:title=" ">
<polygon fill="white" stroke="#666666" points="261.12,-166.5 147.62,-166.5 147.62,-148 261.12,-148 261.12,-166.5"/>
<text text-anchor="middle" x="204.38" y="-153" font-family="Helvetica,sans-Serif" font-size="10.00">arax_task_issue_sync</text>
</a>
</g>
</g>
<!-- Node29&#45;&gt;Node34 -->
<g id="edge42_Node000029_Node000034" class="edge">
<title>Node29&#45;&gt;Node34</title>
<g id="a_edge42_Node000029_Node000034"><a xlink:title=" ">
<path fill="none" stroke="#63b8ff" d="M313.95,-157.25C297.08,-157.25 278.49,-157.25 261.53,-157.25"/>
<polygon fill="#63b8ff" stroke="#63b8ff" points="313.79,-160.75 323.79,-157.25 313.79,-153.75 313.79,-160.75"/>
</a>
</g>
</g>
<!-- Node31 -->
<g id="Node000031" class="node">
<title>Node31</title>
<g id="a_Node000031"><a xlink:href="a01922.html#a7d8356bd5c8b6a8d7dffc6ba94cc22e5" target="_top" xlink:title=" ">
<polygon fill="white" stroke="#666666" points="102.25,-110.5 0,-110.5 0,-92 102.25,-92 102.25,-110.5"/>
<text text-anchor="middle" x="51.12" y="-97" font-family="Helvetica,sans-Serif" font-size="10.00">arax_data_memcpy</text>
</a>
</g>
</g>
<!-- Node30&#45;&gt;Node31 -->
<g id="edge38_Node000030_Node000031" class="edge">
<title>Node30&#45;&gt;Node31</title>
<g id="a_edge38_Node000030_Node000031"><a xlink:title=" ">
<path fill="none" stroke="#63b8ff" d="M153.79,-89.15C137.38,-91.1 119.1,-93.28 102.61,-95.24"/>
<polygon fill="#63b8ff" stroke="#63b8ff" points="153.8,-92.67 163.31,-88.02 152.97,-85.72 153.8,-92.67"/>
</a>
</g>
</g>
<!-- Node32&#45;&gt;Node31 -->
<g id="edge40_Node000032_Node000031" class="edge">
<title>Node32&#45;&gt;Node31</title>
<g id="a_edge40_Node000032_Node000031"><a xlink:title=" ">
<path fill="none" stroke="#63b8ff" d="M153.79,-114.02C137.38,-111.96 119.1,-109.66 102.61,-107.59"/>
<polygon fill="#63b8ff" stroke="#63b8ff" points="152.96,-117.44 163.32,-115.22 153.83,-110.5 152.96,-117.44"/>
</a>
</g>
</g>
<!-- Node35&#45;&gt;Node3 -->
<g id="edge46_Node000035_Node000003" class="edge">
<title>Node35&#45;&gt;Node3</title>
<g id="a_edge46_Node000035_Node000003"><a xlink:title=" ">
<path fill="none" stroke="#63b8ff" d="M473.99,-98.24C472.15,-99.47 470.39,-100.81 468.75,-102.25 441.57,-126.12 459.62,-151.03 432.75,-175.25 426.43,-180.95 418.57,-185.27 410.59,-188.54"/>
<polygon fill="#63b8ff" stroke="#63b8ff" points="475.35,-101.49 482.42,-93.6 471.98,-95.35 475.35,-101.49"/>
</a>
</g>
</g>
<!-- Node36 -->
<g id="Node000036" class="node">
<title>Node36</title>
<g id="a_Node000036"><a xlink:href="a02187.html#gaf8a10ab4e51e59c464ab3ab473e4a0f7" target="_top" xlink:title=" ">
<polygon fill="white" stroke="#666666" points="432.75,-55.5 306.5,-55.5 306.5,-37 432.75,-37 432.75,-55.5"/>
<text text-anchor="middle" x="369.62" y="-42" font-family="Helvetica,sans-Serif" font-size="10.00">arax_accel_acquire_phys</text>
</a>
</g>
</g>
<!-- Node35&#45;&gt;Node36 -->
<g id="edge44_Node000035_Node000036" class="edge">
<title>Node35&#45;&gt;Node36</title>
<g id="a_edge44_Node000035_Node000036"><a xlink:title=" ">
<path fill="none" stroke="#63b8ff" d="M473.15,-70.9C452.94,-66.04 430.06,-60.54 411.05,-55.97"/>
<polygon fill="#63b8ff" stroke="#63b8ff" points="472.06,-74.24 482.6,-73.17 473.69,-67.43 472.06,-74.24"/>
</a>
</g>
</g>
<!-- Node37 -->
<g id="Node000037" class="node">
<title>Node37</title>
<g id="a_Node000037"><a xlink:href="a02187.html#ga008252bb9afc2990fa2c5f4b980c9f27" target="_top" xlink:title=" ">
<polygon fill="white" stroke="#666666" points="432,-92.5 307.25,-92.5 307.25,-74 432,-74 432,-92.5"/>
<text text-anchor="middle" x="369.62" y="-79" font-family="Helvetica,sans-Serif" font-size="10.00">arax_accel_acquire_type</text>
</a>
</g>
</g>
<!-- Node35&#45;&gt;Node37 -->
<g id="edge45_Node000035_Node000037" class="edge">
<title>Node35&#45;&gt;Node37</title>
<g id="a_edge45_Node000035_Node000037"><a xlink:title=" ">
<path fill="none" stroke="#63b8ff" d="M470.89,-83.25C458.41,-83.25 445.03,-83.25 432.24,-83.25"/>
<polygon fill="#63b8ff" stroke="#63b8ff" points="470.53,-86.75 480.53,-83.25 470.53,-79.75 470.53,-86.75"/>
</a>
</g>
</g>
</g>
</svg>
