<?xml version="1.0" encoding="UTF-8" standalone="no"?>
<!DOCTYPE svg PUBLIC "-//W3C//DTD SVG 1.1//EN"
 "http://www.w3.org/Graphics/SVG/1.1/DTD/svg11.dtd">
<!-- Generated by graphviz version 12.2.1 (0)
 -->
<!-- Title: async_completion_init Pages: 1 -->
<svg width="1210pt" height="356pt"
 viewBox="0.00 0.00 1209.50 355.85" xmlns="http://www.w3.org/2000/svg" xmlns:xlink="http://www.w3.org/1999/xlink">
<g id="graph0" class="graph" transform="scale(1 1) rotate(0) translate(4 351.85)">
<title>async_completion_init</title>
<!-- Node1 -->
<g id="Node000001" class="node">
<title>Node1</title>
<g id="a_Node000001"><a xlink:title=" ">
<polygon fill="#999999" stroke="#666666" points="1201.5,-188.6 1089.5,-188.6 1089.5,-170.1 1201.5,-170.1 1201.5,-188.6"/>
<text text-anchor="middle" x="1145.5" y="-175.1" font-family="Helvetica,sans-Serif" font-size="10.00">async_completion_init</text>
</a>
</g>
</g>
<!-- Node2 -->
<g id="Node000002" class="node">
<title>Node2</title>
<g id="a_Node000002"><a xlink:href="a01937.html#a27bee94f7a23281c8b2b72ec433f6059" target="_top" xlink:title=" ">
<polygon fill="white" stroke="#666666" points="1044.12,-216.6 959.12,-216.6 959.12,-198.1 1044.12,-198.1 1044.12,-216.6"/>
<text text-anchor="middle" x="1001.62" y="-203.1" font-family="Helvetica,sans-Serif" font-size="10.00">arax_task_alloc</text>
</a>
</g>
</g>
<!-- Node1&#45;&gt;Node2 -->
<g id="edge1_Node000001_Node000002" class="edge">
<title>Node1&#45;&gt;Node2</title>
<g id="a_edge1_Node000001_Node000002"><a xlink:title=" ">
<path fill="none" stroke="#63b8ff" d="M1084.14,-191.26C1070.69,-193.92 1056.72,-196.67 1044.22,-199.14"/>
<polygon fill="#63b8ff" stroke="#63b8ff" points="1084.66,-194.73 1093.79,-189.36 1083.3,-187.86 1084.66,-194.73"/>
</a>
</g>
</g>
<!-- Node10 -->
<g id="Node000010" class="node">
<title>Node10</title>
<g id="a_Node000010"><a xlink:href="a02364.html#ac7fbf1f43289d3e0e862b315f00e35e2" target="_top" xlink:title=" ">
<polygon fill="white" stroke="#666666" points="1053.5,-170.6 949.75,-170.6 949.75,-152.1 1053.5,-152.1 1053.5,-170.6"/>
<text text-anchor="middle" x="1001.62" y="-157.1" font-family="Helvetica,sans-Serif" font-size="10.00">async_condition_init</text>
</a>
</g>
</g>
<!-- Node1&#45;&gt;Node10 -->
<g id="edge10_Node000001_Node000010" class="edge">
<title>Node1&#45;&gt;Node10</title>
<g id="a_edge10_Node000001_Node000010"><a xlink:title=" ">
<path fill="none" stroke="#63b8ff" d="M1077.89,-170.9C1069.79,-169.87 1061.62,-168.83 1053.79,-167.84"/>
<polygon fill="#63b8ff" stroke="#63b8ff" points="1077.38,-174.36 1087.74,-172.15 1078.26,-167.42 1077.38,-174.36"/>
</a>
</g>
</g>
<!-- Node3 -->
<g id="Node000003" class="node">
<title>Node3</title>
<g id="a_Node000003"><a xlink:href="a02189.html#gac9f0f3fbb14da879d3ff09bd367bbb24" target="_top" xlink:title=" ">
<polygon fill="white" stroke="#666666" points="913.38,-244.6 825.38,-244.6 825.38,-226.1 913.38,-226.1 913.38,-244.6"/>
<text text-anchor="middle" x="869.38" y="-231.1" font-family="Helvetica,sans-Serif" font-size="10.00">arax_task_issue</text>
</a>
</g>
</g>
<!-- Node2&#45;&gt;Node3 -->
<g id="edge2_Node000002_Node000003" class="edge">
<title>Node2&#45;&gt;Node3</title>
<g id="a_edge2_Node000002_Node000003"><a xlink:title=" ">
<path fill="none" stroke="#63b8ff" d="M947.6,-218.75C936.28,-221.18 924.46,-223.72 913.57,-226.06"/>
<polygon fill="#63b8ff" stroke="#63b8ff" points="948.18,-222.21 957.22,-216.68 946.7,-215.36 948.18,-222.21"/>
</a>
</g>
</g>
<!-- Node4 -->
<g id="Node000004" class="node">
<title>Node4</title>
<g id="a_Node000004"><a xlink:href="a01922.html#af8ede6fc8d207004035f45d945688d2c" target="_top" xlink:title=" ">
<polygon fill="white" stroke="#666666" points="772.12,-347.85 673.62,-347.85 673.62,-318.85 772.12,-318.85 772.12,-347.85"/>
<text text-anchor="start" x="681.62" y="-334.35" font-family="Helvetica,sans-Serif" font-size="10.00">arax_data_allocate</text>
<text text-anchor="middle" x="722.88" y="-323.85" font-family="Helvetica,sans-Serif" font-size="10.00">_remote</text>
</a>
</g>
</g>
<!-- Node3&#45;&gt;Node4 -->
<g id="edge3_Node000003_Node000004" class="edge">
<title>Node3&#45;&gt;Node4</title>
<g id="a_edge3_Node000003_Node000004"><a xlink:title=" ">
<path fill="none" stroke="#63b8ff" d="M853.23,-253.05C838.32,-269.55 814.18,-293.85 789,-309.35 783.46,-312.76 777.36,-315.8 771.18,-318.47"/>
<polygon fill="#63b8ff" stroke="#63b8ff" points="855.52,-255.75 859.51,-245.94 850.27,-251.12 855.52,-255.75"/>
</a>
</g>
</g>
<!-- Node5 -->
<g id="Node000005" class="node">
<title>Node5</title>
<g id="a_Node000005"><a xlink:href="a01922.html#a696bc4319d0f6c6baa7d797a8df6b56f" target="_top" xlink:title=" ">
<polygon fill="white" stroke="#666666" points="762,-300.6 683.75,-300.6 683.75,-282.1 762,-282.1 762,-300.6"/>
<text text-anchor="middle" x="722.88" y="-287.1" font-family="Helvetica,sans-Serif" font-size="10.00">arax_data_get</text>
</a>
</g>
</g>
<!-- Node3&#45;&gt;Node5 -->
<g id="edge4_Node000003_Node000005" class="edge">
<title>Node3&#45;&gt;Node5</title>
<g id="a_edge4_Node000003_Node000005"><a xlink:title=" ">
<path fill="none" stroke="#63b8ff" d="M839.69,-250.01C824.8,-257.29 806.18,-265.88 789,-272.35 779.96,-275.75 770.03,-278.92 760.71,-281.66"/>
<polygon fill="#63b8ff" stroke="#63b8ff" points="841.04,-253.25 848.44,-245.67 837.93,-246.98 841.04,-253.25"/>
</a>
</g>
</g>
<!-- Node7 -->
<g id="Node000007" class="node">
<title>Node7</title>
<g id="a_Node000007"><a xlink:href="a01922.html#a8995f71dba475975efc37756783cfce9" target="_top" xlink:title=" ">
<polygon fill="white" stroke="#666666" points="762,-263.6 683.75,-263.6 683.75,-245.1 762,-245.1 762,-263.6"/>
<text text-anchor="middle" x="722.88" y="-250.1" font-family="Helvetica,sans-Serif" font-size="10.00">arax_data_set</text>
</a>
</g>
</g>
<!-- Node3&#45;&gt;Node7 -->
<g id="edge6_Node000003_Node000007" class="edge">
<title>Node3&#45;&gt;Node7</title>
<g id="a_edge6_Node000003_Node000007"><a xlink:title=" ">
<path fill="none" stroke="#63b8ff" d="M813.97,-242.5C796.77,-244.77 778.13,-247.22 762.29,-249.3"/>
<polygon fill="#63b8ff" stroke="#63b8ff" points="814.06,-246.02 823.52,-241.25 813.15,-239.08 814.06,-246.02"/>
</a>
</g>
</g>
<!-- Node8 -->
<g id="Node000008" class="node">
<title>Node8</title>
<g id="a_Node000008"><a xlink:href="a01922.html#af735744d0f8bec04394639a841d2ba0f" target="_top" xlink:title=" ">
<polygon fill="white" stroke="#666666" points="789,-226.6 656.75,-226.6 656.75,-208.1 789,-208.1 789,-226.6"/>
<text text-anchor="middle" x="722.88" y="-213.1" font-family="Helvetica,sans-Serif" font-size="10.00">ARAX_OBJ_DTOR_DECL</text>
</a>
</g>
</g>
<!-- Node3&#45;&gt;Node8 -->
<g id="edge8_Node000003_Node000008" class="edge">
<title>Node3&#45;&gt;Node8</title>
<g id="a_edge8_Node000003_Node000008"><a xlink:title=" ">
<path fill="none" stroke="#63b8ff" d="M813.66,-228.53C805.73,-227.55 797.5,-226.52 789.38,-225.51"/>
<polygon fill="#63b8ff" stroke="#63b8ff" points="813.16,-232 823.52,-229.76 814.03,-225.05 813.16,-232"/>
</a>
</g>
</g>
<!-- Node9 -->
<g id="Node000009" class="node">
<title>Node9</title>
<g id="a_Node000009"><a xlink:href="a02189.html#ga1418f4cd7336bf77cce7b955a1bf7077" target="_top" xlink:title=" ">
<polygon fill="white" stroke="#666666" points="779.62,-189.6 666.12,-189.6 666.12,-171.1 779.62,-171.1 779.62,-189.6"/>
<text text-anchor="middle" x="722.88" y="-176.1" font-family="Helvetica,sans-Serif" font-size="10.00">arax_task_issue_sync</text>
</a>
</g>
</g>
<!-- Node3&#45;&gt;Node9 -->
<g id="edge9_Node000003_Node000009" class="edge">
<title>Node3&#45;&gt;Node9</title>
<g id="a_edge9_Node000003_Node000009"><a xlink:title=" ">
<path fill="none" stroke="#63b8ff" d="M839.05,-220.85C824.25,-213.84 805.9,-205.61 789,-199.35 779.83,-195.95 769.76,-192.76 760.34,-190"/>
<polygon fill="#63b8ff" stroke="#63b8ff" points="837.23,-223.86 847.76,-225.03 840.26,-217.55 837.23,-223.86"/>
</a>
</g>
</g>
<!-- Node6 -->
<g id="Node000006" class="node">
<title>Node6</title>
<g id="a_Node000006"><a xlink:href="a01922.html#a7d8356bd5c8b6a8d7dffc6ba94cc22e5" target="_top" xlink:title=" ">
<polygon fill="white" stroke="#666666" points="620.75,-281.6 518.5,-281.6 518.5,-263.1 620.75,-263.1 620.75,-281.6"/>
<text text-anchor="middle" x="569.62" y="-268.1" font-family="Helvetica,sans-Serif" font-size="10.00">arax_data_memcpy</text>
</a>
</g>
</g>
<!-- Node5&#45;&gt;Node6 -->
<g id="edge5_Node000005_Node000006" class="edge">
<title>Node5&#45;&gt;Node6</title>
<g id="a_edge5_Node000005_Node000006"><a xlink:title=" ">
<path fill="none" stroke="#63b8ff" d="M672.29,-285.12C655.88,-283.06 637.6,-280.76 621.11,-278.69"/>
<polygon fill="#63b8ff" stroke="#63b8ff" points="671.46,-288.54 681.82,-286.32 672.33,-281.6 671.46,-288.54"/>
</a>
</g>
</g>
<!-- Node7&#45;&gt;Node6 -->
<g id="edge7_Node000007_Node000006" class="edge">
<title>Node7&#45;&gt;Node6</title>
<g id="a_edge7_Node000007_Node000006"><a xlink:title=" ">
<path fill="none" stroke="#63b8ff" d="M672.29,-260.25C655.88,-262.2 637.6,-264.38 621.11,-266.34"/>
<polygon fill="#63b8ff" stroke="#63b8ff" points="672.3,-263.77 681.81,-259.12 671.47,-256.82 672.3,-263.77"/>
</a>
</g>
</g>
<!-- Node11 -->
<g id="Node000011" class="node">
<title>Node11</title>
<g id="a_Node000011"><a xlink:href="a01916.html#a0706a66a62ca8710342ac1c097b703ed" target="_top" xlink:title=" ">
<polygon fill="white" stroke="#666666" points="763.88,-152.6 681.88,-152.6 681.88,-134.1 763.88,-134.1 763.88,-152.6"/>
<text text-anchor="middle" x="722.88" y="-139.1" font-family="Helvetica,sans-Serif" font-size="10.00">arax_accel_init</text>
</a>
</g>
</g>
<!-- Node10&#45;&gt;Node11 -->
<g id="edge11_Node000010_Node000011" class="edge">
<title>Node10&#45;&gt;Node11</title>
<g id="a_edge11_Node000010_Node000011"><a xlink:title=" ">
<path fill="none" stroke="#63b8ff" d="M937.92,-164.02C904.36,-164.78 862.36,-164.65 825,-161.35 804.75,-159.56 782.48,-155.8 764.01,-152.17"/>
<polygon fill="#63b8ff" stroke="#63b8ff" points="938,-167.52 947.9,-163.76 937.81,-160.52 938,-167.52"/>
</a>
</g>
</g>
<!-- Node12 -->
<g id="Node000012" class="node">
<title>Node12</title>
<g id="a_Node000012"><a xlink:href="a01928.html#aa6293e9ec7776aa49ecf632fcc4f5e26" target="_top" xlink:title=" ">
<polygon fill="white" stroke="#666666" points="761.25,-115.6 684.5,-115.6 684.5,-97.1 761.25,-97.1 761.25,-115.6"/>
<text text-anchor="middle" x="722.88" y="-102.1" font-family="Helvetica,sans-Serif" font-size="10.00">arax_pipe_init</text>
</a>
</g>
</g>
<!-- Node10&#45;&gt;Node12 -->
<g id="edge12_Node000010_Node000012" class="edge">
<title>Node10&#45;&gt;Node12</title>
<g id="a_edge12_Node000010_Node000012"><a xlink:title=" ">
<path fill="none" stroke="#63b8ff" d="M971.73,-146.87C955.17,-139.21 933.75,-130.38 913.75,-125.35 862.02,-112.35 800.26,-108.18 761.54,-106.89"/>
<polygon fill="#63b8ff" stroke="#63b8ff" points="969.95,-149.9 980.49,-151.03 972.96,-143.57 969.95,-149.9"/>
</a>
</g>
</g>
<!-- Node21 -->
<g id="Node000021" class="node">
<title>Node21</title>
<g id="a_Node000021"><a xlink:href="a01940.html#acf84ea82594c4dbe91cf602ee078e04d" target="_top" xlink:title=" ">
<polygon fill="white" stroke="#666666" points="913.75,-152.6 825,-152.6 825,-134.1 913.75,-134.1 913.75,-152.6"/>
<text text-anchor="middle" x="869.38" y="-139.1" font-family="Helvetica,sans-Serif" font-size="10.00">arax_throttle_init</text>
</a>
</g>
</g>
<!-- Node10&#45;&gt;Node21 -->
<g id="edge23_Node000010_Node000021" class="edge">
<title>Node10&#45;&gt;Node21</title>
<g id="a_edge23_Node000010_Node000021"><a xlink:title=" ">
<path fill="none" stroke="#63b8ff" d="M938.15,-152.72C930.04,-151.6 921.88,-150.47 914.16,-149.4"/>
<polygon fill="#63b8ff" stroke="#63b8ff" points="937.64,-156.18 948.02,-154.08 938.59,-149.24 937.64,-156.18"/>
</a>
</g>
</g>
<!-- Node13 -->
<g id="Node000013" class="node">
<title>Node13</title>
<g id="a_Node000013"><a xlink:href="a01910.html#a02fd608f651d254148dc74f0ae371dfe" target="_top" xlink:title=" ">
<polygon fill="white" stroke="#666666" points="599,-115.6 540.25,-115.6 540.25,-97.1 599,-97.1 599,-115.6"/>
<text text-anchor="middle" x="569.62" y="-102.1" font-family="Helvetica,sans-Serif" font-size="10.00">_arax_init</text>
</a>
</g>
</g>
<!-- Node12&#45;&gt;Node13 -->
<g id="edge13_Node000012_Node000013" class="edge">
<title>Node12&#45;&gt;Node13</title>
<g id="a_edge13_Node000012_Node000013"><a xlink:title=" ">
<path fill="none" stroke="#63b8ff" d="M672.59,-106.35C648.37,-106.35 620.02,-106.35 599.38,-106.35"/>
<polygon fill="#63b8ff" stroke="#63b8ff" points="672.58,-109.85 682.58,-106.35 672.58,-102.85 672.58,-109.85"/>
</a>
</g>
</g>
<!-- Node14 -->
<g id="Node000014" class="node">
<title>Node14</title>
<g id="a_Node000014"><a xlink:href="a01910.html#aa6e4832b06bd5757be4502d2de7b3026" target="_top" xlink:title=" ">
<polygon fill="white" stroke="#666666" points="482.5,-141.85 384,-141.85 384,-112.85 482.5,-112.85 482.5,-141.85"/>
<text text-anchor="start" x="392" y="-128.35" font-family="Helvetica,sans-Serif" font-size="10.00">arax_controller_init</text>
<text text-anchor="middle" x="433.25" y="-117.85" font-family="Helvetica,sans-Serif" font-size="10.00">_start</text>
</a>
</g>
</g>
<!-- Node13&#45;&gt;Node14 -->
<g id="edge14_Node000013_Node000014" class="edge">
<title>Node13&#45;&gt;Node14</title>
<g id="a_edge14_Node000013_Node000014"><a xlink:title=" ">
<path fill="none" stroke="#63b8ff" d="M528.74,-112.58C514.34,-114.83 497.92,-117.4 482.86,-119.75"/>
<polygon fill="#63b8ff" stroke="#63b8ff" points="528.96,-116.09 538.3,-111.09 527.88,-109.17 528.96,-116.09"/>
</a>
</g>
</g>
<!-- Node15 -->
<g id="Node000015" class="node">
<title>Node15</title>
<g id="a_Node000015"><a xlink:href="a02186.html#gae1d371a2840849690acce147e7a205da" target="_top" xlink:title=" ">
<polygon fill="white" stroke="#666666" points="460,-94.6 406.5,-94.6 406.5,-76.1 460,-76.1 460,-94.6"/>
<text text-anchor="middle" x="433.25" y="-81.1" font-family="Helvetica,sans-Serif" font-size="10.00">arax_init</text>
</a>
</g>
</g>
<!-- Node13&#45;&gt;Node15 -->
<g id="edge15_Node000013_Node000015" class="edge">
<title>Node13&#45;&gt;Node15</title>
<g id="a_edge15_Node000013_Node000015"><a xlink:title=" ">
<path fill="none" stroke="#63b8ff" d="M528.73,-100.11C506.6,-96.66 479.72,-92.46 460.3,-89.42"/>
<polygon fill="#63b8ff" stroke="#63b8ff" points="527.88,-103.53 538.3,-101.61 528.96,-96.61 527.88,-103.53"/>
</a>
</g>
</g>
<!-- Node16 -->
<g id="Node000016" class="node">
<title>Node16</title>
<g id="a_Node000016"><a xlink:href="a01946.html#a8a99bcb12e2ee55d68a029bfca9b6d51" target="_top" xlink:title=" ">
<polygon fill="white" stroke="#666666" points="235.25,-123.85 141.25,-123.85 141.25,-94.85 235.25,-94.85 235.25,-123.85"/>
<text text-anchor="start" x="149.25" y="-110.35" font-family="Helvetica,sans-Serif" font-size="10.00">arax_plot_register</text>
<text text-anchor="middle" x="188.25" y="-99.85" font-family="Helvetica,sans-Serif" font-size="10.00">_metric</text>
</a>
</g>
</g>
<!-- Node15&#45;&gt;Node16 -->
<g id="edge16_Node000015_Node000016" class="edge">
<title>Node15&#45;&gt;Node16</title>
<g id="a_edge16_Node000015_Node000016"><a xlink:title=" ">
<path fill="none" stroke="#63b8ff" d="M394.92,-89.04C352.02,-93.27 281.6,-100.23 235.32,-104.8"/>
<polygon fill="#63b8ff" stroke="#63b8ff" points="395.13,-92.53 404.74,-88.07 394.44,-85.57 395.13,-92.53"/>
</a>
</g>
</g>
<!-- Node17 -->
<g id="Node000017" class="node">
<title>Node17</title>
<g id="a_Node000017"><a xlink:href="a01934.html#a80ab3bf4a8af9bb101b5a53248609771" target="_top" xlink:title=" ">
<polygon fill="white" stroke="#666666" points="348,-76.6 271.25,-76.6 271.25,-58.1 348,-58.1 348,-76.6"/>
<text text-anchor="middle" x="309.62" y="-63.1" font-family="Helvetica,sans-Serif" font-size="10.00">arax_ptr_valid</text>
</a>
</g>
</g>
<!-- Node15&#45;&gt;Node17 -->
<g id="edge17_Node000015_Node000017" class="edge">
<title>Node15&#45;&gt;Node17</title>
<g id="a_edge17_Node000015_Node000017"><a xlink:title=" ">
<path fill="none" stroke="#63b8ff" d="M394.83,-79.81C380.03,-77.62 363.04,-75.11 348.21,-72.91"/>
<polygon fill="#63b8ff" stroke="#63b8ff" points="394.26,-83.27 404.66,-81.27 395.28,-76.34 394.26,-83.27"/>
</a>
</g>
</g>
<!-- Node17&#45;&gt;Node16 -->
<g id="edge22_Node000017_Node000016" class="edge">
<title>Node17&#45;&gt;Node16</title>
<g id="a_edge22_Node000017_Node000016"><a xlink:title=" ">
<path fill="none" stroke="#63b8ff" d="M270.14,-80.89C257.89,-85.2 244.27,-89.99 231.76,-94.39"/>
<polygon fill="#63b8ff" stroke="#63b8ff" points="271.24,-84.21 279.51,-77.59 268.92,-77.61 271.24,-84.21"/>
</a>
</g>
</g>
<!-- Node18 -->
<g id="Node000018" class="node">
<title>Node18</title>
<g id="a_Node000018"><a xlink:href="a01967.html#a4ee1fea325d2edd421f59ab240dfbe54" target="_top" xlink:title=" ">
<polygon fill="white" stroke="#666666" points="234.12,-76.6 142.38,-76.6 142.38,-58.1 234.12,-58.1 234.12,-76.6"/>
<text text-anchor="middle" x="188.25" y="-63.1" font-family="Helvetica,sans-Serif" font-size="10.00">_arax_assert_obj</text>
</a>
</g>
</g>
<!-- Node17&#45;&gt;Node18 -->
<g id="edge18_Node000017_Node000018" class="edge">
<title>Node17&#45;&gt;Node18</title>
<g id="a_edge18_Node000017_Node000018"><a xlink:title=" ">
<path fill="none" stroke="#63b8ff" d="M259.37,-67.35C251.07,-67.35 242.49,-67.35 234.3,-67.35"/>
<polygon fill="#63b8ff" stroke="#63b8ff" points="259.34,-70.85 269.34,-67.35 259.34,-63.85 259.34,-70.85"/>
</a>
</g>
</g>
<!-- Node19 -->
<g id="Node000019" class="node">
<title>Node19</title>
<g id="a_Node000019"><a xlink:href="a01922.html#afeaab7d93372f0752d59c70d9c5940e7" target="_top" xlink:title=" ">
<polygon fill="white" stroke="#666666" points="226.25,-39.6 150.25,-39.6 150.25,-21.1 226.25,-21.1 226.25,-39.6"/>
<text text-anchor="middle" x="188.25" y="-26.1" font-family="Helvetica,sans-Serif" font-size="10.00">arax_data_ref</text>
</a>
</g>
</g>
<!-- Node17&#45;&gt;Node19 -->
<g id="edge19_Node000017_Node000019" class="edge">
<title>Node17&#45;&gt;Node19</title>
<g id="a_edge19_Node000017_Node000019"><a xlink:title=" ">
<path fill="none" stroke="#63b8ff" d="M266.56,-54.31C251.36,-49.6 234.5,-44.37 220.4,-40.01"/>
<polygon fill="#63b8ff" stroke="#63b8ff" points="265.23,-57.56 275.81,-57.18 267.3,-50.88 265.23,-57.56"/>
</a>
</g>
</g>
<!-- Node20 -->
<g id="Node000020" class="node">
<title>Node20</title>
<g id="a_Node000020"><a xlink:href="a01922.html#ac1f7fb20b3a23b388bea24f1b46a33a8" target="_top" xlink:title=" ">
<polygon fill="white" stroke="#666666" points="105.25,-20.6 0,-20.6 0,-2.1 105.25,-2.1 105.25,-20.6"/>
<text text-anchor="middle" x="52.62" y="-7.1" font-family="Helvetica,sans-Serif" font-size="10.00">arax_data_ref_offset</text>
</a>
</g>
</g>
<!-- Node17&#45;&gt;Node20 -->
<g id="edge21_Node000017_Node000020" class="edge">
<title>Node17&#45;&gt;Node20</title>
<g id="a_edge21_Node000017_Node000020"><a xlink:title=" ">
<path fill="none" stroke="#63b8ff" d="M291.83,-49.72C278.05,-36.61 257.28,-19.76 235.25,-12.35 193.26,1.77 142.65,0.69 105.53,-3.15"/>
<polygon fill="#63b8ff" stroke="#63b8ff" points="289.19,-52.03 298.75,-56.59 294.12,-47.06 289.19,-52.03"/>
</a>
</g>
</g>
<!-- Node19&#45;&gt;Node20 -->
<g id="edge20_Node000019_Node000020" class="edge">
<title>Node19&#45;&gt;Node20</title>
<g id="a_edge20_Node000019_Node000020"><a xlink:title=" ">
<path fill="none" stroke="#63b8ff" d="M138.69,-23.45C127.94,-21.92 116.51,-20.29 105.63,-18.74"/>
<polygon fill="#63b8ff" stroke="#63b8ff" points="138.14,-26.9 148.53,-24.84 139.12,-19.97 138.14,-26.9"/>
</a>
</g>
</g>
<!-- Node21&#45;&gt;Node11 -->
<g id="edge24_Node000021_Node000011" class="edge">
<title>Node21&#45;&gt;Node11</title>
<g id="a_edge24_Node000021_Node000011"><a xlink:title=" ">
<path fill="none" stroke="#63b8ff" d="M813.49,-143.35C797.05,-143.35 779.33,-143.35 764.02,-143.35"/>
<polygon fill="#63b8ff" stroke="#63b8ff" points="813.11,-146.85 823.11,-143.35 813.11,-139.85 813.11,-146.85"/>
</a>
</g>
</g>
<!-- Node21&#45;&gt;Node12 -->
<g id="edge25_Node000021_Node000012" class="edge">
<title>Node21&#45;&gt;Node12</title>
<g id="a_edge25_Node000021_Node000012"><a xlink:title=" ">
<path fill="none" stroke="#63b8ff" d="M819.32,-130.79C800.45,-125.96 779.22,-120.52 761.59,-116.01"/>
<polygon fill="#63b8ff" stroke="#63b8ff" points="818.39,-134.16 828.94,-133.25 820.12,-127.38 818.39,-134.16"/>
</a>
</g>
</g>
</g>
</svg>
