<?xml version="1.0" encoding="UTF-8" standalone="no"?>
<!DOCTYPE svg PUBLIC "-//W3C//DTD SVG 1.1//EN"
 "http://www.w3.org/Graphics/SVG/1.1/DTD/svg11.dtd">
<!-- Generated by graphviz version 8.0.5 (0)
 -->
<!-- Title: async.c Pages: 1 -->
<svg width="591pt" height="299pt"
 viewBox="0.00 0.00 590.50 299.00" xmlns="http://www.w3.org/2000/svg" xmlns:xlink="http://www.w3.org/1999/xlink">
<g id="graph0" class="graph" transform="scale(1 1) rotate(0) translate(4 295)">
<title>async.c</title>
<!-- Node1 -->
<g id="Node000001" class="node">
<title>Node1</title>
<g id="a_Node000001"><a xlink:title=" ">
<polygon fill="#999999" stroke="#666666" points="336.13,-291 286.38,-291 286.38,-272.5 336.13,-272.5 336.13,-291"/>
<text text-anchor="middle" x="311.25" y="-277.5" font-family="Helvetica,sans-Serif" font-size="10.00">async.c</text>
</a>
</g>
</g>
<!-- Node2 -->
<g id="Node000002" class="node">
<title>Node2</title>
<g id="a_Node000002"><a xlink:href="a01427.html" target="_top" xlink:title=" ">
<polygon fill="white" stroke="#666666" points="131.38,-236.5 89.13,-236.5 89.13,-218 131.38,-218 131.38,-236.5"/>
<text text-anchor="middle" x="110.25" y="-223" font-family="Helvetica,sans-Serif" font-size="10.00">conf.h</text>
</a>
</g>
</g>
<!-- Node1&#45;&gt;Node2 -->
<g id="edge1_Node000001_Node000002" class="edge">
<title>Node1&#45;&gt;Node2</title>
<g id="a_edge1_Node000001_Node000002"><a xlink:title=" ">
<path fill="none" stroke="#63b8ff" d="M286.01,-274.35C254.58,-266.34 198.97,-252.1 142.43,-237.05"/>
<polygon fill="#63b8ff" stroke="#63b8ff" points="143.43,-233.43 132.87,-234.24 141.63,-240.2 143.43,-233.43"/>
</a>
</g>
</g>
<!-- Node3 -->
<g id="Node000003" class="node">
<title>Node3</title>
<g id="a_Node000003"><a xlink:href="a02355.html" target="_top" xlink:title=" ">
<polygon fill="white" stroke="#666666" points="199.13,-236.5 149.38,-236.5 149.38,-218 199.13,-218 199.13,-236.5"/>
<text text-anchor="middle" x="174.25" y="-223" font-family="Helvetica,sans-Serif" font-size="10.00">async.h</text>
</a>
</g>
</g>
<!-- Node1&#45;&gt;Node3 -->
<g id="edge2_Node000001_Node000003" class="edge">
<title>Node1&#45;&gt;Node3</title>
<g id="a_edge2_Node000001_Node000003"><a xlink:title=" ">
<path fill="none" stroke="#63b8ff" d="M288.63,-272.08C266.42,-263.57 232.3,-250.49 207.1,-240.84"/>
<polygon fill="#63b8ff" stroke="#63b8ff" points="208.5,-237.24 197.91,-236.93 205.99,-243.78 208.5,-237.24"/>
</a>
</g>
</g>
<!-- Node14 -->
<g id="Node000014" class="node">
<title>Node14</title>
<g id="a_Node000014"><a xlink:href="a01373.html" target="_top" xlink:title=" ">
<polygon fill="white" stroke="#666666" points="397,-182 325.5,-182 325.5,-163.5 397,-163.5 397,-182"/>
<text text-anchor="middle" x="361.25" y="-168.5" font-family="Helvetica,sans-Serif" font-size="10.00">utils/config.h</text>
</a>
</g>
</g>
<!-- Node1&#45;&gt;Node14 -->
<g id="edge17_Node000001_Node000014" class="edge">
<title>Node1&#45;&gt;Node14</title>
<g id="a_edge17_Node000001_Node000014"><a xlink:title=" ">
<path fill="none" stroke="#63b8ff" d="M289.92,-272.1C265.57,-260.92 230.98,-240.24 246.25,-218 254.66,-205.75 287.82,-193.76 316.38,-185.36"/>
<polygon fill="#63b8ff" stroke="#63b8ff" points="316.98,-188.54 325.64,-182.43 315.06,-181.81 316.98,-188.54"/>
</a>
</g>
</g>
<!-- Node15 -->
<g id="Node000015" class="node">
<title>Node15</title>
<g id="a_Node000015"><a xlink:title=" ">
<polygon fill="#e0e0e0" stroke="#999999" points="303,-236.5 255.5,-236.5 255.5,-218 303,-218 303,-236.5"/>
<text text-anchor="middle" x="279.25" y="-223" font-family="Helvetica,sans-Serif" font-size="10.00">stdlib.h</text>
</a>
</g>
</g>
<!-- Node1&#45;&gt;Node15 -->
<g id="edge19_Node000001_Node000015" class="edge">
<title>Node1&#45;&gt;Node15</title>
<g id="a_edge19_Node000001_Node000015"><a xlink:title=" ">
<path fill="none" stroke="#63b8ff" d="M305.97,-272.08C301.68,-265.05 295.49,-254.9 290.15,-246.14"/>
<polygon fill="#63b8ff" stroke="#63b8ff" points="292.63,-244.48 284.44,-237.76 286.65,-248.12 292.63,-244.48"/>
</a>
</g>
</g>
<!-- Node16 -->
<g id="Node000016" class="node">
<title>Node16</title>
<g id="a_Node000016"><a xlink:title=" ">
<polygon fill="#e0e0e0" stroke="#999999" points="365.88,-236.5 320.63,-236.5 320.63,-218 365.88,-218 365.88,-236.5"/>
<text text-anchor="middle" x="343.25" y="-223" font-family="Helvetica,sans-Serif" font-size="10.00">stdio.h</text>
</a>
</g>
</g>
<!-- Node1&#45;&gt;Node16 -->
<g id="edge20_Node000001_Node000016" class="edge">
<title>Node1&#45;&gt;Node16</title>
<g id="a_edge20_Node000001_Node000016"><a xlink:title=" ">
<path fill="none" stroke="#63b8ff" d="M316.53,-272.08C320.82,-265.05 327.01,-254.9 332.35,-246.14"/>
<polygon fill="#63b8ff" stroke="#63b8ff" points="335.85,-248.12 338.06,-237.76 329.87,-244.48 335.85,-248.12"/>
</a>
</g>
</g>
<!-- Node17 -->
<g id="Node000017" class="node">
<title>Node17</title>
<g id="a_Node000017"><a xlink:title=" ">
<polygon fill="#e0e0e0" stroke="#999999" points="434.5,-236.5 384,-236.5 384,-218 434.5,-218 434.5,-236.5"/>
<text text-anchor="middle" x="409.25" y="-223" font-family="Helvetica,sans-Serif" font-size="10.00">unistd.h</text>
</a>
</g>
</g>
<!-- Node1&#45;&gt;Node17 -->
<g id="edge21_Node000001_Node000017" class="edge">
<title>Node1&#45;&gt;Node17</title>
<g id="a_edge21_Node000001_Node000017"><a xlink:title=" ">
<path fill="none" stroke="#63b8ff" d="M327.43,-272.08C342.75,-263.87 366,-251.42 383.8,-241.89"/>
<polygon fill="#63b8ff" stroke="#63b8ff" points="384.88,-244.74 392.04,-236.93 381.58,-238.57 384.88,-244.74"/>
</a>
</g>
</g>
<!-- Node18 -->
<g id="Node000018" class="node">
<title>Node18</title>
<g id="a_Node000018"><a xlink:title=" ">
<polygon fill="#e0e0e0" stroke="#999999" points="495.75,-236.5 452.75,-236.5 452.75,-218 495.75,-218 495.75,-236.5"/>
<text text-anchor="middle" x="474.25" y="-223" font-family="Helvetica,sans-Serif" font-size="10.00">fcntl.h</text>
</a>
</g>
</g>
<!-- Node1&#45;&gt;Node18 -->
<g id="edge22_Node000001_Node000018" class="edge">
<title>Node1&#45;&gt;Node18</title>
<g id="a_edge22_Node000001_Node000018"><a xlink:title=" ">
<path fill="none" stroke="#63b8ff" d="M336.36,-272.66C364.8,-263.5 411.21,-248.56 442.23,-238.56"/>
<polygon fill="#63b8ff" stroke="#63b8ff" points="443.06,-241.65 451.5,-235.25 440.91,-234.99 443.06,-241.65"/>
</a>
</g>
</g>
<!-- Node19 -->
<g id="Node000019" class="node">
<title>Node19</title>
<g id="a_Node000019"><a xlink:title=" ">
<polygon fill="#e0e0e0" stroke="#999999" points="582.5,-236.5 514,-236.5 514,-218 582.5,-218 582.5,-236.5"/>
<text text-anchor="middle" x="548.25" y="-223" font-family="Helvetica,sans-Serif" font-size="10.00">sys/mman.h</text>
</a>
</g>
</g>
<!-- Node1&#45;&gt;Node19 -->
<g id="edge23_Node000001_Node000019" class="edge">
<title>Node1&#45;&gt;Node19</title>
<g id="a_edge23_Node000001_Node000019"><a xlink:title=" ">
<path fill="none" stroke="#63b8ff" d="M336.61,-275.13C376.25,-266.35 453.43,-249.25 502.82,-238.31"/>
<polygon fill="#63b8ff" stroke="#63b8ff" points="503.52,-241.52 512.53,-235.94 502.01,-234.69 503.52,-241.52"/>
</a>
</g>
</g>
<!-- Node4 -->
<g id="Node000004" class="node">
<title>Node4</title>
<g id="a_Node000004"><a xlink:href="a01403.html" target="_top" xlink:title=" ">
<polygon fill="white" stroke="#666666" points="269.38,-182 173.13,-182 173.13,-163.5 269.38,-163.5 269.38,-182"/>
<text text-anchor="middle" x="221.25" y="-168.5" font-family="Helvetica,sans-Serif" font-size="10.00">core/arax_object.h</text>
</a>
</g>
</g>
<!-- Node3&#45;&gt;Node4 -->
<g id="edge3_Node000003_Node000004" class="edge">
<title>Node3&#45;&gt;Node4</title>
<g id="a_edge3_Node000003_Node000004"><a xlink:title=" ">
<path fill="none" stroke="#63b8ff" d="M182.01,-217.58C188.65,-210.17 198.39,-199.28 206.51,-190.22"/>
<polygon fill="#63b8ff" stroke="#63b8ff" points="208.57,-193.04 212.63,-183.26 203.36,-188.37 208.57,-193.04"/>
</a>
</g>
</g>
<!-- Node5 -->
<g id="Node000005" class="node">
<title>Node5</title>
<g id="a_Node000005"><a xlink:href="a01376.html" target="_top" xlink:title=" ">
<polygon fill="white" stroke="#666666" points="325.88,-127.5 268.63,-127.5 268.63,-109 325.88,-109 325.88,-127.5"/>
<text text-anchor="middle" x="297.25" y="-114" font-family="Helvetica,sans-Serif" font-size="10.00">utils/list.h</text>
</a>
</g>
</g>
<!-- Node3&#45;&gt;Node5 -->
<g id="edge12_Node000003_Node000005" class="edge">
<title>Node3&#45;&gt;Node5</title>
<g id="a_edge12_Node000003_Node000005"><a xlink:title=" ">
<path fill="none" stroke="#63b8ff" d="M199.2,-221.91C222.78,-216.52 257.55,-205.08 278.25,-182 289.07,-169.94 293.73,-151.9 295.74,-138.25"/>
<polygon fill="#63b8ff" stroke="#63b8ff" points="299.29,-138.97 296.91,-128.65 292.33,-138.21 299.29,-138.97"/>
</a>
</g>
</g>
<!-- Node11 -->
<g id="Node000011" class="node">
<title>Node11</title>
<g id="a_Node000011"><a xlink:title=" ">
<polygon fill="#e0e0e0" stroke="#999999" points="80.38,-127.5 14.13,-127.5 14.13,-109 80.38,-109 80.38,-127.5"/>
<text text-anchor="middle" x="47.25" y="-114" font-family="Helvetica,sans-Serif" font-size="10.00">arch/alloc.h</text>
</a>
</g>
</g>
<!-- Node3&#45;&gt;Node11 -->
<g id="edge14_Node000003_Node000011" class="edge">
<title>Node3&#45;&gt;Node11</title>
<g id="a_edge14_Node000003_Node000011"><a xlink:title=" ">
<path fill="none" stroke="#63b8ff" d="M149.2,-220.15C102.48,-208.71 6.51,-184.92 4.25,-182 -7.88,-166.31 9.02,-147.43 25.07,-134.51"/>
<polygon fill="#63b8ff" stroke="#63b8ff" points="26.82,-136.81 32.7,-128 22.61,-131.22 26.82,-136.81"/>
</a>
</g>
</g>
<!-- Node12 -->
<g id="Node000012" class="node">
<title>Node12</title>
<g id="a_Node000012"><a xlink:title=" ">
<polygon fill="#e0e0e0" stroke="#999999" points="155.5,-182 99,-182 99,-163.5 155.5,-163.5 155.5,-182"/>
<text text-anchor="middle" x="127.25" y="-168.5" font-family="Helvetica,sans-Serif" font-size="10.00">pthread.h</text>
</a>
</g>
</g>
<!-- Node3&#45;&gt;Node12 -->
<g id="edge13_Node000003_Node000012" class="edge">
<title>Node3&#45;&gt;Node12</title>
<g id="a_edge13_Node000003_Node000012"><a xlink:title=" ">
<path fill="none" stroke="#63b8ff" d="M166.49,-217.58C159.85,-210.17 150.11,-199.28 142,-190.22"/>
<polygon fill="#63b8ff" stroke="#63b8ff" points="145.15,-188.37 135.87,-183.26 139.93,-193.04 145.15,-188.37"/>
</a>
</g>
</g>
<!-- Node13 -->
<g id="Node000013" class="node">
<title>Node13</title>
<g id="a_Node000013"><a xlink:href="a01424.html" target="_top" xlink:title=" ">
<polygon fill="white" stroke="#666666" points="81.13,-182 13.38,-182 13.38,-163.5 81.13,-163.5 81.13,-182"/>
<text text-anchor="middle" x="47.25" y="-168.5" font-family="Helvetica,sans-Serif" font-size="10.00">async_api.h</text>
</a>
</g>
</g>
<!-- Node3&#45;&gt;Node13 -->
<g id="edge15_Node000003_Node000013" class="edge">
<title>Node3&#45;&gt;Node13</title>
<g id="a_edge15_Node000003_Node000013"><a xlink:title=" ">
<path fill="none" stroke="#63b8ff" d="M153.28,-217.58C132.87,-209.15 101.62,-196.23 78.33,-186.6"/>
<polygon fill="#63b8ff" stroke="#63b8ff" points="79.83,-183.02 69.25,-182.43 77.16,-189.49 79.83,-183.02"/>
</a>
</g>
</g>
<!-- Node4&#45;&gt;Node5 -->
<g id="edge4_Node000004_Node000005" class="edge">
<title>Node4&#45;&gt;Node5</title>
<g id="a_edge4_Node000004_Node000005"><a xlink:title=" ">
<path fill="none" stroke="#63b8ff" d="M233.8,-163.08C245.24,-155.18 262.38,-143.34 275.96,-133.96"/>
<polygon fill="#63b8ff" stroke="#63b8ff" points="277.44,-136.5 283.68,-127.93 273.47,-130.74 277.44,-136.5"/>
</a>
</g>
</g>
<!-- Node8 -->
<g id="Node000008" class="node">
<title>Node8</title>
<g id="a_Node000008"><a xlink:href="a01382.html" target="_top" xlink:title=" ">
<polygon fill="white" stroke="#666666" points="250.88,-127.5 169.63,-127.5 169.63,-109 250.88,-109 250.88,-127.5"/>
<text text-anchor="middle" x="210.25" y="-114" font-family="Helvetica,sans-Serif" font-size="10.00">utils/spinlock.h</text>
</a>
</g>
</g>
<!-- Node4&#45;&gt;Node8 -->
<g id="edge7_Node000004_Node000008" class="edge">
<title>Node4&#45;&gt;Node8</title>
<g id="a_edge7_Node000004_Node000008"><a xlink:title=" ">
<path fill="none" stroke="#63b8ff" d="M219.43,-163.08C218.02,-156.35 216.02,-146.77 214.24,-138.29"/>
<polygon fill="#63b8ff" stroke="#63b8ff" points="217.51,-137.83 212.03,-128.76 210.66,-139.26 217.51,-137.83"/>
</a>
</g>
</g>
<!-- Node4&#45;&gt;Node11 -->
<g id="edge11_Node000004_Node000011" class="edge">
<title>Node4&#45;&gt;Node11</title>
<g id="a_edge11_Node000004_Node000011"><a xlink:title=" ">
<path fill="none" stroke="#63b8ff" d="M192.52,-163.08C163.55,-154.34 118.64,-140.79 86.42,-131.07"/>
<polygon fill="#63b8ff" stroke="#63b8ff" points="87.61,-127.47 77.03,-127.93 85.59,-134.17 87.61,-127.47"/>
</a>
</g>
</g>
<!-- Node6 -->
<g id="Node000006" class="node">
<title>Node6</title>
<g id="a_Node000006"><a xlink:title=" ">
<polygon fill="#e0e0e0" stroke="#999999" points="386.5,-73 336,-73 336,-54.5 386.5,-54.5 386.5,-73"/>
<text text-anchor="middle" x="361.25" y="-59.5" font-family="Helvetica,sans-Serif" font-size="10.00">stddef.h</text>
</a>
</g>
</g>
<!-- Node5&#45;&gt;Node6 -->
<g id="edge5_Node000005_Node000006" class="edge">
<title>Node5&#45;&gt;Node6</title>
<g id="a_edge5_Node000005_Node000006"><a xlink:title=" ">
<path fill="none" stroke="#63b8ff" d="M307.82,-108.58C317.23,-100.86 331.22,-89.38 342.53,-80.11"/>
<polygon fill="#63b8ff" stroke="#63b8ff" points="344.37,-82.31 349.88,-73.26 339.93,-76.89 344.37,-82.31"/>
</a>
</g>
</g>
<!-- Node7 -->
<g id="Node000007" class="node">
<title>Node7</title>
<g id="a_Node000007"><a xlink:title=" ">
<polygon fill="#e0e0e0" stroke="#999999" points="318,-73 270.5,-73 270.5,-54.5 318,-54.5 318,-73"/>
<text text-anchor="middle" x="294.25" y="-59.5" font-family="Helvetica,sans-Serif" font-size="10.00">stdint.h</text>
</a>
</g>
</g>
<!-- Node5&#45;&gt;Node7 -->
<g id="edge6_Node000005_Node000007" class="edge">
<title>Node5&#45;&gt;Node7</title>
<g id="a_edge6_Node000005_Node000007"><a xlink:title=" ">
<path fill="none" stroke="#63b8ff" d="M296.76,-108.58C296.38,-101.93 295.84,-92.49 295.36,-84.08"/>
<polygon fill="#63b8ff" stroke="#63b8ff" points="298.8,-84.04 294.74,-74.26 291.81,-84.44 298.8,-84.04"/>
</a>
</g>
</g>
<!-- Node8&#45;&gt;Node7 -->
<g id="edge8_Node000008_Node000007" class="edge">
<title>Node8&#45;&gt;Node7</title>
<g id="a_edge8_Node000008_Node000007"><a xlink:title=" ">
<path fill="none" stroke="#63b8ff" d="M224.12,-108.58C236.89,-100.6 256.07,-88.61 271.15,-79.19"/>
<polygon fill="#63b8ff" stroke="#63b8ff" points="272.73,-81.7 279.36,-73.43 269.02,-75.76 272.73,-81.7"/>
</a>
</g>
</g>
<!-- Node9 -->
<g id="Node000009" class="node">
<title>Node9</title>
<g id="a_Node000009"><a xlink:href="a01361.html" target="_top" xlink:title=" ">
<polygon fill="white" stroke="#666666" points="252.75,-73 155.75,-73 155.75,-54.5 252.75,-54.5 252.75,-73"/>
<text text-anchor="middle" x="204.25" y="-59.5" font-family="Helvetica,sans-Serif" font-size="10.00">utils/arax_assert.h</text>
</a>
</g>
</g>
<!-- Node8&#45;&gt;Node9 -->
<g id="edge9_Node000008_Node000009" class="edge">
<title>Node8&#45;&gt;Node9</title>
<g id="a_edge9_Node000008_Node000009"><a xlink:title=" ">
<path fill="none" stroke="#63b8ff" d="M209.26,-108.58C208.5,-101.93 207.42,-92.49 206.46,-84.08"/>
<polygon fill="#63b8ff" stroke="#63b8ff" points="209.84,-83.8 205.22,-74.26 202.88,-84.59 209.84,-83.8"/>
</a>
</g>
</g>
<!-- Node10 -->
<g id="Node000010" class="node">
<title>Node10</title>
<g id="a_Node000010"><a xlink:href="a01370.html" target="_top" xlink:title=" ">
<polygon fill="white" stroke="#666666" points="232.13,-18.5 176.38,-18.5 176.38,0 232.13,0 232.13,-18.5"/>
<text text-anchor="middle" x="204.25" y="-5" font-family="Helvetica,sans-Serif" font-size="10.00">compat.h</text>
</a>
</g>
</g>
<!-- Node9&#45;&gt;Node10 -->
<g id="edge10_Node000009_Node000010" class="edge">
<title>Node9&#45;&gt;Node10</title>
<g id="a_edge10_Node000009_Node000010"><a xlink:title=" ">
<path fill="none" stroke="#63b8ff" d="M204.25,-54.08C204.25,-47.43 204.25,-37.99 204.25,-29.58"/>
<polygon fill="#63b8ff" stroke="#63b8ff" points="207.75,-29.76 204.25,-19.76 200.75,-29.76 207.75,-29.76"/>
</a>
</g>
</g>
<!-- Node13&#45;&gt;Node11 -->
<g id="edge16_Node000013_Node000011" class="edge">
<title>Node13&#45;&gt;Node11</title>
<g id="a_edge16_Node000013_Node000011"><a xlink:title=" ">
<path fill="none" stroke="#63b8ff" d="M47.25,-163.08C47.25,-156.43 47.25,-146.99 47.25,-138.58"/>
<polygon fill="#63b8ff" stroke="#63b8ff" points="50.75,-138.76 47.25,-128.76 43.75,-138.76 50.75,-138.76"/>
</a>
</g>
</g>
<!-- Node14&#45;&gt;Node6 -->
<g id="edge18_Node000014_Node000006" class="edge">
<title>Node14&#45;&gt;Node6</title>
<g id="a_edge18_Node000014_Node000006"><a xlink:title=" ">
<path fill="none" stroke="#63b8ff" d="M361.25,-163.35C361.25,-146.4 361.25,-107.71 361.25,-84.15"/>
<polygon fill="#63b8ff" stroke="#63b8ff" points="364.75,-84.4 361.25,-74.4 357.75,-84.4 364.75,-84.4"/>
</a>
</g>
</g>
</g>
</svg>
