<?xml version="1.0" encoding="UTF-8" standalone="no"?>
<!DOCTYPE svg PUBLIC "-//W3C//DTD SVG 1.1//EN"
 "http://www.w3.org/Graphics/SVG/1.1/DTD/svg11.dtd">
<!-- Generated by graphviz version 8.0.5 (0)
 -->
<!-- Title: async_semaphore_inc Pages: 1 -->
<svg width="1660pt" height="447pt"
 viewBox="0.00 0.00 1660.00 446.50" xmlns="http://www.w3.org/2000/svg" xmlns:xlink="http://www.w3.org/1999/xlink">
<g id="graph0" class="graph" transform="scale(1 1) rotate(0) translate(4 442.5)">
<title>async_semaphore_inc</title>
<!-- Node1 -->
<g id="Node000001" class="node">
<title>Node1</title>
<g id="a_Node000001"><a xlink:title=" ">
<polygon fill="#999999" stroke="#666666" points="1652,-134.5 1539.25,-134.5 1539.25,-116 1652,-116 1652,-134.5"/>
<text text-anchor="middle" x="1595.62" y="-121" font-family="Helvetica,sans-Serif" font-size="10.00">async_semaphore_inc</text>
</a>
</g>
</g>
<!-- Node2 -->
<g id="Node000002" class="node">
<title>Node2</title>
<g id="a_Node000002"><a xlink:href="a02352.html#a45a896fb606c2aa66a5a4c2af59ce494" target="_top" xlink:title=" ">
<polygon fill="white" stroke="#666666" points="1503.25,-134.5 1388.25,-134.5 1388.25,-116 1503.25,-116 1503.25,-134.5"/>
<text text-anchor="middle" x="1445.75" y="-121" font-family="Helvetica,sans-Serif" font-size="10.00">async_condition_notify</text>
</a>
</g>
</g>
<!-- Node1&#45;&gt;Node2 -->
<g id="edge1_Node000001_Node000002" class="edge">
<title>Node1&#45;&gt;Node2</title>
<g id="a_edge1_Node000001_Node000002"><a xlink:title=" ">
<path fill="none" stroke="#63b8ff" d="M1528.36,-125.25C1520.07,-125.25 1511.65,-125.25 1503.53,-125.25"/>
<polygon fill="#63b8ff" stroke="#63b8ff" points="1528.14,-128.75 1538.14,-125.25 1528.14,-121.75 1528.14,-128.75"/>
</a>
</g>
</g>
<!-- Node3 -->
<g id="Node000003" class="node">
<title>Node3</title>
<g id="a_Node000003"><a xlink:href="a01904.html#ab6afd8cc035237c811ce6a1b7727acc3" target="_top" xlink:title=" ">
<polygon fill="white" stroke="#666666" points="1344.38,-307.5 1235.38,-307.5 1235.38,-289 1344.38,-289 1344.38,-307.5"/>
<text text-anchor="middle" x="1289.88" y="-294" font-family="Helvetica,sans-Serif" font-size="10.00">arax_accel_add_task</text>
</a>
</g>
</g>
<!-- Node2&#45;&gt;Node3 -->
<g id="edge2_Node000002_Node000003" class="edge">
<title>Node2&#45;&gt;Node3</title>
<g id="a_edge2_Node000002_Node000003"><a xlink:title=" ">
<path fill="none" stroke="#63b8ff" d="M1429,-142.96C1396.82,-179.14 1324.48,-260.47 1299.53,-288.52"/>
<polygon fill="#63b8ff" stroke="#63b8ff" points="1431.23,-145.6 1435.26,-135.8 1426,-140.94 1431.23,-145.6"/>
</a>
</g>
</g>
<!-- Node13 -->
<g id="Node000013" class="node">
<title>Node13</title>
<g id="a_Node000013"><a xlink:href="a01904.html#af0b933c02a24d69c1efa40179f60288f" target="_top" xlink:title=" ">
<polygon fill="white" stroke="#666666" points="1348.88,-176.5 1230.88,-176.5 1230.88,-158 1348.88,-158 1348.88,-176.5"/>
<text text-anchor="middle" x="1289.88" y="-163" font-family="Helvetica,sans-Serif" font-size="10.00">arax_accel_add_vaccel</text>
</a>
</g>
</g>
<!-- Node2&#45;&gt;Node13 -->
<g id="edge13_Node000002_Node000013" class="edge">
<title>Node2&#45;&gt;Node13</title>
<g id="a_edge13_Node000002_Node000013"><a xlink:title=" ">
<path fill="none" stroke="#63b8ff" d="M1398.45,-137.89C1375.33,-144.2 1347.79,-151.71 1326.37,-157.56"/>
<polygon fill="#63b8ff" stroke="#63b8ff" points="1399.34,-141 1408.06,-134.99 1397.49,-134.25 1399.34,-141"/>
</a>
</g>
</g>
<!-- Node19 -->
<g id="Node000019" class="node">
<title>Node19</title>
<g id="a_Node000019"><a xlink:href="a01904.html#aa3f384ca4812e46dedce753be42654df" target="_top" xlink:title=" ">
<polygon fill="white" stroke="#666666" points="1347.38,-92.5 1232.38,-92.5 1232.38,-74 1347.38,-74 1347.38,-92.5"/>
<text text-anchor="middle" x="1289.88" y="-79" font-family="Helvetica,sans-Serif" font-size="10.00">arax_accel_del_vaccel</text>
</a>
</g>
</g>
<!-- Node2&#45;&gt;Node19 -->
<g id="edge19_Node000002_Node000019" class="edge">
<title>Node2&#45;&gt;Node19</title>
<g id="a_edge19_Node000002_Node000019"><a xlink:title=" ">
<path fill="none" stroke="#63b8ff" d="M1398.45,-112.61C1375.33,-106.3 1347.79,-98.79 1326.37,-92.94"/>
<polygon fill="#63b8ff" stroke="#63b8ff" points="1397.49,-116.25 1408.06,-115.51 1399.34,-109.5 1397.49,-116.25"/>
</a>
</g>
</g>
<!-- Node21 -->
<g id="Node000021" class="node">
<title>Node21</title>
<g id="a_Node000021"><a xlink:href="a01898.html#a57a9203f163a9c8c78e22bde5fa4efbc" target="_top" xlink:title=" ">
<polygon fill="white" stroke="#666666" points="1352.25,-55.5 1227.5,-55.5 1227.5,-37 1352.25,-37 1352.25,-55.5"/>
<text text-anchor="middle" x="1289.88" y="-42" font-family="Helvetica,sans-Serif" font-size="10.00">arax_controller_init_done</text>
</a>
</g>
</g>
<!-- Node2&#45;&gt;Node21 -->
<g id="edge21_Node000002_Node000021" class="edge">
<title>Node2&#45;&gt;Node21</title>
<g id="a_edge21_Node000002_Node000021"><a xlink:title=" ">
<path fill="none" stroke="#63b8ff" d="M1423.64,-109.14C1405.5,-95.9 1378.23,-77.41 1352.25,-65.25 1344.67,-61.7 1336.27,-58.6 1328.17,-55.99"/>
<polygon fill="#63b8ff" stroke="#63b8ff" points="1421.12,-112.37 1431.24,-115.52 1425.29,-106.75 1421.12,-112.37"/>
</a>
</g>
</g>
<!-- Node22 -->
<g id="Node000022" class="node">
<title>Node22</title>
<g id="a_Node000022"><a xlink:href="a01913.html#aa4461ab1d225a0f76f08d2f37a4a7e0e" target="_top" xlink:title=" ">
<polygon fill="white" stroke="#666666" points="1347.38,-139.75 1232.38,-139.75 1232.38,-110.75 1347.38,-110.75 1347.38,-139.75"/>
<text text-anchor="start" x="1240.38" y="-126.25" font-family="Helvetica,sans-Serif" font-size="10.00">arax_pipe_add_orphan</text>
<text text-anchor="middle" x="1289.88" y="-115.75" font-family="Helvetica,sans-Serif" font-size="10.00">_vaccel</text>
</a>
</g>
</g>
<!-- Node2&#45;&gt;Node22 -->
<g id="edge22_Node000002_Node000022" class="edge">
<title>Node2&#45;&gt;Node22</title>
<g id="a_edge22_Node000002_Node000022"><a xlink:title=" ">
<path fill="none" stroke="#63b8ff" d="M1376.99,-125.25C1367.23,-125.25 1357.28,-125.25 1347.76,-125.25"/>
<polygon fill="#63b8ff" stroke="#63b8ff" points="1376.89,-128.75 1386.89,-125.25 1376.89,-121.75 1376.89,-128.75"/>
</a>
</g>
</g>
<!-- Node23 -->
<g id="Node000023" class="node">
<title>Node23</title>
<g id="a_Node000023"><a xlink:href="a01913.html#a6cb53dd71cfaedb214bc5aef0e572cc2" target="_top" xlink:title=" ">
<polygon fill="white" stroke="#666666" points="1348.88,-18.5 1230.88,-18.5 1230.88,0 1348.88,0 1348.88,-18.5"/>
<text text-anchor="middle" x="1289.88" y="-5" font-family="Helvetica,sans-Serif" font-size="10.00">arax_pipe_orphan_stop</text>
</a>
</g>
</g>
<!-- Node2&#45;&gt;Node23 -->
<g id="edge24_Node000002_Node000023" class="edge">
<title>Node2&#45;&gt;Node23</title>
<g id="a_edge24_Node000002_Node000023"><a xlink:title=" ">
<path fill="none" stroke="#63b8ff" d="M1432.04,-107.1C1415.89,-85.33 1386.02,-49.17 1352.25,-28.25 1346.18,-24.49 1339.31,-21.42 1332.42,-18.94"/>
<polygon fill="#63b8ff" stroke="#63b8ff" points="1429.58,-108.67 1438.28,-114.72 1435.25,-104.57 1429.58,-108.67"/>
</a>
</g>
</g>
<!-- Node24 -->
<g id="Node000024" class="node">
<title>Node24</title>
<g id="a_Node000024"><a xlink:href="a01925.html#a22aaf13eb56eb1832e725ef73236116f" target="_top" xlink:title=" ">
<polygon fill="white" stroke="#666666" points="1345.5,-213.5 1234.25,-213.5 1234.25,-195 1345.5,-195 1345.5,-213.5"/>
<text text-anchor="middle" x="1289.88" y="-200" font-family="Helvetica,sans-Serif" font-size="10.00">arax_throttle_size_inc</text>
</a>
</g>
</g>
<!-- Node2&#45;&gt;Node24 -->
<g id="edge25_Node000002_Node000024" class="edge">
<title>Node2&#45;&gt;Node24</title>
<g id="a_edge25_Node000002_Node000024"><a xlink:title=" ">
<path fill="none" stroke="#63b8ff" d="M1423.64,-141.36C1405.5,-154.6 1378.23,-173.09 1352.25,-185.25 1344.67,-188.8 1336.27,-191.9 1328.17,-194.51"/>
<polygon fill="#63b8ff" stroke="#63b8ff" points="1425.29,-143.75 1431.24,-134.98 1421.12,-138.13 1425.29,-143.75"/>
</a>
</g>
</g>
<!-- Node4 -->
<g id="Node000004" class="node">
<title>Node4</title>
<g id="a_Node000004"><a xlink:href="a01928.html#a8b82433bc8c7d7f03683ac521a3679fa" target="_top" xlink:title=" ">
<polygon fill="white" stroke="#666666" points="1182.12,-364.5 1068.62,-364.5 1068.62,-346 1182.12,-346 1182.12,-364.5"/>
<text text-anchor="middle" x="1125.38" y="-351" font-family="Helvetica,sans-Serif" font-size="10.00">arax_vaccel_add_task</text>
</a>
</g>
</g>
<!-- Node3&#45;&gt;Node4 -->
<g id="edge3_Node000003_Node000004" class="edge">
<title>Node3&#45;&gt;Node4</title>
<g id="a_edge3_Node000003_Node000004"><a xlink:title=" ">
<path fill="none" stroke="#63b8ff" d="M1251.31,-311.43C1221.62,-321.84 1180.85,-336.14 1154.08,-345.53"/>
<polygon fill="#63b8ff" stroke="#63b8ff" points="1252.03,-314.53 1260.31,-307.92 1249.71,-307.93 1252.03,-314.53"/>
</a>
</g>
</g>
<!-- Node5 -->
<g id="Node000005" class="node">
<title>Node5</title>
<g id="a_Node000005"><a xlink:href="a01922.html#ace08f924cb86d1310099621564536657" target="_top" xlink:title=" ">
<polygon fill="white" stroke="#666666" points="524.5,-438.5 430.5,-438.5 430.5,-420 524.5,-420 524.5,-438.5"/>
<text text-anchor="middle" x="477.5" y="-425" font-family="Helvetica,sans-Serif" font-size="10.00">arax_task_submit</text>
</a>
</g>
</g>
<!-- Node4&#45;&gt;Node5 -->
<g id="edge4_Node000004_Node000005" class="edge">
<title>Node4&#45;&gt;Node5</title>
<g id="a_edge4_Node000004_Node000005"><a xlink:title=" ">
<path fill="none" stroke="#63b8ff" d="M1070.3,-367.26C1017.26,-378.57 933.96,-395.11 861,-404.25 740.33,-419.36 597.02,-425.64 524.89,-427.99"/>
<polygon fill="#63b8ff" stroke="#63b8ff" points="1070.78,-370.52 1079.82,-365 1069.31,-363.68 1070.78,-370.52"/>
</a>
</g>
</g>
<!-- Node6 -->
<g id="Node000006" class="node">
<title>Node6</title>
<g id="a_Node000006"><a xlink:href="a02177.html#gac9f0f3fbb14da879d3ff09bd367bbb24" target="_top" xlink:title=" ">
<polygon fill="white" stroke="#666666" points="394.5,-234.5 306.5,-234.5 306.5,-216 394.5,-216 394.5,-234.5"/>
<text text-anchor="middle" x="350.5" y="-221" font-family="Helvetica,sans-Serif" font-size="10.00">arax_task_issue</text>
</a>
</g>
</g>
<!-- Node5&#45;&gt;Node6 -->
<g id="edge5_Node000005_Node000006" class="edge">
<title>Node5&#45;&gt;Node6</title>
<g id="a_edge5_Node000005_Node000006"><a xlink:title=" ">
<path fill="none" stroke="#63b8ff" d="M470.66,-409.2C459.93,-374.95 434.46,-304.23 394.5,-256.25 387.32,-247.62 377.21,-240.18 368.6,-234.75"/>
<polygon fill="#63b8ff" stroke="#63b8ff" points="467.59,-410.14 473.84,-418.7 474.29,-408.11 467.59,-410.14"/>
</a>
</g>
</g>
<!-- Node7 -->
<g id="Node000007" class="node">
<title>Node7</title>
<g id="a_Node000007"><a xlink:href="a01931.html#af8ede6fc8d207004035f45d945688d2c" target="_top" xlink:title=" ">
<polygon fill="white" stroke="#666666" points="253.62,-309.75 155.12,-309.75 155.12,-280.75 253.62,-280.75 253.62,-309.75"/>
<text text-anchor="start" x="163.12" y="-296.25" font-family="Helvetica,sans-Serif" font-size="10.00">arax_data_allocate</text>
<text text-anchor="middle" x="204.38" y="-285.75" font-family="Helvetica,sans-Serif" font-size="10.00">_remote</text>
</a>
</g>
</g>
<!-- Node6&#45;&gt;Node7 -->
<g id="edge6_Node000006_Node000007" class="edge">
<title>Node6&#45;&gt;Node7</title>
<g id="a_edge6_Node000006_Node000007"><a xlink:title=" ">
<path fill="none" stroke="#63b8ff" d="M325.5,-240.7C310.14,-250.21 289.58,-262.26 270.5,-271.25 263.74,-274.43 256.44,-277.48 249.25,-280.28"/>
<polygon fill="#63b8ff" stroke="#63b8ff" points="327.17,-243.15 333.78,-234.87 323.45,-237.23 327.17,-243.15"/>
</a>
</g>
</g>
<!-- Node8 -->
<g id="Node000008" class="node">
<title>Node8</title>
<g id="a_Node000008"><a xlink:href="a01931.html#a696bc4319d0f6c6baa7d797a8df6b56f" target="_top" xlink:title=" ">
<polygon fill="white" stroke="#666666" points="243.5,-225.5 165.25,-225.5 165.25,-207 243.5,-207 243.5,-225.5"/>
<text text-anchor="middle" x="204.38" y="-212" font-family="Helvetica,sans-Serif" font-size="10.00">arax_data_get</text>
</a>
</g>
</g>
<!-- Node6&#45;&gt;Node8 -->
<g id="edge7_Node000006_Node000008" class="edge">
<title>Node6&#45;&gt;Node8</title>
<g id="a_edge7_Node000006_Node000008"><a xlink:title=" ">
<path fill="none" stroke="#63b8ff" d="M295.72,-221.89C278.43,-220.81 259.64,-219.64 243.69,-218.64"/>
<polygon fill="#63b8ff" stroke="#63b8ff" points="295.06,-225.42 305.26,-222.55 295.5,-218.43 295.06,-225.42"/>
</a>
</g>
</g>
<!-- Node10 -->
<g id="Node000010" class="node">
<title>Node10</title>
<g id="a_Node000010"><a xlink:href="a01931.html#a8995f71dba475975efc37756783cfce9" target="_top" xlink:title=" ">
<polygon fill="white" stroke="#666666" points="243.5,-188.5 165.25,-188.5 165.25,-170 243.5,-170 243.5,-188.5"/>
<text text-anchor="middle" x="204.38" y="-175" font-family="Helvetica,sans-Serif" font-size="10.00">arax_data_set</text>
</a>
</g>
</g>
<!-- Node6&#45;&gt;Node10 -->
<g id="edge9_Node000006_Node000010" class="edge">
<title>Node6&#45;&gt;Node10</title>
<g id="a_edge9_Node000006_Node000010"><a xlink:title=" ">
<path fill="none" stroke="#63b8ff" d="M312.1,-212.08C298.98,-207.56 284.13,-202.56 270.5,-198.25 260.51,-195.09 249.59,-191.83 239.6,-188.92"/>
<polygon fill="#63b8ff" stroke="#63b8ff" points="310.59,-215.6 321.18,-215.57 312.88,-208.99 310.59,-215.6"/>
</a>
</g>
</g>
<!-- Node11 -->
<g id="Node000011" class="node">
<title>Node11</title>
<g id="a_Node000011"><a xlink:href="a01931.html#af735744d0f8bec04394639a841d2ba0f" target="_top" xlink:title=" ">
<polygon fill="white" stroke="#666666" points="270.5,-151.5 138.25,-151.5 138.25,-133 270.5,-133 270.5,-151.5"/>
<text text-anchor="middle" x="204.38" y="-138" font-family="Helvetica,sans-Serif" font-size="10.00">ARAX_OBJ_DTOR_DECL</text>
</a>
</g>
</g>
<!-- Node6&#45;&gt;Node11 -->
<g id="edge11_Node000006_Node000011" class="edge">
<title>Node6&#45;&gt;Node11</title>
<g id="a_edge11_Node000006_Node000011"><a xlink:title=" ">
<path fill="none" stroke="#63b8ff" d="M324.04,-209.92C318.11,-206.02 311.95,-201.67 306.5,-197.25 288.92,-183 289.97,-172.78 270.5,-161.25 264.12,-157.47 256.93,-154.4 249.72,-151.92"/>
<polygon fill="#63b8ff" stroke="#63b8ff" points="321.7,-213.22 332.02,-215.64 325.46,-207.32 321.7,-213.22"/>
</a>
</g>
</g>
<!-- Node12 -->
<g id="Node000012" class="node">
<title>Node12</title>
<g id="a_Node000012"><a xlink:href="a02177.html#ga1418f4cd7336bf77cce7b955a1bf7077" target="_top" xlink:title=" ">
<polygon fill="white" stroke="#666666" points="261.12,-262.5 147.62,-262.5 147.62,-244 261.12,-244 261.12,-262.5"/>
<text text-anchor="middle" x="204.38" y="-249" font-family="Helvetica,sans-Serif" font-size="10.00">arax_task_issue_sync</text>
</a>
</g>
</g>
<!-- Node6&#45;&gt;Node12 -->
<g id="edge12_Node000006_Node000012" class="edge">
<title>Node6&#45;&gt;Node12</title>
<g id="a_edge12_Node000006_Node000012"><a xlink:title=" ">
<path fill="none" stroke="#63b8ff" d="M295.47,-235.75C282.34,-238.3 268.36,-241.01 255.42,-243.53"/>
<polygon fill="#63b8ff" stroke="#63b8ff" points="296.11,-238.99 305.26,-233.65 294.77,-232.12 296.11,-238.99"/>
</a>
</g>
</g>
<!-- Node9 -->
<g id="Node000009" class="node">
<title>Node9</title>
<g id="a_Node000009"><a xlink:href="a01931.html#a7d8356bd5c8b6a8d7dffc6ba94cc22e5" target="_top" xlink:title=" ">
<polygon fill="white" stroke="#666666" points="102.25,-206.5 0,-206.5 0,-188 102.25,-188 102.25,-206.5"/>
<text text-anchor="middle" x="51.12" y="-193" font-family="Helvetica,sans-Serif" font-size="10.00">arax_data_memcpy</text>
</a>
</g>
</g>
<!-- Node8&#45;&gt;Node9 -->
<g id="edge8_Node000008_Node000009" class="edge">
<title>Node8&#45;&gt;Node9</title>
<g id="a_edge8_Node000008_Node000009"><a xlink:title=" ">
<path fill="none" stroke="#63b8ff" d="M154.27,-210.08C137.73,-208 119.26,-205.68 102.61,-203.59"/>
<polygon fill="#63b8ff" stroke="#63b8ff" points="153.46,-213.63 163.82,-211.41 154.33,-206.69 153.46,-213.63"/>
</a>
</g>
</g>
<!-- Node10&#45;&gt;Node9 -->
<g id="edge10_Node000010_Node000009" class="edge">
<title>Node10&#45;&gt;Node9</title>
<g id="a_edge10_Node000010_Node000009"><a xlink:title=" ">
<path fill="none" stroke="#63b8ff" d="M154.27,-185.09C137.73,-187.06 119.26,-189.26 102.61,-191.24"/>
<polygon fill="#63b8ff" stroke="#63b8ff" points="154.3,-188.5 163.82,-183.84 153.47,-181.55 154.3,-188.5"/>
</a>
</g>
</g>
<!-- Node14 -->
<g id="Node000014" class="node">
<title>Node14</title>
<g id="a_Node000014"><a xlink:href="a02175.html#ga30b30e50de286842c7942a7e3e163578" target="_top" xlink:title=" ">
<polygon fill="white" stroke="#666666" points="1187,-176.5 1063.75,-176.5 1063.75,-158 1187,-158 1187,-176.5"/>
<text text-anchor="middle" x="1125.38" y="-163" font-family="Helvetica,sans-Serif" font-size="10.00">arax_accel_set_physical</text>
</a>
</g>
</g>
<!-- Node13&#45;&gt;Node14 -->
<g id="edge14_Node000013_Node000014" class="edge">
<title>Node13&#45;&gt;Node14</title>
<g id="a_edge14_Node000013_Node000014"><a xlink:title=" ">
<path fill="none" stroke="#63b8ff" d="M1219.99,-167.25C1209.19,-167.25 1198.08,-167.25 1187.47,-167.25"/>
<polygon fill="#63b8ff" stroke="#63b8ff" points="1219.67,-170.75 1229.67,-167.25 1219.67,-163.75 1219.67,-170.75"/>
</a>
</g>
</g>
<!-- Node15 -->
<g id="Node000015" class="node">
<title>Node15</title>
<g id="a_Node000015"><a xlink:href="a01928.html#a83ddb422946cf774c687c1ab63dcda15" target="_top" xlink:title=" ">
<polygon fill="white" stroke="#666666" points="1168.62,-134.5 1082.12,-134.5 1082.12,-116 1168.62,-116 1168.62,-134.5"/>
<text text-anchor="middle" x="1125.38" y="-121" font-family="Helvetica,sans-Serif" font-size="10.00">arax_vaccel_init</text>
</a>
</g>
</g>
<!-- Node13&#45;&gt;Node15 -->
<g id="edge15_Node000013_Node000015" class="edge">
<title>Node13&#45;&gt;Node15</title>
<g id="a_edge15_Node000013_Node000015"><a xlink:title=" ">
<path fill="none" stroke="#63b8ff" d="M1240.64,-154.78C1216.09,-148.44 1186.69,-140.84 1163.86,-134.94"/>
<polygon fill="#63b8ff" stroke="#63b8ff" points="1239.63,-158.39 1250.19,-157.51 1241.38,-151.62 1239.63,-158.39"/>
</a>
</g>
</g>
<!-- Node16 -->
<g id="Node000016" class="node">
<title>Node16</title>
<g id="a_Node000016"><a xlink:href="a02175.html#gaf8a10ab4e51e59c464ab3ab473e4a0f7" target="_top" xlink:title=" ">
<polygon fill="white" stroke="#666666" points="1023.25,-169.5 897,-169.5 897,-151 1023.25,-151 1023.25,-169.5"/>
<text text-anchor="middle" x="960.12" y="-156" font-family="Helvetica,sans-Serif" font-size="10.00">arax_accel_acquire_phys</text>
</a>
</g>
</g>
<!-- Node15&#45;&gt;Node16 -->
<g id="edge16_Node000015_Node000016" class="edge">
<title>Node15&#45;&gt;Node16</title>
<g id="a_edge16_Node000015_Node000016"><a xlink:title=" ">
<path fill="none" stroke="#63b8ff" d="M1071.27,-136.63C1050.37,-141.12 1026.61,-146.21 1006.52,-150.52"/>
<polygon fill="#63b8ff" stroke="#63b8ff" points="1071.87,-139.87 1080.91,-134.35 1070.4,-133.03 1071.87,-139.87"/>
</a>
</g>
</g>
<!-- Node17 -->
<g id="Node000017" class="node">
<title>Node17</title>
<g id="a_Node000017"><a xlink:href="a02175.html#ga008252bb9afc2990fa2c5f4b980c9f27" target="_top" xlink:title=" ">
<polygon fill="white" stroke="#666666" points="1022.5,-132.5 897.75,-132.5 897.75,-114 1022.5,-114 1022.5,-132.5"/>
<text text-anchor="middle" x="960.12" y="-119" font-family="Helvetica,sans-Serif" font-size="10.00">arax_accel_acquire_type</text>
</a>
</g>
</g>
<!-- Node15&#45;&gt;Node17 -->
<g id="edge17_Node000015_Node000017" class="edge">
<title>Node15&#45;&gt;Node17</title>
<g id="a_edge17_Node000015_Node000017"><a xlink:title=" ">
<path fill="none" stroke="#63b8ff" d="M1070.99,-124.6C1055.57,-124.41 1038.62,-124.2 1022.75,-124"/>
<polygon fill="#63b8ff" stroke="#63b8ff" points="1070.87,-128.11 1080.91,-124.73 1070.95,-121.11 1070.87,-128.11"/>
</a>
</g>
</g>
<!-- Node18 -->
<g id="Node000018" class="node">
<title>Node18</title>
<g id="a_Node000018"><a xlink:href="a01904.html#a0706a66a62ca8710342ac1c097b703ed" target="_top" xlink:title=" ">
<polygon fill="white" stroke="#666666" points="1001.12,-95.5 919.12,-95.5 919.12,-77 1001.12,-77 1001.12,-95.5"/>
<text text-anchor="middle" x="960.12" y="-82" font-family="Helvetica,sans-Serif" font-size="10.00">arax_accel_init</text>
</a>
</g>
</g>
<!-- Node15&#45;&gt;Node18 -->
<g id="edge18_Node000015_Node000018" class="edge">
<title>Node15&#45;&gt;Node18</title>
<g id="a_edge18_Node000015_Node000018"><a xlink:title=" ">
<path fill="none" stroke="#63b8ff" d="M1072.94,-112.96C1049.84,-107.44 1022.98,-101.03 1001.38,-95.87"/>
<polygon fill="#63b8ff" stroke="#63b8ff" points="1072.06,-116.59 1082.6,-115.51 1073.69,-109.78 1072.06,-116.59"/>
</a>
</g>
</g>
<!-- Node20 -->
<g id="Node000020" class="node">
<title>Node20</title>
<g id="a_Node000020"><a xlink:href="a01928.html#a5920cc4cd90589f3c5ac8686a72bcfc0" target="_top" xlink:title=" ">
<polygon fill="white" stroke="#666666" points="1191.5,-92.5 1059.25,-92.5 1059.25,-74 1191.5,-74 1191.5,-92.5"/>
<text text-anchor="middle" x="1125.38" y="-79" font-family="Helvetica,sans-Serif" font-size="10.00">ARAX_OBJ_DTOR_DECL</text>
</a>
</g>
</g>
<!-- Node19&#45;&gt;Node20 -->
<g id="edge20_Node000019_Node000020" class="edge">
<title>Node19&#45;&gt;Node20</title>
<g id="a_edge20_Node000019_Node000020"><a xlink:title=" ">
<path fill="none" stroke="#63b8ff" d="M1221.2,-83.25C1211.48,-83.25 1201.49,-83.25 1191.8,-83.25"/>
<polygon fill="#63b8ff" stroke="#63b8ff" points="1221.04,-86.75 1231.04,-83.25 1221.04,-79.75 1221.04,-86.75"/>
</a>
</g>
</g>
<!-- Node22&#45;&gt;Node15 -->
<g id="edge23_Node000022_Node000015" class="edge">
<title>Node22&#45;&gt;Node15</title>
<g id="a_edge23_Node000022_Node000015"><a xlink:title=" ">
<path fill="none" stroke="#63b8ff" d="M1221.2,-125.25C1203.56,-125.25 1185.03,-125.25 1169.09,-125.25"/>
<polygon fill="#63b8ff" stroke="#63b8ff" points="1221.04,-128.75 1231.04,-125.25 1221.04,-121.75 1221.04,-128.75"/>
</a>
</g>
</g>
<!-- Node25 -->
<g id="Node000025" class="node">
<title>Node25</title>
<g id="a_Node000025"><a xlink:href="a01904.html#a9443355ad3d09b08427e538d75cab254" target="_top" xlink:title=" ">
<polygon fill="white" stroke="#666666" points="1177.62,-213.5 1073.12,-213.5 1073.12,-195 1177.62,-195 1177.62,-213.5"/>
<text text-anchor="middle" x="1125.38" y="-200" font-family="Helvetica,sans-Serif" font-size="10.00">arax_accel_size_inc</text>
</a>
</g>
</g>
<!-- Node24&#45;&gt;Node25 -->
<g id="edge26_Node000024_Node000025" class="edge">
<title>Node24&#45;&gt;Node25</title>
<g id="a_edge26_Node000024_Node000025"><a xlink:title=" ">
<path fill="none" stroke="#63b8ff" d="M1223.1,-204.25C1208.09,-204.25 1192.36,-204.25 1178.04,-204.25"/>
<polygon fill="#63b8ff" stroke="#63b8ff" points="1222.86,-207.75 1232.86,-204.25 1222.86,-200.75 1222.86,-207.75"/>
</a>
</g>
</g>
<!-- Node26 -->
<g id="Node000026" class="node">
<title>Node26</title>
<g id="a_Node000026"><a xlink:href="a01913.html#a5144f906658718ef853a8d18dda1e724" target="_top" xlink:title=" ">
<polygon fill="white" stroke="#666666" points="1175,-250.5 1075.75,-250.5 1075.75,-232 1175,-232 1175,-250.5"/>
<text text-anchor="middle" x="1125.38" y="-237" font-family="Helvetica,sans-Serif" font-size="10.00">arax_pipe_size_inc</text>
</a>
</g>
</g>
<!-- Node24&#45;&gt;Node26 -->
<g id="edge27_Node000024_Node000026" class="edge">
<title>Node24&#45;&gt;Node26</title>
<g id="a_edge27_Node000024_Node000026"><a xlink:title=" ">
<path fill="none" stroke="#63b8ff" d="M1235.54,-216.39C1213.97,-221.3 1189.42,-226.9 1169.07,-231.53"/>
<polygon fill="#63b8ff" stroke="#63b8ff" points="1236.21,-219.6 1245.18,-213.97 1234.65,-212.78 1236.21,-219.6"/>
</a>
</g>
</g>
<!-- Node27 -->
<g id="Node000027" class="node">
<title>Node27</title>
<g id="a_Node000027"><a xlink:href="a01910.html#afe7e4a63c40fbcaae742b8de8693483f" target="_top" xlink:title=" ">
<polygon fill="white" stroke="#666666" points="1012.38,-253.5 907.88,-253.5 907.88,-235 1012.38,-235 1012.38,-253.5"/>
<text text-anchor="middle" x="960.12" y="-240" font-family="Helvetica,sans-Serif" font-size="10.00">arax_object_ref_dec</text>
</a>
</g>
</g>
<!-- Node26&#45;&gt;Node27 -->
<g id="edge28_Node000026_Node000027" class="edge">
<title>Node26&#45;&gt;Node27</title>
<g id="a_edge28_Node000026_Node000027"><a xlink:title=" ">
<path fill="none" stroke="#63b8ff" d="M1064.45,-242.35C1047.44,-242.66 1029.08,-243 1012.62,-243.3"/>
<polygon fill="#63b8ff" stroke="#63b8ff" points="1064.46,-245.83 1074.39,-242.15 1064.33,-238.83 1064.46,-245.83"/>
</a>
</g>
</g>
<!-- Node41 -->
<g id="Node000041" class="node">
<title>Node41</title>
<g id="a_Node000041"><a xlink:href="a01910.html#a0a0b147b7fc892c291afe60cb0fa2c1c" target="_top" xlink:title=" ">
<polygon fill="white" stroke="#666666" points="1012.38,-216.75 907.88,-216.75 907.88,-187.75 1012.38,-187.75 1012.38,-216.75"/>
<text text-anchor="start" x="915.88" y="-203.25" font-family="Helvetica,sans-Serif" font-size="10.00">arax_object_ref_dec</text>
<text text-anchor="middle" x="960.12" y="-192.75" font-family="Helvetica,sans-Serif" font-size="10.00">_pre_locked</text>
</a>
</g>
</g>
<!-- Node26&#45;&gt;Node41 -->
<g id="edge50_Node000026_Node000041" class="edge">
<title>Node26&#45;&gt;Node41</title>
<g id="a_edge50_Node000026_Node000041"><a xlink:title=" ">
<path fill="none" stroke="#63b8ff" d="M1072.95,-228.96C1053.77,-224.38 1032,-219.18 1012.8,-214.59"/>
<polygon fill="#63b8ff" stroke="#63b8ff" points="1072.06,-232.59 1082.6,-231.51 1073.69,-225.78 1072.06,-232.59"/>
</a>
</g>
</g>
<!-- Node27&#45;&gt;Node11 -->
<g id="edge40_Node000027_Node000011" class="edge">
<title>Node27&#45;&gt;Node11</title>
<g id="a_edge40_Node000027_Node000011"><a xlink:title=" ">
<path fill="none" stroke="#63b8ff" d="M900.85,-229.21C899.52,-228.28 898.23,-227.3 897,-226.25 868.54,-202.02 891.79,-171.44 861,-150.25 775.3,-91.28 731.66,-132.25 627.62,-132.25 627.62,-132.25 627.62,-132.25 476.5,-132.25 406.2,-132.25 325.72,-135.65 270.82,-138.48"/>
<polygon fill="#63b8ff" stroke="#63b8ff" points="898.81,-232.65 909.24,-234.54 902.27,-226.56 898.81,-232.65"/>
</a>
</g>
</g>
<!-- Node28 -->
<g id="Node000028" class="node">
<title>Node28</title>
<g id="a_Node000028"><a xlink:href="a02175.html#ga41bcefd54b929d1a638d174da051130f" target="_top" xlink:title=" ">
<polygon fill="white" stroke="#666666" points="846.75,-104.5 743,-104.5 743,-86 846.75,-86 846.75,-104.5"/>
<text text-anchor="middle" x="794.88" y="-91" font-family="Helvetica,sans-Serif" font-size="10.00">arax_accel_list_free</text>
</a>
</g>
</g>
<!-- Node27&#45;&gt;Node28 -->
<g id="edge29_Node000027_Node000028" class="edge">
<title>Node27&#45;&gt;Node28</title>
<g id="a_edge29_Node000027_Node000028"><a xlink:title=" ">
<path fill="none" stroke="#63b8ff" d="M899.72,-228.65C898.78,-227.88 897.87,-227.09 897,-226.25 860.52,-191.19 896.46,-154.34 861,-118.25 855.37,-112.52 848.23,-108.21 840.75,-104.98"/>
<polygon fill="#63b8ff" stroke="#63b8ff" points="897.6,-232.09 907.9,-234.55 901.38,-226.2 897.6,-232.09"/>
</a>
</g>
</g>
<!-- Node29 -->
<g id="Node000029" class="node">
<title>Node29</title>
<g id="a_Node000029"><a xlink:href="a02175.html#ga497b17905d4c7ee2f5ee831d367ece92" target="_top" xlink:title=" ">
<polygon fill="white" stroke="#666666" points="845.25,-364.5 744.5,-364.5 744.5,-346 845.25,-346 845.25,-364.5"/>
<text text-anchor="middle" x="794.88" y="-351" font-family="Helvetica,sans-Serif" font-size="10.00">arax_accel_release</text>
</a>
</g>
</g>
<!-- Node27&#45;&gt;Node29 -->
<g id="edge30_Node000027_Node000029" class="edge">
<title>Node27&#45;&gt;Node29</title>
<g id="a_edge30_Node000027_Node000029"><a xlink:title=" ">
<path fill="none" stroke="#63b8ff" d="M944.7,-262.13C927.06,-282.86 895.28,-316.69 861,-336.25 854.45,-339.99 847.11,-343.04 839.78,-345.52"/>
<polygon fill="#63b8ff" stroke="#63b8ff" points="947.87,-264.8 951.57,-254.87 942.48,-260.32 947.87,-264.8"/>
</a>
</g>
</g>
<!-- Node31 -->
<g id="Node000031" class="node">
<title>Node31</title>
<g id="a_Node000031"><a xlink:href="a01931.html#a96e0520e5569748ce1172bafca24fafe" target="_top" xlink:title=" ">
<polygon fill="white" stroke="#666666" points="835.5,-327.5 754.25,-327.5 754.25,-309 835.5,-309 835.5,-327.5"/>
<text text-anchor="middle" x="794.88" y="-314" font-family="Helvetica,sans-Serif" font-size="10.00">arax_data_free</text>
</a>
</g>
</g>
<!-- Node27&#45;&gt;Node31 -->
<g id="edge32_Node000027_Node000031" class="edge">
<title>Node27&#45;&gt;Node31</title>
<g id="a_edge32_Node000027_Node000031"><a xlink:title=" ">
<path fill="none" stroke="#63b8ff" d="M935.09,-259.76C915.69,-271.77 887.38,-288.18 861,-299.25 852.64,-302.76 843.41,-305.88 834.6,-308.52"/>
<polygon fill="#63b8ff" stroke="#63b8ff" points="936.76,-262.21 943.37,-253.93 933.04,-256.29 936.76,-262.21"/>
</a>
</g>
</g>
<!-- Node32 -->
<g id="Node000032" class="node">
<title>Node32</title>
<g id="a_Node000032"><a xlink:href="a01931.html#a4b65f90a821aca384f0ca1cff7bd1846" target="_top" xlink:title=" ">
<polygon fill="white" stroke="#666666" points="857.62,-216.5 732.12,-216.5 732.12,-198 857.62,-198 857.62,-216.5"/>
<text text-anchor="middle" x="794.88" y="-203" font-family="Helvetica,sans-Serif" font-size="10.00">arax_data_migrate_accel</text>
</a>
</g>
</g>
<!-- Node27&#45;&gt;Node32 -->
<g id="edge33_Node000027_Node000032" class="edge">
<title>Node27&#45;&gt;Node32</title>
<g id="a_edge33_Node000027_Node000032"><a xlink:title=" ">
<path fill="none" stroke="#63b8ff" d="M905.54,-232.11C883.88,-227.2 859.21,-221.6 838.76,-216.97"/>
<polygon fill="#63b8ff" stroke="#63b8ff" points="904.71,-235.73 915.23,-234.53 906.25,-228.9 904.71,-235.73"/>
</a>
</g>
</g>
<!-- Node37 -->
<g id="Node000037" class="node">
<title>Node37</title>
<g id="a_Node000037"><a xlink:href="a01922.html#a5eb16d4196838d10a2b57715f2eddee7" target="_top" xlink:title=" ">
<polygon fill="white" stroke="#666666" points="861,-290.5 728.75,-290.5 728.75,-272 861,-272 861,-290.5"/>
<text text-anchor="middle" x="794.88" y="-277" font-family="Helvetica,sans-Serif" font-size="10.00">ARAX_OBJ_DTOR_DECL</text>
</a>
</g>
</g>
<!-- Node27&#45;&gt;Node37 -->
<g id="edge41_Node000027_Node000037" class="edge">
<title>Node27&#45;&gt;Node37</title>
<g id="a_edge41_Node000027_Node000037"><a xlink:title=" ">
<path fill="none" stroke="#63b8ff" d="M905.54,-256.39C883.88,-261.3 859.21,-266.9 838.76,-271.53"/>
<polygon fill="#63b8ff" stroke="#63b8ff" points="906.25,-259.6 915.23,-253.97 904.71,-252.77 906.25,-259.6"/>
</a>
</g>
</g>
<!-- Node38 -->
<g id="Node000038" class="node">
<title>Node38</title>
<g id="a_Node000038"><a xlink:href="a01913.html#aa0862a60d187bfed0cfa11bf27174551" target="_top" xlink:title=" ">
<polygon fill="white" stroke="#666666" points="854.25,-253.5 735.5,-253.5 735.5,-235 854.25,-235 854.25,-253.5"/>
<text text-anchor="middle" x="794.88" y="-240" font-family="Helvetica,sans-Serif" font-size="10.00">arax_pipe_delete_accel</text>
</a>
</g>
</g>
<!-- Node27&#45;&gt;Node38 -->
<g id="edge42_Node000027_Node000038" class="edge">
<title>Node27&#45;&gt;Node38</title>
<g id="a_edge42_Node000027_Node000038"><a xlink:title=" ">
<path fill="none" stroke="#63b8ff" d="M896.6,-244.25C882.8,-244.25 868.23,-244.25 854.58,-244.25"/>
<polygon fill="#63b8ff" stroke="#63b8ff" points="896.47,-247.75 906.47,-244.25 896.47,-240.75 896.47,-247.75"/>
</a>
</g>
</g>
<!-- Node39 -->
<g id="Node000039" class="node">
<title>Node39</title>
<g id="a_Node000039"><a xlink:href="a02176.html#ga70242aa6d9591e5fa3dbb36f1e27a896" target="_top" xlink:title=" ">
<polygon fill="white" stroke="#666666" points="389.62,-188.5 311.38,-188.5 311.38,-170 389.62,-170 389.62,-188.5"/>
<text text-anchor="middle" x="350.5" y="-175" font-family="Helvetica,sans-Serif" font-size="10.00">arax_proc_put</text>
</a>
</g>
</g>
<!-- Node27&#45;&gt;Node39 -->
<g id="edge43_Node000027_Node000039" class="edge">
<title>Node27&#45;&gt;Node39</title>
<g id="a_edge43_Node000027_Node000039"><a xlink:title=" ">
<path fill="none" stroke="#63b8ff" d="M904.8,-230.38C902.1,-229.12 899.49,-227.74 897,-226.25 877.33,-214.44 882.05,-198.38 861,-189.25 698.27,-118.65 477.91,-152.5 390.01,-170.5"/>
<polygon fill="#63b8ff" stroke="#63b8ff" points="903.24,-233.94 913.82,-234.5 905.9,-227.46 903.24,-233.94"/>
</a>
</g>
</g>
<!-- Node40 -->
<g id="Node000040" class="node">
<title>Node40</title>
<g id="a_Node000040"><a xlink:href="a02177.html#ga55195957c1cde1508257782716aa6db3" target="_top" xlink:title=" ">
<polygon fill="white" stroke="#666666" points="391.12,-283.5 309.88,-283.5 309.88,-265 391.12,-265 391.12,-283.5"/>
<text text-anchor="middle" x="350.5" y="-270" font-family="Helvetica,sans-Serif" font-size="10.00">arax_task_free</text>
</a>
</g>
</g>
<!-- Node27&#45;&gt;Node40 -->
<g id="edge46_Node000027_Node000040" class="edge">
<title>Node27&#45;&gt;Node40</title>
<g id="a_edge46_Node000027_Node000040"><a xlink:title=" ">
<path fill="none" stroke="#63b8ff" d="M951.29,-263.49C937.9,-293.45 907.48,-350.21 861,-373.25 741.34,-432.57 690.8,-402.55 560.5,-373.25 482.16,-355.63 398.66,-305.12 365.88,-283.86"/>
<polygon fill="#63b8ff" stroke="#63b8ff" points="954.73,-265.35 955.45,-254.78 948.3,-262.59 954.73,-265.35"/>
</a>
</g>
</g>
<!-- Node30 -->
<g id="Node000030" class="node">
<title>Node30</title>
<g id="a_Node000030"><a xlink:href="a01904.html#a871ba8da471f464d7e10b13d5db07101" target="_top" xlink:title=" ">
<polygon fill="white" stroke="#666666" points="692.75,-364.5 560.5,-364.5 560.5,-346 692.75,-346 692.75,-364.5"/>
<text text-anchor="middle" x="626.62" y="-351" font-family="Helvetica,sans-Serif" font-size="10.00">ARAX_OBJ_DTOR_DECL</text>
</a>
</g>
</g>
<!-- Node29&#45;&gt;Node30 -->
<g id="edge31_Node000029_Node000030" class="edge">
<title>Node29&#45;&gt;Node30</title>
<g id="a_edge31_Node000029_Node000030"><a xlink:title=" ">
<path fill="none" stroke="#63b8ff" d="M733.63,-355.25C720.49,-355.25 706.53,-355.25 693.19,-355.25"/>
<polygon fill="#63b8ff" stroke="#63b8ff" points="733.44,-358.75 743.44,-355.25 733.44,-351.75 733.44,-358.75"/>
</a>
</g>
</g>
<!-- Node33 -->
<g id="Node000033" class="node">
<title>Node33</title>
<g id="a_Node000033"><a xlink:href="a01931.html#a113a3c52b0c3b4f3b390921ee4c5022e" target="_top" xlink:title=" ">
<polygon fill="white" stroke="#666666" points="674.75,-290.5 578.5,-290.5 578.5,-272 674.75,-272 674.75,-290.5"/>
<text text-anchor="middle" x="626.62" y="-277" font-family="Helvetica,sans-Serif" font-size="10.00">arax_data_arg_init</text>
</a>
</g>
</g>
<!-- Node32&#45;&gt;Node33 -->
<g id="edge34_Node000032_Node000033" class="edge">
<title>Node32&#45;&gt;Node33</title>
<g id="a_edge34_Node000032_Node000033"><a xlink:title=" ">
<path fill="none" stroke="#63b8ff" d="M739.49,-220.81C735.76,-222.43 732.14,-224.24 728.75,-226.25 709.28,-237.78 712.22,-250.72 692.75,-262.25 686.37,-266.03 679.18,-269.1 671.97,-271.58"/>
<polygon fill="#63b8ff" stroke="#63b8ff" points="740.47,-223.79 748.53,-216.92 737.94,-217.27 740.47,-223.79"/>
</a>
</g>
</g>
<!-- Node34 -->
<g id="Node000034" class="node">
<title>Node34</title>
<g id="a_Node000034"><a xlink:href="a01931.html#a1dc669466d6f52d5be8af2d991512ac2" target="_top" xlink:title=" ">
<polygon fill="white" stroke="#666666" points="678.5,-253.5 574.75,-253.5 574.75,-235 678.5,-235 678.5,-253.5"/>
<text text-anchor="middle" x="626.62" y="-240" font-family="Helvetica,sans-Serif" font-size="10.00">arax_data_input_init</text>
</a>
</g>
</g>
<!-- Node32&#45;&gt;Node34 -->
<g id="edge35_Node000032_Node000034" class="edge">
<title>Node32&#45;&gt;Node34</title>
<g id="a_edge35_Node000032_Node000034"><a xlink:title=" ">
<path fill="none" stroke="#63b8ff" d="M739.61,-219.33C717.47,-224.25 692.22,-229.87 671.3,-234.53"/>
<polygon fill="#63b8ff" stroke="#63b8ff" points="740.19,-222.56 749.19,-216.97 738.67,-215.73 740.19,-222.56"/>
</a>
</g>
</g>
<!-- Node36 -->
<g id="Node000036" class="node">
<title>Node36</title>
<g id="a_Node000036"><a xlink:href="a01931.html#a18d07d808917e0b971d46332e9e64da4" target="_top" xlink:title=" ">
<polygon fill="white" stroke="#666666" points="681.5,-216.5 571.75,-216.5 571.75,-198 681.5,-198 681.5,-216.5"/>
<text text-anchor="middle" x="626.62" y="-203" font-family="Helvetica,sans-Serif" font-size="10.00">arax_data_output_init</text>
</a>
</g>
</g>
<!-- Node32&#45;&gt;Node36 -->
<g id="edge38_Node000032_Node000036" class="edge">
<title>Node32&#45;&gt;Node36</title>
<g id="a_edge38_Node000032_Node000036"><a xlink:title=" ">
<path fill="none" stroke="#63b8ff" d="M721.04,-207.25C707.91,-207.25 694.42,-207.25 681.92,-207.25"/>
<polygon fill="#63b8ff" stroke="#63b8ff" points="720.97,-210.75 730.97,-207.25 720.97,-203.75 720.97,-210.75"/>
</a>
</g>
</g>
<!-- Node35 -->
<g id="Node000035" class="node">
<title>Node35</title>
<g id="a_Node000035"><a xlink:href="a01922.html#a27bee94f7a23281c8b2b72ec433f6059" target="_top" xlink:title=" ">
<polygon fill="white" stroke="#666666" points="520,-234.5 435,-234.5 435,-216 520,-216 520,-234.5"/>
<text text-anchor="middle" x="477.5" y="-221" font-family="Helvetica,sans-Serif" font-size="10.00">arax_task_alloc</text>
</a>
</g>
</g>
<!-- Node34&#45;&gt;Node35 -->
<g id="edge36_Node000034_Node000035" class="edge">
<title>Node34&#45;&gt;Node35</title>
<g id="a_edge36_Node000034_Node000035"><a xlink:title=" ">
<path fill="none" stroke="#63b8ff" d="M563.99,-236.29C549.23,-234.38 533.82,-232.39 520.21,-230.64"/>
<polygon fill="#63b8ff" stroke="#63b8ff" points="563.21,-239.85 573.58,-237.66 564.11,-232.91 563.21,-239.85"/>
</a>
</g>
</g>
<!-- Node35&#45;&gt;Node6 -->
<g id="edge37_Node000035_Node000006" class="edge">
<title>Node35&#45;&gt;Node6</title>
<g id="a_edge37_Node000035_Node000006"><a xlink:title=" ">
<path fill="none" stroke="#63b8ff" d="M423.82,-225.25C414.17,-225.25 404.2,-225.25 394.85,-225.25"/>
<polygon fill="#63b8ff" stroke="#63b8ff" points="423.53,-228.75 433.53,-225.25 423.53,-221.75 423.53,-228.75"/>
</a>
</g>
</g>
<!-- Node36&#45;&gt;Node35 -->
<g id="edge39_Node000036_Node000035" class="edge">
<title>Node36&#45;&gt;Node35</title>
<g id="a_edge39_Node000036_Node000035"><a xlink:title=" ">
<path fill="none" stroke="#63b8ff" d="M560.43,-215.23C546.78,-216.9 532.74,-218.61 520.23,-220.15"/>
<polygon fill="#63b8ff" stroke="#63b8ff" points="560.76,-218.59 570.26,-213.9 559.91,-211.64 560.76,-218.59"/>
</a>
</g>
</g>
<!-- Node39&#45;&gt;Node8 -->
<g id="edge44_Node000039_Node000008" class="edge">
<title>Node39&#45;&gt;Node8</title>
<g id="a_edge44_Node000039_Node000008"><a xlink:title=" ">
<path fill="none" stroke="#63b8ff" d="M301.14,-191.66C282.27,-196.51 260.96,-201.98 243.24,-206.53"/>
<polygon fill="#63b8ff" stroke="#63b8ff" points="301.82,-194.85 310.63,-188.97 300.08,-188.07 301.82,-194.85"/>
</a>
</g>
</g>
<!-- Node39&#45;&gt;Node10 -->
<g id="edge45_Node000039_Node000010" class="edge">
<title>Node39&#45;&gt;Node10</title>
<g id="a_edge45_Node000039_Node000010"><a xlink:title=" ">
<path fill="none" stroke="#63b8ff" d="M300.01,-179.25C281.55,-179.25 260.9,-179.25 243.6,-179.25"/>
<polygon fill="#63b8ff" stroke="#63b8ff" points="299.88,-182.75 309.88,-179.25 299.88,-175.75 299.88,-182.75"/>
</a>
</g>
</g>
<!-- Node40&#45;&gt;Node7 -->
<g id="edge47_Node000040_Node000007" class="edge">
<title>Node40&#45;&gt;Node7</title>
<g id="a_edge47_Node000040_Node000007"><a xlink:title=" ">
<path fill="none" stroke="#63b8ff" d="M298.89,-281.62C284.31,-283.75 268.44,-286.06 253.99,-288.17"/>
<polygon fill="#63b8ff" stroke="#63b8ff" points="299.34,-284.95 308.74,-280.04 298.34,-278.02 299.34,-284.95"/>
</a>
</g>
</g>
<!-- Node40&#45;&gt;Node8 -->
<g id="edge48_Node000040_Node000008" class="edge">
<title>Node40&#45;&gt;Node8</title>
<g id="a_edge48_Node000040_Node000008"><a xlink:title=" ">
<path fill="none" stroke="#63b8ff" d="M322.36,-259.38C307.36,-251.54 288.22,-242.15 270.5,-235.25 261.72,-231.83 252.07,-228.69 242.94,-226"/>
<polygon fill="#63b8ff" stroke="#63b8ff" points="320.54,-262.91 331.02,-264.51 323.83,-256.73 320.54,-262.91"/>
</a>
</g>
</g>
<!-- Node40&#45;&gt;Node12 -->
<g id="edge49_Node000040_Node000012" class="edge">
<title>Node40&#45;&gt;Node12</title>
<g id="a_edge49_Node000040_Node000012"><a xlink:title=" ">
<path fill="none" stroke="#63b8ff" d="M298.91,-266.88C286.8,-265.11 273.8,-263.22 261.46,-261.42"/>
<polygon fill="#63b8ff" stroke="#63b8ff" points="298.34,-270.48 308.74,-268.46 299.34,-263.55 298.34,-270.48"/>
</a>
</g>
</g>
<!-- Node42 -->
<g id="Node000042" class="node">
<title>Node42</title>
<g id="a_Node000042"><a xlink:href="a01898.html#a4cb362223e9e7a76f4c5695080db2755" target="_top" xlink:title=" ">
<polygon fill="white" stroke="#666666" points="846.75,-67.75 743,-67.75 743,-38.75 846.75,-38.75 846.75,-67.75"/>
<text text-anchor="start" x="751" y="-54.25" font-family="Helvetica,sans-Serif" font-size="10.00">arax_accel_list_free</text>
<text text-anchor="middle" x="794.88" y="-43.75" font-family="Helvetica,sans-Serif" font-size="10.00">_pre_locked</text>
</a>
</g>
</g>
<!-- Node41&#45;&gt;Node42 -->
<g id="edge51_Node000041_Node000042" class="edge">
<title>Node41&#45;&gt;Node42</title>
<g id="a_edge51_Node000041_Node000042"><a xlink:title=" ">
<path fill="none" stroke="#63b8ff" d="M899.99,-181.07C898.95,-180.17 897.95,-179.23 897,-178.25 863.75,-144.11 894.52,-111.13 861,-77.25 856.93,-73.14 852.1,-69.72 846.93,-66.89"/>
<polygon fill="#63b8ff" stroke="#63b8ff" points="897.42,-184.25 907.57,-187.27 901.51,-178.58 897.42,-184.25"/>
</a>
</g>
</g>
<!-- Node43 -->
<g id="Node000043" class="node">
<title>Node43</title>
<g id="a_Node000043"><a xlink:href="a02175.html#ga7f1598b99463c5ef533a457f225b4c0b" target="_top" xlink:title=" ">
<polygon fill="white" stroke="#666666" points="667.62,-62.5 585.62,-62.5 585.62,-44 667.62,-44 667.62,-62.5"/>
<text text-anchor="middle" x="626.62" y="-49" font-family="Helvetica,sans-Serif" font-size="10.00">arax_accel_list</text>
</a>
</g>
</g>
<!-- Node42&#45;&gt;Node43 -->
<g id="edge52_Node000042_Node000043" class="edge">
<title>Node42&#45;&gt;Node43</title>
<g id="a_edge52_Node000042_Node000043"><a xlink:title=" ">
<path fill="none" stroke="#63b8ff" d="M731.69,-53.25C710.34,-53.25 687.02,-53.25 667.88,-53.25"/>
<polygon fill="#63b8ff" stroke="#63b8ff" points="731.64,-56.75 741.64,-53.25 731.64,-49.75 731.64,-56.75"/>
</a>
</g>
</g>
</g>
</svg>
