<?xml version="1.0" encoding="UTF-8" standalone="no"?>
<!DOCTYPE svg PUBLIC "-//W3C//DTD SVG 1.1//EN"
 "http://www.w3.org/Graphics/SVG/1.1/DTD/svg11.dtd">
<!-- Generated by graphviz version 8.0.5 (0)
 -->
<!-- Title: getVmID Pages: 1 -->
<svg width="1306pt" height="643pt"
 viewBox="0.00 0.00 1305.50 642.66" xmlns="http://www.w3.org/2000/svg" xmlns:xlink="http://www.w3.org/1999/xlink">
<g id="graph0" class="graph" transform="scale(1 1) rotate(0) translate(4 638.66)">
<title>getVmID</title>
<!-- Node1 -->
<g id="Node000001" class="node">
<title>Node1</title>
<g id="a_Node000001"><a xlink:title=" ">
<polygon fill="#999999" stroke="#666666" points="1297.5,-122.75 1242.5,-122.75 1242.5,-104.25 1297.5,-104.25 1297.5,-122.75"/>
<text text-anchor="middle" x="1270" y="-109.25" font-family="Helvetica,sans-Serif" font-size="10.00">getVmID</text>
</a>
</g>
</g>
<!-- Node2 -->
<g id="Node000002" class="node">
<title>Node2</title>
<g id="a_Node000002"><a xlink:href="a02352.html#aebf9e72bb6cbd8b9e33489d46c25075d" target="_top" xlink:title=" ">
<polygon fill="white" stroke="#666666" points="1206.5,-178.75 1090,-178.75 1090,-160.25 1206.5,-160.25 1206.5,-178.75"/>
<text text-anchor="middle" x="1148.25" y="-165.25" font-family="Helvetica,sans-Serif" font-size="10.00">async_completion_wait</text>
</a>
</g>
</g>
<!-- Node1&#45;&gt;Node2 -->
<g id="edge1_Node000001_Node000002" class="edge">
<title>Node1&#45;&gt;Node2</title>
<g id="a_edge1_Node000001_Node000002"><a xlink:title=" ">
<path fill="none" stroke="#63b8ff" d="M1242.29,-128.38C1231.33,-134.29 1218.43,-140.97 1206.5,-146.5 1196.39,-151.18 1185.05,-155.86 1175.14,-159.76"/>
<polygon fill="#63b8ff" stroke="#63b8ff" points="1243.63,-131.1 1250.73,-123.24 1240.28,-124.95 1243.63,-131.1"/>
</a>
</g>
</g>
<!-- Node68 -->
<g id="Node000068" class="node">
<title>Node68</title>
<g id="a_Node000068"><a xlink:href="a02352.html#a7ab7c7fe9cb93434dde72a4e464a7e69" target="_top" xlink:title=" ">
<polygon fill="white" stroke="#666666" points="1051.38,-141.75 935.62,-141.75 935.62,-123.25 1051.38,-123.25 1051.38,-141.75"/>
<text text-anchor="middle" x="993.5" y="-128.25" font-family="Helvetica,sans-Serif" font-size="10.00">async_semaphore_dec</text>
</a>
</g>
</g>
<!-- Node1&#45;&gt;Node68 -->
<g id="edge60_Node000001_Node000068" class="edge">
<title>Node1&#45;&gt;Node68</title>
<g id="a_edge60_Node000001_Node000068"><a xlink:title=" ">
<path fill="none" stroke="#63b8ff" d="M1231.41,-116.1C1185.01,-119.31 1105.64,-124.81 1051.67,-128.54"/>
<polygon fill="#63b8ff" stroke="#63b8ff" points="1231.45,-119.54 1241.18,-115.36 1230.96,-112.56 1231.45,-119.54"/>
</a>
</g>
</g>
<!-- Node69 -->
<g id="Node000069" class="node">
<title>Node69</title>
<g id="a_Node000069"><a xlink:href="a02352.html#afe9571a12debd9d75a0f8fb93420e268" target="_top" xlink:title=" ">
<polygon fill="white" stroke="#666666" points="1193,-104.75 1103.5,-104.75 1103.5,-86.25 1193,-86.25 1193,-104.75"/>
<text text-anchor="middle" x="1148.25" y="-91.25" font-family="Helvetica,sans-Serif" font-size="10.00">async_meta_exit</text>
</a>
</g>
</g>
<!-- Node1&#45;&gt;Node69 -->
<g id="edge57_Node000001_Node000069" class="edge">
<title>Node1&#45;&gt;Node69</title>
<g id="a_edge57_Node000001_Node000069"><a xlink:title=" ">
<path fill="none" stroke="#63b8ff" d="M1231.5,-107.86C1219.43,-106.05 1205.94,-104.02 1193.43,-102.14"/>
<polygon fill="#63b8ff" stroke="#63b8ff" points="1230.72,-111.44 1241.13,-109.46 1231.76,-104.51 1230.72,-111.44"/>
</a>
</g>
</g>
<!-- Node72 -->
<g id="Node000072" class="node">
<title>Node72</title>
<g id="a_Node000072"><a xlink:href="a02346.html#ab2195e0b081f467f8e058d1406bd4fc7" target="_top" xlink:title=" ">
<polygon fill="white" stroke="#666666" points="1185.12,-67.75 1111.38,-67.75 1111.38,-49.25 1185.12,-49.25 1185.12,-67.75"/>
<text text-anchor="middle" x="1148.25" y="-54.25" font-family="Helvetica,sans-Serif" font-size="10.00">async_thread</text>
</a>
</g>
</g>
<!-- Node1&#45;&gt;Node72 -->
<g id="edge61_Node000001_Node000072" class="edge">
<title>Node1&#45;&gt;Node72</title>
<g id="a_edge61_Node000001_Node000072"><a xlink:title=" ">
<path fill="none" stroke="#63b8ff" d="M1245.26,-98.31C1233.83,-91.39 1219.76,-83.44 1206.5,-77.5 1198.86,-74.07 1190.4,-70.93 1182.38,-68.23"/>
<polygon fill="#63b8ff" stroke="#63b8ff" points="1243.2,-101.77 1253.54,-104.05 1246.88,-95.81 1243.2,-101.77"/>
</a>
</g>
</g>
<!-- Node3 -->
<g id="Node000003" class="node">
<title>Node3</title>
<g id="a_Node000003"><a xlink:href="a01922.html#a0d3707df989265f8cf380acdef95eb02" target="_top" xlink:title=" ">
<polygon fill="white" stroke="#666666" points="1047.62,-448.75 939.38,-448.75 939.38,-430.25 1047.62,-430.25 1047.62,-448.75"/>
<text text-anchor="middle" x="993.5" y="-435.25" font-family="Helvetica,sans-Serif" font-size="10.00">arax_task_wait_done</text>
</a>
</g>
</g>
<!-- Node2&#45;&gt;Node3 -->
<g id="edge2_Node000002_Node000003" class="edge">
<title>Node2&#45;&gt;Node3</title>
<g id="a_edge2_Node000002_Node000003"><a xlink:title=" ">
<path fill="none" stroke="#63b8ff" d="M1136.56,-188.39C1106.51,-241.5 1022.02,-390.85 999.87,-430.01"/>
<polygon fill="#63b8ff" stroke="#63b8ff" points="1139.94,-190.54 1141.81,-180.11 1133.84,-187.09 1139.94,-190.54"/>
</a>
</g>
</g>
<!-- Node9 -->
<g id="Node000009" class="node">
<title>Node9</title>
<g id="a_Node000009"><a xlink:href="a02352.html#aed6af4d83e934e3e654ead541b15f2d9" target="_top" xlink:title=" ">
<polygon fill="white" stroke="#666666" points="897,-290.75 788,-290.75 788,-272.25 897,-272.25 897,-290.75"/>
<text text-anchor="middle" x="842.5" y="-277.25" font-family="Helvetica,sans-Serif" font-size="10.00">async_condition_lock</text>
</a>
</g>
</g>
<!-- Node2&#45;&gt;Node9 -->
<g id="edge8_Node000002_Node000009" class="edge">
<title>Node2&#45;&gt;Node9</title>
<g id="a_edge8_Node000002_Node000009"><a xlink:title=" ">
<path fill="none" stroke="#63b8ff" d="M1110.7,-182.98C1048.57,-205.89 923.85,-251.87 869.65,-271.86"/>
<polygon fill="#63b8ff" stroke="#63b8ff" points="1111.65,-185.99 1119.83,-179.24 1109.23,-179.42 1111.65,-185.99"/>
</a>
</g>
</g>
<!-- Node67 -->
<g id="Node000067" class="node">
<title>Node67</title>
<g id="a_Node000067"><a xlink:href="a02352.html#a1bfeaeb9b81855e640d7a67cc9d92b17" target="_top" xlink:title=" ">
<polygon fill="white" stroke="#666666" points="896.62,-141.75 788.38,-141.75 788.38,-123.25 896.62,-123.25 896.62,-141.75"/>
<text text-anchor="middle" x="842.5" y="-128.25" font-family="Helvetica,sans-Serif" font-size="10.00">async_condition_wait</text>
</a>
</g>
</g>
<!-- Node2&#45;&gt;Node67 -->
<g id="edge50_Node000002_Node000067" class="edge">
<title>Node2&#45;&gt;Node67</title>
<g id="a_edge50_Node000002_Node000067"><a xlink:title=" ">
<path fill="none" stroke="#63b8ff" d="M1079.05,-165.37C1036.84,-162.35 981.62,-157.52 933,-150.5 917.78,-148.3 901.25,-145.19 886.58,-142.16"/>
<polygon fill="#63b8ff" stroke="#63b8ff" points="1078.54,-168.92 1088.76,-166.12 1079.03,-161.93 1078.54,-168.92"/>
</a>
</g>
</g>
<!-- Node2&#45;&gt;Node68 -->
<g id="edge55_Node000002_Node000068" class="edge">
<title>Node2&#45;&gt;Node68</title>
<g id="a_edge55_Node000002_Node000068"><a xlink:title=" ">
<path fill="none" stroke="#63b8ff" d="M1096.56,-157.22C1076.42,-152.34 1053.59,-146.81 1034.63,-142.22"/>
<polygon fill="#63b8ff" stroke="#63b8ff" points="1095.57,-160.83 1106.12,-159.78 1097.22,-154.02 1095.57,-160.83"/>
</a>
</g>
</g>
<!-- Node4 -->
<g id="Node000004" class="node">
<title>Node4</title>
<g id="a_Node000004"><a xlink:href="a02177.html#gacb098c0a8c3908f3fdd32e7ea7d780bb" target="_top" xlink:title=" ">
<polygon fill="white" stroke="#666666" points="883.5,-599.75 801.5,-599.75 801.5,-581.25 883.5,-581.25 883.5,-599.75"/>
<text text-anchor="middle" x="842.5" y="-586.25" font-family="Helvetica,sans-Serif" font-size="10.00">arax_task_wait</text>
</a>
</g>
</g>
<!-- Node3&#45;&gt;Node4 -->
<g id="edge3_Node000003_Node000004" class="edge">
<title>Node3&#45;&gt;Node4</title>
<g id="a_edge3_Node000003_Node000004"><a xlink:title=" ">
<path fill="none" stroke="#63b8ff" d="M975.64,-456.59C944.15,-488.5 877.38,-556.17 852.82,-581.06"/>
<polygon fill="#63b8ff" stroke="#63b8ff" points="977.65,-459.52 982.18,-449.95 972.66,-454.61 977.65,-459.52"/>
</a>
</g>
</g>
<!-- Node5 -->
<g id="Node000005" class="node">
<title>Node5</title>
<g id="a_Node000005"><a xlink:href="a01931.html#af8ede6fc8d207004035f45d945688d2c" target="_top" xlink:title=" ">
<polygon fill="white" stroke="#666666" points="403.12,-566 304.62,-566 304.62,-537 403.12,-537 403.12,-566"/>
<text text-anchor="start" x="312.62" y="-552.5" font-family="Helvetica,sans-Serif" font-size="10.00">arax_data_allocate</text>
<text text-anchor="middle" x="353.88" y="-542" font-family="Helvetica,sans-Serif" font-size="10.00">_remote</text>
</a>
</g>
</g>
<!-- Node4&#45;&gt;Node5 -->
<g id="edge4_Node000004_Node000005" class="edge">
<title>Node4&#45;&gt;Node5</title>
<g id="a_edge4_Node000004_Node000005"><a xlink:title=" ">
<path fill="none" stroke="#63b8ff" d="M814.53,-604.92C797.2,-613.34 773.92,-623.15 752,-627.5 617.05,-654.3 455.95,-595.51 387.85,-566.48"/>
<polygon fill="#63b8ff" stroke="#63b8ff" points="815.62,-607.78 822.98,-600.17 812.48,-601.53 815.62,-607.78"/>
</a>
</g>
</g>
<!-- Node6 -->
<g id="Node000006" class="node">
<title>Node6</title>
<g id="a_Node000006"><a xlink:href="a01931.html#a696bc4319d0f6c6baa7d797a8df6b56f" target="_top" xlink:title=" ">
<polygon fill="white" stroke="#666666" points="725,-581.75 646.75,-581.75 646.75,-563.25 725,-563.25 725,-581.75"/>
<text text-anchor="middle" x="685.88" y="-568.25" font-family="Helvetica,sans-Serif" font-size="10.00">arax_data_get</text>
</a>
</g>
</g>
<!-- Node4&#45;&gt;Node6 -->
<g id="edge5_Node000004_Node000006" class="edge">
<title>Node4&#45;&gt;Node6</title>
<g id="a_edge5_Node000004_Node000006"><a xlink:title=" ">
<path fill="none" stroke="#63b8ff" d="M790.48,-584.56C769.24,-582.09 744.99,-579.27 725.3,-576.97"/>
<polygon fill="#63b8ff" stroke="#63b8ff" points="789.94,-588.14 800.28,-585.82 790.75,-581.18 789.94,-588.14"/>
</a>
</g>
</g>
<!-- Node8 -->
<g id="Node000008" class="node">
<title>Node8</title>
<g id="a_Node000008"><a xlink:href="a02177.html#ga1418f4cd7336bf77cce7b955a1bf7077" target="_top" xlink:title=" ">
<polygon fill="white" stroke="#666666" points="742.62,-618.75 629.12,-618.75 629.12,-600.25 742.62,-600.25 742.62,-618.75"/>
<text text-anchor="middle" x="685.88" y="-605.25" font-family="Helvetica,sans-Serif" font-size="10.00">arax_task_issue_sync</text>
</a>
</g>
</g>
<!-- Node4&#45;&gt;Node8 -->
<g id="edge7_Node000004_Node000008" class="edge">
<title>Node4&#45;&gt;Node8</title>
<g id="a_edge7_Node000004_Node000008"><a xlink:title=" ">
<path fill="none" stroke="#63b8ff" d="M790.49,-596.77C775.24,-598.64 758.45,-600.71 742.9,-602.62"/>
<polygon fill="#63b8ff" stroke="#63b8ff" points="790.78,-600.14 800.28,-595.44 789.93,-593.19 790.78,-600.14"/>
</a>
</g>
</g>
<!-- Node7 -->
<g id="Node000007" class="node">
<title>Node7</title>
<g id="a_Node000007"><a xlink:href="a01931.html#a7d8356bd5c8b6a8d7dffc6ba94cc22e5" target="_top" xlink:title=" ">
<polygon fill="white" stroke="#666666" points="568.75,-581.75 466.5,-581.75 466.5,-563.25 568.75,-563.25 568.75,-581.75"/>
<text text-anchor="middle" x="517.62" y="-568.25" font-family="Helvetica,sans-Serif" font-size="10.00">arax_data_memcpy</text>
</a>
</g>
</g>
<!-- Node6&#45;&gt;Node7 -->
<g id="edge6_Node000006_Node000007" class="edge">
<title>Node6&#45;&gt;Node7</title>
<g id="a_edge6_Node000006_Node000007"><a xlink:title=" ">
<path fill="none" stroke="#63b8ff" d="M635.38,-572.5C614.42,-572.5 590.01,-572.5 568.96,-572.5"/>
<polygon fill="#63b8ff" stroke="#63b8ff" points="635.32,-576 645.32,-572.5 635.32,-569 635.32,-576"/>
</a>
</g>
</g>
<!-- Node10 -->
<g id="Node000010" class="node">
<title>Node10</title>
<g id="a_Node000010"><a xlink:href="a01898.html#a02fd608f651d254148dc74f0ae371dfe" target="_top" xlink:title=" ">
<polygon fill="white" stroke="#666666" points="715.25,-67.75 656.5,-67.75 656.5,-49.25 715.25,-49.25 715.25,-67.75"/>
<text text-anchor="middle" x="685.88" y="-54.25" font-family="Helvetica,sans-Serif" font-size="10.00">_arax_init</text>
</a>
</g>
</g>
<!-- Node9&#45;&gt;Node10 -->
<g id="edge9_Node000009_Node000010" class="edge">
<title>Node9&#45;&gt;Node10</title>
<g id="a_edge9_Node000009_Node000010"><a xlink:title=" ">
<path fill="none" stroke="#63b8ff" d="M833.43,-261.89C812.84,-212.07 759.48,-84.07 752,-77.5 741.91,-68.64 727.89,-63.9 715.45,-61.37"/>
<polygon fill="#63b8ff" stroke="#63b8ff" points="830.45,-262.86 837.5,-270.77 836.92,-260.19 830.45,-262.86"/>
</a>
</g>
</g>
<!-- Node18 -->
<g id="Node000018" class="node">
<title>Node18</title>
<g id="a_Node000018"><a xlink:href="a01904.html#ab6afd8cc035237c811ce6a1b7727acc3" target="_top" xlink:title=" ">
<polygon fill="white" stroke="#666666" points="740.38,-311.75 631.38,-311.75 631.38,-293.25 740.38,-293.25 740.38,-311.75"/>
<text text-anchor="middle" x="685.88" y="-298.25" font-family="Helvetica,sans-Serif" font-size="10.00">arax_accel_add_task</text>
</a>
</g>
</g>
<!-- Node9&#45;&gt;Node18 -->
<g id="edge17_Node000009_Node000018" class="edge">
<title>Node9&#45;&gt;Node18</title>
<g id="a_edge17_Node000009_Node000018"><a xlink:title=" ">
<path fill="none" stroke="#63b8ff" d="M777.3,-290.22C765.12,-291.87 752.5,-293.59 740.69,-295.19"/>
<polygon fill="#63b8ff" stroke="#63b8ff" points="777.42,-293.6 786.85,-288.79 776.47,-286.66 777.42,-293.6"/>
</a>
</g>
</g>
<!-- Node24 -->
<g id="Node000024" class="node">
<title>Node24</title>
<g id="a_Node000024"><a xlink:href="a01904.html#af0b933c02a24d69c1efa40179f60288f" target="_top" xlink:title=" ">
<polygon fill="white" stroke="#666666" points="576.62,-422.75 458.62,-422.75 458.62,-404.25 576.62,-404.25 576.62,-422.75"/>
<text text-anchor="middle" x="517.62" y="-409.25" font-family="Helvetica,sans-Serif" font-size="10.00">arax_accel_add_vaccel</text>
</a>
</g>
</g>
<!-- Node9&#45;&gt;Node24 -->
<g id="edge20_Node000009_Node000024" class="edge">
<title>Node9&#45;&gt;Node24</title>
<g id="a_edge20_Node000009_Node000024"><a xlink:title=" ">
<path fill="none" stroke="#63b8ff" d="M825.94,-298.81C809.31,-316.23 781.37,-342.59 752,-357.5 720.84,-373.32 630.31,-392.45 571.59,-403.76"/>
<polygon fill="#63b8ff" stroke="#63b8ff" points="827.89,-301.77 832.14,-292.07 822.77,-297 827.89,-301.77"/>
</a>
</g>
</g>
<!-- Node30 -->
<g id="Node000030" class="node">
<title>Node30</title>
<g id="a_Node000030"><a xlink:href="a01904.html#aa3f384ca4812e46dedce753be42654df" target="_top" xlink:title=" ">
<polygon fill="white" stroke="#666666" points="743.38,-507.75 628.38,-507.75 628.38,-489.25 743.38,-489.25 743.38,-507.75"/>
<text text-anchor="middle" x="685.88" y="-494.25" font-family="Helvetica,sans-Serif" font-size="10.00">arax_accel_del_vaccel</text>
</a>
</g>
</g>
<!-- Node9&#45;&gt;Node30 -->
<g id="edge26_Node000009_Node000030" class="edge">
<title>Node9&#45;&gt;Node30</title>
<g id="a_edge26_Node000009_Node000030"><a xlink:title=" ">
<path fill="none" stroke="#63b8ff" d="M838.12,-301.75C830.36,-341.78 807.5,-431.31 752,-479.5 747.55,-483.36 742.36,-486.44 736.88,-488.89"/>
<polygon fill="#63b8ff" stroke="#63b8ff" points="841.72,-302.48 840.06,-292.02 834.84,-301.23 841.72,-302.48"/>
</a>
</g>
</g>
<!-- Node32 -->
<g id="Node000032" class="node">
<title>Node32</title>
<g id="a_Node000032"><a xlink:href="a01904.html#aa164c99d44fec2d7296a76c8926eb585" target="_top" xlink:title=" ">
<polygon fill="white" stroke="#666666" points="749.38,-275 622.38,-275 622.38,-246 749.38,-246 749.38,-275"/>
<text text-anchor="start" x="630.38" y="-261.5" font-family="Helvetica,sans-Serif" font-size="10.00">arax_accel_get_assigned</text>
<text text-anchor="middle" x="685.88" y="-251" font-family="Helvetica,sans-Serif" font-size="10.00">_vaccels</text>
</a>
</g>
</g>
<!-- Node9&#45;&gt;Node32 -->
<g id="edge28_Node000009_Node000032" class="edge">
<title>Node9&#45;&gt;Node32</title>
<g id="a_edge28_Node000009_Node000032"><a xlink:title=" ">
<path fill="none" stroke="#63b8ff" d="M777,-272.74C767.98,-271.51 758.72,-270.26 749.72,-269.04"/>
<polygon fill="#63b8ff" stroke="#63b8ff" points="776.47,-276.34 786.85,-274.21 777.42,-269.4 776.47,-276.34"/>
</a>
</g>
</g>
<!-- Node33 -->
<g id="Node000033" class="node">
<title>Node33</title>
<g id="a_Node000033"><a xlink:href="a01904.html#a415e79d6e82e45f24bcd1742c146a0da" target="_top" xlink:title=" ">
<polygon fill="white" stroke="#666666" points="749.38,-104.75 622.38,-104.75 622.38,-86.25 749.38,-86.25 749.38,-104.75"/>
<text text-anchor="middle" x="685.88" y="-91.25" font-family="Helvetica,sans-Serif" font-size="10.00">arax_accel_wait_for_task</text>
</a>
</g>
</g>
<!-- Node9&#45;&gt;Node33 -->
<g id="edge29_Node000009_Node000033" class="edge">
<title>Node9&#45;&gt;Node33</title>
<g id="a_edge29_Node000009_Node000033"><a xlink:title=" ">
<path fill="none" stroke="#63b8ff" d="M836.33,-261.53C826.21,-226.46 800.43,-153.78 752,-114.5 747.24,-110.64 741.73,-107.57 735.97,-105.12"/>
<polygon fill="#63b8ff" stroke="#63b8ff" points="833.15,-262.17 839.17,-270.89 839.9,-260.32 833.15,-262.17"/>
</a>
</g>
</g>
<!-- Node34 -->
<g id="Node000034" class="node">
<title>Node34</title>
<g id="a_Node000034"><a xlink:href="a01904.html#a871ba8da471f464d7e10b13d5db07101" target="_top" xlink:title=" ">
<polygon fill="white" stroke="#666666" points="752,-544.75 619.75,-544.75 619.75,-526.25 752,-526.25 752,-544.75"/>
<text text-anchor="middle" x="685.88" y="-531.25" font-family="Helvetica,sans-Serif" font-size="10.00">ARAX_OBJ_DTOR_DECL</text>
</a>
</g>
</g>
<!-- Node9&#45;&gt;Node34 -->
<g id="edge30_Node000009_Node000034" class="edge">
<title>Node9&#45;&gt;Node34</title>
<g id="a_edge30_Node000009_Node000034"><a xlink:title=" ">
<path fill="none" stroke="#63b8ff" d="M839.71,-302.02C834.64,-347.5 816.06,-457.37 752,-516.5 747.85,-520.33 742.96,-523.4 737.76,-525.85"/>
<polygon fill="#63b8ff" stroke="#63b8ff" points="843.28,-302.53 840.79,-292.23 836.31,-301.83 843.28,-302.53"/>
</a>
</g>
</g>
<!-- Node35 -->
<g id="Node000035" class="node">
<title>Node35</title>
<g id="a_Node000035"><a xlink:href="a01913.html#aa4461ab1d225a0f76f08d2f37a4a7e0e" target="_top" xlink:title=" ">
<polygon fill="white" stroke="#666666" points="411.38,-232 296.38,-232 296.38,-203 411.38,-203 411.38,-232"/>
<text text-anchor="start" x="304.38" y="-218.5" font-family="Helvetica,sans-Serif" font-size="10.00">arax_pipe_add_orphan</text>
<text text-anchor="middle" x="353.88" y="-208" font-family="Helvetica,sans-Serif" font-size="10.00">_vaccel</text>
</a>
</g>
</g>
<!-- Node9&#45;&gt;Node35 -->
<g id="edge31_Node000009_Node000035" class="edge">
<title>Node9&#45;&gt;Node35</title>
<g id="a_edge31_Node000009_Node000035"><a xlink:title=" ">
<path fill="none" stroke="#63b8ff" d="M817.33,-266.24C799.89,-256.1 775.4,-243.56 752,-237.5 634.06,-206.93 489.97,-209.01 411.86,-213.24"/>
<polygon fill="#63b8ff" stroke="#63b8ff" points="815.34,-269.73 825.72,-271.87 818.94,-263.73 815.34,-269.73"/>
</a>
</g>
</g>
<!-- Node36 -->
<g id="Node000036" class="node">
<title>Node36</title>
<g id="a_Node000036"><a xlink:href="a01913.html#a8ff14a859f9b7a34676c2fcdb762386b" target="_top" xlink:title=" ">
<polygon fill="white" stroke="#666666" points="742.25,-189 629.5,-189 629.5,-160 742.25,-160 742.25,-189"/>
<text text-anchor="start" x="637.5" y="-175.5" font-family="Helvetica,sans-Serif" font-size="10.00">arax_pipe_get_orphan</text>
<text text-anchor="middle" x="685.88" y="-165" font-family="Helvetica,sans-Serif" font-size="10.00">_vaccel</text>
</a>
</g>
</g>
<!-- Node9&#45;&gt;Node36 -->
<g id="edge33_Node000009_Node000036" class="edge">
<title>Node9&#45;&gt;Node36</title>
<g id="a_edge33_Node000009_Node000036"><a xlink:title=" ">
<path fill="none" stroke="#63b8ff" d="M824.86,-264.25C807.76,-247.22 779.77,-221.22 752,-203.5 743.76,-198.24 734.4,-193.47 725.4,-189.38"/>
<polygon fill="#63b8ff" stroke="#63b8ff" points="821.82,-266.16 831.33,-270.82 826.8,-261.24 821.82,-266.16"/>
</a>
</g>
</g>
<!-- Node37 -->
<g id="Node000037" class="node">
<title>Node37</title>
<g id="a_Node000037"><a xlink:href="a01913.html#a6cb53dd71cfaedb214bc5aef0e572cc2" target="_top" xlink:title=" ">
<polygon fill="white" stroke="#666666" points="744.88,-470.75 626.88,-470.75 626.88,-452.25 744.88,-452.25 744.88,-470.75"/>
<text text-anchor="middle" x="685.88" y="-457.25" font-family="Helvetica,sans-Serif" font-size="10.00">arax_pipe_orphan_stop</text>
</a>
</g>
</g>
<!-- Node9&#45;&gt;Node37 -->
<g id="edge34_Node000009_Node000037" class="edge">
<title>Node9&#45;&gt;Node37</title>
<g id="a_edge34_Node000009_Node000037"><a xlink:title=" ">
<path fill="none" stroke="#63b8ff" d="M836.07,-301.39C825.67,-335.7 799.62,-405.94 752,-443.5 747.76,-446.84 742.95,-449.56 737.89,-451.78"/>
<polygon fill="#63b8ff" stroke="#63b8ff" points="839.7,-302.44 839.11,-291.86 832.98,-300.5 839.7,-302.44"/>
</a>
</g>
</g>
<!-- Node38 -->
<g id="Node000038" class="node">
<title>Node38</title>
<g id="a_Node000038"><a xlink:href="a01913.html#aa5172b735dddd3f77fbb0265bbcdfc20" target="_top" xlink:title=" ">
<polygon fill="white" stroke="#666666" points="751.25,-434 620.5,-434 620.5,-405 751.25,-405 751.25,-434"/>
<text text-anchor="start" x="628.5" y="-420.5" font-family="Helvetica,sans-Serif" font-size="10.00">arax_pipe_remove_orphan</text>
<text text-anchor="middle" x="685.88" y="-410" font-family="Helvetica,sans-Serif" font-size="10.00">_vaccel</text>
</a>
</g>
</g>
<!-- Node9&#45;&gt;Node38 -->
<g id="edge35_Node000009_Node000038" class="edge">
<title>Node9&#45;&gt;Node38</title>
<g id="a_edge35_Node000009_Node000038"><a xlink:title=" ">
<path fill="none" stroke="#63b8ff" d="M830.07,-300.24C814.8,-323.96 785.74,-364.79 752,-390.5 744.81,-395.98 736.43,-400.69 728.12,-404.62"/>
<polygon fill="#63b8ff" stroke="#63b8ff" points="833.38,-302.55 835.74,-292.22 827.45,-298.83 833.38,-302.55"/>
</a>
</g>
</g>
<!-- Node39 -->
<g id="Node000039" class="node">
<title>Node39</title>
<g id="a_Node000039"><a xlink:href="a01925.html#a8413a3584787f9b629e54b2ef9439f06" target="_top" xlink:title=" ">
<polygon fill="white" stroke="#666666" points="743,-141.75 628.75,-141.75 628.75,-123.25 743,-123.25 743,-141.75"/>
<text text-anchor="middle" x="685.88" y="-128.25" font-family="Helvetica,sans-Serif" font-size="10.00">arax_throttle_size_dec</text>
</a>
</g>
</g>
<!-- Node9&#45;&gt;Node39 -->
<g id="edge38_Node000009_Node000039" class="edge">
<title>Node9&#45;&gt;Node39</title>
<g id="a_edge38_Node000009_Node000039"><a xlink:title=" ">
<path fill="none" stroke="#63b8ff" d="M833.3,-262.03C820.29,-233.5 792.19,-180.55 752,-151.5 746.75,-147.71 740.75,-144.66 734.56,-142.23"/>
<polygon fill="#63b8ff" stroke="#63b8ff" points="830.45,-263.25 837.68,-271 836.86,-260.43 830.45,-263.25"/>
</a>
</g>
</g>
<!-- Node49 -->
<g id="Node000049" class="node">
<title>Node49</title>
<g id="a_Node000049"><a xlink:href="a01925.html#a22aaf13eb56eb1832e725ef73236116f" target="_top" xlink:title=" ">
<polygon fill="white" stroke="#666666" points="741.5,-348.75 630.25,-348.75 630.25,-330.25 741.5,-330.25 741.5,-348.75"/>
<text text-anchor="middle" x="685.88" y="-335.25" font-family="Helvetica,sans-Serif" font-size="10.00">arax_throttle_size_inc</text>
</a>
</g>
</g>
<!-- Node9&#45;&gt;Node49 -->
<g id="edge45_Node000009_Node000049" class="edge">
<title>Node9&#45;&gt;Node49</title>
<g id="a_edge45_Node000009_Node000049"><a xlink:title=" ">
<path fill="none" stroke="#63b8ff" d="M811.67,-295.63C794.45,-303.51 772.25,-313.17 752,-320.5 742.81,-323.83 732.73,-327 723.31,-329.76"/>
<polygon fill="#63b8ff" stroke="#63b8ff" points="812.57,-298.61 820.18,-291.24 809.64,-292.26 812.57,-298.61"/>
</a>
</g>
</g>
<!-- Node11 -->
<g id="Node000011" class="node">
<title>Node11</title>
<g id="a_Node000011"><a xlink:href="a01898.html#aa6e4832b06bd5757be4502d2de7b3026" target="_top" xlink:title=" ">
<polygon fill="white" stroke="#666666" points="566.88,-94 468.38,-94 468.38,-65 566.88,-65 566.88,-94"/>
<text text-anchor="start" x="476.38" y="-80.5" font-family="Helvetica,sans-Serif" font-size="10.00">arax_controller_init</text>
<text text-anchor="middle" x="517.62" y="-70" font-family="Helvetica,sans-Serif" font-size="10.00">_start</text>
</a>
</g>
</g>
<!-- Node10&#45;&gt;Node11 -->
<g id="edge10_Node000010_Node000011" class="edge">
<title>Node10&#45;&gt;Node11</title>
<g id="a_edge10_Node000010_Node000011"><a xlink:title=" ">
<path fill="none" stroke="#63b8ff" d="M645.7,-63.45C622.26,-66.41 592.27,-70.2 567.31,-73.35"/>
<polygon fill="#63b8ff" stroke="#63b8ff" points="645.81,-66.84 655.3,-62.11 644.94,-59.89 645.81,-66.84"/>
</a>
</g>
</g>
<!-- Node12 -->
<g id="Node000012" class="node">
<title>Node12</title>
<g id="a_Node000012"><a xlink:href="a02174.html#gae1d371a2840849690acce147e7a205da" target="_top" xlink:title=" ">
<polygon fill="white" stroke="#666666" points="544.38,-46.75 490.88,-46.75 490.88,-28.25 544.38,-28.25 544.38,-46.75"/>
<text text-anchor="middle" x="517.62" y="-33.25" font-family="Helvetica,sans-Serif" font-size="10.00">arax_init</text>
</a>
</g>
</g>
<!-- Node10&#45;&gt;Node12 -->
<g id="edge11_Node000010_Node000012" class="edge">
<title>Node10&#45;&gt;Node12</title>
<g id="a_edge11_Node000010_Node000012"><a xlink:title=" ">
<path fill="none" stroke="#63b8ff" d="M645.38,-53.51C614.23,-49.58 571.65,-44.2 544.65,-40.79"/>
<polygon fill="#63b8ff" stroke="#63b8ff" points="644.94,-57.11 655.3,-54.89 645.81,-50.16 644.94,-57.11"/>
</a>
</g>
</g>
<!-- Node13 -->
<g id="Node000013" class="node">
<title>Node13</title>
<g id="a_Node000013"><a xlink:href="a01940.html#a8a99bcb12e2ee55d68a029bfca9b6d51" target="_top" xlink:title=" ">
<polygon fill="white" stroke="#666666" points="256.25,-29 162.25,-29 162.25,0 256.25,0 256.25,-29"/>
<text text-anchor="start" x="170.25" y="-15.5" font-family="Helvetica,sans-Serif" font-size="10.00">arax_plot_register</text>
<text text-anchor="middle" x="209.25" y="-5" font-family="Helvetica,sans-Serif" font-size="10.00">_metric</text>
</a>
</g>
</g>
<!-- Node12&#45;&gt;Node13 -->
<g id="edge12_Node000012_Node000013" class="edge">
<title>Node12&#45;&gt;Node13</title>
<g id="a_edge12_Node000012_Node000013"><a xlink:title=" ">
<path fill="none" stroke="#63b8ff" d="M479.7,-34.73C423.81,-30.53 317.79,-22.57 256.73,-17.99"/>
<polygon fill="#63b8ff" stroke="#63b8ff" points="479.27,-38.28 489.5,-35.54 479.79,-31.3 479.27,-38.28"/>
</a>
</g>
</g>
<!-- Node14 -->
<g id="Node000014" class="node">
<title>Node14</title>
<g id="a_Node000014"><a xlink:href="a01919.html#a80ab3bf4a8af9bb101b5a53248609771" target="_top" xlink:title=" ">
<polygon fill="#fff0f0" stroke="red" points="392.25,-64.75 315.5,-64.75 315.5,-46.25 392.25,-46.25 392.25,-64.75"/>
<text text-anchor="middle" x="353.88" y="-51.25" font-family="Helvetica,sans-Serif" font-size="10.00">arax_ptr_valid</text>
</a>
</g>
</g>
<!-- Node12&#45;&gt;Node14 -->
<g id="edge13_Node000012_Node000014" class="edge">
<title>Node12&#45;&gt;Node14</title>
<g id="a_edge13_Node000012_Node000014"><a xlink:title=" ">
<path fill="none" stroke="#63b8ff" d="M480.04,-41.57C453.93,-44.48 418.91,-48.37 392.56,-51.31"/>
<polygon fill="#63b8ff" stroke="#63b8ff" points="480.09,-44.98 489.64,-40.39 479.31,-38.02 480.09,-44.98"/>
</a>
</g>
</g>
<!-- Node14&#45;&gt;Node13 -->
<g id="edge16_Node000014_Node000013" class="edge">
<title>Node14&#45;&gt;Node13</title>
<g id="a_edge16_Node000014_Node000013"><a xlink:title=" ">
<path fill="none" stroke="#63b8ff" d="M308.57,-42.77C292.03,-38.01 273.2,-32.6 256.49,-27.79"/>
<polygon fill="#63b8ff" stroke="#63b8ff" points="307.5,-46.38 318.07,-45.78 309.43,-39.66 307.5,-46.38"/>
</a>
</g>
</g>
<!-- Node15 -->
<g id="Node000015" class="node">
<title>Node15</title>
<g id="a_Node000015"><a xlink:href="a01937.html#a4ee1fea325d2edd421f59ab240dfbe54" target="_top" xlink:title=" ">
<polygon fill="white" stroke="#666666" points="255.12,-65.75 163.38,-65.75 163.38,-47.25 255.12,-47.25 255.12,-65.75"/>
<text text-anchor="middle" x="209.25" y="-52.25" font-family="Helvetica,sans-Serif" font-size="10.00">_arax_assert_obj</text>
</a>
</g>
</g>
<!-- Node14&#45;&gt;Node15 -->
<g id="edge14_Node000014_Node000015" class="edge">
<title>Node14&#45;&gt;Node15</title>
<g id="a_edge14_Node000014_Node000015"><a xlink:title=" ">
<path fill="none" stroke="#63b8ff" d="M304.37,-55.84C288.51,-55.95 270.98,-56.07 255.38,-56.18"/>
<polygon fill="#63b8ff" stroke="#63b8ff" points="304.05,-59.34 314.03,-55.77 304,-52.34 304.05,-59.34"/>
</a>
</g>
</g>
<!-- Node16 -->
<g id="Node000016" class="node">
<title>Node16</title>
<g id="a_Node000016"><a xlink:href="a01931.html#afeaab7d93372f0752d59c70d9c5940e7" target="_top" xlink:title=" ">
<polygon fill="#fff0f0" stroke="red" points="247.25,-102.75 171.25,-102.75 171.25,-84.25 247.25,-84.25 247.25,-102.75"/>
<text text-anchor="middle" x="209.25" y="-89.25" font-family="Helvetica,sans-Serif" font-size="10.00">arax_data_ref</text>
</a>
</g>
</g>
<!-- Node14&#45;&gt;Node16 -->
<g id="edge15_Node000014_Node000016" class="edge">
<title>Node14&#45;&gt;Node16</title>
<g id="a_edge15_Node000014_Node000016"><a xlink:title=" ">
<path fill="none" stroke="#63b8ff" d="M306.09,-67.97C286.74,-73.12 264.64,-79.01 246.54,-83.83"/>
<polygon fill="#63b8ff" stroke="#63b8ff" points="306.75,-71.14 315.52,-65.19 304.95,-64.38 306.75,-71.14"/>
</a>
</g>
</g>
<!-- Node19 -->
<g id="Node000019" class="node">
<title>Node19</title>
<g id="a_Node000019"><a xlink:href="a01928.html#a8b82433bc8c7d7f03683ac521a3679fa" target="_top" xlink:title=" ">
<polygon fill="white" stroke="#666666" points="574.38,-270.75 460.88,-270.75 460.88,-252.25 574.38,-252.25 574.38,-270.75"/>
<text text-anchor="middle" x="517.62" y="-257.25" font-family="Helvetica,sans-Serif" font-size="10.00">arax_vaccel_add_task</text>
</a>
</g>
</g>
<!-- Node18&#45;&gt;Node19 -->
<g id="edge18_Node000018_Node000019" class="edge">
<title>Node18&#45;&gt;Node19</title>
<g id="a_edge18_Node000018_Node000019"><a xlink:title=" ">
<path fill="none" stroke="#63b8ff" d="M634.89,-290.17C610.28,-284.1 581.03,-276.89 558.03,-271.22"/>
<polygon fill="#63b8ff" stroke="#63b8ff" points="633.93,-293.79 644.48,-292.78 635.61,-286.99 633.93,-293.79"/>
</a>
</g>
</g>
<!-- Node20 -->
<g id="Node000020" class="node">
<title>Node20</title>
<g id="a_Node000020"><a xlink:href="a01922.html#ace08f924cb86d1310099621564536657" target="_top" xlink:title=" ">
<polygon fill="#fff0f0" stroke="red" points="400.88,-269.75 306.88,-269.75 306.88,-251.25 400.88,-251.25 400.88,-269.75"/>
<text text-anchor="middle" x="353.88" y="-256.25" font-family="Helvetica,sans-Serif" font-size="10.00">arax_task_submit</text>
</a>
</g>
</g>
<!-- Node19&#45;&gt;Node20 -->
<g id="edge19_Node000019_Node000020" class="edge">
<title>Node19&#45;&gt;Node20</title>
<g id="a_edge19_Node000019_Node000020"><a xlink:title=" ">
<path fill="none" stroke="#63b8ff" d="M449.91,-261.09C433.56,-260.99 416.41,-260.88 401.25,-260.79"/>
<polygon fill="#63b8ff" stroke="#63b8ff" points="449.49,-264.59 459.51,-261.15 449.53,-257.59 449.49,-264.59"/>
</a>
</g>
</g>
<!-- Node25 -->
<g id="Node000025" class="node">
<title>Node25</title>
<g id="a_Node000025"><a xlink:href="a02175.html#ga30b30e50de286842c7942a7e3e163578" target="_top" xlink:title=" ">
<polygon fill="white" stroke="#666666" points="415.5,-390.75 292.25,-390.75 292.25,-372.25 415.5,-372.25 415.5,-390.75"/>
<text text-anchor="middle" x="353.88" y="-377.25" font-family="Helvetica,sans-Serif" font-size="10.00">arax_accel_set_physical</text>
</a>
</g>
</g>
<!-- Node24&#45;&gt;Node25 -->
<g id="edge21_Node000024_Node000025" class="edge">
<title>Node24&#45;&gt;Node25</title>
<g id="a_edge21_Node000024_Node000025"><a xlink:title=" ">
<path fill="none" stroke="#63b8ff" d="M457,-401.7C439.55,-398.25 420.68,-394.52 403.96,-391.21"/>
<polygon fill="#63b8ff" stroke="#63b8ff" points="456.17,-405.3 466.66,-403.81 457.53,-398.44 456.17,-405.3"/>
</a>
</g>
</g>
<!-- Node26 -->
<g id="Node000026" class="node">
<title>Node26</title>
<g id="a_Node000026"><a xlink:href="a01928.html#a83ddb422946cf774c687c1ab63dcda15" target="_top" xlink:title=" ">
<polygon fill="white" stroke="#666666" points="252.5,-226.75 166,-226.75 166,-208.25 252.5,-208.25 252.5,-226.75"/>
<text text-anchor="middle" x="209.25" y="-213.25" font-family="Helvetica,sans-Serif" font-size="10.00">arax_vaccel_init</text>
</a>
</g>
</g>
<!-- Node24&#45;&gt;Node26 -->
<g id="edge22_Node000024_Node000026" class="edge">
<title>Node24&#45;&gt;Node26</title>
<g id="a_edge22_Node000024_Node000026"><a xlink:title=" ">
<path fill="none" stroke="#63b8ff" d="M462.01,-424.84C413.15,-431.8 341.8,-433.75 292.25,-399.5 231.25,-357.32 214.93,-258.48 211.22,-227.18"/>
<polygon fill="#63b8ff" stroke="#63b8ff" points="462.34,-428.17 471.69,-423.19 461.27,-421.26 462.34,-428.17"/>
</a>
</g>
</g>
<!-- Node27 -->
<g id="Node000027" class="node">
<title>Node27</title>
<g id="a_Node000027"><a xlink:href="a02175.html#gaf8a10ab4e51e59c464ab3ab473e4a0f7" target="_top" xlink:title=" ">
<polygon fill="white" stroke="#666666" points="126.25,-225.75 0,-225.75 0,-207.25 126.25,-207.25 126.25,-225.75"/>
<text text-anchor="middle" x="63.12" y="-212.25" font-family="Helvetica,sans-Serif" font-size="10.00">arax_accel_acquire_phys</text>
</a>
</g>
</g>
<!-- Node26&#45;&gt;Node27 -->
<g id="edge23_Node000026_Node000027" class="edge">
<title>Node26&#45;&gt;Node27</title>
<g id="a_edge23_Node000026_Node000027"><a xlink:title=" ">
<path fill="none" stroke="#63b8ff" d="M154.83,-217.13C145.63,-217.07 135.99,-217 126.58,-216.93"/>
<polygon fill="#63b8ff" stroke="#63b8ff" points="154.76,-220.64 164.79,-217.21 154.81,-213.64 154.76,-220.64"/>
</a>
</g>
</g>
<!-- Node28 -->
<g id="Node000028" class="node">
<title>Node28</title>
<g id="a_Node000028"><a xlink:href="a02175.html#ga008252bb9afc2990fa2c5f4b980c9f27" target="_top" xlink:title=" ">
<polygon fill="white" stroke="#666666" points="125.5,-262.75 0.75,-262.75 0.75,-244.25 125.5,-244.25 125.5,-262.75"/>
<text text-anchor="middle" x="63.12" y="-249.25" font-family="Helvetica,sans-Serif" font-size="10.00">arax_accel_acquire_type</text>
</a>
</g>
</g>
<!-- Node26&#45;&gt;Node28 -->
<g id="edge24_Node000026_Node000028" class="edge">
<title>Node26&#45;&gt;Node28</title>
<g id="a_edge24_Node000026_Node000028"><a xlink:title=" ">
<path fill="none" stroke="#63b8ff" d="M158.83,-229.85C140.64,-234.39 120.31,-239.47 103.16,-243.75"/>
<polygon fill="#63b8ff" stroke="#63b8ff" points="159.39,-233.06 168.25,-227.24 157.7,-226.27 159.39,-233.06"/>
</a>
</g>
</g>
<!-- Node29 -->
<g id="Node000029" class="node">
<title>Node29</title>
<g id="a_Node000029"><a xlink:href="a01904.html#a0706a66a62ca8710342ac1c097b703ed" target="_top" xlink:title=" ">
<polygon fill="white" stroke="#666666" points="104.12,-187.75 22.12,-187.75 22.12,-169.25 104.12,-169.25 104.12,-187.75"/>
<text text-anchor="middle" x="63.12" y="-174.25" font-family="Helvetica,sans-Serif" font-size="10.00">arax_accel_init</text>
</a>
</g>
</g>
<!-- Node26&#45;&gt;Node29 -->
<g id="edge25_Node000026_Node000029" class="edge">
<title>Node26&#45;&gt;Node29</title>
<g id="a_edge25_Node000026_Node000029"><a xlink:title=" ">
<path fill="none" stroke="#63b8ff" d="M161.73,-204.91C141.59,-199.46 118.39,-193.18 99.66,-188.12"/>
<polygon fill="#63b8ff" stroke="#63b8ff" points="160.69,-208.53 171.25,-207.76 162.51,-201.77 160.69,-208.53"/>
</a>
</g>
</g>
<!-- Node31 -->
<g id="Node000031" class="node">
<title>Node31</title>
<g id="a_Node000031"><a xlink:href="a01928.html#a5920cc4cd90589f3c5ac8686a72bcfc0" target="_top" xlink:title=" ">
<polygon fill="white" stroke="#666666" points="583.75,-483.75 451.5,-483.75 451.5,-465.25 583.75,-465.25 583.75,-483.75"/>
<text text-anchor="middle" x="517.62" y="-470.25" font-family="Helvetica,sans-Serif" font-size="10.00">ARAX_OBJ_DTOR_DECL</text>
</a>
</g>
</g>
<!-- Node30&#45;&gt;Node31 -->
<g id="edge27_Node000030_Node000031" class="edge">
<title>Node30&#45;&gt;Node31</title>
<g id="a_edge27_Node000030_Node000031"><a xlink:title=" ">
<path fill="none" stroke="#63b8ff" d="M617.29,-488.74C606.3,-487.16 594.93,-485.51 583.99,-483.94"/>
<polygon fill="#63b8ff" stroke="#63b8ff" points="616.73,-492.34 627.13,-490.31 617.73,-485.41 616.73,-492.34"/>
</a>
</g>
</g>
<!-- Node35&#45;&gt;Node26 -->
<g id="edge32_Node000035_Node000026" class="edge">
<title>Node35&#45;&gt;Node26</title>
<g id="a_edge32_Node000035_Node000026"><a xlink:title=" ">
<path fill="none" stroke="#63b8ff" d="M285.14,-217.5C274.11,-217.5 262.97,-217.5 252.77,-217.5"/>
<polygon fill="#63b8ff" stroke="#63b8ff" points="285.1,-221 295.1,-217.5 285.1,-214 285.1,-221"/>
</a>
</g>
</g>
<!-- Node38&#45;&gt;Node24 -->
<g id="edge36_Node000038_Node000024" class="edge">
<title>Node38&#45;&gt;Node24</title>
<g id="a_edge36_Node000038_Node000024"><a xlink:title=" ">
<path fill="none" stroke="#63b8ff" d="M609.34,-416.77C598.47,-416.38 587.43,-415.98 576.97,-415.61"/>
<polygon fill="#63b8ff" stroke="#63b8ff" points="609,-420.3 619.12,-417.16 609.26,-413.3 609,-420.3"/>
</a>
</g>
</g>
<!-- Node38&#45;&gt;Node31 -->
<g id="edge37_Node000038_Node000031" class="edge">
<title>Node38&#45;&gt;Node31</title>
<g id="a_edge37_Node000038_Node000031"><a xlink:title=" ">
<path fill="none" stroke="#63b8ff" d="M629.67,-437.76C602.36,-446.8 570.5,-457.34 547.93,-464.81"/>
<polygon fill="#63b8ff" stroke="#63b8ff" points="630.49,-440.85 638.89,-434.38 628.29,-434.2 630.49,-440.85"/>
</a>
</g>
</g>
<!-- Node40 -->
<g id="Node000040" class="node">
<title>Node40</title>
<g id="a_Node000040"><a xlink:href="a01904.html#a503b6bc6d5be49fd8715f62c7174c28e" target="_top" xlink:title=" ">
<polygon fill="white" stroke="#666666" points="571.38,-347.75 463.88,-347.75 463.88,-329.25 571.38,-329.25 571.38,-347.75"/>
<text text-anchor="middle" x="517.62" y="-334.25" font-family="Helvetica,sans-Serif" font-size="10.00">arax_accel_size_dec</text>
</a>
</g>
</g>
<!-- Node39&#45;&gt;Node40 -->
<g id="edge39_Node000039_Node000040" class="edge">
<title>Node39&#45;&gt;Node40</title>
<g id="a_edge39_Node000039_Node000040"><a xlink:title=" ">
<path fill="none" stroke="#63b8ff" d="M623.26,-148.16C622.02,-149.2 620.85,-150.31 619.75,-151.5 567.75,-207.42 635.75,-263.58 583.75,-319.5 580.22,-323.3 575.98,-326.35 571.38,-328.8"/>
<polygon fill="#63b8ff" stroke="#63b8ff" points="624.77,-150.68 631.12,-142.2 620.87,-144.87 624.77,-150.68"/>
</a>
</g>
</g>
<!-- Node41 -->
<g id="Node000041" class="node">
<title>Node41</title>
<g id="a_Node000041"><a xlink:href="a01913.html#a1cfa2c90268c6e53ce376beb7cce153c" target="_top" xlink:title=" ">
<polygon fill="white" stroke="#666666" points="568.75,-163.75 466.5,-163.75 466.5,-145.25 568.75,-145.25 568.75,-163.75"/>
<text text-anchor="middle" x="517.62" y="-150.25" font-family="Helvetica,sans-Serif" font-size="10.00">arax_pipe_size_dec</text>
</a>
</g>
</g>
<!-- Node39&#45;&gt;Node41 -->
<g id="edge41_Node000039_Node000041" class="edge">
<title>Node39&#45;&gt;Node41</title>
<g id="a_edge41_Node000039_Node000041"><a xlink:title=" ">
<path fill="none" stroke="#63b8ff" d="M618,-141.35C601.65,-143.51 584.42,-145.79 568.99,-147.83"/>
<polygon fill="#63b8ff" stroke="#63b8ff" points="618.14,-144.73 627.59,-139.95 617.22,-137.79 618.14,-144.73"/>
</a>
</g>
</g>
<!-- Node40&#45;&gt;Node5 -->
<g id="edge40_Node000040_Node000005" class="edge">
<title>Node40&#45;&gt;Node5</title>
<g id="a_edge40_Node000040_Node000005"><a xlink:title=" ">
<path fill="none" stroke="#63b8ff" d="M457.45,-353.18C455.37,-354.5 453.37,-355.93 451.5,-357.5 421.4,-382.66 376.24,-495.52 360.51,-536.54"/>
<polygon fill="#63b8ff" stroke="#63b8ff" points="458.86,-355.87 466.09,-348.13 455.61,-349.67 458.86,-355.87"/>
</a>
</g>
</g>
<!-- Node42 -->
<g id="Node000042" class="node">
<title>Node42</title>
<g id="a_Node000042"><a xlink:href="a01910.html#a402bbd6fa197c2c48d527325e5e2cf5b" target="_top" xlink:title=" ">
<polygon fill="#fff0f0" stroke="red" points="406.12,-184.75 301.62,-184.75 301.62,-166.25 406.12,-166.25 406.12,-184.75"/>
<text text-anchor="middle" x="353.88" y="-171.25" font-family="Helvetica,sans-Serif" font-size="10.00">arax_object_register</text>
</a>
</g>
</g>
<!-- Node41&#45;&gt;Node42 -->
<g id="edge42_Node000041_Node000042" class="edge">
<title>Node41&#45;&gt;Node42</title>
<g id="a_edge42_Node000041_Node000042"><a xlink:title=" ">
<path fill="none" stroke="#63b8ff" d="M455.86,-162.39C439.62,-164.5 422.23,-166.76 406.53,-168.79"/>
<polygon fill="#63b8ff" stroke="#63b8ff" points="455.87,-165.79 465.33,-161.03 454.97,-158.85 455.87,-165.79"/>
</a>
</g>
</g>
<!-- Node42&#45;&gt;Node26 -->
<g id="edge44_Node000042_Node000026" class="edge">
<title>Node42&#45;&gt;Node26</title>
<g id="a_edge44_Node000042_Node000026"><a xlink:title=" ">
<path fill="none" stroke="#63b8ff" d="M309.38,-188.31C288.07,-194.58 262.83,-202.02 243.15,-207.81"/>
<polygon fill="#63b8ff" stroke="#63b8ff" points="310.19,-191.42 318.8,-185.24 308.21,-184.71 310.19,-191.42"/>
</a>
</g>
</g>
<!-- Node42&#45;&gt;Node29 -->
<g id="edge43_Node000042_Node000029" class="edge">
<title>Node42&#45;&gt;Node29</title>
<g id="a_edge43_Node000042_Node000029"><a xlink:title=" ">
<path fill="none" stroke="#63b8ff" d="M290.33,-176.15C234,-176.74 152.84,-177.58 104.6,-178.08"/>
<polygon fill="#63b8ff" stroke="#63b8ff" points="290.29,-179.64 300.25,-176.04 290.22,-172.64 290.29,-179.64"/>
</a>
</g>
</g>
<!-- Node50 -->
<g id="Node000050" class="node">
<title>Node50</title>
<g id="a_Node000050"><a xlink:href="a01904.html#a9443355ad3d09b08427e538d75cab254" target="_top" xlink:title=" ">
<polygon fill="white" stroke="#666666" points="569.88,-384.75 465.38,-384.75 465.38,-366.25 569.88,-366.25 569.88,-384.75"/>
<text text-anchor="middle" x="517.62" y="-371.25" font-family="Helvetica,sans-Serif" font-size="10.00">arax_accel_size_inc</text>
</a>
</g>
</g>
<!-- Node49&#45;&gt;Node50 -->
<g id="edge46_Node000049_Node000050" class="edge">
<title>Node49&#45;&gt;Node50</title>
<g id="a_edge46_Node000049_Node000050"><a xlink:title=" ">
<path fill="none" stroke="#63b8ff" d="M629.33,-351.53C607.98,-356.15 583.89,-361.37 563.65,-365.75"/>
<polygon fill="#63b8ff" stroke="#63b8ff" points="629.85,-354.78 638.89,-349.24 628.37,-347.94 629.85,-354.78"/>
</a>
</g>
</g>
<!-- Node51 -->
<g id="Node000051" class="node">
<title>Node51</title>
<g id="a_Node000051"><a xlink:href="a01913.html#a5144f906658718ef853a8d18dda1e724" target="_top" xlink:title=" ">
<polygon fill="white" stroke="#666666" points="567.25,-310.75 468,-310.75 468,-292.25 567.25,-292.25 567.25,-310.75"/>
<text text-anchor="middle" x="517.62" y="-297.25" font-family="Helvetica,sans-Serif" font-size="10.00">arax_pipe_size_inc</text>
</a>
</g>
</g>
<!-- Node49&#45;&gt;Node51 -->
<g id="edge47_Node000049_Node000051" class="edge">
<title>Node49&#45;&gt;Node51</title>
<g id="a_edge47_Node000049_Node000051"><a xlink:title=" ">
<path fill="none" stroke="#63b8ff" d="M631.94,-327.4C609.11,-322.18 582.76,-316.16 561.22,-311.24"/>
<polygon fill="#63b8ff" stroke="#63b8ff" points="630.96,-331 641.49,-329.81 632.52,-324.17 630.96,-331"/>
</a>
</g>
</g>
<!-- Node52 -->
<g id="Node000052" class="node">
<title>Node52</title>
<g id="a_Node000052"><a xlink:href="a01910.html#afe7e4a63c40fbcaae742b8de8693483f" target="_top" xlink:title=" ">
<polygon fill="#fff0f0" stroke="red" points="406.12,-306.75 301.62,-306.75 301.62,-288.25 406.12,-288.25 406.12,-306.75"/>
<text text-anchor="middle" x="353.88" y="-293.25" font-family="Helvetica,sans-Serif" font-size="10.00">arax_object_ref_dec</text>
</a>
</g>
</g>
<!-- Node51&#45;&gt;Node52 -->
<g id="edge48_Node000051_Node000052" class="edge">
<title>Node51&#45;&gt;Node52</title>
<g id="a_edge48_Node000051_Node000052"><a xlink:title=" ">
<path fill="none" stroke="#63b8ff" d="M456.98,-300.03C440.41,-299.62 422.56,-299.17 406.48,-298.78"/>
<polygon fill="#63b8ff" stroke="#63b8ff" points="456.57,-303.54 466.66,-300.29 456.75,-296.54 456.57,-303.54"/>
</a>
</g>
</g>
<!-- Node64 -->
<g id="Node000064" class="node">
<title>Node64</title>
<g id="a_Node000064"><a xlink:href="a01910.html#a0a0b147b7fc892c291afe60cb0fa2c1c" target="_top" xlink:title=" ">
<polygon fill="#fff0f0" stroke="red" points="406.12,-354 301.62,-354 301.62,-325 406.12,-325 406.12,-354"/>
<text text-anchor="start" x="309.62" y="-340.5" font-family="Helvetica,sans-Serif" font-size="10.00">arax_object_ref_dec</text>
<text text-anchor="middle" x="353.88" y="-330" font-family="Helvetica,sans-Serif" font-size="10.00">_pre_locked</text>
</a>
</g>
</g>
<!-- Node51&#45;&gt;Node64 -->
<g id="edge49_Node000051_Node000064" class="edge">
<title>Node51&#45;&gt;Node64</title>
<g id="a_edge49_Node000051_Node000064"><a xlink:title=" ">
<path fill="none" stroke="#63b8ff" d="M464.73,-313.69C446.09,-318.07 425.08,-323.01 406.47,-327.38"/>
<polygon fill="#63b8ff" stroke="#63b8ff" points="465.46,-316.88 474.39,-311.19 463.85,-310.07 465.46,-316.88"/>
</a>
</g>
</g>
<!-- Node67&#45;&gt;Node10 -->
<g id="edge51_Node000067_Node000010" class="edge">
<title>Node67&#45;&gt;Node10</title>
<g id="a_edge51_Node000067_Node000010"><a xlink:title=" ">
<path fill="none" stroke="#63b8ff" d="M797.25,-118.59C794.04,-117.04 790.92,-115.34 788,-113.5 768.87,-101.42 771.47,-89.03 752,-77.5 740.95,-70.96 727.51,-66.54 715.71,-63.63"/>
<polygon fill="#63b8ff" stroke="#63b8ff" points="795.48,-122.07 806.05,-122.82 798.26,-115.64 795.48,-122.07"/>
</a>
</g>
</g>
<!-- Node67&#45;&gt;Node33 -->
<g id="edge52_Node000067_Node000033" class="edge">
<title>Node67&#45;&gt;Node33</title>
<g id="a_edge52_Node000067_Node000033"><a xlink:title=" ">
<path fill="none" stroke="#63b8ff" d="M790.19,-120.22C769.8,-115.34 746.69,-109.81 727.5,-105.22"/>
<polygon fill="#63b8ff" stroke="#63b8ff" points="789.33,-123.86 799.87,-122.78 790.96,-117.05 789.33,-123.86"/>
</a>
</g>
</g>
<!-- Node67&#45;&gt;Node36 -->
<g id="edge53_Node000067_Node000036" class="edge">
<title>Node67&#45;&gt;Node36</title>
<g id="a_edge53_Node000067_Node000036"><a xlink:title=" ">
<path fill="none" stroke="#63b8ff" d="M795.03,-145.12C778.32,-149.66 759.31,-154.83 741.93,-159.54"/>
<polygon fill="#63b8ff" stroke="#63b8ff" points="795.9,-148.24 804.64,-142.24 794.07,-141.48 795.9,-148.24"/>
</a>
</g>
</g>
<!-- Node67&#45;&gt;Node39 -->
<g id="edge54_Node000067_Node000039" class="edge">
<title>Node67&#45;&gt;Node39</title>
<g id="a_edge54_Node000067_Node000039"><a xlink:title=" ">
<path fill="none" stroke="#63b8ff" d="M777.56,-132.5C766.22,-132.5 754.47,-132.5 743.35,-132.5"/>
<polygon fill="#63b8ff" stroke="#63b8ff" points="777.29,-136 787.29,-132.5 777.29,-129 777.29,-136"/>
</a>
</g>
</g>
<!-- Node68&#45;&gt;Node67 -->
<g id="edge56_Node000068_Node000067" class="edge">
<title>Node68&#45;&gt;Node67</title>
<g id="a_edge56_Node000068_Node000067"><a xlink:title=" ">
<path fill="none" stroke="#63b8ff" d="M924.52,-132.5C915.24,-132.5 905.83,-132.5 896.86,-132.5"/>
<polygon fill="#63b8ff" stroke="#63b8ff" points="924.32,-136 934.32,-132.5 924.32,-129 924.32,-136"/>
</a>
</g>
</g>
<!-- Node70 -->
<g id="Node000070" class="node">
<title>Node70</title>
<g id="a_Node000070"><a xlink:href="a01913.html#a79b763e71a5ae1e57f78c008e7c1135c" target="_top" xlink:title=" ">
<polygon fill="white" stroke="#666666" points="1033.38,-104.75 953.62,-104.75 953.62,-86.25 1033.38,-86.25 1033.38,-104.75"/>
<text text-anchor="middle" x="993.5" y="-91.25" font-family="Helvetica,sans-Serif" font-size="10.00">arax_pipe_exit</text>
</a>
</g>
</g>
<!-- Node69&#45;&gt;Node70 -->
<g id="edge58_Node000069_Node000070" class="edge">
<title>Node69&#45;&gt;Node70</title>
<g id="a_edge58_Node000069_Node000070"><a xlink:title=" ">
<path fill="none" stroke="#63b8ff" d="M1092.23,-95.5C1072.84,-95.5 1051.45,-95.5 1033.64,-95.5"/>
<polygon fill="#63b8ff" stroke="#63b8ff" points="1092.07,-99 1102.07,-95.5 1092.07,-92 1092.07,-99"/>
</a>
</g>
</g>
<!-- Node71 -->
<g id="Node000071" class="node">
<title>Node71</title>
<g id="a_Node000071"><a xlink:href="a02174.html#ga8ac7e88ed7b8a1e2ff8aa435ac6b58ec" target="_top" xlink:title=" ">
<polygon fill="white" stroke="#666666" points="870.75,-104.75 814.25,-104.75 814.25,-86.25 870.75,-86.25 870.75,-104.75"/>
<text text-anchor="middle" x="842.5" y="-91.25" font-family="Helvetica,sans-Serif" font-size="10.00">arax_exit</text>
</a>
</g>
</g>
<!-- Node70&#45;&gt;Node71 -->
<g id="edge59_Node000070_Node000071" class="edge">
<title>Node70&#45;&gt;Node71</title>
<g id="a_edge59_Node000070_Node000071"><a xlink:title=" ">
<path fill="none" stroke="#63b8ff" d="M942.37,-95.5C918.58,-95.5 891.06,-95.5 871.1,-95.5"/>
<polygon fill="#63b8ff" stroke="#63b8ff" points="942.35,-99 952.35,-95.5 942.35,-92 942.35,-99"/>
</a>
</g>
</g>
<!-- Node73 -->
<g id="Node000073" class="node">
<title>Node73</title>
<g id="a_Node000073"><a xlink:href="a02352.html#adbaa29dfccfdfe6e3fe69a1d001c05b5" target="_top" xlink:title=" ">
<polygon fill="white" stroke="#666666" points="1054,-67.75 933,-67.75 933,-49.25 1054,-49.25 1054,-67.75"/>
<text text-anchor="middle" x="993.5" y="-54.25" font-family="Helvetica,sans-Serif" font-size="10.00">async_meta_init_always</text>
</a>
</g>
</g>
<!-- Node72&#45;&gt;Node73 -->
<g id="edge62_Node000072_Node000073" class="edge">
<title>Node72&#45;&gt;Node73</title>
<g id="a_edge62_Node000072_Node000073"><a xlink:title=" ">
<path fill="none" stroke="#63b8ff" d="M1100.32,-58.5C1085.79,-58.5 1069.59,-58.5 1054.32,-58.5"/>
<polygon fill="#63b8ff" stroke="#63b8ff" points="1100.05,-62 1110.05,-58.5 1100.05,-55 1100.05,-62"/>
</a>
</g>
</g>
<!-- Node73&#45;&gt;Node10 -->
<g id="edge63_Node000073_Node000010" class="edge">
<title>Node73&#45;&gt;Node10</title>
<g id="a_edge63_Node000073_Node000010"><a xlink:title=" ">
<path fill="none" stroke="#63b8ff" d="M922.19,-58.5C856.7,-58.5 762.34,-58.5 715.5,-58.5"/>
<polygon fill="#63b8ff" stroke="#63b8ff" points="921.85,-62 931.85,-58.5 921.85,-55 921.85,-62"/>
</a>
</g>
</g>
</g>
</svg>
