<?xml version="1.0" encoding="UTF-8" standalone="no"?>
<!DOCTYPE svg PUBLIC "-//W3C//DTD SVG 1.1//EN"
 "http://www.w3.org/Graphics/SVG/1.1/DTD/svg11.dtd">
<!-- Generated by graphviz version 8.0.5 (0)
 -->
<!-- Title: async_completion_complete Pages: 1 -->
<svg width="442pt" height="27pt"
 viewBox="0.00 0.00 442.25 26.50" xmlns="http://www.w3.org/2000/svg" xmlns:xlink="http://www.w3.org/1999/xlink">
<g id="graph0" class="graph" transform="scale(1 1) rotate(0) translate(4 22.5)">
<title>async_completion_complete</title>
<!-- Node1 -->
<g id="Node000001" class="node">
<title>Node1</title>
<g id="a_Node000001"><a xlink:title=" ">
<polygon fill="#999999" stroke="#666666" points="434.25,-18.5 295.25,-18.5 295.25,0 434.25,0 434.25,-18.5"/>
<text text-anchor="middle" x="364.75" y="-5" font-family="Helvetica,sans-Serif" font-size="10.00">async_completion_complete</text>
</a>
</g>
</g>
<!-- Node2 -->
<g id="Node000002" class="node">
<title>Node2</title>
<g id="a_Node000002"><a xlink:href="a02349.html#a3bbcb7c4c024e99d5c4ba52b61dfbbf7" target="_top" xlink:title=" ">
<polygon fill="white" stroke="#666666" points="259.25,-18.5 139.75,-18.5 139.75,0 259.25,0 259.25,-18.5"/>
<text text-anchor="middle" x="199.5" y="-5" font-family="Helvetica,sans-Serif" font-size="10.00">async_condition_unlock</text>
</a>
</g>
</g>
<!-- Node1&#45;&gt;Node2 -->
<g id="edge1_Node000001_Node000002" class="edge">
<title>Node1&#45;&gt;Node2</title>
<g id="a_edge1_Node000001_Node000002"><a xlink:title=" ">
<path fill="none" stroke="#63b8ff" d="M284.16,-9.25C275.9,-9.25 267.6,-9.25 259.61,-9.25"/>
<polygon fill="#63b8ff" stroke="#63b8ff" points="283.99,-12.75 293.99,-9.25 283.99,-5.75 283.99,-12.75"/>
</a>
</g>
</g>
<!-- Node3 -->
<g id="Node000003" class="node">
<title>Node3</title>
<g id="a_Node000003"><a xlink:href="a02349.html#ac7fbf1f43289d3e0e862b315f00e35e2" target="_top" xlink:title=" ">
<polygon fill="white" stroke="#666666" points="103.75,-18.5 0,-18.5 0,0 103.75,0 103.75,-18.5"/>
<text text-anchor="middle" x="51.88" y="-5" font-family="Helvetica,sans-Serif" font-size="10.00">async_condition_init</text>
</a>
</g>
</g>
<!-- Node2&#45;&gt;Node3 -->
<g id="edge2_Node000002_Node000003" class="edge">
<title>Node2&#45;&gt;Node3</title>
<g id="a_edge2_Node000002_Node000003"><a xlink:title=" ">
<path fill="none" stroke="#63b8ff" d="M128.52,-9.25C120.29,-9.25 112.02,-9.25 104.11,-9.25"/>
<polygon fill="#63b8ff" stroke="#63b8ff" points="128.27,-12.75 138.27,-9.25 128.27,-5.75 128.27,-12.75"/>
</a>
</g>
</g>
</g>
</svg>
