<?xml version="1.0" encoding="UTF-8" standalone="no"?>
<!DOCTYPE svg PUBLIC "-//W3C//DTD SVG 1.1//EN"
 "http://www.w3.org/Graphics/SVG/1.1/DTD/svg11.dtd">
<!-- Generated by graphviz version 8.0.5 (0)
 -->
<!-- Title: alloc.c Pages: 1 -->
<svg width="130pt" height="81pt"
 viewBox="0.00 0.00 129.62 81.00" xmlns="http://www.w3.org/2000/svg" xmlns:xlink="http://www.w3.org/1999/xlink">
<g id="graph0" class="graph" transform="scale(1 1) rotate(0) translate(4 77)">
<title>alloc.c</title>
<!-- Node1 -->
<g id="Node000001" class="node">
<title>Node1</title>
<g id="a_Node000001"><a xlink:title=" ">
<polygon fill="#999999" stroke="#666666" points="90.38,-73 45.88,-73 45.88,-54.5 90.38,-54.5 90.38,-73"/>
<text text-anchor="middle" x="68.12" y="-59.5" font-family="Helvetica,sans-Serif" font-size="10.00">alloc.c</text>
</a>
</g>
</g>
<!-- Node2 -->
<g id="Node000002" class="node">
<title>Node2</title>
<g id="a_Node000002"><a xlink:title=" ">
<polygon fill="#e0e0e0" stroke="#999999" points="66.25,-18.5 0,-18.5 0,0 66.25,0 66.25,-18.5"/>
<text text-anchor="middle" x="33.12" y="-5" font-family="Helvetica,sans-Serif" font-size="10.00">arch/alloc.h</text>
</a>
</g>
</g>
<!-- Node1&#45;&gt;Node2 -->
<g id="edge1_Node000001_Node000002" class="edge">
<title>Node1&#45;&gt;Node2</title>
<g id="a_edge1_Node000001_Node000002"><a xlink:title=" ">
<path fill="none" stroke="#63b8ff" d="M62.35,-54.08C57.61,-46.97 50.74,-36.68 44.86,-27.85"/>
<polygon fill="#63b8ff" stroke="#63b8ff" points="47.26,-26.14 38.8,-19.76 41.43,-30.02 47.26,-26.14"/>
</a>
</g>
</g>
<!-- Node3 -->
<g id="Node000003" class="node">
<title>Node3</title>
<g id="a_Node000003"><a xlink:title=" ">
<polygon fill="#e0e0e0" stroke="#999999" points="121.62,-18.5 84.62,-18.5 84.62,0 121.62,0 121.62,-18.5"/>
<text text-anchor="middle" x="103.12" y="-5" font-family="Helvetica,sans-Serif" font-size="10.00">tlsf.h</text>
</a>
</g>
</g>
<!-- Node1&#45;&gt;Node3 -->
<g id="edge2_Node000001_Node000003" class="edge">
<title>Node1&#45;&gt;Node3</title>
<g id="a_edge2_Node000001_Node000003"><a xlink:title=" ">
<path fill="none" stroke="#63b8ff" d="M73.9,-54.08C78.64,-46.97 85.51,-36.68 91.39,-27.85"/>
<polygon fill="#63b8ff" stroke="#63b8ff" points="94.82,-30.02 97.45,-19.76 88.99,-26.14 94.82,-30.02"/>
</a>
</g>
</g>
</g>
</svg>
