<?xml version="1.0" encoding="UTF-8" standalone="no"?>
<!DOCTYPE svg PUBLIC "-//W3C//DTD SVG 1.1//EN"
 "http://www.w3.org/Graphics/SVG/1.1/DTD/svg11.dtd">
<!-- Generated by graphviz version 12.2.1 (0)
 -->
<!-- Title: async.h Pages: 1 -->
<svg width="396pt" height="245pt"
 viewBox="0.00 0.00 396.12 244.50" xmlns="http://www.w3.org/2000/svg" xmlns:xlink="http://www.w3.org/1999/xlink">
<g id="graph0" class="graph" transform="scale(1 1) rotate(0) translate(4 240.5)">
<title>async.h</title>
<!-- Node1 -->
<g id="Node000001" class="node">
<title>Node1</title>
<g id="a_Node000001"><a xlink:title=" ">
<polygon fill="#999999" stroke="#666666" points="243.12,-236.5 193.38,-236.5 193.38,-218 243.12,-218 243.12,-236.5"/>
<text text-anchor="middle" x="218.25" y="-223" font-family="Helvetica,sans-Serif" font-size="10.00">async.h</text>
</a>
</g>
</g>
<!-- Node2 -->
<g id="Node000002" class="node">
<title>Node2</title>
<g id="a_Node000002"><a xlink:href="a01415.html" target="_top" xlink:title=" ">
<polygon fill="white" stroke="#666666" points="190.38,-182 94.12,-182 94.12,-163.5 190.38,-163.5 190.38,-182"/>
<text text-anchor="middle" x="142.25" y="-168.5" font-family="Helvetica,sans-Serif" font-size="10.00">core/arax_object.h</text>
</a>
</g>
</g>
<!-- Node1&#45;&gt;Node2 -->
<g id="edge1_Node000001_Node000002" class="edge">
<title>Node1&#45;&gt;Node2</title>
<g id="a_edge1_Node000001_Node000002"><a xlink:title=" ">
<path fill="none" stroke="#63b8ff" d="M205.7,-217.58C194.37,-209.75 177.45,-198.07 163.93,-188.73"/>
<polygon fill="#63b8ff" stroke="#63b8ff" points="166.28,-186.1 156.06,-183.29 162.3,-191.86 166.28,-186.1"/>
</a>
</g>
</g>
<!-- Node3 -->
<g id="Node000003" class="node">
<title>Node3</title>
<g id="a_Node000003"><a xlink:href="a01388.html" target="_top" xlink:title=" ">
<polygon fill="white" stroke="#666666" points="86.88,-127.5 29.62,-127.5 29.62,-109 86.88,-109 86.88,-127.5"/>
<text text-anchor="middle" x="58.25" y="-114" font-family="Helvetica,sans-Serif" font-size="10.00">utils/list.h</text>
</a>
</g>
</g>
<!-- Node1&#45;&gt;Node3 -->
<g id="edge10_Node000001_Node000003" class="edge">
<title>Node1&#45;&gt;Node3</title>
<g id="a_edge10_Node000001_Node000003"><a xlink:title=" ">
<path fill="none" stroke="#63b8ff" d="M193.1,-224.03C163.8,-220.19 115.54,-209.82 85.25,-182 72.94,-170.7 66.01,-152.83 62.25,-139.05"/>
<polygon fill="#63b8ff" stroke="#63b8ff" points="65.66,-138.26 59.99,-129.32 58.85,-139.85 65.66,-138.26"/>
</a>
</g>
</g>
<!-- Node9 -->
<g id="Node000009" class="node">
<title>Node9</title>
<g id="a_Node000009"><a xlink:title=" ">
<polygon fill="#e0e0e0" stroke="#999999" points="270.38,-127.5 204.12,-127.5 204.12,-109 270.38,-109 270.38,-127.5"/>
<text text-anchor="middle" x="237.25" y="-114" font-family="Helvetica,sans-Serif" font-size="10.00">arch/alloc.h</text>
</a>
</g>
</g>
<!-- Node1&#45;&gt;Node9 -->
<g id="edge12_Node000001_Node000009" class="edge">
<title>Node1&#45;&gt;Node9</title>
<g id="a_edge12_Node000001_Node000009"><a xlink:title=" ">
<path fill="none" stroke="#63b8ff" d="M219.74,-217.85C222.74,-200.98 229.56,-162.57 233.75,-138.98"/>
<polygon fill="#63b8ff" stroke="#63b8ff" points="237.15,-139.85 235.45,-129.39 230.25,-138.63 237.15,-139.85"/>
</a>
</g>
</g>
<!-- Node10 -->
<g id="Node000010" class="node">
<title>Node10</title>
<g id="a_Node000010"><a xlink:title=" ">
<polygon fill="#e0e0e0" stroke="#999999" points="302.5,-182 246,-182 246,-163.5 302.5,-163.5 302.5,-182"/>
<text text-anchor="middle" x="274.25" y="-168.5" font-family="Helvetica,sans-Serif" font-size="10.00">pthread.h</text>
</a>
</g>
</g>
<!-- Node1&#45;&gt;Node10 -->
<g id="edge11_Node000001_Node000010" class="edge">
<title>Node1&#45;&gt;Node10</title>
<g id="a_edge11_Node000001_Node000010"><a xlink:title=" ">
<path fill="none" stroke="#63b8ff" d="M227.5,-217.58C235.49,-210.09 247.25,-199.06 256.98,-189.94"/>
<polygon fill="#63b8ff" stroke="#63b8ff" points="259.17,-192.69 264.07,-183.29 254.38,-187.58 259.17,-192.69"/>
</a>
</g>
</g>
<!-- Node11 -->
<g id="Node000011" class="node">
<title>Node11</title>
<g id="a_Node000011"><a xlink:href="a01436.html" target="_top" xlink:title=" ">
<polygon fill="white" stroke="#666666" points="388.12,-182 320.38,-182 320.38,-163.5 388.12,-163.5 388.12,-182"/>
<text text-anchor="middle" x="354.25" y="-168.5" font-family="Helvetica,sans-Serif" font-size="10.00">async_api.h</text>
</a>
</g>
</g>
<!-- Node1&#45;&gt;Node11 -->
<g id="edge13_Node000001_Node000011" class="edge">
<title>Node1&#45;&gt;Node11</title>
<g id="a_edge13_Node000001_Node000011"><a xlink:title=" ">
<path fill="none" stroke="#63b8ff" d="M240.71,-217.58C262.66,-209.11 296.33,-196.11 321.31,-186.47"/>
<polygon fill="#63b8ff" stroke="#63b8ff" points="322.28,-189.84 330.35,-182.98 319.76,-183.31 322.28,-189.84"/>
</a>
</g>
</g>
<!-- Node2&#45;&gt;Node3 -->
<g id="edge2_Node000002_Node000003" class="edge">
<title>Node2&#45;&gt;Node3</title>
<g id="a_edge2_Node000002_Node000003"><a xlink:title=" ">
<path fill="none" stroke="#63b8ff" d="M128.38,-163.08C115.73,-155.18 96.79,-143.34 81.78,-133.96"/>
<polygon fill="#63b8ff" stroke="#63b8ff" points="83.76,-131.07 73.42,-128.73 80.05,-137 83.76,-131.07"/>
</a>
</g>
</g>
<!-- Node6 -->
<g id="Node000006" class="node">
<title>Node6</title>
<g id="a_Node000006"><a xlink:href="a01394.html" target="_top" xlink:title=" ">
<polygon fill="white" stroke="#666666" points="185.88,-127.5 104.62,-127.5 104.62,-109 185.88,-109 185.88,-127.5"/>
<text text-anchor="middle" x="145.25" y="-114" font-family="Helvetica,sans-Serif" font-size="10.00">utils/spinlock.h</text>
</a>
</g>
</g>
<!-- Node2&#45;&gt;Node6 -->
<g id="edge5_Node000002_Node000006" class="edge">
<title>Node2&#45;&gt;Node6</title>
<g id="a_edge5_Node000002_Node000006"><a xlink:title=" ">
<path fill="none" stroke="#63b8ff" d="M142.75,-163.08C143.12,-156.58 143.64,-147.42 144.11,-139.16"/>
<polygon fill="#63b8ff" stroke="#63b8ff" points="147.6,-139.45 144.68,-129.27 140.61,-139.05 147.6,-139.45"/>
</a>
</g>
</g>
<!-- Node2&#45;&gt;Node9 -->
<g id="edge9_Node000002_Node000009" class="edge">
<title>Node2&#45;&gt;Node9</title>
<g id="a_edge9_Node000002_Node000009"><a xlink:title=" ">
<path fill="none" stroke="#63b8ff" d="M157.94,-163.08C172.51,-155.03 194.49,-142.88 211.61,-133.42"/>
<polygon fill="#63b8ff" stroke="#63b8ff" points="213.16,-136.56 220.21,-128.66 209.77,-130.44 213.16,-136.56"/>
</a>
</g>
</g>
<!-- Node4 -->
<g id="Node000004" class="node">
<title>Node4</title>
<g id="a_Node000004"><a xlink:title=" ">
<polygon fill="#e0e0e0" stroke="#999999" points="50.5,-73 0,-73 0,-54.5 50.5,-54.5 50.5,-73"/>
<text text-anchor="middle" x="25.25" y="-59.5" font-family="Helvetica,sans-Serif" font-size="10.00">stddef.h</text>
</a>
</g>
</g>
<!-- Node3&#45;&gt;Node4 -->
<g id="edge3_Node000003_Node000004" class="edge">
<title>Node3&#45;&gt;Node4</title>
<g id="a_edge3_Node000003_Node000004"><a xlink:title=" ">
<path fill="none" stroke="#63b8ff" d="M52.8,-108.58C48.43,-101.62 42.14,-91.62 36.67,-82.92"/>
<polygon fill="#63b8ff" stroke="#63b8ff" points="39.69,-81.14 31.4,-74.54 33.76,-84.87 39.69,-81.14"/>
</a>
</g>
</g>
<!-- Node5 -->
<g id="Node000005" class="node">
<title>Node5</title>
<g id="a_Node000005"><a xlink:title=" ">
<polygon fill="#e0e0e0" stroke="#999999" points="116,-73 68.5,-73 68.5,-54.5 116,-54.5 116,-73"/>
<text text-anchor="middle" x="92.25" y="-59.5" font-family="Helvetica,sans-Serif" font-size="10.00">stdint.h</text>
</a>
</g>
</g>
<!-- Node3&#45;&gt;Node5 -->
<g id="edge4_Node000003_Node000005" class="edge">
<title>Node3&#45;&gt;Node5</title>
<g id="a_edge4_Node000003_Node000005"><a xlink:title=" ">
<path fill="none" stroke="#63b8ff" d="M63.86,-108.58C68.37,-101.62 74.85,-91.62 80.48,-82.92"/>
<polygon fill="#63b8ff" stroke="#63b8ff" points="83.42,-84.82 85.92,-74.53 77.54,-81.02 83.42,-84.82"/>
</a>
</g>
</g>
<!-- Node6&#45;&gt;Node5 -->
<g id="edge6_Node000006_Node000005" class="edge">
<title>Node6&#45;&gt;Node5</title>
<g id="a_edge6_Node000006_Node000005"><a xlink:title=" ">
<path fill="none" stroke="#63b8ff" d="M136.5,-108.58C129.01,-101.17 118.03,-90.28 108.88,-81.22"/>
<polygon fill="#63b8ff" stroke="#63b8ff" points="111.48,-78.87 101.91,-74.32 106.56,-83.85 111.48,-78.87"/>
</a>
</g>
</g>
<!-- Node7 -->
<g id="Node000007" class="node">
<title>Node7</title>
<g id="a_Node000007"><a xlink:href="a01373.html" target="_top" xlink:title=" ">
<polygon fill="white" stroke="#666666" points="230.75,-73 133.75,-73 133.75,-54.5 230.75,-54.5 230.75,-73"/>
<text text-anchor="middle" x="182.25" y="-59.5" font-family="Helvetica,sans-Serif" font-size="10.00">utils/arax_assert.h</text>
</a>
</g>
</g>
<!-- Node6&#45;&gt;Node7 -->
<g id="edge7_Node000006_Node000007" class="edge">
<title>Node6&#45;&gt;Node7</title>
<g id="a_edge7_Node000006_Node000007"><a xlink:title=" ">
<path fill="none" stroke="#63b8ff" d="M151.36,-108.58C156.32,-101.55 163.47,-91.4 169.64,-82.64"/>
<polygon fill="#63b8ff" stroke="#63b8ff" points="172.48,-84.69 175.38,-74.5 166.76,-80.65 172.48,-84.69"/>
</a>
</g>
</g>
<!-- Node8 -->
<g id="Node000008" class="node">
<title>Node8</title>
<g id="a_Node000008"><a xlink:href="a01382.html" target="_top" xlink:title=" ">
<polygon fill="white" stroke="#666666" points="210.12,-18.5 154.38,-18.5 154.38,0 210.12,0 210.12,-18.5"/>
<text text-anchor="middle" x="182.25" y="-5" font-family="Helvetica,sans-Serif" font-size="10.00">compat.h</text>
</a>
</g>
</g>
<!-- Node7&#45;&gt;Node8 -->
<g id="edge8_Node000007_Node000008" class="edge">
<title>Node7&#45;&gt;Node8</title>
<g id="a_edge8_Node000007_Node000008"><a xlink:title=" ">
<path fill="none" stroke="#63b8ff" d="M182.25,-54.08C182.25,-47.58 182.25,-38.42 182.25,-30.16"/>
<polygon fill="#63b8ff" stroke="#63b8ff" points="185.75,-30.27 182.25,-20.27 178.75,-30.27 185.75,-30.27"/>
</a>
</g>
</g>
<!-- Node11&#45;&gt;Node9 -->
<g id="edge14_Node000011_Node000009" class="edge">
<title>Node11&#45;&gt;Node9</title>
<g id="a_edge14_Node000011_Node000009"><a xlink:title=" ">
<path fill="none" stroke="#63b8ff" d="M334.93,-163.08C316.47,-154.8 288.38,-142.19 267.05,-132.62"/>
<polygon fill="#63b8ff" stroke="#63b8ff" points="268.54,-129.45 257.98,-128.55 265.67,-135.84 268.54,-129.45"/>
</a>
</g>
</g>
</g>
</svg>
