<?xml version="1.0" encoding="UTF-8" standalone="no"?>
<!DOCTYPE svg PUBLIC "-//W3C//DTD SVG 1.1//EN"
 "http://www.w3.org/Graphics/SVG/1.1/DTD/svg11.dtd">
<!-- Generated by graphviz version 8.0.5 (0)
 -->
<!-- Title: _add_completion Pages: 1 -->
<svg width="342pt" height="27pt"
 viewBox="0.00 0.00 341.75 26.50" xmlns="http://www.w3.org/2000/svg" xmlns:xlink="http://www.w3.org/1999/xlink">
<g id="graph0" class="graph" transform="scale(1 1) rotate(0) translate(4 22.5)">
<title>_add_completion</title>
<!-- Node1 -->
<g id="Node000001" class="node">
<title>Node1</title>
<g id="a_Node000001"><a xlink:title=" ">
<polygon fill="#999999" stroke="#666666" points="89.5,-18.5 0,-18.5 0,0 89.5,0 89.5,-18.5"/>
<text text-anchor="middle" x="44.75" y="-5" font-family="Helvetica,sans-Serif" font-size="10.00">_add_completion</text>
</a>
</g>
</g>
<!-- Node2 -->
<g id="Node000002" class="node">
<title>Node2</title>
<g id="a_Node000002"><a xlink:href="a01946.html#ae06a9e78e6a4f6c9c8afcf0f4862ce29" target="_top" xlink:title=" ">
<polygon fill="white" stroke="#666666" points="198.5,-18.5 125.5,-18.5 125.5,0 198.5,0 198.5,-18.5"/>
<text text-anchor="middle" x="162" y="-5" font-family="Helvetica,sans-Serif" font-size="10.00">utils_list_add</text>
</a>
</g>
</g>
<!-- Node1&#45;&gt;Node2 -->
<g id="edge1_Node000001_Node000002" class="edge">
<title>Node1&#45;&gt;Node2</title>
<g id="a_edge1_Node000001_Node000002"><a xlink:title=" ">
<path fill="none" stroke="#63b8ff" d="M89.98,-9.25C98.01,-9.25 106.41,-9.25 114.5,-9.25"/>
<polygon fill="#63b8ff" stroke="#63b8ff" points="114.28,-12.75 124.28,-9.25 114.28,-5.75 114.28,-12.75"/>
</a>
</g>
</g>
<!-- Node3 -->
<g id="Node000003" class="node">
<title>Node3</title>
<g id="a_Node000003"><a xlink:href="a01946.html#a5c575f52a42e0e0d2fb41bda2d1268ce" target="_top" xlink:title=" ">
<polygon fill="white" stroke="#666666" points="333.75,-18.5 234.5,-18.5 234.5,0 333.75,0 333.75,-18.5"/>
<text text-anchor="middle" x="284.12" y="-5" font-family="Helvetica,sans-Serif" font-size="10.00">utils_list_node_add</text>
</a>
</g>
</g>
<!-- Node2&#45;&gt;Node3 -->
<g id="edge2_Node000002_Node000003" class="edge">
<title>Node2&#45;&gt;Node3</title>
<g id="a_edge2_Node000002_Node000003"><a xlink:title=" ">
<path fill="none" stroke="#63b8ff" d="M198.72,-9.25C206.59,-9.25 215.14,-9.25 223.68,-9.25"/>
<polygon fill="#63b8ff" stroke="#63b8ff" points="223.43,-12.75 233.43,-9.25 223.43,-5.75 223.43,-12.75"/>
</a>
</g>
</g>
</g>
</svg>
