<?xml version="1.0" encoding="UTF-8" standalone="no"?>
<!DOCTYPE svg PUBLIC "-//W3C//DTD SVG 1.1//EN"
 "http://www.w3.org/Graphics/SVG/1.1/DTD/svg11.dtd">
<!-- Generated by graphviz version 8.0.5 (0)
 -->
<!-- Title: async_condition_init Pages: 1 -->
<svg width="287pt" height="101pt"
 viewBox="0.00 0.00 286.75 100.50" xmlns="http://www.w3.org/2000/svg" xmlns:xlink="http://www.w3.org/1999/xlink">
<g id="graph0" class="graph" transform="scale(1 1) rotate(0) translate(4 96.5)">
<title>async_condition_init</title>
<!-- Node1 -->
<g id="Node000001" class="node">
<title>Node1</title>
<g id="a_Node000001"><a xlink:title=" ">
<polygon fill="#999999" stroke="#666666" points="103.75,-55.5 0,-55.5 0,-37 103.75,-37 103.75,-55.5"/>
<text text-anchor="middle" x="51.88" y="-42" font-family="Helvetica,sans-Serif" font-size="10.00">async_condition_init</text>
</a>
</g>
</g>
<!-- Node2 -->
<g id="Node000002" class="node">
<title>Node2</title>
<g id="a_Node000002"><a xlink:href="a02346.html#ad1d30ecbf6bff6457b680aa940281072" target="_top" xlink:title=" ">
<polygon fill="white" stroke="#666666" points="278.75,-92.5 139.75,-92.5 139.75,-74 278.75,-74 278.75,-92.5"/>
<text text-anchor="middle" x="209.25" y="-79" font-family="Helvetica,sans-Serif" font-size="10.00">async_completion_complete</text>
</a>
</g>
</g>
<!-- Node1&#45;&gt;Node2 -->
<g id="edge1_Node000001_Node000002" class="edge">
<title>Node1&#45;&gt;Node2</title>
<g id="a_edge1_Node000001_Node000002"><a xlink:title=" ">
<path fill="none" stroke="#63b8ff" d="M93.7,-55.97C113.07,-60.58 136.42,-66.15 156.97,-71.04"/>
<polygon fill="#63b8ff" stroke="#63b8ff" points="155.89,-74.62 166.43,-73.53 157.51,-67.81 155.89,-74.62"/>
</a>
</g>
</g>
<!-- Node3 -->
<g id="Node000003" class="node">
<title>Node3</title>
<g id="a_Node000003"><a xlink:href="a02346.html#ac728117d73179c279de49e01ae905dda" target="_top" xlink:title=" ">
<polygon fill="white" stroke="#666666" points="265.25,-55.5 153.25,-55.5 153.25,-37 265.25,-37 265.25,-55.5"/>
<text text-anchor="middle" x="209.25" y="-42" font-family="Helvetica,sans-Serif" font-size="10.00">async_completion_init</text>
</a>
</g>
</g>
<!-- Node1&#45;&gt;Node3 -->
<g id="edge2_Node000001_Node000003" class="edge">
<title>Node1&#45;&gt;Node3</title>
<g id="a_edge2_Node000001_Node000003"><a xlink:title=" ">
<path fill="none" stroke="#63b8ff" d="M104.18,-46.25C116.28,-46.25 129.35,-46.25 142.01,-46.25"/>
<polygon fill="#63b8ff" stroke="#63b8ff" points="141.99,-49.75 151.99,-46.25 141.99,-42.75 141.99,-49.75"/>
</a>
</g>
</g>
<!-- Node4 -->
<g id="Node000004" class="node">
<title>Node4</title>
<g id="a_Node000004"><a xlink:href="a02346.html#a2a7d01fc7720e936a430efc09d094c6c" target="_top" xlink:title=" ">
<polygon fill="white" stroke="#666666" points="265.62,-18.5 152.88,-18.5 152.88,0 265.62,0 265.62,-18.5"/>
<text text-anchor="middle" x="209.25" y="-5" font-family="Helvetica,sans-Serif" font-size="10.00">async_semaphore_init</text>
</a>
</g>
</g>
<!-- Node1&#45;&gt;Node4 -->
<g id="edge3_Node000001_Node000004" class="edge">
<title>Node1&#45;&gt;Node4</title>
<g id="a_edge3_Node000001_Node000004"><a xlink:title=" ">
<path fill="none" stroke="#63b8ff" d="M93.7,-36.53C113.07,-31.92 136.42,-26.35 156.97,-21.46"/>
<polygon fill="#63b8ff" stroke="#63b8ff" points="157.51,-24.69 166.43,-18.97 155.89,-17.88 157.51,-24.69"/>
</a>
</g>
</g>
</g>
</svg>
