<?xml version="1.0" encoding="UTF-8" standalone="no"?>
<!DOCTYPE svg PUBLIC "-//W3C//DTD SVG 1.1//EN"
 "http://www.w3.org/Graphics/SVG/1.1/DTD/svg11.dtd">
<!-- Generated by graphviz version 11.0.0 (0)
 -->
<!-- Title: async_semaphore_inc Pages: 1 -->
<svg width="1660pt" height="447pt"
 viewBox="0.00 0.00 1660.00 446.50" xmlns="http://www.w3.org/2000/svg" xmlns:xlink="http://www.w3.org/1999/xlink">
<g id="graph0" class="graph" transform="scale(1 1) rotate(0) translate(4 442.5)">
<title>async_semaphore_inc</title>
<!-- Node1 -->
<g id="Node000001" class="node">
<title>Node1</title>
<g id="a_Node000001"><a xlink:title=" ">
<polygon fill="#999999" stroke="#666666" points="1652,-134.5 1539.25,-134.5 1539.25,-116 1652,-116 1652,-134.5"/>
<text text-anchor="middle" x="1595.62" y="-121" font-family="Helvetica,sans-Serif" font-size="10.00">async_semaphore_inc</text>
</a>
</g>
</g>
<!-- Node2 -->
<g id="Node000002" class="node">
<title>Node2</title>
<g id="a_Node000002"><a xlink:href="a02367.html#a45a896fb606c2aa66a5a4c2af59ce494" target="_top" xlink:title=" ">
<polygon fill="white" stroke="#666666" points="1503.25,-134.5 1388.25,-134.5 1388.25,-116 1503.25,-116 1503.25,-134.5"/>
<text text-anchor="middle" x="1445.75" y="-121" font-family="Helvetica,sans-Serif" font-size="10.00">async_condition_notify</text>
</a>
</g>
</g>
<!-- Node1&#45;&gt;Node2 -->
<g id="edge1_Node000001_Node000002" class="edge">
<title>Node1&#45;&gt;Node2</title>
<g id="a_edge1_Node000001_Node000002"><a xlink:title=" ">
<path fill="none" stroke="#63b8ff" d="M1527.8,-125.25C1519.69,-125.25 1511.47,-125.25 1503.53,-125.25"/>
<polygon fill="#63b8ff" stroke="#63b8ff" points="1527.63,-128.75 1537.63,-125.25 1527.63,-121.75 1527.63,-128.75"/>
</a>
</g>
</g>
<!-- Node3 -->
<g id="Node000003" class="node">
<title>Node3</title>
<g id="a_Node000003"><a xlink:href="a01919.html#ab6afd8cc035237c811ce6a1b7727acc3" target="_top" xlink:title=" ">
<polygon fill="white" stroke="#666666" points="1344.38,-307.5 1235.38,-307.5 1235.38,-289 1344.38,-289 1344.38,-307.5"/>
<text text-anchor="middle" x="1289.88" y="-294" font-family="Helvetica,sans-Serif" font-size="10.00">arax_accel_add_task</text>
</a>
</g>
</g>
<!-- Node2&#45;&gt;Node3 -->
<g id="edge2_Node000002_Node000003" class="edge">
<title>Node2&#45;&gt;Node3</title>
<g id="a_edge2_Node000002_Node000003"><a xlink:title=" ">
<path fill="none" stroke="#63b8ff" d="M1429,-142.96C1396.82,-179.14 1324.48,-260.47 1299.53,-288.52"/>
<polygon fill="#63b8ff" stroke="#63b8ff" points="1431.22,-145.73 1435.25,-135.93 1425.99,-141.07 1431.22,-145.73"/>
</a>
</g>
</g>
<!-- Node13 -->
<g id="Node000013" class="node">
<title>Node13</title>
<g id="a_Node000013"><a xlink:href="a01919.html#af0b933c02a24d69c1efa40179f60288f" target="_top" xlink:title=" ">
<polygon fill="white" stroke="#666666" points="1348.88,-176.5 1230.88,-176.5 1230.88,-158 1348.88,-158 1348.88,-176.5"/>
<text text-anchor="middle" x="1289.88" y="-163" font-family="Helvetica,sans-Serif" font-size="10.00">arax_accel_add_vaccel</text>
</a>
</g>
</g>
<!-- Node2&#45;&gt;Node13 -->
<g id="edge13_Node000002_Node000013" class="edge">
<title>Node2&#45;&gt;Node13</title>
<g id="a_edge13_Node000002_Node000013"><a xlink:title=" ">
<path fill="none" stroke="#63b8ff" d="M1398.14,-137.97C1375.08,-144.27 1347.7,-151.74 1326.37,-157.56"/>
<polygon fill="#63b8ff" stroke="#63b8ff" points="1398.88,-141.4 1407.6,-135.39 1397.03,-134.65 1398.88,-141.4"/>
</a>
</g>
</g>
<!-- Node19 -->
<g id="Node000019" class="node">
<title>Node19</title>
<g id="a_Node000019"><a xlink:href="a01919.html#aa3f384ca4812e46dedce753be42654df" target="_top" xlink:title=" ">
<polygon fill="white" stroke="#666666" points="1347.38,-92.5 1232.38,-92.5 1232.38,-74 1347.38,-74 1347.38,-92.5"/>
<text text-anchor="middle" x="1289.88" y="-79" font-family="Helvetica,sans-Serif" font-size="10.00">arax_accel_del_vaccel</text>
</a>
</g>
</g>
<!-- Node2&#45;&gt;Node19 -->
<g id="edge19_Node000002_Node000019" class="edge">
<title>Node2&#45;&gt;Node19</title>
<g id="a_edge19_Node000002_Node000019"><a xlink:title=" ">
<path fill="none" stroke="#63b8ff" d="M1398.14,-112.53C1375.08,-106.23 1347.7,-98.76 1326.37,-92.94"/>
<polygon fill="#63b8ff" stroke="#63b8ff" points="1397.03,-115.85 1407.6,-115.11 1398.88,-109.1 1397.03,-115.85"/>
</a>
</g>
</g>
<!-- Node21 -->
<g id="Node000021" class="node">
<title>Node21</title>
<g id="a_Node000021"><a xlink:href="a01913.html#a57a9203f163a9c8c78e22bde5fa4efbc" target="_top" xlink:title=" ">
<polygon fill="white" stroke="#666666" points="1352.25,-55.5 1227.5,-55.5 1227.5,-37 1352.25,-37 1352.25,-55.5"/>
<text text-anchor="middle" x="1289.88" y="-42" font-family="Helvetica,sans-Serif" font-size="10.00">arax_controller_init_done</text>
</a>
</g>
</g>
<!-- Node2&#45;&gt;Node21 -->
<g id="edge21_Node000002_Node000021" class="edge">
<title>Node2&#45;&gt;Node21</title>
<g id="a_edge21_Node000002_Node000021"><a xlink:title=" ">
<path fill="none" stroke="#63b8ff" d="M1423.13,-108.77C1405,-95.56 1377.99,-77.3 1352.25,-65.25 1344.67,-61.7 1336.27,-58.6 1328.17,-55.99"/>
<polygon fill="#63b8ff" stroke="#63b8ff" points="1420.9,-111.47 1431.02,-114.62 1425.07,-105.85 1420.9,-111.47"/>
</a>
</g>
</g>
<!-- Node22 -->
<g id="Node000022" class="node">
<title>Node22</title>
<g id="a_Node000022"><a xlink:href="a01931.html#aa4461ab1d225a0f76f08d2f37a4a7e0e" target="_top" xlink:title=" ">
<polygon fill="white" stroke="#666666" points="1347.38,-139.75 1232.38,-139.75 1232.38,-110.75 1347.38,-110.75 1347.38,-139.75"/>
<text text-anchor="start" x="1240.38" y="-126.25" font-family="Helvetica,sans-Serif" font-size="10.00">arax_pipe_add_orphan</text>
<text text-anchor="middle" x="1289.88" y="-115.75" font-family="Helvetica,sans-Serif" font-size="10.00">_vaccel</text>
</a>
</g>
</g>
<!-- Node2&#45;&gt;Node22 -->
<g id="edge22_Node000002_Node000022" class="edge">
<title>Node2&#45;&gt;Node22</title>
<g id="a_edge22_Node000002_Node000022"><a xlink:title=" ">
<path fill="none" stroke="#63b8ff" d="M1376.68,-125.25C1367.02,-125.25 1357.17,-125.25 1347.76,-125.25"/>
<polygon fill="#63b8ff" stroke="#63b8ff" points="1376.38,-128.75 1386.38,-125.25 1376.38,-121.75 1376.38,-128.75"/>
</a>
</g>
</g>
<!-- Node23 -->
<g id="Node000023" class="node">
<title>Node23</title>
<g id="a_Node000023"><a xlink:href="a01931.html#a6cb53dd71cfaedb214bc5aef0e572cc2" target="_top" xlink:title=" ">
<polygon fill="white" stroke="#666666" points="1348.88,-18.5 1230.88,-18.5 1230.88,0 1348.88,0 1348.88,-18.5"/>
<text text-anchor="middle" x="1289.88" y="-5" font-family="Helvetica,sans-Serif" font-size="10.00">arax_pipe_orphan_stop</text>
</a>
</g>
</g>
<!-- Node2&#45;&gt;Node23 -->
<g id="edge24_Node000002_Node000023" class="edge">
<title>Node2&#45;&gt;Node23</title>
<g id="a_edge24_Node000002_Node000023"><a xlink:title=" ">
<path fill="none" stroke="#63b8ff" d="M1431.6,-106.51C1415.36,-84.69 1385.72,-48.99 1352.25,-28.25 1346.18,-24.49 1339.31,-21.42 1332.42,-18.94"/>
<polygon fill="#63b8ff" stroke="#63b8ff" points="1428.69,-108.45 1437.39,-114.5 1434.36,-104.34 1428.69,-108.45"/>
</a>
</g>
</g>
<!-- Node24 -->
<g id="Node000024" class="node">
<title>Node24</title>
<g id="a_Node000024"><a xlink:href="a01943.html#a7d3a67fa4eeb00cc9508a7ffe451a02f" target="_top" xlink:title=" ">
<polygon fill="white" stroke="#666666" points="1345.5,-213.5 1234.25,-213.5 1234.25,-195 1345.5,-195 1345.5,-213.5"/>
<text text-anchor="middle" x="1289.88" y="-200" font-family="Helvetica,sans-Serif" font-size="10.00">arax_throttle_size_inc</text>
</a>
</g>
</g>
<!-- Node2&#45;&gt;Node24 -->
<g id="edge25_Node000002_Node000024" class="edge">
<title>Node2&#45;&gt;Node24</title>
<g id="a_edge25_Node000002_Node000024"><a xlink:title=" ">
<path fill="none" stroke="#63b8ff" d="M1423.13,-141.73C1405,-154.94 1377.99,-173.2 1352.25,-185.25 1344.67,-188.8 1336.27,-191.9 1328.17,-194.51"/>
<polygon fill="#63b8ff" stroke="#63b8ff" points="1425.07,-144.65 1431.02,-135.88 1420.9,-139.03 1425.07,-144.65"/>
</a>
</g>
</g>
<!-- Node4 -->
<g id="Node000004" class="node">
<title>Node4</title>
<g id="a_Node000004"><a xlink:href="a01946.html#a8b82433bc8c7d7f03683ac521a3679fa" target="_top" xlink:title=" ">
<polygon fill="white" stroke="#666666" points="1182.12,-364.5 1068.62,-364.5 1068.62,-346 1182.12,-346 1182.12,-364.5"/>
<text text-anchor="middle" x="1125.38" y="-351" font-family="Helvetica,sans-Serif" font-size="10.00">arax_vaccel_add_task</text>
</a>
</g>
</g>
<!-- Node3&#45;&gt;Node4 -->
<g id="edge3_Node000003_Node000004" class="edge">
<title>Node3&#45;&gt;Node4</title>
<g id="a_edge3_Node000003_Node000004"><a xlink:title=" ">
<path fill="none" stroke="#63b8ff" d="M1250.53,-311.7C1220.91,-322.09 1180.62,-336.22 1154.08,-345.53"/>
<polygon fill="#63b8ff" stroke="#63b8ff" points="1251.6,-315.03 1259.88,-308.42 1249.29,-308.43 1251.6,-315.03"/>
</a>
</g>
</g>
<!-- Node5 -->
<g id="Node000005" class="node">
<title>Node5</title>
<g id="a_Node000005"><a xlink:href="a01940.html#ace08f924cb86d1310099621564536657" target="_top" xlink:title=" ">
<polygon fill="white" stroke="#666666" points="524.5,-438.5 430.5,-438.5 430.5,-420 524.5,-420 524.5,-438.5"/>
<text text-anchor="middle" x="477.5" y="-425" font-family="Helvetica,sans-Serif" font-size="10.00">arax_task_submit</text>
</a>
</g>
</g>
<!-- Node4&#45;&gt;Node5 -->
<g id="edge4_Node000004_Node000005" class="edge">
<title>Node4&#45;&gt;Node5</title>
<g id="a_edge4_Node000004_Node000005"><a xlink:title=" ">
<path fill="none" stroke="#63b8ff" d="M1069.63,-367.4C1016.57,-378.71 933.66,-395.15 861,-404.25 740.33,-419.36 597.02,-425.64 524.89,-427.99"/>
<polygon fill="#63b8ff" stroke="#63b8ff" points="1070.3,-370.84 1079.34,-365.31 1068.83,-363.99 1070.3,-370.84"/>
</a>
</g>
</g>
<!-- Node6 -->
<g id="Node000006" class="node">
<title>Node6</title>
<g id="a_Node000006"><a xlink:href="a02192.html#gac9f0f3fbb14da879d3ff09bd367bbb24" target="_top" xlink:title=" ">
<polygon fill="white" stroke="#666666" points="394.5,-234.5 306.5,-234.5 306.5,-216 394.5,-216 394.5,-234.5"/>
<text text-anchor="middle" x="350.5" y="-221" font-family="Helvetica,sans-Serif" font-size="10.00">arax_task_issue</text>
</a>
</g>
</g>
<!-- Node5&#45;&gt;Node6 -->
<g id="edge5_Node000005_Node000006" class="edge">
<title>Node5&#45;&gt;Node6</title>
<g id="a_edge5_Node000005_Node000006"><a xlink:title=" ">
<path fill="none" stroke="#63b8ff" d="M470.51,-408.75C459.7,-374.33 434.28,-304.02 394.5,-256.25 387.32,-247.62 377.21,-240.18 368.6,-234.75"/>
<polygon fill="#63b8ff" stroke="#63b8ff" points="467.14,-409.69 473.4,-418.25 473.84,-407.66 467.14,-409.69"/>
</a>
</g>
</g>
<!-- Node7 -->
<g id="Node000007" class="node">
<title>Node7</title>
<g id="a_Node000007"><a xlink:href="a01925.html#af8ede6fc8d207004035f45d945688d2c" target="_top" xlink:title=" ">
<polygon fill="white" stroke="#666666" points="253.62,-309.75 155.12,-309.75 155.12,-280.75 253.62,-280.75 253.62,-309.75"/>
<text text-anchor="start" x="163.12" y="-296.25" font-family="Helvetica,sans-Serif" font-size="10.00">arax_data_allocate</text>
<text text-anchor="middle" x="204.38" y="-285.75" font-family="Helvetica,sans-Serif" font-size="10.00">_remote</text>
</a>
</g>
</g>
<!-- Node6&#45;&gt;Node7 -->
<g id="edge6_Node000006_Node000007" class="edge">
<title>Node6&#45;&gt;Node7</title>
<g id="a_edge6_Node000006_Node000007"><a xlink:title=" ">
<path fill="none" stroke="#63b8ff" d="M325.06,-240.97C309.75,-250.44 289.4,-262.35 270.5,-271.25 263.74,-274.43 256.44,-277.48 249.25,-280.28"/>
<polygon fill="#63b8ff" stroke="#63b8ff" points="326.89,-243.96 333.49,-235.67 323.16,-238.03 326.89,-243.96"/>
</a>
</g>
</g>
<!-- Node8 -->
<g id="Node000008" class="node">
<title>Node8</title>
<g id="a_Node000008"><a xlink:href="a01925.html#a696bc4319d0f6c6baa7d797a8df6b56f" target="_top" xlink:title=" ">
<polygon fill="white" stroke="#666666" points="243.5,-225.5 165.25,-225.5 165.25,-207 243.5,-207 243.5,-225.5"/>
<text text-anchor="middle" x="204.38" y="-212" font-family="Helvetica,sans-Serif" font-size="10.00">arax_data_get</text>
</a>
</g>
</g>
<!-- Node6&#45;&gt;Node8 -->
<g id="edge7_Node000006_Node000008" class="edge">
<title>Node6&#45;&gt;Node8</title>
<g id="a_edge7_Node000006_Node000008"><a xlink:title=" ">
<path fill="none" stroke="#63b8ff" d="M295.23,-221.86C278.08,-220.79 259.49,-219.63 243.69,-218.64"/>
<polygon fill="#63b8ff" stroke="#63b8ff" points="294.55,-225.33 304.75,-222.46 294.98,-218.34 294.55,-225.33"/>
</a>
</g>
</g>
<!-- Node10 -->
<g id="Node000010" class="node">
<title>Node10</title>
<g id="a_Node000010"><a xlink:href="a01925.html#a8995f71dba475975efc37756783cfce9" target="_top" xlink:title=" ">
<polygon fill="white" stroke="#666666" points="243.5,-188.5 165.25,-188.5 165.25,-170 243.5,-170 243.5,-188.5"/>
<text text-anchor="middle" x="204.38" y="-175" font-family="Helvetica,sans-Serif" font-size="10.00">arax_data_set</text>
</a>
</g>
</g>
<!-- Node6&#45;&gt;Node10 -->
<g id="edge9_Node000006_Node000010" class="edge">
<title>Node6&#45;&gt;Node10</title>
<g id="a_edge9_Node000006_Node000010"><a xlink:title=" ">
<path fill="none" stroke="#63b8ff" d="M311.31,-211.81C298.4,-207.37 283.86,-202.48 270.5,-198.25 260.51,-195.09 249.59,-191.83 239.6,-188.92"/>
<polygon fill="#63b8ff" stroke="#63b8ff" points="310.16,-215.11 320.75,-215.08 312.45,-208.5 310.16,-215.11"/>
</a>
</g>
</g>
<!-- Node11 -->
<g id="Node000011" class="node">
<title>Node11</title>
<g id="a_Node000011"><a xlink:href="a01925.html#af735744d0f8bec04394639a841d2ba0f" target="_top" xlink:title=" ">
<polygon fill="white" stroke="#666666" points="270.5,-151.5 138.25,-151.5 138.25,-133 270.5,-133 270.5,-151.5"/>
<text text-anchor="middle" x="204.38" y="-138" font-family="Helvetica,sans-Serif" font-size="10.00">ARAX_OBJ_DTOR_DECL</text>
</a>
</g>
</g>
<!-- Node6&#45;&gt;Node11 -->
<g id="edge11_Node000006_Node000011" class="edge">
<title>Node6&#45;&gt;Node11</title>
<g id="a_edge11_Node000006_Node000011"><a xlink:title=" ">
<path fill="none" stroke="#63b8ff" d="M323.62,-209.64C317.82,-205.81 311.82,-201.56 306.5,-197.25 288.92,-183 289.97,-172.78 270.5,-161.25 264.12,-157.47 256.93,-154.4 249.72,-151.92"/>
<polygon fill="#63b8ff" stroke="#63b8ff" points="321.43,-212.4 331.74,-214.83 325.19,-206.5 321.43,-212.4"/>
</a>
</g>
</g>
<!-- Node12 -->
<g id="Node000012" class="node">
<title>Node12</title>
<g id="a_Node000012"><a xlink:href="a02192.html#ga1418f4cd7336bf77cce7b955a1bf7077" target="_top" xlink:title=" ">
<polygon fill="white" stroke="#666666" points="261.12,-262.5 147.62,-262.5 147.62,-244 261.12,-244 261.12,-262.5"/>
<text text-anchor="middle" x="204.38" y="-249" font-family="Helvetica,sans-Serif" font-size="10.00">arax_task_issue_sync</text>
</a>
</g>
</g>
<!-- Node6&#45;&gt;Node12 -->
<g id="edge12_Node000006_Node000012" class="edge">
<title>Node6&#45;&gt;Node12</title>
<g id="a_edge12_Node000006_Node000012"><a xlink:title=" ">
<path fill="none" stroke="#63b8ff" d="M295.08,-235.82C282.06,-238.35 268.23,-241.04 255.42,-243.53"/>
<polygon fill="#63b8ff" stroke="#63b8ff" points="295.62,-239.28 304.77,-233.94 294.29,-232.41 295.62,-239.28"/>
</a>
</g>
</g>
<!-- Node9 -->
<g id="Node000009" class="node">
<title>Node9</title>
<g id="a_Node000009"><a xlink:href="a01925.html#a7d8356bd5c8b6a8d7dffc6ba94cc22e5" target="_top" xlink:title=" ">
<polygon fill="white" stroke="#666666" points="102.25,-206.5 0,-206.5 0,-188 102.25,-188 102.25,-206.5"/>
<text text-anchor="middle" x="51.12" y="-193" font-family="Helvetica,sans-Serif" font-size="10.00">arax_data_memcpy</text>
</a>
</g>
</g>
<!-- Node8&#45;&gt;Node9 -->
<g id="edge8_Node000008_Node000009" class="edge">
<title>Node8&#45;&gt;Node9</title>
<g id="a_edge8_Node000008_Node000009"><a xlink:title=" ">
<path fill="none" stroke="#63b8ff" d="M153.79,-210.02C137.38,-207.96 119.1,-205.66 102.61,-203.59"/>
<polygon fill="#63b8ff" stroke="#63b8ff" points="152.96,-213.44 163.32,-211.22 153.83,-206.5 152.96,-213.44"/>
</a>
</g>
</g>
<!-- Node10&#45;&gt;Node9 -->
<g id="edge10_Node000010_Node000009" class="edge">
<title>Node10&#45;&gt;Node9</title>
<g id="a_edge10_Node000010_Node000009"><a xlink:title=" ">
<path fill="none" stroke="#63b8ff" d="M153.79,-185.15C137.38,-187.1 119.1,-189.28 102.61,-191.24"/>
<polygon fill="#63b8ff" stroke="#63b8ff" points="153.8,-188.67 163.31,-184.02 152.97,-181.72 153.8,-188.67"/>
</a>
</g>
</g>
<!-- Node14 -->
<g id="Node000014" class="node">
<title>Node14</title>
<g id="a_Node000014"><a xlink:href="a02190.html#ga30b30e50de286842c7942a7e3e163578" target="_top" xlink:title=" ">
<polygon fill="white" stroke="#666666" points="1187,-176.5 1063.75,-176.5 1063.75,-158 1187,-158 1187,-176.5"/>
<text text-anchor="middle" x="1125.38" y="-163" font-family="Helvetica,sans-Serif" font-size="10.00">arax_accel_set_physical</text>
</a>
</g>
</g>
<!-- Node13&#45;&gt;Node14 -->
<g id="edge14_Node000013_Node000014" class="edge">
<title>Node13&#45;&gt;Node14</title>
<g id="a_edge14_Node000013_Node000014"><a xlink:title=" ">
<path fill="none" stroke="#63b8ff" d="M1219.32,-167.25C1208.72,-167.25 1197.86,-167.25 1187.47,-167.25"/>
<polygon fill="#63b8ff" stroke="#63b8ff" points="1219.15,-170.75 1229.15,-167.25 1219.15,-163.75 1219.15,-170.75"/>
</a>
</g>
</g>
<!-- Node15 -->
<g id="Node000015" class="node">
<title>Node15</title>
<g id="a_Node000015"><a xlink:href="a01946.html#a83ddb422946cf774c687c1ab63dcda15" target="_top" xlink:title=" ">
<polygon fill="white" stroke="#666666" points="1168.62,-134.5 1082.12,-134.5 1082.12,-116 1168.62,-116 1168.62,-134.5"/>
<text text-anchor="middle" x="1125.38" y="-121" font-family="Helvetica,sans-Serif" font-size="10.00">arax_vaccel_init</text>
</a>
</g>
</g>
<!-- Node13&#45;&gt;Node15 -->
<g id="edge15_Node000013_Node000015" class="edge">
<title>Node13&#45;&gt;Node15</title>
<g id="a_edge15_Node000013_Node000015"><a xlink:title=" ">
<path fill="none" stroke="#63b8ff" d="M1240.31,-154.7C1215.82,-148.37 1186.59,-140.81 1163.86,-134.94"/>
<polygon fill="#63b8ff" stroke="#63b8ff" points="1239.16,-158.02 1249.72,-157.13 1240.91,-151.24 1239.16,-158.02"/>
</a>
</g>
</g>
<!-- Node16 -->
<g id="Node000016" class="node">
<title>Node16</title>
<g id="a_Node000016"><a xlink:href="a02190.html#gaf8a10ab4e51e59c464ab3ab473e4a0f7" target="_top" xlink:title=" ">
<polygon fill="white" stroke="#666666" points="1023.25,-169.5 897,-169.5 897,-151 1023.25,-151 1023.25,-169.5"/>
<text text-anchor="middle" x="960.12" y="-156" font-family="Helvetica,sans-Serif" font-size="10.00">arax_accel_acquire_phys</text>
</a>
</g>
</g>
<!-- Node15&#45;&gt;Node16 -->
<g id="edge16_Node000015_Node000016" class="edge">
<title>Node15&#45;&gt;Node16</title>
<g id="a_edge16_Node000015_Node000016"><a xlink:title=" ">
<path fill="none" stroke="#63b8ff" d="M1070.7,-136.76C1049.93,-141.21 1026.43,-146.25 1006.52,-150.52"/>
<polygon fill="#63b8ff" stroke="#63b8ff" points="1071.39,-140.19 1080.43,-134.67 1069.92,-133.35 1071.39,-140.19"/>
</a>
</g>
</g>
<!-- Node17 -->
<g id="Node000017" class="node">
<title>Node17</title>
<g id="a_Node000017"><a xlink:href="a02190.html#ga008252bb9afc2990fa2c5f4b980c9f27" target="_top" xlink:title=" ">
<polygon fill="white" stroke="#666666" points="1022.5,-132.5 897.75,-132.5 897.75,-114 1022.5,-114 1022.5,-132.5"/>
<text text-anchor="middle" x="960.12" y="-119" font-family="Helvetica,sans-Serif" font-size="10.00">arax_accel_acquire_type</text>
</a>
</g>
</g>
<!-- Node15&#45;&gt;Node17 -->
<g id="edge17_Node000015_Node000017" class="edge">
<title>Node15&#45;&gt;Node17</title>
<g id="a_edge17_Node000015_Node000017"><a xlink:title=" ">
<path fill="none" stroke="#63b8ff" d="M1070.54,-124.59C1055.24,-124.4 1038.47,-124.2 1022.75,-124"/>
<polygon fill="#63b8ff" stroke="#63b8ff" points="1070.35,-128.09 1080.4,-124.71 1070.44,-121.09 1070.35,-128.09"/>
</a>
</g>
</g>
<!-- Node18 -->
<g id="Node000018" class="node">
<title>Node18</title>
<g id="a_Node000018"><a xlink:href="a01919.html#a0706a66a62ca8710342ac1c097b703ed" target="_top" xlink:title=" ">
<polygon fill="white" stroke="#666666" points="1001.12,-95.5 919.12,-95.5 919.12,-77 1001.12,-77 1001.12,-95.5"/>
<text text-anchor="middle" x="960.12" y="-82" font-family="Helvetica,sans-Serif" font-size="10.00">arax_accel_init</text>
</a>
</g>
</g>
<!-- Node15&#45;&gt;Node18 -->
<g id="edge18_Node000015_Node000018" class="edge">
<title>Node15&#45;&gt;Node18</title>
<g id="a_edge18_Node000015_Node000018"><a xlink:title=" ">
<path fill="none" stroke="#63b8ff" d="M1072.63,-112.89C1049.6,-107.39 1022.88,-101 1001.38,-95.87"/>
<polygon fill="#63b8ff" stroke="#63b8ff" points="1071.59,-116.24 1082.13,-115.16 1073.22,-109.43 1071.59,-116.24"/>
</a>
</g>
</g>
<!-- Node20 -->
<g id="Node000020" class="node">
<title>Node20</title>
<g id="a_Node000020"><a xlink:href="a01946.html#a5920cc4cd90589f3c5ac8686a72bcfc0" target="_top" xlink:title=" ">
<polygon fill="white" stroke="#666666" points="1191.5,-92.5 1059.25,-92.5 1059.25,-74 1191.5,-74 1191.5,-92.5"/>
<text text-anchor="middle" x="1125.38" y="-79" font-family="Helvetica,sans-Serif" font-size="10.00">ARAX_OBJ_DTOR_DECL</text>
</a>
</g>
</g>
<!-- Node19&#45;&gt;Node20 -->
<g id="edge20_Node000019_Node000020" class="edge">
<title>Node19&#45;&gt;Node20</title>
<g id="a_edge20_Node000019_Node000020"><a xlink:title=" ">
<path fill="none" stroke="#63b8ff" d="M1220.58,-83.25C1211.05,-83.25 1201.28,-83.25 1191.8,-83.25"/>
<polygon fill="#63b8ff" stroke="#63b8ff" points="1220.53,-86.75 1230.53,-83.25 1220.53,-79.75 1220.53,-86.75"/>
</a>
</g>
</g>
<!-- Node22&#45;&gt;Node15 -->
<g id="edge23_Node000022_Node000015" class="edge">
<title>Node22&#45;&gt;Node15</title>
<g id="a_edge23_Node000022_Node000015"><a xlink:title=" ">
<path fill="none" stroke="#63b8ff" d="M1220.7,-125.25C1203.21,-125.25 1184.88,-125.25 1169.09,-125.25"/>
<polygon fill="#63b8ff" stroke="#63b8ff" points="1220.53,-128.75 1230.53,-125.25 1220.53,-121.75 1220.53,-128.75"/>
</a>
</g>
</g>
<!-- Node25 -->
<g id="Node000025" class="node">
<title>Node25</title>
<g id="a_Node000025"><a xlink:href="a01919.html#a926dd9c41781c18d0c9f7fdf2b72cfdc" target="_top" xlink:title=" ">
<polygon fill="white" stroke="#666666" points="1177.62,-213.5 1073.12,-213.5 1073.12,-195 1177.62,-195 1177.62,-213.5"/>
<text text-anchor="middle" x="1125.38" y="-200" font-family="Helvetica,sans-Serif" font-size="10.00">arax_accel_size_inc</text>
</a>
</g>
</g>
<!-- Node24&#45;&gt;Node25 -->
<g id="edge26_Node000024_Node000025" class="edge">
<title>Node24&#45;&gt;Node25</title>
<g id="a_edge26_Node000024_Node000025"><a xlink:title=" ">
<path fill="none" stroke="#63b8ff" d="M1222.66,-204.25C1207.79,-204.25 1192.22,-204.25 1178.04,-204.25"/>
<polygon fill="#63b8ff" stroke="#63b8ff" points="1222.35,-207.75 1232.35,-204.25 1222.35,-200.75 1222.35,-207.75"/>
</a>
</g>
</g>
<!-- Node26 -->
<g id="Node000026" class="node">
<title>Node26</title>
<g id="a_Node000026"><a xlink:href="a01931.html#a9f30684f01feac766b42d622970ed5a6" target="_top" xlink:title=" ">
<polygon fill="white" stroke="#666666" points="1175,-250.5 1075.75,-250.5 1075.75,-232 1175,-232 1175,-250.5"/>
<text text-anchor="middle" x="1125.38" y="-237" font-family="Helvetica,sans-Serif" font-size="10.00">arax_pipe_size_inc</text>
</a>
</g>
</g>
<!-- Node24&#45;&gt;Node26 -->
<g id="edge27_Node000024_Node000026" class="edge">
<title>Node24&#45;&gt;Node26</title>
<g id="a_edge27_Node000024_Node000026"><a xlink:title=" ">
<path fill="none" stroke="#63b8ff" d="M1235.24,-216.46C1213.75,-221.36 1189.33,-226.92 1169.07,-231.53"/>
<polygon fill="#63b8ff" stroke="#63b8ff" points="1235.73,-219.94 1244.7,-214.31 1234.18,-213.11 1235.73,-219.94"/>
</a>
</g>
</g>
<!-- Node27 -->
<g id="Node000027" class="node">
<title>Node27</title>
<g id="a_Node000027"><a xlink:href="a01928.html#afe7e4a63c40fbcaae742b8de8693483f" target="_top" xlink:title=" ">
<polygon fill="white" stroke="#666666" points="1012.38,-253.5 907.88,-253.5 907.88,-235 1012.38,-235 1012.38,-253.5"/>
<text text-anchor="middle" x="960.12" y="-240" font-family="Helvetica,sans-Serif" font-size="10.00">arax_object_ref_dec</text>
</a>
</g>
</g>
<!-- Node26&#45;&gt;Node27 -->
<g id="edge28_Node000026_Node000027" class="edge">
<title>Node26&#45;&gt;Node27</title>
<g id="a_edge28_Node000026_Node000027"><a xlink:title=" ">
<path fill="none" stroke="#63b8ff" d="M1063.96,-242.36C1047.09,-242.67 1028.93,-243 1012.62,-243.3"/>
<polygon fill="#63b8ff" stroke="#63b8ff" points="1063.95,-245.86 1073.88,-242.18 1063.82,-238.86 1063.95,-245.86"/>
</a>
</g>
</g>
<!-- Node41 -->
<g id="Node000041" class="node">
<title>Node41</title>
<g id="a_Node000041"><a xlink:href="a01928.html#a0a0b147b7fc892c291afe60cb0fa2c1c" target="_top" xlink:title=" ">
<polygon fill="white" stroke="#666666" points="1012.38,-216.75 907.88,-216.75 907.88,-187.75 1012.38,-187.75 1012.38,-216.75"/>
<text text-anchor="start" x="915.88" y="-203.25" font-family="Helvetica,sans-Serif" font-size="10.00">arax_object_ref_dec</text>
<text text-anchor="middle" x="960.12" y="-192.75" font-family="Helvetica,sans-Serif" font-size="10.00">_pre_locked</text>
</a>
</g>
</g>
<!-- Node26&#45;&gt;Node41 -->
<g id="edge50_Node000026_Node000041" class="edge">
<title>Node26&#45;&gt;Node41</title>
<g id="a_edge50_Node000026_Node000041"><a xlink:title=" ">
<path fill="none" stroke="#63b8ff" d="M1072.41,-228.84C1053.36,-224.29 1031.82,-219.14 1012.8,-214.59"/>
<polygon fill="#63b8ff" stroke="#63b8ff" points="1071.59,-232.24 1082.13,-231.16 1073.22,-225.43 1071.59,-232.24"/>
</a>
</g>
</g>
<!-- Node27&#45;&gt;Node11 -->
<g id="edge40_Node000027_Node000011" class="edge">
<title>Node27&#45;&gt;Node11</title>
<g id="a_edge40_Node000027_Node000011"><a xlink:title=" ">
<path fill="none" stroke="#63b8ff" d="M900.45,-228.93C899.26,-228.08 898.11,-227.19 897,-226.25 868.54,-202.02 891.79,-171.44 861,-150.25 775.3,-91.28 731.66,-132.25 627.62,-132.25 627.62,-132.25 627.62,-132.25 476.5,-132.25 406.2,-132.25 325.72,-135.65 270.82,-138.48"/>
<polygon fill="#63b8ff" stroke="#63b8ff" points="898.51,-231.85 908.92,-233.79 901.99,-225.78 898.51,-231.85"/>
</a>
</g>
</g>
<!-- Node28 -->
<g id="Node000028" class="node">
<title>Node28</title>
<g id="a_Node000028"><a xlink:href="a02190.html#ga41bcefd54b929d1a638d174da051130f" target="_top" xlink:title=" ">
<polygon fill="white" stroke="#666666" points="846.75,-104.5 743,-104.5 743,-86 846.75,-86 846.75,-104.5"/>
<text text-anchor="middle" x="794.88" y="-91" font-family="Helvetica,sans-Serif" font-size="10.00">arax_accel_list_free</text>
</a>
</g>
</g>
<!-- Node27&#45;&gt;Node28 -->
<g id="edge29_Node000027_Node000028" class="edge">
<title>Node27&#45;&gt;Node28</title>
<g id="a_edge29_Node000027_Node000028"><a xlink:title=" ">
<path fill="none" stroke="#63b8ff" d="M899.37,-228.36C898.55,-227.68 897.76,-226.98 897,-226.25 860.52,-191.19 896.46,-154.34 861,-118.25 855.37,-112.52 848.23,-108.21 840.75,-104.98"/>
<polygon fill="#63b8ff" stroke="#63b8ff" points="897.34,-231.21 907.63,-233.73 901.15,-225.34 897.34,-231.21"/>
</a>
</g>
</g>
<!-- Node29 -->
<g id="Node000029" class="node">
<title>Node29</title>
<g id="a_Node000029"><a xlink:href="a02190.html#ga497b17905d4c7ee2f5ee831d367ece92" target="_top" xlink:title=" ">
<polygon fill="white" stroke="#666666" points="845.25,-364.5 744.5,-364.5 744.5,-346 845.25,-346 845.25,-364.5"/>
<text text-anchor="middle" x="794.88" y="-351" font-family="Helvetica,sans-Serif" font-size="10.00">arax_accel_release</text>
</a>
</g>
</g>
<!-- Node27&#45;&gt;Node29 -->
<g id="edge30_Node000027_Node000029" class="edge">
<title>Node27&#45;&gt;Node29</title>
<g id="a_edge30_Node000027_Node000029"><a xlink:title=" ">
<path fill="none" stroke="#63b8ff" d="M944.23,-262.69C926.49,-283.47 894.97,-316.87 861,-336.25 854.45,-339.99 847.11,-343.04 839.78,-345.52"/>
<polygon fill="#63b8ff" stroke="#63b8ff" points="946.89,-264.96 950.6,-255.04 941.51,-260.48 946.89,-264.96"/>
</a>
</g>
</g>
<!-- Node31 -->
<g id="Node000031" class="node">
<title>Node31</title>
<g id="a_Node000031"><a xlink:href="a01925.html#a96e0520e5569748ce1172bafca24fafe" target="_top" xlink:title=" ">
<polygon fill="white" stroke="#666666" points="835.5,-327.5 754.25,-327.5 754.25,-309 835.5,-309 835.5,-327.5"/>
<text text-anchor="middle" x="794.88" y="-314" font-family="Helvetica,sans-Serif" font-size="10.00">arax_data_free</text>
</a>
</g>
</g>
<!-- Node27&#45;&gt;Node31 -->
<g id="edge32_Node000027_Node000031" class="edge">
<title>Node27&#45;&gt;Node31</title>
<g id="a_edge32_Node000027_Node000031"><a xlink:title=" ">
<path fill="none" stroke="#63b8ff" d="M934.82,-259.93C915.43,-271.92 887.25,-288.23 861,-299.25 852.64,-302.76 843.41,-305.88 834.6,-308.52"/>
<polygon fill="#63b8ff" stroke="#63b8ff" points="936.48,-263.02 943.09,-254.74 932.76,-257.09 936.48,-263.02"/>
</a>
</g>
</g>
<!-- Node32 -->
<g id="Node000032" class="node">
<title>Node32</title>
<g id="a_Node000032"><a xlink:href="a01925.html#a4b65f90a821aca384f0ca1cff7bd1846" target="_top" xlink:title=" ">
<polygon fill="white" stroke="#666666" points="857.62,-216.5 732.12,-216.5 732.12,-198 857.62,-198 857.62,-216.5"/>
<text text-anchor="middle" x="794.88" y="-203" font-family="Helvetica,sans-Serif" font-size="10.00">arax_data_migrate_accel</text>
</a>
</g>
</g>
<!-- Node27&#45;&gt;Node32 -->
<g id="edge33_Node000027_Node000032" class="edge">
<title>Node27&#45;&gt;Node32</title>
<g id="a_edge33_Node000027_Node000032"><a xlink:title=" ">
<path fill="none" stroke="#63b8ff" d="M905.25,-232.04C883.65,-227.14 859.12,-221.58 838.76,-216.97"/>
<polygon fill="#63b8ff" stroke="#63b8ff" points="904.23,-235.4 914.76,-234.19 905.78,-228.57 904.23,-235.4"/>
</a>
</g>
</g>
<!-- Node37 -->
<g id="Node000037" class="node">
<title>Node37</title>
<g id="a_Node000037"><a xlink:href="a01940.html#a5eb16d4196838d10a2b57715f2eddee7" target="_top" xlink:title=" ">
<polygon fill="white" stroke="#666666" points="861,-290.5 728.75,-290.5 728.75,-272 861,-272 861,-290.5"/>
<text text-anchor="middle" x="794.88" y="-277" font-family="Helvetica,sans-Serif" font-size="10.00">ARAX_OBJ_DTOR_DECL</text>
</a>
</g>
</g>
<!-- Node27&#45;&gt;Node37 -->
<g id="edge41_Node000027_Node000037" class="edge">
<title>Node27&#45;&gt;Node37</title>
<g id="a_edge41_Node000027_Node000037"><a xlink:title=" ">
<path fill="none" stroke="#63b8ff" d="M905.25,-256.46C883.65,-261.36 859.12,-266.92 838.76,-271.53"/>
<polygon fill="#63b8ff" stroke="#63b8ff" points="905.78,-259.93 914.76,-254.31 904.23,-253.1 905.78,-259.93"/>
</a>
</g>
</g>
<!-- Node38 -->
<g id="Node000038" class="node">
<title>Node38</title>
<g id="a_Node000038"><a xlink:href="a01931.html#aa0862a60d187bfed0cfa11bf27174551" target="_top" xlink:title=" ">
<polygon fill="white" stroke="#666666" points="854.25,-253.5 735.5,-253.5 735.5,-235 854.25,-235 854.25,-253.5"/>
<text text-anchor="middle" x="794.88" y="-240" font-family="Helvetica,sans-Serif" font-size="10.00">arax_pipe_delete_accel</text>
</a>
</g>
</g>
<!-- Node27&#45;&gt;Node38 -->
<g id="edge42_Node000027_Node000038" class="edge">
<title>Node27&#45;&gt;Node38</title>
<g id="a_edge42_Node000027_Node000038"><a xlink:title=" ">
<path fill="none" stroke="#63b8ff" d="M896.19,-244.25C882.51,-244.25 868.09,-244.25 854.58,-244.25"/>
<polygon fill="#63b8ff" stroke="#63b8ff" points="895.96,-247.75 905.96,-244.25 895.96,-240.75 895.96,-247.75"/>
</a>
</g>
</g>
<!-- Node39 -->
<g id="Node000039" class="node">
<title>Node39</title>
<g id="a_Node000039"><a xlink:href="a02191.html#ga70242aa6d9591e5fa3dbb36f1e27a896" target="_top" xlink:title=" ">
<polygon fill="white" stroke="#666666" points="389.62,-188.5 311.38,-188.5 311.38,-170 389.62,-170 389.62,-188.5"/>
<text text-anchor="middle" x="350.5" y="-175" font-family="Helvetica,sans-Serif" font-size="10.00">arax_proc_put</text>
</a>
</g>
</g>
<!-- Node27&#45;&gt;Node39 -->
<g id="edge43_Node000027_Node000039" class="edge">
<title>Node27&#45;&gt;Node39</title>
<g id="a_edge43_Node000027_Node000039"><a xlink:title=" ">
<path fill="none" stroke="#63b8ff" d="M904.24,-230.12C901.74,-228.93 899.32,-227.64 897,-226.25 877.33,-214.44 882.05,-198.38 861,-189.25 698.27,-118.65 477.91,-152.5 390.01,-170.5"/>
<polygon fill="#63b8ff" stroke="#63b8ff" points="902.84,-233.33 913.42,-233.92 905.52,-226.86 902.84,-233.33"/>
</a>
</g>
</g>
<!-- Node40 -->
<g id="Node000040" class="node">
<title>Node40</title>
<g id="a_Node000040"><a xlink:href="a02192.html#ga55195957c1cde1508257782716aa6db3" target="_top" xlink:title=" ">
<polygon fill="white" stroke="#666666" points="391.12,-283.5 309.88,-283.5 309.88,-265 391.12,-265 391.12,-283.5"/>
<text text-anchor="middle" x="350.5" y="-270" font-family="Helvetica,sans-Serif" font-size="10.00">arax_task_free</text>
</a>
</g>
</g>
<!-- Node27&#45;&gt;Node40 -->
<g id="edge46_Node000027_Node000040" class="edge">
<title>Node27&#45;&gt;Node40</title>
<g id="a_edge46_Node000027_Node000040"><a xlink:title=" ">
<path fill="none" stroke="#63b8ff" d="M950.94,-264.28C937.37,-294.44 907.07,-350.41 861,-373.25 741.34,-432.57 690.8,-402.55 560.5,-373.25 482.16,-355.63 398.66,-305.12 365.88,-283.86"/>
<polygon fill="#63b8ff" stroke="#63b8ff" points="954.12,-265.74 954.85,-255.17 947.69,-262.97 954.12,-265.74"/>
</a>
</g>
</g>
<!-- Node30 -->
<g id="Node000030" class="node">
<title>Node30</title>
<g id="a_Node000030"><a xlink:href="a01919.html#a871ba8da471f464d7e10b13d5db07101" target="_top" xlink:title=" ">
<polygon fill="white" stroke="#666666" points="692.75,-364.5 560.5,-364.5 560.5,-346 692.75,-346 692.75,-364.5"/>
<text text-anchor="middle" x="626.62" y="-351" font-family="Helvetica,sans-Serif" font-size="10.00">ARAX_OBJ_DTOR_DECL</text>
</a>
</g>
</g>
<!-- Node29&#45;&gt;Node30 -->
<g id="edge31_Node000029_Node000030" class="edge">
<title>Node29&#45;&gt;Node30</title>
<g id="a_edge31_Node000029_Node000030"><a xlink:title=" ">
<path fill="none" stroke="#63b8ff" d="M733.24,-355.25C720.21,-355.25 706.39,-355.25 693.19,-355.25"/>
<polygon fill="#63b8ff" stroke="#63b8ff" points="732.93,-358.75 742.93,-355.25 732.93,-351.75 732.93,-358.75"/>
</a>
</g>
</g>
<!-- Node33 -->
<g id="Node000033" class="node">
<title>Node33</title>
<g id="a_Node000033"><a xlink:href="a01925.html#a113a3c52b0c3b4f3b390921ee4c5022e" target="_top" xlink:title=" ">
<polygon fill="white" stroke="#666666" points="674.75,-290.5 578.5,-290.5 578.5,-272 674.75,-272 674.75,-290.5"/>
<text text-anchor="middle" x="626.62" y="-277" font-family="Helvetica,sans-Serif" font-size="10.00">arax_data_arg_init</text>
</a>
</g>
</g>
<!-- Node32&#45;&gt;Node33 -->
<g id="edge34_Node000032_Node000033" class="edge">
<title>Node32&#45;&gt;Node33</title>
<g id="a_edge34_Node000032_Node000033"><a xlink:title=" ">
<path fill="none" stroke="#63b8ff" d="M738.83,-221.1C735.34,-222.65 731.94,-224.36 728.75,-226.25 709.28,-237.78 712.22,-250.72 692.75,-262.25 686.37,-266.03 679.18,-269.1 671.97,-271.58"/>
<polygon fill="#63b8ff" stroke="#63b8ff" points="740.08,-224.37 748.12,-217.47 737.53,-217.85 740.08,-224.37"/>
</a>
</g>
</g>
<!-- Node34 -->
<g id="Node000034" class="node">
<title>Node34</title>
<g id="a_Node000034"><a xlink:href="a01925.html#a1dc669466d6f52d5be8af2d991512ac2" target="_top" xlink:title=" ">
<polygon fill="white" stroke="#666666" points="678.5,-253.5 574.75,-253.5 574.75,-235 678.5,-235 678.5,-253.5"/>
<text text-anchor="middle" x="626.62" y="-240" font-family="Helvetica,sans-Serif" font-size="10.00">arax_data_input_init</text>
</a>
</g>
</g>
<!-- Node32&#45;&gt;Node34 -->
<g id="edge35_Node000032_Node000034" class="edge">
<title>Node32&#45;&gt;Node34</title>
<g id="a_edge35_Node000032_Node000034"><a xlink:title=" ">
<path fill="none" stroke="#63b8ff" d="M739.01,-219.46C717.01,-224.36 692.03,-229.92 671.3,-234.53"/>
<polygon fill="#63b8ff" stroke="#63b8ff" points="739.72,-222.89 748.72,-217.3 738.2,-216.06 739.72,-222.89"/>
</a>
</g>
</g>
<!-- Node36 -->
<g id="Node000036" class="node">
<title>Node36</title>
<g id="a_Node000036"><a xlink:href="a01925.html#a18d07d808917e0b971d46332e9e64da4" target="_top" xlink:title=" ">
<polygon fill="white" stroke="#666666" points="681.5,-216.5 571.75,-216.5 571.75,-198 681.5,-198 681.5,-216.5"/>
<text text-anchor="middle" x="626.62" y="-203" font-family="Helvetica,sans-Serif" font-size="10.00">arax_data_output_init</text>
</a>
</g>
</g>
<!-- Node32&#45;&gt;Node36 -->
<g id="edge38_Node000032_Node000036" class="edge">
<title>Node32&#45;&gt;Node36</title>
<g id="a_edge38_Node000032_Node000036"><a xlink:title=" ">
<path fill="none" stroke="#63b8ff" d="M720.65,-207.25C707.64,-207.25 694.29,-207.25 681.92,-207.25"/>
<polygon fill="#63b8ff" stroke="#63b8ff" points="720.46,-210.75 730.46,-207.25 720.46,-203.75 720.46,-210.75"/>
</a>
</g>
</g>
<!-- Node35 -->
<g id="Node000035" class="node">
<title>Node35</title>
<g id="a_Node000035"><a xlink:href="a01940.html#a27bee94f7a23281c8b2b72ec433f6059" target="_top" xlink:title=" ">
<polygon fill="white" stroke="#666666" points="520,-234.5 435,-234.5 435,-216 520,-216 520,-234.5"/>
<text text-anchor="middle" x="477.5" y="-221" font-family="Helvetica,sans-Serif" font-size="10.00">arax_task_alloc</text>
</a>
</g>
</g>
<!-- Node34&#45;&gt;Node35 -->
<g id="edge36_Node000034_Node000035" class="edge">
<title>Node34&#45;&gt;Node35</title>
<g id="a_edge36_Node000034_Node000035"><a xlink:title=" ">
<path fill="none" stroke="#63b8ff" d="M563.56,-236.23C548.93,-234.35 533.69,-232.38 520.21,-230.64"/>
<polygon fill="#63b8ff" stroke="#63b8ff" points="562.71,-239.65 573.08,-237.46 563.61,-232.71 562.71,-239.65"/>
</a>
</g>
</g>
<!-- Node35&#45;&gt;Node6 -->
<g id="edge37_Node000035_Node000006" class="edge">
<title>Node35&#45;&gt;Node6</title>
<g id="a_edge37_Node000035_Node000006"><a xlink:title=" ">
<path fill="none" stroke="#63b8ff" d="M423.2,-225.25C413.74,-225.25 403.99,-225.25 394.85,-225.25"/>
<polygon fill="#63b8ff" stroke="#63b8ff" points="423.02,-228.75 433.02,-225.25 423.02,-221.75 423.02,-228.75"/>
</a>
</g>
</g>
<!-- Node36&#45;&gt;Node35 -->
<g id="edge39_Node000036_Node000035" class="edge">
<title>Node36&#45;&gt;Node35</title>
<g id="a_edge39_Node000036_Node000035"><a xlink:title=" ">
<path fill="none" stroke="#63b8ff" d="M560.03,-215.28C546.5,-216.93 532.62,-218.63 520.23,-220.15"/>
<polygon fill="#63b8ff" stroke="#63b8ff" points="560.26,-218.77 569.76,-214.09 559.41,-211.83 560.26,-218.77"/>
</a>
</g>
</g>
<!-- Node39&#45;&gt;Node8 -->
<g id="edge44_Node000039_Node000008" class="edge">
<title>Node39&#45;&gt;Node8</title>
<g id="a_edge44_Node000039_Node000008"><a xlink:title=" ">
<path fill="none" stroke="#63b8ff" d="M300.62,-191.8C281.88,-196.61 260.8,-202.02 243.24,-206.53"/>
<polygon fill="#63b8ff" stroke="#63b8ff" points="301.35,-195.22 310.17,-189.35 299.61,-188.44 301.35,-195.22"/>
</a>
</g>
</g>
<!-- Node39&#45;&gt;Node10 -->
<g id="edge45_Node000039_Node000010" class="edge">
<title>Node39&#45;&gt;Node10</title>
<g id="a_edge45_Node000039_Node000010"><a xlink:title=" ">
<path fill="none" stroke="#63b8ff" d="M299.49,-179.25C281.17,-179.25 260.74,-179.25 243.6,-179.25"/>
<polygon fill="#63b8ff" stroke="#63b8ff" points="299.36,-182.75 309.36,-179.25 299.36,-175.75 299.36,-182.75"/>
</a>
</g>
</g>
<!-- Node40&#45;&gt;Node7 -->
<g id="edge47_Node000040_Node000007" class="edge">
<title>Node40&#45;&gt;Node7</title>
<g id="a_edge47_Node000040_Node000007"><a xlink:title=" ">
<path fill="none" stroke="#63b8ff" d="M298.46,-281.69C284,-283.79 268.3,-286.08 253.99,-288.17"/>
<polygon fill="#63b8ff" stroke="#63b8ff" points="298.85,-285.17 308.24,-280.26 297.84,-278.24 298.85,-285.17"/>
</a>
</g>
</g>
<!-- Node40&#45;&gt;Node8 -->
<g id="edge48_Node000040_Node000008" class="edge">
<title>Node40&#45;&gt;Node8</title>
<g id="a_edge48_Node000040_Node000008"><a xlink:title=" ">
<path fill="none" stroke="#63b8ff" d="M321.93,-259.16C306.99,-251.36 288.05,-242.08 270.5,-235.25 261.72,-231.83 252.07,-228.69 242.94,-226"/>
<polygon fill="#63b8ff" stroke="#63b8ff" points="320.21,-262.21 330.68,-263.8 323.49,-256.02 320.21,-262.21"/>
</a>
</g>
</g>
<!-- Node40&#45;&gt;Node12 -->
<g id="edge49_Node000040_Node000012" class="edge">
<title>Node40&#45;&gt;Node12</title>
<g id="a_edge49_Node000040_Node000012"><a xlink:title=" ">
<path fill="none" stroke="#63b8ff" d="M298.54,-266.82C286.54,-265.08 273.68,-263.2 261.46,-261.42"/>
<polygon fill="#63b8ff" stroke="#63b8ff" points="297.84,-270.26 308.24,-268.24 298.85,-263.33 297.84,-270.26"/>
</a>
</g>
</g>
<!-- Node42 -->
<g id="Node000042" class="node">
<title>Node42</title>
<g id="a_Node000042"><a xlink:href="a01913.html#a4cb362223e9e7a76f4c5695080db2755" target="_top" xlink:title=" ">
<polygon fill="white" stroke="#666666" points="846.75,-67.75 743,-67.75 743,-38.75 846.75,-38.75 846.75,-67.75"/>
<text text-anchor="start" x="751" y="-54.25" font-family="Helvetica,sans-Serif" font-size="10.00">arax_accel_list_free</text>
<text text-anchor="middle" x="794.88" y="-43.75" font-family="Helvetica,sans-Serif" font-size="10.00">_pre_locked</text>
</a>
</g>
</g>
<!-- Node41&#45;&gt;Node42 -->
<g id="edge51_Node000041_Node000042" class="edge">
<title>Node41&#45;&gt;Node42</title>
<g id="a_edge51_Node000041_Node000042"><a xlink:title=" ">
<path fill="none" stroke="#63b8ff" d="M899.3,-180.46C898.51,-179.75 897.74,-179.01 897,-178.25 863.75,-144.11 894.52,-111.13 861,-77.25 856.93,-73.14 852.1,-69.72 846.93,-66.89"/>
<polygon fill="#63b8ff" stroke="#63b8ff" points="897.22,-183.28 907.35,-186.37 901.36,-177.63 897.22,-183.28"/>
</a>
</g>
</g>
<!-- Node43 -->
<g id="Node000043" class="node">
<title>Node43</title>
<g id="a_Node000043"><a xlink:href="a02190.html#ga7f1598b99463c5ef533a457f225b4c0b" target="_top" xlink:title=" ">
<polygon fill="white" stroke="#666666" points="667.62,-62.5 585.62,-62.5 585.62,-44 667.62,-44 667.62,-62.5"/>
<text text-anchor="middle" x="626.62" y="-49" font-family="Helvetica,sans-Serif" font-size="10.00">arax_accel_list</text>
</a>
</g>
</g>
<!-- Node42&#45;&gt;Node43 -->
<g id="edge52_Node000042_Node000043" class="edge">
<title>Node42&#45;&gt;Node43</title>
<g id="a_edge52_Node000042_Node000043"><a xlink:title=" ">
<path fill="none" stroke="#63b8ff" d="M731.39,-53.25C710.13,-53.25 686.93,-53.25 667.88,-53.25"/>
<polygon fill="#63b8ff" stroke="#63b8ff" points="731.12,-56.75 741.12,-53.25 731.12,-49.75 731.12,-56.75"/>
</a>
</g>
</g>
</g>
</svg>
