<?xml version="1.0" encoding="UTF-8" standalone="no"?>
<!DOCTYPE svg PUBLIC "-//W3C//DTD SVG 1.1//EN"
 "http://www.w3.org/Graphics/SVG/1.1/DTD/svg11.dtd">
<!-- Generated by graphviz version 8.0.5 (0)
 -->
<!-- Title: alloc.c Pages: 1 -->
<svg width="303pt" height="299pt"
 viewBox="0.00 0.00 303.00 299.00" xmlns="http://www.w3.org/2000/svg" xmlns:xlink="http://www.w3.org/1999/xlink">
<g id="graph0" class="graph" transform="scale(1 1) rotate(0) translate(4 295)">
<title>alloc.c</title>
<!-- Node1 -->
<g id="Node000001" class="node">
<title>Node1</title>
<g id="a_Node000001"><a xlink:title=" ">
<polygon fill="#999999" stroke="#666666" points="200.88,-291 156.38,-291 156.38,-272.5 200.88,-272.5 200.88,-291"/>
<text text-anchor="middle" x="178.62" y="-277.5" font-family="Helvetica,sans-Serif" font-size="10.00">alloc.c</text>
</a>
</g>
</g>
<!-- Node2 -->
<g id="Node000002" class="node">
<title>Node2</title>
<g id="a_Node000002"><a xlink:title=" ">
<polygon fill="#e0e0e0" stroke="#999999" points="88.75,-236.5 22.5,-236.5 22.5,-218 88.75,-218 88.75,-236.5"/>
<text text-anchor="middle" x="55.62" y="-223" font-family="Helvetica,sans-Serif" font-size="10.00">arch/alloc.h</text>
</a>
</g>
</g>
<!-- Node1&#45;&gt;Node2 -->
<g id="edge1_Node000001_Node000002" class="edge">
<title>Node1&#45;&gt;Node2</title>
<g id="a_edge1_Node000001_Node000002"><a xlink:title=" ">
<path fill="none" stroke="#63b8ff" d="M158.31,-272.08C138.64,-263.68 108.56,-250.84 86.03,-241.23"/>
<polygon fill="#63b8ff" stroke="#63b8ff" points="87.54,-237.64 76.97,-236.93 84.79,-244.08 87.54,-237.64"/>
</a>
</g>
</g>
<!-- Node3 -->
<g id="Node000003" class="node">
<title>Node3</title>
<g id="a_Node000003"><a xlink:href="a01388.html" target="_top" xlink:title=" ">
<polygon fill="white" stroke="#666666" points="174.12,-236.5 107.12,-236.5 107.12,-218 174.12,-218 174.12,-236.5"/>
<text text-anchor="middle" x="140.62" y="-223" font-family="Helvetica,sans-Serif" font-size="10.00">utils/timer.h</text>
</a>
</g>
</g>
<!-- Node1&#45;&gt;Node3 -->
<g id="edge2_Node000001_Node000003" class="edge">
<title>Node1&#45;&gt;Node3</title>
<g id="a_edge2_Node000001_Node000003"><a xlink:title=" ">
<path fill="none" stroke="#63b8ff" d="M172.35,-272.08C167.15,-264.89 159.59,-254.45 153.16,-245.57"/>
<polygon fill="#63b8ff" stroke="#63b8ff" points="155.48,-243.81 146.78,-237.76 149.81,-247.91 155.48,-243.81"/>
</a>
</g>
</g>
<!-- Node12 -->
<g id="Node000012" class="node">
<title>Node12</title>
<g id="a_Node000012"><a xlink:title=" ">
<polygon fill="#e0e0e0" stroke="#999999" points="240.75,-236.5 192.5,-236.5 192.5,-218 240.75,-218 240.75,-236.5"/>
<text text-anchor="middle" x="216.62" y="-223" font-family="Helvetica,sans-Serif" font-size="10.00">string.h</text>
</a>
</g>
</g>
<!-- Node1&#45;&gt;Node12 -->
<g id="edge12_Node000001_Node000012" class="edge">
<title>Node1&#45;&gt;Node12</title>
<g id="a_edge12_Node000001_Node000012"><a xlink:title=" ">
<path fill="none" stroke="#63b8ff" d="M184.9,-272.08C190.1,-264.89 197.66,-254.45 204.09,-245.57"/>
<polygon fill="#63b8ff" stroke="#63b8ff" points="207.44,-247.91 210.47,-237.76 201.77,-243.81 207.44,-247.91"/>
</a>
</g>
</g>
<!-- Node13 -->
<g id="Node000013" class="node">
<title>Node13</title>
<g id="a_Node000013"><a xlink:href="a01892.html" target="_top" xlink:title=" ">
<polygon fill="white" stroke="#666666" points="295,-182 242.25,-182 242.25,-163.5 295,-163.5 295,-182"/>
<text text-anchor="middle" x="268.62" y="-168.5" font-family="Helvetica,sans-Serif" font-size="10.00">malloc.h</text>
</a>
</g>
</g>
<!-- Node1&#45;&gt;Node13 -->
<g id="edge13_Node000001_Node000013" class="edge">
<title>Node1&#45;&gt;Node13</title>
<g id="a_edge13_Node000001_Node000013"><a xlink:title=" ">
<path fill="none" stroke="#63b8ff" d="M200.53,-272.13C216.32,-264.86 236.99,-252.99 249.62,-236.5 259.27,-223.91 264.05,-206.43 266.39,-193.12"/>
<polygon fill="#63b8ff" stroke="#63b8ff" points="269.99,-193.72 267.94,-183.33 263.06,-192.73 269.99,-193.72"/>
</a>
</g>
</g>
<!-- Node4 -->
<g id="Node000004" class="node">
<title>Node4</title>
<g id="a_Node000004"><a xlink:href="a01346.html" target="_top" xlink:title=" ">
<polygon fill="white" stroke="#666666" points="126.12,-182 83.12,-182 83.12,-163.5 126.12,-163.5 126.12,-182"/>
<text text-anchor="middle" x="104.62" y="-168.5" font-family="Helvetica,sans-Serif" font-size="10.00">arax.h</text>
</a>
</g>
</g>
<!-- Node3&#45;&gt;Node4 -->
<g id="edge3_Node000003_Node000004" class="edge">
<title>Node3&#45;&gt;Node4</title>
<g id="a_edge3_Node000003_Node000004"><a xlink:title=" ">
<path fill="none" stroke="#63b8ff" d="M134.68,-217.58C129.75,-210.39 122.59,-199.95 116.5,-191.07"/>
<polygon fill="#63b8ff" stroke="#63b8ff" points="119,-189.53 110.46,-183.26 113.23,-193.48 119,-189.53"/>
</a>
</g>
</g>
<!-- Node11 -->
<g id="Node000011" class="node">
<title>Node11</title>
<g id="a_Node000011"><a xlink:title=" ">
<polygon fill="#e0e0e0" stroke="#999999" points="194.88,-182 144.38,-182 144.38,-163.5 194.88,-163.5 194.88,-182"/>
<text text-anchor="middle" x="169.62" y="-168.5" font-family="Helvetica,sans-Serif" font-size="10.00">unistd.h</text>
</a>
</g>
</g>
<!-- Node3&#45;&gt;Node11 -->
<g id="edge11_Node000003_Node000011" class="edge">
<title>Node3&#45;&gt;Node11</title>
<g id="a_edge11_Node000003_Node000011"><a xlink:title=" ">
<path fill="none" stroke="#63b8ff" d="M145.41,-217.58C149.3,-210.55 154.91,-200.4 159.75,-191.64"/>
<polygon fill="#63b8ff" stroke="#63b8ff" points="163.15,-193.7 164.93,-183.26 157.03,-190.32 163.15,-193.7"/>
</a>
</g>
</g>
<!-- Node5 -->
<g id="Node000005" class="node">
<title>Node5</title>
<g id="a_Node000005"><a xlink:title=" ">
<polygon fill="#e0e0e0" stroke="#999999" points="45.25,-127.5 0,-127.5 0,-109 45.25,-109 45.25,-127.5"/>
<text text-anchor="middle" x="22.62" y="-114" font-family="Helvetica,sans-Serif" font-size="10.00">stdio.h</text>
</a>
</g>
</g>
<!-- Node4&#45;&gt;Node5 -->
<g id="edge4_Node000004_Node000005" class="edge">
<title>Node4&#45;&gt;Node5</title>
<g id="a_edge4_Node000004_Node000005"><a xlink:title=" ">
<path fill="none" stroke="#63b8ff" d="M91.08,-163.08C78.62,-155.1 59.89,-143.11 45.17,-133.69"/>
<polygon fill="#63b8ff" stroke="#63b8ff" points="47.49,-130.38 37.19,-127.93 43.72,-136.27 47.49,-130.38"/>
</a>
</g>
</g>
<!-- Node6 -->
<g id="Node000006" class="node">
<title>Node6</title>
<g id="a_Node000006"><a xlink:title=" ">
<polygon fill="#e0e0e0" stroke="#999999" points="293.88,-127.5 243.38,-127.5 243.38,-109 293.88,-109 293.88,-127.5"/>
<text text-anchor="middle" x="268.62" y="-114" font-family="Helvetica,sans-Serif" font-size="10.00">stddef.h</text>
</a>
</g>
</g>
<!-- Node4&#45;&gt;Node6 -->
<g id="edge5_Node000004_Node000006" class="edge">
<title>Node4&#45;&gt;Node6</title>
<g id="a_edge5_Node000004_Node000006"><a xlink:title=" ">
<path fill="none" stroke="#63b8ff" d="M126.4,-164.78C153.49,-156.11 200.11,-141.18 232.56,-130.79"/>
<polygon fill="#63b8ff" stroke="#63b8ff" points="233.52,-133.84 241.98,-127.46 231.39,-127.18 233.52,-133.84"/>
</a>
</g>
</g>
<!-- Node7 -->
<g id="Node000007" class="node">
<title>Node7</title>
<g id="a_Node000007"><a xlink:href="a01352.html" target="_top" xlink:title=" ">
<polygon fill="white" stroke="#666666" points="155.12,-73 82.12,-73 82.12,-54.5 155.12,-54.5 155.12,-73"/>
<text text-anchor="middle" x="118.62" y="-59.5" font-family="Helvetica,sans-Serif" font-size="10.00">arax_types.h</text>
</a>
</g>
</g>
<!-- Node4&#45;&gt;Node7 -->
<g id="edge6_Node000004_Node000007" class="edge">
<title>Node4&#45;&gt;Node7</title>
<g id="a_edge6_Node000004_Node000007"><a xlink:title=" ">
<path fill="none" stroke="#63b8ff" d="M100.52,-163.13C95.27,-150.95 87.44,-128.05 92.62,-109 95.22,-99.45 100.46,-89.85 105.56,-82.05"/>
<polygon fill="#63b8ff" stroke="#63b8ff" points="108.85,-84.46 111.74,-74.27 103.12,-80.44 108.85,-84.46"/>
</a>
</g>
</g>
<!-- Node10 -->
<g id="Node000010" class="node">
<title>Node10</title>
<g id="a_Node000010"><a xlink:href="a01394.html" target="_top" xlink:title=" ">
<polygon fill="white" stroke="#666666" points="225.25,-127.5 102,-127.5 102,-109 225.25,-109 225.25,-127.5"/>
<text text-anchor="middle" x="163.62" y="-114" font-family="Helvetica,sans-Serif" font-size="10.00">core/arax_accel_types.h</text>
</a>
</g>
</g>
<!-- Node4&#45;&gt;Node10 -->
<g id="edge9_Node000004_Node000010" class="edge">
<title>Node4&#45;&gt;Node10</title>
<g id="a_edge9_Node000004_Node000010"><a xlink:title=" ">
<path fill="none" stroke="#63b8ff" d="M114.37,-163.08C122.96,-155.44 135.69,-144.11 146.05,-134.88"/>
<polygon fill="#63b8ff" stroke="#63b8ff" points="147.92,-138.02 153.06,-128.76 143.27,-132.79 147.92,-138.02"/>
</a>
</g>
</g>
<!-- Node8 -->
<g id="Node000008" class="node">
<title>Node8</title>
<g id="a_Node000008"><a xlink:title=" ">
<polygon fill="#e0e0e0" stroke="#999999" points="113.75,-18.5 53.5,-18.5 53.5,0 113.75,0 113.75,-18.5"/>
<text text-anchor="middle" x="83.62" y="-5" font-family="Helvetica,sans-Serif" font-size="10.00">sys/time.h</text>
</a>
</g>
</g>
<!-- Node7&#45;&gt;Node8 -->
<g id="edge7_Node000007_Node000008" class="edge">
<title>Node7&#45;&gt;Node8</title>
<g id="a_edge7_Node000007_Node000008"><a xlink:title=" ">
<path fill="none" stroke="#63b8ff" d="M112.85,-54.08C108.11,-46.97 101.24,-36.68 95.36,-27.85"/>
<polygon fill="#63b8ff" stroke="#63b8ff" points="97.76,-26.14 89.3,-19.76 91.93,-30.02 97.76,-26.14"/>
</a>
</g>
</g>
<!-- Node9 -->
<g id="Node000009" class="node">
<title>Node9</title>
<g id="a_Node000009"><a xlink:title=" ">
<polygon fill="#e0e0e0" stroke="#999999" points="175.12,-18.5 132.12,-18.5 132.12,0 175.12,0 175.12,-18.5"/>
<text text-anchor="middle" x="153.62" y="-5" font-family="Helvetica,sans-Serif" font-size="10.00">time.h</text>
</a>
</g>
</g>
<!-- Node7&#45;&gt;Node9 -->
<g id="edge8_Node000007_Node000009" class="edge">
<title>Node7&#45;&gt;Node9</title>
<g id="a_edge8_Node000007_Node000009"><a xlink:title=" ">
<path fill="none" stroke="#63b8ff" d="M124.4,-54.08C129.14,-46.97 136.01,-36.68 141.89,-27.85"/>
<polygon fill="#63b8ff" stroke="#63b8ff" points="145.32,-30.02 147.95,-19.76 139.49,-26.14 145.32,-30.02"/>
</a>
</g>
</g>
<!-- Node10&#45;&gt;Node7 -->
<g id="edge10_Node000010_Node000007" class="edge">
<title>Node10&#45;&gt;Node7</title>
<g id="a_edge10_Node000010_Node000007"><a xlink:title=" ">
<path fill="none" stroke="#63b8ff" d="M156.19,-108.58C149.9,-101.24 140.7,-90.51 132.98,-81.5"/>
<polygon fill="#63b8ff" stroke="#63b8ff" points="135.08,-79.57 125.92,-74.26 129.77,-84.13 135.08,-79.57"/>
</a>
</g>
</g>
<!-- Node13&#45;&gt;Node6 -->
<g id="edge14_Node000013_Node000006" class="edge">
<title>Node13&#45;&gt;Node6</title>
<g id="a_edge14_Node000013_Node000006"><a xlink:title=" ">
<path fill="none" stroke="#63b8ff" d="M268.62,-163.08C268.62,-156.43 268.62,-146.99 268.62,-138.58"/>
<polygon fill="#63b8ff" stroke="#63b8ff" points="272.13,-138.76 268.62,-128.76 265.13,-138.76 272.13,-138.76"/>
</a>
</g>
</g>
</g>
</svg>
