<?xml version="1.0" encoding="UTF-8" standalone="no"?>
<!DOCTYPE svg PUBLIC "-//W3C//DTD SVG 1.1//EN"
 "http://www.w3.org/Graphics/SVG/1.1/DTD/svg11.dtd">
<!-- Generated by graphviz version 8.0.5 (0)
 -->
<!-- Title: arax_pipe Pages: 1 -->
<svg width="1188pt" height="339pt"
 viewBox="0.00 0.00 1187.50 338.75" xmlns="http://www.w3.org/2000/svg" xmlns:xlink="http://www.w3.org/1999/xlink">
<g id="graph0" class="graph" transform="scale(1 1) rotate(0) translate(4 334.75)">
<title>arax_pipe</title>
<!-- Node1 -->
<g id="Node000001" class="node">
<title>Node1</title>
<g id="a_Node000001"><a xlink:title=" ">
<polygon fill="#999999" stroke="#666666" points="1021,-183.5 962.25,-183.5 962.25,-165 1021,-165 1021,-183.5"/>
<text text-anchor="middle" x="991.62" y="-170" font-family="Helvetica,sans-Serif" font-size="10.00">arax_pipe</text>
</a>
</g>
</g>
<!-- Node2 -->
<g id="Node000002" class="node">
<title>Node2</title>
<g id="a_Node000002"><a xlink:href="a02266.html" target="_top" xlink:title=" ">
<polygon fill="white" stroke="#666666" points="1179.5,-217.5 1078,-217.5 1078,-199 1179.5,-199 1179.5,-217.5"/>
<text text-anchor="middle" x="1128.75" y="-204" font-family="Helvetica,sans-Serif" font-size="10.00">arax_object_repo_s</text>
</a>
</g>
</g>
<!-- Node1&#45;&gt;Node2 -->
<g id="edge2_Node000002_Node000001" class="edge">
<title>Node1&#45;&gt;Node2</title>
<g id="a_edge2_Node000002_Node000001"><a xlink:title=" ">
<path fill="none" stroke="#9a32cd" stroke-dasharray="5,2" d="M1031.49,-184.34C1034.03,-184.99 1036.55,-185.63 1039,-186.25 1055.16,-190.34 1072.99,-194.78 1088.41,-198.59"/>
<polygon fill="#9a32cd" stroke="#9a32cd" points="1032.62,-180.76 1022.06,-181.66 1030.88,-187.54 1032.62,-180.76"/>
</a>
</g>
<text text-anchor="middle" x="1049.5" y="-191.25" font-family="Helvetica,sans-Serif" font-size="10.00" fill="grey"> pipe</text>
</g>
<!-- Node2&#45;&gt;Node1 -->
<g id="edge1_Node000001_Node000002" class="edge">
<title>Node2&#45;&gt;Node1</title>
<g id="a_edge1_Node000001_Node000002"><a xlink:title=" ">
<path fill="none" stroke="#9a32cd" stroke-dasharray="5,2" d="M1103.33,-193.42C1090.84,-186.66 1075.12,-179.37 1060,-175.75 1047.6,-172.78 1033.54,-172.07 1021.49,-172.23"/>
<polygon fill="#9a32cd" stroke="#9a32cd" points="1101.15,-196.77 1111.58,-198.65 1104.59,-190.68 1101.15,-196.77"/>
</a>
</g>
<text text-anchor="middle" x="1049.5" y="-176.25" font-family="Helvetica,sans-Serif" font-size="10.00" fill="grey"> objs</text>
</g>
<!-- Node3 -->
<g id="Node000003" class="node">
<title>Node3</title>
<g id="a_Node000003"><a xlink:href="a02314.html" target="_top" xlink:title=" ">
<polygon fill="white" stroke="#666666" points="204.88,-244.5 142.38,-244.5 142.38,-226 204.88,-226 204.88,-244.5"/>
<text text-anchor="middle" x="173.62" y="-231" font-family="Helvetica,sans-Serif" font-size="10.00">utils_list_s</text>
</a>
</g>
</g>
<!-- Node3&#45;&gt;Node1 -->
<g id="edge20_Node000001_Node000003" class="edge">
<title>Node3&#45;&gt;Node1</title>
<g id="a_edge20_Node000001_Node000003"><a xlink:title=" ">
<path fill="none" stroke="#9a32cd" stroke-dasharray="5,2" d="M209.48,-248.68C241.92,-259.96 291.88,-274.25 336.75,-274.25 336.75,-274.25 336.75,-274.25 838.62,-274.25 904.01,-274.25 963.04,-208.87 983.24,-183.84"/>
<polygon fill="#9a32cd" stroke="#9a32cd" points="210.77,-245.06 200.18,-244.99 208.42,-251.66 210.77,-245.06"/>
</a>
</g>
<text text-anchor="middle" x="590.5" y="-275.25" font-family="Helvetica,sans-Serif" font-size="10.00" fill="grey"> orphan_vacs</text>
</g>
<!-- Node3&#45;&gt;Node2 -->
<g id="edge3_Node000002_Node000003" class="edge">
<title>Node3&#45;&gt;Node2</title>
<g id="a_edge3_Node000002_Node000003"><a xlink:title=" ">
<path fill="none" stroke="#9a32cd" stroke-dasharray="5,2" d="M192.39,-251.97C220.62,-276.73 278.54,-320.25 336.75,-320.25 336.75,-320.25 336.75,-320.25 992.62,-320.25 1056.61,-320.25 1106.55,-244.88 1122.43,-217.8"/>
<polygon fill="#9a32cd" stroke="#9a32cd" points="195.07,-249.77 185.3,-245.67 190.38,-254.97 195.07,-249.77"/>
</a>
</g>
<text text-anchor="middle" x="685.88" y="-321.25" font-family="Helvetica,sans-Serif" font-size="10.00" fill="grey"> list</text>
</g>
<!-- Node5 -->
<g id="Node000005" class="node">
<title>Node5</title>
<g id="a_Node000005"><a xlink:href="a02230.html" target="_top" xlink:title=" ">
<polygon fill="white" stroke="#666666" points="377.25,-138.5 298.25,-138.5 298.25,-120 377.25,-120 377.25,-138.5"/>
<text text-anchor="middle" x="337.75" y="-125" font-family="Helvetica,sans-Serif" font-size="10.00">async_meta_s</text>
</a>
</g>
</g>
<!-- Node3&#45;&gt;Node5 -->
<g id="edge7_Node000005_Node000003" class="edge">
<title>Node3&#45;&gt;Node5</title>
<g id="a_edge7_Node000005_Node000003"><a xlink:title=" ">
<path fill="none" stroke="#9a32cd" stroke-dasharray="5,2" d="M198.1,-219.9C232.12,-197.66 294.13,-157.11 322.23,-138.75"/>
<polygon fill="#9a32cd" stroke="#9a32cd" points="196.75,-217.25 190.3,-225.66 200.58,-223.11 196.75,-217.25"/>
</a>
</g>
<text text-anchor="middle" x="253.62" y="-201.25" font-family="Helvetica,sans-Serif" font-size="10.00" fill="grey"> outstanding</text>
</g>
<!-- Node11 -->
<g id="Node000011" class="node">
<title>Node11</title>
<g id="a_Node000011"><a xlink:href="a02238.html" target="_top" xlink:title=" ">
<polygon fill="white" stroke="#666666" points="543.25,-183.5 438,-183.5 438,-165 543.25,-165 543.25,-183.5"/>
<text text-anchor="middle" x="490.62" y="-170" font-family="Helvetica,sans-Serif" font-size="10.00">async_semaphore_s</text>
</a>
</g>
</g>
<!-- Node3&#45;&gt;Node11 -->
<g id="edge18_Node000011_Node000003" class="edge">
<title>Node3&#45;&gt;Node11</title>
<g id="a_edge18_Node000011_Node000003"><a xlink:title=" ">
<path fill="none" stroke="#9a32cd" stroke-dasharray="5,2" d="M215.6,-227.31C273,-216.2 377.23,-196.01 439.28,-184"/>
<polygon fill="#9a32cd" stroke="#9a32cd" points="215.27,-224.01 206.11,-229.35 216.6,-230.88 215.27,-224.01"/>
</a>
</g>
<text text-anchor="middle" x="337.75" y="-211.25" font-family="Helvetica,sans-Serif" font-size="10.00" fill="grey"> pending_list</text>
</g>
<!-- Node4 -->
<g id="Node000004" class="node">
<title>Node4</title>
<g id="a_Node000004"><a xlink:href="a02310.html" target="_top" xlink:title=" ">
<polygon fill="white" stroke="#666666" points="78.25,-54.5 0,-54.5 0,-36 78.25,-36 78.25,-54.5"/>
<text text-anchor="middle" x="39.12" y="-41" font-family="Helvetica,sans-Serif" font-size="10.00">utils_list_node</text>
</a>
</g>
</g>
<!-- Node4&#45;&gt;Node3 -->
<g id="edge4_Node000003_Node000004" class="edge">
<title>Node4&#45;&gt;Node3</title>
<g id="a_edge4_Node000003_Node000004"><a xlink:title=" ">
<path fill="none" stroke="#9a32cd" stroke-dasharray="5,2" d="M53.1,-63.86C80.89,-103.7 145.28,-196.04 166.04,-225.81"/>
<polygon fill="#9a32cd" stroke="#9a32cd" points="55.47,-62.13 46.88,-55.93 49.73,-66.14 55.47,-62.13"/>
</a>
</g>
<text text-anchor="middle" x="108.25" y="-158.25" font-family="Helvetica,sans-Serif" font-size="10.00" fill="grey"> head</text>
</g>
<!-- Node4&#45;&gt;Node4 -->
<g id="edge5_Node000004_Node000004" class="edge">
<title>Node4&#45;&gt;Node4</title>
<g id="a_edge5_Node000004_Node000004"><a xlink:title=" ">
<path fill="none" stroke="#9a32cd" stroke-dasharray="5,2" d="M26.68,-65.53C28.07,-69.59 32.21,-72.5 39.12,-72.5 51.41,-72.5 54.96,-63.32 49.78,-54.75"/>
<polygon fill="#9a32cd" stroke="#9a32cd" points="30.29,-66.18 28.47,-55.75 23.38,-65.04 30.29,-66.18"/>
</a>
</g>
<text text-anchor="middle" x="39.12" y="-84" font-family="Helvetica,sans-Serif" font-size="10.00" fill="grey"> next</text>
<text text-anchor="middle" x="39.12" y="-73.5" font-family="Helvetica,sans-Serif" font-size="10.00" fill="grey">prev</text>
</g>
<!-- Node10 -->
<g id="Node000010" class="node">
<title>Node10</title>
<g id="a_Node000010"><a xlink:href="a02234.html" target="_top" xlink:title=" ">
<polygon fill="white" stroke="#666666" points="542.88,-100.5 438.38,-100.5 438.38,-82 542.88,-82 542.88,-100.5"/>
<text text-anchor="middle" x="490.62" y="-87" font-family="Helvetica,sans-Serif" font-size="10.00">async_completion_s</text>
</a>
</g>
</g>
<!-- Node4&#45;&gt;Node10 -->
<g id="edge15_Node000010_Node000004" class="edge">
<title>Node4&#45;&gt;Node10</title>
<g id="a_edge15_Node000010_Node000004"><a xlink:title=" ">
<path fill="none" stroke="#9a32cd" stroke-dasharray="5,2" d="M89.18,-50.27C174.83,-59.04 350.86,-77.05 438.17,-85.98"/>
<polygon fill="#9a32cd" stroke="#9a32cd" points="89.75,-46.71 79.45,-49.17 89.04,-53.67 89.75,-46.71"/>
</a>
</g>
<text text-anchor="middle" x="253.62" y="-71.25" font-family="Helvetica,sans-Serif" font-size="10.00" fill="grey"> outstanding</text>
</g>
<!-- Node5&#45;&gt;Node1 -->
<g id="edge6_Node000001_Node000005" class="edge">
<title>Node5&#45;&gt;Node1</title>
<g id="a_edge6_Node000001_Node000005"><a xlink:title=" ">
<path fill="none" stroke="#9a32cd" stroke-dasharray="5,2" d="M357.37,-112.9C384.49,-90.83 437.33,-54.25 489.62,-54.25 489.62,-54.25 489.62,-54.25 838.62,-54.25 909.9,-54.25 967.37,-136.54 985.01,-164.83"/>
<polygon fill="#9a32cd" stroke="#9a32cd" points="355.61,-110.64 350.2,-119.75 360.11,-116.01 355.61,-110.64"/>
</a>
</g>
<text text-anchor="middle" x="685.88" y="-55.25" font-family="Helvetica,sans-Serif" font-size="10.00" fill="grey"> async</text>
</g>
<!-- Node9 -->
<g id="Node000009" class="node">
<title>Node9</title>
<g id="a_Node000009"><a xlink:href="a02242.html" target="_top" xlink:title=" ">
<polygon fill="white" stroke="#666666" points="734,-145.5 637.75,-145.5 637.75,-127 734,-127 734,-145.5"/>
<text text-anchor="middle" x="685.88" y="-132" font-family="Helvetica,sans-Serif" font-size="10.00">async_condition_s</text>
</a>
</g>
</g>
<!-- Node5&#45;&gt;Node9 -->
<g id="edge12_Node000009_Node000005" class="edge">
<title>Node5&#45;&gt;Node9</title>
<g id="a_edge12_Node000009_Node000005"><a xlink:title=" ">
<path fill="none" stroke="#9a32cd" stroke-dasharray="5,2" d="M388.05,-130.25C454.45,-131.59 571.84,-133.96 637.33,-135.29"/>
<polygon fill="#9a32cd" stroke="#9a32cd" points="388.52,-126.74 378.45,-130.03 388.37,-133.73 388.52,-126.74"/>
</a>
</g>
<text text-anchor="middle" x="490.62" y="-134.25" font-family="Helvetica,sans-Serif" font-size="10.00" fill="grey"> meta</text>
</g>
<!-- Node5&#45;&gt;Node10 -->
<g id="edge14_Node000010_Node000005" class="edge">
<title>Node5&#45;&gt;Node10</title>
<g id="a_edge14_Node000010_Node000005"><a xlink:title=" ">
<path fill="none" stroke="#9a32cd" stroke-dasharray="5,2" d="M378.87,-116.36C384.35,-114.73 389.92,-113.15 395.25,-111.75 410.01,-107.87 426.2,-104.16 440.94,-100.98"/>
<polygon fill="#9a32cd" stroke="#9a32cd" points="378.07,-113.25 369.52,-119.5 380.11,-119.94 378.07,-113.25"/>
</a>
</g>
<text text-anchor="middle" x="407.62" y="-113.25" font-family="Helvetica,sans-Serif" font-size="10.00" fill="grey"> meta</text>
</g>
<!-- Node5&#45;&gt;Node11 -->
<g id="edge17_Node000011_Node000005" class="edge">
<title>Node5&#45;&gt;Node11</title>
<g id="a_edge17_Node000011_Node000005"><a xlink:title=" ">
<path fill="none" stroke="#9a32cd" stroke-dasharray="5,2" d="M374.99,-142.57C381.7,-144.89 388.66,-147.21 395.25,-149.25 413.23,-154.8 433.36,-160.24 450.39,-164.62"/>
<polygon fill="#9a32cd" stroke="#9a32cd" points="376.36,-138.99 365.76,-138.96 374.03,-145.59 376.36,-138.99"/>
</a>
</g>
<text text-anchor="middle" x="407.62" y="-156.25" font-family="Helvetica,sans-Serif" font-size="10.00" fill="grey"> meta</text>
</g>
<!-- Node6 -->
<g id="Node000006" class="node">
<title>Node6</title>
<g id="a_Node000006"><a xlink:href="a02226.html" target="_top" xlink:title=" ">
<polygon fill="white" stroke="#666666" points="201.5,-104.5 145.75,-104.5 145.75,-86 201.5,-86 201.5,-104.5"/>
<text text-anchor="middle" x="173.62" y="-91" font-family="Helvetica,sans-Serif" font-size="10.00">ivshmem</text>
</a>
</g>
</g>
<!-- Node6&#45;&gt;Node5 -->
<g id="edge8_Node000005_Node000006" class="edge">
<title>Node6&#45;&gt;Node5</title>
<g id="a_edge8_Node000005_Node000006"><a xlink:title=" ">
<path fill="none" stroke="#9a32cd" stroke-dasharray="5,2" d="M212.47,-99.21C232.73,-101.74 258.03,-105.52 280.25,-110.75 290.2,-113.09 300.9,-116.39 310.29,-119.55"/>
<polygon fill="#9a32cd" stroke="#9a32cd" points="213.12,-95.65 202.78,-97.94 212.3,-102.6 213.12,-95.65"/>
</a>
</g>
<text text-anchor="middle" x="253.62" y="-112.25" font-family="Helvetica,sans-Serif" font-size="10.00" fill="grey"> regs</text>
</g>
<!-- Node7 -->
<g id="Node000007" class="node">
<title>Node7</title>
<g id="a_Node000007"><a xlink:href="a02182.html" target="_top" xlink:title=" ">
<polygon fill="white" stroke="#666666" points="209,-170.5 138.25,-170.5 138.25,-152 209,-152 209,-170.5"/>
<text text-anchor="middle" x="173.62" y="-157" font-family="Helvetica,sans-Serif" font-size="10.00">arch_alloc_s</text>
</a>
</g>
</g>
<!-- Node7&#45;&gt;Node1 -->
<g id="edge23_Node000001_Node000007" class="edge">
<title>Node7&#45;&gt;Node1</title>
<g id="a_edge23_Node000001_Node000007"><a xlink:title=" ">
<path fill="none" stroke="#9a32cd" stroke-dasharray="5,2" d="M218.28,-173.48C221.22,-174.13 224.15,-174.73 227,-175.25 386.29,-204.25 427.6,-211.25 589.5,-211.25 589.5,-211.25 589.5,-211.25 838.62,-211.25 884.8,-211.25 936.68,-194.93 966.32,-183.97"/>
<polygon fill="#9a32cd" stroke="#9a32cd" points="219.23,-169.87 208.69,-170.96 217.6,-176.68 219.23,-169.87"/>
</a>
</g>
<text text-anchor="middle" x="590.5" y="-212.25" font-family="Helvetica,sans-Serif" font-size="10.00" fill="grey"> allocator</text>
</g>
<!-- Node7&#45;&gt;Node5 -->
<g id="edge9_Node000005_Node000007" class="edge">
<title>Node7&#45;&gt;Node5</title>
<g id="a_edge9_Node000005_Node000007"><a xlink:title=" ">
<path fill="none" stroke="#9a32cd" stroke-dasharray="5,2" d="M195.75,-145.61C204.88,-139.76 215.98,-133.81 227,-130.75 249.95,-124.39 276.66,-123.88 297.98,-125.03"/>
<polygon fill="#9a32cd" stroke="#9a32cd" points="194,-143.24 187.71,-151.77 197.95,-149.03 194,-143.24"/>
</a>
</g>
<text text-anchor="middle" x="253.62" y="-131.25" font-family="Helvetica,sans-Serif" font-size="10.00" fill="grey"> alloc</text>
</g>
<!-- Node8 -->
<g id="Node000008" class="node">
<title>Node8</title>
<g id="a_Node000008"><a xlink:href="a02286.html" target="_top" xlink:title=" ">
<polygon fill="white" stroke="#666666" points="878.25,-183.5 797,-183.5 797,-165 878.25,-165 878.25,-183.5"/>
<text text-anchor="middle" x="837.62" y="-170" font-family="Helvetica,sans-Serif" font-size="10.00">arax_throttle_s</text>
</a>
</g>
</g>
<!-- Node8&#45;&gt;Node1 -->
<g id="edge10_Node000001_Node000008" class="edge">
<title>Node8&#45;&gt;Node1</title>
<g id="a_edge10_Node000001_Node000008"><a xlink:title=" ">
<path fill="none" stroke="#9a32cd" stroke-dasharray="5,2" d="M889.36,-174.25C913.54,-174.25 941.56,-174.25 962,-174.25"/>
<polygon fill="#9a32cd" stroke="#9a32cd" points="889.56,-170.75 879.56,-174.25 889.56,-177.75 889.56,-170.75"/>
</a>
</g>
<text text-anchor="middle" x="920.25" y="-175.25" font-family="Helvetica,sans-Serif" font-size="10.00" fill="grey"> throttle</text>
</g>
<!-- Node9&#45;&gt;Node1 -->
<g id="edge19_Node000001_Node000009" class="edge">
<title>Node9&#45;&gt;Node1</title>
<g id="a_edge19_Node000001_Node000009"><a xlink:title=" ">
<path fill="none" stroke="#9a32cd" stroke-dasharray="5,2" d="M745.33,-130.78C783.44,-128.48 834.12,-127.81 878.25,-135.25 911.24,-140.81 947.48,-154.95 969.64,-164.59"/>
<polygon fill="#9a32cd" stroke="#9a32cd" points="745.17,-127.35 735.43,-131.5 745.64,-134.33 745.17,-127.35"/>
</a>
</g>
<text text-anchor="middle" x="837.62" y="-146.75" font-family="Helvetica,sans-Serif" font-size="10.00" fill="grey"> cntrl_ready_cond</text>
<text text-anchor="middle" x="837.62" y="-136.25" font-family="Helvetica,sans-Serif" font-size="10.00" fill="grey">orphan_cond</text>
</g>
<!-- Node9&#45;&gt;Node8 -->
<g id="edge11_Node000008_Node000009" class="edge">
<title>Node9&#45;&gt;Node8</title>
<g id="a_edge11_Node000008_Node000009"><a xlink:title=" ">
<path fill="none" stroke="#9a32cd" stroke-dasharray="5,2" d="M735.67,-148.63C755.98,-153.79 779.21,-159.68 798.26,-164.51"/>
<polygon fill="#9a32cd" stroke="#9a32cd" points="736.6,-145 726.05,-145.94 734.88,-151.79 736.6,-145"/>
</a>
</g>
<text text-anchor="middle" x="765.5" y="-159.25" font-family="Helvetica,sans-Serif" font-size="10.00" fill="grey"> ready</text>
</g>
<!-- Node10&#45;&gt;Node9 -->
<g id="edge13_Node000009_Node000010" class="edge">
<title>Node10&#45;&gt;Node9</title>
<g id="a_edge13_Node000009_Node000010"><a xlink:title=" ">
<path fill="none" stroke="#9a32cd" stroke-dasharray="5,2" d="M554.01,-98.66C575.08,-101.84 598.61,-106.14 619.75,-111.75 634.35,-115.62 650.21,-121.55 662.63,-126.61"/>
<polygon fill="#9a32cd" stroke="#9a32cd" points="554.64,-95.07 544.24,-97.1 553.64,-102 554.64,-95.07"/>
</a>
</g>
<text text-anchor="middle" x="590.5" y="-113.25" font-family="Helvetica,sans-Serif" font-size="10.00" fill="grey"> mutex</text>
</g>
<!-- Node11&#45;&gt;Node9 -->
<g id="edge16_Node000009_Node000011" class="edge">
<title>Node11&#45;&gt;Node9</title>
<g id="a_edge16_Node000009_Node000011"><a xlink:title=" ">
<path fill="none" stroke="#9a32cd" stroke-dasharray="5,2" d="M554.38,-162.84C575.21,-158.96 598.5,-154.52 619.75,-150.25 626.44,-148.9 633.5,-147.44 640.42,-145.97"/>
<polygon fill="#9a32cd" stroke="#9a32cd" points="553.93,-159.55 544.74,-164.81 555.21,-166.43 553.93,-159.55"/>
</a>
</g>
<text text-anchor="middle" x="590.5" y="-161.25" font-family="Helvetica,sans-Serif" font-size="10.00" fill="grey"> semaphore</text>
</g>
<!-- Node12 -->
<g id="Node000012" class="node">
<title>Node12</title>
<g id="a_Node000012"><a xlink:href="a02302.html" target="_top" xlink:title=" ">
<polygon fill="white" stroke="#666666" points="867.75,-22.5 807.5,-22.5 807.5,-4 867.75,-4 867.75,-22.5"/>
<text text-anchor="middle" x="837.62" y="-9" font-family="Helvetica,sans-Serif" font-size="10.00">utils_kv_s</text>
</a>
</g>
</g>
<!-- Node12&#45;&gt;Node1 -->
<g id="edge21_Node000001_Node000012" class="edge">
<title>Node12&#45;&gt;Node1</title>
<g id="a_edge21_Node000001_Node000012"><a xlink:title=" ">
<path fill="none" stroke="#9a32cd" stroke-dasharray="5,2" d="M879.05,-5.19C900.55,-3.25 926.21,-5 944.25,-19.25 990.54,-55.81 992.09,-136.69 991.16,-164.58"/>
<polygon fill="#9a32cd" stroke="#9a32cd" points="878.75,-1.82 869.24,-6.49 879.59,-8.77 878.75,-1.82"/>
</a>
</g>
<text text-anchor="middle" x="920.25" y="-30.75" font-family="Helvetica,sans-Serif" font-size="10.00" fill="grey"> ass_kv</text>
<text text-anchor="middle" x="920.25" y="-20.25" font-family="Helvetica,sans-Serif" font-size="10.00" fill="grey">metrics_kv</text>
</g>
<!-- Node13 -->
<g id="Node000013" class="node">
<title>Node13</title>
<g id="a_Node000013"><a xlink:href="a02306.html" target="_top" xlink:title=" ">
<polygon fill="white" stroke="#666666" points="702.5,-18.5 669.25,-18.5 669.25,0 702.5,0 702.5,-18.5"/>
<text text-anchor="middle" x="685.88" y="-5" font-family="Helvetica,sans-Serif" font-size="10.00">Pair</text>
</a>
</g>
</g>
<!-- Node13&#45;&gt;Node12 -->
<g id="edge22_Node000012_Node000013" class="edge">
<title>Node13&#45;&gt;Node12</title>
<g id="a_edge22_Node000012_Node000013"><a xlink:title=" ">
<path fill="none" stroke="#9a32cd" stroke-dasharray="5,2" d="M713.58,-9.96C739.85,-10.67 779.89,-11.73 807.1,-12.46"/>
<polygon fill="#9a32cd" stroke="#9a32cd" points="713.99,-6.45 703.9,-9.68 713.8,-13.44 713.99,-6.45"/>
</a>
</g>
<text text-anchor="middle" x="765.5" y="-13.25" font-family="Helvetica,sans-Serif" font-size="10.00" fill="grey"> kv</text>
</g>
</g>
</svg>
