<?xml version="1.0" encoding="UTF-8" standalone="no"?>
<!DOCTYPE svg PUBLIC "-//W3C//DTD SVG 1.1//EN"
 "http://www.w3.org/Graphics/SVG/1.1/DTD/svg11.dtd">
<!-- Generated by graphviz version 8.0.5 (0)
 -->
<!-- Title: async_thread Pages: 1 -->
<svg width="243pt" height="101pt"
 viewBox="0.00 0.00 243.25 100.50" xmlns="http://www.w3.org/2000/svg" xmlns:xlink="http://www.w3.org/1999/xlink">
<g id="graph0" class="graph" transform="scale(1 1) rotate(0) translate(4 96.5)">
<title>async_thread</title>
<!-- Node1 -->
<g id="Node000001" class="node">
<title>Node1</title>
<g id="a_Node000001"><a xlink:title=" ">
<polygon fill="#999999" stroke="#666666" points="73.75,-55.5 0,-55.5 0,-37 73.75,-37 73.75,-55.5"/>
<text text-anchor="middle" x="36.88" y="-42" font-family="Helvetica,sans-Serif" font-size="10.00">async_thread</text>
</a>
</g>
</g>
<!-- Node2 -->
<g id="Node000002" class="node">
<title>Node2</title>
<g id="a_Node000002"><a xlink:href="a02346.html#ae66ae81847153386c57918f4d91be8a7" target="_top" xlink:title=" ">
<polygon fill="white" stroke="#666666" points="235.25,-92.5 109.75,-92.5 109.75,-74 235.25,-74 235.25,-92.5"/>
<text text-anchor="middle" x="172.5" y="-79" font-family="Helvetica,sans-Serif" font-size="10.00">async_completion_check</text>
</a>
</g>
</g>
<!-- Node1&#45;&gt;Node2 -->
<g id="edge1_Node000001_Node000002" class="edge">
<title>Node1&#45;&gt;Node2</title>
<g id="a_edge1_Node000001_Node000002"><a xlink:title=" ">
<path fill="none" stroke="#63b8ff" d="M72.98,-55.97C89.25,-60.47 108.78,-65.88 126.14,-70.69"/>
<polygon fill="#63b8ff" stroke="#63b8ff" points="125.05,-74.3 135.63,-73.59 126.92,-67.55 125.05,-74.3"/>
</a>
</g>
</g>
<!-- Node3 -->
<g id="Node000003" class="node">
<title>Node3</title>
<g id="a_Node000003"><a xlink:href="a02346.html#a49083e8ceb4bfe7793ca1a5a799834d0" target="_top" xlink:title=" ">
<polygon fill="white" stroke="#666666" points="200,-55.5 145,-55.5 145,-37 200,-37 200,-55.5"/>
<text text-anchor="middle" x="172.5" y="-42" font-family="Helvetica,sans-Serif" font-size="10.00">getVmID</text>
</a>
</g>
</g>
<!-- Node1&#45;&gt;Node3 -->
<g id="edge2_Node000001_Node000003" class="edge">
<title>Node1&#45;&gt;Node3</title>
<g id="a_edge2_Node000001_Node000003"><a xlink:title=" ">
<path fill="none" stroke="#63b8ff" d="M74.04,-46.25C92.56,-46.25 115.09,-46.25 133.82,-46.25"/>
<polygon fill="#63b8ff" stroke="#63b8ff" points="133.64,-49.75 143.64,-46.25 133.64,-42.75 133.64,-49.75"/>
</a>
</g>
</g>
<!-- Node4 -->
<g id="Node000004" class="node">
<title>Node4</title>
<g id="a_Node000004"><a xlink:href="a01946.html#a0c85e5516222ab7e7fc354c614760ec5" target="_top" xlink:title=" ">
<polygon fill="white" stroke="#666666" points="207.5,-18.5 137.5,-18.5 137.5,0 207.5,0 207.5,-18.5"/>
<text text-anchor="middle" x="172.5" y="-5" font-family="Helvetica,sans-Serif" font-size="10.00">utils_list_del</text>
</a>
</g>
</g>
<!-- Node1&#45;&gt;Node4 -->
<g id="edge3_Node000001_Node000004" class="edge">
<title>Node1&#45;&gt;Node4</title>
<g id="a_edge3_Node000001_Node000004"><a xlink:title=" ">
<path fill="none" stroke="#63b8ff" d="M72.98,-36.53C89.38,-31.99 109.08,-26.53 126.55,-21.7"/>
<polygon fill="#63b8ff" stroke="#63b8ff" points="127.38,-24.82 136.09,-18.78 125.52,-18.07 127.38,-24.82"/>
</a>
</g>
</g>
</g>
</svg>
