<?xml version="1.0" encoding="UTF-8" standalone="no"?>
<!DOCTYPE svg PUBLIC "-//W3C//DTD SVG 1.1//EN"
 "http://www.w3.org/Graphics/SVG/1.1/DTD/svg11.dtd">
<!-- Generated by graphviz version 12.2.1 (0)
 -->
<!-- Title: arax_mmap Pages: 1 -->
<svg width="592pt" height="82pt"
 viewBox="0.00 0.00 592.00 81.50" xmlns="http://www.w3.org/2000/svg" xmlns:xlink="http://www.w3.org/1999/xlink">
<g id="graph0" class="graph" transform="scale(1 1) rotate(0) translate(4 77.5)">
<title>arax_mmap</title>
<!-- Node1 -->
<g id="Node000001" class="node">
<title>Node1</title>
<g id="a_Node000001"><a xlink:title=" ">
<polygon fill="#999999" stroke="#666666" points="67.75,-36.5 0,-36.5 0,-18 67.75,-18 67.75,-36.5"/>
<text text-anchor="middle" x="33.88" y="-23" font-family="Helvetica,sans-Serif" font-size="10.00">arax_mmap</text>
</a>
</g>
</g>
<!-- Node2 -->
<g id="Node000002" class="node">
<title>Node2</title>
<g id="a_Node000002"><a xlink:href="a01949.html#a306b62b1bc50d56e80ba7b7adb02f961" target="_top" xlink:title=" ">
<polygon fill="white" stroke="#666666" points="218.75,-36.5 103.75,-36.5 103.75,-18 218.75,-18 218.75,-36.5"/>
<text text-anchor="middle" x="161.25" y="-23" font-family="Helvetica,sans-Serif" font-size="10.00">utils_bitmap_alloc_bits</text>
</a>
</g>
</g>
<!-- Node1&#45;&gt;Node2 -->
<g id="edge1_Node000001_Node000002" class="edge">
<title>Node1&#45;&gt;Node2</title>
<g id="a_edge1_Node000001_Node000002"><a xlink:title=" ">
<path fill="none" stroke="#63b8ff" d="M68.14,-27.25C75.63,-27.25 83.83,-27.25 92.16,-27.25"/>
<polygon fill="#63b8ff" stroke="#63b8ff" points="92.03,-30.75 102.03,-27.25 92.03,-23.75 92.03,-30.75"/>
</a>
</g>
</g>
<!-- Node3 -->
<g id="Node000003" class="node">
<title>Node3</title>
<g id="a_Node000003"><a xlink:href="a01949.html#ae5a4ee90ef57eb7d12191236c3a105f2" target="_top" xlink:title=" ">
<polygon fill="white" stroke="#666666" points="328.5,-55.5 271.25,-55.5 271.25,-37 328.5,-37 328.5,-55.5"/>
<text text-anchor="middle" x="299.88" y="-42" font-family="Helvetica,sans-Serif" font-size="10.00">find_start</text>
</a>
</g>
</g>
<!-- Node2&#45;&gt;Node3 -->
<g id="edge2_Node000002_Node000003" class="edge">
<title>Node2&#45;&gt;Node3</title>
<g id="a_edge2_Node000002_Node000003"><a xlink:title=" ">
<path fill="none" stroke="#63b8ff" d="M219,-35.14C232.7,-37.05 247.04,-39.04 259.72,-40.8"/>
<polygon fill="#63b8ff" stroke="#63b8ff" points="258.95,-44.23 269.34,-42.14 259.92,-37.3 258.95,-44.23"/>
</a>
</g>
</g>
<!-- Node7 -->
<g id="Node000007" class="node">
<title>Node7</title>
<g id="a_Node000007"><a xlink:href="a01949.html#a84bb16b03a95a60c4748c189dafa8a54" target="_top" xlink:title=" ">
<polygon fill="white" stroke="#666666" points="345,-18.5 254.75,-18.5 254.75,0 345,0 345,-18.5"/>
<text text-anchor="middle" x="299.88" y="-5" font-family="Helvetica,sans-Serif" font-size="10.00">utils_bitmap_free</text>
</a>
</g>
</g>
<!-- Node2&#45;&gt;Node7 -->
<g id="edge7_Node000002_Node000007" class="edge">
<title>Node2&#45;&gt;Node7</title>
<g id="a_edge7_Node000002_Node000007"><a xlink:title=" ">
<path fill="none" stroke="#63b8ff" d="M219,-19.77C227.08,-18.71 235.37,-17.62 243.42,-16.56"/>
<polygon fill="#63b8ff" stroke="#63b8ff" points="243.63,-20.06 253.08,-15.28 242.71,-13.12 243.63,-20.06"/>
</a>
</g>
</g>
<!-- Node4 -->
<g id="Node000004" class="node">
<title>Node4</title>
<g id="a_Node000004"><a xlink:href="a01949.html#a73d0d5ad8a6878dde35fe7b827b33b05" target="_top" xlink:title=" ">
<polygon fill="white" stroke="#666666" points="461.5,-73.5 386.25,-73.5 386.25,-55 461.5,-55 461.5,-73.5"/>
<text text-anchor="middle" x="423.88" y="-60" font-family="Helvetica,sans-Serif" font-size="10.00">find_start_big</text>
</a>
</g>
</g>
<!-- Node3&#45;&gt;Node4 -->
<g id="edge3_Node000003_Node000004" class="edge">
<title>Node3&#45;&gt;Node4</title>
<g id="a_edge3_Node000003_Node000004"><a xlink:title=" ">
<path fill="none" stroke="#63b8ff" d="M328.86,-50.38C342.45,-52.38 359.16,-54.85 374.71,-57.14"/>
<polygon fill="#63b8ff" stroke="#63b8ff" points="373.86,-60.56 384.27,-58.55 374.88,-53.63 373.86,-60.56"/>
</a>
</g>
</g>
<!-- Node6 -->
<g id="Node000006" class="node">
<title>Node6</title>
<g id="a_Node000006"><a xlink:href="a01949.html#afac539947a2f5fe419a493103a45e4be" target="_top" xlink:title=" ">
<polygon fill="white" stroke="#666666" points="466.75,-36.5 381,-36.5 381,-18 466.75,-18 466.75,-36.5"/>
<text text-anchor="middle" x="423.88" y="-23" font-family="Helvetica,sans-Serif" font-size="10.00">find_start_small</text>
</a>
</g>
</g>
<!-- Node3&#45;&gt;Node6 -->
<g id="edge5_Node000003_Node000006" class="edge">
<title>Node3&#45;&gt;Node6</title>
<g id="a_edge5_Node000003_Node000006"><a xlink:title=" ">
<path fill="none" stroke="#63b8ff" d="M328.86,-41.89C340.97,-40.01 355.55,-37.74 369.58,-35.55"/>
<polygon fill="#63b8ff" stroke="#63b8ff" points="369.81,-39.06 379.16,-34.06 368.74,-32.14 369.81,-39.06"/>
</a>
</g>
</g>
<!-- Node5 -->
<g id="Node000005" class="node">
<title>Node5</title>
<g id="a_Node000005"><a xlink:href="a01949.html#af8a432f287b9f55f026e2d120e677998" target="_top" xlink:title=" ">
<polygon fill="white" stroke="#666666" points="584,-54.5 502.75,-54.5 502.75,-36 584,-36 584,-54.5"/>
<text text-anchor="middle" x="543.38" y="-41" font-family="Helvetica,sans-Serif" font-size="10.00">find_end_small</text>
</a>
</g>
</g>
<!-- Node4&#45;&gt;Node5 -->
<g id="edge4_Node000004_Node000005" class="edge">
<title>Node4&#45;&gt;Node5</title>
<g id="a_edge4_Node000004_Node000005"><a xlink:title=" ">
<path fill="none" stroke="#63b8ff" d="M461.73,-58.29C471.12,-56.77 481.38,-55.11 491.34,-53.5"/>
<polygon fill="#63b8ff" stroke="#63b8ff" points="491.58,-57.01 500.9,-51.96 490.47,-50.1 491.58,-57.01"/>
</a>
</g>
</g>
<!-- Node6&#45;&gt;Node5 -->
<g id="edge6_Node000006_Node000005" class="edge">
<title>Node6&#45;&gt;Node5</title>
<g id="a_edge6_Node000006_Node000005"><a xlink:title=" ">
<path fill="none" stroke="#63b8ff" d="M466.96,-33.7C474.84,-34.9 483.15,-36.18 491.27,-37.42"/>
<polygon fill="#63b8ff" stroke="#63b8ff" points="490.63,-40.86 501.05,-38.92 491.69,-33.95 490.63,-40.86"/>
</a>
</g>
</g>
</g>
</svg>
