<?xml version="1.0" encoding="UTF-8" standalone="no"?>
<!DOCTYPE svg PUBLIC "-//W3C//DTD SVG 1.1//EN"
 "http://www.w3.org/Graphics/SVG/1.1/DTD/svg11.dtd">
<!-- Generated by graphviz version 11.0.0 (0)
 -->
<!-- Title: arch_alloc_allocate Pages: 1 -->
<svg width="1466pt" height="442pt"
 viewBox="0.00 0.00 1466.25 441.50" xmlns="http://www.w3.org/2000/svg" xmlns:xlink="http://www.w3.org/1999/xlink">
<g id="graph0" class="graph" transform="scale(1 1) rotate(0) translate(4 437.5)">
<title>arch_alloc_allocate</title>
<!-- Node1 -->
<g id="Node000001" class="node">
<title>Node1</title>
<g id="a_Node000001"><a xlink:title=" ">
<polygon fill="#999999" stroke="#666666" points="1458.25,-109.5 1359,-109.5 1359,-91 1458.25,-91 1458.25,-109.5"/>
<text text-anchor="middle" x="1408.62" y="-96" font-family="Helvetica,sans-Serif" font-size="10.00">arch_alloc_allocate</text>
</a>
</g>
</g>
<!-- Node2 -->
<g id="Node000002" class="node">
<title>Node2</title>
<g id="a_Node000002"><a xlink:href="a01928.html#a402bbd6fa197c2c48d527325e5e2cf5b" target="_top" xlink:title=" ">
<polygon fill="white" stroke="#666666" points="724.25,-287.5 619.75,-287.5 619.75,-269 724.25,-269 724.25,-287.5"/>
<text text-anchor="middle" x="672" y="-274" font-family="Helvetica,sans-Serif" font-size="10.00">arax_object_register</text>
</a>
</g>
</g>
<!-- Node1&#45;&gt;Node2 -->
<g id="edge1_Node000001_Node000002" class="edge">
<title>Node1&#45;&gt;Node2</title>
<g id="a_edge1_Node000001_Node000002"><a xlink:title=" ">
<path fill="none" stroke="#63b8ff" d="M1392.36,-118.37C1352.39,-163.67 1239.31,-278.25 1118.12,-278.25 1118.12,-278.25 1118.12,-278.25 962.5,-278.25 879.19,-278.25 782.4,-278.25 724.51,-278.25"/>
<polygon fill="#63b8ff" stroke="#63b8ff" points="1394.87,-120.82 1398.77,-110.96 1389.58,-116.24 1394.87,-120.82"/>
</a>
</g>
</g>
<!-- Node20 -->
<g id="Node000020" class="node">
<title>Node20</title>
<g id="a_Node000020"><a xlink:href="a01928.html#a6c73bee66b4cb5a64d949b6fbbd64498" target="_top" xlink:title=" ">
<polygon fill="white" stroke="#666666" points="1317.38,-18.5 1212.88,-18.5 1212.88,0 1317.38,0 1317.38,-18.5"/>
<text text-anchor="middle" x="1265.12" y="-5" font-family="Helvetica,sans-Serif" font-size="10.00">arax_object_rename</text>
</a>
</g>
</g>
<!-- Node1&#45;&gt;Node20 -->
<g id="edge21_Node000001_Node000020" class="edge">
<title>Node1&#45;&gt;Node20</title>
<g id="a_edge21_Node000001_Node000020"><a xlink:title=" ">
<path fill="none" stroke="#63b8ff" d="M1389.54,-83.09C1373.15,-68.2 1347.83,-46.82 1323,-32.25 1314.18,-27.08 1303.98,-22.55 1294.67,-18.91"/>
<polygon fill="#63b8ff" stroke="#63b8ff" points="1386.84,-85.36 1396.56,-89.58 1391.59,-80.22 1386.84,-85.36"/>
</a>
</g>
</g>
<!-- Node21 -->
<g id="Node000021" class="node">
<title>Node21</title>
<g id="a_Node000021"><a xlink:href="a01949.html#a8a99bcb12e2ee55d68a029bfca9b6d51" target="_top" xlink:title=" ">
<polygon fill="white" stroke="#666666" points="572.5,-57.75 478.5,-57.75 478.5,-28.75 572.5,-28.75 572.5,-57.75"/>
<text text-anchor="start" x="486.5" y="-44.25" font-family="Helvetica,sans-Serif" font-size="10.00">arax_plot_register</text>
<text text-anchor="middle" x="525.5" y="-33.75" font-family="Helvetica,sans-Serif" font-size="10.00">_metric</text>
</a>
</g>
</g>
<!-- Node1&#45;&gt;Node21 -->
<g id="edge22_Node000001_Node000021" class="edge">
<title>Node1&#45;&gt;Node21</title>
<g id="a_edge22_Node000001_Node000021"><a xlink:title=" ">
<path fill="none" stroke="#63b8ff" d="M1365.84,-87.44C1309.97,-71.47 1207.57,-46.25 1118.12,-46.25 1118.12,-46.25 1118.12,-46.25 811.88,-46.25 727.65,-46.25 629.44,-44.93 572.96,-44.04"/>
<polygon fill="#63b8ff" stroke="#63b8ff" points="1364.67,-90.74 1375.25,-90.17 1366.63,-84.02 1364.67,-90.74"/>
</a>
</g>
</g>
<!-- Node22 -->
<g id="Node000022" class="node">
<title>Node22</title>
<g id="a_Node000022"><a xlink:href="a02367.html#a7ab7c7fe9cb93434dde72a4e464a7e69" target="_top" xlink:title=" ">
<polygon fill="white" stroke="#666666" points="1323,-139.5 1207.25,-139.5 1207.25,-121 1323,-121 1323,-139.5"/>
<text text-anchor="middle" x="1265.12" y="-126" font-family="Helvetica,sans-Serif" font-size="10.00">async_semaphore_dec</text>
</a>
</g>
</g>
<!-- Node1&#45;&gt;Node22 -->
<g id="edge23_Node000001_Node000022" class="edge">
<title>Node1&#45;&gt;Node22</title>
<g id="a_edge23_Node000001_Node000022"><a xlink:title=" ">
<path fill="none" stroke="#63b8ff" d="M1350.57,-112.35C1337.69,-115.08 1324.18,-117.94 1311.84,-120.56"/>
<polygon fill="#63b8ff" stroke="#63b8ff" points="1351.15,-115.8 1360.2,-110.3 1349.69,-108.95 1351.15,-115.8"/>
</a>
</g>
</g>
<!-- Node3 -->
<g id="Node000003" class="node">
<title>Node3</title>
<g id="a_Node000003"><a xlink:href="a01919.html#a0706a66a62ca8710342ac1c097b703ed" target="_top" xlink:title=" ">
<polygon fill="white" stroke="#666666" points="410.62,-433.5 328.62,-433.5 328.62,-415 410.62,-415 410.62,-433.5"/>
<text text-anchor="middle" x="369.62" y="-420" font-family="Helvetica,sans-Serif" font-size="10.00">arax_accel_init</text>
</a>
</g>
</g>
<!-- Node2&#45;&gt;Node3 -->
<g id="edge2_Node000002_Node000003" class="edge">
<title>Node2&#45;&gt;Node3</title>
<g id="a_edge2_Node000002_Node000003"><a xlink:title=" ">
<path fill="none" stroke="#63b8ff" d="M659.46,-297.4C644.57,-320.35 616.49,-358.21 582.25,-378.25 528.38,-409.77 455.39,-419.76 410.73,-422.88"/>
<polygon fill="#63b8ff" stroke="#63b8ff" points="662.36,-299.36 664.7,-289.03 656.43,-295.65 662.36,-299.36"/>
</a>
</g>
</g>
<!-- Node4 -->
<g id="Node000004" class="node">
<title>Node4</title>
<g id="a_Node000004"><a xlink:href="a01925.html#a526989df37e605824d846b7ba54b43ea" target="_top" xlink:title=" ">
<polygon fill="white" stroke="#666666" points="582.25,-322.5 468.75,-322.5 468.75,-304 582.25,-304 582.25,-322.5"/>
<text text-anchor="middle" x="525.5" y="-309" font-family="Helvetica,sans-Serif" font-size="10.00">arax_data_init_aligned</text>
</a>
</g>
</g>
<!-- Node2&#45;&gt;Node4 -->
<g id="edge3_Node000002_Node000004" class="edge">
<title>Node2&#45;&gt;Node4</title>
<g id="a_edge3_Node000002_Node000004"><a xlink:title=" ">
<path fill="none" stroke="#63b8ff" d="M619.59,-290.7C602.16,-294.92 582.95,-299.58 566.54,-303.55"/>
<polygon fill="#63b8ff" stroke="#63b8ff" points="620.38,-294.11 629.28,-288.36 618.73,-287.31 620.38,-294.11"/>
</a>
</g>
</g>
<!-- Node7 -->
<g id="Node000007" class="node">
<title>Node7</title>
<g id="a_Node000007"><a xlink:href="a01934.html#a86ac572ea8f5f613129192c47d598818" target="_top" xlink:title=" ">
<polygon fill="white" stroke="#666666" points="564.25,-285.5 486.75,-285.5 486.75,-267 564.25,-267 564.25,-285.5"/>
<text text-anchor="middle" x="525.5" y="-272" font-family="Helvetica,sans-Serif" font-size="10.00">arax_proc_init</text>
</a>
</g>
</g>
<!-- Node2&#45;&gt;Node7 -->
<g id="edge6_Node000002_Node000007" class="edge">
<title>Node2&#45;&gt;Node7</title>
<g id="a_edge6_Node000002_Node000007"><a xlink:title=" ">
<path fill="none" stroke="#63b8ff" d="M608.38,-277.38C593.44,-277.18 577.95,-276.96 564.51,-276.78"/>
<polygon fill="#63b8ff" stroke="#63b8ff" points="608.09,-280.88 618.13,-277.52 608.18,-273.88 608.09,-280.88"/>
</a>
</g>
</g>
<!-- Node9 -->
<g id="Node000009" class="node">
<title>Node9</title>
<g id="a_Node000009"><a xlink:href="a01940.html#a27bee94f7a23281c8b2b72ec433f6059" target="_top" xlink:title=" ">
<polygon fill="white" stroke="#666666" points="568,-248.5 483,-248.5 483,-230 568,-230 568,-248.5"/>
<text text-anchor="middle" x="525.5" y="-235" font-family="Helvetica,sans-Serif" font-size="10.00">arax_task_alloc</text>
</a>
</g>
</g>
<!-- Node2&#45;&gt;Node9 -->
<g id="edge8_Node000002_Node000009" class="edge">
<title>Node2&#45;&gt;Node9</title>
<g id="a_edge8_Node000002_Node000009"><a xlink:title=" ">
<path fill="none" stroke="#63b8ff" d="M623.8,-265.51C603.74,-260.1 580.73,-253.89 562.13,-248.87"/>
<polygon fill="#63b8ff" stroke="#63b8ff" points="622.88,-268.89 633.45,-268.11 624.71,-262.13 622.88,-268.89"/>
</a>
</g>
</g>
<!-- Node17 -->
<g id="Node000017" class="node">
<title>Node17</title>
<g id="a_Node000017"><a xlink:href="a01946.html#a83ddb422946cf774c687c1ab63dcda15" target="_top" xlink:title=" ">
<polygon fill="white" stroke="#666666" points="568.75,-369.5 482.25,-369.5 482.25,-351 568.75,-351 568.75,-369.5"/>
<text text-anchor="middle" x="525.5" y="-356" font-family="Helvetica,sans-Serif" font-size="10.00">arax_vaccel_init</text>
</a>
</g>
</g>
<!-- Node2&#45;&gt;Node17 -->
<g id="edge17_Node000002_Node000017" class="edge">
<title>Node2&#45;&gt;Node17</title>
<g id="a_edge17_Node000002_Node000017"><a xlink:title=" ">
<path fill="none" stroke="#63b8ff" d="M645.89,-293.78C628.24,-304.56 604,-319.11 582.25,-331.25 570.25,-337.95 556.55,-345.08 545.74,-350.59"/>
<polygon fill="#63b8ff" stroke="#63b8ff" points="647.47,-296.92 654.16,-288.7 643.81,-290.95 647.47,-296.92"/>
</a>
</g>
</g>
<!-- Node5 -->
<g id="Node000005" class="node">
<title>Node5</title>
<g id="a_Node000005"><a xlink:href="a01925.html#aeefe449d4a278e9fc4b9c5f7e31000a1" target="_top" xlink:title=" ">
<polygon fill="white" stroke="#666666" points="408.38,-322.5 330.88,-322.5 330.88,-304 408.38,-304 408.38,-322.5"/>
<text text-anchor="middle" x="369.62" y="-309" font-family="Helvetica,sans-Serif" font-size="10.00">arax_data_init</text>
</a>
</g>
</g>
<!-- Node4&#45;&gt;Node5 -->
<g id="edge4_Node000004_Node000005" class="edge">
<title>Node4&#45;&gt;Node5</title>
<g id="a_edge4_Node000004_Node000005"><a xlink:title=" ">
<path fill="none" stroke="#63b8ff" d="M457.12,-313.25C440.48,-313.25 423.22,-313.25 408.54,-313.25"/>
<polygon fill="#63b8ff" stroke="#63b8ff" points="457,-316.75 467,-313.25 457,-309.75 457,-316.75"/>
</a>
</g>
</g>
<!-- Node6 -->
<g id="Node000006" class="node">
<title>Node6</title>
<g id="a_Node000006"><a xlink:href="a02193.html#ga9260ad2dd766aec3274c518e2e312b1f" target="_top" xlink:title=" ">
<polygon fill="white" stroke="#666666" points="249.12,-359.5 159.62,-359.5 159.62,-341 249.12,-341 249.12,-359.5"/>
<text text-anchor="middle" x="204.38" y="-346" font-family="Helvetica,sans-Serif" font-size="10.00">ARAX_BUFFER</text>
</a>
</g>
</g>
<!-- Node5&#45;&gt;Node6 -->
<g id="edge5_Node000005_Node000006" class="edge">
<title>Node5&#45;&gt;Node6</title>
<g id="a_edge5_Node000005_Node000006"><a xlink:title=" ">
<path fill="none" stroke="#63b8ff" d="M319.63,-324.35C296.9,-329.51 270.13,-335.57 248.21,-340.54"/>
<polygon fill="#63b8ff" stroke="#63b8ff" points="320.31,-327.79 329.29,-322.17 318.76,-320.96 320.31,-327.79"/>
</a>
</g>
</g>
<!-- Node8 -->
<g id="Node000008" class="node">
<title>Node8</title>
<g id="a_Node000008"><a xlink:href="a02191.html#gafad2dafb4a231390f02b7c866295b7d9" target="_top" xlink:title=" ">
<polygon fill="white" stroke="#666666" points="418.12,-285.5 321.12,-285.5 321.12,-267 418.12,-267 418.12,-285.5"/>
<text text-anchor="middle" x="369.62" y="-272" font-family="Helvetica,sans-Serif" font-size="10.00">arax_proc_register</text>
</a>
</g>
</g>
<!-- Node7&#45;&gt;Node8 -->
<g id="edge7_Node000007_Node000008" class="edge">
<title>Node7&#45;&gt;Node8</title>
<g id="a_edge7_Node000007_Node000008"><a xlink:title=" ">
<path fill="none" stroke="#63b8ff" d="M475.2,-276.25C457.02,-276.25 436.47,-276.25 418.42,-276.25"/>
<polygon fill="#63b8ff" stroke="#63b8ff" points="474.95,-279.75 484.95,-276.25 474.95,-272.75 474.95,-279.75"/>
</a>
</g>
</g>
<!-- Node10 -->
<g id="Node000010" class="node">
<title>Node10</title>
<g id="a_Node000010"><a xlink:href="a02192.html#gac9f0f3fbb14da879d3ff09bd367bbb24" target="_top" xlink:title=" ">
<polygon fill="white" stroke="#666666" points="413.62,-248.5 325.62,-248.5 325.62,-230 413.62,-230 413.62,-248.5"/>
<text text-anchor="middle" x="369.62" y="-235" font-family="Helvetica,sans-Serif" font-size="10.00">arax_task_issue</text>
</a>
</g>
</g>
<!-- Node9&#45;&gt;Node10 -->
<g id="edge9_Node000009_Node000010" class="edge">
<title>Node9&#45;&gt;Node10</title>
<g id="a_edge9_Node000009_Node000010"><a xlink:title=" ">
<path fill="none" stroke="#63b8ff" d="M471.48,-239.25C452.69,-239.25 431.79,-239.25 413.91,-239.25"/>
<polygon fill="#63b8ff" stroke="#63b8ff" points="471.35,-242.75 481.35,-239.25 471.35,-235.75 471.35,-242.75"/>
</a>
</g>
</g>
<!-- Node11 -->
<g id="Node000011" class="node">
<title>Node11</title>
<g id="a_Node000011"><a xlink:href="a01925.html#af8ede6fc8d207004035f45d945688d2c" target="_top" xlink:title=" ">
<polygon fill="white" stroke="#666666" points="253.62,-174.75 155.12,-174.75 155.12,-145.75 253.62,-145.75 253.62,-174.75"/>
<text text-anchor="start" x="163.12" y="-161.25" font-family="Helvetica,sans-Serif" font-size="10.00">arax_data_allocate</text>
<text text-anchor="middle" x="204.38" y="-150.75" font-family="Helvetica,sans-Serif" font-size="10.00">_remote</text>
</a>
</g>
</g>
<!-- Node10&#45;&gt;Node11 -->
<g id="edge10_Node000010_Node000011" class="edge">
<title>Node10&#45;&gt;Node11</title>
<g id="a_edge10_Node000010_Node000011"><a xlink:title=" ">
<path fill="none" stroke="#63b8ff" d="M333.27,-224.93C324.34,-220.88 314.9,-216.21 306.5,-211.25 289.28,-201.08 288.07,-193.81 270.5,-184.25 264.36,-180.91 257.66,-177.85 250.97,-175.12"/>
<polygon fill="#63b8ff" stroke="#63b8ff" points="331.86,-228.14 342.42,-228.94 334.67,-221.73 331.86,-228.14"/>
</a>
</g>
</g>
<!-- Node12 -->
<g id="Node000012" class="node">
<title>Node12</title>
<g id="a_Node000012"><a xlink:href="a01925.html#a696bc4319d0f6c6baa7d797a8df6b56f" target="_top" xlink:title=" ">
<polygon fill="white" stroke="#666666" points="243.5,-248.5 165.25,-248.5 165.25,-230 243.5,-230 243.5,-248.5"/>
<text text-anchor="middle" x="204.38" y="-235" font-family="Helvetica,sans-Serif" font-size="10.00">arax_data_get</text>
</a>
</g>
</g>
<!-- Node10&#45;&gt;Node12 -->
<g id="edge11_Node000010_Node000012" class="edge">
<title>Node10&#45;&gt;Node12</title>
<g id="a_edge11_Node000010_Node000012"><a xlink:title=" ">
<path fill="none" stroke="#63b8ff" d="M313.97,-239.25C290.99,-239.25 264.79,-239.25 243.88,-239.25"/>
<polygon fill="#63b8ff" stroke="#63b8ff" points="313.79,-242.75 323.79,-239.25 313.79,-235.75 313.79,-242.75"/>
</a>
</g>
</g>
<!-- Node14 -->
<g id="Node000014" class="node">
<title>Node14</title>
<g id="a_Node000014"><a xlink:href="a01925.html#a8995f71dba475975efc37756783cfce9" target="_top" xlink:title=" ">
<polygon fill="white" stroke="#666666" points="243.5,-211.5 165.25,-211.5 165.25,-193 243.5,-193 243.5,-211.5"/>
<text text-anchor="middle" x="204.38" y="-198" font-family="Helvetica,sans-Serif" font-size="10.00">arax_data_set</text>
</a>
</g>
</g>
<!-- Node10&#45;&gt;Node14 -->
<g id="edge13_Node000010_Node000014" class="edge">
<title>Node10&#45;&gt;Node14</title>
<g id="a_edge13_Node000010_Node000014"><a xlink:title=" ">
<path fill="none" stroke="#63b8ff" d="M314.66,-227.02C291.49,-221.77 264.93,-215.75 243.8,-210.96"/>
<polygon fill="#63b8ff" stroke="#63b8ff" points="313.73,-230.4 324.26,-229.19 315.28,-223.57 313.73,-230.4"/>
</a>
</g>
</g>
<!-- Node15 -->
<g id="Node000015" class="node">
<title>Node15</title>
<g id="a_Node000015"><a xlink:href="a01925.html#af735744d0f8bec04394639a841d2ba0f" target="_top" xlink:title=" ">
<polygon fill="white" stroke="#666666" points="270.5,-322.5 138.25,-322.5 138.25,-304 270.5,-304 270.5,-322.5"/>
<text text-anchor="middle" x="204.38" y="-309" font-family="Helvetica,sans-Serif" font-size="10.00">ARAX_OBJ_DTOR_DECL</text>
</a>
</g>
</g>
<!-- Node10&#45;&gt;Node15 -->
<g id="edge15_Node000010_Node000015" class="edge">
<title>Node10&#45;&gt;Node15</title>
<g id="a_edge15_Node000010_Node000015"><a xlink:title=" ">
<path fill="none" stroke="#63b8ff" d="M316.43,-253.09C312.99,-254.65 309.64,-256.36 306.5,-258.25 287.11,-269.9 289.97,-282.72 270.5,-294.25 264.12,-298.03 256.93,-301.1 249.72,-303.58"/>
<polygon fill="#63b8ff" stroke="#63b8ff" points="317.58,-256.4 325.57,-249.45 314.98,-249.9 317.58,-256.4"/>
</a>
</g>
</g>
<!-- Node16 -->
<g id="Node000016" class="node">
<title>Node16</title>
<g id="a_Node000016"><a xlink:href="a02192.html#ga1418f4cd7336bf77cce7b955a1bf7077" target="_top" xlink:title=" ">
<polygon fill="white" stroke="#666666" points="261.12,-285.5 147.62,-285.5 147.62,-267 261.12,-267 261.12,-285.5"/>
<text text-anchor="middle" x="204.38" y="-272" font-family="Helvetica,sans-Serif" font-size="10.00">arax_task_issue_sync</text>
</a>
</g>
</g>
<!-- Node10&#45;&gt;Node16 -->
<g id="edge16_Node000010_Node000016" class="edge">
<title>Node10&#45;&gt;Node16</title>
<g id="a_edge16_Node000010_Node000016"><a xlink:title=" ">
<path fill="none" stroke="#63b8ff" d="M314.75,-251.46C293.15,-256.36 268.62,-261.92 248.26,-266.53"/>
<polygon fill="#63b8ff" stroke="#63b8ff" points="315.28,-254.93 324.26,-249.31 313.73,-248.1 315.28,-254.93"/>
</a>
</g>
</g>
<!-- Node13 -->
<g id="Node000013" class="node">
<title>Node13</title>
<g id="a_Node000013"><a xlink:href="a01925.html#a7d8356bd5c8b6a8d7dffc6ba94cc22e5" target="_top" xlink:title=" ">
<polygon fill="white" stroke="#666666" points="102.25,-229.5 0,-229.5 0,-211 102.25,-211 102.25,-229.5"/>
<text text-anchor="middle" x="51.12" y="-216" font-family="Helvetica,sans-Serif" font-size="10.00">arax_data_memcpy</text>
</a>
</g>
</g>
<!-- Node12&#45;&gt;Node13 -->
<g id="edge12_Node000012_Node000013" class="edge">
<title>Node12&#45;&gt;Node13</title>
<g id="a_edge12_Node000012_Node000013"><a xlink:title=" ">
<path fill="none" stroke="#63b8ff" d="M153.79,-233.02C137.38,-230.96 119.1,-228.66 102.61,-226.59"/>
<polygon fill="#63b8ff" stroke="#63b8ff" points="152.96,-236.44 163.32,-234.22 153.83,-229.5 152.96,-236.44"/>
</a>
</g>
</g>
<!-- Node14&#45;&gt;Node13 -->
<g id="edge14_Node000014_Node000013" class="edge">
<title>Node14&#45;&gt;Node13</title>
<g id="a_edge14_Node000014_Node000013"><a xlink:title=" ">
<path fill="none" stroke="#63b8ff" d="M153.79,-208.15C137.38,-210.1 119.1,-212.28 102.61,-214.24"/>
<polygon fill="#63b8ff" stroke="#63b8ff" points="153.8,-211.67 163.31,-207.02 152.97,-204.72 153.8,-211.67"/>
</a>
</g>
</g>
<!-- Node17&#45;&gt;Node3 -->
<g id="edge20_Node000017_Node000003" class="edge">
<title>Node17&#45;&gt;Node3</title>
<g id="a_edge20_Node000017_Node000003"><a xlink:title=" ">
<path fill="none" stroke="#63b8ff" d="M496.89,-375.22C478.95,-384.6 454.85,-396.51 432.75,-405.25 424.15,-408.65 414.68,-411.82 405.79,-414.56"/>
<polygon fill="#63b8ff" stroke="#63b8ff" points="498.41,-378.38 505.61,-370.61 495.13,-372.2 498.41,-378.38"/>
</a>
</g>
</g>
<!-- Node18 -->
<g id="Node000018" class="node">
<title>Node18</title>
<g id="a_Node000018"><a xlink:href="a02190.html#gaf8a10ab4e51e59c464ab3ab473e4a0f7" target="_top" xlink:title=" ">
<polygon fill="white" stroke="#666666" points="432.75,-396.5 306.5,-396.5 306.5,-378 432.75,-378 432.75,-396.5"/>
<text text-anchor="middle" x="369.62" y="-383" font-family="Helvetica,sans-Serif" font-size="10.00">arax_accel_acquire_phys</text>
</a>
</g>
</g>
<!-- Node17&#45;&gt;Node18 -->
<g id="edge18_Node000017_Node000018" class="edge">
<title>Node17&#45;&gt;Node18</title>
<g id="a_edge18_Node000017_Node000018"><a xlink:title=" ">
<path fill="none" stroke="#63b8ff" d="M470.72,-369.69C456.22,-372.23 440.51,-374.99 425.92,-377.55"/>
<polygon fill="#63b8ff" stroke="#63b8ff" points="471.31,-373.14 480.55,-367.96 470.1,-366.24 471.31,-373.14"/>
</a>
</g>
</g>
<!-- Node19 -->
<g id="Node000019" class="node">
<title>Node19</title>
<g id="a_Node000019"><a xlink:href="a02190.html#ga008252bb9afc2990fa2c5f4b980c9f27" target="_top" xlink:title=" ">
<polygon fill="white" stroke="#666666" points="432,-359.5 307.25,-359.5 307.25,-341 432,-341 432,-359.5"/>
<text text-anchor="middle" x="369.62" y="-346" font-family="Helvetica,sans-Serif" font-size="10.00">arax_accel_acquire_type</text>
</a>
</g>
</g>
<!-- Node17&#45;&gt;Node19 -->
<g id="edge19_Node000017_Node000019" class="edge">
<title>Node17&#45;&gt;Node19</title>
<g id="a_edge19_Node000017_Node000019"><a xlink:title=" ">
<path fill="none" stroke="#63b8ff" d="M470.89,-356.77C458.41,-355.95 445.03,-355.09 432.24,-354.25"/>
<polygon fill="#63b8ff" stroke="#63b8ff" points="470.33,-360.24 480.54,-357.39 470.78,-353.25 470.33,-360.24"/>
</a>
</g>
</g>
<!-- Node23 -->
<g id="Node000023" class="node">
<title>Node23</title>
<g id="a_Node000023"><a xlink:href="a02367.html#a1bfeaeb9b81855e640d7a67cc9d92b17" target="_top" xlink:title=" ">
<polygon fill="white" stroke="#666666" points="1171.25,-166.5 1063,-166.5 1063,-148 1171.25,-148 1171.25,-166.5"/>
<text text-anchor="middle" x="1117.12" y="-153" font-family="Helvetica,sans-Serif" font-size="10.00">async_condition_wait</text>
</a>
</g>
</g>
<!-- Node22&#45;&gt;Node23 -->
<g id="edge24_Node000022_Node000023" class="edge">
<title>Node22&#45;&gt;Node23</title>
<g id="a_edge24_Node000022_Node000023"><a xlink:title=" ">
<path fill="none" stroke="#63b8ff" d="M1200.38,-142.04C1190.49,-143.87 1180.37,-145.74 1170.76,-147.52"/>
<polygon fill="#63b8ff" stroke="#63b8ff" points="1200.73,-145.53 1209.93,-140.27 1199.46,-138.65 1200.73,-145.53"/>
</a>
</g>
</g>
<!-- Node24 -->
<g id="Node000024" class="node">
<title>Node24</title>
<g id="a_Node000024"><a xlink:href="a01913.html#a02fd608f651d254148dc74f0ae371dfe" target="_top" xlink:title=" ">
<polygon fill="white" stroke="#666666" points="992.88,-129.5 934.12,-129.5 934.12,-111 992.88,-111 992.88,-129.5"/>
<text text-anchor="middle" x="963.5" y="-116" font-family="Helvetica,sans-Serif" font-size="10.00">_arax_init</text>
</a>
</g>
</g>
<!-- Node23&#45;&gt;Node24 -->
<g id="edge25_Node000023_Node000024" class="edge">
<title>Node23&#45;&gt;Node24</title>
<g id="a_edge25_Node000023_Node000024"><a xlink:title=" ">
<path fill="none" stroke="#63b8ff" d="M1065.19,-144.82C1041.15,-138.95 1013.35,-132.17 993.06,-127.22"/>
<polygon fill="#63b8ff" stroke="#63b8ff" points="1064.27,-148.2 1074.82,-147.17 1065.93,-141.4 1064.27,-148.2"/>
</a>
</g>
</g>
<!-- Node31 -->
<g id="Node000031" class="node">
<title>Node31</title>
<g id="a_Node000031"><a xlink:href="a01919.html#a415e79d6e82e45f24bcd1742c146a0da" target="_top" xlink:title=" ">
<polygon fill="white" stroke="#666666" points="1027,-250.5 900,-250.5 900,-232 1027,-232 1027,-250.5"/>
<text text-anchor="middle" x="963.5" y="-237" font-family="Helvetica,sans-Serif" font-size="10.00">arax_accel_wait_for_task</text>
</a>
</g>
</g>
<!-- Node23&#45;&gt;Node31 -->
<g id="edge35_Node000023_Node000031" class="edge">
<title>Node23&#45;&gt;Node31</title>
<g id="a_edge35_Node000023_Node000031"><a xlink:title=" ">
<path fill="none" stroke="#63b8ff" d="M1097.18,-174.45C1079.99,-189.25 1053.36,-210.22 1027,-223.25 1020.42,-226.5 1013.15,-229.26 1005.97,-231.57"/>
<polygon fill="#63b8ff" stroke="#63b8ff" points="1099.37,-177.18 1104.57,-167.95 1094.75,-171.93 1099.37,-177.18"/>
</a>
</g>
</g>
<!-- Node32 -->
<g id="Node000032" class="node">
<title>Node32</title>
<g id="a_Node000032"><a xlink:href="a01931.html#a8ff14a859f9b7a34676c2fcdb762386b" target="_top" xlink:title=" ">
<polygon fill="white" stroke="#666666" points="1019.88,-213.75 907.12,-213.75 907.12,-184.75 1019.88,-184.75 1019.88,-213.75"/>
<text text-anchor="start" x="915.12" y="-200.25" font-family="Helvetica,sans-Serif" font-size="10.00">arax_pipe_get_orphan</text>
<text text-anchor="middle" x="963.5" y="-189.75" font-family="Helvetica,sans-Serif" font-size="10.00">_vaccel</text>
</a>
</g>
</g>
<!-- Node23&#45;&gt;Node32 -->
<g id="edge36_Node000023_Node000032" class="edge">
<title>Node23&#45;&gt;Node32</title>
<g id="a_edge36_Node000023_Node000032"><a xlink:title=" ">
<path fill="none" stroke="#63b8ff" d="M1070.09,-170C1053.81,-174.51 1035.36,-179.62 1018.49,-184.29"/>
<polygon fill="#63b8ff" stroke="#63b8ff" points="1070.8,-173.44 1079.5,-167.4 1068.93,-166.69 1070.8,-173.44"/>
</a>
</g>
</g>
<!-- Node33 -->
<g id="Node000033" class="node">
<title>Node33</title>
<g id="a_Node000033"><a xlink:href="a01943.html#a63b80783cfb3106ec4169ce082f153c0" target="_top" xlink:title=" ">
<polygon fill="white" stroke="#666666" points="1020.62,-166.5 906.38,-166.5 906.38,-148 1020.62,-148 1020.62,-166.5"/>
<text text-anchor="middle" x="963.5" y="-153" font-family="Helvetica,sans-Serif" font-size="10.00">arax_throttle_size_dec</text>
</a>
</g>
</g>
<!-- Node23&#45;&gt;Node33 -->
<g id="edge37_Node000023_Node000033" class="edge">
<title>Node23&#45;&gt;Node33</title>
<g id="a_edge37_Node000023_Node000033"><a xlink:title=" ">
<path fill="none" stroke="#63b8ff" d="M1051.42,-157.25C1041.33,-157.25 1030.97,-157.25 1021.07,-157.25"/>
<polygon fill="#63b8ff" stroke="#63b8ff" points="1051.15,-160.75 1061.15,-157.25 1051.15,-153.75 1051.15,-160.75"/>
</a>
</g>
</g>
<!-- Node25 -->
<g id="Node000025" class="node">
<title>Node25</title>
<g id="a_Node000025"><a xlink:href="a01913.html#aa6e4832b06bd5757be4502d2de7b3026" target="_top" xlink:title=" ">
<polygon fill="white" stroke="#666666" points="862.12,-151.75 763.62,-151.75 763.62,-122.75 862.12,-122.75 862.12,-151.75"/>
<text text-anchor="start" x="771.62" y="-138.25" font-family="Helvetica,sans-Serif" font-size="10.00">arax_controller_init</text>
<text text-anchor="middle" x="812.88" y="-127.75" font-family="Helvetica,sans-Serif" font-size="10.00">_start</text>
</a>
</g>
</g>
<!-- Node24&#45;&gt;Node25 -->
<g id="edge26_Node000024_Node000025" class="edge">
<title>Node24&#45;&gt;Node25</title>
<g id="a_edge26_Node000024_Node000025"><a xlink:title=" ">
<path fill="none" stroke="#63b8ff" d="M922.55,-124.82C904.01,-126.94 881.82,-129.48 862.33,-131.71"/>
<polygon fill="#63b8ff" stroke="#63b8ff" points="922.8,-128.31 932.34,-123.7 922.01,-121.36 922.8,-128.31"/>
</a>
</g>
</g>
<!-- Node26 -->
<g id="Node000026" class="node">
<title>Node26</title>
<g id="a_Node000026"><a xlink:href="a02189.html#gae1d371a2840849690acce147e7a205da" target="_top" xlink:title=" ">
<polygon fill="white" stroke="#666666" points="839.62,-104.5 786.12,-104.5 786.12,-86 839.62,-86 839.62,-104.5"/>
<text text-anchor="middle" x="812.88" y="-91" font-family="Helvetica,sans-Serif" font-size="10.00">arax_init</text>
</a>
</g>
</g>
<!-- Node24&#45;&gt;Node26 -->
<g id="edge27_Node000024_Node000026" class="edge">
<title>Node24&#45;&gt;Node26</title>
<g id="a_edge27_Node000024_Node000026"><a xlink:title=" ">
<path fill="none" stroke="#63b8ff" d="M922.74,-113.56C896.49,-109.15 862.85,-103.49 839.95,-99.64"/>
<polygon fill="#63b8ff" stroke="#63b8ff" points="921.91,-116.97 932.35,-115.18 923.07,-110.07 921.91,-116.97"/>
</a>
</g>
</g>
<!-- Node26&#45;&gt;Node21 -->
<g id="edge28_Node000026_Node000021" class="edge">
<title>Node26&#45;&gt;Node21</title>
<g id="a_edge28_Node000026_Node000021"><a xlink:title=" ">
<path fill="none" stroke="#63b8ff" d="M774.58,-88.56C735.58,-81.55 672.61,-70.2 618.25,-60.25 603.43,-57.54 587.27,-54.55 572.7,-51.85"/>
<polygon fill="#63b8ff" stroke="#63b8ff" points="773.92,-92 784.38,-90.32 775.16,-85.11 773.92,-92"/>
</a>
</g>
</g>
<!-- Node27 -->
<g id="Node000027" class="node">
<title>Node27</title>
<g id="a_Node000027"><a xlink:href="a01937.html#a80ab3bf4a8af9bb101b5a53248609771" target="_top" xlink:title=" ">
<polygon fill="white" stroke="#666666" points="710.38,-130.5 633.62,-130.5 633.62,-112 710.38,-112 710.38,-130.5"/>
<text text-anchor="middle" x="672" y="-117" font-family="Helvetica,sans-Serif" font-size="10.00">arax_ptr_valid</text>
</a>
</g>
</g>
<!-- Node26&#45;&gt;Node27 -->
<g id="edge29_Node000026_Node000027" class="edge">
<title>Node26&#45;&gt;Node27</title>
<g id="a_edge29_Node000026_Node000027"><a xlink:title=" ">
<path fill="none" stroke="#63b8ff" d="M774.7,-102.21C754.93,-105.91 730.67,-110.45 710.8,-114.17"/>
<polygon fill="#63b8ff" stroke="#63b8ff" points="775.08,-105.7 784.27,-100.42 773.79,-98.82 775.08,-105.7"/>
</a>
</g>
</g>
<!-- Node27&#45;&gt;Node21 -->
<g id="edge34_Node000027_Node000021" class="edge">
<title>Node27&#45;&gt;Node21</title>
<g id="a_edge34_Node000027_Node000021"><a xlink:title=" ">
<path fill="none" stroke="#63b8ff" d="M635.44,-107C629.59,-104.3 623.67,-101.34 618.25,-98.25 601.11,-88.47 599.05,-82.61 582.25,-72.25 574.26,-67.33 565.35,-62.44 557.04,-58.12"/>
<polygon fill="#63b8ff" stroke="#63b8ff" points="633.83,-110.11 644.39,-110.94 636.65,-103.7 633.83,-110.11"/>
</a>
</g>
</g>
<!-- Node28 -->
<g id="Node000028" class="node">
<title>Node28</title>
<g id="a_Node000028"><a xlink:href="a01970.html#a4ee1fea325d2edd421f59ab240dfbe54" target="_top" xlink:title=" ">
<polygon fill="white" stroke="#666666" points="571.38,-132.5 479.62,-132.5 479.62,-114 571.38,-114 571.38,-132.5"/>
<text text-anchor="middle" x="525.5" y="-119" font-family="Helvetica,sans-Serif" font-size="10.00">_arax_assert_obj</text>
</a>
</g>
</g>
<!-- Node27&#45;&gt;Node28 -->
<g id="edge30_Node000027_Node000028" class="edge">
<title>Node27&#45;&gt;Node28</title>
<g id="a_edge30_Node000027_Node000028"><a xlink:title=" ">
<path fill="none" stroke="#63b8ff" d="M621.92,-121.93C605.63,-122.15 587.59,-122.4 571.62,-122.63"/>
<polygon fill="#63b8ff" stroke="#63b8ff" points="621.95,-125.43 631.9,-121.79 621.85,-118.43 621.95,-125.43"/>
</a>
</g>
</g>
<!-- Node29 -->
<g id="Node000029" class="node">
<title>Node29</title>
<g id="a_Node000029"><a xlink:href="a01925.html#afeaab7d93372f0752d59c70d9c5940e7" target="_top" xlink:title=" ">
<polygon fill="white" stroke="#666666" points="563.5,-169.5 487.5,-169.5 487.5,-151 563.5,-151 563.5,-169.5"/>
<text text-anchor="middle" x="525.5" y="-156" font-family="Helvetica,sans-Serif" font-size="10.00">arax_data_ref</text>
</a>
</g>
</g>
<!-- Node27&#45;&gt;Node29 -->
<g id="edge31_Node000027_Node000029" class="edge">
<title>Node27&#45;&gt;Node29</title>
<g id="a_edge31_Node000027_Node000029"><a xlink:title=" ">
<path fill="none" stroke="#63b8ff" d="M623.8,-133.99C603.74,-139.4 580.73,-145.61 562.13,-150.63"/>
<polygon fill="#63b8ff" stroke="#63b8ff" points="624.71,-137.37 633.45,-131.39 622.88,-130.61 624.71,-137.37"/>
</a>
</g>
</g>
<!-- Node30 -->
<g id="Node000030" class="node">
<title>Node30</title>
<g id="a_Node000030"><a xlink:href="a01925.html#ac1f7fb20b3a23b388bea24f1b46a33a8" target="_top" xlink:title=" ">
<polygon fill="white" stroke="#666666" points="422.25,-132.5 317,-132.5 317,-114 422.25,-114 422.25,-132.5"/>
<text text-anchor="middle" x="369.62" y="-119" font-family="Helvetica,sans-Serif" font-size="10.00">arax_data_ref_offset</text>
</a>
</g>
</g>
<!-- Node27&#45;&gt;Node30 -->
<g id="edge33_Node000027_Node000030" class="edge">
<title>Node27&#45;&gt;Node30</title>
<g id="a_edge33_Node000027_Node000030"><a xlink:title=" ">
<path fill="none" stroke="#63b8ff" d="M622.17,-110.83C609.25,-108.52 595.28,-106.41 582.25,-105.25 532.01,-100.76 518.99,-100.68 468.75,-105.25 450.64,-106.9 430.88,-110.22 413.87,-113.57"/>
<polygon fill="#63b8ff" stroke="#63b8ff" points="621.24,-114.22 631.71,-112.62 622.52,-107.34 621.24,-114.22"/>
</a>
</g>
</g>
<!-- Node29&#45;&gt;Node30 -->
<g id="edge32_Node000029_Node000030" class="edge">
<title>Node29&#45;&gt;Node30</title>
<g id="a_edge32_Node000029_Node000030"><a xlink:title=" ">
<path fill="none" stroke="#63b8ff" d="M476.31,-148.66C455.34,-143.62 431.04,-137.78 411.04,-132.97"/>
<polygon fill="#63b8ff" stroke="#63b8ff" points="475.24,-152 485.78,-150.94 476.87,-145.2 475.24,-152"/>
</a>
</g>
</g>
<!-- Node34 -->
<g id="Node000034" class="node">
<title>Node34</title>
<g id="a_Node000034"><a xlink:href="a01919.html#a9c8e53aad4b86498a6b709c35c156fc3" target="_top" xlink:title=" ">
<polygon fill="white" stroke="#666666" points="725.75,-204.5 618.25,-204.5 618.25,-186 725.75,-186 725.75,-204.5"/>
<text text-anchor="middle" x="672" y="-191" font-family="Helvetica,sans-Serif" font-size="10.00">arax_accel_size_dec</text>
</a>
</g>
</g>
<!-- Node33&#45;&gt;Node34 -->
<g id="edge38_Node000033_Node000034" class="edge">
<title>Node33&#45;&gt;Node34</title>
<g id="a_edge38_Node000033_Node000034"><a xlink:title=" ">
<path fill="none" stroke="#63b8ff" d="M894.64,-166.16C843.15,-172.92 773.36,-182.08 725.95,-188.3"/>
<polygon fill="#63b8ff" stroke="#63b8ff" points="895.03,-169.64 904.49,-164.86 894.12,-162.7 895.03,-169.64"/>
</a>
</g>
</g>
<!-- Node35 -->
<g id="Node000035" class="node">
<title>Node35</title>
<g id="a_Node000035"><a xlink:href="a01931.html#a6cc54ee40009c61b5f6526f5edff004f" target="_top" xlink:title=" ">
<polygon fill="white" stroke="#666666" points="864,-247.5 761.75,-247.5 761.75,-229 864,-229 864,-247.5"/>
<text text-anchor="middle" x="812.88" y="-234" font-family="Helvetica,sans-Serif" font-size="10.00">arax_pipe_size_dec</text>
</a>
</g>
</g>
<!-- Node33&#45;&gt;Node35 -->
<g id="edge40_Node000033_Node000035" class="edge">
<title>Node33&#45;&gt;Node35</title>
<g id="a_edge40_Node000033_Node000035"><a xlink:title=" ">
<path fill="none" stroke="#63b8ff" d="M910.78,-171C907.05,-172.59 903.42,-174.33 900,-176.25 881.33,-186.72 881.26,-195.59 864,-208.25 853.7,-215.81 841.39,-223.19 831.55,-228.75"/>
<polygon fill="#63b8ff" stroke="#63b8ff" points="911.92,-174.31 920.03,-167.49 909.43,-167.77 911.92,-174.31"/>
</a>
</g>
</g>
<!-- Node34&#45;&gt;Node11 -->
<g id="edge39_Node000034_Node000011" class="edge">
<title>Node34&#45;&gt;Node11</title>
<g id="a_edge39_Node000034_Node000011"><a xlink:title=" ">
<path fill="none" stroke="#63b8ff" d="M606.66,-190.41C512.34,-183.32 338.57,-170.26 254.07,-163.91"/>
<polygon fill="#63b8ff" stroke="#63b8ff" points="606.3,-193.9 616.53,-191.16 606.82,-186.92 606.3,-193.9"/>
</a>
</g>
</g>
<!-- Node35&#45;&gt;Node2 -->
<g id="edge41_Node000035_Node000002" class="edge">
<title>Node35&#45;&gt;Node2</title>
<g id="a_edge41_Node000035_Node000002"><a xlink:title=" ">
<path fill="none" stroke="#63b8ff" d="M767.4,-251.06C747.75,-256.72 725.02,-263.27 706.79,-268.52"/>
<polygon fill="#63b8ff" stroke="#63b8ff" points="768.16,-254.48 776.8,-248.35 766.22,-247.76 768.16,-254.48"/>
</a>
</g>
</g>
</g>
</svg>
