<?xml version="1.0" encoding="UTF-8" standalone="no"?>
<!DOCTYPE svg PUBLIC "-//W3C//DTD SVG 1.1//EN"
 "http://www.w3.org/Graphics/SVG/1.1/DTD/svg11.dtd">
<!-- Generated by graphviz version 8.0.5 (0)
 -->
<!-- Title: async_meta_init_once Pages: 1 -->
<svg width="1213pt" height="138pt"
 viewBox="0.00 0.00 1212.50 137.50" xmlns="http://www.w3.org/2000/svg" xmlns:xlink="http://www.w3.org/1999/xlink">
<g id="graph0" class="graph" transform="scale(1 1) rotate(0) translate(4 133.5)">
<title>async_meta_init_once</title>
<!-- Node1 -->
<g id="Node000001" class="node">
<title>Node1</title>
<g id="a_Node000001"><a xlink:title=" ">
<polygon fill="#999999" stroke="#666666" points="112.75,-73.5 0,-73.5 0,-55 112.75,-55 112.75,-73.5"/>
<text text-anchor="middle" x="56.38" y="-60" font-family="Helvetica,sans-Serif" font-size="10.00">async_meta_init_once</text>
</a>
</g>
</g>
<!-- Node2 -->
<g id="Node000002" class="node">
<title>Node2</title>
<g id="a_Node000002"><a xlink:href="a01952.html#aff9af0356940583dfe3045e693cc8a45" target="_top" xlink:title=" ">
<polygon fill="white" stroke="#666666" points="263.75,-129.5 148.75,-129.5 148.75,-111 263.75,-111 263.75,-129.5"/>
<text text-anchor="middle" x="206.25" y="-116" font-family="Helvetica,sans-Serif" font-size="10.00">utils_config_alloc_path</text>
</a>
</g>
</g>
<!-- Node1&#45;&gt;Node2 -->
<g id="edge1_Node000001_Node000002" class="edge">
<title>Node1&#45;&gt;Node2</title>
<g id="a_edge1_Node000001_Node000002"><a xlink:title=" ">
<path fill="none" stroke="#63b8ff" d="M80.13,-73.91C98.53,-81.61 125.16,-92.52 148.75,-101.25 153.95,-103.18 159.46,-105.13 164.91,-107.01"/>
<polygon fill="#63b8ff" stroke="#63b8ff" points="163.63,-110.62 174.22,-110.53 165.88,-103.99 163.63,-110.62"/>
</a>
</g>
</g>
<!-- Node4 -->
<g id="Node000004" class="node">
<title>Node4</title>
<g id="a_Node000004"><a xlink:href="a01952.html#a84f3886cdcb91a28bf13b07aae8b2285" target="_top" xlink:title=" ">
<polygon fill="white" stroke="#666666" points="261.88,-92.5 150.62,-92.5 150.62,-74 261.88,-74 261.88,-92.5"/>
<text text-anchor="middle" x="206.25" y="-79" font-family="Helvetica,sans-Serif" font-size="10.00">utils_config_free_path</text>
</a>
</g>
</g>
<!-- Node1&#45;&gt;Node4 -->
<g id="edge3_Node000001_Node000004" class="edge">
<title>Node1&#45;&gt;Node4</title>
<g id="a_edge3_Node000001_Node000004"><a xlink:title=" ">
<path fill="none" stroke="#63b8ff" d="M112.86,-71.38C121.6,-72.5 130.71,-73.67 139.65,-74.82"/>
<polygon fill="#63b8ff" stroke="#63b8ff" points="139.07,-78.4 149.44,-76.21 139.97,-71.46 139.07,-78.4"/>
</a>
</g>
</g>
<!-- Node5 -->
<g id="Node000005" class="node">
<title>Node5</title>
<g id="a_Node000005"><a xlink:href="a01952.html#aa7aa94ad075bf97a566f01f899fcd859" target="_top" xlink:title=" ">
<polygon fill="white" stroke="#666666" points="260,-55.5 152.5,-55.5 152.5,-37 260,-37 260,-55.5"/>
<text text-anchor="middle" x="206.25" y="-42" font-family="Helvetica,sans-Serif" font-size="10.00">utils_config_get_bool</text>
</a>
</g>
</g>
<!-- Node1&#45;&gt;Node5 -->
<g id="edge4_Node000001_Node000005" class="edge">
<title>Node1&#45;&gt;Node5</title>
<g id="a_edge4_Node000001_Node000005"><a xlink:title=" ">
<path fill="none" stroke="#63b8ff" d="M112.86,-57.5C122.27,-56.35 132.1,-55.15 141.7,-53.99"/>
<polygon fill="#63b8ff" stroke="#63b8ff" points="141.89,-57.37 151.39,-52.68 141.04,-50.42 141.89,-57.37"/>
</a>
</g>
</g>
<!-- Node16 -->
<g id="Node000016" class="node">
<title>Node16</title>
<g id="a_Node000016"><a xlink:href="a01946.html#ab36e49d2e694b1da49504a689ed48e4a" target="_top" xlink:title=" ">
<polygon fill="white" stroke="#666666" points="241.25,-18.5 171.25,-18.5 171.25,0 241.25,0 241.25,-18.5"/>
<text text-anchor="middle" x="206.25" y="-5" font-family="Helvetica,sans-Serif" font-size="10.00">utils_list_init</text>
</a>
</g>
</g>
<!-- Node1&#45;&gt;Node16 -->
<g id="edge18_Node000001_Node000016" class="edge">
<title>Node1&#45;&gt;Node16</title>
<g id="a_edge18_Node000001_Node000016"><a xlink:title=" ">
<path fill="none" stroke="#63b8ff" d="M80.91,-54.59C99.29,-47.15 125.52,-36.72 148.75,-28.25 154.16,-26.28 159.88,-24.26 165.53,-22.32"/>
<polygon fill="#63b8ff" stroke="#63b8ff" points="166.19,-25.46 174.53,-18.93 163.94,-18.83 166.19,-25.46"/>
</a>
</g>
</g>
<!-- Node3 -->
<g id="Node000003" class="node">
<title>Node3</title>
<g id="a_Node000003"><a xlink:href="a01955.html#a0844807fe9679a9a5fbf1bfc9dd78dc6" target="_top" xlink:title=" ">
<polygon fill="white" stroke="#666666" points="399.75,-129.5 299.75,-129.5 299.75,-111 399.75,-111 399.75,-129.5"/>
<text text-anchor="middle" x="349.75" y="-116" font-family="Helvetica,sans-Serif" font-size="10.00">system_home_path</text>
</a>
</g>
</g>
<!-- Node2&#45;&gt;Node3 -->
<g id="edge2_Node000002_Node000003" class="edge">
<title>Node2&#45;&gt;Node3</title>
<g id="a_edge2_Node000002_Node000003"><a xlink:title=" ">
<path fill="none" stroke="#63b8ff" d="M263.99,-120.25C272.02,-120.25 280.31,-120.25 288.41,-120.25"/>
<polygon fill="#63b8ff" stroke="#63b8ff" points="288.3,-123.75 298.3,-120.25 288.3,-116.75 288.3,-123.75"/>
</a>
</g>
</g>
<!-- Node6 -->
<g id="Node000006" class="node">
<title>Node6</title>
<g id="a_Node000006"><a xlink:href="a01952.html#a336fa8eefc3d744aa7248d6786cfee03" target="_top" xlink:title=" ">
<polygon fill="white" stroke="#666666" points="399.75,-55.5 299.75,-55.5 299.75,-37 399.75,-37 399.75,-55.5"/>
<text text-anchor="middle" x="349.75" y="-42" font-family="Helvetica,sans-Serif" font-size="10.00">utils_config_get_int</text>
</a>
</g>
</g>
<!-- Node5&#45;&gt;Node6 -->
<g id="edge5_Node000005_Node000006" class="edge">
<title>Node5&#45;&gt;Node6</title>
<g id="a_edge5_Node000005_Node000006"><a xlink:title=" ">
<path fill="none" stroke="#63b8ff" d="M260.34,-46.25C269.59,-46.25 279.26,-46.25 288.67,-46.25"/>
<polygon fill="#63b8ff" stroke="#63b8ff" points="288.57,-49.75 298.57,-46.25 288.57,-42.75 288.57,-49.75"/>
</a>
</g>
</g>
<!-- Node7 -->
<g id="Node000007" class="node">
<title>Node7</title>
<g id="a_Node000007"><a xlink:href="a01952.html#a1a28ba7c7791236d03b1fa9f81aa6a71" target="_top" xlink:title=" ">
<polygon fill="white" stroke="#666666" points="543.25,-55.5 435.75,-55.5 435.75,-37 543.25,-37 543.25,-55.5"/>
<text text-anchor="middle" x="489.5" y="-42" font-family="Helvetica,sans-Serif" font-size="10.00">utils_config_get_long</text>
</a>
</g>
</g>
<!-- Node6&#45;&gt;Node7 -->
<g id="edge6_Node000006_Node000007" class="edge">
<title>Node6&#45;&gt;Node7</title>
<g id="a_edge6_Node000006_Node000007"><a xlink:title=" ">
<path fill="none" stroke="#63b8ff" d="M400.09,-46.25C407.95,-46.25 416.17,-46.25 424.31,-46.25"/>
<polygon fill="#63b8ff" stroke="#63b8ff" points="424.31,-49.75 434.31,-46.25 424.31,-42.75 424.31,-49.75"/>
</a>
</g>
</g>
<!-- Node8 -->
<g id="Node000008" class="node">
<title>Node8</title>
<g id="a_Node000008"><a xlink:href="a01952.html#a0738274ac3fd171eda6bfb42492bc0d7" target="_top" xlink:title=" ">
<polygon fill="white" stroke="#666666" points="837.38,-74.5 731.38,-74.5 731.38,-56 837.38,-56 837.38,-74.5"/>
<text text-anchor="middle" x="784.38" y="-61" font-family="Helvetica,sans-Serif" font-size="10.00">_utils_config_get_str</text>
</a>
</g>
</g>
<!-- Node7&#45;&gt;Node8 -->
<g id="edge7_Node000007_Node000008" class="edge">
<title>Node7&#45;&gt;Node8</title>
<g id="a_edge7_Node000007_Node000008"><a xlink:title=" ">
<path fill="none" stroke="#63b8ff" d="M543.54,-49.69C593.25,-52.92 667.6,-57.74 720.32,-61.16"/>
<polygon fill="#63b8ff" stroke="#63b8ff" points="720.02,-64.71 730.22,-61.87 720.47,-57.73 720.02,-64.71"/>
</a>
</g>
</g>
<!-- Node13 -->
<g id="Node000013" class="node">
<title>Node13</title>
<g id="a_Node000013"><a xlink:href="a01952.html#a88091e179416d4beec1b5681cfb68742" target="_top" xlink:title=" ">
<polygon fill="white" stroke="#666666" points="694.25,-37.5 579.25,-37.5 579.25,-19 694.25,-19 694.25,-37.5"/>
<text text-anchor="middle" x="636.75" y="-24" font-family="Helvetica,sans-Serif" font-size="10.00">utils_config_write_long</text>
</a>
</g>
</g>
<!-- Node7&#45;&gt;Node13 -->
<g id="edge13_Node000007_Node000013" class="edge">
<title>Node7&#45;&gt;Node13</title>
<g id="a_edge13_Node000007_Node000013"><a xlink:title=" ">
<path fill="none" stroke="#63b8ff" d="M543.35,-39.7C551.36,-38.71 559.71,-37.67 567.99,-36.65"/>
<polygon fill="#63b8ff" stroke="#63b8ff" points="568.28,-40.01 577.77,-35.31 567.42,-33.07 568.28,-40.01"/>
</a>
</g>
</g>
<!-- Node9 -->
<g id="Node000009" class="node">
<title>Node9</title>
<g id="a_Node000009"><a xlink:href="a01952.html#a8b687fb4c464903e23504eea3ddc3873" target="_top" xlink:title=" ">
<polygon fill="white" stroke="#666666" points="928,-74.5 874.5,-74.5 874.5,-56 928,-56 928,-74.5"/>
<text text-anchor="middle" x="901.25" y="-61" font-family="Helvetica,sans-Serif" font-size="10.00">conf_get</text>
</a>
</g>
</g>
<!-- Node8&#45;&gt;Node9 -->
<g id="edge8_Node000008_Node000009" class="edge">
<title>Node8&#45;&gt;Node9</title>
<g id="a_edge8_Node000008_Node000009"><a xlink:title=" ">
<path fill="none" stroke="#63b8ff" d="M837.77,-65.25C846.38,-65.25 855.14,-65.25 863.27,-65.25"/>
<polygon fill="#63b8ff" stroke="#63b8ff" points="863.26,-68.75 873.26,-65.25 863.26,-61.75 863.26,-68.75"/>
</a>
</g>
</g>
<!-- Node10 -->
<g id="Node000010" class="node">
<title>Node10</title>
<g id="a_Node000010"><a xlink:href="a01955.html#acde493d3889d6f207d1e122cf4bb1b8c" target="_top" xlink:title=" ">
<polygon fill="white" stroke="#666666" points="1204.5,-74.5 1118.75,-74.5 1118.75,-56 1204.5,-56 1204.5,-74.5"/>
<text text-anchor="middle" x="1161.62" y="-61" font-family="Helvetica,sans-Serif" font-size="10.00">system_env_var</text>
</a>
</g>
</g>
<!-- Node9&#45;&gt;Node10 -->
<g id="edge9_Node000009_Node000010" class="edge">
<title>Node9&#45;&gt;Node10</title>
<g id="a_edge9_Node000009_Node000010"><a xlink:title=" ">
<path fill="none" stroke="#63b8ff" d="M928.33,-74.63C939.21,-78.08 952.06,-81.55 964,-83.25 1016.25,-90.71 1030.31,-89.23 1082.75,-83.25 1093.61,-82.01 1105.15,-79.83 1115.94,-77.41"/>
<polygon fill="#63b8ff" stroke="#63b8ff" points="1116.49,-80.64 1125.42,-74.93 1114.88,-73.82 1116.49,-80.64"/>
</a>
</g>
</g>
<!-- Node11 -->
<g id="Node000011" class="node">
<title>Node11</title>
<g id="a_Node000011"><a xlink:href="a01955.html#a86c3bfbf6daaf8172e131aa23dc7393c" target="_top" xlink:title=" ">
<polygon fill="white" stroke="#666666" points="1067,-74.5 979.75,-74.5 979.75,-56 1067,-56 1067,-74.5"/>
<text text-anchor="middle" x="1023.38" y="-61" font-family="Helvetica,sans-Serif" font-size="10.00">system_file_size</text>
</a>
</g>
</g>
<!-- Node9&#45;&gt;Node11 -->
<g id="edge10_Node000009_Node000011" class="edge">
<title>Node9&#45;&gt;Node11</title>
<g id="a_edge10_Node000009_Node000011"><a xlink:title=" ">
<path fill="none" stroke="#63b8ff" d="M928.32,-65.25C940.19,-65.25 954.71,-65.25 968.76,-65.25"/>
<polygon fill="#63b8ff" stroke="#63b8ff" points="968.36,-68.75 978.36,-65.25 968.36,-61.75 968.36,-68.75"/>
</a>
</g>
</g>
<!-- Node12 -->
<g id="Node000012" class="node">
<title>Node12</title>
<g id="a_Node000012"><a xlink:href="a01952.html#a17713c8e9b90065e23b0ec1a225f79ab" target="_top" xlink:title=" ">
<polygon fill="white" stroke="#666666" points="1082.75,-37.5 964,-37.5 964,-19 1082.75,-19 1082.75,-37.5"/>
<text text-anchor="middle" x="1023.38" y="-24" font-family="Helvetica,sans-Serif" font-size="10.00">utils_config_get_source</text>
</a>
</g>
</g>
<!-- Node9&#45;&gt;Node12 -->
<g id="edge11_Node000009_Node000012" class="edge">
<title>Node9&#45;&gt;Node12</title>
<g id="a_edge11_Node000009_Node000012"><a xlink:title=" ">
<path fill="none" stroke="#63b8ff" d="M928.32,-57.22C943.52,-52.54 963.05,-46.52 980.37,-41.19"/>
<polygon fill="#63b8ff" stroke="#63b8ff" points="981.28,-44.26 989.81,-37.97 979.22,-37.57 981.28,-44.26"/>
</a>
</g>
</g>
<!-- Node12&#45;&gt;Node10 -->
<g id="edge12_Node000012_Node000010" class="edge">
<title>Node12&#45;&gt;Node10</title>
<g id="a_edge12_Node000012_Node000010"><a xlink:title=" ">
<path fill="none" stroke="#63b8ff" d="M1060.17,-37.97C1076.84,-42.5 1096.86,-47.93 1114.63,-52.76"/>
<polygon fill="#63b8ff" stroke="#63b8ff" points="1113.5,-56.35 1124.07,-55.59 1115.33,-49.6 1113.5,-56.35"/>
</a>
</g>
</g>
<!-- Node14 -->
<g id="Node000014" class="node">
<title>Node14</title>
<g id="a_Node000014"><a xlink:href="a01952.html#a4b9cd8f5d0c205ac6c1fd30f77cbf539" target="_top" xlink:title=" ">
<polygon fill="white" stroke="#666666" points="838.5,-37.5 730.25,-37.5 730.25,-19 838.5,-19 838.5,-37.5"/>
<text text-anchor="middle" x="784.38" y="-24" font-family="Helvetica,sans-Serif" font-size="10.00">utils_config_write_str</text>
</a>
</g>
</g>
<!-- Node13&#45;&gt;Node14 -->
<g id="edge14_Node000013_Node000014" class="edge">
<title>Node13&#45;&gt;Node14</title>
<g id="a_edge14_Node000013_Node000014"><a xlink:title=" ">
<path fill="none" stroke="#63b8ff" d="M694.47,-28.25C702.49,-28.25 710.78,-28.25 718.92,-28.25"/>
<polygon fill="#63b8ff" stroke="#63b8ff" points="718.91,-31.75 728.91,-28.25 718.91,-24.75 718.91,-31.75"/>
</a>
</g>
</g>
<!-- Node14&#45;&gt;Node9 -->
<g id="edge15_Node000014_Node000009" class="edge">
<title>Node14&#45;&gt;Node9</title>
<g id="a_edge15_Node000014_Node000009"><a xlink:title=" ">
<path fill="none" stroke="#63b8ff" d="M815.56,-37.97C830.36,-42.74 848.3,-48.52 863.85,-53.53"/>
<polygon fill="#63b8ff" stroke="#63b8ff" points="862.58,-57.12 873.17,-56.85 864.72,-50.45 862.58,-57.12"/>
</a>
</g>
</g>
<!-- Node15 -->
<g id="Node000015" class="node">
<title>Node15</title>
<g id="a_Node000015"><a xlink:href="a01952.html#ab87e9691e65d65348749f8dc70f24602" target="_top" xlink:title=" ">
<polygon fill="white" stroke="#666666" points="928,-37.5 874.5,-37.5 874.5,-19 928,-19 928,-37.5"/>
<text text-anchor="middle" x="901.25" y="-24" font-family="Helvetica,sans-Serif" font-size="10.00">conf_set</text>
</a>
</g>
</g>
<!-- Node14&#45;&gt;Node15 -->
<g id="edge16_Node000014_Node000015" class="edge">
<title>Node14&#45;&gt;Node15</title>
<g id="a_edge16_Node000014_Node000015"><a xlink:title=" ">
<path fill="none" stroke="#63b8ff" d="M838.78,-28.25C847.04,-28.25 855.42,-28.25 863.22,-28.25"/>
<polygon fill="#63b8ff" stroke="#63b8ff" points="863.16,-31.75 873.16,-28.25 863.16,-24.75 863.16,-31.75"/>
</a>
</g>
</g>
<!-- Node15&#45;&gt;Node12 -->
<g id="edge17_Node000015_Node000012" class="edge">
<title>Node15&#45;&gt;Node12</title>
<g id="a_edge17_Node000015_Node000012"><a xlink:title=" ">
<path fill="none" stroke="#63b8ff" d="M928.32,-28.25C935.77,-28.25 944.27,-28.25 953.04,-28.25"/>
<polygon fill="#63b8ff" stroke="#63b8ff" points="952.82,-31.75 962.82,-28.25 952.82,-24.75 952.82,-31.75"/>
</a>
</g>
</g>
<!-- Node17 -->
<g id="Node000017" class="node">
<title>Node17</title>
<g id="a_Node000017"><a xlink:href="a01946.html#a63f2791c9b5c8e2fa15967cfafb7ccbb" target="_top" xlink:title=" ">
<polygon fill="white" stroke="#666666" points="397.88,-18.5 301.62,-18.5 301.62,0 397.88,0 397.88,-18.5"/>
<text text-anchor="middle" x="349.75" y="-5" font-family="Helvetica,sans-Serif" font-size="10.00">utils_list_node_init</text>
</a>
</g>
</g>
<!-- Node16&#45;&gt;Node17 -->
<g id="edge19_Node000016_Node000017" class="edge">
<title>Node16&#45;&gt;Node17</title>
<g id="a_edge19_Node000016_Node000017"><a xlink:title=" ">
<path fill="none" stroke="#63b8ff" d="M241.5,-9.25C256.2,-9.25 273.78,-9.25 290.42,-9.25"/>
<polygon fill="#63b8ff" stroke="#63b8ff" points="290.18,-12.75 300.18,-9.25 290.18,-5.75 290.18,-12.75"/>
</a>
</g>
</g>
</g>
</svg>
