<?xml version="1.0" encoding="UTF-8" standalone="no"?>
<!DOCTYPE svg PUBLIC "-//W3C//DTD SVG 1.1//EN"
 "http://www.w3.org/Graphics/SVG/1.1/DTD/svg11.dtd">
<!-- Generated by graphviz version 8.0.5 (0)
 -->
<!-- Title: async.c Pages: 1 -->
<svg width="285pt" height="299pt"
 viewBox="0.00 0.00 285.12 299.00" xmlns="http://www.w3.org/2000/svg" xmlns:xlink="http://www.w3.org/1999/xlink">
<g id="graph0" class="graph" transform="scale(1 1) rotate(0) translate(4 295)">
<title>async.c</title>
<!-- Node1 -->
<g id="Node000001" class="node">
<title>Node1</title>
<g id="a_Node000001"><a xlink:title=" ">
<polygon fill="#999999" stroke="#666666" points="218.12,-291 168.38,-291 168.38,-272.5 218.12,-272.5 218.12,-291"/>
<text text-anchor="middle" x="193.25" y="-277.5" font-family="Helvetica,sans-Serif" font-size="10.00">async.c</text>
</a>
</g>
</g>
<!-- Node2 -->
<g id="Node000002" class="node">
<title>Node2</title>
<g id="a_Node000002"><a xlink:href="a02361.html" target="_top" xlink:title=" ">
<polygon fill="white" stroke="#666666" points="218.12,-236.5 168.38,-236.5 168.38,-218 218.12,-218 218.12,-236.5"/>
<text text-anchor="middle" x="193.25" y="-223" font-family="Helvetica,sans-Serif" font-size="10.00">async.h</text>
</a>
</g>
</g>
<!-- Node1&#45;&gt;Node2 -->
<g id="edge1_Node000001_Node000002" class="edge">
<title>Node1&#45;&gt;Node2</title>
<g id="a_edge1_Node000001_Node000002"><a xlink:title=" ">
<path fill="none" stroke="#63b8ff" d="M193.25,-272.08C193.25,-265.43 193.25,-255.99 193.25,-247.58"/>
<polygon fill="#63b8ff" stroke="#63b8ff" points="196.75,-247.76 193.25,-237.76 189.75,-247.76 196.75,-247.76"/>
</a>
</g>
</g>
<!-- Node3 -->
<g id="Node000003" class="node">
<title>Node3</title>
<g id="a_Node000003"><a xlink:href="a01403.html" target="_top" xlink:title=" ">
<polygon fill="white" stroke="#666666" points="191.38,-182 95.12,-182 95.12,-163.5 191.38,-163.5 191.38,-182"/>
<text text-anchor="middle" x="143.25" y="-168.5" font-family="Helvetica,sans-Serif" font-size="10.00">core/arax_object.h</text>
</a>
</g>
</g>
<!-- Node2&#45;&gt;Node3 -->
<g id="edge2_Node000002_Node000003" class="edge">
<title>Node2&#45;&gt;Node3</title>
<g id="a_edge2_Node000002_Node000003"><a xlink:title=" ">
<path fill="none" stroke="#63b8ff" d="M184.99,-217.58C177.93,-210.17 167.57,-199.28 158.94,-190.22"/>
<polygon fill="#63b8ff" stroke="#63b8ff" points="161.78,-188.09 152.35,-183.26 156.71,-192.91 161.78,-188.09"/>
</a>
</g>
</g>
<!-- Node11 -->
<g id="Node000011" class="node">
<title>Node11</title>
<g id="a_Node000011"><a xlink:href="a01424.html" target="_top" xlink:title=" ">
<polygon fill="white" stroke="#666666" points="277.12,-182 209.38,-182 209.38,-163.5 277.12,-163.5 277.12,-182"/>
<text text-anchor="middle" x="243.25" y="-168.5" font-family="Helvetica,sans-Serif" font-size="10.00">async_api.h</text>
</a>
</g>
</g>
<!-- Node2&#45;&gt;Node11 -->
<g id="edge11_Node000002_Node000011" class="edge">
<title>Node2&#45;&gt;Node11</title>
<g id="a_edge11_Node000002_Node000011"><a xlink:title=" ">
<path fill="none" stroke="#63b8ff" d="M201.51,-217.58C208.57,-210.17 218.93,-199.28 227.56,-190.22"/>
<polygon fill="#63b8ff" stroke="#63b8ff" points="229.79,-192.91 234.15,-183.26 224.72,-188.09 229.79,-192.91"/>
</a>
</g>
</g>
<!-- Node4 -->
<g id="Node000004" class="node">
<title>Node4</title>
<g id="a_Node000004"><a xlink:href="a01376.html" target="_top" xlink:title=" ">
<polygon fill="white" stroke="#666666" points="86.88,-127.5 29.62,-127.5 29.62,-109 86.88,-109 86.88,-127.5"/>
<text text-anchor="middle" x="58.25" y="-114" font-family="Helvetica,sans-Serif" font-size="10.00">utils/list.h</text>
</a>
</g>
</g>
<!-- Node3&#45;&gt;Node4 -->
<g id="edge3_Node000003_Node000004" class="edge">
<title>Node3&#45;&gt;Node4</title>
<g id="a_edge3_Node000003_Node000004"><a xlink:title=" ">
<path fill="none" stroke="#63b8ff" d="M129.21,-163.08C116.29,-155.1 96.88,-143.11 81.62,-133.69"/>
<polygon fill="#63b8ff" stroke="#63b8ff" points="83.65,-130.21 73.31,-127.93 79.98,-136.16 83.65,-130.21"/>
</a>
</g>
</g>
<!-- Node7 -->
<g id="Node000007" class="node">
<title>Node7</title>
<g id="a_Node000007"><a xlink:href="a01382.html" target="_top" xlink:title=" ">
<polygon fill="white" stroke="#666666" points="185.88,-127.5 104.62,-127.5 104.62,-109 185.88,-109 185.88,-127.5"/>
<text text-anchor="middle" x="145.25" y="-114" font-family="Helvetica,sans-Serif" font-size="10.00">utils/spinlock.h</text>
</a>
</g>
</g>
<!-- Node3&#45;&gt;Node7 -->
<g id="edge6_Node000003_Node000007" class="edge">
<title>Node3&#45;&gt;Node7</title>
<g id="a_edge6_Node000003_Node000007"><a xlink:title=" ">
<path fill="none" stroke="#63b8ff" d="M143.58,-163.08C143.83,-156.43 144.19,-146.99 144.51,-138.58"/>
<polygon fill="#63b8ff" stroke="#63b8ff" points="148.04,-138.88 144.93,-128.76 141.05,-138.62 148.04,-138.88"/>
</a>
</g>
</g>
<!-- Node10 -->
<g id="Node000010" class="node">
<title>Node10</title>
<g id="a_Node000010"><a xlink:title=" ">
<polygon fill="#e0e0e0" stroke="#999999" points="274.38,-127.5 208.12,-127.5 208.12,-109 274.38,-109 274.38,-127.5"/>
<text text-anchor="middle" x="241.25" y="-114" font-family="Helvetica,sans-Serif" font-size="10.00">arch/alloc.h</text>
</a>
</g>
</g>
<!-- Node3&#45;&gt;Node10 -->
<g id="edge10_Node000003_Node000010" class="edge">
<title>Node3&#45;&gt;Node10</title>
<g id="a_edge10_Node000003_Node000010"><a xlink:title=" ">
<path fill="none" stroke="#63b8ff" d="M159.43,-163.08C174.75,-154.87 198,-142.42 215.8,-132.89"/>
<polygon fill="#63b8ff" stroke="#63b8ff" points="216.88,-135.74 224.04,-127.93 213.58,-129.57 216.88,-135.74"/>
</a>
</g>
</g>
<!-- Node5 -->
<g id="Node000005" class="node">
<title>Node5</title>
<g id="a_Node000005"><a xlink:title=" ">
<polygon fill="#e0e0e0" stroke="#999999" points="50.5,-73 0,-73 0,-54.5 50.5,-54.5 50.5,-73"/>
<text text-anchor="middle" x="25.25" y="-59.5" font-family="Helvetica,sans-Serif" font-size="10.00">stddef.h</text>
</a>
</g>
</g>
<!-- Node4&#45;&gt;Node5 -->
<g id="edge4_Node000004_Node000005" class="edge">
<title>Node4&#45;&gt;Node5</title>
<g id="a_edge4_Node000004_Node000005"><a xlink:title=" ">
<path fill="none" stroke="#63b8ff" d="M52.8,-108.58C48.33,-101.47 41.86,-91.18 36.31,-82.35"/>
<polygon fill="#63b8ff" stroke="#63b8ff" points="38.88,-80.86 30.6,-74.26 32.96,-84.59 38.88,-80.86"/>
</a>
</g>
</g>
<!-- Node6 -->
<g id="Node000006" class="node">
<title>Node6</title>
<g id="a_Node000006"><a xlink:title=" ">
<polygon fill="#e0e0e0" stroke="#999999" points="116,-73 68.5,-73 68.5,-54.5 116,-54.5 116,-73"/>
<text text-anchor="middle" x="92.25" y="-59.5" font-family="Helvetica,sans-Serif" font-size="10.00">stdint.h</text>
</a>
</g>
</g>
<!-- Node4&#45;&gt;Node6 -->
<g id="edge5_Node000004_Node000006" class="edge">
<title>Node4&#45;&gt;Node6</title>
<g id="a_edge5_Node000004_Node000006"><a xlink:title=" ">
<path fill="none" stroke="#63b8ff" d="M63.86,-108.58C68.47,-101.47 75.14,-91.18 80.85,-82.35"/>
<polygon fill="#63b8ff" stroke="#63b8ff" points="84.24,-84.55 86.74,-74.26 78.37,-80.75 84.24,-84.55"/>
</a>
</g>
</g>
<!-- Node7&#45;&gt;Node6 -->
<g id="edge7_Node000007_Node000006" class="edge">
<title>Node7&#45;&gt;Node6</title>
<g id="a_edge7_Node000007_Node000006"><a xlink:title=" ">
<path fill="none" stroke="#63b8ff" d="M136.5,-108.58C128.93,-101.09 117.8,-90.06 108.59,-80.94"/>
<polygon fill="#63b8ff" stroke="#63b8ff" points="111.41,-78.81 101.84,-74.26 106.48,-83.78 111.41,-78.81"/>
</a>
</g>
</g>
<!-- Node8 -->
<g id="Node000008" class="node">
<title>Node8</title>
<g id="a_Node000008"><a xlink:href="a01361.html" target="_top" xlink:title=" ">
<polygon fill="white" stroke="#666666" points="230.75,-73 133.75,-73 133.75,-54.5 230.75,-54.5 230.75,-73"/>
<text text-anchor="middle" x="182.25" y="-59.5" font-family="Helvetica,sans-Serif" font-size="10.00">utils/arax_assert.h</text>
</a>
</g>
</g>
<!-- Node7&#45;&gt;Node8 -->
<g id="edge8_Node000007_Node000008" class="edge">
<title>Node7&#45;&gt;Node8</title>
<g id="a_edge8_Node000007_Node000008"><a xlink:title=" ">
<path fill="none" stroke="#63b8ff" d="M151.36,-108.58C156.42,-101.39 163.78,-90.95 170.05,-82.07"/>
<polygon fill="#63b8ff" stroke="#63b8ff" points="173.35,-84.45 176.25,-74.26 167.63,-80.42 173.35,-84.45"/>
</a>
</g>
</g>
<!-- Node9 -->
<g id="Node000009" class="node">
<title>Node9</title>
<g id="a_Node000009"><a xlink:href="a01370.html" target="_top" xlink:title=" ">
<polygon fill="white" stroke="#666666" points="210.12,-18.5 154.38,-18.5 154.38,0 210.12,0 210.12,-18.5"/>
<text text-anchor="middle" x="182.25" y="-5" font-family="Helvetica,sans-Serif" font-size="10.00">compat.h</text>
</a>
</g>
</g>
<!-- Node8&#45;&gt;Node9 -->
<g id="edge9_Node000008_Node000009" class="edge">
<title>Node8&#45;&gt;Node9</title>
<g id="a_edge9_Node000008_Node000009"><a xlink:title=" ">
<path fill="none" stroke="#63b8ff" d="M182.25,-54.08C182.25,-47.43 182.25,-37.99 182.25,-29.58"/>
<polygon fill="#63b8ff" stroke="#63b8ff" points="185.75,-29.76 182.25,-19.76 178.75,-29.76 185.75,-29.76"/>
</a>
</g>
</g>
<!-- Node11&#45;&gt;Node10 -->
<g id="edge12_Node000011_Node000010" class="edge">
<title>Node11&#45;&gt;Node10</title>
<g id="a_edge12_Node000011_Node000010"><a xlink:title=" ">
<path fill="none" stroke="#63b8ff" d="M242.92,-163.08C242.67,-156.43 242.31,-146.99 241.99,-138.58"/>
<polygon fill="#63b8ff" stroke="#63b8ff" points="245.45,-138.62 241.57,-128.76 238.46,-138.88 245.45,-138.62"/>
</a>
</g>
</g>
</g>
</svg>
