<?xml version="1.0" encoding="UTF-8" standalone="no"?>
<!DOCTYPE svg PUBLIC "-//W3C//DTD SVG 1.1//EN"
 "http://www.w3.org/Graphics/SVG/1.1/DTD/svg11.dtd">
<!-- Generated by graphviz version 8.0.5 (0)
 -->
<!-- Title: async_meta_init_always Pages: 1 -->
<svg width="808pt" height="230pt"
 viewBox="0.00 0.00 807.50 229.50" xmlns="http://www.w3.org/2000/svg" xmlns:xlink="http://www.w3.org/1999/xlink">
<g id="graph0" class="graph" transform="scale(1 1) rotate(0) translate(4 225.5)">
<title>async_meta_init_always</title>
<!-- Node1 -->
<g id="Node000001" class="node">
<title>Node1</title>
<g id="a_Node000001"><a xlink:title=" ">
<polygon fill="#999999" stroke="#666666" points="121,-100.5 0,-100.5 0,-82 121,-82 121,-100.5"/>
<text text-anchor="middle" x="60.5" y="-87" font-family="Helvetica,sans-Serif" font-size="10.00">async_meta_init_always</text>
</a>
</g>
</g>
<!-- Node2 -->
<g id="Node000002" class="node">
<title>Node2</title>
<g id="a_Node000002"><a xlink:href="a02346.html#ab2195e0b081f467f8e058d1406bd4fc7" target="_top" xlink:title=" ">
<polygon fill="white" stroke="#666666" points="251.38,-174.5 177.62,-174.5 177.62,-156 251.38,-156 251.38,-174.5"/>
<text text-anchor="middle" x="214.5" y="-161" font-family="Helvetica,sans-Serif" font-size="10.00">async_thread</text>
</a>
</g>
</g>
<!-- Node1&#45;&gt;Node2 -->
<g id="edge1_Node000001_Node000002" class="edge">
<title>Node1&#45;&gt;Node2</title>
<g id="a_edge1_Node000001_Node000002"><a xlink:title=" ">
<path fill="none" stroke="#63b8ff" d="M81.37,-100.92C107.54,-113.67 153.78,-136.18 184.03,-150.9"/>
<polygon fill="#63b8ff" stroke="#63b8ff" points="182.1,-154.34 192.62,-155.57 185.16,-148.05 182.1,-154.34"/>
</a>
</g>
</g>
<!-- Node6 -->
<g id="Node000006" class="node">
<title>Node6</title>
<g id="a_Node000006"><a xlink:href="a01952.html#aff9af0356940583dfe3045e693cc8a45" target="_top" xlink:title=" ">
<polygon fill="white" stroke="#666666" points="272,-119.5 157,-119.5 157,-101 272,-101 272,-119.5"/>
<text text-anchor="middle" x="214.5" y="-106" font-family="Helvetica,sans-Serif" font-size="10.00">utils_config_alloc_path</text>
</a>
</g>
</g>
<!-- Node1&#45;&gt;Node6 -->
<g id="edge5_Node000001_Node000006" class="edge">
<title>Node1&#45;&gt;Node6</title>
<g id="a_edge5_Node000001_Node000006"><a xlink:title=" ">
<path fill="none" stroke="#63b8ff" d="M121.14,-98.7C129.23,-99.72 137.59,-100.76 145.82,-101.79"/>
<polygon fill="#63b8ff" stroke="#63b8ff" points="145.16,-105.36 155.52,-103.13 146.03,-98.41 145.16,-105.36"/>
</a>
</g>
</g>
<!-- Node8 -->
<g id="Node000008" class="node">
<title>Node8</title>
<g id="a_Node000008"><a xlink:href="a01952.html#a84f3886cdcb91a28bf13b07aae8b2285" target="_top" xlink:title=" ">
<polygon fill="white" stroke="#666666" points="270.12,-82.5 158.88,-82.5 158.88,-64 270.12,-64 270.12,-82.5"/>
<text text-anchor="middle" x="214.5" y="-69" font-family="Helvetica,sans-Serif" font-size="10.00">utils_config_free_path</text>
</a>
</g>
</g>
<!-- Node1&#45;&gt;Node8 -->
<g id="edge7_Node000001_Node000008" class="edge">
<title>Node1&#45;&gt;Node8</title>
<g id="a_edge7_Node000001_Node000008"><a xlink:title=" ">
<path fill="none" stroke="#63b8ff" d="M121.14,-84.19C129.89,-83.15 138.94,-82.08 147.81,-81.03"/>
<polygon fill="#63b8ff" stroke="#63b8ff" points="147.97,-84.42 157.49,-79.76 147.15,-77.46 147.97,-84.42"/>
</a>
</g>
</g>
<!-- Node9 -->
<g id="Node000009" class="node">
<title>Node9</title>
<g id="a_Node000009"><a xlink:href="a01952.html#a1e8deff7c038efae14d1cc98e4ab109f" target="_top" xlink:title=" ">
<polygon fill="white" stroke="#666666" points="264.88,-45.5 164.12,-45.5 164.12,-27 264.88,-27 264.88,-45.5"/>
<text text-anchor="middle" x="214.5" y="-32" font-family="Helvetica,sans-Serif" font-size="10.00">utils_config_get_str</text>
</a>
</g>
</g>
<!-- Node1&#45;&gt;Node9 -->
<g id="edge8_Node000001_Node000009" class="edge">
<title>Node1&#45;&gt;Node9</title>
<g id="a_edge8_Node000001_Node000009"><a xlink:title=" ">
<path fill="none" stroke="#63b8ff" d="M86.54,-81.53C105.75,-74.14 132.97,-63.82 157,-55.25 162.48,-53.3 168.28,-51.28 174,-49.33"/>
<polygon fill="#63b8ff" stroke="#63b8ff" points="174.76,-52.43 183.11,-45.91 172.51,-45.8 174.76,-52.43"/>
</a>
</g>
</g>
<!-- Node3 -->
<g id="Node000003" class="node">
<title>Node3</title>
<g id="a_Node000003"><a xlink:href="a02346.html#ae66ae81847153386c57918f4d91be8a7" target="_top" xlink:title=" ">
<polygon fill="white" stroke="#666666" points="433.5,-221.5 308,-221.5 308,-203 433.5,-203 433.5,-221.5"/>
<text text-anchor="middle" x="370.75" y="-208" font-family="Helvetica,sans-Serif" font-size="10.00">async_completion_check</text>
</a>
</g>
</g>
<!-- Node2&#45;&gt;Node3 -->
<g id="edge2_Node000002_Node000003" class="edge">
<title>Node2&#45;&gt;Node3</title>
<g id="a_edge2_Node000002_Node000003"><a xlink:title=" ">
<path fill="none" stroke="#63b8ff" d="M247.46,-174.99C270.62,-182.05 302.18,-191.66 327.44,-199.36"/>
<polygon fill="#63b8ff" stroke="#63b8ff" points="326.24,-202.96 336.83,-202.52 328.28,-196.26 326.24,-202.96"/>
</a>
</g>
</g>
<!-- Node4 -->
<g id="Node000004" class="node">
<title>Node4</title>
<g id="a_Node000004"><a xlink:href="a02346.html#a49083e8ceb4bfe7793ca1a5a799834d0" target="_top" xlink:title=" ">
<polygon fill="white" stroke="#666666" points="398.25,-184.5 343.25,-184.5 343.25,-166 398.25,-166 398.25,-184.5"/>
<text text-anchor="middle" x="370.75" y="-171" font-family="Helvetica,sans-Serif" font-size="10.00">getVmID</text>
</a>
</g>
</g>
<!-- Node2&#45;&gt;Node4 -->
<g id="edge3_Node000002_Node000004" class="edge">
<title>Node2&#45;&gt;Node4</title>
<g id="a_edge3_Node000002_Node000004"><a xlink:title=" ">
<path fill="none" stroke="#63b8ff" d="M251.66,-167.59C275.91,-169.17 307.77,-171.23 332.28,-172.82"/>
<polygon fill="#63b8ff" stroke="#63b8ff" points="331.77,-176.36 341.97,-173.51 332.22,-169.37 331.77,-176.36"/>
</a>
</g>
</g>
<!-- Node5 -->
<g id="Node000005" class="node">
<title>Node5</title>
<g id="a_Node000005"><a xlink:href="a01946.html#a0c85e5516222ab7e7fc354c614760ec5" target="_top" xlink:title=" ">
<polygon fill="white" stroke="#666666" points="405.75,-147.5 335.75,-147.5 335.75,-129 405.75,-129 405.75,-147.5"/>
<text text-anchor="middle" x="370.75" y="-134" font-family="Helvetica,sans-Serif" font-size="10.00">utils_list_del</text>
</a>
</g>
</g>
<!-- Node2&#45;&gt;Node5 -->
<g id="edge4_Node000002_Node000005" class="edge">
<title>Node2&#45;&gt;Node5</title>
<g id="a_edge4_Node000002_Node000005"><a xlink:title=" ">
<path fill="none" stroke="#63b8ff" d="M251.66,-158.92C273.5,-155.1 301.5,-150.2 324.75,-146.13"/>
<polygon fill="#63b8ff" stroke="#63b8ff" points="325.15,-149.43 334.4,-144.26 323.95,-142.54 325.15,-149.43"/>
</a>
</g>
</g>
<!-- Node7 -->
<g id="Node000007" class="node">
<title>Node7</title>
<g id="a_Node000007"><a xlink:href="a01955.html#a0844807fe9679a9a5fbf1bfc9dd78dc6" target="_top" xlink:title=" ">
<polygon fill="white" stroke="#666666" points="420.75,-110.5 320.75,-110.5 320.75,-92 420.75,-92 420.75,-110.5"/>
<text text-anchor="middle" x="370.75" y="-97" font-family="Helvetica,sans-Serif" font-size="10.00">system_home_path</text>
</a>
</g>
</g>
<!-- Node6&#45;&gt;Node7 -->
<g id="edge6_Node000006_Node000007" class="edge">
<title>Node6&#45;&gt;Node7</title>
<g id="a_edge6_Node000006_Node000007"><a xlink:title=" ">
<path fill="none" stroke="#63b8ff" d="M272.5,-106.92C284.52,-106.22 297.25,-105.48 309.39,-104.77"/>
<polygon fill="#63b8ff" stroke="#63b8ff" points="309.56,-108.21 319.34,-104.13 309.16,-101.22 309.56,-108.21"/>
</a>
</g>
</g>
<!-- Node10 -->
<g id="Node000010" class="node">
<title>Node10</title>
<g id="a_Node000010"><a xlink:href="a01952.html#a0738274ac3fd171eda6bfb42492bc0d7" target="_top" xlink:title=" ">
<polygon fill="white" stroke="#666666" points="423.75,-55.5 317.75,-55.5 317.75,-37 423.75,-37 423.75,-55.5"/>
<text text-anchor="middle" x="370.75" y="-42" font-family="Helvetica,sans-Serif" font-size="10.00">_utils_config_get_str</text>
</a>
</g>
</g>
<!-- Node9&#45;&gt;Node10 -->
<g id="edge9_Node000009_Node000010" class="edge">
<title>Node9&#45;&gt;Node10</title>
<g id="a_edge9_Node000009_Node000010"><a xlink:title=" ">
<path fill="none" stroke="#63b8ff" d="M265.15,-39.47C278.29,-40.32 292.65,-41.25 306.4,-42.14"/>
<polygon fill="#63b8ff" stroke="#63b8ff" points="306.06,-45.69 316.26,-42.85 306.51,-38.71 306.06,-45.69"/>
</a>
</g>
</g>
<!-- Node15 -->
<g id="Node000015" class="node">
<title>Node15</title>
<g id="a_Node000015"><a xlink:href="a01952.html#a4b9cd8f5d0c205ac6c1fd30f77cbf539" target="_top" xlink:title=" ">
<polygon fill="white" stroke="#666666" points="424.88,-18.5 316.62,-18.5 316.62,0 424.88,0 424.88,-18.5"/>
<text text-anchor="middle" x="370.75" y="-5" font-family="Helvetica,sans-Serif" font-size="10.00">utils_config_write_str</text>
</a>
</g>
</g>
<!-- Node9&#45;&gt;Node15 -->
<g id="edge15_Node000009_Node000015" class="edge">
<title>Node9&#45;&gt;Node15</title>
<g id="a_edge15_Node000009_Node000015"><a xlink:title=" ">
<path fill="none" stroke="#63b8ff" d="M265.15,-27.56C278.01,-25.31 292.04,-22.85 305.52,-20.49"/>
<polygon fill="#63b8ff" stroke="#63b8ff" points="305.94,-23.8 315.19,-18.62 304.74,-16.9 305.94,-23.8"/>
</a>
</g>
</g>
<!-- Node11 -->
<g id="Node000011" class="node">
<title>Node11</title>
<g id="a_Node000011"><a xlink:href="a01952.html#a8b687fb4c464903e23504eea3ddc3873" target="_top" xlink:title=" ">
<polygon fill="white" stroke="#666666" points="523,-55.5 469.5,-55.5 469.5,-37 523,-37 523,-55.5"/>
<text text-anchor="middle" x="496.25" y="-42" font-family="Helvetica,sans-Serif" font-size="10.00">conf_get</text>
</a>
</g>
</g>
<!-- Node10&#45;&gt;Node11 -->
<g id="edge10_Node000010_Node000011" class="edge">
<title>Node10&#45;&gt;Node11</title>
<g id="a_edge10_Node000010_Node000011"><a xlink:title=" ">
<path fill="none" stroke="#63b8ff" d="M424.13,-46.25C435.64,-46.25 447.6,-46.25 458.35,-46.25"/>
<polygon fill="#63b8ff" stroke="#63b8ff" points="458.05,-49.75 468.05,-46.25 458.05,-42.75 458.05,-49.75"/>
</a>
</g>
</g>
<!-- Node12 -->
<g id="Node000012" class="node">
<title>Node12</title>
<g id="a_Node000012"><a xlink:href="a01955.html#acde493d3889d6f207d1e122cf4bb1b8c" target="_top" xlink:title=" ">
<polygon fill="white" stroke="#666666" points="799.5,-55.5 713.75,-55.5 713.75,-37 799.5,-37 799.5,-55.5"/>
<text text-anchor="middle" x="756.62" y="-42" font-family="Helvetica,sans-Serif" font-size="10.00">system_env_var</text>
</a>
</g>
</g>
<!-- Node11&#45;&gt;Node12 -->
<g id="edge11_Node000011_Node000012" class="edge">
<title>Node11&#45;&gt;Node12</title>
<g id="a_edge11_Node000011_Node000012"><a xlink:title=" ">
<path fill="none" stroke="#63b8ff" d="M523.33,-55.63C534.21,-59.08 547.06,-62.55 559,-64.25 611.25,-71.71 625.31,-70.23 677.75,-64.25 688.61,-63.01 700.15,-60.83 710.94,-58.41"/>
<polygon fill="#63b8ff" stroke="#63b8ff" points="711.49,-61.64 720.42,-55.93 709.88,-54.82 711.49,-61.64"/>
</a>
</g>
</g>
<!-- Node13 -->
<g id="Node000013" class="node">
<title>Node13</title>
<g id="a_Node000013"><a xlink:href="a01955.html#a86c3bfbf6daaf8172e131aa23dc7393c" target="_top" xlink:title=" ">
<polygon fill="white" stroke="#666666" points="662,-55.5 574.75,-55.5 574.75,-37 662,-37 662,-55.5"/>
<text text-anchor="middle" x="618.38" y="-42" font-family="Helvetica,sans-Serif" font-size="10.00">system_file_size</text>
</a>
</g>
</g>
<!-- Node11&#45;&gt;Node13 -->
<g id="edge12_Node000011_Node000013" class="edge">
<title>Node11&#45;&gt;Node13</title>
<g id="a_edge12_Node000011_Node000013"><a xlink:title=" ">
<path fill="none" stroke="#63b8ff" d="M523.32,-46.25C535.19,-46.25 549.71,-46.25 563.76,-46.25"/>
<polygon fill="#63b8ff" stroke="#63b8ff" points="563.36,-49.75 573.36,-46.25 563.36,-42.75 563.36,-49.75"/>
</a>
</g>
</g>
<!-- Node14 -->
<g id="Node000014" class="node">
<title>Node14</title>
<g id="a_Node000014"><a xlink:href="a01952.html#a17713c8e9b90065e23b0ec1a225f79ab" target="_top" xlink:title=" ">
<polygon fill="white" stroke="#666666" points="677.75,-18.5 559,-18.5 559,0 677.75,0 677.75,-18.5"/>
<text text-anchor="middle" x="618.38" y="-5" font-family="Helvetica,sans-Serif" font-size="10.00">utils_config_get_source</text>
</a>
</g>
</g>
<!-- Node11&#45;&gt;Node14 -->
<g id="edge13_Node000011_Node000014" class="edge">
<title>Node11&#45;&gt;Node14</title>
<g id="a_edge13_Node000011_Node000014"><a xlink:title=" ">
<path fill="none" stroke="#63b8ff" d="M523.32,-38.22C538.52,-33.54 558.05,-27.52 575.37,-22.19"/>
<polygon fill="#63b8ff" stroke="#63b8ff" points="576.28,-25.26 584.81,-18.97 574.22,-18.57 576.28,-25.26"/>
</a>
</g>
</g>
<!-- Node14&#45;&gt;Node12 -->
<g id="edge14_Node000014_Node000012" class="edge">
<title>Node14&#45;&gt;Node12</title>
<g id="a_edge14_Node000014_Node000012"><a xlink:title=" ">
<path fill="none" stroke="#63b8ff" d="M655.17,-18.97C671.84,-23.5 691.86,-28.93 709.63,-33.76"/>
<polygon fill="#63b8ff" stroke="#63b8ff" points="708.5,-37.35 719.07,-36.59 710.33,-30.6 708.5,-37.35"/>
</a>
</g>
</g>
<!-- Node15&#45;&gt;Node11 -->
<g id="edge16_Node000015_Node000011" class="edge">
<title>Node15&#45;&gt;Node11</title>
<g id="a_edge16_Node000015_Node000011"><a xlink:title=" ">
<path fill="none" stroke="#63b8ff" d="M404.2,-18.97C421.01,-24.01 441.58,-30.17 458.92,-35.37"/>
<polygon fill="#63b8ff" stroke="#63b8ff" points="457.65,-38.94 468.24,-38.46 459.66,-32.23 457.65,-38.94"/>
</a>
</g>
</g>
<!-- Node16 -->
<g id="Node000016" class="node">
<title>Node16</title>
<g id="a_Node000016"><a xlink:href="a01952.html#ab87e9691e65d65348749f8dc70f24602" target="_top" xlink:title=" ">
<polygon fill="white" stroke="#666666" points="523,-18.5 469.5,-18.5 469.5,0 523,0 523,-18.5"/>
<text text-anchor="middle" x="496.25" y="-5" font-family="Helvetica,sans-Serif" font-size="10.00">conf_set</text>
</a>
</g>
</g>
<!-- Node15&#45;&gt;Node16 -->
<g id="edge17_Node000015_Node000016" class="edge">
<title>Node15&#45;&gt;Node16</title>
<g id="a_edge17_Node000015_Node000016"><a xlink:title=" ">
<path fill="none" stroke="#63b8ff" d="M425.2,-9.25C436.4,-9.25 447.98,-9.25 458.41,-9.25"/>
<polygon fill="#63b8ff" stroke="#63b8ff" points="458.21,-12.75 468.21,-9.25 458.21,-5.75 458.21,-12.75"/>
</a>
</g>
</g>
<!-- Node16&#45;&gt;Node14 -->
<g id="edge18_Node000016_Node000014" class="edge">
<title>Node16&#45;&gt;Node14</title>
<g id="a_edge18_Node000016_Node000014"><a xlink:title=" ">
<path fill="none" stroke="#63b8ff" d="M523.32,-9.25C530.77,-9.25 539.27,-9.25 548.04,-9.25"/>
<polygon fill="#63b8ff" stroke="#63b8ff" points="547.82,-12.75 557.82,-9.25 547.82,-5.75 547.82,-12.75"/>
</a>
</g>
</g>
</g>
</svg>
