<?xml version="1.0" encoding="UTF-8" standalone="no"?>
<!DOCTYPE svg PUBLIC "-//W3C//DTD SVG 1.1//EN"
 "http://www.w3.org/Graphics/SVG/1.1/DTD/svg11.dtd">
<!-- Generated by graphviz version 8.0.5 (0)
 -->
<!-- Title: src Pages: 1 -->
<svg width="237pt" height="206pt"
 viewBox="0.00 0.00 237.00 206.00" xmlns="http://www.w3.org/2000/svg" xmlns:xlink="http://www.w3.org/1999/xlink">
<g id="graph0" class="graph" transform="scale(1 1) rotate(0) translate(4 202)">
<title>src</title>
<g id="clust1" class="cluster">
<title>clusterdir_68267d1309a1af8e8297ef4c3efbcdba</title>
<g id="a_clust1"><a xlink:href="dir_68267d1309a1af8e8297ef4c3efbcdba.html" target="_top">
<polygon fill="#e5e5ef" stroke="#404040" stroke-width="2" points="8,-46.5 8,-190 221,-190 221,-46.5 8,-46.5"/>
</a>
</g>
</g>
<!-- dir_68267d1309a1af8e8297ef4c3efbcdba -->
<g id="node1" class="node">
<title>dir_68267d1309a1af8e8297ef4c3efbcdba</title>
<text text-anchor="middle" x="198" y="-168.5" font-family="Helvetica,sans-Serif" font-size="10.00">src</text>
</g>
<!-- dir_2e53991d0abfe4d26476f40debcf47e2 -->
<g id="node2" class="node">
<title>dir_2e53991d0abfe4d26476f40debcf47e2</title>
<g id="a_node2"><a xlink:href="dir_2e53991d0abfe4d26476f40debcf47e2.html" target="_top" xlink:title="alloc">
<polygon fill="#8585b5" stroke="#404040" points="165.12,-182 128.88,-182 128.88,-163.5 165.12,-163.5 165.12,-182"/>
<text text-anchor="middle" x="147" y="-168.5" font-family="Helvetica,sans-Serif" font-size="10.00">alloc</text>
</a>
</g>
</g>
<!-- dir_313caf1132e152dd9b58bea13a4052ca -->
<g id="node6" class="node">
<title>dir_313caf1132e152dd9b58bea13a4052ca</title>
<g id="a_node6"><a xlink:href="dir_313caf1132e152dd9b58bea13a4052ca.html" target="_top" xlink:title="utils">
<polygon fill="#8585b5" stroke="#404040" points="110,-127.5 76,-127.5 76,-109 110,-109 110,-127.5"/>
<text text-anchor="middle" x="93" y="-114" font-family="Helvetica,sans-Serif" font-size="10.00">utils</text>
</a>
</g>
</g>
<!-- dir_2e53991d0abfe4d26476f40debcf47e2&#45;&gt;dir_313caf1132e152dd9b58bea13a4052ca -->
<g id="edge1" class="edge">
<title>dir_2e53991d0abfe4d26476f40debcf47e2&#45;&gt;dir_313caf1132e152dd9b58bea13a4052ca</title>
<path fill="none" stroke="#63b8ff" d="M132.92,-163.08C123.78,-155.74 112.34,-145.01 103.89,-136"/>
<polygon fill="#63b8ff" stroke="#63b8ff" points="106.86,-133.94 97.62,-128.76 101.61,-138.57 106.86,-133.94"/>
<g id="a_edge1&#45;headlabel"><a xlink:href="dir_000000_000012.html" target="_top" xlink:title="2">
<text text-anchor="middle" x="110.37" y="-129.51" font-family="Helvetica,sans-Serif" font-size="10.00" fill="#63b8ff">2</text>
</a>
</g>
</g>
<!-- dir_d44c64559bbebec7f509842c48db8b23 -->
<g id="node7" class="node">
<title>dir_d44c64559bbebec7f509842c48db8b23</title>
<g id="a_node7"><a xlink:href="dir_d44c64559bbebec7f509842c48db8b23.html" target="_top" xlink:title="include">
<polygon fill="#e5e5ef" stroke="#404040" points="161.38,-18.5 114.62,-18.5 114.62,0 161.38,0 161.38,-18.5"/>
<text text-anchor="middle" x="138" y="-5" font-family="Helvetica,sans-Serif" font-size="10.00">include</text>
</a>
</g>
</g>
<!-- dir_2e53991d0abfe4d26476f40debcf47e2&#45;&gt;dir_d44c64559bbebec7f509842c48db8b23 -->
<g id="edge2" class="edge">
<title>dir_2e53991d0abfe4d26476f40debcf47e2&#45;&gt;dir_d44c64559bbebec7f509842c48db8b23</title>
<path fill="none" stroke="#63b8ff" d="M159.49,-163.24C169.87,-155.36 183.88,-142.59 190,-127.5 203.54,-94.14 206.66,-78.42 190,-46.5 185.18,-37.26 176.8,-29.89 168.17,-24.28"/>
<polygon fill="#63b8ff" stroke="#63b8ff" points="170.25,-20.86 159.85,-18.87 166.74,-26.92 170.25,-20.86"/>
<g id="a_edge2&#45;headlabel"><a xlink:href="dir_000000_000005.html" target="_top" xlink:title="2">
<text text-anchor="middle" x="173.79" y="-15.96" font-family="Helvetica,sans-Serif" font-size="10.00" fill="#63b8ff">2</text>
</a>
</g>
</g>
<!-- dir_70d5e250c66d001b18da37689179cade -->
<g id="node3" class="node">
<title>dir_70d5e250c66d001b18da37689179cade</title>
<g id="a_node3"><a xlink:href="dir_70d5e250c66d001b18da37689179cade.html" target="_top" xlink:title="arch">
<polygon fill="#8585b5" stroke="#404040" points="110.38,-182 75.62,-182 75.62,-163.5 110.38,-163.5 110.38,-182"/>
<text text-anchor="middle" x="93" y="-168.5" font-family="Helvetica,sans-Serif" font-size="10.00">arch</text>
</a>
</g>
</g>
<!-- dir_aebb8dcc11953d78e620bbef0b9e2183 -->
<g id="node5" class="node">
<title>dir_aebb8dcc11953d78e620bbef0b9e2183</title>
<g id="a_node5"><a xlink:href="dir_aebb8dcc11953d78e620bbef0b9e2183.html" target="_top" xlink:title="core">
<polygon fill="#8585b5" stroke="#404040" points="72.38,-73 37.62,-73 37.62,-54.5 72.38,-54.5 72.38,-73"/>
<text text-anchor="middle" x="55" y="-59.5" font-family="Helvetica,sans-Serif" font-size="10.00">core</text>
</a>
</g>
</g>
<!-- dir_70d5e250c66d001b18da37689179cade&#45;&gt;dir_aebb8dcc11953d78e620bbef0b9e2183 -->
<g id="edge4" class="edge">
<title>dir_70d5e250c66d001b18da37689179cade&#45;&gt;dir_aebb8dcc11953d78e620bbef0b9e2183</title>
<path fill="none" stroke="#63b8ff" d="M86.67,-163.05C80.7,-154.44 71.96,-140.68 67,-127.5 61.67,-113.34 58.61,-96.46 56.92,-83.77"/>
<polygon fill="#63b8ff" stroke="#63b8ff" points="60.31,-83.65 55.68,-74.12 53.36,-84.45 60.31,-83.65"/>
<g id="a_edge4&#45;headlabel"><a xlink:href="dir_000001_000003.html" target="_top" xlink:title="1">
<text text-anchor="middle" x="63.55" y="-81.64" font-family="Helvetica,sans-Serif" font-size="10.00" fill="#63b8ff">1</text>
</a>
</g>
</g>
<!-- dir_70d5e250c66d001b18da37689179cade&#45;&gt;dir_313caf1132e152dd9b58bea13a4052ca -->
<g id="edge5" class="edge">
<title>dir_70d5e250c66d001b18da37689179cade&#45;&gt;dir_313caf1132e152dd9b58bea13a4052ca</title>
<path fill="none" stroke="#63b8ff" d="M93,-163.08C93,-156.43 93,-146.99 93,-138.58"/>
<polygon fill="#63b8ff" stroke="#63b8ff" points="96.5,-138.76 93,-128.76 89.5,-138.76 96.5,-138.76"/>
<g id="a_edge5&#45;headlabel"><a xlink:href="dir_000001_000012.html" target="_top" xlink:title="3">
<text text-anchor="middle" x="99.34" y="-137.1" font-family="Helvetica,sans-Serif" font-size="10.00" fill="#63b8ff">3</text>
</a>
</g>
</g>
<!-- dir_70d5e250c66d001b18da37689179cade&#45;&gt;dir_d44c64559bbebec7f509842c48db8b23 -->
<g id="edge3" class="edge">
<title>dir_70d5e250c66d001b18da37689179cade&#45;&gt;dir_d44c64559bbebec7f509842c48db8b23</title>
<path fill="none" stroke="#63b8ff" d="M110.83,-163.96C124.88,-156.75 143.47,-144.56 152,-127.5 167.99,-95.52 155.7,-52.71 146.24,-28.65"/>
<polygon fill="#63b8ff" stroke="#63b8ff" points="149.18,-27.62 142.08,-19.76 142.72,-30.33 149.18,-27.62"/>
<g id="a_edge3&#45;headlabel"><a xlink:href="dir_000001_000005.html" target="_top" xlink:title="2">
<text text-anchor="middle" x="153.19" y="-24.58" font-family="Helvetica,sans-Serif" font-size="10.00" fill="#63b8ff">2</text>
</a>
</g>
</g>
<!-- dir_b60a79ed93f318a37dbc9781b4452c17 -->
<g id="node4" class="node">
<title>dir_b60a79ed93f318a37dbc9781b4452c17</title>
<g id="a_node4"><a xlink:href="dir_b60a79ed93f318a37dbc9781b4452c17.html" target="_top" xlink:title="async">
<polygon fill="#8585b5" stroke="#404040" points="57.75,-182 16.25,-182 16.25,-163.5 57.75,-163.5 57.75,-182"/>
<text text-anchor="middle" x="37" y="-168.5" font-family="Helvetica,sans-Serif" font-size="10.00">async</text>
</a>
</g>
</g>
<!-- dir_b60a79ed93f318a37dbc9781b4452c17&#45;&gt;dir_aebb8dcc11953d78e620bbef0b9e2183 -->
<g id="edge8" class="edge">
<title>dir_b60a79ed93f318a37dbc9781b4452c17&#45;&gt;dir_aebb8dcc11953d78e620bbef0b9e2183</title>
<path fill="none" stroke="#63b8ff" d="M38.41,-163.35C41.26,-146.4 47.77,-107.71 51.74,-84.15"/>
<polygon fill="#63b8ff" stroke="#63b8ff" points="55.34,-84.85 53.54,-74.4 48.43,-83.69 55.34,-84.85"/>
<g id="a_edge8&#45;headlabel"><a xlink:href="dir_000002_000003.html" target="_top" xlink:title="3">
<text text-anchor="middle" x="57.54" y="-83.61" font-family="Helvetica,sans-Serif" font-size="10.00" fill="#63b8ff">3</text>
</a>
</g>
</g>
<!-- dir_b60a79ed93f318a37dbc9781b4452c17&#45;&gt;dir_313caf1132e152dd9b58bea13a4052ca -->
<g id="edge7" class="edge">
<title>dir_b60a79ed93f318a37dbc9781b4452c17&#45;&gt;dir_313caf1132e152dd9b58bea13a4052ca</title>
<path fill="none" stroke="#63b8ff" d="M46.25,-163.08C54.32,-155.51 66.24,-144.33 76.03,-135.16"/>
<polygon fill="#63b8ff" stroke="#63b8ff" points="78.02,-138.15 82.92,-128.76 73.24,-133.04 78.02,-138.15"/>
<g id="a_edge7&#45;headlabel"><a xlink:href="dir_000002_000012.html" target="_top" xlink:title="2">
<text text-anchor="middle" x="78.34" y="-137.43" font-family="Helvetica,sans-Serif" font-size="10.00" fill="#63b8ff">2</text>
</a>
</g>
</g>
<!-- dir_b60a79ed93f318a37dbc9781b4452c17&#45;&gt;dir_d44c64559bbebec7f509842c48db8b23 -->
<g id="edge6" class="edge">
<title>dir_b60a79ed93f318a37dbc9781b4452c17&#45;&gt;dir_d44c64559bbebec7f509842c48db8b23</title>
<path fill="none" stroke="#63b8ff" d="M58.07,-166.18C77.12,-160 104.37,-148.06 119,-127.5 139.76,-98.32 141.1,-54.77 139.81,-29.78"/>
<polygon fill="#63b8ff" stroke="#63b8ff" points="143.23,-29.58 139.01,-19.86 136.25,-30.09 143.23,-29.58"/>
<g id="a_edge6&#45;headlabel"><a xlink:href="dir_000002_000005.html" target="_top" xlink:title="1">
<text text-anchor="middle" x="146.32" y="-27.71" font-family="Helvetica,sans-Serif" font-size="10.00" fill="#63b8ff">1</text>
</a>
</g>
</g>
<!-- dir_aebb8dcc11953d78e620bbef0b9e2183&#45;&gt;dir_313caf1132e152dd9b58bea13a4052ca -->
<g id="edge9" class="edge">
<title>dir_aebb8dcc11953d78e620bbef0b9e2183&#45;&gt;dir_313caf1132e152dd9b58bea13a4052ca</title>
<path fill="none" stroke="#63b8ff" d="M66.29,-73.26C72.89,-80.24 80.67,-90.38 86.36,-99.16"/>
<polygon fill="#63b8ff" stroke="#63b8ff" points="83.81,-100.73 91.89,-107.58 89.84,-97.19 83.81,-100.73"/>
<g id="a_edge9&#45;headlabel"><a xlink:href="dir_000003_000012.html" target="_top" xlink:title="7">
<text text-anchor="middle" x="79.54" y="-95.82" font-family="Helvetica,sans-Serif" font-size="10.00" fill="#63b8ff">7</text>
</a>
</g>
</g>
<!-- dir_aebb8dcc11953d78e620bbef0b9e2183&#45;&gt;dir_d44c64559bbebec7f509842c48db8b23 -->
<g id="edge10" class="edge">
<title>dir_aebb8dcc11953d78e620bbef0b9e2183&#45;&gt;dir_d44c64559bbebec7f509842c48db8b23</title>
<path fill="none" stroke="#63b8ff" d="M68.71,-54.08C81.32,-46.1 100.28,-34.11 115.18,-24.69"/>
<polygon fill="#63b8ff" stroke="#63b8ff" points="116.69,-27.24 123.27,-18.93 112.95,-21.32 116.69,-27.24"/>
<g id="a_edge10&#45;headlabel"><a xlink:href="dir_000003_000005.html" target="_top" xlink:title="14">
<text text-anchor="middle" x="116.17" y="-27.31" font-family="Helvetica,sans-Serif" font-size="10.00" fill="#63b8ff">14</text>
</a>
</g>
</g>
<!-- dir_313caf1132e152dd9b58bea13a4052ca&#45;&gt;dir_2e53991d0abfe4d26476f40debcf47e2 -->
<g id="edge11" class="edge">
<title>dir_313caf1132e152dd9b58bea13a4052ca&#45;&gt;dir_2e53991d0abfe4d26476f40debcf47e2</title>
<path fill="none" stroke="#63b8ff" d="M106.88,-127.76C116.08,-135.12 127.66,-145.99 136.19,-155.08"/>
<polygon fill="#63b8ff" stroke="#63b8ff" points="133.01,-156.9 142.25,-162.08 138.26,-152.27 133.01,-156.9"/>
<g id="a_edge11&#45;headlabel"><a xlink:href="dir_000012_000000.html" target="_top" xlink:title="1">
<text text-anchor="middle" x="129.5" y="-152.83" font-family="Helvetica,sans-Serif" font-size="10.00" fill="#63b8ff">1</text>
</a>
</g>
</g>
<!-- dir_313caf1132e152dd9b58bea13a4052ca&#45;&gt;dir_aebb8dcc11953d78e620bbef0b9e2183 -->
<g id="edge12" class="edge">
<title>dir_313caf1132e152dd9b58bea13a4052ca&#45;&gt;dir_aebb8dcc11953d78e620bbef0b9e2183</title>
<path fill="none" stroke="#63b8ff" d="M81.56,-108.58C74.94,-101.55 67.17,-91.4 61.51,-82.64"/>
<polygon fill="#63b8ff" stroke="#63b8ff" points="64.1,-81.12 56.03,-74.26 58.05,-84.66 64.1,-81.12"/>
<g id="a_edge12&#45;headlabel"><a xlink:href="dir_000012_000003.html" target="_top" xlink:title="3">
<text text-anchor="middle" x="68.36" y="-77.54" font-family="Helvetica,sans-Serif" font-size="10.00" fill="#63b8ff">3</text>
</a>
</g>
</g>
<!-- dir_313caf1132e152dd9b58bea13a4052ca&#45;&gt;dir_d44c64559bbebec7f509842c48db8b23 -->
<g id="edge13" class="edge">
<title>dir_313caf1132e152dd9b58bea13a4052ca&#45;&gt;dir_d44c64559bbebec7f509842c48db8b23</title>
<path fill="none" stroke="#63b8ff" d="M96.53,-108.85C103.72,-91.75 120.23,-52.5 130.11,-29.01"/>
<polygon fill="#63b8ff" stroke="#63b8ff" points="133.71,-30.48 134.36,-19.9 127.26,-27.77 133.71,-30.48"/>
<g id="a_edge13&#45;headlabel"><a xlink:href="dir_000012_000005.html" target="_top" xlink:title="5">
<text text-anchor="middle" x="134.93" y="-29.64" font-family="Helvetica,sans-Serif" font-size="10.00" fill="#63b8ff">5</text>
</a>
</g>
</g>
</g>
</svg>
