<?xml version="1.0" encoding="UTF-8" standalone="no"?>
<!DOCTYPE svg PUBLIC "-//W3C//DTD SVG 1.1//EN"
 "http://www.w3.org/Graphics/SVG/1.1/DTD/svg11.dtd">
<!-- Generated by graphviz version 8.0.5 (0)
 -->
<!-- Title: async Pages: 1 -->
<svg width="331pt" height="140pt"
 viewBox="0.00 0.00 331.38 139.50" xmlns="http://www.w3.org/2000/svg" xmlns:xlink="http://www.w3.org/1999/xlink">
<g id="graph0" class="graph" transform="scale(1 1) rotate(0) translate(4 135.5)">
<title>async</title>
<g id="clust1" class="cluster">
<title>clusterdir_68267d1309a1af8e8297ef4c3efbcdba</title>
<g id="a_clust1"><a xlink:href="dir_68267d1309a1af8e8297ef4c3efbcdba.html" target="_top" xlink:title="src">
<polygon fill="#e5e5ef" stroke="#404040" stroke-dasharray="5,2" points="8,-8 8,-123.5 269,-123.5 269,-8 8,-8"/>
<text text-anchor="middle" x="138.5" y="-110" font-family="Helvetica,sans-Serif" font-size="10.00">src</text>
</a>
</g>
</g>
<g id="clust2" class="cluster">
<title>clusterdir_b60a79ed93f318a37dbc9781b4452c17</title>
<g id="a_clust2"><a xlink:href="dir_b60a79ed93f318a37dbc9781b4452c17.html" target="_top">
<polygon fill="#e5e5ef" stroke="#404040" stroke-width="2" points="16,-62.5 16,-97 261,-97 261,-62.5 16,-62.5"/>
</a>
</g>
</g>
<!-- dir_313caf1132e152dd9b58bea13a4052ca -->
<g id="node1" class="node">
<title>dir_313caf1132e152dd9b58bea13a4052ca</title>
<g id="a_node1"><a xlink:href="dir_313caf1132e152dd9b58bea13a4052ca.html" target="_top" xlink:title="utils">
<polygon fill="#8585b5" stroke="#404040" points="182,-34.5 148,-34.5 148,-16 182,-16 182,-34.5"/>
<text text-anchor="middle" x="165" y="-21" font-family="Helvetica,sans-Serif" font-size="10.00">utils</text>
</a>
</g>
</g>
<!-- dir_aebb8dcc11953d78e620bbef0b9e2183 -->
<g id="node2" class="node">
<title>dir_aebb8dcc11953d78e620bbef0b9e2183</title>
<g id="a_node2"><a xlink:href="dir_aebb8dcc11953d78e620bbef0b9e2183.html" target="_top" xlink:title="core">
<polygon fill="#8585b5" stroke="#404040" points="115.38,-34.5 80.62,-34.5 80.62,-16 115.38,-16 115.38,-34.5"/>
<text text-anchor="middle" x="98" y="-21" font-family="Helvetica,sans-Serif" font-size="10.00">core</text>
</a>
</g>
</g>
<!-- dir_b60a79ed93f318a37dbc9781b4452c17 -->
<g id="node3" class="node">
<title>dir_b60a79ed93f318a37dbc9781b4452c17</title>
<text text-anchor="middle" x="232" y="-75.5" font-family="Helvetica,sans-Serif" font-size="10.00">async</text>
</g>
<!-- dir_62dd6e7b4057fd55668a5ab83622491d -->
<g id="node4" class="node">
<title>dir_62dd6e7b4057fd55668a5ab83622491d</title>
<g id="a_node4"><a xlink:href="dir_62dd6e7b4057fd55668a5ab83622491d.html" target="_top" xlink:title="ivshmem">
<polygon fill="#8585b5" stroke="#404040" points="192.88,-89 137.12,-89 137.12,-70.5 192.88,-70.5 192.88,-89"/>
<text text-anchor="middle" x="165" y="-75.5" font-family="Helvetica,sans-Serif" font-size="10.00">ivshmem</text>
</a>
</g>
</g>
<!-- dir_62dd6e7b4057fd55668a5ab83622491d&#45;&gt;dir_313caf1132e152dd9b58bea13a4052ca -->
<g id="edge1" class="edge">
<title>dir_62dd6e7b4057fd55668a5ab83622491d&#45;&gt;dir_313caf1132e152dd9b58bea13a4052ca</title>
<path fill="none" stroke="#63b8ff" d="M165,-70.08C165,-63.43 165,-53.99 165,-45.58"/>
<polygon fill="#63b8ff" stroke="#63b8ff" points="168.5,-45.76 165,-35.76 161.5,-45.76 168.5,-45.76"/>
<g id="a_edge1&#45;headlabel"><a xlink:href="dir_000006_000012.html" target="_top" xlink:title="2">
<text text-anchor="middle" x="171.34" y="-44.1" font-family="Helvetica,sans-Serif" font-size="10.00" fill="#63b8ff">2</text>
</a>
</g>
</g>
<!-- dir_62dd6e7b4057fd55668a5ab83622491d&#45;&gt;dir_aebb8dcc11953d78e620bbef0b9e2183 -->
<g id="edge2" class="edge">
<title>dir_62dd6e7b4057fd55668a5ab83622491d&#45;&gt;dir_aebb8dcc11953d78e620bbef0b9e2183</title>
<path fill="none" stroke="#63b8ff" d="M153.94,-70.08C143.98,-62.28 129.14,-50.65 117.25,-41.33"/>
<polygon fill="#63b8ff" stroke="#63b8ff" points="119.89,-38.17 109.86,-34.76 115.57,-43.68 119.89,-38.17"/>
<g id="a_edge2&#45;headlabel"><a xlink:href="dir_000006_000003.html" target="_top" xlink:title="1">
<text text-anchor="middle" x="123.47" y="-33.9" font-family="Helvetica,sans-Serif" font-size="10.00" fill="#63b8ff">1</text>
</a>
</g>
</g>
<!-- dir_d44c64559bbebec7f509842c48db8b23 -->
<g id="node7" class="node">
<title>dir_d44c64559bbebec7f509842c48db8b23</title>
<g id="a_node7"><a xlink:href="dir_d44c64559bbebec7f509842c48db8b23.html" target="_top" xlink:title="include">
<polygon fill="#e5e5ef" stroke="#404040" points="323.38,-34.5 276.62,-34.5 276.62,-16 323.38,-16 323.38,-34.5"/>
<text text-anchor="middle" x="300" y="-21" font-family="Helvetica,sans-Serif" font-size="10.00">include</text>
</a>
</g>
</g>
<!-- dir_62dd6e7b4057fd55668a5ab83622491d&#45;&gt;dir_d44c64559bbebec7f509842c48db8b23 -->
<g id="edge3" class="edge">
<title>dir_62dd6e7b4057fd55668a5ab83622491d&#45;&gt;dir_d44c64559bbebec7f509842c48db8b23</title>
<path fill="none" stroke="#63b8ff" d="M184.11,-70.1C189.83,-67.58 196.15,-64.87 202,-62.5 223.19,-53.94 247.25,-45.02 266.24,-38.18"/>
<polygon fill="#63b8ff" stroke="#63b8ff" points="267.25,-41.17 275.48,-34.5 264.89,-34.58 267.25,-41.17"/>
<g id="a_edge3&#45;headlabel"><a xlink:href="dir_000006_000005.html" target="_top" xlink:title="1">
<text text-anchor="middle" x="265.83" y="-40.81" font-family="Helvetica,sans-Serif" font-size="10.00" fill="#63b8ff">1</text>
</a>
</g>
</g>
<!-- dir_8d1c3ce1cd911fc2390a767bff7252f7 -->
<g id="node5" class="node">
<title>dir_8d1c3ce1cd911fc2390a767bff7252f7</title>
<g id="a_node5"><a xlink:href="dir_8d1c3ce1cd911fc2390a767bff7252f7.html" target="_top" xlink:title="mutex">
<polygon fill="#8585b5" stroke="#404040" points="119.5,-89 76.5,-89 76.5,-70.5 119.5,-70.5 119.5,-89"/>
<text text-anchor="middle" x="98" y="-75.5" font-family="Helvetica,sans-Serif" font-size="10.00">mutex</text>
</a>
</g>
</g>
<!-- dir_8d1c3ce1cd911fc2390a767bff7252f7&#45;&gt;dir_aebb8dcc11953d78e620bbef0b9e2183 -->
<g id="edge4" class="edge">
<title>dir_8d1c3ce1cd911fc2390a767bff7252f7&#45;&gt;dir_aebb8dcc11953d78e620bbef0b9e2183</title>
<path fill="none" stroke="#63b8ff" d="M98,-70.08C98,-63.43 98,-53.99 98,-45.58"/>
<polygon fill="#63b8ff" stroke="#63b8ff" points="101.5,-45.76 98,-35.76 94.5,-45.76 101.5,-45.76"/>
<g id="a_edge4&#45;headlabel"><a xlink:href="dir_000007_000003.html" target="_top" xlink:title="1">
<text text-anchor="middle" x="104.34" y="-44.1" font-family="Helvetica,sans-Serif" font-size="10.00" fill="#63b8ff">1</text>
</a>
</g>
</g>
<!-- dir_9572de8811e490ed7cfd146fb7e7620e -->
<g id="node6" class="node">
<title>dir_9572de8811e490ed7cfd146fb7e7620e</title>
<g id="a_node6"><a xlink:href="dir_9572de8811e490ed7cfd146fb7e7620e.html" target="_top" xlink:title="spin">
<polygon fill="#8585b5" stroke="#404040" points="58,-89 24,-89 24,-70.5 58,-70.5 58,-89"/>
<text text-anchor="middle" x="41" y="-75.5" font-family="Helvetica,sans-Serif" font-size="10.00">spin</text>
</a>
</g>
</g>
<!-- dir_9572de8811e490ed7cfd146fb7e7620e&#45;&gt;dir_aebb8dcc11953d78e620bbef0b9e2183 -->
<g id="edge5" class="edge">
<title>dir_9572de8811e490ed7cfd146fb7e7620e&#45;&gt;dir_aebb8dcc11953d78e620bbef0b9e2183</title>
<path fill="none" stroke="#63b8ff" d="M50.41,-70.08C58.63,-62.51 70.77,-51.33 80.72,-42.16"/>
<polygon fill="#63b8ff" stroke="#63b8ff" points="82.78,-45.11 87.76,-35.76 78.04,-39.96 82.78,-45.11"/>
<g id="a_edge5&#45;headlabel"><a xlink:href="dir_000009_000003.html" target="_top" xlink:title="1">
<text text-anchor="middle" x="83.06" y="-44.38" font-family="Helvetica,sans-Serif" font-size="10.00" fill="#63b8ff">1</text>
</a>
</g>
</g>
</g>
</svg>
