<?xml version="1.0" encoding="UTF-8" standalone="no"?>
<!DOCTYPE svg PUBLIC "-//W3C//DTD SVG 1.1//EN"
 "http://www.w3.org/Graphics/SVG/1.1/DTD/svg11.dtd">
<!-- Generated by graphviz version 2.38.0 (20140413.2041)
 -->
<!-- Title: high_level Pages: 1 -->
<svg width="335pt" height="338pt"
 viewBox="0.00 0.00 335.00 338.00" xmlns="http://www.w3.org/2000/svg" xmlns:xlink="http://www.w3.org/1999/xlink">
<g id="graph0" class="graph" transform="scale(1 1) rotate(0) translate(4 334)">
<title>high_level</title>
<polygon fill="white" stroke="none" points="-4,4 -4,-334 331,-334 331,4 -4,4"/>
<g id="clust1" class="cluster"><title>cluster0</title>
<polygon fill="none" stroke="black" points="101.5,-76 101.5,-265 227.5,-265 227.5,-76 101.5,-76"/>
</g>
<!-- ap1 -->
<g id="node1" class="node"><title>ap1</title>
<ellipse fill="none" stroke="black" cx="54.5" cy="-312" rx="46.2923" ry="18"/>
<text text-anchor="middle" x="54.5" y="-308.3" font-family="Times,serif" font-size="14.00">App Vm0</text>
</g>
<!-- cntrl -->
<g id="node4" class="node"><title>cntrl</title>
<polygon fill="none" stroke="black" points="109.5,-187.5 109.5,-256.5 219.5,-256.5 219.5,-187.5 109.5,-187.5"/>
<text text-anchor="middle" x="164.5" y="-241.3" font-family="Times,serif" font-size="14.00">MPSC Queue #0</text>
<polyline fill="none" stroke="black" points="109.5,-233.5 219.5,-233.5 "/>
<text text-anchor="middle" x="164.5" y="-218.3" font-family="Times,serif" font-size="14.00">MPSC Queue #1</text>
<polyline fill="none" stroke="black" points="109.5,-210.5 219.5,-210.5 "/>
<text text-anchor="middle" x="164.5" y="-195.3" font-family="Times,serif" font-size="14.00">MPSC Queue #2</text>
</g>
<!-- ap1&#45;&gt;cntrl -->
<g id="edge1" class="edge"><title>ap1&#45;&gt;cntrl:0</title>
<path fill="none" stroke="black" d="M60.0334,-294.003C66.5313,-277.198 78.958,-253.087 98.392,-246.638"/>
<polygon fill="black" stroke="black" points="99.1885,-250.054 108.5,-245 98.0689,-243.144 99.1885,-250.054"/>
</g>
<!-- ap2 -->
<g id="node2" class="node"><title>ap2</title>
<ellipse fill="none" stroke="black" cx="164.5" cy="-312" rx="46.2923" ry="18"/>
<text text-anchor="middle" x="164.5" y="-308.3" font-family="Times,serif" font-size="14.00">App Vm1</text>
</g>
<!-- ap2&#45;&gt;cntrl -->
<g id="edge2" class="edge"><title>ap2&#45;&gt;cntrl:1</title>
<path fill="none" stroke="black" d="M186.579,-295.997C198.683,-286.409 212.594,-272.821 219.5,-257 223.634,-247.529 229.581,-235.202 228.553,-227.989"/>
<polygon fill="black" stroke="black" points="230.613,-225.159 220.5,-222 226.435,-230.776 230.613,-225.159"/>
</g>
<!-- ap3 -->
<g id="node3" class="node"><title>ap3</title>
<ellipse fill="none" stroke="black" cx="274.5" cy="-312" rx="46.2923" ry="18"/>
<text text-anchor="middle" x="274.5" y="-308.3" font-family="Times,serif" font-size="14.00">App Vm2</text>
</g>
<!-- ap3&#45;&gt;cntrl -->
<g id="edge3" class="edge"><title>ap3&#45;&gt;cntrl:2</title>
<path fill="none" stroke="black" d="M273.868,-293.99C271.884,-265.351 263.747,-209.702 230.545,-200.349"/>
<polygon fill="black" stroke="black" points="230.877,-196.863 220.5,-199 229.945,-203.8 230.877,-196.863"/>
</g>
<!-- sched -->
<g id="node5" class="node"><title>sched</title>
<polygon fill="none" stroke="black" points="109.5,-84.5 109.5,-120.5 217.5,-120.5 217.5,-84.5 109.5,-84.5"/>
<text text-anchor="middle" x="163.5" y="-98.8" font-family="Times,serif" font-size="14.00">Schedule Thread</text>
</g>
<!-- cntrl&#45;&gt;sched -->
<g id="edge4" class="edge"><title>cntrl&#45;&gt;sched</title>
<path fill="none" stroke="black" d="M164.213,-187.329C164.061,-169.417 163.876,-147.675 163.733,-130.822"/>
<polygon fill="black" stroke="black" points="167.23,-130.513 163.645,-120.543 160.23,-130.573 167.23,-130.513"/>
<text text-anchor="middle" x="193.5" y="-157.8" font-family="Times,serif" font-size="14.00">select</text>
<text text-anchor="middle" x="193.5" y="-142.8" font-family="Times,serif" font-size="14.00">(q0,q1,q2)</text>
</g>
<!-- acc1 -->
<g id="node6" class="node"><title>acc1</title>
<polygon fill="none" stroke="black" points="0,-0.5 0,-46.5 97,-46.5 97,-0.5 0,-0.5"/>
<text text-anchor="middle" x="48.5" y="-31.3" font-family="Times,serif" font-size="14.00">Accelerator #0</text>
<polyline fill="none" stroke="black" points="0,-23.5 97,-23.5 "/>
<text text-anchor="middle" x="48.5" y="-8.3" font-family="Times,serif" font-size="14.00">Type:Gpu</text>
</g>
<!-- sched&#45;&gt;acc1 -->
<g id="edge5" class="edge"><title>sched&#45;&gt;acc1</title>
<path fill="none" stroke="black" d="M137.978,-84.4112C123.908,-74.9906 106.093,-63.0621 90.0694,-52.3334"/>
<polygon fill="black" stroke="black" points="91.6437,-49.1754 81.387,-46.52 87.7491,-54.992 91.6437,-49.1754"/>
</g>
<!-- acc2 -->
<g id="node7" class="node"><title>acc2</title>
<polygon fill="none" stroke="black" points="115,-0.5 115,-46.5 212,-46.5 212,-0.5 115,-0.5"/>
<text text-anchor="middle" x="163.5" y="-31.3" font-family="Times,serif" font-size="14.00">Accelerator #1</text>
<polyline fill="none" stroke="black" points="115,-23.5 212,-23.5 "/>
<text text-anchor="middle" x="163.5" y="-8.3" font-family="Times,serif" font-size="14.00">Type:Cpu</text>
</g>
<!-- sched&#45;&gt;acc2 -->
<g id="edge6" class="edge"><title>sched&#45;&gt;acc2</title>
<path fill="none" stroke="black" d="M163.5,-84.4112C163.5,-76.2118 163.5,-66.1125 163.5,-56.5581"/>
<polygon fill="black" stroke="black" points="167,-56.52 163.5,-46.52 160,-56.52 167,-56.52"/>
</g>
<!-- acc3 -->
<g id="node8" class="node"><title>acc3</title>
<polygon fill="none" stroke="black" points="230,-0.5 230,-46.5 327,-46.5 327,-0.5 230,-0.5"/>
<text text-anchor="middle" x="278.5" y="-31.3" font-family="Times,serif" font-size="14.00">Accelerator #2</text>
<polyline fill="none" stroke="black" points="230,-23.5 327,-23.5 "/>
<text text-anchor="middle" x="278.5" y="-8.3" font-family="Times,serif" font-size="14.00">Type:Fpga</text>
</g>
<!-- sched&#45;&gt;acc3 -->
<g id="edge7" class="edge"><title>sched&#45;&gt;acc3</title>
<path fill="none" stroke="black" d="M189.022,-84.4112C203.092,-74.9906 220.907,-63.0621 236.931,-52.3334"/>
<polygon fill="black" stroke="black" points="239.251,-54.992 245.613,-46.52 235.356,-49.1754 239.251,-54.992"/>
</g>
</g>
</svg>
