<svg class="logo" viewBox="0 0 1571.4484 320.36267" height="320.36267" width="1571.4484" xml:space="preserve" version="1.1">
	<defs><clipPath
id="clipPath18"
clipPathUnits="userSpaceOnUse"><path
d="M 0,1080 H 1920 V 0 H 0 Z" /></clipPath><clipPath
id="clipPath50"
clipPathUnits="userSpaceOnUse"><path
d="m 1239.226,363.939 14.538,-27.623 c 0.938,-1.792 1.854,-2.797 2.749,-3.009 v 0 c 0.897,-0.214 2.369,-0.32 4.415,-0.32 v 0 h 19.197 c 1.027,0 1.641,0.32 1.857,0.959 v 0 c 0.212,0.641 0.019,1.473 -0.576,2.497 v 0 l -25.596,46.908 z" /></clipPath><linearGradient
id="linearGradient60"
spreadMethod="pad"
gradientTransform="matrix(-84.666664,142.66666,142.66666,84.666664,1327.6366,237.05669)"
gradientUnits="userSpaceOnUse"
x2="1"
><stop
offset="0"
style="stop-opacity:1;stop-color:#07454f" /><stop
offset="1"
style="stop-opacity:1;stop-color:#34e89e" /></linearGradient><clipPath
id="clipPath70"
clipPathUnits="userSpaceOnUse"><path
d="M 0,1080 H 1920 V 0 H 0 Z" /></clipPath><clipPath
id="clipPath86"
clipPathUnits="userSpaceOnUse"><path
d="m 734.297,422.572 c -1.964,0 -2.945,-0.897 -2.945,-2.69 v 0 -41.672 l 24.188,28.312 v 13.36 c 0,1.026 -0.15,1.729 -0.445,2.112 v 0 c -0.301,0.385 -1.174,0.578 -2.623,0.578 v 0 z" /></clipPath><linearGradient
id="linearGradient96"
spreadMethod="pad"
gradientTransform="matrix(0,-130.00214,-130.00214,0,743.44592,519.94147)"
gradientUnits="userSpaceOnUse"
x2="1"
><stop
offset="0"
style="stop-opacity:1;stop-color:#07454f" /><stop
offset="1"
style="stop-opacity:1;stop-color:#34e89e" /></linearGradient><clipPath
id="clipPath106"
clipPathUnits="userSpaceOnUse"><path
d="m 982.102,735.976 c -3.5,-4.123 -5.35,-9.195 -5.35,-14.671 v 0 -178.155 c 0,-5.483 1.858,-10.565 5.373,-14.695 v 0 l 2.722,-3.198 91.057,52.572 c 41.876,24.176 41.876,84.62 0,108.796 v 0 l -91.064,52.576 z" /></clipPath><linearGradient
id="linearGradient116"
spreadMethod="pad"
gradientTransform="matrix(404.70746,0,0,-404.70746,688.20996,632.229)"
gradientUnits="userSpaceOnUse"
x2="1"
><stop
offset="0"
style="stop-opacity:1;stop-color:#07454f" /><stop
offset="1"
style="stop-opacity:1;stop-color:#34e89e" /></linearGradient><clipPath
id="clipPath126"
clipPathUnits="userSpaceOnUse"><path
d="m 887.188,712.971 v -160.7 c 0,-28.386 29.921,-40.116 57.021,-40.116 v 0 c 9.676,0 18.992,1.496 26.459,4.262 v 0 h -10e-4 c -1.524,1.791 -2.908,3.716 -4.125,5.762 v 0 c -1.219,2.046 -2.271,4.213 -3.133,6.489 v 0 c -0.432,1.139 -0.815,2.304 -1.148,3.495 v 0 c -0.998,3.575 -1.539,7.382 -1.539,11.38 v 0 178.155 c 0,10.641 3.831,19.926 9.907,27.084 v 0 c -6.788,2.409 -15.106,3.645 -23.828,3.645 v 0 c -27.746,0 -59.613,-12.497 -59.613,-39.456 m 14.854,-41.337 c 0,1.488 1.176,2.696 2.647,2.766 v 0 l 29.264,2.545 c 0.397,0.157 0.827,0.25 1.278,0.25 v 0 c 1.922,0 3.485,-1.562 3.485,-3.484 v 0 c 0,-1.886 -1.508,-3.418 -3.382,-3.474 v 0 l 0.001,-0.002 -29.792,-1.269 c -0.19,-0.053 -0.385,-0.085 -0.589,-0.095 v 0 l -0.032,-0.005 v 10e-4 c -0.035,0 -0.067,-0.01 -0.103,-0.01 v 0 c -1.531,0 -2.777,1.246 -2.777,2.777 m 33.189,-14.767 c 1.922,0 3.485,-1.563 3.485,-3.485 v 0 c 0,-1.903 -1.536,-3.451 -3.434,-3.478 v 0 l 10e-4,-0.003 -30.413,-0.637 v 0.003 c -0.017,0 -0.033,-0.005 -0.051,-0.005 v 0 c -1.531,0 -2.777,1.245 -2.777,2.777 v 0 c 0,1.504 1.203,2.726 2.696,2.77 v 0 0.003 l 29.729,1.965 c 0.179,0.04 0.366,0.057 0.554,0.069 v 0 l 0.129,0.016 10e-4,-0.003 c 0.027,10e-4 0.052,0.008 0.08,0.008 m 0,-21.153 c 1.922,0 3.485,-1.563 3.485,-3.485 v 0 c 0,-1.922 -1.563,-3.484 -3.485,-3.484 v 0 c -0.005,0 -0.01,0 -0.015,0 v 0 0 l -30.413,0.707 v 0.002 c -1.523,0.008 -2.761,1.249 -2.761,2.775 v 0 c 0,1.527 1.238,2.767 2.761,2.775 v 0 0.002 l 30.413,0.708 v -0.002 c 0.005,0 0.01,0.002 0.015,0.002 m -0.21,-28.102 c -0.188,0.011 -0.375,0.029 -0.554,0.069 v 0 l -29.729,1.965 v 0.003 c -1.493,0.043 -2.696,1.266 -2.696,2.769 v 0 c 0,1.532 1.246,2.778 2.777,2.778 v 0 c 0.018,0 0.034,-0.006 0.051,-0.006 v 0 0.004 l 30.413,-0.636 -10e-4,-0.003 c 1.898,-0.029 3.434,-1.576 3.434,-3.479 v 0 c 0,-1.922 -1.563,-3.485 -3.485,-3.485 v 0 c -0.028,0 -0.053,0.007 -0.08,0.008 v 0 l -10e-4,-0.004 z m -1.068,-20.099 -29.264,2.546 c -1.471,0.069 -2.647,1.277 -2.647,2.765 v 0 c 0,1.531 1.246,2.776 2.777,2.776 v 0 c 0.036,0 0.068,-0.009 0.103,-0.01 v 0 0.002 l 0.032,-0.005 c 0.204,-0.01 0.399,-0.043 0.589,-0.094 v 0 l 29.792,-1.271 -0.001,-0.002 c 1.874,-0.055 3.382,-1.587 3.382,-3.473 v 0 c 0,-1.921 -1.563,-3.484 -3.485,-3.484 v 0 c -0.451,0 -0.881,0.092 -1.278,0.25" /></clipPath><linearGradient
id="linearGradient136"
spreadMethod="pad"
gradientTransform="matrix(404.70746,0,0,-404.70746,691.35962,632.29102)"
gradientUnits="userSpaceOnUse"
x2="1"
><stop
offset="0"
style="stop-opacity:1;stop-color:#07454f" /><stop
offset="1"
style="stop-opacity:1;stop-color:#34e89e" /></linearGradient><clipPath
id="clipPath146"
clipPathUnits="userSpaceOnUse"><path
d="M 808.672,703.837 V 561.33 c 0,-25.172 26.533,-35.573 50.565,-35.573 v 0 c 8.581,0 16.843,1.325 23.464,3.779 v 0 H 882.7 c -1.352,1.588 -2.578,3.295 -3.659,5.108 v 0 c -1.08,1.815 -2.014,3.737 -2.778,5.756 v 0 c -0.382,1.009 -0.722,2.043 -1.018,3.099 v 0 c -0.885,3.17 -1.365,6.547 -1.365,10.092 v 0 157.985 c 0,9.437 3.399,17.67 8.787,24.017 v 0 c -6.02,2.137 -13.397,3.232 -21.131,3.232 v 0 c -24.605,0 -52.864,-11.082 -52.864,-34.988 m 13.172,-36.657 c 0,1.319 1.044,2.39 2.348,2.451 v 0 l 25.951,2.061 c 0.352,0.139 0.732,0.222 1.134,0.222 v 0 c 1.703,0 3.089,-1.387 3.089,-3.091 v 0 c 0,-1.672 -1.338,-3.031 -2.998,-3.08 v 0 -0.002 l -26.419,-0.928 c -0.168,-0.045 -0.342,-0.075 -0.522,-0.084 v 0 l -0.029,-0.004 v 0.002 c -0.03,-10e-4 -0.059,-0.01 -0.092,-0.01 v 0 c -1.358,0 -2.462,1.105 -2.462,2.463 m 29.433,-13.095 c 1.703,0 3.089,-1.386 3.089,-3.091 v 0 c 0,-1.687 -1.362,-3.06 -3.044,-3.084 v 0 -0.004 l -26.97,-0.564 v 0.004 c -0.016,-10e-4 -0.029,-0.005 -0.046,-0.005 v 0 c -1.358,0 -2.462,1.104 -2.462,2.463 v 0 c 0,1.333 1.066,2.417 2.391,2.456 v 0 l -10e-4,0.002 26.365,1.743 c 0.158,0.036 0.323,0.05 0.49,0.061 v 0 l 0.115,0.014 0.001,-0.002 c 0.024,0 0.046,0.007 0.072,0.007 m 0,-18.759 c 1.703,0 3.089,-1.386 3.089,-3.09 v 0 c 0,-1.704 -1.386,-3.09 -3.089,-3.09 v 0 c -0.006,0 -0.01,0.001 -0.015,0.001 v 0 -0.001 l -26.968,0.627 v 0.002 c -1.353,0.007 -2.45,1.107 -2.45,2.461 v 0 c 0,1.353 1.097,2.454 2.45,2.461 v 0 0.002 l 26.968,0.627 v -0.002 c 0.005,0 0.009,0.002 0.015,0.002 m -0.188,-24.92 c -0.167,0.011 -0.332,0.025 -0.49,0.061 v 0 l -26.365,1.743 10e-4,0.002 c -1.325,0.039 -2.391,1.123 -2.391,2.456 v 0 c 0,1.359 1.104,2.463 2.462,2.463 v 0 c 0.017,0 0.03,-0.004 0.046,-0.005 v 0 0.003 l 26.97,-0.563 v -0.004 c 1.682,-0.024 3.044,-1.397 3.044,-3.084 v 0 c 0,-1.705 -1.386,-3.091 -3.089,-3.091 v 0 c -0.026,0 -0.048,0.007 -0.072,0.007 v 0 l -0.001,-0.002 z m -0.946,-17.626 -25.951,2.06 c -1.304,0.062 -2.348,1.133 -2.348,2.452 v 0 c 0,1.358 1.104,2.463 2.462,2.463 v 0 c 0.033,0 0.062,-0.009 0.092,-0.01 v 0 0.002 l 0.029,-0.005 c 0.18,-0.009 0.354,-0.038 0.522,-0.083 v 0 l 26.419,-0.929 v -10e-4 c 1.66,-0.05 2.998,-1.408 2.998,-3.08 v 0 c 0,-1.705 -1.386,-3.091 -3.089,-3.091 v 0 c -0.402,0 -0.782,0.083 -1.134,0.222" /></clipPath><linearGradient
id="linearGradient156"
spreadMethod="pad"
gradientTransform="matrix(404.70746,0,0,-404.70746,686.8728,632.29102)"
gradientUnits="userSpaceOnUse"
x2="1"
><stop
offset="0"
style="stop-opacity:1;stop-color:#07454f" /><stop
offset="1"
style="stop-opacity:1;stop-color:#34e89e" /></linearGradient></defs><g
transform="matrix(1.3333333,0,0,-1.3333333,-129.02833,880.18133)"
><g
transform="matrix(1.3170268,0,0,1.3170268,-413.15674,43.091494)"
><g
transform="translate(675.7515,360.2451)"><path
d="m 0,0 h 1.026 l 6.268,25.084 9.729,35.194 c 0.254,0.939 0.724,1.536 1.408,1.792 0.681,0.256 1.534,0.385 2.557,0.385 h 19.839 c 1.023,0 1.6,-0.3 1.727,-0.896 0.127,-0.598 0.108,-1.112 -0.066,-1.537 L 16.127,-19.323 c -0.684,-1.965 -1.388,-3.479 -2.11,-4.543 -0.727,-1.07 -1.538,-1.856 -2.434,-2.369 -0.896,-0.512 -1.919,-0.812 -3.069,-0.894 -1.154,-0.087 -2.458,-0.129 -3.908,-0.129 h -9.213 c -1.45,0 -2.73,0.084 -3.838,0.255 -1.111,0.172 -2.092,0.555 -2.946,1.152 -0.853,0.596 -1.599,1.429 -2.237,2.496 -0.639,1.065 -1.262,2.452 -1.854,4.159 L -41.72,60.022 c -0.173,0.683 -0.15,1.258 0.066,1.727 0.211,0.469 0.746,0.706 1.599,0.706 h 19.324 c 1.45,0 2.411,-0.237 2.88,-0.706 0.469,-0.469 0.873,-1.173 1.215,-2.111 L -6.653,25.34 Z"
style="fill:#282d2b;fill-opacity:1;fill-rule:nonzero;stroke:none"
/></g><g
transform="translate(799.186,381.4902)"><path
d="m 0,0 v -45.815 c 0,-1.025 -0.15,-1.729 -0.446,-2.112 -0.3,-0.384 -1.177,-0.576 -2.627,-0.576 h -18.17 c -1.965,0 -2.945,0.896 -2.945,2.688 v 76.786 c 0,4.008 0.661,6.697 1.984,8.062 1.323,1.363 3.776,2.048 7.36,2.048 h 6.653 c 1.28,0 2.388,-0.063 3.33,-0.192 0.935,-0.127 1.811,-0.385 2.623,-0.768 0.807,-0.385 1.599,-0.959 2.365,-1.728 0.769,-0.767 1.623,-1.792 2.561,-3.071 l 18.3,-27.387 9.983,-15.613 h 0.896 v 46.071 c 0,1.025 0.146,1.728 0.446,2.111 0.3,0.385 1.173,0.577 2.627,0.577 h 18.17 c 1.961,0 2.945,-0.896 2.945,-2.688 v -76.787 c 0,-2.901 -0.599,-5.31 -1.792,-7.229 -1.196,-1.921 -3.711,-2.88 -7.552,-2.88 h -6.653 c -1.196,0 -2.284,0.064 -3.265,0.192 -0.98,0.126 -1.876,0.384 -2.688,0.767 -0.811,0.385 -1.619,0.96 -2.43,1.729 -0.811,0.767 -1.642,1.792 -2.496,3.07 L 11.136,-15.869 0.896,0 Z"
style="fill:#282d2b;fill-opacity:1;fill-rule:nonzero;stroke:none"
/></g><g
transform="translate(939.0723,332.9873)"><path
d="m 0,0 h -39.546 c -5.119,0 -9.28,0.723 -12.479,2.176 -3.2,1.45 -5.715,3.345 -7.549,5.693 -1.838,2.346 -3.095,4.971 -3.776,7.872 -0.685,2.9 -1.023,5.759 -1.023,8.573 v 40.955 c 0,3.071 0.427,6.078 1.281,9.021 0.849,2.944 2.238,5.546 4.156,7.807 1.919,2.258 4.457,4.074 7.615,5.439 3.156,1.363 6.994,2.048 11.521,2.048 h 37.751 c 1.023,0 1.684,-0.15 1.984,-0.448 0.296,-0.3 0.446,-1.173 0.446,-2.623 V 72.051 c 0,-1.111 -0.169,-1.856 -0.511,-2.24 -0.343,-0.383 -0.981,-0.576 -1.919,-0.576 h -30.46 c -1.708,0 -3.069,-0.236 -4.092,-0.704 -1.027,-0.47 -1.792,-1.046 -2.307,-1.728 -0.512,-0.683 -0.854,-1.451 -1.023,-2.303 -0.17,-0.854 -0.254,-1.708 -0.254,-2.56 v -5.374 h 34.298 c 1.023,0 1.684,-0.172 1.984,-0.513 0.296,-0.342 0.446,-1.237 0.446,-2.686 V 40.056 c 0,-1.963 -0.811,-2.944 -2.43,-2.944 h -34.298 v -9.598 c 0,-1.62 0.192,-2.902 0.573,-3.838 0.384,-0.94 0.919,-1.644 1.6,-2.113 0.684,-0.469 1.492,-0.767 2.434,-0.896 0.938,-0.127 1.961,-0.19 3.069,-0.19 H 0 c 1.023,0 1.681,-0.15 1.98,-0.449 0.301,-0.299 0.451,-1.174 0.451,-2.624 V 2.943 C 2.431,0.98 1.619,0 0,0"
style="fill:#282d2b;fill-opacity:1;fill-rule:nonzero;stroke:none"
/></g><g
transform="translate(1025.248,402.2227)"><path
d="m 0,0 h -21.881 v -66.548 c 0,-1.024 -0.15,-1.728 -0.45,-2.111 -0.3,-0.384 -1.172,-0.576 -2.622,-0.576 h -18.174 c -1.965,0 -2.942,0.895 -2.942,2.687 V 0 h -21.373 c -1.792,0 -2.688,0.98 -2.688,2.943 v 14.334 c 0,1.451 0.192,2.324 0.577,2.623 0.385,0.298 1.088,0.449 2.111,0.449 H 0 c 1.027,0 1.73,-0.151 2.115,-0.449 0.381,-0.299 0.573,-1.172 0.573,-2.623 V 2.943 C 2.688,0.98 1.792,0 0,0"
style="fill:#282d2b;fill-opacity:1;fill-rule:nonzero;stroke:none"
/></g><path
style="fill:#282d2b;fill-opacity:1;fill-rule:nonzero;stroke:none"
d="m 1052.5684,335.8018 c -0.342,-0.938 -0.746,-1.644 -1.215,-2.111 -0.469,-0.469 -1.431,-0.703 -2.88,-0.703 h -18.812 c -0.854,0 -1.388,0.234 -1.6,0.703 -0.212,0.467 -0.235,1.044 -0.061,1.728 l 25.211,79.217 c 1.107,3.413 2.472,5.608 4.095,6.591 1.619,0.981 3.88,1.473 6.783,1.473 h 10.364 c 1.538,0 2.88,-0.065 4.033,-0.192 1.15,-0.129 2.173,-0.448 3.069,-0.96 0.896,-0.513 1.708,-1.304 2.434,-2.368 0.724,-1.067 1.385,-2.54 1.981,-4.415 l 25.215,-79.346 c 0.169,-0.429 0.192,-0.94 0.061,-1.536 -0.127,-0.598 -0.703,-0.895 -1.726,-0.895 h -19.324 c -1.026,0 -1.88,0.128 -2.561,0.383 -0.685,0.256 -1.15,0.853 -1.407,1.792 l -15.997,62.708 h -1.023 z" /><g
transform="translate(1136.1533,335.1631)"><path
d="m 0,0 c -3.181,1.45 -5.684,3.346 -7.51,5.693 -1.823,2.346 -3.077,4.971 -3.754,7.872 -0.68,2.9 -1.019,5.759 -1.019,8.574 l -0.127,62.71 c 0,1.792 0.977,2.688 2.927,2.688 H 8.721 c 1.443,0 2.311,-0.192 2.612,-0.577 0.295,-0.385 0.445,-1.088 0.445,-2.111 V 25.338 c 0,-1.62 0.193,-2.901 0.574,-3.838 0.384,-0.939 0.919,-1.644 1.599,-2.112 0.685,-0.47 1.492,-0.768 2.434,-0.897 0.939,-0.127 1.962,-0.19 3.069,-0.19 h 30.333 c 1.023,0 1.727,-0.15 2.111,-0.448 0.385,-0.3 0.577,-1.175 0.577,-2.624 V 0.768 c 0,-1.963 -0.896,-2.944 -2.688,-2.944 H 12.417 C 7.322,-2.176 3.184,-1.453 0,0"
style="fill:#282d2b;fill-opacity:1;fill-rule:nonzero;stroke:none"
/></g><g
><g
clip-path="url(#clipPath50)"><g
><g
><path
d="m 1239.226,363.939 14.538,-27.623 c 0.938,-1.792 1.854,-2.797 2.749,-3.009 v 0 c 0.897,-0.214 2.369,-0.32 4.415,-0.32 v 0 h 19.197 c 1.027,0 1.641,0.32 1.857,0.959 v 0 c 0.212,0.641 0.019,1.473 -0.576,2.497 v 0 l -25.596,46.908 z"
style="fill:url(#linearGradient60);stroke:none"
/></g></g></g></g><g
><g
clip-path="url(#clipPath70)"><g
transform="translate(1277.7012,419.8828)"><path
d="M 0,0 C 0.681,0.683 0.873,1.3 0.577,1.855 0.276,2.409 -0.3,2.688 -1.154,2.688 h -20.731 c -2.219,0 -3.711,-0.107 -4.48,-0.319 -0.765,-0.216 -1.661,-0.919 -2.688,-2.113 l -11.901,-15.101 -11.133,-14.206 -0.385,0.256 V 0.129 c 0,1.023 -0.149,1.706 -0.45,2.048 -0.3,0.341 -1.18,0.511 -2.638,0.511 h -18.138 c -1.973,0 -2.962,-0.853 -2.962,-2.559 v -84.466 c 0,-1.707 0.989,-2.559 2.962,-2.559 h 18.138 c 1.458,0 2.338,0.169 2.638,0.512 0.301,0.34 0.45,1.025 0.45,2.047 v 22.908 z"
style="fill:#282d2b;fill-opacity:1;fill-rule:nonzero;stroke:none"
/></g><g
transform="translate(731.3521,367.876)"><path
d="m 0,0 v -32.201 c 0,-1.792 0.981,-2.688 2.946,-2.688 H 21.12 c 1.449,0 2.322,0.192 2.622,0.576 0.296,0.383 0.446,1.087 0.446,2.112 v 60.513 z"
style="fill:#282d2b;fill-opacity:1;fill-rule:nonzero;stroke:none"
/></g></g></g><g
><g
clip-path="url(#clipPath86)"><g
><g
><path
d="m 734.297,422.572 c -1.964,0 -2.945,-0.897 -2.945,-2.69 v 0 -41.672 l 24.188,28.312 v 13.36 c 0,1.026 -0.15,1.729 -0.445,2.112 v 0 c -0.301,0.385 -1.174,0.578 -2.623,0.578 v 0 z"
style="fill:url(#linearGradient96);stroke:none"
/></g></g></g></g></g><g
transform="translate(-711.90075,-92.290986)"
><g
><g
clip-path="url(#clipPath106)"><g
><g
><path
d="m 982.102,735.976 c -3.5,-4.123 -5.35,-9.195 -5.35,-14.671 v 0 -178.155 c 0,-5.483 1.858,-10.565 5.373,-14.695 v 0 l 2.722,-3.198 91.057,52.572 c 41.876,24.176 41.876,84.62 0,108.796 v 0 l -91.064,52.576 z"
style="fill:url(#linearGradient116);stroke:none"
/></g></g></g></g><g
><g
clip-path="url(#clipPath126)"><g
><g
><path
d="m 887.188,712.971 v -160.7 c 0,-28.386 29.921,-40.116 57.021,-40.116 v 0 c 9.676,0 18.992,1.496 26.459,4.262 v 0 h -10e-4 c -1.524,1.791 -2.908,3.716 -4.125,5.762 v 0 c -1.219,2.046 -2.271,4.213 -3.133,6.489 v 0 c -0.432,1.139 -0.815,2.304 -1.148,3.495 v 0 c -0.998,3.575 -1.539,7.382 -1.539,11.38 v 0 178.155 c 0,10.641 3.831,19.926 9.907,27.084 v 0 c -6.788,2.409 -15.106,3.645 -23.828,3.645 v 0 c -27.746,0 -59.613,-12.497 -59.613,-39.456 m 14.854,-41.337 c 0,1.488 1.176,2.696 2.647,2.766 v 0 l 29.264,2.545 c 0.397,0.157 0.827,0.25 1.278,0.25 v 0 c 1.922,0 3.485,-1.562 3.485,-3.484 v 0 c 0,-1.886 -1.508,-3.418 -3.382,-3.474 v 0 l 0.001,-0.002 -29.792,-1.269 c -0.19,-0.053 -0.385,-0.085 -0.589,-0.095 v 0 l -0.032,-0.005 v 10e-4 c -0.035,0 -0.067,-0.01 -0.103,-0.01 v 0 c -1.531,0 -2.777,1.246 -2.777,2.777 m 33.189,-14.767 c 1.922,0 3.485,-1.563 3.485,-3.485 v 0 c 0,-1.903 -1.536,-3.451 -3.434,-3.478 v 0 l 10e-4,-0.003 -30.413,-0.637 v 0.003 c -0.017,0 -0.033,-0.005 -0.051,-0.005 v 0 c -1.531,0 -2.777,1.245 -2.777,2.777 v 0 c 0,1.504 1.203,2.726 2.696,2.77 v 0 0.003 l 29.729,1.965 c 0.179,0.04 0.366,0.057 0.554,0.069 v 0 l 0.129,0.016 10e-4,-0.003 c 0.027,10e-4 0.052,0.008 0.08,0.008 m 0,-21.153 c 1.922,0 3.485,-1.563 3.485,-3.485 v 0 c 0,-1.922 -1.563,-3.484 -3.485,-3.484 v 0 c -0.005,0 -0.01,0 -0.015,0 v 0 0 l -30.413,0.707 v 0.002 c -1.523,0.008 -2.761,1.249 -2.761,2.775 v 0 c 0,1.527 1.238,2.767 2.761,2.775 v 0 0.002 l 30.413,0.708 v -0.002 c 0.005,0 0.01,0.002 0.015,0.002 m -0.21,-28.102 c -0.188,0.011 -0.375,0.029 -0.554,0.069 v 0 l -29.729,1.965 v 0.003 c -1.493,0.043 -2.696,1.266 -2.696,2.769 v 0 c 0,1.532 1.246,2.778 2.777,2.778 v 0 c 0.018,0 0.034,-0.006 0.051,-0.006 v 0 0.004 l 30.413,-0.636 -10e-4,-0.003 c 1.898,-0.029 3.434,-1.576 3.434,-3.479 v 0 c 0,-1.922 -1.563,-3.485 -3.485,-3.485 v 0 c -0.028,0 -0.053,0.007 -0.08,0.008 v 0 l -10e-4,-0.004 z m -1.068,-20.099 -29.264,2.546 c -1.471,0.069 -2.647,1.277 -2.647,2.765 v 0 c 0,1.531 1.246,2.776 2.777,2.776 v 0 c 0.036,0 0.068,-0.009 0.103,-0.01 v 0 0.002 l 0.032,-0.005 c 0.204,-0.01 0.399,-0.043 0.589,-0.094 v 0 l 29.792,-1.271 -0.001,-0.002 c 1.874,-0.055 3.382,-1.587 3.382,-3.473 v 0 c 0,-1.921 -1.563,-3.484 -3.485,-3.484 v 0 c -0.451,0 -0.881,0.092 -1.278,0.25"
style="fill:url(#linearGradient136);stroke:none"
/></g></g></g></g><g
><g
clip-path="url(#clipPath146)"><g
><g
><path
d="M 808.672,703.837 V 561.33 c 0,-25.172 26.533,-35.573 50.565,-35.573 v 0 c 8.581,0 16.843,1.325 23.464,3.779 v 0 H 882.7 c -1.352,1.588 -2.578,3.295 -3.659,5.108 v 0 c -1.08,1.815 -2.014,3.737 -2.778,5.756 v 0 c -0.382,1.009 -0.722,2.043 -1.018,3.099 v 0 c -0.885,3.17 -1.365,6.547 -1.365,10.092 v 0 157.985 c 0,9.437 3.399,17.67 8.787,24.017 v 0 c -6.02,2.137 -13.397,3.232 -21.131,3.232 v 0 c -24.605,0 -52.864,-11.082 -52.864,-34.988 m 13.172,-36.657 c 0,1.319 1.044,2.39 2.348,2.451 v 0 l 25.951,2.061 c 0.352,0.139 0.732,0.222 1.134,0.222 v 0 c 1.703,0 3.089,-1.387 3.089,-3.091 v 0 c 0,-1.672 -1.338,-3.031 -2.998,-3.08 v 0 -0.002 l -26.419,-0.928 c -0.168,-0.045 -0.342,-0.075 -0.522,-0.084 v 0 l -0.029,-0.004 v 0.002 c -0.03,-10e-4 -0.059,-0.01 -0.092,-0.01 v 0 c -1.358,0 -2.462,1.105 -2.462,2.463 m 29.433,-13.095 c 1.703,0 3.089,-1.386 3.089,-3.091 v 0 c 0,-1.687 -1.362,-3.06 -3.044,-3.084 v 0 -0.004 l -26.97,-0.564 v 0.004 c -0.016,-10e-4 -0.029,-0.005 -0.046,-0.005 v 0 c -1.358,0 -2.462,1.104 -2.462,2.463 v 0 c 0,1.333 1.066,2.417 2.391,2.456 v 0 l -10e-4,0.002 26.365,1.743 c 0.158,0.036 0.323,0.05 0.49,0.061 v 0 l 0.115,0.014 0.001,-0.002 c 0.024,0 0.046,0.007 0.072,0.007 m 0,-18.759 c 1.703,0 3.089,-1.386 3.089,-3.09 v 0 c 0,-1.704 -1.386,-3.09 -3.089,-3.09 v 0 c -0.006,0 -0.01,0.001 -0.015,0.001 v 0 -0.001 l -26.968,0.627 v 0.002 c -1.353,0.007 -2.45,1.107 -2.45,2.461 v 0 c 0,1.353 1.097,2.454 2.45,2.461 v 0 0.002 l 26.968,0.627 v -0.002 c 0.005,0 0.009,0.002 0.015,0.002 m -0.188,-24.92 c -0.167,0.011 -0.332,0.025 -0.49,0.061 v 0 l -26.365,1.743 10e-4,0.002 c -1.325,0.039 -2.391,1.123 -2.391,2.456 v 0 c 0,1.359 1.104,2.463 2.462,2.463 v 0 c 0.017,0 0.03,-0.004 0.046,-0.005 v 0 0.003 l 26.97,-0.563 v -0.004 c 1.682,-0.024 3.044,-1.397 3.044,-3.084 v 0 c 0,-1.705 -1.386,-3.091 -3.089,-3.091 v 0 c -0.026,0 -0.048,0.007 -0.072,0.007 v 0 l -0.001,-0.002 z m -0.946,-17.626 -25.951,2.06 c -1.304,0.062 -2.348,1.133 -2.348,2.452 v 0 c 0,1.358 1.104,2.463 2.462,2.463 v 0 c 0.033,0 0.062,-0.009 0.092,-0.01 v 0 0.002 l 0.029,-0.005 c 0.18,-0.009 0.354,-0.038 0.522,-0.083 v 0 l 26.419,-0.929 v -10e-4 c 1.66,-0.05 2.998,-1.408 2.998,-3.08 v 0 c 0,-1.705 -1.386,-3.091 -3.089,-3.091 v 0 c -0.402,0 -0.782,0.083 -1.134,0.222"
style="fill:url(#linearGradient156);stroke:none"
/></g></g></g></g></g></g></svg>
